<?xml version="1.0" encoding="utf-8"?>
<!-- Generator: Adobe Illustrator 18.0.0, SVG Export Plug-In . SVG Version: 6.00 Build 0)  -->
<!DOCTYPE svg PUBLIC "-//W3C//DTD SVG 1.1//EN" "http://www.w3.org/Graphics/SVG/1.1/DTD/svg11.dtd">
<svg version="1.1" id="Camada_1" xmlns="http://www.w3.org/2000/svg" xmlns:xlink="http://www.w3.org/1999/xlink" x="0px" y="0px"
	 viewBox="237 197.7 547.9 64" enable-background="new 237 197.7 547.9 64" xml:space="preserve">
<path fill="#ECC657" d="M783.9,248.5c0,5.7-5.6,10.3-12.5,10.3H251.5c-6.9,0-12.5-4.6-12.5-10.3v-38.4c0-5.7,5.6-10.3,12.5-10.3
	h519.8c6.9,0,12.5,4.6,12.5,10.3V248.5z"/>
<path fill="#FFEDBB" d="M776.5,243.9c0,4.5-5.5,8.1-12.2,8.1H258.6c-6.7,0-12.2-3.6-12.2-8.1v-30.2c0-4.5,5.5-8.1,12.2-8.1h505.7
	c6.7,0,12.2,3.6,12.2,8.1V243.9z"/>
</svg>
