<?xml version="1.0" encoding="utf-8"?>
<!-- Generator: Adobe Illustrator 18.0.0, SVG Export Plug-In . SVG Version: 6.00 Build 0)  -->
<!DOCTYPE svg PUBLIC "-//W3C//DTD SVG 1.1//EN" "http://www.w3.org/Graphics/SVG/1.1/DTD/svg11.dtd">
<svg version="1.1" id="Camada_1" xmlns="http://www.w3.org/2000/svg" xmlns:xlink="http://www.w3.org/1999/xlink" x="0px" y="0px"
	 viewBox="0 0 1024 768" enable-background="new 0 0 1024 768" xml:space="preserve">
<g>
	<defs>
		<rect id="SVGID_1_" x="0" width="1024" height="768"/>
	</defs>
	<linearGradient id="SVGID_2_" gradientUnits="userSpaceOnUse" x1="512.0101" y1="-52.1181" x2="512.0101" y2="622.1098">
		<stop  offset="0" style="stop-color:#FC5B3A"/>
		<stop  offset="0.3547" style="stop-color:#FE8A25"/>
		<stop  offset="1" style="stop-color:#FFAB17"/>
	</linearGradient>
	<use xlink:href="#SVGID_1_"  overflow="visible" fill="url(#SVGID_2_)"/>
	<clipPath id="SVGID_3_">
		<use xlink:href="#SVGID_1_"  overflow="visible"/>
	</clipPath>
	<linearGradient id="SVGID_4_" gradientUnits="userSpaceOnUse" x1="512.0101" y1="-52.1185" x2="512.0101" y2="622.1092">
		<stop  offset="0" style="stop-color:#FC5B3A"/>
		<stop  offset="0.3547" style="stop-color:#FE8A25"/>
		<stop  offset="1" style="stop-color:#FFAB17"/>
	</linearGradient>
	<polygon clip-path="url(#SVGID_3_)" fill="url(#SVGID_4_)" points="0.1,776.3 -5.4,0 1023.9,-8.3 1029.5,768 	"/>
</g>
<path opacity="0.5" fill="#F4BB67" d="M1023.8,653.6c-0.9,2.3-12.2,8.2-119.4-11.8c-126.7-23.6-288.5-11.7-288.5-11.7
	s-45.9,13-170.7-12.3c-124.8-25.3-199.5,42.5-265.4,45.1C114.1,665.4,52.7,627.7,0,629.7V768h1023.9V653.6z"/>
<g>
	<path fill="#5E8101" d="M931.2,669.7c1.1,17.1,12.2,17.5,18.8,18.4c-2.7,4.4,28,14.7,20-2.8c20.9,4.9,16.7-13.3,16.7-13.3
		s19,1.5,16-14.1c24.3,9.5,19-15.6,4.9-14.8c6.8-9.1-1.9-12.5-3.4-15.2c19.4-5.3,3.4-20.1,3.4-20.1s6.5-16.3-13.7-17.1
		c3-19.8-15.2-18.6-16-12.9c-5.7-10.6-15.2-4.5-15.2-2.7c1.9-17.9-43.7-28.9-31.5-2.7c-18.6,0.8-9.9,16.3-9.9,16.3
		s-16.8-3.8-9.3,7.6c-7.4-7.2-13.5-7.6-19.2-6.8c1.5-19.8-27.4-12.9-19.4,1.1c-22.8,5.3-9.9,22.8-5.3,23.6
		c-20.1,11.8-1.9,20.5-1.9,20.5s-9.1-1.1-11.4,9.9c-24.7-3-12.5,34.2,4.6,23.6c0,15.6,7.2,12.5,11.8,10.9
		c10.6,24.4,34.5,6.6,30.3,3.3c16.4,1.7,12.8-13.9,12.8-13.9S923.9,677.3,931.2,669.7"/>
	<path fill="#85A601" d="M868.9,638.6c-4.1-1.3-11.4,0.1-11.5,0.2c3.5-4.6,8.9-4,8.9-4s-18.2-8.7,1.9-20.5
		c-4.6-0.8-17.5-18.2,5.3-23.6c-8-14.1,20.9-20.9,19.4-1.1c5.7-0.8,11.8-0.4,19.2,6.8c-7.4-11.4,9.3-7.6,9.3-7.6s-8.8-15.6,9.9-16.3
		c-12.2-26.2,33.4-15.2,31.5,2.7c0-1.8,9.5-8,15.2,2.7c0.8-5.7,19-6.8,16,12.9c20.1,0.8,13.7,17.1,13.7,17.1s16,14.8-3.4,20.1
		c1.5,2.7,10.3,6.1,3.4,15.2c8.4-0.5,13.7,8.3,11.4,13.4l-0.4,0.8c0,0,0.8-9.6-17.8-11.5c-11-20.5-17.9-10.1-18.2-6.8
		c3.8,1.7,5.7,7.2,5.7,7.2s-8-6.3-19-7.2c4.7-2.7,9.7-1.7,9.7-1.7s5.9-7.7-4-11.3c5.5-12.3-7.6-13.7-7.6-13.7s-12-12.7-16,3.4
		c0.6,4,7.4-2.5,10.6,4.9c-6.3-2.1-8.7-1.9-14,3.8c-2.7-2.1,4.9-6.8,1.5-8.7c-3.4-1.9-11.4-4-13.3,2.7c-0.6,2.7,3.5,3.8,2.2,6.1
		c-4-1-8.2-6.3-17-4.2c-1.2-2.1,7.3-4.2,7.3-4.2s-17.8-1.7-16.7,7.2c-14-4.6-19.2,0-19.9,2.6c-0.8,2.7,3.8,7.2,3.8,7.2
		s-9.9,3.2-10.6-7.2C883.1,640.9,869.6,626.4,868.9,638.6"/>
	<path fill="#9EC012" d="M868.1,614.3c-4.6-0.8-17.5-18.2,5.3-23.6c-8-14.1,20.9-20.9,19.4-1.1c5.7-0.8,11.8-0.4,19.2,6.8
		c-7.4-11.4,9.3-7.6,9.3-7.6s-8.7-15.6,9.9-16.3c-12.2-26.2,33.4-15.2,31.5,2.7c0-1.8,9.5-8,15.2,2.7c0.8-5.7,19-6.8,16,12.9
		c20.1,0.8,13.7,17.1,13.7,17.1s16,14.8-3.4,20.1c1.2,2.1,7.1,4.8,5.8,10.4c0,0-8.5-11.5-15.1-11.8c21.9-2.4,8.3-18.9,6.1-16.7
		c3.5-14.2-8.7-13.7-10.3-12.4c-1.6,1.3,0,8.5,0,8.5s-6.6-7.5-14.3-10c6.9-2.5,10.8,3,10.8-0.8c-0.1-5.7-12.9-8-14.7-5.7
		c-2.1-7.1-8.8-6.9-10.5-6.7c-1.7,0.2,1,2,0,4.4c-3.9-5.8-11.4-7.7-12.5-9.2c5.4-1.3,7.3,1.1,8.4,0c0.1-9.2-25.5-17-20.1,2
		c-16.1-2.8-10.4,11.3-8.2,12.2c7.1-0.3,9.4-0.2,11.8,1.3c-10.5,1.8-11.8,10-11.8,10s-0.1-7.9-2.8-8.9c-2.7-1-15.4,7.7-11.3,9.5
		c4.1,1.8,5.6,5.3,5.6,5.3s-8.6-3.2-14.1-3.2c0.5-2,2.2-2,3.5-3.2c-0.9-5.9-15.1-14.5-17.9-4.7c2.7,0.6,5.1,4.7,5.1,4.7
		s-8.7-3.2-12.5,6.6c-2.4-3.4,0.3-7.5,3.2-11c-9.2-8.8-22.5,2.8-10.4,17.2c-17.9-1.3-15.8,16.1-15.8,16.1
		C858.2,628.4,854.9,622,868.1,614.3"/>
	<path fill="#5E8101" d="M854.8,644.7c0.3-1.6,0.8-2.9,1.3-4c0,0-1.7,3.7,5.9,7.7c7.6,4,13.3-4.9,13.3-4.9s-1.6,3.7-1.5,5.4
		c10.2-9.5,18.6-8.2,18.6-8.2s-3.2-2.9-5.9-2.3c-0.1-7.9,12.3-5.9,14.1-10.1c1,3.3,6.9,11,15.3,0.8c1.7,4.4,7.9,12.6,16,2.3
		c3.5,9.8,12.2,3.8,11.4,1.5c-1.3,0-6.6-3.6-7.2-6.9c4.7,2.2,12.4,7,19.1,3.1c0.8,3.4-8.5,4.2-8.5,4.2s3.9,21.3,20.7,7.2
		c-2.3,5.8,5.6,19.8,14.2,9.9c-0.6,4.4,12.5,13.6,16.3,3.2c0.5,2.5,4.6,4.4,4.6,4.4c3,15.6-16,14.1-16,14.1s4.2,18.2-16.7,13.3
		c8,17.5-22.7,7.2-20,2.8c-6.6-0.9-17.6-1.3-18.8-18.4c-7.2,7.6-16.9-1.1-16.9-1.1s3.6,15.6-12.8,13.9c4.1,3.2-19.7,21.1-30.3-3.3
		c-4.6,1.6-11.8,4.7-11.8-10.9C842.3,678.9,830.1,641.6,854.8,644.7"/>
	<path fill="#546B00" d="M845.4,646.1c-0.1,0.3-7.7,16.1,6.2,19.6c12.2,1.8,15.2-16.3,15.2-16.3s2,6.7,9.7,4.8
		c-1.9,3.4-7.9,4.1-7.9,4.1s-2.1,11.5,10.9-0.9c-0.6,5.3,13.8,10.7,14.6-2.6c6.1,1.5,15.9-2,11.8-10.1c-1.5-2.3-8.3-2.5-10.1-7.4
		c7.6,3,17.5,0,17.5,0s0.8,3.6-3.4,6.6c1.9,6.6,13.8,1.3,13.8,1.3s8.6,14.6,17.2,1.3c-6.6-2.7-8.1-8.2-8.1-8.2s10.1,7.5,18.4,1
		c-0.8,5.3-6.3,7.6-6.3,7.6s3,13.9,17.5,11.6c2.1,16.4,16.9,5.5,16.9,5.5s-6.6-2.2-6.5-7.6c10,9.5,19.8,1.8,19.8,1.8
		s1.4,5.9-7.8,7.5c2.2,2.6,10.7,7.5,17.5-1.2c-2.8,8.5-15.8,7.4-15.8,7.4s4.2,18.2-16.7,13.3c8,17.5-22.7,7.2-20,2.8
		c-6.6-0.9-17.6-1.3-18.8-18.4c-7.2,7.6-16.9-1.1-16.9-1.1s3.6,15.6-12.8,13.9c4.1,3.2-19.7,21.1-30.3-3.3
		c-4.6,1.6-11.8,4.7-11.8-10.9C845.1,677.1,834.3,652.7,845.4,646.1"/>
	<path fill="#485800" d="M875.6,664.4c0,0,7.6,7.6,11.9,3c1.3,3.4-4.3,4.6-4.3,4.6s6.6,7.8,11.4-2.3c-0.1,2.3,15.5,9.6,17.5-0.3
		c0.2-1.8-5.4-3.3-5.4-3.3s5.6,1.8,7.6-2.3c6.2,8.3,14.4,4.6,14.4,4.6s-1.4-5.7-0.1-5.3c8,2.5,14.1-1.5,14.1-1.5s-0.9,3.3-6.5,8.4
		c-6.1,9.1,9.7,17.6,15.1,9.1c1-1.5,0-10.9,0-10.9s1.8,10.6,9.4,9c-21.8,13.5,4.8,24.2,6.3,5.2c17.2,5.3,19.6-10.4,19.6-10.4
		s4.2,18.2-16.7,13.3c8,17.5-22.7,7.3-20,2.8c-6.6-0.9-17.6-1.3-18.8-18.4c-7.2,7.6-16.9-1.1-16.9-1.1s3.6,15.6-12.8,13.9
		c4.1,3.2-19.7,21.1-30.3-3.3c-4.6,1.6-11.8,4.7-11.8-10.9c0,0,4.2,17.1,18.7,3.8C879.5,670.3,875.6,664.4,875.6,664.4"/>
</g>
<g>
	<path fill="#5E8101" d="M895.9,679.6c0.7,10.4,7.4,10.7,11.5,11.2c-1.7,2.7,17.1,9,12.2-1.7c12.7,3,10.2-8.1,10.2-8.1
		s11.6,0.9,9.7-8.6c14.8,5.8,11.6-9.5,3-9c4.2-5.6-1.2-7.7-2.1-9.3c11.8-3.2,2.1-12.3,2.1-12.3s3.9-10-8.3-10.4
		c1.9-12.1-9.3-11.4-9.7-7.9c-3.5-6.5-9.3-2.7-9.3-1.6c1.2-10.9-26.7-17.6-19.2-1.6c-11.4,0.5-6,10-6,10s-10.2-2.3-5.7,4.6
		c-4.5-4.4-8.2-4.6-11.7-4.2c0.9-12.1-16.7-7.9-11.8,0.7c-13.9,3.2-6,13.9-3.2,14.4c-12.3,7.2-1.2,12.5-1.2,12.5s-5.6-0.7-7,6
		c-15.1-1.9-7.6,20.9,2.8,14.4c0,9.5,4.4,7.7,7.2,6.7c6.5,14.9,21,4,18.5,2c10,1,7.8-8.5,7.8-8.5S891.5,684.3,895.9,679.6"/>
	<path fill="#85A601" d="M857.9,660.6c-2.5-0.8-6.9,0.1-7,0.1c2.2-2.8,5.4-2.4,5.4-2.4s-11.1-5.3,1.2-12.5
		c-2.8-0.5-10.7-11.1,3.2-14.4c-4.9-8.6,12.7-12.7,11.8-0.7c3.5-0.5,7.2-0.2,11.7,4.2c-4.5-7,5.7-4.6,5.7-4.6s-5.3-9.5,6-10
		c-7.4-16,20.4-9.3,19.2,1.6c0-1.1,5.8-4.9,9.3,1.6c0.5-3.5,11.6-4.2,9.7,7.9c12.3,0.5,8.3,10.4,8.3,10.4s9.7,9-2.1,12.3
		c0.9,1.6,6.3,3.7,2.1,9.3c5.1-0.3,8.3,5.1,6.9,8.2l-0.3,0.5c0,0,0.5-5.9-10.9-7c-6.7-12.5-10.9-6.1-11.1-4.2c2.3,1,3.5,4.4,3.5,4.4
		s-4.9-3.8-11.6-4.4c2.9-1.6,5.9-1,5.9-1s3.6-4.7-2.4-6.9c3.4-7.5-4.6-8.3-4.6-8.3s-7.3-7.8-9.7,2.1c0.3,2.4,4.5-1.5,6.5,3
		c-3.8-1.3-5.3-1.2-8.6,2.3c-1.6-1.3,3-4.2,0.9-5.3c-2.1-1.2-7-2.4-8.1,1.6c-0.3,1.6,2.2,2.3,1.3,3.7c-2.4-0.6-5-3.8-10.3-2.5
		c-0.7-1.3,4.5-2.6,4.5-2.6s-10.9-1-10.2,4.4c-8.6-2.8-11.7,0-12.2,1.6c-0.5,1.6,2.3,4.4,2.3,4.4s-6,1.9-6.5-4.4
		C866.6,662,858.4,653.2,857.9,660.6"/>
	<path fill="#9EC012" d="M857.5,645.8c-2.8-0.5-10.7-11.1,3.2-14.4c-4.9-8.6,12.7-12.7,11.8-0.7c3.5-0.5,7.2-0.2,11.7,4.2
		c-4.5-7,5.7-4.6,5.7-4.6s-5.3-9.5,6-10c-7.4-16,20.4-9.3,19.2,1.6c0-1.1,5.8-4.9,9.3,1.6c0.5-3.5,11.6-4.2,9.7,7.9
		c12.3,0.5,8.3,10.4,8.3,10.4s9.7,9-2.1,12.3c0.7,1.3,4.3,2.9,3.6,6.4c0,0-5.2-7-9.2-7.2c13.3-1.5,5.1-11.5,3.7-10.2
		c2.2-8.7-5.3-8.3-6.3-7.6c-1,0.8,0,5.2,0,5.2s-4-4.6-8.7-6.1c4.2-1.5,6.6,1.8,6.6-0.5c0-3.5-7.8-4.9-9-3.5
		c-1.3-4.3-5.4-4.2-6.4-4.1c-1,0.1,0.6,1.2,0,2.7c-2.4-3.5-7-4.7-7.7-5.6c3.3-0.8,4.5,0.7,5.1,0c0.1-5.6-15.5-10.4-12.3,1.2
		c-9.8-1.7-6.3,6.9-5,7.4c4.3-0.2,5.7-0.1,7.2,0.8c-6.4,1.1-7.2,6.1-7.2,6.1s-0.1-4.8-1.7-5.4c-1.6-0.6-9.4,4.7-6.9,5.8
		c2.5,1.1,3.4,3.2,3.4,3.2s-5.2-2-8.6-1.9c0.3-1.2,1.3-1.2,2.2-1.9c-0.5-3.6-9.2-8.8-10.9-2.9c1.7,0.3,3.1,2.9,3.1,2.9s-5.3-2-7.6,4
		c-1.5-2.1,0.2-4.6,1.9-6.7c-5.6-5.4-13.7,1.7-6.3,10.5c-10.9-0.8-9.6,9.8-9.6,9.8C851.4,654.4,849.4,650.5,857.5,645.8"/>
	<path fill="#5E8101" d="M849.3,664.3c0.2-1,0.5-1.8,0.8-2.4c0,0-1,2.2,3.6,4.7c4.6,2.5,8.1-3,8.1-3s-1,2.2-0.9,3.3
		c6.2-5.8,11.4-5,11.4-5s-2-1.7-3.6-1.4c-0.1-4.8,7.5-3.6,8.6-6.1c0.6,2,4.2,6.7,9.3,0.5c1,2.7,4.8,7.7,9.8,1.4c2.1,6,7.4,2.3,7,0.9
		c-0.8,0-4.1-2.2-4.4-4.2c2.9,1.3,7.6,4.3,11.7,1.9c0.5,2.1-5.2,2.5-5.2,2.5s2.4,13,12.6,4.4c-1.4,3.6,3.4,12.1,8.7,6
		c-0.4,2.7,7.6,8.3,10,2c0.3,1.5,2.8,2.7,2.8,2.7c1.9,9.5-9.7,8.6-9.7,8.6s2.6,11.1-10.2,8.1c4.9,10.7-13.8,4.4-12.2,1.7
		c-4-0.5-10.8-0.8-11.5-11.2c-4.4,4.6-10.3-0.7-10.3-0.7s2.2,9.5-7.8,8.5c2.5,2-12,12.9-18.5-2c-2.8,1-7.2,2.8-7.2-6.7
		C841.7,685.2,834.3,662.5,849.3,664.3"/>
	<path fill="#546B00" d="M843.6,665.2c-0.1,0.2-4.7,9.8,3.8,12c7.5,1.1,9.3-10,9.3-10s1.2,4.1,5.9,2.9c-1.2,2.1-4.8,2.5-4.8,2.5
		s-1.3,7,6.7-0.6c-0.4,3.2,8.4,6.5,8.9-1.6c3.7,0.9,9.7-1.2,7.2-6.1c-0.9-1.4-5.1-1.5-6.1-4.5c4.6,1.8,10.7,0,10.7,0
		s0.5,2.2-2.1,4.1c1.2,4.1,8.4,0.8,8.4,0.8s5.2,8.9,10.5,0.8c-4-1.6-4.9-5-4.9-5s6.1,4.6,11.2,0.6c-0.5,3.2-3.8,4.6-3.8,4.6
		s1.8,8.5,10.7,7.1c1.3,10,10.3,3.4,10.3,3.4s-4-1.3-3.9-4.6c6.1,5.8,12.1,1.1,12.1,1.1s0.8,3.6-4.8,4.6c1.4,1.6,6.5,4.6,10.7-0.7
		c-1.7,5.2-9.6,4.5-9.6,4.5s2.5,11.1-10.2,8.1c4.9,10.7-13.8,4.4-12.2,1.7c-4-0.5-10.8-0.8-11.5-11.2c-4.4,4.6-10.3-0.7-10.3-0.7
		s2.2,9.5-7.8,8.5c2.5,2-12,12.9-18.5-2c-2.8,1-7.2,2.8-7.2-6.7C843.4,684.1,836.8,669.3,843.6,665.2"/>
	<path fill="#485800" d="M862,676.4c0,0,4.6,4.7,7.3,1.9c0.8,2.1-2.6,2.8-2.6,2.8s4,4.7,7-1.4c0,1.4,9.5,5.9,10.7-0.2
		c0.1-1.1-3.3-2-3.3-2s3.4,1.1,4.6-1.4c3.8,5,8.8,2.8,8.8,2.8s-0.8-3.5-0.1-3.2c4.9,1.5,8.6-0.9,8.6-0.9s-0.5,2-4,5.1
		c-3.7,5.6,5.9,10.7,9.2,5.6c0.6-0.9,0-6.7,0-6.7s1.1,6.5,5.7,5.5c-13.3,8.2,2.9,14.7,3.9,3.2c10.5,3.2,12-6.4,12-6.4
		s2.5,11.1-10.2,8.1c4.9,10.7-13.8,4.4-12.2,1.7c-4-0.5-10.8-0.8-11.5-11.2c-4.4,4.6-10.3-0.7-10.3-0.7s2.2,9.5-7.8,8.5
		c2.5,2-12,12.9-18.5-2c-2.8,1-7.2,2.8-7.2-6.7c0,0,2.6,10.4,11.4,2.3C864.4,680,862,676.4,862,676.4"/>
</g>
<g>
	<path fill="#5E8101" d="M86.8,665.1c-1,15.6-11.1,15.9-17.1,16.7c2.5,4.1-25.5,13.4-18.2-2.6c-19,4.5-15.2-12.1-15.2-12.1
		s-17.3,1.4-14.5-12.8c-22.2,8.7-17.3-14.2-4.5-13.5c-6.2-8.3,1.7-11.4,3.1-13.8c-17.7-4.8-3.1-18.4-3.1-18.4s-5.9-14.9,12.5-15.6
		c-2.8-18,13.9-17,14.5-11.8c5.2-9.7,13.8-4.1,13.9-2.4c-1.7-16.3,39.8-26.3,28.7-2.4c17,0.7,9,14.9,9,14.9s15.3-3.5,8.5,6.9
		c6.7-6.6,12.3-6.9,17.5-6.2c-1.4-18,24.9-11.8,17.7,1c20.8,4.8,9,20.8,4.8,21.5c18.3,10.7,1.7,18.7,1.7,18.7s8.3-1,10.4,9
		c22.5-2.8,11.4,31.2-4.2,21.5c0,14.2-6.6,11.4-10.7,10c-9.7,22.3-31.4,6-27.6,3c-14.9,1.6-11.7-12.6-11.7-12.6
		S93.4,672.1,86.8,665.1"/>
	<path fill="#85A601" d="M143.5,636.8c3.8-1.2,10.3,0.1,10.5,0.2c-3.2-4.2-8.1-3.6-8.1-3.6s16.6-8-1.7-18.7
		c4.2-0.7,15.9-16.6-4.8-21.5c7.3-12.8-19-19-17.7-1c-5.2-0.7-10.7-0.3-17.5,6.2c6.8-10.4-8.5-6.9-8.5-6.9s8-14.2-9-14.9
		c11.1-23.9-30.5-13.8-28.7,2.4c0-1.7-8.7-7.3-13.9,2.4c-0.7-5.2-17.3-6.2-14.5,11.8c-18.3,0.7-12.5,15.6-12.5,15.6
		s-14.5,13.5,3.1,18.4c-1.4,2.4-9.3,5.5-3.1,13.8c-7.6-0.4-12.5,7.6-10.4,12.2l0.4,0.7c0,0-0.7-8.7,16.2-10.5
		c10-18.7,16.3-9.2,16.6-6.2c-3.5,1.6-5.2,6.6-5.2,6.6s7.3-5.7,17.3-6.6c-4.3-2.4-8.8-1.5-8.8-1.5s-5.4-7,3.6-10.3
		c-5-11.2,6.9-12.4,6.9-12.4s10.9-11.6,14.5,3.1c-0.5,3.6-6.8-2.2-9.7,4.5c5.7-1.9,7.9-1.7,12.8,3.5c2.4-1.9-4.5-6.2-1.4-8
		c3.1-1.7,10.4-3.6,12.1,2.4c0.5,2.4-3.2,3.5-2,5.5c3.6-0.9,7.5-5.7,15.5-3.8c1.1-1.9-6.7-3.8-6.7-3.8s16.2-1.6,15.2,6.6
		c12.8-4.2,17.5,0,18.2,2.4c0.7,2.4-3.5,6.6-3.5,6.6s9,2.9,9.7-6.6C130.6,638.8,142.9,625.7,143.5,636.8"/>
	<path fill="#9EC012" d="M144.2,614.6c4.2-0.7,15.9-16.6-4.8-21.5c7.3-12.8-19-19-17.7-1c-5.2-0.7-10.7-0.3-17.5,6.2
		c6.8-10.4-8.5-6.9-8.5-6.9s8-14.2-9-14.9c11.1-23.9-30.5-13.8-28.7,2.4c0-1.7-8.7-7.3-13.9,2.4c-0.7-5.2-17.3-6.2-14.5,11.8
		c-18.3,0.7-12.5,15.6-12.5,15.6s-14.5,13.5,3.1,18.4c-1.1,1.9-6.5,4.3-5.3,9.5c0,0,7.8-10.5,13.7-10.8c-19.9-2.2-7.6-17.2-5.5-15.2
		c-3.2-12.9,7.9-12.5,9.3-11.3c1.4,1.2,0,7.7,0,7.7s6-6.8,13-9.1c-6.3-2.3-9.8,2.7-9.8-0.7c0.1-5.2,11.7-7.3,13.4-5.2
		c1.9-6.5,8-6.3,9.6-6.1c1.6,0.2-1,1.8,0,4c3.6-5.3,10.4-7,11.4-8.4c-4.9-1.2-6.7,1-7.6,0c-0.1-8.4,23.2-15.5,18.3,1.8
		c14.7-2.5,9.5,10.3,7.5,11.1c-6.5-0.2-8.5-0.2-10.7,1.2c9.6,1.6,10.7,9.1,10.7,9.1s0.1-7.2,2.5-8.1c2.4-0.9,14,7,10.3,8.7
		c-3.8,1.6-5.1,4.8-5.1,4.8s7.8-2.9,12.8-2.9c-0.5-1.8-2-1.8-3.2-2.9c0.8-5.4,13.7-13.2,16.3-4.3c-2.5,0.5-4.6,4.3-4.6,4.3
		s7.9-2.9,11.4,6c2.2-3.1-0.2-6.9-2.9-10c8.4-8,20.5,2.5,9.5,15.7c16.3-1.2,14.4,14.7,14.4,14.7
		C153.3,627.5,156.3,621.6,144.2,614.6"/>
	<path fill="#5E8101" d="M156.4,642.3c-0.3-1.4-0.7-2.6-1.2-3.6c0,0,1.5,3.3-5.3,7c-6.9,3.7-12.1-4.5-12.1-4.5s1.4,3.4,1.3,4.9
		c-9.3-8.7-17-7.4-17-7.4s2.9-2.6,5.4-2.1c0.1-7.2-11.2-5.4-12.8-9.2c-0.9,3-6.3,10-14,0.7c-1.6,4-7.2,11.5-14.6,2.1
		c-3.2,8.9-11.1,3.5-10.4,1.4c1.2,0,6.1-3.3,6.5-6.3c-4.3,2-11.3,6.4-17.4,2.8c-0.8,3.1,7.8,3.8,7.8,3.8s-3.6,19.4-18.9,6.6
		c2.1,5.3-5.1,18-13,9c0.6,4-11.4,12.3-14.9,2.9c-0.5,2.2-4.2,4-4.2,4c-2.8,14.2,14.5,12.8,14.5,12.8s-3.8,16.6,15.2,12.1
		c-7.3,15.9,20.7,6.6,18.2,2.6c6-0.8,16.1-1.2,17.1-16.7c6.6,6.9,15.4-1,15.4-1s-3.3,14.2,11.7,12.6c-3.8,2.9,18,19.2,27.6-3
		c4.2,1.5,10.7,4.2,10.7-10C167.8,673.4,178.9,639.5,156.4,642.3"/>
	<path fill="#546B00" d="M165,643.6c0.1,0.3,7,14.6-5.7,17.9c-11.1,1.7-13.8-14.9-13.8-14.9s-1.8,6.1-8.8,4.3
		c1.7,3.1,7.2,3.7,7.2,3.7s1.9,10.5-10-0.8c0.6,4.8-12.6,9.7-13.3-2.4c-5.6,1.3-14.5-1.8-10.7-9.2c1.3-2.1,7.6-2.3,9.2-6.7
		c-6.9,2.7-15.9,0-15.9,0s-0.7,3.3,3.1,6.1c-1.7,6.1-12.6,1.2-12.6,1.2s-7.8,13.3-15.7,1.2c6-2.4,7.4-7.4,7.4-7.4s-9.2,6.9-16.8,0.9
		c0.7,4.8,5.7,6.9,5.7,6.9s-2.7,12.7-15.9,10.6c-1.9,14.9-15.4,5-15.4,5s6-2,5.9-6.9c-9.1,8.7-18,1.7-18,1.7s-1.3,5.4,7.1,6.8
		c-2,2.4-9.8,6.9-15.9-1.1c2.5,7.7,14.4,6.8,14.4,6.8s-3.8,16.6,15.2,12.1c-7.3,15.9,20.7,6.6,18.2,2.6c6-0.8,16.1-1.2,17.1-16.7
		c6.6,6.9,15.4-1,15.4-1s-3.3,14.2,11.7,12.6c-3.8,2.9,18,19.2,27.6-3c4.2,1.5,10.7,4.2,10.7-10C165.2,671.8,175,649.6,165,643.6"/>
	<path fill="#485800" d="M137.4,660.3c0,0-6.9,7-10.8,2.8c-1.2,3.1,3.9,4.2,3.9,4.2s-6,7.1-10.4-2.1c0.1,2.1-14.1,8.8-16-0.2
		c-0.2-1.7,4.9-3,4.9-3s-5.1,1.6-6.9-2.1C96.5,667.4,89,664,89,664s1.3-5.2,0.1-4.8c-7.3,2.3-12.8-1.4-12.8-1.4s0.8,3,5.9,7.6
		c5.6,8.3-8.8,16-13.8,8.3c-0.9-1.4,0-10,0-10s-1.6,9.7-8.5,8.2c19.9,12.3-4.4,22-5.8,4.8c-15.7,4.8-17.9-9.5-17.9-9.5
		s-3.8,16.6,15.2,12.1c-7.3,15.9,20.7,6.6,18.2,2.6c6-0.8,16.1-1.2,17.1-16.7c6.6,6.9,15.4-1,15.4-1s-3.3,14.2,11.7,12.6
		c-3.8,2.9,18,19.2,27.6-3c4.2,1.5,10.7,4.2,10.7-10c0,0-3.8,15.6-17.1,3.5C133.9,665.7,137.4,660.3,137.4,660.3"/>
</g>
<g>
	<path fill="#5E8101" d="M138.1,672.8c-0.7,10.4-7.4,10.7-11.5,11.2c1.7,2.7-17.1,9-12.2-1.7c-12.7,3-10.2-8.1-10.2-8.1
		s-11.6,0.9-9.7-8.6c-14.8,5.8-11.6-9.5-3-9c-4.2-5.6,1.2-7.7,2.1-9.3c-11.8-3.2-2.1-12.3-2.1-12.3s-3.9-10,8.3-10.4
		c-1.9-12.1,9.3-11.4,9.7-7.9c3.5-6.5,9.3-2.7,9.3-1.6c-1.2-10.9,26.7-17.6,19.2-1.6c11.4,0.5,6,10,6,10s10.2-2.3,5.7,4.6
		c4.5-4.4,8.2-4.6,11.7-4.2c-0.9-12.1,16.7-7.9,11.8,0.7c13.9,3.2,6,13.9,3.2,14.4c12.3,7.2,1.2,12.5,1.2,12.5s5.6-0.7,7,6
		c15.1-1.9,7.6,20.9-2.8,14.4c0,9.5-4.4,7.7-7.2,6.7c-6.5,14.9-21,4-18.5,2c-10,1-7.8-8.5-7.8-8.5S142.5,677.4,138.1,672.8"/>
	<path fill="#85A601" d="M176.1,653.8c2.5-0.8,6.9,0.1,7,0.1c-2.2-2.8-5.4-2.4-5.4-2.4s11.1-5.3-1.2-12.5
		c2.8-0.5,10.7-11.1-3.2-14.4c4.9-8.6-12.7-12.7-11.8-0.7c-3.5-0.5-7.2-0.2-11.7,4.2c4.5-7-5.7-4.6-5.7-4.6s5.3-9.5-6-10
		c7.4-16-20.4-9.3-19.2,1.6c0-1.1-5.8-4.9-9.3,1.6c-0.5-3.5-11.6-4.2-9.7,7.9C87.5,625,91.5,635,91.5,635s-9.7,9,2.1,12.3
		c-0.9,1.6-6.3,3.7-2.1,9.3c-5.1-0.3-8.3,5.1-6.9,8.2l0.3,0.5c0,0-0.5-5.9,10.9-7c6.7-12.5,10.9-6.1,11.1-4.2
		c-2.3,1-3.5,4.4-3.5,4.4s4.9-3.8,11.6-4.4c-2.9-1.6-5.9-1-5.9-1s-3.6-4.7,2.4-6.9c-3.4-7.5,4.6-8.3,4.6-8.3s7.3-7.8,9.7,2.1
		c-0.3,2.4-4.5-1.5-6.5,3c3.8-1.3,5.3-1.2,8.6,2.3c1.6-1.3-3-4.2-0.9-5.3c2.1-1.2,7-2.4,8.1,1.6c0.3,1.6-2.2,2.3-1.3,3.7
		c2.4-0.6,5-3.8,10.3-2.5c0.7-1.3-4.5-2.6-4.5-2.6s10.9-1,10.2,4.4c8.6-2.8,11.7,0,12.2,1.6c0.5,1.6-2.3,4.4-2.3,4.4s6,1.9,6.5-4.4
		C167.4,655.2,175.6,646.4,176.1,653.8"/>
	<path fill="#9EC012" d="M176.6,639c2.8-0.5,10.7-11.1-3.2-14.4c4.9-8.6-12.7-12.7-11.8-0.7c-3.5-0.5-7.2-0.2-11.7,4.2
		c4.5-7-5.7-4.6-5.7-4.6s5.3-9.5-6-10c7.4-16-20.4-9.3-19.2,1.6c0-1.1-5.8-4.9-9.3,1.6c-0.5-3.5-11.6-4.2-9.7,7.9
		C87.5,625,91.5,635,91.5,635s-9.7,9,2.1,12.3c-0.7,1.3-4.3,2.9-3.6,6.4c0,0,5.2-7,9.2-7.2c-13.3-1.5-5.1-11.5-3.7-10.2
		c-2.2-8.7,5.3-8.3,6.3-7.6c1,0.8,0,5.2,0,5.2s4-4.6,8.7-6.1c-4.2-1.5-6.6,1.8-6.6-0.5c0-3.5,7.8-4.9,9-3.5c1.3-4.3,5.4-4.2,6.4-4.1
		c1,0.1-0.6,1.2,0,2.7c2.4-3.5,7-4.7,7.7-5.6c-3.3-0.8-4.5,0.7-5.1,0c-0.1-5.6,15.5-10.4,12.3,1.2c9.8-1.7,6.3,6.9,5,7.4
		c-4.3-0.2-5.7-0.1-7.2,0.8c6.4,1.1,7.2,6.1,7.2,6.1s0.1-4.8,1.7-5.4c1.6-0.6,9.4,4.7,6.9,5.8c-2.5,1.1-3.4,3.2-3.4,3.2
		s5.2-2,8.6-1.9c-0.3-1.2-1.3-1.2-2.2-1.9c0.5-3.6,9.2-8.8,10.9-2.9c-1.7,0.3-3.1,2.9-3.1,2.9s5.3-2,7.6,4c1.5-2.1-0.2-4.6-1.9-6.7
		c5.6-5.4,13.7,1.7,6.3,10.5c10.9-0.8,9.6,9.8,9.6,9.8C182.6,647.6,184.6,643.7,176.6,639"/>
	<path fill="#5E8101" d="M184.7,657.5c-0.2-1-0.5-1.8-0.8-2.4c0,0,1,2.2-3.6,4.7c-4.6,2.5-8.1-3-8.1-3s1,2.2,0.9,3.3
		c-6.2-5.8-11.4-5-11.4-5s2-1.7,3.6-1.4c0.1-4.8-7.5-3.6-8.6-6.1c-0.6,2-4.2,6.7-9.3,0.5c-1,2.7-4.8,7.7-9.8,1.4
		c-2.1,6-7.4,2.3-7,0.9c0.8,0,4.1-2.2,4.4-4.2c-2.9,1.3-7.6,4.3-11.7,1.9c-0.5,2.1,5.2,2.5,5.2,2.5s-2.4,13-12.6,4.4
		c1.4,3.6-3.4,12.1-8.7,6c0.4,2.7-7.6,8.3-10,2c-0.3,1.5-2.8,2.7-2.8,2.7c-1.9,9.5,9.7,8.6,9.7,8.6s-2.6,11.1,10.2,8.1
		c-4.9,10.7,13.8,4.4,12.2,1.7c4-0.5,10.8-0.8,11.5-11.2c4.4,4.6,10.3-0.7,10.3-0.7s-2.2,9.5,7.8,8.5c-2.5,2,12,12.9,18.5-2
		c2.8,1,7.2,2.8,7.2-6.7C192.3,678.4,199.7,655.6,184.7,657.5"/>
	<path fill="#546B00" d="M190.4,658.4c0.1,0.2,4.7,9.8-3.8,12c-7.5,1.1-9.3-10-9.3-10s-1.2,4.1-5.9,2.9c1.2,2.1,4.8,2.5,4.8,2.5
		s1.3,7-6.7-0.6c0.4,3.2-8.4,6.5-8.9-1.6c-3.7,0.9-9.7-1.2-7.2-6.1c0.9-1.4,5.1-1.5,6.1-4.5c-4.6,1.8-10.7,0-10.7,0
		s-0.5,2.2,2.1,4.1c-1.2,4.1-8.4,0.8-8.4,0.8s-5.2,8.9-10.5,0.8c4-1.6,4.9-5,4.9-5s-6.1,4.6-11.2,0.6c0.5,3.2,3.8,4.6,3.8,4.6
		s-1.8,8.5-10.7,7.1c-1.3,10-10.3,3.4-10.3,3.4s4-1.3,3.9-4.6c-6.1,5.8-12.1,1.1-12.1,1.1s-0.8,3.6,4.8,4.6
		c-1.4,1.6-6.5,4.6-10.7-0.7c1.7,5.2,9.6,4.5,9.6,4.5s-2.5,11.1,10.2,8.1c-4.9,10.7,13.8,4.4,12.2,1.7c4-0.5,10.8-0.8,11.5-11.2
		c4.4,4.6,10.3-0.7,10.3-0.7s-2.2,9.5,7.8,8.5c-2.5,2,12,12.9,18.5-2c2.8,1,7.2,2.8,7.2-6.7C190.6,677.3,197.2,662.4,190.4,658.4"/>
	<path fill="#485800" d="M172,669.5c0,0-4.6,4.7-7.3,1.9c-0.8,2.1,2.6,2.8,2.6,2.8s-4,4.7-7-1.4c0,1.4-9.5,5.9-10.7-0.2
		c-0.1-1.1,3.3-2,3.3-2s-3.4,1.1-4.6-1.4c-3.8,5-8.8,2.8-8.8,2.8s0.8-3.5,0.1-3.2c-4.9,1.5-8.6-0.9-8.6-0.9s0.5,2,4,5.1
		c3.7,5.6-5.9,10.7-9.2,5.6c-0.6-0.9,0-6.7,0-6.7s-1.1,6.5-5.7,5.5c13.3,8.2-2.9,14.7-3.9,3.2c-10.5,3.2-12-6.4-12-6.4
		s-2.5,11.1,10.2,8.1c-4.9,10.7,13.8,4.4,12.2,1.7c4-0.5,10.8-0.8,11.5-11.2c4.4,4.6,10.3-0.7,10.3-0.7s-2.2,9.5,7.8,8.5
		c-2.5,2,12,12.9,18.5-2c2.8,1,7.2,2.8,7.2-6.7c0,0-2.6,10.4-11.4,2.3C169.6,673.1,172,669.5,172,669.5"/>
</g>
<path fill="#7DA204" d="M100.6,720.8c-2-2.8-1.9-4.9-1.9-4.9s2.8,3.1,6.6,1.8c3.9-1.3,1.5-9.8,1.5-9.8s2.7,2.2,3.3,5.3
	c1.9-0.7,1.1-2.7,1-5.8c2.2,2.7,4.4,6.4,6.8,8.6c2.3-2.3,1.4-9.4,1.4-9.4s4.1,9.1,7.8,8.5c3.7-0.6,3.2-16.5-0.9-23.7
	c9.8,3.9,11.8,22.8,14.6,22.2c2.8-0.5,4.3-13.8,1.6-21.4c2-0.5,8.7,22.3,8.7,22.3s-1.2-19.2,0.1-26.3c2.3,7.5,8.2,24.4,8.2,24.4
	s1.6-18.9,5.2-18.6c-1.2,4.9,3.7,16.9,3.7,16.9s3.5-10.3,5.9-10.3c-3.2,13.4,4.7,21.4,4.7,21.4L100.6,720.8z"/>
<g>
	<defs>
		<polygon id="SVGID_5_" points="101.5,652.7 101.5,639.9 95.7,651.1 98.9,622.9 90,656 84.9,631.7 84.9,673.2 75.3,639.9 
			82.3,703.3 50.3,645.1 70.1,705.1 114.3,705.6 139.9,684.1 116.2,692 155.3,651.1 106.6,692 141.2,645.8 113,670.6 136.7,626.2 
			109.8,659.2 119.4,639.9 107.9,647.7 114.9,622.9 		"/>
	</defs>
	<clipPath id="SVGID_6_">
		<use xlink:href="#SVGID_5_"  overflow="visible"/>
	</clipPath>
	
		<linearGradient id="SVGID_7_" gradientUnits="userSpaceOnUse" x1="219.3621" y1="591.5604" x2="221.082" y2="591.5604" gradientTransform="matrix(-24.5663 50.2493 50.2493 24.5663 -24205.5859 -24948.6641)">
		<stop  offset="0" style="stop-color:#68B00E"/>
		<stop  offset="1" style="stop-color:#2E6635"/>
	</linearGradient>
	<polygon clip-path="url(#SVGID_6_)" fill="url(#SVGID_7_)" points="187.9,638.9 135,747.1 17.7,689.7 70.5,581.5 	"/>
</g>
<g>
	<g>
		<defs>
			<polygon id="SVGID_8_" points="229.2,652.7 229.2,639.9 235,651.1 231.8,622.9 240.7,656 245.9,631.7 245.9,673.2 255.5,639.9 
				248.4,703.3 280.4,645.1 260.6,705.1 216.4,705.6 190.8,684.1 214.5,692 175.4,651.1 224.1,692 189.5,645.8 217.7,670.6 
				194,626.2 220.9,659.2 211.3,639.9 222.8,647.7 215.8,622.9 			"/>
		</defs>
		<clipPath id="SVGID_9_">
			<use xlink:href="#SVGID_8_"  overflow="visible"/>
		</clipPath>
		
			<linearGradient id="SVGID_10_" gradientUnits="userSpaceOnUse" x1="200.6596" y1="629.8154" x2="202.3802" y2="629.8154" gradientTransform="matrix(24.5663 50.2493 -50.2493 24.5663 26918.0488 -24948.6641)">
			<stop  offset="0" style="stop-color:#68B00E"/>
			<stop  offset="1" style="stop-color:#2E6635"/>
		</linearGradient>
		<polygon clip-path="url(#SVGID_9_)" fill="url(#SVGID_10_)" points="142.8,638.9 195.7,747.1 313.1,689.7 260.2,581.5 		"/>
	</g>
	<path fill="#2C5A02" d="M132,714.5l99.4,0.7c0.6,1.5,1.4,2.9,2.3,4.2l85.5,0.6c-12-10-8.6-44.8,7.6-57.2
		c-13.7,2.9-21.3,20.1-21.3,20.1s1.2-15.5,1.9-24.4c-2.1-0.7-4.4,4.5-4.4,4.5s0.6-18.1-3.8-18c0.5,8.2-7.4,44.8-7.4,44.8
		s-2-29.7-1.4-39.8c-6.8,0.5-10.9,36.1-10.9,36.1s-12.2-31.7-9.5-41.6c-5.5,0.2-10.1,19.1-7.1,39.8c-2.5-2.8-13-23.3-9.9-35.2
		c-17.6,10.9-7.6,39.5-10.6,44.3c-3-0.8-7.1-9.2-13.6-15c0.1-1,0.2-2.1,0.4-3.1c0-0.1,0-0.1,0-0.1c0.1-1,0.3-2,0.5-3
		c0-0.1,0-0.2,0.1-0.3c0.2-0.9,0.3-1.9,0.5-2.8c0-0.1,0.1-0.3,0.1-0.4c0.2-0.9,0.4-1.8,0.6-2.7c0-0.2,0.1-0.4,0.1-0.6
		c0.2-0.8,0.4-1.7,0.7-2.5c0.1-0.2,0.1-0.4,0.2-0.7c0.2-0.8,0.5-1.6,0.7-2.3c0.1-0.3,0.2-0.5,0.3-0.8c0.3-0.7,0.5-1.5,0.8-2.2
		c0.1-0.3,0.2-0.6,0.3-0.8c0.3-0.7,0.6-1.4,0.8-2c0.1-0.3,0.3-0.6,0.4-0.9c0.3-0.6,0.6-1.3,0.9-1.9c0.2-0.3,0.3-0.6,0.5-0.9
		c0.3-0.6,0.6-1.2,0.9-1.7c0.2-0.3,0.4-0.6,0.5-1c0.3-0.5,0.6-1.1,1-1.6c0.2-0.3,0.4-0.7,0.6-1c0.3-0.5,0.7-1,1-1.5
		c0.2-0.3,0.4-0.6,0.7-0.9c0.4-0.5,0.7-0.9,1.1-1.4c0.2-0.3,0.5-0.6,0.7-0.9c0.4-0.5,0.8-0.9,1.2-1.3c0.2-0.3,0.5-0.5,0.7-0.8
		c0.4-0.5,0.9-0.9,1.4-1.3c0.2-0.2,0.4-0.4,0.7-0.6c0.7-0.6,1.4-1.2,2.1-1.8c-19.3,4-30.1,28.5-30.1,28.5s1.7-22,2.7-34.5
		c-3-1-6.2,6.3-6.2,6.3s0.9-25.5-5.4-25.5c0.7,11.5-10.5,63.3-10.5,63.3s-2.8-42.1-1.9-56.3c-9.6,0.8-15.4,51-15.4,51
		s-15.2-22.5-11.4-36.4c-7.8,0.2-9.7,4.7-12.1,33.9c-3.5-3.9-11.2-7.7-14.5-23.4c-7.1,4.4-5.7,16.8-7.8,23.9L132,714.5z
		 M228.5,686.5c0-0.1,0-0.1,0-0.2c0-1.1,0-2.1,0-3.2v0c6.6,12.2,13.3,23.9,8.4,24.6c-1.8,0.3-3.3-0.2-4.6-1.1
		c-1.4-3.2-2.5-6.9-3.1-10.8c0-0.1,0-0.1,0-0.2c-0.1-0.9-0.3-1.9-0.4-2.8c0-0.1,0-0.2,0-0.3c-0.1-0.9-0.2-1.9-0.2-2.9
		c0-0.1,0-0.2,0-0.3C228.6,688.5,228.5,687.5,228.5,686.5"/>
	<path fill="#6C9700" d="M232.7,720.8l-4.6-11.5c0,0,3.5,6.4,8.6,5c5-1.4-2.1-18.4-2.1-18.4s5.4,1.9,7.2,5.2
		c1.8,1.1-1.3-11.2-1.3-11.2s8.3,14.9,9.9,22.6c0-7,0-23.7,0-23.7s4.1,25,9.2,22.3c5.2-8.7-14.2-37.7-14.2-37.7s21.3,14.4,28,35.5
		c4-2.9-4.3-38.2-4.3-38.2s7.8,14.8,13.8,34.4c-6.6-21.9,3.5-46.3,3.5-46.3s0,39.8,4.3,38.2c0.3-15.2,11.4-29.2,11.4-29.2
		s-1.6,17.1-1.9,30.2c2.5-14.4,17.1-25.9,17.1-25.9c-18.2,33.3-1.7,50.1-1.7,50.1L232.7,720.8z"/>
	<path fill="#6C9700" d="M132,716.6v-35.2c3.6,7.1,8.1,16.9,9.3,23.2c0-9.9,0-33.5,0-33.5s5.8,35.4,13,31.5
		c7.3-12.4-20.1-53.3-20.1-53.3s30.1,20.4,39.5,50.2c5.7-4.2-6-54-6-54s11.1,20.9,19.6,48.7c-9.4-31,4.9-65.5,4.9-65.5
		s-0.1,56.3,6,54c0.4-21.5,16.1-41.4,16.1-41.4s-2.3,24.2-2.8,42.7c3.6-20.4,24.2-36.6,24.2-36.6c-25.8,47.2-2.4,70.9-2.4,70.9
		L132,716.6z"/>
	<path fill="#7DA204" d="M132,716.6v-11.7c1.3-1.4,0.5-3.9,0.3-7.4c3.1,3.8,6.2,9,9.6,12.2c3.3-3.3,2-13.3,2-13.3s5.8,12.8,11,12
		c5.2-0.8,4.5-23.4-1.3-33.6c13.8,5.5,16.6,32.2,20.6,31.4c4-0.8,6.1-19.5,2.3-30.2c2.8-0.7,12.3,31.6,12.3,31.6s-1.7-27.1,0.1-37.2
		c3.2,10.5,11.6,34.5,11.6,34.5s2.3-26.7,7.4-26.3c-1.7,6.9,5.2,23.9,5.2,23.9s4.9-14.6,8.3-14.6c-4.5,18.9,6.6,30.3,6.6,30.3
		L132,716.6z"/>
</g>
<g>
	<g>
		<defs>
			<polygon id="SVGID_11_" points="795.6,652.7 795.6,639.9 789.9,651.1 793.1,622.9 784.1,656 779,631.7 779,673.2 769.4,639.9 
				776.4,703.3 744.4,645.1 764.3,705.1 808.5,705.6 834.1,684.1 810.4,692 849.4,651.1 800.8,692 835.3,645.8 807.2,670.6 
				830.9,626.2 804,659.2 813.6,639.9 802.1,647.7 809.1,622.9 			"/>
		</defs>
		<clipPath id="SVGID_12_">
			<use xlink:href="#SVGID_11_"  overflow="visible"/>
		</clipPath>
		
			<linearGradient id="SVGID_13_" gradientUnits="userSpaceOnUse" x1="216.8217" y1="596.7565" x2="218.5424" y2="596.7565" gradientTransform="matrix(-24.5663 50.2493 50.2493 24.5663 -23834.9453 -24948.6641)">
			<stop  offset="0" style="stop-color:#68B00E"/>
			<stop  offset="1" style="stop-color:#2E6635"/>
		</linearGradient>
		<polygon clip-path="url(#SVGID_12_)" fill="url(#SVGID_13_)" points="882,638.9 829.2,747.1 711.8,689.7 764.7,581.5 		"/>
	</g>
	<path fill="#2C5A02" d="M888.1,665.2c-2.1-7.1-0.7-19.5-7.8-23.9c-3.3,15.6-11,19.5-14.5,23.4c-2.4-29.2-4.3-33.7-12.1-33.9
		c3.8,13.9-11.4,36.4-11.4,36.4s-5.7-50.3-15.4-51c0.9,14.2-1.9,56.3-1.9,56.3s-11.2-51.8-10.5-63.3c-6.3-0.1-5.4,25.5-5.4,25.5
		s-3.2-7.4-6.2-6.3c1,12.6,2.7,34.5,2.7,34.5s-10.8-24.4-30.1-28.5c0.7,0.6,1.4,1.2,2.1,1.8c0.2,0.2,0.4,0.4,0.7,0.6
		c0.5,0.4,0.9,0.9,1.4,1.3c0.3,0.3,0.5,0.5,0.7,0.8c0.4,0.4,0.8,0.9,1.2,1.3c0.2,0.3,0.5,0.6,0.7,0.9c0.4,0.5,0.7,0.9,1.1,1.4
		c0.2,0.3,0.4,0.6,0.7,0.9c0.3,0.5,0.7,1,1,1.5c0.2,0.3,0.4,0.6,0.6,1c0.3,0.5,0.7,1.1,1,1.6c0.2,0.3,0.4,0.6,0.5,1
		c0.3,0.6,0.6,1.2,0.9,1.7c0.2,0.3,0.3,0.6,0.5,0.9c0.3,0.6,0.6,1.3,0.9,1.9c0.1,0.3,0.3,0.6,0.4,0.9c0.3,0.7,0.6,1.3,0.8,2
		c0.1,0.3,0.2,0.6,0.3,0.8c0.3,0.7,0.5,1.4,0.8,2.2c0.1,0.2,0.2,0.5,0.3,0.8c0.3,0.8,0.5,1.6,0.7,2.3c0.1,0.2,0.1,0.4,0.2,0.7
		c0.2,0.8,0.5,1.7,0.7,2.5c0,0.2,0.1,0.4,0.1,0.6c0.2,0.9,0.4,1.8,0.6,2.7c0,0.1,0.1,0.3,0.1,0.4c0.2,0.9,0.4,1.9,0.5,2.8
		c0,0.1,0,0.2,0.1,0.3c0.2,1,0.3,2,0.5,3c0,0.1,0,0.1,0,0.1c0.1,1,0.3,2.1,0.4,3.1c-6.5,5.8-10.7,14.2-13.6,15
		c-3-4.8,7.1-33.4-10.6-44.3c3.1,11.9-7.4,32.5-9.9,35.2c2.9-20.7-1.6-39.6-7.1-39.8c2.7,9.8-9.5,41.6-9.5,41.6s-4.1-35.5-10.9-36.1
		c0.6,10.1-1.4,39.8-1.4,39.8s-7.9-36.6-7.4-44.8c-4.4-0.1-3.8,18-3.8,18s-2.3-5.2-4.4-4.5c0.7,8.9,1.9,24.4,1.9,24.4
		s-7.6-17.3-21.3-20.1c16.1,12.5,19.6,47.3,7.6,57.2l85.5-0.6c0.9-1.3,1.6-2.7,2.3-4.2l99.4-0.7L888.1,665.2z M796.4,686.5
		c0,1-0.1,2-0.1,3c0,0.1,0,0.2,0,0.3c-0.1,1-0.1,1.9-0.2,2.9c0,0.1,0,0.2,0,0.3c-0.1,1-0.2,1.9-0.4,2.8c0,0.1,0,0.1,0,0.2
		c-0.6,4-1.7,7.6-3.1,10.8c-1.2,0.8-2.8,1.4-4.6,1.1c-4.8-0.7,1.8-12.4,8.4-24.6v0c0,1.1,0,2.1,0,3.2
		C796.4,686.4,796.4,686.5,796.4,686.5"/>
	<path fill="#6C9700" d="M792.2,720.8l4.6-11.5c0,0-3.5,6.4-8.6,5c-5-1.4,2.1-18.4,2.1-18.4s-5.4,1.9-7.2,5.2
		c-1.8,1.1,1.3-11.2,1.3-11.2s-8.3,14.9-9.9,22.6c0-7,0-23.7,0-23.7s-4.1,25-9.2,22.3c-5.2-8.7,14.2-37.7,14.2-37.7
		s-21.3,14.4-28,35.5c-4-2.9,4.3-38.2,4.3-38.2s-7.8,14.8-13.8,34.4c6.6-21.9-3.5-46.3-3.5-46.3s0,39.8-4.3,38.2
		c-0.3-15.2-11.4-29.2-11.4-29.2s1.6,17.1,1.9,30.2c-2.5-14.4-17.1-25.9-17.1-25.9c18.2,33.3,1.7,50.1,1.7,50.1L792.2,720.8z"/>
	<path fill="#6C9700" d="M892.9,716.6v-35.2c-3.6,7.1-8.1,16.9-9.3,23.2c0-9.9,0-33.5,0-33.5s-5.8,35.4-13,31.5
		c-7.3-12.4,20.1-53.3,20.1-53.3s-30.1,20.4-39.5,50.2c-5.7-4.2,6-54,6-54s-11.1,20.9-19.6,48.7c9.4-31-4.9-65.5-4.9-65.5
		s0.1,56.3-6,54c-0.4-21.5-16.1-41.4-16.1-41.4s2.3,24.2,2.8,42.7c-3.6-20.4-24.2-36.6-24.2-36.6c25.8,47.2,2.4,70.9,2.4,70.9
		L892.9,716.6z"/>
	<path fill="#7DA204" d="M892.9,716.6v-11.7c-1.3-1.4-0.5-3.9-0.3-7.4c-3.1,3.8-6.2,9-9.6,12.2c-3.3-3.3-2-13.3-2-13.3
		s-5.8,12.8-11,12c-5.2-0.8-4.5-23.4,1.3-33.6c-13.8,5.5-16.6,32.2-20.6,31.4c-4-0.8-6.1-19.5-2.3-30.2
		c-2.8-0.7-12.3,31.6-12.3,31.6s1.7-27.1-0.1-37.2c-3.2,10.5-11.6,34.5-11.6,34.5s-2.3-26.7-7.4-26.3c1.7,6.9-5.2,23.9-5.2,23.9
		s-4.9-14.6-8.3-14.6c4.5,18.9-6.6,30.3-6.6,30.3L892.9,716.6z"/>
</g>
<g>
	<g>
		<defs>
			<polygon id="SVGID_14_" points="926.5,652.7 926.5,639.9 920.8,651.1 924,622.9 915,656 909.8,631.7 909.8,673.2 900.2,639.9 
				907.3,703.3 875.2,645.1 895.1,705.1 939.4,705.6 965,684.1 941.3,692 980.4,651.1 931.7,692 966.3,645.8 938.1,670.6 
				961.8,626.2 934.9,659.2 944.5,639.9 933,647.7 940,622.9 			"/>
		</defs>
		<clipPath id="SVGID_15_">
			<use xlink:href="#SVGID_14_"  overflow="visible"/>
		</clipPath>
		
			<linearGradient id="SVGID_16_" gradientUnits="userSpaceOnUse" x1="215.7922" y1="598.8588" x2="217.5154" y2="598.8588" gradientTransform="matrix(-24.5663 50.2493 50.2493 24.5663 -23834.9453 -24948.6641)">
			<stop  offset="0" style="stop-color:#68B00E"/>
			<stop  offset="1" style="stop-color:#2E6635"/>
		</linearGradient>
		<polygon clip-path="url(#SVGID_15_)" fill="url(#SVGID_16_)" points="1013.1,638.9 960.1,747.1 842.5,689.7 895.5,581.5 		"/>
	</g>
	<path fill="#2C5A02" d="M1024,632.9c-2.1-7.1-6-13.5-13.2-17.9c4.4,16.8-10.5,45.9-14,49.8c4.1-29.2-2.3-56-10.1-56.3
		c3.8,13.9-13.5,58.8-13.5,58.8s-5.8-50.3-15.4-51c0.9,14.2-1.9,56.3-1.9,56.3s-11.2-51.8-10.5-63.3c-6.3-0.1-5.4,25.5-5.4,25.5
		s-3.2-7.4-6.2-6.3c1,12.6,2.7,34.5,2.7,34.5s-10.8-24.4-30.2-28.5c0.7,0.6,1.4,1.2,2.1,1.8c0.2,0.2,0.4,0.4,0.7,0.6
		c0.5,0.4,0.9,0.9,1.4,1.3c0.3,0.3,0.5,0.5,0.7,0.8c0.4,0.4,0.8,0.9,1.2,1.3c0.2,0.3,0.5,0.6,0.7,0.9c0.4,0.5,0.7,0.9,1.1,1.4
		c0.2,0.3,0.4,0.6,0.7,0.9c0.3,0.5,0.7,1,1,1.5c0.2,0.3,0.4,0.6,0.6,1c0.3,0.5,0.7,1.1,1,1.6c0.2,0.3,0.4,0.6,0.5,1
		c0.3,0.6,0.6,1.2,0.9,1.7c0.2,0.3,0.3,0.6,0.5,0.9c0.3,0.6,0.6,1.3,0.9,1.9c0.1,0.3,0.3,0.6,0.4,0.9c0.3,0.7,0.6,1.3,0.9,2
		c0.1,0.3,0.2,0.6,0.3,0.8c0.3,0.7,0.5,1.4,0.8,2.2c0.1,0.2,0.2,0.5,0.3,0.8c0.3,0.8,0.5,1.6,0.7,2.3c0.1,0.2,0.1,0.4,0.2,0.7
		c0.2,0.8,0.5,1.7,0.7,2.5c0,0.2,0.1,0.4,0.1,0.6c0.2,0.9,0.4,1.8,0.6,2.7c0,0.1,0.1,0.3,0.1,0.4c0.2,0.9,0.4,1.9,0.5,2.8
		c0,0.1,0,0.2,0.1,0.3c0.2,1,0.3,2,0.5,3c0,0.1,0,0.1,0,0.1c0.1,1,0.3,2.1,0.4,3.1c-6.5,5.8-10.7,14.2-13.7,15
		c-3-4.8,7.1-33.4-10.6-44.3c3.1,11.9-7.4,32.5-9.9,35.2c2.9-20.7-1.6-39.6-7.2-39.8c2.7,9.8-9.5,41.6-9.5,41.6s-4.1-35.5-10.9-36.1
		c0.6,10.1-1.4,39.8-1.4,39.8s-7.9-36.6-7.4-44.8c-4.4-0.1-3.8,18-3.8,18s-2.3-5.2-4.4-4.5c0.7,8.9,1.9,24.4,1.9,24.4
		s-7.6-17.3-21.3-20.1c16.2,12.5,19.6,47.3,7.6,57.2l85.8-0.6c0.9-1.3,1.6-2.7,2.3-4.2l99.6-0.7V632.9z M927.2,686.5
		c0,1-0.1,2-0.1,3c0,0.1,0,0.2,0,0.3c-0.1,1-0.1,1.9-0.2,2.9c0,0.1,0,0.2,0,0.3c-0.1,1-0.2,1.9-0.4,2.8c0,0.1,0,0.1,0,0.2
		c-0.6,4-1.7,7.6-3.1,10.8c-1.2,0.8-2.8,1.4-4.6,1.1c-4.8-0.7,1.8-12.4,8.5-24.6v0c0,1.1,0,2.1,0,3.2
		C927.2,686.4,927.2,686.5,927.2,686.5"/>
	<path fill="#6C9700" d="M923.1,720.8l4.6-11.5c0,0-3.6,6.4-8.6,5c-5-1.4,2.1-18.4,2.1-18.4s-5.4,1.9-7.3,5.2
		c-1.8,1.1,1.3-11.2,1.3-11.2s-8.3,14.9-9.9,22.6c0-7,0-23.7,0-23.7s-4.1,25-9.2,22.3c-5.2-8.7,14.2-37.7,14.2-37.7
		s-21.3,14.4-28,35.5c-4-2.9,4.3-38.2,4.3-38.2s-7.8,14.8-13.9,34.4c6.6-21.9-3.5-46.3-3.5-46.3s0,39.8-4.3,38.2
		c-0.3-15.2-11.4-29.2-11.4-29.2s1.6,17.1,2,30.2c-2.6-14.4-17.1-25.9-17.1-25.9c18.3,33.3,1.7,50.1,1.7,50.1L923.1,720.8z"/>
	<path fill="#6C9700" d="M1024,716.6v-35.2c-3.6,7.1-8.1,16.9-9.4,23.2c0-9.9,0-33.5,0-33.5s-5.9,35.4-13,31.5
		c-7.3-12.4,20.2-53.3,20.2-53.3s-30.1,20.4-39.6,50.2c-5.7-4.2,6.1-54,6.1-54s-11.1,20.9-19.6,48.7c9.4-31-4.9-65.5-4.9-65.5
		s0.1,56.3-6.1,54c-0.4-21.5-16.1-41.4-16.1-41.4s2.3,24.2,2.8,42.7c-3.6-20.4-24.2-36.6-24.2-36.6c25.9,47.2,2.4,70.9,2.4,70.9
		L1024,716.6z"/>
	<path fill="#7DA204" d="M1024,716.6v-11.7c-1.3-1.4-0.5-3.9-0.3-7.4c-3.1,3.8-6.3,9-9.6,12.2c-3.3-3.3-2-13.3-2-13.3
		s-5.8,12.8-11,12c-5.2-0.8-4.6-23.4,1.3-33.6c-13.8,5.5-16.7,32.2-20.7,31.4c-4-0.8-6.1-19.5-2.3-30.2
		c-2.8-0.7-12.4,31.6-12.4,31.6s1.7-27.1-0.1-37.2c-3.2,10.5-11.6,34.5-11.6,34.5s-2.3-26.7-7.4-26.3c1.7,6.9-5.2,23.9-5.2,23.9
		s-4.9-14.6-8.3-14.6c4.5,18.9-6.7,30.3-6.7,30.3L1024,716.6z"/>
</g>
<path fill="#2C5A02" d="M172.6,683c0,0,1.2-15.5,1.9-24.4c-2.1-0.7-4.4,4.5-4.4,4.5s0.6-18.1-3.8-18c0.5,8.2-7.4,44.8-7.4,44.8
	s-2-29.7-1.3-39.8c-6.8,0.5-10.9,36.1-10.9,36.1s-12.1-31.7-9.5-41.6c-5.5,0.2-10.1,19.1-7.1,39.8c-2.5-2.8-13-23.3-9.9-35.2
	c-17.6,10.9-7.6,39.5-10.6,44.3c-3-0.8-7.1-9.2-13.6-15c0.1-1,0.2-2.1,0.4-3.1c0-0.1,0-0.1,0-0.1c0.1-1,0.3-2,0.5-3
	c0-0.1,0-0.2,0.1-0.3c0.2-0.9,0.3-1.9,0.5-2.8c0-0.1,0.1-0.3,0.1-0.4c0.2-0.9,0.4-1.8,0.6-2.7c0-0.2,0.1-0.4,0.1-0.5
	c0.2-0.8,0.4-1.7,0.7-2.5c0.1-0.2,0.1-0.4,0.2-0.7c0.2-0.8,0.5-1.6,0.7-2.3c0.1-0.3,0.2-0.5,0.3-0.8c0.3-0.7,0.5-1.5,0.8-2.2
	c0.1-0.3,0.2-0.6,0.3-0.8c0.3-0.7,0.6-1.4,0.8-2c0.1-0.3,0.3-0.6,0.4-0.9c0.3-0.6,0.6-1.3,0.9-1.9c0.2-0.3,0.3-0.6,0.5-0.9
	c0.3-0.6,0.6-1.2,0.9-1.8c0.2-0.3,0.4-0.6,0.5-1c0.3-0.6,0.6-1.1,1-1.6c0.2-0.3,0.4-0.7,0.6-1c0.3-0.5,0.7-1,1-1.5
	c0.2-0.3,0.4-0.6,0.7-0.9c0.4-0.5,0.7-0.9,1.1-1.4c0.2-0.3,0.5-0.6,0.7-0.9c0.4-0.5,0.8-0.9,1.2-1.3c0.2-0.3,0.5-0.5,0.7-0.8
	c0.4-0.5,0.9-0.9,1.4-1.3c0.2-0.2,0.4-0.4,0.7-0.6c0.7-0.6,1.4-1.2,2.1-1.8c-19.3,4.1-30,28.5-30,28.5s1.7-22,2.7-34.5
	c-3-1-6.2,6.3-6.2,6.3s0.9-25.5-5.4-25.5c0.7,11.5-10.5,63.3-10.5,63.3s-2.8-42.1-1.9-56.3c-9.6,0.8-15.4,51-15.4,51
	s-17.2-44.9-13.4-58.8c-7.8,0.2-14.2,27-10.1,56.3c-3.5-3.9-18.3-33-13.9-49.8c-6.5,4-10.3,9.7-12.5,16v83.6l98.6,0.7
	c0.6,1.5,1.4,2.9,2.3,4.2l85.4,0.6c-12-10-8.6-44.8,7.6-57.2C180.2,665.7,172.6,683,172.6,683 M104.2,707.8
	c-1.8,0.3-3.3-0.2-4.6-1.1c-1.4-3.2-2.5-6.9-3.1-10.8c0-0.1,0-0.1,0-0.2c-0.1-0.9-0.3-1.9-0.4-2.8c0-0.1,0-0.2,0-0.3
	c-0.1-0.9-0.2-1.9-0.2-2.8c0-0.1,0-0.2,0-0.3c-0.1-1-0.1-2-0.1-3c0-0.1,0-0.1,0-0.2c0-1.1,0-2.1,0-3.2l0,0
	C102.4,695.3,109,707.1,104.2,707.8"/>
<path fill="#6C9700" d="M99.7,720.8l-4.6-11.5c0,0,3.6,6.4,8.6,5c5-1.4-2.1-18.4-2.1-18.4s5.4,1.9,7.2,5.2
	c1.8,1.1-1.3-11.2-1.3-11.2s8.3,14.9,9.9,22.6c0-7,0-23.7,0-23.7s4.1,25,9.2,22.3c5.2-8.7-14.2-37.7-14.2-37.7s21.3,14.4,28,35.5
	c4-2.9-4.3-38.2-4.3-38.2s7.8,14.8,13.8,34.4c-6.6-21.9,3.5-46.3,3.5-46.3s0,39.8,4.3,38.2c0.3-15.2,11.4-29.2,11.4-29.2
	s-1.6,17.1-1.9,30.2c2.5-14.4,17.1-25.9,17.1-25.9c-18.2,33.3-1.7,50.1-1.7,50.1L99.7,720.8z"/>
<path fill="#6C9700" d="M78.7,683.9c0.4-18.5,2.7-42.7,2.7-42.7s-15.6,19.9-16,41.4c-6.1,2.3-6-54-6-54s-14.2,34.6-4.9,65.5
	C46,666.4,35,645.5,35,645.5s11.7,49.8,6,54c-9.4-29.8-39.4-50.2-39.4-50.2s27.3,41,20,53.3c-7.1,3.9-12.9-31.5-12.9-31.5
	s0,23.6,0,33.5c-1.2-6-5.3-15-8.7-21.9v33.9l100.3,1.7c0,0-23.3-23.8,2.4-70.9C102.8,647.3,82.3,663.5,78.7,683.9"/>
<path fill="#7DA204" d="M0.2,716.6l94.8,1.6c0,0-11-11.3-6.6-30.3c-3.4,0-8.2,14.6-8.2,14.6s-6.9-17-5.2-23.9
	c-5.1-0.4-7.4,26.3-7.4,26.3s-8.3-24-11.5-34.5c-1.7,10.1-0.1,37.2-0.1,37.2s-9.5-32.3-12.3-31.6c3.8,10.7,1.7,29.5-2.3,30.2
	c-4,0.8-6.8-25.9-20.5-31.4c5.8,10.2,6.5,32.7,1.3,33.6c-5.2,0.8-10.9-12-10.9-12s1.3,10-2,13.3c-3.2-3.1-6.2-8.1-9.2-11.8v3.2
	c0.1,1,0.2,1.9,0,2.6V716.6z"/>
<path fill="#7DA204" d="M1024,767.9L0.1,768.2c-0.2,0-0.2-68.3,0-68.3H1024V767.9z"/>
<g>
	<path opacity="0.8" fill="#F1CC5A" d="M476.2,135.2c-2.9-1.1-4.6-13.8,6-10.9c2.9-44.7,60.2-18.6,46.4,10.9
		c31,17.5-8.3,59.9-26.2,28.4C458.1,173.3,467.3,133.4,476.2,135.2z"/>
	<path opacity="0.8" fill="#FFAB17" d="M503.9,158.1c-14.2,3.1-29.3,5.2-34.2-16.3c-5.3,19.6,14.4,28.7,32.7,21.7
		c9.4,16.6,24.8,12.7,32.7,2.7C522.5,169.9,510.5,169.9,503.9,158.1z"/>
</g>
<path opacity="0.8" fill="#F1CC5A" d="M913.6,156.1c5.6-4.9,16.2-32.3-25.3-33.8c10.5-43.6-83-63.3-83-4.9
	c-14.1-2.8-16.2,12-16.2,12s-32.3-10.5-32.3,14.8c-37.3-14.8-39.4,11.2-33.1,20.4c-73.1-21.1-58.4,78.1-4.9,57
	c-8.4,43.6,35.9,26.7,35.9,26.7s14.1,12,23.9-3.5c23.2,45,65.4,12.7,65.4,12.7s61.5,21.2,64.7-27.4
	C1013.4,266.5,1005.7,137.8,913.6,156.1z"/>
<path opacity="0.8" fill="#FFAB17" d="M908.6,208.9c-3.2,48.6-64.7,27.4-64.7,27.4s-42.2,32.4-65.4-12.7
	c-9.8,15.5-23.9,3.5-23.9,3.5s-44.3,16.9-35.9-26.7c-18.9,7.4-35.1-0.1-45-12c-1.4,20.9,16.1,44.5,45,33.1
	c-8.4,43.6,35.9,26.7,35.9,26.7s14.1,12,23.9-3.5c23.2,45,65.4,12.7,65.4,12.7s61.5,21.2,64.7-27.4c49.6,17.3,74-2.4,76.1-26.1
	C967.7,215.5,941.7,220.4,908.6,208.9z"/>
<path opacity="0.8" fill="#F1CC5A" d="M91.4,161.1c-6.3-9.2,0.9-20.6,12-16.3c-1.7-18.1,15.5-35.3,40.4-6
	c-3.9-12.9,5.4-17.2,11.1-17.1c-36.4-30.6,47-51.7,55.1-13.9c34-5.6,25.4,22.8,18.9,26.7c9.5,4.3,0,7.7,0,7.7s26.7-2.1,10.3,18.9
	c71.8,11.6,18.5,61.5-9.5,26.7c-1.3,6-12,19.8-26.7,4.3c-15.5,9.5-75.7,22.4-102.3,0C43.3,207.6,55,132.7,91.4,161.1z"/>
<g opacity="0.8">
	<g>
		<g>
			<path fill="#FFAB17" d="M100.9,192.1c26.7,22.4,86.9,9.5,102.3,0c14.6,15.5,25.4,1.7,26.7-4.3c19.7,24.5,52,7,44.2-9.5
				c-5.5,25.2-47.9,2.1-47.9,2.1s-15.2,24.1-22.6-12.3c6.7,23.4-87.9,54.1-100.3,6c-24.3,20.8-42.1-1.8-42.3-2
				C60.8,185.2,72.3,199.8,100.9,192.1z"/>
		</g>
	</g>
</g>
<image overflow="visible" width="2474" height="2394" xlink:href="../../banco de imagens/botões/butt 27.png"  transform="matrix(0.3475 0 0 0.2308 87.8102 117.3955)">
</image>
</svg>
