<?xml version="1.0" encoding="utf-8"?>
<!-- Generator: Adobe Illustrator 18.0.0, SVG Export Plug-In . SVG Version: 6.00 Build 0)  -->
<!DOCTYPE svg PUBLIC "-//W3C//DTD SVG 1.1//EN" "http://www.w3.org/Graphics/SVG/1.1/DTD/svg11.dtd">
<svg version="1.1" id="Camada_1" xmlns="http://www.w3.org/2000/svg" xmlns:xlink="http://www.w3.org/1999/xlink" x="0px" y="0px"
	 viewBox="0 0 1024 768" enable-background="new 0 0 1024 768" xml:space="preserve">
<g>
	<defs>
		<circle id="SVGID_1_" cx="511.9" cy="383.4" r="375.7"/>
	</defs>
	<clipPath id="SVGID_2_">
		<use xlink:href="#SVGID_1_"  overflow="visible"/>
	</clipPath>
	<g clip-path="url(#SVGID_2_)" enable-background="new    ">
		
			<image overflow="visible" width="2474" height="2474" xlink:href="../../banco de imagens/botões/butt 25.png"  transform="matrix(0.3065 0 0 0.3065 132.8006 4.7999)">
		</image>
	</g>
</g>
<g>
	<g>
		<path fill="#020202" d="M610.3,528.6c-0.2-0.9-11.6,17.3-43.7,17.2c-0.9,0.2-1.9,0.2-3,0c-0.9,0-1.7,0-2.6,0c-1.1,0-2.1,0-3,0
			c-1.1-0.2-2.1-0.3-3-0.3c-1.1-0.2-2.1-0.4-3-0.7c-0.9,0-1.9-0.1-3-0.3c-0.9-0.2-1.9-0.4-3-0.7c-0.9-0.2-1.8-0.4-2.6-0.7
			c-1.1-0.4-2.1-0.8-3-1c-0.9-0.2-1.9-0.5-3-1c-0.9-0.4-1.8-0.8-2.6-1c-0.9-0.4-1.9-0.9-3-1.3c-0.9-0.4-1.8-0.9-2.6-1.3
			c-0.9-0.4-1.8-0.9-2.6-1.3c-0.9-0.4-1.8-0.9-2.6-1.3c-0.9-0.7-1.7-1.2-2.6-1.7c-0.9-0.7-1.8-1.2-2.6-1.6c-0.9-0.7-1.7-1.3-2.6-2
			c-0.9-0.4-1.8-1-2.6-1.6c-0.9-0.7-1.6-1.3-2.3-2c-0.9-0.7-1.8-1.3-2.6-2c-0.6-0.9-1.4-1.6-2.3-2.3c-0.9-0.7-1.6-1.4-2.3-2.3
			c-0.7-0.7-1.4-1.4-2.3-2.3c-0.6-0.9-1.4-1.8-2.3-2.6c-0.7-0.7-1.3-1.4-2-2.3c-0.7-0.9-1.3-1.8-2-2.6c-0.7-0.9-1.3-1.9-2-3
			c-0.7-0.9-1.3-1.8-2-2.6c-0.6-1.1-1.3-2.1-2-3c-0.4-1.1-1-2.1-1.6-3c-0.6-1.1-1.2-2.2-1.6-3.3c-0.6-0.9-1.2-1.9-1.6-3
			c-0.4-1.1-1-2.2-1.6-3.3c-0.4-1.1-0.9-2.2-1.3-3.3c-0.4-1.3-0.9-2.5-1.3-3.6c-0.5-1.1-0.9-2.3-1.3-3.6c-0.4-1.1-0.8-2.3-1-3.6
			c-0.4-1.1-0.9-2.3-1.3-3.6c-0.2-1.3-0.5-2.5-0.7-3.6c-0.4-1.3-0.8-2.6-1-3.9c-0.2-1.3-0.5-2.6-0.7-4c-0.2-1.3-0.4-2.6-0.7-3.9
			c-0.2-1.5-0.4-3-0.6-4.3c0-1.3-0.1-2.7-0.3-4.3c0-1.3-0.1-2.7-0.3-4.3c0-1.3,0-2.7,0-4.3c0-1.5,0-3,0-4.3c0-1.5,0-3.1,0-4.6
			c0-1.5,0.1-3.1,0.3-4.6c0-1.5,0.1-3.1,0.3-4.6c0-1.8,0.1-3.4,0.3-5c0.2-1.5,0.4-3.1,0.6-4.6c0.2-1.8,0.5-3.4,0.7-5
			c0.4-2,0.9-3.8,1.3-5.6c0.2-1.8,0.5-3.5,1-5.3c0.4-1.8,0.9-3.4,1.3-4.9c0.4-1.8,1-3.4,1.6-5c0.4-1.8,1-3.4,1.6-4.9
			c0.4-1.5,1-3.1,1.6-4.6c0.7-1.5,1.3-3,2-4.3c0.6-1.5,1.3-3,2-4.3c0.6-1.5,1.4-3,2.3-4.3c0.7-1.3,1.4-2.6,2.3-3.9
			c15.1-23.1,42.6-46.4,79.9-48.4c37.3-2,51.5,16.8,51.7,16c0.9-1.8-1.2-11,4.5-14.4c5.7-3.4,88.9-3.2,88,5.4l0.3,0.3
			c0,0.4,0,0.8,0,1c0,0.5,0,0.9,0,1.3c0,0.7,0,1.3,0,2c0,0.7,0,1.3,0,2c0,0.9,0,1.6,0,2.3c0,1.1,0,2.1,0,3c0,1.1-0.1,2.1-0.3,3
			c0,1.3,0,2.5,0,3.6c-0.2,1.3-0.3,2.5-0.3,3.6c0,1.5-0.1,3-0.3,4.3c0,1.3,0,2.8,0,4.3c-0.2,1.6-0.3,3.1-0.3,4.6
			c0,1.8-0.1,3.4-0.3,4.9c0,1.8,0,3.5,0,5.3c-0.2,1.8-0.3,3.5-0.3,5.3c0,2-0.1,4-0.3,5.9c0,2,0,3.9,0,5.6c-0.2,2.2-0.3,4.3-0.3,6.3
			c0,2.2,0,4.3,0,6.3c0,2.2-0.1,4.4-0.3,6.6c0,2.2,0,4.4,0,6.6c0,2.4,0,4.7,0,6.9c0,2.6,0,5.2,0,7.6c0,2.4,0,4.8,0,7.3
			c0.2,2.4,0.3,4.7,0.3,6.9c0,2.4,0,4.7,0,6.9c0,2.2,0.1,4.4,0.3,6.6c0,2.2,0,4.4,0,6.6c0.2,2.2,0.3,4.3,0.3,6.3
			c0,2,0.1,4.1,0.3,6.3c0,2,0.1,3.9,0.3,5.6c0,2,0,3.9,0,5.9c0.2,1.8,0.3,3.5,0.3,5.3c0.2,1.8,0.3,3.5,0.3,5.3
			c0.2,1.8,0.3,3.4,0.3,4.9c0.2,1.8,0.3,3.4,0.3,4.9c0.2,1.5,0.3,3.1,0.3,4.6c0.2,1.3,0.3,2.7,0.3,4.3c0,1.3,0.1,2.6,0.3,3.9
			c0,1.3,0.1,2.6,0.3,4c0,1.3,0,2.5,0,3.6c0.2,1.1,0.3,2.3,0.3,3.6c0,0.9,0.1,1.9,0.3,3c0,1.1,0,2.1,0,3c0,0.9,0.1,1.8,0.3,2.6
			c0,0.9,0,1.8,0,2.6c0,0.7,0,1.3,0,2s0,1.3,0,2c0,0.7,0,1.2,0,1.6c0,0.4,0,1,0,1.6c0,0.2-0.1,0.5-0.3,1c0,0.4,0,0.8,0,1
			c-0.2,0.2-0.3,0.4-0.3,0.7c0,0.2-0.1,0.3-0.3,0.3c-0.4,0.2-0.9,0.4-1.3,0.7c-0.9,0.2-1.6,0.3-2.3,0.3c-1.1,0.2-2.2,0.4-3.3,0.7
			c-1.1,0-6.6,0.3-7.9,0.3c-1.8,0.2-3.4,0.3-4.9,0.3c-1.8,0-3.5,0-5.3,0c-1.8,0-9.2,0-11.2,0c-2,0-3.9,0-5.9,0
			c-2,0-9.6-0.1-11.5-0.3c-2,0-19.2-1-20.8-1c-1.3-0.2-9.9-1.3-9.9-1.3C614.3,542,610.7,530.1,610.3,528.6z"/>
		<path fill="#FFFFFF" d="M622.1,499.6c-0.2-0.7-0.7,0.1-1.6,2.5c-0.4,0.7-1,1.5-1.9,2.2c-0.7,0.5-1.4,1.2-1.9,1.9
			c-0.6,0.7-1.2,1.4-1.9,1.9c-0.7,0.7-1.4,1.4-1.9,1.9c-0.7,0.7-1.5,1.4-2.2,1.9c-0.7,0.5-1.4,1.1-1.9,1.6c-0.7,0.6-1.5,1.1-2.2,1.6
			c-0.7,0.4-1.4,0.8-2.2,1.4c-0.7,0.5-1.5,1-2.2,1.4c-0.7,0.4-1.5,0.8-2.2,1.4c-0.7,0.4-1.4,0.7-2.2,1.1s-1.6,0.7-2.5,1.1
			c-0.7,0.4-1.4,0.6-2.2,0.8c-0.7,0.4-1.6,0.7-2.4,1.1c-0.7,0.2-1.5,0.4-2.2,0.5c-0.7,0.4-1.5,0.6-2.4,0.8c-0.7,0.2-1.6,0.4-2.5,0.5
			c-0.7,0.2-1.5,0.4-2.2,0.5c-0.9,0.2-1.7,0.3-2.5,0.3c-0.7,0.2-1.5,0.3-2.4,0.3c-0.7,0.2-1.6,0.3-2.5,0.3c-0.7,0-1.6,0-2.5,0
			c-0.7,0.2-1.5,0.2-2.4,0c-0.7,0-1.5,0-2.2,0c-0.9,0-1.7,0-2.5,0c-0.9-0.2-1.7-0.3-2.5-0.3c-0.9-0.2-1.7-0.4-2.4-0.5
			c-0.7,0-1.6-0.1-2.5-0.3c-0.7-0.2-1.6-0.4-2.4-0.5c-0.7-0.2-1.5-0.4-2.2-0.6c-0.9-0.4-1.7-0.6-2.4-0.8c-0.7-0.2-1.6-0.5-2.5-0.8
			c-0.7-0.4-1.5-0.6-2.2-0.8c-0.7-0.4-1.6-0.7-2.5-1.1c-0.7-0.4-1.4-0.7-2.2-1.1s-1.5-0.7-2.2-1.1c-0.7-0.4-1.5-0.7-2.2-1.1
			c-0.7-0.5-1.4-1-2.2-1.4c-0.7-0.5-1.5-1-2.2-1.4c-0.7-0.5-1.5-1.1-2.2-1.6c-0.7-0.4-1.4-0.8-2.2-1.4c-0.7-0.5-1.4-1.1-1.9-1.6
			c-0.7-0.5-1.5-1.1-2.2-1.6c-0.6-0.7-1.2-1.4-1.9-1.9c-0.7-0.5-1.4-1.2-1.9-1.9c-0.6-0.5-1.2-1.2-1.9-1.9c-0.6-0.7-1.2-1.5-1.9-2.2
			c-0.6-0.5-1.1-1.2-1.6-1.9c-0.6-0.7-1.1-1.5-1.6-2.2c-0.5-0.7-1.1-1.5-1.6-2.5c-0.5-0.7-1.1-1.4-1.6-2.2c-0.6-0.9-1.1-1.7-1.6-2.5
			c-0.4-0.9-0.8-1.7-1.4-2.5c-0.6-0.9-1-1.8-1.4-2.7c-0.5-0.7-1-1.5-1.4-2.5c-0.4-0.9-0.8-1.8-1.4-2.7c-0.4-0.9-0.7-1.8-1.1-2.7
			c-0.4-1.1-0.7-2.1-1.1-3c-0.4-0.9-0.7-1.9-1.1-3c-0.4-0.9-0.6-1.9-0.8-3c-0.4-0.9-0.7-1.9-1.1-3c-0.2-1.1-0.4-2.1-0.6-3
			c-0.4-1.1-0.6-2.2-0.8-3.3c-0.2-1.1-0.4-2.2-0.5-3.3c-0.2-1.1-0.4-2.2-0.6-3.3c-0.2-1.3-0.4-2.5-0.5-3.6c0-1.1-0.1-2.3-0.3-3.5
			c0-1.1-0.1-2.3-0.3-3.6c0-1.1,0-2.3,0-3.5c0-1.3,0-2.5,0-3.6c0-1.3,0-2.5,0-3.8c0-1.3,0.1-2.5,0.3-3.8c0-1.3,0.1-2.5,0.3-3.8
			c0-1.5,0.1-2.8,0.3-4.1c0.2-1.3,0.4-2.5,0.5-3.8c0.2-1.5,0.4-2.8,0.6-4.1c0.4-1.6,0.7-3.2,1.1-4.6c0.2-1.5,0.5-2.9,0.8-4.4
			c0.4-1.5,0.7-2.8,1.1-4.1c0.4-1.5,0.8-2.8,1.4-4.1c0.4-1.5,0.8-2.8,1.4-4.1c0.4-1.3,0.8-2.6,1.4-3.8c0.5-1.3,1.1-2.5,1.6-3.6
			c0.6-1.3,1.1-2.5,1.6-3.5c0.6-1.3,1.2-2.5,1.9-3.6c0.6-1.1,1.2-2.2,1.9-3.3c0.6-1.1,1.2-2.1,1.9-3c0.7-1.1,1.5-2.1,2.2-3
			c0.7-1.1,1.5-2.1,2.2-3c0.7-0.9,1.4-1.8,2.2-2.7c0.7-0.9,1.4-1.8,2.2-2.7c0.9-0.7,1.7-1.5,2.5-2.5c0.9-0.7,1.7-1.5,2.4-2.2
			c0.9-0.7,1.8-1.5,2.7-2.2c0.7-0.7,1.6-1.5,2.5-2.2c0.9-0.7,1.8-1.4,2.7-1.9c0.9-0.7,1.8-1.4,2.7-1.9c0.9-0.5,1.8-1.1,2.7-1.6
			c0.9-0.5,1.8-1.1,2.7-1.6c1.1-0.5,2.1-1,3-1.4c0.9-0.5,1.9-1,3-1.4c0.9-0.4,1.8-0.8,2.7-1.4c1.1-0.4,2.1-0.7,3-1.1
			c1.1-0.2,2.1-0.5,3-0.8c1.1-0.4,2.1-0.6,3-0.8c1.1-0.4,2.1-0.6,3-0.8c1.1-0.2,2.1-0.4,3-0.6c1.1-0.2,2.1-0.4,3-0.5
			c1.1-0.2,2.2-0.3,3.3-0.3c0.9-0.2,1.9-0.3,3-0.3c0.9-0.2,1.9-0.3,3-0.3c1.1,0,2.1,0,3,0c1.1,0,2.1,0,3,0c1.1,0,2.1,0.1,3,0.3
			c1.1,0,2.1,0.1,3,0.3c1.1,0,2.1,0.1,3,0.3c1.1,0.2,2.1,0.4,3,0.5c0.9,0.2,1.9,0.4,3,0.6c0.9,0.4,1.8,0.6,2.7,0.8
			c1.1,0.2,2.1,0.5,3,0.8c0.9,0.4,1.8,0.7,2.7,1.1c0.9,0.2,1.8,0.5,2.7,0.8c0.9,0.4,1.8,0.7,2.7,1.1c0.9,0.6,1.8,1,2.7,1.4
			c0.7,0.4,1.6,0.8,2.5,1.4c0.9,0.5,1.7,1,2.4,1.4c0.9,0.5,1.7,1.1,2.5,1.6c0.9,0.5,1.7,1.1,2.5,1.6c1.1,0.4,1.8,0.9,2.2,1.6
			c1.3,2,2,2.6,2.2,1.9c0.7-1.4,1-3.4,0.8-5.7c-0.2-1.6,0-3.3,0.6-4.9c0.4-1.1,0.6-2.3,0.8-3.6c0-0.7,0.3-1.3,0.8-1.6
			c0.2-0.2,0.6-0.4,1.1-0.5c0.5-0.2,1.2-0.3,1.9-0.3c0.9-0.2,1.8-0.3,2.7-0.3c1.1-0.2,2.2-0.3,3.3-0.3c1.3,0,2.5,0,3.8,0
			c1.4,0,2.9,0,4.4,0c1.4,0,3,0,4.6,0c1.5,0,3,0,4.6,0c1.6,0,3.3,0.1,4.9,0.3c1.6,0,3.4,0.1,5.2,0.3c1.4,0,3,0.1,4.6,0.3
			c1.6,0.2,3.2,0.4,4.6,0.5c1.4,0.2,2.9,0.4,4.4,0.5c1.3,0.2,2.6,0.4,3.8,0.5c1.1,0.2,2.2,0.4,3.3,0.5c0.9,0.2,1.8,0.5,2.7,0.8
			c0.7,0.2,1.4,0.4,1.9,0.5c0.4,0.4,0.7,0.7,1.1,1.1l0.3,0.3c0,0.4,0,0.6,0,0.8c0,0.4,0,0.7,0,1.1c0,0.5,0,1.1,0,1.6s0,1.1,0,1.6
			c0,0.7,0,1.4,0,1.9c0,0.9,0,1.7,0,2.5c0,0.9-0.1,1.7-0.3,2.5c0,1.1,0,2.1,0,3c-0.2,1.1-0.3,2.1-0.3,3c0,1.3-0.1,2.5-0.3,3.6
			c0,1.1,0,2.3,0,3.5c-0.2,1.3-0.3,2.6-0.3,3.8c0,1.5-0.1,2.8-0.3,4.1c0,1.5,0,2.9,0,4.4c-0.2,1.5-0.3,2.9-0.3,4.4
			c0,1.6-0.1,3.3-0.3,4.9c0,1.6,0,3.2,0,4.6c-0.2,1.8-0.3,3.5-0.3,5.2c0,1.8,0,3.6,0,5.2c0,1.8-0.1,3.6-0.3,5.5c0,1.8,0,3.6,0,5.5
			c0,2,0,3.9,0,5.7c0,2.2,0,4.3,0,6.3c0,2,0,4,0,6c0.2,2,0.3,3.9,0.3,5.7c0,2,0,3.9,0,5.7c0,1.8,0.1,3.6,0.3,5.5c0,1.8,0,3.6,0,5.5
			c0.2,1.8,0.3,3.5,0.3,5.2c0,1.6,0.1,3.4,0.3,5.2c0,1.6,0.1,3.2,0.3,4.6c0,1.6,0,3.3,0,4.9c0.2,1.5,0.3,2.9,0.3,4.4
			c0.2,1.5,0.3,2.9,0.3,4.4c0.2,1.5,0.3,2.8,0.3,4.1c0.2,1.5,0.3,2.8,0.3,4.1c0.2,1.3,0.3,2.6,0.3,3.8c0.2,1.1,0.3,2.3,0.3,3.5
			c0,1.1,0.1,2.2,0.3,3.3c0,1.1,0.1,2.2,0.3,3.3c0,1.1,0,2.1,0,3c0.2,0.9,0.3,1.9,0.3,3c0,0.7,0.1,1.5,0.3,2.5c0,0.9,0,1.7,0,2.5
			c0,0.7,0.1,1.5,0.3,2.2c0,0.7,0,1.5,0,2.2c0,0.5,0,1.1,0,1.6c0,0.5,0,1.1,0,1.6c0,0.5,0,1,0,1.4s0,0.8,0,1.4
			c0,0.2-0.1,0.5-0.3,0.8c0,0.4,0,0.6,0,0.8c-0.2,0.2-0.3,0.4-0.3,0.5c0,0.2-0.1,0.3-0.3,0.3c-0.4,0.2-0.7,0.4-1.1,0.5
			c-0.7,0.2-1.4,0.3-1.9,0.3c-0.9,0.2-1.8,0.4-2.7,0.5c-0.9,0-1.9,0.1-3,0.3c-1.3,0-2.4,0-3.6,0c-1.4,0.2-2.8,0.3-4.1,0.3
			c-1.5,0-2.9,0-4.4,0c-1.4,0-3,0-4.6,0c-1.5,0-3,0-4.6,0c-1.6,0-3.3,0-4.9,0c-1.6,0-3.3,0-4.9,0c-1.4,0-3-0.1-4.6-0.3
			c-1.6,0-3.2-0.1-4.6-0.3c-1.6,0-3.2,0-4.6,0c-1.3-0.2-2.6-0.3-4.1-0.3c-1.3-0.2-2.6-0.3-3.8-0.3c-1.1-0.2-2.2-0.3-3.3-0.3
			c-0.9-0.2-1.8-0.4-2.7-0.5c-0.7,0-1.5-0.1-2.2-0.3c-0.6-0.2-1.1-0.3-1.6-0.3c-0.4-0.2-0.6-0.4-0.8-0.5c-0.6-0.5-0.9-1.2-1.1-1.9
			c-0.4-0.7-0.6-1.5-0.8-2.2c-0.4-1.1-0.6-2.1-0.6-3c-0.2-1.3-0.3-2.5-0.3-3.6c0.2-1.3,0.3-2.6,0.3-4.1c-0.4-1.5-0.4-2.9,0-4.4
			C622.3,502.5,622.4,500.9,622.1,499.6z M596.1,394.4c-1.1-0.2-2.3-0.3-3.5-0.3c-1.3,0-2.5,0-3.6,0c-1.3,0.2-2.5,0.5-3.6,0.8
			c-1.1,0.4-2.2,0.7-3.3,1.1c-1.1,0.5-2.1,1.2-3,1.9c-1.1,0.5-2.1,1.2-3,1.9c-0.9,0.7-1.7,1.5-2.4,2.5c-0.9,0.9-1.7,1.8-2.5,2.7
			c-0.7,0.9-1.5,1.9-2.2,3c-0.6,0.9-1.1,1.9-1.6,3c-0.5,1.3-1.1,2.5-1.6,3.6c-0.4,1.1-0.7,2.3-1.1,3.5c-0.2,1.1-0.4,2.3-0.5,3.6
			c-0.2,1.3-0.3,2.5-0.3,3.8c0,1.1,0,2.3,0,3.5c0.2,1.3,0.5,2.5,0.8,3.6c0.4,1.1,0.7,2.2,1.1,3.3c0.4,1.3,0.8,2.4,1.4,3.3
			c0.7,1.1,1.4,2.1,1.9,3c0.7,1.1,1.4,2.1,2.2,3c0.7,0.9,1.6,1.7,2.5,2.5c0.9,0.7,1.8,1.5,2.7,2.2c0.9,0.7,1.8,1.4,2.7,1.9
			c0.9,0.7,1.9,1.3,3,1.6c1.1,0.4,2.1,0.7,3,1.1c1.1,0.4,2.2,0.6,3.3,0.8c1.1,0.2,2.2,0.3,3.3,0.3c1.1,0,2.2-0.1,3.3-0.3
			c1.3-0.2,2.6-0.5,3.8-0.8c1.3-0.4,2.6-0.8,3.8-1.4c1.3-0.4,2.5-0.8,3.6-1.4c1.1-0.7,2.2-1.5,3.3-2.2c1.1-0.6,2.1-1.3,3-2.2
			c0.9-0.7,1.8-1.5,2.7-2.5c0.9-0.9,1.7-1.9,2.4-3c0.7-0.9,1.4-1.9,1.9-3c0.6-1.1,1.1-2.2,1.6-3.3c0.5-1.3,1-2.5,1.4-3.5
			c0.2-1.3,0.4-2.6,0.6-3.8c0.2-1.3,0.4-2.6,0.5-3.8c0-1.5-0.1-2.8-0.3-4.1c-0.2-1.3-0.4-2.5-0.5-3.6c-0.4-1.3-0.7-2.5-1.1-3.5
			c-0.5-1.1-1.1-2.2-1.6-3.3c-0.6-0.9-1.2-1.9-1.9-3c-0.7-0.9-1.6-1.7-2.5-2.5c-0.7-0.9-1.6-1.7-2.5-2.5c-1.1-0.9-2.1-1.6-3-2.2
			c-1.1-0.7-2.2-1.4-3.3-1.9c-1.1-0.5-2.3-1.1-3.6-1.6c-1.1-0.4-2.3-0.7-3.6-1.1C598.6,394.9,597.4,394.6,596.1,394.4z"/>
	</g>
	<g>
		<path d="M340.4,199.5c0.2-0.2,0.5-0.4,0.9-0.6c0.4-0.2,0.9-0.3,1.5-0.3c0.4-0.2,0.9-0.4,1.5-0.6c0.8-0.2,1.5-0.3,2.1-0.3
			c0.8-0.2,1.6-0.4,2.5-0.6c0.8,0,1.7-0.1,2.8-0.3c1-0.2,1.9-0.3,2.8-0.3c1.2-0.2,2.3-0.3,3.4-0.3c1.2-0.2,2.5-0.3,3.7-0.3
			c1.2-0.2,2.5-0.3,3.7-0.3c1.2-0.2,2.6-0.3,4-0.3c1.4-0.2,2.9-0.3,4.3-0.3c1.4-0.2,2.9-0.3,4.3-0.3c1.4,0,4.6-0.3,4.6-0.3
			s3.2,0,4.6,0c1.6-0.2,3.3-0.3,4.9-0.3c1.8,0,3.6,0,5.2,0s3.4-0.1,5.2-0.3c1.6,0,3.4,0,5.2,0c1.8,0,3.7,0,5.5,0s3.6-0.1,5.2-0.3
			c1.8,0,3.8,0,5.8,0c1.8,0,3.7,0,5.5,0s3.7,0,5.5,0c1.8,0,3.7,0,5.5,0c2,0,4,0,5.8,0s3.7,0,5.5,0s3.7,0,5.5,0s3.7,0.1,5.5,0.3
			c1.8,0,3.7,0,5.5,0s3.7,0,5.5,0c1.8,0,3.7,0,5.5,0c1.6,0.2,3.4,0.3,5.2,0.3c1.6,0,3.3,0,4.9,0c1.8,0,3.6,0.1,5.2,0.3
			c1.6,0,3.3,0,4.9,0c1.4,0,3,0.1,4.6,0.3c1.4,0,3,0,4.6,0c1.4,0.2,2.9,0.3,4.3,0.3c1.2,0,2.6,0.1,4,0.3c1.4,0,2.8,0,4,0
			c1.2,0.2,2.5,0.3,3.7,0.3c1,0,2.2,0.1,3.4,0.3c1,0,2,0,3.1,0c1,0.2,2,0.3,3.1,0.3c0.8,0.2,1.6,0.3,2.5,0.3c0.8,0,1.5,0.1,2.2,0.3
			c0.6,0,1.3,0.1,2.1,0.3c0.4,0,0.9,0.1,1.5,0.3c0.4,0,0.8,0,1.2,0c0.2,0.2,0.5,0.3,0.9,0.3l0.3,0.3c0.2,0.4,0.4,0.8,0.6,1.2
			c0.2,0.4,0.3,0.9,0.3,1.5c0.2,0.8,0.3,1.6,0.3,2.5c0.2,1,0.3,2,0.3,3.1c0.2,1.2,0.3,2.4,0.3,3.4c0,1.4,0,2.8,0,4
			c0,1.6,0,3.2,0,4.6c0,1.6,0,3.2,0,4.6c0,1.8-0.1,3.6-0.3,5.2c0,1.6,0,3.4,0,5.2c-0.2,1.8-0.3,3.7-0.3,5.5
			c-0.2,1.8-0.3,3.6-0.3,5.2c-0.2,1.8-0.3,3.7-0.3,5.5c-0.2,1.8-0.4,3.7-0.6,5.5c-0.2,1.8-0.3,3.7-0.3,5.5c-0.2,1.6-0.4,3.4-0.6,5.2
			c-0.2,1.6-0.4,3.3-0.6,4.9c-0.2,1.6-6.6,56.6-14.6,59c-6.5,2-55.9-9.6-74.7-14.1c-4.5-1.1-2,11.6,1.6,11.4
			c8.9-0.5,24.8-3.9,28-1.6c4.5,3.3,11.3,21.5,12.9,35.4c1.6,13.9-1.9,40.1-10.2,38.7c-3.3,0.4-12.9,3-17.6,2.9
			c-3.4-0.1,22.6,138.5,17.9,145.7c-4.7,7.2-38.5,7.6-39.7,7.8c-1.4,0-2.9,0-4.3,0c-1.4,0.2-2.9,0.3-4.3,0.3c-1.6,0-3.3,0.1-4.9,0.3
			c-1.6,0-3.3,0-4.9,0c-1.6,0-3.4,0-5.2,0c-1.6,0-3.4,0.1-5.2,0.3c-1.8,0-3.6,0-5.2,0c-1.8,0-3.7,0-5.5,0c-1.8-0.2-3.7-0.3-5.5-0.3
			c-1.8,0-3.7,0-5.5,0c-1.8,0-3.7,0-5.5,0s-3.7-0.1-5.5-0.3c-1.6,0-3.4,0-5.2,0c-1.6,0-3.3-0.1-4.9-0.3c-1.6,0-3.3,0-4.9,0
			c-1.6-0.2-3.3-0.3-4.9-0.3c-1.4,0-2.9-0.1-4.3-0.3c-1.4,0-2.8-0.1-4-0.3c-1.2,0-2.6,0-4,0c-1-0.2-2.1-0.3-3.4-0.3
			c-0.8-0.2-1.7-0.3-2.8-0.3c-0.8-0.2-1.6-0.3-2.5-0.3c-0.6-0.2-1.3-0.3-2.1-0.3c-0.4,0-0.8-0.1-1.2-0.3c-0.4,0-0.7-0.1-0.9-0.3
			l-0.3-0.3v-0.3c-0.2-0.2-0.3-0.4-0.3-0.6c0-0.4-0.1-0.7-0.3-0.9c0-0.4,0-0.8,0-1.2c0-0.4-0.1-0.8-0.3-1.2c0-0.6,0-1.1,0-1.5
			c-0.2-0.6-0.3-1.2-0.3-1.8s0-1.2,0-1.8c-0.2-0.8-0.3-1.5-0.3-2.1c0-0.8-0.1-1.6-0.3-2.5c0-0.8,0-1.6,0-2.5s-0.1-1.7-0.3-2.8
			c0-0.8,0-1.7,0-2.8c0-1-0.1-2-0.3-3.1c0-1,0-2,0-3.1c0-1.2-0.1-2.3-0.3-3.4c0-1.2,0-2.5,0-3.7c0-1.2-0.1-2.4-0.3-3.4
			c0-1.4,0-2.8,0-4c0-1.2,0-2.6,0-4c-0.2-1.2-0.3-2.6-0.3-4c0-1.4,0-2.8,0-4c0-1.4-0.1-2.9-0.3-4.3c0-1.6,0-3.2,0-4.6
			c0-1.4,0-2.9,0-4.3c-0.2-1.6-0.3-3.3-0.3-4.9c0-1.4,0-3,0-4.6c0-1.6-0.1-3.3-0.3-4.9c0-1.6,0-3.3,0-4.9c0-1.6,0-3.3,0-4.9
			c0-1.6-0.1-3.3-0.3-4.9c0-1.8,0-3.6,0-5.2c0-1.8,0-3.6,0-5.2c0-1.8,0-3.6,0-5.2c-0.2-1.8-0.3-3.7-0.3-5.5c0-1.8,0-3.6,0-5.2
			c0-1.8,0-3.7,0-5.5c0-1.8,0-3.7,0-5.5c0-1.8-0.1-3.7-0.3-5.5c0-1.8,0-3.7,0-5.5s0-3.7,0-5.5c0-2,0-4,0-5.8c0-1.8,0-3.7,0-5.5
			c0-1.8,0-3.7,0-5.5c0-2-0.1-4-0.3-5.8c0-1.8,0-3.7,0-5.5s0-3.8,0-5.8c0-1.8,0-3.7,0-5.5c0-1.8,0-3.7,0-5.5c0-2,0-4,0-5.8
			c0-1.8,0-3.7,0-5.5s0-3.7,0-5.5c0-1.8,0-3.7,0-5.5s0-3.7,0-5.5c0-1.8,0-3.7,0-5.5c0-1.6,0-3.4,0-5.2c0-1.8,0-3.7,0-5.5
			c0-1.6,0.1-3.4,0.3-5.2c0-1.6,0-3.4,0-5.2c0-1.6,0-3.4,0-5.2c0-1.6,0-3.3,0-4.9c0-1.6,0-3.3,0-4.9c0-1.6,0-3.3,0-4.9
			c0-1.6,0.1-3.3,0.3-4.9c0-1.6,0-3.3,0-4.9c0-1.4,0-3,0-4.6c0-1.4,0-2.9,0-4.3c0.2-1.6,0.3-3.2,0.3-4.6c0-1.4,0-2.9,0-4.3
			c0-1.2,0-2.6,0-4c0.2-1.4,0.3-2.8,0.3-4c0-1.4,0-2.8,0-4s0.1-2.6,0.3-4c0-1,0-2.1,0-3.4c0-1.2,0-2.5,0-3.7c0.2-1,0.3-2.1,0.3-3.4
			c0-1,0-2,0-3.1c0.2-1,0.3-2,0.3-3.1c0-0.8,0-1.7,0-2.8c0.2-0.8,0.3-1.7,0.3-2.8c0-0.8,0.1-1.6,0.3-2.5c0-0.8,0-1.6,0-2.5
			c0-0.6,0.1-1.3,0.3-2.1c0-0.6,0-1.2,0-1.8c0.2-0.6,0.3-1.2,0.3-1.8c0-0.4,0.1-0.9,0.3-1.5c0-0.4,0.1-0.8,0.3-1.2
			c0-0.4,0-0.7,0-0.9c0.2-0.4,0.3-0.7,0.3-0.9c0-0.4,0.1-0.7,0.3-0.9l0.3-0.3C340,199.9,340.2,199.7,340.4,199.5z"/>
		<path fill="#FFFFFF" d="M359.7,224.6c0.2-0.2,0.4-0.3,0.7-0.5c0.3-0.2,0.7-0.3,1.2-0.3c0.3-0.2,0.7-0.3,1.2-0.5
			c0.7-0.2,1.2-0.3,1.7-0.3c0.7-0.2,1.3-0.3,2-0.5c0.7,0,1.4-0.1,2.2-0.3c0.8-0.2,1.6-0.3,2.2-0.3c1-0.2,1.9-0.3,2.7-0.3
			c1-0.2,2-0.3,3-0.3c1-0.2,2-0.3,3-0.3c1-0.2,2.1-0.3,3.2-0.3c1.2-0.2,2.3-0.3,3.5-0.3c1.2-0.2,2.3-0.3,3.5-0.3s2.4-0.1,3.7-0.3
			c1.3,0,2.6,0,3.7,0c1.3-0.2,2.7-0.3,4-0.3c1.5,0,2.9,0,4.2,0c1.3,0,2.7-0.1,4.2-0.3c1.3,0,2.7,0,4.2,0c1.5,0,3,0,4.5,0
			s2.9-0.1,4.2-0.3c1.5,0,3.1,0,4.7,0c1.5,0,3,0,4.5,0s3,0,4.5,0c1.5,0,3,0,4.5,0c1.7,0,3.2,0,4.7,0s3,0,4.5,0s3,0,4.5,0
			s3,0.1,4.5,0.3c1.5,0,3,0,4.5,0s3,0,4.5,0s3,0,4.5,0c1.3,0.2,2.7,0.3,4.2,0.3c1.3,0,2.7,0,4,0c1.5,0,2.9,0.1,4.2,0.3
			c1.3,0,2.7,0,4,0c1.2,0,2.4,0.1,3.7,0.3c1.2,0,2.4,0,3.7,0c1.2,0.2,2.3,0.3,3.5,0.3c1,0,2.1,0.1,3.2,0.3c1.2,0,2.2,0,3.2,0
			c1,0.2,2,0.3,3,0.3c0.8,0,1.8,0.1,2.7,0.3c0.8,0,1.7,0,2.5,0c0.8,0.2,1.7,0.3,2.5,0.3c0.7,0.2,1.3,0.3,2,0.3
			c0.7,0,1.3,0.1,1.8,0.3c0.5,0,1.1,0.1,1.7,0.3c0.3,0,0.7,0.1,1.2,0.3c0.3,0,0.7,0,1,0c0.2,0.2,0.4,0.3,0.8,0.3l0.2,0.3
			c0.2,0.4,0.3,0.7,0.5,1.1c0.2,0.4,0.3,0.8,0.3,1.3c0.2,0.7,0.2,1.4,0.2,2.1c0.2,0.9,0.3,1.8,0.3,2.6c0.2,1.1,0.2,2,0.2,2.9
			c0,1.2,0,2.4,0,3.4c0,1.4,0,2.7,0,3.9c0,1.4,0,2.7,0,3.9c0,1.6-0.1,3.1-0.2,4.5c0,1.4,0,2.9,0,4.5c-0.2,1.6-0.3,3.2-0.3,4.7
			c-0.2,1.6-0.2,3.1-0.2,4.5c-0.2,1.6-0.3,3.2-0.3,4.7c-0.2,1.6-0.3,3.1-0.5,4.7c-0.2,1.6-0.2,3.2-0.2,4.7c-0.2,1.4-0.3,2.9-0.5,4.5
			c-0.2,1.4-0.3,2.8-0.5,4.2c-0.2,1.4-0.3,2.7-0.5,3.9c-0.2,1.2-0.3,2.5-0.5,3.7c-0.2,1.2-0.3,2.4-0.5,3.4c-0.2,0.9-0.3,1.8-0.5,2.9
			c-0.2,0.9-0.3,1.7-0.5,2.4c-0.2,0.7-0.4,1.3-0.7,1.8c-0.2,0.5-0.3,1-0.5,1.3c-0.2,0.4-0.3,0.6-0.5,0.8c-0.2,0-0.4,0-0.8,0
			c-0.3,0.2-0.7,0.3-1.2,0.3c-0.5,0-1,0-1.5,0c-0.7-0.2-1.3-0.3-2-0.3c-0.7,0-1.4-0.1-2.2-0.3c-0.8,0-1.7-0.1-2.5-0.3
			c-1-0.2-2-0.3-3-0.5c-1-0.2-2.1-0.3-3.2-0.5c-1.2-0.2-2.2-0.3-3.2-0.5c-1.3-0.2-2.6-0.3-3.7-0.5c-1.2-0.2-2.4-0.4-3.7-0.8
			c-1.3-0.2-2.7-0.4-4-0.5c-1.3-0.4-2.7-0.6-4-0.8c-1.3-0.3-2.7-0.6-4-0.8c-1.5-0.3-2.9-0.6-4.2-0.8c-1.3-0.3-2.7-0.6-4.2-0.8
			c-1.3-0.3-2.7-0.7-4-1.1c-1.5-0.2-2.9-0.4-4.2-0.8c-1.3-0.2-2.7-0.4-4-0.8c-1.3-0.3-2.7-0.6-4-0.8c-1.3-0.3-2.7-0.6-4-0.8
			c-1.2-0.4-2.4-0.6-3.7-0.8c-1.2-0.4-2.3-0.6-3.5-0.8c-1.2-0.2-2.2-0.4-3.2-0.8c-1-0.2-2-0.3-3-0.5c-1-0.3-2-0.6-3-0.8
			c-0.8,0-1.7-0.2-2.5-0.5c-0.7-0.2-1.3-0.3-2-0.3c-0.7-0.2-1.3-0.3-2-0.5c-0.8-0.3-1.2-0.4-1.2-0.3c-0.2,0.7-0.1,1.7,0.2,2.9
			c0.3,1.1,0.4,2.2,0.2,3.4c0.2,1.2,0.3,2.5,0.5,3.9c0.2,1.2,0.3,2.5,0.5,3.9c0.2,1.4,0.4,2.9,0.7,4.5c0.2,1.4,0.3,2.8,0.5,4.2
			c0.2,1.6,0.4,3.1,0.7,4.5c0.2,1.4,0.3,2.9,0.5,4.5c0.3,1.2,0.6,2.5,0.7,3.9c0.2,1.2,0.3,2.5,0.5,3.7c0.2,1.1,0.4,2.2,0.7,3.4
			c0.2,0.9,0.2,1.8,0.2,2.6c0.2,0.7,0.3,1.4,0.5,2.1c0,0.5,0.1,1,0.2,1.3v0.5c0.2,0,0.4-0.1,0.7-0.3c0.7,0,1.3,0,2,0
			c1-0.2,2-0.3,3-0.5c1.2,0,2.4-0.1,3.7-0.3c1.5-0.2,2.9-0.3,4.2-0.3c1.7-0.2,3.2-0.3,4.7-0.3c1.7-0.2,3.2-0.3,4.7-0.3
			c1.5,0,3,0,4.5,0s2.9,0,4.2,0c1.2,0,2.3,0.1,3.5,0.3c0.8,0.2,1.7,0.4,2.5,0.8c0.7,0.2,1.2,0.4,1.5,0.8c0.3,0.4,0.6,0.8,0.7,1.3
			c0.2,0.7,0.3,1.4,0.5,2.1c0.2,1.1,0.3,2,0.5,2.9c0.3,1.2,0.6,2.4,0.8,3.4c0.2,1.2,0.2,2.5,0.2,3.9c0.2,1.2,0.3,2.5,0.5,3.9
			c0,1.4,0.1,2.8,0.3,4.2c0,1.4,0.1,2.9,0.2,4.5c0,1.2,0,2.5,0,3.9c0,1.4-0.1,2.7-0.2,3.9c0,1.2-0.1,2.5-0.3,3.7
			c0,1.1-0.1,2.1-0.2,3.1c-0.2,0.7-0.4,1.5-0.8,2.4c-0.2,0.7-0.4,1.3-0.7,1.8c-0.3,0.5-0.8,1-1.5,1.3c-1,0.4-1.9,0.6-2.7,0.8
			c-1.2,0.2-2.3,0.4-3.5,0.5c-1.3,0.2-2.7,0.3-4,0.3c-1.5,0-2.9-0.1-4.2-0.3c-1.5,0-2.9-0.1-4.2-0.3c-1.5-0.2-2.9-0.3-4.2-0.5
			c-1.2,0-2.3-0.1-3.5-0.3c-1-0.2-2-0.3-3-0.5c-0.5,0-1.1-0.1-1.8-0.3c-0.3,0-0.6,0-0.7,0c0.2,0.2,0.2,0.4,0.2,0.8
			c0,0.4,0,0.6,0,0.8c0.2,0.5,0.3,1.1,0.3,1.6c0.2,0.5,0.2,1,0.2,1.6c0.2,0.7,0.3,1.4,0.5,2.1c0,0.7,0.1,1.5,0.3,2.4
			c0.2,0.9,0.3,1.7,0.5,2.6c0.2,1,0.3,2,0.5,2.9c0.2,1.1,0.3,2.1,0.5,3.2c0.2,1.2,0.3,2.4,0.5,3.4c0.2,1.2,0.3,2.5,0.5,3.7
			c0.3,1.2,0.6,2.5,0.7,3.7c0.2,1.4,0.3,2.8,0.5,4.2c0.3,1.2,0.6,2.5,0.8,3.9c0.2,1.6,0.4,3.1,0.7,4.5c0.2,1.4,0.3,2.9,0.5,4.5
			c0.3,1.4,0.6,2.9,0.7,4.5c0.3,1.6,0.6,3.1,0.8,4.5c0.2,1.6,0.4,3.2,0.7,4.7c0.2,1.6,0.4,3.2,0.8,4.7c0.2,1.6,0.3,3.2,0.5,4.7
			c0.3,1.6,0.6,3.1,0.7,4.7c0.3,1.6,0.6,3.2,0.8,4.7c0.2,1.6,0.4,3.1,0.7,4.7c0.2,1.6,0.3,3.2,0.5,4.7c0.2,1.6,0.4,3.1,0.8,4.7
			c0.2,1.4,0.3,2.9,0.5,4.5c0.2,1.4,0.3,2.9,0.5,4.5c0.2,1.4,0.3,2.8,0.5,4.2c0.2,1.4,0.3,2.8,0.5,4.2c0.2,1.2,0.3,2.5,0.5,3.9
			c0.2,1.2,0.3,2.5,0.5,3.7c0,1.2,0.1,2.5,0.3,3.7c0.2,1.2,0.2,2.4,0.2,3.4c0.2,1.1,0.3,2.1,0.3,3.2c0.2,1.1,0.2,2,0.2,2.9
			s0,1.7,0,2.6c0,0.9,0.1,1.7,0.3,2.4c0,0.7-0.1,1.4-0.3,2.1c0,0.5,0,1.1,0,1.8c0,0.4-0.1,0.8-0.2,1.3c0,0.4-0.1,0.7-0.3,1.1
			c0,0.2-0.1,0.4-0.2,0.5c-0.2,0.2-0.4,0.4-0.8,0.5c-0.3,0.2-0.7,0.4-1.2,0.5c-0.5,0.2-1.1,0.3-1.7,0.5c-0.7,0-1.3,0.1-2,0.3
			c-0.8,0.2-1.7,0.3-2.5,0.3c-0.8,0.2-1.8,0.3-2.7,0.5c-1,0-2,0.1-3,0.3c-1.2,0-2.3,0-3.5,0c-1.2,0.2-2.3,0.3-3.5,0.3
			c-1.3,0-2.7,0.1-4,0.3c-1.3,0-2.7,0-4,0c-1.3,0-2.7,0-4.2,0c-1.3,0-2.7,0.1-4.2,0.3c-1.5,0-2.9,0-4.2,0c-1.5,0-3,0-4.5,0
			c-1.5-0.2-3-0.3-4.5-0.3s-3,0-4.5,0c-1.5,0-3,0-4.5,0c-1.5,0-3-0.1-4.5-0.3c-1.3,0-2.7,0-4.2,0c-1.3,0-2.7-0.1-4-0.3
			c-1.3,0-2.7,0-4,0c-1.3-0.2-2.7-0.3-4-0.3c-1.2,0-2.3-0.1-3.5-0.3c-1.2,0-2.2-0.1-3.2-0.3c-1,0-2.1,0-3.2,0
			c-0.8-0.2-1.7-0.3-2.7-0.3c-0.7-0.2-1.4-0.3-2.2-0.3c-0.7-0.2-1.3-0.3-2-0.3c-0.5-0.2-1.1-0.3-1.7-0.3c-0.3,0-0.7-0.1-1-0.3
			c-0.3,0-0.6-0.1-0.7-0.3l-0.2-0.3v-0.3c-0.2-0.2-0.2-0.3-0.2-0.5c0-0.3-0.1-0.6-0.2-0.8c0-0.3,0-0.7,0-1.1c0-0.3-0.1-0.7-0.2-1
			c0-0.5,0-1,0-1.3c-0.2-0.5-0.2-1.1-0.2-1.6c0-0.5,0-1.1,0-1.6c-0.2-0.7-0.2-1.3-0.2-1.8c0-0.7-0.1-1.4-0.2-2.1c0-0.7,0-1.4,0-2.1
			s-0.1-1.5-0.2-2.4c0-0.7,0-1.5,0-2.4c0-0.9-0.1-1.7-0.2-2.6c0-0.9,0-1.7,0-2.6c0-1.1-0.1-2-0.2-2.9c0-1.1,0-2.1,0-3.1
			c0-1.1-0.1-2-0.2-2.9c0-1.2,0-2.4,0-3.4c0-1,0-2.2,0-3.4c-0.2-1.1-0.2-2.2-0.2-3.4c0-1.2,0-2.4,0-3.4c0-1.2-0.1-2.4-0.2-3.7
			c0-1.4,0-2.7,0-3.9s0-2.4,0-3.7c-0.2-1.4-0.2-2.8-0.2-4.2c0-1.2,0-2.5,0-3.9c0-1.4-0.1-2.8-0.2-4.2c0-1.4,0-2.8,0-4.2
			c0-1.4,0-2.8,0-4.2c0-1.4-0.1-2.8-0.2-4.2c0-1.6,0-3.1,0-4.5c0-1.6,0-3.1,0-4.5c0-1.6,0-3.1,0-4.5c-0.2-1.6-0.2-3.1-0.2-4.7
			c0-1.6,0-3.1,0-4.5c0-1.6,0-3.2,0-4.7c0-1.6,0-3.2,0-4.7c0-1.6-0.1-3.2-0.2-4.7c0-1.6,0-3.1,0-4.7c0-1.6,0-3.2,0-4.7
			c0-1.7,0-3.4,0-5c0-1.6,0-3.2,0-4.7c0-1.6,0-3.1,0-4.7c0-1.7-0.1-3.4-0.2-5c0-1.6,0-3.2,0-4.7s0-3.2,0-5c0-1.6,0-3.2,0-4.7
			c0-1.6,0-3.1,0-4.7c0-1.7,0-3.4,0-5c0-1.6,0-3.1,0-4.7c0-1.6,0-3.2,0-4.7c0-1.6,0-3.2,0-4.7c0-1.6,0-3.2,0-4.7c0-1.6,0-3.2,0-4.7
			c0-1.4,0-2.9,0-4.5s0-3.2,0-4.7c0-1.4,0.1-2.9,0.2-4.5c0-1.4,0-2.9,0-4.5c0-1.4,0-2.9,0-4.5c0-1.4,0-2.8,0-4.2c0-1.4,0-2.8,0-4.2
			c0-1.4,0-2.8,0-4.2c0-1.4,0.1-2.8,0.2-4.2c0-1.4,0-2.8,0-4.2c0-1.2,0-2.5,0-3.9c0-1.2,0-2.4,0-3.7c0.2-1.4,0.2-2.7,0.2-3.9
			s0-2.4,0-3.7c0-1.1,0-2.2,0-3.4c0.2-1.2,0.2-2.4,0.2-3.4c0-1.2,0-2.4,0-3.4s0.1-2.2,0.2-3.4c0-0.9,0-1.8,0-2.9s0-2.1,0-3.2
			c0.2-0.9,0.2-1.8,0.2-2.9c0-0.9,0-1.7,0-2.6c0.2-0.9,0.2-1.7,0.2-2.6c0-0.7,0-1.5,0-2.4c0.2-0.7,0.2-1.5,0.2-2.4
			c0-0.7,0.1-1.4,0.2-2.1c0-0.7,0-1.4,0-2.1c0-0.5,0.1-1.1,0.2-1.8c0-0.5,0-1.1,0-1.6c0.2-0.5,0.2-1.1,0.2-1.6
			c0-0.3,0.1-0.8,0.2-1.3c0-0.3,0.1-0.7,0.2-1.1c0-0.3,0-0.6,0-0.8c0.2-0.3,0.2-0.6,0.2-0.8c0-0.4,0.1-0.6,0.2-0.8l0.2-0.3
			C359.3,224.9,359.5,224.8,359.7,224.6z"/>
	</g>
</g>
</svg>
