<?xml version="1.0" encoding="utf-8"?>
<!-- Generator: Adobe Illustrator 18.0.0, SVG Export Plug-In . SVG Version: 6.00 Build 0)  -->
<!DOCTYPE svg PUBLIC "-//W3C//DTD SVG 1.1//EN" "http://www.w3.org/Graphics/SVG/1.1/DTD/svg11.dtd">
<svg version="1.1" id="Camada_1" xmlns="http://www.w3.org/2000/svg" xmlns:xlink="http://www.w3.org/1999/xlink" x="0px" y="0px"
	 viewBox="0 0 1024 768" enable-background="new 0 0 1024 768" xml:space="preserve">
<g>
	<defs>
		<circle id="SVGID_1_" cx="511.9" cy="383.4" r="375.7"/>
	</defs>
	<clipPath id="SVGID_2_">
		<use xlink:href="#SVGID_1_"  overflow="visible"/>
	</clipPath>
	<g clip-path="url(#SVGID_2_)" enable-background="new    ">
		
			<image overflow="visible" width="2474" height="2474" xlink:href="../../banco de imagens/botões/butt 25.png"  transform="matrix(0.3065 0 0 0.3065 132.8006 4.7999)">
		</image>
	</g>
</g>
<g>
	<g>
		<path fill="#010001" d="M320.8,206.9c0.7-0.6,1.6-1.1,2.6-1.5c1.2-0.4,2.4-0.9,3.6-1.5c1.2-0.4,2.5-0.8,4-1.2
			c1.5-0.4,3-0.8,4.7-1.2c1.7-0.2,3.3-0.5,4.7-0.9c1.9-0.2,3.8-0.5,5.5-0.9c1.9-0.2,3.9-0.4,5.8-0.6c1.9-0.2,3.9-0.4,5.8-0.6
			c1.9-0.2,3.9-0.4,5.8-0.6c1.9,0,3.9-0.1,5.8-0.3h5.8h5.5h18.2c1.7,0,3.4,0.1,5.1,0.3c1.7,0,3.3,0.1,4.7,0.3c1.5,0.2,2.8,0.4,4,0.6
			c1.2,0,2.4,0.2,3.6,0.6c1,0.2,1.9,0.4,2.9,0.6c0.7,0.2,1.4,0.5,2.2,0.9c0.5,0.2,1,0.5,1.5,0.9c0.5,0.2,0.9,0.5,1.1,0.9
			c0.5,0.4,0.9,0.9,1.1,1.5c0.5,0.6,0.9,1.1,1.1,1.5c0.5,0.6,0.8,1.3,1.1,2.1c0.2,0.6,0.5,1.3,0.7,2.1c0.2,0.8,0.5,1.5,0.7,2.1
			c0.2,1,0.5,1.9,0.7,2.7c0.2,1,0.5,1.9,0.7,2.7c0,1,0.1,2,0.4,3c0.2,1,0.4,2.1,0.4,3.3c0.2,1,0.4,2.1,0.4,3.3
			c0.2,1.2,0.4,2.3,0.4,3.3c0.2,1.2,0.4,2.5,0.4,3.8c0,1.2,0.1,2.4,0.4,3.6v4.2v3.9c0.2,1.4,0.4,2.8,0.4,4.1v4.5v4.4v4.4v4.4v4.8
			c0,1.6-3.1,1.7-2.1,0.3c0.7-1.6,1.6-3,2.5-4.4c0.7-1.4,1.5-2.9,2.2-4.5c0.7-1.4,1.5-2.8,2.2-4.2c0.7-1.4,1.5-2.9,2.2-4.4
			c0.7-1.4,1.5-2.8,2.2-4.2c0.5-1.4,1.1-2.8,1.8-4.1c0.5-1.2,1-2.5,1.5-3.9c0.7-1.4,1.3-2.7,1.8-3.8c0.5-1.4,1-2.7,1.5-3.9
			c0.5-1.2,1-2.4,1.5-3.6c0.5-1.2,1-2.4,1.5-3.5c0.2-1.2,0.6-2.4,1.1-3.6c0.5-1,0.8-2.1,1.1-3.3c0.5-1,0.9-2,1.1-3
			c0.2-1,0.6-1.9,1.1-2.7c0.2-1,0.5-1.9,0.7-2.7c0.2-1,0.6-1.9,1.1-2.7c0.2-0.6,0.5-1.3,0.7-2.1c0.2-0.6,0.5-1.3,0.7-2.1
			c0.2-0.6,0.7-1.8,0.7-1.8s0.5-0.9,0.7-1.5c0-0.4,0.1-0.8,0.4-1.2c0.2-0.2,0.5-0.5,0.7-0.9c0.2-0.2,0.4-0.4,0.4-0.6
			c0.2-0.2,0.5-0.3,0.7-0.3c0.7-0.2,2.5-0.3,2.5-0.3s2.3-0.3,3.3-0.3h3.6c0,0,17.1-1.5,42.5,0l4.7,0.6c1.7,0.2,3.4,0.4,5.1,0.6
			c1.7,0.2,3.5,0.5,5.5,0.9c1.7,0.2,3.5,0.5,5.5,0.9c1.9,0.4,3.9,0.7,5.8,0.9c1.9,0.4,3.9,0.9,5.8,1.5c1.9,0.4,3.9,0.8,5.8,1.2
			c1.9,0.4,3.9,0.9,5.8,1.5c1.9,0.4,3.9,0.9,5.8,1.5c1.9,0.4,3.8,0.9,5.5,1.5c1.9,0.6,3.8,1.1,5.5,1.5c1.7,0.6,3.4,1.2,5.1,1.8
			c1.7,0.6,3.4,1.1,5.1,1.5c1.5,0.6,2.9,1.2,4.4,1.8c1.2,0.4,2.4,0.9,3.6,1.5c1.2,0.6,2.4,1.2,3.6,1.8c1,0.4,1.8,0.9,2.6,1.5
			c0.7,0.4,1.5,0.9,2.2,1.5c0.5,0.4,1,0.8,1.5,1.2c0.2,0.4,0.4,0.9,0.4,1.5v0.6v1.2c0,0.4-0.1,0.8-0.4,1.2c0,0.4-0.1,0.8-0.4,1.2
			c0,0.6-0.1,1.2-0.4,1.8c-0.2,0.6-0.4,1.2-0.4,1.8c-0.3,0.6-0.5,1.2-0.7,1.8c-0.2,0.8-0.6,1.5-1.1,2.1c-0.2,0.8-0.5,1.6-0.7,2.4
			c-0.5,0.8-0.9,1.6-1.1,2.4c-0.5,0.8-1,1.6-1.5,2.4c-0.2,1-0.6,1.9-1.1,2.7c-0.5,1-1,2-1.5,3c-0.5,1-1,2-1.5,3c-0.7,1-1.3,2-1.8,3
			c-0.5,1-1.1,2.1-1.8,3.3c-0.7,1-1.3,2.1-1.8,3.3c-0.7,1-1.5,2.1-2.2,3.3c-0.7,1-1.5,2.1-2.2,3.3c-0.7,1.2-1.5,2.4-2.2,3.5
			c-0.7,1.2-1.6,2.4-2.5,3.6c-0.7,1.2-1.6,2.4-2.5,3.6c-0.7,1.2-1.6,2.4-2.5,3.5c-1,1.4-1.9,2.7-2.9,3.9c-1,1.2-1.9,2.5-2.9,3.9
			c-1,1.2-1.9,2.4-2.9,3.5c-1,1.4-2.1,2.7-3.3,3.8c-1,1.2-2.1,2.5-3.3,3.9c-1,1.2-2.1,2.5-3.3,3.8c-1.2,1.2-2.4,2.4-3.6,3.6
			c-1.2,1.4-2.4,2.7-3.6,3.9c-1.2,1.4-2.4,2.7-3.6,3.8c-1.2,1.2-2.5,2.5-4,3.9c-1.2,1.2-2.5,2.4-4,3.6c-1.2,1.2-2.6,2.4-4,3.6
			c-1.5,1.4-2.9,2.7-4.4,3.9c-1.5,1.2-2.9,2.4-4.4,3.6c-1.5,1.2-2.9,2.3-4.4,3.2c-1.7,1.2-3.3,2.4-4.7,3.6c-1.5,1.2-3,2.3-4.7,3.3
			c-1.7,1.2-3.3,2.3-4.7,3.3c-1.7,1.2-3.4,2.3-5.1,3.3c-1.9,1-15.2,7.7-15.7,8.9c-0.2,0.8,11.3,5.4,12.7,6.2
			c1.5,0.8,2.9,1.6,4.4,2.4c1.5,0.8,2.9,1.7,4.4,2.7c1.5,0.8,2.9,1.7,4.4,2.7c1.2,0.8,2.5,1.7,4,2.7c1.5,1,2.9,2,4.4,3
			c1.5,1,2.8,2,4,3c1.5,1,2.9,2.1,4.4,3.3c1.5,1,2.8,2.1,4,3.3c1.5,1,2.9,2.1,4.4,3.3c1.2,1.2,2.5,2.4,4,3.6c1.2,1,2.6,2.1,4,3.3
			c1.2,1.2,2.5,2.4,4,3.6c1.2,1.2,2.5,2.4,4,3.5c1.2,1.4,2.4,2.7,3.6,3.9c1.5,1.2,2.8,2.4,4,3.5c1.2,1.2,2.4,2.5,3.6,3.9
			c1.2,1.2,2.4,2.4,3.6,3.6c1.2,1.4,2.4,2.7,3.6,3.8c1.2,1.2,2.4,2.5,3.6,3.9c1.2,1.2,2.3,2.5,3.3,3.8c1.2,1.2,2.4,2.4,3.6,3.6
			c1,1.4,2.1,2.7,3.3,3.9c1,1.2,2.1,2.5,3.3,3.8c1,1.2,1.9,2.4,2.9,3.6c1.2,1.2,2.3,2.4,3.3,3.5c1,1.4,1.9,2.7,2.9,3.8
			c1,1.2,1.9,2.4,2.9,3.6c0.7,1.2,1.6,2.4,2.6,3.6c1,1,1.8,2.1,2.5,3.3c1,1.2,1.8,2.3,2.6,3.3c1,1.2,1.8,2.3,2.5,3.3
			c0.7,1.2,1.5,2.3,2.2,3.3c0.7,1,1.4,2.1,2.2,3.3c0.7,1,1.3,2,1.8,3c0.7,0.8,1.5,1.7,2.2,2.7c0.5,1,1,1.9,1.5,2.7
			c0.7,1,1.3,1.9,1.8,2.7c0.5,0.8,1,1.6,1.5,2.4c0.5,0.8,1,1.6,1.5,2.4c0.2,0.8,0.6,1.5,1.1,2.1c0.2,0.8,0.6,1.5,1.1,2.1
			c0.2,0.6,0.5,1.2,0.7,1.8c0.2,0.6,0.5,1.2,0.7,1.8c0.2,0.4,0.4,0.8,0.4,1.2c0.2,0.4,0.4,0.9,0.4,1.5c0.2,0.2,0.4,0.5,0.4,0.9v0.9
			c0,0.6-0.3,1.1-0.7,1.5c-0.2,0.6-0.6,1.2-1.1,1.8c-0.7,0.6-1.5,1.3-2.2,2.1c-0.7,0.6-1.6,1.3-2.5,2.1c-1.2,0.6-2.3,1.3-3.3,2.1
			c-1.2,0.8-2.4,1.6-3.6,2.4c-1.5,0.8-2.9,1.5-4.4,2.1c-1.5,0.8-3,1.6-4.7,2.4c-1.5,0.8-3,1.6-4.7,2.4c-1.7,1-3.4,1.9-5.1,2.7
			c-1.7,0.8-3.5,1.6-5.5,2.4c-1.7,0.6-3.5,1.3-5.5,2.1c-1.7,0.8-3.5,1.6-5.5,2.4c-1.7,0.8-3.5,1.5-5.5,2.1c-1.9,0.8-3.8,1.5-5.5,2.1
			c-1.7,0.6-3.5,1.2-5.5,1.8c-1.7,0.6-3.4,1.2-5.1,1.8c-1.5,0.6-3,1.1-4.7,1.5c-1.5,0.6-2.9,1.1-4.4,1.5c-1.5,0.4-41,9.3-42.2,9.7
			c-1.2,0.2-2.4,0.4-3.6,0.6c-1.2,0.2-2.3,0.4-3.3,0.6c-0.7,0.2-1.6,0.3-2.5,0.3h-1.8c-0.2,0-0.5-0.1-0.7-0.3
			c-0.5-0.2-0.9-0.4-1.1-0.6c-0.2-0.2-0.5-0.4-0.7-0.6c-0.2-0.4-0.6-0.7-1.1-0.9c-0.3-0.4-0.5-0.8-0.7-1.2c-0.5-0.6-0.8-1.1-1.1-1.5
			c-0.5-0.6-0.9-1.2-1.1-1.8c-0.5-0.6-0.9-1.2-1.1-1.8c-0.5-0.6-0.9-1.2-1.1-1.8c-0.5-0.8-1-1.6-1.5-2.4c-0.3-0.8-0.6-1.6-1.1-2.4
			c-0.5-0.8-1-1.6-1.4-2.4c-0.5-1-5.2-10.4-5.7-11.1c-0.5-1-17.5-32.4-18.2-33.8c-0.7-1.2-20.8-44.3-20.8-44.3s0.2-2.7,0.2-1.3
			c0.2,1.6,0.5,3.2,0.7,4.7c0,1.8,1.1,12.9,1.1,14.5c0.2,1.8,1.2,13.2,1.5,14.8c0,1.6,0.1,3.2,0.4,4.7c0.2,1.6,0.4,3.2,0.4,4.7
			c0.2,1.6,0.4,3.2,0.4,4.7c0.2,1.6,0.4,3.1,0.4,4.5c0.2,1.6,0.4,3.1,0.4,4.4c0.2,1.6,0.4,3.1,0.4,4.5c0,1.4,0.1,2.8,0.4,4.2v3.9
			c0.2,1.4,0.4,2.7,0.4,3.8v3.6c0.2,1.2,0.4,2.4,0.4,3.6v3v3v2.7v2.1c0,0.8-0.1,1.5-0.4,2.1v1.5c0,0.4-0.1,0.9-0.4,1.5
			c0,0.2-0.1,0.5-0.4,0.9c0,0.2-0.1,0.3-0.4,0.3c-0.5,0.4-1,0.6-1.5,0.6c-0.7,0.4-1.5,0.6-2.2,0.6c-1,0.2-14.8,0.4-16,0.6
			c-1.2,0.2-2.6,0.4-4,0.6c-1.5,0-2.9,0.1-4.4,0.3c-1.7,0.2-3.4,0.3-5.1,0.3c-2,0.2-3.8,0.3-5.5,0.3c-2.2,0.2-4.3,0.3-6.2,0.3
			c-2,0-4,0.1-6.2,0.3h-6.5h-6.6h-6.6H366h-6.2h-6.2c-1.9-0.2-3.9-0.3-5.8-0.3c-1.7,0-3.4-0.1-5.1-0.3c-1.7,0-3.4-0.1-5.1-0.3
			c-1.2,0-2.6-0.1-4-0.3c-1.2,0-2.4-0.1-3.6-0.3c-0.7-0.2-1.6-0.3-2.5-0.3c-0.7-0.2-1.3-0.4-1.8-0.6c-0.2,0-0.5-0.2-0.7-0.6h-0.4
			v-0.6v-0.6v-0.9c-0.2-0.4-0.4-0.8-0.4-1.2v-1.5v-1.5c-0.2-0.6-0.4-1.2-0.4-1.8v-1.8c0-0.8-0.1-1.5-0.4-2.1v-2.4
			c0-0.8-0.1-1.6-0.4-2.4v-2.7v-2.7c-0.2-1-0.4-2-0.4-3v-3.3c-0.2-1-0.4-2.1-0.4-3.2v-3.3c-0.2-1.2-0.4-2.4-0.4-3.6
			c0-1.4-0.1-2.7-0.4-3.8v-3.9c0-1.2-0.1-2.5-0.4-3.9v-4.2c0-1.4-0.1-2.7-0.4-4.1v-4.1c-0.2-1.6-0.4-3.1-0.4-4.5v-4.4
			c-0.2-1.6-0.4-3.2-0.4-4.7c0-1.6-0.1-3.1-0.4-4.4v-5c0-1.6-0.1-3.1-0.4-4.7v-5c-0.2-1.6-0.4-3.2-0.4-4.7v-5
			c-0.2-1.8-0.4-3.6-0.4-5.3c0-1.6-0.1-3.3-0.4-5v-5.3c0-1.8-0.1-3.6-0.4-5.3v-5.3c0-1.8-0.1-3.5-0.4-5.3v-5.3
			c0-1.8-0.1-3.5-0.4-5.3v-5.3c-0.2-1.8-0.4-3.7-0.4-5.6v-5.3c0-1.8-0.1-3.5-0.4-5.3c0-2-0.1-9.2-0.4-11v-5.6v-5.3
			c-0.2-1.8-0.4-3.6-0.4-5.3v-5.3c0-1.8-0.1-3.6-0.4-5.3v-5.3v-5.3v-5.3c-0.3-1.6-0.4-3.3-0.4-5v-5.3v-5v-4.7
			c-0.2-1.8-0.4-3.5-0.4-5v-5v-4.7v-4.4v-4.7V276v-4.4v-4.4V263v-4.1V255v-3.9c0-1.2,0.1-2.4,0.4-3.6V244v-3.5v-3.3
			c0.2-1,0.4-2.1,0.4-3.3v-3c0-0.8,0.1-1.7,0.4-2.7v-2.7v-2.4c0.2-0.8,0.4-1.6,0.4-2.4c0-0.8,0.1-1.5,0.4-2.1v-2.1
			c0.2-0.6,0.4-1.2,0.4-1.8c0-0.4,0.1-0.9,0.4-1.5V212c0.2-0.4,0.4-0.8,0.4-1.2c0.2-0.2,0.4-0.5,0.4-0.9c0-0.2,0.1-0.4,0.4-0.6
			c0-0.2,0.1-0.4,0.4-0.6C319.1,208.1,319.8,207.5,320.8,206.9"/>
		<path fill="#FFFFFF" d="M345.6,231.3c0.5-0.5,1.1-0.9,1.8-1.3c0.8-0.3,1.7-0.8,2.5-1.3c0.8-0.3,1.8-0.7,2.8-1c1-0.3,2.1-0.7,3.3-1
			c1.2-0.2,2.3-0.4,3.3-0.8c1.4-0.2,2.6-0.4,3.8-0.8c1.4-0.2,2.7-0.3,4.1-0.5c1.3-0.2,2.7-0.3,4.1-0.5c1.4-0.2,2.7-0.3,4.1-0.5
			c1.4,0,2.7-0.1,4.1-0.3h4.1h3.8h3.8c1.2,0,2.4,0.1,3.6,0.3c1.2,0,2.3,0.1,3.3,0.2c1,0.2,1.9,0.3,2.8,0.5c0.8,0,1.7,0.2,2.5,0.5
			c0.7,0.2,1.4,0.3,2,0.5c0.5,0.2,1,0.4,1.5,0.7c0.3,0.2,0.7,0.4,1,0.8c0.3,0.2,0.6,0.4,0.8,0.8c0.3,0.4,0.6,0.8,0.8,1.3
			c0.3,0.5,0.6,0.9,0.8,1.3c0.3,0.5,0.6,1.1,0.8,1.8c0.2,0.5,0.3,1.1,0.5,1.8c0.2,0.7,0.3,1.3,0.5,1.8c0.2,0.9,0.3,1.6,0.5,2.3
			c0.2,0.9,0.3,1.6,0.5,2.3c0,0.9,0.1,1.7,0.3,2.5c0.2,0.9,0.3,1.8,0.3,2.8c0.2,0.8,0.2,1.8,0.2,2.8c0.2,1,0.3,2,0.3,2.8
			c0.2,1,0.2,2.1,0.2,3.3c0,1,0.1,2,0.3,3v3.5v3.3c0.2,1.2,0.3,2.4,0.3,3.6v3.8v3.8v3.8v3.8v4.1v4.1c-0.2,1.4-0.3,2.7-0.3,4.1v4.3
			v4.1v4.3v4.3c-0.2,1.4-0.2,2.8,0,4.3v4.1c-0.2,1.5-0.2,3,0,4.3c0.2,1.7,0.2,3.1,0,4.3c-0.7,2.7,5.3-1.2,6.9-2c1-1.2,2-2.3,3-3.3
			c1-1.2,7.8-9.5,8.6-10.7c0.8-1.2,1.7-2.4,2.5-3.6c0.8-1.2,1.7-2.4,2.5-3.5c0.8-1.4,1.6-2.6,2.3-3.8c0.8-1.2,1.6-2.4,2.3-3.8
			c0.7-1.2,1.4-2.5,2-3.8c0.7-1.2,1.3-2.4,2-3.6c0.7-1.3,1.4-2.6,2-3.8c0.5-1.4,1.1-2.6,1.8-3.8c0.5-1.2,1-2.5,1.5-3.8
			c0.5-1.2,1-2.4,1.5-3.5c0.5-1.2,1-2.5,1.5-3.8c0.5-1.2,1-2.4,1.5-3.5c0.3-1.2,0.8-2.4,1.3-3.6c0.3-1,0.7-2.1,1-3.3
			c0.5-1.2,0.9-2.3,1.3-3.3c0.3-1.2,0.7-2.3,1-3.3c0.3-1,0.7-2,1-3c0.3-1,0.7-2,1-3.1c0.2-1,0.4-2,0.8-3c0.3-0.8,0.6-1.8,0.8-2.8
			c0.3-0.9,0.6-1.7,0.8-2.6c0.2-0.8,0.4-1.6,0.8-2.3c0.2-0.8,0.3-1.6,0.5-2.3c0.2-0.8,0.4-1.6,0.8-2.3c0.2-0.5,0.3-1.1,0.5-1.8
			c0.2-0.5,0.3-1.1,0.5-1.8c0.2-0.5,0.3-1,0.5-1.5c0.2-0.3,0.3-0.8,0.5-1.3c0-0.3,0.1-0.7,0.3-1c0.2-0.2,0.3-0.4,0.5-0.8
			c0.2-0.2,0.3-0.3,0.3-0.5c0.2-0.2,0.3-0.3,0.5-0.3c0.5-0.2,1.1-0.2,1.8-0.2c0.8-0.2,1.6-0.3,2.3-0.3h2.5h3
			c1.2,0.2,2.3,0.3,3.3,0.5c1.2,0.2,2.4,0.3,3.6,0.5c1.2,0.2,2.5,0.4,3.8,0.8c1.2,0.2,2.4,0.4,3.8,0.8c1.4,0.3,2.7,0.6,4.1,0.8
			c1.4,0.3,2.7,0.7,4.1,1.3c1.3,0.3,2.7,0.7,4.1,1c1.3,0.3,2.7,0.8,4.1,1.3c1.4,0.3,2.7,0.8,4.1,1.3c1.3,0.3,2.6,0.8,3.8,1.3
			c1.3,0.5,2.6,0.9,3.8,1.3c1.2,0.5,2.4,1,3.6,1.5c1.2,0.5,2.4,0.9,3.6,1.3c1,0.5,2,1,3,1.5c0.8,0.3,1.7,0.7,2.5,1.3
			c0.8,0.5,1.7,1,2.5,1.5c0.7,0.3,1.3,0.8,1.8,1.3c0.5,0.3,1,0.8,1.5,1.3c0.3,0.3,0.7,0.7,1,1c0.2,0.3,0.3,0.8,0.3,1.3v0.5v1
			c0,0.3-0.1,0.7-0.3,1c0,0.3-0.1,0.7-0.3,1c0,0.5-0.1,1-0.2,1.5c-0.2,0.5-0.3,1-0.3,1.5c-0.2,0.5-0.3,1-0.5,1.5
			c-0.2,0.7-0.4,1.3-0.8,1.8c-0.2,0.7-0.3,1.4-0.5,2c-0.3,0.7-0.6,1.4-0.8,2c-0.3,0.7-0.7,1.4-1,2c-0.2,0.8-0.4,1.6-0.8,2.3
			c-0.3,0.9-0.7,1.7-1,2.6c-0.3,0.9-0.7,1.7-1,2.5c-0.5,0.8-0.9,1.7-1.3,2.5c-0.3,0.8-0.8,1.8-1.3,2.8c-0.5,0.9-0.9,1.8-1.3,2.8
			c-0.5,0.9-1,1.8-1.5,2.8c-0.5,0.9-1,1.8-1.5,2.8c-0.5,1-1,2-1.5,3.1c-0.5,1-1.1,2-1.8,3c-0.5,1-1.1,2-1.8,3c-0.5,1-1.1,2-1.8,3
			c-0.7,1.2-1.4,2.3-2,3.3c-0.7,1-1.4,2.1-2,3.3c-0.7,1-1.4,2-2,3c-0.7,1.2-1.4,2.3-2.3,3.3c-0.7,1-1.4,2.1-2.3,3.3
			c-0.7,1-1.4,2.1-2.3,3.3c-0.9,1-1.7,2-2.5,3c-0.8,1.2-1.7,2.3-2.5,3.3c-0.8,1.2-1.7,2.3-2.5,3.3c-0.8,1-1.8,2.1-2.8,3.3
			c-0.9,1-1.8,2-2.8,3c-0.8,1-1.8,2-2.8,3c-1,1.2-2,2.3-3.1,3.3c-1,1-2,2-3,3c-1,1-2,2-3,2.8c-1.2,1-2.3,2-3.3,3
			c-1,1-2.1,1.9-3.3,2.8c-1.2,1-2.3,1.9-3.3,2.8c-1.2,1-2.4,1.9-3.5,2.8c-1.4,0.9-2.5,1.7-3.6,2.5c-1.2,1.2-6.5,6.3-4.3,6.6
			c1,0.2,4.8,3.1,5.8,3.8c1,0.7,2,1.4,3,2c1,0.7,2,1.4,3,2.3c1,0.7,2,1.4,3.1,2.3c0.9,0.7,1.8,1.4,2.8,2.3c1,0.9,2,1.7,3,2.5
			c1,0.8,1.9,1.7,2.8,2.5c1,0.9,2,1.8,3.1,2.8c1,0.9,1.9,1.8,2.8,2.8c1,0.9,2,1.8,3.1,2.8c0.8,1,1.8,2,2.8,3
			c0.9,0.9,1.8,1.8,2.8,2.8c0.8,1,1.8,2,2.8,3c0.8,1,1.8,2,2.8,3c0.8,1.2,1.7,2.3,2.5,3.3c1,1,2,2,2.8,3c0.8,1,1.7,2.1,2.5,3.3
			c0.9,1,1.7,2,2.5,3c0.8,1.2,1.7,2.3,2.5,3.3c0.9,1,1.7,2.1,2.5,3.3c0.8,1,1.6,2.1,2.3,3.3c0.8,1,1.7,2,2.5,3
			c0.7,1.2,1.4,2.3,2.3,3.3c0.7,1,1.4,2.1,2.3,3.3c0.7,1,1.4,2,2,3.1c0.9,1,1.6,2,2.3,3c0.7,1.2,1.4,2.3,2,3.3c0.7,1,1.4,2,2,3
			c0.5,1,1.1,2,1.8,3c0.7,0.8,1.3,1.8,1.8,2.8c0.7,1,1.3,1.9,1.8,2.8c0.7,1,1.3,1.9,1.8,2.8c0.5,1,1,1.9,1.5,2.8
			c0.5,0.8,1,1.8,1.5,2.8c0.5,0.9,0.9,1.7,1.3,2.5c0.5,0.7,1,1.4,1.5,2.3c0.3,0.8,0.7,1.6,1,2.3c0.5,0.9,0.9,1.6,1.3,2.3
			c0.3,0.7,0.7,1.4,1,2c0.3,0.7,0.7,1.4,1,2c0.2,0.7,0.4,1.3,0.8,1.8c0.2,0.7,0.4,1.3,0.8,1.8c0.2,0.5,0.3,1,0.5,1.5
			c0.2,0.5,0.3,1,0.5,1.5c0.2,0.4,0.3,0.7,0.3,1c0.2,0.3,0.2,0.8,0.2,1.3c0.2,0.2,0.3,0.4,0.3,0.7v0.8c0,0.5-0.2,0.9-0.5,1.3
			c-0.2,0.5-0.4,1-0.8,1.5c-0.5,0.5-1,1.1-1.5,1.8c-0.5,0.5-1.1,1.1-1.8,1.8c-0.8,0.5-1.6,1.1-2.3,1.8c-0.8,0.7-1.7,1.4-2.5,2.1
			c-1,0.7-2,1.3-3.1,1.8c-1,0.7-2.1,1.4-3.3,2c-1,0.7-2.1,1.4-3.3,2.1c-1.2,0.8-2.4,1.6-3.6,2.3c-1.2,0.7-2.5,1.4-3.8,2
			c-1.2,0.5-2.5,1.1-3.8,1.8c-1.2,0.7-2.5,1.4-3.8,2c-1.2,0.7-2.4,1.3-3.8,1.8c-1.4,0.7-2.6,1.3-3.8,1.8c-1.2,0.5-2.4,1-3.8,1.5
			c-1.2,0.5-2.4,1-3.6,1.5c-1,0.5-2.1,0.9-3.3,1.3c-1,0.5-2,0.9-3.1,1.3c-1,0.3-1.9,0.7-2.8,1c-0.8,0.2-1.7,0.3-2.5,0.5
			c-0.9,0.2-1.6,0.3-2.3,0.5c-0.5,0.2-1.1,0.2-1.8,0.2H494c-0.2,0-0.3-0.1-0.5-0.2c-0.3-0.2-0.6-0.3-0.8-0.5
			c-0.2-0.2-0.3-0.3-0.5-0.5c-0.2-0.3-0.4-0.6-0.7-0.8c-0.2-0.3-0.3-0.7-0.5-1c-0.3-0.5-0.6-0.9-0.8-1.3c-0.3-0.5-0.6-1-0.8-1.5
			c-0.3-0.5-0.6-1-0.8-1.5c-0.3-0.5-0.6-1-0.8-1.5c-0.3-0.7-0.7-1.4-1-2c-0.2-0.7-0.4-1.3-0.8-2c-0.3-0.7-0.7-1.4-1-2
			c-0.3-0.9-0.7-1.6-1-2.3c-0.3-0.8-0.7-1.7-1-2.5c-0.3-0.8-0.7-1.7-1-2.5c-0.3-0.9-0.7-1.7-1-2.5c-0.5-0.9-0.9-1.8-1.3-2.8
			c-0.3-0.8-0.8-1.8-1.3-2.8c-0.3-1-0.8-2-1.3-3c-0.3-1-0.8-2-1.3-3c-0.5-1-1-2-1.5-3c-0.5-1-1-2.1-1.5-3.3c-0.5-1-1-2.1-1.5-3.3
			c-0.5-1-1-2.1-1.5-3.3c-0.5-1-1.1-2.1-1.8-3.3c-0.5-1.2-1.1-2.4-1.8-3.6c-0.5-1-1.1-2.1-1.8-3.3c-0.7-1.2-1.3-2.4-1.8-3.6
			c-0.7-1.2-1.4-2.4-2-3.6c-0.7-1.2-1.4-2.4-2-3.5c-0.8-1.2-1.6-2.4-2.3-3.6c-0.7-1.2-1.4-2.4-2.3-3.6c-0.7-1.2-1.4-2.4-2.3-3.6
			c-0.9-1.2-1.6-2.5-2.3-3.8c-0.8-1.2-1.7-2.4-2.5-3.6c-0.8-1.2-1.8-2.4-2.8-3.6c-0.9-1.2-1.7-2.3-2.5-3.3c-1-1.2-2-2.4-2.8-3.6
			c-1-1.2-2-2.4-3-3.6c-1-1.2-2-2.3-3.1-3.3c-0.8-1.2-1.9-2.4-3-3.6c-1-1-2-2.1-3.1-3.3c-1.2-1.2-2.4-2.2-3.6-3
			c-1.2-1-2.3-2.1-3.3-3.3c-1.2-1.5-2.4-2.6-3.6-3.1c-0.7-0.2-0.7,0.7,0,2.5c0.3,0.9,0.4,1.7,0.2,2.5v2.8c0.2,1,0.3,2.1,0.3,3.3
			c0.2,1,0.3,2,0.3,3c0,1.2,0.1,2.4,0.3,3.6c0,1.2,0.1,2.4,0.3,3.6c0,1.2,0.1,2.4,0.2,3.6c0,1.4,0.1,2.6,0.3,3.8
			c0.2,1.4,0.2,2.7,0.2,4.1c0.2,1.4,0.3,2.6,0.3,3.8c0.2,1.4,0.3,2.7,0.5,4.1c0,1.5,0.3,7,0.5,8.4c0.2,1.4,0.3,2.7,0.3,4.1
			c0.2,1.5,0.2,3,0.2,4.3c0.2,1.4,0.3,2.7,0.5,4.1c0,1.5,0.1,3,0.3,4.3c0,1.4,0.1,2.7,0.3,4.1c0.2,1.4,0.3,2.7,0.3,4.1
			c0.2,1.4,0.3,2.7,0.3,4.1c0.2,1.4,0.2,2.6,0.2,3.8c0.2,1.4,0.3,2.6,0.3,3.8c0.2,1.4,0.2,2.6,0.2,3.8c0,1.2,0.1,2.4,0.3,3.6v3.3
			c0.2,1.2,0.3,2.3,0.3,3.3v3c0.2,1,0.3,2,0.3,3v2.5v2.5v2.3v1.8c0,0.7-0.1,1.3-0.3,1.8v1.3c0,0.3-0.1,0.8-0.3,1.3
			c0,0.2-0.1,0.4-0.3,0.7c0,0.2-0.1,0.3-0.2,0.3c-0.3,0.3-0.7,0.5-1,0.5c-0.5,0.3-1,0.5-1.5,0.5c-0.7,0.2-1.4,0.3-2.3,0.5
			c-0.8,0.2-1.8,0.3-2.8,0.5c-1,0-2,0.1-3.1,0.2c-1.2,0.2-2.4,0.3-3.6,0.3c-1.4,0.2-2.6,0.2-3.8,0.2c-1.5,0.2-3,0.3-4.3,0.3
			c-1.4,0-2.8,0.1-4.3,0.2h-4.6h-4.6h-4.6h-4.6h-4.3h-4.3c-1.4-0.2-2.7-0.2-4.1-0.2c-1.2,0-2.4-0.1-3.6-0.3c-1.2,0-2.4-0.1-3.6-0.2
			c-0.8,0-1.8-0.1-2.8-0.3c-0.8,0-1.7-0.1-2.5-0.2c-0.5-0.2-1.1-0.3-1.8-0.3c-0.5-0.2-0.9-0.3-1.3-0.5c-0.2,0-0.3-0.2-0.5-0.5h-0.2
			v-0.5v-0.5v-0.7c-0.2-0.3-0.3-0.7-0.3-1v-1.3v-1.3c-0.2-0.5-0.3-1-0.3-1.5v-1.5c0-0.7-0.1-1.3-0.3-1.8v-2c0-0.7-0.1-1.4-0.3-2
			v-2.3v-2.3c-0.2-0.8-0.2-1.7-0.2-2.5v-2.8c-0.2-0.8-0.3-1.8-0.3-2.8v-2.8c-0.2-1-0.3-2-0.3-3c0-1.2-0.1-2.3-0.3-3.3v-3.3
			c0-1-0.1-2.1-0.2-3.3V477c0-1.2-0.1-2.4-0.3-3.6v-3.5c-0.2-1.4-0.3-2.6-0.3-3.8v-3.8c-0.2-1.4-0.2-2.7-0.2-4.1
			c0-1.4-0.1-2.6-0.3-3.8v-4.3c0-1.4-0.1-2.7-0.2-4.1v-4.3c-0.2-1.3-0.3-2.7-0.3-4.1v-4.3c-0.2-1.5-0.2-3-0.2-4.6
			c0-1.4-0.1-2.8-0.3-4.3v-4.6c0-1.5-0.1-3-0.3-4.6v-4.6c0-1.5-0.1-3.1-0.2-4.6v-4.6c0-1.5-0.1-3-0.3-4.6v-4.6
			c-0.2-1.5-0.3-3.1-0.3-4.8V383c0-1.5-0.1-3-0.3-4.6v-4.8c0-1.5-0.1-3-0.2-4.6v-4.8v-4.6c-0.2-1.5-0.3-3.1-0.3-4.6v-4.6
			c0-1.5-0.1-3-0.2-4.6v-4.6v-4.6v-4.6c-0.2-1.4-0.3-2.8-0.3-4.3v-4.6V319v-4.1c-0.2-1.5-0.3-3-0.3-4.3v-4.3v-4.1v-3.8v-4.1v-3.8
			v-3.8v-3.8v-3.6v-3.6v-3.3v-3.3c0-1,0.1-2.1,0.3-3.1v-3.1v-3v-2.8c0.2-0.8,0.3-1.8,0.3-2.8v-2.5c0-0.7,0.1-1.4,0.2-2.3v-2.3v-2
			c0.2-0.7,0.3-1.4,0.3-2c0-0.7,0.1-1.3,0.2-1.8v-1.8c0.2-0.5,0.3-1,0.3-1.5c0-0.3,0.1-0.8,0.3-1.3v-1.3c0.2-0.3,0.3-0.7,0.3-1
			c0.2-0.2,0.2-0.4,0.2-0.8c0-0.2,0.1-0.3,0.3-0.5c0-0.2,0.1-0.3,0.3-0.5C344.4,232.4,344.9,231.8,345.6,231.3"/>
	</g>
	<g>
		<path d="M659.4,206.3c1.4,0.4,2.7,0.9,4.1,1.5c1.4,0.6,2.8,1.3,4.1,2.1c1.1,0.6,2.4,1.3,3.8,2.1c1.2,0.6,2.3,1.4,3.4,2.5
			c1.2,0.8,2.2,1.6,3.1,2.4c1.1,0.8,2.2,1.7,3.1,2.7c0.9,1,1.8,2,2.7,3c0.9,1,1.7,2,2.4,3c0.7,1,1.4,2.1,2.1,3.3
			c0.7,1,1.4,2.1,2.1,3.3c0.4,1,0.9,2.1,1.4,3.3c0.7,1.2,1.1,2.5,1.4,3.7c0.5,1.2,0.8,2.4,1,3.7c0.2,1.2,0.5,2.4,0.7,3.6
			c0.2,1.2,0.3,2.5,0.3,3.7s0,2.5,0,4c-0.2,1.2-0.3,2.4-0.3,3.6c-0.2,1.2-0.6,2.5-1,3.7c-0.2,1.4-0.6,2.7-1,4
			c-0.5,1.2-0.9,2.4-1.4,3.6c-0.5,1.2-1,2.3-1.7,3.4c-0.7,1.2-1.4,2.3-2.1,3.3c-0.7,1.2-1.5,2.3-2.4,3.3c-0.7,1-1.5,2-2.4,3
			c-0.9,1-1.8,2-2.7,3c-0.9,0.8-2,1.6-3.1,2.5c-0.9,1-1.9,1.9-3.1,2.7c-1.1,0.8-2.3,1.5-3.4,2.1c-1.1,0.8-2.4,1.5-3.8,2.1
			c-1.1,0.6-2.4,1.2-3.8,1.8c-1.2,0.6-2.4,1.2-3.8,1.8c-1.4,0.4-2.8,0.8-4.1,1.2c-1.4,0.4-2.7,0.8-4.1,1.2c-1.6,0.4-3.1,0.7-4.5,0.9
			c-1.4,0.2-2.8,0.4-4.5,0.6c-1.6,0.2-3.1,0.3-4.5,0.3c-1.6,0.2-3.2,0.3-4.8,0.3c-1.4-0.2-2.9-0.3-4.5-0.3c-1.6-0.2-3.2-0.4-4.8-0.6
			s-3.2-0.5-4.8-0.9c-1.4-0.4-2.7-0.9-4.1-1.5c-1.6-0.4-3-0.9-4.1-1.5c-1.4-0.8-2.7-1.6-4.1-2.5c-1.2-0.6-2.3-1.4-3.4-2.4
			c-1.2-0.8-2.2-1.7-3.1-2.7c-1.2-1-2.2-2-3.1-3c-0.9-1-1.7-2.1-2.4-3.3c-0.9-1.2-1.7-2.4-2.4-3.7c-0.7-1.2-1.4-2.4-2.1-3.6
			c-0.7-1.2-1.3-2.5-1.7-3.7c-0.5-1.4-0.9-2.7-1.4-4c-0.4-1.4-0.8-2.7-1-4c-0.5-1.4-0.7-2.7-0.7-3.9c-0.2-1.4-0.5-2.7-0.7-4
			c0-1.4,0-2.7,0-4c0-1.4,0-2.7,0-4c0.2-1.2,0.4-2.4,0.4-3.7c0.2-1.2,0.6-2.4,1-3.6c0.2-1.2,0.6-2.5,1-3.7c0.5-1.2,1-2.3,1.7-3.3
			c0.5-1.2,1-2.3,1.7-3.3c0.7-1.2,1.4-2.3,2.1-3.4c0.7-1,1.5-2,2.4-3c0.9-1.2,1.8-2.2,2.8-3c0.9-1,1.8-2,2.7-3
			c0.9-0.8,1.9-1.7,3.1-2.7c1.1-0.8,2.3-1.6,3.4-2.5c1.1-0.8,2.3-1.5,3.4-2.1c1.1-0.8,2.4-1.5,3.8-2.1c1.1-0.6,2.4-1.2,3.8-1.8
			c1.2-0.6,2.4-1.1,3.8-1.5c1.4-0.4,2.7-0.8,4.1-1.2c1.4-0.4,2.8-0.8,4.1-1.2c1.4-0.2,2.7-0.4,4.1-0.6c1.6-0.2,3.1-0.3,4.5-0.3
			c1.4-0.2,2.8-0.3,4.1-0.3c1.6,0,3.1,0.1,4.5,0.3c1.4,0.2,2.7,0.4,4.1,0.6c1.4,0.2,2.9,0.5,4.5,0.9
			C656.6,205.2,658,205.7,659.4,206.3z"/>
		<path d="M599.8,336.9c0,0.2-0.1,0.5-0.4,0.9c0,0.4-0.1,0.8-0.4,1.2c-0.2,0.4-0.4,0.9-0.4,1.5c-0.2,0.6-0.5,1.2-0.7,1.8
			c0,0.8-0.1,1.5-0.4,2.1c-0.2,0.8-0.4,1.6-0.4,2.4c-0.2,1-0.5,1.9-0.7,2.7c-0.2,1-0.4,2-0.4,3c-0.2,1.2-0.5,2.3-0.7,3.3
			c-0.2,1.2-0.4,2.4-0.4,3.6c-0.2,1.2-0.5,2.4-0.7,3.6c-0.2,1.2-0.5,2.5-0.7,3.9c0,1.4-0.1,2.8-0.4,4.2c-0.2,1.4-0.5,2.8-0.7,4.2
			c-0.2,1.4-0.4,2.9-0.4,4.5c-0.2,1.4-0.5,2.9-0.7,4.5c-0.2,1.6-0.5,3.2-0.7,4.8c0,1.6-0.1,3.2-0.4,4.8c-0.2,1.8-0.5,3.5-0.7,5.1
			c-0.2,1.6-0.4,3.3-0.4,5.1c-0.2,1.8-0.5,3.5-0.7,5.1c-0.2,1.8-0.4,3.6-0.4,5.4c-0.2,1.8-0.5,3.6-0.7,5.4c-0.2,1.8-0.4,3.6-0.4,5.4
			c-0.2,1.8-0.5,3.6-0.7,5.4c0,1.8-0.1,3.6-0.4,5.4c-0.2,1.8-0.4,3.6-0.4,5.4c-0.2,2-0.5,3.9-0.7,5.7c0,1.8-0.1,3.6-0.4,5.4
			c0,1.8-0.1,3.6-0.4,5.4c-0.2,1.8-0.4,3.6-0.4,5.4c-0.2,1.8-0.4,3.6-0.4,5.4c0,1.8-0.1,3.6-0.4,5.4c0,1.6-0.1,3.3-0.4,5.1
			c0,1.6-0.1,3.3-0.4,5.1c0,1.6,0,3.3,0,5.1c-0.2,1.6-0.4,3.2-0.4,4.8c0,1.6,0,3.2,0,4.8c0,1.4-0.1,2.9-0.4,4.5c0,1.6,0,3.1,0,4.5
			c0,1.4,0,2.8,0,4.2c0,1.4,0,2.8,0,4.2c0,1.2,0,2.5,0,3.9c0,1.2,0,2.4,0,3.6c0,1.2,0.1,2.4,0.4,3.6c0,1,0,2.1,0,3.3
			c0,1,0.1,2,0.4,3c0,0.8,0,1.7,0,2.7c0.2,0.8,0.4,1.6,0.4,2.4c0.2,0.6,0.4,1.3,0.4,2.1c0.2,0.6,0.4,1.2,0.4,1.8
			c0.2,0.6,0.5,1.1,0.7,1.5c0,0.4,0.1,0.8,0.4,1.2c0.2,0.4,0.5,0.7,0.7,0.9c0.2,0.2,0.5,0.4,0.7,0.6c0.7,0.2,1.4,0.4,2.2,0.6
			c1,0.4,1.9,0.7,2.9,0.9c1.2,0.2,2.3,0.4,3.3,0.6c1.4,0.2,2.7,0.4,4,0.6c1.7,0.2,3.3,0.3,4.7,0.3c1.7,0.2,3.4,0.4,5.1,0.6
			c1.7,0,3.4,0.1,5.1,0.3c1.9,0,3.9,0.1,5.8,0.3c1.9,0,3.9,0.1,5.8,0.3c1.9,0,3.8,0,5.8,0c1.9,0,4,0,6.1,0c1.9,0.2,3.8,0.3,5.8,0.3
			c2.2,0,4.2,0,6.1,0c1.9-0.2,3.9-0.3,5.8-0.3s3.9,0,5.8,0c1.7,0,3.5-0.1,5.4-0.3c1.7,0,3.4-0.1,5.1-0.3c1.4,0,3-0.1,4.7-0.3
			c1.4,0,2.9-0.1,4.3-0.3c1.2-0.2,2.4-0.3,3.6-0.3c1-0.2,1.9-0.4,2.9-0.6c1-0.2,1.8-0.4,2.5-0.6c0.5,0,0.7-0.1,0.7-0.3
			c0.5-0.2,0.8-0.4,1.1-0.6c0.2-0.4,0.4-0.8,0.4-1.2c0.2-0.4,0.5-0.9,0.7-1.5c0.2-0.6,0.5-1.2,0.7-1.8c0.2-0.6,0.4-1.2,0.4-1.8
			c0.2-0.8,0.5-1.6,0.7-2.4c0-0.8,0.1-1.7,0.4-2.7c0-1,0.1-1.9,0.4-2.7c0-1.2,0.1-2.3,0.4-3.3c0-1,0.1-2.1,0.4-3.3
			c0-1.2,0-2.4,0-3.6c0.2-1.2,0.4-2.4,0.4-3.6c0-1.4,0.1-2.8,0.4-4.2c0-1.4,0-2.8,0-4.2c0-1.4,0-2.8,0-4.2c0-1.6,0-3.1,0-4.5
			c0-1.6,0.1-3.2,0.4-4.8c0-1.6,0-3.2,0-4.8s-0.1-3.2-0.4-4.8c0-1.8,0-3.5,0-5.1c0-1.8,0-3.5,0-5.1c0-1.8,0-3.6,0-5.4
			c0-1.6-0.1-3.3-0.4-5.1c0-1.8,0-3.6,0-5.4c0-1.8-0.1-3.6-0.4-5.4c0-1.8,0-3.6,0-5.4c-0.2-1.8-0.4-3.6-0.4-5.4s-0.1-3.6-0.4-5.4
			c0-1.8-0.1-3.7-0.4-5.7c0-1.8,0-3.6,0-5.4c-0.2-1.8-0.4-3.6-0.4-5.4c-0.2-1.8-0.4-3.5-0.4-5.1c-0.2-1.8-0.4-3.6-0.4-5.4
			c-0.2-1.8-0.4-3.6-0.4-5.4c-0.2-1.6-0.4-3.3-0.4-5.1c-0.2-1.6-0.4-3.3-0.4-5.1c-0.2-1.6-0.5-3.2-0.7-4.8c0-1.6-0.1-3.2-0.4-4.8
			c0-1.6-0.1-3.2-0.4-4.8c0-1.4-0.1-2.9-0.4-4.5c-0.2-1.4-0.4-2.8-0.4-4.2c-0.2-1.4-0.5-2.8-0.7-4.2c0-1.4-0.1-2.8-0.4-4.2
			c0-1.2-0.1-2.5-0.4-3.9c-0.2-1.2-0.4-2.4-0.4-3.6c-0.2-1-0.5-2.1-0.7-3.3c0-1-0.1-2-0.4-3c0-1-0.1-2-0.4-3c-0.2-1-0.4-1.9-0.4-2.7
			c-0.2-0.8-0.4-1.6-0.4-2.4c-0.2-0.6-0.5-1.3-0.7-2.1c0-0.6-0.1-1.2-0.4-1.8c0-0.4-0.1-0.9-0.4-1.5c0-0.2-0.1-0.5-0.4-0.9
			c-0.2-0.4-0.4-0.7-0.4-0.9l-0.4-0.3c-0.5-0.4-1.1-0.7-1.8-0.9c-1-0.4-1.9-0.7-2.9-0.9c-1.2-0.2-2.4-0.4-3.6-0.6
			c-1.4-0.2-2.9-0.4-4.3-0.6c-1.4-0.2-3-0.4-4.7-0.6c-2-0.2-3.7-0.4-5.4-0.6c-2.2,0-4.2-0.1-6.1-0.3c-1.9,0-3.9-0.1-5.8-0.3
			c-2.2,0-4.3,0-6.5,0c-1.9-0.2-4-0.3-6.1-0.3c-1.9,0-4,0-6.1,0c-1.9,0-3.9,0.1-5.8,0.3c-1.9,0-3.7,0.1-5.4,0.3
			c-1.7,0-3.4,0.1-5.1,0.3c-1.4,0.2-2.9,0.4-4.3,0.6c-1.5,0.2-2.8,0.4-4,0.6c-1,0.2-1.8,0.5-2.5,0.9c-0.7,0.2-1.3,0.5-1.8,0.9
			C600.3,336.6,600,336.7,599.8,336.9z"/>
		<path fill="#FFFFFF" d="M653.1,219.6c1,0.3,2,0.6,3,1c1,0.4,2,0.9,3,1.4c0.8,0.4,1.8,0.9,2.8,1.4c0.8,0.4,1.7,0.9,2.5,1.6
			c0.8,0.5,1.6,1.1,2.3,1.6c0.8,0.5,1.6,1.2,2.3,1.8c0.7,0.7,1.3,1.4,2,2c0.7,0.7,1.2,1.4,1.8,2s1,1.4,1.5,2.2
			c0.5,0.7,1,1.4,1.5,2.2c0.3,0.7,0.7,1.4,1,2.2c0.5,0.8,0.8,1.6,1,2.5c0.3,0.8,0.6,1.6,0.8,2.4c0.2,0.8,0.3,1.6,0.5,2.5
			c0.2,0.8,0.2,1.6,0.2,2.4s0,1.7,0,2.7c-0.2,0.8-0.2,1.6-0.2,2.4c-0.2,0.8-0.4,1.6-0.8,2.5c-0.2,0.9-0.4,1.8-0.8,2.6
			c-0.3,0.8-0.7,1.6-1,2.5c-0.3,0.8-0.8,1.6-1.2,2.2c-0.5,0.8-1,1.6-1.5,2.2c-0.5,0.8-1.1,1.6-1.8,2.2c-0.5,0.7-1.1,1.4-1.8,2
			c-0.7,0.7-1.3,1.4-2,2c-0.7,0.5-1.4,1.1-2.3,1.6c-0.7,0.7-1.4,1.3-2.2,1.8c-0.8,0.5-1.7,1-2.5,1.4c-0.8,0.5-1.8,1-2.8,1.4
			c-0.9,0.4-1.8,0.8-2.8,1.2c-0.8,0.4-1.8,0.8-2.8,1.2c-1,0.3-2,0.5-3,0.8c-1,0.3-2,0.5-3,0.8c-1.2,0.3-2.2,0.5-3.3,0.6
			c-1,0.1-2.1,0.3-3.3,0.4c-1.2,0.1-2.3,0.2-3.3,0.2c-1.2,0.1-2.4,0.2-3.5,0.2c-1-0.1-2.1-0.2-3.3-0.2c-1.2-0.1-2.4-0.3-3.5-0.4
			c-1.2-0.1-2.4-0.3-3.5-0.6c-1-0.3-2-0.6-3-1c-1.2-0.3-2.2-0.6-3-1c-1-0.5-2-1.1-3-1.6c-0.8-0.4-1.7-0.9-2.5-1.6
			c-0.8-0.5-1.6-1.2-2.3-1.8c-0.8-0.7-1.6-1.4-2.2-2c-0.7-0.7-1.3-1.4-1.8-2.2c-0.7-0.8-1.3-1.6-1.8-2.4c-0.5-0.8-1-1.6-1.5-2.5
			c-0.5-0.8-0.9-1.6-1.2-2.4c-0.3-1-0.7-1.8-1-2.7c-0.3-0.9-0.6-1.8-0.7-2.7c-0.3-0.9-0.5-1.8-0.5-2.7c-0.2-0.9-0.3-1.8-0.5-2.6
			c0-1,0-1.8,0-2.7c0-0.9,0-1.8,0-2.7c0.2-0.8,0.3-1.6,0.3-2.4c0.2-0.8,0.4-1.6,0.8-2.5c0.2-0.8,0.4-1.6,0.7-2.4
			c0.3-0.8,0.8-1.6,1.3-2.2c0.3-0.8,0.8-1.6,1.2-2.3c0.5-0.8,1-1.6,1.5-2.2c0.5-0.7,1.1-1.3,1.8-2c0.7-0.8,1.3-1.5,2-2
			c0.7-0.7,1.3-1.4,2-2c0.7-0.5,1.4-1.2,2.2-1.8c0.8-0.5,1.7-1.1,2.5-1.6c0.8-0.5,1.7-1,2.5-1.4c0.8-0.5,1.8-1,2.8-1.4
			c0.8-0.4,1.8-0.8,2.8-1.2c0.8-0.4,1.8-0.7,2.8-1c1-0.3,2-0.5,3-0.8c1-0.3,2-0.5,3-0.8c1-0.1,2-0.3,3-0.4c1.2-0.1,2.2-0.2,3.3-0.2
			c1-0.1,2-0.2,3-0.2c1.2,0,2.3,0.1,3.3,0.2c1,0.1,2,0.3,3,0.4c1,0.1,2.1,0.3,3.3,0.6C651.1,218.9,652.1,219.2,653.1,219.6z"/>
		<path fill="#FFFFFF" d="M611,353.6c0,0.2-0.1,0.4-0.3,0.8c0,0.3-0.1,0.7-0.2,1c-0.2,0.3-0.2,0.8-0.2,1.2c-0.2,0.5-0.3,1-0.5,1.5
			c0,0.7-0.1,1.3-0.2,1.8c-0.2,0.7-0.2,1.3-0.2,2c-0.2,0.9-0.3,1.6-0.5,2.3c-0.2,0.8-0.2,1.7-0.2,2.5c-0.2,1-0.3,1.9-0.5,2.8
			c-0.2,1-0.2,2-0.2,3c-0.2,1-0.3,2-0.5,3c-0.2,1-0.3,2.1-0.5,3.3c0,1.2-0.1,2.3-0.3,3.5c-0.2,1.2-0.3,2.3-0.5,3.5
			c-0.2,1.2-0.2,2.4-0.2,3.8c-0.2,1.2-0.3,2.4-0.5,3.8c-0.2,1.3-0.3,2.7-0.5,4c0,1.3-0.1,2.7-0.2,4c-0.2,1.5-0.3,2.9-0.5,4.3
			c-0.2,1.3-0.2,2.8-0.2,4.3c-0.2,1.5-0.3,2.9-0.5,4.3c-0.2,1.5-0.3,3-0.3,4.5c-0.2,1.5-0.3,3-0.5,4.5c-0.2,1.5-0.3,3-0.3,4.5
			c-0.2,1.5-0.3,3-0.5,4.5c0,1.5-0.1,3-0.2,4.5c-0.2,1.5-0.3,3-0.3,4.5c-0.2,1.7-0.3,3.3-0.5,4.8c0,1.5-0.1,3-0.3,4.5
			c0,1.5-0.1,3-0.2,4.5c-0.2,1.5-0.2,3-0.2,4.5c-0.2,1.5-0.2,3-0.2,4.5c0,1.5-0.1,3-0.3,4.5c0,1.3-0.1,2.8-0.2,4.3
			c0,1.3-0.1,2.8-0.2,4.3c0,1.3,0,2.8,0,4.3c-0.2,1.3-0.3,2.7-0.3,4c0,1.3,0,2.7,0,4c0,1.2-0.1,2.4-0.2,3.8c0,1.3,0,2.6,0,3.8
			c0,1.2,0,2.3,0,3.5c0,1.2,0,2.3,0,3.5c0,1,0,2.1,0,3.3c0,1,0,2,0,3c0,1,0.1,2,0.2,3c0,0.8,0,1.8,0,2.8c0,0.8,0.1,1.7,0.3,2.5
			c0,0.7,0,1.4,0,2.3c0.2,0.7,0.2,1.3,0.2,2c0.2,0.5,0.2,1.1,0.2,1.8c0.2,0.5,0.3,1,0.3,1.5c0.2,0.5,0.3,0.9,0.5,1.2
			c0,0.3,0.1,0.7,0.2,1c0.2,0.3,0.3,0.6,0.5,0.8c0.2,0.2,0.3,0.3,0.5,0.5c0.5,0.2,1,0.3,1.4,0.5c0.7,0.3,1.3,0.6,2,0.8
			c0.8,0.2,1.5,0.3,2.2,0.5c1,0.2,1.9,0.3,2.7,0.5c1.1,0.2,2.2,0.3,3.2,0.3c1.1,0.2,2.3,0.3,3.4,0.5c1.1,0,2.3,0.1,3.4,0.3
			c1.3,0,2.6,0.1,3.9,0.2c1.3,0,2.6,0.1,3.9,0.2c1.3,0,2.6,0,3.9,0s2.7,0,4.1,0c1.3,0.2,2.6,0.2,3.9,0.2c1.4,0,2.8,0,4.1,0
			c1.3-0.2,2.6-0.2,3.9-0.2c1.3,0,2.6,0,3.9,0c1.1,0,2.3-0.1,3.6-0.2c1.1,0,2.3-0.1,3.4-0.2c1,0,2-0.1,3.2-0.3c1,0,1.9-0.1,2.9-0.2
			c0.8-0.2,1.6-0.2,2.4-0.2c0.7-0.2,1.3-0.3,1.9-0.5c0.7-0.2,1.2-0.3,1.7-0.5c0.3,0,0.5-0.1,0.5-0.3c0.3-0.2,0.6-0.3,0.7-0.5
			c0.2-0.3,0.2-0.7,0.2-1c0.2-0.3,0.3-0.8,0.5-1.3c0.2-0.5,0.3-1,0.5-1.5c0.2-0.5,0.3-1,0.3-1.5c0.2-0.7,0.3-1.3,0.5-2
			c0-0.7,0.1-1.4,0.2-2.2c0-0.8,0.1-1.6,0.3-2.3c0-1,0.1-1.9,0.2-2.8c0-0.8,0.1-1.8,0.2-2.8c0-1,0-2,0-3c0.2-1,0.3-2,0.3-3
			c0-1.2,0.1-2.3,0.2-3.5c0-1.2,0-2.3,0-3.5s0-2.3,0-3.5c0-1.3,0-2.6,0-3.8c0-1.3,0.1-2.7,0.2-4c0-1.3,0-2.7,0-4
			c0-1.3-0.1-2.7-0.2-4c0-1.5,0-2.9,0-4.3c0-1.5,0-2.9,0-4.3c0-1.5,0-3,0-4.5c0-1.3-0.1-2.8-0.2-4.3c0-1.5,0-3,0-4.5
			c0-1.5-0.1-3-0.3-4.5c0-1.5,0-3,0-4.5c-0.2-1.5-0.2-3-0.2-4.5s-0.1-3-0.2-4.5c0-1.5-0.1-3.1-0.3-4.8c0-1.5,0-3,0-4.5
			c-0.2-1.5-0.2-3-0.2-4.5c-0.2-1.5-0.2-2.9-0.2-4.3c-0.2-1.5-0.2-3-0.2-4.5c-0.2-1.5-0.3-3-0.3-4.5c-0.2-1.3-0.2-2.8-0.2-4.3
			c-0.2-1.3-0.2-2.8-0.2-4.3c-0.2-1.3-0.3-2.7-0.5-4c0-1.3-0.1-2.7-0.2-4c0-1.3-0.1-2.7-0.2-4c0-1.2-0.1-2.4-0.3-3.8
			c-0.2-1.2-0.2-2.3-0.2-3.5c-0.2-1.2-0.3-2.3-0.5-3.5c0-1.2-0.1-2.3-0.2-3.5c0-1-0.1-2.1-0.2-3.3c-0.2-1-0.2-2-0.2-3
			c-0.2-0.8-0.3-1.8-0.5-2.8c0-0.8-0.1-1.7-0.2-2.5c0-0.8-0.1-1.7-0.3-2.5c-0.2-0.8-0.2-1.6-0.2-2.3c-0.2-0.7-0.2-1.3-0.2-2
			c-0.2-0.5-0.3-1.1-0.5-1.8c0-0.5-0.1-1-0.2-1.5c0-0.3-0.1-0.8-0.2-1.2c0-0.2-0.1-0.4-0.3-0.8c-0.2-0.3-0.2-0.6-0.2-0.8l-0.2-0.2
			c-0.3-0.3-0.7-0.6-1.2-0.8c-0.6-0.3-1.3-0.6-1.9-0.8c-0.8-0.2-1.6-0.3-2.4-0.5c-1-0.2-1.9-0.3-2.9-0.5c-1-0.2-2-0.3-3.2-0.5
			c-1.3-0.2-2.5-0.3-3.6-0.5c-1.5,0-2.8-0.1-4.1-0.2c-1.3,0-2.6-0.1-3.9-0.2c-1.5,0-2.9,0-4.4,0c-1.3-0.2-2.7-0.2-4.1-0.2
			c-1.3,0-2.7,0-4.1,0c-1.3,0-2.6,0.1-3.9,0.2c-1.3,0-2.5,0.1-3.7,0.2c-1.1,0-2.3,0.1-3.4,0.2c-1,0.2-1.9,0.3-2.9,0.5
			c-1,0.2-1.9,0.3-2.7,0.5c-0.7,0.2-1.2,0.4-1.7,0.7c-0.5,0.2-0.9,0.4-1.2,0.8C611.3,353.3,611.1,353.5,611,353.6z"/>
	</g>
</g>
</svg>
