<?xml version="1.0" encoding="utf-8"?>
<!-- Generator: Adobe Illustrator 18.0.0, SVG Export Plug-In . SVG Version: 6.00 Build 0)  -->
<!DOCTYPE svg PUBLIC "-//W3C//DTD SVG 1.1//EN" "http://www.w3.org/Graphics/SVG/1.1/DTD/svg11.dtd">
<svg version="1.1" id="Camada_1" xmlns="http://www.w3.org/2000/svg" xmlns:xlink="http://www.w3.org/1999/xlink" x="0px" y="0px"
	 viewBox="0 0 1024 768" enable-background="new 0 0 1024 768" xml:space="preserve">
<g>
	<defs>
		<circle id="SVGID_1_" cx="511.9" cy="383.4" r="375.7"/>
	</defs>
	<clipPath id="SVGID_2_">
		<use xlink:href="#SVGID_1_"  overflow="visible"/>
	</clipPath>
	<g clip-path="url(#SVGID_2_)" enable-background="new    ">
		
			<image overflow="visible" width="2474" height="2474" xlink:href="../../banco de imagens/botões/butt 25.png"  transform="matrix(0.3065 0 0 0.3065 132.8006 4.7999)">
		</image>
	</g>
</g>
<g>
	<g>
		<path d="M351.5,202.1c24.4,2.5,39.3,6.1,45.2,9.9c5.8,3.8,8.9,13.2,8.9,18.9c0.1,2.5,2.5,199.8,6.9,201c4.4,1.2,68.2-13,97.4-18.9
			c29.3-6,11.6,77.7,11.4,79.2c-0.2,1.7-11,44.4-14.5,47.9c-3.6,3.5-43.7,4.3-45.1,4.5c-1.5,0-3,0-4.3,0c-1.5,0.2-3,0.3-4.3,0.3
			c-1.5,0-3.1,0-4.6,0c-1.7,0.2-3.3,0.3-4.9,0.3c-1.5,0-3.2,0-4.9,0c-1.5,0-3.2,0.1-4.9,0.3c-1.7,0-3.3,0-4.9,0c-1.7,0-3.5,0-5.2,0
			c-1.7,0-3.5,0.1-5.2,0.3c-1.7,0-3.5,0-5.2,0s-3.5,0-5.2,0c-1.7,0-3.6,0-5.5,0c-1.7,0.2-3.5,0.3-5.2,0.3c-1.7,0-3.4,0-5.2,0
			c-1.9,0-3.8,0-5.5,0c-1.7,0-3.5,0-5.2,0c-1.7,0-3.5,0-5.2,0s-3.5,0-5.2,0c-1.7,0-3.5,0-5.2,0c-1.5,0-3.2,0-4.9,0
			c-1.7,0-3.4,0-4.9,0c-1.7,0-3.3,0-4.9,0c-1.5,0-3.2,0-4.9,0c-1.5,0-3.1,0-4.6,0c-1.3-0.2-2.8-0.3-4.3-0.3c-1.4,0-2.8,0-4.3,0
			c-1.3,0-2.7,0-4,0c-1.4,0-2.7-0.1-4.1-0.3c-1.3,0-2.6,0-3.7,0c-1.1,0-2.3,0-3.5,0c-1.1-0.2-2.3-0.3-3.5-0.3c-1.1,0-2.2,0-3.2,0
			c-1-0.2-1.9-0.3-2.9-0.3c-0.8,0-1.6,0-2.6,0c-0.8-0.2-1.5-0.3-2.3-0.3c-0.8,0-1.5-0.1-2-0.3c-0.8,0-1.4,0-2,0
			c-0.4-0.2-0.9-0.3-1.5-0.3c-0.4,0-0.8-0.1-1.1-0.3c-0.2,0-0.5-0.1-0.9-0.3c-0.2,0-0.3-0.1-0.3-0.3c-0.2,0-0.3-0.1-0.3-0.3
			l-0.3-0.3c0-0.2,0-0.5,0-0.9c0-0.2-0.1-0.5-0.3-0.9c0-0.4,0-0.8,0-1.2c-0.2-0.4-0.3-0.8-0.3-1.1c0-0.6,0-1.1,0-1.5
			c0-0.6-0.1-1.1-0.3-1.7c0-0.6,0-1.2,0-2c0-0.6-0.1-1.3-0.3-2c0-0.8,0-1.4,0-2c0-0.8,0-1.6,0-2.6c0-0.8-0.1-1.5-0.3-2.3
			c0-1,0-1.9,0-2.9c0-1,0-1.9,0-2.9c0-1-0.1-1.9-0.3-2.9c0-1.2,0-2.2,0-3.2c0-1.2,0-2.3,0-3.5c0-1.1,0-2.3,0-3.4c0-1.2,0-2.3,0-3.5
			c-0.2-1.2-0.3-2.4-0.3-3.7c0-1.2,0-2.4,0-3.8c0-1.3,0-2.7,0-4c0-1.3,0-2.7,0-4c0-1.3,0-2.7,0-4s0-2.8,0-4.3c0-1.3,0-2.8,0-4.3
			c0-1.3,0-2.8,0-4.3c0-1.5,0-3,0-4.6c0-1.5,0-3.1,0-4.6c0-1.5,0-3,0-4.6s0-3.2,0-4.9c0-1.5,0-3,0-4.6c0-1.7,0-3.3,0-4.9
			c0-1.7,0-3.5,0-5.2c0-1.5,0-3.2,0-4.9c0-1.7,0-3.4,0-5.2c0-1.5,0-3.2,0-4.9c0.2-1.7,0.3-3.5,0.3-5.2c0-1.7,0-3.5,0-5.2
			c0-1.7,0-3.5,0-5.2c0-1.7,0-3.6,0-5.5c0-1.7,0-3.5,0-5.2c0.2-1.7,0.3-3.5,0.3-5.2c0-1.7,0-3.5,0-5.5c0-1.7,0-3.4,0-5.2
			c0-1.7,0.1-3.5,0.3-5.2c0-1.9,0-3.7,0-5.5c0-1.7,0-3.5,0-5.2c0-1.7,0.1-3.6,0.3-5.5c0-1.7,0-3.5,0-5.2c0-1.7,0-3.5,0-5.2
			c0-1.7,0.1-3.5,0.3-5.2c0-1.7,0-3.5,0-5.2c0-1.7,0-3.4,0-5.2c0.2-1.7,0.3-3.5,0.3-5.2c0-1.7,0-3.4,0-5.2c0.2-1.7,0.3-3.4,0.3-4.9
			c0-1.7,0-3.5,0-5.2c0-1.5,0.1-3.2,0.3-4.9c0-1.5,0-3.2,0-4.9c0-1.5,0.1-3.1,0.3-4.6c0-1.5,0-3.2,0-4.9c0-1.5,0.1-3.1,0.3-4.6
			c0-1.5,0-3.1,0-4.6c0-1.3,0.1-2.8,0.3-4.3c0-1.5,0-3,0-4.3c0.2-1.5,0.3-3,0.3-4.3c0-1.3,0-2.8,0-4.3c0.2-1.3,0.3-2.7,0.3-4
			c0-1.3,0.1-2.7,0.3-4c0-1.1,0-2.4,0-3.7c0.2-1.3,0.3-2.6,0.3-3.7c0-1.2,0-2.4,0-3.7c0.2-1.2,0.3-2.3,0.3-3.5
			c0-1.2,0.1-2.2,0.3-3.2c0-1.1,0-2.3,0-3.5c0.2-1,0.3-1.9,0.3-2.9c0-1,1.8-22.9,5.6-28.8C307.8,199,327.1,199.6,351.5,202.1z"/>
		<path fill="#FFFFFF" d="M320.1,230.2c0.6-0.3,1.2-0.6,1.7-0.7c0.8-0.2,1.5-0.3,2.1-0.5c0.9-0.2,1.8-0.3,2.6-0.5
			c1.1,0,2.1-0.1,3.1-0.3c1.1,0,2.2,0,3.3,0c1.1-0.2,2.3-0.2,3.6-0.2c1.3,0,2.5,0.1,3.8,0.2c1.3,0,2.5,0,3.8,0
			c1.4,0.2,2.8,0.3,4,0.3c1.4,0.2,2.8,0.3,4,0.5c1.4,0,2.8,0.1,4,0.3c1.4,0.2,2.8,0.3,4,0.5c1.3,0.2,2.5,0.3,3.8,0.5
			c1.1,0.2,2.2,0.3,3.3,0.5c1.1,0.2,2.2,0.4,3.3,0.8c1,0.2,2,0.3,3.1,0.5c0.8,0.2,1.6,0.4,2.4,0.7c0.8,0.2,1.5,0.3,2.1,0.5
			c0.5,0.2,1,0.4,1.7,0.7c0.3,0.2,0.6,0.3,1,0.5c0.2,0.2,0.2,0.3,0.2,0.5c0.2,0.2,0.3,0.3,0.5,0.5c0.2,0.3,0.3,0.6,0.5,0.8
			c0,0.3,0.1,0.7,0.2,1c0.2,0.3,0.2,0.7,0.2,1c0.2,0.3,0.3,0.8,0.5,1.3c0.2,0.3,0.3,0.7,0.3,1.2c0.2,0.5,0.2,1,0.2,1.5
			c0.2,0.5,0.3,1,0.5,1.5c0,0.5,0.1,1.1,0.2,1.8c0,0.5,0.1,1.1,0.2,1.8c0,0.7,0.1,1.3,0.2,2c0,0.7,0.1,1.3,0.2,2
			c0,0.7,0.1,1.4,0.3,2.3c0,0.7,0.1,1.4,0.2,2.2c0,0.8,0.1,1.7,0.2,2.5c0,0.8,0.1,1.7,0.2,2.5c0,0.8,0,1.7,0,2.5
			c0.2,0.8,0.2,1.7,0.2,2.7c0,0.8,0.1,1.8,0.2,2.7c0,1,0,1.9,0,2.8c0.2,1,0.3,2,0.3,3s0.1,2.1,0.2,3.2c0,1,0,2,0,3
			c0.2,1,0.2,2.1,0.2,3.2c0,1,0,2.1,0,3.2c0.2,1.2,0.2,2.2,0.2,3.2c0,1.2,0,2.3,0,3.5c0,1.2,0.1,2.3,0.2,3.5c0,1.2,0,2.3,0,3.5
			c0,1.2,0,2.4,0,3.8c0.2,1.2,0.2,2.3,0.2,3.5c0,1.3,0,2.6,0,3.7c0,1.3,0,2.6,0,3.8c0.2,1.3,0.2,2.6,0.2,3.8c0,1.3,0,2.7,0,4
			c0,1.2,0,2.4,0,3.8c0,1.3,0,2.7,0,4c0.2,1.3,0.3,2.6,0.3,3.8c0,1.3,0,2.7,0,4s0,2.7,0,4c0,1.3,0,2.7,0,4s0.1,2.7,0.2,4
			c0,1.3,0,2.8,0,4.3c0,1.3,0,2.7,0,4c0,1.3,0,2.7,0,4s0,2.7,0,4c0,1.3,0.1,2.7,0.2,4c0,1.5,0,2.9,0,4.2c0,1.3,0,2.7,0,4
			c0,1.3,0,2.7,0,4c0,1.3,0,2.7,0,4c0,1.3,0.1,2.7,0.2,4c0,1.3,0,2.7,0,4s0,2.7,0,4c0,1.3,0,2.7,0,4c0,1.3,0,2.6,0,3.8
			c0.2,1.3,0.2,2.7,0.2,4c0,1.3,0,2.6,0,3.8c0,1.3,0,2.6,0,3.7c0.2,1.3,0.2,2.7,0.2,4c0,1.2,0,2.3,0,3.5c0,1.3,0,2.6,0,3.7
			c0.2,1.2,0.3,2.3,0.3,3.5c0,1.3,0,2.6,0,3.7c0,1.2,0.1,2.3,0.2,3.5c0,1.2,0,2.3,0,3.3c0,1.2,0.1,2.3,0.3,3.5c0,1.2,0,2.3,0,3.2
			c0,1.2,0.1,2.2,0.2,3.3c0,0.2,0.3,0.3,1,0.3c0.5-0.2,0.9-0.2,1.4,0c0.6,0,1.2,0,1.7,0c0.8-0.2,1.5-0.3,2.2-0.3
			c0.8,0,1.6-0.1,2.4-0.3c0.8-0.2,1.6-0.3,2.4-0.3c0.9-0.2,1.9-0.3,2.8-0.5c0.9-0.2,2-0.3,3.1-0.5c1.1-0.2,2.2-0.3,3.1-0.5
			c1.1-0.2,2.3-0.3,3.6-0.5c1.1-0.2,2.3-0.4,3.6-0.8c1.1-0.2,2.3-0.3,3.6-0.5c1.3-0.3,2.5-0.6,3.8-0.7c1.3-0.2,2.5-0.4,3.8-0.8
			c1.3-0.2,2.6-0.4,4.1-0.8c1.3-0.2,2.5-0.4,3.8-0.7c1.4-0.2,2.8-0.4,4.1-0.8c1.4-0.2,2.8-0.4,4-0.8c1.3-0.2,2.6-0.4,4-0.7
			c1.3-0.2,2.5-0.4,3.8-0.8c1.4-0.2,2.8-0.4,4-0.8c1.3-0.2,2.5-0.3,3.8-0.5c1.3-0.3,2.5-0.6,3.6-0.8c1.3-0.2,2.5-0.3,3.6-0.5
			c1.3-0.3,2.5-0.6,3.6-0.8c1.1-0.2,2.2-0.3,3.3-0.5c1-0.2,2-0.3,3.1-0.5c1,0,1.9-0.1,2.9-0.3c0.8-0.2,1.7-0.3,2.6-0.3
			c0.8-0.2,1.6-0.3,2.4-0.3c0.6,0,1.4-0.1,2.2-0.3c0.5,0,1,0,1.7,0c0.5,0,1,0.1,1.4,0.3c0.5,0,0.9,0,1.2,0c0.3,0.2,0.6,0.3,1,0.3
			c0.2,0.3,0.4,0.6,0.7,0.7c0.2,0.5,0.3,1,0.5,1.5c0.1,0.5,0.3,1,0.5,1.5c0,0.8,0.1,1.6,0.2,2.2c0,0.8,0,1.8,0,2.8
			c0.2,0.8,0.2,1.7,0.2,2.8c-0.2,1.2-0.2,2.2-0.2,3.3c0,1.2-0.1,2.3-0.2,3.5c0,1.3-0.1,2.6-0.2,3.7c-0.2,1.3-0.2,2.7-0.2,4
			c-0.2,1.3-0.3,2.7-0.5,4c-0.2,1.5-0.3,2.9-0.5,4.2c-0.3,1.5-0.5,2.9-0.7,4.2c-0.2,1.5-0.4,2.9-0.7,4.2c-0.2,1.5-0.3,2.9-0.5,4.2
			c-0.3,1.3-0.6,2.8-1,4.3c-0.2,1.3-0.4,2.7-0.7,4c-0.2,1.3-0.4,2.7-0.7,4c-0.2,1.2-0.4,2.4-0.7,3.8c-0.3,1.2-0.6,2.3-0.7,3.5
			c-0.3,1-0.7,2.1-1,3.3c-0.2,1-0.4,2-0.7,3c-0.2,0.8-0.4,1.7-0.7,2.5c-0.2,0.7-0.4,1.4-0.7,2.2c-0.2,0.5-0.4,1.1-0.7,1.8
			c-0.2,0.3-0.3,0.7-0.5,1.2c-0.2,0.2-0.4,0.4-0.7,0.8h-0.2c-0.3,0.2-0.6,0.2-0.7,0.2c-0.3,0.2-0.6,0.3-1,0.3
			c-0.5,0.2-0.9,0.3-1.2,0.3c-0.5,0-1,0.1-1.7,0.3c-0.5,0-1,0.1-1.7,0.3c-0.6,0-1.3,0-1.9,0c-0.8,0.2-1.5,0.3-2.2,0.3
			c-0.8,0.2-1.6,0.3-2.4,0.3c-0.8,0-1.7,0.1-2.6,0.3c-0.9,0-1.9,0-2.8,0c-1,0.2-1.9,0.3-2.8,0.3c-1,0-2,0.1-3.1,0.3
			c-1.1,0-2.2,0-3.3,0c-1.1,0-2.2,0.1-3.3,0.2c-1.3,0-2.5,0-3.6,0c-1.3,0.2-2.5,0.3-3.6,0.3c-1.3,0-2.5,0-3.8,0
			c-1.4,0.2-2.8,0.3-4,0.3c-1.3,0-2.6,0-4,0c-1.3,0-2.6,0.1-4,0.3c-1.4,0-2.8,0-4.1,0c-1.4,0-2.8,0-4.3,0s-2.8,0.1-4.3,0.3
			c-1.4,0-2.9,0-4.3,0c-1.4,0-2.8,0-4.3,0c-1.4,0-2.9,0-4.5,0c-1.4,0.2-2.8,0.3-4.3,0.3c-1.4,0-2.9,0-4.3,0c-1.6,0-3.1,0-4.5,0
			c-1.4,0-2.8,0-4.3,0c-1.4,0-2.9,0-4.3,0c-1.4,0-2.9,0-4.3,0c-1.4,0-2.8,0-4.3,0c-1.3,0-2.6,0-4,0c-1.4,0-2.8,0-4,0
			c-1.4,0-2.8,0-4,0c-1.3,0-2.6,0-4,0c-1.3,0-2.5,0-3.8,0c-1.1-0.2-2.3-0.3-3.6-0.3c-1.1,0-2.3,0-3.6,0c-1.1,0-2.2,0-3.3,0
			c-1.1,0-2.2-0.1-3.3-0.3c-1.1,0-2.1,0-3.1,0c-1,0-1.9,0-2.9,0c-1-0.2-1.9-0.3-2.8-0.3c-0.9,0-1.8,0-2.6,0
			c-0.8-0.2-1.6-0.3-2.4-0.3c-0.6,0-1.3,0-2.1,0c-0.6-0.2-1.3-0.3-1.9-0.3s-1.2-0.1-1.7-0.2c-0.6,0-1.2,0-1.7,0
			c-0.3-0.2-0.7-0.3-1.2-0.3c-0.3,0-0.7-0.1-1-0.3c-0.2,0-0.4-0.1-0.7-0.3c-0.2,0-0.2-0.1-0.2-0.3c-0.2,0-0.3-0.1-0.3-0.3l-0.2-0.3
			c0-0.2,0-0.4,0-0.8c0-0.2-0.1-0.4-0.2-0.7c0-0.3,0-0.7,0-1c-0.2-0.3-0.2-0.7-0.2-1c0-0.5,0-0.9,0-1.3c0-0.5-0.1-1-0.2-1.5
			c0-0.5,0-1.1,0-1.8c0-0.5-0.1-1.1-0.2-1.7c0-0.7,0-1.3,0-1.8c0-0.7,0-1.4,0-2.2c0-0.7-0.1-1.3-0.2-2c0-0.8,0-1.7,0-2.5
			c0-0.8,0-1.7,0-2.5c0-0.8-0.1-1.7-0.2-2.5c0-1,0-1.9,0-2.8c0-1,0-2,0-3s0-2,0-3c0-1,0-2,0-3c-0.2-1-0.2-2.1-0.2-3.2
			c0-1,0-2.1,0-3.3c0-1.2,0-2.3,0-3.5c0-1.2,0-2.3,0-3.5c0-1.2,0-2.3,0-3.5c0-1.2,0-2.4,0-3.8c0-1.2,0-2.4,0-3.7c0-1.2,0-2.4,0-3.7
			c0-1.3,0-2.7,0-4c0-1.3,0-2.7,0-4s0-2.7,0-4c0-1.3,0-2.8,0-4.2c0-1.3,0-2.7,0-4c0-1.5,0-2.9,0-4.2c0-1.5,0-3,0-4.5
			c0-1.3,0-2.8,0-4.2c0-1.5,0-3,0-4.5c0-1.3,0-2.8,0-4.2c0.2-1.5,0.2-3,0.2-4.5c0-1.5,0-3,0-4.5c0-1.5,0-3,0-4.5c0-1.5,0-3.1,0-4.8
			c0-1.5,0-3,0-4.5c0.2-1.5,0.2-3,0.2-4.5c0-1.5,0-3.1,0-4.8c0-1.5,0-3,0-4.5c0-1.5,0.1-3,0.2-4.5c0-1.7,0-3.2,0-4.8
			c0-1.5,0-3,0-4.5c0-1.5,0.1-3.1,0.2-4.8c0-1.5,0-3,0-4.5c0-1.5,0-3,0-4.5c0-1.5,0.1-3,0.2-4.5c0-1.5,0-3,0-4.5c0-1.5,0-3,0-4.5
			c0.2-1.5,0.2-3,0.2-4.5c0-1.5,0-3,0-4.5c0.2-1.5,0.2-2.9,0.2-4.2c0-1.5,0-3,0-4.5c0-1.3,0.1-2.7,0.2-4.2c0-1.3,0-2.8,0-4.3
			c0-1.3,0.1-2.7,0.3-4c0-1.3,0-2.8,0-4.2c0-1.3,0.1-2.7,0.2-4c0-1.3,0-2.7,0-4c0-1.2,0.1-2.4,0.2-3.8c0-1.3,0-2.6,0-3.7
			c0.2-1.3,0.2-2.6,0.2-3.8c0-1.2,0-2.4,0-3.7c0.2-1.2,0.2-2.3,0.2-3.5c0-1.2,0.1-2.3,0.2-3.5c0-1,0-2.1,0-3.3
			c0.2-1.2,0.2-2.3,0.2-3.2c0-1,0-2.1,0-3.2c0.2-1,0.2-2,0.2-3c0-1,0.1-1.9,0.2-2.7c0-1,0-2,0-3c0.2-0.8,0.2-1.7,0.2-2.5
			c0-0.8,0.1-1.7,0.2-2.5c0-0.8,0-1.7,0-2.5c0.2-0.7,0.2-1.4,0.2-2.2c0-0.7,0.1-1.4,0.2-2.3c0-0.5,0-1.1,0-1.8
			c0.2-0.7,0.2-1.3,0.2-2c0-0.5,0.1-1.1,0.2-1.8c0-0.5,0.1-1,0.2-1.5c0-0.3,0-0.7,0-1.2c0.2-0.3,0.2-0.8,0.2-1.3
			c0-0.3,0.1-0.7,0.2-1c0-0.3,0-0.6,0-0.8c0.2-0.3,0.2-0.6,0.2-0.7c0.2-0.2,0.2-0.3,0.2-0.5c0-0.2,0.1-0.3,0.2-0.3
			C319.5,230.7,319.8,230.4,320.1,230.2z"/>
	</g>
	<g>
		<g>
			<g>
				<path d="M712.6,478.6c-0.2,1-0.4,2.1-0.6,3.3c-0.2,1-0.5,2-0.9,3c-0.4,1.2-0.8,2.3-1.2,3.3c-0.6,1.2-1.1,2.3-1.5,3.3
					c-0.6,1-1.2,2-1.8,3c-0.6,1.2-1.2,2.3-1.8,3.3c-0.8,1-1.6,2-2.4,3c-0.6,1-1.3,2.1-2.1,3.3c-0.8,1-1.7,2-2.7,3
					c-0.8,1-1.7,1.9-2.7,2.7c-1,1-1.9,2-2.7,3c-1,1-2.1,1.9-3.3,2.7c-1,1-2,1.9-3,2.7c-1.2,1-2.3,1.9-3.3,2.7
					c-1.2,0.8-2.4,1.6-3.6,2.4c-1.2,1-2.4,1.8-3.6,2.4c-1.2,0.8-2.4,1.6-3.5,2.4c-1.2,0.8-2.4,1.5-3.6,2.1c-1.4,0.8-2.7,1.5-3.9,2.1
					c-1.4,0.8-2.7,1.5-3.8,2.1c-1.4,0.6-2.7,1.2-3.9,1.8c-1.4,0.4-2.8,0.9-4.2,1.5c-1.4,0.6-2.7,1.1-3.8,1.5
					c-1.4,0.4-2.8,0.8-4.2,1.2c-1.4,0.4-2.8,0.8-4.2,1.2s-2.7,0.7-3.9,0.9c-1.4,0.4-2.8,0.7-4.2,0.9c-1.4,0.2-2.8,0.4-4.2,0.6
					c-1.4,0.2-2.7,0.3-3.9,0.3c-1.8,0.2-3.6,0.3-5.3,0.3c-1.6,0-3.2,0.1-4.8,0.3c-1.8,0-3.5,0-5,0c-1.6,0-3.2-0.1-4.8-0.3
					c-1.6,0-3.2,0-4.8,0c-1.6-0.2-3.1-0.3-4.4-0.3c-1.6-0.2-3.2-0.4-4.8-0.6c-1.4-0.2-2.8-0.4-4.2-0.6c-1.6-0.2-3.1-0.4-4.5-0.6
					c-1.4-0.2-2.8-0.5-4.2-0.9c-1.4-0.2-2.8-0.5-4.2-0.9c-1.4-0.2-2.7-0.5-3.9-0.9c-1.4-0.4-2.7-0.8-3.9-1.2
					c-1.4-0.4-2.7-0.8-3.9-1.2c-1.2-0.4-2.5-0.9-3.9-1.5c-1.2-0.4-2.4-0.9-3.5-1.5c-1-0.4-2.1-0.9-3.3-1.5c-1.2-0.6-2.4-1.1-3.6-1.5
					c-1-0.6-2.1-1.2-3.3-1.8c-1-0.8-2-1.5-3-2.1c-1.2-0.6-2.3-1.3-3.3-2.1c-1-0.6-2-1.3-3-2.1c-0.8-0.6-1.7-1.3-2.7-2.1
					c-1-0.8-1.9-1.6-2.7-2.4c-1-0.8-1.9-1.6-2.7-2.4c-1-0.8-1.9-1.6-2.7-2.4c-0.8-1-1.6-1.9-2.4-2.7c-0.8-1-1.6-1.9-2.4-2.7
					c-0.8-1-1.6-2-2.4-3c-0.6-0.8-1.3-1.7-2.1-2.7c-0.6-1-1.3-2-2.1-3c-0.6-1.2-1.2-2.3-1.8-3.3c-0.6-1-1.2-2.1-1.8-3.3
					c-0.6-1-1.2-2-1.8-3c-0.6-1.2-1.1-2.4-1.5-3.6c-0.6-1.2-1.1-2.3-1.5-3.3c-0.6-1.2-1.1-2.4-1.5-3.6c-0.4-1.2-0.8-2.4-1.2-3.6
					c-0.4-1.4-0.8-2.7-1.2-3.9c-0.4-1.2-0.8-2.5-1.2-3.9c-0.4-1.2-0.7-2.5-0.9-3.9c-0.4-1.2-0.7-2.5-0.9-3.9
					c-0.2-1.4-0.5-2.8-0.9-4.2c-0.2-1.2-0.4-2.5-0.6-3.9c-0.2-1.4-0.3-2.7-0.3-3.9c-0.2-1.4-0.3-2.8-0.3-4.2
					c-0.2-1.2-0.3-2.5-0.3-3.9c0-1.4,0-2.7,0-3.9c0-1.4,0.1-2.7,0.3-3.9c0-1.4,0.1-2.7,0.3-3.9c0-1.4,0.1-2.7,0.3-3.9
					c0.2-1.4,0.4-2.7,0.6-3.9c0.2-1.4,0.4-2.7,0.6-3.9c0.4-1.2,0.7-2.4,0.9-3.6c0.4-1.4,0.7-2.7,0.9-3.9c0.4-1.2,0.8-2.4,1.2-3.6
					c0.4-1.2,0.8-2.4,1.2-3.6c0.4-1.2,0.9-2.4,1.5-3.6c0.4-1.2,0.9-2.4,1.5-3.6c0.4-1.2,0.9-2.3,1.5-3.3c0.6-1.2,1.2-2.4,1.8-3.6
					c0.6-1,1.2-2.1,1.8-3.3s1.3-2.3,2.1-3.3c0.6-1,1.3-2.1,2.1-3.3c0.6-1,1.3-2,2.1-3c0.8-1,1.6-2,2.4-3c0.8-1,1.6-2,2.4-3
					c0.8-1,1.6-2,2.4-3c0.8-1,1.7-2,2.7-3c0.8-0.8,1.7-1.7,2.7-2.7c1-0.8,1.9-1.6,2.7-2.4c1-1,2-1.9,3-2.7c1-0.8,2-1.6,3-2.4
					c1-0.8,2.1-1.6,3.3-2.4c1-0.8,2-1.6,3-2.4c1.2-0.6,2.3-1.3,3.3-2.1c1.2-0.6,2.3-1.3,3.3-2.1c1.2-0.6,2.4-1.2,3.6-1.8
					c1.2-0.6,2.4-1.2,3.6-1.8c1.2-0.6,2.4-1.2,3.5-1.8c1.2-0.6,2.4-1.1,3.6-1.5c1.2-0.6,2.4-1.1,3.5-1.5c1.4-0.6,2.7-1.1,3.9-1.5
					c1.4-0.4,2.7-0.8,3.9-1.2c1.4-0.4,2.7-0.7,3.9-0.9c1.4-0.4,2.8-0.8,4.2-1.2c1.4-0.2,2.8-0.4,4.2-0.6c1.8-0.4,3.6-0.7,5.4-0.9
					c1.8-0.4,3.7-0.7,5.6-0.9c1.6-0.2,3.3-0.3,5-0.3c1.8-0.2,3.6-0.3,5.4-0.3c1.6,0,3.3,0,5,0c1.6,0,3.2,0,4.8,0
					c1.6,0,3.1,0.1,4.7,0.3c1.6,0.2,3.2,0.4,4.8,0.6c1.6,0.2,3.1,0.4,4.5,0.6c1.6,0.2,3.1,0.5,4.4,0.9c1.4,0.4,2.9,0.7,4.5,0.9
					c1.4,0.4,2.8,0.8,4.2,1.2c1.2,0.4,2.5,0.9,3.9,1.5c1.4,0.4,2.7,0.9,3.9,1.5c1.4,0.4,2.7,0.9,3.9,1.5c1.2,0.6,2.4,1.2,3.5,1.8
					c1.2,0.6,2.4,1.2,3.6,1.8c1.2,0.6,2.4,1.3,3.5,2.1c1.2,0.6,2.3,1.3,3.3,2.1c1.2,0.6,2.3,1.3,3.3,2.1c1,0.8,2,1.6,3,2.4
					c1,0.8,2,1.6,3,2.4c1,0.8,2,1.6,3,2.4c0.8,0.8,1.7,1.6,2.7,2.4c0.8,1,1.7,1.9,2.7,2.7c0.8,1,1.6,1.9,2.4,2.7
					c0.8,1,1.6,1.9,2.4,2.7c0.8,1,1.6,2,2.4,3c0.8,0.8,1.5,1.7,2.1,2.7c0.8,1,1.5,2,2.1,3c0.8,1,1.5,1.9,2.1,2.7c0.6,1,1.2,2,1.8,3
					c0.6,1,1.2,2,1.8,3c0.6,1,1.2,2,1.8,3c0.4,1,0.9,2,1.5,3c0.4,1,0.8,2,1.2,3c0.6,1,1.1,2,1.5,3c0.4,1,0.8,2,1.2,3
					c0.4,0.8,0.8,1.7,1.2,2.7c0.4,1,0.7,2,0.9,3c0.4,1,0.7,2,0.9,3c0.4,0.8,0.7,1.7,0.9,2.7c0.2,1,0.4,1.9,0.6,2.7
					c0.4,1,0.7,1.9,0.9,2.7c0,1,0.1,1.9,0.3,2.7c0.2,1,0.4,1.9,0.6,2.7c0,0.8,0.1,1.6,0.3,2.4c0,0.8,0.1,1.6,0.3,2.4
					c0,0.8,0,1.6,0,2.4c0,0.8,0,1.6,0,2.4c0,0.6,0,1.3,0,2.1c0,0.6,0,1.3,0,2.1c-0.2,0.6-0.3,1.2-0.3,1.8c-0.2,0.6-0.3,1.2-0.3,1.8
					c-0.2,0.6-0.4,1.2-0.6,1.8c0,0.6-0.1,1.1-0.3,1.5c-0.2,0.6-0.4,1.1-0.6,1.5c-0.2,0.4-5,8.1-5,8.1s-47.9,13-73.6,14.4
					c-25.7,1.5-46.1-0.6-47.3-0.8c-1.4-0.4-2.4,6,11,8.5s17.3-9,17.3-9s16.8-4,37.9-3.9c11.2-0.9,28.2,0.1,29.7-0.1
					c1.6,0,21.6,0.9,24.3,3.8c2.7,2.9-0.2,15,0,15.2C712.8,477.9,712.8,478.2,712.6,478.6z"/>
			</g>
		</g>
		<path fill="#FFFFFF" d="M687.5,471.8c-0.2,0.8-0.4,1.6-0.7,2.4c-0.3,1-0.6,1.9-1,2.7c-0.5,1-0.9,1.8-1.2,2.6
			c-0.5,0.8-1,1.6-1.4,2.4c-0.5,1-1,1.8-1.4,2.6c-0.6,0.8-1.3,1.6-1.9,2.4c-0.5,0.8-1,1.7-1.7,2.6c-0.6,0.8-1.4,1.6-2.2,2.4
			c-0.6,0.8-1.4,1.5-2.2,2.2c-0.8,0.8-1.5,1.6-2.2,2.4c-0.8,0.8-1.7,1.5-2.6,2.2c-0.8,0.8-1.6,1.5-2.4,2.2c-1,0.8-1.8,1.5-2.6,2.2
			c-1,0.6-1.9,1.3-2.9,1.9c-1,0.8-1.9,1.4-2.9,1.9c-1,0.6-1.9,1.3-2.9,1.9c-1,0.6-1.9,1.2-2.9,1.7c-1.1,0.6-2.2,1.2-3.1,1.7
			c-1.1,0.6-2.2,1.2-3.1,1.7c-1.1,0.5-2.2,1-3.1,1.4c-1.1,0.3-2.3,0.7-3.4,1.2c-1.1,0.5-2.2,0.9-3.1,1.2c-1.1,0.3-2.3,0.6-3.4,1
			c-1.1,0.3-2.3,0.6-3.4,1c-1.1,0.3-2.2,0.6-3.1,0.7c-1.1,0.3-2.2,0.5-3.4,0.7c-1.1,0.2-2.3,0.3-3.4,0.5c-1.1,0.2-2.2,0.2-3.1,0.2
			c-1.4,0.2-2.9,0.3-4.3,0.3c-1.3,0-2.6,0.1-3.8,0.2c-1.4,0-2.8,0-4.1,0c-1.3,0-2.6-0.1-3.9-0.2c-1.3,0-2.6,0-3.8,0
			c-1.3-0.2-2.5-0.3-3.6-0.3c-1.3-0.2-2.6-0.3-3.8-0.5c-1.1-0.2-2.3-0.3-3.4-0.5c-1.3-0.2-2.5-0.3-3.6-0.5c-1.1-0.2-2.2-0.4-3.4-0.7
			c-1.1-0.2-2.2-0.4-3.4-0.7c-1.1-0.2-2.2-0.4-3.1-0.7c-1.1-0.3-2.2-0.6-3.1-1c-1.1-0.3-2.2-0.6-3.1-1c-1-0.3-2-0.7-3.1-1.2
			c-1-0.3-1.9-0.7-2.9-1.2c-0.8-0.3-1.7-0.7-2.6-1.2c-1-0.5-1.9-0.9-2.9-1.2c-0.8-0.5-1.7-1-2.6-1.4c-0.8-0.6-1.6-1.2-2.4-1.7
			c-1-0.5-1.8-1-2.6-1.7c-0.8-0.5-1.6-1-2.4-1.7c-0.6-0.5-1.4-1-2.2-1.7c-0.8-0.6-1.5-1.3-2.2-1.9c-0.8-0.6-1.5-1.3-2.2-1.9
			c-0.8-0.6-1.5-1.3-2.2-1.9c-0.6-0.8-1.3-1.5-1.9-2.2c-0.6-0.8-1.3-1.5-1.9-2.2c-0.6-0.8-1.3-1.6-1.9-2.4c-0.5-0.6-1.1-1.4-1.7-2.2
			c-0.5-0.8-1.1-1.6-1.7-2.4c-0.5-1-1-1.8-1.4-2.6c-0.5-0.8-1-1.7-1.4-2.7c-0.5-0.8-1-1.6-1.4-2.4c-0.5-1-0.9-1.9-1.2-2.9
			c-0.5-1-0.9-1.8-1.2-2.6c-0.5-1-0.9-1.9-1.2-2.9c-0.3-1-0.6-1.9-1-2.9c-0.3-1.1-0.6-2.2-1-3.1c-0.3-1-0.6-2-1-3.1
			c-0.3-1-0.6-2-0.7-3.1c-0.3-1-0.6-2-0.7-3.1c-0.2-1.1-0.4-2.3-0.7-3.4c-0.2-1-0.3-2-0.5-3.1c-0.2-1.1-0.3-2.2-0.3-3.1
			c-0.2-1.1-0.2-2.3-0.2-3.4c-0.2-1-0.2-2-0.2-3.1s0-2.2,0-3.1c0-1.1,0.1-2.2,0.2-3.1c0-1.1,0.1-2.2,0.2-3.1c0-1.1,0.1-2.2,0.3-3.1
			c0.2-1.1,0.3-2.2,0.5-3.1c0.2-1.1,0.3-2.2,0.5-3.1c0.3-1,0.6-1.9,0.7-2.9c0.3-1.1,0.5-2.2,0.7-3.1c0.3-1,0.6-1.9,1-2.9
			c0.3-1,0.6-1.9,1-2.9c0.3-1,0.7-1.9,1.2-2.9c0.3-1,0.7-1.9,1.2-2.9c0.3-1,0.7-1.8,1.2-2.6c0.5-1,1-1.9,1.4-2.9
			c0.5-0.8,1-1.7,1.4-2.7c0.5-1,1-1.8,1.7-2.6c0.5-0.8,1-1.7,1.7-2.6c0.5-0.8,1-1.6,1.7-2.4c0.6-0.8,1.3-1.6,1.9-2.4
			c0.6-0.8,1.3-1.6,1.9-2.4s1.3-1.6,1.9-2.4c0.6-0.8,1.4-1.6,2.2-2.4c0.6-0.6,1.4-1.4,2.2-2.2c0.8-0.6,1.5-1.3,2.2-1.9
			c0.8-0.8,1.6-1.5,2.4-2.2c0.8-0.6,1.6-1.3,2.4-1.9s1.7-1.3,2.6-1.9c0.8-0.6,1.6-1.3,2.4-1.9c1-0.5,1.8-1,2.6-1.7
			c1-0.5,1.8-1,2.7-1.7c1-0.5,1.9-1,2.9-1.4c1-0.5,1.9-1,2.9-1.4c1-0.5,1.9-1,2.9-1.4c1-0.5,1.9-0.9,2.9-1.2c1-0.5,1.9-0.9,2.9-1.2
			c1.1-0.5,2.2-0.9,3.1-1.2c1.1-0.3,2.2-0.6,3.1-1c1.1-0.3,2.2-0.6,3.1-0.7c1.1-0.3,2.3-0.6,3.4-1c1.1-0.2,2.3-0.3,3.4-0.5
			c1.4-0.3,2.9-0.6,4.3-0.7c1.4-0.3,3-0.5,4.6-0.7c1.3-0.2,2.6-0.2,4.1-0.2c1.4-0.2,2.9-0.2,4.3-0.2c1.3,0,2.6,0,4.1,0
			c1.3,0,2.6,0,3.8,0c1.3,0,2.6,0.1,3.9,0.2c1.3,0.2,2.6,0.3,3.9,0.5c1.3,0.2,2.5,0.3,3.6,0.5c1.3,0.2,2.5,0.4,3.6,0.7
			c1.1,0.3,2.3,0.6,3.6,0.7c1.1,0.3,2.2,0.6,3.4,1c1,0.3,2,0.7,3.1,1.2c1.1,0.3,2.2,0.7,3.1,1.2c1.1,0.3,2.2,0.7,3.1,1.2
			c1,0.5,1.9,1,2.9,1.4c1,0.5,1.9,1,2.9,1.4c1,0.5,1.9,1,2.9,1.7c1,0.5,1.8,1,2.6,1.7c1,0.5,1.8,1,2.6,1.7c0.8,0.6,1.6,1.3,2.4,1.9
			c0.8,0.6,1.6,1.3,2.4,1.9c0.8,0.6,1.6,1.3,2.4,1.9c0.6,0.6,1.4,1.3,2.2,1.9c0.6,0.8,1.4,1.5,2.2,2.2c0.6,0.8,1.3,1.5,1.9,2.2
			c0.6,0.8,1.3,1.5,1.9,2.2c0.6,0.8,1.3,1.6,1.9,2.4c0.6,0.6,1.2,1.4,1.7,2.2c0.6,0.8,1.2,1.6,1.7,2.4c0.6,0.8,1.2,1.5,1.7,2.2
			c0.5,0.8,1,1.6,1.4,2.4c0.5,0.8,1,1.6,1.4,2.4c0.5,0.8,1,1.6,1.4,2.4c0.3,0.8,0.7,1.6,1.2,2.4c0.3,0.8,0.6,1.6,1,2.4
			c0.5,0.8,0.9,1.6,1.2,2.4c0.3,0.8,0.6,1.6,1,2.4c0.3,0.6,0.6,1.4,1,2.2c0.3,0.8,0.5,1.6,0.7,2.4c0.3,0.8,0.5,1.6,0.7,2.4
			c0.3,0.6,0.5,1.4,0.7,2.2s0.3,1.5,0.5,2.2c0.3,0.8,0.6,1.5,0.7,2.2c0,0.8,0.1,1.5,0.2,2.2c0.2,0.8,0.3,1.5,0.5,2.2
			c0,0.6,0.1,1.3,0.2,1.9c0,0.6,0.1,1.3,0.2,1.9c0,0.6,0,1.3,0,1.9c0,0.6,0,1.3,0,1.9c0,0.5,0,1,0,1.7c0,0.5,0,1,0,1.7
			c-0.2,0.5-0.2,1-0.2,1.4c-0.2,0.5-0.2,1-0.2,1.4c-0.2,0.5-0.3,1-0.5,1.4c0,0.5-0.1,0.9-0.2,1.2c-0.2,0.5-0.3,0.9-0.5,1.2
			c-0.2,0.3-0.4,0.6-0.7,1c-0.2,0.3-0.3,0.6-0.5,1c-0.2,0.2-0.4,0.4-0.7,0.7c-0.2,0.2-0.4,0.4-0.7,0.7c-0.3,0.2-0.7,0.4-1.2,0.7
			c-0.3,0.2-0.7,0.4-1.2,0.7c-0.5,0.2-1,0.4-1.4,0.7c-0.6,0.2-1.2,0.4-1.7,0.7c-0.6,0.2-1.3,0.4-1.9,0.7c-0.6,0.2-1.3,0.4-1.9,0.7
			c-0.6,0.2-1.4,0.4-2.2,0.7c-0.8,0.2-1.5,0.4-2.2,0.7c-0.8,0.2-1.6,0.3-2.4,0.5c-1,0.3-1.8,0.6-2.6,0.7c-0.8,0.3-1.7,0.6-2.7,0.7
			c-1,0.2-1.9,0.4-2.9,0.7c-0.8,0.2-1.7,0.3-2.6,0.5c-1.1,0.2-2.2,0.3-3.1,0.5c-1,0.3-2,0.6-3.1,0.7c-1,0.2-2,0.3-3.1,0.5
			c-1,0.2-2,0.3-3.1,0.5c-1.1,0.2-2.3,0.3-3.4,0.5c-1,0.2-2,0.3-3.1,0.5c-1.1,0-2.3,0.1-3.4,0.2c-1.3,0.2-2.5,0.3-3.6,0.3
			c-1.1,0.2-2.3,0.3-3.4,0.5c-1.1,0-2.3,0.1-3.6,0.3c-1.1,0-2.2,0-3.4,0c-1.3,0.2-2.5,0.2-3.6,0.2c-1.1,0-2.3,0-3.6,0
			c-1.1,0-2.3,0-3.4,0c-1.1,0-2.3,0-3.6,0c-1.1,0-2.2,0-3.4,0c-1.3-0.2-2.5-0.2-3.6-0.2c-1.1,0-2.3-0.1-3.4-0.3
			c-1.1-0.2-2.3-0.2-3.4-0.2c-1.1-0.2-2.3-0.3-3.4-0.5c-1.1-0.2-2.3-0.3-3.4-0.5c-1-0.2-2-0.3-3.1-0.5c-1.1-0.2-2.2-0.3-3.1-0.5
			c-1.1-0.3-2.2-0.6-3.1-0.7c-1.1,0-2.1-0.3-2.9-1c-1.6-1-3.6,23.2,17.7,27.1c18.6,3.2,26.4-5.4,26.4-5.4s14.1-1,25.8-1.9
			C661.3,470.7,687.7,470.8,687.5,471.8z M581.1,422.7c0.3,0.6,1.3,1.1,2.9,1.4c1.1,0.2,2.3,0.6,3.4,1.2c1,0.3,2.1,0.6,3.4,1
			c1.3,0.2,2.5,0.4,3.6,0.7c1.1,0.2,2.3,0.3,3.6,0.5c1.3,0,2.5,0.1,3.6,0.2c1.3,0,2.5,0,3.6,0c1.1,0,2.2,0,3.4,0
			c1.1,0,2.2-0.1,3.4-0.2c1,0,1.9-0.1,2.9-0.3c0.8-0.2,1.7-0.4,2.6-0.7c0.6-0.2,1.4-0.3,2.2-0.5c0.6-0.3,1.2-0.6,1.7-1
			c0.5-0.2,0.9-0.5,1.2-1c0.6-0.6,1.3-1.4,1.9-2.2c0.5-1,0.9-1.8,1.2-2.6c0.3-1,0.6-1.9,0.7-2.9c0.2-1,0.2-1.9,0.2-2.9
			s-0.1-1.9-0.2-2.9c-0.3-1-0.6-1.8-0.7-2.6c-0.3-1-0.7-1.9-1.2-2.9c-0.5-0.8-1.1-1.6-1.7-2.4c-0.5-0.8-1.1-1.5-1.9-2.2
			c-0.6-0.6-1.4-1.3-2.2-1.9c-1-0.5-1.9-1-2.9-1.4c-1-0.5-1.9-0.8-2.9-1c-1.1-0.3-2.3-0.5-3.4-0.5c-0.8,0-1.5,0.1-2.2,0.2
			c-0.8,0-1.6,0.1-2.4,0.2c-0.8,0.3-1.7,0.6-2.6,1c-0.8,0.3-1.6,0.6-2.4,1c-1,0.5-1.8,1-2.6,1.4c-0.8,0.6-1.6,1.3-2.4,1.9
			c-1,0.6-1.8,1.4-2.6,2.2c-0.8,0.6-1.6,1.4-2.4,2.4c-0.6,0.8-1.4,1.7-2.2,2.6c-0.6,1-1.3,2-1.9,3.1c-0.8,1-1.4,2-1.9,3.1
			c-0.3,1.4-0.8,2.7-1.4,3.8C581.4,420.5,581,421.8,581.1,422.7z"/>
	</g>
</g>
</svg>
