<?xml version="1.0" encoding="utf-8"?>
<!-- Generator: Adobe Illustrator 18.0.0, SVG Export Plug-In . SVG Version: 6.00 Build 0)  -->
<!DOCTYPE svg PUBLIC "-//W3C//DTD SVG 1.1//EN" "http://www.w3.org/Graphics/SVG/1.1/DTD/svg11.dtd">
<svg version="1.1" id="Camada_1" xmlns="http://www.w3.org/2000/svg" xmlns:xlink="http://www.w3.org/1999/xlink" x="0px" y="0px"
	 viewBox="0 0 1024 768" enable-background="new 0 0 1024 768" xml:space="preserve">
<g>
	<defs>
		<circle id="SVGID_1_" cx="511.9" cy="383.4" r="375.7"/>
	</defs>
	<clipPath id="SVGID_2_">
		<use xlink:href="#SVGID_1_"  overflow="visible"/>
	</clipPath>
	<g clip-path="url(#SVGID_2_)" enable-background="new    ">
		
			<image overflow="visible" width="2474" height="2474" xlink:href="../../banco de imagens/botões/butt 25.png"  transform="matrix(0.3065 0 0 0.3065 132.8006 4.7999)">
		</image>
	</g>
</g>
<g>
	<g>
		<path d="M356,194.4c24.2,2.4,39,6.1,44.8,9.8c5.8,3.8,8.9,13.1,8.9,18.8c0.1,2.5,2.5,198.3,6.9,199.5c4.4,1.2,67.7-12.9,96.7-18.8
			c29.1-5.9,11.6,77.1,11.4,78.6c-0.2,1.7-10.9,44-14.4,47.5c-3.5,3.5-43.4,4.3-44.7,4.5c-1.5,0-3,0-4.3,0c-1.5,0.2-3,0.3-4.3,0.3
			c-1.5,0-3.1,0-4.6,0c-1.7,0.2-3.3,0.3-4.9,0.3c-1.5,0-3.2,0-4.9,0c-1.5,0-3.1,0.1-4.9,0.3c-1.7,0-3.3,0-4.9,0c-1.7,0-3.4,0-5.1,0
			c-1.7,0-3.4,0.1-5.1,0.3c-1.7,0-3.4,0-5.2,0c-1.7,0-3.4,0-5.2,0c-1.7,0-3.5,0-5.4,0c-1.7,0.2-3.4,0.3-5.2,0.3c-1.7,0-3.4,0-5.1,0
			c-1.9,0-3.7,0-5.4,0c-1.7,0-3.4,0-5.2,0c-1.7,0-3.4,0-5.1,0c-1.7,0-3.4,0-5.1,0c-1.7,0-3.4,0-5.2,0c-1.5,0-3.2,0-4.9,0
			c-1.7,0-3.3,0-4.9,0c-1.7,0-3.3,0-4.9,0c-1.5,0-3.2,0-4.9,0c-1.5,0-3,0-4.6,0c-1.3-0.2-2.8-0.3-4.3-0.3c-1.4,0-2.8,0-4.3,0
			c-1.3,0-2.7,0-4,0c-1.4,0-2.7-0.1-4-0.3c-1.3,0-2.6,0-3.7,0c-1.1,0-2.3,0-3.4,0c-1.1-0.2-2.3-0.3-3.4-0.3c-1.1,0-2.2,0-3.2,0
			c-0.9-0.2-1.9-0.3-2.9-0.3c-0.7,0-1.6,0-2.6,0c-0.7-0.2-1.5-0.3-2.3-0.3c-0.8,0-1.4-0.1-2-0.3c-0.8,0-1.4,0-2,0
			c-0.4-0.2-0.9-0.3-1.4-0.3c-0.4,0-0.8-0.1-1.1-0.3c-0.2,0-0.5-0.1-0.9-0.3c-0.2,0-0.3-0.1-0.3-0.3c-0.2,0-0.3-0.1-0.3-0.3
			l-0.3-0.3c0-0.2,0-0.5,0-0.9c0-0.2-0.1-0.5-0.3-0.9c0-0.4,0-0.8,0-1.1c-0.2-0.4-0.3-0.8-0.3-1.1c0-0.6,0-1.1,0-1.4
			c0-0.6-0.1-1.1-0.3-1.7c0-0.6,0-1.2,0-2c0-0.6-0.1-1.2-0.3-2c0-0.8,0-1.4,0-2c0-0.8,0-1.6,0-2.6c0-0.8-0.1-1.5-0.3-2.3
			c0-0.9,0-1.9,0-2.9c0-0.9,0-1.9,0-2.9c0-0.9-0.1-1.9-0.3-2.8c0-1.1,0-2.2,0-3.2c0-1.1,0-2.3,0-3.4c0-1.1,0-2.3,0-3.4
			c0-1.1,0-2.3,0-3.4c-0.2-1.1-0.3-2.4-0.3-3.7c0-1.1,0-2.4,0-3.7c0-1.3,0-2.7,0-4c0-1.3,0-2.7,0-4c0-1.3,0-2.7,0-4s0-2.8,0-4.3
			c0-1.3,0-2.8,0-4.3c0-1.3,0-2.7,0-4.3c0-1.5,0-3,0-4.6c0-1.5,0-3,0-4.6c0-1.5,0-3,0-4.5c0-1.5,0-3.2,0-4.9c0-1.5,0-3,0-4.6
			c0-1.7,0-3.3,0-4.8c0-1.7,0-3.4,0-5.2c0-1.5,0-3.1,0-4.9c0-1.7,0-3.4,0-5.1c0-1.5,0-3.2,0-4.9c0.2-1.7,0.3-3.4,0.3-5.1
			c0-1.7,0-3.4,0-5.1c0-1.7,0-3.4,0-5.1c0-1.7,0-3.5,0-5.4c0-1.7,0-3.4,0-5.1c0.2-1.7,0.3-3.4,0.3-5.1s0-3.5,0-5.4
			c0-1.7,0-3.4,0-5.1s0.1-3.4,0.3-5.1c0-1.9,0-3.7,0-5.4c0-1.7,0-3.4,0-5.1c0-1.7,0.1-3.5,0.3-5.4c0-1.7,0-3.4,0-5.1
			c0-1.7,0-3.4,0-5.1c0-1.7,0.1-3.4,0.3-5.1c0-1.7,0-3.4,0-5.1c0-1.7,0-3.4,0-5.1c0.2-1.7,0.3-3.4,0.3-5.1c0-1.7,0-3.4,0-5.1
			c0.2-1.7,0.3-3.3,0.3-4.9c0-1.7,0-3.4,0-5.1c0-1.5,0.1-3.1,0.3-4.9c0-1.5,0-3.1,0-4.9c0-1.5,0.1-3,0.3-4.6c0-1.5,0-3.1,0-4.9
			c0-1.5,0.1-3,0.3-4.6c0-1.5,0-3.1,0-4.6c0-1.3,0.1-2.8,0.3-4.3c0-1.5,0-2.9,0-4.3c0.2-1.5,0.3-3,0.3-4.3s0-2.8,0-4.3
			c0.2-1.3,0.3-2.7,0.3-4c0-1.3,0.1-2.7,0.3-4c0-1.1,0-2.4,0-3.7c0.2-1.3,0.3-2.6,0.3-3.7c0-1.1,0-2.4,0-3.7
			c0.2-1.1,0.3-2.3,0.3-3.4c0-1.1,0.1-2.2,0.3-3.1c0-1.1,0-2.3,0-3.4c0.2-0.9,0.3-1.9,0.3-2.9c0-0.9,1.8-22.7,5.5-28.6
			C312.6,191.4,331.8,192,356,194.4z"/>
		<path fill="#FFFFFF" d="M324.9,222.4c0.6-0.3,1.2-0.6,1.7-0.7c0.8-0.2,1.5-0.3,2.1-0.5c0.9-0.2,1.8-0.3,2.6-0.5
			c1.1,0,2.1-0.1,3.1-0.2c1.1,0,2.2,0,3.3,0c1.1-0.2,2.3-0.2,3.5-0.2c1.3,0,2.5,0.1,3.8,0.2c1.2,0,2.5,0,3.8,0
			c1.4,0.2,2.7,0.2,4,0.2c1.4,0.2,2.8,0.3,4,0.5c1.4,0,2.8,0.1,4,0.2c1.4,0.2,2.8,0.3,4,0.5c1.3,0.2,2.5,0.3,3.8,0.5
			c1.1,0.2,2.2,0.3,3.3,0.5c1.1,0.2,2.2,0.4,3.3,0.7c0.9,0.2,2,0.3,3.1,0.5c0.8,0.2,1.6,0.4,2.4,0.7c0.8,0.2,1.5,0.3,2.1,0.5
			c0.5,0.2,1,0.4,1.6,0.7c0.3,0.2,0.6,0.3,1,0.5c0.1,0.2,0.2,0.3,0.2,0.5c0.2,0.2,0.3,0.3,0.5,0.5c0.2,0.3,0.3,0.6,0.5,0.7
			c0,0.3,0.1,0.7,0.2,1c0.1,0.3,0.2,0.7,0.2,1c0.2,0.3,0.3,0.7,0.5,1.2c0.2,0.3,0.3,0.7,0.3,1.2c0.2,0.5,0.2,1,0.2,1.5
			c0.2,0.5,0.3,1,0.5,1.5c0,0.5,0.1,1.1,0.2,1.7c0,0.5,0.1,1.1,0.2,1.7c0,0.7,0.1,1.3,0.2,2c0,0.7,0.1,1.3,0.2,2
			c0,0.7,0.1,1.4,0.3,2.2c0,0.7,0.1,1.4,0.2,2.2c0,0.8,0.1,1.7,0.2,2.5c0,0.8,0.1,1.7,0.2,2.5c0,0.8,0,1.7,0,2.5
			c0.2,0.8,0.2,1.7,0.2,2.7c0,0.8,0.1,1.7,0.2,2.7c0,1,0,1.9,0,2.7c0.2,1,0.3,2,0.3,3c0,1,0.1,2.1,0.2,3.2c0,1,0,2,0,3
			c0.2,1,0.2,2.1,0.2,3.2c0,1,0,2.1,0,3.2c0.2,1.2,0.2,2.2,0.2,3.2c0,1.2,0,2.3,0,3.5c0,1.2,0.1,2.3,0.2,3.5c0,1.2,0,2.3,0,3.5
			c0,1.2,0,2.4,0,3.7c0.2,1.2,0.2,2.3,0.2,3.5c0,1.3,0,2.6,0,3.7c0,1.3,0,2.6,0,3.7c0.2,1.3,0.2,2.6,0.2,3.7c0,1.3,0,2.6,0,4
			c0,1.2,0,2.4,0,3.7c0,1.3,0,2.7,0,4c0.2,1.3,0.3,2.6,0.3,3.7c0,1.3,0,2.7,0,4c0,1.3,0,2.6,0,4c0,1.3,0,2.6,0,4
			c0,1.3,0.1,2.6,0.2,4c0,1.3,0,2.7,0,4.2c0,1.3,0,2.6,0,4c0,1.3,0,2.7,0,4c0,1.3,0,2.6,0,4c0,1.3,0.1,2.6,0.2,4c0,1.5,0,2.9,0,4.2
			c0,1.3,0,2.7,0,4c0,1.3,0,2.7,0,4c0,1.3,0,2.7,0,4c0,1.3,0.1,2.6,0.2,4c0,1.3,0,2.7,0,4c0,1.3,0,2.7,0,4c0,1.3,0,2.7,0,4
			c0,1.3,0,2.6,0,3.7c0.1,1.3,0.2,2.6,0.2,4c0,1.3,0,2.6,0,3.7c0,1.3,0,2.6,0,3.7c0.2,1.3,0.2,2.6,0.2,4c0,1.2,0,2.3,0,3.5
			c0,1.3,0,2.6,0,3.7c0.2,1.2,0.3,2.3,0.3,3.5c0,1.3,0,2.6,0,3.7c0,1.2,0.1,2.3,0.2,3.5c0,1.2,0,2.2,0,3.2c0,1.2,0.1,2.3,0.3,3.5
			c0,1.1,0,2.2,0,3.2c0,1.2,0.1,2.2,0.2,3.2c0,0.2,0.3,0.2,0.9,0.2c0.5-0.2,0.9-0.2,1.4,0c0.6,0,1.2,0,1.7,0
			c0.8-0.2,1.5-0.2,2.1-0.2c0.8,0,1.5-0.1,2.3-0.3c0.8-0.2,1.6-0.2,2.4-0.2c0.9-0.2,1.9-0.3,2.8-0.5c0.9-0.2,2-0.3,3.1-0.5
			c1.1-0.2,2.1-0.3,3.1-0.5c1.1-0.2,2.3-0.3,3.5-0.5c1.1-0.2,2.3-0.4,3.5-0.7c1.1-0.2,2.3-0.3,3.5-0.5c1.3-0.3,2.5-0.6,3.8-0.7
			c1.3-0.2,2.5-0.4,3.8-0.7c1.3-0.2,2.6-0.4,4-0.7c1.2-0.2,2.5-0.4,3.8-0.7c1.4-0.2,2.8-0.4,4-0.7c1.4-0.2,2.7-0.4,4-0.7
			c1.3-0.2,2.6-0.4,4-0.7c1.2-0.2,2.5-0.4,3.8-0.7c1.4-0.2,2.8-0.4,4-0.7c1.2-0.2,2.5-0.3,3.8-0.5c1.3-0.3,2.4-0.6,3.5-0.7
			c1.2-0.2,2.4-0.3,3.5-0.5c1.3-0.3,2.4-0.6,3.5-0.7c1.1-0.2,2.2-0.3,3.3-0.5c0.9-0.2,2-0.3,3.1-0.5c0.9,0,1.9-0.1,2.8-0.2
			c0.8-0.2,1.7-0.2,2.6-0.2c0.8-0.2,1.6-0.2,2.3-0.2c0.6,0,1.4-0.1,2.1-0.2c0.5,0,1,0,1.6,0c0.5,0,0.9,0.1,1.4,0.2
			c0.5,0,0.9,0,1.2,0c0.3,0.2,0.6,0.2,0.9,0.2c0.2,0.3,0.4,0.6,0.7,0.7c0.2,0.5,0.3,1,0.5,1.5c0.1,0.5,0.3,1,0.5,1.5
			c0,0.8,0.1,1.6,0.2,2.2c0,0.8,0,1.7,0,2.7c0.2,0.8,0.2,1.7,0.2,2.7c-0.1,1.2-0.2,2.2-0.2,3.2c0,1.1-0.1,2.3-0.2,3.5
			c0,1.3-0.1,2.6-0.2,3.7c-0.2,1.3-0.2,2.7-0.2,4c-0.2,1.3-0.3,2.6-0.5,4c-0.2,1.5-0.3,2.9-0.5,4.2c-0.3,1.5-0.5,2.9-0.7,4.2
			c-0.2,1.5-0.4,2.9-0.7,4.2c-0.2,1.5-0.3,2.9-0.5,4.2c-0.3,1.3-0.6,2.7-0.9,4.2c-0.2,1.3-0.4,2.6-0.7,4c-0.2,1.3-0.4,2.6-0.7,4
			c-0.2,1.2-0.4,2.4-0.7,3.7c-0.3,1.1-0.6,2.3-0.7,3.5c-0.3,1-0.6,2.1-0.9,3.2c-0.2,1-0.4,2-0.7,3c-0.2,0.8-0.4,1.6-0.7,2.5
			c-0.2,0.7-0.4,1.4-0.7,2.2c-0.2,0.5-0.4,1.1-0.7,1.7c-0.2,0.3-0.3,0.7-0.5,1.2c-0.2,0.2-0.4,0.4-0.7,0.7h-0.2
			c-0.3,0.2-0.6,0.2-0.7,0.2c-0.3,0.2-0.6,0.2-0.9,0.2c-0.5,0.2-0.9,0.2-1.2,0.2c-0.5,0-1,0.1-1.7,0.2c-0.5,0-1,0.1-1.7,0.2
			c-0.6,0-1.2,0-1.9,0c-0.8,0.2-1.5,0.2-2.1,0.2c-0.8,0.2-1.6,0.2-2.4,0.2c-0.8,0-1.7,0.1-2.6,0.2c-0.9,0-1.9,0-2.8,0
			c-0.9,0.2-1.9,0.2-2.8,0.2c-1,0-2,0.1-3.1,0.2c-1.1,0-2.2,0-3.3,0c-1.1,0-2.2,0.1-3.3,0.2c-1.3,0-2.5,0-3.6,0
			c-1.2,0.2-2.4,0.2-3.5,0.2c-1.2,0-2.5,0-3.8,0c-1.4,0.2-2.8,0.2-4,0.2c-1.3,0-2.6,0-4,0c-1.3,0-2.6,0.1-4,0.2c-1.4,0-2.8,0-4,0
			c-1.4,0-2.8,0-4.2,0c-1.4,0-2.8,0.1-4.3,0.2c-1.4,0-2.8,0-4.3,0c-1.4,0-2.8,0-4.3,0c-1.4,0-2.9,0-4.5,0c-1.4,0.2-2.8,0.2-4.2,0.2
			c-1.4,0-2.8,0-4.3,0c-1.6,0-3.1,0-4.5,0c-1.4,0-2.8,0-4.2,0c-1.4,0-2.8,0-4.3,0c-1.4,0-2.8,0-4.3,0c-1.4,0-2.8,0-4.2,0
			c-1.3,0-2.6,0-4,0s-2.8,0-4,0c-1.4,0-2.8,0-4,0s-2.6,0-4,0c-1.3,0-2.5,0-3.8,0c-1.1-0.2-2.3-0.2-3.6-0.2c-1.1,0-2.3,0-3.5,0
			c-1.1,0-2.2,0-3.3,0c-1.1,0-2.2-0.1-3.3-0.2c-1.1,0-2.1,0-3.1,0c-0.9,0-1.9,0-2.8,0c-0.9-0.2-1.9-0.2-2.8-0.2c-0.9,0-1.8,0-2.6,0
			c-0.8-0.2-1.6-0.2-2.4-0.2c-0.6,0-1.3,0-2.1,0c-0.6-0.2-1.3-0.2-1.9-0.2c-0.6,0-1.2-0.1-1.7-0.2c-0.6,0-1.2,0-1.7,0
			c-0.3-0.2-0.7-0.2-1.2-0.2c-0.3,0-0.6-0.1-0.9-0.2c-0.2,0-0.4-0.1-0.7-0.2c-0.2,0-0.2-0.1-0.2-0.2c-0.2,0-0.3-0.1-0.3-0.2
			l-0.2-0.2c0-0.2,0-0.4,0-0.7c0-0.2-0.1-0.4-0.2-0.7c0-0.3,0-0.7,0-1c-0.2-0.3-0.2-0.7-0.2-1c0-0.5,0-0.9,0-1.2
			c0-0.5-0.1-1-0.2-1.5c0-0.5,0-1.1,0-1.7c0-0.5-0.1-1.1-0.2-1.7c0-0.7,0-1.2,0-1.7c0-0.7,0-1.4,0-2.2c0-0.7-0.1-1.3-0.2-2
			c0-0.8,0-1.6,0-2.5c0-0.8,0-1.6,0-2.5c0-0.8-0.1-1.6-0.2-2.5c0-1,0-1.9,0-2.7c0-1,0-2,0-3c0-1,0-2,0-3c0-1,0-2,0-3
			c-0.2-1-0.2-2.1-0.2-3.2c0-1,0-2.1,0-3.2c0-1.1,0-2.3,0-3.5c0-1.2,0-2.3,0-3.5c0-1.1,0-2.3,0-3.5c0-1.2,0-2.4,0-3.7
			c0-1.1,0-2.4,0-3.7c0-1.1,0-2.4,0-3.7c0-1.3,0-2.6,0-4c0-1.3,0-2.7,0-4c0-1.3,0-2.6,0-4c0-1.3,0-2.7,0-4.2c0-1.3,0-2.6,0-4
			c0-1.5,0-2.9,0-4.2c0-1.5,0-3,0-4.5c0-1.3,0-2.7,0-4.2c0-1.5,0-3,0-4.5c0-1.3,0-2.7,0-4.2c0.2-1.5,0.2-3,0.2-4.5c0-1.5,0-3,0-4.5
			c0-1.5,0-3,0-4.5c0-1.5,0-3.1,0-4.7c0-1.5,0-3,0-4.5c0.2-1.5,0.2-3,0.2-4.5c0-1.5,0-3.1,0-4.7c0-1.5,0-3,0-4.5
			c0-1.5,0.1-3,0.2-4.5c0-1.7,0-3.2,0-4.7s0-3,0-4.5s0.1-3.1,0.2-4.7c0-1.5,0-3,0-4.5s0-3,0-4.5c0-1.5,0.1-3,0.2-4.5
			c0-1.5,0-3,0-4.5c0-1.5,0-3,0-4.5c0.2-1.5,0.2-3,0.2-4.5c0-1.5,0-3,0-4.5c0.1-1.5,0.2-2.9,0.2-4.2c0-1.5,0-3,0-4.5
			c0-1.3,0.1-2.7,0.2-4.2c0-1.3,0-2.7,0-4.2c0-1.3,0.1-2.6,0.3-4c0-1.3,0-2.7,0-4.2c0-1.3,0.1-2.6,0.2-4c0-1.3,0-2.6,0-4
			c0-1.1,0.1-2.4,0.2-3.7c0-1.3,0-2.6,0-3.7c0.2-1.3,0.2-2.6,0.2-3.7c0-1.2,0-2.4,0-3.7c0.1-1.2,0.2-2.3,0.2-3.5
			c0-1.2,0.1-2.3,0.2-3.5c0-1,0-2.1,0-3.2c0.2-1.2,0.2-2.2,0.2-3.2s0-2.1,0-3.2c0.1-1,0.2-2,0.2-3c0-1,0.1-1.9,0.2-2.7c0-1,0-2,0-3
			c0.2-0.8,0.2-1.6,0.2-2.5c0-0.8,0.1-1.7,0.2-2.5c0-0.8,0-1.7,0-2.5c0.2-0.7,0.2-1.4,0.2-2.2c0-0.7,0.1-1.4,0.2-2.2
			c0-0.5,0-1.1,0-1.7c0.2-0.7,0.2-1.3,0.2-2c0-0.5,0.1-1.1,0.2-1.7c0-0.5,0.1-1,0.2-1.5c0-0.3,0-0.7,0-1.2c0.2-0.3,0.2-0.7,0.2-1.2
			c0-0.3,0.1-0.7,0.2-1c0-0.3,0-0.6,0-0.7c0.2-0.3,0.2-0.6,0.2-0.7c0.2-0.2,0.2-0.3,0.2-0.5c0-0.2,0.1-0.2,0.2-0.2
			C324.3,222.9,324.6,222.6,324.9,222.4z"/>
	</g>
	<g>
		<g>
			<g>
				<path d="M704.7,322.1c0.2,0.2,0.4,0.4,0.6,0.6c0.2,0.2,0.3,0.5,0.3,0.9c0.2,0.4,0.4,0.8,0.6,1.2c0,0.4,0.1,0.9,0.3,1.5
					c0.2,0.6,0.3,1.2,0.3,1.8c0,0.8,0.1,1.6,0.3,2.3c0,0.8,0,1.6,0,2.4c0.2,0.8,0.3,1.6,0.3,2.6c0,1,0,2,0,2.9
					c0.2,1.2,0.3,2.2,0.3,3.2c0,1.2,0,2.3,0,3.5c0,1.2,0,2.4,0,3.5c0,1.4,0,2.7,0,4.1c0,1.2,0,2.4,0,3.8c0,1.6,0,3,0,4.4
					c0,1.4-0.1,2.8-0.3,4.4c0,1.6,0,3,0,4.4c0,1.6,0,3.1,0,4.7s0,3.2,0,5c-0.2,1.6-0.3,3.1-0.3,4.7c0,1.8,0,3.4,0,5
					c0,1.8,0,3.5,0,5.3c0,1.6,0,3.2,0,5c-0.2,1.7-0.3,3.5-0.3,5.3c0,1.8,0,3.4,0,5c0,1.8,0,3.5,0,5.3c0,1.8,0,3.5,0,5.3s0,3.5,0,5.3
					c0,1.8,0,3.5,0,5.3c0.2,1.7,0.3,3.5,0.3,5.3c0,1.8,0,3.5,0,5.3c0.2,1.8,0.3,3.5,0.3,5.3c0,1.7,0.1,3.5,0.3,5.3
					c0,1.6,0.1,3.2,0.3,5c0,1.8,0.1,3.5,0.3,5.3c0.2,1.7,0.3,3.4,0.3,5c0.2,1.7,0.4,3.4,0.6,5c0,1.6,0.1,3.2,0.3,5
					c0.2,1.6,0.3,3.1,0.3,4.7c0.2,1.6,0.4,3.1,0.6,4.7c0,1.6,0.1,3,0.3,4.4c0.2,1.6,0.3,3,0.3,4.4c0.2,1.4,0.3,2.7,0.3,4.1
					c0.2,1.4,0.4,2.7,0.6,4.1c0,1.2,0.1,2.4,0.3,3.8c0,1.2,0.1,2.3,0.3,3.5c0,1.2,0,2.2,0,3.2c0.2,1.2,0.3,2.2,0.3,3.2
					c0,1,0.1,1.9,0.3,2.9c0,0.8,0,1.6,0,2.6c0,0.8,0,1.6,0,2.4c0,0.6,0,1.3,0,2c0,0.4-0.1,0.9-0.3,1.5c0,0.6,0,1.1,0,1.5
					c-0.2,0.4-0.3,0.8-0.3,1.2c-0.2,0.2-0.4,0.4-0.6,0.6c0,0.2-0.2,0.3-0.6,0.3c-0.4,0.2-0.8,0.3-1.1,0.3c-0.8,0.2-1.4,0.3-2,0.3
					c-0.9,0-1.9,0.1-2.9,0.3c-1.1,0-2.2,0-3.1,0c-1.3,0.2-2.7,0.3-4,0.3c-1.3,0-2.8,0-4.3,0c-1.5,0.2-3.1,0.3-4.6,0.3
					c-1.5,0-3.1,0-4.6,0c-1.7,0-3.4,0-5.1,0c-1.7,0-3.4,0-5.2,0s-3.4,0-5.1,0c-1.5,0-3.1,0-4.9,0c-1.7,0-3.3-0.1-4.9-0.3
					c-1.5,0-3.1,0-4.6,0c-1.5,0-3-0.1-4.3-0.3c-1.3,0-2.7,0-4,0c-1.1-0.2-10.5,0.5-16.4-0.9c-5.9-1.4-7.2-5.4-7.4-7.8
					c-0.2-0.8-11.2,8.5-23.1,9.8c0,0-2.2,0.4-3.1,0.6c-1.1,0.2-2.3,0.4-3.4,0.6c-0.9,0-2,0.1-3.1,0.3c-1.1,0-2.3,0-3.4,0
					c-1.2,0-2.3,0-3.4,0c-1.1,0-2.3-0.1-3.4-0.3c-1.1,0-2.3-0.1-3.4-0.3c-1.1-0.2-2.3-0.4-3.4-0.6c-1.3-0.2-2.6-0.4-3.7-0.6
					c-1.1-0.4-2.3-0.7-3.4-0.9c-1.1-0.4-2.3-0.8-3.4-1.2c-1.1-0.4-2.3-0.8-3.4-1.2c-1.2-0.6-2.3-1.1-3.4-1.5
					c-1.1-0.6-2.2-1.2-3.1-1.8c-1.2-0.6-2.3-1.2-3.4-1.8c-1.1-0.6-2.2-1.3-3.1-2c-1.1-0.8-2.2-1.6-3.2-2.3c-1.1-0.8-2.2-1.6-3.1-2.4
					c-0.9-1-2-1.8-3.1-2.6c-1-1-1.9-2-2.9-2.9c-1-1-1.9-2-2.9-3.2c-0.8-1-1.6-2.1-2.6-3.2c-0.9-1.2-1.8-2.3-2.6-3.5
					c-0.8-1.4-1.5-2.7-2.3-4.1c-0.9-1.2-1.7-2.4-2.3-3.8c-0.8-1.4-1.4-2.7-2-4.1c-0.8-1.4-1.4-2.7-2-4.1c-0.6-1.4-1.2-2.7-1.7-4.1
					c-0.6-1.4-1.1-2.7-1.7-4.1c-0.4-1.6-0.9-3-1.4-4.4c-0.4-1.4-0.8-2.8-1.2-4.4c-0.6-1.4-1-2.7-1.4-4.1c-0.4-1.6-0.7-3-0.9-4.4
					c-0.4-1.6-0.8-3.1-1.1-4.7c-0.2-1.3-0.5-2.8-0.9-4.4c-0.2-1.4-0.4-2.8-0.6-4.4c-0.2-1.5-0.4-3-0.6-4.4c-0.2-1.6-0.4-3.1-0.6-4.7
					c-0.2-1.4-0.4-2.8-0.6-4.4c0-1.6-0.1-3-0.3-4.4c0-1.6-0.1-3-0.3-4.4c0-1.6,0-3.1,0-4.7c0-1.4,0-2.8,0-4.4
					c-0.2-1.3-0.2-2.8,0-4.4c0-1.4,0-2.8,0-4.4c0-1.4,0-2.8,0-4.4c0.2-1.4,0.3-2.7,0.3-4.1c0.2-1.4,0.3-2.8,0.3-4.4
					c0.2-1.4,0.4-2.7,0.6-4.1c0-1.4,0.1-2.7,0.3-4.1c0.2-1.4,0.4-2.7,0.6-4.1c0.2-1.2,0.4-2.4,0.6-3.8c0.2-1.4,0.4-2.6,0.6-3.8
					c0.2-1.4,0.4-2.6,0.6-3.8c0.2-1.4,0.4-2.6,0.6-3.8c0.2-1.2,0.4-2.3,0.6-3.5c0.4-1.2,0.7-2.4,0.9-3.5s0.4-2.3,0.6-3.5
					c0.4-1,0.7-2.1,0.9-3.2c0.2-1,0.5-1.9,0.9-2.9c0.2-1,0.5-2,0.9-3.2c0.2-0.8,0.4-1.6,0.6-2.6c0.4-1,0.7-1.9,0.9-2.9
					c0.4-0.8,0.7-1.6,0.9-2.3c0.2-0.8,0.5-1.6,0.8-2.6c0.2-0.6,0.5-1.3,0.9-2c0.2-0.8,0.5-1.5,0.9-2c0.2-0.8,0.4-1.5,0.6-2
					c0.4-0.6,0.7-1.2,0.9-1.8c0.2-0.4,0.5-0.9,0.9-1.5c0.2-0.4,0.4-0.9,0.6-1.5c0.2-0.4,0.5-0.8,0.9-1.2c0.2-0.2,0.4-0.5,0.6-0.9
					c0.2-0.2,0.4-0.4,0.6-0.6c0.2-0.2,0.4-0.4,0.6-0.6c0.2-0.2,0.4-0.3,0.6-0.3c0.8-0.2,1.5-0.4,2.3-0.6c0.9-0.2,1.9-0.4,2.9-0.6
					c1.3-0.2,2.6-0.4,3.7-0.6c1.3,0,2.7-0.1,4-0.3c1.5,0,3.1-0.1,4.6-0.3c1.5,0,3-0.1,4.6-0.3c1.7,0,3.3,0,4.9,0c1.5,0,3.1,0,4.9,0
					c1.5,0,3,0,4.6,0c1.3,0,2.8,0.1,4.3,0.3c1.3,0,2.7,0,4,0c1.1,0.2,2.2,0.3,3.1,0.3c1,0.2,1.9,0.4,2.9,0.6
					c0.8,0,19.3,0.5,23.1,7.7c3.8,7.2-6.4,96.6,11.1,96.6s11.3-89.3,14.7-95.2s19.3-6.6,19.3-6.8c0.4-0.2,0.7-0.4,0.9-0.6
					c0.8-0.2,1.4-0.3,2-0.3c0.8-0.2,1.6-0.4,2.6-0.6c1.2-0.2,2.3-0.4,3.4-0.6c1.3,0,2.7-0.1,4-0.3c1.3-0.2,2.8-0.3,4.3-0.3
					c1.5-0.2,3.1-0.3,4.9-0.3c1.5-0.2,3.1-0.3,4.9-0.3s3.4-0.1,5.1-0.3c1.7,0,3.4,0,5.2,0c1.5,0,3.1,0,4.9,0c1.5,0,3,0,4.6,0
					c1.5,0.2,3.1,0.3,4.6,0.3c1.1,0,2.4,0.1,3.7,0.3c1.1,0.2,2.3,0.3,3.4,0.3c0.8,0.2,1.6,0.4,2.6,0.6
					C703.6,321.7,704.2,321.9,704.7,322.1z"/>
			</g>
		</g>
		<path fill="#FFFFFF" d="M686.4,351.4c0.2,0.1,0.3,0.3,0.5,0.4c0.2,0.2,0.2,0.4,0.2,0.6c0.2,0.3,0.3,0.6,0.5,0.9
			c0,0.3,0.1,0.6,0.2,1.1c0.2,0.4,0.2,0.9,0.2,1.3c0,0.6,0.1,1.1,0.2,1.7c0,0.6,0,1.2,0,1.7c0.2,0.6,0.2,1.2,0.2,1.9s0,1.4,0,2.1
			c0.2,0.9,0.2,1.6,0.2,2.4c0,0.9,0,1.7,0,2.6c0,0.9,0,1.7,0,2.6c0,1,0,2,0,3c0,0.9,0,1.8,0,2.8c0,1.2,0,2.2,0,3.2
			c0,1-0.1,2.1-0.2,3.2c0,1.2,0,2.2,0,3.2c0,1.2,0,2.3,0,3.4c0,1.2,0,2.4,0,3.6c-0.2,1.2-0.2,2.3-0.2,3.4c0,1.3,0,2.5,0,3.6
			c0,1.3,0,2.6,0,3.9c0,1.1,0,2.4,0,3.6c-0.2,1.3-0.2,2.6-0.2,3.9c0,1.3,0,2.5,0,3.6c0,1.3,0,2.6,0,3.9c0,1.3,0,2.6,0,3.9
			c0,1.3,0,2.6,0,3.9c0,1.3,0,2.6,0,3.9c0.2,1.3,0.2,2.6,0.2,3.9c0,1.3,0,2.6,0,3.9c0.2,1.3,0.2,2.6,0.2,3.9c0,1.3,0.1,2.6,0.2,3.9
			c0,1.2,0.1,2.4,0.2,3.6c0,1.3,0.1,2.6,0.2,3.9c0.2,1.3,0.2,2.5,0.2,3.6c0.2,1.3,0.3,2.5,0.5,3.6c0,1.2,0.1,2.4,0.2,3.6
			c0.2,1.2,0.2,2.3,0.2,3.4c0.2,1.2,0.3,2.3,0.5,3.4c0,1.2,0.1,2.2,0.2,3.2c0.2,1.2,0.2,2.2,0.2,3.2c0.2,1,0.2,2,0.2,3
			c0.2,1,0.3,2,0.5,3c0,0.9,0.1,1.8,0.2,2.8c0,0.9,0.1,1.7,0.2,2.6c0,0.9,0,1.6,0,2.4c0.2,0.9,0.2,1.6,0.2,2.4
			c0,0.7,0.1,1.4,0.2,2.1c0,0.6,0,1.2,0,1.9c0,0.6,0,1.1,0,1.7c0,0.4,0,0.9,0,1.5c0,0.3-0.1,0.6-0.2,1.1c0,0.4,0,0.8,0,1.1
			c-0.2,0.3-0.2,0.6-0.2,0.9c-0.2,0.1-0.3,0.3-0.5,0.4c0,0.1-0.2,0.2-0.5,0.2c-0.3,0.1-0.6,0.2-1,0.2c-0.6,0.2-1.2,0.2-1.6,0.2
			c-0.8,0-1.6,0.1-2.4,0.2c-0.9,0-1.8,0-2.6,0c-1.1,0.1-2.2,0.2-3.3,0.2c-1.1,0-2.3,0-3.5,0c-1.3,0.1-2.5,0.2-3.8,0.2
			c-1.2,0-2.5,0-3.8,0c-1.4,0-2.8,0-4.2,0c-1.4,0-2.8,0-4.3,0c-1.4,0-2.8,0-4.2,0c-1.2,0-2.6,0-4,0c-1.4,0-2.7-0.1-4-0.2
			c-1.2,0-2.5,0-3.8,0c-1.3,0-2.4-0.1-3.5-0.2c-1.1,0-2.2,0-3.3,0c-0.9-0.1-1.9-0.2-2.8-0.2c-0.8-0.2-1.6-0.2-2.4-0.2
			c-0.6-0.1-1.3-0.3-1.9-0.4c-0.3,0-0.7-0.1-1.2-0.2c-0.6-0.3-1.3-0.6-2.1-0.9c-0.5-0.1-0.9-0.4-1.2-0.9c-0.3-0.4-0.5-0.9-0.7-1.5
			c-0.3-1.1,0.2-6.8,0-8.6c-0.2-0.6-0.6-0.1-1.4,1.5c-0.3,0.4-0.8,0.9-1.4,1.5c-0.5,0.4-1,0.9-1.6,1.3c-0.5,0.4-1,0.9-1.6,1.3
			c-0.6,0.4-1.3,0.9-1.9,1.3c-0.6,0.4-1.3,0.9-1.9,1.3c-0.8,0.3-1.5,0.6-2.1,1.1c-0.6,0.3-1.3,0.6-2.1,0.9c-0.8,0.4-1.6,0.8-2.4,1.1
			c-0.8,0.3-1.6,0.5-2.4,0.6c-0.8,0.3-1.6,0.6-2.3,0.9c-1,0.1-1.8,0.3-2.6,0.6c-0.8,0.2-1.6,0.3-2.6,0.4c-0.9,0.1-1.8,0.3-2.6,0.4
			c-0.9,0.1-1.9,0.3-2.8,0.4c-0.8,0-1.6,0.1-2.6,0.2c-0.9,0-1.9,0-2.8,0s-1.9,0-2.8,0c-1,0-1.9-0.1-2.8-0.2c-0.9,0-1.9-0.1-2.8-0.2
			c-1-0.1-1.9-0.3-2.8-0.4c-1.1-0.1-2.1-0.3-3.1-0.4c-0.9-0.3-1.9-0.5-2.8-0.6c-0.9-0.3-1.9-0.6-2.8-0.9c-0.9-0.3-1.9-0.6-2.8-0.9
			c-0.9-0.4-1.9-0.8-2.8-1.1c-1-0.4-1.8-0.9-2.6-1.3c-0.9-0.4-1.9-0.9-2.8-1.3c-0.9-0.4-1.8-0.9-2.6-1.5c-0.9-0.6-1.8-1.2-2.6-1.7
			c-1-0.6-1.8-1.1-2.6-1.7c-0.8-0.7-1.6-1.4-2.6-1.9c-0.8-0.7-1.6-1.4-2.4-2.1c-0.8-0.7-1.6-1.5-2.3-2.4c-0.6-0.7-1.3-1.5-2.1-2.4
			c-0.8-0.9-1.5-1.7-2.1-2.6c-0.6-1-1.2-2-1.9-3c-0.8-0.9-1.4-1.8-1.9-2.8c-0.6-1-1.2-2-1.6-3c-0.6-1-1.2-2-1.6-3
			c-0.5-1-0.9-2-1.4-3c-0.5-1-0.9-2-1.4-3c-0.3-1.2-0.7-2.2-1.2-3.2c-0.3-1-0.6-2.1-0.9-3.2c-0.5-1-0.9-2-1.2-3
			c-0.3-1.1-0.5-2.2-0.7-3.2c-0.3-1.2-0.6-2.3-0.9-3.4c-0.2-1-0.4-2.1-0.7-3.2c-0.2-1-0.3-2.1-0.5-3.2c-0.2-1.2-0.3-2.2-0.5-3.2
			c-0.2-1.1-0.3-2.3-0.5-3.4c-0.2-1-0.3-2.1-0.5-3.2c0-1.1-0.1-2.2-0.2-3.2c0-1.1-0.1-2.2-0.2-3.2c0-1.2,0-2.3,0-3.4
			c0-1,0-2.1,0-3.2c-0.2-1-0.2-2.1,0-3.2c0-1,0-2.1,0-3.2c0-1,0-2.1,0-3.2c0.2-1,0.2-2,0.2-3c0.2-1,0.2-2.1,0.2-3.2
			c0.2-1,0.3-2,0.5-3c0-1,0.1-2,0.2-3c0.2-1,0.3-2,0.5-3c0.2-0.9,0.3-1.8,0.5-2.8c0.2-1,0.3-1.9,0.5-2.8c0.2-1,0.3-1.9,0.5-2.8
			c0.2-1,0.3-1.9,0.5-2.8c0.2-0.9,0.3-1.7,0.5-2.6c0.3-0.9,0.6-1.7,0.7-2.6c0.2-0.9,0.3-1.7,0.5-2.6c0.3-0.7,0.6-1.5,0.7-2.4
			c0.2-0.7,0.4-1.4,0.7-2.1c0.2-0.7,0.4-1.5,0.7-2.4c0.2-0.6,0.3-1.2,0.5-1.9c0.3-0.7,0.6-1.4,0.7-2.1c0.3-0.6,0.6-1.1,0.7-1.7
			s0.4-1.2,0.7-1.9c0.2-0.4,0.4-0.9,0.7-1.5c0.2-0.6,0.4-1.1,0.7-1.5c0.2-0.6,0.3-1.1,0.5-1.5c0.3-0.4,0.6-0.9,0.7-1.3
			c0.2-0.3,0.4-0.6,0.7-1.1c0.2-0.3,0.3-0.6,0.5-1.1c0.2-0.3,0.4-0.6,0.7-0.9c0.2-0.1,0.3-0.4,0.5-0.6c0.2-0.1,0.3-0.3,0.5-0.4
			c0.2-0.1,0.3-0.3,0.5-0.4c0.2-0.1,0.3-0.2,0.3-0.2c0.8-0.1,1.4-0.3,2-0.4c0.8-0.1,1.6-0.3,2.4-0.4c1.1-0.1,2.1-0.3,3-0.4
			c1.1,0,2.2-0.1,3.3-0.2c1.3,0,2.5-0.1,3.8-0.2c1.2,0,2.5-0.1,3.8-0.2c1.4,0,2.8,0,4,0c1.3,0,2.6,0,4,0c1.3,0,2.5,0,3.8,0
			c1.1,0,2.3,0.1,3.5,0.2c1.1,0,2.2,0,3.3,0c0.9,0.1,1.8,0.2,2.6,0.2c0.8,0.2,1.6,0.3,2.4,0.4c0.6,0,1.2,0.1,1.6,0.2
			c0.3,0.1,0.6,0.3,0.9,0.4c0,0.1,0,0.3,0,0.4c0,0.2,0,0.3,0,0.4c0,0.3,0,0.6,0,0.9c0,0.3,0,0.6,0,1.1c0,0.4-0.1,0.9-0.2,1.3
			c0,0.6-0.1,1.1-0.2,1.5c0,0.6-0.1,1.2-0.2,1.7c0,0.7-0.1,1.4-0.2,1.9c0,0.7-0.1,1.4-0.2,2.1c-0.2,0.7-0.2,1.5-0.2,2.4
			c-0.2,0.7-0.3,1.5-0.5,2.4c-0.2,0.9-0.2,1.7-0.2,2.6c-0.2,1-0.3,1.9-0.5,2.8c-0.2,1-0.2,1.9-0.2,2.8c-0.2,1-0.3,2-0.5,3
			c0,1-0.1,2-0.2,3c-0.2,1-0.2,2.1-0.2,3.2c-0.2,1-0.3,2.1-0.5,3.2c0,1-0.1,2.1-0.2,3.2c0,1,0,2.1,0,3.2c-0.2,1.1-0.2,2.3-0.2,3.4
			c0,1.2,0,2.2,0,3.2c-0.2,1.1-0.2,2.3-0.2,3.4c0,1.2,0,2.3,0,3.4c0.2,1,0.2,2.1,0.2,3.2c0,1.2,0.1,2.3,0.2,3.4c0,1,0.1,2.1,0.2,3.2
			c0,1,0.1,2.1,0.2,3.2c0.2,1,0.3,2,0.5,3c0.2,1,0.4,2,0.7,3c0.2,1,0.3,2,0.5,3c0.3,1,0.6,1.9,0.9,2.8c0.3,1,0.6,1.9,0.9,2.8
			c0.3,0.9,0.6,1.7,0.9,2.6c0.3,0.9,0.7,1.7,1.2,2.4c0.5,0.9,1,1.6,1.4,2.4c0.5,0.7,0.9,1.4,1.4,2.1c0.5,0.7,1,1.4,1.6,1.9
			c0.5,0.6,1,1.2,1.6,1.7c0.6,0.6,1.3,1.1,2.1,1.5c0.6,0.4,1.3,0.9,2.1,1.3c0.8,0.4,1.6,0.8,2.4,1.1c0.8,0.3,1.6,0.6,2.4,0.9
			c0.9,0.1,1.9,0.3,2.8,0.4c1,0.2,1.9,0.3,2.8,0.4c0.8,0,1.6-0.1,2.6-0.2c0.8,0,1.6-0.1,2.4-0.2c0.8-0.3,1.6-0.6,2.4-0.9
			c0.8-0.3,1.5-0.6,2.1-0.9c0.8-0.4,1.5-0.9,2.1-1.3c0.6-0.4,1.2-0.9,1.9-1.5c0.6-0.6,1.2-1.1,1.6-1.7c0.6-0.7,1.2-1.4,1.6-2.1
			c0.6-0.7,1.2-1.4,1.6-2.1c0.5-0.9,0.9-1.7,1.4-2.6c0.3-0.9,0.7-1.7,1.2-2.6c0.5-0.9,0.9-1.8,1.2-2.8c0.3-0.9,0.6-1.8,0.9-2.8
			c0.5-1,0.9-2.1,1.2-3.2c0.2-1,0.4-2.1,0.7-3.2c0.3-1,0.6-2.1,1-3.2c0.2-1.2,0.4-2.3,0.7-3.4c0.2-1.1,0.3-2.3,0.5-3.4
			c0.2-1.2,0.4-2.3,0.7-3.4c0.2-1.3,0.3-2.5,0.5-3.6c0.2-1.1,0.2-2.4,0.2-3.6c0.2-1.1,0.3-2.3,0.5-3.4c0.2-1.3,0.2-2.5,0.2-3.6
			c0.2-1.2,0.2-2.4,0.2-3.6c0.2-1.2,0.2-2.3,0.2-3.4c0.2-1.1,0.2-2.3,0.2-3.4c0-1.2,0.1-2.3,0.2-3.4c0-1.1,0-2.3,0-3.4
			c0-1,0.1-2.1,0.2-3.2c0-1,0-2,0-3c0-1,0-2,0-3c0-0.9,0-1.8,0-2.8c0-0.9,0-1.7,0-2.6c0.2-0.9,0.2-1.7,0.2-2.6c0-0.7,0-1.5,0-2.4
			c0-0.6,0-1.2,0-1.9c0-0.6,0-1.2,0-1.9c0-0.4,0.1-0.9,0.2-1.5c0-0.4,0-0.9,0-1.3c0-0.4,0.1-0.8,0.2-1.1c0-0.3,0-0.6,0-0.9
			c0.2-0.1,0.2-0.3,0.2-0.4c0.3-0.1,0.6-0.3,0.7-0.4c0.6-0.1,1.2-0.2,1.6-0.2c0.6-0.1,1.3-0.3,2.1-0.4c0.9-0.1,1.9-0.3,2.8-0.4
			c1.1,0,2.2-0.1,3.3-0.2c1.1-0.1,2.3-0.2,3.5-0.2c1.3-0.1,2.6-0.2,4-0.2c1.3-0.1,2.6-0.2,4-0.2s2.8-0.1,4.2-0.2c1.4,0,2.8,0,4.3,0
			c1.2,0,2.6,0,4,0c1.3,0,2.5,0,3.8,0c1.3,0.1,2.5,0.2,3.8,0.2c0.9,0,2,0.1,3,0.2c1,0.2,1.9,0.2,2.8,0.2c0.6,0.1,1.3,0.3,2.1,0.4
			C685.4,351.1,685.9,351.3,686.4,351.4z"/>
	</g>
</g>
</svg>
