<?xml version="1.0" encoding="utf-8"?>
<!-- Generator: Adobe Illustrator 18.0.0, SVG Export Plug-In . SVG Version: 6.00 Build 0)  -->
<!DOCTYPE svg PUBLIC "-//W3C//DTD SVG 1.1//EN" "http://www.w3.org/Graphics/SVG/1.1/DTD/svg11.dtd">
<svg version="1.1" id="Camada_1" xmlns="http://www.w3.org/2000/svg" xmlns:xlink="http://www.w3.org/1999/xlink" x="0px" y="0px"
	 viewBox="0 0 1024 768" enable-background="new 0 0 1024 768" xml:space="preserve">
<g>
	<defs>
		<circle id="SVGID_1_" cx="511.9" cy="383.4" r="375.7"/>
	</defs>
	<clipPath id="SVGID_2_">
		<use xlink:href="#SVGID_1_"  overflow="visible"/>
	</clipPath>
	<g clip-path="url(#SVGID_2_)" enable-background="new    ">
		
			<image overflow="visible" width="2474" height="2474" xlink:href="../../banco de imagens/botões/butt 25.png"  transform="matrix(0.3065 0 0 0.3065 132.8006 4.7999)">
		</image>
	</g>
</g>
<g>
	<g>
		<path d="M558.5,281.9c5.5,12-3.8,33.6-6.2,38.8c-2.4,5.2-15.1,31.3-19.3,37.7c-9.1,13.4-17.6,17.7-27.4,14.7
			c-9.8-3-19.1-27.8-32.4-40.2c-10-8-18.1-12.6-21.5-1c-3.4,11.7,13.7,15.5,24.8,21.6c11.1,6.1,19.5,8.1,31.3,13.1
			c11.7,5,25.1,19.8,34.7,30.5c9.6,10.7,20.6,42.3,21.6,51.4c1.1,9,0.8,31.2-6,50.5c-6.8,19.4-27.6,36.1-44.8,43
			c-17.1,6.9-37.5,12-55.6,12.6c-18,0.6-48.7-0.6-64.3-7c-15.6-6.5-38.6-15.5-42.8-19.6c-4.1-4.1,0.7-39.2,4.9-61.5
			c4.2-22.3,17.2-70.5,40.6-55c6.7,5.3,27.4,28.4,36.2,33.7c8.8,5.3,17,7.2,20.4,0.8c3.4-6.4-1.8-10.6-5.7-12.8
			c-3.9-2.3-14.7-6.9-28.9-12c-14.2-5.1-33.8-14.7-46.4-23.3c-12.5-8.6-23.7-30.7-25.6-49.2c-1.8-18.5-2.9-31.9,2.4-51.6
			c5.2-19.7,15.9-34.6,22.8-41.3c6.9-6.7,29-22,42.7-24.6c18.3-3.6,31.4-6.9,58.6-2.2c27.2,4.6,43.3,14.5,50.2,18.7
			C536.6,256.2,553.7,269.5,558.5,281.9z"/>
		<path fill="#FFFFFF" d="M531.4,296c0,0.7,0,1.3,0,2c0,0.8,0,1.6,0,2.5c0,0.8-0.1,1.7-0.2,2.7c0,0.8-0.1,1.7-0.2,2.7
			c-0.2,1-0.3,2-0.5,2.9c-0.2,1-0.3,2.1-0.5,3.2c-0.2,1-0.4,2-0.7,2.9c-0.2,1.1-0.4,2.3-0.7,3.4c-0.3,1-0.6,2.1-0.9,3.2
			c-0.3,1.1-0.6,2.3-0.9,3.4c-0.3,1.1-0.6,2.2-0.9,3.2c-0.3,1.1-0.7,2.3-1.1,3.4c-0.3,1-0.6,2-0.9,3.2c-0.5,1-0.8,2.1-1.1,3.2
			c-0.5,1-0.8,2-1.1,2.9c-0.5,1-0.8,2-1.1,2.9c-0.5,1-0.8,1.9-1.1,2.7c-0.5,1-0.8,1.9-1.1,2.7c-0.5,0.8-0.9,1.6-1.4,2.5
			c-0.3,0.7-0.6,1.3-0.9,2c-0.5,0.7-0.8,1.3-1.1,2c-0.3,0.5-0.7,1-1.1,1.5c-0.3,0.3-0.6,0.7-0.9,1.2c-0.3,0.3-0.6,0.6-0.9,0.7
			c-0.3,0.3-0.6,0.5-0.9,0.5c-0.2,0.2-0.4,0.2-0.7,0.2c-0.3,0-0.5-0.2-0.7-0.5c-0.2-0.2-0.3-0.4-0.5-0.7c-0.6-1.1-1.2-2.3-1.8-3.4
			c-0.5-1.1-1-2.2-1.6-3.2c-0.6-1.1-1.2-2.2-1.8-3.2c-0.6-1.1-1.3-2.2-2.1-3.2c-0.6-1-1.2-2-1.8-2.9c-0.8-1-1.5-2-2.1-2.9
			c-0.8-0.8-1.4-1.7-2.1-2.7c-0.8-0.8-1.4-1.6-2.1-2.5c-0.8-1-1.5-1.9-2.3-2.7c-0.8-0.8-1.5-1.6-2.1-2.2c-0.8-0.8-1.5-1.6-2.3-2.2
			c-0.8-0.8-1.5-1.6-2.3-2.2c-0.8-0.7-1.5-1.3-2.3-2c-0.8-0.7-1.5-1.3-2.3-2c-0.6-0.7-1.4-1.2-2.3-1.7c-0.6-0.5-1.3-1.1-2.1-1.7
			c-0.8-0.5-1.5-1-2.3-1.5c-0.8-0.3-1.5-0.7-2.3-1.2s-1.5-0.9-2.3-1.2c-0.8-0.3-1.5-0.7-2.3-1c-0.6-0.3-1.3-0.7-2.1-1
			c-0.8-0.3-1.5-0.6-2.3-0.7c-0.6-0.3-1.3-0.6-2.1-0.7c-0.6-0.2-1.3-0.3-2.1-0.5c-0.6,0-1.3-0.1-2.1-0.2c-0.6-0.2-1.3-0.2-2.1-0.2
			c-0.6,0-1.2,0-1.8,0c-0.6,0-1.2,0.1-1.8,0.2c-0.6,0-1.2,0.1-1.8,0.2c-0.6,0.2-1.1,0.3-1.6,0.5c-0.6,0.2-1.1,0.3-1.6,0.5
			c-0.6,0.2-1.1,0.4-1.6,0.7c-0.5,0.3-0.9,0.7-1.4,1c-0.5,0.3-0.9,0.7-1.4,1c-0.5,0.5-0.9,1-1.4,1.5c-0.3,0.3-0.7,0.7-1.1,1.2
			c-0.3,0.5-0.6,1.1-0.9,1.7c-0.3,0.5-0.6,1.1-0.9,1.7c-0.3,0.7-0.6,1.3-0.9,2c-0.2,0.7-0.3,1.4-0.5,2.2c-0.3,0.7-0.5,1.4-0.7,2.2
			c-0.2,0.8-0.2,1.6-0.2,2.5c-0.2,1-0.2,1.9-0.2,2.7c-0.2,1-0.2,2-0.2,2.9c0,0.8,0.1,1.7,0.2,2.7c0,1,0.1,1.9,0.5,2.7
			c0.2,0.8,0.3,1.6,0.5,2.5c0.3,0.8,0.6,1.6,0.9,2.2c0.3,0.8,0.7,1.6,1.1,2.2c0.5,0.7,0.9,1.3,1.4,2c0.5,0.5,0.9,1.1,1.4,1.7
			c0.6,0.5,1.2,1.1,1.8,1.7c0.6,0.5,1.2,1,1.8,1.5c0.6,0.5,1.3,0.9,2.1,1.2c0.8,0.5,1.4,1,2.1,1.5c0.8,0.3,1.6,0.7,2.5,1.2
			c0.8,0.3,1.5,0.7,2.3,1c0.9,0.5,1.7,0.9,2.5,1.2c0.9,0.3,1.8,0.7,2.7,1c0.9,0.3,1.8,0.7,2.7,1c0.9,0.3,1.9,0.7,3,1
			c0.9,0.3,1.8,0.7,2.7,1c1.1,0.3,2.1,0.7,3,1c1.1,0.3,2.1,0.7,3.2,1.2c0.9,0.3,1.9,0.7,3,1c1.1,0.3,2.1,0.7,3,1
			c1.1,0.5,2.1,0.9,3.2,1.2c1.1,0.5,2.1,0.9,3,1.2c1.1,0.5,2.1,1,3.2,1.5c0.9,0.5,1.9,1,3,1.5c1.1,0.5,2.1,1,3,1.5
			c1.1,0.7,2.1,1.2,3,1.7c0.9,0.7,1.9,1.3,3,2c0.9,0.7,1.8,1.3,2.7,2c0.8,0.7,1.5,1.3,2.3,2c0.9,0.7,1.7,1.3,2.5,2
			c0.8,0.7,1.5,1.3,2.3,2c0.6,0.7,1.3,1.4,2.1,2.2c0.8,0.7,1.4,1.4,2.1,2.2c0.6,0.7,1.3,1.4,2.1,2.2c0.6,0.8,1.2,1.6,1.8,2.2
			c0.6,0.8,1.2,1.6,1.8,2.5c0.6,0.8,1.1,1.6,1.6,2.5c0.6,0.8,1.1,1.6,1.6,2.5c0.6,0.8,1.1,1.7,1.6,2.7c0.5,0.8,0.9,1.6,1.4,2.5
			c0.5,1,0.9,1.9,1.4,2.7c0.5,1,0.9,1.9,1.4,2.7c0.3,1,0.7,2,1.1,2.9c0.3,0.8,0.7,1.7,1.1,2.7c0.3,1,0.6,2,0.9,2.9
			c0.3,1,0.6,2,0.9,2.9c0.3,1,0.5,2,0.7,2.9c0.3,1,0.6,2,0.9,2.9c0.1,1,0.3,2,0.5,2.9c0.1,1.1,0.4,2.2,0.7,3.2
			c0.1,1,0.2,2.1,0.2,3.2c0.1,1,0.3,2,0.5,2.9c0.1,1.1,0.2,2.2,0.2,3.2c0,1.1,0.1,2.2,0.2,3.2c0,1.1,0,2.3,0,3.4c0,1,0,2.1,0,3.2
			c0,1.1-0.1,2.2-0.2,3.2c0,1.1-0.1,2.3-0.2,3.4c0,1.1-0.1,2.2-0.2,3.2c-0.2,1.1-0.3,2.3-0.5,3.4c-0.2,1.1-0.3,2.3-0.5,3.4
			c-0.2,1-0.3,2.1-0.5,3.2c-0.3,1-0.5,2-0.7,2.9c-0.2,1-0.4,2-0.7,2.9c-0.3,1-0.5,2-0.7,2.9c-0.3,0.8-0.6,1.7-0.9,2.7
			c-0.3,0.8-0.6,1.7-0.9,2.7c-0.3,0.8-0.7,1.7-1.1,2.7c-0.3,0.8-0.7,1.6-1.1,2.5c-0.3,0.8-0.7,1.6-1.1,2.5c-0.3,0.8-0.7,1.6-1.1,2.5
			c-0.5,0.8-0.9,1.6-1.4,2.2c-0.6,0.8-1.1,1.6-1.6,2.2c-0.5,0.8-1,1.6-1.6,2.2c-0.5,0.7-1,1.4-1.6,2.2c-0.6,0.7-1.2,1.3-1.8,2
			c-0.6,0.7-1.2,1.3-1.8,2c-0.6,0.5-1.2,1.1-1.8,1.7c-0.8,0.7-1.4,1.2-2.1,1.7c-0.8,0.7-1.5,1.2-2.3,1.7c-0.8,0.5-1.5,1.1-2.3,1.7
			c-0.8,0.5-1.5,1-2.3,1.5c-0.9,0.5-1.8,1-2.5,1.5c-0.9,0.5-1.8,0.9-2.7,1.2c-0.9,0.5-1.8,0.9-2.7,1.2c-0.9,0.5-1.8,0.9-2.7,1.2
			c-1.1,0.5-2.1,0.9-3,1.2c-1.1,0.3-2.1,0.7-3.2,1c-1.1,0.3-2.1,0.7-3.2,1c-1.1,0.3-2.1,0.7-3.2,1c-1.2,0.3-2.4,0.6-3.4,0.7
			c-1.2,0.3-2.4,0.6-3.7,0.7c-1.2,0.3-2.4,0.6-3.7,0.7c-1.4,0.2-2.7,0.3-3.9,0.5c-1.4,0.2-2.7,0.3-4.1,0.5c-1.4,0.2-2.7,0.3-4.1,0.5
			c-1.4,0.2-2.7,0.3-4.1,0.5c-1.5,0-3,0.1-4.6,0.2c-1.5,0-3,0-4.3,0c-1.7,0.2-3.3,0.2-4.8,0.2c-1.5,0-3.1,0-4.8,0
			c-1.1,0-2.1,0-3.2,0c-1.1-0.2-2.1-0.2-3.2-0.2c-1.1-0.2-2.1-0.3-3.2-0.5c-1.2,0-2.4-0.1-3.4-0.2c-1.2-0.3-2.4-0.6-3.4-0.7
			c-1.2-0.2-2.4-0.4-3.4-0.7c-1.2-0.2-2.4-0.4-3.4-0.7c-1.2-0.3-2.4-0.7-3.7-1c-1.1-0.3-2.2-0.7-3.4-1c-1.1-0.3-2.2-0.7-3.4-1.2
			c-1.1-0.3-2.2-0.7-3.4-1.2c-1.1-0.3-2.1-0.7-3.2-1.2c-1.1-0.3-2.1-0.7-3.2-1.2c-1.1-0.5-2.1-1-3.2-1.5c-0.9-0.5-1.9-1-3-1.5
			c-0.9-0.5-1.8-1-2.7-1.5c-0.9-0.5-1.8-1.1-2.7-1.7c-0.9-0.5-1.8-1-2.5-1.5c-0.8-0.7-1.5-1.2-2.3-1.7c-0.8-0.5-1.5-1.1-2.3-1.7
			c-0.6-0.5-1.2-1.1-1.8-1.7c-0.6-0.5-1.1-1.1-1.6-1.7c-0.5-0.5-0.9-1.1-1.4-1.7c-0.5-0.5-0.8-1.1-1.1-1.7c-0.3-0.5-0.6-1.1-0.9-1.7
			c-0.2-0.5-0.3-1.1-0.5-1.7c-0.2-0.5-0.2-1-0.2-1.5c0-0.7,0-1.3,0-2c0-0.8,0.1-1.6,0.2-2.5c0-0.8,0.1-1.6,0.2-2.5
			c0.1-1,0.3-2,0.5-2.9c0.2-1,0.3-2,0.5-2.9c0.1-1.1,0.4-2.2,0.7-3.2c0.3-1.1,0.5-2.3,0.7-3.4c0.3-1.1,0.6-2.3,0.9-3.4
			c0.3-1.3,0.6-2.5,0.9-3.7c0.3-1.3,0.7-2.5,1.1-3.7c0.3-1.3,0.7-2.6,1.1-3.9c0.3-1.3,0.7-2.5,1.1-3.7c0.3-1.3,0.7-2.6,1.1-3.9
			c0.3-1.3,0.7-2.5,1.1-3.7c0.5-1.3,0.9-2.5,1.4-3.7c0.3-1.3,0.7-2.5,1.1-3.7c0.5-1.1,0.9-2.3,1.4-3.4c0.3-1.1,0.7-2.3,1.1-3.4
			c0.5-1,0.8-2,1.1-3.2c0.5-1,0.9-2,1.4-2.9c0.3-1,0.7-1.9,1.1-2.7c0.3-0.8,0.6-1.6,0.9-2.5c0.5-0.8,0.8-1.6,1.1-2.2
			c0.3-0.7,0.6-1.3,0.9-2c0.3-0.5,0.6-1,0.9-1.5c0.2-0.3,0.4-0.7,0.7-1.2c0.2-0.2,0.4-0.4,0.7-0.7c0.1-0.2,0.3-0.2,0.5-0.2
			c0.1,0,0.3,0,0.5,0c0.3,0.3,0.5,0.6,0.7,0.7c0.3,0.3,0.6,0.7,0.9,1c0.3,0.3,0.6,0.7,0.9,1.2c0.3,0.3,0.7,0.7,1.1,1
			c0.5,0.5,0.8,1,1.1,1.5c0.5,0.5,0.9,1,1.4,1.5c0.5,0.5,1,1,1.6,1.5c0.5,0.5,1,1.1,1.6,1.7c0.5,0.5,1,1.1,1.6,1.7
			c0.6,0.5,1.2,1.1,1.8,1.7c0.6,0.7,1.2,1.2,1.8,1.7c0.6,0.7,1.2,1.3,1.8,2c0.6,0.7,1.3,1.2,2.1,1.7c0.6,0.7,1.3,1.3,2.1,2
			c0.6,0.7,1.3,1.3,2.1,2c0.8,0.7,1.4,1.2,2.1,1.7c0.8,0.7,1.5,1.3,2.3,2c0.6,0.5,1.3,1.1,2.1,1.7c0.8,0.7,1.5,1.2,2.3,1.7
			c0.8,0.5,1.5,1.1,2.3,1.7c0.8,0.5,1.5,1,2.3,1.5c0.6,0.5,1.3,1,2.1,1.5c0.8,0.5,1.5,1,2.3,1.5c0.8,0.3,1.5,0.7,2.3,1.2
			c0.6,0.3,1.3,0.7,2.1,1c0.8,0.3,1.5,0.7,2.3,1c0.6,0.3,1.3,0.6,2.1,0.7c0.6,0.3,1.3,0.6,2.1,0.7c0.6,0.2,1.3,0.2,2.1,0.2
			c0.6,0.2,1.2,0.2,1.8,0.2c0.6,0.2,1.2,0.2,1.8,0c0.6,0,1.2-0.1,1.8-0.2c0.6,0,1.1-0.1,1.6-0.2c0.6-0.3,1.1-0.6,1.6-0.7
			c0.6-0.3,1.1-0.7,1.6-1c0.5-0.5,0.9-1,1.4-1.5c0.5-0.5,0.9-1,1.4-1.5c0.3-0.7,0.7-1.3,1.1-2c0.3-0.7,0.6-1.4,0.9-2.2
			c0.3-0.8,0.6-1.6,0.9-2.5c0.3-1,0.5-2,0.7-2.9c0.3-1,0.5-2,0.7-2.9c0.2-1,0.2-1.9,0.2-2.7c0-0.8,0-1.7,0-2.7c0-0.8,0-1.6,0-2.5
			c-0.2-0.7-0.3-1.4-0.5-2.2c-0.2-0.8-0.4-1.6-0.7-2.2c-0.2-0.7-0.4-1.3-0.7-2c-0.3-0.7-0.7-1.3-1.1-2c-0.3-0.7-0.7-1.3-1.1-2
			c-0.5-0.5-0.9-1.1-1.4-1.7c-0.5-0.5-1-1.1-1.6-1.7c-0.6-0.5-1.2-1-1.8-1.5c-0.6-0.5-1.2-1-1.8-1.5c-0.6-0.5-1.3-1-2.1-1.5
			c-0.8-0.5-1.4-0.9-2.1-1.2c-0.8-0.5-1.6-0.9-2.5-1.2c-0.8-0.5-1.5-0.9-2.3-1.2c-0.9-0.5-1.8-0.9-2.7-1.2c-0.9-0.5-1.8-0.9-2.7-1.2
			c-0.9-0.3-1.8-0.7-2.7-1c-0.9-0.5-1.9-0.9-3-1.2c-0.9-0.3-1.9-0.7-3-1c-1.1-0.3-2.1-0.7-3-1.2c-1.1-0.3-2.1-0.7-3.2-1
			c-1.1-0.3-2.1-0.7-3.2-1c-1.2-0.3-2.4-0.7-3.4-1c-1.1-0.3-2.2-0.7-3.4-1.2c-1.1-0.3-2.2-0.7-3.4-1c-1.1-0.3-2.2-0.7-3.4-1.2
			c-1.1-0.3-2.2-0.7-3.4-1c-0.8-0.3-1.5-0.7-2.3-1c-0.8-0.3-1.5-0.7-2.3-1c-0.8-0.5-1.5-1-2.3-1.5c-0.8-0.3-1.4-0.8-2.1-1.5
			c-0.8-0.5-1.4-1-2.1-1.5c-0.8-0.7-1.4-1.3-2.1-2c-0.6-0.7-1.3-1.3-2.1-2c-0.6-0.7-1.2-1.4-1.8-2.2c-0.6-0.7-1.1-1.4-1.6-2.2
			c-0.6-0.8-1.2-1.6-1.8-2.5c-0.5-0.8-1-1.6-1.6-2.5c-0.5-1-0.9-1.9-1.4-2.7c-0.6-1-1.1-2-1.4-2.9c-0.5-1-0.9-2-1.4-2.9
			s-0.8-2-1.1-2.9c-0.5-1.1-0.8-2.2-1.1-3.2c-0.5-1.1-0.8-2.3-1.1-3.4c-0.3-1.1-0.6-2.2-0.9-3.2c-0.2-1.1-0.4-2.4-0.7-3.7
			c-0.2-1.1-0.4-2.3-0.7-3.4c-0.2-1.1-0.3-2.4-0.5-3.7c-0.2-1.1-0.3-2.4-0.5-3.7c-0.2-1.1-0.2-2.4-0.2-3.7c-0.2-1.1-0.2-2.4-0.2-3.7
			c0-1.3,0-2.6,0-3.9c0-1.3,0.1-2.5,0.2-3.7c0-1.6,0.1-3.4,0.2-5.2c0.1-1.5,0.3-3,0.5-4.7c0.1-1.5,0.4-3,0.7-4.7
			c0.2-1.5,0.4-2.9,0.7-4.4c0.3-1.3,0.6-2.7,0.9-4.2c0.3-1.3,0.6-2.6,0.9-3.9c0.5-1.3,0.8-2.6,1.1-3.9c0.5-1.3,0.9-2.6,1.4-3.9
			c0.5-1.1,0.9-2.3,1.4-3.4c0.5-1.1,1-2.3,1.6-3.4c0.5-1.1,1-2.3,1.6-3.4c0.5-1,1-2,1.6-2.9c0.6-1.1,1.2-2.2,1.8-3.2
			c0.6-0.8,1.2-1.7,1.8-2.7c0.6-1,1.3-1.9,2.1-2.7c0.6-0.8,1.3-1.7,2.1-2.7c0.8-0.8,1.4-1.6,2.1-2.2c0.8-0.8,1.5-1.6,2.3-2.5
			c0.8-0.7,1.5-1.4,2.3-2.2c0.8-0.7,1.6-1.3,2.5-2c0.8-0.7,1.5-1.2,2.3-1.7c0.8-0.7,1.6-1.3,2.5-2c0.8-0.5,1.6-1,2.5-1.5
			c0.9-0.7,1.7-1.2,2.5-1.7c0.9-0.5,1.8-0.9,2.7-1.2c0.8-0.5,1.6-1,2.5-1.5c0.9-0.3,1.8-0.7,2.7-1.2c0.9-0.3,1.8-0.7,2.7-1
			c0.9-0.3,1.8-0.7,2.7-1c0.9-0.3,1.8-0.6,2.7-0.7c0.9-0.3,1.8-0.6,2.7-0.7c0.9-0.3,1.8-0.6,2.7-0.7c0.9-0.2,1.8-0.3,2.7-0.5
			c1.1-0.2,2.1-0.3,3-0.5c0.9-0.2,1.8-0.3,2.7-0.5c0.9-0.2,1.8-0.2,2.7-0.2c0.9-0.2,1.8-0.2,2.7-0.2c0.9,0,1.8,0,2.7,0
			c1.1-0.2,2.1-0.2,3.2,0c1.1,0,2.1,0,3.2,0c1.1,0.2,2.1,0.2,3.2,0.2c1.1,0.2,2.2,0.3,3.4,0.5c1.1,0.2,2.1,0.4,3.2,0.7
			c1.1,0.2,2.2,0.4,3.4,0.7c1.1,0.2,2.1,0.4,3.2,0.7c1.2,0.3,2.4,0.7,3.4,1c1.1,0.3,2.1,0.7,3.2,1.2c1.2,0.3,2.4,0.7,3.4,1
			c1.1,0.5,2.1,1,3.2,1.5c1.2,0.3,2.4,0.7,3.4,1.2c1.1,0.5,2.1,1,3.2,1.5c1.1,0.5,2.1,1,3.2,1.5c0.9,0.7,1.9,1.2,3,1.7
			c1.1,0.5,2.1,1.1,3,1.7c1.1,0.5,2.1,1.1,3,1.7c1.1,0.7,2.1,1.2,3,1.7c0.9,0.7,1.8,1.3,2.7,2c0.9,0.5,1.8,1.1,2.7,1.7
			c0.8,0.7,1.6,1.3,2.5,2c0.8,0.7,1.5,1.3,2.3,2c0.8,0.7,1.5,1.3,2.3,2c0.8,0.7,1.5,1.3,2.3,2c0.6,0.7,1.3,1.3,2.1,2
			c0.6,0.5,1.2,1.1,1.8,1.7c0.6,0.7,1.1,1.3,1.6,2c0.6,0.7,1.1,1.3,1.6,2c0.5,0.7,0.9,1.3,1.4,2c0.3,0.7,0.7,1.2,1.1,1.7
			c0.3,0.7,0.6,1.3,0.9,2c0.1,0.5,0.4,1.1,0.7,1.7c0.1,0.5,0.3,1.1,0.5,1.7C531.1,294.7,531.3,295.4,531.4,296z"/>
	</g>
	<g>
		<path d="M624.6,225.3c1.3,0.4,2.5,0.8,3.8,1.4c1.3,0.6,2.5,1.2,3.8,2c1,0.6,2.2,1.2,3.5,2c1.1,0.6,2.1,1.3,3.2,2.3
			c1.1,0.7,2,1.5,2.9,2.2c1,0.7,2,1.6,2.9,2.5c0.8,0.9,1.7,1.9,2.5,2.8c0.8,0.9,1.6,1.9,2.2,2.8c0.6,0.9,1.3,2,1.9,3.1
			c0.6,0.9,1.3,2,1.9,3.1c0.4,0.9,0.8,2,1.3,3.1c0.6,1.1,1,2.3,1.3,3.4c0.4,1.1,0.7,2.2,1,3.4c0.2,1.1,0.4,2.2,0.6,3.4
			c0.2,1.1,0.3,2.3,0.3,3.4c0,1.1,0,2.3,0,3.6c-0.2,1.1-0.3,2.2-0.3,3.4c-0.2,1.1-0.5,2.3-1,3.4c-0.2,1.3-0.5,2.5-1,3.6
			c-0.4,1.1-0.9,2.2-1.3,3.4c-0.4,1.1-1,2.2-1.6,3.1c-0.6,1.1-1.3,2.2-1.9,3.1c-0.6,1.1-1.4,2.2-2.2,3.1c-0.6,0.9-1.4,1.9-2.2,2.8
			c-0.8,0.9-1.7,1.9-2.5,2.8c-0.9,0.8-1.8,1.5-2.9,2.3c-0.8,0.9-1.8,1.8-2.9,2.5c-1,0.8-2.1,1.4-3.2,2c-1,0.8-2.2,1.4-3.5,2
			c-1,0.6-2.2,1.1-3.5,1.7c-1.1,0.6-2.2,1.1-3.5,1.7c-1.3,0.4-2.5,0.8-3.8,1.1c-1.3,0.4-2.5,0.8-3.8,1.1c-1.5,0.4-2.8,0.7-4.1,0.8
			c-1.3,0.2-2.6,0.4-4.1,0.6c-1.5,0.2-2.9,0.3-4.1,0.3c-1.5,0.2-3,0.3-4.4,0.3c-1.3-0.2-2.6-0.3-4.1-0.3c-1.5-0.2-3-0.4-4.5-0.5
			c-1.5-0.2-3-0.5-4.4-0.8c-1.3-0.4-2.5-0.8-3.8-1.4c-1.5-0.4-2.8-0.8-3.8-1.4c-1.3-0.8-2.5-1.5-3.8-2.3c-1.1-0.5-2.1-1.3-3.2-2.2
			c-1.1-0.7-2-1.6-2.9-2.5c-1.1-0.9-2-1.9-2.9-2.8c-0.8-0.9-1.6-2-2.2-3.1c-0.8-1.1-1.6-2.2-2.2-3.4c-0.6-1.1-1.3-2.2-1.9-3.4
			c-0.6-1.1-1.2-2.3-1.6-3.4c-0.4-1.3-0.9-2.5-1.3-3.6c-0.4-1.3-0.7-2.5-0.9-3.6c-0.4-1.3-0.6-2.5-0.6-3.6c-0.2-1.3-0.4-2.5-0.6-3.6
			c0-1.3,0-2.5,0-3.6c0-1.3,0-2.5,0-3.6c0.2-1.1,0.3-2.2,0.3-3.4c0.2-1.1,0.5-2.2,1-3.4c0.2-1.1,0.5-2.3,0.9-3.4
			c0.4-1.1,1-2.2,1.6-3.1c0.4-1.1,1-2.2,1.6-3.1c0.6-1.1,1.3-2.2,1.9-3.1c0.6-0.9,1.4-1.9,2.2-2.8c0.9-1.1,1.7-2,2.5-2.8
			c0.8-0.9,1.7-1.9,2.5-2.8c0.8-0.7,1.8-1.6,2.9-2.5c1-0.8,2.1-1.5,3.2-2.3c1-0.7,2.1-1.4,3.2-2c1-0.7,2.2-1.4,3.5-2
			c1-0.6,2.2-1.1,3.5-1.7c1.1-0.5,2.2-1,3.5-1.4c1.3-0.4,2.5-0.8,3.8-1.1c1.3-0.4,2.5-0.8,3.8-1.1c1.3-0.2,2.5-0.4,3.8-0.5
			c1.5-0.2,2.9-0.3,4.1-0.3c1.3-0.2,2.5-0.3,3.8-0.3c1.5,0,2.9,0.1,4.1,0.3c1.3,0.2,2.5,0.4,3.8,0.6c1.3,0.2,2.6,0.5,4.1,0.8
			C622.1,224.3,623.3,224.7,624.6,225.3z"/>
		<path d="M569.8,345.5c0,0.2-0.1,0.5-0.3,0.8c0,0.4-0.1,0.7-0.3,1.1c-0.2,0.4-0.3,0.8-0.3,1.4c-0.2,0.5-0.4,1.1-0.6,1.7
			c0,0.7-0.1,1.4-0.3,1.9c-0.2,0.7-0.3,1.5-0.3,2.2c-0.2,0.9-0.4,1.7-0.7,2.5c-0.2,0.9-0.3,1.8-0.3,2.7c-0.2,1.1-0.4,2.1-0.6,3
			c-0.2,1.1-0.3,2.2-0.3,3.3c-0.2,1.1-0.4,2.2-0.6,3.3c-0.2,1.1-0.4,2.3-0.7,3.6c0,1.3-0.1,2.6-0.3,3.8c-0.2,1.3-0.4,2.6-0.7,3.8
			c-0.2,1.3-0.3,2.7-0.3,4.1c-0.2,1.3-0.4,2.7-0.7,4.1c-0.2,1.5-0.4,2.9-0.6,4.4c0,1.5-0.1,2.9-0.3,4.4c-0.2,1.7-0.4,3.2-0.6,4.7
			c-0.2,1.5-0.3,3-0.3,4.7c-0.2,1.7-0.4,3.2-0.6,4.7c-0.2,1.7-0.3,3.3-0.3,5c-0.2,1.6-0.4,3.3-0.7,4.9c-0.2,1.7-0.3,3.3-0.3,4.9
			c-0.2,1.7-0.4,3.3-0.7,5c0,1.6-0.1,3.3-0.3,4.9c-0.2,1.7-0.3,3.3-0.3,4.9c-0.2,1.8-0.4,3.6-0.6,5.2c0,1.7-0.1,3.3-0.3,5
			c0,1.6-0.1,3.3-0.3,4.9s-0.3,3.3-0.3,4.9c-0.2,1.7-0.3,3.3-0.3,5c0,1.6-0.1,3.3-0.3,4.9c0,1.5-0.1,3-0.3,4.7c0,1.5-0.1,3-0.3,4.7
			c0,1.5,0,3,0,4.7c-0.2,1.5-0.3,2.9-0.3,4.4c0,1.5,0,2.9,0,4.4c0,1.3-0.1,2.6-0.3,4.1c0,1.5,0,2.9,0,4.1s0,2.6,0,3.8s0,2.6,0,3.8
			c0,1.1,0,2.3,0,3.6c0,1.1,0,2.2,0,3.3c0,1.1,0.1,2.2,0.3,3.3c0,0.9,0,1.9,0,3c0,0.9,0.1,1.8,0.3,2.7c0,0.7,0,1.6,0,2.5
			c0.2,0.7,0.3,1.5,0.3,2.2c0.2,0.5,0.3,1.2,0.3,1.9c0.2,0.5,0.3,1.1,0.3,1.6c0.2,0.6,0.4,1,0.6,1.4c0,0.4,0.1,0.7,0.3,1.1
			c0.2,0.4,0.4,0.6,0.6,0.8s0.4,0.4,0.7,0.6c0.6,0.2,1.3,0.4,2,0.5c0.9,0.4,1.7,0.6,2.6,0.8c1.1,0.2,2.1,0.4,3,0.6
			c1.3,0.2,2.5,0.4,3.6,0.5c1.5,0.2,3,0.3,4.3,0.3c1.5,0.2,3.1,0.4,4.6,0.5c1.5,0,3.1,0.1,4.6,0.3c1.8,0,3.5,0.1,5.3,0.3
			c1.8,0,3.5,0.1,5.3,0.3c1.8,0,3.5,0,5.3,0c1.7,0,3.6,0,5.6,0c1.7,0.2,3.5,0.3,5.3,0.3c2,0,3.9,0,5.6,0c1.8-0.2,3.5-0.3,5.3-0.3
			s3.5,0,5.3,0c1.5,0,3.2-0.1,5-0.3c1.5,0,3.1-0.1,4.6-0.3c1.3,0,2.7-0.1,4.3-0.3c1.3,0,2.6-0.1,4-0.3c1.1-0.2,2.2-0.3,3.3-0.3
			c0.9-0.2,1.8-0.4,2.7-0.6c0.9-0.2,1.6-0.4,2.3-0.6c0.4,0,0.6-0.1,0.6-0.3c0.4-0.2,0.8-0.4,1-0.5c0.2-0.4,0.3-0.7,0.3-1.1
			c0.2-0.4,0.4-0.8,0.7-1.4c0.2-0.6,0.4-1.1,0.7-1.7c0.2-0.6,0.3-1.1,0.3-1.7c0.2-0.7,0.4-1.5,0.7-2.2c0-0.7,0.1-1.5,0.3-2.5
			c0-0.9,0.1-1.7,0.3-2.5c0-1.1,0.1-2.1,0.3-3c0-0.9,0.1-1.9,0.3-3c0-1.1,0-2.2,0-3.3c0.2-1.1,0.3-2.2,0.3-3.3
			c0-1.3,0.1-2.6,0.3-3.8c0-1.3,0-2.6,0-3.9s0-2.6,0-3.8c0-1.5,0-2.8,0-4.1c0-1.5,0.1-2.9,0.3-4.4c0-1.5,0-2.9,0-4.4
			c0-1.5-0.1-2.9-0.3-4.4c0-1.6,0-3.2,0-4.7c0-1.7,0-3.2,0-4.7c0-1.7,0-3.3,0-4.9c0-1.5-0.1-3-0.3-4.7c0-1.7,0-3.3,0-5
			c0-1.6-0.1-3.3-0.3-4.9c0-1.7,0-3.3,0-4.9c-0.2-1.7-0.3-3.3-0.3-5c0-1.7-0.1-3.3-0.3-4.9c0-1.7-0.1-3.4-0.3-5.2c0-1.7,0-3.3,0-4.9
			c-0.2-1.7-0.3-3.3-0.3-5c-0.2-1.6-0.3-3.2-0.3-4.7c-0.2-1.6-0.3-3.3-0.3-4.9c-0.2-1.7-0.3-3.3-0.3-4.9c-0.2-1.5-0.3-3-0.3-4.7
			c-0.2-1.5-0.3-3-0.3-4.7c-0.2-1.4-0.4-2.9-0.7-4.4c0-1.5-0.1-2.9-0.3-4.4c0-1.5-0.1-2.9-0.3-4.4c0-1.3-0.1-2.6-0.3-4.1
			c-0.2-1.3-0.3-2.6-0.3-3.9c-0.2-1.3-0.4-2.6-0.6-3.8c0-1.3-0.1-2.6-0.3-3.8c0-1.1-0.1-2.3-0.3-3.6c-0.2-1.1-0.3-2.2-0.3-3.3
			c-0.2-0.9-0.4-1.9-0.7-3c0-0.9-0.1-1.8-0.3-2.7c0-0.9-0.1-1.8-0.3-2.7c-0.2-0.9-0.3-1.7-0.3-2.5c-0.2-0.7-0.3-1.5-0.3-2.2
			c-0.2-0.5-0.4-1.2-0.7-1.9c0-0.5-0.1-1.1-0.3-1.7c0-0.4-0.1-0.8-0.3-1.4c0-0.2-0.1-0.5-0.3-0.8c-0.2-0.4-0.3-0.6-0.3-0.8l-0.3-0.3
			c-0.4-0.4-1-0.6-1.7-0.8c-0.9-0.4-1.8-0.6-2.6-0.8c-1.1-0.2-2.2-0.4-3.3-0.6c-1.3-0.2-2.6-0.4-4-0.5c-1.3-0.2-2.8-0.4-4.3-0.6
			c-1.8-0.2-3.4-0.4-5-0.5c-2,0-3.9-0.1-5.6-0.3c-1.8,0-3.5-0.1-5.3-0.3c-2,0-4,0-6,0c-1.8-0.2-3.6-0.3-5.6-0.3c-1.8,0-3.7,0-5.6,0
			c-1.8,0-3.5,0.1-5.3,0.3c-1.8,0-3.4,0.1-5,0.3c-1.5,0-3.1,0.1-4.6,0.3c-1.3,0.2-2.6,0.4-4,0.5c-1.3,0.2-2.5,0.4-3.7,0.6
			c-0.9,0.2-1.6,0.5-2.3,0.8c-0.6,0.2-1.2,0.5-1.6,0.8C570.2,345.2,570,345.3,569.8,345.5z"/>
		<path fill="#FFFFFF" d="M618.8,237.6c0.9,0.3,1.9,0.6,2.8,0.9c0.9,0.4,1.8,0.8,2.8,1.3c0.8,0.4,1.6,0.8,2.6,1.3
			c0.8,0.4,1.5,0.9,2.3,1.5c0.8,0.5,1.5,1,2.1,1.5c0.8,0.5,1.5,1.1,2.1,1.7c0.6,0.6,1.2,1.3,1.8,1.9c0.6,0.6,1.1,1.3,1.6,1.9
			c0.5,0.6,0.9,1.3,1.4,2.1c0.5,0.6,0.9,1.3,1.4,2.1c0.3,0.6,0.6,1.3,0.9,2.1c0.5,0.8,0.8,1.5,0.9,2.3c0.3,0.8,0.5,1.5,0.7,2.3
			c0.2,0.8,0.3,1.5,0.5,2.3c0.2,0.8,0.2,1.5,0.2,2.3c0,0.8,0,1.6,0,2.5c-0.2,0.8-0.2,1.5-0.2,2.3c-0.2,0.8-0.4,1.5-0.7,2.3
			c-0.2,0.9-0.4,1.7-0.7,2.4c-0.3,0.8-0.6,1.5-0.9,2.3c-0.3,0.8-0.7,1.4-1.1,2.1c-0.5,0.8-0.9,1.4-1.4,2.1c-0.5,0.8-1,1.5-1.6,2.1
			c-0.5,0.6-1,1.3-1.6,1.9c-0.6,0.6-1.2,1.3-1.8,1.9c-0.6,0.5-1.3,1-2.1,1.5c-0.6,0.6-1.3,1.2-2.1,1.7c-0.8,0.5-1.5,0.9-2.3,1.3
			c-0.8,0.5-1.6,0.9-2.5,1.3c-0.8,0.4-1.6,0.8-2.6,1.1c-0.8,0.4-1.6,0.8-2.5,1.1c-0.9,0.2-1.8,0.5-2.8,0.8c-0.9,0.2-1.9,0.5-2.8,0.8
			c-1.1,0.2-2.1,0.4-3,0.6c-0.9,0.1-1.9,0.2-3,0.4c-1.1,0.1-2.1,0.2-3,0.2c-1.1,0.1-2.2,0.2-3.2,0.2c-0.9-0.1-1.9-0.2-3-0.2
			c-1.1-0.1-2.2-0.3-3.2-0.4c-1.1-0.1-2.2-0.3-3.2-0.6c-0.9-0.2-1.8-0.6-2.8-0.9c-1.1-0.3-2-0.6-2.8-0.9c-0.9-0.5-1.8-1-2.8-1.5
			c-0.8-0.4-1.5-0.9-2.3-1.5c-0.8-0.5-1.5-1.1-2.1-1.7c-0.8-0.6-1.5-1.3-2.1-1.9c-0.6-0.6-1.2-1.3-1.6-2.1c-0.6-0.8-1.2-1.5-1.6-2.3
			c-0.5-0.8-0.9-1.5-1.4-2.3c-0.5-0.8-0.8-1.5-1.1-2.3c-0.3-0.9-0.6-1.7-0.9-2.5c-0.3-0.9-0.5-1.7-0.7-2.5c-0.3-0.9-0.5-1.7-0.5-2.5
			c-0.2-0.9-0.3-1.7-0.5-2.4c0-0.9,0-1.7,0-2.5c0-0.9,0-1.7,0-2.5c0.2-0.8,0.2-1.5,0.2-2.3c0.2-0.8,0.4-1.5,0.7-2.3
			c0.2-0.8,0.4-1.5,0.7-2.3c0.3-0.8,0.7-1.4,1.2-2.1c0.3-0.8,0.7-1.4,1.1-2.1c0.5-0.8,0.9-1.4,1.4-2.1s1-1.2,1.6-1.9
			c0.6-0.8,1.2-1.4,1.8-1.9c0.6-0.6,1.2-1.3,1.9-1.9c0.6-0.5,1.3-1.1,2.1-1.7c0.8-0.5,1.5-1,2.3-1.5c0.8-0.5,1.5-0.9,2.3-1.3
			c0.8-0.5,1.6-0.9,2.5-1.3c0.8-0.4,1.6-0.8,2.5-1.1c0.8-0.4,1.6-0.7,2.6-0.9c0.9-0.3,1.8-0.5,2.8-0.8c0.9-0.2,1.8-0.5,2.8-0.8
			c0.9-0.1,1.9-0.2,2.8-0.4c1.1-0.1,2.1-0.2,3-0.2c0.9-0.1,1.8-0.2,2.8-0.2c1.1,0,2.1,0.1,3,0.2c0.9,0.1,1.8,0.3,2.8,0.4
			c0.9,0.1,1.9,0.3,3,0.6C617,236.9,617.9,237.2,618.8,237.6z"/>
		<path fill="#FFFFFF" d="M580,360.9c0,0.2-0.1,0.4-0.2,0.7c0,0.3-0.1,0.6-0.2,0.9c-0.1,0.3-0.2,0.7-0.2,1.1
			c-0.2,0.5-0.3,0.9-0.5,1.4c0,0.6-0.1,1.2-0.2,1.6c-0.1,0.6-0.2,1.2-0.2,1.8c-0.2,0.8-0.3,1.5-0.5,2.1c-0.1,0.8-0.2,1.5-0.2,2.3
			c-0.2,0.9-0.3,1.8-0.5,2.5c-0.1,0.9-0.2,1.8-0.2,2.8c-0.1,0.9-0.3,1.8-0.5,2.8c-0.1,0.9-0.3,1.9-0.4,3c0,1.1-0.1,2.2-0.2,3.2
			c-0.1,1.1-0.3,2.2-0.4,3.2c-0.1,1.1-0.2,2.2-0.2,3.5c-0.2,1.1-0.3,2.2-0.5,3.5c-0.1,1.2-0.3,2.5-0.5,3.7c0,1.2-0.1,2.5-0.2,3.7
			c-0.1,1.4-0.3,2.7-0.5,3.9c-0.1,1.2-0.2,2.5-0.2,3.9c-0.1,1.4-0.3,2.7-0.4,3.9c-0.2,1.4-0.2,2.8-0.2,4.2c-0.1,1.4-0.3,2.8-0.4,4.2
			c-0.1,1.4-0.2,2.8-0.2,4.2c-0.1,1.4-0.3,2.8-0.4,4.2c0,1.4-0.1,2.8-0.2,4.2c-0.2,1.4-0.2,2.8-0.2,4.2c-0.1,1.5-0.3,3-0.4,4.4
			c0,1.4-0.1,2.8-0.2,4.2c0,1.4-0.1,2.8-0.2,4.2c-0.1,1.4-0.2,2.8-0.2,4.2c-0.1,1.4-0.2,2.8-0.2,4.2c0,1.4-0.1,2.8-0.2,4.2
			c0,1.2-0.1,2.5-0.2,3.9c0,1.2-0.1,2.5-0.2,3.9c0,1.2,0,2.5,0,3.9c-0.2,1.2-0.2,2.5-0.2,3.7c0,1.2,0,2.5,0,3.7
			c0,1.1-0.1,2.2-0.2,3.5c0,1.2,0,2.4,0,3.5c0,1.1,0,2.2,0,3.2c0,1.1,0,2.2,0,3.2c0,0.9,0,1.9,0,3c0,0.9,0,1.8,0,2.8
			c0,0.9,0.1,1.8,0.2,2.8c0,0.8,0,1.6,0,2.5c0,0.8,0.1,1.5,0.2,2.3c0,0.6,0,1.3,0,2.1c0.1,0.6,0.2,1.2,0.2,1.8
			c0.1,0.5,0.2,1,0.2,1.6c0.1,0.5,0.2,0.9,0.2,1.4c0.1,0.5,0.3,0.8,0.4,1.1c0,0.3,0.1,0.6,0.2,0.9c0.2,0.3,0.3,0.5,0.5,0.7
			c0.1,0.2,0.3,0.3,0.5,0.5c0.4,0.2,0.9,0.3,1.3,0.5c0.6,0.3,1.2,0.5,1.8,0.7c0.7,0.2,1.4,0.3,2,0.5c0.9,0.2,1.7,0.3,2.5,0.5
			c1.1,0.2,2,0.2,2.9,0.2c1,0.2,2.1,0.3,3.1,0.5c1,0,2.1,0.1,3.1,0.2c1.2,0,2.4,0.1,3.6,0.2c1.2,0,2.4,0.1,3.6,0.2
			c1.2,0,2.4,0,3.6,0c1.2,0,2.5,0,3.8,0c1.2,0.2,2.4,0.2,3.6,0.2c1.3,0,2.6,0,3.8,0c1.2-0.2,2.4-0.2,3.6-0.2c1.2,0,2.4,0,3.6,0
			c1,0,2.1-0.1,3.3-0.2c1,0,2.1-0.1,3.1-0.2c0.9,0,1.9-0.1,2.9-0.2c0.9,0,1.8-0.1,2.7-0.2c0.7-0.2,1.5-0.2,2.2-0.2
			c0.6-0.2,1.2-0.3,1.8-0.5c0.6-0.2,1.1-0.3,1.6-0.5c0.3,0,0.5-0.1,0.5-0.2c0.3-0.2,0.5-0.3,0.7-0.5c0.1-0.3,0.2-0.6,0.2-0.9
			c0.1-0.3,0.3-0.7,0.5-1.2c0.1-0.5,0.3-0.9,0.4-1.4c0.1-0.5,0.2-0.9,0.2-1.4c0.1-0.6,0.3-1.2,0.4-1.9c0-0.6,0.1-1.3,0.2-2.1
			c0-0.8,0.1-1.5,0.2-2.1c0-0.9,0.1-1.8,0.2-2.5c0-0.8,0.1-1.6,0.2-2.5c0-0.9,0-1.8,0-2.8c0.1-0.9,0.2-1.8,0.2-2.8
			c0-1.1,0.1-2.2,0.2-3.2c0-1.1,0-2.2,0-3.2s0-2.2,0-3.2c0-1.2,0-2.4,0-3.5c0-1.2,0.1-2.4,0.2-3.7c0-1.2,0-2.5,0-3.7
			c0-1.2-0.1-2.5-0.2-3.7c0-1.4,0-2.7,0-3.9c0-1.4,0-2.7,0-3.9c0-1.4,0-2.8,0-4.2c0-1.2-0.1-2.5-0.2-3.9c0-1.4,0-2.8,0-4.2
			c0-1.4-0.1-2.8-0.2-4.2c0-1.4,0-2.8,0-4.2c-0.1-1.4-0.2-2.8-0.2-4.2c0-1.4-0.1-2.8-0.2-4.2c0-1.4-0.1-2.9-0.2-4.4
			c0-1.4,0-2.8,0-4.2c-0.1-1.4-0.2-2.8-0.2-4.2c-0.1-1.4-0.2-2.7-0.2-3.9c-0.1-1.4-0.2-2.8-0.2-4.2c-0.2-1.4-0.2-2.8-0.2-4.2
			c-0.1-1.2-0.2-2.5-0.2-3.9c-0.1-1.2-0.2-2.5-0.2-3.9c-0.2-1.2-0.3-2.5-0.5-3.7c0-1.2-0.1-2.5-0.2-3.7c0-1.2-0.1-2.5-0.2-3.7
			c0-1.1-0.1-2.2-0.2-3.5c-0.1-1.1-0.2-2.2-0.2-3.2c-0.1-1.1-0.3-2.2-0.5-3.2c0-1.1-0.1-2.2-0.2-3.2c0-0.9-0.1-1.9-0.2-3
			c-0.1-0.9-0.2-1.8-0.2-2.8c-0.2-0.8-0.3-1.6-0.5-2.6c0-0.8-0.1-1.5-0.2-2.3c0-0.8-0.1-1.5-0.2-2.3c-0.1-0.8-0.2-1.5-0.2-2.1
			c-0.1-0.6-0.2-1.2-0.2-1.8c-0.1-0.5-0.3-1-0.5-1.6c0-0.5-0.1-0.9-0.2-1.4c0-0.3-0.1-0.7-0.2-1.1c0-0.2-0.1-0.4-0.2-0.7
			c-0.1-0.3-0.2-0.5-0.2-0.7l-0.2-0.2c-0.3-0.3-0.7-0.5-1.1-0.7c-0.6-0.3-1.2-0.5-1.8-0.7c-0.7-0.2-1.5-0.3-2.2-0.5
			c-0.9-0.2-1.8-0.3-2.7-0.5c-0.9-0.2-1.9-0.3-2.9-0.5c-1.2-0.2-2.3-0.3-3.3-0.5c-1.3,0-2.6-0.1-3.8-0.2c-1.2,0-2.4-0.1-3.6-0.2
			c-1.3,0-2.7,0-4,0c-1.2-0.2-2.5-0.2-3.8-0.2c-1.2,0-2.5,0-3.8,0c-1.2,0-2.4,0.1-3.6,0.2c-1.2,0-2.3,0.1-3.4,0.2
			c-1,0-2.1,0.1-3.1,0.2c-0.9,0.2-1.8,0.3-2.7,0.5c-0.9,0.2-1.7,0.3-2.5,0.5c-0.6,0.2-1.1,0.4-1.6,0.7c-0.5,0.2-0.8,0.4-1.1,0.7
			C580.3,360.6,580.2,360.7,580,360.9z"/>
	</g>
</g>
</svg>
