<?xml version="1.0" encoding="utf-8"?>
<!-- Generator: Adobe Illustrator 18.0.0, SVG Export Plug-In . SVG Version: 6.00 Build 0)  -->
<!DOCTYPE svg PUBLIC "-//W3C//DTD SVG 1.1//EN" "http://www.w3.org/Graphics/SVG/1.1/DTD/svg11.dtd">
<svg version="1.1" id="Camada_1" xmlns="http://www.w3.org/2000/svg" xmlns:xlink="http://www.w3.org/1999/xlink" x="0px" y="0px"
	 viewBox="0 0 1024 768" enable-background="new 0 0 1024 768" xml:space="preserve">
<g>
	<defs>
		<circle id="SVGID_1_" cx="511.9" cy="383.4" r="375.7"/>
	</defs>
	<clipPath id="SVGID_2_">
		<use xlink:href="#SVGID_1_"  overflow="visible"/>
	</clipPath>
	<g clip-path="url(#SVGID_2_)" enable-background="new    ">
		
			<image overflow="visible" width="2474" height="2474" xlink:href="../../banco de imagens/botões/butt 25.png"  transform="matrix(0.3065 0 0 0.3065 132.8006 4.7999)">
		</image>
	</g>
</g>
<g>
	<g>
		<path d="M516.6,263.4c5.6,12-3.8,33.7-6.2,39c-2.4,5.2-15.2,31.5-19.3,37.9c-9.1,13.5-17.6,17.8-27.5,14.8
			c-9.9-3-19.2-27.9-32.6-40.4c-10.1-8-18.2-12.7-21.6-1c-3.4,11.8,13.8,15.6,25,21.7c11.2,6.1,19.6,8.2,31.4,13.2
			c11.8,5,25.2,19.9,34.8,30.7c9.6,10.7,20.7,42.5,21.7,51.6c1.1,9.1,0.8,31.3-6,50.8c-6.8,19.5-27.8,36.2-45,43.2
			c-17.2,7-37.7,12.1-55.8,12.7c-18.1,0.6-48.9-0.6-64.6-7.1c-15.7-6.5-38.8-15.5-43-19.7c-4.2-4.2,0.7-39.4,5-61.8
			c4.2-22.4,17.3-70.8,40.8-55.3c6.7,5.3,27.6,28.5,36.4,33.8c8.8,5.3,17.1,7.2,20.5,0.8c3.4-6.4-1.8-10.6-5.7-12.9
			c-3.9-2.3-14.8-6.9-29.1-12c-14.2-5.1-34-14.8-46.6-23.4c-12.6-8.6-23.9-30.9-25.7-49.5c-1.8-18.6-2.9-32.1,2.4-51.9
			c5.3-19.8,16-34.8,23-41.5c7-6.7,29.1-22.1,42.9-24.7c18.4-3.7,31.5-6.9,58.9-2.3c27.3,4.7,43.6,14.5,50.4,18.8
			C494.6,237.6,511.8,250.9,516.6,263.4z"/>
		<path fill="#FFFFFF" d="M489.4,277.6c0,0.7,0,1.3,0,2c0,0.8,0,1.6,0,2.5c0,0.8-0.1,1.7-0.2,2.7c0,0.8-0.1,1.7-0.2,2.7
			c-0.2,1-0.3,2-0.5,3c-0.2,1-0.3,2.1-0.5,3.2c-0.2,1-0.4,2-0.7,3c-0.2,1.2-0.4,2.3-0.7,3.5c-0.3,1-0.6,2.1-0.9,3.2
			c-0.3,1.2-0.6,2.3-0.9,3.5c-0.3,1.2-0.6,2.2-0.9,3.2c-0.3,1.2-0.7,2.3-1.1,3.5c-0.3,1-0.6,2.1-0.9,3.2c-0.5,1-0.8,2.1-1.1,3.2
			c-0.5,1-0.8,2-1.1,3c-0.5,1-0.8,2-1.1,3c-0.5,1-0.8,1.9-1.1,2.7c-0.5,1-0.8,1.9-1.1,2.7c-0.5,0.8-0.9,1.6-1.4,2.5
			c-0.3,0.7-0.6,1.3-0.9,2c-0.5,0.7-0.8,1.3-1.1,2c-0.3,0.5-0.7,1-1.1,1.5c-0.3,0.3-0.6,0.7-0.9,1.2c-0.3,0.3-0.6,0.6-0.9,0.7
			c-0.3,0.3-0.6,0.5-0.9,0.5c-0.2,0.2-0.4,0.2-0.7,0.2c-0.3,0-0.5-0.2-0.7-0.5c-0.2-0.2-0.3-0.4-0.5-0.7c-0.6-1.1-1.2-2.3-1.8-3.5
			c-0.5-1.1-1-2.2-1.6-3.2c-0.6-1.1-1.2-2.2-1.8-3.2c-0.6-1.1-1.3-2.2-2.1-3.2c-0.6-1-1.2-2-1.8-3c-0.8-1-1.5-2-2.1-3
			c-0.8-0.8-1.5-1.7-2.1-2.7c-0.8-0.8-1.5-1.6-2.1-2.5c-0.8-1-1.5-1.9-2.3-2.7c-0.8-0.8-1.5-1.6-2.1-2.2c-0.8-0.8-1.5-1.6-2.3-2.2
			c-0.8-0.8-1.5-1.6-2.3-2.2c-0.8-0.7-1.5-1.3-2.3-2c-0.8-0.7-1.5-1.3-2.3-2c-0.6-0.7-1.4-1.2-2.3-1.7c-0.6-0.5-1.3-1.1-2.1-1.7
			c-0.8-0.5-1.5-1-2.3-1.5c-0.8-0.3-1.5-0.7-2.3-1.2c-0.8-0.5-1.5-0.9-2.3-1.2c-0.8-0.3-1.5-0.7-2.3-1c-0.6-0.3-1.3-0.7-2.1-1
			c-0.8-0.3-1.5-0.6-2.3-0.7c-0.6-0.3-1.3-0.6-2.1-0.7c-0.6-0.2-1.3-0.3-2.1-0.5c-0.6,0-1.3-0.1-2.1-0.2c-0.6-0.2-1.3-0.2-2.1-0.2
			c-0.6,0-1.2,0-1.8,0c-0.6,0-1.2,0.1-1.8,0.2c-0.6,0-1.2,0.1-1.8,0.2c-0.6,0.2-1.1,0.3-1.6,0.5c-0.6,0.2-1.1,0.3-1.6,0.5
			c-0.6,0.2-1.1,0.4-1.6,0.7c-0.5,0.3-0.9,0.7-1.4,1c-0.5,0.3-0.9,0.7-1.4,1c-0.5,0.5-0.9,1-1.4,1.5c-0.3,0.3-0.7,0.7-1.1,1.2
			c-0.3,0.5-0.6,1.1-0.9,1.7c-0.3,0.5-0.6,1.1-0.9,1.7c-0.3,0.7-0.6,1.3-0.9,2c-0.2,0.7-0.3,1.4-0.5,2.2c-0.3,0.7-0.5,1.4-0.7,2.2
			c-0.2,0.8-0.2,1.6-0.2,2.5c-0.2,1-0.2,1.9-0.2,2.7c-0.2,1-0.2,2-0.2,3c0,0.8,0.1,1.7,0.2,2.7c0,1,0.2,1.9,0.5,2.7
			c0.2,0.8,0.3,1.6,0.5,2.5c0.3,0.8,0.6,1.6,0.9,2.2c0.3,0.8,0.7,1.6,1.1,2.2c0.5,0.7,0.9,1.3,1.4,2c0.5,0.5,0.9,1.1,1.4,1.7
			c0.6,0.5,1.2,1.1,1.8,1.7c0.6,0.5,1.2,1,1.8,1.5c0.6,0.5,1.3,0.9,2.1,1.2c0.8,0.5,1.5,1,2.1,1.5c0.8,0.3,1.6,0.7,2.5,1.2
			c0.8,0.3,1.5,0.7,2.3,1c0.9,0.5,1.8,0.9,2.5,1.2c0.9,0.3,1.8,0.7,2.8,1c0.9,0.3,1.8,0.7,2.8,1c0.9,0.3,1.9,0.7,3,1
			c0.9,0.3,1.8,0.7,2.8,1c1.1,0.3,2.1,0.7,3,1c1.1,0.3,2.1,0.7,3.2,1.2c0.9,0.3,1.9,0.7,3,1c1.1,0.3,2.1,0.7,3,1
			c1.1,0.5,2.1,0.9,3.2,1.2c1.1,0.5,2.1,0.9,3,1.2c1.1,0.5,2.1,1,3.2,1.5c0.9,0.5,1.9,1,3,1.5c1.1,0.5,2.1,1,3,1.5
			c1.1,0.7,2.1,1.2,3,1.7c0.9,0.7,1.9,1.3,3,2c0.9,0.7,1.8,1.3,2.8,2c0.8,0.7,1.5,1.3,2.3,2c0.9,0.7,1.8,1.3,2.5,2
			c0.8,0.7,1.5,1.3,2.3,2c0.6,0.7,1.3,1.4,2.1,2.2c0.8,0.7,1.5,1.4,2.1,2.2c0.6,0.7,1.3,1.4,2.1,2.2c0.6,0.8,1.2,1.6,1.8,2.2
			c0.6,0.8,1.2,1.6,1.8,2.5c0.6,0.8,1.1,1.6,1.6,2.5c0.6,0.8,1.1,1.6,1.6,2.5c0.6,0.8,1.1,1.7,1.6,2.7c0.5,0.8,0.9,1.6,1.4,2.5
			c0.5,1,0.9,1.9,1.4,2.7c0.5,1,0.9,1.9,1.4,2.7c0.3,1,0.7,2,1.1,3c0.3,0.8,0.7,1.7,1.1,2.7c0.3,1,0.6,2,0.9,3c0.3,1,0.6,2,0.9,3
			c0.3,1,0.5,2,0.7,3c0.3,1,0.6,2,0.9,3c0.2,1,0.3,2,0.5,3c0.2,1.2,0.4,2.2,0.7,3.2c0.2,1,0.2,2.1,0.2,3.2c0.2,1,0.3,2,0.5,3
			c0.2,1.2,0.2,2.2,0.2,3.2c0,1.2,0.1,2.2,0.2,3.2c0,1.2,0,2.3,0,3.5c0,1,0,2.1,0,3.2c0,1.2-0.1,2.2-0.2,3.2c0,1.2-0.1,2.3-0.2,3.5
			c0,1.2-0.1,2.2-0.2,3.2c-0.2,1.2-0.3,2.3-0.5,3.5c-0.2,1.2-0.3,2.3-0.5,3.5c-0.2,1-0.3,2.1-0.5,3.2c-0.3,1-0.5,2-0.7,3
			c-0.2,1-0.4,2-0.7,3c-0.3,1-0.5,2-0.7,3c-0.3,0.8-0.6,1.7-0.9,2.7c-0.3,0.8-0.6,1.7-0.9,2.7c-0.3,0.8-0.7,1.7-1.1,2.7
			c-0.3,0.8-0.7,1.6-1.1,2.5c-0.3,0.8-0.7,1.6-1.1,2.5c-0.3,0.8-0.7,1.6-1.1,2.5c-0.5,0.8-0.9,1.6-1.4,2.2c-0.6,0.8-1.1,1.6-1.6,2.2
			c-0.5,0.8-1,1.6-1.6,2.2c-0.5,0.7-1,1.4-1.6,2.2c-0.6,0.7-1.2,1.3-1.8,2c-0.6,0.7-1.2,1.3-1.8,2c-0.6,0.5-1.2,1.1-1.8,1.7
			c-0.8,0.7-1.5,1.2-2.1,1.7c-0.8,0.7-1.5,1.2-2.3,1.7c-0.8,0.5-1.5,1.1-2.3,1.7c-0.8,0.5-1.5,1-2.3,1.5c-0.9,0.5-1.8,1-2.5,1.5
			c-0.9,0.5-1.8,0.9-2.8,1.2c-0.9,0.5-1.8,0.9-2.8,1.2c-0.9,0.5-1.8,0.9-2.8,1.2c-1.1,0.5-2.1,0.9-3,1.2c-1.1,0.3-2.1,0.7-3.2,1
			c-1.1,0.3-2.1,0.7-3.2,1c-1.1,0.3-2.1,0.7-3.2,1c-1.2,0.3-2.4,0.6-3.4,0.7c-1.2,0.3-2.4,0.6-3.7,0.7c-1.2,0.3-2.4,0.6-3.7,0.7
			c-1.4,0.2-2.7,0.3-3.9,0.5c-1.4,0.2-2.8,0.3-4.1,0.5c-1.4,0.2-2.8,0.3-4.1,0.5c-1.4,0.2-2.8,0.3-4.1,0.5c-1.5,0-3.1,0.1-4.6,0.2
			c-1.5,0-3,0-4.4,0c-1.7,0.2-3.3,0.2-4.8,0.2c-1.5,0-3.1,0-4.8,0c-1.1,0-2.1,0-3.2,0c-1.1-0.2-2.1-0.2-3.2-0.2
			c-1.1-0.2-2.1-0.3-3.2-0.5c-1.2,0-2.4-0.1-3.4-0.2c-1.2-0.3-2.4-0.6-3.4-0.7c-1.2-0.2-2.4-0.4-3.4-0.7c-1.2-0.2-2.4-0.4-3.4-0.7
			c-1.2-0.3-2.4-0.7-3.7-1c-1.1-0.3-2.2-0.7-3.4-1c-1.1-0.3-2.2-0.7-3.4-1.2c-1.1-0.3-2.2-0.7-3.4-1.2c-1.1-0.3-2.1-0.7-3.2-1.2
			c-1.1-0.3-2.1-0.7-3.2-1.2c-1.1-0.5-2.1-1-3.2-1.5c-0.9-0.5-1.9-1-3-1.5c-0.9-0.5-1.8-1-2.8-1.5c-0.9-0.5-1.8-1.1-2.8-1.7
			c-0.9-0.5-1.8-1-2.5-1.5c-0.8-0.7-1.5-1.2-2.3-1.7c-0.8-0.5-1.5-1.1-2.3-1.7c-0.6-0.5-1.2-1.1-1.8-1.7c-0.6-0.5-1.1-1.1-1.6-1.7
			c-0.5-0.5-0.9-1.1-1.4-1.7c-0.5-0.5-0.8-1.1-1.1-1.7c-0.3-0.5-0.6-1.1-0.9-1.7c-0.2-0.5-0.3-1.1-0.5-1.7c-0.2-0.5-0.2-1-0.2-1.5
			c0-0.7,0-1.3,0-2c0-0.8,0.1-1.6,0.2-2.5c0-0.8,0.1-1.6,0.2-2.5c0.2-1,0.3-2,0.5-3c0.2-1,0.3-2,0.5-3c0.2-1.1,0.4-2.2,0.7-3.2
			c0.3-1.1,0.5-2.3,0.7-3.5c0.3-1.1,0.6-2.3,0.9-3.5c0.3-1.3,0.6-2.5,0.9-3.7c0.3-1.3,0.7-2.5,1.1-3.7c0.3-1.3,0.7-2.6,1.1-3.9
			c0.3-1.3,0.7-2.5,1.1-3.7c0.3-1.3,0.7-2.6,1.1-3.9c0.3-1.3,0.7-2.5,1.1-3.7c0.5-1.3,0.9-2.5,1.4-3.7c0.3-1.3,0.7-2.5,1.1-3.7
			c0.5-1.1,0.9-2.3,1.4-3.5c0.3-1.1,0.7-2.3,1.1-3.5c0.5-1,0.8-2.1,1.1-3.2c0.5-1,0.9-2,1.4-3c0.3-1,0.7-1.9,1.1-2.7
			c0.3-0.8,0.6-1.6,0.9-2.5c0.5-0.8,0.8-1.6,1.1-2.2c0.3-0.7,0.6-1.3,0.9-2c0.3-0.5,0.6-1,0.9-1.5c0.2-0.3,0.4-0.7,0.7-1.2
			c0.2-0.2,0.4-0.4,0.7-0.7c0.2-0.2,0.3-0.2,0.5-0.2c0.2,0,0.3,0,0.5,0c0.3,0.3,0.5,0.6,0.7,0.7c0.3,0.3,0.6,0.7,0.9,1
			c0.3,0.3,0.6,0.7,0.9,1.2c0.3,0.3,0.7,0.7,1.1,1c0.5,0.5,0.8,1,1.1,1.5c0.5,0.5,0.9,1,1.4,1.5c0.5,0.5,1,1,1.6,1.5
			c0.5,0.5,1,1.1,1.6,1.7c0.5,0.5,1,1.1,1.6,1.7c0.6,0.5,1.2,1.1,1.8,1.7c0.6,0.7,1.2,1.2,1.8,1.7c0.6,0.7,1.2,1.3,1.8,2
			c0.6,0.7,1.3,1.2,2.1,1.7c0.6,0.7,1.3,1.3,2.1,2c0.6,0.7,1.3,1.3,2.1,2c0.8,0.7,1.5,1.2,2.1,1.7c0.8,0.7,1.5,1.3,2.3,2
			c0.6,0.5,1.3,1.1,2.1,1.7c0.8,0.7,1.5,1.2,2.3,1.7c0.8,0.5,1.5,1.1,2.3,1.7c0.8,0.5,1.5,1,2.3,1.5c0.6,0.5,1.3,1,2.1,1.5
			c0.8,0.5,1.5,1,2.3,1.5c0.8,0.3,1.5,0.7,2.3,1.2c0.6,0.3,1.3,0.7,2.1,1c0.8,0.3,1.5,0.7,2.3,1c0.6,0.3,1.3,0.6,2.1,0.7
			c0.6,0.3,1.3,0.6,2.1,0.7c0.6,0.2,1.3,0.2,2.1,0.2c0.6,0.2,1.2,0.2,1.8,0.2c0.6,0.2,1.2,0.2,1.8,0c0.6,0,1.2-0.1,1.8-0.2
			c0.6,0,1.1-0.1,1.6-0.2c0.6-0.3,1.1-0.6,1.6-0.7c0.6-0.3,1.1-0.7,1.6-1c0.5-0.5,0.9-1,1.4-1.5c0.5-0.5,0.9-1,1.4-1.5
			c0.3-0.7,0.7-1.3,1.1-2c0.3-0.7,0.6-1.4,0.9-2.2c0.3-0.8,0.6-1.6,0.9-2.5c0.3-1,0.5-2,0.7-3c0.3-1,0.5-2,0.7-3
			c0.2-1,0.2-1.9,0.2-2.7c0-0.8,0-1.7,0-2.7c0-0.8,0-1.6,0-2.5c-0.2-0.7-0.3-1.4-0.5-2.2c-0.2-0.8-0.4-1.6-0.7-2.2
			c-0.2-0.7-0.4-1.3-0.7-2c-0.3-0.7-0.7-1.3-1.1-2c-0.3-0.7-0.7-1.3-1.1-2c-0.5-0.5-0.9-1.1-1.4-1.7c-0.5-0.5-1-1.1-1.6-1.7
			c-0.6-0.5-1.2-1-1.8-1.5c-0.6-0.5-1.2-1-1.8-1.5c-0.6-0.5-1.3-1-2.1-1.5c-0.8-0.5-1.5-0.9-2.1-1.2c-0.8-0.5-1.6-0.9-2.5-1.2
			c-0.8-0.5-1.5-0.9-2.3-1.2c-0.9-0.5-1.8-0.9-2.8-1.2c-0.9-0.5-1.8-0.9-2.8-1.2c-0.9-0.3-1.8-0.7-2.8-1c-0.9-0.5-1.9-0.9-3-1.2
			c-0.9-0.3-1.9-0.7-3-1c-1.1-0.3-2.1-0.7-3-1.2c-1.1-0.3-2.1-0.7-3.2-1c-1.1-0.3-2.1-0.7-3.2-1c-1.2-0.3-2.4-0.7-3.4-1
			c-1.1-0.3-2.2-0.7-3.4-1.2c-1.1-0.3-2.2-0.7-3.4-1c-1.1-0.3-2.2-0.7-3.4-1.2c-1.1-0.3-2.2-0.7-3.4-1c-0.8-0.3-1.5-0.7-2.3-1
			c-0.8-0.3-1.5-0.7-2.3-1c-0.8-0.5-1.5-1-2.3-1.5c-0.8-0.3-1.5-0.8-2.1-1.5c-0.8-0.5-1.5-1-2.1-1.5c-0.8-0.7-1.5-1.3-2.1-2
			c-0.6-0.7-1.3-1.3-2.1-2c-0.6-0.7-1.2-1.4-1.8-2.2c-0.6-0.7-1.1-1.4-1.6-2.2c-0.6-0.8-1.2-1.6-1.8-2.5c-0.5-0.8-1-1.6-1.6-2.5
			c-0.5-1-0.9-1.9-1.4-2.7c-0.6-1-1.1-2-1.4-3c-0.5-1-0.9-2-1.4-3c-0.5-1-0.8-2-1.1-3c-0.5-1.1-0.8-2.2-1.1-3.2
			c-0.5-1.1-0.8-2.3-1.1-3.5c-0.3-1.1-0.6-2.2-0.9-3.2c-0.2-1.1-0.4-2.4-0.7-3.7c-0.2-1.1-0.4-2.3-0.7-3.5c-0.2-1.1-0.3-2.4-0.5-3.7
			c-0.2-1.1-0.3-2.4-0.5-3.7c-0.2-1.2-0.2-2.4-0.2-3.7c-0.2-1.1-0.2-2.4-0.2-3.7c0-1.3,0-2.6,0-3.9c0-1.3,0.1-2.5,0.2-3.7
			c0-1.6,0.1-3.4,0.2-5.2c0.2-1.5,0.3-3,0.5-4.7c0.2-1.5,0.4-3,0.7-4.7c0.2-1.5,0.4-3,0.7-4.4c0.3-1.3,0.6-2.7,0.9-4.2
			c0.3-1.3,0.6-2.6,0.9-3.9c0.5-1.3,0.8-2.6,1.1-3.9c0.5-1.3,0.9-2.6,1.4-3.9c0.5-1.1,0.9-2.3,1.4-3.5c0.5-1.1,1-2.3,1.6-3.5
			c0.5-1.1,1-2.3,1.6-3.5c0.5-1,1-2,1.6-3c0.6-1.1,1.2-2.2,1.8-3.2c0.6-0.8,1.2-1.7,1.8-2.7c0.6-1,1.3-1.9,2.1-2.7
			c0.6-0.8,1.3-1.7,2.1-2.7c0.8-0.8,1.5-1.6,2.1-2.2c0.8-0.8,1.5-1.6,2.3-2.5c0.8-0.7,1.5-1.4,2.3-2.2c0.8-0.7,1.6-1.3,2.5-2
			c0.8-0.7,1.5-1.2,2.3-1.7c0.8-0.7,1.6-1.3,2.5-2c0.8-0.5,1.6-1,2.5-1.5c0.9-0.7,1.8-1.2,2.5-1.7c0.9-0.5,1.8-0.9,2.8-1.2
			c0.8-0.5,1.6-1,2.5-1.5c0.9-0.3,1.8-0.7,2.8-1.2c0.9-0.3,1.8-0.7,2.8-1c0.9-0.3,1.8-0.7,2.8-1c0.9-0.3,1.8-0.6,2.8-0.7
			c0.9-0.3,1.8-0.6,2.8-0.7c0.9-0.3,1.8-0.6,2.8-0.7c0.9-0.2,1.8-0.3,2.8-0.5c1.1-0.2,2.1-0.3,3-0.5c0.9-0.2,1.8-0.3,2.8-0.5
			c0.9-0.2,1.8-0.2,2.8-0.2c0.9-0.2,1.8-0.2,2.8-0.2c0.9,0,1.8,0,2.8,0c1.1-0.2,2.1-0.2,3.2,0c1.1,0,2.1,0,3.2,0
			c1.1,0.2,2.1,0.2,3.2,0.2c1.1,0.2,2.2,0.3,3.4,0.5c1.1,0.2,2.1,0.4,3.2,0.7c1.1,0.2,2.2,0.4,3.4,0.7c1.1,0.2,2.1,0.4,3.2,0.7
			c1.2,0.3,2.4,0.7,3.4,1c1.1,0.3,2.1,0.7,3.2,1.2c1.2,0.3,2.4,0.7,3.4,1c1.1,0.5,2.1,1,3.2,1.5c1.2,0.3,2.4,0.7,3.4,1.2
			c1.1,0.5,2.1,1,3.2,1.5c1.1,0.5,2.1,1,3.2,1.5c0.9,0.7,1.9,1.2,3,1.7c1.1,0.5,2.1,1.1,3,1.7c1.1,0.5,2.1,1.1,3,1.7
			c1.1,0.7,2.1,1.2,3,1.7c0.9,0.7,1.8,1.3,2.8,2c0.9,0.5,1.8,1.1,2.8,1.7c0.8,0.7,1.6,1.3,2.5,2c0.8,0.7,1.5,1.3,2.3,2
			c0.8,0.7,1.5,1.3,2.3,2c0.8,0.7,1.5,1.3,2.3,2c0.6,0.7,1.3,1.3,2.1,2c0.6,0.5,1.2,1.1,1.8,1.7c0.6,0.7,1.1,1.3,1.6,2
			c0.6,0.7,1.1,1.3,1.6,2c0.5,0.7,0.9,1.3,1.4,2c0.3,0.7,0.7,1.2,1.1,1.7c0.3,0.7,0.6,1.3,0.9,2c0.2,0.5,0.4,1.1,0.7,1.7
			c0.2,0.5,0.3,1.1,0.5,1.7C489.1,276.2,489.3,276.9,489.4,277.6z"/>
	</g>
	<g>
		<g>
			<g>
				<path d="M706.5,320c0.2,0.2,0.4,0.4,0.6,0.6c0.2,0.2,0.3,0.5,0.3,0.8c0.2,0.4,0.4,0.8,0.6,1.1c0,0.4,0.1,0.8,0.3,1.4
					c0.2,0.6,0.3,1.1,0.3,1.7c0,0.8,0.1,1.5,0.3,2.2c0,0.8,0,1.5,0,2.3c0.2,0.7,0.3,1.6,0.3,2.5c0,1,0,1.9,0,2.8
					c0.2,1.1,0.3,2.2,0.3,3.1c0,1.1,0,2.2,0,3.4s0,2.3,0,3.4c0,1.3,0,2.6,0,3.9c0,1.1,0,2.4,0,3.7c0,1.5,0,2.9,0,4.2
					c0,1.3-0.1,2.7-0.3,4.2c0,1.5,0,2.9,0,4.2c0,1.5,0,3,0,4.5s0,3.1,0,4.8c-0.2,1.5-0.3,3-0.3,4.5c0,1.7,0,3.3,0,4.8
					c0,1.7,0,3.4,0,5.1c0,1.5,0,3.1,0,4.8c-0.2,1.7-0.3,3.4-0.3,5.1s0,3.3,0,4.8c0,1.7,0,3.4,0,5.1c0,1.7,0,3.4,0,5.1
					c0,1.7,0,3.4,0,5.1s0,3.4,0,5.1c0.2,1.7,0.3,3.4,0.3,5.1s0,3.4,0,5.1c0.2,1.7,0.3,3.4,0.3,5.1c0,1.7,0.1,3.4,0.3,5.1
					c0,1.5,0.1,3.1,0.3,4.8c0,1.7,0.1,3.4,0.3,5.1c0.2,1.7,0.3,3.3,0.3,4.8c0.2,1.7,0.4,3.3,0.6,4.8c0,1.5,0.1,3.1,0.3,4.8
					c0.2,1.5,0.3,3,0.3,4.5c0.2,1.5,0.4,3,0.6,4.5c0,1.5,0.1,2.9,0.3,4.2c0.2,1.5,0.3,2.9,0.3,4.2c0.2,1.3,0.3,2.6,0.3,3.9
					c0.2,1.3,0.4,2.6,0.5,4c0,1.1,0.1,2.4,0.3,3.7c0,1.1,0.1,2.2,0.3,3.4c0,1.1,0,2.2,0,3.1c0.2,1.1,0.3,2.2,0.3,3.1
					c0,0.9,0.1,1.9,0.3,2.8c0,0.7,0,1.6,0,2.5c0,0.8,0,1.5,0,2.3c0,0.6,0,1.2,0,2c0,0.4-0.1,0.8-0.3,1.4c0,0.6,0,1,0,1.4
					c-0.2,0.4-0.3,0.7-0.3,1.1c-0.2,0.2-0.4,0.4-0.6,0.6c0,0.2-0.2,0.3-0.5,0.3c-0.4,0.2-0.7,0.3-1.1,0.3c-0.7,0.2-1.4,0.3-1.9,0.3
					c-0.9,0-1.8,0.1-2.8,0.3c-1.1,0-2.1,0-3,0c-1.3,0.2-2.6,0.3-3.9,0.3c-1.3,0-2.7,0-4.1,0c-1.5,0.2-2.9,0.3-4.4,0.3
					c-1.5,0-2.9,0-4.4,0c-1.7,0-3.3,0-5,0c-1.7,0-3.3,0-5,0c-1.7,0-3.3,0-5,0c-1.5,0-3,0-4.7,0c-1.7,0-3.2-0.1-4.7-0.3
					c-1.5,0-2.9,0-4.4,0s-2.9-0.1-4.1-0.3c-1.3,0-2.6,0-3.9,0c-1.1-0.2-10.1,0.5-15.8-0.8c-5.7-1.3-7-5.3-7.1-7.5
					c-0.2-0.7-10.8,8.2-22.3,9.5c0,0-2.1,0.4-3,0.6c-1.1,0.2-2.2,0.4-3.3,0.6c-0.9,0-1.9,0.1-3,0.3c-1.1,0-2.2,0-3.3,0
					c-1.1,0-2.2,0-3.3,0c-1.1,0-2.2-0.1-3.3-0.3c-1.1,0-2.2-0.1-3.3-0.3c-1.1-0.2-2.2-0.4-3.3-0.6c-1.3-0.2-2.5-0.4-3.6-0.6
					c-1.1-0.4-2.2-0.7-3.3-0.8c-1.1-0.4-2.2-0.8-3.3-1.1c-1.1-0.4-2.2-0.8-3.3-1.1c-1.1-0.6-2.2-1-3.3-1.4c-1.1-0.6-2.1-1.1-3-1.7
					c-1.1-0.6-2.2-1.1-3.3-1.7c-1.1-0.6-2.1-1.2-3-2c-1.1-0.7-2.1-1.5-3-2.2c-1.1-0.7-2.1-1.5-3-2.3c-0.9-0.9-1.9-1.8-3-2.5
					c-0.9-0.9-1.8-1.9-2.8-2.8c-0.9-0.9-1.8-2-2.8-3.1c-0.7-1-1.6-2-2.5-3.1c-0.9-1.1-1.7-2.2-2.5-3.4c-0.7-1.3-1.5-2.6-2.2-4
					c-0.9-1.1-1.7-2.3-2.2-3.6c-0.7-1.3-1.4-2.6-1.9-4c-0.7-1.3-1.4-2.6-1.9-3.9c-0.6-1.3-1.1-2.6-1.7-3.9c-0.6-1.3-1.1-2.6-1.7-3.9
					c-0.4-1.5-0.8-2.9-1.4-4.2c-0.4-1.3-0.7-2.7-1.1-4.2c-0.5-1.3-1-2.6-1.4-3.9c-0.4-1.5-0.6-2.9-0.8-4.2c-0.4-1.5-0.7-3-1.1-4.5
					c-0.2-1.3-0.5-2.7-0.8-4.2c-0.2-1.3-0.4-2.7-0.6-4.2c-0.2-1.5-0.4-2.9-0.5-4.2c-0.2-1.5-0.4-3-0.6-4.5c-0.2-1.3-0.4-2.7-0.6-4.2
					c0-1.5-0.1-2.9-0.3-4.2c0-1.5-0.1-2.9-0.3-4.2c0-1.5,0-3,0-4.5c0-1.3,0-2.7,0-4.2c-0.2-1.3-0.2-2.7,0-4.2c0-1.3,0-2.7,0-4.2
					c0-1.3,0-2.7,0-4.2c0.2-1.3,0.3-2.6,0.3-3.9c0.2-1.3,0.3-2.7,0.3-4.2c0.2-1.3,0.4-2.6,0.6-3.9c0-1.3,0.1-2.6,0.3-3.9
					c0.2-1.3,0.4-2.6,0.6-3.9c0.2-1.1,0.4-2.4,0.6-3.7c0.2-1.3,0.4-2.5,0.5-3.7c0.2-1.3,0.4-2.5,0.6-3.7c0.2-1.3,0.4-2.5,0.5-3.7
					c0.2-1.1,0.4-2.2,0.6-3.4c0.4-1.1,0.6-2.3,0.8-3.4c0.2-1.1,0.4-2.2,0.5-3.4c0.4-1,0.7-2,0.8-3.1c0.2-0.9,0.5-1.9,0.8-2.8
					c0.2-0.9,0.5-2,0.8-3.1c0.2-0.7,0.4-1.6,0.6-2.5c0.4-0.9,0.6-1.9,0.8-2.8c0.4-0.7,0.6-1.5,0.8-2.2c0.2-0.7,0.5-1.6,0.8-2.5
					c0.2-0.6,0.5-1.2,0.8-2c0.2-0.7,0.5-1.4,0.8-2c0.2-0.7,0.4-1.4,0.6-2c0.4-0.6,0.6-1.1,0.8-1.7c0.2-0.4,0.5-0.8,0.8-1.4
					c0.2-0.4,0.4-0.8,0.5-1.4c0.2-0.4,0.5-0.7,0.8-1.1c0.2-0.2,0.4-0.5,0.6-0.8c0.2-0.2,0.4-0.4,0.5-0.6c0.2-0.2,0.4-0.4,0.6-0.6
					c0.2-0.2,0.4-0.3,0.5-0.3c0.7-0.2,1.5-0.4,2.2-0.6c0.9-0.2,1.8-0.4,2.8-0.6c1.3-0.2,2.5-0.4,3.6-0.6c1.3,0,2.6-0.1,3.9-0.3
					c1.5,0,2.9-0.1,4.4-0.3c1.5,0,2.9-0.1,4.4-0.3c1.7,0,3.2,0,4.7,0c1.5,0,3,0,4.7,0c1.5,0,2.9,0,4.4,0c1.3,0,2.7,0.1,4.1,0.3
					c1.3,0,2.6,0,3.9,0c1.1,0.2,2.1,0.3,3,0.3c0.9,0.2,1.8,0.4,2.8,0.6c0.7,0,18.6,0.5,22.3,7.5c3.7,7-6.2,93.1,10.7,93.1
					s10.9-86.1,14.2-91.8c3.3-5.7,18.6-6.3,18.6-6.5c0.4-0.2,0.6-0.4,0.8-0.6c0.7-0.2,1.4-0.3,1.9-0.3c0.7-0.2,1.6-0.4,2.5-0.6
					c1.1-0.2,2.2-0.4,3.3-0.6c1.3,0,2.6-0.1,3.9-0.3c1.3-0.2,2.7-0.3,4.1-0.3c1.5-0.2,3-0.3,4.7-0.3c1.5-0.2,3-0.3,4.7-0.3
					c1.7,0,3.3-0.1,5-0.3c1.7,0,3.3,0,5,0c1.5,0,3,0,4.7,0c1.5,0,2.9,0,4.4,0c1.5,0.2,2.9,0.3,4.4,0.3c1.1,0,2.3,0.1,3.6,0.3
					c1.1,0.2,2.2,0.3,3.3,0.3c0.7,0.2,1.6,0.4,2.5,0.6C705.4,319.6,706,319.8,706.5,320z"/>
			</g>
		</g>
		<path fill="#FFFFFF" d="M688.8,348.3c0.1,0.1,0.3,0.3,0.5,0.4c0.1,0.2,0.2,0.4,0.2,0.6c0.1,0.3,0.3,0.6,0.5,0.8
			c0,0.3,0.1,0.6,0.2,1c0.1,0.4,0.2,0.8,0.2,1.2c0,0.5,0.1,1.1,0.2,1.6c0,0.6,0,1.1,0,1.6c0.1,0.6,0.2,1.2,0.2,1.9
			c0,0.7,0,1.4,0,2.1c0.1,0.8,0.2,1.6,0.2,2.3c0,0.8,0,1.6,0,2.5c0,0.8,0,1.7,0,2.5c0,1,0,1.9,0,2.9c0,0.8,0,1.7,0,2.7
			c0,1.1,0,2.2,0,3.1s-0.1,2-0.2,3.1c0,1.1,0,2.1,0,3.1c0,1.1,0,2.2,0,3.3c0,1.1,0,2.3,0,3.5c-0.1,1.1-0.2,2.2-0.2,3.3
			c0,1.2,0,2.4,0,3.5c0,1.2,0,2.5,0,3.7c0,1.1,0,2.3,0,3.5c-0.2,1.2-0.2,2.5-0.2,3.7c0,1.2,0,2.4,0,3.5c0,1.2,0,2.5,0,3.7
			c0,1.2,0,2.5,0,3.7s0,2.5,0,3.7s0,2.5,0,3.7c0.1,1.2,0.2,2.5,0.2,3.7c0,1.2,0,2.5,0,3.7c0.1,1.2,0.2,2.5,0.2,3.7
			c0,1.2,0.1,2.5,0.2,3.7c0,1.1,0.1,2.3,0.2,3.5c0,1.2,0.1,2.5,0.2,3.7c0.1,1.2,0.2,2.4,0.2,3.5c0.1,1.2,0.3,2.4,0.5,3.5
			c0,1.1,0.1,2.3,0.2,3.5c0.1,1.1,0.2,2.2,0.2,3.3c0.1,1.1,0.3,2.2,0.5,3.3c0,1.1,0.1,2.1,0.2,3.1c0.1,1.1,0.2,2.1,0.2,3.1
			c0.1,1,0.2,1.9,0.2,2.9c0.1,1,0.3,1.9,0.4,2.9c0,0.8,0.1,1.7,0.2,2.7c0,0.8,0.1,1.6,0.2,2.5c0,0.8,0,1.6,0,2.3
			c0.1,0.8,0.2,1.6,0.2,2.3c0,0.7,0.1,1.4,0.2,2.1c0,0.6,0,1.2,0,1.9c0,0.6,0,1.1,0,1.6c0,0.4,0,0.9,0,1.4c0,0.3-0.1,0.6-0.2,1
			c0,0.4,0,0.8,0,1c-0.1,0.3-0.2,0.6-0.2,0.8c-0.2,0.1-0.3,0.3-0.5,0.4c0,0.1-0.1,0.2-0.4,0.2c-0.3,0.1-0.6,0.2-0.9,0.2
			c-0.6,0.2-1.1,0.2-1.6,0.2c-0.8,0-1.5,0.1-2.3,0.2c-0.9,0-1.7,0-2.5,0c-1.1,0.1-2.1,0.2-3.2,0.2c-1.1,0-2.2,0-3.4,0
			c-1.2,0.1-2.4,0.2-3.6,0.2c-1.2,0-2.4,0-3.6,0c-1.4,0-2.7,0-4.1,0c-1.4,0-2.7,0-4.1,0c-1.3,0-2.7,0-4.1,0c-1.2,0-2.5,0-3.9,0
			c-1.3,0-2.6-0.1-3.9-0.2c-1.2,0-2.4,0-3.6,0c-1.2,0-2.3-0.1-3.4-0.2c-1.1,0-2.1,0-3.2,0c-0.9-0.1-1.8-0.2-2.7-0.2
			c-0.8-0.2-1.5-0.2-2.3-0.2c-0.6-0.1-1.2-0.3-1.8-0.4c-0.3,0-0.7-0.1-1.1-0.2c-0.6-0.3-1.3-0.5-2-0.8c-0.5-0.1-0.8-0.4-1.1-0.8
			c-0.3-0.4-0.5-0.9-0.7-1.4c-0.3-1.1,0.2-6.6,0-8.3c-0.1-0.6-0.6-0.1-1.3,1.4c-0.3,0.4-0.8,0.9-1.4,1.4c-0.5,0.4-1,0.8-1.6,1.2
			c-0.5,0.4-1,0.8-1.6,1.2c-0.6,0.4-1.2,0.8-1.8,1.2c-0.6,0.4-1.2,0.8-1.8,1.2c-0.8,0.3-1.4,0.6-2,1c-0.6,0.3-1.3,0.6-2,0.8
			c-0.8,0.4-1.5,0.8-2.3,1c-0.8,0.3-1.5,0.5-2.3,0.6c-0.8,0.3-1.5,0.6-2.3,0.8c-0.9,0.1-1.8,0.3-2.5,0.6c-0.8,0.2-1.6,0.3-2.5,0.4
			s-1.7,0.3-2.5,0.4c-0.9,0.1-1.8,0.3-2.7,0.4c-0.8,0-1.6,0.1-2.5,0.2c-0.9,0-1.8,0-2.7,0s-1.8,0-2.7,0c-0.9,0-1.8-0.1-2.7-0.2
			c-0.9,0-1.8-0.1-2.7-0.2c-0.9-0.1-1.8-0.3-2.7-0.4c-1.1-0.1-2-0.3-3-0.4c-0.9-0.3-1.8-0.5-2.7-0.6c-0.9-0.3-1.8-0.6-2.7-0.8
			c-0.9-0.3-1.8-0.6-2.7-0.8c-0.9-0.4-1.8-0.8-2.7-1c-0.9-0.4-1.8-0.8-2.5-1.2c-0.9-0.4-1.8-0.8-2.7-1.2c-0.9-0.4-1.7-0.9-2.5-1.4
			c-0.9-0.6-1.7-1.1-2.5-1.7c-0.9-0.5-1.8-1.1-2.5-1.6c-0.8-0.7-1.6-1.3-2.5-1.9c-0.8-0.7-1.5-1.4-2.3-2.1c-0.8-0.7-1.5-1.4-2.3-2.3
			c-0.6-0.7-1.3-1.4-2-2.3s-1.4-1.6-2-2.5c-0.6-1-1.2-1.9-1.8-2.9c-0.8-0.8-1.4-1.7-1.8-2.7c-0.6-1-1.1-1.9-1.6-2.9
			c-0.6-1-1.1-1.9-1.6-2.9c-0.5-1-0.9-1.9-1.4-2.9c-0.5-1-0.9-1.9-1.4-2.9c-0.3-1.1-0.7-2.1-1.1-3.1c-0.3-1-0.6-2-0.9-3.1
			c-0.5-1-0.8-1.9-1.1-2.9c-0.3-1.1-0.5-2.1-0.7-3.1c-0.3-1.1-0.6-2.2-0.9-3.3c-0.1-1-0.4-2-0.7-3.1c-0.1-1-0.3-2-0.4-3.1
			c-0.1-1.1-0.3-2.1-0.5-3.1c-0.1-1.1-0.3-2.2-0.4-3.3c-0.1-1-0.3-2-0.5-3.1c0-1.1-0.1-2.1-0.2-3.1c0-1.1-0.1-2.1-0.2-3.1
			c0-1.1,0-2.2,0-3.3c0-1,0-2,0-3.1c-0.1-1-0.1-2,0-3.1c0-1,0-2,0-3.1c0-1,0-2,0-3.1c0.2-1,0.2-1.9,0.2-2.9c0.1-1,0.2-2,0.2-3.1
			c0.1-1,0.3-1.9,0.5-2.9c0-1,0.1-1.9,0.2-2.9c0.1-1,0.3-1.9,0.4-2.9c0.2-0.8,0.3-1.7,0.5-2.7c0.1-1,0.3-1.9,0.5-2.7
			c0.1-1,0.3-1.9,0.4-2.7c0.1-1,0.3-1.8,0.5-2.7c0.1-0.8,0.3-1.6,0.4-2.5c0.3-0.8,0.5-1.6,0.7-2.5c0.1-0.8,0.3-1.7,0.5-2.5
			c0.3-0.7,0.5-1.4,0.7-2.3c0.1-0.7,0.4-1.4,0.7-2.1c0.1-0.7,0.4-1.4,0.7-2.3c0.2-0.6,0.3-1.2,0.5-1.9c0.3-0.7,0.5-1.4,0.7-2.1
			c0.3-0.5,0.5-1.1,0.7-1.6c0.1-0.6,0.4-1.2,0.7-1.9c0.1-0.4,0.4-0.9,0.7-1.4c0.2-0.5,0.4-1,0.7-1.4c0.2-0.5,0.3-1,0.5-1.4
			c0.3-0.4,0.5-0.8,0.7-1.2c0.1-0.3,0.4-0.6,0.7-1c0.1-0.3,0.3-0.6,0.4-1c0.1-0.3,0.4-0.6,0.7-0.8c0.1-0.1,0.3-0.4,0.5-0.6
			c0.1-0.1,0.3-0.3,0.4-0.4c0.1-0.1,0.3-0.3,0.5-0.4c0.1-0.1,0.3-0.2,0.3-0.2c0.8-0.1,1.4-0.3,2-0.4c0.8-0.1,1.5-0.3,2.3-0.4
			c1.1-0.1,2-0.3,2.9-0.4c1.1,0,2.1-0.1,3.2-0.2c1.2,0,2.4-0.1,3.6-0.2c1.2,0,2.4-0.1,3.6-0.2c1.4,0,2.7,0,3.9,0c1.2,0,2.5,0,3.9,0
			c1.2,0,2.4,0,3.6,0c1.1,0,2.2,0.1,3.4,0.2c1.1,0,2.1,0,3.2,0c0.9,0.1,1.7,0.2,2.5,0.2c0.8,0.2,1.5,0.3,2.3,0.4
			c0.6,0,1.1,0.1,1.6,0.2c0.3,0.1,0.6,0.3,0.9,0.4c0,0.1,0,0.3,0,0.4c0,0.2,0,0.3,0,0.4c0,0.3,0,0.6,0,0.8c0,0.3,0,0.6,0,1
			c0,0.4-0.1,0.8-0.2,1.2c0,0.6-0.1,1-0.2,1.4c0,0.6-0.1,1.1-0.2,1.7c0,0.7-0.1,1.3-0.2,1.8c0,0.7-0.1,1.4-0.2,2.1
			c-0.1,0.7-0.2,1.4-0.2,2.3c-0.2,0.7-0.3,1.4-0.5,2.3c-0.1,0.8-0.2,1.7-0.2,2.5c-0.1,1-0.3,1.8-0.5,2.7c-0.1,1-0.2,1.8-0.2,2.7
			c-0.1,1-0.3,1.9-0.5,2.9c0,1-0.1,1.9-0.2,2.9c-0.1,1-0.2,2-0.2,3.1c-0.1,1-0.3,2-0.5,3.1c0,1-0.1,2-0.2,3.1c0,1,0,2,0,3.1
			c-0.1,1.1-0.2,2.2-0.2,3.3c0,1.1,0,2.1,0,3.1c-0.2,1.1-0.2,2.2-0.2,3.3c0,1.1,0,2.2,0,3.3c0.1,1,0.2,2,0.2,3.1
			c0,1.1,0.1,2.2,0.2,3.3c0,1,0.1,2,0.2,3.1c0,1,0.1,2,0.2,3.1c0.1,1,0.3,1.9,0.4,2.9c0.1,1,0.4,1.9,0.7,2.9c0.1,1,0.3,1.9,0.5,2.9
			c0.3,1,0.6,1.9,0.9,2.7c0.3,1,0.6,1.9,0.9,2.7c0.3,0.8,0.6,1.6,0.9,2.5c0.3,0.8,0.7,1.6,1.1,2.3c0.5,0.8,0.9,1.6,1.4,2.3
			c0.5,0.7,0.9,1.4,1.4,2.1c0.5,0.7,1,1.3,1.6,1.8c0.5,0.6,1,1.1,1.6,1.7c0.6,0.5,1.3,1,2,1.4c0.6,0.4,1.3,0.8,2,1.2
			c0.8,0.4,1.5,0.8,2.3,1c0.8,0.3,1.5,0.6,2.3,0.8c0.9,0.1,1.8,0.3,2.7,0.4c0.9,0.2,1.8,0.3,2.7,0.4c0.8,0,1.6-0.1,2.5-0.2
			c0.8,0,1.5-0.1,2.3-0.2c0.8-0.3,1.5-0.5,2.3-0.8c0.8-0.3,1.4-0.5,2-0.8c0.8-0.4,1.4-0.8,2-1.2c0.6-0.4,1.2-0.9,1.8-1.4
			c0.6-0.5,1.1-1.1,1.6-1.6c0.6-0.7,1.1-1.4,1.6-2.1c0.6-0.7,1.1-1.4,1.6-2.1c0.5-0.8,0.9-1.6,1.4-2.5c0.3-0.8,0.7-1.6,1.1-2.5
			c0.5-0.8,0.8-1.7,1.1-2.7c0.3-0.8,0.6-1.7,0.9-2.7c0.5-1,0.8-2,1.1-3.1c0.2-1,0.4-2,0.7-3.1c0.3-1,0.6-2,0.9-3.1
			c0.1-1.1,0.4-2.2,0.7-3.3c0.1-1.1,0.3-2.2,0.5-3.3c0.1-1.1,0.4-2.2,0.7-3.3c0.1-1.2,0.3-2.4,0.4-3.5c0.1-1.1,0.2-2.3,0.2-3.5
			c0.1-1.1,0.3-2.2,0.4-3.3c0.1-1.2,0.2-2.4,0.2-3.5c0.1-1.1,0.2-2.3,0.2-3.5c0.1-1.1,0.2-2.2,0.2-3.3c0.1-1.1,0.2-2.2,0.2-3.3
			c0-1.1,0.1-2.2,0.2-3.3c0-1.1,0-2.2,0-3.3c0-1,0.1-2,0.2-3.1c0-1,0-1.9,0-2.9c0-1,0-1.9,0-2.9c0-0.8,0-1.7,0-2.7
			c0-0.8,0-1.6,0-2.5c0.1-0.8,0.2-1.6,0.2-2.5c0-0.7,0-1.4,0-2.3c0-0.5,0-1.2,0-1.8c0-0.6,0-1.2,0-1.9c0-0.4,0.1-0.9,0.2-1.4
			c0-0.4,0-0.8,0-1.2c0-0.4,0.1-0.8,0.2-1c0-0.3,0-0.6,0-0.8c0.1-0.1,0.2-0.3,0.2-0.4c0.3-0.1,0.5-0.3,0.7-0.4
			c0.6-0.1,1.1-0.2,1.6-0.2c0.6-0.1,1.3-0.3,2-0.4c0.9-0.1,1.8-0.3,2.7-0.4c1.1,0,2.1-0.1,3.2-0.2c1.1-0.1,2.2-0.2,3.4-0.2
			c1.2-0.1,2.5-0.2,3.9-0.2c1.2-0.1,2.5-0.2,3.9-0.2s2.7-0.1,4.1-0.2c1.4,0,2.7,0,4.1,0c1.2,0,2.5,0,3.8,0c1.2,0,2.4,0,3.6,0
			c1.2,0.1,2.4,0.2,3.6,0.2c0.9,0,1.9,0.1,2.9,0.2c0.9,0.2,1.8,0.2,2.7,0.2c0.6,0.1,1.3,0.3,2,0.4
			C687.9,348,688.4,348.2,688.8,348.3z"/>
	</g>
</g>
</svg>
