<?xml version="1.0" encoding="utf-8"?>
<!-- Generator: Adobe Illustrator 18.0.0, SVG Export Plug-In . SVG Version: 6.00 Build 0)  -->
<!DOCTYPE svg PUBLIC "-//W3C//DTD SVG 1.1//EN" "http://www.w3.org/Graphics/SVG/1.1/DTD/svg11.dtd">
<svg version="1.1" id="Camada_1" xmlns="http://www.w3.org/2000/svg" xmlns:xlink="http://www.w3.org/1999/xlink" x="0px" y="0px"
	 viewBox="0 0 1024 768" enable-background="new 0 0 1024 768" xml:space="preserve">
<g>
	<defs>
		<circle id="SVGID_1_" cx="511.9" cy="383.4" r="375.7"/>
	</defs>
	<clipPath id="SVGID_2_">
		<use xlink:href="#SVGID_1_"  overflow="visible"/>
	</clipPath>
	<g clip-path="url(#SVGID_2_)" enable-background="new    ">
		
			<image overflow="visible" width="2474" height="2474" xlink:href="../../banco de imagens/botões/butt 25.png"  transform="matrix(0.3065 0 0 0.3065 132.8006 4.7999)">
		</image>
	</g>
</g>
<g>
	<g>
		<path d="M287.7,210.9h0.3c0.2,0,0.4-0.1,0.6-0.3h1c0.4,0,0.9-0.1,1.3-0.3h1.6h2c0.6-0.2,1.4-0.3,2.3-0.3h2.3
			c0.9-0.2,1.7-0.3,2.6-0.3h2.9c1.1-0.2,2.2-0.3,3.2-0.3h3.2c1.3,0,2.6-0.1,3.9-0.3h3.6h4.2c1.3-0.2,2.6-0.3,3.9-0.3h4.5
			c1.5,0,3-0.1,4.5-0.3h4.5h4.9c1.7,0,3.5-0.1,5.2-0.3h4.9h5.5h5.2c1.9-0.2,3.8-0.3,5.5-0.3h5.5h5.5h5.8h5.8
			c1.9-0.2,3.9-0.3,5.8-0.3h5.8h5.8h6.2h5.8h5.8h6.1h5.8h6.1h5.8h5.8h5.8h5.8c2,0,3.9,0.1,5.8,0.3h5.5h5.5h5.5
			c1.7,0,3.6,0.1,5.5,0.3h5.2h5.2c1.5,0,3.1,0.1,4.9,0.3h4.9h4.9c1.5,0.2,3,0.3,4.5,0.3h4.2c1.5,0.2,2.9,0.3,4.2,0.3
			c1.3,0,2.7,0.1,4.2,0.3h3.6c1.3,0.2,2.6,0.3,3.9,0.3c1.1,0,2.2,0.1,3.2,0.3h3.2c0.9,0.2,1.8,0.3,2.9,0.3c0.9,0.2,1.7,0.3,2.6,0.3
			c0.9,0,1.7,0.1,2.6,0.3c0.7,0,1.4,0.1,2.3,0.3c0.6,0,1.2,0.1,1.6,0.3c0.6,0,1.3,0.1,1.9,0.3c0.4,0,0.9,0.1,1.3,0.3
			c0.2,0,0.5,0.1,1,0.3c0.2,0,0.4,0.1,0.6,0.3c0.2,0,0.4,0.1,0.7,0.3c0.2,0.4,0.4,0.8,0.7,1.4c0.2,0.7,0.4,1.4,0.6,2
			c0.2,0.9,0.3,1.8,0.3,2.5c0.2,1.1,0.3,2.2,0.3,3.1c0,1.1,0.1,2.3,0.3,3.4v3.9v4.2c0,1.3-0.1,2.7-0.3,4.2c0,1.5-0.1,3-0.3,4.5
			c0,1.7-0.1,3.3-0.3,4.8c0,1.5-0.1,3.1-0.3,4.8c-0.2,1.5-0.4,3-0.6,4.5c0,1.7-0.1,3.3-0.3,4.8c-0.2,1.5-8.1,63.4-20.4,63
			c-20.8,0.5-65.7,1.7-65.7,1.7s7.8,200.3,8.3,204.2c0.5,3.9-6.1,7.9-6.1,7.9s-2.5,0.1-3.2,0.3c-0.9,0.2-2.3,0.4-3.2,0.6
			c-0.9,0-1.8,0.1-2.9,0.3c-1.3,0.2-2.5,0.3-3.5,0.3c-1.3,0.2-2.6,0.3-3.9,0.3c-1.5,0.2-3,0.3-4.5,0.3c-1.7,0.2-3.3,0.3-4.8,0.3
			c-1.7,0-3.5,0.1-5.2,0.3h-5.2h-5.8h-5.5h-5.8h-5.8h-5.8c-1.9,0-3.8-0.1-5.5-0.3h-5.5c-1.9,0-3.8-0.1-5.5-0.3
			c-1.7,0-3.5-0.1-5.2-0.3h-4.5c-1.5-0.2-3-0.3-4.5-0.3c-1.3-0.2-2.6-0.4-3.9-0.6c-1.1,0-2.3-0.1-3.6-0.3c-0.9,0-1.8-0.1-2.9-0.3
			c-0.6-0.2-3.3-0.3-4.1-0.3c-0.7-0.2-2.9-0.6-3.3-0.8c-0.4,0-7-5.9-7-6.3c0-0.4,6.9-201.2,6.9-202.5c0.2-1.1-59.9,2.9-69.8-3.5
			c-9.9-6.5-14.1-38.2-14.3-39c-0.2-0.9-1.4-5.3-1.6-6.5c-0.2-1.3-0.4-2.6-0.6-3.9c-0.2-1.3-0.8-6.9-1-8.4c-0.2-1.7-0.4-3.3-0.6-4.8
			c0-1.5-0.1-3.1-0.3-4.8c0-1.7-0.1-3.3-0.3-4.8c0-1.7-0.1-3.4-0.3-5.1v-4.8v-4.8v-4.5v-4.5V225c0-1.1,0.1-2.3,0.3-3.6
			c0-1.1,0.1-2.2,0.3-3.1c0-0.9,0.1-1.9,0.3-2.8c0-0.7,0.1-1.4,0.3-2c0.2-0.6,0.4-1.1,0.6-1.7C287.2,211.6,287.5,211.3,287.7,210.9"
			/>
		<path fill="#FFFFFF" d="M324.6,232.8h0.2c0.2,0,0.3-0.1,0.5-0.2h0.7c0.3,0,0.7-0.1,1-0.2h1.2h1.5c0.5-0.2,1-0.3,1.7-0.3h1.7
			c0.7-0.2,1.3-0.2,1.9-0.2h2.2c0.8-0.2,1.6-0.2,2.4-0.2h2.4c1,0,1.9-0.1,2.9-0.2h2.7h3.2c1-0.2,1.9-0.2,2.9-0.2h3.4
			c1.1,0,2.3-0.1,3.4-0.2h3.4h3.6c1.3,0,2.6-0.1,3.9-0.2h3.6h4.1h3.9c1.5-0.2,2.8-0.3,4.1-0.3h4.1h4.1h4.4h4.4
			c1.5-0.2,2.9-0.2,4.4-0.2h4.4h4.4h4.6h4.4h4.4h4.6h4.4h4.6h4.4h4.4h4.4h4.4c1.5,0,2.9,0.1,4.4,0.2h4.1h4.1h4.1
			c1.3,0,2.7,0.1,4.1,0.3h3.9h3.9c1.1,0,2.3,0.1,3.6,0.2h3.6h3.6c1.1,0.2,2.3,0.2,3.4,0.2h3.2c1.1,0.2,2.2,0.2,3.2,0.2
			s2,0.1,3.2,0.2h2.7c1,0.2,1.9,0.2,2.9,0.2c0.8,0,1.6,0.1,2.4,0.2h2.4c0.7,0.2,1.4,0.3,2.2,0.3c0.6,0.2,1.3,0.2,1.9,0.2
			c0.6,0,1.3,0.1,1.9,0.2c0.5,0,1.1,0.1,1.7,0.2c0.5,0,0.9,0.1,1.2,0.2c0.5,0,1,0.1,1.5,0.3c0.3,0,0.6,0.1,1,0.2
			c0.2,0,0.4,0.1,0.7,0.2c0.2,0,0.3,0.1,0.5,0.2c0.2,0,0.3,0.1,0.5,0.2c0.2,0.3,0.3,0.7,0.5,1.2c0.2,0.7,0.3,1.2,0.5,1.7
			c0.2,0.8,0.3,1.6,0.3,2.2c0.2,1,0.2,1.9,0.2,2.7c0,1,0.1,1.9,0.2,2.9v3.4v3.6c0,1.1-0.1,2.3-0.2,3.6c0,1.3-0.1,2.6-0.2,3.9
			c0,1.5-0.1,2.8-0.3,4.1c0,1.3-0.1,2.7-0.2,4.1c-0.2,1.3-0.3,2.6-0.5,3.9c0,1.5-0.1,2.8-0.3,4.1c-0.2,1.3-0.3,2.6-0.5,3.9
			c-0.2,1.3-0.4,2.5-0.7,3.6c-0.2,1.1-0.3,2.4-0.5,3.6c-0.2,1-0.4,2-0.7,3.2c-0.2,1-0.3,2-0.5,2.9c-0.2,0.8-0.4,1.6-0.7,2.4
			c-0.2,0.7-0.4,1.4-0.7,2.2c-0.2,0.5-0.4,1-0.7,1.5c-0.2,0.5-0.3,0.8-0.5,1c-0.3,0.3-0.7,0.6-1.2,0.7c-0.7,0.3-1.2,0.6-1.7,0.7
			c-0.8,0.2-1.6,0.3-2.4,0.5c-1,0.2-1.9,0.3-2.9,0.5c-1.1,0.2-2.3,0.3-3.4,0.5c-1.3,0-2.6,0.1-3.9,0.3c-1.3,0.2-2.6,0.2-3.9,0.2
			c-1.5,0-2.9,0.1-4.4,0.3h-4.4c-1.6,0-3.2,0.1-4.6,0.2h-4.6h-4.4h-4.4c-1.3-0.2-2.6-0.2-3.9-0.2h-7.3c-1,0-2-0.1-2.9-0.3h-2.4h-1.9
			h-1.2H466v0.5v0.5v1c0,0.3,0.1,0.7,0.2,1v1.5v1.5c0,0.6,0.1,1.2,0.2,1.7v1.9c0,0.8,0.1,1.5,0.2,2.2v2.4c0.2,0.8,0.3,1.6,0.3,2.4
			c0,0.8,0.1,1.7,0.2,2.7v2.7c0.2,1.1,0.3,2.2,0.3,3.1c0,1,0.1,2,0.3,3.2v3.1c0.2,1.1,0.2,2.3,0.2,3.4c0.2,1.1,0.3,2.3,0.3,3.4
			c0.2,1.3,0.2,2.5,0.2,3.6c0,1.3,0.1,2.6,0.3,3.9c0,1.3,0.1,2.6,0.2,3.9c0,1.3,0.1,2.6,0.2,3.9c0,1.3,0.1,2.7,0.2,4.1v4.1
			c0.2,1.3,0.2,2.7,0.2,4.1c0.2,1.5,0.2,2.9,0.2,4.4c0.2,1.3,0.2,2.7,0.2,4.1c0.2,1.5,0.3,2.9,0.3,4.4c0.2,1.5,0.3,3,0.3,4.6
			c0.2,1.5,0.2,2.9,0.2,4.4c0.2,1.5,0.3,2.9,0.3,4.4c0.2,1.6,0.2,3.2,0.2,4.6c0.2,1.5,0.3,3,0.3,4.6c0.2,1.5,0.2,2.9,0.2,4.4
			c0,1.4,0.1,3,0.2,4.6c0,1.5,0.1,2.9,0.2,4.4c0,1.6,0.1,3.2,0.2,4.6c0,1.5,0.1,2.9,0.2,4.4v4.6c0.2,1.5,0.3,2.9,0.3,4.4
			c0.2,1.5,0.2,2.9,0.2,4.4s0.1,2.9,0.2,4.4v4.1c0.2,1.4,0.2,2.8,0.2,4.1c0,1.5,0.1,2.8,0.2,4.1v4.1c0.2,1.3,0.2,2.6,0.2,3.9v3.9
			c0.2,1.3,0.3,2.5,0.3,3.6v3.6c0.2,1.1,0.2,2.3,0.2,3.6v3.1v3.4c0.2,1,0.2,2,0.2,3.1v2.9v2.7v2.7v2.4v2.4v1.9
			c0,0.6-0.1,1.3-0.2,1.9v1.7v1.5c0,0.5-0.1,0.9-0.2,1.2v1.2c-0.2,0.2-0.3,0.4-0.3,0.7c0,0.2-0.1,0.4-0.2,0.7v0.2
			c-0.3,0.2-0.6,0.3-1,0.5c-0.3,0.2-0.7,0.3-1.2,0.5c-0.7,0.2-1.3,0.3-1.9,0.5c-0.7,0-1.4,0.1-2.2,0.3c-1,0.2-1.9,0.2-2.7,0.2
			c-1,0.2-2,0.2-2.9,0.2c-1.1,0.2-2.3,0.2-3.4,0.2c-1.3,0.2-2.5,0.2-3.6,0.2c-1.3,0-2.6,0.1-3.9,0.2h-3.9H443h-4.1h-4.4h-4.4h-4.4
			c-1.5,0-2.8-0.1-4.1-0.2h-4.1c-1.4,0-2.8-0.1-4.1-0.2c-1.3,0-2.6-0.1-3.9-0.2h-3.4c-1.1-0.2-2.3-0.2-3.4-0.2
			c-1-0.2-1.9-0.3-2.9-0.5c-0.8,0-1.7-0.1-2.7-0.2c-0.7,0-1.4-0.1-2.2-0.2c-0.5-0.2-1.1-0.2-1.7-0.2c-0.5-0.2-0.9-0.3-1.2-0.5
			c-0.3,0-0.6-0.1-0.7-0.2l-0.3-0.2v-0.5c-0.2-0.3-0.2-0.7-0.2-1c0-0.3-0.1-0.6-0.3-1v-1.2c0-0.5-0.1-1-0.2-1.4V507v-1.9
			c0-0.7-0.1-1.3-0.2-1.9v-2.4v-2.4v-2.7c0-1-0.1-1.9-0.2-2.7v-3.2v-3.1v-3.2v-3.4v-3.6v-3.6v-3.6v-3.9v-4.1V457
			c0-1.3,0.1-2.7,0.2-4.1v-4.1v-4.4V440v-4.4c0-1.6,0.1-3.2,0.2-4.6v-4.4v-4.6v-4.6c0.2-1.5,0.2-3,0.2-4.6v-4.4v-4.6
			c0.2-1.6,0.3-3.2,0.3-4.6v-4.6v-4.4c0.2-1.6,0.2-3.2,0.2-4.6v-4.4c0-1.4,0.1-2.9,0.3-4.4v-4.4v-4.4c0-1.3,0.1-2.7,0.2-4.1V360
			v-4.1c0.2-1.3,0.3-2.6,0.3-3.9v-3.9v-3.6c0.2-1.1,0.3-2.3,0.3-3.6v-3.4V334c0.2-1,0.2-2,0.2-3.2v-3.2v-2.9
			c0.2-0.8,0.3-1.7,0.3-2.7v-2.4v-2.4v-2.2c0.1-0.6,0.2-1.3,0.2-1.9v-1.9v-1.5v-1.4v-1v-1v-0.7v-0.2c0.2-0.2,0.2-0.3,0-0.3h-0.2
			c-0.3,0.2-0.7,0.3-1.2,0.3h-1.7h-2.2h-2.9c-1.1,0-2.3,0.1-3.4,0.2h-3.6h-3.9h-4.1h-4.4h-4.4h-4.4c-1.5-0.2-2.9-0.2-4.4-0.2
			c-1.3,0-2.7-0.1-4.1-0.3c-1.3,0-2.6-0.1-3.9-0.2c-1.3,0-2.5-0.1-3.6-0.2c-1.1-0.2-2.3-0.3-3.4-0.3c-1-0.2-1.9-0.3-2.9-0.5
			c-0.8-0.2-1.6-0.3-2.4-0.5c-0.6-0.3-1.3-0.6-1.9-0.7c-0.5-0.2-0.9-0.4-1.2-0.7c-0.3-0.3-0.6-0.6-0.7-1c-0.3-0.5-0.6-1.1-0.7-1.7
			c-0.3-0.7-0.6-1.3-0.7-1.9c-0.2-0.8-0.3-1.7-0.5-2.7c-0.3-1-0.6-1.9-0.7-2.9c-0.2-1.1-0.3-2.3-0.5-3.4c-0.2-1.1-0.3-2.3-0.5-3.4
			c0-1.3-0.1-2.6-0.2-3.9c-0.2-1.5-0.3-2.8-0.5-4.1c0-1.3-0.1-2.7-0.2-4.1c0-1.5-0.1-2.8-0.2-4.1c0-1.5-0.1-2.9-0.2-4.4v-4.1v-4.1
			v-3.9v-3.9V245c0-1,0.1-2,0.2-3.2c0-1,0.1-1.8,0.2-2.7c0-0.8,0.1-1.6,0.2-2.4c0-0.7,0.1-1.2,0.3-1.7c0.2-0.5,0.3-1,0.5-1.5
			C324.2,233.4,324.4,233.1,324.6,232.8"/>
	</g>
	<g>
		<path fill="#020202" d="M609.6,521.9c-0.2-0.8-10.8,16.1-40.6,16c-0.8,0.2-1.8,0.2-2.8,0c-0.8,0-1.6,0-2.4,0c-1,0-2,0-2.7,0
			c-1-0.2-2-0.3-2.8-0.3c-1-0.2-1.9-0.4-2.8-0.6c-0.8,0-1.7-0.1-2.7-0.3c-0.8-0.2-1.7-0.4-2.7-0.6c-0.8-0.2-1.6-0.4-2.5-0.6
			c-1-0.4-2-0.7-2.8-0.9c-0.8-0.2-1.8-0.5-2.8-0.9c-0.8-0.4-1.6-0.7-2.5-0.9c-0.8-0.4-1.7-0.8-2.7-1.2c-0.8-0.4-1.6-0.8-2.5-1.2
			c-0.8-0.4-1.6-0.8-2.4-1.2c-0.8-0.4-1.6-0.8-2.5-1.2c-0.8-0.6-1.6-1.1-2.4-1.5c-0.8-0.6-1.6-1.1-2.5-1.5c-0.8-0.6-1.6-1.2-2.4-1.8
			c-0.8-0.4-1.6-0.9-2.5-1.5c-0.8-0.6-1.5-1.2-2.1-1.8c-0.8-0.6-1.6-1.2-2.5-1.8c-0.6-0.8-1.3-1.5-2.1-2.1c-0.8-0.6-1.5-1.3-2.2-2.2
			c-0.6-0.6-1.3-1.3-2.2-2.1c-0.6-0.8-1.3-1.6-2.1-2.5c-0.6-0.6-1.2-1.3-1.8-2.1c-0.6-0.8-1.2-1.6-1.8-2.4c-0.6-0.8-1.2-1.7-1.8-2.8
			c-0.6-0.8-1.2-1.6-1.8-2.5c-0.6-1-1.2-1.9-1.8-2.7c-0.4-1-0.9-1.9-1.5-2.8c-0.6-1-1.1-2-1.5-3.1c-0.6-0.8-1.1-1.7-1.5-2.7
			c-0.4-1-0.9-2-1.5-3.1c-0.4-1-0.8-2-1.2-3.1c-0.4-1.2-0.8-2.3-1.2-3.4c-0.4-1-0.8-2.1-1.2-3.4c-0.4-1-0.7-2.2-0.9-3.4
			c-0.4-1-0.8-2.2-1.2-3.4c-0.2-1.2-0.4-2.4-0.6-3.4c-0.4-1.2-0.7-2.5-0.9-3.7c-0.2-1.2-0.4-2.5-0.6-3.7c-0.2-1.2-0.4-2.5-0.6-3.7
			c-0.2-1.4-0.4-2.8-0.6-4c0-1.2-0.1-2.6-0.3-4c0-1.2-0.1-2.6-0.3-4c0-1.2,0-2.6,0-4s0-2.8,0-4c0-1.4,0-2.9,0-4.3
			c0-1.4,0.1-2.9,0.3-4.3c0-1.4,0.1-2.8,0.3-4.3c0-1.6,0.1-3.2,0.3-4.6c0.2-1.4,0.4-2.8,0.6-4.3c0.2-1.6,0.4-3.2,0.6-4.6
			c0.4-1.8,0.8-3.6,1.2-5.2c0.2-1.6,0.5-3.3,0.9-4.9c0.4-1.6,0.8-3.2,1.2-4.6c0.4-1.6,0.9-3.2,1.5-4.6c0.4-1.6,0.9-3.2,1.5-4.6
			c0.4-1.4,0.9-2.9,1.5-4.3c0.6-1.4,1.2-2.7,1.8-4c0.6-1.4,1.2-2.7,1.8-4c0.6-1.4,1.3-2.7,2.1-4c0.6-1.2,1.3-2.5,2.2-3.7
			c14-21.4,39.6-43.1,74.3-45c34.7-1.9,47.9,15.6,48.1,14.8c0.8-1.6-1.2-10.3,4.1-13.4c5.3-3.1,82.7-3,81.8,5l0.3,0.3
			c0,0.4,0,0.7,0,0.9c0,0.4,0,0.8,0,1.2c0,0.6,0,1.2,0,1.8c0,0.6,0,1.2,0,1.8c0,0.8,0,1.5,0,2.2c0,1,0,1.9,0,2.7
			c0,1-0.1,1.9-0.3,2.8c0,1.2,0,2.4,0,3.4c-0.2,1.2-0.3,2.3-0.3,3.4c0,1.4-0.1,2.8-0.3,4c0,1.2,0,2.6,0,4c-0.2,1.4-0.3,2.9-0.3,4.3
			c0,1.6-0.1,3.2-0.3,4.6c0,1.6,0,3.3,0,4.9c-0.2,1.6-0.3,3.3-0.3,4.9c0,1.8-0.1,3.7-0.3,5.5c0,1.8,0,3.6,0,5.2
			c-0.2,2-0.3,4-0.3,5.8c0,2,0,4,0,5.8c0,2.1-0.1,4.1-0.3,6.1c0,2,0,4.1,0,6.1c0,2.3,0,4.4,0,6.4c0,2.5,0,4.8,0,7c0,2.3,0,4.5,0,6.7
			c0.2,2.3,0.3,4.4,0.3,6.4c0,2.3,0,4.4,0,6.4c0,2,0.1,4.1,0.3,6.1c0,2.1,0,4.1,0,6.1c0.2,2,0.3,4,0.3,5.8c0,1.8,0.1,3.8,0.3,5.8
			c0,1.8,0.1,3.6,0.3,5.2c0,1.8,0,3.7,0,5.5c0.2,1.6,0.3,3.3,0.3,4.9c0.2,1.6,0.3,3.3,0.3,4.9c0.2,1.6,0.3,3.2,0.3,4.6
			c0.2,1.6,0.3,3.2,0.3,4.6c0.2,1.4,0.3,2.9,0.3,4.3c0.2,1.2,0.3,2.6,0.3,4c0,1.2,0.1,2.5,0.3,3.7c0,1.2,0.1,2.5,0.3,3.7
			c0,1.2,0,2.4,0,3.4c0.2,1,0.3,2.1,0.3,3.4c0,0.8,0.1,1.7,0.3,2.8c0,1,0,1.9,0,2.8c0,0.8,0.1,1.6,0.3,2.5c0,0.8,0,1.6,0,2.4
			c0,0.6,0,1.2,0,1.8s0,1.2,0,1.8c0,0.6,0,1.1,0,1.5c0,0.4,0,0.9,0,1.5c0,0.2-0.1,0.5-0.3,0.9c0,0.4,0,0.7,0,0.9
			c-0.2,0.2-0.3,0.4-0.3,0.6c0,0.2-0.1,0.3-0.3,0.3c-0.4,0.2-0.8,0.4-1.2,0.6c-0.8,0.2-1.5,0.3-2.1,0.3c-1,0.2-2.1,0.4-3.1,0.6
			c-1,0-6.1,0.3-7.3,0.3c-1.6,0.2-3.2,0.3-4.6,0.3c-1.6,0-3.3,0-4.9,0c-1.6,0-8.6,0-10.4,0c-1.8,0-3.7,0-5.5,0
			c-1.8,0-8.9-0.1-10.7-0.3c-1.8,0-17.9-0.9-19.3-0.9c-1.2-0.2-9.2-1.2-9.2-1.2C613.4,534.3,610,523.3,609.6,521.9z"/>
		<path fill="#FFFFFF" d="M620.6,494.9c-0.2-0.7-0.7,0.1-1.5,2.3c-0.4,0.7-0.9,1.4-1.8,2c-0.7,0.5-1.3,1.1-1.8,1.8
			c-0.5,0.7-1.1,1.3-1.8,1.8c-0.7,0.7-1.3,1.3-1.8,1.8c-0.7,0.7-1.4,1.3-2,1.8c-0.7,0.5-1.3,1-1.8,1.5c-0.7,0.5-1.4,1-2,1.5
			c-0.7,0.3-1.3,0.8-2,1.3c-0.7,0.5-1.4,0.9-2,1.3c-0.7,0.3-1.4,0.8-2,1.3c-0.7,0.3-1.3,0.7-2,1c-0.7,0.3-1.4,0.7-2.3,1
			c-0.7,0.3-1.3,0.6-2,0.8c-0.7,0.3-1.4,0.7-2.3,1c-0.7,0.2-1.4,0.3-2,0.5c-0.7,0.3-1.4,0.6-2.3,0.8c-0.7,0.2-1.4,0.3-2.3,0.5
			c-0.7,0.2-1.4,0.3-2,0.5c-0.8,0.2-1.6,0.3-2.3,0.3c-0.7,0.2-1.4,0.2-2.3,0.2c-0.7,0.2-1.4,0.3-2.3,0.3c-0.7,0-1.4,0-2.3,0
			c-0.7,0.2-1.4,0.2-2.3,0c-0.7,0-1.4,0-2,0c-0.9,0-1.6,0-2.3,0c-0.8-0.2-1.6-0.3-2.3-0.3c-0.8-0.2-1.6-0.3-2.3-0.5
			c-0.7,0-1.4-0.1-2.3-0.2c-0.7-0.2-1.4-0.3-2.3-0.5c-0.7-0.2-1.4-0.3-2-0.5c-0.8-0.3-1.6-0.6-2.3-0.8c-0.7-0.2-1.4-0.4-2.3-0.8
			c-0.7-0.3-1.4-0.6-2-0.8c-0.7-0.3-1.4-0.7-2.3-1c-0.7-0.3-1.3-0.7-2-1c-0.7-0.3-1.4-0.7-2-1c-0.7-0.3-1.4-0.7-2-1
			c-0.7-0.5-1.3-0.9-2-1.3c-0.7-0.5-1.4-0.9-2-1.3c-0.7-0.5-1.4-1-2-1.5c-0.7-0.3-1.3-0.8-2-1.3c-0.7-0.5-1.3-1-1.8-1.5
			c-0.7-0.5-1.4-1-2-1.5c-0.5-0.7-1.1-1.3-1.8-1.8c-0.7-0.5-1.3-1.1-1.8-1.8c-0.5-0.5-1.1-1.1-1.8-1.8c-0.5-0.7-1.1-1.4-1.8-2
			c-0.5-0.5-1-1.1-1.5-1.8c-0.5-0.7-1-1.4-1.5-2c-0.5-0.7-1-1.4-1.5-2.3c-0.5-0.7-1-1.3-1.5-2c-0.5-0.8-1-1.6-1.5-2.3
			c-0.3-0.8-0.8-1.6-1.3-2.3c-0.5-0.8-1-1.7-1.3-2.5c-0.5-0.7-0.9-1.4-1.3-2.3c-0.4-0.8-0.8-1.7-1.3-2.5c-0.3-0.8-0.7-1.7-1-2.5
			c-0.3-1-0.7-1.9-1-2.8c-0.3-0.8-0.7-1.8-1-2.8c-0.4-0.8-0.6-1.8-0.8-2.8c-0.3-0.8-0.7-1.8-1-2.8c-0.2-1-0.4-1.9-0.5-2.8
			c-0.3-1-0.6-2-0.8-3c-0.2-1-0.3-2-0.5-3c-0.2-1-0.4-2-0.5-3c-0.2-1.2-0.3-2.3-0.5-3.3c0-1-0.1-2.1-0.3-3.3c0-1-0.1-2.1-0.2-3.3
			c0-1,0-2.1,0-3.3c0-1.2,0-2.3,0-3.3c0-1.2,0-2.4,0-3.6c0-1.2,0.1-2.4,0.2-3.6c0-1.2,0.1-2.4,0.3-3.6c0-1.4,0.1-2.6,0.2-3.8
			c0.2-1.2,0.3-2.4,0.5-3.6c0.2-1.4,0.4-2.6,0.5-3.8c0.4-1.5,0.7-3,1-4.3c0.2-1.4,0.4-2.7,0.8-4.1c0.4-1.4,0.7-2.6,1-3.8
			c0.4-1.4,0.8-2.6,1.3-3.8c0.3-1.4,0.8-2.6,1.3-3.8c0.4-1.2,0.8-2.4,1.3-3.6c0.5-1.2,1-2.3,1.5-3.3c0.5-1.2,1-2.3,1.5-3.3
			c0.5-1.2,1.1-2.3,1.8-3.3c0.5-1,1.1-2,1.8-3c0.5-1,1.1-1.9,1.8-2.8c0.7-1,1.4-1.9,2-2.8c0.7-1,1.4-2,2-2.8c0.7-0.8,1.3-1.7,2-2.5
			c0.7-0.8,1.3-1.7,2-2.5c0.8-0.7,1.6-1.4,2.3-2.3c0.8-0.7,1.6-1.4,2.3-2c0.8-0.7,1.7-1.4,2.5-2c0.7-0.7,1.4-1.4,2.3-2
			c0.8-0.7,1.7-1.3,2.5-1.8c0.8-0.7,1.7-1.3,2.5-1.8c0.8-0.5,1.7-1,2.5-1.5c0.8-0.5,1.7-1,2.5-1.5c1-0.5,2-0.9,2.8-1.3
			c0.8-0.5,1.8-0.9,2.8-1.3c0.8-0.3,1.7-0.8,2.5-1.3c1-0.3,1.9-0.7,2.8-1c1-0.2,1.9-0.4,2.8-0.8c1-0.3,1.9-0.6,2.8-0.8
			c1-0.3,1.9-0.6,2.8-0.8c1-0.2,1.9-0.3,2.8-0.5c1-0.2,1.9-0.3,2.8-0.5c1-0.2,2-0.2,3-0.2c0.8-0.2,1.8-0.3,2.8-0.3
			c0.8-0.2,1.8-0.2,2.8-0.2c1,0,2,0,2.8,0c1,0,1.9,0,2.8,0c1,0,1.9,0.1,2.8,0.2c1,0,1.9,0.1,2.8,0.3c1,0,1.9,0.1,2.8,0.2
			c1,0.2,1.9,0.3,2.8,0.5c0.8,0.2,1.8,0.3,2.8,0.5c0.8,0.3,1.7,0.6,2.5,0.8c1,0.2,1.9,0.4,2.8,0.8c0.8,0.3,1.7,0.7,2.5,1
			c0.8,0.2,1.7,0.4,2.5,0.8c0.8,0.3,1.7,0.7,2.5,1c0.8,0.5,1.7,0.9,2.5,1.3c0.7,0.3,1.4,0.8,2.3,1.3c0.8,0.5,1.6,0.9,2.3,1.3
			c0.8,0.5,1.6,1,2.3,1.5c0.8,0.5,1.6,1,2.3,1.5c1,0.3,1.7,0.8,2,1.5c1.2,1.9,1.9,2.5,2,1.8c0.7-1.3,0.9-3.1,0.8-5.3
			c-0.2-1.5,0-3,0.5-4.6c0.3-1,0.6-2.1,0.7-3.3c0-0.7,0.3-1.2,0.8-1.5c0.2-0.2,0.5-0.3,1-0.5c0.5-0.2,1.1-0.3,1.8-0.3
			c0.8-0.2,1.7-0.2,2.5-0.2c1-0.2,2-0.3,3.1-0.3c1.2,0,2.4,0,3.6,0c1.3,0,2.7,0,4.1,0c1.3,0,2.8,0,4.3,0c1.4,0,2.8,0,4.3,0
			c1.5,0,3.1,0.1,4.6,0.3c1.5,0,3.1,0.1,4.8,0.2c1.3,0,2.8,0.1,4.3,0.3c1.5,0.2,3,0.3,4.3,0.5c1.3,0.2,2.7,0.3,4.1,0.5
			c1.2,0.2,2.4,0.3,3.6,0.5c1,0.2,2,0.3,3.1,0.5c0.8,0.2,1.7,0.4,2.5,0.8c0.7,0.2,1.3,0.3,1.8,0.5c0.3,0.3,0.7,0.7,1,1l0.2,0.2
			c0,0.3,0,0.6,0,0.8c0,0.3,0,0.7,0,1c0,0.5,0,1,0,1.5s0,1,0,1.5c0,0.7,0,1.3,0,1.8c0,0.8,0,1.6,0,2.3c0,0.9-0.1,1.6-0.2,2.3
			c0,1,0,1.9,0,2.8c-0.2,1-0.2,1.9-0.2,2.8c0,1.2-0.1,2.3-0.3,3.3c0,1,0,2.1,0,3.3c-0.2,1.2-0.2,2.4-0.2,3.6c0,1.4-0.1,2.6-0.2,3.8
			c0,1.4,0,2.7,0,4.1c-0.2,1.4-0.3,2.7-0.3,4.1c0,1.5-0.1,3-0.2,4.6c0,1.5,0,3,0,4.3c-0.2,1.7-0.2,3.3-0.2,4.8c0,1.7,0,3.3,0,4.8
			c0,1.7-0.1,3.4-0.2,5.1c0,1.7,0,3.4,0,5.1c0,1.9,0,3.6,0,5.3c0,2,0,4,0,5.8c0,1.9,0,3.7,0,5.6c0.2,1.9,0.2,3.6,0.2,5.3
			c0,1.9,0,3.6,0,5.3c0,1.7,0.1,3.4,0.2,5.1c0,1.7,0,3.4,0,5.1c0.2,1.7,0.2,3.3,0.2,4.8c0,1.5,0.1,3.1,0.3,4.8c0,1.5,0.1,3,0.2,4.3
			c0,1.5,0,3,0,4.6c0.2,1.4,0.2,2.7,0.2,4.1c0.2,1.4,0.3,2.7,0.3,4.1c0.2,1.4,0.2,2.6,0.2,3.8c0.2,1.4,0.2,2.6,0.2,3.8
			c0.2,1.2,0.2,2.4,0.2,3.6c0.2,1,0.3,2.1,0.3,3.3c0,1,0.1,2,0.2,3c0,1,0.1,2,0.2,3c0,1,0,1.9,0,2.8c0.2,0.8,0.3,1.8,0.3,2.8
			c0,0.7,0.1,1.4,0.2,2.3c0,0.8,0,1.6,0,2.3c0,0.7,0.1,1.4,0.2,2c0,0.7,0,1.4,0,2c0,0.5,0,1,0,1.5c0,0.5,0,1,0,1.5
			c0,0.5,0,0.9,0,1.3s0,0.8,0,1.3c0,0.2-0.1,0.4-0.2,0.8c0,0.3,0,0.6,0,0.8c-0.2,0.2-0.2,0.3-0.2,0.5c0,0.2-0.1,0.3-0.3,0.3
			c-0.3,0.2-0.7,0.3-1,0.5c-0.7,0.2-1.3,0.3-1.8,0.3c-0.8,0.2-1.7,0.3-2.5,0.5c-0.8,0-1.8,0.1-2.8,0.2c-1.2,0-2.3,0-3.3,0
			c-1.3,0.2-2.6,0.3-3.8,0.3c-1.4,0-2.7,0-4.1,0c-1.3,0-2.8,0-4.3,0c-1.4,0-2.8,0-4.3,0c-1.5,0-3.1,0-4.6,0c-1.5,0-3,0-4.6,0
			c-1.3,0-2.8-0.1-4.3-0.3c-1.5,0-3-0.1-4.3-0.2c-1.5,0-3,0-4.3,0c-1.2-0.2-2.5-0.3-3.8-0.3c-1.2-0.2-2.4-0.2-3.6-0.2
			c-1-0.2-2-0.3-3-0.3c-0.8-0.2-1.7-0.3-2.5-0.5c-0.7,0-1.4-0.1-2-0.3c-0.5-0.2-1-0.2-1.5-0.2c-0.4-0.2-0.6-0.3-0.8-0.5
			c-0.5-0.5-0.8-1.1-1-1.8c-0.4-0.7-0.6-1.4-0.8-2c-0.4-1-0.5-1.9-0.5-2.8c-0.2-1.2-0.2-2.3-0.2-3.3c0.2-1.2,0.2-2.4,0.2-3.8
			c-0.3-1.4-0.3-2.7,0-4.1C620.8,497.6,620.9,496.1,620.6,494.9z M596.4,397.1c-1-0.2-2.1-0.2-3.3-0.2c-1.2,0-2.3,0-3.3,0
			c-1.2,0.2-2.3,0.4-3.3,0.8c-1,0.3-2,0.7-3,1c-1,0.5-2,1.1-2.8,1.8c-1,0.5-1.9,1.1-2.8,1.8c-0.8,0.7-1.6,1.4-2.3,2.3
			c-0.8,0.8-1.6,1.7-2.3,2.5c-0.7,0.8-1.4,1.8-2,2.8c-0.5,0.8-1,1.8-1.5,2.8c-0.5,1.2-1,2.3-1.5,3.3c-0.3,1-0.7,2.1-1,3.3
			c-0.2,1-0.3,2.1-0.5,3.3c-0.2,1.2-0.3,2.4-0.3,3.6c0,1,0,2.1,0,3.3c0.2,1.2,0.4,2.3,0.8,3.3c0.4,1,0.7,2,1,3.1
			c0.4,1.2,0.8,2.2,1.3,3c0.7,1,1.3,1.9,1.8,2.8c0.7,1,1.3,2,2,2.8c0.7,0.9,1.4,1.6,2.3,2.3c0.8,0.7,1.7,1.4,2.5,2
			c0.8,0.7,1.7,1.3,2.5,1.8c0.8,0.7,1.8,1.2,2.8,1.5c1,0.3,1.9,0.7,2.8,1c1,0.3,2,0.6,3,0.8c1,0.2,2,0.2,3.1,0.2c1,0,2-0.1,3-0.2
			c1.2-0.2,2.4-0.4,3.6-0.8c1.2-0.3,2.4-0.8,3.6-1.3c1.2-0.3,2.3-0.8,3.3-1.3c1-0.7,2-1.4,3-2c1-0.5,2-1.2,2.8-2
			c0.8-0.7,1.7-1.4,2.5-2.3c0.8-0.8,1.6-1.8,2.3-2.8c0.7-0.8,1.3-1.8,1.8-2.8c0.5-1,1-2,1.5-3c0.5-1.2,0.9-2.3,1.3-3.3
			c0.2-1.2,0.4-2.4,0.5-3.6c0.2-1.2,0.3-2.4,0.5-3.6c0-1.4-0.1-2.6-0.2-3.8c-0.2-1.2-0.3-2.3-0.5-3.3c-0.4-1.2-0.7-2.3-1-3.3
			c-0.5-1-1-2-1.5-3c-0.5-0.8-1.1-1.8-1.8-2.8c-0.7-0.8-1.4-1.6-2.3-2.3c-0.7-0.8-1.4-1.6-2.3-2.3c-1-0.8-1.9-1.5-2.8-2
			c-1-0.7-2-1.3-3-1.8c-1-0.5-2.1-1-3.3-1.5c-1-0.3-2.1-0.7-3.3-1C598.8,397.6,597.6,397.3,596.4,397.1z"/>
	</g>
</g>
</svg>
