<?xml version="1.0" encoding="utf-8"?>
<!-- Generator: Adobe Illustrator 18.0.0, SVG Export Plug-In . SVG Version: 6.00 Build 0)  -->
<!DOCTYPE svg PUBLIC "-//W3C//DTD SVG 1.1//EN" "http://www.w3.org/Graphics/SVG/1.1/DTD/svg11.dtd">
<svg version="1.1" id="Camada_1" xmlns="http://www.w3.org/2000/svg" xmlns:xlink="http://www.w3.org/1999/xlink" x="0px" y="0px"
	 viewBox="0 0 1024 768" enable-background="new 0 0 1024 768" xml:space="preserve">
<g>
	<defs>
		<circle id="SVGID_1_" cx="511.9" cy="383.4" r="375.7"/>
	</defs>
	<clipPath id="SVGID_2_">
		<use xlink:href="#SVGID_1_"  overflow="visible"/>
	</clipPath>
	<g clip-path="url(#SVGID_2_)" enable-background="new    ">
		
			<image overflow="visible" width="2474" height="2474" xlink:href="../../banco de imagens/botões/butt 25.png"  transform="matrix(0.3065 0 0 0.3065 132.8006 4.7999)">
		</image>
	</g>
</g>
<g>
	<g>
		<path d="M295.3,209.6h0.3c0.2,0,0.4-0.1,0.6-0.3h1c0.4,0,0.9-0.1,1.3-0.3h1.6h2c0.6-0.2,1.4-0.3,2.3-0.3h2.3
			c0.9-0.2,1.7-0.3,2.6-0.3h2.9c1.1-0.2,2.2-0.3,3.3-0.3h3.3c1.3,0,2.6-0.1,3.9-0.3h3.6h4.3c1.3-0.2,2.6-0.3,3.9-0.3h4.6
			c1.5,0,3.1-0.1,4.6-0.3h4.6h4.9c1.7,0,3.5-0.1,5.2-0.3h4.9h5.5h5.2c2-0.2,3.8-0.3,5.6-0.3h5.6h5.6h5.9h5.9c2-0.2,3.9-0.3,5.9-0.3
			h5.9h5.9h6.2h5.9h5.9h6.2h5.9h6.2h5.9h5.9h5.9h5.9c2,0,3.9,0.1,5.9,0.3h5.6h5.6h5.5c1.7,0,3.6,0.1,5.6,0.3h5.2h5.2
			c1.5,0,3.2,0.1,4.9,0.3h4.9h4.9c1.5,0.2,3,0.3,4.6,0.3h4.3c1.5,0.2,2.9,0.3,4.2,0.3c1.3,0,2.7,0.1,4.3,0.3h3.6
			c1.3,0.2,2.6,0.3,3.9,0.3c1.1,0,2.2,0.1,3.3,0.3h3.3c0.9,0.2,1.8,0.3,2.9,0.3c0.9,0.2,1.7,0.3,2.6,0.3c0.9,0,1.7,0.1,2.6,0.3
			c0.7,0,1.4,0.1,2.3,0.3c0.6,0,1.2,0.1,1.6,0.3c0.6,0,1.3,0.1,1.9,0.3c0.4,0,0.9,0.1,1.3,0.3c0.2,0,0.5,0.1,1,0.3
			c0.2,0,0.4,0.1,0.6,0.3c0.2,0,0.4,0.1,0.7,0.3c0.2,0.4,0.4,0.9,0.7,1.4c0.2,0.8,0.4,1.4,0.6,2c0.2,1,0.3,1.8,0.3,2.6
			c0.2,1.1,0.3,2.2,0.3,3.1c0,1.1,0.1,2.3,0.3,3.4v4v4.3c0,1.3-0.1,2.8-0.3,4.3c0,1.5-0.1,3.1-0.3,4.5c0,1.7-0.1,3.3-0.3,4.8
			c0,1.5-0.1,3.1-0.3,4.8c-0.2,1.5-0.4,3-0.6,4.5c0,1.7-0.1,3.3-0.3,4.8c-0.2,1.5-8.2,64-20.6,63.7c-21,0.5-66.3,1.7-66.3,1.7
			s7.9,202.3,8.4,206.3c0.5,3.9-6.2,8-6.2,8s-2.6,0.1-3.2,0.3c-0.9,0.2-2.4,0.4-3.3,0.6c-0.9,0-1.9,0.1-3,0.3
			c-1.3,0.2-2.5,0.3-3.6,0.3c-1.3,0.2-2.6,0.3-3.9,0.3c-1.5,0.2-3.1,0.3-4.6,0.3c-1.7,0.2-3.4,0.3-4.9,0.3c-1.8,0-3.5,0.1-5.2,0.3
			h-5.2h-5.9h-5.6h-5.9h-5.9h-5.9c-2,0-3.8-0.1-5.6-0.3h-5.6c-2,0-3.8-0.1-5.6-0.3c-1.7,0-3.5-0.1-5.2-0.3h-4.6
			c-1.5-0.2-3.1-0.3-4.6-0.3c-1.3-0.2-2.6-0.4-3.9-0.6c-1.1,0-2.3-0.1-3.6-0.3c-0.9,0-1.8-0.1-2.9-0.3c-0.6-0.2-3.3-0.3-4.2-0.3
			c-0.7-0.2-2.9-0.6-3.3-0.8c-0.4,0-7.1-6-7.1-6.4c0-0.4,7-203.2,7-204.6c0.2-1.1-60.5,3-70.6-3.6c-10-6.5-14.2-38.6-14.4-39.4
			c-0.2-0.9-1.4-5.4-1.6-6.5c-0.2-1.3-0.4-2.6-0.6-4c-0.2-1.3-0.8-7-1-8.5c-0.2-1.7-0.4-3.3-0.6-4.8c0-1.5-0.1-3.1-0.3-4.8
			c0-1.7-0.1-3.3-0.3-4.8c0-1.7-0.1-3.4-0.3-5.1v-4.8v-4.8v-4.5v-4.5v-4c0-1.1,0.1-2.4,0.3-3.7c0-1.1,0.1-2.2,0.3-3.1
			c0-0.9,0.1-1.9,0.3-2.8c0-0.8,0.1-1.4,0.3-2c0.2-0.6,0.4-1.1,0.6-1.7C294.8,210.3,295.1,210,295.3,209.6"/>
		<path fill="#FFFFFF" d="M332.6,231.7h0.2c0.2,0,0.3-0.1,0.5-0.2h0.7c0.3,0,0.7-0.1,1-0.2h1.2h1.5c0.5-0.2,1.1-0.3,1.7-0.3h1.7
			c0.7-0.2,1.3-0.2,2-0.2h2.2c0.8-0.2,1.6-0.2,2.4-0.2h2.5c1,0,2-0.1,2.9-0.2h2.7h3.2c1-0.2,2-0.2,2.9-0.2h3.4
			c1.1,0,2.3-0.1,3.4-0.2h3.4h3.7c1.3,0,2.6-0.1,3.9-0.2h3.7h4.2h3.9c1.5-0.2,2.9-0.3,4.2-0.3h4.2h4.2h4.4h4.4
			c1.5-0.2,2.9-0.2,4.4-0.2h4.4h4.4h4.7h4.4h4.4h4.6h4.4h4.6h4.4h4.4h4.4h4.4c1.5,0,2.9,0.1,4.4,0.2h4.2h4.2h4.2
			c1.3,0,2.7,0.1,4.2,0.3h3.9h3.9c1.1,0,2.4,0.1,3.7,0.2h3.7h3.7c1.1,0.2,2.3,0.2,3.4,0.2h3.2c1.1,0.2,2.2,0.2,3.2,0.2
			c1,0,2,0.1,3.2,0.2h2.7c1,0.2,1.9,0.2,2.9,0.2c0.8,0,1.6,0.1,2.5,0.2h2.4c0.7,0.2,1.4,0.3,2.2,0.3c0.6,0.2,1.3,0.2,2,0.2
			c0.6,0,1.3,0.1,2,0.2c0.5,0,1.1,0.1,1.7,0.2c0.5,0,0.9,0.1,1.2,0.2c0.5,0,1,0.1,1.5,0.3c0.3,0,0.6,0.1,1,0.2
			c0.2,0,0.4,0.1,0.7,0.2c0.2,0,0.3,0.1,0.5,0.2c0.2,0,0.3,0.1,0.5,0.2c0.2,0.3,0.3,0.7,0.5,1.2c0.2,0.7,0.3,1.2,0.5,1.7
			c0.2,0.8,0.3,1.6,0.3,2.2c0.2,1,0.2,1.9,0.2,2.7c0,1,0.1,2,0.2,2.9v3.4v3.7c0,1.2-0.1,2.4-0.2,3.7c0,1.3-0.1,2.6-0.2,3.9
			c0,1.5-0.1,2.9-0.3,4.2c0,1.3-0.1,2.7-0.2,4.2c-0.2,1.3-0.3,2.6-0.5,3.9c0,1.5-0.1,2.9-0.3,4.2c-0.2,1.3-0.3,2.6-0.5,3.9
			c-0.2,1.3-0.4,2.5-0.7,3.7c-0.2,1.1-0.3,2.4-0.5,3.7c-0.2,1-0.4,2-0.7,3.2c-0.2,1-0.3,2-0.5,2.9c-0.2,0.8-0.4,1.6-0.7,2.5
			c-0.2,0.7-0.4,1.4-0.7,2.2c-0.2,0.5-0.4,1-0.7,1.5c-0.2,0.5-0.3,0.8-0.5,1c-0.3,0.3-0.7,0.6-1.2,0.7c-0.7,0.3-1.2,0.6-1.7,0.7
			c-0.8,0.2-1.6,0.3-2.5,0.5c-1,0.2-2,0.3-2.9,0.5c-1.1,0.2-2.3,0.3-3.4,0.5c-1.3,0-2.6,0.1-3.9,0.3c-1.3,0.2-2.6,0.2-3.9,0.2
			c-1.5,0-2.9,0.1-4.4,0.3h-4.4c-1.7,0-3.2,0.1-4.7,0.2h-4.7H500h-4.4c-1.3-0.2-2.6-0.2-3.9-0.2h-7.3c-1,0-2-0.1-2.9-0.3h-2.4h-2
			h-1.2h-0.2v0.5v0.5v1c0,0.3,0.1,0.7,0.2,1v1.5v1.5c0,0.6,0.1,1.2,0.2,1.7v2c0,0.8,0.1,1.6,0.2,2.2v2.5c0.2,0.8,0.3,1.6,0.3,2.5
			c0,0.8,0.1,1.7,0.2,2.7v2.7c0.2,1.1,0.3,2.2,0.3,3.2c0,1,0.1,2,0.3,3.2v3.2c0.2,1.1,0.2,2.3,0.2,3.4c0.2,1.1,0.3,2.3,0.3,3.4
			c0.2,1.3,0.2,2.5,0.2,3.7c0,1.3,0.1,2.6,0.3,3.9c0,1.3,0.1,2.6,0.2,3.9c0,1.3,0.1,2.6,0.2,3.9c0,1.3,0.1,2.7,0.2,4.2v4.2
			c0.2,1.3,0.2,2.7,0.2,4.2c0.2,1.5,0.2,2.9,0.2,4.4c0.2,1.3,0.2,2.7,0.2,4.2c0.2,1.5,0.3,2.9,0.3,4.4c0.2,1.5,0.3,3,0.3,4.7
			c0.2,1.5,0.2,2.9,0.2,4.4c0.2,1.5,0.3,2.9,0.3,4.4c0.2,1.6,0.2,3.2,0.2,4.7c0.2,1.5,0.3,3,0.3,4.7c0.2,1.5,0.2,2.9,0.2,4.4
			c0,1.5,0.1,3,0.2,4.6c0,1.5,0.1,2.9,0.2,4.4c0,1.6,0.1,3.2,0.2,4.7c0,1.5,0.1,2.9,0.2,4.4v4.7c0.2,1.5,0.3,2.9,0.3,4.4
			c0.2,1.5,0.2,2.9,0.2,4.4s0.1,2.9,0.2,4.4v4.2c0.2,1.5,0.2,2.8,0.2,4.2c0,1.5,0.1,2.9,0.2,4.2v4.2c0.2,1.3,0.2,2.6,0.2,3.9v3.9
			c0.2,1.3,0.3,2.5,0.3,3.7v3.7c0.2,1.1,0.2,2.4,0.2,3.7v3.2v3.4c0.2,1,0.2,2,0.2,3.2v2.9v2.7v2.7v2.4v2.4v2c0,0.6-0.1,1.3-0.2,2
			v1.7v1.5c0,0.5-0.1,0.9-0.2,1.2v1.2c-0.2,0.2-0.3,0.4-0.3,0.7c0,0.2-0.1,0.4-0.2,0.7v0.2c-0.3,0.2-0.6,0.3-1,0.5
			c-0.3,0.2-0.7,0.3-1.2,0.5c-0.7,0.2-1.3,0.3-2,0.5c-0.7,0-1.4,0.1-2.2,0.3c-1,0.2-1.9,0.2-2.7,0.2c-1,0.2-2,0.2-2.9,0.2
			c-1.1,0.2-2.3,0.2-3.4,0.2c-1.3,0.2-2.5,0.2-3.7,0.2c-1.3,0-2.6,0.1-3.9,0.2h-3.9h-4.4H448h-4.4h-4.4h-4.4c-1.5,0-2.9-0.1-4.2-0.2
			h-4.2c-1.5,0-2.8-0.1-4.2-0.2c-1.3,0-2.6-0.1-3.9-0.2h-3.4c-1.1-0.2-2.3-0.2-3.4-0.2c-1-0.2-2-0.3-2.9-0.5c-0.8,0-1.7-0.1-2.7-0.2
			c-0.7,0-1.4-0.1-2.2-0.2c-0.5-0.2-1.1-0.2-1.7-0.2c-0.5-0.2-0.9-0.3-1.2-0.5c-0.3,0-0.6-0.1-0.7-0.2l-0.3-0.2v-0.5
			c-0.2-0.3-0.2-0.7-0.2-1c0-0.3-0.1-0.6-0.3-1v-1.2c0-0.5-0.1-1-0.2-1.5v-1.7v-2c0-0.7-0.1-1.3-0.2-2v-2.5v-2.5v-2.7
			c0-1-0.1-1.9-0.2-2.7v-3.2v-3.2V485v-3.4v-3.7v-3.7v-3.7v-3.9v-4.2v-4.2c0-1.3,0.1-2.7,0.2-4.2v-4.2v-4.4v-4.4v-4.4
			c0-1.6,0.1-3.2,0.2-4.7v-4.4v-4.7v-4.7c0.2-1.5,0.2-3,0.2-4.6v-4.4v-4.7c0.2-1.6,0.3-3.2,0.3-4.7v-4.6v-4.4
			c0.2-1.6,0.2-3.2,0.2-4.7v-4.4c0-1.5,0.1-2.9,0.3-4.4v-4.4v-4.4c0-1.3,0.1-2.7,0.2-4.2v-4.2V356c0.2-1.3,0.3-2.6,0.3-3.9v-3.9
			v-3.7c0.2-1.1,0.3-2.4,0.3-3.7v-3.4V334c0.2-1,0.2-2,0.2-3.2v-3.2v-2.9c0.2-0.8,0.3-1.7,0.3-2.7v-2.5V317v-2.2
			c0.1-0.6,0.2-1.3,0.2-2v-2v-1.5V308v-1v-1v-0.7V305c0.2-0.2,0.2-0.3,0-0.3h-0.2c-0.3,0.2-0.7,0.3-1.2,0.3h-1.7H396h-2.9
			c-1.1,0-2.3,0.1-3.4,0.2H386h-3.9h-4.2h-4.4h-4.4h-4.4c-1.5-0.2-2.9-0.2-4.4-0.2c-1.3,0-2.7-0.1-4.2-0.3c-1.3,0-2.6-0.1-3.9-0.2
			c-1.3,0-2.5-0.1-3.7-0.2c-1.1-0.2-2.3-0.3-3.4-0.3c-1-0.2-2-0.3-2.9-0.5c-0.8-0.2-1.6-0.3-2.5-0.5c-0.6-0.3-1.3-0.6-2-0.7
			c-0.5-0.2-0.9-0.4-1.2-0.7c-0.3-0.3-0.6-0.6-0.7-1c-0.3-0.5-0.6-1.1-0.7-1.7c-0.3-0.7-0.6-1.3-0.7-2c-0.2-0.8-0.3-1.7-0.5-2.7
			c-0.3-1-0.6-2-0.7-2.9c-0.2-1.1-0.3-2.3-0.5-3.4c-0.2-1.1-0.3-2.3-0.5-3.4c0-1.3-0.1-2.6-0.2-3.9c-0.2-1.5-0.3-2.8-0.5-4.2
			c0-1.3-0.1-2.7-0.2-4.2c0-1.5-0.1-2.9-0.2-4.2c0-1.5-0.1-2.9-0.2-4.4v-4.2v-4.2v-3.9v-3.9V244c0-1,0.1-2,0.2-3.2
			c0-1,0.1-1.9,0.2-2.7c0-0.8,0.1-1.6,0.2-2.5c0-0.7,0.1-1.2,0.3-1.7c0.2-0.5,0.3-1,0.5-1.5C332.2,232.3,332.4,232.1,332.6,231.7"/>
	</g>
	<g>
		<path d="M642.3,218c1.3,0.4,2.6,0.9,3.9,1.4c1.3,0.6,2.6,1.3,3.9,2c1.1,0.6,2.3,1.3,3.6,2c1.1,0.6,2.2,1.3,3.2,2.3
			c1.1,0.8,2,1.5,2.9,2.3c1.1,0.8,2,1.6,2.9,2.6c0.9,0.9,1.7,1.9,2.6,2.9c0.9,0.9,1.6,1.9,2.3,2.9c0.7,0.9,1.3,2,1.9,3.1
			c0.7,0.9,1.3,2,1.9,3.1c0.4,1,0.9,2,1.3,3.1c0.7,1.2,1.1,2.3,1.3,3.4c0.4,1.1,0.8,2.3,1,3.4c0.2,1.1,0.4,2.3,0.7,3.4
			c0.2,1.1,0.3,2.3,0.3,3.4c0,1.1,0,2.4,0,3.7c-0.2,1.1-0.3,2.3-0.3,3.4c-0.2,1.1-0.6,2.3-1,3.4c-0.2,1.3-0.6,2.6-1,3.7
			c-0.4,1.1-0.9,2.3-1.3,3.4c-0.4,1.2-1,2.2-1.6,3.2c-0.6,1.1-1.3,2.2-1.9,3.1c-0.6,1.1-1.4,2.2-2.3,3.1c-0.6,1-1.4,1.9-2.3,2.9
			c-0.9,1-1.7,1.9-2.6,2.9c-0.9,0.8-1.9,1.5-2.9,2.3c-0.9,0.9-1.8,1.8-2.9,2.6c-1.1,0.8-2.1,1.4-3.2,2c-1.1,0.8-2.3,1.4-3.6,2
			c-1.1,0.6-2.3,1.2-3.6,1.7c-1.1,0.6-2.3,1.1-3.6,1.7c-1.3,0.4-2.6,0.8-3.9,1.1c-1.3,0.4-2.6,0.8-3.9,1.1c-1.5,0.4-2.9,0.7-4.2,0.9
			c-1.3,0.2-2.7,0.4-4.2,0.6c-1.5,0.2-2.9,0.3-4.2,0.3c-1.5,0.2-3,0.3-4.5,0.3c-1.3-0.2-2.7-0.3-4.2-0.3c-1.5-0.2-3-0.4-4.6-0.6
			c-1.5-0.2-3-0.5-4.5-0.9c-1.3-0.4-2.6-0.9-3.9-1.4c-1.5-0.4-2.8-0.9-3.9-1.4c-1.3-0.8-2.6-1.5-3.9-2.3c-1.1-0.6-2.2-1.3-3.2-2.3
			c-1.1-0.8-2.1-1.6-2.9-2.6c-1.1-0.9-2.1-1.9-2.9-2.9c-0.9-0.9-1.6-2-2.3-3.1c-0.9-1.1-1.6-2.3-2.3-3.4c-0.7-1.1-1.3-2.3-1.9-3.4
			c-0.6-1.1-1.2-2.3-1.6-3.4c-0.4-1.3-0.9-2.6-1.3-3.7c-0.4-1.3-0.8-2.6-0.9-3.7c-0.4-1.3-0.7-2.6-0.7-3.7c-0.2-1.3-0.4-2.6-0.7-3.7
			c0-1.3,0-2.6,0-3.7c0-1.3,0-2.6,0-3.7c0.2-1.1,0.3-2.3,0.3-3.4c0.2-1.1,0.5-2.3,1-3.4c0.2-1.1,0.5-2.3,0.9-3.4
			c0.4-1.1,1-2.2,1.6-3.1c0.4-1.1,1-2.2,1.6-3.1c0.7-1.2,1.3-2.2,1.9-3.2c0.7-0.9,1.4-1.9,2.3-2.9c0.9-1.1,1.7-2.1,2.6-2.9
			c0.9-0.9,1.7-1.9,2.6-2.9c0.9-0.8,1.8-1.6,2.9-2.6c1.1-0.8,2.1-1.5,3.2-2.3c1.1-0.8,2.1-1.4,3.2-2c1.1-0.8,2.3-1.4,3.6-2
			c1.1-0.6,2.3-1.1,3.6-1.7c1.1-0.6,2.3-1,3.6-1.4c1.3-0.4,2.6-0.8,3.9-1.1c1.3-0.4,2.6-0.8,3.9-1.2c1.3-0.2,2.6-0.4,3.9-0.6
			c1.5-0.2,2.9-0.3,4.2-0.3c1.3-0.2,2.6-0.3,3.9-0.3c1.5,0,2.9,0.1,4.2,0.3c1.3,0.2,2.6,0.4,3.9,0.6c1.3,0.2,2.7,0.5,4.2,0.9
			C639.7,217,641,217.4,642.3,218z"/>
		<path d="M586.2,341c0,0.2-0.1,0.5-0.3,0.8c0,0.4-0.1,0.8-0.3,1.1c-0.2,0.4-0.4,0.8-0.4,1.4c-0.2,0.5-0.5,1.1-0.7,1.7
			c0,0.7-0.1,1.4-0.4,2c-0.2,0.7-0.3,1.5-0.3,2.2c-0.2,1-0.5,1.8-0.7,2.5c-0.2,0.9-0.3,1.9-0.3,2.8c-0.2,1.1-0.5,2.2-0.7,3.1
			c-0.2,1.1-0.4,2.2-0.4,3.4c-0.2,1.1-0.5,2.2-0.7,3.4c-0.2,1.1-0.5,2.3-0.7,3.7c0,1.3-0.1,2.6-0.3,3.9c-0.2,1.3-0.5,2.6-0.7,3.9
			c-0.2,1.3-0.3,2.7-0.3,4.2c-0.2,1.3-0.5,2.7-0.7,4.2c-0.2,1.5-0.5,3-0.7,4.5c0,1.5-0.1,3-0.4,4.5c-0.2,1.7-0.5,3.3-0.7,4.8
			c-0.2,1.5-0.4,3.1-0.4,4.8c-0.2,1.7-0.4,3.3-0.7,4.8c-0.2,1.7-0.3,3.4-0.3,5.1c-0.2,1.7-0.5,3.4-0.7,5c-0.2,1.7-0.3,3.4-0.3,5
			c-0.2,1.7-0.5,3.4-0.7,5.1c0,1.7-0.1,3.4-0.3,5c-0.2,1.7-0.4,3.4-0.4,5c-0.2,1.9-0.4,3.7-0.7,5.3c0,1.7-0.1,3.4-0.3,5.1
			c0,1.7-0.1,3.4-0.4,5c-0.2,1.7-0.3,3.4-0.3,5c-0.2,1.7-0.3,3.4-0.3,5.1c0,1.7-0.1,3.4-0.4,5c0,1.5-0.1,3.1-0.3,4.8
			c0,1.5-0.1,3.1-0.3,4.8c0,1.5,0,3.1,0,4.8c-0.2,1.5-0.4,3-0.4,4.5c0,1.5,0,3,0,4.5c0,1.3-0.1,2.7-0.3,4.2c0,1.5,0,2.9,0,4.2
			s0,2.6,0,3.9c0,1.3,0,2.6,0,3.9c0,1.1,0,2.3,0,3.7c0,1.1,0,2.2,0,3.4c0,1.1,0.1,2.2,0.3,3.4c0,1,0,2,0,3.1c0,1,0.1,1.9,0.4,2.8
			c0,0.8,0,1.6,0,2.5c0.2,0.8,0.3,1.5,0.3,2.3c0.2,0.5,0.3,1.2,0.3,2c0.2,0.5,0.4,1.1,0.4,1.7c0.2,0.6,0.4,1,0.7,1.4
			c0,0.4,0.1,0.7,0.4,1.1c0.2,0.4,0.4,0.7,0.7,0.8c0.2,0.2,0.5,0.4,0.7,0.6c0.7,0.2,1.4,0.4,2,0.5c0.9,0.4,1.8,0.7,2.7,0.8
			c1.1,0.2,2.1,0.4,3.1,0.6c1.4,0.2,2.6,0.4,3.7,0.5c1.6,0.2,3.1,0.3,4.4,0.3c1.6,0.2,3.2,0.4,4.8,0.5c1.6,0,3.2,0.1,4.8,0.3
			c1.8,0,3.6,0.1,5.4,0.3c1.8,0,3.6,0.1,5.4,0.3c1.8,0,3.6,0,5.4,0c1.8,0,3.7,0,5.8,0c1.8,0.2,3.6,0.3,5.4,0.3c2,0,4,0,5.8,0
			c1.8-0.2,3.6-0.3,5.4-0.3s3.6,0,5.4,0c1.6,0,3.3-0.1,5.1-0.3c1.6,0,3.2-0.1,4.8-0.3c1.4,0,2.8-0.1,4.4-0.3c1.4,0,2.7-0.1,4.1-0.3
			c1.1-0.2,2.3-0.3,3.4-0.3c0.9-0.2,1.8-0.4,2.7-0.6c0.9-0.2,1.7-0.4,2.4-0.6c0.4,0,0.7-0.1,0.7-0.3c0.5-0.2,0.8-0.4,1-0.5
			c0.2-0.4,0.3-0.8,0.3-1.1c0.2-0.4,0.5-0.8,0.7-1.4c0.2-0.6,0.5-1.1,0.7-1.7c0.2-0.6,0.3-1.1,0.3-1.7c0.2-0.7,0.5-1.5,0.7-2.2
			c0-0.7,0.1-1.6,0.3-2.5c0-0.9,0.1-1.8,0.3-2.5c0-1.1,0.1-2.1,0.3-3.1c0-0.9,0.1-2,0.4-3.1c0-1.1,0-2.2,0-3.4
			c0.2-1.1,0.3-2.2,0.3-3.4c0-1.3,0.1-2.6,0.3-3.9c0-1.3,0-2.6,0-4s0-2.6,0-3.9c0-1.5,0-2.9,0-4.2c0-1.5,0.1-3,0.4-4.5
			c0-1.5,0-3,0-4.5c0-1.5-0.1-3-0.4-4.5c0-1.7,0-3.3,0-4.8c0-1.7,0-3.3,0-4.8c0-1.7,0-3.4,0-5c0-1.5-0.1-3.1-0.3-4.8
			c0-1.7,0-3.4,0-5.1c0-1.7-0.1-3.4-0.3-5c0-1.7,0-3.4,0-5c-0.2-1.7-0.4-3.4-0.4-5.1c0-1.7-0.1-3.4-0.3-5c0-1.7-0.1-3.5-0.3-5.3
			c0-1.7,0-3.4,0-5c-0.2-1.7-0.3-3.4-0.3-5.1c-0.2-1.7-0.4-3.3-0.4-4.8c-0.2-1.7-0.3-3.4-0.3-5c-0.2-1.7-0.3-3.4-0.3-5
			c-0.2-1.5-0.4-3.1-0.4-4.8c-0.2-1.5-0.3-3.1-0.3-4.8c-0.2-1.5-0.5-3-0.7-4.5c0-1.5-0.1-3-0.3-4.5c0-1.5-0.1-3-0.3-4.5
			c0-1.3-0.1-2.7-0.3-4.2c-0.2-1.3-0.4-2.6-0.4-4c-0.2-1.3-0.5-2.6-0.7-3.9c0-1.3-0.1-2.6-0.4-3.9c0-1.1-0.1-2.3-0.3-3.7
			c-0.2-1.1-0.3-2.2-0.3-3.4c-0.2-1-0.5-2-0.7-3.1c0-0.9-0.1-1.9-0.3-2.8c0-0.9-0.1-1.9-0.3-2.8c-0.2-0.9-0.4-1.8-0.4-2.5
			c-0.2-0.8-0.3-1.5-0.3-2.3c-0.2-0.5-0.5-1.2-0.7-2c0-0.5-0.1-1.1-0.3-1.7c0-0.4-0.1-0.8-0.3-1.4c0-0.2-0.1-0.5-0.4-0.8
			c-0.2-0.4-0.3-0.7-0.3-0.8l-0.3-0.3c-0.5-0.4-1-0.7-1.7-0.8c-0.9-0.4-1.8-0.7-2.7-0.8c-1.2-0.2-2.3-0.4-3.4-0.6
			c-1.4-0.2-2.7-0.4-4.1-0.5c-1.4-0.2-2.8-0.4-4.4-0.6c-1.8-0.2-3.5-0.4-5.1-0.5c-2,0-4-0.1-5.8-0.3c-1.8,0-3.6-0.1-5.4-0.3
			c-2,0-4.1,0-6.1,0c-1.8-0.2-3.7-0.3-5.8-0.3c-1.8,0-3.8,0-5.8,0c-1.8,0-3.6,0.1-5.4,0.3c-1.8,0-3.5,0.1-5.1,0.3
			c-1.6,0-3.2,0.1-4.8,0.3c-1.4,0.2-2.7,0.4-4.1,0.5c-1.4,0.2-2.6,0.4-3.8,0.6c-0.9,0.2-1.7,0.5-2.4,0.8c-0.7,0.2-1.3,0.5-1.7,0.8
			C586.7,340.6,586.4,340.8,586.2,341z"/>
		<path fill="#FFFFFF" d="M636.4,230.6c1,0.3,1.9,0.6,2.8,1c0.9,0.4,1.9,0.8,2.8,1.3c0.8,0.4,1.7,0.8,2.6,1.3
			c0.8,0.4,1.6,0.9,2.3,1.5c0.8,0.5,1.5,1,2.1,1.5c0.8,0.5,1.5,1.1,2.1,1.7c0.6,0.6,1.3,1.3,1.9,1.9c0.6,0.6,1.2,1.3,1.7,1.9
			c0.5,0.6,0.9,1.3,1.4,2.1c0.5,0.6,0.9,1.3,1.4,2.1c0.3,0.6,0.6,1.3,1,2.1c0.5,0.8,0.8,1.6,0.9,2.3c0.3,0.8,0.5,1.5,0.7,2.3
			c0.2,0.8,0.3,1.5,0.5,2.3c0.2,0.8,0.2,1.5,0.2,2.3s0,1.6,0,2.5c-0.2,0.8-0.2,1.5-0.2,2.3c-0.2,0.8-0.4,1.6-0.7,2.3
			c-0.2,0.9-0.4,1.7-0.7,2.5c-0.3,0.8-0.6,1.6-0.9,2.3c-0.3,0.8-0.7,1.5-1.2,2.1c-0.5,0.8-0.9,1.5-1.4,2.1c-0.5,0.8-1,1.5-1.7,2.1
			c-0.5,0.6-1,1.3-1.7,1.9c-0.6,0.6-1.3,1.3-1.9,1.9c-0.6,0.5-1.3,1-2.1,1.5c-0.6,0.7-1.3,1.2-2.1,1.7c-0.8,0.5-1.6,1-2.4,1.3
			c-0.8,0.5-1.7,1-2.6,1.3c-0.8,0.4-1.7,0.8-2.6,1.2c-0.8,0.4-1.7,0.8-2.6,1.2c-0.9,0.3-1.9,0.5-2.8,0.8c-0.9,0.3-1.9,0.5-2.8,0.8
			c-1.1,0.3-2.1,0.5-3.1,0.6c-1,0.1-2,0.3-3.1,0.4c-1.1,0.1-2.1,0.2-3.1,0.2c-1.1,0.1-2.2,0.2-3.3,0.2c-0.9-0.1-2-0.2-3.1-0.2
			c-1.1-0.1-2.2-0.3-3.3-0.4c-1.1-0.1-2.2-0.3-3.3-0.6c-0.9-0.3-1.9-0.6-2.8-1c-1.1-0.3-2.1-0.6-2.8-1c-0.9-0.5-1.9-1-2.8-1.5
			c-0.8-0.4-1.6-0.9-2.4-1.5c-0.8-0.5-1.5-1.1-2.1-1.7c-0.8-0.6-1.5-1.3-2.1-1.9c-0.6-0.6-1.2-1.3-1.7-2.1c-0.6-0.8-1.2-1.5-1.7-2.3
			c-0.5-0.8-0.9-1.6-1.4-2.3c-0.5-0.8-0.9-1.5-1.2-2.3c-0.3-0.9-0.6-1.7-1-2.5c-0.3-0.9-0.5-1.7-0.7-2.5c-0.3-0.9-0.5-1.7-0.5-2.5
			c-0.2-0.9-0.3-1.7-0.5-2.5c0-0.9,0-1.7,0-2.5c0-0.9,0-1.7,0-2.5c0.2-0.8,0.3-1.5,0.3-2.3c0.2-0.8,0.4-1.6,0.7-2.3
			c0.2-0.8,0.4-1.5,0.7-2.3c0.3-0.8,0.7-1.5,1.2-2.1c0.3-0.8,0.7-1.5,1.2-2.1c0.5-0.8,0.9-1.5,1.4-2.1c0.5-0.6,1-1.3,1.7-1.9
			c0.6-0.8,1.3-1.4,1.9-1.9c0.6-0.6,1.3-1.3,1.9-1.9c0.6-0.5,1.3-1.1,2.1-1.7c0.8-0.5,1.6-1,2.4-1.5c0.8-0.5,1.6-1,2.4-1.3
			c0.8-0.5,1.7-1,2.6-1.3c0.8-0.4,1.7-0.8,2.6-1.2c0.8-0.4,1.7-0.7,2.6-1c0.9-0.3,1.9-0.5,2.8-0.8c0.9-0.3,1.9-0.5,2.8-0.8
			c1-0.1,1.9-0.3,2.8-0.4c1.1-0.1,2.1-0.2,3.1-0.2c0.9-0.1,1.9-0.2,2.8-0.2c1.1,0,2.1,0.1,3.1,0.2c0.9,0.1,1.9,0.3,2.8,0.4
			c0.9,0.1,2,0.3,3.1,0.6C634.5,229.9,635.4,230.2,636.4,230.6z"/>
		<path fill="#FFFFFF" d="M596.7,356.7c0,0.2-0.1,0.4-0.2,0.7c0,0.3-0.1,0.6-0.2,0.9s-0.2,0.7-0.2,1.2c-0.2,0.5-0.3,1-0.5,1.4
			c0,0.6-0.1,1.2-0.2,1.7c-0.1,0.6-0.2,1.3-0.2,1.9c-0.2,0.8-0.3,1.5-0.5,2.1c-0.1,0.8-0.2,1.6-0.2,2.4c-0.2,0.9-0.3,1.8-0.5,2.6
			c-0.1,0.9-0.2,1.9-0.2,2.8c-0.1,0.9-0.3,1.9-0.5,2.8c-0.1,0.9-0.3,2-0.4,3.1c0,1.1-0.1,2.2-0.2,3.3c-0.1,1.1-0.3,2.2-0.4,3.3
			s-0.2,2.3-0.2,3.5c-0.2,1.1-0.3,2.3-0.5,3.5c-0.1,1.3-0.3,2.5-0.5,3.8c0,1.3-0.1,2.5-0.2,3.8c-0.1,1.4-0.3,2.7-0.5,4
			c-0.1,1.2-0.2,2.6-0.2,4c-0.1,1.4-0.3,2.8-0.4,4c-0.2,1.4-0.2,2.8-0.2,4.3c-0.1,1.4-0.3,2.8-0.4,4.2c-0.1,1.4-0.2,2.8-0.2,4.2
			c-0.1,1.4-0.3,2.8-0.4,4.2c0,1.4-0.1,2.8-0.2,4.2c-0.2,1.4-0.2,2.8-0.2,4.2c-0.1,1.6-0.3,3.1-0.4,4.5c0,1.4-0.1,2.8-0.2,4.2
			c0,1.4-0.1,2.8-0.2,4.2c-0.1,1.4-0.2,2.8-0.2,4.2c-0.1,1.4-0.2,2.8-0.2,4.3c0,1.4-0.1,2.8-0.2,4.2c0,1.2-0.1,2.6-0.2,4
			c0,1.2-0.1,2.6-0.2,4c0,1.2,0,2.6,0,4c-0.2,1.2-0.2,2.5-0.2,3.8c0,1.3,0,2.5,0,3.8c0,1.1-0.1,2.3-0.2,3.5c0,1.3,0,2.4,0,3.5
			c0,1.1,0,2.2,0,3.3c0,1.1,0,2.2,0,3.3c0,1,0,2,0,3.1c0,0.9,0,1.9,0,2.8c0,0.9,0.1,1.9,0.2,2.8c0,0.8,0,1.7,0,2.6
			c0,0.8,0.1,1.6,0.2,2.4c0,0.6,0,1.3,0,2.1c0.1,0.6,0.2,1.2,0.2,1.9c0.1,0.5,0.2,1,0.2,1.7c0.1,0.5,0.2,0.9,0.2,1.4
			c0.1,0.5,0.3,0.9,0.4,1.2c0,0.3,0.1,0.6,0.2,0.9c0.2,0.3,0.3,0.6,0.5,0.7c0.1,0.2,0.3,0.3,0.5,0.5c0.4,0.2,0.9,0.3,1.4,0.5
			c0.6,0.3,1.2,0.6,1.8,0.7c0.8,0.2,1.4,0.3,2,0.5c0.9,0.2,1.7,0.3,2.5,0.5c1.1,0.2,2.1,0.2,3,0.2c1.1,0.2,2.1,0.3,3.2,0.5
			c1.1,0,2.1,0.1,3.2,0.2c1.2,0,2.4,0.1,3.7,0.2c1.2,0,2.4,0.1,3.6,0.2c1.2,0,2.4,0,3.7,0s2.5,0,3.9,0c1.2,0.2,2.4,0.2,3.7,0.2
			c1.4,0,2.7,0,3.9,0c1.2-0.2,2.4-0.2,3.7-0.2c1.2,0,2.4,0,3.7,0c1.1,0,2.2-0.1,3.4-0.2c1.1,0,2.1-0.1,3.2-0.2c0.9,0,1.9-0.1,3-0.2
			c0.9,0,1.8-0.1,2.7-0.2c0.8-0.2,1.5-0.2,2.3-0.2c0.6-0.2,1.2-0.3,1.8-0.5c0.6-0.2,1.2-0.3,1.6-0.5c0.3,0,0.5-0.1,0.5-0.2
			c0.3-0.2,0.5-0.3,0.7-0.5c0.1-0.3,0.2-0.6,0.2-0.9c0.1-0.3,0.3-0.7,0.5-1.2c0.1-0.5,0.3-0.9,0.4-1.4c0.1-0.5,0.2-0.9,0.2-1.4
			c0.1-0.6,0.3-1.3,0.4-1.9c0-0.6,0.1-1.3,0.2-2.1c0-0.8,0.1-1.5,0.2-2.1c0-0.9,0.1-1.8,0.2-2.6c0-0.8,0.1-1.7,0.2-2.6
			c0-0.9,0-1.9,0-2.8c0.1-0.9,0.2-1.9,0.2-2.8c0-1.1,0.1-2.2,0.2-3.3c0-1.1,0-2.2,0-3.3s0-2.2,0-3.3c0-1.3,0-2.4,0-3.6
			c0-1.2,0.1-2.5,0.2-3.8c0-1.3,0-2.5,0-3.8c0-1.2-0.1-2.5-0.2-3.8c0-1.4,0-2.8,0-4c0-1.4,0-2.7,0-4c0-1.4,0-2.8,0-4.2
			c0-1.3-0.1-2.6-0.2-4c0-1.4,0-2.8,0-4.2c0-1.4-0.1-2.8-0.2-4.3c0-1.4,0-2.8,0-4.2c-0.1-1.4-0.2-2.8-0.2-4.2c0-1.4-0.1-2.8-0.2-4.2
			c0-1.4-0.1-2.9-0.2-4.5c0-1.4,0-2.8,0-4.2c-0.1-1.4-0.2-2.8-0.2-4.2c-0.1-1.4-0.2-2.7-0.2-4c-0.1-1.4-0.2-2.8-0.2-4.2
			c-0.2-1.4-0.2-2.8-0.2-4.2c-0.1-1.3-0.2-2.6-0.2-4c-0.1-1.3-0.2-2.6-0.2-4c-0.2-1.3-0.3-2.5-0.5-3.8c0-1.2-0.1-2.5-0.2-3.8
			c0-1.3-0.1-2.5-0.2-3.8c0-1.1-0.1-2.3-0.2-3.5c-0.1-1.1-0.2-2.2-0.2-3.3c-0.1-1.1-0.3-2.2-0.5-3.3c0-1.1-0.1-2.2-0.2-3.3
			c0-0.9-0.1-2-0.2-3.1c-0.1-0.9-0.2-1.9-0.2-2.8c-0.2-0.8-0.3-1.7-0.5-2.6c0-0.8-0.1-1.6-0.2-2.4c0-0.8-0.1-1.6-0.2-2.3
			c-0.1-0.8-0.2-1.5-0.2-2.1c-0.1-0.6-0.2-1.2-0.2-1.9c-0.1-0.5-0.3-1-0.5-1.7c0-0.5-0.1-0.9-0.2-1.4c0-0.3-0.1-0.7-0.2-1.2
			c0-0.2-0.1-0.4-0.2-0.7c-0.1-0.3-0.2-0.6-0.2-0.7l-0.2-0.2c-0.3-0.3-0.7-0.6-1.2-0.7c-0.6-0.3-1.2-0.6-1.8-0.7
			c-0.8-0.2-1.5-0.3-2.3-0.5c-0.9-0.2-1.8-0.3-2.7-0.5c-0.9-0.2-1.9-0.3-3-0.5c-1.2-0.2-2.4-0.3-3.4-0.5c-1.4,0-2.7-0.1-3.9-0.2
			c-1.2,0-2.4-0.1-3.7-0.2c-1.4,0-2.7,0-4.1,0c-1.2-0.2-2.5-0.2-3.9-0.2c-1.2,0-2.5,0-3.9,0c-1.2,0-2.4,0.1-3.6,0.2
			c-1.2,0-2.4,0.1-3.4,0.2c-1.1,0-2.1,0.1-3.2,0.2c-0.9,0.2-1.8,0.3-2.7,0.5c-0.9,0.2-1.8,0.3-2.5,0.5c-0.6,0.2-1.2,0.4-1.6,0.7
			c-0.5,0.2-0.9,0.4-1.2,0.7C597,356.4,596.9,356.5,596.7,356.7z"/>
	</g>
</g>
</svg>
