<?xml version="1.0" encoding="utf-8"?>
<!-- Generator: Adobe Illustrator 18.0.0, SVG Export Plug-In . SVG Version: 6.00 Build 0)  -->
<!DOCTYPE svg PUBLIC "-//W3C//DTD SVG 1.1//EN" "http://www.w3.org/Graphics/SVG/1.1/DTD/svg11.dtd">
<svg version="1.1" id="Camada_1" xmlns="http://www.w3.org/2000/svg" xmlns:xlink="http://www.w3.org/1999/xlink" x="0px" y="0px"
	 viewBox="0 0 1024 768" enable-background="new 0 0 1024 768" xml:space="preserve">
<g>
	<defs>
		<circle id="SVGID_1_" cx="511.9" cy="383.4" r="375.7"/>
	</defs>
	<clipPath id="SVGID_2_">
		<use xlink:href="#SVGID_1_"  overflow="visible"/>
	</clipPath>
	<g clip-path="url(#SVGID_2_)" enable-background="new    ">
		
			<image overflow="visible" width="2474" height="2474" xlink:href="../../banco de imagens/botões/butt 25.png"  transform="matrix(0.3065 0 0 0.3065 132.8006 4.7999)">
		</image>
	</g>
</g>
<g>
	<g>
		<g>
			<g>
				<path d="M705,487.9c-0.2,1-0.4,2.1-0.6,3.3c-0.2,1-0.5,2-0.9,3c-0.4,1.2-0.8,2.3-1.2,3.3c-0.6,1.2-1.1,2.3-1.5,3.3
					c-0.6,1-1.2,2-1.8,3c-0.6,1.2-1.2,2.3-1.8,3.3c-0.8,1-1.6,2-2.4,3c-0.6,1-1.3,2.1-2.1,3.3c-0.8,1-1.7,2-2.7,3
					c-0.8,1-1.7,1.9-2.7,2.7c-1,1-1.9,2-2.7,3c-1,1-2.1,1.9-3.3,2.7c-1,1-2,1.9-3,2.7c-1.2,1-2.3,1.9-3.3,2.7
					c-1.2,0.8-2.4,1.6-3.6,2.4c-1.2,1-2.4,1.8-3.6,2.4c-1.2,0.8-2.4,1.6-3.6,2.4c-1.2,0.8-2.4,1.5-3.6,2.1c-1.4,0.8-2.7,1.5-3.9,2.1
					c-1.4,0.8-2.7,1.5-3.9,2.1c-1.4,0.6-2.7,1.2-3.9,1.8c-1.4,0.4-2.8,0.9-4.2,1.5c-1.4,0.6-2.7,1.1-3.9,1.5
					c-1.4,0.4-2.8,0.8-4.2,1.2c-1.4,0.4-2.8,0.8-4.2,1.2c-1.4,0.4-2.7,0.7-3.9,0.9c-1.4,0.4-2.8,0.7-4.2,0.9
					c-1.4,0.2-2.8,0.4-4.2,0.6c-1.4,0.2-2.7,0.3-3.9,0.3c-1.8,0.2-3.6,0.3-5.4,0.3c-1.6,0-3.2,0.1-4.8,0.3c-1.8,0-3.5,0-5.1,0
					s-3.2-0.1-4.8-0.3c-1.6,0-3.2,0-4.8,0c-1.6-0.2-3.1-0.3-4.5-0.3c-1.6-0.2-3.2-0.4-4.8-0.6c-1.4-0.2-2.8-0.4-4.2-0.6
					c-1.6-0.2-3.1-0.4-4.5-0.6c-1.4-0.2-2.8-0.5-4.2-0.9c-1.4-0.2-2.8-0.5-4.2-0.9c-1.4-0.2-2.7-0.5-3.9-0.9
					c-1.4-0.4-2.7-0.8-3.9-1.2c-1.4-0.4-2.7-0.8-3.9-1.2c-1.2-0.4-2.5-0.9-3.9-1.5c-1.2-0.4-2.4-0.9-3.6-1.5c-1-0.4-2.1-0.9-3.3-1.5
					c-1.2-0.6-2.4-1.1-3.6-1.5c-1-0.6-2.1-1.2-3.3-1.8c-1-0.8-2-1.5-3-2.1c-1.2-0.6-2.3-1.3-3.3-2.1c-1-0.6-2-1.3-3-2.1
					c-0.8-0.6-1.7-1.3-2.7-2.1c-1-0.8-1.9-1.6-2.7-2.4c-1-0.8-1.9-1.6-2.7-2.4c-1-0.8-1.9-1.6-2.7-2.4c-0.8-1-1.6-1.9-2.4-2.7
					c-0.8-1-1.6-1.9-2.4-2.7c-0.8-1-1.6-2-2.4-3c-0.6-0.8-1.3-1.7-2.1-2.7c-0.6-1-1.3-2-2.1-3c-0.6-1.2-1.2-2.3-1.8-3.3
					c-0.6-1-1.2-2.1-1.8-3.3c-0.6-1-1.2-2-1.8-3c-0.6-1.2-1.1-2.4-1.5-3.6c-0.6-1.2-1.1-2.3-1.5-3.3c-0.6-1.2-1.1-2.4-1.5-3.6
					c-0.4-1.2-0.8-2.4-1.2-3.6c-0.4-1.4-0.8-2.7-1.2-3.9c-0.4-1.2-0.8-2.5-1.2-3.9c-0.4-1.2-0.7-2.5-0.9-3.9
					c-0.4-1.2-0.7-2.5-0.9-3.9c-0.2-1.4-0.5-2.8-0.9-4.2c-0.2-1.2-0.4-2.5-0.6-3.9s-0.3-2.7-0.3-3.9c-0.2-1.4-0.3-2.8-0.3-4.2
					c-0.2-1.2-0.3-2.5-0.3-3.9s0-2.7,0-3.9c0-1.4,0.1-2.7,0.3-3.9c0-1.4,0.1-2.7,0.3-3.9c0-1.4,0.1-2.7,0.3-3.9
					c0.2-1.4,0.4-2.7,0.6-3.9c0.2-1.4,0.4-2.7,0.6-3.9c0.4-1.2,0.7-2.4,0.9-3.6c0.4-1.4,0.7-2.7,0.9-3.9c0.4-1.2,0.8-2.4,1.2-3.6
					c0.4-1.2,0.8-2.4,1.2-3.6s0.9-2.4,1.5-3.6c0.4-1.2,0.9-2.4,1.5-3.6c0.4-1.2,0.9-2.3,1.5-3.3c0.6-1.2,1.2-2.4,1.8-3.6
					c0.6-1,1.2-2.1,1.8-3.3c0.6-1.2,1.3-2.3,2.1-3.3c0.6-1,1.3-2.1,2.1-3.3c0.6-1,1.3-2,2.1-3c0.8-1,1.6-2,2.4-3c0.8-1,1.6-2,2.4-3
					c0.8-1,1.6-2,2.4-3c0.8-1,1.7-2,2.7-3c0.8-0.8,1.7-1.7,2.7-2.7c1-0.8,1.9-1.6,2.7-2.4c1-1,2-1.9,3-2.7c1-0.8,2-1.6,3-2.4
					c1-0.8,2.1-1.6,3.3-2.4c1-0.8,2-1.6,3-2.4c1.2-0.6,2.3-1.3,3.3-2.1c1.2-0.6,2.3-1.3,3.3-2.1c1.2-0.6,2.4-1.2,3.6-1.8
					c1.2-0.6,2.4-1.2,3.6-1.8c1.2-0.6,2.4-1.2,3.6-1.8c1.2-0.6,2.4-1.1,3.6-1.5c1.2-0.6,2.4-1.1,3.6-1.5c1.4-0.6,2.7-1.1,3.9-1.5
					c1.4-0.4,2.7-0.8,3.9-1.2c1.4-0.4,2.7-0.7,3.9-0.9c1.4-0.4,2.8-0.8,4.2-1.2c1.4-0.2,2.8-0.4,4.2-0.6c1.8-0.4,3.6-0.7,5.4-0.9
					c1.8-0.4,3.7-0.7,5.7-0.9c1.6-0.2,3.3-0.3,5.1-0.3c1.8-0.2,3.6-0.3,5.4-0.3c1.6,0,3.3,0,5.1,0c1.6,0,3.2,0,4.8,0
					c1.6,0,3.2,0.1,4.8,0.3c1.6,0.2,3.2,0.4,4.8,0.6c1.6,0.2,3.1,0.4,4.5,0.6c1.6,0.2,3.1,0.5,4.5,0.9c1.4,0.4,2.9,0.7,4.5,0.9
					c1.4,0.4,2.8,0.8,4.2,1.2c1.2,0.4,2.5,0.9,3.9,1.5c1.4,0.4,2.7,0.9,3.9,1.5c1.4,0.4,2.7,0.9,3.9,1.5c1.2,0.6,2.4,1.2,3.6,1.8
					c1.2,0.6,2.4,1.2,3.6,1.8c1.2,0.6,2.4,1.3,3.6,2.1c1.2,0.6,2.3,1.3,3.3,2.1c1.2,0.6,2.3,1.3,3.3,2.1c1,0.8,2,1.6,3,2.4
					c1,0.8,2,1.6,3,2.4c1,0.8,2,1.6,3,2.4c0.8,0.8,1.7,1.6,2.7,2.4c0.8,1,1.7,1.9,2.7,2.7c0.8,1,1.6,1.9,2.4,2.7
					c0.8,1,1.6,1.9,2.4,2.7c0.8,1,1.6,2,2.4,3c0.8,0.8,1.5,1.7,2.1,2.7c0.8,1,1.5,2,2.1,3c0.8,1,1.5,1.9,2.1,2.7c0.6,1,1.2,2,1.8,3
					c0.6,1,1.2,2,1.8,3c0.6,1,1.2,2,1.8,3c0.4,1,0.9,2,1.5,3c0.4,1,0.8,2,1.2,3c0.6,1,1.1,2,1.5,3c0.4,1,0.8,2,1.2,3
					c0.4,0.8,0.8,1.7,1.2,2.7c0.4,1,0.7,2,0.9,3c0.4,1,0.7,2,0.9,3c0.4,0.8,0.7,1.7,0.9,2.7c0.2,1,0.4,1.9,0.6,2.7
					c0.4,1,0.7,1.9,0.9,2.7c0,1,0.1,1.9,0.3,2.7c0.2,1,0.4,1.9,0.6,2.7c0,0.8,0.1,1.6,0.3,2.4c0,0.8,0.1,1.6,0.3,2.4
					c0,0.8,0,1.6,0,2.4c0,0.8,0,1.6,0,2.4c0,0.6,0,1.3,0,2.1c0,0.6,0,1.3,0,2.1c-0.2,0.6-0.3,1.2-0.3,1.8c-0.2,0.6-0.3,1.2-0.3,1.8
					c-0.2,0.6-0.4,1.2-0.6,1.8c0,0.6-0.1,1.1-0.3,1.5c-0.2,0.6-0.4,1.1-0.6,1.5c-0.2,0.4-5,8.2-5,8.2s-48.3,13.1-74.2,14.5
					c-25.9,1.5-46.4-0.6-47.6-0.8c-1.4-0.4-2.5,6.1,11.1,8.5s17.5-9,17.5-9s16.9-4,38.1-3.9c11.3-0.9,28.4,0.1,30-0.2
					c1.6,0,21.7,1,24.4,3.9s-0.2,15.1,0,15.3C705.1,487.2,705.1,487.5,705,487.9z"/>
			</g>
		</g>
		<path fill="#FFFFFF" d="M679.7,481c-0.2,0.8-0.4,1.6-0.7,2.4c-0.3,1-0.6,1.9-1,2.7c-0.5,1-0.9,1.9-1.2,2.7c-0.5,0.8-1,1.6-1.5,2.4
			c-0.5,1-1,1.9-1.5,2.7c-0.7,0.8-1.3,1.6-1.9,2.4c-0.5,0.8-1,1.7-1.7,2.7c-0.7,0.8-1.4,1.6-2.2,2.4c-0.6,0.8-1.4,1.5-2.2,2.2
			c-0.8,0.8-1.5,1.6-2.2,2.4c-0.8,0.8-1.7,1.5-2.7,2.2c-0.8,0.8-1.6,1.5-2.4,2.2c-1,0.8-1.9,1.5-2.7,2.2c-1,0.7-1.9,1.3-2.9,1.9
			c-1,0.8-2,1.5-2.9,2c-1,0.6-1.9,1.3-2.9,1.9c-1,0.7-2,1.2-2.9,1.7c-1.1,0.7-2.2,1.2-3.2,1.7c-1.1,0.7-2.2,1.2-3.1,1.7
			c-1.1,0.5-2.2,1-3.2,1.5c-1.1,0.3-2.3,0.7-3.4,1.2c-1.1,0.5-2.2,0.9-3.2,1.2c-1.1,0.3-2.3,0.6-3.4,1c-1.1,0.3-2.3,0.7-3.4,1
			s-2.2,0.6-3.2,0.7c-1.1,0.3-2.2,0.6-3.4,0.7c-1.1,0.2-2.3,0.3-3.4,0.5c-1.1,0.2-2.2,0.2-3.1,0.2c-1.5,0.2-2.9,0.3-4.4,0.3
			c-1.3,0-2.6,0.1-3.9,0.2c-1.5,0-2.8,0-4.1,0c-1.3,0-2.6-0.1-3.9-0.2c-1.3,0-2.6,0-3.9,0c-1.3-0.2-2.5-0.3-3.7-0.3
			c-1.3-0.2-2.6-0.3-3.9-0.5c-1.1-0.2-2.3-0.3-3.4-0.5c-1.3-0.2-2.5-0.3-3.7-0.5c-1.1-0.2-2.2-0.4-3.4-0.7c-1.1-0.2-2.2-0.4-3.4-0.7
			c-1.1-0.2-2.2-0.4-3.1-0.7c-1.1-0.3-2.2-0.7-3.2-1c-1.1-0.3-2.2-0.7-3.2-1c-1-0.3-2-0.7-3.2-1.2c-1-0.3-1.9-0.7-2.9-1.2
			c-0.8-0.3-1.7-0.7-2.7-1.2c-1-0.5-2-0.9-2.9-1.2c-0.8-0.5-1.7-1-2.7-1.5c-0.8-0.6-1.6-1.2-2.4-1.7c-1-0.5-1.9-1-2.7-1.7
			c-0.8-0.5-1.6-1-2.4-1.7c-0.7-0.5-1.4-1-2.2-1.7c-0.8-0.6-1.5-1.3-2.2-1.9c-0.8-0.7-1.5-1.3-2.2-1.9c-0.8-0.7-1.5-1.3-2.2-2
			c-0.7-0.8-1.3-1.5-2-2.2c-0.6-0.8-1.3-1.5-1.9-2.2c-0.7-0.8-1.3-1.6-1.9-2.4c-0.5-0.6-1.1-1.4-1.7-2.2c-0.5-0.8-1.1-1.6-1.7-2.4
			c-0.5-1-1-1.9-1.5-2.7c-0.5-0.8-1-1.7-1.5-2.7c-0.5-0.8-1-1.6-1.4-2.4c-0.5-1-0.9-2-1.2-2.9c-0.5-1-0.9-1.9-1.2-2.7
			c-0.5-1-0.9-1.9-1.2-2.9c-0.3-1-0.7-2-1-2.9c-0.3-1.1-0.7-2.2-1-3.2c-0.3-1-0.7-2-1-3.1c-0.3-1-0.6-2-0.7-3.2
			c-0.3-1-0.6-2-0.7-3.2c-0.2-1.1-0.4-2.3-0.7-3.4c-0.2-1-0.3-2-0.5-3.2c-0.2-1.1-0.3-2.2-0.3-3.1c-0.2-1.1-0.2-2.3-0.2-3.4
			c-0.2-1-0.2-2-0.2-3.2c0-1.1,0-2.2,0-3.2c0-1.1,0.1-2.2,0.2-3.2c0-1.1,0.1-2.2,0.2-3.1c0-1.1,0.1-2.2,0.3-3.2
			c0.2-1.1,0.3-2.2,0.5-3.2c0.2-1.1,0.3-2.2,0.5-3.2c0.3-1,0.6-1.9,0.7-2.9c0.3-1.1,0.6-2.2,0.7-3.2c0.3-1,0.6-1.9,1-2.9
			c0.3-1,0.6-2,1-2.9c0.3-1,0.7-1.9,1.2-2.9c0.3-1,0.7-2,1.2-2.9c0.3-1,0.7-1.9,1.2-2.7c0.5-1,1-1.9,1.5-2.9c0.5-0.8,1-1.7,1.5-2.7
			c0.5-1,1-1.9,1.7-2.7c0.5-0.8,1-1.7,1.7-2.7c0.5-0.8,1-1.6,1.7-2.4c0.6-0.8,1.3-1.6,1.9-2.4c0.7-0.8,1.3-1.6,1.9-2.4
			c0.7-0.8,1.3-1.6,2-2.4c0.6-0.8,1.4-1.6,2.2-2.4c0.7-0.7,1.4-1.4,2.2-2.2c0.8-0.6,1.5-1.3,2.2-1.9c0.8-0.8,1.6-1.5,2.4-2.2
			c0.8-0.6,1.6-1.3,2.4-1.9c0.8-0.7,1.7-1.3,2.7-1.9c0.8-0.7,1.6-1.3,2.4-2c1-0.5,1.9-1,2.7-1.7c1-0.5,1.9-1,2.7-1.7
			c1-0.5,1.9-1,2.9-1.4c1-0.5,1.9-1,2.9-1.5c1-0.5,2-1,2.9-1.5c1-0.5,1.9-0.9,2.9-1.2c1-0.5,2-0.9,2.9-1.2c1.1-0.5,2.2-0.9,3.2-1.2
			c1.1-0.3,2.2-0.7,3.1-1c1.1-0.3,2.2-0.6,3.2-0.7c1.1-0.3,2.3-0.7,3.4-1c1.1-0.2,2.3-0.3,3.4-0.5c1.5-0.3,2.9-0.6,4.4-0.7
			c1.5-0.3,3-0.6,4.6-0.7c1.3-0.2,2.7-0.2,4.1-0.2c1.4-0.2,2.9-0.2,4.4-0.2c1.3,0,2.7,0,4.1,0c1.3,0,2.6,0,3.9,0
			c1.3,0,2.6,0.1,3.9,0.2c1.3,0.2,2.6,0.3,3.9,0.5c1.3,0.2,2.5,0.3,3.6,0.5c1.3,0.2,2.5,0.4,3.6,0.7c1.1,0.3,2.3,0.6,3.7,0.7
			c1.1,0.3,2.2,0.7,3.4,1c1,0.3,2,0.7,3.1,1.2c1.1,0.3,2.2,0.7,3.2,1.2c1.1,0.3,2.2,0.7,3.2,1.2c1,0.5,1.9,1,2.9,1.5
			c1,0.5,2,1,2.9,1.5c1,0.5,1.9,1,2.9,1.7c1,0.5,1.9,1,2.7,1.7c1,0.5,1.9,1,2.7,1.7c0.8,0.7,1.6,1.3,2.4,1.9c0.8,0.7,1.6,1.3,2.4,2
			c0.8,0.6,1.6,1.3,2.4,1.9c0.7,0.7,1.4,1.3,2.2,1.9c0.6,0.8,1.4,1.5,2.2,2.2c0.7,0.8,1.3,1.5,2,2.2c0.6,0.8,1.3,1.5,1.9,2.2
			c0.7,0.8,1.3,1.6,1.9,2.4c0.7,0.7,1.2,1.4,1.7,2.2c0.7,0.8,1.2,1.6,1.7,2.4c0.7,0.8,1.2,1.5,1.7,2.2c0.5,0.8,1,1.6,1.5,2.4
			s1,1.6,1.5,2.4c0.5,0.8,1,1.6,1.4,2.4c0.3,0.8,0.7,1.6,1.2,2.4c0.3,0.8,0.7,1.6,1,2.4c0.5,0.8,0.9,1.6,1.2,2.4
			c0.3,0.8,0.7,1.6,1,2.4c0.3,0.7,0.6,1.4,1,2.2c0.3,0.8,0.6,1.6,0.7,2.4c0.3,0.8,0.6,1.6,0.7,2.4c0.3,0.7,0.6,1.4,0.7,2.2
			c0.2,0.8,0.3,1.5,0.5,2.2c0.3,0.8,0.6,1.5,0.7,2.2c0,0.8,0.1,1.5,0.2,2.2c0.2,0.8,0.3,1.5,0.5,2.2c0,0.7,0.1,1.3,0.2,2
			c0,0.6,0.1,1.3,0.2,1.9c0,0.7,0,1.3,0,1.9c0,0.7,0,1.3,0,2c0,0.5,0,1,0,1.7c0,0.5,0,1,0,1.7c-0.2,0.5-0.2,1-0.2,1.4
			c-0.2,0.5-0.2,1-0.2,1.5c-0.2,0.5-0.3,1-0.5,1.5c0,0.5-0.1,0.9-0.2,1.2c-0.2,0.5-0.3,0.9-0.5,1.2c-0.2,0.3-0.4,0.6-0.7,1
			c-0.2,0.3-0.3,0.7-0.5,1c-0.2,0.2-0.4,0.4-0.7,0.7c-0.2,0.2-0.4,0.4-0.7,0.7c-0.3,0.2-0.7,0.4-1.2,0.7c-0.3,0.2-0.7,0.4-1.2,0.7
			c-0.5,0.2-1,0.4-1.5,0.7c-0.6,0.2-1.2,0.4-1.7,0.7c-0.6,0.2-1.3,0.4-1.9,0.7c-0.7,0.2-1.3,0.4-1.9,0.7c-0.7,0.2-1.4,0.4-2.2,0.7
			c-0.8,0.2-1.5,0.4-2.2,0.7c-0.8,0.2-1.6,0.3-2.4,0.5c-1,0.3-1.9,0.6-2.7,0.7c-0.8,0.3-1.7,0.6-2.7,0.7c-1,0.2-1.9,0.4-2.9,0.7
			c-0.8,0.2-1.7,0.3-2.7,0.5c-1.1,0.2-2.2,0.3-3.2,0.5c-1,0.3-2,0.6-3.2,0.7c-1,0.2-2,0.3-3.1,0.5c-1,0.2-2,0.3-3.2,0.5
			c-1.1,0.2-2.3,0.3-3.4,0.5c-1,0.2-2,0.3-3.2,0.5c-1.1,0-2.3,0.1-3.4,0.2c-1.3,0.2-2.5,0.3-3.6,0.3c-1.1,0.2-2.3,0.3-3.4,0.5
			c-1.1,0-2.3,0.1-3.7,0.3c-1.1,0-2.2,0-3.4,0c-1.3,0.2-2.5,0.2-3.6,0.2s-2.3,0-3.6,0c-1.1,0-2.3,0-3.4,0c-1.1,0-2.3,0-3.7,0
			c-1.1,0-2.2,0-3.4,0c-1.3-0.2-2.5-0.2-3.6-0.2s-2.3-0.1-3.4-0.3c-1.1-0.2-2.3-0.2-3.4-0.2c-1.1-0.2-2.3-0.3-3.4-0.5
			c-1.1-0.2-2.3-0.3-3.4-0.5c-1-0.2-2-0.3-3.2-0.5c-1.1-0.2-2.2-0.3-3.2-0.5c-1.1-0.3-2.2-0.6-3.1-0.7c-1.1,0-2.1-0.3-2.9-1
			c-1.6-1-3.7,23.4,17.8,27.3c18.7,3.2,26.6-5.5,26.6-5.5s14.2-1,26-1.9C653.2,479.9,679.8,480,679.7,481z M572.5,431.5
			c0.3,0.7,1.3,1.1,2.9,1.4c1.1,0.2,2.3,0.6,3.4,1.2c1,0.3,2.1,0.7,3.4,1c1.3,0.2,2.5,0.4,3.7,0.7c1.1,0.2,2.3,0.3,3.6,0.5
			c1.3,0,2.5,0.1,3.6,0.2c1.3,0,2.5,0,3.7,0c1.1,0,2.2,0,3.4,0c1.1,0,2.2-0.1,3.4-0.2c1,0,1.9-0.1,2.9-0.3c0.8-0.2,1.7-0.4,2.7-0.7
			c0.7-0.2,1.4-0.3,2.2-0.5c0.7-0.3,1.2-0.7,1.7-1c0.5-0.2,0.9-0.5,1.2-1c0.7-0.6,1.3-1.4,2-2.2c0.5-1,0.9-1.9,1.2-2.7
			c0.3-1,0.6-2,0.7-2.9c0.2-1,0.2-1.9,0.2-2.9c0-1-0.1-1.9-0.2-2.9c-0.3-1-0.6-1.9-0.7-2.7c-0.3-1-0.7-1.9-1.2-2.9
			c-0.5-0.8-1.1-1.6-1.7-2.4c-0.5-0.8-1.1-1.5-2-2.2c-0.6-0.6-1.4-1.3-2.2-1.9c-1-0.5-1.9-1-2.9-1.5c-1-0.5-1.9-0.8-2.9-1
			c-1.1-0.3-2.3-0.5-3.4-0.5c-0.8,0-1.5,0.1-2.2,0.2c-0.8,0-1.6,0.1-2.4,0.2c-0.8,0.3-1.7,0.7-2.7,1c-0.8,0.3-1.6,0.7-2.4,1
			c-1,0.5-1.9,1-2.7,1.5c-0.8,0.7-1.6,1.3-2.4,1.9c-1,0.7-1.9,1.4-2.7,2.2c-0.8,0.7-1.6,1.5-2.4,2.4c-0.7,0.8-1.4,1.7-2.2,2.7
			c-0.7,1-1.3,2-2,3.2c-0.8,1-1.4,2-1.9,3.2c-0.3,1.4-0.8,2.7-1.5,3.9C572.7,429.3,572.3,430.6,572.5,431.5z"/>
	</g>
	<g>
		<path d="M392,411.9v-0.3c-0.2,0-0.4-0.1-0.4-0.3c-0.3-0.4-0.4-0.7-0.4-0.9c-0.2-0.4-0.5-0.7-0.7-0.9c-0.3-0.6-0.6-1-1.1-1.4
			c-0.2-0.4-0.5-0.9-0.7-1.4c-0.5-0.6-1-1.1-1.5-1.7c-0.2-0.8-0.6-1.4-1.1-2c-0.5-0.8-1-1.5-1.5-2.3c-0.7-1-1.4-1.8-1.8-2.6
			c-0.5-1-1.1-1.8-1.9-2.6c-0.5-1-1.1-1.9-1.8-2.9c-0.7-1.1-1.4-2.2-1.9-3.2c-0.7-1.1-1.5-2.2-2.2-3.1c-0.7-1.2-1.5-2.3-2.2-3.4
			c-0.7-1.1-1.6-2.4-2.6-3.7c-0.7-1.1-1.5-2.4-2.2-3.7c-1-1.1-1.8-2.4-2.6-3.7c-1-1.3-1.9-2.7-2.6-4c-1-1.3-1.9-2.7-2.6-4
			c-1-1.3-2-2.8-3-4.3c-1-1.3-2-2.8-3-4.3c-0.7-1.3-1.6-2.8-2.6-4.3c-1-1.5-2-3.1-3-4.6c-1-1.5-2-3-3-4.6c-1-1.5-2-3-3-4.6
			c-1-1.5-2-3-3-4.6c-1-1.5-2-3-3-4.6c-1.2-1.5-2.4-3.1-3.3-4.6c-1-1.7-2-3.3-3-4.9c-1-1.5-2-3-3-4.6c-1-1.7-2-3.3-3-4.9
			c-1-1.5-2-3-3-4.6c-1-1.7-2-3.3-3-4.9c-1-1.5-2-3-3-4.6c-1-1.5-2-3.1-3-4.6c-1-1.5-2-3-3-4.6c-1-1.5-2-3-3-4.6
			c-0.7-1.3-1.6-2.8-2.6-4.3c-1-1.5-1.9-3-2.6-4.3c-1-1.5-1.8-3-2.6-4.3c-1-1.3-1.8-2.8-2.6-4.3c-0.7-1.4-1.6-2.7-2.6-4
			c-0.7-1.3-1.5-2.6-2.2-3.7c-0.7-1.3-1.5-2.7-2.2-4c-0.7-1.1-1.5-2.3-2.2-3.4c-0.5-1.1-1.1-2.4-1.9-3.7c-0.7-1-1.4-2-1.8-3.2
			c-0.7-1.1-1.4-2.2-1.9-3.1c-0.5-1-1-2-1.5-3.2c-0.5-0.7-1-1.6-1.5-2.6c-0.5-1-1-1.8-1.5-2.6c-0.3-0.8-0.6-1.6-1.1-2.6
			c-0.2-0.6-0.6-1.2-1.1-2c-0.3-0.6-0.5-1.2-0.7-2c-0.3-0.6-0.4-1.1-0.4-1.7c-0.3-0.4-0.5-0.9-0.7-1.4V220c-0.2-0.2-0.2-0.5,0-0.9
			v-0.6c0-0.2,0.1-0.3,0.4-0.3c0.5-0.2,1.1-0.3,1.8-0.3c0.7-0.2,1.6-0.4,2.6-0.6c1.2,0,2.3-0.1,3.3-0.3c1.5-0.2,2.8-0.3,4.1-0.3
			c1.7,0,3.3-0.1,4.8-0.3c1.7,0,3.5-0.1,5.2-0.3h5.6c2,0,3.9-0.1,5.9-0.3h6.3h6.3h6.3h6.3h6.3c2,0.2,4,0.3,5.9,0.3h5.9
			c1.7,0.2,3.6,0.3,5.6,0.3c1.7,0,10.8,0.1,12.2,0.3c1.5,0,10.4,0.1,11.9,0.3c1.5,0,3.4,0.1,4.6,0.3c1,0,3.9,0.1,4.9,0.3
			c1,0,2.3,0.1,3,0.3c0.5,0,13.1,0.1,14.9,1.3c1.8,1.2,25.6,50.6,28,55.6c2.4,5,8.1,16.4,8.1,16.4s12.9-26.5,13.6-28.1
			c1-1.5,16.1-33.6,16.9-34.8c0.8-1,3.1-5.1,5.7-8.1c2.6-3,13-3.4,13.5-3.4c1,0,1.9-0.1,2.6-0.3c1.2,0,23.1-0.1,24.3-0.3h4.1
			c1.7-0.2,3.3-0.3,4.8-0.3c2,0,3.8-0.1,5.6-0.3h5.9h6.3h6.3h6.7h6.7h6.3h6.7c2,0,3.9,0.1,5.9,0.3h5.9c1.7,0,3.5,0.1,5.2,0.3
			c1.5,0,3,0.1,4.4,0.3c1.5,0,2.8,0.1,4.1,0.3c1.2,0,2.3,0.1,3.3,0.3c0.7,0,1.6,0.1,2.6,0.3c0.5,0,0.9,0.1,1.1,0.3
			c0.2,0,0.4,0.1,0.4,0.3v0.6c0,0.4-0.1,0.7-0.4,0.9c0,0.4-0.1,0.8-0.4,1.1c-0.2,0.6-0.4,1-0.4,1.4c-0.2,0.6-0.5,1.1-0.7,1.7
			c-0.5,0.6-0.9,1.2-1.1,2c-0.2,0.6-0.6,1.2-1.1,2c-0.5,0.8-0.9,1.5-1.1,2.3c-0.5,1-1,1.8-1.5,2.6c-0.5,1-1,1.9-1.5,2.9
			c-0.7,1-1.4,2-1.8,3.1c-0.5,1-1.1,2-1.9,3.1c-0.5,1.1-1.1,2.2-1.9,3.1c-0.7,1.3-1.5,2.6-2.2,3.7c-0.7,1.1-1.5,2.3-2.2,3.4
			c-0.7,1.3-1.5,2.7-2.2,4c-0.7,1.3-1.5,2.7-2.2,4c-1,1.3-1.9,2.7-2.6,4c-0.7,1.3-1.6,2.7-2.6,4c-0.7,1.5-1.6,3-2.6,4.3
			c-0.7,1.5-1.6,3-2.6,4.6c-1,1.3-2,2.8-3,4.3c-0.7,1.5-1.6,3.1-2.6,4.6c-1,1.5-2,3-3,4.6c-1,1.5-2,3-3,4.6c-1,1.7-2,3.3-3,4.9
			c-1,1.5-2,3.1-3,4.6c-1,1.7-2,3.3-3,4.9c-1,1.5-2,3.1-3,4.9c-1,1.5-2,3.1-3,4.6c-1,1.5-2,3.1-3,4.9c-1,1.5-2,3-3,4.6
			c-1.2,1.7-2.4,3.3-3.3,4.9c-1,1.5-2,3-3,4.6c-1,1.5-2,3-3,4.6c-1,1.5-2,3.1-3,4.6c-0.7,1.5-1.6,3.1-2.6,4.6c-1,1.5-2,3-3,4.3
			c-1,1.5-2,3-3,4.6c-0.7,1.3-1.6,2.7-2.6,4c-0.7,1.5-1.6,3-2.6,4.3c-1,1.3-1.8,2.7-2.6,4c-0.7,1.3-1.6,2.6-2.6,3.7
			c-0.7,1.3-1.5,2.7-2.2,4c-1,1.1-1.9,2.3-2.6,3.4c-0.7,1.1-1.5,2.3-2.2,3.4c-0.7,1.1-1.4,2.3-1.9,3.4c-0.7,1-1.5,1.9-2.2,2.9
			c-0.5,1-1.1,1.9-1.8,2.9c-0.5,1-1.1,1.9-1.9,2.9c-0.5,0.8-1,1.6-1.5,2.6c-0.5,0.8-1,1.5-1.5,2.3c-0.5,0.6-1,1.2-1.5,2
			c-0.3,0.6-0.6,1.1-1.1,1.7c-0.3,0.6-0.6,1.1-1.1,1.4c-0.2,0.6-0.5,1-0.7,1.4c-0.2,0.4-0.5,0.7-0.7,0.9c0,0.4-0.1,0.7-0.4,0.9
			c0,0.2-0.1,0.4-0.4,0.6v0.3c0,0.2,0.1,0.4,0.4,0.6v1.1c0.2,0.4,0.4,0.9,0.4,1.4c0.2,0.6,0.4,1.1,0.4,1.7c0.2,0.8,0.5,1.5,0.7,2.3
			c0.2,0.8,0.4,1.5,0.4,2.3c0.2,1,0.5,1.9,0.7,2.9c0.2,1,0.5,1.9,0.7,2.8c0.2,1.1,0.5,2.3,0.8,3.4c0.2,1.1,0.5,2.3,0.7,3.4
			c0.5,1.3,0.9,2.6,1.1,3.7c0.3,1.3,0.5,2.7,0.7,4c0.2,1.5,0.6,3,1.1,4.3c0.2,1.3,0.5,2.8,0.7,4.3c0.2,1.5,0.6,3,1.1,4.3
			c0.2,1.5,0.5,3,0.7,4.6c0.5,1.5,0.9,3,1.1,4.6c0.2,1.7,0.6,3.3,1.1,4.9c0.2,1.5,0.5,3.2,0.7,4.9c0.5,1.5,0.9,3.1,1.1,4.6
			c0.2,1.7,0.5,3.3,0.7,4.9c0.5,1.7,0.9,3.3,1.1,4.9c0.2,1.5,0.5,3.2,0.7,4.9c0.2,1.5,0.5,3,0.7,4.6c0.2,1.5,0.6,3.1,1.1,4.9
			c0.2,1.5,0.4,3,0.4,4.6c0.2,1.3,0.5,2.8,0.7,4.3c0.2,1.5,0.5,3,0.7,4.6c0.3,1.3,0.4,2.7,0.4,4c0.2,1.3,0.5,2.7,0.8,4
			c0,1.3,0.1,2.7,0.4,4v3.5c0.3,1.1,0.4,2.3,0.4,3.4v3.1c0,2.3-0.1,4.5-0.4,6.6c0,1.5-0.2,3.1-0.7,4.6c-0.5,1-1.3,1.7-2.2,2.3
			c-0.2,0.2-0.7,0.4-1.5,0.6c-1,0-1.9,0.2-2.6,0.6c-1,0.2-2,0.3-3,0.3c-1.2,0.2-2.5,0.4-3.7,0.6c-1.5,0-2.8,0.1-4.1,0.3
			c-1.5,0.2-3.1,0.3-4.8,0.3c-1.5,0-3.1,0.1-4.8,0.3c-1.7,0-3.6,0.1-5.6,0.3h-5.6c-2,0-4,0.1-5.9,0.3h-6.3h-6.3h-6.3h-6.7
			c-2.2,0-4.3-0.1-6.3-0.3h-6.7c-2.2,0-4.3-0.1-6.3-0.3c-2.2,0-4.3-0.1-6.3-0.3h-5.9c-2-0.2-3.9-0.3-5.9-0.3
			c-1.7-0.2-3.6-0.4-5.6-0.6c-1.7,0-3.5-0.1-5.2-0.3c-1.5,0-3-0.1-4.5-0.3c-1.5-0.2-3-0.4-4.4-0.6c-1.2,0-2.5-0.1-3.7-0.3
			c-1-0.2-2.1-0.4-3.3-0.6c-0.7-0.2-1.6-0.4-2.6-0.6c-0.7-0.2-1.4-0.4-1.8-0.6c-0.5-0.2-1-0.4-1.5-0.6c-0.2-0.2-0.4-0.4-0.4-0.6
			c-0.3-0.4-0.5-0.8-0.7-1.1v-1.7c-0.3-0.6-0.4-1.2-0.4-2v-2.3v-2.9v-3.1V533c0.2-1.3,0.4-2.6,0.4-3.7c0.2-1.3,0.4-2.7,0.4-4
			c0.2-1.5,0.4-3,0.4-4.3c0.2-1.5,0.5-3,0.7-4.6c0-1.5,0.1-3,0.4-4.6c0.2-1.5,0.5-3.2,0.7-4.9c0.2-1.5,0.5-3.1,0.7-4.9
			c0-1.7,0.1-3.4,0.4-5.2c0.2-1.7,0.5-3.4,0.7-5.1c0.5-1.7,0.9-3.4,1.1-5.1c0.2-1.7,0.5-3.4,0.7-5.1c0.2-1.7,0.5-3.4,0.7-5.2
			c0.2-1.7,0.5-3.4,0.7-5.1c0.2-1.7,0.6-3.4,1.1-5.1c0.2-1.7,0.5-3.4,0.7-5.1c0.3-1.5,0.5-3.2,0.7-4.9c0.2-1.7,0.5-3.3,0.7-4.9
			c0.5-1.5,0.9-3,1.1-4.6c0.2-1.5,0.5-3,0.8-4.6c0.2-1.3,0.5-2.7,0.7-4.3c0.2-1.3,0.5-2.7,0.7-4c0.2-1.3,0.5-2.6,0.7-3.7
			c0.2-1.1,0.5-2.3,0.7-3.4c0-1.1,0.1-2.3,0.4-3.4c0.2-1,0.5-1.9,0.7-2.9c0-0.8,0.1-1.5,0.4-2.3c0-0.8,0.1-1.4,0.4-2
			c0-0.6,0.1-1.1,0.4-1.7v-1.4c0.2-0.2,0.4-0.4,0.4-0.6V411.9z"/>
		<path fill="#FFFFFF" d="M408.3,412.2v-0.2c-0.2,0-0.2-0.1-0.2-0.2c-0.2-0.3-0.3-0.6-0.3-0.7c-0.2-0.3-0.3-0.6-0.5-0.8
			c-0.2-0.5-0.4-0.9-0.7-1.2c-0.2-0.3-0.3-0.7-0.5-1.2c-0.3-0.5-0.7-1-1-1.5c-0.2-0.7-0.4-1.2-0.7-1.7c-0.3-0.7-0.7-1.3-1-2
			c-0.5-0.8-0.9-1.6-1.2-2.2c-0.3-0.8-0.7-1.6-1.2-2.2c-0.3-0.8-0.7-1.6-1.2-2.5c-0.5-1-0.9-1.9-1.2-2.7c-0.5-1-1-1.9-1.5-2.7
			c-0.5-1-1-2-1.5-3c-0.5-1-1.1-2-1.7-3.2c-0.5-1-1-2.1-1.5-3.2c-0.7-1-1.2-2-1.7-3.2c-0.7-1.1-1.2-2.3-1.7-3.4
			c-0.6-1.1-1.2-2.3-1.7-3.5c-0.7-1.1-1.3-2.4-2-3.7c-0.7-1.2-1.3-2.4-2-3.7c-0.5-1.2-1.1-2.4-1.7-3.7c-0.7-1.3-1.3-2.6-2-3.9
			c-0.6-1.3-1.3-2.6-2-4c-0.7-1.3-1.3-2.6-2-3.9c-0.7-1.3-1.3-2.6-2-4c-0.7-1.3-1.3-2.6-2-3.9c-0.8-1.3-1.6-2.6-2.2-3.9
			c-0.7-1.5-1.3-2.9-2-4.2c-0.7-1.3-1.3-2.6-2-4c-0.7-1.5-1.3-2.9-2-4.2c-0.7-1.3-1.3-2.6-2-3.9c-0.7-1.5-1.3-2.9-2-4.2
			c-0.7-1.3-1.3-2.6-2-4c-0.6-1.3-1.3-2.6-2-3.9c-0.7-1.3-1.3-2.6-2-4c-0.7-1.3-1.3-2.6-2-3.9c-0.5-1.2-1.1-2.4-1.7-3.7
			c-0.7-1.3-1.2-2.6-1.7-3.7c-0.7-1.3-1.2-2.5-1.7-3.7c-0.7-1.1-1.2-2.4-1.7-3.7c-0.5-1.1-1.1-2.3-1.7-3.5c-0.5-1.1-1-2.2-1.5-3.2
			c-0.5-1.1-1-2.3-1.5-3.5c-0.5-1-1-2-1.5-3c-0.3-1-0.7-2.1-1.2-3.2c-0.5-0.8-0.9-1.7-1.2-2.7c-0.5-1-0.9-1.9-1.2-2.7
			c-0.3-0.8-0.6-1.7-1-2.7c-0.3-0.7-0.7-1.4-1-2.2c-0.3-0.8-0.7-1.6-1-2.2c-0.2-0.7-0.4-1.4-0.7-2.2c-0.2-0.5-0.4-1.1-0.7-1.7
			c-0.2-0.5-0.3-1.1-0.5-1.7c-0.2-0.5-0.3-1-0.3-1.5c-0.2-0.3-0.3-0.7-0.5-1.2v-1c-0.2-0.2-0.2-0.4,0-0.8v-0.5
			c0-0.2,0.1-0.2,0.2-0.2c0.3-0.2,0.7-0.3,1.2-0.3c0.5-0.2,1.1-0.3,1.7-0.5c0.8,0,1.6-0.1,2.2-0.2c1-0.2,1.9-0.2,2.7-0.2
			c1.1,0,2.2-0.1,3.2-0.2c1.1,0,2.3-0.1,3.5-0.2h3.7c1.3,0,2.6-0.1,3.9-0.2h4.2h4.2h4.2h4.2h4.2c1.3,0.1,2.6,0.2,3.9,0.2h4
			c1.1,0.2,2.4,0.2,3.7,0.2c1.2,0,2.2,0.1,3.2,0.2c1,0,2,0.1,3,0.2c1,0,1.9,0.1,2.7,0.2c0.6,0,1.3,0.1,2,0.2c0.7,0,1.2,0.1,1.7,0.3
			c0.3,0,0.7,0.1,1,0.3c0.2,0.2,0.3,0.3,0.5,0.5c0.3,0.3,0.6,0.7,0.7,1c0.3,0.5,0.7,1,1,1.5c0.5,0.5,0.9,1.1,1.2,1.7
			c0.5,0.8,0.9,1.6,1.2,2.2c0.5,0.8,1,1.6,1.5,2.5c0.5,1,1.1,2,1.7,3c0.5,1,1.1,2.1,1.7,3.2c0.5,1.2,1.1,2.3,1.7,3.5
			c0.7,1.2,1.2,2.3,1.7,3.5c0.7,1.3,1.3,2.6,2,3.9c0.7,1.2,1.4,2.4,2.2,3.7c0.6,1.5,1.3,2.9,2,4.2c0.7,1.3,1.3,2.6,2,3.9
			c0.7,1.5,1.4,2.9,2.2,4.2c0.7,1.5,1.3,2.9,2,4.2c0.7,1.5,1.3,2.9,2,4.2c0.6,1.3,1.3,2.7,2,4.2c0.7,1.3,1.3,2.6,2,3.9
			c0.7,1.3,1.3,2.6,2,3.7c0.7,1.3,1.2,2.6,1.7,4c0.7,1.1,1.2,2.3,1.7,3.4c0.5,1,1.1,2.1,1.7,3.2c0.5,1,1,2,1.5,3
			c0.3,1,0.7,1.9,1.2,2.7c0.3,0.8,0.7,1.7,1.2,2.5c0.2,0.7,0.5,1.3,1,2c0.2,0.7,0.4,1.2,0.7,1.7c0.2,0.5,0.3,0.9,0.5,1.2
			c0.2,0.3,0.3,0.6,0.5,0.7v0.2v-0.2c0.2-0.2,0.3-0.4,0.5-0.7c0.2-0.3,0.3-0.7,0.5-1c0.2-0.7,0.4-1.2,0.7-1.7c0.3-0.7,0.7-1.3,1-2
			c0.3-0.7,0.7-1.4,1-2.2c0.3-0.8,0.7-1.7,1.2-2.7c0.5-1,0.9-2,1.2-3c0.5-1,1-2,1.5-3c0.7-1.1,1.2-2.3,1.7-3.5
			c0.5-1.3,1.1-2.5,1.7-3.7c0.5-1.2,1.1-2.4,1.7-3.7c0.6-1.3,1.2-2.6,1.7-3.9c0.7-1.3,1.3-2.6,2-4c0.7-1.3,1.3-2.6,2-3.9
			c0.6-1.5,1.3-2.9,2-4.2c0.7-1.3,1.3-2.6,2-4c0.7-1.5,1.3-2.9,2-4.2c0.7-1.3,1.3-2.6,2-4c0.7-1.3,1.3-2.6,2-4
			c0.7-1.3,1.3-2.6,2-3.9c0.7-1.1,1.2-2.3,1.7-3.5c0.6-1.2,1.3-2.3,2-3.5c0.5-1.1,1.1-2.3,1.7-3.5c0.5-1,1.1-2,1.7-3
			c0.5-0.8,1-1.7,1.5-2.7c0.5-0.8,1-1.6,1.5-2.5c0.3-0.7,0.7-1.3,1.2-2c0.3-0.7,0.7-1.2,1-1.7c0.3-0.5,0.7-0.9,1-1.2
			c0.3-0.3,0.7-0.7,1-1c0.2-0.2,0.3-0.3,0.5-0.5c0.5-0.2,0.9-0.2,1.2-0.2c0.7,0,1.2-0.1,1.7-0.2c0.8,0,1.6-0.1,2.5-0.2h2.7
			c1.1-0.2,2.2-0.2,3.2-0.2c1.3,0,2.6-0.1,3.7-0.3h3.9h4.2h4.2h4.4h4.4h4.2h4.4c1.3,0,2.6,0.1,3.9,0.3h4c1.1,0,2.3,0.1,3.4,0.2
			c1,0,2,0.1,3,0.2c1,0,1.9,0.1,2.7,0.2c0.8,0,1.6,0.1,2.2,0.2c0.5,0,1.1,0.1,1.7,0.2c0.3,0,0.6,0.1,0.7,0.2c0.2,0,0.2,0.1,0.2,0.3
			v0.5c0,0.3-0.1,0.6-0.2,0.8c0,0.3-0.1,0.7-0.2,1c-0.2,0.5-0.3,0.9-0.3,1.2c-0.2,0.5-0.3,1-0.5,1.5c-0.3,0.5-0.6,1.1-0.7,1.7
			c-0.2,0.5-0.4,1.1-0.7,1.7c-0.3,0.7-0.6,1.3-0.7,2c-0.3,0.8-0.6,1.6-1,2.2c-0.3,0.8-0.7,1.7-1,2.5c-0.5,0.8-0.9,1.7-1.2,2.7
			c-0.3,0.8-0.7,1.7-1.2,2.7c-0.3,1-0.7,1.9-1.2,2.7c-0.5,1.1-1,2.2-1.5,3.2c-0.5,1-1,2-1.5,3c-0.5,1.1-1,2.3-1.5,3.5
			c-0.5,1.1-1,2.3-1.5,3.4c-0.7,1.1-1.2,2.3-1.7,3.5c-0.5,1.1-1.1,2.3-1.7,3.5c-0.5,1.3-1.1,2.5-1.7,3.7c-0.5,1.3-1.1,2.6-1.7,4
			c-0.7,1.1-1.3,2.4-2,3.7c-0.5,1.3-1.1,2.6-1.7,4c-0.7,1.3-1.3,2.6-2,3.9c-0.6,1.3-1.3,2.6-2,3.9c-0.7,1.5-1.3,2.9-2,4.2
			c-0.7,1.3-1.3,2.6-2,3.9c-0.7,1.5-1.3,2.9-2,4.2c-0.7,1.3-1.3,2.7-2,4.2c-0.6,1.3-1.3,2.6-2,4c-0.7,1.3-1.3,2.7-2,4.2
			c-0.7,1.3-1.3,2.6-2,3.9c-0.8,1.5-1.6,2.9-2.2,4.2c-0.7,1.3-1.3,2.6-2,4c-0.7,1.3-1.3,2.6-2,3.9c-0.6,1.3-1.3,2.6-2,4
			c-0.5,1.3-1.1,2.6-1.7,4c-0.7,1.3-1.3,2.5-2,3.7c-0.6,1.3-1.3,2.6-2,3.9c-0.5,1.2-1.1,2.3-1.7,3.5c-0.5,1.3-1.1,2.6-1.7,3.7
			c-0.7,1.2-1.2,2.3-1.7,3.5c-0.5,1.1-1.1,2.2-1.7,3.2c-0.5,1.1-1,2.3-1.5,3.5c-0.7,1-1.2,2-1.7,3c-0.5,1-1,2-1.5,3
			c-0.5,1-0.9,2-1.2,3c-0.5,0.8-1,1.7-1.5,2.5c-0.3,0.8-0.7,1.6-1.2,2.5c-0.3,0.8-0.7,1.6-1.2,2.5c-0.3,0.7-0.7,1.4-1,2.2
			c-0.3,0.7-0.7,1.3-1,2c-0.3,0.5-0.7,1.1-1,1.7c-0.2,0.5-0.4,1-0.7,1.5c-0.2,0.5-0.4,0.9-0.7,1.2c-0.2,0.5-0.3,0.9-0.5,1.2
			c-0.2,0.3-0.3,0.6-0.5,0.7c0,0.3-0.1,0.6-0.2,0.7c0,0.2-0.1,0.3-0.2,0.5v0.2c0,0.2,0.1,0.3,0.2,0.5v1c0.2,0.3,0.2,0.7,0.2,1.2
			c0.2,0.5,0.3,1,0.3,1.5c0.2,0.7,0.3,1.3,0.5,2c0.2,0.7,0.2,1.3,0.2,2c0.2,0.8,0.3,1.6,0.5,2.5c0.2,0.8,0.3,1.6,0.5,2.4
			c0.2,1,0.3,2,0.5,3c0.2,1,0.3,2,0.5,3c0.3,1.1,0.6,2.2,0.7,3.2c0.2,1.1,0.3,2.3,0.5,3.5c0.2,1.3,0.4,2.6,0.7,3.7
			c0.2,1.2,0.3,2.4,0.5,3.7c0.2,1.3,0.4,2.5,0.7,3.7c0.2,1.3,0.3,2.6,0.5,4c0.3,1.3,0.6,2.6,0.7,3.9c0.2,1.5,0.4,2.9,0.7,4.2
			c0.2,1.3,0.3,2.7,0.5,4.2c0.3,1.3,0.6,2.6,0.7,4c0.2,1.5,0.3,2.9,0.5,4.2c0.3,1.5,0.6,2.9,0.7,4.2c0.2,1.3,0.3,2.7,0.5,4.2
			c0.2,1.3,0.3,2.6,0.5,3.9c0.2,1.3,0.4,2.7,0.7,4.2c0.2,1.3,0.3,2.6,0.3,3.9c0.2,1.1,0.3,2.4,0.5,3.7c0.2,1.3,0.3,2.6,0.5,4
			c0.2,1.2,0.2,2.3,0.2,3.5c0.2,1.2,0.3,2.3,0.5,3.5c0,1.1,0.1,2.3,0.2,3.4v3c0.2,1,0.2,2,0.2,3v2.7c0,2-0.1,3.9-0.2,5.7
			c0,1.3-0.2,2.6-0.5,3.9c-0.3,0.8-0.8,1.5-1.5,2c-0.2,0.1-0.5,0.3-1,0.5c-0.7,0-1.2,0.2-1.7,0.5c-0.6,0.2-1.3,0.2-2,0.2
			c-0.8,0.2-1.6,0.3-2.5,0.5c-1,0-1.9,0.1-2.7,0.2c-1,0.2-2.1,0.2-3.2,0.2c-1,0-2.1,0.1-3.2,0.3c-1.2,0-2.4,0.1-3.7,0.2h-3.7
			c-1.3,0-2.6,0.1-4,0.3h-4.2H452h-4.2h-4.4c-1.5,0-2.9-0.1-4.2-0.3h-4.4c-1.5,0-2.9-0.1-4.2-0.2c-1.5,0-2.9-0.1-4.2-0.3h-3.9
			c-1.3-0.2-2.6-0.2-4-0.2c-1.1-0.2-2.4-0.3-3.7-0.5c-1.2,0-2.3-0.1-3.5-0.2c-1,0-2-0.1-3-0.2c-1-0.2-2-0.3-3-0.5
			c-0.8,0-1.7-0.1-2.5-0.3c-0.7-0.2-1.4-0.3-2.2-0.5c-0.5-0.2-1.1-0.3-1.7-0.5c-0.5-0.2-0.9-0.3-1.2-0.5c-0.3-0.2-0.7-0.3-1-0.5
			c-0.2-0.2-0.2-0.3-0.2-0.5c-0.2-0.3-0.3-0.7-0.5-1v-1.5c-0.2-0.5-0.3-1.1-0.3-1.7v-2v-2.5v-2.7v-3c0.2-1.1,0.3-2.2,0.3-3.2
			c0.2-1.2,0.2-2.3,0.2-3.5c0.2-1.3,0.2-2.6,0.2-3.7c0.2-1.3,0.3-2.6,0.5-4c0-1.3,0.1-2.6,0.3-3.9c0.2-1.3,0.3-2.7,0.5-4.2
			c0.2-1.3,0.3-2.7,0.5-4.2c0-1.5,0.1-3,0.2-4.4c0.2-1.5,0.3-3,0.5-4.4c0.3-1.5,0.6-3,0.7-4.4c0.2-1.5,0.3-3,0.5-4.4
			c0.2-1.5,0.3-3,0.5-4.4c0.2-1.5,0.3-3,0.5-4.4c0.2-1.5,0.4-3,0.7-4.4c0.2-1.5,0.3-3,0.5-4.4c0.2-1.3,0.3-2.7,0.5-4.2
			c0.2-1.5,0.3-2.9,0.5-4.2c0.3-1.3,0.6-2.6,0.7-4c0.2-1.3,0.3-2.6,0.5-3.9c0.2-1.1,0.3-2.4,0.5-3.7c0.2-1.1,0.3-2.3,0.5-3.4
			c0.2-1.1,0.3-2.2,0.5-3.2c0.2-1,0.3-2,0.5-3c0-1,0.1-2,0.3-3c0.2-0.8,0.3-1.7,0.5-2.5c0-0.7,0.1-1.3,0.2-2c0-0.6,0.1-1.2,0.2-1.7
			c0-0.5,0.1-1,0.3-1.5v-1.2c0.2-0.2,0.2-0.3,0.2-0.5V412.2z"/>
	</g>
</g>
</svg>
