<?xml version="1.0" encoding="utf-8"?>
<!-- Generator: Adobe Illustrator 18.0.0, SVG Export Plug-In . SVG Version: 6.00 Build 0)  -->
<!DOCTYPE svg PUBLIC "-//W3C//DTD SVG 1.0//EN" "http://www.w3.org/TR/2001/REC-SVG-20010904/DTD/svg10.dtd">
<svg version="1.0" id="Camada_1" xmlns="http://www.w3.org/2000/svg" xmlns:xlink="http://www.w3.org/1999/xlink" x="0px" y="0px"
	 viewBox="0 0 339.8 331.2" enable-background="new 0 0 339.8 331.2" xml:space="preserve">
<g>
	<g>
		<path fill="#020202" d="M33.2,300L33.2,300c0-0.2,0-0.4,0-0.5c0-0.1,0-0.2,0-0.2c0-0.1,0-0.1,0-0.2c0-0.1,0.1-0.2,0.1-0.2
			c0-0.2,0.1-0.4,0.1-0.5c0.2-0.6,0.3-1.1,0.4-1.7c0.1-0.3,0.2-0.5,0.2-0.8c0-0.1,0.1-0.3,0.1-0.5c0.1-0.1,0.1-0.3,0.1-0.5
			c0.1-0.2,0.1-0.3,0.1-0.5c0.1-0.2,0.1-0.3,0.2-0.5c0.1-0.3,0.2-0.7,0.2-1c0.1-0.4,0.2-0.7,0.3-1.1c0.1-1,0.5-2,0.8-3
			c0.2-0.6,0.4-1.3,0.5-1.9c0.1-0.4,0.3-0.9,0.4-1.3c0.1-0.2,0.1-0.5,0.2-0.7c0.1-0.5,0.3-0.9,0.4-1.4c0.1-0.2,0.1-0.5,0.2-0.7
			c0.1-0.2,0.2-0.5,0.2-0.7c0.1-0.2,0.2-0.5,0.2-0.7c0.1-0.2,0.2-0.5,0.2-0.7c0.1-0.2,0.2-0.5,0.2-0.7c0.1-0.2,0.2-0.5,0.2-0.7
			c0.1-0.2,0.2-0.5,0.2-0.7c0.1-0.2,0.2-0.5,0.2-0.7c0.1-0.2,0.2-0.5,0.2-0.7c0.1-0.2,0.2-0.5,0.2-0.7c0.1-0.2,0.2-0.5,0.2-0.7
			c0.1-0.2,0.2-0.5,0.2-0.7c0.1-0.2,0.2-0.5,0.2-0.7c0.1-0.2,0.1-0.5,0.2-0.7c0.1-0.2,0.1-0.5,0.2-0.7c0.1-0.2,0.1-0.5,0.2-0.7
			c0.1-0.2,0.1-0.5,0.2-0.7c0.1-0.2,0.1-0.5,0.2-0.7c0.1-0.2,0.1-0.5,0.2-0.7c0.1-0.2,0.1-0.5,0.2-0.7c0.1-0.2,0.1-0.5,0.2-0.7
			c0.1-0.2,0.1-0.5,0.2-0.7c0.1-0.2,0.1-0.4,0.2-0.7c0.1-0.2,0.2-0.4,0.2-0.7c0.1-0.4,0.3-0.9,0.4-1.3c0.1-0.2,0.1-0.4,0.2-0.7
			c0.1-0.4,0.3-0.8,0.4-1.2c0.3-0.8,0.4-1.6,0.7-2.3c0.2-0.5,0.3-1.1,0.5-1.6c0.1-0.5,0.3-1,0.4-1.5c0.1-0.3,0.2-0.6,0.3-0.9
			c0.1-0.2,0.1-0.3,0.1-0.5c0.1-0.1,0.1-0.3,0.1-0.4c0.1-0.1,0.1-0.3,0.1-0.4c0.1-0.2,0.2-0.5,0.2-0.7c0-0.2,0.1-0.4,0.2-0.6
			c0.1-0.2,0.1-0.5,0.2-0.7c0-0.1,0-0.3,0.1-0.4c0-0.1,0-0.1,0-0.2c0,0,0-0.1,0-0.1c0-0.1,0.1-0.1,0.1-0.2v0c0.1,0,0.1-0.1,0.2-0.1
			c0.1,0,0.2-0.1,0.2-0.1c0.1,0,0.2,0,0.4,0c0.1,0,0.3-0.1,0.4-0.1c0.2,0,0.4,0,0.5,0c0.2,0,0.4,0,0.6,0c0.2,0,0.4,0,0.7,0
			c0.5,0,0.9,0,1.4,0c0.7,0,1.5,0,2.2,0c0.7,0.1,1.4,0,2.1,0.1c0.2,0,0.4,0,0.6,0c0.2,0,0.4,0,0.5,0c0.2,0,0.3,0,0.5,0
			c0.1,0,0.3,0,0.4,0c0.1,0,0.2,0.1,0.3,0.1c0.1,0,0.1,0,0.2,0v0c0,0,0,0,0,0c0,0,0,0.1,0,0.1c0,0,0,0.1,0,0.1
			c0,0.1,0.1,0.1,0.1,0.1c0,0.1,0,0.1,0,0.2c0,0.1,0.1,0.2,0.1,0.2c0.1,0.2,0.2,0.5,0.2,0.7c0,0.1,0.1,0.2,0.1,0.3
			c0.1,0.2,0.2,0.4,0.2,0.7c0,0.1,0.1,0.3,0.1,0.4c0.1,0.1,0.1,0.3,0.1,0.4c0.1,0.1,0.1,0.3,0.1,0.4c0.1,0.1,0.1,0.3,0.2,0.4
			c0.1,0.3,0.2,0.6,0.2,0.9c0.2,0.5,0.4,1,0.5,1.5c0.2,0.7,0.4,1.5,0.7,2.2c0.3,0.6,0.4,1.2,0.5,1.8c0.1,0.4,0.3,0.8,0.4,1.3
			c0.1,0.4,0.3,0.9,0.4,1.3c0.1,0.2,0.1,0.5,0.2,0.7c0.1,0.2,0.2,0.4,0.2,0.7c0.1,0.5,0.3,0.9,0.4,1.4c0.1,0.2,0.1,0.5,0.2,0.7
			c0.1,0.2,0.1,0.5,0.2,0.7c0.1,0.2,0.1,0.5,0.2,0.7c0.1,0.2,0.1,0.5,0.2,0.7c0.1,0.2,0.1,0.5,0.2,0.7c0.1,0.2,0.2,0.5,0.2,0.7
			c0.1,0.2,0.2,0.5,0.2,0.7c0.1,0.2,0.1,0.5,0.2,0.7c0.1,0.2,0.1,0.5,0.2,0.7c0.1,0.2,0.1,0.5,0.2,0.7c0.1,0.2,0.1,0.5,0.2,0.7
			c0.1,0.2,0.1,0.5,0.2,0.7c0.1,0.2,0.1,0.5,0.2,0.7c0.1,0.2,0.1,0.5,0.2,0.7c0.1,0.2,0.1,0.5,0.2,0.7c0.1,0.2,0.2,0.5,0.2,0.7
			c0.1,0.2,0.2,0.5,0.2,0.7c0.1,0.2,0.2,0.5,0.2,0.7c0.1,0.5,0.3,1,0.4,1.4c0.1,0.2,0.1,0.5,0.2,0.7c0.1,0.5,0.3,0.9,0.4,1.4
			c0.1,0.5,0.2,0.9,0.4,1.4c0.1,0.4,0.2,0.9,0.3,1.3c0.4,1.1,0.8,2.5,1,3.7c0.1,0.4,0.2,0.8,0.3,1.1c0.1,0.4,0.2,0.7,0.3,1.1
			c0,0.2,0.1,0.3,0.1,0.5c0,0.2,0.1,0.3,0.1,0.5c0,0.2,0.1,0.3,0.1,0.5c0,0.2,0.1,0.3,0.1,0.5c0,0.3,0.1,0.6,0.2,0.9
			c0.1,0.6,0.3,1.2,0.4,1.8c0,0.1,0.1,0.2,0.1,0.2c0,0.2,0,0.3,0.1,0.5c0,0.1,0,0.2,0,0.2c0,0.1,0,0.2,0.1,0.3c0,0.1,0,0.3,0,0.3h0
			c0,0.1-0.1,0.1-0.1,0.1c-0.1,0-0.1,0.1-0.2,0.1c-0.1,0-0.2,0-0.3,0c-0.1,0-0.3,0.1-0.4,0.1c-0.3,0-0.7,0.1-1,0.1
			c-0.4,0-0.8,0.1-1.2,0.1c-1.5,0-2.9,0-4.4,0c-0.5,0-0.9-0.1-1.4-0.1c-0.2,0-0.4,0-0.7,0c-0.2,0-0.4,0-0.6,0c-0.2,0-0.3,0-0.5,0
			c-0.2,0-0.3-0.1-0.5-0.1c-0.3,0-0.5,0-0.7-0.1c-0.2,0-0.3-0.1-0.4-0.2c0-0.1-0.1-0.2-0.1-0.2c0-0.1-0.1-0.2-0.1-0.3
			c-0.1-0.3-0.2-0.5-0.2-0.8c-0.1-0.4-0.2-0.7-0.3-1.1c-0.4-2.6-1.5-5-1.7-7.6c-0.1-0.4-0.2-0.8-0.3-1.2c-0.1-0.2-0.1-0.4-0.1-0.6
			c-0.1-0.5-0.2-0.9-0.3-1.4c0-0.1,0-0.2,0-0.3c0-0.1-0.1-0.2-0.1-0.2c0-0.1,0-0.2,0-0.2c-0.1,0-0.1,0-0.2,0c-0.1,0-0.2,0-0.3,0
			c-0.4,0-0.7-0.1-1.1-0.1c-0.2,0-0.4,0-0.7,0c-0.9-0.1-1.9-0.1-2.9,0c-0.4,0-0.7,0.1-1.1,0.1c-0.1,0-0.2,0.1-0.4,0.1
			c-0.1,0-0.2,0.1-0.2,0.1v0c0,0.1,0,0.1,0,0.2c0,0.1,0,0.2,0,0.2c-0.1,0.4-0.2,0.8-0.3,1.2c0,0.2-0.1,0.3-0.1,0.5
			c-0.1,0.2-0.1,0.4-0.1,0.6c-0.1,0.2-0.1,0.4-0.2,0.7c-0.2,1.9-0.9,3.9-1.3,5.8c-0.1,0.9-0.5,1.7-0.6,2.5c-0.1,0.2-0.1,0.4-0.2,0.5
			c0,0.2-0.1,0.3-0.1,0.5c0,0.1-0.1,0.3-0.1,0.4c-0.1,0.1-0.1,0.2-0.1,0.3c0,0.1-0.1,0.2-0.1,0.2c0,0.1,0,0.1,0,0.1
			c-0.1,0.1-0.1,0.1-0.1,0.1c-0.1,0-0.2,0.1-0.2,0.1c-0.6,0.1-1.2,0.3-1.8,0.3c-0.2,0-0.4,0.1-0.6,0.1c-0.5,0-0.9,0.1-1.4,0.1
			c-0.2,0-0.5,0-0.7,0c-0.7,0.1-1.5,0-2.2,0.1c-0.5,0-0.9,0-1.4,0c-0.2,0-0.4,0-0.7,0c-0.2,0-0.4,0-0.6,0c-0.2,0-0.4,0-0.6,0
			c-0.1,0-0.3-0.1-0.5-0.1c-0.3,0-0.5,0-0.7-0.2c-0.1,0-0.2-0.1-0.2-0.1C33.2,300.1,33.2,300,33.2,300z M54.5,281.1
			c0-0.1,0-0.1,0-0.2c0-0.1,0-0.2,0-0.2c-0.1-0.2-0.1-0.4-0.2-0.7c0-0.5-0.2-1.1-0.3-1.6c-0.2-0.5-0.2-1-0.3-1.5
			c-0.1-0.4-0.2-0.7-0.2-1.1c0-0.4-0.1-0.8-0.2-1.1c0-0.2-0.1-0.4-0.1-0.6c-0.1-0.4-0.2-0.8-0.2-1.2c0-0.2-0.1-0.4-0.1-0.6
			c-0.1-0.4-0.2-0.8-0.2-1.2c-0.2-0.6-0.2-1.2-0.3-1.8c0-0.2-0.1-0.4-0.1-0.6c-0.1-0.2-0.1-0.4-0.1-0.6c-0.1-0.8-0.1-0.8-0.2,0
			c0,0.2,0,0.4-0.1,0.6c-0.1,0.2-0.1,0.4-0.1,0.6c0,0.6-0.2,1.3-0.3,1.9c0,0.2-0.1,0.4-0.1,0.7c0,0.2-0.1,0.4-0.1,0.6
			c0,0.2-0.1,0.4-0.1,0.7c0,0.2-0.1,0.4-0.1,0.6c0,0.2-0.1,0.4-0.1,0.6c0,0.2-0.1,0.4-0.1,0.6c0,0.2-0.1,0.4-0.1,0.6
			c0,0.2-0.1,0.4-0.1,0.6c-0.1,0.4-0.2,0.7-0.2,1.1c0,0.2-0.1,0.4-0.1,0.5c-0.2,0.5-0.2,1-0.3,1.5c-0.1,0.3-0.1,0.5-0.2,0.8
			c0,0.3-0.1,0.9-0.2,1.2c-0.2,0.4,0.4,0.3,0.6,0.3c0.2,0,0.4,0,0.6,0c0.4,0,0.9-0.1,1.3,0c0.2,0,0.5,0,0.7,0c0.2,0,0.4-0.1,0.7-0.1
			c0.2,0,0.3,0,0.5,0C54.1,281.3,54.3,281.2,54.5,281.1C54.5,281.1,54.5,281.2,54.5,281.1z"/>
		<path fill="#020202" d="M74.8,318.3L74.8,318.3c-0.1-0.1-0.1-0.1-0.1-0.1c0-0.1,0-0.1,0-0.1c-0.1-0.1-0.1-0.2-0.1-0.3
			c0-0.1-0.1-0.1-0.1-0.2c0-0.1,0-0.2,0-0.2c0-0.2-0.1-0.3-0.1-0.5c0-0.1,0-0.2,0-0.3c0-0.1,0-0.2,0-0.3c0-0.1,0-0.2,0-0.3
			c0-0.1,0-0.3,0-0.4c0-0.2-0.1-0.5-0.1-0.7c0-0.1,0-0.3,0-0.4c0-0.1,0-0.3,0-0.4c0-0.3-0.1-0.6,0-0.9c0-0.3-0.1-0.6,0-0.9
			c-0.1-0.5,0-1-0.1-1.6c0-0.8,0.1-1.5,0-2.3c0-1.7,0-3.4,0-5.1c0.1-1.1,0-2.3,0.1-3.4c0-0.7,0-1.4,0-2.1c0.1-0.7,0-1.4,0.1-2.1
			c0-0.5,0-1,0-1.5c0-0.5,0-1,0-1.4c0-0.5,0-1,0-1.4c0-0.5,0-1,0-1.5c0.1-0.9,0.1-1.9,0-2.9c0-0.7,0-1.4,0-2.1c0-0.4,0-0.9,0-1.3
			c0-0.2,0-0.4,0-0.6c0-0.4-0.1-0.8-0.1-1.2c0-0.2,0-0.4,0-0.6c0-0.2,0-0.4,0-0.6c0-0.2,0-0.4,0-0.6c0-0.4-0.1-0.7-0.1-1.1
			c0-0.2,0-0.3,0-0.5c0-0.2,0-0.3,0-0.5c0-0.2,0-0.3,0-0.5c0-0.3-0.1-0.6-0.1-0.9c0-0.2,0-0.3,0-0.5c-0.1-0.4,0-0.8-0.1-1.2
			c0-0.7-0.2-1.6,0-2.3c0-0.1,0-0.2,0-0.2c0-0.1,0.1-0.3,0.1-0.4c0.1-0.2,0.2-0.3,0.3-0.4c0.1-0.1,0.2-0.1,0.3-0.2
			c0.3-0.1,0.6-0.2,1-0.2c0.6-0.1,1.3-0.2,1.9-0.2c0.2,0,0.5-0.1,0.7-0.1c0.2,0,0.5,0,0.7,0c0.7-0.1,1.5,0,2.2,0
			c0.5,0,0.9,0.1,1.4,0.1c0.2,0,0.4,0,0.6,0c0.3,0,0.7,0.1,1,0.1c0.1,0,0.2,0.1,0.4,0.1c0.1,0,0.2,0.1,0.3,0.1
			c0.1,0,0.1,0.1,0.2,0.1c0.1,0.1,0.2,0.2,0.3,0.3c0.1,0.1,0.1,0.2,0.2,0.3c0,0.1,0,0.2,0,0.4c0,0.2,0,0.4,0,0.6
			c-0.2,0.4-0.2,0.8-0.1,1c0,0.1,0.2,0,0.5-0.3c0.1-0.1,0.3-0.2,0.5-0.3c0.1-0.1,0.3-0.2,0.5-0.3c0.1-0.1,0.3-0.2,0.5-0.2
			c0.1-0.1,0.3-0.2,0.5-0.2c0.1-0.1,0.3-0.2,0.5-0.2c0.1-0.1,0.3-0.1,0.5-0.2c0.3-0.1,0.6-0.2,0.9-0.4c0.3-0.1,0.6-0.2,0.9-0.3
			c0.2,0,0.3-0.1,0.5-0.1c0.6-0.1,1.2-0.3,1.8-0.3c0.2,0,0.3,0,0.5,0c0.4-0.1,0.9,0,1.3,0c0.4,0.1,0.9,0.1,1.3,0.1
			c0.4,0.1,0.9,0.1,1.3,0.3c0.1,0,0.2,0.1,0.4,0.1c0.3,0.1,0.6,0.2,0.8,0.2c0.3,0.1,0.5,0.2,0.7,0.4c0.1,0.1,0.3,0.1,0.4,0.2
			c0.1,0.1,0.3,0.2,0.4,0.2c0.1,0.1,0.3,0.2,0.4,0.2c0.4,0.2,0.7,0.5,1,0.7c0.1,0.1,0.2,0.2,0.3,0.2c0.1,0.1,0.2,0.2,0.3,0.3
			c0.1,0.1,0.2,0.2,0.3,0.3c0.1,0.1,0.2,0.2,0.3,0.3c0.1,0.1,0.2,0.2,0.3,0.3c0.1,0.1,0.2,0.2,0.3,0.3c0.1,0.1,0.2,0.2,0.3,0.4
			c0.2,0.3,0.3,0.5,0.5,0.7c0.1,0.1,0.2,0.2,0.2,0.4c0.1,0.3,0.3,0.6,0.5,0.8c0.1,0.1,0.1,0.3,0.2,0.4c0.1,0.2,0.1,0.3,0.2,0.5
			c0.1,0.1,0.2,0.3,0.2,0.5c0.2,0.6,0.5,1.2,0.6,1.9c0.1,0.2,0.1,0.3,0.1,0.5c0.2,0.7,0.3,1.4,0.4,2.1c0,0.2,0,0.4,0,0.5
			c0,0.2,0,0.4,0,0.6c0,0.8,0,1.6,0,2.4c0,0.2-0.1,0.4-0.1,0.7c0,0.4-0.1,0.8-0.1,1.2c-0.1,0.6-0.3,1.2-0.4,1.8
			c-0.1,0.4-0.2,0.7-0.3,1.1c-0.2,0.5-0.4,1-0.6,1.6c-0.2,0.3-0.3,0.6-0.5,0.9c-0.1,0.2-0.2,0.3-0.2,0.5c-0.3,0.4-0.6,0.8-0.9,1.3
			c-0.1,0.1-0.2,0.3-0.3,0.4c-0.1,0.1-0.2,0.2-0.3,0.4c-0.1,0.1-0.2,0.2-0.3,0.4c-0.2,0.2-0.4,0.4-0.7,0.7c-0.5,0.4-1,0.8-1.5,1.1
			c-0.4,0.3-0.8,0.5-1.2,0.7c-0.1,0.1-0.3,0.2-0.4,0.2c-0.4,0.2-0.8,0.4-1.2,0.5c-0.1,0-0.3,0.1-0.5,0.1c-0.1,0-0.3,0.1-0.4,0.1
			c-0.1,0-0.3,0.1-0.5,0.1c-0.1,0.1-0.3,0.1-0.4,0.1c-0.3,0-0.6,0.1-0.9,0.1c-0.1,0-0.3,0-0.4,0c-0.6,0-1.2,0.1-1.8,0
			c-0.3,0-0.6-0.1-0.9-0.1c-0.1,0-0.3-0.1-0.4-0.1c-0.3-0.1-0.6-0.2-0.9-0.2c-0.1,0-0.3-0.1-0.4-0.1c-0.4-0.1-0.9-0.3-1.3-0.5
			c-0.1-0.1-0.3-0.1-0.4-0.2c-0.3-0.1-0.5-0.3-0.8-0.5c-0.2,0-0.3-0.1-0.4-0.2c-0.4-0.4-0.5-0.3-0.3,0.2c0.2,0.9,0.2,2,0.2,2.9
			c0,0.2,0,0.4,0,0.7c0,0.2,0,0.4,0,0.6c0,0.2,0,0.4,0,0.7c0,0.2,0,0.4,0,0.7c0,0.2,0,0.4,0,0.7c0,0.2,0,0.4,0,0.7
			c0,0.4,0.1,0.9,0.1,1.3c0,0.2,0,0.4,0,0.7c0,0.2,0,0.4,0,0.7c0,0.4,0.1,0.9,0.1,1.3c0,0.4,0,0.8,0,1.2c0.1,0.9,0,1.9,0,2.8
			c0,0.3-0.1,0.7,0,1c0,0.3-0.1,0.6-0.1,0.9c0,0.1,0,0.3,0,0.4c0,0.1,0,0.2,0,0.4c0,0.1,0,0.2,0,0.3c0,0.1-0.1,0.2-0.1,0.3
			c0,0.1,0,0.2,0,0.2c0,0.1-0.1,0.1-0.1,0.2c0,0.1-0.1,0.2-0.2,0.3c0,0-0.1,0.1-0.1,0.1c-0.7,0.4-1.7,0.7-2.4,0.8
			c-0.2,0.1-0.4,0.1-0.6,0.1c-0.8,0.2-1.6,0.3-2.4,0.4c-0.2,0-0.4,0-0.6,0c-0.2,0-0.4,0-0.6,0c-0.6,0-1.1,0-1.7,0
			c-0.3,0-0.7-0.1-1-0.1c-0.2,0-0.3,0-0.5-0.1c-0.1,0-0.3-0.1-0.5-0.1c-0.1,0-0.2-0.1-0.4-0.1C75.2,318.6,75,318.5,74.8,318.3z
			 M90.7,289.8c0.2,0.1,0.3,0.1,0.5,0.1c0.7,0.1,1.4-0.2,2-0.6c0.3-0.2,0.6-0.4,0.8-0.7c0.1-0.1,0.3-0.3,0.4-0.4
			c0.2-0.3,0.3-0.6,0.5-0.9c0.1-0.2,0.1-0.3,0.1-0.5c0.1-0.2,0.1-0.3,0.1-0.5c0-0.2,0-0.3,0-0.5c0-0.4-0.1-0.7-0.2-1.1
			c0-0.2-0.1-0.4-0.2-0.6c-0.1-0.2-0.1-0.4-0.2-0.5c-0.2-0.5-0.6-1-1.1-1.3c-0.1-0.1-0.3-0.2-0.5-0.3c-0.2-0.1-0.4-0.1-0.6-0.1
			c-0.9-0.3-2,0.1-2.8,0.6c-0.7,0.4-1.1,0.9-1.5,1.5c-0.1,0.1-0.2,0.3-0.2,0.5c-0.3,0.7-0.4,1.4-0.3,2.2c0.1,0.4,0.2,0.8,0.4,1.1
			c0.1,0.2,0.2,0.3,0.3,0.5c0.2,0.3,0.5,0.6,0.7,0.8c0.3,0.2,0.5,0.4,0.8,0.5C90.1,289.6,90.4,289.7,90.7,289.8
			C90.9,289.9,90.6,289.8,90.7,289.8z"/>
		<path fill="#020202" d="M134.6,270.8c0.1,0,0.1,0.1,0.1,0.2c0,0.1,0.1,0.1,0.1,0.2c0,0.2,0.1,0.6,0.1,0.8c0,0.1,0,0.2,0,0.3
			c0,0.3,0.1,0.5,0,0.8c0.2,1.2,0.1,2.6,0,3.8c0,0.7,0,1.3,0,2c-0.1,0.9,0,1.9,0,2.8c-0.2,1.4,0,2.9,0,4.4c0,0.5,0.1,1,0,1.5
			c0,0.5,0.1,1,0.1,1.5c0,0.2,0,0.5,0,0.7c0,0.5,0.1,1,0.1,1.4c0,0.2,0.1,0.5,0.1,0.7c0,0.5,0.1,0.9,0.1,1.4c0,0.2,0.1,0.4,0.1,0.7
			c0,0.4,0.1,0.8,0.1,1.2c0,0.2,0,0.4,0,0.6c0,0.2,0.1,0.4,0.1,0.6c0,0.2,0,0.3,0,0.5c0,0.2,0,0.3,0,0.5c0,0.2,0,0.3,0,0.5
			c0,0.3,0.1,0.6,0.1,0.9c0,0.4,0.1,0.8,0,1.2c0,0.1,0,0.2,0,0.2c0,0.1,0,0.1,0,0.2c0,0-0.1,0.1-0.1,0.1c0,0,0,0-0.1,0
			c-0.1,0-0.1,0-0.2,0c-0.2,0-0.5,0.1-0.7,0.1c-0.2,0-0.3,0-0.5,0c-0.4,0-0.8,0.1-1.2,0c-1.6,0.2-3.4,0.2-5,0c-0.4,0-0.9,0-1.3,0
			c-0.2,0-0.4,0-0.6,0c-0.2,0-0.3,0-0.5,0c-0.1,0-0.3,0-0.4,0c-0.1,0-0.2-0.1-0.3-0.1c-0.1,0-0.1,0-0.2,0c-0.1-0.1-0.2-0.1-0.4-0.2
			c-0.2-0.1-0.3-0.2-0.3-0.5c-0.1-0.2-0.1-0.4,0-0.6c0.1-0.4,0.1-0.7,0-1c0-0.1-0.1,0-0.2,0.3c-0.1,0.1-0.1,0.2-0.2,0.3
			c-0.1,0.1-0.2,0.2-0.3,0.2c-0.3,0.3-0.6,0.5-1,0.7c-0.1,0.1-0.3,0.1-0.4,0.2c-0.1,0.1-0.2,0.1-0.4,0.2c-0.3,0.2-0.5,0.3-0.8,0.3
			c-0.1,0.1-0.3,0.1-0.4,0.2c-0.2,0-0.3,0.1-0.5,0.1c-0.5,0.1-0.9,0.2-1.4,0.2c-0.1,0-0.3,0-0.5,0c-0.5,0-1,0-1.5,0
			c-0.5,0-1-0.1-1.5-0.2c-0.2-0.1-0.3-0.1-0.5-0.1c-0.3-0.1-0.7-0.2-1-0.3c-0.2-0.1-0.3-0.2-0.5-0.2c-0.2-0.1-0.3-0.2-0.5-0.2
			c-0.3-0.1-0.7-0.3-1-0.5c-0.2-0.1-0.3-0.2-0.5-0.3c-0.2-0.1-0.3-0.2-0.5-0.3c-0.4-0.4-0.9-0.8-1.3-1.2c-0.3-0.3-0.5-0.6-0.7-0.9
			c-0.2-0.4-0.4-0.7-0.7-1.1c-0.1-0.2-0.2-0.4-0.3-0.6c-0.3-0.5-0.5-1.1-0.8-1.7c-0.1-0.2-0.1-0.4-0.2-0.6c-0.1-0.2-0.1-0.4-0.2-0.6
			c-0.2-0.4-0.3-0.8-0.3-1.2c-0.1-0.2-0.1-0.4-0.2-0.7c0-0.2-0.1-0.4-0.1-0.6c-0.1-0.8-0.2-1.7-0.3-2.5c0-0.2,0-0.4,0-0.6
			c0-0.2,0-0.4,0-0.6c0-0.4,0-0.8,0-1.3c0-0.2,0-0.4,0-0.6c0-0.4,0-0.8,0-1.2c0-0.2,0-0.4,0-0.6c0-0.2,0-0.4,0-0.6
			c0-0.2,0.1-0.4,0.1-0.6c0-1.2,0.3-2.6,0.5-3.8c0.1-0.3,0.2-0.7,0.2-1c0.1-0.3,0.2-0.6,0.2-0.9c0-0.1,0.1-0.3,0.1-0.5
			c0-0.1,0.1-0.2,0.1-0.4c0.1-0.1,0.1-0.3,0.1-0.4c0.1-0.2,0.2-0.5,0.2-0.7c0-0.1,0.1-0.2,0.1-0.3c0-0.1,0.1-0.2,0.1-0.3
			c0-0.1,0.1-0.2,0.1-0.3c0.1-0.1,0.1-0.2,0.1-0.2c0-0.1,0.1-0.1,0.1-0.2c0-0.1,0.1-0.1,0.1-0.2c0-0.1,0.1-0.1,0.1-0.2
			c0,0,0.1-0.1,0.1-0.1c0.1-0.1,0.2-0.2,0.2-0.2c0.4-0.1,0.9-0.2,1.3-0.2c0.2,0,0.4,0,0.6,0c0.2,0,0.4,0,0.7,0c0.2,0,0.4,0,0.7,0
			c0.9,0,1.8-0.1,2.7,0c0.2,0,0.4,0,0.6,0c0.2,0,0.3,0,0.5,0c0.1,0,0.3,0.1,0.4,0.1c0.1,0,0.2,0,0.3,0c0.1,0,0.1,0.1,0.2,0.1
			c0,0.3,0,0.5,0,0.8c0,0.1,0,0.2,0,0.3c0,0.1,0,0.2,0,0.3c0,0.1,0,0.3,0,0.4c0,0.3-0.1,0.6-0.1,0.9c-0.1,0.3-0.1,0.6-0.1,0.9
			c-0.1,0.4-0.1,0.7-0.1,1.1c0,0.2-0.1,0.4-0.1,0.6c0,0.4-0.1,0.8-0.1,1.2c0,0.2-0.1,0.4-0.1,0.6c0,0.2,0,0.4,0,0.6
			c0,0.2,0,0.4,0,0.6c0,0.4-0.1,0.8,0,1.3c0,0.4-0.1,0.9,0,1.3c0,0.4,0.1,0.8,0.1,1.3c0,0.2,0,0.4,0,0.6c0,0.6,0.1,1.2,0.2,1.8
			c0,0.2,0.1,0.4,0.1,0.6c0.2,0.7,0.3,1.4,0.7,2c0.2,0.4,0.5,0.9,0.8,1.2c0.2,0.2,0.4,0.5,0.7,0.6c0.4,0.3,0.8,0.4,1.2,0.6
			c0.3,0.1,0.7,0.1,1,0.2c0.1,0,0.3,0,0.5,0c0.1,0,0.3,0,0.4,0c0.3-0.1,0.5-0.2,0.8-0.3c0.4-0.2,0.7-0.5,1-0.9
			c0.1-0.1,0.2-0.3,0.3-0.4c0.1-0.1,0.2-0.3,0.3-0.4c0.1-0.2,0.2-0.3,0.2-0.5c0.2-0.5,0.4-1,0.6-1.6c0.1-0.2,0.2-0.4,0.2-0.6
			c0.1-0.4,0.2-0.8,0.3-1.2c0-0.2,0.1-0.4,0.1-0.7c0-0.4,0.1-0.9,0.2-1.3c0.1-0.5,0.1-0.9,0.1-1.4c0.1-0.4,0.1-0.9,0.1-1.4
			c0-0.2,0-0.5,0-0.7c0-0.2,0-0.4,0-0.7c0-0.4,0.1-0.9,0.1-1.3c0-0.4,0-0.8,0-1.3c0-0.7,0-1.4,0-2.2c0.1-0.6-0.1-1.3,0.1-2
			c0-0.2,0-0.3,0-0.5c0-0.1,0-0.1,0-0.2c0,0,0-0.1,0-0.1c0.1,0,0.1-0.1,0.1-0.1c0.1,0,0.2,0,0.3,0c0.3-0.1,0.6-0.1,0.9-0.2
			c0.4,0,0.8-0.1,1.2-0.1c0.2,0,0.5,0,0.7,0c0.5,0,1-0.1,1.5-0.1c0.7,0,1.4,0,2.1,0c0.5,0.1,1.2,0.1,1.7,0.1c0.1,0,0.2,0.1,0.4,0.1
			C134.4,270.8,134.5,270.8,134.6,270.8C134.6,270.9,134.5,270.8,134.6,270.8z"/>
		<path fill="#020202" d="M140.4,253.3c0.1-0.1,0.2-0.2,0.3-0.2c0.1-0.1,0.3-0.1,0.4-0.2c0.3-0.1,0.6-0.2,1-0.2
			c0.8-0.2,1.6-0.3,2.4-0.4c0.2,0,0.4,0,0.7,0c0.2,0,0.5,0,0.7,0c0.7-0.1,1.4-0.1,2.1,0c0.2,0,0.4,0,0.7,0c0.2,0,0.4,0,0.6,0
			c0.2,0,0.4,0,0.6,0c0.6,0.1,1.2,0.2,1.8,0.3c0.2,0.1,0.3,0.1,0.5,0.2c0.1,0,0.1,0.1,0.1,0.1c0,0,0.1,0.1,0.1,0.1
			c0.1,0.1,0.1,0.2,0.2,0.3c0,0.1,0,0.2,0,0.2c0,0.1,0,0.2,0,0.2c0,0.1,0,0.2,0,0.2c0.2,0.5,0,1.2,0,1.8c0,0.2-0.1,0.5-0.1,0.7
			c0,0.1,0,0.3,0,0.4c0,0.3-0.1,0.6-0.1,0.9c-0.1,0.3-0.1,0.6-0.2,0.9c0,0.7-0.2,1.3-0.3,2c-0.2,0.5-0.2,1-0.3,1.6
			c-0.1,0.4-0.2,0.7-0.2,1.1c-0.1,0.4-0.2,0.8-0.2,1.1c0,0.2-0.1,0.4-0.1,0.6c-0.1,0.4-0.2,0.8-0.2,1.2c0,0.2-0.1,0.4-0.1,0.6
			c-0.1,0.4-0.2,0.8-0.2,1.2c0,0.2-0.1,0.4-0.1,0.7c-0.1,0.4-0.2,0.8-0.2,1.3c0,0.4-0.1,0.9-0.2,1.3c0,0.4-0.1,0.9-0.2,1.3
			c-0.2,1.4-0.3,2.7-0.5,4.1c0,0.5-0.1,0.9-0.1,1.4c0,0.2,0,0.5,0,0.7c0,0.5-0.1,0.9-0.1,1.4c-0.1,0.4-0.2,0.6,0,0.7
			c0.1,0.1,0.3-0.1,0.5-0.4c0.1-0.2,0.3-0.3,0.5-0.4c0.2-0.2,0.3-0.3,0.5-0.5c0.5-0.4,1-0.9,1.5-1.4c0.9-1,1.7-2,2.5-3.1
			c0.2-0.3,0.5-0.6,0.7-0.9c0.1-0.2,0.2-0.3,0.3-0.5c0.1-0.1,0.2-0.3,0.3-0.5c0.1-0.1,0.2-0.2,0.3-0.4c0.3-0.4,0.6-0.8,0.9-1.3
			c0.1-0.1,0.1-0.1,0.2-0.2c0.1-0.1,0.1-0.1,0.2-0.2c0.1,0,0.1-0.1,0.1-0.1c0,0,0.1,0,0.1,0c0.1,0,0.2-0.1,0.3-0.1
			c1.2,0,2.4,0.2,3.6,0.5c0.2,0,0.4,0.1,0.6,0.1c0.4,0.1,0.9,0.3,1.3,0.4c0.2,0.1,0.4,0.1,0.7,0.2c0.4,0.1,0.9,0.3,1.3,0.5
			c0.6,0.2,1.2,0.5,1.7,0.7c0.3,0.1,0.6,0.3,0.9,0.5c0.1,0.1,0.2,0.2,0.4,0.2c0.1,0.1,0.2,0.1,0.3,0.2c0.1,0.1,0.2,0.1,0.2,0.2
			c0.1,0.1,0.1,0.1,0.2,0.2c0,0.1,0.1,0.2,0,0.3c-0.1,0.1-0.1,0.3-0.2,0.4c-0.1,0.1-0.1,0.1-0.1,0.2c-0.1,0.1-0.1,0.2-0.2,0.2
			c-0.1,0.1-0.1,0.2-0.2,0.3c-0.2,0.2-0.3,0.4-0.5,0.6c-0.1,0.1-0.2,0.2-0.3,0.3c-0.3,0.4-0.7,0.8-1.1,1.1c-0.1,0.1-0.3,0.3-0.4,0.4
			c-0.1,0.1-0.3,0.2-0.4,0.4c-0.2,0.1-0.3,0.3-0.5,0.4c-0.2,0.1-0.3,0.3-0.5,0.4c-0.2,0.1-0.3,0.3-0.5,0.4c-0.5,0.4-1,0.9-1.5,1.2
			c-0.2,0.1-0.3,0.3-0.5,0.4c-0.5,0.4-1.1,0.8-1.6,1.2c-0.2,0.1-0.3,0.2-0.5,0.4c-0.2,0.1-0.3,0.2-0.5,0.3c-0.3,0.3-0.7,0.5-1.1,0.7
			c-0.2,0.1-0.3,0.2-0.5,0.3c-0.2,0.1-0.3,0.2-0.5,0.3c-0.2,0.1-0.3,0.2-0.5,0.3c-0.2,0.1-0.4,0.1-0.5,0.2c-0.1,0.1,0.1,0.1,0.3,0.1
			c0.1,0,0.3,0.1,0.4,0.2c0.1,0.1,0.3,0.1,0.4,0.2c0.1,0.1,0.3,0.1,0.5,0.2c0.3,0.2,0.6,0.3,1,0.5c0.2,0.1,0.4,0.2,0.5,0.3
			c0.2,0.1,0.3,0.2,0.5,0.3c0.2,0.1,0.4,0.2,0.5,0.3c0.4,0.2,0.8,0.4,1.2,0.7c0.4,0.2,0.8,0.5,1.2,0.7c0.2,0.1,0.4,0.2,0.6,0.4
			c0.2,0.1,0.4,0.2,0.6,0.4c0.4,0.2,0.8,0.5,1.1,0.7c0.2,0.1,0.4,0.3,0.6,0.4c0.2,0.1,0.3,0.2,0.5,0.4c0.2,0.1,0.3,0.2,0.5,0.4
			c0.2,0.1,0.3,0.2,0.5,0.4c0.2,0.1,0.3,0.2,0.5,0.4c0.1,0.1,0.3,0.2,0.5,0.3c0.1,0.1,0.3,0.2,0.4,0.4c0.1,0.1,0.2,0.2,0.4,0.3
			c0.4,0.3,0.8,0.7,1.2,1.1c0.1,0.1,0.2,0.3,0.3,0.5c0,0.1,0.1,0.1,0.1,0.2c0,0.3-0.1,0.4-0.2,0.7c-0.1,0.1-0.2,0.2-0.2,0.2
			c-0.1,0.1-0.2,0.2-0.3,0.3c-0.4,0.4-0.9,0.7-1.4,1c-0.6,0.3-1.2,0.7-1.8,1c-0.2,0.1-0.4,0.2-0.7,0.3c-0.7,0.2-1.3,0.6-1.9,0.9
			c-0.4,0.2-0.9,0.4-1.3,0.5c-0.2,0.1-0.4,0.1-0.6,0.2c-0.2,0.1-0.3,0.1-0.5,0.2c-0.2,0.1-0.3,0.1-0.5,0.1c-0.4,0.1-0.9,0.3-1.3,0.2
			c-0.1,0-0.1,0-0.2,0c-0.1,0-0.2-0.1-0.2-0.1c-0.1-0.1-0.2-0.1-0.2-0.2c-0.1-0.1-0.2-0.2-0.2-0.2c-0.2-0.2-0.3-0.4-0.5-0.6
			c-0.2-0.2-0.5-0.5-0.7-0.7c-0.2-0.3-0.5-0.5-0.7-0.8c-0.1-0.1-0.2-0.3-0.4-0.4c-0.1-0.2-0.3-0.3-0.4-0.5c-0.1-0.2-0.3-0.3-0.4-0.5
			c-0.1-0.2-0.3-0.3-0.4-0.5c-0.2-0.2-0.3-0.3-0.5-0.5c-0.1-0.1-0.3-0.3-0.5-0.5c-0.2-0.1-0.3-0.3-0.5-0.5c-0.1-0.1-0.3-0.3-0.5-0.5
			c-0.3-0.3-0.7-0.6-1-0.8c-0.3-0.3-0.7-0.6-1-0.8c-0.3-0.2-0.7-0.4-1.1-0.6c-0.2-0.1-0.4-0.2-0.6-0.3c-0.3-0.2-0.5-0.3-0.5-0.2
			c-0.1,0.1-0.1,0.3,0,0.7c0.1,0.2,0.1,0.4,0.1,0.7c0,0.4,0.1,0.9,0.2,1.3c0,0.2,0.1,0.4,0.1,0.7c0,0.2,0.1,0.4,0.1,0.6
			c0,0.2,0.1,0.4,0.1,0.6c0,0.2,0.1,0.4,0.1,0.6c0,0.2,0.1,0.3,0.1,0.5c0.1,0.7,0.2,1.4,0.2,2.1c0,0.1-0.1,0.2-0.1,0.2
			c-0.1,0.1-0.2,0.2-0.3,0.2c-0.6,0.2-1.2,0.3-1.8,0.3c-0.2,0-0.4,0.1-0.6,0.1c-0.2,0-0.4,0-0.7,0c-0.2,0-0.5,0-0.7,0
			c-1.4,0.1-3,0.2-4.3,0c-0.2,0-0.4,0-0.6,0c-0.2,0-0.4,0-0.5,0c-0.1,0-0.3-0.1-0.5-0.1c-0.1,0-0.2,0-0.3,0c-0.1,0-0.2-0.1-0.2-0.1
			c-0.1,0-0.1,0-0.1-0.1c0,0,0-0.1,0-0.1c-0.1-0.1,0-0.4,0-0.6c-0.1-0.3,0-0.7,0-1c-0.1-0.4,0-0.9,0-1.4c-0.1-0.6,0-1.2-0.1-1.8
			c0-0.7,0.1-1.4,0-2.1c0-0.8,0.1-1.6,0-2.4c0-0.9,0.1-1.7,0-2.6c0-1.2,0.1-2.3,0-3.5c0-1.5,0-3,0-4.4c-0.4-3.9,0-8,0-11.9
			c0.2-1.4-0.1-2.7,0.1-4.1c0-0.6,0-1.3,0-1.9c0.1-0.6,0-1.1,0.1-1.7c0-0.4,0-0.7,0-1.1c0-0.3,0.1-0.7,0-1c0-0.3,0.1-0.6,0-0.9
			c0-0.3,0.1-0.5,0.1-0.8c0-0.3,0-0.5,0-0.8c0-0.1,0-0.2,0-0.4c0-0.1,0-0.2,0-0.3c0-0.2,0-0.4,0.1-0.6c0-0.1,0-0.2,0-0.2
			c0-0.1,0-0.1,0-0.2c0-0.1,0-0.1,0-0.2c0-0.1,0-0.1,0-0.2c0-0.1,0-0.1,0-0.1c0-0.1,0-0.1,0.1-0.2
			C140.2,253.4,140.3,253.3,140.4,253.3C140.5,253.2,140.3,253.3,140.4,253.3z"/>
		<path fill="#020202" d="M199.5,270.8c0.1,0,0.1,0.1,0.1,0.2c0,0.1,0.1,0.1,0.1,0.2c0,0.2,0.1,0.6,0.1,0.8c0,0.1,0,0.2,0,0.3
			c0,0.3,0.1,0.5,0,0.8c0.2,1.2,0.1,2.6,0,3.8c0,0.7,0,1.3,0,2c-0.1,0.9,0,1.9,0,2.8c-0.2,1.4,0,2.9,0,4.4c0,0.5,0.1,1,0,1.5
			c0,0.5,0.1,1,0.1,1.5c0,0.2,0,0.5,0,0.7c0,0.5,0.1,1,0.1,1.4c0,0.2,0.1,0.5,0.1,0.7c0,0.5,0.1,0.9,0.1,1.4c0,0.2,0.1,0.4,0.1,0.7
			c0,0.4,0.1,0.8,0.1,1.2c0,0.2,0,0.4,0,0.6c0,0.2,0.1,0.4,0.1,0.6c0,0.2,0,0.3,0,0.5c0,0.2,0,0.3,0,0.5c0,0.2,0,0.3,0,0.5
			c0,0.3,0.1,0.6,0.1,0.9c0,0.4,0.1,0.8,0,1.2c0,0.1,0,0.2,0,0.2c0,0.1,0,0.1,0,0.2c0,0-0.1,0.1-0.1,0.1c0,0,0,0-0.1,0
			c-0.1,0-0.1,0-0.2,0c-0.2,0-0.5,0.1-0.7,0.1c-0.2,0-0.3,0-0.5,0c-0.4,0-0.8,0.1-1.2,0c-1.6,0.2-3.4,0.2-5,0c-0.4,0-0.9,0-1.3,0
			c-0.2,0-0.4,0-0.6,0c-0.2,0-0.3,0-0.5,0c-0.1,0-0.3,0-0.4,0c-0.1,0-0.2-0.1-0.3-0.1c-0.1,0-0.1,0-0.2,0c-0.1-0.1-0.2-0.1-0.4-0.2
			c-0.2-0.1-0.3-0.2-0.3-0.5c-0.1-0.2-0.1-0.4,0-0.6c0.1-0.4,0.1-0.7,0-1c0-0.1-0.1,0-0.2,0.3c-0.1,0.1-0.1,0.2-0.2,0.3
			c-0.1,0.1-0.2,0.2-0.3,0.2c-0.3,0.3-0.6,0.5-1,0.7c-0.1,0.1-0.3,0.1-0.4,0.2c-0.1,0.1-0.2,0.1-0.4,0.2c-0.3,0.2-0.5,0.3-0.8,0.3
			c-0.1,0.1-0.3,0.1-0.4,0.2c-0.2,0-0.3,0.1-0.5,0.1c-0.5,0.1-0.9,0.2-1.4,0.2c-0.1,0-0.3,0-0.5,0c-0.5,0-1,0-1.5,0
			c-0.5,0-1-0.1-1.5-0.2c-0.2-0.1-0.3-0.1-0.5-0.1c-0.3-0.1-0.7-0.2-1-0.3c-0.2-0.1-0.3-0.2-0.5-0.2c-0.2-0.1-0.3-0.2-0.5-0.2
			c-0.3-0.1-0.7-0.3-1-0.5c-0.2-0.1-0.3-0.2-0.5-0.3c-0.2-0.1-0.3-0.2-0.5-0.3c-0.4-0.4-0.9-0.8-1.3-1.2c-0.3-0.3-0.5-0.6-0.7-0.9
			c-0.2-0.4-0.4-0.7-0.7-1.1c-0.1-0.2-0.2-0.4-0.3-0.6c-0.3-0.5-0.5-1.1-0.8-1.7c-0.1-0.2-0.1-0.4-0.2-0.6c-0.1-0.2-0.1-0.4-0.2-0.6
			c-0.2-0.4-0.3-0.8-0.3-1.2c-0.1-0.2-0.1-0.4-0.2-0.7c0-0.2-0.1-0.4-0.1-0.6c-0.1-0.8-0.2-1.7-0.3-2.5c0-0.2,0-0.4,0-0.6
			c0-0.2,0-0.4,0-0.6c0-0.4,0-0.8,0-1.3c0-0.2,0-0.4,0-0.6c0-0.4,0-0.8,0-1.2c0-0.2,0-0.4,0-0.6c0-0.2,0-0.4,0-0.6
			c0-0.2,0.1-0.4,0.1-0.6c0-1.2,0.3-2.6,0.5-3.8c0.1-0.3,0.2-0.7,0.2-1c0.1-0.3,0.2-0.6,0.2-0.9c0-0.1,0.1-0.3,0.1-0.5
			c0-0.1,0.1-0.2,0.1-0.4c0.1-0.1,0.1-0.3,0.1-0.4c0.1-0.2,0.2-0.5,0.2-0.7c0-0.1,0.1-0.2,0.1-0.3c0-0.1,0.1-0.2,0.1-0.3
			c0-0.1,0.1-0.2,0.1-0.3c0.1-0.1,0.1-0.2,0.1-0.2c0-0.1,0.1-0.1,0.1-0.2c0-0.1,0.1-0.1,0.1-0.2c0-0.1,0.1-0.1,0.1-0.2
			c0,0,0.1-0.1,0.1-0.1c0.1-0.1,0.2-0.2,0.2-0.2c0.4-0.1,0.9-0.2,1.3-0.2c0.2,0,0.4,0,0.6,0c0.2,0,0.4,0,0.7,0c0.2,0,0.4,0,0.7,0
			c0.9,0,1.8-0.1,2.7,0c0.2,0,0.4,0,0.6,0c0.2,0,0.3,0,0.5,0c0.1,0,0.3,0.1,0.4,0.1c0.1,0,0.2,0,0.3,0c0.1,0,0.1,0.1,0.2,0.1
			c0,0.3,0,0.5,0,0.8c0,0.1,0,0.2,0,0.3c0,0.1,0,0.2,0,0.3c0,0.1,0,0.3,0,0.4c0,0.3-0.1,0.6-0.1,0.9c-0.1,0.3-0.1,0.6-0.1,0.9
			c-0.1,0.4-0.1,0.7-0.1,1.1c0,0.2-0.1,0.4-0.1,0.6c0,0.4-0.1,0.8-0.1,1.2c0,0.2-0.1,0.4-0.1,0.6c0,0.2,0,0.4,0,0.6
			c0,0.2,0,0.4,0,0.6c0,0.4-0.1,0.8,0,1.3c0,0.4-0.1,0.9,0,1.3c0,0.4,0.1,0.8,0.1,1.3c0,0.2,0,0.4,0,0.6c0,0.6,0.1,1.2,0.2,1.8
			c0,0.2,0.1,0.4,0.1,0.6c0.2,0.7,0.3,1.4,0.7,2c0.2,0.4,0.5,0.9,0.8,1.2c0.2,0.2,0.4,0.5,0.7,0.6c0.4,0.3,0.8,0.4,1.2,0.6
			c0.3,0.1,0.7,0.1,1,0.2c0.1,0,0.3,0,0.5,0c0.1,0,0.3,0,0.4,0c0.3-0.1,0.5-0.2,0.8-0.3c0.4-0.2,0.7-0.5,1-0.9
			c0.1-0.1,0.2-0.3,0.3-0.4c0.1-0.1,0.2-0.3,0.3-0.4c0.1-0.2,0.2-0.3,0.2-0.5c0.2-0.5,0.4-1,0.6-1.6c0.1-0.2,0.2-0.4,0.2-0.6
			c0.1-0.4,0.2-0.8,0.3-1.2c0-0.2,0.1-0.4,0.1-0.7c0-0.4,0.1-0.9,0.2-1.3c0.1-0.5,0.1-0.9,0.1-1.4c0.1-0.4,0.1-0.9,0.1-1.4
			c0-0.2,0-0.5,0-0.7c0-0.2,0-0.4,0-0.7c0-0.4,0.1-0.9,0.1-1.3c0-0.4,0-0.8,0-1.3c0-0.7,0-1.4,0-2.2c0.1-0.6-0.1-1.3,0.1-2
			c0-0.2,0-0.3,0-0.5c0-0.1,0-0.1,0-0.2c0,0,0-0.1,0-0.1c0.1,0,0.1-0.1,0.1-0.1c0.1,0,0.2,0,0.3,0c0.3-0.1,0.6-0.1,0.9-0.2
			c0.4,0,0.8-0.1,1.2-0.1c0.2,0,0.5,0,0.7,0c0.5,0,1-0.1,1.5-0.1c0.7,0,1.4,0,2.1,0c0.5,0.1,1.2,0.1,1.7,0.1c0.1,0,0.2,0.1,0.4,0.1
			C199.4,270.8,199.5,270.8,199.5,270.8C199.6,270.9,199.5,270.8,199.5,270.8z"/>
		<path fill="#020202" d="M213.1,251.7c0.4,0.1,0.7,0.3,1,0.5c0.1,0.1,0.3,0.2,0.5,0.3c0.1,0.1,0.3,0.2,0.4,0.3
			c0.1,0.1,0.3,0.2,0.4,0.3c0.5,0.4,0.9,1.1,1.2,1.6c0.1,0.1,0.2,0.3,0.2,0.5c0.1,0.1,0.1,0.3,0.2,0.5c0.1,0.2,0.1,0.3,0.2,0.5
			c0.2,0.6,0.2,1.3,0.2,2c0,0.2,0,0.3,0,0.5c0,0.2-0.1,0.3-0.1,0.5c-0.1,0.5-0.2,1.1-0.5,1.5c-0.1,0.2-0.2,0.3-0.2,0.5
			c-0.1,0.2-0.2,0.3-0.3,0.5c-0.2,0.3-0.4,0.6-0.6,0.8c-0.4,0.3-0.7,0.7-1.2,1c-0.1,0.1-0.3,0.2-0.5,0.3c-0.1,0.1-0.3,0.2-0.5,0.2
			c-0.1,0.1-0.3,0.2-0.5,0.2c-0.8,0.3-1.7,0.6-2.6,0.6c-0.2,0-0.4,0-0.6,0c-0.2,0-0.3,0-0.5,0c-0.6-0.1-1.1-0.1-1.7-0.4
			c-0.2-0.1-0.4-0.1-0.5-0.2c-0.2-0.1-0.3-0.2-0.5-0.3c-0.1-0.1-0.3-0.2-0.4-0.3c-0.1-0.1-0.3-0.2-0.4-0.4c-0.3-0.3-0.5-0.5-0.7-0.9
			c-0.5-0.7-0.9-1.7-1-2.5c-0.1-0.2-0.1-0.4-0.1-0.5c0-0.2-0.1-0.4-0.1-0.5c0-0.4,0-0.7,0-1.1c0-0.2,0-0.3,0-0.5
			c0-0.2,0.1-0.3,0.1-0.5c0.1-0.3,0.2-0.6,0.3-0.9c0.1-0.2,0.1-0.3,0.2-0.5c0.1-0.3,0.3-0.6,0.5-0.9c0.1-0.2,0.2-0.3,0.3-0.4
			c0.1-0.1,0.2-0.3,0.3-0.4c0.1-0.1,0.2-0.2,0.4-0.4c0.3-0.2,0.5-0.4,0.8-0.6c0.1-0.1,0.3-0.2,0.5-0.3c0.1-0.1,0.3-0.2,0.5-0.2
			c0.4-0.3,1-0.4,1.5-0.5c0.3-0.1,0.7-0.1,1-0.1C211.3,251.1,212.3,251.3,213.1,251.7C213.3,251.7,212.9,251.6,213.1,251.7z
			 M206.3,271c0,0,0,0.1,0,0.1c0,0.1-0.1,0.2-0.1,0.4c0,0.1-0.1,0.2-0.1,0.2c0,0.1,0,0.2,0,0.3c0,0.1,0,0.2,0,0.3
			c-0.1,0.3-0.1,0.5-0.1,0.8c-0.1,0.3-0.1,0.6-0.1,0.9c-0.1,0.3-0.1,0.7-0.2,1c0,0.6-0.2,1.2-0.2,1.8c-0.1,0.4-0.1,0.8-0.2,1.3
			c0,0.7-0.2,1.4-0.2,2.1c-0.1,0.5-0.1,1-0.1,1.4c-0.1,0.5-0.1,1-0.1,1.5c0,0.2-0.1,0.5-0.1,0.7c0,0.5-0.1,1-0.1,1.5
			c0,0.3-0.1,0.5-0.1,0.8c0,0.2,0,0.5,0,0.7c0,0.5-0.1,1-0.1,1.5c0,0.5-0.1,1-0.1,1.5c0,0.2,0,0.5,0,0.7c0,0.2,0,0.5,0,0.7
			c0,0.2,0,0.5,0,0.7c-0.1,0.6,0,1.3-0.1,1.9c0,1.1-0.1,2.2,0,3.3c0,0.3,0,0.6,0,0.9c0,0.1,0,0.2,0,0.4c0,0.1,0,0.2,0,0.3
			c0,0.1,0,0.2,0,0.3c0,0.1,0,0.2,0,0.2c0,0.1,0.1,0.2,0.1,0.2c0,0.2,0.1,0.3,0.2,0.4c0.1,0,0.2,0.1,0.2,0.1
			c0.2,0.1,0.5,0.2,0.7,0.2c0.3,0.1,0.7,0.1,1,0.1c0.2,0,0.4,0.1,0.6,0.1c0.2,0,0.4,0,0.6,0c0.2,0,0.4,0,0.7,0c0.2,0,0.4,0,0.7,0
			c0.5,0,0.9,0,1.4,0c0.5,0,0.9,0.1,1.4,0c0.6-0.1,1.3,0,1.9-0.1c0.2,0,0.4,0,0.6,0c0.2,0,0.3,0,0.5,0c0.3,0,0.6,0,0.9-0.1
			c0.2,0,0.4-0.1,0.6-0.2c0.1,0,0.1,0,0.1,0c0.1,0,0.1-0.1,0.1-0.1c0-0.1,0-0.1,0-0.2c0.1-0.2,0.2-0.5,0.2-0.7
			c0-0.1,0.1-0.2,0.1-0.3c0-0.1,0-0.2,0-0.4c0-0.1,0-0.3,0-0.4c0-0.2,0-0.3,0-0.5c0-0.1,0-0.3,0-0.5c0-0.2,0-0.3,0-0.5
			c0-0.4,0.1-0.7,0.1-1.1c0-0.8-0.1-1.6,0-2.4c0-0.4,0-0.9,0-1.3c0-0.9,0.1-1.9,0-2.8c0-0.5,0-1,0-1.5c0-0.2,0-0.5,0-0.7
			c0-0.5-0.1-1-0.1-1.5c0-0.2,0-0.5,0-0.8c0-0.2,0-0.5,0-0.7c0-0.2,0-0.5,0-0.7c0-0.2,0-0.5,0-0.7c0-0.2,0-0.5,0-0.7
			c0-0.2,0-0.5,0-0.7c0-0.2,0-0.5,0-0.7c0-0.2,0-0.5,0-0.7c0-0.2-0.1-0.4-0.1-0.7c0-0.2,0-0.4,0-0.7c0-0.2,0-0.4,0-0.7
			c0-0.4-0.1-0.8-0.1-1.2c0-0.2-0.1-0.4-0.1-0.6c0-0.2,0-0.4,0-0.6c0-0.3-0.1-0.7-0.1-1c0-0.1-0.1-0.3-0.1-0.5c0-0.1,0-0.3,0-0.4
			c0-0.3-0.1-0.5-0.1-0.8c0-0.1,0-0.2,0-0.3c0-0.1-0.1-0.2-0.1-0.3c0-0.1,0-0.2,0-0.2c0-0.1,0-0.1,0-0.2c0-0.1-0.1-0.2-0.1-0.2l0,0
			c-0.1-0.1-0.1-0.1-0.2-0.1c-0.7-0.3-1.6-0.3-2.4-0.5c-0.2,0-0.5,0-0.7,0c-0.2,0-0.4,0-0.7,0c-0.2,0-0.5,0-0.7,0
			c-0.7-0.1-1.4-0.1-2.1,0c-0.2,0-0.4,0-0.6,0c-0.5,0-1.4,0-1.8,0.3C206.5,270.8,206.5,270.9,206.3,271
			C206.4,271,206.4,271,206.3,271C206.3,271,206.4,271,206.3,271z"/>
	</g>
</g>
<g>
	<path fill="#F1CC5A" d="M297.4,318.5h-66.1c-5.5,0-10-4.5-10-10v-55.2c0-5.5,4.5-10,10-10h66.1c5.5,0,10,4.5,10,10v55.2
		C307.4,314,302.9,318.5,297.4,318.5z"/>
	<path fill="#FFEDBB" d="M292.5,312.1h-56.3c-5.5,0-10-4.5-10-10v-42.2c0-5.5,4.5-10,10-10h56.3c5.5,0,10,4.5,10,10v42.2
		C302.5,307.6,298,312.1,292.5,312.1z"/>
</g>
<image overflow="visible" width="1500" height="1500" xlink:href="../../../Desenhos Jogo Yegatu/png2/apukuita.png"  transform="matrix(0.202 0 0 0.202 7.5867 -34.3855)">
</image>
</svg>
