<?xml version="1.0" encoding="utf-8"?>
<!-- Generator: Adobe Illustrator 18.0.0, SVG Export Plug-In . SVG Version: 6.00 Build 0)  -->
<!DOCTYPE svg PUBLIC "-//W3C//DTD SVG 1.0//EN" "http://www.w3.org/TR/2001/REC-SVG-20010904/DTD/svg10.dtd">
<svg version="1.0" id="Camada_1" xmlns="http://www.w3.org/2000/svg" xmlns:xlink="http://www.w3.org/1999/xlink" x="0px" y="0px"
	 viewBox="0 0 339.8 331.2" enable-background="new 0 0 339.8 331.2" xml:space="preserve">
<image overflow="visible" width="1500" height="1500" xlink:href="../../../Desenhos Jogo Yegatu/png2/bakubi.png"  transform="matrix(0.234 0 0 0.234 -7.4935 -40.4979)">
</image>
<g>
	<path fill="#F1CC5A" d="M138.1,318.5H72c-5.5,0-10-4.5-10-10v-55.2c0-5.5,4.5-10,10-10h66.1c5.5,0,10,4.5,10,10v55.2
		C148.1,314,143.6,318.5,138.1,318.5z"/>
	<path fill="#FFEDBB" d="M133.2,312.1H76.9c-5.5,0-10-4.5-10-10v-42.2c0-5.5,4.5-10,10-10h56.3c5.5,0,10,4.5,10,10v42.2
		C143.2,307.6,138.7,312.1,133.2,312.1z"/>
</g>
<g>
	<g>
		<path fill="#020202" d="M155.4,253.3c0.1-0.1,0.2-0.2,0.3-0.2c0.1-0.1,0.3-0.1,0.4-0.2c0.3-0.1,0.6-0.2,1-0.2
			c0.8-0.2,1.6-0.3,2.4-0.4c0.2,0,0.4,0,0.7,0c0.2,0,0.5,0,0.7,0c0.7-0.1,1.4-0.1,2.1,0c0.2,0,0.4,0,0.7,0c0.2,0,0.4,0,0.6,0
			c0.2,0,0.4,0,0.6,0c0.6,0.1,1.2,0.2,1.8,0.3c0.2,0.1,0.3,0.1,0.5,0.2c0.1,0,0.1,0.1,0.1,0.1c0,0,0.1,0.1,0.1,0.1
			c0.1,0.1,0.1,0.2,0.2,0.3c0,0.1,0,0.2,0,0.2c0,0.1,0,0.2,0,0.2c0,0.1,0,0.2,0,0.2c0.2,0.5,0,1.2,0,1.8c0,0.2-0.1,0.5-0.1,0.7
			c0,0.1,0,0.3,0,0.4c0,0.3-0.1,0.6-0.1,0.9c-0.1,0.3-0.1,0.6-0.2,0.9c0,0.7-0.2,1.3-0.3,2c-0.2,0.5-0.2,1-0.3,1.6
			c-0.1,0.4-0.2,0.7-0.2,1.1c-0.1,0.4-0.2,0.8-0.2,1.1c0,0.2-0.1,0.4-0.1,0.6c-0.1,0.4-0.2,0.8-0.2,1.2c0,0.2-0.1,0.4-0.1,0.6
			c-0.1,0.4-0.2,0.8-0.2,1.2c0,0.2-0.1,0.4-0.1,0.7c-0.1,0.4-0.2,0.8-0.2,1.3c0,0.4-0.1,0.9-0.2,1.3c0,0.4-0.1,0.9-0.2,1.3
			c-0.2,1.4-0.3,2.7-0.5,4.1c0,0.5-0.1,0.9-0.1,1.4c0,0.2,0,0.5,0,0.7c0,0.5-0.1,0.9-0.1,1.4c-0.1,0.4-0.2,0.6,0,0.7
			c0.1,0.1,0.3-0.1,0.5-0.4c0.1-0.2,0.3-0.3,0.5-0.4c0.2-0.2,0.3-0.3,0.5-0.5c0.5-0.4,1-0.9,1.5-1.4c0.9-1,1.7-2,2.5-3.1
			c0.2-0.3,0.5-0.6,0.7-0.9c0.1-0.2,0.2-0.3,0.3-0.5c0.1-0.1,0.2-0.3,0.3-0.5c0.1-0.1,0.2-0.2,0.3-0.4c0.3-0.4,0.6-0.8,0.9-1.3
			c0.1-0.1,0.1-0.1,0.2-0.2c0.1-0.1,0.1-0.1,0.2-0.2c0.1,0,0.1-0.1,0.1-0.1c0,0,0.1,0,0.1,0c0.1,0,0.2-0.1,0.3-0.1
			c1.2,0,2.4,0.2,3.6,0.5c0.2,0,0.4,0.1,0.6,0.1c0.4,0.1,0.9,0.3,1.3,0.4c0.2,0.1,0.4,0.1,0.7,0.2c0.4,0.1,0.9,0.3,1.3,0.5
			c0.6,0.2,1.2,0.5,1.7,0.7c0.3,0.1,0.6,0.3,0.9,0.5c0.1,0.1,0.2,0.2,0.4,0.2c0.1,0.1,0.2,0.1,0.3,0.2c0.1,0.1,0.2,0.1,0.2,0.2
			c0.1,0.1,0.1,0.1,0.2,0.2c0,0.1,0.1,0.2,0,0.3c-0.1,0.1-0.1,0.3-0.2,0.4c-0.1,0.1-0.1,0.1-0.1,0.2c-0.1,0.1-0.1,0.2-0.2,0.2
			c-0.1,0.1-0.1,0.2-0.2,0.3c-0.2,0.2-0.3,0.4-0.5,0.6c-0.1,0.1-0.2,0.2-0.3,0.3c-0.3,0.4-0.7,0.8-1.1,1.1c-0.1,0.1-0.3,0.3-0.4,0.4
			c-0.1,0.1-0.3,0.2-0.4,0.4c-0.2,0.1-0.3,0.3-0.5,0.4c-0.2,0.1-0.3,0.3-0.5,0.4c-0.2,0.1-0.3,0.3-0.5,0.4c-0.5,0.4-1,0.9-1.5,1.2
			c-0.2,0.1-0.3,0.3-0.5,0.4c-0.5,0.4-1.1,0.8-1.6,1.2c-0.2,0.1-0.3,0.2-0.5,0.4c-0.2,0.1-0.3,0.2-0.5,0.3c-0.3,0.3-0.7,0.5-1.1,0.7
			c-0.2,0.1-0.3,0.2-0.5,0.3c-0.2,0.1-0.3,0.2-0.5,0.3c-0.2,0.1-0.3,0.2-0.5,0.3c-0.2,0.1-0.4,0.1-0.5,0.2c-0.1,0.1,0.1,0.1,0.3,0.1
			c0.1,0,0.3,0.1,0.4,0.2c0.1,0.1,0.3,0.1,0.4,0.2c0.1,0.1,0.3,0.1,0.5,0.2c0.3,0.2,0.6,0.3,1,0.5c0.2,0.1,0.4,0.2,0.5,0.3
			c0.2,0.1,0.3,0.2,0.5,0.3c0.2,0.1,0.4,0.2,0.5,0.3c0.4,0.2,0.8,0.4,1.2,0.7c0.4,0.2,0.8,0.5,1.2,0.7c0.2,0.1,0.4,0.2,0.6,0.4
			c0.2,0.1,0.4,0.2,0.6,0.4c0.4,0.2,0.8,0.5,1.1,0.7c0.2,0.1,0.4,0.3,0.6,0.4c0.2,0.1,0.3,0.2,0.5,0.4c0.2,0.1,0.3,0.2,0.5,0.4
			c0.2,0.1,0.3,0.2,0.5,0.4c0.2,0.1,0.3,0.2,0.5,0.4c0.1,0.1,0.3,0.2,0.5,0.3c0.1,0.1,0.3,0.2,0.4,0.4c0.1,0.1,0.2,0.2,0.4,0.3
			c0.4,0.3,0.8,0.7,1.2,1.1c0.1,0.1,0.2,0.3,0.3,0.5c0,0.1,0.1,0.1,0.1,0.2c0,0.3-0.1,0.4-0.2,0.7c-0.1,0.1-0.2,0.2-0.2,0.2
			c-0.1,0.1-0.2,0.2-0.3,0.3c-0.4,0.4-0.9,0.7-1.4,1c-0.6,0.3-1.2,0.7-1.8,1c-0.2,0.1-0.4,0.2-0.7,0.3c-0.7,0.2-1.3,0.6-1.9,0.9
			c-0.4,0.2-0.9,0.4-1.3,0.5c-0.2,0.1-0.4,0.1-0.6,0.2c-0.2,0.1-0.3,0.1-0.5,0.2c-0.2,0.1-0.3,0.1-0.5,0.1c-0.4,0.1-0.9,0.3-1.3,0.2
			c-0.1,0-0.1,0-0.2,0c-0.1,0-0.2-0.1-0.2-0.1c-0.1-0.1-0.2-0.1-0.2-0.2c-0.1-0.1-0.2-0.2-0.2-0.2c-0.2-0.2-0.3-0.4-0.5-0.6
			c-0.2-0.2-0.5-0.5-0.7-0.7c-0.2-0.3-0.5-0.5-0.7-0.8c-0.1-0.1-0.2-0.3-0.4-0.4c-0.1-0.2-0.3-0.3-0.4-0.5c-0.1-0.2-0.3-0.3-0.4-0.5
			c-0.1-0.2-0.3-0.3-0.4-0.5c-0.2-0.2-0.3-0.3-0.5-0.5c-0.1-0.1-0.3-0.3-0.5-0.5c-0.2-0.1-0.3-0.3-0.5-0.5c-0.1-0.1-0.3-0.3-0.5-0.5
			c-0.3-0.3-0.7-0.6-1-0.8c-0.3-0.3-0.7-0.6-1-0.8c-0.3-0.2-0.7-0.4-1.1-0.6c-0.2-0.1-0.4-0.2-0.6-0.3c-0.3-0.2-0.5-0.3-0.5-0.2
			c-0.1,0.1-0.1,0.3,0,0.7c0.1,0.2,0.1,0.4,0.1,0.7c0,0.4,0.1,0.9,0.2,1.3c0,0.2,0.1,0.4,0.1,0.7c0,0.2,0.1,0.4,0.1,0.6
			c0,0.2,0.1,0.4,0.1,0.6c0,0.2,0.1,0.4,0.1,0.6c0,0.2,0.1,0.3,0.1,0.5c0.1,0.7,0.2,1.4,0.2,2.1c0,0.1-0.1,0.2-0.1,0.2
			c-0.1,0.1-0.2,0.2-0.3,0.2c-0.6,0.2-1.2,0.3-1.8,0.3c-0.2,0-0.4,0.1-0.6,0.1c-0.2,0-0.4,0-0.7,0c-0.2,0-0.5,0-0.7,0
			c-1.4,0.1-3,0.2-4.3,0c-0.2,0-0.4,0-0.6,0c-0.2,0-0.4,0-0.5,0c-0.1,0-0.3-0.1-0.5-0.1c-0.1,0-0.2,0-0.3,0c-0.1,0-0.2-0.1-0.2-0.1
			c-0.1,0-0.1,0-0.1-0.1c0,0,0-0.1,0-0.1c-0.1-0.1,0-0.4,0-0.6c-0.1-0.3,0-0.7,0-1c-0.1-0.4,0-0.9,0-1.4c-0.1-0.6,0-1.2-0.1-1.8
			c0-0.7,0.1-1.4,0-2.1c0-0.8,0.1-1.6,0-2.4c0-0.9,0.1-1.7,0-2.6c0-1.2,0.1-2.3,0-3.5c0-1.5,0-3,0-4.4c-0.4-3.9,0-8,0-11.9
			c0.2-1.4-0.1-2.7,0.1-4.1c0-0.6,0-1.3,0-1.9c0.1-0.6,0-1.1,0.1-1.7c0-0.4,0-0.7,0-1.1c0-0.3,0.1-0.7,0-1c0-0.3,0.1-0.6,0-0.9
			c0-0.3,0.1-0.5,0.1-0.8c0-0.3,0-0.5,0-0.8c0-0.1,0-0.2,0-0.4c0-0.1,0-0.2,0-0.3c0-0.2,0-0.4,0.1-0.6c0-0.1,0-0.2,0-0.2
			c0-0.1,0-0.1,0-0.2c0-0.1,0-0.1,0-0.2c0-0.1,0-0.1,0-0.2c0-0.1,0-0.1,0-0.1c0-0.1,0-0.1,0.1-0.2
			C155.3,253.4,155.3,253.3,155.4,253.3C155.5,253.2,155.3,253.3,155.4,253.3z"/>
		<path fill="#020202" d="M214.6,270.8c0.1,0,0.1,0.1,0.1,0.2c0,0.1,0.1,0.1,0.1,0.2c0,0.2,0.1,0.6,0.1,0.8c0,0.1,0,0.2,0,0.3
			c0,0.3,0.1,0.5,0,0.8c0.2,1.2,0.1,2.6,0,3.8c0,0.7,0,1.3,0,2c-0.1,0.9,0,1.9,0,2.8c-0.2,1.4,0,2.9,0,4.4c0,0.5,0.1,1,0,1.5
			c0,0.5,0.1,1,0.1,1.5c0,0.2,0,0.5,0,0.7c0,0.5,0.1,1,0.1,1.4c0,0.2,0.1,0.5,0.1,0.7c0,0.5,0.1,0.9,0.1,1.4c0,0.2,0.1,0.4,0.1,0.7
			c0,0.4,0.1,0.8,0.1,1.2c0,0.2,0,0.4,0,0.6c0,0.2,0.1,0.4,0.1,0.6c0,0.2,0,0.3,0,0.5c0,0.2,0,0.3,0,0.5c0,0.2,0,0.3,0,0.5
			c0,0.3,0.1,0.6,0.1,0.9c0,0.4,0.1,0.8,0,1.2c0,0.1,0,0.2,0,0.2c0,0.1,0,0.1,0,0.2c0,0-0.1,0.1-0.1,0.1c0,0,0,0-0.1,0
			c-0.1,0-0.1,0-0.2,0c-0.2,0-0.5,0.1-0.7,0.1c-0.2,0-0.3,0-0.5,0c-0.4,0-0.8,0.1-1.2,0c-1.6,0.2-3.4,0.2-5,0c-0.4,0-0.9,0-1.3,0
			c-0.2,0-0.4,0-0.6,0c-0.2,0-0.3,0-0.5,0c-0.1,0-0.3,0-0.4,0c-0.1,0-0.2-0.1-0.3-0.1c-0.1,0-0.1,0-0.2,0c-0.1-0.1-0.2-0.1-0.4-0.2
			c-0.2-0.1-0.3-0.2-0.3-0.5c-0.1-0.2-0.1-0.4,0-0.6c0.1-0.4,0.1-0.7,0-1c0-0.1-0.1,0-0.2,0.3c-0.1,0.1-0.1,0.2-0.2,0.3
			c-0.1,0.1-0.2,0.2-0.3,0.2c-0.3,0.3-0.6,0.5-1,0.7c-0.1,0.1-0.3,0.1-0.4,0.2c-0.1,0.1-0.2,0.1-0.4,0.2c-0.3,0.2-0.5,0.3-0.8,0.3
			c-0.1,0.1-0.3,0.1-0.4,0.2c-0.2,0-0.3,0.1-0.5,0.1c-0.5,0.1-0.9,0.2-1.4,0.2c-0.1,0-0.3,0-0.5,0c-0.5,0-1,0-1.5,0
			c-0.5,0-1-0.1-1.5-0.2c-0.2-0.1-0.3-0.1-0.5-0.1c-0.3-0.1-0.7-0.2-1-0.3c-0.2-0.1-0.3-0.2-0.5-0.2c-0.2-0.1-0.3-0.2-0.5-0.2
			c-0.3-0.1-0.7-0.3-1-0.5c-0.2-0.1-0.3-0.2-0.5-0.3c-0.2-0.1-0.3-0.2-0.5-0.3c-0.4-0.4-0.9-0.8-1.3-1.2c-0.3-0.3-0.5-0.6-0.7-0.9
			c-0.2-0.4-0.4-0.7-0.7-1.1c-0.1-0.2-0.2-0.4-0.3-0.6c-0.3-0.5-0.5-1.1-0.8-1.7c-0.1-0.2-0.1-0.4-0.2-0.6c-0.1-0.2-0.1-0.4-0.2-0.6
			c-0.2-0.4-0.3-0.8-0.3-1.2c-0.1-0.2-0.1-0.4-0.2-0.7c0-0.2-0.1-0.4-0.1-0.6c-0.1-0.8-0.2-1.7-0.3-2.5c0-0.2,0-0.4,0-0.6
			c0-0.2,0-0.4,0-0.6c0-0.4,0-0.8,0-1.3c0-0.2,0-0.4,0-0.6c0-0.4,0-0.8,0-1.2c0-0.2,0-0.4,0-0.6c0-0.2,0-0.4,0-0.6
			c0-0.2,0.1-0.4,0.1-0.6c0-1.2,0.3-2.6,0.5-3.8c0.1-0.3,0.2-0.7,0.2-1c0.1-0.3,0.2-0.6,0.2-0.9c0-0.1,0.1-0.3,0.1-0.5
			c0-0.1,0.1-0.2,0.1-0.4c0.1-0.1,0.1-0.3,0.1-0.4c0.1-0.2,0.2-0.5,0.2-0.7c0-0.1,0.1-0.2,0.1-0.3c0-0.1,0.1-0.2,0.1-0.3
			c0-0.1,0.1-0.2,0.1-0.3c0.1-0.1,0.1-0.2,0.1-0.2c0-0.1,0.1-0.1,0.1-0.2c0-0.1,0.1-0.1,0.1-0.2c0-0.1,0.1-0.1,0.1-0.2
			c0,0,0.1-0.1,0.1-0.1c0.1-0.1,0.2-0.2,0.2-0.2c0.4-0.1,0.9-0.2,1.3-0.2c0.2,0,0.4,0,0.6,0c0.2,0,0.4,0,0.7,0c0.2,0,0.4,0,0.7,0
			c0.9,0,1.8-0.1,2.7,0c0.2,0,0.4,0,0.6,0c0.2,0,0.3,0,0.5,0c0.1,0,0.3,0.1,0.4,0.1c0.1,0,0.2,0,0.3,0c0.1,0,0.1,0.1,0.2,0.1
			c0,0.3,0,0.5,0,0.8c0,0.1,0,0.2,0,0.3c0,0.1,0,0.2,0,0.3c0,0.1,0,0.3,0,0.4c0,0.3-0.1,0.6-0.1,0.9c-0.1,0.3-0.1,0.6-0.1,0.9
			c-0.1,0.4-0.1,0.7-0.1,1.1c0,0.2-0.1,0.4-0.1,0.6c0,0.4-0.1,0.8-0.1,1.2c0,0.2-0.1,0.4-0.1,0.6c0,0.2,0,0.4,0,0.6
			c0,0.2,0,0.4,0,0.6c0,0.4-0.1,0.8,0,1.3c0,0.4-0.1,0.9,0,1.3c0,0.4,0.1,0.8,0.1,1.3c0,0.2,0,0.4,0,0.6c0,0.6,0.1,1.2,0.2,1.8
			c0,0.2,0.1,0.4,0.1,0.6c0.2,0.7,0.3,1.4,0.7,2c0.2,0.4,0.5,0.9,0.8,1.2c0.2,0.2,0.4,0.5,0.7,0.6c0.4,0.3,0.8,0.4,1.2,0.6
			c0.3,0.1,0.7,0.1,1,0.2c0.1,0,0.3,0,0.5,0c0.1,0,0.3,0,0.4,0c0.3-0.1,0.5-0.2,0.8-0.3c0.4-0.2,0.7-0.5,1-0.9
			c0.1-0.1,0.2-0.3,0.3-0.4c0.1-0.1,0.2-0.3,0.3-0.4c0.1-0.2,0.2-0.3,0.2-0.5c0.2-0.5,0.4-1,0.6-1.6c0.1-0.2,0.2-0.4,0.2-0.6
			c0.1-0.4,0.2-0.8,0.3-1.2c0-0.2,0.1-0.4,0.1-0.7c0-0.4,0.1-0.9,0.2-1.3c0.1-0.5,0.1-0.9,0.1-1.4c0.1-0.4,0.1-0.9,0.1-1.4
			c0-0.2,0-0.5,0-0.7c0-0.2,0-0.4,0-0.7c0-0.4,0.1-0.9,0.1-1.3c0-0.4,0-0.8,0-1.3c0-0.7,0-1.4,0-2.2c0.1-0.6-0.1-1.3,0.1-2
			c0-0.2,0-0.3,0-0.5c0-0.1,0-0.1,0-0.2c0,0,0-0.1,0-0.1c0.1,0,0.1-0.1,0.1-0.1c0.1,0,0.2,0,0.3,0c0.3-0.1,0.6-0.1,0.9-0.2
			c0.4,0,0.8-0.1,1.2-0.1c0.2,0,0.5,0,0.7,0c0.5,0,1-0.1,1.5-0.1c0.7,0,1.4,0,2.1,0c0.5,0.1,1.2,0.1,1.7,0.1c0.1,0,0.2,0.1,0.4,0.1
			C214.4,270.8,214.5,270.8,214.6,270.8C214.6,270.9,214.5,270.8,214.6,270.8z"/>
		<path fill="#020202" d="M229.7,253.1C229.7,253.1,229.8,253.1,229.7,253.1c0.1,0.1,0.2,0.1,0.2,0.1c0,0.1,0.1,0.1,0.1,0.2
			c0.1,0.1,0.1,0.1,0.1,0.2c0.1,0.2,0.1,0.3,0.2,0.5c0.3,1,0.6,2.3,0.6,3.3c0.1,0.4,0.1,0.7,0.1,1.1c0.1,0.4,0.1,0.8,0.1,1.1
			c0,0.2,0.1,0.4,0.1,0.6c0,0.2,0,0.4,0,0.6c0,0.4,0.1,0.9,0.1,1.3c0,0.2,0,0.4,0,0.7c0,0.2,0,0.4,0,0.7c0,0.2,0,0.4,0,0.7
			c0,0.2,0,0.4,0,0.7c0,0.2,0,0.5,0,0.7c0,0.2,0,0.4,0,0.7c0,0.2,0,0.4,0,0.7c0,0.2,0,0.5,0,0.7c0,0.4,0.1,0.8,0.1,1.3
			c0,0.2,0,0.4,0,0.7c0,0.2,0,0.4,0,0.6c0,0.4,0.1,0.8,0.1,1.2c0,0.2,0,0.4,0,0.6c0.1,0.2,0.1,0.4,0,0.6c-0.1,0.2,0,0.4,0,0.5
			c0,0.1,0.1,0,0.3-0.2c0.1-0.1,0.2-0.2,0.4-0.2c0.1,0,0.2-0.1,0.4-0.2c0.2-0.1,0.5-0.2,0.7-0.3c0.1-0.1,0.3-0.1,0.4-0.2
			c0.1,0,0.3-0.1,0.4-0.1c0.3,0,0.6-0.1,0.9-0.2c0.2-0.1,0.3-0.1,0.5-0.1c0.3-0.1,0.6-0.1,0.9-0.1c0.3,0,0.6-0.1,1,0
			c0.2,0,0.3,0,0.5,0c0.3,0,0.6,0.1,1,0c0.2,0,0.3,0,0.5,0c0.2,0,0.3,0.1,0.5,0.1c0.3,0,0.7,0.1,1,0.2c0.3,0,0.6,0.1,1,0.2
			c0.7,0.1,1.3,0.4,1.9,0.6c0.2,0.1,0.3,0.2,0.5,0.2c0.1,0.1,0.3,0.2,0.5,0.2c0.2,0.1,0.3,0.2,0.5,0.2c0.2,0.1,0.3,0.2,0.5,0.2
			c0.2,0.1,0.3,0.2,0.5,0.2c0.1,0.1,0.3,0.2,0.4,0.3c0.2,0.1,0.3,0.2,0.5,0.3c0.6,0.4,1.1,0.9,1.6,1.4c0.1,0.1,0.2,0.2,0.4,0.4
			c0.2,0.3,0.5,0.6,0.7,0.8c0.2,0.3,0.4,0.6,0.6,0.9c0.1,0.1,0.2,0.3,0.3,0.5c0.2,0.3,0.4,0.7,0.5,1c0.2,0.3,0.3,0.7,0.5,1.1
			c0.3,0.7,0.6,1.6,0.7,2.3c0.2,0.6,0.2,1.4,0.2,2c0.1,0.8,0,1.7,0,2.5c0,0.2,0,0.4,0,0.6c0,0.2,0,0.4,0,0.6
			c-0.1,0.5-0.2,1.1-0.2,1.6c-0.2,0.5-0.3,1-0.4,1.5c-0.2,0.6-0.4,1.3-0.7,1.9c-0.1,0.1-0.1,0.3-0.2,0.5c-0.1,0.1-0.1,0.3-0.2,0.4
			c-0.2,0.4-0.4,0.8-0.7,1.2c-0.1,0.1-0.2,0.3-0.2,0.4c-0.2,0.2-0.4,0.5-0.5,0.7c-0.1,0.1-0.2,0.2-0.3,0.3c-0.1,0.1-0.2,0.2-0.3,0.3
			c-0.1,0.1-0.2,0.2-0.3,0.3c-0.1,0.1-0.2,0.2-0.3,0.3c-0.1,0.1-0.2,0.2-0.3,0.2c-0.2,0.2-0.4,0.4-0.7,0.5c-0.2,0.2-0.4,0.3-0.7,0.5
			c-0.1,0.1-0.2,0.2-0.4,0.2c-0.1,0.1-0.2,0.2-0.4,0.2c-0.1,0.1-0.2,0.1-0.4,0.2c-0.1,0.1-0.2,0.1-0.4,0.2c-0.1,0-0.3,0.1-0.4,0.1
			c-0.1,0.1-0.3,0.1-0.4,0.1c-0.1,0.1-0.3,0.1-0.4,0.1c-0.5,0.2-1.1,0.3-1.7,0.3c-0.1,0-0.3,0-0.4,0c-0.5,0.1-1.2,0.1-1.7,0
			c-0.2,0-0.3,0-0.5,0c-0.6,0-1.3-0.1-1.8-0.3c-0.3-0.1-0.6-0.2-0.9-0.2c-0.3-0.1-0.6-0.2-0.9-0.4c-0.1-0.1-0.3-0.1-0.5-0.2
			c-0.1-0.1-0.3-0.2-0.5-0.2c-0.1-0.1-0.3-0.1-0.5-0.2c-0.3-0.2-0.6-0.3-0.9-0.5c-0.2-0.1-0.3-0.2-0.5-0.3c-0.2-0.3-0.4-0.4-0.5-0.3
			c-0.1,0.2-0.1,0.5,0.1,0.8c0.1,0.1,0.1,0.3,0.2,0.5c0,0.1,0,0.2,0.1,0.2c0.1,0.1,0.1,0.2,0,0.3c-0.1,0.1-0.2,0.2-0.3,0.2
			c0,0-0.1,0.1-0.1,0.1c-0.1,0-0.2,0.1-0.2,0.1c-0.1,0-0.3,0-0.4,0c-0.3,0.1-0.6,0.1-0.9,0.1c-0.4,0.1-0.8,0.1-1.2,0.1
			c-0.2,0-0.4,0-0.7,0c-0.2,0-0.4,0-0.7,0c-0.5,0-1,0.1-1.5,0c-0.7,0.1-1.5,0-2.2,0c-0.5,0-0.9-0.1-1.4-0.1c-0.4,0-0.8-0.1-1.2-0.1
			c-0.2,0-0.3,0-0.5-0.1c-0.1,0-0.3-0.1-0.5-0.1c-0.1,0-0.2-0.1-0.4-0.1c-0.1,0-0.2-0.1-0.3-0.1c-0.1,0-0.2-0.1-0.2-0.1
			c0-0.1-0.1-0.1-0.1-0.2c0-0.1,0-0.1,0-0.1c0-0.1,0-0.2,0-0.2c-0.1-0.2,0-0.4,0-0.6c-0.1-0.3,0-0.6-0.1-0.9c0-0.4,0-0.7,0-1.1
			c-0.1-0.6,0-1.2-0.1-1.7c0-0.8,0.1-1.7,0-2.6c0-1.6,0.2-3.3,0-4.9c0-2.1-0.2-4.3,0-6.3c0-1.7,0-3.4,0-5.2c0.1-1.2-0.1-2.5,0.1-3.7
			c0-0.7,0-1.5,0-2.2c0-0.7,0-1.4,0-2.1c0-0.5,0-0.9,0-1.4c0-0.5,0.1-0.9,0-1.4c0-0.4,0.1-0.8,0-1.3c0-0.4,0.1-0.8,0-1.3
			c0-0.4,0.1-0.8,0.1-1.2c0-0.4,0-0.8,0-1.1c0-0.2,0-0.4,0-0.5c0-0.4,0.1-0.7,0.1-1.1c0-0.2,0-0.3,0-0.5c0-0.3,0.1-0.7,0.1-1
			c0-0.1,0-0.3,0-0.4c0-0.2,0-0.3,0-0.5c0-0.1,0-0.3,0-0.4c0-0.2,0.1-0.5,0.1-0.7c0-0.1,0-0.2,0-0.3c0-0.1,0-0.2,0-0.3
			c0-0.1,0-0.2,0-0.3c0-0.1,0-0.2,0-0.2c0-0.1,0-0.2,0-0.2c0-0.1,0-0.1,0-0.2c0-0.1,0-0.1,0-0.2c0-0.1,0-0.1,0-0.2c0,0,0-0.1,0-0.1
			c0,0,0-0.1,0-0.1c0,0,0-0.1,0-0.1c0,0,0,0,0,0c0.6-0.3,1.6-0.4,2.2-0.4c0.2,0,0.3,0,0.5,0c0.5-0.1,1,0,1.5,0c0.2,0,0.4,0,0.5,0
			c0.2,0,0.3,0,0.5,0c0.4,0.1,0.7,0.1,1.1,0.2c0.2,0.1,0.4,0.1,0.6,0.1C228.9,252.9,229.3,253,229.7,253.1
			C229.7,253.1,229.5,253,229.7,253.1z M234.7,285.9c0.1,0.7,0.4,1.4,0.9,2c0.5,0.6,1.1,1,1.8,1.4c0.5,0.2,1,0.3,1.5,0.4
			c0.3,0,0.6,0,0.8,0c0.2,0,0.4-0.1,0.5-0.1c0.2-0.1,0.3-0.1,0.5-0.2c0.2-0.1,0.3-0.1,0.5-0.2c0.2-0.1,0.3-0.2,0.5-0.3
			c0.1-0.1,0.3-0.2,0.4-0.4c0.3-0.3,0.5-0.5,0.7-0.9c0.3-0.5,0.4-1,0.6-1.6c0-0.2,0.1-0.4,0.1-0.6c0-0.4,0-0.8-0.1-1.2
			c0-0.2-0.1-0.4-0.1-0.7c-0.2-0.4-0.3-0.7-0.5-1.1c-0.1-0.2-0.2-0.3-0.3-0.5c-0.3-0.3-0.5-0.5-0.8-0.8c-0.1-0.1-0.3-0.2-0.5-0.2
			c-0.1-0.1-0.3-0.2-0.5-0.2c-0.2-0.1-0.4-0.1-0.5-0.2c-0.5-0.1-1.1-0.1-1.6-0.1c-0.3,0-0.7,0.1-1,0.2c-0.1,0.1-0.3,0.1-0.4,0.2
			c-0.1,0.1-0.3,0.2-0.4,0.2c-0.3,0.2-0.5,0.4-0.8,0.7c-0.2,0.3-0.4,0.6-0.6,0.9c-0.1,0.2-0.2,0.3-0.2,0.5c-0.2,0.3-0.3,0.7-0.3,1.1
			c-0.1,0.4-0.1,0.8-0.1,1.1C234.6,285.5,234.7,285.7,234.7,285.9C234.8,286.1,234.7,285.7,234.7,285.9z"/>
		<path fill="#020202" d="M263.1,251.7c0.4,0.1,0.7,0.3,1,0.5c0.1,0.1,0.3,0.2,0.5,0.3c0.1,0.1,0.3,0.2,0.4,0.3
			c0.1,0.1,0.3,0.2,0.4,0.3c0.5,0.4,0.9,1.1,1.2,1.6c0.1,0.1,0.2,0.3,0.2,0.5c0.1,0.1,0.1,0.3,0.2,0.5c0.1,0.2,0.1,0.3,0.2,0.5
			c0.2,0.6,0.2,1.3,0.2,2c0,0.2,0,0.3,0,0.5c0,0.2-0.1,0.3-0.1,0.5c-0.1,0.5-0.2,1.1-0.5,1.5c-0.1,0.2-0.2,0.3-0.2,0.5
			c-0.1,0.2-0.2,0.3-0.3,0.5c-0.2,0.3-0.4,0.6-0.6,0.8c-0.4,0.3-0.7,0.7-1.2,1c-0.1,0.1-0.3,0.2-0.5,0.3c-0.1,0.1-0.3,0.2-0.5,0.2
			c-0.1,0.1-0.3,0.2-0.5,0.2c-0.8,0.3-1.7,0.6-2.6,0.6c-0.2,0-0.4,0-0.6,0c-0.2,0-0.3,0-0.5,0c-0.6-0.1-1.1-0.1-1.7-0.4
			c-0.2-0.1-0.4-0.1-0.5-0.2c-0.2-0.1-0.3-0.2-0.5-0.3c-0.1-0.1-0.3-0.2-0.4-0.3c-0.1-0.1-0.3-0.2-0.4-0.4c-0.3-0.3-0.5-0.5-0.7-0.9
			c-0.5-0.7-0.9-1.7-1-2.5c-0.1-0.2-0.1-0.4-0.1-0.5c0-0.2-0.1-0.4-0.1-0.5c0-0.4,0-0.7,0-1.1c0-0.2,0-0.3,0-0.5
			c0-0.2,0.1-0.3,0.1-0.5c0.1-0.3,0.2-0.6,0.3-0.9c0.1-0.2,0.1-0.3,0.2-0.5c0.1-0.3,0.3-0.6,0.5-0.9c0.1-0.2,0.2-0.3,0.3-0.4
			c0.1-0.1,0.2-0.3,0.3-0.4c0.1-0.1,0.2-0.2,0.4-0.4c0.3-0.2,0.5-0.4,0.8-0.6c0.1-0.1,0.3-0.2,0.5-0.3c0.1-0.1,0.3-0.2,0.5-0.2
			c0.4-0.3,1-0.4,1.5-0.5c0.3-0.1,0.7-0.1,1-0.1C261.3,251.1,262.3,251.3,263.1,251.7C263.2,251.7,262.9,251.6,263.1,251.7z
			 M256.3,271c0,0,0,0.1,0,0.1c0,0.1-0.1,0.2-0.1,0.4c0,0.1-0.1,0.2-0.1,0.2c0,0.1,0,0.2,0,0.3c0,0.1,0,0.2,0,0.3
			c-0.1,0.3-0.1,0.5-0.1,0.8c-0.1,0.3-0.1,0.6-0.1,0.9c-0.1,0.3-0.1,0.7-0.2,1c0,0.6-0.2,1.2-0.2,1.8c-0.1,0.4-0.1,0.8-0.2,1.3
			c0,0.7-0.2,1.4-0.2,2.1c-0.1,0.5-0.1,1-0.1,1.4c-0.1,0.5-0.1,1-0.1,1.5c0,0.2-0.1,0.5-0.1,0.7c0,0.5-0.1,1-0.1,1.5
			c0,0.3-0.1,0.5-0.1,0.8c0,0.2,0,0.5,0,0.7c0,0.5-0.1,1-0.1,1.5c0,0.5-0.1,1-0.1,1.5c0,0.2,0,0.5,0,0.7c0,0.2,0,0.5,0,0.7
			c0,0.2,0,0.5,0,0.7c-0.1,0.6,0,1.3-0.1,1.9c0,1.1-0.1,2.2,0,3.3c0,0.3,0,0.6,0,0.9c0,0.1,0,0.2,0,0.4c0,0.1,0,0.2,0,0.3
			c0,0.1,0,0.2,0,0.3c0,0.1,0,0.2,0,0.2c0,0.1,0.1,0.2,0.1,0.2c0,0.2,0.1,0.3,0.2,0.4c0.1,0,0.2,0.1,0.2,0.1
			c0.2,0.1,0.5,0.2,0.7,0.2c0.3,0.1,0.7,0.1,1,0.1c0.2,0,0.4,0.1,0.6,0.1c0.2,0,0.4,0,0.6,0c0.2,0,0.4,0,0.7,0c0.2,0,0.4,0,0.7,0
			c0.5,0,0.9,0,1.4,0c0.5,0,0.9,0.1,1.4,0c0.6-0.1,1.3,0,1.9-0.1c0.2,0,0.4,0,0.6,0c0.2,0,0.3,0,0.5,0c0.3,0,0.6,0,0.9-0.1
			c0.2,0,0.4-0.1,0.6-0.2c0.1,0,0.1,0,0.1,0c0.1,0,0.1-0.1,0.1-0.1c0-0.1,0-0.1,0-0.2c0.1-0.2,0.2-0.5,0.2-0.7
			c0-0.1,0.1-0.2,0.1-0.3c0-0.1,0-0.2,0-0.4c0-0.1,0-0.3,0-0.4c0-0.2,0-0.3,0-0.5c0-0.1,0-0.3,0-0.5c0-0.2,0-0.3,0-0.5
			c0-0.4,0.1-0.7,0.1-1.1c0-0.8-0.1-1.6,0-2.4c0-0.4,0-0.9,0-1.3c0-0.9,0.1-1.9,0-2.8c0-0.5,0-1,0-1.5c0-0.2,0-0.5,0-0.7
			c0-0.5-0.1-1-0.1-1.5c0-0.2,0-0.5,0-0.8c0-0.2,0-0.5,0-0.7c0-0.2,0-0.5,0-0.7c0-0.2,0-0.5,0-0.7c0-0.2,0-0.5,0-0.7
			c0-0.2,0-0.5,0-0.7c0-0.2,0-0.5,0-0.7c0-0.2,0-0.5,0-0.7c0-0.2-0.1-0.4-0.1-0.7c0-0.2,0-0.4,0-0.7c0-0.2,0-0.4,0-0.7
			c0-0.4-0.1-0.8-0.1-1.2c0-0.2-0.1-0.4-0.1-0.6c0-0.2,0-0.4,0-0.6c0-0.3-0.1-0.7-0.1-1c0-0.1-0.1-0.3-0.1-0.5c0-0.1,0-0.3,0-0.4
			c0-0.3-0.1-0.5-0.1-0.8c0-0.1,0-0.2,0-0.3c0-0.1-0.1-0.2-0.1-0.3c0-0.1,0-0.2,0-0.2c0-0.1,0-0.1,0-0.2c0-0.1-0.1-0.2-0.1-0.2l0,0
			c-0.1-0.1-0.1-0.1-0.2-0.1c-0.7-0.3-1.6-0.3-2.4-0.5c-0.2,0-0.5,0-0.7,0c-0.2,0-0.4,0-0.7,0c-0.2,0-0.5,0-0.7,0
			c-0.7-0.1-1.4-0.1-2.1,0c-0.2,0-0.4,0-0.6,0c-0.5,0-1.4,0-1.8,0.3C256.5,270.8,256.5,270.9,256.3,271
			C256.4,271,256.3,271,256.3,271C256.3,271,256.3,271,256.3,271z"/>
	</g>
</g>
</svg>
