<?xml version="1.0" encoding="utf-8"?>
<!-- Generator: Adobe Illustrator 18.0.0, SVG Export Plug-In . SVG Version: 6.00 Build 0)  -->
<!DOCTYPE svg PUBLIC "-//W3C//DTD SVG 1.0//EN" "http://www.w3.org/TR/2001/REC-SVG-20010904/DTD/svg10.dtd">
<svg version="1.0" id="Camada_1" xmlns="http://www.w3.org/2000/svg" xmlns:xlink="http://www.w3.org/1999/xlink" x="0px" y="0px"
	 viewBox="0 0 339.8 331.2" enable-background="new 0 0 339.8 331.2" xml:space="preserve">
<g>
	<path fill="#F1CC5A" d="M166.4,318.5h-66.1c-5.5,0-10-4.5-10-10v-55.2c0-5.5,4.5-10,10-10h66.1c5.5,0,10,4.5,10,10v55.2
		C176.4,314,171.9,318.5,166.4,318.5z"/>
	<path fill="#FFEDBB" d="M161.5,312.1h-56.3c-5.5,0-10-4.5-10-10v-42.2c0-5.5,4.5-10,10-10h56.3c5.5,0,10,4.5,10,10v42.2
		C171.5,307.6,167,312.1,161.5,312.1z"/>
</g>
<g>
	<g>
		<path fill="#020202" d="M183.8,253.3c0.1-0.1,0.2-0.2,0.3-0.2c0.1-0.1,0.3-0.1,0.4-0.2c0.3-0.1,0.6-0.2,1-0.2
			c0.8-0.2,1.6-0.3,2.4-0.4c0.2,0,0.4,0,0.7,0c0.2,0,0.5,0,0.7,0c0.7-0.1,1.4-0.1,2.1,0c0.2,0,0.4,0,0.7,0c0.2,0,0.4,0,0.6,0
			c0.2,0,0.4,0,0.6,0c0.6,0.1,1.2,0.2,1.8,0.3c0.2,0.1,0.3,0.1,0.5,0.2c0.1,0,0.1,0.1,0.1,0.1c0,0,0.1,0.1,0.1,0.1
			c0.1,0.1,0.1,0.2,0.2,0.3c0,0.1,0,0.2,0,0.2c0,0.1,0,0.2,0,0.2c0,0.1,0,0.2,0,0.2c0.2,0.5,0,1.2,0,1.8c0,0.2-0.1,0.5-0.1,0.7
			c0,0.1,0,0.3,0,0.4c0,0.3-0.1,0.6-0.1,0.9c-0.1,0.3-0.1,0.6-0.2,0.9c0,0.7-0.2,1.3-0.3,2c-0.2,0.5-0.2,1-0.3,1.6
			c-0.1,0.4-0.2,0.7-0.2,1.1c-0.1,0.4-0.2,0.8-0.2,1.1c0,0.2-0.1,0.4-0.1,0.6c-0.1,0.4-0.2,0.8-0.2,1.2c0,0.2-0.1,0.4-0.1,0.6
			c-0.1,0.4-0.2,0.8-0.2,1.2c0,0.2-0.1,0.4-0.1,0.7c-0.1,0.4-0.2,0.8-0.2,1.3c0,0.4-0.1,0.9-0.2,1.3c0,0.4-0.1,0.9-0.2,1.3
			c-0.2,1.4-0.3,2.7-0.5,4.1c0,0.5-0.1,0.9-0.1,1.4c0,0.2,0,0.5,0,0.7c0,0.5-0.1,0.9-0.1,1.4c-0.1,0.4-0.2,0.6,0,0.7
			c0.1,0.1,0.3-0.1,0.5-0.4c0.1-0.2,0.3-0.3,0.5-0.4c0.2-0.2,0.3-0.3,0.5-0.5c0.5-0.4,1-0.9,1.5-1.4c0.9-1,1.7-2,2.5-3.1
			c0.2-0.3,0.5-0.6,0.7-0.9c0.1-0.2,0.2-0.3,0.3-0.5c0.1-0.1,0.2-0.3,0.3-0.5c0.1-0.1,0.2-0.2,0.3-0.4c0.3-0.4,0.6-0.8,0.9-1.3
			c0.1-0.1,0.1-0.1,0.2-0.2c0.1-0.1,0.1-0.1,0.2-0.2c0.1,0,0.1-0.1,0.1-0.1c0,0,0.1,0,0.1,0c0.1,0,0.2-0.1,0.3-0.1
			c1.2,0,2.4,0.2,3.6,0.5c0.2,0,0.4,0.1,0.6,0.1c0.4,0.1,0.9,0.3,1.3,0.4c0.2,0.1,0.4,0.1,0.7,0.2c0.4,0.1,0.9,0.3,1.3,0.5
			c0.6,0.2,1.2,0.5,1.7,0.7c0.3,0.1,0.6,0.3,0.9,0.5c0.1,0.1,0.2,0.2,0.4,0.2c0.1,0.1,0.2,0.1,0.3,0.2c0.1,0.1,0.2,0.1,0.2,0.2
			c0.1,0.1,0.1,0.1,0.2,0.2c0,0.1,0.1,0.2,0,0.3c-0.1,0.1-0.1,0.3-0.2,0.4c-0.1,0.1-0.1,0.1-0.1,0.2c-0.1,0.1-0.1,0.2-0.2,0.2
			c-0.1,0.1-0.1,0.2-0.2,0.3c-0.2,0.2-0.3,0.4-0.5,0.6c-0.1,0.1-0.2,0.2-0.3,0.3c-0.3,0.4-0.7,0.8-1.1,1.1c-0.1,0.1-0.3,0.3-0.4,0.4
			c-0.1,0.1-0.3,0.2-0.4,0.4c-0.2,0.1-0.3,0.3-0.5,0.4c-0.2,0.1-0.3,0.3-0.5,0.4c-0.2,0.1-0.3,0.3-0.5,0.4c-0.5,0.4-1,0.9-1.5,1.2
			c-0.2,0.1-0.3,0.3-0.5,0.4c-0.5,0.4-1.1,0.8-1.6,1.2c-0.2,0.1-0.3,0.2-0.5,0.4c-0.2,0.1-0.3,0.2-0.5,0.3c-0.3,0.3-0.7,0.5-1.1,0.7
			c-0.2,0.1-0.3,0.2-0.5,0.3c-0.2,0.1-0.3,0.2-0.5,0.3c-0.2,0.1-0.3,0.2-0.5,0.3c-0.2,0.1-0.4,0.1-0.5,0.2c-0.1,0.1,0.1,0.1,0.3,0.1
			c0.1,0,0.3,0.1,0.4,0.2c0.1,0.1,0.3,0.1,0.4,0.2c0.1,0.1,0.3,0.1,0.5,0.2c0.3,0.2,0.6,0.3,1,0.5c0.2,0.1,0.4,0.2,0.5,0.3
			c0.2,0.1,0.3,0.2,0.5,0.3c0.2,0.1,0.4,0.2,0.5,0.3c0.4,0.2,0.8,0.4,1.2,0.7c0.4,0.2,0.8,0.5,1.2,0.7c0.2,0.1,0.4,0.2,0.6,0.4
			c0.2,0.1,0.4,0.2,0.6,0.4c0.4,0.2,0.8,0.5,1.1,0.7c0.2,0.1,0.4,0.3,0.6,0.4c0.2,0.1,0.3,0.2,0.5,0.4c0.2,0.1,0.3,0.2,0.5,0.4
			c0.2,0.1,0.3,0.2,0.5,0.4c0.2,0.1,0.3,0.2,0.5,0.4c0.1,0.1,0.3,0.2,0.5,0.3c0.1,0.1,0.3,0.2,0.4,0.4c0.1,0.1,0.2,0.2,0.4,0.3
			c0.4,0.3,0.8,0.7,1.2,1.1c0.1,0.1,0.2,0.3,0.3,0.5c0,0.1,0.1,0.1,0.1,0.2c0,0.3-0.1,0.4-0.2,0.7c-0.1,0.1-0.2,0.2-0.2,0.2
			c-0.1,0.1-0.2,0.2-0.3,0.3c-0.4,0.4-0.9,0.7-1.4,1c-0.6,0.3-1.2,0.7-1.8,1c-0.2,0.1-0.4,0.2-0.7,0.3c-0.7,0.2-1.3,0.6-1.9,0.9
			c-0.4,0.2-0.9,0.4-1.3,0.5c-0.2,0.1-0.4,0.1-0.6,0.2c-0.2,0.1-0.3,0.1-0.5,0.2c-0.2,0.1-0.3,0.1-0.5,0.1c-0.4,0.1-0.9,0.3-1.3,0.2
			c-0.1,0-0.1,0-0.2,0c-0.1,0-0.2-0.1-0.2-0.1c-0.1-0.1-0.2-0.1-0.2-0.2c-0.1-0.1-0.2-0.2-0.2-0.2c-0.2-0.2-0.3-0.4-0.5-0.6
			c-0.2-0.2-0.5-0.5-0.7-0.7c-0.2-0.3-0.5-0.5-0.7-0.8c-0.1-0.1-0.2-0.3-0.4-0.4c-0.1-0.2-0.3-0.3-0.4-0.5c-0.1-0.2-0.3-0.3-0.4-0.5
			c-0.1-0.2-0.3-0.3-0.4-0.5c-0.2-0.2-0.3-0.3-0.5-0.5c-0.1-0.1-0.3-0.3-0.5-0.5c-0.2-0.1-0.3-0.3-0.5-0.5c-0.1-0.1-0.3-0.3-0.5-0.5
			c-0.3-0.3-0.7-0.6-1-0.8c-0.3-0.3-0.7-0.6-1-0.8c-0.3-0.2-0.7-0.4-1.1-0.6c-0.2-0.1-0.4-0.2-0.6-0.3c-0.3-0.2-0.5-0.3-0.5-0.2
			c-0.1,0.1-0.1,0.3,0,0.7c0.1,0.2,0.1,0.4,0.1,0.7c0,0.4,0.1,0.9,0.2,1.3c0,0.2,0.1,0.4,0.1,0.7c0,0.2,0.1,0.4,0.1,0.6
			c0,0.2,0.1,0.4,0.1,0.6c0,0.2,0.1,0.4,0.1,0.6c0,0.2,0.1,0.3,0.1,0.5c0.1,0.7,0.2,1.4,0.2,2.1c0,0.1-0.1,0.2-0.1,0.2
			c-0.1,0.1-0.2,0.2-0.3,0.2c-0.6,0.2-1.2,0.3-1.8,0.3c-0.2,0-0.4,0.1-0.6,0.1c-0.2,0-0.4,0-0.7,0c-0.2,0-0.5,0-0.7,0
			c-1.4,0.1-3,0.2-4.3,0c-0.2,0-0.4,0-0.6,0c-0.2,0-0.4,0-0.5,0c-0.1,0-0.3-0.1-0.5-0.1c-0.1,0-0.2,0-0.3,0c-0.1,0-0.2-0.1-0.2-0.1
			c-0.1,0-0.1,0-0.1-0.1c0,0,0-0.1,0-0.1c-0.1-0.1,0-0.4,0-0.6c-0.1-0.3,0-0.7,0-1c-0.1-0.4,0-0.9,0-1.4c-0.1-0.6,0-1.2-0.1-1.8
			c0-0.7,0.1-1.4,0-2.1c0-0.8,0.1-1.6,0-2.4c0-0.9,0.1-1.7,0-2.6c0-1.2,0.1-2.3,0-3.5c0-1.5,0-3,0-4.4c-0.4-3.9,0-8,0-11.9
			c0.2-1.4-0.1-2.7,0.1-4.1c0-0.6,0-1.3,0-1.9c0.1-0.6,0-1.1,0.1-1.7c0-0.4,0-0.7,0-1.1c0-0.3,0.1-0.7,0-1c0-0.3,0.1-0.6,0-0.9
			c0-0.3,0.1-0.5,0.1-0.8c0-0.3,0-0.5,0-0.8c0-0.1,0-0.2,0-0.4c0-0.1,0-0.2,0-0.3c0-0.2,0-0.4,0.1-0.6c0-0.1,0-0.2,0-0.2
			c0-0.1,0-0.1,0-0.2c0-0.1,0-0.1,0-0.2c0-0.1,0-0.1,0-0.2c0-0.1,0-0.1,0-0.1c0-0.1,0-0.1,0.1-0.2
			C183.6,253.4,183.7,253.3,183.8,253.3C183.8,253.2,183.7,253.3,183.8,253.3z"/>
		<path fill="#020202" d="M242.9,270.8c0.1,0,0.1,0.1,0.1,0.2c0,0.1,0.1,0.1,0.1,0.2c0,0.2,0.1,0.6,0.1,0.8c0,0.1,0,0.2,0,0.3
			c0,0.3,0.1,0.5,0,0.8c0.2,1.2,0.1,2.6,0,3.8c0,0.7,0,1.3,0,2c-0.1,0.9,0,1.9,0,2.8c-0.2,1.4,0,2.9,0,4.4c0,0.5,0.1,1,0,1.5
			c0,0.5,0.1,1,0.1,1.5c0,0.2,0,0.5,0,0.7c0,0.5,0.1,1,0.1,1.4c0,0.2,0.1,0.5,0.1,0.7c0,0.5,0.1,0.9,0.1,1.4c0,0.2,0.1,0.4,0.1,0.7
			c0,0.4,0.1,0.8,0.1,1.2c0,0.2,0,0.4,0,0.6c0,0.2,0.1,0.4,0.1,0.6c0,0.2,0,0.3,0,0.5c0,0.2,0,0.3,0,0.5c0,0.2,0,0.3,0,0.5
			c0,0.3,0.1,0.6,0.1,0.9c0,0.4,0.1,0.8,0,1.2c0,0.1,0,0.2,0,0.2c0,0.1,0,0.1,0,0.2c0,0-0.1,0.1-0.1,0.1c0,0,0,0-0.1,0
			c-0.1,0-0.1,0-0.2,0c-0.2,0-0.5,0.1-0.7,0.1c-0.2,0-0.3,0-0.5,0c-0.4,0-0.8,0.1-1.2,0c-1.6,0.2-3.4,0.2-5,0c-0.4,0-0.9,0-1.3,0
			c-0.2,0-0.4,0-0.6,0c-0.2,0-0.3,0-0.5,0c-0.1,0-0.3,0-0.4,0c-0.1,0-0.2-0.1-0.3-0.1c-0.1,0-0.1,0-0.2,0c-0.1-0.1-0.2-0.1-0.4-0.2
			c-0.2-0.1-0.3-0.2-0.3-0.5c-0.1-0.2-0.1-0.4,0-0.6c0.1-0.4,0.1-0.7,0-1c0-0.1-0.1,0-0.2,0.3c-0.1,0.1-0.1,0.2-0.2,0.3
			c-0.1,0.1-0.2,0.2-0.3,0.2c-0.3,0.3-0.6,0.5-1,0.7c-0.1,0.1-0.3,0.1-0.4,0.2c-0.1,0.1-0.2,0.1-0.4,0.2c-0.3,0.2-0.5,0.3-0.8,0.3
			c-0.1,0.1-0.3,0.1-0.4,0.2c-0.2,0-0.3,0.1-0.5,0.1c-0.5,0.1-0.9,0.2-1.4,0.2c-0.1,0-0.3,0-0.5,0c-0.5,0-1,0-1.5,0
			c-0.5,0-1-0.1-1.5-0.2c-0.2-0.1-0.3-0.1-0.5-0.1c-0.3-0.1-0.7-0.2-1-0.3c-0.2-0.1-0.3-0.2-0.5-0.2c-0.2-0.1-0.3-0.2-0.5-0.2
			c-0.3-0.1-0.7-0.3-1-0.5c-0.2-0.1-0.3-0.2-0.5-0.3c-0.2-0.1-0.3-0.2-0.5-0.3c-0.4-0.4-0.9-0.8-1.3-1.2c-0.3-0.3-0.5-0.6-0.7-0.9
			c-0.2-0.4-0.4-0.7-0.7-1.1c-0.1-0.2-0.2-0.4-0.3-0.6c-0.3-0.5-0.5-1.1-0.8-1.7c-0.1-0.2-0.1-0.4-0.2-0.6c-0.1-0.2-0.1-0.4-0.2-0.6
			c-0.2-0.4-0.3-0.8-0.3-1.2c-0.1-0.2-0.1-0.4-0.2-0.7c0-0.2-0.1-0.4-0.1-0.6c-0.1-0.8-0.2-1.7-0.3-2.5c0-0.2,0-0.4,0-0.6
			c0-0.2,0-0.4,0-0.6c0-0.4,0-0.8,0-1.3c0-0.2,0-0.4,0-0.6c0-0.4,0-0.8,0-1.2c0-0.2,0-0.4,0-0.6c0-0.2,0-0.4,0-0.6
			c0-0.2,0.1-0.4,0.1-0.6c0-1.2,0.3-2.6,0.5-3.8c0.1-0.3,0.2-0.7,0.2-1c0.1-0.3,0.2-0.6,0.2-0.9c0-0.1,0.1-0.3,0.1-0.5
			c0-0.1,0.1-0.2,0.1-0.4c0.1-0.1,0.1-0.3,0.1-0.4c0.1-0.2,0.2-0.5,0.2-0.7c0-0.1,0.1-0.2,0.1-0.3c0-0.1,0.1-0.2,0.1-0.3
			c0-0.1,0.1-0.2,0.1-0.3c0.1-0.1,0.1-0.2,0.1-0.2c0-0.1,0.1-0.1,0.1-0.2c0-0.1,0.1-0.1,0.1-0.2c0-0.1,0.1-0.1,0.1-0.2
			c0,0,0.1-0.1,0.1-0.1c0.1-0.1,0.2-0.2,0.2-0.2c0.4-0.1,0.9-0.2,1.3-0.2c0.2,0,0.4,0,0.6,0c0.2,0,0.4,0,0.7,0c0.2,0,0.4,0,0.7,0
			c0.9,0,1.8-0.1,2.7,0c0.2,0,0.4,0,0.6,0c0.2,0,0.3,0,0.5,0c0.1,0,0.3,0.1,0.4,0.1c0.1,0,0.2,0,0.3,0c0.1,0,0.1,0.1,0.2,0.1
			c0,0.3,0,0.5,0,0.8c0,0.1,0,0.2,0,0.3c0,0.1,0,0.2,0,0.3c0,0.1,0,0.3,0,0.4c0,0.3-0.1,0.6-0.1,0.9c-0.1,0.3-0.1,0.6-0.1,0.9
			c-0.1,0.4-0.1,0.7-0.1,1.1c0,0.2-0.1,0.4-0.1,0.6c0,0.4-0.1,0.8-0.1,1.2c0,0.2-0.1,0.4-0.1,0.6c0,0.2,0,0.4,0,0.6
			c0,0.2,0,0.4,0,0.6c0,0.4-0.1,0.8,0,1.3c0,0.4-0.1,0.9,0,1.3c0,0.4,0.1,0.8,0.1,1.3c0,0.2,0,0.4,0,0.6c0,0.6,0.1,1.2,0.2,1.8
			c0,0.2,0.1,0.4,0.1,0.6c0.2,0.7,0.3,1.4,0.7,2c0.2,0.4,0.5,0.9,0.8,1.2c0.2,0.2,0.4,0.5,0.7,0.6c0.4,0.3,0.8,0.4,1.2,0.6
			c0.3,0.1,0.7,0.1,1,0.2c0.1,0,0.3,0,0.5,0c0.1,0,0.3,0,0.4,0c0.3-0.1,0.5-0.2,0.8-0.3c0.4-0.2,0.7-0.5,1-0.9
			c0.1-0.1,0.2-0.3,0.3-0.4c0.1-0.1,0.2-0.3,0.3-0.4c0.1-0.2,0.2-0.3,0.2-0.5c0.2-0.5,0.4-1,0.6-1.6c0.1-0.2,0.2-0.4,0.2-0.6
			c0.1-0.4,0.2-0.8,0.3-1.2c0-0.2,0.1-0.4,0.1-0.7c0-0.4,0.1-0.9,0.2-1.3c0.1-0.5,0.1-0.9,0.1-1.4c0.1-0.4,0.1-0.9,0.1-1.4
			c0-0.2,0-0.5,0-0.7c0-0.2,0-0.4,0-0.7c0-0.4,0.1-0.9,0.1-1.3c0-0.4,0-0.8,0-1.3c0-0.7,0-1.4,0-2.2c0.1-0.6-0.1-1.3,0.1-2
			c0-0.2,0-0.3,0-0.5c0-0.1,0-0.1,0-0.2c0,0,0-0.1,0-0.1c0.1,0,0.1-0.1,0.1-0.1c0.1,0,0.2,0,0.3,0c0.3-0.1,0.6-0.1,0.9-0.2
			c0.4,0,0.8-0.1,1.2-0.1c0.2,0,0.5,0,0.7,0c0.5,0,1-0.1,1.5-0.1c0.7,0,1.4,0,2.1,0c0.5,0.1,1.2,0.1,1.7,0.1c0.1,0,0.2,0.1,0.4,0.1
			C242.8,270.8,242.8,270.8,242.9,270.8C242.9,270.9,242.8,270.8,242.9,270.8z"/>
	</g>
</g>
<image overflow="visible" width="1500" height="1500" xlink:href="../../../Desenhos Jogo Yegatu/png2/baku.png"  transform="matrix(0.2406 0 0 0.2406 -10.4124 -64.2406)">
</image>
</svg>
