<?xml version="1.0" encoding="utf-8"?>
<!-- Generator: Adobe Illustrator 18.0.0, SVG Export Plug-In . SVG Version: 6.00 Build 0)  -->
<!DOCTYPE svg PUBLIC "-//W3C//DTD SVG 1.0//EN" "http://www.w3.org/TR/2001/REC-SVG-20010904/DTD/svg10.dtd">
<svg version="1.0" id="Camada_1" xmlns="http://www.w3.org/2000/svg" xmlns:xlink="http://www.w3.org/1999/xlink" x="0px" y="0px"
	 viewBox="0 0 339.8 331.2" enable-background="new 0 0 339.8 331.2" xml:space="preserve">
<image overflow="visible" width="1500" height="1500" xlink:href="../../../Desenhos Jogo Yegatu/png2/darabi.png"  transform="matrix(0.2507 0 0 0.2507 -19.9124 -53.7473)">
</image>
<g>
	<path fill="#F1CC5A" d="M212.3,318.5h-66.1c-5.5,0-10-4.5-10-10v-55.2c0-5.5,4.5-10,10-10h66.1c5.5,0,10,4.5,10,10v55.2
		C222.3,314,217.8,318.5,212.3,318.5z"/>
	<path fill="#FFEDBB" d="M207.4,312.1h-56.3c-5.5,0-10-4.5-10-10v-42.2c0-5.5,4.5-10,10-10h56.3c5.5,0,10,4.5,10,10v42.2
		C217.4,307.6,212.9,312.1,207.4,312.1z"/>
</g>
<g>
	<g>
		<path fill="#020202" d="M101.7,275.9c0,0.2,0.1,0.4,0.1,0.6c0,0.2,0,0.4,0,0.6c0,0.2,0,0.3,0,0.5c0,0.4,0,0.7,0,1.1
			c0,0.2,0,0.3,0,0.5c0,0.3,0,0.7,0,1c-0.1,0.5-0.1,1.1-0.1,1.6c-0.1,0.3-0.1,0.7-0.1,1c0,0.3-0.1,0.6-0.2,0.9
			c0,0.3-0.1,0.6-0.2,0.9c0,0.2-0.1,0.3-0.1,0.5c-0.1,0.3-0.2,0.6-0.2,0.9c-0.2,0.6-0.4,1.2-0.7,1.7c-0.1,0.3-0.3,0.5-0.4,0.8
			c-0.1,0.1-0.1,0.3-0.2,0.4c-0.1,0.3-0.3,0.5-0.4,0.8c-0.2,0.2-0.3,0.5-0.5,0.7c-0.1,0.1-0.2,0.3-0.2,0.4c-0.1,0.1-0.2,0.3-0.2,0.4
			c-0.1,0.1-0.2,0.3-0.3,0.4c-0.1,0.1-0.2,0.3-0.3,0.4c-0.2,0.2-0.4,0.5-0.6,0.7c-0.2,0.2-0.4,0.5-0.6,0.7c-0.2,0.2-0.4,0.4-0.6,0.6
			c-0.1,0.1-0.2,0.2-0.3,0.3c-0.1,0.1-0.3,0.2-0.4,0.3c-0.1,0.1-0.2,0.2-0.3,0.3c-0.1,0.1-0.3,0.2-0.4,0.3c-0.3,0.3-0.8,0.5-1.1,0.8
			c-0.3,0.2-0.5,0.4-0.8,0.5c-0.3,0.2-0.5,0.3-0.8,0.5c-0.2,0.1-0.3,0.2-0.5,0.2c-0.3,0.2-0.6,0.3-0.9,0.5c-0.1,0.1-0.3,0.2-0.4,0.2
			c-0.2,0.1-0.3,0.2-0.5,0.2c-0.3,0.1-0.6,0.3-1,0.4c-0.3,0.1-0.6,0.2-1,0.3c-0.1,0.1-0.3,0.1-0.5,0.2c-0.5,0.2-1,0.3-1.5,0.5
			c-0.3,0.1-0.7,0.2-1,0.2c-0.2,0.1-0.3,0.1-0.5,0.1c-0.4,0.1-0.7,0.2-1.1,0.2c-1.1,0.2-2.2,0.3-3.4,0.5c-0.4,0-0.8,0.1-1.2,0.1
			c-0.4,0-0.8,0.1-1.2,0.1c-0.2,0-0.4,0-0.6,0c-1,0.1-2.1,0.1-3.1,0c-0.4,0-0.9,0-1.3,0c-0.2,0-0.4,0-0.7,0c-0.4,0-0.9-0.1-1.3-0.1
			c-1.3-0.2-2.7-0.2-4-0.5h0c0-0.1-0.1-0.1-0.1-0.2c0,0,0-0.1,0-0.1c0-0.1-0.1-0.2-0.1-0.3c0-0.1,0-0.2,0-0.2c0-0.2-0.1-0.4-0.1-0.5
			c0-0.2,0-0.4,0-0.6c0-0.1,0-0.3,0-0.4c0-0.2-0.1-0.5,0-0.7c0-0.3-0.1-0.6,0-0.9c-0.1-0.5,0-1-0.1-1.4c0-0.3,0-0.7,0-1
			c-0.1-0.6,0-1.2,0-1.7c-0.1-0.8,0-1.7-0.1-2.5c0-0.9,0-1.8,0-2.7c-0.7-5.1-0.6-11.5,0-16.6c0-1,0-2,0-3c0.1-0.9,0-1.9,0.1-2.8
			c0-0.7,0-1.3,0-2c0-0.4,0-0.8,0-1.2c0.1-0.6,0-1.2,0.1-1.8c0-0.4,0-0.7,0-1.1c0-0.3,0.1-0.7,0-1c0-0.3,0.1-0.6,0-0.9
			c0-0.3,0.1-0.5,0.1-0.8c0-0.3,0-0.5,0-0.8c0-0.1,0-0.2,0-0.3c0-0.2,0.1-0.4,0.1-0.6c0-0.1,0-0.2,0-0.2c0-0.2,0-0.3,0.1-0.5
			c0-0.1,0-0.1,0-0.2c0-0.1,0-0.2,0.1-0.3c0,0,0-0.1,0-0.1l0,0c0,0,0,0,0,0c0.2,0,0.5-0.1,0.7-0.1c0.2,0,0.5-0.1,0.7-0.1
			c0.7-0.2,1.4-0.2,2.1-0.2c0.2,0,0.4-0.1,0.7-0.1c0.2,0,0.5,0,0.7,0c0.2,0,0.4,0,0.7,0c0.2,0,0.4,0,0.7,0c0.8-0.1,1.8-0.1,2.6,0
			c0.2,0,0.4,0,0.7,0c0.2,0,0.4,0,0.6,0c0.2,0,0.4,0.1,0.6,0.1c1,0,2,0.2,3,0.4c0.4,0.1,0.7,0.2,1.1,0.2c0.4,0.1,0.7,0.2,1.1,0.2
			c0.9,0.2,1.7,0.5,2.6,0.8c0.3,0.1,0.7,0.3,1,0.4c0.2,0.1,0.3,0.1,0.5,0.2c0.2,0.1,0.3,0.1,0.5,0.2c0.1,0.1,0.3,0.2,0.5,0.2
			c0.2,0.1,0.3,0.2,0.5,0.2c0.2,0.1,0.3,0.2,0.5,0.2c0.3,0.2,0.6,0.3,0.9,0.5c0.3,0.2,0.6,0.3,0.8,0.5c0.1,0.1,0.3,0.2,0.4,0.2
			c0.1,0.1,0.3,0.2,0.4,0.3c0.1,0.1,0.3,0.2,0.4,0.3c0.4,0.3,0.8,0.6,1.2,0.9c0.1,0.1,0.3,0.2,0.4,0.3c0.2,0.2,0.5,0.4,0.7,0.7
			c0.3,0.3,0.7,0.7,1,1c0.2,0.2,0.4,0.5,0.7,0.7c0.2,0.2,0.4,0.5,0.6,0.7c0.1,0.1,0.2,0.3,0.3,0.4c0.1,0.1,0.2,0.3,0.3,0.4
			c0.1,0.1,0.2,0.3,0.3,0.4c0.2,0.3,0.4,0.5,0.5,0.8c0.2,0.3,0.4,0.5,0.5,0.8c0.2,0.3,0.3,0.5,0.5,0.8c0.1,0.3,0.3,0.6,0.5,0.8
			c0.1,0.1,0.1,0.3,0.2,0.4c0.1,0.1,0.1,0.3,0.2,0.5c0.1,0.1,0.1,0.3,0.2,0.4c0.1,0.1,0.1,0.3,0.2,0.4c0.5,0.8,1,2.1,1.2,3.1
			c0.1,0.1,0.1,0.3,0.1,0.5c0.1,0.1,0.1,0.3,0.2,0.5c0,0.1,0.1,0.3,0.1,0.5c0.1,0.3,0.2,0.6,0.2,0.9c0.2,0.8,0.3,1.5,0.4,2.3
			C101.6,275.3,101.7,275.6,101.7,275.9C101.7,276.1,101.7,275.8,101.7,275.9z M78.5,263.3c0,0,0,0.1,0,0.2c0,0.1,0,0.1,0,0.2
			c0,0.1,0,0.2,0,0.2c0,0.6-0.1,1.2,0,1.8c0,0.3,0,0.6,0,0.9c0,0.4,0,0.7,0,1.1c0,0.2,0,0.3,0,0.5c0,0.4,0.1,0.8,0.1,1.2
			c0,0.2,0,0.4,0,0.6c0,0.2,0,0.4,0,0.6c0,0.2,0,0.4,0,0.7c0,0.4,0.1,0.9,0.1,1.3c0,0.2,0,0.4,0,0.7c0,0.2,0,0.5,0,0.7
			c0,0.2,0,0.4,0,0.7c0,0.2,0,0.5,0,0.7c0,0.2,0,0.4,0,0.7c0,0.5,0.1,0.9,0.1,1.4c0,0.2,0,0.4,0,0.7c0,0.2,0,0.4,0,0.7
			c0,0.2,0,0.4,0,0.7c0,0.2,0.1,0.4,0.1,0.7c0,0.2,0,0.4,0,0.6c0,0.2,0,0.4,0,0.6c0,0.2,0,0.4,0,0.6c0,0.4,0.1,0.7,0.1,1.1
			c0,0.2,0,0.4,0,0.5c0,0.2,0,0.3,0,0.5c0,0.2,0,0.3,0,0.5c0,0.1,0,0.3,0,0.5c0,0.1,0,0.3,0,0.4c0,0.1,0,0.3,0,0.4
			c0,0.1,0,0.3,0,0.4c0,0.1,0,0.2,0,0.3c0.1,0.1,0.1,0.2,0,0.3c0,0.1,0,0.2,0,0.2c0.3,0,0.5,0.1,0.8,0.1c0.3,0,0.5,0,0.8,0
			c0.5,0,1.2-0.1,1.6-0.3c0.3-0.1,0.6-0.2,0.8-0.3c0.2-0.1,0.5-0.3,0.7-0.4c0.1-0.1,0.3-0.2,0.4-0.2c0.1-0.1,0.2-0.2,0.4-0.2
			c0.1-0.1,0.2-0.2,0.4-0.3c0.1-0.1,0.2-0.2,0.4-0.3c0.2-0.2,0.5-0.4,0.7-0.6c0.2-0.2,0.4-0.5,0.7-0.7c0.1-0.1,0.2-0.2,0.3-0.4
			c0.1-0.1,0.2-0.3,0.3-0.4c0.1-0.1,0.2-0.3,0.2-0.4c0.2-0.3,0.4-0.6,0.5-0.9c0.1-0.1,0.2-0.3,0.2-0.5c0.1-0.2,0.2-0.3,0.2-0.5
			c0.2-0.5,0.4-1,0.5-1.5c0.1-0.2,0.1-0.3,0.1-0.5c0.1-0.4,0.2-0.7,0.2-1.1c0-0.2,0-0.4,0-0.5c0-0.2,0-0.4,0-0.6c0-0.2,0-0.4,0-0.6
			c0-0.2,0-0.4,0-0.6c-0.1-0.4-0.1-0.8-0.2-1.2c-0.1-0.2-0.1-0.4-0.1-0.6c-0.1-0.2-0.1-0.5-0.2-0.7c-0.1-0.2-0.1-0.4-0.2-0.7
			c-0.1-0.2-0.1-0.4-0.2-0.7c-0.3-0.6-0.5-1.2-0.9-1.8c-0.3-0.5-0.6-1.1-1.1-1.5c-0.1-0.2-0.3-0.3-0.4-0.5c-0.1-0.1-0.3-0.3-0.4-0.5
			c-0.3-0.3-0.5-0.5-0.8-0.8c-0.2-0.1-0.3-0.3-0.5-0.4c-0.3-0.3-0.6-0.5-0.9-0.7c-0.3-0.2-0.6-0.4-0.9-0.6c-0.2-0.1-0.3-0.2-0.5-0.2
			c-0.2-0.1-0.3-0.2-0.5-0.2c-0.2-0.1-0.3-0.1-0.5-0.2c-0.3-0.2-0.6-0.3-0.9-0.3c-0.1-0.1-0.3-0.1-0.4-0.1c-0.4-0.1-0.8-0.2-1.2-0.2
			c-0.2,0-0.5-0.1-0.7,0C78.7,263.3,78.6,263.3,78.5,263.3C78.5,263.4,78.6,263.3,78.5,263.3z"/>
		<path fill="#020202" d="M121.3,296.4c0-0.1-0.1,0-0.2,0.4c-0.1,0.1-0.2,0.2-0.3,0.3c-0.2,0.2-0.4,0.4-0.6,0.6
			c-0.1,0.1-0.2,0.2-0.3,0.3c-0.2,0.2-0.4,0.4-0.6,0.5c-0.1,0.1-0.2,0.2-0.3,0.2c-0.3,0.2-0.7,0.4-1,0.6c-0.2,0.1-0.5,0.2-0.7,0.3
			c-0.1,0.1-0.2,0.1-0.3,0.1c-0.1,0.1-0.2,0.1-0.4,0.2c-0.1,0-0.2,0.1-0.3,0.1c-0.4,0.2-1,0.3-1.5,0.3c-0.1,0-0.2,0-0.4,0
			c-0.2,0-0.5,0.1-0.7,0c-0.1,0-0.2,0-0.4,0c-0.2,0-0.5,0-0.7,0c-0.1,0-0.3,0-0.4,0c-0.1,0-0.3-0.1-0.4-0.1c-0.4,0-0.7-0.1-1.1-0.2
			c-0.2-0.1-0.5-0.2-0.7-0.2c-0.1-0.1-0.2-0.1-0.3-0.1c-0.1-0.1-0.2-0.1-0.4-0.2c-0.3-0.2-0.7-0.3-1-0.5c-0.1-0.1-0.2-0.2-0.3-0.2
			c-0.1-0.1-0.2-0.2-0.3-0.2c-0.1-0.1-0.2-0.2-0.3-0.2c-0.2-0.1-0.4-0.3-0.6-0.5c-0.3-0.2-0.7-0.5-0.9-0.8c-0.1-0.1-0.2-0.2-0.3-0.3
			c-0.1-0.1-0.2-0.2-0.3-0.3c-0.3-0.3-0.5-0.6-0.7-1c-0.1-0.1-0.2-0.2-0.2-0.3c-0.1-0.1-0.2-0.3-0.2-0.4c-0.1-0.1-0.1-0.3-0.2-0.4
			c-0.1-0.1-0.2-0.3-0.2-0.4c-0.1-0.3-0.3-0.5-0.4-0.8c-0.2-0.4-0.3-0.9-0.5-1.3c-0.1-0.1-0.1-0.3-0.1-0.5c-0.1-0.1-0.1-0.3-0.2-0.5
			c0-0.2-0.1-0.3-0.1-0.5c-0.2-0.6-0.3-1.3-0.4-2c0-0.2,0-0.3,0-0.5c0-0.2,0-0.3,0-0.5c0-0.7-0.1-1.5,0-2.2c0-0.2,0-0.4,0-0.6
			c0-0.6,0.1-1.2,0.2-1.8c0.1-0.2,0.1-0.5,0.2-0.7c0.1-0.6,0.2-1.3,0.5-1.9c0.1-0.2,0.1-0.4,0.2-0.6c0.1-0.4,0.3-0.8,0.5-1.1
			c0.2-0.4,0.3-0.7,0.5-1.1c0.1-0.2,0.2-0.3,0.3-0.5c0.1-0.2,0.2-0.3,0.3-0.5c0.1-0.2,0.2-0.3,0.3-0.5c0.5-0.7,1.1-1.3,1.7-2
			c0.1-0.1,0.3-0.2,0.4-0.3c0.2-0.2,0.5-0.4,0.8-0.6c0.4-0.3,0.8-0.5,1.2-0.8c0.2-0.1,0.3-0.2,0.5-0.2c0.1-0.1,0.3-0.1,0.5-0.2
			c0.1-0.1,0.3-0.1,0.4-0.2c0.2-0.1,0.3-0.1,0.5-0.2c0.3-0.1,0.6-0.2,0.9-0.2c0.6-0.2,1.3-0.3,1.9-0.3c0.1,0,0.3,0,0.5,0
			c0.5-0.1,1.3-0.1,1.8,0c0.2,0,0.3,0,0.5,0c0.5,0,0.9,0.1,1.4,0.2c0.4,0.2,0.9,0.2,1.3,0.4c0.3,0.1,0.6,0.2,0.8,0.3
			c0.1,0.1,0.3,0.2,0.4,0.2c0.2,0.1,0.5,0.3,0.7,0.4c0.1,0.1,0.3,0.2,0.4,0.2c0.2,0.2,0.5,0.3,0.7,0.5c0.2,0.3,0.3,0.4,0.3,0.3
			c0.1-0.5,0.2-1.1,0.2-1.6c0.1-0.2,0.1-0.3,0.1-0.5c0-0.1,0-0.2,0.1-0.2c0.1-0.1,0.3-0.1,0.5-0.1c0.1,0,0.3,0,0.4,0
			c1.2-0.2,2.7-0.1,3.9,0c0.2,0,0.5,0,0.8,0c1.1,0,2.5,0.1,3.6,0.5c0.1,0,0.2,0.1,0.3,0.1c0.1,0.1,0.1,0.1,0.2,0.2l0,0
			c0,0.6,0.1,1.2,0,1.8c0,0.2,0,0.3,0,0.5c0,0.3-0.1,0.7-0.1,1c0,0.2,0,0.3,0,0.5c0,0.4-0.1,0.8-0.1,1.2c0,0.2,0,0.4,0,0.7
			c0,0.5-0.1,0.9-0.1,1.4c0,0.2,0,0.5,0,0.7c-0.1,0.8,0,1.6-0.1,2.4c0,1.2,0,2.4,0,3.5c0.1,0.8,0,1.7,0.1,2.5c0,0.3,0,0.5,0,0.8
			c0,0.5,0.1,1,0.1,1.6c0,0.2,0,0.5,0,0.7c0,0.2,0,0.5,0,0.7c0,0.2,0,0.4,0,0.7c0,0.2,0,0.4,0,0.7c0,0.2,0,0.4,0,0.6
			c0,0.2,0,0.4,0,0.6c0,0.2,0,0.4,0,0.6c0,0.3,0.1,0.7,0.1,1c0,0.2,0,0.3,0,0.5c0,0.2,0,0.3,0,0.5c0,0.3,0.1,0.5,0.1,0.8
			c0,0.2,0,0.5,0,0.7c0,0.4,0.1,1,0,1.4c0,0.1,0,0.1,0,0.1c0,0.1,0,0.1-0.1,0.1c-0.1,0-0.1,0.1-0.2,0.1c-0.1,0-0.2,0-0.3,0
			c-0.1,0-0.3,0.1-0.4,0.1c-0.1,0-0.3,0-0.5,0c-0.2,0-0.4,0-0.5,0c-1.5,0.2-3.4,0.2-4.9,0c-0.2,0-0.5,0-0.7,0c-0.2,0-0.5,0-0.7,0
			c-0.2,0-0.4,0-0.6,0c-0.2,0-0.4,0-0.6,0c-0.2,0-0.3,0-0.5,0c-0.1,0-0.3-0.1-0.4-0.1c-0.1,0-0.2,0-0.3,0c-0.1,0-0.2,0-0.2,0
			c-0.1,0-0.1-0.1-0.1-0.1c-0.1-0.1-0.1-0.2-0.2-0.3c-0.1-0.1-0.1-0.2-0.1-0.3c-0.1-0.2-0.1-0.3-0.1-0.5c0-0.2,0-0.4,0-0.5
			c0-0.2,0-0.4,0-0.6c-0.1-0.2-0.1-0.4,0-0.7C121.4,296.9,121.4,296.6,121.3,296.4C121.3,296.3,121.4,296.6,121.3,296.4z
			 M117.4,280.6c-0.4,0-0.7-0.1-1.1,0c-0.4,0.1-0.7,0.2-1,0.3c-0.4,0.2-1,0.6-1.3,0.9c-0.3,0.3-0.5,0.5-0.7,0.9
			c-0.2,0.3-0.4,0.6-0.5,1c-0.1,0.2-0.1,0.3-0.2,0.5c-0.1,0.6-0.1,1.1-0.1,1.6c0.1,0.5,0.2,1.1,0.5,1.5c0.1,0.2,0.2,0.3,0.3,0.5
			c0.4,0.6,0.9,1.1,1.5,1.4c0.3,0.2,0.6,0.3,0.9,0.4c0.9,0.3,1.8,0.1,2.7-0.2c0.2-0.1,0.4-0.1,0.5-0.2c0.2-0.1,0.3-0.2,0.5-0.3
			c0.2-0.1,0.3-0.2,0.5-0.3c0.3-0.2,0.6-0.5,0.8-0.8c0.3-0.4,0.6-1,0.7-1.5c0.1-0.4,0.1-0.8,0.2-1.1c0-0.4-0.1-0.8-0.1-1.1
			c-0.1-0.2-0.1-0.4-0.2-0.5c-0.1-0.2-0.2-0.3-0.2-0.5c-0.1-0.1-0.2-0.3-0.3-0.5c-0.2-0.2-0.5-0.5-0.7-0.7c-0.2-0.1-0.3-0.2-0.5-0.3
			c-0.3-0.2-0.7-0.4-1-0.5C118.1,280.8,117.8,280.7,117.4,280.6C117.2,280.6,117.6,280.7,117.4,280.6z"/>
	</g>
</g>
<g>
	<g>
		<path fill="#020202" d="M235.5,253.1C235.5,253.1,235.5,253.1,235.5,253.1c0.1,0.1,0.2,0.1,0.2,0.1c0,0.1,0.1,0.1,0.1,0.2
			c0.1,0.1,0.1,0.1,0.1,0.2c0.1,0.2,0.1,0.3,0.2,0.5c0.3,1,0.6,2.3,0.6,3.3c0.1,0.4,0.1,0.7,0.1,1.1c0.1,0.4,0.1,0.8,0.1,1.1
			c0,0.2,0.1,0.4,0.1,0.6c0,0.2,0,0.4,0,0.6c0,0.4,0.1,0.9,0.1,1.3c0,0.2,0,0.4,0,0.7c0,0.2,0,0.4,0,0.7c0,0.2,0,0.4,0,0.7
			c0,0.2,0,0.4,0,0.7c0,0.2,0,0.5,0,0.7c0,0.2,0,0.4,0,0.7c0,0.2,0,0.4,0,0.7c0,0.2,0,0.5,0,0.7c0,0.4,0.1,0.8,0.1,1.3
			c0,0.2,0,0.4,0,0.7c0,0.2,0,0.4,0,0.6c0,0.4,0.1,0.8,0.1,1.2c0,0.2,0,0.4,0,0.6c0.1,0.2,0.1,0.4,0,0.6c-0.1,0.2,0,0.4,0,0.5
			c0,0.1,0.1,0,0.3-0.2c0.1-0.1,0.2-0.2,0.4-0.2c0.1,0,0.2-0.1,0.4-0.2c0.2-0.1,0.5-0.2,0.7-0.3c0.1-0.1,0.3-0.1,0.4-0.2
			c0.1,0,0.3-0.1,0.4-0.1c0.3,0,0.6-0.1,0.9-0.2c0.2-0.1,0.3-0.1,0.5-0.1c0.3-0.1,0.6-0.1,0.9-0.1c0.3,0,0.6-0.1,1,0
			c0.2,0,0.3,0,0.5,0c0.3,0,0.6,0.1,1,0c0.2,0,0.3,0,0.5,0c0.2,0,0.3,0.1,0.5,0.1c0.3,0,0.7,0.1,1,0.2c0.3,0,0.6,0.1,1,0.2
			c0.7,0.1,1.3,0.4,1.9,0.6c0.2,0.1,0.3,0.2,0.5,0.2c0.1,0.1,0.3,0.2,0.5,0.2c0.2,0.1,0.3,0.2,0.5,0.2c0.2,0.1,0.3,0.2,0.5,0.2
			c0.2,0.1,0.3,0.2,0.5,0.2c0.1,0.1,0.3,0.2,0.4,0.3c0.2,0.1,0.3,0.2,0.5,0.3c0.6,0.4,1.1,0.9,1.6,1.4c0.1,0.1,0.2,0.2,0.4,0.4
			c0.2,0.3,0.5,0.6,0.7,0.8c0.2,0.3,0.4,0.6,0.6,0.9c0.1,0.1,0.2,0.3,0.3,0.5c0.2,0.3,0.4,0.7,0.5,1c0.2,0.3,0.3,0.7,0.5,1.1
			c0.3,0.7,0.6,1.6,0.7,2.3c0.2,0.6,0.2,1.4,0.2,2c0.1,0.8,0,1.7,0,2.5c0,0.2,0,0.4,0,0.6c0,0.2,0,0.4,0,0.6
			c-0.1,0.5-0.2,1.1-0.2,1.6c-0.2,0.5-0.3,1-0.4,1.5c-0.2,0.6-0.4,1.3-0.7,1.9c-0.1,0.1-0.1,0.3-0.2,0.5c-0.1,0.1-0.1,0.3-0.2,0.4
			c-0.2,0.4-0.4,0.8-0.7,1.2c-0.1,0.1-0.2,0.3-0.2,0.4c-0.2,0.2-0.4,0.5-0.5,0.7c-0.1,0.1-0.2,0.2-0.3,0.3c-0.1,0.1-0.2,0.2-0.3,0.3
			c-0.1,0.1-0.2,0.2-0.3,0.3c-0.1,0.1-0.2,0.2-0.3,0.3c-0.1,0.1-0.2,0.2-0.3,0.2c-0.2,0.2-0.4,0.4-0.7,0.5c-0.2,0.2-0.4,0.3-0.7,0.5
			c-0.1,0.1-0.2,0.2-0.4,0.2c-0.1,0.1-0.2,0.2-0.4,0.2c-0.1,0.1-0.2,0.1-0.4,0.2c-0.1,0.1-0.2,0.1-0.4,0.2c-0.1,0-0.3,0.1-0.4,0.1
			c-0.1,0.1-0.3,0.1-0.4,0.1c-0.1,0.1-0.3,0.1-0.4,0.1c-0.5,0.2-1.1,0.3-1.7,0.3c-0.1,0-0.3,0-0.4,0c-0.5,0.1-1.2,0.1-1.7,0
			c-0.2,0-0.3,0-0.5,0c-0.6,0-1.3-0.1-1.8-0.3c-0.3-0.1-0.6-0.2-0.9-0.2c-0.3-0.1-0.6-0.2-0.9-0.4c-0.1-0.1-0.3-0.1-0.5-0.2
			c-0.1-0.1-0.3-0.2-0.5-0.2c-0.1-0.1-0.3-0.1-0.5-0.2c-0.3-0.2-0.6-0.3-0.9-0.5c-0.2-0.1-0.3-0.2-0.5-0.3c-0.2-0.3-0.4-0.4-0.5-0.3
			c-0.1,0.2-0.1,0.5,0.1,0.8c0.1,0.1,0.1,0.3,0.2,0.5c0,0.1,0,0.2,0.1,0.2c0.1,0.1,0.1,0.2,0,0.3c-0.1,0.1-0.2,0.2-0.3,0.2
			c0,0-0.1,0.1-0.1,0.1c-0.1,0-0.2,0.1-0.2,0.1c-0.1,0-0.3,0-0.4,0c-0.3,0.1-0.6,0.1-0.9,0.1c-0.4,0.1-0.8,0.1-1.2,0.1
			c-0.2,0-0.4,0-0.7,0c-0.2,0-0.4,0-0.7,0c-0.5,0-1,0.1-1.5,0c-0.7,0.1-1.5,0-2.2,0c-0.5,0-0.9-0.1-1.4-0.1c-0.4,0-0.8-0.1-1.2-0.1
			c-0.2,0-0.3,0-0.5-0.1c-0.1,0-0.3-0.1-0.5-0.1c-0.1,0-0.2-0.1-0.4-0.1c-0.1,0-0.2-0.1-0.3-0.1c-0.1,0-0.2-0.1-0.2-0.1
			c0-0.1-0.1-0.1-0.1-0.2c0-0.1,0-0.1,0-0.1c0-0.1,0-0.2,0-0.2c-0.1-0.2,0-0.4,0-0.6c-0.1-0.3,0-0.6-0.1-0.9c0-0.4,0-0.7,0-1.1
			c-0.1-0.6,0-1.2-0.1-1.7c0-0.8,0.1-1.7,0-2.6c0-1.6,0.2-3.3,0-4.9c0-2.1-0.2-4.3,0-6.3c0-1.7,0-3.4,0-5.2c0.1-1.2-0.1-2.5,0.1-3.7
			c0-0.7,0-1.5,0-2.2c0-0.7,0-1.4,0-2.1c0-0.5,0-0.9,0-1.4c0-0.5,0.1-0.9,0-1.4c0-0.4,0.1-0.8,0-1.3c0-0.4,0.1-0.8,0-1.3
			c0-0.4,0.1-0.8,0.1-1.2c0-0.4,0-0.8,0-1.1c0-0.2,0-0.4,0-0.5c0-0.4,0.1-0.7,0.1-1.1c0-0.2,0-0.3,0-0.5c0-0.3,0.1-0.7,0.1-1
			c0-0.1,0-0.3,0-0.4c0-0.2,0-0.3,0-0.5c0-0.1,0-0.3,0-0.4c0-0.2,0.1-0.5,0.1-0.7c0-0.1,0-0.2,0-0.3c0-0.1,0-0.2,0-0.3
			c0-0.1,0-0.2,0-0.3c0-0.1,0-0.2,0-0.2c0-0.1,0-0.2,0-0.2c0-0.1,0-0.1,0-0.2c0-0.1,0-0.1,0-0.2c0-0.1,0-0.1,0-0.2c0,0,0-0.1,0-0.1
			c0,0,0-0.1,0-0.1c0,0,0-0.1,0-0.1c0,0,0,0,0,0c0.6-0.3,1.6-0.4,2.2-0.4c0.2,0,0.3,0,0.5,0c0.5-0.1,1,0,1.5,0c0.2,0,0.4,0,0.5,0
			c0.2,0,0.3,0,0.5,0c0.4,0.1,0.7,0.1,1.1,0.2c0.2,0.1,0.4,0.1,0.6,0.1C234.7,252.9,235.1,253,235.5,253.1
			C235.5,253.1,235.3,253,235.5,253.1z M240.5,285.9c0.1,0.7,0.4,1.4,0.9,2c0.5,0.6,1.1,1,1.8,1.4c0.5,0.2,1,0.3,1.5,0.4
			c0.3,0,0.6,0,0.8,0c0.2,0,0.4-0.1,0.5-0.1c0.2-0.1,0.3-0.1,0.5-0.2c0.2-0.1,0.3-0.1,0.5-0.2c0.2-0.1,0.3-0.2,0.5-0.3
			c0.1-0.1,0.3-0.2,0.4-0.4c0.3-0.3,0.5-0.5,0.7-0.9c0.3-0.5,0.4-1,0.6-1.6c0-0.2,0.1-0.4,0.1-0.6c0-0.4,0-0.8-0.1-1.2
			c0-0.2-0.1-0.4-0.1-0.7c-0.2-0.4-0.3-0.7-0.5-1.1c-0.1-0.2-0.2-0.3-0.3-0.5c-0.3-0.3-0.5-0.5-0.8-0.8c-0.1-0.1-0.3-0.2-0.5-0.2
			c-0.1-0.1-0.3-0.2-0.5-0.2c-0.2-0.1-0.4-0.1-0.5-0.2c-0.5-0.1-1.1-0.1-1.6-0.1c-0.3,0-0.7,0.1-1,0.2c-0.1,0.1-0.3,0.1-0.4,0.2
			c-0.1,0.1-0.3,0.2-0.4,0.2c-0.3,0.2-0.5,0.4-0.8,0.7c-0.2,0.3-0.4,0.6-0.6,0.9c-0.1,0.2-0.2,0.3-0.2,0.5c-0.2,0.3-0.3,0.7-0.3,1.1
			c-0.1,0.4-0.1,0.8-0.1,1.1C240.4,285.5,240.5,285.7,240.5,285.9C240.6,286.1,240.5,285.7,240.5,285.9z"/>
		<path fill="#020202" d="M268.8,251.7c0.4,0.1,0.7,0.3,1,0.5c0.1,0.1,0.3,0.2,0.5,0.3c0.1,0.1,0.3,0.2,0.4,0.3
			c0.1,0.1,0.3,0.2,0.4,0.3c0.5,0.4,0.9,1.1,1.2,1.6c0.1,0.1,0.2,0.3,0.2,0.5c0.1,0.1,0.1,0.3,0.2,0.5c0.1,0.2,0.1,0.3,0.2,0.5
			c0.2,0.6,0.2,1.3,0.2,2c0,0.2,0,0.3,0,0.5c0,0.2-0.1,0.3-0.1,0.5c-0.1,0.5-0.2,1.1-0.5,1.5c-0.1,0.2-0.2,0.3-0.2,0.5
			c-0.1,0.2-0.2,0.3-0.3,0.5c-0.2,0.3-0.4,0.6-0.6,0.8c-0.4,0.3-0.7,0.7-1.2,1c-0.1,0.1-0.3,0.2-0.5,0.3c-0.1,0.1-0.3,0.2-0.5,0.2
			c-0.1,0.1-0.3,0.2-0.5,0.2c-0.8,0.3-1.7,0.6-2.6,0.6c-0.2,0-0.4,0-0.6,0c-0.2,0-0.3,0-0.5,0c-0.6-0.1-1.1-0.1-1.7-0.4
			c-0.2-0.1-0.4-0.1-0.5-0.2c-0.2-0.1-0.3-0.2-0.5-0.3c-0.1-0.1-0.3-0.2-0.4-0.3c-0.1-0.1-0.3-0.2-0.4-0.4c-0.3-0.3-0.5-0.5-0.7-0.9
			c-0.5-0.7-0.9-1.7-1-2.5c-0.1-0.2-0.1-0.4-0.1-0.5c0-0.2-0.1-0.4-0.1-0.5c0-0.4,0-0.7,0-1.1c0-0.2,0-0.3,0-0.5
			c0-0.2,0.1-0.3,0.1-0.5c0.1-0.3,0.2-0.6,0.3-0.9c0.1-0.2,0.1-0.3,0.2-0.5c0.1-0.3,0.3-0.6,0.5-0.9c0.1-0.2,0.2-0.3,0.3-0.4
			c0.1-0.1,0.2-0.3,0.3-0.4c0.1-0.1,0.2-0.2,0.4-0.4c0.3-0.2,0.5-0.4,0.8-0.6c0.1-0.1,0.3-0.2,0.5-0.3c0.1-0.1,0.3-0.2,0.5-0.2
			c0.4-0.3,1-0.4,1.5-0.5c0.3-0.1,0.7-0.1,1-0.1C267.1,251.1,268.1,251.3,268.8,251.7C269,251.7,268.7,251.6,268.8,251.7z
			 M262.1,271c0,0,0,0.1,0,0.1c0,0.1-0.1,0.2-0.1,0.4c0,0.1-0.1,0.2-0.1,0.2c0,0.1,0,0.2,0,0.3c0,0.1,0,0.2,0,0.3
			c-0.1,0.3-0.1,0.5-0.1,0.8c-0.1,0.3-0.1,0.6-0.1,0.9c-0.1,0.3-0.1,0.7-0.2,1c0,0.6-0.2,1.2-0.2,1.8c-0.1,0.4-0.1,0.8-0.2,1.3
			c0,0.7-0.2,1.4-0.2,2.1c-0.1,0.5-0.1,1-0.1,1.4c-0.1,0.5-0.1,1-0.1,1.5c0,0.2-0.1,0.5-0.1,0.7c0,0.5-0.1,1-0.1,1.5
			c0,0.3-0.1,0.5-0.1,0.8c0,0.2,0,0.5,0,0.7c0,0.5-0.1,1-0.1,1.5c0,0.5-0.1,1-0.1,1.5c0,0.2,0,0.5,0,0.7c0,0.2,0,0.5,0,0.7
			c0,0.2,0,0.5,0,0.7c-0.1,0.6,0,1.3-0.1,1.9c0,1.1-0.1,2.2,0,3.3c0,0.3,0,0.6,0,0.9c0,0.1,0,0.2,0,0.4c0,0.1,0,0.2,0,0.3
			c0,0.1,0,0.2,0,0.3c0,0.1,0,0.2,0,0.2c0,0.1,0.1,0.2,0.1,0.2c0,0.2,0.1,0.3,0.2,0.4c0.1,0,0.2,0.1,0.2,0.1
			c0.2,0.1,0.5,0.2,0.7,0.2c0.3,0.1,0.7,0.1,1,0.1c0.2,0,0.4,0.1,0.6,0.1c0.2,0,0.4,0,0.6,0c0.2,0,0.4,0,0.7,0c0.2,0,0.4,0,0.7,0
			c0.5,0,0.9,0,1.4,0c0.5,0,0.9,0.1,1.4,0c0.6-0.1,1.3,0,1.9-0.1c0.2,0,0.4,0,0.6,0c0.2,0,0.3,0,0.5,0c0.3,0,0.6,0,0.9-0.1
			c0.2,0,0.4-0.1,0.6-0.2c0.1,0,0.1,0,0.1,0c0.1,0,0.1-0.1,0.1-0.1c0-0.1,0-0.1,0-0.2c0.1-0.2,0.2-0.5,0.2-0.7
			c0-0.1,0.1-0.2,0.1-0.3c0-0.1,0-0.2,0-0.4c0-0.1,0-0.3,0-0.4c0-0.2,0-0.3,0-0.5c0-0.1,0-0.3,0-0.5c0-0.2,0-0.3,0-0.5
			c0-0.4,0.1-0.7,0.1-1.1c0-0.8-0.1-1.6,0-2.4c0-0.4,0-0.9,0-1.3c0-0.9,0.1-1.9,0-2.8c0-0.5,0-1,0-1.5c0-0.2,0-0.5,0-0.7
			c0-0.5-0.1-1-0.1-1.5c0-0.2,0-0.5,0-0.8c0-0.2,0-0.5,0-0.7c0-0.2,0-0.5,0-0.7c0-0.2,0-0.5,0-0.7c0-0.2,0-0.5,0-0.7
			c0-0.2,0-0.5,0-0.7c0-0.2,0-0.5,0-0.7c0-0.2,0-0.5,0-0.7c0-0.2-0.1-0.4-0.1-0.7c0-0.2,0-0.4,0-0.7c0-0.2,0-0.4,0-0.7
			c0-0.4-0.1-0.8-0.1-1.2c0-0.2-0.1-0.4-0.1-0.6c0-0.2,0-0.4,0-0.6c0-0.3-0.1-0.7-0.1-1c0-0.1-0.1-0.3-0.1-0.5c0-0.1,0-0.3,0-0.4
			c0-0.3-0.1-0.5-0.1-0.8c0-0.1,0-0.2,0-0.3c0-0.1-0.1-0.2-0.1-0.3c0-0.1,0-0.2,0-0.2c0-0.1,0-0.1,0-0.2c0-0.1-0.1-0.2-0.1-0.2l0,0
			c-0.1-0.1-0.1-0.1-0.2-0.1c-0.7-0.3-1.6-0.3-2.4-0.5c-0.2,0-0.5,0-0.7,0c-0.2,0-0.4,0-0.7,0c-0.2,0-0.5,0-0.7,0
			c-0.7-0.1-1.4-0.1-2.1,0c-0.2,0-0.4,0-0.6,0c-0.5,0-1.4,0-1.8,0.3C262.3,270.8,262.2,270.9,262.1,271
			C262.1,271,262.1,271,262.1,271C262.1,271,262.1,271,262.1,271z"/>
	</g>
</g>
</svg>
