<?xml version="1.0" encoding="utf-8"?>
<!-- Generator: Adobe Illustrator 18.0.0, SVG Export Plug-In . SVG Version: 6.00 Build 0)  -->
<!DOCTYPE svg PUBLIC "-//W3C//DTD SVG 1.0//EN" "http://www.w3.org/TR/2001/REC-SVG-20010904/DTD/svg10.dtd">
<svg version="1.0" id="Camada_1" xmlns="http://www.w3.org/2000/svg" xmlns:xlink="http://www.w3.org/1999/xlink" x="0px" y="0px"
	 viewBox="0 0 339.8 331.2" enable-background="new 0 0 339.8 331.2" xml:space="preserve">
<image overflow="visible" width="1500" height="1500" xlink:href="../../../Desenhos Jogo Yegatu/png2/daridari.png"  transform="matrix(0.2292 0 0 0.2292 -4.3925 -31.3226)">
</image>
<g>
	<path fill="#F1CC5A" d="M118.2,318.5H52.1c-5.5,0-10-4.5-10-10v-55.2c0-5.5,4.5-10,10-10h66.1c5.5,0,10,4.5,10,10v55.2
		C128.2,314,123.7,318.5,118.2,318.5z"/>
	<path fill="#FFEDBB" d="M113.3,312.1H57c-5.5,0-10-4.5-10-10v-42.2c0-5.5,4.5-10,10-10h56.3c5.5,0,10,4.5,10,10v42.2
		C123.3,307.6,118.8,312.1,113.3,312.1z"/>
</g>
<g>
	<g>
		<path fill="#020202" d="M132.8,300.5c-0.1,0-0.1-0.1-0.1-0.2c0-0.1-0.1-0.1-0.1-0.2c0-0.1,0-0.2,0-0.2c0-0.1,0-0.2,0-0.3
			c0-0.1-0.1-0.2-0.1-0.3c0-0.1,0-0.3,0-0.4c0-0.1,0-0.3,0-0.4c0-0.1,0-0.3,0-0.5c0-0.3-0.1-0.6-0.1-0.9c0-0.4,0-0.7,0-1.1
			c0-0.4,0-0.8,0-1.1c-0.2-1.7,0-3.5,0-5.3c0.1-0.9,0-1.8,0-2.7c0.1-0.6,0-1.3,0-2c0-0.5,0.1-1,0-1.4c0-0.5,0.1-1,0-1.4
			c0-0.5,0.1-1,0.1-1.4c0-0.2,0-0.5,0-0.7c0-0.5,0.1-0.9,0.1-1.4c0-0.2,0-0.5,0-0.7c0-0.2,0-0.4,0-0.7c0-0.2,0-0.4,0-0.6
			c0-0.2,0-0.4,0-0.6c0-0.4,0.1-0.8,0.1-1.1c0-0.2,0-0.4,0-0.5c0-0.2,0-0.3,0-0.5c0-0.2,0-0.3,0-0.5c0-0.1,0-0.3,0-0.4
			c0-0.1,0-0.3,0-0.4c0-0.1,0-0.2,0-0.3c0-0.1,0-0.2,0-0.3c0-0.1,0-0.2,0-0.2c0-0.1,0-0.2,0-0.2c0-0.1,0-0.1,0-0.2
			c0-0.1,0-0.1,0.1-0.2c0.1-0.1,0.1-0.1,0.2-0.1c0.1,0,0.2-0.1,0.3-0.1c0.9-0.2,1.9-0.4,2.8-0.4c0.2,0,0.5-0.1,0.7-0.1
			c0.2,0,0.5,0,0.7,0c0.2,0,0.5,0,0.7,0c0.7-0.1,1.4-0.1,2.1,0c0.2,0,0.4,0,0.6,0c0.2,0,0.3,0,0.5,0c0.3,0.1,0.6,0.1,0.9,0.2
			c0.1,0.1,0.2,0.2,0.2,0.2c0.1,0.1,0.2,0.2,0.2,0.3c0.2,0.3,0.3,0.6,0.5,0.9c0.1,0.2,0.2,0.4,0.2,0.6c0.1,0.2,0.2,0.5,0.1,0.7
			c-0.1,0.4-0.1,0.7,0,0.9c0.1,0.1,0.3-0.1,0.6-0.5c0.1-0.1,0.3-0.3,0.5-0.4c0.2-0.1,0.3-0.2,0.5-0.4c0.2-0.1,0.3-0.2,0.5-0.3
			c0.2-0.1,0.3-0.2,0.5-0.4c0.3-0.2,0.7-0.4,1.1-0.5c0.2-0.1,0.3-0.2,0.5-0.2c0.2-0.1,0.4-0.2,0.5-0.2c0.5-0.2,1-0.4,1.5-0.5
			c0.8-0.3,1.6-0.2,2.4-0.4c0.3,0,0.6,0,0.9,0c0.1,0,0.3,0,0.5,0c0.7,0,1.5,0.2,2.1,0.4c0.3,0.1,0.5,0.2,0.7,0.3
			c0.1,0,0.3,0.1,0.4,0.1c0.1,0.1,0.2,0.1,0.3,0.2c0.1,0.1,0.3,0.1,0.4,0.2c0.2,0.1,0.5,0.2,0.7,0.4c0.1,0.1,0.2,0.1,0.3,0.2
			c0.1,0.1,0.2,0.1,0.3,0.2c0.5,0.3,0.9,0.8,1.4,1.1c0.2,0.2,0.5,0.5,0.7,0.7c0.2,0.2,0.4,0.4,0.5,0.7c0.1,0.1,0.1,0.1,0.2,0.2
			c0,0.1,0.1,0.2,0.1,0.2c0,0.1,0.1,0.2,0.1,0.2c0,0.1,0.1,0.1,0.1,0.2c0,0.1,0.1,0.1,0.1,0.2c0.1,0.1,0.1,0.2,0.1,0.4
			c0,0.1,0,0.2,0,0.2c0.1,0.2,0,0.4,0,0.6c0,0,0,0.1,0,0.1c-0.1,0.1-0.1,0.1-0.2,0.2c-0.1,0.1-0.1,0.1-0.2,0.2
			c-0.1,0.1-0.2,0.2-0.2,0.2c-0.1,0.1-0.2,0.2-0.3,0.3c-0.4,0.3-0.8,0.8-1.2,1.1c-0.2,0.2-0.3,0.3-0.5,0.5c-0.5,0.5-1,1-1.5,1.5
			c-0.3,0.3-0.7,0.6-1,0.9c-0.3,0.3-0.6,0.6-0.9,0.9c-0.1,0.1-0.3,0.2-0.5,0.4c-0.1,0.1-0.2,0.2-0.4,0.3c-0.1,0.1-0.2,0.2-0.3,0.3
			c-0.2,0.1-0.4,0.3-0.5,0.4c-0.1,0-0.1,0-0.2,0c0,0-0.1,0-0.1,0c-0.1-0.2-0.3-0.3-0.4-0.5c-0.1-0.2-0.3-0.3-0.4-0.5
			c-0.1-0.1-0.3-0.3-0.4-0.5c-0.1-0.1-0.2-0.3-0.4-0.5c-0.1-0.1-0.3-0.3-0.4-0.4c-0.1-0.1-0.2-0.2-0.4-0.4c-0.3-0.2-0.6-0.4-0.8-0.7
			c-0.2-0.2-0.5-0.4-0.8-0.5c-0.3-0.1-0.5-0.3-0.8-0.4c-0.4-0.1-0.8-0.2-1.3-0.1c-0.2,0-0.3,0-0.5,0c-0.2,0.1-0.3,0.1-0.5,0.2
			c-0.1,0-0.3,0.1-0.4,0.2c-0.3,0.1-0.5,0.3-0.7,0.5c-0.2,0.2-0.4,0.4-0.6,0.6c-0.1,0.1-0.2,0.3-0.2,0.4c-0.1,0.1-0.2,0.3-0.2,0.4
			c-0.1,0.1-0.1,0.3-0.2,0.4c-0.1,0.2-0.1,0.3-0.2,0.5c-0.2,0.5-0.2,1-0.4,1.5c-0.1,0.4-0.1,0.7-0.1,1.1c0,0.2,0,0.4,0,0.6
			c0,0.4-0.1,0.8-0.1,1.2c0,0.4,0,0.8,0,1.2c0,0.2,0,0.4,0,0.6c0,0.2,0,0.4,0,0.6c0,0.2,0,0.4,0,0.6c0,0.2,0,0.4,0,0.6
			c0.1,0.4,0.1,0.8,0.1,1.2c0.1,1.1,0.3,2.3,0.5,3.4c0,0.6,0.2,1.2,0.3,1.8c0,0.2,0.1,0.5,0.1,0.7c0,0.1,0,0.2,0,0.3
			c0,0.1,0,0.2,0,0.3c0,0.1,0.1,0.8,0,0.8c0,0-0.1,0.1-0.1,0.1c-0.2,0-0.3,0.1-0.5,0.1c-0.3,0.1-0.5,0.1-0.8,0.1
			c-0.2,0-0.4,0.1-0.5,0.1c-0.4,0-0.8,0.1-1.2,0.1c-0.2,0-0.4,0.1-0.7,0.1c-0.2,0-0.5,0-0.7,0c-0.2,0-0.5,0-0.7,0
			c-0.2,0-0.5,0-0.7,0c-0.2,0-0.5,0-0.7,0c-0.2,0-0.5,0-0.7,0c-0.2,0-0.5,0-0.7,0c-0.7,0.1-1.4,0-2.1,0.1c-0.2,0-0.4,0-0.6,0
			c-0.5-0.1-1,0-1.5-0.1c-0.1,0-0.3,0-0.4,0c-0.1,0-0.2,0-0.3,0C132.9,300.6,132.9,300.6,132.8,300.5
			C132.8,300.5,132.9,300.6,132.8,300.5z"/>
		<path fill="#020202" d="M173,251.7c0.4,0.1,0.7,0.3,1,0.5c0.1,0.1,0.3,0.2,0.5,0.3c0.1,0.1,0.3,0.2,0.4,0.3
			c0.1,0.1,0.3,0.2,0.4,0.3c0.5,0.4,0.9,1.1,1.2,1.6c0.1,0.1,0.2,0.3,0.2,0.5c0.1,0.1,0.1,0.3,0.2,0.5c0.1,0.2,0.1,0.3,0.2,0.5
			c0.2,0.6,0.2,1.3,0.2,2c0,0.2,0,0.3,0,0.5c0,0.2-0.1,0.3-0.1,0.5c-0.1,0.5-0.2,1.1-0.5,1.5c-0.1,0.2-0.2,0.3-0.2,0.5
			c-0.1,0.2-0.2,0.3-0.3,0.5c-0.2,0.3-0.4,0.6-0.6,0.8c-0.4,0.3-0.7,0.7-1.2,1c-0.1,0.1-0.3,0.2-0.5,0.3c-0.1,0.1-0.3,0.2-0.5,0.2
			c-0.1,0.1-0.3,0.2-0.5,0.2c-0.8,0.3-1.7,0.6-2.6,0.6c-0.2,0-0.4,0-0.6,0c-0.2,0-0.3,0-0.5,0c-0.6-0.1-1.1-0.1-1.7-0.4
			c-0.2-0.1-0.4-0.1-0.5-0.2c-0.2-0.1-0.3-0.2-0.5-0.3c-0.1-0.1-0.3-0.2-0.4-0.3c-0.1-0.1-0.3-0.2-0.4-0.4c-0.3-0.3-0.5-0.5-0.7-0.9
			c-0.5-0.7-0.9-1.7-1-2.5c-0.1-0.2-0.1-0.4-0.1-0.5c0-0.2-0.1-0.4-0.1-0.5c0-0.4,0-0.7,0-1.1c0-0.2,0-0.3,0-0.5
			c0-0.2,0.1-0.3,0.1-0.5c0.1-0.3,0.2-0.6,0.3-0.9c0.1-0.2,0.1-0.3,0.2-0.5c0.1-0.3,0.3-0.6,0.5-0.9c0.1-0.2,0.2-0.3,0.3-0.4
			c0.1-0.1,0.2-0.3,0.3-0.4c0.1-0.1,0.2-0.2,0.4-0.4c0.3-0.2,0.5-0.4,0.8-0.6c0.1-0.1,0.3-0.2,0.5-0.3c0.1-0.1,0.3-0.2,0.5-0.2
			c0.4-0.3,1-0.4,1.5-0.5c0.3-0.1,0.7-0.1,1-0.1C171.3,251.1,172.3,251.3,173,251.7C173.2,251.7,172.9,251.6,173,251.7z M166.3,271
			c0,0,0,0.1,0,0.1c0,0.1-0.1,0.2-0.1,0.4c0,0.1-0.1,0.2-0.1,0.2c0,0.1,0,0.2,0,0.3c0,0.1,0,0.2,0,0.3c-0.1,0.3-0.1,0.5-0.1,0.8
			c-0.1,0.3-0.1,0.6-0.1,0.9c-0.1,0.3-0.1,0.7-0.2,1c0,0.6-0.2,1.2-0.2,1.8c-0.1,0.4-0.1,0.8-0.2,1.3c0,0.7-0.2,1.4-0.2,2.1
			c-0.1,0.5-0.1,1-0.1,1.4c-0.1,0.5-0.1,1-0.1,1.5c0,0.2-0.1,0.5-0.1,0.7c0,0.5-0.1,1-0.1,1.5c0,0.3-0.1,0.5-0.1,0.8
			c0,0.2,0,0.5,0,0.7c0,0.5-0.1,1-0.1,1.5c0,0.5-0.1,1-0.1,1.5c0,0.2,0,0.5,0,0.7c0,0.2,0,0.5,0,0.7c0,0.2,0,0.5,0,0.7
			c-0.1,0.6,0,1.3-0.1,1.9c0,1.1-0.1,2.2,0,3.3c0,0.3,0,0.6,0,0.9c0,0.1,0,0.2,0,0.4c0,0.1,0,0.2,0,0.3c0,0.1,0,0.2,0,0.3
			c0,0.1,0,0.2,0,0.2c0,0.1,0.1,0.2,0.1,0.2c0,0.2,0.1,0.3,0.2,0.4c0.1,0,0.2,0.1,0.2,0.1c0.2,0.1,0.5,0.2,0.7,0.2
			c0.3,0.1,0.7,0.1,1,0.1c0.2,0,0.4,0.1,0.6,0.1c0.2,0,0.4,0,0.6,0c0.2,0,0.4,0,0.7,0c0.2,0,0.4,0,0.7,0c0.5,0,0.9,0,1.4,0
			c0.5,0,0.9,0.1,1.4,0c0.6-0.1,1.3,0,1.9-0.1c0.2,0,0.4,0,0.6,0c0.2,0,0.3,0,0.5,0c0.3,0,0.6,0,0.9-0.1c0.2,0,0.4-0.1,0.6-0.2
			c0.1,0,0.1,0,0.1,0c0.1,0,0.1-0.1,0.1-0.1c0-0.1,0-0.1,0-0.2c0.1-0.2,0.2-0.5,0.2-0.7c0-0.1,0.1-0.2,0.1-0.3c0-0.1,0-0.2,0-0.4
			c0-0.1,0-0.3,0-0.4c0-0.2,0-0.3,0-0.5c0-0.1,0-0.3,0-0.5c0-0.2,0-0.3,0-0.5c0-0.4,0.1-0.7,0.1-1.1c0-0.8-0.1-1.6,0-2.4
			c0-0.4,0-0.9,0-1.3c0-0.9,0.1-1.9,0-2.8c0-0.5,0-1,0-1.5c0-0.2,0-0.5,0-0.7c0-0.5-0.1-1-0.1-1.5c0-0.2,0-0.5,0-0.8
			c0-0.2,0-0.5,0-0.7c0-0.2,0-0.5,0-0.7c0-0.2,0-0.5,0-0.7c0-0.2,0-0.5,0-0.7c0-0.2,0-0.5,0-0.7c0-0.2,0-0.5,0-0.7
			c0-0.2,0-0.5,0-0.7c0-0.2-0.1-0.4-0.1-0.7c0-0.2,0-0.4,0-0.7c0-0.2,0-0.4,0-0.7c0-0.4-0.1-0.8-0.1-1.2c0-0.2-0.1-0.4-0.1-0.6
			c0-0.2,0-0.4,0-0.6c0-0.3-0.1-0.7-0.1-1c0-0.1-0.1-0.3-0.1-0.5c0-0.1,0-0.3,0-0.4c0-0.3-0.1-0.5-0.1-0.8c0-0.1,0-0.2,0-0.3
			c0-0.1-0.1-0.2-0.1-0.3c0-0.1,0-0.2,0-0.2c0-0.1,0-0.1,0-0.2c0-0.1-0.1-0.2-0.1-0.2l0,0c-0.1-0.1-0.1-0.1-0.2-0.1
			c-0.7-0.3-1.6-0.3-2.4-0.5c-0.2,0-0.5,0-0.7,0c-0.2,0-0.4,0-0.7,0c-0.2,0-0.5,0-0.7,0c-0.7-0.1-1.4-0.1-2.1,0c-0.2,0-0.4,0-0.6,0
			c-0.5,0-1.4,0-1.8,0.3C166.5,270.8,166.4,270.9,166.3,271C166.3,271,166.3,271,166.3,271C166.3,271,166.3,271,166.3,271z"/>
		<path fill="#020202" d="M211.6,253C211.6,253,211.6,253,211.6,253C211.7,253,211.7,253,211.6,253c0.1,0.1,0.1,0.2,0.2,0.2
			c0,0.1,0,0.1,0,0.1c0,0.1,0,0.1,0,0.2c0,0.1,0,0.1,0,0.2c0,0.1,0,0.1,0,0.2c0,0.1,0,0.2,0,0.2c0,0.1,0,0.2,0,0.3
			c0,0.1,0,0.2,0,0.3c0,0.1,0,0.2,0,0.3c0,0.1,0,0.2,0,0.3c0,0.1,0,0.3,0,0.4c0,0.3,0.1,0.5,0.1,0.8c0,0.1,0,0.3,0,0.4
			c0,0.2,0,0.3,0,0.5c0,0.3,0.1,0.7,0.1,1c0,0.2,0,0.3,0,0.5c0,0.2,0,0.4,0,0.5c0,0.4,0.1,0.7,0.1,1.1c0,0.4,0,0.8,0,1.2
			c0,0.2,0,0.4,0,0.6c0,0.4,0.1,0.8,0,1.2c0,0.4,0.1,0.9,0,1.3c0,0.5,0.1,0.9,0,1.4c0.1,0.7,0,1.4,0.1,2.1c0,0.5,0,1,0,1.4
			c0.1,1,0,1.9,0.1,2.9c0,1-0.1,2,0,3c0,1.7-0.2,3.5,0,5.3c0,2.5,0.3,5.2,0,7.7c0,1.4,0,2.8,0,4.2c-0.1,0.8,0.1,1.7-0.1,2.5
			c0,0.4,0,0.8,0,1.3c-0.1,0.3,0,0.7,0,1.1c-0.1,0.3,0,0.6,0,0.9c-0.1,0.2,0,0.4-0.1,0.7c0,0.1,0,0.3,0,0.4c0,0.1-0.1,0.2-0.3,0.3
			c-0.1,0.1-0.2,0.1-0.3,0.2c-0.1,0-0.2,0.1-0.4,0.1c-0.5,0.2-1.1,0.2-1.6,0.2c-0.2,0-0.4,0-0.6,0c-0.2,0-0.4,0-0.7,0
			c-1,0.1-1.9,0-2.9,0c-0.5,0-1-0.1-1.5-0.1c-0.2,0-0.4,0-0.7,0c-0.2,0-0.4,0-0.7,0c-0.4,0-0.8-0.1-1.2-0.1
			c-0.3-0.1-0.6-0.1-0.9-0.1c-0.2,0-0.4-0.1-0.6-0.2c0,0-0.1-0.1-0.1-0.1c-0.1-0.1-0.2-0.1-0.3-0.2c-0.1-0.1-0.1-0.2,0-0.3
			c0.1-0.1,0.1-0.2,0.1-0.2c0-0.2,0.1-0.4,0.2-0.5c0.2-0.4,0.2-0.6,0.1-0.8c-0.1-0.1-0.2,0-0.5,0.3c-0.3,0.2-0.6,0.4-0.9,0.6
			c-0.3,0.2-0.6,0.3-0.9,0.5c-0.2,0.1-0.3,0.1-0.5,0.2c-0.2,0.1-0.3,0.1-0.5,0.2c-0.5,0.2-0.9,0.4-1.4,0.5c-0.2,0.1-0.3,0.1-0.5,0.1
			c-0.6,0.2-1.2,0.3-1.8,0.3c-0.1,0-0.3,0-0.5,0c-0.5,0.1-1.2,0.1-1.7,0c-0.1,0-0.3,0-0.4,0c-0.5,0-1.1-0.2-1.7-0.3
			c-0.1-0.1-0.3-0.1-0.4-0.1c-0.1-0.1-0.3-0.1-0.4-0.2c-0.3-0.1-0.5-0.2-0.8-0.3c-0.1-0.1-0.3-0.1-0.4-0.2c-0.1-0.1-0.3-0.1-0.4-0.2
			c-0.1-0.1-0.3-0.2-0.4-0.2c-0.4-0.2-0.7-0.5-1-0.7c-0.1-0.1-0.3-0.2-0.4-0.2c-0.1-0.1-0.2-0.2-0.3-0.3c-0.1-0.1-0.2-0.2-0.3-0.3
			c-0.1-0.1-0.2-0.2-0.3-0.3c-0.1-0.1-0.2-0.2-0.3-0.3c-0.1-0.1-0.2-0.2-0.3-0.3c-0.1-0.1-0.2-0.2-0.2-0.3c-0.1-0.1-0.2-0.3-0.3-0.4
			c-0.1-0.1-0.2-0.3-0.2-0.4c-0.2-0.3-0.3-0.5-0.5-0.8c-0.1-0.3-0.3-0.5-0.4-0.8c-0.1-0.3-0.3-0.6-0.4-0.9c-0.2-0.5-0.3-1-0.5-1.4
			c0-0.2-0.1-0.3-0.1-0.5c0-0.2-0.1-0.3-0.1-0.5c0-0.2-0.1-0.3-0.1-0.5c-0.1-0.5-0.2-1.1-0.2-1.6c0-0.2-0.1-0.4-0.1-0.6
			c0-0.2,0-0.4,0-0.6c0-0.8-0.1-1.7,0-2.5c0-0.6,0.1-1.4,0.2-2c0.1-1,0.5-2,0.9-2.9c0.2-0.4,0.3-0.7,0.5-1.1
			c0.1-0.2,0.2-0.3,0.3-0.5c0.2-0.3,0.4-0.6,0.6-0.9c0.3-0.4,0.7-0.9,1-1.3c0.1-0.1,0.3-0.3,0.4-0.4c0.1-0.1,0.3-0.3,0.4-0.4
			c0.1-0.1,0.2-0.2,0.4-0.4c0.3-0.2,0.5-0.4,0.8-0.6c0.1-0.1,0.3-0.2,0.5-0.3c0.1-0.1,0.3-0.2,0.4-0.2c0.4-0.3,0.9-0.5,1.4-0.8
			c0.2-0.1,0.3-0.1,0.5-0.2c0.1-0.1,0.3-0.1,0.5-0.2c0.2-0.1,0.3-0.1,0.5-0.2c0.3-0.1,0.6-0.2,1-0.3c0.2,0,0.3-0.1,0.5-0.1
			c0.2,0,0.3-0.1,0.5-0.1c0.6-0.1,1.3-0.3,1.9-0.3c0.2,0,0.3,0,0.5,0c0.6-0.1,1.3,0,1.9,0c0.2,0,0.3,0,0.5,0c0.1,0,0.3,0,0.5,0
			c0.6,0.1,1.2,0.2,1.8,0.4c0.1,0,0.3,0.1,0.4,0.1c0.3,0.1,0.5,0.2,0.8,0.2c0.1,0.1,0.3,0.1,0.4,0.2c0.1,0.1,0.2,0.1,0.4,0.2
			c0.1,0,0.2,0.1,0.3,0.2c0.2,0.2,0.3,0.3,0.3,0.2c0.1-0.1,0.1-0.3,0-0.5c0-0.2,0-0.4,0-0.6c0-0.2,0-0.4,0-0.6c0-0.6,0-1.3,0.1-1.8
			c0-0.2,0-0.4,0-0.6c0-0.2,0-0.4,0-0.7c0-0.4,0.1-0.9,0.1-1.3c0-0.2,0-0.5,0-0.7c0-0.2,0-0.4,0-0.7c0-0.2,0-0.4,0-0.7
			c0-0.2,0-0.5,0-0.7c0-0.2,0-0.4,0-0.7c0-0.2,0-0.4,0-0.7c0-0.2,0-0.4,0-0.7c0-0.4,0.1-0.8,0.1-1.3c0-0.2,0.1-0.4,0.1-0.7
			c0-0.4,0.1-0.8,0.1-1.2c0-0.2,0.1-0.4,0.1-0.6c0-0.5,0.2-1.1,0.2-1.6c0.1-0.9,0.3-1.7,0.5-2.5c0-0.1,0.1-0.2,0.1-0.3
			c0-0.1,0.1-0.2,0.1-0.3c0-0.1,0.1-0.1,0.1-0.2c0-0.1,0.1-0.1,0.1-0.2c0-0.1,0.1-0.1,0.1-0.1c0-0.1,0.1-0.1,0.1-0.1
			c0,0,0.1,0,0.1,0c0.6-0.1,1.2-0.3,1.8-0.5c0.2,0,0.4-0.1,0.6-0.1c0.2,0,0.3-0.1,0.5-0.1c0.3-0.1,0.7-0.1,1-0.1
			c0.2,0,0.3-0.1,0.5-0.1c0.3,0,0.7,0,1,0c0.2,0,0.3,0,0.5,0c0.3,0,0.6,0.1,1,0.2c0.3,0.1,0.6,0.2,0.9,0.3
			C211.3,252.8,211.5,252.9,211.6,253C211.6,253,211.5,252.9,211.6,253z M195.2,280.5c-0.7-0.2-1.5-0.1-2.2,0
			c-0.2,0.1-0.3,0.1-0.5,0.2c-0.3,0.2-0.6,0.3-1,0.5c-0.1,0.1-0.3,0.2-0.4,0.4c-0.3,0.3-0.5,0.5-0.7,0.9c-0.4,0.5-0.5,1.1-0.7,1.8
			c0,0.2-0.1,0.4-0.1,0.6c0,0.2,0,0.4,0,0.6c0,0.2,0,0.4,0.1,0.6c0.1,0.6,0.3,1.1,0.6,1.6c0.1,0.2,0.2,0.3,0.3,0.5
			c0.1,0.1,0.3,0.3,0.4,0.4c0.1,0.1,0.3,0.3,0.4,0.4c0.3,0.2,0.6,0.4,0.9,0.5c0.2,0.1,0.3,0.2,0.5,0.2c0.2,0,0.3,0.1,0.5,0.1
			c0.3,0,0.6,0,0.8,0c0.3,0,0.6-0.1,1-0.2c0.2-0.1,0.4-0.1,0.5-0.2c0.4-0.2,0.7-0.3,1-0.6c0.1-0.1,0.3-0.2,0.4-0.4
			c0.2-0.1,0.3-0.3,0.4-0.5c0.4-0.6,0.7-1.3,0.9-2c0.1-0.4,0.1-0.8,0.1-1.2c0-0.8-0.3-1.4-0.6-2.1c-0.1-0.2-0.2-0.3-0.3-0.5
			c-0.1-0.1-0.2-0.3-0.4-0.4c-0.1-0.1-0.2-0.2-0.4-0.3c-0.1-0.1-0.2-0.2-0.4-0.3c-0.1-0.1-0.3-0.2-0.4-0.2c-0.1-0.1-0.3-0.1-0.5-0.2
			C195.4,280.6,195.3,280.6,195.2,280.5C195,280.5,195.3,280.6,195.2,280.5z"/>
		<path fill="#020202" d="M232.4,296.4c0-0.1-0.1,0-0.2,0.4c-0.1,0.1-0.2,0.2-0.3,0.3c-0.2,0.2-0.4,0.4-0.6,0.6
			c-0.1,0.1-0.2,0.2-0.3,0.3c-0.2,0.2-0.4,0.4-0.6,0.5c-0.1,0.1-0.2,0.2-0.3,0.2c-0.3,0.2-0.7,0.4-1,0.6c-0.2,0.1-0.5,0.2-0.7,0.3
			c-0.1,0.1-0.2,0.1-0.3,0.1c-0.1,0.1-0.2,0.1-0.4,0.2c-0.1,0-0.2,0.1-0.3,0.1c-0.4,0.2-1,0.3-1.5,0.3c-0.1,0-0.2,0-0.4,0
			c-0.2,0-0.5,0.1-0.7,0c-0.1,0-0.2,0-0.4,0c-0.2,0-0.5,0-0.7,0c-0.1,0-0.3,0-0.4,0c-0.1,0-0.3-0.1-0.4-0.1c-0.4,0-0.7-0.1-1.1-0.2
			c-0.2-0.1-0.5-0.2-0.7-0.2c-0.1-0.1-0.2-0.1-0.3-0.1c-0.1-0.1-0.2-0.1-0.4-0.2c-0.3-0.2-0.7-0.3-1-0.5c-0.1-0.1-0.2-0.2-0.3-0.2
			c-0.1-0.1-0.2-0.2-0.3-0.2c-0.1-0.1-0.2-0.2-0.3-0.2c-0.2-0.1-0.4-0.3-0.6-0.5c-0.3-0.2-0.7-0.5-0.9-0.8c-0.1-0.1-0.2-0.2-0.3-0.3
			c-0.1-0.1-0.2-0.2-0.3-0.3c-0.3-0.3-0.5-0.6-0.7-1c-0.1-0.1-0.2-0.2-0.2-0.3c-0.1-0.1-0.2-0.3-0.2-0.4c-0.1-0.1-0.1-0.3-0.2-0.4
			c-0.1-0.1-0.2-0.3-0.2-0.4c-0.1-0.3-0.3-0.5-0.4-0.8c-0.2-0.4-0.3-0.9-0.5-1.3c-0.1-0.1-0.1-0.3-0.1-0.5c-0.1-0.1-0.1-0.3-0.2-0.5
			c0-0.2-0.1-0.3-0.1-0.5c-0.2-0.6-0.3-1.3-0.4-2c0-0.2,0-0.3,0-0.5c0-0.2,0-0.3,0-0.5c0-0.7-0.1-1.5,0-2.2c0-0.2,0-0.4,0-0.6
			c0-0.6,0.1-1.2,0.2-1.8c0.1-0.2,0.1-0.5,0.2-0.7c0.1-0.6,0.2-1.3,0.5-1.9c0.1-0.2,0.1-0.4,0.2-0.6c0.1-0.4,0.3-0.8,0.5-1.1
			c0.2-0.4,0.3-0.7,0.5-1.1c0.1-0.2,0.2-0.3,0.3-0.5c0.1-0.2,0.2-0.3,0.3-0.5c0.1-0.2,0.2-0.3,0.3-0.5c0.5-0.7,1.1-1.3,1.7-2
			c0.1-0.1,0.3-0.2,0.4-0.3c0.2-0.2,0.5-0.4,0.8-0.6c0.4-0.3,0.8-0.5,1.2-0.8c0.2-0.1,0.3-0.2,0.5-0.2c0.1-0.1,0.3-0.1,0.5-0.2
			c0.1-0.1,0.3-0.1,0.4-0.2c0.2-0.1,0.3-0.1,0.5-0.2c0.3-0.1,0.6-0.2,0.9-0.2c0.6-0.2,1.3-0.3,1.9-0.3c0.1,0,0.3,0,0.5,0
			c0.5-0.1,1.3-0.1,1.8,0c0.2,0,0.3,0,0.5,0c0.5,0,0.9,0.1,1.4,0.2c0.4,0.2,0.9,0.2,1.3,0.4c0.3,0.1,0.6,0.2,0.8,0.3
			c0.1,0.1,0.3,0.2,0.4,0.2c0.2,0.1,0.5,0.3,0.7,0.4c0.1,0.1,0.3,0.2,0.4,0.2c0.2,0.2,0.5,0.3,0.7,0.5c0.2,0.3,0.3,0.4,0.3,0.3
			c0.1-0.5,0.2-1.1,0.2-1.6c0.1-0.2,0.1-0.3,0.1-0.5c0-0.1,0-0.2,0.1-0.2c0.1-0.1,0.3-0.1,0.5-0.1c0.1,0,0.3,0,0.4,0
			c1.2-0.2,2.7-0.1,3.9,0c0.2,0,0.5,0,0.8,0c1.1,0,2.5,0.1,3.6,0.5c0.1,0,0.2,0.1,0.3,0.1c0.1,0.1,0.1,0.1,0.2,0.2l0,0
			c0,0.6,0.1,1.2,0,1.8c0,0.2,0,0.3,0,0.5c0,0.3-0.1,0.7-0.1,1c0,0.2,0,0.3,0,0.5c0,0.4-0.1,0.8-0.1,1.2c0,0.2,0,0.4,0,0.7
			c0,0.5-0.1,0.9-0.1,1.4c0,0.2,0,0.5,0,0.7c-0.1,0.8,0,1.6-0.1,2.4c0,1.2,0,2.4,0,3.5c0.1,0.8,0,1.7,0.1,2.5c0,0.3,0,0.5,0,0.8
			c0,0.5,0.1,1,0.1,1.6c0,0.2,0,0.5,0,0.7c0,0.2,0,0.5,0,0.7c0,0.2,0,0.4,0,0.7c0,0.2,0,0.4,0,0.7c0,0.2,0,0.4,0,0.6
			c0,0.2,0,0.4,0,0.6c0,0.2,0,0.4,0,0.6c0,0.3,0.1,0.7,0.1,1c0,0.2,0,0.3,0,0.5c0,0.2,0,0.3,0,0.5c0,0.3,0.1,0.5,0.1,0.8
			c0,0.2,0,0.5,0,0.7c0,0.4,0.1,1,0,1.4c0,0.1,0,0.1,0,0.1c0,0.1,0,0.1-0.1,0.1c-0.1,0-0.1,0.1-0.2,0.1c-0.1,0-0.2,0-0.3,0
			c-0.1,0-0.3,0.1-0.4,0.1c-0.1,0-0.3,0-0.5,0c-0.2,0-0.4,0-0.5,0c-1.5,0.2-3.4,0.2-4.9,0c-0.2,0-0.5,0-0.7,0c-0.2,0-0.5,0-0.7,0
			c-0.2,0-0.4,0-0.6,0c-0.2,0-0.4,0-0.6,0c-0.2,0-0.3,0-0.5,0c-0.1,0-0.3-0.1-0.4-0.1c-0.1,0-0.2,0-0.3,0c-0.1,0-0.2,0-0.2,0
			c-0.1,0-0.1-0.1-0.1-0.1c-0.1-0.1-0.1-0.2-0.2-0.3c-0.1-0.1-0.1-0.2-0.1-0.3c-0.1-0.2-0.1-0.3-0.1-0.5c0-0.2,0-0.4,0-0.5
			c0-0.2,0-0.4,0-0.6c-0.1-0.2-0.1-0.4,0-0.7C232.4,296.9,232.4,296.6,232.4,296.4C232.3,296.3,232.4,296.6,232.4,296.4z
			 M228.4,280.6c-0.4,0-0.7-0.1-1.1,0c-0.4,0.1-0.7,0.2-1,0.3c-0.4,0.2-1,0.6-1.3,0.9c-0.3,0.3-0.5,0.5-0.7,0.9
			c-0.2,0.3-0.4,0.6-0.5,1c-0.1,0.2-0.1,0.3-0.2,0.5c-0.1,0.6-0.1,1.1-0.1,1.6c0.1,0.5,0.2,1.1,0.5,1.5c0.1,0.2,0.2,0.3,0.3,0.5
			c0.4,0.6,0.9,1.1,1.5,1.4c0.3,0.2,0.6,0.3,0.9,0.4c0.9,0.3,1.8,0.1,2.7-0.2c0.2-0.1,0.4-0.1,0.5-0.2c0.2-0.1,0.3-0.2,0.5-0.3
			c0.2-0.1,0.3-0.2,0.5-0.3c0.3-0.2,0.6-0.5,0.8-0.8c0.3-0.4,0.6-1,0.7-1.5c0.1-0.4,0.1-0.8,0.2-1.1c0-0.4-0.1-0.8-0.1-1.1
			c-0.1-0.2-0.1-0.4-0.2-0.5c-0.1-0.2-0.2-0.3-0.2-0.5c-0.1-0.1-0.2-0.3-0.3-0.5c-0.2-0.2-0.5-0.5-0.7-0.7c-0.2-0.1-0.3-0.2-0.5-0.3
			c-0.3-0.2-0.7-0.4-1-0.5C229.2,280.8,228.8,280.7,228.4,280.6C228.3,280.6,228.6,280.7,228.4,280.6z"/>
		<path fill="#020202" d="M248.4,300.5c-0.1,0-0.1-0.1-0.1-0.2c0-0.1-0.1-0.1-0.1-0.2c0-0.1,0-0.2,0-0.2c0-0.1,0-0.2,0-0.3
			c0-0.1-0.1-0.2-0.1-0.3c0-0.1,0-0.3,0-0.4c0-0.1,0-0.3,0-0.4c0-0.1,0-0.3,0-0.5c0-0.3-0.1-0.6-0.1-0.9c0-0.4,0-0.7,0-1.1
			c0-0.4,0-0.8,0-1.1c-0.2-1.7,0-3.5,0-5.3c0.1-0.9,0-1.8,0-2.7c0.1-0.6,0-1.3,0-2c0-0.5,0.1-1,0-1.4c0-0.5,0.1-1,0-1.4
			c0-0.5,0.1-1,0.1-1.4c0-0.2,0-0.5,0-0.7c0-0.5,0.1-0.9,0.1-1.4c0-0.2,0-0.5,0-0.7c0-0.2,0-0.4,0-0.7c0-0.2,0-0.4,0-0.6
			c0-0.2,0-0.4,0-0.6c0-0.4,0.1-0.8,0.1-1.1c0-0.2,0-0.4,0-0.5c0-0.2,0-0.3,0-0.5c0-0.2,0-0.3,0-0.5c0-0.1,0-0.3,0-0.4
			c0-0.1,0-0.3,0-0.4c0-0.1,0-0.2,0-0.3c0-0.1,0-0.2,0-0.3c0-0.1,0-0.2,0-0.2c0-0.1,0-0.2,0-0.2c0-0.1,0-0.1,0-0.2
			c0-0.1,0-0.1,0.1-0.2c0.1-0.1,0.1-0.1,0.2-0.1c0.1,0,0.2-0.1,0.3-0.1c0.9-0.2,1.9-0.4,2.8-0.4c0.2,0,0.5-0.1,0.7-0.1
			c0.2,0,0.5,0,0.7,0c0.2,0,0.5,0,0.7,0c0.7-0.1,1.4-0.1,2.1,0c0.2,0,0.4,0,0.6,0c0.2,0,0.3,0,0.5,0c0.3,0.1,0.6,0.1,0.9,0.2
			c0.1,0.1,0.2,0.2,0.2,0.2c0.1,0.1,0.2,0.2,0.2,0.3c0.2,0.3,0.3,0.6,0.5,0.9c0.1,0.2,0.2,0.4,0.2,0.6c0.1,0.2,0.2,0.5,0.1,0.7
			c-0.1,0.4-0.1,0.7,0,0.9c0.1,0.1,0.3-0.1,0.6-0.5c0.1-0.1,0.3-0.3,0.5-0.4c0.2-0.1,0.3-0.2,0.5-0.4c0.2-0.1,0.3-0.2,0.5-0.3
			c0.2-0.1,0.3-0.2,0.5-0.4c0.3-0.2,0.7-0.4,1.1-0.5c0.2-0.1,0.3-0.2,0.5-0.2c0.2-0.1,0.4-0.2,0.5-0.2c0.5-0.2,1-0.4,1.5-0.5
			c0.8-0.3,1.6-0.2,2.4-0.4c0.3,0,0.6,0,0.9,0c0.1,0,0.3,0,0.5,0c0.7,0,1.5,0.2,2.1,0.4c0.3,0.1,0.5,0.2,0.7,0.3
			c0.1,0,0.3,0.1,0.4,0.1c0.1,0.1,0.2,0.1,0.3,0.2c0.1,0.1,0.3,0.1,0.4,0.2c0.2,0.1,0.5,0.2,0.7,0.4c0.1,0.1,0.2,0.1,0.3,0.2
			c0.1,0.1,0.2,0.1,0.3,0.2c0.5,0.3,0.9,0.8,1.4,1.1c0.2,0.2,0.5,0.5,0.7,0.7c0.2,0.2,0.4,0.4,0.5,0.7c0.1,0.1,0.1,0.1,0.2,0.2
			c0,0.1,0.1,0.2,0.1,0.2c0,0.1,0.1,0.2,0.1,0.2c0,0.1,0.1,0.1,0.1,0.2c0,0.1,0.1,0.1,0.1,0.2c0.1,0.1,0.1,0.2,0.1,0.4
			c0,0.1,0,0.2,0,0.2c0.1,0.2,0,0.4,0,0.6c0,0,0,0.1,0,0.1c-0.1,0.1-0.1,0.1-0.2,0.2c-0.1,0.1-0.1,0.1-0.2,0.2
			c-0.1,0.1-0.2,0.2-0.2,0.2c-0.1,0.1-0.2,0.2-0.3,0.3c-0.4,0.3-0.8,0.8-1.2,1.1c-0.2,0.2-0.3,0.3-0.5,0.5c-0.5,0.5-1,1-1.5,1.5
			c-0.3,0.3-0.7,0.6-1,0.9c-0.3,0.3-0.6,0.6-0.9,0.9c-0.1,0.1-0.3,0.2-0.5,0.4c-0.1,0.1-0.2,0.2-0.4,0.3c-0.1,0.1-0.2,0.2-0.3,0.3
			c-0.2,0.1-0.4,0.3-0.5,0.4c-0.1,0-0.1,0-0.2,0c0,0-0.1,0-0.1,0c-0.1-0.2-0.3-0.3-0.4-0.5c-0.1-0.2-0.3-0.3-0.4-0.5
			c-0.1-0.1-0.3-0.3-0.4-0.5c-0.1-0.1-0.2-0.3-0.4-0.5c-0.1-0.1-0.3-0.3-0.4-0.4c-0.1-0.1-0.2-0.2-0.4-0.4c-0.3-0.2-0.6-0.4-0.8-0.7
			c-0.2-0.2-0.5-0.4-0.8-0.5c-0.3-0.1-0.5-0.3-0.8-0.4c-0.4-0.1-0.8-0.2-1.3-0.1c-0.2,0-0.3,0-0.5,0c-0.2,0.1-0.3,0.1-0.5,0.2
			c-0.1,0-0.3,0.1-0.4,0.2c-0.3,0.1-0.5,0.3-0.7,0.5c-0.2,0.2-0.4,0.4-0.6,0.6c-0.1,0.1-0.2,0.3-0.2,0.4c-0.1,0.1-0.2,0.3-0.2,0.4
			c-0.1,0.1-0.1,0.3-0.2,0.4c-0.1,0.2-0.1,0.3-0.2,0.5c-0.2,0.5-0.2,1-0.4,1.5c-0.1,0.4-0.1,0.7-0.1,1.1c0,0.2,0,0.4,0,0.6
			c0,0.4-0.1,0.8-0.1,1.2c0,0.4,0,0.8,0,1.2c0,0.2,0,0.4,0,0.6c0,0.2,0,0.4,0,0.6c0,0.2,0,0.4,0,0.6c0,0.2,0,0.4,0,0.6
			c0.1,0.4,0.1,0.8,0.1,1.2c0.1,1.1,0.3,2.3,0.5,3.4c0,0.6,0.2,1.2,0.3,1.8c0,0.2,0.1,0.5,0.1,0.7c0,0.1,0,0.2,0,0.3
			c0,0.1,0,0.2,0,0.3c0,0.1,0.1,0.8,0,0.8c0,0-0.1,0.1-0.1,0.1c-0.2,0-0.3,0.1-0.5,0.1c-0.3,0.1-0.5,0.1-0.8,0.1
			c-0.2,0-0.4,0.1-0.5,0.1c-0.4,0-0.8,0.1-1.2,0.1c-0.2,0-0.4,0.1-0.7,0.1c-0.2,0-0.5,0-0.7,0c-0.2,0-0.5,0-0.7,0
			c-0.2,0-0.5,0-0.7,0c-0.2,0-0.5,0-0.7,0c-0.2,0-0.5,0-0.7,0c-0.2,0-0.5,0-0.7,0c-0.7,0.1-1.4,0-2.1,0.1c-0.2,0-0.4,0-0.6,0
			c-0.5-0.1-1,0-1.5-0.1c-0.1,0-0.3,0-0.4,0c-0.1,0-0.2,0-0.3,0C248.5,300.6,248.5,300.6,248.4,300.5
			C248.4,300.5,248.5,300.6,248.4,300.5z"/>
		<path fill="#020202" d="M288.6,251.7c0.4,0.1,0.7,0.3,1,0.5c0.1,0.1,0.3,0.2,0.5,0.3c0.1,0.1,0.3,0.2,0.4,0.3
			c0.1,0.1,0.3,0.2,0.4,0.3c0.5,0.4,0.9,1.1,1.2,1.6c0.1,0.1,0.2,0.3,0.2,0.5c0.1,0.1,0.1,0.3,0.2,0.5c0.1,0.2,0.1,0.3,0.2,0.5
			c0.2,0.6,0.2,1.3,0.2,2c0,0.2,0,0.3,0,0.5c0,0.2-0.1,0.3-0.1,0.5c-0.1,0.5-0.2,1.1-0.5,1.5c-0.1,0.2-0.2,0.3-0.2,0.5
			c-0.1,0.2-0.2,0.3-0.3,0.5c-0.2,0.3-0.4,0.6-0.6,0.8c-0.4,0.3-0.7,0.7-1.2,1c-0.1,0.1-0.3,0.2-0.5,0.3c-0.1,0.1-0.3,0.2-0.5,0.2
			c-0.1,0.1-0.3,0.2-0.5,0.2c-0.8,0.3-1.7,0.6-2.6,0.6c-0.2,0-0.4,0-0.6,0c-0.2,0-0.3,0-0.5,0c-0.6-0.1-1.1-0.1-1.7-0.4
			c-0.2-0.1-0.4-0.1-0.5-0.2c-0.2-0.1-0.3-0.2-0.5-0.3c-0.1-0.1-0.3-0.2-0.4-0.3c-0.1-0.1-0.3-0.2-0.4-0.4c-0.3-0.3-0.5-0.5-0.7-0.9
			c-0.5-0.7-0.9-1.7-1-2.5c-0.1-0.2-0.1-0.4-0.1-0.5c0-0.2-0.1-0.4-0.1-0.5c0-0.4,0-0.7,0-1.1c0-0.2,0-0.3,0-0.5
			c0-0.2,0.1-0.3,0.1-0.5c0.1-0.3,0.2-0.6,0.3-0.9c0.1-0.2,0.1-0.3,0.2-0.5c0.1-0.3,0.3-0.6,0.5-0.9c0.1-0.2,0.2-0.3,0.3-0.4
			c0.1-0.1,0.2-0.3,0.3-0.4c0.1-0.1,0.2-0.2,0.4-0.4c0.3-0.2,0.5-0.4,0.8-0.6c0.1-0.1,0.3-0.2,0.5-0.3c0.1-0.1,0.3-0.2,0.5-0.2
			c0.4-0.3,1-0.4,1.5-0.5c0.3-0.1,0.7-0.1,1-0.1C286.9,251.1,287.9,251.3,288.6,251.7C288.8,251.7,288.5,251.6,288.6,251.7z
			 M281.9,271c0,0,0,0.1,0,0.1c0,0.1-0.1,0.2-0.1,0.4c0,0.1-0.1,0.2-0.1,0.2c0,0.1,0,0.2,0,0.3c0,0.1,0,0.2,0,0.3
			c-0.1,0.3-0.1,0.5-0.1,0.8c-0.1,0.3-0.1,0.6-0.1,0.9c-0.1,0.3-0.1,0.7-0.2,1c0,0.6-0.2,1.2-0.2,1.8c-0.1,0.4-0.1,0.8-0.2,1.3
			c0,0.7-0.2,1.4-0.2,2.1c-0.1,0.5-0.1,1-0.1,1.4c-0.1,0.5-0.1,1-0.1,1.5c0,0.2-0.1,0.5-0.1,0.7c0,0.5-0.1,1-0.1,1.5
			c0,0.3-0.1,0.5-0.1,0.8c0,0.2,0,0.5,0,0.7c0,0.5-0.1,1-0.1,1.5c0,0.5-0.1,1-0.1,1.5c0,0.2,0,0.5,0,0.7c0,0.2,0,0.5,0,0.7
			c0,0.2,0,0.5,0,0.7c-0.1,0.6,0,1.3-0.1,1.9c0,1.1-0.1,2.2,0,3.3c0,0.3,0,0.6,0,0.9c0,0.1,0,0.2,0,0.4c0,0.1,0,0.2,0,0.3
			c0,0.1,0,0.2,0,0.3c0,0.1,0,0.2,0,0.2c0,0.1,0.1,0.2,0.1,0.2c0,0.2,0.1,0.3,0.2,0.4c0.1,0,0.2,0.1,0.2,0.1
			c0.2,0.1,0.5,0.2,0.7,0.2c0.3,0.1,0.7,0.1,1,0.1c0.2,0,0.4,0.1,0.6,0.1c0.2,0,0.4,0,0.6,0c0.2,0,0.4,0,0.7,0c0.2,0,0.4,0,0.7,0
			c0.5,0,0.9,0,1.4,0c0.5,0,0.9,0.1,1.4,0c0.6-0.1,1.3,0,1.9-0.1c0.2,0,0.4,0,0.6,0c0.2,0,0.3,0,0.5,0c0.3,0,0.6,0,0.9-0.1
			c0.2,0,0.4-0.1,0.6-0.2c0.1,0,0.1,0,0.1,0c0.1,0,0.1-0.1,0.1-0.1c0-0.1,0-0.1,0-0.2c0.1-0.2,0.2-0.5,0.2-0.7
			c0-0.1,0.1-0.2,0.1-0.3c0-0.1,0-0.2,0-0.4c0-0.1,0-0.3,0-0.4c0-0.2,0-0.3,0-0.5c0-0.1,0-0.3,0-0.5c0-0.2,0-0.3,0-0.5
			c0-0.4,0.1-0.7,0.1-1.1c0-0.8-0.1-1.6,0-2.4c0-0.4,0-0.9,0-1.3c0-0.9,0.1-1.9,0-2.8c0-0.5,0-1,0-1.5c0-0.2,0-0.5,0-0.7
			c0-0.5-0.1-1-0.1-1.5c0-0.2,0-0.5,0-0.8c0-0.2,0-0.5,0-0.7c0-0.2,0-0.5,0-0.7c0-0.2,0-0.5,0-0.7c0-0.2,0-0.5,0-0.7
			c0-0.2,0-0.5,0-0.7c0-0.2,0-0.5,0-0.7c0-0.2,0-0.5,0-0.7c0-0.2-0.1-0.4-0.1-0.7c0-0.2,0-0.4,0-0.7c0-0.2,0-0.4,0-0.7
			c0-0.4-0.1-0.8-0.1-1.2c0-0.2-0.1-0.4-0.1-0.6c0-0.2,0-0.4,0-0.6c0-0.3-0.1-0.7-0.1-1c0-0.1-0.1-0.3-0.1-0.5c0-0.1,0-0.3,0-0.4
			c0-0.3-0.1-0.5-0.1-0.8c0-0.1,0-0.2,0-0.3c0-0.1-0.1-0.2-0.1-0.3c0-0.1,0-0.2,0-0.2c0-0.1,0-0.1,0-0.2c0-0.1-0.1-0.2-0.1-0.2l0,0
			c-0.1-0.1-0.1-0.1-0.2-0.1c-0.7-0.3-1.6-0.3-2.4-0.5c-0.2,0-0.5,0-0.7,0c-0.2,0-0.4,0-0.7,0c-0.2,0-0.5,0-0.7,0
			c-0.7-0.1-1.4-0.1-2.1,0c-0.2,0-0.4,0-0.6,0c-0.5,0-1.4,0-1.8,0.3C282.1,270.8,282,270.9,281.9,271C281.9,271,281.9,271,281.9,271
			C281.9,271,281.9,271,281.9,271z"/>
	</g>
</g>
</svg>
