<?xml version="1.0" encoding="utf-8"?>
<!-- Generator: Adobe Illustrator 18.0.0, SVG Export Plug-In . SVG Version: 6.00 Build 0)  -->
<!DOCTYPE svg PUBLIC "-//W3C//DTD SVG 1.0//EN" "http://www.w3.org/TR/2001/REC-SVG-20010904/DTD/svg10.dtd">
<svg version="1.0" id="Camada_1" xmlns="http://www.w3.org/2000/svg" xmlns:xlink="http://www.w3.org/1999/xlink" x="0px" y="0px"
	 viewBox="0 0 1024 768" enable-background="new 0 0 1024 768" xml:space="preserve">
<image overflow="visible" width="1500" height="1500" xlink:href="../../../Desenhos Jogo Yegatu/png2/ipita.png"  transform="matrix(0.4024 0 0 0.4024 212.681 -25)">
</image>
<path d="M306.7,586.4c0.1-0.1,0.1-0.1,0.2-0.2c0.1,0,0.3,0,0.4-0.1c0.2-0.1,0.4-0.1,0.5-0.2c0.2,0,0.4,0,0.7-0.1
	c0.2-0.1,0.4-0.1,0.7-0.2c0.3,0,0.6,0,0.9-0.1c0.3-0.1,0.7-0.1,1-0.2c0.4,0,0.8,0,1.1-0.1c0.4-0.1,0.8-0.1,1.2-0.1
	c0.4-0.1,0.8-0.1,1.3-0.2c0.4,0,0.8,0,1.3-0.1c0.5-0.1,1-0.1,1.5-0.1c0.5-0.1,1-0.1,1.5-0.1c0.5-0.1,1-0.1,1.5-0.2
	c0.5,0,1.1,0,1.6-0.1c0.6,0,1.2,0,1.7-0.1c0.5,0,1.1,0,1.7-0.1c0.6,0,1.2,0,1.7,0c0.6-0.1,1.2-0.1,1.8-0.1c0.6-0.1,1.2-0.1,1.8-0.1
	s1.2,0,1.8-0.1c0.6,0,1.2,0,1.8,0c0.6,0,1.2,0,1.8-0.1c0.6,0,1.2,0,1.8,0c0.6,0,1.2,0,1.7,0c0.6,0,1.2,0,1.8-0.1c0.6,0,1.2,0,1.7,0
	c0.6,0,1.2,0,1.7,0c0.6,0,1.2,0,1.7,0.1c0.5,0,1.1,0,1.6,0c0.5,0,1,0,1.5,0c0.5,0,1,0,1.5,0.1c0.5,0,1,0,1.5,0
	c0.4,0.1,0.8,0.1,1.3,0.1c0.4,0,0.8,0,1.3,0.1c0.4,0,0.8,0,1.1,0.1c0.4,0,0.8,0,1.1,0.1c0.3,0.1,0.7,0.1,1,0.1
	c0.3,0.1,0.6,0.1,0.9,0.2c0.2,0,0.4,0,0.7,0.1c0.2,0.1,0.4,0.1,0.6,0.2c0.2,0.1,0.4,0.1,0.5,0.2c0.1,0.1,0.3,0.1,0.4,0.2
	c0.1,0.1,0.1,0.1,0.2,0.2c0.1,0.2,0.2,0.4,0.3,0.6c0.1,0.3,0.2,0.6,0.3,0.9c0.1,0.3,0.2,0.7,0.3,1c0.1,0.4,0.1,0.8,0.2,1.3
	c0.1,0.4,0.1,0.8,0.2,1.3c0.1,0.5,0.1,1,0.2,1.5c0.1,0.5,0.1,1.1,0.2,1.6c0,0.5,0,1.1,0.1,1.7c0,0.5,0,1.1,0.1,1.7
	c0,0.5,0,1.1,0.1,1.7c0,0.5,0,1.1,0,1.6c0,0.6,0,1.2,0,1.7c0,0.5,0,1.1,0,1.6c0,0.5,0,0.9-0.1,1.4c0,0.5,0,0.9,0,1.4
	c-0.1,0.4-0.1,0.8-0.2,1.2c0,0.3,0,0.7-0.1,1c-0.1,0.3-0.1,0.6-0.2,0.9c-0.1,0.2-0.1,0.4-0.2,0.6c-0.1,0.1-0.2,0.2-0.3,0.3
	c-0.2,0.1-0.4,0.2-0.6,0.3c-0.3,0.1-0.7,0.1-1,0.1c-0.5,0.1-0.9,0.1-1.4,0.1s-1,0-1.5,0c-0.6,0-1.2,0-1.8,0
	c-0.6-0.1-1.2-0.1-1.8-0.1c-0.6-0.1-1.2-0.1-1.8-0.1c-0.6-0.1-1.2-0.1-1.7-0.2c-0.5,0-1.1,0-1.6-0.1c-0.5-0.1-0.9-0.1-1.4-0.1
	c-0.3-0.1-0.7-0.1-1.1-0.1c-0.2,0-0.4,0-0.7-0.1c-0.1,0-0.1,0-0.2,0v0.1c0,0.1,0,0.1,0,0.2c0,0.1,0,0.3,0,0.4c0,0.2,0,0.4,0,0.6
	c0,0.2,0,0.4,0,0.7c0,0.3,0,0.5,0,0.8c-0.1,0.3-0.1,0.7-0.1,1c0,0.3,0,0.7,0,1.1c0,0.3,0,0.7,0,1.1c0,0.5,0,0.9,0,1.3
	c0,0.5,0,0.9,0,1.4c0,0.5,0,0.9,0,1.4c0,0.5,0,1,0,1.5c0,0.5,0,1.1,0,1.6c0.1,0.5,0.1,1.1,0.1,1.6c0,0.5,0,1.1,0,1.7
	c0,0.5,0,1.1,0,1.7c0,0.5,0,1.1,0,1.7s0,1.2,0,1.7c0,0.6,0,1.2,0.1,1.8c0,0.6,0,1.2,0,1.8c0,0.5,0,1.1,0,1.7s0,1.2,0.1,1.7
	c0,0.6,0,1.2,0,1.7s0,1.1,0.1,1.7c0,0.7,0,1.4,0.1,2.1c0,0.7,0,1.3,0.1,2c0,0.7,0,1.3,0.1,2c0,0.7,0,1.3,0.1,2c0,0.6,0,1.2,0.1,1.9
	c0.1,0.6,0.1,1.2,0.2,1.8c0,0.6,0,1.2,0.1,1.8c0.1,0.6,0.1,1.2,0.2,1.7c0,0.5,0,1.1,0.1,1.6c0.1,0.5,0.1,1.1,0.2,1.6
	c0,0.5,0,1,0.1,1.5c0.1,0.5,0.1,0.9,0.2,1.3c0,0.5,0,0.9,0.1,1.3c0.1,0.4,0.1,0.8,0.2,1.3c0,0.3,0,0.7,0.1,1.1
	c0.1,0.3,0.1,0.7,0.1,1c0.1,0.3,0.1,0.6,0.2,0.9c0,0.3,0,0.5,0.1,0.8c0,0.2,0,0.4,0.1,0.7c0,0.1,0,0.3,0,0.5
	c0.1,0.2,0.1,0.4,0.1,0.5c0,0.1,0,0.2,0.1,0.3c0,0.1,0,0.1,0,0.2v0.1c0.1,0,0.1,0,0.2-0.1c0.3,0,0.5,0,0.7-0.1
	c0.4-0.1,0.8-0.1,1.1-0.2c0.5-0.1,0.9-0.1,1.3-0.2c0.5-0.1,1.1-0.1,1.6-0.2c0.6-0.1,1.2-0.1,1.7-0.2c0.6-0.1,1.2-0.1,1.8-0.2
	c0.6,0,1.2,0,1.8-0.1c0.6,0,1.2,0,1.8,0c0.5,0,1,0,1.5,0c0.5,0.1,0.9,0.1,1.4,0.2c0.4,0.1,0.8,0.2,1.1,0.3c0.3,0.1,0.5,0.2,0.7,0.4
	c0.1,0.1,0.1,0.3,0.2,0.5c0.1,0.2,0.2,0.4,0.3,0.6c0.1,0.3,0.1,0.6,0.2,0.9c0.1,0.3,0.1,0.7,0.2,1c0.1,0.4,0.1,0.8,0.2,1.2
	c0.1,0.5,0.1,0.9,0.1,1.4c0.1,0.5,0.1,0.9,0.2,1.4c0,0.5,0,1.1,0.1,1.6c0,0.5,0,1.1,0.1,1.6c0,0.6,0,1.2,0.1,1.7c0,0.6,0,1.2,0,1.8
	c0,0.5,0,1.1,0,1.7c0,0.6,0,1.2,0,1.7c0,0.6,0,1.2,0,1.7c0,0.6,0,1.2-0.1,1.7c0,0.5,0,1-0.1,1.5c0,0.5,0,1-0.1,1.5
	c0,0.5,0,0.9-0.1,1.3c-0.1,0.5-0.1,0.9-0.1,1.3c-0.1,0.3-0.1,0.7-0.2,1c-0.1,0.3-0.1,0.6-0.2,0.9c-0.1,0.2-0.2,0.4-0.3,0.6
	c-0.1,0.2-0.1,0.3-0.2,0.4c-0.1,0.1-0.1,0.1-0.2,0.2c-0.1,0-0.3,0-0.4,0.1c-0.1,0.1-0.3,0.1-0.4,0.1c-0.2,0.1-0.4,0.1-0.6,0.1
	c-0.2,0.1-0.4,0.1-0.7,0.2c-0.2,0-0.4,0-0.7,0.1c-0.3,0-0.6,0-0.9,0.1c-0.3,0-0.7,0-1,0.1c-0.4,0-0.8,0-1.1,0
	c-0.4,0.1-0.8,0.1-1.2,0.1c-0.4,0.1-0.8,0.1-1.3,0.1c-0.4,0-0.8,0-1.3,0.1c-0.5,0-0.9,0-1.4,0c-0.5,0.1-1,0.1-1.5,0.1
	c-0.5,0-1,0-1.5,0c-0.5,0.1-1.1,0.1-1.6,0.1c-0.5,0-1.1,0-1.6,0c-0.5,0.1-1.1,0.1-1.7,0.1c-0.5,0-1.1,0-1.7,0c-0.5,0-1.1,0-1.7,0
	c-0.6,0-1.2,0-1.8,0c-0.6,0-1.2,0-1.8,0.1c-0.6,0-1.2,0-1.8,0c-0.6,0-1.2,0-1.8,0c-0.6,0-1.2,0-1.8,0c-0.7,0-1.3,0-1.9,0
	c-0.6,0-1.2,0-1.8-0.1c-0.6,0-1.2,0-1.8,0c-0.6,0-1.2,0-1.8,0c-0.6,0-1.2,0-1.8,0c-0.5,0-1.1,0-1.7-0.1c-0.6,0-1.2,0-1.7,0
	c-0.6,0-1.2,0-1.7,0c-0.5-0.1-1.1-0.1-1.6-0.1c-0.5,0-1.1,0-1.6,0c-0.5-0.1-1-0.1-1.5-0.1c-0.5,0-1,0-1.5-0.1c-0.5,0-0.9,0-1.4,0
	c-0.5-0.1-0.9-0.1-1.3-0.1c-0.5,0-0.9,0-1.3-0.1c-0.4,0-0.8,0-1.2,0c-0.3-0.1-0.7-0.1-1-0.1c-0.3-0.1-0.7-0.1-1-0.1
	c-0.3-0.1-0.6-0.1-0.9-0.1c-0.3-0.1-0.5-0.1-0.8-0.1c-0.3-0.1-0.5-0.1-0.7-0.1c-0.2-0.1-0.4-0.1-0.6-0.1c-0.1-0.1-0.3-0.1-0.4-0.1
	c-0.1-0.1-0.3-0.1-0.4-0.1c-0.1-0.1-0.1-0.1-0.2-0.2c-0.1-0.1-0.1-0.2-0.2-0.4c-0.1-0.2-0.2-0.4-0.3-0.6c-0.1-0.3-0.1-0.6-0.2-0.9
	c-0.1-0.4-0.1-0.8-0.2-1.1c-0.1-0.5-0.1-0.9-0.2-1.3c0-0.5,0-0.9-0.1-1.4c-0.1-0.5-0.1-1.1-0.1-1.6c-0.1-0.5-0.1-1.1-0.1-1.6
	c0-0.6,0-1.2,0-1.8c-0.1-0.6-0.1-1.2-0.1-1.7c0-0.7,0-1.3,0-1.9c0-0.6,0-1.2,0.1-1.8c0-0.5,0-1.1,0-1.7c0.1-0.6,0.1-1.2,0.1-1.7
	c0.1-0.6,0.1-1.2,0.2-1.7c0-0.5,0-1,0.1-1.5c0.1-0.5,0.1-0.9,0.2-1.4c0.1-0.5,0.1-0.9,0.2-1.3c0.1-0.3,0.2-0.7,0.3-1
	c0.1-0.3,0.2-0.6,0.3-0.9c0.1-0.2,0.2-0.4,0.3-0.6c0.1-0.2,0.2-0.3,0.4-0.4c0.3-0.1,0.5-0.2,0.8-0.3c0.4-0.1,0.8-0.2,1.2-0.2
	c0.5-0.1,0.9-0.1,1.4,0c0.5,0,1.1,0,1.6,0c0.6,0.1,1.2,0.1,1.7,0.2c0.6,0.1,1.2,0.1,1.7,0.2c0.5,0.1,1.1,0.1,1.6,0.2
	c0.5,0.1,1.1,0.2,1.6,0.3c0.4,0.1,0.8,0.1,1.3,0.2c0.3,0.1,0.7,0.1,1,0.2c0.2,0.1,0.4,0.1,0.7,0.2c0.1,0,0.1,0,0.2,0v-0.1
	c0-0.1,0-0.1,0-0.2c0.1-0.1,0.1-0.2,0.1-0.3c0-0.1,0-0.3,0-0.5c0.1-0.2,0.1-0.4,0.1-0.6s0-0.4,0.1-0.7c0-0.3,0-0.5,0.1-0.8
	c0-0.3,0-0.6,0.1-0.9c0-0.3,0-0.7,0.1-1.1c0-0.3,0-0.7,0.1-1.1c0-0.4,0-0.8,0.1-1.2c0.1-0.5,0.1-0.9,0.1-1.3c0.1-0.5,0.1-1,0.2-1.5
	c0-0.5,0-0.9,0.1-1.4c0.1-0.5,0.1-1.1,0.1-1.6c0.1-0.5,0.1-1.1,0.2-1.7c0-0.5,0-1.1,0.1-1.7c0-0.6,0-1.2,0.1-1.8
	c0.1-0.6,0.1-1.2,0.1-1.8c0.1-0.6,0.1-1.2,0.1-1.9c0.1-0.7,0.1-1.3,0.2-1.9c0-0.7,0-1.3,0.1-2c0-0.7,0-1.4,0.1-2.1c0-0.7,0-1.3,0-2
	c0.1-0.7,0.1-1.4,0.1-2.1c0.1-0.8,0.1-1.6,0.1-2.4c0-0.7,0-1.5,0.1-2.2c0-0.7,0-1.5,0-2.2c0-0.7,0-1.4,0.1-2.1c0-0.7,0-1.3,0-2
	c0-0.7,0-1.3,0-2c0-0.6,0-1.2,0.1-1.8c0-0.6,0-1.2,0-1.7c0-0.6,0-1.2,0-1.7c0-0.5,0-1,0-1.5c0-0.5,0-1,0-1.5c0-0.4,0-0.8,0-1.3
	c0-0.4,0-0.8,0-1.2c0-0.4,0-0.8,0-1.1c0-0.4,0-0.8,0-1.1c0-0.3,0-0.6,0-0.9c0-0.3,0-0.5,0-0.8c0-0.2,0-0.4,0-0.6
	c0-0.2,0-0.4-0.1-0.6c0-0.1,0-0.3,0-0.4c0-0.1,0-0.2,0-0.3c0-0.1,0-0.1,0-0.2v-0.1c-0.1,0-0.1,0-0.2,0c-0.2,0.1-0.4,0.1-0.6,0.2
	c-0.3,0-0.6,0-0.9,0.1c-0.3,0.1-0.7,0.1-1.1,0.2c-0.5,0.1-0.9,0.1-1.4,0.2c-0.5,0.1-1,0.1-1.5,0.2c-0.5,0.1-1.1,0.1-1.6,0.1
	c-0.5,0.1-1.1,0.1-1.7,0.1c-0.5,0-1.1,0-1.6,0c-0.5,0-1,0-1.5,0c-0.5-0.1-0.9-0.1-1.4-0.2c-0.4-0.1-0.8-0.3-1.2-0.4
	c-0.4-0.1-0.7-0.3-1-0.5c-0.3-0.2-0.5-0.4-0.6-0.7c-0.1-0.1-0.2-0.3-0.3-0.6c-0.1-0.3-0.1-0.5-0.2-0.8c-0.1-0.3-0.1-0.7-0.2-1.1
	c0-0.4,0-0.8-0.1-1.2c0-0.5,0-0.9-0.1-1.4c0-0.5,0-1,0-1.5c0-0.5,0-1.1,0-1.6c0-0.5,0-1.1,0-1.6c0.1-0.6,0.1-1.2,0.1-1.7
	c0.1-0.6,0.1-1.2,0.1-1.7c0.1-0.6,0.1-1.2,0.2-1.7c0.1-0.5,0.1-1.1,0.2-1.7c0.1-0.5,0.1-1,0.2-1.5c0.1-0.5,0.2-1,0.3-1.5
	c0.1-0.5,0.1-0.9,0.2-1.3c0.1-0.4,0.2-0.8,0.3-1.2c0.1-0.3,0.3-0.6,0.4-0.9c0.1-0.3,0.2-0.5,0.3-0.8
	C306.4,586.7,306.6,586.6,306.7,586.4z"/>
<path d="M590.2,647.7c-0.2-0.1-0.4-0.3-0.5-0.6c-0.2-0.2-0.4-0.4-0.5-0.7c-0.1-0.3-0.2-0.7-0.3-1c-0.1-0.3-0.1-0.7-0.2-1.1
	c-0.1-0.4-0.1-0.8-0.2-1.3c0-0.4,0-0.8,0-1.3c0-0.5,0-1,0-1.5c0-0.5,0-1,0.1-1.5c0-0.5,0-1,0.1-1.5c0.1-0.5,0.2-1,0.3-1.5
	c0.1-0.5,0.2-1,0.3-1.5c0.1-0.5,0.2-1,0.3-1.5c0.1-0.4,0.3-0.8,0.4-1.3c0.1-0.4,0.3-0.8,0.5-1.2c0.1-0.4,0.3-0.8,0.5-1.1
	c0.1-0.3,0.3-0.6,0.5-0.9c0.2-0.3,0.4-0.5,0.6-0.7c0.1-0.2,0.3-0.3,0.6-0.4c0.1-0.1,0.3-0.1,0.5-0.1c0.3,0,0.6,0,0.9,0
	c0.5,0,0.9,0,1.3,0c0.5,0.1,1,0.1,1.5,0.2c0.6,0,1.2,0,1.7,0.1c0.6,0.1,1.2,0.1,1.9,0.2c0.6,0.1,1.2,0.1,1.8,0.2
	c0.6,0.1,1.2,0.2,1.8,0.3c0.5,0.1,1.1,0.1,1.6,0.2c0.5,0.1,0.9,0.1,1.4,0.2c0.4,0,0.8,0,1.1,0.1c0.3,0,0.5,0,0.7,0.1
	c0.1,0.1,0.2,0.1,0.3,0.1c0-0.1,0-0.2,0-0.3c0-0.2,0-0.4,0.1-0.6c0.1-0.3,0.1-0.7,0.1-1c0.1-0.4,0.1-0.8,0.1-1.2
	c0.1-0.5,0.1-1.1,0.2-1.6c0.1-0.5,0.1-1.1,0.2-1.6c0.1-0.7,0.1-1.3,0.2-1.9c0.1-0.6,0.1-1.2,0.2-1.8c0.1-0.7,0.1-1.3,0.2-1.9
	c0.1-0.6,0.1-1.2,0.2-1.8c0.1-0.6,0.1-1.2,0.2-1.7c0.1-0.5,0.1-1.1,0.2-1.6c0.1-0.5,0.1-0.9,0.2-1.3c0.1-0.3,0.1-0.7,0.2-1
	c0.1-0.3,0.1-0.5,0.1-0.7c0.1-0.1,0.1-0.2,0.2-0.3c0.1-0.1,0.3-0.2,0.5-0.3c0.3-0.1,0.5-0.1,0.8-0.2c0.3-0.1,0.7-0.1,1-0.2
	c0.4-0.1,0.8-0.1,1.3-0.1c0.5-0.1,0.9-0.1,1.4-0.1c0.5-0.1,1.1-0.1,1.6-0.1c0.5,0,1.1,0,1.6,0c0.6,0,1.2,0,1.7,0c0.6,0,1.2,0,1.7,0
	c0.6,0.1,1.2,0.1,1.7,0.1c0.6,0,1.2,0,1.7,0.1c0.5,0.1,1,0.1,1.5,0.1c0.5,0.1,0.9,0.1,1.4,0.2c0.5,0,0.9,0,1.3,0.1
	c0.3,0.1,0.7,0.1,1,0.2c0.3,0.1,0.5,0.1,0.8,0.2c0.2,0.1,0.4,0.1,0.5,0.2c0,0.1,0,0.1,0.1,0.2c0,0.1,0,0.3,0.1,0.4
	c0.1,0.3,0.1,0.5,0.1,0.7c0.1,0.3,0.1,0.6,0.1,0.9c0.1,0.3,0.1,0.7,0.1,1c0.1,0.4,0.1,0.8,0.1,1.2c0.1,0.5,0.1,0.9,0.2,1.4
	c0,0.5,0,1,0.1,1.5c0,0.5,0,1.1,0.1,1.6c0,0.5,0,1.1,0.1,1.7c0,0.5,0,1.1,0.1,1.7c0,0.6,0,1.2,0.1,1.9c0,0.6,0,1.2,0,1.8
	c0.1,0.7,0.1,1.3,0.1,1.9c0,0.7,0,1.3,0.1,1.9h0.2c0.2-0.1,0.4-0.1,0.7-0.1c0.3-0.1,0.7-0.1,1-0.2c0.5-0.1,0.9-0.1,1.3-0.2
	c0.5-0.1,1-0.2,1.5-0.3c0.6-0.1,1.2-0.1,1.7-0.2c0.6-0.1,1.2-0.2,1.8-0.3c0.6-0.1,1.2-0.1,1.8-0.2c0.5-0.1,1.1-0.1,1.7-0.2
	c0.5-0.1,1.1-0.1,1.6-0.2c0.5,0,0.9,0,1.4-0.1c0.4,0,0.8,0,1.1,0c0.3,0,0.6,0,0.9,0c0.1,0,0.3,0.1,0.4,0.2c0.1,0.1,0.3,0.3,0.4,0.5
	c0.1,0.3,0.3,0.6,0.4,0.9c0.1,0.3,0.2,0.7,0.3,1.1c0.1,0.4,0.2,0.8,0.3,1.2c0.1,0.5,0.1,0.9,0.2,1.4c0.1,0.5,0.1,1.1,0.2,1.6
	c0.1,0.5,0.1,1.1,0.1,1.6c0.1,0.5,0.1,1.1,0.1,1.6c0,0.6,0,1.2,0,1.7c0,0.5,0,1.1,0,1.6c0,0.5,0,1.1-0.1,1.6c0,0.5,0,1-0.1,1.5
	c-0.1,0.5-0.1,0.9-0.2,1.3c-0.1,0.4-0.1,0.8-0.2,1.2c-0.1,0.3-0.2,0.6-0.3,0.9c-0.1,0.3-0.3,0.5-0.4,0.7c-0.1,0.2-0.2,0.3-0.4,0.4
	c-0.1,0.1-0.3,0.1-0.5,0.1c-0.3,0.1-0.6,0.1-0.9,0.1c-0.4,0-0.8,0-1.3,0c-0.5,0-1,0-1.5,0c-0.6,0-1.2,0-1.8,0
	c-0.7-0.1-1.3-0.1-1.9-0.1c-0.7,0-1.3,0-1.9-0.1c-0.6,0-1.2,0-1.9,0c-0.5-0.1-1.1-0.1-1.7-0.1c-0.5,0-1,0-1.5-0.1
	c-0.3,0-0.7,0-1.1,0c-0.3,0-0.5,0-0.8-0.1c-0.1,0-0.2,0-0.3,0v0.1c0,0.1,0,0.2,0,0.3c0,0.1,0,0.3,0,0.4c0,0.2,0,0.4,0,0.6
	s0,0.4,0,0.7c0,0.3,0,0.5,0,0.8c0,0.3,0,0.7,0,1c0,0.4,0,0.8,0,1.1c0,0.4,0,0.8,0,1.2c0,0.5,0,0.9,0,1.3c-0.1,0.5-0.1,1-0.1,1.5
	c0,0.5,0,1,0,1.5c0,0.5,0,1,0,1.5c0,0.6,0,1.2,0,1.7c-0.1,0.5-0.1,1.1-0.1,1.7c0,0.6,0,1.2,0,1.7c0,0.6,0,1.2,0,1.8
	c-0.1,0.6-0.1,1.2-0.1,1.9c0,0.6,0,1.2,0,1.8c0,0.7,0,1.3-0.1,1.9c0,0.6,0,1.2,0,1.9c-0.1,0.6-0.1,1.2-0.1,1.9c0,0.6,0,1.2,0,1.9
	c-0.1,0.6-0.1,1.2-0.1,1.8c0,0.6,0,1.2-0.1,1.9c0,0.6,0,1.2-0.1,1.8c0,0.6,0,1.2,0,1.7c-0.1,0.6-0.1,1.2-0.1,1.8
	c-0.1,0.5-0.1,1.1-0.1,1.6s0,1.1-0.1,1.6c0,0.5,0,1-0.1,1.5c0,0.5,0,0.9-0.1,1.4c-0.1,0.5-0.1,0.9-0.1,1.4c-0.1,0.4-0.1,0.8-0.1,1.2
	c-0.1,0.4-0.1,0.8-0.2,1.2c0,0.3,0,0.7-0.1,1c0,0.3,0,0.6-0.1,0.9c-0.1,0.2-0.1,0.4-0.2,0.7c0,0.2,0,0.4-0.1,0.6
	c-0.1,0.1-0.1,0.3-0.2,0.5c0,0.1,0,0.2-0.1,0.3c-0.1,0.1-0.1,0.1-0.2,0.1c-0.2,0.1-0.4,0.1-0.6,0.1c-0.3,0.1-0.6,0.1-0.9,0.1
	c-0.3,0.1-0.7,0.1-1,0.2c-0.3,0-0.7,0-1.1,0c-0.4,0.1-0.8,0.1-1.3,0.1c-0.4,0.1-0.8,0.1-1.3,0.1c-0.5,0-1,0-1.5,0.1
	c-0.5,0-1,0-1.5,0c-0.5,0-1.1,0-1.6,0c-0.5,0-1.1,0-1.6,0c-0.5,0-1.1,0-1.6,0c-0.5,0-1.1,0-1.6,0s-1.1,0-1.6,0c-0.5,0-1.1,0-1.6-0.1
	c-0.5,0-1,0-1.5,0c-0.5-0.1-0.9-0.1-1.4-0.1c-0.5,0-0.9,0-1.3-0.1c-0.4-0.1-0.8-0.1-1.2-0.1c-0.4-0.1-0.8-0.1-1.1-0.2
	c-0.3,0-0.6,0-0.9-0.1c-0.3-0.1-0.5-0.1-0.8-0.2c-0.2-0.1-0.4-0.1-0.6-0.2l-0.1-0.1c-0.1-0.1-0.1-0.1-0.1-0.2
	c-0.1-0.1-0.1-0.2-0.1-0.3c-0.1-0.1-0.1-0.2-0.1-0.3c-0.1-0.1-0.1-0.3-0.1-0.5c-0.1-0.1-0.1-0.3-0.1-0.5c0-0.2,0-0.4,0-0.6
	c-0.1-0.2-0.1-0.4-0.1-0.7c0-0.3,0-0.5,0-0.7c0-0.3,0-0.6,0-0.9c0-0.3,0-0.5-0.1-0.8c0-0.3,0-0.7,0-1c0.1-0.3,0.1-0.7,0.1-1
	c0-0.3,0-0.7,0-1.1c0-0.3,0-0.7,0-1.1c0-0.4,0-0.8,0.1-1.2c0-0.4,0-0.8,0-1.2c0-0.5,0-0.9,0.1-1.3c0-0.5,0-0.9,0-1.3
	c0.1-0.5,0.1-0.9,0.1-1.4c0-0.5,0-0.9,0.1-1.4c0-0.5,0-1,0.1-1.5c0-0.5,0-1,0.1-1.5c0-0.5,0-1,0.1-1.5c0-0.5,0-1,0.1-1.5
	c0.1-0.5,0.1-1.1,0.1-1.6c0.1-0.5,0.1-1.1,0.1-1.6c0.1-0.6,0.1-1.2,0.2-1.7c0-0.5,0-1.1,0.1-1.6c0.1-0.6,0.1-1.2,0.2-1.7
	c0-0.6,0-1.2,0.1-1.7c0.1-0.6,0.1-1.2,0.2-1.7c0-0.6,0-1.2,0.1-1.7c0.1-0.6,0.1-1.2,0.2-1.8c0.1-0.5,0.1-1.1,0.1-1.7
	c0.1-0.6,0.1-1.2,0.2-1.8c0.1-0.5,0.1-1.1,0.2-1.7c0.1-0.6,0.1-1.2,0.1-1.7c0.1-0.6,0.1-1.2,0.2-1.8c0.1-0.5,0.1-1.1,0.2-1.7
	c0-0.6,0.1-1.2,0.2-1.7c0.1-0.6,0.1-1.2,0.2-1.8l-0.3,0.1c-0.3,0-0.5,0-0.8,0c-0.4,0-0.8,0-1.2,0.1c-0.5,0.1-0.9,0.1-1.4,0.1
	c-0.6,0-1.2,0-1.8,0.1c-0.6,0-1.2,0-1.9,0.1c-0.6,0-1.2,0-1.9,0.1c-0.6,0-1.2,0-1.9,0c-0.6,0-1.2,0-1.8,0.1c-0.5,0-1.1,0-1.6,0
	c-0.5,0-0.9,0-1.3-0.1c-0.3,0-0.7,0-1-0.1C590.5,647.8,590.3,647.7,590.2,647.7z"/>
<path d="M701.1,691.2c-0.1-0.3-0.3,0-0.6,0.9c-0.1,0.3-0.4,0.5-0.7,0.8c-0.3,0.2-0.5,0.4-0.7,0.7c-0.2,0.3-0.4,0.5-0.7,0.7
	c-0.3,0.3-0.5,0.5-0.7,0.7c-0.3,0.3-0.5,0.5-0.8,0.7c-0.3,0.2-0.5,0.4-0.7,0.6c-0.3,0.2-0.5,0.4-0.8,0.6c-0.3,0.1-0.5,0.3-0.8,0.5
	c-0.3,0.2-0.5,0.4-0.8,0.5c-0.3,0.1-0.5,0.3-0.8,0.5c-0.3,0.1-0.5,0.3-0.8,0.4c-0.3,0.1-0.6,0.3-0.9,0.4c-0.3,0.1-0.5,0.2-0.8,0.3
	c-0.3,0.1-0.6,0.3-0.9,0.4c-0.3,0.1-0.5,0.1-0.8,0.2c-0.3,0.1-0.6,0.2-0.9,0.3c-0.3,0.1-0.6,0.1-0.9,0.2c-0.3,0.1-0.5,0.1-0.8,0.2
	c-0.3,0.1-0.6,0.1-0.9,0.1c-0.3,0.1-0.6,0.1-0.9,0.1c-0.3,0.1-0.6,0.1-0.9,0.1c-0.3,0-0.6,0-0.9,0c-0.3,0.1-0.6,0.1-0.9,0
	c-0.3,0-0.5,0-0.8,0c-0.3,0-0.6,0-0.9,0c-0.3-0.1-0.6-0.1-0.9-0.1c-0.3-0.1-0.6-0.1-0.9-0.2c-0.3,0-0.6,0-0.9-0.1
	c-0.3-0.1-0.6-0.1-0.9-0.2c-0.3-0.1-0.5-0.1-0.8-0.2c-0.3-0.1-0.6-0.2-0.9-0.3c-0.3-0.1-0.6-0.2-0.9-0.3c-0.3-0.1-0.5-0.2-0.8-0.3
	c-0.3-0.1-0.6-0.3-0.9-0.4c-0.3-0.1-0.5-0.3-0.8-0.4c-0.3-0.1-0.5-0.3-0.8-0.4c-0.3-0.1-0.5-0.3-0.8-0.4c-0.3-0.2-0.5-0.4-0.8-0.5
	c-0.3-0.2-0.5-0.4-0.8-0.5c-0.3-0.2-0.5-0.4-0.8-0.6c-0.3-0.1-0.5-0.3-0.8-0.5c-0.3-0.2-0.5-0.4-0.7-0.6c-0.3-0.2-0.5-0.4-0.8-0.6
	c-0.2-0.3-0.4-0.5-0.7-0.7c-0.3-0.2-0.5-0.4-0.7-0.7c-0.2-0.2-0.4-0.4-0.7-0.7c-0.2-0.3-0.4-0.5-0.7-0.8c-0.2-0.2-0.4-0.4-0.6-0.7
	c-0.2-0.3-0.4-0.5-0.6-0.8c-0.2-0.3-0.4-0.6-0.6-0.9c-0.2-0.3-0.4-0.5-0.6-0.8c-0.2-0.3-0.4-0.6-0.6-0.9c-0.1-0.3-0.3-0.6-0.5-0.9
	c-0.2-0.3-0.4-0.7-0.5-1c-0.2-0.3-0.4-0.6-0.5-0.9c-0.1-0.3-0.3-0.7-0.5-1c-0.1-0.3-0.3-0.7-0.4-1c-0.1-0.4-0.3-0.8-0.4-1.1
	c-0.1-0.3-0.3-0.7-0.4-1.1c-0.1-0.3-0.2-0.7-0.3-1.1c-0.1-0.3-0.3-0.7-0.4-1.1c-0.1-0.4-0.1-0.8-0.2-1.1c-0.1-0.4-0.2-0.8-0.3-1.2
	c-0.1-0.4-0.1-0.8-0.2-1.2c-0.1-0.4-0.1-0.8-0.2-1.2c-0.1-0.5-0.1-0.9-0.2-1.3c0-0.4,0-0.8-0.1-1.3c0-0.4,0-0.8-0.1-1.3
	c0-0.4,0-0.8,0-1.3c0-0.5,0-0.9,0-1.3c0-0.5,0-0.9,0-1.4c0-0.5,0-0.9,0.1-1.4c0-0.5,0-0.9,0.1-1.4c0-0.5,0-1,0.1-1.5
	c0.1-0.5,0.1-0.9,0.2-1.4c0.1-0.5,0.1-1,0.2-1.5c0.1-0.6,0.3-1.2,0.4-1.7c0.1-0.5,0.2-1.1,0.3-1.6c0.1-0.5,0.3-1,0.4-1.5
	c0.1-0.5,0.3-1,0.5-1.5c0.1-0.5,0.3-1,0.5-1.5c0.1-0.5,0.3-0.9,0.5-1.4c0.2-0.5,0.4-0.9,0.6-1.3c0.2-0.5,0.4-0.9,0.6-1.3
	c0.2-0.5,0.4-0.9,0.7-1.3c0.2-0.4,0.4-0.8,0.7-1.2c0.2-0.4,0.4-0.8,0.7-1.1c0.3-0.4,0.5-0.8,0.8-1.1c0.3-0.4,0.5-0.8,0.8-1.1
	c0.3-0.3,0.5-0.7,0.8-1c0.3-0.3,0.5-0.7,0.8-1c0.3-0.3,0.6-0.6,0.9-0.9c0.3-0.3,0.6-0.5,0.9-0.8c0.3-0.3,0.7-0.5,1-0.8
	c0.3-0.3,0.6-0.5,0.9-0.8c0.3-0.3,0.7-0.5,1-0.7c0.3-0.3,0.7-0.5,1-0.7c0.3-0.2,0.7-0.4,1-0.6c0.3-0.2,0.7-0.4,1-0.6
	c0.4-0.2,0.8-0.4,1.1-0.5c0.3-0.2,0.7-0.4,1.1-0.5c0.3-0.1,0.7-0.3,1-0.5c0.4-0.1,0.8-0.3,1.1-0.4c0.4-0.1,0.8-0.2,1.1-0.3
	c0.4-0.1,0.8-0.2,1.1-0.3c0.4-0.1,0.8-0.2,1.1-0.3c0.4-0.1,0.8-0.1,1.1-0.2c0.4-0.1,0.8-0.1,1.1-0.2c0.4-0.1,0.8-0.1,1.2-0.1
	c0.3-0.1,0.7-0.1,1.1-0.1c0.3-0.1,0.7-0.1,1.1-0.1c0.4,0,0.8,0,1.1,0c0.4,0,0.8,0,1.1,0c0.4,0,0.8,0,1.1,0.1c0.4,0,0.8,0,1.1,0.1
	c0.4,0,0.8,0,1.1,0.1c0.4,0.1,0.8,0.1,1.1,0.2c0.3,0.1,0.7,0.1,1.1,0.2c0.3,0.1,0.7,0.2,1,0.3c0.4,0.1,0.8,0.2,1.1,0.3
	c0.3,0.1,0.7,0.3,1,0.4c0.3,0.1,0.7,0.2,1,0.3c0.3,0.1,0.7,0.3,1,0.4c0.3,0.2,0.7,0.4,1,0.5c0.3,0.1,0.6,0.3,0.9,0.5
	c0.3,0.2,0.6,0.4,0.9,0.5c0.3,0.2,0.6,0.4,0.9,0.6c0.3,0.2,0.6,0.4,0.9,0.6c0.4,0.1,0.7,0.3,0.8,0.6c0.5,0.7,0.7,1,0.8,0.7
	c0.3-0.5,0.4-1.2,0.3-2.1c-0.1-0.6,0-1.2,0.2-1.8c0.1-0.4,0.2-0.8,0.3-1.3c0-0.3,0.1-0.5,0.3-0.6c0.1-0.1,0.2-0.1,0.4-0.2
	c0.2-0.1,0.4-0.1,0.7-0.1c0.3-0.1,0.7-0.1,1-0.1c0.4-0.1,0.8-0.1,1.2-0.1c0.5,0,0.9,0,1.4,0c0.5,0,1.1,0,1.6,0c0.5,0,1.1,0,1.7,0
	c0.5,0,1.1,0,1.7,0c0.6,0,1.2,0,1.8,0.1c0.6,0,1.2,0,1.9,0.1c0.5,0,1.1,0,1.7,0.1c0.6,0.1,1.2,0.1,1.7,0.2c0.5,0.1,1.1,0.1,1.6,0.2
	c0.5,0.1,0.9,0.1,1.4,0.2c0.4,0.1,0.8,0.1,1.2,0.2c0.3,0.1,0.7,0.2,1,0.3c0.3,0.1,0.5,0.1,0.7,0.2c0.1,0.1,0.3,0.3,0.4,0.4l0.1,0.1
	c0,0.1,0,0.2,0,0.3c0,0.1,0,0.3,0,0.4c0,0.2,0,0.4,0,0.6c0,0.2,0,0.4,0,0.6c0,0.3,0,0.5,0,0.7c0,0.3,0,0.6,0,0.9
	c0,0.3,0,0.6-0.1,0.9c0,0.4,0,0.8,0,1.1c-0.1,0.4-0.1,0.8-0.1,1.1c0,0.5,0,0.9-0.1,1.3c0,0.4,0,0.8,0,1.3c-0.1,0.5-0.1,0.9-0.1,1.4
	c0,0.5,0,1-0.1,1.5c0,0.5,0,1.1,0,1.6c-0.1,0.5-0.1,1.1-0.1,1.6c0,0.6,0,1.2-0.1,1.8c0,0.6,0,1.2,0,1.7c-0.1,0.7-0.1,1.3-0.1,1.9
	c0,0.7,0,1.3,0,1.9c0,0.7,0,1.3-0.1,2c0,0.7,0,1.3,0,2c0,0.7,0,1.4,0,2.1c0,0.8,0,1.6,0,2.3c0,0.7,0,1.5,0,2.2
	c0.1,0.7,0.1,1.4,0.1,2.1c0,0.7,0,1.4,0,2.1c0,0.7,0,1.3,0.1,2c0,0.7,0,1.3,0,2c0.1,0.7,0.1,1.3,0.1,1.9s0,1.2,0.1,1.9
	c0,0.6,0,1.2,0.1,1.7c0,0.6,0,1.2,0,1.8c0.1,0.5,0.1,1.1,0.1,1.6c0.1,0.5,0.1,1.1,0.1,1.6c0.1,0.5,0.1,1,0.1,1.5
	c0.1,0.5,0.1,1,0.1,1.5c0.1,0.5,0.1,0.9,0.1,1.4c0.1,0.4,0.1,0.8,0.1,1.3c0,0.4,0,0.8,0.1,1.2c0,0.4,0,0.8,0.1,1.2
	c0,0.4,0,0.8,0,1.1c0.1,0.3,0.1,0.7,0.1,1.1c0,0.3,0,0.6,0.1,0.9c0,0.3,0,0.6,0,0.9s0,0.5,0.1,0.8c0,0.3,0,0.5,0,0.8
	c0,0.2,0,0.4,0,0.6c0,0.2,0,0.4,0,0.6c0,0.2,0,0.4,0,0.5c0,0.1,0,0.3,0,0.5c0,0.1,0,0.2-0.1,0.3c0,0.1,0,0.2,0,0.3
	c-0.1,0.1-0.1,0.1-0.1,0.2c0,0.1,0,0.1-0.1,0.1c-0.1,0.1-0.3,0.1-0.4,0.2c-0.3,0.1-0.5,0.1-0.7,0.1c-0.3,0.1-0.7,0.1-1,0.2
	c-0.3,0-0.7,0-1.1,0.1c-0.5,0-0.9,0-1.3,0c-0.5,0.1-1,0.1-1.5,0.1c-0.5,0-1.1,0-1.6,0c-0.5,0-1.1,0-1.7,0c-0.5,0-1.1,0-1.7,0
	c-0.6,0-1.2,0-1.8,0s-1.2,0-1.8,0c-0.5,0-1.1,0-1.7-0.1c-0.6,0-1.2,0-1.7-0.1c-0.6,0-1.2,0-1.7,0c-0.5-0.1-1-0.1-1.5-0.1
	c-0.5-0.1-0.9-0.1-1.4-0.1c-0.4-0.1-0.8-0.1-1.2-0.1c-0.3-0.1-0.7-0.1-1-0.2c-0.3,0-0.5,0-0.8-0.1c-0.2-0.1-0.4-0.1-0.6-0.1
	c-0.1-0.1-0.2-0.1-0.3-0.2c-0.2-0.2-0.3-0.4-0.4-0.7c-0.1-0.3-0.2-0.5-0.3-0.8c-0.1-0.4-0.2-0.8-0.2-1.1c-0.1-0.5-0.1-0.9-0.1-1.3
	c0.1-0.5,0.1-1,0.1-1.5c-0.1-0.5-0.1-1.1,0-1.6C701.2,692.2,701.3,691.6,701.1,691.2z M691.6,652.8c-0.4-0.1-0.8-0.1-1.3-0.1
	c-0.5,0-0.9,0-1.3,0c-0.5,0.1-0.9,0.2-1.3,0.3c-0.4,0.1-0.8,0.3-1.2,0.4c-0.4,0.2-0.8,0.4-1.1,0.7c-0.4,0.2-0.8,0.4-1.1,0.7
	c-0.3,0.3-0.6,0.6-0.9,0.9c-0.3,0.3-0.6,0.7-0.9,1c-0.3,0.3-0.5,0.7-0.8,1.1c-0.2,0.3-0.4,0.7-0.6,1.1c-0.2,0.5-0.4,0.9-0.6,1.3
	c-0.1,0.4-0.3,0.8-0.4,1.3c-0.1,0.4-0.1,0.8-0.2,1.3c-0.1,0.5-0.1,0.9-0.1,1.4c0,0.4,0,0.8,0,1.3c0.1,0.5,0.2,0.9,0.3,1.3
	c0.1,0.4,0.3,0.8,0.4,1.2c0.1,0.5,0.3,0.9,0.5,1.2c0.3,0.4,0.5,0.8,0.7,1.1c0.3,0.4,0.5,0.8,0.8,1.1c0.3,0.3,0.6,0.6,0.9,0.9
	c0.3,0.3,0.7,0.5,1,0.8c0.3,0.3,0.7,0.5,1,0.7c0.3,0.3,0.7,0.5,1.1,0.6c0.4,0.1,0.8,0.3,1.1,0.4c0.4,0.1,0.8,0.2,1.2,0.3
	c0.4,0.1,0.8,0.1,1.2,0.1c0.4,0,0.8,0,1.2-0.1c0.5-0.1,0.9-0.2,1.4-0.3c0.5-0.1,0.9-0.3,1.4-0.5c0.5-0.1,0.9-0.3,1.3-0.5
	c0.4-0.3,0.8-0.5,1.2-0.8c0.4-0.2,0.8-0.5,1.1-0.8c0.3-0.3,0.7-0.6,1-0.9c0.3-0.3,0.6-0.7,0.9-1.1c0.3-0.3,0.5-0.7,0.7-1.1
	c0.2-0.4,0.4-0.8,0.6-1.2c0.2-0.5,0.4-0.9,0.5-1.3c0.1-0.5,0.1-0.9,0.2-1.4c0.1-0.5,0.1-0.9,0.2-1.4c0-0.5,0-1-0.1-1.5
	c-0.1-0.5-0.1-0.9-0.2-1.3c-0.1-0.5-0.3-0.9-0.4-1.3c-0.2-0.4-0.4-0.8-0.6-1.2c-0.2-0.3-0.4-0.7-0.7-1.1c-0.3-0.3-0.6-0.6-0.9-0.9
	c-0.3-0.3-0.6-0.6-0.9-0.9c-0.4-0.3-0.8-0.6-1.1-0.8c-0.4-0.3-0.8-0.5-1.2-0.7c-0.4-0.2-0.8-0.4-1.3-0.6c-0.4-0.1-0.8-0.3-1.3-0.4
	C692.6,652.9,692.1,652.8,691.6,652.8z"/>
<g>
	<path fill="#F1CC5A" d="M553.9,729.6H400.6c-12.8,0-23.2-10.4-23.2-23.2v-128c0-12.8,10.4-23.2,23.2-23.2h153.3
		c12.8,0,23.2,10.4,23.2,23.2v128C577.1,719.1,566.7,729.6,553.9,729.6z"/>
	<path fill="#FFEDBB" d="M542.5,714.7H412c-12.8,0-23.2-10.4-23.2-23.2v-97.9c0-12.8,10.4-23.2,23.2-23.2h130.6
		c12.8,0,23.2,10.4,23.2,23.2v97.9C565.7,704.3,555.3,714.7,542.5,714.7z"/>
</g>
</svg>
