<?xml version="1.0" encoding="utf-8"?>
<!-- Generator: Adobe Illustrator 18.0.0, SVG Export Plug-In . SVG Version: 6.00 Build 0)  -->
<!DOCTYPE svg PUBLIC "-//W3C//DTD SVG 1.0//EN" "http://www.w3.org/TR/2001/REC-SVG-20010904/DTD/svg10.dtd">
<svg version="1.0" id="Camada_1" xmlns="http://www.w3.org/2000/svg" xmlns:xlink="http://www.w3.org/1999/xlink" x="0px" y="0px"
	 viewBox="0 0 1024 768" enable-background="new 0 0 1024 768" xml:space="preserve">
<g>
	<path d="M380.2,586.4c0.1-0.1,0.1-0.1,0.2-0.2c0.1,0,0.3,0,0.4-0.1c0.2-0.1,0.4-0.1,0.5-0.2c0.2,0,0.4,0,0.7-0.1
		c0.2-0.1,0.4-0.1,0.7-0.2c0.6,0,1.3-0.1,1.9-0.3c0.8-0.1,1.5-0.1,2.3-0.2c0.4-0.1,0.8-0.1,1.3-0.2c0.9-0.1,1.9-0.1,2.8-0.2
		c0.5-0.1,1-0.1,1.5-0.1c0.5-0.1,1-0.1,1.5-0.2c0.5,0,1.1,0,1.6-0.1c0.6,0,1.2,0,1.7-0.1c0.5,0,1.1,0,1.7-0.1c0.6,0,1.2,0,1.7,0
		c0.6-0.1,1.2-0.1,1.8-0.1c1.2-0.1,2.4-0.1,3.6-0.2c1.2,0,2.4,0,3.6-0.1c1.8,0,3.5,0.1,5.3-0.1c1.7,0,3.4-0.1,5.1,0.1
		c1.5,0,3.1-0.1,4.6,0.1c0.5,0,1,0,1.5,0c0.9,0.1,1.7,0.1,2.6,0.2c0.4,0,0.8,0,1.1,0.1c0.7,0.1,1.4,0.1,2.1,0.2
		c0.3,0.1,0.6,0.1,0.9,0.2c0.2,0,0.4,0,0.7,0.1c0.5,0.2,1,0.4,1.5,0.6c0.1,0.1,0.1,0.1,0.2,0.2c0.1,0.2,0.2,0.4,0.3,0.6
		c0.1,0.3,0.2,0.6,0.3,0.9c0.8,2,0.8,4.5,1.1,6.7c0,0.5,0,1.1,0.1,1.7c0,0.5,0,1.1,0.1,1.7c0,0.5,0,1.1,0.1,1.7
		c0,2.1,0.2,4.2-0.1,6.3c0,0.5,0,0.9,0,1.4c-0.1,0.4-0.1,0.8-0.2,1.2c0,0.9-0.2,1.7-0.5,2.5c-0.1,0.1-0.2,0.2-0.3,0.3
		c-0.2,0.1-0.4,0.2-0.6,0.3c-0.3,0.1-0.7,0.1-1,0.1c-1.5,0.2-3.1,0.1-4.7,0.1c-0.6-0.1-1.2-0.1-1.8-0.1c-0.6-0.1-1.2-0.1-1.8-0.1
		c-0.6-0.1-1.2-0.1-1.7-0.2c-1-0.1-2-0.1-3-0.2c-0.6,0-1.2-0.1-1.8-0.2c-0.1,0-0.1,0-0.2,0v0.1c0,0.9,0,1.8,0,2.7
		c-0.6,3.2-0.1,7.1-0.1,10.4c0.4,3.4-0.2,6.8,0.2,10.2c0,1.7-0.1,3.5,0.1,5.2c0,1.1,0,2.3,0.1,3.4c0,0.7,0,1.4,0.1,2.1
		c0,0.7,0,1.3,0.1,2c0,0.7,0,1.3,0.1,2c0,0.7,0,1.3,0.1,2c0,1.2,0.1,2.5,0.3,3.7c0,1.2,0.1,2.3,0.3,3.5c0,1.1,0.1,2.1,0.3,3.2
		c0,0.9,0.1,1.9,0.3,2.8c0,0.9,0.1,1.7,0.3,2.6c0.1,0.7,0.1,1.4,0.2,2.1c0.1,0.3,0.1,0.6,0.2,0.9c0,0.3,0,0.5,0.1,0.8
		c0,0.2,0,0.4,0.1,0.7c0,0.1,0,0.3,0,0.5c0,0.3,0.1,0.5,0.2,0.8c0,0.1,0,0.1,0,0.2v0.1c0.1,0,0.1,0,0.2-0.1c0.3,0,0.5,0,0.7-0.1
		c2.5-0.4,5-0.7,7.5-1c0.6,0,1.2,0,1.8-0.1c1.1,0,2.2,0,3.3,0c0.9,0.1,1.7,0.2,2.5,0.5c0.3,0.1,0.5,0.2,0.7,0.4
		c0.1,0.1,0.1,0.3,0.2,0.5c0.1,0.2,0.2,0.4,0.3,0.6c0.4,1.5,0.7,3,0.7,4.5c0.1,0.5,0.1,0.9,0.2,1.4c0,0.5,0,1.1,0.1,1.6
		c0,0.5,0,1.1,0.1,1.6c0,0.6,0,1.2,0.1,1.7c0,2.8,0.2,5.8-0.1,8.6c0,0.5,0,1-0.1,1.5c0,0.5,0,1-0.1,1.5c-0.1,0.9-0.1,1.7-0.2,2.6
		c-0.1,0.6-0.3,1.3-0.4,1.9c-0.1,0.2-0.2,0.4-0.3,0.6c-0.1,0.2-0.2,0.4-0.4,0.6c-0.3,0.1-0.5,0.1-0.8,0.2c-0.2,0.1-0.4,0.1-0.6,0.1
		c-0.2,0.1-0.4,0.1-0.7,0.2c-0.2,0-0.4,0-0.7,0.1c-0.3,0-0.6,0-0.9,0.1c-0.3,0-0.7,0-1,0.1c-0.4,0-0.8,0-1.1,0
		c-0.4,0.1-0.8,0.1-1.2,0.1c-0.9,0.1-1.7,0.1-2.6,0.2c-0.5,0-0.9,0-1.4,0c-1,0.1-2,0.1-3,0.1c-1.1,0.1-2.1,0.1-3.2,0.1
		c-2.9,0.4-5.8-0.1-8.7,0.2c-3,0-6.1,0.2-9.1-0.1c-2.3,0-4.7,0.2-7.1-0.1c-1.1,0-2.3,0-3.4,0c-1.1-0.1-2.1-0.1-3.2-0.1
		c-1-0.1-2-0.1-3-0.2c-0.5,0-0.9,0-1.4,0c-0.9-0.1-1.7-0.1-2.6-0.2c-0.4,0-0.8,0-1.2,0c-0.3-0.1-0.7-0.1-1-0.1
		c-0.3-0.1-0.7-0.1-1-0.1c-0.3-0.1-0.6-0.1-0.9-0.1c-0.3-0.1-0.5-0.1-0.8-0.1c-0.3-0.1-0.5-0.1-0.7-0.1c-0.2-0.1-0.4-0.1-0.6-0.1
		c-0.1-0.1-0.3-0.1-0.4-0.1c-0.1-0.1-0.3-0.1-0.4-0.1c-0.2-0.2-0.3-0.4-0.4-0.6c-0.1-0.2-0.2-0.4-0.3-0.6c-0.1-0.3-0.1-0.6-0.2-0.9
		c-0.2-0.8-0.3-1.6-0.4-2.4c-0.1-1-0.1-2-0.2-3c-0.1-1.1-0.1-2.3-0.1-3.4c-0.2-1.8-0.2-3.6,0-5.4c0-0.5,0-1.1,0-1.7
		c0.1-0.6,0.1-1.2,0.1-1.7c0.1-0.6,0.1-1.2,0.2-1.7c0-1.6,0.2-3.7,0.8-5.2c0.1-0.3,0.2-0.6,0.3-0.9c0.1-0.2,0.2-0.4,0.3-0.6
		c0.1-0.2,0.2-0.3,0.4-0.4c0.3-0.1,0.5-0.2,0.8-0.3c0.4-0.1,0.8-0.2,1.2-0.2c0.5-0.1,0.9-0.1,1.4,0c0.5,0,1.1,0,1.6,0
		c2.2,0.2,4.5,0.4,6.6,0.9c0.8,0.1,1.5,0.2,2.3,0.4c0.2,0.1,0.4,0.1,0.7,0.2c0.1,0,0.1,0,0.2,0v-0.1c0-0.1,0-0.1,0-0.2
		c0.1-0.3,0.2-0.5,0.1-0.8c0.1-0.4,0.1-0.9,0.2-1.3c0-0.3,0-0.5,0.1-0.8c0-0.3,0-0.6,0.1-0.9c0-0.3,0-0.7,0.1-1.1
		c0-0.3,0-0.7,0.1-1.1c0.1-0.8,0.1-1.7,0.2-2.5c0.1-0.5,0.1-1,0.2-1.5c0.1-1,0.1-2,0.2-3c0.1-0.5,0.1-1.1,0.2-1.7
		c0-0.5,0-1.1,0.1-1.7c0.1-1.2,0.1-2.4,0.2-3.6c0.1-0.6,0.1-1.2,0.1-1.9c0.1-0.7,0.1-1.3,0.2-1.9c0-0.7,0-1.3,0.1-2
		c0-0.7,0-1.4,0.1-2.1c0-0.7,0-1.3,0-2c0.1-0.7,0.1-1.4,0.1-2.1c0.1-1.5,0.1-3.1,0.2-4.6c0-1.4,0-2.9,0.1-4.3c0-1.9-0.1-3.9,0.1-5.8
		c0-4,1.2-10.1-0.1-14c0-0.3,0-0.6,0-0.9v-0.1c-0.1,0-0.1,0-0.2,0c-0.2,0.1-0.4,0.1-0.6,0.2c-2.2,0-4.3,0.8-6.5,0.8
		c-1.6,0.2-3.2,0.1-4.8,0.1c-0.5-0.1-0.9-0.1-1.4-0.2c-1-0.3-2.3-0.6-2.8-1.6c-0.5-0.5-0.6-1.9-0.7-2.5c0-0.4,0-0.8-0.1-1.2
		c0-0.5,0-0.9-0.1-1.4c0-1.6,0-3.1,0-4.7c0.1-0.6,0.1-1.2,0.1-1.7c0.1-0.6,0.1-1.2,0.1-1.7c0.2-2.1,0.3-4.4,0.9-6.4
		c0.1-0.5,0.1-0.9,0.2-1.3c0.1-0.4,0.2-0.8,0.3-1.2c0.1-0.3,0.3-0.6,0.4-0.9c0.1-0.3,0.2-0.5,0.3-0.8
		C379.9,586.7,380.1,586.6,380.2,586.4z"/>
</g>
<image overflow="visible" width="1500" height="1500" xlink:href="../../../Desenhos Jogo Yegatu/png2/itá.png"  transform="matrix(0.585 0 0 0.5335 75 -120)">
</image>
<g>
	<path fill="#F1CC5A" d="M631.6,729.6H478.3c-12.8,0-23.2-10.4-23.2-23.2v-128c0-12.8,10.4-23.2,23.2-23.2h153.3
		c12.8,0,23.2,10.4,23.2,23.2v128C654.8,719.1,644.4,729.6,631.6,729.6z"/>
	<path fill="#FFEDBB" d="M620.2,714.7H489.7c-12.8,0-23.2-10.4-23.2-23.2v-97.9c0-12.8,10.4-23.2,23.2-23.2h130.6
		c12.8,0,23.2,10.4,23.2,23.2v97.9C643.4,704.3,633,714.7,620.2,714.7z"/>
</g>
</svg>
