<?xml version="1.0" encoding="utf-8"?>
<!-- Generator: Adobe Illustrator 18.0.0, SVG Export Plug-In . SVG Version: 6.00 Build 0)  -->
<!DOCTYPE svg PUBLIC "-//W3C//DTD SVG 1.0//EN" "http://www.w3.org/TR/2001/REC-SVG-20010904/DTD/svg10.dtd">
<svg version="1.0" id="Camada_1" xmlns="http://www.w3.org/2000/svg" xmlns:xlink="http://www.w3.org/1999/xlink" x="0px" y="0px"
	 viewBox="0 0 1024 768" enable-background="new 0 0 1024 768" xml:space="preserve">
<g>
	<path d="M422,586.2c0.2-0.2,0.4-0.4,0.7-0.5c0.3-0.1,0.6-0.3,0.9-0.4c0.8-0.2,1.5-0.4,2.3-0.6c1.9-0.5,3.9-0.7,5.9-0.9
		c0.5,0,1.1,0,1.6-0.1c0.6,0,1.2,0,1.7,0c1.6-0.2,3.4-0.2,5,0c0.5,0,1.1,0,1.6,0c0.5,0.1,1,0.1,1.5,0.1c0.5,0.1,1,0.1,1.5,0.1
		c1.5,0.2,2.9,0.4,4.4,0.8c0.4,0.1,0.8,0.3,1.2,0.6c0.1,0.1,0.2,0.2,0.3,0.3c0.1,0.1,0.1,0.2,0.2,0.3c0.2,0.2,0.3,0.4,0.4,0.7
		c0.1,0.2,0.1,0.4,0.1,0.5c0.1,0.2,0.1,0.4,0.1,0.5c0.1,0.2,0.1,0.4,0.1,0.6c0.4,1.2,0.1,3,0.1,4.3c-0.1,0.6-0.1,1.2-0.2,1.8
		c0,0.3,0,0.6-0.1,0.9c-0.1,0.7-0.1,1.4-0.2,2.1c-0.1,0.7-0.3,1.4-0.4,2.1c0,1.6-0.5,3.2-0.7,4.8c-0.4,1.2-0.5,2.5-0.7,3.8
		c-0.2,0.9-0.4,1.8-0.5,2.7c-0.2,0.9-0.4,1.9-0.6,2.8c-0.1,0.5-0.1,1-0.2,1.5c-0.2,1-0.4,1.9-0.6,2.9c-0.1,0.5-0.1,1-0.2,1.5
		c-0.2,1-0.4,2-0.6,3c-0.1,0.5-0.1,1.1-0.2,1.6c-0.2,1-0.4,2.1-0.6,3.1c-0.1,1.1-0.3,2.1-0.5,3.2c-0.1,1.1-0.3,2.1-0.5,3.2
		c-0.4,3.3-0.8,6.6-1.2,9.9c0,1.1-0.1,2.2-0.3,3.3c0,0.5,0,1.1-0.1,1.7c-0.1,1.1-0.1,2.2-0.2,3.3c-0.3,0.9-0.4,1.5-0.1,1.6
		c0.3,0.2,0.8-0.1,1.3-1c0.3-0.5,0.7-0.8,1.2-1c0.4-0.4,0.8-0.8,1.2-1.2c1.2-1,2.5-2.2,3.5-3.5c2.1-2.4,4.2-4.8,6-7.5
		c0.6-0.8,1.1-1.5,1.7-2.3c0.3-0.4,0.5-0.8,0.8-1.1c0.2-0.3,0.4-0.7,0.7-1.1c0.2-0.3,0.4-0.6,0.7-0.9c0.7-1.1,1.5-2,2.2-3.1
		c0.1-0.1,0.3-0.3,0.4-0.5c0.1-0.1,0.3-0.3,0.4-0.4c0.1-0.1,0.2-0.2,0.3-0.3c0.1-0.1,0.2-0.1,0.3-0.1c0.2-0.1,0.4-0.1,0.7-0.2
		c3,0,5.8,0.5,8.7,1.2c0.5,0.1,1,0.2,1.5,0.3c1.1,0.3,2.1,0.7,3.2,1c0.5,0.1,1.1,0.3,1.6,0.5c1.1,0.3,2.1,0.7,3.1,1.1
		c1.5,0.4,2.8,1.1,4.2,1.7c0.8,0.3,1.5,0.7,2.2,1.1c0.3,0.2,0.6,0.4,0.9,0.6c0.3,0.1,0.5,0.3,0.7,0.5c0.2,0.1,0.4,0.3,0.6,0.5
		c0.1,0.1,0.3,0.3,0.4,0.5c0.1,0.2,0.1,0.5,0.1,0.7c-0.1,0.3-0.3,0.7-0.4,1c-0.1,0.1-0.2,0.3-0.3,0.5c-0.1,0.2-0.3,0.4-0.5,0.6
		c-0.1,0.2-0.3,0.4-0.5,0.7c-0.4,0.5-0.8,0.9-1.2,1.4c-0.3,0.3-0.5,0.5-0.8,0.8c-0.7,0.9-1.7,1.9-2.6,2.6c-0.3,0.3-0.7,0.7-1,1
		c-0.3,0.3-0.7,0.6-1,0.9c-0.4,0.3-0.8,0.7-1.1,1c-0.4,0.3-0.8,0.7-1.1,1c-0.4,0.3-0.8,0.6-1.2,0.9c-1.2,1-2.4,2.1-3.7,3
		c-0.4,0.3-0.8,0.7-1.2,1c-1.3,0.9-2.6,2-3.9,2.9c-0.4,0.3-0.8,0.6-1.3,0.9c-0.4,0.3-0.8,0.5-1.2,0.8c-0.8,0.6-1.7,1.2-2.6,1.7
		c-0.4,0.3-0.8,0.5-1.2,0.8c-0.4,0.2-0.8,0.4-1.2,0.7c-0.4,0.3-0.8,0.6-1.2,0.7c-0.6,0.1-1,0.3-1.1,0.6c-0.1,0.2,0.1,0.3,0.8,0.3
		c0.3,0.1,0.7,0.2,1,0.4c0.3,0.1,0.7,0.3,1,0.5c0.3,0.1,0.7,0.3,1.1,0.5c0.8,0.4,1.5,0.8,2.3,1.2c0.5,0.3,0.9,0.5,1.3,0.7
		c0.4,0.3,0.8,0.5,1.3,0.7c0.5,0.3,0.9,0.5,1.3,0.8c0.9,0.5,1.9,1.1,2.8,1.6c0.9,0.6,1.9,1.2,2.8,1.8c0.5,0.3,0.9,0.6,1.4,0.9
		c0.5,0.3,0.9,0.6,1.4,0.9c0.9,0.6,1.8,1.2,2.7,1.8c0.5,0.3,0.9,0.7,1.4,1c0.4,0.3,0.8,0.6,1.3,0.9c0.4,0.3,0.8,0.6,1.2,0.9
		c0.4,0.3,0.8,0.6,1.2,0.9c0.4,0.3,0.8,0.6,1.2,0.9c0.3,0.3,0.7,0.5,1.1,0.8c0.3,0.3,0.7,0.6,1,0.9c0.3,0.2,0.6,0.5,0.9,0.8
		c1,0.8,2,1.8,2.8,2.8c0.3,0.3,0.5,0.7,0.7,1.1c0.1,0.1,0.1,0.3,0.2,0.4c0,0.7-0.2,1-0.6,1.6c-0.2,0.2-0.4,0.4-0.6,0.6
		c-0.3,0.3-0.5,0.5-0.8,0.7c-1.1,0.9-2.2,1.6-3.3,2.4C488,694,486,695,484,696c-1.6,0.6-3.1,1.5-4.7,2.1c-1,0.5-2,0.9-3.1,1.3
		c-0.5,0.1-0.9,0.3-1.4,0.5c-0.4,0.1-0.8,0.3-1.3,0.5c-0.4,0.1-0.8,0.2-1.2,0.3c-0.9,0.3-2.3,0.8-3.2,0.5c-0.1,0-0.3,0-0.4-0.1
		c-0.2-0.1-0.4-0.2-0.5-0.3c-0.2-0.1-0.4-0.3-0.5-0.4c-0.2-0.2-0.4-0.4-0.6-0.5c-0.4-0.5-0.8-1-1.3-1.4c-0.6-0.5-1.1-1.1-1.6-1.7
		c-0.6-0.6-1.1-1.3-1.7-1.9c-0.3-0.3-0.6-0.7-0.9-1c-0.3-0.4-0.7-0.8-1-1.1c-0.3-0.4-0.7-0.8-1-1.1c-0.3-0.4-0.7-0.8-1-1.1
		c-0.4-0.4-0.8-0.8-1.1-1.2c-0.3-0.3-0.7-0.7-1.1-1.1c-0.4-0.3-0.8-0.7-1.2-1.1c-0.3-0.3-0.7-0.7-1.1-1.1c-0.8-0.7-1.6-1.4-2.5-2
		c-0.8-0.7-1.6-1.3-2.5-1.9c-0.8-0.5-1.7-1-2.6-1.5c-0.5-0.2-1-0.4-1.4-0.7c-0.7-0.5-1.1-0.7-1.3-0.5c-0.3,0.3-0.3,0.8,0,1.6
		c0.2,0.5,0.3,1,0.2,1.6c0.1,1.1,0.3,2.1,0.5,3.2c0.1,0.5,0.2,1.1,0.3,1.6c0.1,0.5,0.2,1,0.3,1.5c0.1,0.5,0.2,1,0.3,1.5
		c0.1,0.5,0.2,1,0.3,1.5c0.1,0.4,0.2,0.8,0.3,1.3c0.2,1.7,0.5,3.3,0.5,5.1c-0.1,0.2-0.1,0.4-0.2,0.6c-0.2,0.3-0.4,0.5-0.8,0.6
		c-1.3,0.4-2.9,0.7-4.3,0.7c-0.5,0.1-1,0.1-1.5,0.2c-0.5,0-1.1,0-1.6,0.1c-0.6,0-1.2,0-1.8,0c-3.3,0.4-7.1,0.4-10.4,0
		c-0.5,0-0.9,0-1.4,0c-0.5-0.1-0.9-0.1-1.3-0.1c-0.3-0.1-0.7-0.1-1.1-0.2c-0.3,0-0.5,0-0.8-0.1c-0.2-0.1-0.4-0.1-0.5-0.2
		c-0.1,0-0.2-0.1-0.3-0.2c0-0.1,0-0.1,0-0.2c-0.2-0.2-0.1-1.1-0.1-1.4c-0.3-0.8-0.1-1.7-0.1-2.5c-0.3-1.1-0.1-2.3-0.1-3.4
		c-0.2-1.5,0-2.9-0.2-4.4c0-1.7,0.1-3.4-0.1-5.1c0-1.9,0.1-3.9-0.1-5.8c0-2.1,0.2-4.2-0.1-6.3c0-2.8,0.2-5.7-0.1-8.5
		c0-3.6,0-7.2,0-10.8c-1.1-9.4-0.1-19.5-0.1-29c0.4-3.3-0.2-6.7,0.2-10c0-1.5,0-3.1,0-4.6c0.2-1.4,0-2.8,0.2-4.2c0-0.9,0-1.8,0-2.7
		c0.1-0.8,0.1-1.7,0.1-2.5c0.1-0.8,0.1-1.5,0.1-2.3c0.1-0.7,0.1-1.3,0.2-2c0-0.6,0-1.3,0.1-1.9c0-0.3,0-0.6,0-0.9
		c0.1-0.2,0.1-0.4,0.1-0.7c0-0.5,0.1-0.9,0.2-1.4c0-0.2,0-0.4,0.1-0.6c0-0.2,0-0.4,0-0.5c0.1-0.2,0.1-0.4,0.1-0.5
		c0.1-0.1,0.1-0.3,0.1-0.4c0.1-0.1,0.1-0.2,0.1-0.3c0-0.2,0.1-0.3,0.2-0.4C421.6,586.5,421.8,586.4,422,586.2
		C422.2,586,421.8,586.4,422,586.2z"/>
	<path d="M501.5,701.1c-0.2-0.1-0.3-0.3-0.3-0.5c-0.1-0.1-0.1-0.3-0.2-0.4c0-0.2,0-0.4-0.1-0.5c-0.1-0.2-0.1-0.4-0.1-0.7
		c-0.1-0.2-0.1-0.4-0.2-0.7c0-0.3,0-0.6-0.1-0.9c0-0.3,0-0.6,0-0.9c-0.1-0.3-0.1-0.7-0.1-1.1c-0.1-0.8-0.1-1.5-0.2-2.3
		c0-0.9,0-1.7-0.1-2.6c0-0.9,0-1.9,0-2.8c-0.5-4.1-0.1-8.6-0.1-12.8c0.2-2.2,0.1-4.4,0.1-6.6c0.2-1.6,0.1-3.2,0.1-4.8
		c0.1-1.2,0.1-2.3,0.1-3.5c0.1-1.2,0.1-2.3,0.1-3.5c0.1-1.2,0.1-2.3,0.2-3.5c0-0.6,0-1.2,0-1.8c0.1-1.1,0.1-2.2,0.2-3.3
		c0-0.6,0-1.2,0.1-1.7c0-0.5,0-1.1,0-1.6c0.1-0.5,0.1-1,0.1-1.5c0.1-0.5,0.1-1,0.1-1.5c0.1-0.9,0.1-1.9,0.2-2.8c0-0.5,0-0.9,0.1-1.3
		c0-0.4,0-0.8,0.1-1.2c0-0.4,0-0.8,0.1-1.2c0-0.3,0-0.7,0.1-1c0-0.3,0-0.7,0-1c0.1-0.3,0.1-0.5,0.1-0.8c0.1-0.3,0.1-0.5,0.1-0.8
		c0.1-0.2,0.1-0.4,0.1-0.6c0.1-0.2,0.1-0.4,0.1-0.6c0.1-0.1,0.1-0.3,0.1-0.4c0-0.2,0.1-0.3,0.2-0.4c0.1-0.1,0.3-0.2,0.4-0.3
		c0.3-0.1,0.5-0.1,0.7-0.2c2.2-0.4,4.5-0.9,6.8-0.9c0.6-0.1,1.2-0.1,1.7-0.2c0.6,0,1.2,0,1.8-0.1c0.6,0,1.2,0,1.7,0
		c1.6-0.2,3.4-0.2,5,0c0.5,0,0.9,0,1.4,0c0.4,0.1,0.8,0.1,1.2,0.1c0.7,0.1,1.5,0.3,2.2,0.6c0.2,0.2,0.4,0.4,0.6,0.6
		c0.2,0.3,0.4,0.5,0.6,0.8c0.4,0.7,0.8,1.4,1.1,2.1c0.2,0.5,0.4,0.9,0.5,1.4c0.3,0.6,0.4,1.2,0.3,1.7c-0.3,1.1-0.3,1.8,0,2.1
		c0.3,0.2,0.7-0.2,1.4-1.2c0.3-0.3,0.7-0.7,1.3-1c0.4-0.3,0.8-0.6,1.3-1c0.4-0.3,0.8-0.5,1.3-0.8c0.4-0.3,0.8-0.6,1.2-0.9
		c0.8-0.5,1.7-0.9,2.6-1.3c0.4-0.3,0.8-0.5,1.2-0.6c0.5-0.2,0.9-0.4,1.3-0.6c1.2-0.4,2.4-0.9,3.7-1.1c1.8-0.7,3.9-0.6,5.8-0.9
		c0.7,0,1.5,0,2.2,0.1c0.3,0,0.7,0,1.1,0.1c1.6,0,3.6,0.4,5.1,1c0.6,0.2,1.2,0.4,1.8,0.7c0.3,0.1,0.7,0.2,1,0.3
		c0.3,0.1,0.5,0.3,0.8,0.4c0.3,0.1,0.6,0.3,0.9,0.5c0.6,0.2,1.1,0.5,1.6,0.9c0.3,0.1,0.5,0.3,0.8,0.5c0.3,0.1,0.5,0.3,0.8,0.5
		c1.3,0.6,2.1,1.8,3.3,2.6c0.6,0.6,1.1,1.1,1.7,1.7c0.4,0.6,0.9,1.1,1.3,1.7c0.1,0.1,0.3,0.3,0.4,0.5c0.1,0.2,0.2,0.4,0.3,0.5
		c0.1,0.2,0.2,0.4,0.3,0.6c0.1,0.1,0.2,0.3,0.3,0.5c0.1,0.1,0.1,0.3,0.2,0.4c0.1,0.3,0.2,0.6,0.3,0.9c0.1,0.2,0.1,0.4,0.1,0.5
		c0.2,0.4,0.1,1,0.1,1.4c-0.1,0.1-0.1,0.2-0.1,0.3c-0.1,0.1-0.3,0.3-0.4,0.4c-0.1,0.1-0.3,0.3-0.4,0.4c-0.2,0.2-0.4,0.4-0.6,0.6
		c-0.3,0.3-0.5,0.5-0.7,0.7c-1,0.8-2,1.9-2.9,2.8c-0.4,0.4-0.8,0.8-1.1,1.1c-1.2,1.2-2.4,2.4-3.6,3.6c-0.8,0.7-1.6,1.5-2.4,2.3
		c-0.7,0.7-1.4,1.4-2.2,2.1c-0.3,0.3-0.7,0.6-1.1,0.9c-0.3,0.3-0.6,0.5-0.9,0.8c-0.3,0.2-0.5,0.4-0.8,0.7c-0.4,0.3-0.9,0.6-1.3,0.9
		c-0.1,0.1-0.3,0.1-0.4,0.1c-0.1,0.1-0.1,0.1-0.2,0c-0.3-0.4-0.6-0.8-0.9-1.2c-0.3-0.4-0.7-0.8-1-1.2c-0.3-0.3-0.7-0.7-1-1.1
		c-0.3-0.3-0.6-0.7-0.9-1.1c-0.3-0.3-0.7-0.7-1-1c-0.3-0.3-0.6-0.6-0.9-0.9c-0.7-0.5-1.3-1.1-2-1.6c-0.6-0.5-1.2-0.9-1.9-1.2
		c-0.6-0.4-1.3-0.7-2-0.9c-1-0.2-2-0.4-3.1-0.2c-0.4,0-0.8,0-1.1,0.1c-0.4,0.1-0.8,0.3-1.1,0.4c-0.3,0.1-0.6,0.2-0.9,0.4
		c-0.6,0.3-1.2,0.7-1.7,1.1c-0.6,0.4-1,0.9-1.4,1.5c-0.3,0.3-0.5,0.6-0.6,0.9c-0.2,0.3-0.4,0.7-0.6,1c-0.1,0.3-0.3,0.7-0.4,1
		c-0.2,0.4-0.3,0.8-0.4,1.1c-0.4,1.2-0.6,2.5-1,3.7c-0.2,0.9-0.3,1.8-0.3,2.7c-0.1,0.5-0.1,0.9-0.1,1.4c-0.1,1-0.1,1.9-0.2,2.9
		c0,1,0,2,0.1,3c0,0.5,0,1,0,1.5c0.1,0.5,0.1,1,0.1,1.5c0.1,0.5,0.1,1,0.1,1.5c0.1,0.5,0.1,1,0.1,1.5c0.2,1,0.3,1.9,0.3,2.9
		c0.3,2.8,0.8,5.5,1.2,8.3c0,1.5,0.4,3,0.7,4.5c0.1,0.6,0.1,1.2,0.2,1.8c0.1,0.3,0.1,0.5,0.1,0.8c0.1,0.3,0.1,0.5,0.1,0.7
		c0.1,0.2,0.3,2,0,2c-0.1,0.1-0.1,0.1-0.2,0.2c-0.4,0.1-0.8,0.2-1.2,0.2c-0.6,0.2-1.3,0.3-1.9,0.3c-0.5,0.1-0.9,0.1-1.3,0.2
		c-1,0.1-1.9,0.1-2.9,0.2c-0.5,0.1-1.1,0.1-1.6,0.2c-0.5,0-1.1,0-1.7,0.1c-0.6,0-1.2,0-1.7,0.1c-0.6,0-1.2,0-1.8,0.1
		c-0.6,0-1.2,0-1.8,0.1c-0.6,0-1.2,0-1.8,0.1c-0.6,0-1.2,0-1.8,0c-1.7,0.2-3.3,0-5,0.2c-0.5,0-1,0-1.5,0c-1.2-0.2-2.4,0-3.6-0.2
		c-0.3,0-0.6,0-0.9-0.1c-0.2,0-0.4,0-0.7-0.1C501.8,701.2,501.6,701.2,501.5,701.1C501.4,701.1,501.6,701.2,501.5,701.1z"/>
	<path d="M618.9,691.2c-0.1-0.3-0.3,0-0.6,0.9c-0.1,0.3-0.4,0.5-0.7,0.8c-0.5,0.5-0.9,0.9-1.4,1.4c-0.3,0.3-0.5,0.5-0.7,0.7
		c-0.5,0.4-1,0.9-1.5,1.3c-0.3,0.2-0.5,0.4-0.8,0.6c-0.8,0.4-1.7,1-2.4,1.5c-0.6,0.3-1.1,0.6-1.7,0.8c-0.3,0.1-0.5,0.2-0.8,0.3
		c-0.3,0.1-0.6,0.3-0.9,0.4c-0.3,0.1-0.5,0.1-0.8,0.2c-0.9,0.5-2.5,0.8-3.5,0.8c-0.3,0.1-0.6,0.1-0.9,0.1c-0.6,0.1-1.2,0.1-1.8,0.1
		c-0.3,0.1-0.6,0.1-0.9,0c-0.6,0-1.1,0-1.7,0c-0.3-0.1-0.6-0.1-0.9-0.1c-0.3-0.1-0.6-0.1-0.9-0.2c-0.9,0-1.8-0.3-2.6-0.5
		c-0.6-0.2-1.2-0.4-1.8-0.6c-0.3-0.1-0.5-0.2-0.8-0.3c-0.3-0.1-0.6-0.3-0.9-0.4c-0.8-0.4-1.6-0.8-2.4-1.2c-0.3-0.2-0.5-0.4-0.8-0.5
		c-0.3-0.2-0.5-0.4-0.8-0.5c-0.3-0.2-0.5-0.4-0.8-0.6c-0.6-0.3-1.1-0.7-1.5-1.1c-0.8-0.6-1.6-1.2-2.2-2c-0.2-0.2-0.4-0.4-0.7-0.7
		c-0.2-0.3-0.4-0.5-0.7-0.8c-0.7-0.7-1.3-1.6-1.8-2.4c-0.2-0.3-0.4-0.5-0.6-0.8c-0.2-0.3-0.4-0.6-0.6-0.9c-0.1-0.3-0.3-0.6-0.5-0.9
		c-0.2-0.3-0.4-0.7-0.5-1c-0.4-0.6-0.7-1.2-1-1.9c-0.5-1.4-1.2-2.8-1.5-4.3c-0.1-0.3-0.3-0.7-0.4-1.1c-0.1-0.4-0.1-0.8-0.2-1.1
		c-0.5-1.6-0.6-3.3-0.9-4.9c0-0.4,0-0.8-0.1-1.3c0-0.4,0-0.8-0.1-1.3c0-1.8-0.1-3.6,0.1-5.4c0-0.5,0-0.9,0.1-1.4
		c0-1.5,0.3-2.9,0.5-4.4c0.1-0.6,0.3-1.2,0.4-1.7c0.2-1.5,0.6-3.2,1.2-4.6c0.1-0.5,0.3-1,0.5-1.5c0.5-1.7,1.4-3.8,2.4-5.3
		c0.2-0.4,0.4-0.8,0.7-1.2c0.2-0.4,0.4-0.8,0.7-1.1c0.3-0.4,0.5-0.8,0.8-1.1c1.2-1.8,2.7-3.3,4.2-4.8c0.3-0.3,0.7-0.5,1-0.8
		c0.6-0.6,1.2-1.1,1.9-1.5c0.9-0.7,2-1.3,3-1.9c0.4-0.2,0.8-0.4,1.1-0.5c0.3-0.2,0.7-0.4,1.1-0.5c0.3-0.1,0.7-0.3,1-0.5
		c0.4-0.1,0.8-0.3,1.1-0.4c0.7-0.2,1.5-0.4,2.2-0.6c1.4-0.5,3-0.8,4.5-0.8c0.3-0.1,0.7-0.1,1.1-0.1c1.3-0.3,3.1-0.3,4.4,0
		c0.4,0,0.8,0,1.1,0.1c1.1,0,2.2,0.3,3.3,0.5c1,0.4,2.1,0.6,3.1,1c0.7,0.2,1.4,0.4,2,0.7c0.3,0.2,0.7,0.4,1,0.5
		c0.6,0.3,1.2,0.7,1.8,1c0.3,0.2,0.6,0.4,0.9,0.6c0.6,0.4,1.2,0.8,1.7,1.2c0.5,0.7,0.7,1,0.8,0.7c0.2-1.3,0.4-2.6,0.5-3.9
		c0.1-0.4,0.2-0.8,0.3-1.3c0-0.3,0.1-0.5,0.3-0.6c0.3-0.2,0.7-0.3,1.1-0.3c0.3-0.1,0.7-0.1,1-0.1c2.9-0.5,6.5-0.3,9.4,0
		c0.6,0,1.2,0,1.9,0.1c2.6,0,6.1,0.2,8.6,1.2c0.3,0.1,0.5,0.1,0.7,0.2c0.1,0.1,0.3,0.3,0.4,0.4l0.1,0.1c0,1.4,0.2,3-0.1,4.4
		c0,0.4,0,0.8,0,1.1c-0.1,0.8-0.1,1.6-0.2,2.4c0,0.4,0,0.8,0,1.3c-0.1,1-0.1,1.9-0.2,2.9c0,0.5,0,1.1,0,1.6
		c-0.1,1.1-0.1,2.3-0.2,3.4c0,0.6,0,1.2,0,1.7c-0.2,1.9,0,3.9-0.2,5.8c0,2.9,0,5.7,0,8.6c0.2,2.1,0,4.1,0.2,6.2c0,0.7,0,1.3,0,2
		c0.1,1.3,0.1,2.5,0.2,3.8c0,0.6,0,1.2,0.1,1.7c0,0.6,0,1.2,0,1.8c0.1,0.5,0.1,1.1,0.1,1.6c0.1,0.5,0.1,1.1,0.1,1.6
		c0.1,0.5,0.1,1,0.1,1.5c0.1,0.5,0.1,1,0.1,1.5c0.1,0.5,0.1,0.9,0.1,1.4c0.1,0.8,0.1,1.7,0.2,2.5c0,0.4,0,0.8,0.1,1.2
		c0,0.4,0,0.8,0,1.1c0.1,0.7,0.1,1.3,0.2,2c0,0.6,0,1.1,0.1,1.7c0,0.9,0.3,2.5-0.1,3.3c0,0.1,0,0.2,0,0.3c0,0.1-0.1,0.2-0.2,0.3
		c-0.1,0.1-0.3,0.1-0.4,0.2c-0.3,0.1-0.5,0.1-0.7,0.1c-0.3,0.1-0.7,0.1-1,0.2c-0.3,0-0.7,0-1.1,0.1c-0.5,0-0.9,0-1.3,0
		c-3.7,0.5-8.1,0.4-11.8,0c-0.6,0-1.2,0-1.7-0.1c-0.6,0-1.2,0-1.7,0c-0.5-0.1-1-0.1-1.5-0.1c-0.5-0.1-0.9-0.1-1.4-0.1
		c-0.4-0.1-0.8-0.1-1.2-0.1c-0.3-0.1-0.7-0.1-1-0.2c-0.3,0-0.5,0-0.8-0.1c-0.2-0.1-0.4-0.1-0.6-0.1c-0.1-0.1-0.2-0.1-0.3-0.2
		c-0.2-0.2-0.3-0.4-0.4-0.7c-0.1-0.3-0.2-0.5-0.3-0.8c-0.1-0.4-0.2-0.8-0.2-1.1c-0.1-0.5-0.1-0.9-0.1-1.3c0.1-0.5,0.1-1,0.1-1.5
		c-0.1-0.5-0.1-1.1,0-1.6C619,692.2,619,691.6,618.9,691.2C618.8,690.9,619,691.6,618.9,691.2z M609.4,652.8
		c-0.9-0.1-1.7-0.1-2.6-0.1c-0.9,0.2-1.7,0.4-2.5,0.7c-1.1,0.5-2.3,1.3-3.1,2.3c-0.6,0.6-1.2,1.3-1.7,2.1c-0.5,0.8-0.9,1.6-1.2,2.4
		c-0.1,0.4-0.3,0.8-0.4,1.3c-0.2,1.3-0.3,2.6-0.3,4c0.2,1.2,0.6,2.7,1.2,3.7c0.3,0.4,0.5,0.8,0.7,1.1c0.9,1.4,2.2,2.6,3.7,3.5
		c0.7,0.4,1.4,0.8,2.2,1c2.1,0.7,4.4,0.4,6.4-0.5c0.5-0.1,0.9-0.3,1.3-0.5c0.4-0.3,0.8-0.5,1.2-0.8c0.4-0.2,0.8-0.5,1.1-0.8
		c0.7-0.6,1.4-1.2,1.9-2c0.8-1,1.4-2.4,1.8-3.6c0.1-0.9,0.3-1.9,0.4-2.8c0-0.9-0.1-1.9-0.3-2.8c-0.1-0.5-0.3-0.9-0.4-1.3
		c-0.2-0.4-0.4-0.8-0.6-1.2c-0.2-0.3-0.4-0.7-0.7-1.1c-0.6-0.6-1.2-1.2-1.8-1.8c-0.4-0.3-0.8-0.6-1.1-0.8c-0.8-0.5-1.6-0.9-2.5-1.3
		C611.2,653.1,610.3,652.9,609.4,652.8C609,652.7,609.9,652.8,609.4,652.8z"/>
	<path d="M653.4,628.7c0.2-0.1,0.4-0.2,0.6-0.3c0.3-0.1,0.6-0.1,0.9-0.2c0.8-0.1,1.5-0.2,2.3-0.2c3.1-0.4,6.8-0.3,9.9,0
		c0.6,0,1.2,0,1.8,0.1c0.6,0,1.2,0,1.8,0.1c0.6,0,1.2,0,1.7,0.1c1.1,0,2.1,0.1,3.2,0.3c0.9,0,1.8,0.1,2.7,0.3c0.3,0,0.7,0,1.1,0.1
		c0.3,0.1,0.5,0.1,0.8,0.2c0.2,0,0.4,0,0.6,0.1c0.1,0.1,0.2,0.1,0.3,0.1c0.1,0.1,0.1,0.1,0.2,0.2c0.1,0.1,0.2,0.3,0.3,0.4
		c0.1,0.2,0.2,0.4,0.3,0.6c0.6,1.3,1.3,2.6,1.8,4c0.4,0.9,0.8,1.8,1.2,2.7c0.5,1,0.9,2,1.4,3c0.2,0.5,0.4,1.1,0.7,1.7
		c0.9,2.3,1.9,4.5,2.9,6.8c0.2,0.5,0.4,1.1,0.7,1.7c0.2,0.5,0.4,1.1,0.7,1.7c0.2,0.5,0.4,1.1,0.7,1.7c0.7,2,1.8,3.9,2.4,5.9
		c0.2,0.4,0.4,0.8,0.6,1.3c0.2,0.7,0.5,1.4,0.8,2.1c0.1,0.3,0.3,0.5,0.4,0.8c0.1,0.3,0.2,0.5,0.3,0.7c0,0.2,0.1,0.4,0.2,0.5
		c0,0.1,0,0.2,0.1,0.3c0,0.1,0,0.1,0,0.2c0.2-0.2,0.3-0.8,0.3-1c0.1-0.3,0.2-0.5,0.3-0.7c0.1-0.3,0.2-0.6,0.3-0.9
		c0.3-1.6,1-3.4,1.6-4.9c0.1-0.5,0.3-1,0.5-1.5c0.3-1.1,0.7-2.1,1.1-3.2c0.5-2.3,1.4-4.8,2.4-7c1.4-3.7,3-7.4,4.1-11.2
		c0.2-0.5,0.4-0.9,0.6-1.3c0.1-0.4,0.3-0.8,0.5-1.2c0.1-0.3,0.3-0.7,0.4-1c0.1-0.3,0.3-0.6,0.5-0.9c0.1-0.2,0.2-0.4,0.4-0.6
		c0.1-0.2,0.2-0.4,0.3-0.5c0.1-0.1,0.2-0.3,0.3-0.4c0.1-0.1,0.3-0.1,0.4-0.2c0.3-0.1,0.5-0.1,0.7-0.2c1.2-0.6,3.1-0.8,4.5-0.8
		c1-0.2,2-0.3,3-0.3c0.5-0.1,1.1-0.1,1.7-0.1c0.5-0.1,1.1-0.1,1.6-0.1c1.1-0.1,2.3-0.1,3.4-0.1c1.7-0.2,3.3-0.1,5-0.1
		c1,0.1,1.9,0.1,2.9,0.2c0.5,0,0.9,0,1.3,0.1c0.7,0,1.5,0.1,2.2,0.3c0.3,0,0.5,0,0.8,0.1c0.2,0.1,0.4,0.2,0.6,0.3
		c0.1,0,0.2,0.1,0.3,0.2l0.1,0.1v0.1c0,0.1,0,0.1-0.1,0.2c0,0.2,0,0.3-0.1,0.5c0,0.1,0,0.3,0,0.4c-0.1,0.1-0.1,0.3-0.2,0.4
		c0,0.1,0,0.3-0.1,0.5c-0.1,0.1-0.1,0.3-0.1,0.5c-0.3,0.6-0.4,1.2-0.6,1.8c-0.1,0.2-0.1,0.4-0.2,0.6c-0.2,0.5-0.4,1.1-0.6,1.6
		c-0.1,0.3-0.2,0.5-0.3,0.8c-0.1,0.3-0.2,0.6-0.3,0.9c-0.1,0.3-0.2,0.6-0.3,0.9c-0.1,0.3-0.2,0.6-0.3,0.9c-0.4,1-0.9,2-1.1,3.1
		c-0.1,0.3-0.3,0.7-0.5,1.1c-0.4,1.1-0.8,2.3-1.3,3.4c-0.3,0.8-0.6,1.7-0.9,2.5c-0.1,0.4-0.3,0.8-0.5,1.3c-0.1,0.4-0.3,0.8-0.5,1.3
		c-0.1,0.5-0.3,0.9-0.5,1.3c-0.3,0.9-0.7,1.9-1,2.8c-0.4,0.9-0.8,1.8-1.1,2.8c-0.6,1.5-1.2,3-1.8,4.5c-0.4,1.6-1.1,3.1-1.7,4.6
		c-1.3,2.6-2,5.4-3.2,8c-1.2,3.3-2.5,6.7-3.9,9.9c-0.8,2.2-1.8,4.4-2.6,6.7c-0.5,1.1-0.9,2.3-1.4,3.4c-0.2,0.5-0.4,1.1-0.6,1.6
		c-0.5,1.1-0.9,2.2-1.3,3.4c-1.3,2.6-2.1,5.3-3.4,7.9c-0.5,1.2-1,2.3-1.6,3.5c-0.6,1.1-1.1,2.3-1.7,3.4c-1.2,2-2.1,4.2-3.5,6.1
		c-0.5,1-1.1,1.9-1.7,2.8c-0.8,1.3-1.6,2.5-2.6,3.7c-0.3,0.4-0.6,0.8-0.9,1.2c-0.5,0.8-1.1,1.5-1.7,2.1c-0.3,0.4-0.6,0.8-0.9,1.1
		c-0.3,0.3-0.5,0.6-0.8,0.9c-0.3,0.3-0.6,0.7-0.9,1c-0.3,0.3-0.6,0.6-0.9,0.9c-0.3,0.3-0.6,0.5-0.9,0.8c-0.3,0.3-0.5,0.5-0.8,0.8
		c-1.2,0.9-2.3,2-3.5,2.9c-0.6,0.4-1.2,0.8-1.8,1.2c-0.3,0.2-0.5,0.4-0.8,0.5c-0.3,0.2-0.6,0.4-0.9,0.5c-0.3,0.2-0.6,0.4-0.9,0.5
		c-0.3,0.1-0.5,0.3-0.8,0.4c-0.6,0.4-1.1,0.6-1.8,0.8c-0.3,0.1-0.5,0.3-0.8,0.4c-0.3,0.1-0.6,0.2-0.9,0.3c-0.3,0.1-0.5,0.2-0.8,0.3
		c-0.3,0.1-0.6,0.1-0.9,0.2c-0.7,0.4-1.7,0.6-2.5,0.6c-0.6,0.2-1.1,0.3-1.7,0.3c-0.3,0.1-0.6,0.1-0.9,0.1c-0.4,0.2-0.7,0.2-1.1,0
		c-0.2-0.1-0.3-0.2-0.4-0.3c-0.2-0.1-0.4-0.3-0.5-0.5c-0.2-0.2-0.4-0.4-0.5-0.6c-0.2-0.3-0.4-0.5-0.6-0.8c-0.2-0.3-0.4-0.7-0.5-1
		c-0.4-0.8-0.8-1.5-1.2-2.3c-1.7-2.5-2.6-5.8-3.7-8.6c-0.1-0.5-0.3-1-0.5-1.5c-0.1-0.5-0.3-1-0.5-1.5c-0.2-1-0.5-1.9-0.8-2.9
		c-0.1-0.5-0.2-0.9-0.3-1.4c-0.1-0.8-0.3-1.7-0.4-2.5c0-0.4,0-0.8-0.1-1.1c0-0.3,0-0.7,0-1c0.1-0.3,0.1-0.6,0.2-0.9
		c0-0.2,0.1-0.4,0.2-0.7c0.1-0.1,0.2-0.3,0.3-0.4c0.3-0.4,0.7-0.7,1.1-0.9c0.3-0.1,0.5-0.2,0.8-0.3c0.3-0.1,0.5-0.3,0.8-0.4
		c0.3-0.1,0.7-0.2,1-0.3c0.7-0.3,1.4-0.5,2.2-0.7c2.6-0.9,5.2-1.8,7.9-2.6c0.4-0.2,0.8-0.4,1.3-0.6c0.5-0.3,0.9-0.5,1.3-0.7
		c0.9-0.5,1.7-1,2.5-1.6c0.8-0.6,1.6-1.3,2.3-2c0.3-0.4,0.7-0.8,1-1.2c1.2-1.8,2.3-3.7,2.8-5.9c0-0.1,0-0.3-0.1-0.4
		c-0.1-0.1-0.2-0.3-0.2-0.4c-0.1-0.4-0.3-0.8-0.5-1.2c-0.1-0.2-0.2-0.4-0.3-0.7c-0.2-0.5-0.4-1-0.6-1.5c-0.1-0.3-0.3-0.6-0.4-0.9
		c-0.1-0.3-0.3-0.6-0.4-0.9c-0.3-0.7-0.6-1.4-1-2.1c-0.1-0.4-0.3-0.8-0.5-1.1c-0.2-0.4-0.4-0.8-0.5-1.2c-1.1-2.1-1.9-4.4-3.1-6.5
		c-0.2-0.5-0.4-0.9-0.6-1.4c-0.5-1-1-1.9-1.4-2.9c-0.5-1-0.9-2-1.4-3c-0.3-0.5-0.5-1-0.7-1.5c-0.3-0.5-0.5-1.1-0.8-1.6
		c-0.5-1-1-2.1-1.5-3.1c-0.4-1.1-0.9-2.2-1.5-3.2c-0.6-1.7-1.6-3.1-2.2-4.8c-0.3-0.5-0.5-1.1-0.8-1.6c-1.5-4-3.5-8.4-5.7-12.2
		c-0.4-1-0.8-1.9-1.3-2.8c-0.4-0.9-0.8-1.8-1.2-2.7c-0.3-0.9-0.7-1.7-1.1-2.5c-0.1-0.4-0.3-0.8-0.5-1.2c-0.1-0.3-0.3-0.7-0.5-1.1
		c-0.1-0.3-0.3-0.7-0.5-1.1c-0.3-0.7-0.5-1.3-0.8-2c-0.1-0.3-0.3-0.6-0.4-0.9c-0.2-0.7-0.5-1.7-0.9-2.3c-0.1-0.4-0.2-0.8-0.4-1.2
		c0-0.3-0.2-1-0.3-1.3C653,629,653.1,628.9,653.4,628.7C653.6,628.6,653.3,628.8,653.4,628.7z"/>
	<path d="M784,691.2c-0.1-0.3-0.3,0-0.6,0.9c-0.1,0.3-0.4,0.5-0.7,0.8c-0.5,0.5-0.9,0.9-1.4,1.4c-0.3,0.3-0.5,0.5-0.7,0.7
		c-0.5,0.4-1,0.9-1.5,1.3c-0.3,0.2-0.5,0.4-0.8,0.6c-0.8,0.4-1.7,1-2.4,1.5c-0.6,0.3-1.1,0.6-1.7,0.8c-0.3,0.1-0.5,0.2-0.8,0.3
		c-0.3,0.1-0.6,0.3-0.9,0.4c-0.3,0.1-0.5,0.1-0.8,0.2c-0.9,0.5-2.5,0.8-3.5,0.8c-0.3,0.1-0.6,0.1-0.9,0.1c-0.6,0.1-1.2,0.1-1.8,0.1
		c-0.3,0.1-0.6,0.1-0.9,0c-0.6,0-1.1,0-1.7,0c-0.3-0.1-0.6-0.1-0.9-0.1c-0.3-0.1-0.6-0.1-0.9-0.2c-0.9,0-1.8-0.3-2.6-0.5
		c-0.6-0.2-1.2-0.4-1.8-0.6c-0.3-0.1-0.5-0.2-0.8-0.3c-0.3-0.1-0.6-0.3-0.9-0.4c-0.8-0.4-1.6-0.8-2.4-1.2c-0.3-0.2-0.5-0.4-0.8-0.5
		c-0.3-0.2-0.5-0.4-0.8-0.5c-0.3-0.2-0.5-0.4-0.8-0.6c-0.6-0.3-1.1-0.7-1.5-1.1c-0.8-0.6-1.6-1.2-2.2-2c-0.2-0.2-0.4-0.4-0.7-0.7
		c-0.2-0.3-0.4-0.5-0.7-0.8c-0.7-0.7-1.3-1.6-1.8-2.4c-0.2-0.3-0.4-0.5-0.6-0.8c-0.2-0.3-0.4-0.6-0.6-0.9c-0.1-0.3-0.3-0.6-0.5-0.9
		c-0.2-0.3-0.4-0.7-0.5-1c-0.4-0.6-0.7-1.2-1-1.9c-0.5-1.4-1.2-2.8-1.5-4.3c-0.1-0.3-0.3-0.7-0.4-1.1c-0.1-0.4-0.1-0.8-0.2-1.1
		c-0.5-1.6-0.6-3.3-0.9-4.9c0-0.4,0-0.8-0.1-1.3c0-0.4,0-0.8-0.1-1.3c0-1.8-0.1-3.6,0.1-5.4c0-0.5,0-0.9,0.1-1.4
		c0-1.5,0.3-2.9,0.5-4.4c0.1-0.6,0.3-1.2,0.4-1.7c0.2-1.5,0.6-3.2,1.2-4.6c0.1-0.5,0.3-1,0.5-1.5c0.5-1.7,1.4-3.8,2.4-5.3
		c0.2-0.4,0.4-0.8,0.7-1.2c0.2-0.4,0.4-0.8,0.7-1.1c0.3-0.4,0.5-0.8,0.8-1.1c1.2-1.8,2.7-3.3,4.2-4.8c0.3-0.3,0.7-0.5,1-0.8
		c0.6-0.6,1.2-1.1,1.9-1.5c0.9-0.7,2-1.3,3-1.9c0.4-0.2,0.8-0.4,1.1-0.5c0.3-0.2,0.7-0.4,1.1-0.5c0.3-0.1,0.7-0.3,1-0.5
		c0.4-0.1,0.8-0.3,1.1-0.4c0.7-0.2,1.5-0.4,2.2-0.6c1.4-0.5,3-0.8,4.5-0.8c0.3-0.1,0.7-0.1,1.1-0.1c1.3-0.3,3.1-0.3,4.4,0
		c0.4,0,0.8,0,1.1,0.1c1.1,0,2.2,0.3,3.3,0.5c1,0.4,2.1,0.6,3.1,1c0.7,0.2,1.4,0.4,2,0.7c0.3,0.2,0.7,0.4,1,0.5
		c0.6,0.3,1.2,0.7,1.8,1c0.3,0.2,0.6,0.4,0.9,0.6c0.6,0.4,1.2,0.8,1.7,1.2c0.5,0.7,0.7,1,0.8,0.7c0.2-1.3,0.4-2.6,0.5-3.9
		c0.1-0.4,0.2-0.8,0.3-1.3c0-0.3,0.1-0.5,0.3-0.6c0.3-0.2,0.7-0.3,1.1-0.3c0.3-0.1,0.7-0.1,1-0.1c2.9-0.5,6.5-0.3,9.4,0
		c0.6,0,1.2,0,1.9,0.1c2.6,0,6.1,0.2,8.6,1.2c0.3,0.1,0.5,0.1,0.7,0.2c0.1,0.1,0.3,0.3,0.4,0.4l0.1,0.1c0,1.4,0.2,3-0.1,4.4
		c0,0.4,0,0.8,0,1.1c-0.1,0.8-0.1,1.6-0.2,2.4c0,0.4,0,0.8,0,1.3c-0.1,1-0.1,1.9-0.2,2.9c0,0.5,0,1.1,0,1.6
		c-0.1,1.1-0.1,2.3-0.2,3.4c0,0.6,0,1.2,0,1.7c-0.2,1.9,0,3.9-0.2,5.8c0,2.9,0,5.7,0,8.6c0.2,2.1,0,4.1,0.2,6.2c0,0.7,0,1.3,0,2
		c0.1,1.3,0.1,2.5,0.2,3.8c0,0.6,0,1.2,0.1,1.7c0,0.6,0,1.2,0,1.8c0.1,0.5,0.1,1.1,0.1,1.6c0.1,0.5,0.1,1.1,0.1,1.6
		c0.1,0.5,0.1,1,0.1,1.5c0.1,0.5,0.1,1,0.1,1.5c0.1,0.5,0.1,0.9,0.1,1.4c0.1,0.8,0.1,1.7,0.2,2.5c0,0.4,0,0.8,0.1,1.2
		c0,0.4,0,0.8,0,1.1c0.1,0.7,0.1,1.3,0.2,2c0,0.6,0,1.1,0.1,1.7c0,0.9,0.3,2.5-0.1,3.3c0,0.1,0,0.2,0,0.3c0,0.1-0.1,0.2-0.2,0.3
		c-0.1,0.1-0.3,0.1-0.4,0.2c-0.3,0.1-0.5,0.1-0.7,0.1c-0.3,0.1-0.7,0.1-1,0.2c-0.3,0-0.7,0-1.1,0.1c-0.5,0-0.9,0-1.3,0
		c-3.7,0.5-8.1,0.4-11.8,0c-0.6,0-1.2,0-1.7-0.1c-0.6,0-1.2,0-1.7,0c-0.5-0.1-1-0.1-1.5-0.1c-0.5-0.1-0.9-0.1-1.4-0.1
		c-0.4-0.1-0.8-0.1-1.2-0.1c-0.3-0.1-0.7-0.1-1-0.2c-0.3,0-0.5,0-0.8-0.1c-0.2-0.1-0.4-0.1-0.6-0.1c-0.1-0.1-0.2-0.1-0.3-0.2
		c-0.2-0.2-0.3-0.4-0.4-0.7c-0.1-0.3-0.2-0.5-0.3-0.8c-0.1-0.4-0.2-0.8-0.2-1.1c-0.1-0.5-0.1-0.9-0.1-1.3c0.1-0.5,0.1-1,0.1-1.5
		c-0.1-0.5-0.1-1.1,0-1.6C784.1,692.2,784.1,691.6,784,691.2C783.9,690.9,784.1,691.6,784,691.2z M774.5,652.8
		c-0.9-0.1-1.7-0.1-2.6-0.1c-0.9,0.2-1.7,0.4-2.5,0.7c-1.1,0.5-2.3,1.3-3.1,2.3c-0.6,0.6-1.2,1.3-1.7,2.1c-0.5,0.8-0.9,1.6-1.2,2.4
		c-0.1,0.4-0.3,0.8-0.4,1.3c-0.2,1.3-0.3,2.6-0.3,4c0.2,1.2,0.6,2.7,1.2,3.7c0.3,0.4,0.5,0.8,0.7,1.1c0.9,1.4,2.2,2.6,3.7,3.5
		c0.7,0.4,1.4,0.8,2.2,1c2.1,0.7,4.4,0.4,6.4-0.5c0.5-0.1,0.9-0.3,1.3-0.5c0.4-0.3,0.8-0.5,1.2-0.8c0.4-0.2,0.8-0.5,1.1-0.8
		c0.7-0.6,1.4-1.2,1.9-2c0.8-1,1.4-2.4,1.8-3.6c0.1-0.9,0.3-1.9,0.4-2.8c0-0.9-0.1-1.9-0.3-2.8c-0.1-0.5-0.3-0.9-0.4-1.3
		c-0.2-0.4-0.4-0.8-0.6-1.2c-0.2-0.3-0.4-0.7-0.7-1.1c-0.6-0.6-1.2-1.2-1.8-1.8c-0.4-0.3-0.8-0.6-1.1-0.8c-0.8-0.5-1.6-0.9-2.5-1.3
		C776.3,653.1,775.4,652.9,774.5,652.8C774.1,652.7,775,652.8,774.5,652.8z"/>
</g>
<image overflow="visible" width="1500" height="1500" xlink:href="../../../Desenhos Jogo Yegatu/png2/lakraya.png"  transform="matrix(0.4767 0 0 0.4767 114 -86)">
</image>
<g>
	<path fill="#F1CC5A" d="M387.8,729.6H234.5c-12.8,0-23.2-10.4-23.2-23.2v-128c0-12.8,10.4-23.2,23.2-23.2h153.3
		c12.8,0,23.2,10.4,23.2,23.2v128C411,719.1,400.6,729.6,387.8,729.6z"/>
	<path fill="#FFEDBB" d="M376.4,714.7H245.9c-12.8,0-23.2-10.4-23.2-23.2v-97.9c0-12.8,10.4-23.2,23.2-23.2h130.6
		c12.8,0,23.2,10.4,23.2,23.2v97.9C399.6,704.3,389.2,714.7,376.4,714.7z"/>
</g>
</svg>
