<?xml version="1.0" encoding="utf-8"?>
<!-- Generator: Adobe Illustrator 18.0.0, SVG Export Plug-In . SVG Version: 6.00 Build 0)  -->
<!DOCTYPE svg PUBLIC "-//W3C//DTD SVG 1.0//EN" "http://www.w3.org/TR/2001/REC-SVG-20010904/DTD/svg10.dtd">
<svg version="1.0" id="Camada_1" xmlns="http://www.w3.org/2000/svg" xmlns:xlink="http://www.w3.org/1999/xlink" x="0px" y="0px"
	 viewBox="0 0 1024 768" enable-background="new 0 0 1024 768" xml:space="preserve">
<image overflow="visible" width="1500" height="1500" xlink:href="../../../Desenhos Jogo Yegatu/png2/lãparina.png"  transform="matrix(0.5159 0 0 0.5159 123.5188 -111)">
</image>
<path d="M256.5,584.2c0.3-0.1,0.5-0.2,0.7-0.3c0.3-0.1,0.6-0.1,0.9-0.2c0.4-0.1,0.8-0.1,1.1-0.2c0.5,0,0.9,0,1.3-0.1
	c0.5,0,0.9,0,1.4,0c1-0.1,2.1-0.1,3.1,0c0.5,0,1.1,0,1.6,0c0.6,0.1,1.2,0.1,1.7,0.1c0.6,0.1,1.2,0.1,1.7,0.2c2.5,0,5.4,0.3,7.8,1
	c0.8,0.1,1.6,0.2,2.3,0.5c0.3,0.1,0.6,0.1,0.9,0.2c0.2,0.1,0.4,0.2,0.7,0.3c0.1,0.1,0.3,0.1,0.4,0.2c0.1,0.1,0.1,0.1,0.1,0.2
	c0.1,0.1,0.1,0.1,0.2,0.2c0.1,0.1,0.1,0.2,0.2,0.3c0.1,0.3,0.1,0.5,0.2,0.8c0.1,0.1,0.1,0.3,0.2,0.5c0.1,0.1,0.1,0.3,0.1,0.5
	c0.1,0.2,0.1,0.4,0.1,0.6c0.1,0.2,0.1,0.4,0.2,0.6c0,0.2,0,0.4,0.1,0.7c0,0.2,0,0.4,0.1,0.7c0,0.3,0,0.5,0.1,0.8
	c0,0.3,0,0.5,0.1,0.8c0,0.3,0,0.6,0.1,0.9c0,0.3,0,0.6,0.1,0.9c0,0.3,0,0.7,0.1,1c0,0.3,0,0.7,0.1,1c0,0.3,0,0.7,0,1
	c0.1,0.7,0.1,1.5,0.2,2.2c0,0.4,0,0.8,0,1.1c0.1,0.8,0.1,1.7,0.2,2.5c0,0.4,0,0.8,0,1.2c0.1,0.9,0.1,1.7,0.1,2.6
	c0.2,1.4,0,2.7,0.2,4.1c0,1,0,1.9,0,2.9c0.2,1.4,0.1,2.9,0.1,4.4c0.3,2,0.1,4.1,0.1,6.2c0.3,2.6-0.1,5.3,0.2,7.9
	c0,2.7-0.2,5.4,0.1,8.1c0,2.7-0.2,5.4,0.1,8.1c0,2.1,0,4.2,0,6.3c0.2,1.5,0.1,3.1,0.1,4.6c0.2,1.5,0.1,3,0.1,4.5
	c0.2,1.4,0,2.9,0.2,4.3c0,0.9,0,1.8,0.1,2.7c0,0.9,0,1.7,0.1,2.6c0,0.1,0.1,0.1,0.4,0.1c0.2-0.1,0.4-0.1,0.6,0c0.3,0,0.5,0,0.7,0
	c0.9-0.2,2-0.3,2.9-0.3c2.2-0.4,4.6-0.5,6.8-1.1c0.5-0.1,1-0.1,1.5-0.2c1.1-0.2,2.1-0.4,3.2-0.6c0.5-0.1,1.1-0.2,1.7-0.3
	c0.5-0.1,1.1-0.2,1.6-0.3c0.6-0.1,1.2-0.2,1.7-0.3c0.6-0.1,1.2-0.2,1.7-0.3c0.5-0.1,1.1-0.2,1.7-0.3c0.5-0.1,1.1-0.2,1.6-0.3
	c0.6-0.1,1.2-0.2,1.7-0.3c0.5-0.1,1.1-0.1,1.6-0.2c1-0.2,2-0.4,3-0.5c1.4-0.3,2.8-0.5,4.2-0.7c0.8-0.1,1.5-0.1,2.3-0.2
	c0.6-0.1,1.3-0.1,1.9-0.2c0.4,0,0.9,0,1.3,0.1c0.2,0,0.4,0,0.5,0c0.1,0.1,0.3,0.1,0.4,0.1c0.1,0.1,0.2,0.2,0.3,0.3
	c0.1,0.4,0.3,0.8,0.4,1.2c0,0.3,0,0.6,0.1,0.9c0,0.3,0,0.7,0,1.1c0.1,0.3,0.1,0.7,0.1,1.1c-0.1,0.9-0.1,1.8-0.2,2.7
	c-0.1,1-0.1,2.1-0.2,3.1c-0.1,1.1-0.3,2.2-0.4,3.3c-0.2,1.1-0.4,2.3-0.6,3.4c-0.1,0.6-0.1,1.2-0.2,1.7c-0.1,0.5-0.3,1.1-0.4,1.7
	c-0.1,0.5-0.2,1.1-0.3,1.6c-0.1,0.5-0.2,1.1-0.3,1.6c-0.2,1-0.4,1.9-0.6,2.9c-0.1,0.4-0.3,0.8-0.4,1.3c-0.1,0.4-0.2,0.8-0.3,1.2
	c-0.1,0.3-0.2,0.7-0.3,1c-0.1,0.3-0.2,0.6-0.3,0.9c-0.1,0.2-0.2,0.4-0.3,0.7c-0.1,0.1-0.1,0.3-0.2,0.5c-0.1,0.1-0.2,0.2-0.3,0.3
	h-0.1c-0.1,0.1-0.2,0.1-0.3,0.1c-0.1,0.1-0.3,0.1-0.4,0.1c-0.4,0.1-0.8,0.2-1.2,0.2c-0.2,0-0.4,0-0.7,0.1c-0.3,0-0.5,0-0.8,0
	c-0.3,0.1-0.6,0.1-0.9,0.1c-0.7,0.1-1.4,0.1-2.1,0.2c-0.4,0-0.8,0-1.2,0c-0.8,0.1-1.7,0.1-2.5,0.2c-0.9,0-1.9,0-2.8,0.1
	c-0.5,0-1,0-1.5,0c-1,0.1-2.1,0.1-3.1,0.1c-1.7,0.2-3.4,0-5.1,0.2c-1.8,0-3.5-0.1-5.3,0.1c-1.8,0-3.7,0-5.5,0
	c-6.9,0.7-14.1,0.1-21,0.1c-1.9-0.3-3.9,0.1-5.8-0.2c-0.8,0-1.7,0-2.5,0c-0.8-0.1-1.5-0.1-2.3-0.1c-0.6-0.1-1.3-0.1-1.9-0.1
	c-0.5-0.1-1-0.1-1.5-0.2c-0.3,0-0.5,0-0.7,0c-0.3-0.1-0.6-0.1-0.9-0.2c-0.1,0-0.2,0-0.3-0.1c-0.1,0-0.1,0-0.1-0.1
	c-0.1,0-0.1,0-0.1-0.1l-0.1-0.1c0-0.2,0-0.4-0.1-0.6c0-0.1,0-0.3,0-0.4c-0.2-0.5,0-1-0.2-1.5c0-0.5,0-0.9-0.1-1.4
	c0-0.8,0.1-1.6-0.1-2.4c0-1,0.1-2-0.1-3c0-1.6,0-3.1,0-4.7c-1.5-8.8-0.1-19.1-0.1-28c0.3-3,0.1-6.1,0.1-9.1c0.3-2.4-0.1-4.9,0.2-7.3
	c0-1.9-0.1-3.7,0.1-5.6c0-1.8-0.1-3.6,0.1-5.4c0-1.2,0-2.4,0-3.6c0.1-1.2,0.1-2.4,0.1-3.6c0.2-1.7,0-3.5,0.2-5.2
	c0-1.1,0-2.2,0.1-3.3c0-1.1,0-2.2,0.1-3.3c0-1,0-2.1,0.1-3.1c0-0.5,0-1,0-1.5c0.1-1,0.1-2,0.1-3c0.1-0.9,0.1-1.9,0.2-2.8
	c0-0.4,0-0.8,0-1.3c0.1-0.9,0.1-1.7,0.1-2.6c0.1-0.8,0.1-1.5,0.2-2.3c0-0.4,0-0.8,0-1.2c0.1-0.7,0.1-1.3,0.2-2c0-0.3,0-0.7,0-1
	c0.1-0.6,0.1-1.2,0.2-1.8c0-0.2,0-0.4,0-0.7c0.1-0.5,0.1-1,0.2-1.5c0-0.2,0-0.4,0.1-0.6c0-0.1,0-0.3,0-0.5c0.1-0.3,0.1-0.6,0.2-0.9
	c0-0.1,0-0.2,0-0.3c0.1-0.1,0.1-0.2,0.1-0.3c0-0.1,0.1-0.2,0.2-0.3C256.3,584.4,256.4,584.3,256.5,584.2
	C256.8,584.1,256.4,584.3,256.5,584.2z"/>
<path d="M375.5,691.2c-0.1-0.3-0.3,0-0.6,0.9c-0.1,0.3-0.4,0.5-0.7,0.8c-0.5,0.5-0.9,0.9-1.4,1.4c-0.3,0.3-0.5,0.5-0.7,0.7
	c-0.5,0.4-1,0.9-1.5,1.3c-0.3,0.2-0.5,0.4-0.8,0.6c-0.8,0.4-1.7,1-2.4,1.5c-0.6,0.3-1.1,0.6-1.7,0.8c-0.3,0.1-0.5,0.2-0.8,0.3
	c-0.3,0.1-0.6,0.3-0.9,0.4c-0.3,0.1-0.5,0.1-0.8,0.2c-0.9,0.5-2.5,0.8-3.5,0.8c-0.3,0.1-0.6,0.1-0.9,0.1c-0.6,0.1-1.2,0.1-1.8,0.1
	c-0.3,0.1-0.6,0.1-0.9,0c-0.6,0-1.1,0-1.7,0c-0.3-0.1-0.6-0.1-0.9-0.1c-0.3-0.1-0.6-0.1-0.9-0.2c-0.9,0-1.8-0.3-2.6-0.5
	c-0.6-0.2-1.2-0.4-1.8-0.6c-0.3-0.1-0.5-0.2-0.8-0.3c-0.3-0.1-0.6-0.3-0.9-0.4c-0.8-0.4-1.6-0.8-2.4-1.2c-0.3-0.2-0.5-0.4-0.8-0.5
	c-0.3-0.2-0.5-0.4-0.8-0.5c-0.3-0.2-0.5-0.4-0.8-0.6c-0.6-0.3-1.1-0.7-1.5-1.1c-0.8-0.6-1.6-1.2-2.2-2c-0.2-0.2-0.4-0.4-0.7-0.7
	c-0.2-0.3-0.4-0.5-0.7-0.8c-0.7-0.7-1.3-1.6-1.8-2.4c-0.2-0.3-0.4-0.5-0.6-0.8c-0.2-0.3-0.4-0.6-0.6-0.9c-0.1-0.3-0.3-0.6-0.5-0.9
	c-0.2-0.3-0.4-0.7-0.5-1c-0.4-0.6-0.7-1.2-1-1.9c-0.5-1.4-1.2-2.8-1.5-4.3c-0.1-0.3-0.3-0.7-0.4-1.1c-0.1-0.4-0.1-0.8-0.2-1.1
	c-0.5-1.6-0.6-3.3-0.9-4.9c0-0.4,0-0.8-0.1-1.3c0-0.4,0-0.8-0.1-1.3c0-1.8-0.1-3.6,0.1-5.4c0-0.5,0-0.9,0.1-1.4
	c0-1.5,0.3-2.9,0.5-4.4c0.1-0.6,0.3-1.2,0.4-1.7c0.2-1.5,0.6-3.2,1.2-4.6c0.1-0.5,0.3-1,0.5-1.5c0.5-1.7,1.4-3.8,2.4-5.3
	c0.2-0.4,0.4-0.8,0.7-1.2c0.2-0.4,0.4-0.8,0.7-1.1c0.3-0.4,0.5-0.8,0.8-1.1c1.2-1.8,2.7-3.3,4.2-4.8c0.3-0.3,0.7-0.5,1-0.8
	c0.6-0.6,1.2-1.1,1.9-1.5c0.9-0.7,2-1.3,3-1.9c0.4-0.2,0.8-0.4,1.1-0.5c0.3-0.2,0.7-0.4,1.1-0.5c0.3-0.1,0.7-0.3,1-0.5
	c0.4-0.1,0.8-0.3,1.1-0.4c0.7-0.2,1.5-0.4,2.2-0.6c1.4-0.5,3-0.8,4.5-0.8c0.3-0.1,0.7-0.1,1.1-0.1c1.3-0.3,3.1-0.3,4.4,0
	c0.4,0,0.8,0,1.1,0.1c1.1,0,2.2,0.3,3.3,0.5c1,0.4,2.1,0.6,3.1,1c0.7,0.2,1.4,0.4,2,0.7c0.3,0.2,0.7,0.4,1,0.5
	c0.6,0.3,1.2,0.7,1.8,1c0.3,0.2,0.6,0.4,0.9,0.6c0.6,0.4,1.2,0.8,1.7,1.2c0.5,0.7,0.7,1,0.8,0.7c0.2-1.3,0.4-2.6,0.5-3.9
	c0.1-0.4,0.2-0.8,0.3-1.3c0-0.3,0.1-0.5,0.3-0.6c0.3-0.2,0.7-0.3,1.1-0.3c0.3-0.1,0.7-0.1,1-0.1c2.9-0.5,6.5-0.3,9.4,0
	c0.6,0,1.2,0,1.9,0.1c2.6,0,6.1,0.2,8.6,1.2c0.3,0.1,0.5,0.1,0.7,0.2c0.1,0.1,0.3,0.3,0.4,0.4l0.1,0.1c0,1.4,0.2,3-0.1,4.4
	c0,0.4,0,0.8,0,1.1c-0.1,0.8-0.1,1.6-0.2,2.4c0,0.4,0,0.8,0,1.3c-0.1,1-0.1,1.9-0.2,2.9c0,0.5,0,1.1,0,1.6c-0.1,1.1-0.1,2.3-0.2,3.4
	c0,0.6,0,1.2,0,1.7c-0.2,1.9,0,3.9-0.2,5.8c0,2.9,0,5.7,0,8.6c0.2,2.1,0,4.1,0.2,6.2c0,0.7,0,1.3,0,2c0.1,1.3,0.1,2.5,0.2,3.8
	c0,0.6,0,1.2,0.1,1.7c0,0.6,0,1.2,0,1.8c0.1,0.5,0.1,1.1,0.1,1.6c0.1,0.5,0.1,1.1,0.1,1.6c0.1,0.5,0.1,1,0.1,1.5
	c0.1,0.5,0.1,1,0.1,1.5c0.1,0.5,0.1,0.9,0.1,1.4c0.1,0.8,0.1,1.7,0.2,2.5c0,0.4,0,0.8,0.1,1.2c0,0.4,0,0.8,0,1.1
	c0.1,0.7,0.1,1.3,0.2,2c0,0.6,0,1.1,0.1,1.7c0,0.9,0.3,2.5-0.1,3.3c0,0.1,0,0.2,0,0.3c0,0.1-0.1,0.2-0.2,0.3
	c-0.1,0.1-0.3,0.1-0.4,0.2c-0.3,0.1-0.5,0.1-0.7,0.1c-0.3,0.1-0.7,0.1-1,0.2c-0.3,0-0.7,0-1.1,0.1c-0.5,0-0.9,0-1.3,0
	c-3.7,0.5-8.1,0.4-11.8,0c-0.6,0-1.2,0-1.7-0.1c-0.6,0-1.2,0-1.7,0c-0.5-0.1-1-0.1-1.5-0.1c-0.5-0.1-0.9-0.1-1.4-0.1
	c-0.4-0.1-0.8-0.1-1.2-0.1c-0.3-0.1-0.7-0.1-1-0.2c-0.3,0-0.5,0-0.8-0.1c-0.2-0.1-0.4-0.1-0.6-0.1c-0.1-0.1-0.2-0.1-0.3-0.2
	c-0.2-0.2-0.3-0.4-0.4-0.7c-0.1-0.3-0.2-0.5-0.3-0.8c-0.1-0.4-0.2-0.8-0.2-1.1c-0.1-0.5-0.1-0.9-0.1-1.3c0.1-0.5,0.1-1,0.1-1.5
	c-0.1-0.5-0.1-1.1,0-1.6C375.6,692.2,375.7,691.6,375.5,691.2C375.5,690.9,375.7,691.6,375.5,691.2z M366.1,652.8
	c-0.9-0.1-1.7-0.1-2.6-0.1c-0.9,0.2-1.7,0.4-2.5,0.7c-1.1,0.5-2.3,1.3-3.1,2.3c-0.6,0.6-1.2,1.3-1.7,2.1c-0.5,0.8-0.9,1.6-1.2,2.4
	c-0.1,0.4-0.3,0.8-0.4,1.3c-0.2,1.3-0.3,2.6-0.3,4c0.2,1.2,0.6,2.7,1.2,3.7c0.3,0.4,0.5,0.8,0.7,1.1c0.9,1.4,2.2,2.6,3.7,3.5
	c0.7,0.4,1.4,0.8,2.2,1c2.1,0.7,4.4,0.4,6.4-0.5c0.5-0.1,0.9-0.3,1.3-0.5c0.4-0.3,0.8-0.5,1.2-0.8c0.4-0.2,0.8-0.5,1.1-0.8
	c0.7-0.6,1.4-1.2,1.9-2c0.8-1,1.4-2.4,1.8-3.6c0.1-0.9,0.3-1.9,0.4-2.8c0-0.9-0.1-1.9-0.3-2.8c-0.1-0.5-0.3-0.9-0.4-1.3
	c-0.2-0.4-0.4-0.8-0.6-1.2c-0.2-0.3-0.4-0.7-0.7-1.1c-0.6-0.6-1.2-1.2-1.8-1.8c-0.4-0.3-0.8-0.6-1.1-0.8c-0.8-0.5-1.6-0.9-2.5-1.3
	C367.9,653.1,367,652.9,366.1,652.8C365.7,652.7,366.5,652.8,366.1,652.8z"/>
<path d="M627.2,701.1c-0.2-0.1-0.3-0.3-0.3-0.5c-0.1-0.1-0.1-0.3-0.2-0.4c0-0.2,0-0.4-0.1-0.5c-0.1-0.2-0.1-0.4-0.1-0.7
	c-0.1-0.2-0.1-0.4-0.2-0.7c0-0.3,0-0.6-0.1-0.9c0-0.3,0-0.6,0-0.9c-0.1-0.3-0.1-0.7-0.1-1.1c-0.1-0.8-0.1-1.5-0.2-2.3
	c0-0.9,0-1.7-0.1-2.6c0-0.9,0-1.9,0-2.8c-0.5-4.1-0.1-8.6-0.1-12.8c0.2-2.2,0.1-4.4,0.1-6.6c0.2-1.6,0.1-3.2,0.1-4.8
	c0.1-1.2,0.1-2.3,0.1-3.5c0.1-1.2,0.1-2.3,0.1-3.5c0.1-1.2,0.1-2.3,0.2-3.5c0-0.6,0-1.2,0-1.8c0.1-1.1,0.1-2.2,0.2-3.3
	c0-0.6,0-1.2,0.1-1.7c0-0.5,0-1.1,0-1.6c0.1-0.5,0.1-1,0.1-1.5c0.1-0.5,0.1-1,0.1-1.5c0.1-0.9,0.1-1.9,0.2-2.8c0-0.5,0-0.9,0.1-1.3
	c0-0.4,0-0.8,0.1-1.2c0-0.4,0-0.8,0.1-1.2c0-0.3,0-0.7,0.1-1c0-0.3,0-0.7,0-1c0.1-0.3,0.1-0.5,0.1-0.8c0.1-0.3,0.1-0.5,0.1-0.8
	c0.1-0.2,0.1-0.4,0.1-0.6c0.1-0.2,0.1-0.4,0.1-0.6c0.1-0.1,0.1-0.3,0.1-0.4c0-0.2,0.1-0.3,0.2-0.4c0.1-0.1,0.3-0.2,0.4-0.3
	c0.3-0.1,0.5-0.1,0.7-0.2c2.2-0.4,4.5-0.9,6.8-0.9c0.6-0.1,1.2-0.1,1.7-0.2c0.6,0,1.2,0,1.8-0.1c0.6,0,1.2,0,1.7,0
	c1.6-0.2,3.4-0.2,5,0c0.5,0,0.9,0,1.4,0c0.4,0.1,0.8,0.1,1.2,0.1c0.7,0.1,1.5,0.3,2.2,0.6c0.2,0.2,0.4,0.4,0.6,0.6
	c0.2,0.3,0.4,0.5,0.6,0.8c0.4,0.7,0.8,1.4,1.1,2.1c0.2,0.5,0.4,0.9,0.5,1.4c0.3,0.6,0.4,1.2,0.3,1.7c-0.3,1.1-0.3,1.8,0,2.1
	c0.3,0.2,0.7-0.2,1.4-1.2c0.3-0.3,0.7-0.7,1.3-1c0.4-0.3,0.8-0.6,1.3-1c0.4-0.3,0.8-0.5,1.3-0.8c0.4-0.3,0.8-0.6,1.2-0.9
	c0.8-0.5,1.7-0.9,2.6-1.3c0.4-0.3,0.8-0.5,1.2-0.6c0.5-0.2,0.9-0.4,1.3-0.6c1.2-0.4,2.4-0.9,3.7-1.1c1.8-0.7,3.9-0.6,5.8-0.9
	c0.7,0,1.5,0,2.2,0.1c0.3,0,0.7,0,1.1,0.1c1.6,0,3.6,0.4,5.1,1c0.6,0.2,1.2,0.4,1.8,0.7c0.3,0.1,0.7,0.2,1,0.3
	c0.3,0.1,0.5,0.3,0.8,0.4c0.3,0.1,0.6,0.3,0.9,0.5c0.6,0.2,1.1,0.5,1.6,0.9c0.3,0.1,0.5,0.3,0.8,0.5c0.3,0.1,0.5,0.3,0.8,0.5
	c1.3,0.6,2.1,1.8,3.3,2.6c0.6,0.6,1.1,1.1,1.7,1.7c0.4,0.6,0.9,1.1,1.3,1.7c0.1,0.1,0.3,0.3,0.4,0.5c0.1,0.2,0.2,0.4,0.3,0.5
	c0.1,0.2,0.2,0.4,0.3,0.6c0.1,0.1,0.2,0.3,0.3,0.5c0.1,0.1,0.1,0.3,0.2,0.4c0.1,0.3,0.2,0.6,0.3,0.9c0.1,0.2,0.1,0.4,0.1,0.5
	c0.2,0.4,0.1,1,0.1,1.4c-0.1,0.1-0.1,0.2-0.1,0.3c-0.1,0.1-0.3,0.3-0.4,0.4c-0.1,0.1-0.3,0.3-0.4,0.4c-0.2,0.2-0.4,0.4-0.6,0.6
	c-0.3,0.3-0.5,0.5-0.7,0.7c-1,0.8-2,1.9-2.9,2.8c-0.4,0.4-0.8,0.8-1.1,1.1c-1.2,1.2-2.4,2.4-3.6,3.6c-0.8,0.7-1.6,1.5-2.4,2.3
	c-0.7,0.7-1.4,1.4-2.2,2.1c-0.3,0.3-0.7,0.6-1.1,0.9c-0.3,0.3-0.6,0.5-0.9,0.8c-0.3,0.2-0.5,0.4-0.8,0.7c-0.4,0.3-0.9,0.6-1.3,0.9
	c-0.1,0.1-0.3,0.1-0.4,0.1c-0.1,0.1-0.1,0.1-0.2,0c-0.3-0.4-0.6-0.8-0.9-1.2c-0.3-0.4-0.7-0.8-1-1.2c-0.3-0.3-0.7-0.7-1-1.1
	c-0.3-0.3-0.6-0.7-0.9-1.1c-0.3-0.3-0.7-0.7-1-1c-0.3-0.3-0.6-0.6-0.9-0.9c-0.7-0.5-1.3-1.1-2-1.6c-0.6-0.5-1.2-0.9-1.9-1.2
	c-0.6-0.4-1.3-0.7-2-0.9c-1-0.2-2-0.4-3.1-0.2c-0.4,0-0.8,0-1.1,0.1c-0.4,0.1-0.8,0.3-1.1,0.4c-0.3,0.1-0.6,0.2-0.9,0.4
	c-0.6,0.3-1.2,0.7-1.7,1.1c-0.6,0.4-1,0.9-1.4,1.5c-0.3,0.3-0.5,0.6-0.6,0.9c-0.2,0.3-0.4,0.7-0.6,1c-0.1,0.3-0.3,0.7-0.4,1
	c-0.2,0.4-0.3,0.8-0.4,1.1c-0.4,1.2-0.6,2.5-1,3.7c-0.2,0.9-0.3,1.8-0.3,2.7c-0.1,0.5-0.1,0.9-0.1,1.4c-0.1,1-0.1,1.9-0.2,2.9
	c0,1,0,2,0.1,3c0,0.5,0,1,0,1.5c0.1,0.5,0.1,1,0.1,1.5c0.1,0.5,0.1,1,0.1,1.5c0.1,0.5,0.1,1,0.1,1.5c0.2,1,0.3,1.9,0.3,2.9
	c0.3,2.8,0.8,5.5,1.2,8.3c0,1.5,0.4,3,0.7,4.5c0.1,0.6,0.1,1.2,0.2,1.8c0.1,0.3,0.1,0.5,0.1,0.8c0.1,0.3,0.1,0.5,0.1,0.7
	c0.1,0.2,0.3,2,0,2c-0.1,0.1-0.1,0.1-0.2,0.2c-0.4,0.1-0.8,0.2-1.2,0.2c-0.6,0.2-1.3,0.3-1.9,0.3c-0.5,0.1-0.9,0.1-1.3,0.2
	c-1,0.1-1.9,0.1-2.9,0.2c-0.5,0.1-1.1,0.1-1.6,0.2c-0.5,0-1.1,0-1.7,0.1c-0.6,0-1.2,0-1.7,0.1c-0.6,0-1.2,0-1.8,0.1
	c-0.6,0-1.2,0-1.8,0.1c-0.6,0-1.2,0-1.8,0.1c-0.6,0-1.2,0-1.8,0c-1.7,0.2-3.3,0-5,0.2c-0.5,0-1,0-1.5,0c-1.2-0.2-2.4,0-3.6-0.2
	c-0.3,0-0.6,0-0.9-0.1c-0.2,0-0.4,0-0.7-0.1C627.5,701.2,627.4,701.2,627.2,701.1C627.2,701.1,627.4,701.2,627.2,701.1z"/>
<path d="M723.1,582.3c0.9,0.3,1.6,0.7,2.4,1.2c0.3,0.2,0.7,0.4,1.1,0.7c0.3,0.2,0.7,0.5,1,0.8c0.3,0.3,0.6,0.5,0.9,0.8
	c1.3,1,2.3,2.6,3,4c0.2,0.3,0.4,0.7,0.6,1.1c0.1,0.3,0.3,0.7,0.4,1.1c0.2,0.4,0.3,0.8,0.4,1.2c0.5,1.6,0.6,3.2,0.6,4.9
	c-0.1,0.4-0.1,0.8-0.1,1.2c-0.1,0.4-0.2,0.8-0.3,1.2c-0.2,1.2-0.6,2.6-1.2,3.6c-0.2,0.4-0.4,0.8-0.6,1.1c-0.2,0.4-0.4,0.8-0.7,1.1
	c-0.5,0.7-1,1.4-1.5,2c-0.8,0.8-1.8,1.8-2.8,2.4c-0.3,0.3-0.7,0.5-1.1,0.7c-0.3,0.2-0.7,0.4-1.1,0.6c-0.3,0.2-0.7,0.4-1.1,0.6
	c-2,0.7-4.1,1.4-6.3,1.4c-0.5,0.1-0.9,0.1-1.4,0.1c-0.4-0.1-0.8-0.1-1.3-0.1c-1.4-0.2-2.7-0.4-4-1c-0.5-0.1-0.9-0.3-1.2-0.5
	c-0.4-0.3-0.8-0.5-1.2-0.8c-0.3-0.2-0.7-0.5-1-0.8c-0.3-0.3-0.6-0.6-0.9-0.9c-0.6-0.6-1.2-1.3-1.6-2.1c-1.2-1.8-2.1-4-2.5-6.2
	c-0.1-0.5-0.2-0.9-0.2-1.3c-0.1-0.5-0.1-0.9-0.2-1.3c0-0.9,0-1.7,0-2.6c0.1-0.4,0.1-0.8,0.1-1.2c0.1-0.4,0.2-0.8,0.3-1.2
	c0.1-0.8,0.4-1.6,0.8-2.3c0.1-0.4,0.3-0.8,0.5-1.1c0.4-0.7,0.8-1.4,1.3-2.1c0.3-0.4,0.5-0.7,0.8-1c0.3-0.3,0.5-0.7,0.8-1
	c0.3-0.3,0.6-0.6,0.9-0.9c0.6-0.5,1.3-1,2-1.5c0.3-0.3,0.7-0.5,1.1-0.7c0.3-0.2,0.7-0.4,1.1-0.6c1-0.6,2.3-0.9,3.5-1.3
	c0.8-0.2,1.7-0.3,2.5-0.3C718.9,581,721.3,581.4,723.1,582.3C723.5,582.5,722.7,582.1,723.1,582.3z M706.8,629.3
	c0,0.1,0,0.2-0.1,0.3c-0.1,0.3-0.1,0.6-0.2,0.9c-0.1,0.2-0.1,0.4-0.2,0.6c0,0.3,0,0.5-0.1,0.7c-0.1,0.3-0.1,0.5-0.1,0.8
	c-0.2,0.6-0.3,1.3-0.3,1.9c-0.2,0.8-0.3,1.5-0.3,2.3c-0.1,0.8-0.3,1.7-0.4,2.5c0,1.4-0.4,2.8-0.4,4.3c-0.1,1-0.3,2.1-0.4,3.1
	c0,1.7-0.4,3.3-0.4,5c-0.2,1.2-0.3,2.3-0.3,3.5c-0.2,1.2-0.3,2.4-0.3,3.6c-0.1,0.6-0.1,1.2-0.2,1.8c-0.1,1.2-0.1,2.4-0.2,3.6
	c-0.1,0.7-0.1,1.3-0.2,1.9c0,0.6,0,1.2-0.1,1.8c-0.1,1.2-0.1,2.4-0.2,3.6c-0.1,1.2-0.1,2.4-0.2,3.6c0,0.5,0,1.1-0.1,1.7
	c0,0.5,0,1.1-0.1,1.7c0,0.5,0,1.1,0,1.7c-0.2,1.6,0,3.1-0.2,4.7c0,2.6-0.3,5.4,0.1,8c0,0.7,0,1.4,0.1,2.1c0,0.3,0,0.6,0,0.9
	c0.1,0.3,0.1,0.5,0.1,0.8c0.1,0.2,0.1,0.4,0.1,0.7c0.1,0.2,0.1,0.4,0.1,0.6c0.1,0.2,0.1,0.4,0.2,0.5c0,0.4,0.3,0.7,0.5,0.9
	c0.2,0.1,0.4,0.1,0.6,0.2c0.5,0.2,1.1,0.4,1.7,0.5c0.8,0.2,1.6,0.3,2.4,0.3c0.5,0.1,0.9,0.1,1.4,0.2c0.5,0,0.9,0,1.4,0.1
	c0.5,0,1.1,0,1.6,0.1c0.5,0,1.1,0,1.6,0.1c1.1,0,2.2,0,3.3,0c1.1,0.1,2.2,0.1,3.3,0.1c1.6-0.2,3.1,0,4.7-0.2c0.5,0,0.9,0,1.4-0.1
	c0.4,0,0.8,0,1.3-0.1c0.7-0.1,1.5-0.1,2.2-0.2c0.5-0.1,1-0.2,1.5-0.4c0.1,0,0.2,0,0.2-0.1c0.1-0.1,0.2-0.1,0.3-0.2
	c0.1-0.1,0.1-0.3,0.1-0.4c0.2-0.5,0.5-1.1,0.5-1.7c0.1-0.3,0.1-0.5,0.2-0.8c0-0.3,0-0.6,0.1-0.9c0-0.3,0-0.6,0.1-0.9
	c0-0.4,0-0.8,0.1-1.1c0-0.3,0-0.7,0.1-1.1c0-0.4,0-0.8,0-1.2c0.1-0.9,0.1-1.7,0.2-2.6c0-1.9-0.1-4,0.1-5.9c0-1.1,0-2.1-0.1-3.2
	c0-2.3,0.1-4.6-0.1-6.9c0-1.2,0-2.4-0.1-3.6c0-0.6,0-1.2,0-1.8c-0.1-1.2-0.1-2.4-0.2-3.6c0-0.6,0-1.2-0.1-1.9c0-0.6,0-1.2,0-1.8
	c-0.1-0.6-0.1-1.2-0.1-1.8c-0.1-0.6-0.1-1.2-0.1-1.7c-0.1-0.6-0.1-1.2-0.1-1.8c-0.1-0.6-0.1-1.2-0.1-1.8c-0.1-0.5-0.1-1.1-0.1-1.7
	c-0.1-0.5-0.1-1.1-0.1-1.7c-0.1-0.5-0.1-1.1-0.2-1.6c0-0.5,0-1.1-0.1-1.6c0-0.5,0-1.1-0.1-1.6c-0.1-1-0.1-1.9-0.2-2.9
	c-0.1-0.5-0.1-0.9-0.2-1.4c0-0.5,0-0.9-0.1-1.4c-0.1-0.8-0.1-1.7-0.2-2.5c-0.1-0.3-0.1-0.7-0.2-1.1c0-0.3,0-0.7-0.1-1
	c-0.1-0.6-0.1-1.3-0.2-1.9c-0.1-0.3-0.1-0.5-0.1-0.8c-0.1-0.2-0.1-0.4-0.2-0.7c0-0.2,0-0.4-0.1-0.6c0-0.1,0-0.3-0.1-0.5
	c-0.1-0.2-0.1-0.4-0.2-0.6l-0.1-0.1c-0.1-0.1-0.3-0.2-0.5-0.3c-1.7-0.8-4-0.8-5.8-1.1c-0.6,0-1.2,0-1.7-0.1c-0.5,0-1.1,0-1.6-0.1
	c-0.6,0-1.2,0-1.8,0c-1.6-0.2-3.4-0.2-5,0c-0.5,0-1,0-1.5,0.1c-1.2,0-3.3,0.1-4.4,0.8c-0.2,0.1-0.4,0.2-0.5,0.3
	C707,629.2,706.9,629.2,706.8,629.3C706.8,629.4,706.9,629.2,706.8,629.3z"/>
<path d="M739.2,701c-0.1,0-0.1-0.1-0.1-0.2c-0.2-0.2-0.3-0.4-0.4-0.7c-0.1-0.2-0.1-0.4-0.1-0.6c-0.1-0.3-0.1-0.5-0.2-0.7
	c0-0.3,0-0.5-0.1-0.8c0-0.3,0-0.7-0.1-1c0-0.3,0-0.7-0.1-1c0-0.3,0-0.7-0.1-1.1c0-0.4,0-0.8,0-1.2c-0.1-0.9-0.1-1.7-0.1-2.6
	c-0.2-1.5-0.1-3-0.1-4.5c-0.4-3.1-0.4-6.8,0-9.9c0-2.2-0.2-4.6,0.1-6.8c0-1.1,0-2.2,0-3.3c0.2-1.7,0-3.5,0.2-5.2c0-0.5,0-1.1,0-1.7
	c0.1-1.2,0.1-2.4,0.1-3.6c0.1-1.1,0.1-2.3,0.2-3.4c0-0.6,0-1.2,0-1.7c0.1-0.6,0.1-1.2,0.1-1.7c0.1-1.1,0.1-2.1,0.2-3.2
	c0-0.5,0-1.1,0.1-1.6c0-0.5,0-1,0-1.5c0.1-0.5,0.1-0.9,0.1-1.4c0.1-0.5,0.1-0.9,0.1-1.4c0.1-0.4,0.1-0.8,0.1-1.3
	c0.1-0.8,0.1-1.5,0.2-2.3c0-0.4,0-0.8,0.1-1.1c0-0.3,0-0.7,0.1-1c0-0.3,0-0.5,0.1-0.8c0-0.3,0-0.5,0.1-0.8c0-0.2,0-0.4,0-0.6
	c0.1-0.2,0.1-0.4,0.1-0.5c0.1-0.2,0.1-0.4,0.1-0.5c0.1-0.1,0.1-0.1,0.1-0.2c0.1-0.1,0.1-0.1,0.1-0.2c0.1-0.1,0.3-0.1,0.4-0.2
	c0.5-0.2,1-0.3,1.6-0.3c0.4-0.1,0.8-0.1,1.1-0.1c1-0.1,1.9-0.1,2.9-0.2c1.7,0,3.4,0,5.1,0c1.2,0.1,2.4,0.1,3.6,0.2
	c0.6,0,1.2,0,1.8,0.1c0.5,0,1.1,0,1.7,0.1c1,0,2.1,0.1,3.1,0.3c1.2,0,3.1,0.1,4.1,0.8c0.2,0,0.3,0.1,0.4,0.2
	c0.5,0.4,0.9,0.9,1.2,1.5c0.1,0.4,0.3,0.8,0.4,1.1c0.1,0.5,0.2,0.9,0.3,1.4c0.2,0.6,0.3,1.2,0.2,1.8c-0.2,0.9-0.2,1.7,0,2.3
	c0.1,0.3,0.3,0,0.7-1c0.2-0.3,0.5-0.6,0.8-0.9c0.3-0.3,0.5-0.6,0.8-0.9c0.2-0.3,0.5-0.5,0.8-0.8c0.3-0.3,0.5-0.5,0.8-0.8
	c0.3-0.3,0.6-0.5,0.9-0.7c0.3-0.3,0.7-0.5,1-0.7c0.9-0.6,1.9-1.3,2.9-1.7c0.9-0.5,2-1,3.1-1.2c0.3-0.1,0.7-0.2,1-0.3
	c0.7-0.3,1.4-0.4,2.2-0.4c0.3-0.1,0.7-0.1,1.1-0.1c1-0.2,2.3-0.2,3.3,0c1.1,0,2.2,0.3,3.3,0.5c0.3,0.1,0.7,0.2,1,0.3
	c0.7,0.3,1.5,0.5,2.2,0.8c0.3,0.2,0.7,0.4,1.1,0.5c0.7,0.4,1.3,0.8,2,1.2c0.3,0.3,0.7,0.5,1,0.7c0.7,0.5,1.3,1.1,2,1.6
	c0.3,0.3,0.6,0.6,0.9,0.9c0.3,0.3,0.7,0.7,1,1c0.3,0.3,0.5,0.7,0.8,1c0.3,0.4,0.6,0.8,0.9,1.1c0.6,0.8,1.1,1.6,1.6,2.5
	c0.3,0.4,0.5,0.8,0.8,1.3c1.2,2.8,2.4,5.6,3.5,8.5c0.2,1,0.5,1.9,0.8,2.9c0.2,1.5,0.6,3,0.8,4.6c0.3,1,0.4,2,0.4,3
	c0.2,1,0.3,2.1,0.3,3.1c0.1,1,0.1,2,0.1,3c0.1,1,0.1,2,0.1,3c-0.1,1-0.1,1.9-0.1,2.9c-0.1,0.5-0.1,1-0.1,1.5
	c-0.1,0.5-0.1,0.9-0.1,1.4c-0.1,0.5-0.1,0.9-0.2,1.4c0,1.4-0.4,2.7-0.4,4.1c-0.1,0.4-0.1,0.8-0.2,1.3c-0.4,1.2-0.5,2.5-0.7,3.7
	c-0.2,0.7-0.4,1.5-0.5,2.3c-0.2,0.7-0.4,1.4-0.6,2.1c-0.1,0.3-0.2,0.7-0.3,1c-0.1,0.3-0.2,0.6-0.3,0.9c-0.1,0.3-0.1,0.6-0.2,0.9
	c-0.1,0.3-0.2,0.5-0.3,0.8c-0.1,0.3-0.2,0.5-0.3,0.8c-0.1,0.2-0.2,0.4-0.3,0.7c-0.1,0.2-0.2,0.4-0.3,0.7c-0.1,0.2-0.2,0.4-0.3,0.6
	c-0.1,0.1-0.2,0.3-0.3,0.5c-0.1,0.1-0.1,0.3-0.2,0.5c-0.1,0.1-0.2,0.3-0.3,0.4c-0.1,0.1-0.2,0.2-0.3,0.3c-0.1,0.1-0.4,0.5-0.6,0.5
	c-0.6,0.2-1.1,0.3-1.7,0.3c-0.4,0.1-0.8,0.1-1.2,0.1c-1,0.1-1.9,0.1-2.9,0.2c-3.3,0-6.8,0.3-10.1-0.1c-0.5,0-1,0-1.5,0
	c-0.5-0.1-0.9-0.1-1.3-0.1c-0.4-0.1-0.8-0.1-1.2-0.2c-0.3,0-0.6,0-0.9-0.1c-0.2-0.1-0.4-0.1-0.6-0.1c-0.1-0.1-0.3-0.1-0.4-0.2v-0.1
	c0-0.4,0-0.7,0.1-1.1c0-0.2,0-0.4,0.1-0.5c0-0.3,0-0.5,0.1-0.7c0.1-0.3,0.1-0.5,0.2-0.7c0-0.9,0.3-1.9,0.5-2.8
	c0.4-1,0.5-2.2,0.7-3.3c0.2-0.9,0.4-1.7,0.5-2.6c0.4-1.3,0.4-2.7,0.8-4c0.3-2.4,0.9-4.9,0.9-7.3c0.1-0.5,0.1-1,0.2-1.5
	c0-0.5,0-1,0.1-1.5c0-0.5,0-0.9,0.1-1.4c0-1.9,0-3.8,0-5.7c-0.1-0.4-0.1-0.8-0.2-1.3c0-1.2-0.2-2.5-0.6-3.7
	c-0.1-0.4-0.2-0.8-0.3-1.1c-0.1-0.8-0.4-1.4-0.8-2.1c-0.1-0.3-0.3-0.6-0.5-0.9c-0.1-0.3-0.3-0.6-0.5-0.9c-0.2-0.2-0.4-0.4-0.7-0.7
	c-0.2-0.3-0.4-0.5-0.7-0.7c-0.2-0.2-0.4-0.4-0.7-0.5c-0.3-0.2-0.6-0.4-0.9-0.5c-0.3-0.1-0.6-0.3-0.9-0.4c-0.7-0.1-1.4-0.3-2.1-0.4
	c-1.5,0-2.9,0.1-4.3,0.8c-1,0.4-1.7,1.2-2.5,2c-0.2,0.3-0.4,0.5-0.6,0.8c-0.3,0.3-0.5,0.7-0.7,1c-0.2,0.4-0.4,0.8-0.5,1.1
	c-0.2,0.4-0.4,0.8-0.5,1.2c-0.6,1.2-0.9,2.6-1.3,3.9c-0.1,0.5-0.2,0.9-0.3,1.4c-0.1,0.5-0.2,1-0.3,1.5c-0.2,1.6-0.4,3.1-0.6,4.7
	c0,0.5,0,1.1-0.1,1.6c0,0.5,0,1.1-0.1,1.6c0,0.5,0,1.1-0.1,1.6c0,3.6-0.4,7.4,0.1,11c0,0.9,0,1.8,0.1,2.7c0,0.8,0,1.7,0.1,2.5
	c0,0.7,0,1.5,0,2.2c0.2,0.9,0.4,2.8,0,3.6c0,0.2,0,0.4-0.1,0.5c-0.2,0.2-0.5,0.3-0.8,0.3c-0.2,0.1-0.4,0.1-0.7,0.2
	c-0.7,0.1-1.5,0.1-2.2,0.2c-0.4,0.1-0.8,0.1-1.3,0.1c-0.5,0.1-1,0.1-1.5,0.1c-0.5,0.1-1,0.1-1.5,0.1c-0.6,0.1-1.2,0.1-1.7,0.1
	c-1.2,0.1-2.3,0.1-3.5,0.2c-1.2,0-2.4,0-3.6,0c-1.1,0.1-2.3,0.1-3.4,0.1c-1.4-0.2-2.9,0-4.3-0.2c-0.4,0-0.8,0-1.1-0.1
	c-0.3,0-0.7,0-1-0.1c-0.2,0-0.4,0-0.7-0.1C739.6,701.2,739.4,701.1,739.2,701C739.2,701,739.4,701.1,739.2,701z"/>
<path d="M856.4,691.2c-0.1-0.3-0.3,0-0.6,0.9c-0.1,0.3-0.4,0.5-0.7,0.8c-0.5,0.5-0.9,0.9-1.4,1.4c-0.3,0.3-0.5,0.5-0.7,0.7
	c-0.5,0.4-1,0.9-1.5,1.3c-0.3,0.2-0.5,0.4-0.8,0.6c-0.8,0.4-1.7,1-2.4,1.5c-0.6,0.3-1.1,0.6-1.7,0.8c-0.3,0.1-0.5,0.2-0.8,0.3
	c-0.3,0.1-0.6,0.3-0.9,0.4c-0.3,0.1-0.5,0.1-0.8,0.2c-0.9,0.5-2.5,0.8-3.5,0.8c-0.3,0.1-0.6,0.1-0.9,0.1c-0.6,0.1-1.2,0.1-1.8,0.1
	c-0.3,0.1-0.6,0.1-0.9,0c-0.6,0-1.1,0-1.7,0c-0.3-0.1-0.6-0.1-0.9-0.1c-0.3-0.1-0.6-0.1-0.9-0.2c-0.9,0-1.8-0.3-2.6-0.5
	c-0.6-0.2-1.2-0.4-1.8-0.6c-0.3-0.1-0.5-0.2-0.8-0.3c-0.3-0.1-0.6-0.3-0.9-0.4c-0.8-0.4-1.6-0.8-2.4-1.2c-0.3-0.2-0.5-0.4-0.8-0.5
	c-0.3-0.2-0.5-0.4-0.8-0.5c-0.3-0.2-0.5-0.4-0.8-0.6c-0.6-0.3-1.1-0.7-1.5-1.1c-0.8-0.6-1.6-1.2-2.2-2c-0.2-0.2-0.4-0.4-0.7-0.7
	c-0.2-0.3-0.4-0.5-0.7-0.8c-0.7-0.7-1.3-1.6-1.8-2.4c-0.2-0.3-0.4-0.5-0.6-0.8c-0.2-0.3-0.4-0.6-0.6-0.9c-0.1-0.3-0.3-0.6-0.5-0.9
	c-0.2-0.3-0.4-0.7-0.5-1c-0.4-0.6-0.7-1.2-1-1.9c-0.5-1.4-1.2-2.8-1.5-4.3c-0.1-0.3-0.3-0.7-0.4-1.1c-0.1-0.4-0.1-0.8-0.2-1.1
	c-0.5-1.6-0.6-3.3-0.9-4.9c0-0.4,0-0.8-0.1-1.3c0-0.4,0-0.8-0.1-1.3c0-1.8-0.1-3.6,0.1-5.4c0-0.5,0-0.9,0.1-1.4
	c0-1.5,0.3-2.9,0.5-4.4c0.1-0.6,0.3-1.2,0.4-1.7c0.2-1.5,0.6-3.2,1.2-4.6c0.1-0.5,0.3-1,0.5-1.5c0.5-1.7,1.4-3.8,2.4-5.3
	c0.2-0.4,0.4-0.8,0.7-1.2c0.2-0.4,0.4-0.8,0.7-1.1c0.3-0.4,0.5-0.8,0.8-1.1c1.2-1.8,2.7-3.3,4.2-4.8c0.3-0.3,0.7-0.5,1-0.8
	c0.6-0.6,1.2-1.1,1.9-1.5c0.9-0.7,2-1.3,3-1.9c0.4-0.2,0.8-0.4,1.1-0.5c0.3-0.2,0.7-0.4,1.1-0.5c0.3-0.1,0.7-0.3,1-0.5
	c0.4-0.1,0.8-0.3,1.1-0.4c0.7-0.2,1.5-0.4,2.2-0.6c1.4-0.5,3-0.8,4.5-0.8c0.3-0.1,0.7-0.1,1.1-0.1c1.3-0.3,3.1-0.3,4.4,0
	c0.4,0,0.8,0,1.1,0.1c1.1,0,2.2,0.3,3.3,0.5c1,0.4,2.1,0.6,3.1,1c0.7,0.2,1.4,0.4,2,0.7c0.3,0.2,0.7,0.4,1,0.5
	c0.6,0.3,1.2,0.7,1.8,1c0.3,0.2,0.6,0.4,0.9,0.6c0.6,0.4,1.2,0.8,1.7,1.2c0.5,0.7,0.7,1,0.8,0.7c0.2-1.3,0.4-2.6,0.5-3.9
	c0.1-0.4,0.2-0.8,0.3-1.3c0-0.3,0.1-0.5,0.3-0.6c0.3-0.2,0.7-0.3,1.1-0.3c0.3-0.1,0.7-0.1,1-0.1c2.9-0.5,6.5-0.3,9.4,0
	c0.6,0,1.2,0,1.9,0.1c2.6,0,6.1,0.2,8.6,1.2c0.3,0.1,0.5,0.1,0.7,0.2c0.1,0.1,0.3,0.3,0.4,0.4l0.1,0.1c0,1.4,0.2,3-0.1,4.4
	c0,0.4,0,0.8,0,1.1c-0.1,0.8-0.1,1.6-0.2,2.4c0,0.4,0,0.8,0,1.3c-0.1,1-0.1,1.9-0.2,2.9c0,0.5,0,1.1,0,1.6c-0.1,1.1-0.1,2.3-0.2,3.4
	c0,0.6,0,1.2,0,1.7c-0.2,1.9,0,3.9-0.2,5.8c0,2.9,0,5.7,0,8.6c0.2,2.1,0,4.1,0.2,6.2c0,0.7,0,1.3,0,2c0.1,1.3,0.1,2.5,0.2,3.8
	c0,0.6,0,1.2,0.1,1.7c0,0.6,0,1.2,0,1.8c0.1,0.5,0.1,1.1,0.1,1.6c0.1,0.5,0.1,1.1,0.1,1.6c0.1,0.5,0.1,1,0.1,1.5
	c0.1,0.5,0.1,1,0.1,1.5c0.1,0.5,0.1,0.9,0.1,1.4c0.1,0.8,0.1,1.7,0.2,2.5c0,0.4,0,0.8,0.1,1.2c0,0.4,0,0.8,0,1.1
	c0.1,0.7,0.1,1.3,0.2,2c0,0.6,0,1.1,0.1,1.7c0,0.9,0.3,2.5-0.1,3.3c0,0.1,0,0.2,0,0.3c0,0.1-0.1,0.2-0.2,0.3
	c-0.1,0.1-0.3,0.1-0.4,0.2c-0.3,0.1-0.5,0.1-0.7,0.1c-0.3,0.1-0.7,0.1-1,0.2c-0.3,0-0.7,0-1.1,0.1c-0.5,0-0.9,0-1.3,0
	c-3.7,0.5-8.1,0.4-11.8,0c-0.6,0-1.2,0-1.7-0.1c-0.6,0-1.2,0-1.7,0c-0.5-0.1-1-0.1-1.5-0.1c-0.5-0.1-0.9-0.1-1.4-0.1
	c-0.4-0.1-0.8-0.1-1.2-0.1c-0.3-0.1-0.7-0.1-1-0.2c-0.3,0-0.5,0-0.8-0.1c-0.2-0.1-0.4-0.1-0.6-0.1c-0.1-0.1-0.2-0.1-0.3-0.2
	c-0.2-0.2-0.3-0.4-0.4-0.7c-0.1-0.3-0.2-0.5-0.3-0.8c-0.1-0.4-0.2-0.8-0.2-1.1c-0.1-0.5-0.1-0.9-0.1-1.3c0.1-0.5,0.1-1,0.1-1.5
	c-0.1-0.5-0.1-1.1,0-1.6C856.5,692.2,856.6,691.6,856.4,691.2C856.4,690.9,856.6,691.6,856.4,691.2z M847,652.8
	c-0.9-0.1-1.7-0.1-2.6-0.1c-0.9,0.2-1.7,0.4-2.5,0.7c-1.1,0.5-2.3,1.3-3.1,2.3c-0.6,0.6-1.2,1.3-1.7,2.1c-0.5,0.8-0.9,1.6-1.2,2.4
	c-0.1,0.4-0.3,0.8-0.4,1.3c-0.2,1.3-0.3,2.6-0.3,4c0.2,1.2,0.6,2.7,1.2,3.7c0.3,0.4,0.5,0.8,0.7,1.1c0.9,1.4,2.2,2.6,3.7,3.5
	c0.7,0.4,1.4,0.8,2.2,1c2.1,0.7,4.4,0.4,6.4-0.5c0.5-0.1,0.9-0.3,1.3-0.5c0.4-0.3,0.8-0.5,1.2-0.8c0.4-0.2,0.8-0.5,1.1-0.8
	c0.7-0.6,1.4-1.2,1.9-2c0.8-1,1.4-2.4,1.8-3.6c0.1-0.9,0.3-1.9,0.4-2.8c0-0.9-0.1-1.9-0.3-2.8c-0.1-0.5-0.3-0.9-0.4-1.3
	c-0.2-0.4-0.4-0.8-0.6-1.2c-0.2-0.3-0.4-0.7-0.7-1.1c-0.6-0.6-1.2-1.2-1.8-1.8c-0.4-0.3-0.8-0.6-1.1-0.8c-0.8-0.5-1.6-0.9-2.5-1.3
	C848.8,653.1,847.9,652.9,847,652.8C846.6,652.7,847.4,652.8,847,652.8z"/>
<g>
	<path fill="#F1CC5A" d="M592.7,729.6H439.3c-12.8,0-23.2-10.4-23.2-23.2v-128c0-12.8,10.4-23.2,23.2-23.2h153.3
		c12.8,0,23.2,10.4,23.2,23.2v128C615.8,719.1,605.4,729.6,592.7,729.6z"/>
	<path fill="#FFEDBB" d="M581.3,714.7H450.8c-12.8,0-23.2-10.4-23.2-23.2v-97.9c0-12.8,10.4-23.2,23.2-23.2h130.6
		c12.8,0,23.2,10.4,23.2,23.2v97.9C604.4,704.3,594,714.7,581.3,714.7z"/>
</g>
<path d="M353.2,597.8c-4.7,0-8.2,11.2-15.8,10.8c-7.6-0.4-7.6-6.7-7.6-9.2c0-5.2,5.2-13.8,8-17.1c2.7-3.3,6.9-7.4,15-7.4
	c11.1,0,13.3,11.4,22.2,11.4c5.1,0,9-13.8,18.7-13.8c17.2,0,5.8,18.6,4,21.4c-2.9,4.6-11.4,16.3-22.9,16.3
	C363.2,610.2,361,597.8,353.2,597.8"/>
</svg>
