<?xml version="1.0" encoding="utf-8"?>
<!-- Generator: Adobe Illustrator 18.0.0, SVG Export Plug-In . SVG Version: 6.00 Build 0)  -->
<!DOCTYPE svg PUBLIC "-//W3C//DTD SVG 1.1//EN" "http://www.w3.org/Graphics/SVG/1.1/DTD/svg11.dtd">
<svg version="1.1" id="Camada_1" xmlns="http://www.w3.org/2000/svg" xmlns:xlink="http://www.w3.org/1999/xlink" x="0px" y="0px"
	 viewBox="0 0 1024 768" enable-background="new 0 0 1024 768" xml:space="preserve">
<image overflow="visible" enable-background="new    " width="1500" height="1500" xlink:href="../../../Desenhos Jogo Yegatu/png2/pirãyã.png"  transform="matrix(0.6643 0 0 0.6643 14.4215 -227.4308)">
</image>
<path d="M453.4,701.4c-0.2-0.1-0.3-0.3-0.3-0.5c-0.1-0.1-0.1-0.3-0.2-0.4c0-0.2,0-0.4-0.1-0.5c-0.1-0.2-0.1-0.4-0.1-0.7
	c-0.1-0.2-0.1-0.4-0.2-0.7c0-0.3,0-0.6-0.1-0.9c0-0.3,0-0.6,0-0.9c-0.1-0.3-0.1-0.7-0.1-1.1c-0.1-0.8-0.1-1.5-0.2-2.3
	c0-0.9,0-1.7-0.1-2.6c0-0.9,0-1.9,0-2.8c-0.5-4.2-0.1-8.6-0.1-12.8c0.2-2.2,0.1-4.4,0.1-6.6c0.2-1.6,0.1-3.2,0.1-4.8
	c0.1-1.2,0.1-2.3,0.1-3.5c0.1-1.2,0.1-2.3,0.1-3.5c0.1-1.2,0.1-2.3,0.2-3.5c0-0.6,0-1.2,0-1.8c0.1-1.1,0.1-2.2,0.2-3.3
	c0-0.6,0-1.2,0.1-1.7c0-0.5,0-1.1,0-1.6c0.1-0.5,0.1-1,0.1-1.5c0.1-0.5,0.1-1,0.1-1.5c0.1-0.9,0.1-1.9,0.2-2.8c0-0.5,0-0.9,0.1-1.3
	c0-0.4,0-0.8,0.1-1.2c0-0.4,0-0.8,0.1-1.2c0-0.3,0-0.7,0.1-1c0-0.3,0-0.7,0-1c0.1-0.3,0.1-0.5,0.1-0.8c0.1-0.3,0.1-0.5,0.1-0.8
	c0.1-0.2,0.1-0.4,0.1-0.6c0.1-0.2,0.1-0.4,0.1-0.6c0.1-0.1,0.1-0.3,0.1-0.4c0-0.2,0.1-0.3,0.2-0.4c0.1-0.1,0.3-0.2,0.4-0.3
	c0.3-0.1,0.5-0.1,0.7-0.2c2.2-0.4,4.5-0.9,6.8-0.9c0.6-0.1,1.2-0.1,1.7-0.2c0.6,0,1.2,0,1.8-0.1c0.6,0,1.2,0,1.7,0
	c1.6-0.2,3.4-0.2,5,0c0.5,0,0.9,0,1.4,0c0.4,0.1,0.8,0.1,1.2,0.1c0.7,0.1,1.5,0.3,2.2,0.6c0.2,0.2,0.4,0.4,0.6,0.6
	c0.2,0.3,0.4,0.5,0.6,0.8c0.4,0.7,0.8,1.4,1.1,2.1c0.2,0.5,0.4,0.9,0.5,1.4c0.3,0.6,0.4,1.2,0.3,1.7c-0.3,1.1-0.3,1.8,0,2.1
	c0.3,0.2,0.7-0.2,1.4-1.2c0.3-0.3,0.7-0.7,1.3-1c0.4-0.3,0.8-0.6,1.3-1c0.4-0.3,0.8-0.5,1.3-0.8c0.4-0.3,0.8-0.6,1.2-0.9
	c0.8-0.5,1.7-0.9,2.6-1.3c0.4-0.3,0.8-0.5,1.2-0.6c0.5-0.2,0.9-0.4,1.3-0.6c1.2-0.4,2.4-0.9,3.7-1.1c1.8-0.7,3.9-0.6,5.8-0.9
	c0.7,0,1.5,0,2.2,0.1c0.3,0,0.7,0,1.1,0.1c1.6,0,3.6,0.4,5.1,1c0.6,0.2,1.2,0.4,1.8,0.7c0.3,0.1,0.7,0.2,1,0.3s0.5,0.3,0.8,0.4
	c0.3,0.1,0.6,0.3,0.9,0.5c0.6,0.2,1.1,0.5,1.6,0.9c0.3,0.1,0.5,0.3,0.8,0.5c0.3,0.1,0.5,0.3,0.8,0.5c1.3,0.6,2.1,1.8,3.3,2.6
	c0.6,0.6,1.1,1.1,1.7,1.7c0.4,0.6,0.9,1.1,1.3,1.7c0.1,0.1,0.3,0.3,0.4,0.5c0.1,0.2,0.2,0.4,0.3,0.5c0.1,0.2,0.2,0.4,0.3,0.6
	c0.1,0.1,0.2,0.3,0.3,0.5c0.1,0.1,0.1,0.3,0.2,0.4c0.1,0.3,0.2,0.6,0.3,0.9c0.1,0.2,0.1,0.4,0.1,0.5c0.2,0.4,0.1,1,0.1,1.4
	c-0.1,0.1-0.1,0.2-0.1,0.3c-0.1,0.1-0.3,0.3-0.4,0.4c-0.1,0.1-0.3,0.3-0.4,0.4c-0.2,0.2-0.4,0.4-0.6,0.6c-0.3,0.3-0.5,0.5-0.7,0.7
	c-1,0.8-2,1.9-2.9,2.8c-0.4,0.4-0.8,0.8-1.1,1.1c-1.2,1.2-2.4,2.4-3.6,3.6c-0.8,0.7-1.6,1.5-2.4,2.3c-0.7,0.7-1.4,1.4-2.2,2.1
	c-0.3,0.3-0.7,0.6-1.1,0.9c-0.3,0.3-0.6,0.5-0.9,0.8c-0.3,0.2-0.5,0.4-0.8,0.7c-0.4,0.3-0.9,0.6-1.3,0.9c-0.1,0.1-0.3,0.1-0.4,0.1
	c-0.1,0.1-0.1,0.1-0.2,0c-0.3-0.4-0.6-0.8-0.9-1.2c-0.3-0.4-0.7-0.8-1-1.2c-0.3-0.3-0.7-0.7-1-1.1c-0.3-0.3-0.6-0.7-0.9-1.1
	c-0.3-0.3-0.7-0.7-1-1s-0.6-0.6-0.9-0.9c-0.7-0.5-1.3-1.1-2-1.6c-0.6-0.5-1.2-0.9-1.9-1.2c-0.6-0.4-1.3-0.7-2-0.9
	c-1-0.2-2-0.4-3.1-0.2c-0.4,0-0.8,0-1.1,0.1c-0.4,0.1-0.8,0.3-1.1,0.4c-0.3,0.1-0.6,0.2-0.9,0.4c-0.6,0.3-1.2,0.7-1.7,1.1
	c-0.6,0.4-1,0.9-1.4,1.5c-0.3,0.3-0.5,0.6-0.6,0.9c-0.2,0.3-0.4,0.7-0.6,1c-0.1,0.3-0.3,0.7-0.4,1c-0.2,0.4-0.3,0.8-0.4,1.1
	c-0.4,1.2-0.6,2.5-1,3.7c-0.2,0.9-0.3,1.8-0.3,2.7c-0.1,0.5-0.1,0.9-0.1,1.4c-0.1,1-0.1,1.9-0.2,2.9c0,1,0,2,0.1,3c0,0.5,0,1,0,1.5
	c0.1,0.5,0.1,1,0.1,1.5c0.1,0.5,0.1,1,0.1,1.5c0.1,0.5,0.1,1,0.1,1.5c0.2,1,0.3,1.9,0.3,2.9c0.3,2.8,0.8,5.5,1.2,8.3
	c0,1.5,0.4,3,0.7,4.5c0.1,0.6,0.1,1.2,0.2,1.8c0.1,0.3,0.1,0.5,0.1,0.8c0.1,0.3,0.1,0.5,0.1,0.7c0.1,0.2,0.3,2,0,2
	c-0.1,0.1-0.1,0.1-0.2,0.2c-0.4,0.1-0.8,0.2-1.2,0.2c-0.6,0.2-1.3,0.3-1.9,0.3c-0.5,0.1-0.9,0.1-1.3,0.2c-1,0.1-1.9,0.1-2.9,0.2
	c-0.5,0.1-1.1,0.1-1.6,0.2c-0.5,0-1.1,0-1.7,0.1c-0.6,0-1.2,0-1.7,0.1c-0.6,0-1.2,0-1.8,0.1c-0.6,0-1.2,0-1.8,0.1
	c-0.6,0-1.2,0-1.8,0.1c-0.6,0-1.2,0-1.8,0c-1.7,0.2-3.3,0-5,0.2c-0.5,0-1,0-1.5,0c-1.2-0.2-2.4,0-3.6-0.2c-0.3,0-0.6,0-0.9-0.1
	c-0.2,0-0.4,0-0.7-0.1C453.7,701.5,453.5,701.4,453.4,701.4C453.3,701.3,453.5,701.4,453.4,701.4z"/>
<path d="M570.8,691.4c-0.1-0.3-0.3,0-0.6,0.9c-0.1,0.3-0.4,0.5-0.7,0.8c-0.5,0.5-0.9,0.9-1.4,1.4c-0.3,0.3-0.5,0.5-0.7,0.7
	c-0.5,0.4-1,0.9-1.5,1.3c-0.3,0.2-0.5,0.4-0.8,0.6c-0.8,0.4-1.7,1-2.4,1.5c-0.6,0.3-1.1,0.6-1.7,0.8c-0.3,0.1-0.5,0.2-0.8,0.3
	s-0.6,0.3-0.9,0.4c-0.3,0.1-0.5,0.1-0.8,0.2c-0.9,0.5-2.5,0.8-3.5,0.8c-0.3,0.1-0.6,0.1-0.9,0.1c-0.6,0.1-1.2,0.1-1.8,0.1
	c-0.3,0.1-0.6,0.1-0.9,0c-0.6,0-1.1,0-1.7,0c-0.3-0.1-0.6-0.1-0.9-0.1c-0.3-0.1-0.6-0.1-0.9-0.2c-0.9,0-1.8-0.3-2.6-0.5
	c-0.6-0.2-1.2-0.4-1.8-0.6c-0.3-0.1-0.5-0.2-0.8-0.3s-0.6-0.3-0.9-0.4c-0.8-0.4-1.6-0.8-2.4-1.2c-0.3-0.2-0.5-0.4-0.8-0.5
	c-0.3-0.2-0.5-0.4-0.8-0.5c-0.3-0.2-0.5-0.4-0.8-0.6c-0.6-0.3-1.1-0.7-1.5-1.1c-0.8-0.6-1.6-1.2-2.2-2c-0.2-0.2-0.4-0.4-0.7-0.7
	c-0.2-0.3-0.4-0.5-0.7-0.8c-0.7-0.7-1.3-1.6-1.8-2.4c-0.2-0.3-0.4-0.5-0.6-0.8c-0.2-0.3-0.4-0.6-0.6-0.9c-0.1-0.3-0.3-0.6-0.5-0.9
	c-0.2-0.3-0.4-0.7-0.5-1c-0.4-0.6-0.7-1.2-1-1.9c-0.4-1.1-0.8-2.1-1.2-3.2c-0.1-0.3-0.2-0.7-0.3-1.1c-0.1-0.3-0.3-0.7-0.4-1.1
	c-0.1-0.4-0.1-0.8-0.2-1.1c-0.5-1.6-0.6-3.3-0.9-4.9c0-0.4,0-0.8-0.1-1.3c0-0.4,0-0.8-0.1-1.3c0-1.8-0.1-3.6,0.1-5.4
	c0-0.5,0-0.9,0.1-1.4c0-1.5,0.3-2.9,0.5-4.4c0.1-0.6,0.3-1.2,0.4-1.7c0.2-1.5,0.6-3.2,1.2-4.6c0.1-0.5,0.3-1,0.5-1.5
	c0.5-1.7,1.4-3.8,2.4-5.3c0.2-0.4,0.4-0.8,0.7-1.2c0.2-0.4,0.4-0.8,0.7-1.1c0.3-0.4,0.5-0.8,0.8-1.1c1.2-1.8,2.7-3.3,4.2-4.8
	c0.3-0.3,0.7-0.5,1-0.8c0.6-0.6,1.2-1.1,1.9-1.5c0.9-0.7,2-1.3,3-1.9c0.4-0.2,0.8-0.4,1.1-0.5c0.3-0.2,0.7-0.4,1.1-0.5
	c0.3-0.1,0.7-0.3,1-0.5c0.4-0.1,0.8-0.3,1.1-0.4c0.7-0.2,1.5-0.4,2.2-0.6c1.4-0.5,3-0.8,4.5-0.8c0.3-0.1,0.7-0.1,1.1-0.1
	c1.3-0.3,3.1-0.3,4.4,0c0.4,0,0.8,0,1.1,0.1c1.1,0,2.2,0.3,3.3,0.5c1,0.4,2.1,0.6,3.1,1c0.7,0.2,1.4,0.4,2,0.7
	c0.3,0.2,0.7,0.4,1,0.5c0.6,0.3,1.2,0.7,1.8,1c0.3,0.2,0.6,0.4,0.9,0.6c0.6,0.4,1.2,0.8,1.7,1.2c0.5,0.7,0.7,1,0.8,0.7
	c0.2-1.3,0.4-2.6,0.5-3.9c0.1-0.4,0.2-0.8,0.3-1.3c0-0.3,0.1-0.5,0.3-0.6c0.3-0.2,0.7-0.3,1.1-0.3c0.3-0.1,0.7-0.1,1-0.1
	c2.9-0.5,6.5-0.3,9.4,0c0.6,0,1.2,0,1.9,0.1c2.6,0,6.1,0.2,8.6,1.2c0.3,0.1,0.5,0.1,0.7,0.2c0.1,0.1,0.3,0.3,0.4,0.4l0.1,0.1
	c0,1.4,0.2,3-0.1,4.4c0,0.4,0,0.8,0,1.1c-0.1,0.8-0.1,1.6-0.2,2.4c0,0.4,0,0.8,0,1.3c-0.1,1-0.1,1.9-0.2,2.9c0,0.5,0,1.1,0,1.6
	c-0.1,1.1-0.1,2.3-0.2,3.4c0,0.6,0,1.2,0,1.7c-0.2,1.9,0,3.9-0.2,5.8c0,2.9,0,5.7,0,8.6c0.2,2.1,0,4.1,0.2,6.2c0,0.7,0,1.3,0,2
	c0.1,1.3,0.1,2.5,0.2,3.8c0,0.6,0,1.2,0.1,1.7c0,0.6,0,1.2,0,1.8c0.1,0.5,0.1,1.1,0.1,1.6c0.1,0.5,0.1,1.1,0.1,1.6
	c0.1,0.5,0.1,1,0.1,1.5c0.1,0.5,0.1,1,0.1,1.5c0.1,0.5,0.1,0.9,0.1,1.4c0.1,0.8,0.1,1.7,0.2,2.5c0,0.4,0,0.8,0.1,1.2
	c0,0.4,0,0.8,0,1.1c0.1,0.7,0.1,1.3,0.2,2c0,0.6,0,1.1,0.1,1.7c0,0.9,0.3,2.5-0.1,3.3c0,0.1,0,0.2,0,0.3s-0.1,0.2-0.2,0.3
	c-0.1,0.1-0.3,0.1-0.4,0.2c-0.3,0.1-0.5,0.1-0.7,0.1c-0.3,0.1-0.7,0.1-1,0.2c-0.3,0-0.7,0-1.1,0.1c-0.5,0-0.9,0-1.3,0
	c-3.7,0.5-8.1,0.4-11.8,0c-0.6,0-1.2,0-1.7-0.1c-0.6,0-1.2,0-1.7,0c-0.5-0.1-1-0.1-1.5-0.1c-0.5-0.1-0.9-0.1-1.4-0.1
	c-0.4-0.1-0.8-0.1-1.2-0.1c-0.3-0.1-0.7-0.1-1-0.2c-0.3,0-0.5,0-0.8-0.1c-0.2-0.1-0.4-0.1-0.6-0.1c-0.1-0.1-0.2-0.1-0.3-0.2
	c-0.2-0.2-0.3-0.4-0.4-0.7c-0.1-0.3-0.2-0.5-0.3-0.8c-0.1-0.4-0.2-0.8-0.2-1.1c-0.1-0.5-0.1-0.9-0.1-1.3c0.1-0.5,0.1-1,0.1-1.5
	c-0.1-0.5-0.1-1.1,0-1.6C570.9,692.4,570.9,691.8,570.8,691.4C570.7,691.1,570.9,691.8,570.8,691.4z M561.3,653
	c-0.9-0.1-1.7-0.1-2.6-0.1c-0.9,0.2-1.7,0.4-2.5,0.7c-1.1,0.5-2.3,1.3-3.1,2.3c-0.6,0.6-1.2,1.3-1.7,2.1s-0.9,1.6-1.2,2.4
	c-0.1,0.4-0.3,0.8-0.4,1.3c-0.2,1.3-0.3,2.6-0.3,4c0.2,1.2,0.6,2.7,1.2,3.7c0.3,0.4,0.5,0.8,0.7,1.1c0.9,1.4,2.2,2.6,3.7,3.5
	c0.7,0.4,1.4,0.8,2.2,1c2.1,0.7,4.4,0.4,6.4-0.5c0.5-0.1,0.9-0.3,1.3-0.5c0.4-0.3,0.8-0.5,1.2-0.8c0.4-0.2,0.8-0.5,1.1-0.8
	c0.7-0.6,1.4-1.2,1.9-2c0.8-1,1.4-2.4,1.8-3.6c0.1-0.9,0.3-1.9,0.4-2.8c0-0.9-0.1-1.9-0.3-2.8c-0.1-0.5-0.3-0.9-0.4-1.3
	c-0.2-0.4-0.4-0.8-0.6-1.2c-0.2-0.3-0.4-0.7-0.7-1.1c-0.6-0.6-1.2-1.2-1.8-1.8c-0.4-0.3-0.8-0.6-1.1-0.8c-0.8-0.5-1.6-0.9-2.5-1.3
	C563.1,653.4,562.2,653.1,561.3,653C560.9,652.9,561.8,653,561.3,653z"/>
<path d="M605.3,628.9c0.2-0.1,0.4-0.2,0.6-0.3c0.3-0.1,0.6-0.1,0.9-0.2c0.8-0.1,1.5-0.2,2.3-0.2c3.1-0.4,6.8-0.3,9.9,0
	c0.6,0,1.2,0,1.8,0.1c0.6,0,1.2,0,1.8,0.1c0.6,0,1.2,0,1.7,0.1c1.1,0,2.1,0.1,3.2,0.3c0.9,0,1.8,0.1,2.7,0.3c0.3,0,0.7,0,1.1,0.1
	c0.3,0.1,0.5,0.1,0.8,0.2c0.2,0,0.4,0,0.6,0.1c0.1,0.1,0.2,0.1,0.3,0.1c0.1,0.1,0.1,0.1,0.2,0.2c0.1,0.1,0.2,0.3,0.3,0.4
	c0.1,0.2,0.2,0.4,0.3,0.6c0.6,1.3,1.3,2.6,1.8,4c0.4,0.9,0.8,1.8,1.2,2.7c0.5,1,0.9,2,1.4,3c0.2,0.5,0.4,1.1,0.7,1.7
	c0.9,2.3,1.9,4.5,2.9,6.8c0.2,0.5,0.4,1.1,0.7,1.7c0.2,0.5,0.4,1.1,0.7,1.7c0.2,0.5,0.4,1.1,0.7,1.7c0.7,2,1.8,3.9,2.4,5.9
	c0.2,0.4,0.4,0.8,0.6,1.3c0.1,0.3,0.3,0.7,0.4,1.1c0.1,0.3,0.3,0.7,0.4,1c0.1,0.3,0.3,0.5,0.4,0.8c0.1,0.3,0.2,0.5,0.3,0.7
	c0,0.2,0.1,0.4,0.2,0.5c0,0.1,0,0.2,0.1,0.3c0,0.1,0,0.1,0,0.2c0.2-0.2,0.3-0.8,0.3-1c0.1-0.3,0.2-0.5,0.3-0.7
	c0.1-0.3,0.2-0.6,0.3-0.9c0.3-1.6,1-3.4,1.6-4.9c0.1-0.5,0.3-1,0.5-1.5c0.3-1.1,0.7-2.1,1.1-3.2c0.5-2.3,1.4-4.8,2.4-7
	c1.4-3.7,3-7.4,4.1-11.2c0.2-0.5,0.4-0.9,0.6-1.3c0.1-0.4,0.3-0.8,0.5-1.2c0.1-0.3,0.3-0.7,0.4-1c0.1-0.3,0.3-0.6,0.5-0.9
	c0.1-0.2,0.2-0.4,0.4-0.6c0.1-0.2,0.2-0.4,0.3-0.5s0.2-0.3,0.3-0.4c0.1-0.1,0.3-0.1,0.4-0.2c0.3-0.1,0.5-0.1,0.7-0.2
	c1.2-0.6,3.1-0.8,4.5-0.8c1-0.2,2-0.3,3-0.3c0.5-0.1,1.1-0.1,1.7-0.1c0.5-0.1,1.1-0.1,1.6-0.1c1.1-0.1,2.3-0.1,3.4-0.1
	c1.7-0.2,3.3-0.1,5-0.1c1,0.1,1.9,0.1,2.9,0.2c0.5,0,0.9,0,1.3,0.1c0.7,0,1.5,0.1,2.2,0.3c0.3,0,0.5,0,0.8,0.1
	c0.2,0.1,0.4,0.2,0.6,0.3c0.1,0,0.2,0.1,0.3,0.2l0.1,0.1v0.1c0,0.1,0,0.1-0.1,0.2c0,0.2,0,0.3-0.1,0.5c0,0.1,0,0.3,0,0.4
	c-0.1,0.1-0.1,0.3-0.2,0.4c0,0.1,0,0.3-0.1,0.5c-0.1,0.1-0.1,0.3-0.1,0.5c-0.3,0.5-0.5,1.2-0.6,1.8c-0.1,0.2-0.1,0.4-0.2,0.6
	c-0.2,0.5-0.4,1.1-0.6,1.6c-0.1,0.3-0.2,0.5-0.3,0.8s-0.2,0.6-0.3,0.9c-0.1,0.3-0.2,0.6-0.3,0.9c-0.1,0.3-0.2,0.6-0.3,0.9
	c-0.4,1-0.9,2-1.1,3.1c-0.1,0.3-0.3,0.7-0.5,1.1c-0.4,1.1-0.8,2.3-1.3,3.4c-0.3,0.8-0.6,1.7-0.9,2.5c-0.1,0.4-0.3,0.8-0.5,1.3
	c-0.1,0.4-0.3,0.8-0.5,1.3c-0.1,0.5-0.3,0.9-0.5,1.3c-0.3,0.9-0.7,1.9-1,2.8c-0.4,0.9-0.8,1.8-1.1,2.8c-0.6,1.5-1.2,3-1.8,4.5
	c-0.5,1.6-1.1,3.1-1.7,4.6c-1.3,2.6-2,5.4-3.2,8c-1.2,3.3-2.5,6.7-3.9,9.9c-0.8,2.2-1.8,4.4-2.6,6.7c-0.5,1.1-0.9,2.3-1.4,3.4
	c-0.2,0.5-0.4,1.1-0.6,1.6c-0.5,1.1-0.9,2.2-1.3,3.4c-1.3,2.6-2.1,5.3-3.4,7.9c-0.5,1.2-1,2.3-1.6,3.5c-0.6,1.1-1.1,2.3-1.7,3.4
	c-1.2,2-2.1,4.2-3.5,6.1c-0.5,1-1.1,1.9-1.7,2.8c-0.8,1.3-1.6,2.5-2.6,3.7c-0.3,0.4-0.6,0.8-0.9,1.2c-0.5,0.8-1.1,1.5-1.7,2.1
	c-0.3,0.4-0.6,0.8-0.9,1.1c-0.3,0.3-0.5,0.6-0.8,0.9c-0.3,0.3-0.6,0.7-0.9,1c-0.3,0.3-0.6,0.6-0.9,0.9c-0.3,0.3-0.6,0.5-0.9,0.8
	c-0.3,0.3-0.5,0.5-0.8,0.8c-1.2,0.9-2.3,2-3.5,2.9c-0.6,0.4-1.2,0.8-1.8,1.2c-0.3,0.2-0.5,0.4-0.8,0.5c-0.3,0.2-0.6,0.4-0.9,0.5
	c-0.3,0.2-0.6,0.4-0.9,0.5c-0.3,0.1-0.5,0.3-0.8,0.4c-0.5,0.4-1.1,0.6-1.8,0.8c-0.3,0.1-0.5,0.3-0.8,0.4c-0.3,0.1-0.6,0.2-0.9,0.3
	c-0.3,0.1-0.5,0.2-0.8,0.3s-0.6,0.1-0.9,0.2c-0.7,0.4-1.7,0.6-2.5,0.6c-0.6,0.2-1.1,0.3-1.7,0.3c-0.3,0.1-0.6,0.1-0.9,0.1
	c-0.4,0.2-0.7,0.2-1.1,0c-0.2-0.1-0.3-0.2-0.4-0.3c-0.2-0.1-0.4-0.3-0.5-0.5c-0.2-0.2-0.4-0.4-0.5-0.6c-0.2-0.3-0.4-0.5-0.6-0.8
	c-0.2-0.3-0.4-0.7-0.5-1c-0.4-0.8-0.8-1.5-1.2-2.3c-1.7-2.5-2.6-5.8-3.7-8.6c-0.1-0.5-0.3-1-0.5-1.5c-0.1-0.5-0.3-1-0.5-1.5
	c-0.2-1-0.5-1.9-0.8-2.9c-0.1-0.5-0.2-0.9-0.3-1.4c-0.1-0.8-0.3-1.7-0.4-2.5c0-0.4,0-0.8-0.1-1.1c0-0.3,0-0.7,0-1
	c0.1-0.3,0.1-0.6,0.2-0.9c0-0.2,0.1-0.4,0.2-0.7c0.1-0.1,0.2-0.3,0.3-0.4c0.3-0.4,0.7-0.7,1.1-0.9c0.3-0.1,0.5-0.2,0.8-0.3
	s0.5-0.3,0.8-0.4c0.3-0.1,0.7-0.2,1-0.3c0.7-0.3,1.4-0.5,2.2-0.7c2.6-0.9,5.2-1.8,7.9-2.6c0.4-0.2,0.8-0.4,1.3-0.6
	c0.5-0.3,0.9-0.5,1.3-0.7c0.9-0.5,1.7-1,2.5-1.6s1.6-1.3,2.3-2c0.3-0.4,0.7-0.8,1-1.2c1.2-1.8,2.3-3.7,2.8-5.9c0-0.1,0-0.3-0.1-0.4
	c-0.1-0.1-0.2-0.3-0.2-0.4c-0.1-0.4-0.3-0.8-0.5-1.2c-0.1-0.2-0.2-0.4-0.3-0.7c-0.2-0.5-0.4-1-0.6-1.5c-0.1-0.3-0.3-0.6-0.4-0.9
	c-0.1-0.3-0.3-0.6-0.4-0.9c-0.3-0.7-0.6-1.4-1-2.1c-0.1-0.4-0.3-0.8-0.5-1.1c-0.2-0.4-0.4-0.8-0.5-1.2c-1.1-2.1-1.9-4.4-3.1-6.5
	c-0.2-0.5-0.4-0.9-0.6-1.4c-0.5-1-1-1.9-1.4-2.9c-0.5-1-0.9-2-1.4-3c-0.3-0.5-0.5-1-0.7-1.5c-0.3-0.5-0.5-1.1-0.8-1.6
	c-0.5-1-1-2.1-1.5-3.1c-0.4-1.1-0.9-2.2-1.5-3.2c-0.6-1.7-1.6-3.1-2.2-4.8c-0.3-0.5-0.5-1.1-0.8-1.6c-1.5-4-3.5-8.4-5.7-12.2
	c-0.4-1-0.8-1.9-1.3-2.8c-0.4-0.9-0.8-1.8-1.2-2.7c-0.3-0.9-0.7-1.7-1.1-2.5c-0.1-0.4-0.3-0.8-0.5-1.2c-0.1-0.3-0.3-0.7-0.5-1.1
	c-0.1-0.3-0.3-0.7-0.5-1.1c-0.3-0.7-0.5-1.3-0.8-2c-0.1-0.3-0.3-0.6-0.4-0.9c-0.2-0.7-0.5-1.7-0.9-2.3c-0.1-0.4-0.2-0.8-0.4-1.2
	c0-0.3-0.2-1-0.3-1.3C604.9,629.2,605,629.1,605.3,628.9C605.5,628.8,605.2,629,605.3,628.9z"/>
<path d="M735.9,691.4c-0.1-0.3-0.3,0-0.6,0.9c-0.1,0.3-0.4,0.5-0.7,0.8c-0.5,0.5-0.9,0.9-1.4,1.4c-0.3,0.3-0.5,0.5-0.7,0.7
	c-0.5,0.4-1,0.9-1.5,1.3c-0.3,0.2-0.5,0.4-0.8,0.6c-0.8,0.4-1.7,1-2.4,1.5c-0.6,0.3-1.1,0.6-1.7,0.8c-0.3,0.1-0.5,0.2-0.8,0.3
	s-0.6,0.3-0.9,0.4c-0.3,0.1-0.5,0.1-0.8,0.2c-0.9,0.5-2.5,0.8-3.5,0.8c-0.3,0.1-0.6,0.1-0.9,0.1c-0.6,0.1-1.2,0.1-1.8,0.1
	c-0.3,0.1-0.6,0.1-0.9,0c-0.6,0-1.1,0-1.7,0c-0.3-0.1-0.6-0.1-0.9-0.1c-0.3-0.1-0.6-0.1-0.9-0.2c-0.9,0-1.8-0.3-2.6-0.5
	c-0.6-0.2-1.2-0.4-1.8-0.6c-0.3-0.1-0.5-0.2-0.8-0.3s-0.6-0.3-0.9-0.4c-0.8-0.4-1.6-0.8-2.4-1.2c-0.3-0.2-0.5-0.4-0.8-0.5
	c-0.3-0.2-0.5-0.4-0.8-0.5c-0.3-0.2-0.5-0.4-0.8-0.6c-0.6-0.3-1.1-0.7-1.5-1.1c-0.8-0.6-1.6-1.2-2.2-2c-0.2-0.2-0.4-0.4-0.7-0.7
	c-0.2-0.3-0.4-0.5-0.7-0.8c-0.7-0.7-1.3-1.6-1.8-2.4c-0.2-0.3-0.4-0.5-0.6-0.8c-0.2-0.3-0.4-0.6-0.6-0.9c-0.1-0.3-0.3-0.6-0.5-0.9
	c-0.2-0.3-0.4-0.7-0.5-1c-0.4-0.6-0.7-1.2-1-1.9c-0.5-1.4-1.2-2.8-1.5-4.3c-0.1-0.3-0.3-0.7-0.4-1.1c-0.1-0.4-0.1-0.8-0.2-1.1
	c-0.5-1.6-0.6-3.3-0.9-4.9c0-0.4,0-0.8-0.1-1.3c0-0.4,0-0.8-0.1-1.3c0-1.8-0.1-3.6,0.1-5.4c0-0.5,0-0.9,0.1-1.4
	c0-1.5,0.3-2.9,0.5-4.4c0.1-0.6,0.3-1.2,0.4-1.7c0.2-1.5,0.6-3.2,1.2-4.6c0.1-0.5,0.3-1,0.5-1.5c0.5-1.7,1.4-3.8,2.4-5.3
	c0.2-0.4,0.4-0.8,0.7-1.2c0.2-0.4,0.4-0.8,0.7-1.1c0.3-0.4,0.5-0.8,0.8-1.1c1.2-1.8,2.7-3.3,4.2-4.8c0.3-0.3,0.7-0.5,1-0.8
	c0.6-0.6,1.2-1.1,1.9-1.5c0.9-0.7,2-1.3,3-1.9c0.4-0.2,0.8-0.4,1.1-0.5c0.3-0.2,0.7-0.4,1.1-0.5c0.3-0.1,0.7-0.3,1-0.5
	c0.4-0.1,0.8-0.3,1.1-0.4c0.7-0.2,1.5-0.4,2.2-0.6c1.4-0.5,3-0.8,4.5-0.8c0.3-0.1,0.7-0.1,1.1-0.1c1.3-0.3,3.1-0.3,4.4,0
	c0.4,0,0.8,0,1.1,0.1c1.1,0,2.2,0.3,3.3,0.5c1,0.4,2.1,0.6,3.1,1c0.7,0.2,1.4,0.4,2,0.7c0.3,0.2,0.7,0.4,1,0.5
	c0.6,0.3,1.2,0.7,1.8,1c0.3,0.2,0.6,0.4,0.9,0.6c0.6,0.4,1.2,0.8,1.7,1.2c0.5,0.7,0.7,1,0.8,0.7c0.2-1.3,0.4-2.6,0.5-3.9
	c0.1-0.4,0.2-0.8,0.3-1.3c0-0.3,0.1-0.5,0.3-0.6c0.3-0.2,0.7-0.3,1.1-0.3c0.3-0.1,0.7-0.1,1-0.1c2.9-0.5,6.5-0.3,9.4,0
	c0.6,0,1.2,0,1.9,0.1c2.6,0,6.1,0.2,8.6,1.2c0.3,0.1,0.5,0.1,0.7,0.2c0.1,0.1,0.3,0.3,0.4,0.4l0.1,0.1c0,1.4,0.2,3-0.1,4.4
	c0,0.4,0,0.8,0,1.1c-0.1,0.8-0.1,1.6-0.2,2.4c0,0.4,0,0.8,0,1.3c-0.1,1-0.1,1.9-0.2,2.9c0,0.5,0,1.1,0,1.6c-0.1,1.1-0.1,2.3-0.2,3.4
	c0,0.6,0,1.2,0,1.7c-0.2,1.9,0,3.9-0.2,5.8c0,2.9,0,5.7,0,8.6c0.2,2.1,0,4.1,0.2,6.2c0,0.7,0,1.3,0,2c0.1,1.3,0.1,2.5,0.2,3.8
	c0,0.6,0,1.2,0.1,1.7c0,0.6,0,1.2,0,1.8c0.1,0.5,0.1,1.1,0.1,1.6c0.1,0.5,0.1,1.1,0.1,1.6c0.1,0.5,0.1,1,0.1,1.5
	c0.1,0.5,0.1,1,0.1,1.5c0.1,0.5,0.1,0.9,0.1,1.4c0.1,0.8,0.1,1.7,0.2,2.5c0,0.4,0,0.8,0.1,1.2c0,0.4,0,0.8,0,1.1
	c0.1,0.7,0.1,1.3,0.2,2c0,0.6,0,1.1,0.1,1.7c0,0.9,0.3,2.5-0.1,3.3c0,0.1,0,0.2,0,0.3s-0.1,0.2-0.2,0.3c-0.1,0.1-0.3,0.1-0.4,0.2
	c-0.3,0.1-0.5,0.1-0.7,0.1c-0.3,0.1-0.7,0.1-1,0.2c-0.3,0-0.7,0-1.1,0.1c-0.5,0-0.9,0-1.3,0c-3.7,0.5-8.1,0.4-11.8,0
	c-0.6,0-1.2,0-1.7-0.1c-0.6,0-1.2,0-1.7,0c-0.5-0.1-1-0.1-1.5-0.1c-0.5-0.1-0.9-0.1-1.4-0.1c-0.4-0.1-0.8-0.1-1.2-0.1
	c-0.3-0.1-0.7-0.1-1-0.2c-0.3,0-0.5,0-0.8-0.1c-0.2-0.1-0.4-0.1-0.6-0.1c-0.1-0.1-0.2-0.1-0.3-0.2c-0.2-0.2-0.3-0.4-0.4-0.7
	c-0.1-0.3-0.2-0.5-0.3-0.8c-0.1-0.4-0.2-0.8-0.2-1.1c-0.1-0.5-0.1-0.9-0.1-1.3c0.1-0.5,0.1-1,0.1-1.5c-0.1-0.5-0.1-1.1,0-1.6
	C736,692.4,736,691.8,735.9,691.4C735.8,691.1,736,691.8,735.9,691.4z M726.4,653c-0.9-0.1-1.7-0.1-2.6-0.1
	c-0.9,0.2-1.7,0.4-2.5,0.7c-1.1,0.5-2.3,1.3-3.1,2.3c-0.6,0.6-1.2,1.3-1.7,2.1s-0.9,1.6-1.2,2.4c-0.1,0.4-0.3,0.8-0.4,1.3
	c-0.2,1.3-0.3,2.6-0.3,4c0.2,1.2,0.6,2.7,1.2,3.7c0.3,0.4,0.5,0.8,0.7,1.1c0.9,1.4,2.2,2.6,3.7,3.5c0.7,0.4,1.4,0.8,2.2,1
	c2.1,0.7,4.4,0.4,6.4-0.5c0.5-0.1,0.9-0.3,1.3-0.5c0.4-0.3,0.8-0.5,1.2-0.8c0.4-0.2,0.8-0.5,1.1-0.8c0.7-0.6,1.4-1.2,1.9-2
	c0.8-1,1.4-2.4,1.8-3.6c0.1-0.9,0.3-1.9,0.4-2.8c0-0.9-0.1-1.9-0.3-2.8c-0.1-0.5-0.3-0.9-0.4-1.3c-0.2-0.4-0.4-0.8-0.6-1.2
	c-0.2-0.3-0.4-0.7-0.7-1.1c-0.6-0.6-1.2-1.2-1.8-1.8c-0.4-0.3-0.8-0.6-1.1-0.8c-0.8-0.5-1.6-0.9-2.5-1.3
	C728.2,653.4,727.3,653.1,726.4,653C726,652.9,726.8,653,726.4,653z"/>
<path d="M550,601.9c-4.2,0-7.4,10.1-14.2,9.8s-6.8-6.1-6.8-8.3c0-4.7,4.7-12.5,7.2-15.4s6.2-6.7,13.5-6.7c10.1,0,12,10.3,20,10.3
	c4.6,0,8.1-12.5,16.8-12.5c15.5,0,5.2,16.8,3.6,19.3c-2.6,4.1-10.3,14.7-20.7,14.7C559,613,557,601.9,550,601.9"/>
<path d="M721.1,601.9c-4.2,0-7.4,10.1-14.2,9.8s-6.8-6.1-6.8-8.3c0-4.7,4.7-12.5,7.2-15.4s6.2-6.7,13.5-6.7c10.1,0,12,10.3,20,10.3
	c4.6,0,8.1-12.5,16.8-12.5c15.5,0,5.2,16.8,3.6,19.3c-2.6,4.1-10.3,14.7-20.7,14.7C730.1,613,728.1,601.9,721.1,601.9"/>
<g>
	<path fill="#F1CC5A" d="M423.9,729.6H270.6c-12.8,0-23.2-10.4-23.2-23.2v-128c0-12.8,10.4-23.2,23.2-23.2h153.3
		c12.8,0,23.2,10.4,23.2,23.2v128C447.1,719.1,436.7,729.6,423.9,729.6z"/>
	<path fill="#FFEDBB" d="M412.5,714.7H282c-12.8,0-23.2-10.4-23.2-23.2v-97.9c0-12.8,10.4-23.2,23.2-23.2h130.6
		c12.8,0,23.2,10.4,23.2,23.2v97.9C435.7,704.3,425.3,714.7,412.5,714.7z"/>
</g>
</svg>
