<?xml version="1.0" encoding="utf-8"?>
<!-- Generator: Adobe Illustrator 18.0.0, SVG Export Plug-In . SVG Version: 6.00 Build 0)  -->
<!DOCTYPE svg PUBLIC "-//W3C//DTD SVG 1.0//EN" "http://www.w3.org/TR/2001/REC-SVG-20010904/DTD/svg10.dtd">
<svg version="1.0" id="Camada_1" xmlns="http://www.w3.org/2000/svg" xmlns:xlink="http://www.w3.org/1999/xlink" x="0px" y="0px"
	 viewBox="0 0 1024 768" enable-background="new 0 0 1024 768" xml:space="preserve">
<image overflow="visible" width="1500" height="1500" xlink:href="../../../Desenhos Jogo Yegatu/png2/sapukaya.png"  transform="matrix(0.5172 0 0 0.5172 123.2822 -106.8124)">
</image>
<g enable-background="new    ">
	<path d="M383.6,744.6L383.6,744.6c-0.2-0.2-0.2-0.2-0.3-0.3c-0.1-0.1-0.1-0.2-0.1-0.3c-0.2-0.2-0.3-0.5-0.3-0.8
		c-0.1-0.1-0.1-0.3-0.2-0.4c0-0.2,0-0.4-0.1-0.5c-0.1-0.4-0.1-0.8-0.2-1.2c-0.1-0.3-0.1-0.5-0.1-0.7c-0.1-0.3-0.1-0.5-0.1-0.8
		c-0.1-0.2-0.1-0.4-0.1-0.7c-0.1-0.3-0.1-0.6-0.1-0.9c-0.1-0.6-0.1-1.2-0.2-1.8c0-0.3,0-0.7,0-1c-0.1-0.3-0.1-0.7-0.1-1
		c-0.1-0.7-0.1-1.5-0.1-2.2c-0.1-0.8-0.1-1.5-0.1-2.3c-0.2-1.3,0-2.5-0.2-3.8c0-1.8,0.2-3.8-0.1-5.6c0-4.1,0-8.2,0-12.4
		c0.3-2.8-0.1-5.6,0.2-8.4c0-1.7,0-3.5,0-5.2c0.2-1.7,0-3.5,0.2-5.2c0-1.2,0-2.4,0.1-3.6c0-1.2,0-2.3,0.1-3.5c0-1.2,0-2.3,0.1-3.5
		c0-1.2,0-2.5,0-3.7c0.2-2.2,0.2-4.7,0-7c0-1.6,0.1-3.3-0.1-5c0-1.1,0-2.1-0.1-3.2c0-0.5,0-1,0-1.5c-0.1-1-0.1-2-0.2-3
		c0-0.5,0-1-0.1-1.5c0-0.5,0-0.9,0-1.4c-0.1-0.5-0.1-0.9-0.1-1.4c-0.1-0.9-0.1-1.8-0.2-2.7c0-0.4,0-0.8-0.1-1.3c0-0.4,0-0.8,0-1.2
		c-0.1-0.4-0.1-0.8-0.1-1.2c-0.1-0.8-0.1-1.5-0.2-2.3c0-0.4,0-0.8,0-1.1c-0.2-1,0-2-0.2-3c0-1.6-0.4-3.9,0.1-5.5c0-0.2,0-0.4,0-0.6
		c0.1-0.3,0.1-0.7,0.2-1c0.2-0.4,0.4-0.7,0.8-0.9c0.3-0.1,0.5-0.3,0.8-0.4c0.8-0.2,1.5-0.4,2.3-0.6c1.5-0.2,3-0.5,4.6-0.5
		c0.6-0.1,1.2-0.1,1.7-0.2c0.6,0,1.2,0,1.8,0c1.8-0.2,3.6-0.1,5.4-0.1c1.1,0.1,2.2,0.1,3.3,0.2c0.5,0,1,0,1.5,0.1
		c0.8,0.1,1.7,0.1,2.5,0.2c0.3,0.1,0.6,0.1,0.9,0.2c0.2,0.1,0.4,0.1,0.7,0.2c0.1,0.1,0.3,0.1,0.4,0.2c0.3,0.2,0.6,0.4,0.8,0.7
		c0.2,0.2,0.3,0.4,0.4,0.7c0,0.3,0,0.6-0.1,0.9c0.1,0.5,0,1-0.1,1.5c-0.4,1-0.5,1.8-0.2,2.5c0.1,0.3,0.4,0,1.1-0.8
		c0.3-0.3,0.6-0.5,1.1-0.7c0.3-0.2,0.7-0.4,1.1-0.7c0.3-0.3,0.7-0.5,1.1-0.6c0.3-0.2,0.7-0.4,1.1-0.6c0.3-0.2,0.7-0.4,1.1-0.6
		c0.3-0.1,0.7-0.3,1.1-0.5c0.8-0.2,1.5-0.5,2.2-0.9c0.8-0.2,1.5-0.4,2.2-0.7c0.4-0.1,0.8-0.2,1.1-0.3c1.4-0.2,2.9-0.7,4.4-0.7
		c0.4-0.1,0.8-0.1,1.1-0.1c1-0.2,2.2-0.1,3.2-0.1c0.9,0.2,2.1,0.3,3.1,0.3c1,0.2,2.1,0.3,3.1,0.7c0.3,0.1,0.6,0.2,0.9,0.3
		c0.7,0.2,1.3,0.4,2,0.6c0.6,0.2,1.2,0.5,1.8,0.9c0.3,0.1,0.6,0.3,0.9,0.4c0.3,0.2,0.6,0.4,0.9,0.5c0.3,0.2,0.6,0.4,0.9,0.6
		c0.9,0.4,1.8,1.1,2.5,1.8c0.3,0.2,0.5,0.4,0.8,0.6c0.3,0.3,0.5,0.5,0.8,0.7c0.3,0.3,0.5,0.5,0.8,0.7c0.3,0.3,0.5,0.5,0.7,0.8
		c0.3,0.3,0.5,0.5,0.7,0.8c0.3,0.3,0.5,0.5,0.7,0.8c0.3,0.3,0.5,0.6,0.7,0.9c0.4,0.6,0.8,1.2,1.3,1.8c0.2,0.3,0.4,0.6,0.6,0.9
		c0.3,0.7,0.7,1.4,1.1,2c0.1,0.3,0.3,0.7,0.5,1c0.1,0.4,0.3,0.8,0.4,1.1c0.9,1.6,1.7,3.9,2,5.7c0.1,0.4,0.2,0.8,0.3,1.2
		c0.5,1.7,0.6,3.5,0.9,5.2c0,0.5,0,0.9,0.1,1.3c0,0.5,0,0.9,0.1,1.4c0,2,0,3.9,0,5.9c-0.1,0.5-0.1,1.1-0.2,1.6c0,1-0.1,2-0.3,3
		c-0.3,1.4-0.7,2.9-0.9,4.3c-0.2,0.9-0.5,1.8-0.8,2.7c-0.5,1.2-1.1,2.5-1.5,3.8c-0.4,0.8-0.8,1.5-1.2,2.3c-0.2,0.4-0.4,0.8-0.6,1.1
		c-0.7,1-1.5,2-2.1,3.1c-0.3,0.3-0.5,0.7-0.8,1c-0.3,0.3-0.5,0.6-0.8,0.9c-0.2,0.3-0.5,0.6-0.8,0.9c-0.5,0.5-1.1,1.1-1.6,1.6
		c-1.2,1-2.3,2-3.7,2.8c-0.9,0.6-1.9,1.3-2.9,1.7c-0.3,0.2-0.7,0.4-1,0.5c-0.9,0.6-2,0.9-3,1.3c-0.3,0.1-0.7,0.2-1.1,0.3
		c-0.3,0.1-0.7,0.2-1,0.3c-0.3,0.1-0.7,0.1-1.1,0.2c-0.3,0.1-0.7,0.2-1,0.3c-0.7,0-1.5,0.1-2.2,0.3c-0.3,0-0.7,0-1,0.1
		c-1.4,0-2.9,0.2-4.3-0.1c-0.7-0.1-1.5-0.1-2.2-0.2c-0.3-0.1-0.7-0.1-1-0.2c-0.7-0.2-1.4-0.4-2.1-0.6c-0.3-0.1-0.7-0.2-1-0.3
		c-1-0.2-2.2-0.7-3.1-1.2c-0.3-0.1-0.7-0.3-1-0.5c-0.6-0.3-1.3-0.7-1.9-1.1c-0.4-0.1-0.7-0.3-0.9-0.6c-1-1-1.2-0.8-0.8,0.6
		c0.4,2.2,0.5,4.8,0.5,7.1c0.1,0.5,0.1,1.1,0.1,1.6c0.1,0.5,0.1,1,0.1,1.5c0.1,0.5,0.1,1.1,0.1,1.6c0.1,0.5,0.1,1.1,0.1,1.6
		c0.1,0.5,0.1,1.1,0.1,1.6c0.1,0.5,0.1,1.1,0.1,1.6c0.1,1.1,0.1,2.1,0.2,3.2c0,0.5,0,1.1,0.1,1.6c0,0.5,0,1.1,0,1.6
		c0.1,1.1,0.1,2.1,0.2,3.2c0,1,0,2,0,3c0.3,2.2,0.1,4.6,0.1,6.9c-0.1,0.8-0.1,1.6-0.1,2.4c-0.1,0.7-0.1,1.4-0.2,2.1
		c0,0.3,0,0.7-0.1,1c0,0.3,0,0.6-0.1,0.9c0,0.3,0,0.5-0.1,0.8c-0.1,0.2-0.1,0.4-0.2,0.7c0,0.2,0,0.4-0.1,0.6
		c-0.1,0.1-0.1,0.3-0.2,0.5c-0.1,0.3-0.3,0.5-0.5,0.7c-0.1,0.1-0.1,0.1-0.2,0.2c-1.6,1-4,1.7-5.9,2c-0.5,0.1-0.9,0.2-1.4,0.3
		c-1.8,0.5-3.8,0.6-5.7,0.9c-0.5,0-1,0-1.5,0.1c-0.5,0-0.9,0-1.4,0.1c-1.4,0-2.7,0.1-4.1-0.1c-0.8,0-1.7-0.1-2.5-0.3
		c-0.4,0-0.8-0.1-1.1-0.2c-0.3-0.1-0.7-0.1-1.1-0.2c-0.3-0.1-0.6-0.2-0.9-0.3C384.7,745.2,384.2,744.9,383.6,744.6z M422,675.2
		c0.4,0.1,0.8,0.2,1.3,0.2c1.7,0.3,3.4-0.6,4.8-1.4c0.8-0.5,1.4-1,2-1.7c0.3-0.3,0.6-0.7,0.9-1c0.4-0.7,0.8-1.5,1.2-2.2
		c0.1-0.4,0.2-0.8,0.3-1.2c0.1-0.4,0.2-0.8,0.2-1.2c0.1-0.4,0.1-0.8,0-1.3c0-0.9-0.1-1.8-0.4-2.7c-0.1-0.5-0.2-0.9-0.4-1.4
		c-0.1-0.5-0.3-0.9-0.6-1.3c-0.6-1.2-1.5-2.4-2.6-3.1c-0.3-0.3-0.7-0.5-1.1-0.7c-0.5-0.1-0.9-0.2-1.4-0.3c-2.2-0.6-4.9,0.2-6.8,1.4
		c-1.6,0.9-2.6,2.2-3.7,3.6c-0.2,0.3-0.4,0.7-0.6,1.1c-0.7,1.7-1,3.4-0.7,5.3c0.2,0.9,0.5,1.8,1,2.7c0.2,0.4,0.4,0.8,0.7,1.2
		c0.5,0.7,1.1,1.4,1.8,1.9c0.6,0.5,1.3,0.9,2,1.3C420.6,674.8,421.3,675,422,675.2C422.4,675.4,421.7,675.2,422,675.2z"/>
	<path d="M526.6,629.1c0.2,0.1,0.3,0.3,0.3,0.5c0.1,0.1,0.1,0.3,0.2,0.4c0,0.5,0.2,1.4,0.3,1.9c0,0.3,0,0.5,0,0.8
		c0.1,0.6,0.1,1.3,0.1,1.9c0.5,2.8,0.3,6.4,0,9.2c0,1.6,0,3.2,0,4.8c-0.3,2.2-0.1,4.5-0.1,6.8c-0.4,3.5-0.1,7.2-0.1,10.7
		c0.1,1.2,0.1,2.4,0.1,3.6c0.1,1.2,0.1,2.4,0.2,3.6c0,0.5,0,1.1,0.1,1.7c0.1,1.2,0.1,2.3,0.2,3.5c0.1,0.6,0.1,1.2,0.2,1.7
		c0.1,1.1,0.1,2.2,0.2,3.3c0.1,0.5,0.1,1.1,0.2,1.6c0.1,1,0.1,2,0.2,3c0.1,0.5,0.1,0.9,0.1,1.4c0.1,0.5,0.1,0.9,0.2,1.4
		c0,0.4,0,0.8,0.1,1.3c0,0.4,0,0.8,0.1,1.2c0,0.4,0,0.8,0,1.1c0.1,0.7,0.1,1.4,0.2,2.1c0,0.9,0.2,2-0.1,2.9c0,0.2,0,0.4,0,0.5
		c-0.1,0.1-0.1,0.3-0.1,0.4c-0.1,0.1-0.1,0.1-0.2,0.2c0,0.1-0.1,0.1-0.2,0.1c-0.1,0.1-0.3,0.1-0.4,0.1c-0.6,0.1-1.1,0.2-1.7,0.2
		c-0.4,0-0.8,0-1.1,0c-1,0.1-1.9,0.1-2.9,0.1c-3.7,0.5-8.2,0.5-12,0c-1,0-2.1,0-3.1-0.1c-0.5,0-0.9,0-1.4,0
		c-0.4-0.1-0.8-0.1-1.2-0.1c-0.3-0.1-0.7-0.1-1-0.1c-0.3-0.1-0.5-0.1-0.8-0.2c-0.1,0-0.3,0-0.5-0.1c-0.3-0.1-0.6-0.3-0.9-0.4
		c-0.4-0.2-0.7-0.6-0.8-1.1c-0.1-0.5-0.2-1-0.1-1.5c0.1-0.9,0.2-1.7,0.1-2.5c-0.1-0.3-0.3,0-0.6,0.7c-0.1,0.2-0.3,0.4-0.6,0.7
		c-0.2,0.2-0.4,0.4-0.7,0.6c-0.7,0.7-1.5,1.2-2.3,1.8c-0.3,0.1-0.6,0.3-0.9,0.5c-0.3,0.1-0.6,0.3-0.9,0.4c-0.6,0.4-1.3,0.6-2,0.8
		c-0.3,0.1-0.7,0.3-1,0.4c-0.4,0.1-0.8,0.2-1.1,0.3c-1.1,0.2-2.3,0.4-3.4,0.6c-0.3,0-0.7,0-1.1,0.1c-1.2,0-2.4,0.1-3.6-0.1
		c-1.2,0-2.5-0.3-3.7-0.5c-0.4-0.1-0.8-0.2-1.2-0.3c-0.8-0.3-1.6-0.5-2.4-0.8c-0.4-0.2-0.8-0.4-1.2-0.5c-0.4-0.2-0.8-0.4-1.1-0.6
		c-0.8-0.4-1.6-0.8-2.3-1.3c-0.4-0.3-0.8-0.5-1.1-0.8c-0.4-0.3-0.8-0.5-1.1-0.8c-1-1-2.1-1.9-3.1-3c-0.6-0.7-1.2-1.5-1.8-2.3
		c-0.5-0.9-1-1.8-1.6-2.7c-0.3-0.5-0.5-0.9-0.7-1.4c-0.8-1.3-1.3-2.8-1.9-4.2c-0.1-0.5-0.3-1-0.5-1.5c-0.1-0.5-0.3-1-0.4-1.5
		c-0.4-0.9-0.7-1.9-0.8-2.9c-0.1-0.5-0.3-1.1-0.4-1.6c-0.1-0.5-0.2-1-0.3-1.5c-0.3-2-0.5-4.1-0.8-6.1c0-0.5,0-1-0.1-1.5
		c0-0.5,0-1-0.1-1.5c0-1,0-2.1,0-3.1c-0.1-0.5-0.1-1,0-1.5c0-1,0-2,0-3c0.1-0.5,0.1-0.9,0.1-1.4c0.1-0.5,0.1-1,0.1-1.5
		c0.1-0.5,0.1-0.9,0.2-1.4c0-3,0.8-6.2,1.3-9.2c0.2-0.8,0.4-1.6,0.5-2.4c0.2-0.7,0.4-1.4,0.6-2.1c0.1-0.3,0.2-0.7,0.3-1.1
		c0.1-0.3,0.1-0.6,0.2-0.9c0.1-0.3,0.2-0.7,0.3-1c0.2-0.6,0.4-1.1,0.6-1.7c0.1-0.2,0.2-0.4,0.3-0.7c0.1-0.3,0.2-0.5,0.3-0.7
		c0.1-0.3,0.1-0.5,0.2-0.7c0.1-0.2,0.2-0.4,0.3-0.6c0.1-0.1,0.2-0.3,0.3-0.5c0.1-0.1,0.1-0.3,0.2-0.5c0.1-0.1,0.2-0.3,0.3-0.4
		c0.1-0.1,0.1-0.2,0.2-0.3c0.1-0.1,0.4-0.5,0.6-0.5c1-0.3,2-0.4,3.1-0.6c0.5,0,0.9,0,1.4-0.1c0.5,0,1.1,0,1.6-0.1
		c0.5,0,1.1,0,1.6-0.1c2.1,0,4.4-0.2,6.5,0.1c0.5,0,0.9,0,1.4,0c0.4,0.1,0.8,0.1,1.1,0.1c0.3,0.1,0.7,0.1,1,0.2c0.3,0,0.5,0,0.7,0.1
		c0.1,0.1,0.3,0.1,0.4,0.2c0,0.6,0.1,1.3-0.1,1.9c0,0.3,0,0.5-0.1,0.7c0,0.3,0,0.5-0.1,0.8c0,0.3,0,0.6-0.1,0.9
		c-0.1,0.7-0.1,1.4-0.2,2.1c-0.2,0.8-0.3,1.5-0.3,2.3c-0.2,0.9-0.3,1.7-0.3,2.6c-0.1,0.5-0.1,0.9-0.2,1.4c-0.1,1-0.1,1.9-0.2,2.9
		c-0.1,0.5-0.1,1-0.2,1.5c0,0.5,0,1-0.1,1.5c0,0.5,0,1,0,1.5c-0.1,1-0.1,2.1-0.1,3.1c-0.1,1.1-0.1,2.1-0.1,3.2
		c0.1,1,0.1,2.1,0.2,3.1c0,0.5,0,1,0.1,1.5c0,1.4,0.2,2.9,0.6,4.3c0.1,0.5,0.1,0.9,0.2,1.4c0.5,1.6,0.8,3.5,1.7,4.9
		c0.5,1,1.1,2.2,1.9,3c0.4,0.6,1,1.1,1.6,1.5c0.9,0.7,1.9,1.1,2.9,1.5c0.8,0.1,1.6,0.3,2.4,0.4c0.3,0,0.7,0,1.1-0.1
		c0.3,0,0.7,0,1-0.1c0.6-0.2,1.3-0.5,1.9-0.8c0.9-0.6,1.7-1.2,2.4-2.1c0.3-0.3,0.5-0.7,0.7-1c0.3-0.3,0.5-0.7,0.7-1
		c0.2-0.4,0.4-0.8,0.6-1.2c0.4-1.3,1-2.5,1.4-3.8c0.2-0.5,0.4-1,0.5-1.5c0.2-1,0.4-2,0.7-3c0.1-0.5,0.2-1.1,0.3-1.6
		c0.1-1.1,0.3-2.1,0.5-3.2c0.2-1.1,0.3-2.3,0.3-3.4c0.2-1.1,0.3-2.2,0.3-3.3c0.1-0.5,0.1-1.1,0.1-1.7c0.1-0.5,0.1-1.1,0.1-1.6
		c0.1-1.1,0.1-2.1,0.2-3.2c0-1,0-2.1,0.1-3.1c0-1.8,0-3.5,0-5.3c0.3-1.6-0.2-3.3,0.2-4.8c0-0.4,0-0.7,0.1-1.1c0-0.1,0-0.3,0-0.4
		c0.1-0.1,0.1-0.1,0.1-0.2c0.1-0.1,0.2-0.1,0.3-0.2c0.3-0.1,0.5-0.1,0.7-0.1c0.7-0.2,1.4-0.3,2.1-0.4c1-0.1,1.9-0.1,2.9-0.2
		c0.5-0.1,1.1-0.1,1.7-0.1c1.2-0.1,2.3-0.1,3.5-0.2c1.7,0,3.4,0,5.1,0c1.3,0.2,2.8,0.3,4.1,0.3c0.3,0.1,0.6,0.1,0.9,0.2
		C526.2,629,526.4,629.1,526.6,629.1C526.6,629.2,526.4,629.1,526.6,629.1z"/>
	<path d="M539.5,586.4c0.2-0.2,0.4-0.4,0.7-0.5c0.3-0.1,0.6-0.3,0.9-0.4c0.8-0.2,1.5-0.4,2.3-0.6c1.9-0.5,3.9-0.7,5.9-0.9
		c0.5,0,1.1,0,1.6-0.1c0.6,0,1.2,0,1.7,0c1.6-0.2,3.4-0.2,5,0c0.5,0,1.1,0,1.6,0c0.5,0.1,1,0.1,1.5,0.1c0.5,0.1,1,0.1,1.5,0.1
		c1.5,0.2,2.9,0.4,4.4,0.8c0.4,0.1,0.8,0.3,1.2,0.6c0.1,0.1,0.2,0.2,0.3,0.3c0.1,0.1,0.1,0.2,0.2,0.3c0.2,0.2,0.3,0.4,0.4,0.7
		c0.1,0.2,0.1,0.4,0.1,0.5c0.1,0.2,0.1,0.4,0.1,0.5c0.1,0.2,0.1,0.4,0.1,0.6c0.4,1.2,0.1,3,0.1,4.3c-0.1,0.6-0.1,1.2-0.2,1.8
		c0,0.3,0,0.6-0.1,0.9c-0.1,0.7-0.1,1.4-0.2,2.1c-0.1,0.7-0.3,1.4-0.4,2.1c0,1.6-0.5,3.2-0.7,4.8c-0.4,1.2-0.5,2.5-0.7,3.8
		c-0.2,0.9-0.4,1.8-0.5,2.7c-0.2,0.9-0.4,1.9-0.6,2.8c-0.1,0.5-0.1,1-0.2,1.5c-0.2,1-0.4,1.9-0.6,2.9c-0.1,0.5-0.1,1-0.2,1.5
		c-0.2,1-0.4,2-0.6,3c-0.1,0.5-0.1,1.1-0.2,1.6c-0.2,1-0.4,2.1-0.6,3.1c-0.1,1.1-0.3,2.1-0.5,3.2c-0.1,1.1-0.3,2.1-0.5,3.2
		c-0.4,3.3-0.8,6.6-1.2,9.9c0,1.1-0.1,2.2-0.3,3.3c0,0.5,0,1.1-0.1,1.7c-0.1,1.1-0.1,2.2-0.2,3.3c-0.3,0.9-0.4,1.5-0.1,1.6
		c0.3,0.2,0.8-0.1,1.3-1c0.3-0.5,0.7-0.8,1.2-1c0.4-0.4,0.8-0.8,1.2-1.2c1.2-1,2.5-2.2,3.5-3.5c2.1-2.4,4.2-4.8,6-7.5
		c0.6-0.8,1.1-1.5,1.7-2.3c0.3-0.4,0.5-0.8,0.8-1.1c0.2-0.3,0.4-0.7,0.7-1.1c0.2-0.3,0.4-0.6,0.7-0.9c0.7-1.1,1.5-2,2.2-3.1
		c0.1-0.1,0.3-0.3,0.4-0.5c0.1-0.1,0.3-0.3,0.4-0.4c0.1-0.1,0.2-0.2,0.3-0.3c0.1-0.1,0.2-0.1,0.3-0.1c0.2-0.1,0.4-0.1,0.7-0.2
		c3,0,5.8,0.5,8.7,1.2c0.5,0.1,1,0.2,1.5,0.3c1.1,0.3,2.1,0.7,3.2,1c0.5,0.1,1.1,0.3,1.6,0.5c1.1,0.3,2.1,0.7,3.1,1.1
		c1.5,0.4,2.8,1.1,4.2,1.7c0.8,0.3,1.5,0.7,2.2,1.1c0.3,0.2,0.6,0.4,0.9,0.6c0.3,0.1,0.5,0.3,0.7,0.5c0.2,0.1,0.4,0.3,0.6,0.5
		c0.1,0.1,0.3,0.3,0.4,0.5c0.1,0.2,0.1,0.5,0.1,0.7c-0.1,0.3-0.3,0.7-0.4,1c-0.1,0.1-0.2,0.3-0.3,0.5c-0.1,0.2-0.3,0.4-0.5,0.6
		c-0.1,0.2-0.3,0.4-0.5,0.7c-0.4,0.5-0.8,0.9-1.2,1.4c-0.3,0.3-0.5,0.5-0.8,0.8c-0.7,0.9-1.7,1.9-2.6,2.6c-0.3,0.3-0.7,0.7-1,1
		c-0.3,0.3-0.7,0.6-1,0.9c-0.4,0.3-0.8,0.7-1.1,1c-0.4,0.3-0.8,0.7-1.1,1c-0.4,0.3-0.8,0.6-1.2,0.9c-1.2,1-2.4,2.1-3.7,3
		c-0.4,0.3-0.8,0.7-1.2,1c-1.3,0.9-2.6,2-3.9,2.9c-0.4,0.3-0.8,0.6-1.3,0.9c-0.4,0.3-0.8,0.5-1.2,0.8c-0.8,0.6-1.7,1.2-2.6,1.7
		c-0.4,0.3-0.8,0.5-1.2,0.8c-0.4,0.2-0.8,0.4-1.2,0.7c-0.4,0.3-0.8,0.6-1.2,0.7c-0.6,0.1-1,0.3-1.1,0.6c-0.1,0.2,0.1,0.3,0.8,0.3
		c0.3,0.1,0.7,0.2,1,0.4c0.3,0.1,0.7,0.3,1,0.5c0.3,0.1,0.7,0.3,1.1,0.5c0.8,0.4,1.5,0.8,2.3,1.2c0.5,0.3,0.9,0.5,1.3,0.7
		c0.4,0.3,0.8,0.5,1.3,0.7c0.5,0.3,0.9,0.5,1.3,0.8c0.9,0.5,1.9,1.1,2.8,1.6c0.9,0.6,1.9,1.2,2.8,1.8c0.5,0.3,0.9,0.6,1.4,0.9
		c0.5,0.3,0.9,0.6,1.4,0.9c0.9,0.6,1.8,1.2,2.7,1.8c0.5,0.3,0.9,0.7,1.4,1c0.4,0.3,0.8,0.6,1.3,0.9c0.4,0.3,0.8,0.6,1.2,0.9
		c0.4,0.3,0.8,0.6,1.2,0.9c0.4,0.3,0.8,0.6,1.2,0.9c0.3,0.3,0.7,0.5,1.1,0.8c0.3,0.3,0.7,0.6,1,0.9c0.3,0.2,0.6,0.5,0.9,0.8
		c1,0.8,2,1.8,2.8,2.8c0.3,0.3,0.5,0.7,0.7,1.1c0.1,0.1,0.1,0.3,0.2,0.4c0,0.7-0.2,1-0.6,1.6c-0.2,0.2-0.4,0.4-0.6,0.6
		c-0.3,0.3-0.5,0.5-0.8,0.7c-1.1,0.9-2.2,1.6-3.3,2.4c-1.9,1.1-3.9,2.2-5.9,3.2c-1.6,0.6-3.1,1.5-4.7,2.1c-1,0.5-2,0.9-3.1,1.3
		c-0.5,0.1-0.9,0.3-1.4,0.5c-0.4,0.1-0.8,0.3-1.3,0.5c-0.4,0.1-0.8,0.2-1.2,0.3c-0.9,0.3-2.3,0.8-3.2,0.5c-0.1,0-0.3,0-0.4-0.1
		c-0.2-0.1-0.4-0.2-0.5-0.3c-0.2-0.1-0.4-0.3-0.5-0.4c-0.2-0.2-0.4-0.4-0.6-0.5c-0.4-0.5-0.8-1-1.3-1.4c-0.6-0.5-1.1-1.1-1.6-1.7
		c-0.6-0.6-1.1-1.3-1.7-1.9c-0.3-0.3-0.6-0.7-0.9-1c-0.3-0.4-0.7-0.8-1-1.1c-0.3-0.4-0.7-0.8-1-1.1c-0.3-0.4-0.7-0.8-1-1.1
		c-0.4-0.4-0.8-0.8-1.1-1.2c-0.3-0.3-0.7-0.7-1.1-1.1c-0.4-0.3-0.8-0.7-1.2-1.1c-0.3-0.3-0.7-0.7-1.1-1.1c-0.8-0.7-1.6-1.4-2.5-2
		c-0.8-0.7-1.6-1.3-2.5-1.9c-0.8-0.5-1.7-1-2.6-1.5c-0.5-0.2-1-0.4-1.4-0.7c-0.7-0.5-1.1-0.7-1.3-0.5c-0.3,0.3-0.3,0.8,0,1.6
		c0.2,0.5,0.3,1,0.2,1.6c0.1,1.1,0.3,2.1,0.5,3.2c0.1,0.5,0.2,1.1,0.3,1.6c0.1,0.5,0.2,1,0.3,1.5c0.1,0.5,0.2,1,0.3,1.5
		c0.1,0.5,0.2,1,0.3,1.5c0.1,0.4,0.2,0.8,0.3,1.3c0.2,1.7,0.5,3.3,0.5,5.1c-0.1,0.2-0.1,0.4-0.2,0.6c-0.2,0.3-0.4,0.5-0.8,0.6
		c-1.3,0.5-2.9,0.7-4.3,0.7c-0.5,0.1-1,0.1-1.5,0.2c-0.5,0-1.1,0-1.6,0.1c-0.6,0-1.2,0-1.8,0c-3.3,0.4-7.1,0.4-10.4,0
		c-0.5,0-0.9,0-1.4,0c-0.5-0.1-0.9-0.1-1.3-0.1c-0.3-0.1-0.7-0.1-1.1-0.2c-0.3,0-0.5,0-0.8-0.1c-0.2-0.1-0.4-0.1-0.5-0.2
		c-0.1,0-0.2-0.1-0.3-0.2c0-0.1,0-0.1,0-0.2c-0.2-0.2-0.1-1.1-0.1-1.4c-0.3-0.8-0.1-1.7-0.1-2.5c-0.3-1.1-0.1-2.3-0.1-3.4
		c-0.2-1.5,0-2.9-0.2-4.4c0-1.7,0.1-3.4-0.1-5.1c0-1.9,0.1-3.9-0.1-5.8c0-2.1,0.2-4.2-0.1-6.3c0-2.8,0.2-5.7-0.1-8.5
		c0-3.6,0-7.2,0-10.8c-1-9.5-0.1-19.5-0.1-29c0.4-3.3-0.2-6.7,0.2-10c0-1.5,0-3.1,0-4.6c0.2-1.4,0-2.8,0.2-4.2c0-0.9,0-1.8,0-2.7
		c0.1-0.8,0.1-1.7,0.1-2.5c0.1-0.8,0.1-1.5,0.1-2.3c0.1-0.7,0.1-1.3,0.2-2c0-0.6,0-1.3,0.1-1.9c0-0.3,0-0.6,0-0.9
		c0.1-0.2,0.1-0.4,0.1-0.7c0-0.5,0.1-0.9,0.2-1.4c0-0.2,0-0.4,0.1-0.6c0-0.2,0-0.4,0-0.5c0.1-0.2,0.1-0.4,0.1-0.5
		c0.1-0.1,0.1-0.3,0.1-0.4c0.1-0.1,0.1-0.2,0.1-0.3c0-0.2,0.1-0.3,0.2-0.4C539.2,586.7,539.3,586.6,539.5,586.4
		C539.7,586.2,539.3,586.6,539.5,586.4z"/>
	<path d="M659.3,691.4c-0.1-0.3-0.3,0-0.6,0.9c-0.1,0.3-0.4,0.5-0.7,0.8c-0.5,0.5-0.9,0.9-1.4,1.4c-0.3,0.3-0.5,0.5-0.7,0.7
		c-0.5,0.4-1,0.9-1.5,1.3c-0.3,0.2-0.5,0.4-0.8,0.6c-0.8,0.4-1.7,1-2.4,1.5c-0.6,0.3-1.1,0.6-1.7,0.8c-0.3,0.1-0.5,0.2-0.8,0.3
		c-0.3,0.1-0.6,0.3-0.9,0.4c-0.3,0.1-0.5,0.1-0.8,0.2c-0.9,0.5-2.5,0.8-3.5,0.8c-0.3,0.1-0.6,0.1-0.9,0.1c-0.6,0.1-1.2,0.1-1.8,0.1
		c-0.3,0.1-0.6,0.1-0.9,0c-0.6,0-1.1,0-1.7,0c-0.3-0.1-0.6-0.1-0.9-0.1c-0.3-0.1-0.6-0.1-0.9-0.2c-0.9,0-1.8-0.3-2.6-0.5
		c-0.6-0.2-1.2-0.4-1.8-0.6c-0.3-0.1-0.5-0.2-0.8-0.3c-0.3-0.1-0.6-0.3-0.9-0.4c-0.8-0.4-1.6-0.8-2.4-1.2c-0.3-0.2-0.5-0.4-0.8-0.5
		c-0.3-0.2-0.5-0.4-0.8-0.5c-0.3-0.2-0.5-0.4-0.8-0.6c-0.6-0.3-1.1-0.7-1.5-1.1c-0.8-0.6-1.6-1.2-2.2-2c-0.2-0.2-0.4-0.4-0.7-0.7
		c-0.2-0.3-0.4-0.5-0.7-0.8c-0.7-0.7-1.3-1.6-1.8-2.4c-0.2-0.3-0.4-0.5-0.6-0.8c-0.2-0.3-0.4-0.6-0.6-0.9c-0.1-0.3-0.3-0.6-0.5-0.9
		c-0.2-0.3-0.4-0.7-0.5-1c-0.4-0.6-0.7-1.2-1-1.9c-0.4-1.1-0.8-2.1-1.2-3.2c-0.1-0.3-0.2-0.7-0.3-1.1c-0.1-0.3-0.3-0.7-0.4-1.1
		c-0.1-0.4-0.1-0.8-0.2-1.1c-0.5-1.6-0.6-3.3-0.9-4.9c0-0.4,0-0.8-0.1-1.3c0-0.4,0-0.8-0.1-1.3c0-1.8-0.2-3.6,0.1-5.4
		c0-0.5,0-0.9,0.1-1.4c0-1.5,0.3-2.9,0.5-4.4c0.1-0.6,0.3-1.2,0.4-1.7c0.2-1.5,0.6-3.2,1.2-4.6c0.1-0.5,0.3-1,0.5-1.5
		c0.5-1.7,1.4-3.8,2.4-5.3c0.2-0.4,0.4-0.8,0.7-1.2c0.2-0.4,0.4-0.8,0.7-1.1c0.3-0.4,0.5-0.8,0.8-1.1c1.2-1.8,2.7-3.3,4.2-4.8
		c0.3-0.3,0.7-0.5,1-0.8c0.6-0.6,1.2-1.1,1.9-1.5c0.9-0.7,2-1.3,3-1.9c0.4-0.2,0.8-0.4,1.1-0.5c0.3-0.2,0.7-0.4,1.1-0.5
		c0.3-0.1,0.7-0.3,1-0.5c0.4-0.1,0.8-0.3,1.1-0.4c0.7-0.2,1.5-0.4,2.2-0.6c1.4-0.5,3-0.8,4.5-0.8c0.3-0.1,0.7-0.1,1.1-0.1
		c1.3-0.3,3.1-0.3,4.4,0c0.4,0,0.8,0,1.1,0.1c1.1,0,2.2,0.3,3.3,0.5c1,0.4,2.1,0.6,3.1,1c0.7,0.2,1.4,0.4,2,0.7
		c0.3,0.2,0.7,0.4,1,0.5c0.6,0.3,1.2,0.7,1.8,1c0.3,0.2,0.6,0.4,0.9,0.6c0.6,0.4,1.2,0.8,1.7,1.2c0.5,0.7,0.7,1,0.8,0.7
		c0.2-1.3,0.4-2.6,0.5-3.9c0.1-0.4,0.2-0.8,0.3-1.3c0-0.3,0.1-0.5,0.3-0.6c0.3-0.2,0.7-0.3,1.1-0.3c0.3-0.1,0.7-0.1,1-0.1
		c2.9-0.5,6.5-0.3,9.4,0c0.6,0,1.2,0,1.9,0.1c2.6,0,6.1,0.2,8.6,1.2c0.3,0.1,0.5,0.1,0.7,0.2c0.1,0.1,0.3,0.3,0.4,0.4l0.1,0.1
		c0,1.4,0.2,3-0.1,4.4c0,0.4,0,0.8,0,1.1c-0.1,0.8-0.1,1.6-0.2,2.4c0,0.4,0,0.8,0,1.3c-0.1,1-0.1,1.9-0.2,2.9c0,0.5,0,1.1,0,1.6
		c-0.1,1.1-0.1,2.3-0.2,3.4c0,0.6,0,1.2,0,1.7c-0.2,1.9,0,3.9-0.2,5.8c0,2.9,0,5.7,0,8.6c0.2,2.1,0,4.1,0.2,6.2c0,0.7,0,1.3,0,2
		c0.1,1.3,0.1,2.5,0.2,3.8c0,0.6,0,1.2,0.1,1.7c0,0.6,0,1.2,0,1.8c0.1,0.5,0.1,1.1,0.1,1.6c0.1,0.5,0.1,1.1,0.1,1.6
		c0.1,0.5,0.1,1,0.1,1.5c0.1,0.5,0.1,1,0.1,1.5c0.1,0.5,0.1,0.9,0.1,1.4c0.1,0.8,0.1,1.7,0.2,2.5c0,0.4,0,0.8,0.1,1.2
		c0,0.4,0,0.8,0,1.1c0.1,0.7,0.1,1.3,0.2,2c0,0.6,0,1.1,0.1,1.7c0,0.9,0.3,2.5-0.1,3.3c0,0.1,0,0.2,0,0.3c0,0.1-0.1,0.2-0.2,0.3
		c-0.1,0.1-0.3,0.1-0.4,0.2c-0.3,0.1-0.5,0.1-0.7,0.1c-0.3,0.1-0.7,0.1-1,0.2c-0.3,0-0.7,0-1.1,0.1c-0.5,0-0.9,0-1.3,0
		c-3.7,0.5-8.1,0.4-11.8,0c-0.6,0-1.2,0-1.7-0.1c-0.6,0-1.2,0-1.7,0c-0.5-0.1-1-0.1-1.5-0.1c-0.5-0.1-0.9-0.1-1.4-0.1
		c-0.4-0.1-0.8-0.1-1.2-0.1c-0.3-0.1-0.7-0.1-1-0.2c-0.3,0-0.5,0-0.8-0.1c-0.2-0.1-0.4-0.1-0.6-0.1c-0.1-0.1-0.2-0.1-0.3-0.2
		c-0.2-0.2-0.3-0.4-0.4-0.7c-0.1-0.3-0.2-0.5-0.3-0.8c-0.1-0.4-0.2-0.8-0.2-1.1c-0.1-0.5-0.1-0.9-0.1-1.3c0.1-0.5,0.1-1,0.1-1.5
		c-0.1-0.5-0.1-1.1,0-1.6C659.4,692.4,659.5,691.8,659.3,691.4C659.3,691.1,659.5,691.8,659.3,691.4z M649.9,653
		c-0.9-0.1-1.7-0.1-2.6-0.1c-0.9,0.2-1.7,0.4-2.5,0.7c-1.1,0.5-2.3,1.3-3.1,2.3c-0.6,0.6-1.2,1.3-1.7,2.1c-0.5,0.8-0.9,1.6-1.2,2.4
		c-0.1,0.4-0.3,0.8-0.4,1.3c-0.2,1.3-0.3,2.6-0.3,4c0.2,1.2,0.6,2.7,1.2,3.7c0.3,0.4,0.5,0.8,0.7,1.1c0.9,1.4,2.2,2.6,3.7,3.5
		c0.7,0.4,1.4,0.8,2.2,1c2.1,0.7,4.4,0.4,6.4-0.5c0.5-0.1,0.9-0.3,1.3-0.5c0.4-0.3,0.8-0.5,1.2-0.8c0.4-0.2,0.8-0.5,1.1-0.8
		c0.7-0.6,1.4-1.2,1.9-2c0.8-1,1.4-2.4,1.8-3.6c0.1-0.9,0.3-1.9,0.4-2.8c0-0.9-0.1-1.9-0.3-2.8c-0.1-0.5-0.3-0.9-0.4-1.3
		c-0.2-0.4-0.4-0.8-0.6-1.2c-0.2-0.3-0.4-0.7-0.7-1.1c-0.6-0.6-1.2-1.2-1.8-1.8c-0.4-0.3-0.8-0.6-1.1-0.8c-0.8-0.5-1.6-0.9-2.5-1.3
		C651.7,653.4,650.8,653.1,649.9,653C649.5,652.9,650.3,653,649.9,653z"/>
	<path d="M693.8,628.9c0.2-0.1,0.4-0.2,0.6-0.3c0.3-0.1,0.6-0.1,0.9-0.2c0.8-0.1,1.5-0.2,2.3-0.2c3.1-0.4,6.8-0.3,9.9,0
		c0.6,0,1.2,0,1.8,0.1c0.6,0,1.2,0,1.8,0.1c0.6,0,1.2,0,1.7,0.1c1.1,0,2.1,0.1,3.2,0.3c0.9,0,1.8,0.1,2.7,0.3c0.3,0,0.7,0,1.1,0.1
		c0.3,0.1,0.5,0.1,0.8,0.2c0.2,0,0.4,0,0.6,0.1c0.1,0.1,0.2,0.1,0.3,0.1c0.1,0.1,0.1,0.1,0.2,0.2c0.1,0.1,0.2,0.3,0.3,0.4
		c0.1,0.2,0.2,0.4,0.3,0.6c0.6,1.3,1.3,2.6,1.8,4c0.4,0.9,0.8,1.8,1.2,2.7c0.5,1,0.9,2,1.4,3c0.2,0.5,0.4,1.1,0.7,1.7
		c0.9,2.3,1.9,4.5,2.9,6.8c0.2,0.5,0.4,1.1,0.7,1.7c0.2,0.5,0.4,1.1,0.7,1.7c0.2,0.5,0.4,1.1,0.7,1.7c0.7,2,1.8,3.9,2.4,5.9
		c0.2,0.4,0.4,0.8,0.6,1.3c0.1,0.3,0.3,0.7,0.4,1.1c0.1,0.3,0.3,0.7,0.4,1c0.1,0.3,0.3,0.5,0.4,0.8c0.1,0.3,0.2,0.5,0.3,0.7
		c0,0.2,0.1,0.4,0.2,0.5c0,0.1,0,0.2,0.1,0.3c0,0.1,0,0.1,0,0.2c0.2-0.2,0.3-0.8,0.3-1c0.1-0.3,0.2-0.5,0.3-0.7
		c0.1-0.3,0.2-0.6,0.3-0.9c0.3-1.6,1-3.4,1.6-4.9c0.1-0.5,0.3-1,0.5-1.5c0.3-1.1,0.7-2.1,1.1-3.2c0.5-2.3,1.4-4.8,2.4-7
		c1.4-3.7,3-7.4,4.1-11.2c0.2-0.5,0.4-0.9,0.6-1.3c0.1-0.4,0.3-0.8,0.5-1.2c0.1-0.3,0.3-0.7,0.4-1c0.1-0.3,0.3-0.6,0.5-0.9
		c0.1-0.2,0.2-0.4,0.4-0.6c0.1-0.2,0.2-0.4,0.3-0.5c0.1-0.1,0.2-0.3,0.3-0.4c0.1-0.1,0.3-0.1,0.4-0.2c0.3-0.1,0.5-0.1,0.7-0.2
		c1.2-0.6,3.1-0.8,4.5-0.8c1-0.2,2-0.3,3-0.3c0.5-0.1,1.1-0.1,1.7-0.1c0.5-0.1,1.1-0.1,1.6-0.1c1.1-0.1,2.3-0.1,3.4-0.1
		c1.7-0.2,3.3-0.1,5-0.1c1,0.1,1.9,0.1,2.9,0.2c0.5,0,0.9,0,1.3,0.1c0.7,0,1.5,0.1,2.2,0.3c0.3,0,0.5,0,0.8,0.1
		c0.2,0.1,0.4,0.2,0.6,0.3c0.1,0,0.2,0.1,0.3,0.2l0.1,0.1v0.1c0,0.1,0,0.1-0.1,0.2c0,0.2,0,0.3-0.1,0.5c0,0.1,0,0.3,0,0.4
		c-0.1,0.1-0.1,0.3-0.2,0.4c0,0.1,0,0.3-0.1,0.5c-0.1,0.1-0.1,0.3-0.1,0.5c-0.3,0.5-0.5,1.2-0.6,1.8c-0.1,0.2-0.1,0.4-0.2,0.6
		c-0.2,0.5-0.4,1.1-0.6,1.6c-0.1,0.3-0.2,0.5-0.3,0.8c-0.1,0.3-0.2,0.6-0.3,0.9c-0.1,0.3-0.2,0.6-0.3,0.9c-0.1,0.3-0.2,0.6-0.3,0.9
		c-0.4,1-0.9,2-1.1,3.1c-0.1,0.3-0.3,0.7-0.5,1.1c-0.3,0.7-0.5,1.5-0.8,2.2c-0.1,0.4-0.3,0.8-0.5,1.2c-0.3,0.8-0.6,1.7-0.9,2.5
		c-0.1,0.4-0.3,0.8-0.5,1.3c-0.1,0.4-0.3,0.8-0.5,1.3c-0.1,0.5-0.3,0.9-0.5,1.3c-0.3,0.9-0.7,1.9-1,2.8c-0.4,0.9-0.8,1.8-1.1,2.8
		c-0.6,1.5-1.2,3-1.8,4.5c-0.4,1.6-1.1,3.1-1.7,4.6c-1.3,2.6-2,5.4-3.2,8c-1.2,3.3-2.5,6.7-3.9,9.9c-0.8,2.2-1.8,4.4-2.6,6.7
		c-0.5,1.1-0.9,2.3-1.4,3.4c-0.2,0.5-0.4,1.1-0.6,1.6c-0.5,1.1-0.9,2.2-1.3,3.4c-1.3,2.6-2.1,5.3-3.4,7.9c-0.5,1.2-1,2.3-1.6,3.5
		c-0.6,1.1-1.1,2.3-1.7,3.4c-1.2,2-2.1,4.2-3.5,6.1c-0.5,1-1.1,1.9-1.7,2.8c-0.8,1.3-1.6,2.5-2.6,3.7c-0.3,0.4-0.6,0.8-0.9,1.2
		c-0.5,0.8-1.1,1.5-1.7,2.1c-0.3,0.4-0.6,0.8-0.9,1.1c-0.3,0.3-0.5,0.6-0.8,0.9c-0.3,0.3-0.6,0.7-0.9,1c-0.3,0.3-0.6,0.6-0.9,0.9
		c-0.3,0.3-0.6,0.5-0.9,0.8c-0.3,0.3-0.5,0.5-0.8,0.8c-1.2,0.9-2.3,2-3.5,2.9c-0.6,0.4-1.2,0.8-1.8,1.2c-0.3,0.2-0.5,0.4-0.8,0.5
		c-0.3,0.2-0.6,0.4-0.9,0.5c-0.3,0.2-0.6,0.4-0.9,0.5c-0.3,0.1-0.5,0.3-0.8,0.4c-0.5,0.4-1.1,0.6-1.8,0.8c-0.3,0.1-0.5,0.3-0.8,0.4
		c-0.3,0.1-0.6,0.2-0.9,0.3c-0.3,0.1-0.5,0.2-0.8,0.3c-0.3,0.1-0.6,0.1-0.9,0.2c-0.7,0.4-1.7,0.6-2.5,0.6c-0.6,0.2-1.1,0.3-1.7,0.3
		c-0.3,0.1-0.6,0.1-0.9,0.1c-0.4,0.2-0.7,0.2-1.1,0c-0.2-0.1-0.3-0.2-0.4-0.3c-0.2-0.1-0.4-0.3-0.5-0.5c-0.2-0.2-0.4-0.4-0.5-0.6
		c-0.2-0.3-0.4-0.5-0.6-0.8c-0.2-0.3-0.4-0.7-0.5-1c-0.4-0.8-0.8-1.5-1.2-2.3c-1.7-2.5-2.6-5.8-3.7-8.6c-0.1-0.5-0.3-1-0.5-1.5
		c-0.1-0.5-0.3-1-0.5-1.5c-0.2-1-0.5-1.9-0.8-2.9c-0.1-0.5-0.2-0.9-0.3-1.4c-0.1-0.8-0.3-1.7-0.4-2.5c0-0.4,0-0.8-0.1-1.1
		c0-0.3,0-0.7,0-1c0.1-0.3,0.1-0.6,0.2-0.9c0-0.2,0.1-0.4,0.2-0.7c0.1-0.1,0.2-0.3,0.3-0.4c0.3-0.4,0.7-0.7,1.1-0.9
		c0.3-0.1,0.5-0.2,0.8-0.3c0.3-0.1,0.5-0.3,0.8-0.4c0.3-0.1,0.7-0.2,1-0.3c0.7-0.3,1.4-0.5,2.2-0.7c2.6-0.9,5.2-1.8,7.9-2.6
		c0.4-0.2,0.8-0.4,1.3-0.6c0.5-0.3,0.9-0.5,1.3-0.7c0.9-0.5,1.7-1,2.5-1.6c0.8-0.6,1.6-1.3,2.3-2c0.3-0.4,0.7-0.8,1-1.2
		c1.2-1.8,2.3-3.7,2.8-5.9c0-0.1,0-0.3-0.1-0.4c-0.1-0.1-0.2-0.3-0.2-0.4c-0.1-0.4-0.3-0.8-0.5-1.2c-0.1-0.2-0.2-0.4-0.3-0.7
		c-0.2-0.5-0.4-1-0.6-1.5c-0.1-0.3-0.3-0.6-0.4-0.9c-0.1-0.3-0.3-0.6-0.4-0.9c-0.3-0.7-0.6-1.4-1-2.1c-0.1-0.4-0.3-0.8-0.5-1.1
		c-0.2-0.4-0.4-0.8-0.5-1.2c-1.1-2.1-1.9-4.4-3.1-6.5c-0.2-0.5-0.4-0.9-0.6-1.4c-0.5-1-1-1.9-1.4-2.9c-0.5-1-0.9-2-1.4-3
		c-0.3-0.5-0.5-1-0.7-1.5c-0.3-0.5-0.5-1.1-0.8-1.6c-0.5-1-1-2.1-1.5-3.1c-0.4-1.1-0.9-2.2-1.5-3.2c-0.6-1.7-1.6-3.1-2.2-4.8
		c-0.3-0.5-0.5-1.1-0.8-1.6c-1.5-4-3.5-8.4-5.7-12.2c-0.4-1-0.8-1.9-1.3-2.8c-0.4-0.9-0.8-1.8-1.2-2.7c-0.3-0.9-0.7-1.7-1.1-2.5
		c-0.1-0.4-0.3-0.8-0.5-1.2c-0.1-0.3-0.3-0.7-0.5-1.1c-0.1-0.3-0.3-0.7-0.5-1.1c-0.3-0.7-0.5-1.3-0.8-2c-0.1-0.3-0.3-0.6-0.4-0.9
		c-0.2-0.7-0.5-1.7-0.9-2.3c-0.1-0.4-0.2-0.8-0.4-1.2c0-0.3-0.2-1-0.3-1.3C693.4,629.2,693.5,629.1,693.8,628.9
		C694,628.8,693.7,629,693.8,628.9z"/>
	<path d="M824.4,691.4c-0.1-0.3-0.3,0-0.6,0.9c-0.1,0.3-0.4,0.5-0.7,0.8c-0.5,0.5-0.9,0.9-1.4,1.4c-0.3,0.3-0.5,0.5-0.7,0.7
		c-0.5,0.4-1,0.9-1.5,1.3c-0.3,0.2-0.5,0.4-0.8,0.6c-0.8,0.4-1.7,1-2.4,1.5c-0.6,0.3-1.1,0.6-1.7,0.8c-0.3,0.1-0.5,0.2-0.8,0.3
		c-0.3,0.1-0.6,0.3-0.9,0.4c-0.3,0.1-0.5,0.1-0.8,0.2c-0.9,0.5-2.5,0.8-3.5,0.8c-0.3,0.1-0.6,0.1-0.9,0.1c-0.6,0.1-1.2,0.1-1.8,0.1
		c-0.3,0.1-0.6,0.1-0.9,0c-0.6,0-1.1,0-1.7,0c-0.3-0.1-0.6-0.1-0.9-0.1c-0.3-0.1-0.6-0.1-0.9-0.2c-0.9,0-1.8-0.3-2.6-0.5
		c-0.6-0.2-1.2-0.4-1.8-0.6c-0.3-0.1-0.5-0.2-0.8-0.3c-0.3-0.1-0.6-0.3-0.9-0.4c-0.8-0.4-1.6-0.8-2.4-1.2c-0.3-0.2-0.5-0.4-0.8-0.5
		c-0.3-0.2-0.5-0.4-0.8-0.5c-0.3-0.2-0.5-0.4-0.8-0.6c-0.6-0.3-1.1-0.7-1.5-1.1c-0.8-0.6-1.6-1.2-2.2-2c-0.2-0.2-0.4-0.4-0.7-0.7
		c-0.2-0.3-0.4-0.5-0.7-0.8c-0.7-0.7-1.3-1.6-1.8-2.4c-0.2-0.3-0.4-0.5-0.6-0.8c-0.2-0.3-0.4-0.6-0.6-0.9c-0.1-0.3-0.3-0.6-0.5-0.9
		c-0.2-0.3-0.4-0.7-0.5-1c-0.4-0.6-0.7-1.2-1-1.9c-0.4-1.1-0.8-2.1-1.2-3.2c-0.1-0.3-0.2-0.7-0.3-1.1c-0.1-0.3-0.3-0.7-0.4-1.1
		c-0.1-0.4-0.1-0.8-0.2-1.1c-0.5-1.6-0.6-3.3-0.9-4.9c0-0.4,0-0.8-0.1-1.3c0-0.4,0-0.8-0.1-1.3c0-1.8-0.1-3.6,0.1-5.4
		c0-0.5,0-0.9,0.1-1.4c0-1.5,0.3-2.9,0.5-4.4c0.1-0.6,0.3-1.2,0.4-1.7c0.2-1.5,0.6-3.2,1.2-4.6c0.1-0.5,0.3-1,0.5-1.5
		c0.5-1.7,1.4-3.8,2.4-5.3c0.2-0.4,0.4-0.8,0.7-1.2c0.2-0.4,0.4-0.8,0.7-1.1c0.3-0.4,0.5-0.8,0.8-1.1c1.2-1.8,2.7-3.3,4.2-4.8
		c0.3-0.3,0.7-0.5,1-0.8c0.6-0.6,1.2-1.1,1.9-1.5c0.9-0.7,2-1.3,3-1.9c0.4-0.2,0.8-0.4,1.1-0.5c0.3-0.2,0.7-0.4,1.1-0.5
		c0.3-0.1,0.7-0.3,1-0.5c0.4-0.1,0.8-0.3,1.1-0.4c0.7-0.2,1.5-0.4,2.2-0.6c1.4-0.5,3-0.8,4.5-0.8c0.3-0.1,0.7-0.1,1.1-0.1
		c1.3-0.3,3.1-0.3,4.4,0c0.4,0,0.8,0,1.1,0.1c1.1,0,2.2,0.3,3.3,0.5c1,0.4,2.1,0.6,3.1,1c0.7,0.2,1.3,0.4,2,0.7
		c0.3,0.2,0.7,0.4,1,0.5c0.6,0.3,1.2,0.7,1.8,1c0.3,0.2,0.6,0.4,0.9,0.6c0.6,0.4,1.2,0.8,1.7,1.2c0.5,0.7,0.7,1,0.8,0.7
		c0.2-1.3,0.4-2.6,0.5-3.9c0.1-0.4,0.2-0.8,0.3-1.3c0-0.3,0.1-0.5,0.3-0.6c0.3-0.2,0.7-0.3,1.1-0.3c0.3-0.1,0.7-0.1,1-0.1
		c2.9-0.5,6.5-0.3,9.4,0c0.6,0,1.2,0,1.9,0.1c2.6,0,6.1,0.2,8.6,1.2c0.3,0.1,0.5,0.1,0.7,0.2c0.1,0.1,0.3,0.3,0.4,0.4l0.1,0.1
		c0,1.4,0.2,3-0.1,4.4c0,0.4,0,0.8,0,1.1c-0.1,0.8-0.1,1.6-0.2,2.4c0,0.4,0,0.8,0,1.3c-0.1,1-0.1,1.9-0.2,2.9c0,0.5,0,1.1,0,1.6
		c-0.1,1.1-0.1,2.3-0.2,3.4c0,0.6,0,1.2,0,1.7c-0.2,1.9,0,3.9-0.2,5.8c0,2.9,0,5.7,0,8.6c0.2,2.1,0,4.1,0.2,6.2c0,0.7,0,1.3,0,2
		c0.1,1.3,0.1,2.5,0.2,3.8c0,0.6,0,1.2,0.1,1.7c0,0.6,0,1.2,0,1.8c0.1,0.5,0.1,1.1,0.1,1.6c0.1,0.5,0.1,1.1,0.1,1.6
		c0.1,0.5,0.1,1,0.1,1.5c0.1,0.5,0.1,1,0.1,1.5c0.1,0.5,0.1,0.9,0.1,1.4c0.1,0.8,0.1,1.7,0.2,2.5c0,0.4,0,0.8,0.1,1.2
		c0,0.4,0,0.8,0,1.1c0.1,0.7,0.1,1.3,0.2,2c0,0.6,0,1.1,0.1,1.7c0,0.9,0.3,2.5-0.1,3.3c0,0.1,0,0.2,0,0.3c0,0.1-0.1,0.2-0.2,0.3
		c-0.1,0.1-0.3,0.1-0.4,0.2c-0.3,0.1-0.5,0.1-0.7,0.1c-0.3,0.1-0.7,0.1-1,0.2c-0.3,0-0.7,0-1.1,0.1c-0.5,0-0.9,0-1.3,0
		c-3.7,0.5-8.1,0.4-11.8,0c-0.6,0-1.2,0-1.7-0.1c-0.6,0-1.2,0-1.7,0c-0.5-0.1-1-0.1-1.5-0.1c-0.5-0.1-0.9-0.1-1.4-0.1
		c-0.4-0.1-0.8-0.1-1.2-0.1c-0.3-0.1-0.7-0.1-1-0.2c-0.3,0-0.5,0-0.8-0.1c-0.2-0.1-0.4-0.1-0.6-0.1c-0.1-0.1-0.2-0.1-0.3-0.2
		c-0.2-0.2-0.3-0.4-0.4-0.7c-0.1-0.3-0.2-0.5-0.3-0.8c-0.1-0.4-0.2-0.8-0.2-1.1c-0.1-0.5-0.1-0.9-0.1-1.3c0.1-0.5,0.1-1,0.1-1.5
		c-0.1-0.5-0.1-1.1,0-1.6C824.5,692.4,824.5,691.8,824.4,691.4C824.3,691.1,824.5,691.8,824.4,691.4z M814.9,653
		c-0.9-0.1-1.7-0.1-2.6-0.1c-0.9,0.2-1.7,0.4-2.5,0.7c-1.1,0.5-2.3,1.3-3.1,2.3c-0.6,0.6-1.2,1.3-1.7,2.1c-0.5,0.8-0.9,1.6-1.2,2.4
		c-0.1,0.4-0.3,0.8-0.4,1.3c-0.2,1.3-0.3,2.6-0.3,4c0.2,1.2,0.6,2.7,1.2,3.7c0.3,0.4,0.5,0.8,0.7,1.1c0.9,1.4,2.2,2.6,3.7,3.5
		c0.7,0.4,1.4,0.8,2.2,1c2.1,0.7,4.4,0.4,6.4-0.5c0.5-0.1,0.9-0.3,1.3-0.5c0.4-0.3,0.8-0.5,1.2-0.8c0.4-0.2,0.8-0.5,1.1-0.8
		c0.7-0.6,1.4-1.2,1.9-2c0.8-1,1.4-2.4,1.8-3.6c0.1-0.9,0.3-1.9,0.4-2.8c0-0.9-0.1-1.9-0.3-2.8c-0.1-0.5-0.3-0.9-0.4-1.3
		c-0.2-0.4-0.4-0.8-0.6-1.2c-0.2-0.3-0.4-0.7-0.7-1.1c-0.6-0.6-1.2-1.2-1.8-1.8c-0.4-0.3-0.8-0.6-1.1-0.8c-0.8-0.5-1.6-0.9-2.5-1.3
		C816.7,653.4,815.9,653.1,814.9,653C814.5,652.9,815.4,653,814.9,653z"/>
</g>
<g>
	<path fill="#F1CC5A" d="M346.2,729.6H192.9c-12.8,0-23.2-10.4-23.2-23.2v-128c0-12.8,10.4-23.2,23.2-23.2h153.3
		c12.8,0,23.2,10.4,23.2,23.2v128C369.4,719.1,359,729.6,346.2,729.6z"/>
	<path fill="#FFEDBB" d="M334.8,714.7H204.3c-12.8,0-23.2-10.4-23.2-23.2v-97.9c0-12.8,10.4-23.2,23.2-23.2h130.6
		c12.8,0,23.2,10.4,23.2,23.2v97.9C358,704.3,347.6,714.7,334.8,714.7z"/>
</g>
</svg>
