<?xml version="1.0" encoding="utf-8"?>
<!-- Generator: Adobe Illustrator 18.0.0, SVG Export Plug-In . SVG Version: 6.00 Build 0)  -->
<!DOCTYPE svg PUBLIC "-//W3C//DTD SVG 1.0//EN" "http://www.w3.org/TR/2001/REC-SVG-20010904/DTD/svg10.dtd">
<svg version="1.0" id="Camada_1" xmlns="http://www.w3.org/2000/svg" xmlns:xlink="http://www.w3.org/1999/xlink" x="0px" y="0px"
	 viewBox="0 0 1024 768" enable-background="new 0 0 1024 768" xml:space="preserve">
<image overflow="visible" width="1500" height="1500" xlink:href="../../../Desenhos Jogo Yegatu/png2/see.png"  transform="matrix(0.5252 0 0 0.5252 121.1161 -122.2547)">
</image>
<g enable-background="new    ">
	<path d="M653.4,679.2c-0.1,0.3-0.1,0.7-0.2,1.1c-0.1,0.3-0.2,0.7-0.3,1c-0.1,0.4-0.3,0.8-0.4,1.1c-0.2,0.4-0.4,0.8-0.5,1.1
		c-0.2,0.3-0.4,0.7-0.6,1c-0.2,0.4-0.4,0.8-0.6,1.1c-0.3,0.3-0.5,0.7-0.8,1c-0.2,0.3-0.4,0.7-0.7,1.1c-0.3,0.3-0.6,0.7-0.9,1
		c-0.3,0.3-0.6,0.6-0.9,0.9c-0.3,0.3-0.6,0.7-0.9,1c-0.3,0.3-0.7,0.6-1.1,0.9c-0.3,0.3-0.7,0.6-1,0.9c-0.4,0.3-0.8,0.6-1.1,0.9
		c-0.4,0.3-0.8,0.5-1.2,0.8c-0.4,0.3-0.8,0.6-1.2,0.8c-0.4,0.3-0.8,0.5-1.2,0.8c-0.4,0.3-0.8,0.5-1.2,0.7c-0.5,0.3-0.9,0.5-1.3,0.7
		c-0.5,0.3-0.9,0.5-1.3,0.7c-0.5,0.2-0.9,0.4-1.3,0.6c-0.5,0.1-0.9,0.3-1.4,0.5c-0.5,0.2-0.9,0.4-1.3,0.5c-0.5,0.1-0.9,0.3-1.4,0.4
		c-0.5,0.1-0.9,0.3-1.4,0.4c-0.5,0.1-0.9,0.2-1.3,0.3c-0.5,0.1-0.9,0.2-1.4,0.3c-0.5,0.1-0.9,0.1-1.4,0.2c-0.5,0.1-0.9,0.1-1.3,0.1
		c-0.6,0.1-1.2,0.1-1.8,0.1c-0.5,0-1.1,0-1.6,0.1c-0.6,0-1.2,0-1.7,0c-0.5,0-1.1,0-1.6-0.1c-0.5,0-1.1,0-1.6,0
		c-0.5-0.1-1-0.1-1.5-0.1c-0.5-0.1-1.1-0.1-1.6-0.2c-0.5-0.1-0.9-0.1-1.4-0.2c-0.5-0.1-1-0.1-1.5-0.2c-0.5-0.1-0.9-0.2-1.4-0.3
		c-0.5-0.1-0.9-0.2-1.4-0.3c-0.5-0.1-0.9-0.2-1.3-0.3c-0.5-0.1-0.9-0.3-1.3-0.4c-0.5-0.1-0.9-0.3-1.3-0.4c-0.4-0.1-0.8-0.3-1.3-0.5
		c-0.4-0.1-0.8-0.3-1.2-0.5c-0.3-0.1-0.7-0.3-1.1-0.5c-0.4-0.2-0.8-0.4-1.2-0.5c-0.3-0.2-0.7-0.4-1.1-0.6c-0.3-0.3-0.7-0.5-1-0.7
		c-0.4-0.2-0.8-0.4-1.1-0.7c-0.3-0.2-0.7-0.4-1-0.7c-0.3-0.2-0.6-0.4-0.9-0.7c-0.3-0.3-0.6-0.5-0.9-0.8c-0.3-0.3-0.6-0.5-0.9-0.8
		c-0.3-0.3-0.6-0.5-0.9-0.8c-0.3-0.3-0.5-0.6-0.8-0.9c-0.3-0.3-0.5-0.6-0.8-0.9c-0.3-0.3-0.5-0.7-0.8-1c-0.2-0.3-0.4-0.6-0.7-0.9
		c-0.2-0.3-0.4-0.7-0.7-1c-0.2-0.4-0.4-0.8-0.6-1.1c-0.2-0.3-0.4-0.7-0.6-1.1c-0.2-0.3-0.4-0.7-0.6-1c-0.2-0.4-0.4-0.8-0.5-1.2
		c-0.2-0.4-0.4-0.8-0.5-1.1c-0.2-0.4-0.4-0.8-0.5-1.2c-0.1-0.4-0.3-0.8-0.4-1.2c-0.1-0.5-0.3-0.9-0.4-1.3c-0.1-0.4-0.3-0.8-0.4-1.3
		c-0.1-0.4-0.2-0.8-0.3-1.3c-0.1-0.4-0.2-0.8-0.3-1.3c-0.1-0.5-0.2-0.9-0.3-1.4c-0.1-0.4-0.1-0.8-0.2-1.3c-0.1-0.5-0.1-0.9-0.1-1.3
		c-0.1-0.5-0.1-0.9-0.1-1.4c-0.1-0.4-0.1-0.8-0.1-1.3c0-0.5,0-0.9,0-1.3c0-0.5,0-0.9,0.1-1.3c0-0.5,0-0.9,0.1-1.3
		c0-0.5,0-0.9,0.1-1.3c0.1-0.5,0.1-0.9,0.2-1.3c0.1-0.5,0.1-0.9,0.2-1.3c0.1-0.4,0.2-0.8,0.3-1.2c0.1-0.5,0.2-0.9,0.3-1.3
		c0.1-0.4,0.3-0.8,0.4-1.2c0.1-0.4,0.3-0.8,0.4-1.2c0.1-0.4,0.3-0.8,0.5-1.2c0.1-0.4,0.3-0.8,0.5-1.2c0.1-0.4,0.3-0.8,0.5-1.1
		c0.2-0.4,0.4-0.8,0.6-1.2c0.2-0.3,0.4-0.7,0.6-1.1c0.2-0.4,0.4-0.8,0.7-1.1c0.2-0.3,0.4-0.7,0.7-1.1c0.2-0.3,0.4-0.7,0.7-1
		c0.3-0.3,0.5-0.7,0.8-1c0.3-0.3,0.5-0.7,0.8-1c0.3-0.3,0.5-0.7,0.8-1c0.3-0.3,0.6-0.7,0.9-1c0.3-0.3,0.6-0.6,0.9-0.9
		c0.3-0.3,0.6-0.5,0.9-0.8c0.3-0.3,0.7-0.6,1-0.9c0.3-0.3,0.7-0.5,1-0.8c0.3-0.3,0.7-0.5,1.1-0.8c0.3-0.3,0.7-0.5,1-0.8
		c0.4-0.2,0.8-0.4,1.1-0.7c0.4-0.2,0.8-0.4,1.1-0.7c0.4-0.2,0.8-0.4,1.2-0.6c0.4-0.2,0.8-0.4,1.2-0.6c0.4-0.2,0.8-0.4,1.2-0.6
		s0.8-0.4,1.2-0.5c0.4-0.2,0.8-0.4,1.2-0.5c0.5-0.2,0.9-0.4,1.3-0.5c0.5-0.1,0.9-0.3,1.3-0.4c0.5-0.1,0.9-0.2,1.3-0.3
		c0.5-0.1,0.9-0.3,1.4-0.4c0.5-0.1,0.9-0.1,1.4-0.2c0.6-0.1,1.2-0.2,1.8-0.3c0.6-0.1,1.2-0.2,1.9-0.3c0.5-0.1,1.1-0.1,1.7-0.1
		c0.6-0.1,1.2-0.1,1.8-0.1c0.5,0,1.1,0,1.7,0c0.5,0,1.1,0,1.6,0c0.5,0,1.1,0,1.6,0.1c0.5,0.1,1.1,0.1,1.6,0.2c0.5,0.1,1,0.1,1.5,0.2
		c0.5,0.1,1,0.2,1.5,0.3c0.5,0.1,1,0.2,1.5,0.3c0.5,0.1,0.9,0.3,1.4,0.4c0.4,0.1,0.8,0.3,1.3,0.5c0.5,0.1,0.9,0.3,1.3,0.5
		c0.5,0.1,0.9,0.3,1.3,0.5c0.4,0.2,0.8,0.4,1.2,0.6c0.4,0.2,0.8,0.4,1.2,0.6c0.4,0.2,0.8,0.4,1.2,0.7c0.4,0.2,0.8,0.4,1.1,0.7
		c0.4,0.2,0.8,0.4,1.1,0.7c0.3,0.3,0.7,0.5,1,0.8c0.3,0.3,0.7,0.5,1,0.8c0.3,0.3,0.7,0.5,1,0.8c0.3,0.3,0.6,0.5,0.9,0.8
		c0.3,0.3,0.6,0.6,0.9,0.9c0.3,0.3,0.5,0.6,0.8,0.9c0.3,0.3,0.5,0.6,0.8,0.9c0.3,0.3,0.5,0.7,0.8,1c0.3,0.3,0.5,0.6,0.7,0.9
		c0.3,0.3,0.5,0.7,0.7,1c0.3,0.3,0.5,0.6,0.7,0.9c0.2,0.3,0.4,0.7,0.6,1c0.2,0.3,0.4,0.7,0.6,1c0.2,0.3,0.4,0.7,0.6,1
		c0.1,0.3,0.3,0.7,0.5,1c0.1,0.3,0.3,0.7,0.4,1c0.2,0.3,0.4,0.7,0.5,1c0.1,0.3,0.3,0.7,0.4,1c0.1,0.3,0.3,0.6,0.4,0.9
		c0.1,0.3,0.2,0.7,0.3,1c0.1,0.3,0.2,0.7,0.3,1c0.1,0.3,0.2,0.6,0.3,0.9c0.1,0.3,0.1,0.6,0.2,0.9c0.1,0.3,0.2,0.6,0.3,0.9
		c0,0.3,0,0.6,0.1,0.9c0.1,0.3,0.1,0.6,0.2,0.9c0,0.3,0,0.5,0.1,0.8c0,0.3,0,0.5,0.1,0.8c0,0.3,0,0.5,0,0.8c0,0.3,0,0.5,0,0.8
		c0,0.2,0,0.4,0,0.7c0,0.2,0,0.4,0,0.7c-0.1,0.2-0.1,0.4-0.1,0.6c-0.1,0.2-0.1,0.4-0.1,0.6c-0.1,0.2-0.1,0.4-0.2,0.6
		c0,0.2,0,0.4-0.1,0.5c-0.1,0.2-0.1,0.4-0.2,0.5c-0.1,0.1-0.2,0.3-0.3,0.4c-0.1,0.1-0.1,0.3-0.2,0.4c-0.1,0.1-0.2,0.2-0.3,0.3
		c-0.1,0.1-0.2,0.2-0.3,0.3c-0.1,0.1-0.3,0.2-0.5,0.3c-0.1,0.1-0.3,0.2-0.5,0.3c-0.2,0.1-0.4,0.2-0.6,0.3c-0.3,0.1-0.5,0.2-0.7,0.3
		c-0.3,0.1-0.5,0.2-0.8,0.3c-0.3,0.1-0.5,0.2-0.8,0.3c-0.3,0.1-0.6,0.2-0.9,0.3c-0.3,0.1-0.6,0.2-0.9,0.3c-0.3,0.1-0.7,0.1-1,0.2
		c-0.4,0.1-0.8,0.2-1.1,0.3c-0.3,0.1-0.7,0.2-1.1,0.3c-0.4,0.1-0.8,0.2-1.2,0.3c-0.3,0.1-0.7,0.1-1.1,0.2c-0.5,0.1-0.9,0.1-1.3,0.2
		c-0.4,0.1-0.8,0.2-1.3,0.3c-0.4,0.1-0.8,0.1-1.3,0.2c-0.4,0.1-0.8,0.1-1.3,0.2c-0.5,0.1-0.9,0.1-1.4,0.2c-0.4,0.1-0.8,0.1-1.3,0.2
		c-0.5,0-0.9,0-1.4,0.1c-0.5,0.1-1,0.1-1.5,0.1c-0.5,0.1-0.9,0.1-1.4,0.2c-0.5,0-1,0-1.5,0.1c-0.5,0-0.9,0-1.4,0
		c-0.5,0.1-1,0.1-1.5,0.1c-0.5,0-1,0-1.5,0c-0.5,0-0.9,0-1.4,0c-0.5,0-1,0-1.5,0c-0.5,0-0.9,0-1.4,0c-0.5-0.1-1-0.1-1.5-0.1
		c-0.5,0-0.9,0-1.4-0.1c-0.5-0.1-0.9-0.1-1.4-0.1c-0.5-0.1-0.9-0.1-1.4-0.2c-0.5-0.1-0.9-0.1-1.4-0.2c-0.4-0.1-0.8-0.1-1.3-0.2
		c-0.5-0.1-0.9-0.1-1.3-0.2c-0.5-0.1-0.9-0.2-1.3-0.3c-0.5,0-0.9-0.1-1.2-0.4c-0.7-0.4-1.1-0.5-1.2-0.3c-0.2,0.3-0.2,0.8,0,1.5
		c0.1,0.5,0.2,1,0.2,1.6c0.1,0.5,0.2,1,0.3,1.5c0.1,0.5,0.3,0.9,0.4,1.4c0.2,0.5,0.4,0.9,0.6,1.4c0.2,0.5,0.4,0.9,0.7,1.3
		c0.2,0.4,0.5,0.8,0.8,1.1c0.3,0.3,0.7,0.7,1,1c0.3,0.3,0.7,0.5,1.1,0.8c0.5,0.3,0.9,0.5,1.4,0.6c0.5,0.2,1,0.3,1.5,0.4
		c0.5,0.1,1.1,0.2,1.7,0.2c0.5,0,1.1-0.1,1.6-0.2c0.5-0.1,0.9-0.2,1.4-0.3c0.4-0.1,0.8-0.3,1.2-0.5c0.4-0.2,0.8-0.4,1.1-0.6
		c0.3-0.2,0.7-0.4,1-0.7c0.3-0.2,0.6-0.4,0.9-0.6c0.3-0.2,0.5-0.4,0.8-0.6c0.3-0.1,0.5-0.3,0.7-0.4c0.3-0.1,0.5-0.1,0.7-0.2
		c0.6-0.1,1.2-0.2,1.8-0.3c0.6-0.1,1.2-0.2,1.8-0.3c0.6-0.1,1.2-0.1,1.8-0.2c0.5-0.1,1.1-0.2,1.7-0.3c0.6-0.1,1.2-0.1,1.8-0.2
		c0.6-0.1,1.2-0.1,1.7-0.2c0.6-0.1,1.2-0.1,1.7-0.2c0.6-0.1,1.2-0.1,1.7-0.2c0.5,0,1.1,0,1.6-0.1c0.5-0.1,1-0.1,1.5-0.1
		c0.5-0.1,1-0.1,1.5-0.1c0.5,0,0.9,0,1.4-0.1c0.4,0,0.8,0,1.2,0c0.4,0,0.8,0,1.2,0c0.4,0,0.8,0,1.1,0c0.3,0,0.7,0,1,0.1
		c0.3,0,0.5,0,0.8,0.1c0.2,0,0.4,0,0.7,0.1c0.1,0,0.3,0,0.5,0.1c0.1,0.1,0.3,0.1,0.4,0.2c0.1,0.1,0.1,0.1,0.2,0.2
		C653.4,679,653.4,679.1,653.4,679.2z M609.1,660c0.1,0.3,0.5,0.5,1.2,0.6c0.5,0.1,0.9,0.2,1.4,0.5c0.4,0.1,0.9,0.3,1.4,0.4
		c0.5,0.1,1,0.2,1.5,0.3c0.5,0.1,1,0.1,1.5,0.2c0.5,0,1,0,1.5,0.1c0.5,0,1,0,1.5,0c0.5,0,0.9,0,1.4,0c0.5,0,0.9,0,1.4-0.1
		c0.4,0,0.8,0,1.2-0.1c0.3-0.1,0.7-0.2,1.1-0.3c0.3-0.1,0.6-0.1,0.9-0.2c0.3-0.1,0.5-0.3,0.7-0.4c0.2-0.1,0.4-0.2,0.5-0.4
		c0.3-0.3,0.5-0.6,0.8-0.9c0.2-0.4,0.4-0.8,0.5-1.1c0.1-0.4,0.2-0.8,0.3-1.2c0.1-0.4,0.1-0.8,0.1-1.2c0-0.4,0-0.8-0.1-1.2
		c-0.1-0.4-0.2-0.8-0.3-1.1c-0.1-0.4-0.3-0.8-0.5-1.2c-0.2-0.3-0.4-0.7-0.7-1c-0.2-0.3-0.5-0.6-0.8-0.9c-0.3-0.3-0.6-0.5-0.9-0.8
		c-0.4-0.2-0.8-0.4-1.2-0.6c-0.4-0.2-0.8-0.3-1.2-0.4c-0.5-0.1-0.9-0.2-1.4-0.2c-0.3,0-0.6,0-0.9,0.1c-0.3,0-0.7,0-1,0.1
		c-0.3,0.1-0.7,0.3-1.1,0.4c-0.3,0.1-0.7,0.3-1,0.4c-0.4,0.2-0.8,0.4-1.1,0.6c-0.3,0.3-0.7,0.5-1,0.8c-0.4,0.3-0.8,0.6-1.1,0.9
		c-0.3,0.3-0.7,0.6-1,1c-0.3,0.3-0.6,0.7-0.9,1.1c-0.3,0.4-0.5,0.8-0.8,1.3c-0.3,0.4-0.6,0.8-0.8,1.3c-0.1,0.6-0.3,1.1-0.6,1.6
		C609.2,659,609,659.6,609.1,660z"/>
</g>
<path d="M607,605.8c-4.2,0-7.4,10.1-14.2,9.8s-6.8-6.1-6.8-8.3c0-4.7,4.7-12.5,7.2-15.4s6.2-6.7,13.5-6.7c10.1,0,12,10.3,20,10.3
	c4.6,0,8.1-12.5,16.8-12.5c15.5,0,5.2,16.8,3.6,19.3c-2.6,4.1-10.3,14.7-20.7,14.7C616,616.9,614,605.8,607,605.8"/>
<g>
	<path fill="#F1CC5A" d="M548.5,729.6H395.2c-12.8,0-23.2-10.4-23.2-23.2v-128c0-12.8,10.4-23.2,23.2-23.2h153.3
		c12.8,0,23.2,10.4,23.2,23.2v128C571.7,719.1,561.3,729.6,548.5,729.6z"/>
	<path fill="#FFEDBB" d="M537.1,714.7H406.6c-12.8,0-23.2-10.4-23.2-23.2v-97.9c0-12.8,10.4-23.2,23.2-23.2h130.6
		c12.8,0,23.2,10.4,23.2,23.2v97.9C560.3,704.3,549.9,714.7,537.1,714.7z"/>
</g>
</svg>
