<?xml version="1.0" encoding="utf-8"?>
<!-- Generator: Adobe Illustrator 18.0.0, SVG Export Plug-In . SVG Version: 6.00 Build 0)  -->
<!DOCTYPE svg PUBLIC "-//W3C//DTD SVG 1.0//EN" "http://www.w3.org/TR/2001/REC-SVG-20010904/DTD/svg10.dtd">
<svg version="1.0" id="Camada_1" xmlns="http://www.w3.org/2000/svg" xmlns:xlink="http://www.w3.org/1999/xlink" x="0px" y="0px"
	 viewBox="0 0 1024 768" enable-background="new 0 0 1024 768" xml:space="preserve">
<image overflow="visible" width="1500" height="1500" xlink:href="../../../Desenhos Jogo Yegatu/png2/xapewa.png"  transform="matrix(0.5999 0 0 0.5999 67.1262 -142)">
</image>
<g>
	<path d="M448.5,758.9l-0.1-0.1c-0.1-0.1-0.1-0.1-0.2-0.2c-0.1-0.1-0.1-0.2-0.1-0.3c-0.2-0.2-0.3-0.5-0.3-0.8
		c-0.1-0.1-0.1-0.3-0.2-0.4c0-0.2,0-0.4-0.1-0.5c-0.1-0.4-0.1-0.8-0.2-1.2c-0.1-0.3-0.1-0.5-0.1-0.7c-0.1-0.3-0.1-0.5-0.1-0.8
		c-0.1-0.2-0.1-0.4-0.1-0.7c-0.1-0.3-0.1-0.6-0.1-0.9c-0.1-0.6-0.1-1.2-0.2-1.8c0-0.3,0-0.7,0-1c-0.1-0.3-0.1-0.7-0.1-1
		c-0.1-0.7-0.1-1.5-0.1-2.2c-0.1-0.8-0.1-1.5-0.1-2.3c-0.2-1.3,0-2.6-0.2-3.8c0-1.9,0.2-3.8-0.1-5.6c0-4.2,0-8.3,0-12.5
		c0.3-2.8-0.1-5.6,0.2-8.4c0-1.7,0-3.5,0-5.2c0.2-1.7,0-3.5,0.2-5.2c0-1.2,0-2.4,0.1-3.6c0-1.2,0-2.3,0.1-3.5c0-1.2,0-2.3,0.1-3.5
		c0-1.2,0-2.5,0-3.7c0.2-2.3,0.2-4.8,0-7c0-1.7,0.1-3.4-0.1-5c0-1.1,0-2.1-0.1-3.2c0-0.5,0-1,0-1.5c-0.1-1-0.1-2-0.2-3
		c0-0.5,0-1-0.1-1.5c0-0.5,0-0.9,0-1.4c-0.1-0.5-0.1-0.9-0.1-1.4c-0.1-0.9-0.1-1.8-0.2-2.7c0-0.4,0-0.8-0.1-1.3c0-0.4,0-0.8,0-1.2
		c-0.1-0.4-0.1-0.8-0.1-1.2c-0.1-0.8-0.1-1.5-0.2-2.3c0-0.4,0-0.8,0-1.1c-0.2-1,0-2-0.2-3c0-1.6-0.4-4,0.1-5.5c0-0.2,0-0.4,0-0.6
		c0.1-0.3,0.1-0.7,0.2-1c0.2-0.4,0.4-0.7,0.8-0.9c0.3-0.1,0.5-0.3,0.8-0.4c0.8-0.2,1.5-0.4,2.3-0.6c1.5-0.2,3.1-0.5,4.6-0.5
		c0.6-0.1,1.2-0.1,1.7-0.2c0.6,0,1.2,0,1.8,0c1.8-0.2,3.6-0.1,5.4-0.1c1.1,0.1,2.2,0.1,3.3,0.2c0.5,0,1,0,1.5,0.1
		c0.8,0.1,1.7,0.1,2.5,0.2c0.3,0.1,0.6,0.1,0.9,0.2c0.2,0.1,0.4,0.1,0.7,0.2c0.1,0.1,0.3,0.1,0.4,0.2c0.3,0.2,0.6,0.4,0.8,0.7
		c0.2,0.2,0.3,0.4,0.4,0.7c0,0.3,0,0.6-0.1,0.9c0.1,0.5,0,1-0.1,1.5c-0.4,1-0.5,1.8-0.2,2.5c0.1,0.3,0.4,0,1.1-0.8
		c0.3-0.3,0.6-0.5,1.1-0.7c0.3-0.2,0.7-0.4,1.1-0.7c0.3-0.3,0.7-0.5,1.1-0.6c0.3-0.2,0.7-0.4,1.1-0.6c0.3-0.2,0.7-0.4,1.1-0.6
		c0.3-0.1,0.7-0.3,1.1-0.5c0.8-0.2,1.5-0.5,2.2-0.9c0.8-0.2,1.5-0.4,2.2-0.7c0.4-0.1,0.8-0.2,1.1-0.3c1.5-0.2,2.9-0.7,4.4-0.7
		c0.4-0.1,0.8-0.1,1.1-0.1c1-0.2,2.2-0.1,3.2-0.1c0.9,0.2,2.2,0.3,3.1,0.3c1,0.2,2.1,0.3,3.1,0.7c0.3,0.1,0.6,0.2,0.9,0.3
		c0.7,0.2,1.3,0.4,2,0.6c0.6,0.2,1.2,0.5,1.8,0.9c0.3,0.1,0.6,0.3,0.9,0.4c0.3,0.2,0.6,0.4,0.9,0.5c0.3,0.2,0.6,0.4,0.9,0.6
		c0.9,0.4,1.8,1.1,2.5,1.8c0.3,0.2,0.5,0.4,0.8,0.6c0.3,0.3,0.5,0.5,0.8,0.7c0.3,0.3,0.5,0.5,0.8,0.7c0.3,0.3,0.5,0.5,0.7,0.8
		c0.3,0.3,0.5,0.5,0.7,0.8c0.3,0.3,0.5,0.5,0.7,0.8c0.3,0.3,0.5,0.6,0.7,0.9c0.4,0.6,0.8,1.2,1.3,1.8c0.2,0.3,0.4,0.6,0.6,0.9
		c0.3,0.7,0.7,1.4,1.1,2c0.1,0.3,0.3,0.7,0.5,1c0.1,0.4,0.3,0.8,0.4,1.1c0.2,0.3,0.4,0.7,0.5,1.1c0.6,1.5,1.2,3.1,1.5,4.6
		c0.1,0.4,0.2,0.8,0.3,1.2c0.5,1.7,0.7,3.5,0.9,5.2c0,0.5,0,0.9,0.1,1.3c0,0.5,0,0.9,0.1,1.4c0,2,0,4,0,5.9
		c-0.1,0.5-0.1,1.1-0.2,1.6c0,1-0.1,2-0.3,3c-0.4,1.4-0.7,2.9-0.9,4.3c-0.2,0.9-0.5,1.8-0.8,2.7c-0.5,1.2-1.1,2.6-1.5,3.8
		c-0.4,0.8-0.8,1.6-1.2,2.3c-0.2,0.4-0.4,0.8-0.6,1.1c-0.7,1-1.5,2.1-2.1,3.1c-0.3,0.3-0.5,0.7-0.8,1c-0.3,0.3-0.5,0.6-0.8,0.9
		c-0.2,0.3-0.5,0.6-0.8,0.9c-0.5,0.5-1.1,1.1-1.6,1.6c-1.2,1-2.4,2-3.7,2.8c-0.9,0.7-1.9,1.3-2.9,1.7c-0.3,0.2-0.7,0.4-1,0.5
		c-0.9,0.6-2,0.9-3,1.3c-0.3,0.1-0.7,0.2-1.1,0.3c-0.3,0.1-0.7,0.2-1,0.3c-0.3,0.1-0.7,0.1-1.1,0.2c-0.3,0.1-0.7,0.2-1,0.3
		c-0.7,0-1.5,0.1-2.2,0.3c-0.3,0-0.7,0-1,0.1c-1.4,0-2.9,0.2-4.3-0.1c-0.7-0.1-1.5-0.1-2.2-0.2c-0.3-0.1-0.7-0.1-1-0.2
		c-0.7-0.2-1.4-0.4-2.1-0.6c-0.3-0.1-0.7-0.2-1-0.3c-1.1-0.2-2.2-0.7-3.1-1.2c-0.3-0.1-0.7-0.3-1-0.5c-0.6-0.3-1.3-0.7-1.9-1.1
		c-0.4-0.1-0.7-0.3-0.9-0.6c-1-1-1.2-0.8-0.8,0.6c0.4,2.3,0.5,4.9,0.5,7.1c0.1,0.5,0.1,1.1,0.1,1.6c0.1,0.5,0.1,1,0.1,1.5
		c0.1,0.5,0.1,1.1,0.1,1.6c0.1,0.5,0.1,1.1,0.1,1.6c0.1,0.5,0.1,1.1,0.1,1.6c0.1,0.5,0.1,1.1,0.1,1.6c0.1,1.1,0.1,2.1,0.2,3.2
		c0,0.5,0,1.1,0.1,1.6c0,0.5,0,1.1,0,1.6c0.1,1.1,0.1,2.1,0.2,3.2c0,1,0,2,0,3c0.3,2.3,0.1,4.7,0.1,6.9c-0.1,0.8-0.1,1.6-0.1,2.4
		c-0.1,0.7-0.1,1.4-0.2,2.1c0,0.3,0,0.7-0.1,1c0,0.3,0,0.6-0.1,0.9c0,0.3,0,0.5-0.1,0.8c-0.1,0.2-0.1,0.4-0.2,0.7
		c0,0.2,0,0.4-0.1,0.6c-0.1,0.1-0.1,0.3-0.2,0.5c-0.1,0.3-0.3,0.5-0.5,0.7c-0.1,0.1-0.1,0.1-0.2,0.2c-1.6,1-4,1.7-5.9,2
		c-0.5,0.1-0.9,0.2-1.4,0.3c-1.8,0.5-3.8,0.6-5.7,0.9c-0.5,0-1,0-1.5,0.1c-0.5,0-0.9,0-1.4,0.1c-1.4,0-2.8,0.1-4.1-0.1
		c-0.8,0-1.7-0.1-2.5-0.3c-0.4,0-0.8-0.1-1.1-0.2c-0.3-0.1-0.7-0.1-1.1-0.2c-0.3-0.1-0.6-0.2-0.9-0.3
		C449.6,759.5,449.1,759.2,448.5,758.9z M487.3,689c0.4,0.1,0.8,0.2,1.3,0.2c1.7,0.3,3.4-0.6,4.8-1.4c0.8-0.5,1.4-1,2-1.7
		c0.3-0.3,0.6-0.7,0.9-1c0.4-0.7,0.8-1.5,1.2-2.2c0.1-0.4,0.2-0.8,0.3-1.2c0.1-0.4,0.2-0.8,0.2-1.2c0.1-0.4,0.1-0.8,0-1.3
		c0-0.9-0.1-1.8-0.4-2.7c-0.1-0.5-0.2-0.9-0.4-1.4c-0.1-0.5-0.3-0.9-0.6-1.3c-0.6-1.2-1.5-2.4-2.6-3.1c-0.3-0.3-0.7-0.5-1.1-0.7
		c-0.5-0.1-0.9-0.2-1.4-0.3c-2.2-0.6-5,0.2-6.8,1.4c-1.6,1-2.6,2.2-3.7,3.6c-0.2,0.3-0.4,0.7-0.6,1.1c-0.7,1.7-1,3.5-0.7,5.3
		c0.2,1,0.5,1.9,1,2.7c0.2,0.4,0.4,0.8,0.7,1.2c0.5,0.7,1.1,1.4,1.8,1.9c0.6,0.5,1.3,0.9,2,1.3C485.8,688.5,486.5,688.8,487.3,689
		C487.7,689.1,486.9,688.9,487.3,689z"/>
	<path d="M599.5,693c-0.1,0.7-0.3,1.4-0.5,2.1c-0.1,0.4-0.3,0.8-0.4,1.1c-0.2,0.4-0.4,0.8-0.5,1.1c-0.2,0.3-0.4,0.7-0.6,1
		c-0.2,0.4-0.4,0.8-0.6,1.1c-0.3,0.3-0.5,0.7-0.8,1c-0.2,0.3-0.4,0.7-0.7,1.1c-0.3,0.3-0.6,0.7-0.9,1c-0.3,0.3-0.6,0.6-0.9,0.9
		c-0.3,0.3-0.6,0.7-0.9,1c-0.7,0.6-1.4,1.2-2.1,1.8c-0.4,0.3-0.8,0.6-1.1,0.9c-0.4,0.3-0.8,0.5-1.2,0.8c-0.4,0.3-0.8,0.6-1.2,0.8
		c-0.8,0.6-1.6,1.1-2.4,1.5c-0.5,0.3-0.9,0.5-1.3,0.7c-0.8,0.5-1.7,0.9-2.6,1.3c-2.3,0.7-4.5,1.7-6.8,2.1c-1.3,0.4-2.8,0.6-4.1,0.6
		c-1.1,0.1-2.3,0.1-3.4,0.2c-1.1,0-2.2,0-3.3-0.1c-0.5,0-1.1,0-1.6,0c-0.5-0.1-1-0.1-1.5-0.1c-2-0.2-4-0.4-5.9-0.9
		c-0.5-0.1-0.9-0.2-1.4-0.3c-1.7-0.2-3.6-0.9-5.2-1.6c-0.4-0.1-0.8-0.3-1.2-0.5c-0.8-0.4-1.5-0.7-2.3-1c-0.8-0.4-1.5-0.8-2.1-1.3
		c-0.4-0.2-0.8-0.4-1.1-0.7c-0.3-0.2-0.7-0.4-1-0.7c-0.6-0.5-1.2-1-1.8-1.5c-0.3-0.3-0.6-0.5-0.9-0.8c-0.3-0.3-0.6-0.5-0.9-0.8
		c-0.3-0.3-0.5-0.6-0.8-0.9c-0.3-0.3-0.5-0.6-0.8-0.9c-0.3-0.3-0.5-0.7-0.8-1c-0.2-0.3-0.4-0.6-0.7-0.9c-0.6-1.1-1.3-2.1-1.9-3.2
		c-0.2-0.3-0.4-0.7-0.6-1c-0.2-0.4-0.4-0.8-0.5-1.2c-0.2-0.4-0.4-0.8-0.5-1.1c-0.9-1.9-1.7-4.3-2-6.3c-0.2-0.9-0.4-1.8-0.6-2.7
		c-0.2-0.9-0.3-1.7-0.3-2.6c-0.1-0.5-0.1-0.9-0.1-1.4c-0.2-1.2-0.2-2.7,0-3.9c0-0.5,0-0.9,0.1-1.3c0-1.3,0.3-2.6,0.5-3.9
		c0.1-0.4,0.2-0.8,0.3-1.2c0.1-0.5,0.2-0.9,0.3-1.3c0.4-1.2,0.7-2.5,1.3-3.6c0.1-0.4,0.3-0.8,0.5-1.2c0.1-0.4,0.3-0.8,0.5-1.1
		c0.2-0.4,0.4-0.8,0.6-1.2c0.4-0.8,0.8-1.5,1.3-2.2c0.2-0.3,0.4-0.7,0.7-1.1c1.1-1.8,2.6-3.6,4-5c0.3-0.3,0.6-0.6,0.9-0.9
		c0.3-0.3,0.6-0.5,0.9-0.8c0.9-0.9,2-1.8,3.1-2.5c2.3-1.9,5.2-3.6,8-4.5c0.4-0.2,0.8-0.4,1.2-0.5c1.2-0.5,2.6-1,3.9-1.2
		c0.5-0.1,0.9-0.3,1.4-0.4c0.5-0.1,0.9-0.1,1.4-0.2c0.6-0.1,1.2-0.2,1.8-0.3c1.2-0.3,2.4-0.4,3.6-0.4c4.4-0.5,8.5,0.5,12.9,1
		c0.9,0.2,1.8,0.5,2.7,0.9c0.5,0.1,0.9,0.3,1.3,0.5c1.7,0.5,3.5,1.5,4.9,2.4c1.9,1,3.6,2.5,5.2,3.8c0.9,0.9,1.7,1.8,2.6,2.6
		c0.3,0.3,0.5,0.6,0.8,0.9c0.3,0.3,0.5,0.7,0.8,1c0.3,0.3,0.5,0.6,0.7,0.9c0.3,0.3,0.5,0.7,0.7,1c0.3,0.3,0.5,0.6,0.7,0.9
		c0.6,1,1.2,2,1.8,3c0.1,0.3,0.3,0.7,0.5,1c0.1,0.3,0.3,0.7,0.4,1c0.4,0.6,0.7,1.3,0.9,2c0.3,0.6,0.5,1.2,0.7,1.9
		c0.1,0.3,0.2,0.7,0.3,1c0.2,0.6,0.4,1.2,0.5,1.8c0.1,0.3,0.2,0.6,0.3,0.9c0,0.6,0.1,1.2,0.3,1.8c0,0.3,0,0.5,0.1,0.8
		c0,0.3,0,0.5,0.1,0.8c0,1,0,2,0,3c-0.1,0.2-0.1,0.4-0.1,0.6c-0.1,0.2-0.1,0.4-0.1,0.6c-0.1,0.2-0.1,0.4-0.2,0.6
		c0,0.2,0,0.4-0.1,0.5c-0.1,0.3-0.3,0.6-0.5,0.9c-0.1,0.1-0.1,0.3-0.2,0.4c-0.1,0.1-0.2,0.2-0.3,0.3c-0.1,0.1-0.2,0.2-0.3,0.3
		c-0.1,0.1-0.3,0.2-0.5,0.3c-0.1,0.1-0.3,0.2-0.5,0.3c-0.2,0.1-0.4,0.2-0.6,0.3c-0.3,0.1-0.5,0.2-0.7,0.3c-0.3,0.1-0.5,0.2-0.8,0.3
		c-0.3,0.1-0.5,0.2-0.8,0.3c-0.3,0.1-0.6,0.2-0.9,0.3c-0.3,0.1-0.6,0.2-0.9,0.3c-0.3,0.1-0.7,0.1-1,0.2c-0.4,0.1-0.8,0.2-1.1,0.3
		c-0.8,0.2-1.5,0.4-2.3,0.6c-0.8,0.2-1.6,0.3-2.4,0.4c-2.1,0.7-4.5,0.8-6.6,1.1c-1,0.1-1.9,0.1-2.9,0.2c-0.5,0.1-0.9,0.1-1.4,0.2
		c-0.5,0-1,0-1.5,0.1c-0.5,0-0.9,0-1.4,0c-2.4,0.3-4.9,0.1-7.3,0.1c-1.4-0.2-2.9-0.3-4.3-0.3c-1.8-0.3-3.6-0.5-5.4-0.8
		c-0.5-0.1-0.9-0.2-1.3-0.3c-0.5,0-0.9-0.1-1.2-0.4c-0.7-0.4-1.1-0.5-1.2-0.3c-0.2,0.3-0.2,0.8,0,1.5c0.1,0.5,0.2,1,0.2,1.6
		c0.2,1,0.4,2,0.7,2.9c0.4,0.9,0.8,1.8,1.3,2.7c0.5,0.8,1.1,1.5,1.8,2.1c0.3,0.3,0.7,0.5,1.1,0.8c0.5,0.3,0.9,0.5,1.4,0.6
		c0.5,0.2,1,0.3,1.5,0.4c1.1,0.3,2.2,0.3,3.3,0c1.7-0.2,3.4-1,4.7-2.1c0.6-0.4,1.2-0.8,1.7-1.2c0.3-0.1,0.5-0.3,0.7-0.4
		c0.3-0.1,0.5-0.1,0.7-0.2c1.2-0.2,2.4-0.4,3.6-0.6c0.6-0.1,1.2-0.1,1.8-0.2c2.8-0.7,5.8-0.7,8.7-1.1c1-0.1,2.1-0.1,3.1-0.2
		c1-0.1,1.9-0.1,2.9-0.2c1.5,0,3.1-0.2,4.5,0.1c0.3,0,0.5,0,0.8,0.1c0.2,0,0.4,0,0.7,0.1c0.1,0,0.3,0,0.5,0.1
		c0.1,0.1,0.3,0.1,0.4,0.2C599.5,692.6,599.6,692.7,599.5,693C599.4,693.3,599.6,692.8,599.5,693z M554.8,673.6
		c0.1,0.3,0.5,0.5,1.2,0.6c0.5,0.1,0.9,0.2,1.4,0.5c0.4,0.1,0.9,0.3,1.4,0.4c0.5,0.1,1,0.2,1.5,0.3c0.5,0.1,1,0.1,1.5,0.2
		c0.5,0,1,0,1.5,0.1c1.4,0,2.9,0.1,4.3-0.1c0.8,0,1.6-0.1,2.3-0.4c0.3-0.1,0.6-0.1,0.9-0.2c0.3-0.1,0.5-0.3,0.7-0.4
		c0.2-0.1,0.4-0.2,0.5-0.4c1.5-1.5,1.9-3.6,1.6-5.6c-0.1-0.4-0.2-0.8-0.3-1.1c-0.1-0.4-0.3-0.8-0.5-1.2c-0.2-0.3-0.4-0.7-0.7-1
		c-0.2-0.3-0.5-0.6-0.8-0.9c-0.9-0.9-2.1-1.6-3.3-1.8c-0.8-0.2-1.5-0.3-2.3-0.1c-0.3,0-0.7,0-1,0.1c-0.7,0.2-1.4,0.5-2.1,0.8
		c-0.4,0.2-0.8,0.4-1.1,0.6c-0.3,0.3-0.7,0.5-1,0.8c-0.4,0.3-0.8,0.6-1.1,0.9c-0.3,0.3-0.7,0.6-1,1c-0.3,0.3-0.6,0.7-0.9,1.1
		c-0.9,1.4-1.4,2.8-2.2,4.2C554.9,672.6,554.8,673.2,554.8,673.6C555,673.8,554.8,673.2,554.8,673.6z"/>
	<path d="M606.7,644c0.1-0.1,0.3-0.2,0.4-0.3c0.5-0.2,1-0.3,1.5-0.4c0.4-0.1,0.8-0.1,1.1-0.1c0.9-0.2,1.8-0.3,2.7-0.3
		c0.5-0.1,1-0.1,1.5-0.2c0.5,0,1.1,0,1.6,0c1.1-0.1,2.3-0.1,3.4-0.2c1.7,0,3.5,0,5.2,0c1.1,0.1,2.1,0.1,3.2,0.2c0.5,0,1,0,1.5,0.1
		c0.4,0,0.8,0,1.3,0.1c1,0,2,0.3,2.9,0.5c0.1,0.1,0.3,0.1,0.5,0.2c0.1,0.1,0.1,0.2,0.2,0.3c0.1,0.1,0.2,0.2,0.3,0.3
		c0.3,0.7,0.6,1.4,0.8,2.1c0.1,0.3,0.1,0.5,0.1,0.8c0.3,1.2,0.7,2.5,0.7,3.8c0.7,3.5,0.8,7.2,1.7,10.7c0.1,0.5,0.1,1.1,0.2,1.6
		c0.1,0.5,0.2,1.1,0.3,1.6c0.1,0.5,0.3,1.1,0.4,1.6c0.3,2.9,1.3,5.9,1.9,8.7c0.2,0.7,0.4,1.3,0.5,1.9c0.4,0.6,0.6,1.2,0.6,1.8
		c-0.1,1.1,0.1,1.7,0.6,1.9c0.3,0.1,0.5-0.3,0.7-1.4c0.6-2,2.2-3.8,2.9-5.8c0.3-0.5,0.5-1,0.7-1.5c0.8-1.5,1.5-3.1,2.2-4.6
		c0.7-1.5,1.3-3,2-4.5c1.2-2.9,2.5-5.7,3.7-8.5c0.3-0.9,0.7-1.7,1.1-2.5c0.3-0.7,0.7-1.5,1-2.2c0.2-0.3,0.4-0.7,0.5-1.1
		c0.1-0.3,0.3-0.6,0.5-0.9c0.4-1.1,1.1-2.1,1.6-3.1c0.1-0.1,0.3-0.3,0.4-0.5c0.2-0.3,0.4-0.5,0.6-0.7c0.3-0.2,0.4-0.3,0.8-0.3
		c0.1,0.1,0.2,0.1,0.3,0.1c0.1,0.1,0.2,0.2,0.3,0.3c0.3,0.3,0.5,0.5,0.8,0.8c0.3,0.4,0.5,0.8,0.8,1.2c0.2,0.3,0.4,0.5,0.5,0.7
		c0.2,0.3,0.4,0.5,0.5,0.8c0.2,0.3,0.4,0.6,0.5,0.9c0.4,0.6,0.8,1.3,1.1,2c0.9,1.5,1.7,3.1,2.5,4.7c0.8,1.3,1.4,2.7,2.1,4
		c0.2,0.5,0.4,0.9,0.7,1.4c1.1,2.5,2.5,4.8,3.6,7.3c1,2,2.1,4,3,6c0.5,1,1,1.9,1.5,2.9c0.5,1,1,1.9,1.5,2.9c0.2,1,0.4,1.4,0.7,1.3
		c0.5-1.2,0.8-2.4,1-3.6c0.2-0.5,0.3-1.1,0.4-1.7c0.3-1.2,0.5-2.3,0.7-3.5c0.1-0.6,0.3-1.2,0.4-1.7c0.1-1.1,0.3-2.3,0.5-3.4
		c0.2-1.6,0.5-3.2,0.5-4.8c0.2-1,0.3-1.9,0.3-2.9c0.1-0.5,0.1-1,0.1-1.5c0.1-0.4,0.1-0.8,0.2-1.3c0-0.5,0-0.9,0.1-1.4
		c0-0.4,0-0.8,0-1.2c0.1-0.4,0.1-0.8,0.1-1.2c0.1-0.4,0.1-0.8,0.1-1.2c0.1-0.3,0.1-0.7,0.1-1c0.1-0.3,0.1-0.7,0.1-1
		c0.1-0.3,0.1-0.7,0.1-1c0.1-0.3,0.1-0.5,0.1-0.8c0.1-0.3,0.1-0.5,0.1-0.8c0.1-0.3,0.1-0.5,0.2-0.7c0-0.4,0.1-0.8,0.3-1.2
		c0.1-0.3,0.3-0.5,0.4-0.8c0.1-0.1,0.2-0.1,0.3-0.2c0.7-0.7,2.4-0.8,3.2-0.8c0.4-0.1,0.8-0.1,1.2-0.1c1-0.1,1.9-0.1,2.9-0.2
		c1.1,0,2.1,0,3.2,0c1.1,0.1,2.3,0.1,3.4,0.1c0.6,0.1,1.2,0.1,1.7,0.1c0.6,0.1,1.2,0.1,1.7,0.1c0.5,0.1,1.1,0.1,1.6,0.2
		c1.4,0,2.9,0.3,4.3,0.5c1,0,2.1,0.2,3,0.6c0.2,0.1,0.4,0.1,0.6,0.2c0.1,0.1,0.3,0.1,0.4,0.2c0,0.1,0,0.1,0.1,0.1c0,0.1,0,0.2,0,0.3
		c0.1,0.2,0.2,0.5,0.2,0.7c0,0.3,0,0.7,0,1c0.6,1.8,0.3,5.1,0,6.9c0,0.8,0,1.5-0.1,2.3c0,0.4,0,0.8,0,1.2c-0.1,0.9-0.1,1.7-0.2,2.6
		c0,0.4,0,0.8-0.1,1.3c0,0.5,0,0.9-0.1,1.4c-0.1,1-0.1,1.9-0.2,2.9c-0.2,1-0.3,2-0.3,3c-0.2,1.6-0.4,3.2-0.6,4.7
		c0,1.1-0.2,2.2-0.4,3.2c-0.2,1.6-0.3,3.3-0.7,4.8c-0.1,1.1-0.3,2.2-0.5,3.3c-0.1,0.5-0.2,1.1-0.3,1.6c-0.1,0.5-0.2,1.1-0.3,1.6
		c-0.1,0.5-0.2,1.1-0.3,1.6c-0.2,1.1-0.4,2.2-0.6,3.2c-0.1,0.5-0.3,1.1-0.4,1.6c-0.4,3-1.5,6.1-2.3,9.1c-0.3,0.9-0.6,1.8-0.9,2.7
		c-0.3,0.9-0.7,1.7-1,2.6c-0.1,0.4-0.3,0.8-0.5,1.2c-0.1,0.4-0.3,0.8-0.5,1.2c-0.2,0.3-0.4,0.7-0.5,1.1c-0.2,0.3-0.4,0.7-0.6,1.1
		c-0.1,0.3-0.3,0.7-0.5,1c-0.1,0.1-0.2,0.1-0.3,0.2c-0.2,0.1-0.4,0.2-0.5,0.3c-0.3,0.1-0.5,0.1-0.7,0.2c-1.6,0.3-3.1,0.7-4.7,0.7
		c-0.5,0.1-1,0.1-1.5,0.2c-0.5,0-1,0-1.5,0.1c-0.6,0-1.2,0-1.7,0.1c-0.6,0-1.2,0-1.7,0c-1.2,0.1-2.4,0.1-3.6,0.1
		c-1.2,0.1-2.3,0.1-3.5,0c-1.1,0-2.3,0-3.4,0c-0.5-0.1-1.1-0.1-1.6-0.1c-0.5-0.1-1-0.1-1.5-0.1c-0.5-0.1-0.9-0.1-1.4-0.1
		c-0.8-0.1-1.6-0.2-2.4-0.4c-0.3,0-0.6-0.1-0.9-0.2c-0.4-0.1-1.3-0.2-1.5-0.7c-0.3-0.5-0.5-0.9-0.8-1.4c-1.3-1.9-2-4.2-3.2-6.1
		c-0.1-0.4-0.3-0.8-0.5-1.2c-0.1-0.3-0.3-0.7-0.5-1.1c-0.1-0.3-0.3-0.7-0.4-1c-0.1-0.4-0.3-0.8-0.4-1.1c-0.4-1.1-0.9-2.1-1.1-3.2
		c-0.1-0.4-0.2-0.8-0.3-1.1c-0.1-0.4-0.3-0.8-0.4-1.1c-0.1-0.4-0.2-0.8-0.3-1.1c-0.1-0.4-0.2-0.8-0.3-1.2c-0.1-0.4-0.1-0.8-0.2-1.2
		c-0.1-0.4-0.2-0.8-0.3-1.2c-0.3-0.5-0.4-0.9-0.3-1.3c0.1-0.9,0-1.3-0.3-1.3c0,0-1.3,4.7-1.5,5c-0.1,0.4-0.2,0.8-0.3,1.2
		c-0.1,0.4-0.3,0.8-0.4,1.1c-0.2,0.8-0.5,1.5-0.8,2.3c-0.1,0.4-0.3,0.8-0.4,1.2c-0.4,0.7-0.7,1.5-0.9,2.2c-0.2,0.4-0.4,0.8-0.5,1.1
		c-0.2,0.4-0.4,0.8-0.5,1.1c-0.2,0.4-0.4,0.8-0.6,1.1c-0.2,0.4-0.4,0.8-0.6,1.2c-0.4,0.7-0.8,1.5-1.2,2.2c-0.4,0.8-0.9,1.6-1.4,2.3
		c-0.5,0.8-1.1,1.6-1.6,2.4c-0.1,0.1-0.2,0.2-0.3,0.3c-1.1,0.4-2.2,0.7-3.4,0.7c-0.4,0.1-0.8,0.1-1.3,0.2c-0.5,0-0.9,0-1.4,0.1
		c-0.5,0-1,0-1.5,0.1c-0.6,0-1.2,0-1.7,0c-3.4,0.4-7.4,0.4-10.8,0c-1.1,0-2.3,0-3.4-0.1c-0.5,0-1.1,0-1.6-0.1
		c-1-0.1-1.9-0.1-2.9-0.2c-0.4-0.1-0.8-0.1-1.2-0.2c-1,0-2.3-0.2-3.2-0.7c-0.1-0.1-0.1-0.1-0.2-0.2c-2.2-3.6-3.8-9.2-4.4-13.4
		c-0.3-1-0.5-2-0.7-3c-0.1-0.5-0.3-1-0.4-1.5c-0.1-0.5-0.2-1.1-0.3-1.6c-0.2-1-0.4-2.1-0.6-3.1c-0.1-0.5-0.2-1.1-0.3-1.6
		c-0.1-0.5-0.2-1.1-0.3-1.7c-0.2-1.1-0.4-2.1-0.6-3.2c-0.1-0.6-0.1-1.2-0.2-1.7c-0.4-1.6-0.4-3.3-0.8-4.9c-0.5-3.7-1.3-7.6-1.3-11.3
		c-0.1-1-0.3-2-0.4-3c-0.1-1-0.1-1.9-0.2-2.9c-0.1-0.5-0.1-0.9-0.1-1.4c-0.1-0.4-0.1-0.8-0.1-1.3c-0.1-0.5-0.1-0.9-0.1-1.3
		c-0.1-0.5-0.1-0.9-0.1-1.3c-0.1-0.8-0.1-1.5-0.1-2.3c-0.1-0.7-0.1-1.5-0.1-2.2c-0.3-1.3-0.4-3.6,0-4.9c0-0.3,0-0.7,0.1-1
		c0-0.3,0-0.5,0.1-0.8c0-0.1,0-0.1,0.1-0.2C606.6,644,606.7,644,606.7,644C606.9,643.9,606.7,644,606.7,644z"/>
	<path d="M761.5,705.2c-0.1-0.3-0.3,0-0.6,0.9c-0.1,0.3-0.4,0.5-0.7,0.8c-0.5,0.5-0.9,0.9-1.4,1.4c-0.3,0.3-0.5,0.5-0.7,0.7
		c-0.5,0.4-1,0.9-1.5,1.3c-0.3,0.2-0.5,0.4-0.8,0.6c-0.8,0.4-1.7,1-2.4,1.5c-0.6,0.3-1.1,0.6-1.7,0.8c-0.3,0.1-0.5,0.2-0.8,0.3
		c-0.3,0.1-0.6,0.3-0.9,0.4c-0.3,0.1-0.5,0.1-0.8,0.2c-0.9,0.5-2.5,0.8-3.5,0.8c-0.3,0.1-0.6,0.1-0.9,0.1c-0.6,0.1-1.2,0.1-1.8,0.1
		c-0.3,0.1-0.6,0.1-0.9,0c-0.6,0-1.1,0-1.7,0c-0.3-0.1-0.6-0.1-0.9-0.1c-0.3-0.1-0.6-0.1-0.9-0.2c-0.9,0-1.8-0.3-2.6-0.5
		c-0.6-0.2-1.2-0.4-1.8-0.6c-0.3-0.1-0.5-0.2-0.8-0.3c-0.3-0.1-0.6-0.3-0.9-0.4c-0.8-0.4-1.6-0.8-2.4-1.2c-0.3-0.2-0.5-0.4-0.8-0.5
		c-0.3-0.2-0.5-0.4-0.8-0.5c-0.3-0.2-0.5-0.4-0.8-0.6c-0.6-0.3-1.1-0.7-1.5-1.1c-0.8-0.6-1.6-1.2-2.2-2c-0.2-0.2-0.4-0.4-0.7-0.7
		c-0.2-0.3-0.4-0.5-0.7-0.8c-0.7-0.7-1.3-1.6-1.8-2.4c-0.2-0.3-0.4-0.5-0.6-0.8c-0.2-0.3-0.4-0.6-0.6-0.9c-0.1-0.3-0.3-0.6-0.5-0.9
		c-0.2-0.3-0.4-0.7-0.5-1c-0.4-0.6-0.7-1.3-1-1.9c-0.4-1.1-0.8-2.1-1.2-3.2c-0.1-0.3-0.2-0.7-0.3-1.1c-0.1-0.3-0.3-0.7-0.4-1.1
		c-0.1-0.4-0.1-0.8-0.2-1.1c-0.5-1.6-0.6-3.3-0.9-4.9c0-0.4,0-0.8-0.1-1.3c0-0.4,0-0.8-0.1-1.3c0-1.8-0.1-3.7,0.1-5.4
		c0-0.5,0-0.9,0.1-1.4c0-1.5,0.3-3,0.5-4.4c0.1-0.6,0.3-1.2,0.4-1.7c0.2-1.5,0.6-3.2,1.2-4.6c0.1-0.5,0.3-1,0.5-1.5
		c0.5-1.8,1.4-3.8,2.4-5.3c0.2-0.4,0.4-0.8,0.7-1.2c0.2-0.4,0.4-0.8,0.7-1.1c0.3-0.4,0.5-0.8,0.8-1.1c1.2-1.8,2.7-3.3,4.2-4.8
		c0.3-0.3,0.7-0.5,1-0.8c0.6-0.6,1.2-1.1,1.9-1.5c0.9-0.7,2-1.3,3-1.9c0.4-0.2,0.8-0.4,1.1-0.5c0.7-0.3,1.4-0.6,2.1-1
		c0.4-0.1,0.8-0.3,1.1-0.4c0.7-0.2,1.5-0.4,2.2-0.6c1.4-0.5,3.1-0.8,4.5-0.8c0.3-0.1,0.7-0.1,1.1-0.1c1.3-0.3,3.1-0.3,4.4,0
		c0.4,0,0.8,0,1.1,0.1c1.1,0,2.2,0.3,3.3,0.5c1,0.4,2.1,0.6,3.1,1c0.7,0.2,1.4,0.4,2,0.7c0.3,0.2,0.7,0.4,1,0.5
		c0.6,0.3,1.2,0.7,1.8,1c0.3,0.2,0.6,0.4,0.9,0.6c0.6,0.4,1.2,0.8,1.7,1.2c0.5,0.7,0.7,1,0.8,0.7c0.2-1.3,0.4-2.6,0.5-3.9
		c0.1-0.4,0.2-0.8,0.3-1.3c0-0.3,0.1-0.5,0.3-0.6c0.3-0.2,0.7-0.3,1.1-0.3c0.3-0.1,0.7-0.1,1-0.1c2.9-0.5,6.5-0.3,9.5,0
		c0.6,0,1.2,0,1.9,0.1c2.6,0,6.2,0.2,8.6,1.2c0.3,0.1,0.5,0.1,0.7,0.2c0.1,0.1,0.3,0.3,0.4,0.4l0.1,0.1c0,1.4,0.2,3.1-0.1,4.4
		c0,0.4,0,0.8,0,1.1c-0.1,0.8-0.1,1.6-0.2,2.4c0,0.4,0,0.8,0,1.3c-0.1,1-0.1,1.9-0.2,2.9c0,0.5,0,1.1,0,1.6
		c-0.1,1.1-0.1,2.3-0.2,3.4c0,0.6,0,1.2,0,1.7c-0.2,1.9,0,3.9-0.2,5.8c0,2.9,0,5.8,0,8.6c0.2,2.1,0,4.2,0.2,6.2c0,0.7,0,1.3,0,2
		c0.1,1.3,0.1,2.5,0.2,3.8c0,0.6,0,1.2,0.1,1.7c0,0.6,0,1.2,0,1.8c0.1,0.5,0.1,1.1,0.1,1.6c0.1,0.5,0.1,1.1,0.1,1.6
		c0.1,0.5,0.1,1,0.1,1.5c0.1,0.5,0.1,1,0.1,1.5c0.1,0.5,0.1,0.9,0.1,1.4c0.1,0.8,0.1,1.7,0.2,2.5c0,0.4,0,0.8,0.1,1.2
		c0,0.4,0,0.8,0,1.1c0.1,0.7,0.1,1.3,0.2,2c0,0.6,0,1.1,0.1,1.7c0,0.9,0.3,2.5-0.1,3.3c0,0.1,0,0.2,0,0.3c0,0.1-0.1,0.2-0.2,0.3
		c-0.1,0.1-0.3,0.1-0.4,0.2c-0.3,0.1-0.5,0.1-0.7,0.1c-0.3,0.1-0.7,0.1-1,0.2c-0.3,0-0.7,0-1.1,0.1c-0.5,0-0.9,0-1.3,0
		c-3.7,0.5-8.1,0.4-11.9,0c-0.6,0-1.2,0-1.7-0.1c-0.6,0-1.2,0-1.7,0c-0.5-0.1-1-0.1-1.5-0.1c-0.5-0.1-0.9-0.1-1.4-0.1
		c-0.4-0.1-0.8-0.1-1.2-0.1c-0.3-0.1-0.7-0.1-1-0.2c-0.3,0-0.5,0-0.8-0.1c-0.2-0.1-0.4-0.1-0.6-0.1c-0.1-0.1-0.2-0.1-0.3-0.2
		c-0.2-0.2-0.3-0.4-0.4-0.7c-0.1-0.3-0.2-0.5-0.3-0.8c-0.1-0.4-0.2-0.8-0.2-1.1c-0.1-0.5-0.1-0.9-0.1-1.3c0.1-0.5,0.1-1,0.1-1.5
		c-0.1-0.5-0.1-1.1,0-1.6C761.6,706.3,761.7,705.7,761.5,705.2C761.5,705,761.7,705.7,761.5,705.2z M752,666.5
		c-0.9-0.1-1.7-0.1-2.6-0.1c-0.9,0.2-1.7,0.4-2.5,0.7c-1.1,0.5-2.4,1.4-3.1,2.3c-0.6,0.6-1.2,1.3-1.7,2.1c-0.5,0.8-0.9,1.6-1.2,2.4
		c-0.1,0.4-0.3,0.8-0.4,1.3c-0.2,1.4-0.3,2.7-0.3,4c0.2,1.2,0.6,2.7,1.2,3.7c0.3,0.4,0.5,0.8,0.7,1.1c1,1.4,2.2,2.6,3.7,3.5
		c2.4,1.9,6,1.6,8.6,0.5c0.5-0.1,0.9-0.3,1.3-0.5c0.4-0.3,0.8-0.5,1.2-0.8c0.4-0.2,0.8-0.5,1.1-0.8c0.7-0.6,1.4-1.2,1.9-2
		c0.8-1,1.4-2.4,1.8-3.6c0.1-0.9,0.3-1.9,0.4-2.8c0-0.9-0.1-1.9-0.3-2.8c-0.1-0.5-0.3-0.9-0.4-1.3c-0.2-0.4-0.4-0.8-0.6-1.2
		c-0.2-0.3-0.4-0.7-0.7-1.1c-0.6-0.6-1.2-1.2-1.8-1.8c-0.4-0.3-0.8-0.6-1.1-0.8c-0.8-0.5-1.6-1-2.5-1.3
		C753.8,666.9,752.9,666.7,752,666.5C751.6,666.5,752.4,666.6,752,666.5z"/>
</g>
<g>
	<path fill="#F1CC5A" d="M410.3,729.6H257c-12.8,0-23.2-10.4-23.2-23.2v-128c0-12.8,10.4-23.2,23.2-23.2h153.3
		c12.8,0,23.2,10.4,23.2,23.2v128C433.5,719.1,423.1,729.6,410.3,729.6z"/>
	<path fill="#FFEDBB" d="M398.9,714.7H268.4c-12.8,0-23.2-10.4-23.2-23.2v-97.9c0-12.8,10.4-23.2,23.2-23.2H399
		c12.8,0,23.2,10.4,23.2,23.2v97.9C422.1,704.3,411.7,714.7,398.9,714.7z"/>
</g>
</svg>
