<?xml version="1.0" encoding="utf-8"?>
<!-- Generator: Adobe Illustrator 18.0.0, SVG Export Plug-In . SVG Version: 6.00 Build 0)  -->
<!DOCTYPE svg PUBLIC "-//W3C//DTD SVG 1.0//EN" "http://www.w3.org/TR/2001/REC-SVG-20010904/DTD/svg10.dtd">
<svg version="1.0" id="Camada_1" xmlns="http://www.w3.org/2000/svg" xmlns:xlink="http://www.w3.org/1999/xlink" x="0px" y="0px"
	 viewBox="0 0 1024 768" enable-background="new 0 0 1024 768" xml:space="preserve">
<image overflow="visible" width="1500" height="1500" xlink:href="../../../Desenhos Jogo Yegatu/png2/zagaya.png"  transform="matrix(0.3365 0.372 -0.372 0.3365 538.6013 -256.3701)">
</image>
<g>
	<path d="M460.3,729.5c0-0.1,0-0.3,0-0.4c0.2-0.7,0.9-1,1.5-1.3c0.9-0.7,2.1-1,3.1-1.3c0.9-0.4,1.8-0.7,2.8-0.9
		c1.6-0.2,3.1-0.8,4.6-1c0.5-0.1,1.1-0.2,1.6-0.3c2-0.5,4.1-0.6,6.1-0.9c0.5,0,0.9,0,1.4-0.1c0.4,0,0.8,0,1.2-0.1
		c0.7,0,1.4,0,2.1,0.1c0.2,0,0.4,0.1,0.6,0.2c0.2,0.1,0.4,0.2,0.5,0.3c0.2,0.1,0.3,0.3,0.4,0.4c0.1,0.1,0.2,0.3,0.3,0.5
		c0.1,0.1,0.2,0.3,0.3,0.5c0.1,0.2,0.2,0.4,0.3,0.6c0.2,0.4,0.5,0.8,0.8,1.1c0.2,0.2,0.4,0.4,0.6,0.6c0.3,0.2,0.5,0.4,0.8,0.5
		c0.7,0.4,1.6,0.7,2.4,0.8c0.5,0.1,1.1,0.2,1.7,0.3c0.6,0,1.3,0.1,1.9-0.1c0.5,0,1.1-0.1,1.6-0.3c0.3-0.1,0.5-0.2,0.8-0.3
		c0.5-0.3,1.1-0.5,1.6-0.8c0.3-0.2,0.6-0.4,0.9-0.5c0.3-0.2,0.5-0.4,0.8-0.6c0.3-0.3,0.5-0.5,0.8-0.7c0.6-0.5,1.1-1.1,1.6-1.7
		c0.6-0.6,1.1-1.3,1.5-2c0.3-0.4,0.5-0.8,0.7-1.1c1.5-3.6,2.9-7.3,2.9-11.3c0.1-0.7,0.1-1.4,0.1-2.1c0.1-1.5,0-3-0.2-4.5
		c-0.1-0.3-0.3,0-0.6,0.9c-0.5,0.6-1,1.2-1.5,1.8c-0.5,0.6-1,1.1-1.5,1.6c-0.3,0.2-0.5,0.4-0.8,0.7c-0.3,0.2-0.5,0.4-0.8,0.7
		c-0.3,0.2-0.6,0.4-0.9,0.6c-0.3,0.2-0.5,0.4-0.8,0.6c-0.6,0.4-1.2,0.8-1.8,1.2c-0.3,0.1-0.6,0.3-0.9,0.5c-0.3,0.1-0.6,0.3-0.9,0.4
		c-0.3,0.2-0.6,0.4-0.9,0.5c-0.3,0.1-0.7,0.3-1,0.4c-0.3,0.1-0.7,0.2-1,0.3c-0.3,0.1-0.6,0.2-0.9,0.3c-0.7,0.2-1.3,0.4-2,0.6
		c-0.7,0.1-1.3,0.3-2,0.4c-0.9,0-2.1,0.1-3,0.3c-1.4,0-2.8,0.1-4.1-0.1c-0.3,0-0.7,0-1-0.1c-1.4,0-3.6-0.4-4.9-1
		c-0.3-0.1-0.7-0.2-1-0.3c-0.7-0.2-1.3-0.4-1.9-0.7c-0.6-0.2-1.3-0.5-1.9-0.8c-0.3-0.1-0.6-0.3-0.9-0.5c-0.3-0.1-0.6-0.3-0.9-0.4
		c-0.3-0.2-0.6-0.4-0.9-0.6c-0.6-0.3-1.2-0.7-1.7-1.1c-0.6-0.4-1.2-0.8-1.7-1.3c-0.3-0.2-0.5-0.4-0.8-0.6c-0.7-0.7-1.5-1.5-2.2-2.2
		c-0.3-0.3-0.5-0.5-0.7-0.8c-0.3-0.3-0.5-0.6-0.7-0.9c-0.2-0.3-0.4-0.5-0.6-0.8c-0.3-0.3-0.5-0.6-0.7-0.9c-0.2-0.3-0.4-0.6-0.5-0.9
		c-0.2-0.3-0.4-0.7-0.6-1c-0.2-0.3-0.4-0.6-0.5-0.9c-0.2-0.3-0.4-0.7-0.5-1c-0.8-1.3-1.2-2.9-1.7-4.3c-0.1-0.3-0.2-0.7-0.3-1.1
		c-0.1-0.4-0.1-0.8-0.2-1.2c-0.4-1.1-0.6-2.4-0.6-3.6c-0.1-0.5-0.1-0.9-0.1-1.3c-0.3-1.7-0.2-3.7,0-5.3c0-0.5,0-0.9,0.1-1.4
		c0-1,0.1-2,0.4-3c0.1-1,0.3-2,0.5-3c0.3-2.3,1.2-4.6,1.9-6.7c0.2-0.4,0.4-0.8,0.5-1.3c0.2-0.4,0.4-0.8,0.5-1.2
		c0.4-0.8,0.8-1.6,1.2-2.4c0.2-0.3,0.4-0.7,0.6-1.1c0.2-0.3,0.4-0.7,0.6-1.1c0.4-0.8,0.8-1.5,1.3-2.1c0.3-0.3,0.5-0.7,0.7-1
		c1.5-1.8,2.9-3.8,4.7-5.3c0.8-0.8,1.6-1.5,2.5-2.2c0.3-0.3,0.6-0.5,0.9-0.7c0.3-0.2,0.6-0.4,0.9-0.6c0.3-0.2,0.6-0.4,0.9-0.6
		c0.3-0.2,0.7-0.4,1-0.6c0.3-0.2,0.6-0.4,0.9-0.5c0.3-0.2,0.6-0.4,0.9-0.5c0.3-0.1,0.7-0.3,1-0.4c0.3-0.2,0.7-0.4,1-0.5
		c0.3-0.1,0.6-0.2,0.9-0.3c0.3-0.1,0.7-0.3,1-0.4c0.3-0.1,0.7-0.2,1-0.3c0.3-0.1,0.7-0.2,1-0.3c0.9-0.2,1.9-0.5,2.9-0.5
		c0.3-0.1,0.7-0.1,1-0.2c0.3,0,0.7,0,1,0c0.9-0.2,2.1-0.2,3,0c0.3,0,0.7,0,1,0c0.3,0.1,0.7,0.1,1,0.2c1,0,2,0.3,2.9,0.5
		c0.3,0.1,0.6,0.2,0.9,0.3c0.3,0.1,0.7,0.2,1,0.3c0.6,0.3,1.2,0.5,1.8,0.8c0.3,0.1,0.6,0.3,0.9,0.4c0.3,0.2,0.6,0.4,0.9,0.5
		c0.3,0.2,0.6,0.4,0.9,0.5c0.6,0.4,1.2,0.8,1.8,1.2c0.3,0.2,0.5,0.4,0.8,0.6c0.3,0.3,0.5,0.5,0.8,0.7c0.3,0.2,0.6,0.5,0.8,0.8
		c0.5,0.8,0.7,1,0.8,0.7c0.1-0.7,0.1-1.6-0.1-2.5c-0.1-0.5-0.2-1.1-0.1-1.7c-0.1-0.7,0.1-1.4,0.6-1.9c0.3-0.3,0.5-0.6,0.8-0.8
		c0.2-0.1,0.4-0.2,0.6-0.3c0.3-0.1,0.6-0.2,0.9-0.3c0.3-0.1,0.7-0.2,1.1-0.3c3.6-1,7.6-1,11.3-1c0.9,0.1,1.7,0.2,2.6,0.4
		c0.4,0.1,0.7,0.3,1,0.4c0.3,0.1,0.6,0.2,0.7,0.5c0.2,0.1,0.3,0.3,0.4,0.6c0,0.1,0,0.3,0.1,0.4c0,0.2,0,0.4,0.1,0.6
		c0.1,0.1,0.1,0.3,0.1,0.5c0.1,0.2,0.1,0.4,0.1,0.7c0.1,0.2,0.1,0.4,0.2,0.6c0,0.3,0,0.5,0.1,0.8c0.1,0.2,0.1,0.4,0.2,0.7
		c0,0.6,0.1,1.2,0.3,1.7c0,1.4,0.6,2.6,0.6,4c0.5,2.8,0.9,5.6,1.4,8.4c0,3.8,1,7.9,1.5,11.7c0,2.2,0.6,4.3,0.6,6.4
		c0.2,1.1,0.3,2.2,0.3,3.3c0.2,1.1,0.3,2.2,0.3,3.3c0.1,0.6,0.1,1.2,0.2,1.7c0.1,1.2,0.1,2.3,0.2,3.5c0.1,0.5,0.1,1.1,0.1,1.7
		c0.1,0.7,0.1,1.5,0.2,2.2c0,0.7,0,1.4,0.1,2.1c0,0.7,0,1.4,0,2.1c0.1,1.3,0.1,2.7,0.2,4c0,2.5,0,5.1,0,7.6
		c-0.1,1.2-0.1,2.3-0.2,3.5c0,0.6,0,1.2-0.1,1.7c-0.1,1.1-0.1,2.2-0.2,3.3c-0.3,2.5-0.4,5.1-1.1,7.5c-0.1,0.5-0.1,0.9-0.2,1.4
		c-0.1,0.5-0.2,0.9-0.3,1.4c-0.1,0.4-0.3,0.8-0.4,1.3c-0.3,2-1.1,4.2-2,6c-0.1,0.3-0.3,0.7-0.4,1c-0.2,0.4-0.4,0.8-0.5,1.1
		c-0.2,0.3-0.4,0.7-0.6,1c-0.3,0.7-0.7,1.4-1.1,2c-0.2,0.3-0.4,0.6-0.6,0.9c-0.2,0.3-0.4,0.6-0.6,0.9c-0.2,0.3-0.4,0.5-0.7,0.8
		c-0.2,0.3-0.4,0.5-0.7,0.8c-0.2,0.3-0.4,0.5-0.7,0.8c-0.2,0.3-0.4,0.5-0.7,0.8c-0.3,0.2-0.5,0.4-0.8,0.7c-0.3,0.2-0.5,0.4-0.8,0.7
		c-0.3,0.2-0.5,0.4-0.8,0.6c-0.3,0.3-0.6,0.5-0.9,0.7c-0.3,0.2-0.6,0.4-0.9,0.6c-0.3,0.2-0.6,0.4-0.9,0.6c-0.6,0.4-1.3,0.7-1.9,1
		c-0.7,0.3-1.3,0.7-2,1c-1.1,0.4-2.2,0.8-3.3,1.2c-0.8,0.2-1.6,0.4-2.4,0.6c-0.4,0.1-0.8,0.2-1.2,0.3c-1.3,0.4-2.6,0.4-3.9,0.8
		c-0.4,0.1-0.8,0.1-1.3,0.1c-1,0.1-2,0.3-3,0.4c-0.5,0-1,0-1.5,0.1c-0.5,0-0.9,0-1.4,0c-0.9,0.1-1.9,0.1-2.8,0c-0.5,0-0.9,0-1.4,0
		c-0.5-0.1-0.9-0.1-1.4-0.1c-0.4-0.1-0.8-0.1-1.3-0.2c-0.9,0-1.8-0.1-2.6-0.4c-0.4-0.1-0.8-0.1-1.3-0.2c-0.4-0.1-0.8-0.2-1.2-0.3
		c-1.6-0.5-3.2-1-4.7-1.7c-0.4-0.1-0.8-0.3-1.1-0.5c-0.7-0.4-1.4-0.8-2.1-1.2c-0.4-0.2-0.8-0.4-1.1-0.6c-0.3-0.3-0.7-0.5-1-0.7
		c-0.6-0.6-1.2-1.1-1.9-1.5c-0.3-0.3-0.6-0.6-0.9-0.9c-0.7-0.5-1.2-1.1-1.7-1.8c-1.2-1.2-2.2-2.7-3.1-4.1c-0.2-0.3-0.4-0.7-0.6-1.1
		c-1-1.5-1.8-3.3-2.4-5c-0.2-0.5-0.4-0.9-0.5-1.4C461.2,733.6,460.8,731.5,460.3,729.5C460.3,729.3,460.5,730,460.3,729.5z
		 M500.6,678.7c0.3-0.9,0.5-1.8,0.7-2.7c0-0.5,0-0.9,0.1-1.4c0-0.5,0-0.9-0.1-1.4c0-0.4,0-0.8-0.1-1.3c-0.1-0.4-0.2-0.8-0.3-1.2
		c-0.1-0.5-0.3-0.9-0.5-1.3c-0.1-0.4-0.3-0.8-0.5-1.1c-0.3-0.4-0.5-0.8-0.7-1.1c-0.5-0.7-1-1.3-1.7-1.8c-0.3-0.3-0.7-0.5-1.1-0.8
		c-0.3-0.2-0.7-0.4-1.1-0.6c-1.2-0.5-2.3-0.7-3.5-0.9c-0.4,0-0.8,0-1.2,0.1c-0.4,0-0.8,0.1-1.2,0.2c-0.8,0.1-1.6,0.4-2.3,0.8
		c-1.5,0.9-2.9,1.9-4,3.3c-0.3,0.4-0.5,0.8-0.8,1.2c-0.3,0.5-0.5,0.9-0.8,1.4c-0.1,0.3-0.3,0.7-0.5,1.1c-0.1,0.4-0.2,0.8-0.3,1.2
		c-0.2,0.8-0.4,1.6-0.5,2.4c0,2,0.2,4.1,1.1,5.9c0.1,0.3,0.3,0.7,0.6,1c0.2,0.3,0.4,0.7,0.6,1c0.3,0.3,0.6,0.6,0.9,0.9
		c0.6,0.6,1.3,1.1,2,1.5c0.3,0.2,0.7,0.4,1.2,0.5c0.8,0.4,1.7,0.7,2.6,0.8c0.9,0,1.7,0,2.6,0c0.4-0.1,0.8-0.2,1.1-0.3
		c0.4-0.1,0.8-0.2,1.2-0.3c0.3-0.2,0.7-0.4,1.1-0.5c0.3-0.2,0.7-0.4,1-0.7c0.3-0.2,0.6-0.4,0.9-0.7c0.6-0.6,1.2-1.2,1.7-1.9
		c0.5-0.7,0.9-1.4,1.3-2.1C500.3,679.5,500.4,679.1,500.6,678.7C500.7,678.2,500.4,679.1,500.6,678.7z"/>
	<path d="M582,705.2c-0.1-0.3-0.3,0-0.6,0.9c-0.1,0.3-0.4,0.5-0.7,0.8c-0.5,0.5-0.9,0.9-1.4,1.4c-0.3,0.3-0.5,0.5-0.7,0.7
		c-0.5,0.4-1,0.9-1.5,1.3c-0.3,0.2-0.5,0.4-0.8,0.6c-0.8,0.4-1.7,1-2.4,1.5c-0.6,0.3-1.1,0.6-1.7,0.8c-0.3,0.1-0.5,0.2-0.8,0.3
		c-0.3,0.1-0.6,0.3-0.9,0.4c-0.3,0.1-0.5,0.1-0.8,0.2c-0.9,0.5-2.5,0.8-3.5,0.8c-0.3,0.1-0.6,0.1-0.9,0.1c-0.6,0.1-1.2,0.1-1.8,0.1
		c-0.3,0.1-0.6,0.1-0.9,0c-0.6,0-1.1,0-1.7,0c-0.3-0.1-0.6-0.1-0.9-0.1c-0.3-0.1-0.6-0.1-0.9-0.2c-0.9,0-1.8-0.3-2.6-0.5
		c-0.6-0.2-1.2-0.4-1.8-0.6c-0.3-0.1-0.5-0.2-0.8-0.3c-0.3-0.1-0.6-0.3-0.9-0.4c-0.8-0.4-1.6-0.8-2.4-1.2c-0.3-0.2-0.5-0.4-0.8-0.5
		c-0.3-0.2-0.5-0.4-0.8-0.5c-0.3-0.2-0.5-0.4-0.8-0.6c-0.6-0.3-1.1-0.7-1.5-1.1c-0.8-0.6-1.6-1.2-2.2-2c-0.2-0.2-0.4-0.4-0.7-0.7
		c-0.2-0.3-0.4-0.5-0.7-0.8c-0.7-0.7-1.3-1.6-1.8-2.4c-0.2-0.3-0.4-0.5-0.6-0.8c-0.2-0.3-0.4-0.6-0.6-0.9c-0.1-0.3-0.3-0.6-0.5-0.9
		c-0.2-0.3-0.4-0.7-0.5-1c-0.4-0.6-0.7-1.3-1-1.9c-0.4-1.1-0.8-2.1-1.2-3.2c-0.1-0.3-0.2-0.7-0.3-1.1c-0.1-0.3-0.3-0.7-0.4-1.1
		c-0.1-0.4-0.1-0.8-0.2-1.1c-0.5-1.6-0.6-3.3-0.9-4.9c0-0.4,0-0.8-0.1-1.3c0-0.4,0-0.8-0.1-1.3c0-1.8-0.1-3.7,0.1-5.4
		c0-0.5,0-0.9,0.1-1.4c0-1.5,0.3-3,0.5-4.4c0.1-0.6,0.3-1.2,0.4-1.7c0.2-1.5,0.6-3.2,1.2-4.6c0.1-0.5,0.3-1,0.5-1.5
		c0.5-1.8,1.4-3.8,2.4-5.3c0.2-0.4,0.4-0.8,0.7-1.2c0.2-0.4,0.4-0.8,0.7-1.1c0.3-0.4,0.5-0.8,0.8-1.1c1.2-1.8,2.7-3.3,4.2-4.8
		c0.3-0.3,0.7-0.5,1-0.8c0.6-0.6,1.2-1.1,1.9-1.5c0.9-0.7,2-1.3,3-1.9c0.4-0.2,0.8-0.4,1.1-0.5c0.7-0.3,1.4-0.6,2.1-1
		c0.4-0.1,0.8-0.3,1.1-0.4c0.7-0.2,1.5-0.4,2.2-0.6c1.4-0.5,3.1-0.8,4.5-0.8c0.3-0.1,0.7-0.1,1.1-0.1c1.3-0.3,3.1-0.3,4.4,0
		c0.4,0,0.8,0,1.1,0.1c1.1,0,2.2,0.3,3.3,0.5c1,0.4,2.1,0.6,3.1,1c0.7,0.2,1.4,0.4,2,0.7c0.3,0.2,0.7,0.4,1,0.5
		c0.6,0.3,1.2,0.7,1.8,1c0.3,0.2,0.6,0.4,0.9,0.6c0.6,0.4,1.2,0.8,1.7,1.2c0.5,0.7,0.7,1,0.8,0.7c0.2-1.3,0.4-2.6,0.5-3.9
		c0.1-0.4,0.2-0.8,0.3-1.3c0-0.3,0.1-0.5,0.3-0.6c0.3-0.2,0.7-0.3,1.1-0.3c0.3-0.1,0.7-0.1,1-0.1c2.9-0.5,6.5-0.3,9.5,0
		c0.6,0,1.2,0,1.9,0.1c2.6,0,6.2,0.2,8.6,1.2c0.3,0.1,0.5,0.1,0.7,0.2c0.1,0.1,0.3,0.3,0.4,0.4l0.1,0.1c0,1.4,0.2,3.1-0.1,4.4
		c0,0.4,0,0.8,0,1.1c-0.1,0.8-0.1,1.6-0.2,2.4c0,0.4,0,0.8,0,1.3c-0.1,1-0.1,1.9-0.2,2.9c0,0.5,0,1.1,0,1.6
		c-0.1,1.1-0.1,2.3-0.2,3.4c0,0.6,0,1.2,0,1.7c-0.2,1.9,0,3.9-0.2,5.8c0,2.9,0,5.8,0,8.6c0.2,2.1,0,4.2,0.2,6.2c0,0.7,0,1.3,0,2
		c0.1,1.3,0.1,2.5,0.2,3.8c0,0.6,0,1.2,0.1,1.7c0,0.6,0,1.2,0,1.8c0.1,0.5,0.1,1.1,0.1,1.6c0.1,0.5,0.1,1.1,0.1,1.6
		c0.1,0.5,0.1,1,0.1,1.5c0.1,0.5,0.1,1,0.1,1.5c0.1,0.5,0.1,0.9,0.1,1.4c0.1,0.8,0.1,1.7,0.2,2.5c0,0.4,0,0.8,0.1,1.2
		c0,0.4,0,0.8,0,1.1c0.1,0.7,0.1,1.3,0.2,2c0,0.6,0,1.1,0.1,1.7c0,0.9,0.3,2.5-0.1,3.3c0,0.1,0,0.2,0,0.3c0,0.1-0.1,0.2-0.2,0.3
		c-0.1,0.1-0.3,0.1-0.4,0.2c-0.3,0.1-0.5,0.1-0.7,0.1c-0.3,0.1-0.7,0.1-1,0.2c-0.3,0-0.7,0-1.1,0.1c-0.5,0-0.9,0-1.3,0
		c-3.7,0.5-8.1,0.4-11.9,0c-0.6,0-1.2,0-1.7-0.1c-0.6,0-1.2,0-1.7,0c-0.5-0.1-1-0.1-1.5-0.1c-0.5-0.1-0.9-0.1-1.4-0.1
		c-0.4-0.1-0.8-0.1-1.2-0.1c-0.3-0.1-0.7-0.1-1-0.2c-0.3,0-0.5,0-0.8-0.1c-0.2-0.1-0.4-0.1-0.6-0.1c-0.1-0.1-0.2-0.1-0.3-0.2
		c-0.2-0.2-0.3-0.4-0.4-0.7c-0.1-0.3-0.2-0.5-0.3-0.8c-0.1-0.4-0.2-0.8-0.2-1.1c-0.1-0.5-0.1-0.9-0.1-1.3c0.1-0.5,0.1-1,0.1-1.5
		c-0.1-0.5-0.1-1.1,0-1.6C582.1,706.3,582.2,705.7,582,705.2C582,705,582.2,705.7,582,705.2z M572.5,666.5c-0.9-0.1-1.7-0.1-2.6-0.1
		c-0.9,0.2-1.7,0.4-2.5,0.7c-1.1,0.5-2.4,1.4-3.1,2.3c-0.6,0.6-1.2,1.3-1.7,2.1c-0.5,0.8-0.9,1.6-1.2,2.4c-0.1,0.4-0.3,0.8-0.4,1.3
		c-0.2,1.4-0.3,2.7-0.3,4c0.2,1.2,0.6,2.7,1.2,3.7c0.3,0.4,0.5,0.8,0.7,1.1c1,1.4,2.2,2.6,3.7,3.5c2.4,1.9,6,1.6,8.6,0.5
		c0.5-0.1,0.9-0.3,1.3-0.5c0.4-0.3,0.8-0.5,1.2-0.8c0.4-0.2,0.8-0.5,1.1-0.8c0.7-0.6,1.4-1.2,1.9-2c0.8-1,1.4-2.4,1.8-3.6
		c0.1-0.9,0.3-1.9,0.4-2.8c0-0.9-0.1-1.9-0.3-2.8c-0.1-0.5-0.3-0.9-0.4-1.3c-0.2-0.4-0.4-0.8-0.6-1.2c-0.2-0.3-0.4-0.7-0.7-1.1
		c-0.6-0.6-1.2-1.2-1.8-1.8c-0.4-0.3-0.8-0.6-1.1-0.8c-0.8-0.5-1.6-1-2.5-1.3C574.3,666.9,573.4,666.7,572.5,666.5
		C572.1,666.5,572.9,666.6,572.5,666.5z"/>
	<path d="M616.8,642.3c0.2-0.1,0.4-0.2,0.6-0.3c0.3-0.1,0.6-0.1,0.9-0.2c0.8-0.1,1.5-0.2,2.3-0.2c3.1-0.4,6.8-0.3,10,0
		c0.6,0,1.2,0,1.8,0.1c0.6,0,1.2,0,1.8,0.1c0.6,0,1.2,0,1.7,0.1c1.1,0,2.2,0.1,3.2,0.3c0.9,0,1.8,0.1,2.7,0.3c0.3,0,0.7,0,1.1,0.1
		c0.3,0.1,0.5,0.1,0.8,0.2c0.2,0,0.4,0,0.6,0.1c0.1,0.1,0.2,0.1,0.3,0.1c0.1,0.1,0.1,0.1,0.2,0.2c0.1,0.1,0.2,0.3,0.3,0.4
		c0.1,0.2,0.2,0.4,0.3,0.6c0.6,1.3,1.4,2.6,1.8,4c0.4,0.9,0.8,1.8,1.2,2.7c0.5,1,0.9,2,1.4,3c0.2,0.5,0.4,1.1,0.7,1.7
		c0.9,2.3,1.9,4.6,2.9,6.8c0.2,0.5,0.4,1.1,0.7,1.7c0.2,0.5,0.4,1.1,0.7,1.7c0.2,0.5,0.4,1.1,0.7,1.7c0.7,2,1.8,3.9,2.4,5.9
		c0.2,0.4,0.4,0.8,0.6,1.3c0.2,0.7,0.5,1.4,0.8,2.1c0.1,0.3,0.3,0.5,0.4,0.8c0.1,0.3,0.2,0.5,0.3,0.7c0,0.2,0.1,0.4,0.2,0.5
		c0,0.1,0,0.2,0.1,0.3c0,0.1,0,0.1,0,0.2c0.2-0.2,0.3-0.8,0.3-1c0.1-0.3,0.2-0.5,0.3-0.7c0.1-0.3,0.2-0.6,0.3-0.9
		c0.3-1.6,1-3.4,1.6-4.9c0.1-0.5,0.3-1,0.5-1.5c0.3-1.1,0.7-2.2,1.1-3.2c0.5-2.3,1.4-4.9,2.4-7c1.4-3.7,3-7.5,4.1-11.3
		c0.2-0.5,0.4-0.9,0.6-1.3c0.1-0.4,0.3-0.8,0.5-1.2c0.1-0.3,0.3-0.7,0.4-1c0.1-0.3,0.3-0.6,0.5-0.9c0.1-0.2,0.2-0.4,0.4-0.6
		c0.1-0.2,0.2-0.4,0.3-0.5c0.1-0.1,0.2-0.3,0.3-0.4c0.1-0.1,0.3-0.1,0.4-0.2c0.3-0.1,0.5-0.1,0.7-0.2c1.3-0.6,3.2-0.8,4.5-0.8
		c1-0.2,2-0.3,3-0.3c0.5-0.1,1.1-0.1,1.7-0.1c0.5-0.1,1.1-0.1,1.6-0.1c1.1-0.1,2.3-0.1,3.4-0.1c1.7-0.2,3.4-0.1,5-0.1
		c1,0.1,1.9,0.1,2.9,0.2c0.5,0,0.9,0,1.3,0.1c0.7,0,1.5,0.1,2.2,0.3c0.3,0,0.5,0,0.8,0.1c0.2,0.1,0.4,0.2,0.6,0.3
		c0.1,0,0.2,0.1,0.3,0.2l0.1,0.1v0.1c0,0.1,0,0.1-0.1,0.2c0,0.2,0,0.3-0.1,0.5c0,0.1,0,0.3,0,0.4c-0.1,0.1-0.1,0.3-0.2,0.4
		c0,0.1,0,0.3-0.1,0.5c-0.1,0.1-0.1,0.3-0.1,0.5c-0.3,0.6-0.5,1.2-0.6,1.8c-0.1,0.2-0.1,0.4-0.2,0.6c-0.2,0.5-0.4,1.1-0.6,1.6
		c-0.1,0.3-0.2,0.5-0.3,0.8c-0.1,0.3-0.2,0.6-0.3,0.9c-0.1,0.3-0.2,0.6-0.3,0.9c-0.1,0.3-0.2,0.6-0.3,0.9c-0.4,1-0.9,2-1.1,3.1
		c-0.1,0.3-0.3,0.7-0.5,1.1c-0.5,1.1-0.8,2.3-1.3,3.4c-0.3,0.9-0.6,1.7-0.9,2.5c-0.1,0.4-0.3,0.8-0.5,1.3c-0.1,0.4-0.3,0.8-0.5,1.3
		c-0.1,0.5-0.3,0.9-0.5,1.3c-0.3,0.9-0.7,1.9-1,2.8c-0.4,0.9-0.8,1.9-1.1,2.8c-0.6,1.5-1.2,3-1.8,4.5c-0.5,1.6-1.1,3.1-1.7,4.6
		c-1.3,2.6-2,5.4-3.2,8c-1.2,3.3-2.5,6.7-3.9,10c-0.8,2.3-1.8,4.5-2.6,6.7c-0.5,1.1-0.9,2.3-1.4,3.4c-0.2,0.5-0.4,1.1-0.6,1.6
		c-0.5,1.1-0.9,2.3-1.3,3.4c-1.3,2.6-2.1,5.4-3.4,7.9c-0.5,1.2-1,2.4-1.6,3.5c-0.6,1.1-1.1,2.3-1.7,3.4c-1.3,2-2.1,4.2-3.5,6.1
		c-0.5,1-1.1,1.9-1.7,2.8c-0.8,1.3-1.6,2.5-2.6,3.7c-0.3,0.4-0.6,0.8-0.9,1.2c-0.5,0.8-1.1,1.5-1.7,2.1c-0.3,0.4-0.6,0.8-0.9,1.1
		c-0.3,0.3-0.5,0.6-0.8,0.9c-0.3,0.3-0.6,0.7-0.9,1c-0.3,0.3-0.6,0.6-0.9,0.9c-0.3,0.3-0.6,0.5-0.9,0.8c-0.3,0.3-0.5,0.5-0.8,0.8
		c-1.2,0.9-2.3,2-3.5,2.9c-0.6,0.4-1.2,0.8-1.8,1.2c-0.3,0.2-0.5,0.4-0.8,0.5c-0.3,0.2-0.6,0.4-0.9,0.5c-0.3,0.2-0.6,0.4-0.9,0.5
		c-0.3,0.1-0.5,0.3-0.8,0.4c-0.6,0.4-1.2,0.6-1.8,0.8c-0.3,0.1-0.5,0.3-0.8,0.4c-0.3,0.1-0.6,0.2-0.9,0.3c-0.3,0.1-0.5,0.2-0.8,0.3
		c-0.3,0.1-0.6,0.1-0.9,0.2c-0.7,0.4-1.7,0.6-2.5,0.6c-0.6,0.2-1.1,0.3-1.7,0.3c-0.3,0.1-0.6,0.1-0.9,0.1c-0.4,0.2-0.8,0.2-1.1,0
		c-0.2-0.1-0.3-0.2-0.4-0.3c-0.2-0.1-0.4-0.3-0.5-0.5c-0.2-0.2-0.4-0.4-0.5-0.6c-0.2-0.3-0.4-0.5-0.6-0.8c-0.2-0.3-0.4-0.7-0.5-1
		c-0.4-0.8-0.8-1.5-1.2-2.3c-1.7-2.5-2.7-5.8-3.7-8.6c-0.1-0.5-0.3-1-0.5-1.5c-0.1-0.5-0.3-1-0.5-1.5c-0.3-1-0.5-1.9-0.8-2.9
		c-0.1-0.5-0.2-0.9-0.3-1.4c-0.1-0.8-0.3-1.7-0.4-2.5c0-0.4,0-0.8-0.1-1.1c0-0.3,0-0.7,0-1c0.1-0.3,0.1-0.6,0.2-0.9
		c0-0.2,0.1-0.4,0.2-0.7c0.1-0.1,0.2-0.3,0.3-0.4c0.3-0.4,0.7-0.7,1.1-0.9c0.3-0.1,0.5-0.2,0.8-0.3c0.3-0.1,0.5-0.3,0.8-0.4
		c0.3-0.1,0.7-0.2,1-0.3c0.7-0.3,1.5-0.5,2.2-0.7c2.6-0.9,5.3-1.9,7.9-2.6c0.4-0.2,0.8-0.4,1.3-0.6c0.5-0.3,0.9-0.5,1.3-0.7
		c0.9-0.5,1.7-1,2.5-1.6c0.8-0.6,1.6-1.3,2.3-2c0.3-0.4,0.7-0.8,1-1.2c1.2-1.8,2.3-3.7,2.8-5.9c0-0.1,0-0.3-0.1-0.4
		c-0.1-0.1-0.2-0.3-0.2-0.4c-0.1-0.4-0.3-0.8-0.5-1.2c-0.1-0.2-0.2-0.4-0.3-0.7c-0.2-0.5-0.4-1-0.6-1.5c-0.1-0.3-0.3-0.6-0.4-0.9
		c-0.1-0.3-0.3-0.6-0.4-0.9c-0.3-0.7-0.6-1.4-1-2.1c-0.1-0.4-0.3-0.8-0.5-1.1c-0.2-0.4-0.4-0.8-0.5-1.2c-1.1-2.2-1.9-4.4-3.1-6.5
		c-0.2-0.5-0.4-0.9-0.6-1.4c-0.5-1-1-1.9-1.4-2.9c-0.5-1-0.9-2-1.4-3c-0.3-0.5-0.5-1-0.7-1.5c-0.3-0.5-0.5-1.1-0.8-1.6
		c-0.5-1.1-1-2.1-1.5-3.1c-0.4-1.1-0.9-2.2-1.5-3.2c-0.6-1.7-1.6-3.2-2.2-4.8c-0.3-0.5-0.5-1.1-0.8-1.6c-1.5-4.1-3.6-8.5-5.7-12.3
		c-0.4-1-0.8-1.9-1.3-2.8c-0.4-0.9-0.8-1.8-1.2-2.7c-0.3-0.9-0.7-1.7-1.1-2.5c-0.1-0.4-0.3-0.8-0.5-1.2c-0.1-0.3-0.3-0.7-0.5-1.1
		c-0.1-0.3-0.3-0.7-0.5-1.1c-0.3-0.7-0.5-1.3-0.8-2c-0.1-0.3-0.3-0.6-0.4-0.9c-0.2-0.7-0.5-1.7-0.9-2.3c-0.1-0.4-0.2-0.8-0.4-1.2
		c0-0.3-0.2-1-0.3-1.3C616.4,642.6,616.5,642.4,616.8,642.3C617,642.2,616.7,642.4,616.8,642.3z"/>
	<path d="M748.5,705.2c-0.1-0.3-0.3,0-0.6,0.9c-0.1,0.3-0.4,0.5-0.7,0.8c-0.5,0.5-0.9,0.9-1.4,1.4c-0.3,0.3-0.5,0.5-0.7,0.7
		c-0.5,0.4-1,0.9-1.5,1.3c-0.3,0.2-0.5,0.4-0.8,0.6c-0.8,0.4-1.7,1-2.4,1.5c-0.6,0.3-1.1,0.6-1.7,0.8c-0.3,0.1-0.5,0.2-0.8,0.3
		c-0.3,0.1-0.6,0.3-0.9,0.4c-0.3,0.1-0.5,0.1-0.8,0.2c-0.9,0.5-2.5,0.8-3.5,0.8c-0.3,0.1-0.6,0.1-0.9,0.1c-0.6,0.1-1.2,0.1-1.8,0.1
		c-0.3,0.1-0.6,0.1-0.9,0c-0.6,0-1.1,0-1.7,0c-0.3-0.1-0.6-0.1-0.9-0.1c-0.3-0.1-0.6-0.1-0.9-0.2c-0.9,0-1.8-0.3-2.6-0.5
		c-0.6-0.2-1.2-0.4-1.8-0.6c-0.3-0.1-0.5-0.2-0.8-0.3c-0.3-0.1-0.6-0.3-0.9-0.4c-0.8-0.4-1.6-0.8-2.4-1.2c-0.3-0.2-0.5-0.4-0.8-0.5
		c-0.3-0.2-0.5-0.4-0.8-0.5c-0.3-0.2-0.5-0.4-0.8-0.6c-0.6-0.3-1.1-0.7-1.5-1.1c-0.8-0.6-1.6-1.2-2.2-2c-0.2-0.2-0.4-0.4-0.7-0.7
		c-0.2-0.3-0.4-0.5-0.7-0.8c-0.7-0.7-1.3-1.6-1.8-2.4c-0.2-0.3-0.4-0.5-0.6-0.8c-0.2-0.3-0.4-0.6-0.6-0.9c-0.1-0.3-0.3-0.6-0.5-0.9
		c-0.2-0.3-0.4-0.7-0.5-1c-0.4-0.6-0.7-1.3-1-1.9c-0.4-1.1-0.8-2.1-1.2-3.2c-0.1-0.3-0.2-0.7-0.3-1.1c-0.1-0.3-0.3-0.7-0.4-1.1
		c-0.1-0.4-0.1-0.8-0.2-1.1c-0.5-1.6-0.6-3.3-0.9-4.9c0-0.4,0-0.8-0.1-1.3c0-0.4,0-0.8-0.1-1.3c0-1.8-0.2-3.7,0.1-5.4
		c0-0.5,0-0.9,0.1-1.4c0-1.5,0.3-3,0.5-4.4c0.1-0.6,0.3-1.2,0.4-1.7c0.2-1.5,0.6-3.2,1.2-4.6c0.1-0.5,0.3-1,0.5-1.5
		c0.5-1.8,1.4-3.8,2.4-5.3c0.2-0.4,0.4-0.8,0.7-1.2c0.2-0.4,0.4-0.8,0.7-1.1c0.3-0.4,0.5-0.8,0.8-1.1c1.2-1.8,2.7-3.3,4.2-4.8
		c0.3-0.3,0.7-0.5,1-0.8c0.6-0.6,1.2-1.1,1.9-1.5c0.9-0.7,2-1.3,3-1.9c0.4-0.2,0.8-0.4,1.1-0.5c0.7-0.3,1.4-0.6,2.1-1
		c0.4-0.1,0.8-0.3,1.1-0.4c0.7-0.2,1.5-0.4,2.2-0.6c1.4-0.5,3.1-0.8,4.5-0.8c0.3-0.1,0.7-0.1,1.1-0.1c1.3-0.3,3.1-0.3,4.4,0
		c0.4,0,0.8,0,1.1,0.1c1.1,0,2.2,0.3,3.3,0.5c1,0.4,2.1,0.6,3.1,1c0.7,0.2,1.4,0.4,2,0.7c0.3,0.2,0.7,0.4,1,0.5
		c0.6,0.3,1.2,0.7,1.8,1c0.3,0.2,0.6,0.4,0.9,0.6c0.6,0.4,1.2,0.8,1.7,1.2c0.5,0.7,0.7,1,0.8,0.7c0.2-1.3,0.4-2.6,0.5-3.9
		c0.1-0.4,0.2-0.8,0.3-1.3c0-0.3,0.1-0.5,0.3-0.6c0.3-0.2,0.7-0.3,1.1-0.3c0.3-0.1,0.7-0.1,1-0.1c2.9-0.5,6.5-0.3,9.5,0
		c0.6,0,1.2,0,1.9,0.1c2.6,0,6.2,0.2,8.7,1.2c0.3,0.1,0.5,0.1,0.7,0.2c0.1,0.1,0.3,0.3,0.4,0.4l0.1,0.1c0,1.4,0.2,3.1-0.1,4.4
		c0,0.4,0,0.8,0,1.1c-0.1,0.8-0.1,1.6-0.2,2.4c0,0.4,0,0.8,0,1.3c-0.1,1-0.1,1.9-0.2,2.9c0,0.5,0,1.1,0,1.6
		c-0.1,1.1-0.1,2.3-0.2,3.4c0,0.6,0,1.2,0,1.7c-0.2,1.9,0,3.9-0.2,5.8c0,2.9,0,5.8,0,8.6c0.2,2.1,0,4.2,0.2,6.2c0,0.7,0,1.3,0,2
		c0.1,1.3,0.1,2.5,0.2,3.8c0,0.6,0,1.2,0.1,1.7c0,0.6,0,1.2,0,1.8c0.1,0.5,0.1,1.1,0.1,1.6c0.1,0.5,0.1,1.1,0.1,1.6
		c0.1,0.5,0.1,1,0.1,1.5c0.1,0.5,0.1,1,0.1,1.5c0.1,0.5,0.1,0.9,0.1,1.4c0.1,0.8,0.1,1.7,0.2,2.5c0,0.4,0,0.8,0.1,1.2
		c0,0.4,0,0.8,0,1.1c0.1,0.7,0.1,1.3,0.2,2c0,0.6,0,1.1,0.1,1.7c0,0.9,0.3,2.5-0.1,3.3c0,0.1,0,0.2,0,0.3c0,0.1-0.1,0.2-0.2,0.3
		c-0.1,0.1-0.3,0.1-0.4,0.2c-0.3,0.1-0.5,0.1-0.7,0.1c-0.3,0.1-0.7,0.1-1,0.2c-0.3,0-0.7,0-1.1,0.1c-0.5,0-0.9,0-1.3,0
		c-3.7,0.5-8.1,0.4-11.9,0c-0.6,0-1.2,0-1.7-0.1c-0.6,0-1.2,0-1.7,0c-0.5-0.1-1-0.1-1.5-0.1c-0.5-0.1-0.9-0.1-1.4-0.1
		c-0.4-0.1-0.8-0.1-1.2-0.1c-0.3-0.1-0.7-0.1-1-0.2c-0.3,0-0.5,0-0.8-0.1c-0.2-0.1-0.4-0.1-0.6-0.1c-0.1-0.1-0.2-0.1-0.3-0.2
		c-0.2-0.2-0.3-0.4-0.4-0.7c-0.1-0.3-0.2-0.5-0.3-0.8c-0.1-0.4-0.2-0.8-0.2-1.1c-0.1-0.5-0.1-0.9-0.1-1.3c0.1-0.5,0.1-1,0.1-1.5
		c-0.1-0.5-0.1-1.1,0-1.6C748.6,706.3,748.6,705.7,748.5,705.2C748.4,705,748.6,705.7,748.5,705.2z M738.9,666.5
		c-0.9-0.1-1.7-0.1-2.6-0.1c-0.9,0.2-1.7,0.4-2.5,0.7c-1.1,0.5-2.4,1.4-3.1,2.3c-0.6,0.6-1.2,1.3-1.7,2.1c-0.5,0.8-0.9,1.6-1.2,2.4
		c-0.1,0.4-0.3,0.8-0.4,1.3c-0.2,1.4-0.3,2.7-0.3,4c0.2,1.2,0.6,2.7,1.2,3.7c0.3,0.4,0.5,0.8,0.7,1.1c1,1.4,2.2,2.6,3.7,3.5
		c2.4,1.9,6,1.6,8.6,0.5c0.5-0.1,0.9-0.3,1.3-0.5c0.4-0.3,0.8-0.5,1.2-0.8c0.4-0.2,0.8-0.5,1.1-0.8c0.7-0.6,1.4-1.2,1.9-2
		c0.8-1,1.4-2.4,1.8-3.6c0.1-0.9,0.3-1.9,0.4-2.8c0-0.9-0.1-1.9-0.3-2.8c-0.1-0.5-0.3-0.9-0.4-1.3c-0.2-0.4-0.4-0.8-0.6-1.2
		c-0.2-0.3-0.4-0.7-0.7-1.1c-0.6-0.6-1.2-1.2-1.8-1.8c-0.4-0.3-0.8-0.6-1.1-0.8c-0.8-0.5-1.6-1-2.5-1.3
		C740.7,666.9,739.8,666.7,738.9,666.5C738.5,666.5,739.4,666.6,738.9,666.5z"/>
</g>
<g>
	<path fill="#F1CC5A" d="M421.7,729.6H268.4c-12.8,0-23.2-10.4-23.2-23.2v-128c0-12.8,10.4-23.2,23.2-23.2h153.3
		c12.8,0,23.2,10.4,23.2,23.2v128C444.9,719.1,434.5,729.6,421.7,729.6z"/>
	<path fill="#FFEDBB" d="M410.3,714.7H279.8c-12.8,0-23.2-10.4-23.2-23.2v-97.9c0-12.8,10.4-23.2,23.2-23.2h130.6
		c12.8,0,23.2,10.4,23.2,23.2v97.9C433.5,704.3,423.1,714.7,410.3,714.7z"/>
</g>
</svg>
