<?xml version="1.0" encoding="utf-8"?>
<!-- Generator: Adobe Illustrator 18.0.0, SVG Export Plug-In . SVG Version: 6.00 Build 0)  -->
<!DOCTYPE svg [
	<!ENTITY ns_flows "http://ns.adobe.com/Flows/1.0/">
	<!ENTITY ns_extend "http://ns.adobe.com/Extensibility/1.0/">
	<!ENTITY ns_ai "http://ns.adobe.com/AdobeIllustrator/10.0/">
	<!ENTITY ns_graphs "http://ns.adobe.com/Graphs/1.0/">
]>
<svg version="1.2" baseProfile="tiny" id="Camada_1" xmlns:x="&ns_extend;" xmlns:i="&ns_ai;" xmlns:graph="&ns_graphs;"
	 xmlns="http://www.w3.org/2000/svg" xmlns:xlink="http://www.w3.org/1999/xlink" xmlns:a="http://ns.adobe.com/AdobeSVGViewerExtensions/3.0/"
	 x="0px" y="0px" viewBox="-31 357.8 356.7 349.3" xml:space="preserve">
<image width="2486" height="2479" xlink:href="../../banco de imagens/bot천es/butt 22.png"  transform="matrix(0.1336 0 0 0.1336 -20.9084 364.9676)">
</image>
<g>
	
		<image width="2631" height="2500" xlink:href="../../banco de imagens/bot천es/butt 31.png"  transform="matrix(3.166667e-002 0 0 3.166667e-002 9.8384 573.1367)">
	</image>
	
		<image width="2631" height="2500" xlink:href="../../banco de imagens/bot천es/butt 31.png"  transform="matrix(3.166667e-002 0 0 3.166667e-002 103.549 573.1367)">
	</image>
	
		<image width="2631" height="2500" xlink:href="../../banco de imagens/bot천es/butt 31.png"  transform="matrix(3.166667e-002 0 0 3.166667e-002 197.2596 573.1367)">
	</image>
</g>
<g>
	<path d="M148.7,474c0.8,5.4,0.7,11,0.2,16.5c-0.3,2.9-0.6,6-1.4,8.8c-0.4,1.4-0.8,2.7-1.2,4.1c-0.4,1.4-1,2.8-1.5,4.2
		c-0.9,2.7-2.6,5-3.6,7.6c-1.7,2.2-3,4.6-4.8,6.8c-3.6,4.4-7.7,8.1-12.3,11.3c-1.1,0.8-2.3,1.6-3.5,2.3c-1.2,0.8-2.5,1.3-3.7,2.1
		c-2.2,1.3-4.7,2.1-7,3.2c-2.7,1.1-5.5,2-8.3,2.8c-2.7,0.8-5.5,1.6-8.3,2c-5.5,0.8-11.1,1.9-16.7,1.9c-6.1,0-12.3,0.3-18.4-0.4
		c-3.1-0.3-6.2-0.7-9.3-1c-0.8-0.1-1.5-0.2-2.3-0.3c-0.5-0.1-1.1-0.3-1.7-0.3c-0.4,0-0.7-2.7-0.7-3c0-2.3-0.5-4.7-0.5-7
		c0-2.9-0.2-5.7-0.2-8.6c-0.2-1.3-0.1-2.7-0.1-4.1c0-1.6-0.1-3.1-0.1-4.7c0-3.2-0.1-6.3-0.1-9.5c0-5.8-0.1-11.7-0.1-17.6
		c0-5.7,0-11.3,0-17c0-2.8,0-5.5,0-8.3c0-2.9-0.2-5.8,0.1-8.7c0-3-0.3-6.1,0-9.1c0.1-1.4,0.1-2.8,0.1-4.2c0-1.5,0.1-2.9,0.1-4.4
		c0-1.5-0.1-3,0-4.5c0.1-1.6,0-3.2,0.1-4.8c0.1-1.4,0-2.8,0.1-4.1c0.1-1.4-0.1-2.9,0.1-4.2c0.2-1.3,0.2-2.7,0.2-4.1
		c0-1.4,0.2-2.8,0.2-4.2c0-1.2,0.1-2.4,0.2-3.6c0.1-1.3,0.1-2.7,0.5-4c0.1-0.3,0-0.8,0.3-1c0-0.2,1.6-0.4,1.9-0.4
		c0.7-0.2,1.4-0.2,2.1-0.3c0.8-0.1,1.6-0.3,2.4-0.4c3-0.4,5.9-0.6,8.9-0.7c6.2-0.3,12.4-0.4,18.6,0.5c2.8,0.4,5.7,0.8,8.5,1.4
		c2.7,0.5,5.3,1.3,7.9,2.1c5.1,1.6,10.1,3.6,14.8,6.3c2.5,1.5,4.9,3.1,7.3,4.7c2.5,1.6,4.6,3.9,7,5.8c1,1,1.9,1.9,2.9,2.9
		c1,1.2,2.2,2.2,3.1,3.4c0.8,1.1,1.7,2.2,2.6,3.3c0.9,1.2,1.8,2.5,2.6,3.7c3.1,4.5,5.7,9.6,7.5,14.8c1.3,3.6,2.6,7.1,3.4,10.8
		c0.4,1.8,0.8,3.6,1.1,5.4C148.2,470.1,148.7,472.1,148.7,474C148.7,474.6,148.7,473.6,148.7,474z"/>
	<path d="M243.4,406.1c0.7,0,0.9,2.3,1,2.7c0,0.6,0.2,1.2,0.3,1.8c0.1,0.7,0.2,1.5,0.2,2.2c0.2,2.6,0.7,5.2,0.7,7.8
		c0,1.4,0.3,2.8,0.3,4.2c0,1.4,0.3,2.8,0.3,4.2c0,3,0.1,6.1,0.3,9.1c0.1,1.5,0.1,3.1,0.2,4.7c0,1.5,0.1,3,0.1,4.5
		c0,1.4,0,2.8,0.1,4.1c0,1.5-0.1,3.1,0,4.6c0.1,1.4,0.1,2.8,0.1,4.2c0,1.5,0.1,3.1,0.1,4.6c0,2.9,0.1,5.9,0.1,8.8
		c0,11.9,0.1,23.7,0.1,35.6c0,1.5-0.1,3.1-0.1,4.6c0,1.6,0,3.1,0,4.7c0,2.8-0.1,5.5-0.1,8.2c0,1.4,0.1,2.9-0.1,4.4
		c0,1.3,0.2,2.8-0.1,4.1c-0.2,1.1-0.1,2.4-0.2,3.5c-0.1,0.6,0,1.3,0,1.9c-0.2,0.6-0.3,1.5-0.3,2.2c0,3-5.5,3.1-7.6,3.3
		c-5.3,0.4-10.6,0.3-15.9,0.3c-5.2,0-10.4,0.1-15.5-0.5c-1.1-0.1-6.8-0.4-6-2.6c0.5-1.4,1.2-2.8,1.4-4.2c0.1-0.8-0.2-0.5-0.6-0.1
		c-1.9,1.7-4,3.1-6.3,4.3c-7.9,4-17.5,4.1-25.9,1.7c-7.1-2-13.4-6.3-17.6-12.4c-4.7-6.7-6.8-14.9-7.4-23c-0.8-9.6-0.1-19.9,3.3-29
		c2.4-6.4,6.4-11.9,11.8-16.2c2.8-2.2,5.9-4.3,9.2-5.7c4.5-2,9.4-3.2,14.3-3.6c4.2-0.4,8.5-0.3,12.6,0.7c0.3,0.1,2.7,1,2.8,0.9
		c0.1-0.1,0.1-0.3,0.2-0.4c0.3-0.9,0.5-1.9,0.6-2.8c0.4-2.5,0.7-5,0.9-7.4c0.5-4.8,0.9-9.6,1.3-14.4c0.4-5.2,0.7-10.4,1.8-15.5
		c0.6-2.7,1.4-5.5,3.2-7.6c1.8-2.1,4.2-2.9,6.8-3.4c9.3-1.8,18.7-0.9,28,0.8C242.2,405.9,243,405.9,243.4,406.1
		C243.5,406.1,243,405.9,243.4,406.1z"/>
	<path fill="#FFFFFF" d="M139.4,475.8c0.4,2.8,0.4,5.6,0.4,8.4c0,2.7-0.4,5.2-0.6,7.8c-0.2,2.4-0.8,4.9-1.5,7.2
		c-0.8,2.6-1.6,5.3-3,7.6c-2.1,5.3-6.2,9.8-10.2,13.8c-1.8,1.8-4,3.3-6,4.8c-1.1,0.8-2.4,1.7-3.7,2.3c-1.3,0.6-2.5,1.4-3.9,2
		c-4.6,2.3-9.8,3.8-14.8,5c-2.7,0.6-5.5,0.9-8.3,1.4c-2.8,0.5-5.7,0.7-8.5,0.7c-5.6,0-11.2,0.1-16.8-0.6c-2.7-0.3-5.5-0.5-8.1-1.1
		c-0.7-0.2-0.8-1.1-0.8-1.8c0-1.1-0.3-2.2-0.3-3.3c0-1.2-0.2-2.4-0.2-3.7c0-1.2,0-2.5-0.1-3.8c-0.2-2.7-0.1-5.5-0.3-8.3
		c-0.1-2.6-0.1-5.3-0.1-7.9c0-2.9-0.1-5.7-0.1-8.6c0-11.1,0-22.3,0-33.4c0-5.8,0.3-11.7,0.3-17.5c0-5.4,0.4-10.8,0.4-16.2
		c0-2.5,0.4-5.1,0.4-7.6c0.3-1,0.1-2.2,0.4-3.2c0-0.4,0-0.8,0.2-1.1c0-0.6,0.8-0.5,1.2-0.6c5.6-1.1,11.4-1.5,17.1-1.5
		c5.6,0,11.3,0.6,16.7,1.7c2.7,0.6,5.4,1.4,8.1,2.3c1.2,0.4,2.4,0.8,3.6,1.4c1.2,0.6,2.5,1.2,3.8,1.7c2.4,1.2,4.7,2.7,7,4.1
		c2.1,1.3,4.3,2.9,6,4.6c4.1,3.3,7.5,7.6,10.5,11.9c3.5,5,5.9,10.5,8,16.2c0.9,2.4,1.6,4.9,2,7.4
		C138.7,470.7,139.4,473.3,139.4,475.8C139.4,476.3,139.4,475.5,139.4,475.8z M83.7,445c-0.1,0.1-0.1,1.3,0,1.5c0,0.5,0,1,0,1.5
		c0,1.3,0.1,2.7,0.1,4c0,1.2,0,2.6,0.2,3.8c0,1.4,0,2.8,0.2,4.2c0,2.6,0.1,5.3,0.4,7.8c0,1.3,0.2,2.6,0.2,4c0.1,1.4,0.1,2.9,0.3,4.3
		c0,2.7,0.5,5.4,0.5,8.1c0.3,2.7,0.5,5.4,0.7,8.1c0.2,2.6,0.3,5.1,0.7,7.7c0.1,0.5,0.1,1,0.2,1.5c0.1,0.5-0.3,1,0.4,1.1
		c1.3,0.2,2.8,0.2,4.1,0c5.5-0.9,10.4-4.1,13.8-8.4c0.9-0.9,1.5-2.1,2.3-3.2c0.8-1.1,1.4-2.3,1.9-3.6c1-2.5,1.8-5.1,2.2-7.8
		c0.8-5.7-0.6-11.1-2.6-16.4c-0.4-1.2-1.1-2.3-1.8-3.4c-0.7-1.2-1.5-2.5-2.4-3.5c-1.9-2.3-4-4.6-6.5-6.2c-1.1-0.7-2.1-1.5-3.3-2.1
		c-1.2-0.6-2.4-1.2-3.6-1.7c-1.2-0.6-2.6-0.9-3.9-1.2c-0.6-0.1-1.2-0.2-1.8-0.3C85.3,444.9,84.2,444.8,83.7,445
		C83.6,445.1,83.9,444.9,83.7,445z"/>
	<path fill="#FFFFFF" d="M235.3,414.3c0.6,0,0.7,2,0.9,2.3c0,1.2,0.3,2.4,0.4,3.6c0.1,1.4,0.2,2.7,0.4,4.1c0.2,1.3,0,2.7,0.3,4.1
		c0,1.4,0.2,2.7,0.2,4.1c0,1.5,0,3.1,0.2,4.6c0,2.7,0.2,5.5,0.2,8.2c0.4,3,0,6,0.3,9c0,3.1,0.1,6.3,0.1,9.4c0,6.2,0.2,12.3,0.2,18.5
		c0,11.8,0,23.6,0,35.5c0,2.7-0.2,5.4-0.2,8.2c0,1.4-0.1,2.7-0.1,4.1c0,1.2-0.2,2.5-0.2,3.7c0,0.6,0.1,2-0.4,2.5
		c-0.9,0.9-2.6,1.1-3.7,1.3c-2.9,0.5-5.9,0.6-8.8,0.6c-3.1,0-6.2,0-9.3-0.3c-2.7-0.2-5.6-0.2-8.3-0.9c-0.6-0.2-2.5-0.7-2.3-1.6
		c0.3-1.2,1.2-2.4,1.2-3.6c0-1.5-1-0.1-1.5,0.3c-0.5,0.4-1.1,0.6-1.6,0.9c-0.7,0.4-1.3,0.8-2,1.2c-9.5,5-21.4,5.9-30.8,0
		c-9.2-5.8-14-16-15.4-26.4c-0.5-2.9-0.4-5.8-0.4-8.8c0-2.9,0.3-5.8,1-8.6c0.6-2.7,1.6-5.3,2.8-7.9c1.2-2.7,3-5,4.8-7.2
		c1.8-2.2,4-4,6.3-5.7c2.3-1.7,4.8-2.8,7.3-4c2.4-1.2,5.3-1.8,7.9-2.3c2.6-0.5,5.2-0.7,7.8-0.7c2.6,0,5.1,0.3,7.6,0.8
		c1.4,0.3,2.7,0.7,4,1.2c0.6,0.2,1.3,0.4,1.9,0.7c0.5,0.3,1.2,0.5,1.6,0.8c0.9,1.2,1.2,0.1,1-0.9c-0.1-0.6,0.1-1.2,0.1-1.9
		c0.1-0.8-0.1-1.6,0-2.4c0.3-2.7,0.4-5.5,0.5-8.2c0.1-2.6,0.4-5.1,0.4-7.7c0.1-2.6,0.2-5.3,0.5-7.9c0.5-5.1,0.7-10.3,1.7-15.3
		c0.4-2.1,0.6-4.6,1.8-6.4c0.6-0.9,2.1-0.9,3-1.2c1.5-0.4,2.9-0.8,4.4-1.1C225.8,411.8,230.9,411.7,235.3,414.3
		C235.3,414.3,234.9,414.1,235.3,414.3z M192.9,486c-2.8-0.8-6,0-8.5,1.3c-2.3,1.2-4,3.6-4.8,6c-1,2.8-1,5.6-0.2,8.4
		c0.4,1.3,1.1,2.5,1.8,3.6c0.9,1.3,2.1,2.1,3.3,3c2.5,1.3,5.4,1.8,8.2,0.8c2.7-0.9,5.1-2.3,6.7-4.8c3.2-4.9,2.9-11.8-1.6-15.8
		C196.2,487.3,194.9,486.4,192.9,486C192.4,485.9,193.3,486.1,192.9,486z"/>
</g>
</svg>
