<?xml version="1.0" encoding="utf-8"?>
<!-- Generator: Adobe Illustrator 18.0.0, SVG Export Plug-In . SVG Version: 6.00 Build 0)  -->
<!DOCTYPE svg PUBLIC "-//W3C//DTD SVG 1.0//EN" "http://www.w3.org/TR/2001/REC-SVG-20010904/DTD/svg10.dtd" [
	<!ENTITY ns_flows "http://ns.adobe.com/Flows/1.0/">
	<!ENTITY ns_extend "http://ns.adobe.com/Extensibility/1.0/">
	<!ENTITY ns_ai "http://ns.adobe.com/AdobeIllustrator/10.0/">
	<!ENTITY ns_graphs "http://ns.adobe.com/Graphs/1.0/">
]>
<svg version="1.0" id="Camada_1" xmlns:x="&ns_extend;" xmlns:i="&ns_ai;" xmlns:graph="&ns_graphs;"
	 xmlns="http://www.w3.org/2000/svg" xmlns:xlink="http://www.w3.org/1999/xlink" xmlns:a="http://ns.adobe.com/AdobeSVGViewerExtensions/3.0/"
	 x="0px" y="0px" viewBox="-31 357.8 356.7 349.3" enable-background="new -31 357.8 356.7 349.3" xml:space="preserve">
<image overflow="visible" width="2486" height="2479" xlink:href="../../banco de imagens/bot천es/butt 22.png"  transform="matrix(0.1336 0 0 0.1336 -20.9084 364.9676)">
</image>
<g>
	
		<image overflow="visible" width="2631" height="2500" xlink:href="../../banco de imagens/bot천es/butt 31.png"  transform="matrix(3.166667e-002 0 0 3.166667e-002 9.8384 573.1367)">
	</image>
	
		<image overflow="visible" width="2631" height="2500" xlink:href="../../banco de imagens/bot천es/butt 31.png"  transform="matrix(3.166667e-002 0 0 3.166667e-002 103.549 573.1367)">
	</image>
	
		<image overflow="visible" width="2631" height="2500" xlink:href="../../banco de imagens/bot천es/butt 31.png"  transform="matrix(3.166667e-002 0 0 3.166667e-002 197.2596 573.1367)">
	</image>
</g>
<g>
	<g>
		<path d="M86.4,412.2c0.4-0.3,1.1-0.6,1.6-0.6c0.6-0.1,1.1-0.3,1.8-0.3c1.4-0.1,2.7-0.4,4.1-0.5c2.9-0.2,5.8-0.4,8.7-0.8
			c2.9-0.4,6-0.4,9-0.4c3-0.3,6.1-0.3,9.2-0.4c3-0.1,6-0.2,9-0.2c3,0,6,0.1,9,0.1c1.4,0,2.9,0,4.3,0.2c1.4,0.2,2.8,0,4.2,0.3
			c1.2,0,2.5,0.2,3.7,0.5c1.2,0,2.9,0.5,3.3,1.8c1.2,2.3,1.2,5.3,1.6,7.8c0.4,2.8,0.5,5.8,0.5,8.6c0,2.8,0.2,5.8-0.3,8.6
			c-0.1,0.7-0.1,1.4-0.3,2.1c-0.1,0.6-0.4,1.1-0.4,1.7c0,1-0.1,2.1-0.3,3.1c-0.6,3-2.2,5.7-4.9,7.3c-2.2,1.3-4.7,1.8-7.2,2
			c-1.3,0.1-2.5,0-3.8-0.1c-0.6-0.1-1.2-0.2-1.8-0.2c0,4.9-0.3,9.7-0.5,14.6c-0.1,3.4,0.1,6.8,0.4,10.3c0.5,7,1.1,13.9,1.6,20.9
			c0,0.6,0.1,1.2,0.1,1.8c0,0,1.4-0.1,1.5-0.1c3.3-0.2,6.7-0.3,10-0.1c1.7,0.1,3.5,0.2,5.2,0.5c0.9,0.2,2,0.3,2.6,1.1
			c1.2,1.4,1.4,3.7,1.6,5.4c0.9,6.4,0.9,12.9,0.9,19.3c0,2.8-0.1,5.5-0.1,8.3c0,1.2,0,2.4-0.1,3.6c0,1.3-0.2,2.6-0.3,3.9
			c-0.1,1.2-0.2,2.8-0.9,3.8c-0.4,1.1-2.1,1.1-3.1,1.3c-1.3,0-2.6,0.4-3.9,0.4c-2.8,0-5.6,0.4-8.5,0.5c-3.1,0.1-6.1,0.2-9.2,0.2
			c-3,0-6,0.1-9,0.1c-3,0-6,0.2-8.9-0.1c-3-0.2-6,0.1-9.1-0.1c-3-0.3-6.1,0-9.2-0.2c-5.3-0.4-10.9,0-16.1-1.3
			c-1-0.2-1.3-1.9-1.4-2.8c0-0.6,0-1.1,0-1.7c0-5.3,0.1-10.6,0.2-15.9c0.2-6.4,0.4-12.8,1.2-19.2c0.2-2,0.5-4.1,1.2-6
			c0.8-2,3.1-2,5-1.9c3.7,0.2,7.5,1.2,11,2.3c1.5-7.9,2.5-15.9,2.7-23.9c0.1-7.3,0.6-14.5,0.9-21.7c0-0.9,0.1-1.9,0.1-2.8
			c0-0.4-0.6-0.2-1-0.2c-3.1,0.1-6.2,0-9.2-0.4c-3.3-0.5-7.1-1.4-8.9-4.5c-1.9-3.2-1.6-7.2-1-10.8c0.2-1.3,0-2.7,0-4.1
			c0-2.5,0.2-4.9,0.2-7.4c0-1.1,0.2-2.2,0.4-3.3c0.2-1.3,0.3-2.6,0.6-3.9c0.2-1.1,0.5-2.2,0.7-3.3C85.2,414.2,85.7,412.9,86.4,412.2
			C86.5,412.2,86.2,412.4,86.4,412.2z"/>
		<path fill="#FFFFFF" d="M93.1,419.3c0.5-0.6,2-0.8,2.7-0.8c0.6,0,1.3-0.3,1.9-0.3c0.8-0.1,1.7-0.2,2.5-0.3
			c2.9-0.5,5.9-0.5,8.8-0.8c2.8-0.2,5.6-0.2,8.5-0.4c2.9-0.2,5.8,0,8.6-0.2c2.9-0.2,5.8,0,8.6,0c1.4,0,2.8,0.2,4.2,0.2
			c1.5,0,2.9,0.4,4.4,0.4c1.1,0.3,2,0.4,3,0.9c0.9,1,1.1,2.9,1.3,4.2c0.4,2.8,0.7,5.6,0.8,8.5c0.1,2.9,0,5.8,0,8.7
			c0,1.3-0.2,2.7-0.5,4c-0.2,0.7-0.4,1-1.1,1.3c-0.7,0.2-1.6,0.2-2.3,0.2c-1.4,0-2.8,0-4.2-0.1c-1.5-0.1-3-0.3-4.5-0.3
			c-1.3,0-3-0.1-4.3-0.4c-0.4,0-0.2,2.2-0.2,2.6c0,5.5,0,11.1,0,16.7c0,6,0,12,0.5,18c0.4,5,0.5,10,1.1,15c0.3,2.3,0.4,4.5,0.7,6.8
			c0.1,1.1,0.3,2.2,0.4,3.3c0.1,0.7,0.4,1.5,0.3,2.2c0.5,0,1.1-0.3,1.6-0.3c0.7-0.1,1.3-0.2,2-0.3c1.5-0.2,3-0.4,4.6-0.6
			c1.4,0,2.8-0.1,4.2-0.1c1.1,0,3,0.1,3.8,0.9c1.2,2.5,1.2,5.6,1.4,8.3c0.2,3,0.3,5.9,0.3,8.8c0,2.8,0,5.6-0.3,8.4
			c-0.1,1.3-0.1,2.8-0.6,4c-0.3,0.6-0.4,0.7-0.9,1c-0.5,0.2-1.1,0.3-1.6,0.4c-1.2,0-2.4,0.3-3.6,0.3c-1.4,0.2-2.9,0.3-4.4,0.3
			c-3,0-6,0.3-9,0.3c-5.8,0-11.6,0-17.4,0c-2.8,0-5.7,0-8.5-0.2c-2.9-0.2-5.9,0-8.8-0.4c-1.3-0.2-2.7-0.2-4-0.3
			c-0.5,0-1-0.2-1.5-0.2c-0.5-0.1-1.1-0.3-1.6-0.3c-0.8-0.8-0.9-2.2-1.1-3.3c-0.2-1.5-0.4-3-0.4-4.5c-0.2-1.4-0.1-2.9-0.2-4.3
			c-0.1-1.5-0.1-3,0-4.5c0.2-2.9,0.2-5.8,0.6-8.7c0.2-1.3,0.4-2.8,1.1-4c0.3-1,2.6-1,3.3-1c1.4,0.1,2.8,0.2,4.2,0.3
			c1.5,0.2,2.9,0.4,4.4,0.7c0.5,0.1,2.6,0.7,2.8,0.5c0-1,0.2-2.2,0.4-3.2c0-2.6,0.6-5.2,0.7-7.8c0.1-3,0.5-6,0.6-8.9
			c0.2-2.9,0.3-5.7,0.5-8.6c0.4-6,0.4-12.1,0.4-18.1c0-5,0.1-10,0.1-15c0-0.9-0.1-1.8-0.1-2.7c-0.2-0.3-2.6,0.4-3.1,0.5
			c-2.9,0.4-5.7,0.6-8.7,0.6c-1.1-0.2-2.3-0.4-3.3-1c-1-0.6-1.2-1.8-1.4-2.9c-0.4-2.6-0.3-5.3-0.3-7.9c0-2.7,0.3-5.4,0.7-8
			c0.2-1.3,0.4-2.6,0.6-3.9C92.1,421.6,92.2,420.2,93.1,419.3C93.1,419.2,92.9,419.4,93.1,419.3z"/>
	</g>
	<path d="M194.8,416.1c5,1.5,10.1,5.7,12.2,10.5c1.1,2.7,1.7,5.3,1.7,8.2c-0.3,1.4-0.4,2.7-0.8,4.1c-0.4,1.4-1,2.6-1.8,3.8
		c-2.9,4.6-7.4,8.1-12.7,9.6c-5.6,1.6-12,2.1-17.4-0.4c-4.8-2.2-7.7-6.6-9.5-11.4c-1.5-4.7-1.5-10.3,1.3-14.6
		c2.5-4.4,6.9-7.8,11.6-9.6C184.2,414.7,190,414.1,194.8,416.1C195.4,416.3,194.3,415.9,194.8,416.1z"/>
	<path d="M171.7,466.9c0,0.5-0.4,0.9-0.4,1.4c-0.2,0.6-0.4,1.2-0.5,1.8c-0.2,1.3-0.4,2.5-0.7,3.8c-0.3,1.3-0.4,2.6-0.7,4
		c-0.3,1.4-0.4,2.8-0.6,4.2c-0.8,5.8-1.3,11.5-2,17.3c-0.6,5.8-1.1,11.7-1.5,17.5c-0.4,5.7-0.7,11.5-0.7,17.2c0,2.7,0,5.4,0.1,8.1
		c0.1,1.2,0.4,2.5,0.4,3.7c0.2,0.6,0.3,1.2,0.6,1.7c0.4,0.7,1.1,0.7,1.7,0.9c2.7,1,5.8,0.9,8.6,1.1c3.1,0.2,6.1,0.3,9.2,0.3
		c1.4,0,2.9,0.1,4.3,0.1c1.6,0,3.2-0.1,4.7-0.1c2.7,0,5.6-0.1,8.3-0.5c0.4-0.1,3.8-0.3,3.8-0.7c0.5-0.2,0.6-0.8,0.8-1.3
		c0.3-0.8,0.5-1.5,0.7-2.3c0-1.2,0.3-2.4,0.4-3.7c0.1-1.5,0.2-2.9,0.3-4.4c0.4-5.7,0.1-11.5,0.1-17.2c0-2.9-0.3-5.7-0.3-8.6
		c-0.2-1.4-0.1-2.8-0.3-4.2c0-1.5,0-3.1-0.2-4.6c-0.3-2.8-0.3-5.7-0.6-8.5c-0.1-1.3-0.1-2.7-0.3-4.1c-0.2-1.6-0.2-3.2-0.4-4.8
		c0-1.3-0.2-2.7-0.4-4c-0.2-1.4-0.2-2.8-0.4-4.1c-0.5-2.6-0.5-5.3-1.3-7.8c0-1-0.4-2.2-1.4-2.4c-1.3-0.6-2.8-0.6-4.2-0.8
		c-3.2-0.4-6.4-0.7-9.6-0.7c-3.1,0-6.1-0.1-9.2,0c-1.6,0.1-3.1,0.2-4.7,0.4C174.2,465.9,172.8,466,171.7,466.9
		C171.7,467,171.8,466.8,171.7,466.9z"/>
	<path fill="#FFFFFF" d="M192.4,421.3c4.9,1.4,10.1,6.1,10.1,11.5c0,2.7-0.9,5.6-2.8,7.5c-1.6,2.3-4.1,3.5-6.6,4.7
		c-2.4,1.1-5.1,1.4-7.7,1.5c-2.7,0.2-5.6-0.4-7.9-1.7c-2.3-1.2-3.9-3.1-5.2-5.4c-1.2-2.3-2-5.9-1.1-8.4c1.4-4.2,4.6-7.2,8.6-9
		C183.7,420.4,188.5,419.8,192.4,421.3C192.8,421.4,192,421.2,192.4,421.3z"/>
	<path fill="#FFFFFF" d="M176,473.4c0,0.4-0.3,0.8-0.3,1.2c-0.2,0.5-0.3,1-0.3,1.5c-0.2,1.3-0.5,2.7-0.6,4c-0.2,2.9-0.6,5.8-1,8.7
		c-0.7,5.8-1.1,11.7-1.5,17.6c-0.4,5.8-0.6,11.6-1,17.4c-0.2,3-0.1,6-0.1,8.9c0,1.4-0.1,3,0.1,4.4c0.2,1.1,0,2.4,0.4,3.5
		c0.2,0.4,0.2,0.8,0.6,1.1c0.5,0.2,1.1,0.4,1.6,0.6c1.4,0.3,2.7,0.4,4.1,0.6c3,0,6,0.4,9,0.4c2.8,0,5.8,0.1,8.6-0.4
		c0.4,0,3.7-0.2,3.7-0.7c0.8-0.4,0.9-2.2,1-3c0-1.3,0.2-2.7,0.4-3.9c0-1.6,0.2-3.2,0.2-4.7c0-3.1,0-6.1,0-9.2c0-2.8,0.1-5.7-0.2-8.5
		c-0.1-1.4-0.1-2.8-0.1-4.2c0-1.6-0.2-3.1-0.2-4.7c0-4.7-0.7-9.4-0.9-14.1c-0.1-4.6-0.9-9.1-1.3-13.6c-0.1-0.7-0.2-1.7-0.5-2.3
		c-0.3-0.7-1-0.9-1.7-1c-2.2-0.5-4.5-0.7-6.8-0.8c-2.2-0.1-4.6-0.3-6.8-0.1c-1.2,0.1-2.3,0.1-3.5,0.3
		C178,472.5,176.9,472.5,176,473.4C176,473.5,176.1,473.3,176,473.4z"/>
</g>
</svg>
