<?xml version="1.0" encoding="utf-8"?>
<!-- Generator: Adobe Illustrator 18.0.0, SVG Export Plug-In . SVG Version: 6.00 Build 0)  -->
<!DOCTYPE svg PUBLIC "-//W3C//DTD SVG 1.0//EN" "http://www.w3.org/TR/2001/REC-SVG-20010904/DTD/svg10.dtd" [
	<!ENTITY ns_flows "http://ns.adobe.com/Flows/1.0/">
	<!ENTITY ns_extend "http://ns.adobe.com/Extensibility/1.0/">
	<!ENTITY ns_ai "http://ns.adobe.com/AdobeIllustrator/10.0/">
	<!ENTITY ns_graphs "http://ns.adobe.com/Graphs/1.0/">
]>
<svg version="1.0" id="Camada_1" xmlns:x="&ns_extend;" xmlns:i="&ns_ai;" xmlns:graph="&ns_graphs;"
	 xmlns="http://www.w3.org/2000/svg" xmlns:xlink="http://www.w3.org/1999/xlink" xmlns:a="http://ns.adobe.com/AdobeSVGViewerExtensions/3.0/"
	 x="0px" y="0px" viewBox="-31 357.8 356.7 349.3" enable-background="new -31 357.8 356.7 349.3" xml:space="preserve">
<image overflow="visible" width="2486" height="2479" xlink:href="../../banco de imagens/bot천es/butt 22.png"  transform="matrix(0.1336 0 0 0.1336 -20.9084 364.9676)">
</image>
<g>
	
		<image overflow="visible" width="2631" height="2500" xlink:href="../../banco de imagens/bot천es/butt 31.png"  transform="matrix(3.166667e-002 0 0 3.166667e-002 9.8384 573.1367)">
	</image>
	
		<image overflow="visible" width="2631" height="2500" xlink:href="../../banco de imagens/bot천es/butt 31.png"  transform="matrix(3.166667e-002 0 0 3.166667e-002 103.549 573.1367)">
	</image>
	
		<image overflow="visible" width="2631" height="2500" xlink:href="../../banco de imagens/bot천es/butt 31.png"  transform="matrix(3.166667e-002 0 0 3.166667e-002 197.2596 573.1367)">
	</image>
</g>
<g>
	<g>
		<path d="M240.6,507.8c0.4,2.4,0.4,5,0.4,7.5c0,2.8-0.1,5.7-0.6,8.5c-0.6,2.8-1.3,5.5-2.2,8.2c-0.9,2.6-2.6,5-4.2,7.1
			c-3.3,4.4-8.5,7.8-13.7,9.5c-2.7,0.9-5.3,1.6-8.1,2.2c-3,0.7-6,0.8-9,1c-2.9,0.3-5.9,0.1-8.8,0.1c-2.7,0-5.3-0.7-8-1
			c-2.4-0.7-4.9-1.2-7.2-2.3c-2.5-1.2-4.9-2.3-7.2-3.8c-4.2-2.7-7.7-6.4-10.6-10.4c-1.4-2-2.8-4.1-3.7-6.3c-1.3-2.4-1.9-5.1-2.8-7.7
			c-0.4-2.4-1.3-4.9-1.4-7.4c-0.1-2.6-0.5-5.1-0.3-7.7c0.2-2.4,0.2-5.1,1-7.4c0.5-2.7,1.5-5.3,2.4-7.9c1.2-2.2,2-4.6,3.3-6.7
			c1.4-2.1,2.7-4.2,4.3-6.1c3.3-3.9,6.9-7.4,11.2-10.1c4.4-2.8,9.2-4.7,14.4-5.5c5.8-0.8,11.6,0.1,17.1,1.9c2.4,0.7,4.8,1.8,7,3
			c1.3,0.7,2.5,1.4,3.7,2.3c1.1,0.8,2.2,1.7,3.3,2.4c1.9,1.6,3.8,3.3,5.5,5.1c1.7,1.8,3.1,3.8,4.6,5.7c2.8,3.6,4.6,7.9,6.3,12.1
			c0.8,2.1,1.7,4.4,2,6.6C239.8,503,240.6,505.4,240.6,507.8C240.7,508.3,240.6,507.4,240.6,507.8z"/>
		<path fill="#FFFFFF" d="M234,508.6c0.4,2.6,0.2,5.2,0.2,7.8c0,2.4-0.4,4.9-0.8,7.3c-0.4,2.2-1.3,4.5-2.3,6.5c-0.4,1-1,2-1.7,2.8
			c-0.4,1-1.4,2.1-2.2,2.8c-1.8,1.7-3.6,3.2-5.8,4.4c-2.5,1.3-5.1,2.4-7.9,3.1c-5.2,1.4-11,1.9-16.4,1.6c-5.7-0.3-11.2-1.3-16.4-3.8
			c-2.2-1.4-4.5-2.6-6.6-4.4c-1.9-1.7-3.8-3.6-5.2-5.7c-3-4.3-5.5-9.2-6.4-14.4c-0.5-2.8-0.8-5.5-0.8-8.4c0-2.5,0-5.6,0.9-8
			c0.5-2.6,1.4-5.3,2.5-7.7c1.2-2.5,2.6-4.8,4.1-7.1c1.4-2.3,3.4-4.4,5.4-6.2c1.9-1.9,4.1-3.4,6.3-4.8c4.4-2.8,9.7-4.2,14.9-4.2
			c2.7,0,5.3,0.5,7.9,1c2.6,0.5,5,1.8,7.4,2.8c1.5,0.6,3.1,1.6,4.3,2.6c1.5,1,2.9,2.1,4.3,3.3c2.6,2.4,4.8,5.2,6.9,8.1
			c1,1.3,2,2.9,2.6,4.5c0.9,1.7,1.4,3.4,2.2,5.1c0.8,1.7,1.2,3.6,1.6,5.4C233.5,504.8,234,506.8,234,508.6
			C234.1,509,234,508.3,234,508.6z M213.4,505.5c-0.8-5.6-3.1-11.2-7.6-14.7c-3.7-3-9.9-4.6-14.3-2.1c-4.5,2.6-7.6,7.5-8.4,12.6
			c-0.5,2.9-0.8,5.9-0.3,8.8c0.4,2.5,1.2,5.4,2.8,7.5c2.2,2.9,4.7,5.3,8.4,6.3c1.8,0.7,3.9,0.8,5.8,0.8c1.8,0,3.8-0.4,5.4-1.1
			c3-1.5,5.6-3.8,6.9-7C213.5,512.9,214,509.3,213.4,505.5C213.3,505.1,213.4,505.9,213.4,505.5z"/>
	</g>
	<g>
		<path d="M50.5,482.1c0.2-1.5,0.4-3,0.6-4.4c0.2-1.6,0.5-3.2,0.7-4.7c0.4-3,1.3-6,2-8.9c0.6-1.3,0.8-2.8,1.3-4.1
			c0.5-1.4,1.1-2.9,1.5-4.3c1.2-2.7,2.3-5.4,3.6-8c1.1-2.6,2.6-5.1,4.2-7.4c1.2-2.4,3-4.7,4.8-6.8c1.7-2.1,3.4-4.4,5.5-6.2
			c2.1-1.9,4.1-4,6.5-5.6c1.3-0.8,2.4-1.8,3.7-2.5c1.3-0.7,2.6-1.4,3.8-2.1c2.4-1.4,5.2-2.2,7.8-3c5.6-1.9,11.9-1.9,17.6-1
			c1.3,0.5,2.7,0.7,4.1,1.2c1.4,0.5,2.7,1,4.1,1.7c2.5,1.5,5,2.7,7.2,4.5c4.3,3.4,8.5,7.3,11.7,11.8c3.2,4.7,6.5,9.5,8.8,14.7
			c1.2,2.7,2.4,5.4,3.3,8.2c0.9,2.8,1.8,5.7,2.5,8.6c1.4,5.7,2.3,11.8,2.3,17.7c0,3.2,0,6.4-0.3,9.5c-0.3,3-0.4,6.2-1.1,9.2
			c-0.3,1.4-0.6,2.8-0.9,4.2c-0.3,1.5-0.8,3-1.2,4.4c-0.8,2.8-1.7,5.5-2.8,8.2c-2.1,5.2-4.9,10-8.1,14.5c-1.6,2.2-3.3,4.3-5.2,6.2
			c-2.1,2-4.3,3.7-6.6,5.5c-2.2,1.7-4.8,3-7.3,4.3c-2.4,1.2-5.1,2.3-7.7,2.8c-1.2,0.2-2.5,0.6-3.7,0.8c-1.4,0.2-2.7,0.3-4.1,0.5
			c-2.9,0.4-6,0.5-8.9,0.3c-3-0.2-5.9-0.3-8.9-0.7c-3-0.4-6-1.1-8.9-1.9c-5.4-1.6-10.4-4-15-7.4c-2.4-1.8-4.5-4-6.4-6.3
			c-0.7-1.2-1.7-2.2-2.4-3.5c-0.3-0.6-0.8-1.1-1.1-1.7c-0.3-0.7-0.6-1.3-1-2c-0.8-1.6-1.5-3.3-2.1-5c-0.7-2-1.6-4-1.9-6.1
			c-1-3.6-1.4-7.3-1.9-11c-0.5-3.9-0.6-7.9-0.6-11.8C49.9,490.5,50,486.2,50.5,482.1C50.6,481.5,50.4,482.7,50.5,482.1z"/>
		<path fill="#FFFFFF" d="M58.6,483.6c0.4-2.9,0.6-5.9,1.3-8.8c0.3-1.1,0.6-2.4,0.8-3.5c0.2-1.4,0.8-2.7,1.1-4
			c1.6-5.6,3.9-11.3,7-16.2c1.5-2.4,2.9-4.9,4.8-7.1c0.8-1,1.7-2.1,2.6-3.1c0.9-1,2-2,2.9-3c1.7-2,4.1-3.4,6.1-5.1
			c2.3-1.3,4.5-2.7,6.9-3.8c2.3-1.1,4.8-1.9,7.4-2.3c1.6-0.3,3.1-0.6,4.7-0.6c0.8,0,1.6,0,2.4,0c0.9,0,1.8,0.2,2.8,0.2
			c2.7,0.2,5,1.3,7.5,2.2c2.4,1,4.8,2.4,6.8,4c4.3,3.5,8.2,7.3,11.3,12c3.3,5,6.2,10.3,8.2,15.9c4,11.3,5.2,23.3,3.6,35.2
			c-0.8,5.5-2,11.1-4.1,16.2c-1.1,2.6-2.2,5.3-3.8,7.7c-1.2,2.5-3.1,4.5-4.6,6.8c-0.7,1.1-1.7,1.9-2.6,2.9c-0.9,1-2,2-3,2.8
			c-2,1.6-4.1,3.2-6.4,4.4c-2.4,1.2-4.7,2.4-7.3,3.1c-2.6,0.9-5.2,1.1-7.9,1.5c-5.9,0.8-11.9-0.1-17.7-0.8c-5.1-1.3-10.7-2.6-15-6
			c-3.5-2.1-6.7-5.5-8.8-8.9c-2.3-3.8-4.3-7.9-5.3-12.2c-0.5-2.2-1-4.4-1.3-6.7c-0.3-2.4-0.4-4.7-0.6-7.1c-0.2-2.4-0.2-5-0.1-7.5
			C58.4,489.1,58.3,486.4,58.6,483.6C58.7,483.2,58.6,484.2,58.6,483.6z M83.7,482c-0.4,3.1-0.1,6.5,0.3,9.6
			c0.2,1.3,0.5,2.7,0.8,3.9c0.4,1.4,1.1,2.7,1.6,4.1c0.9,2.4,2.7,4.6,4.5,6.3c1,0.9,2.1,1.6,3.3,2.4c1.2,0.6,2.5,0.9,3.7,1.3
			c1.2,0.4,2.5,0.3,3.8,0.3c1.4,0,2.9-0.2,4.2-0.6c2.5-0.8,4.7-1.9,6.8-3.5c2-1.6,3.8-4,5-6.3c0.8-1.2,1.2-2.5,1.8-3.7
			c0.4-1.4,1-2.8,1.2-4.2c1.6-5.6,1-11.8,0.3-17.5c-0.3-2.6-1.2-5-1.9-7.5c-0.6-1.3-1.1-2.6-1.7-3.9c-0.6-1.3-1.5-2.4-2.2-3.6
			c-1.2-2.1-3.5-3.8-5.5-4.9c-2.6-1.4-5.7-1.6-8.6-0.8c-5.3,1.3-9.2,5.2-11.9,9.7C85.8,468.6,84.6,475.3,83.7,482
			C83.7,482.5,83.8,481.4,83.7,482z"/>
	</g>
</g>
</svg>
