<?xml version="1.0" encoding="utf-8"?>
<!-- Generator: Adobe Illustrator 18.0.0, SVG Export Plug-In . SVG Version: 6.00 Build 0)  -->
<!DOCTYPE svg PUBLIC "-//W3C//DTD SVG 1.0//EN" "http://www.w3.org/TR/2001/REC-SVG-20010904/DTD/svg10.dtd" [
	<!ENTITY ns_flows "http://ns.adobe.com/Flows/1.0/">
	<!ENTITY ns_extend "http://ns.adobe.com/Extensibility/1.0/">
	<!ENTITY ns_ai "http://ns.adobe.com/AdobeIllustrator/10.0/">
	<!ENTITY ns_graphs "http://ns.adobe.com/Graphs/1.0/">
]>
<svg version="1.0" id="Camada_1" xmlns:x="&ns_extend;" xmlns:i="&ns_ai;" xmlns:graph="&ns_graphs;"
	 xmlns="http://www.w3.org/2000/svg" xmlns:xlink="http://www.w3.org/1999/xlink" xmlns:a="http://ns.adobe.com/AdobeSVGViewerExtensions/3.0/"
	 x="0px" y="0px" viewBox="-31 357.8 356.7 349.3" enable-background="new -31 357.8 356.7 349.3" xml:space="preserve">
<image overflow="visible" width="2486" height="2479" xlink:href="../../banco de imagens/bot천es/butt 22.png"  transform="matrix(0.1336 0 0 0.1336 -18.7816 368.796)">
</image>
<g>
	
		<image overflow="visible" width="2631" height="2500" xlink:href="../../banco de imagens/bot천es/butt 31.png"  transform="matrix(3.166667e-002 0 0 3.166667e-002 11.9652 576.965)">
	</image>
	
		<image overflow="visible" width="2631" height="2500" xlink:href="../../banco de imagens/bot천es/butt 31.png"  transform="matrix(3.166667e-002 0 0 3.166667e-002 105.6758 576.965)">
	</image>
	
		<image overflow="visible" width="2631" height="2500" xlink:href="../../banco de imagens/bot천es/butt 31.png"  transform="matrix(3.166667e-002 0 0 3.166667e-002 199.3865 576.965)">
	</image>
</g>
<g>
	<g>
		<g>
			<path d="M189.2,562.2c-3-5.3-7.3-15.3-2.4-31c-7.4,0.7-19.7-5.6-26.5-13.3c-6.9-7.7-8.1-20.4-8.1-31c0-0.5,0.7-9.8,0.8-10.2
				c0.1-0.5,0.5-2.2,0.6-2.7c0.1-0.5,0.2-1,0.3-1.4c0.1-0.4,0.3-0.8,0.4-1.3c0.1-0.4,0.3-0.8,0.4-1.2c0.1-0.4,0.3-0.8,0.5-1.3
				c0.1-0.4,0.3-0.7,0.5-1.2c0.1-0.4,0.3-0.7,0.5-1.2c0.1-0.4,0.3-0.7,0.5-1.1c0.2-0.4,0.4-0.8,0.6-1.2c0.2-0.4,0.4-0.7,0.6-1.1
				c0.2-0.4,0.5-0.7,0.7-1.1c0.2-0.3,0.4-0.6,0.6-1c0.3-0.4,0.5-0.7,0.7-1c0.3-0.4,0.5-0.7,0.7-1c0.3-0.3,0.6-0.6,0.8-1
				c0.2-0.3,0.5-0.6,0.7-0.8c0.3-0.3,0.6-0.6,0.8-0.8c0.3-0.3,0.6-0.5,0.8-0.7c0.3-0.3,0.6-0.6,1-0.8c0.3-0.2,0.6-0.5,0.8-0.7
				c0.3-0.2,0.6-0.4,1-0.6c0.3-0.3,0.6-0.5,1-0.7c0.3-0.2,0.6-0.4,1-0.6c0.3-0.2,0.6-0.4,1-0.5c0.4-0.2,0.7-0.4,1-0.6
				c0.4-0.1,0.7-0.3,1.1-0.5c0.3-0.1,0.6-0.3,1-0.4c0.4-0.2,0.7-0.4,1.1-0.5c0.4-0.1,0.7-0.3,1.1-0.4c0.4-0.1,0.7-0.2,1.1-0.3
				c0.4-0.1,0.7-0.3,1.1-0.4c0.4-0.1,0.7-0.1,1.1-0.2c0.4-0.1,0.7-0.2,1.1-0.3c0.4-0.1,0.7-0.1,1.1-0.2c0.4-0.1,0.7-0.1,1.1-0.2
				c0.4-0.1,0.7-0.1,1.2-0.1c0.4-0.1,0.7-0.1,1.1-0.1c0.4-0.1,0.7-0.1,1.1-0.1c0.4,0,0.7,0,1.2-0.1c0.4,0,0.7,0,1.1,0.1
				c0.4,0,0.7,0,1.1,0s0.7,0,1.2,0.1c0.4,0,0.7,0,1.1,0.1c0.4,0.1,0.7,0.1,1.1,0.2c0.4,0.1,0.7,0.1,1.1,0.2c0.4,0.1,0.7,0.1,1.1,0.2
				c0.4,0.1,0.8,0.2,1.2,0.3c0.4,0.1,0.7,0.2,1.1,0.3c0.4,0.1,0.7,0.3,1,0.4c0.4,0.1,0.7,0.3,1.1,0.4c0.4,0.1,0.7,0.3,1.1,0.4
				c0.4,0.2,0.7,0.4,1,0.5c0.4,0.2,0.7,0.4,1.1,0.6c0.4,0.1,0.7,0.3,1,0.5c0.4,0.2,0.7,0.5,1,0.7c0.4,0.2,0.7,0.4,1,0.6
				c0.4,0.1,1.8,1.8,1.9,1.6c0.4-0.5,2.6-5.6,3-5.8c0.4-0.3,0.7-0.6,1.1-0.8c0.2-0.1,0.4-0.2,0.5-0.3c0.3-0.1,0.5-0.1,0.7-0.2
				c0.4-0.1,0.7-0.1,1.1-0.2c0.4-0.1,0.8-0.1,1.3-0.2c0.5,0,1,0,1.5-0.1c0.6-0.1,1.1-0.1,1.7-0.2c0.6,0,1.1,0,1.7-0.1
				c0.6,0,1.2,0,1.8-0.1c0.6,0,1.3,0,1.9,0c0.6,0,1.3,0,1.9,0c0.6,0,1.3,0,1.9,0c0.6,0.1,1.1,0.1,1.7,0.1c0.6,0.1,1.1,0.1,1.7,0.2
				c0.6,0,1.1,0,1.6,0.1c0.5,0.1,1,0.2,1.4,0.3c0.4,0.1,6,0.3,6.9,4.6c0.9,4.2-8.4,38.9-10,45.9c-1.6,7-7.8,27.6-2.8,29.9
				c5.9,2.5,10.4-6.8,10.6-6.9c11.7-4.7,17.9,32,7,41.9c-1.9,1.7-13.3,13.3-28.3,12.2C200.4,573.7,192.2,567.5,189.2,562.2z"/>
		</g>
		<path fill="#FFFFFF" d="M198.3,557.1c-0.2-0.3-0.3-0.6-0.5-0.9c-0.1-0.2-0.3-0.5-0.5-0.8c-0.1-0.3-0.2-0.6-0.4-0.9
			c-0.1-0.2-0.2-0.5-0.3-0.8c-0.1-0.3-0.2-0.6-0.3-0.9c-0.1-0.3-0.2-0.6-0.3-0.9c-0.1-0.3-0.2-0.6-0.3-0.9c-0.1-0.2-0.1-0.5-0.2-0.8
			c-0.1-0.4-0.1-0.7-0.2-1c-0.1-0.3-0.1-0.6-0.1-0.9c-0.1-0.3-0.1-0.6-0.2-0.9c0-0.4,0-0.7-0.1-1c0-0.3,0-0.6,0-1
			c-0.1-0.3-0.1-0.6-0.1-1c0-0.3,0-0.6,0-1c0-0.3,0-0.6,0-1c0-0.4,0-0.7,0-1.1c0-0.3,0-0.6,0.1-1c0-0.4,0-0.7,0-1.1
			c0.1-0.4,0.1-0.8,0.1-1.2c0.1-0.4,0.1-0.7,0.1-1.1c0.1-0.4,0.1-0.8,0.1-1.2c0.1-0.4,0.1-0.8,0.2-1.2c0.1-0.4,0.1-0.9,0.1-1.3
			c0.1-0.4,0.1-0.8,0.2-1.2c0.1-0.4,0.1-0.9,0.2-1.4c0.1-0.4,0.1-0.9,0.2-1.3c0.1-0.4,0.1-0.9,0.2-1.4c0.1-0.4,0.1-0.9,0.2-1.4
			c0.1-0.5,0.1-0.9,0.2-1.4c0.1-0.5,0.1-1,0.2-1.5c0.1-0.5,0.1-1,0.2-1.5c-0.1-0.5,0-1,0.3-1.5c0.2-0.7,0.3-1.2,0.2-1.5
			c-0.1-0.2-0.3,0-0.8,0.5c-0.2,0.2-0.5,0.3-0.8,0.5c-0.3,0.1-0.6,0.3-0.9,0.5c-0.2,0.1-0.5,0.2-0.8,0.4c-0.3,0.1-0.6,0.2-0.9,0.4
			c-0.3,0.1-0.6,0.2-0.9,0.3c-0.3,0.1-0.6,0.2-0.9,0.3c-0.4,0.1-0.7,0.2-1,0.3c-0.3,0.1-0.6,0.1-0.9,0.2c-0.3,0.1-0.6,0.1-1,0.1
			c-0.3,0.1-0.6,0.1-0.9,0.2c-0.3,0-0.6,0-1,0c-0.3,0.1-0.6,0.1-0.9,0.1c-0.4,0-0.7,0-1,0c-0.4,0-0.7,0-1-0.1c-0.3,0-0.6,0-1-0.1
			c-0.3,0-0.6,0-0.9-0.1c-0.4-0.1-0.7-0.1-1-0.2c-0.3-0.1-0.6-0.1-1-0.2c-0.3-0.1-0.6-0.2-0.9-0.3c-0.4-0.1-0.7-0.2-1-0.3
			c-0.3-0.1-0.6-0.2-0.9-0.4c-0.3-0.1-0.6-0.2-1-0.4c-0.3-0.1-0.6-0.3-0.9-0.5c-0.3-0.1-0.6-0.3-0.9-0.5c-0.3-0.1-0.6-0.3-0.9-0.5
			c-0.3-0.2-0.6-0.4-0.8-0.5c-0.3-0.2-0.6-0.4-0.9-0.6c-0.3-0.2-0.6-0.4-0.8-0.6c-0.3-0.2-0.6-0.5-0.8-0.6c-0.3-0.2-0.6-0.5-0.8-0.7
			c-0.3-0.3-0.6-0.6-0.8-0.8c-0.2-0.2-0.5-0.5-0.7-0.8c-0.2-0.3-0.5-0.6-0.7-0.8c-0.2-0.3-0.5-0.6-0.7-1c-0.2-0.3-0.5-0.6-0.7-0.9
			c-0.2-0.4-0.4-0.7-0.6-1c-0.2-0.4-0.4-0.7-0.5-1.1c-0.2-0.4-0.5-0.7-0.6-1.1c-0.2-0.4-0.4-0.7-0.5-1.1c-0.2-0.4-0.4-0.8-0.5-1.3
			c-0.1-0.4-0.3-0.8-0.5-1.2c-0.1-0.4-0.3-0.8-0.5-1.3c-0.1-0.5-0.2-0.9-0.4-1.4c-0.1-0.5-0.2-1-0.4-1.5c-0.1-0.4-0.2-0.9-0.3-1.4
			c-0.1-0.5-0.2-1.1-0.3-1.5c-0.1-0.5-0.2-1-0.3-1.5c-0.1-0.5-0.1-1-0.2-1.5c-0.1-0.5-0.1-1.1-0.1-1.6c-0.1-0.6-0.1-1.2-0.1-1.7
			c0-0.4,0-0.8,0-1.3c0-0.4,0-0.9,0-1.4c0-0.4,0-0.8,0.1-1.3c0-0.4,0-0.8,0.1-1.2c0.1-0.4,0.1-0.9,0.1-1.3c0.1-0.4,0.1-0.8,0.2-1.2
			c0.1-0.4,0.2-0.8,0.3-1.2c0.1-0.4,0.1-0.8,0.2-1.2c0.1-0.4,0.2-0.7,0.4-1.1c0.1-0.4,0.2-0.8,0.3-1.2c0.1-0.4,0.2-0.7,0.4-1.1
			c0.1-0.4,0.2-0.7,0.4-1c0.1-0.4,0.3-0.7,0.5-1.1c0.1-0.3,0.3-0.6,0.5-1c0.1-0.3,0.3-0.6,0.5-1c0.1-0.3,0.3-0.6,0.5-0.9
			c0.2-0.4,0.4-0.7,0.5-1c0.2-0.3,0.4-0.6,0.5-0.9c0.2-0.3,0.4-0.6,0.6-0.9c0.2-0.2,0.4-0.5,0.5-0.8c0.2-0.3,0.5-0.6,0.6-0.8
			c0.2-0.3,0.5-0.6,0.6-0.8c0.2-0.2,0.5-0.5,0.7-0.8c0.2-0.2,0.4-0.5,0.6-0.7c0.2-0.2,0.5-0.5,0.7-0.7c0.2-0.2,0.5-0.5,0.7-0.6
			c0.2-0.2,0.5-0.5,0.8-0.7c0.2-0.2,0.5-0.4,0.7-0.6c0.2-0.2,0.5-0.4,0.8-0.5c0.2-0.2,0.5-0.5,0.8-0.6c0.2-0.2,0.5-0.4,0.8-0.5
			c0.2-0.2,0.5-0.3,0.8-0.5c0.3-0.2,0.6-0.4,0.8-0.5c0.3-0.1,0.6-0.3,0.9-0.5c0.2-0.1,0.5-0.2,0.8-0.4c0.3-0.2,0.6-0.3,0.9-0.5
			c0.3-0.1,0.6-0.2,0.9-0.4c0.3-0.1,0.6-0.2,0.9-0.3c0.3-0.1,0.6-0.2,0.9-0.4c0.3-0.1,0.6-0.1,0.9-0.2c0.3-0.1,0.6-0.2,0.9-0.3
			c0.3-0.1,0.6-0.1,0.9-0.2c0.3-0.1,0.6-0.1,0.9-0.2c0.3-0.1,0.6-0.1,1-0.1c0.3-0.1,0.6-0.1,0.9-0.1c0.3-0.1,0.6-0.1,0.9-0.1
			c0.3,0,0.6,0,1-0.1c0.3,0,0.6,0,0.9,0.1c0.3,0,0.6,0,0.9,0c0.3,0,0.6,0,1,0.1c0.3,0,0.6,0,0.9,0.1c0.3,0.1,0.6,0.1,0.9,0.2
			c0.3,0.1,0.6,0.1,0.9,0.2c0.3,0.1,0.6,0.1,0.9,0.2c0.4,0.1,0.7,0.2,1,0.3c0.3,0.1,0.6,0.2,0.9,0.3c0.3,0.1,0.6,0.2,0.8,0.4
			c0.3,0.1,0.6,0.2,0.9,0.4c0.3,0.1,0.6,0.2,0.9,0.4c0.3,0.2,0.6,0.3,0.8,0.5c0.3,0.2,0.6,0.4,0.9,0.5c0.3,0.1,0.6,0.3,0.8,0.5
			c0.3,0.2,0.6,0.4,0.8,0.6c0.3,0.2,0.6,0.4,0.8,0.5c0.4,0.1,1.5,1.5,1.6,1.4c0.3-0.4,2.2-4.8,2.6-5c0.3-0.2,0.6-0.5,0.9-0.7
			c0.2-0.1,0.3-0.2,0.5-0.3c0.2-0.1,0.5-0.1,0.6-0.2c0.3-0.1,0.6-0.1,0.9-0.2c0.4-0.1,0.7-0.1,1.1-0.2c0.4,0,0.8,0,1.3-0.1
			c0.5-0.1,1-0.1,1.5-0.2c0.5,0,1,0,1.5-0.1c0.5,0,1.1,0,1.5-0.1c0.5,0,1.1,0,1.6,0s1.1,0,1.6,0c0.5,0,1.1,0,1.6,0
			c0.5,0.1,1,0.1,1.5,0.1c0.5,0.1,1,0.1,1.5,0.2c0.5,0,0.9,0,1.4,0.1c0.4,0.1,0.8,0.2,1.2,0.3c0.4,0.1,0.7,0.2,1,0.3
			c0.2,0.1,0.5,0.2,0.8,0.4c0.2,0.1,0.3,0.2,0.5,0.4c0.1,0.1,0.2,0.3,0.3,0.5c0.1,0.1,0.1,0.2,0.1,0.3c0,0.1,0,0.2,0,0.3
			c0,0.1,0,0.2,0,0.4c0,0.2,0,0.3-0.1,0.5c0,0.2,0,0.3,0,0.5c-0.1,0.2-0.1,0.4-0.1,0.5c0,0.2,0,0.5-0.1,0.6
			c-0.1,0.2-0.1,0.4-0.1,0.6c-0.1,0.2-0.1,0.5-0.2,0.6c0,0.2,0,0.5-0.1,0.7c-0.1,0.3-0.1,0.6-0.2,0.8c-0.1,0.3-0.1,0.6-0.2,0.8
			c-0.1,0.3-0.1,0.6-0.2,0.9c-0.1,0.3-0.1,0.6-0.2,0.9c-0.1,0.3-0.2,0.6-0.3,0.9c-0.1,0.3-0.1,0.6-0.2,1c-0.1,0.3-0.2,0.6-0.3,1
			c-0.1,0.4-0.2,0.7-0.3,1c-0.1,0.4-0.2,0.7-0.3,1.1c-0.1,0.4-0.2,0.8-0.3,1.2c-0.1,0.4-0.2,0.7-0.3,1.1c-0.1,0.4-0.2,0.8-0.3,1.2
			c-0.1,0.4-0.2,0.8-0.3,1.2c-0.1,0.4-0.2,0.9-0.4,1.3c-0.1,0.4-0.2,0.9-0.3,1.3c-0.1,0.4-0.2,0.9-0.4,1.3c-0.1,0.4-0.2,0.9-0.3,1.3
			c-0.1,0.4-0.2,0.9-0.4,1.3c-0.1,0.4-0.2,0.9-0.3,1.4c-0.1,0.4-0.2,0.9-0.4,1.3c-0.1,0.5-0.2,0.9-0.3,1.4c-0.1,0.5-0.2,0.9-0.4,1.4
			c-0.1,0.5-0.2,1-0.4,1.5c-0.1,0.4-0.2,0.9-0.3,1.4c-0.1,0.4-0.2,0.9-0.4,1.4c-0.1,0.5-0.2,1-0.3,1.5c-0.1,0.4-0.2,0.9-0.4,1.4
			c-0.1,0.5-0.2,0.9-0.3,1.4c-0.1,0.5-0.2,1-0.3,1.5c-0.1,0.5-0.2,0.9-0.4,1.4c-0.1,0.5-0.2,1-0.3,1.5c-0.1,0.5-0.2,0.9-0.3,1.4
			c-0.1,0.5-0.2,1-0.3,1.5c-0.1,0.4-0.2,0.9-0.3,1.4c-0.1,0.5-0.1,0.9-0.2,1.4c-0.1,0.5-0.2,0.9-0.3,1.4c-0.1,0.5-0.2,0.9-0.3,1.4
			c-0.1,0.5-0.1,0.9-0.2,1.4c-0.1,0.5-0.1,0.9-0.2,1.4c-0.1,0.4-0.1,0.9-0.2,1.3c-0.1,0.5-0.1,0.9-0.2,1.4c-0.1,0.4-0.1,0.9-0.2,1.3
			c-0.1,0.4-0.1,0.9-0.2,1.3c0,0.4,0,0.8-0.1,1.2c-0.1,0.4-0.1,0.9-0.1,1.3c-0.1,0.4-0.1,0.8-0.1,1.2c0,0.4,0,0.8-0.1,1.2
			c0,0.4,0,0.7,0,1.1c0,0.4,0,0.7-0.1,1.1c0,0.4,0,0.7,0,1.1c0,0.4,0,0.7,0.1,1.1c0,0.3,0,0.6,0,1c0,0.3,0,0.6,0.1,0.9
			c0,0.3,0,0.6,0.1,1c0,0.3,0,0.6,0.1,0.8c0.1,0.3,0.1,0.6,0.2,0.9c0.1,0.2,0.1,0.5,0.2,0.8c0.1,0.2,0.1,0.5,0.2,0.7
			c0.1,0.2,0.2,0.5,0.3,0.7c0.1,0.2,0.1,0.5,0.2,0.6c0.1,0.2,0.2,0.5,0.4,0.6c0.2,0.4,0.4,0.7,0.5,1c0.2,0.2,0.4,0.5,0.6,0.7
			c0.2,0.2,0.5,0.3,0.7,0.5c0.2,0.1,0.5,0.2,0.7,0.3c0.2,0.1,0.5,0.1,0.8,0.1c0.2,0,0.5,0,0.7-0.1c0.3-0.1,0.6-0.1,0.8-0.2
			c0.3-0.1,0.6-0.2,0.8-0.3c0.3-0.1,0.6-0.3,0.8-0.5c0.2-0.1,0.5-0.3,0.8-0.5c0.2-0.2,0.5-0.4,0.8-0.5c0.2-0.1,0.5-0.3,0.7-0.5
			c0.2-0.2,0.5-0.4,0.7-0.5c0.2-0.2,0.5-0.3,0.7-0.5c0.2-0.2,0.5-0.3,0.6-0.5c0.2-0.1,0.5-0.2,0.6-0.4c0.2-0.1,0.4-0.2,0.5-0.3
			c0.2-0.1,0.4-0.1,0.5-0.1c0.1-0.1,0.2-0.1,0.4,0c0.2,0.1,0.3,0.1,0.5,0.2c0.2,0.2,0.3,0.4,0.5,0.5c0.1,0.2,0.3,0.4,0.5,0.6
			c0.1,0.3,0.3,0.6,0.5,0.9c0.1,0.4,0.3,0.7,0.5,1.1c0.1,0.4,0.2,0.8,0.4,1.2c0.2,0.4,0.3,0.9,0.5,1.3c0.1,0.5,0.3,1,0.5,1.5
			c0.1,0.5,0.2,1,0.4,1.5c0.1,0.5,0.2,1,0.4,1.5c0.1,0.5,0.2,1,0.3,1.5c0.1,0.5,0.2,1,0.3,1.5c0.1,0.5,0.1,0.9,0.2,1.4
			c0.1,0.5,0.1,0.9,0.2,1.4c0,0.4,0,0.8,0.1,1.2c0,0.4,0,0.7,0,1.1c0,0.3,0,0.6-0.1,0.9c0,0.2,0,0.5-0.1,0.7
			c-0.1,0.2-0.2,0.4-0.3,0.5c-0.1,0.2-0.3,0.4-0.5,0.6c-0.2,0.2-0.3,0.4-0.5,0.6c-0.2,0.2-0.4,0.4-0.5,0.5c-0.2,0.2-0.4,0.5-0.6,0.6
			c-0.2,0.2-0.4,0.5-0.5,0.6c-0.2,0.2-0.5,0.5-0.6,0.6c-0.2,0.2-0.5,0.4-0.7,0.6c-0.2,0.2-0.5,0.4-0.7,0.5c-0.2,0.2-0.5,0.4-0.7,0.6
			c-0.2,0.2-0.5,0.4-0.7,0.5c-0.3,0.2-0.6,0.4-0.8,0.5c-0.3,0.2-0.6,0.4-0.8,0.5c-0.3,0.2-0.6,0.4-0.8,0.5c-0.3,0.2-0.6,0.4-0.9,0.5
			c-0.3,0.1-0.6,0.3-0.9,0.5c-0.3,0.2-0.6,0.3-0.9,0.5c-0.3,0.2-0.6,0.3-0.9,0.5c-0.3,0.1-0.6,0.3-0.9,0.5c-0.3,0.1-0.6,0.2-1,0.4
			c-0.3,0.1-0.6,0.2-0.9,0.4c-0.3,0.1-0.6,0.2-1,0.4c-0.3,0.1-0.6,0.2-1,0.3c-0.3,0.1-0.6,0.2-0.9,0.3c-0.4,0.1-0.7,0.2-1,0.3
			c-0.4,0.1-0.7,0.1-1,0.2c-0.4,0.1-0.7,0.1-1,0.2c-0.4,0.1-0.7,0.1-1,0.2c-0.3,0-0.6,0-1,0.1c-0.3,0-0.6,0-1,0c-0.3,0-0.6,0-0.9,0
			c-0.4,0-0.7,0-1,0c-0.3,0-0.6,0-1-0.1c-0.3-0.1-0.6-0.1-0.9-0.1c-0.3-0.1-0.6-0.1-1-0.2c-0.3-0.1-0.6-0.2-0.9-0.3
			c-0.3-0.1-0.6-0.2-0.9-0.3c-0.3-0.1-0.6-0.2-0.9-0.4c-0.2-0.1-0.5-0.2-0.8-0.4c-0.3-0.2-0.6-0.3-0.9-0.5c-0.2-0.2-0.5-0.4-0.8-0.5
			c-0.2-0.2-0.5-0.4-0.8-0.5c-0.2-0.2-0.5-0.4-0.7-0.6c-0.2-0.2-0.5-0.5-0.7-0.7c-0.2-0.2-0.5-0.5-0.7-0.7c-0.2-0.3-0.5-0.6-0.7-0.8
			c-0.2-0.3-0.5-0.6-0.6-0.9c-0.2-0.3-0.5-0.6-0.6-1C198.6,557.8,198.5,557.4,198.3,557.1z M197.1,490.5c-0.1-0.4-0.3-0.9-0.5-1.3
			c-0.1-0.4-0.3-0.7-0.5-1.1c-0.2-0.3-0.4-0.6-0.6-1c-0.2-0.2-0.5-0.5-0.8-0.8c-0.2-0.2-0.5-0.5-0.9-0.6c-0.3-0.2-0.6-0.3-0.9-0.5
			c-0.4-0.2-0.7-0.3-1.1-0.4c-0.3-0.1-0.6-0.1-1-0.1c-0.4,0-0.7,0.1-1.1,0.2c-0.4,0.1-0.8,0.2-1.2,0.4c-0.4,0.2-0.7,0.4-1,0.6
			c-0.3,0.3-0.6,0.6-0.8,0.9c-0.2,0.3-0.5,0.6-0.6,1c-0.2,0.4-0.4,0.8-0.5,1.2c-0.1,0.5-0.2,0.9-0.3,1.4c-0.1,0.4-0.1,0.9,0,1.4
			c0,0.5,0.1,0.9,0.2,1.4c0.1,0.4,0.2,0.9,0.4,1.3c0.2,0.4,0.4,0.7,0.5,1.1c0.2,0.4,0.4,0.7,0.6,1c0.3,0.3,0.6,0.6,0.8,0.8
			c0.3,0.2,0.6,0.5,0.9,0.6c0.3,0.2,0.6,0.4,1,0.5c0.3,0.1,0.6,0.2,1,0.3c0.4,0.1,0.7,0.1,1.1,0.1s0.7,0,1.1-0.1
			c0.4-0.1,0.7-0.3,1.1-0.5c0.4-0.2,0.7-0.4,1-0.6c0.3-0.3,0.6-0.6,0.9-0.9c0.2-0.3,0.5-0.6,0.6-1c0.2-0.4,0.3-0.8,0.5-1.2
			c0.1-0.4,0.2-0.9,0.3-1.4c0.1-0.4,0.1-0.9,0.1-1.4C197.2,491.4,197.2,490.9,197.1,490.5z"/>
	</g>
	<g>
		<path d="M47.2,463.6c0.1-0.5,0.2-1.1,0.2-1.6c0.1-0.6,0.2-1.2,0.2-1.8c0.1-0.6,0.2-1.1,0.2-1.6c0.1-0.6,0.2-1.2,0.2-1.8
			c0.2-0.5,0.3-1.1,0.3-1.6c0.1-0.6,0.2-1.1,0.3-1.6c0.1-0.6,0.2-1.1,0.3-1.6c0.2-0.6,0.3-1.1,0.5-1.6c0.1-0.6,0.2-1.1,0.3-1.6
			c0.2-0.5,0.3-1.1,0.5-1.6c0.2-0.5,0.4-1,0.6-1.5c0.2-0.5,0.3-1.1,0.5-1.6c0.2-0.5,0.4-1,0.6-1.5c0.2-0.5,0.3-1,0.6-1.5
			c0.2-0.5,0.4-1,0.6-1.5c0.2-0.5,0.5-1,0.7-1.5c0.2-0.5,0.3-1,0.6-1.4c0.2-0.5,0.5-1,0.7-1.5c0.2-0.4,0.5-0.9,0.7-1.4
			c0.3-0.5,0.6-1,0.8-1.4c0.2-0.5,0.5-1,0.7-1.4c0.3-0.4,0.6-0.9,0.8-1.4c0.3-0.4,0.6-0.9,0.8-1.3c0.3-0.4,0.6-0.9,0.8-1.3
			c0.3-0.4,0.6-0.9,0.9-1.3c0.2-0.4,0.5-0.9,0.8-1.3c0.3-0.4,0.6-0.9,0.9-1.3c0.3-0.4,0.6-0.8,0.9-1.2c0.3-0.4,0.6-0.8,0.9-1.2
			c0.3-0.4,0.7-0.8,1-1.2c0.3-0.4,0.6-0.7,0.9-1.1c0.4-0.4,0.7-0.8,1-1.2c0.3-0.4,0.7-0.7,1-1.1c0.3-0.4,0.7-0.7,1-1
			c0.3-0.4,0.7-0.7,1-1.1c0.4-0.3,0.7-0.6,1-1c0.4-0.3,0.8-0.6,1.2-1c0.4-0.3,0.8-0.6,1.2-0.9c0.4-0.4,0.8-0.7,1.2-1
			c0.4-0.3,0.8-0.6,1.2-0.9c0.4-0.3,0.8-0.5,1.2-0.8c0.4-0.3,0.8-0.6,1.2-0.9c0.4-0.2,0.8-0.5,1.2-0.8c0.5-0.2,0.9-0.4,1.3-0.7
			c0.4-0.2,0.8-0.4,1.3-0.7c0.4-0.2,0.8-0.4,1.3-0.7c0.4-0.2,0.8-0.4,1.2-0.7c0.5-0.2,0.9-0.4,1.4-0.5c0.4-0.2,0.8-0.4,1.3-0.5
			c0.4-0.1,0.8-0.3,1.3-0.5c0.5-0.1,0.9-0.3,1.3-0.4c0.5-0.1,0.9-0.3,1.4-0.3c0.5-0.1,0.9-0.3,1.4-0.4c0.4-0.1,0.8-0.2,1.3-0.3
			c0.5-0.1,0.9-0.1,1.4-0.2c0.5-0.1,0.9-0.1,1.4-0.2c0.5-0.1,0.9-0.1,1.4-0.2c0.5-0.1,0.9-0.1,1.4-0.1c0.5-0.1,0.9-0.1,1.4-0.1
			c0.5,0,0.9,0,1.4,0c0.5,0,0.9,0,1.4,0c0.5,0,0.9,0,1.4,0c0.5,0.1,0.9,0.1,1.4,0.2c0.5,0,0.9,0,1.4,0.1c0.4,0.1,0.8,0.1,1.3,0.2
			c0.5,0.1,0.9,0.3,1.4,0.3c0.4,0.1,0.8,0.3,1.3,0.3c0.5,0.1,0.9,0.3,1.3,0.4c0.5,0.1,0.9,0.3,1.4,0.4c0.4,0.2,0.8,0.4,1.3,0.5
			c0.4,0.1,0.8,0.3,1.3,0.5c0.4,0.2,0.8,0.4,1.3,0.7c0.4,0.2,0.8,0.4,1.2,0.7c0.5,0.2,0.9,0.4,1.3,0.7c0.4,0.2,0.8,0.5,1.3,0.8
			c0.4,0.2,0.8,0.5,1.2,0.8c0.4,0.3,0.8,0.6,1.2,0.9c0.4,0.3,0.8,0.6,1.2,0.9c0.4,0.3,0.8,0.6,1.2,0.9c0.4,0.3,0.8,0.6,1.2,1
			c0.4,0.3,0.8,0.6,1.2,1c0.3,0.4,0.7,0.7,1,1c0.4,0.4,0.7,0.7,1,1.1c0.4,0.4,0.7,0.7,1,1.1c0.4,0.4,0.7,0.7,1,1.1
			c0.4,0.4,0.7,0.8,1,1.2c0.3,0.4,0.7,0.8,1,1.2c0.3,0.4,0.6,0.8,0.9,1.2c0.3,0.4,0.6,0.9,0.9,1.3c0.3,0.4,0.6,0.9,0.9,1.3
			c0.3,0.4,0.6,0.9,0.9,1.3c0.3,0.4,0.6,0.9,0.8,1.3c0.3,0.4,0.6,0.9,0.9,1.3c0.2,0.5,0.5,1,0.8,1.4c0.2,0.4,0.5,0.9,0.8,1.4
			c0.2,0.4,0.5,0.9,0.7,1.4c0.3,0.5,0.6,1,0.8,1.4c0.2,0.5,0.5,1,0.7,1.5c0.2,0.5,0.5,1,0.7,1.4c0.2,0.5,0.4,1,0.6,1.5
			c0.2,0.5,0.5,1,0.7,1.5c0.2,0.5,0.3,1,0.6,1.5c0.2,0.5,0.3,1,0.6,1.5c0.2,0.5,0.3,1.1,0.5,1.6c0.2,0.5,0.3,1,0.5,1.5
			c0.2,0.5,0.3,1,0.5,1.5c0.2,0.6,0.3,1.1,0.5,1.6c0.2,0.5,0.3,1.1,0.3,1.6c0.2,0.5,0.3,1,0.3,1.5c0.2,0.6,0.3,1.1,0.3,1.6
			c0.2,0.5,0.3,1.1,0.3,1.6c0.1,0.5,0.2,1.1,0.2,1.6c0.1,0.5,0.2,1,0.2,1.5c0.1,0.6,0.1,1.1,0.1,1.6c0.1,0.6,0.1,1.1,0.1,1.6
			c0.1,0.5,0.1,1.1,0.1,1.6c0.1,0.5,0.1,1.1,0.1,1.6c0,0.6,0,1.2,0,1.8c0,0.6,0,1.2,0,1.8s0,1.2,0,1.8c-0.1,0.6-0.1,1.2-0.1,1.8
			c-0.1,0.6-0.1,1.2-0.1,1.8c-0.1,0.6-0.1,1.2-0.1,1.8c-0.1,0.6-0.2,1.1-0.2,1.6c-0.1,0.6-0.2,1.2-0.2,1.8c-0.1,0.5-0.2,1.1-0.2,1.6
			c-0.1,0.6-0.2,1.1-0.2,1.6c-0.2,0.6-0.3,1.1-0.3,1.6c-0.2,0.6-0.3,1.1-0.3,1.6c-0.2,0.5-0.3,1.1-0.3,1.6c-0.2,0.5-0.3,1-0.5,1.5
			c-0.2,0.5-0.3,1-0.5,1.5c-0.2,0.5-0.3,1.1-0.5,1.6c-0.2,0.5-0.3,1-0.5,1.4c-0.2,0.5-0.4,1-0.6,1.5c-0.2,0.5-0.3,1-0.6,1.5
			c-0.2,0.4-0.3,0.9-0.6,1.4c-0.2,0.5-0.4,1-0.6,1.4c-0.2,0.5-0.5,1-0.7,1.4c-0.2,0.4-0.5,0.9-0.7,1.4c-0.2,0.4-0.5,0.9-0.7,1.3
			c-0.3,0.4-0.6,0.9-0.8,1.3c-0.2,0.4-0.5,0.9-0.8,1.3c-0.2,0.4-0.5,0.9-0.8,1.3c-0.2,0.4-0.5,0.8-0.8,1.2c-0.2,0.4-0.5,0.9-0.8,1.3
			c-0.3,0.4-0.6,0.7-0.9,1.1c-0.3,0.4-0.6,0.8-0.9,1.2c-0.3,0.4-0.6,0.7-0.9,1.1c-0.3,0.4-0.6,0.8-0.9,1.2c-0.4,0.4-0.7,0.7-1,1
			c-0.3,0.4-0.7,0.7-1,1.1c-0.3,0.4-0.7,0.7-1,1c-0.4,0.4-0.7,0.7-1,1c-0.4,0.3-0.8,0.6-1.2,1c-0.4,0.3-0.8,0.6-1.2,0.9
			c-0.4,0.3-0.8,0.6-1.2,0.9c-0.4,0.3-0.8,0.5-1.2,0.8c-0.4,0.3-0.8,0.6-1.2,0.9c-0.5,0.2-0.9,0.5-1.3,0.8c-0.4,0.2-0.8,0.4-1.3,0.7
			c-0.4,0.2-0.8,0.4-1.3,0.7c-0.5,0.2-0.9,0.4-1.3,0.7c-0.5,0.2-0.9,0.4-1.4,0.7c-0.4,0.1-0.8,0.3-1.3,0.5c-0.5,0.1-0.9,0.3-1.4,0.5
			c-0.5,0.1-0.9,0.3-1.4,0.4c-0.5,0.1-1,0.3-1.5,0.4c-0.5,0.1-0.9,0.3-1.4,0.4c-0.5,0.1-1,0.2-1.5,0.3c-0.5,0.1-1,0.2-1.5,0.3
			c-0.5,0.1-1,0.1-1.5,0.2c-0.5,0.1-1,0.1-1.5,0.2c-0.5,0.1-1,0.1-1.5,0.1c-0.5,0.1-1.1,0.1-1.6,0.2c-0.5,0-1,0-1.5,0
			c-0.8,0.1-1.5,0.1-2.3,0.1c-0.7,0-1.4,0-2.1,0c-0.7,0-1.4,0-2.2-0.1c-0.6,0-1.3,0-2,0c-0.7-0.1-1.4-0.1-2.1-0.2
			c-0.6,0-1.2,0-1.9-0.1c-0.7-0.1-1.4-0.1-2-0.2c-0.6-0.1-1.2-0.2-1.9-0.3c-0.5-0.1-1.1-0.1-1.7-0.2c-0.6-0.1-1.2-0.3-1.7-0.3
			c-0.5-0.1-1.1-0.3-1.7-0.4c-0.5-0.1-1.1-0.3-1.6-0.4c-0.5-0.1-1-0.3-1.5-0.4c-0.5-0.1-1.1-0.3-1.6-0.4c-0.5-0.2-1-0.4-1.5-0.5
			c-0.5-0.2-0.9-0.4-1.4-0.7c-0.5-0.1-0.9-0.3-1.4-0.5c-0.5-0.2-0.9-0.4-1.4-0.7c-0.4-0.2-0.8-0.4-1.3-0.7c-0.4-0.2-0.8-0.5-1.3-0.8
			c-0.4-0.2-0.8-0.5-1.2-0.8c-0.4-0.2-0.8-0.5-1.2-0.8c-0.4-0.2-0.8-0.5-1.2-0.8c-0.4-0.3-0.7-0.6-1-0.9c-0.4-0.3-0.7-0.6-1-0.9
			c-0.4-0.3-0.7-0.6-1-0.9c-0.3-0.4-0.6-0.7-0.9-1c-0.3-0.3-0.6-0.6-0.9-1c-0.3-0.3-0.6-0.6-0.9-1c-0.2-0.4-0.5-0.7-0.8-1
			c-0.2-0.4-0.5-0.7-0.8-1.1c-0.2-0.4-0.5-0.7-0.7-1.1c-0.2-0.4-0.5-0.7-0.8-1.1c-0.2-0.4-0.4-0.8-0.6-1.2c-0.2-0.4-0.5-0.7-0.7-1.1
			c-0.2-0.4-0.4-0.8-0.6-1.2c-0.2-0.4-0.4-0.8-0.6-1.2c-0.2-0.4-0.4-0.9-0.6-1.3c-0.2-0.4-0.3-0.8-0.5-1.2c-0.2-0.4-0.4-0.9-0.6-1.3
			c-0.2-0.4-0.3-0.9-0.3-1.3c-0.2-0.4-0.3-0.9-0.5-1.3c-0.2-0.4-0.3-0.9-0.3-1.3c-0.2-0.5-0.3-1-0.3-1.4c-0.2-0.4-0.3-0.9-0.3-1.4
			c-0.1-0.4-0.2-0.9-0.3-1.4c-0.1-0.4-0.2-0.9-0.2-1.4c-0.1-0.4-0.2-0.9-0.2-1.4c-0.1-0.5-0.2-1-0.2-1.4c0-0.5,0-1-0.1-1.5
			c-0.1-0.5-0.1-1-0.1-1.5c-0.1-0.5-0.2-1-0.2-1.4c0-0.5,0-1,0-1.5c-0.1-0.6-0.1-1.1-0.1-1.6c0-0.5,0-1,0-1.5
			c-0.1-0.5-0.1-1-0.1-1.5c0-0.5,0-1.1,0-1.6c0-0.5,0-1,0-1.5c0.1-0.6,0.1-1.1,0.1-1.6c0-0.5,0-1.1,0-1.6c0.1-0.5,0.1-1.1,0.1-1.6
			c0-0.5,0-1.1,0.1-1.6c0-0.5,0-1.1,0.1-1.6C47.1,464.7,47.1,464.2,47.2,463.6z"/>
		<path d="M119.8,521.1c-7,5.1-25.9,6.1-26.3,6c-0.5-0.1-1-0.1-1.5-0.1c-0.5-0.1-1-0.1-1.5-0.2c-0.4,0-0.8,0-1.2-0.1
			c-0.4-0.1-0.8-0.1-1.2-0.1c-0.4-0.1-0.8-0.1-1.2-0.2c-0.4-0.1-0.7-0.3-1.1-0.3c-0.4-0.1-0.8-0.1-1.2-0.2c-0.4-0.1-0.8-0.3-1.2-0.4
			c-0.4-0.1-0.8-0.2-1.2-0.3c-0.4-0.1-0.7-0.3-1.1-0.4s-0.7-0.3-1.1-0.4c-0.4-0.1-0.8-0.3-1.2-0.4c-0.4-0.1-0.7-0.3-1.1-0.5
			c-0.4-0.1-0.7-0.3-1.1-0.5c-0.4-0.2-0.7-0.4-1.1-0.5c-0.4-0.2-0.7-0.4-1.1-0.7c-0.4-0.2-0.7-0.4-1.1-0.7c-0.4-0.3-0.7-0.5-1-0.8
			c-0.4-0.2-0.7-0.5-1.1-0.8c-0.3-0.2-0.6-0.5-1-0.8c-0.4-0.3-0.7-0.6-1-0.9c-0.4-0.2-0.7-0.5-1-0.8c-0.4-0.4-0.7-0.7-1-1
			c-0.3-0.3-0.6-0.6-0.9-0.9c-0.4-0.4-0.7-0.7-1-1c-0.3-0.4-0.6-0.7-0.9-1.1c-0.3-0.3-0.6-0.6-0.9-1c-0.3-0.4-0.6-0.7-0.9-1.1
			c-0.3-0.4-0.6-0.7-0.9-1.1c-0.2-0.4-0.5-0.8-0.8-1.2c-0.3-0.4-0.6-0.8-0.8-1.2c-0.3-0.4-0.5-0.9-0.8-1.3c-0.2-0.4-0.5-0.8-0.8-1.2
			c-0.2-0.4-0.4-0.9-0.7-1.3c-0.2-0.4-0.4-0.9-0.7-1.4c-0.2-0.4-0.4-0.9-0.7-1.3c-0.2-0.5-0.4-1-0.7-1.5c-0.2-0.4-0.4-0.9-0.5-1.4
			c-0.2-0.5-0.4-1-0.6-1.5c-0.2-0.5-0.4-1-0.5-1.5c-0.2-0.5-0.4-1-0.6-1.5c-0.1-0.6-0.3-1.1-0.4-1.6c-0.1-0.6-0.3-1.1-0.4-1.6
			c-0.1-0.6-0.3-1.2-0.3-1.8c-0.1-0.6-0.3-1.2-0.4-1.8c-0.1-0.6-0.2-1.2-0.3-1.8c-0.1-0.6-0.1-1.2-0.2-1.8c-0.1-0.7-0.3-1.3-0.3-1.9
			c-0.1-0.7-0.1-1.3-0.1-2c-0.1-0.6-0.1-1.2-0.2-1.9c-0.1-0.7-0.1-1.3-0.1-2c-0.1-0.7-0.1-1.3-0.1-2c0-0.7,0-1.4-0.1-2.1
			c0-0.7,0-1.4,0-2.1c0-0.7,0-1.4,0.1-2.1c0-0.5,0-1,0-1.5c0.1-0.5,0.1-1.1,0.1-1.6c0.1-0.5,0.1-1,0.2-1.5c0-0.5,0-1,0.1-1.5
			c0.1-0.5,0.1-1,0.2-1.5c0.1-0.5,0.2-1,0.3-1.5c0.1-0.6,0.1-1.1,0.2-1.6c0.1-0.5,0.3-1,0.3-1.5c0.1-0.5,0.3-1,0.4-1.5
			c0.1-0.5,0.3-1,0.4-1.5c0.1-0.5,0.3-1,0.4-1.5c0.1-0.5,0.3-1,0.4-1.5c0.1-0.5,0.3-1,0.5-1.5c0.1-0.5,0.3-1,0.6-1.4
			c0.1-0.5,0.3-1,0.5-1.5c0.2-0.5,0.4-1,0.6-1.5c0.2-0.4,0.4-0.9,0.7-1.4c0.2-0.5,0.4-1,0.7-1.5c0.2-0.4,0.5-0.9,0.8-1.4
			c0.2-0.4,0.4-0.9,0.7-1.4c0.3-0.4,0.6-0.9,0.8-1.4c0.3-0.4,0.6-0.9,0.8-1.4c0.3-0.4,0.6-0.9,0.8-1.4c0.3-0.4,0.6-0.9,0.9-1.3
			c0.3-0.4,0.6-0.9,0.9-1.4c0.3-0.4,0.6-0.9,0.9-1.3c0.3-0.4,0.6-0.9,0.9-1.3c0.3-0.4,0.6-0.9,0.9-1.3c0.3-0.4,0.6-0.8,1-1.2
			c0.3-0.4,0.6-0.9,0.9-1.3c0.4-0.4,0.7-0.8,1-1.2c0.4-0.4,0.7-0.8,1-1.2c0.4-0.4,0.7-0.8,1-1.2c0.4-0.4,0.7-0.8,1.1-1.2
			c0.4-0.4,0.7-0.7,1-1.1c0.4-0.4,0.7-0.8,1.1-1.2c0.4-0.4,0.7-0.7,1.1-1.1c0.4-0.3,0.7-0.6,1.1-1c0.4-0.4,0.7-0.7,1.1-1.1
			c0.4-0.3,0.7-0.6,1.1-1c0.4-0.3,0.7-0.6,1.1-1c0.4-0.3,0.7-0.6,1.1-0.9c0.4-0.3,0.8-0.6,1.2-1c0.4-0.3,0.7-0.6,1.1-0.9
			c0.4-0.3,0.8-0.6,1.2-0.8c0.4-0.3,0.7-0.6,1.1-0.9c0.4-0.2,0.8-0.5,1.2-0.8c0.4-0.2,0.8-0.5,1.2-0.8c0.4-0.2,0.8-0.4,1.2-0.7
			c0.4-0.2,0.7-0.4,1.1-0.7c0.4-0.2,0.8-0.4,1.2-0.7c0.4-0.1,0.8-0.3,1.2-0.5c0.4-0.2,0.8-0.4,1.2-0.6c0.4-0.1,0.8-0.3,1.2-0.5
			c0.4-0.1,0.8-0.3,1.2-0.4c0.4-0.1,0.8-0.3,1.2-0.4c0.4-0.1,0.8-0.3,1.2-0.3c0.4-0.1,0.8-0.3,1.2-0.3c0.4-0.1,0.7-0.3,1.1-0.3
			c0.4-0.1,0.8-0.1,1.2-0.2c0.4-0.1,0.8-0.1,1.2-0.2c0.4-0.1,1.9-0.3,2.3-0.3c0.4,0,0.8,0,1.2,0c0.5,0,1,0,1.5,0c0.4,0,0.9,0,1.4,0
			c0.4,0.1,0.9,0.1,1.4,0.1c0.4,0.1,0.9,0.1,1.4,0.2c0.4,0.1,0.9,0.1,1.4,0.2c0.4,0.1,0.9,0.1,1.3,0.2c0.4,0.1,0.9,0.3,1.3,0.3
			c0.4,0.1,0.9,0.3,1.3,0.4c0.4,0.1,0.9,0.3,1.3,0.4c0.4,0.1,0.8,0.3,1.2,0.5c0.4,0.1,0.8,0.3,1.2,0.4c0.4,0.2,0.8,0.4,1.2,0.7
			c0.4,0.2,0.8,0.4,1.2,0.7c0.4,0.2,0.8,0.4,1.2,0.7c0.4,0.2,0.7,0.5,1.1,0.8c0.4,0.2,0.7,0.5,1.1,0.8c0.4,0.2,0.7,0.5,1.1,0.8
			c0.3,0.3,0.6,0.6,1,0.9c0.4,0.3,0.7,0.6,1,0.9c0.4,0.3,0.7,0.6,1.1,1c0.3,0.3,0.6,0.6,0.9,1c0.4,0.3,0.7,0.6,1,1
			c0.3,0.3,0.6,0.6,0.9,1c0.4,0.4,0.7,0.7,1,1.1c0.3,0.4,0.6,0.7,0.8,1.1c0.3,0.4,0.6,0.8,0.9,1.2c0.3,0.4,0.6,0.8,0.9,1.2
			c0.2,0.4,0.5,0.8,0.8,1.2c0.2,0.4,0.5,0.8,0.8,1.2c0.2,0.4,0.4,0.8,0.7,1.2c0.3,0.4,0.6,0.9,0.8,1.3c0.2,0.4,0.4,0.9,0.7,1.3
			c0.2,0.4,0.4,0.9,0.7,1.3c0.2,0.4,0.4,0.9,0.7,1.4c0.2,0.4,0.4,0.9,0.7,1.3c0.2,0.5,0.4,1,0.5,1.4c0.2,0.4,0.4,0.9,0.6,1.4
			c0.2,0.4,0.4,0.9,0.6,1.4c0.2,0.5,0.4,1,0.5,1.4c0.1,0.5,0.3,1,0.4,1.5c0.2,0.4,0.4,0.9,0.5,1.4c0.1,0.5,0.3,1,0.4,1.5
			c0.1,0.5,0.3,1,0.3,1.4c0.1,0.5,0.3,1,0.4,1.5c0.1,0.5,0.3,1,0.3,1.5c0.1,0.5,0.3,1,0.3,1.5c0.1,0.5,0.3,1,0.3,1.5
			c0.1,0.5,0.3,1,0.3,1.5c0.1,0.5,0.1,1,0.2,1.5c0.1,0.5,0.1,1,0.2,1.5c0.1,0.6,0.1,1.1,0.2,1.6c0.1,0.5,0.1,1,0.2,1.5
			c0.1,0.5,0.1,1,0.2,1.5c0,0.5,0,1,0.1,1.5c0.1,0.5,0.1,1,0.1,1.5c0.1,0.5,0.1,1,0.1,1.5c0,0.5,0,1,0.1,1.5c0,0.5,0,1,0,1.5
			c0,0.5,0,1,0,1.5c0,0.5,0,1,0,1.5c0,0.5,0,1,0,1.5c0,0.5,0,1-0.1,1.4c0,0.5,0,1,0,1.5c-0.1,0.5-0.1,1-0.1,1.4
			c-0.1,0.5-0.1,1-0.1,1.5c-0.1,0.5-0.1,1.1-0.2,1.6c-0.1,0.6-0.1,1.1-0.2,1.6c-0.1,0.6-0.1,1.2-0.2,1.8c-0.1,0.6-0.2,1.1-0.3,1.6
			c-0.1,0.6-0.2,1.2-0.3,1.8c-0.1,0.5-0.2,1.1-0.3,1.6c-0.1,0.5-0.2,1.1-0.3,1.6c-0.1,0.5-0.2,1-0.3,1.5c-0.1,0.5-0.2,1-0.3,1.4
			c-0.1,0.5-0.3,1-0.3,1.4c-0.1,0.4,11.2,5.6,13.5,10.3c2.3,4.8-16.5,27.5-22.1,30C132.8,530.5,120.3,521.1,119.8,521.1z"/>
		<path fill="#FFFFFF" d="M133.6,520c-0.2,0-0.4,0-0.6-0.1c-0.3,0-0.5,0-0.8-0.1c-0.3-0.1-0.5-0.2-0.9-0.3c-0.4-0.1-0.7-0.3-1-0.4
			c-0.4-0.1-0.9-0.3-1.2-0.4c-0.4-0.2-0.9-0.3-1.2-0.5c-0.4-0.2-0.9-0.4-1.3-0.7c-0.4-0.3-0.9-0.5-1.3-0.7c-0.5-0.3-1-0.5-1.3-0.9
			c-0.4-0.4-0.9-0.7-1.3-1c-0.5-0.3-2-2.2-2.4-2.3c-0.4-0.1-2.3,1.4-2.9,1.4c-0.4,0.3-0.9,0.5-1.3,0.7c-0.4,0.3-0.9,0.5-1.3,0.7
			c-0.4,0.2-0.8,0.4-1.2,0.5c-0.4,0.2-0.8,0.4-1.2,0.6c-0.4,0.1-0.8,0.3-1.1,0.4c-0.4,0.2-0.8,0.4-1.1,0.5c-0.4,0.1-0.8,0.2-1.1,0.3
			c-0.4,0.1-0.8,0.3-1.1,0.4c-0.4,0.1-0.7,0.1-1,0.2c-0.4,0.1-0.8,0.2-1.1,0.3c-0.3,0.1-0.7,0.1-1.1,0.2c-0.4,0-0.7,0-1,0.1
			c-0.4,0.1-0.8,0.1-1.1,0.1c-0.3,0.1-0.7,0.1-1,0.1c-0.4,0.1-0.7,0.1-1.1,0.1c-0.4,0-0.8,0-1.1,0c-0.4,0-0.8,0-1.1,0
			c-0.4,0-0.8,0-1.1-0.1c-0.4,0-0.8,0-1.1,0c-0.4,0-0.9,0-1.2-0.1c-0.4,0-0.9,0-1.2-0.1c-0.4-0.1-0.9-0.1-1.3-0.1
			c-0.4-0.1-0.9-0.1-1.3-0.2c-0.3,0-0.7,0-1.1-0.1c-0.3-0.1-0.7-0.1-1-0.1c-0.3-0.1-0.7-0.1-1.1-0.2c-0.3-0.1-0.6-0.2-1-0.3
			c-0.4-0.1-0.7-0.1-1-0.2c-0.4-0.1-0.7-0.3-1.1-0.4c-0.3-0.1-0.7-0.2-1-0.3c-0.3-0.1-0.6-0.3-1-0.4c-0.3-0.1-0.6-0.3-1-0.4
			c-0.4-0.1-0.7-0.3-1-0.4c-0.3-0.1-0.6-0.3-1-0.5c-0.3-0.1-0.6-0.3-1-0.5c-0.3-0.2-0.6-0.3-1-0.5c-0.3-0.2-0.6-0.4-1-0.6
			c-0.3-0.2-0.6-0.4-1-0.6c-0.3-0.3-0.6-0.5-0.9-0.7c-0.3-0.2-0.6-0.4-1-0.7c-0.3-0.2-0.5-0.4-0.9-0.7c-0.3-0.3-0.6-0.5-0.9-0.8
			c-0.3-0.2-0.6-0.4-0.9-0.7c-0.3-0.3-0.6-0.6-0.9-0.9c-0.3-0.3-0.5-0.5-0.8-0.8c-0.3-0.3-0.6-0.6-0.9-0.9c-0.3-0.3-0.5-0.6-0.8-1
			c-0.3-0.3-0.5-0.5-0.8-0.9c-0.3-0.3-0.5-0.6-0.8-1c-0.3-0.3-0.5-0.6-0.8-1c-0.2-0.4-0.4-0.7-0.7-1.1c-0.3-0.4-0.5-0.7-0.7-1.1
			c-0.3-0.4-0.5-0.8-0.7-1.1c-0.2-0.3-0.4-0.7-0.7-1.1c-0.2-0.4-0.4-0.8-0.6-1.1c-0.2-0.4-0.4-0.8-0.6-1.2c-0.2-0.4-0.4-0.8-0.6-1.1
			c-0.2-0.4-0.4-0.9-0.6-1.3c-0.2-0.4-0.3-0.8-0.5-1.2c-0.2-0.4-0.4-0.9-0.5-1.3c-0.2-0.4-0.3-0.9-0.5-1.3c-0.2-0.4-0.4-0.9-0.5-1.3
			c-0.1-0.5-0.3-1-0.4-1.4c-0.1-0.5-0.3-1-0.4-1.4c-0.1-0.5-0.2-1-0.3-1.5c-0.1-0.5-0.3-1-0.4-1.5c-0.1-0.5-0.2-1-0.3-1.5
			c-0.1-0.5-0.1-1-0.2-1.5c-0.1-0.6-0.2-1.1-0.3-1.6c-0.1-0.6-0.1-1.1-0.1-1.7c-0.1-0.5-0.1-1.1-0.2-1.6c-0.1-0.6-0.1-1.1-0.1-1.7
			c-0.1-0.6-0.1-1.1-0.1-1.7c0-0.6,0-1.2-0.1-1.8c0-0.6,0-1.2,0-1.8c0-0.6,0-1.2,0.1-1.8c0-0.4,0-0.9,0-1.3c0.1-0.4,0.1-0.9,0.1-1.4
			c0.1-0.4,0.1-0.9,0.2-1.3c0-0.4,0-0.9,0.1-1.3c0.1-0.4,0.1-0.9,0.2-1.3c0.1-0.4,0.2-0.9,0.3-1.3c0.1-0.5,0.1-1,0.2-1.4
			c0.1-0.4,0.2-0.9,0.3-1.3c0.1-0.4,0.3-0.9,0.4-1.3c0.1-0.4,0.3-0.9,0.4-1.3c0.1-0.4,0.3-0.9,0.4-1.3c0.1-0.4,0.3-0.9,0.4-1.3
			c0.1-0.4,0.3-0.9,0.5-1.3c0.1-0.4,0.3-0.9,0.5-1.2c0.1-0.4,0.3-0.9,0.5-1.3c0.2-0.4,0.3-0.9,0.5-1.3c0.2-0.4,0.4-0.8,0.6-1.2
			c0.2-0.4,0.4-0.9,0.6-1.3c0.2-0.4,0.4-0.8,0.7-1.2c0.2-0.4,0.4-0.8,0.6-1.2c0.3-0.4,0.5-0.8,0.7-1.2c0.3-0.4,0.5-0.8,0.7-1.2
			c0.3-0.4,0.5-0.8,0.7-1.2c0.3-0.4,0.5-0.8,0.8-1.1c0.3-0.4,0.5-0.8,0.8-1.2c0.3-0.4,0.5-0.8,0.8-1.1c0.3-0.4,0.5-0.8,0.8-1.1
			c0.3-0.4,0.5-0.8,0.8-1.1c0.3-0.4,0.5-0.7,0.9-1.1c0.3-0.4,0.5-0.8,0.8-1.1c0.3-0.4,0.6-0.7,0.9-1.1c0.3-0.4,0.6-0.7,0.9-1.1
			c0.3-0.4,0.6-0.7,0.9-1.1c0.3-0.4,0.6-0.7,1-1.1c0.3-0.3,0.6-0.6,0.9-1c0.3-0.4,0.6-0.7,1-1.1c0.3-0.3,0.6-0.6,1-1
			c0.3-0.3,0.6-0.5,1-0.9c0.3-0.3,0.6-0.6,1-1c0.3-0.3,0.6-0.5,1-0.9c0.3-0.3,0.6-0.5,1-0.9c0.3-0.3,0.6-0.5,1-0.8
			c0.3-0.3,0.7-0.5,1.1-0.9c0.3-0.3,0.6-0.5,1-0.8c0.3-0.3,0.7-0.5,1.1-0.7c0.3-0.3,0.6-0.5,1-0.8c0.4-0.2,0.7-0.4,1-0.7
			c0.3-0.2,0.7-0.4,1.1-0.7c0.3-0.2,0.7-0.4,1-0.6c0.3-0.2,0.6-0.4,1-0.6c0.4-0.2,0.7-0.4,1.1-0.6c0.4-0.1,0.7-0.3,1-0.5
			c0.4-0.2,0.7-0.3,1.1-0.5c0.3-0.1,0.7-0.3,1-0.5c0.3-0.1,0.7-0.3,1.1-0.4c0.3-0.1,0.7-0.3,1-0.4c0.3-0.1,0.7-0.2,1.1-0.3
			c0.3-0.1,0.7-0.2,1-0.3c0.3-0.1,0.6-0.2,1-0.3c0.4-0.1,0.7-0.1,1-0.2c0.4-0.1,0.7-0.1,1.1-0.2c0.3-0.1,0.7-0.1,1-0.2
			c0.3,0,0.6,0,1-0.1c0.4,0,0.7,0,1.1,0c0.4,0,0.9,0,1.3,0c0.4,0,0.8,0,1.2,0c0.4,0.1,0.8,0.1,1.2,0.1c0.4,0.1,0.8,0.1,1.2,0.2
			c0.4,0.1,0.8,0.1,1.2,0.2c0.4,0.1,0.8,0.1,1.1,0.2c0.4,0.1,0.8,0.2,1.1,0.3c0.4,0.1,0.8,0.3,1.1,0.4c0.4,0.1,0.8,0.3,1.1,0.4
			c0.3,0.1,0.7,0.3,1,0.5c0.4,0.1,0.7,0.3,1.1,0.4c0.4,0.2,0.7,0.4,1,0.6c0.4,0.2,0.7,0.4,1.1,0.6c0.3,0.2,0.7,0.4,1,0.6
			c0.3,0.2,0.6,0.4,1,0.7c0.3,0.2,0.6,0.4,1,0.7c0.3,0.2,0.6,0.4,1,0.7c0.3,0.3,0.5,0.5,0.9,0.8c0.3,0.3,0.6,0.5,0.9,0.8
			c0.3,0.3,0.6,0.5,1,0.9c0.3,0.3,0.5,0.5,0.8,0.9c0.3,0.3,0.6,0.5,0.9,0.9c0.3,0.3,0.5,0.5,0.8,0.9c0.3,0.3,0.6,0.6,0.9,1
			c0.3,0.3,0.5,0.6,0.7,1c0.3,0.4,0.5,0.7,0.8,1.1c0.3,0.3,0.5,0.7,0.8,1.1c0.2,0.3,0.4,0.7,0.7,1.1c0.2,0.3,0.4,0.7,0.7,1.1
			c0.2,0.4,0.4,0.7,0.6,1.1c0.3,0.4,0.5,0.8,0.7,1.1c0.2,0.4,0.4,0.8,0.6,1.1c0.2,0.4,0.4,0.8,0.6,1.1c0.2,0.4,0.4,0.8,0.6,1.2
			c0.2,0.4,0.4,0.8,0.6,1.1c0.2,0.4,0.3,0.9,0.5,1.2c0.2,0.4,0.3,0.8,0.5,1.2c0.2,0.4,0.3,0.8,0.5,1.2c0.2,0.4,0.3,0.9,0.5,1.2
			c0.1,0.4,0.3,0.9,0.4,1.3c0.2,0.4,0.3,0.8,0.5,1.2c0.1,0.4,0.3,0.9,0.4,1.3c0.1,0.4,0.2,0.9,0.3,1.2c0.1,0.4,0.3,0.9,0.4,1.3
			c0.1,0.4,0.2,0.9,0.3,1.3c0.1,0.4,0.2,0.9,0.3,1.3c0.1,0.4,0.2,0.9,0.3,1.3c0.1,0.4,0.2,0.9,0.3,1.3c0.1,0.4,0.1,0.9,0.2,1.3
			c0.1,0.4,0.1,0.9,0.2,1.3c0.1,0.5,0.1,1,0.2,1.4c0.1,0.4,0.1,0.9,0.2,1.3c0.1,0.4,0.1,0.9,0.2,1.3c0,0.4,0,0.9,0.1,1.3
			c0.1,0.4,0.1,0.9,0.1,1.3c0.1,0.4,0.1,0.9,0.1,1.3c0,0.4,0,0.9,0.1,1.3c0,0.4,0,0.9,0,1.3c0,0.4,0,0.9,0,1.3c0,0.4,0,0.9,0,1.3
			c0,0.4,0,0.9,0,1.3c0,0.4,0,0.9-0.1,1.2c0,0.4,0,0.9,0,1.3c-0.1,0.4-0.1,0.9-0.1,1.2c-0.1,0.4-0.1,0.9-0.1,1.3
			c-0.1,0.4-0.1,0.9-0.2,1.4c-0.1,0.5-0.1,1-0.2,1.4c-0.1,0.5-0.1,1-0.2,1.5c-0.1,0.5-0.2,1-0.3,1.4c-0.1,0.5-0.2,1-0.3,1.5
			c-0.1,0.4-0.2,0.9-0.3,1.4c-0.1,0.4-0.2,0.9-0.3,1.4c-0.1,0.4-0.2,0.9-0.3,1.3c-0.1,0.4-0.2,0.9-0.3,1.2c-0.1,0.4-0.2,0.9-0.3,1.2
			c-0.1,0.4-0.3,0.8-0.4,1.1c-0.1,0.4-0.2,0.7-0.3,1.1c-0.1,0.3-0.2,0.6-0.3,1c-0.1,0.3-0.2,0.6-0.3,0.9c-0.1,0.3-0.2,0.5-0.3,0.8
			c-0.1,0.2-0.2,0.4-0.3,0.6c-0.2,0.2-0.3,0.3-0.2,0.4c0.3,0.4,0.6,0.8,1.1,1.1c0.4,0.3,0.9,0.7,1.2,1.1c0.4,0.3,0.9,0.6,1.3,1
			c0.4,0.3,0.9,0.6,1.3,0.9c0.4,0.3,0.8,0.5,1.2,0.8c0.4,0.3,0.9,0.5,1.3,0.8c0.4,0.2,0.8,0.4,1.1,0.7c0.4,0.2,0.8,0.4,1.1,0.6
			c0.4,0.2,0.7,0.4,1,0.6c0.3,0.1,0.5,0.3,0.9,0.5c0.2,0.1,0.4,0.3,0.7,0.5c0.1,0.1,0.3,0.3,0.4,0.4c0.1,0.1,0.2,0.3,0.3,0.4
			c0,0.2,0,0.4,0,0.7c-0.1,0.3-0.1,0.5-0.1,0.8c-0.1,0.3-0.3,0.5-0.4,0.9c-0.1,0.3-0.3,0.6-0.4,1c-0.2,0.3-0.4,0.7-0.6,1.1
			c-0.2,0.4-0.4,0.7-0.7,1.1c-0.3,0.4-0.5,0.8-0.8,1.1c-0.3,0.4-0.5,0.9-0.9,1.2c-0.3,0.4-0.6,0.8-1,1.1c-0.3,0.4-0.6,0.9-1,1.2
			c-0.3,0.4-0.6,0.9-1,1.2c-0.4,0.4-0.7,0.8-1.1,1.1c-0.4,0.4-0.7,0.9-1,1.2c-0.4,0.4-0.7,0.7-1.1,1.1c-0.4,0.4-0.7,0.8-1,1.1
			c-0.3,0.3-0.7,0.6-1.1,1c-0.3,0.3-0.6,0.6-1,0.9c-0.3,0.3-0.5,0.6-0.9,0.9c-0.3,0.2-0.5,0.4-0.9,0.7c-0.3,0.2-0.5,0.4-0.7,0.6
			c-0.3,0.1-0.5,0.3-0.7,0.4c-0.2,0.1-0.4,0.2-0.5,0.3c-0.1,0.1-0.3,0.1-0.4,0.1C133.8,520.1,133.7,520,133.6,520z M101.9,483
			c-0.3-0.4-0.4-1-0.5-1.5c-0.1-0.6-0.3-1.1-0.5-1.6c-0.1-0.5-0.3-1.1-0.4-1.6c-0.1-0.5-0.3-1-0.4-1.5c-0.1-0.5-0.2-1-0.3-1.5
			c-0.1-0.5-0.1-1-0.2-1.4c-0.1-0.4-0.1-0.8-0.2-1.1c0-0.4,0-0.7-0.1-1c0-0.2,0-0.4-0.1-0.7c0-0.1,0-0.3,0-0.4c0-0.3,0-0.6,0.1-1
			c0.1-0.3,0.2-0.7,0.3-1.1c0.1-0.4,0.3-0.9,0.4-1.2c0.2-0.4,0.4-0.9,0.6-1.3c0.2-0.4,0.4-0.9,0.7-1.3c0.2-0.4,0.4-0.9,0.7-1.2
			c0.3-0.4,0.5-0.9,0.9-1.2c0.3-0.4,0.5-0.7,0.9-1.1c0.3-0.3,0.6-0.6,1-0.9c0.3-0.3,0.5-0.5,0.9-0.7c0.3-0.1,0.6-0.2,1-0.3
			c0.1,0,0.2,0,0.3,0.1c0.1,0.1,0.2,0.2,0.3,0.3c0.1,0.1,0.3,0.3,0.4,0.5c0.1,0.2,0.3,0.4,0.4,0.6c0.2,0.3,0.4,0.6,0.6,0.9
			c0.3,0.3,0.5,0.6,0.7,1c0.3,0.4,0.5,0.7,0.8,1.1c0.3,0.4,0.6,0.9,1,1.2c0.4,0.4,0.7,0.9,1,1.3c0.4,0.6,0.8,1.1,1.2,1.5
			c0.6,0.4,1,1,1.3,1.5c0.5,0.8,1,1.4,1.6,1.6c0.3,0.1,0.4-0.3,0.4-1.2c0-0.4,0.1-0.8,0.3-1.1c0.1-0.4,0.2-0.9,0.3-1.2
			c0.1-0.4,0.1-0.9,0.2-1.2c0-0.4,0-0.9,0.1-1.3c0-0.4,0-0.9,0-1.2c0-0.4,0-0.9,0-1.3c-0.1-0.4-0.1-0.9-0.1-1.3
			c-0.1-0.4-0.1-0.8-0.2-1.2c-0.1-0.4-0.1-0.9-0.2-1.3c-0.1-0.4-0.2-0.9-0.3-1.3c-0.1-0.4-0.2-0.8-0.3-1.2c-0.1-0.4-0.3-0.9-0.4-1.2
			c-0.1-0.4-0.3-0.9-0.5-1.2c-0.1-0.4-0.3-0.9-0.5-1.2c-0.1-0.4-0.3-0.8-0.5-1.2c-0.2-0.4-0.4-0.8-0.5-1.1c-0.2-0.4-0.4-0.7-0.6-1.1
			c-0.3-0.4-0.5-0.8-0.7-1.1c-0.2-0.3-0.4-0.6-0.7-1c-0.2-0.4-0.4-0.7-0.7-1.1c-0.2-0.3-0.4-0.5-0.7-0.9c-0.2-0.3-0.4-0.6-0.7-0.9
			c-0.3-0.3-0.5-0.5-0.8-0.9c-0.3-0.2-0.5-0.4-0.8-0.7c-0.3-0.3-0.5-0.5-0.8-0.7c-0.3-0.2-0.5-0.4-0.8-0.6c-0.3-0.2-0.5-0.3-0.8-0.5
			c-0.3-0.1-0.5-0.3-0.9-0.4c-0.3-0.1-0.5-0.3-0.8-0.4c-0.3-0.1-0.5-0.1-0.8-0.2c-0.3-0.1-0.5-0.1-0.9-0.1c-0.3,0-0.5,0-0.8,0
			c-0.4,0-0.7,0-1,0.1c-0.4,0.1-0.7,0.1-1.1,0.2c-0.3,0.1-0.7,0.3-1,0.4c-0.3,0.1-0.6,0.3-1,0.5c-0.4,0.2-0.7,0.4-1.1,0.6
			c-0.3,0.2-0.6,0.4-1,0.7c-0.3,0.3-0.6,0.5-1,0.8c-0.3,0.3-0.5,0.5-0.9,0.9c-0.3,0.3-0.6,0.5-0.9,0.9c-0.3,0.3-0.6,0.7-0.9,1.1
			c-0.3,0.3-0.6,0.7-0.9,1.1c-0.3,0.4-0.5,0.7-0.8,1.1c-0.3,0.4-0.5,0.9-0.8,1.2c-0.3,0.4-0.5,0.8-0.8,1.1c-0.2,0.4-0.4,0.9-0.7,1.2
			c-0.2,0.4-0.4,0.9-0.6,1.3c-0.3,0.4-0.5,0.9-0.7,1.3c-0.2,0.4-0.3,0.8-0.5,1.2c-0.2,0.4-0.4,0.9-0.5,1.4c-0.2,0.4-0.3,0.9-0.5,1.3
			c-0.1,0.4-0.3,0.9-0.4,1.3c-0.1,0.4-0.3,0.9-0.4,1.3c-0.1,0.4-0.2,0.9-0.3,1.3c-0.1,0.4-0.1,0.9-0.2,1.3c-0.1,0.4-0.1,0.8-0.2,1.2
			c0,0.4,0,0.9-0.1,1.2c0,0.4,0,0.9,0,1.2c0,0.6,0,1.1,0.1,1.6c0,0.5,0.1,1.1,0.2,1.6c0.1,0.5,0.2,1,0.3,1.4c0.1,0.5,0.3,1,0.4,1.4
			c0.1,0.5,0.3,1,0.5,1.4c0.2,0.4,0.4,0.8,0.6,1.2c0.2,0.4,0.4,0.9,0.7,1.2c0.3,0.4,0.5,0.8,0.8,1.1c0.3,0.3,0.5,0.7,0.8,1.1
			c0.3,0.3,0.5,0.6,0.9,1c0.3,0.3,0.5,0.6,0.9,0.9c0.3,0.3,0.6,0.6,1,0.9c0.3,0.3,0.6,0.5,1,0.8c0.3,0.2,0.6,0.4,1,0.7
			c0.3,0.2,0.6,0.4,1,0.6c0.3,0.1,0.6,0.3,1,0.5c0.3,0.1,0.6,0.3,1,0.4c0.3,0.1,0.6,0.2,1,0.3c0.3,0.1,0.6,0.2,1,0.3
			c0.3,0.1,0.5,0.1,0.9,0.1c0.3,0.1,0.5,0.1,0.9,0.1c0.3,0,0.5,0,0.8-0.1c0.3,0,0.5,0,0.8-0.1c0.2-0.1,0.4-0.2,0.6-0.2
			c0.4-0.1,0.6-0.3,0.6-0.4C102.4,484,102.2,483.5,101.9,483z"/>
	</g>
</g>
</svg>
