<?xml version="1.0" encoding="utf-8"?>
<!-- Generator: Adobe Illustrator 18.0.0, SVG Export Plug-In . SVG Version: 6.00 Build 0)  -->
<!DOCTYPE svg PUBLIC "-//W3C//DTD SVG 1.0//EN" "http://www.w3.org/TR/2001/REC-SVG-20010904/DTD/svg10.dtd" [
	<!ENTITY ns_flows "http://ns.adobe.com/Flows/1.0/">
	<!ENTITY ns_extend "http://ns.adobe.com/Extensibility/1.0/">
	<!ENTITY ns_ai "http://ns.adobe.com/AdobeIllustrator/10.0/">
	<!ENTITY ns_graphs "http://ns.adobe.com/Graphs/1.0/">
]>
<svg version="1.0" id="Camada_1" xmlns:x="&ns_extend;" xmlns:i="&ns_ai;" xmlns:graph="&ns_graphs;"
	 xmlns="http://www.w3.org/2000/svg" xmlns:xlink="http://www.w3.org/1999/xlink" xmlns:a="http://ns.adobe.com/AdobeSVGViewerExtensions/3.0/"
	 x="0px" y="0px" viewBox="-31 357.8 356.7 349.3" enable-background="new -31 357.8 356.7 349.3" xml:space="preserve">
<image overflow="visible" width="2486" height="2479" xlink:href="../../banco de imagens/bot천es/butt 22.png"  transform="matrix(0.1336 0 0 0.1336 -18.7816 368.796)">
</image>
<g>
	
		<image overflow="visible" width="2631" height="2500" xlink:href="../../banco de imagens/bot천es/butt 31.png"  transform="matrix(3.166667e-002 0 0 3.166667e-002 11.9652 576.965)">
	</image>
	
		<image overflow="visible" width="2631" height="2500" xlink:href="../../banco de imagens/bot천es/butt 31.png"  transform="matrix(3.166667e-002 0 0 3.166667e-002 105.6758 576.965)">
	</image>
	
		<image overflow="visible" width="2631" height="2500" xlink:href="../../banco de imagens/bot천es/butt 31.png"  transform="matrix(3.166667e-002 0 0 3.166667e-002 199.3865 576.965)">
	</image>
</g>
<g>
	<path d="M155.2,465.6c0.5-0.8,2.5-0.7,3.3-0.8c1.3-0.1,2.7-0.1,4-0.3c2.8,0,5.7,0,8.5,0c4.6,0.1,9.2,0.5,13.6,1.9
		c1.6,0.5,3.5,1.2,4.6,2.6c1,1.2,1.8,2.7,2.5,4.1c1.2,2.2,2.3,4.5,3.3,6.9c0-0.2,0.2-0.4,0.3-0.6c0.3-0.5,0.6-1.1,0.9-1.6
		c0.9-1.5,1.8-3.1,2.7-4.6c0.9-1.4,1.9-2.9,3-4.2c1.3-1.5,3.2-2.3,5.1-2.9c4.4-1.5,9.2-1.6,13.8-1.7c4.7-0.1,9.6-0.1,14.2,1.1
		c2.5,0.6,5.4,2.8,5,5.7c-0.2,2-1.3,4.1-2.2,5.9c-3,6-6.6,11.6-10.3,17.2c-2.4,3.6-4.8,7.3-7.3,10.8c-0.2,0.3,1,1.5,1.2,1.7
		c1.4,1.8,2.8,3.5,4.3,5.3c4,5.1,8.1,10.2,12,15.4c1.7,2.2,3.3,4.4,4.9,6.7c0.8,1.1,1.9,2.5,2.2,3.8c0.3,1-1.3,2.3-2,2.8
		c-1.1,0.9-2.3,1.7-3.6,2.3c-2.2,1-5,1.3-7.4,1.5c-2.9,0.3-5.8,0.6-8.7,0.6c-5.3,0.1-10.6,0.1-15.8-0.6c-4.2-0.6-7-4.3-9.2-7.7
		c-0.1-0.2-2.4-4.1-2.4-4.1c-0.2,0.1-0.5,1.4-0.6,1.6c-0.5,1.2-1,2.4-1.7,3.5c-1.8,3-4.6,5.5-8.2,6c-1.6,0.2-3.1,0.5-4.7,0.7
		c-2.9,0.4-5.8,0.3-8.7,0.5c-5.8,0.3-11.7-0.1-17.4-0.9c-1-0.1-2-0.4-2.8-1c-0.3-0.3-0.7-0.6-1-0.8c-1.4-1-3-2.4-3.4-4.1
		c-0.3-1.3,0.9-2.7,1.6-3.8c3.3-4.9,7.1-9.6,10.8-14.2c3.6-4.5,7.2-8.9,10.8-13.3c0.1-0.2,1.8-1.9,1.7-2.1c-0.5-1-1.2-1.9-1.8-2.9
		c-3.2-5-6.4-10-9.5-15c-3-4.8-6.1-9.6-8.8-14.6c-0.3-0.6-1-1.5-1-2.2c-0.1-1.4,0.9-2.5,2-3.3C153.1,466.7,155.2,465.7,155.2,465.6
		C155.2,465.5,155.2,465.6,155.2,465.6z"/>
	<path fill="#FFFFFF" d="M158.3,473c0.4-0.5,1.6-0.5,2.2-0.6c0.9-0.1,1.8-0.2,2.7-0.2c1.9-0.1,3.8-0.2,5.7-0.2c3.8,0,7.7,0,11.4,0.5
		c2,0.3,3.8,0.5,5.3,2c1.3,1.4,2.4,3.1,3.6,4.6c1,1.6,2.2,3.1,3.1,4.8c0.8,1.4,2,2.8,2.5,4.3c0-0.3,0.7-0.9,0.8-1.1
		c0.3-0.5,0.7-0.9,1.1-1.4c0.9-1.2,1.8-2.3,2.7-3.5c1.8-2.2,3.7-4.4,5.5-6.6c0.7-0.9,1.7-1.9,2.7-2.5c1-0.6,2.6-0.6,3.8-0.7
		c2.7-0.3,5.3-0.4,8-0.4c2.7,0,5.5,0,8.2,0.2c1.3,0.1,2.4,0.4,3.7,0.6c1.1,0.5,0.4,1.6,0,2.4c-0.9,1.7-1.9,3.4-3,5
		c-1.6,2.4-3.3,4.8-5.1,7.1c-2.6,3.2-5.1,6.6-7.6,9.9c-1.1,1.4-2.2,2.6-3.2,4c-0.5,0.8-1.2,1.5-1.8,2.2c-0.4,0.5-0.9,1.4-1.4,1.7
		c0,0.1,0.6,0.6,0.6,0.7c0.3,0.3,0.7,0.6,1,0.9c0.8,0.9,1.7,1.6,2.4,2.5c2.1,1.7,3.8,4,5.8,5.7c1.7,1.9,3.5,3.6,5.3,5.5
		c0.8,0.9,1.6,1.7,2.5,2.6c0.9,0.9,1.7,2,2.7,2.9c1.5,1.7,3,3.4,4.4,5.2c0.8,0.9,1.5,1.9,2.1,2.9c0.4,0.6,0.4,0.9,0.4,1.6
		c-0.6,0.4-1.1,0.6-1.8,0.7c-2.6,0.8-5.5,0.9-8.2,1.1c-2.6,0.2-5.2,0.3-7.7,0.4c-2.5,0-5,0-7.5-0.1c-1.2-0.1-2.4-0.1-3.6-0.4
		c-1.3-0.3-1.9-0.8-2.9-1.8c-1.8-1.9-3.5-4-5.1-6c-0.3-0.4-4.3-5.8-4.5-5.7c-0.3,0.9-1.1,1.8-1.6,2.6c-0.8,1.2-1.5,2.4-2.4,3.4
		c-1.2,1.9-2.8,3.7-4.3,5.3c-0.8,0.8-1.6,1.6-2.8,1.8c-1.4,0.2-2.7,0.3-4.1,0.4c-2.7,0.2-5.4,0.3-8,0.3c-2.7,0-5.4-0.1-8.1-0.2
		c-2.6,0-5.4-0.3-7.9-1c-0.3-0.1-1.2-0.3-1.2-0.7c0-0.6,0.2-1.2,0.5-1.6c0.4-1.1,1.3-2,2-2.9c1.6-2.2,3.3-4.2,5.1-6.3
		c3.5-4.1,7.2-8.1,10.9-12.1c1.9-2,3.7-4.1,5.7-6c0.4-0.4,0.8-0.8,1.1-1.2c0.1-0.2,0.8-0.7,0.8-0.9c0-0.2-0.5-0.7-0.6-0.9
		c-0.3-0.5-0.7-1.1-1.1-1.5c-1.7-1.9-3-4.1-4.6-6.1c-1.7-2.1-3.3-4.4-5-6.7c-1.6-2.2-3.4-4.3-4.8-6.6c-0.9-1-1.6-2.2-2.3-3.3
		c-0.7-1-1.5-2.1-2.2-3.2C159.6,475.6,158.3,474.2,158.3,473C158.3,473,158.3,473.1,158.3,473z"/>
</g>
<g>
	<path d="M61.5,426.4c0.4-0.9,2.3-1,3.1-1.2c1.5-0.3,3-0.3,4.5-0.5c2.9,0,5.7,0,8.6,0c4.6,0,9.2,0.7,13.5,2.3
		c1.9,0.7,3.9,1.8,5.2,3.3c0.8,0.9,1.3,2.1,1.8,3.2c1.4,3.2,2.6,6.6,3.7,9.9c0.5,1.4,0.9,2.8,1.4,4.2c0-0.5,0.5-1.3,0.7-1.8
		c0.5-1.4,1.1-2.8,1.7-4.2c1.3-3.2,2.7-6.5,4.5-9.6c4.4-7.7,15.3-7.6,23-7.6c4.2,0,8.3,0.2,12.3,1.7c3.1,1.2,4.9,4.3,5.2,7.5
		c0.1,1.7-0.4,3.5-0.9,5.1c-0.8,2.7-1.7,5.3-2.7,7.9c-4.5,11.9-10,23.4-15.6,34.8c-0.6,1.2-1.1,2.3-1.7,3.5
		c-0.2,0.4,0.2,0.9,0.5,1.2c2.2,3.8,4.3,7.6,6.4,11.4c6,10.7,12.2,21.3,17.3,32.4c0.6,1.3,1.3,2.6,1.6,3.9c0.2,1-0.4,2-0.9,2.8
		c-1,1.6-2.4,2.9-3.9,4.1c-3.3,2.7-8.2,3.1-12.3,3.5c-3,0.3-5.9,0.4-8.8,0.6c-2.8,0.2-5.8,0.2-8.5-0.2c-0.8-0.1-1.6-0.2-2.4-0.3
		c-0.6-0.1-1.1-0.3-1.7-0.3c-1.4-0.1-2.7-0.6-3.8-1.4c-2-1.5-3.4-3.8-4.6-5.9c-1.3-2.2-2.3-4.6-3.3-7c-0.1-0.2-1.2-3.4-1.3-3.4
		c-0.1,0-0.3,1.3-0.3,1.4c-0.3,1.1-0.6,2.3-0.9,3.4c-1,3-2.3,6-4.3,8.4c-1,1.2-2.3,2.2-3.7,2.9c-1.3,0.6-2.7,0.7-4.1,1
		c-4.9,1.1-10.1,1.3-15.1,1.3c-5.5,0-11.5-0.1-16.7-2c-0.9-0.3-1.7-1.6-2.4-2.3c-1.4-1.5-2.7-3.2-3.2-5.2c-0.4-1.7,0-2.8,0.7-4.4
		c0.9-2,1.9-4,2.9-6c5.8-11.2,12.1-22.2,18.4-33.2c1-1.7,2-3.5,3-5.2c0.1-0.2,1.2-1.6,1.1-1.8c-0.3-0.8-0.7-1.6-1-2.3
		c-0.9-1.9-1.7-3.8-2.6-5.7c-5.2-11.5-10.4-23-15.2-34.6c-1.1-2.6-2.2-5.2-3.1-7.9c-0.4-1.2-0.3-2.4,0.2-3.7
		c0.5-1.2,1.3-2.3,2.3-3.2C60,427.5,61.5,426.6,61.5,426.4C61.6,426.3,61.5,426.5,61.5,426.4z"/>
	<path fill="#FFFFFF" d="M64.8,433.8c0.4-0.8,1.9-0.8,2.6-1c1.2-0.2,2.3-0.4,3.5-0.4c2.3-0.1,4.6-0.2,7-0.2c2.4,0,4.7,0.4,7,0.5
		c2.2,0.1,5.1,0.5,7,1.7c1.7,1.1,2.7,3.8,3.5,5.4c1,2.1,1.9,4.2,2.9,6.3c1.1,2.3,1.8,4.6,2.8,6.9c0.4,1,0.9,2.1,1.2,3.1
		c0.2,0.7,0.9,1.7,0.9,2.4c0-0.4,0.4-0.9,0.6-1.2c0.3-0.5,0.5-1.1,0.8-1.6c0.7-1.2,1.2-2.5,1.9-3.7c1.3-2.4,2.4-4.8,3.7-7.2
		c1.4-2.5,2.6-5.2,4.2-7.5c0.6-1.1,1.4-2.1,2.2-3.2c1-0.9,2.3-1.1,3.6-1.3c5.6-0.9,11.3-0.8,17-0.4c1.3,0.1,2.5,0.4,3.8,0.7
		c0.3,0.2,1.3,0.3,1.3,0.8c0,0.5,0,0.9-0.1,1.4c-0.3,1.6-1,3.2-1.6,4.7c-1.9,4.9-4.1,9.8-6.4,14.6c-2.4,4.8-4.7,9.7-7.2,14.5
		c-2.4,4.7-4.8,9.4-7.2,14.1c-0.2,0.5-0.5,1-0.8,1.4c-0.1,0.3-0.3,0.8-0.6,1.1c0,0.4,0.2,0.6,0.5,1c0.2,0.6,0.8,1.1,1.1,1.6
		c0.5,0.9,1.1,1.6,1.6,2.5c0.7,1.1,1.3,2.3,2.2,3.4c0.8,1,1.5,2.3,2.3,3.4c0.8,1.3,1.5,2.6,2.4,3.8c1.6,2.3,3,4.7,4.5,7.1
		c1.5,2.3,2.9,4.6,4.3,7c0.6,1.1,1.3,2.2,1.9,3.3c0.7,1.2,1.4,2.5,2.1,3.7c1.1,1.7,2.1,3.7,3,5.5c0.7,1.1,1.1,2.2,1.7,3.4
		c0.4,0.9,1.1,2.3,1.1,3.3c0,1.2-1.3,1.6-2.2,2c-1.4,0.6-2.9,0.9-4.4,1.1c-2.7,0.5-5.7,1-8.5,1c-3.5,0.4-7.4,0.6-10.9,0.1
		c-1.8,0-3.8-0.2-5.4-1c-1.3-0.6-2.1-2.6-2.8-3.8c-1.6-3-3.4-6-4.9-9c-0.6-1.5-1.5-3.1-2.3-4.5c-0.4-0.7-0.8-1.5-1.2-2.2
		c-0.2-0.3-0.3-0.7-0.5-1c-0.2-0.3-0.3-0.8-0.5-1c0.1,0.1-1,2.2-1.1,2.5c-0.6,1.3-1.1,2.7-1.7,4c-1.1,2.5-2.3,5-3.6,7.5
		c-0.9,1.7-1.7,3.7-3,5.2c-0.7,1.2-1.4,2-2.8,2.4c-1.4,0.3-2.8,0.5-4.3,0.7c-5.7,0.6-11.4,0.5-17,0.1c-2.6-0.2-5.7-0.5-8-1.6
		c-1.1-0.5-1.4-1.3-1-2.5c0-1.1,0.8-2.4,1.2-3.4c2-4.9,4.7-9.5,7.3-14.1c1.3-2.4,2.7-4.7,4-7c1.3-2.3,2.8-4.6,4.1-6.9
		c1.4-2.5,3.1-4.9,4.5-7.5c1.3-2.3,2.7-4.7,4.2-6.9c0.6-0.8,1-2.1,1.7-2.8c0.1-0.2,0.4-0.5,0.2-0.7c0-0.4-0.5-1.1-0.7-1.4
		c-1.1-2.2-2.1-4.4-3.3-6.6c-1.7-3.7-3.5-7.3-5.2-11c-1.8-3.7-3.4-7.5-5.3-11.1c-1.9-3.6-3.4-7.3-5-11c-0.8-1.9-1.7-3.7-2.4-5.6
		C65.8,437,64.8,435.4,64.8,433.8C64.8,433.7,64.8,433.9,64.8,433.8z"/>
</g>
</svg>
