<?xml version="1.0" encoding="utf-8"?>
<!-- Generator: Adobe Illustrator 18.0.0, SVG Export Plug-In . SVG Version: 6.00 Build 0)  -->
<!DOCTYPE svg PUBLIC "-//W3C//DTD SVG 1.0//EN" "http://www.w3.org/TR/2001/REC-SVG-20010904/DTD/svg10.dtd" [
	<!ENTITY ns_flows "http://ns.adobe.com/Flows/1.0/">
	<!ENTITY ns_extend "http://ns.adobe.com/Extensibility/1.0/">
	<!ENTITY ns_ai "http://ns.adobe.com/AdobeIllustrator/10.0/">
	<!ENTITY ns_graphs "http://ns.adobe.com/Graphs/1.0/">
]>
<svg version="1.0" id="Camada_1" xmlns:x="&ns_extend;" xmlns:i="&ns_ai;" xmlns:graph="&ns_graphs;"
	 xmlns="http://www.w3.org/2000/svg" xmlns:xlink="http://www.w3.org/1999/xlink" xmlns:a="http://ns.adobe.com/AdobeSVGViewerExtensions/3.0/"
	 x="0px" y="0px" viewBox="-31 357.8 356.7 349.3" enable-background="new -31 357.8 356.7 349.3" xml:space="preserve">
<image overflow="visible" width="2486" height="2479" xlink:href="../../banco de imagens/bot천es/butt 22.png"  transform="matrix(0.1336 0 0 0.1336 -18.7816 368.796)">
</image>
<g>
	
		<image overflow="visible" width="2631" height="2500" xlink:href="../../banco de imagens/bot천es/butt 31.png"  transform="matrix(3.166667e-002 0 0 3.166667e-002 11.9652 576.965)">
	</image>
	
		<image overflow="visible" width="2631" height="2500" xlink:href="../../banco de imagens/bot천es/butt 31.png"  transform="matrix(3.166667e-002 0 0 3.166667e-002 105.6758 576.965)">
	</image>
	
		<image overflow="visible" width="2631" height="2500" xlink:href="../../banco de imagens/bot천es/butt 31.png"  transform="matrix(3.166667e-002 0 0 3.166667e-002 199.3865 576.965)">
	</image>
</g>
<g>
	<path d="M70.2,430.1c-1,0.6-1.1,2.8-1.3,3.8c-0.5,2.7-0.7,5.4-0.9,8.1c-0.5,6.7-0.6,13.5-0.1,20.2c0.2,2.5,0.4,5.1,1.1,7.5
		c0.2,0.7,0.5,1.5,0.9,2.1c0.5,0.6,1.3,0.9,1.9,1.3c2.3,1.2,4.6,2.1,7.2,2.4c4.2,0.6,8.5,0,12.6-1c1.6-0.4,3.1-0.8,4.6-1.2
		c-4.8,10.7-10.3,21.1-15.9,31.5c-4.3,8-8.8,15.9-12.1,24.3c-1.1,2.7-2.1,5.6-2.4,8.6c-0.2,1.9,0,4.1,1.3,5.6
		c0.9,1.1,2.4,1.7,3.7,2.1c2.1,0.7,4.2,1.1,6.4,1.4c6.1,0.9,12.3,1.1,18.5,1.2c7.1,0.1,14.3-0.1,21.4-0.4c6.3-0.3,12.7-0.7,19-1.4
		c3.6-0.4,7.6-0.6,11.1-1.8c1.1-0.4,1.6-1.2,1.9-2.2c0.6-2,0.8-4.3,0.9-6.4c0.3-6.5-0.1-13-0.6-19.5c-0.5-5.9-1.2-11.9-2.4-17.8
		c-0.3-1.4-0.5-3.1-1.3-4.3c-0.4-0.6-1.2-0.6-1.9-0.7c-1.6-0.2-3.2-0.2-4.8-0.1c-3.1,0.1-6.3,0.5-9.4,0.9c3.3-6.9,6.4-14,9.4-21
		c2.6-6.1,5.1-12.2,7.3-18.4c2-5.4,3.9-10.9,5.2-16.5c0.4-1.9,0.8-3.9,0.9-5.9c0-1.1,0-2.6-0.8-3.5c-0.7-0.8-2-1-3-1.1
		c-1.9-0.4-3.8-0.5-5.8-0.7c-12.8-0.9-25.8-0.4-38.7,0.1c-6.5,0.2-13,0.6-19.5,1c-4.2,0.3-8.5,0.5-12.7,1.2
		C71.6,429.7,70.7,429.7,70.2,430.1z"/>
	<path fill="#FFFFFF" d="M76.1,436.1c0.2-0.2,0.7-0.3,1-0.3c0.6-0.2,1.2-0.1,1.8-0.3c1.4,0,2.7-0.3,4.1-0.3c2.6,0,5.2-0.4,7.8-0.4
		c2.7,0,5.4-0.3,8.1-0.3c2.7,0,5.5,0,8.2-0.1c2.8-0.2,5.6,0,8.3,0c2.7,0,5.4,0,8.1,0c2.6,0,5.3,0.2,7.9,0.2c2.6,0,5.3,0.1,7.9,0.4
		c1.3,0.1,2.7,0.4,3.9,0.4c0.7,0.3,2.6,0.3,2.3,1.3c-0.6,2.2-1.4,4.6-2.4,6.7c-2.3,5.1-3.8,10.6-6.2,15.6c-0.6,1.2-0.9,2.4-1.4,3.6
		c-0.6,1.3-1.1,2.6-1.6,4c-0.9,2.6-2,5.2-3.2,7.7c-2.4,5.1-4.3,10.4-6.5,15.5c-1,2.3-2,4.6-2.9,6.9c-0.4,1.1-0.8,2.2-1.3,3.2
		c-0.1,0.5-0.4,1-0.6,1.4c-0.2,0.4-0.3,1-0.6,1.3c1.1,0,2.3-0.6,3.4-0.8c1.4-0.3,2.9-0.6,4.3-0.9c2.5-0.6,5.2-1.1,7.8-1.4
		c1.3-0.2,2.6-0.4,3.9-0.4c0.9,0,3-0.3,3.4,0.8c0.8,2.4,0.8,5.2,1,7.6c0.5,5.3,1,10.7,1.1,16.1c0.1,2.7,0.3,5.3,0.3,8
		c0,1.2,0.1,2.5-0.1,3.7c0,0.7,0.2,2.3-0.4,2.7c-1,0-2.1,0.4-3,0.5c-1.3,0.2-2.7,0.4-4,0.4c-2.7,0.4-5.4,0.4-8.1,0.6
		c-5.3,0.4-10.6,0.7-15.9,0.7c-2.7,0-5.5,0.2-8.2,0.2c-2.6,0-5.3,0-7.9,0c-5.5,0-11.1-0.1-16.5-1c-1.2,0-2.5-0.5-3.6-0.9
		c-1.1-0.5-1.1-1.7-0.7-2.7c0-1.1,0.6-2.4,1-3.4c0.3-1.3,0.9-2.6,1.4-3.9c1.8-5.1,4.1-10.1,6.3-15c1.1-2.4,2.2-4.8,3.2-7.1
		c1.1-2.5,2.3-4.8,3.4-7.3c2.1-4.9,4.6-9.5,6.7-14.4c1.8-4.1,3.8-8.2,5.8-12.2c0.9-1.9,1.9-3.8,2.8-5.7c0.5-0.9,0.8-2,1.4-2.9
		c0.1-0.4,0.4-0.8,0.5-1.2c0.1-0.3,0.5-0.8,0.5-1.1c-2.2,0.4-4.4,1.1-6.5,1.7c-2.6,0.7-5.3,1.3-8,1.9c-2.6,0.6-5.3,1.2-8,1.5
		c-2.4,0.3-5.3,1.1-7.6,0.3c-1-0.3-0.9-2.1-1.1-3c-0.2-1.3-0.4-2.8-0.4-4.1c-0.1-2.8-0.5-5.5-0.5-8.3c-0.1-2.6-0.3-5.2-0.3-7.8
		c0-1.3,0-2.6,0-3.9c0-0.7,0-1.3,0-2C75.9,437.4,76.1,436.7,76.1,436.1z"/>
	<g>
		<path d="M145.7,478.7c-0.6,0.2-0.8,1.2-1,1.7c-0.4,1.2-0.6,2.4-0.7,3.6c-0.5,3.3-0.6,6.6-0.5,9.9c0.1,2.7,0.2,5.7,1.3,8.2
			c0.8,1.8,3.1,2.1,4.8,2.6c6.2,1.6,12.9,0.6,19-0.6c-6,9.1-13.1,17.3-19.7,26c-2.2,2.9-4.5,5.9-5.9,9.2c-0.8,1.8-1.5,4.2,0.1,5.8
			c1,1,2.6,1.3,3.9,1.5c2.3,0.5,4.5,0.7,6.8,0.9c6.5,0.5,13,0.6,19.5,0.6c12.3,0,24.7-0.2,37-1.6c1.2-0.1,2.4-0.2,3.5-0.6
			c1.6-0.6,1.8-3.4,1.9-4.7c0.5-6.3-0.4-13-1.9-19.1c-0.4-1.5-0.7-3.1-1.4-4.5c-0.6-1.2-1.3-1.3-2.6-1.4c-4-0.3-8,0.1-11.9,0.5
			c5.4-7.7,10.6-15.7,15.1-24c1.3-2.5,2.6-5,3.6-7.6c0.6-1.7,1.4-3.6,1.2-5.4c-0.1-1.3-0.9-1.7-2-1.9c-1.6-0.3-3.3-0.4-5-0.5
			c-12.8-0.7-25.6-0.3-38.4,0.1c-6,0.2-12,0.4-18.1,0.7c-1.9,0.1-3.9,0.2-5.8,0.4C147.5,478.4,146.4,478.3,145.7,478.7z"/>
		<path fill="#FFFFFF" d="M150.8,482.2c0.6-0.4,2.1-0.3,2.7-0.3c1.4,0,2.8-0.2,4.2-0.2c2.7-0.1,5.3-0.2,8-0.2
			c5.9,0,11.7-0.2,17.6-0.2c5.6,0,11.3-0.3,16.9,0.1c2.8,0.2,5.5,0.2,8.3,0.4c0.9,0.1,2.2,0,3,0.5c0.3,0.2-1,2.3-1.2,2.7
			c-0.9,1.4-1.6,2.9-2.5,4.3c-0.9,1.4-1.8,2.9-2.6,4.4c-1.9,3.4-4,6.8-6.1,10c-2.1,3.1-3.9,6.4-5.9,9.6c-1,1.5-2,3-2.9,4.6
			c-0.4,0.6-0.7,1.3-1.2,1.9c-0.1,0.4-0.7,1.4-1,1.6c1.2,0,2.6-0.4,3.8-0.6c1.4-0.1,2.7-0.4,4.1-0.6c2.8-0.4,5.6-0.6,8.4-0.8
			c0.8-0.1,2.8-0.3,3.5,0.3c0.6,0.5,0.8,2.3,0.8,3.1c0.6,2.5,0.5,5.1,0.9,7.5c0.4,2.4,0.2,4.9,0.5,7.4c0.2,1.2,0,2.3,0,3.5
			c0,1.3-0.8,1.2-1.9,1.3c-2.7,0.3-5.4,0.3-8.1,0.5c-2.6,0.2-5.2,0.3-7.8,0.3c-2.9,0-5.8,0-8.7,0.3c-3,0-6,0.1-9,0.1
			c-5.5,0-11,0.1-16.5-0.2c-2.5-0.2-5.2-0.1-7.5-0.9c-1.1-0.4-0.4-1.6-0.2-2.4c0.4-1.1,1-2.2,1.6-3.2c1.1-2.2,2.6-4.3,3.9-6.4
			c1.4-2.3,3-4.6,4.5-6.8c3.2-4.9,6.8-9.4,9.9-14.3c1.4-2.2,3.1-4.3,4.6-6.4c0.7-1.2,1.6-2.1,2.3-3.3c0.2-0.4,0.5-0.7,0.7-1.1
			c0.2-0.2,0.8-0.9,0.8-1.2c-1.6,0.2-3.2,0.7-4.9,0.8c-2.1,0.4-4.1,0.7-6.2,1c-4.1,0.7-8.3,1-12.5,1.5c-0.9,0-1.9,0.1-2.8-0.2
			c-0.8-0.2-0.8-1.3-1-2c0-0.9-0.2-1.9-0.4-2.8c0-1-0.2-2-0.3-2.9c-0.2-1.9-0.3-3.8-0.3-5.7c0-0.8,0-1.7,0-2.5c0-0.4-0.1-0.9,0-1.4
			C150.7,482.9,150.8,482.4,150.8,482.2z"/>
	</g>
</g>
</svg>
