<?xml version="1.0" encoding="utf-8"?>
<!-- Generator: Adobe Illustrator 18.0.0, SVG Export Plug-In . SVG Version: 6.00 Build 0)  -->
<!DOCTYPE svg PUBLIC "-//W3C//DTD SVG 1.1//EN" "http://www.w3.org/Graphics/SVG/1.1/DTD/svg11.dtd">
<svg version="1.1" id="Camada_1" xmlns="http://www.w3.org/2000/svg" xmlns:xlink="http://www.w3.org/1999/xlink" x="0px" y="0px"
	 viewBox="0 0 1024 768" enable-background="new 0 0 1024 768" xml:space="preserve">
<g>
	<defs>
		<circle id="SVGID_1_" cx="511.9" cy="383.4" r="375.7"/>
	</defs>
	<clipPath id="SVGID_2_">
		<use xlink:href="#SVGID_1_"  overflow="visible"/>
	</clipPath>
	<g clip-path="url(#SVGID_2_)" enable-background="new    ">
		
			<image overflow="visible" width="2474" height="2474" xlink:href="../../banco de imagens/botões/butt 25.png"  transform="matrix(0.3065 0 0 0.3065 132.8006 4.7999)">
		</image>
	</g>
</g>
<g>
	<g>
		<path d="M396.3,196c2.2,0.2,4.3,0.3,6.5,0.3c2.2,0,4.3,0.1,6.5,0.3c2.2,0,4.3,0.1,6.5,0.3c1.9,0.2,4,0.4,6.1,0.6
			c1.9,0,4,0.1,6.1,0.3c1.9,0.2,3.8,0.5,5.8,0.9c1.9,0.2,3.8,0.4,5.8,0.6c1.9,0.4,3.8,0.7,5.8,0.9c1.9,0.4,3.7,0.7,5.4,0.9
			c1.9,0.4,65.1,11.9,71,64.5c5.9,52.5-32.3,74.5-33.2,75.1c7.1,6.7,65.3,23.4,65.3,100.5c0,0,0,3.3,0,4.9c0,1.6,0,3.3,0,4.9
			c-0.2,1.6-0.4,3.2-0.4,4.6c-0.2,1.6-0.5,3.2-0.7,4.6c-0.2,1.6-0.5,3.2-0.7,4.6c-0.2,1.4-0.5,2.9-0.7,4.3c-0.5,1.4-0.8,2.9-1.1,4.3
			c-0.5,1.4-1,2.9-1.4,4.3c-0.5,1.4-1,2.8-1.4,4c-0.5,1.4-1,2.8-1.4,4c-0.5,1.2-1.1,2.5-1.8,3.7c-0.5,1.4-1.1,2.8-1.8,4
			c-0.7,1-1.4,2.1-2.2,3.4c-0.7,1.2-1.4,2.5-2.2,3.7c-0.7,1-1.4,2.1-2.2,3.4c-1,1-1.8,2-2.5,3.1c-1,1.2-1.9,2.4-2.9,3.4
			c-1,1-1.9,2-2.9,3.1c-1,1-1.9,1.9-2.9,2.8c-1,1-1.9,2-2.9,3.1c-1.2,0.8-2.3,1.6-3.2,2.5c-1.2,1-2.4,1.9-3.6,2.8
			c-1.2,0.8-2.4,1.6-3.6,2.5c-1.2,0.8-2.4,1.6-3.6,2.5c-1.2,0.8-2.4,1.6-3.6,2.5c-1.4,0.6-2.8,1.3-4,2.1c-1.4,0.6-2.8,1.3-4,2.1
			c-1.4,0.6-2.9,1.2-4.3,1.8c-1.4,0.6-2.9,1.2-4.3,1.8c-1.4,0.6-2.9,1.2-4.3,1.8c-1.4,0.6-3,1.1-4.7,1.5c-1.4,0.6-2.9,1.1-4.3,1.5
			c-1.7,0.6-3.4,1.1-5,1.5c-1.4,0.6-3,1.1-4.7,1.5c-1.7,0.4-3.4,0.8-5,1.2c-1.7,0.4-3.4,0.8-5,1.2c-1.7,0.2-3.5,0.5-5.4,0.9
			c-1.7,0.4-3.4,0.7-5,0.9c-1.9,0.4-3.7,0.7-5.4,0.9c-1.9,0.2-3.7,0.4-5.4,0.6c-1.9,0.2-3.8,0.4-5.8,0.6c-1.9,0.2-3.8,0.4-5.8,0.6
			c-1.9,0.2-3.8,0.4-5.8,0.6c-1.9,0-3.8,0.1-5.8,0.3c-1.9,0-3.8,0.1-5.8,0.3c-2.2,0-4.2,0-6.1,0c-3.6,0-7.1,0.1-10.5,0.3
			c-3.4,0-6.6,0-9.7,0c-3.1,0-6.3,0-9.4,0c-2.9,0-5.8,0-8.7,0c-2.6,0-5.3,0-7.9,0c-2.4,0-4.8,0-7.2,0c-2.4,0-4.8,0-7.2,0
			c-2.2,0-4.3,0-6.5,0c-1.9,0-3.8-0.1-5.8-0.3c-1.9,0-3.7,0-5.4,0c-1.7,0-3.4-0.1-5-0.3c-1.7,0-3.2,0-4.7,0
			c-1.4-0.2-2.9-0.3-4.3-0.3c-1.2-0.2-2.4-0.3-3.6-0.3c-1.2-0.2-2.4-0.4-3.6-0.6c-1,0-2-0.1-3.2-0.3c-1-0.2-1.9-0.3-2.9-0.3
			c-0.7-0.2-1.6-0.4-2.5-0.6c-0.7-0.2-1.4-0.4-2.2-0.6c-0.7,0-1.4-0.1-2.2-0.3c-0.7-0.2-1.3-0.4-1.8-0.6c-0.5-0.2-1.1-0.4-1.8-0.6
			c-0.5-0.4-1-0.7-1.4-0.9c-0.2-0.2-0.6-0.4-1.1-0.6c-0.5-0.2-0.8-0.5-1.1-0.9c-0.5-0.2-0.8-0.4-1.1-0.6c-0.2-0.2-0.4-0.4-0.4-0.6
			c-0.2,0-0.4-0.1-0.4-0.3c0-0.4-0.1-0.7-0.4-0.9c0-0.4,0-0.8,0-1.2c-0.2-0.4-0.4-0.8-0.4-1.2c-0.2-0.4-0.4-0.9-0.4-1.5
			c0-0.6-0.1-1.1-0.4-1.5c0-0.6-0.1-1.3-0.4-2.1c0-0.6,0-1.2,0-1.8c-0.2-0.8-0.4-1.6-0.4-2.5c0-0.8-0.1-1.6-0.4-2.5c0-1,0-1.9,0-2.8
			c-0.2-1-0.4-1.9-0.4-2.8c-0.2-1-0.4-2-0.4-3.1c0-1-0.1-2.1-0.4-3.4c0-1,0-2,0-3.1c-0.2-1.2-0.4-2.5-0.4-3.7c0-1.2-0.1-2.5-0.4-3.7
			c0-1.2,0-2.5,0-3.7c-0.2-1.4-0.4-2.8-0.4-4c0-1.4,0-2.8,0-4c-0.2-1.4-0.4-2.9-0.4-4.3c0-1.4-0.1-2.9-0.4-4.3c0-1.6,0-3.2,0-4.6
			c-0.2-1.4-0.4-3-0.4-4.6c0-1.4,0-3,0-4.6c-0.2-1.6-0.4-3.2-0.4-4.6c0-1.6,0-3.3,0-4.9c-0.2-1.6-0.4-3.3-0.4-4.9c0-1.8,0-3.6,0-5.2
			c-0.2-1.6-0.4-3.3-0.4-4.9c0-1.8,0-3.6,0-5.2c-0.2-1.8-0.4-3.7-0.4-5.5c0-1.6,0-3.4,0-5.2c0-1.8-0.1-3.6-0.4-5.2
			c0-1.8,0-3.7,0-5.5c0-1.8,0-3.7,0-5.5c-0.2-1.8-0.4-3.7-0.4-5.5c0-1.8,0-3.7,0-5.5c0-1.8,0-3.7,0-5.5c-0.2-1.8-0.4-3.7-0.4-5.5
			c0-2,0-4,0-5.8c0-1.8,0-3.7,0-5.5c0-1.8-0.1-3.8-0.4-5.8c0-1.8,0-3.7,0-5.5c0-1.8,0-3.7,0-5.5c0-2,0-4,0-5.8c0-1.8,0-3.7,0-5.5
			c0-1.8,0-3.7,0-5.5c-0.2-1.8-0.4-3.8-0.4-5.8c0-1.8,0-3.7,0-5.5c0-1.8,0-3.7,0-5.5c0-1.8,0-3.6,0-5.2c0-1.8,0-3.7,0-5.5
			c0-1.8,0-3.7,0-5.5c0-1.6,0-3.4,0-5.2c0-1.8,0-3.6,0-5.2c0-1.8,0-3.6,0-5.2c0-1.6,0-3.4,0-5.2c0.2-1.6,0.4-3.3,0.4-4.9
			c0-1.6,0-3.3,0-4.9c0-1.6,0-3.3,0-4.9c0-1.6,0-3.2,0-4.6c0-1.6,0-3.3,0-4.9c0-1.4,0.1-2.9,0.4-4.3c0-1.6,0-3.2,0-4.6
			c0-1.4,0-2.9,0-4.3c0-1.4,0.1-2.9,0.4-4.3c0-1.2,0-2.6,0-4c0-1.2,0-2.6,0-4c0.2-1.2,0.4-2.5,0.4-3.7c0-1.2,0-2.5,0-3.7
			c0.2-1.2,0.4-2.3,0.4-3.4c0-1.2,0-2.4,0-3.4c0.2-1,0.4-2.1,0.4-3.4c0-1,0-1.9,0-2.8c0.2-1,0.4-2,0.4-3.1c0-0.8,0.1-1.6,0.4-2.5
			c0-0.8,0-1.7,0-2.8c0.2-0.6,0.4-1.3,0.4-2.1c0.2-0.6,0.4-1.3,0.4-2.1c0-0.6,0.1-1.2,0.4-1.8c0-0.6,0.1-1.1,0.4-1.5
			c0-0.6,0-1.1,0-1.5c0.2-0.4,0.4-0.8,0.4-1.2c0.2-0.4,0.4-0.8,0.4-1.2c0.2-0.2,0.4-0.4,0.4-0.6c0.2-0.2,0.4-0.4,0.4-0.6l0.4-0.3
			c0.5-0.4,1-0.7,1.4-0.9c0.5-0.2,0.8-0.4,1.1-0.6c0.5-0.2,1.1-0.4,1.8-0.6c0.5-0.4,1-0.7,1.4-0.9c0.5-0.2,1.1-0.4,1.8-0.6
			c0.5-0.2,1.1-0.4,1.8-0.6c0.7-0.2,1.4-0.4,2.2-0.6c0.7-0.2,1.4-0.4,2.2-0.6c0.7-0.2,1.6-0.3,2.5-0.3c0.7-0.2,1.6-0.4,2.5-0.6
			c1-0.2,2-0.4,3.2-0.6c1-0.2,2-0.3,3.2-0.3c1.2-0.2,2.4-0.4,3.6-0.6c1.2,0,2.4-0.1,3.6-0.3c1.4-0.2,2.9-0.3,4.3-0.3
			c1.7-0.2,3.2-0.3,4.7-0.3c1.7-0.2,3.4-0.3,5-0.3c1.7-0.2,3.5-0.3,5.4-0.3c1.9,0,3.8-0.1,5.8-0.3c2.2,0,4.3,0,6.5,0
			c2.2,0,4.3,0,6.5,0c2.6-0.2,5.2-0.3,7.6-0.3c2.4,0,4.9,0,7.6,0c2.9,0,5.6,0,8.3,0c3.1,0,6.1,0,9,0c3.1,0.2,6.2,0.3,9.4,0.3
			C389.6,196,393,196,396.3,196z"/>
		<path fill="#FFFFFF" d="M392.6,216.3c1.6,0.2,3.2,0.3,4.8,0.3s3.2,0.1,4.8,0.3c1.6,0,3.2,0.1,4.8,0.3c1.4,0.2,2.9,0.4,4.5,0.6
			c1.4,0,2.9,0.1,4.5,0.3c1.4,0.2,2.8,0.5,4.3,0.8c1.4,0.2,2.8,0.4,4.3,0.6c1.4,0.4,2.8,0.6,4.3,0.8c1.4,0.4,2.8,0.6,4,0.8
			c1.4,0.4,2.8,0.7,4,1.1c1.2,0.4,2.5,0.7,3.7,1.1c1.2,0.4,2.5,0.7,3.7,1.1c1.2,0.6,2.5,1,3.7,1.4c1.1,0.4,2.2,0.8,3.5,1.4
			c1.1,0.6,2.1,1.1,3.2,1.7c1.1,0.4,2.1,0.9,3.2,1.7c1.1,0.6,2,1.1,2.9,1.7c1.1,0.6,2,1.2,2.9,1.9c0.9,0.6,1.8,1.2,2.7,1.9
			c0.9,0.6,1.8,1.2,2.7,1.9c0.9,0.7,1.7,1.5,2.4,2.2c0.9,0.7,1.7,1.6,2.4,2.5c0.7,0.7,1.4,1.6,2.1,2.5c0.7,0.7,1.3,1.6,1.9,2.5
			c0.7,0.9,1.3,1.8,1.9,2.8c0.7,0.9,1.2,1.8,1.6,2.8c0.5,0.9,1.1,1.9,1.6,3c0.5,0.9,1,1.9,1.3,3c0.4,1.1,0.7,2.2,1.1,3.3
			c0.4,1.1,0.7,2.2,1.1,3.3c0.2,1.1,0.4,2.2,0.8,3.3c0.2,1.3,0.4,2.5,0.5,3.6c0.2,1.3,0.3,2.6,0.3,3.9c0.2,1.3,0.3,2.6,0.3,3.9
			c0,1.5,0,2.9,0,4.1c0,1.7-0.1,3.3-0.3,5c-0.2,1.7-0.4,3.3-0.5,5c-0.4,1.5-0.7,2.9-1.1,4.4c-0.4,1.5-0.7,2.9-1.1,4.4
			c-0.5,1.3-1.1,2.6-1.6,3.9c-0.5,1.3-1.1,2.6-1.6,3.9c-0.7,1.3-1.4,2.5-2.1,3.6c-0.5,1.1-1.2,2.2-1.9,3.3c-0.9,1.1-1.7,2.1-2.4,3
			c-0.7,1.1-1.5,2.1-2.4,3c-0.9,0.9-1.8,1.8-2.7,2.5c-0.9,0.9-1.8,1.8-2.7,2.5c-0.9,0.7-1.8,1.5-2.7,2.2c-0.9,0.7-1.9,1.4-2.9,1.9
			c-0.9,0.7-1.8,1.4-2.7,1.9c-1.1,0.6-2,1.1-2.9,1.7c-1.1,0.6-2,1-2.9,1.4c-0.9,0.6-1.9,1-2.9,1.4c-0.9,0.6-1.8,0.9-2.7,1.1
			c-1.2,0-2.2,0.3-2.9,0.8c-0.4,0.2,0.3,0.4,1.9,0.6c0.5,0,1.1,0.2,1.6,0.6c0.7,0.4,1.4,0.6,2.1,0.8c0.5,0.2,1.2,0.5,1.9,0.8
			c0.7,0.4,1.4,0.6,2.1,0.8c0.7,0.4,1.5,0.7,2.4,1.1c0.7,0.4,1.4,0.7,2.1,1.1c0.9,0.6,1.7,1,2.4,1.4c0.9,0.4,1.7,0.8,2.4,1.4
			c0.9,0.6,1.8,1.1,2.7,1.7c0.9,0.6,1.7,1.1,2.4,1.7c0.9,0.6,1.8,1.2,2.7,1.9c0.9,0.6,1.7,1.2,2.4,1.9c0.9,0.7,1.8,1.4,2.7,1.9
			c0.9,0.9,1.8,1.7,2.7,2.5c0.7,0.7,1.5,1.6,2.4,2.5c0.9,0.7,1.7,1.6,2.4,2.5c0.9,0.9,1.7,1.9,2.4,3c0.9,0.9,1.7,1.8,2.4,2.8
			c0.9,1.1,1.7,2.2,2.4,3.3c0.7,1.1,1.4,2.2,2.1,3.3c0.7,1.3,1.4,2.5,2.1,3.6c0.7,1.3,1.3,2.6,1.9,3.9c0.7,1.3,1.3,2.7,1.9,4.1
			c0.7,1.3,1.3,2.7,1.9,4.1c0.5,1.5,1.1,2.9,1.6,4.4c0.5,1.5,1,3,1.3,4.7c0.5,1.7,1,3.3,1.3,5c0.4,1.7,0.7,3.3,1.1,5
			c0.4,1.8,0.6,3.7,0.8,5.5c0.4,1.8,0.6,3.7,0.8,5.5c0.2,2,0.3,4,0.3,6.1c0.2,2,0.3,4,0.3,6.1c0,1.5,0,2.9,0,4.4c0,1.5,0,2.9,0,4.4
			c-0.2,1.5-0.3,2.9-0.3,4.1c-0.2,1.5-0.4,2.9-0.5,4.1c-0.2,1.5-0.4,2.9-0.5,4.1c-0.2,1.3-0.4,2.6-0.5,3.9c-0.4,1.3-0.6,2.6-0.8,3.9
			c-0.4,1.3-0.7,2.6-1.1,3.9c-0.4,1.3-0.7,2.5-1.1,3.6c-0.4,1.3-0.7,2.5-1.1,3.6c-0.4,1.1-0.8,2.2-1.3,3.3c-0.4,1.3-0.8,2.5-1.3,3.6
			c-0.5,0.9-1.1,1.9-1.6,3c-0.5,1.1-1.1,2.2-1.6,3.3c-0.5,0.9-1.1,1.9-1.6,3c-0.7,0.9-1.3,1.8-1.9,2.8c-0.7,1.1-1.4,2.1-2.1,3
			c-0.7,0.9-1.4,1.8-2.1,2.8c-0.7,0.9-1.4,1.8-2.1,2.5c-0.7,0.9-1.4,1.8-2.1,2.8c-0.9,0.7-1.7,1.5-2.4,2.2c-0.9,0.9-1.8,1.7-2.7,2.5
			c-0.9,0.7-1.8,1.5-2.7,2.2c-0.9,0.7-1.8,1.5-2.7,2.2c-0.9,0.7-1.8,1.5-2.7,2.2c-1.1,0.6-2,1.2-2.9,1.9c-1.1,0.6-2,1.2-2.9,1.9
			c-1.1,0.6-2.1,1.1-3.2,1.7c-1.1,0.6-2.1,1.1-3.2,1.7c-1.1,0.6-2.1,1.1-3.2,1.7c-1.1,0.6-2.2,1-3.5,1.4c-1.1,0.6-2.1,1-3.2,1.4
			c-1.2,0.6-2.5,1-3.7,1.4c-1.1,0.6-2.2,1-3.5,1.4c-1.2,0.4-2.5,0.7-3.7,1.1c-1.2,0.4-2.5,0.7-3.7,1.1c-1.2,0.2-2.6,0.5-4,0.8
			c-1.2,0.4-2.5,0.6-3.7,0.8c-1.4,0.4-2.8,0.6-4,0.8c-1.4,0.2-2.8,0.4-4,0.6c-1.4,0.2-2.8,0.4-4.3,0.6c-1.4,0.2-2.8,0.4-4.3,0.6
			c-1.4,0.2-2.8,0.4-4.3,0.6c-1.4,0-2.8,0.1-4.3,0.3c-1.4,0-2.8,0.1-4.3,0.3c-1.6,0-3.1,0-4.5,0c-2.7,0-5.3,0.1-7.7,0.3
			c-2.5,0-4.9,0-7.2,0s-4.6,0-6.9,0c-2.1,0-4.3,0-6.4,0c-2,0-3.9,0-5.9,0c-1.8,0-3.6,0-5.3,0c-1.8,0-3.6,0-5.3,0c-1.6,0-3.2,0-4.8,0
			c-1.4,0-2.8-0.1-4.3-0.3c-1.4,0-2.8,0-4,0c-1.2,0-2.5-0.1-3.7-0.3c-1.2,0-2.4,0-3.5,0c-1.1-0.2-2.1-0.3-3.2-0.3
			c-0.9-0.2-1.8-0.3-2.7-0.3c-0.9-0.2-1.8-0.4-2.7-0.6c-0.7,0-1.5-0.1-2.4-0.3c-0.7-0.2-1.4-0.3-2.1-0.3c-0.5-0.2-1.2-0.4-1.9-0.6
			c-0.5-0.2-1.1-0.4-1.6-0.6c-0.5,0-1.1-0.1-1.6-0.3c-0.5-0.2-1-0.4-1.3-0.6c-0.4-0.2-0.8-0.4-1.3-0.6c-0.4-0.4-0.7-0.6-1.1-0.8
			c-0.2-0.2-0.4-0.4-0.8-0.6c-0.4-0.2-0.6-0.5-0.8-0.8c-0.4-0.2-0.6-0.4-0.8-0.6c-0.2-0.2-0.3-0.4-0.3-0.6c-0.2,0-0.3-0.1-0.3-0.3
			c0-0.4-0.1-0.6-0.3-0.8c0-0.4,0-0.7,0-1.1c-0.2-0.4-0.3-0.7-0.3-1.1c-0.2-0.4-0.3-0.8-0.3-1.4c0-0.6-0.1-1-0.3-1.4
			c0-0.6-0.1-1.2-0.3-1.9c0-0.6,0-1.1,0-1.7c-0.2-0.7-0.3-1.5-0.3-2.2c0-0.7-0.1-1.5-0.3-2.2c0-0.9,0-1.7,0-2.5
			c-0.2-0.9-0.3-1.7-0.3-2.5c-0.2-0.9-0.3-1.8-0.3-2.8c0-0.9-0.1-1.9-0.3-3c0-0.9,0-1.8,0-2.8c-0.2-1.1-0.3-2.2-0.3-3.3
			c0-1.1-0.1-2.2-0.3-3.3c0-1.1,0-2.2,0-3.3c-0.2-1.3-0.3-2.5-0.3-3.6c0-1.3,0-2.5,0-3.6c-0.2-1.3-0.3-2.6-0.3-3.9
			c0-1.3-0.1-2.6-0.3-3.9c0-1.5,0-2.9,0-4.1c-0.2-1.3-0.3-2.7-0.3-4.1c0-1.3,0-2.7,0-4.1c-0.2-1.5-0.3-2.8-0.3-4.1
			c0-1.5,0-2.9,0-4.4c-0.2-1.5-0.3-2.9-0.3-4.4c0-1.7,0-3.2,0-4.7c-0.2-1.5-0.3-2.9-0.3-4.4c0-1.7,0-3.2,0-4.7
			c-0.2-1.7-0.3-3.3-0.3-5c0-1.5,0-3,0-4.7c0-1.7-0.1-3.2-0.3-4.7c0-1.7,0-3.3,0-5c0-1.7,0-3.3,0-5c-0.2-1.7-0.3-3.3-0.3-5
			c0-1.7,0-3.3,0-5c0-1.7,0-3.3,0-5c-0.2-1.7-0.3-3.3-0.3-5c0-1.8,0-3.6,0-5.2c0-1.7,0-3.3,0-5c0-1.7-0.1-3.4-0.3-5.2
			c0-1.7,0-3.3,0-5c0-1.7,0-3.3,0-5c0-1.8,0-3.6,0-5.2c0-1.7,0-3.3,0-5c0-1.7,0-3.3,0-5c-0.2-1.7-0.3-3.4-0.3-5.2c0-1.7,0-3.3,0-5
			c0-1.7,0-3.3,0-5c0-1.7,0-3.2,0-4.7c0-1.7,0-3.3,0-5c0-1.7,0-3.3,0-5c0-1.5,0-3,0-4.7c0-1.7,0-3.2,0-4.7c0-1.7,0-3.2,0-4.7
			c0-1.5,0-3,0-4.7c0.2-1.5,0.3-2.9,0.3-4.4c0-1.5,0-2.9,0-4.4c0-1.5,0-2.9,0-4.4c0-1.5,0-2.9,0-4.1c0-1.5,0-2.9,0-4.4
			c0-1.3,0.1-2.6,0.3-3.9c0-1.5,0-2.9,0-4.1c0-1.3,0-2.6,0-3.9c0-1.3,0.1-2.6,0.3-3.9c0-1.1,0-2.3,0-3.6c0-1.1,0-2.3,0-3.6
			c0.2-1.1,0.3-2.2,0.3-3.3c0-1.1,0-2.2,0-3.3c0.2-1.1,0.3-2.1,0.3-3c0-1.1,0-2.1,0-3c0.2-0.9,0.3-1.9,0.3-3c0-0.9,0-1.7,0-2.5
			c0.2-0.9,0.3-1.8,0.3-2.8c0-0.7,0.1-1.5,0.3-2.2c0-0.7,0-1.6,0-2.5c0.2-0.6,0.3-1.2,0.3-1.9c0.2-0.6,0.3-1.2,0.3-1.9
			c0-0.6,0.1-1.1,0.3-1.7c0-0.6,0.1-1,0.3-1.4c0-0.6,0-1,0-1.4c0.2-0.4,0.3-0.7,0.3-1.1c0.2-0.4,0.3-0.7,0.3-1.1
			c0.2-0.2,0.3-0.4,0.3-0.6c0.2-0.2,0.3-0.4,0.3-0.6l0.3-0.3c0.4-0.4,0.7-0.6,1.1-0.8c0.4-0.2,0.6-0.4,0.8-0.6
			c0.4-0.2,0.8-0.4,1.3-0.6c0.4-0.4,0.7-0.6,1.1-0.8c0.4-0.2,0.8-0.4,1.3-0.6c0.4-0.2,0.8-0.4,1.3-0.6c0.5-0.2,1.1-0.4,1.6-0.6
			c0.5-0.2,1.1-0.4,1.6-0.6c0.5-0.2,1.2-0.3,1.9-0.3c0.5-0.2,1.2-0.4,1.9-0.6c0.7-0.2,1.5-0.4,2.4-0.6c0.7-0.2,1.5-0.3,2.4-0.3
			c0.9-0.2,1.8-0.4,2.7-0.6c0.9,0,1.8-0.1,2.7-0.3c1.1-0.2,2.1-0.3,3.2-0.3c1.2-0.2,2.4-0.3,3.5-0.3c1.2-0.2,2.5-0.3,3.7-0.3
			c1.2-0.2,2.6-0.3,4-0.3c1.4,0,2.8-0.1,4.3-0.3c1.6,0,3.2,0,4.8,0c1.6,0,3.2,0,4.8,0c2-0.2,3.8-0.3,5.6-0.3c1.8,0,3.6,0,5.6,0
			c2.1,0,4.2,0,6.1,0c2.3,0,4.5,0,6.7,0c2.3,0.2,4.6,0.3,6.9,0.3C387.6,216.3,390.1,216.3,392.6,216.3z M382.7,274.5
			c-0.4,0.4-0.4,1.1-0.3,2.2c0,1.1,0,2.2,0,3.3c-0.2,1.5-0.2,2.9,0,4.1c0,1.5,0,3,0,4.7c0,1.5,0.1,2.9,0.3,4.4c0,1.5,0,2.9,0,4.1
			c0.4,1.3,0.4,2.5,0.3,3.6c-0.2,1.3-0.1,2.1,0.3,2.5c0.4,0.4,1.2,0.4,2.4,0c1.1-0.2,2.1-0.3,3.2-0.3c1.2-0.2,2.5-0.6,3.7-1.1
			c1.2-0.6,2.4-1.1,3.5-1.7c1.2-0.7,2.3-1.7,3.2-2.8c0.9-0.9,1.5-2,1.9-3.3c0.5-1.5,0.7-2.9,0.5-4.4c-0.2-1.7-0.5-3.2-1.1-4.7
			c-0.5-1.5-1.3-2.8-2.1-3.9c-0.9-0.9-2-1.8-3.2-2.8c-1.1-0.7-2.2-1.4-3.5-1.9c-1.1-0.6-2.2-0.9-3.5-1.1c-1.1-0.2-2.1-0.5-3.2-0.8
			C383.9,274.4,383.1,274.3,382.7,274.5z M386.7,384.3c-0.2,0.2-0.2,0.6,0,1.4c0.2,0.6,0.2,1.2,0,1.9c0,0.7,0,1.6,0,2.5
			c0.2,0.9,0.3,1.8,0.3,2.8c0,1.1,0,2.2,0,3.3c0,1.1,0,2.3,0,3.6c0,1.3,0.1,2.5,0.3,3.6c0,1.5,0,2.9,0,4.1c0,1.5,0.1,2.9,0.3,4.4
			c0,1.5,0,2.9,0,4.4c0,1.5,0.1,2.9,0.3,4.4c0,1.5,0,3,0,4.7c0,1.5,0.1,3,0.3,4.7c0,1.5,0,2.9,0,4.4c0.2,1.5,0.3,3,0.3,4.7
			c0,1.3,0.1,2.7,0.3,4.1c0,1.5,0,2.9,0,4.4c0.2,1.3,0.3,2.6,0.3,3.9c0,1.3,0.1,2.6,0.3,3.9c0,1.3,0,2.5,0,3.6
			c0.2,1.1,0.3,2.1,0.3,3c0,0.9,0.1,1.8,0.3,2.8c0,0.9,0,1.8,0,2.5c0.2,0.6,0.3,1.2,0.3,1.9c-0.2,0.6-0.1,0.9,0.3,1.1
			c0.2,0.2,0.5,0.3,1.1,0.3c0.7,0,1.3,0,1.9,0c0.7,0.2,1.5,0.2,2.4,0c0.9-0.2,1.8-0.3,2.7-0.3c1.1-0.2,2-0.4,2.9-0.6
			c1.1-0.2,2.1-0.4,3.2-0.6c1.1-0.4,2.2-0.7,3.5-1.1c1.1-0.4,2.1-0.8,3.2-1.4c1.2-0.6,2.4-1.1,3.5-1.7c1.1-0.7,2.1-1.5,3.2-2.2
			c1.1-0.9,2-1.8,2.9-2.8c1.1-0.9,2-1.9,2.7-3c0.9-1.1,1.7-2.3,2.4-3.6c0.7-1.5,1.4-2.9,2.1-4.4c0.5-1.5,1-3,1.3-4.7
			c0.4-1.8,0.6-3.7,0.8-5.5c0-2,0-4,0-6.1c-0.2-2.2-0.4-4.4-0.8-6.6c-0.2-2-0.5-4-1.1-6.1c-0.4-1.8-0.8-3.7-1.3-5.5
			c-0.5-1.7-1.2-3.3-1.9-5c-0.7-1.5-1.4-2.9-2.1-4.4c-0.9-1.3-1.8-2.6-2.7-3.9c-0.7-1.1-1.6-2.2-2.7-3.3c-0.9-1.1-1.8-2.1-2.7-3
			c-1.1-0.9-2.1-1.7-3.2-2.5c-0.9-0.7-1.9-1.5-2.9-2.2c-1.1-0.7-2-1.4-2.9-1.9c-1.1-0.4-2.1-0.8-3.2-1.4c-0.9-0.4-1.9-0.7-2.9-1.1
			c-0.9-0.4-1.8-0.6-2.7-0.8c-0.9-0.2-1.8-0.4-2.7-0.6c-0.7-0.2-1.5-0.4-2.4-0.6c-0.7,0-1.3,0-1.9,0c-0.7,0.2-1.3,0.2-1.9,0
			C387.4,384.1,386.9,384.2,386.7,384.3z"/>
	</g>
	<g>
		<g>
			<g>
				<path d="M748.4,488.1c-0.2,1-0.4,2.2-0.6,3.4c-0.2,1-0.5,2.1-0.9,3.1c-0.4,1.2-0.8,2.4-1.2,3.4c-0.6,1.2-1.1,2.4-1.5,3.4
					c-0.6,1-1.2,2.1-1.8,3.1c-0.6,1.2-1.2,2.4-1.8,3.4c-0.8,1-1.6,2.1-2.5,3.1c-0.6,1-1.3,2.2-2.1,3.4c-0.8,1-1.7,2.1-2.7,3.1
					c-0.8,1-1.7,2-2.8,2.8c-1,1-1.9,2.1-2.8,3.1c-1,1-2.1,2-3.3,2.8c-1,1-2,2-3.1,2.8c-1.2,1-2.3,2-3.3,2.8
					c-1.2,0.8-2.5,1.6-3.7,2.5c-1.2,1-2.4,1.9-3.7,2.5c-1.2,0.8-2.4,1.6-3.6,2.5c-1.2,0.8-2.5,1.6-3.7,2.2c-1.4,0.8-2.7,1.6-4,2.2
					c-1.4,0.8-2.7,1.6-3.9,2.2c-1.4,0.6-2.8,1.2-4,1.8c-1.4,0.4-2.9,0.9-4.3,1.6c-1.4,0.6-2.7,1.1-3.9,1.5c-1.4,0.4-2.9,0.8-4.3,1.3
					c-1.4,0.4-2.8,0.8-4.3,1.2c-1.4,0.4-2.7,0.7-4,0.9c-1.4,0.4-2.8,0.7-4.3,0.9c-1.4,0.2-2.8,0.4-4.3,0.6c-1.4,0.2-2.8,0.3-4,0.3
					c-1.8,0.2-3.7,0.3-5.5,0.3c-1.6,0-3.3,0.1-4.9,0.3c-1.8,0-3.6,0-5.2,0c-1.6,0-3.3-0.1-4.9-0.3c-1.6,0-3.3,0-4.9,0
					c-1.6-0.2-3.1-0.3-4.6-0.3c-1.6-0.2-3.3-0.4-4.9-0.6c-1.4-0.2-2.8-0.4-4.3-0.6c-1.6-0.2-3.2-0.4-4.6-0.6
					c-1.4-0.2-2.8-0.5-4.3-0.9c-1.4-0.2-2.8-0.5-4.3-0.9c-1.4-0.2-2.8-0.5-4-0.9c-1.4-0.4-2.8-0.8-4-1.2c-1.4-0.4-2.7-0.8-4-1.2
					c-1.2-0.4-2.5-0.9-4-1.6c-1.2-0.4-2.4-0.9-3.6-1.5c-1-0.4-2.1-0.9-3.3-1.6c-1.2-0.6-2.5-1.1-3.7-1.5c-1-0.6-2.1-1.3-3.3-1.9
					c-1-0.8-2-1.6-3.1-2.2c-1.2-0.6-2.3-1.3-3.4-2.2c-1-0.6-2-1.3-3.1-2.2c-0.8-0.6-1.7-1.3-2.7-2.2c-1-0.8-1.9-1.6-2.8-2.5
					c-1-0.8-1.9-1.6-2.8-2.5c-1-0.8-1.9-1.6-2.7-2.5c-0.8-1-1.6-2-2.5-2.8c-0.8-1-1.6-2-2.4-2.8c-0.8-1-1.6-2.1-2.4-3.1
					c-0.6-0.8-1.3-1.7-2.2-2.8c-0.6-1-1.3-2-2.1-3.1c-0.6-1.2-1.2-2.4-1.8-3.4c-0.6-1-1.2-2.2-1.8-3.4c-0.6-1-1.2-2.1-1.8-3.1
					c-0.6-1.3-1.1-2.5-1.5-3.7c-0.6-1.2-1.1-2.4-1.5-3.4c-0.6-1.2-1.1-2.5-1.5-3.7c-0.4-1.2-0.8-2.5-1.2-3.7c-0.4-1.4-0.8-2.8-1.2-4
					c-0.4-1.2-0.8-2.6-1.2-4c-0.4-1.2-0.7-2.6-0.9-4c-0.4-1.2-0.7-2.6-0.9-4c-0.2-1.4-0.5-2.9-0.9-4.3c-0.2-1.2-0.4-2.6-0.6-4
					c-0.2-1.4-0.3-2.8-0.3-4c-0.2-1.4-0.3-2.9-0.3-4.3c-0.2-1.2-0.3-2.6-0.3-4c0-1.4,0-2.8,0-4c0-1.4,0.1-2.8,0.3-4
					c0-1.4,0.1-2.8,0.3-4c0-1.4,0.1-2.8,0.3-4c0.2-1.4,0.4-2.8,0.6-4c0.2-1.4,0.4-2.8,0.6-4c0.4-1.2,0.7-2.5,0.9-3.7
					c0.4-1.4,0.7-2.8,0.9-4c0.4-1.2,0.8-2.5,1.2-3.7c0.4-1.3,0.8-2.5,1.2-3.7c0.4-1.2,0.9-2.5,1.5-3.7c0.4-1.3,0.9-2.5,1.5-3.7
					c0.4-1.2,0.9-2.4,1.5-3.4c0.6-1.3,1.2-2.5,1.8-3.7c0.6-1,1.2-2.2,1.8-3.4c0.6-1.2,1.3-2.4,2.1-3.4c0.6-1,1.3-2.2,2.1-3.4
					c0.6-1,1.3-2,2.1-3.1c0.8-1,1.6-2,2.5-3.1c0.8-1,1.6-2,2.4-3.1c0.8-1,1.6-2,2.4-3.1c0.8-1,1.7-2,2.8-3.1
					c0.8-0.8,1.7-1.7,2.8-2.8c1-0.8,1.9-1.6,2.8-2.5c1-1,2-2,3.1-2.8c1-0.8,2-1.6,3.1-2.5c1-0.8,2.1-1.6,3.3-2.5
					c1-0.8,2-1.6,3.1-2.5c1.2-0.6,2.3-1.3,3.3-2.2c1.2-0.6,2.3-1.3,3.3-2.2c1.2-0.6,2.5-1.2,3.7-1.9c1.2-0.6,2.4-1.2,3.7-1.8
					c1.2-0.6,2.4-1.3,3.6-1.9c1.2-0.6,2.5-1.1,3.7-1.6c1.2-0.6,2.4-1.1,3.6-1.5c1.4-0.6,2.8-1.1,4-1.6c1.4-0.4,2.8-0.8,4-1.2
					c1.4-0.4,2.8-0.7,4-0.9c1.4-0.4,2.8-0.8,4.3-1.2c1.4-0.2,2.8-0.4,4.3-0.6c1.8-0.4,3.7-0.7,5.5-0.9c1.8-0.4,3.8-0.7,5.8-0.9
					c1.6-0.2,3.4-0.3,5.2-0.3c1.8-0.2,3.7-0.3,5.5-0.3c1.6,0,3.3,0,5.2,0c1.6,0,3.3,0,4.9,0c1.6,0,3.2,0.1,4.9,0.3
					c1.6,0.2,3.3,0.4,4.9,0.6c1.6,0.2,3.2,0.4,4.6,0.6c1.6,0.2,3.1,0.5,4.6,0.9c1.4,0.4,3,0.7,4.6,0.9c1.4,0.4,2.8,0.8,4.3,1.2
					c1.2,0.4,2.5,0.9,4,1.6c1.4,0.4,2.7,0.9,4,1.5c1.4,0.4,2.7,0.9,4,1.6c1.2,0.6,2.4,1.2,3.6,1.9c1.2,0.6,2.5,1.2,3.7,1.9
					c1.2,0.6,2.4,1.3,3.6,2.2c1.2,0.6,2.3,1.3,3.4,2.2c1.2,0.6,2.3,1.3,3.3,2.2c1,0.8,2,1.6,3.1,2.5c1,0.8,2,1.6,3.1,2.5
					c1,0.8,2,1.6,3.1,2.5c0.8,0.8,1.7,1.6,2.8,2.5c0.8,1,1.7,2,2.7,2.8c0.8,1,1.6,2,2.5,2.8c0.8,1,1.6,2,2.4,2.8
					c0.8,1,1.6,2.1,2.4,3.1c0.8,0.8,1.5,1.8,2.1,2.8c0.8,1,1.5,2.1,2.2,3.1c0.8,1,1.5,2,2.1,2.8c0.6,1,1.2,2.1,1.8,3.1
					c0.6,1,1.2,2.1,1.8,3.1c0.6,1,1.2,2.1,1.8,3.1c0.4,1,0.9,2,1.5,3.1c0.4,1,0.8,2,1.2,3.1c0.6,1,1.1,2,1.5,3.1
					c0.4,1,0.8,2,1.2,3.1c0.4,0.8,0.8,1.7,1.2,2.8c0.4,1,0.7,2.1,0.9,3.1c0.4,1,0.7,2.1,0.9,3.1c0.4,0.8,0.7,1.8,0.9,2.8
					c0.2,1,0.4,2,0.6,2.8c0.4,1,0.7,2,0.9,2.8c0,1,0.1,2,0.3,2.8c0.2,1,0.4,2,0.6,2.8c0,0.8,0.1,1.6,0.3,2.5c0,0.8,0.1,1.6,0.3,2.5
					c0,0.8,0,1.6,0,2.5c0,0.8,0,1.6,0,2.5c0,0.6,0,1.3,0,2.2c0,0.6,0,1.3,0,2.2c-0.2,0.6-0.3,1.2-0.3,1.8c-0.2,0.6-0.3,1.3-0.3,1.9
					c-0.2,0.6-0.4,1.2-0.6,1.9c0,0.6-0.1,1.1-0.3,1.5c-0.2,0.6-0.4,1.1-0.6,1.6c-0.2,0.4-5.1,8.4-5.1,8.4s-49.2,13.3-75.6,14.8
					s-47.4-0.6-48.6-0.8c-1.4-0.4-2.5,6.2,11.3,8.7s17.8-9.2,17.8-9.2s17.3-4.1,38.9-4c11.5-0.9,28.9,0.1,30.6-0.2
					c1.6,0,22.2,1,24.9,3.9s-0.2,15.4,0,15.7C748.6,487.4,748.6,487.7,748.4,488.1z"/>
			</g>
		</g>
		<path fill="#FFFFFF" d="M722.6,481.1c-0.2,0.8-0.4,1.7-0.7,2.5c-0.3,1-0.6,1.9-1,2.7c-0.5,1-0.9,1.9-1.2,2.7
			c-0.5,0.8-1,1.7-1.5,2.5c-0.5,1-1,1.9-1.5,2.7c-0.7,0.8-1.3,1.7-2,2.5c-0.5,0.8-1.1,1.7-1.7,2.7c-0.7,0.8-1.4,1.7-2.2,2.5
			c-0.6,0.8-1.4,1.6-2.2,2.2c-0.8,0.8-1.6,1.7-2.2,2.5c-0.8,0.8-1.7,1.6-2.7,2.2c-0.8,0.8-1.7,1.6-2.5,2.2c-1,0.8-1.9,1.6-2.7,2.2
			c-1,0.7-2,1.3-3,2c-1,0.8-2,1.5-3,2c-1,0.6-2,1.3-3,2c-1,0.7-2,1.2-3,1.7c-1.1,0.7-2.2,1.2-3.2,1.7c-1.1,0.7-2.2,1.2-3.2,1.7
			c-1.2,0.5-2.2,1-3.2,1.5c-1.1,0.3-2.3,0.7-3.5,1.2c-1.2,0.5-2.2,0.9-3.2,1.2c-1.1,0.3-2.3,0.6-3.5,1c-1.1,0.3-2.3,0.7-3.5,1
			c-1.1,0.3-2.2,0.6-3.2,0.7c-1.1,0.3-2.3,0.6-3.5,0.7c-1.1,0.2-2.3,0.3-3.5,0.5s-2.2,0.2-3.2,0.2c-1.5,0.2-3,0.3-4.5,0.3
			c-1.3,0-2.6,0.1-3.9,0.2c-1.5,0-2.9,0-4.2,0c-1.3,0-2.6-0.1-4-0.2c-1.3,0-2.6,0-3.9,0c-1.3-0.2-2.6-0.3-3.7-0.3
			c-1.3-0.2-2.6-0.3-3.9-0.5c-1.2-0.2-2.3-0.3-3.5-0.5c-1.3-0.2-2.6-0.3-3.7-0.5c-1.1-0.2-2.3-0.4-3.5-0.7c-1.1-0.2-2.3-0.4-3.5-0.7
			c-1.1-0.2-2.2-0.4-3.2-0.7c-1.2-0.3-2.2-0.7-3.2-1c-1.2-0.3-2.2-0.7-3.2-1c-1-0.3-2.1-0.7-3.2-1.2c-1-0.3-2-0.7-3-1.2
			c-0.8-0.3-1.7-0.7-2.7-1.2c-1-0.5-2-0.9-3-1.2c-0.8-0.5-1.7-1-2.7-1.5c-0.8-0.6-1.7-1.2-2.5-1.7c-1-0.5-1.9-1.1-2.7-1.7
			c-0.8-0.5-1.7-1.1-2.5-1.7c-0.7-0.5-1.4-1.1-2.2-1.7c-0.8-0.6-1.6-1.3-2.2-2c-0.8-0.7-1.6-1.3-2.2-2c-0.8-0.7-1.6-1.3-2.2-2
			c-0.7-0.8-1.3-1.5-2-2.2c-0.6-0.8-1.3-1.6-2-2.2c-0.7-0.8-1.3-1.7-2-2.5c-0.5-0.6-1.1-1.4-1.7-2.2c-0.5-0.8-1.1-1.7-1.7-2.5
			c-0.5-1-1-1.9-1.5-2.7c-0.5-0.8-1-1.7-1.5-2.7c-0.5-0.8-1-1.6-1.5-2.5c-0.5-1-0.9-2-1.2-3c-0.5-1-0.9-1.9-1.2-2.7
			c-0.5-1-0.9-2-1.2-3c-0.3-1-0.7-2-1-3c-0.3-1.1-0.7-2.2-1-3.2s-0.7-2.1-1-3.2c-0.3-1-0.6-2.1-0.7-3.2c-0.3-1-0.6-2.1-0.7-3.2
			c-0.2-1.1-0.4-2.3-0.7-3.5c-0.2-1-0.3-2.1-0.5-3.2c-0.2-1.1-0.3-2.2-0.3-3.2c-0.2-1.2-0.2-2.3-0.2-3.5c-0.2-1-0.2-2.1-0.2-3.2
			c0-1.1,0-2.2,0-3.2c0-1.1,0.1-2.2,0.2-3.2c0-1.1,0.1-2.2,0.2-3.2c0-1.2,0.1-2.2,0.3-3.2c0.2-1.1,0.3-2.2,0.5-3.2
			c0.2-1.1,0.3-2.2,0.5-3.2c0.3-1,0.6-2,0.7-3c0.3-1.1,0.6-2.2,0.7-3.2c0.3-1,0.6-2,1-3c0.3-1,0.6-2,1-3c0.3-1,0.7-2,1.2-3
			c0.3-1,0.7-2,1.2-3c0.3-1,0.7-1.9,1.2-2.7c0.5-1,1-2,1.5-3c0.5-0.8,1-1.7,1.5-2.7c0.5-1,1.1-1.9,1.7-2.7c0.5-0.8,1.1-1.7,1.7-2.7
			c0.5-0.8,1.1-1.7,1.7-2.5c0.6-0.8,1.3-1.7,2-2.5c0.7-0.8,1.3-1.6,2-2.5c0.7-0.8,1.3-1.7,2-2.5c0.6-0.8,1.4-1.7,2.2-2.5
			c0.7-0.7,1.4-1.4,2.2-2.2c0.8-0.6,1.6-1.3,2.2-2c0.8-0.8,1.7-1.6,2.5-2.2c0.8-0.6,1.7-1.3,2.5-2c0.8-0.7,1.7-1.3,2.7-2
			c0.8-0.7,1.7-1.3,2.5-2c1-0.5,1.9-1.1,2.7-1.7c1-0.5,1.9-1.1,2.7-1.7c1-0.5,2-1,3-1.5c1-0.5,2-1,3-1.5c1-0.5,2-1,3-1.5
			c1-0.5,2-0.9,3-1.2c1-0.5,2-0.9,3-1.2c1.1-0.5,2.2-0.9,3.2-1.2c1.1-0.3,2.2-0.7,3.2-1c1.2-0.3,2.2-0.6,3.2-0.7
			c1.1-0.3,2.3-0.7,3.5-1c1.1-0.2,2.3-0.3,3.5-0.5c1.5-0.3,3-0.6,4.4-0.7c1.5-0.3,3.1-0.6,4.7-0.7c1.3-0.2,2.7-0.2,4.2-0.2
			c1.5-0.2,3-0.2,4.4-0.2c1.3,0,2.7,0,4.2,0c1.3,0,2.6,0,3.9,0c1.3,0,2.6,0.1,4,0.2c1.3,0.2,2.6,0.3,4,0.5c1.3,0.2,2.5,0.3,3.7,0.5
			c1.3,0.2,2.6,0.4,3.7,0.7c1.1,0.3,2.4,0.6,3.7,0.7c1.1,0.3,2.3,0.7,3.5,1c1,0.3,2.1,0.7,3.2,1.2c1.2,0.3,2.2,0.7,3.2,1.2
			c1.1,0.3,2.2,0.7,3.2,1.2c1,0.5,2,1,3,1.5c1,0.5,2,1,3,1.5c1,0.5,2,1.1,3,1.7c1,0.5,1.9,1.1,2.7,1.7c1,0.5,1.9,1.1,2.7,1.7
			c0.8,0.7,1.7,1.3,2.5,2c0.8,0.7,1.7,1.3,2.5,2c0.8,0.6,1.7,1.3,2.5,2c0.7,0.7,1.4,1.3,2.2,2c0.6,0.8,1.4,1.6,2.2,2.2
			c0.7,0.8,1.3,1.6,2,2.2c0.6,0.8,1.3,1.6,2,2.2c0.7,0.8,1.3,1.7,2,2.5c0.7,0.7,1.2,1.4,1.7,2.2c0.7,0.8,1.2,1.7,1.7,2.5
			c0.7,0.8,1.2,1.6,1.7,2.2c0.5,0.8,1,1.7,1.5,2.5c0.5,0.8,1,1.7,1.5,2.5c0.5,0.8,1,1.7,1.5,2.5c0.3,0.8,0.7,1.7,1.2,2.5
			c0.3,0.8,0.7,1.7,1,2.5c0.5,0.8,0.9,1.7,1.2,2.5c0.3,0.8,0.7,1.7,1,2.5c0.3,0.7,0.6,1.4,1,2.2c0.3,0.8,0.6,1.7,0.7,2.5
			c0.3,0.8,0.6,1.7,0.7,2.5c0.3,0.7,0.6,1.4,0.7,2.2c0.2,0.8,0.3,1.6,0.5,2.2c0.3,0.8,0.6,1.6,0.7,2.2c0,0.8,0.1,1.6,0.2,2.2
			c0.2,0.8,0.3,1.6,0.5,2.2c0,0.7,0.1,1.3,0.2,2c0,0.6,0.1,1.3,0.2,2c0,0.7,0,1.3,0,2c0,0.7,0,1.3,0,2c0,0.5,0,1.1,0,1.7
			c0,0.5,0,1.1,0,1.7c-0.2,0.5-0.2,1-0.2,1.5c-0.2,0.5-0.2,1-0.2,1.5c-0.2,0.5-0.3,1-0.5,1.5c0,0.5-0.1,0.9-0.2,1.2
			c-0.2,0.5-0.3,0.9-0.5,1.2c-0.2,0.3-0.4,0.6-0.7,1c-0.2,0.3-0.3,0.7-0.5,1c-0.2,0.2-0.4,0.4-0.7,0.7c-0.2,0.2-0.4,0.4-0.7,0.7
			c-0.3,0.2-0.7,0.4-1.2,0.7c-0.3,0.2-0.7,0.4-1.2,0.7c-0.5,0.2-1,0.4-1.5,0.7c-0.6,0.2-1.2,0.4-1.7,0.7c-0.6,0.2-1.3,0.4-2,0.7
			c-0.7,0.2-1.3,0.4-2,0.7c-0.7,0.2-1.4,0.4-2.2,0.7c-0.8,0.2-1.6,0.4-2.2,0.7c-0.8,0.2-1.7,0.3-2.5,0.5c-1,0.3-1.9,0.6-2.7,0.7
			c-0.8,0.3-1.7,0.6-2.7,0.7c-1,0.2-2,0.4-3,0.7c-0.8,0.2-1.7,0.3-2.7,0.5c-1.2,0.2-2.2,0.3-3.2,0.5c-1,0.3-2.1,0.6-3.2,0.7
			c-1,0.2-2.1,0.3-3.2,0.5c-1,0.2-2.1,0.3-3.2,0.5c-1.2,0.2-2.3,0.3-3.5,0.5c-1,0.2-2.1,0.3-3.2,0.5c-1.1,0-2.3,0.1-3.5,0.2
			c-1.3,0.2-2.6,0.3-3.7,0.3c-1.2,0.2-2.3,0.3-3.5,0.5c-1.2,0-2.4,0.1-3.7,0.3c-1.1,0-2.3,0-3.5,0c-1.3,0.2-2.6,0.2-3.7,0.2
			s-2.4,0-3.7,0c-1.2,0-2.3,0-3.5,0c-1.2,0-2.4,0-3.7,0c-1.1,0-2.3,0-3.5,0c-1.3-0.2-2.6-0.2-3.7-0.2c-1.1,0-2.3-0.1-3.5-0.3
			s-2.3-0.2-3.5-0.2c-1.1-0.2-2.3-0.3-3.5-0.5c-1.2-0.2-2.3-0.3-3.5-0.5c-1-0.2-2.1-0.3-3.2-0.5c-1.1-0.2-2.2-0.3-3.2-0.5
			c-1.1-0.3-2.2-0.6-3.2-0.7c-1.2,0-2.2-0.3-3-1c-1.7-1-3.7,23.8,18.2,27.8c19.1,3.3,27.1-5.6,27.1-5.6s14.5-1,26.5-1.9
			C695.7,480,722.8,480.1,722.6,481.1z M613.3,430.7c0.3,0.7,1.3,1.1,3,1.5c1.2,0.2,2.3,0.6,3.5,1.2c1,0.3,2.2,0.7,3.5,1
			c1.3,0.2,2.6,0.4,3.7,0.7c1.1,0.2,2.4,0.3,3.7,0.5c1.3,0,2.6,0.1,3.7,0.2c1.3,0,2.6,0,3.7,0c1.1,0,2.3,0,3.5,0
			c1.1,0,2.3-0.1,3.5-0.2c1,0,2-0.1,3-0.3c0.8-0.2,1.7-0.4,2.7-0.7c0.7-0.2,1.4-0.3,2.2-0.5c0.7-0.3,1.2-0.7,1.7-1
			c0.5-0.2,0.9-0.5,1.2-1c0.7-0.6,1.3-1.4,2-2.2c0.5-1,0.9-1.9,1.2-2.7c0.3-1,0.6-2,0.7-3s0.2-2,0.2-3c0-1-0.1-2-0.2-3
			c-0.3-1-0.6-1.9-0.7-2.7c-0.3-1-0.7-2-1.2-3c-0.5-0.8-1.1-1.7-1.7-2.5c-0.5-0.8-1.2-1.6-2-2.2c-0.6-0.6-1.4-1.3-2.2-2
			c-1-0.5-2-1-3-1.5c-1-0.5-2-0.8-3-1c-1.1-0.3-2.3-0.5-3.5-0.5c-0.8,0-1.6,0.1-2.2,0.2c-0.8,0-1.7,0.1-2.5,0.2
			c-0.8,0.3-1.7,0.7-2.7,1c-0.8,0.3-1.7,0.7-2.5,1c-1,0.5-1.9,1-2.7,1.5c-0.8,0.7-1.7,1.3-2.5,2c-1,0.7-1.9,1.4-2.7,2.2
			c-0.8,0.7-1.7,1.5-2.5,2.5c-0.7,0.8-1.4,1.7-2.2,2.7c-0.7,1-1.3,2.1-2,3.2c-0.8,1-1.5,2.1-2,3.2c-0.3,1.5-0.8,2.8-1.5,3.9
			C613.5,428.3,613.1,429.7,613.3,430.7z"/>
	</g>
</g>
</svg>
