<?xml version="1.0" encoding="utf-8"?>
<!-- Generator: Adobe Illustrator 18.0.0, SVG Export Plug-In . SVG Version: 6.00 Build 0)  -->
<!DOCTYPE svg PUBLIC "-//W3C//DTD SVG 1.1//EN" "http://www.w3.org/Graphics/SVG/1.1/DTD/svg11.dtd">
<svg version="1.1" id="Camada_1" xmlns="http://www.w3.org/2000/svg" xmlns:xlink="http://www.w3.org/1999/xlink" x="0px" y="0px"
	 viewBox="0 0 1024 768" enable-background="new 0 0 1024 768" xml:space="preserve">
<g>
	<defs>
		<circle id="SVGID_1_" cx="511.9" cy="383.4" r="375.7"/>
	</defs>
	<clipPath id="SVGID_2_">
		<use xlink:href="#SVGID_1_"  overflow="visible"/>
	</clipPath>
	<g clip-path="url(#SVGID_2_)" enable-background="new    ">
		
			<image overflow="visible" width="2474" height="2474" xlink:href="../../banco de imagens/botões/butt 25.png"  transform="matrix(0.3065 0 0 0.3065 132.8006 4.7999)">
		</image>
	</g>
</g>
<g>
	<g>
		<path fill="#020202" d="M654.1,526.9c-0.2-0.9-11.4,17-42.8,16.8c-0.9,0.2-1.8,0.2-2.9,0c-0.8,0-1.7,0-2.6,0c-1.1,0-2.1,0-2.9,0
			c-1.1-0.2-2.1-0.3-2.9-0.3c-1.1-0.2-2-0.4-2.9-0.6c-0.9,0-1.8-0.1-2.9-0.3c-0.9-0.2-1.8-0.4-2.9-0.7c-0.9-0.2-1.7-0.4-2.6-0.6
			c-1.1-0.4-2.1-0.7-2.9-1c-0.9-0.2-1.8-0.5-2.9-1c-0.9-0.4-1.7-0.7-2.6-1c-0.9-0.4-1.8-0.9-2.9-1.3c-0.9-0.4-1.7-0.9-2.6-1.3
			c-0.9-0.4-1.7-0.9-2.6-1.3c-0.9-0.4-1.7-0.9-2.6-1.3c-0.9-0.7-1.7-1.2-2.6-1.6c-0.9-0.6-1.7-1.2-2.6-1.6c-0.9-0.6-1.7-1.3-2.6-1.9
			c-0.9-0.4-1.7-1-2.6-1.6c-0.8-0.7-1.6-1.3-2.2-1.9c-0.9-0.6-1.7-1.3-2.6-1.9c-0.6-0.9-1.4-1.6-2.2-2.3c-0.9-0.6-1.6-1.4-2.3-2.3
			c-0.7-0.6-1.4-1.4-2.3-2.3c-0.6-0.9-1.4-1.7-2.2-2.6c-0.7-0.6-1.3-1.4-1.9-2.3c-0.7-0.9-1.3-1.7-1.9-2.6c-0.7-0.9-1.3-1.8-1.9-2.9
			c-0.7-0.9-1.3-1.7-1.9-2.6c-0.6-1.1-1.3-2-1.9-2.9c-0.4-1.1-1-2-1.6-2.9c-0.6-1.1-1.2-2.2-1.6-3.2c-0.6-0.9-1.2-1.8-1.6-2.9
			c-0.4-1.1-1-2.2-1.6-3.2c-0.4-1.1-0.9-2.1-1.3-3.2c-0.4-1.3-0.9-2.5-1.3-3.6c-0.4-1.1-0.9-2.3-1.3-3.5c-0.4-1.1-0.7-2.3-1-3.6
			c-0.4-1.1-0.9-2.3-1.3-3.6c-0.2-1.3-0.4-2.5-0.7-3.6c-0.4-1.3-0.7-2.6-1-3.9c-0.2-1.3-0.4-2.6-0.7-3.9c-0.2-1.3-0.4-2.6-0.7-3.9
			c-0.2-1.5-0.4-2.9-0.6-4.2c0-1.3-0.1-2.7-0.3-4.2c0-1.3-0.1-2.7-0.3-4.2c0-1.3,0-2.7,0-4.2c0-1.5,0-2.9,0-4.2c0-1.5,0-3,0-4.5
			c0-1.5,0.1-3,0.3-4.5c0-1.5,0.1-3,0.3-4.5c0-1.7,0.1-3.3,0.3-4.9c0.2-1.5,0.4-3,0.6-4.5c0.2-1.7,0.4-3.3,0.7-4.9
			c0.4-1.9,0.9-3.8,1.3-5.5c0.2-1.7,0.5-3.4,1-5.2c0.4-1.7,0.8-3.3,1.3-4.8c0.4-1.7,1-3.3,1.6-4.9c0.4-1.7,1-3.3,1.6-4.8
			c0.4-1.5,1-3,1.6-4.5c0.7-1.5,1.3-2.9,1.9-4.2c0.6-1.5,1.3-2.9,1.9-4.2c0.6-1.5,1.4-2.9,2.2-4.2c0.7-1.3,1.4-2.6,2.3-3.9
			c14.8-22.6,41.7-45.5,78.3-47.5c36.6-2,50.5,16.5,50.7,15.6c0.8-1.7-1.2-10.8,4.4-14.1c5.6-3.3,87.2-3.1,86.2,5.3l0.3,0.3
			c0,0.4,0,0.7,0,1c0,0.4,0,0.9,0,1.3c0,0.6,0,1.3,0,1.9c0,0.6,0,1.3,0,1.9c0,0.9,0,1.6,0,2.3c0,1.1,0,2,0,2.9c0,1.1-0.1,2-0.3,2.9
			c0,1.3,0,2.5,0,3.6c-0.2,1.3-0.3,2.5-0.3,3.5c0,1.5-0.1,2.9-0.3,4.2c0,1.3,0,2.7,0,4.2c-0.2,1.5-0.3,3-0.3,4.5
			c0,1.7-0.1,3.3-0.3,4.8c0,1.7,0,3.4,0,5.2c-0.2,1.7-0.3,3.4-0.3,5.2c0,1.9-0.1,3.9-0.3,5.8c0,1.9,0,3.8,0,5.5
			c-0.2,2.2-0.3,4.2-0.3,6.1c0,2.2,0,4.2,0,6.1c0,2.2-0.1,4.3-0.3,6.5c0,2.2,0,4.3,0,6.5c0,2.4,0,4.6,0,6.8c0,2.6,0,5.1,0,7.4
			c0,2.4,0,4.7,0,7.1c0.2,2.4,0.3,4.6,0.3,6.8c0,2.4,0,4.6,0,6.8c0,2.2,0.1,4.3,0.3,6.5c0,2.2,0,4.3,0,6.5c0.2,2.2,0.3,4.2,0.3,6.1
			c0,1.9,0.1,4,0.3,6.1c0,1.9,0.1,3.8,0.3,5.5c0,1.9,0,3.9,0,5.8c0.2,1.7,0.3,3.4,0.3,5.2c0.2,1.7,0.3,3.4,0.3,5.2
			c0.2,1.7,0.3,3.3,0.3,4.8c0.2,1.7,0.3,3.3,0.3,4.8c0.2,1.5,0.3,3,0.3,4.5c0.2,1.3,0.3,2.7,0.3,4.2c0,1.3,0.1,2.6,0.3,3.9
			c0,1.3,0.1,2.6,0.3,3.9c0,1.3,0,2.5,0,3.6c0.2,1.1,0.3,2.3,0.3,3.5c0,0.9,0.1,1.8,0.3,2.9c0,1.1,0,2,0,2.9c0,0.9,0.1,1.7,0.3,2.6
			c0,0.9,0,1.7,0,2.6c0,0.7,0,1.3,0,1.9s0,1.3,0,1.9c0,0.6,0,1.2,0,1.6c0,0.4,0,1,0,1.6c0,0.2-0.1,0.5-0.3,1c0,0.4,0,0.8,0,1
			c-0.2,0.2-0.3,0.4-0.3,0.6c0,0.2-0.1,0.3-0.3,0.3c-0.4,0.2-0.8,0.4-1.3,0.6c-0.9,0.2-1.6,0.3-2.2,0.3c-1.1,0.2-2.2,0.4-3.2,0.6
			c-1.1,0-6.5,0.3-7.7,0.3c-1.7,0.2-3.3,0.3-4.8,0.3c-1.7,0-3.5,0-5.2,0c-1.7,0-9,0-11,0c-1.9,0-3.9,0-5.8,0
			c-1.9,0-9.4-0.1-11.3-0.3c-1.9,0-18.8-1-20.3-1c-1.3-0.2-9.7-1.3-9.7-1.3C658.1,540,654.6,528.4,654.1,526.9z"/>
		<path fill="#FFFFFF" d="M665.7,498.5c-0.2-0.7-0.7,0.1-1.6,2.4c-0.4,0.7-1,1.4-1.9,2.1c-0.7,0.5-1.3,1.2-1.9,1.9
			c-0.5,0.7-1.2,1.3-1.9,1.9c-0.7,0.7-1.4,1.3-1.9,1.9c-0.7,0.7-1.4,1.3-2.1,1.9c-0.7,0.5-1.4,1.1-1.9,1.6c-0.7,0.5-1.4,1.1-2.2,1.6
			c-0.7,0.4-1.4,0.8-2.1,1.3c-0.7,0.5-1.4,1-2.1,1.3c-0.7,0.4-1.4,0.8-2.2,1.3c-0.7,0.4-1.4,0.7-2.1,1.1c-0.7,0.4-1.5,0.7-2.4,1.1
			c-0.7,0.4-1.4,0.6-2.1,0.8c-0.7,0.4-1.5,0.7-2.4,1.1c-0.7,0.2-1.4,0.4-2.2,0.5c-0.7,0.4-1.5,0.6-2.4,0.8c-0.7,0.2-1.5,0.4-2.4,0.5
			c-0.7,0.2-1.4,0.4-2.1,0.5c-0.9,0.2-1.7,0.3-2.4,0.3c-0.7,0.2-1.5,0.3-2.4,0.3c-0.7,0.2-1.5,0.3-2.4,0.3c-0.7,0-1.5,0-2.4,0
			c-0.7,0.2-1.5,0.2-2.4,0c-0.7,0-1.4,0-2.1,0c-0.9,0-1.7,0-2.4,0c-0.9-0.2-1.7-0.3-2.4-0.3c-0.9-0.2-1.7-0.4-2.4-0.5
			c-0.7,0-1.5-0.1-2.4-0.3c-0.7-0.2-1.5-0.4-2.4-0.5c-0.7-0.2-1.4-0.4-2.2-0.5c-0.9-0.3-1.7-0.6-2.4-0.8c-0.7-0.2-1.5-0.4-2.4-0.8
			c-0.7-0.4-1.4-0.6-2.1-0.8c-0.7-0.3-1.5-0.7-2.4-1.1c-0.7-0.4-1.4-0.7-2.1-1.1c-0.7-0.4-1.4-0.7-2.1-1.1c-0.7-0.3-1.4-0.7-2.2-1.1
			c-0.7-0.5-1.4-1-2.1-1.3c-0.7-0.5-1.4-1-2.1-1.3c-0.7-0.5-1.4-1.1-2.2-1.6c-0.7-0.4-1.4-0.8-2.1-1.3c-0.7-0.5-1.3-1.1-1.9-1.6
			c-0.7-0.5-1.4-1.1-2.1-1.6c-0.5-0.7-1.2-1.3-1.9-1.9c-0.7-0.5-1.4-1.2-1.9-1.9c-0.5-0.5-1.2-1.2-1.9-1.9c-0.5-0.7-1.2-1.4-1.9-2.1
			c-0.5-0.5-1.1-1.2-1.6-1.9c-0.5-0.7-1.1-1.4-1.6-2.1c-0.5-0.7-1.1-1.5-1.6-2.4c-0.5-0.7-1.1-1.4-1.6-2.1c-0.5-0.9-1.1-1.7-1.6-2.4
			c-0.3-0.9-0.8-1.7-1.3-2.4c-0.5-0.9-1-1.8-1.4-2.7c-0.5-0.7-1-1.5-1.3-2.4c-0.4-0.9-0.8-1.8-1.4-2.7c-0.3-0.9-0.7-1.8-1.1-2.7
			c-0.3-1.1-0.7-2-1.1-2.9c-0.3-0.9-0.7-1.9-1.1-3c-0.4-0.9-0.6-1.9-0.8-2.9c-0.3-0.9-0.7-1.9-1.1-2.9c-0.2-1.1-0.4-2-0.5-3
			c-0.3-1.1-0.6-2.1-0.8-3.2c-0.2-1.1-0.3-2.1-0.5-3.2c-0.2-1.1-0.4-2.1-0.5-3.2c-0.2-1.3-0.4-2.4-0.5-3.5c0-1.1-0.1-2.2-0.3-3.5
			c0-1.1-0.1-2.2-0.3-3.5c0-1.1,0-2.2,0-3.5c0-1.3,0-2.4,0-3.5c0-1.2,0-2.5,0-3.7c0-1.2,0.1-2.5,0.3-3.7c0-1.2,0.1-2.5,0.3-3.7
			c0-1.4,0.1-2.8,0.3-4c0.2-1.2,0.4-2.5,0.5-3.7c0.2-1.4,0.4-2.8,0.5-4c0.4-1.6,0.7-3.1,1.1-4.6c0.2-1.4,0.5-2.9,0.8-4.3
			c0.4-1.4,0.7-2.8,1.1-4c0.4-1.4,0.8-2.8,1.4-4c0.3-1.4,0.8-2.8,1.3-4c0.4-1.3,0.8-2.5,1.4-3.7c0.5-1.3,1.1-2.4,1.6-3.5
			c0.5-1.2,1.1-2.4,1.6-3.5c0.5-1.3,1.2-2.4,1.9-3.5c0.5-1.1,1.2-2.1,1.9-3.2c0.5-1.1,1.2-2,1.9-2.9c0.7-1.1,1.4-2,2.1-2.9
			c0.7-1.1,1.4-2.1,2.2-3c0.7-0.9,1.4-1.8,2.1-2.7c0.7-0.9,1.4-1.8,2.1-2.7c0.9-0.7,1.7-1.5,2.4-2.4c0.9-0.7,1.7-1.4,2.4-2.1
			c0.9-0.7,1.8-1.4,2.7-2.1c0.7-0.7,1.5-1.4,2.4-2.1c0.9-0.7,1.8-1.3,2.7-1.9c0.9-0.7,1.8-1.3,2.7-1.9c0.9-0.5,1.8-1.1,2.7-1.6
			c0.9-0.5,1.8-1.1,2.7-1.6c1.1-0.5,2.1-1,3-1.3c0.9-0.5,1.9-1,2.9-1.3c0.9-0.4,1.8-0.8,2.7-1.3c1.1-0.4,2-0.7,2.9-1.1
			c1.1-0.2,2-0.4,2.9-0.8c1.1-0.4,2-0.6,2.9-0.8c1.1-0.3,2-0.6,2.9-0.8c1.1-0.2,2-0.4,3-0.5c1.1-0.2,2-0.4,2.9-0.5
			c1.1-0.2,2.1-0.3,3.2-0.3c0.9-0.2,1.9-0.3,2.9-0.3c0.9-0.2,1.9-0.3,2.9-0.3c1.1,0,2.1,0,3,0c1.1,0,2,0,2.9,0c1.1,0,2,0.1,2.9,0.3
			c1.1,0,2,0.1,2.9,0.3c1.1,0,2,0.1,2.9,0.3c1.1,0.2,2,0.4,2.9,0.5c0.9,0.2,1.9,0.4,3,0.5c0.9,0.4,1.8,0.6,2.7,0.8
			c1.1,0.2,2,0.4,2.9,0.8c0.9,0.4,1.8,0.7,2.7,1.1c0.9,0.2,1.8,0.4,2.7,0.8c0.9,0.4,1.8,0.7,2.7,1.1c0.9,0.5,1.8,1,2.7,1.3
			c0.7,0.4,1.5,0.8,2.4,1.3c0.9,0.5,1.7,1,2.4,1.3c0.9,0.5,1.7,1.1,2.4,1.6c0.9,0.5,1.7,1.1,2.4,1.6c1.1,0.4,1.8,0.9,2.1,1.6
			c1.2,2,2,2.6,2.1,1.9c0.7-1.4,1-3.3,0.8-5.6c-0.2-1.6,0-3.2,0.5-4.8c0.3-1.1,0.6-2.2,0.8-3.5c0-0.7,0.3-1.2,0.8-1.6
			c0.2-0.2,0.5-0.4,1.1-0.5c0.5-0.2,1.2-0.3,1.9-0.3c0.9-0.2,1.8-0.3,2.7-0.3c1.1-0.2,2.2-0.3,3.2-0.3c1.2,0,2.5,0,3.7,0
			c1.4,0,2.9,0,4.3,0c1.4,0,2.9,0,4.5,0c1.4,0,3,0,4.6,0c1.6,0,3.2,0.1,4.8,0.3c1.6,0,3.3,0.1,5.1,0.3c1.4,0,2.9,0.1,4.6,0.3
			c1.6,0.2,3.1,0.4,4.6,0.5c1.4,0.2,2.9,0.4,4.3,0.5c1.3,0.2,2.5,0.4,3.7,0.5c1.1,0.2,2.2,0.4,3.2,0.5c0.9,0.2,1.8,0.5,2.7,0.8
			c0.7,0.2,1.3,0.4,1.9,0.5c0.3,0.4,0.7,0.7,1.1,1.1l0.3,0.3c0,0.4,0,0.6,0,0.8c0,0.4,0,0.7,0,1.1c0,0.5,0,1.1,0,1.6s0,1.1,0,1.6
			c0,0.7,0,1.3,0,1.9c0,0.9,0,1.7,0,2.4c0,0.9-0.1,1.7-0.3,2.4c0,1.1,0,2,0,2.9c-0.2,1.1-0.3,2-0.3,2.9c0,1.3-0.1,2.4-0.3,3.5
			c0,1.1,0,2.2,0,3.5c-0.2,1.3-0.3,2.5-0.3,3.7c0,1.4-0.1,2.8-0.3,4c0,1.4,0,2.9,0,4.3c-0.2,1.4-0.3,2.9-0.3,4.3
			c0,1.6-0.1,3.2-0.3,4.8c0,1.6,0,3.1,0,4.6c-0.2,1.8-0.3,3.5-0.3,5.1c0,1.8,0,3.5,0,5.1c0,1.8-0.1,3.6-0.3,5.4c0,1.8,0,3.6,0,5.3
			c0,2,0,3.8,0,5.6c0,2.1,0,4.2,0,6.2s0,3.9,0,5.9c0.2,2,0.3,3.8,0.3,5.6c0,2,0,3.8,0,5.6c0,1.8,0.1,3.6,0.3,5.4c0,1.8,0,3.6,0,5.4
			c0.2,1.8,0.3,3.5,0.3,5.1c0,1.6,0.1,3.3,0.3,5.1c0,1.6,0.1,3.1,0.3,4.5c0,1.6,0,3.2,0,4.8c0.2,1.4,0.3,2.9,0.3,4.3
			c0.2,1.4,0.3,2.9,0.3,4.3c0.2,1.4,0.3,2.8,0.3,4c0.2,1.4,0.3,2.8,0.3,4c0.2,1.3,0.3,2.5,0.3,3.8c0.2,1.1,0.3,2.2,0.3,3.5
			c0,1.1,0.1,2.1,0.3,3.2c0,1.1,0.1,2.1,0.3,3.2c0,1.1,0,2,0,2.9c0.2,0.9,0.3,1.9,0.3,3c0,0.7,0.1,1.5,0.3,2.4c0,0.9,0,1.7,0,2.4
			c0,0.7,0.1,1.4,0.3,2.1c0,0.7,0,1.4,0,2.1c0,0.5,0,1.1,0,1.6c0,0.5,0,1.1,0,1.6c0,0.5,0,1,0,1.3c0,0.4,0,0.8,0,1.3
			c0,0.2-0.1,0.4-0.3,0.8c0,0.4,0,0.6,0,0.8c-0.2,0.2-0.3,0.4-0.3,0.5c0,0.2-0.1,0.3-0.3,0.3c-0.3,0.2-0.7,0.4-1.1,0.5
			c-0.7,0.2-1.3,0.3-1.9,0.3c-0.9,0.2-1.8,0.4-2.7,0.5c-0.9,0-1.9,0.1-2.9,0.3c-1.2,0-2.4,0-3.5,0c-1.4,0.2-2.8,0.3-4,0.3
			c-1.4,0-2.9,0-4.3,0c-1.4,0-2.9,0-4.5,0c-1.4,0-3,0-4.6,0c-1.6,0-3.2,0-4.8,0c-1.6,0-3.2,0-4.8,0c-1.4,0-2.9-0.1-4.6-0.3
			c-1.6,0-3.1-0.1-4.6-0.3c-1.6,0-3.1,0-4.5,0c-1.3-0.2-2.6-0.3-4-0.3c-1.2-0.2-2.5-0.3-3.7-0.3c-1.1-0.2-2.1-0.3-3.2-0.3
			c-0.9-0.2-1.8-0.4-2.7-0.5c-0.7,0-1.4-0.1-2.1-0.3c-0.5-0.2-1.1-0.3-1.6-0.3c-0.4-0.2-0.6-0.4-0.8-0.5c-0.5-0.5-0.9-1.2-1.1-1.9
			c-0.4-0.7-0.6-1.4-0.8-2.1c-0.4-1.1-0.5-2-0.5-2.9c-0.2-1.3-0.3-2.4-0.3-3.5c0.2-1.2,0.3-2.6,0.3-4c-0.4-1.4-0.4-2.9,0-4.3
			C665.9,501.3,666,499.7,665.7,498.5z M640.2,395.3c-1.1-0.2-2.2-0.3-3.5-0.3c-1.3,0-2.4,0-3.5,0c-1.3,0.2-2.4,0.4-3.5,0.8
			c-1.1,0.4-2.1,0.7-3.2,1.1c-1.1,0.5-2.1,1.2-3,1.9c-1.1,0.5-2,1.2-2.9,1.9c-0.9,0.7-1.7,1.5-2.4,2.4c-0.9,0.9-1.7,1.8-2.4,2.7
			c-0.7,0.9-1.4,1.9-2.1,2.9c-0.5,0.9-1.1,1.9-1.6,2.9c-0.5,1.3-1.1,2.4-1.6,3.5c-0.3,1.1-0.7,2.2-1.1,3.5c-0.2,1.1-0.3,2.2-0.5,3.5
			c-0.2,1.3-0.3,2.5-0.3,3.7c0,1.1,0,2.2,0,3.5c0.2,1.3,0.5,2.4,0.8,3.5c0.4,1.1,0.7,2.1,1.1,3.2c0.4,1.3,0.8,2.3,1.4,3.2
			c0.7,1.1,1.3,2,1.9,2.9c0.7,1.1,1.4,2.1,2.1,2.9c0.7,0.9,1.5,1.7,2.4,2.4c0.9,0.7,1.8,1.4,2.7,2.1c0.9,0.7,1.8,1.3,2.7,1.9
			c0.9,0.7,1.9,1.3,3,1.6c1.1,0.4,2,0.7,2.9,1.1c1.1,0.4,2.1,0.6,3.2,0.8c1.1,0.2,2.2,0.3,3.2,0.3c1.1,0,2.1-0.1,3.2-0.3
			c1.2-0.2,2.5-0.4,3.7-0.8c1.2-0.4,2.5-0.8,3.7-1.3c1.2-0.4,2.4-0.8,3.5-1.3c1.1-0.7,2.1-1.4,3.2-2.1c1.1-0.5,2.1-1.3,3-2.1
			c0.9-0.7,1.8-1.5,2.7-2.4c0.9-0.9,1.7-1.9,2.4-3c0.7-0.9,1.4-1.9,1.9-2.9c0.5-1.1,1.1-2.1,1.6-3.2c0.5-1.2,1-2.4,1.3-3.5
			c0.2-1.3,0.4-2.5,0.5-3.7c0.2-1.3,0.3-2.5,0.5-3.7c0-1.4-0.1-2.8-0.3-4c-0.2-1.2-0.3-2.4-0.5-3.5c-0.4-1.2-0.7-2.4-1.1-3.5
			c-0.5-1.1-1.1-2.1-1.6-3.2c-0.5-0.9-1.2-1.9-1.9-2.9c-0.7-0.9-1.5-1.7-2.4-2.4c-0.7-0.9-1.5-1.7-2.4-2.4c-1.1-0.9-2-1.6-2.9-2.1
			c-1.1-0.7-2.1-1.3-3.2-1.9c-1.1-0.5-2.2-1.1-3.5-1.6c-1.1-0.4-2.2-0.7-3.5-1.1C642.7,395.8,641.5,395.5,640.2,395.3z"/>
	</g>
	<g>
		<path d="M401.5,340.6c0.8-33.1,4.3-147.9,4.6-147.9c3.7-0.9-0.8-7.1,59.3-9.8c0,0,3.2,0.1,4.8,0.3c1.6,0,3.2,0,4.8,0
			c1.6,0,3.1,0.1,4.5,0.3c1.6,0,3.1,0.1,4.5,0.3c1.4,0.2,2.8,0.3,4.2,0.3c1.2,0.2,2.5,0.4,3.9,0.6c1.2,0.2,2.3,0.4,3.3,0.6
			c1.2,0.2,2.3,0.5,3.3,0.9c0.8,0.2,1.6,0.5,2.4,0.9c0.8,0.2,1.5,0.5,2.1,0.9c0.4,0.2,0.8,0.5,1.2,0.9l0.3,0.3
			c0.2,0.2,0.3,0.4,0.3,0.6c0.2,0.4,0.3,0.7,0.3,0.9c0.2,0.4,0.3,0.8,0.3,1.2c0.2,0.4,0.3,0.8,0.3,1.2c0.2,0.4,0.3,0.9,0.3,1.5
			c0.2,0.4,0.3,0.9,0.3,1.5c0.2,0.6,0.3,1.2,0.3,1.8c0.2,0.6,0.3,1.3,0.3,2.1c0.2,0.6,0.4,1.3,0.6,2.1c0,0.8,0.1,1.6,0.3,2.4
			c0,0.8,0.1,1.7,0.3,2.7c0.2,0.8,0.3,1.7,0.3,2.7c0.2,0.8,0.3,1.7,0.3,2.7c0.2,1,0.4,2,0.6,3c0,1.2,0.1,2.3,0.3,3.3
			c0.2,1.2,0.3,2.3,0.3,3.3c0.2,1.2,0.4,2.4,0.6,3.6c0,1.2,0.1,2.4,0.3,3.6c0.2,1.2,0.3,2.5,0.3,3.9c0.2,1.2,0.4,2.5,0.6,3.9
			c0.2,1.2,0.3,2.5,0.3,3.9c0.2,1.4,0.4,2.8,0.6,4.2c0,1.4,0.1,2.8,0.3,4.2c0.2,1.4,0.4,2.8,0.6,4.2c0,1.6,0.1,3.1,0.3,4.5
			c0.2,1.6,0.3,3.2,0.3,4.8c0.2,1.4,0.4,2.9,0.6,4.5c0.2,1.6,0.3,3.2,0.3,4.8c0.2,1.6,0.4,3.2,0.6,4.8c0.2,1.6,0.3,3.2,0.3,4.8
			c0.2,1.8,0.4,3.5,0.6,5.1c0.2,1.6,0.3,3.3,0.3,5.1c0.2,1.6,0.4,3.3,0.6,5.1c0,1.6,0.1,3.3,0.3,5.1c0.2,1.8,0.4,3.6,0.6,5.4
			c0,1.6,0.1,3.3,0.3,5.1c0.2,1.8,0.4,3.6,0.6,5.4c0,1.8,0.1,3.6,0.3,5.4c0.2,1.8,0.4,3.6,0.6,5.4c0,1.8,0.1,3.6,0.3,5.4
			c0.2,1.8,0.3,3.6,0.3,5.4c0.2,1.8,0.4,3.6,0.6,5.4c0.2,1.8,0.3,3.7,0.3,5.7c0.2,1.8,0.4,3.6,0.6,5.4c0,1.8,0.1,3.6,0.3,5.4
			c0.2,1.8,0.3,3.7,0.3,5.7c0.2,1.8,0.4,3.6,0.6,5.4c0,1.8,0.1,3.6,0.3,5.4c0.2,1.8,0.3,3.6,0.3,5.4c0.2,1.8,0.4,3.7,0.6,5.7
			c0,1.8,0.1,3.6,0.3,5.4c0,1.8,0.1,3.6,0.3,5.4c0.2,1.6,0.3,3.3,0.3,5.1c0.2,1.8,0.3,3.6,0.3,5.4c0.2,1.8,0.4,3.6,0.6,5.4
			c0,1.6,0.1,3.3,0.3,5.1c0,1.8,0.1,3.5,0.3,5.1c0,1.8,0.1,3.5,0.3,5.1c0,1.8,0.1,3.5,0.3,5.1c0,1.6,0.1,3.3,0.3,5.1
			c0,1.6,0.1,3.2,0.3,4.8c0,1.6,0.1,3.2,0.3,4.8c0,1.6,0.1,3.2,0.3,4.8c0,1.6,0.1,3.1,0.3,4.5c0,1.6,0,3.2,0,4.8
			c0.2,1.4,0.3,2.8,0.3,4.2c0.2,1.6,0.3,3.1,0.3,4.5c0,1.4,0.1,2.8,0.3,4.2c0,1.4,0,2.8,0,4.2c0.2,1.2,0.3,2.5,0.3,3.9
			c0,1.4,0,2.7,0,3.9c0.2,1.2,0.3,2.4,0.3,3.6c0,1.4,0,2.7,0,3.9c0.2,1,0.3,2.1,0.3,3.3s0,2.3,0,3.3c0,1,0.1,2.1,0.3,3.3
			c0,1,0,2,0,3c0,1,0,1.9,0,2.7c0,1,0,1.9,0,2.7c0,1,0,1.9,0,2.7c0,0.8,0,1.6,0,2.4c0,0.6,0,1.3,0,2.1c0,0.6,0,1.3,0,2.1
			c0,0.6,0,1.2,0,1.8c0,0.4,0,0.9,0,1.5c0,0.4-0.1,0.9-0.3,1.5c0,0.4,0,0.8,0,1.2c0,0.2,0,0.5,0,0.9c0,0.2-0.1,0.5-0.3,0.9
			c0,0.2,0,0.4,0,0.6c-0.2,0-0.3,0.1-0.3,0.3c-0.2,0.2-0.5,0.4-0.9,0.6c-0.6,0.2-1.2,0.4-1.8,0.6c-0.6,0.4-1.3,0.7-2.1,0.9
			c-0.8,0.2-1.7,0.4-2.7,0.6c-1,0.2-2,0.4-3,0.6c-1.2,0.2-2.5,0.4-3.9,0.6c-1.2,0-2.5,0.1-3.9,0.3c-1.4,0.2-2.8,0.4-4.2,0.6
			c-1.6,0.2-3.2,0.3-4.8,0.3c-1.6,0.2-3.2,0.4-4.8,0.6c-1.8,0-3.5,0.1-5.1,0.3c-1.8,0-3.6,0.1-5.4,0.3c-1.6,0-3.3,0-5.1,0
			c-1.8,0.2-3.6,0.3-5.4,0.3c-1.8,0-3.6,0-5.4,0c-1.8,0.2-3.6,0.3-5.4,0.3c-1.8,0-56.4,0.1-58.7-5.5c-2.3-5.5-5.4-119.7-5.4-119.7
			c-0.7-2.2-2.9-2-3.3-0.1c0,0,0.3,116.2-2,119.3c-2.4,3-55.5,4.5-57.1,4.5c-1.8,0.2-3.6,0.3-5.4,0.3c-1.6,0-3.3,0-5.1,0
			c-1.8,0-3.6,0-5.4,0c-1.8,0-3.6-0.1-5.4-0.3c-1.8,0-3.6,0-5.4,0c-1.8,0-3.5-0.1-5.1-0.3c-1.8,0-3.5,0-5.1,0
			c-1.8-0.2-3.5-0.3-5.1-0.3c-1.6-0.2-3.1-0.3-4.5-0.3c-1.6-0.2-3.1-0.4-4.5-0.6c-1.4,0-2.8-0.1-4.2-0.3c-1.2-0.2-2.4-0.4-3.6-0.6
			c-1-0.2-2.1-0.4-3.3-0.6c-0.8,0-1.7-0.2-2.7-0.6c-0.8,0-1.5-0.2-2.1-0.6c-0.6-0.2-1.2-0.4-1.8-0.6c-0.4-0.2-0.8-0.4-1.2-0.6v-0.3
			c-0.2-0.2-0.3-0.4-0.3-0.6c0-0.4-0.1-0.7-0.3-0.9c0-0.4,0-0.7,0-0.9c0-0.4-0.1-0.8-0.3-1.2c0-0.6,0-1.1,0-1.5
			c0-0.6-0.1-1.1-0.3-1.5c0-0.6,0-1.2,0-1.8c0-0.8,0-1.5,0-2.1c0-0.8-0.1-1.5-0.3-2.1c0-0.8,0-1.6,0-2.4c0-0.8,0-1.6,0-2.4
			c0-1,0-1.9,0-2.7c0-1,0-2,0-3c0-1,0-2,0-3c0-1,0-2.1,0-3.3c0-1,0-2.1,0-3.3c0-1,0-2.1,0-3.3c0-1.2,0-2.4,0-3.6c0-1.2,0-2.5,0-3.9
			c0-1.2,0-2.4,0-3.6c0-1.4,0.1-2.8,0.3-4.2c0-1.4,0-2.7,0-3.9c0-1.4,0-2.9,0-4.5c0-1.4,0.1-2.8,0.3-4.2c0-1.4,0-2.9,0-4.5
			c0-1.4,0-2.9,0-4.5c0.2-1.6,0.3-3.1,0.3-4.5c0-1.6,0-3.2,0-4.8c0.2-1.6,0.3-3.2,0.3-4.8c0-1.6,0-3.2,0-4.8
			c0.2-1.8,0.3-3.5,0.3-5.1c0-1.6,0.1-3.3,0.3-5.1c0-1.6,0-3.3,0-5.1c0.2-1.6,0.3-3.3,0.3-5.1c0-1.6,0.1-3.3,0.3-5.1
			c0-1.8,0-3.6,0-5.4c0.2-1.6,0.3-3.3,0.3-5.1c0-1.8,0.1-3.6,0.3-5.4c0-1.8,0.1-3.6,0.3-5.4c0-1.8,0.1-3.6,0.3-5.4
			c0-1.8,0-3.6,0-5.4c0.2-1.8,0.3-3.6,0.3-5.4c0.2-1.8,0.3-3.7,0.3-5.7c0.2-1.8,0.3-3.6,0.3-5.4c0.2-1.8,0.3-3.6,0.3-5.4
			c0.2-1.8,0.3-3.6,0.3-5.4c0.2-2,0.3-3.9,0.3-5.7c0.2-1.8,0.3-3.6,0.3-5.4c0.2-1.8,0.3-3.6,0.3-5.4c0.2-1.8,0.3-3.6,0.3-5.4
			c0.2-1.8,0.3-3.6,0.3-5.4c0.2-1.8,0.3-3.6,0.3-5.4c0.2-1.8,0.4-3.6,0.6-5.4c0-1.8,0.1-3.6,0.3-5.4c0-1.6,0.1-3.3,0.3-5.1
			c0-1.8,0.1-3.6,0.3-5.4c0.2-1.6,0.3-3.3,0.3-5.1c0.2-1.6,0.3-3.3,0.3-5.1c0.2-1.6,0.3-3.3,0.3-5.1c0.2-1.6,0.4-3.2,0.6-4.8
			c0-1.6,0.1-3.3,0.3-5.1c0.2-1.6,0.3-3.2,0.3-4.8c0.2-1.4,0.3-2.9,0.3-4.5c0.2-1.6,0.4-3.2,0.6-4.8c0-1.4,0.1-2.9,0.3-4.5
			c0-1.4,0.1-2.9,0.3-4.5c0.2-1.4,0.3-2.8,0.3-4.2c0.2-1.4,0.4-2.8,0.6-4.2c0-1.4,0.1-2.8,0.3-4.2c0.2-1.4,0.3-2.8,0.3-4.2
			c0.2-1.2,0.4-2.4,0.6-3.6c0-1.4,0.1-2.7,0.3-3.9c0-1.2,0.1-2.4,0.3-3.6c0.2-1.2,0.3-2.4,0.3-3.6c0.2-1,0.4-2.1,0.6-3.3
			c0-1,0.1-2,0.3-3c0.2-1.2,0.3-2.3,0.3-3.3c0.2-0.8,0.4-1.7,0.6-2.7c0-1,0.1-1.9,0.3-2.7c0.2-0.8,0.3-1.7,0.3-2.7
			c0.2-0.8,0.3-1.6,0.3-2.4c0.2-0.6,0.4-1.3,0.6-2.1c0-0.6,0.1-1.3,0.3-2.1c0.2-0.6,0.3-1.2,0.3-1.8c0.2-0.4,0.4-0.9,0.6-1.5
			c0-0.6,0.1-1.1,0.3-1.5c0-0.4,0.1-0.8,0.3-1.2c0.2-0.4,0.3-0.8,0.3-1.2c0.2-0.2,0.4-0.4,0.6-0.6c0-0.2,0.1-0.4,0.3-0.6
			c0-0.2,0.1-0.3,0.3-0.3c0.6-0.4,1.2-0.8,1.8-1.2c0.8-0.2,1.6-0.5,2.4-0.9c1-0.2,1.9-0.4,2.7-0.6c1.2-0.4,2.3-0.7,3.3-0.9
			c1.4-0.2,2.7-0.4,3.9-0.6c1.4,0,2.7-0.1,3.9-0.3c1.6-0.2,3.1-0.4,4.5-0.6c1.6,0,3.1-0.1,4.5-0.3c1.6,0,3.2,0,4.8,0
			c1.8-0.2,3.5-0.3,5.1-0.3c1.6,0,3.2,0,4.8,0c1.8,0,3.5,0,5.1,0c54-1.5,56,8.1,56,8.1s4.1,114.8,5.5,148.1
			C398.4,343.4,401.5,343.7,401.5,340.6z"/>
		<path fill="#FFFFFF" d="M403.8,357.1c1.5-0.2,3-0.3,4.6-0.5c1.3-0.3,2.6-0.5,3.8-0.5c1,0,1.6-0.1,1.8-0.3c0.2-1.5,0.2-3.1,0-4.8
			c-0.3-1.7-0.4-3.3-0.3-4.8c0-1.7,0-3.3,0-4.8c0-1.7,0-3.3,0-4.8c0.2-1.5,0.3-3.1,0.3-4.8c0-1.5,0-3,0-4.6c0-1.5,0-3,0-4.6
			c0-1.7,0-3.3,0-4.8s0-3,0-4.6c0-1.5,0-3,0-4.3c0-1.5,0-3,0-4.6s0.1-3,0.3-4.3c0-1.5,0-3,0-4.3c0-1.5,0-3,0-4.3c0-1.3,0-2.8,0-4.3
			c0.2-1.3,0.3-2.7,0.3-4.1c0-1.3,0-2.6,0-3.8c0-1.3,0.1-2.7,0.3-4.1c0-1.2,0-2.4,0-3.8c0-1.2,0.1-2.4,0.3-3.8c0-1.2,0-2.4,0-3.5
			c0-1.2,0.1-2.4,0.3-3.5c0-1,0-2.1,0-3.3c0-1,0.1-2.1,0.3-3.3c0-1,0-2,0-3c0.2-1,0.3-2,0.3-3c0-1,0.1-2,0.3-3c0-0.8,0-1.7,0-2.5
			c0.2-1,0.3-1.9,0.3-2.8c0.2-0.8,0.3-1.6,0.3-2.3c0-0.8,0.1-1.6,0.3-2.3c0-0.8,0.1-1.6,0.3-2.3c0-0.7,0.1-1.3,0.3-2
			c0-0.5,0.1-1.1,0.3-1.8c0-0.5,0.1-1.1,0.3-1.8c0-0.3,0.1-0.8,0.3-1.3c0-0.5,0.1-0.9,0.3-1.3c0-0.5,0.1-0.9,0.3-1.3
			c0-0.3,0.1-0.6,0.3-0.8c0-0.3,0.1-0.6,0.3-0.8c0-0.2,0.1-0.3,0.3-0.5c0.2-0.2,0.3-0.3,0.3-0.5c0.5-0.3,1.1-0.6,1.8-0.8
			c0.5-0.3,1.2-0.6,2-0.8c0.7-0.3,1.4-0.6,2.3-0.8c1-0.2,1.9-0.4,2.8-0.8c1.2-0.2,2.3-0.3,3.3-0.5c1.2-0.2,2.4-0.3,3.5-0.5
			c1.2,0,2.4-0.1,3.5-0.3c1.3-0.2,2.7-0.3,4.1-0.3c1.2-0.2,2.4-0.3,3.8-0.3c1.3,0,2.7,0,4.1,0c1.5-0.2,2.9-0.3,4.3-0.3
			c1.3,0,2.7,0.1,4.1,0.3c1.3,0,2.7,0,4,0c1.3,0,2.6,0.1,3.8,0.3c1.3,0,2.6,0.1,3.8,0.3c1.2,0.2,2.4,0.3,3.5,0.3
			c1,0.2,2.1,0.3,3.3,0.5c1,0.2,1.9,0.3,2.8,0.5c1,0.2,1.9,0.4,2.8,0.8c0.7,0.2,1.3,0.4,2,0.8c0.7,0.2,1.3,0.4,1.8,0.8
			c0.3,0.2,0.7,0.4,1,0.8l0.3,0.3c0.2,0.2,0.3,0.3,0.3,0.5c0.2,0.3,0.3,0.6,0.3,0.8c0.2,0.3,0.3,0.7,0.3,1c0.2,0.3,0.3,0.7,0.3,1
			c0.2,0.3,0.3,0.8,0.3,1.3c0.2,0.3,0.3,0.8,0.3,1.3c0.2,0.5,0.3,1,0.3,1.5c0.2,0.5,0.3,1.1,0.3,1.8c0.2,0.5,0.3,1.1,0.5,1.8
			c0,0.7,0.1,1.4,0.3,2c0,0.7,0.1,1.4,0.3,2.3c0.2,0.7,0.3,1.4,0.3,2.3c0.2,0.7,0.3,1.4,0.3,2.3c0.2,0.8,0.3,1.7,0.5,2.5
			c0,1,0.1,1.9,0.3,2.8c0.2,1,0.3,1.9,0.3,2.8c0.2,1,0.3,2,0.5,3c0,1,0.1,2,0.3,3c0.2,1,0.3,2.1,0.3,3.3c0.2,1,0.3,2.1,0.5,3.3
			c0.2,1,0.3,2.1,0.3,3.3c0.2,1.2,0.3,2.4,0.5,3.5c0,1.2,0.1,2.4,0.3,3.5c0.2,1.2,0.3,2.4,0.5,3.5c0,1.4,0.1,2.6,0.3,3.8
			c0.2,1.4,0.3,2.7,0.3,4c0.2,1.2,0.3,2.5,0.5,3.8c0.2,1.4,0.3,2.7,0.3,4c0.2,1.4,0.3,2.7,0.5,4.1c0.2,1.4,0.3,2.7,0.3,4
			c0.2,1.5,0.3,3,0.5,4.3c0.2,1.4,0.3,2.8,0.3,4.3c0.2,1.4,0.3,2.8,0.5,4.3c0,1.4,0.1,2.8,0.3,4.3c0.2,1.5,0.3,3,0.5,4.6
			c0,1.4,0.1,2.8,0.3,4.3c0.2,1.5,0.3,3,0.5,4.6c0,1.5,0.1,3,0.3,4.6c0.2,1.5,0.3,3,0.5,4.6c0,1.5,0.1,3,0.3,4.6
			c0.2,1.5,0.3,3,0.3,4.6c0.2,1.5,0.3,3,0.5,4.6c0.2,1.5,0.3,3.1,0.3,4.8c0.2,1.5,0.3,3,0.5,4.6c0,1.5,0.1,3,0.3,4.6
			c0.2,1.5,0.3,3.1,0.3,4.8c0.2,1.5,0.3,3,0.5,4.6c0,1.5,0.1,3,0.3,4.6c0.2,1.5,0.3,3,0.3,4.6c0.2,1.5,0.3,3.1,0.5,4.8
			c0,1.5,0.1,3,0.3,4.6c0,1.5,0.1,3,0.3,4.6c0.2,1.4,0.3,2.8,0.3,4.3c0.2,1.5,0.3,3,0.3,4.6c0.2,1.5,0.3,3,0.5,4.6
			c0,1.4,0.1,2.8,0.3,4.3c0,1.5,0.1,3,0.3,4.3c0,1.5,0.1,3,0.3,4.3c0,1.5,0.1,3,0.3,4.3c0,1.4,0.1,2.8,0.3,4.3c0,1.4,0.1,2.7,0.3,4
			c0,1.4,0.1,2.7,0.3,4.1c0,1.4,0.1,2.7,0.3,4c0,1.4,0.1,2.6,0.3,3.8c0,1.4,0,2.7,0,4c0.2,1.2,0.3,2.4,0.3,3.5
			c0.2,1.4,0.3,2.6,0.3,3.8c0,1.2,0.1,2.4,0.3,3.5c0,1.2,0,2.4,0,3.5c0.2,1,0.3,2.1,0.3,3.3c0,1.2,0,2.3,0,3.3c0.2,1,0.3,2,0.3,3
			c0,1.2,0,2.3,0,3.3c0.2,0.8,0.3,1.8,0.3,2.8c0,1,0,1.9,0,2.8c0,0.8,0.1,1.8,0.3,2.8c0,0.8,0,1.7,0,2.5c0,0.8,0,1.6,0,2.3
			c0,0.8,0,1.6,0,2.3c0,0.8,0,1.6,0,2.3c0,0.7,0,1.4,0,2c0,0.5,0,1.1,0,1.8c0,0.5,0,1.1,0,1.8c0,0.5,0,1,0,1.5c0,0.3,0,0.8,0,1.3
			c0,0.3-0.1,0.8-0.3,1.3c0,0.3,0,0.7,0,1c0,0.2,0,0.4,0,0.8c0,0.2-0.1,0.4-0.3,0.8c0,0.2,0,0.3,0,0.5c-0.2,0-0.3,0.1-0.3,0.3
			c-0.2,0.2-0.4,0.3-0.8,0.5c-0.5,0.2-1,0.3-1.5,0.5c-0.5,0.3-1.1,0.6-1.8,0.8c-0.7,0.2-1.4,0.3-2.3,0.5c-0.8,0.2-1.7,0.3-2.5,0.5
			c-1,0.2-2.1,0.3-3.3,0.5c-1,0-2.1,0.1-3.3,0.3c-1.2,0.2-2.4,0.3-3.5,0.5c-1.4,0.2-2.7,0.3-4.1,0.3c-1.4,0.2-2.7,0.3-4.1,0.5
			c-1.5,0-3,0.1-4.3,0.3c-1.5,0-3,0.1-4.6,0.3c-1.3,0-2.8,0-4.3,0c-1.5,0.2-3,0.3-4.6,0.3c-1.5,0-3,0-4.6,0c-1.5,0.2-3,0.3-4.6,0.3
			s-3,0-4.3,0c-1.5,0-3,0-4.3,0c-1.5,0-3-0.1-4.3-0.3c-1.4,0-2.6,0-3.8,0c-1.4,0-2.6-0.1-3.8-0.3c-1.2,0-2.4-0.1-3.5-0.3
			c-1,0-2-0.1-3-0.3c-0.8-0.2-1.8-0.3-2.8-0.3c-0.7-0.2-1.4-0.3-2.3-0.5c-0.7-0.2-1.3-0.3-1.8-0.5c-0.5-0.2-1-0.3-1.5-0.5
			c-0.3-0.2-0.7-0.3-1-0.5c0-0.2,0-0.3,0-0.5c-0.2-0.3-0.3-0.7-0.3-1c-0.2-0.5-0.3-1-0.3-1.5c-0.2-0.5-0.3-1.1-0.3-1.8
			c0-0.7-0.1-1.4-0.3-2.3c0-0.8-0.1-1.7-0.3-2.5c0-1,0-2,0-3c-0.2-1-0.3-2.1-0.3-3.3c-0.2-1.2-0.3-2.4-0.3-3.5
			c-0.2-1.2-0.3-2.4-0.3-3.8c0-1.3-0.1-2.7-0.3-4.1c0-1.3-0.1-2.8-0.3-4.3c0-1.3,0-2.8,0-4.3c-0.2-1.5-0.3-3-0.3-4.6
			c-0.2-1.5-0.3-3-0.3-4.6c0-1.5-0.1-3-0.3-4.6c0-1.7,0-3.3,0-4.8c-0.2-1.5-0.3-3.1-0.3-4.8c0-1.5-0.1-3-0.3-4.6c0-1.5,0-3.1,0-4.8
			c-0.2-1.5-0.3-3-0.3-4.6c0-1.3-0.1-2.8-0.3-4.3c0-1.5,0-3,0-4.3c0-1.5-0.1-3-0.3-4.3c0-1.2,0-2.4,0-3.8c0-1.3-0.1-2.6-0.3-3.8
			c0-1.2,0-2.4,0-3.5c0-1,0-2,0-3c-0.2-1-0.3-1.9-0.3-2.8c0-0.8,0-1.7,0-2.5c0-0.7,0-1.3,0-2c0-0.7-0.1-1.3-0.3-1.8
			c0.2-0.3,0.2-0.8,0-1.3c0-0.2,0-0.4,0-0.8v-0.3c-0.7-0.2-1.3-0.3-1.8-0.3c-1.5-0.2-3-0.4-4.6-0.8c-1.9-0.2-3.6-0.3-5.3-0.5
			c-1.4-0.2-2.6-0.3-3.8-0.3c-1.7,0.2-3.4,0.3-5.1,0.5c-1.5,0.2-3,0.3-4.6,0.5c-1,0.3-2.1,0.5-3.3,0.5c-0.8,0-1.3,0.1-1.3,0.3
			c-0.2,1.7-0.2,3.4,0,5.1c0.2,1.7,0.2,3.4,0,5.1c0,1.7,0,3.4,0,5.1c0,1.5,0,3.1,0,4.8c-0.2,1.5-0.3,3.1-0.3,4.8c0,1.5,0,3.1,0,4.8
			c0,1.5,0,3,0,4.6c0,1.5,0,3.1,0,4.8c-0.2,1.5-0.3,3-0.3,4.3c0,1.5,0,3,0,4.6c0,1.4,0,2.8,0,4.3c-0.2,1.4-0.3,2.8-0.3,4.3
			c0,1.4,0,2.7,0,4c0,1.4,0,2.7,0,4.1c-0.2,1.2-0.3,2.4-0.3,3.8c0,1.2,0,2.5,0,3.8c-0.2,1.2-0.3,2.4-0.3,3.5c0,1.2,0,2.3,0,3.3
			c0,1.2-0.1,2.3-0.3,3.3c0,1.2,0,2.3,0,3.3c0,1-0.1,2-0.3,3c0,0.8,0,1.8,0,2.8c0,0.8-0.1,1.7-0.3,2.5c0,0.8,0,1.7,0,2.5
			c-0.2,0.7-0.3,1.4-0.3,2.3c0,0.7-0.1,1.4-0.3,2c0,0.7,0,1.4,0,2c0,0.5-0.1,1-0.3,1.5c0,0.5,0,1,0,1.5c-0.2,0.5-0.3,0.9-0.3,1.3
			s-0.1,0.7-0.3,1c0,0.3,0,0.6,0,0.8c-0.2,0.3-0.3,0.6-0.3,0.8l-0.3,0.3c-0.2,0.2-0.4,0.3-0.8,0.5c-0.5,0.3-1,0.6-1.5,0.8
			c-0.5,0.2-1.1,0.3-1.8,0.5c-0.7,0.2-1.4,0.3-2.3,0.3c-0.8,0.2-1.7,0.3-2.5,0.5c-1,0.2-2.1,0.3-3.3,0.3c-1,0.2-2.1,0.3-3.3,0.5
			c-1.2,0-2.4,0.1-3.5,0.3c-1.4,0-2.7,0-4.1,0c-1.4,0.2-2.7,0.3-4.1,0.3c-1.5,0-3,0-4.3,0c-1.5,0.2-3,0.3-4.6,0.3
			c-1.4,0-2.8,0-4.3,0c-1.5,0-3,0-4.6,0c-1.5,0-3-0.1-4.6-0.3c-1.5,0-3,0-4.6,0c-1.5,0-3-0.1-4.3-0.3c-1.5,0-3,0-4.3,0
			c-1.5-0.2-3-0.3-4.3-0.3c-1.4-0.2-2.6-0.3-3.8-0.3c-1.4-0.2-2.6-0.3-3.8-0.5c-1.2,0-2.4-0.1-3.5-0.3c-1-0.2-2-0.3-3-0.5
			c-0.8-0.2-1.8-0.3-2.8-0.5c-0.7,0-1.4-0.2-2.3-0.5c-0.7,0-1.3-0.2-1.8-0.5c-0.5-0.2-1-0.3-1.5-0.5c-0.3-0.2-0.7-0.3-1-0.5v-0.3
			c-0.2-0.2-0.3-0.3-0.3-0.5c0-0.3-0.1-0.6-0.3-0.8c0-0.3,0-0.6,0-0.8c0-0.3-0.1-0.7-0.3-1c0-0.5,0-0.9,0-1.3c0-0.5-0.1-0.9-0.3-1.3
			c0-0.5,0-1,0-1.5c0-0.7,0-1.3,0-1.8c0-0.7-0.1-1.3-0.3-1.8c0-0.7,0-1.3,0-2c0-0.7,0-1.3,0-2c0-0.8,0-1.6,0-2.3c0-0.8,0-1.7,0-2.5
			c0-0.8,0-1.7,0-2.5c0-0.8,0-1.8,0-2.8c0-0.8,0-1.8,0-2.8c0-0.8,0-1.8,0-2.8c0-1,0-2,0-3c0-1,0-2.1,0-3.3c0-1,0-2,0-3
			c0-1.2,0.1-2.4,0.3-3.5c0-1.2,0-2.3,0-3.3c0-1.2,0-2.4,0-3.8c0-1.2,0.1-2.4,0.3-3.5c0-1.2,0-2.4,0-3.8c0-1.2,0-2.4,0-3.8
			c0.2-1.3,0.3-2.6,0.3-3.8c0-1.3,0-2.7,0-4c0.2-1.3,0.3-2.7,0.3-4.1c0-1.3,0-2.7,0-4c0.2-1.5,0.3-3,0.3-4.3c0-1.3,0.1-2.8,0.3-4.3
			c0-1.3,0-2.8,0-4.3c0.2-1.3,0.3-2.8,0.3-4.3c0-1.3,0.1-2.8,0.3-4.3c0-1.5,0-3,0-4.6c0.2-1.3,0.3-2.8,0.3-4.3c0-1.5,0.1-3,0.3-4.6
			c0-1.5,0.1-3,0.3-4.6c0-1.5,0.1-3,0.3-4.6c0-1.5,0-3,0-4.6c0.2-1.5,0.3-3,0.3-4.6c0.2-1.5,0.3-3.1,0.3-4.8c0.2-1.5,0.3-3,0.3-4.6
			c0.2-1.5,0.3-3,0.3-4.6c0.2-1.5,0.3-3,0.3-4.6c0.2-1.7,0.3-3.3,0.3-4.8c0.2-1.5,0.3-3,0.3-4.6c0.2-1.5,0.3-3,0.3-4.6
			c0.2-1.5,0.3-3,0.3-4.6c0.2-1.5,0.3-3,0.3-4.6c0.2-1.5,0.3-3,0.3-4.6c0.2-1.5,0.3-3,0.5-4.6c0-1.5,0.1-3,0.3-4.6
			c0-1.3,0.1-2.8,0.3-4.3c0-1.5,0.1-3,0.3-4.6c0.2-1.3,0.3-2.8,0.3-4.3c0.2-1.3,0.3-2.8,0.3-4.3c0.2-1.3,0.3-2.8,0.3-4.3
			c0.2-1.3,0.3-2.7,0.5-4.1c0-1.3,0.1-2.8,0.3-4.3c0.2-1.3,0.3-2.7,0.3-4.1c0.2-1.2,0.3-2.4,0.3-3.8c0.2-1.3,0.3-2.7,0.5-4.1
			c0-1.2,0.1-2.4,0.3-3.8c0-1.2,0.1-2.4,0.3-3.8c0.2-1.2,0.3-2.4,0.3-3.5c0.2-1.2,0.3-2.4,0.5-3.5c0-1.2,0.1-2.4,0.3-3.5
			c0.2-1.2,0.3-2.4,0.3-3.5c0.2-1,0.3-2,0.5-3c0-1.2,0.1-2.3,0.3-3.3c0-1,0.1-2,0.3-3c0.2-1,0.3-2,0.3-3c0.2-0.8,0.3-1.8,0.5-2.8
			c0-0.8,0.1-1.7,0.3-2.5c0.2-1,0.3-1.9,0.3-2.8c0.2-0.7,0.3-1.4,0.5-2.3c0-0.8,0.1-1.6,0.3-2.3c0.2-0.7,0.3-1.4,0.3-2.3
			c0.2-0.7,0.3-1.3,0.3-2c0.2-0.5,0.3-1.1,0.5-1.8c0-0.5,0.1-1.1,0.3-1.8c0.2-0.5,0.3-1,0.3-1.5c0.2-0.3,0.3-0.8,0.5-1.3
			c0-0.5,0.1-0.9,0.3-1.3c0-0.3,0.1-0.7,0.3-1c0.2-0.3,0.3-0.7,0.3-1c0.2-0.2,0.3-0.3,0.5-0.5c0-0.2,0.1-0.3,0.3-0.5
			c0-0.2,0.1-0.3,0.3-0.3c0.5-0.3,1-0.7,1.5-1c0.7-0.2,1.3-0.4,2-0.8c0.8-0.2,1.6-0.3,2.3-0.5c1-0.3,1.9-0.6,2.8-0.8
			c1.2-0.2,2.3-0.3,3.3-0.5c1.2,0,2.3-0.1,3.3-0.3c1.4-0.2,2.6-0.3,3.8-0.5c1.3,0,2.6-0.1,3.8-0.3c1.3,0,2.7,0,4.1,0
			c1.5-0.2,2.9-0.3,4.3-0.3c1.3,0,2.7,0,4.1,0c1.5,0,2.9,0,4.3,0c1.3,0.2,2.7,0.3,4.1,0.3c1.5,0,2.9,0.1,4.3,0.3
			c1.2,0,2.4,0.1,3.8,0.3c1.3,0.2,2.6,0.3,3.8,0.3c1.2,0.2,2.4,0.3,3.5,0.5c1,0.2,2.1,0.3,3.3,0.5c1,0.2,1.9,0.3,2.8,0.5
			c0.8,0.2,1.7,0.4,2.5,0.8c0.8,0.2,1.6,0.3,2.3,0.5c0.5,0.3,1,0.7,1.5,1c0.5,0.2,0.9,0.4,1.3,0.8c0,0.2,0.1,0.3,0.3,0.5
			c0,0.2,0,0.4,0,0.8c0.2,0.3,0.3,0.8,0.3,1.3c0.2,0.5,0.3,1,0.3,1.5c0.2,0.7,0.3,1.4,0.3,2c0,0.8,0.1,1.6,0.3,2.3
			c0,0.8,0,1.7,0,2.5c0.2,1,0.3,2,0.3,3s0.1,2,0.3,3c0,1.2,0.1,2.4,0.3,3.5c0,1.2,0,2.4,0,3.5c0.2,1.4,0.3,2.6,0.3,3.8
			c0,1.4,0,2.7,0,4.1c0.2,1.4,0.3,2.7,0.3,4c0,1.5,0.1,3,0.3,4.3c0,1.5,0,3,0,4.6c0,1.5,0.1,3,0.3,4.6c0,1.5,0,3,0,4.6
			c0.2,1.5,0.3,3.1,0.3,4.8c0,1.5,0,3,0,4.6c0.2,1.5,0.3,3.1,0.3,4.8c0,1.5,0,3,0,4.6c0,1.7,0.1,3.3,0.3,4.8c0,1.5,0,3,0,4.6
			c0,1.5,0,3,0,4.6c0.2,1.5,0.3,3,0.3,4.6c0,1.5,0,3,0,4.3c0,1.5,0,3,0,4.3c0.2,1.4,0.3,2.7,0.3,4c0,1.4,0,2.7,0,4.1
			c0,1.2,0,2.4,0,3.5c0,1.2,0,2.4,0,3.5c0.2,1.2,0.3,2.3,0.3,3.3s0,2,0,3c0,1,0,1.9,0,2.8c0,0.8,0,1.7,0,2.5c0,0.7,0,1.4,0,2
			c0,0.7,0,1.3,0,1.8c0,0.5,0,1,0,1.5c0,0.3,0.1,0.7,0.3,1c0,0.2,0,0.3,0,0.5c-0.2,0.2-0.2,0.3,0,0.3c0.3,0.2,0.8,0.3,1.3,0.3
			c1.3,0,2.6,0.1,3.8,0.3c1.7,0,3.3,0.1,4.8,0.3c1.7,0.2,3.4,0.3,5.1,0.3C401.1,357.2,402.4,357.1,403.8,357.1z"/>
	</g>
</g>
</svg>
