<?xml version="1.0" encoding="utf-8"?>
<!-- Generator: Adobe Illustrator 18.0.0, SVG Export Plug-In . SVG Version: 6.00 Build 0)  -->
<!DOCTYPE svg PUBLIC "-//W3C//DTD SVG 1.1//EN" "http://www.w3.org/Graphics/SVG/1.1/DTD/svg11.dtd">
<svg version="1.1" id="Camada_1" xmlns="http://www.w3.org/2000/svg" xmlns:xlink="http://www.w3.org/1999/xlink" x="0px" y="0px"
	 viewBox="0 0 1024 768" enable-background="new 0 0 1024 768" xml:space="preserve">
<g>
	<defs>
		<circle id="SVGID_1_" cx="511.9" cy="383.4" r="375.7"/>
	</defs>
	<clipPath id="SVGID_2_">
		<use xlink:href="#SVGID_1_"  overflow="visible"/>
	</clipPath>
	<g clip-path="url(#SVGID_2_)" enable-background="new    ">
		
			<image overflow="visible" width="2474" height="2474" xlink:href="../../banco de imagens/botões/butt 25.png"  transform="matrix(0.3065 0 0 0.3065 132.8006 4.7999)">
		</image>
	</g>
</g>
<g>
	<g>
		<path fill="#010001" d="M274.7,206.6c0.7-0.6,1.6-1.1,2.5-1.5c1.2-0.4,2.4-0.9,3.6-1.5c1.2-0.4,2.5-0.8,4-1.2
			c1.5-0.4,3-0.8,4.7-1.2c1.7-0.2,3.3-0.5,4.7-0.9c1.9-0.2,3.7-0.5,5.4-0.9c1.9-0.2,3.9-0.4,5.8-0.6c1.9-0.2,3.8-0.4,5.8-0.6
			c1.9-0.2,3.9-0.4,5.8-0.6c1.9,0,3.9-0.1,5.8-0.3h5.8h5.4h18.1c1.7,0,3.4,0.1,5.1,0.3c1.7,0,3.3,0.1,4.7,0.3c1.4,0.2,2.8,0.4,4,0.6
			c1.2,0,2.4,0.2,3.6,0.6c1,0.2,1.9,0.4,2.9,0.6c0.7,0.2,1.4,0.5,2.2,0.9c0.5,0.2,1,0.5,1.5,0.9c0.5,0.2,0.8,0.5,1.1,0.9
			c0.5,0.4,0.9,0.9,1.1,1.5c0.5,0.6,0.8,1.1,1.1,1.5c0.5,0.6,0.8,1.3,1.1,2c0.2,0.6,0.5,1.3,0.7,2.1c0.2,0.8,0.5,1.5,0.7,2.1
			c0.2,1,0.5,1.9,0.7,2.7c0.2,1,0.5,1.9,0.7,2.6c0,1,0.1,2,0.4,2.9c0.2,1,0.4,2.1,0.4,3.2c0.2,1,0.4,2.1,0.4,3.2
			c0.2,1.2,0.4,2.3,0.4,3.2c0.2,1.2,0.4,2.5,0.4,3.8c0,1.2,0.1,2.4,0.4,3.5v4.1v3.8c0.2,1.4,0.4,2.7,0.4,4.1v4.4v4.4v4.4v4.4v4.7
			c0,1.6-3.1,1.7-2.1,0.3c0.7-1.5,1.6-3,2.5-4.4c0.7-1.4,1.4-2.9,2.2-4.4c0.7-1.4,1.4-2.8,2.2-4.1c0.7-1.4,1.5-2.8,2.2-4.4
			c0.7-1.4,1.5-2.8,2.2-4.1c0.5-1.4,1.1-2.7,1.8-4.1c0.5-1.2,1-2.4,1.5-3.8c0.7-1.4,1.3-2.7,1.8-3.8c0.5-1.4,1-2.7,1.4-3.8
			c0.5-1.2,1-2.4,1.4-3.5c0.5-1.2,1-2.3,1.4-3.5c0.2-1.2,0.6-2.3,1.1-3.5c0.5-1,0.8-2.1,1.1-3.2c0.5-1,0.8-2,1.1-2.9
			c0.2-1,0.6-1.9,1.1-2.6c0.2-1,0.5-1.9,0.7-2.7c0.2-1,0.6-1.9,1.1-2.6c0.2-0.6,0.5-1.3,0.7-2.1c0.2-0.6,0.5-1.3,0.7-2.1
			c0.2-0.6,0.7-1.8,0.7-1.8s0.5-0.9,0.7-1.5c0-0.4,0.1-0.8,0.4-1.2c0.2-0.2,0.5-0.5,0.7-0.9c0.2-0.2,0.4-0.4,0.4-0.6
			c0.2-0.2,0.5-0.3,0.7-0.3c0.7-0.2,2.5-0.3,2.5-0.3s2.3-0.3,3.3-0.3h3.6c0,0,17-1.5,42.3,0l4.7,0.6c1.7,0.2,3.4,0.4,5.1,0.6
			c1.7,0.2,3.5,0.5,5.4,0.9c1.7,0.2,3.5,0.5,5.4,0.9c1.9,0.4,3.9,0.7,5.8,0.9c1.9,0.4,3.9,0.9,5.8,1.5c1.9,0.4,3.8,0.8,5.8,1.2
			c1.9,0.4,3.9,0.9,5.8,1.5c1.9,0.4,3.9,0.9,5.8,1.5c1.9,0.4,3.7,0.9,5.4,1.5c1.9,0.6,3.7,1.1,5.4,1.5c1.7,0.6,3.4,1.2,5.1,1.8
			c1.7,0.6,3.4,1.1,5.1,1.5c1.4,0.6,2.9,1.2,4.3,1.8c1.2,0.4,2.4,0.9,3.6,1.5c1.2,0.6,2.4,1.2,3.6,1.8c1,0.4,1.8,0.9,2.5,1.5
			c0.7,0.4,1.4,0.9,2.2,1.5c0.5,0.4,1,0.8,1.5,1.2c0.2,0.4,0.4,0.9,0.4,1.5v0.6v1.2c0,0.4-0.1,0.8-0.4,1.2c0,0.4-0.1,0.8-0.4,1.2
			c0,0.6-0.1,1.2-0.4,1.8c-0.2,0.6-0.4,1.2-0.4,1.8c-0.2,0.6-0.5,1.2-0.7,1.8c-0.2,0.8-0.6,1.5-1.1,2.1c-0.2,0.8-0.5,1.6-0.7,2.3
			c-0.5,0.8-0.9,1.6-1.1,2.4c-0.5,0.8-1,1.6-1.4,2.4c-0.2,1-0.6,1.9-1.1,2.6c-0.5,1-1,2-1.5,3c-0.5,1-1,2-1.4,2.9
			c-0.7,1-1.3,2-1.8,3c-0.5,1-1.1,2.1-1.8,3.2c-0.7,1-1.3,2.1-1.8,3.2c-0.7,1-1.5,2.1-2.2,3.2c-0.7,1-1.5,2.1-2.2,3.2
			c-0.7,1.2-1.5,2.4-2.2,3.5c-0.7,1.2-1.6,2.4-2.5,3.5c-0.7,1.2-1.6,2.4-2.5,3.5c-0.7,1.2-1.6,2.4-2.5,3.5c-1,1.4-1.9,2.7-2.9,3.8
			c-1,1.2-1.9,2.5-2.9,3.8c-1,1.2-1.9,2.3-2.9,3.5c-1,1.4-2.1,2.6-3.3,3.8c-1,1.2-2.1,2.5-3.3,3.8c-1,1.2-2.1,2.5-3.3,3.8
			c-1.2,1.2-2.4,2.4-3.6,3.5c-1.2,1.4-2.4,2.6-3.6,3.8c-1.2,1.4-2.4,2.6-3.6,3.8c-1.2,1.2-2.5,2.5-4,3.8c-1.2,1.2-2.5,2.4-4,3.5
			c-1.2,1.2-2.5,2.4-4,3.5c-1.5,1.4-2.9,2.6-4.3,3.8c-1.5,1.2-2.9,2.4-4.3,3.5c-1.4,1.2-2.9,2.3-4.3,3.2c-1.7,1.2-3.3,2.4-4.7,3.5
			c-1.5,1.2-3,2.3-4.7,3.2c-1.7,1.2-3.3,2.3-4.7,3.2c-1.7,1.2-3.4,2.3-5.1,3.2c-1.9,1-15.1,7.7-15.6,8.8c-0.2,0.8,11.2,5.4,12.7,6.2
			c1.4,0.8,2.9,1.6,4.3,2.4c1.5,0.8,2.9,1.7,4.3,2.7c1.4,0.8,2.9,1.7,4.3,2.6c1.2,0.8,2.5,1.7,4,2.6c1.4,1,2.9,2,4.3,2.9
			c1.4,1,2.8,2,4,2.9c1.4,1,2.9,2.1,4.3,3.2c1.5,1,2.8,2.1,4,3.2c1.5,1,2.9,2.1,4.3,3.2c1.2,1.2,2.5,2.4,4,3.5c1.2,1,2.5,2.1,4,3.2
			c1.2,1.2,2.5,2.4,4,3.5c1.2,1.2,2.5,2.3,4,3.5c1.2,1.4,2.4,2.7,3.6,3.8c1.5,1.2,2.8,2.4,4,3.5c1.2,1.2,2.4,2.5,3.6,3.8
			c1.2,1.2,2.4,2.4,3.6,3.5c1.2,1.4,2.4,2.7,3.6,3.8c1.2,1.2,2.4,2.5,3.6,3.8c1.2,1.2,2.3,2.4,3.3,3.8c1.2,1.2,2.4,2.4,3.6,3.5
			c1,1.4,2,2.6,3.3,3.8c1,1.2,2,2.5,3.3,3.8c1,1.2,1.9,2.4,2.9,3.5c1.2,1.2,2.3,2.3,3.3,3.5c1,1.4,1.9,2.6,2.9,3.8
			c1,1.2,1.9,2.4,2.9,3.5c0.7,1.2,1.6,2.4,2.5,3.5c1,1,1.8,2.1,2.5,3.2c1,1.2,1.8,2.2,2.5,3.2c1,1.2,1.8,2.3,2.5,3.2
			c0.7,1.2,1.4,2.2,2.2,3.2c0.7,1,1.4,2.1,2.2,3.2c0.7,1,1.3,2,1.8,2.9c0.7,0.8,1.4,1.7,2.2,2.6c0.5,1,1,1.9,1.5,2.7
			c0.7,1,1.3,1.9,1.8,2.7c0.5,0.8,1,1.6,1.4,2.3c0.5,0.8,1,1.6,1.5,2.4c0.2,0.8,0.6,1.5,1.1,2.1c0.2,0.8,0.6,1.5,1.1,2.1
			c0.2,0.6,0.5,1.2,0.7,1.8c0.2,0.6,0.5,1.2,0.7,1.8c0.2,0.4,0.4,0.8,0.4,1.2c0.2,0.4,0.4,0.9,0.4,1.5c0.2,0.2,0.4,0.5,0.4,0.9v0.9
			c0,0.6-0.2,1.1-0.7,1.5c-0.2,0.6-0.6,1.2-1.1,1.8c-0.7,0.6-1.5,1.3-2.2,2.1c-0.7,0.6-1.6,1.3-2.5,2.1c-1.2,0.6-2.3,1.3-3.3,2.1
			c-1.2,0.8-2.4,1.6-3.6,2.4c-1.5,0.8-2.9,1.5-4.4,2c-1.4,0.8-3,1.6-4.7,2.4c-1.5,0.8-3,1.6-4.7,2.4c-1.7,1-3.4,1.9-5.1,2.7
			c-1.7,0.8-3.5,1.6-5.4,2.4c-1.7,0.6-3.5,1.3-5.4,2.1c-1.7,0.8-3.5,1.6-5.4,2.4c-1.7,0.8-3.5,1.5-5.4,2.1c-1.9,0.8-3.7,1.5-5.4,2.1
			c-1.7,0.6-3.5,1.2-5.4,1.8c-1.7,0.6-3.4,1.2-5.1,1.8c-1.4,0.6-3,1.1-4.7,1.5c-1.4,0.6-2.9,1.1-4.3,1.5c-1.5,0.4-40.7,9.2-41.9,9.6
			c-1.2,0.2-2.4,0.4-3.6,0.6c-1.2,0.2-2.3,0.4-3.3,0.6c-0.7,0.2-1.6,0.3-2.5,0.3h-1.8c-0.2,0-0.5-0.1-0.7-0.3
			c-0.5-0.2-0.9-0.4-1.1-0.6c-0.2-0.2-0.5-0.4-0.7-0.6c-0.2-0.4-0.6-0.7-1.1-0.9c-0.2-0.4-0.5-0.8-0.7-1.2c-0.5-0.6-0.8-1.1-1.1-1.5
			c-0.5-0.6-0.8-1.2-1.1-1.8c-0.5-0.6-0.8-1.2-1.1-1.8c-0.5-0.6-0.8-1.2-1.1-1.8c-0.5-0.8-1-1.6-1.4-2.4c-0.3-0.8-0.6-1.6-1.1-2.3
			c-0.5-0.8-1-1.6-1.4-2.4c-0.5-1-5.2-10.3-5.7-11.1c-0.5-1-17.4-32.2-18.1-33.6c-0.7-1.2-20.7-44.1-20.7-44.1s0.2-2.7,0.2-1.3
			c0.2,1.6,0.5,3.2,0.7,4.7c0,1.8,1.1,12.9,1.1,14.4c0.2,1.8,1.2,13.2,1.4,14.7c0,1.6,0.1,3.1,0.4,4.7c0.2,1.6,0.4,3.2,0.4,4.7
			c0.2,1.6,0.4,3.2,0.4,4.7c0.2,1.6,0.4,3.1,0.4,4.4c0.2,1.6,0.4,3,0.4,4.4c0.2,1.6,0.4,3.1,0.4,4.4c0,1.4,0.1,2.8,0.4,4.1v3.8
			c0.2,1.4,0.4,2.6,0.4,3.8v3.5c0.2,1.2,0.4,2.4,0.4,3.5v3v2.9v2.6v2.1c0,0.8-0.1,1.5-0.4,2.1v1.5c0,0.4-0.1,0.9-0.4,1.5
			c0,0.2-0.1,0.5-0.4,0.9c0,0.2-0.1,0.3-0.4,0.3c-0.5,0.4-1,0.6-1.5,0.6c-0.7,0.4-1.4,0.6-2.2,0.6c-1,0.2-14.7,0.4-15.9,0.6
			c-1.2,0.2-2.5,0.4-4,0.6c-1.5,0-2.9,0.1-4.4,0.3c-1.7,0.2-3.4,0.3-5.1,0.3c-1.9,0.2-3.7,0.3-5.4,0.3c-2.2,0.2-4.2,0.3-6.1,0.3
			c-1.9,0-4,0.1-6.2,0.3h-6.5h-6.5h-6.5h-6.5h-6.2h-6.2c-1.9-0.2-3.9-0.3-5.8-0.3c-1.7,0-3.4-0.1-5.1-0.3c-1.7,0-3.4-0.1-5.1-0.3
			c-1.2,0-2.5-0.1-4-0.3c-1.2,0-2.4-0.1-3.6-0.3c-0.7-0.2-1.6-0.3-2.5-0.3c-0.7-0.2-1.3-0.4-1.8-0.6c-0.2,0-0.5-0.2-0.7-0.6h-0.4
			v-0.6v-0.6v-0.9c-0.2-0.4-0.4-0.8-0.4-1.2v-1.5v-1.5c-0.2-0.6-0.4-1.2-0.4-1.8v-1.8c0-0.8-0.1-1.5-0.4-2.1v-2.4
			c0-0.8-0.1-1.6-0.4-2.4v-2.7v-2.6c-0.2-1-0.4-2-0.4-2.9V517c-0.2-1-0.4-2.1-0.4-3.2v-3.2c-0.2-1.2-0.4-2.4-0.4-3.5
			c0-1.4-0.1-2.6-0.4-3.8v-3.8c0-1.2-0.1-2.5-0.4-3.8v-4.1c0-1.4-0.1-2.7-0.4-4.1v-4.1c-0.2-1.6-0.4-3-0.4-4.4v-4.4
			c-0.2-1.6-0.4-3.1-0.4-4.7c0-1.6-0.1-3-0.4-4.4v-5c0-1.6-0.1-3.1-0.4-4.7v-5c-0.2-1.6-0.4-3.1-0.4-4.7v-5
			c-0.2-1.8-0.4-3.5-0.4-5.3c0-1.6-0.1-3.2-0.4-5v-5.3c0-1.8-0.1-3.6-0.4-5.3v-5.3c0-1.8-0.1-3.5-0.4-5.3v-5.3
			c0-1.8-0.1-3.5-0.4-5.3v-5.3c-0.2-1.8-0.4-3.6-0.4-5.6v-5.3c0-1.8-0.1-3.5-0.4-5.3c0-2-0.1-9.1-0.4-10.9v-5.6v-5.3
			c-0.2-1.8-0.4-3.5-0.4-5.3v-5.3c0-1.8-0.1-3.5-0.4-5.3v-5.3v-5.3v-5.3c-0.2-1.6-0.4-3.2-0.4-5v-5.3v-5v-4.7
			c-0.2-1.8-0.4-3.4-0.4-5v-5v-4.7v-4.4v-4.7v-4.4v-4.4v-4.4v-4.1v-4.1v-3.8v-3.8c0-1.2,0.1-2.4,0.4-3.5v-3.5v-3.5v-3.2
			c0.2-1,0.4-2.1,0.4-3.3v-2.9c0-0.8,0.1-1.7,0.4-2.6v-2.6v-2.4c0.2-0.8,0.4-1.6,0.4-2.4c0-0.8,0.1-1.5,0.4-2.1v-2
			c0.2-0.6,0.4-1.2,0.4-1.8c0-0.4,0.1-0.9,0.4-1.5v-1.5c0.2-0.4,0.4-0.8,0.4-1.2c0.2-0.2,0.4-0.5,0.4-0.9c0-0.2,0.1-0.4,0.4-0.6
			c0-0.2,0.1-0.4,0.4-0.6C273,207.8,273.8,207.2,274.7,206.6"/>
		<path fill="#FFFFFF" d="M299.4,230.8c0.5-0.5,1.1-0.9,1.8-1.3c0.8-0.3,1.7-0.8,2.5-1.3c0.8-0.3,1.8-0.7,2.8-1c1-0.3,2.1-0.7,3.3-1
			c1.2-0.2,2.3-0.4,3.3-0.8c1.3-0.2,2.6-0.4,3.8-0.8c1.3-0.2,2.7-0.3,4.1-0.5c1.3-0.2,2.7-0.3,4-0.5c1.3-0.2,2.7-0.3,4-0.5
			c1.3,0,2.7-0.1,4-0.3h4h3.8h3.8c1.2,0,2.4,0.1,3.5,0.3c1.2,0,2.3,0.1,3.3,0.2c1,0.2,1.9,0.3,2.8,0.5c0.8,0,1.7,0.2,2.5,0.5
			c0.7,0.2,1.3,0.3,2,0.5c0.5,0.2,1,0.4,1.5,0.7c0.3,0.2,0.7,0.4,1,0.8c0.3,0.2,0.6,0.4,0.8,0.8c0.3,0.4,0.6,0.8,0.8,1.3
			c0.3,0.5,0.6,0.9,0.8,1.3c0.3,0.5,0.6,1.1,0.8,1.8c0.2,0.5,0.3,1.1,0.5,1.8c0.2,0.7,0.3,1.3,0.5,1.8c0.2,0.9,0.3,1.6,0.5,2.3
			c0.2,0.8,0.3,1.6,0.5,2.3c0,0.8,0.1,1.7,0.3,2.5c0.2,0.8,0.3,1.8,0.3,2.8c0.2,0.8,0.2,1.8,0.2,2.8c0.2,1,0.3,1.9,0.3,2.8
			c0.2,1,0.2,2.1,0.2,3.3c0,1,0.1,2,0.3,3v3.5v3.3c0.2,1.2,0.2,2.4,0.2,3.5v3.8v3.8v3.8v3.8v4v4c-0.2,1.4-0.2,2.7-0.2,4v4.3v4v4.3
			v4.3c-0.2,1.4-0.2,2.8,0,4.3v4.1c-0.2,1.5-0.2,2.9,0,4.3c0.2,1.7,0.2,3.1,0,4.3c-0.7,2.7,5.3-1.2,6.8-2c1-1.2,2-2.3,3-3.3
			c1-1.2,7.7-9.4,8.6-10.6c0.8-1.2,1.7-2.4,2.5-3.6c0.8-1.2,1.7-2.3,2.5-3.5c0.8-1.3,1.6-2.6,2.3-3.8c0.8-1.2,1.6-2.4,2.3-3.8
			c0.7-1.2,1.4-2.4,2-3.8c0.7-1.2,1.3-2.4,2-3.5c0.7-1.3,1.3-2.6,2-3.8c0.5-1.4,1.1-2.6,1.8-3.8c0.5-1.2,1-2.5,1.5-3.8
			c0.5-1.2,1-2.4,1.5-3.5c0.5-1.2,1-2.4,1.5-3.8c0.5-1.2,1-2.4,1.5-3.5c0.3-1.2,0.8-2.4,1.3-3.5c0.3-1,0.7-2.1,1-3.3
			c0.5-1.2,0.9-2.3,1.3-3.3c0.3-1.2,0.7-2.3,1-3.3c0.3-1,0.7-2,1-3c0.3-1,0.7-2,1-3c0.2-1,0.4-2,0.8-3c0.3-0.8,0.6-1.8,0.8-2.8
			c0.3-0.8,0.6-1.7,0.8-2.5c0.2-0.8,0.4-1.6,0.8-2.3c0.2-0.8,0.3-1.6,0.5-2.3c0.2-0.8,0.4-1.6,0.8-2.3c0.2-0.5,0.3-1.1,0.5-1.8
			c0.2-0.5,0.3-1.1,0.5-1.8c0.2-0.5,0.3-1,0.5-1.5c0.2-0.3,0.3-0.8,0.5-1.3c0-0.3,0.1-0.7,0.2-1c0.2-0.2,0.3-0.4,0.5-0.8
			c0.2-0.2,0.3-0.3,0.3-0.5c0.2-0.2,0.3-0.3,0.5-0.3c0.5-0.2,1.1-0.2,1.8-0.2c0.8-0.2,1.6-0.3,2.3-0.3h2.5h3
			c1.2,0.2,2.3,0.3,3.3,0.5c1.2,0.2,2.4,0.3,3.5,0.5c1.2,0.2,2.4,0.4,3.8,0.8c1.2,0.2,2.4,0.4,3.8,0.8c1.3,0.3,2.7,0.6,4,0.8
			c1.3,0.3,2.7,0.7,4,1.3c1.3,0.3,2.7,0.7,4,1c1.3,0.3,2.7,0.8,4,1.3c1.3,0.3,2.7,0.8,4,1.3c1.3,0.3,2.6,0.8,3.8,1.3
			c1.3,0.5,2.6,0.9,3.8,1.3c1.2,0.5,2.4,1,3.5,1.5c1.2,0.5,2.4,0.9,3.5,1.3c1,0.5,2,1,3,1.5c0.8,0.3,1.7,0.7,2.5,1.2
			c0.8,0.5,1.7,1,2.5,1.5c0.7,0.3,1.3,0.8,1.8,1.3c0.5,0.3,1,0.8,1.5,1.3c0.3,0.3,0.7,0.7,1,1c0.2,0.3,0.3,0.8,0.3,1.3v0.5v1
			c0,0.3-0.1,0.7-0.3,1c0,0.3-0.1,0.7-0.3,1c0,0.5-0.1,1-0.2,1.5c-0.2,0.5-0.3,1-0.3,1.5c-0.2,0.5-0.3,1-0.5,1.5
			c-0.2,0.7-0.4,1.3-0.8,1.8c-0.2,0.7-0.3,1.4-0.5,2c-0.3,0.7-0.6,1.4-0.7,2c-0.3,0.7-0.7,1.3-1,2c-0.2,0.8-0.4,1.6-0.8,2.3
			c-0.3,0.9-0.7,1.7-1,2.5c-0.3,0.8-0.7,1.7-1,2.5c-0.5,0.8-0.9,1.7-1.3,2.5c-0.3,0.8-0.8,1.8-1.3,2.8c-0.5,0.8-0.9,1.8-1.3,2.8
			c-0.5,0.9-1,1.8-1.5,2.8c-0.5,0.8-1,1.8-1.5,2.8c-0.5,1-1,2-1.5,3c-0.5,1-1.1,2-1.8,3c-0.5,1-1.1,2-1.8,3c-0.5,1-1.1,2-1.8,3
			c-0.7,1.2-1.3,2.3-2,3.3c-0.7,1-1.4,2.1-2,3.3c-0.7,1-1.3,2-2,3c-0.7,1.2-1.4,2.3-2.3,3.3c-0.7,1-1.4,2.1-2.3,3.3
			c-0.7,1-1.4,2.1-2.3,3.3c-0.8,1-1.7,2-2.5,3c-0.8,1.2-1.7,2.3-2.5,3.3c-0.8,1.2-1.7,2.3-2.5,3.3c-0.8,1-1.8,2.1-2.8,3.3
			c-0.9,1-1.8,2-2.8,3c-0.8,1-1.8,2-2.8,3c-1,1.2-2,2.3-3,3.3c-1,1-2,2-3,3c-1,1-2,2-3,2.8c-1.2,1-2.3,2-3.3,3c-1,1-2.1,1.9-3.3,2.8
			c-1.2,1-2.3,1.9-3.3,2.8c-1.2,1-2.4,1.9-3.5,2.8c-1.3,0.8-2.5,1.7-3.5,2.5c-1.2,1.2-6.5,6.2-4.3,6.6c1,0.2,4.8,3.1,5.8,3.8
			c1,0.7,2,1.3,3,2c1,0.7,2,1.4,3,2.3c1,0.7,2,1.4,3,2.3c0.8,0.7,1.8,1.4,2.8,2.3c1,0.8,2,1.7,3,2.5c1,0.8,1.9,1.7,2.8,2.5
			c1,0.8,2,1.8,3,2.8c1,0.9,1.9,1.8,2.8,2.8c1,0.8,2,1.8,3,2.8c0.8,1,1.8,2,2.8,3c0.8,0.8,1.8,1.8,2.8,2.8c0.8,1,1.8,2,2.8,3
			c0.8,1,1.8,2,2.8,3c0.8,1.2,1.7,2.3,2.5,3.3c1,1,1.9,2,2.8,3c0.8,1,1.7,2.1,2.5,3.3c0.8,1,1.7,2,2.5,3c0.8,1.2,1.7,2.3,2.5,3.3
			c0.8,1,1.7,2.1,2.5,3.3c0.8,1,1.6,2.1,2.3,3.3c0.8,1,1.7,2,2.5,3c0.7,1.2,1.4,2.3,2.3,3.3c0.7,1,1.4,2.1,2.3,3.3c0.7,1,1.3,2,2,3
			c0.8,1,1.6,2,2.3,3c0.7,1.2,1.3,2.3,2,3.3c0.7,1,1.3,2,2,3c0.5,1,1.1,2,1.8,3c0.7,0.8,1.3,1.8,1.8,2.8c0.7,1,1.3,1.9,1.8,2.8
			c0.7,1,1.3,1.9,1.8,2.8c0.5,1,1,1.9,1.5,2.8c0.5,0.8,1,1.8,1.5,2.8c0.5,0.9,0.9,1.7,1.3,2.5c0.5,0.7,1,1.4,1.5,2.3
			c0.3,0.8,0.7,1.6,1,2.3c0.5,0.9,0.9,1.6,1.3,2.3c0.3,0.7,0.7,1.3,1,2c0.3,0.7,0.7,1.3,1,2c0.2,0.7,0.4,1.2,0.8,1.8
			c0.2,0.7,0.4,1.3,0.8,1.8c0.2,0.5,0.3,1,0.5,1.5c0.2,0.5,0.3,1,0.5,1.5c0.2,0.4,0.3,0.7,0.3,1c0.2,0.3,0.2,0.8,0.2,1.3
			c0.2,0.2,0.3,0.4,0.3,0.7v0.8c0,0.5-0.2,0.9-0.5,1.3c-0.2,0.5-0.4,1-0.8,1.5c-0.5,0.5-1,1.1-1.5,1.8c-0.5,0.5-1.1,1.1-1.8,1.8
			c-0.8,0.5-1.6,1.1-2.3,1.8c-0.8,0.7-1.7,1.4-2.5,2c-1,0.7-2,1.2-3,1.8c-1,0.7-2.1,1.3-3.3,2c-1,0.7-2.1,1.4-3.3,2
			c-1.2,0.8-2.4,1.6-3.5,2.3c-1.2,0.7-2.4,1.3-3.8,2c-1.2,0.5-2.4,1.1-3.8,1.8c-1.2,0.7-2.4,1.3-3.8,2c-1.2,0.7-2.4,1.3-3.8,1.8
			c-1.4,0.7-2.6,1.3-3.8,1.8c-1.2,0.5-2.4,1-3.8,1.5c-1.2,0.5-2.4,1-3.5,1.5c-1,0.5-2.1,0.9-3.3,1.3c-1,0.5-2,0.9-3,1.3
			c-1,0.3-1.9,0.7-2.8,1c-0.8,0.2-1.7,0.3-2.5,0.5c-0.8,0.2-1.6,0.3-2.3,0.5c-0.5,0.2-1.1,0.2-1.8,0.2h-1.3c-0.2,0-0.3-0.1-0.5-0.2
			c-0.3-0.2-0.6-0.3-0.7-0.5c-0.2-0.2-0.3-0.3-0.5-0.5c-0.2-0.3-0.4-0.6-0.7-0.8c-0.2-0.3-0.3-0.7-0.5-1c-0.3-0.5-0.6-0.9-0.8-1.3
			c-0.3-0.5-0.6-1-0.8-1.5c-0.3-0.5-0.6-1-0.8-1.5c-0.3-0.5-0.6-1-0.8-1.5c-0.3-0.7-0.7-1.4-1-2c-0.2-0.7-0.4-1.3-0.8-2
			c-0.3-0.7-0.7-1.3-1-2c-0.3-0.8-0.7-1.6-1-2.3c-0.3-0.8-0.7-1.7-1-2.5c-0.3-0.8-0.7-1.7-1-2.5c-0.3-0.8-0.7-1.7-1-2.5
			c-0.5-0.8-0.9-1.8-1.3-2.8c-0.3-0.8-0.8-1.8-1.3-2.8c-0.3-1-0.8-2-1.3-3c-0.3-1-0.8-2-1.3-3c-0.5-1-1-2-1.5-3
			c-0.5-1-1-2.1-1.5-3.3c-0.5-1-1-2.1-1.5-3.3c-0.5-1-1-2.1-1.5-3.3c-0.5-1-1.1-2.1-1.8-3.3c-0.5-1.2-1.1-2.4-1.8-3.5
			c-0.5-1-1.1-2.1-1.8-3.3c-0.7-1.2-1.3-2.4-1.8-3.5c-0.7-1.2-1.3-2.4-2-3.5c-0.7-1.2-1.4-2.3-2-3.5c-0.8-1.2-1.6-2.4-2.3-3.5
			c-0.7-1.2-1.4-2.4-2.3-3.5c-0.7-1.2-1.4-2.3-2.3-3.5c-0.9-1.2-1.6-2.4-2.3-3.8c-0.8-1.2-1.7-2.4-2.5-3.5c-0.8-1.2-1.8-2.4-2.8-3.5
			c-0.9-1.2-1.7-2.3-2.5-3.3c-1-1.2-1.9-2.4-2.8-3.5c-1-1.2-2-2.4-3-3.5c-1-1.2-2-2.3-3-3.3c-0.8-1.2-1.9-2.4-3-3.5
			c-1-1-2-2.1-3-3.3c-1.2-1.2-2.4-2.2-3.5-3c-1.2-1-2.3-2.1-3.3-3.3c-1.2-1.5-2.4-2.5-3.5-3c-0.7-0.2-0.7,0.7,0,2.5
			c0.3,0.9,0.4,1.7,0.2,2.5v2.8c0.2,1,0.3,2.1,0.3,3.3c0.2,1,0.2,2,0.2,3c0,1.2,0.1,2.4,0.3,3.5c0,1.2,0.1,2.4,0.3,3.5
			c0,1.2,0.1,2.4,0.2,3.5c0,1.3,0.1,2.6,0.3,3.8c0.2,1.3,0.2,2.7,0.2,4c0.2,1.3,0.3,2.6,0.3,3.8c0.2,1.3,0.3,2.7,0.5,4
			c0,1.5,0.3,7,0.5,8.3c0.2,1.3,0.3,2.7,0.3,4c0.2,1.5,0.2,3,0.2,4.3c0.2,1.4,0.3,2.7,0.5,4c0,1.5,0.1,3,0.3,4.3
			c0,1.3,0.1,2.7,0.3,4c0.2,1.3,0.2,2.7,0.2,4.1c0.2,1.3,0.3,2.7,0.3,4c0.2,1.3,0.2,2.6,0.2,3.8c0.2,1.3,0.3,2.6,0.3,3.8
			c0.2,1.4,0.2,2.6,0.2,3.8c0,1.2,0.1,2.3,0.3,3.5v3.3c0.2,1.2,0.2,2.3,0.2,3.3v3c0.2,1,0.3,2,0.3,3v2.5v2.5v2.3v1.8
			c0,0.7-0.1,1.3-0.3,1.8v1.3c0,0.3-0.1,0.8-0.2,1.3c0,0.2-0.1,0.4-0.3,0.7c0,0.2-0.1,0.3-0.2,0.3c-0.3,0.3-0.7,0.5-1,0.5
			c-0.5,0.3-1,0.5-1.5,0.5c-0.7,0.2-1.4,0.3-2.3,0.5c-0.8,0.2-1.8,0.3-2.8,0.5c-1,0-2,0.1-3,0.2c-1.2,0.2-2.4,0.3-3.5,0.3
			c-1.4,0.2-2.6,0.2-3.8,0.2c-1.5,0.2-2.9,0.3-4.3,0.3c-1.4,0-2.8,0.1-4.3,0.2h-4.5h-4.6h-4.6h-4.5h-4.3h-4.3
			c-1.3-0.2-2.7-0.2-4-0.2c-1.2,0-2.4-0.1-3.5-0.3c-1.2,0-2.4-0.1-3.5-0.2c-0.8,0-1.8-0.1-2.8-0.3c-0.8,0-1.7-0.1-2.5-0.2
			c-0.5-0.2-1.1-0.3-1.8-0.3c-0.5-0.2-0.9-0.3-1.3-0.5c-0.2,0-0.3-0.2-0.5-0.5h-0.2v-0.5V520v-0.7c-0.2-0.3-0.3-0.7-0.3-1V517v-1.3
			c-0.2-0.5-0.2-1-0.2-1.5v-1.5c0-0.7-0.1-1.3-0.3-1.8v-2c0-0.7-0.1-1.3-0.3-2v-2.3v-2.3c-0.2-0.8-0.2-1.7-0.2-2.5V497
			c-0.2-0.8-0.3-1.8-0.3-2.8v-2.8c-0.2-1-0.3-2-0.3-3c0-1.2-0.1-2.3-0.3-3.3v-3.3c0-1-0.1-2.1-0.2-3.3V475c0-1.2-0.1-2.4-0.3-3.5
			V468c-0.2-1.3-0.3-2.6-0.3-3.8v-3.8c-0.2-1.3-0.2-2.7-0.2-4c0-1.3-0.1-2.6-0.3-3.8v-4.3c0-1.3-0.1-2.7-0.2-4v-4.3
			c-0.2-1.3-0.3-2.7-0.3-4v-4.3c-0.2-1.5-0.2-3-0.2-4.5c0-1.3-0.1-2.8-0.3-4.3v-4.5c0-1.5-0.1-3-0.3-4.5v-4.5c0-1.5-0.1-3-0.2-4.6
			V400c0-1.5-0.1-3-0.3-4.5v-4.6c-0.2-1.5-0.2-3.1-0.2-4.8v-4.6c0-1.5-0.1-3-0.3-4.5v-4.8c0-1.5-0.1-3-0.2-4.5v-4.8v-4.5
			c-0.2-1.5-0.3-3-0.3-4.6v-4.5c0-1.5-0.1-3-0.2-4.6v-4.5v-4.5v-4.5c-0.2-1.3-0.3-2.8-0.3-4.3v-4.5V318v-4.1
			c-0.2-1.5-0.3-2.9-0.3-4.3v-4.3v-4v-3.8v-4v-3.8v-3.8v-3.8v-3.5V275v-3.3v-3.3c0-1,0.1-2,0.3-3v-3v-3v-2.8
			c0.2-0.8,0.3-1.8,0.3-2.8v-2.5c0-0.7,0.1-1.4,0.2-2.3v-2.3v-2c0.2-0.7,0.3-1.3,0.3-2c0-0.7,0.1-1.3,0.2-1.8v-1.8
			c0.2-0.5,0.3-1,0.3-1.5c0-0.3,0.1-0.8,0.2-1.3v-1.3c0.2-0.3,0.3-0.7,0.3-1c0.2-0.2,0.2-0.4,0.2-0.8c0-0.2,0.1-0.3,0.3-0.5
			c0-0.2,0.1-0.3,0.3-0.5C298.2,231.8,298.7,231.3,299.4,230.8"/>
	</g>
	<g>
		<g>
			<g>
				<path d="M733,328c0.2,0.2,0.4,0.4,0.6,0.6c0.2,0.2,0.3,0.5,0.3,0.9c0.2,0.4,0.4,0.8,0.6,1.2c0,0.4,0.1,0.9,0.3,1.5
					c0.2,0.6,0.3,1.2,0.3,1.8c0,0.8,0.1,1.6,0.3,2.4c0,0.8,0,1.6,0,2.4c0.2,0.8,0.3,1.7,0.3,2.7c0,1,0,2,0,3
					c0.2,1.2,0.3,2.3,0.3,3.3c0,1.2,0,2.4,0,3.6s0,2.4,0,3.6c0,1.4,0,2.8,0,4.2c0,1.2,0,2.5,0,3.9c0,1.6,0,3.1,0,4.5
					c0,1.4-0.1,2.9-0.3,4.6c0,1.6,0,3.1,0,4.5c0,1.6,0,3.2,0,4.9s0,3.3,0,5.1c-0.2,1.6-0.3,3.2-0.3,4.9c0,1.8,0,3.5,0,5.1
					c0,1.8,0,3.6,0,5.4c0,1.6,0,3.3,0,5.2c-0.2,1.8-0.3,3.6-0.3,5.4c0,1.8,0,3.5,0,5.1c0,1.8,0,3.6,0,5.4c0,1.8,0,3.6,0,5.5
					s0,3.6,0,5.4s0,3.6,0,5.5c0.2,1.8,0.3,3.6,0.3,5.4s0,3.6,0,5.4c0.2,1.8,0.3,3.6,0.3,5.5c0,1.8,0.1,3.6,0.3,5.4
					c0,1.6,0.1,3.3,0.3,5.1c0,1.8,0.1,3.6,0.3,5.5c0.2,1.8,0.3,3.5,0.3,5.1c0.2,1.8,0.4,3.5,0.6,5.1c0,1.6,0.1,3.3,0.3,5.1
					c0.2,1.6,0.3,3.2,0.3,4.9c0.2,1.6,0.4,3.2,0.6,4.8c0,1.6,0.1,3.1,0.3,4.6c0.2,1.6,0.3,3.1,0.3,4.5c0.2,1.4,0.3,2.8,0.3,4.2
					c0.2,1.4,0.4,2.8,0.6,4.3c0,1.2,0.1,2.5,0.3,3.9c0,1.2,0.1,2.4,0.3,3.6c0,1.2,0,2.3,0,3.3c0.2,1.2,0.3,2.3,0.3,3.3
					c0,1,0.1,2,0.3,3c0,0.8,0,1.7,0,2.7c0,0.8,0,1.6,0,2.4c0,0.6,0,1.3,0,2.1c0,0.4-0.1,0.9-0.3,1.5c0,0.6,0,1.1,0,1.5
					c-0.2,0.4-0.3,0.8-0.3,1.2c-0.2,0.2-0.4,0.4-0.6,0.6c0,0.2-0.2,0.3-0.6,0.3c-0.4,0.2-0.8,0.3-1.2,0.3c-0.8,0.2-1.5,0.3-2.1,0.3
					c-1,0-2,0.1-3,0.3c-1.2,0-2.3,0-3.3,0c-1.4,0.2-2.8,0.3-4.1,0.3s-2.9,0-4.4,0c-1.6,0.2-3.2,0.3-4.7,0.3s-3.2,0-4.7,0
					c-1.8,0-3.6,0-5.3,0c-1.8,0-3.6,0-5.3,0s-3.5,0-5.3,0c-1.6,0-3.3,0-5,0s-3.5-0.1-5-0.3c-1.6,0-3.2,0-4.7,0
					c-1.6,0-3.1-0.1-4.5-0.3c-1.4,0-2.8,0-4.1,0c-1.2-0.2-10.9,0.5-17-0.9s-7.5-5.6-7.7-8.1c-0.2-0.8-11.6,8.8-23.9,10.2
					c0,0-2.3,0.4-3.3,0.6c-1.2,0.2-2.4,0.4-3.6,0.6c-1,0-2.1,0.1-3.3,0.3c-1.2,0-2.4,0-3.5,0c-1.2,0-2.4,0-3.6,0s-2.4-0.1-3.6-0.3
					c-1.2,0-2.4-0.1-3.5-0.3c-1.2-0.2-2.4-0.4-3.6-0.6c-1.4-0.2-2.7-0.4-3.9-0.6c-1.2-0.4-2.4-0.7-3.5-0.9c-1.2-0.4-2.4-0.8-3.6-1.2
					c-1.2-0.4-2.4-0.8-3.5-1.2c-1.2-0.6-2.4-1.1-3.6-1.5c-1.2-0.6-2.3-1.2-3.3-1.8c-1.2-0.6-2.4-1.2-3.6-1.8
					c-1.2-0.6-2.3-1.3-3.3-2.1c-1.2-0.8-2.3-1.6-3.3-2.4c-1.2-0.8-2.3-1.6-3.3-2.4c-1-1-2.1-1.9-3.3-2.7c-1-1-2-2-3-3
					c-1-1-2-2.1-3-3.3c-0.8-1-1.7-2.1-2.7-3.3c-1-1.2-1.9-2.4-2.7-3.6c-0.8-1.4-1.6-2.8-2.4-4.3c-1-1.2-1.8-2.5-2.4-3.9
					c-0.8-1.4-1.5-2.8-2.1-4.3c-0.8-1.4-1.5-2.8-2.1-4.2c-0.6-1.4-1.2-2.8-1.8-4.2c-0.6-1.4-1.2-2.8-1.8-4.2
					c-0.4-1.6-0.9-3.1-1.5-4.6c-0.4-1.4-0.8-2.9-1.2-4.5c-0.6-1.4-1.1-2.8-1.5-4.2c-0.4-1.6-0.7-3.1-0.9-4.6
					c-0.4-1.6-0.8-3.2-1.2-4.9c-0.2-1.4-0.5-2.9-0.9-4.5c-0.2-1.4-0.4-2.9-0.6-4.6c-0.2-1.6-0.4-3.1-0.6-4.5
					c-0.2-1.6-0.4-3.2-0.6-4.9c-0.2-1.4-0.4-2.9-0.6-4.5c0-1.6-0.1-3.1-0.3-4.6c0-1.6-0.1-3.1-0.3-4.5c0-1.6,0-3.2,0-4.9
					c0-1.4,0-2.9,0-4.6c-0.2-1.4-0.2-2.9,0-4.5c0-1.4,0-2.9,0-4.5c0-1.4,0-2.9,0-4.6c0.2-1.4,0.3-2.8,0.3-4.2
					c0.2-1.4,0.3-2.9,0.3-4.6c0.2-1.4,0.4-2.8,0.6-4.2c0-1.4,0.1-2.8,0.3-4.2c0.2-1.4,0.4-2.8,0.6-4.2c0.2-1.2,0.4-2.5,0.6-3.9
					c0.2-1.4,0.4-2.7,0.6-3.9c0.2-1.4,0.4-2.7,0.6-3.9c0.2-1.4,0.4-2.7,0.6-3.9c0.2-1.2,0.4-2.4,0.6-3.6c0.4-1.2,0.7-2.4,0.9-3.6
					c0.2-1.2,0.4-2.4,0.6-3.6c0.4-1,0.7-2.1,0.9-3.3c0.2-1,0.5-2,0.9-3c0.2-1,0.5-2.1,0.9-3.3c0.2-0.8,0.4-1.7,0.6-2.7
					c0.4-1,0.7-2,0.9-3c0.4-0.8,0.7-1.6,0.9-2.4c0.2-0.8,0.5-1.7,0.9-2.7c0.2-0.6,0.5-1.3,0.9-2.1c0.2-0.8,0.5-1.5,0.9-2.1
					c0.2-0.8,0.4-1.5,0.6-2.1c0.4-0.6,0.7-1.2,0.9-1.8c0.2-0.4,0.5-0.9,0.9-1.5c0.2-0.4,0.4-0.9,0.6-1.5c0.2-0.4,0.5-0.8,0.9-1.2
					c0.2-0.2,0.4-0.5,0.6-0.9c0.2-0.2,0.4-0.4,0.6-0.6c0.2-0.2,0.4-0.4,0.6-0.6c0.2-0.2,0.4-0.3,0.6-0.3c0.8-0.2,1.6-0.4,2.4-0.6
					c1-0.2,2-0.4,3-0.6c1.4-0.2,2.7-0.4,3.9-0.6c1.4,0,2.8-0.1,4.1-0.3c1.6,0,3.2-0.1,4.7-0.3c1.6,0,3.1-0.1,4.7-0.3
					c1.8,0,3.5,0,5.1,0c1.6,0,3.3,0,5,0c1.6,0,3.1,0,4.7,0c1.4,0,2.9,0.1,4.5,0.3c1.4,0,2.8,0,4.1,0c1.2,0.2,2.3,0.3,3.3,0.3
					c1,0.2,2,0.4,3,0.6c0.8,0,20,0.5,24,8s-6.6,100.1,11.5,100.1s11.7-92.6,15.3-98.7s20-6.8,20-7c0.4-0.2,0.7-0.4,0.9-0.6
					c0.8-0.2,1.5-0.3,2.1-0.3c0.8-0.2,1.7-0.4,2.7-0.6c1.2-0.2,2.4-0.4,3.6-0.6c1.4,0,2.8-0.1,4.1-0.3c1.4-0.2,2.9-0.3,4.5-0.3
					c1.6-0.2,3.3-0.3,5-0.3c1.6-0.2,3.3-0.3,5-0.3s3.5-0.1,5.3-0.3c1.8,0,3.6,0,5.3,0c1.6,0,3.3,0,5,0c1.6,0,3.1,0,4.7,0
					c1.6,0.2,3.2,0.3,4.7,0.3c1.2,0,2.5,0.1,3.9,0.3c1.2,0.2,2.4,0.3,3.6,0.3c0.8,0.2,1.7,0.4,2.7,0.6
					C731.9,327.6,732.5,327.8,733,328z"/>
			</g>
		</g>
		<path fill="#FFFFFF" d="M714,358.4c0.2,0.1,0.3,0.3,0.5,0.4c0.2,0.2,0.2,0.4,0.2,0.7c0.2,0.3,0.3,0.6,0.5,0.9
			c0,0.3,0.1,0.7,0.2,1.1c0.2,0.4,0.2,0.9,0.2,1.3c0,0.6,0.1,1.2,0.3,1.8c0,0.6,0,1.2,0,1.8c0.2,0.6,0.2,1.3,0.2,2s0,1.5,0,2.2
			c0.2,0.9,0.2,1.7,0.2,2.4c0,0.9,0,1.8,0,2.7s0,1.8,0,2.7c0,1,0,2.1,0,3.1c0,0.9,0,1.8,0,2.9c0,1.2,0,2.3,0,3.3
			c0,1-0.1,2.1-0.2,3.3c0,1.2,0,2.3,0,3.3c0,1.2,0,2.4,0,3.6c0,1.2,0,2.4,0,3.8c-0.2,1.2-0.2,2.4-0.2,3.6c0,1.3,0,2.6,0,3.8
			c0,1.3,0,2.7,0,4c0,1.2,0,2.4,0,3.8c-0.2,1.3-0.3,2.7-0.3,4c0,1.3,0,2.6,0,3.8c0,1.3,0,2.7,0,4s0,2.7,0,4c0,1.3,0,2.7,0,4
			c0,1.3,0,2.7,0,4c0.2,1.3,0.3,2.7,0.3,4c0,1.3,0,2.7,0,4c0.2,1.3,0.2,2.7,0.2,4c0,1.3,0.1,2.7,0.2,4c0,1.2,0.1,2.4,0.2,3.8
			c0,1.3,0.1,2.7,0.3,4c0.2,1.3,0.2,2.6,0.2,3.8c0.2,1.3,0.3,2.6,0.5,3.8c0,1.2,0.1,2.4,0.2,3.8c0.2,1.2,0.2,2.4,0.2,3.5
			c0.2,1.2,0.3,2.4,0.5,3.6c0,1.2,0.1,2.3,0.2,3.3c0.2,1.2,0.2,2.3,0.2,3.3c0.2,1,0.3,2.1,0.3,3.1c0.2,1,0.3,2.1,0.5,3.1
			c0,0.9,0.1,1.8,0.2,2.9c0,0.9,0.1,1.8,0.3,2.7c0,0.9,0,1.7,0,2.4c0.2,0.9,0.2,1.7,0.2,2.4s0.1,1.5,0.2,2.2c0,0.6,0,1.3,0,2
			c0,0.6,0,1.2,0,1.8c0,0.5,0,1,0,1.6c0,0.3-0.1,0.7-0.2,1.1c0,0.4,0,0.8,0,1.1c-0.2,0.3-0.2,0.6-0.2,0.9c-0.2,0.1-0.3,0.3-0.5,0.5
			c0,0.1-0.2,0.2-0.5,0.2c-0.3,0.1-0.7,0.2-1,0.2c-0.6,0.2-1.2,0.2-1.7,0.2c-0.8,0-1.6,0.1-2.4,0.2c-1,0-1.9,0-2.7,0
			c-1.1,0.1-2.3,0.2-3.4,0.2c-1.1,0-2.4,0-3.7,0c-1.3,0.1-2.6,0.2-3.9,0.2c-1.3,0-2.6,0-3.9,0c-1.5,0-2.9,0-4.4,0
			c-1.5,0-2.9,0-4.4,0c-1.4,0-2.9,0-4.4,0c-1.3,0-2.7,0-4.1,0c-1.4,0-2.8-0.1-4.1-0.2c-1.3,0-2.6,0-3.9,0c-1.3,0-2.5-0.1-3.7-0.2
			c-1.1,0-2.3,0-3.4,0c-1-0.1-1.9-0.2-2.9-0.2c-0.8-0.2-1.6-0.2-2.4-0.2c-0.7-0.1-1.3-0.3-1.9-0.4c-0.3,0-0.7-0.1-1.2-0.2
			c-0.6-0.3-1.4-0.6-2.2-0.9c-0.5-0.1-0.9-0.4-1.2-0.9c-0.3-0.4-0.6-1-0.7-1.6c-0.3-1.2,0.2-7.1,0-8.9c-0.2-0.6-0.6-0.1-1.4,1.6
			c-0.3,0.4-0.8,1-1.5,1.6c-0.5,0.4-1.1,0.9-1.7,1.3c-0.5,0.5-1.1,0.9-1.7,1.3s-1.3,0.9-1.9,1.3c-0.7,0.4-1.3,0.9-2,1.3
			c-0.8,0.3-1.5,0.7-2.2,1.1c-0.7,0.3-1.4,0.6-2.2,0.9c-0.8,0.5-1.6,0.8-2.4,1.1c-0.8,0.3-1.6,0.5-2.4,0.7c-0.8,0.3-1.6,0.6-2.4,0.9
			c-1,0.1-1.9,0.4-2.7,0.7c-0.8,0.2-1.7,0.3-2.7,0.5c-1,0.1-1.9,0.3-2.7,0.5c-1,0.1-1.9,0.3-2.9,0.4c-0.8,0-1.7,0.1-2.7,0.2
			c-1,0-1.9,0-2.9,0c-1,0-1.9,0-2.9,0c-1,0-2-0.1-2.9-0.2c-1,0-1.9-0.1-2.9-0.2c-1-0.1-2-0.3-2.9-0.5c-1.1-0.1-2.2-0.3-3.2-0.4
			c-1-0.3-1.9-0.5-2.9-0.7c-1-0.3-1.9-0.6-2.9-0.9c-1-0.3-1.9-0.6-2.9-0.9c-1-0.5-1.9-0.8-2.9-1.1c-1-0.4-1.9-0.9-2.7-1.3
			c-1-0.4-1.9-0.9-2.9-1.3c-1-0.5-1.9-1-2.7-1.6c-1-0.6-1.9-1.2-2.7-1.8c-1-0.6-1.9-1.2-2.7-1.8c-0.8-0.7-1.7-1.4-2.7-2
			c-0.8-0.7-1.6-1.5-2.4-2.2c-0.8-0.7-1.6-1.6-2.4-2.5c-0.7-0.7-1.4-1.6-2.2-2.4c-0.8-0.9-1.5-1.8-2.2-2.7c-0.6-1-1.3-2.1-1.9-3.1
			c-0.8-0.9-1.5-1.9-1.9-2.9c-0.7-1-1.2-2.1-1.7-3.1c-0.7-1-1.2-2.1-1.7-3.1c-0.5-1-1-2.1-1.5-3.1c-0.5-1-1-2.1-1.5-3.1
			c-0.3-1.2-0.7-2.3-1.2-3.3c-0.3-1-0.7-2.1-1-3.3c-0.5-1-0.9-2.1-1.2-3.1c-0.3-1.2-0.6-2.3-0.7-3.3c-0.3-1.2-0.6-2.4-1-3.6
			c-0.2-1-0.4-2.1-0.7-3.3c-0.2-1-0.3-2.1-0.5-3.3c-0.2-1.2-0.3-2.3-0.5-3.3c-0.2-1.2-0.3-2.4-0.5-3.5c-0.2-1-0.3-2.1-0.5-3.3
			c0-1.2-0.1-2.3-0.2-3.3c0-1.2-0.1-2.3-0.3-3.3c0-1.2,0-2.4,0-3.6c0-1,0-2.1,0-3.3c-0.2-1-0.2-2.1,0-3.3c0-1,0-2.1,0-3.3
			c0-1,0-2.1,0-3.3c0.2-1,0.3-2.1,0.3-3.1c0.2-1,0.2-2.1,0.2-3.3c0.2-1,0.3-2.1,0.5-3.1c0-1,0.1-2.1,0.2-3.1c0.2-1,0.3-2.1,0.5-3.1
			c0.2-0.9,0.3-1.8,0.5-2.9c0.2-1,0.3-2,0.5-2.9c0.2-1,0.3-2,0.5-2.9c0.2-1,0.3-2,0.5-2.9c0.2-0.9,0.3-1.8,0.5-2.7
			c0.3-0.9,0.6-1.8,0.7-2.7c0.2-0.9,0.3-1.8,0.5-2.7c0.3-0.7,0.6-1.6,0.7-2.4c0.2-0.7,0.4-1.5,0.7-2.2c0.2-0.7,0.4-1.6,0.7-2.4
			c0.2-0.6,0.3-1.3,0.5-2c0.3-0.7,0.6-1.5,0.7-2.2c0.3-0.6,0.6-1.2,0.7-1.8c0.2-0.6,0.4-1.2,0.7-2c0.2-0.4,0.4-1,0.7-1.6
			c0.2-0.6,0.4-1.1,0.7-1.6c0.2-0.6,0.3-1.1,0.5-1.6c0.3-0.4,0.6-0.9,0.7-1.3c0.2-0.3,0.4-0.7,0.7-1.1c0.2-0.3,0.3-0.7,0.5-1.1
			c0.2-0.3,0.4-0.6,0.7-0.9c0.2-0.1,0.3-0.4,0.5-0.7c0.2-0.1,0.3-0.3,0.5-0.5s0.3-0.3,0.5-0.4c0.2-0.1,0.3-0.2,0.3-0.2
			c0.8-0.1,1.5-0.3,2.1-0.4c0.8-0.1,1.6-0.3,2.4-0.5c1.1-0.1,2.2-0.3,3.2-0.4c1.1,0,2.3-0.1,3.4-0.2c1.3,0,2.6-0.1,3.9-0.2
			c1.3,0,2.6-0.1,3.9-0.2c1.5,0,2.9,0,4.1,0c1.3,0,2.7,0,4.1,0c1.3,0,2.6,0,3.9,0c1.1,0,2.4,0.1,3.7,0.2c1.1,0,2.3,0,3.4,0
			c1,0.1,1.9,0.2,2.7,0.2c0.8,0.2,1.6,0.3,2.4,0.5c0.7,0,1.2,0.1,1.7,0.2c0.3,0.1,0.7,0.3,1,0.5c0,0.1,0,0.3,0,0.4
			c0,0.2,0,0.3,0,0.5c0,0.3,0,0.6,0,0.9c0,0.3,0,0.7,0,1.1c0,0.4-0.1,0.9-0.2,1.3c0,0.6-0.1,1.1-0.2,1.6c0,0.6-0.1,1.2-0.2,1.8
			c0,0.7-0.1,1.4-0.3,2c0,0.7-0.1,1.5-0.2,2.2c-0.2,0.7-0.2,1.6-0.2,2.4c-0.2,0.7-0.3,1.6-0.5,2.4c-0.2,0.9-0.2,1.8-0.2,2.7
			c-0.2,1-0.3,2-0.5,2.9c-0.2,1-0.2,2-0.2,2.9c-0.2,1-0.3,2.1-0.5,3.1c0,1-0.1,2.1-0.2,3.1c-0.2,1-0.2,2.1-0.2,3.3
			c-0.2,1-0.3,2.1-0.5,3.3c0,1-0.1,2.1-0.2,3.3c0,1,0,2.1,0,3.3c-0.2,1.2-0.2,2.4-0.2,3.5c0,1.2,0,2.3,0,3.3
			c-0.2,1.2-0.3,2.4-0.3,3.5c0,1.2,0,2.4,0,3.6c0.2,1,0.3,2.1,0.3,3.3c0,1.2,0.1,2.4,0.2,3.6c0,1,0.1,2.1,0.2,3.3
			c0,1,0.1,2.1,0.3,3.3c0.2,1,0.3,2.1,0.5,3.1c0.2,1,0.4,2.1,0.7,3.1c0.2,1,0.3,2.1,0.5,3.1c0.3,1,0.6,2,1,2.9c0.3,1,0.6,2,1,2.9
			c0.3,0.9,0.7,1.8,1,2.7c0.3,0.9,0.7,1.7,1.2,2.5c0.5,0.9,1,1.7,1.5,2.4c0.5,0.7,1,1.5,1.5,2.2s1.1,1.4,1.7,2
			c0.5,0.6,1.1,1.2,1.7,1.8c0.7,0.6,1.4,1.1,2.2,1.6c0.6,0.4,1.4,0.9,2.2,1.3c0.8,0.5,1.6,0.8,2.4,1.1c0.8,0.3,1.6,0.6,2.4,0.9
			c1,0.1,1.9,0.3,2.9,0.4c1,0.2,2,0.3,2.9,0.5c0.8,0,1.7-0.1,2.7-0.2c0.8,0,1.6-0.1,2.4-0.2c0.8-0.3,1.6-0.6,2.4-0.9
			c0.8-0.3,1.5-0.6,2.2-0.9c0.8-0.4,1.5-0.9,2.2-1.3c0.7-0.4,1.3-1,1.9-1.6c0.7-0.6,1.2-1.2,1.7-1.8c0.7-0.7,1.2-1.5,1.7-2.2
			c0.7-0.7,1.2-1.5,1.7-2.2c0.5-0.9,1-1.8,1.5-2.7c0.3-0.9,0.7-1.8,1.2-2.7c0.5-0.9,0.9-1.8,1.2-2.9c0.3-0.9,0.7-1.9,1-2.9
			c0.5-1,0.9-2.1,1.2-3.3c0.2-1,0.4-2.1,0.7-3.3c0.3-1,0.7-2.1,1-3.3c0.2-1.2,0.4-2.4,0.7-3.6c0.2-1.2,0.3-2.4,0.5-3.5
			c0.2-1.2,0.4-2.4,0.7-3.6c0.2-1.3,0.3-2.6,0.5-3.8c0.2-1.2,0.3-2.4,0.3-3.8c0.2-1.2,0.3-2.4,0.5-3.5c0.2-1.3,0.3-2.6,0.3-3.8
			c0.2-1.2,0.2-2.4,0.2-3.8c0.2-1.2,0.2-2.4,0.2-3.6c0.2-1.2,0.2-2.4,0.2-3.5c0-1.2,0.1-2.4,0.3-3.6c0-1.2,0-2.4,0-3.5
			c0-1,0.1-2.1,0.2-3.3c0-1,0-2.1,0-3.1c0-1,0-2.1,0-3.1c0-0.9,0-1.8,0-2.9c0-0.9,0-1.8,0-2.7c0.2-0.9,0.2-1.8,0.2-2.7
			c0-0.7,0-1.6,0-2.4c0-0.6,0-1.2,0-2c0-0.6,0-1.3,0-2c0-0.4,0.1-1,0.3-1.6c0-0.4,0-0.9,0-1.3c0-0.4,0.1-0.8,0.2-1.1
			c0-0.3,0-0.6,0-0.9c0.2-0.1,0.2-0.3,0.2-0.5c0.3-0.1,0.6-0.3,0.7-0.4c0.7-0.1,1.2-0.2,1.7-0.2c0.7-0.1,1.4-0.3,2.2-0.4
			c1-0.1,1.9-0.3,2.9-0.5c1.1,0,2.3-0.1,3.4-0.2s2.4-0.2,3.7-0.2c1.3-0.1,2.7-0.2,4.1-0.2c1.3-0.1,2.7-0.2,4.1-0.2
			c1.5,0,2.9-0.1,4.4-0.2c1.5,0,2.9,0,4.4,0c1.3,0,2.7,0,4.1,0c1.3,0,2.6,0,3.9,0c1.3,0.1,2.6,0.2,3.9,0.2c1,0,2,0.1,3.2,0.2
			c1,0.2,2,0.2,2.9,0.2c0.7,0.1,1.4,0.3,2.2,0.4C713.1,358.1,713.6,358.2,714,358.4z"/>
	</g>
</g>
</svg>
