<?xml version="1.0" encoding="utf-8"?>
<!-- Generator: Adobe Illustrator 18.0.0, SVG Export Plug-In . SVG Version: 6.00 Build 0)  -->
<!DOCTYPE svg PUBLIC "-//W3C//DTD SVG 1.1//EN" "http://www.w3.org/Graphics/SVG/1.1/DTD/svg11.dtd">
<svg version="1.1" id="Camada_1" xmlns="http://www.w3.org/2000/svg" xmlns:xlink="http://www.w3.org/1999/xlink" x="0px" y="0px"
	 viewBox="0 0 1024 768" enable-background="new 0 0 1024 768" xml:space="preserve">
<g>
	<defs>
		<circle id="SVGID_1_" cx="511.9" cy="383.4" r="375.7"/>
	</defs>
	<clipPath id="SVGID_2_">
		<use xlink:href="#SVGID_1_"  overflow="visible"/>
	</clipPath>
	<g clip-path="url(#SVGID_2_)" enable-background="new    ">
		
			<image overflow="visible" width="2474" height="2474" xlink:href="../../banco de imagens/botões/butt 25.png"  transform="matrix(0.3065 0 0 0.3065 132.8006 4.7999)">
		</image>
	</g>
</g>
<g>
	<g>
		<g>
			<g>
				<path d="M700.9,471.1c-0.2,1-0.4,2-0.6,3.2c-0.2,1-0.5,1.9-0.9,2.9c-0.4,1.1-0.8,2.2-1.1,3.2c-0.6,1.1-1,2.2-1.4,3.2
					c-0.6,1-1.1,1.9-1.7,2.9c-0.6,1.1-1.2,2.2-1.7,3.2c-0.8,1-1.5,1.9-2.3,2.9c-0.6,1-1.2,2-2,3.2c-0.7,1-1.6,1.9-2.5,2.9
					c-0.8,1-1.6,1.8-2.6,2.6c-1,1-1.8,1.9-2.6,2.9c-0.9,1-2,1.8-3.1,2.6c-1,1-1.9,1.8-2.8,2.6c-1.1,1-2.2,1.8-3.1,2.6
					c-1.2,0.8-2.3,1.5-3.4,2.3c-1.1,1-2.3,1.7-3.4,2.3c-1.1,0.8-2.3,1.5-3.4,2.3c-1.1,0.8-2.3,1.4-3.4,2c-1.3,0.8-2.5,1.4-3.7,2
					c-1.3,0.8-2.5,1.4-3.7,2c-1.3,0.6-2.6,1.1-3.7,1.7c-1.3,0.4-2.7,0.9-4,1.4c-1.3,0.6-2.5,1.1-3.7,1.4c-1.3,0.4-2.7,0.8-4,1.2
					c-1.3,0.4-2.6,0.8-4,1.1c-1.3,0.4-2.5,0.7-3.7,0.9c-1.3,0.4-2.6,0.7-4,0.9c-1.3,0.2-2.6,0.4-4,0.6c-1.3,0.2-2.6,0.3-3.7,0.3
					c-1.7,0.2-3.4,0.3-5.1,0.3c-1.5,0-3,0.1-4.5,0.3c-1.7,0-3.3,0-4.8,0s-3-0.1-4.5-0.3c-1.5,0-3,0-4.5,0c-1.5-0.2-2.9-0.3-4.2-0.3
					c-1.5-0.2-3-0.4-4.5-0.6c-1.3-0.2-2.6-0.4-4-0.6c-1.5-0.2-2.9-0.4-4.3-0.6s-2.6-0.5-4-0.9c-1.3-0.2-2.6-0.5-4-0.9
					c-1.3-0.2-2.6-0.5-3.7-0.9c-1.3-0.4-2.6-0.8-3.7-1.1c-1.3-0.4-2.5-0.8-3.7-1.1c-1.1-0.4-2.4-0.9-3.7-1.4
					c-1.1-0.4-2.3-0.9-3.4-1.4c-1-0.4-2-0.9-3.1-1.4c-1.2-0.6-2.3-1.1-3.4-1.4c-0.9-0.6-2-1.2-3.1-1.7c-1-0.8-1.9-1.4-2.8-2
					c-1.1-0.6-2.2-1.3-3.1-2c-0.9-0.6-1.9-1.3-2.8-2c-0.7-0.6-1.6-1.2-2.5-2c-1-0.8-1.8-1.5-2.6-2.3c-0.9-0.8-1.8-1.5-2.6-2.3
					c-0.9-0.8-1.8-1.5-2.5-2.3c-0.8-1-1.5-1.8-2.3-2.6c-0.7-1-1.5-1.8-2.3-2.6c-0.8-1-1.5-1.9-2.3-2.9c-0.6-0.8-1.2-1.6-2-2.6
					c-0.6-1-1.2-1.9-2-2.9c-0.6-1.1-1.1-2.2-1.7-3.2c-0.6-1-1.2-2-1.7-3.2c-0.6-1-1.1-1.9-1.7-2.9c-0.6-1.2-1-2.3-1.4-3.5
					c-0.6-1.1-1-2.2-1.4-3.2c-0.6-1.1-1-2.3-1.4-3.5c-0.4-1.1-0.7-2.3-1.1-3.4c-0.4-1.3-0.7-2.6-1.1-3.7c-0.4-1.1-0.7-2.4-1.1-3.7
					c-0.4-1.1-0.7-2.4-0.9-3.7c-0.4-1.1-0.7-2.4-0.9-3.7c-0.2-1.3-0.5-2.7-0.9-4c-0.2-1.1-0.4-2.4-0.6-3.7c-0.2-1.3-0.3-2.6-0.3-3.7
					c-0.2-1.3-0.3-2.7-0.3-4c-0.2-1.1-0.3-2.4-0.3-3.7s0-2.6,0-3.7c0-1.3,0.1-2.6,0.3-3.7c0-1.3,0.1-2.6,0.3-3.7
					c0-1.3,0.1-2.6,0.3-3.7c0.2-1.3,0.4-2.6,0.6-3.7c0.2-1.3,0.4-2.6,0.6-3.7c0.4-1.1,0.7-2.3,0.9-3.5c0.4-1.3,0.7-2.6,0.9-3.7
					c0.4-1.1,0.7-2.3,1.1-3.4c0.4-1.2,0.7-2.3,1.1-3.5c0.4-1.1,0.9-2.3,1.4-3.4c0.4-1.2,0.9-2.3,1.4-3.5c0.4-1.1,0.9-2.2,1.4-3.2
					c0.6-1.2,1.2-2.3,1.7-3.5c0.6-1,1.1-2,1.7-3.2c0.6-1.1,1.2-2.2,2-3.2c0.6-1,1.2-2,2-3.2c0.6-1,1.2-1.9,2-2.9
					c0.8-1,1.5-1.9,2.3-2.9c0.7-1,1.5-1.9,2.3-2.9c0.7-1,1.5-1.9,2.3-2.9c0.8-1,1.6-1.9,2.6-2.9c0.8-0.8,1.6-1.6,2.6-2.6
					c0.9-0.8,1.8-1.5,2.6-2.3c0.9-1,1.9-1.8,2.8-2.6c0.9-0.8,1.9-1.5,2.8-2.3c0.9-0.8,2-1.5,3.1-2.3c0.9-0.8,1.9-1.5,2.8-2.3
					c1.1-0.6,2.2-1.2,3.1-2c1.1-0.6,2.2-1.2,3.1-2c1.2-0.6,2.3-1.1,3.4-1.7c1.1-0.6,2.3-1.1,3.4-1.7c1.1-0.6,2.3-1.2,3.4-1.7
					c1.1-0.6,2.3-1.1,3.4-1.4c1.1-0.6,2.3-1,3.4-1.4c1.3-0.6,2.6-1.1,3.7-1.4c1.3-0.4,2.6-0.8,3.7-1.1c1.3-0.4,2.6-0.7,3.7-0.9
					c1.3-0.4,2.6-0.8,4-1.1c1.3-0.2,2.6-0.4,4-0.6c1.7-0.4,3.4-0.7,5.1-0.9c1.7-0.4,3.5-0.6,5.4-0.8c1.5-0.2,3.1-0.3,4.8-0.3
					c1.7-0.2,3.4-0.3,5.1-0.3c1.5,0,3.1,0,4.8,0c1.5,0,3,0,4.5,0c1.5,0,3,0.1,4.5,0.3c1.5,0.2,3,0.4,4.5,0.6
					c1.5,0.2,2.9,0.4,4.3,0.6c1.5,0.2,2.9,0.5,4.2,0.9c1.3,0.4,2.8,0.7,4.3,0.9c1.3,0.4,2.6,0.8,4,1.1c1.1,0.4,2.4,0.9,3.7,1.4
					c1.3,0.4,2.5,0.9,3.7,1.4c1.3,0.4,2.5,0.9,3.7,1.4c1.1,0.6,2.3,1.1,3.4,1.7c1.1,0.6,2.3,1.1,3.4,1.7c1.1,0.6,2.3,1.2,3.4,2
					c1.1,0.6,2.2,1.2,3.1,2c1.1,0.6,2.2,1.2,3.1,2c0.9,0.8,1.9,1.5,2.8,2.3c0.9,0.8,1.9,1.5,2.8,2.3c0.9,0.8,1.9,1.5,2.8,2.3
					c0.7,0.8,1.6,1.5,2.6,2.3c0.7,1,1.6,1.8,2.5,2.6c0.8,1,1.5,1.8,2.3,2.6c0.7,1,1.5,1.8,2.3,2.6c0.7,1,1.5,1.9,2.3,2.9
					c0.8,0.8,1.4,1.6,2,2.6c0.8,1,1.4,1.9,2,2.9c0.7,1,1.4,1.8,2,2.6c0.6,1,1.1,1.9,1.7,2.9c0.6,1,1.2,1.9,1.7,2.9
					c0.6,1,1.1,1.9,1.7,2.9c0.4,1,0.9,1.9,1.4,2.9c0.4,1,0.7,1.9,1.1,2.9c0.6,1,1,1.9,1.4,2.9c0.4,1,0.8,1.9,1.1,2.9
					c0.4,0.8,0.8,1.6,1.2,2.6c0.4,1,0.7,1.9,0.8,2.9c0.4,1,0.7,1.9,0.9,2.9c0.4,0.8,0.7,1.6,0.9,2.6c0.2,1,0.4,1.8,0.6,2.6
					c0.4,1,0.7,1.8,0.9,2.6c0,1,0.1,1.8,0.3,2.6c0.2,1,0.4,1.8,0.6,2.6c0,0.8,0.1,1.5,0.3,2.3c0,0.8,0.1,1.5,0.3,2.3
					c0,0.8,0,1.5,0,2.3c0,0.8,0,1.5,0,2.3c0,0.6,0,1.3,0,2c0,0.6,0,1.3,0,2c-0.2,0.6-0.3,1.1-0.3,1.7c-0.2,0.6-0.3,1.2-0.3,1.7
					c-0.2,0.6-0.4,1.1-0.6,1.7c0,0.6-0.1,1.1-0.3,1.4c-0.2,0.6-0.4,1.1-0.6,1.4c-0.2,0.4-4.7,7.8-4.7,7.8s-45.8,12.4-70.4,13.8
					c-24.6,1.4-44.1-0.6-45.2-0.7c-1.3-0.4-2.3,5.7,10.5,8.1c12.8,2.3,16.6-8.6,16.6-8.6s16-3.8,36.2-3.7
					c10.7-0.8,26.9,0.1,28.4-0.1c1.5,0,20.6,0.9,23.2,3.7c2.6,2.8-0.2,14.4,0,14.6C701.1,470.4,701.1,470.7,700.9,471.1z"/>
			</g>
		</g>
		<path fill="#FFFFFF" d="M676.9,464.6c-0.1,0.8-0.4,1.5-0.7,2.3c-0.3,0.9-0.6,1.8-0.9,2.5c-0.4,0.9-0.8,1.8-1.1,2.5
			c-0.5,0.8-0.9,1.5-1.4,2.3c-0.5,0.9-0.9,1.8-1.4,2.5c-0.6,0.8-1.2,1.5-1.8,2.3c-0.5,0.8-1,1.6-1.6,2.5c-0.6,0.8-1.3,1.5-2.1,2.3
			c-0.6,0.8-1.3,1.5-2.1,2.1c-0.8,0.8-1.5,1.5-2.1,2.3c-0.8,0.8-1.6,1.5-2.5,2.1c-0.8,0.8-1.5,1.5-2.3,2.1c-0.9,0.8-1.8,1.5-2.5,2.1
			c-0.9,0.6-1.8,1.2-2.8,1.8c-0.9,0.8-1.9,1.4-2.8,1.9c-0.9,0.6-1.8,1.2-2.8,1.8c-0.9,0.6-1.9,1.1-2.8,1.6c-1.1,0.6-2.1,1.1-3,1.6
			c-1.1,0.6-2.1,1.1-3,1.6c-1.1,0.4-2.1,0.9-3,1.4c-1.1,0.3-2.2,0.7-3.2,1.1c-1.1,0.5-2.1,0.8-3,1.2c-1.1,0.3-2.2,0.6-3.2,0.9
			c-1.1,0.3-2.2,0.6-3.2,0.9c-1.1,0.3-2.1,0.5-3,0.7c-1.1,0.3-2.1,0.5-3.2,0.7c-1.1,0.1-2.2,0.3-3.2,0.4c-1.1,0.1-2.1,0.2-3,0.2
			c-1.4,0.2-2.8,0.2-4.2,0.2c-1.2,0-2.5,0.1-3.7,0.2c-1.4,0-2.7,0-3.9,0c-1.2,0-2.5-0.1-3.7-0.2c-1.2,0-2.5,0-3.7,0
			c-1.2-0.1-2.4-0.2-3.5-0.2c-1.2-0.1-2.5-0.3-3.7-0.4c-1.1-0.1-2.2-0.3-3.2-0.5c-1.2-0.1-2.4-0.3-3.5-0.4c-1.1-0.1-2.1-0.4-3.2-0.7
			c-1.1-0.1-2.1-0.4-3.2-0.7c-1.1-0.1-2.1-0.4-3-0.7c-1.1-0.3-2.1-0.6-3-0.9c-1.1-0.3-2.1-0.6-3-0.9c-0.9-0.3-1.9-0.7-3-1.2
			c-0.9-0.3-1.8-0.7-2.8-1.1c-0.8-0.3-1.6-0.7-2.5-1.2c-0.9-0.4-1.9-0.8-2.8-1.1c-0.8-0.5-1.6-0.9-2.5-1.4c-0.8-0.6-1.5-1.1-2.3-1.6
			c-0.9-0.4-1.8-1-2.5-1.6c-0.8-0.4-1.5-1-2.3-1.6c-0.6-0.4-1.3-1-2.1-1.6c-0.8-0.6-1.5-1.2-2.1-1.8c-0.8-0.6-1.5-1.2-2.1-1.8
			c-0.8-0.6-1.5-1.2-2.1-1.9c-0.6-0.8-1.2-1.4-1.9-2.1c-0.6-0.8-1.2-1.5-1.8-2.1c-0.6-0.8-1.2-1.5-1.8-2.3c-0.5-0.6-1-1.3-1.6-2.1
			c-0.5-0.8-1-1.5-1.6-2.3c-0.5-0.9-0.9-1.8-1.4-2.5c-0.4-0.8-0.9-1.6-1.4-2.5c-0.4-0.7-0.9-1.5-1.4-2.3c-0.5-0.9-0.8-1.9-1.2-2.8
			c-0.4-0.9-0.8-1.8-1.1-2.5c-0.5-0.9-0.8-1.8-1.2-2.8c-0.3-0.9-0.6-1.9-0.9-2.8c-0.3-1.1-0.6-2.1-0.9-3c-0.3-0.9-0.6-1.9-0.9-3
			c-0.3-0.9-0.5-1.9-0.7-3c-0.3-0.9-0.5-1.9-0.7-3c-0.1-1.1-0.4-2.2-0.7-3.2c-0.1-0.9-0.3-1.9-0.4-3c-0.1-1.1-0.2-2.1-0.2-3
			c-0.1-1.1-0.2-2.2-0.2-3.2c-0.1-0.9-0.2-1.9-0.2-3c0-1.1,0-2.1,0-3c0-1.1,0.1-2.1,0.2-3c0-1.1,0.1-2.1,0.2-3c0-1.1,0.1-2.1,0.2-3
			c0.1-1.1,0.3-2.1,0.4-3c0.2-1.1,0.3-2.1,0.5-3c0.3-0.9,0.5-1.8,0.7-2.8c0.3-1.1,0.5-2.1,0.7-3c0.3-0.9,0.6-1.8,0.9-2.8
			c0.3-0.9,0.6-1.9,0.9-2.8c0.3-0.9,0.7-1.8,1.1-2.8c0.3-0.9,0.7-1.9,1.2-2.8c0.3-0.9,0.7-1.8,1.1-2.5c0.5-0.9,0.9-1.8,1.4-2.8
			c0.5-0.8,0.9-1.6,1.4-2.5c0.4-0.9,1-1.8,1.6-2.5c0.4-0.8,1-1.6,1.6-2.5c0.4-0.8,1-1.5,1.6-2.3c0.6-0.8,1.2-1.5,1.8-2.3
			c0.6-0.7,1.2-1.5,1.8-2.3c0.6-0.8,1.2-1.5,1.9-2.3c0.6-0.8,1.3-1.5,2.1-2.3c0.6-0.6,1.3-1.3,2.1-2.1c0.8-0.6,1.5-1.2,2.1-1.8
			c0.8-0.8,1.5-1.5,2.3-2.1c0.8-0.6,1.5-1.2,2.3-1.8c0.8-0.6,1.6-1.2,2.5-1.8c0.8-0.6,1.5-1.2,2.3-1.9c0.9-0.4,1.8-1,2.5-1.6
			c0.9-0.4,1.8-1,2.5-1.6c0.9-0.4,1.8-0.9,2.8-1.4c0.9-0.5,1.8-0.9,2.8-1.4c0.9-0.5,1.9-0.9,2.8-1.4c0.9-0.4,1.8-0.8,2.8-1.1
			c0.9-0.5,1.9-0.8,2.8-1.2c1.1-0.4,2.1-0.8,3-1.1c1.1-0.3,2.1-0.6,3-0.9c1.1-0.3,2.1-0.5,3-0.7c1.1-0.3,2.2-0.6,3.2-0.9
			c1.1-0.1,2.2-0.3,3.2-0.5c1.4-0.3,2.8-0.5,4.1-0.7c1.4-0.3,2.8-0.5,4.4-0.7c1.2-0.1,2.5-0.2,3.9-0.2c1.4-0.1,2.8-0.2,4.1-0.2
			c1.2,0,2.5,0,3.9,0c1.2,0,2.5,0,3.7,0c1.2,0,2.5,0.1,3.7,0.2c1.2,0.1,2.5,0.3,3.7,0.5c1.2,0.1,2.4,0.3,3.4,0.4
			c1.2,0.1,2.4,0.4,3.4,0.7c1.1,0.3,2.2,0.5,3.5,0.7c1.1,0.3,2.1,0.6,3.2,0.9c0.9,0.3,1.9,0.7,3,1.2c1.1,0.3,2.1,0.7,3,1.1
			c1.1,0.3,2.1,0.7,3,1.1c0.9,0.5,1.8,0.9,2.8,1.4c0.9,0.5,1.9,0.9,2.8,1.4c0.9,0.4,1.8,1,2.8,1.6c0.9,0.4,1.8,1,2.5,1.6
			c0.9,0.4,1.8,1,2.5,1.6c0.8,0.6,1.5,1.2,2.3,1.8c0.8,0.6,1.5,1.2,2.3,1.9c0.8,0.6,1.5,1.2,2.3,1.8c0.6,0.6,1.3,1.2,2.1,1.8
			c0.6,0.8,1.3,1.5,2.1,2.1c0.6,0.8,1.2,1.5,1.9,2.1c0.6,0.8,1.2,1.5,1.8,2.1c0.6,0.8,1.2,1.5,1.8,2.3c0.6,0.6,1.2,1.3,1.6,2.1
			c0.6,0.8,1.2,1.5,1.6,2.3c0.6,0.8,1.2,1.5,1.6,2.1c0.5,0.8,0.9,1.5,1.4,2.3c0.5,0.8,0.9,1.5,1.4,2.3c0.4,0.8,0.9,1.5,1.4,2.3
			c0.3,0.8,0.7,1.5,1.2,2.3c0.3,0.8,0.6,1.5,0.9,2.3c0.5,0.8,0.8,1.5,1.1,2.3c0.3,0.8,0.6,1.5,0.9,2.3c0.3,0.6,0.6,1.3,0.9,2.1
			c0.3,0.8,0.5,1.5,0.7,2.3c0.3,0.8,0.5,1.5,0.7,2.3c0.3,0.6,0.5,1.3,0.7,2.1c0.1,0.8,0.3,1.5,0.5,2.1c0.3,0.8,0.5,1.5,0.7,2.1
			c0,0.8,0.1,1.5,0.2,2.1c0.1,0.8,0.3,1.5,0.5,2.1c0,0.6,0.1,1.2,0.2,1.9c0,0.6,0.1,1.2,0.2,1.8c0,0.6,0,1.2,0,1.8
			c0,0.6,0,1.2,0,1.9c0,0.4,0,1,0,1.6c0,0.4,0,1,0,1.6c-0.1,0.4-0.2,0.9-0.2,1.4c-0.1,0.5-0.2,0.9-0.2,1.4c-0.2,0.5-0.3,0.9-0.5,1.4
			c0,0.4-0.1,0.8-0.2,1.1c-0.1,0.5-0.3,0.8-0.5,1.2c-0.1,0.3-0.4,0.6-0.7,0.9c-0.1,0.3-0.3,0.6-0.4,0.9c-0.1,0.1-0.4,0.4-0.7,0.7
			c-0.1,0.1-0.4,0.4-0.7,0.7c-0.3,0.1-0.7,0.4-1.1,0.7c-0.3,0.1-0.7,0.4-1.2,0.7c-0.4,0.2-0.9,0.4-1.4,0.7c-0.6,0.2-1.1,0.4-1.6,0.7
			c-0.6,0.1-1.2,0.4-1.8,0.7c-0.6,0.1-1.2,0.4-1.8,0.7c-0.6,0.1-1.3,0.4-2.1,0.7c-0.8,0.1-1.5,0.4-2.1,0.7c-0.8,0.1-1.5,0.3-2.3,0.4
			c-0.9,0.3-1.8,0.5-2.5,0.7c-0.8,0.3-1.6,0.5-2.5,0.7c-0.9,0.1-1.8,0.4-2.8,0.7c-0.8,0.1-1.6,0.3-2.5,0.4c-1.1,0.2-2.1,0.3-3,0.5
			c-0.9,0.3-1.9,0.5-3,0.7c-0.9,0.1-1.9,0.3-3,0.4c-0.9,0.2-1.9,0.3-3,0.5c-1.1,0.1-2.2,0.3-3.2,0.4c-0.9,0.2-1.9,0.3-3,0.5
			c-1.1,0-2.2,0.1-3.2,0.2c-1.2,0.2-2.4,0.2-3.4,0.2c-1.1,0.1-2.2,0.3-3.2,0.4c-1.1,0-2.2,0.1-3.5,0.2c-1.1,0-2.1,0-3.2,0
			c-1.2,0.1-2.4,0.2-3.4,0.2c-1.1,0-2.2,0-3.4,0c-1.1,0-2.2,0-3.2,0c-1.1,0-2.2,0-3.5,0c-1.1,0-2.1,0-3.2,0
			c-1.2-0.1-2.4-0.2-3.4-0.2c-1.1,0-2.2-0.1-3.2-0.2c-1.1-0.1-2.2-0.2-3.2-0.2c-1.1-0.1-2.2-0.3-3.2-0.5c-1.1-0.1-2.2-0.3-3.2-0.4
			c-0.9-0.1-1.9-0.3-3-0.5c-1.1-0.1-2.1-0.3-3-0.4c-1.1-0.3-2.1-0.5-3-0.7c-1.1,0-2-0.3-2.8-0.9c-1.5-0.9-3.5,22.2,16.9,25.9
			c17.8,3,25.2-5.2,25.2-5.2s13.5-1,24.7-1.8C651.8,463.5,677,463.6,676.9,464.6z M575.2,417.6c0.3,0.6,1.2,1.1,2.8,1.4
			c1.1,0.2,2.2,0.5,3.2,1.2c0.9,0.3,2,0.6,3.2,0.9c1.2,0.1,2.4,0.4,3.5,0.7c1.1,0.1,2.2,0.3,3.4,0.5c1.2,0,2.4,0.1,3.4,0.2
			c1.2,0,2.4,0,3.5,0c1.1,0,2.1,0,3.2,0c1.1,0,2.1-0.1,3.2-0.2c0.9,0,1.8-0.1,2.8-0.2c0.8-0.1,1.6-0.4,2.5-0.7
			c0.6-0.1,1.3-0.3,2.1-0.4c0.6-0.3,1.1-0.6,1.6-0.9c0.5-0.1,0.8-0.5,1.1-0.9c0.6-0.6,1.2-1.3,1.9-2.1c0.4-0.9,0.8-1.8,1.1-2.5
			c0.3-0.9,0.5-1.9,0.7-2.8c0.1-0.9,0.2-1.8,0.2-2.8c0-0.9-0.1-1.8-0.2-2.8c-0.3-0.9-0.5-1.8-0.7-2.5c-0.3-0.9-0.7-1.8-1.1-2.8
			c-0.5-0.8-1-1.5-1.6-2.3c-0.5-0.8-1.1-1.5-1.9-2.1c-0.6-0.6-1.3-1.2-2.1-1.8c-0.9-0.5-1.8-0.9-2.8-1.4c-0.9-0.4-1.8-0.8-2.8-0.9
			c-1.1-0.3-2.2-0.4-3.2-0.4c-0.8,0-1.5,0.1-2.1,0.2c-0.8,0-1.5,0.1-2.3,0.2c-0.8,0.3-1.6,0.6-2.5,0.9c-0.8,0.3-1.5,0.6-2.3,0.9
			c-0.9,0.5-1.8,0.9-2.5,1.4c-0.8,0.6-1.5,1.2-2.3,1.8c-0.9,0.6-1.8,1.3-2.5,2.1c-0.8,0.6-1.5,1.4-2.3,2.3c-0.6,0.8-1.3,1.6-2.1,2.5
			c-0.6,0.9-1.2,1.9-1.9,3c-0.8,0.9-1.4,1.9-1.8,3c-0.3,1.4-0.8,2.6-1.4,3.7C575.4,415.5,575.1,416.7,575.2,417.6z"/>
	</g>
	<g>
		<path d="M317.2,523.7c0-0.2-0.1-0.3-0.3-0.3c0-0.2-0.1-0.4-0.3-0.6c0-0.4-0.1-0.6-0.3-0.8c0-0.4-0.1-0.7-0.3-0.8
			c0-0.4-0.1-0.7-0.3-1.1c0-0.6,0-1,0-1.4c-0.2-0.6-0.3-1.1-0.3-1.7c-0.2-0.6-0.3-1.1-0.3-1.7s-0.1-1.2-0.3-2c0-0.7-0.1-1.4-0.3-2
			c0-0.7,0-1.5,0-2.2c-0.2-0.9-0.3-1.8-0.3-2.5c0-0.9-0.1-1.8-0.3-2.5c0-0.9,0-1.9,0-2.8c0-0.9-0.1-2-0.3-3.1c0-0.9,0-1.9,0-2.8
			c0-1.1-0.1-2.2-0.3-3.3c0-1.1,0-2.2,0-3.3c0-1.1-0.1-2.2-0.3-3.3c0-1.1,0-2.3,0-3.6c0-1.1,0-2.3,0-3.6c-0.2-1.3-0.3-2.6-0.3-3.9
			c0-1.3,0-2.6,0-3.9c0-1.3,0-2.6,0-3.9c0-1.5-0.1-2.9-0.3-4.2c0-1.5,0-2.9,0-4.2c0-1.5,0-3,0-4.5c0-1.5,0-3,0-4.5c0-1.5,0-3,0-4.5
			c0-1.5-0.1-3-0.3-4.5c0-1.7,0-3.2,0-4.7c0-1.5,0-3.1,0-4.7c0-1.5,0-3.1,0-4.7c0-1.7,0-3.3,0-4.7c0-1.7,0-3.3,0-5
			c0-1.7,0-3.2,0-4.7c0-1.7,0-3.3,0-5c0-1.7,0-3.3,0-5c0-1.7,0-3.3,0-5c0-1.7,0.1-3.3,0.3-5c0-1.9,0-3.6,0-5.3c0-1.7,0-3.3,0-5
			c0-1.7,0-3.3,0-5c0-1.9,0-3.6,0-5.3c0-1.7,0-3.3,0-5c0.2-1.7,0.3-3.4,0.3-5.3c0-1.7,0-3.3,0-5c0-1.7,0-3.3,0-5
			c0-1.7,0.1-3.4,0.3-5.3c0-1.7,0-3.3,0-5c0-1.7,0-3.3,0-5c0-1.7,0.1-3.3,0.3-5c0-1.7,0-3.3,0-5c0-1.7,0-3.2,0-4.7
			c0.2-1.7,0.3-3.3,0.3-5c0-1.7,0-3.2,0-4.7c0-1.7,0.1-3.2,0.3-4.7c0-1.7,0-3.3,0-4.7c0-1.7,0.1-3.3,0.3-4.7c0-1.5,0-3,0-4.5
			c0-1.7,0.1-3.2,0.3-4.7c0-1.5,0-2.9,0-4.2c0-1.5,0.1-3,0.3-4.5c0-1.5,0-2.9,0-4.2c0-1.5,0.1-2.9,0.3-4.2c0-1.3,0-2.7,0-4.2
			c0.2-1.3,0.3-2.6,0.3-3.9c0-1.3,0.1-2.5,0.3-3.6c0-1.3,0-2.6,0-3.9c0-1.1,0.1-2.3,0.3-3.6c0-1.1,0-2.2,0-3.3
			c0.2-1.1,0.3-2.2,0.3-3.3c0-1.1,0.1-2.1,0.3-3.1c0-1.1,0-2.1,0-3.1c0.2-1.1,0.3-2.1,0.3-3.1c0-0.9,0.1-1.9,0.3-2.8
			c0-0.7,0.1-1.6,0.3-2.5c0-0.7,0-1.6,0-2.5c0.2-0.7,0.3-1.5,0.3-2.2c0-0.7,0.1-1.4,0.3-2c0-0.7,0.1-1.4,0.3-2c0-0.6,0-1.1,0-1.7
			c0.2-0.6,0.3-1.1,0.3-1.7c0-0.4,0.1-0.8,0.3-1.4c0-0.4,0.1-0.7,0.3-1.1c0-0.4,0-0.7,0-1.1c0.2-0.2,0.3-0.4,0.3-0.6
			c0-0.2,0.1-0.4,0.3-0.6c0-0.2,0.1-0.3,0.3-0.3c0.2-0.4,0.5-0.6,0.9-0.8c0.2-0.4,0.5-0.7,0.9-0.8c0.4-0.2,0.7-0.4,0.9-0.6
			c0.4-0.2,0.8-0.4,1.2-0.6c0.6-0.2,1.1-0.4,1.5-0.6c0.6-0.4,1.1-0.6,1.5-0.6c0.6-0.2,1.2-0.4,1.8-0.6c0.6-0.2,1.2-0.4,1.8-0.6
			c0.8-0.2,1.5-0.4,2.1-0.6c0.8,0,1.6-0.1,2.4-0.3c1-0.2,1.9-0.3,2.7-0.3c1-0.2,2-0.3,3-0.3c1-0.2,2-0.3,3-0.3
			c1.2-0.2,2.4-0.3,3.6-0.3c1.2-0.2,2.5-0.3,3.9-0.3c1.4,0,2.8-0.1,4.2-0.3c1.4,0,2.9,0,4.5,0c1.6-0.2,3.3-0.3,5.1-0.3
			c1.6,0,3.3,0,5.1,0c2,0,4,0,6,0s4,0,6,0c2.2,0,4.4,0,6.6,0c2.4,0,4.8,0,7.2,0c2.6,0,5.2,0,7.8,0c2.6,0,5.3,0.1,8.1,0.3
			c2.8,0,5.7,0,8.7,0c1.6,0,3.3,0.1,5.1,0.3c1.6,0,3.3,0.1,5.1,0.3c1.6,0,3.2,0.1,4.8,0.3c1.6,0,3.2,0.1,4.8,0.3
			c1.6,0.2,3.2,0.4,4.8,0.6c1.6,0.2,3.2,0.4,4.8,0.6c1.6,0.2,3.2,0.5,4.8,0.8c1.4,0.2,2.9,0.5,4.5,0.8c1.4,0.2,2.8,0.5,4.2,0.8
			c1.6,0.4,3.1,0.7,4.5,0.8c1.4,0.4,2.8,0.7,4.2,1.1c1.4,0.4,2.8,0.8,4.2,1.4c1.4,0.4,2.7,0.7,3.9,1.1c1.4,0.6,2.7,1,3.9,1.4
			c1.4,0.6,2.7,1.1,3.9,1.7c1.4,0.4,2.7,0.8,3.9,1.4c1.2,0.6,2.4,1.1,3.6,1.7c1.2,0.6,2.4,1.2,3.6,2c1,0.6,2.1,1.1,3.3,1.7
			c1.2,0.7,2.3,1.5,3.3,2.2c1.2,0.6,2.3,1.2,3.3,1.9c1,0.7,2,1.5,3,2.2c1,0.7,2,1.5,3,2.2c1,0.7,2,1.6,3,2.5c1,0.7,1.9,1.6,2.7,2.5
			c1,0.7,1.9,1.6,2.7,2.5c0.8,0.9,1.6,1.9,2.4,2.8c1,0.9,1.9,1.9,2.7,2.8c0.6,0.9,1.3,1.9,2.1,2.8c0.8,0.9,1.5,2,2.1,3.1
			c0.8,0.9,1.5,2,2.1,3.1c0.8,1.1,1.5,2.2,2.1,3.3c0.6,1.1,1.2,2.2,1.8,3.3c0.6,1.1,1.1,2.2,1.5,3.3c0.6,1.1,1.2,2.2,1.8,3.3
			c0.4,1.3,0.8,2.6,1.2,3.9c0.6,1.1,1.1,2.3,1.5,3.6c0.4,1.3,0.8,2.6,1.2,3.9c0.2,1.3,0.5,2.6,0.9,3.9c0.4,1.3,0.7,2.7,0.9,4.2
			c0.2,1.3,0.5,2.6,0.9,3.9c0.2,1.5,0.4,3,0.6,4.5c0.2,1.5,0.3,3,0.3,4.5c0.2,1.5,0.3,3,0.3,4.5c0.2,1.5,0.3,3,0.3,4.5
			c0,2,0,4,0,5.9c0,1.9-0.1,3.7-0.3,5.6c-0.2,1.9-0.4,3.7-0.6,5.6c-0.2,1.7-0.5,3.3-0.9,5c-0.2,1.7-0.5,3.3-0.9,5
			c-0.4,1.7-1.5,4.7-1.5,4.7C536.6,407,453,421.9,443,426.7c4.8,11.5,13.8,92.2,10.6,98.1c-3.2,5.9-40.6,12.1-84.3,12.1
			S317.6,523.9,317.2,523.7z"/>
		<path fill="#FFFFFF" d="M337.9,508.3c0-0.2-0.1-0.3-0.2-0.3c0-0.2-0.1-0.3-0.2-0.5c0-0.3-0.1-0.6-0.2-0.8c0-0.3-0.1-0.6-0.2-0.8
			c0-0.3-0.1-0.7-0.2-1c0-0.5,0-0.9,0-1.3c-0.2-0.5-0.2-1-0.2-1.5c-0.2-0.5-0.2-1-0.2-1.5s-0.1-1.1-0.2-1.8c0-0.7-0.1-1.3-0.2-1.8
			c0-0.7,0-1.3,0-2c-0.2-0.8-0.2-1.6-0.2-2.3c0-0.8-0.1-1.6-0.2-2.3c0-0.8,0-1.7,0-2.5s-0.1-1.8-0.2-2.8c0-0.8,0-1.7,0-2.5
			c0-1-0.1-2-0.2-3c0-1,0-2,0-3c0-1-0.1-2-0.2-3c0-1,0-2.1,0-3.3c0-1,0-2.1,0-3.3c-0.2-1.2-0.2-2.4-0.2-3.5c0-1.2,0-2.4,0-3.5
			c0-1.2,0-2.4,0-3.5c0-1.3-0.1-2.6-0.2-3.8c0-1.3,0-2.6,0-3.8c0-1.3,0-2.7,0-4c0-1.3,0-2.7,0-4c0-1.3,0-2.7,0-4
			c0-1.3-0.1-2.7-0.2-4c0-1.5,0-2.9,0-4.3c0-1.3,0-2.8,0-4.3c0-1.3,0-2.8,0-4.3c0-1.5,0-2.9,0-4.3c0-1.5,0-3,0-4.5
			c0-1.5,0-2.9,0-4.3c0-1.5,0-3,0-4.5c0-1.5,0-3,0-4.5s0-3,0-4.5c0-1.5,0.1-3,0.2-4.5c0-1.7,0-3.3,0-4.8c0-1.5,0-3,0-4.5
			c0-1.5,0-3,0-4.5c0-1.7,0-3.3,0-4.8c0-1.5,0-3,0-4.5c0.2-1.5,0.2-3.1,0.2-4.8c0-1.5,0-3,0-4.5s0-3,0-4.5c0-1.5,0.1-3.1,0.2-4.8
			c0-1.5,0-3,0-4.5s0-3,0-4.5c0-1.5,0.1-3,0.2-4.5c0-1.5,0-3,0-4.5c0-1.5,0-2.9,0-4.3c0.2-1.5,0.2-3,0.2-4.5s0-2.9,0-4.3
			c0-1.5,0.1-2.9,0.2-4.3c0-1.5,0-2.9,0-4.3c0-1.5,0.1-2.9,0.2-4.3c0-1.3,0-2.7,0-4c0-1.5,0.1-2.9,0.2-4.3c0-1.3,0-2.6,0-3.8
			c0-1.3,0.1-2.7,0.2-4c0-1.3,0-2.6,0-3.8c0-1.3,0.1-2.6,0.2-3.8c0-1.2,0-2.4,0-3.8c0.2-1.2,0.2-2.4,0.2-3.5c0-1.2,0.1-2.3,0.2-3.3
			c0-1.2,0-2.4,0-3.5c0-1,0.1-2.1,0.2-3.3c0-1,0-2,0-3c0.2-1,0.2-2,0.2-3s0.1-1.9,0.2-2.8c0-1,0-1.9,0-2.8c0.2-1,0.2-1.9,0.2-2.8
			c0-0.8,0.1-1.7,0.2-2.5c0-0.7,0.1-1.4,0.2-2.3c0-0.7,0-1.4,0-2.3c0.2-0.7,0.2-1.3,0.2-2c0-0.7,0.1-1.3,0.2-1.8
			c0-0.7,0.1-1.3,0.2-1.8c0-0.5,0-1,0-1.5c0.2-0.5,0.2-1,0.2-1.5c0-0.3,0.1-0.8,0.2-1.3c0-0.3,0.1-0.7,0.2-1c0-0.3,0-0.7,0-1
			c0.2-0.2,0.2-0.3,0.2-0.5c0-0.2,0.1-0.3,0.2-0.5c0-0.2,0.1-0.3,0.2-0.3c0.2-0.3,0.4-0.6,0.7-0.8c0.2-0.3,0.4-0.6,0.7-0.8
			c0.3-0.2,0.5-0.3,0.7-0.5c0.3-0.2,0.6-0.3,0.9-0.5c0.5-0.2,0.9-0.3,1.2-0.5c0.5-0.3,0.9-0.5,1.2-0.5c0.5-0.2,0.9-0.3,1.4-0.5
			c0.5-0.2,0.9-0.3,1.4-0.5c0.6-0.2,1.2-0.3,1.6-0.5c0.6,0,1.3-0.1,1.9-0.3c0.8-0.2,1.5-0.3,2.1-0.3c0.8-0.2,1.6-0.3,2.3-0.3
			c0.8-0.2,1.6-0.3,2.3-0.3c0.9-0.2,1.9-0.3,2.8-0.3c0.9-0.2,2-0.3,3.1-0.3c1.1,0,2.2-0.1,3.3-0.3c1.1,0,2.3,0,3.5,0
			c1.2-0.2,2.6-0.3,4-0.3c1.2,0,2.6,0,4,0c1.6,0,3.1,0,4.7,0c1.6,0,3.1,0,4.7,0c1.7,0,3.4,0,5.2,0c1.9,0,3.8,0,5.6,0
			c2,0,4.1,0,6.1,0c2,0,4.1,0.1,6.3,0.3c2.2,0,4.5,0,6.8,0c1.3,0,2.6,0.1,4,0.3c1.2,0,2.6,0.1,4,0.3c1.2,0,2.5,0.1,3.8,0.3
			c1.2,0,2.5,0.1,3.7,0.3c1.3,0.2,2.5,0.3,3.8,0.5c1.3,0.2,2.5,0.3,3.8,0.5c1.3,0.2,2.5,0.4,3.8,0.8c1.1,0.2,2.3,0.4,3.5,0.8
			c1.1,0.2,2.2,0.4,3.3,0.8c1.2,0.3,2.4,0.6,3.5,0.8c1.1,0.3,2.2,0.7,3.3,1c1.1,0.3,2.2,0.8,3.3,1.3c1.1,0.3,2.1,0.7,3,1
			c1.1,0.5,2.1,0.9,3,1.3c1.1,0.5,2.1,1,3.1,1.5c1.1,0.3,2.1,0.8,3,1.3c0.9,0.5,1.9,1,2.8,1.5c0.9,0.5,1.9,1.1,2.8,1.8
			c0.8,0.5,1.6,1,2.6,1.5c0.9,0.7,1.8,1.3,2.6,2c0.9,0.5,1.8,1.1,2.6,1.8c0.8,0.7,1.6,1.3,2.3,2c0.8,0.7,1.6,1.3,2.3,2
			c0.8,0.7,1.6,1.4,2.3,2.3c0.8,0.7,1.5,1.4,2.1,2.3c0.8,0.7,1.5,1.4,2.1,2.3c0.6,0.8,1.2,1.7,1.9,2.5c0.8,0.8,1.5,1.7,2.1,2.5
			c0.5,0.8,1,1.7,1.6,2.5c0.6,0.8,1.2,1.8,1.6,2.8c0.6,0.8,1.2,1.8,1.6,2.8c0.6,1,1.2,2,1.6,3c0.5,1,0.9,2,1.4,3c0.5,1,0.9,2,1.2,3
			c0.5,1,0.9,2,1.4,3c0.3,1.2,0.6,2.4,0.9,3.5c0.5,1,0.9,2.1,1.2,3.3c0.3,1.2,0.6,2.4,0.9,3.5c0.2,1.2,0.4,2.4,0.7,3.5
			c0.3,1.2,0.5,2.4,0.7,3.8c0.2,1.2,0.4,2.4,0.7,3.5c0.2,1.3,0.3,2.7,0.5,4c0.2,1.3,0.2,2.7,0.2,4c0.2,1.3,0.2,2.7,0.2,4
			c0.2,1.3,0.2,2.7,0.2,4c0,1.9,0,3.6,0,5.3c0,1.7-0.1,3.4-0.2,5c-0.2,1.7-0.3,3.4-0.5,5c-0.2,1.5-0.4,3-0.7,4.5
			c-0.2,1.5-0.4,3-0.7,4.5c-0.3,1.5-0.7,2.9-1.2,4.3c-0.5,1.5-0.9,2.9-1.2,4.3c-0.5,1.3-1,2.7-1.6,4c-0.5,1.2-1,2.4-1.6,3.8
			c-0.5,1.2-1,2.4-1.6,3.8c-0.6,1.2-1.3,2.3-2.1,3.3c-0.6,1.2-1.3,2.4-1.9,3.5c-0.8,1-1.6,2-2.3,3c-0.8,1.2-1.6,2.3-2.3,3.3
			c-0.8,0.8-1.6,1.8-2.3,2.8c-0.9,1-1.8,1.9-2.6,2.8c-0.9,0.8-1.9,1.7-2.8,2.5c-0.8,0.8-1.6,1.7-2.6,2.5c-0.9,0.8-1.9,1.7-2.8,2.5
			c-0.9,0.7-1.9,1.3-2.8,2c-1.1,0.8-2.1,1.6-3.1,2.3c-0.9,0.7-2,1.3-3.1,1.8c-0.9,0.7-1.9,1.3-2.8,2c-1.1,0.5-2.1,1.1-3,1.8
			c-1.1,0.5-2.1,1-3,1.5c-1.1,0.5-2.1,1-3.1,1.5c-1.1,0.5-2.1,1-3,1.5c-1.1,0.3-2.1,0.8-3,1.3c-1.1,0.3-2.1,0.8-3.1,1.3
			c-1.1,0.3-2.1,0.7-3,1c-0.9,0.3-2,0.7-3,1c-0.9,0.3-1.9,0.7-2.8,1c-0.9,0.2-1.9,0.4-2.8,0.8c-0.9,0.3-1.9,0.6-2.8,0.8
			c-0.9,0.2-1.8,0.4-2.6,0.8c-0.9,0.2-1.8,0.3-2.6,0.5c-0.9,0.2-1.8,0.3-2.6,0.5c-0.8,0.2-1.6,0.3-2.3,0.5c-0.8,0.2-1.6,0.3-2.3,0.3
			c-0.8,0.2-1.5,0.3-2.1,0.5c-0.6,0-1.3,0.1-2.1,0.3c-0.6,0-1.3,0.1-1.9,0.3c-0.5,0-1,0-1.6,0c-0.5,0.2-0.9,0.3-1.4,0.3
			c-0.5,0.2-0.9,0.2-1.4,0c-0.8-0.2-1.2-0.2-1.2,0c-0.2,1-0.1,2.1,0.2,3.3c0.2,1,0.2,2.1,0.2,3.3c0,1.2,0.1,2.4,0.2,3.5
			c0.2,1.2,0.3,2.4,0.5,3.5c0,1.2,0.1,2.4,0.2,3.5c0.2,1.3,0.3,2.6,0.5,3.8c0,1.3,0.1,2.6,0.2,3.8c0.2,1.2,0.3,2.4,0.5,3.8
			c0,1.2,0.1,2.4,0.2,3.8c0.2,1.3,0.2,2.6,0.2,3.8c0.2,1.3,0.3,2.6,0.5,3.8c0,1.3,0.1,2.6,0.2,3.8c0.2,1.3,0.2,2.7,0.2,4
			c0.2,1.2,0.2,2.4,0.2,3.5c0.2,1.3,0.2,2.6,0.2,3.8c0,1.2,0.1,2.4,0.2,3.8c0,1.2,0,2.4,0,3.5c0,1.2,0.1,2.4,0.2,3.5
			c0,1.2,0,2.3,0,3.3c0,1.2-0.1,2.4-0.2,3.5c0,1,0,2,0,3c0,1-0.1,2-0.2,3c0,1-0.1,2-0.2,3c-0.2,0.8-0.2,1.8-0.2,2.8
			c-0.2,0.8-0.3,1.7-0.5,2.5c-0.2,0.8-0.3,1.7-0.5,2.5c-0.3,0.7-0.6,1.4-0.7,2.3c-0.2,0.7-0.4,1.3-0.7,2c-0.3,0.5-0.6,1.1-0.9,1.8
			c-0.2,0.5-0.5,1-0.9,1.5c-0.3,0.5-0.6,1-0.9,1.5c-0.3,0.3-0.7,0.7-1.2,1c-0.5,0.3-0.9,0.6-1.4,0.8c-0.6,0.3-1.2,0.6-1.6,0.8
			c-0.8,0.3-1.5,0.6-2.1,0.8c-0.9,0.2-1.8,0.3-2.6,0.5c-0.9,0.2-1.8,0.3-2.6,0.5c-1.1,0.2-2.1,0.3-3,0.3c-1.1,0.2-2.2,0.3-3.3,0.5
			c-1.1,0-2.3,0-3.5,0c-1.1,0.2-2.3,0.3-3.5,0.3c-1.3,0-2.5,0-3.8,0c-1.3,0-2.5,0-3.8,0c-1.4,0-2.7,0-4,0c-1.3,0-2.6-0.1-4-0.3
			c-1.3,0-2.6,0-4,0c-1.3-0.2-2.5-0.3-3.8-0.3c-1.4-0.2-2.7-0.3-4-0.5c-1.3,0-2.5-0.1-3.8-0.3c-1.3-0.2-2.4-0.3-3.5-0.3
			c-1.3-0.2-2.4-0.3-3.5-0.5c-1.1-0.2-2.2-0.3-3.3-0.5c-1.1-0.2-2.1-0.3-3.1-0.5c-0.9-0.2-1.9-0.3-2.8-0.5c-0.9-0.2-1.8-0.3-2.6-0.5
			c-0.8-0.2-1.5-0.3-2.1-0.5c-0.6-0.2-1.2-0.4-1.9-0.8c-0.5-0.2-0.9-0.3-1.4-0.5C338.6,508.7,338.2,508.5,337.9,508.3z M450.8,313.6
			c0-1.8,0-3.6,0-5.3c-0.2-1.7-0.4-3.3-0.7-4.8c-0.3-1.5-0.7-2.9-1.2-4.3c-0.6-1.3-1.3-2.6-1.9-3.8c-0.6-1.2-1.3-2.4-2.1-3.5
			c-0.8-1-1.6-1.9-2.3-2.8c-0.9-0.8-1.9-1.7-2.8-2.5c-0.9-0.7-1.9-1.3-2.8-2c-1.1-0.7-2.1-1.3-3.1-1.8c-1.1-0.5-2.1-1-3-1.5
			c-1.1-0.3-2.2-0.7-3.3-1c-0.9-0.3-1.9-0.7-2.8-1c-1.1-0.2-2.1-0.3-3-0.5c-0.8-0.2-1.6-0.3-2.6-0.5c-0.8,0-1.6-0.1-2.3-0.3
			c-0.6,0-1.3,0-2.1,0c-0.5,0.2-0.9,0.2-1.4,0c-0.6-0.2-1-0.1-1.2,0.3c-0.2,0.2-0.2,0.5-0.2,1c0.2,0.7,0.2,1.3,0,1.8
			c0,0.8,0,1.6,0,2.3c0,0.8,0,1.7,0,2.5c0,1,0.1,2,0.2,3c0,1,0,2.1,0,3.3c0,1.2,0.1,2.4,0.2,3.5c0,1.3,0,2.6,0,3.8
			c0.2,1.3,0.2,2.7,0.2,4c0.2,1.3,0.2,2.7,0.2,4c0.2,1.5,0.2,2.9,0.2,4.3c0.2,1.5,0.2,2.9,0.2,4.3c0.2,1.5,0.2,2.9,0.2,4.3
			c0.2,1.5,0.2,2.9,0.2,4.3c0.2,1.5,0.2,2.9,0.2,4.3c0.2,1.3,0.2,2.8,0.2,4.3c0.2,1.3,0.2,2.6,0.2,3.8c0.2,1.3,0.2,2.7,0.2,4
			c0.2,1.2,0.2,2.4,0.2,3.5c0,1,0.1,2.1,0.2,3.3c0,1,0.1,2,0.2,3c0,0.8,0,1.7,0,2.5c0,0.8,0.1,1.6,0.2,2.3c0.2,0.7,0.2,1.3,0,1.8
			c-0.2,0.7-0.2,1.2,0,1.5c0.2,0.2,0.5,0.2,1.2,0c0.5,0,0.9,0,1.4,0c0.6,0.2,1.2,0.2,1.6,0c0.8-0.2,1.5-0.3,2.1-0.5
			c0.6-0.2,1.3-0.3,2.1-0.5c0.8-0.3,1.5-0.6,2.1-0.8c0.9-0.3,1.8-0.8,2.6-1.3c0.8-0.3,1.6-0.8,2.3-1.3c0.8-0.7,1.6-1.3,2.6-1.8
			c0.8-0.7,1.6-1.3,2.3-2c0.8-0.8,1.6-1.7,2.3-2.5c0.8-0.8,1.6-1.8,2.3-2.8c0.8-1,1.5-2.1,2.1-3.3c0.8-1.2,1.5-2.4,2.1-3.5
			c0.6-1.3,1.2-2.7,1.6-4c0.6-1.5,1.2-3,1.6-4.5c0.5-1.7,0.9-3.4,1.2-5c0.3-1.8,0.6-3.7,0.9-5.5
			C450.5,317.6,450.6,315.6,450.8,313.6z"/>
	</g>
</g>
</svg>
