<?xml version="1.0" encoding="utf-8"?>
<!-- Generator: Adobe Illustrator 18.0.0, SVG Export Plug-In . SVG Version: 6.00 Build 0)  -->
<!DOCTYPE svg PUBLIC "-//W3C//DTD SVG 1.1//EN" "http://www.w3.org/Graphics/SVG/1.1/DTD/svg11.dtd">
<svg version="1.1" id="Camada_1" xmlns="http://www.w3.org/2000/svg" xmlns:xlink="http://www.w3.org/1999/xlink" x="0px" y="0px"
	 viewBox="0 0 1024 768" enable-background="new 0 0 1024 768" xml:space="preserve">
<g>
	<defs>
		<circle id="SVGID_1_" cx="511.9" cy="383.4" r="375.7"/>
	</defs>
	<clipPath id="SVGID_2_">
		<use xlink:href="#SVGID_1_"  overflow="visible"/>
	</clipPath>
	<g clip-path="url(#SVGID_2_)" enable-background="new    ">
		
			<image overflow="visible" width="2474" height="2474" xlink:href="../../banco de imagens/botões/butt 25.png"  transform="matrix(0.3065 0 0 0.3065 132.8006 4.7999)">
		</image>
	</g>
</g>
<g>
	<g>
		<g>
			<g>
				<path d="M709.6,331.2c0.2,0.2,0.4,0.4,0.5,0.6c0.2,0.2,0.3,0.5,0.3,0.8c0.2,0.4,0.4,0.7,0.5,1.1c0,0.4,0.1,0.8,0.3,1.4
					c0.2,0.6,0.3,1.1,0.3,1.7c0,0.7,0.1,1.5,0.3,2.2c0,0.7,0,1.5,0,2.2c0.2,0.7,0.3,1.6,0.3,2.5c0,0.9,0,1.9,0,2.8
					c0.2,1.1,0.3,2.1,0.3,3.1c0,1.1,0,2.2,0,3.3s0,2.2,0,3.3c0,1.3,0,2.6,0,3.9c0,1.1,0,2.3,0,3.6c0,1.5,0,2.9,0,4.1
					c0,1.3-0.1,2.7-0.3,4.2c0,1.5,0,2.9,0,4.1c0,1.5,0,3,0,4.4s0,3,0,4.7c-0.2,1.5-0.3,3-0.3,4.4c0,1.7,0,3.2,0,4.7c0,1.7,0,3.3,0,5
					c0,1.5,0,3.1,0,4.7c-0.2,1.6-0.3,3.3-0.3,5c0,1.7,0,3.2,0,4.7c0,1.7,0,3.3,0,5c0,1.7,0,3.3,0,5c0,1.7,0,3.3,0,5c0,1.7,0,3.3,0,5
					c0.2,1.6,0.3,3.3,0.3,5c0,1.7,0,3.3,0,5c0.2,1.7,0.3,3.3,0.3,5c0,1.6,0.1,3.3,0.3,5c0,1.5,0.1,3,0.3,4.7c0,1.7,0.1,3.3,0.3,5
					c0.2,1.6,0.3,3.2,0.3,4.7c0.2,1.6,0.4,3.2,0.5,4.7c0,1.5,0.1,3,0.3,4.7c0.2,1.5,0.3,3,0.3,4.4c0.2,1.5,0.4,2.9,0.5,4.4
					c0,1.5,0.1,2.9,0.3,4.2c0.2,1.5,0.3,2.9,0.3,4.1c0.2,1.3,0.3,2.6,0.3,3.9c0.2,1.3,0.3,2.6,0.5,3.9c0,1.1,0.1,2.3,0.3,3.6
					c0,1.1,0.1,2.2,0.3,3.3c0,1.1,0,2.1,0,3c0.2,1.1,0.3,2.1,0.3,3.1c0,0.9,0.1,1.8,0.3,2.8c0,0.7,0,1.6,0,2.5c0,0.7,0,1.5,0,2.2
					c0,0.5,0,1.2,0,1.9c0,0.4-0.1,0.8-0.3,1.4c0,0.6,0,1,0,1.4c-0.2,0.4-0.3,0.7-0.3,1.1c-0.2,0.2-0.4,0.4-0.5,0.6
					c0,0.2-0.2,0.3-0.5,0.3c-0.4,0.2-0.7,0.3-1.1,0.3c-0.7,0.2-1.4,0.3-1.9,0.3c-0.9,0-1.8,0.1-2.7,0.3c-1.1,0-2.1,0-3,0
					c-1.3,0.2-2.5,0.3-3.8,0.3c-1.3,0-2.6,0-4,0c-1.5,0.2-2.9,0.3-4.3,0.3s-2.9,0-4.3,0c-1.6,0-3.3,0-4.9,0c-1.6,0-3.3,0-4.9,0
					s-3.2,0-4.9,0c-1.4,0-3,0-4.6,0s-3.2-0.1-4.6-0.3c-1.4,0-2.9,0-4.3,0s-2.8-0.1-4.1-0.3c-1.3,0-2.5,0-3.8,0
					c-1.1-0.2-9.9,0.5-15.5-0.8c-5.6-1.3-6.8-5.2-7-7.4c-0.2-0.7-10.6,8-21.9,9.3c0,0-2.1,0.4-3,0.6c-1.1,0.2-2.2,0.4-3.3,0.5
					c-0.9,0-1.9,0.1-3,0.3c-1.1,0-2.2,0-3.2,0c-1.1,0-2.2,0-3.3,0c-1.1,0-2.2-0.1-3.3-0.3c-1.1,0-2.2-0.1-3.2-0.3s-2.2-0.4-3.3-0.6
					c-1.3-0.2-2.4-0.4-3.5-0.5c-1.1-0.4-2.2-0.6-3.2-0.8c-1.1-0.4-2.2-0.7-3.3-1.1c-1.1-0.4-2.2-0.7-3.2-1.1c-1.1-0.5-2.2-1-3.3-1.4
					c-1.1-0.6-2.1-1.1-3-1.7c-1.1-0.5-2.2-1.1-3.3-1.7c-1.1-0.5-2.1-1.2-3-1.9c-1.1-0.7-2.1-1.5-3-2.2c-1.1-0.7-2.1-1.5-3-2.2
					c-0.9-0.9-1.9-1.7-3-2.5c-0.9-0.9-1.8-1.9-2.7-2.8c-0.9-0.9-1.8-1.9-2.7-3c-0.7-0.9-1.5-2-2.4-3.1c-0.9-1.1-1.7-2.2-2.4-3.3
					c-0.7-1.3-1.4-2.6-2.2-3.9c-0.9-1.1-1.6-2.3-2.2-3.6c-0.7-1.3-1.4-2.6-1.9-3.9c-0.7-1.3-1.4-2.6-1.9-3.9
					c-0.5-1.3-1.1-2.6-1.6-3.9c-0.5-1.3-1.1-2.6-1.6-3.9c-0.4-1.5-0.8-2.9-1.3-4.2c-0.4-1.3-0.7-2.7-1.1-4.1c-0.5-1.3-1-2.6-1.3-3.9
					c-0.4-1.5-0.6-2.9-0.8-4.2c-0.4-1.5-0.7-3-1.1-4.4c-0.2-1.3-0.4-2.7-0.8-4.1c-0.2-1.3-0.4-2.7-0.5-4.2c-0.2-1.5-0.3-2.9-0.5-4.1
					c-0.2-1.5-0.4-3-0.5-4.4c-0.2-1.3-0.4-2.7-0.5-4.1c0-1.5-0.1-2.9-0.3-4.2c0-1.5-0.1-2.9-0.3-4.1c0-1.5,0-3,0-4.4
					c0-1.3,0-2.7,0-4.2c-0.2-1.3-0.2-2.7,0-4.1c0-1.3,0-2.7,0-4.1c0-1.3,0-2.7,0-4.2c0.2-1.3,0.3-2.6,0.3-3.9
					c0.2-1.3,0.3-2.7,0.3-4.2c0.2-1.3,0.4-2.6,0.5-3.9c0-1.3,0.1-2.6,0.3-3.9c0.2-1.3,0.4-2.6,0.5-3.9c0.2-1.1,0.4-2.3,0.5-3.6
					c0.2-1.3,0.3-2.5,0.5-3.6c0.2-1.3,0.4-2.5,0.5-3.6c0.2-1.3,0.4-2.5,0.5-3.6c0.2-1.1,0.4-2.2,0.5-3.3c0.4-1.1,0.6-2.2,0.8-3.3
					c0.2-1.1,0.4-2.2,0.5-3.3c0.4-0.9,0.7-2,0.8-3.1c0.2-0.9,0.5-1.8,0.8-2.8c0.2-0.9,0.4-1.9,0.8-3c0.2-0.7,0.4-1.6,0.5-2.5
					c0.4-0.9,0.6-1.8,0.8-2.8c0.3-0.7,0.6-1.5,0.8-2.2c0.2-0.7,0.4-1.6,0.8-2.5c0.2-0.5,0.5-1.2,0.8-1.9c0.2-0.7,0.5-1.4,0.8-1.9
					c0.2-0.7,0.4-1.4,0.5-1.9c0.4-0.6,0.6-1.1,0.8-1.7c0.2-0.4,0.4-0.8,0.8-1.4c0.2-0.4,0.3-0.8,0.5-1.4c0.2-0.4,0.4-0.7,0.8-1.1
					c0.2-0.2,0.4-0.5,0.5-0.8c0.2-0.2,0.3-0.4,0.5-0.6c0.2-0.2,0.4-0.4,0.5-0.5c0.2-0.2,0.4-0.3,0.5-0.3c0.7-0.2,1.4-0.4,2.2-0.6
					c0.9-0.2,1.8-0.4,2.7-0.6c1.3-0.2,2.4-0.4,3.5-0.5c1.3,0,2.5-0.1,3.8-0.3c1.4,0,2.9-0.1,4.3-0.3c1.4,0,2.9-0.1,4.3-0.3
					c1.6,0,3.2,0,4.6,0c1.4,0,3,0,4.6,0c1.4,0,2.9,0,4.3,0c1.3,0,2.6,0.1,4.1,0.3c1.3,0,2.5,0,3.8,0c1.1,0.2,2.1,0.3,3,0.3
					c0.9,0.2,1.8,0.4,2.7,0.5c0.7,0,18.3,0.5,21.9,7.3s-6.1,91.4,10.5,91.4c16.6,0,10.7-84.6,14-90.1c3.3-5.6,18.3-6.2,18.3-6.4
					c0.3-0.2,0.6-0.4,0.8-0.5c0.7-0.2,1.3-0.3,1.9-0.3c0.7-0.2,1.5-0.4,2.4-0.6c1.1-0.2,2.2-0.4,3.3-0.6c1.3,0,2.5-0.1,3.8-0.3
					c1.3-0.2,2.6-0.3,4.1-0.3c1.4-0.2,3-0.3,4.6-0.3c1.4-0.2,3-0.3,4.6-0.3s3.2-0.1,4.9-0.3c1.6,0,3.3,0,4.9,0c1.4,0,3,0,4.6,0
					c1.4,0,2.9,0,4.3,0c1.4,0.2,2.9,0.3,4.3,0.3c1.1,0,2.3,0.1,3.5,0.3c1.1,0.2,2.2,0.3,3.3,0.3c0.7,0.2,1.5,0.4,2.4,0.5
					C708.5,330.8,709,331,709.6,331.2z"/>
			</g>
		</g>
		<path fill="#FFFFFF" d="M692.2,358.9c0.1,0.1,0.3,0.3,0.5,0.4c0.1,0.1,0.2,0.3,0.2,0.6c0.1,0.3,0.3,0.5,0.5,0.8
			c0,0.3,0.1,0.6,0.2,1c0.1,0.4,0.2,0.8,0.2,1.2c0,0.5,0.1,1.1,0.2,1.6c0,0.5,0,1.1,0,1.6c0.1,0.5,0.2,1.2,0.2,1.8s0,1.4,0,2
			c0.1,0.8,0.2,1.6,0.2,2.2c0,0.8,0,1.6,0,2.4c0,0.8,0,1.6,0,2.4c0,0.9,0,1.9,0,2.8c0,0.8,0,1.7,0,2.6c0,1.1,0,2.1,0,3.1
			s-0.1,2-0.2,3c0,1.1,0,2.1,0,3c0,1.1,0,2.2,0,3.2c0,1.1,0,2.2,0,3.4c-0.1,1.1-0.2,2.2-0.2,3.2c0,1.2,0,2.4,0,3.4
			c0,1.2,0,2.4,0,3.7c0,1.1,0,2.2,0,3.4c-0.2,1.2-0.2,2.4-0.2,3.6c0,1.2,0,2.4,0,3.4c0,1.2,0,2.4,0,3.6s0,2.4,0,3.6s0,2.4,0,3.6
			s0,2.4,0,3.6c0.1,1.2,0.2,2.4,0.2,3.7c0,1.2,0,2.4,0,3.6c0.1,1.2,0.2,2.4,0.2,3.6s0.1,2.4,0.2,3.6c0,1.1,0.1,2.2,0.2,3.4
			c0,1.2,0.1,2.4,0.2,3.6c0.1,1.2,0.2,2.4,0.2,3.4c0.1,1.2,0.3,2.4,0.5,3.4c0,1.1,0.1,2.2,0.2,3.4c0.1,1.1,0.2,2.2,0.2,3.2
			c0.1,1.1,0.3,2.2,0.5,3.2c0,1.1,0.1,2.1,0.2,3c0.1,1.1,0.2,2.1,0.2,3.1c0.1,0.9,0.2,1.9,0.2,2.8c0.1,0.9,0.3,1.9,0.4,2.8
			c0,0.8,0.1,1.7,0.2,2.6c0,0.8,0.1,1.6,0.2,2.4c0,0.8,0,1.6,0,2.2c0.1,0.8,0.2,1.6,0.2,2.2c0,0.7,0.1,1.4,0.2,2c0,0.5,0,1.2,0,1.8
			c0,0.5,0,1.1,0,1.6c0,0.4,0,0.9,0,1.4c0,0.3-0.1,0.6-0.2,1c0,0.4,0,0.7,0,1c-0.1,0.3-0.2,0.5-0.2,0.8c-0.2,0.1-0.3,0.3-0.5,0.4
			c0,0.1-0.1,0.2-0.4,0.2c-0.3,0.1-0.6,0.2-0.9,0.2c-0.6,0.1-1.1,0.2-1.6,0.2c-0.7,0-1.5,0.1-2.2,0.2c-0.9,0-1.7,0-2.4,0
			c-1,0.1-2.1,0.2-3.1,0.2c-1,0-2.2,0-3.3,0c-1.2,0.1-2.4,0.2-3.6,0.2c-1.2,0-2.4,0-3.6,0c-1.3,0-2.7,0-4,0c-1.3,0-2.7,0-4,0
			c-1.3,0-2.7,0-4,0c-1.2,0-2.4,0-3.8,0c-1.3,0-2.6-0.1-3.8-0.2c-1.2,0-2.4,0-3.6,0c-1.2,0-2.3-0.1-3.4-0.2c-1,0-2.1,0-3.1,0
			c-0.9-0.1-1.8-0.2-2.7-0.2c-0.7-0.1-1.5-0.2-2.2-0.2c-0.6-0.1-1.2-0.3-1.8-0.4c-0.3,0-0.7-0.1-1.1-0.2c-0.6-0.3-1.3-0.5-2-0.8
			c-0.5-0.1-0.8-0.4-1.1-0.8c-0.3-0.4-0.5-0.9-0.7-1.4c-0.3-1.1,0.2-6.5,0-8.1c-0.1-0.5-0.6-0.1-1.3,1.4c-0.3,0.4-0.7,0.9-1.3,1.4
			c-0.5,0.4-1,0.8-1.6,1.2c-0.5,0.4-1,0.8-1.6,1.2c-0.6,0.4-1.2,0.8-1.8,1.2c-0.6,0.4-1.2,0.8-1.8,1.2c-0.7,0.3-1.4,0.6-2,1
			c-0.6,0.3-1.3,0.5-2,0.8c-0.7,0.4-1.5,0.7-2.2,1c-0.7,0.3-1.5,0.5-2.2,0.6c-0.7,0.3-1.5,0.5-2.2,0.8c-0.9,0.1-1.7,0.3-2.5,0.6
			c-0.7,0.1-1.6,0.3-2.4,0.4c-0.9,0.1-1.7,0.3-2.4,0.4c-0.9,0.1-1.8,0.3-2.7,0.4c-0.7,0-1.6,0.1-2.5,0.2c-0.9,0-1.8,0-2.7,0
			c-0.9,0-1.8,0-2.7,0c-0.9,0-1.8-0.1-2.7-0.2c-0.9,0-1.8-0.1-2.7-0.2c-0.9-0.1-1.8-0.3-2.7-0.4c-1-0.1-2-0.3-2.9-0.4
			c-0.9-0.3-1.8-0.5-2.7-0.6c-0.9-0.3-1.8-0.5-2.7-0.8c-0.9-0.3-1.8-0.5-2.7-0.8c-0.9-0.4-1.8-0.7-2.7-1c-0.9-0.4-1.7-0.8-2.5-1.2
			c-0.9-0.4-1.8-0.8-2.7-1.2c-0.9-0.4-1.7-0.9-2.4-1.4c-0.9-0.5-1.7-1.1-2.4-1.6c-0.9-0.5-1.7-1.1-2.5-1.6c-0.7-0.7-1.6-1.3-2.4-1.8
			c-0.7-0.7-1.5-1.3-2.2-2c-0.7-0.7-1.5-1.4-2.2-2.2c-0.6-0.7-1.3-1.4-2-2.2c-0.7-0.8-1.4-1.6-2-2.4c-0.6-0.9-1.2-1.9-1.8-2.8
			c-0.7-0.8-1.3-1.7-1.8-2.6c-0.6-0.9-1.1-1.9-1.6-2.8c-0.6-0.9-1.1-1.9-1.6-2.8c-0.5-0.9-0.9-1.9-1.3-2.8c-0.5-0.9-0.9-1.9-1.3-2.8
			c-0.3-1.1-0.7-2.1-1.1-3c-0.3-1-0.6-2-0.9-3.1c-0.5-0.9-0.8-1.9-1.1-2.8c-0.3-1.1-0.5-2.1-0.7-3c-0.3-1.1-0.6-2.2-0.9-3.2
			c-0.1-0.9-0.4-1.9-0.7-3c-0.1-0.9-0.3-2-0.4-3c-0.1-1.1-0.3-2.1-0.5-3.1c-0.1-1.1-0.3-2.2-0.4-3.2c-0.1-1-0.3-2-0.5-3.1
			c0-1.1-0.1-2.1-0.2-3c0-1.1-0.1-2.1-0.2-3c0-1.1,0-2.2,0-3.2c0-0.9,0-2,0-3c-0.1-0.9-0.1-2,0-3.1c0-0.9,0-1.9,0-3c0-0.9,0-1.9,0-3
			c0.2-0.9,0.2-1.9,0.2-2.8c0.1-0.9,0.2-2,0.2-3.1c0.1-0.9,0.3-1.9,0.5-2.8c0-0.9,0.1-1.9,0.2-2.8c0.1-0.9,0.3-1.9,0.4-2.8
			c0.2-0.8,0.3-1.7,0.5-2.6c0.1-1,0.3-1.8,0.5-2.6c0.1-0.9,0.3-1.8,0.4-2.6c0.1-0.9,0.3-1.8,0.5-2.6c0.1-0.8,0.3-1.6,0.4-2.4
			c0.3-0.8,0.5-1.6,0.7-2.4c0.1-0.8,0.3-1.6,0.5-2.4c0.3-0.7,0.5-1.4,0.7-2.2c0.1-0.7,0.4-1.4,0.7-2c0.1-0.7,0.4-1.4,0.7-2.2
			c0.2-0.5,0.3-1.2,0.5-1.8c0.3-0.7,0.5-1.4,0.7-2c0.3-0.5,0.5-1.1,0.7-1.6c0.1-0.5,0.4-1.1,0.7-1.8c0.1-0.4,0.4-0.9,0.7-1.4
			c0.2-0.5,0.4-1,0.7-1.4c0.2-0.5,0.3-1,0.5-1.4c0.3-0.4,0.5-0.8,0.7-1.2c0.1-0.3,0.4-0.6,0.7-1c0.1-0.3,0.3-0.6,0.4-1
			c0.1-0.3,0.4-0.5,0.7-0.8c0.1-0.1,0.3-0.3,0.5-0.6c0.1-0.1,0.3-0.3,0.4-0.4c0.1-0.1,0.3-0.3,0.5-0.4c0.1-0.1,0.3-0.2,0.3-0.2
			c0.7-0.1,1.3-0.3,1.9-0.4c0.7-0.1,1.5-0.3,2.2-0.4c1-0.1,2-0.3,2.9-0.4c1,0,2.1-0.1,3.1-0.2c1.2,0,2.4-0.1,3.6-0.2
			c1.2,0,2.4-0.1,3.6-0.2c1.3,0,2.6,0,3.8,0c1.2,0,2.5,0,3.8,0c1.2,0,2.4,0,3.6,0c1,0,2.2,0.1,3.3,0.2c1,0,2.1,0,3.1,0
			c0.9,0.1,1.7,0.2,2.4,0.2c0.7,0.1,1.5,0.3,2.2,0.4c0.6,0,1.1,0.1,1.6,0.2c0.3,0.1,0.6,0.3,0.9,0.4c0,0.1,0,0.3,0,0.4
			c0,0.1,0,0.3,0,0.4c0,0.3,0,0.5,0,0.8c0,0.3,0,0.6,0,1c0,0.4-0.1,0.8-0.2,1.2c0,0.5-0.1,1-0.2,1.4c0,0.5-0.1,1.1-0.2,1.6
			c0,0.7-0.1,1.3-0.2,1.8c0,0.7-0.1,1.4-0.2,2c-0.1,0.7-0.2,1.4-0.2,2.2c-0.2,0.7-0.3,1.4-0.5,2.2c-0.1,0.8-0.2,1.6-0.2,2.4
			c-0.1,0.9-0.3,1.8-0.5,2.6c-0.1,0.9-0.2,1.8-0.2,2.6c-0.1,1-0.3,1.9-0.5,2.8c0,1-0.1,1.9-0.2,2.8c-0.1,1-0.2,2-0.2,3.1
			c-0.1,0.9-0.3,2-0.5,3c0,0.9-0.1,2-0.2,3c0,1,0,2,0,3.1c-0.1,1.1-0.2,2.2-0.2,3.2c0,1.1,0,2.1,0,3.1c-0.2,1.1-0.2,2.2-0.2,3.2
			c0,1.1,0,2.2,0,3.2c0.1,0.9,0.2,2,0.2,3c0,1.1,0.1,2.2,0.2,3.2c0,0.9,0.1,2,0.2,3c0,0.9,0.1,2,0.2,3c0.1,1,0.3,1.9,0.4,2.8
			c0.1,1,0.4,1.9,0.7,2.8c0.1,1,0.3,1.9,0.5,2.8c0.3,1,0.6,1.8,0.9,2.6c0.3,1,0.6,1.8,0.9,2.6c0.3,0.8,0.6,1.6,0.9,2.4
			c0.3,0.8,0.7,1.6,1.1,2.2c0.5,0.8,0.9,1.6,1.3,2.2c0.5,0.7,0.9,1.4,1.3,2s1,1.3,1.6,1.8c0.5,0.5,1,1.1,1.6,1.6
			c0.6,0.5,1.3,1,2,1.4c0.6,0.4,1.3,0.8,2,1.2c0.7,0.4,1.5,0.7,2.2,1c0.7,0.3,1.5,0.5,2.2,0.8c0.9,0.1,1.8,0.3,2.7,0.4
			c0.9,0.1,1.8,0.3,2.7,0.4c0.7,0,1.6-0.1,2.4-0.2c0.7,0,1.5-0.1,2.2-0.2c0.7-0.3,1.5-0.5,2.2-0.8c0.7-0.3,1.4-0.5,2-0.8
			c0.7-0.4,1.4-0.8,2-1.2c0.6-0.4,1.2-0.9,1.8-1.4c0.6-0.5,1.1-1.1,1.6-1.6c0.6-0.7,1.1-1.4,1.6-2c0.6-0.7,1.1-1.4,1.6-2
			c0.5-0.8,0.9-1.6,1.3-2.4c0.3-0.8,0.7-1.6,1.1-2.4c0.5-0.8,0.8-1.7,1.1-2.6c0.3-0.8,0.6-1.7,0.9-2.6c0.5-0.9,0.8-2,1.1-3
			c0.2-1,0.4-2,0.7-3.1c0.3-0.9,0.6-1.9,0.9-3c0.1-1.1,0.4-2.2,0.7-3.2c0.1-1.1,0.3-2.2,0.5-3.2c0.1-1.1,0.4-2.2,0.7-3.2
			c0.1-1.2,0.3-2.4,0.4-3.4c0.1-1.1,0.2-2.2,0.2-3.4c0.1-1.1,0.3-2.2,0.4-3.2c0.1-1.2,0.2-2.4,0.2-3.4c0.1-1.1,0.2-2.2,0.2-3.4
			c0.1-1.1,0.2-2.2,0.2-3.2c0.1-1.1,0.2-2.2,0.2-3.2c0-1.1,0.1-2.2,0.2-3.2c0-1.1,0-2.2,0-3.2c0-1,0.1-2,0.2-3.1c0-0.9,0-1.9,0-2.8
			c0-0.9,0-1.9,0-2.8c0-0.8,0-1.7,0-2.6c0-0.8,0-1.6,0-2.4c0.1-0.8,0.2-1.6,0.2-2.4c0-0.7,0-1.4,0-2.2c0-0.5,0-1.1,0-1.8
			c0-0.5,0-1.2,0-1.8c0-0.4,0.1-0.9,0.2-1.4c0-0.4,0-0.8,0-1.2c0-0.4,0.1-0.7,0.2-1c0-0.3,0-0.5,0-0.8c0.1-0.1,0.2-0.3,0.2-0.4
			c0.3-0.1,0.5-0.3,0.7-0.4c0.6-0.1,1.1-0.2,1.6-0.2c0.6-0.1,1.3-0.3,2-0.4c0.9-0.1,1.8-0.3,2.7-0.4c1,0,2.1-0.1,3.1-0.2
			c1-0.1,2.2-0.2,3.3-0.2c1.2-0.1,2.5-0.2,3.8-0.2c1.2-0.1,2.4-0.2,3.8-0.2s2.7-0.1,4-0.2c1.3,0,2.7,0,4,0c1.2,0,2.4,0,3.8,0
			c1.2,0,2.4,0,3.6,0c1.2,0.1,2.4,0.2,3.6,0.2c0.9,0,1.8,0.1,2.9,0.2c0.9,0.1,1.8,0.2,2.7,0.2c0.6,0.1,1.3,0.3,2,0.4
			C691.3,358.7,691.8,358.8,692.2,358.9z"/>
	</g>
	<g>
		<path d="M492,395.7c0,0,10.6-5.7,20.2-13.9c9.6-8.2,22.4-26.1,22.4-60.9c0.3-30-6.9-39.8-13-53.2c-6.1-13.4-27.5-33.7-41.3-41.5
			c-13.8-7.8-31.3-10.5-36.7-10.9c-5.3-0.5-25.4-2.6-40-2.5c-14.7,0-40.7,0.1-42.1,0.3c0,0-34.3,1.8-38.5,5.3
			c-8.7,3.4-10.5,10.4-10.5,20.8c0,0-0.2,287.6,0,288.2c0,0.6,2.2,7,3.7,9.1c1.4,2,19.7,2.7,20.6,2.7c1,0.2,34.1,1.2,34.1,1.2h4.4
			c1.4,0,37.3-1.9,36.1-1.9c-3.6,0,6.2-1.6,7.1-2c0.8-0.2,1.6-0.5,2.3-0.8c0.7-0.2,1.4-0.5,2-0.8c0.5-0.2,1-0.5,1.6-0.9
			c0.3-0.4,0.5-0.6,1-1.1c0.5-0.6,0.5-0.9,0.8-1.7c0.1-0.8,0.3-1.4,0.5-2c0.2-0.9,0.4-1.9,0.5-2.8c0.2-0.9,0,0,0.2-0.9
			c0.2-1.3,0.5-6.2,0.5-6.2s0-1.4,0-3c0-1.3-0.2-2.7,0-4.2c0-1.3-0.3-2.7-0.3-4.2c0-1.5,0.2-3.6,0-5.1c-0.4-3-0.5-2.7-0.5-4.2
			c0-1.7,0-3.3,0-4.8c0-1.7-1.2-3.4-1.2-5c-0.2-1.7-1.6-3.7-1.6-5.3c0-1.7-1.5-3.3-1.7-5c0-1.7-1.5-3.4-1.7-5.1
			c0-1.7-1.5-2.8-1.7-4.5c0-1.5,1.3-6.6,1.1-8.3c0-1.5-3.5,0.1-3.7-1.5c-0.2-1.5-0.3-3-0.3-4.5c-0.2-1.5-0.3-2.9-0.3-4.2
			c-0.2-1.3-0.3-2.6-0.3-3.9c-0.2-1.3-0.3-2.6-0.5-3.9c0-1.1-0.1-2.2-0.3-3.1c0-1.1-0.1-2.1-0.3-3.1v-2.5c-0.2-0.6-0.3-1.2-0.3-2
			c0-0.6-0.1-1-0.3-1.4V429v-0.3c1,1.3-15.2,2.7-14.2,4.2c1,1.3,7.9,2.7,8.7,4.2c1,1.3-3.9,2.7-3.1,4.2c0.9,1.3,1.6,2.7,2.3,4.2
			c0.8,1.3,1.7,2.7,2.6,4.2c0.7,1.3,1.4,2.7,2.1,4.2c0.7,1.3,1.4,2.7,2.1,4.2c0.7,1.5,1.3,2.9,1.8,4.2c0.7,1.5,1.3,2.9,1.8,4.2
			c0.5,1.5,1,2.9,1.5,4.2c0.5,1.5,1,2.9,1.6,4.2c0.3,1.5,0.8,2.9,1.3,4.2c0.3,1.3,0.8,2.6,1.3,3.9c0.3,1.3,0.7,2.7,1,4.2
			c0.4,1.1,0.7,2.3,1,3.6c0.3,1.3,0.6,2.6,0.8,3.9c0.4,1.3,0.7,2.5,1.1,3.6c0.1,1.3,0.4,2.5,0.8,3.7c0.2,1.1,0.4,2.2,0.5,3.4
			c0.4,1.1,0.6,2.2,0.8,3.4c0.2,1.1,0.3,2.1,0.5,3.1c0.2,1.1,0.7,4,0.9,5c0.2,0.9,0,0,0.2,0.9c0.2,0.9,0.4,1.9,0.5,2.8
			c0.2,0.8,0.3,1.5,0.5,2.3c0.2,0.7,0.3,1.5,0.5,2.2c0.2,0.7,0.4,1.8,0.4,1.8s0.3,1.7,0.5,2.4c0.3,0.7,0.8,2,0.9,2.5
			c0.2,0.4-0.2-0.4,0,0c0.2,0.4,0.3,0.8,0.5,1.1c0.2,0.4,0.7,1.1,0.5,0.8c-0.2-0.3,0.4,0.4,0.6,0.6c0.7,0.4,0.8,0.6,1.3,0.8
			c0.7,0.4,1.7,0.8,1.7,0.8s3.3,0.6,4.1,0.8c0.8,0.2,2.6,0.4,3.6,0.6c0.9,0.2,3.1,0.4,4.1,0.6c0,0,10.9,0.6,10.9,0.5
			c1.2,0,9.3,0.1,10.5,0.3c1.2,0.2,2.4,0.3,3.6,0.3c1.2,0,2.5,0.1,3.9,0.3h3.9c1.4,0,2.8,0.1,4.1,0.3h4.1c1.4,0,2.8-0.1,4.4-0.3h4.1
			c1.4,0,2.7-0.1,4.1-0.3h4.1c1.4-0.2,2.8-0.3,4.1-0.3c1.4-0.2,2.6-0.4,3.9-0.6c1.4,0,2.7-0.1,3.9-0.3c1.2-0.2,2.4-0.3,3.6-0.3
			c1.2-0.2,2.4-0.4,3.6-0.5c1-0.2,2.1-0.3,3.1-0.3c1-0.2,2.1-0.4,3.1-0.5c0.8-0.2,1.8-0.4,2.8-0.6c0.7-0.2,1.5-0.4,2.3-0.5
			c0.7-0.2,1.4-0.4,2.1-0.6c0.5-0.2,1-0.4,1.5-0.5c0.5-0.2,0.9-0.4,1.3-0.6c0.3-0.2,0.7-0.4,1-0.6c0.2-0.2,0.3-0.4,0.3-0.6
			c0.2-0.2,0.3-0.4,0.3-0.6c0.2-0.4,0.3-0.7,0.3-1.1c0.1-0.4,0.3-0.8,0.3-1.1v-1.4v-1.4v-1.7c-0.2-0.7-0.3-1.4-0.3-2
			c0-0.8-0.1-1.4-0.3-2c-0.2-0.7-0.3-1.5-0.3-2.2c-0.2-0.9-0.3-1.8-0.5-2.5c-0.2-0.7-2.6-15.7-3-16.8c-0.4-1.1-5.5-25.6-6-26.8
			c-0.5-1.3-7.6-21.7-10.7-28.8c-3.1-7.2-12.5-24.3-19.3-31.9L492,395.7z"/>
		<path fill="#FFFFFF" d="M472.9,394.9c0.2,0.8,5.9,5.7,8.6,8.7c2.6,3,7.1,8.1,7.9,9.2c0.9,1,1.8,2.1,2.5,3.2c0.8,1,1.5,2.1,2.3,3.2
			c0.8,1.2,1.5,2.2,2.3,3.2c0.8,1.2,1.5,2.3,2.3,3.5c0.8,1.2,1.5,2.3,2.1,3.5c0.8,1,1.5,2.1,2.1,3.2c0.8,1.2,1.5,2.3,2.1,3.5
			c0.6,1.2,1.2,2.3,1.8,3.5c0.6,1.2,1.2,2.3,1.9,3.5c0.6,1.2,1.2,2.3,1.9,3.5c0.5,1.2,1,2.3,1.6,3.5c0.6,1,1.1,2.1,1.6,3.2
			c0.5,1.2,1,2.3,1.6,3.5c0.5,1.2,0.9,2.2,1.4,3.2c0.5,1.2,0.9,2.3,1.4,3.5c0.5,1,0.9,2.1,1.4,3.2c0.3,1.2,0.7,2.2,1.2,3.2
			c0.5,1,0.8,2.1,1.1,3.2c0.5,1,0.9,2,1.2,3c0.3,1,0.6,2.1,0.9,3.2c0.3,1,0.6,2,0.9,3c0.3,0.8,0.6,1.8,0.9,2.7
			c0.3,1,0.6,1.9,0.9,2.7c0.2,1,0.4,1.9,0.7,2.7c0.1,0.8,0.4,1.7,0.7,2.7c0.2,0.8,0.3,1.7,0.5,2.5c0.1,0.7,0.3,1.4,0.5,2.2
			c0.1,0.8,0.3,1.6,0.5,2.2c0.2,0.7,0.3,1.4,0.5,2.3c0,0.7,0.1,1.3,0.2,2c0.2,0.5,0.2,1.1,0.2,1.7c0,0.5,0.1,1.1,0.2,1.7
			c0,0.5,0,1,0,1.5c0,0.5,0,0.9,0,1.2c0,0.5,0,0.9,0,1.3c0,0.3-0.1,0.7-0.2,1c0,0.3-0.1,0.7-0.2,1c0,0.2-0.1,0.3-0.2,0.5
			c0,0.2-0.1,0.3-0.2,0.5c-0.3,0.2-0.6,0.3-0.9,0.5c-0.3,0.2-0.7,0.3-1.2,0.5c-0.5,0.2-0.9,0.3-1.4,0.5c-0.6,0.2-1.2,0.3-1.8,0.5
			c-0.8,0.2-1.5,0.3-2.1,0.5c-0.9,0.2-1.8,0.3-2.5,0.5c-0.9,0.2-1.9,0.3-2.8,0.5c-0.9,0-1.9,0.1-2.8,0.3c-1.1,0.2-2.2,0.3-3.2,0.5
			c-1.1,0-2.2,0.1-3.2,0.3c-1.1,0.2-2.2,0.3-3.5,0.3c-1.1,0.2-2.2,0.3-3.5,0.5c-1.2,0-2.5,0.1-3.7,0.3c-1.2,0-2.5,0-3.7,0
			c-1.2,0.2-2.5,0.2-3.7,0.2c-1.2,0-2.5,0-3.7,0c-1.4,0.2-2.7,0.3-4,0.3c-1.2,0-2.5,0-3.7,0c-1.3-0.2-2.5-0.3-3.7-0.3
			c-1.1,0-2.3,0-3.5,0c-1.2-0.2-2.4-0.2-3.5-0.2c-1.1,0-2.2-0.1-3.3-0.3c-1.1-0.2-2.2-0.3-3.2-0.3c-0.9-0.2-1.9-0.3-3-0.5
			c-0.9-0.2-1.8-0.3-2.5-0.5c-0.9-0.2-1.8-0.3-2.6-0.5c-0.8-0.2-1.6-0.4-2.3-0.8c-0.6-0.2-1.2-0.4-1.9-0.8c-0.5-0.2-1-0.4-1.6-0.7
			c-0.1-0.2-0.3-0.3-0.5-0.5c-0.2-0.2-0.3-0.4-0.5-0.8c-0.2-0.3-0.3-0.7-0.5-1c-0.1-0.3-0.3-0.7-0.5-1c-0.1-0.5-0.3-1-0.5-1.5
			c-0.2-0.5-0.2-1-0.2-1.5c-0.1-0.7-0.3-1.3-0.5-2c-0.1-0.7-0.3-1.3-0.5-2c-0.2-0.7-0.3-1.3-0.5-2c-0.1-0.8-0.3-1.7-0.5-2.5
			c-0.1-0.8-0.3-1.7-0.5-2.5c-0.1-0.8-0.3-1.7-0.5-2.7c-0.2-0.8-0.3-1.7-0.5-2.7c-0.1-1-0.4-2-0.7-3c-0.1-1-0.3-2-0.5-3
			c-0.3-1-0.5-2.1-0.7-3.2c-0.3-1-0.6-2.1-0.9-3.2c-0.2-1.2-0.4-2.3-0.7-3.5c-0.3-1.2-0.6-2.3-0.9-3.2c-0.3-1.3-0.6-2.6-0.9-3.7
			c-0.5-1.2-0.8-2.3-1.2-3.5c-0.5-1.2-0.8-2.4-1.2-3.7c-0.5-1.2-0.9-2.4-1.4-3.7c-0.5-1.2-0.9-2.4-1.4-3.7c-0.5-1.2-1-2.4-1.6-3.7
			c-0.5-1.2-1-2.4-1.6-3.7c-0.6-1.3-1.2-2.6-1.8-3.7c-0.6-1.3-1.2-2.6-1.9-3.7c-0.8-1.3-1.5-2.6-2.3-3.7c-0.6-1.3-1.3-2.6-2.1-3.7
			c-0.8-1.3-1.6-2.6-2.5-3.7c-0.8-1.3-1.6-2.6-2.6-3.7c-0.9-1.3-1.8-2.6-2.8-3.7v0.3c0,0.3,0,0.7,0,1c0.2,0.3,0.3,0.8,0.3,1.2
			c0,0.7,0.1,1.3,0.2,1.8c0,0.8,0,1.6,0,2.2c0.1,0.8,0.2,1.7,0.2,2.7c0.1,0.8,0.2,1.8,0.2,2.7c0.1,1.2,0.3,2.3,0.5,3.5
			c0,1.2,0.1,2.3,0.2,3.5c0,1.2,0.1,2.4,0.2,3.7c0,1.3,0.1,2.7,0.2,4c0.1,1.5,0.2,2.9,0.2,4.2c0.1,1.5,0.2,2.9,0.2,4.2
			c0.1,1.5,0.2,3,0.2,4.5c0.2,1.5,0.2,3,0.2,4.5c0.2,1.5,0.2,3,0.2,4.5c0,1.5,0.1,3,0.3,4.5c0,1.5,0,3,0,4.5c0,1.3,0,2.7,0,4.3
			c0,1.3,0,2.7,0,4.2c0,1.3,0,2.7,0,4s0,2.6,0,3.7c-0.1,1.3-0.3,2.6-0.3,3.7c-0.1,1.2-0.2,2.2-0.2,3.2c-0.1,1-0.3,2.1-0.4,3.2
			c-0.2,0.8-0.3,1.7-0.5,2.5s-0.3,1.7-0.5,2.5c-0.1,0.5-0.3,1.1-0.5,1.7c-0.3,0.5-0.5,1-0.7,1.5c-0.3,0.3-0.6,0.7-0.9,1
			c-0.5,0.3-0.9,0.6-1.4,0.8c-0.6,0.3-1.2,0.6-1.9,0.7c-0.6,0.3-1.3,0.6-2.1,0.8c-0.8,0.3-1.5,0.6-2.3,0.8c-0.9,0.2-1.9,0.3-2.8,0.5
			c-0.9,0.2-1.9,0.3-3,0.5c-1.1,0.2-2.2,0.3-3.2,0.5c-1.1,0.2-2.2,0.3-3.2,0.3c-1.2,0.2-2.5,0.3-3.7,0.5c-1.2,0-2.4,0.1-3.5,0.3
			c-1.4,0-2.7,0-3.9,0c-1.3,0.2-2.5,0.3-3.7,0.3c-1.4,0-2.7,0-3.9,0c-1.4,0-2.7,0-3.9,0c-1.2,0-2.6,0-3.9,0c-1.3,0-2.5,0-3.7,0
			c-1.2,0-2.5-0.1-3.7-0.3c-1.2,0-2.4-0.1-3.5-0.3c-1.2,0-2.4-0.1-3.5-0.2c-1.1,0-2.2-0.1-3.2-0.3c-1.1,0-2.1-0.1-3-0.3
			c-0.9-0.2-1.8-0.3-2.8-0.5c-0.8,0-1.6-0.1-2.6-0.3c-0.8-0.2-1.5-0.3-2.1-0.5c-0.6-0.2-1.2-0.3-1.9-0.5c-0.5-0.2-0.9-0.3-1.4-0.5
			c-0.5-0.2-0.8-0.4-1.2-0.8l-0.2-0.3c0-0.2-0.1-0.3-0.2-0.5c0-0.2-0.1-0.3-0.2-0.5c0-0.3-0.1-0.7-0.3-1c0-0.3-0.1-0.7-0.2-1
			c0-0.3-0.1-0.8-0.2-1.3c0-0.3,0-0.7,0-1.2c-0.1-0.5-0.2-1-0.2-1.5c-0.2-0.5-0.2-1.1-0.2-1.8c0-0.5-0.1-1.1-0.2-1.7
			c0-0.7-0.1-1.3-0.2-2c0-0.7,0-1.4,0-2.2c-0.2-0.7-0.2-1.4-0.2-2.2s0-1.7,0-2.5c-0.2-0.8-0.2-1.7-0.2-2.5c0-0.8-0.1-1.7-0.2-2.7
			c0-0.8,0-1.7,0-2.7c0-1-0.1-2-0.2-3c0-1,0-2,0-3c0-1,0-2,0-3c-0.1-1.2-0.2-2.3-0.2-3.5c0-1,0-2.1,0-3.2c0-1.2-0.1-2.3-0.2-3.5
			c0-1.2,0-2.3,0-3.5c0-1.3,0-2.6,0-3.7c0-1.2,0-2.4,0-3.7c0-1.3-0.1-2.6-0.2-3.7c0-1.3,0-2.7,0-4c0-1.3,0-2.7,0-4c0-1.3,0-2.7,0-4
			c0-1.3,0-2.7,0-4.2c0-1.3,0-2.7,0-4c0-1.5,0-2.9,0-4.2c0-1.5,0-3,0-4.5c0-1.3,0-2.7,0-4.2c0-1.5,0-2.9,0-4.2c0-1.5,0-3,0-4.5
			c0-1.5,0-3,0-4.5c0-1.5,0-3,0-4.5c0-1.5,0-3,0-4.5c0-1.5,0-3,0-4.5c0-1.5,0-3,0-4.5c0-1.5,0-3.1,0-4.7c0-1.5,0.1-3,0.2-4.5
			c0-1.5,0-3,0-4.5c0-1.5,0-3.1,0-4.7c0-1.5,0-3,0-4.5c0-1.5,0.1-3,0.2-4.5c0-1.5,0-3,0-4.5c0-1.7,0-3.2,0-4.7c0-1.5,0-3,0-4.5
			c0.2-1.5,0.2-3,0.2-4.5c0-1.5,0-2.9,0-4.2c0-1.5,0.1-3,0.2-4.5c0-1.5,0-3,0-4.5c0-1.3,0-2.7,0-4.2c0.1-1.5,0.2-2.9,0.2-4.2
			c0-1.5,0-2.9,0-4.2c0.1-1.5,0.2-2.9,0.2-4.2s0-2.7,0-4.2c0.1-1.3,0.2-2.6,0.2-4c0-1.3,0-2.7,0-4c0.1-1.3,0.2-2.7,0.2-4
			c0-1.2,0-2.4,0-3.7c0.2-1.2,0.2-2.4,0.2-3.7c0-1.2,0.1-2.4,0.2-3.7c0-1.2,0-2.3,0-3.5c0.1-1.2,0.2-2.3,0.2-3.5c0-1.2,0-2.3,0-3.5
			c0.1-1,0.2-2.1,0.2-3.2c0-1,0.1-2,0.2-3c0-1.2,0-2.2,0-3.2c0.2-1,0.3-1.9,0.3-2.7c0-1,0.1-2,0.2-3c0-0.8,0-1.7,0-2.7
			c0.2-0.8,0.2-1.7,0.2-2.5c0.1-0.8,0.2-1.7,0.2-2.5c0-0.7,0.1-1.4,0.2-2.2c0-0.7,0-1.3,0-2c0.1-0.7,0.2-1.3,0.2-2
			c0-0.7,0.1-1.3,0.2-2c0-0.5,0.1-1.1,0.2-1.7c0-0.5,0-1,0-1.5c0.2-0.5,0.2-0.9,0.2-1.2c0.2-0.5,0.2-0.9,0.2-1.2
			c0-0.3,0.1-0.7,0.2-1c0-0.3,0.1-0.7,0.2-1c0-0.2,0-0.3,0-0.5l0.2-0.5c0.1-0.2,0.2-0.3,0.2-0.5c0.1-0.2,0.4-0.3,0.7-0.5
			c0.3-0.3,0.5-0.6,0.7-0.7c0.3-0.2,0.6-0.3,0.9-0.5c0.3-0.2,0.6-0.3,0.9-0.5c0.3-0.2,0.6-0.3,0.9-0.5c0.3-0.2,0.7-0.3,1.2-0.5
			c0.5-0.2,0.9-0.3,1.4-0.5c0.5-0.2,0.9-0.3,1.4-0.5c0.5-0.2,1-0.3,1.6-0.3c0.5-0.2,1-0.3,1.6-0.5c0.6-0.2,1.3-0.3,2.1-0.3
			c0.6-0.2,1.3-0.2,2.1-0.2c0.8-0.2,1.6-0.3,2.3-0.3c0.9-0.2,1.8-0.2,2.6-0.2c0.9-0.2,1.8-0.3,2.8-0.3c1.1-0.2,2.2-0.2,3.2-0.2
			c1.1,0,2.2,0,3.2,0c1.3-0.2,2.5-0.3,3.7-0.3c1.3,0,2.5,0,3.7,0c1.5,0,3-0.1,4.4-0.3c1.4,0,2.8,0,4.4,0c1.7,0,3.3,0,4.9,0
			c1.7,0,3.4,0,5.1,0c1.9,0,3.7,0.1,5.6,0.3c2,0,4,0,6,0c2.2,0,4.2,0,6.3,0c2.3,0,4.6,0.1,6.7,0.3c1.4,0,2.7,0,4,0
			c1.4,0,2.7,0.1,3.9,0.2c1.4,0,2.7,0.1,3.9,0.3c1.2,0.2,2.6,0.3,4,0.5c1.2,0,2.5,0.1,3.7,0.2c1.2,0.2,2.4,0.4,3.5,0.8
			c1.2,0.2,2.5,0.3,3.7,0.5c1.2,0.2,2.4,0.4,3.5,0.7c1.2,0.2,2.4,0.4,3.5,0.7c1.1,0.3,2.2,0.6,3.5,0.7c1.1,0.3,2.2,0.7,3.2,1
			c1.1,0.3,2.2,0.7,3.3,1c1.1,0.5,2.2,0.9,3.2,1.2c0.9,0.3,1.9,0.8,3,1.3c0.9,0.3,1.9,0.7,3,1.2c0.9,0.5,1.9,0.9,3,1.2
			c0.9,0.5,1.8,1,2.8,1.5c0.9,0.5,1.9,1.1,2.8,1.7c0.9,0.5,1.8,1,2.5,1.5c0.9,0.5,1.9,1.1,2.8,1.7c0.8,0.7,1.6,1.3,2.6,1.7
			c0.8,0.7,1.5,1.3,2.3,2c0.8,0.7,1.6,1.3,2.3,2c0.8,0.7,1.5,1.3,2.3,2c0.8,0.7,1.5,1.4,2.3,2.2c0.6,0.7,1.3,1.4,2.1,2.2
			c0.6,0.7,1.3,1.4,2.1,2.2c0.6,0.8,1.3,1.7,1.9,2.5c0.6,0.8,1.2,1.7,1.9,2.5c0.6,0.8,1.2,1.7,1.9,2.5c0.5,1,1,1.9,1.6,2.7
			c0.5,1,1,1.9,1.6,2.7c0.5,1,0.9,2,1.4,3s0.9,2,1.4,3c0.5,1,0.9,2,1.4,3c0.5,1,0.9,2.1,1.2,3.2c0.5,1,0.9,2.1,1.2,3.2
			c0.3,1,0.6,2.1,0.9,3.2c0.3,1.2,0.6,2.3,0.9,3.5c0.3,1.2,0.6,2.3,0.9,3.5c0.3,1.2,0.5,2.4,0.7,3.7c0.3,1.2,0.5,2.3,0.7,3.5
			c0.2,1.3,0.3,2.7,0.5,4c0.1,1.2,0.3,2.4,0.5,3.7c0.1,1.3,0.3,2.7,0.5,4c0,1.3,0.1,2.7,0.2,4.2c0,1.2,0,2.4,0,3.7
			c0,1.2,0,2.4,0,3.7c0,1.2-0.1,2.3-0.2,3.5c-0.2,1.2-0.3,2.3-0.5,3.5c-0.1,1.2-0.3,2.3-0.5,3.5c-0.1,1.2-0.4,2.2-0.7,3.2
			c-0.2,1.2-0.4,2.2-0.7,3.2c-0.3,1.2-0.7,2.2-1.2,3.2c-0.3,1-0.6,2-0.9,3c-0.5,1-0.9,1.9-1.4,2.7c-0.3,1-0.7,2-1.2,3
			c-0.5,0.8-1,1.7-1.6,2.7c-0.5,0.8-1,1.7-1.6,2.5c-0.5,0.8-1,1.7-1.6,2.5c-0.6,0.8-1.2,1.7-1.8,2.5c-0.6,0.8-1.2,1.6-1.8,2.2
			c-0.8,0.8-1.5,1.6-2.1,2.2c-0.8,0.7-1.5,1.4-2.1,2.2c-0.8,0.7-1.6,1.3-2.3,2c-0.8,0.7-1.5,1.3-2.3,2c-0.8,0.5-1.5,1.1-2.3,1.7
			c-0.9,0.7-8.3,5-10.7,6.5C479.1,392.4,472.9,394.2,472.9,394.9z M443.7,324.3c0-1.8-0.1-3.7-0.2-5.5c-0.3-1.7-0.7-3.2-1.2-4.7
			c-0.3-1.5-0.8-3-1.4-4.5c-0.6-1.2-1.3-2.4-2.1-3.7c-0.6-1.2-1.4-2.2-2.3-3.2c-0.8-1-1.6-2-2.6-3c-0.9-0.8-1.9-1.7-3-2.5
			c-0.9-0.8-1.9-1.6-3-2.2c-1.1-0.5-2.2-1.1-3.2-1.7c-1.1-0.5-2.2-1-3.2-1.5c-1.1-0.3-2.2-0.7-3.3-1c-1.1-0.3-2.1-0.7-3-1
			c-1.1-0.2-2.1-0.4-3-0.8c-0.9-0.2-1.9-0.3-2.8-0.3c-0.8-0.2-1.5-0.3-2.3-0.3c-0.6-0.2-1.3-0.2-2.1-0.2c-0.5,0.2-1,0.2-1.6,0
			c-0.5,0-0.8,0.1-0.9,0.2c-0.3,0.3-0.4,0.8-0.2,1.5c0,0.5,0,1.1,0,1.7c-0.2,0.5-0.2,1.1,0,1.7c0,0.8,0,1.6,0,2.2c0,0.7,0,1.4,0,2.2
			c0.2,0.8,0.2,1.7,0.2,2.5c0,0.8,0.1,1.7,0.2,2.7c0,1,0.1,1.9,0.2,2.7c0.1,1,0.2,2,0.2,3c0.1,1.2,0.3,2.2,0.5,3.2
			c0,1.2,0.1,2.3,0.2,3.5c0.1,1.2,0.2,2.3,0.2,3.5c0.2,1.2,0.3,2.3,0.5,3.5c0,1.3,0.1,2.7,0.2,4c0.1,1.2,0.2,2.4,0.2,3.7
			c0.1,1.3,0.3,2.7,0.5,4.2c0,1.3,0.1,2.7,0.2,4c0.2,1.5,0.2,2.9,0.2,4.2c0.2,1.5,0.2,3,0.2,4.5c0.3,1.5,0.4,3,0.2,4.5
			c-0.3,1.7-0.3,3.2,0,4.5c0,0.3,0.5,0.4,1.4,0.3c0.5,0,1.1,0.1,1.9,0.3c0.6,0,1.3-0.1,2.1-0.3c0.8-0.2,1.6-0.3,2.6-0.3
			c0.9-0.2,1.8-0.4,2.8-0.7c0.9-0.2,1.8-0.4,2.8-0.7c1.1-0.3,2.1-0.7,3-1c1.1-0.5,2.2-1,3.2-1.5c0.9-0.5,1.9-1.1,3-1.7
			c0.9-0.5,1.9-1.2,2.8-2c1.1-0.7,2-1.4,2.8-2.2c0.9-0.8,1.8-1.7,2.6-2.7c0.8-1,1.5-2,2.3-3c0.6-1.2,1.2-2.3,1.9-3.5
			c0.5-1.2,0.9-2.4,1.4-3.7c0.3-1.5,0.5-2.9,0.7-4.2C443.6,327.4,443.7,325.8,443.7,324.3z"/>
	</g>
</g>
</svg>
