<?xml version="1.0" encoding="utf-8"?>
<!-- Generator: Adobe Illustrator 18.0.0, SVG Export Plug-In . SVG Version: 6.00 Build 0)  -->
<!DOCTYPE svg PUBLIC "-//W3C//DTD SVG 1.1//EN" "http://www.w3.org/Graphics/SVG/1.1/DTD/svg11.dtd">
<svg version="1.1" id="Camada_1" xmlns="http://www.w3.org/2000/svg" xmlns:xlink="http://www.w3.org/1999/xlink" x="0px" y="0px"
	 viewBox="0 0 1024 768" enable-background="new 0 0 1024 768" xml:space="preserve">
<g>
	<defs>
		<circle id="SVGID_1_" cx="511.9" cy="383.4" r="375.7"/>
	</defs>
	<clipPath id="SVGID_2_">
		<use xlink:href="#SVGID_1_"  overflow="visible"/>
	</clipPath>
	<g clip-path="url(#SVGID_2_)" enable-background="new    ">
		
			<image overflow="visible" width="2474" height="2474" xlink:href="../../banco de imagens/botões/butt 25.png"  transform="matrix(0.3065 0 0 0.3065 132.8006 4.7999)">
		</image>
	</g>
</g>
<g>
	<g>
		<path d="M501.9,265.9c5.6,12.1-3.8,33.8-6.2,39c-2.4,5.2-15.2,31.5-19.4,37.9c-9.1,13.5-17.6,17.8-27.5,14.8
			c-9.9-3-19.2-27.9-32.6-40.4c-10.1-8-18.2-12.7-21.6-1c-3.4,11.8,13.8,15.6,25,21.7c11.2,6.1,19.7,8.2,31.4,13.2
			c11.8,5,25.2,20,34.9,30.7c9.6,10.7,20.7,42.6,21.8,51.6c1.1,9.1,0.8,31.3-6.1,50.8c-6.8,19.5-27.8,36.2-45,43.2
			c-17.2,7-37.7,12.1-55.9,12.7c-18.1,0.6-48.9-0.6-64.6-7.1c-15.7-6.5-38.8-15.6-43-19.7c-4.2-4.2,0.7-39.4,5-61.8
			c4.2-22.4,17.3-70.8,40.8-55.3c6.7,5.3,27.6,28.6,36.4,33.9c8.8,5.3,17.1,7.2,20.5,0.8c3.4-6.4-1.8-10.6-5.7-12.9
			c-3.9-2.3-14.8-6.9-29.1-12c-14.3-5.1-34-14.8-46.6-23.4c-12.6-8.6-23.9-30.9-25.7-49.5c-1.8-18.6-2.9-32.1,2.4-51.9
			c5.3-19.8,16-34.8,23-41.5c7-6.7,29.2-22.1,42.9-24.7c18.4-3.7,31.6-6.9,58.9-2.3c27.3,4.7,43.6,14.5,50.4,18.8
			C479.9,240.1,497.1,253.5,501.9,265.9z"/>
		<path fill="#FFFFFF" d="M474.7,280.1c0,0.7,0,1.3,0,2c0,0.8,0,1.6,0,2.5c0,0.8-0.1,1.7-0.2,2.7c0,0.8-0.1,1.7-0.2,2.7
			c-0.2,1-0.3,2-0.5,3c-0.2,1-0.3,2.1-0.5,3.2c-0.2,1-0.4,2-0.7,3c-0.2,1.2-0.4,2.3-0.7,3.5c-0.3,1-0.6,2.1-0.9,3.2
			c-0.3,1.2-0.6,2.3-0.9,3.5c-0.3,1.2-0.6,2.2-0.9,3.2c-0.3,1.2-0.7,2.3-1.1,3.5c-0.3,1-0.6,2.1-0.9,3.2c-0.5,1-0.8,2.1-1.1,3.2
			c-0.5,1-0.8,2-1.1,3c-0.5,1-0.8,2-1.1,3c-0.5,1-0.8,1.9-1.1,2.7c-0.5,1-0.8,1.9-1.1,2.7c-0.5,0.8-0.9,1.6-1.4,2.5
			c-0.3,0.7-0.6,1.3-0.9,2c-0.5,0.7-0.8,1.3-1.1,2c-0.3,0.5-0.7,1-1.1,1.5c-0.3,0.3-0.6,0.7-0.9,1.2c-0.3,0.3-0.6,0.6-0.9,0.7
			c-0.3,0.3-0.6,0.5-0.9,0.5c-0.2,0.2-0.4,0.2-0.7,0.2c-0.3,0-0.5-0.2-0.7-0.5c-0.2-0.2-0.3-0.4-0.5-0.7c-0.6-1.2-1.2-2.3-1.8-3.5
			c-0.5-1.1-1-2.2-1.6-3.2c-0.6-1.1-1.2-2.2-1.8-3.2c-0.6-1.1-1.3-2.2-2.1-3.2c-0.6-1-1.2-2-1.8-3c-0.8-1-1.5-2-2.1-3
			c-0.8-0.8-1.5-1.7-2.1-2.7c-0.8-0.8-1.5-1.6-2.1-2.5c-0.8-1-1.5-1.9-2.3-2.7c-0.8-0.8-1.5-1.6-2.1-2.2c-0.8-0.8-1.5-1.6-2.3-2.2
			c-0.8-0.8-1.5-1.6-2.3-2.2c-0.8-0.7-1.5-1.3-2.3-2c-0.8-0.7-1.5-1.3-2.3-2c-0.6-0.7-1.4-1.2-2.3-1.7c-0.6-0.5-1.3-1.1-2.1-1.7
			c-0.8-0.5-1.5-1-2.3-1.5c-0.8-0.3-1.5-0.7-2.3-1.2c-0.8-0.5-1.5-0.9-2.3-1.2c-0.8-0.3-1.5-0.7-2.3-1c-0.6-0.3-1.3-0.7-2.1-1
			c-0.8-0.3-1.5-0.6-2.3-0.7c-0.6-0.3-1.3-0.6-2.1-0.7c-0.6-0.2-1.3-0.3-2.1-0.5c-0.6,0-1.3-0.1-2.1-0.2c-0.6-0.2-1.3-0.2-2.1-0.2
			c-0.6,0-1.2,0-1.8,0c-0.6,0-1.2,0.1-1.8,0.2c-0.6,0-1.2,0.1-1.8,0.2c-0.6,0.2-1.1,0.3-1.6,0.5c-0.6,0.2-1.1,0.3-1.6,0.5
			c-0.6,0.2-1.1,0.4-1.6,0.7c-0.5,0.3-0.9,0.7-1.4,1c-0.5,0.3-0.9,0.7-1.4,1c-0.5,0.5-0.9,1-1.4,1.5c-0.3,0.3-0.7,0.7-1.1,1.2
			c-0.3,0.5-0.6,1.1-0.9,1.7c-0.3,0.5-0.6,1.1-0.9,1.7c-0.3,0.7-0.6,1.3-0.9,2c-0.2,0.7-0.3,1.4-0.5,2.2c-0.3,0.7-0.5,1.4-0.7,2.2
			c-0.2,0.8-0.2,1.6-0.2,2.5c-0.2,1-0.2,1.9-0.2,2.7c-0.2,1-0.2,2-0.2,3c0,0.8,0.1,1.7,0.2,2.7c0,1,0.2,1.9,0.5,2.7
			c0.2,0.8,0.3,1.6,0.5,2.5c0.3,0.8,0.6,1.6,0.9,2.2c0.3,0.8,0.7,1.6,1.1,2.2c0.5,0.7,0.9,1.3,1.4,2c0.5,0.5,0.9,1.1,1.4,1.7
			c0.6,0.5,1.2,1.1,1.8,1.7c0.6,0.5,1.2,1,1.8,1.5c0.6,0.5,1.3,0.9,2.1,1.2c0.8,0.5,1.5,1,2.1,1.5c0.8,0.3,1.6,0.7,2.5,1.2
			c0.8,0.3,1.5,0.7,2.3,1c0.9,0.5,1.8,0.9,2.5,1.2c0.9,0.3,1.8,0.7,2.8,1c0.9,0.3,1.8,0.7,2.8,1c0.9,0.3,1.9,0.7,3,1
			c0.9,0.3,1.8,0.7,2.8,1c1.1,0.3,2.1,0.7,3,1c1.1,0.3,2.1,0.7,3.2,1.2c0.9,0.3,1.9,0.7,3,1c1.1,0.3,2.1,0.7,3,1
			c1.1,0.5,2.1,0.9,3.2,1.2c1.1,0.5,2.1,0.9,3,1.2c1.1,0.5,2.1,1,3.2,1.5c0.9,0.5,1.9,1,3,1.5c1.1,0.5,2.1,1,3,1.5
			c1.1,0.7,2.1,1.2,3,1.7c0.9,0.7,1.9,1.3,3,2c0.9,0.7,1.8,1.3,2.8,2c0.8,0.7,1.5,1.3,2.3,2c0.9,0.7,1.8,1.3,2.5,2
			c0.8,0.7,1.5,1.3,2.3,2c0.6,0.7,1.3,1.4,2.1,2.2c0.8,0.7,1.5,1.4,2.1,2.2c0.6,0.7,1.3,1.4,2.1,2.2c0.6,0.8,1.2,1.6,1.8,2.2
			c0.6,0.8,1.2,1.6,1.8,2.5c0.6,0.8,1.1,1.6,1.6,2.5c0.6,0.8,1.1,1.6,1.6,2.5c0.6,0.8,1.1,1.7,1.6,2.7c0.5,0.8,0.9,1.6,1.4,2.5
			c0.5,1,0.9,1.9,1.4,2.7c0.5,1,0.9,1.9,1.4,2.7c0.3,1,0.7,2,1.1,3c0.3,0.8,0.7,1.7,1.1,2.7c0.3,1,0.6,2,0.9,3c0.3,1,0.6,2,0.9,3
			c0.3,1,0.5,2,0.7,3c0.3,1,0.6,2,0.9,3c0.2,1,0.3,2,0.5,3c0.2,1.2,0.4,2.2,0.7,3.2c0.2,1,0.2,2.1,0.2,3.2c0.2,1,0.3,2,0.5,3
			c0.2,1.2,0.2,2.2,0.2,3.2c0,1.2,0.1,2.2,0.2,3.2c0,1.2,0,2.3,0,3.5c0,1,0,2.1,0,3.2c0,1.2-0.1,2.2-0.2,3.2c0,1.2-0.1,2.3-0.2,3.5
			c0,1.2-0.1,2.2-0.2,3.2c-0.2,1.2-0.3,2.3-0.5,3.5c-0.2,1.2-0.3,2.3-0.5,3.5c-0.2,1-0.3,2.1-0.5,3.2c-0.3,1-0.5,2-0.7,3
			c-0.2,1-0.4,2-0.7,3c-0.3,1-0.5,2-0.7,3c-0.3,0.8-0.6,1.7-0.9,2.7c-0.3,0.8-0.6,1.7-0.9,2.7c-0.3,0.8-0.7,1.7-1.1,2.7
			c-0.3,0.8-0.7,1.6-1.1,2.5c-0.3,0.8-0.7,1.6-1.1,2.5c-0.3,0.8-0.7,1.6-1.1,2.5c-0.5,0.8-0.9,1.6-1.4,2.2c-0.6,0.8-1.1,1.6-1.6,2.2
			c-0.5,0.8-1,1.6-1.6,2.2c-0.5,0.7-1,1.4-1.6,2.2c-0.6,0.7-1.2,1.3-1.8,2c-0.6,0.7-1.2,1.3-1.8,2c-0.6,0.5-1.2,1.1-1.8,1.7
			c-0.8,0.7-1.5,1.2-2.1,1.7c-0.8,0.7-1.5,1.2-2.3,1.7c-0.8,0.5-1.5,1.1-2.3,1.7c-0.8,0.5-1.5,1-2.3,1.5c-0.9,0.5-1.8,1-2.5,1.5
			c-0.9,0.5-1.8,0.9-2.8,1.2c-0.9,0.5-1.8,0.9-2.8,1.2c-0.9,0.5-1.8,0.9-2.8,1.2c-1.1,0.5-2.1,0.9-3,1.2c-1.1,0.3-2.1,0.7-3.2,1
			c-1.1,0.3-2.1,0.7-3.2,1c-1.1,0.3-2.1,0.7-3.2,1c-1.2,0.3-2.4,0.6-3.4,0.7c-1.2,0.3-2.5,0.6-3.7,0.7c-1.2,0.3-2.5,0.6-3.7,0.7
			c-1.4,0.2-2.7,0.3-3.9,0.5c-1.4,0.2-2.8,0.3-4.1,0.5c-1.4,0.2-2.8,0.3-4.1,0.5c-1.4,0.2-2.8,0.3-4.1,0.5c-1.5,0-3.1,0.1-4.6,0.2
			c-1.5,0-3,0-4.4,0c-1.7,0.2-3.3,0.2-4.8,0.2c-1.5,0-3.1,0-4.8,0c-1.1,0-2.1,0-3.2,0c-1.1-0.2-2.1-0.2-3.2-0.2
			c-1.1-0.2-2.1-0.3-3.2-0.5c-1.2,0-2.4-0.1-3.4-0.2c-1.2-0.3-2.4-0.6-3.4-0.7c-1.2-0.2-2.4-0.4-3.4-0.7c-1.2-0.2-2.4-0.4-3.4-0.7
			c-1.2-0.3-2.4-0.7-3.7-1c-1.1-0.3-2.2-0.7-3.4-1c-1.1-0.3-2.2-0.7-3.4-1.2c-1.1-0.3-2.2-0.7-3.4-1.2c-1.1-0.3-2.1-0.7-3.2-1.2
			c-1.1-0.3-2.1-0.7-3.2-1.2c-1.1-0.5-2.1-1-3.2-1.5c-0.9-0.5-1.9-1-3-1.5c-0.9-0.5-1.8-1-2.8-1.5c-0.9-0.5-1.8-1.1-2.8-1.7
			c-0.9-0.5-1.8-1-2.5-1.5c-0.8-0.7-1.5-1.2-2.3-1.7c-0.8-0.5-1.5-1.1-2.3-1.7c-0.6-0.5-1.2-1.1-1.8-1.7c-0.6-0.5-1.1-1.1-1.6-1.7
			c-0.5-0.5-0.9-1.1-1.4-1.7c-0.5-0.5-0.8-1.1-1.1-1.7c-0.3-0.5-0.6-1.1-0.9-1.7c-0.2-0.5-0.3-1.1-0.5-1.7c-0.2-0.5-0.2-1-0.2-1.5
			c0-0.7,0-1.3,0-2c0-0.8,0.1-1.6,0.2-2.5c0-0.8,0.1-1.6,0.2-2.5c0.2-1,0.3-2,0.5-3c0.2-1,0.3-2,0.5-3c0.2-1.1,0.4-2.2,0.7-3.2
			c0.3-1.1,0.5-2.3,0.7-3.5c0.3-1.2,0.6-2.3,0.9-3.5c0.3-1.3,0.6-2.5,0.9-3.7c0.3-1.3,0.7-2.5,1.1-3.7c0.3-1.3,0.7-2.6,1.1-4
			c0.3-1.3,0.7-2.5,1.1-3.7c0.3-1.3,0.7-2.6,1.1-3.9c0.3-1.3,0.7-2.6,1.1-3.7c0.5-1.3,0.9-2.5,1.4-3.7c0.3-1.3,0.7-2.5,1.1-3.7
			c0.5-1.1,0.9-2.3,1.4-3.5c0.3-1.2,0.7-2.3,1.1-3.5c0.5-1,0.8-2.1,1.1-3.2c0.5-1,0.9-2,1.4-3c0.3-1,0.7-1.9,1.1-2.7
			c0.3-0.8,0.6-1.6,0.9-2.5c0.5-0.8,0.8-1.6,1.1-2.2c0.3-0.7,0.6-1.3,0.9-2c0.3-0.5,0.6-1,0.9-1.5c0.2-0.3,0.4-0.7,0.7-1.2
			c0.2-0.2,0.4-0.4,0.7-0.7c0.2-0.2,0.3-0.2,0.5-0.2c0.2,0,0.3,0,0.5,0c0.3,0.3,0.5,0.6,0.7,0.7c0.3,0.3,0.6,0.7,0.9,1
			c0.3,0.3,0.6,0.7,0.9,1.2c0.3,0.3,0.7,0.7,1.1,1c0.5,0.5,0.8,1,1.1,1.5c0.5,0.5,0.9,1,1.4,1.5c0.5,0.5,1,1,1.6,1.5
			c0.5,0.5,1,1.1,1.6,1.7c0.5,0.5,1,1.1,1.6,1.7c0.6,0.5,1.2,1.1,1.8,1.7c0.6,0.7,1.2,1.2,1.8,1.7c0.6,0.7,1.2,1.3,1.8,2
			c0.6,0.7,1.3,1.2,2.1,1.7c0.6,0.7,1.3,1.3,2.1,2c0.6,0.7,1.3,1.3,2.1,2c0.8,0.7,1.5,1.2,2.1,1.7c0.8,0.7,1.5,1.3,2.3,2
			c0.6,0.5,1.3,1.1,2.1,1.7c0.8,0.7,1.5,1.2,2.3,1.7c0.8,0.5,1.5,1.1,2.3,1.7c0.8,0.5,1.5,1,2.3,1.5c0.6,0.5,1.3,1,2.1,1.5
			c0.8,0.5,1.5,1,2.3,1.5c0.8,0.3,1.5,0.7,2.3,1.2c0.6,0.3,1.3,0.7,2.1,1c0.8,0.3,1.5,0.7,2.3,1c0.6,0.3,1.3,0.6,2.1,0.7
			c0.6,0.3,1.3,0.6,2.1,0.7c0.6,0.2,1.3,0.2,2.1,0.2c0.6,0.2,1.2,0.2,1.8,0.2c0.6,0.2,1.2,0.2,1.8,0c0.6,0,1.2-0.1,1.8-0.2
			c0.6,0,1.1-0.1,1.6-0.2c0.6-0.3,1.1-0.6,1.6-0.7c0.6-0.3,1.1-0.7,1.6-1c0.5-0.5,0.9-1,1.4-1.5c0.5-0.5,0.9-1,1.4-1.5
			c0.3-0.7,0.7-1.3,1.1-2c0.3-0.7,0.6-1.4,0.9-2.2c0.3-0.8,0.6-1.6,0.9-2.5c0.3-1,0.5-2,0.7-3c0.3-1,0.5-2,0.7-3
			c0.2-1,0.2-1.9,0.2-2.7c0-0.8,0-1.7,0-2.7c0-0.8,0-1.6,0-2.5c-0.2-0.7-0.3-1.4-0.5-2.2c-0.2-0.8-0.4-1.6-0.7-2.2
			c-0.2-0.7-0.4-1.3-0.7-2c-0.3-0.7-0.7-1.3-1.1-2c-0.3-0.7-0.7-1.3-1.1-2c-0.5-0.5-0.9-1.1-1.4-1.7c-0.5-0.5-1-1.1-1.6-1.7
			c-0.6-0.5-1.2-1-1.8-1.5c-0.6-0.5-1.2-1-1.8-1.5c-0.6-0.5-1.3-1-2.1-1.5c-0.8-0.5-1.5-0.9-2.1-1.2c-0.8-0.5-1.6-0.9-2.5-1.2
			c-0.8-0.5-1.5-0.9-2.3-1.2c-0.9-0.5-1.8-0.9-2.8-1.2c-0.9-0.5-1.8-0.9-2.8-1.2c-0.9-0.3-1.8-0.7-2.8-1c-0.9-0.5-1.9-0.9-3-1.2
			c-0.9-0.3-1.9-0.7-3-1c-1.1-0.3-2.1-0.7-3-1.2c-1.1-0.3-2.1-0.7-3.2-1c-1.1-0.3-2.1-0.7-3.2-1c-1.2-0.3-2.4-0.7-3.4-1
			c-1.1-0.3-2.2-0.7-3.4-1.2c-1.1-0.3-2.2-0.7-3.4-1c-1.1-0.3-2.2-0.7-3.4-1.2c-1.1-0.3-2.2-0.7-3.4-1c-0.8-0.3-1.5-0.7-2.3-1
			c-0.8-0.3-1.5-0.7-2.3-1c-0.8-0.5-1.5-1-2.3-1.5c-0.8-0.3-1.5-0.8-2.1-1.5c-0.8-0.5-1.5-1-2.1-1.5c-0.8-0.7-1.5-1.3-2.1-2
			c-0.6-0.7-1.3-1.3-2.1-2c-0.6-0.7-1.2-1.4-1.8-2.2c-0.6-0.7-1.1-1.4-1.6-2.2c-0.6-0.8-1.2-1.6-1.8-2.5c-0.5-0.8-1-1.6-1.6-2.5
			c-0.5-1-0.9-1.9-1.4-2.7c-0.6-1-1.1-2-1.4-3c-0.5-1-0.9-2-1.4-3c-0.5-1-0.8-2-1.1-3c-0.5-1.1-0.8-2.2-1.1-3.2
			c-0.5-1.1-0.8-2.3-1.1-3.5c-0.3-1.2-0.6-2.2-0.9-3.2c-0.2-1.2-0.4-2.4-0.7-3.7c-0.2-1.2-0.4-2.3-0.7-3.5c-0.2-1.1-0.3-2.4-0.5-3.7
			c-0.2-1.1-0.3-2.4-0.5-3.7c-0.2-1.2-0.2-2.4-0.2-3.7c-0.2-1.2-0.2-2.4-0.2-3.7c0-1.3,0-2.6,0-4c0-1.3,0.1-2.5,0.2-3.7
			c0-1.6,0.1-3.4,0.2-5.2c0.2-1.5,0.3-3,0.5-4.7c0.2-1.5,0.4-3,0.7-4.7c0.2-1.5,0.4-3,0.7-4.4c0.3-1.3,0.6-2.7,0.9-4.2
			c0.3-1.3,0.6-2.6,0.9-3.9c0.5-1.3,0.8-2.6,1.1-4c0.5-1.3,0.9-2.6,1.4-4c0.5-1.1,0.9-2.3,1.4-3.5c0.5-1.2,1-2.3,1.6-3.5
			c0.5-1.1,1-2.3,1.6-3.5c0.5-1,1-2,1.6-3c0.6-1.1,1.2-2.2,1.8-3.2c0.6-0.8,1.2-1.7,1.8-2.7c0.6-1,1.3-1.9,2.1-2.7
			c0.6-0.8,1.3-1.7,2.1-2.7c0.8-0.8,1.5-1.6,2.1-2.2c0.8-0.8,1.5-1.6,2.3-2.5c0.8-0.7,1.5-1.4,2.3-2.2c0.8-0.7,1.6-1.3,2.5-2
			c0.8-0.7,1.5-1.2,2.3-1.7c0.8-0.7,1.6-1.3,2.5-2c0.8-0.5,1.6-1,2.5-1.5c0.9-0.7,1.8-1.2,2.5-1.7c0.9-0.5,1.8-0.9,2.8-1.2
			c0.8-0.5,1.6-1,2.5-1.5c0.9-0.3,1.8-0.7,2.8-1.2c0.9-0.3,1.8-0.7,2.8-1c0.9-0.3,1.8-0.7,2.8-1c0.9-0.3,1.8-0.6,2.8-0.7
			c0.9-0.3,1.8-0.6,2.8-0.7c0.9-0.3,1.8-0.6,2.8-0.7c0.9-0.2,1.8-0.3,2.8-0.5c1.1-0.2,2.1-0.3,3-0.5c0.9-0.2,1.8-0.3,2.8-0.5
			c0.9-0.2,1.8-0.2,2.8-0.2c0.9-0.2,1.8-0.2,2.8-0.2c0.9,0,1.8,0,2.8,0c1.1-0.2,2.1-0.2,3.2,0c1.1,0,2.1,0,3.2,0
			c1.1,0.2,2.1,0.2,3.2,0.2c1.1,0.2,2.2,0.3,3.4,0.5c1.1,0.2,2.1,0.4,3.2,0.7c1.1,0.2,2.2,0.4,3.4,0.7c1.1,0.2,2.1,0.4,3.2,0.7
			c1.2,0.3,2.4,0.7,3.4,1c1.1,0.3,2.1,0.7,3.2,1.2c1.2,0.3,2.4,0.7,3.4,1c1.1,0.5,2.1,1,3.2,1.5c1.2,0.3,2.4,0.7,3.4,1.2
			c1.1,0.5,2.1,1,3.2,1.5c1.1,0.5,2.1,1,3.2,1.5c0.9,0.7,1.9,1.2,3,1.7c1.1,0.5,2.1,1.1,3,1.7c1.1,0.5,2.1,1.1,3,1.7
			c1.1,0.7,2.1,1.2,3,1.7c0.9,0.7,1.8,1.3,2.8,2c0.9,0.5,1.8,1.1,2.8,1.7c0.8,0.7,1.6,1.3,2.5,2c0.8,0.7,1.5,1.3,2.3,2
			c0.8,0.7,1.5,1.3,2.3,2c0.8,0.7,1.5,1.3,2.3,2c0.6,0.7,1.3,1.3,2.1,2c0.6,0.5,1.2,1.1,1.8,1.7c0.6,0.7,1.1,1.3,1.6,2
			c0.6,0.7,1.1,1.3,1.6,2c0.5,0.7,0.9,1.3,1.4,2c0.3,0.7,0.7,1.2,1.1,1.7c0.3,0.7,0.6,1.3,0.9,2c0.2,0.5,0.4,1.1,0.7,1.7
			c0.2,0.5,0.3,1.1,0.5,1.7C474.4,278.8,474.6,279.4,474.7,280.1z"/>
	</g>
	<g>
		<g>
			<g>
				<path d="M699.8,464.3c-0.2,1-0.4,2-0.6,3.2c-0.2,1-0.5,1.9-0.9,2.9c-0.4,1.1-0.8,2.2-1.1,3.2c-0.6,1.1-1,2.2-1.4,3.2
					c-0.6,1-1.1,1.9-1.7,2.9c-0.6,1.1-1.2,2.2-1.7,3.2c-0.8,1-1.5,1.9-2.3,2.9c-0.6,1-1.2,2-2,3.2c-0.7,1-1.6,1.9-2.5,2.9
					c-0.8,1-1.6,1.8-2.6,2.6c-1,1-1.8,1.9-2.6,2.9c-0.9,1-2,1.8-3.1,2.6c-1,1-1.9,1.8-2.8,2.6c-1.1,1-2.2,1.8-3.1,2.6
					c-1.2,0.8-2.3,1.5-3.4,2.3c-1.1,1-2.3,1.7-3.4,2.3c-1.1,0.8-2.3,1.5-3.4,2.3c-1.1,0.8-2.3,1.4-3.4,2c-1.3,0.8-2.5,1.5-3.7,2
					c-1.3,0.8-2.5,1.4-3.7,2c-1.3,0.6-2.6,1.1-3.7,1.7c-1.3,0.4-2.7,0.9-4,1.5c-1.3,0.6-2.5,1.1-3.7,1.4c-1.3,0.4-2.7,0.8-4,1.2
					c-1.3,0.4-2.7,0.8-4,1.1c-1.3,0.4-2.5,0.7-3.7,0.9c-1.3,0.4-2.7,0.7-4,0.9c-1.3,0.2-2.7,0.4-4,0.6c-1.3,0.2-2.6,0.3-3.7,0.3
					c-1.7,0.2-3.4,0.3-5.1,0.3c-1.5,0-3,0.1-4.6,0.3c-1.7,0-3.3,0-4.8,0s-3-0.1-4.6-0.3c-1.5,0-3,0-4.6,0c-1.5-0.2-2.9-0.3-4.3-0.3
					c-1.5-0.2-3-0.4-4.6-0.6c-1.3-0.2-2.7-0.4-4-0.6c-1.5-0.2-3-0.4-4.3-0.6c-1.3-0.2-2.7-0.5-4-0.9c-1.3-0.2-2.7-0.5-4-0.9
					c-1.3-0.2-2.6-0.5-3.7-0.9c-1.3-0.4-2.6-0.8-3.7-1.1c-1.3-0.4-2.5-0.8-3.7-1.1c-1.1-0.4-2.4-0.9-3.7-1.4
					c-1.1-0.4-2.3-0.9-3.4-1.4c-1-0.4-2-0.9-3.1-1.5c-1.2-0.6-2.3-1.1-3.4-1.4c-0.9-0.6-2-1.2-3.1-1.7c-1-0.8-1.9-1.4-2.8-2
					c-1.1-0.6-2.2-1.3-3.1-2c-0.9-0.6-1.9-1.3-2.8-2c-0.7-0.6-1.6-1.2-2.5-2c-1-0.8-1.8-1.5-2.6-2.3c-0.9-0.8-1.8-1.5-2.6-2.3
					c-0.9-0.8-1.8-1.5-2.5-2.3c-0.8-1-1.5-1.8-2.3-2.6c-0.7-1-1.5-1.8-2.3-2.6c-0.8-1-1.5-1.9-2.3-2.9c-0.6-0.8-1.2-1.6-2-2.6
					c-0.6-1-1.2-1.9-2-2.9c-0.6-1.1-1.1-2.2-1.7-3.2c-0.6-1-1.2-2-1.7-3.2c-0.6-1-1.1-1.9-1.7-2.9c-0.6-1.2-1-2.3-1.4-3.5
					c-0.6-1.1-1-2.2-1.4-3.2c-0.6-1.1-1-2.3-1.4-3.5c-0.4-1.1-0.7-2.3-1.1-3.4c-0.4-1.3-0.7-2.6-1.1-3.7s-0.7-2.4-1.1-3.7
					c-0.4-1.1-0.7-2.4-0.9-3.7c-0.4-1.1-0.7-2.4-0.9-3.7c-0.2-1.3-0.5-2.7-0.9-4c-0.2-1.1-0.4-2.4-0.6-3.7s-0.3-2.6-0.3-3.7
					c-0.2-1.3-0.3-2.7-0.3-4c-0.2-1.1-0.3-2.4-0.3-3.7s0-2.6,0-3.7c0-1.3,0.1-2.6,0.3-3.7c0-1.3,0.1-2.6,0.3-3.7
					c0-1.3,0.1-2.6,0.3-3.7c0.2-1.3,0.4-2.6,0.6-3.7c0.2-1.3,0.4-2.6,0.6-3.7c0.4-1.1,0.7-2.3,0.9-3.5c0.4-1.3,0.7-2.6,0.9-3.7
					c0.4-1.1,0.7-2.3,1.1-3.4c0.4-1.2,0.7-2.3,1.1-3.5s0.9-2.3,1.4-3.4c0.4-1.2,0.9-2.3,1.4-3.5c0.4-1.1,0.9-2.2,1.4-3.2
					c0.6-1.2,1.2-2.3,1.7-3.5c0.6-1,1.1-2,1.7-3.2s1.2-2.2,2-3.2c0.6-1,1.2-2,2-3.2c0.6-1,1.2-1.9,2-2.9c0.8-1,1.5-1.9,2.3-2.9
					c0.7-1,1.5-1.9,2.3-2.9c0.7-1,1.5-1.9,2.3-2.9c0.8-1,1.6-1.9,2.6-2.9c0.8-0.8,1.6-1.6,2.6-2.6c0.9-0.8,1.8-1.5,2.6-2.3
					c0.9-1,1.9-1.8,2.8-2.6c0.9-0.8,1.9-1.5,2.8-2.3c0.9-0.8,2-1.5,3.1-2.3c0.9-0.8,1.9-1.5,2.8-2.3c1.1-0.6,2.2-1.2,3.1-2
					c1.1-0.6,2.2-1.2,3.1-2c1.2-0.6,2.3-1.1,3.4-1.7c1.1-0.6,2.3-1.1,3.4-1.7c1.1-0.6,2.3-1.2,3.4-1.7c1.1-0.6,2.3-1.1,3.4-1.4
					c1.1-0.6,2.3-1,3.4-1.4c1.3-0.6,2.6-1.1,3.7-1.4c1.3-0.4,2.6-0.8,3.7-1.1c1.3-0.4,2.6-0.7,3.7-0.9c1.3-0.4,2.7-0.8,4-1.1
					c1.3-0.2,2.7-0.4,4-0.6c1.7-0.4,3.4-0.7,5.1-0.9c1.7-0.4,3.5-0.6,5.4-0.8c1.5-0.2,3.1-0.3,4.8-0.3c1.7-0.2,3.4-0.3,5.1-0.3
					c1.5,0,3.1,0,4.8,0c1.5,0,3,0,4.6,0c1.5,0,3,0.1,4.5,0.3c1.5,0.2,3,0.4,4.6,0.6c1.5,0.2,3,0.4,4.3,0.6c1.5,0.2,2.9,0.5,4.3,0.9
					c1.3,0.4,2.8,0.7,4.3,0.9c1.3,0.4,2.7,0.8,4,1.1c1.1,0.4,2.4,0.9,3.7,1.4c1.3,0.4,2.5,0.9,3.7,1.4c1.3,0.4,2.5,0.9,3.7,1.4
					c1.1,0.6,2.3,1.1,3.4,1.7c1.1,0.6,2.3,1.1,3.4,1.7c1.1,0.6,2.3,1.2,3.4,2c1.1,0.6,2.2,1.2,3.1,2c1.1,0.6,2.2,1.2,3.1,2
					c0.9,0.8,1.9,1.5,2.8,2.3c0.9,0.8,1.9,1.5,2.8,2.3c0.9,0.8,1.9,1.5,2.8,2.3c0.7,0.8,1.6,1.5,2.6,2.3c0.7,1,1.6,1.8,2.5,2.6
					c0.8,1,1.5,1.8,2.3,2.6c0.7,1,1.5,1.8,2.3,2.6c0.7,1,1.5,1.9,2.3,2.9c0.8,0.8,1.4,1.6,2,2.6c0.8,1,1.4,1.9,2,2.9
					c0.7,1,1.4,1.8,2,2.6c0.6,1,1.1,1.9,1.7,2.9c0.6,1,1.2,1.9,1.7,2.9c0.6,1,1.1,1.9,1.7,2.9c0.4,1,0.9,1.9,1.4,2.9
					c0.4,1,0.7,1.9,1.1,2.9c0.6,1,1,1.9,1.4,2.9c0.4,1,0.8,1.9,1.1,2.9c0.4,0.8,0.8,1.6,1.2,2.6c0.4,1,0.7,1.9,0.8,2.9
					c0.4,1,0.7,1.9,0.9,2.9c0.4,0.8,0.7,1.6,0.9,2.6c0.2,1,0.4,1.8,0.6,2.6c0.4,1,0.7,1.8,0.9,2.6c0,1,0.1,1.8,0.3,2.6
					c0.2,1,0.4,1.8,0.6,2.6c0,0.8,0.1,1.5,0.3,2.3c0,0.8,0.1,1.5,0.3,2.3c0,0.8,0,1.5,0,2.3c0,0.8,0,1.5,0,2.3c0,0.6,0,1.3,0,2
					c0,0.6,0,1.3,0,2c-0.2,0.6-0.3,1.1-0.3,1.7c-0.2,0.6-0.3,1.2-0.3,1.7c-0.2,0.6-0.4,1.1-0.6,1.7c0,0.6-0.1,1.1-0.3,1.4
					c-0.2,0.6-0.4,1.1-0.6,1.4c-0.2,0.4-4.7,7.8-4.7,7.8s-45.9,12.4-70.5,13.8s-44.2-0.6-45.3-0.7c-1.3-0.4-2.3,5.8,10.5,8.1
					c12.9,2.3,16.6-8.6,16.6-8.6s16.1-3.8,36.3-3.7c10.7-0.8,27,0.1,28.5-0.1c1.5,0,20.6,0.9,23.2,3.7c2.6,2.8-0.2,14.4,0,14.6
					C700,463.6,700,463.9,699.8,464.3z"/>
			</g>
		</g>
		<path fill="#FFFFFF" d="M675.7,457.8c-0.2,0.8-0.4,1.5-0.7,2.3c-0.3,0.9-0.6,1.8-0.9,2.6c-0.5,0.9-0.8,1.8-1.1,2.5
			c-0.5,0.8-0.9,1.5-1.4,2.3c-0.5,0.9-0.9,1.8-1.4,2.5c-0.6,0.8-1.2,1.5-1.8,2.3c-0.5,0.8-1,1.6-1.6,2.5c-0.6,0.8-1.3,1.5-2.1,2.3
			c-0.6,0.8-1.3,1.5-2.1,2.1c-0.8,0.8-1.5,1.5-2.1,2.3c-0.8,0.8-1.6,1.5-2.5,2.1c-0.8,0.8-1.5,1.5-2.3,2.1c-0.9,0.8-1.8,1.5-2.5,2.1
			c-0.9,0.6-1.8,1.2-2.8,1.8c-0.9,0.8-1.9,1.4-2.8,1.9c-0.9,0.6-1.8,1.2-2.8,1.8c-0.9,0.6-1.9,1.1-2.8,1.6c-1.1,0.6-2.1,1.1-3,1.6
			c-1.1,0.6-2.1,1.1-3,1.6c-1.1,0.5-2.1,0.9-3,1.4c-1.1,0.3-2.2,0.7-3.2,1.1c-1.1,0.5-2.1,0.8-3,1.2c-1.1,0.3-2.2,0.6-3.2,0.9
			c-1.1,0.3-2.2,0.6-3.2,0.9c-1.1,0.3-2.1,0.5-3,0.7c-1.1,0.3-2.1,0.5-3.2,0.7c-1.1,0.2-2.2,0.3-3.2,0.5s-2.1,0.2-3,0.2
			c-1.4,0.2-2.8,0.2-4.2,0.2c-1.2,0-2.5,0.1-3.7,0.2c-1.4,0-2.7,0-3.9,0c-1.2,0-2.5-0.1-3.7-0.2c-1.2,0-2.5,0-3.7,0
			c-1.2-0.2-2.4-0.2-3.5-0.2c-1.2-0.2-2.5-0.3-3.7-0.5c-1.1-0.2-2.2-0.3-3.2-0.5c-1.2-0.2-2.4-0.3-3.5-0.5c-1.1-0.2-2.1-0.4-3.2-0.7
			c-1.1-0.2-2.1-0.4-3.2-0.7c-1.1-0.2-2.1-0.4-3-0.7c-1.1-0.3-2.1-0.6-3-0.9c-1.1-0.3-2.1-0.6-3-0.9c-0.9-0.3-1.9-0.7-3-1.2
			c-0.9-0.3-1.8-0.7-2.8-1.1c-0.8-0.3-1.6-0.7-2.5-1.2c-0.9-0.5-1.9-0.8-2.8-1.1c-0.8-0.5-1.6-0.9-2.5-1.4c-0.8-0.6-1.5-1.1-2.3-1.6
			c-0.9-0.5-1.8-1-2.5-1.6c-0.8-0.5-1.5-1-2.3-1.6c-0.6-0.5-1.3-1-2.1-1.6c-0.8-0.6-1.5-1.2-2.1-1.8c-0.8-0.6-1.5-1.2-2.1-1.8
			c-0.8-0.6-1.5-1.2-2.1-1.9c-0.6-0.8-1.2-1.4-1.9-2.1c-0.6-0.8-1.2-1.5-1.8-2.1c-0.6-0.8-1.2-1.5-1.8-2.3c-0.5-0.6-1-1.3-1.6-2.1
			c-0.5-0.8-1-1.5-1.6-2.3c-0.5-0.9-0.9-1.8-1.4-2.5c-0.5-0.8-0.9-1.6-1.4-2.6c-0.5-0.8-0.9-1.5-1.4-2.3c-0.5-0.9-0.8-1.9-1.2-2.8
			c-0.5-0.9-0.8-1.8-1.1-2.5c-0.5-0.9-0.8-1.8-1.2-2.8c-0.3-0.9-0.6-1.9-0.9-2.8c-0.3-1.1-0.6-2.1-0.9-3s-0.6-1.9-0.9-3
			c-0.3-0.9-0.5-1.9-0.7-3c-0.3-0.9-0.5-1.9-0.7-3c-0.2-1.1-0.4-2.2-0.7-3.2c-0.2-0.9-0.3-1.9-0.5-3c-0.2-1.1-0.2-2.1-0.2-3
			c-0.2-1.1-0.2-2.2-0.2-3.2c-0.2-0.9-0.2-1.9-0.2-3s0-2.1,0-3c0-1.1,0.1-2.1,0.2-3c0-1.1,0.1-2.1,0.2-3c0-1.1,0.1-2.1,0.2-3
			c0.2-1.1,0.3-2.1,0.5-3c0.2-1.1,0.3-2.1,0.5-3c0.3-0.9,0.5-1.8,0.7-2.8c0.3-1.1,0.5-2.1,0.7-3c0.3-0.9,0.6-1.8,0.9-2.8
			c0.3-0.9,0.6-1.9,0.9-2.8c0.3-0.9,0.7-1.8,1.1-2.8c0.3-0.9,0.7-1.9,1.2-2.8c0.3-0.9,0.7-1.8,1.1-2.5c0.5-0.9,0.9-1.8,1.4-2.8
			c0.5-0.8,0.9-1.6,1.4-2.6c0.5-0.9,1-1.8,1.6-2.5c0.5-0.8,1-1.6,1.6-2.5c0.5-0.8,1-1.5,1.6-2.3c0.6-0.8,1.2-1.5,1.8-2.3
			c0.6-0.8,1.2-1.5,1.8-2.3c0.6-0.8,1.2-1.5,1.9-2.3c0.6-0.8,1.3-1.5,2.1-2.3c0.6-0.6,1.3-1.3,2.1-2.1c0.8-0.6,1.5-1.2,2.1-1.8
			c0.8-0.8,1.5-1.5,2.3-2.1c0.8-0.6,1.5-1.2,2.3-1.8c0.8-0.6,1.6-1.2,2.5-1.8c0.8-0.6,1.5-1.2,2.3-1.9c0.9-0.5,1.8-1,2.5-1.6
			c0.9-0.5,1.8-1,2.6-1.6c0.9-0.5,1.8-0.9,2.8-1.4c0.9-0.5,1.8-0.9,2.8-1.4c0.9-0.5,1.9-0.9,2.8-1.4c0.9-0.5,1.8-0.8,2.8-1.1
			c0.9-0.5,1.9-0.8,2.8-1.2c1.1-0.5,2.1-0.8,3-1.1c1.1-0.3,2.1-0.6,3-0.9c1.1-0.3,2.1-0.5,3-0.7c1.1-0.3,2.2-0.6,3.2-0.9
			c1.1-0.2,2.2-0.3,3.2-0.5c1.4-0.3,2.8-0.5,4.1-0.7c1.4-0.3,2.9-0.5,4.4-0.7c1.2-0.2,2.5-0.2,3.9-0.2c1.4-0.2,2.8-0.2,4.1-0.2
			c1.2,0,2.5,0,3.9,0c1.2,0,2.5,0,3.7,0c1.2,0,2.5,0.1,3.7,0.2c1.2,0.2,2.5,0.3,3.7,0.5c1.2,0.2,2.4,0.3,3.5,0.5
			c1.2,0.2,2.4,0.4,3.5,0.7c1.1,0.3,2.2,0.5,3.5,0.7c1.1,0.3,2.1,0.6,3.2,0.9c0.9,0.3,1.9,0.7,3,1.2c1.1,0.3,2.1,0.7,3,1.1
			c1.1,0.3,2.1,0.7,3,1.1c0.9,0.5,1.8,0.9,2.8,1.4c0.9,0.5,1.9,0.9,2.8,1.4c0.9,0.5,1.8,1,2.8,1.6c0.9,0.5,1.8,1,2.5,1.6
			c0.9,0.5,1.8,1,2.5,1.6c0.8,0.6,1.5,1.2,2.3,1.8c0.8,0.6,1.5,1.2,2.3,1.9c0.8,0.6,1.5,1.2,2.3,1.8c0.6,0.6,1.3,1.2,2.1,1.8
			c0.6,0.8,1.3,1.5,2.1,2.1c0.6,0.8,1.2,1.5,1.9,2.1c0.6,0.8,1.2,1.5,1.8,2.1c0.6,0.8,1.2,1.5,1.8,2.3c0.6,0.6,1.2,1.3,1.6,2.1
			c0.6,0.8,1.2,1.5,1.6,2.3c0.6,0.8,1.2,1.5,1.6,2.1c0.5,0.8,0.9,1.5,1.4,2.3c0.5,0.8,0.9,1.5,1.4,2.3c0.5,0.8,0.9,1.5,1.4,2.3
			c0.3,0.8,0.7,1.5,1.2,2.3c0.3,0.8,0.6,1.5,0.9,2.3c0.5,0.8,0.8,1.5,1.1,2.3c0.3,0.8,0.6,1.5,0.9,2.3c0.3,0.6,0.6,1.3,0.9,2.1
			c0.3,0.8,0.5,1.5,0.7,2.3c0.3,0.8,0.5,1.5,0.7,2.3c0.3,0.6,0.5,1.3,0.7,2.1c0.2,0.8,0.3,1.5,0.5,2.1c0.3,0.8,0.5,1.5,0.7,2.1
			c0,0.8,0.1,1.5,0.2,2.1c0.2,0.8,0.3,1.5,0.5,2.1c0,0.6,0.1,1.2,0.2,1.9c0,0.6,0.1,1.2,0.2,1.8c0,0.6,0,1.2,0,1.8
			c0,0.6,0,1.2,0,1.9c0,0.5,0,1,0,1.6c0,0.5,0,1,0,1.6c-0.2,0.5-0.2,0.9-0.2,1.4c-0.2,0.5-0.2,0.9-0.2,1.4c-0.2,0.5-0.3,0.9-0.5,1.4
			c0,0.5-0.1,0.8-0.2,1.1c-0.2,0.5-0.3,0.8-0.5,1.2c-0.2,0.3-0.4,0.6-0.7,0.9c-0.2,0.3-0.3,0.6-0.5,0.9c-0.2,0.2-0.4,0.4-0.7,0.7
			c-0.2,0.2-0.4,0.4-0.7,0.7c-0.3,0.2-0.7,0.4-1.1,0.7c-0.3,0.1-0.7,0.4-1.2,0.7c-0.5,0.2-0.9,0.4-1.4,0.7c-0.6,0.2-1.1,0.4-1.6,0.7
			c-0.6,0.2-1.2,0.4-1.8,0.7c-0.6,0.2-1.2,0.4-1.8,0.7c-0.6,0.2-1.3,0.4-2.1,0.7c-0.8,0.2-1.5,0.4-2.1,0.7c-0.8,0.2-1.5,0.3-2.3,0.5
			c-0.9,0.3-1.8,0.5-2.5,0.7c-0.8,0.3-1.6,0.5-2.6,0.7c-0.9,0.2-1.8,0.4-2.8,0.7c-0.8,0.2-1.6,0.3-2.5,0.5c-1.1,0.2-2.1,0.3-3,0.5
			c-0.9,0.3-1.9,0.5-3,0.7c-0.9,0.2-1.9,0.3-3,0.5c-0.9,0.2-1.9,0.3-3,0.5c-1.1,0.2-2.2,0.3-3.2,0.5c-0.9,0.2-1.9,0.3-3,0.5
			c-1.1,0-2.2,0.1-3.2,0.2c-1.2,0.2-2.4,0.2-3.5,0.2c-1.1,0.2-2.2,0.3-3.2,0.5c-1.1,0-2.2,0.1-3.5,0.2c-1.1,0-2.1,0-3.2,0
			c-1.2,0.2-2.4,0.2-3.5,0.2s-2.2,0-3.5,0c-1.1,0-2.2,0-3.2,0c-1.1,0-2.2,0-3.5,0c-1.1,0-2.1,0-3.2,0c-1.2-0.2-2.4-0.2-3.5-0.2
			c-1.1,0-2.2-0.1-3.2-0.2s-2.2-0.2-3.2-0.2c-1.1-0.2-2.2-0.3-3.2-0.5c-1.1-0.2-2.2-0.3-3.2-0.5c-0.9-0.2-1.9-0.3-3-0.5
			c-1.1-0.2-2.1-0.3-3-0.5c-1.1-0.3-2.1-0.5-3-0.7c-1.1,0-2-0.3-2.8-0.9c-1.5-0.9-3.5,22.2,16.9,25.9c17.8,3,25.3-5.2,25.3-5.2
			s13.5-1,24.7-1.8C650.6,456.7,675.9,456.8,675.7,457.8z M573.8,410.7c0.3,0.6,1.2,1.1,2.8,1.4c1.1,0.2,2.2,0.5,3.2,1.2
			c0.9,0.3,2,0.6,3.2,0.9c1.2,0.2,2.4,0.4,3.5,0.7c1.1,0.2,2.2,0.3,3.5,0.5c1.2,0,2.4,0.1,3.5,0.2c1.2,0,2.4,0,3.5,0
			c1.1,0,2.1,0,3.2,0c1.1,0,2.1-0.1,3.2-0.2c0.9,0,1.8-0.1,2.8-0.2c0.8-0.2,1.6-0.4,2.5-0.7c0.6-0.2,1.3-0.3,2.1-0.5
			c0.6-0.3,1.1-0.6,1.6-0.9c0.5-0.2,0.8-0.5,1.1-0.9c0.6-0.6,1.2-1.3,1.9-2.1c0.5-0.9,0.8-1.8,1.1-2.5c0.3-0.9,0.5-1.9,0.7-2.8
			s0.2-1.8,0.2-2.8s-0.1-1.8-0.2-2.8c-0.3-0.9-0.5-1.8-0.7-2.5c-0.3-0.9-0.7-1.8-1.1-2.8c-0.5-0.8-1-1.5-1.6-2.3
			c-0.5-0.8-1.1-1.5-1.9-2.1c-0.6-0.6-1.3-1.2-2.1-1.8c-0.9-0.5-1.8-0.9-2.8-1.4c-0.9-0.5-1.8-0.8-2.8-0.9c-1.1-0.3-2.2-0.5-3.2-0.5
			c-0.8,0-1.5,0.1-2.1,0.2c-0.8,0-1.5,0.1-2.3,0.2c-0.8,0.3-1.6,0.6-2.5,0.9c-0.8,0.3-1.5,0.6-2.3,0.9c-0.9,0.5-1.8,0.9-2.5,1.4
			c-0.8,0.6-1.5,1.2-2.3,1.8c-0.9,0.6-1.8,1.3-2.5,2.1c-0.8,0.6-1.5,1.4-2.3,2.3c-0.6,0.8-1.3,1.6-2.1,2.5c-0.6,0.9-1.2,1.9-1.9,3
			c-0.8,0.9-1.4,1.9-1.8,3c-0.3,1.4-0.8,2.6-1.4,3.7C574.1,408.6,573.7,409.8,573.8,410.7z"/>
	</g>
</g>
</svg>
