<?xml version="1.0" encoding="utf-8"?>
<!-- Generator: Adobe Illustrator 18.0.0, SVG Export Plug-In . SVG Version: 6.00 Build 0)  -->
<!DOCTYPE svg PUBLIC "-//W3C//DTD SVG 1.1//EN" "http://www.w3.org/Graphics/SVG/1.1/DTD/svg11.dtd">
<svg version="1.1" id="Camada_1" xmlns="http://www.w3.org/2000/svg" xmlns:xlink="http://www.w3.org/1999/xlink" x="0px" y="0px"
	 viewBox="0 0 1024 768" enable-background="new 0 0 1024 768" xml:space="preserve">
<g>
	<defs>
		<circle id="SVGID_1_" cx="511.9" cy="383.4" r="375.7"/>
	</defs>
	<clipPath id="SVGID_2_">
		<use xlink:href="#SVGID_1_"  overflow="visible"/>
	</clipPath>
	<g clip-path="url(#SVGID_2_)" enable-background="new    ">
		
			<image overflow="visible" width="2474" height="2474" xlink:href="../../banco de imagens/botões/butt 25.png"  transform="matrix(0.3065 0 0 0.3065 132.8006 4.7999)">
		</image>
	</g>
</g>
<g>
	<g>
		<path d="M532.9,261.8c5.6,12.1-3.8,33.9-6.2,39.1c-2.4,5.2-15.2,31.6-19.4,38.1c-9.1,13.5-17.7,17.9-27.6,14.9
			c-9.9-3-19.2-28-32.7-40.6c-10.1-8-18.2-12.8-21.7-1c-3.4,11.8,13.8,15.6,25,21.8c11.2,6.2,19.7,8.2,31.5,13.2
			c11.8,5,25.3,20,35,30.8c9.7,10.8,20.8,42.7,21.8,51.8c1.1,9.1,0.8,31.4-6.1,51c-6.8,19.5-27.9,36.4-45.1,43.4
			c-17.3,7-37.9,12.1-56.1,12.7c-18.2,0.6-49.1-0.6-64.9-7.1c-15.8-6.5-39-15.6-43.1-19.8c-4.2-4.2,0.7-39.5,5-62
			c4.2-22.5,17.4-71.1,41-55.5c6.7,5.3,27.7,28.6,36.5,34c8.8,5.3,17.1,7.2,20.6,0.8c3.4-6.5-1.8-10.6-5.7-12.9
			c-3.9-2.3-14.9-6.9-29.2-12.1c-14.3-5.2-34.1-14.9-46.8-23.5c-12.6-8.7-23.9-31-25.8-49.7c-1.8-18.7-2.9-32.2,2.4-52.1
			c5.3-19.9,16-34.9,23-41.7c7-6.7,29.3-22.2,43-24.8c18.5-3.7,31.7-6.9,59.1-2.3c27.4,4.7,43.7,14.6,50.6,18.9
			C510.8,235.9,528,249.3,532.9,261.8z"/>
		<path fill="#FFFFFF" d="M505.6,276.1c0,0.7,0,1.3,0,2c0,0.8,0,1.7,0,2.5c0,0.8-0.1,1.7-0.2,2.7c0,0.8-0.1,1.7-0.2,2.7
			c-0.2,1-0.3,2-0.5,3c-0.2,1-0.3,2.1-0.5,3.2c-0.2,1-0.4,2-0.7,3c-0.2,1.2-0.4,2.3-0.7,3.5c-0.3,1-0.6,2.1-0.9,3.2
			c-0.3,1.2-0.6,2.3-0.9,3.5c-0.3,1.2-0.6,2.2-0.9,3.2c-0.3,1.2-0.7,2.3-1.2,3.5c-0.3,1-0.6,2.1-0.9,3.2c-0.5,1-0.8,2.1-1.1,3.2
			c-0.5,1-0.8,2-1.2,3c-0.5,1-0.8,2-1.2,3c-0.5,1-0.8,1.9-1.2,2.7c-0.5,1-0.8,1.9-1.2,2.7c-0.5,0.8-0.9,1.7-1.4,2.5
			c-0.3,0.7-0.6,1.3-0.9,2c-0.5,0.7-0.8,1.3-1.2,2c-0.3,0.5-0.7,1-1.2,1.5c-0.3,0.3-0.6,0.7-0.9,1.2c-0.3,0.3-0.6,0.6-0.9,0.7
			c-0.3,0.3-0.6,0.5-0.9,0.5c-0.2,0.2-0.4,0.2-0.7,0.2c-0.3,0-0.5-0.2-0.7-0.5c-0.2-0.2-0.3-0.4-0.5-0.7c-0.6-1.2-1.2-2.3-1.8-3.5
			c-0.5-1.2-1-2.2-1.6-3.2c-0.6-1.2-1.2-2.2-1.8-3.2c-0.6-1.2-1.3-2.2-2.1-3.2c-0.6-1-1.2-2-1.8-3c-0.8-1-1.5-2-2.1-3
			c-0.8-0.8-1.5-1.7-2.1-2.7c-0.8-0.8-1.5-1.6-2.1-2.5c-0.8-1-1.5-1.9-2.3-2.7c-0.8-0.8-1.5-1.6-2.1-2.2c-0.8-0.8-1.5-1.6-2.3-2.2
			c-0.8-0.8-1.5-1.6-2.3-2.2c-0.8-0.7-1.5-1.3-2.3-2c-0.8-0.7-1.5-1.3-2.3-2c-0.6-0.7-1.4-1.2-2.3-1.7c-0.6-0.5-1.3-1.1-2.1-1.7
			c-0.8-0.5-1.5-1-2.3-1.5c-0.8-0.3-1.5-0.7-2.3-1.2c-0.8-0.5-1.5-0.9-2.3-1.2c-0.8-0.3-1.5-0.7-2.3-1c-0.6-0.3-1.3-0.7-2.1-1
			c-0.8-0.3-1.5-0.6-2.3-0.7c-0.6-0.3-1.3-0.6-2.1-0.7c-0.6-0.2-1.3-0.3-2.1-0.5c-0.6,0-1.3-0.1-2.1-0.2c-0.6-0.2-1.3-0.2-2.1-0.2
			c-0.6,0-1.2,0-1.8,0c-0.6,0-1.2,0.1-1.8,0.2c-0.6,0-1.2,0.1-1.8,0.2c-0.6,0.2-1.2,0.3-1.6,0.5c-0.6,0.2-1.2,0.3-1.6,0.5
			c-0.6,0.2-1.2,0.4-1.6,0.7c-0.5,0.3-0.9,0.7-1.4,1c-0.5,0.3-0.9,0.7-1.4,1c-0.5,0.5-0.9,1-1.4,1.5c-0.3,0.3-0.7,0.7-1.2,1.2
			c-0.3,0.5-0.6,1.1-0.9,1.7c-0.3,0.5-0.6,1.1-0.9,1.7c-0.3,0.7-0.6,1.3-0.9,2c-0.2,0.7-0.3,1.4-0.5,2.2c-0.3,0.7-0.5,1.4-0.7,2.2
			c-0.2,0.8-0.2,1.7-0.2,2.5c-0.2,1-0.2,1.9-0.2,2.7c-0.2,1-0.2,2-0.2,3c0,0.8,0.1,1.7,0.2,2.7c0,1,0.2,1.9,0.5,2.7
			c0.2,0.8,0.3,1.7,0.5,2.5c0.3,0.8,0.6,1.6,0.9,2.2c0.3,0.8,0.7,1.6,1.2,2.2c0.5,0.7,0.9,1.3,1.4,2c0.5,0.5,0.9,1.1,1.4,1.7
			c0.6,0.5,1.2,1.1,1.8,1.7c0.6,0.5,1.2,1,1.8,1.5c0.6,0.5,1.3,0.9,2.1,1.2c0.8,0.5,1.5,1,2.1,1.5c0.8,0.3,1.6,0.7,2.5,1.2
			c0.8,0.3,1.5,0.7,2.3,1c0.9,0.5,1.8,0.9,2.5,1.2c0.9,0.3,1.8,0.7,2.8,1c0.9,0.3,1.8,0.7,2.8,1c0.9,0.3,1.9,0.7,3,1
			c0.9,0.3,1.8,0.7,2.8,1c1.1,0.3,2.1,0.7,3,1c1.1,0.3,2.1,0.7,3.2,1.2c0.9,0.3,1.9,0.7,3,1c1.1,0.3,2.1,0.7,3,1
			c1.1,0.5,2.1,0.9,3.2,1.2c1.1,0.5,2.1,0.9,3,1.2c1.1,0.5,2.1,1,3.2,1.5c0.9,0.5,1.9,1,3,1.5c1.1,0.5,2.1,1,3,1.5
			c1.1,0.7,2.1,1.2,3,1.7c0.9,0.7,1.9,1.3,3,2c0.9,0.7,1.8,1.3,2.8,2c0.8,0.7,1.5,1.3,2.3,2c0.9,0.7,1.8,1.3,2.5,2
			c0.8,0.7,1.5,1.3,2.3,2c0.6,0.7,1.3,1.4,2.1,2.2c0.8,0.7,1.5,1.4,2.1,2.2c0.6,0.7,1.3,1.4,2.1,2.2c0.6,0.8,1.2,1.6,1.8,2.2
			c0.6,0.8,1.2,1.7,1.8,2.5c0.6,0.8,1.2,1.7,1.6,2.5c0.6,0.8,1.2,1.7,1.6,2.5c0.6,0.8,1.2,1.7,1.6,2.7c0.5,0.8,0.9,1.7,1.4,2.5
			c0.5,1,0.9,1.9,1.4,2.7c0.5,1,0.9,1.9,1.4,2.7c0.3,1,0.7,2,1.2,3c0.3,0.8,0.7,1.7,1.2,2.7c0.3,1,0.6,2,0.9,3c0.3,1,0.6,2,0.9,3
			c0.3,1,0.5,2,0.7,3c0.3,1,0.6,2,0.9,3c0.2,1,0.3,2,0.5,3c0.2,1.2,0.4,2.2,0.7,3.2c0.2,1,0.2,2.1,0.2,3.2c0.2,1,0.3,2,0.5,3
			c0.2,1.2,0.2,2.2,0.2,3.2c0,1.2,0.1,2.2,0.2,3.2c0,1.2,0,2.3,0,3.5c0,1,0,2.1,0,3.2c0,1.2-0.1,2.2-0.2,3.2c0,1.2-0.1,2.3-0.2,3.5
			c0,1.2-0.1,2.2-0.2,3.2c-0.2,1.2-0.3,2.3-0.5,3.5c-0.2,1.2-0.3,2.3-0.5,3.5c-0.2,1-0.3,2.1-0.5,3.2c-0.3,1-0.5,2-0.7,3
			c-0.2,1-0.4,2-0.7,3c-0.3,1-0.5,2-0.7,3c-0.3,0.8-0.6,1.7-0.9,2.7c-0.3,0.8-0.6,1.7-0.9,2.7c-0.3,0.8-0.7,1.7-1.2,2.7
			c-0.3,0.8-0.7,1.7-1.1,2.5c-0.3,0.8-0.7,1.7-1.2,2.5c-0.3,0.8-0.7,1.7-1.2,2.5c-0.5,0.8-0.9,1.6-1.4,2.2c-0.6,0.8-1.2,1.6-1.6,2.2
			c-0.5,0.8-1,1.6-1.6,2.2c-0.5,0.7-1,1.4-1.6,2.2c-0.6,0.7-1.2,1.3-1.8,2c-0.6,0.7-1.2,1.3-1.8,2c-0.6,0.5-1.2,1.1-1.8,1.7
			c-0.8,0.7-1.5,1.2-2.1,1.7c-0.8,0.7-1.5,1.2-2.3,1.7c-0.8,0.5-1.5,1.1-2.3,1.7c-0.8,0.5-1.5,1-2.3,1.5c-0.9,0.5-1.8,1-2.5,1.5
			c-0.9,0.5-1.8,0.9-2.8,1.2c-0.9,0.5-1.8,0.9-2.8,1.2c-0.9,0.5-1.8,0.9-2.8,1.2c-1.1,0.5-2.1,0.9-3,1.2c-1.1,0.3-2.2,0.7-3.2,1
			c-1.1,0.3-2.2,0.7-3.2,1c-1.1,0.3-2.2,0.7-3.2,1c-1.2,0.3-2.4,0.6-3.5,0.7c-1.2,0.3-2.5,0.6-3.7,0.7c-1.2,0.3-2.5,0.6-3.7,0.7
			c-1.4,0.2-2.7,0.3-3.9,0.5c-1.4,0.2-2.8,0.3-4.1,0.5c-1.4,0.2-2.8,0.3-4.1,0.5c-1.4,0.2-2.8,0.3-4.1,0.5c-1.5,0-3.1,0.1-4.6,0.2
			c-1.5,0-3,0-4.4,0c-1.7,0.2-3.3,0.2-4.8,0.2c-1.5,0-3.1,0-4.8,0c-1.1,0-2.1,0-3.2,0c-1.1-0.2-2.2-0.2-3.2-0.2
			c-1.1-0.2-2.2-0.3-3.2-0.5c-1.2,0-2.4-0.1-3.5-0.2c-1.2-0.3-2.4-0.6-3.5-0.7c-1.2-0.2-2.4-0.4-3.5-0.7c-1.2-0.2-2.4-0.4-3.5-0.7
			c-1.2-0.3-2.5-0.7-3.7-1c-1.1-0.3-2.2-0.7-3.5-1c-1.1-0.3-2.2-0.7-3.5-1.2c-1.1-0.3-2.2-0.7-3.5-1.2c-1.1-0.3-2.2-0.7-3.2-1.2
			c-1.1-0.3-2.2-0.7-3.2-1.2c-1.1-0.5-2.1-1-3.2-1.5c-0.9-0.5-1.9-1-3-1.5c-0.9-0.5-1.8-1-2.8-1.5c-0.9-0.5-1.8-1.1-2.8-1.7
			c-0.9-0.5-1.8-1-2.5-1.5c-0.8-0.7-1.5-1.2-2.3-1.7c-0.8-0.5-1.5-1.1-2.3-1.7c-0.6-0.5-1.2-1.1-1.8-1.7c-0.6-0.5-1.2-1.1-1.6-1.7
			c-0.5-0.5-0.9-1.1-1.4-1.7c-0.5-0.5-0.8-1.1-1.1-1.7c-0.3-0.5-0.6-1.1-0.9-1.7c-0.2-0.5-0.3-1.1-0.5-1.7c-0.2-0.5-0.2-1-0.2-1.5
			c0-0.7,0-1.3,0-2c0-0.8,0.1-1.6,0.2-2.5c0-0.8,0.1-1.6,0.2-2.5c0.2-1,0.3-2,0.5-3c0.2-1,0.3-2,0.5-3c0.2-1.2,0.4-2.2,0.7-3.2
			c0.3-1.2,0.5-2.3,0.7-3.5c0.3-1.2,0.6-2.3,0.9-3.5c0.3-1.3,0.6-2.6,0.9-3.7c0.3-1.3,0.7-2.6,1.2-3.7c0.3-1.3,0.7-2.6,1.2-4
			c0.3-1.3,0.7-2.6,1.1-3.7c0.3-1.3,0.7-2.6,1.2-4c0.3-1.3,0.7-2.6,1.2-3.7c0.5-1.3,0.9-2.6,1.4-3.7c0.3-1.3,0.7-2.6,1.2-3.7
			c0.5-1.2,0.9-2.3,1.4-3.5c0.3-1.2,0.7-2.3,1.2-3.5c0.5-1,0.8-2.1,1.2-3.2c0.5-1,0.9-2,1.4-3c0.3-1,0.7-1.9,1.2-2.7
			c0.3-0.8,0.6-1.6,0.9-2.5c0.5-0.8,0.8-1.6,1.1-2.2c0.3-0.7,0.6-1.3,0.9-2c0.3-0.5,0.6-1,0.9-1.5c0.2-0.3,0.4-0.7,0.7-1.2
			c0.2-0.2,0.4-0.4,0.7-0.7c0.2-0.2,0.3-0.2,0.5-0.2c0.2,0,0.3,0,0.5,0c0.3,0.3,0.5,0.6,0.7,0.7c0.3,0.3,0.6,0.7,0.9,1
			c0.3,0.3,0.6,0.7,0.9,1.2c0.3,0.3,0.7,0.7,1.1,1c0.5,0.5,0.8,1,1.2,1.5c0.5,0.5,0.9,1,1.4,1.5c0.5,0.5,1,1,1.6,1.5
			c0.5,0.5,1,1.1,1.6,1.7c0.5,0.5,1,1.1,1.6,1.7c0.6,0.5,1.2,1.1,1.8,1.7c0.6,0.7,1.2,1.2,1.8,1.7c0.6,0.7,1.2,1.3,1.8,2
			c0.6,0.7,1.3,1.2,2.1,1.7c0.6,0.7,1.3,1.3,2.1,2c0.6,0.7,1.3,1.3,2.1,2c0.8,0.7,1.5,1.2,2.1,1.7c0.8,0.7,1.5,1.3,2.3,2
			c0.6,0.5,1.3,1.1,2.1,1.7c0.8,0.7,1.5,1.2,2.3,1.7c0.8,0.5,1.5,1.1,2.3,1.7c0.8,0.5,1.5,1,2.3,1.5c0.6,0.5,1.3,1,2.1,1.5
			c0.8,0.5,1.5,1,2.3,1.5c0.8,0.3,1.5,0.7,2.3,1.2c0.6,0.3,1.3,0.7,2.1,1c0.8,0.3,1.5,0.7,2.3,1c0.6,0.3,1.3,0.6,2.1,0.7
			c0.6,0.3,1.3,0.6,2.1,0.7c0.6,0.2,1.3,0.2,2.1,0.2c0.6,0.2,1.2,0.2,1.8,0.2c0.6,0.2,1.2,0.2,1.8,0c0.6,0,1.2-0.1,1.8-0.2
			c0.6,0,1.2-0.1,1.6-0.2c0.6-0.3,1.2-0.6,1.6-0.7c0.6-0.3,1.2-0.7,1.6-1c0.5-0.5,0.9-1,1.4-1.5c0.5-0.5,0.9-1,1.4-1.5
			c0.3-0.7,0.7-1.3,1.1-2c0.3-0.7,0.6-1.4,0.9-2.2c0.3-0.8,0.6-1.6,0.9-2.5c0.3-1,0.5-2,0.7-3c0.3-1,0.5-2,0.7-3
			c0.2-1,0.2-1.9,0.2-2.7c0-0.8,0-1.7,0-2.7c0-0.8,0-1.6,0-2.5c-0.2-0.7-0.3-1.4-0.5-2.2c-0.2-0.8-0.4-1.6-0.7-2.2
			c-0.2-0.7-0.4-1.3-0.7-2c-0.3-0.7-0.7-1.3-1.1-2c-0.3-0.7-0.7-1.3-1.2-2c-0.5-0.5-0.9-1.1-1.4-1.7c-0.5-0.5-1-1.1-1.6-1.7
			c-0.6-0.5-1.2-1-1.8-1.5c-0.6-0.5-1.2-1-1.8-1.5c-0.6-0.5-1.3-1-2.1-1.5c-0.8-0.5-1.5-0.9-2.1-1.2c-0.8-0.5-1.6-0.9-2.5-1.2
			c-0.8-0.5-1.5-0.9-2.3-1.2c-0.9-0.5-1.8-0.9-2.8-1.2c-0.9-0.5-1.8-0.9-2.8-1.2c-0.9-0.3-1.8-0.7-2.8-1c-0.9-0.5-1.9-0.9-3-1.2
			c-0.9-0.3-1.9-0.7-3-1c-1.1-0.3-2.1-0.7-3-1.2c-1.1-0.3-2.2-0.7-3.2-1c-1.1-0.3-2.2-0.7-3.2-1c-1.2-0.3-2.4-0.7-3.5-1
			c-1.1-0.3-2.2-0.7-3.5-1.2c-1.1-0.3-2.2-0.7-3.5-1c-1.1-0.3-2.2-0.7-3.5-1.2c-1.1-0.3-2.2-0.7-3.5-1c-0.8-0.3-1.5-0.7-2.3-1
			c-0.8-0.3-1.5-0.7-2.3-1c-0.8-0.5-1.5-1-2.3-1.5c-0.8-0.3-1.5-0.8-2.1-1.5c-0.8-0.5-1.5-1-2.1-1.5c-0.8-0.7-1.5-1.3-2.1-2
			c-0.6-0.7-1.3-1.3-2.1-2c-0.6-0.7-1.2-1.4-1.8-2.2c-0.6-0.7-1.2-1.4-1.6-2.2c-0.6-0.8-1.2-1.6-1.8-2.5c-0.5-0.8-1-1.6-1.6-2.5
			c-0.5-1-0.9-1.9-1.4-2.7c-0.6-1-1.1-2-1.4-3c-0.5-1-0.9-2-1.4-3c-0.5-1-0.8-2-1.2-3c-0.5-1.2-0.8-2.2-1.2-3.2
			c-0.5-1.2-0.8-2.3-1.2-3.5c-0.3-1.2-0.6-2.2-0.9-3.2c-0.2-1.2-0.4-2.4-0.7-3.7c-0.2-1.2-0.4-2.3-0.7-3.5c-0.2-1.2-0.3-2.4-0.5-3.7
			c-0.2-1.2-0.3-2.4-0.5-3.7c-0.2-1.2-0.2-2.4-0.2-3.7c-0.2-1.2-0.2-2.4-0.2-3.7c0-1.3,0-2.6,0-4c0-1.3,0.1-2.6,0.2-3.7
			c0-1.6,0.1-3.4,0.2-5.2c0.2-1.5,0.3-3.1,0.5-4.7c0.2-1.5,0.4-3.1,0.7-4.7c0.2-1.5,0.4-3,0.7-4.5c0.3-1.3,0.6-2.7,0.9-4.2
			c0.3-1.3,0.6-2.6,0.9-4c0.5-1.3,0.8-2.6,1.2-4c0.5-1.3,0.9-2.6,1.4-4c0.5-1.2,0.9-2.3,1.4-3.5c0.5-1.2,1-2.3,1.6-3.5
			c0.5-1.2,1-2.3,1.6-3.5c0.5-1,1-2,1.6-3c0.6-1.2,1.2-2.2,1.8-3.2c0.6-0.8,1.2-1.7,1.8-2.7c0.6-1,1.3-1.9,2.1-2.7
			c0.6-0.8,1.3-1.7,2.1-2.7c0.8-0.8,1.5-1.6,2.1-2.2c0.8-0.8,1.5-1.6,2.3-2.5c0.8-0.7,1.5-1.4,2.3-2.2c0.8-0.7,1.6-1.3,2.5-2
			c0.8-0.7,1.5-1.2,2.3-1.7c0.8-0.7,1.6-1.3,2.5-2c0.8-0.5,1.6-1,2.5-1.5c0.9-0.7,1.8-1.2,2.5-1.7c0.9-0.5,1.8-0.9,2.8-1.2
			c0.8-0.5,1.6-1,2.5-1.5c0.9-0.3,1.8-0.7,2.8-1.2c0.9-0.3,1.8-0.7,2.8-1c0.9-0.3,1.8-0.7,2.8-1c0.9-0.3,1.8-0.6,2.8-0.7
			c0.9-0.3,1.8-0.6,2.8-0.7c0.9-0.3,1.8-0.6,2.8-0.7c0.9-0.2,1.8-0.3,2.8-0.5c1.1-0.2,2.1-0.3,3-0.5c0.9-0.2,1.8-0.3,2.8-0.5
			c0.9-0.2,1.8-0.2,2.8-0.2c0.9-0.2,1.8-0.2,2.8-0.2c0.9,0,1.8,0,2.8,0c1.1-0.2,2.1-0.2,3.2,0c1.1,0,2.1,0,3.2,0
			c1.1,0.2,2.2,0.2,3.2,0.2c1.1,0.2,2.2,0.3,3.5,0.5c1.1,0.2,2.1,0.4,3.2,0.7c1.1,0.2,2.2,0.4,3.5,0.7c1.1,0.2,2.2,0.4,3.2,0.7
			c1.2,0.3,2.4,0.7,3.5,1c1.1,0.3,2.1,0.7,3.2,1.2c1.2,0.3,2.4,0.7,3.5,1c1.1,0.5,2.1,1,3.2,1.5c1.2,0.3,2.4,0.7,3.5,1.2
			c1.1,0.5,2.1,1,3.2,1.5c1.1,0.5,2.1,1,3.2,1.5c0.9,0.7,1.9,1.2,3,1.7c1.1,0.5,2.1,1.1,3,1.7c1.1,0.5,2.1,1.1,3,1.7
			c1.1,0.7,2.1,1.2,3,1.7c0.9,0.7,1.8,1.3,2.8,2c0.9,0.5,1.8,1.1,2.8,1.7c0.8,0.7,1.6,1.3,2.5,2c0.8,0.7,1.5,1.3,2.3,2
			c0.8,0.7,1.5,1.3,2.3,2c0.8,0.7,1.5,1.3,2.3,2c0.6,0.7,1.3,1.3,2.1,2c0.6,0.5,1.2,1.1,1.8,1.7c0.6,0.7,1.2,1.3,1.6,2
			c0.6,0.7,1.2,1.3,1.6,2c0.5,0.7,0.9,1.3,1.4,2c0.3,0.7,0.7,1.2,1.2,1.7c0.3,0.7,0.6,1.3,0.9,2c0.2,0.5,0.4,1.1,0.7,1.7
			c0.2,0.5,0.3,1.1,0.5,1.7C505.3,274.7,505.5,275.4,505.6,276.1z"/>
	</g>
	<g>
		<path d="M705.4,425.9c0.1,0.9,0.2,1.7,0.2,2.5c0.1,0.9,0.2,1.7,0.2,2.5c0,0.9,0.1,1.7,0.2,2.5c0,0.9,0,1.7,0,2.5
			c0,0.8,0.1,1.6,0.2,2.5c0,0.8,0,1.6,0,2.4c0,0.9,0,1.7,0,2.5c0,0.8-0.1,1.6-0.2,2.4c0,0.8,0,1.6,0,2.4c0,0.8-0.1,1.6-0.2,2.5
			c0,0.8,0,1.6,0,2.4c-0.1,0.7-0.3,1.4-0.4,2.2c0,0.8-0.1,1.6-0.2,2.4c-0.1,0.8-0.2,1.6-0.2,2.4c-0.1,0.7-0.3,1.4-0.4,2.2
			c-0.1,0.8-0.3,1.5-0.4,2.2c-0.1,0.8-0.3,1.5-0.4,2.2c-0.3,0.8-0.5,1.5-0.6,2.2c-0.1,0.8-0.4,1.5-0.6,2.2c-0.1,0.7-0.4,1.4-0.6,2.2
			c-0.1,0.7-0.4,1.3-0.6,2c-0.3,0.7-0.6,1.3-0.8,2c-0.1,0.7-0.4,1.3-0.6,2c-0.3,0.7-0.6,1.3-1.1,2c-0.3,0.7-0.6,1.3-0.8,1.8
			c-0.3,0.7-0.6,1.3-1.1,2c-0.3,0.6-0.6,1.2-1.1,1.9c-0.3,0.6-0.6,1.2-1.1,1.8c-0.4,0.6-0.8,1.1-1.3,1.7c-0.3,0.7-0.6,1.3-1.1,1.9
			c-0.6,0.6-1.1,1.1-1.5,1.7c-0.4,0.6-0.8,1.1-1.3,1.7c-0.6,0.6-1.1,1.1-1.5,1.7c-0.6,0.5-1.1,1-1.5,1.5c-0.6,0.6-1.1,1.1-1.7,1.5
			c-0.6,0.6-1.1,1.1-1.7,1.5c-0.6,0.4-1.1,1-1.7,1.5c-0.6,0.4-1.2,0.9-1.9,1.3c-0.6,0.4-1.2,0.9-1.9,1.3c-0.6,0.4-1.2,0.9-1.9,1.3
			c-0.7,0.5-1.4,0.8-2.1,1.2c-0.7,0.5-1.4,0.8-2.1,1.2c-0.7,0.5-1.4,0.8-2.1,1.2c-0.8,0.4-1.6,0.8-2.3,1.2c-0.8,0.3-1.6,0.7-2.3,1
			c-0.8,0.3-1.7,0.7-2.5,1c-0.8,0.3-1.7,0.6-2.5,0.8c-0.8,0.3-1.7,0.7-2.5,1c-1,0.2-1.9,0.5-2.7,0.8c-1,0.2-2,0.5-2.9,0.7
			c-0.8,0.2-1.8,0.4-2.7,0.7c-1,0.2-2,0.4-2.9,0.7c-1.1,0.2-2.2,0.4-3.2,0.7c-1,0.1-2,0.3-3.2,0.5c-1.1,0.1-2.2,0.2-3.2,0.3
			c-1.1,0.2-2.2,0.4-3.4,0.5c-1.1,0.1-2.3,0.2-3.6,0.3c-1.1,0.1-2.2,0.2-3.4,0.2c-1.3,0.1-2.5,0.2-3.8,0.3c-1.3,0-2.5,0-3.6,0
			c-1.4,0.1-2.7,0.2-4,0.2c-1.3,0-2.5,0-3.8,0c-1.4,0-2.8-0.1-4.2-0.2c-0.8,0-1.8,0-2.7,0c-1-0.1-2-0.2-2.9-0.3
			c-1,0-1.9-0.1-2.7-0.2c-1-0.1-1.9-0.2-2.7-0.3c-1-0.1-1.9-0.2-2.7-0.3c-1-0.2-1.9-0.4-2.7-0.5c-1-0.2-1.9-0.4-2.7-0.5
			c-0.8-0.2-1.7-0.4-2.5-0.7c-1-0.2-1.9-0.4-2.7-0.7c-0.8-0.2-1.7-0.4-2.5-0.7c-0.8-0.3-1.7-0.6-2.5-0.8c-0.8-0.3-1.6-0.6-2.3-0.8
			c-0.8-0.3-1.7-0.7-2.5-1c-0.7-0.3-1.5-0.7-2.3-1c-0.8-0.3-1.6-0.7-2.3-1c-0.8-0.3-1.6-0.7-2.3-1c-0.7-0.4-1.5-0.8-2.3-1.2
			c-0.7-0.4-1.4-0.9-2.1-1.3c-0.7-0.3-1.4-0.7-2.1-1.2c-0.7-0.4-1.4-0.9-2.1-1.3c-0.7-0.4-1.4-0.9-2.1-1.3c-0.7-0.6-1.4-1.1-2.1-1.5
			c-0.6-0.4-1.2-1-1.9-1.5c-0.7-0.4-1.3-1-1.9-1.5c-0.7-0.6-1.3-1.1-1.9-1.7c-0.6-0.4-1.2-1-1.9-1.5c-0.6-0.6-1.1-1.2-1.7-1.9
			c-0.6-0.6-1.1-1.1-1.7-1.7c-0.6-0.6-1.1-1.2-1.7-1.8c-0.6-0.6-1.1-1.1-1.7-1.7c-0.6-0.7-1.1-1.3-1.5-2c-0.6-0.6-1.1-1.2-1.5-1.8
			c-0.6-0.7-1.1-1.3-1.5-2c-0.6-0.7-1.1-1.3-1.5-2c-0.4-0.7-0.9-1.3-1.5-2c-0.4-0.7-0.8-1.3-1.3-2c-0.4-0.8-0.8-1.5-1.3-2.2
			c-0.4-0.7-0.8-1.4-1.3-2.2c-0.3-0.7-0.6-1.4-1.1-2.2c-0.4-0.8-0.8-1.5-1.1-2.2c-0.4-0.8-0.8-1.6-1.1-2.4c-0.3-0.8-0.6-1.6-1.1-2.4
			c-0.3-0.7-0.6-1.4-0.8-2.2c-0.3-0.9-0.6-1.7-0.8-2.5c-0.3-0.8-0.6-1.6-0.8-2.4c-0.3-0.8-0.6-1.6-0.8-2.4c-0.1-0.9-0.4-1.7-0.6-2.5
			c-0.1-0.8-0.4-1.6-0.6-2.5c-0.1-0.8-0.4-1.6-0.6-2.5c-0.1-0.8-0.3-1.6-0.4-2.5c-0.1-0.9-0.3-1.7-0.4-2.5c-0.1-0.9-0.3-1.8-0.4-2.7
			c-0.1-0.8-0.3-1.6-0.4-2.5c0-0.9-0.1-1.8-0.2-2.7c0-0.9-0.1-1.8-0.2-2.7c0-0.9-0.1-1.8-0.2-2.7c0-0.9,0-1.8,0-2.7s0-1.8,0-2.7
			c0-0.9,0-1.8,0-2.7c0-0.9,0.1-1.7,0.2-2.5c0-0.9,0.1-1.7,0.2-2.5c0-0.8,0.1-1.6,0.2-2.5c0-0.8,0.1-1.6,0.2-2.5
			c0.1-0.8,0.3-1.6,0.4-2.4c0.1-0.9,0.3-1.7,0.4-2.5c0.1-0.9,0.3-1.7,0.6-2.5c0.1-0.8,0.4-1.6,0.6-2.5c0.1-0.8,0.3-1.6,0.6-2.4
			c0.1-0.9,0.3-1.7,0.6-2.5c0.3-0.8,0.6-1.6,0.8-2.5c0.3-0.8,0.6-1.6,0.8-2.4c0.3-0.8,0.6-1.6,0.8-2.4c0.3-0.9,0.6-1.7,0.8-2.5
			c0.4-0.8,0.8-1.6,1.1-2.4c0.4-0.8,0.8-1.6,1.1-2.4c0.4-0.8,0.8-1.6,1.3-2.4c0.3-0.8,0.6-1.6,1.1-2.4c0.4-0.7,0.8-1.4,1.3-2.2
			c0.4-0.8,0.8-1.6,1.3-2.4c0.4-0.7,0.9-1.4,1.5-2.2c0.4-0.8,0.8-1.5,1.3-2.2c0.6-0.8,1.1-1.5,1.5-2.2c0.6-0.7,1.1-1.4,1.5-2.2
			c0.6-0.7,1.1-1.3,1.7-2c0.4-0.7,0.9-1.3,1.5-2c0.6-0.7,1.1-1.3,1.7-2c0.6-0.7,1.1-1.3,1.7-2c0.6-0.7,1.1-1.3,1.7-2
			c0.6-0.6,1.1-1.2,1.7-1.9c0.7-0.6,1.3-1.2,1.9-1.9c0.6-0.6,1.2-1.2,1.9-1.8c0.6-0.6,1.2-1.1,1.9-1.7c0.6-0.6,1.2-1.1,1.9-1.7
			c0.6-0.6,1.2-1.1,1.9-1.7c0.7-0.4,1.3-1,1.9-1.5c0.7-0.6,1.4-1.1,2.1-1.5c0.7-0.6,1.4-1.1,2.1-1.5c0.7-0.4,1.4-0.9,2.1-1.3
			c0.7-0.4,1.4-0.9,2.1-1.3c0.7-0.4,1.4-0.9,2.1-1.3c0.7-0.4,1.4-0.8,2.1-1.2c0.8-0.4,1.6-0.8,2.3-1.2c0.7-0.3,1.5-0.7,2.3-1
			c0.7-0.3,1.4-0.7,2.1-1c0.8-0.3,1.6-0.7,2.3-1c0.8-0.3,1.6-0.6,2.3-0.8c0.8-0.2,1.6-0.5,2.3-0.8c0.8-0.2,1.7-0.4,2.5-0.7
			c0.7-0.2,1.5-0.4,2.3-0.7c0.8-0.1,1.6-0.3,2.3-0.5c0.8-0.1,1.7-0.3,2.5-0.5c0.8-0.1,1.6-0.2,2.3-0.3c0.8-0.1,1.7-0.2,2.5-0.2
			c0.8-0.1,1.7-0.2,2.5-0.3c0.8,0,1.7,0,2.5,0c0.8,0,1.7,0,2.5,0c0.8,0,1.7,0,2.5,0c0.8,0,1.7,0.1,2.5,0.2c0.8,0,1.7,0.1,2.5,0.2
			c0.8,0.1,1.7,0.2,2.5,0.3c0.8,0.1,1.7,0.2,2.5,0.3c0.8,0.1,1.7,0.2,2.5,0.3c0.8,0.2,1.6,0.4,2.3,0.5c0.8,0.2,1.7,0.5,2.5,0.7
			c0.8,0.1,1.7,0.3,2.5,0.5c0.7,0.2,1.5,0.5,2.3,0.7c0.8,0.3,1.6,0.6,2.3,0.8c0.8,0.2,1.6,0.5,2.3,0.8c0.8,0.2,1.7,0.5,2.5,0.8
			c0.7,0.3,1.4,0.7,2.1,1c0.8,0.3,1.6,0.7,2.3,1c0.8,0.3,1.6,0.7,2.3,1c0.7,0.3,1.5,0.7,2.3,1c0.7,0.5,1.4,0.8,2.1,1.2
			c0.7,0.5,1.4,0.9,2.1,1.3c0.7,0.3,1.4,0.7,2.1,1.2c0.7,0.4,1.4,0.9,2.1,1.3c0.7,0.4,1.4,1,2.1,1.5c0.7,0.4,1.4,0.9,2.1,1.3
			c0.7,0.6,1.4,1.1,2.1,1.5c0.6,0.6,1.2,1.1,1.9,1.5c0.7,0.6,1.3,1.1,1.9,1.7c0.7,0.5,1.3,1,1.9,1.5c0.7,0.6,1.3,1.1,1.9,1.7
			c0.6,0.6,1.2,1.2,1.9,1.9c0.6,0.6,1.1,1.1,1.7,1.7c0.7,0.7,1.3,1.3,1.9,1.8c0.6,0.6,1.1,1.2,1.7,1.9c0.6,0.7,1.1,1.3,1.7,1.9
			c0.6,0.7,1.1,1.3,1.7,2c0.6,0.7,1.1,1.3,1.5,2c0.6,0.7,1.1,1.3,1.7,2c0.4,0.7,0.9,1.3,1.5,2c0.4,0.7,0.9,1.3,1.5,2
			c0.4,0.8,0.9,1.5,1.5,2.2c0.4,0.7,0.8,1.4,1.3,2.2c0.4,0.7,0.9,1.4,1.5,2.2c0.4,0.8,0.8,1.5,1.3,2.2c0.4,0.8,0.8,1.6,1.3,2.4
			c0.4,0.7,0.8,1.4,1.1,2.2c0.4,0.8,0.8,1.6,1.3,2.4c0.3,0.8,0.6,1.6,1.1,2.4c0.4,0.8,0.8,1.6,1.1,2.4c0.3,0.8,0.6,1.6,1.1,2.4
			c0.3,0.9,0.6,1.7,0.8,2.5c0.3,0.8,0.6,1.6,1.1,2.4c0.3,0.9,0.6,1.7,0.8,2.5c0.3,0.8,0.5,1.6,0.6,2.5c0.3,0.8,0.6,1.6,0.8,2.5
			c0.3,0.8,0.5,1.6,0.6,2.5c0.3,0.8,0.5,1.6,0.6,2.5c0.1,0.9,0.4,1.7,0.6,2.5c0.1,0.9,0.3,1.8,0.4,2.7c0.1,0.8,0.3,1.6,0.4,2.5
			c0.1,0.9,0.3,1.8,0.4,2.7c0.1,0.9,0.3,1.7,0.4,2.5C705.3,424.1,705.4,425,705.4,425.9z"/>
		<path fill="#FFFFFF" d="M691,427.6c0.1,0.7,0.2,1.4,0.2,2.1c0.1,0.7,0.2,1.4,0.2,2.1c0,0.7,0.1,1.4,0.2,2.1c0,0.7,0,1.4,0,2.1
			c0,0.6,0.1,1.3,0.2,2.1c0,0.6,0,1.3,0,1.9c0,0.7,0,1.4,0,2.1c0,0.6-0.1,1.3-0.2,1.9c0,0.6,0,1.3,0,1.9c0,0.6-0.1,1.3-0.2,2.1
			c0,0.6,0,1.3,0,1.9c-0.1,0.6-0.2,1.2-0.3,1.8c0,0.6-0.1,1.3-0.2,1.9c-0.1,0.6-0.2,1.3-0.2,1.9c-0.1,0.6-0.2,1.2-0.3,1.8
			c-0.1,0.6-0.2,1.2-0.3,1.8c-0.1,0.6-0.2,1.2-0.3,1.8c-0.2,0.6-0.4,1.2-0.5,1.8c-0.1,0.6-0.3,1.2-0.5,1.8c-0.1,0.6-0.3,1.2-0.5,1.8
			c-0.1,0.6-0.3,1.1-0.5,1.7c-0.2,0.6-0.5,1.1-0.7,1.7c-0.1,0.6-0.3,1.1-0.5,1.7c-0.2,0.6-0.5,1.1-0.9,1.7c-0.2,0.6-0.5,1.1-0.7,1.5
			c-0.2,0.6-0.5,1.1-0.9,1.7c-0.2,0.5-0.5,1-0.9,1.5c-0.2,0.5-0.5,1-0.9,1.5c-0.3,0.5-0.7,0.9-1,1.4c-0.2,0.6-0.5,1.1-0.9,1.5
			c-0.5,0.5-0.9,0.9-1.2,1.4c-0.3,0.5-0.7,0.9-1,1.4c-0.5,0.5-0.9,0.9-1.2,1.4c-0.5,0.4-0.9,0.8-1.2,1.2c-0.5,0.5-0.9,0.9-1.4,1.2
			c-0.5,0.5-0.9,0.9-1.4,1.2c-0.5,0.4-0.9,0.8-1.4,1.2c-0.5,0.4-1,0.7-1.6,1.1c-0.5,0.4-1,0.7-1.6,1.1c-0.5,0.4-1,0.7-1.6,1.1
			c-0.6,0.4-1.2,0.7-1.7,1c-0.6,0.4-1.2,0.7-1.7,1c-0.6,0.4-1.2,0.7-1.7,1c-0.7,0.4-1.3,0.7-1.9,1c-0.7,0.3-1.3,0.6-1.9,0.8
			c-0.7,0.3-1.4,0.6-2.1,0.8c-0.7,0.3-1.4,0.5-2.1,0.7c-0.7,0.3-1.4,0.6-2.1,0.8c-0.8,0.2-1.6,0.4-2.3,0.7c-0.8,0.2-1.6,0.4-2.4,0.6
			c-0.7,0.2-1.4,0.4-2.3,0.6c-0.8,0.2-1.6,0.4-2.4,0.6c-0.9,0.2-1.8,0.4-2.6,0.6c-0.8,0.1-1.7,0.2-2.6,0.4c-0.9,0.1-1.8,0.2-2.6,0.3
			c-0.9,0.2-1.9,0.3-2.8,0.4c-0.9,0.1-1.9,0.2-3,0.3c-0.9,0.1-1.9,0.1-2.8,0.1c-1,0.1-2.1,0.2-3.1,0.3c-1,0-2,0-3,0
			c-1.2,0.1-2.3,0.1-3.3,0.1c-1,0-2.1,0-3.1,0c-1.2,0-2.3,0-3.5-0.1c-0.7,0-1.4,0-2.3,0c-0.8-0.1-1.6-0.2-2.4-0.3
			c-0.8,0-1.6,0-2.3-0.1c-0.8-0.1-1.6-0.2-2.3-0.3c-0.8-0.1-1.6-0.2-2.3-0.3c-0.8-0.2-1.6-0.3-2.3-0.4c-0.8-0.2-1.6-0.3-2.3-0.4
			c-0.7-0.2-1.4-0.4-2.1-0.6c-0.8-0.2-1.6-0.4-2.3-0.6c-0.7-0.2-1.4-0.4-2.1-0.6c-0.7-0.3-1.4-0.5-2.1-0.7c-0.7-0.3-1.3-0.5-1.9-0.7
			c-0.7-0.3-1.4-0.6-2.1-0.8c-0.6-0.3-1.2-0.6-1.9-0.8c-0.7-0.3-1.3-0.6-1.9-0.8c-0.7-0.3-1.3-0.6-1.9-0.8c-0.6-0.4-1.2-0.7-1.9-1
			c-0.6-0.4-1.2-0.7-1.7-1.1c-0.6-0.3-1.2-0.6-1.7-1c-0.6-0.4-1.2-0.7-1.7-1.1c-0.6-0.4-1.2-0.7-1.7-1.1c-0.6-0.5-1.2-0.9-1.7-1.2
			c-0.5-0.4-1-0.8-1.6-1.2c-0.6-0.4-1.1-0.8-1.6-1.2c-0.6-0.5-1.1-0.9-1.6-1.4c-0.5-0.4-1-0.8-1.6-1.2c-0.5-0.5-0.9-1-1.4-1.5
			c-0.5-0.5-0.9-0.9-1.4-1.4c-0.5-0.5-0.9-1-1.4-1.5c-0.5-0.5-0.9-0.9-1.4-1.4c-0.5-0.6-0.9-1.1-1.2-1.7c-0.5-0.5-0.9-1-1.2-1.5
			c-0.5-0.6-0.9-1.1-1.2-1.7c-0.5-0.6-0.9-1.1-1.2-1.7c-0.3-0.6-0.8-1.1-1.2-1.7c-0.3-0.6-0.7-1.1-1-1.7c-0.3-0.6-0.7-1.2-1-1.8
			c-0.3-0.6-0.7-1.2-1-1.8c-0.2-0.6-0.5-1.2-0.9-1.8c-0.3-0.6-0.6-1.2-0.9-1.8c-0.3-0.6-0.6-1.3-0.9-1.9c-0.2-0.6-0.5-1.3-0.9-1.9
			c-0.2-0.6-0.5-1.2-0.7-1.8c-0.2-0.7-0.5-1.4-0.7-2.1c-0.2-0.6-0.5-1.3-0.7-1.9c-0.2-0.6-0.5-1.3-0.7-1.9c-0.1-0.7-0.3-1.4-0.5-2.1
			c-0.1-0.6-0.3-1.3-0.5-2.1c-0.1-0.6-0.3-1.3-0.5-2.1c-0.1-0.6-0.2-1.3-0.3-2.1c-0.1-0.7-0.2-1.4-0.3-2.1c-0.1-0.7-0.2-1.5-0.3-2.2
			c-0.1-0.6-0.2-1.3-0.3-2.1c0-0.7-0.1-1.5-0.2-2.2c0-0.7-0.1-1.5-0.2-2.2c0-0.7-0.1-1.5-0.2-2.2c0-0.7,0-1.5,0-2.2s0-1.5,0-2.2
			c0-0.7,0-1.5,0-2.2c0-0.7,0.1-1.4,0.2-2.1c0-0.7,0.1-1.4,0.2-2.1c0-0.6,0.1-1.3,0.2-2.1c0-0.6,0.1-1.3,0.2-2.1
			c0.1-0.6,0.2-1.3,0.3-1.9c0.1-0.7,0.2-1.4,0.3-2.1c0.1-0.7,0.3-1.4,0.5-2.1c0.1-0.6,0.3-1.3,0.5-2.1c0.1-0.6,0.3-1.3,0.5-1.9
			c0.1-0.7,0.3-1.4,0.5-2.1c0.2-0.6,0.5-1.3,0.7-2.1c0.2-0.6,0.5-1.3,0.7-1.9c0.2-0.6,0.5-1.3,0.7-1.9c0.2-0.7,0.5-1.4,0.7-2.1
			c0.3-0.6,0.6-1.3,0.9-1.9c0.3-0.6,0.6-1.3,0.9-1.9c0.3-0.6,0.7-1.3,1-1.9c0.2-0.6,0.5-1.3,0.9-1.9c0.3-0.6,0.7-1.2,1-1.8
			c0.3-0.6,0.7-1.3,1-1.9c0.3-0.6,0.7-1.2,1.2-1.8c0.3-0.6,0.7-1.2,1-1.8c0.5-0.6,0.9-1.2,1.2-1.8c0.5-0.6,0.9-1.2,1.2-1.8
			c0.5-0.6,0.9-1.1,1.4-1.7c0.3-0.6,0.8-1.1,1.2-1.7c0.5-0.6,0.9-1.1,1.4-1.7c0.5-0.6,0.9-1.1,1.4-1.7c0.5-0.6,0.9-1.1,1.4-1.7
			c0.5-0.5,0.9-1,1.4-1.5c0.6-0.5,1.1-1,1.6-1.5c0.5-0.5,1-1,1.6-1.5c0.5-0.5,1-0.9,1.6-1.4c0.5-0.5,1-0.9,1.6-1.4
			c0.5-0.5,1-0.9,1.6-1.4c0.6-0.4,1.1-0.8,1.6-1.2c0.6-0.5,1.2-0.9,1.7-1.2c0.6-0.5,1.2-0.9,1.7-1.2c0.6-0.4,1.2-0.7,1.7-1.1
			c0.6-0.4,1.2-0.7,1.7-1.1c0.6-0.4,1.2-0.7,1.7-1.1c0.6-0.4,1.2-0.7,1.7-1c0.7-0.4,1.3-0.7,1.9-1c0.6-0.3,1.2-0.6,1.9-0.8
			c0.6-0.3,1.2-0.6,1.7-0.8c0.7-0.3,1.3-0.6,1.9-0.8c0.7-0.3,1.3-0.5,1.9-0.7c0.7-0.2,1.3-0.4,1.9-0.7c0.7-0.2,1.4-0.4,2.1-0.6
			c0.6-0.2,1.2-0.4,1.9-0.6c0.7-0.1,1.3-0.2,1.9-0.4c0.7-0.1,1.4-0.2,2.1-0.4c0.7-0.1,1.3-0.2,1.9-0.3c0.7-0.1,1.4-0.1,2.1-0.1
			c0.7-0.1,1.4-0.2,2.1-0.3c0.7,0,1.4,0,2.1,0c0.7,0,1.4,0,2.1,0c0.7,0,1.4,0,2.1,0c0.7,0,1.4,0,2.1,0.1c0.7,0,1.4,0,2.1,0.1
			c0.7,0.1,1.4,0.2,2.1,0.3c0.7,0.1,1.4,0.2,2.1,0.3c0.7,0.1,1.4,0.2,2.1,0.3c0.7,0.2,1.3,0.3,1.9,0.4c0.7,0.2,1.4,0.4,2.1,0.6
			c0.7,0.1,1.4,0.2,2.1,0.4c0.6,0.2,1.2,0.4,1.9,0.6c0.7,0.3,1.3,0.5,1.9,0.7c0.7,0.2,1.3,0.4,1.9,0.7c0.7,0.2,1.4,0.4,2.1,0.7
			c0.6,0.3,1.2,0.6,1.7,0.8c0.7,0.3,1.3,0.6,1.9,0.8c0.7,0.3,1.3,0.6,1.9,0.8c0.6,0.3,1.2,0.6,1.9,0.8c0.6,0.4,1.2,0.7,1.7,1
			c0.6,0.4,1.2,0.7,1.7,1.1c0.6,0.3,1.2,0.6,1.7,1c0.6,0.4,1.2,0.7,1.7,1.1c0.6,0.4,1.2,0.8,1.7,1.2c0.6,0.4,1.2,0.7,1.7,1.1
			c0.6,0.5,1.2,0.9,1.7,1.2c0.5,0.5,1,0.9,1.6,1.2c0.6,0.5,1.1,0.9,1.6,1.4c0.6,0.4,1.1,0.8,1.6,1.2c0.6,0.5,1.1,0.9,1.6,1.4
			c0.5,0.5,1,1,1.6,1.5c0.5,0.5,0.9,0.9,1.4,1.4c0.6,0.6,1.1,1.1,1.6,1.5c0.5,0.5,0.9,1,1.4,1.5c0.5,0.6,0.9,1.1,1.4,1.5
			c0.5,0.6,0.9,1.1,1.4,1.7c0.5,0.6,0.9,1.1,1.2,1.7c0.5,0.6,0.9,1.1,1.4,1.7c0.3,0.6,0.8,1.1,1.2,1.7c0.3,0.6,0.8,1.1,1.2,1.7
			c0.3,0.6,0.8,1.2,1.2,1.8c0.3,0.6,0.7,1.2,1,1.8c0.3,0.6,0.7,1.2,1.2,1.8c0.3,0.6,0.7,1.2,1,1.8c0.3,0.6,0.7,1.3,1,1.9
			c0.3,0.6,0.6,1.2,0.9,1.8c0.3,0.6,0.7,1.3,1,1.9c0.2,0.6,0.5,1.3,0.9,1.9c0.3,0.6,0.6,1.3,0.9,1.9c0.2,0.6,0.5,1.3,0.9,1.9
			c0.2,0.7,0.5,1.4,0.7,2.1c0.2,0.6,0.5,1.3,0.9,1.9c0.2,0.7,0.5,1.4,0.7,2.1c0.2,0.6,0.4,1.3,0.5,2.1c0.2,0.6,0.5,1.3,0.7,2.1
			c0.2,0.6,0.4,1.3,0.5,2.1c0.2,0.6,0.4,1.3,0.5,2.1c0.1,0.7,0.3,1.4,0.5,2.1c0.1,0.7,0.2,1.5,0.3,2.2c0.1,0.6,0.2,1.3,0.3,2.1
			c0.1,0.7,0.2,1.5,0.3,2.2c0.1,0.7,0.2,1.4,0.3,2.1C690.9,426.2,691,426.9,691,427.6z M646.2,420.8c-0.1-0.8-0.2-1.7-0.3-2.5
			c-0.1-0.8-0.3-1.6-0.5-2.4c-0.1-0.8-0.3-1.6-0.5-2.4c-0.2-0.7-0.5-1.5-0.7-2.2c-0.2-0.7-0.5-1.5-0.7-2.2c-0.2-0.7-0.5-1.5-0.7-2.2
			c-0.3-0.6-0.6-1.3-0.9-2.1c-0.3-0.6-0.7-1.3-1-1.9c-0.3-0.6-0.7-1.3-1-1.9c-0.3-0.6-0.7-1.3-1-1.9c-0.3-0.6-0.8-1.1-1.2-1.7
			c-0.3-0.6-0.8-1.2-1.2-1.8c-0.3-0.6-0.8-1.1-1.2-1.5c-0.5-0.6-0.9-1.1-1.4-1.7c-0.5-0.5-0.9-0.9-1.4-1.4c-0.5-0.5-1-0.9-1.6-1.4
			c-0.5-0.4-1-0.8-1.6-1.2c-0.5-0.4-1-0.7-1.6-1.1c-0.6-0.4-1.2-0.7-1.7-1.1c-0.5-0.3-1-0.6-1.7-1c-0.6-0.3-1.2-0.6-1.7-0.8
			c-0.6-0.3-1.2-0.5-1.9-0.7c-0.6-0.2-1.2-0.4-1.9-0.6c-0.6-0.2-1.2-0.4-1.9-0.6c-0.7-0.2-1.4-0.3-2.1-0.4c-0.7-0.1-1.4-0.2-2.1-0.3
			c-0.7,0-1.4,0-2.1-0.1c-0.7,0-1.4,0-2.1,0c-0.6,0.1-1.2,0.1-1.9,0.1c-0.6,0.1-1.2,0.2-1.7,0.4c-0.7,0.1-1.3,0.2-1.9,0.4
			c-0.6,0.2-1.2,0.4-1.7,0.6c-0.6,0.3-1.2,0.5-1.7,0.7c-0.6,0.3-1.1,0.6-1.6,1c-0.6,0.3-1.1,0.6-1.6,1c-0.6,0.3-1.1,0.6-1.6,1
			c-0.6,0.5-1.1,0.9-1.6,1.2c-0.5,0.5-0.9,0.9-1.4,1.2c-0.5,0.5-0.9,1-1.2,1.5c-0.5,0.5-0.9,1-1.4,1.5c-0.3,0.5-0.8,1-1.2,1.5
			c-0.3,0.6-0.7,1.1-1,1.7c-0.3,0.6-0.7,1.2-1,1.8c-0.3,0.6-0.7,1.2-1,1.8c-0.2,0.6-0.5,1.3-0.9,1.9c-0.2,0.6-0.5,1.3-0.9,2.1
			c-0.2,0.6-0.5,1.3-0.7,2.1c-0.2,0.6-0.5,1.3-0.7,2.1s-0.4,1.4-0.5,2.1c-0.2,0.7-0.4,1.5-0.5,2.2c-0.1,0.7-0.3,1.5-0.5,2.4
			c-0.1,0.7-0.2,1.5-0.2,2.2c-0.1,0.8-0.2,1.6-0.3,2.4c0,0.7-0.1,1.5-0.2,2.4c0,0.7,0,1.5,0,2.4c0,0.7,0,1.5,0,2.2
			c0,0.8,0.1,1.6,0.2,2.4c0,0.7,0.1,1.5,0.2,2.2c0.1,0.6,0.2,1.3,0.3,2.1c0.1,0.7,0.3,1.5,0.5,2.2c0.1,0.6,0.3,1.3,0.5,1.9
			c0.1,0.7,0.3,1.4,0.5,2.1c0.2,0.6,0.5,1.3,0.9,1.9c0.2,0.6,0.5,1.3,0.7,1.9c0.3,0.6,0.7,1.2,1,1.8c0.2,0.6,0.5,1.2,0.9,1.8
			c0.3,0.6,0.8,1.1,1.2,1.7c0.3,0.6,0.8,1.1,1.2,1.7c0.3,0.6,0.8,1.1,1.2,1.5c0.5,0.6,0.9,1.1,1.4,1.5c0.5,0.5,0.9,0.9,1.4,1.4
			c0.6,0.5,1.1,0.9,1.6,1.2c0.6,0.5,1.1,0.9,1.6,1.2c0.6,0.4,1.2,0.7,1.7,1.1c0.6,0.4,1.2,0.7,1.7,1c0.7,0.3,1.3,0.6,1.9,1
			c0.7,0.3,1.3,0.5,1.9,0.7c0.7,0.3,1.4,0.5,2.1,0.7c0.7,0.3,1.4,0.5,2.1,0.6c0.7,0.2,1.4,0.4,2.1,0.6c0.8,0.1,1.6,0.2,2.3,0.3
			c0.8,0.1,1.6,0.2,2.4,0.3c0.7,0,1.4,0,2.3,0c0.8,0,1.6,0,2.3,0c0.8,0,1.6,0,2.3-0.1c0.7-0.1,1.4-0.2,2.1-0.4
			c0.7-0.1,1.4-0.2,2.1-0.4c0.7-0.2,1.4-0.4,2.1-0.6c0.6-0.2,1.2-0.4,1.9-0.7c0.6-0.3,1.2-0.6,1.7-0.8c0.6-0.3,1.2-0.6,1.7-0.8
			c0.6-0.4,1.1-0.7,1.6-1.1c0.6-0.4,1.1-0.7,1.6-1.1c0.6-0.4,1.1-0.8,1.6-1.2c0.5-0.5,0.9-0.9,1.4-1.2c0.5-0.5,0.9-1,1.2-1.5
			c0.5-0.5,0.9-1,1.2-1.5c0.3-0.5,0.8-1,1.2-1.5c0.3-0.6,0.6-1.1,0.9-1.7c0.3-0.6,0.7-1.1,1-1.7c0.2-0.6,0.5-1.2,0.7-1.8
			c0.3-0.6,0.6-1.3,0.9-1.9c0.2-0.6,0.4-1.3,0.5-1.9c0.2-0.6,0.4-1.3,0.5-1.9c0.2-0.6,0.4-1.3,0.5-2.1c0.1-0.6,0.2-1.3,0.3-2.1
			c0.1-0.7,0.2-1.4,0.2-2.1c0.1-0.7,0.2-1.5,0.2-2.2s0-1.5,0-2.2c0-0.7,0-1.5,0-2.2c0-0.7-0.1-1.5-0.2-2.2
			C646.4,422.3,646.3,421.6,646.2,420.8z"/>
	</g>
</g>
</svg>
