<?xml version="1.0" encoding="utf-8"?>
<!-- Generator: Adobe Illustrator 18.0.0, SVG Export Plug-In . SVG Version: 6.00 Build 0)  -->
<!DOCTYPE svg PUBLIC "-//W3C//DTD SVG 1.1//EN" "http://www.w3.org/Graphics/SVG/1.1/DTD/svg11.dtd">
<svg version="1.1" id="Camada_1" xmlns="http://www.w3.org/2000/svg" xmlns:xlink="http://www.w3.org/1999/xlink" x="0px" y="0px"
	 viewBox="0 0 1024 768" enable-background="new 0 0 1024 768" xml:space="preserve">
<g>
	<defs>
		<circle id="SVGID_1_" cx="511.9" cy="383.4" r="375.7"/>
	</defs>
	<clipPath id="SVGID_2_">
		<use xlink:href="#SVGID_1_"  overflow="visible"/>
	</clipPath>
	<g clip-path="url(#SVGID_2_)" enable-background="new    ">
		
			<image overflow="visible" width="2474" height="2474" xlink:href="../../banco de imagens/botões/butt 25.png"  transform="matrix(0.3065 0 0 0.3065 132.8006 4.7999)">
		</image>
	</g>
</g>
<g>
	<g>
		<path d="M784.1,455.1c0.1,0.9,0.2,1.8,0.2,2.6c0.1,0.9,0.2,1.8,0.2,2.6c0,0.9,0.1,1.8,0.2,2.6c0,0.9,0,1.8,0,2.6
			c0,0.8,0.1,1.7,0.2,2.6c0,0.8,0,1.6,0,2.5c0,0.9,0,1.8,0,2.6c0,0.8-0.1,1.6-0.2,2.5c0,0.8,0,1.6,0,2.5c0,0.8-0.1,1.7-0.2,2.6
			c0,0.8,0,1.6,0,2.5c-0.1,0.7-0.3,1.5-0.4,2.3c0,0.8-0.1,1.6-0.2,2.5c-0.1,0.8-0.2,1.6-0.2,2.5c-0.1,0.7-0.3,1.5-0.4,2.3
			c-0.1,0.8-0.3,1.6-0.4,2.3c-0.1,0.8-0.3,1.6-0.4,2.3c-0.3,0.8-0.5,1.6-0.7,2.3c-0.1,0.8-0.4,1.6-0.7,2.3c-0.1,0.7-0.4,1.5-0.7,2.3
			c-0.1,0.7-0.4,1.4-0.7,2.1c-0.3,0.7-0.6,1.4-0.9,2.1c-0.1,0.7-0.4,1.4-0.7,2.1c-0.3,0.7-0.7,1.4-1.1,2.1c-0.3,0.7-0.6,1.3-0.9,1.9
			c-0.3,0.7-0.7,1.4-1.1,2.1c-0.3,0.6-0.7,1.2-1.1,1.9c-0.3,0.6-0.7,1.2-1.1,1.9c-0.4,0.6-0.9,1.2-1.3,1.8c-0.3,0.7-0.7,1.3-1.1,1.9
			c-0.6,0.6-1.1,1.2-1.5,1.8c-0.4,0.6-0.9,1.2-1.3,1.8c-0.6,0.6-1.1,1.2-1.5,1.8c-0.6,0.5-1.1,1-1.5,1.6c-0.6,0.6-1.2,1.1-1.8,1.6
			c-0.6,0.6-1.2,1.1-1.8,1.6c-0.6,0.5-1.2,1-1.8,1.6c-0.6,0.5-1.2,0.9-2,1.4c-0.6,0.5-1.2,0.9-2,1.4c-0.6,0.5-1.2,0.9-2,1.4
			c-0.7,0.5-1.5,0.9-2.2,1.2c-0.7,0.5-1.5,0.9-2.2,1.2c-0.7,0.5-1.5,0.9-2.2,1.2c-0.9,0.5-1.7,0.9-2.4,1.2c-0.9,0.4-1.7,0.7-2.4,1.1
			c-0.9,0.4-1.8,0.7-2.6,1.1c-0.9,0.4-1.8,0.6-2.6,0.9c-0.9,0.4-1.8,0.7-2.6,1.1c-1,0.2-2,0.5-2.9,0.9c-1,0.2-2.1,0.5-3.1,0.7
			c-0.9,0.2-1.8,0.5-2.9,0.7c-1,0.2-2.1,0.5-3.1,0.7c-1.2,0.2-2.3,0.5-3.3,0.7c-1,0.1-2.1,0.3-3.3,0.5c-1.2,0.1-2.3,0.2-3.3,0.4
			c-1.2,0.2-2.3,0.4-3.5,0.5s-2.4,0.2-3.7,0.3c-1.2,0.1-2.3,0.2-3.5,0.2c-1.3,0.1-2.6,0.2-4,0.4c-1.3,0-2.6,0-3.7,0
			c-1.5,0.1-2.9,0.2-4.2,0.2c-1.3,0-2.6,0-4,0c-1.5,0-2.9-0.1-4.4-0.2c-0.9,0-1.8,0-2.9,0c-1-0.1-2.1-0.2-3.1-0.4
			c-1,0-2-0.1-2.9-0.2c-1-0.1-2-0.2-2.9-0.3c-1-0.1-2-0.2-2.9-0.4c-1-0.2-2-0.4-2.9-0.5c-1-0.2-2-0.4-2.9-0.5
			c-0.9-0.2-1.8-0.5-2.6-0.7c-1-0.2-2-0.5-2.9-0.7c-0.9-0.2-1.8-0.5-2.6-0.7c-0.9-0.4-1.8-0.6-2.6-0.9c-0.9-0.4-1.7-0.6-2.4-0.9
			c-0.9-0.4-1.8-0.7-2.6-1.1c-0.7-0.4-1.5-0.7-2.4-1.1c-0.9-0.4-1.7-0.7-2.4-1.1c-0.9-0.3-1.7-0.7-2.4-1.1c-0.7-0.5-1.5-0.9-2.4-1.2
			c-0.7-0.5-1.5-0.9-2.2-1.4c-0.7-0.4-1.5-0.8-2.2-1.2c-0.7-0.5-1.5-0.9-2.2-1.4c-0.7-0.5-1.5-0.9-2.2-1.4c-0.7-0.6-1.5-1.1-2.2-1.6
			c-0.6-0.5-1.2-1-2-1.6c-0.7-0.5-1.4-1-2-1.6c-0.7-0.6-1.4-1.2-2-1.8c-0.6-0.5-1.2-1-2-1.6c-0.6-0.6-1.2-1.2-1.8-1.9
			c-0.6-0.6-1.2-1.2-1.8-1.8c-0.6-0.6-1.2-1.2-1.8-1.9c-0.6-0.6-1.2-1.2-1.8-1.8c-0.6-0.7-1.1-1.4-1.5-2.1c-0.6-0.6-1.1-1.2-1.5-1.9
			c-0.6-0.7-1.1-1.4-1.5-2.1c-0.6-0.7-1.1-1.4-1.5-2.1c-0.4-0.7-1-1.4-1.5-2.1c-0.4-0.7-0.9-1.4-1.3-2.1c-0.4-0.8-0.9-1.6-1.3-2.3
			c-0.4-0.7-0.9-1.5-1.3-2.3c-0.3-0.7-0.7-1.5-1.1-2.3c-0.4-0.8-0.8-1.6-1.1-2.3c-0.4-0.8-0.8-1.6-1.1-2.5c-0.3-0.8-0.7-1.6-1.1-2.5
			c-0.3-0.7-0.6-1.5-0.9-2.3c-0.3-0.9-0.6-1.8-0.9-2.6c-0.3-0.8-0.6-1.6-0.9-2.5c-0.3-0.8-0.6-1.6-0.9-2.5c-0.1-0.9-0.4-1.8-0.7-2.6
			c-0.1-0.8-0.4-1.7-0.7-2.6c-0.1-0.8-0.4-1.7-0.7-2.6c-0.1-0.8-0.3-1.7-0.4-2.6c-0.1-0.9-0.3-1.8-0.4-2.6c-0.1-0.9-0.3-1.9-0.4-2.8
			c-0.1-0.8-0.3-1.7-0.4-2.6c0-0.9-0.1-1.9-0.2-2.8c0-0.9-0.1-1.9-0.2-2.8c0-0.9-0.1-1.9-0.2-2.8c0-0.9,0-1.9,0-2.8s0-1.9,0-2.8
			c0-0.9,0-1.9,0-2.8c0-0.9,0.1-1.8,0.2-2.6c0-0.9,0.1-1.8,0.2-2.6c0-0.8,0.1-1.7,0.2-2.6c0-0.8,0.1-1.7,0.2-2.6
			c0.1-0.8,0.3-1.6,0.4-2.5c0.1-0.9,0.3-1.8,0.4-2.6c0.1-0.9,0.4-1.8,0.7-2.6c0.1-0.8,0.4-1.7,0.7-2.6c0.1-0.8,0.4-1.6,0.7-2.5
			c0.1-0.9,0.4-1.8,0.7-2.6c0.3-0.8,0.6-1.7,0.9-2.6c0.3-0.8,0.6-1.6,0.9-2.5c0.3-0.8,0.6-1.6,0.9-2.5c0.3-0.9,0.6-1.8,0.9-2.6
			c0.4-0.8,0.8-1.6,1.1-2.5c0.4-0.8,0.8-1.6,1.1-2.5c0.4-0.8,0.9-1.6,1.3-2.5c0.3-0.8,0.7-1.6,1.1-2.5c0.4-0.7,0.9-1.5,1.3-2.3
			c0.4-0.8,0.9-1.6,1.3-2.5c0.4-0.7,0.9-1.5,1.5-2.3c0.4-0.8,0.9-1.6,1.3-2.3c0.6-0.8,1.1-1.6,1.5-2.3c0.6-0.7,1.1-1.5,1.5-2.3
			c0.6-0.7,1.2-1.4,1.8-2.1c0.4-0.7,1-1.4,1.5-2.1c0.6-0.7,1.2-1.4,1.8-2.1c0.6-0.7,1.2-1.4,1.8-2.1c0.6-0.7,1.2-1.4,1.8-2.1
			c0.6-0.6,1.2-1.2,1.8-1.9c0.7-0.6,1.4-1.2,2-1.9c0.6-0.6,1.2-1.2,2-1.9c0.6-0.6,1.2-1.2,2-1.8c0.6-0.6,1.2-1.2,2-1.8
			c0.6-0.6,1.2-1.2,2-1.8c0.7-0.5,1.4-1,2-1.6c0.7-0.6,1.5-1.1,2.2-1.6c0.7-0.6,1.5-1.1,2.2-1.6c0.7-0.5,1.5-0.9,2.2-1.4
			c0.7-0.5,1.5-0.9,2.2-1.4c0.7-0.5,1.5-0.9,2.2-1.4c0.7-0.5,1.5-0.9,2.2-1.2c0.9-0.5,1.7-0.9,2.4-1.2c0.7-0.4,1.5-0.7,2.4-1.1
			c0.7-0.4,1.5-0.7,2.2-1.1c0.9-0.3,1.7-0.7,2.4-1.1c0.9-0.4,1.7-0.6,2.4-0.9c0.9-0.2,1.7-0.5,2.4-0.9c0.9-0.2,1.8-0.5,2.6-0.7
			c0.7-0.2,1.5-0.5,2.4-0.7c0.9-0.1,1.7-0.3,2.4-0.5c0.9-0.1,1.8-0.3,2.6-0.5c0.9-0.1,1.7-0.2,2.4-0.4c0.9-0.1,1.8-0.2,2.6-0.2
			c0.9-0.1,1.8-0.2,2.6-0.4c0.9,0,1.8,0,2.6,0c0.9,0,1.8,0,2.6,0c0.9,0,1.8,0,2.6,0c0.9,0,1.8,0.1,2.6,0.2c0.9,0,1.8,0.1,2.6,0.2
			c0.9,0.1,1.8,0.2,2.6,0.4c0.9,0.1,1.8,0.2,2.6,0.4c0.9,0.1,1.8,0.2,2.6,0.4c0.9,0.2,1.7,0.4,2.4,0.5c0.9,0.2,1.8,0.5,2.6,0.7
			c0.9,0.1,1.8,0.3,2.6,0.5c0.7,0.2,1.5,0.5,2.4,0.7c0.9,0.4,1.7,0.6,2.4,0.9c0.9,0.2,1.7,0.5,2.4,0.9c0.9,0.2,1.8,0.5,2.6,0.9
			c0.7,0.4,1.5,0.7,2.2,1.1c0.9,0.4,1.7,0.7,2.4,1.1c0.9,0.3,1.7,0.7,2.4,1.1c0.7,0.4,1.5,0.7,2.4,1.1c0.7,0.5,1.5,0.9,2.2,1.2
			c0.7,0.5,1.5,0.9,2.2,1.4c0.7,0.4,1.5,0.8,2.2,1.2c0.7,0.5,1.5,0.9,2.2,1.4c0.7,0.5,1.5,1,2.2,1.6c0.7,0.5,1.5,0.9,2.2,1.4
			c0.7,0.6,1.5,1.1,2.2,1.6c0.6,0.6,1.2,1.1,2,1.6c0.7,0.6,1.4,1.2,2,1.8c0.7,0.5,1.4,1,2,1.6c0.7,0.6,1.4,1.2,2,1.8
			c0.6,0.6,1.2,1.2,2,1.9c0.6,0.6,1.2,1.2,1.8,1.8c0.7,0.7,1.4,1.3,2,1.9c0.6,0.6,1.2,1.2,1.8,1.9c0.6,0.7,1.2,1.3,1.8,1.9
			c0.6,0.7,1.2,1.4,1.8,2.1c0.6,0.7,1.1,1.4,1.5,2.1c0.6,0.7,1.2,1.4,1.8,2.1c0.4,0.7,1,1.4,1.5,2.1c0.4,0.7,1,1.4,1.5,2.1
			c0.4,0.8,1,1.6,1.5,2.3c0.4,0.7,0.9,1.5,1.3,2.3c0.4,0.7,0.9,1.5,1.5,2.3c0.4,0.8,0.9,1.6,1.3,2.3c0.4,0.8,0.9,1.6,1.3,2.5
			c0.4,0.7,0.8,1.5,1.1,2.3c0.4,0.8,0.9,1.6,1.3,2.5c0.3,0.8,0.7,1.6,1.1,2.5c0.4,0.8,0.8,1.6,1.1,2.5c0.3,0.8,0.7,1.6,1.1,2.5
			c0.3,0.9,0.6,1.8,0.9,2.6c0.3,0.8,0.7,1.6,1.1,2.5c0.3,0.9,0.6,1.8,0.9,2.6c0.3,0.8,0.5,1.7,0.7,2.6c0.3,0.8,0.6,1.7,0.9,2.6
			c0.3,0.8,0.5,1.7,0.7,2.6c0.3,0.8,0.5,1.7,0.7,2.6c0.1,0.9,0.4,1.8,0.7,2.6c0.1,0.9,0.3,1.9,0.4,2.8c0.1,0.8,0.3,1.7,0.4,2.6
			c0.1,0.9,0.3,1.9,0.4,2.8c0.1,0.9,0.3,1.8,0.4,2.6C784,453.2,784.1,454.1,784.1,455.1z"/>
		<path fill="#FFFFFF" d="M769,456.9c0.1,0.8,0.2,1.5,0.2,2.2c0.1,0.8,0.2,1.5,0.2,2.2c0,0.8,0.1,1.5,0.2,2.2c0,0.8,0,1.5,0,2.2
			c0,0.7,0.1,1.4,0.2,2.2c0,0.7,0,1.4,0,2c0,0.8,0,1.5,0,2.2c0,0.7-0.1,1.4-0.2,2c0,0.7,0,1.4,0,2c0,0.7-0.1,1.4-0.2,2.2
			c0,0.7,0,1.4,0,2c-0.1,0.6-0.2,1.2-0.4,1.9c0,0.7-0.1,1.4-0.2,2c-0.1,0.7-0.2,1.4-0.2,2c-0.1,0.6-0.2,1.2-0.4,1.9
			c-0.1,0.7-0.2,1.3-0.4,1.9c-0.1,0.7-0.2,1.3-0.4,1.9c-0.2,0.7-0.4,1.3-0.5,1.9c-0.1,0.7-0.3,1.3-0.5,1.9c-0.1,0.6-0.3,1.2-0.5,1.9
			c-0.1,0.6-0.3,1.2-0.5,1.7c-0.2,0.6-0.5,1.2-0.7,1.7c-0.1,0.6-0.3,1.2-0.5,1.7c-0.2,0.6-0.5,1.2-0.9,1.7c-0.2,0.6-0.5,1.1-0.7,1.6
			c-0.2,0.6-0.5,1.2-0.9,1.7c-0.2,0.5-0.5,1-0.9,1.6c-0.2,0.5-0.5,1-0.9,1.6c-0.4,0.5-0.7,1-1.1,1.4c-0.2,0.6-0.5,1.1-0.9,1.6
			c-0.5,0.5-0.9,1-1.3,1.4c-0.4,0.5-0.7,1-1.1,1.4c-0.5,0.5-0.9,1-1.3,1.4c-0.5,0.4-0.9,0.8-1.3,1.3c-0.5,0.5-1,0.9-1.4,1.3
			c-0.5,0.5-1,0.9-1.4,1.3c-0.5,0.4-1,0.8-1.4,1.3c-0.5,0.4-1,0.8-1.6,1.2c-0.5,0.4-1,0.8-1.6,1.2c-0.5,0.4-1,0.8-1.6,1.2
			c-0.6,0.4-1.2,0.7-1.8,1c-0.6,0.4-1.2,0.7-1.8,1c-0.6,0.4-1.2,0.7-1.8,1c-0.7,0.4-1.4,0.7-2,1c-0.7,0.3-1.4,0.6-2,0.9
			c-0.7,0.3-1.4,0.6-2.2,0.9c-0.7,0.3-1.4,0.5-2.2,0.7c-0.7,0.3-1.4,0.6-2.2,0.9c-0.8,0.2-1.6,0.4-2.4,0.7c-0.8,0.2-1.7,0.4-2.5,0.6
			c-0.7,0.2-1.5,0.4-2.4,0.6c-0.8,0.2-1.7,0.4-2.5,0.6c-1,0.2-1.9,0.4-2.7,0.6c-0.8,0.1-1.8,0.2-2.7,0.4c-1,0.1-1.9,0.2-2.7,0.3
			c-1,0.2-1.9,0.3-2.9,0.4s-2,0.2-3.1,0.3c-1,0.1-1.9,0.1-2.9,0.1c-1.1,0.1-2.2,0.2-3.3,0.3c-1.1,0-2.1,0-3.1,0
			c-1.2,0.1-2.4,0.1-3.4,0.1c-1.1,0-2.2,0-3.3,0c-1.2,0-2.4,0-3.6-0.1c-0.7,0-1.5,0-2.4,0c-0.8-0.1-1.7-0.2-2.5-0.3
			c-0.8,0-1.6,0-2.4-0.1c-0.8-0.1-1.6-0.2-2.4-0.3c-0.8-0.1-1.6-0.2-2.4-0.3c-0.8-0.2-1.6-0.3-2.4-0.4c-0.8-0.2-1.6-0.3-2.4-0.4
			c-0.7-0.2-1.4-0.4-2.2-0.6c-0.8-0.2-1.6-0.4-2.4-0.6c-0.7-0.2-1.4-0.4-2.2-0.6c-0.7-0.3-1.4-0.5-2.2-0.7c-0.7-0.3-1.4-0.5-2-0.7
			c-0.7-0.3-1.4-0.6-2.2-0.9c-0.6-0.3-1.3-0.6-2-0.9c-0.7-0.3-1.4-0.6-2-0.9c-0.7-0.3-1.4-0.6-2-0.9c-0.6-0.4-1.3-0.7-2-1
			c-0.6-0.4-1.2-0.8-1.8-1.2c-0.6-0.3-1.2-0.6-1.8-1c-0.6-0.4-1.2-0.8-1.8-1.2c-0.6-0.4-1.2-0.8-1.8-1.2c-0.6-0.5-1.2-0.9-1.8-1.3
			c-0.5-0.4-1-0.8-1.6-1.3c-0.6-0.4-1.1-0.8-1.6-1.3c-0.6-0.5-1.1-1-1.6-1.4c-0.5-0.4-1-0.8-1.6-1.3c-0.5-0.5-1-1-1.4-1.6
			c-0.5-0.5-1-1-1.4-1.4c-0.5-0.5-1-1-1.4-1.6c-0.5-0.5-1-1-1.4-1.4c-0.5-0.6-0.9-1.2-1.3-1.7c-0.5-0.5-0.9-1-1.3-1.6
			c-0.5-0.6-0.9-1.2-1.3-1.7c-0.5-0.6-0.9-1.2-1.3-1.7c-0.4-0.6-0.8-1.2-1.3-1.7c-0.4-0.6-0.7-1.2-1.1-1.7c-0.4-0.7-0.7-1.3-1.1-1.9
			c-0.4-0.6-0.7-1.2-1.1-1.9c-0.2-0.6-0.5-1.2-0.9-1.9c-0.4-0.7-0.7-1.3-0.9-1.9c-0.4-0.7-0.7-1.4-0.9-2c-0.2-0.7-0.5-1.4-0.9-2
			c-0.2-0.6-0.5-1.2-0.7-1.9c-0.2-0.8-0.5-1.5-0.7-2.2c-0.2-0.7-0.5-1.4-0.7-2c-0.2-0.7-0.5-1.4-0.7-2c-0.1-0.8-0.3-1.5-0.5-2.2
			c-0.1-0.7-0.3-1.4-0.5-2.2c-0.1-0.7-0.3-1.4-0.5-2.2c-0.1-0.7-0.2-1.4-0.4-2.2c-0.1-0.8-0.2-1.5-0.4-2.2c-0.1-0.8-0.2-1.5-0.4-2.3
			c-0.1-0.7-0.2-1.4-0.4-2.2c0-0.8-0.1-1.5-0.2-2.3c0-0.8-0.1-1.5-0.2-2.3c0-0.8-0.1-1.5-0.2-2.3c0-0.8,0-1.5,0-2.3s0-1.5,0-2.3
			c0-0.8,0-1.5,0-2.3c0-0.8,0.1-1.5,0.2-2.2c0-0.8,0.1-1.5,0.2-2.2c0-0.7,0.1-1.4,0.2-2.2c0-0.7,0.1-1.4,0.2-2.2
			c0.1-0.7,0.2-1.4,0.4-2c0.1-0.8,0.2-1.5,0.4-2.2c0.1-0.8,0.3-1.5,0.5-2.2c0.1-0.7,0.3-1.4,0.5-2.2c0.1-0.7,0.3-1.4,0.5-2
			c0.1-0.8,0.3-1.5,0.5-2.2c0.2-0.7,0.5-1.4,0.7-2.2c0.2-0.7,0.5-1.4,0.7-2c0.2-0.7,0.5-1.4,0.7-2c0.2-0.8,0.5-1.5,0.7-2.2
			c0.4-0.7,0.7-1.4,0.9-2c0.4-0.7,0.7-1.4,0.9-2c0.4-0.7,0.7-1.4,1.1-2c0.2-0.7,0.5-1.4,0.9-2c0.4-0.6,0.7-1.2,1.1-1.9
			c0.4-0.7,0.7-1.4,1.1-2c0.4-0.6,0.8-1.2,1.3-1.9c0.4-0.7,0.7-1.3,1.1-1.9c0.5-0.7,0.9-1.3,1.3-1.9c0.5-0.6,0.9-1.2,1.3-1.9
			c0.5-0.6,1-1.2,1.4-1.7c0.4-0.6,0.8-1.2,1.3-1.7c0.5-0.6,1-1.2,1.4-1.7c0.5-0.6,1-1.2,1.4-1.7c0.5-0.6,1-1.2,1.4-1.7
			c0.5-0.5,1-1,1.4-1.6c0.6-0.5,1.1-1,1.6-1.6c0.5-0.5,1-1,1.6-1.6c0.5-0.5,1-1,1.6-1.4c0.5-0.5,1-1,1.6-1.4c0.5-0.5,1-1,1.6-1.4
			c0.6-0.4,1.1-0.8,1.6-1.3c0.6-0.5,1.2-0.9,1.8-1.3c0.6-0.5,1.2-0.9,1.8-1.3c0.6-0.4,1.2-0.8,1.8-1.2c0.6-0.4,1.2-0.8,1.8-1.2
			c0.6-0.4,1.2-0.8,1.8-1.2c0.6-0.4,1.2-0.7,1.8-1c0.7-0.4,1.4-0.7,2-1c0.6-0.3,1.3-0.6,2-0.9c0.6-0.3,1.2-0.6,1.8-0.9
			c0.7-0.3,1.4-0.6,2-0.9c0.7-0.3,1.4-0.5,2-0.7c0.7-0.2,1.4-0.4,2-0.7c0.7-0.2,1.4-0.4,2.2-0.6c0.6-0.2,1.3-0.4,2-0.6
			c0.7-0.1,1.4-0.2,2-0.4c0.7-0.1,1.4-0.2,2.2-0.4c0.7-0.1,1.4-0.2,2-0.3c0.7-0.1,1.4-0.1,2.2-0.1c0.7-0.1,1.4-0.2,2.2-0.3
			c0.7,0,1.4,0,2.2,0c0.7,0,1.4,0,2.2,0c0.7,0,1.4,0,2.2,0c0.7,0,1.4,0.1,2.2,0.1c0.7,0,1.4,0.1,2.2,0.1c0.7,0.1,1.4,0.2,2.2,0.3
			c0.7,0.1,1.5,0.2,2.2,0.3c0.7,0.1,1.4,0.2,2.2,0.3c0.7,0.2,1.4,0.3,2,0.4c0.7,0.2,1.4,0.4,2.2,0.6c0.7,0.1,1.4,0.2,2.2,0.4
			c0.6,0.2,1.3,0.4,2,0.6c0.7,0.3,1.4,0.5,2,0.7c0.7,0.2,1.4,0.4,2,0.7c0.7,0.2,1.4,0.4,2.2,0.7c0.6,0.3,1.2,0.6,1.8,0.9
			c0.7,0.3,1.4,0.6,2,0.9c0.7,0.3,1.4,0.6,2,0.9c0.6,0.3,1.3,0.6,2,0.9c0.6,0.4,1.2,0.7,1.8,1c0.6,0.4,1.2,0.8,1.8,1.2
			c0.6,0.3,1.2,0.6,1.8,1c0.6,0.4,1.2,0.8,1.8,1.2c0.6,0.4,1.2,0.8,1.8,1.3c0.6,0.4,1.2,0.8,1.8,1.2c0.6,0.5,1.2,0.9,1.8,1.3
			c0.5,0.5,1,0.9,1.6,1.3c0.6,0.5,1.1,1,1.6,1.4c0.6,0.4,1.1,0.8,1.6,1.3c0.6,0.5,1.1,1,1.6,1.4c0.5,0.5,1,1,1.6,1.6
			c0.5,0.5,1,1,1.4,1.4c0.6,0.6,1.1,1.1,1.6,1.6c0.5,0.5,1,1,1.5,1.6c0.5,0.6,1,1.1,1.4,1.6c0.5,0.6,1,1.2,1.4,1.7
			c0.5,0.6,0.9,1.2,1.3,1.7c0.5,0.6,1,1.2,1.4,1.7c0.4,0.6,0.8,1.2,1.3,1.7c0.4,0.6,0.8,1.2,1.3,1.7c0.4,0.7,0.8,1.3,1.3,1.9
			c0.4,0.6,0.7,1.2,1.1,1.9c0.4,0.6,0.8,1.2,1.3,1.9c0.4,0.7,0.7,1.3,1.1,1.9c0.4,0.7,0.7,1.4,1.1,2c0.4,0.6,0.7,1.2,0.9,1.9
			c0.4,0.7,0.7,1.4,1.1,2c0.2,0.7,0.5,1.4,0.9,2c0.4,0.7,0.7,1.4,0.9,2c0.2,0.7,0.5,1.4,0.9,2c0.2,0.8,0.5,1.5,0.7,2.2
			c0.2,0.7,0.5,1.4,0.9,2c0.2,0.8,0.5,1.5,0.7,2.2c0.2,0.7,0.4,1.4,0.5,2.2c0.2,0.7,0.5,1.4,0.7,2.2c0.2,0.7,0.4,1.4,0.5,2.2
			c0.2,0.7,0.4,1.4,0.5,2.2c0.1,0.8,0.3,1.5,0.5,2.2c0.1,0.8,0.2,1.5,0.4,2.3c0.1,0.7,0.2,1.4,0.4,2.2c0.1,0.8,0.2,1.5,0.4,2.3
			c0.1,0.8,0.2,1.5,0.4,2.2C769,455.3,769,456.1,769,456.9z M722.3,449.8c-0.1-0.9-0.2-1.7-0.4-2.6c-0.1-0.9-0.3-1.7-0.5-2.5
			c-0.1-0.9-0.3-1.7-0.5-2.5c-0.2-0.8-0.5-1.5-0.7-2.3c-0.2-0.8-0.5-1.5-0.7-2.3c-0.2-0.8-0.5-1.5-0.7-2.3c-0.4-0.7-0.7-1.4-0.9-2.2
			c-0.4-0.7-0.7-1.4-1.1-2c-0.4-0.7-0.7-1.4-1.1-2c-0.4-0.7-0.7-1.4-1.1-2c-0.4-0.6-0.8-1.2-1.3-1.7c-0.4-0.7-0.8-1.3-1.3-1.9
			c-0.4-0.6-0.8-1.1-1.3-1.6c-0.5-0.6-1-1.2-1.4-1.7c-0.5-0.5-1-1-1.4-1.4c-0.5-0.5-1-1-1.6-1.4c-0.5-0.4-1-0.8-1.6-1.3
			c-0.5-0.4-1-0.8-1.6-1.2c-0.6-0.4-1.2-0.8-1.8-1.2c-0.5-0.3-1.1-0.6-1.8-1c-0.6-0.3-1.2-0.6-1.8-0.9c-0.6-0.3-1.3-0.5-2-0.7
			c-0.6-0.2-1.3-0.4-2-0.6c-0.6-0.2-1.3-0.4-2-0.6c-0.7-0.2-1.4-0.3-2.2-0.4c-0.7-0.1-1.4-0.2-2.2-0.3c-0.7,0-1.4,0-2.2-0.1
			c-0.7,0-1.4,0-2.2,0c-0.6,0.1-1.3,0.1-2,0.1c-0.6,0.1-1.2,0.2-1.8,0.4c-0.7,0.1-1.4,0.2-2,0.4c-0.6,0.2-1.2,0.4-1.8,0.6
			c-0.6,0.3-1.2,0.5-1.8,0.7c-0.6,0.3-1.1,0.6-1.6,1c-0.6,0.3-1.1,0.6-1.6,1c-0.6,0.3-1.1,0.6-1.6,1c-0.6,0.5-1.1,0.9-1.6,1.3
			c-0.5,0.5-1,0.9-1.4,1.3c-0.5,0.5-0.9,1-1.3,1.6c-0.5,0.5-1,1-1.4,1.6c-0.4,0.5-0.8,1-1.3,1.6c-0.4,0.6-0.7,1.2-1.1,1.7
			c-0.4,0.7-0.7,1.3-1.1,1.9c-0.4,0.7-0.7,1.3-1.1,1.9c-0.2,0.7-0.5,1.4-0.9,2c-0.2,0.7-0.5,1.4-0.9,2.2c-0.2,0.7-0.5,1.4-0.7,2.2
			c-0.2,0.7-0.5,1.4-0.7,2.2c-0.2,0.8-0.4,1.5-0.5,2.2c-0.2,0.8-0.4,1.5-0.5,2.3c-0.1,0.8-0.3,1.6-0.5,2.5c-0.1,0.8-0.2,1.5-0.2,2.3
			c-0.1,0.9-0.2,1.7-0.4,2.5c0,0.8-0.1,1.6-0.2,2.5c0,0.8,0,1.6,0,2.5c0,0.8,0,1.5,0,2.3c0,0.9,0.1,1.7,0.2,2.5
			c0,0.8,0.1,1.5,0.2,2.3c0.1,0.7,0.2,1.4,0.4,2.2c0.1,0.8,0.3,1.5,0.5,2.3c0.1,0.7,0.3,1.4,0.5,2c0.1,0.8,0.3,1.5,0.5,2.2
			c0.2,0.7,0.5,1.4,0.9,2c0.2,0.7,0.5,1.4,0.7,2c0.4,0.7,0.7,1.3,1.1,1.9c0.2,0.7,0.5,1.3,0.9,1.9c0.4,0.6,0.8,1.2,1.3,1.7
			c0.4,0.6,0.8,1.2,1.3,1.7c0.4,0.6,0.8,1.1,1.3,1.6c0.5,0.6,1,1.1,1.4,1.6c0.5,0.5,1,1,1.4,1.4c0.6,0.5,1.1,0.9,1.6,1.3
			c0.6,0.5,1.1,0.9,1.6,1.3c0.6,0.4,1.2,0.8,1.8,1.2c0.6,0.4,1.2,0.7,1.8,1c0.7,0.3,1.4,0.6,2,1c0.7,0.3,1.4,0.5,2,0.7
			c0.7,0.3,1.4,0.5,2.2,0.7c0.7,0.3,1.4,0.5,2.2,0.6c0.7,0.2,1.4,0.4,2.2,0.6c0.8,0.1,1.6,0.2,2.4,0.3c0.8,0.1,1.7,0.2,2.5,0.3
			c0.7,0,1.5,0,2.4,0c0.8,0,1.6,0,2.4,0c0.8,0,1.6,0,2.4-0.1c0.7-0.1,1.5-0.2,2.2-0.4c0.7-0.1,1.4-0.2,2.2-0.4
			c0.7-0.2,1.4-0.4,2.2-0.6c0.6-0.2,1.3-0.4,2-0.7c0.6-0.3,1.2-0.6,1.8-0.9c0.6-0.3,1.2-0.6,1.8-0.9c0.6-0.4,1.1-0.8,1.6-1.2
			c0.6-0.4,1.1-0.8,1.6-1.2c0.6-0.4,1.1-0.8,1.6-1.3c0.5-0.5,1-0.9,1.4-1.3c0.5-0.5,0.9-1,1.3-1.6c0.5-0.5,0.9-1,1.3-1.6
			c0.4-0.5,0.8-1,1.3-1.6c0.4-0.6,0.7-1.2,0.9-1.7c0.4-0.6,0.7-1.2,1.1-1.7c0.2-0.7,0.5-1.3,0.7-1.9c0.4-0.7,0.7-1.4,0.9-2
			c0.2-0.7,0.4-1.4,0.5-2c0.2-0.7,0.4-1.4,0.5-2c0.2-0.7,0.4-1.4,0.5-2.2c0.1-0.7,0.2-1.4,0.4-2.2c0.1-0.8,0.2-1.5,0.2-2.2
			c0.1-0.8,0.2-1.5,0.2-2.3s0-1.5,0-2.3c0-0.8,0-1.5,0-2.3c0-0.8-0.1-1.5-0.2-2.3C722.5,451.3,722.4,450.6,722.3,449.8z"/>
	</g>
	<g>
		<path d="M643.3,217.2v0.3c0.9,58.1-68.9,325.3-82.9,338.8c0,0.2-0.1,0.3-0.3,0.3c-0.4,0.4-0.8,0.6-1.2,0.6
			c-0.6,0.4-1.2,0.6-1.9,0.6c-1,0.2-2,0.4-2.8,0.6c-1.2,0.2-2.5,0.3-3.7,0.3c-1.2,0.2-2.5,0.3-3.7,0.3c-1.7,0.2-3.2,0.3-4.7,0.3
			c-1.7,0-3.2,0.1-4.7,0.3c-1.9,0-3.6,0-5.3,0c-1.9,0-3.6,0-5.3,0c-1.9,0-3.7,0-5.6,0c-1.9,0-3.7,0-5.6,0c-1.7-0.2-3.4-0.3-5.3-0.3
			c-1.9,0-3.6-0.1-5.3-0.3c-1.9,0-3.6-0.1-5.3-0.3c-1.7,0-3.2-0.1-4.7-0.3c-1.7,0-3.2-0.1-4.7-0.3c-1.2-0.2-2.5-0.3-3.7-0.3
			c-1.2-0.2-2.4-0.4-3.4-0.6c-1-0.2-2-0.4-2.8-0.6c-0.6,0-1.2-0.1-1.9-0.3c-0.4-0.2-0.8-0.4-1.2-0.6c-0.2-0.2-0.4-0.4-0.6-0.6
			c0-0.4-0.1-0.8-0.3-1.2c-0.2-0.6-0.4-1.2-0.6-1.8c-0.2-0.8-0.4-1.6-0.6-2.3c-0.4-0.8-0.7-1.7-0.9-2.6c-0.2-1-0.4-2-0.6-2.9
			c-0.4-1.2-0.7-2.3-0.9-3.5c-0.4-1.4-0.7-2.6-0.9-3.8c-0.4-1.4-0.7-2.7-0.9-4.1c-0.4-1.6-0.7-3-0.9-4.4c-0.4-1.6-0.7-3.1-0.9-4.7
			c-0.4-1.6-0.8-3.2-1.2-5c-0.2-1.6-0.5-3.2-0.9-5c-0.4-1.8-0.7-3.5-0.9-5.3c-0.4-1.8-0.8-3.5-1.2-5.3c-0.2-1.8-0.5-3.5-0.9-5.3
			c-0.4-2-0.7-3.8-0.9-5.6c-0.4-1.8-0.8-3.5-1.2-5.3c-0.2-2-0.5-3.8-0.9-5.6c-0.4-1.8-0.7-3.5-0.9-5.3c-0.4-1.8-0.7-3.5-0.9-5.3
			c-0.4-1.8-0.7-3.5-0.9-5.3c-0.4-1.6-0.7-3.2-0.9-5c-0.4-1.6-0.7-3.1-0.9-4.7c-0.2-1.6-0.5-3-0.9-4.4c-0.2-1.6-0.4-3-0.6-4.4
			c-0.2-1.4-0.5-2.6-0.9-3.8c-0.2-1.4-0.4-2.6-0.6-3.8c-0.2-1-0.3-2.1-0.3-3.2c-0.2-1-0.4-2-0.6-2.9c-0.2-0.8-0.3-1.6-0.3-2.3
			c-0.2-0.6-0.4-1.2-0.6-1.8c0-0.6,0-1.1,0-1.5c-0.2-0.4-0.3-0.7-0.3-0.9v-0.3v0.3c0,0.2-0.1,0.5-0.3,0.9c0,0.4-0.1,0.8-0.3,1.2
			c0,0.6-0.1,1.3-0.3,2.1c0,0.8-0.1,1.5-0.3,2c-0.2,1-0.4,2-0.6,2.9c-0.2,1-0.4,2-0.6,2.9c-0.2,1.2-0.4,2.3-0.6,3.5
			c-0.2,1.4-0.4,2.6-0.6,3.8c-0.2,1.4-0.5,2.7-0.9,4.1c-0.2,1.6-0.4,3-0.6,4.4c-0.4,1.6-0.7,3.1-0.9,4.7c-0.4,1.6-0.7,3.1-0.9,4.7
			c-0.4,1.8-0.8,3.4-1.2,5c-0.2,1.8-0.5,3.5-0.9,5.3c-0.4,1.8-0.7,3.5-0.9,5.3c-0.4,1.8-0.8,3.5-1.2,5.3c-0.4,1.8-0.7,3.5-0.9,5.3
			c-0.4,1.8-0.8,3.5-1.2,5.3c-0.4,1.8-0.8,3.5-1.2,5.3c-0.4,1.8-0.7,3.5-0.9,5.3c-0.4,1.8-0.8,3.5-1.2,5.3c-0.4,1.8-0.8,3.4-1.2,5
			c-0.4,1.8-0.7,3.4-0.9,5c-0.4,1.6-0.8,3.1-1.2,4.7c-0.4,1.6-0.8,3.1-1.2,4.7c-0.2,1.4-0.5,2.8-0.9,4.4c-0.4,1.4-0.7,2.6-0.9,3.8
			c-0.4,1.4-0.8,2.6-1.2,3.8c-0.2,1.2-0.5,2.3-0.9,3.5c-0.2,1-0.5,2-0.9,2.9c-0.2,0.8-0.5,1.7-0.9,2.6c-0.2,0.8-0.4,1.5-0.6,2.1
			c-0.4,0.6-0.7,1.2-0.9,1.8c-0.2,0.4-0.4,0.8-0.6,1.2c-0.2,0.4-0.4,0.6-0.6,0.6c-0.2,0.2-0.4,0.3-0.6,0.3c-0.4,0-0.8,0-1.2,0
			c-0.8,0-1.7,0-2.5,0c-1,0.2-2.1,0.3-3.1,0.3c-1.2,0-2.4,0.1-3.4,0.3c-1.4,0-2.9,0-4.4,0c-1.7,0.2-3.2,0.3-4.7,0.3
			c-1.9,0.2-3.6,0.3-5.3,0.3c-1.7,0-3.4,0.1-5.3,0.3c-1.9,0-3.7,0-5.6,0c-1.9,0.2-3.7,0.3-5.6,0.3c-1.9,0-3.7,0-5.6,0
			c-1.9,0.2-3.7,0.3-5.6,0.3c-1.7,0-3.4,0-5.3,0c-1.7,0-3.3,0-5,0c-1.7,0-3.2-0.1-4.7-0.3c-1.4,0-2.8,0-4,0
			c-1.2-0.2-2.5-0.3-3.7-0.3c-1-0.2-2-0.4-2.8-0.6c-0.8,0-1.6-0.1-2.2-0.3c-0.4-0.2-0.8-0.5-1.2-0.9h-0.3c0-0.2-0.1-0.4-0.3-0.6
			c-23-5.8-85.9-291.1-83.5-339.3v-0.3c0.2-0.2,0.5-0.3,0.9-0.3c0.4-0.2,0.8-0.4,1.2-0.6c0.8-0.2,1.6-0.3,2.2-0.3
			c0.8-0.2,1.8-0.4,2.8-0.6c1,0,2.1-0.1,3.1-0.3c1.2,0,2.5-0.1,3.7-0.3c1.5,0,2.8-0.1,4-0.3c1.7,0,3.2-0.1,4.7-0.3c1.7,0,3.3,0,5,0
			c1.7-0.2,3.3-0.3,5-0.3c1.9,0,3.6,0,5.3,0c1.9-0.2,3.7-0.3,5.6-0.3c1.9,0,3.7,0,5.6,0c1.9,0,3.7,0,5.6,0c1.9,0,3.7,0,5.6,0
			c2.1,0,4,0,5.9,0c1.9,0,3.7,0.1,5.6,0.3c1.7,0,3.4,0,5.3,0c1.7,0,3.4,0.1,5.3,0.3c1.7,0,3.3,0,5,0c1.5,0.2,3,0.3,4.7,0.3
			c1.2,0.2,2.6,0.3,4,0.3c1.5,0.2,2.8,0.3,4.1,0.3c1,0.2,2.2,0.3,3.4,0.3c1,0.2,2,0.4,2.8,0.6c0.8,0,1.7,0.1,2.5,0.3
			c0.6,0.2,1.1,0.4,1.6,0.6c0.4,0,0.8,0.1,1.2,0.3c0.2,0.2,0.3,0.5,0.3,0.9c0.2,0.2,0.4,0.5,0.6,0.9c0.2,0.6,0.4,1.1,0.6,1.5
			c0.2,0.8,0.4,1.5,0.6,2c0.2,0.8,0.4,1.6,0.6,2.3c0.4,0.8,0.7,1.7,0.9,2.6c0.2,1,0.4,2,0.6,2.9c0.4,1.2,0.7,2.3,0.9,3.5
			c0.4,1.2,0.7,2.3,0.9,3.5c0.2,1.4,0.5,2.7,0.9,4.1c0.2,1.4,0.5,2.7,0.9,4.1c0.2,1.6,0.5,3,0.9,4.4c0.4,1.6,0.7,3.1,0.9,4.7
			c0.4,1.6,0.7,3.1,0.9,4.7c0.4,1.8,0.8,3.4,1.2,5c0.2,1.8,0.5,3.5,0.9,5.3c0.4,1.8,0.7,3.5,0.9,5.3c0.4,1.8,0.8,3.5,1.2,5.3
			c0.2,1.8,0.5,3.5,0.9,5.3c0.4,1.8,0.7,3.6,0.9,5.6c0.4,1.8,0.8,3.5,1.2,5.3c0.2,1.8,0.5,3.6,0.9,5.6c0.4,1.8,0.7,3.5,0.9,5.3
			c0.4,1.8,0.7,3.5,0.9,5.3c0.4,1.8,0.7,3.5,0.9,5.3c0.4,1.8,0.7,3.5,0.9,5.3c0.4,1.6,0.7,3.2,0.9,5c0.4,1.6,0.7,3.1,0.9,4.7
			c0.4,1.6,0.7,3.1,0.9,4.7c0.2,1.6,0.4,3.1,0.6,4.7c0.4,1.4,0.7,2.7,0.9,4.1c0.2,1.4,0.4,2.7,0.6,4.1c0.2,1.2,0.4,2.4,0.6,3.8
			c0.2,1.2,0.4,2.3,0.6,3.5c0.2,1,0.4,2,0.6,2.9c0.2,1,0.4,2,0.6,2.9c0,0.8,0.1,1.6,0.3,2.3c0,0.8,0.1,1.5,0.3,2.1
			c0.2,0.6,0.3,1.2,0.3,1.8c0,0.4,0.1,0.8,0.3,1.2c0,0.2,0,0.4,0,0.6v0.3v-0.3c0.2-0.2,0.3-0.4,0.3-0.6c0.2-0.4,0.3-0.8,0.3-1.2
			c0.2-0.6,0.4-1.2,0.6-1.8c0.2-0.8,0.4-1.5,0.6-2.1c0.4-0.8,0.7-1.6,0.9-2.3c0.2-1,0.5-2,0.9-2.9c0.4-1,0.7-2,0.9-3.2
			c0.4-1.2,0.8-2.3,1.2-3.5c0.4-1.2,0.8-2.3,1.2-3.5c0.4-1.4,0.8-2.7,1.2-4.1c0.6-1.4,1.1-2.8,1.6-4.4c0.4-1.4,0.9-2.8,1.6-4.4
			c0.4-1.6,0.9-3.1,1.6-4.7c0.4-1.6,0.9-3.1,1.6-4.7c0.6-1.6,1.1-3.2,1.6-5c0.6-1.6,1.2-3.2,1.9-5c0.6-1.8,1.2-3.4,1.9-5
			c0.6-1.8,1.1-3.5,1.6-5.3c0.6-1.8,1.2-3.5,1.9-5.3c0.6-1.8,1.2-3.4,1.9-5c0.6-1.8,1.2-3.5,1.9-5.3c0.6-1.8,1.2-3.5,1.9-5.3
			c0.6-1.6,1.2-3.2,1.9-5c0.6-1.6,1.2-3.2,1.9-5c0.6-1.6,1.2-3.1,1.9-4.7c0.4-1.6,0.9-3.1,1.6-4.7c0.6-1.6,1.2-3.1,1.9-4.7
			c0.6-1.4,1.1-2.7,1.6-4.1c8.4-13.2,24.4-9.5,29,0.6c0.1,1.5,1.2,2.8,1.9,4.4c0.6,1.4,1.1,2.8,1.6,4.4c0.6,1.4,1.2,2.8,1.9,4.4
			c0.6,1.6,1.2,3.1,1.9,4.7c0.8,1.8,1.6,3.4,2.2,5c0.6,1.6,1.2,3.2,1.9,5c0.6,1.6,1.2,3.2,1.9,5c0.6,1.6,1.2,3.2,1.9,5
			c0.6,1.6,1.2,3.2,1.9,5c0.6,1.8,1.2,3.4,1.9,5c0.6,1.8,1.2,3.4,1.9,5c0.6,1.8,1.2,3.4,1.9,5c0.6,1.6,1.2,3.2,1.9,5
			c0.6,1.6,1.2,3.1,1.9,4.7c0.4,1.6,0.9,3.1,1.6,4.7c0.6,1.4,1.1,2.8,1.6,4.4c0.6,1.4,1.1,2.7,1.6,4.1c0.6,1.4,1.1,2.7,1.6,4.1
			c0.4,1.4,0.8,2.7,1.2,4.1c0.6,1.2,1.1,2.3,1.6,3.5c0.4,1,0.7,2.1,0.9,3.2c0.4,1,0.8,2,1.2,3.2c0.2,0.8,0.5,1.7,0.9,2.6
			c0.2,0.8,0.5,1.6,0.9,2.3c0.2,0.6,0.4,1.3,0.6,2c0.2,0.4,0.4,0.9,0.6,1.5c0,0.4,0.1,0.8,0.3,1.2c0.2,0.2,0.3,0.4,0.3,0.6v0.3v-0.3
			c0-0.2,0-0.4,0-0.6c0.2-0.4,0.3-0.8,0.3-1.2c0-0.6,0.1-1.2,0.3-1.8c0-0.8,0-1.5,0-2.1c0.2-1,0.3-1.9,0.3-2.6c0.2-1,0.4-2,0.6-2.9
			c0-1,0.1-2.1,0.3-3.2c0.2-1.2,0.3-2.3,0.3-3.5c0.2-1.2,0.4-2.5,0.6-3.8c0.2-1.4,0.4-2.7,0.6-4.1c0-1.4,0.1-2.8,0.3-4.4
			c0.2-1.4,0.4-2.8,0.6-4.4c0.2-1.6,0.4-3.2,0.6-5c0.2-1.6,0.4-3.1,0.6-4.7c0.4-1.8,0.7-3.5,0.9-5.3c0.2-1.8,0.4-3.5,0.6-5.3
			c0.2-1.8,0.4-3.5,0.6-5.3c0.4-1.8,0.7-3.5,0.9-5.3c0.2-1.8,0.4-3.6,0.6-5.6c0.4-1.8,0.7-3.5,0.9-5.3c0.2-2,0.4-3.8,0.6-5.6
			c0.4-1.8,0.7-3.5,0.9-5.3c0.2-1.8,0.5-3.6,0.9-5.6c0.2-1.8,0.4-3.5,0.6-5.3c0.4-1.6,0.7-3.2,0.9-5c0.2-1.8,0.5-3.5,0.9-5.3
			c0.2-1.6,0.4-3.1,0.6-4.7c0.4-1.6,0.7-3.1,0.9-4.7c0.2-1.6,0.4-3.1,0.6-4.7c0.4-1.4,0.7-2.7,0.9-4.1c0.2-1.4,0.5-2.7,0.9-4.1
			c0.2-1.2,0.4-2.5,0.6-3.8c0.2-1.2,0.5-2.3,0.9-3.5c0.2-1,0.4-2,0.6-2.9c0.2-1,0.4-2,0.6-2.9c0.2-0.8,0.5-1.6,0.9-2.3
			c0.2-0.6,0.4-1.2,0.6-1.8c0.2-0.6,0.4-1.2,0.6-1.8c0.2-0.4,0.4-0.7,0.6-0.9c0-0.4,0.2-0.7,0.6-0.9c0.2-0.2,0.5-0.3,0.9-0.3
			c0.6-0.2,1.2-0.4,1.9-0.6c0.8-0.2,1.7-0.3,2.5-0.3c0.8-0.2,1.8-0.4,2.8-0.6c1.2-0.2,2.4-0.3,3.4-0.3c1.2-0.2,2.6-0.3,4-0.3
			c1.2-0.2,2.6-0.3,4.1-0.3c1.7-0.2,3.2-0.3,4.7-0.3c1.7-0.2,3.3-0.3,5-0.3c1.7-0.2,3.3-0.3,5-0.3c1.9,0,3.6,0,5.3,0
			c1.9-0.2,3.7-0.3,5.6-0.3c1.9,0,3.7,0,5.6,0s3.7,0,5.6,0s3.7,0,5.6,0c1.7,0,3.4,0,5.3,0c1.9,0,3.7,0,5.6,0c1.7,0,3.3,0.1,5,0.3
			c1.9,0,3.6,0,5.3,0c1.5,0,3,0.1,4.7,0.3c1.5,0,2.9,0.1,4.4,0.3c1.5,0,2.8,0.1,4,0.3c1.2,0,2.5,0.1,3.7,0.3c1,0.2,2.1,0.3,3.1,0.3
			c1,0.2,2,0.4,2.8,0.6c0.8,0.2,1.6,0.4,2.2,0.6c0.6,0,1.1,0.1,1.6,0.3C642.6,216.8,642.9,217,643.3,217.2z"/>
		<path fill="#FFFFFF" d="M619.2,241.9c12,17.9-54.6,286.7-71.3,285.1c-9.5,7-56.2,13.5-60.5,0c-0.2-1.1-35.3-140.3-35.3-140.3
			s-37.5,139-37.7,139.4c-6.4,13.8-55.8,12.4-67.8,0.5c-14.4-2.8-81.2-271.6-63-285.3c18.3-13.6,60.3-8.3,65.3,0
			c0.2,0.2,41.1,178.9,41.1,178.9s49.2-128.8,49.5-129.3c6.4-14.1,18.1-14.1,24.3,0c0.4,0.7,46.1,131.6,46.1,131.6
			s29.1-173.1,38.2-182C557.4,231.5,607.2,224,619.2,241.9z"/>
	</g>
</g>
</svg>
