<?xml version="1.0" encoding="utf-8"?>
<!-- Generator: Adobe Illustrator 18.0.0, SVG Export Plug-In . SVG Version: 6.00 Build 0)  -->
<!DOCTYPE svg PUBLIC "-//W3C//DTD SVG 1.1//EN" "http://www.w3.org/Graphics/SVG/1.1/DTD/svg11.dtd">
<svg version="1.1" id="Camada_1" xmlns="http://www.w3.org/2000/svg" xmlns:xlink="http://www.w3.org/1999/xlink" x="0px" y="0px"
	 viewBox="0 0 1024 768" enable-background="new 0 0 1024 768" xml:space="preserve">
<g>
	<defs>
		<circle id="SVGID_1_" cx="511.9" cy="383.4" r="375.7"/>
	</defs>
	<clipPath id="SVGID_2_">
		<use xlink:href="#SVGID_1_"  overflow="visible"/>
	</clipPath>
	<g clip-path="url(#SVGID_2_)" enable-background="new    ">
		
			<image overflow="visible" width="2474" height="2474" xlink:href="../../banco de imagens/botões/butt 25.png"  transform="matrix(0.3065 0 0 0.3065 132.8006 4.7999)">
		</image>
	</g>
</g>
<g>
	<g>
		<g>
			<g>
				<path d="M773.5,342.4c0.2,0.2,0.4,0.4,0.6,0.6c0.2,0.2,0.3,0.5,0.3,0.9c0.2,0.4,0.4,0.8,0.6,1.2c0,0.4,0.1,0.9,0.3,1.4
					c0.2,0.6,0.3,1.2,0.3,1.7c0,0.8,0.1,1.6,0.3,2.3c0,0.8,0,1.6,0,2.3c0.2,0.8,0.3,1.6,0.3,2.6c0,1,0,1.9,0,2.9
					c0.2,1.2,0.3,2.2,0.3,3.2c0,1.2,0,2.3,0,3.5s0,2.3,0,3.5c0,1.4,0,2.7,0,4.1c0,1.2,0,2.4,0,3.8c0,1.6,0,3,0,4.4
					c0,1.4-0.1,2.8-0.3,4.4c0,1.6,0,3,0,4.4c0,1.6,0,3.1,0,4.7c0,1.6,0,3.2,0,4.9c-0.2,1.6-0.3,3.1-0.3,4.7c0,1.7,0,3.4,0,4.9
					c0,1.7,0,3.5,0,5.2c0,1.6,0,3.2,0,5c-0.2,1.7-0.3,3.5-0.3,5.2c0,1.7,0,3.4,0,4.9c0,1.7,0,3.5,0,5.2c0,1.7,0,3.5,0,5.2
					c0,1.7,0,3.5,0,5.2c0,1.7,0,3.5,0,5.2c0.2,1.7,0.3,3.5,0.3,5.2s0,3.5,0,5.2c0.2,1.7,0.3,3.5,0.3,5.2c0,1.7,0.1,3.5,0.3,5.2
					c0,1.6,0.1,3.2,0.3,4.9c0,1.7,0.1,3.5,0.3,5.2c0.2,1.7,0.3,3.4,0.3,4.9c0.2,1.7,0.4,3.4,0.6,4.9c0,1.6,0.1,3.2,0.3,4.9
					c0.2,1.6,0.3,3.1,0.3,4.7c0.2,1.6,0.4,3.1,0.6,4.6c0,1.6,0.1,3,0.3,4.4c0.2,1.6,0.3,3,0.3,4.4c0.2,1.4,0.3,2.7,0.3,4.1
					c0.2,1.4,0.4,2.7,0.6,4.1c0,1.2,0.1,2.4,0.3,3.8c0,1.2,0.1,2.3,0.3,3.5c0,1.2,0,2.2,0,3.2c0.2,1.2,0.3,2.2,0.3,3.2
					c0,1,0.1,1.9,0.3,2.9c0,0.8,0,1.6,0,2.6c0,0.8,0,1.6,0,2.3c0,0.6,0,1.3,0,2c0,0.4-0.1,0.9-0.3,1.4c0,0.6,0,1.1,0,1.5
					c-0.2,0.4-0.3,0.8-0.3,1.2c-0.2,0.2-0.4,0.4-0.6,0.6c0,0.2-0.2,0.3-0.6,0.3c-0.4,0.2-0.8,0.3-1.1,0.3c-0.8,0.2-1.4,0.3-2,0.3
					c-0.9,0-1.9,0.1-2.8,0.3c-1.1,0-2.2,0-3.1,0c-1.3,0.2-2.7,0.3-4,0.3s-2.8,0-4.3,0c-1.5,0.2-3,0.3-4.6,0.3c-1.5,0-3,0-4.6,0
					c-1.7,0-3.4,0-5.1,0c-1.7,0-3.4,0-5.1,0s-3.4,0-5.1,0c-1.5,0-3.1,0-4.8,0s-3.3-0.1-4.8-0.3c-1.5,0-3,0-4.6,0
					c-1.5,0-2.9-0.1-4.3-0.3c-1.3,0-2.7,0-4,0c-1.1-0.2-10.4,0.5-16.3-0.9c-5.8-1.4-7.2-5.4-7.4-7.7c-0.2-0.8-11.2,8.4-23,9.8
					c0,0-2.2,0.4-3.1,0.6c-1.1,0.2-2.3,0.4-3.4,0.6c-0.9,0-2,0.1-3.1,0.3c-1.1,0-2.3,0-3.4,0c-1.2,0-2.3,0-3.4,0
					c-1.1,0-2.3-0.1-3.4-0.3c-1.1,0-2.3-0.1-3.4-0.3c-1.1-0.2-2.3-0.4-3.4-0.6c-1.3-0.2-2.6-0.4-3.7-0.6c-1.1-0.4-2.3-0.7-3.4-0.9
					c-1.1-0.4-2.3-0.8-3.4-1.2c-1.1-0.4-2.3-0.8-3.4-1.2c-1.2-0.6-2.3-1-3.4-1.4c-1.1-0.6-2.2-1.2-3.1-1.7c-1.2-0.6-2.3-1.2-3.4-1.7
					c-1.1-0.6-2.2-1.2-3.1-2c-1.1-0.8-2.2-1.6-3.1-2.3c-1.1-0.8-2.2-1.6-3.1-2.3c-0.9-1-2-1.8-3.1-2.6c-1-1-1.9-1.9-2.8-2.9
					c-1-1-1.9-2-2.8-3.2c-0.8-1-1.6-2.1-2.6-3.2c-0.9-1.2-1.8-2.3-2.5-3.5c-0.8-1.4-1.5-2.7-2.3-4.1c-0.9-1.2-1.7-2.4-2.3-3.8
					c-0.8-1.4-1.4-2.7-2-4.1c-0.8-1.4-1.4-2.7-2-4.1c-0.6-1.4-1.2-2.7-1.7-4.1c-0.6-1.4-1.1-2.7-1.7-4.1c-0.4-1.6-0.9-3-1.4-4.4
					c-0.4-1.4-0.8-2.8-1.2-4.4c-0.6-1.4-1-2.7-1.4-4.1c-0.4-1.6-0.7-3-0.9-4.4c-0.4-1.6-0.7-3.1-1.1-4.7c-0.2-1.3-0.5-2.8-0.9-4.4
					c-0.2-1.4-0.4-2.8-0.6-4.4c-0.2-1.5-0.4-3-0.6-4.4c-0.2-1.6-0.4-3.1-0.6-4.7c-0.2-1.4-0.4-2.8-0.6-4.4c0-1.6-0.1-3-0.3-4.4
					c0-1.6-0.1-3-0.3-4.4c0-1.6,0-3.1,0-4.7c0-1.4,0-2.8,0-4.4c-0.2-1.3-0.2-2.8,0-4.4c0-1.4,0-2.8,0-4.4c0-1.4,0-2.8,0-4.4
					c0.2-1.4,0.3-2.7,0.3-4.1c0.2-1.4,0.3-2.8,0.3-4.4c0.2-1.4,0.4-2.7,0.6-4.1c0-1.4,0.1-2.7,0.3-4.1c0.2-1.4,0.4-2.7,0.6-4.1
					c0.2-1.2,0.4-2.4,0.6-3.8c0.2-1.4,0.4-2.6,0.6-3.8c0.2-1.4,0.4-2.6,0.6-3.8c0.2-1.4,0.4-2.6,0.6-3.8c0.2-1.2,0.4-2.3,0.6-3.5
					c0.4-1.2,0.7-2.3,0.9-3.5s0.4-2.3,0.6-3.5c0.4-1,0.7-2.1,0.9-3.2c0.2-1,0.5-1.9,0.9-2.9c0.2-1,0.5-2,0.9-3.2
					c0.2-0.8,0.4-1.6,0.6-2.6c0.4-1,0.7-1.9,0.9-2.9c0.4-0.8,0.7-1.6,0.9-2.3c0.2-0.8,0.5-1.6,0.8-2.6c0.2-0.6,0.5-1.2,0.9-2
					c0.2-0.8,0.5-1.4,0.9-2c0.2-0.8,0.4-1.4,0.6-2c0.4-0.6,0.7-1.2,0.9-1.7c0.2-0.4,0.5-0.9,0.9-1.4c0.2-0.4,0.4-0.9,0.6-1.5
					c0.2-0.4,0.5-0.8,0.9-1.2c0.2-0.2,0.4-0.5,0.6-0.9c0.2-0.2,0.4-0.4,0.6-0.6c0.2-0.2,0.4-0.4,0.6-0.6c0.2-0.2,0.4-0.3,0.6-0.3
					c0.8-0.2,1.5-0.4,2.3-0.6c0.9-0.2,1.9-0.4,2.8-0.6c1.3-0.2,2.6-0.4,3.7-0.6c1.3,0,2.7-0.1,4-0.3c1.5,0,3-0.1,4.6-0.3
					c1.5,0,3-0.1,4.5-0.3c1.7,0,3.3,0,4.9,0c1.5,0,3.1,0,4.8,0c1.5,0,3,0,4.5,0c1.3,0,2.8,0.1,4.3,0.3c1.3,0,2.7,0,4,0
					c1.1,0.2,2.2,0.3,3.1,0.3c1,0.2,1.9,0.4,2.8,0.6c0.8,0,19.2,0.5,23,7.7c3.8,7.2-6.4,96.1,11.1,96.1s11.2-88.9,14.7-94.7
					c3.4-5.8,19.2-6.5,19.2-6.7c0.4-0.2,0.7-0.4,0.9-0.6c0.7-0.2,1.4-0.3,2-0.3c0.7-0.2,1.6-0.4,2.5-0.6c1.2-0.2,2.3-0.4,3.4-0.6
					c1.3,0,2.7-0.1,4-0.3s2.8-0.3,4.3-0.3c1.5-0.2,3.1-0.3,4.8-0.3c1.5-0.2,3.1-0.3,4.8-0.3s3.4-0.1,5.1-0.3c1.7,0,3.4,0,5.1,0
					c1.5,0,3.1,0,4.8,0c1.5,0,3,0,4.5,0c1.5,0.2,3,0.3,4.6,0.3c1.1,0,2.4,0.1,3.7,0.3c1.1,0.2,2.3,0.3,3.4,0.3
					c0.7,0.2,1.6,0.4,2.5,0.6C772.3,342,772.9,342.2,773.5,342.4z"/>
			</g>
		</g>
		<path fill="#FFFFFF" d="M755.2,371.6c0.2,0.1,0.3,0.3,0.5,0.4c0.2,0.2,0.2,0.4,0.2,0.6c0.2,0.3,0.3,0.6,0.5,0.8
			c0,0.3,0.1,0.6,0.2,1.1c0.2,0.4,0.2,0.8,0.2,1.3c0,0.6,0.1,1.1,0.2,1.7c0,0.6,0,1.1,0,1.7c0.2,0.6,0.2,1.2,0.2,1.9s0,1.4,0,2.1
			c0.2,0.8,0.2,1.6,0.2,2.3c0,0.8,0,1.7,0,2.5s0,1.7,0,2.6c0,1,0,2,0,3c0,0.8,0,1.8,0,2.8c0,1.1,0,2.2,0,3.2c0,1-0.1,2.1-0.2,3.2
			c0,1.1,0,2.2,0,3.2c0,1.1,0,2.3,0,3.4c0,1.1,0,2.3,0,3.6c-0.2,1.1-0.2,2.3-0.2,3.4c0,1.3,0,2.5,0,3.6c0,1.3,0,2.6,0,3.8
			c0,1.1,0,2.3,0,3.6c-0.2,1.3-0.2,2.5-0.2,3.8c0,1.3,0,2.5,0,3.6c0,1.3,0,2.5,0,3.8s0,2.5,0,3.8s0,2.5,0,3.8c0,1.3,0,2.6,0,3.8
			c0.2,1.3,0.2,2.6,0.2,3.8c0,1.3,0,2.5,0,3.8c0.2,1.3,0.2,2.5,0.2,3.8c0,1.3,0.1,2.5,0.2,3.8c0,1.1,0.1,2.3,0.2,3.6
			c0,1.3,0.1,2.5,0.2,3.8c0.2,1.3,0.2,2.5,0.2,3.6c0.2,1.3,0.3,2.5,0.5,3.6c0,1.1,0.1,2.3,0.2,3.6c0.2,1.1,0.2,2.3,0.2,3.4
			c0.2,1.1,0.3,2.3,0.5,3.4c0,1.1,0.1,2.2,0.2,3.2c0.2,1.1,0.2,2.2,0.2,3.2c0.2,1,0.2,2,0.2,3c0.2,1,0.3,2,0.5,3
			c0,0.8,0.1,1.8,0.2,2.8c0,0.8,0.1,1.7,0.2,2.5c0,0.8,0,1.6,0,2.3c0.2,0.8,0.2,1.6,0.2,2.3s0.1,1.4,0.2,2.1c0,0.6,0,1.2,0,1.9
			c0,0.6,0,1.1,0,1.7c0,0.4,0,0.9,0,1.5c0,0.3-0.1,0.6-0.2,1.1c0,0.4,0,0.8,0,1.1c-0.2,0.3-0.2,0.6-0.2,0.8
			c-0.2,0.1-0.3,0.3-0.5,0.4c0,0.1-0.2,0.2-0.5,0.2c-0.3,0.1-0.6,0.2-1,0.2c-0.6,0.2-1.2,0.2-1.6,0.2c-0.8,0-1.6,0.1-2.3,0.2
			c-0.9,0-1.8,0-2.6,0c-1.1,0.1-2.2,0.2-3.3,0.2c-1.1,0-2.3,0-3.5,0c-1.3,0.1-2.5,0.2-3.8,0.2c-1.2,0-2.5,0-3.7,0
			c-1.4,0-2.8,0-4.2,0c-1.4,0-2.8,0-4.2,0c-1.4,0-2.8,0-4.2,0c-1.2,0-2.6,0-4,0c-1.4,0-2.7-0.1-4-0.2c-1.2,0-2.5,0-3.7,0
			c-1.3,0-2.4-0.1-3.5-0.2c-1.1,0-2.2,0-3.3,0c-0.9-0.1-1.9-0.2-2.8-0.2c-0.8-0.2-1.6-0.2-2.3-0.2c-0.6-0.1-1.3-0.3-1.9-0.4
			c-0.3,0-0.7-0.1-1.2-0.2c-0.6-0.3-1.3-0.6-2.1-0.8c-0.5-0.1-0.9-0.4-1.2-0.8c-0.3-0.4-0.5-0.9-0.7-1.5c-0.3-1.1,0.2-6.8,0-8.5
			c-0.2-0.6-0.6-0.1-1.4,1.5c-0.3,0.4-0.8,0.9-1.4,1.5c-0.5,0.4-1,0.8-1.6,1.3c-0.5,0.4-1,0.8-1.6,1.3c-0.6,0.4-1.3,0.8-1.9,1.3
			c-0.6,0.4-1.3,0.8-1.9,1.3c-0.8,0.3-1.5,0.6-2.1,1.1c-0.6,0.3-1.3,0.6-2.1,0.8c-0.8,0.4-1.6,0.8-2.3,1.1c-0.8,0.3-1.6,0.5-2.3,0.6
			c-0.8,0.3-1.6,0.6-2.3,0.9c-1,0.1-1.8,0.3-2.6,0.6c-0.8,0.2-1.6,0.3-2.6,0.4c-0.9,0.1-1.8,0.3-2.6,0.4c-0.9,0.1-1.9,0.3-2.8,0.4
			c-0.8,0-1.6,0.1-2.6,0.2c-0.9,0-1.9,0-2.8,0s-1.9,0-2.8,0c-1,0-1.9-0.1-2.8-0.2c-0.9,0-1.9-0.1-2.8-0.2c-1-0.1-1.9-0.3-2.8-0.4
			c-1.1-0.1-2.1-0.3-3-0.4c-0.9-0.3-1.9-0.5-2.8-0.6c-0.9-0.3-1.9-0.6-2.8-0.8c-0.9-0.3-1.9-0.6-2.8-0.8c-0.9-0.4-1.9-0.8-2.8-1.1
			c-1-0.4-1.8-0.8-2.6-1.3c-0.9-0.4-1.9-0.8-2.8-1.3c-0.9-0.4-1.8-0.9-2.6-1.5c-0.9-0.6-1.8-1.1-2.6-1.7c-1-0.6-1.8-1.1-2.6-1.7
			c-0.8-0.7-1.6-1.4-2.6-1.9c-0.8-0.7-1.6-1.4-2.3-2.1s-1.6-1.5-2.3-2.4c-0.6-0.7-1.3-1.5-2.1-2.3c-0.8-0.8-1.5-1.7-2.1-2.5
			c-0.6-1-1.2-2-1.9-3c-0.8-0.8-1.4-1.8-1.9-2.8c-0.6-1-1.2-2-1.6-3c-0.6-1-1.2-2-1.6-3c-0.5-1-0.9-2-1.4-3c-0.5-1-0.9-2-1.4-3
			c-0.3-1.1-0.7-2.2-1.2-3.2c-0.3-1-0.6-2.1-0.9-3.2c-0.5-1-0.9-2-1.2-3c-0.3-1.1-0.5-2.2-0.7-3.2c-0.3-1.1-0.6-2.3-0.9-3.4
			c-0.2-1-0.4-2-0.7-3.2c-0.2-1-0.3-2.1-0.5-3.2c-0.2-1.1-0.3-2.2-0.5-3.2c-0.2-1.1-0.3-2.3-0.5-3.4c-0.2-1-0.3-2.1-0.5-3.2
			c0-1.1-0.1-2.2-0.2-3.2c0-1.1-0.1-2.2-0.2-3.2c0-1.1,0-2.3,0-3.4c0-1,0-2.1,0-3.2c-0.2-1-0.2-2.1,0-3.2c0-1,0-2,0-3.2
			c0-1,0-2,0-3.2c0.2-1,0.2-2,0.2-3c0.2-1,0.2-2.1,0.2-3.2c0.2-1,0.3-2,0.5-3c0-1,0.1-2,0.2-3c0.2-1,0.3-2,0.5-3
			c0.2-0.8,0.3-1.8,0.5-2.8c0.2-1,0.3-1.9,0.5-2.8c0.2-1,0.3-1.9,0.5-2.8c0.2-1,0.3-1.9,0.5-2.8c0.2-0.8,0.3-1.7,0.5-2.5
			c0.3-0.8,0.6-1.7,0.7-2.5c0.2-0.9,0.3-1.7,0.5-2.6c0.3-0.7,0.6-1.5,0.7-2.3c0.2-0.7,0.4-1.4,0.7-2.1c0.2-0.7,0.4-1.5,0.7-2.3
			c0.2-0.6,0.3-1.2,0.5-1.9c0.3-0.7,0.6-1.4,0.7-2.1c0.3-0.6,0.6-1.1,0.7-1.7c0.2-0.6,0.4-1.2,0.7-1.9c0.2-0.4,0.4-0.9,0.7-1.5
			c0.2-0.6,0.4-1.1,0.7-1.5c0.2-0.6,0.3-1.1,0.5-1.5c0.3-0.4,0.6-0.8,0.7-1.3c0.2-0.3,0.4-0.6,0.7-1.1c0.2-0.3,0.3-0.6,0.5-1.1
			c0.2-0.3,0.4-0.6,0.7-0.8c0.2-0.1,0.3-0.4,0.5-0.6c0.2-0.1,0.3-0.3,0.5-0.4c0.2-0.1,0.3-0.3,0.5-0.4c0.2-0.1,0.3-0.2,0.3-0.2
			c0.8-0.1,1.4-0.3,2-0.4c0.8-0.1,1.5-0.3,2.3-0.4c1.1-0.1,2.1-0.3,3-0.4c1.1,0,2.2-0.1,3.3-0.2c1.3,0,2.5-0.1,3.8-0.2
			c1.2,0,2.5-0.1,3.7-0.2c1.4,0,2.7,0,4,0c1.3,0,2.6,0,4,0c1.3,0,2.5,0,3.8,0c1.1,0,2.3,0.1,3.5,0.2c1.1,0,2.2,0,3.3,0
			c0.9,0.1,1.8,0.2,2.6,0.2c0.8,0.2,1.6,0.3,2.3,0.4c0.6,0,1.2,0.1,1.6,0.2c0.3,0.1,0.6,0.3,0.9,0.4c0,0.1,0,0.3,0,0.4
			c0,0.2,0,0.3,0,0.4c0,0.3,0,0.6,0,0.8c0,0.3,0,0.6,0,1.1c0,0.4-0.1,0.8-0.2,1.3c0,0.6-0.1,1.1-0.2,1.5c0,0.6-0.1,1.1-0.2,1.7
			c0,0.7-0.1,1.4-0.2,1.9c0,0.7-0.1,1.4-0.2,2.1s-0.2,1.5-0.2,2.3c-0.2,0.7-0.3,1.5-0.5,2.3c-0.2,0.9-0.2,1.7-0.2,2.6
			c-0.2,1-0.3,1.9-0.5,2.8c-0.2,1-0.2,1.9-0.2,2.8c-0.2,1-0.3,2-0.5,3c0,1-0.1,2-0.2,3c-0.2,1-0.2,2.1-0.2,3.2
			c-0.2,1-0.3,2.1-0.5,3.2c0,1-0.1,2.1-0.2,3.2c0,1,0,2.1,0,3.2c-0.2,1.1-0.2,2.3-0.2,3.4c0,1.1,0,2.2,0,3.2
			c-0.2,1.1-0.2,2.3-0.2,3.4c0,1.1,0,2.3,0,3.4c0.2,1,0.2,2.1,0.2,3.2c0,1.1,0.1,2.3,0.2,3.4c0,1,0.1,2.1,0.2,3.2
			c0,1,0.1,2.1,0.2,3.2c0.2,1,0.3,2,0.5,3c0.2,1,0.4,2,0.7,3c0.2,1,0.3,2,0.5,3c0.3,1,0.6,1.9,0.9,2.8c0.3,1,0.6,1.9,0.9,2.8
			c0.3,0.8,0.6,1.7,0.9,2.5c0.3,0.9,0.7,1.6,1.2,2.4c0.5,0.8,1,1.6,1.4,2.3c0.5,0.7,0.9,1.4,1.4,2.1s1,1.4,1.6,1.9
			c0.5,0.6,1,1.1,1.6,1.7c0.6,0.6,1.3,1.1,2.1,1.5c0.6,0.4,1.3,0.8,2.1,1.3c0.8,0.4,1.6,0.8,2.3,1.1c0.8,0.3,1.6,0.6,2.3,0.8
			c0.9,0.1,1.9,0.3,2.8,0.4c1,0.2,1.9,0.3,2.8,0.4c0.8,0,1.6-0.1,2.6-0.2c0.8,0,1.6-0.1,2.3-0.2c0.8-0.3,1.6-0.6,2.3-0.8
			c0.8-0.3,1.5-0.6,2.1-0.8c0.8-0.4,1.5-0.8,2.1-1.3c0.6-0.4,1.2-0.9,1.9-1.5c0.6-0.6,1.2-1.1,1.6-1.7c0.6-0.7,1.2-1.4,1.6-2.1
			c0.6-0.7,1.2-1.4,1.6-2.1c0.5-0.8,0.9-1.7,1.4-2.5c0.3-0.8,0.7-1.7,1.2-2.6c0.5-0.8,0.9-1.8,1.2-2.8c0.3-0.8,0.6-1.8,0.9-2.8
			c0.5-1,0.9-2.1,1.2-3.2c0.2-1,0.4-2.1,0.7-3.2c0.3-1,0.6-2,1-3.2c0.2-1.1,0.4-2.3,0.7-3.4c0.2-1.1,0.3-2.3,0.5-3.4
			c0.2-1.1,0.4-2.3,0.7-3.4c0.2-1.3,0.3-2.5,0.5-3.6c0.2-1.1,0.2-2.3,0.2-3.6c0.2-1.1,0.3-2.3,0.5-3.4c0.2-1.3,0.2-2.5,0.2-3.6
			c0.2-1.1,0.2-2.3,0.2-3.6c0.2-1.1,0.2-2.3,0.2-3.4c0.2-1.1,0.2-2.3,0.2-3.4c0-1.1,0.1-2.3,0.2-3.4c0-1.1,0-2.3,0-3.4
			c0-1,0.1-2.1,0.2-3.2c0-1,0-2,0-3c0-1,0-2,0-3c0-0.8,0-1.8,0-2.8c0-0.8,0-1.7,0-2.5c0.2-0.8,0.2-1.7,0.2-2.6c0-0.7,0-1.5,0-2.3
			c0-0.6,0-1.2,0-1.9c0-0.6,0-1.2,0-1.9c0-0.4,0.1-0.9,0.2-1.5c0-0.4,0-0.8,0-1.3c0-0.4,0.1-0.8,0.2-1.1c0-0.3,0-0.6,0-0.8
			c0.2-0.1,0.2-0.3,0.2-0.4c0.3-0.1,0.6-0.3,0.7-0.4c0.6-0.1,1.2-0.2,1.6-0.2c0.6-0.1,1.3-0.3,2.1-0.4c0.9-0.1,1.9-0.3,2.8-0.4
			c1.1,0,2.2-0.1,3.3-0.2c1.1-0.1,2.3-0.2,3.5-0.2c1.3-0.1,2.6-0.2,4-0.2c1.3-0.1,2.6-0.2,4-0.2s2.8-0.1,4.2-0.2c1.4,0,2.8,0,4.2,0
			c1.2,0,2.6,0,4,0c1.3,0,2.5,0,3.8,0c1.3,0.1,2.5,0.2,3.8,0.2c0.9,0,1.9,0.1,3,0.2c1,0.2,1.9,0.2,2.8,0.2c0.6,0.1,1.3,0.3,2.1,0.4
			C754.3,371.3,754.8,371.4,755.2,371.6z"/>
	</g>
	<g>
		<path d="M626.1,218.4v0.3c0.8,57.2-67.9,320.3-81.6,333.6c0,0.2-0.1,0.3-0.3,0.3c-0.4,0.4-0.8,0.6-1.2,0.6
			c-0.6,0.4-1.2,0.6-1.8,0.6c-1,0.2-1.9,0.4-2.8,0.6c-1.2,0.2-2.5,0.3-3.7,0.3c-1.2,0.2-2.5,0.3-3.7,0.3c-1.6,0.2-3.2,0.3-4.6,0.3
			c-1.6,0-3.2,0.1-4.6,0.3c-1.8,0-3.6,0-5.2,0c-1.8,0-3.6,0-5.2,0c-1.8,0-3.7,0-5.5,0c-1.8,0-3.7,0-5.5,0c-1.6-0.2-3.4-0.3-5.2-0.3
			c-1.8,0-3.6-0.1-5.2-0.3c-1.8,0-3.6-0.1-5.2-0.3c-1.6,0-3.2-0.1-4.6-0.3c-1.6,0-3.2-0.1-4.6-0.3c-1.2-0.2-2.5-0.3-3.7-0.3
			c-1.2-0.2-2.3-0.4-3.4-0.6c-1-0.2-1.9-0.4-2.8-0.6c-0.6,0-1.2-0.1-1.8-0.3c-0.4-0.2-0.8-0.4-1.2-0.6c-0.2-0.2-0.4-0.4-0.6-0.6
			c0-0.4-0.1-0.8-0.3-1.2c-0.2-0.6-0.4-1.2-0.6-1.7c-0.2-0.8-0.4-1.5-0.6-2.3c-0.4-0.8-0.7-1.6-0.9-2.6c-0.2-1-0.4-1.9-0.6-2.9
			c-0.4-1.2-0.7-2.3-0.9-3.5c-0.4-1.3-0.7-2.6-0.9-3.8c-0.4-1.3-0.7-2.7-0.9-4c-0.4-1.5-0.7-3-0.9-4.3c-0.4-1.5-0.7-3.1-0.9-4.6
			c-0.4-1.5-0.8-3.2-1.2-4.9c-0.2-1.5-0.5-3.2-0.9-4.9c-0.4-1.7-0.7-3.5-0.9-5.2c-0.4-1.7-0.8-3.5-1.2-5.2c-0.2-1.7-0.5-3.5-0.9-5.2
			c-0.4-1.9-0.7-3.8-0.9-5.5c-0.4-1.7-0.8-3.5-1.2-5.2c-0.2-1.9-0.5-3.8-0.9-5.5c-0.4-1.7-0.7-3.5-0.9-5.2c-0.4-1.7-0.7-3.5-0.9-5.2
			c-0.4-1.7-0.7-3.5-0.9-5.2c-0.4-1.5-0.7-3.2-0.9-4.9c-0.4-1.5-0.7-3.1-0.9-4.6c-0.2-1.5-0.5-3-0.9-4.3c-0.2-1.5-0.4-3-0.6-4.3
			c-0.2-1.3-0.5-2.6-0.9-3.8c-0.2-1.3-0.4-2.6-0.6-3.8c-0.2-1-0.3-2-0.3-3.2c-0.2-1-0.4-1.9-0.6-2.9c-0.2-0.8-0.3-1.5-0.3-2.3
			c-0.2-0.6-0.4-1.2-0.6-1.7c0-0.6,0-1.1,0-1.4c-0.2-0.4-0.3-0.7-0.3-0.9v-0.3v0.3c0,0.2-0.1,0.5-0.3,0.9c0,0.4-0.1,0.8-0.3,1.2
			c0,0.6-0.1,1.2-0.3,2c0,0.8-0.1,1.4-0.3,2c-0.2,1-0.4,1.9-0.6,2.9c-0.2,1-0.4,1.9-0.6,2.9c-0.2,1.2-0.4,2.3-0.6,3.5
			c-0.2,1.3-0.4,2.6-0.6,3.8c-0.2,1.3-0.5,2.7-0.9,4c-0.2,1.5-0.4,3-0.6,4.3c-0.4,1.5-0.7,3.1-0.9,4.6c-0.4,1.5-0.7,3.1-0.9,4.6
			c-0.4,1.7-0.8,3.4-1.2,4.9c-0.2,1.7-0.5,3.5-0.9,5.2c-0.4,1.7-0.7,3.5-0.9,5.2c-0.4,1.7-0.8,3.5-1.2,5.2c-0.4,1.7-0.7,3.5-0.9,5.2
			c-0.4,1.7-0.8,3.5-1.2,5.2c-0.4,1.7-0.8,3.5-1.2,5.2c-0.4,1.7-0.7,3.5-0.9,5.2c-0.4,1.7-0.8,3.5-1.2,5.2c-0.4,1.7-0.8,3.4-1.2,4.9
			c-0.4,1.7-0.7,3.4-0.9,4.9c-0.4,1.5-0.8,3.1-1.2,4.6c-0.4,1.5-0.8,3.1-1.2,4.6c-0.2,1.3-0.5,2.8-0.9,4.3c-0.4,1.3-0.7,2.6-0.9,3.8
			c-0.4,1.3-0.8,2.6-1.2,3.8c-0.2,1.2-0.5,2.3-0.9,3.5c-0.2,1-0.5,1.9-0.9,2.9c-0.2,0.8-0.5,1.6-0.9,2.6c-0.2,0.8-0.4,1.4-0.6,2
			c-0.4,0.6-0.7,1.2-0.9,1.7c-0.2,0.4-0.4,0.8-0.6,1.2c-0.2,0.4-0.4,0.6-0.6,0.6c-0.2,0.2-0.4,0.3-0.6,0.3c-0.4,0-0.8,0-1.2,0
			c-0.8,0-1.6,0-2.5,0c-1,0.2-2,0.3-3.1,0.3c-1.2,0-2.3,0.1-3.4,0.3c-1.4,0-2.9,0-4.3,0c-1.6,0.2-3.2,0.3-4.6,0.3
			c-1.8,0.2-3.6,0.3-5.2,0.3c-1.6,0-3.4,0.1-5.2,0.3c-1.8,0-3.7,0-5.5,0c-1.8,0.2-3.7,0.3-5.5,0.3c-1.8,0-3.7,0-5.5,0
			c-1.8,0.2-3.7,0.3-5.5,0.3c-1.6,0-3.4,0-5.2,0c-1.6,0-3.3,0-4.9,0c-1.6,0-3.2-0.1-4.6-0.3c-1.4,0-2.8,0-4,0
			c-1.2-0.2-2.5-0.3-3.7-0.3c-1-0.2-1.9-0.4-2.8-0.6c-0.8,0-1.5-0.1-2.2-0.3c-0.4-0.2-0.8-0.5-1.2-0.9h-0.3c0-0.2-0.1-0.4-0.3-0.6
			c-22.6-5.8-84.6-286.7-82.2-334.1v-0.3c0.2-0.2,0.5-0.3,0.9-0.3c0.4-0.2,0.8-0.4,1.2-0.6c0.8-0.2,1.5-0.3,2.1-0.3
			c0.8-0.2,1.7-0.4,2.8-0.6c1,0,2-0.1,3.1-0.3c1.2,0,2.5-0.1,3.7-0.3c1.4,0,2.8-0.1,4-0.3c1.6,0,3.2-0.1,4.6-0.3c1.6,0,3.3,0,4.9,0
			c1.6-0.2,3.3-0.3,4.9-0.3c1.8,0,3.6,0,5.2,0c1.8-0.2,3.7-0.3,5.5-0.3s3.7,0,5.5,0c1.8,0,3.7,0,5.5,0c1.8,0,3.7,0,5.5,0
			c2,0,4,0,5.8,0c1.8,0,3.7,0.1,5.5,0.3c1.6,0,3.4,0,5.2,0c1.6,0,3.4,0.1,5.2,0.3c1.6,0,3.3,0,4.9,0c1.4,0.2,3,0.3,4.6,0.3
			c1.2,0.2,2.6,0.3,4,0.3c1.4,0.2,2.8,0.3,4,0.3c1,0.2,2.1,0.3,3.4,0.3c1,0.2,1.9,0.4,2.8,0.6c0.8,0,1.6,0.1,2.5,0.3
			c0.6,0.2,1.1,0.4,1.5,0.6c0.4,0,0.8,0.1,1.2,0.3c0.2,0.2,0.3,0.5,0.3,0.9c0.2,0.2,0.4,0.5,0.6,0.9c0.2,0.6,0.4,1.1,0.6,1.5
			c0.2,0.8,0.4,1.4,0.6,2c0.2,0.8,0.4,1.5,0.6,2.3c0.4,0.8,0.7,1.6,0.9,2.6c0.2,1,0.4,1.9,0.6,2.9c0.4,1.2,0.7,2.3,0.9,3.5
			c0.4,1.2,0.7,2.3,0.9,3.5c0.2,1.3,0.5,2.7,0.9,4c0.2,1.3,0.5,2.7,0.9,4c0.2,1.5,0.5,3,0.9,4.3c0.4,1.5,0.7,3.1,0.9,4.6
			c0.4,1.5,0.7,3.1,0.9,4.6c0.4,1.7,0.8,3.4,1.2,4.9c0.2,1.7,0.5,3.5,0.9,5.2c0.4,1.7,0.7,3.5,0.9,5.2c0.4,1.7,0.8,3.5,1.2,5.2
			c0.2,1.7,0.5,3.5,0.9,5.2c0.4,1.7,0.7,3.6,0.9,5.5c0.4,1.7,0.8,3.5,1.2,5.2c0.2,1.7,0.5,3.6,0.9,5.5c0.4,1.7,0.7,3.5,0.9,5.2
			c0.4,1.7,0.7,3.5,0.9,5.2c0.4,1.7,0.7,3.5,0.9,5.2c0.4,1.7,0.7,3.5,0.9,5.2c0.4,1.5,0.7,3.2,0.9,4.9c0.4,1.5,0.7,3.1,0.9,4.6
			c0.4,1.5,0.7,3.1,0.9,4.6c0.2,1.5,0.4,3.1,0.6,4.6c0.4,1.3,0.7,2.7,0.9,4s0.4,2.7,0.6,4c0.2,1.2,0.4,2.4,0.6,3.8
			c0.2,1.2,0.4,2.3,0.6,3.5c0.2,1,0.4,1.9,0.6,2.9s0.4,1.9,0.6,2.9c0,0.8,0.1,1.5,0.3,2.3c0,0.8,0.1,1.4,0.3,2
			c0.2,0.6,0.3,1.2,0.3,1.7c0,0.4,0.1,0.8,0.3,1.2c0,0.2,0,0.4,0,0.6v0.3v-0.3c0.2-0.2,0.3-0.4,0.3-0.6c0.2-0.4,0.3-0.8,0.3-1.2
			c0.2-0.6,0.4-1.2,0.6-1.7c0.2-0.8,0.4-1.5,0.6-2c0.4-0.8,0.7-1.5,0.9-2.3c0.2-1,0.5-1.9,0.9-2.9c0.4-1,0.7-2,0.9-3.2
			c0.4-1.2,0.8-2.3,1.2-3.5s0.8-2.3,1.2-3.5c0.4-1.3,0.8-2.7,1.2-4c0.6-1.3,1.1-2.8,1.5-4.3c0.4-1.3,0.9-2.8,1.5-4.3
			c0.4-1.5,0.9-3.1,1.5-4.6c0.4-1.5,0.9-3.1,1.5-4.6c0.6-1.5,1.1-3.2,1.5-4.9c0.6-1.5,1.2-3.2,1.8-4.9c0.6-1.7,1.2-3.4,1.8-4.9
			c0.6-1.7,1.1-3.5,1.5-5.2c0.6-1.7,1.2-3.5,1.8-5.2c0.6-1.7,1.2-3.4,1.8-4.9c0.6-1.7,1.2-3.5,1.8-5.2c0.6-1.7,1.2-3.5,1.8-5.2
			c0.6-1.5,1.2-3.2,1.8-4.9c0.6-1.5,1.2-3.2,1.8-4.9c0.6-1.5,1.2-3.1,1.8-4.6c0.4-1.5,0.9-3.1,1.5-4.6c0.6-1.5,1.2-3.1,1.8-4.6
			c0.6-1.3,1.1-2.7,1.5-4c8.3-13,24-9.4,28.5,0.6c0.1,1.5,1.2,2.8,1.8,4.3c0.6,1.3,1.1,2.8,1.5,4.3c0.6,1.3,1.2,2.8,1.8,4.3
			c0.6,1.5,1.2,3.1,1.8,4.6c0.8,1.7,1.5,3.4,2.2,4.9c0.6,1.5,1.2,3.2,1.8,4.9c0.6,1.5,1.2,3.2,1.8,4.9c0.6,1.5,1.2,3.2,1.8,4.9
			c0.6,1.5,1.2,3.2,1.8,4.9c0.6,1.7,1.2,3.4,1.8,4.9c0.6,1.7,1.2,3.4,1.8,4.9c0.6,1.7,1.2,3.4,1.8,4.9s1.2,3.2,1.8,4.9
			c0.6,1.5,1.2,3.1,1.8,4.6c0.4,1.5,0.9,3.1,1.5,4.6c0.6,1.3,1.1,2.8,1.5,4.3c0.6,1.3,1.1,2.7,1.5,4c0.6,1.3,1.1,2.7,1.5,4
			c0.4,1.3,0.8,2.7,1.2,4c0.6,1.2,1.1,2.3,1.5,3.5c0.4,1,0.7,2,0.9,3.2c0.4,1,0.8,2,1.2,3.2c0.2,0.8,0.5,1.6,0.9,2.6
			c0.2,0.8,0.5,1.5,0.9,2.3c0.2,0.6,0.4,1.2,0.6,2c0.2,0.4,0.4,0.9,0.6,1.5c0,0.4,0.1,0.8,0.3,1.2c0.2,0.2,0.3,0.4,0.3,0.6v0.3v-0.3
			c0-0.2,0-0.4,0-0.6c0.2-0.4,0.3-0.8,0.3-1.2c0-0.6,0.1-1.2,0.3-1.7c0-0.8,0-1.4,0-2c0.2-1,0.3-1.8,0.3-2.6c0.2-1,0.4-1.9,0.6-2.9
			c0-1,0.1-2,0.3-3.2c0.2-1.2,0.3-2.3,0.3-3.5c0.2-1.2,0.4-2.4,0.6-3.8c0.2-1.3,0.4-2.7,0.6-4c0-1.3,0.1-2.8,0.3-4.3
			c0.2-1.3,0.4-2.8,0.6-4.3c0.2-1.5,0.4-3.2,0.6-4.9c0.2-1.5,0.4-3.1,0.6-4.6c0.4-1.7,0.7-3.5,0.9-5.2c0.2-1.7,0.4-3.5,0.6-5.2
			c0.2-1.7,0.4-3.5,0.6-5.2c0.4-1.7,0.7-3.5,0.9-5.2c0.2-1.7,0.4-3.6,0.6-5.5c0.4-1.7,0.7-3.5,0.9-5.2c0.2-1.9,0.4-3.8,0.6-5.5
			c0.4-1.7,0.7-3.5,0.9-5.2c0.2-1.7,0.5-3.6,0.9-5.5c0.2-1.7,0.4-3.5,0.6-5.2c0.4-1.5,0.7-3.2,0.9-4.9c0.2-1.7,0.5-3.5,0.9-5.2
			c0.2-1.5,0.4-3.1,0.6-4.6c0.4-1.5,0.7-3.1,0.9-4.6c0.2-1.5,0.4-3.1,0.6-4.6c0.4-1.3,0.7-2.7,0.9-4c0.2-1.3,0.5-2.7,0.9-4
			c0.2-1.2,0.4-2.4,0.6-3.8c0.2-1.2,0.5-2.3,0.9-3.5c0.2-1,0.4-1.9,0.6-2.9c0.2-1,0.4-1.9,0.6-2.9c0.2-0.8,0.5-1.5,0.9-2.3
			c0.2-0.6,0.4-1.2,0.6-1.7c0.2-0.6,0.4-1.2,0.6-1.7c0.2-0.4,0.4-0.7,0.6-0.9c0-0.4,0.2-0.7,0.6-0.9c0.2-0.2,0.5-0.3,0.9-0.3
			c0.6-0.2,1.2-0.4,1.8-0.6c0.8-0.2,1.6-0.3,2.5-0.3c0.8-0.2,1.7-0.4,2.8-0.6c1.2-0.2,2.4-0.3,3.4-0.3c1.2-0.2,2.6-0.3,4-0.3
			c1.2-0.2,2.6-0.3,4-0.3c1.6-0.2,3.2-0.3,4.6-0.3c1.6-0.2,3.3-0.3,4.9-0.3c1.6-0.2,3.3-0.3,4.9-0.3c1.8,0,3.6,0,5.2,0
			c1.8-0.2,3.7-0.3,5.5-0.3c1.8,0,3.7,0,5.5,0c1.8,0,3.7,0,5.5,0c1.8,0,3.7,0,5.5,0c1.6,0,3.4,0,5.2,0s3.7,0,5.5,0
			c1.6,0,3.3,0.1,4.9,0.3c1.8,0,3.6,0,5.2,0c1.4,0,3,0.1,4.6,0.3c1.4,0,2.9,0.1,4.3,0.3c1.4,0,2.8,0.1,4,0.3c1.2,0,2.5,0.1,3.7,0.3
			c1,0.2,2,0.3,3.1,0.3c1,0.2,1.9,0.4,2.8,0.6c0.8,0.2,1.5,0.4,2.1,0.6c0.6,0,1.1,0.1,1.5,0.3C625.4,218,625.7,218.2,626.1,218.4z"
			/>
		<path fill="#FFFFFF" d="M602.3,242.7c11.8,17.6-53.8,282.3-70.2,280.7c-9.3,6.9-55.4,13.3-59.6,0c-0.2-1.1-34.8-138.2-34.8-138.2
			s-36.9,136.9-37.1,137.2c-6.3,13.6-55,12.2-66.8,0.5c-14.2-2.8-80-267.5-62-280.9s59.4-8.2,64.3,0c0.2,0.2,40.5,176.2,40.5,176.2
			s48.4-126.9,48.8-127.3c6.3-13.8,17.8-13.8,24,0c0.4,0.6,45.4,129.6,45.4,129.6s28.7-170.5,37.7-179.2
			C541.5,232.5,590.5,225,602.3,242.7z"/>
	</g>
</g>
</svg>
