<?xml version="1.0" encoding="utf-8"?>
<!-- Generator: Adobe Illustrator 18.0.0, SVG Export Plug-In . SVG Version: 6.00 Build 0)  -->
<!DOCTYPE svg PUBLIC "-//W3C//DTD SVG 1.1//EN" "http://www.w3.org/Graphics/SVG/1.1/DTD/svg11.dtd">
<svg version="1.1" id="Camada_1" xmlns="http://www.w3.org/2000/svg" xmlns:xlink="http://www.w3.org/1999/xlink" x="0px" y="0px"
	 viewBox="0 0 1024 768" enable-background="new 0 0 1024 768" xml:space="preserve">
<g>
	<defs>
		<circle id="SVGID_1_" cx="511.9" cy="383.4" r="375.7"/>
	</defs>
	<clipPath id="SVGID_2_">
		<use xlink:href="#SVGID_1_"  overflow="visible"/>
	</clipPath>
	<g clip-path="url(#SVGID_2_)" enable-background="new    ">
		
			<image overflow="visible" width="2474" height="2474" xlink:href="../../banco de imagens/botões/butt 25.png"  transform="matrix(0.3065 0 0 0.3065 132.8006 4.7999)">
		</image>
	</g>
</g>
<g>
	<g>
		<path d="M295.7,226.5c-7.6,4.9-11.9,111.8,1,118.7s27.7,15.9,72.5,2.8c-43.4,96.8-102,175.5-80.8,197.4
			c21.2,21.9,212,10,226.2,1.7c14.2-8.3,0.5-136.7-7.2-140.9c-7.7-4.2-44.2,1.1-44.2,1.1s82.1-173.8,60.2-184.7
			C501.7,211.8,303.4,221.6,295.7,226.5z"/>
		<path fill="#FFFFFF" d="M312.4,243.3l0.3-0.3c0.3,0,0.6-0.1,0.8-0.3c0.2,0,0.4,0,0.8,0c0.3-0.2,0.7-0.3,1-0.3
			c0.5-0.2,1-0.3,1.5-0.3c0.5,0,1-0.1,1.5-0.3c0.7,0,1.3-0.1,2-0.3c0.7,0,1.3,0,2,0c0.8-0.2,1.6-0.3,2.3-0.3c0.8,0,1.7-0.1,2.5-0.3
			c0.8,0,1.8-0.1,2.8-0.3c1,0,1.9,0,2.8,0c1.2-0.2,2.3-0.3,3.3-0.3c1,0,2.1-0.1,3.3-0.3c1,0,2.1,0,3.3,0c1.2-0.2,2.4-0.3,3.5-0.3
			c1.3,0,2.6,0,3.8,0c1.3-0.2,2.6-0.3,3.8-0.3c1.3,0,2.7-0.1,4-0.3c1.3,0,2.7,0,4,0c1.5,0,2.9-0.1,4.3-0.3c1.5,0,2.9,0,4.3,0
			c1.5,0,2.9-0.1,4.3-0.3c1.5,0,3,0,4.5,0c1.5,0,3,0,4.5,0c1.5-0.2,3-0.3,4.5-0.3c1.5,0,3,0,4.5,0c1.7,0,3.3,0,4.8,0
			c1.5-0.2,3-0.3,4.5-0.3c1.7,0,3.3,0,4.8,0s3.1,0,4.8,0c1.5,0,3,0,4.5,0c1.7,0,3.3,0,4.8,0c1.5,0,3,0,4.5,0c1.7,0,3.3,0,4.8,0
			c1.5,0,3,0,4.5,0c1.5,0,3,0,4.5,0c1.5,0,3,0,4.5,0c1.5,0,2.9,0,4.3,0c1.5,0,2.9,0,4.3,0c1.5,0.2,2.9,0.3,4.3,0.3
			c1.5,0,2.9,0,4.3,0c1.3,0,2.7,0.1,4,0.3c1.3,0,2.6,0,3.8,0c1.3,0,2.6,0.1,3.8,0.3c1.3,0,2.6,0,3.8,0c1.2,0,2.3,0.1,3.5,0.3
			c1,0,2.1,0.1,3.3,0.3c1,0,2.1,0,3.3,0c0.8,0.2,1.8,0.3,2.8,0.3c1,0.2,2,0.3,3,0.3c0.8,0.2,1.7,0.3,2.5,0.3
			c0.8,0.2,1.7,0.3,2.5,0.3c0.7,0.2,1.3,0.3,2,0.3c0.7,0.2,1.3,0.3,2,0.3c0.5,0.2,1.1,0.3,1.8,0.5c0.5,0,1,0.1,1.5,0.3
			c0.3,0.2,0.8,0.3,1.3,0.5c0.3,0,0.7,0.1,1,0.3c0.2,0.2,0.3,0.3,0.5,0.5c0.2,0,0.3,0.1,0.5,0.3c0.2,0.2,0.3,0.3,0.3,0.5
			c-0.2,0.2-0.3,0.3-0.3,0.5c0,0.3-0.1,0.7-0.3,1c0,0.3-0.1,0.7-0.3,1c0,0.3-0.1,0.8-0.3,1.3c-0.2,0.5-0.3,1-0.5,1.5
			c-0.2,0.5-0.4,1.1-0.8,1.8c-0.2,0.5-0.3,1.1-0.5,1.8c-0.3,0.7-0.6,1.4-0.8,2.3c-0.3,0.7-0.7,1.4-1,2.3c-0.3,0.8-0.6,1.6-0.8,2.3
			c-0.3,1-0.7,1.9-1,2.8c-0.5,1-0.9,1.9-1.3,2.8c-0.3,1-0.7,2-1,3c-0.5,1-0.9,2-1.3,3c-0.5,1.2-0.9,2.3-1.3,3.3
			c-0.5,1.2-1,2.4-1.5,3.5c-0.3,1-0.8,2.1-1.3,3.3c-0.5,1.3-1,2.6-1.5,3.8c-0.5,1.2-1,2.4-1.5,3.8c-0.5,1.2-1,2.4-1.5,3.8
			c-0.5,1.2-1,2.4-1.5,3.8c-0.5,1.3-1,2.7-1.5,4c-0.7,1.3-1.3,2.7-1.8,4c-0.5,1.3-1.1,2.7-1.8,4c-0.5,1.5-1,2.9-1.5,4.3
			c-0.7,1.3-1.3,2.8-1.8,4.3c-0.7,1.3-1.3,2.8-1.8,4.3c-0.7,1.3-1.3,2.8-1.8,4.3c-0.7,1.3-1.3,2.8-1.8,4.3c-0.7,1.3-1.3,2.8-1.8,4.3
			c-0.7,1.3-1.3,2.8-1.8,4.3c-0.7,1.5-1.3,2.9-2,4.3c-0.5,1.5-1.1,2.9-1.8,4.3c-0.5,1.5-1.1,2.9-1.8,4.3c-0.5,1.5-1.1,2.9-1.8,4.3
			c-0.5,1.5-1.1,2.9-1.8,4.3c-0.5,1.3-1.1,2.8-1.8,4.3c-0.5,1.3-1.1,2.7-1.8,4c-0.5,1.3-1,2.7-1.5,4c-0.7,1.3-1.3,2.7-1.8,4
			c-0.5,1.3-1,2.7-1.5,4c-0.7,1.2-1.3,2.4-1.8,3.8c-0.5,1.2-1,2.4-1.5,3.8c-0.5,1.2-1,2.4-1.5,3.5c-0.5,1.2-1,2.4-1.5,3.5
			c-0.5,1.2-1,2.4-1.5,3.5c-0.3,1-0.8,2.1-1.3,3.3c-0.5,1-0.9,2-1.3,3c-0.5,1-0.9,2-1.3,3c-0.5,1-0.9,2-1.3,3
			c-0.5,0.8-0.9,1.7-1.3,2.5c-0.3,0.8-0.7,1.7-1,2.5c-0.3,0.8-0.7,1.7-1,2.5c-0.3,0.7-0.7,1.3-1,2c-0.2,0.7-0.4,1.3-0.8,2
			c-0.2,0.7-0.4,1.3-0.8,1.8c-0.2,0.5-0.3,1-0.5,1.5c-0.3,0.5-0.6,1-0.8,1.5c-0.2,0.3-0.3,0.7-0.5,1c0,0.3-0.1,0.7-0.3,1
			c-0.2,0.2-0.3,0.3-0.3,0.5c0,0.2-0.1,0.3-0.3,0.5c0.2,0,0.3,0,0.5,0c0.3-0.2,0.7-0.3,1-0.3c0.7-0.2,1.3-0.3,1.8-0.5
			c0.8-0.2,1.7-0.3,2.5-0.5c1-0.2,2-0.4,3-0.8c1-0.2,2.1-0.4,3.3-0.8c1.2-0.2,2.4-0.4,3.8-0.8c1.3-0.3,2.7-0.6,4-0.8
			c1.3-0.3,2.8-0.7,4.3-1c1.3-0.3,2.8-0.6,4.3-0.8c1.5-0.3,3-0.6,4.5-0.8c1.3-0.3,2.8-0.6,4.3-0.8c1.5-0.3,2.9-0.6,4.3-0.8
			c1.5-0.2,2.9-0.3,4.3-0.5c1.3-0.2,2.7-0.3,4-0.5c1.2,0,2.4-0.1,3.5-0.3c1,0,2,0,3,0c1,0,1.9,0,2.8,0c0.8,0.2,1.6,0.3,2.3,0.5
			c0.5,0,1,0.2,1.5,0.5c0.3,0.2,0.6,0.5,0.8,1c0.2,0.2,0.3,0.4,0.3,0.8c0.2,0.5,0.3,0.9,0.5,1.3c0,0.7,0.1,1.3,0.3,1.8
			c0.2,0.7,0.3,1.3,0.3,2c0.2,0.8,0.3,1.7,0.5,2.5c0,0.8,0.1,1.8,0.3,2.8c0.2,1,0.3,2,0.3,3c0.2,1,0.3,2.1,0.5,3.3
			c0,1.2,0.1,2.4,0.3,3.5c0.2,1.2,0.3,2.4,0.3,3.8c0.2,1.3,0.3,2.7,0.5,4c0,1.3,0.1,2.7,0.3,4c0.2,1.3,0.3,2.8,0.3,4.3
			c0.2,1.3,0.3,2.8,0.5,4.3c0,1.5,0.1,2.9,0.3,4.3c0,1.5,0.1,3,0.3,4.5c0.2,1.5,0.2,3,0.2,4.5c0.2,1.5,0.3,3,0.3,4.5
			c0.2,1.3,0.3,2.8,0.3,4.3c0.2,1.5,0.2,2.9,0.2,4.3c0,1.5,0.1,2.9,0.3,4.3c0,1.5,0,2.9,0,4.3c0.2,1.3,0.3,2.7,0.3,4
			c0,1.2,0,2.4,0,3.8c0.2,1.2,0.3,2.4,0.3,3.8c0,1,0,2.1,0,3.3c0,1,0,2.1,0,3.3c0,0.8,0,1.8,0,2.8c0,0.8-0.1,1.7-0.3,2.5
			c0,0.8,0,1.6,0,2.3c0,0.7-0.1,1.3-0.3,1.8c0,0.5,0,1,0,1.5c-0.2,0.3-0.3,0.7-0.3,1c-0.2,0.3-0.3,0.6-0.5,0.8l-0.3,0.3
			c-0.2,0-0.3,0-0.5,0c-0.3,0.2-0.7,0.3-1,0.3c-0.3,0.2-0.7,0.3-1,0.3c-0.5,0.2-1,0.3-1.5,0.3c-0.5,0.2-1,0.3-1.5,0.3
			c-0.7,0.2-1.3,0.3-2,0.3c-0.7,0.2-1.3,0.3-2,0.3c-0.8,0.2-1.6,0.3-2.3,0.3c-0.8,0.2-1.7,0.3-2.5,0.3c-1,0.2-1.9,0.3-2.8,0.3
			c-1,0.2-1.9,0.3-2.8,0.3c-1.2,0.2-2.3,0.3-3.3,0.3c-1,0.2-2,0.3-3,0.3c-1.2,0.2-2.4,0.3-3.5,0.3c-1.2,0.2-2.4,0.3-3.5,0.3
			c-1.2,0.2-2.4,0.3-3.8,0.3c-1.2,0-2.4,0.1-3.8,0.3c-1.3,0-2.6,0.1-3.8,0.3c-1.3,0-2.7,0.1-4,0.3c-1.5,0-2.9,0.1-4.3,0.3
			c-1.3,0-2.8,0-4.3,0c-1.3,0.2-2.8,0.3-4.3,0.3c-1.3,0.2-2.8,0.3-4.3,0.3s-3,0.1-4.5,0.3c-1.5,0-3,0.1-4.5,0.3c-1.5,0-3,0-4.5,0
			s-3,0.1-4.5,0.3c-1.5,0-3,0-4.5,0c-1.5,0.2-3,0.3-4.5,0.3c-1.7,0-3.3,0-4.8,0c-1.5,0-3,0.1-4.5,0.3c-1.5,0-3,0-4.5,0s-3.1,0-4.8,0
			c-1.5,0-3,0-4.5,0c-1.5,0-3,0-4.5,0c-1.3,0-2.8,0-4.3,0s-3,0-4.5,0c-1.3,0-2.8,0-4.3,0c-1.3,0-2.8,0-4.3,0c-1.3,0-2.7,0-4,0
			c-1.3,0-2.7-0.1-4-0.3c-1.3,0-2.7,0-4,0c-1.3,0-2.6-0.1-3.8-0.3c-1.3,0-2.6-0.1-3.8-0.3c-1.2,0-2.4,0-3.5,0
			c-1.2-0.2-2.4-0.3-3.5-0.3c-1-0.2-2.1-0.3-3.3-0.3c-1-0.2-2-0.3-3-0.3c-1-0.2-2-0.3-3-0.5c-0.8,0-1.7-0.1-2.5-0.3
			c-0.8-0.2-1.8-0.3-2.8-0.5c-0.7,0-1.4-0.1-2.3-0.3c-0.7-0.2-1.3-0.3-2-0.5c-0.7-0.2-1.3-0.3-2-0.5c-0.5-0.2-1.1-0.3-1.8-0.5
			c-0.3-0.2-0.8-0.3-1.3-0.5c-0.5-0.2-0.9-0.3-1.3-0.5c-0.3-0.2-0.7-0.4-1-0.8c-0.2-0.2-0.3-0.3-0.5-0.5c-0.2-0.3-0.3-0.6-0.5-0.8
			c0-0.2,0-0.4,0-0.8c0-0.3,0-0.6,0-0.8c0-0.3,0-0.7,0-1c0-0.5,0.1-0.9,0.3-1.3c0-0.5,0.1-1,0.3-1.5c0-0.5,0.1-1,0.3-1.5
			c0.2-0.7,0.3-1.3,0.5-1.8c0.2-0.7,0.3-1.3,0.5-2c0.2-0.7,0.4-1.3,0.8-2c0.2-0.7,0.4-1.4,0.8-2.3c0.2-0.7,0.4-1.4,0.8-2.3
			c0.2-0.8,0.4-1.7,0.8-2.5c0.3-0.8,0.7-1.7,1-2.5c0.3-1,0.7-1.9,1-2.8c0.3-1,0.7-1.9,1-2.8c0.5-1,0.9-2,1.3-3c0.5-1,0.9-2,1.3-3
			c0.5-1.2,0.9-2.3,1.3-3.3c0.5-1.2,0.9-2.3,1.3-3.3c0.5-1.2,1-2.3,1.5-3.5c0.5-1,1-2.1,1.5-3.3c0.5-1.2,1-2.4,1.5-3.5
			c0.5-1.3,1-2.6,1.5-3.8c0.5-1.2,1-2.4,1.5-3.8c0.7-1.2,1.3-2.4,1.8-3.8c0.5-1.2,1-2.4,1.5-3.8c0.7-1.2,1.3-2.4,1.8-3.8
			c0.7-1.3,1.3-2.7,1.8-4c0.7-1.3,1.3-2.6,1.8-3.8c0.7-1.3,1.3-2.7,1.8-4c0.7-1.3,1.3-2.7,2-4c0.5-1.5,1.1-2.9,1.8-4.3
			c0.7-1.3,1.3-2.7,1.8-4c0.7-1.3,1.3-2.7,2-4c0.7-1.3,1.3-2.8,1.8-4.3c0.7-1.3,1.3-2.7,2-4c0.7-1.3,1.3-2.7,1.8-4
			c0.7-1.5,1.3-2.9,2-4.3c0.7-1.3,1.3-2.7,2-4c0.5-1.3,1.1-2.7,1.8-4c0.7-1.5,1.3-2.9,2-4.3c0.5-1.3,1.1-2.7,1.8-4
			c0.7-1.3,1.3-2.7,2-4c0.5-1.3,1.1-2.6,1.8-3.8c0.7-1.3,1.3-2.7,2-4c0.5-1.3,1.1-2.7,1.8-4c0.7-1.2,1.3-2.4,1.8-3.8
			c0.7-1.2,1.3-2.4,1.8-3.8c0.7-1.2,1.3-2.4,1.8-3.8c0.7-1.2,1.3-2.4,1.8-3.5c0.7-1.2,1.3-2.4,1.8-3.5c0.5-1.2,1.1-2.3,1.8-3.5
			c0.5-1.2,1-2.3,1.5-3.3c0.5-1.2,1-2.4,1.5-3.5c0.5-1,1-2,1.5-3c0.5-1,1-2.1,1.5-3.3c0.5-1,1-2,1.5-3c0.5-0.8,1-1.8,1.5-2.8
			c0.3-0.8,0.8-1.8,1.3-2.8c0.3-0.8,0.8-1.7,1.3-2.5c0.3-0.8,0.8-1.7,1.3-2.5c0.3-0.8,0.7-1.7,1-2.5c0.5-0.7,0.9-1.4,1.3-2.3
			c0.3-0.7,0.7-1.3,1-2c0.3-0.7,0.6-1.3,0.8-1.8c0.3-0.7,0.7-1.3,1-2c0.2-0.5,0.4-1,0.8-1.5c0.2-0.5,0.4-1,0.8-1.5
			c0.2-0.3,0.3-0.8,0.5-1.3c0.2-0.3,0.3-0.7,0.5-1c0.2-0.3,0.3-0.7,0.5-1c0.2-0.2,0.3-0.3,0.3-0.5c0.2-0.2,0.3-0.3,0.3-0.5
			c0.2-0.2,0.3-0.3,0.3-0.5h-0.3c-0.3,0.2-0.6,0.3-0.8,0.3c-0.5,0.2-1,0.3-1.5,0.5c-0.5,0.2-1.1,0.3-1.8,0.5
			c-0.7,0.2-1.4,0.3-2.3,0.5c-0.8,0.2-1.7,0.4-2.5,0.8c-1,0.2-2,0.4-3,0.8c-1.2,0.3-2.4,0.6-3.5,0.8c-1.2,0.3-2.4,0.7-3.5,1
			c-1.2,0.3-2.4,0.7-3.8,1c-1.3,0.3-2.7,0.6-4,0.8c-1.3,0.3-2.8,0.7-4.3,1c-1.3,0.3-2.8,0.7-4.3,1c-1.3,0.3-2.8,0.7-4.3,1
			c-1.5,0.3-2.9,0.7-4.3,1c-1.5,0.3-3,0.7-4.5,1c-1.3,0.2-2.8,0.4-4.3,0.8c-1.3,0.3-2.8,0.6-4.3,0.8c-1.3,0.3-2.7,0.6-4,0.8
			c-1.3,0.2-2.7,0.3-4,0.5c-1.2,0.2-2.4,0.3-3.8,0.5c-1,0.2-2.1,0.3-3.3,0.5c-1.2,0-2.3,0.1-3.3,0.3c-1,0-1.9,0-2.8,0
			c-0.8,0-1.7,0-2.5,0c-0.8,0-1.6-0.1-2.3-0.3c-0.5-0.2-1-0.3-1.5-0.5c-0.5-0.2-0.9-0.3-1.3-0.5c-0.2-0.3-0.3-0.7-0.5-1
			c-0.2-0.3-0.3-0.8-0.3-1.3c-0.2-0.5-0.3-1.1-0.5-1.8c-0.2-0.7-0.2-1.3-0.2-2c-0.2-1-0.3-1.9-0.5-2.8c0-1-0.1-2-0.2-3
			c-0.2-1-0.3-2.1-0.3-3.3c-0.2-1.2-0.3-2.3-0.5-3.5c0-1.2-0.1-2.4-0.3-3.8c0-1.3-0.1-2.7-0.3-4c-0.2-1.3-0.3-2.7-0.3-4
			c-0.2-1.5-0.3-2.9-0.3-4.3c-0.2-1.5-0.3-3-0.3-4.5c-0.2-1.5-0.3-2.9-0.3-4.3c-0.2-1.5-0.3-3-0.3-4.5c0-1.3-0.1-2.8-0.3-4.3
			c0-1.5,0-2.9,0-4.3c0-1.3-0.1-2.8-0.3-4.3c0-1.2,0-2.4,0-3.8c0-1.3,0-2.6,0-3.8c0-1.3,0-2.6,0-3.8c0-1,0-2.1,0-3.3
			c0-0.8,0-1.8,0-2.8c0-0.8,0-1.8,0-2.8c0-0.7,0.1-1.3,0.3-2c0-0.7,0-1.3,0-1.8c0.2-0.5,0.3-0.9,0.3-1.3
			C312.3,243.7,312.4,243.4,312.4,243.3z"/>
	</g>
	<g>
		<g>
			<g>
				<path d="M724,492.2c-0.2,1-0.4,2.1-0.6,3.4c-0.2,1-0.5,2.1-0.9,3.1c-0.4,1.2-0.8,2.4-1.2,3.4c-0.6,1.2-1.1,2.4-1.5,3.4
					c-0.6,1-1.2,2.1-1.8,3.1c-0.6,1.2-1.2,2.4-1.8,3.4c-0.8,1-1.6,2.1-2.4,3.1c-0.6,1-1.3,2.1-2.1,3.4c-0.8,1-1.7,2.1-2.7,3.1
					c-0.8,1-1.7,2-2.7,2.8c-1,1-1.9,2.1-2.7,3.1c-1,1-2.1,1.9-3.3,2.8c-1,1-2,1.9-3,2.7c-1.2,1-2.3,2-3.3,2.8
					c-1.2,0.8-2.4,1.6-3.6,2.4c-1.2,1-2.4,1.8-3.6,2.5c-1.2,0.8-2.4,1.6-3.6,2.4c-1.2,0.8-2.4,1.5-3.6,2.1c-1.4,0.8-2.7,1.5-3.9,2.1
					c-1.4,0.8-2.7,1.5-3.9,2.2c-1.4,0.6-2.7,1.2-3.9,1.8c-1.4,0.4-2.8,0.9-4.3,1.5c-1.4,0.6-2.7,1.1-3.9,1.5
					c-1.4,0.4-2.8,0.8-4.3,1.2c-1.4,0.4-2.8,0.8-4.2,1.2c-1.4,0.4-2.7,0.7-3.9,0.9c-1.4,0.4-2.8,0.7-4.2,0.9
					c-1.4,0.2-2.8,0.4-4.2,0.6s-2.7,0.3-3.9,0.3c-1.8,0.2-3.6,0.3-5.4,0.3c-1.6,0-3.2,0.1-4.8,0.3c-1.8,0-3.5,0-5.1,0
					s-3.2-0.1-4.8-0.3c-1.6,0-3.2,0-4.8,0c-1.6-0.2-3.1-0.3-4.5-0.3c-1.6-0.2-3.2-0.4-4.8-0.6c-1.4-0.2-2.8-0.4-4.2-0.6
					c-1.6-0.2-3.1-0.4-4.6-0.6s-2.8-0.5-4.2-0.9c-1.4-0.2-2.8-0.5-4.2-0.9c-1.4-0.2-2.7-0.5-3.9-0.9c-1.4-0.4-2.7-0.8-3.9-1.2
					c-1.4-0.4-2.7-0.8-3.9-1.2c-1.2-0.4-2.5-0.9-3.9-1.5c-1.2-0.4-2.4-0.9-3.6-1.5c-1-0.4-2.1-0.9-3.3-1.5c-1.2-0.6-2.4-1.1-3.6-1.5
					c-1-0.6-2.1-1.2-3.3-1.8c-1-0.8-2-1.5-3-2.1c-1.2-0.6-2.3-1.3-3.3-2.1c-1-0.6-2-1.3-3-2.2c-0.8-0.6-1.7-1.3-2.7-2.1
					c-1-0.8-1.9-1.6-2.7-2.4c-1-0.8-1.9-1.6-2.7-2.4c-1-0.8-1.9-1.6-2.7-2.5c-0.8-1-1.6-1.9-2.4-2.7c-0.8-1-1.6-2-2.4-2.8
					c-0.8-1-1.6-2.1-2.4-3.1c-0.6-0.8-1.3-1.7-2.1-2.8c-0.6-1-1.3-2-2.1-3.1c-0.6-1.2-1.2-2.4-1.8-3.4c-0.6-1-1.2-2.1-1.8-3.4
					c-0.6-1-1.2-2.1-1.8-3.1c-0.6-1.2-1.1-2.5-1.5-3.7c-0.6-1.2-1.1-2.4-1.5-3.4c-0.6-1.2-1.1-2.5-1.5-3.7c-0.4-1.2-0.8-2.4-1.2-3.7
					c-0.4-1.4-0.8-2.8-1.2-4c-0.4-1.2-0.8-2.6-1.2-4c-0.4-1.2-0.7-2.6-0.9-4c-0.4-1.2-0.7-2.6-0.9-4c-0.2-1.4-0.5-2.9-0.9-4.3
					c-0.2-1.2-0.4-2.6-0.6-4s-0.3-2.8-0.3-4c-0.2-1.4-0.3-2.9-0.3-4.3c-0.2-1.2-0.3-2.6-0.3-4c0-1.4,0-2.8,0-4c0-1.4,0.1-2.8,0.3-4
					c0-1.4,0.1-2.7,0.3-4c0-1.4,0.1-2.7,0.3-4c0.2-1.4,0.4-2.7,0.6-4c0.2-1.4,0.4-2.8,0.6-4c0.4-1.2,0.7-2.5,0.9-3.7
					c0.4-1.4,0.7-2.8,0.9-4c0.4-1.2,0.8-2.4,1.2-3.7c0.4-1.2,0.8-2.5,1.2-3.7c0.4-1.2,0.9-2.4,1.5-3.7c0.4-1.2,0.9-2.5,1.5-3.7
					c0.4-1.2,0.9-2.4,1.5-3.4c0.6-1.2,1.2-2.5,1.8-3.7c0.6-1,1.2-2.1,1.8-3.4c0.6-1.2,1.3-2.4,2.1-3.4c0.6-1,1.3-2.1,2.1-3.4
					c0.6-1,1.3-2,2.1-3.1c0.8-1,1.6-2,2.4-3.1c0.8-1,1.6-2,2.4-3.1c0.8-1,1.6-2,2.4-3.1c0.8-1,1.7-2,2.7-3.1
					c0.8-0.8,1.7-1.7,2.7-2.7c1-0.8,1.9-1.6,2.7-2.5c1-1,2-1.9,3-2.8c1-0.8,2-1.6,3-2.4c1-0.8,2.1-1.6,3.3-2.4c1-0.8,2-1.6,3-2.5
					c1.2-0.6,2.3-1.3,3.3-2.1c1.2-0.6,2.3-1.3,3.3-2.1c1.2-0.6,2.4-1.2,3.6-1.8c1.2-0.6,2.4-1.2,3.6-1.8c1.2-0.6,2.4-1.2,3.6-1.8
					c1.2-0.6,2.4-1.1,3.6-1.5c1.2-0.6,2.4-1.1,3.6-1.5c1.4-0.6,2.7-1.1,3.9-1.5c1.4-0.4,2.7-0.8,3.9-1.2c1.4-0.4,2.7-0.7,3.9-0.9
					c1.4-0.4,2.8-0.8,4.2-1.2c1.4-0.2,2.8-0.4,4.2-0.6c1.8-0.4,3.6-0.7,5.5-0.9c1.8-0.4,3.7-0.7,5.7-0.9c1.6-0.2,3.3-0.3,5.1-0.3
					c1.8-0.2,3.6-0.3,5.5-0.3c1.6,0,3.3,0,5.1,0c1.6,0,3.2,0,4.8,0c1.6,0,3.2,0.1,4.8,0.3c1.6,0.2,3.2,0.4,4.8,0.6
					c1.6,0.2,3.1,0.4,4.6,0.6c1.6,0.2,3.1,0.5,4.5,0.9c1.4,0.4,2.9,0.7,4.6,0.9c1.4,0.4,2.8,0.8,4.2,1.2c1.2,0.4,2.5,0.9,3.9,1.5
					c1.4,0.4,2.7,0.9,3.9,1.5c1.4,0.4,2.7,0.9,3.9,1.5c1.2,0.6,2.4,1.2,3.6,1.8c1.2,0.6,2.4,1.2,3.6,1.8c1.2,0.6,2.4,1.3,3.6,2.1
					c1.2,0.6,2.3,1.3,3.3,2.1c1.2,0.6,2.3,1.3,3.3,2.1c1,0.8,2,1.6,3,2.4c1,0.8,2,1.6,3,2.5c1,0.8,2,1.6,3,2.4
					c0.8,0.8,1.7,1.6,2.7,2.4c0.8,1,1.7,2,2.7,2.8c0.8,1,1.6,1.9,2.4,2.8c0.8,1,1.6,1.9,2.4,2.7c0.8,1,1.6,2.1,2.4,3.1
					c0.8,0.8,1.5,1.8,2.1,2.8c0.8,1,1.5,2.1,2.1,3.1c0.8,1,1.5,1.9,2.1,2.8c0.6,1,1.2,2.1,1.8,3.1c0.6,1,1.2,2.1,1.8,3.1
					c0.6,1,1.2,2.1,1.8,3.1c0.4,1,0.9,2,1.5,3.1c0.4,1,0.8,2,1.2,3.1c0.6,1,1.1,2,1.5,3.1c0.4,1,0.8,2,1.2,3.1
					c0.4,0.8,0.8,1.7,1.2,2.7c0.4,1,0.7,2.1,0.9,3.1c0.4,1,0.7,2.1,0.9,3.1c0.4,0.8,0.7,1.8,0.9,2.8c0.2,1,0.4,1.9,0.6,2.8
					c0.4,1,0.7,1.9,0.9,2.7c0,1,0.1,2,0.3,2.8c0.2,1,0.4,1.9,0.6,2.8c0,0.8,0.1,1.6,0.3,2.4c0,0.8,0.1,1.6,0.3,2.5
					c0,0.8,0,1.6,0,2.4c0,0.8,0,1.6,0,2.4c0,0.6,0,1.3,0,2.1c0,0.6,0,1.3,0,2.2c-0.2,0.6-0.3,1.2-0.3,1.8c-0.2,0.6-0.3,1.2-0.3,1.8
					c-0.2,0.6-0.4,1.2-0.6,1.8c0,0.6-0.1,1.1-0.3,1.5c-0.2,0.6-0.4,1.1-0.6,1.5c-0.2,0.4-5,8.3-5,8.3s-48.8,13.2-75.1,14.7
					c-26.2,1.5-47-0.6-48.2-0.8c-1.4-0.4-2.5,6.1,11.2,8.6c13.7,2.5,17.7-9.1,17.7-9.1s17.1-4,38.6-3.9c11.4-0.9,28.7,0.1,30.3-0.2
					c1.6,0,22,1,24.7,3.9s-0.2,15.3,0,15.5C724.1,491.5,724.1,491.8,724,492.2z"/>
			</g>
		</g>
		<path fill="#FFFFFF" d="M698.3,485.3c-0.2,0.8-0.4,1.6-0.7,2.4c-0.3,1-0.6,1.9-1,2.7c-0.5,1-0.9,1.9-1.2,2.7
			c-0.5,0.8-1,1.6-1.5,2.5c-0.5,1-1,1.9-1.5,2.7c-0.7,0.8-1.3,1.6-2,2.5c-0.5,0.8-1.1,1.7-1.7,2.7c-0.7,0.8-1.4,1.6-2.2,2.5
			c-0.6,0.8-1.4,1.6-2.2,2.2c-0.8,0.8-1.6,1.6-2.2,2.5c-0.8,0.8-1.7,1.6-2.7,2.2c-0.8,0.8-1.6,1.6-2.5,2.2c-1,0.8-1.9,1.6-2.7,2.2
			c-1,0.7-2,1.3-2.9,2c-1,0.8-2,1.5-3,2c-1,0.6-2,1.3-2.9,2c-1,0.7-2,1.2-3,1.7c-1.1,0.7-2.2,1.2-3.2,1.7c-1.1,0.7-2.2,1.2-3.2,1.7
			c-1.2,0.5-2.2,1-3.2,1.5c-1.1,0.3-2.3,0.7-3.4,1.2c-1.2,0.5-2.2,0.9-3.2,1.2c-1.1,0.3-2.3,0.6-3.4,1c-1.1,0.3-2.3,0.7-3.4,1
			c-1.1,0.3-2.2,0.6-3.2,0.7c-1.1,0.3-2.3,0.6-3.4,0.7c-1.1,0.2-2.3,0.3-3.4,0.5s-2.2,0.2-3.2,0.2c-1.5,0.2-3,0.3-4.4,0.3
			c-1.3,0-2.6,0.1-3.9,0.2c-1.5,0-2.9,0-4.2,0c-1.3,0-2.6-0.1-3.9-0.2c-1.3,0-2.6,0-3.9,0c-1.3-0.2-2.5-0.3-3.7-0.3
			c-1.3-0.2-2.6-0.3-3.9-0.5c-1.2-0.2-2.3-0.3-3.4-0.5c-1.3-0.2-2.5-0.3-3.7-0.5c-1.1-0.2-2.3-0.4-3.4-0.7c-1.1-0.2-2.3-0.4-3.4-0.7
			c-1.1-0.2-2.2-0.4-3.2-0.7c-1.2-0.3-2.2-0.7-3.2-1c-1.2-0.3-2.2-0.7-3.2-1c-1-0.3-2-0.7-3.2-1.2c-1-0.3-2-0.7-2.9-1.2
			c-0.8-0.3-1.7-0.7-2.7-1.2c-1-0.5-2-0.9-3-1.2c-0.8-0.5-1.7-1-2.7-1.5c-0.8-0.6-1.6-1.2-2.5-1.7c-1-0.5-1.9-1.1-2.7-1.7
			c-0.8-0.5-1.6-1.1-2.5-1.7c-0.7-0.5-1.4-1.1-2.2-1.7c-0.8-0.6-1.6-1.3-2.2-2c-0.8-0.7-1.6-1.3-2.2-2c-0.8-0.7-1.6-1.3-2.2-2
			c-0.7-0.8-1.3-1.5-2-2.2c-0.6-0.8-1.3-1.6-2-2.2c-0.7-0.8-1.3-1.6-2-2.5c-0.5-0.6-1.1-1.4-1.7-2.2c-0.5-0.8-1.1-1.6-1.7-2.5
			c-0.5-1-1-1.9-1.5-2.7c-0.5-0.8-1-1.7-1.5-2.7c-0.5-0.8-1-1.6-1.5-2.4c-0.5-1-0.9-2-1.2-3c-0.5-1-0.9-1.9-1.2-2.7
			c-0.5-1-0.9-2-1.2-2.9c-0.3-1-0.7-2-1-3c-0.3-1.1-0.7-2.2-1-3.2c-0.3-1-0.7-2-1-3.2c-0.3-1-0.6-2.1-0.7-3.2
			c-0.3-1-0.6-2.1-0.7-3.2c-0.2-1.1-0.4-2.3-0.7-3.4c-0.2-1-0.3-2-0.5-3.2c-0.2-1.1-0.3-2.2-0.3-3.2c-0.2-1.2-0.2-2.3-0.2-3.4
			c-0.2-1-0.2-2.1-0.2-3.2s0-2.2,0-3.2c0-1.1,0.1-2.2,0.2-3.2c0-1.1,0.1-2.2,0.2-3.2c0-1.2,0.1-2.2,0.3-3.2c0.2-1.1,0.3-2.2,0.5-3.2
			c0.2-1.1,0.3-2.2,0.5-3.2c0.3-1,0.6-2,0.7-2.9c0.3-1.1,0.6-2.2,0.7-3.2c0.3-1,0.6-2,1-2.9c0.3-1,0.6-2,1-3c0.3-1,0.7-2,1.2-2.9
			c0.3-1,0.7-2,1.2-3c0.3-1,0.7-1.9,1.2-2.7c0.5-1,1-2,1.5-2.9c0.5-0.8,1-1.7,1.5-2.7c0.5-1,1.1-1.9,1.7-2.7
			c0.5-0.8,1.1-1.7,1.7-2.7c0.5-0.8,1.1-1.6,1.7-2.5c0.6-0.8,1.3-1.6,2-2.5c0.7-0.8,1.3-1.6,2-2.4c0.7-0.8,1.3-1.6,2-2.5
			c0.6-0.8,1.4-1.6,2.2-2.5c0.7-0.7,1.4-1.4,2.2-2.2c0.8-0.6,1.6-1.3,2.2-2c0.8-0.8,1.6-1.6,2.5-2.2c0.8-0.6,1.6-1.3,2.5-2
			c0.8-0.7,1.7-1.3,2.7-2c0.8-0.7,1.6-1.3,2.5-2c1-0.5,1.9-1.1,2.7-1.7c1-0.5,1.9-1.1,2.7-1.7c1-0.5,2-1,2.9-1.5c1-0.5,2-1,2.9-1.5
			c1-0.5,2-1,3-1.5c1-0.5,2-0.9,2.9-1.2c1-0.5,2-0.9,3-1.2c1.1-0.5,2.2-0.9,3.2-1.2c1.1-0.3,2.2-0.7,3.2-1c1.2-0.3,2.2-0.6,3.2-0.7
			c1.1-0.3,2.3-0.7,3.4-1c1.1-0.2,2.3-0.3,3.4-0.5c1.5-0.3,3-0.6,4.4-0.7c1.5-0.3,3-0.6,4.7-0.7c1.3-0.2,2.7-0.2,4.2-0.2
			c1.5-0.2,2.9-0.2,4.4-0.2c1.3,0,2.7,0,4.2,0c1.3,0,2.6,0,3.9,0c1.3,0,2.6,0.1,3.9,0.2c1.3,0.2,2.6,0.3,3.9,0.5
			c1.3,0.2,2.5,0.3,3.7,0.5c1.3,0.2,2.5,0.4,3.7,0.7c1.1,0.3,2.4,0.6,3.7,0.7c1.1,0.3,2.3,0.7,3.4,1c1,0.3,2,0.7,3.2,1.2
			c1.2,0.3,2.2,0.7,3.2,1.2c1.1,0.3,2.2,0.7,3.2,1.2c1,0.5,2,1,2.9,1.5c1,0.5,2,1,3,1.5c1,0.5,2,1.1,2.9,1.7c1,0.5,1.9,1.1,2.7,1.7
			c1,0.5,1.9,1.1,2.7,1.7s1.6,1.3,2.5,2c0.8,0.7,1.6,1.3,2.5,2c0.8,0.6,1.6,1.3,2.5,2c0.7,0.7,1.4,1.3,2.2,2
			c0.6,0.8,1.4,1.6,2.2,2.2c0.7,0.8,1.3,1.6,2,2.2c0.6,0.8,1.3,1.6,2,2.2c0.7,0.8,1.3,1.6,2,2.5c0.7,0.7,1.2,1.4,1.7,2.2
			c0.7,0.8,1.2,1.6,1.7,2.5c0.7,0.8,1.2,1.6,1.7,2.2c0.5,0.8,1,1.6,1.5,2.5c0.5,0.8,1,1.6,1.5,2.5c0.5,0.8,1,1.6,1.5,2.4
			c0.3,0.8,0.7,1.6,1.2,2.5c0.3,0.8,0.7,1.6,1,2.5c0.5,0.8,0.9,1.6,1.2,2.5c0.3,0.8,0.7,1.6,1,2.5c0.3,0.7,0.6,1.4,1,2.2
			c0.3,0.8,0.6,1.6,0.7,2.4c0.3,0.8,0.6,1.6,0.7,2.5c0.3,0.7,0.6,1.4,0.7,2.2s0.3,1.6,0.5,2.2c0.3,0.8,0.6,1.6,0.7,2.2
			c0,0.8,0.1,1.6,0.2,2.2c0.2,0.8,0.3,1.6,0.5,2.2c0,0.7,0.1,1.3,0.2,2c0,0.6,0.1,1.3,0.2,2c0,0.7,0,1.3,0,2c0,0.7,0,1.3,0,2
			c0,0.5,0,1.1,0,1.7c0,0.5,0,1.1,0,1.7c-0.2,0.5-0.2,1-0.2,1.5c-0.2,0.5-0.2,1-0.2,1.5c-0.2,0.5-0.3,1-0.5,1.5
			c0,0.5-0.1,0.9-0.2,1.2c-0.2,0.5-0.3,0.9-0.5,1.2c-0.2,0.3-0.4,0.6-0.7,1c-0.2,0.3-0.3,0.7-0.5,1c-0.2,0.2-0.4,0.4-0.7,0.7
			c-0.2,0.2-0.4,0.4-0.7,0.7c-0.3,0.2-0.7,0.4-1.2,0.7c-0.3,0.2-0.7,0.4-1.2,0.7c-0.5,0.2-1,0.4-1.5,0.7c-0.6,0.2-1.2,0.4-1.7,0.7
			c-0.6,0.2-1.3,0.4-2,0.7c-0.7,0.2-1.3,0.4-2,0.7c-0.7,0.2-1.4,0.4-2.2,0.7c-0.8,0.2-1.6,0.4-2.2,0.7c-0.8,0.2-1.6,0.3-2.5,0.5
			c-1,0.3-1.9,0.6-2.7,0.7c-0.8,0.3-1.7,0.6-2.7,0.7c-1,0.2-2,0.4-2.9,0.7c-0.8,0.2-1.7,0.3-2.7,0.5c-1.2,0.2-2.2,0.3-3.2,0.5
			c-1,0.3-2,0.6-3.2,0.7c-1,0.2-2,0.3-3.2,0.5c-1,0.2-2.1,0.3-3.2,0.5c-1.2,0.2-2.3,0.3-3.4,0.5c-1,0.2-2.1,0.3-3.2,0.5
			c-1.1,0-2.3,0.1-3.4,0.2c-1.3,0.2-2.5,0.3-3.7,0.3c-1.2,0.2-2.3,0.3-3.4,0.5c-1.2,0-2.4,0.1-3.7,0.3c-1.1,0-2.3,0-3.4,0
			c-1.3,0.2-2.5,0.2-3.7,0.2c-1.1,0-2.4,0-3.7,0c-1.2,0-2.3,0-3.4,0c-1.2,0-2.4,0-3.7,0c-1.1,0-2.3,0-3.4,0
			c-1.3-0.2-2.5-0.2-3.7-0.2c-1.1,0-2.3-0.1-3.4-0.3s-2.3-0.2-3.4-0.2c-1.1-0.2-2.3-0.3-3.4-0.5c-1.2-0.2-2.3-0.3-3.4-0.5
			c-1-0.2-2.1-0.3-3.2-0.5c-1.1-0.2-2.2-0.3-3.2-0.5c-1.1-0.3-2.2-0.6-3.2-0.7c-1.2,0-2.1-0.3-3-1c-1.6-1-3.7,23.7,18,27.6
			c19,3.2,26.9-5.5,26.9-5.5s14.4-1,26.3-1.9C671.6,484.1,698.5,484.3,698.3,485.3z M589.9,435.2c0.3,0.7,1.3,1.1,2.9,1.5
			c1.2,0.2,2.3,0.6,3.4,1.2c1,0.3,2.1,0.7,3.4,1c1.3,0.2,2.5,0.4,3.7,0.7c1.1,0.2,2.4,0.3,3.7,0.5c1.3,0,2.5,0.1,3.7,0.2
			c1.3,0,2.5,0,3.7,0c1.1,0,2.3,0,3.4,0c1.1,0,2.3-0.1,3.4-0.2c1,0,2-0.1,2.9-0.3c0.8-0.2,1.7-0.4,2.7-0.7c0.7-0.2,1.4-0.3,2.2-0.5
			c0.7-0.3,1.2-0.7,1.7-1c0.5-0.2,0.9-0.5,1.2-1c0.7-0.6,1.3-1.4,2-2.2c0.5-1,0.9-1.9,1.2-2.7c0.3-1,0.6-2,0.7-3s0.2-2,0.2-2.9
			s-0.1-2-0.2-3c-0.3-1-0.6-1.9-0.7-2.7c-0.3-1-0.7-2-1.2-2.9c-0.5-0.8-1.1-1.6-1.7-2.5c-0.5-0.8-1.2-1.6-2-2.2
			c-0.6-0.6-1.4-1.3-2.2-2c-1-0.5-2-1-3-1.5c-1-0.5-2-0.8-2.9-1c-1.1-0.3-2.3-0.5-3.4-0.5c-0.8,0-1.6,0.1-2.2,0.2
			c-0.8,0-1.6,0.1-2.5,0.2c-0.8,0.3-1.7,0.7-2.7,1c-0.8,0.3-1.6,0.7-2.5,1c-1,0.5-1.9,1-2.7,1.5c-0.8,0.7-1.6,1.3-2.5,2
			c-1,0.7-1.9,1.4-2.7,2.2c-0.8,0.7-1.6,1.5-2.5,2.5c-0.7,0.8-1.4,1.7-2.2,2.7c-0.7,1-1.3,2.1-2,3.2c-0.8,1-1.5,2-2,3.2
			c-0.3,1.5-0.8,2.8-1.5,3.9C590.1,432.9,589.7,434.2,589.9,435.2z"/>
	</g>
</g>
</svg>
