<?xml version="1.0" encoding="utf-8"?>
<!-- Generator: Adobe Illustrator 18.0.0, SVG Export Plug-In . SVG Version: 6.00 Build 0)  -->
<!DOCTYPE svg PUBLIC "-//W3C//DTD SVG 1.1//EN" "http://www.w3.org/Graphics/SVG/1.1/DTD/svg11.dtd">
<svg version="1.1" id="Camada_1" xmlns="http://www.w3.org/2000/svg" xmlns:xlink="http://www.w3.org/1999/xlink" x="0px" y="0px"
	 viewBox="0 0 1024 768" enable-background="new 0 0 1024 768" xml:space="preserve">
<image overflow="visible" enable-background="new    " width="2486" height="2479" xlink:href="../../banco de imagens/bot천es/butt 22.png"  transform="matrix(0.2937 0 0 0.2937 146.8761 19.9042)">
</image>
<g>
	<path fill="#020202" d="M278.4,425c0-1.5-0.2-3.3,0.7-4.8c0-1.3,0.4-2.4,0.7-3.7c0.2-1.5,0.7-3.1,1.1-4.4c0.9-2.9,1.8-5.7,2.4-8.6
		c0.7-3.1,2-6.2,2.6-9.2c1.3-5.9,3.7-11.4,5.1-17.1c0.7-3.1,2-5.9,2.9-9c0.7-3.5,2-6.8,2.9-10.1c1.8-5.9,4-11.9,5.7-17.8
		c1.8-6.4,4.2-12.3,5.9-18.7c0.7-2.9,1.8-5.7,2.6-8.4c1.1-3.1,2-6.2,2.9-9.2c2-5.9,4.2-11.7,5.7-17.6c1.1-2.6,2-5.7,2.9-8.6
		c0.9-3.1,2-6.2,3.1-9.2c0.9-2.9,1.8-5.7,2.6-8.6c1.1-3.1,1.8-6.4,2.9-9.5c2.4-5.7,4-11.9,5.9-17.8c2-5.7,4-11.7,5.7-17.4
		c1.8-5.9,4-11.7,5.7-17.6c1.3-2.9,2.4-5.9,3.3-9c0.4-1.5,0.9-3.1,1.5-4.6c0.4-1.8,0.9-3.5,1.5-5.3c1.3-2.6,1.5-5.7,2.9-8.6
		c1.5-3.1,2.2-6.6,3.3-9.9c2-6.2,4.6-12.1,6.4-18.2c1.5-5.7,4.2-11,5.7-16.7c1.8-5.7,4.4-11.2,6.2-16.7c0.7-2.2,1.3-4.4,2.4-6.4
		c0-0.9,0.9-1.8,0.9-2.6c0-1.3,2-1.5,2.9-1.8c2.9-0.9,5.9-0.9,9-1.1c3.3-0.2,6.6-0.4,9.9-0.7c13.4-0.9,27-0.2,40.5-0.2
		c6.2,0,12.8,0.4,18.9,1.1c0.9,0,5.3,0.4,5.3,1.5c0.7,0.7,1.1,2,1.3,2.9c0.4,1.3,1.1,2.4,1.5,3.7c8.4,22.6,16.1,45.5,23.5,68.6
		c7.9,23.7,15.4,47.7,23.1,71.5c2,6.2,4.2,12.1,5.7,18.2c1.8,5.9,4,11.9,5.5,18c1.5,6.2,3.7,12.1,5.7,18c2,5.7,3.7,11.7,5.5,17.4
		c3.7,12.5,7.9,24.8,11.4,37.2c2.2,6.4,3.7,13,5.9,19.3c0.9,2.9,2,5.9,2.6,8.8c0.7,2.9,1.3,5.9,2.4,8.6c1.1,2.9,1.3,6.2,2.4,9
		c1.1,2.9,1.5,6.2,2.4,9c0.9,2.9,1.8,5.5,2.4,8.6c0.2,0.9,0.4,2,0.7,2.9c0.2,0.9,0,3.1,0.7,3.5c-0.7,0.2-1.1,0.9-2,1.3
		c-1.1,0.4-2.4,0.4-3.7,0.7c-3.1,0.4-6.4,0.9-9.5,0.9c-6.6,0.2-13,0.7-19.6,0.7c-3.3,0-6.6,0-9.9,0c-14.3,0-28.6-0.2-42.9-0.4
		c-6.8-0.2-13.6-0.2-20.4-0.7c-4.4-0.2-9.2-0.2-13.4-2.2c-9-4.6-13-15.6-13.4-25.1c-0.7-12.1-0.2-24.2-1.3-36.3
		c-0.7-7-1.5-14.7-4.2-21.3c-1.1-2.6-2.6-5.3-5.5-6.2c-3.3-0.9-7.7,0.7-10.1,3.3c-0.9,1.1-0.9,3.3-1.3,4.6
		c-0.7,3.7-1.5,7.5-2.2,11.2c-2.4,11.9-5.3,23.7-8.4,35.6c-2.9,10.8-5.5,23.3-13.6,31.4c-3.7,3.7-7.5,4.2-12.3,4.8
		c-14.1,1.5-28.4,1.8-42.7,2.2c-7.5,0.2-15.2,0.4-22.6,0.4c-3.3,0-6.6-0.2-9.7-0.2c-4.4,0-9,0-13.4-0.7c-2-0.4-4.2-0.4-6.2-0.7
		C282.6,427,279,426.1,278.4,425z"/>
	<path fill="#020202" d="M645.8,412.9l-1.5,1.5c-1.5,1.5-3.3,3.1-5.1,4.4c-6.4,4.8-14.1,7.7-22,9c-11.9,2-23.7,1.1-35.2-2.2
		c-5.5-1.8-10.8-4.2-15.8-6.8c-2.4-1.8-4.8-3.1-7.3-4.8c-1.3-0.7-2.4-1.5-3.5-2.4c-1.3-1.1-2.9-2-4-3.3c-2-2.2-4.4-4-6.4-6.4
		c-2-2.4-4.2-4.8-5.9-7.5c-3.1-4.6-6.2-9.2-8.8-14.3c-5.7-10.8-8.4-22.4-10.6-34.3c-2.2-13.2-2-27.3,0-40.5
		c1.8-12.8,4.6-25.9,10.3-37.6c2.4-5.3,4.8-10.1,8.4-15c2.9-4,5.9-7.7,9.2-11.2c7-7.7,15.4-14.3,24.6-19.6
		c19.3-10.8,43.5-14.7,64.9-8.4c6.2,1.8,12.1,4.6,17.1,8.6c1.1,0.9,2.2,2,3.3,2.9c1.3,1.1,0.9-1.8,0.9-2.4c0-3.7,0.2-8.4,4-10.6
		c0.9-0.7,2.2-0.7,3.3-0.9c5.1-0.7,10.1-0.9,15.2-0.9c14.3-0.4,28.8-0.2,43.1,1.1c5.3,0.4,10.6,0.9,15.6,2.4
		c1.3,0.4,2.9,0.9,3.7,1.8c1.5,1.5,0.9,4.8,0.9,6.6c0,5.7-0.2,11.7-0.7,17.4c-0.2,3.3-0.4,6.6-0.4,9.7c0,1.5,0,3.1-0.2,4.6
		c0,2,0,3.7,0,5.7c-0.7,6.4-0.7,13.2-0.9,19.8c0,7-0.2,14.1-0.2,21.3c0,13.6,0.7,27.3,0.7,40.9c0,6.6,0.9,13.4,0.9,20
		s0.4,13.2,1.1,19.8c0.2,3.1,0.4,6.4,0.7,9.5c0.2,3.3,0.7,6.6,0.7,9.7c0,5.9,0.9,11.7,0.9,17.6c0,1.8,0.4,4.6-0.2,6.4
		c0,3.1-4,2.6-6.2,3.3c-1.8,0.4-3.5,0.2-5.3,0.4c-2.4,0.2-4.8,0.4-7.3,0.4c-15.4,0-30.8-0.2-46.4-1.1c-2.9-0.2-5.5-0.4-8.4-0.7
		c-4.4-0.7-9-0.7-13.4-2.2C653,423,647.5,418.8,645.8,412.9C645.6,412,646.2,414.2,645.8,412.9z"/>
	<path fill="#FFFFFF" d="M308.9,407.8c0-4.6,1.3-9,2.4-13.4c1.5-5.7,3.1-11.7,4.4-17.4c0.7-3.1,1.5-6.2,2.4-9
		c0.9-2.9,1.5-5.9,2.4-8.8c1.8-5.9,3.1-12.1,4.8-18c3.5-13,7.7-25.5,10.8-38.5c1.5-6.2,4-12.1,5.3-18.5c2.2-5.9,3.3-12.3,5.3-18.5
		c0.9-2.9,1.5-5.9,2.4-8.8c0.9-3.1,2-6.4,2.9-9.7c1.5-6.2,3.5-12.3,5.3-18.5c1.8-5.9,3.5-11.9,5.3-17.8c2-6.6,4.2-13.4,5.9-20
		c1.5-6.4,3.7-12.3,5.5-18.7c1.5-5.7,3.5-11.7,5.3-17.4c1.8-5.7,4-11.4,5.3-17.1c0.9-2.4,1.8-4.8,2.4-7.3c0.9-2.9,2.2-5.5,2.6-8.1
		c0.2-1.1,0.9-2,1.1-2.9c0.2-0.9,0.4-1.5,1.1-2c2.6-1.3,5.9-1.3,8.8-1.5c6.2-0.7,12.5-0.9,18.9-0.9c6.2,0,12.3,0.2,18.5,0.2
		c3.1,0,5.9,0,9,0.4c3.1,0.4,6.6-0.2,9.7,0.7c0.9,0.2,1.8,0.4,2.2,0.9c0.4,0,0.9,2,1.3,2.2c0,1.1,0.9,2.6,1.3,3.7
		c0.4,1.5,0.9,3.3,1.5,4.8c1.3,2.6,2,5.5,2.6,8.1c0.7,2.9,1.8,5.7,2.6,8.4c2.2,5.5,3.3,11.7,5.1,17.4c1.8,5.9,3.7,12.1,5.3,18
		c1.8,6.6,4.2,13,5.7,19.3c1.5,6.2,3.3,12.3,5.3,18.5c2,6.2,3.5,12.3,5.1,18.5c2,6.2,4,12.3,5.5,18.7c1.5,6.4,3.5,12.5,5.3,18.9
		c1.8,6.2,3.3,12.5,5.1,18.7c3.5,12.3,7,24.6,10.1,37.2c1.8,7,3.7,14.1,5.7,20.9c0.9,3.3,1.5,6.6,2.6,9.9c0.9,3.1,2,6.4,2.4,9.5
		c1.3,6.6,3.3,13,4.8,19.3c0.7,3.1,2.2,6.6,2.4,9.9c0.2,1.5,0.7,2.9,0.9,4.4c0.2,0.7,0,2.9,0.7,3.3c-0.4,0,0-0.2-0.4,0.4
		c-0.2,0.4-0.9,0.7-1.5,0.9c-1.3,0.4-2.9,0.4-4.4,0.7c-3.1,0-5.9,0.7-9,0.7c-6.2,0.2-12.1,0.2-18.2,0.2c-6.4,0-12.8,0-19.1-0.2
		c-6.2-0.2-12.8-0.2-18.9-1.5c-1.1-0.2-2.6-0.4-3.7-1.1c-1.1-0.7-1.3-2-1.8-3.3c-0.9-2.9-1.5-5.7-2.4-8.4c-1.8-5.9-3.1-11.9-4.4-18
		c-2.9-12.3-5.5-24.6-8.4-36.9c-1.3-5.7-2.2-11.4-3.5-17.1c-0.4-1.1-0.2-2.6-1.3-2.9c-1.3-0.2-2.9-0.4-4.2-0.7
		c-3.3-0.2-6.8,0-10.1-0.4c-5.9-0.7-12.1-0.2-18.2,0.2c-2.6,0.2-5.3,0.4-7.7,1.5c-0.9,0.2-1.3,0.7-1.5,1.5c-0.4,1.5-0.7,3.3-1.1,4.8
		c-2.6,12.5-5.3,25.1-8.1,37.6c-1.3,6.2-2.4,12.5-4,18.7s-3.3,12.1-4.6,18.2c-0.2,1.3-0.9,2.9-1.3,4c0,1.3-2.2,1.8-3.3,2
		c-3.3,0.9-7,1.5-10.3,1.5c-6.6,0.9-13.4,1.3-20.2,1.5c-6.6,0.2-13.4,0-20,0c-3.3,0-7,0-10.3-0.7c-1.8-0.4-3.5-0.2-5.3-0.9
		C311.6,409.4,309.4,408.7,308.9,407.8z M439.1,292c0.2-0.2-0.2-1.3-0.2-1.8c-0.2-1.5-0.7-3.1-1.1-4.6c-1.1-4.6-2-9.2-2.9-13.9
		c-1.5-7.5-2.6-15-3.7-22.6c-1.5-11.9-2.9-23.5-4.4-35.4c-0.2-1.1-1.3-8.4-3.7-5.7c-1.8,2.2-2.2,5.9-2.6,8.6
		c-0.7,4.6-1.5,9.2-2.2,13.9c-2.6,16.9-4,34.1-7.7,50.8c-0.7,3.1-1.3,6.2-2.2,9c-0.2,1.1-1.5,3.5,0,3.7c5.3,0.4,11,0.2,16.3-0.2
		c2.4-0.2,5.1-0.7,7.5-0.7c1.1,0,2.2-0.2,3.3-0.4C436.5,292.4,438.2,292.6,439.1,292C439.1,291.5,438.7,292.2,439.1,292z"/>
	<path fill="#FFFFFF" d="M656.8,386.1c-0.2-0.9-0.9,0.7-0.9,0.9c-0.7,1.3-1.1,2.4-2.4,3.3c-2.2,1.5-4,4-5.7,5.7
		c-4.4,4.2-9.9,7.9-15.6,10.1c-2.4,1.1-4.8,2-7.5,2.6c-2.9,0.9-6.2,1.5-9.2,1.8c-6.4,0.4-12.5,0.4-18.7-0.7
		c-5.5-1.3-10.8-3.1-15.8-5.7c-5.7-2.9-11.4-6.4-16.1-11c-1.8-1.8-3.5-3.5-5.3-5.3c-2.2-2.4-4-5.1-5.9-7.7
		c-3.5-4.6-6.2-9.9-8.4-15.2c-9-22.4-9.5-48.4-3.3-71.7c3.1-12.1,8.4-22.9,15.6-33c7.3-10.1,17.4-18.2,28.8-23.5
		c21.5-9.9,46.8-9.2,67.5,2.4c2.2,1.3,4.4,2.6,6.6,4.2c1.3,0.9,2.4,4.8,3.5,1.8c0.9-2.9-0.2-5.9,0.9-8.8c0.9-2.9,0.4-5.5,4.4-5.5
		c5.9-1.1,12.8-0.4,18.7-0.4c6.2,0,12.5,0.2,18.7,1.1c3.1,0.4,5.9,0.7,9,1.1c2.4,0.4,6.8,0.7,8.6,2.4c1.3,1.5,0.7,4.2,0.7,6.2
		c0,3.1,0,6.2-0.4,9.2c-0.4,2.9-0.4,5.7-0.4,8.6c-0.4,3.1-0.4,6.6-0.4,9.7c0,6.4-0.7,12.8-0.7,19.3c0,13.4,0,26.6,0,40
		c0,6.8,0.2,13.6,0.7,20.2c0.4,6.4,0.4,13,1.1,19.3c0.4,5.5,0.2,11.2,1.1,16.7c0,5.5,1.1,11,1.1,16.5c0,2,0.7,5.3-0.2,7
		c0,2.6-4,2.4-5.7,2.9c-5.7,0-11.7,0.4-17.4,0.4s-11.4,0.2-16.9-0.2c-5.5-0.4-11.2-0.7-16.7-0.9c-2.6,0-5.7-0.4-8.4-1.1
		c-1.3-0.4-2.4-0.2-3.1-2c-0.7-1.3-1.1-2.6-1.3-4.2c-0.4-2.9-0.2-5.5-0.2-8.4C655.7,391.8,657.4,388.9,656.8,386.1
		C656.5,385.4,657,387.2,656.8,386.1z M632.6,288.9c-12.1-2-22.2,6.2-27,16.7c-2.4,5.1-3.7,11.7-2.2,17.4c1.3,5.3,4,11,8.1,14.7
		c4.6,4.2,10.1,7.5,16.5,7.7c6.2,0.2,12.3-2.2,17.1-5.5c5.3-2.6,9-8.4,11.2-13.6c2.2-5.3,2.6-12.1,1.1-17.4
		C653.9,297.9,643.8,290.4,632.6,288.9C631.7,288.7,633.9,289.1,632.6,288.9z"/>
</g>
<g>
	
		<image overflow="visible" enable-background="new    " width="2631" height="2500" xlink:href="../../banco de imagens/bot천es/butt 31.png"  transform="matrix(6.962498e-002 0 0 6.962498e-002 214.4786 477.6022)">
	</image>
	
		<image overflow="visible" enable-background="new    " width="2631" height="2500" xlink:href="../../banco de imagens/bot천es/butt 31.png"  transform="matrix(6.962498e-002 0 0 6.962498e-002 420.5185 477.6022)">
	</image>
	
		<image overflow="visible" enable-background="new    " width="2631" height="2500" xlink:href="../../banco de imagens/bot천es/butt 31.png"  transform="matrix(6.962498e-002 0 0 6.962498e-002 626.5584 477.6022)">
	</image>
</g>
</svg>
