<?xml version="1.0" encoding="utf-8"?>
<!-- Generator: Adobe Illustrator 18.0.0, SVG Export Plug-In . SVG Version: 6.00 Build 0)  -->
<!DOCTYPE svg PUBLIC "-//W3C//DTD SVG 1.1//EN" "http://www.w3.org/Graphics/SVG/1.1/DTD/svg11.dtd">
<svg version="1.1" id="Camada_1" xmlns="http://www.w3.org/2000/svg" xmlns:xlink="http://www.w3.org/1999/xlink" x="0px" y="0px"
	 viewBox="0 0 1024 768" enable-background="new 0 0 1024 768" xml:space="preserve">
<linearGradient id="SVGID_1_" gradientUnits="userSpaceOnUse" x1="512" y1="840.2697" x2="512" y2="35.8204">
	<stop  offset="0" style="stop-color:#043465"/>
	<stop  offset="1" style="stop-color:#011329"/>
</linearGradient>
<rect fill="url(#SVGID_1_)" width="1024" height="767.9"/>
<g opacity="0.4">
	<path fill="#083B72" d="M1025.2,109.6v0.7C1025.3,109.9,1025.2,109.6,1025.2,109.6z"/>
	<path fill="#083B72" d="M181.1,176.1c65.8-2.6,140.6-70.8,265.4-45.4c124.8,25.4,170.7,12.4,170.7,12.4s161.9-12,288.6,11.8
		c107.2,20.1,118.5,14.2,119.4,11.9v-0.7v-55.7c-0.9,2.3-12.2,8.2-119.4-11.9C779.1,74.7,617.2,86.7,617.2,86.7s-45.9,13-170.7-12.4
		c-124.8-25.4-199.6,42.8-265.4,45.4C115.3,122.2,53.9,84.2,1.1,86.3v56.5C53.9,140.7,115.3,178.7,181.1,176.1z"/>
</g>
<path opacity="0.7" fill="#506868" d="M752.4,646.5c3.4,22.4,26.4,11.6,28.7,5.3c24.7,37.2,63.1,17.7,63.1,17.7s24.7,20.6,43.6-5.2
	c3.4,4.6,21.8,11.5,33.3-8.6c4.5,3.4,43.3,4.4,55.9,0.3c12.6-4.1,41.5-11.2-46.2-15.2c4.6-3.4,6.3-28.7-13.1-21.6
	c4.6-12.2-3.4-42-32.7-30c-5.7-31-74-29.8-72.8,16.1c-6.3-4-32.7,1.1-23.5,25.5c-6.3-4.8-15.5-6.5-20.1,4.4
	c-4.1-1.6-16.1-8.6-21.2,6.3C714,634.4,695.7,655.1,752.4,646.5z"/>
<circle fill="#FFFFFF" cx="802.8" cy="298" r="2.8"/>
<circle fill="#28798C" cx="495.8" cy="675.1" r="3.6"/>
<path fill="#28798C" d="M339.3,649.1c0,2-1.6,3.6-3.6,3.6c-2,0-3.6-1.6-3.6-3.6c0-2,1.6-3.6,3.6-3.6
	C337.7,645.5,339.3,647.1,339.3,649.1z"/>
<path fill="#28798C" d="M918.2,664.8c0,1.5-1.2,2.8-2.8,2.8c-1.5,0-2.8-1.2-2.8-2.8c0-1.5,1.2-2.8,2.8-2.8
	C917,662,918.2,663.3,918.2,664.8z"/>
<circle fill="#28798C" cx="927.8" cy="456.7" r="3.6"/>
<path fill="#28798C" d="M123.5,531.2c0,2-1.6,3.6-3.6,3.6c-2,0-3.6-1.6-3.6-3.6c0-2,1.6-3.6,3.6-3.6
	C121.9,527.6,123.5,529.2,123.5,531.2z"/>
<path fill="#28798C" d="M717,559.4c0,1.5-1.2,2.8-2.8,2.8c-1.5,0-2.8-1.2-2.8-2.8c0-1.5,1.2-2.8,2.8-2.8
	C715.7,556.6,717,557.8,717,559.4z"/>
<circle fill="#FFFFFF" cx="956.5" cy="337.5" r="2.8"/>
<circle fill="#FFFFFF" cx="876.4" cy="224.1" r="2.8"/>
<circle fill="#FFFFFF" cx="122.7" cy="268.7" r="2.8"/>
<circle fill="#FFFFFF" cx="67.3" cy="372.5" r="1.2"/>
<circle fill="#FFFFFF" cx="228.7" cy="467.1" r="1.2"/>
<circle fill="#28798C" cx="830.4" cy="532.4" r="1.2"/>
<circle fill="#28798C" cx="261.4" cy="390.2" r="1.2"/>
<circle fill="#28798C" cx="228.7" cy="467.1" r="1.2"/>
<circle fill="#FFFFFF" cx="642.8" cy="294" r="1.2"/>
<circle fill="#FFFFFF" cx="772" cy="144.2" r="1.2"/>
<circle fill="#FFFFFF" cx="452.4" cy="200.5" r="1.2"/>
<circle fill="#FFFFFF" cx="290.6" cy="279" r="1.2"/>
<circle fill="#FFFFFF" cx="260.2" cy="188" r="1.2"/>
<circle fill="#FFFFFF" cx="205.9" cy="185.5" r="2.8"/>
<path fill="#083B72" d="M912.4,627.7c4.6-12.2-3.4-42-32.7-30c-4.5-24.3-47.3-28.8-65.1-7.6c-1.7,4.3-2.7,9.4-2.5,15.1
	c-1-0.6-2.5-1-4.3-1.2c-0.7,3-1,6.3-0.9,9.8c-3.6-2.3-13.5-1.6-19.9,3.8c-0.7,3.5-0.4,7.9,1.5,13c-2.1-1.6-4.5-2.8-6.9-3.4
	c-0.5,3.3,0,7.3,1.7,12c-6.3-4.8-15.5-6.5-20.1,4.4c-3.8-1.5-14.8-7.9-20.3,4.1c2.9-0.3,6-0.7,9.4-1.2c3.4,22.4,26.4,11.6,28.7,5.3
	c24.7,37.2,63.1,17.7,63.1,17.7s24.7,20.6,43.6-5.2c3.4,4.6,21.8,11.5,33.3-8.6c4.5,3.4,43.3,4.4,55.9,0.3c1.3-0.4,2.8-0.9,4.3-1.4
	c-7.5-2-24-3.8-55.7-5.3C930.2,645.9,931.9,620.6,912.4,627.7z"/>
<path opacity="0.7" fill="#083B72" d="M736.8,565.8c1.7,0.1,3.5,0.1,5.6,0C740.5,565.7,738.6,565.7,736.8,565.8z"/>
<path opacity="0.7" fill="#506868" d="M96.8,378.8c-3-0.4,1.7-27.9,35-19.7c-2.9-48,78-36.5,75.7-9c35.6-9.2,38.4,17.2,37.3,25.8
	c24.1-6.3,29.2,17.8,29.2,17.8c33.3,3.4,15.5,35.5-3.4,26.9c0.6,16.1-23.5,20.6-33.3,12c-1.1,7.5-28.7,14.9-35.6-2.3
	c1.1,18.9-55,29.8-68.8-5.7c0.6,4-21.8,10.9-27.5-6.7C62.4,424.7,67,372.5,96.8,378.8z"/>
<path fill="#083B72" d="M89.9,382.3c-3-0.4,1.7-27.9,35-19.7c-2.9-48,78-36.5,75.7-9c35.6-9.2,38.4,17.2,37.3,25.8
	c24.1-6.3,29.2,17.8,29.2,17.8c33.3,3.4,15.5,35.5-3.4,26.9c0.6,16.1-23.5,20.6-33.3,12c-1.1,7.5-28.7,14.9-35.6-2.3
	c1.1,18.9-55,29.8-68.8-5.7c0.6,4-21.8,10.9-27.5-6.7C55.5,428.1,60.1,376,89.9,382.3z"/>
<rect opacity="0.1" fill="#FFFFFF" width="1024" height="768"/>
</svg>
