<?xml version="1.0" encoding="utf-8"?>
<!-- Generator: Adobe Illustrator 18.0.0, SVG Export Plug-In . SVG Version: 6.00 Build 0)  -->
<!DOCTYPE svg [
	<!ENTITY ns_flows "http://ns.adobe.com/Flows/1.0/">
	<!ENTITY ns_extend "http://ns.adobe.com/Extensibility/1.0/">
	<!ENTITY ns_ai "http://ns.adobe.com/AdobeIllustrator/10.0/">
	<!ENTITY ns_graphs "http://ns.adobe.com/Graphs/1.0/">
]>
<svg version="1.2" baseProfile="tiny" id="Camada_1" xmlns:x="&ns_extend;" xmlns:i="&ns_ai;" xmlns:graph="&ns_graphs;"
	 xmlns="http://www.w3.org/2000/svg" xmlns:xlink="http://www.w3.org/1999/xlink" xmlns:a="http://ns.adobe.com/AdobeSVGViewerExtensions/3.0/"
	 x="0px" y="0px" viewBox="-31 357.8 356.7 349.3" xml:space="preserve">
<image width="2486" height="2479" xlink:href="../../banco de imagens/bot천es/butt 22.png"  transform="matrix(0.1336 0 0 0.1336 -20.9084 364.9676)">
</image>
<g>
	
		<image width="2631" height="2500" xlink:href="../../banco de imagens/bot천es/butt 31.png"  transform="matrix(3.166667e-002 0 0 3.166667e-002 9.8384 573.1367)">
	</image>
	
		<image width="2631" height="2500" xlink:href="../../banco de imagens/bot천es/butt 31.png"  transform="matrix(3.166667e-002 0 0 3.166667e-002 103.549 573.1367)">
	</image>
	
		<image width="2631" height="2500" xlink:href="../../banco de imagens/bot천es/butt 31.png"  transform="matrix(3.166667e-002 0 0 3.166667e-002 197.2596 573.1367)">
	</image>
</g>
<g>
	<g>
		<path d="M93.3,400c3.1,0.3,6.2,0.2,9.4,0.5c3,0.3,6,0.4,9,1c1.9,0.4,3.9,0.6,5.8,1c4.9,1.2,9.7,3.2,13.9,5.9
			c6,3.8,10.8,9.4,12.6,16.4c2.1,8.1,0.8,17.4-3.5,24.6c-2.4,3.9-5.6,7.3-9.5,9.8c0.8,0.8,2,1.3,3,1.8c1.8,1,3.6,2,5.3,3.1
			c4.9,3.2,9.2,7.4,12.3,12.5c4.4,7.2,6.1,15.6,6.1,24c0,5.4-0.6,10.6-2.4,15.7c-2,5.3-4.9,10.3-9.1,14.3c-0.5,0.5-1,0.9-1.4,1.4
			c-0.5,0.5-1.1,0.8-1.6,1.3c-1.2,1-2.5,1.9-3.8,2.7c-2.4,1.6-4.8,3-7.4,4.1c-5.5,2.3-11,4-16.9,5.2c-12.2,2.5-24.7,2.2-37.1,2.2
			c-3.1,0-6.1,0-9.2,0c-3.1,0-6.2-0.3-9.3-0.3c-1.4,0-2.7-0.1-4.1-0.2c-1.5-0.1-2.9-0.4-4.4-0.5c-0.5,0-1.1-0.2-1.6-0.3
			c-0.6-0.2-1.2-0.2-1.8-0.4c-1.1-0.4-2.3-0.9-3.1-1.7c-0.3-0.2-0.4-0.7-0.4-1c0-0.5-0.3-0.9-0.3-1.4c0-0.5-0.2-1.1-0.3-1.5
			c0-0.8-0.1-1.7-0.2-2.4c-0.1-0.6,0-1.2-0.1-1.8c-0.1-0.6-0.2-1.2-0.2-1.8c-0.1-1.5-0.3-3-0.3-4.5c0-1.4-0.2-2.9-0.3-4.3
			c-0.1-1.5-0.1-2.9-0.2-4.4c-0.2-2.7-0.3-5.3-0.4-8c-0.1-2.8-0.2-5.6-0.3-8.4c0-1.5-0.1-2.9-0.1-4.4c0-1.6,0.1-3.1-0.2-4.6
			c0-6.2-0.2-12.4-0.3-18.5c-0.1-3-0.1-6-0.1-9c0-3.1-0.1-6.1-0.1-9.2c0-3.1,0-6.2,0-9.3c0-2.9-0.2-6,0.1-8.9
			c0.3-2.7,0.1-5.5,0.1-8.2c0-2.8,0.3-5.7,0.3-8.5c0-2.9,0.3-5.8,0.3-8.7c0.2-0.7,0.1-1.3,0.1-2c0-0.6,0.1-1.2,0.1-1.8
			c0-1.3,0.4-2.6,0.4-3.9c0-0.4,0.1-1,0.3-1.4c0-0.6,0.3-1.1,0.3-1.6c0.4-0.4,0.4-0.7,1-1c0.6-0.3,1.2-0.6,1.8-0.9
			c2.2-0.9,4.6-1.3,6.9-1.7c5.9-0.9,12.1-1.1,18.1-1.1c3.7,0,7.4-0.1,11.1-0.1C85.6,399.9,89.5,400,93.3,400
			C94.2,400.1,92,400,93.3,400z"/>
		<path fill="#FFFFFF" d="M91.8,408.3c3.2,0.4,6.4,0.3,9.6,0.7c2.8,0.4,5.8,0.9,8.5,1.7c5.3,1.6,10.8,3.7,14.7,7.8
			c4.1,4.3,6.4,10.1,6.4,16c0,1.4,0,2.7-0.1,4.1c-0.2,1.6-0.5,3.1-0.9,4.6c-0.6,2.6-2.1,5.4-3.7,7.5c-0.9,1.1-1.7,2-2.7,3
			c-1,1-2.2,1.8-3.4,2.7c-1.1,0.8-2.3,1.3-3.5,2c-0.5,0.3-1.2,0.6-1.7,0.8c-0.1,0-1.6,0.1-1.5,0.5c0,0.2,1.3,0.3,1.5,0.4
			c0.5,0.3,1.1,0.4,1.6,0.7c1.2,0.6,2.5,1.2,3.7,1.8c1.1,0.4,2.2,1.2,3.1,1.9c1.2,0.7,2.5,1.7,3.4,2.6c2.1,2,4.2,4.1,5.7,6.5
			c1.5,2.3,2.8,4.7,3.8,7.2c2.3,5.5,3.2,11.6,3.3,17.5c0.1,5.7-0.6,11.3-2.4,16.7c-1.7,5.3-5.1,10.7-9.4,14.2
			c-2.3,1.9-4.6,3.7-7.3,5.1c-2.5,1.3-5,2.5-7.7,3.3c-11.2,3.7-23.2,3.3-34.8,3.3c-3,0-6-0.1-9.1-0.1c-1.4,0-2.8-0.2-4.2-0.2
			c-1.5-0.1-2.9-0.6-4.4-0.6c-1.6-0.6-4.9-1-4.9-3.3c-0.5-1-0.3-2.3-0.5-3.4c-0.2-1.4-0.3-2.9-0.4-4.3c-0.2-2.9-0.4-5.8-0.4-8.7
			c0-2.9-0.3-5.7-0.3-8.6c0-2.9-0.1-5.8-0.3-8.7c-0.2-2.7,0-5.5-0.2-8.3c-0.2-2.8-0.2-5.6-0.2-8.4c0-2.9-0.1-5.7-0.1-8.6
			c0-5.8-0.2-11.5-0.2-17.3c0-11.4,0-22.9,0.4-34.3c0.1-2.1,0.2-4.3,0.2-6.4c0.2-1.1,0.1-2.2,0.3-3.3c0.2-0.9,0.4-2,0.4-2.9
			c0-1.8,1.6-2.6,3.1-3.2c2-0.8,4.1-1,6.2-1.5c2.3,0,4.7-0.6,7-0.6c2.4,0,4.9-0.1,7.3-0.2C82.4,408,87.1,408.3,91.8,408.3
			C92.5,408.3,90.8,408.3,91.8,408.3z M87.8,432.1c-0.3,0.3-0.1,1.2-0.1,1.6c0,0.8-0.1,1.6,0,2.4c0,1.6,0.1,3.2,0.1,4.8
			c0,0.6,0.2,1.2,0.1,1.8c0,0.3-0.3,1.2,0.2,1.4c0.6,0.2,1.5-0.2,2.2-0.2c0.8-0.1,1.4-0.4,2.1-0.7c1.2-0.5,2.3-1.3,2.8-2.6
			c0.6-1.5,0.3-3.2-0.4-4.6c-0.6-1.3-1.8-2.2-3.1-2.8c-0.7-0.3-1.3-0.5-2-0.7C89.2,432.4,88.3,431.8,87.8,432.1
			C87.6,432.2,87.9,432,87.8,432.1z M89.4,477c-0.2,0.2,0.1,1,0,1.4c0,0.7,0.1,1.4,0.1,2.1c0,1.6,0.1,3.1,0.1,4.6
			c0,2.9,0.2,5.8,0.2,8.7c0,2.8,0.3,5.6,0.3,8.4c0,2.9,0.4,5.8,0.4,8.7c0.1,0.3-0.1,1.1,0.2,1.2c0.2,0.3,1.2,0.1,1.5,0.2
			c1.4,0.1,2.9-0.4,4.3-0.6c2.8-1,5.4-2.1,7.4-4.4c4-4.9,3.5-11.4,2-17.2c-1-3.7-3.2-7.6-6.4-9.8c-1.6-1.3-3.3-2.2-5.3-2.8
			c-0.9-0.3-1.9-0.5-2.8-0.7C91.1,476.9,89.7,476.7,89.4,477C89.3,477.1,89.5,477,89.4,477z"/>
	</g>
	<g>
		<g>
			<path d="M242.8,411.2c0.5,0.9,0.6,2.1,0.7,3.1c0.3,2,0.5,4.1,0.7,6.1c0.6,6,1,12,1.4,18c0.8,12.2,1.3,24.3,1.9,36.5
				c0.2,4.8,0.4,9.5,0.6,14.3c0.5,12.4,0.9,24.9,1.1,37.3c0.1,5.2,0.2,10.5,0.1,15.7c0,1.4-0.1,2.9-0.3,4.3c-0.1,0.8-0.3,1-1.1,1.2
				c-1.8,0.4-3.6,0.5-5.4,0.6c-2.9,0.2-5.8,0.3-8.7,0.5c-6.8,0.3-13.5,0.4-20.3,0.3c-3.3,0-6.6,0-9.9-0.4c-0.6-0.1-1.5-0.1-2.1-0.4
				c-1.9-1-1.2-3.7-0.4-5.2c-4.8,4.1-11.7,5.9-17.8,6c-8.1,0.2-16-1.6-22.2-6.9c-10.8-9.1-14-24.8-14.1-38.3
				c0-12.4,3.8-25,11.7-34.7c4.4-5.4,10.2-9.6,16.8-11.8c8.2-2.8,17.1-2.2,25.4,0c0.3,0.1,0.6,0.2,0.9,0.2
				c0.6-14.3,2.1-28.5,3.4-42.7c0.1-1.3,0.2-2.6,0.4-3.9c0.1-0.8,1.1-1.5,1.7-1.9c1.4-0.8,2.9-1.2,4.4-1.5
				c5.2-1.1,10.5-1.1,15.8-1.1c3.7,0,7.9-0.2,11.4,1.2C240.7,408.4,241.9,409.6,242.8,411.2z"/>
		</g>
		<g>
			<path fill="#FFFFFF" d="M235.7,415.4c0.6,0,0.7,2.1,0.8,2.4c0,1.2,0.3,2.4,0.4,3.6c0.1,1.4,0.2,2.8,0.4,4.2
				c0.2,1.4,0,2.8,0.3,4.2c0,1.4,0.2,2.7,0.2,4.1c0,1.5,0,3.2,0.2,4.7c0,2.8,0.2,5.6,0.2,8.3c0.3,3,0,6.1,0.3,9.1
				c0,3.2,0.1,6.3,0.1,9.5c0,6.2,0.2,12.5,0.2,18.8c0,10.9,0,21.8,0,32.8c0,2.9-0.1,5.8-0.1,8.7c0,1.3-0.1,2.6-0.1,3.9
				c0,1.3,0.1,2.8-0.1,4c-0.1,1-0.2,2.1-0.2,3.1c0,0.8,0,2.2-0.9,2.5c-1,0.7-2.3,0.9-3.5,1.1c-1.5,0.2-2.9,0.3-4.4,0.4
				c-3.1,0.2-6.3,0.2-9.5,0.1c-1.5-0.1-3-0.2-4.5-0.2c-1.4,0-2.8-0.3-4.3-0.3c-1.3-0.2-2.6-0.3-3.9-0.8c-0.3-0.4-0.9-0.5-1.2-0.9
				c-0.2-0.3,0.1-0.6,0.1-0.9c0.3-1.3,0.6-2.6,0.9-3.9c-3.2,2-6.3,4-9.8,5.3c-4.6,1.7-10.2,2.6-15.1,1.6c-1.4-0.3-2.8-0.7-4.2-1
				c-1.3-0.5-2.8-0.9-3.9-1.7c-1.1-0.5-2.2-1.1-3.1-1.8c-1.1-0.8-2.2-1.5-3.1-2.5c-1.8-1.8-3.4-3.6-4.8-5.7
				c-1.4-2.2-2.4-4.5-3.5-6.9c-1.2-2.6-1.5-5.4-2.3-8.1c-0.4-3-0.8-6-0.8-9c0-3,0-5.9,0.5-8.9c0.4-2.9,1.3-5.7,2.3-8.4
				c1.9-5.2,5.5-10.2,9.7-13.7c2.2-1.8,4.5-3.2,7-4.6c2.3-1.4,5.1-2,7.6-2.9c1.2-0.2,2.4-0.5,3.7-0.8c1.4-0.2,2.7-0.3,4.1-0.5
				c2.4-0.3,5.1-0.2,7.5,0.3c2.8,0.5,5.4,1.2,8,2.3c0.5,0.2,0.9,0.5,1.4,0.7c0.4,0.2,0.6,0.8,1,0.9c0.5,0.1,0.3-2.6,0.4-3
				c0.1-0.7,0-1.4,0-2.1c0-0.7,0.1-1.3,0.2-1.9c0.1-1.4,0-2.9,0.2-4.3c0.3-2.9,0.4-5.9,0.5-8.8c0.1-2.9,0.4-5.8,0.5-8.8
				c0-1.3,0.2-2.7,0.3-4c0.2-1.5,0.2-3.1,0.4-4.6c0.5-3.3,0.7-6.5,1.4-9.7c0.2-1.4,0.6-2.7,1-4c0.1-0.3,0.6-1.3,1-1.3
				c0.9-0.2,1.8-0.5,2.7-0.8C223.6,413.2,230.1,412,235.7,415.4C235.7,415.4,235.3,415.2,235.7,415.4z M194.1,488.1
				c-2.7-0.8-6,0-8.4,1.4c-2.3,1.2-3.9,3.6-4.7,6.1c-0.9,2.8-1,5.7-0.2,8.5c0.4,1.3,1,2.5,1.8,3.6c0.9,1.3,2.1,2.1,3.2,3.1
				c2.5,1.3,5.3,1.8,8,0.9c2.7-0.9,5-2.4,6.5-4.8c3.2-5,2.9-11.9-1.6-16.1C197.3,489.4,196.1,488.6,194.1,488.1
				C193.6,488,194.4,488.2,194.1,488.1z"/>
		</g>
	</g>
</g>
</svg>
