<?xml version="1.0" encoding="utf-8"?>
<!-- Generator: Adobe Illustrator 18.0.0, SVG Export Plug-In . SVG Version: 6.00 Build 0)  -->
<!DOCTYPE svg PUBLIC "-//W3C//DTD SVG 1.0//EN" "http://www.w3.org/TR/2001/REC-SVG-20010904/DTD/svg10.dtd" [
	<!ENTITY ns_flows "http://ns.adobe.com/Flows/1.0/">
	<!ENTITY ns_extend "http://ns.adobe.com/Extensibility/1.0/">
	<!ENTITY ns_ai "http://ns.adobe.com/AdobeIllustrator/10.0/">
	<!ENTITY ns_graphs "http://ns.adobe.com/Graphs/1.0/">
]>
<svg version="1.0" id="Camada_1" xmlns:x="&ns_extend;" xmlns:i="&ns_ai;" xmlns:graph="&ns_graphs;"
	 xmlns="http://www.w3.org/2000/svg" xmlns:xlink="http://www.w3.org/1999/xlink" xmlns:a="http://ns.adobe.com/AdobeSVGViewerExtensions/3.0/"
	 x="0px" y="0px" viewBox="-31 357.8 356.7 349.3" enable-background="new -31 357.8 356.7 349.3" xml:space="preserve">
<image overflow="visible" width="2486" height="2479" xlink:href="../../banco de imagens/bot천es/butt 22.png"  transform="matrix(0.1336 0 0 0.1336 -20.9084 364.9676)">
</image>
<g>
	
		<image overflow="visible" width="2631" height="2500" xlink:href="../../banco de imagens/bot천es/butt 31.png"  transform="matrix(3.166667e-002 0 0 3.166667e-002 9.8384 573.1367)">
	</image>
	
		<image overflow="visible" width="2631" height="2500" xlink:href="../../banco de imagens/bot천es/butt 31.png"  transform="matrix(3.166667e-002 0 0 3.166667e-002 103.549 573.1367)">
	</image>
	
		<image overflow="visible" width="2631" height="2500" xlink:href="../../banco de imagens/bot천es/butt 31.png"  transform="matrix(3.166667e-002 0 0 3.166667e-002 197.2596 573.1367)">
	</image>
</g>
<g>
	<path d="M97.1,470.8c0.3-13.6,0.8-27.1,1.2-40.6c0.2-5.2,0.3-10.5,0.5-15.7c0-0.5-0.2-1.5,0.3-1.8c0.5-0.2,0.8-0.6,1.3-0.9
		c1.3-0.7,2.9-1,4.4-1.3c3.7-0.7,7.5-1,11.3-1.3c5.3-0.4,10.7-0.5,16,0.3c1.3,0.2,2.6,0.4,3.9,0.9c0.9,0.4,2.1,0.8,2.1,2
		c0.5,1,0.3,2.4,0.7,3.4c0.3,1.1,0.5,2.5,0.5,3.6c0.6,2.6,0.7,5.4,1,8c0.3,2.6,0.5,5.3,0.8,8c0.4,3,0.5,6,0.8,9
		c0.4,2.9,0.5,5.8,0.8,8.7c0.3,2.9,0.4,5.7,0.7,8.6c0.3,2.9,0.6,5.9,0.6,8.9c0.6,6,0.7,12,1.4,18c0.6,5.8,0.7,11.6,1.2,17.4
		c0.5,5.9,0.8,11.8,1,17.7c0.2,5.5,0.6,11,0.6,16.6c0,1.2,0,2.4,0,3.6c0,0.6-0.1,1.2-0.1,1.8c0,0.4-0.2,1-0.2,1.3
		c-0.4,0.4-1.1,0.6-1.6,0.7c-0.5,0.2-1.1,0.3-1.7,0.4c-1.3,0.3-2.6,0.3-4,0.5c-5.8,0.8-11.7,0.9-17.6,1.1c-1.8,0-3.7,0-5.5-0.1
		c-3.3-0.1-6.6-0.2-9.9-0.4c-2.3-0.2-5.2-0.2-7.4-1.2c-0.9-0.4-0.8-1.7-0.9-2.6c-0.2-2.2-0.3-4.4-0.4-6.6
		c-0.3-6.4-0.6-12.9-0.8-19.4c-0.2-5.4-0.4-10.8-0.5-16.2c0-0.8,0.1-1.9-0.1-2.7c-0.3-1-1.3-0.6-1.3,0.2c0,0.5,0,1,0,1.5
		c0,11.5,0,23-0.2,34.4c0,2.4-0.1,4.8-0.2,7.3c0,1,0.1,2.4-0.3,3.4c-0.2,0.4-1.1,0.4-1.5,0.5c-1.2,0.2-2.4,0.3-3.7,0.4
		c-3.3,0.3-6.6,0.5-10,0.6c-2.3,0.1-4.7,0.2-7,0.2c-1.9,0-3.7,0.1-5.6,0.1c-2.9,0-5.8-0.2-8.7-0.2c-2.8,0-5.8-0.2-8.6-0.7
		c-1.2-0.2-2.6-0.3-3.6-0.7c-0.2-0.1-1.4-0.4-1.4-0.7c0-0.1-0.1-0.4-0.1-0.5c-0.1-0.2-0.1-0.5-0.1-0.7c-0.3-1.1,0-2.4-0.3-3.5
		c-0.3-1.4-0.1-3-0.1-4.4c0-2.8,0-5.6,0-8.4c0-5.8,0.5-11.7,0.5-17.5c0-2.8,0.2-5.7,0.3-8.5c0.1-2.9,0.1-5.8,0.3-8.6
		c0.3-2.9,0.4-5.9,0.4-8.9c0.3-3,0.3-6,0.5-9c0.5-5.9,0.7-11.8,1.1-17.7c0.2-2.8,0.4-5.7,0.5-8.5c0.1-1.4,0.2-2.8,0.3-4.2
		c0.1-1.6,0.2-3.2,0.4-4.8c0.4-2.8,0.6-5.8,0.8-8.6c0.2-2.8,0.8-5.6,0.8-8.4c0.5-2.4,0.6-4.9,1-7.3c0.2-1.2,0.4-2.4,0.8-3.6
		c0-1.2,0.7-2.3,1.8-2.7c5.3-1.8,11.2-1.7,16.8-1.7c4.9,0,9.8-0.2,14.6,0.4c2.2,0.3,4.4,0.6,6.4,1.5c1.5,0.7,1.6,1.2,1.6,2.7
		c0.5,12.7,0.9,25.4,1.4,38.1c0.1,4,0.3,7.9,0.5,11.9c0.1,1.6,0.1,3.1,0.2,4.7c0,0.6,0.1,1.2,0.1,1.8c0,0.4,0,0.9,0.4,1.1
		C96.9,471.9,97.1,471.3,97.1,470.8C97.5,457.9,97.1,472.1,97.1,470.8z"/>
	<path d="M156.7,548c-0.2-0.8-0.5-1.5-0.5-2.4c0-1.2-0.2-2.5-0.3-3.7c-0.3-2.5-0.4-5.2-0.4-7.8c0-2.7-0.4-5.3-0.4-8
		c0-3-0.2-5.9-0.2-8.9c0-5.8-0.4-11.6-0.4-17.4c0-3-0.1-6-0.1-9c0-3-0.1-6.1-0.1-9.1c-0.2-11.8-0.4-23.7-0.4-35.5
		c0-5.8,0-11.7,0-17.5c0-2.9,0-5.8,0-8.7c0-1.3-0.1-2.6,0-3.9c0.1-0.7,0.1-1.3,0.1-2c0-0.5-0.1-1.2,0-1.7c0.1-0.4-0.1-0.7,0.3-0.9
		c0.6-0.3,1.1-0.5,1.8-0.6c1.5-0.3,2.9-0.4,4.4-0.6c2.8-0.4,5.7-0.3,8.6-0.3c3,0,6.1,0.3,9.1,0.6c3.4,0.3,6.9,0.7,10.3,1.3
		c0.6,0.1,1.9,0.2,2.4,0.7c0.3,0.3,0.5,0.8,0.6,1.2c1.7,4.6,2.4,9.6,3.3,14.3c1.2,6.4,2.3,12.9,3.4,19.4c0.6,3.6,1,7.4,1.9,10.9
		c0.1,0.3,4.6-0.4,5-0.5c4.5-0.4,9.1-0.3,13.4,0.9c4.1,1.1,7.5,3.1,10.5,6.1c3.2,3.2,5.7,7,7.9,10.9c2.4,4.3,4.4,8.9,5.8,13.7
		c1.4,4.8,1.9,9.5,1.8,14.5c0,7.9-0.2,15.8-1.9,23.5c-1.1,4.8-2.3,9.7-4,14.3c-0.6,1.6-1.1,3.3-2.1,4.7c-0.2,0.3-0.5,0.7-0.8,0.7
		c-1.2,0.4-2.5,0.6-3.8,0.6c-2.9,0.5-5.8,0.2-8.7,0.4c-1.8,0.1-3.6,0.1-5.4,0.1c-2.4,0-4.9-0.1-7.3-0.2c-3.2-0.1-6.5-0.3-9.7-0.7
		c-0.9-0.1-3.9-0.1-4-1.4c-0.2-1.9,0.1-3.8,0.2-5.6c0.2-3.2,0.5-6.4,0.8-9.5c0.5-5.4,1.1-10.8,1.6-16.2c0.4-4.1,1-8.1,1-12.2
		c0-0.9,0.1-5.5-1.7-5c-0.8,0.2-1.1,1.4-1.2,2.1c-0.3,1.4-0.4,2.8-0.4,4.3c-0.1,4.1,0.4,8.2,0.5,12.3c0.2,5.8,0.3,11.5,0.4,17.3
		c0,3,0.1,6,0,9c0,1,0,1.9-0.1,2.9c0,0.3,0,1-0.3,1.2c-0.5,0.4-1.4,0.5-2,0.7c-1.3,0.3-2.6,0.4-3.9,0.6c-3.3,0.4-6.6,0.6-9.9,0.8
		c-2.6,0.2-5.2,0.3-7.8,0.4c-2.8,0.1-5.5,0.2-8.3,0.1c-1.6,0-3.3-0.2-4.9-0.2C159.6,548.8,158,548.6,156.7,548z"/>
	<path fill="#FFFFFF" d="M98.1,477.3c1.2-0.1,2.5-0.2,3.8-0.4c0.7-0.1,0.1-3,0.1-3.6c0.2-2.9,0.1-5.9,0.1-8.8
		c0-5.8,0.2-11.6,0.2-17.4c0-2.8,0.3-5.6,0.3-8.3c0-2.6,0.1-5.4,0.5-7.9c0.2-1.1,0.2-2.3,0.4-3.4c0-0.5,0.1-0.9,0.2-1.4
		c0.1-0.4,0.1-1.3,0.4-1.6c0-1,1.6-1.3,2.4-1.5c1.3-0.4,2.7-0.6,4.1-0.8c2.8,0,5.6-0.5,8.4-0.4c2.7,0.1,5.5,0.2,8.2,0.6
		c1.6,0.3,4.6,0.6,4.6,2.8c0.4,0.8,0.4,2.1,0.6,3c0,1.2,0.2,2.6,0.5,3.8c0.5,2.5,0.5,5,0.9,7.5c0.4,2.7,0.7,5.5,0.8,8.3
		c0.1,2.6,0.4,5.3,0.7,7.9c0.3,2.8,0.5,5.7,0.7,8.5c0.4,6,1.2,12,1.4,18c0.1,3,0.4,6.1,0.6,9.1c0.2,2.9,0.4,5.8,0.6,8.8
		c0.2,2.8,0.3,5.6,0.5,8.4c0.2,2.7,0.5,5.5,0.5,8.3c0.2,1.3,0.2,2.6,0.2,3.9c0,1.4,0.2,2.8,0.2,4.1c0,2.6,0.2,5.1,0.2,7.7
		c0,1.3,0,2.6,0,3.9c0,0.4,0,1.1-0.2,1.5c0,0.5-0.8,0.6-1.2,0.8c-1.1,0.5-2.5,0.6-3.7,0.8c-1.4,0-2.8,0.4-4.3,0.4
		c-2.8,0.3-5.7,0.5-8.5,0.5c-2.9,0-5.8,0.3-8.6,0c-2.5,0-5.3,0-7.8-0.7c-0.5-0.1-1-0.3-1.4-0.5c0-0.4-0.2-1-0.3-1.4
		c-0.3-1.4-0.2-2.8-0.3-4.2c-0.4-5.7-0.6-11.3-0.8-17c-0.1-2.9-0.3-5.9-0.3-8.8c0-1.4-0.1-2.8-0.1-4.1c0-1.4,0-2.9-0.2-4.3
		c-0.1-1.1,0.2-2.5-0.1-3.5c0-0.5-0.2-0.5-0.7-0.5c-0.8-0.1-1.7-0.3-2.5-0.4c-1.3-0.1-2.5-0.3-3.9-0.1c-1.5,0.1-2.9,0.4-4.4,0.5
		c-0.6,0.1-0.2,2.9-0.2,3.4c-0.1,1.6,0.1,3.3-0.1,4.9c-0.1,1.5-0.1,3-0.1,4.5c0,1.6-0.1,3.1-0.1,4.7c0,3,0,5.9-0.2,8.9
		c-0.1,2.7,0.1,5.6-0.3,8.3c-0.2,1.3-0.1,2.7-0.2,4c-0.1,1.2,0,2.6-0.3,3.8c-0.2,0.9-0.4,1.2-1.4,1.5c-1.3,0.4-2.7,0.4-4,0.6
		c-2.8,0.4-5.8,0.4-8.7,0.4c-1.4,0-2.8,0-4.2,0c-1.5,0-3.1,0-4.6-0.2c-2.7-0.3-5.4-0.2-8.1-0.5c-1.2-0.2-2.3-0.4-3.4-0.6
		c-0.5-0.1-1-0.4-1.4-0.6c-0.2-0.3-0.1-0.8-0.2-1.1c-0.3-1,0.1-2.2-0.3-3.2c0-1.5,0-3,0-4.5c0-3,0.1-6,0.1-9
		c0-5.8,0.5-11.6,0.5-17.5c0-1.4,0.2-2.7,0.2-4.1c0-1.5,0-3,0.2-4.6c0.3-3,0.4-6,0.4-9c0.1-3,0.4-6.1,0.5-9.1c0.1-3,0.2-6,0.6-8.9
		c0.2-1.4,0.2-2.8,0.2-4.2c0-1.5,0.3-3,0.3-4.5c0.1-2.7,0.5-5.4,0.6-8.1c0.1-2.7,0.6-5.3,0.7-8c0-1.3,0.3-2.6,0.4-4
		c0-1.3,0.2-2.6,0.4-3.9c0.2-1.2,0.3-2.4,0.5-3.6c0-1.2,0.4-2.3,0.5-3.5c0.1-1,0.7-1.9,0.7-2.9c0.4-0.4,0.6-0.8,1.3-1
		c0.7-0.2,1.3-0.4,2-0.6c2.6-0.7,5.4-0.5,8-0.8c2.8-0.3,5.7,0,8.5,0.2c2.7,0.1,5.2,0.6,7.8,1.2c0.6,0.1,1.1,0.6,1.5,1
		c0,0.5,0.2,1.1,0.3,1.7c0.2,1.3,0.2,2.6,0.2,3.9c0.4,9.3,0.9,18.6,0.9,27.9c0,4.7,0.3,9.3,0.3,14c0,1.2,0,2.4,0,3.6
		c0,0.4,0.1,0.8,0.1,1.2c-0.2,0.2,0.7,0.2,0.8,0.2c1.1,0,2.3,0.1,3.4,0.2C95.9,477.5,97,477.3,98.1,477.3
		C98.7,477.3,97.5,477.3,98.1,477.3z"/>
	<path fill="#FFFFFF" d="M162.9,538.4c-0.3-0.5-0.4-1.4-0.4-2c0-1.1-0.2-2.2-0.3-3.3c-0.2-2.4-0.1-5-0.4-7.4
		c-0.2-1.3-0.1-2.6-0.1-3.9c0-1.4-0.1-2.9-0.1-4.3c0-1.2,0-2.6-0.1-3.8c-0.1-1.4,0-2.8-0.1-4.2c-0.1-1.3,0-2.7,0-4
		c0-1.5-0.1-3-0.1-4.5c0-3-0.2-5.9-0.2-8.9c0-5.6-0.2-11.2-0.2-16.8c0-5.9-0.2-11.7-0.2-17.6c0-5.4,0-10.8,0-16.2
		c0-5.2,0-10.3,0-15.5c0-1,0.1-2.1,0.1-3.1c0-0.3,0.1-0.6,0.1-1c0-0.3,1.3-0.6,1.5-0.6c2.7-0.5,5.6-0.7,8.3-0.7
		c2.8,0,5.6-0.1,8.4,0.3c1.2,0.2,2.3,0.2,3.5,0.7c1,0.4,1.5,2,1.8,2.9c0.3,1.1,0.8,2.2,1,3.3c0.3,1.3,0.6,2.7,0.9,4
		c0.5,2.7,1,5.5,1.4,8.3c0.7,5.3,1.3,10.6,2,15.8c0.6,4.7,1.2,9.4,1.5,14.1c0.1,0.8,0.1,1.6,0.2,2.3c0.1,0.7,0.2,0.5,0.7,0.1
		c1.2-1.1,2.3-2.3,3.7-3c1.7-0.9,3.6-1.6,5.5-2.1c2.5-0.7,5.5-1.1,8.1-0.8c1.3,0.2,2.5,0.3,3.7,0.5c1.3,0.2,2.6,0.7,3.8,1.2
		c2.5,0.8,4.7,2.5,6.7,4.2c4.4,3.8,6.8,9.6,8.7,14.9c1.8,5,2.2,10.3,2.9,15.4c0.3,2.5,0.4,5.2,0.4,7.7c0,2.6,0.1,5.4-0.3,8
		c0,2.7-0.4,5.4-0.9,8.1c-0.4,2.5-0.8,4.9-1.5,7.3c-0.3,1-0.6,2.4-1.3,3.1c-0.6,1.1-1.9,1.3-3,1.3c-2.6,0.5-5.5,0.3-8.1,0.4
		c-5.2,0.1-10.5,0.3-15.7-0.5c-0.6-0.1-1.3-0.1-1.9-0.3c-0.5-0.1-0.3-0.3-0.5-0.8c-0.1-0.5,0.1-1.2,0.1-1.7c0.1-0.7,0.1-1.3,0.3-2
		c0.5-2.6,0.9-5.3,1.3-7.9c0.5-2.6,0.9-5.3,1.3-7.9c0.3-2.5,0.7-5.2,0.7-7.7c0-5.2,0.6-11.2-2.7-15.6c-1.4-1.8-4.7-3.6-6.7-1.9
		c-1,0.8-1.3,2-1.8,3.1c-0.2,1.3-0.6,2.5-0.7,3.7c-0.7,5.4-0.4,10.8-0.4,16.2c0,5.4,0.9,10.8,0.9,16.2c0,1.2,0.1,2.3,0.1,3.5
		c0,0.6,0,1.1,0,1.7c-0.1,0.1-0.1,0.3-0.1,0.5c-0.1,0.2-0.5,0.3-0.7,0.4c-1,0.4-2.3,0.5-3.4,0.7c-1.4,0.2-2.8,0.3-4.1,0.5
		c-2,0-4,0.3-5.9,0.4c-2.1,0.1-4.1,0.2-6.2,0.2c-1.9,0-3.9-0.1-5.8-0.1C166.5,539,164.6,539.2,162.9,538.4z"/>
</g>
</svg>
