<?xml version="1.0" encoding="utf-8"?>
<!-- Generator: Adobe Illustrator 18.0.0, SVG Export Plug-In . SVG Version: 6.00 Build 0)  -->
<!DOCTYPE svg PUBLIC "-//W3C//DTD SVG 1.0//EN" "http://www.w3.org/TR/2001/REC-SVG-20010904/DTD/svg10.dtd" [
	<!ENTITY ns_flows "http://ns.adobe.com/Flows/1.0/">
	<!ENTITY ns_extend "http://ns.adobe.com/Extensibility/1.0/">
	<!ENTITY ns_ai "http://ns.adobe.com/AdobeIllustrator/10.0/">
	<!ENTITY ns_graphs "http://ns.adobe.com/Graphs/1.0/">
]>
<svg version="1.0" id="Camada_1" xmlns:x="&ns_extend;" xmlns:i="&ns_ai;" xmlns:graph="&ns_graphs;"
	 xmlns="http://www.w3.org/2000/svg" xmlns:xlink="http://www.w3.org/1999/xlink" xmlns:a="http://ns.adobe.com/AdobeSVGViewerExtensions/3.0/"
	 x="0px" y="0px" viewBox="-31 357.8 356.7 349.3" enable-background="new -31 357.8 356.7 349.3" xml:space="preserve">
<image overflow="visible" width="2486" height="2479" xlink:href="../../banco de imagens/bot천es/butt 22.png"  transform="matrix(0.1336 0 0 0.1336 -20.9084 364.9676)">
</image>
<g>
	
		<image overflow="visible" width="2631" height="2500" xlink:href="../../banco de imagens/bot천es/butt 31.png"  transform="matrix(3.166667e-002 0 0 3.166667e-002 9.8384 573.1367)">
	</image>
	
		<image overflow="visible" width="2631" height="2500" xlink:href="../../banco de imagens/bot천es/butt 31.png"  transform="matrix(3.166667e-002 0 0 3.166667e-002 103.549 573.1367)">
	</image>
	
		<image overflow="visible" width="2631" height="2500" xlink:href="../../banco de imagens/bot천es/butt 31.png"  transform="matrix(3.166667e-002 0 0 3.166667e-002 197.2596 573.1367)">
	</image>
</g>
<g>
	<path d="M91.4,405.3c4.9,0.5,9.9,1.1,14.7,2.5c1.2,0.4,2.5,0.8,3.6,1.5c1.8,1.2,2.9,3.5,3.3,5.6c0.5,2.4,0.3,5,0.3,7.4
		c0.2,11.2,0.4,22.5,0.6,33.7c0.3,11.7,0.5,23.4,1.2,35.1c0.1,1.6,0.2,3.2,0.4,4.8c0.1,0.6,0.1,1.6,0.4,2.2c0.2,0.2,0.8,0.1,1,0.1
		c1-0.1,2-0.3,3-0.4c3.4-0.6,6.8-1.3,10.1-1.9c8-1.6,16-3.4,24-5c2.1-0.4,4.1-0.7,5.6,1.1c1.5,1.7,1.9,4.1,2.2,6.3
		c0.7,5.8,0.1,11.8-0.8,17.5c-0.4,2.9-0.9,5.8-1.6,8.7c-0.7,3-1.6,6.1-2.4,9.1c-0.8,2.6-1.4,5.5-2.7,7.9c-0.3,0.7-0.8,0.9-1.5,1
		c-1.3,0.3-2.6,0.5-3.9,0.6c-3.3,0.3-6.6,0.5-9.9,0.6c-8.8,0.4-17.6,0.6-26.3,0.6c-5.8,0-11.7,0.1-17.5,0.1
		c-5.6,0-11.2-0.2-16.8-0.2c-1.3,0-2.7-0.1-4-0.2c-0.6-0.1-1.3,0-1.9-0.1c-0.6-0.1-1.4-0.2-2-0.2c-0.5,0-2-0.1-2-0.8
		c0-1.1-0.3-2.2-0.3-3.3c0-2.8-0.3-5.6-0.3-8.4c0-2.7-0.1-5.4-0.1-8.2c0-11.5,0.1-23.1,0.1-34.6c0-5.9,0.2-11.9,0.2-17.8
		c0-2.9,0.2-5.9,0.2-8.8c0-2.9,0-5.8,0.2-8.7c0.2-2.8,0-5.6,0.2-8.5c0.2-2.9,0.3-6,0.3-8.9c0-2.8,0.4-5.6,0.4-8.3
		c0-2.7,0.3-5.4,0.3-8c0.4-2,0.4-4.2,0.7-6.2c0.2-1.3,0.4-2.7,0.8-4c0.2-0.9,0.5-2.1,1.1-2.8c1.5-1.6,4.7-1.5,6.7-1.6
		C83.2,404.5,87.3,404.8,91.4,405.3C101.2,406.2,81.5,404.3,91.4,405.3z"/>
	<path fill="#FFFFFF" d="M78.7,416.6c1.1-0.6,2.3-0.6,3.5-0.8c1.5-0.2,3.2-0.2,4.6,0c2.8,0,5.7,0.3,8.5,0.7c1.4,0.2,2.8,0.5,4.1,0.7
		c1.2,0.2,2.5,0.5,3.6,1.1c0.7,0.4,1,1.6,1.1,2.4c0.2,1.1,0.4,2.3,0.5,3.4c0.4,2.5,0.4,5,0.7,7.6c0.2,2.6,0.4,5.2,0.4,7.7
		c0,2.8,0.2,5.7,0.3,8.5c0.1,2.6,0.1,5.1,0.1,7.7c0,5.4,0.2,10.8,0.2,16.2c0,5.4,0.2,10.8,0.2,16.2c0,2.7,0.2,5.3,0.2,8
		c0,1.3,0.1,2.6,0.1,3.9c0,1.4,0,2.9,0.2,4.4c0.1,0.7,0,1.3,0,2c0,0.8-0.1,1,0.8,1c1.4,0,2.8-0.1,4.1-0.3c2.9-0.5,5.8-1,8.8-1.5
		c5.9-1,11.7-2.3,17.6-3.2c1.3-0.4,2.7-0.5,4-0.7c1.5,0,2.9-0.4,4.4-0.4c0.5,0,1.1,0.1,1.6,0.2c0.5,0.1,0.6,0.7,0.8,1.2
		c0.2,0.5,0.2,1.2,0.2,1.7c0,0.7,0.1,1.4,0.1,2c-0.3,2.7-0.3,5.5-0.7,8.2c-0.3,2.8-0.9,5.7-1.4,8.5c-0.5,2.7-1.1,5.4-1.7,8.1
		c-0.3,1-0.6,2.3-1.3,3.1c-0.6,0.5-2.2,0.5-3,0.5c-1.3,0-2.7,0.3-4,0.3c-1.5,0-3,0.2-4.5,0.2c-2.9,0.1-5.8,0.3-8.7,0.3
		c-5.8,0-11.5,0.3-17.3,0.3c-5.7,0-11.4-0.1-17.1-0.1c-2.9,0-5.8-0.1-8.7-0.3c-1.2-0.1-2.6-0.3-3.8-0.3c-0.8,0-1.1-0.6-1.1-1.3
		c0-0.9-0.1-2-0.2-2.9c-0.2-1.2-0.2-2.5-0.2-3.7c0-2.6-0.1-5.2-0.2-7.7c-0.2-5.4,0-10.9,0-16.3c0-5.8,0.1-11.7,0.1-17.5
		c0-5.8,0.3-11.5,0.3-17.3c0-4.8,0.3-9.6,0.3-14.5c0-4.5,0.4-8.9,0.4-13.4c0.1-1,0.1-2,0.1-3c0.1-1.1,0.2-2.3,0.2-3.5
		c0-2.2,0.3-4.4,0.3-6.5c0-1.1,0.2-2.2,0.2-3.3c0.2-0.9,0.1-1.9,0.2-2.8c0.1-0.9,0.1-1.7,0.3-2.6C78.1,418,78,417,78.7,416.6
		C79,416.5,78.6,416.7,78.7,416.6z"/>
	<g>
		<path d="M180.1,416c1-0.6,2.4-0.7,3.5-0.8c1.6-0.2,3.1-0.4,4.7-0.4c3-0.3,6.2-0.3,9.2-0.2c6.1,0.2,12.2,0.2,18.2,1.1
			c1,0.1,2.1,0.4,2.9,0.9c0.2,0.1,0.3,0.8,0.3,1c0.2,0.6,0.1,1.4,0.4,2c0,1.2,0.2,2.4,0.4,3.6c0.2,1.4,0.2,2.9,0.3,4.3
			c0.4,5.7,0.8,11.5,0.8,17.3c0,1.4,0.2,2.8,0.2,4.2c0,1.5,0.2,3,0.2,4.4c0,3.1,0.2,6.2,0.2,9.2c0,6.3,0.2,12.7,0.2,19
			c0,3-0.2,6-0.2,9c0,3,0.3,6.2-0.1,9.2c-0.2,1.5-0.1,3.1-0.1,4.6c0,1.5-0.2,3-0.2,4.5c0,2.8-0.3,5.7-0.3,8.5c0,1.4-0.2,2.8-0.2,4.3
			c-0.4,1.6-0.1,3.3-0.4,4.9c-0.2,1.4-0.1,2.8-0.3,4.1c-0.3,1.4-0.2,3-0.6,4.4c0,0.7-0.1,1.5-0.3,2.1c0,0.5-0.1,1.3-0.3,1.8
			c0,0.6-0.2,1.2-0.4,1.8c-0.1,0.6-0.6,1.3-0.6,1.9c-0.1,0.1-0.7,0.6-0.7,0.8c-0.5,0-1.1,0.2-1.6,0.3c-1.4,0.2-2.7,0.3-4.1,0.4
			c-6.2,0.2-12.4,0.6-18.6,0.6c-6.2-0.1-12.5,0-18.7-0.7c-1.3-0.1-2.6-0.3-3.8-0.5c-1.1-0.2-2.4-0.3-3.3-0.9c0-0.4-0.3-0.7-0.3-1.1
			c-0.3-0.4-0.3-1.3-0.3-1.8c0-0.5-0.2-1-0.2-1.5c0-0.7-0.2-1.4-0.2-2.1c0-1.4,0-2.8,0-4.3c0-1.4,0.2-2.8,0.2-4.2
			c0-3,0.1-6.1,0.5-9.1c0.2-1.4,0.2-2.8,0.2-4.2c0.3-1.4,0.3-3,0.5-4.4c0.2-2.7,0.3-5.4,0.7-8.1c0.2-1.3,0.3-2.6,0.4-3.9
			c0-1.4,0.3-2.9,0.3-4.3c0.5-2.8,0.5-5.6,0.9-8.3c0.2-1.4,0.3-2.7,0.5-4.1c0.2-1.5,0.4-2.9,0.5-4.4c0.3-2.8,0.7-5.6,1-8.4
			c0.2-2.7,0.6-5.5,1-8.2c0.5-2.6,0.6-5.3,1.1-7.9c0.2-1.3,0.3-2.6,0.6-4c0.1-0.7,0.1-1.4,0.2-2.1c0.2-0.8,0.3-1.6,0.4-2.4
			c0.1-1.4,0.5-2.7,0.5-4.1c0.2-0.8,0.3-1.5,0.4-2.3c0.1-0.9,0.4-1.8,0.5-2.7c0.1-1.4,0.6-2.8,0.7-4.3c0.1-1.4,0.5-2.9,0.7-4.3
			c0.3-1.4,0.5-2.8,0.8-4.2c0.1-0.6,0.2-1.2,0.3-1.8c0.2-0.6,0.2-1.7,0.6-2.2c0-0.4,0.3-0.8,0.3-1.2
			C179.6,416.6,179.8,416.2,180.1,416z"/>
	</g>
	<g>
		<g>
			<path fill="#FFFFFF" d="M184.5,425.2c0.9-0.8,2.4-0.7,3.5-0.9c1.5-0.2,3.1-0.2,4.6-0.3c3.1-0.2,6.3-0.1,9.4,0.2
				c1.4,0.1,2.8,0.2,4.2,0.4c1,0.1,2.9,0.2,3.5,1c0.5,0,0.9,5.9,0.9,6.5c0,1.3,0.2,2.7,0.2,4c0,1.4,0,2.9,0.2,4.3
				c0,2.8,0.2,5.7,0.2,8.5c0,5.7,0.3,11.4,0.3,17.2c0,5.8,0.1,11.6,0.1,17.3c0,5.7-0.2,11.3-0.2,17c0,2.8-0.2,5.5-0.2,8.3
				c0,2.9-0.1,5.9-0.4,8.8c-0.4,5.2-0.3,10.7-1.8,15.7c-0.3,1.2-1.6,1.2-2.7,1.3c-1.5,0.2-3,0.3-4.4,0.3c-2.9,0.1-5.8,0.2-8.6,0.3
				c-2.9,0.1-5.9,0-8.8-0.2c-1.4-0.1-2.9-0.2-4.3-0.4c-1.3-0.2-2.8-0.3-4-0.8c-0.6-0.5-0.8-1.6-0.8-2.5c0-1.4-0.2-2.8-0.2-4.3
				c0-2.8,0.1-5.5,0.1-8.3c0.2-1.2,0.2-2.6,0.2-3.9c0-1.5,0.2-3.1,0.2-4.6c0-1.5,0.1-3,0.3-4.4c0.2-1.5,0.1-2.9,0.3-4.4
				c0-2.8,0.6-5.5,0.6-8.3c0.4-2.8,0.7-5.7,0.7-8.5c0.2-1.4,0.3-2.8,0.4-4.2c0.1-1.5,0.4-3,0.4-4.5c0.3-2.8,0.8-5.8,0.8-8.7
				c0.7-5.6,0.9-11.3,1.8-16.9c0.4-2.9,0.6-5.8,1-8.7c0.5-2.7,0.4-5.6,1-8.2c0.4-1.6,0.3-3.4,0.8-5c0-0.5,0.2-1.6,0.4-2.1
				C184,426.1,184.2,425.4,184.5,425.2z"/>
		</g>
	</g>
</g>
</svg>
