<?xml version="1.0" encoding="utf-8"?>
<!-- Generator: Adobe Illustrator 18.0.0, SVG Export Plug-In . SVG Version: 6.00 Build 0)  -->
<!DOCTYPE svg PUBLIC "-//W3C//DTD SVG 1.0//EN" "http://www.w3.org/TR/2001/REC-SVG-20010904/DTD/svg10.dtd" [
	<!ENTITY ns_flows "http://ns.adobe.com/Flows/1.0/">
	<!ENTITY ns_extend "http://ns.adobe.com/Extensibility/1.0/">
	<!ENTITY ns_ai "http://ns.adobe.com/AdobeIllustrator/10.0/">
	<!ENTITY ns_graphs "http://ns.adobe.com/Graphs/1.0/">
]>
<svg version="1.0" id="Camada_1" xmlns:x="&ns_extend;" xmlns:i="&ns_ai;" xmlns:graph="&ns_graphs;"
	 xmlns="http://www.w3.org/2000/svg" xmlns:xlink="http://www.w3.org/1999/xlink" xmlns:a="http://ns.adobe.com/AdobeSVGViewerExtensions/3.0/"
	 x="0px" y="0px" viewBox="-31 357.8 356.7 349.3" enable-background="new -31 357.8 356.7 349.3" xml:space="preserve">
<image overflow="visible" width="2486" height="2479" xlink:href="../../banco de imagens/bot천es/butt 22.png"  transform="matrix(0.1336 0 0 0.1336 -20.9084 364.9676)">
</image>
<g>
	
		<image overflow="visible" width="2631" height="2500" xlink:href="../../banco de imagens/bot천es/butt 31.png"  transform="matrix(3.166667e-002 0 0 3.166667e-002 9.8384 573.1367)">
	</image>
	
		<image overflow="visible" width="2631" height="2500" xlink:href="../../banco de imagens/bot천es/butt 31.png"  transform="matrix(3.166667e-002 0 0 3.166667e-002 103.549 573.1367)">
	</image>
	
		<image overflow="visible" width="2631" height="2500" xlink:href="../../banco de imagens/bot천es/butt 31.png"  transform="matrix(3.166667e-002 0 0 3.166667e-002 197.2596 573.1367)">
	</image>
</g>
<g>
	<g>
		<path d="M8.8,550.2c0-2.1,0.3-4.3,0.8-6.3c0.3-1.1,0.4-2.2,0.6-3.3c0.3-1.3,0.5-2.6,0.8-4c1-5.7,2.7-11.2,3.8-16.8
			c0.6-3.1,1.4-6.1,2.1-9.2c0.7-2.9,1.3-5.8,2-8.6c0.8-2.9,1.4-5.8,2.1-8.7c0.7-2.9,1.5-5.8,2.2-8.7c2.7-11.7,5.7-23.3,8.8-35
			c1.5-5.7,2.9-11.5,4.5-17.2c0.8-2.7,1.5-5.5,2.2-8.2c0.7-2.5,1.3-5.1,2.2-7.5c0.2-0.6,0.3-1.2,0.6-1.8c0-0.4,0.4-0.7,0.4-1.1
			c0.1,0,0.5-0.4,0.5-0.4c0.2-0.1,0.5-0.2,0.8-0.3c0.7-0.1,1.4-0.3,2.1-0.4c2.8-0.2,5.7-0.4,8.5-0.4c3.1,0,6.1,0,9.1,0.1
			c2.8,0.1,5.6,0.5,8.4,0.6c1.1,0,2.9,0.2,3.9,0.7c0.6,0.3,0.7,0.9,0.9,1.5c0.2,0.7,0.5,1.3,0.6,2c0.6,2.8,1.3,5.5,1.9,8.3
			c1.2,5.7,2.4,11.4,3.4,17.2c0.7,4.1,1.3,8.3,2.3,12.3c0.4,1.9,0.8,3.9,1.1,5.8c0.1,0.9,0.3,1.9,0.4,2.8c0.1,0.7,0.4,1.4,0.4,2.1
			c0-0.3,0.1-0.7,0.3-0.9c0-0.5,0.1-1.2,0.3-1.7c0.3-1.4,0.6-2.7,0.8-4.1c0.5-2.9,1-5.9,1.7-8.8c1.4-5.8,2.3-11.8,3.7-17.6
			c0.7-3,1.4-5.9,2.1-8.9c0.2-1.3,0.5-2.7,1-3.9c0.4-1.3,0.7-2.7,1.2-4c0.1-0.4,0.8-2.8,1.3-2.8c0.3-0.3,1.3-0.1,1.8-0.1
			c0.8-0.1,1.5-0.1,2.3-0.2c1.3-0.2,2.7-0.2,4-0.2c1.5-0.2,3.1-0.2,4.6-0.2c3.1,0,6.2-0.2,9.3-0.2c2.8,0,5.7,0.2,8.5,0.2
			c1,0.2,2,0.2,2.8,0.9c0,0.4,0.4,0.9,0.5,1.3c0.2,0.7,0.7,1.5,0.7,2.2c0.3,1.2,0.8,2.3,1.1,3.4c0.3,1.2,0.6,2.5,1.1,3.7
			c0.6,2.7,1.3,5.6,2.3,8.3c0.2,1.3,0.6,2.6,1,3.8c0.4,1.5,0.8,2.9,1.2,4.4c0.9,3,1.6,6.1,2.4,9.1c0.8,2.8,1.4,5.7,2.2,8.5
			c2.9,11.5,5.8,23.1,8.6,34.7c1.4,5.7,2.8,11.4,4.2,17.1c0.7,3,1.3,6.1,2.2,9.1c0.2,1.4,0.6,2.9,0.9,4.3c0.3,1.4,0.6,2.9,1.1,4.3
			c0.2,1.3,0.5,2.6,0.8,3.8c0.4,1.5,0.6,3,1,4.5c0.6,2.4,1.1,4.9,1.5,7.4c0.4,2.2,1.1,4.4,1.1,6.7c0,0.4-2.5,0.7-2.9,0.8
			c-1.4,0-3,0.1-4.4,0.4c-1.3,0-2.6,0.1-3.9,0.1c-1.5,0.2-3,0-4.5,0.2c-3.1,0.3-6.3,0.1-9.4,0.1c-3,0-5.9-0.2-8.9-0.2
			c-1.3,0-2.6-0.1-3.8-0.2c-1.4-0.1-2.9-0.1-4.3-0.3c-0.6-0.1-3.1-0.2-3.1-1c-0.7-0.7-0.9-2.3-1.2-3.2c-0.4-1.2-0.7-2.6-1-3.9
			c-0.4-1.4-0.7-2.9-1-4.4c-0.5-3-1.2-6-1.9-9c-0.6-2.8-1.3-5.7-1.7-8.6c-0.2-1.3-0.5-2.7-0.8-4c-0.3-1.4-0.6-2.8-0.8-4.2
			c-0.5-3-1.2-5.9-1.6-8.9c-0.4-1.5-0.5-3-0.8-4.4c-0.3-1.4-0.5-2.8-0.7-4.2c-0.2-1.3-0.5-2.5-0.8-3.8c0-1.1-0.7-2.3-0.5-3.3
			c-0.2,1-0.7,2-1,3c-0.5,1.4-0.9,2.8-1.4,4.2c-0.9,2.6-1.7,5.3-2.6,7.9c-2,5.6-3.9,11.3-5.9,16.9c-1,2.8-2.3,5.5-3.1,8.3
			c-0.4,1.3-0.9,2.6-1.4,3.8c-0.3,0.6-0.4,1.3-0.8,1.8c-0.4,0.5-0.8,1-1.3,1.4c-2.9,2.5-7.6,1.9-9.6-1.4c-0.4-0.7-0.6-1.5-1-2.2
			c-0.4-0.8-0.6-1.8-1-2.6c-0.8-1.9-1.6-3.8-2.4-5.7c-1.5-4-3-8.1-4.5-12.1c-1.4-3.8-2.9-7.7-4.3-11.5c-0.7-1.9-1.3-3.8-2-5.6
			c-0.3-0.9-0.6-1.8-1-2.7c-0.3-0.7-0.6-1.5-0.8-2.2c0.1,0.4-0.1,0.8-0.2,1.2c-0.1,0.6-0.1,1.2-0.2,1.7c-0.2,1.3-0.5,2.7-0.5,4
			c-0.1,1.3-0.5,2.6-0.5,3.9c0,1.5-0.4,3-0.5,4.5c-0.4,3-0.9,6-1.2,9c-0.7,3-0.7,6.1-1.3,9.1c-0.6,2.8-1,5.7-1.3,8.5
			c-0.4,3-1.1,6.1-1.6,9.1c-0.2,1.3-0.5,2.6-0.8,3.9c-0.3,1.3-0.5,2.8-1.1,4c-0.2,0.5-0.3,1.4-0.8,1.8c0,0.5-1.1,0.6-1.4,0.7
			c-1.3,0.3-2.8,0.4-4.1,0.5c-6.7,0.6-13.3,0.6-20,0.6c-1.7,0-3.4,0.1-5.1,0c-1.7-0.1-3.4,0-5-0.2c-1.6,0-3.3-0.1-4.9-0.4
			C11.6,550.9,10.1,550.8,8.8,550.2z"/>
		<path fill="#FFFFFF" d="M18.5,540.6c0-0.4,0.1-0.9,0.2-1.2c0.2-1,0.5-1.9,0.7-2.9c0.9-3.6,1.8-7.1,2.7-10.7
			c2.8-11.3,5.7-22.6,8.5-34c3.1-12.5,6.3-25.1,9.4-37.6c2.1-8.5,4.2-16.9,6.4-25.4c0.1-0.5,0.4-3.3,1.1-3.3c5.3,0,10.7,0,16,0
			c2.4,0,4.8,0,7.3,0c0.9,0,0.9,0,1.1,0.9c1.1,3.8,2,7.7,3,11.5c3,12,6,24,8.9,36c0.7,2.7,1.3,5.4,2,8.1c2.2-8.2,4.4-16.4,6.6-24.6
			c2.7-10.1,5.5-20.3,8.2-30.4c0.2-0.6,0.1-1.1,0.7-1.1c2-0.1,4.1-0.1,6.1-0.1c6,0,12-0.1,18.1-0.1c0.2,0,2.7-0.1,2.7,0
			c0.1,0.5,0.2,1,0.3,1.5c0.6,2.8,1.2,5.6,1.9,8.5c2.3,10.6,4.7,21.2,7,31.8c2.8,12.8,5.6,25.5,8.5,38.3c2.1,9.6,4.2,19.2,6.3,28.7
			c0.4,2,0.9,4,1.3,6c-0.2,0.1-1,0-1.2,0c-1,0-2.1,0-3.1,0c-3.1,0-6.2,0-9.2,0c-3,0-6,0-9,0c-0.3,0-3.7,0.2-3.7,0
			c-0.6-2.2-1-4.5-1.6-6.7c-1.2-5.1-2.4-10.3-3.6-15.4c-2.8-12.3-5.6-24.6-8.5-36.9c-1-4.3-2-8.6-3-13c-3.1,8.1-6.2,16.2-9.3,24.4
			c-3.5,9.1-6.9,18.3-10.5,27.4c-0.9,2.3-3.1,5.2-6,4.4c-2.2-0.6-3.4-2.8-4.2-4.8c-1.3-3.7-2.6-7.4-3.9-11.1
			c-4-11.6-8.1-23.1-12.1-34.7c-0.8-2.2-1.5-4.3-2.3-6.5c-1.5,7.1-2.9,14.2-4.4,21.3c-2.6,12.4-5.2,24.9-7.8,37.3
			c-0.9,4.1-1.7,8.2-2.6,12.2c-0.2,0.8-0.3,1.6-0.5,2.3c-0.1,0.3-2.4,0.1-2.7,0.1c-5.2,0-10.4-0.1-15.5-0.1c-2.4,0-4.8-0.1-7.2-0.1
			c-0.7,0-1.5,0-2.2,0C19.2,540.6,18.7,540.7,18.5,540.6z"/>
	</g>
	<g>
		<path d="M237,547.8c-1,4.3-5.6,4.3-9.2,4.6c-3.1,0.2-6.3,0-9.4,0c-2.2,0-4.5,0-6.7-0.3c-1.6-0.2-3.2-0.5-4.7-1.2
			c-0.6-0.3-1.1-0.6-1.3-1.2c-0.3-0.7-0.5-1.1-1.1-0.5c-1,1-1.4,1.5-2.8,1.9c-1.4,0.3-2.9,0.5-4.4,0.7c-6.7,0.7-13.5,0.8-20.2,0.8
			c-3.1,0-6.3,0.3-9.4-0.1c-1.4,0-2.8,0-4.2-0.1c-1.4-0.1-2.9-0.4-4.3-0.4c-0.4-0.1-1.1-0.2-1.4-0.6c-0.2-0.5-0.3-1-0.6-1.4
			c0-1.3-0.4-2.7-0.4-4c-0.1-2.9-0.3-5.8-0.3-8.8c0-2.9,0-5.8,0-8.7c0-3.1,0.2-6.2,0.2-9.2c0-3,0.2-6,0.2-8.9c0-3.3,0.3-6.6,0.3-9.9
			c0-6,0.7-11.9,1-17.9c0.1-1.2,0.1-2.6,0.4-3.8c0-1.2,0.3-2.3,1.5-2.7c1.3-0.4,2.7-0.3,4-0.5c1.5,0,3.1-0.2,4.6-0.2
			c5.1,0,10.1-0.1,15.2,0.1c3,0.1,6,0.2,9,0.6c0.7,0.1,1.6,0.2,2.3,0.6c1.8,1,2.7,2.7,3.5,4.5c0.5-1.2,1.4-2.1,2.4-2.9
			c3-2.3,6.9-3.1,10.6-3.3c6.4-0.3,13,1.6,15.6,7.9c0,0.1,0.2,0.6,0.3,0.6c1.8-6.5,9.6-8.8,15.5-9.7c2.1-0.3,4.2-0.5,6.4-0.6
			c4-0.1,8.2,1.2,11.9,2.9c2.3,1.1,4.7,2.6,6.6,4.3c2.1,1.8,3.7,3.9,5.4,6c2.9,4.8,5,10,6.2,15.5c1.2,5.5,1.7,11.1,1.7,16.7
			c0,2.9-0.1,5.8-0.4,8.6c-0.2,1.5-0.3,3-0.5,4.5c-0.2,1.5-0.3,3.1-0.8,4.5c-0.5,2.8-1.3,5.5-2,8.3c-0.5,1.1-0.6,2.5-1.3,3.5
			c-0.3,1.1-1,2.5-1.8,3.3c-0.5,1-2.4,0.9-3.3,1c-1.5,0.1-3.1,0.2-4.6,0.2c-3.1,0-6.3,0-9.4-0.1c-5.3-0.3-10.7,0-15.9-1
			c-1.1-0.2-2.7-0.4-3.5-1.3c-0.5-0.6-0.1-1.6-0.1-2.3c0-0.2,0-0.9-0.3-1C237.3,546.3,237,547.6,237,547.8
			C236.3,550.8,237.7,544.7,237,547.8z"/>
	</g>
	<g>
		<path fill="#FFFFFF" d="M233.6,506.9c-0.1,0.5,0.2,1,0.3,1.5c0.1,0.7,0.1,1.3,0.3,2c0.3,1.4,0.3,3,0.4,4.4
			c0.3,2.8,0.1,5.6,0.1,8.4c-0.3,2.7-0.2,5.6-0.5,8.3c-0.4,2.8-0.7,5.7-1.3,8.5c-0.2,0.9-0.4,2.2-1,2.9c-0.7,1-2.6,0.9-3.7,0.9
			c-3,0.1-6,0.1-9,0.1c-1.3,0-2.7-0.1-4-0.2c-0.8-0.1-2.7,0-2-1.3c0-1.1,0.3-2.1,0.4-3.2c0.1-1.2,0.3-2.5,0.5-3.7
			c0-1.4,0.4-2.7,0.4-4c0.3-1.6,0.3-3.2,0.5-4.8c0.3-3.2,0.2-6.4,0.2-9.5c0-2.7-0.3-5.7-1.3-8.2c-0.5-2.4-2.6-5-5.1-5.3
			c-2.5-0.3-4.9,0.7-6.7,2.4c-1.9,1.9-2.6,4.8-3.4,7.3c-0.8,2.6-0.9,5.5-1.1,8.2c-0.3,2.8-0.2,5.7-0.2,8.5c0.3,2.8,0.1,5.7,0.4,8.5
			c0.1,1.2,0.1,2.4,0.1,3.6c0.2,0.5,0,0.9,0,1.4c-0.2,0.3-1.2,0.2-1.5,0.2c-2.8,0.4-5.8,0.1-8.6,0.1c-2.9,0-5.8-0.1-8.7-0.2
			c-1.3,0-2.6-0.2-3.9-0.3c-0.4,0-1.1-0.1-1.4-0.4c-0.3-0.6-0.3-1.1-0.5-1.7c-0.3-1.1-0.3-2.4-0.3-3.5c0-1.6-0.2-3.2-0.2-4.8
			c0-2.8,0-5.7,0-8.5c0.4-2.9-0.1-5.9,0.2-8.8c0.3-2.9,0-5.9,0.3-8.9c0.2-3,0.2-6,0.4-9c0.2-2.9,0.4-5.7,0.6-8.6
			c0.1-1,0.1-2.6,0.6-3.5c0-0.7,3.1-0.8,3.5-0.8c3-0.3,6-0.2,8.9-0.2c1.4,0,2.8,0.1,4.1,0.3c0.7,0,1.5,0.1,2.2,0.3
			c0.5,0,1.4,0.1,1.8,0.5c1.3,1.3,1.1,3,1.2,4.6c0.1,0.7,0.1,1.5,0.2,2.2c0.2,1.1,0.6-0.3,0.9-0.7c1.6-2.2,3.9-4.1,6.3-5.4
			c2.2-1.2,4.8-2.3,7.4-2.3c2.3-0.5,5.5,0.1,7.6,1.1c2.3,1.1,5,2.5,6.6,4.6c0.5,0.6,0.9,1.2,1.4,1.8c0.4,0.5,0.6,1,1,0.4
			c0.9-1.2,1.6-2.5,2.7-3.7c3.7-3.8,8.6-5.4,13.8-5.4c1.3,0.2,2.5,0.3,3.8,0.5c1.3,0.3,2.7,0.7,3.9,1.2c2.5,1.1,4.8,2.5,6.8,4.4
			c4.1,3.8,6.2,8.9,7.7,14.1c1.5,5.2,1.8,10.6,1.8,15.9c0,2.9-0.3,6-0.8,8.9c-0.2,1.4-0.5,2.8-0.8,4.2c-0.2,1.4-0.7,2.6-1,4
			c-0.2,1-0.6,2.1-1,3.1c-0.4,1-0.8,2.4-1.6,3.2c-0.5,1-1.9,0.9-2.9,1c-1.5,0.1-3,0.2-4.6,0.2c-3,0-5.9-0.1-8.9-0.2
			c-0.6,0-1.2-0.1-1.8-0.2c-0.2,0-1.3-0.1-0.9-0.5c0-1.1,0.4-2.2,0.6-3.3c1.2-5.3,2.1-10.7,2.8-16.1c0-1.3,0.3-2.5,0.3-3.8
			c0-1.6,0-3.2,0-4.8c-0.4-2.8-0.6-5.6-2.2-8.1c-1.3-2-3.3-3.2-5.7-3.2c-1.3,0-2.5,0.2-3.7,0.8c-0.6,0.3-1,0.6-1.5,1.1
			C234.5,505.9,233.8,506.3,233.6,506.9C233.6,507.1,233.7,506.6,233.6,506.9z"/>
	</g>
</g>
</svg>
