<?xml version="1.0" encoding="utf-8"?>
<!-- Generator: Adobe Illustrator 18.0.0, SVG Export Plug-In . SVG Version: 6.00 Build 0)  -->
<!DOCTYPE svg PUBLIC "-//W3C//DTD SVG 1.0//EN" "http://www.w3.org/TR/2001/REC-SVG-20010904/DTD/svg10.dtd" [
	<!ENTITY ns_flows "http://ns.adobe.com/Flows/1.0/">
	<!ENTITY ns_extend "http://ns.adobe.com/Extensibility/1.0/">
	<!ENTITY ns_ai "http://ns.adobe.com/AdobeIllustrator/10.0/">
	<!ENTITY ns_graphs "http://ns.adobe.com/Graphs/1.0/">
]>
<svg version="1.0" id="Camada_1" xmlns:x="&ns_extend;" xmlns:i="&ns_ai;" xmlns:graph="&ns_graphs;"
	 xmlns="http://www.w3.org/2000/svg" xmlns:xlink="http://www.w3.org/1999/xlink" xmlns:a="http://ns.adobe.com/AdobeSVGViewerExtensions/3.0/"
	 x="0px" y="0px" viewBox="-31 357.8 356.7 349.3" enable-background="new -31 357.8 356.7 349.3" xml:space="preserve">
<image overflow="visible" width="2486" height="2479" xlink:href="../../banco de imagens/bot천es/butt 22.png"  transform="matrix(0.1336 0 0 0.1336 -20.9084 364.9676)">
</image>
<g>
	
		<image overflow="visible" width="2631" height="2500" xlink:href="../../banco de imagens/bot천es/butt 31.png"  transform="matrix(3.166667e-002 0 0 3.166667e-002 9.8384 573.1367)">
	</image>
	
		<image overflow="visible" width="2631" height="2500" xlink:href="../../banco de imagens/bot천es/butt 31.png"  transform="matrix(3.166667e-002 0 0 3.166667e-002 103.549 573.1367)">
	</image>
	
		<image overflow="visible" width="2631" height="2500" xlink:href="../../banco de imagens/bot천es/butt 31.png"  transform="matrix(3.166667e-002 0 0 3.166667e-002 197.2596 573.1367)">
	</image>
</g>
<g>
	<g>
		<path d="M40.5,550.5c0-5.2,0.5-10.4,0.5-15.6c0-2.6,0.2-5.3,0.2-7.9c0-3,0.2-6.1,0.3-9.1c0.1-2.8,0.3-5.6,0.3-8.4
			c0-2.9,0-5.9,0.4-8.7c0-3,0.4-6,0.4-9.1c0-3,0.1-6.1,0.3-9.1c0.4-6.1,0.4-12.1,0.8-18.2c0.1-1.4,0.1-2.8,0.2-4.2
			c0.1-1.5,0.2-3,0.3-4.5c0.1-2.8,0.4-5.6,0.4-8.4c0.4-3,0.2-6.1,0.6-9.1c0-2.7,0.5-5.4,0.5-8.1c0.2-1.4,0.4-2.9,0.4-4.2
			c0.3-1.2,0.3-2.6,0.4-3.9c0.1-1.1,0.2-2.3,0.4-3.3c0.2-1.3,0.2-2.5,0.6-3.7c0.1-0.3,0.1-0.7,0.4-0.9c0.5-0.3,1.1-0.5,1.6-0.6
			c1.4-0.3,2.7-0.4,4.1-0.6c3-0.4,6.1-0.4,9.1-0.4c3,0,5.9,0.2,8.9,0.2c1.4,0,2.8,0.1,4.2,0.3c1.4,0.2,2.9,0.3,4.3,0.6
			c1.3,0.3,2.3,0.3,2.9,1.6c0.7,1.1,1.4,2.2,1.9,3.4c0.8,1.1,1.3,2.5,1.9,3.7c0.7,1.4,1.4,2.9,2,4.3c2.4,5.2,4.6,10.6,7.1,15.8
			c1.4,3,2.5,6.3,4,9.3c1.3,2.9,2.4,6,3.8,8.9c0.7,1.4,1.3,2.9,1.9,4.4c0.6,1.5,1.3,3.1,1.9,4.6c0.6,1.5,1.2,2.9,1.8,4.3
			c0.3,0.7,0.7,1.4,0.8,2.1c0.2,0.5,0.4,1.5,0.8,1.9c0-5.3,0.4-10.5,0.5-15.8c0.1-2.9,0.4-5.7,0.4-8.6c0-3,0.4-6,0.4-9
			c0-5.9,0.8-11.9,1-17.8c0.1-2.7,0.3-5.5,0.7-8.2c0.2-1.2,0.1-2.5,0.5-3.6c0-1.1,2.3-1.1,3.1-1.1c2.8-0.2,5.6-0.4,8.4-0.4
			c2.9,0,5.9-0.1,8.8,0c2.9,0.2,5.9,0.2,8.8,0.7c0.4,0.1,3,0.4,3,0.9c0,0.1,0.2,0.5,0.2,0.5c0,0.3,0,0.4,0.1,0.7
			c0.2,0.6,0,1.4,0.3,2c0,2.7,0.6,5.5,0.6,8.2c0,2.8,0.4,5.6,0.5,8.4c0.1,2.8,0.1,5.7,0.4,8.6c0.2,1.4,0.1,2.9,0.2,4.4
			c0,1.5,0.1,3.1,0.2,4.6c0.2,2.8,0.3,5.6,0.3,8.4c0,2.9,0.3,5.9,0.4,8.8c0.1,3,0.2,6,0.2,9.1c0.2,1.4,0.1,2.9,0.1,4.4
			c0.2,1.5,0.2,3.2,0.2,4.7c0,3,0.2,6,0.2,9c0,2.9,0,5.9,0.2,8.8c0.2,2.9,0.1,5.8,0.1,8.7c0,1.4,0.1,2.8,0.1,4.3
			c0,1.6-0.1,3.2,0,4.8c0.2,2.8,0.1,5.7,0.1,8.5c0,2.7,0.1,5.5,0.1,8.2c0,2.9-0.2,5.9-0.2,8.8c0,0.6,0.1,1.8-0.2,2.3
			c-0.8,0.8-2.6,0.8-3.7,0.8c-3,0.2-5.9,0.4-8.8,0.4c-2.9,0.3-5.9,0.1-8.9,0.1c-2.9,0-5.8-0.2-8.6-0.2c-2.9,0-5.7-0.3-8.6-0.3
			c-1.3,0-2.6-0.1-3.8-0.3c-0.5-0.1-1.2-0.1-1.7-0.3c-0.7,0-0.7-0.7-1.1-1.1c-0.4-1.1-0.9-2.3-1.4-3.4c-0.6-1.4-1-2.8-1.6-4.2
			c-1.1-2.5-2-5.2-2.8-7.8c-0.8-2.7-1.9-5.4-2.8-8.2c-3.9-11.3-7.6-22.6-11.4-33.9c-0.4-1-0.9-2.3-1.1-3.4c-0.3-1-0.7-2-1-2.9
			c0,5.2,0.6,10.4,0.6,15.7c0,2.9,0.1,5.9,0.3,8.9c0.1,3.1,0.1,6.1,0.3,9.2c0.3,6,0.2,12,0.2,17.9c0,2.9-0.1,5.8-0.1,8.7
			c0,0.7-0.1,1.3-0.1,2c-0.1,0.4,0,1.3-0.4,1.6c0,0.8-2.7,0.8-3.2,0.8c-1.6,0.3-3.3,0.1-4.9,0.3c-1.7,0.2-3.4,0.1-5.2,0.1
			c-1.8,0-3.6,0.1-5.4,0.1c-1.7,0-3.3-0.1-5-0.1c-3.7,0-7.4-0.1-11.1-0.1c-1.7,0-3.4-0.1-5.1-0.1c-0.7,0-1.4,0-2.2,0
			C41.5,550.8,40.5,550.7,40.5,550.5z"/>
		<path fill="#FFFFFF" d="M75.9,541.1c-0.3,0.1-0.8,0-1.2,0c-1,0-2,0-3,0c-3,0-6.1,0.1-9.1,0.1c-4.7,0-9.5,0.1-14.2,0.1
			c0,0,0,0-0.1,0c0.1-5.1,0.5-10.2,0.8-15.3c0.6-11.7,1.2-23.5,1.8-35.2c0.7-12.8,1.3-25.6,2-38.5c0.4-8.3,0.9-16.7,1.3-25
			c0-0.7,0.1-1.5,0.1-2.2c0-0.6,0.7-0.3,1.3-0.3c5.8,0,11.6-0.1,17.3-0.1c1,0,2,0,3,0c0.1,0,0.8-0.1,0.8,0c0.3,0.6,0.6,1.2,0.9,1.8
			c1.8,3.5,3.6,7,5.3,10.5c5.7,11.3,11.5,22.5,17.2,33.8c3.9,7.6,7.7,15.2,11.7,22.8c0.1,0.1,0.1,0.3,0.2,0.4
			c0.9-7.5,1.8-15.1,2.6-22.6c1.4-12.3,2.9-24.6,4.3-36.9c0.4-3.1,0.7-6.2,1.1-9.3c0,0,0-0.4,0.1-0.4c0.6,0,1.2,0,1.8,0
			c3,0.1,6,0.2,8.9,0.3c2.5,0.1,4.9,0.2,7.4,0.3c0.6,0,0.5,0.3,0.5,0.8c0.1,2.4,0.1,4.7,0.2,7.1c0.3,10.3,0.6,20.7,0.9,31
			c0.4,13.1,0.7,26.2,1.1,39.3c0.3,10.2,0.6,20.4,0.8,30.7c0.1,2.3,0.1,4.6,0.2,6.8c0,0.5,0.1,0.5-0.5,0.5c-2,0-4.1,0-6.1,0
			c-6.2,0-12.4,0.1-18.6,0.1c-1.4,0-2.9,0.1-4.3,0c-0.2,0-0.6-1.2-0.7-1.3c-3.9-8.5-7.7-17.2-11.5-25.7
			c-5.1-11.4-10.1-22.9-15.2-34.3c-1.8-4-3.5-8-5.3-12.1"/>
	</g>
	<g>
		<path d="M167.6,551.2c-0.1,0-0.5-0.9-0.6-1c-0.2-0.5-0.3-1.2-0.3-1.7c-0.1-1.4-0.4-2.9-0.4-4.4c0-2.9-0.2-5.9-0.2-8.9
			c-0.4-3-0.1-6.1-0.1-9.1c0-1.4,0.1-2.8,0.1-4.2c0-1.5-0.1-3.1,0-4.6c0.2-3,0-6,0.2-9c0.2-2.9,0.3-5.8,0.3-8.7
			c0-2.7,0.2-5.5,0.3-8.2c0.1-1.4,0.2-2.7,0.2-4.1c0-1.6,0.3-3.3,0.3-4.9c0.4-2.5,0.3-5.1,0.7-7.6c0.1-0.5,0.1-1.1,0.6-1.4
			c0.5-0.2,1.1-0.4,1.6-0.4c1.4-0.1,2.7-0.2,4.1-0.3c2.9-0.2,5.8,0,8.7,0c2.7,0.1,5.6,0.2,8.3,0.6c3.8,0.5,8.4,0.9,10.7,4.4
			c0.7,1.1,1.2,2.4,1.5,3.7c0,0.2,0.2,2,0.3,2c0,0,1.2-2.3,1.3-2.5c1.2-1.9,2.7-3.6,4.6-4.8c2.8-1.9,6.1-2.9,9.5-3.1
			c4-0.3,8.8-0.1,12.4,2c5.6,3.3,9,9.7,11.3,15.6c1.2,3,2.2,6,3.1,9.2c0.4,1.3,0.7,2.7,0.8,4.1c0.2,1.5,0.6,2.9,0.6,4.3
			c0.1,1.4,0.4,2.7,0.4,4.1c0.2,1.4,0.1,2.9,0.2,4.3c0.2,2.9-0.3,5.9-0.3,8.8c-0.2,1.5-0.3,3.1-0.6,4.7c-0.1,0.7-0.1,1.4-0.2,2.1
			c-0.1,0.7-0.3,1.4-0.4,2.2c-0.5,2.8-1,5.6-1.9,8.3c-0.4,1.3-0.8,2.6-1.3,3.8c-0.4,1.3-1.2,2.4-1.6,3.6c-0.4,0.4-0.7,0.8-1.1,1.2
			c-0.3,0.3-1.3,0.4-1.7,0.4c-1.5,0.1-3,0.1-4.5,0.3c-3.1,0.3-6.3,0-9.4,0c-2.7,0-5.5-0.2-8.2-0.3c-1.7-0.1-3.5-0.2-5.2-0.5
			c-1.1-0.2-2.5-0.3-3.5-0.9c-1-0.6-0.6-3-0.6-4c0.2-6.2,1.1-12.5,1.9-18.6c0.4-2.8,0.7-5.6,1.1-8.4c0.2-1.2,0.6-2.7,0.4-3.9
			c-0.3-1.5-1.9-2.3-3-0.9c-0.4,0.5-0.4,1.1-0.4,1.7c-0.1,1.9-0.1,3.8-0.2,5.7c-0.2,6.3-0.4,12.7-0.7,19c-0.1,2.4-0.2,4.9-0.3,7.3
			c0,0.6-0.1,1.2-0.1,1.8c0,0.5-0.6,0.5-1,0.6c-2.3,0.5-4.8,0.6-7.1,0.7c-2.2,0.1-4.4,0.2-6.6,0.2c-3.6,0.1-7.1,0.4-10.7,0.4
			c-2.3,0-4.6,0-7,0C171.9,551.9,169.6,551.9,167.6,551.2C167.5,551.2,167.8,551.3,167.6,551.2z"/>
	</g>
	<g>
		<path fill="#FFFFFF" d="M178.3,541.9c-0.3,0-0.5-1.3-0.6-1.5c-0.2-0.6-0.1-1.2-0.2-1.7c0-1.4-0.2-2.8-0.2-4.2
			c0-2.8-0.2-5.6-0.2-8.4c0-5.8,0.3-11.7,0.3-17.5c0-5.8,0.5-11.7,0.8-17.5c0.1-1.2,0.1-2.5,0.3-3.7c0.1-0.6,0.2-1.2,0.2-1.8
			c0-0.5,0.3-1,0.3-1.4c1.1-0.5,2.5-0.6,3.7-0.6c1.4,0,2.9-0.1,4.3-0.1c2.9,0,6,0.1,8.9,0.5c1.2,0.2,2.6,0.1,3.7,0.6
			c1,0.4,1.7,1.4,1.9,2.5c0.3,1.4,0.1,2.9,0.4,4.3c0.1,0.5,0.7-0.5,0.8-0.6c0.4-0.6,0.8-1.2,1.3-1.7c1.7-1.9,4.1-3.3,6.5-4.3
			c2.2-0.9,5-1.4,7.4-1c2.5,0,5.2,1.1,7.4,2.4c2.4,1.4,4.6,3.5,6.2,5.8c2.9,4.3,5.1,9.5,5.8,14.7c0.4,2.6,0.8,5.2,0.8,7.8
			c0,1.2,0.2,2.5,0,3.7c-0.1,1.5-0.2,3-0.2,4.5c-0.4,3-0.5,6.1-1.3,9c-0.7,2.4-1.1,4.9-2.1,7.2c-0.4,0.8-0.7,2-1.4,2.6
			c-0.9,0.9-2.2,0.8-3.4,0.9c-2.9,0.3-5.8,0.1-8.7,0.1c-1.3,0-2.6-0.2-4-0.2c-0.6-0.1-1.2-0.1-1.7-0.2c-0.7-0.2-0.8-0.1-0.8-0.8
			c0-0.9,0.3-2,0.5-2.9c0.3-1.2,0.6-2.5,0.8-3.7c1-5.5,2.2-11,2.2-16.6c0-4.9-0.1-11.6-5.3-13.9c-2.2-1-5.2-0.5-6.9,1.2
			c-1.9,1.9-2.8,4.4-3.5,7c-1.2,4.2-1.3,8.9-1.3,13.2c0,2.1-0.2,4.3,0.1,6.3c0,2.3,0.2,4.6,0.2,6.8c0,0.8-0.1,1.7-0.1,2.5
			c0,0.6-2.1,0.7-2.5,0.7c-2.3,0.3-4.7,0.4-7.1,0.4c-2.4,0-4.8,0.2-7.2,0.2C182.5,542.1,180.3,542.5,178.3,541.9
			C178.2,541.9,178.4,541.9,178.3,541.9z"/>
	</g>
</g>
</svg>
