<?xml version="1.0" encoding="utf-8"?>
<!-- Generator: Adobe Illustrator 18.0.0, SVG Export Plug-In . SVG Version: 6.00 Build 0)  -->
<!DOCTYPE svg [
	<!ENTITY ns_flows "http://ns.adobe.com/Flows/1.0/">
	<!ENTITY ns_extend "http://ns.adobe.com/Extensibility/1.0/">
	<!ENTITY ns_ai "http://ns.adobe.com/AdobeIllustrator/10.0/">
	<!ENTITY ns_graphs "http://ns.adobe.com/Graphs/1.0/">
]>
<svg version="1.2" baseProfile="tiny" id="Camada_1" xmlns:x="&ns_extend;" xmlns:i="&ns_ai;" xmlns:graph="&ns_graphs;"
	 xmlns="http://www.w3.org/2000/svg" xmlns:xlink="http://www.w3.org/1999/xlink" xmlns:a="http://ns.adobe.com/AdobeSVGViewerExtensions/3.0/"
	 x="0px" y="0px" viewBox="-31 357.8 356.7 349.3" xml:space="preserve">
<image width="2486" height="2479" xlink:href="../../banco de imagens/botões/butt 22.png"  transform="matrix(0.1336 0 0 0.1336 -20.9084 364.9676)">
</image>
<g>
	<path fill="#080808" d="M187.3,483.9c6.5,5.1,8.9,13.2,9,21.2c0,3.4-0.3,6.8-0.8,10.2c-0.3,2.2-0.8,4.5-0.7,6.7
		c0.1,1.2,0.9,1.7,1.7,2.5c0.9,0.9,1.7,1.7,2.6,2.6c0.2,0.2,0.3,0.3,0.5,0.5c0,0,0.9-0.8,1-0.9c2.9-2.9,5-6.6,6.7-10.3
		c1.7-3.7,3-7.6,3.7-11.6c0.2-1.5,0.4-3,0.3-4.4c-0.1-1.5-0.8-2.8-1.5-4.1C205.6,488.6,195.9,483.9,187.3,483.9z"/>
	<path fill="#080808" d="M56.1,498.5c4.3-1.9,9.1-2.4,13.6-0.9c4,1.3,7.3,3.9,10.2,6.8c2.9,2.9,5.6,6.3,8.8,8.8
		c2.9,2.3,6.3,3.2,10,3.2c0-1.2-0.5-2.4-0.9-3.5c-0.6-1.8-1.2-3.6-1.9-5.3c-1.2-3.1-2.4-6.3-4-9.3c-3.5-6.5-9.5-11.3-17.1-11.3
		c-4.4,0-8.9,1.5-12.5,4C59.8,492.7,56.6,495.3,56.1,498.5z"/>
	<path fill="#080808" d="M218.7,559c-2.7,1.8-6.2,2.8-9.4,3.7c-3.4,0.9-7.4,2-10.9,1.1c-1.9-0.5-3.6-2-5.2-3.1
		c-2.2-1.4-4.4-2.8-6.7-3.8c-2.3-1-4.8-1.8-7.3-1.7c-0.6,0-1.2,0.1-1.8,0.2c-0.3,0.1-0.6,0.1-0.9,0.2c-0.5,0.1-0.3,0.3-0.2,0.6
		c0.3,1.2,0.7,2.4,1.1,3.6c1.7,4.6,4.5,8.8,8.2,12.1c3.6,3.2,8,5,12.8,5.3c9.4,0.6,19-7,20.2-16.4
		C218.6,560.3,218.7,559.7,218.7,559z"/>
	<path fill="#080808" d="M88.6,488.4c3.2,2.7,5.7,6,7.4,9.8c1.5,3.3,2.4,6.8,3.3,10.2c0.9,3.2,1.8,6.5,3.5,9.4
		c1.9,3.3,4.8,5.8,8.2,7.5c0-5.2-0.1-10.4,0.3-15.6c0.4-5.9,0.7-11.9-2.1-17.3c-1-1.9-3-3.5-4.8-4.6c-2-1.3-4.2-2.3-6.5-2.9
		c-2.5-0.7-5.2-1.1-7.8-1.2c-1.4,0-2.7,0-4.1,0.1c-0.3,0-0.7-0.1-0.7,0.3c0,0.2,0.1,0.4,0.1,0.6c0.2,0.5,0.5,1,0.8,1.4
		C86.9,487.1,87.7,487.8,88.6,488.4z"/>
	<path fill="#080808" d="M195.1,545.6c4.8-2.7,10-4.6,14.8-7.3c2-1.1,4-2.4,5.6-4c1.7-1.7,2.7-3.7,3.9-5.7
		c2.6-4.7,3.2-10.2,1.8-15.3c-1-3.9-3.1-7.8-6.3-10.3c-0.6-0.5-1.2-0.9-1.9-1.1c0.4,3.9,0,7.9-1.3,11.6c-1.1,3.1-2.9,5.9-5,8.4
		c-3.7,4.5-8.6,8.4-10.9,13.8C194.4,538.8,194.3,542.3,195.1,545.6z"/>
	<path fill="#080808" d="M10.2,525.4c0,0.6,0.5,1.3,0.8,1.7c0.7,1.1,1.4,2.1,2.2,3.1c2.3,3,4.9,5.8,7.6,8.5c3.1,3.1,6.4,6,10,8.5
		c3.2,2.2,7,4.3,10.9,5.2c3.7,0.8,8.9,1.1,12.2-1.2c-3-4.1-6.4-7.9-10-11.5c-3.2-3.2-6.6-6.2-10.3-8.9c-1.9-1.3-3.8-2.5-5.9-3.6
		c-2.2-1.1-4.6-2.2-7-2.9C17.2,523.3,13.5,523.8,10.2,525.4L10.2,525.4z"/>
	<path fill="#080808" d="M53.9,545.6c1.1,1.1,2.8,1.6,4.2,1.9c2.1,0.5,4.3,0.7,6.4,0.8c2.2,0.1,4.5,0,6.7-0.3
		c1.7-0.2,3.5-0.5,5.1-1.3c-3.5-2-6.3-5.1-9-8c-3-3.2-5.8-6.6-8.8-9.8c-1.2-1.2-2.4-2.5-3.8-3.5c-0.5-0.4-1-0.7-1.6-1
		c-0.7-0.3-1.6-0.2-2.3-0.3c-4.1-0.3-8.3-1.1-12.4-0.4c-1.3,0.2-2.6,0.6-3.6,1.6C42.1,531.2,47.4,539.1,53.9,545.6z"/>
	<path fill="#080808" d="M75.2,541.1c3.4,1.7,7.6,2.3,11.4,2.7c4.3,0.4,9.3,0.5,13.3-1.5c-8.7-3.6-14.8-11-21.9-17
		c-1.5-1.3-3.1-2.5-4.8-3.5c-0.8-0.4-1.5-0.8-2.3-1.2c-0.8-0.4-1.8-0.5-2.6-0.9c-3.5-1.6-8.8-0.9-12.1,1.2c-0.5,0.3-0.9,0.7-1.2,1.2
		c1.7,0.4,3.2,2,4.4,3.1c2,1.9,3.8,3.9,5.6,5.9c1.9,2.1,3.7,4.2,5.6,6.2C72,538.6,73.4,540.2,75.2,541.1
		C79.7,543.3,70.7,538.9,75.2,541.1z"/>
	<path fill="#080808" d="M114.4,545.6c4.6,1.8,9.3,2.9,13.7,5.2c2.6,1.4,5.2,2.9,7.9,3.9c1.3,0.5,2.7,0.8,3.9,1.4
		c1.3,0.6,2.7,1.2,4.1,1.7c2.3,0.8,5,1.5,7.3,0.7c0.5-0.2,0.9-0.6,1.4-0.6c0.5,0,1-0.1,1.5-0.2c1.2-0.3,2.3-0.7,3.3-1.2
		c1.6-0.8,3.4-1.9,4.6-3.4c0.1-0.2,0.3-0.4,0.4-0.6c0.2-0.4-0.7-0.6-1-0.7c-1.4-0.6-2.8-1.3-4.1-2c-7.8-4-15-9-23.4-11.8
		c-2.2-0.7-4.5-1.3-6.9-1.2c-2.2,0.1-3.8,1-5.7,2.1C119.1,540.3,114.4,542.3,114.4,545.6z"/>
	<path fill="#080808" d="M113.3,526.5c1.4,0.5,3,1.1,4.2,2c1.3,1,0.9,3.3,1.1,4.7c0.1,1,0.4,2,1,2.8c0.5,0.7,0.5,0.6,1.2,0.4
		c1.4-0.3,2.9-0.6,4.3-0.9c0.7-0.1,0.6-0.4,0.8-1.1c0.3-1.2,0.7-2.4,1-3.5c0.7-2.5,1.3-5,1.9-7.5c1-4.5,2-9.4,1.5-14
		c-0.5-4.3-3.2-8.3-6-11.4c-2.7-2.9-6.6-6.3-10.9-6.3c1,2,1.3,4.4,1.4,6.6c0.2,3,0,6-0.1,8.9C114.2,513.7,113.3,520.1,113.3,526.5z"
		/>
	<path fill="#080808" d="M274.7,542.2c-3.5-2.2-6.3-5.5-8.9-8.6c-3-3.5-5.8-7.2-8.9-10.6c-2.4-2.6-5.3-5.5-8.9-6.5
		c-2.2-0.6-4.3-1.1-6.6-1c-2,0-4,0.2-6,0.6c-0.7,0.1-1.4,0.3-2.1,0.4c1.6,1.6,2.8,3.9,4.1,5.7c2.3,3.3,4.5,6.6,7,9.8
		c2.4,3.1,4.9,6.1,7.8,8.6c0.6,0.5,1.2,0.9,1.8,1.3c1.1,0.7,2.5,1,3.8,1.4c2.5,0.6,5,0.9,7.6,0.7
		C268.6,543.7,271.6,542.8,274.7,542.2z"/>
	<path fill="#080808" d="M135.7,535.5c2.7,0,5.6,0.8,7.9,2.3c0.8,0.5,1.6,1.2,2.1,2c0.2,0.4,0.4,0.7,0.8,1c2.4,2.2,5.6,3.7,8.5,5
		c3.7,1.8,7.7,3.3,11.8,4c4.5,0.7,9.5-0.5,13.3-2.9c0.6-0.4,1.2-0.8,1.7-1.3c-8-4.3-14.4-10.9-22.4-15.1c-3.6-1.8-7.6-3.2-11.7-2.6
		C142.7,528.6,138.7,531.8,135.7,535.5z"/>
	<path fill="#080808" d="M164.9,552.3c-2.4,0-3.4,1.5-3.4,3.8c0,2.3,0,4.7,0,7c0,4.2,0.1,8.3,1.8,12.1c2.5,5.5,7.7,8.8,13.6,9.7
		c3.1,0.5,6.4,0.3,9.5-0.4c2.3-0.5,4.8-1.4,6.5-3.1c-8.3-1.5-15.1-7.4-18.7-14.9c-0.8-1.7-1.5-3.5-1.9-5.3c-0.2-0.9-0.4-1.8-0.5-2.7
		c-0.2-1.2-0.6-2.4-1.2-3.5c-0.6-1.2-1.4-2.4-2.7-2.8C166.8,552.1,165.8,552.3,164.9,552.3z"/>
	<path fill="#080808" d="M141.3,559c-3.1,0.4-6.4-0.8-9.2-1.8c-3.9-1.4-7.7-3.2-11.6-4.9c-3.5-1.5-7-3.1-10.6-4
		c-4.2-1.1-8.6-0.2-12.5,1.5c-2,0.9-3.9,2-5.5,3.6c3.3,0.4,6.4,2,9.4,3.4c3.8,1.9,7.5,3.9,11.3,5.9c3.4,1.8,6.8,3.5,10.5,4.6
		c3.7,1.1,7.2,0.5,10.8-0.9C137.3,565.1,140.4,562.7,141.3,559z"/>
	<path fill="#080808" d="M190.7,514.2c0.8-4.6,1.3-9.5,0.3-14.1c-0.8-3.7-2.6-7.1-5.1-9.9c-3.1-3.4-6.8-6.6-11.4-7.6
		c-4-0.8-8.2,0-11.7,1.9c-2.2,1.1-4.6,2.7-5.8,5c8.4,0,15.1,5,20.1,11.4c1.3,1.6,2.4,3.3,3.5,5c1.1,1.8,2,3.8,3.5,5.2
		C185.8,512.8,188.2,514.1,190.7,514.2z"/>
	<path fill="#080808" d="M68.5,554.6c-1.6,4.9-2.8,10.1-1.9,15.2c0.8,4,2.8,7.6,5.8,10.3c6.9,5.9,16.8,5.4,24.6,1.7
		c0.2-0.1,0.4-0.2,0.6-0.3c-0.5,0-1.1-0.6-1.5-0.9c-0.9-0.7-1.7-1.6-2.5-2.4c-2.4-2.4-4.6-4.9-6.8-7.4c-2.3-2.6-4.5-5.3-6.7-8
		c-1.4-1.7-3.1-3.5-4-5.5c-0.8-1.8-2.2-3.6-4.3-4.1C70.5,553,69.1,553.3,68.5,554.6C67.3,557.9,69.6,552.3,68.5,554.6z"/>
	<path fill="#080808" d="M103.2,563.5c-3.7-2.5-7.5-5-11.6-6.8c-3.6-1.6-8.1-2.9-11.9-1c3.8,2.5,6.1,6.7,8.5,10.4
		c1.2,1.8,2.4,3.6,4,5.2c1.7,1.6,3.7,2.6,5.8,3.5c4.6,1.9,9.7,3.6,14.7,3.6c3.9,0,9.1-2.1,10.5-6c0.1-0.4,0.4-0.9,0-1.1
		c-0.4-0.1-0.9-0.3-1.3-0.4c-1.7-0.6-3.5-1.2-5.2-1.8C112.1,567.4,107.5,565.7,103.2,563.5C96.5,559,109.9,566.9,103.2,563.5z"/>
	<path fill="#080808" d="M69.6,514.2c2.5,0,5.1,0.6,7.6,0.3c2.8-0.4,4.7-2.3,5.9-4.8c-1.6,0-3.3-1.3-4.6-2.1c-1.7-1-3.2-2.2-4.9-3.2
		c-4.3-2.5-9-3.7-14-3.7c-4.3,0.5-8.2,2.3-11.2,5.4c-3,3.2-5,7.2-6.1,11.4c-0.2,0.7-0.4,1.5-0.6,2.2c1.1,0,2.1,0.1,3.2,0.5
		c0.7,0.2,1.4,0.5,2.1,0.5c0.9,0,1.8-0.5,2.6-1c1.3-0.6,2.6-1.3,3.9-1.9C58.5,515.6,63.9,514.2,69.6,514.2z"/>
	<path fill="#080808" d="M86.4,527.6c6.6,6.6,15.6,13.3,25.5,11.6c1.3-0.2,2.6-0.6,3.8-1.1c0.3-0.1,0.6-0.3,1-0.4c0-0.2,0-0.4,0-0.6
		c0-0.4,0-0.9,0.1-1.3c0.1-1.6-0.1-3-1.1-4.3c-3-3.9-8.5-4.2-12.7-6.2c-2.6-1.2-4.6-3.1-7-4.6c-2.1-1.4-4.5-2.4-7-3.1
		c-4.5-1.3-10.2-1.5-13.7,2.1c0.1,0.2,0.8,0.4,1,0.4c0.9,0.4,1.7,0.9,2.5,1.4C81.5,523.3,84.1,525.3,86.4,527.6
		C93.1,534.4,80.8,522,86.4,527.6z"/>
	<path fill="#080808" d="M194,535.5c-1.6,0-2.9-2.4-3.7-3.5c-1.2-1.9-2.5-3.7-4-5.4c-3.3-3.5-7.5-6.3-12.3-7.2
		c-5.9-1.1-13.1,0.8-17.4,5.1c-0.3,0.3-0.5,0.6-0.8,0.9c4.2,1.2,8.2,3.1,12,5.3c2.3,1.4,4.7,2.9,6.2,5.2c1.5,2.3,3.9,4.2,6.2,5.8
		c3.4,2.3,7.4,3.9,11.5,3.9C191.8,542.2,192.5,538.6,194,535.5z"/>
	<path fill="#080808" d="M180.6,513.1c-1.2-0.8-2.2-2-3.1-3.1c-1.3-1.6-2.6-3.3-3.8-5c-2.3-3-4.6-6.6-7.8-8.8c-3.4-2.4-8-3.3-12-3.9
		c-1.7-0.2-3.4-0.4-5.2-0.5c-2-0.1-4.3,1.2-5.9,2.3c-1.8,1.1-3.6,2.7-4.4,4.8c-0.2,0.5-0.3,0.9-0.3,1.4c0,0.4-0.2,0.5,0.3,0.5
		c0.3,0,0.6,0,0.9,0.1c1.2,0.1,2.4,0.3,3.6,0.5c3.9,0.8,7.6,2.4,11.1,4.3c3.1,1.8,6.1,3.8,9.4,5.3c3.6,1.7,7.4,2.6,11.4,2.6
		C176.6,513.6,178.6,513.4,180.6,513.1C177.2,510.8,160.4,516.4,180.6,513.1z"/>
	<path fill="#080808" d="M270.3,516.4c-4.1,0-8.2,0-12.3,0c2.7,3.8,5.6,7.5,8.7,11.1c2.5,3,5.2,5.9,8.1,8.5c2.4,2.2,5.1,4.5,8.1,5.8
		c0.6,0.2,0.8,0.5,1.2,0c0.3-0.4,0.6-0.8,0.8-1.3c0.5-1.1,0.6-2.3,0.5-3.5c-0.2-3.4-1.3-7.1-3-10c-1.7-2.8-4-5.3-6.5-7.4
		c-1-0.9-2.1-1.7-3.3-2.3C271.9,517,271.1,516.4,270.3,516.4z"/>
	<path fill="#080808" d="M133.5,503c0.5,1.1,1,2.2,1.1,3.5c0.1,0.6,0.1,1.2,0.1,1.8c0,0.4,0.2,0.5,0.5,0.8c0.8,0.6,1.7,1,2.5,1.4
		c3.3,1.9,5.2,5.3,6.8,8.6c1.3,2.9,5.8,3.3,8.6,2.7c3.3-0.8,6.7-2.1,9.3-4.2c1.1-0.9,2.1-2,2.6-3.3c-2.8,0-5.8-1.1-8.3-2.1
		c-1.6-0.6-3.3-1.4-4.7-2.3c-1.1-0.7-2-1.6-3.2-2.2c-2.9-1.4-5.9-2.6-8.9-3.6c-1.3-0.4-2.6-0.8-4-1.1
		C135.2,502.9,133.9,502.5,133.5,503C134.6,505.2,134.6,501.9,133.5,503z"/>
	<path fill="#080808" d="M67.3,582.6c-2.8-4.3-5.4-9.6-5.7-14.8c-0.2-2.2,0.2-4.5,0.8-6.6c0.4-1.5,1.1-3,1.1-4.5
		c0-2.2-1.7-3.7-3.7-4.4c-2.5-0.8-5.4-0.5-7.7,0.9c-2.8,1.7-4.3,4.7-5,7.8c-0.7,3.7,0.9,7.8,2.8,10.8c2.1,3.3,4.9,6.1,8.2,8.1
		C60.8,581.6,64.1,583,67.3,582.6z"/>
	<path fill="#080808" d="M3.4,543.3c4.1,7.2,14.5,9.3,22.1,8.5c0.9-0.1,1.8-0.2,2.7-0.4c0.2,0,1.1-0.1,1-0.4c0-0.3-0.2-0.6-0.3-0.8
		c-1-1.6-2.9-2.7-4.3-3.7c-4.4-3.1-9.1-5.7-11.8-10.6c-2.2-4-3.7-8.4-7.1-11.7c-1.6,2.7-3,5.5-3.6,8.5C1.4,536.4,2,540,3.4,543.3
		C7.9,551.2,0.1,535.5,3.4,543.3z"/>
	<path fill="#080808" d="M228.8,517.6c-1.1,2.8-1.2,6.1-0.8,9.1c0.2,1.3,0.7,2.6,0.9,3.9c0.2,1.2,0.3,2.4,0.4,3.6
		c0.1,2.2-0.1,4.5,0.2,6.7c0.6,3.6,4.6,5,7.8,5c1.3,0,2.5-0.3,3.8-0.3c1.3,0,2.6,0,3.9-0.1c2.6-0.2,5.1-0.9,7.4-2.1
		c-2.2-2.2-4.8-4-7.1-6.2c-1.3-1.2-2.6-2.5-3.7-3.9c-0.9-1.1-1.4-2.2-2-3.5c-1.3-2.7-3.1-5.3-4.9-7.7c-0.9-1.1-1.9-2.3-3-3.2
		C230.8,518.3,229.8,517.6,228.8,517.6z"/>
	<path fill="#080808" d="M143.6,570.3c1.1,3.4,4.3,6.3,7,8.4c1.9,1.4,4,2.6,6.2,3.3c0.5,0.2,1.1,0.3,1.6,0.4
		c0.5,0.1,0.8,0.3,1.1-0.2c0.4-0.6,0.3-1.4,0.1-2.1c-0.5-1.9-1.5-3.6-2.1-5.5c-0.3-0.9-0.6-1.9-0.6-2.8c-0.1-1.2,0.4-2.4,0.4-3.6
		c0.1-2.4-0.7-4.6-1.8-6.7c-0.4-0.8-0.7-1.5-1.4-1.9c-0.8-0.4-1.8-0.6-2.7-0.7c-2.5-0.1-5.8,0.4-7.7,2.2c-0.3,0.3-0.2,1.7-0.3,2.1
		c-0.1,0.6-0.2,1.3-0.3,1.9C143,566.9,143.2,568.6,143.6,570.3C144.7,573.6,142.5,565.8,143.6,570.3z"/>
	<path fill="#080808" d="M129,535.5c1,0,1.7-0.8,2.2-1.6c0.9-1.2,1.8-2.3,3.1-3.2c1.6-1.1,3-2,4.9-2.4c0.8-0.2,1.6-0.3,2.4-0.6
		c0.4-0.2,0.9-0.4,1.2-0.6c0.5-0.4,0.7-0.5,0.7-1.2c-0.2-7-4.3-13.9-11.2-16.2c0,5.8-0.1,11.5-2.4,17c-0.3,0.7-0.6,1.4-1,2.1
		c0,0.6,0,1.2,0,1.8c0,0.7,0,1.4,0,2.2C129,533.6,129,534.6,129,535.5z"/>
	<path fill="#161616" d="M199.6,547.8c-2.7,0.8-5.5,1.3-8.2,2.4c-1.7,0.7-3.1,1.7-4.1,3.3c2,0.5,3.9,1.3,5.8,2.1
		c2.5,1,4.9,2.1,7.3,3.3c1.2,0.6,2.4,0.9,3.7,0.8c3-0.2,5.9-1.7,8.4-3.5c3-2.2,5.7-4.9,7.9-8c3.6-5.1,6.5-12.1,3.9-18.3
		c-0.9,0.9-1.5,2-2.1,3.1c-0.8,1.6-1.8,3-3,4.4c-1.8,2-3.8,3.7-6.1,5c-2.6,1.4-5.4,2.6-8.2,3.7c-1.1,0.4-2.3,0.9-3.4,1.3
		C200.9,547.5,200.2,547.8,199.6,547.8C191.8,550.1,200.8,547.8,199.6,547.8z"/>
	<path fill="#080808" d="M192.9,517.6c-4.5-2.2-7.8-4.5-12.3,0l0,0c3.4,1.7,6.6,3.9,10.1,5.6c1.3,1.3,2.2,2.8,3.4,4.2
		c0.8,1,1.9,2.5,3.4,2.5c0-1.2-0.9-2.3-1.6-3.1c-0.5-0.6-1.8-1.6-1.8-2.5C191.7,523.1,192.9,519.6,192.9,517.6z"/>
</g>
</svg>
