<?xml version="1.0" encoding="utf-8"?>
<!-- Generator: Adobe Illustrator 18.0.0, SVG Export Plug-In . SVG Version: 6.00 Build 0)  -->
<!DOCTYPE svg PUBLIC "-//W3C//DTD SVG 1.0//EN" "http://www.w3.org/TR/2001/REC-SVG-20010904/DTD/svg10.dtd" [
	<!ENTITY ns_flows "http://ns.adobe.com/Flows/1.0/">
	<!ENTITY ns_extend "http://ns.adobe.com/Extensibility/1.0/">
	<!ENTITY ns_ai "http://ns.adobe.com/AdobeIllustrator/10.0/">
	<!ENTITY ns_graphs "http://ns.adobe.com/Graphs/1.0/">
]>
<svg version="1.0" id="Camada_1" xmlns:x="&ns_extend;" xmlns:i="&ns_ai;" xmlns:graph="&ns_graphs;"
	 xmlns="http://www.w3.org/2000/svg" xmlns:xlink="http://www.w3.org/1999/xlink" xmlns:a="http://ns.adobe.com/AdobeSVGViewerExtensions/3.0/"
	 x="0px" y="0px" viewBox="-31 357.8 356.7 349.3" enable-background="new -31 357.8 356.7 349.3" xml:space="preserve">
<image overflow="visible" width="2486" height="2479" xlink:href="../../banco de imagens/bot천es/butt 22.png"  transform="matrix(0.1336 0 0 0.1336 -20.9084 364.9676)">
</image>
<g>
	
		<image overflow="visible" width="2631" height="2500" xlink:href="../../banco de imagens/bot천es/butt 31.png"  transform="matrix(3.166667e-002 0 0 3.166667e-002 9.8384 573.1367)">
	</image>
	
		<image overflow="visible" width="2631" height="2500" xlink:href="../../banco de imagens/bot천es/butt 31.png"  transform="matrix(3.166667e-002 0 0 3.166667e-002 103.549 573.1367)">
	</image>
	
		<image overflow="visible" width="2631" height="2500" xlink:href="../../banco de imagens/bot천es/butt 31.png"  transform="matrix(3.166667e-002 0 0 3.166667e-002 197.2596 573.1367)">
	</image>
</g>
<g>
	<g>
		<path d="M57.7,513.2c0-0.1-0.4-0.9-0.5-1c0-0.5-0.2-1.1-0.2-1.6c-0.4-1.1-0.3-2.5-0.4-3.7c-0.1-1.3-0.2-2.6-0.2-3.9
			c0-1.4,0-2.9-0.2-4.3c-0.4-2.9,0.1-6-0.2-8.9c-0.3-2.8,0.2-5.6-0.1-8.4c-0.3-3,0-6.2,0-9.2c0-3.2-0.2-6.4,0.1-9.6
			c0.3-3,0-6.1,0-9.1c0-1.5,0.1-2.9,0.1-4.4c0-1.6-0.1-3.2,0.1-4.7c0-3.2,0.1-6.4,0.1-9.6c0.4-3.1-0.1-6.2,0.3-9.2
			c0-2.8,0.2-5.7,0.2-8.5c0-1.3,0.1-2.7,0.2-4c0.1-1.6,0-3.1,0.2-4.7c0.3-2.6,0.3-5.3,0.5-7.9c0.1-1.2,0.2-2.3,0.3-3.5
			c0.1-0.6,0.2-1.2,0.2-1.8c0-0.5,0.3-1.1,0.3-1.6c0-0.3,0.7-0.9,0.9-1c0.5-0.2,0.9-0.4,1.4-0.6c1.1-0.7,2.5-0.7,3.7-1
			c2.7-0.5,5.7-0.6,8.5-0.6c6.1,0,12.1-0.2,18.2-0.1c5.9,0,11.9,0.2,17.8,1c5.5,0.8,11.1,2.2,16.1,4.5c5.3,2.5,9.9,5.9,13.7,10.3
			c0.8,1.2,1.7,2.2,2.4,3.4c0.9,1.3,1.5,2.8,2.2,4.2c0.6,1.2,1.2,2.6,1.6,3.9c0.5,1.5,0.9,3.1,1.1,4.6c0.2,1.4,0.6,2.8,0.7,4.3
			c0.1,1.5,0.2,3,0.2,4.5c0,3.1-0.3,6.2-0.9,9.2c-0.2,0.9-0.5,1.7-0.7,2.6c-0.1,1-0.3,2.1-0.6,3.1c-0.4,1.9-1.1,3.7-1.9,5.4
			c-1.5,3.3-3.6,6.2-6.2,8.8c-4.7,4.8-10.7,8.2-16.8,10.8c-4.2,1.8-8.6,3-12.9,4.4c-0.2,0.1-0.5,0.2-0.7,0.3
			c-0.4,0.1-0.3,0.2-0.2,0.5c0.3,0.9,0.5,1.7,0.7,2.6c0.6,2.9,1,5.9,1.4,8.8c0.9,6.8,1.7,13.7,2,20.5c0.1,1.6,0.4,3.7-0.1,5.3
			c-0.2,0.7-1.1,1-1.7,1.3c-1.4,0.6-2.9,0.9-4.3,1.3c-4.8,1-9.7,1.5-14.5,1.9c-6,0.4-12.1,0.7-18.1,0.2c-3.8-0.3-7.8-1-11.2-2.8
			c-0.7-0.4-1.4-0.8-2.1-1.4C58.2,513.7,57.9,513.3,57.7,513.2C57.7,513.1,57.9,513.2,57.7,513.2z"/>
		<path fill="#FFFFFF" d="M65.7,507.3c0-0.1-0.3-0.8-0.4-0.9c0-0.5-0.2-1-0.2-1.5c-0.4-1.3-0.2-2.8-0.4-4.2c-0.2-1.3,0-2.7-0.2-4.1
			c-0.2-1.5-0.1-3.1-0.1-4.6c0-5.9-0.3-11.9-0.3-17.8c0-5.8,0.1-11.6,0.1-17.4c0-5.9,0.3-11.9,0.3-17.8c0-2.8,0.2-5.6,0.2-8.4
			c0-1.4,0.1-2.8,0.1-4.2c0-1.5,0-3.1,0.2-4.7c0-2.9,0.2-5.8,0.3-8.7c0.1-1.4,0-3,0.3-4.4c0-1.4,0.3-2.8,0.3-4.3
			c0-1.2,0.2-2.4,0.3-3.6c0.1-0.9,0.1-2.1,1-2.6c2-1.1,4.2-1.7,6.6-1.7c2.6-0.5,5.3-0.4,7.9-0.4c3.1,0,6.2,0,9.3,0
			c2.8,0,5.8,0,8.6,0.3c3,0.3,6,0.4,8.9,1.2c5.3,0.8,10.2,3.4,14.5,6.3c2.3,1.6,4,3.7,5.8,5.8c1.7,1.9,3,4.4,3.9,6.8
			c1,2.6,2,5.3,2.4,8.2c0.5,3.1,0.8,6.2,0.8,9.3c0,3-0.2,6.2-1.1,9.1c-0.7,2.5-1.5,5.3-3,7.5c-0.8,1.2-1.5,2.4-2.3,3.5
			c-0.9,1.2-1.9,2.4-3,3.4c-1.1,0.9-2,2-3.2,2.8c-1.1,0.8-2.3,1.5-3.4,2.3c-2.2,1.6-4.9,2.5-7.3,3.6c-1.2,0.6-2.5,0.9-3.7,1.3
			c-1.5,0.3-3,0.8-4.5,1.1c-0.6,0.1-7,1.2-7,0.9c-0.1,0.6,0.1,1.2,0.2,1.9c0,0.7,0,1.3,0.1,2c0.2,1.5,0.4,3.1,0.5,4.6
			c0,1.3,0.2,2.7,0.4,4c0.2,1.5,0.2,2.9,0.4,4.4c0.3,2.7,0.1,5.5,0.4,8.2c0.1,1.2-0.1,2.5-0.1,3.7c0,1.5-0.1,3-0.4,4.4
			c-0.4,2.2-1.1,4.9-3.5,5.8c-2.2,1-4.9,0.9-7.3,1c-2.5,0.2-5.1-0.1-7.6-0.1c-1.2,0-2.4-0.1-3.6-0.3c-1.4,0-2.8-0.2-4.2-0.4
			C70.4,508.6,67.8,508.4,65.7,507.3C65.7,507.2,65.8,507.3,65.7,507.3z M109.2,432.3c0-3-0.5-5.5-2.1-8.1c-1.5-2.4-4.2-3.9-6.9-4.7
			c-1.3-0.5-2.5-0.6-3.9-0.8c-0.5-0.1-1.2,0.1-1.7-0.1c-0.8-0.2-0.4,0.8-0.5,1.2c0,2.9,0.3,5.8,0.3,8.6c0.3,2.8,0.2,5.7,0.5,8.5
			c0.2,2.8,0.1,5.8,0.5,8.6c0,1.3,0.1,2.7,0.1,4c0,0.7,2.8,0,3.3-0.1c1.1-0.5,2.2-0.9,3.2-1.6c1.3-0.9,2.3-1.9,3.2-3.1
			C108,441.1,108.8,436.6,109.2,432.3C109.2,431.5,109.1,433,109.2,432.3z"/>
	</g>
	<g>
		<g>
			<path d="M146.5,553.2c-0.6-0.4-0.9-1.5-1.1-2.2c-0.3-1.1-0.5-2.3-0.7-3.5c-0.1-1.3-0.4-2.5-0.4-3.8c0-0.6-0.1-1.3-0.2-1.9
				c-0.1-0.7,0-1.4-0.1-2c-0.2-1.2-0.2-2.5-0.2-3.8c0-1.5-0.1-3-0.1-4.4c0-2.8-0.1-5.6-0.1-8.3c0-2.7,0-5.5,0-8.2
				c0.4-2.9-0.1-5.8,0.2-8.7c0-3,0.1-6,0.1-9.1c0-1.5,0.1-2.9,0.1-4.4c0.1-1.6,0-3.2,0.2-4.8c0-3,0.2-6,0.2-9c0.1-3-0.1-5.9-0.1-8.9
				c0-2.8-0.3-5.5-0.3-8.3c-0.1-2.8-0.3-5.6-0.5-8.4c-0.4-5.1-0.8-10.2-0.8-15.3c0-0.5-0.1-1.1,0.1-1.6c0-0.5,0-1.2,0.2-1.7
				c0.5-1.2,2.4-1.5,3.5-1.7c2.8-0.5,5.5-0.7,8.3-1c5.8,0,11.5-0.2,17.2,0.5c1.9,0.2,4.3,0.4,5.9,1.5c1.4,0.9,1.4,3.3,1.3,4.8
				c1.5-2.9,5.5-4.4,8.3-5.2c4.4-1.3,9.1-1.7,13.7-1.5c2.7,0.1,5.4,0.7,8,1.5c2.3,0.7,4.7,1.6,6.7,2.9c1.2,0.4,2.1,1.4,3.2,2.1
				c1.1,0.7,2.2,1.5,3.1,2.5c1.7,1.8,3.4,3.5,4.8,5.6c0.5,1.1,1.2,2.2,1.9,3.1c0.5,1.3,1.1,2.5,1.6,3.7c1,2.6,1.7,5.2,2.2,7.9
				c1.3,7.5,0.4,15.5-1,22.9c-1.2,6.6-3.5,13.1-7.6,18.5c-2.4,3.1-5.3,5.7-8.6,7.8c-1.9,1.2-3.9,2.1-5.9,2.9c-2.6,1-5,1.5-7.8,1.8
				c-3.8,0.4-7.8,0.7-11.6,0.2c-1.2-0.2-2.5-0.4-3.5-1.1c-0.5-0.3-0.1,1-0.1,1.2c0.2,2.2,0.5,4.4,0.7,6.6c0.6,6.5,1.2,12.9,1.4,19.4
				c0.1,2.2,0.2,4.4-0.3,6.6c-0.4,1.9-3.1,2.4-4.7,2.8c-5,1.4-10.2,2.2-15.3,2.9C161.5,555.2,153.4,556.3,146.5,553.2z"/>
		</g>
		<g>
			<path fill="#FFFFFF" d="M154.8,544.8c-0.7-0.5-0.9-2-1-2.8c-0.2-1.2-0.5-2.5-0.5-3.7c0-2.5-0.4-5-0.4-7.5c0-5.3-0.2-10.7-0.2-16
				c0-6.1,0.3-12.3,0.3-18.4c0-3.1,0.3-6.3,0.3-9.4c0-3.1,0-6.2,0-9.3c0-2.9-0.2-5.8-0.3-8.7c-0.1-2.5-0.1-5.2-0.4-7.7
				c0-2.7-0.4-5.3-0.4-8c0-2.2-0.3-4.5,0.1-6.7c0.3-1.3,2.1-1.4,3.1-1.7c1.3-0.4,2.9-0.5,4.3-0.5c3.2-0.3,6.3-0.3,9.5-0.2
				c1.3,0,2.5,0.2,3.8,0.3c0.8,0.1,2.3,0.1,2.7,0.9c0.6,1.4,0.3,3.2,0.4,4.7c0.1,0.7,0.6,0.1,1-0.2c0.7-0.6,1.6-1.2,2.4-1.6
				c2.5-1.4,5.1-2.4,7.8-3.2c4.9-1.5,10.3-1,15.1,0.6c2.2,0.7,4.7,2,6.4,3.6c1.9,1.7,3.9,3.3,5.2,5.6c0.9,0.9,1.4,2.2,2.1,3.3
				c0.5,1.4,1.2,2.7,1.7,4.1c0.9,2.5,1.4,5,1.8,7.6c0.4,2.5,0.3,5.1,0.3,7.7c0,2.7-0.8,5.4-1.2,8c-1.5,5.3-4,10.2-7.9,14.1
				c-1.9,1.9-4.2,3.8-6.6,4.8c-1.1,0.6-2.3,1.1-3.5,1.6c-1.3,0.3-2.6,0.9-4,1c-1.3,0.1-2.4,0.3-3.7,0.3c-1.4,0-2.7-0.2-4-0.2
				c-1.2-0.1-2.5-0.5-3.6-0.9c-1.3-0.4-2.6-0.8-3.8-1.6c-0.6-0.3-1.1-0.6-1.6-1c-0.6-0.1-0.8-0.6-1.2-1c-0.7-0.6-0.3,1.5-0.2,1.7
				c0.3,2.4,0.4,5,0.5,7.4c0.4,5.7,0.8,11.4,0.8,17.1c0.3,2.5,0,5.2,0,7.7c0,2-0.2,4.6-1,6.4c-0.5,0.9-2.4,1.3-3.3,1.6
				c-1.3,0.4-2.5,0.6-3.8,0.9c-2.5,0.6-5.2,0.9-7.7,0.9C160.8,546.5,157.7,546.3,154.8,544.8z M188.1,484.6c4.2,1.4,8.8-3.1,9.2-7
				c0.4-3.7-1.4-9.1-5.6-9.7c-4.3-1.2-8.8,2.7-10,6.5C180.3,478.8,183.8,483.8,188.1,484.6C188.4,484.8,187.8,484.6,188.1,484.6z"/>
		</g>
	</g>
</g>
</svg>
