<?xml version="1.0" encoding="utf-8"?>
<!-- Generator: Adobe Illustrator 18.0.0, SVG Export Plug-In . SVG Version: 6.00 Build 0)  -->
<!DOCTYPE svg PUBLIC "-//W3C//DTD SVG 1.1//EN" "http://www.w3.org/Graphics/SVG/1.1/DTD/svg11.dtd">
<svg version="1.1" id="Camada_1" xmlns="http://www.w3.org/2000/svg" xmlns:xlink="http://www.w3.org/1999/xlink" x="0px" y="0px"
	 viewBox="0 0 1024 768" enable-background="new 0 0 1024 768" xml:space="preserve">
<g>
	<g>
		<g>
			<path fill="#9F1617" d="M88.5,552.1c17.6-60.9,38.1-122.3,66.7-178.9c33.8-67,98.9-111.7,161.3-150.2
				C505.3,106.3,754.4,69.5,971.1,118.9c27.7,6.3,37.1,14.1,36.8,44c-0.4,35-12.3,70.1-24.5,102.5c-27.6,73.2-65.3,146-112.5,208.6
				c-37.7,50-93,69.6-150.7,89.5c-82,28.2-166.4,50.4-251.3,68c-73.3,15.2-132.3,17.4-204.9-5.8C203.7,606.3,145,580.8,88.5,552.1"
				/>
			<path opacity="0.4" fill="#F9371C" d="M184.1,325.1c-52.5,56.8-75.3,150.8-96.7,223.4c10.7-3,74.4-13.6,77-22
				c7.1-22.7,14.2-45.4,21.3-68.1c19.4-62.1,38.8-124.2,58.2-186.3C222.9,288.3,202.2,305.5,184.1,325.1"/>
			<path opacity="0.4" fill="#F9371C" d="M226.5,494.7c34.4,41.8,68.8,83.5,103.2,125.3c20.3,24.7,22.3,29.8,58.2,25.5
				c58.2-7,116-21.1,172.8-35.5c-59-47.4-117.9-94.8-176.9-142.2c-23.2-18.7-26.6-30.9-53.5-19C295.7,464.1,261.1,479.4,226.5,494.7
				z"/>
			<path opacity="0.4" fill="#F9371C" d="M429.6,163.8c-2,81.8-3.9,163.6-5.9,245.4c29.7-13.2,59.4-26.5,89.1-39.7
				c25.4-11.3,42.6-10.5,46.4-37.6c10.1-71.6,20.2-143.2,30.3-214.8C534.5,126.4,481,142.1,429.6,163.8"/>
			<path opacity="0.4" fill="#F9371C" d="M661.2,295.3c33.3,52.9,66.6,105.9,99.9,158.8c14.9,23.6,29.7,47.3,44.6,70.9
				c13.4,21.3,94.7-97.5,100-106.3c5.5-9.1,37.1-52.9,28.4-59.3c-11.5-8.5-23.1-16.9-34.6-25.4c-31.6-23.1-63.2-46.3-94.8-69.4
				c-23-16.8-21.5-15.9-48.6-5.5C724.5,271.2,692.9,283.2,661.2,295.3z"/>
			<path fill="#2D0406" d="M52.5,539.5c26.9-3.4,53.6-0.5,79.7-9.9c30.3-11,59.9-24,89.5-36.8c101-43.7,201.1-89.6,301.1-135.4
				c102.1-46.7,203.9-93.8,306-140.5c8.9-4.1,143.1-70.9,147.1-65c3.2,4.8-478.8,237.1-514.1,253.3c-97,44.7-194.2,89.1-291.5,133.2
				c-13.5,6.1-32.3,19.4-47.2,21.1c-26.2,2.9-52.5,5.9-78.7,8.8C16.9,571.2,30.4,538.6,52.5,539.5z"/>
		</g>
		<path opacity="0.4" fill="#F9371C" d="M997.5,127.9c-43.3-18.4-96.9-20.5-143-23.5c3.8,32.6,7.5,65.3,11.3,97.9
			c45.1-22.6,90.2-45.2,135.3-67.9C999.9,132.3,998.7,130.1,997.5,127.9"/>
	</g>
	<g>
		<path fill="#020202" d="M506.5,440.6c0-2.1,0.7-4.2,1.4-6.2c1-3.8,2.1-7.3,3.1-10.7c1.7-6.6,4.2-13.1,6.2-20.1
			c2.1-8,5.2-15.6,7.6-23.5c2.4-8,4.8-16.3,8-23.9c2.1-6.9,4.8-13.8,6.9-21.1c2.1-5.9,3.5-13.1,6.6-18.7c0-3.1,3.1-3.1,5.2-3.1
			c4.5-0.3,8.6-0.3,13.1-0.3c3.8,0,8,0.3,11.8,0.3c3.5,0.3,3.8,0,5.2,3.5c3.5,9.3,6.6,18.7,9.7,28c3.5,11.8,7.3,23.5,11.4,34.9
			c3.1,11.4,6.9,22.8,10.7,34.2c1.4,4.5,2.4,8.6,3.8,13.1c0.7,2.8,1.4,5.2,2.1,8c0.3,1,0.7,4.5,1.4,5.2c-1.7,1.7-6.6,1-9,1.4
			c-2.4,0-4.5,0-6.9,0c-5.2,0-10.4,0-15.6,0c-4.5,0-9.3,0-13.8-0.7c-8.6-1.4-6.9-14.9-7.3-20.8c-0.3-3.1,0-16.3-6.2-14.2
			c-2.1,0.7-2.1,2.1-2.4,4.2c-0.7,4.2-1.7,8.3-2.8,12.5c-1.4,5.2-2.8,17.3-9.7,18.3c-5.2,0.7-10.4,0.7-15.6,1
			c-3.8,0-7.6,0.3-11.4,0.3c-1.7,0-3.5,0-5.2,0C513,441.6,507.5,441.9,506.5,440.6z"/>
		<path fill="#FFFFFF" d="M518.2,433.6c0-1.7,0.7-3.8,1-5.5c1-4.2,2.1-8.3,3.1-12.1c1.7-6.2,3.5-12.5,5.2-18.3
			c2.4-6.6,4.2-14.2,5.9-21.1c2.1-6.9,4.2-13.8,6.2-21.1c2.1-5.9,3.5-12.1,5.5-18c1-3.8,2.4-7.6,3.5-11.4c0.3-1.7,1-4.5,2.4-4.8
			c6.2-1.4,13.8-1,20.1-0.3c2.8,0.3,4.5-0.3,5.5,2.1c1,3.5,2.8,6.9,3.5,10.4c4.5,13.1,7.3,26.6,11.4,39.4c1.7,7.3,4.2,14.5,5.9,21.8
			c1.4,6.2,4.2,12.8,5.2,19.4c1,3.1,1.4,6.6,2.8,9.7c0.3,1.7,0.7,3.8,1.4,5.5c0.3,0.7,0.3,3.1,1,3.8c0,3.1-14.2,2.1-17,2.1
			c-3.5,0-7.3,0-10.7-0.7c-3.1-0.7-2.8-4.8-3.8-7.6c-1.7-6.9-3.1-13.5-4.5-20.4c-0.3-1.7-0.7-3.1-1-4.8c-0.7-1.7-1.7-1.4-3.5-1.4
			c-3.8-0.3-8-0.3-11.8,0.3c-2.8,0.7-2.4,5.5-2.8,8c-1,3.8-1.7,8-2.8,11.8c-0.7,3.5-1.4,6.6-2.4,10c-0.3,1.4-0.3,3.5-2.1,3.8
			c-2.1,0.3-3.8,0.7-5.9,1c-3.8,0-7.3,0.3-11.1,0.3C526.9,435,519.3,435.7,518.2,433.6z M568.7,389c0.3-0.3-0.3-2.1-0.3-2.4
			c-0.3-2.1-1-3.8-1.4-5.9c-0.7-3.1-1-6.6-1.4-9.7c0-1-1-14.5-2.4-14.5c-1.7,0-2.8,13.1-3.1,14.2c-0.3,3.5-0.7,6.9-1.4,10.7
			c-0.3,1-2.4,8.3-2.1,8.6C557.3,390.4,567.7,390.1,568.7,389C568.7,388.7,568.4,389,568.7,389z"/>
	</g>
	<g>
		<path fill="#020202" d="M760.7,440.6c0-2.1,0.7-4.2,1.4-6.2c1-3.8,2.1-7.3,3.1-10.7c1.7-6.6,4.2-13.1,6.2-20.1
			c2.1-8,5.2-15.6,7.6-23.5c2.4-8,4.8-16.3,8-23.9c2.1-6.9,4.8-13.8,6.9-21.1c2.1-5.9,3.5-13.1,6.6-18.7c0-3.1,3.1-3.1,5.2-3.1
			c4.5-0.3,8.6-0.3,13.1-0.3c3.8,0,8,0.3,11.8,0.3c3.5,0.3,3.8,0,5.2,3.5c3.5,9.3,6.6,18.7,9.7,28c3.5,11.8,7.3,23.5,11.4,34.9
			c3.1,11.4,6.9,22.8,10.7,34.2c1.4,4.5,2.4,8.6,3.8,13.1c0.7,2.8,1.4,5.2,2.1,8c0.3,1,0.7,4.5,1.4,5.2c-1.7,1.7-6.6,1-9,1.4
			c-2.4,0-4.5,0-6.9,0c-5.2,0-10.4,0-15.6,0c-4.5,0-9.3,0-13.8-0.7c-8.6-1.4-6.9-14.9-7.3-20.8c-0.3-3.1,0-16.3-6.2-14.2
			c-2.1,0.7-2.1,2.1-2.4,4.2c-0.7,4.2-1.7,8.3-2.8,12.5c-1.4,5.2-2.8,17.3-9.7,18.3c-5.2,0.7-10.4,0.7-15.6,1
			c-3.8,0-7.6,0.3-11.4,0.3c-1.7,0-3.5,0-5.2,0C767.3,441.6,761.8,441.9,760.7,440.6z"/>
		<path fill="#FFFFFF" d="M772.5,433.6c0-1.7,0.7-3.8,1-5.5c1-4.2,2.1-8.3,3.1-12.1c1.7-6.2,3.5-12.5,5.2-18.3
			c2.4-6.6,4.2-14.2,5.9-21.1c2.1-6.9,4.2-13.8,6.2-21.1c2.1-5.9,3.5-12.1,5.5-18c1-3.8,2.4-7.6,3.5-11.4c0.3-1.7,1-4.5,2.4-4.8
			c6.2-1.4,13.8-1,20.1-0.3c2.8,0.3,4.5-0.3,5.5,2.1c1,3.5,2.8,6.9,3.5,10.4c4.5,13.1,7.3,26.6,11.4,39.4c1.7,7.3,4.2,14.5,5.9,21.8
			c1.4,6.2,4.2,12.8,5.2,19.4c1,3.1,1.4,6.6,2.8,9.7c0.3,1.7,0.7,3.8,1.4,5.5c0.3,0.7,0.3,3.1,1,3.8c0,3.1-14.2,2.1-17,2.1
			c-3.5,0-7.3,0-10.7-0.7c-3.1-0.7-2.8-4.8-3.8-7.6c-1.7-6.9-3.1-13.5-4.5-20.4c-0.3-1.7-0.7-3.1-1-4.8c-0.7-1.7-1.7-1.4-3.5-1.4
			c-3.8-0.3-8-0.3-11.8,0.3c-2.8,0.7-2.4,5.5-2.8,8c-1,3.8-1.7,8-2.8,11.8c-0.7,3.5-1.4,6.6-2.4,10c-0.3,1.4-0.3,3.5-2.1,3.8
			c-2.1,0.3-3.8,0.7-5.9,1c-3.8,0-7.3,0.3-11.1,0.3C781.5,435,773.5,435.7,772.5,433.6z M823,389c0.3-0.3-0.3-2.1-0.3-2.4
			c-0.3-2.1-1-3.8-1.4-5.9c-0.7-3.1-1-6.6-1.4-9.7c0-1-1-14.5-2.4-14.5c-1.7,0-2.8,13.1-3.1,14.2c-0.3,3.5-0.7,6.9-1.4,10.7
			c-0.3,1-2.4,8.3-2.1,8.6C811.6,390.4,822,390.1,823,389C823,388.7,822.7,389,823,389z"/>
	</g>
	<g>
		<path fill="#010001" d="M220.7,315.7c2.4-2.1,7.3-2.4,10.4-2.8c3.1-0.3,6.6-0.7,9.7-0.7c4.8,0,9.3-0.3,14.2,0.3
			c6.9,1,6.6,10.7,6.6,16.3c0,1,0.3,11.4-0.7,10.7c0.3,0.3,6.9-14.9,7.6-16.6c0.7-2.8,1.7-5.9,3.1-8.6c0.3-1.7,1.7-1.7,3.8-1.7
			c5.2,0,10.7-0.7,16.3,0c7.6,1,15.6,2.4,22.8,4.8c2.8,1,6.2,1.7,8.6,3.8c1.7,1.4-0.3,4.5-0.7,5.9c-2.1,3.1-3.5,6.6-5.2,9.3
			c-1.7,2.4-3.5,5.2-5.5,7.6c-4.8,5.9-9.7,11.4-15.6,16.3c-3.1,2.8-6.6,5.2-10.4,7.3c-1.4,0.7-5.2,1.7-5.9,3.1
			c0,0.3,5.5,2.8,6.2,3.1c3.5,2.1,6.9,4.2,10,6.9c5.9,4.8,12.8,10,17.3,16.6c4.8,4.8,9.3,10.4,13.1,15.9c1.4,2.4,5.5,6.6,5.5,9.7
			c1.4,2.4-3.8,5.2-5.5,5.9c-7.6,3.5-15.2,7.3-23.2,9.3c-4.2,1-8.6,2.1-13.1,3.1c-2.1,0.3-4.2,1-6.2,1c-2.4,0-4.2-4.8-4.8-6.2
			c-1.7-3.8-3.8-7.3-5.9-11.1c-1.7-3.1-3.5-6.6-5.2-10c-1.4-2.8-2.4-5.2-3.8-8c-0.7-1-1.7-2.8-1.7-4.2c-0.3,2.1,0.7,4.8,0.7,7.3
			c0.3,2.8,0.7,5.2,0.7,8c0.3,5.2,1,10.4,1,15.6c0,1.4,0.3,3.5-0.3,4.8c0,1-6.6,0.7-6.9,0.7c-5.5,0.3-11.1,0.7-16.3,0.7
			c-4.2,0-8.3,0-12.5,0c-2.1,0-6.6,0.3-7.6-1.4c-0.7-1-0.3-3.5-0.3-4.8c0-4.5-0.7-8.6-0.7-13.1c0-4.8,0-9.7-0.7-14.5
			c-0.7-16.6-1.7-33.6-1.7-50.2c-0.3-6.9,0-13.5,0-20.4c0-3.1,0-6.6,0-9.7C219,323.6,217.6,317.4,220.7,315.7"/>
		<path fill="#FFFFFF" d="M229.7,324.3c3.5-3.5,11.4-2.8,15.9-2.8c2.4,0,6.2,0,7.6,2.4c1.7,2.8,1.7,8,1.7,10.7c0,6.9,0,13.8,0,20.8
			c0,1.4,0,2.4,0,3.8c0,1.7,1,1,2.1,0.3c2.1-1,3.8-4.2,5.2-5.9c3.8-5.2,6.2-11.1,8.6-17c1-3.5,1.7-8,3.5-11.4
			c0.7-2.8,0.7-3.5,3.8-3.5c5.9,0,12.5,2.1,18,4.5c2.1,1,5.5,1.7,5.9,4.5c0,3.1-2.1,6.2-3.1,9c-2.8,6.9-7.3,13.5-12.1,19
			c-2.1,2.4-4.2,4.8-6.2,6.9c-2.4,2.1-5.5,3.8-7.6,6.6c-1.4,1.4,3.8,3.8,5.2,4.8c2.4,2.1,4.8,4.2,6.9,6.2c4.2,4.5,8,9.7,11.8,14.5
			c2.1,3.5,4.5,6.6,6.6,10c1.4,2.8,4.8,6.6,4.8,9.7c1.7,3.5-11.1,9.3-13.5,10.4c-2.8,1.4-5.9,2.8-9.3,3.5c-2.1,0.7-3.1-2.4-3.8-3.8
			c-1-4.2-3.5-8.3-5.5-12.1c-1.4-3.1-3.1-6.2-4.8-9.3c-2.4-3.1-4.2-6.6-6.6-9.7c-1-1.4-2.4-3.1-3.8-4.5s-3.1-3.8-4.8-4.5
			c0.7,0,1,16.3,1.4,18.7c0.3,5.9,1,12.1,1,18c0,1.7,0,3.5,0,4.8c0,3.1-2.8,3.1-5.5,3.1c-4.2,0.3-8.3,0.3-12.5,0.3
			c-2.8,0-5.5-0.7-8.6-0.7c-1-0.3-1-1.7-1-2.8c-0.3-4.5-0.7-9-0.7-13.5c0-9.3-1-18.3-1-27.7c0-11.8-0.7-23.5-0.7-35.3
			c0-4.2,0-8.3,0-12.5c0-2.4,0-4.8,0.3-7.6C228.3,329.9,228,325.7,229.7,324.3"/>
	</g>
	<g>
		<path fill="#010001" d="M369.5,385.6c1.4,1.4,4.5,1.4,5.9,1.4c4.2,0,8.6-1.4,11.8-4.2c-1,1.4-2.8,2.8-4.2,4.2
			c1.7-1.7,1.7,0,2.4,2.1c0,0.7-2.4,2.4-2.8,2.8c0.7-0.7,1-1.7,1.7-2.4c-0.7,1.7-3.8-1-4.5-1.7c-1.7-1-0.7-2.1,0-3.8
			c1.7-5.9,2.1-11.8,2.4-17.6c0.3-11.1-0.7-21.8-2.1-32.9c-0.3-3.1-0.7-6.2-1-9c-0.3-1.7-0.3-3.5-0.7-4.8c-0.3-2.1-1.4-4.8,1-5.5
			c4.8-1,9.7-1,14.9-1c4.2,0,8.6,0,12.8,0c2.8,0,5.2,0,8,0.3c1.7,0,3.1,0.3,4.8,0.7c2.4,0.3,2.4,0.7,3.1,3.1
			c6.9,21.4,9.7,44.6,8,67.1c-2.1,24.2-13.8,51.5-39.8,57.1c-11.8,2.8-24.9,2.8-36.3-1.7c-11.8-4.5-22.5-14.5-27-26.3
			c-5.9-11.4-6.2-23.9-8-36.3c-0.3-10,0.3-20.1,1.7-30.1c1-6.6,2.1-12.8,3.5-19.4c0.7-2.8,1.4-5.9,2.4-8.6c0.3-1,0.3-3.5,1.4-3.8
			c1.4-1,3.8-1.4,5.5-1.4c4.8-0.7,9.3-0.7,14.2-0.7c4.8,0,9.7-0.3,14.5,0.3c1.4,0,8,0,7.6,2.4c-0.7,3.8-1,7.6-1.4,11.4
			c-0.7,6.6-1,13.5-2.1,20.1c0,9.7-1.7,19.4,0.3,29.1C367.4,377.9,367.7,382.8,369.5,385.6"/>
		<path fill="#FFFFFF" d="M336.3,323.3c2.1-2.1,7.3-1.4,10-1.7c2.1,0,4.2,0,5.9,0c2.4,0,9-0.7,8.6,2.8c0,4.8-1.4,10-1.4,14.9
			c-0.7,5.5-1,11.4-1.4,17c-0.3,3.5-0.7,8,0,11.1c0.3,7.3,0.3,18.3,6.2,23.9c4.5,5.9,13.5,6.2,19,1.7c6.6-4.8,7.6-17.3,7.6-24.6
			c0-3.8,0-7.6-0.3-11.4c-0.3-6.2-1-12.8-1.7-19c-0.7-4.8-0.7-9.7-1.7-14.5c0-1.7,7.6-1.7,9-1.7c2.1,0,4.2-0.3,6.2,0
			c1.7,0,3.5,0,5.2,0.3c3.1,0.3,3.5,0.3,4.5,3.5c0.7,4.5,2.8,9,3.5,13.5c1,4.2,1.4,9,2.1,13.1c4.2,30.1,0.3,75.1-36.7,80.6
			c-11.4,1.7-23.9-1-32.9-8c-4.5-4.8-9.7-9.7-11.8-16.3c-3.8-6.2-4.5-14.5-5.9-21.4c-1-8.3-1.4-16.6-0.7-24.9
			c0.3-6.2,1-12.1,2.1-18.3c0.3-3.1,1-6.2,1.7-9c0.3-2.1,0.7-4.2,1.4-6.2C334.5,327.8,335.2,323.6,336.3,323.3"/>
	</g>
	<g>
		<path d="M426.2,315.3c3.5-1,8-0.3,11.8-0.7c4.5,0,9-0.3,13.5-0.3c8,0,15.9-0.3,23.9-0.3c15.9,0,32.2-0.3,48.1,0.7
			c2.8,0.3,8.3-0.7,10.7,1.4c1.4,2.4,1,7.3,0.7,10.4c-0.3,6.2-1.4,12.5-2.4,19c-0.7,3.5-1.4,6.9-2.8,10s-2.8,3.1-5.9,3.1
			c-7.3,0.3-14.9,0.3-22.1,0.7c0.7,16.6,1.4,33.6,2.1,50.2c0.3,8.3,0.7,16.6,1,25.3c0,2.8-0.3,4.5-3.5,5.2c-5.2,1-10.4,0.7-15.6,0.7
			c-4.2,0-8,0-12.1,0c-2.8,0-6.2,0-9-0.7c-2.8,0-5.2-0.3-7.3-2.1c-1.4-1-0.7-2.8-0.7-4.5c0-3.8,0.3-7.6,0.3-11.4
			c0.7-19.7,1.4-39.4,2.1-58.8c0-1,0-2.1,0-2.8c0-0.3-5.2,0-5.5,0c-4.2,0-8.6,0-12.8,0c-2.8,0-6.9,0-9-2.1
			c-4.2-4.5-5.2-14.5-5.9-20.8c-0.3-3.8-0.7-8-0.7-11.8C425.2,322.2,424.5,318.1,426.2,315.3"/>
		<path fill="#FFFFFF" d="M440,323.6c3.1-0.7,6.9-0.3,10-0.7c3.8-0.7,8.3,0,12.1-0.3c7.3-0.7,14.9-0.3,22.5-0.3
			c7.3,0,14.9,0.3,22.1,0.3c2.8,0,5.5,0,8.3,0.3c1.4,0,5.5-0.3,6.2,1.4c1.4,5.2,0.7,12.1-0.3,17.3c-0.7,3.1-0.3,6.9-3.8,7.6
			c-3.1,0.7-6.2,0.3-9.7,0.7c-4.2,0.3-8.3,0-12.5,0c-1.4,0-0.7,0.7-0.7,2.1c0,2.4,0.3,5.2,0.3,7.6c0,5.9,0.7,12.1,1,18
			c0.7,11.8,1.7,23.5,1.7,35.3c0,3.8,0.3,7.6,0.3,11.8c0,1.7-0.3,3.1-0.3,4.8c0,2.4-5.9,1.7-7.3,1.7c-3.5,0-7.3,0-10.7,0
			c-2.4,0-4.5-0.3-6.9-0.3c-1.7,0-3.5,0-5.2-0.3c-1.4-0.3-1-0.3-1.7-1.4c-1-2.8-0.3-7.3-0.3-10.4c0-3.5,0-6.6,0-10
			c0-16.3,0.3-32.9,1-49.1c0-0.3,0.3-8.6,0.3-8.6c-2.8,0.3-5.9,0.3-9,0.3c-4.5,0-9,0-13.5-0.7c-3.5-0.7-3.5-4.8-3.8-8
			c0-2.8-0.7-5.2-0.7-8C439.4,331.6,438.7,326.7,440,323.6"/>
	</g>
	<g>
		<path d="M621,317.4c1.4-1.4,5.9-1.4,7.6-1.4c2.4-0.3,4.8-0.3,6.9-0.7c6.2-0.7,12.5-0.3,18.3-0.7c5.5,0,11.4-0.7,16.6,0
			c2.8,0,5.5,0.7,8.3,0.7c3.1,0.7,4.2,1,4.8,4.5c0.7,5.2,1,10,1,15.2c0,2.4,0,5.2-1,8c0,2.4-0.3,4.8-1.7,7.3
			c-3.5,5.2-9.3,4.5-14.5,4.5c0,7.3-0.7,14.2-0.3,21.4c0.3,6.2,1,12.5,1.4,18.7c0,0.3,0.3,3.5,0.3,3.5c2.1,0,4.2-0.3,6.2-0.3
			c3.5,0,10.7-1,12.1,3.1c1.4,4.8,1.4,10,1.4,14.9c0,4.8,0,9.7,0,14.9c0,1,0,2.4-0.3,3.5c0,1.7-0.3,3.1-0.7,4.8
			c-0.7,1.7-1.7,1.4-3.1,1.7c-7.6,0-14.9,1-22.5,1c-6.6,0-13.5,0-20.1,0c-5.5,0-11.8,0.3-17-0.7c-3.5,0-8.6,0.7-9-3.8
			c0-3.1,0-6.2,0-9.3c0-8.6,0-17.3,1.4-25.6c0.3-2.4,0.7-4.8,3.5-5.2c3.8-0.3,8,1,11.8,2.1c1.7-8.6,2.1-17.6,2.4-26.3
			c0-4.5,0.3-9,0.7-13.5c0-1.7,1-4.8-1-4.5c-3.8,0-8,0-11.4-1c-4.8-1.4-6.2-5.5-5.9-10c0.3-3.8,0.3-7.3,0.3-11.1
			c0-2.4,0.3-4.8,0.7-7.3C618.9,322.6,619.2,319.1,621,317.4z"/>
		<path fill="#FFFFFF" d="M627.2,324c1.7-1.7,8-1.4,10-1.7c3.5-0.3,6.9-0.3,10.4-0.7c7.3-0.3,14.2,0,21.4,0c1.7,0,4.2,0.3,5.9,0.7
			c1.7,0.7,1.7,2.8,2.1,4.2c0.7,3.8,0.7,7.6,0.7,11.4c0,2.4,0,4.8-0.3,6.9c-0.3,2.4-1.7,2.1-3.8,2.1c-3.8,0-7.6-0.7-11.4-0.7
			c0,19.7-0.3,39.4,2.8,59.2c3.1,0,13.8-3.8,15.2,0.7c1.4,6.2,1.4,12.8,1,19.4c0,2.1,0.3,6.6-1.7,7.6c-2.4,1.4-6.9,1-9.3,1
			c-5.2,0.7-11.1,0.3-16.3,0.3c-5.5,0-11.4-0.3-17-0.3c-3.1-0.3-6.6-0.7-9.7-0.7c-0.7-0.3-1.7-0.3-2.4-0.3c-1-1-1-3.1-1-4.2
			c0-6.2-0.7-12.5,0.3-19c0.7-4.2,2.4-4.8,6.6-4.5c2.4,0.3,5.5,1.4,8,1.4c1.7-19.7,2.4-39.1,2.4-59.2c-2.8,0-5.2,1-8,1
			c-1.7,0-3.5,0-5.2-0.7c-2.1-0.7-1.7-2.8-2.1-4.5c0-3.5-0.3-6.6,0.3-10C625.1,330.9,625.1,326.1,627.2,324z"/>
	</g>
	<g>
		<path fill="#010001" d="M365,285.9c-1.4,0.3-2.4,2.1-3.5,3.1c-2.1,2.1-4.5,4.5-6.9,6.2c-4.8,3.8-10.7,7.3-17,3.8
			c-11.4-6.9-5.5-25.3-0.7-33.9c5.9-10.4,22.1-23.2,34.6-17c3.5,1.7,5.9,5.2,8.3,8.3c1.4,1.7,2.8,3.5,4.8,3.5
			c2.8,0.3,5.9-2.4,7.3-4.5c2.8-3.8,5.9-7.3,10-9.7c7.6-4.5,15.2-1.7,18.7,6.2c4.5,10.7-1.4,21.4-6.9,30.4
			c-5.5,9.3-12.5,17-23.5,17.3c-6.2,0.3-11.8-0.7-16.3-5.2c-1.7-1.4-2.8-3.5-4.2-5.2C368.8,288.7,367.7,285.6,365,285.9"/>
		<path fill="#FFFFFF" d="M365,279c-2.4,0-4.2,2.4-5.5,3.8c-2.1,2.4-4.2,4.8-6.9,6.2c-6.2,2.8-11.1-2.1-11.1-8c0-6.2,4.2-13.5,8-18
			c4.8-5.5,12.1-9.3,19.4-6.9c5.9,1.7,9,8,14.5,10.4c5.9,2.4,8.6-3.5,11.8-7.3c4.2-4.8,10-8,16.3-5.2c4.5,2.1,4.2,7.3,2.8,11.4
			c-2.8,9-9.7,18.3-18,22.8c-6.2,3.5-13.5,3.8-19-0.7C373.6,284.9,370.5,279,365,279"/>
	</g>
	<g>
		<path d="M769.4,330.9c2.4,5.2-1,12.5-3.1,17c-2.8,5.5-5.2,11.8-9.3,16.6c-2.4,2.4-5.2,4.2-9,3.1c-2.8-1-4.8-4.8-6.2-6.9
			c-1.7-2.4-11.8-18-15.2-10.4c-1.4,3.1,0.7,5.2,3.5,6.6c3.8,2.1,7.6,3.8,11.4,5.2c3.8,1.7,8,2.8,11.4,5.2c3.8,2.8,6.9,6.2,10,9.7
			c4.2,4.8,6.6,12.1,8.3,18c1.7,6.9,0.7,15.2-1.4,21.8c-5.5,18-28.4,23.5-45,23.5c-8,0-15.9-0.7-23.2-3.5c-3.8-1.4-7.6-3.1-11.1-4.8
			c-2.1-1-4.5-1.7-4.8-4.2c-0.7-7.3,1-15.2,2.4-22.1c1-6.2,2.8-12.5,5.5-18c2.4-4.5,6.9-8.6,11.4-4.5c4.5,4.2,8.3,9.3,13.5,12.8
			c2.4,1.7,8,4.2,9-0.3c0.7-3.1-3.8-4.8-6.2-5.9c-8.3-3.5-16.6-6.2-24.6-11.1c-15.6-9.3-16.3-33.9-9.3-48.8
			c13.8-29.8,56.7-25.9,77.5-5.9C766.6,326.4,768.3,328.5,769.4,330.9C771.5,335.7,767.3,326.1,769.4,330.9z"/>
		<path fill="#FFFFFF" d="M758.3,336.8c0,7.3-2.4,13.8-4.8,20.4c-0.7,1.4-2.8,7.3-4.5,4.2c-1.4-2.8-3.5-5.2-4.8-8
			c-4.8-5.2-12.1-13.5-20.1-10.4c-3.1,0.7-4.5,5.5-4.5,8.3c-0.7,4.8,2.4,8.3,6.6,10.4c6.6,2.8,13.5,4.5,19.7,8.3
			c3.8,2.8,7.3,6.2,9.7,10c2.4,4.2,3.1,8.6,4.8,13.1c1,6.6-0.3,12.8-1,19.4c-3.5,9.3-9,15.2-19,18c-13.1,4.2-27.3,2.8-39.4-3.1
			c-2.8-1.4-8-4.2-8-8c0-3.5,1-7.3,1.7-10.7c1.4-6.6,4.2-13.5,6.9-19.7c1.7-2.8,2.4,0.3,4.5,1.7c3.1,3.5,6.9,6.2,10.4,9.3
			c2.8,1.7,6.6,4.8,10,3.8c4.5,0,4.8-7.3,4.8-10c-2.1-8.3-11.4-10.4-18.7-12.8c-2.8-0.7-7.3-1.7-9-3.8c-3.8-2.4-6.2-6.9-7.6-11.1
			c-5.9-15.9-0.7-36,13.8-45.3c9-4.8,20.1-5.5,29.4-1.4C745.9,323.3,756.2,327.8,758.3,336.8C758.3,337.1,758.3,336.4,758.3,336.8z"
			/>
	</g>
</g>
</svg>
