<?xml version="1.0" encoding="utf-8"?>
<!-- Generator: Adobe Illustrator 18.0.0, SVG Export Plug-In . SVG Version: 6.00 Build 0)  -->
<!DOCTYPE svg PUBLIC "-//W3C//DTD SVG 1.0//EN" "http://www.w3.org/TR/2001/REC-SVG-20010904/DTD/svg10.dtd" [
	<!ENTITY ns_flows "http://ns.adobe.com/Flows/1.0/">
	<!ENTITY ns_extend "http://ns.adobe.com/Extensibility/1.0/">
	<!ENTITY ns_ai "http://ns.adobe.com/AdobeIllustrator/10.0/">
	<!ENTITY ns_graphs "http://ns.adobe.com/Graphs/1.0/">
]>
<svg version="1.0" id="Camada_1" xmlns:x="&ns_extend;" xmlns:i="&ns_ai;" xmlns:graph="&ns_graphs;"
	 xmlns="http://www.w3.org/2000/svg" xmlns:xlink="http://www.w3.org/1999/xlink" xmlns:a="http://ns.adobe.com/AdobeSVGViewerExtensions/3.0/"
	 x="0px" y="0px" viewBox="-31 357.8 356.7 349.3" enable-background="new -31 357.8 356.7 349.3" xml:space="preserve">
<image overflow="visible" width="2486" height="2479" xlink:href="../../banco de imagens/bot천es/butt 22.png"  transform="matrix(0.1336 0 0 0.1336 -18.7816 368.796)">
</image>
<g>
	
		<image overflow="visible" width="2631" height="2500" xlink:href="../../banco de imagens/bot천es/butt 31.png"  transform="matrix(3.166667e-002 0 0 3.166667e-002 11.9652 576.965)">
	</image>
	
		<image overflow="visible" width="2631" height="2500" xlink:href="../../banco de imagens/bot천es/butt 31.png"  transform="matrix(3.166667e-002 0 0 3.166667e-002 105.6758 576.965)">
	</image>
	
		<image overflow="visible" width="2631" height="2500" xlink:href="../../banco de imagens/bot천es/butt 31.png"  transform="matrix(3.166667e-002 0 0 3.166667e-002 199.3865 576.965)">
	</image>
</g>
<g>
	<g>
		<path d="M133.4,498.4c3.2-1.7,6.4-3.8,9-6.4c2.3-2.3,4-5.1,5.3-8c1.9-4.6,2.6-9.6,2.7-14.6c0.1-4.8-0.2-9.6-1.7-14.1
			c-1-3-2.4-6-3.9-8.8c-2.2-4-5.5-7.3-8.9-10.3c-3.5-3.2-7.4-5.8-11.9-7.4c-3.6-1.3-7.2-2-11-2.3c-4.6-0.4-9.3-0.9-13.9-0.9
			c-4.4,0-8.8,0-13.2,0c-5,0-10.1,0.3-15.1,1c-2.7,0.4-5.9,0.9-7.6,3.4c-1.2,1.8-1.2,4.2-1.2,6.3c0,2.1,0,4.2,0,6.3
			c0,10.1,0,20.1,0,30.2c0,13.1,0,26.2,0,39.3c0,10.4,0,20.7,0,31.1c0,2.4,0,4.7,0,7.1c0,1.1,0.5,2.1,0.9,3.2c0.2,0.5,0.4,1.1,1,1.3
			c0.6,0.2,1.3,0.3,2,0.4c1.6,0.2,3.2,0.3,4.8,0.4c4.7,0.2,9.4,0.3,14.1,0.5c4.6,0.1,9.2-0.3,13.8-0.6c0.7,0,1.3-0.1,2-0.1
			c0.2,0,0.6,0,0.8-0.1c0,0-0.3,0-0.3,0c0.1-0.2,1.2-0.3,1.4-0.4c0.5-0.1,1.2-0.1,1.7-0.4c1-0.2,2.4-0.7,2.9-1.7
			c0.4-0.8,0.6-2,0.7-2.9c0.2-1.8,0.3-3.7,0.2-5.5c-0.1-1.2,0-2.5-0.1-3.7c-0.1-1-0.1-1.9-0.1-2.9c0-1.1-0.4-2.4-0.8-3.4
			c-0.5-1.2-0.7-2.5-1.1-3.6c-0.2-0.6-0.4-1.1-0.6-1.7c-0.1-0.5-0.6-0.9-0.6-1.5c0-0.9,0.3-1.9,0.4-2.8c0.1-1-0.5-0.6-1.2-0.8
			c-0.5-0.1-0.3-1-0.3-1.4c0-0.8-0.1-1.6-0.1-2.4c-0.2-1.4-0.2-2.9-0.4-4.4c0-0.8,0-1.7-0.2-2.5c-0.1-0.5-0.2-1.1-0.2-1.7
			c0.2,0.2-2.7,0.8-2.9,0.8c-0.3,0-3.1,0.6-2.7,0.9c0.5,0.4,4.2,1.3,3.2,2.1c-0.5,0.5-1.3,0.7-0.9,1.4c0.7,1.2,1.5,2.5,2.1,3.7
			c2.6,5.2,4.8,10.7,6,16.4c0.9,4.5,1.7,9.1,2.8,13.7c0.2,0.7,0.3,1.4,0.6,2.1c0.2,0.3,0.5,0.9,1,1.2c0.7,0.5,1.4,0.5,2.2,0.7
			c1.4,0.3,2.9,0.5,4.4,0.6c2.8,0.1,5.5,0.2,8.3,0.4c3.3,0.2,6.6,0.1,9.9,0.1c1.5,0,3-0.1,4.5-0.2c1.3-0.1,2.5-0.2,3.8-0.3
			c1.4-0.2,3-0.5,4.4-0.5c1.2-0.2,2.4-0.4,3.6-0.7c0.6-0.2,1.2-0.3,1.7-0.6c0.6-0.3,0.7-0.7,0.8-1.3c0.3-1.5-0.3-3-0.3-4.5
			c-0.5-2.5-0.7-5.2-1.4-7.7c-0.7-2.6-1.2-5.3-1.8-8c-0.5-2.1-1.1-4.1-1.9-6.1c-1-2.8-2-5.6-3.2-8.3c-1.4-3.2-3.2-6.3-5.2-9.2
			C139.3,504.7,136.2,501.6,133.4,498.4z"/>
		<path fill="#FFFFFF" d="M125.8,498.1c0.1,0.5,1.1,1.2,1.4,1.5c0.8,0.8,1.6,1.5,2.3,2.3c1.4,1.6,2.8,3.2,4,4.8
			c3.4,4.6,6.5,9.7,8.7,15c1.2,2.7,2.3,5.4,3.3,8.2c0.9,2.3,1.5,4.8,2.2,7.2c0.6,2.2,1.1,4.7,1.1,7c0,0.9,0,1.8-1,2.2
			c-1.3,0.6-2.7,0.8-4.1,1c-1.3,0.2-2.7,0.3-4.1,0.5c-1.5,0.2-3.1,0.4-4.6,0.4c-1.4,0-3,0-4.4,0.1c-1.5,0.2-3,0-4.5,0
			c-2.8,0-5.5-0.3-8.3-0.9c-0.8-0.2-2.3-0.6-2.7-1.4c-0.5-1.1-0.7-2.2-1-3.3c-0.6-2.4-1-4.9-1.4-7.3c-0.4-2.7-1.3-5.5-2.1-8.1
			c-0.8-2.5-1.7-5.1-2.8-7.5c-1.2-2.6-2.5-5.2-4.2-7.5c-0.8-1.1-1.5-2.2-2.3-3.3c0,0.9,0.2,1.7,0.2,2.6c0.2,1.5,0.3,3.1,0.4,4.6
			c0.3,3,0.3,6,0.5,8.9c0.2,2.9,0.2,5.9,0.2,8.8c0,2.9,0,5.7-0.4,8.5c-0.2,1.1-0.2,2.6-1,3.5c-0.8,0.8-2.5,1.3-3.6,1.5
			c-2.7,0.5-5.6,0.9-8.3,0.9c-2.8,0-5.5,0.1-8.3,0.1c-2.8,0-5.7-0.4-8.5-0.7c-0.8-0.1-2.5-0.3-3-1.1c0-0.2-0.3-0.9-0.4-1.2
			c0-0.6-0.1-1.2-0.2-1.8c-0.2-1-0.1-2.1-0.3-3.1c-0.1-0.6,0-1.3-0.1-1.9c-0.1-0.7-0.1-1.4-0.1-2.1c0-5.9-0.4-11.8-0.4-17.7
			c0-5.8,0-11.6,0-17.5c0-5.8,0.2-11.6,0.2-17.4c0-5.8,0.4-11.6,0.4-17.5c0-2.9,0.1-5.8,0.3-8.7c0.2-2.9,0-5.8,0.3-8.6
			c0.3-2.6,0-5.3,0.5-7.8c0-1,0-2.1,0.3-3.1c0-0.8,0.1-2.1,0.5-2.8c1.4-1.6,3.7-2,5.7-2.3c2.7-0.4,5.6-0.5,8.4-0.5
			c11.6,0,23.5-0.8,34.7,2.6c2.5,0.8,5.3,1.8,7.5,3.3c1,0.7,2.1,1.4,3.1,2c1.1,0.7,2.1,1.7,3,2.5c4,3.5,6.7,8.4,8.5,13.3
			c0.8,2.2,1.3,4.6,1.8,6.9c0.5,2.4,0.8,5,0.8,7.4c0,5-0.7,9.6-2.9,14.1c-1.9,3.5-4.7,7-8.1,9.2c-1.2,0.8-2.5,1.5-3.8,2.3
			c-0.7,0.4-1.4,0.7-2.1,1C127.2,497.4,125.8,497.8,125.8,498.1C125.9,498.4,125.8,497.8,125.8,498.1z M114.2,470
			c0-2.9-0.7-5.8-2.4-8.1c-1.7-2.3-3.9-3.7-6.4-4.9c-1.2-0.4-2.5-0.7-3.7-1.1c-0.6-0.1-1.4-0.2-2-0.2c-0.4-0.1-1.6-0.3-1.8,0
			c-0.3,0.3-0.1,1.1-0.1,1.5c-0.1,0.5,0,1.1,0,1.7c0,1.4,0.2,2.7,0.3,4.1c0.3,2.9,0.6,5.8,0.8,8.7c0.2,2.9,0.5,5.7,0.6,8.6
			c0,0.7-0.2,1.3-0.1,1.9c0.1,0.8,0.2,0.6,0.8,0.7c1.4,0.1,2.9-0.2,4.2-0.6c2.6-0.8,5.1-2.1,6.9-4.1
			C113.3,475.8,114.2,473.1,114.2,470z"/>
	</g>
	<g>
		<path d="M158.3,556.1c-0.7-0.6-0.6-1.8-0.9-2.6c-0.3-1.2-0.2-2.5-0.3-3.8c-0.2-2.7-0.2-5.5-0.3-8.3c-0.3-5.5,0.1-11.1,0.1-16.6
			c0-2.7,0.1-5.5,0.2-8.2c0.1-3,0-6,0.3-9c0.2-2.8,0.4-5.8,0.4-8.6c0-2.7,0.4-5.5,0.5-8.2c0.1-1.3,0.3-2.6,0.3-3.8
			c0-1.2,0.5-2.4,0.5-3.6c0.3-0.3,0.3-0.6,0.9-0.8c0.6-0.2,1.2-0.3,1.8-0.4c1.4-0.2,2.8-0.5,4.2-0.6c2.9-0.3,5.9-0.5,8.8-0.5
			c1.3,0,2.7,0.1,4,0.1c1.2,0,2.2,0.4,3.3,0.5c1.6,0.2,3.1,1,4.5,1.5c1.7,0.7,2.9,2,3.3,3.8c0.1,0.3,0.1,2,0.5,1.7
			c0.9-0.7,1.6-1.6,2.5-2.3c7.3-6.2,18.2-6.8,26.6-2.6c1.1,0.5,2.4,1.2,3.4,1.9c1.1,0.5,2.3,1.4,3.2,2.2c0.7,0.7,1.5,1.7,2.3,2.3
			c1.1,0.8,1.5,2.2,2.5,3.1c0.3,1,1.2,1.8,1.2,3c0.2,0.5,0.1,1.3,0.1,1.8c-0.1,1.1-0.4,2.1-0.8,3.1c-2.5,6.1-7,11.6-11.5,16.2
			c-2.1,2.2-4.3,4.3-6.9,6c-1.2,0.8-3.3,2.2-4.8,1.3c-0.6-0.4-1.2-0.9-1.7-1.4c-1.4-1.2-2.8-2.4-4.2-3.5c-1.4-1.2-2.8-2.4-4.3-3.4
			c-1.5-1.1-2.9-1.1-3.8,0.7c-1.7,3.2-0.6,7.1,0.1,10.5c0.7,3.5,1.5,7.1,2.2,10.6c0.7,3.4,1.3,6.8,1.7,10.3c0.1,1,0.2,2,0.1,3
			c-0.2,1.2-1.5,1.8-2.6,2.2c-1.4,0.5-3,0.7-4.5,0.8c-1.7,0.2-3.4,0.5-5.1,0.8c-2.8,0-5.6,0.6-8.4,0.6c-3.1,0.1-6.1,0.4-9.2,0.4
			c-1.7,0-3.5,0.2-5.2,0c-0.9-0.1-1.8,0-2.6-0.1C160,556.3,159,556.4,158.3,556.1C158.2,556,158.4,556.1,158.3,556.1z"/>
	</g>
	<g>
		<path fill="#FFFFFF" d="M165.6,547.6c-0.7-0.7-0.6-2-0.8-2.9c0-1.4-0.2-2.7-0.2-4.1c0-2.7-0.2-5.5-0.2-8.2
			c0-5.4,0.2-10.8,0.2-16.2c0-2.9,0.1-5.8,0.3-8.7c0.1-1.3,0.2-2.6,0.2-3.9c0-1.4,0.2-2.7,0.2-4.1c0-1.3,0.1-2.7,0.3-4
			c0-1.3,0.4-2.5,0.4-3.8c0.3-0.5,0.2-0.8,0.8-0.9c0.6-0.2,1.1-0.2,1.7-0.3c1.4-0.2,2.9-0.3,4.3-0.5c2.8-0.3,5.6-0.2,8.4-0.2
			c1,0,2.5,0,3.3,0.8c0.7,0.7,1.5,1.8,1.7,2.9c0.1,0.4,0.4,3.9,0.7,3.7c0.6-0.3,1.2-1,1.7-1.5c0.9-0.8,1.9-1.3,2.9-2
			c0.9-0.7,2.1-1.3,3.2-1.8c1.2-0.6,2.6-1.1,3.9-1.4c2.5-0.5,5-1,7.6-0.6c2.1,0,4.7,0.8,6.6,1.7c2.4,1.2,5.1,2.7,6.9,4.8
			c1.3,1.6,3.3,3.4,3.3,5.6c0,1.1-1,1.7-1.7,2.4c-1.1,0.9-2.1,2.1-3.2,3.1c-1.9,1.9-3.8,4-5.8,5.7c-0.9,0.8-1.8,1.5-2.6,2.3
			c-0.4,0.3-1,1-1.6,1c-0.1,0.1-1.1-1.3-1.3-1.4c-1.6-2-3.5-4.2-5.7-5.5c-2.2-1.3-4.4-1.7-6.8-0.8c-2.5,0.9-3.8,3.4-4.6,5.8
			c-0.9,2.7-1.2,5.6-1.2,8.4c0,4.1,0.4,8.1,1,12.2c0.3,2.2,0.5,4.4,1,6.6c0.1,0.4,0.7,4.7,0.4,4.7c-0.4,0.4-1.7,0.5-2.3,0.5
			c-1.1,0.1-2.2,0.3-3.3,0.3c-2.2,0.1-4.5,0.3-6.8,0.4c-2.3,0.2-4.6,0-6.8,0.2c-1.1,0.1-2.2,0-3.2,0
			C167.5,548,166.3,548,165.6,547.6C165.5,547.6,165.7,547.7,165.6,547.6z"/>
	</g>
</g>
</svg>
