<?xml version="1.0" encoding="utf-8"?>
<!-- Generator: Adobe Illustrator 18.0.0, SVG Export Plug-In . SVG Version: 6.00 Build 0)  -->
<!DOCTYPE svg PUBLIC "-//W3C//DTD SVG 1.0//EN" "http://www.w3.org/TR/2001/REC-SVG-20010904/DTD/svg10.dtd" [
	<!ENTITY ns_flows "http://ns.adobe.com/Flows/1.0/">
	<!ENTITY ns_extend "http://ns.adobe.com/Extensibility/1.0/">
	<!ENTITY ns_ai "http://ns.adobe.com/AdobeIllustrator/10.0/">
	<!ENTITY ns_graphs "http://ns.adobe.com/Graphs/1.0/">
]>
<svg version="1.0" id="Camada_1" xmlns:x="&ns_extend;" xmlns:i="&ns_ai;" xmlns:graph="&ns_graphs;"
	 xmlns="http://www.w3.org/2000/svg" xmlns:xlink="http://www.w3.org/1999/xlink" xmlns:a="http://ns.adobe.com/AdobeSVGViewerExtensions/3.0/"
	 x="0px" y="0px" viewBox="-31 357.8 356.7 349.3" enable-background="new -31 357.8 356.7 349.3" xml:space="preserve">
<image overflow="visible" width="2486" height="2479" xlink:href="../../banco de imagens/bot천es/butt 22.png"  transform="matrix(0.1336 0 0 0.1336 -18.7816 368.796)">
</image>
<g>
	
		<image overflow="visible" width="2631" height="2500" xlink:href="../../banco de imagens/bot천es/butt 31.png"  transform="matrix(3.166667e-002 0 0 3.166667e-002 11.9652 576.965)">
	</image>
	
		<image overflow="visible" width="2631" height="2500" xlink:href="../../banco de imagens/bot천es/butt 31.png"  transform="matrix(3.166667e-002 0 0 3.166667e-002 105.6758 576.965)">
	</image>
	
		<image overflow="visible" width="2631" height="2500" xlink:href="../../banco de imagens/bot천es/butt 31.png"  transform="matrix(3.166667e-002 0 0 3.166667e-002 199.3865 576.965)">
	</image>
</g>
<g>
	<path d="M215.7,491.4c1.7,2.9-0.8,7-2.3,9.5c-1.9,3.1-3.8,6.7-6.6,9.1c-1.8,1.5-3.9,2.3-6.2,1.9c-2-0.4-3.7-2.1-5.1-3.5
		c-1.9-1.8-3.8-3.8-6-5.2c-0.9-0.5-4.3-2.5-4.9-0.4c-0.4,1.6,1.8,2.2,2.9,2.5c2.1,0.6,4.1,1,6.1,1.9c2.6,1,5.3,1.8,7.9,2.7
		c2.6,0.8,4.8,2.6,6.8,4.4c1.7,1.4,3.4,2.8,4.6,4.6c1.2,1.8,2.1,3.7,3,5.7c0.6,1.4,1.3,2.8,1.5,4.3c0.3,2.1,0.1,4.4-0.3,6.5
		c-0.5,2.5-1.4,5-2.9,7.1c-1.5,2-3.4,3.7-5.5,5.2c-4.5,3.1-10,4.5-15.2,5.5c-5.1,1-10.2,1-15.3,0.7c-4.6-0.2-9.1-0.8-13.4-2.6
		c-2.2-0.9-4.3-1.9-6.4-3.1c-1-0.5-2.7-1.1-3.3-2.1c-0.8-1.4-0.9-3.4-1-5c-0.2-2.4-0.2-4.8,0.2-7.1c0.6-3.6,2.5-7.2,4.8-10
		c2.2-2.8,5.7-5.3,9.4-3.6c1.6,0.7,3,1.9,4.5,2.8c1.8,1.1,3.5,2.2,5.3,3.2c0.9,0.5,1.9,1,2.9,1.4c0.9,0.5,2.3,1.3,3.4,0.9
		c0.9-0.3,1.2-1.5,0.6-2.3c-0.5-0.6-1.4-1.1-2.3-1.3c-2.2-0.4-4.5-0.4-6.7-0.9c-2.1-0.5-4.2-1-6.3-1.5c-4-0.9-7.9-1.9-11.2-4.5
		c-3.5-2.9-5.2-8.1-5.5-12.4c-0.4-5.6,1.1-11.7,4.5-16.3c2.5-3.3,5.7-5.3,9.4-7c2-1,4.2-1.8,6.4-2.3c2-0.4,4.1-0.7,6.2-0.9
		c7.1-0.7,14.7,0.3,21.5,2.7c2.3,0.8,4.5,1.8,6.6,3C210.5,486.5,214.2,488.4,215.7,491.4C217.3,494.1,214.3,488.7,215.7,491.4z"/>
	<path fill="#FFFFFF" d="M207.9,494.6c0,2.4-0.6,4.7-1.5,7c-0.4,1.1-0.9,2-1.4,3.1c-0.7,1.1-1.2,2.5-2.1,3.5
		c-0.3,0.3-0.7,0.8-1.2,0.8c-0.4,0-0.8-1-1-1.3c-0.7-1.1-1.6-2-2.4-3c-1.5-1.8-3.6-3.5-5.7-4.6c-2.4-1.3-4.9-2.4-7.7-2.4
		c-1.9,0-4.3,1-4.9,3c-0.3,1.1-0.6,2.3-0.4,3.5c0.3,1.4,1.1,2.2,2.2,3c2.1,1.3,4.5,1.9,6.8,2.5c2.5,0.7,4.9,1.4,7.4,2.2
		c1.2,0.4,2.3,1,3.4,1.6c1.1,0.7,2.3,1.4,3.3,2.3c4.3,3.6,7.1,9.3,6.6,14.9c-0.3,2.8-0.7,6-2.4,8.4c-1.2,2.5-3.9,4.4-6.3,5.6
		c-4.6,2.3-9.9,2.7-15,3.2c-2.7,0-5.5,0.3-8.2-0.1c-2.8,0-5.7-0.9-8.4-1.6c-2.5-0.7-5.2-1.6-7.3-3.1c-0.7-0.5-1.9-1.4-1.9-2.5
		c0-1.1,0.2-2.5,0.6-3.6c0.8-2.3,1.5-4.7,2.5-6.9c1-2.2,1.9-4.6,3.4-6.5c0.2-0.3,0.4-0.7,0.8-0.7c0.3,0.3,0.7,0.7,1.1,0.9
		c1,0.8,1.9,1.6,2.9,2.3c2.4,1.7,4.7,3.4,7.4,4.7c2,1,4.9,2,7,0.8c1.8-1.5,2.7-4.2,1.7-6.4c-1-2.1-4-3.4-6.1-3.9
		c-2.3-1-4.9-1.4-7.4-2c-1.3-0.3-2.7-0.6-4-1c-1.5-0.5-2.7-1.3-4.1-2.2c-2.1-1.7-3.4-4.1-4.4-6.6c-1.7-4.5-0.9-10.3,1-14.6
		c1.9-3.7,4.9-7,8.8-8.6c3.7-2,8.1-2.5,12.2-2.7c4.8-0.2,9.4,1.5,13.9,3c2.1,0.8,4.2,1.9,6,3.1C205.3,491.1,207.2,492.4,207.9,494.6
		C207.9,494.7,207.8,494.5,207.9,494.6z"/>
</g>
<g>
	<path d="M159,446.8c1.7,3.7,0.1,8.6-1.2,12.2c-1,2.6-2.3,5.1-3.5,7.6c-1.6,3.1-3,6.4-4.9,9.4c-2.3,3.7-6,7.3-10.6,5.8
		c-1.5-0.5-2.6-1.9-3.5-3.1c-1.3-1.8-2.5-3.7-3.7-5.5c-2.4-3.7-5.3-8.1-9.7-9.7c-1.9-0.7-3.2,0.4-3.8,2.2c-0.6,1.8,0,3.3,1.5,4.5
		c1.6,1.3,3.6,2,5.5,2.9c2.3,1,4.5,2.3,6.8,3.3c2.5,1,5.2,1.9,7.7,3c2.2,1,4.2,2.5,6,4.2c2,1.8,3.9,3.8,5.7,5.8
		c1.3,1.5,2.6,2.9,3.6,4.6c2.1,3.7,3.7,7.7,5,11.7c1,3.2,1.6,6.1,1.5,9.5c-0.1,5.3-0.8,11-2.8,15.9c-1.9,4.7-5.6,8.6-9.7,11.6
		c-4.2,3.1-9.1,5-14.1,6.5c-5.3,1.5-10.8,2.4-16.3,2.5c-4.8,0.1-9.7-0.1-14.5-0.8c-2.2-0.3-4.4-0.7-6.6-1.3
		c-2.2-0.7-4.2-1.6-6.3-2.5c-2.3-0.9-4.6-1.9-6.8-2.9c-1.6-0.7-3.2-1.4-4.6-2.4c-0.8-0.6-0.9-1.5-1-2.5c-0.1-1.8,0-3.6,0.2-5.4
		c0.7-8.3,2-16.8,4.4-24.7c1.1-3.5,2.4-7.1,4.6-10c1.6-2.2,4-4.2,6.9-3.4c1.4,0.4,2.4,1.2,3.4,2.2c1.3,1.3,2.7,2.6,4,3.9
		c2.6,2.6,5.2,5.6,8.3,7.6c1.7,1.1,4.4,2.6,6.5,1.8c2.2-0.8,2.4-3.7,0.8-5.2c-1.2-1.2-2.9-1.8-4.4-2.5c-2.5-1.1-5-2-7.5-3
		c-5-1.8-9.9-4.1-14.5-6.7c-2-1.1-4.1-2.3-5.8-3.9c-1.7-1.7-3.1-3.7-4.3-5.8c-1.3-2.3-2.3-4.7-3-7.3c-0.7-2.6-0.9-5.2-1.2-7.9
		c-0.5-5.7-0.2-11.2,1.3-16.7c1.3-4.8,3.6-9.5,6.8-13.4c2.3-2.9,5.3-5,8.4-6.9c1.9-1.2,4-2.4,6.1-3.3c1.9-0.8,3.8-1.3,5.9-1.7
		c4.3-0.9,8.5-1.5,12.9-1.3c8.3,0.3,16.7,2.4,24,6.4c2.8,1.5,5.5,3.3,8,5.3C153.8,439.8,157.4,442.8,159,446.8
		C161.1,451.4,157.1,442,159,446.8z"/>
	<path fill="#FFFFFF" d="M148.6,452.2c0,2.9-0.3,5.8-1.1,8.6c-0.8,2.6-1.3,5.3-2.4,7.8c-1,2.2-1.6,4.8-3.1,6.8c-0.4,0.5-1.5,2-2,0.8
		c-0.7-1.4-1.4-2.8-2.2-4.1c-2.7-4.6-6.6-9-11.1-11.9c-2.2-1.4-4.5-2.2-7-2.7c-2.4-0.6-5.8,0.7-7,3c-2.3,4.6-2.3,10.9,2.4,14
		c2.4,1.6,5,2.5,7.7,3.4c2.5,0.9,5,1.7,7.4,2.7c2.5,1,4.9,2.4,7.1,4c1,0.9,2.2,1.7,3.1,2.7c0.9,1,1.8,2,2.7,3
		c1.6,2.2,3.3,4.6,4.2,7.2c0.4,1.3,1,2.5,1.4,3.8c0.5,1.6,0.7,3.1,1.1,4.7c0.3,1.2,0.4,2.6,0.4,3.9c0,1.4,0.1,2.7,0.1,4.1
		c-0.1,2.7-0.4,5.4-1,8.1c-1.2,5.7-3.7,11.1-8.3,14.8c-2.3,1.9-5.1,3.3-7.9,4.3c-2.7,0.8-5.4,1.7-8.2,2c-5.9,0.7-11.7,1.2-17.6,0.6
		c-1.3-0.1-2.7-0.5-3.9-0.8c-1.5-0.4-2.9-0.8-4.3-1.3c-2.6-0.8-5.4-1.9-7.7-3.4c-2.2-1.4-4.5-2.9-5.8-5.3c-0.6-1.1-0.4-2.6-0.3-3.8
		c0.2-1.5,0.5-3,0.8-4.5c0.6-2.9,1.5-5.7,2.3-8.5c0.8-2.9,2.1-5.7,3-8.5c0.4-1.2,1-2.3,1.4-3.4c0.3-0.5,0.5-1.1,0.8-1.6
		c0.2-0.3,0.6-1.4,1.1-1.4c0.3,0,0.8,0.6,1,0.9c0.4,0.5,0.9,1,1.3,1.5c0.9,1,1.9,1.9,2.8,2.8c2,2.1,4.2,4.1,6.5,5.9
		c2.1,1.6,4.5,3.4,7.1,4.2c1.2,0.4,2.4,0.7,3.6,0.5c1.6-0.2,2.7-1.1,3.5-2.5c1.4-2.3,1.8-5.5,1.3-8.2c-1-5.3-7.4-7.9-11.9-9.4
		c-2.6-0.9-5.1-1.8-7.7-2.5c-2.7-0.8-5.3-1.7-7.5-3.5c-4.4-3.7-6.5-9.3-7.7-14.7c-0.4-3-0.9-5.8-0.8-8.9c0.1-2.9,0.3-5.8,0.9-8.6
		c0.6-2.8,1.3-5.6,2.6-8.1c1.3-2.6,2.6-4.9,4.4-7.1c1.8-1.9,3.7-3.9,6-5.2c2.6-1.5,5.2-2.9,8.2-3.6c3.8-0.9,7.9-1.6,11.8-1
		c3.9,0.6,7.9,1.7,11.5,3.4c3.5,1.6,7.1,3.5,10.1,6c1.6,1.4,3.3,2.8,4.7,4.4C147.4,448.9,148.1,450.4,148.6,452.2
		C148.6,452.4,148.5,451.9,148.6,452.2z"/>
</g>
</svg>
