<?xml version="1.0" encoding="utf-8"?>
<!-- Generator: Adobe Illustrator 18.0.0, SVG Export Plug-In . SVG Version: 6.00 Build 0)  -->
<!DOCTYPE svg PUBLIC "-//W3C//DTD SVG 1.1//EN" "http://www.w3.org/Graphics/SVG/1.1/DTD/svg11.dtd">
<svg version="1.1" id="Camada_1" xmlns="http://www.w3.org/2000/svg" xmlns:xlink="http://www.w3.org/1999/xlink" x="0px" y="0px"
	 viewBox="0 0 1024 768" enable-background="new 0 0 1024 768" xml:space="preserve">
<g>
	<path fill="#ED8100" d="M79.7,560.7c18.1-60.5,39-121.5,68-177.6c34.3-66.4,99.5-110.4,162-148.3c189-114.6,437.5-149.1,653-98
		c28,6.6,37.1,14.9,36.2,45c-1,35.8-13.7,71.5-26.7,104.5c-28.8,73.2-67.4,146.5-116.4,208.4c-38.7,48.8-99.1,67.2-156.5,85.9
		c-81.8,26.7-165.8,47.8-250.3,64.1c-73.9,14.3-133,12.2-205.1-12.6C187.6,612.6,132.6,588.2,79.7,560.7"/>
	<g>
		<path opacity="0.4" fill="#FFA501" d="M176.8,335.4C124,391.5,100.4,485,78.6,557.1c10.7-2.9,74.2-12.9,76.9-21.3
			c7.5-23.4,15.1-46.8,22.6-70.2c19.6-60.9,39.2-121.7,58.8-182.6C215.8,299,195,316,176.8,335.4"/>
		<path opacity="0.4" fill="#FFA501" d="M217.6,504.7c33.9,41.9,67.8,83.8,101.8,125.7c20,24.7,22,29.9,57.8,25.9
			c58.1-6.5,115.7-20,172.4-33.9c-58.3-47.7-116.7-95.4-175-143.1c-23-18.8-26.3-31-53.1-19.4C286.8,474.8,252.2,489.8,217.6,504.7z
			"/>
		<path opacity="0.4" fill="#FFA501" d="M422.8,176.8c-2.7,81.5-5.3,162.9-8,244.4c29.7-12.9,59.4-25.8,89.1-38.8
			c25.4-11,42.5-10.1,46.6-37c10.7-71.2,21.4-142.5,32.1-213.7C527.6,140.6,474.2,155.7,422.8,176.8"/>
		<path opacity="0.4" fill="#FFA501" d="M652.4,309.8c32.7,53,65.4,106,98.2,159.1c14.6,23.7,29.2,47.3,43.8,71
			c13.2,21.4,95.2-96.3,100.6-105c5.7-9.3,37.6-52.2,28.6-58.9c-12-9-24-17.9-36.1-26.9c-31.8-23.7-63.7-47.5-95.5-71.2
			c-22.2-16.6-24.5-10.7-51.7-0.6C711,288.1,681.7,298.9,652.4,309.8z"/>
		<path opacity="0.4" fill="#FFA501" d="M988.9,146c-43-18.7-96.3-21.2-142.3-24.6c3.5,32.6,6.9,65.1,10.4,97.7
			c45.1-22.1,90.3-44.3,135.4-66.4C991.2,150.4,990,148.2,988.9,146"/>
		<path fill="#B84D0D" d="M43.9,547.8c26.9-3.2,53.5,0,79.6-9.3c30.6-10.8,60.5-23.7,90.4-36.3c99.2-41.9,197.5-85.9,295.7-129.9
			c102.9-46,205.7-92.4,308.7-138.5c9.1-4.1,144.7-70.4,148.8-64.3c3.9,5.8-155.8,83-165.3,87.5
			c-117.1,55.6-235.3,109.1-353.5,162.4C351.7,463,255,506.1,158,549c-12.6,5.6-30.1,17.7-44,19.1c-26.2,2.7-52.3,5.4-78.5,8.1
			C8.1,579,21.9,546.7,43.9,547.8z"/>
	</g>
</g>
<g>
	<path fill="#020202" d="M786,542.6c-0.3-4.2,2.1-9.3,3.5-13.5c1.7-5.5,3.1-10.7,4.8-16.3c3.5-10.4,6.6-20.8,9.7-31.1
		c3.1-10,6.6-20.1,9.7-30.1c3.1-9.7,5.9-19.7,9.7-29.1c1.4-3.5,1.7-6.9,5.9-7.3c5.2-0.3,10.4-0.7,15.9-0.3c4.2,0,9.3-0.3,13.5,0.7
		c1.4,0.3,1.7,1.7,2.1,2.8c1,2.8,2.1,5.9,3.1,8.6c3.8,10.4,6.9,21.1,10,31.8c3.1,10.4,6.9,20.8,10,31.5c3.1,10.4,6.9,20.8,10,31.1
		c1.4,4.5,2.8,9.3,3.8,13.8c0.3,1.4,0.7,2.8,0.7,4.2c0.3,2.1,1,2.4-1.4,3.1c-3.8,0.7-8.3,0.3-12.5,0.3c-5.5,0-11.4,0-17,0
		c-7.3,0-17.6,2.1-20.1-6.9c-1.4-5.2-0.7-10.7-1-16.3c0-3.1,0-12.1-4.5-12.8c-3.8-0.3-4.2,4.2-4.5,6.9c-1,4.5-2.1,8.6-2.8,12.8
		c-1,4.8-2.4,13.5-8.3,15.2c-7.3,2.1-16.3,1-23.9,1.4c-3.5,0-6.9,0-10.7,0C791.2,544,787,544.3,786,542.6
		C786,540.5,787,544.3,786,542.6z"/>
	<path fill="#FFFFFF" d="M798.1,536c-0.3-4.5,2.1-9.7,3.1-14.2c1.4-5.5,3.1-11.1,4.8-17c2.8-10,5.5-20.1,8.3-30.1
		c3.1-10,6.2-20.4,9-30.4c1.4-5.2,3.1-10,4.5-14.9c0.3-1.7,0.7-3.8,1.7-5.2c1.4-1.7,4.8-1.7,6.9-1.7c4.8-0.3,9.7,0,14.2,0.3
		c1.4,0,3.5-0.3,4.5,0.7c1.7,1.4,2.4,4.8,3.1,6.9c3.5,10.4,6.2,21.1,9,31.5c2.8,10.7,6.2,21.1,9,31.8c1.4,4.8,2.8,9.7,4.2,14.5
		c1.4,5.2,2.1,10.7,3.8,15.9c1,3.1,1.4,6.2,2.1,9.3c0.3,2.1-0.3,2.4-2.4,2.8c-4.5,0.7-9,0.3-13.5,0.3c-3.5,0-6.6,0-10-0.3
		c-3.5-0.7-3.8-3.1-4.5-6.2c-1.7-8.6-3.8-17-5.9-25.3c-0.7-3.5-4.5-2.8-7.6-2.8c-3.1,0-8.6-1-9.7,2.8c-0.7,2.8-1,5.5-1.7,8.3
		c-1,4.8-2.1,9.7-3.1,14.2c-0.3,2.1-1,8-3.1,9c-4.2,1-8.6,1-13.1,1.4C809.5,537.4,799.5,538.8,798.1,536
		C797.8,534.3,798.8,538.1,798.1,536z M848.3,491.1c0.7-1-1-4.8-1.4-5.9c-0.7-3.1-1.4-6.6-1.7-9.7c-0.3-3.1-0.7-6.2-1-9.3
		c0-1-0.3-7.6-2.1-7.6s-2.1,6.6-2.4,7.6c-1,7.6-1.7,14.9-3.5,22.5c0,0.7-1,3.1-0.3,3.5c1,0.7,2.8,0.3,4.2,0.3
		C842.4,492.5,846.9,492.8,848.3,491.1C848.6,490.7,848.3,491.4,848.3,491.1z"/>
</g>
<g>
	<path fill="#020202" d="M605.8,546.1c-0.3-4.2,2.1-9.3,3.5-13.5c1.7-5.5,3.1-10.7,4.8-16.3c3.5-10.4,6.6-20.8,9.7-31.1
		c3.1-10,6.6-20.1,9.7-30.1c3.1-9.7,5.9-19.7,9.7-29.1c1.4-3.5,1.7-6.9,5.9-7.3c5.2-0.3,10.4-0.7,15.9-0.3c4.2,0,9.3-0.3,13.5,0.7
		c1.4,0.3,1.7,1.7,2.1,2.8c1,2.8,2.1,5.9,3.1,8.6c3.8,10.4,6.9,21.1,10,31.8c3.1,10.4,6.9,20.8,10,31.5c3.1,10.4,6.9,20.8,10,31.1
		c1.4,4.5,2.8,9.3,3.8,13.8c0.3,1.4,0.7,2.8,0.7,4.2c0.3,2.1,1,2.4-1.4,3.1c-3.8,0.7-8.3,0.3-12.5,0.3c-5.5,0-11.4,0-17,0
		c-7.3,0-17.6,2.1-20.1-6.9c-1.4-5.2-0.7-10.7-1-16.3c0-3.1,0-12.1-4.5-12.8c-3.8-0.3-4.2,4.2-4.5,6.9c-1,4.5-2.1,8.6-2.8,12.8
		c-1,4.8-2.4,13.5-8.3,15.2c-7.3,2.1-16.3,1-23.9,1.4c-3.5,0-6.9,0-10.7,0C610.6,547.5,606.8,547.8,605.8,546.1
		C605.4,544,606.8,547.8,605.8,546.1z"/>
	<path fill="#FFFFFF" d="M617.5,539.5c-0.3-4.5,2.1-9.7,3.1-14.2c1.4-5.5,3.1-11.1,4.8-17c2.8-10,5.5-20.1,8.3-30.1
		c3.1-10,6.2-20.4,9-30.4c1.4-5.2,3.1-10,4.5-14.9c0.3-1.7,0.7-3.8,1.7-5.2c1.4-1.7,4.8-1.7,6.9-1.7c4.8-0.3,9.7,0,14.2,0.3
		c1.4,0,3.5-0.3,4.5,0.7c1.7,1.4,2.4,4.8,3.1,6.9c3.5,10.4,6.2,21.1,9,31.5c2.8,10.7,6.2,21.1,9,31.8c1.4,4.8,2.8,9.7,4.2,14.5
		c1.4,5.2,2.1,10.7,3.8,15.9c1,3.1,1.4,6.2,2.1,9.3c0.3,2.1-0.3,2.4-2.4,2.8c-4.5,0.7-9,0.3-13.5,0.3c-3.5,0-6.6,0-10-0.3
		c-3.5-0.7-3.8-3.1-4.5-6.2c-1.7-8.6-3.8-17-5.9-25.3c-0.7-3.5-4.5-2.8-7.6-2.8c-3.1,0-8.6-1-9.7,2.8c-0.7,2.8-1,5.5-1.7,8.3
		c-1,4.8-2.1,9.7-3.1,14.2c-0.3,2.1-1,8-3.1,9c-4.2,1-8.6,1-13.1,1.4C629.3,540.9,618.9,542.3,617.5,539.5
		C617.5,537.8,618.6,541.6,617.5,539.5z M667.7,494.5c0.7-1-1-4.8-1.4-5.9c-0.7-3.1-1.4-6.6-1.7-9.7c-0.3-3.1-0.7-6.2-1-9.3
		c0-1-0.3-7.6-2.1-7.6s-2.1,6.6-2.4,7.6c-1,7.6-1.7,14.9-3.5,22.5c0,0.7-1,3.1-0.3,3.5c1,0.7,2.8,0.3,4.2,0.3
		C661.8,495.9,666.3,496.3,667.7,494.5C668,494.2,667.7,494.9,667.7,494.5z"/>
</g>
<g>
	<path fill="#010001" d="M644.2,206c2.4-1.7,5.9-2.1,8.6-2.4c3.8-0.3,7.6-0.7,11.4-0.7c5.5,0,15.9-2.1,19,4.2
		c2.1,4.2,1.7,9,1.7,13.5c0,1-0.3,10-0.7,10c0.3,0.3,5.2-11.1,5.5-12.1c0.7-1.7,1.7-3.5,2.1-5.5c0.7-3.5,2.1-9.3,6.2-9.3
		c5.2,0,10.4-0.7,15.6,0c5.5,0.3,11.1,1.4,16.6,2.8c4.5,1,9.3,2.4,13.5,4.2c1.7,0.7,3.8,1.7,3.5,3.8c-0.3,2.1-1.7,4.2-2.8,5.9
		c-4.8,9-10.4,17-17.3,24.2c-3.5,3.5-6.9,6.9-10.7,9.7c-3.8,2.8-7.6,4.5-11.4,6.9c-3.1,1.7,1,2.8,2.8,3.5c3.8,1.7,6.9,3.8,10.4,6.2
		c3.8,2.8,7.3,5.9,10.7,8.6c3.8,3.5,6.9,7.3,10.4,11.1c3.8,4.2,7.6,8.6,10.7,13.5c2.4,3.5,5.5,6.9,6.6,11.1c0.7,3.5-6.9,5.9-9,6.9
		c-5.5,2.8-11.4,5.2-17.3,7.3c-6.2,2.1-12.8,3.5-19,4.5c-5.2,1-6.2-3.5-8-7.3c-2.8-5.5-5.9-11.1-8.6-16.6c-1.4-2.4-2.4-5.2-3.8-8
		c-1-2.1-3.5-5.5-3.1-7.6c-0.3,3.8,1,8.6,1.4,12.5c0.3,4.8,1,9.7,1,14.5c0,1.7,1,8.6-1,9s-4.2,0.3-6.2,0.3c-9.7,0-19.4,1-29.1,0.7
		c-1.7,0-6.6,0.7-7.6-1.4c-0.7-1.4-0.3-3.1-0.3-4.8c0-2.8-0.3-5.2-0.3-8c-0.7-9.3-1-18.7-1.4-28c-0.3-10.4-1-20.8-1-31.1
		c-0.3-10-0.3-20.1-0.3-29.8c0-4.5,0.3-8.6,0.3-13.1C642.1,212.2,641.4,207.7,644.2,206"/>
	<path fill="#FFFFFF" d="M653.1,215c2.4-2.4,6.6-2.8,10-2.8c3.5,0,7.3-0.3,10.7,0.3c3.5,1,4.2,4.8,4.5,8c0.3,4.8,0,9.7,0,14.2
		c0,5.2,0,10.4,0,15.6c0,3.5,6.6-4.8,7.3-5.9c2.8-3.8,4.8-8.3,6.6-12.5c2.1-4.5,2.8-9.3,4.5-13.8c1.4-3.5,1.4-5.5,5.5-5.2
		c5.2,0.3,10,1.7,14.9,3.5c2.4,1,7.6,2.1,8,5.2c0,4.2-3.1,9.3-5.2,13.1c-4.2,8.3-10.7,17.3-18,23.2c-1.7,1.4-8,4.5-4.8,6.9
		c2.8,2.4,5.9,4.2,8.6,6.6c9.3,8.6,16.3,19.7,23.2,30.4c1.7,3.1,3.8,6.6,1,9.3c-2.8,2.4-6.2,4.2-9.7,5.9c-1.7,0.7-3.1,1.4-4.8,2.1
		c-1.7,0.7-6.2,3.1-8.3,2.4c-1.7-0.7-2.4-3.5-2.8-4.8c-1-3.1-2.4-5.9-4.2-9c-3.1-6.2-6.2-11.8-10-17.3c-1.7-2.8-3.8-5.2-5.9-7.6
		c-1.7-1.7-3.5-4.5-5.9-5.5c1,0.3,1,10,1,11.1c0.3,5.5,0.7,11.1,1,16.6c0.3,4.2,0.3,8.3,0.3,12.8c0,4.2-2.1,4.5-5.5,4.5
		c-4.2,0.3-8.3,0.3-12.5,0.3c-2.1,0-4.2-0.3-6.2-0.3c-2.8-0.3-3.5-0.3-3.5-3.1c-1.4-18.7-1.4-37.4-1.7-56c-0.3-9.3-0.3-18.7-0.3-28
		c0-4.2,0-8.3,0.3-12.5C651.8,220.2,651.1,216.4,653.1,215"/>
</g>
<g>
	<path fill="#010001" d="M379.8,279.4c1.7,1.7,5.9,1.4,8.3,1.4c3.5-0.3,7.3-1.7,9.7-4.2c-1.4,1.4-2.8,2.8-4.2,4.2
		c1.7-1.7,1.7,0.7,2.4,2.1c0.3,0.7-2.1,2.4-2.8,2.8c0.7-0.7,1-1.7,1.7-2.4c-0.7,1.7-5.9-1.7-5.5-3.1c1.4-4.8,2.8-9.7,3.1-14.9
		c0.7-11.1,0-22.5-1.4-33.9c-0.7-5.2-1.4-10.4-2.1-15.6c-0.3-1.7-1-3.8-1-5.9c0-2.8,3.1-2.4,5.2-2.8c10.4-1,21.4-1,31.8-0.3
		c2.1,0,4.5,0,6.2,1c1.4,0.7,1.7,2.4,2.1,3.8c1.7,5.2,3.1,10.7,4.2,16.3c2.1,10.4,3.5,21.1,3.8,31.8c0.3,17-1.4,34.2-9,49.5
		c-7.6,14.5-19.7,24.2-36,26.6c-19,3.1-39.1-2.1-51.9-17.3c-5.9-6.9-9.7-16.6-11.4-25.3c-2.1-10-3.5-20.4-3.1-30.4
		c0-11.1,1.4-21.8,3.5-32.5c1-5.2,2.1-10,3.5-15.2c1-4.2,1-6.9,5.9-7.6c4.8-0.7,9.7-0.7,14.5-0.7c5.2,0,10.7-0.3,15.9,0.3
		c2.1,0.3,4.8,0,6.9,1c1.4,0.7,0.7,2.4,0.3,3.8c-0.3,2.8-0.7,5.9-1,8.6c-1,10.7-2.1,21.1-2.4,31.8c-0.3,5.2-0.3,10.7,0.3,15.9
		C377.4,271.4,377.4,276.2,379.8,279.4"/>
	<path fill="#FFFFFF" d="M346.3,217.4c2.1-2.1,6.6-1.4,9.3-1.7c3.5-0.3,7.3,0,11.1,0c3.8,0.3,4.5,1.4,4.2,5.2
		c-0.3,5.5-1.4,10.7-1.7,16.3c-1,9.7-1.4,19-0.7,28.7c0.3,7.6,1.4,16.6,8,21.4c5.9,4.8,15.6,3.1,20.1-3.1c4.2-5.9,4.8-14.2,4.8-21.1
		c0-10.7-0.7-21.4-2.1-32.2c-0.3-2.4-0.3-4.8-0.7-7.3c0-1.4-1.4-5.2-0.7-6.2c1-1.7,5.9-1.4,7.6-1.4c4.2,0,8.6-0.3,12.8,0.3
		c4.5,0.7,4.2,3.1,5.2,6.9c2.4,9,4.2,18,5.2,27.3c1.4,13.1,1,26.6-2.1,39.4c-2.8,12.1-8.6,24.2-19.7,31.1c-13.8,8.6-33.6,8.3-46.7-1
		c-15.6-10.7-19.7-31.8-20.4-49.5c-0.3-10.4,0.7-21.1,2.1-31.5c0.7-4.5,1.4-9,2.8-13.5C344.2,224,344.9,218.1,346.3,217.4"/>
</g>
<g>
	<path fill="#010001" d="M588.5,279.4c1.7,1.7,5.9,1.4,8.3,1.4c3.5-0.3,7.3-1.7,9.7-4.2c-1.4,1.4-2.8,2.8-4.2,4.2
		c1.7-1.7,1.7,0.7,2.4,2.1c0.3,0.7-2.1,2.4-2.8,2.8c0.7-0.7,1-1.7,1.7-2.4c-0.7,1.7-5.9-1.7-5.5-3.1c1.4-4.8,2.8-9.7,3.1-14.9
		c0.7-11.1,0-22.5-1.4-33.9c-0.7-5.2-1.4-10.4-2.1-15.6c-0.3-1.7-1-3.8-1-5.9c0-2.8,3.1-2.4,5.2-2.8c10.4-1,21.4-1,31.8-0.3
		c2.1,0,4.5,0,6.2,1c1.4,0.7,1.7,2.4,2.1,3.8c1.7,5.2,3.1,10.7,4.2,16.3c2.1,10.4,3.5,21.1,3.8,31.8c0.3,17-1.4,34.2-9,49.5
		c-7.6,14.5-19.7,24.2-36,26.6c-19,3.1-39.1-2.1-51.9-17.3c-5.9-6.9-9.7-16.6-11.4-25.3c-2.1-10-3.5-20.4-3.1-30.4
		c0-11.1,1.4-21.8,3.5-32.5c1-5.2,2.1-10,3.5-15.2c1-4.2,1-6.9,5.9-7.6c4.8-0.7,9.7-0.7,14.5-0.7c5.2,0,10.7-0.3,15.9,0.3
		c2.1,0.3,4.8,0,6.9,1c1.4,0.7,0.7,2.4,0.3,3.8c-0.3,2.8-0.7,5.9-1,8.6c-1,10.7-2.1,21.1-2.4,31.8c-0.3,5.2-0.3,10.7,0.3,15.9
		C586.4,271.4,586,276.2,588.5,279.4"/>
	<path fill="#FFFFFF" d="M554.9,217.4c2.1-2.1,6.6-1.4,9.3-1.7c3.5-0.3,7.3,0,11.1,0c3.8,0.3,4.5,1.4,4.2,5.2
		c-0.3,5.5-1.4,10.7-1.7,16.3c-1,9.7-1.4,19-0.7,28.7c0.3,7.6,1.4,16.6,8,21.4c5.9,4.8,15.6,3.1,20.1-3.1c4.2-5.9,4.8-14.2,4.8-21.1
		c0-10.7-0.7-21.4-2.1-32.2c-0.3-2.4-0.3-4.8-0.7-7.3c0-1.4-1.4-5.2-0.7-6.2c1-1.7,5.9-1.4,7.6-1.4c4.2,0,8.6-0.3,12.8,0.3
		c4.5,0.7,4.2,3.1,5.2,6.9c2.4,9,4.2,18,5.2,27.3c1.4,13.1,1,26.6-2.1,39.4c-2.8,12.1-8.6,24.2-19.7,31.1c-13.8,8.6-33.6,8.3-46.7-1
		c-15.6-10.7-19.7-31.8-20.4-49.5c-0.3-10.4,0.7-21.1,2.1-31.5c0.7-4.5,1.4-9,2.8-13.5C552.8,224,553.5,218.1,554.9,217.4"/>
</g>
<g>
	<path d="M256,424c2.1-2.1,8.3-1.4,11.1-1.7c5.5-0.3,11.1-0.7,16.6-0.7c5.5,0,11.4-0.7,17-0.7c4.5,0,10.4,0,14.9,1.4
		c3.8,1,3.5,5.9,3.8,9.3c0.3,5.2,1,10.7,0,15.9c-0.7,4.5-0.7,9.3-4.8,12.1c-3.5,2.4-8,1.7-12.1,1.7c0,5.2-0.3,10.7-0.3,15.9
		c0,5.9,0.7,11.4,1,17.3c0.3,3.5,0.3,6.6,0.7,10c0,0.3,9.7-0.3,11.4-0.3c2.8,0,6.2,0.3,7.3,3.5c1.7,5.2,1.4,10.7,1.4,16.3
		c0,5.2,0,10.4-0.3,15.9c0,2.1,0,5.2-1,6.9c-1.4,1.7-4.8,1-6.6,1c-11.1,0.3-22.1,1-33.6,1c-5.2,0-10,0-15.2,0c-4.2,0-8.3,0-12.5-0.7
		c-4.5-0.7-3.8-4.2-3.8-8c0-5.5,0-11.4,0.3-17c0.3-5.2,0.7-10,1.4-14.9c0.7-5.2,5.2-4.5,9.3-3.8c2.1,0.3,3.8,1,5.9,1.7
		c1.7-9,2.1-18.3,2.4-27.7c0.3-4.5,0-9,0.7-13.5c0.7-4.5-3.8-3.1-6.9-3.1c-3.5-0.3-7.6-1-10-3.8c-2.1-2.8-1.7-6.6-1.7-9.7
		c0-4.5,0.3-9,0.7-13.5C253.9,430.9,253.9,426.4,256,424C257.4,422.9,254.3,425.7,256,424z"/>
	<path fill="#FFFFFF" d="M262.2,430.5c1.7-1.7,5.2-1.4,7.6-1.7c3.5,0,6.9-0.3,10.4-0.7c8.6-0.7,17.3-0.7,25.9,0
		c3.8,0.3,5.5,1,5.9,4.8c0.7,4.2,0.7,8.3,0.7,12.5c0,2.4,0.7,7.6-2.8,8c-4.5,0.3-8.6-0.7-13.1-0.7c0,11.1,0,22.5,0.3,33.6
		c0.3,5.5,0.7,10.7,1,15.9c0.3,2.8,0.7,5.2,1,8c0.3,2.1,1.7,1,3.5,0.7c2.8-0.7,5.9-1.4,8.6-1c4.2,0.3,4.2,4.5,4.5,8
		c0.3,4.5,0,9.3,0,13.8c0,3.5,0.3,6.9-3.8,7.6c-3.8,0.7-8.3,0.3-12.1,0.7c-5.5,0.3-11.1,0-16.6,0c-5.2,0-10.4-0.3-15.6-0.7
		c-2.4-0.3-4.8,0-6.9-0.3c-1-0.3-1.7,0-2.1-1c-0.7-1-0.3-2.4-0.7-3.5c0-5.5-0.3-10.7,0-16.3c0.3-3.5,0.7-7.3,5.2-7.3
		c2.1,0,4.2,0.7,6.2,1c1,0.3,2.1,0.3,3.5,0.3c0-1.4,0.3-2.8,0.3-4.2c0.3-5.9,0.7-11.8,1-17.3c0.7-12.5,1-24.9,1-37.7
		c-3.5,0-6.6,1-10,1c-3.8-0.3-4.5-1.7-5.2-5.2c0-3.8,0-7.6,0.3-11.4C260.5,436.1,260.2,432.6,262.2,430.5
		C264,428.8,260.2,432.6,262.2,430.5z"/>
</g>
<g>
	<path fill="#010001" d="M586,184.9c-1.7,0.3-2.8,2.8-4.2,3.8c-1.7,1.7-3.5,3.5-5.5,5.2c-3.8,2.8-8.3,5.9-13.5,4.5
		c-7.3-2.1-9-10.4-8-16.6c1.7-13.8,11.8-28.4,25.9-32.2c3.5-1,7.3-1,10.4,0.7c4.5,2.1,6.6,6.2,9.7,9.7c3.5,3.5,7.6,1,10-2.4
		c3.1-3.8,6.6-8,11.1-10c8.3-3.8,15.6,3.1,17,11.4c1.4,9.3-4.5,18.7-9.3,26.3s-11.8,13.5-21.4,13.8c-4.8,0-9.3-0.7-13.1-4.2
		c-2.1-1.7-3.8-3.8-5.2-5.9C589.5,186.6,588.1,184.2,586,184.9"/>
	<path fill="#FFFFFF" d="M586,178.3c-3.5,0-6.2,5.5-8.6,7.6c-2.8,2.4-7.3,3.8-10.4,1c-6.6-5.9-0.3-17,4.2-22.1
		c5.2-6.6,14.5-10.7,21.8-5.5c5.2,3.5,11.1,12.5,17.6,5.9c4.8-5.2,11.1-14.5,19.7-9c6.6,4.5-0.7,16.3-3.8,20.8
		c-4.8,6.6-12.5,13.5-21.1,12.8c-4.2-0.3-7.3-2.8-10-5.5C592.6,181.4,589.8,178.3,586,178.3"/>
</g>
<g>
	<path fill="#010001" d="M276.1,399c-1.7,0.3-2.8,2.4-3.8,3.8c-1.7,1.7-3.5,3.5-5.5,4.8c-3.5,2.8-8.3,5.9-13.1,4.5
		c-7.3-2.1-8.6-10.4-8-17c2.1-13.8,12.5-28.7,27-31.5c3.5-0.7,7.3-0.3,10.4,1.7c3.8,2.4,5.5,7.6,9.3,9.7c4.2,2.4,7.6-2.4,9.7-5.2
		c2.8-3.5,6.6-7.6,11.4-8.6c9.3-2.4,15.2,7.3,14.9,15.2c-0.3,9-6.2,18.3-11.4,25.3c-5.2,6.6-12.1,10.4-20.8,10
		c-4.8-0.3-9-2.1-12.1-5.5C281.9,404.6,279.2,398.4,276.1,399"/>
	<path fill="#FFFFFF" d="M276.4,392.5c-3.1,0-5.9,4.8-8,6.9c-2.8,2.8-6.6,4.5-10,2.1c-7.6-5.2-1-17,3.1-22.1
		c4.8-6.2,13.5-10.4,20.8-5.9c5.5,3.5,11.4,13.1,18,5.5c4.5-5.2,11.1-13.5,18.7-8.3c6.6,4.5-0.7,15.9-3.8,20.4
		c-4.5,6.6-12.1,13.1-20.8,12.5c-4.2-0.3-7.3-2.4-10-5.5C282.6,395.9,279.9,392.5,276.4,392.5"/>
</g>
<g>
	<path d="M793.9,438.1c3.5,7.6-3.8,18.7-6.9,25.3c-3.1,6.6-11.4,17.6-18.3,8.3c-3.1-4.2-5.5-8.6-9-12.5c-1.4-1.4-3.1-3.5-5.5-3.8
		c-2.8-0.3-4.2,3.5-3.1,5.5c1.4,3.5,7.3,5.2,10.4,6.6c4.5,2.1,9.7,3.5,14.2,5.9c7.6,4.5,14.5,12.8,17.6,21.1
		c5.9,15.6,4.2,34.9-11.1,44.6c-13.1,8.6-30.4,9.7-45.7,7.6c-5.2-0.7-9.7-2.4-14.5-4.5c-2.4-1-4.8-2.1-7.3-3.1
		c-1.7-0.7-3.8-1.4-4.5-3.5c-1.7-4.2,0-10.4,0.7-14.5c0.7-5.2,1.7-10.4,3.1-15.6c1.7-6.6,7.3-23.2,16.6-14.9
		c4.5,4.5,11.4,14.9,19,14.2c3.5-0.3,3.5-4.5,1-6.2c-3.1-2.4-8-3.8-11.8-5.2c-8.3-3.1-17.6-6.6-23.5-13.5c-8-9.7-8.6-24.6-5.5-36.3
		c3.1-11.8,11.1-21.1,22.8-25.6c11.1-4.2,23.9-3.5,34.9,0c5.5,1.7,10.7,4.2,15.6,7.6c2.4,1.7,4.5,3.5,6.6,5.2
		c1.7,1.7,3.1,3.1,4.2,5.2l1,2.4c0,0-1.4-2.8-1-2.8C793.3,437.1,793.9,438.1,793.9,438.1C796.4,443.3,792.2,433.3,793.9,438.1z"/>
	<path fill="#FFFFFF" d="M783.2,444c0,4.8-1,9.7-2.8,14.5c-1,3.1-2.1,7.3-4.5,10c-2.1,2.4-4.8-4.8-5.9-6.2c-2.4-3.5-5.5-6.9-9-9.3
		c-6.2-4.8-16.3-5.5-17,4.5c-0.7,10.4,9.7,12.5,17.6,15.6c9,3.5,16.6,9.3,20.1,18.7c1.7,4.5,3.1,9.3,3.1,14.2
		c0,4.8-0.3,11.4-2.4,15.9c-7.3,17-27.7,20.8-44.3,17.6c-4.8-1-9.3-2.4-13.5-4.5c-2.8-1.4-6.6-3.5-8-6.6c-1.4-3.8,1-9.7,1.7-13.5
		c1.4-5.5,3.5-10.7,5.5-15.9c0.3-0.7,1.4-4.5,3.1-3.1c1.4,1,2.4,2.4,3.5,3.8c3.5,3.8,7.6,7.3,11.8,10c2.4,1.7,6.9,3.8,9.7,1.4
		c2.1-2.1,2.4-5.5,2.4-8.3c0.3-7.3-9-10.7-14.9-12.5c-3.5-1-6.9-1.7-10-3.1c-3.8-1.7-6.6-5.2-8.6-8.6c-7.3-13.8-5.2-32.5,5.2-44.3
		c8.3-9,22.1-11.8,33.6-7.6C769,429.1,780.8,434.7,783.2,444C783.2,450.9,782.9,443.7,783.2,444z"/>
</g>
<g>
	<path d="M167.1,541.2c0-0.3-0.7-1.4-0.7-2.1c-0.3-1.4-0.7-3.1-0.7-4.5c0-4.2-0.7-8.3-0.7-12.5c0-6.9-0.3-14.2-0.3-21.1
		c0-15.9,0.7-31.8,0.7-47.7c0-7.3,1-14.2,1-21.4c0.3-2.8,1-6.2,1-9.3c1.7-1.7,3.5-2.1,6.2-2.8c8.3-1.4,17-0.7,25.3-0.7
		c8,0,16.3,0,23.9,2.1c11.4,2.8,24.9,9,29.4,21.1c3.1,5.9,4.2,13.8,3.8,20.4c-0.3,6.6-2.1,14.2-5.5,20.1c-5.9,9.7-16.6,15.2-27.3,19
		c-0.7,0.3-8.3,2.4-8,2.8c1.4,4.2,1.7,9,2.4,13.5c0.7,6.6,1.7,13.1,1.7,20.1c0,1,0.3,3.5-0.3,4.2c-1.7,1.7-5.9,2.1-8,2.8
		c-10.7,2.1-22.5,2.8-33.2,1.4c-3.1-0.3-6.2-1-9-2.8C168.5,542.6,167.8,541.6,167.1,541.2L167.1,541.2z"/>
	<path fill="#FFFFFF" d="M175,535.4c0-1.7-1-3.8-1-5.9c0-4.8-0.3-9.7-0.3-14.5c-0.3-6.6,0-13.5,0-20.1c0-14.2,0.7-28.7,0.7-42.9
		c0-7.6,1.4-15.2,1.4-22.5c0-5.2,10-4.2,13.1-4.5c7.6-0.3,15.9-0.7,23.5,0.3c8,1,15.6,3.1,21.4,8.3c11.8,10,12.8,25.9,9.7,40.1
		c-4.2,11.4-15.2,20.8-27.3,22.8c-2.1,0.3-6.6,2.4-8.6,1.4c-1-0.3,0,4.5,0,5.2c0,1.7,0.3,3.5,0.3,4.8c1,7.6,0.7,14.9,0.7,22.1
		c-0.7,2.8-1.4,5.9-4.5,6.6c-3.5,0.7-6.6,0.7-10,0.7C188.2,537.8,180.2,538.1,175,535.4L175,535.4z M218.3,460.6
		c0-7.3-4.2-12.1-11.1-13.5c-0.3,0-3.5-0.7-3.8-0.3c-0.7,0.7,0,4.5,0,5.2c0,3.5,0.3,6.6,0.3,10c0,2.8,0.3,5.9,0.3,8.6
		c0.3,1.7,0,3.8,0.3,5.5c0,0.3-0.3,1.4,0.3,1.4s1.4,0,2.1-0.3C215.2,475.8,217.6,467.9,218.3,460.6
		C218.3,459.9,218.3,461.3,218.3,460.6z"/>
</g>
<g>
	<path d="M206.5,335c0-1.7,0.3-4.2,0.7-5.9c0.7-4.2,1.4-8.6,2.8-12.5c1-6.6,3.5-13.1,4.5-19.7c2.8-15.2,7.3-30.4,11.4-45.7
		c1.7-6.2,2.8-13.1,5.2-19.4c1-3.8,2.4-8,3.5-11.8c0.3-1.4,0.7-5.2,2.8-5.2c7.3-1.4,16.3-1,23.5,0c1.4,0.3,3.8,0,4.8,1
		c0,1.7,1,3.5,1.4,5.2c1,3.5,1.7,6.9,2.4,10.4c1.7,10,3.8,20.1,5.5,29.8c3.8-13.5,4.2-28,8.6-41.2c0.3-1.7,1-3.5,1.7-4.8
		c0.3-0.7,3.5-0.3,4.2-0.7c3.8,0,8-0.3,11.8-0.3c3.8,0,7.3,0,11.1,0c3.1,0.7,2.8,1.7,3.5,4.5c3.8,14.2,8,28.7,11.4,42.9
		c3.5,14.9,6.9,30.4,11.1,45c1.4,4.5,1.7,9.3,3.1,13.8c0.7,4.5,2.8,9.3,2.8,14.2c-1,1.4-4.8,0.7-6.2,1c-2.8,0-5.5,0-8,0.3
		c-6.2,0.3-12.1-0.3-18-0.3c-2.1-0.3-4.8,0-6.9-1c-1.4-1-2.1-5.5-2.1-7.3c-0.7-5.5-2.4-10.7-3.5-15.9c-1.7-10.4-4.2-20.8-5.5-31.5
		c-2.4,7.6-5.9,14.9-7.6,22.5c-1.4,4.2-3.1,8.3-4.5,12.5c-1,3.8-2.8,8.3-7.3,7.6c-4.2-0.3-5.2-4.5-6.6-8c-1.7-4.2-3.1-8.3-4.8-12.1
		c-2.8-7.3-5.5-14.5-8-21.8c-1.4,6.9-2.1,14.2-2.8,21.4c-2.1,8-1.7,17-4.2,24.9c-0.3,2.4-0.7,7.6-4.2,7.6c-3.8,1-8.3,0.7-12.1,0.7
		c-4.2,0.3-9.3,0.3-13.5,0C214.5,336.4,209.6,336.4,206.5,335z"/>
	<path fill="#FFFFFF" d="M214.8,326.7c0.3-4.2,2.1-8.3,3.1-12.1c2.4-9.7,4.8-19.4,7.3-28.7c4.8-18.7,9.3-37.4,14.2-56
		c0.3-1.4,0.7-2.8,1-3.8c0-0.3,7.3,0,8,0c4.5,0,8.6,0,13.1,0c1.4,0,1.4,2.8,1.7,3.8c3.8,15.2,7.6,30.4,11.4,45.7
		c4.2-15.9,8.6-31.8,12.8-47.7c0.7-2.4,2.4-1.4,4.8-1.4c5.2,0,10.7,0,15.9,0c1.4,0,3.5-0.7,3.8,0.7c0.3,2.1,1,4.5,1.4,6.6
		c6.9,31.1,13.8,62.3,20.8,93.4c-0.3,0.3-2.4,0-2.8,0c-2.4,0-4.8,0-7.3,0c-4.2,0-8.3,0-12.8,0c-1,0-3.5-13.8-3.8-15.2
		c-3.8-15.9-7.3-31.8-11.1-48.1c-5.9,15.2-11.4,30.1-17.3,45.3c-1.7,4.8-6.9,5.5-9,0.3c-1-2.8-2.1-5.5-2.8-8.3
		c-3.5-10-6.9-20.1-10.4-30.1c-1-2.8-1.7-5.2-2.8-8c-3.5,16.3-6.9,32.9-10.4,49.1c-0.3,1.4-2.1,15.2-3.8,15.2c-4.5,0-9,0-13.5,0
		c-2.4,0-4.8,0-7.3,0C217.6,326.7,215.9,327.1,214.8,326.7z"/>
</g>
<g>
	<path d="M479.8,547.8c0-1.7,0.3-4.2,0.7-5.9c0.7-4.2,1.4-8.6,2.8-12.5c1-6.6,3.5-13.1,4.5-19.7c2.8-15.2,7.3-30.4,11.4-45.7
		c1.7-6.2,2.8-13.1,5.2-19.4c1-3.8,2.4-8,3.5-11.8c0.3-1.4,0.7-5.2,2.8-5.2c7.3-1.4,16.3-1,23.5,0c1.4,0.3,3.8,0,4.8,1
		c0,1.7,1,3.5,1.4,5.2c1,3.5,1.7,6.9,2.4,10.4c1.7,10,3.8,20.1,5.5,29.8c3.8-13.5,4.2-28,8.6-41.2c0.3-1.7,1-3.5,1.7-4.8
		c0.3-0.7,3.5-0.3,4.2-0.7c3.8,0,8-0.3,11.8-0.3c3.8,0,7.3,0,11.1,0c3.1,0.7,2.8,1.7,3.5,4.5c3.8,14.2,8,28.7,11.4,42.9
		c3.5,14.9,6.9,30.4,11.1,45c1.4,4.5,1.7,9.3,3.1,13.8c0.7,4.5,2.8,9.3,2.8,14.2c-1,1.4-4.8,0.7-6.2,1c-2.8,0-5.5,0-8,0.3
		c-6.2,0.3-12.1-0.3-18-0.3c-2.1-0.3-4.8,0-6.9-1c-1.4-1-2.1-5.5-2.1-7.3c-0.7-5.5-2.4-10.7-3.5-15.9c-1.7-10.4-4.2-20.8-5.5-31.5
		c-2.4,7.6-5.9,14.9-7.6,22.5c-1.4,4.2-3.1,8.3-4.5,12.5c-1,3.8-2.8,8.3-7.3,7.6c-4.2-0.3-5.2-4.5-6.6-8c-1.7-4.2-3.1-8.3-4.8-12.1
		c-2.8-7.3-5.5-14.5-8-21.8c-1.4,6.9-2.1,14.2-2.8,21.4c-2.1,8-1.7,17-4.2,24.9c-0.3,2.4-0.7,7.6-4.2,7.6c-3.8,1-8.3,0.7-12.1,0.7
		c-4.2,0.3-9.3,0.3-13.5,0C487.8,548.8,482.9,549.2,479.8,547.8z"/>
	<path fill="#FFFFFF" d="M488.5,539.2c0.3-4.2,2.1-8.3,3.1-12.1c2.4-9.7,4.8-19.4,7.3-28.7c4.8-18.7,9.3-37.4,14.2-56
		c0.3-1.4,0.7-2.8,1-3.8c0-0.3,7.3,0,8,0c4.5,0,8.6,0,13.1,0c1.4,0,1.4,2.8,1.7,3.8c3.8,15.2,7.6,30.4,11.4,45.7
		c4.2-15.9,8.6-31.8,12.8-47.7c0.7-2.4,2.4-1.4,4.8-1.4c5.2,0,10.7,0,15.9,0c1.4,0,3.5-0.7,3.8,0.7c0.3,2.1,1,4.5,1.4,6.6
		c6.9,31.1,13.8,62.3,20.8,93.4c-0.3,0.3-2.4,0-2.8,0c-2.4,0-4.8,0-7.3,0c-4.2,0-8.3,0-12.8,0c-1,0-3.5-13.8-3.8-15.2
		c-3.8-15.9-7.3-31.8-11.1-48.1c-5.9,15.2-11.4,30.1-17.3,45.3c-1.7,4.8-6.9,5.5-9,0.3c-1-2.8-2.1-5.5-2.8-8.3
		c-3.5-10-6.9-20.1-10.4-30.1c-1-2.8-1.7-5.2-2.8-8c-3.5,16.3-6.9,32.9-10.4,49.1c-0.3,1.4-2.1,15.2-3.8,15.2c-4.5,0-9,0-13.5,0
		c-2.4,0-4.8,0-7.3,0C491.2,539.2,489.2,539.5,488.5,539.2z"/>
</g>
<g>
	<path d="M443.5,335.4c0-13.8,1.4-27.7,1.4-41.5c0-16.6,1-33.6,2.1-50.2c0.3-6.9,1-13.8,1-20.8c0.7-3.8,1.4-8.3,1.4-12.5
		c0.3-0.7,0-2.1,0.7-2.4c1-1.4,4.2-1,5.5-1.4c6.9-1,14.9-0.7,21.4,0.3c4.2,0,5.9,1.4,7.3,5.2c2.1,2.4,3.1,6.2,4.5,9.3
		c3.8,8.3,6.9,17,11.1,25.3c1.4,3.8,3.1,7.6,4.8,11.4c0.7,1.7,1.4,3.5,2.1,4.8c0.7,1,1,3.5,1.7,4.5c0-14.9,1-29.8,1.7-44.6
		c0.3-3.5,0-7.3,1-10.7c0-0.7,0-3.1,0.7-3.5c1-1,4.2-0.7,5.5-0.7c3.8-0.3,7.6,0,11.1,0c4.2,0,8.6,0,12.5,1c1.4,0.7,1,4.5,1.4,5.5
		c0,4.5,0.7,9,0.7,13.5c0,7.3,0.7,14.5,1,21.4c1,16.6,1.4,33.2,1.4,49.5c0,11.8,0,23.5,0,35.3c0,3.5-11.1,2.4-13.8,2.4
		c-6.9,0-13.5,0-20.4-0.3c-1.7,0-6.2,0.3-7.6-1c0-0.7-1-2.1-1.4-3.1c-0.7-1.4-1.4-3.1-1.7-4.5c-2.4-5.9-4.5-12.1-6.2-18
		c-3.8-11.4-8-22.8-11.4-34.6c-0.3,7.6,0.3,15.6,0.7,23.2c0.3,9.3,0.3,18.3,0.3,27.7c0,2.4,1.4,9.3-2.4,9.3c-4.2,0.7-8.6,0-12.8,0.7
		c-4.8,0-9.7,0-14.5,0C451.5,335.4,446.6,336.4,443.5,335.4z"/>
	<path fill="#FFFFFF" d="M476.7,326.7c-1,0.3-2.8,0-4.2,0c-2.8,0-5.9,0-8.6,0c-4.2,0-8.6,0-12.8,0c1.4-33.9,3.5-67.8,5.2-101.4
		c0-2.1,0.3-4.2,0.3-6.2c0-1.7,3.5-0.7,4.8-0.7c4.8,0,10,0,14.9,0c1.7,0,1.7,1.4,2.4,2.8c9,17.3,17.6,34.9,26.6,52.2
		c1,2.4,2.4,4.5,3.5,6.9c0.3,0.7,0.7,2.1,1.4,2.8c2.1-17,4.2-34.2,5.9-51.2c0.3-3.5,0.7-7.3,1.4-10.7c0.3-2.4,0-2.4,2.8-2.4
		c4.8,0,9.3,0.3,14.2,0.3c1,0,0.7,1.7,0.7,2.4c1,34.9,2.1,69.5,2.8,104.5c0,1.7-0.7,1-2.4,1c-5.2,0-10.4,0-15.6,0c-1,0-9,0.7-9.3,0
		c-1-1.7-1.7-3.5-2.4-5.2c-8.3-18.3-16.3-36.7-24.2-55c-1-2.8-2.4-5.5-3.5-8.3"/>
</g>
<g>
	<path d="M318.3,545.4c0-13.8,1.4-27.7,1.4-41.5c0-16.6,1-33.6,2.1-50.2c0.3-6.9,1-13.8,1-20.8c0.7-3.8,1.4-8.3,1.4-12.5
		c0.3-0.7,0-2.1,0.7-2.4c1-1.4,4.2-1,5.5-1.4c6.9-1,14.9-0.7,21.4,0.3c4.2,0,5.9,1.4,7.3,5.2c2.1,2.4,3.1,6.2,4.5,9.3
		c3.8,8.3,6.9,17,11.1,25.3c1.4,3.8,3.1,7.6,4.8,11.4c0.7,1.7,1.4,3.5,2.1,4.8c0.7,1,1,3.5,1.7,4.5c0-14.9,1-29.8,1.7-44.6
		c0.3-3.5,0-7.3,1-10.7c0-0.7,0-3.1,0.7-3.5c1-1,4.2-0.7,5.5-0.7c3.8-0.3,7.6,0,11.1,0c4.2,0,8.6,0,12.5,1c1.4,0.7,1,4.5,1.4,5.5
		c0,4.5,0.7,9,0.7,13.5c0,7.3,0.7,14.5,1,21.4c1,16.6,1.4,33.2,1.4,49.5c0,11.8,0,23.5,0,35.3c0,3.5-11.1,2.4-13.8,2.4
		c-6.9,0-13.5,0-20.4-0.3c-1.7,0-6.2,0.3-7.6-1c0-0.7-1-2.1-1.4-3.1c-0.7-1.4-1.4-3.1-1.7-4.5c-2.4-5.9-4.5-12.1-6.2-18
		c-3.8-11.4-8-22.8-11.4-34.6c-0.3,7.6,0.3,15.6,0.7,23.2c0.3,9.3,0.3,18.3,0.3,27.7c0,2.4,1.4,9.3-2.4,9.3c-4.2,0.7-8.6,0-12.8,0.7
		c-4.8,0-9.7,0-14.5,0C326.2,545.4,321.4,546.4,318.3,545.4z"/>
	<path fill="#FFFFFF" d="M351.5,536.7c-1,0.3-2.8,0-4.2,0c-2.8,0-5.9,0-8.6,0c-4.2,0-8.6,0-12.8,0c1.4-33.9,3.5-67.8,5.2-101.4
		c0-2.1,0.3-4.2,0.3-6.2c0-1.7,3.5-0.7,4.8-0.7c4.8,0,10,0,14.9,0c1.7,0,1.7,1.4,2.4,2.8c9,17.3,17.6,34.9,26.6,52.2
		c1,2.4,2.4,4.5,3.5,6.9c0.3,0.7,0.7,2.1,1.4,2.8c2.1-17,4.2-34.2,5.9-51.2c0.3-3.5,0.7-7.3,1.4-10.7c0.3-2.4,0-2.4,2.8-2.4
		c4.8,0,9.3,0.3,14.2,0.3c1,0,0.7,1.7,0.7,2.4c1,34.9,2.1,69.5,2.8,104.5c0,1.7-0.7,1-2.4,1c-5.2,0-10.4,0-15.6,0c-1,0-9,0.7-9.3,0
		c-1-1.7-1.7-3.5-2.4-5.2c-8.3-18.3-16.3-36.7-24.2-55c-1-2.8-2.4-5.5-3.5-8.3"/>
</g>
<g>
	<path fill="#020202" d="M728.6,330.9c-0.3-4.2,2.1-9.3,3.5-13.5c1.7-5.5,3.1-10.7,4.8-16.3c3.5-10.4,6.6-20.8,9.7-31.1
		c3.1-10,6.6-20.1,9.7-30.1c3.1-9.7,5.9-19.7,9.7-29.1c1.4-3.5,1.7-6.9,5.9-7.3c5.2-0.3,10.4-0.7,15.9-0.3c4.2,0,9.3-0.3,13.5,0.7
		c1.4,0.3,1.7,1.7,2.1,2.8c1,2.8,2.1,5.9,3.1,8.6c3.8,10.4,6.9,21.1,10,31.8c3.1,10.4,6.9,20.8,10,31.5c3.1,10.4,6.9,20.8,10,31.1
		c1.4,4.5,2.8,9.3,3.8,13.8c0.3,1.4,0.7,2.8,0.7,4.2c0.3,2.1,1,2.4-1.4,3.1c-3.8,0.7-8.3,0.3-12.5,0.3c-5.5,0-11.4,0-17,0
		c-7.3,0-17.6,2.1-20.1-6.9c-1.4-5.2-0.7-10.7-1-16.3c0-3.1,0-12.1-4.5-12.8c-3.8-0.3-4.2,4.2-4.5,6.9c-1,4.5-2.1,8.6-2.8,12.8
		c-1,4.8-2.4,13.5-8.3,15.2c-7.3,2.1-16.3,1-23.9,1.4c-3.5,0-6.9,0-10.7,0C733.8,332.3,729.6,332.6,728.6,330.9
		C728.6,329.2,729.6,332.6,728.6,330.9z"/>
	<path fill="#FFFFFF" d="M740.3,324.3c-0.3-4.5,2.1-9.7,3.1-14.2c1.4-5.5,3.1-11.1,4.8-17c2.8-10,5.5-20.1,8.3-30.1
		c3.1-10,6.2-20.4,9-30.4c1.4-5.2,3.1-10,4.5-14.9c0.3-1.7,0.7-3.8,1.7-5.2c1.4-1.7,4.8-1.7,6.9-1.7c4.8-0.3,9.7,0,14.2,0.3
		c1.4,0,3.5-0.3,4.5,0.7c1.7,1.4,2.4,4.8,3.1,6.9c3.5,10.4,6.2,21.1,9,31.5c2.8,10.7,6.2,21.1,9,31.8c1.4,4.8,2.8,9.7,4.2,14.5
		c1.4,5.2,2.1,10.7,3.8,15.9c1,3.1,1.4,6.2,2.1,9.3c0.3,2.1-0.3,2.4-2.4,2.8c-4.5,0.7-9,0.3-13.5,0.3c-3.5,0-6.6,0-10-0.3
		c-3.5-0.7-3.8-3.1-4.5-6.2c-1.7-8.6-3.8-17-5.9-25.3c-0.7-3.5-4.5-2.8-7.6-2.8c-3.1,0-8.6-1-9.7,2.8c-0.7,2.8-1,5.5-1.7,8.3
		c-1,4.8-2.1,9.7-3.1,14.2c-0.3,2.1-1,8-3.1,9c-4.2,1-8.6,1-13.1,1.4C752.1,325.7,741.7,327.4,740.3,324.3
		C740.3,322.6,741.4,326.4,740.3,324.3z M790.8,279.7c0.7-1-1-4.8-1.4-5.9c-0.7-3.1-1.4-6.6-1.7-9.7c-0.3-3.1-0.7-6.2-1-9.3
		c0-1-0.3-7.6-2.1-7.6c-1.7,0-2.1,6.6-2.4,7.6c-1,7.6-1.7,14.9-3.5,22.5c0,0.7-1,3.1-0.3,3.5c1,0.7,2.8,0.3,4.2,0.3
		C784.6,280.7,789.4,281.1,790.8,279.7C790.8,279,790.5,279.7,790.8,279.7z"/>
</g>
<g>
	<path d="M420.3,424c2.1-2.1,8.3-1.4,11.1-1.7c5.5-0.3,11.1-0.7,16.6-0.7s11.4-0.7,17-0.7c4.5,0,10.4,0,14.9,1.4
		c3.8,1,3.5,5.9,3.8,9.3c0.3,5.2,1,10.7,0,15.9c-0.7,4.5-0.7,9.3-4.8,12.1c-3.5,2.4-8,1.7-12.1,1.7c0,5.2-0.3,10.7-0.3,15.9
		c0,5.9,0.7,11.4,1,17.3c0.3,3.5,0.3,6.6,0.7,10c0,0.3,9.7-0.3,11.4-0.3c2.8,0,6.2,0.3,7.3,3.5c1.7,5.2,1.4,10.7,1.4,16.3
		c0,5.2,0,10.4-0.3,15.9c0,2.1,0,5.2-1,6.9c-1.4,1.7-4.8,1-6.6,1c-11.1,0.3-22.1,1-33.6,1c-5.2,0-10,0-15.2,0c-4.2,0-8.3,0-12.5-0.7
		c-4.5-0.7-3.8-4.2-3.8-8c0-5.5,0-11.4,0.3-17c0.3-5.2,0.7-10,1.4-14.9c0.7-5.2,5.2-4.5,9.3-3.8c2.1,0.3,3.8,1,5.9,1.7
		c1.7-9,2.1-18.3,2.4-27.7c0.3-4.5,0-9,0.7-13.5c0.7-4.5-3.8-3.1-6.9-3.1c-3.5-0.3-7.6-1-10-3.8c-2.1-2.8-1.7-6.6-1.7-9.7
		c0-4.5,0.3-9,0.7-13.5C417.9,430.9,417.9,426.4,420.3,424C421.7,422.9,418.6,425.7,420.3,424z"/>
	<path fill="#FFFFFF" d="M426.2,430.5c1.7-1.7,5.2-1.4,7.6-1.7c3.5,0,6.9-0.3,10.4-0.7c8.6-0.7,17.3-0.7,25.9,0
		c3.8,0.3,5.5,1,5.9,4.8c0.7,4.2,0.7,8.3,0.7,12.5c0,2.4,0.7,7.6-2.8,8c-4.5,0.3-8.6-0.7-13.1-0.7c0,11.1,0,22.5,0.3,33.6
		c0.3,5.5,0.7,10.7,1,15.9c0.3,2.8,0.7,5.2,1,8c0.3,2.1,1.7,1,3.5,0.7c2.8-0.7,5.9-1.4,8.6-1c4.2,0.3,4.2,4.5,4.5,8
		c0.3,4.5,0,9.3,0,13.8c0,3.5,0.3,6.9-3.8,7.6c-3.8,0.7-8.3,0.3-12.1,0.7c-5.5,0.3-11.1,0-16.6,0c-5.2,0-10.4-0.3-15.6-0.7
		c-2.4-0.3-4.8,0-6.9-0.3c-1-0.3-1.7,0-2.1-1c-0.7-1-0.3-2.4-0.7-3.5c0-5.5-0.3-10.7,0-16.3c0.3-3.5,0.7-7.3,5.2-7.3
		c2.1,0,4.2,0.7,6.2,1c1,0.3,2.1,0.3,3.5,0.3c0-1.4,0.3-2.8,0.3-4.2c0.3-5.9,0.7-11.8,1-17.3c0.7-12.5,1-24.9,1-37.7
		c-3.5,0-6.6,1-10,1c-3.8-0.3-4.5-1.7-5.2-5.2c0-3.8,0-7.6,0.3-11.4C424.5,436.1,424.5,432.6,426.2,430.5
		C427.9,428.8,424.5,432.6,426.2,430.5z"/>
</g>
</svg>
