<?xml version="1.0" encoding="utf-8"?>
<!-- Generator: Adobe Illustrator 18.0.0, SVG Export Plug-In . SVG Version: 6.00 Build 0)  -->
<!DOCTYPE svg PUBLIC "-//W3C//DTD SVG 1.0//EN" "http://www.w3.org/TR/2001/REC-SVG-20010904/DTD/svg10.dtd" [
	<!ENTITY ns_flows "http://ns.adobe.com/Flows/1.0/">
	<!ENTITY ns_extend "http://ns.adobe.com/Extensibility/1.0/">
	<!ENTITY ns_ai "http://ns.adobe.com/AdobeIllustrator/10.0/">
	<!ENTITY ns_graphs "http://ns.adobe.com/Graphs/1.0/">
]>
<svg version="1.0" id="Camada_1" xmlns:x="&ns_extend;" xmlns:i="&ns_ai;" xmlns:graph="&ns_graphs;"
	 xmlns="http://www.w3.org/2000/svg" xmlns:xlink="http://www.w3.org/1999/xlink" xmlns:a="http://ns.adobe.com/AdobeSVGViewerExtensions/3.0/"
	 x="0px" y="0px" viewBox="-31 357.8 356.7 349.3" enable-background="new -31 357.8 356.7 349.3" xml:space="preserve">
<image overflow="visible" width="2486" height="2479" xlink:href="../../banco de imagens/bot천es/butt 22.png"  transform="matrix(0.1336 0 0 0.1336 -18.7816 368.796)">
</image>
<g>
	
		<image overflow="visible" width="2631" height="2500" xlink:href="../../banco de imagens/bot천es/butt 31.png"  transform="matrix(3.166667e-002 0 0 3.166667e-002 11.9652 576.965)">
	</image>
	
		<image overflow="visible" width="2631" height="2500" xlink:href="../../banco de imagens/bot천es/butt 31.png"  transform="matrix(3.166667e-002 0 0 3.166667e-002 105.6758 576.965)">
	</image>
	
		<image overflow="visible" width="2631" height="2500" xlink:href="../../banco de imagens/bot천es/butt 31.png"  transform="matrix(3.166667e-002 0 0 3.166667e-002 199.3865 576.965)">
	</image>
</g>
<g>
	<g>
		<path d="M54.6,426.4c2.7-0.4,5.5-0.5,8.2-0.5c2.7,0,5.5-0.2,8.2-0.2c5.7,0,11.4-0.3,17-0.3c9.1,0,18.1-0.1,27.2-0.1
			c4.9,0,9.8,0.1,14.8,0.1c5.5,0,10.9,0.3,16.4,0.3c3.5,0,6.9,0.4,10.4,0.5c0.6,0,1.3,0.1,1.9,0.2c0.6,0.1,1.3,0,1.8,0.3
			c0.5,0,1.1,0.1,1.6,0.3c0.7,0,0.8,1,1,1.5c0.4,1.6,0.4,3.4,0.4,5c0,6.1-0.8,12.3-1.8,18.3c-0.6,3.2-1.2,6.5-2.1,9.6
			c-0.7,2.4-1.4,5.3-3.1,7.2c-0.7,0.8-1.3,0.8-2.3,0.9c-1.9,0-3.8,0.1-5.7,0.1c-4.1,0.1-8.3,0.2-12.4,0.3c-2.1,0.1-4.1,0.1-6.2,0.2
			c0.3,7.2,0.6,14.3,0.8,21.5c0.5,12.9,1,25.8,1.5,38.7c0.2,4.6,0.4,9.1,0.6,13.7c0,1.1,0.1,2.2,0.2,3.3c0.1,1.7-1.3,3.4-3,3.6
			c-2.5,0.2-4.9,0.7-7.4,0.7c-1.9,0.2-3.9,0.2-5.8,0.2c-2.2,0-4.3,0-6.5,0c-2.7,0-5.3-0.1-8-0.1c-2,0-3.9-0.2-5.9-0.2
			c-2.3,0-4.5-0.4-6.8-0.6c-0.8-0.1-1.6,0-2.3-0.4c-0.4,0-1.1-0.9-1.4-1.1c-0.3-0.3-1.3-0.9-1.3-1.4c0-0.8,0.1-1.6,0.1-2.4
			c0.1-4.1,0.3-8.3,0.4-12.4c0.4-12.7,0.9-25.4,1.3-38.2c0.3-7.9,0.6-15.9,0.8-23.8c0-0.4-2.5-0.2-2.8-0.2c-3.1,0.1-6.2,0.1-9.3,0.2
			c-3.4,0-6.8,0-10.1-0.4c-2.5-0.3-4.5-0.6-5.9-2.8c-1.8-2.9-2.6-6.6-3.3-9.9c-0.2-1-0.4-2-0.5-3c-0.2-1.5-0.7-2.9-0.9-4.3
			c-0.5-4-1-8.1-1-12.2c0-2.2,0-4.5,0-6.7C53.6,430.1,53.7,427.9,54.6,426.4"/>
		<path fill="#FFFFFF" d="M68.6,434.7c1-0.4,2.5-0.2,3.6-0.3c1.5-0.2,3.1-0.2,4.7-0.2c2.7,0,5.3-0.2,8-0.2c5.1,0,10.3-0.2,15.4-0.3
			c9-0.2,17.9,0.1,26.9,0.1c2.6,0,5.3,0.2,7.9,0.2c1.6,0,3.2,0.1,4.8,0.2c1.7,0.1,3.5,0.1,5.1,0.3c1.2,0.2,2.5,0.1,3.7,0.5
			c1.2,0,1.5,1.3,1.5,2.3c0.3,1.5,0.2,3.1,0.2,4.7c0,2.6-0.5,5.3-0.6,7.9c0,1.3-0.2,2.8-0.6,4.1c-0.2,1.4-0.4,3-0.8,4.3
			c-0.4,1.1-0.6,2.1-1.8,2.5c-1.3,0.5-2.9,0.6-4.3,0.6c-2,0.1-3.9,0.2-5.9,0.3c-2.7,0.1-5.3,0-8,0c-1.4,0-2.8-0.1-4.2-0.1
			c-0.5,0-1,0-1.5,0c-0.5,0-0.4,0.7-0.2,1.1c0.1,1.3,0.2,2.6,0.2,3.9c0,0.9,0.2,1.7,0.2,2.6c0,1,0,2.1,0.2,3.1
			c0.2,4.2,0.4,8.5,0.6,12.7c0.2,1.3,0.2,2.6,0.2,3.8c0.1,1.4,0.2,2.9,0.2,4.4c0.3,2.8,0.5,5.7,0.5,8.5c0,4.5,0.6,9.1,0.6,13.6
			c0,1.7,0.2,3.4,0.2,5.1c0,1.5,0,3,0.1,4.5c0.2,1.6,0.1,3.2,0.1,4.8c0,1.3,0.1,2.5,0.1,3.8c0,1,0,2.1,0,3.1c0,0.6,0.1,1.2,0,1.8
			c-0.1,0.6,0.1,1.5-0.2,2c-0.1,0.7,0,1.1-0.8,1.4c-1.3,0.5-2.9,0.4-4.3,0.6c-1.8,0.2-3.6,0.2-5.4,0.2c-2.2,0-4.3,0-6.5,0
			c-3.2,0-6.5-0.1-9.8-0.3c-1.3-0.1-2.6-0.3-3.9-0.5c-0.3-0.1-0.9-0.1-1.1-0.3c-0.2-0.2-0.1-0.7-0.2-1c-0.2-1.3-0.2-2.7-0.2-4
			c0-4.5-0.1-8.9-0.1-13.4c0-4.9,0.2-9.9,0.2-14.8c0-5.3,0.3-10.5,0.3-15.8c0-2.7,0.2-5.5,0.2-8.2c0-1.3,0-2.7,0.1-4
			c0-1.2-0.1-2.4,0-3.6c0.1-1.3-0.1-2.6,0.1-3.9c0.2-1.4,0.1-2.9,0.1-4.3c0-2.1,0.1-4.3,0.1-6.4c0,0.2-12.2,0.2-13.5,0.2
			c-2.5,0-5-0.4-7.4-0.5c-0.9,0-2.9-0.2-3.6-0.9c-0.8-0.8-1-2.4-1.2-3.5c-0.6-2.7-0.7-5.5-0.8-8.2c-0.1-1.6-0.2-3.1-0.2-4.7
			c0-1.2,0-2.5,0-3.7C67.9,438.9,67.7,436.5,68.6,434.7"/>
	</g>
	<g>
		<path d="M140.6,503.8c-1-0.6-1.4-2.1-1.7-3.1c-0.4-1.3-0.8-2.5-1-3.8c-0.8-3.7-0.7-7.7,0.2-11.4c0.5-2.1,0.9-4.2,2.1-6
			c0.5-0.9,1.1-1.5,2.2-1.5c1.2,0,2.3,0,3.4,0.2c2.4,0,4.8,0.5,7.2,0.8c1.1,0.1,2.2,0.5,3.3,0.5c0-1.9,0.5-3.9,0.7-5.8
			c0.4-3.2,0.8-6.5,1.3-9.7c0.2-0.9,0.3-1.9,0.6-2.8c0.5-1.6,2.3-2.1,3.8-2.4c2.7-0.5,5.6-0.4,8.3-0.4c2.8,0,5.6,0.3,8.3,0.5
			c1.7,0.1,3.2,0.6,3.8,2.4c0.3,1,0.4,2,0.6,3c0.5,3.3,0.8,6.6,1.2,9.9c0.2,1.3,0.3,2.5,0.5,3.8c0,0.3,0.1,0.6,0.2,0.9
			c0.1,0.5,1.3,0,1.7-0.1c2.8-0.4,5.7-0.8,8.5-1.2c1.4-0.2,2.7-0.3,4.1-0.3c0.7,0,1,0.1,1.4,0.7c0.3,0.7,0.6,1.3,0.7,2
			c0.8,2.5,0.9,5.5,0.9,8.1c0,2.4-0.2,4.7-0.4,7.1c-0.1,1.3-0.3,2.5-0.5,3.8c-0.3,1.4-0.6,3.3-1.7,4.4c-0.8,0.8-2.4,0.8-3.5,0.8
			c-1.8,0.1-3.6,0-5.3-0.1c-1.3-0.1-2.5-0.2-3.8-0.2c-0.4,0-0.3,0.1-0.3,0.4c0.4,10.7,0.9,21.4,1,32.1c0,2.7,0.1,5.4,0,8.1
			c0,1.5,0,3.1-0.3,4.6c-0.2,0.7-1,0.9-1.7,1c-1.6,0.5-3.4,0.8-5.1,1.1c-4.7,0.7-9.5,0.7-14.2,0.7c-2.1,0-4.4,0.1-6.5-0.2
			c-1.6-0.2-3.2-0.5-4.8-0.9c-0.9-0.2-1.7-0.4-2.6-0.6c-0.5-0.2-1.3-0.3-1.6-0.7c-0.2-0.2-0.3-0.8-0.3-1.1c-0.2-1.8-0.2-3.7-0.2-5.6
			c0-2.9,0.2-5.8,0.3-8.7c0.3-6.5,0.7-13.1,1.2-19.6c0.3-3.5,0.4-7.1,0.8-10.6c0.1-0.4-5-0.1-5.4-0.1c-1.5,0.1-3,0.1-4.5,0.1
			C142.7,504.2,141.4,504.3,140.6,503.8z"/>
	</g>
	<g>
		<path fill="#FFFFFF" d="M146,499.6c-0.8-0.5-1-1.6-1.1-2.4c-0.2-1.3-0.2-2.6-0.2-3.9c0.1-2.5,0.4-5.5,1.6-7.7
			c0.3-0.9,1-2.6,2.1-2.6c1.4,0,2.8,0.1,4.2,0.2c1.4,0.2,2.9,0.4,4.3,0.6c0.7,0.1,1.3,0.2,2,0.3c0.6,0.1,1.4,0.3,2,0.3
			c0-1.1,0.2-2.3,0.4-3.5c0.2-1.4,0.3-2.8,0.5-4.2c0.3-2.7,0.7-5.4,1-8.1c0.2-1.1,2.1-1.1,3-1.1c1.4-0.2,2.9-0.2,4.3-0.2
			c2.7,0,5.6,0,8.2,0.5c0.5,0.1,1.1,0.2,1.5,0.4c0,0.5,0.3,1,0.3,1.5c0.1,1.3,0.2,2.7,0.4,4c0.3,2.7,0.3,5.5,0.4,8.2
			c0,0.6,0,1.2,0.1,1.8c0,0.5,0.6,0.2,1,0.2c1.3-0.3,2.7-0.5,4-0.7c1.4-0.2,2.8-0.4,4.1-0.6c0.7-0.1,1.3-0.1,2-0.2
			c0.5-0.1,1.6-0.2,2.1,0c0.8,0.4,1.1,2.3,1.3,3.1c0.2,1.4,0.4,2.9,0.4,4.3c0.1,1.3,0.1,2.6,0,3.9c-0.1,1.3-0.1,2.8-0.5,4.1
			c-0.1,0.4-0.3,1.2-0.8,1.3c-0.5,0.3-1.2,0.2-1.8,0.2c-1.5,0-3-0.1-4.4-0.1c-1.4,0-2.9-0.2-4.3-0.2c-0.6,0-1.2-0.1-1.7-0.1
			c-0.5,0-1.2-0.4-1.2,0.2c0,5.3,0,10.5-0.2,15.8c-0.1,2.6-0.2,5.2-0.2,7.9c0,2.8-0.3,5.7-0.4,8.5c-0.1,2.7-0.4,5.3-0.6,8
			c-0.1,0.8-0.2,2.3-1.2,2.3c-1.2,0.3-2.5,0.2-3.7,0.4c-2.5,0.3-5.2,0.1-7.7,0.1c-2.6,0-5.4,0.1-7.9-0.5c-0.7,0-2.1-0.1-2.1-1.1
			c-0.4-0.8-0.2-2.2-0.2-3.1c0-2.6,0.2-5.1,0.2-7.7c0-2.7,0.4-5.4,0.5-8c0.2-2.8,0.4-5.6,0.7-8.4c0.3-2.3,0.4-4.6,0.6-7
			c0.3-2.4,0.5-4.9,0.7-7.3c-0.4,0.2-0.8,0.1-1.2,0.1c-0.6,0-1.1,0.2-1.7,0.2c-1.3,0-2.7,0.1-4,0.2c-1.2,0.1-2.4,0.1-3.6,0.1
			C148.2,499.9,146.8,500.1,146,499.6C145.8,499.5,146.1,499.7,146,499.6z"/>
	</g>
</g>
</svg>
