<?xml version="1.0" encoding="utf-8"?>
<!-- Generator: Adobe Illustrator 18.0.0, SVG Export Plug-In . SVG Version: 6.00 Build 0)  -->
<!DOCTYPE svg PUBLIC "-//W3C//DTD SVG 1.0//EN" "http://www.w3.org/TR/2001/REC-SVG-20010904/DTD/svg10.dtd" [
	<!ENTITY ns_flows "http://ns.adobe.com/Flows/1.0/">
	<!ENTITY ns_extend "http://ns.adobe.com/Extensibility/1.0/">
	<!ENTITY ns_ai "http://ns.adobe.com/AdobeIllustrator/10.0/">
	<!ENTITY ns_graphs "http://ns.adobe.com/Graphs/1.0/">
]>
<svg version="1.0" id="Camada_1" xmlns:x="&ns_extend;" xmlns:i="&ns_ai;" xmlns:graph="&ns_graphs;"
	 xmlns="http://www.w3.org/2000/svg" xmlns:xlink="http://www.w3.org/1999/xlink" xmlns:a="http://ns.adobe.com/AdobeSVGViewerExtensions/3.0/"
	 x="0px" y="0px" viewBox="-31 357.8 356.7 349.3" enable-background="new -31 357.8 356.7 349.3" xml:space="preserve">
<image overflow="visible" width="2486" height="2479" xlink:href="../../banco de imagens/bot천es/butt 22.png"  transform="matrix(0.1336 0 0 0.1336 -18.7816 368.796)">
</image>
<g>
	
		<image overflow="visible" width="2631" height="2500" xlink:href="../../banco de imagens/bot천es/butt 31.png"  transform="matrix(3.166667e-002 0 0 3.166667e-002 11.9652 576.965)">
	</image>
	
		<image overflow="visible" width="2631" height="2500" xlink:href="../../banco de imagens/bot천es/butt 31.png"  transform="matrix(3.166667e-002 0 0 3.166667e-002 105.6758 576.965)">
	</image>
	
		<image overflow="visible" width="2631" height="2500" xlink:href="../../banco de imagens/bot천es/butt 31.png"  transform="matrix(3.166667e-002 0 0 3.166667e-002 199.3865 576.965)">
	</image>
</g>
<g>
	<g>
		<path fill="#010001" d="M103.2,495.1c0.4,0.6,1.2,0.7,1.9,0.8c1.4,0.3,2.8,0.5,4.2,0.5c2,0,4.1-0.3,6-1c0.9-0.3,1.7-0.8,2.6-1.2
			c0.5-0.3,0.9-0.6,1.4-1c0.3-0.2,1-0.5,1.1-0.9c-0.1,0.2-0.5,0.4-0.6,0.6c-0.4,0.4-0.9,0.9-1.3,1.3c-0.5,0.5-0.9,0.9-1.4,1.4
			c-0.2,0.2-0.4,0.6-0.7,0.7c0.3-0.2,0.7-1,1-1c0.2,0,0.4,0.6,0.4,0.7c0.3,0.7,0.5,1.5,0.8,2.2c0.1,0.2-1,1.1-1.2,1.2
			c-0.5,0.5-1,1-1.5,1.4c0.5-0.8,1-1.5,1.5-2.3c-0.2,0.3-0.3,0.8-0.6,0.6c-0.5-0.3-1.1-0.6-1.6-0.9c-1.1-0.6-2.5-1.2-3.4-2.1
			c-0.2-0.2,0.2-0.4,0.3-0.5c0.2-0.2,0.2-0.4,0.3-0.7c0.4-0.9,0.6-1.9,0.8-2.8c0.3-1.2,0.6-2.5,0.8-3.8c0.3-1.4,0.6-3,0.6-4.4
			c0.1-2.4,0.5-4.8,0.5-7.2c0-1.1,0-2.1,0-3.2c0-2.9-0.1-5.8-0.2-8.7c-0.3-5.2-0.7-10.6-1.4-15.8c-0.8-5.8-1.3-11.7-2.3-17.5
			c-0.2-1.3-0.2-2.5-0.5-3.8c-0.3-1.5,1.4-1.5,2.5-1.7c1.3-0.4,2.9-0.4,4.3-0.6c0.8-0.1,1.6-0.1,2.4-0.1c2.4,0,4.8,0,7.1,0
			c4.9,0,9.8-0.2,14.7-0.1c2.9,0.1,5.9,0.2,8.7,0.7c1.2,0.2,2.5,0.2,3,1.5c0.5,1.4,0.9,2.8,1.4,4.2c0.5,1.3,0.8,2.7,1.1,4.1
			c0.4,1.5,0.9,3,1.1,4.5c0.9,2.9,1.4,5.9,2,8.9c0.6,3,1,6,1.5,9c0.4,3,0.7,5.9,1,8.9c0.4,3.9,0.6,8,0.6,11.9c0,2.5-0.1,5-0.1,7.5
			c0,1.3-0.2,2.6-0.3,3.8c-0.1,1.6-0.2,3.2-0.5,4.8c-0.4,2.9-0.4,6.1-1.4,8.9c-0.9,5.7-2.7,11.3-5,16.6c-2.2,5-5.1,9.6-8.6,13.7
			c-7.3,8.5-17.7,13.4-28.6,14.9c-9.6,1.3-20,0.7-29.1-2.9c-2.6-1-5-2.3-7.5-3.7c-1.1-0.6-2.2-1.4-3.3-2.2c-0.5-0.4-0.9-0.9-1.5-1.2
			c-0.6-0.4-1.2-0.9-1.8-1.4c-2-1.8-3.7-3.9-5.4-5.9c-1.7-2.1-3-4.5-4.4-6.7c-0.7-1.1-1.2-2.3-1.8-3.5c-0.6-1.3-1.2-2.6-1.7-4
			c-0.5-1.3-1.1-2.5-1.4-3.9c-0.2-0.7-0.4-1.3-0.6-2c-0.3-0.8-0.4-1.6-0.7-2.3c-0.5-1.3-0.5-2.8-1-4.1c-0.2-1.5-0.6-3-0.8-4.6
			c-0.5-3-0.9-6.1-1.2-9.1c-0.5-6.2-0.5-12.3-0.3-18.5c0.2-5.7,0.9-11.3,1.7-16.9c0.8-6.2,2.2-12.2,3.5-18.3
			c0.6-2.9,1.6-5.7,2.3-8.6c0.3-1.3,0.7-2.6,2.1-3c1.4-0.4,2.8-0.6,4.2-0.8c3.5-0.4,7.1-0.5,10.6-0.5c4.9,0,9.7,0.1,14.6,0.1
			c2.6,0,5.3,0.4,7.9,0.8c0.9,0.4,1.7,0.4,1.5,1.5c-0.2,1.2-0.3,2.6-0.4,3.8c-0.2,2.9-0.6,5.8-1,8.6c-0.4,2.8-0.5,5.7-0.9,8.6
			c-0.4,2.6-0.6,5.3-0.7,7.9c-0.1,2.3-0.4,4.5-0.4,6.8c0,2.8-0.2,5.6-0.2,8.5c0,2.9,0,5.9,0.3,8.8c0.2,1.4,0.2,2.9,0.4,4.3
			c0.1,0.7,0.1,1.4,0.2,2.1c0.1,0.8,0.4,1.5,0.5,2.3c0.3,1.9,0.7,4.2,1.7,5.8C103.1,495,103.2,495.1,103.2,495.1"/>
		<path fill="#FFFFFF" d="M71.1,435.6c0.8-0.8,2.3-0.9,3.4-1.1c1.5-0.2,3-0.3,4.4-0.5c1.4,0,2.8-0.1,4.2-0.1c1.5,0,2.9,0.1,4.3,0.1
			c1.3,0,2.6,0.2,3.9,0.4c0.5,0.1,3.3,0.3,3.3,1.2c-0.5,2.7-0.5,5.4-0.9,8.1c-0.4,2.6-0.5,5.3-0.9,7.9c-0.4,2.8-0.4,5.6-0.8,8.4
			c-0.3,2.3-0.4,4.7-0.4,7c0,2.6-0.2,5.2-0.2,7.8c0,3.7,0.3,7.4,0.7,11c0.1,1.3,0.4,2.6,0.6,3.9c0.3,1.6,0.9,3.1,1.1,4.6
			c0.5,1.2,1,2.4,1.5,3.6c0.7,1.1,1.4,2.2,2.2,3.2c2.7,3.6,7.9,5,12.2,4.1c2.4-0.5,4.5-1.4,6.4-3c1.8-1.6,3.2-4,4.1-6.2
			c2.1-5.1,2.5-10.7,2.8-16.1c0.2-2.2,0.1-4.4,0.1-6.6c0-1.6-0.1-3.3-0.2-4.9c-0.1-2.8-0.3-5.7-0.6-8.5c-0.7-5.4-1.1-10.8-1.8-16.2
			c-0.2-1.2-0.3-2.5-0.5-3.8c-0.1-0.6-0.1-1.3-0.2-1.9c-0.1-0.4-0.1-0.7-0.1-1.1c-0.1-0.3-0.3-0.9-0.1-1.2c0.5-0.9,2.6-0.9,3.4-1
			c1.3-0.2,2.6-0.4,3.9-0.4c3,0,6-0.2,9,0c1.3,0.1,2.6,0.1,3.9,0.3c0.6,0.1,1.3,0.2,1.9,0.4c1,0.2,1.1,0.7,1.5,1.6
			c0.7,2.6,1.6,5.1,2.1,7.7c0.5,2.5,1.3,5,1.7,7.5c0.4,2.6,1,5.2,1.3,7.8c0.4,2.7,0.8,5.4,1,8.1c0.2,2.7,0.3,5.4,0.6,8.1
			c0.2,2.5,0.3,5.3,0.1,7.8c-0.1,1.3-0.1,2.6-0.1,3.9c-0.1,2.6-0.3,5.3-0.6,7.9c-0.7,5.2-1.6,10.4-3.3,15.4c-0.8,2.5-1.6,5.2-3,7.4
			c-0.3,1-0.9,2.1-1.4,3c-0.7,1.2-1.4,2.6-2.4,3.7c-1.5,2.5-3.7,4.6-5.8,6.6c-2.1,1.9-4.5,3.8-7.1,5c-2.4,1.1-4.7,2.2-7.3,2.8
			c-2.5,0.6-5.2,1.3-7.8,1.3c-1.8,0.3-3.7,0.1-5.5,0.1c-2.2,0-4.4-0.2-6.5-0.6c-5.3-0.9-10.7-2.9-15-6c-2.3-1.7-4.7-3.6-6.5-5.9
			c-2-2-3.4-4.6-4.9-7.1c-2.6-4.3-4.5-9.5-5.6-14.4c-0.6-2.5-1.2-4.9-1.6-7.4c-0.4-2.6-0.6-5.2-0.9-7.8c-0.5-3.4-0.5-6.9-0.5-10.3
			c0-8.8,0.8-17.7,2.3-26.4c0.6-3.3,1.3-6.7,2-10c0.3-1.6,0.9-3.1,1.2-4.7c0.1-0.8,0.5-1.5,0.6-2.3
			C70.3,437.4,70.5,435.9,71.1,435.6"/>
	</g>
	<g>
		<g>
			<path d="M236.8,471.3c0.8,0.8,0.6,2.1,0.9,3.1c0,1.4,0.2,2.8,0.2,4.2c0,2.8,0.2,5.8-0.1,8.6c-0.1,1.3,0,2.7,0,4.1
				c0,1.4-0.1,2.9-0.1,4.3c0,2.7-0.1,5.4-0.1,8.1c0,2.8,0,5.5,0,8.3c0,2.7,0,5.6,0.3,8.3c0,2.9,0.4,5.7,0.6,8.6
				c0.2,2.9,0.5,5.7,0.7,8.6c0.1,1.5,0.3,3,0.4,4.4c0.1,1.4,0,2.8,0.3,4.2c0,1.2-0.1,2.4-0.1,3.5c0,1.4-1.4,1.2-2.5,1.3
				c-2.8,0.4-5.7,0.3-8.6,0.3c-3.2,0-6.3-0.1-9.5-0.1c-2.2,0-4.4-0.1-6.6-0.1c-2,0-4.9,0.2-6.3-1.6c-0.2-0.3-0.4-0.6-0.5-1
				c0-0.1-0.1-0.7-0.2-0.7c-0.2-0.1-1.1,0.6-1.2,0.7c-1.9,1.2-4,2.3-6.3,2.8c-5,1.1-10.3,1.1-15.1-0.6c-5.6-1.9-10.2-5.4-13.7-10.1
				c-1.7-2.3-3-4.9-4.1-7.5c-0.5-1.3-1-2.5-1.5-3.8c-0.5-1.3-1-2.8-1.3-4.2c-1.1-5.6-2-11.2-2-16.9c0-2.9,0.1-5.7,0.2-8.5
				c0.2-3.1,0.7-6.2,1.2-9.3c0.5-2.8,1.1-5.6,1.7-8.4c0.6-2.5,1.5-4.8,2.3-7.3c0.6-0.9,0.8-2,1.6-2.8c0.9-0.8,3-1,4.2-1
				c1.4-0.1,2.9-0.1,4.3-0.3c1.6-0.2,3.2,0,4.7,0c1.4,0,2.8,0.1,4.2,0.1c0.8,0.1,1.7,0.3,2.6,0.3c1.4,0.1,2.8,0.2,4.2,0.5
				c1.5,0.3,3.4,0.9,4.2,2.2c0.3,0.5,0.3,1.1,0.4,1.7c0.2,2.3,0.1,4.6,0,7c-0.1,6.5-0.4,13,0.2,19.5c0.2,1.7,1,10.8,4.8,8.3
				c1.5-1,2.1-3.4,2.4-5c0.7-2.9,0.9-5.9,1.1-8.9c0.4-6.1,0.3-12.2,0.5-18.3c0.1-1.4-0.2-3.3,1.1-4.3c1.3-1,3.2-1.3,4.8-1.6
				c1.3-0.2,2.4-0.4,3.6-0.7c1.7-0.4,3.4-0.4,5.1-0.6c2-0.2,4.1-0.3,6.1-0.3c1.8,0,3.6-0.1,5.4,0.1
				C233.2,470.7,235.1,470.7,236.8,471.3C236.9,471.3,236.6,471.2,236.8,471.3z"/>
		</g>
	</g>
	<path fill="#FFFFFF" d="M229.8,482.4c0.8,0.7,0.6,2.2,0.8,3.1c0.2,1.2,0.1,2.6,0.1,3.8c0,2.7-0.1,5.4-0.1,8.1
		c0,2.9-0.2,5.8-0.2,8.7c0,3,0.1,6.1,0.1,9.1c0.2,1.4,0.1,2.9,0.3,4.3c0,1.5,0.3,3,0.4,4.6c0,1.3,0.3,2.6,0.4,4
		c0.1,1.5,0.2,3,0.4,4.4c0,1.3,0.3,2.5,0.3,3.8c0,1.1,0,2.3,0,3.4c0,1.1-1.9,1-2.7,1c-1.4,0-2.9,0.1-4.3,0.2
		c-4.2,0.1-8.5-0.2-12.7-0.2c-1,0-1.9-0.2-2.9-0.2c-0.8-0.2-2.2-0.3-2.6-1.2c-0.2-0.5-0.2-1.2-0.1-1.7c0-0.2,0.2-1.8,0-1.9
		c0.1,0.1-1.8,1.9-2,2c-1,0.8-2.1,1.4-3.3,1.9c-1.1,0.6-2.4,0.8-3.7,1.2c-1.4,0.3-2.9,0.6-4.4,0.6c-3,0-5.8-0.3-8.7-1.2
		c-2.7-0.8-5-2.2-7.3-3.9c-2-1.5-3.9-3.6-5.2-5.8c-1.3-2.3-2.6-4.7-3.3-7.3c-0.6-1.2-0.7-2.4-1.1-3.7c-0.2-1.3-0.5-2.6-0.7-4
		c-0.3-2.6-0.5-5.1-0.5-7.7c0-2.8,0.2-5.7,0.6-8.5c0.2-1.4,0.5-2.8,0.7-4.3c0.2-1.4,0.7-2.8,1-4.2c0.5-2.4,1.7-4.6,2.5-6.8
		c0.4-0.7,0.8-1.7,1.6-1.8c1.3-0.3,2.5-0.3,3.8-0.5c2.9,0,5.8-0.4,8.7-0.1c1.2,0,2.6,0,3.7,0.3c0.5,0.2,0.4,0.5,0.4,1
		c0,0.6-0.1,1.3-0.3,1.9c0,2.6-0.9,5.3-1,7.9c-0.1,2.6-0.5,5.2-0.5,7.9c0,5.2-0.1,10.9,2.6,15.6c1.4,2.4,3.4,4.2,6.2,4.7
		c2.6,0.4,5.4-0.1,7.1-2.3c1.8-2,3-4.8,3.6-7.5c0.6-2.7,1.4-5.4,1.5-8.1c0-1.4,0.3-2.7,0.4-4.1c0-1.4,0.1-2.9,0.3-4.3
		c0-2.8,0.2-5.6,0.2-8.4c0-0.7-0.1-1.6,0.1-2.3c0-0.9,0-1.6,1.1-1.6c2.1-0.5,4.2-0.4,6.3-0.6c2.1-0.2,4.2-0.1,6.3-0.1
		C225.7,481.8,227.9,481.8,229.8,482.4C229.9,482.4,229.7,482.3,229.8,482.4z"/>
</g>
</svg>
