<?xml version="1.0" encoding="utf-8"?>
<!-- Generator: Adobe Illustrator 18.0.0, SVG Export Plug-In . SVG Version: 6.00 Build 0)  -->
<!DOCTYPE svg PUBLIC "-//W3C//DTD SVG 1.0//EN" "http://www.w3.org/TR/2001/REC-SVG-20010904/DTD/svg10.dtd" [
	<!ENTITY ns_flows "http://ns.adobe.com/Flows/1.0/">
	<!ENTITY ns_extend "http://ns.adobe.com/Extensibility/1.0/">
	<!ENTITY ns_ai "http://ns.adobe.com/AdobeIllustrator/10.0/">
	<!ENTITY ns_graphs "http://ns.adobe.com/Graphs/1.0/">
]>
<svg version="1.0" id="Camada_1" xmlns:x="&ns_extend;" xmlns:i="&ns_ai;" xmlns:graph="&ns_graphs;"
	 xmlns="http://www.w3.org/2000/svg" xmlns:xlink="http://www.w3.org/1999/xlink" xmlns:a="http://ns.adobe.com/AdobeSVGViewerExtensions/3.0/"
	 x="0px" y="0px" viewBox="-31 357.8 356.7 349.3" enable-background="new -31 357.8 356.7 349.3" xml:space="preserve">
<image overflow="visible" width="2486" height="2479" xlink:href="../../banco de imagens/bot천es/butt 22.png"  transform="matrix(0.1336 0 0 0.1336 -18.7816 368.796)">
</image>
<g>
	
		<image overflow="visible" width="2631" height="2500" xlink:href="../../banco de imagens/bot천es/butt 31.png"  transform="matrix(3.166667e-002 0 0 3.166667e-002 11.9652 576.965)">
	</image>
	
		<image overflow="visible" width="2631" height="2500" xlink:href="../../banco de imagens/bot천es/butt 31.png"  transform="matrix(3.166667e-002 0 0 3.166667e-002 105.6758 576.965)">
	</image>
	
		<image overflow="visible" width="2631" height="2500" xlink:href="../../banco de imagens/bot천es/butt 31.png"  transform="matrix(3.166667e-002 0 0 3.166667e-002 199.3865 576.965)">
	</image>
</g>
<g>
	<path d="M109.8,429.5c2.6,11,5.3,22,7.9,32.9c0,0,0,0.1,0,0.1c2.2-10.6,4.4-21.3,7.1-31.8c0.4-1.7,0.7-2.7,2.4-3.5
		c2.2-1.1,4.8-1.4,7.3-1.8c7.1-0.9,14.4-0.8,21.4,0c3.1,0.4,6.2,0.9,9.2,1.9c1.1,0.4,2.2,0.8,3.1,1.4c0.4,0.3,0.7,0.4,0.7,0.9
		c0,0.9-0.1,2.1-0.4,3c-0.7,2.3-0.7,4.9-1.5,7.2c-0.4,1.1-0.4,2.4-0.8,3.5c-0.4,1.4-0.8,2.9-1,4.3c-0.5,2.7-1.5,5.4-1.9,8.1
		c-0.8,2.7-1.4,5.4-2.1,8.1c-0.4,2.9-1.4,5.8-2.1,8.7c-0.8,3-1.6,6-2.4,8.9c-0.8,3.1-1.6,6.1-2.4,9.2c-0.7,3-1.7,6-2.5,9
		c-1.4,5.8-3.1,11.5-4.6,17.3c-0.7,2.7-1.8,5.4-2.3,8.2c-0.3,1.4-0.7,2.9-1.2,4.2c-0.4,1.4-0.7,2.8-1.2,4.2
		c-0.4,1.2-0.8,2.4-1.1,3.7c-0.3,1.4-1,2.8-1.3,4.2c-0.3,1.1-0.6,2.1-1,3.2c-0.3,0.7-0.5,1.9-1,2.5c-2.5,1.2-5.5,0.9-8.2,1.2
		c-2.8,0.3-5.8,0.2-8.6,0.2c-5.7,0-11.4-0.1-17.1-0.3c-1.4,0-2.8-0.2-4.1-0.3c-0.6,0-2.9,0-2.9-0.9c-1-1.9-1.7-4.1-2.3-6.2
		c-1.7-5.4-3.4-10.8-5-16.2c-1.6-5.4-3.3-10.8-4.7-16.2c-1.6-6-3.3-12-5.1-18c-0.9-3.1-1.5-6.2-2.5-9.2c-0.4-1.4-0.7-2.9-1.1-4.4
		c-0.4-1.5-0.9-3.1-1.3-4.6c-2.8-10.9-5.8-21.7-8-32.7c-0.5-2.4-0.8-4.8-1.3-7.1c-0.2-1-0.5-2.3,0.4-3.2c1.3-1.3,3.4-1.7,5.1-2.2
		c6.1-1.5,12.6-1.8,18.8-1.8c3.2,0,6.5,0.1,9.7,0.5c2.4,0.3,5,0.6,7.3,1.5C108,427.7,109.5,428.3,109.8,429.5
		C111.3,435.6,108.3,423.4,109.8,429.5z"/>
	<path fill="#FFFFFF" d="M79.1,435.8c0.9-0.6,2.7-0.7,3.7-0.7c1.4-0.1,2.8-0.3,4.2-0.3c2.9,0,6-0.1,8.9,0.1c1.3,0.1,2.7,0.3,4,0.4
		c1.2,0.1,2.2,0.4,2.7,1.4c0.8,2.5,1.6,5,2.4,7.6c0.8,2.8,1.7,5.5,2.4,8.3c0.6,2.7,1.6,5.3,2.2,8c1.2,5.4,3,10.7,4.3,16.2
		c0.6,2.6,1.7,5.2,2,7.8c0.7,2.2,1.3,4.4,1.8,6.6c0.7-2.2,1-4.7,1.7-6.9c0.8-2.7,1.3-5.6,2.1-8.4c0.4-1.3,0.7-2.7,1-4
		c0.3-1.4,0.8-2.7,1.1-4.1c0.8-2.6,1.6-5.4,2.1-8.1c1.7-5.4,3-10.9,4.6-16.3c0.4-1.3,0.7-2.6,1.2-3.9c0.4-1.1,0.7-2.4,1.3-3.4
		c0.4-0.9,1.3-1.2,2.3-1.2c1.4-0.3,2.9-0.3,4.3-0.4c3.1-0.1,6.1,0,9.1,0c1.3,0,2.7,0.1,4,0.3c1,0.2,2.8,0.1,3.6,0.9
		c0.1,0.1,0.1,0.8,0,1c0,0.5-0.1,0.9-0.1,1.4c-0.2,0.6-0.2,1.3-0.3,1.9c0,0.7-0.3,1.3-0.3,2c-0.1,1.2-0.4,2.5-0.7,3.7
		c-0.3,1.5-0.5,3-0.8,4.4c-0.7,2.6-1,5.3-1.6,7.9c-0.4,1.3-0.7,2.8-0.8,4.2c-0.4,1.5-0.8,3.1-1.1,4.7c-0.4,2.7-1.1,5.4-1.7,8
		c-0.6,2.7-1.2,5.3-1.8,8c-1.1,5.4-2.5,10.8-3.6,16.2c-1.2,5.6-2.5,11.2-3.8,16.8c-0.7,2.7-1.5,5.5-2,8.2c-0.2,1.3-0.7,2.5-0.9,3.7
		c-0.5,1.4-0.7,3-1.1,4.4c-0.7,2.3-0.9,4.9-1.9,7.1c-0.1,0.3-0.3,0.7-0.3,1c-0.2,0.3-0.8,0.4-1.1,0.5c-1.3,0.4-2.6,0.4-3.9,0.5
		c-2.9,0.3-5.8,0.3-8.7,0.3c-3.1,0-6.2,0.2-9.2-0.1c-1.2-0.1-2.6-0.2-3.8-0.2c-1.1,0-2.8-0.1-3.8-0.6c-0.4-0.4-0.6-1.3-0.8-1.8
		c-0.5-1.1-0.9-2.5-1.2-3.7c-0.5-2.7-1.7-5.3-2.2-8c-0.5-2.6-1.3-5.2-2-7.8c-1.4-5.7-3-11.3-4.1-17c-2.5-10.7-4.9-21.4-7.4-32
		c-0.6-2.9-1.2-5.7-1.9-8.6c-0.6-2.7-1.3-5.6-1.7-8.4c-0.7-2.7-1.1-5.4-1.6-8.1c-0.2-1.2-0.4-2.4-0.6-3.5c-0.3-1.3-0.3-2.6-0.5-3.9
		C78.4,437,78.4,436,79.1,435.8C79.3,435.6,79,435.8,79.1,435.8z"/>
</g>
<g>
	<g>
		<path d="M154.5,479.7c0.6-0.1,1.1-0.4,1.7-0.5c0.6-0.1,1.3-0.1,1.9-0.2c1.4-0.2,2.8-0.2,4.2-0.3c1.4-0.1,2.8-0.1,4.2-0.1
			c1.5,0,3-0.1,4.5,0c3.3,0.3,6.7,0.2,9.8,1.6c1.8,0.8,3.4,2.1,4.4,3.8c1,1.7,1.6,3.7,2.4,5.5c1.3,3.3,2.3,6.8,3.8,10
			c0.4,0.7,0.5,0.2,0.7-0.4c0.5-1.3,0.8-2.7,1.2-4c1-3.4,1.9-6.8,3.2-10.1c1.2-3.1,4.6-4.4,7.7-5c1.6-0.3,3.1-0.8,4.7-0.8
			c2.9-0.1,5.8-0.4,8.7-0.2c2.7,0.2,5.5,0.2,8.2,0.6c1,0.2,2.4,0.2,3.3,0.9c0.5,0.4,0.2,2,0,2.5c0,1-0.4,2.2-0.6,3.2
			c-0.5,1.2-0.7,2.6-1,3.8c-0.7,2.6-1.5,5.2-2.2,7.9c-1.5,5.5-3.3,10.9-5.1,16.2c-1,2.9-1.9,5.8-3,8.6c-1,2.8-2.2,5.5-3.2,8.3
			c-1,2.7-2.4,5.3-3.6,7.9c-1.2,2.6-2.5,5.1-3.9,7.5c-0.6,1-1.1,2.2-1.9,3c-0.5,1.1-1.6,1.1-2.8,1.2c-2.6,0.4-5.4,0.3-8,0.3
			c-3,0-6-0.2-8.9-0.2c-1.3,0-2.5-0.1-3.8-0.2c-0.9-0.1-2.5,0-3.1-0.8c-1.5-2.2-2.6-4.6-3.8-7c-1.2-2.5-2.5-4.9-3.6-7.5
			c-2.3-4.6-4.3-9.5-6.1-14.3c-1.8-4.8-3.7-9.7-5-14.7c-0.8-2.2-1.3-4.7-2-7c-0.7-2.4-1.2-4.9-1.8-7.3c-0.5-2.2-1-4.4-1.3-6.7
			c-0.1-1.1-0.2-2.2-0.4-3.3C153.9,481.4,153.8,480.1,154.5,479.7C154.8,479.7,154.4,479.8,154.5,479.7z"/>
	</g>
	<g>
		<path fill="#FFFFFF" d="M163.6,490.6c2.5-0.6,5-0.8,7.6-0.8c1.3,0,2.6,0,4,0c1.3,0,2.7,0.2,4,0.2c1.1,0.2,2.4,0,2.9,1.2
			c0.5,1,0.8,2.1,1.2,3.2c0.6,2.6,1.8,5.1,2.6,7.7c1.8,4.4,3.2,8.9,5,13.3c0.1,0.1,0.5,1.3,0.7,1.2c0.4-0.3,0.7-1.3,0.9-1.7
			c0.7-1.8,1.6-3.5,2.3-5.3c1.9-5.2,4-10.5,5.5-15.9c0.3-1,0.7-1.8,1.2-2.6c0.8-0.7,2.3-0.7,3.4-0.8c2.7-0.1,5.4-0.1,8-0.1
			c1.2,0,2.5,0.1,3.7,0.2c1.1,0.1,2.8,0.1,3.7,0.9c0.2,0.5-0.1,1.6-0.2,2.1c-0.3,1.2-0.6,2.4-0.9,3.7c-1.4,5.4-3.2,10.8-5.2,16
			c-1.9,5.2-3.8,10.4-6.3,15.3c-1.2,2.4-2.3,4.8-3.8,7.1c-0.6,0.9-1.1,2-1.8,2.9c-0.2,0.2-0.5,1-0.8,1c-0.4,0.4-1.3,0.3-1.8,0.4
			c-2.6,0.3-5.2,0.2-7.8,0.2c-2.6,0-5.3,0-7.9-0.3c-1.1-0.1-2-0.1-2.6-1.1c-0.6-1-1.2-2.1-1.9-3c-1.3-2.4-2.5-4.8-3.8-7.2
			c-1.7-3-3.1-6.4-4.4-9.6c-1.3-3.1-2.7-6.3-3.6-9.6c-0.7-1.7-1.2-3.6-1.7-5.5c-0.5-1.7-1-3.4-1.3-5.1c-0.2-1.4-0.9-2.9-0.9-4.3
			C163.3,493.4,162.7,491,163.6,490.6C163.8,490.6,163.5,490.7,163.6,490.6z"/>
	</g>
</g>
</svg>
