<?xml version="1.0" encoding="utf-8"?>
<!-- Generator: Adobe Illustrator 18.0.0, SVG Export Plug-In . SVG Version: 6.00 Build 0)  -->
<!DOCTYPE svg PUBLIC "-//W3C//DTD SVG 1.0//EN" "http://www.w3.org/TR/2001/REC-SVG-20010904/DTD/svg10.dtd" [
	<!ENTITY ns_flows "http://ns.adobe.com/Flows/1.0/">
	<!ENTITY ns_extend "http://ns.adobe.com/Extensibility/1.0/">
	<!ENTITY ns_ai "http://ns.adobe.com/AdobeIllustrator/10.0/">
	<!ENTITY ns_graphs "http://ns.adobe.com/Graphs/1.0/">
]>
<svg version="1.0" id="Camada_1" xmlns:x="&ns_extend;" xmlns:i="&ns_ai;" xmlns:graph="&ns_graphs;"
	 xmlns="http://www.w3.org/2000/svg" xmlns:xlink="http://www.w3.org/1999/xlink" xmlns:a="http://ns.adobe.com/AdobeSVGViewerExtensions/3.0/"
	 x="0px" y="0px" viewBox="-31 357.8 356.7 349.3" enable-background="new -31 357.8 356.7 349.3" xml:space="preserve">
<image overflow="visible" width="2486" height="2479" xlink:href="../../banco de imagens/bot천es/butt 22.png"  transform="matrix(0.1336 0 0 0.1336 -18.7816 368.796)">
</image>
<g>
	
		<image overflow="visible" width="2631" height="2500" xlink:href="../../banco de imagens/bot천es/butt 31.png"  transform="matrix(3.166667e-002 0 0 3.166667e-002 11.9652 576.965)">
	</image>
	
		<image overflow="visible" width="2631" height="2500" xlink:href="../../banco de imagens/bot천es/butt 31.png"  transform="matrix(3.166667e-002 0 0 3.166667e-002 105.6758 576.965)">
	</image>
	
		<image overflow="visible" width="2631" height="2500" xlink:href="../../banco de imagens/bot천es/butt 31.png"  transform="matrix(3.166667e-002 0 0 3.166667e-002 199.3865 576.965)">
	</image>
</g>
<g>
	<path d="M209.4,476.8c-2.2,0.3-4,2.2-5.3,3.8c-1.9,2.3-3.4,4.9-4.7,7.5c-1.8,3.5-3.4,7.1-4.8,10.8c-0.2-6.5-1.8-13.6-5.3-19.2
		c-0.5-0.8-1-1.4-1.7-1.9c-0.6-0.4-1.3-0.7-2-1c-1.6-0.6-3.2-1-4.9-1.3c-3.8-0.6-7.7-0.7-11.6-0.3c-3.1,0.4-6.6,1-9.2,2.9
		c-0.8,0.6-1.6,1.4-1.8,2.5c-0.2,0.9-0.3,1.8-0.4,2.7c-0.5,5.9-0.2,11.9,0.2,17.7c0.5,7.4,1.3,14.7,2.6,22c1,5.7,2.2,11.9,5,17.1
		c0.8,1.5,1.8,3.1,3.3,3.9c1.5,0.7,3.4,0.9,5,1.2c2.3,0.4,4.7,0.6,7,0.7c4.6,0.2,9.1,0.2,13.7,0c1.7-0.1,3.3-0.1,5-0.1
		c1.5,0,2.7-0.2,3.9-1.1c3.1-2.3,4.9-6.4,6.2-9.9c1,2.4,2.3,4.9,3.7,7.1c0.8,1.3,1.9,2.8,3.2,3.6c0.7,0.4,1.5,0.5,2.2,0.6
		c6.3,0.9,12.8,0.9,19.2,0.8c3.2,0,6.3-0.1,9.5-0.5c1.2-0.1,3.3-0.2,4.1-1.3c0.7-1.1,1.1-2.4,1.5-3.7c0.7-2.2,1.3-4.5,1.9-6.7
		c1.6-6.3,2.8-12.7,3.8-19.1c1.1-6.7,1.9-13.6,2.1-20.4c0.1-2.8,0-5.6-0.3-8.4c-0.2-2-0.6-4.1-1.5-6c-1.2-2.5-4-3.6-6.5-4.5
		c-4.4-1.5-9.1-1.6-13.6-1.1c-3.3,0.3-6.5,1-9.7,1.9c-2,0.6-2.5,3.7-2.9,5.4c-1.1,5.3-1.3,10.8-1.3,16.1c0,0.1,0,0.1,0,0.2
		c-1-3.8-3.1-7.6-5.1-11.2c-1.4-2.7-3-5.4-5-7.6C213.6,478.4,211.6,476.5,209.4,476.8z"/>
	<g>
		<path d="M171.4,426.1c0,4-0.5,8-1.1,11.9c-0.9,6-2,11.9-3.2,17.8c-2.9,14.4-6.4,28.8-10.1,43.1c-3.2,12.3-6.5,24.5-10.4,36.6
			c-1.1,3.3-2.1,6.6-3.7,9.7c-0.2,0.4-0.4,0.8-0.6,1.1c-0.8,1.1-2.6,1.2-3.8,1.2c-2.9,0.4-5.9,0.3-8.8,0.3c-2.9,0-5.8,0-8.6-0.3
			c-2.2-0.2-4.3-0.2-6.5-0.6c-0.5-0.1-1.1-0.2-1.7-0.3c-0.5-0.2-0.5-0.4-0.8-0.8c-0.4-1.1-0.7-2.3-1-3.4c-0.8-2.2-1.2-4.7-1.6-7
			c-0.4-2.5-1-5.1-1.6-7.6c-0.3-2.4-0.9-4.7-1.3-7.1c-0.5-2.5-1-5.1-1.4-7.7c-0.3-2.3-1-4.6-1.3-6.9c-0.3-1.9-0.6-3.8-0.9-5.6
			c-0.3,2.2-0.9,4.4-1.3,6.7c-0.5,2.8-1,5.7-1.7,8.4c-0.4,3.1-1.2,6.3-1.9,9.4c-0.3,1.5-0.6,3-1,4.5c-0.4,1.5-0.8,3.1-1,4.7
			c-0.7,2.7-1.4,5.5-2.1,8.2c-0.3,1.2-0.7,2.5-1.3,3.6c-0.2,0.3-0.3,1-0.8,1c-0.7,0-1.4,0-2.1,0.1c-5.7,0.3-11.5,0.6-17.2,0.6
			c-1.4,0-2.9,0.1-4.3-0.1c-0.7-0.1-1.4,0-2.1-0.1c-0.8-0.1-1.5-0.2-2.3-0.3c-0.6-0.1-1.2-0.5-1.7-0.9c-0.8-0.6-1.4-1.5-1.8-2.4
			c-1.9-3.3-3.2-7-4.4-10.7c-4.1-12-7.3-24.4-10.2-36.7c-3.3-13.8-6.3-27.7-8.9-41.7c-1-5.6-2-11.2-2.7-16.9c-0.5-3.7-1-7.4-1-11.1
			c0-0.3,0-0.6,0-0.8c0-0.5,2.9-0.7,3.3-0.7c2.9-0.4,5.8-0.5,8.7-0.5c3.1,0,6.3-0.1,9.5-0.1c2.9,0,5.7,0.2,8.6,0.2
			c2.8,0,5.7,0.2,8.4,0.7c0.3,0,1.3,0.2,1.4,0.5c0.1,0.4,0.4,0.8,0.5,1.3c0.4,1.3,0.8,2.6,1.1,3.9c0.7,2.8,1.2,5.6,1.9,8.4
			c0.3,1.4,0.6,2.8,0.9,4.2c0.3,1.6,0.8,3.2,1,4.9c0.4,2.8,1.2,5.6,1.6,8.5c0.5,2.9,1,5.9,1.6,8.8c0.6,2.7,1,5.5,1.4,8.2
			c0.2,1.3,0.6,2.6,0.7,4c0.1,0.8,0.5,1.8,0.4,2.6c0.2-0.9,0.6-1.8,0.9-2.6c0.5-1.3,0.8-2.7,1.3-4c1-2.7,1.8-5.5,2.7-8.2
			c2.1-6,4.2-12.1,6.4-18.1c0.5-1.4,0.9-2.7,1.5-4.1c0.5-1.3,0.9-2.8,1.7-3.8c1.3-1.6,3.1-2.5,5.2-2.3c1.7,0.2,3.4,1.1,4.3,2.7
			c0.3,0.4,0.3,0.9,0.6,1.3c0.3,0.6,0.6,1.1,0.8,1.7c0.5,1.4,1,2.8,1.7,4.2c1.3,2.8,2.3,5.7,3.3,8.5c1.1,3,2.5,6,3.4,9.1
			c0.4,1.3,0.9,2.5,1.4,3.8c0.5,1.4,0.9,2.8,1.5,4.1c0.6,1.2,0.8,2.6,1.4,3.9c0.3,0.9,0.8,1.9,1,2.8c0-0.3,0.1-0.7,0.1-1
			c0.1-0.6,0.1-1.1,0.2-1.7c0.1-1.3,0.3-2.7,0.5-4c0.5-2.8,0.7-5.6,1.1-8.4c0.4-3,1-6.1,1.3-9.1c0.3-2.9,0.7-5.9,1.3-8.7
			c0.7-5.9,1.9-11.7,3.2-17.4c0.2-1,0.6-2.4,1.2-3.3c0.2-0.3,1.1-0.4,1.5-0.5c0.7-0.1,1.5-0.3,2.2-0.3c2.9-0.2,5.8-0.5,8.7-0.5
			c4.8,0,9.6-0.3,14.4-0.1c2.3,0.1,4.6,0.2,6.9,0.3C167.5,425.2,169.7,425.2,171.4,426.1z"/>
		<path fill="#FFFFFF" d="M162.8,434.8c0.5,0.7,0.5,1.7,0.5,2.5c0.1,1.5-0.1,3.1-0.2,4.6c-0.4,4.7-1.2,9.4-2.1,14.1
			c-2.4,12.9-5.3,25.6-8.6,38.3c-2.9,11.2-5.9,22.5-10,33.3c-1,2.6-2,5.7-3.8,7.9c-0.6,0.6-1.5,1-2.3,1.3c-3,1.3-6.3,1.8-9.5,2
			c-2.9,0.2-6.6,0.4-9.3-1.1c-1.1-0.7-1.4-1.5-1.7-2.7c-1.1-4.3-2.1-8.5-3.2-12.8c-2.8-11.2-5.6-22.4-8.5-33.6
			c-0.2-0.8-0.4-1.6-0.6-2.4c-2.4,8.7-4.7,17.5-7.1,26.2c-1.5,5.7-3.1,11.4-4.6,17.1c-0.5,1.7-0.9,3.3-1.4,5
			c-0.3,1.1-0.6,1.9-1.7,2.6c-2.6,1.8-6.3,2-9.4,2c-3.5,0-7.3-0.3-10.6-1.7c-1.2-0.5-2.7-1.2-3.5-2.2c-0.7-0.8-1.1-1.8-1.5-2.8
			c-1.6-3.7-2.9-7.6-4.1-11.4c-1.8-5.6-3.3-11.2-4.8-16.9c-3.4-12.9-6.5-26-9-39.1c-1.1-5.5-2-11.1-2.7-16.7
			c-0.4-3.6-0.9-7.4-0.5-11.1c0.1-0.9,0.2-1.9,0.8-2.6c0.7-0.9,2.2-1.4,3.3-1.8c1.9-0.7,3.9-1.1,5.9-1.2c3.7-0.3,7.7-0.1,11.2,1.1
			c1.1,0.4,2.8,0.9,3.1,2.2c2.1,9.1,4.2,18.1,6.3,27.2c2.5,10.9,5,21.8,7.5,32.8c0.2,1.1,0.5,2.1,0.7,3.2c3.3-8.6,6.6-17.3,9.9-25.9
			c2-5.3,4-10.6,6.1-15.9c1.1-3,3-9.7,7.4-7.6c1.8,0.9,2.6,2.7,3.2,4.5c0.6,1.7,1.2,3.3,1.8,5c2,5.7,4,11.3,5.9,17
			c2.8,7.9,5.5,15.8,8.3,23.7c1.4-8.1,2.8-16.2,4.3-24.3c1.2-6.6,2.5-13.3,3.8-19.9c1.1-5.3,2.2-10.5,3.6-15.7
			c0.4-1.4,0.8-2.8,1.4-4.1c0.8-1.5,3-2.1,4.5-2.6c3.4-1,7.1-1.5,10.7-1.4c3.2,0.1,6.9,0.5,9.4,2.8
			C162.2,434.1,162.5,434.4,162.8,434.8z"/>
	</g>
	<path fill="#FFFFFF" d="M164.1,485.1c0.8-0.8,2.5-0.6,3.6-0.8c1.5-0.2,3-0.2,4.5-0.3c2.9-0.2,5.9-0.2,8.8,0
		c1.3,0.1,2.6,0.1,3.8,0.3c0.6,0.1,1.1,0.2,1.6,0.4c0.4,0.4,0.6,0.8,0.8,1.4c0.9,2.4,1.1,5,1.5,7.5c0.9,5.1,1.8,10.2,3.2,15.2
		c0.2,0.7,0.4,1.5,0.6,2.2c0.1,0.4,0.3,1.6,0.7,1.8c0.3,0.1,1.7-2.8,1.8-3.2c1-2.5,2.6-4.7,3.7-7.2c1.1-2.4,2.3-4.8,3.5-7.2
		c1.2-2.5,2.2-5.2,3.8-7.5c0.5-1,1.1-2,1.8-2.9c0.9-1,1.5-0.4,2.2,0.3c1.5,2.1,3,4.3,4.2,6.5c1.2,2.2,2.6,4.4,3.7,6.8
		c0.5,1.2,1.3,2.2,1.9,3.3c0.7,1.2,1.3,2.5,2,3.7c1,1.8,2,3.6,2.9,5.4c0.3,0.5,0.5,1.3,1,1.7c0.2,0.2,0.6-1.2,0.6-1.4
		c0.5-1.9,0.8-3.8,1.3-5.6c1.3-5.1,1.3-10.5,1.9-15.7c0.1-1.3,0.3-2.6,0.5-3.9c0.3-1.4,1.3-1.7,2.6-2c2.8-0.5,5.6-0.2,8.4-0.2
		c2.9,0,5.9,0.2,8.8,0.6c1.3,0.2,2.5,0.3,3.7,0.8c0,0.4,0.3,0.9,0.3,1.4c0,0.6,0.1,1.2,0.1,1.8c0,5.2-0.3,10.5-1,15.7
		c-0.4,2.5-0.7,5-1,7.6c-0.4,2.6-1.1,5.1-1.5,7.7c-0.4,2.5-1.2,5-1.9,7.4c-0.8,2.7-1.8,5.4-3,8c-0.2,0.6-0.6,1.2-0.9,1.7
		c-0.3,0.4-0.5,1.3-1,1.5c-1,0.6-2.6,0.7-3.7,0.8c-2.9,0.4-5.9,0.5-8.8,0.5c-2.9,0-5.9-0.1-8.8-0.1c-1.3,0-2.7-0.1-3.9-0.5
		c-0.4-0.1-1.1-0.2-1.4-0.5c-0.4-0.4-0.8-1.2-1.1-1.7c-1.3-2.2-2.7-4.5-3.6-7c-0.8-2.1-1.9-4.3-2.2-6.5c-0.1-0.4-0.5-3.7-0.9-3.7
		c-0.2,0-1.4,4.1-1.4,4.4c-0.6,2.5-2,4.8-3,7.1c-0.6,1.1-1.3,2.3-2,3.4c-0.7,1.2-1.6,2.8-2.6,3.7c-0.7,0.7-2.4,0.5-3.3,0.7
		c-1.5,0.2-3.1,0.3-4.6,0.3c-1.4,0.2-2.9,0.1-4.3,0.1c-1.5,0-3.1,0.1-4.6-0.1c-2.8,0-5.8,0-8.5-0.5c-0.5-0.1-1.1-0.2-1.6-0.4
		c-0.5-0.2-0.7-0.8-0.9-1.2c-0.5-1.2-1-2.4-1.4-3.6c-1.8-5.1-2.9-10.3-4-15.6c-0.5-2.6-1-5.2-1.3-7.8c-0.3-2.5-1-5.1-1-7.5
		C164.5,500.9,162.8,485.1,164.1,485.1C164.2,485,164,485.1,164.1,485.1z"/>
</g>
</svg>
