<?xml version="1.0" encoding="utf-8"?>
<!-- Generator: Adobe Illustrator 18.0.0, SVG Export Plug-In . SVG Version: 6.00 Build 0)  -->
<!DOCTYPE svg PUBLIC "-//W3C//DTD SVG 1.0//EN" "http://www.w3.org/TR/2001/REC-SVG-20010904/DTD/svg10.dtd">
<svg version="1.0" id="Camada_1" xmlns="http://www.w3.org/2000/svg" xmlns:xlink="http://www.w3.org/1999/xlink" x="0px" y="0px"
	 viewBox="0 0 1024 768" enable-background="new 0 0 1024 768" xml:space="preserve">
<image overflow="visible" enable-background="new    " width="1500" height="1500" xlink:href="../../../Desenhos Jogo Yegatu/png2/akara.png"  transform="matrix(0.6054 0 0 0.6054 57.8741 -181.7716)">
</image>
<g>
	<path fill="#F1CC5A" d="M714.9,738.6H561.6c-12.8,0-23.2-10.4-23.2-23.2v-128c0-12.8,10.4-23.2,23.2-23.2h153.3
		c12.8,0,23.2,10.4,23.2,23.2v128C738.1,728.1,727.7,738.6,714.9,738.6z"/>
	<path fill="#FFEDBB" d="M703.5,723.7H573c-12.8,0-23.2-10.4-23.2-23.2v-97.9c0-12.8,10.4-23.2,23.2-23.2h130.6
		c12.8,0,23.2,10.4,23.2,23.2v97.9C726.7,713.3,716.3,723.7,703.5,723.7z"/>
</g>
<g enable-background="new    ">
	<path fill="#020202" d="M292.3,695.6L292.3,695.6c0-0.4-0.1-0.9,0.1-1.1c0-0.2,0-0.3,0.1-0.5c0-0.1,0-0.3,0-0.5
		c0.1-0.2,0.1-0.4,0.2-0.6c0.1-0.4,0.1-0.8,0.2-1.2c0.4-1.3,0.7-2.7,1-4c0.2-0.6,0.4-1.3,0.6-1.9c0.1-0.3,0.1-0.7,0.2-1
		c0.1-0.3,0.2-0.7,0.3-1c0.1-0.4,0.2-0.8,0.3-1.1c0.1-0.4,0.3-0.8,0.4-1.1c0.2-0.8,0.4-1.6,0.6-2.4c0.2-0.9,0.5-1.7,0.8-2.6
		c0.3-2.3,1.2-4.7,1.8-6.9c0.6-1.5,0.9-3,1.2-4.5c0.3-1,0.6-2,1-3c0.1-0.6,0.3-1.1,0.4-1.6c0.3-1.1,0.6-2.1,1-3.1
		c0.1-0.6,0.3-1.1,0.4-1.6c0.2-0.6,0.4-1.1,0.5-1.7c0.2-0.5,0.4-1,0.5-1.6c0.2-0.5,0.4-1,0.5-1.6c0.2-0.6,0.4-1.1,0.5-1.7
		c0.2-0.5,0.4-1,0.5-1.6c0.2-0.6,0.4-1.1,0.5-1.7c0.2-0.5,0.4-1,0.5-1.6c0.2-0.6,0.4-1.1,0.5-1.7c0.2-0.6,0.4-1.1,0.5-1.6
		c0.2-0.6,0.4-1.1,0.5-1.7c0.2-0.6,0.4-1.1,0.5-1.7c0.2-0.5,0.4-1,0.6-1.6c0.1-0.6,0.3-1.1,0.5-1.7c0.1-0.6,0.3-1.1,0.5-1.6
		c0.1-0.6,0.3-1.1,0.5-1.7c0.1-0.5,0.3-1,0.5-1.6c0.1-0.6,0.3-1.1,0.5-1.6c0.1-0.6,0.3-1.1,0.5-1.6c0.1-0.6,0.3-1.1,0.5-1.6
		c0.1-0.6,0.3-1.1,0.5-1.6c0.1-0.5,0.3-1,0.5-1.6c0.1-0.5,0.3-1,0.4-1.5c0.2-0.5,0.4-1,0.5-1.5c0.3-1,0.6-2,1-3
		c0.1-0.5,0.3-1,0.4-1.5c0.3-0.9,0.6-1.9,0.9-2.9c0.8-1.7,1-3.7,1.7-5.4c0.4-1.3,0.8-2.5,1.2-3.8c0.2-1.2,0.8-2.2,1-3.4
		c0.1-0.3,0.3-0.7,0.4-1c0.1-0.3,0.2-0.6,0.3-1c0.1-0.4,0.2-0.7,0.3-1c0.1-0.3,0.2-0.6,0.3-0.9c0.1-0.3,0.2-0.6,0.3-1
		c0.2-0.5,0.4-1.1,0.6-1.6c0.1-0.5,0.3-0.9,0.5-1.3c0.1-0.6,0.3-1.2,0.6-1.7c0-0.3,0.1-0.6,0.3-0.9c0-0.1,0-0.3,0.1-0.4
		c0.1-0.1,0.1-0.2,0.1-0.3c0.1-0.1,0.1-0.3,0.2-0.4v-0.1c0.1-0.1,0.3-0.1,0.4-0.2c0.2-0.1,0.4-0.1,0.6-0.2c0.3-0.1,0.5-0.1,0.9-0.1
		c0.3-0.1,0.6-0.1,1-0.2c0.4,0,0.9,0,1.2-0.1c0.4,0,0.9,0,1.3-0.1c0.5,0,1,0,1.5-0.1c1.1,0,2.2,0,3.3-0.1c1.7,0,3.4,0,5.1,0
		c1.6,0.2,3.2,0,4.8,0.2c0.4,0,0.9,0,1.3,0.1c0.4,0,0.9,0,1.2,0c0.4,0.1,0.7,0.1,1.1,0.1c0.3,0.1,0.6,0.1,0.9,0.1
		c0.2,0.1,0.4,0.1,0.7,0.2c0.1,0,0.3,0,0.4,0.1v0.1c0.1,0,0.1,0,0.1,0.1c0.1,0.1,0.1,0.1,0.1,0.2c0.1,0.1,0.1,0.2,0.1,0.3
		c0.1,0.1,0.1,0.2,0.2,0.3c0,0.1,0,0.3,0.1,0.4c0.1,0.2,0.1,0.3,0.2,0.5c0.2,0.6,0.4,1.1,0.6,1.7c0.1,0.3,0.1,0.5,0.2,0.7
		c0.2,0.5,0.4,1,0.6,1.5c0.1,0.3,0.1,0.6,0.2,0.9c0.1,0.3,0.2,0.6,0.3,1c0.1,0.3,0.2,0.6,0.3,1c0.1,0.3,0.3,0.6,0.4,1
		c0.2,0.7,0.4,1.4,0.6,2.1c0.4,1.2,0.9,2.3,1.1,3.5c0.6,1.7,1,3.4,1.5,5.1c0.6,1.3,0.8,2.8,1.2,4.2c0.3,1,0.6,2,0.9,2.9
		c0.3,1,0.6,2,1,3c0.1,0.5,0.3,1,0.4,1.6c0.2,0.5,0.4,1,0.5,1.5c0.3,1.1,0.6,2.2,1,3.2c0.1,0.5,0.3,1,0.5,1.6
		c0.1,0.6,0.3,1.1,0.5,1.6c0.1,0.6,0.3,1.1,0.5,1.7c0.1,0.5,0.3,1,0.5,1.6c0.1,0.6,0.3,1.1,0.4,1.7c0.2,0.6,0.4,1.1,0.5,1.6
		c0.2,0.6,0.4,1.1,0.6,1.7c0.1,0.6,0.3,1.1,0.5,1.7c0.1,0.6,0.3,1.1,0.5,1.7c0.1,0.6,0.3,1.1,0.5,1.7c0.1,0.6,0.3,1.1,0.5,1.7
		c0.1,0.6,0.3,1.1,0.5,1.7c0.1,0.6,0.3,1.1,0.5,1.7c0.1,0.5,0.3,1,0.5,1.6c0.1,0.6,0.3,1.1,0.4,1.7c0.2,0.6,0.4,1.1,0.5,1.7
		c0.2,0.6,0.4,1.1,0.5,1.7c0.2,0.5,0.4,1,0.5,1.6c0.3,1.1,0.6,2.2,1,3.3c0.1,0.6,0.3,1.1,0.4,1.6c0.3,1.1,0.6,2.2,1,3.2
		c0.2,1.1,0.5,2.1,0.9,3.1c0.3,1,0.5,2,0.8,3c1,2.6,1.9,5.8,2.3,8.6c0.3,0.9,0.5,1.8,0.8,2.7c0.2,0.8,0.4,1.7,0.7,2.5
		c0.1,0.4,0.2,0.8,0.3,1.1c0.1,0.4,0.2,0.8,0.3,1.1c0.1,0.4,0.2,0.7,0.3,1c0.1,0.4,0.2,0.7,0.3,1c0.1,0.7,0.2,1.4,0.5,2
		c0.3,1.4,0.6,2.7,1,4.1c0.1,0.2,0.1,0.4,0.2,0.6c0,0.4,0.1,0.8,0.2,1.1c0.1,0.2,0.1,0.3,0.1,0.5c0,0.3,0.1,0.5,0.2,0.8
		c0,0.2-0.1,0.6,0.1,0.8h-0.1c-0.1,0.1-0.1,0.2-0.2,0.3c-0.1,0.1-0.3,0.1-0.5,0.2c-0.3,0.1-0.5,0.1-0.7,0.1c-0.3,0.1-0.6,0.1-1,0.2
		c-0.8,0.1-1.5,0.1-2.3,0.2c-1,0.1-1.9,0.1-2.9,0.2c-3.4,0-6.7,0-10.1,0c-1.1-0.1-2.2-0.1-3.3-0.2c-0.5,0-1,0-1.5,0
		c-0.4-0.1-0.9-0.1-1.4-0.1c-0.4-0.1-0.8-0.1-1.2-0.1c-0.4-0.1-0.7-0.1-1.1-0.2c-0.6,0-1.2-0.1-1.7-0.3c-0.4,0-0.7-0.2-1-0.5
		c-0.1-0.2-0.1-0.3-0.2-0.5c-0.1-0.3-0.1-0.5-0.2-0.7c-0.2-0.6-0.4-1.2-0.6-1.8c-0.2-0.8-0.4-1.7-0.7-2.5c-0.9-5.9-3.4-11.6-4-17.6
		c-0.3-0.9-0.5-1.9-0.7-2.9c-0.1-0.4-0.2-0.9-0.3-1.3c-0.3-1.1-0.4-2.2-0.8-3.2c0-0.3,0-0.5-0.1-0.8c-0.1-0.2-0.1-0.3-0.2-0.5
		c0.1-0.2,0-0.4-0.1-0.6c-0.1,0-0.3,0-0.5-0.1c-0.3,0-0.5,0-0.8-0.1c-0.9-0.1-1.7-0.1-2.6-0.2c-0.5,0-1,0-1.5,0
		c-2.1-0.3-4.5-0.2-6.6,0c-0.9,0-1.7,0.1-2.6,0.3c-0.3,0.1-0.5,0.2-0.9,0.3c-0.2,0.1-0.4,0.2-0.5,0.3v0.1c-0.1,0.1-0.1,0.3-0.1,0.4
		c-0.1,0.2-0.1,0.4-0.1,0.6c-0.2,0.9-0.4,1.9-0.7,2.9c-0.1,0.4-0.1,0.8-0.2,1.2c-0.1,0.4-0.2,0.9-0.3,1.3c-0.1,0.5-0.3,1-0.4,1.5
		c-0.6,4.5-2,9-3,13.4c-0.3,2-1.1,3.9-1.3,5.9c-0.1,0.4-0.3,0.9-0.4,1.2c-0.1,0.4-0.2,0.7-0.3,1c-0.1,0.3-0.1,0.6-0.2,0.9
		c-0.1,0.3-0.2,0.5-0.3,0.8c-0.1,0.2-0.1,0.3-0.2,0.5c0,0.1,0,0.2-0.1,0.3c-0.1,0.1-0.2,0.2-0.3,0.2c-0.2,0.1-0.4,0.1-0.6,0.2
		c-1.4,0.3-2.8,0.7-4.2,0.7c-0.4,0.1-0.9,0.1-1.4,0.2c-1.1,0.1-2.1,0.1-3.2,0.2c-0.5,0.1-1.1,0.1-1.6,0.1c-1.7,0.2-3.5,0-5.2,0.2
		c-1.1,0-2.2,0-3.3-0.1c-0.5,0-1,0-1.5,0c-0.5-0.1-1-0.1-1.4-0.1c-0.4-0.1-0.9-0.1-1.3-0.1c-0.3-0.1-0.7-0.1-1.1-0.2
		c-0.6,0-1.2-0.1-1.7-0.4c-0.2-0.1-0.4-0.1-0.6-0.2C292.5,695.8,292.4,695.7,292.3,695.6z M341.8,651.9c0.1-0.1,0-0.3-0.1-0.6
		c-0.1-0.2-0.1-0.4-0.1-0.6c-0.1-0.5-0.3-1-0.4-1.5c0-1.2-0.4-2.6-0.7-3.8c-0.4-1.1-0.5-2.3-0.7-3.4c-0.2-0.8-0.4-1.6-0.6-2.5
		c-0.1-0.9-0.3-1.8-0.5-2.7c-0.1-0.4-0.1-0.9-0.2-1.3c-0.2-0.9-0.4-1.8-0.6-2.8c-0.1-0.5-0.1-1-0.2-1.4c-0.2-0.9-0.4-1.9-0.5-2.9
		c-0.4-1.4-0.4-2.8-0.8-4.2c-0.1-0.5-0.1-1-0.2-1.4c-0.2-0.4-0.3-0.9-0.2-1.4c-0.1-1.8-0.3-1.8-0.4,0c0,0.4-0.1,0.9-0.3,1.4
		c-0.1,0.4-0.2,0.9-0.3,1.4c0,1.4-0.4,3-0.8,4.4c-0.1,0.5-0.2,1-0.3,1.5c-0.1,0.4-0.2,0.9-0.3,1.4c-0.1,0.5-0.2,1-0.3,1.5
		c-0.1,0.4-0.2,0.9-0.3,1.4c-0.1,0.5-0.2,1-0.3,1.4c-0.1,0.5-0.2,1-0.3,1.4c-0.1,0.4-0.2,0.9-0.3,1.4c-0.1,0.4-0.1,0.9-0.2,1.3
		c-0.2,0.9-0.4,1.7-0.6,2.6c-0.1,0.4-0.1,0.9-0.2,1.2c-0.4,1.1-0.4,2.3-0.8,3.4c-0.1,0.6-0.3,1.3-0.4,1.9c0,0.8-0.2,2-0.5,2.8
		c-0.4,0.9,1,0.6,1.4,0.7c0.4,0,0.9,0,1.3,0c1-0.1,2-0.1,3.1-0.1c0.6-0.1,1.1-0.1,1.6-0.1c0.5-0.1,1-0.1,1.5-0.2
		c0.4,0,0.8,0,1.2-0.1C340.8,652.3,341.3,652.1,341.8,651.9C341.9,651.8,341.7,652,341.8,651.9z"/>
	<path fill="#020202" d="M385.9,587.3c0.2-0.2,0.4-0.3,0.7-0.5c0.3-0.1,0.6-0.3,0.9-0.4c0.7-0.2,1.5-0.4,2.2-0.6
		c1.8-0.5,3.8-0.6,5.7-0.9c0.5,0,1,0,1.5-0.1c0.6,0,1.1,0,1.6,0c1.6-0.2,3.2-0.2,4.8,0c0.5,0,1,0,1.5,0c0.5,0.1,1,0.1,1.4,0.1
		c0.5,0.1,1,0.1,1.4,0.1c1.4,0.2,2.8,0.4,4.2,0.8c0.4,0.1,0.8,0.3,1.2,0.6c0.1,0.1,0.2,0.2,0.3,0.3c0.1,0.1,0.1,0.2,0.2,0.3
		c0.2,0.2,0.3,0.4,0.4,0.7c0.1,0.2,0.1,0.3,0.1,0.5c0.1,0.2,0.1,0.3,0.1,0.5c0.1,0.2,0.1,0.4,0.1,0.6c0.4,1.2,0.1,2.9,0.1,4.1
		c-0.1,0.6-0.1,1.1-0.2,1.7c0,0.3,0,0.6-0.1,0.9c-0.1,0.7-0.1,1.3-0.2,2c-0.1,0.7-0.3,1.3-0.4,2c0,1.5-0.5,3.1-0.7,4.6
		c-0.4,1.2-0.5,2.4-0.7,3.6c-0.2,0.8-0.4,1.7-0.5,2.6c-0.2,0.9-0.4,1.8-0.6,2.7c-0.1,0.4-0.1,0.9-0.2,1.4c-0.2,0.9-0.4,1.8-0.6,2.8
		c-0.1,0.4-0.1,0.9-0.2,1.4c-0.2,1-0.4,1.9-0.6,2.9c-0.1,0.5-0.1,1-0.2,1.5c-0.2,1-0.4,2-0.6,2.9c-0.1,1-0.3,2-0.5,3
		c-0.1,1-0.3,2-0.5,3c-0.4,3.1-0.8,6.3-1.2,9.4c0,1.1-0.1,2.1-0.3,3.1c0,0.5,0,1-0.1,1.6c-0.1,1-0.1,2.1-0.2,3.1
		c-0.3,0.9-0.4,1.4-0.1,1.5c0.3,0.2,0.7-0.1,1.2-1c0.3-0.4,0.6-0.8,1.2-1c0.4-0.4,0.8-0.8,1.2-1.1c1.2-1,2.4-2.1,3.4-3.3
		c2-2.3,4.1-4.6,5.8-7.1c0.6-0.7,1.1-1.5,1.6-2.2c0.3-0.4,0.5-0.7,0.8-1c0.2-0.3,0.4-0.7,0.7-1c0.2-0.3,0.4-0.5,0.7-0.9
		c0.6-1,1.4-2,2.1-2.9c0.1-0.1,0.3-0.3,0.4-0.5c0.1-0.1,0.3-0.3,0.4-0.4c0.1-0.1,0.2-0.2,0.3-0.3c0.1-0.1,0.2-0.1,0.3-0.1
		c0.2-0.1,0.4-0.1,0.7-0.2c2.9,0,5.6,0.5,8.4,1.1c0.5,0.1,1,0.2,1.4,0.3c1,0.3,2,0.6,3.1,1c0.5,0.1,1,0.3,1.5,0.5c1,0.3,2,0.6,3,1
		c1.4,0.4,2.7,1,4,1.6c0.7,0.3,1.4,0.6,2.1,1c0.3,0.2,0.5,0.4,0.9,0.6c0.3,0.1,0.5,0.3,0.7,0.5c0.2,0.1,0.4,0.3,0.6,0.5
		c0.1,0.1,0.3,0.3,0.4,0.5c0.1,0.2,0.1,0.4,0.1,0.7c-0.1,0.3-0.3,0.6-0.4,1c-0.1,0.1-0.2,0.3-0.3,0.5c-0.1,0.2-0.3,0.4-0.5,0.6
		c-0.1,0.2-0.3,0.4-0.5,0.7c-0.4,0.4-0.8,0.9-1.2,1.3c-0.3,0.3-0.5,0.5-0.8,0.8c-0.7,0.9-1.6,1.8-2.5,2.5c-0.3,0.3-0.6,0.6-1,1
		c-0.3,0.3-0.6,0.5-1,0.9c-0.4,0.3-0.7,0.6-1.1,1c-0.4,0.3-0.7,0.6-1.1,1c-0.4,0.3-0.8,0.6-1.2,0.9c-1.2,1-2.3,2-3.6,2.9
		c-0.4,0.3-0.8,0.6-1.2,1c-1.3,0.9-2.5,1.9-3.7,2.8c-0.4,0.3-0.8,0.5-1.2,0.9c-0.4,0.3-0.8,0.5-1.2,0.8c-1.2,0.8-2.4,1.6-3.7,2.4
		c-0.4,0.2-0.8,0.4-1.2,0.7c-0.4,0.3-0.8,0.5-1.2,0.7c-0.6,0.1-0.9,0.3-1.1,0.6c-0.1,0.2,0.1,0.3,0.8,0.3c0.3,0.1,0.6,0.2,1,0.4
		c0.3,0.1,0.6,0.3,1,0.5c0.3,0.1,0.7,0.3,1.1,0.5c0.7,0.4,1.5,0.8,2.2,1.1c0.4,0.3,0.9,0.5,1.2,0.7c0.4,0.3,0.8,0.5,1.2,0.7
		c0.4,0.3,0.9,0.5,1.2,0.8c0.9,0.5,1.8,1,2.7,1.5c0.9,0.6,1.8,1.1,2.7,1.7c0.4,0.3,0.9,0.5,1.3,0.9c0.4,0.3,0.9,0.5,1.3,0.9
		c0.9,0.5,1.7,1.1,2.6,1.7c0.4,0.3,0.9,0.6,1.3,1c0.4,0.3,0.8,0.5,1.2,0.9c0.4,0.3,0.8,0.5,1.2,0.9c0.4,0.3,0.8,0.5,1.2,0.9
		c0.4,0.3,0.8,0.5,1.2,0.9c0.3,0.3,0.7,0.5,1.1,0.8c0.3,0.3,0.6,0.5,1,0.9c0.3,0.2,0.5,0.4,0.9,0.8c1,0.7,1.9,1.7,2.7,2.7
		c0.3,0.3,0.5,0.6,0.7,1c0.1,0.1,0.1,0.3,0.2,0.4c0,0.6-0.2,1-0.6,1.5c-0.2,0.2-0.4,0.4-0.6,0.6c-0.3,0.3-0.5,0.5-0.8,0.7
		c-1,0.8-2.1,1.6-3.2,2.3c-1.9,1.1-3.7,2.1-5.7,3c-1.5,0.6-3,1.4-4.5,2c-1,0.4-2,0.9-3,1.2c-0.4,0.1-0.9,0.3-1.3,0.5
		c-0.4,0.1-0.8,0.3-1.2,0.5c-0.4,0.1-0.8,0.2-1.2,0.3c-0.8,0.3-2.2,0.8-3.1,0.5c-0.1,0-0.3,0-0.4-0.1c-0.2-0.1-0.4-0.2-0.5-0.3
		c-0.2-0.1-0.4-0.3-0.5-0.4c-0.2-0.2-0.4-0.3-0.6-0.5c-0.4-0.5-0.8-0.9-1.2-1.3c-0.5-0.5-1.1-1-1.5-1.6c-0.5-0.6-1.1-1.2-1.6-1.8
		c-0.3-0.3-0.5-0.6-0.9-1c-0.3-0.4-0.6-0.7-1-1c-0.3-0.4-0.6-0.7-1-1c-0.3-0.4-0.6-0.7-1-1c-0.4-0.4-0.7-0.8-1.1-1.1
		c-0.3-0.3-0.7-0.7-1.1-1c-0.4-0.3-0.8-0.7-1.2-1c-0.3-0.3-0.7-0.7-1.1-1c-0.8-0.7-1.6-1.3-2.4-1.9c-0.7-0.7-1.5-1.3-2.4-1.8
		c-0.8-0.5-1.6-1-2.5-1.4c-0.5-0.2-1-0.4-1.3-0.7c-0.6-0.5-1.1-0.7-1.2-0.5c-0.3,0.3-0.3,0.8,0,1.5c0.2,0.4,0.3,1,0.2,1.5
		c0.1,1,0.3,2,0.5,3c0.1,0.5,0.2,1,0.3,1.5c0.1,0.4,0.2,0.9,0.3,1.4c0.1,0.5,0.2,1,0.3,1.4c0.1,0.4,0.2,0.9,0.3,1.4
		c0.1,0.4,0.2,0.8,0.3,1.2c0.2,1.6,0.5,3.2,0.5,4.9c-0.1,0.2-0.1,0.4-0.2,0.6c-0.1,0.3-0.4,0.5-0.8,0.6c-1.3,0.4-2.8,0.7-4.1,0.7
		c-0.4,0.1-0.9,0.1-1.4,0.2c-0.5,0-1,0-1.5,0.1c-0.6,0-1.2,0-1.7,0c-3.1,0.4-6.9,0.4-10,0c-0.4,0-0.9,0-1.3,0
		c-0.4-0.1-0.9-0.1-1.2-0.1c-0.3-0.1-0.7-0.1-1.1-0.2c-0.3,0-0.5,0-0.8-0.1c-0.2-0.1-0.4-0.1-0.5-0.2c-0.1,0-0.2-0.1-0.3-0.2
		c0-0.1,0-0.1,0-0.2c-0.2-0.2-0.1-1-0.1-1.3c-0.2-0.7-0.1-1.6-0.1-2.4c-0.3-1-0.1-2.2-0.1-3.2c-0.2-1.4,0-2.8-0.2-4.2
		c0-1.6,0.1-3.3-0.1-4.9c0-1.8,0.1-3.7-0.1-5.5c0-2,0.1-4-0.1-6c0-2.7,0.2-5.4-0.1-8.1c0-3.4,0-6.8,0-10.3c-1-9-0.1-18.6-0.1-27.7
		c0.4-3.1-0.2-6.4,0.2-9.5c0-1.5,0-2.9,0-4.4c0.2-1.3,0-2.7,0.2-4c0-0.9,0-1.7,0-2.6c0.1-0.8,0.1-1.6,0.1-2.4
		c0.1-0.7,0.1-1.5,0.1-2.2c0.1-0.6,0.1-1.3,0.2-1.9c0-0.6,0-1.2,0.1-1.8c0-0.3,0-0.5,0-0.9c0.1-0.2,0.1-0.4,0.1-0.7
		c0-0.4,0.1-0.9,0.2-1.3c0-0.2,0-0.4,0.1-0.6c0-0.2,0-0.3,0-0.5c0.1-0.2,0.1-0.3,0.1-0.5c0.1-0.1,0.1-0.3,0.1-0.4
		c0.1-0.1,0.1-0.2,0.1-0.3c0-0.2,0.1-0.3,0.2-0.4C385.6,587.6,385.7,587.5,385.9,587.3C386.1,587.1,385.7,587.5,385.9,587.3z"/>
	<path fill="#020202" d="M501.3,687.4c-0.1-0.3-0.3,0-0.6,0.9c-0.1,0.3-0.4,0.5-0.7,0.8c-0.4,0.4-0.9,0.9-1.3,1.3
		c-0.3,0.3-0.5,0.5-0.7,0.7c-0.5,0.4-1,0.8-1.4,1.2c-0.3,0.2-0.5,0.4-0.8,0.6c-0.8,0.4-1.6,0.9-2.3,1.4c-0.5,0.3-1.1,0.5-1.6,0.8
		c-0.3,0.1-0.5,0.2-0.8,0.3c-0.3,0.1-0.5,0.3-0.9,0.4c-0.3,0.1-0.5,0.1-0.8,0.2c-0.9,0.4-2.4,0.8-3.4,0.8c-0.3,0.1-0.5,0.1-0.9,0.1
		c-0.6,0.1-1.1,0.1-1.7,0.1c-0.3,0.1-0.5,0.1-0.9,0c-0.5,0-1.1,0-1.6,0c-0.3-0.1-0.6-0.1-0.9-0.1c-0.3-0.1-0.6-0.1-0.9-0.2
		c-0.8,0-1.7-0.3-2.5-0.5c-0.6-0.2-1.2-0.4-1.7-0.6c-0.3-0.1-0.5-0.2-0.8-0.3c-0.3-0.1-0.5-0.3-0.9-0.4c-0.8-0.4-1.5-0.8-2.3-1.1
		c-0.3-0.2-0.5-0.3-0.8-0.5c-0.3-0.2-0.5-0.3-0.8-0.5c-0.3-0.2-0.5-0.4-0.8-0.6c-0.5-0.3-1-0.6-1.4-1c-0.7-0.5-1.6-1.2-2.1-1.9
		c-0.2-0.2-0.4-0.4-0.7-0.7c-0.2-0.3-0.4-0.5-0.7-0.8c-0.7-0.7-1.3-1.5-1.7-2.3c-0.2-0.3-0.4-0.5-0.6-0.8c-0.2-0.3-0.4-0.6-0.6-0.9
		c-0.1-0.3-0.3-0.6-0.5-0.9c-0.2-0.3-0.4-0.6-0.5-1c-0.3-0.6-0.7-1.2-1-1.8c-0.4-1-0.8-2-1.2-3c-0.1-0.3-0.2-0.7-0.3-1
		c-0.1-0.3-0.3-0.7-0.4-1c-0.1-0.4-0.1-0.7-0.2-1c-0.5-1.5-0.6-3.1-0.9-4.7c0-0.4,0-0.8-0.1-1.2c0-0.4,0-0.8-0.1-1.2
		c0-1.7-0.1-3.5,0.1-5.1c0-0.4,0-0.9,0.1-1.3c0-1.4,0.3-2.8,0.5-4.2c0.1-0.6,0.3-1.1,0.4-1.6c0.2-1.4,0.6-3,1.2-4.4
		c0.1-0.5,0.3-1,0.5-1.4c0.5-1.7,1.3-3.6,2.3-5c0.2-0.4,0.4-0.8,0.7-1.1c0.2-0.4,0.4-0.7,0.7-1c0.3-0.4,0.5-0.7,0.8-1
		c1.2-1.7,2.6-3.1,4-4.6c0.3-0.3,0.6-0.5,1-0.8c0.6-0.5,1.2-1,1.8-1.4c0.9-0.7,1.9-1.2,2.9-1.8c0.4-0.2,0.7-0.3,1.1-0.5
		c0.3-0.2,0.7-0.3,1.1-0.5c0.3-0.1,0.6-0.3,1-0.5c0.4-0.1,0.7-0.3,1.1-0.4c0.7-0.2,1.4-0.4,2.1-0.6c1.3-0.4,2.9-0.8,4.3-0.8
		c0.3-0.1,0.7-0.1,1.1-0.1c1.3-0.2,3-0.2,4.2,0c0.4,0,0.7,0,1.1,0.1c1.1,0,2.1,0.3,3.2,0.5c1,0.4,2,0.6,3,1c0.7,0.2,1.3,0.4,1.9,0.7
		c0.3,0.2,0.6,0.3,1,0.5c0.6,0.3,1.2,0.6,1.7,1c0.3,0.2,0.6,0.4,0.9,0.6c0.6,0.3,1.1,0.7,1.6,1.1c0.4,0.7,0.7,0.9,0.8,0.7
		c0.2-1.2,0.4-2.5,0.5-3.7c0.1-0.4,0.2-0.8,0.3-1.2c0-0.3,0.1-0.4,0.3-0.6c0.3-0.2,0.7-0.3,1.1-0.3c0.3-0.1,0.6-0.1,1-0.1
		c2.8-0.5,6.2-0.3,9,0c0.6,0,1.2,0,1.8,0.1c2.5,0,5.9,0.2,8.3,1.1c0.3,0.1,0.5,0.1,0.7,0.2c0.1,0.1,0.3,0.3,0.4,0.4l0.1,0.1
		c0,1.3,0.2,2.9-0.1,4.2c0,0.4,0,0.7,0,1c-0.1,0.8-0.1,1.5-0.2,2.3c0,0.4,0,0.8,0,1.2c-0.1,0.9-0.1,1.8-0.2,2.8c0,0.5,0,1,0,1.5
		c-0.1,1.1-0.1,2.2-0.2,3.2c0,0.6,0,1.1,0,1.6c-0.2,1.8,0,3.7-0.2,5.5c0,2.7,0,5.5,0,8.2c0.2,2,0,3.9,0.2,5.9c0,0.6,0,1.3,0,1.9
		c0.1,1.2,0.1,2.4,0.2,3.6c0,0.6,0,1.1,0.1,1.6c0,0.6,0,1.1,0,1.7c0.1,0.5,0.1,1,0.1,1.5c0.1,0.5,0.1,1,0.1,1.5
		c0.1,0.5,0.1,1,0.1,1.4c0.1,0.5,0.1,1,0.1,1.4c0.1,0.4,0.1,0.9,0.1,1.3c0.1,0.8,0.1,1.6,0.2,2.4c0,0.4,0,0.8,0.1,1.1
		c0,0.4,0,0.7,0,1c0.1,0.6,0.1,1.3,0.2,1.9c0,0.5,0,1.1,0.1,1.6c0,0.8,0.3,2.4-0.1,3.1c0,0.1,0,0.2,0,0.3c0,0.1-0.1,0.2-0.2,0.3
		c-0.1,0.1-0.3,0.1-0.4,0.2c-0.3,0.1-0.5,0.1-0.7,0.1c-0.3,0.1-0.6,0.1-1,0.2c-0.3,0-0.7,0-1.1,0.1c-0.4,0-0.9,0-1.2,0
		c-3.6,0.4-7.8,0.4-11.3,0c-0.6,0-1.1,0-1.6-0.1c-0.6,0-1.1,0-1.6,0c-0.4-0.1-0.9-0.1-1.4-0.1c-0.4-0.1-0.9-0.1-1.3-0.1
		c-0.4-0.1-0.8-0.1-1.2-0.1c-0.3-0.1-0.6-0.1-1-0.2c-0.3,0-0.5,0-0.8-0.1c-0.2-0.1-0.4-0.1-0.6-0.1c-0.1-0.1-0.2-0.1-0.3-0.2
		c-0.2-0.2-0.3-0.4-0.4-0.7c-0.1-0.3-0.2-0.5-0.3-0.8c-0.1-0.4-0.2-0.7-0.2-1c-0.1-0.4-0.1-0.9-0.1-1.2c0.1-0.4,0.1-0.9,0.1-1.4
		c-0.1-0.5-0.1-1,0-1.5C501.4,688.4,501.4,687.8,501.3,687.4C501.3,687.2,501.4,687.8,501.3,687.4z M492.2,650.8
		c-0.8-0.1-1.7-0.1-2.5-0.1c-0.8,0.1-1.6,0.4-2.4,0.7c-1,0.5-2.2,1.3-3,2.2c-0.6,0.6-1.2,1.3-1.6,2c-0.4,0.7-0.8,1.5-1.2,2.3
		c-0.1,0.4-0.3,0.8-0.4,1.2c-0.2,1.3-0.3,2.5-0.3,3.8c0.2,1.1,0.6,2.6,1.2,3.5c0.3,0.4,0.5,0.7,0.7,1c0.9,1.4,2.1,2.5,3.6,3.3
		c2.3,1.8,5.8,1.5,8.3,0.5c0.4-0.1,0.9-0.3,1.2-0.5c0.4-0.3,0.8-0.5,1.2-0.8c0.4-0.2,0.7-0.4,1.1-0.8c0.7-0.5,1.3-1.2,1.8-1.9
		c0.8-1,1.3-2.3,1.7-3.4c0.1-0.9,0.3-1.8,0.4-2.7c0-0.9-0.1-1.8-0.3-2.7c-0.1-0.4-0.3-0.9-0.4-1.2c-0.2-0.4-0.4-0.8-0.6-1.1
		c-0.2-0.3-0.4-0.7-0.7-1c-0.6-0.6-1.2-1.1-1.7-1.7c-0.4-0.3-0.7-0.6-1.1-0.8c-0.8-0.5-1.6-0.9-2.4-1.2
		C493.9,651.1,493.1,650.9,492.2,650.8C491.8,650.7,492.6,650.8,492.2,650.8z"/>
</g>
</svg>
