<?xml version="1.0" encoding="utf-8"?>
<!-- Generator: Adobe Illustrator 18.0.0, SVG Export Plug-In . SVG Version: 6.00 Build 0)  -->
<!DOCTYPE svg PUBLIC "-//W3C//DTD SVG 1.0//EN" "http://www.w3.org/TR/2001/REC-SVG-20010904/DTD/svg10.dtd">
<svg version="1.0" id="Camada_1" xmlns="http://www.w3.org/2000/svg" xmlns:xlink="http://www.w3.org/1999/xlink" x="0px" y="0px"
	 viewBox="0 0 1024 768" enable-background="new 0 0 1024 768" xml:space="preserve">
<image overflow="visible" enable-background="new    " width="1500" height="1500" xlink:href="../../../Desenhos Jogo Yegatu/png/52.png"  transform="matrix(0.431 0 0 0.431 170.8463 0)">
</image>
<g enable-background="new    ">
	<path fill="#020202" d="M459.6,552.8c0.1-0.1,0.3-0.2,0.5-0.3c0.2-0.1,0.4-0.2,0.6-0.3c0.5-0.1,1-0.3,1.6-0.4
		c1.3-0.4,2.7-0.4,4-0.6c0.4,0,0.7,0,1.1-0.1c0.4,0,0.8,0,1.2,0c1.1-0.1,2.3-0.1,3.4,0c0.4,0,0.7,0,1.1,0c0.4,0,0.7,0.1,1,0.1
		c0.4,0,0.7,0.1,1,0.1c1,0.2,2,0.3,3,0.5c0.3,0.1,0.6,0.2,0.8,0.4c0.1,0,0.2,0.1,0.2,0.2c0,0,0.1,0.1,0.1,0.2
		c0.1,0.1,0.2,0.3,0.3,0.5c0,0.1,0.1,0.2,0.1,0.3c0,0.1,0.1,0.2,0.1,0.3c0,0.1,0.1,0.3,0.1,0.4c0.3,0.8,0.1,2,0.1,2.9
		c0,0.4-0.1,0.8-0.1,1.2c0,0.2,0,0.4-0.1,0.6c0,0.5-0.1,0.9-0.1,1.4c-0.1,0.5-0.2,0.9-0.3,1.4c0,1.1-0.3,2.2-0.5,3.2
		c-0.3,0.8-0.3,1.7-0.5,2.6c-0.1,0.6-0.3,1.2-0.3,1.8c-0.1,0.6-0.3,1.3-0.4,1.9c0,0.3-0.1,0.7-0.1,1c-0.1,0.7-0.3,1.3-0.4,2
		c0,0.3-0.1,0.7-0.1,1c-0.1,0.7-0.3,1.4-0.4,2c0,0.4-0.1,0.7-0.1,1.1c-0.1,0.7-0.3,1.4-0.4,2.1c-0.1,0.7-0.2,1.4-0.3,2.2
		c-0.1,0.7-0.2,1.4-0.3,2.2c-0.3,2.2-0.5,4.5-0.8,6.7c0,0.7-0.1,1.5-0.2,2.2c0,0.4,0,0.7-0.1,1.1c0,0.7-0.1,1.5-0.1,2.2
		c-0.2,0.6-0.3,1-0.1,1.1c0.2,0.1,0.5-0.1,0.9-0.7c0.2-0.3,0.5-0.5,0.8-0.7c0.3-0.3,0.5-0.5,0.8-0.8c0.9-0.7,1.7-1.5,2.4-2.4
		c1.4-1.6,2.9-3.3,4.1-5.1c0.4-0.5,0.8-1,1.2-1.6c0.2-0.3,0.4-0.5,0.5-0.7c0.1-0.2,0.3-0.5,0.5-0.7c0.1-0.2,0.3-0.4,0.5-0.6
		c0.4-0.7,1-1.4,1.5-2.1c0.1-0.1,0.2-0.2,0.3-0.3c0.1-0.1,0.2-0.2,0.3-0.3c0.1,0,0.2-0.1,0.2-0.2c0,0,0.1-0.1,0.2-0.1
		c0.1,0,0.3-0.1,0.5-0.1c2,0,4,0.3,5.9,0.8c0.4,0,0.7,0.1,1,0.2c0.7,0.2,1.5,0.5,2.2,0.7c0.4,0.1,0.7,0.2,1.1,0.3
		c0.7,0.2,1.4,0.4,2.1,0.7c1,0.3,1.9,0.7,2.9,1.1c0.5,0.2,1,0.5,1.5,0.7c0.2,0.1,0.4,0.3,0.6,0.4c0.2,0.1,0.3,0.2,0.5,0.3
		c0.1,0.1,0.3,0.2,0.4,0.3c0.1,0.1,0.2,0.2,0.3,0.3c0.1,0.2,0.1,0.3,0.1,0.5c-0.1,0.2-0.2,0.5-0.3,0.7c-0.1,0.1-0.2,0.2-0.2,0.3
		c-0.1,0.1-0.2,0.3-0.3,0.4c-0.1,0.1-0.2,0.3-0.3,0.5c-0.3,0.3-0.5,0.6-0.8,0.9c-0.2,0.2-0.4,0.4-0.5,0.5c-0.5,0.6-1.2,1.3-1.8,1.8
		c-0.2,0.2-0.5,0.5-0.7,0.7c-0.2,0.2-0.5,0.4-0.7,0.6c-0.3,0.2-0.5,0.5-0.8,0.7c-0.3,0.2-0.5,0.5-0.8,0.7c-0.3,0.2-0.5,0.4-0.8,0.6
		c-0.8,0.7-1.6,1.4-2.5,2c-0.3,0.2-0.5,0.5-0.8,0.7c-0.9,0.6-1.8,1.3-2.7,2c-0.3,0.2-0.6,0.4-0.9,0.6c-0.3,0.2-0.5,0.4-0.8,0.5
		c-0.6,0.4-1.2,0.8-1.8,1.1c-0.3,0.2-0.5,0.4-0.8,0.5c-0.3,0.1-0.5,0.3-0.8,0.5c-0.3,0.2-0.5,0.4-0.8,0.5c-0.4,0.1-0.7,0.2-0.8,0.4
		c-0.1,0.1,0.1,0.2,0.5,0.2c0.2,0,0.5,0.1,0.7,0.3c0.2,0.1,0.5,0.2,0.7,0.3c0.2,0.1,0.5,0.2,0.8,0.3c0.5,0.3,1,0.6,1.6,0.8
		c0.3,0.2,0.6,0.3,0.9,0.5c0.3,0.2,0.6,0.3,0.9,0.5c0.3,0.2,0.6,0.4,0.9,0.5c0.6,0.4,1.3,0.7,1.9,1.1c0.6,0.4,1.3,0.8,1.9,1.2
		c0.3,0.2,0.6,0.4,1,0.6c0.3,0.2,0.6,0.4,1,0.6c0.6,0.4,1.2,0.8,1.8,1.2c0.3,0.2,0.6,0.5,1,0.7c0.3,0.2,0.6,0.4,0.9,0.6
		c0.3,0.2,0.5,0.4,0.8,0.6c0.3,0.2,0.5,0.4,0.8,0.6c0.3,0.2,0.5,0.4,0.8,0.6c0.2,0.2,0.5,0.4,0.8,0.5c0.2,0.2,0.5,0.4,0.7,0.6
		c0.2,0.1,0.4,0.3,0.6,0.5c0.7,0.5,1.4,1.2,1.9,1.9c0.2,0.2,0.4,0.5,0.5,0.7c0,0.1,0.1,0.2,0.1,0.3c0,0.5-0.2,0.7-0.4,1.1
		c-0.1,0.1-0.3,0.3-0.4,0.4c-0.2,0.2-0.4,0.3-0.5,0.5c-0.7,0.6-1.5,1.1-2.3,1.6c-1.3,0.8-2.7,1.5-4,2.2c-1.1,0.4-2.1,1-3.2,1.4
		c-0.7,0.3-1.4,0.6-2.1,0.9c-0.3,0.1-0.6,0.2-1,0.3c-0.3,0.1-0.6,0.2-0.9,0.3c-0.3,0.1-0.5,0.2-0.8,0.2c-0.6,0.2-1.5,0.5-2.2,0.3
		c-0.1,0-0.2,0-0.3-0.1c-0.1,0-0.3-0.1-0.3-0.2c-0.1-0.1-0.3-0.2-0.3-0.3c-0.1-0.1-0.3-0.2-0.4-0.3c-0.3-0.3-0.6-0.7-0.9-0.9
		c-0.4-0.4-0.8-0.7-1.1-1.1c-0.4-0.4-0.8-0.9-1.2-1.3c-0.2-0.2-0.4-0.5-0.6-0.7c-0.2-0.3-0.5-0.5-0.7-0.7c-0.2-0.3-0.5-0.5-0.7-0.7
		c-0.2-0.3-0.5-0.5-0.7-0.7c-0.3-0.3-0.5-0.5-0.8-0.8c-0.2-0.2-0.5-0.5-0.8-0.7c-0.3-0.2-0.5-0.5-0.8-0.7c-0.2-0.2-0.5-0.5-0.8-0.7
		c-0.6-0.5-1.1-0.9-1.7-1.4c-0.5-0.5-1.1-0.9-1.7-1.3c-0.6-0.4-1.2-0.7-1.8-1c-0.4-0.1-0.7-0.3-1-0.5c-0.5-0.4-0.8-0.5-0.9-0.3
		c-0.2,0.2-0.2,0.5,0,1.1c0.1,0.3,0.2,0.7,0.1,1.1c0.1,0.7,0.2,1.4,0.3,2.2c0,0.4,0.1,0.7,0.2,1.1c0,0.3,0.1,0.7,0.2,1
		c0,0.4,0.1,0.7,0.2,1c0,0.3,0.1,0.7,0.2,1c0,0.3,0.1,0.6,0.2,0.9c0.2,1.2,0.3,2.3,0.3,3.4c0,0.1-0.1,0.3-0.1,0.4
		c-0.1,0.2-0.3,0.4-0.5,0.4c-0.9,0.3-2,0.5-2.9,0.5c-0.3,0-0.7,0.1-1,0.1c-0.4,0-0.7,0-1.1,0.1c-0.4,0-0.8,0-1.2,0
		c-2.2,0.3-4.9,0.3-7.1,0c-0.3,0-0.6,0-1,0c-0.3,0-0.6-0.1-0.9-0.1c-0.2,0-0.5-0.1-0.8-0.1c-0.2,0-0.4,0-0.5-0.1
		c-0.1,0-0.3-0.1-0.3-0.1c-0.1,0-0.2,0-0.2-0.1c0,0,0-0.1,0-0.1c-0.2-0.2-0.1-0.7-0.1-0.9c-0.2-0.5-0.1-1.2-0.1-1.7
		c-0.2-0.7-0.1-1.6-0.1-2.3c-0.2-1,0-2-0.1-3c0-1.1,0.1-2.3-0.1-3.4c0-1.3,0.1-2.6-0.1-3.9c0-1.4,0.1-2.9-0.1-4.3
		c0-1.9,0.1-3.9-0.1-5.7c0-2.4,0-4.9,0-7.3c-0.7-6.4-0.1-13.2-0.1-19.7c0.3-2.2-0.1-4.5,0.1-6.8c0-1,0-2.1,0-3.1
		c0.1-0.9,0-1.9,0.1-2.8c0-0.6,0-1.2,0-1.8c0.1-0.6,0.1-1.1,0.1-1.7c0.1-0.5,0.1-1,0.1-1.6c0-0.5,0.1-0.9,0.1-1.4
		c0-0.4,0-0.9,0.1-1.3c0-0.2,0-0.4,0-0.6c0-0.1,0.1-0.3,0.1-0.5c0-0.3,0.1-0.6,0.1-0.9c0-0.1,0-0.3,0.1-0.4c0-0.1,0-0.2,0-0.3
		c0-0.1,0.1-0.2,0.1-0.3c0-0.1,0.1-0.2,0.1-0.3c0-0.1,0.1-0.2,0.1-0.2c0-0.1,0.1-0.2,0.1-0.3C459.4,553,459.5,552.8,459.6,552.8
		C459.7,552.6,459.5,552.8,459.6,552.8z"/>
	<path fill="#020202" d="M541.6,623.9c0-0.2-0.2,0-0.4,0.6c-0.1,0.2-0.3,0.4-0.5,0.5c-0.3,0.3-0.6,0.6-1,0.9
		c-0.2,0.2-0.3,0.3-0.5,0.5c-0.3,0.3-0.7,0.6-1,0.9c-0.2,0.1-0.4,0.3-0.5,0.4c-0.5,0.3-1.2,0.7-1.6,1c-0.4,0.2-0.8,0.4-1.2,0.5
		c-0.2,0.1-0.4,0.2-0.5,0.2c-0.2,0.1-0.4,0.2-0.6,0.3c-0.2,0-0.4,0.1-0.5,0.1c-0.6,0.3-1.7,0.5-2.4,0.5c-0.2,0-0.4,0.1-0.6,0.1
		c-0.4,0.1-0.8,0.1-1.2,0.1c-0.2,0-0.4,0-0.6,0c-0.4,0-0.8,0-1.2,0c-0.2,0-0.4-0.1-0.6-0.1c-0.2,0-0.4-0.1-0.6-0.1
		c-0.6,0-1.2-0.2-1.8-0.3c-0.4-0.1-0.8-0.3-1.2-0.4c-0.2-0.1-0.4-0.2-0.5-0.2c-0.2-0.1-0.4-0.2-0.6-0.3c-0.5-0.3-1.1-0.5-1.6-0.8
		c-0.2-0.1-0.4-0.2-0.5-0.3c-0.2-0.1-0.4-0.2-0.5-0.3c-0.2-0.1-0.4-0.3-0.5-0.4c-0.4-0.2-0.7-0.4-1-0.7c-0.5-0.4-1.1-0.8-1.5-1.4
		c-0.1-0.1-0.3-0.3-0.5-0.5c-0.1-0.2-0.3-0.4-0.5-0.5c-0.5-0.5-0.9-1.1-1.2-1.6c-0.1-0.2-0.3-0.4-0.4-0.5c-0.1-0.2-0.3-0.4-0.4-0.6
		c-0.1-0.2-0.2-0.4-0.3-0.6c-0.1-0.2-0.3-0.5-0.3-0.7c-0.2-0.4-0.5-0.8-0.7-1.3c-0.4-0.9-0.9-1.9-1-2.9c-0.1-0.2-0.2-0.5-0.3-0.7
		c0-0.3-0.1-0.5-0.1-0.7c-0.4-1.1-0.4-2.2-0.6-3.3c0-0.3,0-0.6-0.1-0.9c0-0.3,0-0.6-0.1-0.9c0-1.2-0.1-2.5,0.1-3.7
		c0-0.3,0-0.6,0.1-0.9c0-1,0.2-2,0.3-3c0.1-0.4,0.2-0.8,0.3-1.1c0.1-1,0.4-2.2,0.8-3.1c0.1-0.4,0.2-0.7,0.3-1
		c0.3-1.2,0.9-2.6,1.6-3.6c0.1-0.3,0.3-0.5,0.5-0.8c0.1-0.3,0.3-0.5,0.5-0.7c0.2-0.3,0.4-0.5,0.5-0.7c0.8-1.2,1.8-2.2,2.9-3.2
		c0.2-0.2,0.5-0.4,0.7-0.5c0.4-0.4,0.8-0.7,1.3-1c0.6-0.5,1.4-0.9,2-1.3c0.3-0.1,0.5-0.2,0.8-0.3c0.5-0.2,1-0.4,1.4-0.7
		c0.3-0.1,0.5-0.2,0.8-0.3c0.5-0.1,1-0.3,1.5-0.4c0.9-0.3,2.1-0.5,3.1-0.5c0.2,0,0.5-0.1,0.8-0.1c0.9-0.2,2.1-0.2,3,0
		c0.3,0,0.5,0,0.8,0.1c0.8,0,1.5,0.2,2.3,0.3c0.7,0.3,1.4,0.4,2.1,0.7c0.5,0.1,0.9,0.3,1.4,0.5c0.2,0.1,0.5,0.2,0.7,0.3
		c0.4,0.2,0.8,0.5,1.2,0.7c0.2,0.1,0.4,0.3,0.6,0.4c0.4,0.2,0.8,0.5,1.2,0.8c0.3,0.5,0.5,0.7,0.5,0.5c0.1-0.9,0.3-1.8,0.3-2.6
		c0.1-0.3,0.2-0.6,0.2-0.9c0-0.2,0.1-0.3,0.2-0.4c0.2-0.1,0.5-0.2,0.8-0.2c0.2,0,0.5-0.1,0.7-0.1c2-0.3,4.4-0.2,6.4,0
		c0.4,0,0.8,0,1.3,0.1c1.8,0,4.2,0.1,5.9,0.8c0.2,0,0.3,0.1,0.5,0.1c0.1,0.1,0.2,0.2,0.3,0.3l0.1,0.1c0,0.9,0.2,2.1-0.1,3
		c0,0.3,0,0.5,0,0.7c-0.1,0.5-0.1,1.1-0.1,1.6c0,0.3,0,0.6,0,0.9c0,0.7-0.1,1.3-0.1,2c0,0.4,0,0.7,0,1.1c-0.1,0.8-0.1,1.5-0.1,2.3
		c0,0.4,0,0.8,0,1.1c-0.1,1.3,0,2.6-0.1,3.9c0,1.9,0,3.9,0,5.8c0.1,1.4,0,2.8,0.1,4.2c0,0.5,0,0.9,0,1.4c0,0.9,0.1,1.7,0.1,2.6
		c0,0.4,0,0.8,0.1,1.1c0,0.4,0,0.8,0,1.2c0,0.4,0.1,0.7,0.1,1.1c0,0.4,0.1,0.7,0.1,1.1c0,0.4,0.1,0.7,0.1,1c0,0.4,0.1,0.7,0.1,1
		c0,0.3,0.1,0.6,0.1,0.9c0,0.6,0.1,1.1,0.1,1.7c0,0.3,0,0.5,0.1,0.8c0,0.3,0,0.5,0,0.7c0,0.5,0.1,0.9,0.1,1.4c0,0.4,0,0.8,0.1,1.1
		c0,0.6,0.2,1.7-0.1,2.2c0,0.1,0,0.2,0,0.2c0,0.1-0.1,0.2-0.1,0.2c-0.1,0-0.2,0.1-0.3,0.1c-0.2,0-0.3,0.1-0.5,0.1
		c-0.2,0-0.5,0.1-0.7,0.1c-0.2,0-0.5,0-0.8,0.1c-0.3,0-0.6,0-0.9,0c-2.5,0.3-5.5,0.3-8.1,0c-0.4,0-0.8,0-1.2-0.1c-0.4,0-0.8,0-1.2,0
		c-0.3,0-0.7-0.1-1-0.1c-0.3,0-0.6-0.1-1-0.1c-0.3,0-0.5-0.1-0.8-0.1c-0.2,0-0.5-0.1-0.7-0.1c-0.2,0-0.4,0-0.5-0.1
		c-0.1,0-0.3-0.1-0.4-0.1c-0.1,0-0.2-0.1-0.2-0.1c-0.1-0.1-0.2-0.3-0.3-0.5c-0.1-0.2-0.2-0.4-0.2-0.5c-0.1-0.3-0.1-0.5-0.1-0.7
		c0-0.3-0.1-0.6-0.1-0.9c0-0.3,0.1-0.7,0.1-1c-0.1-0.4-0.1-0.7,0-1.1C541.7,624.6,541.7,624.2,541.6,623.9
		C541.6,623.7,541.7,624.2,541.6,623.9z M535.1,597.9c-0.6-0.1-1.2-0.1-1.8-0.1c-0.6,0.1-1.2,0.3-1.7,0.5c-0.7,0.4-1.6,0.9-2.1,1.6
		c-0.4,0.4-0.8,0.9-1.2,1.4c-0.3,0.5-0.6,1.1-0.8,1.6c-0.1,0.3-0.2,0.6-0.3,0.9c-0.2,0.9-0.2,1.8-0.2,2.7c0.1,0.8,0.4,1.8,0.8,2.5
		c0.2,0.3,0.3,0.5,0.5,0.7c0.6,1,1.5,1.8,2.5,2.4c1.6,1.3,4.1,1.1,5.9,0.3c0.3-0.1,0.6-0.2,0.9-0.3c0.3-0.2,0.5-0.4,0.8-0.5
		c0.3-0.1,0.5-0.3,0.8-0.5c0.5-0.4,0.9-0.8,1.3-1.4c0.6-0.7,0.9-1.6,1.2-2.4c0.1-0.6,0.2-1.3,0.3-1.9c0-0.6-0.1-1.3-0.2-1.9
		c-0.1-0.3-0.2-0.6-0.3-0.9c-0.1-0.3-0.3-0.5-0.4-0.8c-0.1-0.2-0.3-0.5-0.5-0.7c-0.4-0.4-0.8-0.8-1.2-1.2c-0.3-0.2-0.5-0.4-0.8-0.5
		c-0.5-0.3-1.1-0.6-1.7-0.9C536.4,598.1,535.8,598,535.1,597.9C534.9,597.8,535.5,597.9,535.1,597.9z"/>
	<path fill="#020202" d="M565.7,594.4c-0.3-0.3-0.5-0.6-0.7-0.9c-0.3-0.7-0.4-1.5-0.5-2.3c0-1-0.1-1.9,0.1-2.9c0-0.7,0.1-1.4,0.3-2
		c0-0.4,0.1-0.7,0.2-1c0.1-0.9,0.4-1.9,0.8-2.7c0.1-0.3,0.2-0.5,0.3-0.7c0.2-0.4,0.4-0.8,0.8-1.1c0.1-0.1,0.2-0.2,0.4-0.3
		c0.5-0.2,1.4-0.1,1.8-0.1c0.4,0,0.7,0.1,1,0.1c1.2,0,2.5,0.2,3.7,0.3c1.1,0.2,2.2,0.3,3.3,0.5c0.3,0,0.5,0,0.8,0.1
		c0.2,0,0.3,0,0.5,0.1c0.1,0,0.2,0.1,0.2,0.1c0-0.2,0-0.4,0.1-0.6c0-0.2,0.1-0.5,0.1-0.7c0-0.3,0.1-0.5,0.1-0.8
		c0.5-3.7,1.4-7.7,1.4-11.4c0-0.1,0.1-0.2,0.1-0.2c0.1-0.1,0.2-0.2,0.3-0.2c0.7-0.2,1.4-0.3,2.1-0.3c0.3,0,0.6-0.1,1-0.1
		c1.5-0.2,3-0.1,4.5-0.1c1.1,0.1,2.3,0.2,3.3,0.2c0.3,0,0.6,0.1,1,0.1c0.7,0,1.4,0.2,2.1,0.3c0.1,0,0.3,0.1,0.3,0.1
		c0,0,0,0.1,0.1,0.1c0,0.1,0,0.2,0.1,0.3c0,0.2,0.1,0.3,0.1,0.5c0,0.2,0.1,0.4,0.1,0.6c0,0.2,0.1,0.5,0.1,0.7c0,0.3,0.1,0.5,0.1,0.8
		c0,0.3,0.1,0.6,0.1,0.9c0,0.3,0,0.7,0.1,1c0,0.4,0,0.7,0.1,1.1c0,0.4,0,0.7,0.1,1.1c0,0.4,0,0.7,0.1,1.1c0,0.4,0,0.8,0.1,1.3
		c0,0.4,0,0.8,0,1.2c0,0.9,0.1,1.7,0.1,2.6h0.1c0.1,0,0.3-0.1,0.5-0.1c0.9-0.2,1.8-0.2,2.6-0.5c0.8-0.1,1.6-0.2,2.4-0.3
		c1.2-0.1,2.3-0.3,3.5-0.4c0.3,0,0.6,0,1-0.1c0.7,0,1.4-0.2,1.9,0.5c0.1,0.2,0.2,0.4,0.3,0.6c0.1,0.2,0.2,0.5,0.2,0.7
		c0.4,1.2,0.5,2.7,0.5,3.9c0.2,1.4,0.2,3,0,4.4c0,0.9-0.2,1.8-0.3,2.7c-0.1,0.2-0.2,0.4-0.2,0.6c-0.1,0.2-0.2,0.3-0.3,0.5
		c0,0.1-0.1,0.2-0.3,0.3c-0.1,0-0.2,0.1-0.3,0.1c-1.1,0.3-2.6,0.1-3.8,0.1c-0.9,0-1.7-0.1-2.6-0.1c-0.4,0-0.8,0-1.3,0
		c-0.7,0-1.5-0.1-2.2-0.1c-0.4,0-0.9,0-1.3-0.1c0,0-0.1,0-0.2,0v0.1c0,1.7,0,3.3,0,5c-0.2,1.4-0.1,2.8-0.1,4.2
		c-0.1,1.2-0.1,2.4-0.1,3.5c-0.1,1.3,0,2.5-0.1,3.8c0,0.4,0,0.8,0,1.3c-0.1,0.9-0.1,1.7-0.1,2.6c0,0.8-0.1,1.7-0.1,2.5
		c0,0.4,0,0.8-0.1,1.2c0,0.4,0,0.8,0,1.1c0,0.4-0.1,0.8-0.1,1.2c0,0.7-0.1,1.4-0.1,2.2c0,0.4,0,0.7-0.1,1c0,0.6-0.1,1.3-0.1,1.9
		c0,0.3-0.1,0.5-0.1,0.8c0,0.3-0.1,0.5-0.1,0.8c0,0.2,0,0.5-0.1,0.7c0,0.2,0,0.4-0.1,0.6c0,0.1-0.1,0.3-0.1,0.5c0,0.1,0,0.3-0.1,0.4
		c0,0.1-0.1,0.2-0.1,0.3c0,0,0,0.1-0.1,0.2c0,0-0.1,0.1-0.1,0.1c-0.1,0-0.3,0.1-0.4,0.1c-0.2,0-0.4,0.1-0.6,0.1
		c-0.2,0-0.5,0.1-0.7,0.1c-0.2,0-0.5,0-0.8,0c-0.3,0-0.6,0.1-0.9,0.1c-0.6,0.1-1.3,0.1-1.9,0.1c-2.5,0-5.1,0.2-7.6-0.1
		c-0.3,0-0.7,0-1,0c-0.8-0.1-1.8-0.2-2.7-0.2c-0.3,0-0.5-0.1-0.8-0.1c-0.4,0-0.8-0.1-1.2-0.2c-0.1,0-0.3-0.1-0.4-0.1l-0.1-0.1
		c0,0-0.1-0.1-0.1-0.1c0,0-0.1-0.1-0.1-0.2c0,0-0.1-0.1-0.1-0.2c0-0.1-0.1-0.2-0.1-0.3c-0.1-0.2-0.1-0.5-0.1-0.7
		c-0.2-0.7,0-1.4-0.1-2.1c0-0.2,0-0.4,0-0.7c0.2-1,0-2,0.1-3c0-0.6,0-1.1,0.1-1.7c0-0.3,0-0.6,0-0.9c0-0.6,0.1-1.3,0.1-1.9
		c0-0.3,0-0.7,0.1-1c0-0.3,0-0.7,0.1-1c0-0.3,0-0.7,0.1-1c0-0.7,0.1-1.4,0.1-2.1c0-0.4,0.1-0.7,0.1-1.1c0-0.4,0.1-0.8,0.1-1.1
		c0-0.7,0.1-1.5,0.2-2.2c0-0.8,0.1-1.5,0.2-2.3c0-1.2,0.3-2.3,0.3-3.5c0.1-1.2,0.3-2.3,0.3-3.5c0.1-0.8,0.2-1.6,0.3-2.4
		c0-0.4,0-0.8,0.1-1.1c0-0.4,0.1-0.8,0.1-1.2l-0.2,0.1c-1.2,0-2.4,0.1-3.6,0.2c-0.4,0-0.8,0-1.3,0.1c-0.4,0-0.8,0-1.3,0.1
		c-0.8,0-1.7,0-2.5,0.1c-0.7,0-1.3,0-2-0.1c-0.2,0-0.5,0-0.7-0.1C565.9,594.5,565.8,594.5,565.7,594.4
		C565.5,594.3,565.8,594.5,565.7,594.4z"/>
	<path fill="#020202" d="M625.5,550.1c0.6,0.2,1.1,0.5,1.6,0.8c0.2,0.1,0.5,0.3,0.8,0.5c0.2,0.1,0.5,0.3,0.7,0.5
		c0.2,0.2,0.4,0.4,0.6,0.5c0.9,0.7,1.6,1.7,2,2.7c0.1,0.2,0.3,0.5,0.4,0.7c0.1,0.2,0.2,0.5,0.3,0.7c0.1,0.3,0.2,0.5,0.3,0.8
		c0.4,1.1,0.4,2.2,0.4,3.3c0,0.3-0.1,0.5-0.1,0.8c0,0.3-0.1,0.5-0.2,0.8c-0.1,0.8-0.4,1.7-0.8,2.4c-0.1,0.3-0.3,0.5-0.4,0.7
		c-0.1,0.3-0.3,0.5-0.5,0.7c-0.3,0.5-0.7,0.9-1,1.4c-0.6,0.6-1.2,1.2-1.9,1.6c-0.2,0.2-0.5,0.3-0.8,0.5c-0.2,0.1-0.5,0.3-0.8,0.4
		c-0.2,0.1-0.5,0.3-0.8,0.4c-1.4,0.5-2.8,0.9-4.3,0.9c-0.3,0-0.6,0.1-1,0.1c-0.3,0-0.6-0.1-0.9-0.1c-1-0.1-1.9-0.2-2.7-0.7
		c-0.3-0.1-0.6-0.2-0.8-0.3c-0.3-0.2-0.5-0.4-0.8-0.5c-0.2-0.1-0.5-0.3-0.7-0.5c-0.2-0.2-0.4-0.4-0.6-0.6c-0.4-0.4-0.8-0.9-1.1-1.4
		c-0.8-1.2-1.5-2.7-1.7-4.2c-0.1-0.3-0.1-0.6-0.1-0.9c0-0.3-0.1-0.6-0.1-0.9c0-0.6,0-1.2,0-1.8c0-0.3,0.1-0.5,0.1-0.8
		c0-0.3,0.1-0.5,0.2-0.8c0.1-0.6,0.3-1.1,0.5-1.6c0.1-0.3,0.2-0.5,0.3-0.7c0.2-0.5,0.5-1,0.9-1.4c0.2-0.3,0.4-0.5,0.5-0.7
		c0.2-0.2,0.4-0.5,0.5-0.7c0.2-0.2,0.4-0.4,0.6-0.6c0.4-0.4,0.9-0.7,1.4-1c0.2-0.2,0.5-0.3,0.8-0.5c0.2-0.1,0.5-0.3,0.8-0.4
		c0.7-0.4,1.6-0.6,2.4-0.9c0.6-0.1,1.1-0.2,1.7-0.2C622.6,549.2,624.3,549.5,625.5,550.1C625.8,550.2,625.2,550,625.5,550.1z
		 M614.4,582c0,0,0,0.1-0.1,0.2c-0.1,0.2-0.1,0.4-0.1,0.6c0,0.1-0.1,0.3-0.1,0.4c0,0.2,0,0.3-0.1,0.5c0,0.2-0.1,0.4-0.1,0.5
		c-0.1,0.4-0.2,0.8-0.2,1.3c-0.1,0.5-0.2,1-0.2,1.6c-0.1,0.6-0.2,1.1-0.3,1.7c0,1-0.3,1.9-0.3,2.9c-0.1,0.7-0.2,1.4-0.3,2.1
		c0,1.1-0.3,2.2-0.3,3.4c-0.1,0.8-0.2,1.6-0.2,2.4c-0.1,0.8-0.2,1.6-0.2,2.4c0,0.4-0.1,0.8-0.1,1.2c0,0.8-0.1,1.6-0.1,2.4
		c0,0.5-0.1,0.9-0.1,1.3c0,0.4,0,0.8-0.1,1.2c0,0.8-0.1,1.6-0.1,2.4c0,0.8-0.1,1.6-0.1,2.4c0,0.4,0,0.7-0.1,1.1c0,0.4,0,0.7-0.1,1.1
		c0,0.4,0,0.7,0,1.2c-0.1,1.1,0,2.1-0.1,3.2c0,1.8-0.2,3.7,0.1,5.4c0,0.5,0,0.9,0.1,1.4c0,0.2,0,0.4,0,0.6c0,0.2,0.1,0.4,0.1,0.5
		c0,0.1,0.1,0.3,0.1,0.5c0,0.1,0.1,0.3,0.1,0.4c0,0.1,0.1,0.2,0.1,0.3c0,0.3,0.2,0.4,0.3,0.6c0.1,0,0.3,0.1,0.4,0.1
		c0.4,0.2,0.8,0.3,1.2,0.3c0.5,0.1,1.1,0.2,1.6,0.2c0.3,0,0.6,0.1,1,0.1c0.3,0,0.6,0,1,0.1c0.4,0,0.7,0,1.1,0.1c0.4,0,0.7,0,1.1,0.1
		c0.8,0,1.5,0,2.3,0c0.7,0.1,1.5,0.1,2.3,0.1c1.1-0.1,2.1,0,3.2-0.1c0.3,0,0.6,0,1-0.1c0.3,0,0.6,0,0.9-0.1c0.5,0,1-0.1,1.5-0.1
		c0.3-0.1,0.7-0.2,1-0.3c0.1,0,0.1,0,0.1-0.1c0.1,0,0.2-0.1,0.2-0.1c0-0.1,0.1-0.2,0.1-0.3c0.2-0.3,0.3-0.8,0.3-1.1
		c0-0.2,0.1-0.4,0.1-0.5c0-0.2,0-0.4,0.1-0.6c0-0.2,0-0.4,0.1-0.6c0-0.3,0-0.5,0.1-0.7c0-0.2,0-0.5,0.1-0.7c0-0.3,0-0.5,0-0.8
		c0.1-0.6,0.1-1.2,0.1-1.8c0-1.3-0.1-2.7,0.1-4c0-0.7,0-1.4-0.1-2.2c0-1.5,0.1-3.1-0.1-4.7c0-0.8,0-1.6-0.1-2.4c0-0.4,0-0.8,0-1.2
		c0-0.8-0.1-1.6-0.1-2.4c0-0.4,0-0.8-0.1-1.3c0-0.4,0-0.8,0-1.2c0-0.4-0.1-0.8-0.1-1.2c0-0.4-0.1-0.8-0.1-1.1c0-0.4-0.1-0.8-0.1-1.2
		c0-0.4-0.1-0.8-0.1-1.2c0-0.4-0.1-0.7-0.1-1.1c0-0.4-0.1-0.7-0.1-1.2c0-0.4-0.1-0.7-0.1-1.1c0-0.4,0-0.7-0.1-1.1
		c0-0.4,0-0.7-0.1-1.1c0-0.7-0.1-1.3-0.1-2c0-0.3-0.1-0.6-0.1-0.9c0-0.3,0-0.6-0.1-0.9c0-0.6-0.1-1.1-0.1-1.7c0-0.2-0.1-0.5-0.1-0.7
		c0-0.2,0-0.5-0.1-0.7c0-0.4-0.1-0.9-0.1-1.3c0-0.2-0.1-0.4-0.1-0.5c0-0.1-0.1-0.3-0.1-0.5c0-0.1,0-0.3-0.1-0.4c0-0.1,0-0.2-0.1-0.3
		c0-0.1-0.1-0.3-0.1-0.4l-0.1-0.1c-0.1-0.1-0.2-0.2-0.3-0.2c-1.2-0.6-2.7-0.6-4-0.7c-0.4,0-0.8,0-1.2-0.1c-0.4,0-0.7,0-1.1-0.1
		c-0.4,0-0.8,0-1.2,0c-1.1-0.1-2.3-0.1-3.4,0c-0.4,0-0.7,0-1,0.1c-0.8,0-2.3,0.1-3,0.5c-0.1,0-0.3,0.1-0.3,0.2
		C614.5,581.9,614.4,581.9,614.4,582C614.4,582,614.4,581.9,614.4,582z"/>
</g>
<path fill="#F1CC5A" d="M429.6,660.2H320.7c-9.1,0-16.5-7.4-16.5-16.5v-91c0-9.1,7.4-16.5,16.5-16.5h108.9c9.1,0,16.5,7.4,16.5,16.5
	v91C446.1,652.8,438.7,660.2,429.6,660.2z"/>
<path fill="#FFEDBB" d="M421.5,649.7h-92.8c-9.1,0-16.5-7.4-16.5-16.5v-69.5c0-9.1,7.4-16.5,16.5-16.5h92.8
	c9.1,0,16.5,7.4,16.5,16.5v69.5C438,642.3,430.6,649.7,421.5,649.7z"/>
</svg>
