<?xml version="1.0" encoding="utf-8"?>
<!-- Generator: Adobe Illustrator 18.0.0, SVG Export Plug-In . SVG Version: 6.00 Build 0)  -->
<!DOCTYPE svg PUBLIC "-//W3C//DTD SVG 1.0//EN" "http://www.w3.org/TR/2001/REC-SVG-20010904/DTD/svg10.dtd">
<svg version="1.0" id="Camada_1" xmlns="http://www.w3.org/2000/svg" xmlns:xlink="http://www.w3.org/1999/xlink" x="0px" y="0px"
	 viewBox="0 0 1024 768" enable-background="new 0 0 1024 768" xml:space="preserve">
<g>
	<path fill="#F1CC5A" d="M487.8,730.6H334.5c-12.8,0-23.2-10.4-23.2-23.2v-128c0-12.8,10.4-23.2,23.2-23.2h153.3
		c12.8,0,23.2,10.4,23.2,23.2v128C511,720.1,500.6,730.6,487.8,730.6z"/>
	<path fill="#FFEDBB" d="M476.4,715.7H345.9c-12.8,0-23.2-10.4-23.2-23.2v-97.9c0-12.8,10.4-23.2,23.2-23.2h130.6
		c12.8,0,23.2,10.4,23.2,23.2v97.9C499.6,705.3,489.2,715.7,476.4,715.7z"/>
</g>
<g>
	<path d="M522.9,627.1c0.2-0.1,0.4-0.2,0.6-0.3c0.3-0.1,0.6-0.1,0.9-0.2c0.8-0.1,1.6-0.2,2.3-0.2c3.1-0.4,6.9-0.3,10,0
		c0.6,0,1.2,0,1.8,0.1c0.6,0,1.2,0,1.8,0.1c0.6,0,1.2,0,1.7,0.1c1.1,0,2.2,0.1,3.2,0.3c0.9,0,1.8,0.1,2.7,0.3c0.3,0,0.7,0,1.1,0.1
		c0.3,0.1,0.5,0.1,0.8,0.2c0.2,0,0.4,0,0.6,0.1c0.1,0.1,0.2,0.1,0.3,0.1c0.1,0.1,0.1,0.1,0.2,0.2c0.1,0.1,0.2,0.3,0.3,0.4
		c0.1,0.2,0.2,0.4,0.3,0.6c0.7,1.3,1.4,2.7,1.8,4.1c0.4,0.9,0.8,1.8,1.2,2.7c0.5,1,0.9,2,1.4,3c0.2,0.5,0.4,1.1,0.7,1.7
		c0.9,2.3,1.9,4.6,2.9,6.9c0.2,0.5,0.4,1.1,0.7,1.7c0.2,0.5,0.4,1.1,0.7,1.7c0.2,0.5,0.4,1.1,0.7,1.7c0.7,2,1.8,3.9,2.4,6
		c0.2,0.4,0.4,0.8,0.6,1.3c0.1,0.3,0.3,0.7,0.4,1.1c0.1,0.3,0.3,0.7,0.4,1c0.1,0.3,0.3,0.5,0.4,0.8c0.1,0.3,0.2,0.5,0.3,0.7
		c0,0.2,0.1,0.4,0.2,0.5c0,0.1,0,0.2,0.1,0.3c0,0.1,0,0.1,0,0.2c0.2-0.2,0.3-0.8,0.3-1c0.1-0.3,0.2-0.5,0.3-0.7
		c0.1-0.3,0.2-0.6,0.3-0.9c0.3-1.6,1-3.5,1.6-5c0.1-0.5,0.3-1,0.5-1.5c0.3-1.1,0.7-2.2,1.1-3.2c0.5-2.4,1.5-4.9,2.4-7.1
		c1.4-3.7,3.1-7.5,4.2-11.3c0.2-0.5,0.4-0.9,0.6-1.3c0.1-0.4,0.3-0.8,0.5-1.2c0.1-0.3,0.3-0.7,0.4-1c0.1-0.3,0.3-0.6,0.5-0.9
		c0.1-0.2,0.2-0.4,0.4-0.6c0.1-0.2,0.2-0.4,0.3-0.5c0.1-0.1,0.2-0.3,0.3-0.4c0.1-0.1,0.3-0.1,0.4-0.2c0.3-0.1,0.5-0.1,0.7-0.2
		c1.3-0.6,3.2-0.8,4.6-0.8c1-0.2,2-0.3,3-0.3c0.5-0.1,1.1-0.1,1.7-0.1c0.5-0.1,1.1-0.1,1.6-0.1c1.1-0.1,2.3-0.1,3.4-0.1
		c1.7-0.2,3.4-0.1,5.1-0.1c1,0.1,2,0.1,2.9,0.2c0.5,0,0.9,0,1.3,0.1c0.8,0,1.5,0.1,2.2,0.3c0.3,0,0.5,0,0.8,0.1
		c0.2,0.1,0.4,0.2,0.6,0.3c0.1,0,0.2,0.1,0.3,0.2l0.1,0.1v0.1c0,0.1,0,0.1-0.1,0.2c0,0.2,0,0.3-0.1,0.5c0,0.1,0,0.3,0,0.4
		c-0.1,0.1-0.1,0.3-0.2,0.4c0,0.1,0,0.3-0.1,0.5c-0.1,0.1-0.1,0.3-0.1,0.5c-0.3,0.6-0.5,1.2-0.6,1.8c-0.1,0.2-0.1,0.4-0.2,0.6
		c-0.2,0.5-0.4,1.1-0.6,1.6c-0.1,0.3-0.2,0.5-0.3,0.8c-0.1,0.3-0.2,0.6-0.3,0.9c-0.1,0.3-0.2,0.6-0.3,0.9c-0.1,0.3-0.2,0.6-0.3,0.9
		c-0.4,1-0.9,2.1-1.1,3.1c-0.1,0.3-0.3,0.7-0.5,1.1c-0.5,1.1-0.8,2.3-1.3,3.4c-0.3,0.9-0.6,1.7-0.9,2.5c-0.1,0.4-0.3,0.8-0.5,1.3
		c-0.1,0.4-0.3,0.8-0.5,1.3c-0.1,0.5-0.3,0.9-0.5,1.3c-0.3,0.9-0.7,1.9-1,2.8c-0.4,0.9-0.8,1.9-1.1,2.8c-0.6,1.5-1.2,3-1.8,4.6
		c-0.5,1.6-1.1,3.1-1.7,4.7c-1.3,2.6-2.1,5.4-3.2,8.1c-1.3,3.3-2.5,6.8-4,10c-0.8,2.3-1.8,4.5-2.6,6.8c-0.5,1.1-0.9,2.3-1.4,3.4
		c-0.2,0.5-0.4,1.1-0.6,1.6c-0.5,1.1-0.9,2.3-1.3,3.4c-1.3,2.6-2.1,5.4-3.4,8c-0.5,1.2-1.1,2.4-1.6,3.5c-0.6,1.1-1.1,2.3-1.7,3.4
		c-1.3,2-2.2,4.2-3.5,6.2c-0.5,1-1.1,1.9-1.7,2.8c-0.9,1.3-1.6,2.6-2.6,3.7c-0.3,0.4-0.6,0.8-0.9,1.2c-0.5,0.8-1.1,1.5-1.7,2.1
		c-0.3,0.4-0.6,0.8-0.9,1.1c-0.3,0.3-0.5,0.6-0.8,0.9c-0.3,0.3-0.6,0.7-0.9,1c-0.3,0.3-0.6,0.6-0.9,0.9c-0.3,0.3-0.6,0.5-0.9,0.8
		c-0.3,0.3-0.5,0.5-0.8,0.8c-1.2,0.9-2.3,2-3.5,2.9c-0.6,0.4-1.2,0.8-1.8,1.2c-0.3,0.2-0.5,0.4-0.8,0.5c-0.3,0.2-0.6,0.4-0.9,0.5
		c-0.3,0.2-0.6,0.4-0.9,0.5c-0.3,0.1-0.5,0.3-0.8,0.4c-0.6,0.4-1.2,0.7-1.8,0.8c-0.3,0.1-0.5,0.3-0.8,0.4c-0.3,0.1-0.6,0.2-0.9,0.3
		c-0.3,0.1-0.5,0.2-0.8,0.3c-0.3,0.1-0.6,0.1-0.9,0.2c-0.7,0.4-1.7,0.6-2.5,0.6c-0.6,0.2-1.1,0.3-1.7,0.3c-0.3,0.1-0.6,0.1-0.9,0.1
		c-0.4,0.2-0.8,0.2-1.1,0c-0.2-0.1-0.3-0.2-0.4-0.3c-0.2-0.1-0.4-0.3-0.5-0.5c-0.2-0.2-0.4-0.4-0.5-0.6c-0.2-0.3-0.4-0.5-0.6-0.8
		c-0.2-0.3-0.4-0.7-0.5-1c-0.4-0.8-0.8-1.5-1.2-2.3c-1.7-2.6-2.7-5.9-3.7-8.7c-0.1-0.5-0.3-1-0.5-1.5c-0.1-0.5-0.3-1-0.5-1.5
		c-0.3-1-0.5-2-0.8-2.9c-0.1-0.5-0.2-0.9-0.3-1.4c-0.1-0.8-0.3-1.7-0.4-2.5c0-0.4,0-0.8-0.1-1.1c0-0.3,0-0.7,0-1
		c0.1-0.3,0.1-0.6,0.2-0.9c0-0.2,0.1-0.4,0.2-0.7c0.1-0.1,0.2-0.3,0.3-0.4c0.3-0.4,0.7-0.7,1.1-0.9c0.3-0.1,0.5-0.2,0.8-0.3
		c0.3-0.1,0.5-0.3,0.8-0.4c0.3-0.1,0.7-0.2,1-0.3c0.7-0.3,1.5-0.5,2.2-0.7c2.6-0.9,5.3-1.9,8-2.6c0.4-0.2,0.8-0.4,1.3-0.6
		c0.5-0.3,0.9-0.5,1.3-0.7c0.9-0.5,1.7-1.1,2.5-1.6c0.8-0.6,1.6-1.3,2.3-2c0.3-0.4,0.7-0.8,1-1.2c1.2-1.9,2.3-3.8,2.8-6
		c0-0.1,0-0.3-0.1-0.4c-0.1-0.1-0.2-0.3-0.2-0.4c-0.1-0.4-0.3-0.8-0.5-1.2c-0.1-0.2-0.2-0.4-0.3-0.7c-0.2-0.5-0.4-1-0.6-1.5
		c-0.1-0.3-0.3-0.6-0.4-0.9c-0.1-0.3-0.3-0.6-0.4-0.9c-0.3-0.7-0.6-1.4-1-2.1c-0.1-0.4-0.3-0.8-0.5-1.1c-0.2-0.4-0.4-0.8-0.5-1.2
		c-1.1-2.2-1.9-4.5-3.1-6.6c-0.2-0.5-0.4-0.9-0.6-1.4c-0.5-1-1-1.9-1.4-2.9c-0.5-1-0.9-2-1.4-3c-0.3-0.5-0.5-1-0.7-1.5
		c-0.3-0.5-0.5-1.1-0.8-1.6c-0.5-1.1-1-2.1-1.5-3.1c-0.5-1.1-1-2.2-1.5-3.2c-0.6-1.7-1.6-3.2-2.2-4.9c-0.3-0.5-0.5-1.1-0.8-1.6
		c-1.5-4.1-3.6-8.5-5.8-12.4c-0.4-1-0.8-1.9-1.3-2.8c-0.4-0.9-0.8-1.8-1.2-2.7c-0.3-0.9-0.7-1.7-1.1-2.5c-0.1-0.4-0.3-0.8-0.5-1.2
		c-0.1-0.3-0.3-0.7-0.5-1.1c-0.1-0.3-0.3-0.7-0.5-1.1c-0.3-0.7-0.5-1.4-0.8-2c-0.1-0.3-0.3-0.6-0.4-0.9c-0.2-0.7-0.5-1.7-0.9-2.3
		c-0.1-0.4-0.2-0.8-0.4-1.2c0-0.3-0.2-1-0.3-1.3C522.5,627.4,522.6,627.3,522.9,627.1C523.1,627,522.7,627.2,522.9,627.1z"/>
	<path d="M655.5,690.5c-0.1-0.3-0.3,0-0.6,0.9c-0.1,0.3-0.4,0.5-0.7,0.8c-0.5,0.5-0.9,0.9-1.4,1.4c-0.3,0.3-0.5,0.5-0.7,0.7
		c-0.5,0.4-1,0.9-1.5,1.3c-0.3,0.2-0.5,0.4-0.8,0.6c-0.8,0.4-1.7,1-2.4,1.5c-0.6,0.3-1.1,0.6-1.7,0.8c-0.3,0.1-0.5,0.2-0.8,0.3
		c-0.3,0.1-0.6,0.3-0.9,0.4c-0.3,0.1-0.5,0.1-0.8,0.2c-0.9,0.5-2.5,0.8-3.5,0.8c-0.3,0.1-0.6,0.1-0.9,0.1c-0.6,0.1-1.2,0.1-1.8,0.1
		c-0.3,0.1-0.6,0.1-0.9,0c-0.6,0-1.1,0-1.7,0c-0.3-0.1-0.6-0.1-0.9-0.1c-0.3-0.1-0.6-0.1-0.9-0.2c-0.9,0-1.8-0.3-2.6-0.5
		c-0.6-0.2-1.2-0.4-1.8-0.6c-0.3-0.1-0.5-0.2-0.8-0.3c-0.3-0.1-0.6-0.3-0.9-0.4c-0.8-0.4-1.6-0.8-2.4-1.2c-0.3-0.2-0.5-0.4-0.8-0.5
		c-0.3-0.2-0.5-0.4-0.8-0.5c-0.3-0.2-0.5-0.4-0.8-0.6c-0.6-0.3-1.1-0.7-1.5-1.1c-0.8-0.6-1.6-1.2-2.2-2c-0.2-0.2-0.4-0.4-0.7-0.7
		c-0.2-0.3-0.4-0.5-0.7-0.8c-0.7-0.7-1.3-1.6-1.8-2.4c-0.2-0.3-0.4-0.5-0.6-0.8c-0.2-0.3-0.4-0.6-0.6-0.9c-0.1-0.3-0.3-0.6-0.5-0.9
		c-0.2-0.3-0.4-0.7-0.5-1c-0.4-0.6-0.7-1.3-1-1.9c-0.6-1.4-1.3-2.9-1.5-4.4c-0.1-0.3-0.3-0.7-0.4-1.1c-0.1-0.4-0.1-0.8-0.2-1.1
		c-0.5-1.6-0.6-3.3-0.9-5c0-0.4,0-0.8-0.1-1.3c0-0.4,0-0.8-0.1-1.3c0-1.8-0.1-3.7,0.1-5.5c0-0.5,0-0.9,0.1-1.4c0-1.5,0.3-3,0.5-4.5
		c0.1-0.6,0.3-1.2,0.4-1.7c0.2-1.5,0.6-3.2,1.2-4.7c0.1-0.5,0.3-1,0.5-1.5c0.5-1.8,1.4-3.8,2.4-5.4c0.2-0.4,0.4-0.8,0.7-1.2
		c0.2-0.4,0.4-0.8,0.7-1.1c0.3-0.4,0.5-0.8,0.8-1.1c1.2-1.8,2.7-3.3,4.3-4.9c0.3-0.3,0.7-0.5,1-0.8c0.6-0.6,1.2-1.1,1.9-1.5
		c0.9-0.7,2-1.3,3-1.9c0.4-0.2,0.8-0.4,1.1-0.5c0.7-0.3,1.4-0.6,2.1-1c0.4-0.1,0.8-0.3,1.1-0.4c0.7-0.2,1.5-0.4,2.2-0.6
		c1.4-0.5,3.1-0.8,4.6-0.8c0.3-0.1,0.7-0.1,1.1-0.1c1.3-0.3,3.1-0.3,4.5,0c0.4,0,0.8,0,1.1,0.1c1.1,0,2.2,0.3,3.3,0.5
		c1,0.4,2.1,0.6,3.1,1c0.7,0.2,1.4,0.4,2,0.7c0.3,0.2,0.7,0.4,1,0.5c0.6,0.3,1.2,0.7,1.8,1c0.3,0.2,0.6,0.4,0.9,0.6
		c0.6,0.4,1.2,0.8,1.7,1.2c0.5,0.7,0.7,1,0.8,0.7c0.2-1.3,0.4-2.6,0.5-4c0.1-0.4,0.2-0.8,0.3-1.3c0-0.3,0.1-0.5,0.3-0.6
		c0.3-0.2,0.7-0.3,1.1-0.3c0.3-0.1,0.7-0.1,1-0.1c2.9-0.5,6.6-0.3,9.5,0c0.6,0,1.2,0,1.9,0.1c2.7,0,6.2,0.2,8.7,1.2
		c0.3,0.1,0.5,0.1,0.7,0.2c0.1,0.1,0.3,0.3,0.4,0.4l0.1,0.1c0,1.4,0.2,3.1-0.1,4.5c0,0.4,0,0.8,0,1.1c-0.1,0.8-0.1,1.6-0.2,2.4
		c0,0.4,0,0.8,0,1.3c-0.1,1-0.1,2-0.2,2.9c0,0.5,0,1.1,0,1.6c-0.1,1.1-0.1,2.3-0.2,3.4c0,0.6,0,1.2,0,1.7c-0.2,2,0,3.9-0.2,5.9
		c0,2.9,0,5.8,0,8.7c0.2,2.1,0,4.2,0.2,6.3c0,0.7,0,1.4,0,2c0.1,1.3,0.1,2.6,0.2,3.8c0,0.6,0,1.2,0.1,1.7c0,0.6,0,1.2,0,1.8
		c0.1,0.5,0.1,1.1,0.1,1.6c0.1,0.5,0.1,1.1,0.1,1.6c0.1,0.5,0.1,1,0.1,1.5c0.1,0.5,0.1,1,0.1,1.5c0.1,0.5,0.1,0.9,0.1,1.4
		c0.1,0.8,0.1,1.7,0.2,2.5c0,0.4,0,0.8,0.1,1.2c0,0.4,0,0.8,0,1.1c0.1,0.7,0.1,1.4,0.2,2c0,0.6,0,1.2,0.1,1.7c0,0.9,0.3,2.5-0.1,3.3
		c0,0.1,0,0.2,0,0.3c0,0.1-0.1,0.2-0.2,0.3c-0.1,0.1-0.3,0.1-0.4,0.2c-0.3,0.1-0.5,0.1-0.7,0.1c-0.3,0.1-0.7,0.1-1,0.2
		c-0.3,0-0.7,0-1.1,0.1c-0.5,0-0.9,0-1.3,0c-3.7,0.5-8.2,0.4-12,0c-0.6,0-1.2,0-1.7-0.1c-0.6,0-1.2,0-1.7,0c-0.5-0.1-1-0.1-1.5-0.1
		c-0.5-0.1-0.9-0.1-1.4-0.1c-0.4-0.1-0.8-0.1-1.2-0.1c-0.3-0.1-0.7-0.1-1-0.2c-0.3,0-0.5,0-0.8-0.1c-0.2-0.1-0.4-0.1-0.6-0.1
		c-0.1-0.1-0.2-0.1-0.3-0.2c-0.2-0.2-0.3-0.4-0.4-0.7c-0.1-0.3-0.2-0.5-0.3-0.8c-0.1-0.4-0.2-0.8-0.2-1.1c-0.1-0.5-0.1-0.9-0.1-1.3
		c0.1-0.5,0.1-1,0.1-1.5c-0.1-0.5-0.1-1.1,0-1.6C655.6,691.6,655.6,691,655.5,690.5C655.4,690.3,655.6,691,655.5,690.5z
		 M645.8,651.5c-0.9-0.1-1.8-0.1-2.6-0.1c-0.9,0.2-1.7,0.4-2.5,0.7c-1.1,0.5-2.4,1.4-3.1,2.3c-0.6,0.6-1.2,1.4-1.7,2.1
		c-0.5,0.8-0.9,1.6-1.2,2.4c-0.1,0.4-0.3,0.8-0.4,1.3c-0.2,1.4-0.3,2.7-0.3,4.1c0.2,1.2,0.6,2.7,1.2,3.7c0.3,0.4,0.5,0.8,0.7,1.1
		c1,1.4,2.3,2.7,3.7,3.5c2.4,1.9,6.1,1.6,8.7,0.5c0.5-0.1,0.9-0.3,1.3-0.5c0.4-0.3,0.8-0.5,1.2-0.8c0.4-0.2,0.8-0.5,1.1-0.8
		c0.7-0.6,1.4-1.3,1.9-2c0.8-1,1.4-2.4,1.8-3.6c0.1-0.9,0.3-1.9,0.4-2.8c0-1-0.1-1.9-0.3-2.8c-0.1-0.5-0.3-0.9-0.4-1.3
		c-0.2-0.4-0.4-0.8-0.6-1.2c-0.2-0.3-0.4-0.7-0.7-1.1c-0.6-0.6-1.2-1.2-1.8-1.8c-0.4-0.3-0.8-0.6-1.1-0.8c-0.8-0.5-1.6-1-2.5-1.3
		C647.7,651.9,646.8,651.7,645.8,651.5C645.4,651.5,646.3,651.6,645.8,651.5z"/>
</g>
<image overflow="visible" width="1500" height="1500" xlink:href="../../../Desenhos Jogo Yegatu/png2/faya.png"  transform="matrix(0.381 0 0 0.381 234.3342 0)">
</image>
</svg>
