<?xml version="1.0" encoding="utf-8"?>
<!-- Generator: Adobe Illustrator 18.0.0, SVG Export Plug-In . SVG Version: 6.00 Build 0)  -->
<!DOCTYPE svg PUBLIC "-//W3C//DTD SVG 1.0//EN" "http://www.w3.org/TR/2001/REC-SVG-20010904/DTD/svg10.dtd">
<svg version="1.0" id="Camada_1" xmlns="http://www.w3.org/2000/svg" xmlns:xlink="http://www.w3.org/1999/xlink" x="0px" y="0px"
	 viewBox="0 0 1024 768" enable-background="new 0 0 1024 768" xml:space="preserve">
<image overflow="visible" width="1500" height="1500" xlink:href="../../../Desenhos Jogo Yegatu/png2/igara.png"  transform="matrix(0.5592 -0.1731 0.1731 0.5592 -35.1701 46.424)">
</image>
<path d="M305,587.4c0.1-0.1,0.1-0.1,0.2-0.2c0.1,0,0.3,0,0.4-0.1c0.2-0.1,0.4-0.1,0.5-0.2c0.2,0,0.4,0,0.7-0.1
	c0.2-0.1,0.4-0.1,0.7-0.2c0.6,0,1.3-0.1,1.9-0.3c0.8-0.1,1.5-0.1,2.3-0.2c0.4-0.1,0.8-0.1,1.3-0.2c0.9-0.1,1.9-0.1,2.8-0.2
	c0.5-0.1,1-0.1,1.5-0.1c0.5-0.1,1-0.1,1.5-0.2c0.5,0,1.1,0,1.6-0.1c0.6,0,1.2,0,1.7-0.1c0.5,0,1.1,0,1.7-0.1c0.6,0,1.2,0,1.7,0
	c0.6-0.1,1.2-0.1,1.8-0.1c1.2-0.1,2.4-0.1,3.6-0.2c1.2,0,2.4,0,3.6-0.1c1.8,0,3.5,0.1,5.3-0.1c1.7,0,3.4-0.1,5.1,0.1
	c1.5,0,3.1-0.1,4.6,0.1c0.5,0,1,0,1.5,0c0.9,0.1,1.7,0.1,2.6,0.2c0.4,0,0.8,0,1.1,0.1c0.7,0.1,1.4,0.1,2.1,0.2
	c0.3,0.1,0.6,0.1,0.9,0.2c0.2,0,0.4,0,0.7,0.1c0.5,0.2,1,0.4,1.5,0.6c0.1,0.1,0.1,0.1,0.2,0.2c0.1,0.2,0.2,0.4,0.3,0.6
	c0.1,0.3,0.2,0.6,0.3,0.9c0.8,2,0.8,4.5,1.1,6.7c0,0.5,0,1.1,0.1,1.7c0,0.5,0,1.1,0.1,1.7c0,0.5,0,1.1,0.1,1.7
	c0,2.1,0.2,4.2-0.1,6.3c0,0.5,0,0.9,0,1.4c-0.1,0.4-0.1,0.8-0.2,1.2c0,0.9-0.2,1.7-0.5,2.5c-0.1,0.1-0.2,0.2-0.3,0.3
	c-0.2,0.1-0.4,0.2-0.6,0.3c-0.3,0.1-0.7,0.1-1,0.1c-1.5,0.2-3.1,0.1-4.7,0.1c-0.6-0.1-1.2-0.1-1.8-0.1c-0.6-0.1-1.2-0.1-1.8-0.1
	c-0.6-0.1-1.2-0.1-1.7-0.2c-1-0.1-2-0.1-3-0.2c-0.6,0-1.2-0.1-1.8-0.2c-0.1,0-0.1,0-0.2,0v0.1c0,0.9,0,1.8,0,2.7
	c-0.6,3.2-0.1,7.1-0.1,10.4c0.4,3.4-0.2,6.8,0.2,10.2c0,1.7-0.1,3.5,0.1,5.2c0,1.1,0,2.3,0.1,3.4c0,0.7,0,1.4,0.1,2.1
	c0,0.7,0,1.3,0.1,2c0,0.7,0,1.3,0.1,2c0,0.7,0,1.3,0.1,2c0,1.2,0.1,2.5,0.3,3.7c0,1.2,0.1,2.3,0.3,3.5c0,1.1,0.1,2.1,0.3,3.2
	c0,0.9,0.1,1.9,0.3,2.8c0,0.9,0.1,1.7,0.3,2.6c0.1,0.7,0.1,1.4,0.2,2.1c0.1,0.3,0.1,0.6,0.2,0.9c0,0.3,0,0.5,0.1,0.8
	c0,0.2,0,0.4,0.1,0.7c0,0.1,0,0.3,0,0.5c0,0.3,0.1,0.5,0.2,0.8c0,0.1,0,0.1,0,0.2v0.1c0.1,0,0.1,0,0.2-0.1c0.3,0,0.5,0,0.7-0.1
	c2.5-0.4,5-0.7,7.5-1c0.6,0,1.2,0,1.8-0.1c1.1,0,2.2,0,3.3,0c0.9,0.1,1.7,0.2,2.5,0.5c0.3,0.1,0.5,0.2,0.7,0.4
	c0.1,0.1,0.1,0.3,0.2,0.5c0.1,0.2,0.2,0.4,0.3,0.6c0.4,1.5,0.7,3,0.7,4.5c0.1,0.5,0.1,0.9,0.2,1.4c0,0.5,0,1.1,0.1,1.6
	c0,0.5,0,1.1,0.1,1.6c0,0.6,0,1.2,0.1,1.7c0,2.8,0.2,5.8-0.1,8.6c0,0.5,0,1-0.1,1.5c0,0.5,0,1-0.1,1.5c-0.1,0.9-0.1,1.7-0.2,2.6
	c-0.1,0.6-0.3,1.3-0.4,1.9c-0.1,0.2-0.2,0.4-0.3,0.6c-0.1,0.2-0.2,0.4-0.4,0.6c-0.3,0.1-0.5,0.1-0.8,0.2c-0.2,0.1-0.4,0.1-0.6,0.1
	c-0.2,0.1-0.4,0.1-0.7,0.2c-0.2,0-0.4,0-0.7,0.1c-0.3,0-0.6,0-0.9,0.1c-0.3,0-0.7,0-1,0.1c-0.4,0-0.8,0-1.1,0
	c-0.4,0.1-0.8,0.1-1.2,0.1c-0.9,0.1-1.7,0.1-2.6,0.2c-0.5,0-0.9,0-1.4,0c-1,0.1-2,0.1-3,0.1c-1.1,0.1-2.1,0.1-3.2,0.1
	c-2.9,0.4-5.8-0.1-8.7,0.2c-3,0-6.1,0.2-9.1-0.1c-2.3,0-4.7,0.2-7.1-0.1c-1.1,0-2.3,0-3.4,0c-1.1-0.1-2.1-0.1-3.2-0.1
	c-1-0.1-2-0.1-3-0.2c-0.5,0-0.9,0-1.4,0c-0.9-0.1-1.7-0.1-2.6-0.2c-0.4,0-0.8,0-1.2,0c-0.3-0.1-0.7-0.1-1-0.1
	c-0.3-0.1-0.7-0.1-1-0.1c-0.3-0.1-0.6-0.1-0.9-0.1c-0.3-0.1-0.5-0.1-0.8-0.1c-0.3-0.1-0.5-0.1-0.7-0.1c-0.2-0.1-0.4-0.1-0.6-0.1
	c-0.1-0.1-0.3-0.1-0.4-0.1c-0.1-0.1-0.3-0.1-0.4-0.1c-0.2-0.2-0.3-0.4-0.4-0.6c-0.1-0.2-0.2-0.4-0.3-0.6c-0.1-0.3-0.1-0.6-0.2-0.9
	c-0.2-0.8-0.3-1.6-0.4-2.4c-0.1-1-0.1-2-0.2-3c-0.1-1.1-0.1-2.3-0.1-3.4c-0.2-1.8-0.2-3.6,0-5.4c0-0.5,0-1.1,0-1.7
	c0.1-0.6,0.1-1.2,0.1-1.7c0.1-0.6,0.1-1.2,0.2-1.7c0-1.6,0.2-3.7,0.8-5.2c0.1-0.3,0.2-0.6,0.3-0.9c0.1-0.2,0.2-0.4,0.3-0.6
	c0.1-0.2,0.2-0.3,0.4-0.4c0.3-0.1,0.5-0.2,0.8-0.3c0.4-0.1,0.8-0.2,1.2-0.2c0.5-0.1,0.9-0.1,1.4,0c0.5,0,1.1,0,1.6,0
	c2.2,0.2,4.5,0.4,6.6,0.9c0.8,0.1,1.5,0.2,2.3,0.4c0.2,0.1,0.4,0.1,0.7,0.2c0.1,0,0.1,0,0.2,0v-0.1c0-0.1,0-0.1,0-0.2
	c0.1-0.3,0.2-0.5,0.1-0.8c0.1-0.4,0.1-0.9,0.2-1.3c0-0.3,0-0.5,0.1-0.8c0-0.3,0-0.6,0.1-0.9c0-0.3,0-0.7,0.1-1.1
	c0-0.3,0-0.7,0.1-1.1c0.1-0.8,0.1-1.7,0.2-2.5c0.1-0.5,0.1-1,0.2-1.5c0.1-1,0.1-2,0.2-3c0.1-0.5,0.1-1.1,0.2-1.7
	c0-0.5,0-1.1,0.1-1.7c0.1-1.2,0.1-2.4,0.2-3.6c0.1-0.6,0.1-1.2,0.1-1.9c0.1-0.7,0.1-1.3,0.2-1.9c0-0.7,0-1.3,0.1-2
	c0-0.7,0-1.4,0.1-2.1c0-0.7,0-1.3,0-2c0.1-0.7,0.1-1.4,0.1-2.1c0.1-1.5,0.1-3.1,0.2-4.6c0-1.4,0-2.9,0.1-4.3c0-1.9-0.1-3.9,0.1-5.8
	c0-4,1.2-10.1-0.1-14c0-0.3,0-0.6,0-0.9v-0.1c-0.1,0-0.1,0-0.2,0c-0.2,0.1-0.4,0.1-0.6,0.2c-2.2,0-4.3,0.8-6.5,0.8
	c-1.6,0.2-3.2,0.1-4.8,0.1c-0.5-0.1-0.9-0.1-1.4-0.2c-1-0.3-2.3-0.6-2.8-1.6c-0.5-0.5-0.6-1.9-0.7-2.5c0-0.4,0-0.8-0.1-1.2
	c0-0.5,0-0.9-0.1-1.4c0-1.6,0-3.1,0-4.7c0.1-0.6,0.1-1.2,0.1-1.7c0.1-0.6,0.1-1.2,0.1-1.7c0.2-2.1,0.3-4.4,0.9-6.4
	c0.1-0.5,0.1-0.9,0.2-1.3c0.1-0.4,0.2-0.8,0.3-1.2c0.1-0.3,0.3-0.6,0.4-0.9c0.1-0.3,0.2-0.5,0.3-0.8
	C304.7,587.7,304.9,587.6,305,587.4z"/>
<path d="M585.2,702.1c-0.2-0.1-0.3-0.3-0.3-0.5c-0.1-0.1-0.1-0.3-0.2-0.4c0-0.2,0-0.4-0.1-0.5c-0.1-0.2-0.1-0.4-0.1-0.7
	c-0.1-0.2-0.1-0.4-0.2-0.7c0-0.3,0-0.6-0.1-0.9c0-0.3,0-0.6,0-0.9c-0.1-0.3-0.1-0.7-0.1-1.1c-0.1-0.8-0.1-1.5-0.2-2.3
	c0-0.9,0-1.7-0.1-2.6c0-0.9,0-1.9,0-2.8c-0.5-4.1-0.1-8.6-0.1-12.8c0.2-2.2,0.1-4.4,0.1-6.6c0.2-1.6,0.1-3.2,0.1-4.8
	c0.1-1.2,0.1-2.3,0.1-3.5c0.1-1.2,0.1-2.3,0.1-3.5c0.1-1.2,0.1-2.3,0.2-3.5c0-0.6,0-1.2,0-1.8c0.1-1.1,0.1-2.2,0.2-3.3
	c0-0.6,0-1.2,0.1-1.7c0-0.5,0-1.1,0-1.6c0.1-0.5,0.1-1,0.1-1.5c0.1-0.5,0.1-1,0.1-1.5c0.1-0.9,0.1-1.9,0.2-2.8c0-0.5,0-0.9,0.1-1.3
	c0-0.4,0-0.8,0.1-1.2c0-0.4,0-0.8,0.1-1.2c0-0.3,0-0.7,0.1-1c0-0.3,0-0.7,0-1c0.1-0.3,0.1-0.5,0.1-0.8c0.1-0.3,0.1-0.5,0.1-0.8
	c0.1-0.2,0.1-0.4,0.1-0.6c0.1-0.2,0.1-0.4,0.1-0.6c0.1-0.1,0.1-0.3,0.1-0.4c0-0.2,0.1-0.3,0.2-0.4c0.1-0.1,0.3-0.2,0.4-0.3
	c0.3-0.1,0.5-0.1,0.7-0.2c2.2-0.4,4.5-0.9,6.8-0.9c0.6-0.1,1.2-0.1,1.7-0.2c0.6,0,1.2,0,1.8-0.1c0.6,0,1.2,0,1.7,0
	c1.6-0.2,3.4-0.2,5,0c0.5,0,0.9,0,1.4,0c0.4,0.1,0.8,0.1,1.2,0.1c0.7,0.1,1.5,0.3,2.2,0.6c0.2,0.2,0.4,0.4,0.6,0.6
	c0.2,0.3,0.4,0.5,0.6,0.8c0.4,0.7,0.8,1.4,1.1,2.1c0.2,0.5,0.4,0.9,0.5,1.4c0.3,0.6,0.4,1.2,0.3,1.7c-0.3,1.1-0.3,1.8,0,2.1
	c0.3,0.2,0.7-0.2,1.4-1.2c0.3-0.3,0.7-0.7,1.3-1c0.4-0.3,0.8-0.6,1.3-1c0.4-0.3,0.8-0.5,1.3-0.8c0.4-0.3,0.8-0.6,1.2-0.9
	c0.8-0.5,1.7-0.9,2.6-1.3c0.4-0.3,0.8-0.5,1.2-0.6c0.5-0.2,0.9-0.4,1.3-0.6c1.2-0.4,2.4-0.9,3.7-1.1c1.8-0.7,3.9-0.6,5.8-0.9
	c0.7,0,1.5,0,2.2,0.1c0.3,0,0.7,0,1.1,0.1c1.6,0,3.6,0.4,5.1,1c0.6,0.2,1.2,0.4,1.8,0.7c0.3,0.1,0.7,0.2,1,0.3
	c0.3,0.1,0.5,0.3,0.8,0.4c0.3,0.1,0.6,0.3,0.9,0.5c0.6,0.2,1.1,0.5,1.6,0.9c0.3,0.1,0.5,0.3,0.8,0.5c0.3,0.1,0.5,0.3,0.8,0.5
	c1.3,0.6,2.1,1.8,3.3,2.6c0.6,0.6,1.1,1.1,1.7,1.7c0.4,0.6,0.9,1.1,1.3,1.7c0.1,0.1,0.3,0.3,0.4,0.5c0.1,0.2,0.2,0.4,0.3,0.5
	c0.1,0.2,0.2,0.4,0.3,0.6c0.1,0.1,0.2,0.3,0.3,0.5c0.1,0.1,0.1,0.3,0.2,0.4c0.1,0.3,0.2,0.6,0.3,0.9c0.1,0.2,0.1,0.4,0.1,0.5
	c0.2,0.4,0.1,1,0.1,1.4c-0.1,0.1-0.1,0.2-0.1,0.3c-0.1,0.1-0.3,0.3-0.4,0.4c-0.1,0.1-0.3,0.3-0.4,0.4c-0.2,0.2-0.4,0.4-0.6,0.6
	c-0.3,0.3-0.5,0.5-0.7,0.7c-1,0.8-2,1.9-2.9,2.8c-0.4,0.4-0.8,0.8-1.1,1.1c-1.2,1.2-2.4,2.4-3.6,3.6c-0.8,0.7-1.6,1.5-2.4,2.3
	c-0.7,0.7-1.4,1.4-2.2,2.1c-0.3,0.3-0.7,0.6-1.1,0.9c-0.3,0.3-0.6,0.5-0.9,0.8c-0.3,0.2-0.5,0.4-0.8,0.7c-0.4,0.3-0.9,0.6-1.3,0.9
	c-0.1,0.1-0.3,0.1-0.4,0.1c-0.1,0.1-0.1,0.1-0.2,0c-0.3-0.4-0.6-0.8-0.9-1.2c-0.3-0.4-0.7-0.8-1-1.2c-0.3-0.3-0.7-0.7-1-1.1
	c-0.3-0.3-0.6-0.7-0.9-1.1c-0.3-0.3-0.7-0.7-1-1c-0.3-0.3-0.6-0.6-0.9-0.9c-0.7-0.5-1.3-1.1-2-1.6c-0.6-0.5-1.2-0.9-1.9-1.2
	c-0.6-0.4-1.3-0.7-2-0.9c-1-0.2-2-0.4-3.1-0.2c-0.4,0-0.8,0-1.1,0.1c-0.4,0.1-0.8,0.3-1.1,0.4c-0.3,0.1-0.6,0.2-0.9,0.4
	c-0.6,0.3-1.2,0.7-1.7,1.1c-0.6,0.4-1,0.9-1.4,1.5c-0.3,0.3-0.5,0.6-0.6,0.9c-0.2,0.3-0.4,0.7-0.6,1c-0.1,0.3-0.3,0.7-0.4,1
	c-0.2,0.4-0.3,0.8-0.4,1.1c-0.4,1.2-0.6,2.5-1,3.7c-0.2,0.9-0.3,1.8-0.3,2.7c-0.1,0.5-0.1,0.9-0.1,1.4c-0.1,1-0.1,1.9-0.2,2.9
	c0,1,0,2,0.1,3c0,0.5,0,1,0,1.5c0.1,0.5,0.1,1,0.1,1.5c0.1,0.5,0.1,1,0.1,1.5c0.1,0.5,0.1,1,0.1,1.5c0.2,1,0.3,1.9,0.3,2.9
	c0.3,2.8,0.8,5.5,1.2,8.3c0,1.5,0.4,3,0.7,4.5c0.1,0.6,0.1,1.2,0.2,1.8c0.1,0.3,0.1,0.5,0.1,0.8c0.1,0.3,0.1,0.5,0.1,0.7
	c0.1,0.2,0.3,2,0,2c-0.1,0.1-0.1,0.1-0.2,0.2c-0.4,0.1-0.8,0.2-1.2,0.2c-0.6,0.2-1.3,0.3-1.9,0.3c-0.5,0.1-0.9,0.1-1.3,0.2
	c-1,0.1-1.9,0.1-2.9,0.2c-0.5,0.1-1.1,0.1-1.6,0.2c-0.5,0-1.1,0-1.7,0.1c-0.6,0-1.2,0-1.7,0.1c-0.6,0-1.2,0-1.8,0.1
	c-0.6,0-1.2,0-1.8,0.1c-0.6,0-1.2,0-1.8,0.1c-0.6,0-1.2,0-1.8,0c-1.7,0.2-3.3,0-5,0.2c-0.5,0-1,0-1.5,0c-1.2-0.2-2.4,0-3.6-0.2
	c-0.3,0-0.6,0-0.9-0.1c-0.2,0-0.4,0-0.7-0.1C585.5,702.2,585.4,702.2,585.2,702.1C585.2,702.1,585.4,702.2,585.2,702.1z"/>
<path d="M702.6,692.2c-0.1-0.3-0.3,0-0.6,0.9c-0.1,0.3-0.4,0.5-0.7,0.8c-0.5,0.5-0.9,0.9-1.4,1.4c-0.3,0.3-0.5,0.5-0.7,0.7
	c-0.5,0.4-1,0.9-1.5,1.3c-0.3,0.2-0.5,0.4-0.8,0.6c-0.8,0.4-1.7,1-2.4,1.5c-0.6,0.3-1.1,0.6-1.7,0.8c-0.3,0.1-0.5,0.2-0.8,0.3
	c-0.3,0.1-0.6,0.3-0.9,0.4c-0.3,0.1-0.5,0.1-0.8,0.2c-0.9,0.5-2.5,0.8-3.5,0.8c-0.3,0.1-0.6,0.1-0.9,0.1c-0.6,0.1-1.2,0.1-1.8,0.1
	c-0.3,0.1-0.6,0.1-0.9,0c-0.6,0-1.1,0-1.7,0c-0.3-0.1-0.6-0.1-0.9-0.1c-0.3-0.1-0.6-0.1-0.9-0.2c-0.9,0-1.8-0.3-2.6-0.5
	c-0.6-0.2-1.2-0.4-1.8-0.6c-0.3-0.1-0.5-0.2-0.8-0.3c-0.3-0.1-0.6-0.3-0.9-0.4c-0.8-0.4-1.6-0.8-2.4-1.2c-0.3-0.2-0.5-0.4-0.8-0.5
	c-0.3-0.2-0.5-0.4-0.8-0.5c-0.3-0.2-0.5-0.4-0.8-0.6c-0.6-0.3-1.1-0.7-1.5-1.1c-0.8-0.6-1.6-1.2-2.2-2c-0.2-0.2-0.4-0.4-0.7-0.7
	c-0.2-0.3-0.4-0.5-0.7-0.8c-0.7-0.7-1.3-1.6-1.8-2.4c-0.2-0.3-0.4-0.5-0.6-0.8c-0.2-0.3-0.4-0.6-0.6-0.9c-0.1-0.3-0.3-0.6-0.5-0.9
	c-0.2-0.3-0.4-0.7-0.5-1c-0.4-0.6-0.7-1.2-1-1.9c-0.4-1.1-0.8-2.1-1.2-3.2c-0.1-0.3-0.2-0.7-0.3-1.1c-0.1-0.3-0.3-0.7-0.4-1.1
	c-0.1-0.4-0.1-0.8-0.2-1.1c-0.5-1.6-0.6-3.3-0.9-4.9c0-0.4,0-0.8-0.1-1.3c0-0.4,0-0.8-0.1-1.3c0-1.8-0.2-3.6,0.1-5.4
	c0-0.5,0-0.9,0.1-1.4c0-1.5,0.3-2.9,0.5-4.4c0.1-0.6,0.3-1.2,0.4-1.7c0.2-1.5,0.6-3.2,1.2-4.6c0.1-0.5,0.3-1,0.5-1.5
	c0.5-1.7,1.4-3.8,2.4-5.3c0.2-0.4,0.4-0.8,0.7-1.2c0.2-0.4,0.4-0.8,0.7-1.1c0.3-0.4,0.5-0.8,0.8-1.1c1.2-1.8,2.7-3.3,4.2-4.8
	c0.3-0.3,0.7-0.5,1-0.8c0.6-0.6,1.2-1.1,1.9-1.5c0.9-0.7,2-1.3,3-1.9c0.4-0.2,0.8-0.4,1.1-0.5c0.3-0.2,0.7-0.4,1.1-0.5
	c0.3-0.1,0.7-0.3,1-0.5c0.4-0.1,0.8-0.3,1.1-0.4c0.7-0.2,1.5-0.4,2.2-0.6c1.4-0.5,3-0.8,4.5-0.8c0.3-0.1,0.7-0.1,1.1-0.1
	c1.3-0.3,3.1-0.3,4.4,0c0.4,0,0.8,0,1.1,0.1c1.1,0,2.2,0.3,3.3,0.5c1,0.4,2.1,0.6,3.1,1c0.7,0.2,1.4,0.4,2,0.7
	c0.3,0.2,0.7,0.4,1,0.5c0.6,0.3,1.2,0.7,1.8,1c0.3,0.2,0.6,0.4,0.9,0.6c0.6,0.4,1.2,0.8,1.7,1.2c0.5,0.7,0.7,1,0.8,0.7
	c0.2-1.3,0.4-2.6,0.5-3.9c0.1-0.4,0.2-0.8,0.3-1.3c0-0.3,0.1-0.5,0.3-0.6c0.3-0.2,0.7-0.3,1.1-0.3c0.3-0.1,0.7-0.1,1-0.1
	c2.9-0.5,6.5-0.3,9.4,0c0.6,0,1.2,0,1.9,0.1c2.6,0,6.1,0.2,8.6,1.2c0.3,0.1,0.5,0.1,0.7,0.2c0.1,0.1,0.3,0.3,0.4,0.4l0.1,0.1
	c0,1.4,0.2,3-0.1,4.4c0,0.4,0,0.8,0,1.1c-0.1,0.8-0.1,1.6-0.2,2.4c0,0.4,0,0.8,0,1.3c-0.1,1-0.1,1.9-0.2,2.9c0,0.5,0,1.1,0,1.6
	c-0.1,1.1-0.1,2.3-0.2,3.4c0,0.6,0,1.2,0,1.7c-0.2,1.9,0,3.9-0.2,5.8c0,2.9,0,5.7,0,8.6c0.2,2.1,0,4.1,0.2,6.2c0,0.7,0,1.3,0,2
	c0.1,1.3,0.1,2.5,0.2,3.8c0,0.6,0,1.2,0.1,1.7c0,0.6,0,1.2,0,1.8c0.1,0.5,0.1,1.1,0.1,1.6c0.1,0.5,0.1,1.1,0.1,1.6
	c0.1,0.5,0.1,1,0.1,1.5c0.1,0.5,0.1,1,0.1,1.5c0.1,0.5,0.1,0.9,0.1,1.4c0.1,0.8,0.1,1.7,0.2,2.5c0,0.4,0,0.8,0.1,1.2
	c0,0.4,0,0.8,0,1.1c0.1,0.7,0.1,1.3,0.2,2c0,0.6,0,1.1,0.1,1.7c0,0.9,0.3,2.5-0.1,3.3c0,0.1,0,0.2,0,0.3c0,0.1-0.1,0.2-0.2,0.3
	c-0.1,0.1-0.3,0.1-0.4,0.2c-0.3,0.1-0.5,0.1-0.7,0.1c-0.3,0.1-0.7,0.1-1,0.2c-0.3,0-0.7,0-1.1,0.1c-0.5,0-0.9,0-1.3,0
	c-3.7,0.5-8.1,0.4-11.8,0c-0.6,0-1.2,0-1.7-0.1c-0.6,0-1.2,0-1.7,0c-0.5-0.1-1-0.1-1.5-0.1c-0.5-0.1-0.9-0.1-1.4-0.1
	c-0.4-0.1-0.8-0.1-1.2-0.1c-0.3-0.1-0.7-0.1-1-0.2c-0.3,0-0.5,0-0.8-0.1c-0.2-0.1-0.4-0.1-0.6-0.1c-0.1-0.1-0.2-0.1-0.3-0.2
	c-0.2-0.2-0.3-0.4-0.4-0.7c-0.1-0.3-0.2-0.5-0.3-0.8c-0.1-0.4-0.2-0.8-0.2-1.1c-0.1-0.5-0.1-0.9-0.1-1.3c0.1-0.5,0.1-1,0.1-1.5
	c-0.1-0.5-0.1-1.1,0-1.6C702.7,693.2,702.8,692.6,702.6,692.2C702.6,691.9,702.8,692.6,702.6,692.2z M693.2,653.8
	c-0.9-0.1-1.7-0.1-2.6-0.1c-0.9,0.2-1.7,0.4-2.5,0.7c-1.1,0.5-2.3,1.3-3.1,2.3c-0.6,0.6-1.2,1.3-1.7,2.1c-0.5,0.8-0.9,1.6-1.2,2.4
	c-0.1,0.4-0.3,0.8-0.4,1.3c-0.2,1.3-0.3,2.6-0.3,4c0.2,1.2,0.6,2.7,1.2,3.7c0.3,0.4,0.5,0.8,0.7,1.1c0.9,1.4,2.2,2.6,3.7,3.5
	c0.7,0.4,1.4,0.8,2.2,1c2.1,0.7,4.4,0.4,6.4-0.5c0.5-0.1,0.9-0.3,1.3-0.5c0.4-0.3,0.8-0.5,1.2-0.8c0.4-0.2,0.8-0.5,1.1-0.8
	c0.7-0.6,1.4-1.2,1.9-2c0.8-1,1.4-2.4,1.8-3.6c0.1-0.9,0.3-1.9,0.4-2.8c0-0.9-0.1-1.9-0.3-2.8c-0.1-0.5-0.3-0.9-0.4-1.3
	c-0.2-0.4-0.4-0.8-0.6-1.2c-0.2-0.3-0.4-0.7-0.7-1.1c-0.6-0.6-1.2-1.2-1.8-1.8c-0.4-0.3-0.8-0.6-1.1-0.8c-0.8-0.5-1.6-0.9-2.5-1.3
	C695,654.1,694.1,653.9,693.2,653.8C692.8,653.7,693.6,653.8,693.2,653.8z"/>
<g>
	<path fill="#F1CC5A" d="M550.9,729.6H397.6c-12.8,0-23.2-10.4-23.2-23.2v-128c0-12.8,10.4-23.2,23.2-23.2h153.3
		c12.8,0,23.2,10.4,23.2,23.2v128C574.1,719.1,563.7,729.6,550.9,729.6z"/>
	<path fill="#FFEDBB" d="M539.5,714.7H409c-12.8,0-23.2-10.4-23.2-23.2v-97.9c0-12.8,10.4-23.2,23.2-23.2h130.6
		c12.8,0,23.2,10.4,23.2,23.2v97.9C562.7,704.3,552.3,714.7,539.5,714.7z"/>
</g>
</svg>
