<?xml version="1.0" encoding="utf-8"?>
<!-- Generator: Adobe Illustrator 18.0.0, SVG Export Plug-In . SVG Version: 6.00 Build 0)  -->
<!DOCTYPE svg PUBLIC "-//W3C//DTD SVG 1.0//EN" "http://www.w3.org/TR/2001/REC-SVG-20010904/DTD/svg10.dtd">
<svg version="1.0" id="Camada_1" xmlns="http://www.w3.org/2000/svg" xmlns:xlink="http://www.w3.org/1999/xlink" x="0px" y="0px"
	 viewBox="0 0 1024 768" enable-background="new 0 0 1024 768" xml:space="preserve">
<image overflow="visible" width="1500" height="1500" xlink:href="../../../Desenhos Jogo Yegatu/png2/kaá.png"  transform="matrix(0.5199 0 0 0.5199 125.927 -140)">
</image>
<path d="M613.5,612c-7.9,3.5-21.2-8.5-18.1-12.6c0,0,28.3-30.2,35.8-34c7.5-3.8,27,11.4,23.2,16.2C650.7,586.4,613.5,612,613.5,612z
	"/>
<g>
	<path d="M628,691.2c-0.1-0.3-0.3,0-0.6,0.9c-0.1,0.3-0.4,0.5-0.7,0.8c-0.3,0.2-0.5,0.4-0.7,0.7c-0.2,0.3-0.4,0.5-0.7,0.7
		c-0.3,0.3-0.5,0.5-0.7,0.7c-0.3,0.3-0.5,0.5-0.8,0.7c-0.3,0.2-0.5,0.4-0.7,0.6c-0.3,0.2-0.5,0.4-0.8,0.6c-0.3,0.1-0.5,0.3-0.8,0.5
		c-0.3,0.2-0.5,0.4-0.8,0.5c-0.3,0.1-0.5,0.3-0.8,0.5c-0.3,0.1-0.5,0.3-0.8,0.4c-0.3,0.1-0.6,0.3-0.9,0.4c-0.3,0.1-0.5,0.2-0.8,0.3
		c-0.3,0.1-0.6,0.3-0.9,0.4c-0.3,0.1-0.5,0.1-0.8,0.2c-0.3,0.1-0.6,0.2-0.9,0.3c-0.3,0.1-0.6,0.1-0.9,0.2c-0.3,0.1-0.5,0.1-0.8,0.2
		c-0.3,0.1-0.6,0.1-0.9,0.1c-0.3,0.1-0.6,0.1-0.9,0.1c-0.3,0.1-0.6,0.1-0.9,0.1c-0.3,0-0.6,0-0.9,0c-0.3,0.1-0.6,0.1-0.9,0
		c-0.3,0-0.5,0-0.8,0c-0.3,0-0.6,0-0.9,0c-0.3-0.1-0.6-0.1-0.9-0.1c-0.3-0.1-0.6-0.1-0.9-0.2c-0.3,0-0.6,0-0.9-0.1
		c-0.3-0.1-0.6-0.1-0.9-0.2c-0.3-0.1-0.5-0.1-0.8-0.2c-0.3-0.1-0.6-0.2-0.9-0.3c-0.3-0.1-0.6-0.2-0.9-0.3c-0.3-0.1-0.5-0.2-0.8-0.3
		c-0.3-0.1-0.6-0.3-0.9-0.4c-0.3-0.1-0.5-0.3-0.8-0.4c-0.3-0.1-0.5-0.3-0.8-0.4c-0.3-0.1-0.5-0.3-0.8-0.4c-0.3-0.2-0.5-0.4-0.8-0.5
		c-0.3-0.2-0.5-0.4-0.8-0.5c-0.3-0.2-0.5-0.4-0.8-0.6c-0.3-0.1-0.5-0.3-0.8-0.5c-0.3-0.2-0.5-0.4-0.7-0.6c-0.3-0.2-0.5-0.4-0.8-0.6
		c-0.2-0.3-0.4-0.5-0.7-0.7c-0.3-0.2-0.5-0.4-0.7-0.7c-0.2-0.2-0.4-0.4-0.7-0.7c-0.2-0.3-0.4-0.5-0.7-0.8c-0.2-0.2-0.4-0.4-0.6-0.7
		c-0.2-0.3-0.4-0.5-0.6-0.8c-0.2-0.3-0.4-0.6-0.6-0.9c-0.2-0.3-0.4-0.5-0.6-0.8c-0.2-0.3-0.4-0.6-0.6-0.9c-0.1-0.3-0.3-0.6-0.5-0.9
		c-0.2-0.3-0.4-0.7-0.5-1c-0.2-0.3-0.4-0.6-0.5-0.9c-0.1-0.3-0.3-0.7-0.5-1c-0.1-0.3-0.3-0.7-0.4-1c-0.1-0.4-0.3-0.8-0.4-1.1
		c-0.1-0.3-0.3-0.7-0.4-1.1c-0.1-0.3-0.2-0.7-0.3-1.1c-0.1-0.3-0.3-0.7-0.4-1.1c-0.1-0.4-0.1-0.8-0.2-1.1c-0.1-0.4-0.2-0.8-0.3-1.2
		c-0.1-0.4-0.1-0.8-0.2-1.2c-0.1-0.4-0.1-0.8-0.2-1.2c-0.1-0.5-0.1-0.9-0.2-1.3c0-0.4,0-0.8-0.1-1.3c0-0.4,0-0.8-0.1-1.3
		c0-0.4,0-0.8,0-1.3c0-0.5,0-0.9,0-1.3c0-0.5,0-0.9,0-1.4c0-0.5,0-0.9,0.1-1.4c0-0.5,0-0.9,0.1-1.4c0-0.5,0-1,0.1-1.5
		c0.1-0.5,0.1-0.9,0.2-1.4c0.1-0.5,0.1-1,0.2-1.5c0.1-0.6,0.3-1.2,0.4-1.7c0.1-0.5,0.2-1.1,0.3-1.6c0.1-0.5,0.3-1,0.4-1.5
		c0.1-0.5,0.3-1,0.5-1.5c0.1-0.5,0.3-1,0.5-1.5c0.1-0.5,0.3-0.9,0.5-1.4c0.2-0.5,0.4-0.9,0.6-1.3c0.2-0.5,0.4-0.9,0.6-1.3
		c0.2-0.5,0.4-0.9,0.7-1.3c0.2-0.4,0.4-0.8,0.7-1.2c0.2-0.4,0.4-0.8,0.7-1.1c0.3-0.4,0.5-0.8,0.8-1.1c0.3-0.4,0.5-0.8,0.8-1.1
		c0.3-0.3,0.5-0.7,0.8-1c0.3-0.3,0.5-0.7,0.8-1c0.3-0.3,0.6-0.6,0.9-0.9c0.3-0.3,0.6-0.5,0.9-0.8c0.3-0.3,0.7-0.5,1-0.8
		c0.3-0.3,0.6-0.5,0.9-0.8c0.3-0.3,0.7-0.5,1-0.7c0.3-0.3,0.7-0.5,1-0.7c0.3-0.2,0.7-0.4,1-0.6c0.3-0.2,0.7-0.4,1-0.6
		c0.4-0.2,0.8-0.4,1.1-0.5c0.3-0.2,0.7-0.4,1.1-0.5c0.3-0.1,0.7-0.3,1-0.5c0.4-0.1,0.8-0.3,1.1-0.4c0.4-0.1,0.8-0.2,1.1-0.3
		c0.4-0.1,0.8-0.2,1.1-0.3c0.4-0.1,0.8-0.2,1.1-0.3c0.4-0.1,0.8-0.1,1.1-0.2c0.4-0.1,0.8-0.1,1.1-0.2c0.4-0.1,0.8-0.1,1.2-0.1
		c0.3-0.1,0.7-0.1,1.1-0.1c0.3-0.1,0.7-0.1,1.1-0.1c0.4,0,0.8,0,1.1,0c0.4,0,0.8,0,1.1,0c0.4,0,0.8,0,1.1,0.1c0.4,0,0.8,0,1.1,0.1
		c0.4,0,0.8,0,1.1,0.1c0.4,0.1,0.8,0.1,1.1,0.2c0.3,0.1,0.7,0.1,1.1,0.2c0.3,0.1,0.7,0.2,1,0.3c0.4,0.1,0.8,0.2,1.1,0.3
		c0.3,0.1,0.7,0.3,1,0.4c0.3,0.1,0.7,0.2,1,0.3c0.3,0.1,0.7,0.3,1,0.4c0.3,0.2,0.7,0.4,1,0.5c0.3,0.1,0.6,0.3,0.9,0.5
		c0.3,0.2,0.6,0.4,0.9,0.5c0.3,0.2,0.6,0.4,0.9,0.6c0.3,0.2,0.6,0.4,0.9,0.6c0.4,0.1,0.7,0.3,0.8,0.6c0.5,0.7,0.7,1,0.8,0.7
		c0.3-0.5,0.4-1.2,0.3-2.1c-0.1-0.6,0-1.2,0.2-1.8c0.1-0.4,0.2-0.8,0.3-1.3c0-0.3,0.1-0.5,0.3-0.6c0.1-0.1,0.2-0.1,0.4-0.2
		c0.2-0.1,0.4-0.1,0.7-0.1c0.3-0.1,0.7-0.1,1-0.1c0.4-0.1,0.8-0.1,1.2-0.1c0.5,0,0.9,0,1.4,0c0.5,0,1.1,0,1.6,0c0.5,0,1.1,0,1.7,0
		c0.5,0,1.1,0,1.7,0c0.6,0,1.2,0,1.8,0.1c0.6,0,1.2,0,1.9,0.1c0.5,0,1.1,0,1.7,0.1c0.6,0.1,1.2,0.1,1.7,0.2c0.5,0.1,1.1,0.1,1.6,0.2
		c0.5,0.1,0.9,0.1,1.4,0.2c0.4,0.1,0.8,0.1,1.2,0.2c0.3,0.1,0.7,0.2,1,0.3c0.3,0.1,0.5,0.1,0.7,0.2c0.1,0.1,0.3,0.3,0.4,0.4l0.1,0.1
		c0,0.1,0,0.2,0,0.3c0,0.1,0,0.3,0,0.4c0,0.2,0,0.4,0,0.6c0,0.2,0,0.4,0,0.6c0,0.3,0,0.5,0,0.7c0,0.3,0,0.6,0,0.9
		c0,0.3,0,0.6-0.1,0.9c0,0.4,0,0.8,0,1.1c-0.1,0.4-0.1,0.8-0.1,1.1c0,0.5,0,0.9-0.1,1.3c0,0.4,0,0.8,0,1.3c-0.1,0.5-0.1,0.9-0.1,1.4
		c0,0.5,0,1-0.1,1.5c0,0.5,0,1.1,0,1.6c-0.1,0.5-0.1,1.1-0.1,1.6c0,0.6,0,1.2-0.1,1.8c0,0.6,0,1.2,0,1.7c-0.1,0.7-0.1,1.3-0.1,1.9
		c0,0.7,0,1.3,0,1.9c0,0.7,0,1.3-0.1,2c0,0.7,0,1.3,0,2c0,0.7,0,1.4,0,2.1c0,0.8,0,1.6,0,2.3c0,0.7,0,1.5,0,2.2
		c0.1,0.7,0.1,1.4,0.1,2.1c0,0.7,0,1.4,0,2.1c0,0.7,0,1.3,0.1,2c0,0.7,0,1.3,0,2c0.1,0.7,0.1,1.3,0.1,1.9s0,1.2,0.1,1.9
		c0,0.6,0,1.2,0.1,1.7c0,0.6,0,1.2,0,1.8c0.1,0.5,0.1,1.1,0.1,1.6c0.1,0.5,0.1,1.1,0.1,1.6c0.1,0.5,0.1,1,0.1,1.5
		c0.1,0.5,0.1,1,0.1,1.5c0.1,0.5,0.1,0.9,0.1,1.4c0.1,0.4,0.1,0.8,0.1,1.3c0,0.4,0,0.8,0.1,1.2c0,0.4,0,0.8,0.1,1.2
		c0,0.4,0,0.8,0,1.1c0.1,0.3,0.1,0.7,0.1,1.1c0,0.3,0,0.6,0.1,0.9c0,0.3,0,0.6,0,0.9s0,0.5,0.1,0.8c0,0.3,0,0.5,0,0.8
		c0,0.2,0,0.4,0,0.6c0,0.2,0,0.4,0,0.6c0,0.2,0,0.4,0,0.5c0,0.1,0,0.3,0,0.5c0,0.1,0,0.2-0.1,0.3c0,0.1,0,0.2,0,0.3
		c-0.1,0.1-0.1,0.1-0.1,0.2c0,0.1,0,0.1-0.1,0.1c-0.1,0.1-0.3,0.1-0.4,0.2c-0.3,0.1-0.5,0.1-0.7,0.1c-0.3,0.1-0.7,0.1-1,0.2
		c-0.3,0-0.7,0-1.1,0.1c-0.5,0-0.9,0-1.3,0c-0.5,0.1-1,0.1-1.5,0.1c-0.5,0-1.1,0-1.6,0c-0.5,0-1.1,0-1.7,0c-0.5,0-1.1,0-1.7,0
		c-0.6,0-1.2,0-1.8,0c-0.6,0-1.2,0-1.8,0c-0.5,0-1.1,0-1.7-0.1c-0.6,0-1.2,0-1.7-0.1c-0.6,0-1.2,0-1.7,0c-0.5-0.1-1-0.1-1.5-0.1
		c-0.5-0.1-0.9-0.1-1.4-0.1c-0.4-0.1-0.8-0.1-1.2-0.1c-0.3-0.1-0.7-0.1-1-0.2c-0.3,0-0.5,0-0.8-0.1c-0.2-0.1-0.4-0.1-0.6-0.1
		c-0.1-0.1-0.2-0.1-0.3-0.2c-0.2-0.2-0.3-0.4-0.4-0.7c-0.1-0.3-0.2-0.5-0.3-0.8c-0.1-0.4-0.2-0.8-0.2-1.1c-0.1-0.5-0.1-0.9-0.1-1.3
		c0.1-0.5,0.1-1,0.1-1.5c-0.1-0.5-0.1-1.1,0-1.6C628.1,692.2,628.2,691.6,628,691.2z M618.6,652.8c-0.4-0.1-0.8-0.1-1.3-0.1
		c-0.5,0-0.9,0-1.3,0c-0.5,0.1-0.9,0.2-1.3,0.3c-0.4,0.1-0.8,0.3-1.2,0.4c-0.4,0.2-0.8,0.4-1.1,0.7c-0.4,0.2-0.8,0.4-1.1,0.7
		c-0.3,0.3-0.6,0.6-0.9,0.9c-0.3,0.3-0.6,0.7-0.9,1c-0.3,0.3-0.5,0.7-0.8,1.1c-0.2,0.3-0.4,0.7-0.6,1.1c-0.2,0.5-0.4,0.9-0.6,1.3
		c-0.1,0.4-0.3,0.8-0.4,1.3c-0.1,0.4-0.1,0.8-0.2,1.3c-0.1,0.5-0.1,0.9-0.1,1.4c0,0.4,0,0.8,0,1.3c0.1,0.5,0.2,0.9,0.3,1.3
		c0.1,0.4,0.3,0.8,0.4,1.2c0.1,0.5,0.3,0.9,0.5,1.2c0.3,0.4,0.5,0.8,0.7,1.1c0.3,0.4,0.5,0.8,0.8,1.1c0.3,0.3,0.6,0.6,0.9,0.9
		c0.3,0.3,0.7,0.5,1,0.8c0.3,0.3,0.7,0.5,1,0.7c0.3,0.3,0.7,0.5,1.1,0.6c0.4,0.1,0.8,0.3,1.1,0.4c0.4,0.1,0.8,0.2,1.2,0.3
		c0.4,0.1,0.8,0.1,1.2,0.1s0.8,0,1.2-0.1c0.5-0.1,0.9-0.2,1.4-0.3c0.5-0.1,0.9-0.3,1.4-0.5c0.5-0.1,0.9-0.3,1.3-0.5
		c0.4-0.3,0.8-0.5,1.2-0.8c0.4-0.2,0.8-0.5,1.1-0.8c0.3-0.3,0.7-0.6,1-0.9c0.3-0.3,0.6-0.7,0.9-1.1c0.3-0.3,0.5-0.7,0.7-1.1
		c0.2-0.4,0.4-0.8,0.6-1.2c0.2-0.5,0.4-0.9,0.5-1.3c0.1-0.5,0.1-0.9,0.2-1.4c0.1-0.5,0.1-0.9,0.2-1.4c0-0.5,0-1-0.1-1.5
		c-0.1-0.5-0.1-0.9-0.2-1.3c-0.1-0.5-0.3-0.9-0.4-1.3c-0.2-0.4-0.4-0.8-0.6-1.2c-0.2-0.3-0.4-0.7-0.7-1.1c-0.3-0.3-0.6-0.6-0.9-0.9
		c-0.3-0.3-0.6-0.6-0.9-0.9c-0.4-0.3-0.8-0.6-1.1-0.8c-0.4-0.3-0.8-0.5-1.2-0.7c-0.4-0.2-0.8-0.4-1.3-0.6c-0.4-0.1-0.8-0.3-1.3-0.4
		C619.5,652.9,619,652.8,618.6,652.8z"/>
</g>
<g>
	<path fill="#F1CC5A" d="M549.7,729.6H396.3c-12.8,0-23.2-10.4-23.2-23.2v-128c0-12.8,10.4-23.2,23.2-23.2h153.3
		c12.8,0,23.2,10.4,23.2,23.2v128C572.8,719.1,562.4,729.6,549.7,729.6z"/>
	<path fill="#FFEDBB" d="M538.3,714.7H407.8c-12.8,0-23.2-10.4-23.2-23.2v-97.9c0-12.8,10.4-23.2,23.2-23.2h130.6
		c12.8,0,23.2,10.4,23.2,23.2v97.9C561.4,704.3,551,714.7,538.3,714.7z"/>
</g>
</svg>
