<?xml version="1.0" encoding="utf-8"?>
<!-- Generator: Adobe Illustrator 18.0.0, SVG Export Plug-In . SVG Version: 6.00 Build 0)  -->
<!DOCTYPE svg PUBLIC "-//W3C//DTD SVG 1.1//EN" "http://www.w3.org/Graphics/SVG/1.1/DTD/svg11.dtd">
<svg version="1.1" id="Camada_1" xmlns="http://www.w3.org/2000/svg" xmlns:xlink="http://www.w3.org/1999/xlink" x="0px" y="0px"
	 viewBox="0 0 1024 768" enable-background="new 0 0 1024 768" xml:space="preserve">
<g>
	<path fill="#F1CC5A" d="M504.6,729.6H351.3c-12.8,0-23.2-10.4-23.2-23.2v-128c0-12.8,10.4-23.2,23.2-23.2h153.3
		c12.8,0,23.2,10.4,23.2,23.2v128C527.8,719.1,517.4,729.6,504.6,729.6z"/>
	<path fill="#FFEDBB" d="M493.2,714.7H362.7c-12.8,0-23.2-10.4-23.2-23.2v-97.9c0-12.8,10.4-23.2,23.2-23.2h130.6
		c12.8,0,23.2,10.4,23.2,23.2v97.9C516.4,704.3,506,714.7,493.2,714.7z"/>
</g>
<image overflow="visible" enable-background="new    " width="1500" height="1500" xlink:href="../../../Desenhos Jogo Yegatu/png2/nanã.png"  transform="matrix(0.5033 0 0 0.5033 136 -83.9954)">
</image>
<path d="M648.2,613.9c-4.2,0-7.4,10.1-14.2,9.8s-6.8-6.1-6.8-8.3c0-4.7,4.7-12.5,7.2-15.4s6.2-6.7,13.5-6.7c10.1,0,12,10.3,20,10.3
	c4.6,0,8.1-12.5,16.8-12.5c15.5,0,5.2,16.8,3.6,19.3c-2.6,4.1-10.3,14.7-20.7,14.7C657.2,625,655.2,613.9,648.2,613.9"/>
<path d="M540.6,701.3c-0.1,0-0.1-0.1-0.1-0.2c-0.1-0.1-0.1-0.2-0.2-0.3c-0.1-0.1-0.1-0.3-0.2-0.4c-0.1-0.2-0.1-0.4-0.1-0.6
	c-0.1-0.3-0.1-0.5-0.2-0.7c0-0.3,0-0.5-0.1-0.8c0-0.3,0-0.7-0.1-1c0-0.3,0-0.7-0.1-1c0-0.3,0-0.7-0.1-1.1c0-0.4,0-0.8,0-1.2
	c-0.1-0.4-0.1-0.8-0.1-1.3s0-0.9,0-1.3c-0.1-0.5-0.1-1-0.1-1.5s0-0.9,0-1.4s0-1.1,0-1.6c-0.1-0.5-0.1-1.1-0.1-1.6s0-1.1,0-1.6
	s0-1.1,0-1.6c0-0.6,0-1.2,0-1.7c0-0.6,0-1.2,0-1.7c0-0.6,0-1.2,0.1-1.7c0-0.6,0-1.2,0-1.7c0-0.6,0-1.2,0-1.7c0-0.6,0-1.2,0-1.7
	c0-0.6,0-1.2,0.1-1.7c0-0.6,0-1.2,0-1.7s0-1.1,0-1.6c0.1-0.5,0.1-1.1,0.1-1.6c0-0.6,0-1.2,0-1.8s0-1.2,0.1-1.8c0-0.5,0-1.1,0-1.7
	c0.1-0.6,0.1-1.2,0.1-1.8s0-1.2,0-1.8c0.1-0.5,0.1-1.1,0.1-1.7c0-0.6,0-1.2,0.1-1.7c0-0.6,0-1.2,0-1.7c0.1-0.6,0.1-1.2,0.1-1.7
	c0.1-0.5,0.1-1.1,0.1-1.7c0-0.5,0-1,0.1-1.5c0-0.5,0-1.1,0.1-1.6c0-0.5,0-1,0-1.5c0.1-0.5,0.1-0.9,0.1-1.4c0.1-0.5,0.1-0.9,0.1-1.4
	c0.1-0.4,0.1-0.8,0.1-1.3c0.1-0.4,0.1-0.8,0.1-1.2s0-0.8,0.1-1.1c0-0.4,0-0.8,0.1-1.1c0-0.3,0-0.7,0.1-1c0-0.3,0-0.5,0.1-0.8
	c0-0.3,0-0.5,0.1-0.8c0-0.2,0-0.4,0-0.6c0.1-0.2,0.1-0.4,0.1-0.5c0.1-0.2,0.1-0.4,0.1-0.5c0.1-0.1,0.1-0.1,0.1-0.2
	c0.1-0.1,0.1-0.1,0.1-0.2c0.1-0.1,0.3-0.1,0.4-0.2c0.2-0.1,0.4-0.1,0.7-0.2c0.3-0.1,0.6-0.1,0.9-0.1c0.4-0.1,0.8-0.1,1.1-0.1
	c0.5-0.1,0.9-0.1,1.4-0.1s1,0,1.5-0.1c0.5,0,1.1,0,1.6,0s1.1,0,1.7,0s1.2,0,1.8,0c0.6,0.1,1.2,0.1,1.8,0.1s1.2,0,1.8,0.1
	c0.6,0,1.2,0,1.8,0.1c0.5,0,1.1,0,1.7,0.1c0.5,0,1.1,0,1.6,0.1s1,0.1,1.5,0.2c0.5,0,0.9,0,1.3,0.1c0.4,0.1,0.8,0.1,1.2,0.2
	c0.3,0.1,0.6,0.1,0.9,0.2c0.3,0.1,0.5,0.2,0.7,0.3c0.2,0,0.3,0.1,0.4,0.2c0.3,0.2,0.5,0.4,0.7,0.7s0.4,0.5,0.5,0.8
	c0.1,0.4,0.3,0.8,0.4,1.1c0.1,0.5,0.2,0.9,0.3,1.4c0.2,0.6,0.3,1.2,0.2,1.8c-0.2,0.9-0.2,1.7,0,2.3c0.1,0.3,0.3,0,0.7-1
	c0.2-0.3,0.5-0.6,0.8-0.9c0.3-0.3,0.5-0.6,0.8-0.9c0.2-0.3,0.5-0.5,0.8-0.8s0.5-0.5,0.8-0.8s0.6-0.5,0.9-0.7c0.3-0.3,0.7-0.5,1-0.7
	s0.6-0.4,0.9-0.6c0.3-0.2,0.7-0.4,1-0.6c0.3-0.2,0.7-0.4,1-0.5c0.3-0.2,0.7-0.4,1-0.5s0.7-0.3,1-0.4c0.3-0.1,0.7-0.2,1.1-0.3
	c0.3-0.1,0.7-0.2,1-0.3s0.7-0.2,1.1-0.3c0.3-0.1,0.7-0.1,1.1-0.1c0.3-0.1,0.7-0.1,1.1-0.1c0.3-0.1,0.7-0.1,1.1-0.1
	c0.3,0,0.7,0,1.1,0c0.3,0,0.7,0,1.1,0.1c0.3,0,0.7,0,1.1,0.1c0.3,0.1,0.7,0.1,1.1,0.2c0.3,0.1,0.7,0.1,1.1,0.2
	c0.3,0.1,0.7,0.2,1,0.3c0.4,0.1,0.8,0.3,1.1,0.4c0.4,0.1,0.8,0.3,1.1,0.4c0.3,0.2,0.7,0.4,1.1,0.5c0.3,0.2,0.7,0.4,1,0.6
	c0.3,0.2,0.7,0.4,1,0.6c0.3,0.3,0.7,0.5,1,0.7c0.3,0.3,0.7,0.5,1,0.8s0.7,0.5,1,0.8s0.6,0.6,0.9,0.9c0.3,0.3,0.7,0.7,1,1
	s0.5,0.7,0.8,1c0.3,0.4,0.6,0.8,0.9,1.1c0.3,0.4,0.5,0.8,0.8,1.2s0.5,0.8,0.8,1.3c0.3,0.4,0.5,0.8,0.8,1.3c0.2,0.5,0.4,0.9,0.7,1.3
	c0.2,0.5,0.4,0.9,0.6,1.4c0.2,0.5,0.4,0.9,0.6,1.4c0.2,0.5,0.4,1,0.6,1.5c0.2,0.5,0.4,0.9,0.5,1.4s0.3,1,0.5,1.5
	c0.1,0.5,0.3,1,0.4,1.5c0.1,0.5,0.3,0.9,0.4,1.4c0.1,0.5,0.2,1,0.3,1.5s0.2,1.1,0.3,1.6s0.1,1,0.2,1.5c0.1,0.5,0.2,1,0.3,1.5
	s0.1,1,0.1,1.5c0.1,0.5,0.1,1,0.2,1.5c0.1,0.5,0.1,1.1,0.1,1.6c0.1,0.5,0.1,1,0.1,1.5s0,1,0,1.5c0.1,0.5,0.1,1,0.1,1.5s0,1,0,1.5
	c-0.1,0.5-0.1,1-0.1,1.5s0,0.9,0,1.4c-0.1,0.5-0.1,1-0.1,1.5c-0.1,0.5-0.1,0.9-0.1,1.4c-0.1,0.5-0.1,0.9-0.2,1.4
	c0,0.5,0,0.9-0.1,1.4s-0.1,0.9-0.2,1.4c-0.1,0.4-0.1,0.8-0.1,1.3c-0.1,0.4-0.1,0.8-0.2,1.3c-0.1,0.4-0.2,0.8-0.3,1.3
	c-0.1,0.4-0.1,0.8-0.2,1.2c-0.1,0.4-0.1,0.8-0.2,1.2c-0.1,0.4-0.2,0.8-0.3,1.1c-0.1,0.4-0.1,0.8-0.2,1.2c-0.1,0.3-0.2,0.7-0.3,1
	c-0.1,0.4-0.2,0.8-0.3,1.1s-0.2,0.7-0.3,1s-0.2,0.6-0.3,0.9c-0.1,0.3-0.1,0.6-0.2,0.9c-0.1,0.3-0.2,0.5-0.3,0.8s-0.2,0.5-0.3,0.8
	c-0.1,0.2-0.2,0.4-0.3,0.7c-0.1,0.2-0.2,0.4-0.3,0.7c-0.1,0.2-0.2,0.4-0.3,0.6c-0.1,0.1-0.2,0.3-0.3,0.5c-0.1,0.1-0.1,0.3-0.2,0.5
	c-0.1,0.1-0.2,0.3-0.3,0.4c-0.1,0.1-0.2,0.2-0.3,0.3s-0.1,0.1-0.2,0.2c-0.1,0.1-0.1,0.1-0.2,0.2c-0.1,0.1-0.1,0.1-0.2,0.1
	c-0.3,0.1-0.5,0.1-0.8,0.2c-0.3,0.1-0.6,0.1-0.9,0.1c-0.4,0.1-0.8,0.1-1.2,0.1c-0.5,0.1-0.9,0.1-1.4,0.1s-1,0-1.5,0.1
	c-0.5,0-1.1,0-1.6,0c-0.6,0-1.2,0-1.7,0c-0.6,0-1.2,0-1.8,0c-0.5,0-1.1,0-1.7,0c-0.6,0-1.2,0-1.7,0s-1.1,0-1.6-0.1c-0.5,0-1,0-1.5,0
	c-0.5-0.1-0.9-0.1-1.3-0.1c-0.4-0.1-0.8-0.1-1.2-0.2c-0.3,0-0.6,0-0.9-0.1c-0.2-0.1-0.4-0.1-0.6-0.1c-0.1-0.1-0.3-0.1-0.4-0.2v-0.1
	c0-0.1,0-0.2,0-0.3s0-0.2,0-0.3s0-0.3,0.1-0.5c0-0.2,0-0.4,0.1-0.5c0-0.3,0-0.5,0.1-0.7c0.1-0.3,0.1-0.5,0.2-0.7
	c0-0.3,0-0.6,0.1-0.9c0.1-0.3,0.1-0.6,0.2-0.9c0.1-0.3,0.1-0.7,0.2-1c0.1-0.3,0.2-0.7,0.3-1c0.1-0.4,0.1-0.8,0.2-1.2
	c0.1-0.3,0.1-0.7,0.2-1.1c0.1-0.5,0.2-0.9,0.3-1.3c0.1-0.4,0.1-0.8,0.2-1.3c0.1-0.4,0.2-0.8,0.3-1.3s0.1-0.9,0.2-1.3
	c0.1-0.5,0.2-0.9,0.3-1.4s0.1-1,0.2-1.5c0.1-0.5,0.1-0.9,0.2-1.4c0.1-0.5,0.1-1,0.2-1.5c0.1-0.5,0.1-0.9,0.2-1.4
	c0.1-0.5,0.1-1,0.1-1.5c0.1-0.5,0.1-1,0.2-1.5c0-0.5,0-1,0.1-1.5c0-0.5,0-0.9,0.1-1.4c0-0.5,0-1,0-1.5s0-0.9,0-1.4s0-0.9,0-1.4
	s0-0.9,0-1.4c-0.1-0.4-0.1-0.8-0.2-1.3c0-0.4,0-0.8-0.1-1.3c-0.1-0.4-0.1-0.8-0.2-1.2c-0.1-0.4-0.2-0.8-0.3-1.2s-0.2-0.8-0.3-1.1
	c-0.1-0.4-0.2-0.8-0.3-1.1s-0.3-0.7-0.5-1c-0.1-0.3-0.3-0.6-0.5-0.9c-0.1-0.3-0.3-0.6-0.5-0.9c-0.2-0.2-0.4-0.4-0.7-0.7
	c-0.2-0.3-0.4-0.5-0.7-0.7c-0.2-0.2-0.4-0.4-0.7-0.5c-0.3-0.2-0.6-0.4-0.9-0.5c-0.3-0.1-0.6-0.3-0.9-0.4c-0.3-0.1-0.7-0.1-1-0.2
	c-0.4-0.1-0.8-0.1-1.1-0.2c-0.4,0-0.8,0-1.2,0s-0.8,0-1.1,0.1c-0.4,0.1-0.8,0.2-1.1,0.3s-0.6,0.3-0.9,0.4c-0.3,0.1-0.6,0.3-0.9,0.5
	c-0.3,0.2-0.5,0.4-0.8,0.7s-0.5,0.5-0.8,0.8c-0.2,0.3-0.4,0.5-0.6,0.8c-0.3,0.3-0.5,0.7-0.7,1c-0.2,0.4-0.4,0.8-0.5,1.1
	c-0.2,0.4-0.4,0.8-0.5,1.2c-0.2,0.4-0.4,0.8-0.5,1.2c-0.1,0.5-0.3,0.9-0.4,1.3c-0.1,0.5-0.3,0.9-0.4,1.4c-0.1,0.5-0.2,0.9-0.3,1.4
	s-0.2,1-0.3,1.5s-0.1,1-0.2,1.5c-0.1,0.5-0.1,1.1-0.2,1.6c-0.1,0.5-0.1,1.1-0.2,1.6c0,0.5,0,1.1-0.1,1.6c0,0.5,0,1.1-0.1,1.6
	c0,0.5,0,1.1-0.1,1.6c0,0.6,0,1.2,0,1.7s0,1.1,0,1.6s0,1.1,0,1.6s0,1.1,0,1.6s0,1,0,1.5s0,1,0,1.5s0,1,0.1,1.5c0,0.5,0,0.9,0,1.4
	s0,0.9,0.1,1.3c0,0.5,0,0.9,0,1.3c0,0.4,0,0.8,0.1,1.2c0,0.4,0,0.8,0,1.2c0,0.3,0,0.7,0,1c0.1,0.3,0.1,0.6,0.1,0.9
	c0,0.3,0,0.6,0,0.9c0,0.2,0,0.4,0,0.7c0,0.2,0,0.4,0,0.6c0,0.2,0,0.4-0.1,0.5c0,0.1,0,0.2,0,0.3s0,0.2-0.1,0.2
	c-0.1,0.1-0.2,0.1-0.3,0.2c-0.1,0.1-0.3,0.1-0.5,0.1c-0.2,0.1-0.4,0.1-0.7,0.2c-0.3,0-0.7,0-1,0.1c-0.4,0.1-0.8,0.1-1.2,0.1
	c-0.4,0.1-0.8,0.1-1.3,0.1c-0.5,0.1-1,0.1-1.5,0.1c-0.5,0.1-1,0.1-1.5,0.1c-0.6,0.1-1.2,0.1-1.7,0.1c-0.6,0.1-1.2,0.1-1.8,0.1
	c-0.5,0-1.1,0-1.7,0.1c-0.6,0-1.2,0-1.8,0s-1.2,0-1.8,0c-0.5,0.1-1.1,0.1-1.7,0.1c-0.5,0-1.1,0-1.7,0c-0.5-0.1-1-0.1-1.5-0.1
	s-1,0-1.5,0c-0.4,0-0.8,0-1.3-0.1c-0.4,0-0.8,0-1.1-0.1c-0.3,0-0.7,0-1-0.1c-0.2,0-0.4,0-0.7-0.1C541,701.4,540.8,701.3,540.6,701.3
	z"/>
<path d="M667.8,691.4c-0.1-0.3-0.3,0-0.6,0.9c-0.1,0.3-0.4,0.5-0.7,0.8c-0.3,0.2-0.5,0.4-0.7,0.7s-0.4,0.5-0.7,0.7
	c-0.3,0.3-0.5,0.5-0.7,0.7c-0.3,0.3-0.5,0.5-0.8,0.7s-0.5,0.4-0.7,0.6c-0.3,0.2-0.5,0.4-0.8,0.6c-0.3,0.1-0.5,0.3-0.8,0.5
	s-0.5,0.4-0.8,0.5s-0.5,0.3-0.8,0.5c-0.3,0.1-0.5,0.3-0.8,0.4c-0.3,0.1-0.6,0.3-0.9,0.4c-0.3,0.1-0.5,0.2-0.8,0.3s-0.6,0.3-0.9,0.4
	c-0.3,0.1-0.5,0.1-0.8,0.2c-0.3,0.1-0.6,0.2-0.9,0.3c-0.3,0.1-0.6,0.1-0.9,0.2c-0.3,0.1-0.5,0.1-0.8,0.2c-0.3,0.1-0.6,0.1-0.9,0.1
	c-0.3,0.1-0.6,0.1-0.9,0.1c-0.3,0.1-0.6,0.1-0.9,0.1c-0.3,0-0.6,0-0.9,0c-0.3,0.1-0.6,0.1-0.9,0c-0.3,0-0.5,0-0.8,0s-0.6,0-0.9,0
	c-0.3-0.1-0.6-0.1-0.9-0.1c-0.3-0.1-0.6-0.1-0.9-0.2c-0.3,0-0.6,0-0.9-0.1c-0.3-0.1-0.6-0.1-0.9-0.2c-0.3-0.1-0.5-0.1-0.8-0.2
	c-0.3-0.1-0.6-0.2-0.9-0.3c-0.3-0.1-0.6-0.2-0.9-0.3c-0.3-0.1-0.5-0.2-0.8-0.3s-0.6-0.3-0.9-0.4c-0.3-0.1-0.5-0.3-0.8-0.4
	c-0.3-0.1-0.5-0.3-0.8-0.4c-0.3-0.1-0.5-0.3-0.8-0.4c-0.3-0.2-0.5-0.4-0.8-0.5c-0.3-0.2-0.5-0.4-0.8-0.5c-0.3-0.2-0.5-0.4-0.8-0.6
	c-0.3-0.1-0.5-0.3-0.8-0.5s-0.5-0.4-0.7-0.6c-0.3-0.2-0.5-0.4-0.8-0.6c-0.2-0.3-0.4-0.5-0.7-0.7s-0.5-0.4-0.7-0.7
	c-0.2-0.2-0.4-0.4-0.7-0.7c-0.2-0.3-0.4-0.5-0.7-0.8c-0.2-0.2-0.4-0.4-0.6-0.7c-0.2-0.3-0.4-0.5-0.6-0.8c-0.2-0.3-0.4-0.6-0.6-0.9
	c-0.2-0.3-0.4-0.5-0.6-0.8c-0.2-0.3-0.4-0.6-0.6-0.9c-0.1-0.3-0.3-0.6-0.5-0.9c-0.2-0.3-0.4-0.7-0.5-1c-0.2-0.3-0.4-0.6-0.5-0.9
	c-0.1-0.3-0.3-0.7-0.5-1c-0.1-0.3-0.3-0.7-0.4-1c-0.1-0.4-0.3-0.8-0.4-1.1c-0.1-0.3-0.3-0.7-0.4-1.1c-0.1-0.3-0.2-0.7-0.3-1.1
	c-0.1-0.3-0.3-0.7-0.4-1.1c-0.1-0.4-0.1-0.8-0.2-1.1c-0.1-0.4-0.2-0.8-0.3-1.2s-0.1-0.8-0.2-1.2c-0.1-0.4-0.1-0.8-0.2-1.2
	c-0.1-0.5-0.1-0.9-0.2-1.3c0-0.4,0-0.8-0.1-1.3c0-0.4,0-0.8-0.1-1.3c0-0.4,0-0.8,0-1.3s0-0.9,0-1.3c0-0.5,0-0.9,0-1.4s0-0.9,0.1-1.4
	c0-0.5,0-0.9,0.1-1.4c0-0.5,0-1,0.1-1.5s0.1-0.9,0.2-1.4c0.1-0.5,0.1-1,0.2-1.5c0.1-0.6,0.3-1.2,0.4-1.7c0.1-0.5,0.2-1.1,0.3-1.6
	s0.3-1,0.4-1.5c0.1-0.5,0.3-1,0.5-1.5c0.1-0.5,0.3-1,0.5-1.5c0.1-0.5,0.3-0.9,0.5-1.4s0.4-0.9,0.6-1.3c0.2-0.5,0.4-0.9,0.6-1.3
	c0.2-0.5,0.4-0.9,0.7-1.3c0.2-0.4,0.4-0.8,0.7-1.2c0.2-0.4,0.4-0.8,0.7-1.1c0.3-0.4,0.5-0.8,0.8-1.1c0.3-0.4,0.5-0.8,0.8-1.1
	s0.5-0.7,0.8-1s0.5-0.7,0.8-1s0.6-0.6,0.9-0.9c0.3-0.3,0.6-0.5,0.9-0.8c0.3-0.3,0.7-0.5,1-0.8s0.6-0.5,0.9-0.8
	c0.3-0.3,0.7-0.5,1-0.7c0.3-0.3,0.7-0.5,1-0.7s0.7-0.4,1-0.6c0.3-0.2,0.7-0.4,1-0.6c0.4-0.2,0.8-0.4,1.1-0.5
	c0.3-0.2,0.7-0.4,1.1-0.5c0.3-0.1,0.7-0.3,1-0.5c0.4-0.1,0.8-0.3,1.1-0.4c0.4-0.1,0.8-0.2,1.1-0.3c0.4-0.1,0.8-0.2,1.1-0.3
	c0.4-0.1,0.8-0.2,1.1-0.3c0.4-0.1,0.8-0.1,1.1-0.2c0.4-0.1,0.8-0.1,1.1-0.2c0.4-0.1,0.8-0.1,1.2-0.1c0.3-0.1,0.7-0.1,1.1-0.1
	c0.3-0.1,0.7-0.1,1.1-0.1c0.4,0,0.8,0,1.1,0c0.4,0,0.8,0,1.1,0c0.4,0,0.8,0,1.1,0.1c0.4,0,0.8,0,1.1,0.1c0.4,0,0.8,0,1.1,0.1
	c0.4,0.1,0.8,0.1,1.1,0.2c0.3,0.1,0.7,0.1,1.1,0.2c0.3,0.1,0.7,0.2,1,0.3c0.4,0.1,0.8,0.2,1.1,0.3s0.7,0.3,1,0.4
	c0.3,0.1,0.7,0.2,1,0.3s0.7,0.3,1,0.4c0.3,0.2,0.7,0.4,1,0.5s0.6,0.3,0.9,0.5c0.3,0.2,0.6,0.4,0.9,0.5c0.3,0.2,0.6,0.4,0.9,0.6
	c0.3,0.2,0.6,0.4,0.9,0.6c0.4,0.1,0.7,0.3,0.8,0.6c0.5,0.7,0.7,1,0.8,0.7c0.3-0.5,0.4-1.2,0.3-2.1c-0.1-0.6,0-1.2,0.2-1.8
	c0.1-0.4,0.2-0.8,0.3-1.3c0-0.3,0.1-0.5,0.3-0.6c0.1-0.1,0.2-0.1,0.4-0.2c0.2-0.1,0.4-0.1,0.7-0.1c0.3-0.1,0.7-0.1,1-0.1
	c0.4-0.1,0.8-0.1,1.2-0.1c0.5,0,0.9,0,1.4,0s1.1,0,1.6,0s1.1,0,1.7,0c0.5,0,1.1,0,1.7,0s1.2,0,1.8,0.1c0.6,0,1.2,0,1.9,0.1
	c0.5,0,1.1,0,1.7,0.1c0.6,0.1,1.2,0.1,1.7,0.2c0.5,0.1,1.1,0.1,1.6,0.2c0.5,0.1,0.9,0.1,1.4,0.2c0.4,0.1,0.8,0.1,1.2,0.2
	c0.3,0.1,0.7,0.2,1,0.3s0.5,0.1,0.7,0.2c0.1,0.1,0.3,0.3,0.4,0.4l0.1,0.1c0,0.1,0,0.2,0,0.3s0,0.3,0,0.4c0,0.2,0,0.4,0,0.6
	c0,0.2,0,0.4,0,0.6c0,0.3,0,0.5,0,0.7c0,0.3,0,0.6,0,0.9c0,0.3,0,0.6-0.1,0.9c0,0.4,0,0.8,0,1.1c-0.1,0.4-0.1,0.8-0.1,1.1
	c0,0.5,0,0.9-0.1,1.3c0,0.4,0,0.8,0,1.3c-0.1,0.5-0.1,0.9-0.1,1.4s0,1-0.1,1.5c0,0.5,0,1.1,0,1.6c-0.1,0.5-0.1,1.1-0.1,1.6
	c0,0.6,0,1.2-0.1,1.8c0,0.6,0,1.2,0,1.7c-0.1,0.7-0.1,1.3-0.1,1.9c0,0.7,0,1.3,0,1.9c0,0.7,0,1.3-0.1,2c0,0.7,0,1.3,0,2s0,1.4,0,2.1
	c0,0.8,0,1.6,0,2.3s0,1.5,0,2.2c0.1,0.7,0.1,1.4,0.1,2.1c0,0.7,0,1.4,0,2.1c0,0.7,0,1.3,0.1,2c0,0.7,0,1.3,0,2
	c0.1,0.7,0.1,1.3,0.1,1.9s0,1.2,0.1,1.9c0,0.6,0,1.2,0.1,1.7c0,0.6,0,1.2,0,1.8c0.1,0.5,0.1,1.1,0.1,1.6c0.1,0.5,0.1,1.1,0.1,1.6
	c0.1,0.5,0.1,1,0.1,1.5c0.1,0.5,0.1,1,0.1,1.5c0.1,0.5,0.1,0.9,0.1,1.4c0.1,0.4,0.1,0.8,0.1,1.3c0,0.4,0,0.8,0.1,1.2
	c0,0.4,0,0.8,0.1,1.2c0,0.4,0,0.8,0,1.1c0.1,0.3,0.1,0.7,0.1,1.1c0,0.3,0,0.6,0.1,0.9c0,0.3,0,0.6,0,0.9s0,0.5,0.1,0.8
	c0,0.3,0,0.5,0,0.8c0,0.2,0,0.4,0,0.6c0,0.2,0,0.4,0,0.6c0,0.2,0,0.4,0,0.5s0,0.3,0,0.5c0,0.1,0,0.2-0.1,0.3c0,0.1,0,0.2,0,0.3
	c-0.1,0.1-0.1,0.1-0.1,0.2c0,0.1,0,0.1-0.1,0.1c-0.1,0.1-0.3,0.1-0.4,0.2c-0.3,0.1-0.5,0.1-0.7,0.1c-0.3,0.1-0.7,0.1-1,0.2
	c-0.3,0-0.7,0-1.1,0.1c-0.5,0-0.9,0-1.3,0c-0.5,0.1-1,0.1-1.5,0.1s-1.1,0-1.6,0s-1.1,0-1.7,0c-0.5,0-1.1,0-1.7,0s-1.2,0-1.8,0
	s-1.2,0-1.8,0c-0.5,0-1.1,0-1.7-0.1c-0.6,0-1.2,0-1.7-0.1c-0.6,0-1.2,0-1.7,0c-0.5-0.1-1-0.1-1.5-0.1c-0.5-0.1-0.9-0.1-1.4-0.1
	c-0.4-0.1-0.8-0.1-1.2-0.1c-0.3-0.1-0.7-0.1-1-0.2c-0.3,0-0.5,0-0.8-0.1c-0.2-0.1-0.4-0.1-0.6-0.1c-0.1-0.1-0.2-0.1-0.3-0.2
	c-0.2-0.2-0.3-0.4-0.4-0.7c-0.1-0.3-0.2-0.5-0.3-0.8c-0.1-0.4-0.2-0.8-0.2-1.1c-0.1-0.5-0.1-0.9-0.1-1.3c0.1-0.5,0.1-1,0.1-1.5
	c-0.1-0.5-0.1-1.1,0-1.6C667.9,692.4,668,691.8,667.8,691.4z M658.4,653c-0.4-0.1-0.8-0.1-1.3-0.1s-0.9,0-1.3,0
	c-0.5,0.1-0.9,0.2-1.3,0.3c-0.4,0.1-0.8,0.3-1.2,0.4c-0.4,0.2-0.8,0.4-1.1,0.7c-0.4,0.2-0.8,0.4-1.1,0.7s-0.6,0.6-0.9,0.9
	c-0.3,0.3-0.6,0.7-0.9,1c-0.3,0.3-0.5,0.7-0.8,1.1c-0.2,0.3-0.4,0.7-0.6,1.1c-0.2,0.5-0.4,0.9-0.6,1.3c-0.1,0.4-0.3,0.8-0.4,1.3
	c-0.1,0.4-0.1,0.8-0.2,1.3c-0.1,0.5-0.1,0.9-0.1,1.4c0,0.4,0,0.8,0,1.3c0.1,0.5,0.2,0.9,0.3,1.3c0.1,0.4,0.3,0.8,0.4,1.2
	c0.1,0.5,0.3,0.9,0.5,1.2c0.3,0.4,0.5,0.8,0.7,1.1c0.3,0.4,0.5,0.8,0.8,1.1s0.6,0.6,0.9,0.9c0.3,0.3,0.7,0.5,1,0.8s0.7,0.5,1,0.7
	c0.3,0.3,0.7,0.5,1.1,0.6c0.4,0.1,0.8,0.3,1.1,0.4c0.4,0.1,0.8,0.2,1.2,0.3s0.8,0.1,1.2,0.1s0.8,0,1.2-0.1c0.5-0.1,0.9-0.2,1.4-0.3
	s0.9-0.3,1.4-0.5c0.5-0.1,0.9-0.3,1.3-0.5c0.4-0.3,0.8-0.5,1.2-0.8c0.4-0.2,0.8-0.5,1.1-0.8s0.7-0.6,1-0.9c0.3-0.3,0.6-0.7,0.9-1.1
	c0.3-0.3,0.5-0.7,0.7-1.1c0.2-0.4,0.4-0.8,0.6-1.2c0.2-0.5,0.4-0.9,0.5-1.3c0.1-0.5,0.1-0.9,0.2-1.4c0.1-0.5,0.1-0.9,0.2-1.4
	c0-0.5,0-1-0.1-1.5s-0.1-0.9-0.2-1.3c-0.1-0.5-0.3-0.9-0.4-1.3c-0.2-0.4-0.4-0.8-0.6-1.2c-0.2-0.3-0.4-0.7-0.7-1.1
	c-0.3-0.3-0.6-0.6-0.9-0.9c-0.3-0.3-0.6-0.6-0.9-0.9c-0.4-0.3-0.8-0.6-1.1-0.8c-0.4-0.3-0.8-0.5-1.2-0.7s-0.8-0.4-1.3-0.6
	c-0.4-0.1-0.8-0.3-1.3-0.4C659.3,653.1,658.8,653,658.4,653z"/>
</svg>
