<?xml version="1.0" encoding="utf-8"?>
<!-- Generator: Adobe Illustrator 18.0.0, SVG Export Plug-In . SVG Version: 6.00 Build 0)  -->
<!DOCTYPE svg PUBLIC "-//W3C//DTD SVG 1.1//EN" "http://www.w3.org/Graphics/SVG/1.1/DTD/svg11.dtd">
<svg version="1.1" id="Camada_1" xmlns="http://www.w3.org/2000/svg" xmlns:xlink="http://www.w3.org/1999/xlink" x="0px" y="0px"
	 viewBox="0 0 1024 768" enable-background="new 0 0 1024 768" xml:space="preserve">
<image overflow="visible" width="1500" height="1500" xlink:href="../../../Desenhos Jogo Yegatu/png2/rapu.png"  transform="matrix(0.5027 0 0 0.5027 128 -100)">
</image>
<g enable-background="new    ">
	<path d="M510,744.6L510,744.6c-0.2-0.2-0.2-0.2-0.3-0.3c-0.1-0.1-0.1-0.2-0.1-0.3c-0.2-0.2-0.3-0.5-0.3-0.8
		c-0.1-0.1-0.1-0.3-0.2-0.4c0-0.2,0-0.4-0.1-0.5c-0.1-0.4-0.1-0.8-0.2-1.2c-0.1-0.3-0.1-0.5-0.1-0.7c-0.1-0.3-0.1-0.5-0.1-0.8
		c-0.1-0.2-0.1-0.4-0.1-0.7c-0.1-0.3-0.1-0.6-0.1-0.9c-0.1-0.6-0.1-1.2-0.2-1.8c0-0.3,0-0.7,0-1c-0.1-0.3-0.1-0.7-0.1-1
		c-0.1-0.7-0.1-1.5-0.1-2.2c-0.1-0.8-0.1-1.5-0.1-2.3c-0.2-1.3,0-2.5-0.2-3.8c0-1.8,0.2-3.8-0.1-5.6c0-4.1,0-8.2,0-12.4
		c0.3-2.8-0.1-5.6,0.2-8.4c0-1.7,0-3.5,0-5.2c0.2-1.7,0-3.5,0.2-5.2c0-1.2,0-2.4,0.1-3.6c0-1.2,0-2.3,0.1-3.5c0-1.2,0-2.3,0.1-3.5
		c0-1.2,0-2.5,0-3.7c0.2-2.2,0.2-4.7,0-7c0-1.6,0.1-3.3-0.1-5c0-1.1,0-2.1-0.1-3.2c0-0.5,0-1,0-1.5c-0.1-1-0.1-2-0.2-3
		c0-0.5,0-1-0.1-1.5c0-0.5,0-0.9,0-1.4c-0.1-0.5-0.1-0.9-0.1-1.4c-0.1-0.9-0.1-1.8-0.2-2.7c0-0.4,0-0.8-0.1-1.3c0-0.4,0-0.8,0-1.2
		c-0.1-0.4-0.1-0.8-0.1-1.2c-0.1-0.8-0.1-1.5-0.2-2.3c0-0.4,0-0.8,0-1.1c-0.2-1,0-2-0.2-3c0-1.6-0.4-3.9,0.1-5.5c0-0.2,0-0.4,0-0.6
		c0.1-0.3,0.1-0.7,0.2-1c0.2-0.4,0.4-0.7,0.8-0.9c0.3-0.1,0.5-0.3,0.8-0.4c0.8-0.2,1.5-0.4,2.3-0.6c1.5-0.2,3-0.5,4.6-0.5
		c0.6-0.1,1.2-0.1,1.7-0.2c0.6,0,1.2,0,1.8,0c1.8-0.2,3.6-0.1,5.4-0.1c1.1,0.1,2.2,0.1,3.3,0.2c0.5,0,1,0,1.5,0.1
		c0.8,0.1,1.7,0.1,2.5,0.2c0.3,0.1,0.6,0.1,0.9,0.2c0.2,0.1,0.4,0.1,0.7,0.2c0.1,0.1,0.3,0.1,0.4,0.2c0.3,0.2,0.6,0.4,0.8,0.7
		c0.2,0.2,0.3,0.4,0.4,0.7c0,0.3,0,0.6-0.1,0.9c0.1,0.5,0,1-0.1,1.5c-0.4,1-0.5,1.8-0.2,2.5c0.1,0.3,0.4,0,1.1-0.8
		c0.3-0.3,0.6-0.5,1.1-0.7c0.3-0.2,0.7-0.4,1.1-0.7c0.3-0.3,0.7-0.5,1.1-0.6c0.3-0.2,0.7-0.4,1.1-0.6c0.3-0.2,0.7-0.4,1.1-0.6
		c0.3-0.1,0.7-0.3,1.1-0.5c0.8-0.2,1.5-0.5,2.2-0.9c0.8-0.2,1.5-0.4,2.2-0.7c0.4-0.1,0.8-0.2,1.1-0.3c1.4-0.2,2.9-0.7,4.4-0.7
		c0.4-0.1,0.8-0.1,1.1-0.1c1-0.2,2.2-0.1,3.2-0.1c0.9,0.2,2.1,0.3,3.1,0.3c1,0.2,2.1,0.3,3.1,0.7c0.3,0.1,0.6,0.2,0.9,0.3
		c0.7,0.2,1.3,0.4,2,0.6c0.6,0.2,1.2,0.5,1.8,0.9c0.3,0.1,0.6,0.3,0.9,0.4c0.3,0.2,0.6,0.4,0.9,0.5c0.3,0.2,0.6,0.4,0.9,0.6
		c0.9,0.4,1.8,1.1,2.5,1.8c0.3,0.2,0.5,0.4,0.8,0.6c0.3,0.3,0.5,0.5,0.8,0.7c0.3,0.3,0.5,0.5,0.8,0.7c0.3,0.3,0.5,0.5,0.7,0.8
		c0.3,0.3,0.5,0.5,0.7,0.8c0.3,0.3,0.5,0.5,0.7,0.8c0.3,0.3,0.5,0.6,0.7,0.9c0.4,0.6,0.8,1.2,1.3,1.8c0.2,0.3,0.4,0.6,0.6,0.9
		c0.3,0.7,0.7,1.4,1.1,2c0.1,0.3,0.3,0.7,0.5,1c0.1,0.4,0.3,0.8,0.4,1.1c0.9,1.6,1.7,3.9,2,5.7c0.1,0.4,0.2,0.8,0.3,1.2
		c0.5,1.7,0.6,3.5,0.9,5.2c0,0.5,0,0.9,0.1,1.3c0,0.5,0,0.9,0.1,1.4c0,2,0,3.9,0,5.9c-0.1,0.5-0.1,1.1-0.2,1.6c0,1-0.1,2-0.3,3
		c-0.4,1.4-0.7,2.9-0.9,4.3c-0.2,0.9-0.5,1.8-0.8,2.7c-0.5,1.2-1.1,2.5-1.5,3.8c-0.4,0.8-0.8,1.5-1.2,2.3c-0.2,0.4-0.4,0.8-0.6,1.1
		c-0.7,1-1.5,2-2.1,3.1c-0.3,0.3-0.5,0.7-0.8,1c-0.3,0.3-0.5,0.6-0.8,0.9c-0.2,0.3-0.5,0.6-0.8,0.9c-0.5,0.5-1.1,1.1-1.6,1.6
		c-1.2,1-2.3,2-3.7,2.8c-0.9,0.6-1.9,1.3-2.9,1.7c-0.3,0.2-0.7,0.4-1,0.5c-0.9,0.6-2,0.9-3,1.3c-0.3,0.1-0.7,0.2-1.1,0.3
		c-0.3,0.1-0.7,0.2-1,0.3c-0.3,0.1-0.7,0.1-1.1,0.2c-0.3,0.1-0.7,0.2-1,0.3c-0.7,0-1.5,0.1-2.2,0.3c-0.3,0-0.7,0-1,0.1
		c-1.4,0-2.9,0.2-4.3-0.1c-0.7-0.1-1.5-0.1-2.2-0.2c-0.3-0.1-0.7-0.1-1-0.2c-0.7-0.2-1.4-0.4-2.1-0.6c-0.3-0.1-0.7-0.2-1-0.3
		c-1-0.2-2.2-0.7-3.1-1.2c-0.3-0.1-0.7-0.3-1-0.5c-0.6-0.3-1.3-0.7-1.9-1.1c-0.4-0.1-0.7-0.3-0.9-0.6c-1-1-1.2-0.8-0.8,0.6
		c0.4,2.2,0.5,4.8,0.5,7.1c0.1,0.5,0.1,1.1,0.1,1.6c0.1,0.5,0.1,1,0.1,1.5c0.1,0.5,0.1,1.1,0.1,1.6c0.1,0.5,0.1,1.1,0.1,1.6
		c0.1,0.5,0.1,1.1,0.1,1.6c0.1,0.5,0.1,1.1,0.1,1.6c0.1,1.1,0.1,2.1,0.2,3.2c0,0.5,0,1.1,0.1,1.6c0,0.5,0,1.1,0,1.6
		c0.1,1.1,0.1,2.1,0.2,3.2c0,1,0,2,0,3c0.3,2.2,0.1,4.6,0.1,6.9c-0.1,0.8-0.1,1.6-0.1,2.4c-0.1,0.7-0.1,1.4-0.2,2.1
		c0,0.3,0,0.7-0.1,1c0,0.3,0,0.6-0.1,0.9c0,0.3,0,0.5-0.1,0.8c-0.1,0.2-0.1,0.4-0.2,0.7c0,0.2,0,0.4-0.1,0.6
		c-0.1,0.1-0.1,0.3-0.2,0.5c-0.1,0.3-0.3,0.5-0.5,0.7c-0.1,0.1-0.1,0.1-0.2,0.2c-1.6,1-4,1.7-5.9,2c-0.5,0.1-0.9,0.2-1.4,0.3
		c-1.8,0.5-3.8,0.6-5.7,0.9c-0.5,0-1,0-1.5,0.1c-0.5,0-0.9,0-1.4,0.1c-1.4,0-2.7,0.1-4.1-0.1c-0.8,0-1.7-0.1-2.5-0.3
		c-0.4,0-0.8-0.1-1.1-0.2c-0.3-0.1-0.7-0.1-1.1-0.2c-0.3-0.1-0.6-0.2-0.9-0.3C511.1,745.2,510.5,744.9,510,744.6z M548.4,675.2
		c0.4,0.1,0.8,0.2,1.3,0.2c1.7,0.3,3.4-0.6,4.8-1.4c0.8-0.5,1.4-1,2-1.7c0.3-0.3,0.6-0.7,0.9-1c0.4-0.7,0.8-1.5,1.2-2.2
		c0.1-0.4,0.2-0.8,0.3-1.2c0.1-0.4,0.2-0.8,0.2-1.2c0.1-0.4,0.1-0.8,0-1.3c0-0.9-0.1-1.8-0.4-2.7c-0.1-0.5-0.2-0.9-0.4-1.4
		c-0.1-0.5-0.3-0.9-0.6-1.3c-0.6-1.2-1.5-2.4-2.6-3.1c-0.3-0.3-0.7-0.5-1.1-0.7c-0.5-0.1-0.9-0.2-1.4-0.3c-2.2-0.6-4.9,0.2-6.8,1.4
		c-1.6,0.9-2.6,2.2-3.7,3.6c-0.2,0.3-0.4,0.7-0.6,1.1c-0.7,1.7-1,3.4-0.7,5.3c0.2,0.9,0.5,1.8,1,2.7c0.2,0.4,0.4,0.8,0.7,1.2
		c0.5,0.7,1.1,1.4,1.8,1.9c0.6,0.5,1.3,0.9,2,1.3C547,674.8,547.7,675,548.4,675.2C548.8,675.4,548.1,675.2,548.4,675.2z"/>
	<path d="M652.9,629.1c0.2,0.1,0.3,0.3,0.3,0.5c0.1,0.1,0.1,0.3,0.2,0.4c0,0.5,0.2,1.4,0.3,1.9c0,0.3,0,0.5,0,0.8
		c0.1,0.6,0.1,1.3,0.1,1.9c0.5,2.8,0.3,6.4,0,9.2c0,1.6,0,3.2,0,4.8c-0.3,2.2-0.1,4.5-0.1,6.8c-0.4,3.5-0.1,7.2-0.1,10.7
		c0.1,1.2,0.1,2.4,0.1,3.6c0.1,1.2,0.1,2.4,0.2,3.6c0,0.5,0,1.1,0.1,1.7c0.1,1.2,0.1,2.3,0.2,3.5c0.1,0.6,0.1,1.2,0.2,1.7
		c0.1,1.1,0.1,2.2,0.2,3.3c0.1,0.5,0.1,1.1,0.2,1.6c0.1,1,0.1,2,0.2,3c0.1,0.5,0.1,0.9,0.1,1.4c0.1,0.5,0.1,0.9,0.2,1.4
		c0,0.4,0,0.8,0.1,1.3c0,0.4,0,0.8,0.1,1.2c0,0.4,0,0.8,0,1.1c0.1,0.7,0.1,1.4,0.2,2.1c0,0.9,0.2,2-0.1,2.9c0,0.2,0,0.4,0,0.5
		c-0.1,0.1-0.1,0.3-0.1,0.4c-0.1,0.1-0.1,0.1-0.2,0.2c0,0.1-0.1,0.1-0.2,0.1c-0.1,0.1-0.3,0.1-0.4,0.1c-0.6,0.1-1.1,0.2-1.7,0.2
		c-0.4,0-0.8,0-1.1,0c-1,0.1-1.9,0.1-2.9,0.1c-3.7,0.5-8.2,0.5-12,0c-1,0-2.1,0-3.1-0.1c-0.5,0-0.9,0-1.4,0
		c-0.4-0.1-0.8-0.1-1.2-0.1c-0.3-0.1-0.7-0.1-1-0.1c-0.3-0.1-0.5-0.1-0.8-0.2c-0.1,0-0.3,0-0.5-0.1c-0.3-0.1-0.6-0.3-0.9-0.4
		c-0.4-0.2-0.7-0.6-0.8-1.1c-0.1-0.5-0.2-1-0.1-1.5c0.1-0.9,0.2-1.7,0.1-2.5c-0.1-0.3-0.3,0-0.6,0.7c-0.1,0.2-0.3,0.4-0.6,0.7
		c-0.2,0.2-0.4,0.4-0.7,0.6c-0.7,0.7-1.5,1.2-2.3,1.8c-0.3,0.1-0.6,0.3-0.9,0.5c-0.3,0.1-0.6,0.3-0.9,0.4c-0.6,0.4-1.3,0.6-2,0.8
		c-0.3,0.1-0.7,0.3-1,0.4c-0.4,0.1-0.8,0.2-1.1,0.3c-1.1,0.2-2.3,0.4-3.4,0.6c-0.3,0-0.7,0-1.1,0.1c-1.2,0-2.4,0.1-3.6-0.1
		c-1.2,0-2.5-0.3-3.7-0.5c-0.4-0.1-0.8-0.2-1.2-0.3c-0.8-0.3-1.6-0.5-2.4-0.8c-0.4-0.2-0.8-0.4-1.2-0.5c-0.4-0.2-0.8-0.4-1.1-0.6
		c-0.8-0.4-1.6-0.8-2.3-1.3c-0.4-0.3-0.8-0.5-1.1-0.8c-0.4-0.3-0.8-0.5-1.1-0.8c-1-1-2.1-1.9-3.1-3c-0.6-0.7-1.2-1.5-1.8-2.3
		c-0.5-0.9-1-1.8-1.6-2.7c-0.3-0.5-0.5-0.9-0.7-1.4c-0.8-1.3-1.3-2.8-1.9-4.2c-0.1-0.5-0.3-1-0.5-1.5c-0.1-0.5-0.3-1-0.4-1.5
		c-0.4-0.9-0.7-1.9-0.8-2.9c-0.1-0.5-0.3-1.1-0.4-1.6c-0.1-0.5-0.2-1-0.3-1.5c-0.3-2-0.5-4.1-0.8-6.1c0-0.5,0-1-0.1-1.5
		c0-0.5,0-1-0.1-1.5c0-1,0-2.1,0-3.1c-0.1-0.5-0.1-1,0-1.5c0-1,0-2,0-3c0.1-0.5,0.1-0.9,0.1-1.4c0.1-0.5,0.1-1,0.1-1.5
		c0.1-0.5,0.1-0.9,0.2-1.4c0-3,0.8-6.2,1.3-9.2c0.2-0.8,0.4-1.6,0.5-2.4c0.2-0.7,0.4-1.4,0.6-2.1c0.1-0.3,0.2-0.7,0.3-1.1
		c0.1-0.3,0.1-0.6,0.2-0.9c0.1-0.3,0.2-0.7,0.3-1c0.2-0.6,0.4-1.1,0.6-1.7c0.1-0.2,0.2-0.4,0.3-0.7c0.1-0.3,0.2-0.5,0.3-0.7
		c0.1-0.3,0.1-0.5,0.2-0.7c0.1-0.2,0.2-0.4,0.3-0.6c0.1-0.1,0.2-0.3,0.3-0.5c0.1-0.1,0.1-0.3,0.2-0.5c0.1-0.1,0.2-0.3,0.3-0.4
		c0.1-0.1,0.1-0.2,0.2-0.3c0.1-0.1,0.4-0.5,0.6-0.5c1-0.3,2-0.4,3.1-0.6c0.5,0,0.9,0,1.4-0.1c0.5,0,1.1,0,1.6-0.1
		c0.5,0,1.1,0,1.6-0.1c2.1,0,4.4-0.2,6.5,0.1c0.5,0,0.9,0,1.4,0c0.4,0.1,0.8,0.1,1.1,0.1c0.3,0.1,0.7,0.1,1,0.2c0.3,0,0.5,0,0.7,0.1
		c0.1,0.1,0.3,0.1,0.4,0.2c0,0.6,0.1,1.3-0.1,1.9c0,0.3,0,0.5-0.1,0.7c0,0.3,0,0.5-0.1,0.8c0,0.3,0,0.6-0.1,0.9
		c-0.1,0.7-0.1,1.4-0.2,2.1c-0.2,0.8-0.3,1.5-0.3,2.3c-0.2,0.9-0.3,1.7-0.3,2.6c-0.1,0.5-0.1,0.9-0.2,1.4c-0.1,1-0.1,1.9-0.2,2.9
		c-0.1,0.5-0.1,1-0.2,1.5c0,0.5,0,1-0.1,1.5c0,0.5,0,1,0,1.5c-0.1,1-0.1,2.1-0.1,3.1c-0.1,1.1-0.1,2.1-0.1,3.2
		c0.1,1,0.1,2.1,0.2,3.1c0,0.5,0,1,0.1,1.5c0,1.4,0.2,2.9,0.6,4.3c0.1,0.5,0.1,0.9,0.2,1.4c0.5,1.6,0.8,3.5,1.7,4.9
		c0.5,1,1.1,2.2,1.9,3c0.4,0.6,1,1.1,1.6,1.5c0.9,0.7,1.9,1.1,2.9,1.5c0.8,0.1,1.6,0.3,2.4,0.4c0.3,0,0.7,0,1.1-0.1
		c0.3,0,0.7,0,1-0.1c0.6-0.2,1.3-0.5,1.9-0.8c0.9-0.6,1.7-1.2,2.4-2.1c0.3-0.3,0.5-0.7,0.7-1c0.3-0.3,0.5-0.7,0.7-1
		c0.2-0.4,0.4-0.8,0.6-1.2c0.4-1.3,1-2.5,1.4-3.8c0.2-0.5,0.4-1,0.5-1.5c0.2-1,0.4-2,0.7-3c0.1-0.5,0.2-1.1,0.3-1.6
		c0.1-1.1,0.3-2.1,0.5-3.2c0.2-1.1,0.3-2.3,0.3-3.4c0.2-1.1,0.3-2.2,0.3-3.3c0.1-0.5,0.1-1.1,0.1-1.7c0.1-0.5,0.1-1.1,0.1-1.6
		c0.1-1.1,0.1-2.1,0.2-3.2c0-1,0-2.1,0.1-3.1c0-1.8,0-3.5,0-5.3c0.3-1.6-0.2-3.2,0.2-4.8c0-0.4,0-0.7,0.1-1.1c0-0.1,0-0.3,0-0.4
		c0.1-0.1,0.1-0.1,0.1-0.2c0.1-0.1,0.2-0.1,0.3-0.2c0.3-0.1,0.5-0.1,0.7-0.1c0.7-0.2,1.4-0.3,2.1-0.4c1-0.1,1.9-0.1,2.9-0.2
		c0.5-0.1,1.1-0.1,1.7-0.1c1.2-0.1,2.3-0.1,3.5-0.2c1.7,0,3.4,0,5.1,0c1.3,0.2,2.8,0.3,4.1,0.3c0.3,0.1,0.6,0.1,0.9,0.2
		C652.5,629,652.7,629.1,652.9,629.1C653,629.2,652.7,629.1,652.9,629.1z"/>
</g>
<g>
	<path fill="#F1CC5A" d="M474.8,729.6H321.5c-12.8,0-23.2-10.4-23.2-23.2v-128c0-12.8,10.4-23.2,23.2-23.2h153.3
		c12.8,0,23.2,10.4,23.2,23.2v128C498,719.1,487.6,729.6,474.8,729.6z"/>
	<path fill="#FFEDBB" d="M463.4,714.7H332.9c-12.8,0-23.2-10.4-23.2-23.2v-97.9c0-12.8,10.4-23.2,23.2-23.2h130.6
		c12.8,0,23.2,10.4,23.2,23.2v97.9C486.6,704.3,476.2,714.7,463.4,714.7z"/>
</g>
</svg>
