<?xml version="1.0" encoding="utf-8"?>
<!-- Generator: Adobe Illustrator 18.0.0, SVG Export Plug-In . SVG Version: 6.00 Build 0)  -->
<!DOCTYPE svg PUBLIC "-//W3C//DTD SVG 1.1//EN" "http://www.w3.org/Graphics/SVG/1.1/DTD/svg11.dtd">
<svg version="1.1" id="Camada_1" xmlns="http://www.w3.org/2000/svg" xmlns:xlink="http://www.w3.org/1999/xlink" x="0px" y="0px"
	 viewBox="0 0 1024 768" enable-background="new 0 0 1024 768" xml:space="preserve">
<image overflow="visible" width="1500" height="1500" xlink:href="../../../Desenhos Jogo Yegatu/png2/resá.png"  transform="matrix(0.556 0 0 0.556 92.8584 -72)">
</image>
<g enable-background="new    ">
	<path d="M591.5,640.9c0.1,0.3,0.1,0.6,0,0.9c-0.1,0.7-0.2,1.5-0.3,2.2c-0.3,0.8-0.5,1.6-0.8,2.4c-0.7,1.7-1.5,3.5-2.5,5.1
		c-0.2,0.4-0.4,0.8-0.7,1.2c-0.2,0.3-0.4,0.7-0.7,1.1c-0.2,0.3-0.4,0.6-0.7,0.9c-0.2,0.3-0.4,0.5-0.7,0.8c-0.2,0.3-0.4,0.5-0.6,0.7
		c-0.4,0.3-0.7,0.5-1.1,0.7c-0.2,0-0.4,0-0.5,0c-0.1-0.1-0.2-0.2-0.3-0.3c-0.3-0.4-0.7-0.8-1-1.2c-0.8-1.1-2-2.3-3.1-3.2
		c-0.7-0.7-1.5-1.3-2.3-1.9c-1.1-0.9-2.3-1.8-3.6-2.4c-1.2-0.8-2.5-1.3-3.7-1.9c-0.4-0.1-0.8-0.3-1.3-0.5c-0.8-0.3-1.6-0.5-2.4-0.7
		c-1.1-0.4-2.3-0.5-3.5-0.7c-1,0-2.1-0.1-3.1,0.1c-0.6,0-1.2,0.1-1.8,0.4c-0.5,0.2-1,0.4-1.5,0.7c-0.3,0.1-0.5,0.3-0.7,0.4
		c-0.2,0.2-0.4,0.4-0.5,0.6c-0.2,0.2-0.4,0.4-0.5,0.6c-0.4,0.8-0.8,1.6-0.8,2.5c-0.2,0.9,0,1.7,0.2,2.6c0.4,0.7,0.8,1.3,1.5,1.8
		c0.5,0.3,1,0.6,1.6,0.9c0.3,0.1,0.7,0.2,1,0.3c0.3,0.1,0.7,0.2,1,0.3c1.2,0.4,2.4,0.4,3.6,0.8c0.9,0.2,1.9,0.3,2.8,0.3
		c0.9,0.1,1.9,0.3,2.8,0.4c1.5,0.4,3,0.4,4.5,0.8c0.5,0.1,1,0.2,1.5,0.3c1,0.2,1.9,0.4,2.9,0.7c1.4,0.6,2.8,1,4.2,1.6
		c0.5,0.3,0.9,0.5,1.3,0.7c0.5,0.3,0.9,0.5,1.3,0.7c0.4,0.3,0.8,0.5,1.1,0.8c0.4,0.3,0.8,0.6,1.2,0.9c0.3,0.3,0.7,0.5,1,0.8
		c0.6,0.7,1.2,1.3,1.8,1.9c0.6,0.6,1.1,1.3,1.6,2c0.5,0.7,0.9,1.4,1.3,2.2c0.2,0.3,0.4,0.7,0.6,1.1c0.1,0.4,0.3,0.8,0.4,1.1
		c0.2,0.4,0.4,0.8,0.5,1.2c0.1,0.4,0.2,0.8,0.3,1.2c0.1,0.4,0.2,0.8,0.3,1.1c0.2,0.8,0.3,1.6,0.3,2.4c0.2,1.2,0.2,2.5,0,3.7
		c0,1.2-0.2,2.5-0.6,3.6c-0.1,0.3-0.2,0.6-0.3,0.9c-0.1,0.3-0.2,0.7-0.3,1c-0.1,0.3-0.2,0.6-0.3,0.9c-0.3,0.6-0.6,1.1-0.9,1.7
		c-0.1,0.3-0.3,0.5-0.5,0.8c-0.1,0.3-0.3,0.5-0.5,0.7c-0.8,1.1-1.8,1.9-2.8,2.9c-0.5,0.4-1.1,0.8-1.7,1.2c-0.6,0.4-1.2,0.8-1.9,1.1
		c-0.3,0.2-0.7,0.4-1.1,0.5c-0.8,0.4-1.5,0.7-2.3,1c-1.3,0.4-2.6,0.9-4,1.1c-0.5,0.1-1,0.3-1.5,0.4c-0.5,0.1-1,0.2-1.5,0.3
		c-0.5,0.1-1.1,0.2-1.6,0.3c-3,0.3-6.1,0.9-9.2,0.9c-0.7,0.1-1.4,0.1-2.1,0.1c-3.2,0.3-6.4,0.1-9.6,0.1c-0.5-0.1-1-0.1-1.5-0.2
		c-1.6,0-3.1-0.3-4.7-0.5c-1.5-0.4-3.1-0.7-4.6-0.9c-1-0.3-2-0.5-3-0.7c-1-0.2-1.9-0.5-2.8-0.9c-0.9-0.2-1.7-0.5-2.6-0.9
		c-0.7-0.2-1.4-0.5-2.1-0.9c-0.3-0.1-0.7-0.3-1-0.5c-0.3-0.1-0.5-0.3-0.8-0.5c-0.2-0.1-0.4-0.3-0.7-0.5c-0.2-0.1-0.4-0.3-0.5-0.5
		c-0.1-0.1-0.3-0.3-0.4-0.5c-0.1-0.1-0.2-0.3-0.2-0.4c-0.1-0.5-0.1-1-0.1-1.5c0.4-2.1,1.3-4,1.9-6.1c0.5-0.9,0.9-1.9,1.3-2.9
		c0.3-0.5,0.5-1,0.8-1.5c0.5-0.9,0.9-1.9,1.4-2.8c0.3-0.5,0.5-0.9,0.8-1.4c0.5-0.8,0.9-1.6,1.4-2.4c0.2-0.3,0.4-0.7,0.7-1
		c0.2-0.3,0.4-0.5,0.6-0.8c0.1-0.3,0.3-0.5,0.5-0.7c0.1-0.2,0.3-0.4,0.5-0.5c0.2-0.2,0.4-0.3,0.6-0.2c0.1,0.1,0.3,0.2,0.4,0.3
		c0.2,0.1,0.4,0.2,0.6,0.3c0.5,0.3,1.1,0.5,1.6,0.8c0.3,0.2,0.7,0.4,1,0.5c0.4,0.2,0.8,0.4,1.1,0.5c0.4,0.2,0.8,0.4,1.2,0.5
		c0.4,0.2,0.8,0.4,1.2,0.5c0.5,0.2,0.9,0.4,1.3,0.6c0.5,0.1,0.9,0.3,1.4,0.5c0.4,0.1,0.8,0.3,1.3,0.5c0.5,0.1,0.9,0.3,1.4,0.5
		c1,0.2,2,0.5,2.9,0.9c0.5,0.1,0.9,0.2,1.4,0.3c0.5,0.1,0.9,0.3,1.4,0.4c0.4,0.1,0.8,0.1,1.3,0.2c0.4,0.1,0.8,0.2,1.3,0.3
		c0.4,0,0.8,0,1.2,0.1c0.4,0,0.8,0,1.1,0.1c0.4,0,0.8,0,1.1-0.1c0.6,0,1.2-0.1,1.8-0.3c0.2-0.1,0.4-0.3,0.7-0.4
		c0.2-0.1,0.4-0.2,0.5-0.4c0.2-0.2,0.3-0.4,0.4-0.6c0.1-0.2,0.2-0.4,0.3-0.7c0.1-0.2,0.1-0.4,0.1-0.6c0.1-0.2,0.1-0.4,0-0.6
		c0-0.2,0-0.4-0.1-0.5c-0.1-0.2-0.2-0.4-0.3-0.5c-0.1-0.2-0.3-0.4-0.4-0.5c-0.2-0.1-0.4-0.3-0.5-0.4c-0.2-0.1-0.4-0.3-0.7-0.4
		c-0.2-0.1-0.4-0.3-0.7-0.4c-0.3-0.1-0.6-0.2-0.9-0.3c-0.3-0.1-0.6-0.2-0.9-0.3c-0.4-0.1-0.8-0.2-1.1-0.3c-0.4-0.1-0.8-0.1-1.1-0.2
		c-0.8-0.2-1.7-0.4-2.5-0.6c-0.9-0.1-1.9-0.3-2.8-0.4c-1-0.2-2-0.4-3-0.5c-1.1-0.2-2.1-0.4-3.2-0.6c-0.6-0.1-1.2-0.1-1.7-0.2
		c-0.5-0.1-1.1-0.2-1.7-0.3c-0.5-0.1-1.1-0.3-1.7-0.4c-1.4-0.2-3-0.5-4.3-1.2c-0.4-0.1-0.8-0.3-1.2-0.5c-0.8-0.4-1.5-0.9-2.2-1.5
		c-0.4-0.3-0.7-0.6-1-0.9c-0.3-0.3-0.7-0.7-1-1c-2.1-2.6-3.3-5.3-4.2-8.5c-0.1-0.9-0.3-1.9-0.4-2.8c0-0.9,0-1.9,0-2.8
		c0.1-1,0.3-2.1,0.5-3.1c0.1-1,0.4-2,0.8-2.9c0.4-1.3,1-2.6,1.8-3.7c0.3-0.3,0.5-0.7,0.8-1.1c0.2-0.3,0.5-0.7,0.8-1
		c0.3-0.3,0.6-0.7,0.9-1c0.3-0.3,0.6-0.6,0.9-0.9c0.6-0.6,1.3-1.2,2.1-1.7c0.3-0.3,0.7-0.5,1.1-0.8c0.4-0.2,0.8-0.4,1.2-0.7
		c1.1-0.7,2.5-1.3,3.7-1.8c0.4-0.1,0.8-0.3,1.3-0.5c1.3-0.4,2.7-0.8,4-1.2c0.5-0.1,0.9-0.2,1.4-0.3c0.5-0.1,0.9-0.2,1.4-0.3
		c1.4-0.2,2.8-0.5,4.2-0.5c0.5-0.1,0.9-0.1,1.4-0.1c0.9-0.1,1.9-0.1,2.8-0.2c0.5,0,1,0,1.5,0c2.5,0.4,5.1,0.5,7.7,0.8
		c0.5,0.1,1.1,0.2,1.6,0.3c1,0.3,2.1,0.5,3.1,0.7c0.5,0.1,1.1,0.3,1.6,0.5c1,0.2,2,0.5,3,0.9c0.5,0.1,0.9,0.3,1.4,0.4
		c0.5,0.2,0.9,0.4,1.4,0.6c0.9,0.3,1.8,0.6,2.7,1c0.8,0.4,1.6,0.8,2.4,1.2c0.4,0.1,0.8,0.3,1.2,0.5c0.7,0.4,1.3,0.8,2,1.2
		c0.3,0.2,0.6,0.4,0.9,0.6c0.3,0.2,0.5,0.4,0.8,0.6c0.2,0.2,0.4,0.4,0.7,0.6c0.2,0.1,0.4,0.3,0.5,0.5c0.2,0.2,0.4,0.4,0.5,0.6
		c0.3,0.3,0.5,0.6,0.6,1C591.5,640.4,591.5,640.6,591.5,640.9C591.6,641.2,591.5,640.6,591.5,640.9z"/>
	<path d="M639,691.4c-0.1-0.3-0.3,0-0.6,0.9c-0.1,0.3-0.4,0.5-0.7,0.8c-0.5,0.5-0.9,0.9-1.4,1.4c-0.3,0.3-0.5,0.5-0.7,0.7
		c-0.5,0.4-1,0.9-1.5,1.3c-0.3,0.2-0.5,0.4-0.8,0.6c-0.8,0.4-1.7,1-2.4,1.5c-0.6,0.3-1.1,0.6-1.7,0.8c-0.3,0.1-0.5,0.2-0.8,0.3
		c-0.3,0.1-0.6,0.3-0.9,0.4c-0.3,0.1-0.5,0.1-0.8,0.2c-0.9,0.5-2.5,0.8-3.5,0.8c-0.3,0.1-0.6,0.1-0.9,0.1c-0.6,0.1-1.2,0.1-1.8,0.1
		c-0.3,0.1-0.6,0.1-0.9,0c-0.6,0-1.1,0-1.7,0c-0.3-0.1-0.6-0.1-0.9-0.1c-0.3-0.1-0.6-0.1-0.9-0.2c-0.9,0-1.8-0.3-2.6-0.5
		c-0.6-0.2-1.2-0.4-1.8-0.6c-0.3-0.1-0.5-0.2-0.8-0.3c-0.3-0.1-0.6-0.3-0.9-0.4c-0.8-0.4-1.6-0.8-2.4-1.2c-0.3-0.2-0.5-0.4-0.8-0.5
		c-0.3-0.2-0.5-0.4-0.8-0.5c-0.3-0.2-0.5-0.4-0.8-0.6c-0.6-0.3-1.1-0.7-1.5-1.1c-0.8-0.6-1.6-1.2-2.2-2c-0.2-0.2-0.4-0.4-0.7-0.7
		c-0.2-0.3-0.4-0.5-0.7-0.8c-0.7-0.7-1.3-1.6-1.8-2.4c-0.2-0.3-0.4-0.5-0.6-0.8c-0.2-0.3-0.4-0.6-0.6-0.9c-0.1-0.3-0.3-0.6-0.5-0.9
		c-0.2-0.3-0.4-0.7-0.5-1c-0.4-0.6-0.7-1.2-1-1.9c-0.5-1.4-1.2-2.8-1.5-4.3c-0.1-0.3-0.3-0.7-0.4-1.1c-0.1-0.4-0.1-0.8-0.2-1.1
		c-0.5-1.6-0.6-3.3-0.9-4.9c0-0.4,0-0.8-0.1-1.3c0-0.4,0-0.8-0.1-1.3c0-1.8-0.1-3.6,0.1-5.4c0-0.5,0-0.9,0.1-1.4
		c0-1.5,0.3-2.9,0.5-4.4c0.1-0.6,0.3-1.2,0.4-1.7c0.2-1.5,0.6-3.2,1.2-4.6c0.1-0.5,0.3-1,0.5-1.5c0.5-1.7,1.4-3.8,2.4-5.3
		c0.2-0.4,0.4-0.8,0.7-1.2c0.2-0.4,0.4-0.8,0.7-1.1c0.3-0.4,0.5-0.8,0.8-1.1c1.2-1.8,2.7-3.3,4.2-4.8c0.3-0.3,0.7-0.5,1-0.8
		c0.6-0.6,1.2-1.1,1.9-1.5c0.9-0.7,2-1.3,3-1.9c0.4-0.2,0.8-0.4,1.1-0.5c0.3-0.2,0.7-0.4,1.1-0.5c0.3-0.1,0.7-0.3,1-0.5
		c0.4-0.1,0.8-0.3,1.1-0.4c0.7-0.2,1.5-0.4,2.2-0.6c1.4-0.5,3-0.8,4.5-0.8c0.3-0.1,0.7-0.1,1.1-0.1c1.3-0.3,3.1-0.3,4.4,0
		c0.4,0,0.8,0,1.1,0.1c1.1,0,2.2,0.3,3.3,0.5c1,0.4,2.1,0.6,3.1,1c0.7,0.2,1.4,0.4,2,0.7c0.3,0.2,0.7,0.4,1,0.5
		c0.6,0.3,1.2,0.7,1.8,1c0.3,0.2,0.6,0.4,0.9,0.6c0.6,0.4,1.2,0.8,1.7,1.2c0.5,0.7,0.7,1,0.8,0.7c0.2-1.3,0.4-2.6,0.5-3.9
		c0.1-0.4,0.2-0.8,0.3-1.3c0-0.3,0.1-0.5,0.3-0.6c0.3-0.2,0.7-0.3,1.1-0.3c0.3-0.1,0.7-0.1,1-0.1c2.9-0.5,6.5-0.3,9.4,0
		c0.6,0,1.2,0,1.9,0.1c2.6,0,6.1,0.2,8.6,1.2c0.3,0.1,0.5,0.1,0.7,0.2c0.1,0.1,0.3,0.3,0.4,0.4l0.1,0.1c0,1.4,0.2,3-0.1,4.4
		c0,0.4,0,0.8,0,1.1c-0.1,0.8-0.1,1.6-0.2,2.4c0,0.4,0,0.8,0,1.3c-0.1,1-0.1,1.9-0.2,2.9c0,0.5,0,1.1,0,1.6
		c-0.1,1.1-0.1,2.3-0.2,3.4c0,0.6,0,1.2,0,1.7c-0.2,1.9,0,3.9-0.2,5.8c0,2.9,0,5.7,0,8.6c0.2,2.1,0,4.1,0.2,6.2c0,0.7,0,1.3,0,2
		c0.1,1.3,0.1,2.5,0.2,3.8c0,0.6,0,1.2,0.1,1.7c0,0.6,0,1.2,0,1.8c0.1,0.5,0.1,1.1,0.1,1.6c0.1,0.5,0.1,1.1,0.1,1.6
		c0.1,0.5,0.1,1,0.1,1.5c0.1,0.5,0.1,1,0.1,1.5c0.1,0.5,0.1,0.9,0.1,1.4c0.1,0.8,0.1,1.7,0.2,2.5c0,0.4,0,0.8,0.1,1.2
		c0,0.4,0,0.8,0,1.1c0.1,0.7,0.1,1.3,0.2,2c0,0.6,0,1.1,0.1,1.7c0,0.9,0.3,2.5-0.1,3.3c0,0.1,0,0.2,0,0.3c0,0.1-0.1,0.2-0.2,0.3
		c-0.1,0.1-0.3,0.1-0.4,0.2c-0.3,0.1-0.5,0.1-0.7,0.1c-0.3,0.1-0.7,0.1-1,0.2c-0.3,0-0.7,0-1.1,0.1c-0.5,0-0.9,0-1.3,0
		c-3.7,0.5-8.1,0.4-11.8,0c-0.6,0-1.2,0-1.7-0.1c-0.6,0-1.2,0-1.7,0c-0.5-0.1-1-0.1-1.5-0.1c-0.5-0.1-0.9-0.1-1.4-0.1
		c-0.4-0.1-0.8-0.1-1.2-0.1c-0.3-0.1-0.7-0.1-1-0.2c-0.3,0-0.5,0-0.8-0.1c-0.2-0.1-0.4-0.1-0.6-0.1c-0.1-0.1-0.2-0.1-0.3-0.2
		c-0.2-0.2-0.3-0.4-0.4-0.7c-0.1-0.3-0.2-0.5-0.3-0.8c-0.1-0.4-0.2-0.8-0.2-1.1c-0.1-0.5-0.1-0.9-0.1-1.3c0.1-0.5,0.1-1,0.1-1.5
		c-0.1-0.5-0.1-1.1,0-1.6C639.1,692.4,639.1,691.8,639,691.4C638.9,691.1,639.1,691.8,639,691.4z M629.5,653
		c-0.9-0.1-1.7-0.1-2.6-0.1c-0.9,0.2-1.7,0.4-2.5,0.7c-1.1,0.5-2.3,1.3-3.1,2.3c-0.6,0.6-1.2,1.3-1.7,2.1c-0.5,0.8-0.9,1.6-1.2,2.4
		c-0.1,0.4-0.3,0.8-0.4,1.3c-0.2,1.3-0.3,2.6-0.3,4c0.2,1.2,0.6,2.7,1.2,3.7c0.3,0.4,0.5,0.8,0.7,1.1c0.9,1.4,2.2,2.6,3.7,3.5
		c0.7,0.4,1.4,0.8,2.2,1c2.1,0.7,4.4,0.4,6.4-0.5c0.5-0.1,0.9-0.3,1.3-0.5c0.4-0.3,0.8-0.5,1.2-0.8c0.4-0.2,0.8-0.5,1.1-0.8
		c0.7-0.6,1.4-1.2,1.9-2c0.8-1,1.4-2.4,1.8-3.6c0.1-0.9,0.3-1.9,0.4-2.8c0-0.9-0.1-1.9-0.3-2.8c-0.1-0.5-0.3-0.9-0.4-1.3
		c-0.2-0.4-0.4-0.8-0.6-1.2c-0.2-0.3-0.4-0.7-0.7-1.1c-0.6-0.6-1.2-1.2-1.8-1.8c-0.4-0.3-0.8-0.6-1.1-0.8c-0.8-0.5-1.6-0.9-2.5-1.3
		C631.4,653.4,630.5,653.1,629.5,653C629.1,652.9,630,653,629.5,653z"/>
</g>
<path d="M456.8,601.9c-4.2,0-7.4,10.1-14.2,9.8c-6.8-0.3-6.8-6.1-6.8-8.3c0-4.7,4.7-12.5,7.2-15.4s6.2-6.7,13.5-6.7
	c10.1,0,12,10.3,20,10.3c4.6,0,8.1-12.5,16.8-12.5c15.5,0,5.2,16.8,3.6,19.3c-2.6,4.1-10.3,14.7-20.7,14.7
	C465.8,613,463.8,601.9,456.8,601.9"/>
<path d="M627.7,617.8c-7.3,3.2-19.7-8-16.8-11.8c0,0,26.3-28.1,33.3-31.7c7-3.5,25.1,10.6,21.6,15.1S627.7,617.8,627.7,617.8z"/>
<g>
	<path fill="#F1CC5A" d="M498.7,729.6H345.4c-12.8,0-23.2-10.4-23.2-23.2v-128c0-12.8,10.4-23.2,23.2-23.2h153.3
		c12.8,0,23.2,10.4,23.2,23.2v128C521.9,719.1,511.5,729.6,498.7,729.6z"/>
	<path fill="#FFEDBB" d="M487.3,714.7H356.8c-12.8,0-23.2-10.4-23.2-23.2v-97.9c0-12.8,10.4-23.2,23.2-23.2h130.6
		c12.8,0,23.2,10.4,23.2,23.2v97.9C510.5,704.3,500.1,714.7,487.3,714.7z"/>
</g>
</svg>
