<?xml version="1.0" encoding="utf-8"?>
<!-- Generator: Adobe Illustrator 18.0.0, SVG Export Plug-In . SVG Version: 6.00 Build 0)  -->
<!DOCTYPE svg PUBLIC "-//W3C//DTD SVG 1.0//EN" "http://www.w3.org/TR/2001/REC-SVG-20010904/DTD/svg10.dtd">
<svg version="1.0" id="Camada_1" xmlns="http://www.w3.org/2000/svg" xmlns:xlink="http://www.w3.org/1999/xlink" x="0px" y="0px"
	 viewBox="0 0 1024 768" enable-background="new 0 0 1024 768" xml:space="preserve">
<image overflow="visible" width="1500" height="1500" xlink:href="../../../Desenhos Jogo Yegatu/png2/suwasu.png"  transform="matrix(0.6185 0 0 0.6185 58.0938 -188.8124)">
</image>
<path d="M450,630.6c0.1-0.1,0.3-0.2,0.4-0.3c0.5-0.2,1-0.3,1.5-0.4c0.4-0.1,0.8-0.1,1.1-0.1c0.9-0.2,1.8-0.3,2.7-0.3
	c0.5-0.1,1-0.1,1.5-0.2c0.5,0,1.1,0,1.6,0c1.1-0.1,2.3-0.1,3.4-0.2c1.7,0,3.5,0,5.2,0c1.1,0.1,2.1,0.1,3.2,0.2c0.5,0,1,0,1.5,0.1
	c0.4,0,0.8,0,1.3,0.1c1,0,1.9,0.3,2.9,0.5c0.1,0.1,0.3,0.1,0.5,0.2c0.1,0.1,0.1,0.2,0.2,0.3c0.1,0.1,0.2,0.2,0.3,0.3
	c0.3,0.7,0.6,1.4,0.8,2.1c0.1,0.3,0.1,0.5,0.1,0.8c0.3,1.2,0.7,2.5,0.7,3.8c0.7,3.5,0.8,7.1,1.7,10.6c0.1,0.5,0.1,1.1,0.2,1.6
	c0.1,0.5,0.2,1.1,0.3,1.6c0.1,0.5,0.3,1.1,0.4,1.6c0.3,2.9,1.3,5.8,1.9,8.7c0.2,0.7,0.4,1.3,0.5,1.9c0.4,0.6,0.6,1.2,0.6,1.8
	c-0.1,1.1,0.1,1.7,0.6,1.9c0.3,0.1,0.5-0.3,0.7-1.4c0.6-2,2.2-3.8,2.9-5.8c0.3-0.5,0.5-1,0.7-1.5c0.8-1.5,1.4-3.1,2.2-4.6
	c0.6-1.5,1.3-3,2-4.5c1.2-2.8,2.5-5.6,3.7-8.5c0.3-0.8,0.7-1.7,1.1-2.5c0.3-0.7,0.7-1.5,1-2.2c0.2-0.3,0.4-0.7,0.5-1.1
	c0.1-0.3,0.3-0.6,0.5-0.9c0.4-1.1,1.1-2,1.6-3.1c0.1-0.1,0.3-0.3,0.4-0.5c0.2-0.3,0.4-0.5,0.6-0.7c0.3-0.2,0.4-0.3,0.8-0.3
	c0.1,0.1,0.2,0.1,0.3,0.1c0.1,0.1,0.2,0.2,0.3,0.3c0.3,0.3,0.5,0.5,0.8,0.8c0.3,0.4,0.5,0.8,0.8,1.2c0.2,0.3,0.4,0.5,0.5,0.7
	c0.2,0.3,0.4,0.5,0.5,0.8c0.2,0.3,0.4,0.6,0.5,0.9c0.4,0.6,0.8,1.3,1.1,2c0.9,1.5,1.7,3.1,2.5,4.7c0.8,1.2,1.4,2.7,2.1,4
	c0.2,0.5,0.4,0.9,0.7,1.4c1.1,2.5,2.5,4.8,3.6,7.3c1,2,2.1,3.9,3,6c0.5,1,1,1.9,1.5,2.9c0.5,1,1,1.9,1.5,2.9c0.2,1,0.4,1.4,0.7,1.3
	c0.5-1.2,0.8-2.4,1-3.6c0.2-0.5,0.3-1.1,0.4-1.7c0.3-1.2,0.5-2.3,0.7-3.5c0.1-0.6,0.3-1.2,0.4-1.7c0.1-1.1,0.3-2.3,0.5-3.4
	c0.2-1.6,0.5-3.2,0.5-4.8c0.2-1,0.3-1.9,0.3-2.9c0.1-0.5,0.1-1,0.1-1.5c0.1-0.4,0.1-0.8,0.2-1.3c0-0.5,0-0.9,0.1-1.4
	c0-0.4,0-0.8,0-1.2c0.1-0.4,0.1-0.8,0.1-1.2c0.1-0.4,0.1-0.8,0.1-1.2c0.1-0.3,0.1-0.7,0.1-1c0.1-0.3,0.1-0.7,0.1-1
	c0.1-0.3,0.1-0.7,0.1-1c0.1-0.3,0.1-0.5,0.1-0.8c0.1-0.3,0.1-0.5,0.1-0.8c0.1-0.3,0.1-0.5,0.2-0.7c0-0.4,0.1-0.8,0.3-1.2
	c0.1-0.3,0.3-0.5,0.4-0.8c0.1-0.1,0.2-0.1,0.3-0.2c0.7-0.7,2.3-0.8,3.2-0.8c0.4-0.1,0.8-0.1,1.2-0.1c1-0.1,1.9-0.1,2.9-0.2
	c1.1,0,2.1,0,3.2,0c1.1,0.1,2.3,0.1,3.4,0.1c0.6,0.1,1.2,0.1,1.7,0.1c0.6,0.1,1.2,0.1,1.7,0.1c0.5,0.1,1.1,0.1,1.6,0.2
	c1.4,0,2.9,0.3,4.3,0.5c1,0,2.1,0.2,3,0.6c0.2,0.1,0.4,0.1,0.6,0.2c0.1,0.1,0.3,0.1,0.4,0.2c0,0.1,0,0.1,0.1,0.1c0,0.1,0,0.2,0,0.3
	c0.1,0.2,0.2,0.5,0.2,0.7c0,0.3,0,0.7,0,1c0.6,1.8,0.3,5.1,0,6.9c0,0.8,0,1.5-0.1,2.3c0,0.4,0,0.8,0,1.2c-0.1,0.9-0.1,1.7-0.2,2.6
	c0,0.4,0,0.8-0.1,1.3c0,0.5,0,0.9-0.1,1.4c-0.1,1-0.1,1.9-0.2,2.9c-0.2,1-0.3,2-0.3,3c-0.2,1.6-0.4,3.1-0.6,4.7
	c0,1.1-0.2,2.1-0.4,3.2c-0.2,1.6-0.3,3.2-0.7,4.8c-0.1,1.1-0.3,2.2-0.5,3.3c-0.1,0.5-0.2,1.1-0.3,1.6c-0.1,0.5-0.2,1.1-0.3,1.6
	c-0.1,0.5-0.2,1.1-0.3,1.6c-0.2,1.1-0.4,2.1-0.6,3.2c-0.1,0.5-0.3,1.1-0.4,1.6c-0.4,3-1.5,6.1-2.3,9c-0.3,0.9-0.6,1.8-0.9,2.7
	c-0.3,0.9-0.7,1.7-1,2.6c-0.1,0.4-0.3,0.8-0.5,1.2c-0.1,0.4-0.3,0.8-0.5,1.2c-0.2,0.3-0.4,0.7-0.5,1.1c-0.2,0.3-0.4,0.7-0.6,1.1
	c-0.1,0.3-0.3,0.7-0.5,1c-0.1,0.1-0.2,0.1-0.3,0.2c-0.2,0.1-0.4,0.2-0.5,0.3c-0.3,0.1-0.5,0.1-0.7,0.2c-1.5,0.3-3.1,0.7-4.7,0.7
	c-0.5,0.1-1,0.1-1.5,0.2c-0.5,0-1,0-1.5,0.1c-0.6,0-1.2,0-1.7,0.1c-0.6,0-1.2,0-1.7,0c-1.2,0.1-2.4,0.1-3.6,0.1
	c-1.2,0.1-2.3,0.1-3.5,0c-1.1,0-2.3,0-3.4,0c-0.5-0.1-1.1-0.1-1.6-0.1c-0.5-0.1-1-0.1-1.5-0.1c-0.5-0.1-0.9-0.1-1.4-0.1
	c-0.8-0.1-1.6-0.2-2.4-0.4c-0.3,0-0.6-0.1-0.9-0.2c-0.4-0.1-1.3-0.2-1.5-0.7c-0.3-0.5-0.5-0.9-0.8-1.4c-1.3-1.9-2-4.1-3.2-6.1
	c-0.1-0.4-0.3-0.8-0.5-1.2c-0.1-0.3-0.3-0.7-0.5-1.1c-0.3-0.7-0.6-1.4-0.8-2.1c-0.4-1.1-0.9-2.1-1.1-3.2c-0.1-0.4-0.2-0.8-0.3-1.1
	c-0.1-0.4-0.3-0.8-0.4-1.1c-0.1-0.4-0.2-0.8-0.3-1.1c-0.1-0.4-0.2-0.8-0.3-1.2c-0.1-0.4-0.1-0.8-0.2-1.2c-0.1-0.4-0.2-0.8-0.3-1.2
	c-0.3-0.5-0.4-0.9-0.3-1.3c0.1-0.9,0-1.3-0.3-1.3c0,0-1.3,4.6-1.5,5c-0.1,0.4-0.2,0.8-0.3,1.2c-0.1,0.4-0.3,0.8-0.4,1.1
	c-0.2,0.8-0.5,1.5-0.8,2.3c-0.1,0.4-0.3,0.8-0.4,1.2c-0.4,0.7-0.7,1.4-0.9,2.2c-0.2,0.4-0.4,0.8-0.5,1.1c-0.2,0.4-0.4,0.8-0.5,1.1
	c-0.2,0.4-0.4,0.8-0.6,1.1c-0.2,0.4-0.4,0.8-0.6,1.2c-0.4,0.7-0.8,1.5-1.2,2.2c-0.4,0.8-0.9,1.5-1.4,2.3c-0.5,0.8-1.1,1.6-1.6,2.4
	c-0.1,0.1-0.2,0.2-0.3,0.3c-1.1,0.4-2.2,0.7-3.4,0.7c-0.4,0.1-0.8,0.1-1.3,0.2c-0.5,0-0.9,0-1.4,0.1c-0.5,0-1,0-1.5,0.1
	c-0.6,0-1.2,0-1.7,0c-3.4,0.4-7.3,0.4-10.7,0c-1.1,0-2.3,0-3.4-0.1c-0.5,0-1.1,0-1.6-0.1c-1-0.1-1.9-0.1-2.9-0.2
	c-0.4-0.1-0.8-0.1-1.2-0.2c-1,0-2.3-0.2-3.2-0.7c-0.1-0.1-0.1-0.1-0.2-0.2c-0.8-1.3-1.2-2.7-1.7-4.1c-1-3-2.3-6.1-2.7-9.2
	c-0.3-1-0.5-2-0.7-3c-0.1-0.5-0.3-1-0.4-1.5c-0.1-0.5-0.2-1.1-0.3-1.6c-0.2-1-0.4-2.1-0.6-3.1c-0.1-0.5-0.2-1.1-0.3-1.6
	c-0.1-0.5-0.2-1.1-0.3-1.7c-0.2-1.1-0.4-2.1-0.6-3.2c-0.1-0.6-0.1-1.2-0.2-1.7c-0.4-1.6-0.4-3.3-0.8-4.9c-0.5-3.6-1.3-7.5-1.3-11.2
	c-0.1-1-0.3-2-0.4-3c-0.1-1-0.1-1.9-0.2-2.9c-0.1-0.5-0.1-0.9-0.1-1.4c-0.1-0.4-0.1-0.8-0.1-1.3c-0.1-0.5-0.1-0.9-0.1-1.3
	c-0.1-0.5-0.1-0.9-0.1-1.3c-0.1-0.8-0.1-1.5-0.1-2.3c-0.1-0.7-0.1-1.5-0.1-2.2c-0.3-1.3-0.4-3.6,0-4.9c0-0.3,0-0.7,0.1-1
	c0-0.3,0-0.5,0.1-0.8C449.8,630.9,449.9,630.8,450,630.6C449.9,630.7,450,630.6,450,630.6C450.2,630.5,450,630.6,450,630.6z"/>
<path d="M603.5,691.4c-0.1-0.3-0.3,0-0.6,0.9c-0.1,0.3-0.4,0.5-0.7,0.8c-0.5,0.5-0.9,0.9-1.4,1.4c-0.3,0.3-0.5,0.5-0.7,0.7
	c-0.5,0.4-1,0.9-1.5,1.3c-0.3,0.2-0.5,0.4-0.8,0.6c-0.8,0.4-1.7,1-2.4,1.5c-0.6,0.3-1.1,0.6-1.7,0.8c-0.3,0.1-0.5,0.2-0.8,0.3
	c-0.3,0.1-0.6,0.3-0.9,0.4c-0.3,0.1-0.5,0.1-0.8,0.2c-0.9,0.5-2.5,0.8-3.5,0.8c-0.3,0.1-0.6,0.1-0.9,0.1c-0.6,0.1-1.2,0.1-1.8,0.1
	c-0.3,0.1-0.6,0.1-0.9,0c-0.6,0-1.1,0-1.7,0c-0.3-0.1-0.6-0.1-0.9-0.1c-0.3-0.1-0.6-0.1-0.9-0.2c-0.9,0-1.8-0.3-2.6-0.5
	c-0.6-0.2-1.2-0.4-1.8-0.6c-0.3-0.1-0.5-0.2-0.8-0.3c-0.3-0.1-0.6-0.3-0.9-0.4c-0.8-0.4-1.6-0.8-2.4-1.2c-0.3-0.2-0.5-0.4-0.8-0.5
	c-0.3-0.2-0.5-0.4-0.8-0.5c-0.3-0.2-0.5-0.4-0.8-0.6c-0.6-0.3-1.1-0.7-1.5-1.1c-0.8-0.6-1.6-1.2-2.2-2c-0.2-0.2-0.4-0.4-0.7-0.7
	c-0.2-0.3-0.4-0.5-0.7-0.8c-0.7-0.7-1.3-1.6-1.8-2.4c-0.2-0.3-0.4-0.5-0.6-0.8c-0.2-0.3-0.4-0.6-0.6-0.9c-0.1-0.3-0.3-0.6-0.5-0.9
	c-0.2-0.3-0.4-0.7-0.5-1c-0.4-0.6-0.7-1.2-1-1.9c-0.5-1.4-1.2-2.8-1.5-4.3c-0.1-0.3-0.3-0.7-0.4-1.1c-0.1-0.4-0.1-0.8-0.2-1.1
	c-0.5-1.6-0.6-3.3-0.9-4.9c0-0.4,0-0.8-0.1-1.3c0-0.4,0-0.8-0.1-1.3c0-1.8-0.1-3.6,0.1-5.4c0-0.5,0-0.9,0.1-1.4
	c0-1.5,0.3-2.9,0.5-4.4c0.1-0.6,0.3-1.2,0.4-1.7c0.2-1.5,0.6-3.2,1.2-4.6c0.1-0.5,0.3-1,0.5-1.5c0.5-1.7,1.4-3.8,2.4-5.3
	c0.2-0.4,0.4-0.8,0.7-1.2c0.2-0.4,0.4-0.8,0.7-1.1c0.3-0.4,0.5-0.8,0.8-1.1c1.2-1.8,2.7-3.3,4.2-4.8c0.3-0.3,0.7-0.5,1-0.8
	c0.6-0.6,1.2-1.1,1.9-1.5c0.9-0.7,2-1.3,3-1.9c0.4-0.2,0.8-0.4,1.1-0.5c0.3-0.2,0.7-0.4,1.1-0.5c0.3-0.1,0.7-0.3,1-0.5
	c0.4-0.1,0.8-0.3,1.1-0.4c0.7-0.2,1.5-0.4,2.2-0.6c1.4-0.5,3-0.8,4.5-0.8c0.3-0.1,0.7-0.1,1.1-0.1c1.3-0.3,3.1-0.3,4.4,0
	c0.4,0,0.8,0,1.1,0.1c1.1,0,2.2,0.3,3.3,0.5c1,0.4,2.1,0.6,3.1,1c0.7,0.2,1.4,0.4,2,0.7c0.3,0.2,0.7,0.4,1,0.5
	c0.6,0.3,1.2,0.7,1.8,1c0.3,0.2,0.6,0.4,0.9,0.6c0.6,0.4,1.2,0.8,1.7,1.2c0.5,0.7,0.7,1,0.8,0.7c0.2-1.3,0.4-2.6,0.5-3.9
	c0.1-0.4,0.2-0.8,0.3-1.3c0-0.3,0.1-0.5,0.3-0.6c0.3-0.2,0.7-0.3,1.1-0.3c0.3-0.1,0.7-0.1,1-0.1c2.9-0.5,6.5-0.3,9.4,0
	c0.6,0,1.2,0,1.9,0.1c2.6,0,6.1,0.2,8.6,1.2c0.3,0.1,0.5,0.1,0.7,0.2c0.1,0.1,0.3,0.3,0.4,0.4l0.1,0.1c0,1.4,0.2,3-0.1,4.4
	c0,0.4,0,0.8,0,1.1c-0.1,0.8-0.1,1.6-0.2,2.4c0,0.4,0,0.8,0,1.3c-0.1,1-0.1,1.9-0.2,2.9c0,0.5,0,1.1,0,1.6c-0.1,1.1-0.1,2.3-0.2,3.4
	c0,0.6,0,1.2,0,1.7c-0.2,1.9,0,3.9-0.2,5.8c0,2.9,0,5.7,0,8.6c0.2,2.1,0,4.1,0.2,6.2c0,0.7,0,1.3,0,2c0.1,1.3,0.1,2.5,0.2,3.8
	c0,0.6,0,1.2,0.1,1.7c0,0.6,0,1.2,0,1.8c0.1,0.5,0.1,1.1,0.1,1.6c0.1,0.5,0.1,1.1,0.1,1.6c0.1,0.5,0.1,1,0.1,1.5
	c0.1,0.5,0.1,1,0.1,1.5c0.1,0.5,0.1,0.9,0.1,1.4c0.1,0.8,0.1,1.7,0.2,2.5c0,0.4,0,0.8,0.1,1.2c0,0.4,0,0.8,0,1.1
	c0.1,0.7,0.1,1.3,0.2,2c0,0.6,0,1.1,0.1,1.7c0,0.9,0.3,2.5-0.1,3.3c0,0.1,0,0.2,0,0.3c0,0.1-0.1,0.2-0.2,0.3
	c-0.1,0.1-0.3,0.1-0.4,0.2c-0.3,0.1-0.5,0.1-0.7,0.1c-0.3,0.1-0.7,0.1-1,0.2c-0.3,0-0.7,0-1.1,0.1c-0.5,0-0.9,0-1.3,0
	c-3.7,0.5-8.1,0.4-11.8,0c-0.6,0-1.2,0-1.7-0.1c-0.6,0-1.2,0-1.7,0c-0.5-0.1-1-0.1-1.5-0.1c-0.5-0.1-0.9-0.1-1.4-0.1
	c-0.4-0.1-0.8-0.1-1.2-0.1c-0.3-0.1-0.7-0.1-1-0.2c-0.3,0-0.5,0-0.8-0.1c-0.2-0.1-0.4-0.1-0.6-0.1c-0.1-0.1-0.2-0.1-0.3-0.2
	c-0.2-0.2-0.3-0.4-0.4-0.7c-0.1-0.3-0.2-0.5-0.3-0.8c-0.1-0.4-0.2-0.8-0.2-1.1c-0.1-0.5-0.1-0.9-0.1-1.3c0.1-0.5,0.1-1,0.1-1.5
	c-0.1-0.5-0.1-1.1,0-1.6C603.6,692.4,603.7,691.8,603.5,691.4C603.5,691.1,603.7,691.8,603.5,691.4z M594.1,653
	c-0.9-0.1-1.7-0.1-2.6-0.1c-0.9,0.2-1.7,0.4-2.5,0.7c-1.1,0.5-2.3,1.3-3.1,2.3c-0.6,0.6-1.2,1.3-1.7,2.1c-0.5,0.8-0.9,1.6-1.2,2.4
	c-0.1,0.4-0.3,0.8-0.4,1.3c-0.2,1.3-0.3,2.6-0.3,4c0.2,1.2,0.6,2.7,1.2,3.7c0.3,0.4,0.5,0.8,0.7,1.1c0.9,1.4,2.2,2.6,3.7,3.5
	c0.7,0.4,1.4,0.8,2.2,1c2.1,0.7,4.4,0.4,6.4-0.5c0.5-0.1,0.9-0.3,1.3-0.5c0.4-0.3,0.8-0.5,1.2-0.8c0.4-0.2,0.8-0.5,1.1-0.8
	c0.7-0.6,1.4-1.2,1.9-2c0.8-1,1.4-2.4,1.8-3.6c0.1-0.9,0.3-1.9,0.4-2.8c0-0.9-0.1-1.9-0.3-2.8c-0.1-0.5-0.3-0.9-0.4-1.3
	c-0.2-0.4-0.4-0.8-0.6-1.2c-0.2-0.3-0.4-0.7-0.7-1.1c-0.6-0.6-1.2-1.2-1.8-1.8c-0.4-0.3-0.8-0.6-1.1-0.8c-0.8-0.5-1.6-0.9-2.5-1.3
	C595.9,653.4,595,653.1,594.1,653C593.7,652.9,594.5,653,594.1,653z"/>
<path d="M703.8,640.9c0.1,0.3,0.1,0.6,0,0.9c-0.1,0.7-0.2,1.5-0.3,2.2c-0.3,0.8-0.5,1.6-0.8,2.4c-0.7,1.7-1.5,3.5-2.5,5.1
	c-0.2,0.4-0.4,0.8-0.7,1.2c-0.2,0.3-0.4,0.7-0.7,1.1c-0.2,0.3-0.4,0.6-0.7,0.9c-0.2,0.3-0.4,0.5-0.7,0.8c-0.2,0.3-0.4,0.5-0.6,0.7
	c-0.4,0.3-0.7,0.5-1.1,0.7c-0.2,0-0.4,0-0.5,0c-0.1-0.1-0.2-0.2-0.3-0.3c-0.3-0.4-0.7-0.8-1-1.2c-0.8-1.1-2-2.3-3.1-3.2
	c-0.7-0.7-1.5-1.3-2.3-1.9c-1.1-0.9-2.3-1.8-3.6-2.4c-1.2-0.8-2.5-1.3-3.7-1.9c-0.4-0.1-0.8-0.3-1.3-0.5c-0.8-0.3-1.6-0.5-2.4-0.7
	c-1.1-0.4-2.3-0.5-3.5-0.7c-1,0-2.1-0.1-3.1,0.1c-0.6,0-1.2,0.1-1.8,0.4c-0.5,0.2-1,0.4-1.5,0.7c-0.3,0.1-0.5,0.3-0.7,0.4
	c-0.2,0.2-0.4,0.4-0.5,0.6c-0.2,0.2-0.4,0.4-0.5,0.6c-0.4,0.8-0.8,1.6-0.8,2.5c-0.2,0.9,0,1.7,0.2,2.6c0.4,0.7,0.8,1.3,1.5,1.8
	c0.5,0.4,1,0.6,1.6,0.9c0.3,0.1,0.7,0.2,1,0.3c0.3,0.1,0.7,0.2,1,0.3c1.2,0.4,2.4,0.4,3.6,0.8c0.9,0.2,1.9,0.3,2.8,0.3
	c0.9,0.1,1.9,0.3,2.8,0.4c1.5,0.4,3,0.4,4.5,0.8c0.5,0.1,1,0.2,1.5,0.3c1,0.2,1.9,0.4,2.9,0.7c1.4,0.6,2.8,1,4.2,1.6
	c0.5,0.3,0.9,0.5,1.3,0.7c0.5,0.3,0.9,0.5,1.3,0.7c0.4,0.3,0.8,0.5,1.1,0.8c0.4,0.3,0.8,0.6,1.2,0.9c0.3,0.3,0.7,0.5,1,0.8
	c0.6,0.7,1.2,1.3,1.8,1.9c0.6,0.6,1.1,1.3,1.6,2c0.5,0.7,0.9,1.4,1.3,2.2c0.2,0.3,0.4,0.7,0.6,1.1c0.1,0.4,0.3,0.8,0.4,1.1
	c0.2,0.4,0.4,0.8,0.5,1.2c0.1,0.4,0.2,0.8,0.3,1.2c0.1,0.4,0.2,0.8,0.3,1.1c0.2,0.8,0.3,1.6,0.3,2.4c0.2,1.2,0.2,2.5,0,3.7
	c0,1.2-0.2,2.5-0.6,3.6c-0.1,0.3-0.2,0.6-0.3,0.9c-0.1,0.3-0.2,0.7-0.3,1c-0.1,0.3-0.2,0.6-0.3,0.9c-0.3,0.6-0.6,1.1-0.9,1.7
	c-0.1,0.3-0.3,0.5-0.5,0.8c-0.1,0.3-0.3,0.5-0.5,0.7c-0.8,1.1-1.8,1.9-2.8,2.9c-0.5,0.4-1.1,0.8-1.7,1.2c-0.6,0.4-1.2,0.8-1.9,1.1
	c-0.3,0.2-0.7,0.4-1.1,0.5c-0.8,0.4-1.5,0.7-2.3,1c-1.3,0.4-2.6,0.9-4,1.1c-0.5,0.1-1,0.3-1.5,0.4c-0.5,0.1-1,0.2-1.5,0.3
	c-0.5,0.1-1.1,0.2-1.6,0.3c-3,0.3-6.1,0.9-9.2,0.9c-0.7,0.1-1.4,0.1-2.1,0.1c-3.2,0.3-6.4,0.1-9.6,0.1c-0.5-0.1-1-0.1-1.5-0.2
	c-1.6,0-3.1-0.3-4.7-0.5c-1.5-0.4-3.1-0.7-4.6-0.9c-1-0.3-2-0.5-3-0.7c-1-0.2-1.9-0.5-2.8-0.9c-0.9-0.2-1.7-0.5-2.6-0.9
	c-0.7-0.2-1.4-0.5-2.1-0.9c-0.3-0.1-0.7-0.3-1-0.5c-0.3-0.1-0.5-0.3-0.8-0.5c-0.2-0.1-0.4-0.3-0.7-0.5c-0.2-0.1-0.4-0.3-0.5-0.5
	c-0.1-0.1-0.3-0.3-0.4-0.5c-0.1-0.1-0.2-0.3-0.2-0.4c-0.1-0.5-0.1-1-0.1-1.5c0.4-2.1,1.3-4,1.9-6.1c0.5-0.9,0.9-1.9,1.3-2.9
	c0.3-0.5,0.5-1,0.8-1.5c0.5-0.9,0.9-1.9,1.4-2.8c0.3-0.5,0.5-0.9,0.8-1.4c0.5-0.8,0.9-1.6,1.4-2.4c0.2-0.3,0.4-0.7,0.7-1
	c0.2-0.3,0.4-0.5,0.6-0.8c0.1-0.3,0.3-0.5,0.5-0.7c0.1-0.2,0.3-0.4,0.5-0.5c0.2-0.2,0.4-0.3,0.6-0.2c0.1,0.1,0.3,0.2,0.4,0.3
	c0.2,0.1,0.4,0.2,0.6,0.3c0.5,0.3,1.1,0.5,1.6,0.8c0.3,0.2,0.7,0.4,1,0.5c0.4,0.2,0.8,0.4,1.1,0.5c0.4,0.2,0.8,0.4,1.2,0.5
	c0.4,0.2,0.8,0.4,1.2,0.5c0.5,0.2,0.9,0.4,1.3,0.6c0.5,0.1,0.9,0.3,1.4,0.5c0.4,0.1,0.8,0.3,1.3,0.5c0.5,0.1,0.9,0.3,1.4,0.5
	c1,0.2,2,0.5,2.9,0.9c0.5,0.1,0.9,0.2,1.4,0.3c0.5,0.1,0.9,0.3,1.4,0.4c0.4,0.1,0.8,0.1,1.3,0.2c0.4,0.1,0.8,0.2,1.3,0.3
	c0.4,0,0.8,0,1.2,0.1c0.4,0,0.8,0,1.1,0.1c0.4,0,0.8,0,1.1-0.1c0.6,0,1.2-0.1,1.8-0.3c0.2-0.1,0.4-0.3,0.7-0.4
	c0.2-0.1,0.4-0.2,0.5-0.4c0.2-0.2,0.3-0.4,0.4-0.6c0.1-0.2,0.2-0.4,0.3-0.7c0.1-0.2,0.1-0.4,0.1-0.6c0.1-0.2,0.1-0.4,0-0.6
	c0-0.2,0-0.4-0.1-0.5c-0.1-0.2-0.2-0.4-0.3-0.5c-0.1-0.2-0.3-0.4-0.4-0.5c-0.2-0.1-0.4-0.3-0.5-0.4c-0.2-0.1-0.4-0.3-0.7-0.4
	c-0.2-0.1-0.4-0.3-0.7-0.4c-0.3-0.1-0.6-0.2-0.9-0.3c-0.3-0.1-0.6-0.2-0.9-0.3c-0.4-0.1-0.8-0.2-1.1-0.3c-0.4-0.1-0.8-0.1-1.1-0.2
	c-0.8-0.2-1.7-0.4-2.5-0.6c-0.9-0.1-1.9-0.3-2.8-0.4c-1-0.2-2-0.4-3-0.5c-1.1-0.2-2.1-0.4-3.2-0.6c-0.6-0.1-1.2-0.1-1.7-0.2
	c-0.5-0.1-1.1-0.2-1.7-0.3c-0.5-0.1-1.1-0.3-1.7-0.4c-1.4-0.2-3-0.5-4.3-1.2c-0.4-0.1-0.8-0.3-1.2-0.5c-0.8-0.4-1.5-0.9-2.2-1.5
	c-0.4-0.3-0.7-0.6-1-0.9c-0.3-0.3-0.7-0.7-1-1c-2.1-2.6-3.3-5.3-4.2-8.5c-0.1-0.9-0.3-1.9-0.4-2.8c0-0.9,0-1.9,0-2.8
	c0.1-1,0.3-2.1,0.5-3.1c0.1-1,0.4-2,0.8-2.9c0.4-1.3,1-2.6,1.8-3.7c0.3-0.3,0.5-0.7,0.8-1.1c0.2-0.3,0.5-0.7,0.8-1
	c0.3-0.3,0.6-0.7,0.9-1c0.3-0.3,0.6-0.6,0.9-0.9c0.6-0.6,1.3-1.2,2.1-1.7c0.3-0.3,0.7-0.5,1.1-0.8c0.4-0.2,0.8-0.4,1.2-0.7
	c1.1-0.7,2.5-1.3,3.7-1.8c0.4-0.1,0.8-0.3,1.3-0.5c1.3-0.4,2.7-0.8,4-1.2c0.5-0.1,0.9-0.2,1.4-0.3c0.5-0.1,0.9-0.2,1.4-0.3
	c1.4-0.2,2.8-0.5,4.2-0.5c0.5-0.1,0.9-0.1,1.4-0.1c0.9-0.1,1.9-0.1,2.8-0.2c0.5,0,1,0,1.5,0c2.5,0.4,5.1,0.5,7.7,0.8
	c0.5,0.1,1.1,0.2,1.6,0.3c1,0.3,2.1,0.5,3.1,0.7c0.5,0.1,1.1,0.3,1.6,0.5c1,0.2,2,0.5,3,0.9c0.5,0.1,0.9,0.3,1.4,0.4
	c0.5,0.2,0.9,0.4,1.4,0.6c0.9,0.3,1.8,0.6,2.7,1c0.8,0.4,1.6,0.8,2.4,1.2c0.4,0.1,0.8,0.3,1.2,0.5c0.7,0.4,1.3,0.8,2,1.2
	c0.3,0.2,0.6,0.4,0.9,0.6c0.3,0.2,0.5,0.4,0.8,0.6c0.2,0.2,0.4,0.4,0.7,0.6c0.2,0.1,0.4,0.3,0.5,0.5c0.2,0.2,0.4,0.4,0.5,0.6
	c0.3,0.3,0.5,0.6,0.6,1C703.7,640.4,703.8,640.6,703.8,640.9C703.9,641.2,703.8,640.6,703.8,640.9z"/>
<path d="M772.9,629.1c0.2,0.1,0.3,0.3,0.3,0.5c0.1,0.1,0.1,0.3,0.2,0.4c0,0.5,0.2,1.4,0.3,1.9c0,0.3,0,0.5,0,0.8
	c0.1,0.6,0.1,1.3,0.1,1.9c0.5,2.8,0.3,6.4,0,9.2c0,1.6,0,3.2,0,4.8c-0.3,2.2-0.1,4.5-0.1,6.8c-0.4,3.5-0.1,7.2-0.1,10.7
	c0.1,1.2,0.1,2.4,0.1,3.6c0.1,1.2,0.1,2.4,0.2,3.6c0,0.5,0,1.1,0.1,1.7c0.1,1.2,0.1,2.3,0.2,3.5c0.1,0.6,0.1,1.2,0.2,1.7
	c0.1,1.1,0.1,2.2,0.2,3.3c0.1,0.5,0.1,1.1,0.2,1.6c0.1,1,0.1,2,0.2,3c0.1,0.5,0.1,0.9,0.1,1.4c0.1,0.5,0.1,0.9,0.2,1.4
	c0,0.4,0,0.8,0.1,1.3c0,0.4,0,0.8,0.1,1.2c0,0.4,0,0.8,0,1.1c0.1,0.7,0.1,1.4,0.2,2.1c0,0.9,0.2,2-0.1,2.9c0,0.2,0,0.4,0,0.5
	c-0.1,0.1-0.1,0.3-0.1,0.4c-0.1,0.1-0.1,0.1-0.2,0.2c0,0.1-0.1,0.1-0.2,0.1c-0.1,0.1-0.3,0.1-0.4,0.1c-0.6,0.1-1.1,0.2-1.7,0.2
	c-0.4,0-0.8,0-1.1,0c-1,0.1-1.9,0.1-2.9,0.1c-3.7,0.5-8.2,0.5-12,0c-1,0-2.1,0-3.1-0.1c-0.5,0-0.9,0-1.4,0c-0.4-0.1-0.8-0.1-1.2-0.1
	c-0.3-0.1-0.7-0.1-1-0.1c-0.3-0.1-0.5-0.1-0.8-0.2c-0.1,0-0.3,0-0.5-0.1c-0.3-0.1-0.6-0.3-0.9-0.4c-0.4-0.2-0.7-0.6-0.8-1.1
	c-0.1-0.5-0.2-1-0.1-1.5c0.1-0.9,0.2-1.7,0.1-2.5c-0.1-0.3-0.3,0-0.6,0.7c-0.1,0.2-0.3,0.4-0.6,0.7c-0.2,0.2-0.4,0.4-0.7,0.6
	c-0.7,0.7-1.5,1.2-2.3,1.8c-0.3,0.1-0.6,0.3-0.9,0.5c-0.3,0.1-0.6,0.3-0.9,0.4c-0.6,0.4-1.3,0.6-2,0.8c-0.3,0.1-0.7,0.3-1,0.4
	c-0.4,0.1-0.8,0.2-1.1,0.3c-1.1,0.2-2.3,0.4-3.4,0.6c-0.3,0-0.7,0-1.1,0.1c-1.2,0-2.4,0.1-3.6-0.1c-1.2,0-2.5-0.3-3.7-0.5
	c-0.4-0.1-0.8-0.2-1.2-0.3c-0.8-0.3-1.6-0.5-2.4-0.8c-0.4-0.2-0.8-0.4-1.2-0.5c-0.4-0.2-0.8-0.4-1.1-0.6c-0.8-0.4-1.6-0.8-2.3-1.3
	c-0.4-0.3-0.8-0.5-1.1-0.8c-0.4-0.3-0.8-0.5-1.1-0.8c-1-1-2.1-1.9-3.1-3c-0.6-0.7-1.2-1.5-1.8-2.3c-0.5-0.9-1-1.8-1.6-2.7
	c-0.3-0.5-0.5-0.9-0.7-1.4c-0.8-1.3-1.3-2.8-1.9-4.2c-0.1-0.5-0.3-1-0.5-1.5c-0.1-0.5-0.3-1-0.4-1.5c-0.4-0.9-0.7-1.9-0.8-2.9
	c-0.1-0.5-0.3-1.1-0.4-1.6c-0.1-0.5-0.2-1-0.3-1.5c-0.3-2-0.5-4.1-0.8-6.1c0-0.5,0-1-0.1-1.5c0-0.5,0-1-0.1-1.5c0-1,0-2.1,0-3.1
	c-0.1-0.5-0.1-1,0-1.5c0-1,0-2,0-3c0.1-0.5,0.1-0.9,0.1-1.4c0.1-0.5,0.1-1,0.1-1.5c0.1-0.5,0.1-0.9,0.2-1.4c0-3,0.8-6.2,1.3-9.2
	c0.2-0.8,0.4-1.6,0.5-2.4c0.2-0.7,0.4-1.4,0.6-2.1c0.1-0.3,0.2-0.7,0.3-1.1c0.1-0.3,0.1-0.6,0.2-0.9c0.1-0.3,0.2-0.7,0.3-1
	c0.2-0.6,0.4-1.1,0.6-1.7c0.1-0.2,0.2-0.4,0.3-0.7c0.1-0.3,0.2-0.5,0.3-0.7c0.1-0.3,0.1-0.5,0.2-0.7c0.1-0.2,0.2-0.4,0.3-0.6
	c0.1-0.1,0.2-0.3,0.3-0.5c0.1-0.1,0.1-0.3,0.2-0.5c0.1-0.1,0.2-0.3,0.3-0.4c0.1-0.1,0.1-0.2,0.2-0.3c0.1-0.1,0.4-0.5,0.6-0.5
	c1-0.3,2-0.4,3.1-0.6c0.5,0,0.9,0,1.4-0.1c0.5,0,1.1,0,1.6-0.1c0.5,0,1.1,0,1.6-0.1c2.1,0,4.4-0.2,6.5,0.1c0.5,0,0.9,0,1.4,0
	c0.4,0.1,0.8,0.1,1.1,0.1c0.3,0.1,0.7,0.1,1,0.2c0.3,0,0.5,0,0.7,0.1c0.1,0.1,0.3,0.1,0.4,0.2c0,0.6,0.1,1.3-0.1,1.9
	c0,0.3,0,0.5-0.1,0.7c0,0.3,0,0.5-0.1,0.8c0,0.3,0,0.6-0.1,0.9c-0.1,0.7-0.1,1.4-0.2,2.1c-0.2,0.8-0.3,1.5-0.3,2.3
	c-0.2,0.9-0.3,1.7-0.3,2.6c-0.1,0.5-0.1,0.9-0.2,1.4c-0.1,1-0.1,1.9-0.2,2.9c-0.1,0.5-0.1,1-0.2,1.5c0,0.5,0,1-0.1,1.5
	c0,0.5,0,1,0,1.5c-0.1,1-0.1,2.1-0.1,3.1c-0.1,1.1-0.1,2.1-0.1,3.2c0.1,1,0.1,2.1,0.2,3.1c0,0.5,0,1,0.1,1.5c0,1.4,0.2,2.9,0.6,4.3
	c0.1,0.5,0.1,0.9,0.2,1.4c0.5,1.6,0.8,3.5,1.7,4.9c0.5,1,1.1,2.2,1.9,3c0.4,0.6,1,1.1,1.6,1.5c0.9,0.7,1.9,1.1,2.9,1.5
	c0.8,0.1,1.6,0.3,2.4,0.4c0.3,0,0.7,0,1.1-0.1c0.3,0,0.7,0,1-0.1c0.6-0.2,1.3-0.5,1.9-0.8c0.9-0.6,1.7-1.2,2.4-2.1
	c0.3-0.3,0.5-0.7,0.7-1c0.3-0.3,0.5-0.7,0.7-1c0.2-0.4,0.4-0.8,0.6-1.2c0.4-1.3,1-2.5,1.4-3.8c0.2-0.5,0.4-1,0.5-1.5
	c0.2-1,0.4-2,0.7-3c0.1-0.5,0.2-1.1,0.3-1.6c0.1-1.1,0.3-2.1,0.5-3.2c0.2-1.1,0.3-2.3,0.3-3.4c0.2-1.1,0.3-2.2,0.3-3.3
	c0.1-0.5,0.1-1.1,0.1-1.7c0.1-0.5,0.1-1.1,0.1-1.6c0.1-1.1,0.1-2.1,0.2-3.2c0-1,0-2.1,0.1-3.1c0-1.8,0-3.5,0-5.3
	c0.3-1.6-0.2-3.2,0.2-4.8c0-0.4,0-0.7,0.1-1.1c0-0.1,0-0.3,0-0.4c0.1-0.1,0.1-0.1,0.1-0.2c0.1-0.1,0.2-0.1,0.3-0.2
	c0.3-0.1,0.5-0.1,0.7-0.1c0.7-0.2,1.4-0.3,2.1-0.4c1-0.1,1.9-0.1,2.9-0.2c0.5-0.1,1.1-0.1,1.7-0.1c1.2-0.1,2.3-0.1,3.5-0.2
	c1.7,0,3.4,0,5.1,0c1.3,0.2,2.8,0.3,4.1,0.3c0.3,0.1,0.6,0.1,0.9,0.2C772.5,629,772.7,629.1,772.9,629.1
	C773,629.2,772.7,629.1,772.9,629.1z"/>
<g>
	<path fill="#F1CC5A" d="M418.5,729.6H265.2c-12.8,0-23.2-10.4-23.2-23.2v-128c0-12.8,10.4-23.2,23.2-23.2h153.3
		c12.8,0,23.2,10.4,23.2,23.2v128C441.7,719.1,431.3,729.6,418.5,729.6z"/>
	<path fill="#FFEDBB" d="M407.1,714.7H276.6c-12.8,0-23.2-10.4-23.2-23.2v-97.9c0-12.8,10.4-23.2,23.2-23.2h130.6
		c12.8,0,23.2,10.4,23.2,23.2v97.9C430.3,704.3,419.9,714.7,407.1,714.7z"/>
</g>
</svg>
