<?xml version="1.0" encoding="utf-8"?>
<!-- Generator: Adobe Illustrator 18.0.0, SVG Export Plug-In . SVG Version: 6.00 Build 0)  -->
<!DOCTYPE svg PUBLIC "-//W3C//DTD SVG 1.0//EN" "http://www.w3.org/TR/2001/REC-SVG-20010904/DTD/svg10.dtd">
<svg version="1.0" id="Camada_1" xmlns="http://www.w3.org/2000/svg" xmlns:xlink="http://www.w3.org/1999/xlink" x="0px" y="0px"
	 viewBox="0 0 1024 768" enable-background="new 0 0 1024 768" xml:space="preserve">
<image overflow="visible" width="1500" height="1500" xlink:href="../../../Desenhos Jogo Yegatu/png2/tasiwa.png"  transform="matrix(0.6625 0 0 0.6625 13.8262 -198.9062)">
</image>
<g enable-background="new    ">
	<path d="M539.3,640.9c0.1,0.3,0.1,0.6,0,0.9c-0.1,0.7-0.2,1.5-0.3,2.2c-0.3,0.8-0.5,1.6-0.8,2.4c-0.7,1.7-1.5,3.5-2.5,5.1
		c-0.2,0.4-0.4,0.8-0.7,1.2c-0.2,0.3-0.4,0.7-0.7,1.1c-0.2,0.3-0.4,0.6-0.7,0.9c-0.2,0.3-0.4,0.5-0.7,0.8c-0.2,0.3-0.4,0.5-0.6,0.7
		c-0.4,0.3-0.7,0.5-1.1,0.7c-0.2,0-0.4,0-0.5,0c-0.1-0.1-0.2-0.2-0.3-0.3c-0.3-0.4-0.7-0.8-1-1.2c-0.8-1.1-2-2.3-3.1-3.2
		c-0.7-0.7-1.5-1.3-2.3-1.9c-1.1-0.9-2.3-1.8-3.6-2.4c-1.2-0.8-2.5-1.3-3.7-1.9c-0.4-0.1-0.8-0.3-1.3-0.5c-0.8-0.3-1.6-0.5-2.4-0.7
		c-1.1-0.4-2.3-0.5-3.5-0.7c-1,0-2.1-0.1-3.1,0.1c-0.6,0-1.2,0.1-1.8,0.4c-0.5,0.2-1,0.4-1.5,0.7c-0.3,0.1-0.5,0.3-0.7,0.4
		c-0.2,0.2-0.4,0.4-0.5,0.6c-0.2,0.2-0.4,0.4-0.5,0.6c-0.4,0.8-0.8,1.6-0.8,2.5c-0.2,0.9,0,1.7,0.2,2.6c0.4,0.7,0.8,1.3,1.5,1.8
		c0.5,0.4,1,0.6,1.6,0.9c0.3,0.1,0.7,0.2,1,0.3c0.3,0.1,0.7,0.2,1,0.3c1.2,0.4,2.4,0.4,3.6,0.8c0.9,0.2,1.9,0.3,2.8,0.3
		c0.9,0.1,1.9,0.3,2.8,0.4c1.5,0.4,3,0.4,4.5,0.8c0.5,0.1,1,0.2,1.5,0.3c1,0.2,1.9,0.4,2.9,0.7c1.4,0.6,2.8,1,4.2,1.6
		c0.5,0.3,0.9,0.5,1.3,0.7c0.5,0.3,0.9,0.5,1.3,0.7c0.4,0.3,0.8,0.5,1.1,0.8c0.4,0.3,0.8,0.6,1.2,0.9c0.3,0.3,0.7,0.5,1,0.8
		c0.6,0.7,1.2,1.3,1.8,1.9c0.6,0.6,1.1,1.3,1.6,2c0.5,0.7,0.9,1.4,1.3,2.2c0.2,0.3,0.4,0.7,0.6,1.1c0.1,0.4,0.3,0.8,0.4,1.1
		c0.2,0.4,0.4,0.8,0.5,1.2c0.1,0.4,0.2,0.8,0.3,1.2c0.1,0.4,0.2,0.8,0.3,1.1c0.2,0.8,0.3,1.6,0.3,2.4c0.2,1.2,0.2,2.5,0,3.7
		c0,1.2-0.2,2.5-0.6,3.6c-0.1,0.3-0.2,0.6-0.3,0.9c-0.1,0.3-0.2,0.7-0.3,1c-0.1,0.3-0.2,0.6-0.3,0.9c-0.3,0.6-0.6,1.1-0.9,1.7
		c-0.1,0.3-0.3,0.5-0.5,0.8c-0.1,0.3-0.3,0.5-0.5,0.7c-0.8,1.1-1.8,1.9-2.8,2.9c-0.5,0.4-1.1,0.8-1.7,1.2c-0.6,0.4-1.2,0.8-1.9,1.1
		c-0.3,0.2-0.7,0.4-1.1,0.5c-0.8,0.4-1.5,0.7-2.3,1c-1.3,0.4-2.6,0.9-4,1.1c-0.5,0.1-1,0.3-1.5,0.4c-0.5,0.1-1,0.2-1.5,0.3
		c-0.5,0.1-1.1,0.2-1.6,0.3c-3,0.3-6.1,0.9-9.2,0.9c-0.7,0.1-1.4,0.1-2.1,0.1c-3.2,0.3-6.4,0.1-9.6,0.1c-0.5-0.1-1-0.1-1.5-0.2
		c-1.6,0-3.1-0.3-4.7-0.5c-1.5-0.4-3.1-0.7-4.6-0.9c-1-0.3-2-0.5-3-0.7c-1-0.2-1.9-0.5-2.8-0.9c-0.9-0.2-1.7-0.5-2.6-0.9
		c-0.7-0.2-1.4-0.5-2.1-0.9c-0.3-0.1-0.7-0.3-1-0.5c-0.3-0.1-0.5-0.3-0.8-0.5c-0.2-0.1-0.4-0.3-0.7-0.5c-0.2-0.1-0.4-0.3-0.5-0.5
		c-0.1-0.1-0.3-0.3-0.4-0.5c-0.1-0.1-0.2-0.3-0.2-0.4c-0.1-0.5-0.1-1-0.1-1.5c0.4-2.1,1.3-4,1.9-6.1c0.5-0.9,0.9-1.9,1.3-2.9
		c0.3-0.5,0.5-1,0.8-1.5c0.5-0.9,0.9-1.9,1.4-2.8c0.3-0.5,0.5-0.9,0.8-1.4c0.5-0.8,0.9-1.6,1.4-2.4c0.2-0.3,0.4-0.7,0.7-1
		c0.2-0.3,0.4-0.5,0.6-0.8c0.1-0.3,0.3-0.5,0.5-0.7c0.1-0.2,0.3-0.4,0.5-0.5c0.2-0.2,0.4-0.3,0.6-0.2c0.1,0.1,0.3,0.2,0.4,0.3
		c0.2,0.1,0.4,0.2,0.6,0.3c0.5,0.3,1.1,0.5,1.6,0.8c0.3,0.2,0.7,0.4,1,0.5c0.4,0.2,0.8,0.4,1.1,0.5c0.4,0.2,0.8,0.4,1.2,0.5
		c0.4,0.2,0.8,0.4,1.2,0.5c0.5,0.2,0.9,0.4,1.3,0.6c0.5,0.1,0.9,0.3,1.4,0.5c0.4,0.1,0.8,0.3,1.3,0.5c0.5,0.1,0.9,0.3,1.4,0.5
		c1,0.2,2,0.5,2.9,0.9c0.5,0.1,0.9,0.2,1.4,0.3c0.5,0.1,0.9,0.3,1.4,0.4c0.4,0.1,0.8,0.1,1.3,0.2c0.4,0.1,0.8,0.2,1.3,0.3
		c0.4,0,0.8,0,1.2,0.1c0.4,0,0.8,0,1.1,0.1c0.4,0,0.8,0,1.1-0.1c0.6,0,1.2-0.1,1.8-0.3c0.2-0.1,0.4-0.3,0.7-0.4
		c0.2-0.1,0.4-0.2,0.5-0.4c0.2-0.2,0.3-0.4,0.4-0.6c0.1-0.2,0.2-0.4,0.3-0.7c0.1-0.2,0.1-0.4,0.1-0.6c0.1-0.2,0.1-0.4,0-0.6
		c0-0.2,0-0.4-0.1-0.5c-0.1-0.2-0.2-0.4-0.3-0.5c-0.1-0.2-0.3-0.4-0.4-0.5c-0.2-0.1-0.4-0.3-0.5-0.4c-0.2-0.1-0.4-0.3-0.7-0.4
		c-0.2-0.1-0.4-0.3-0.7-0.4c-0.3-0.1-0.6-0.2-0.9-0.3c-0.3-0.1-0.6-0.2-0.9-0.3c-0.4-0.1-0.8-0.2-1.1-0.3c-0.4-0.1-0.8-0.1-1.1-0.2
		c-0.8-0.2-1.7-0.4-2.5-0.6c-0.9-0.1-1.9-0.3-2.8-0.4c-1-0.2-2-0.4-3-0.5c-1.1-0.2-2.1-0.4-3.2-0.6c-0.6-0.1-1.2-0.1-1.7-0.2
		c-0.5-0.1-1.1-0.2-1.7-0.3c-0.5-0.1-1.1-0.3-1.7-0.4c-1.4-0.2-3-0.5-4.3-1.2c-0.4-0.1-0.8-0.3-1.2-0.5c-0.8-0.4-1.5-0.9-2.2-1.5
		c-0.4-0.3-0.7-0.6-1-0.9c-0.3-0.3-0.7-0.7-1-1c-2.1-2.6-3.3-5.3-4.2-8.5c-0.1-0.9-0.3-1.9-0.4-2.8c0-0.9,0-1.9,0-2.8
		c0.1-1,0.3-2.1,0.5-3.1c0.1-1,0.4-2,0.8-2.9c0.4-1.3,1-2.6,1.8-3.7c0.3-0.3,0.5-0.7,0.8-1.1c0.2-0.3,0.5-0.7,0.8-1
		c0.3-0.3,0.6-0.7,0.9-1c0.3-0.3,0.6-0.6,0.9-0.9c0.6-0.6,1.3-1.2,2.1-1.7c0.3-0.3,0.7-0.5,1.1-0.8c0.4-0.2,0.8-0.4,1.2-0.7
		c1.1-0.7,2.5-1.3,3.7-1.8c0.4-0.1,0.8-0.3,1.3-0.5c1.3-0.4,2.7-0.8,4-1.2c0.5-0.1,0.9-0.2,1.4-0.3c0.5-0.1,0.9-0.2,1.4-0.3
		c1.4-0.2,2.8-0.5,4.2-0.5c0.5-0.1,0.9-0.1,1.4-0.1c0.9-0.1,1.9-0.1,2.8-0.2c0.5,0,1,0,1.5,0c2.5,0.4,5.1,0.5,7.7,0.8
		c0.5,0.1,1.1,0.2,1.6,0.3c1,0.3,2.1,0.5,3.1,0.7c0.5,0.1,1.1,0.3,1.6,0.5c1,0.2,2,0.5,3,0.9c0.5,0.1,0.9,0.3,1.4,0.4
		c0.5,0.2,0.9,0.4,1.4,0.6c0.9,0.3,1.8,0.6,2.7,1c0.8,0.4,1.6,0.8,2.4,1.2c0.4,0.1,0.8,0.3,1.2,0.5c0.7,0.4,1.3,0.8,2,1.2
		c0.3,0.2,0.6,0.4,0.9,0.6c0.3,0.2,0.5,0.4,0.8,0.6c0.2,0.2,0.4,0.4,0.7,0.6c0.2,0.1,0.4,0.3,0.5,0.5c0.2,0.2,0.4,0.4,0.5,0.6
		c0.3,0.3,0.5,0.6,0.6,1C539.2,640.4,539.3,640.6,539.3,640.9C539.4,641.2,539.3,640.6,539.3,640.9z"/>
	<path d="M565.2,582.6c0.9,0.3,1.6,0.7,2.4,1.2c0.3,0.2,0.7,0.4,1.1,0.7c0.3,0.2,0.7,0.5,1,0.8c0.3,0.3,0.6,0.5,0.9,0.8
		c1.3,1,2.3,2.6,3,4c0.2,0.3,0.4,0.7,0.6,1.1c0.1,0.3,0.3,0.7,0.4,1.1c0.2,0.4,0.3,0.8,0.4,1.2c0.5,1.6,0.6,3.2,0.6,4.9
		c-0.1,0.4-0.1,0.8-0.1,1.2c-0.1,0.4-0.2,0.8-0.3,1.2c-0.2,1.2-0.6,2.6-1.2,3.6c-0.2,0.4-0.4,0.8-0.6,1.1c-0.2,0.4-0.4,0.8-0.7,1.1
		c-0.5,0.7-1,1.4-1.5,2c-0.8,0.8-1.8,1.8-2.8,2.4c-0.3,0.3-0.7,0.5-1.1,0.7c-0.3,0.2-0.7,0.4-1.1,0.6c-0.3,0.2-0.7,0.4-1.1,0.6
		c-2,0.7-4.1,1.4-6.3,1.4c-0.5,0.1-0.9,0.1-1.4,0.1c-0.4-0.1-0.8-0.1-1.3-0.1c-1.4-0.2-2.7-0.4-4-1c-0.5-0.1-0.9-0.3-1.2-0.5
		c-0.4-0.3-0.8-0.5-1.2-0.8c-0.3-0.2-0.7-0.5-1-0.8c-0.3-0.3-0.6-0.6-0.9-0.9c-0.6-0.6-1.2-1.3-1.6-2.1c-1.2-1.8-2.1-4-2.5-6.2
		c-0.1-0.5-0.2-0.9-0.2-1.3c-0.1-0.5-0.1-0.9-0.2-1.3c0-0.9,0-1.7,0-2.6c0.1-0.4,0.1-0.8,0.1-1.2c0.1-0.4,0.2-0.8,0.3-1.2
		c0.1-0.8,0.4-1.6,0.8-2.3c0.1-0.4,0.3-0.8,0.5-1.1c0.4-0.7,0.8-1.4,1.3-2.1c0.3-0.4,0.5-0.7,0.8-1c0.3-0.3,0.5-0.7,0.8-1
		c0.3-0.3,0.6-0.6,0.9-0.9c0.6-0.5,1.3-1,2-1.5c0.3-0.3,0.7-0.5,1.1-0.7c0.3-0.2,0.7-0.4,1.1-0.6c1-0.6,2.3-0.9,3.5-1.3
		c0.8-0.2,1.7-0.3,2.5-0.3C561,581.2,563.4,581.7,565.2,582.6C565.6,582.7,564.8,582.4,565.2,582.6z M549,629.5c0,0.1,0,0.2-0.1,0.3
		c-0.1,0.3-0.1,0.6-0.2,0.9c-0.1,0.2-0.1,0.4-0.2,0.6c0,0.3,0,0.5-0.1,0.7c-0.1,0.3-0.1,0.5-0.1,0.8c-0.2,0.6-0.3,1.3-0.3,1.9
		c-0.2,0.8-0.3,1.5-0.3,2.3c-0.1,0.8-0.3,1.7-0.4,2.5c0,1.4-0.4,2.8-0.4,4.3c-0.1,1-0.3,2.1-0.4,3.1c0,1.7-0.4,3.3-0.4,5
		c-0.2,1.2-0.3,2.3-0.3,3.5c-0.2,1.2-0.3,2.4-0.3,3.6c-0.1,0.6-0.1,1.2-0.2,1.8c-0.1,1.2-0.1,2.4-0.2,3.6c-0.1,0.7-0.1,1.3-0.2,1.9
		c0,0.6,0,1.2-0.1,1.8c-0.1,1.2-0.1,2.4-0.2,3.6c-0.1,1.2-0.1,2.4-0.2,3.6c0,0.5,0,1.1-0.1,1.7c0,0.5,0,1.1-0.1,1.7
		c0,0.5,0,1.1,0,1.7c-0.2,1.6,0,3.1-0.2,4.7c0,2.6-0.3,5.4,0.1,8c0,0.7,0,1.4,0.1,2.1c0,0.3,0,0.6,0,0.9c0.1,0.3,0.1,0.5,0.1,0.8
		c0.1,0.2,0.1,0.4,0.1,0.7c0.1,0.2,0.1,0.4,0.1,0.6c0.1,0.2,0.1,0.4,0.2,0.5c0,0.4,0.3,0.7,0.5,0.9c0.2,0.1,0.4,0.1,0.6,0.2
		c0.5,0.2,1.1,0.4,1.7,0.5c0.8,0.2,1.6,0.3,2.4,0.3c0.5,0.1,0.9,0.1,1.4,0.2c0.5,0,0.9,0,1.4,0.1c0.5,0,1.1,0,1.6,0.1
		c0.5,0,1.1,0,1.6,0.1c1.1,0,2.2,0,3.3,0c1.1,0.1,2.2,0.1,3.3,0.1c1.6-0.2,3.1,0,4.7-0.2c0.5,0,0.9,0,1.4-0.1c0.4,0,0.8,0,1.3-0.1
		c0.7-0.1,1.5-0.1,2.2-0.2c0.5-0.1,1-0.2,1.5-0.4c0.1,0,0.2,0,0.2-0.1c0.1-0.1,0.2-0.1,0.3-0.2c0.1-0.1,0.1-0.3,0.1-0.4
		c0.2-0.5,0.5-1.1,0.5-1.7c0.1-0.3,0.1-0.5,0.2-0.8c0-0.3,0-0.6,0.1-0.9c0-0.3,0-0.6,0.1-0.9c0-0.4,0-0.8,0.1-1.1
		c0-0.3,0-0.7,0.1-1.1c0-0.4,0-0.8,0-1.2c0.1-0.9,0.1-1.7,0.2-2.6c0-1.9-0.1-4,0.1-5.9c0-1.1,0-2.1-0.1-3.2c0-2.3,0.1-4.6-0.1-6.9
		c0-1.2,0-2.4-0.1-3.6c0-0.6,0-1.2,0-1.8c-0.1-1.2-0.1-2.4-0.2-3.6c0-0.6,0-1.2-0.1-1.9c0-0.6,0-1.2,0-1.8c-0.1-0.6-0.1-1.2-0.1-1.8
		c-0.1-0.6-0.1-1.2-0.1-1.7c-0.1-0.6-0.1-1.2-0.1-1.8c-0.1-0.6-0.1-1.2-0.1-1.8c-0.1-0.5-0.1-1.1-0.1-1.7c-0.1-0.5-0.1-1.1-0.1-1.7
		c-0.1-0.5-0.1-1.1-0.2-1.6c0-0.5,0-1.1-0.1-1.6c0-0.5,0-1.1-0.1-1.6c-0.1-1-0.1-1.9-0.2-2.9c-0.1-0.5-0.1-0.9-0.2-1.4
		c0-0.5,0-0.9-0.1-1.4c-0.1-0.8-0.1-1.7-0.2-2.5c-0.1-0.3-0.1-0.7-0.2-1.1c0-0.3,0-0.7-0.1-1c-0.1-0.6-0.1-1.3-0.2-1.9
		c-0.1-0.3-0.1-0.5-0.1-0.8c-0.1-0.2-0.1-0.4-0.2-0.7c0-0.2,0-0.4-0.1-0.6c0-0.1,0-0.3-0.1-0.5c-0.1-0.2-0.1-0.4-0.2-0.6l-0.1-0.1
		c-0.1-0.1-0.3-0.2-0.5-0.3c-1.7-0.8-4-0.8-5.8-1.1c-0.6,0-1.2,0-1.7-0.1c-0.5,0-1.1,0-1.6-0.1c-0.6,0-1.2,0-1.8,0
		c-1.6-0.2-3.4-0.2-5,0c-0.5,0-1,0-1.5,0.1c-1.2,0-3.3,0.1-4.4,0.8c-0.2,0.1-0.4,0.2-0.5,0.3C549.1,629.4,549,629.5,549,629.5
		C549,629.6,549,629.5,549,629.5z"/>
	<path d="M579.3,630.6c0.1-0.1,0.3-0.2,0.4-0.3c0.5-0.2,1-0.3,1.5-0.4c0.4-0.1,0.8-0.1,1.1-0.1c0.9-0.2,1.8-0.3,2.7-0.3
		c0.5-0.1,1-0.1,1.5-0.2c0.5,0,1.1,0,1.6,0c1.1-0.1,2.3-0.1,3.4-0.2c1.7,0,3.5,0,5.2,0c1.1,0.1,2.1,0.1,3.2,0.2c0.5,0,1,0,1.5,0.1
		c0.4,0,0.8,0,1.3,0.1c1,0,1.9,0.3,2.9,0.5c0.1,0.1,0.3,0.1,0.5,0.2c0.1,0.1,0.1,0.2,0.2,0.3c0.1,0.1,0.2,0.2,0.3,0.3
		c0.3,0.7,0.6,1.4,0.8,2.1c0.1,0.3,0.1,0.5,0.1,0.8c0.3,1.2,0.7,2.5,0.7,3.8c0.7,3.5,0.8,7.1,1.7,10.6c0.1,0.5,0.1,1.1,0.2,1.6
		c0.1,0.5,0.2,1.1,0.3,1.6c0.1,0.5,0.3,1.1,0.4,1.6c0.3,2.9,1.3,5.8,1.9,8.7c0.2,0.7,0.4,1.3,0.5,1.9c0.4,0.6,0.6,1.2,0.6,1.8
		c-0.1,1.1,0.1,1.7,0.6,1.9c0.3,0.1,0.5-0.3,0.7-1.4c0.6-2,2.2-3.8,2.9-5.8c0.3-0.5,0.5-1,0.7-1.5c0.8-1.5,1.4-3.1,2.2-4.6
		c0.6-1.5,1.3-3,2-4.5c1.2-2.8,2.5-5.6,3.7-8.5c0.3-0.8,0.7-1.7,1.1-2.5c0.3-0.7,0.7-1.5,1-2.2c0.2-0.3,0.4-0.7,0.5-1.1
		c0.1-0.3,0.3-0.6,0.5-0.9c0.4-1.1,1.1-2,1.6-3.1c0.1-0.1,0.3-0.3,0.4-0.5c0.2-0.3,0.4-0.5,0.6-0.7c0.3-0.2,0.4-0.3,0.8-0.3
		c0.1,0.1,0.2,0.1,0.3,0.1c0.1,0.1,0.2,0.2,0.3,0.3c0.3,0.3,0.5,0.5,0.8,0.8c0.3,0.4,0.5,0.8,0.8,1.2c0.2,0.3,0.4,0.5,0.5,0.7
		c0.2,0.3,0.4,0.5,0.5,0.8c0.2,0.3,0.4,0.6,0.5,0.9c0.4,0.6,0.8,1.3,1.1,2c0.9,1.5,1.7,3.1,2.5,4.7c0.8,1.2,1.4,2.7,2.1,4
		c0.2,0.5,0.4,0.9,0.7,1.4c1.1,2.5,2.5,4.8,3.6,7.3c1,2,2.1,3.9,3,6c0.5,1,1,1.9,1.5,2.9c0.5,1,1,1.9,1.5,2.9c0.2,1,0.4,1.4,0.7,1.3
		c0.5-1.2,0.8-2.4,1-3.6c0.2-0.5,0.3-1.1,0.4-1.7c0.3-1.2,0.5-2.3,0.7-3.5c0.1-0.6,0.3-1.2,0.4-1.7c0.1-1.1,0.3-2.3,0.5-3.4
		c0.2-1.6,0.5-3.2,0.5-4.8c0.2-1,0.3-1.9,0.3-2.9c0.1-0.5,0.1-1,0.1-1.5c0.1-0.4,0.1-0.8,0.2-1.3c0-0.5,0-0.9,0.1-1.4
		c0-0.4,0-0.8,0-1.2c0.1-0.4,0.1-0.8,0.1-1.2c0.1-0.4,0.1-0.8,0.1-1.2c0.1-0.3,0.1-0.7,0.1-1c0.1-0.3,0.1-0.7,0.1-1
		c0.1-0.3,0.1-0.7,0.1-1c0.1-0.3,0.1-0.5,0.1-0.8c0.1-0.3,0.1-0.5,0.1-0.8c0.1-0.3,0.1-0.5,0.2-0.7c0-0.4,0.1-0.8,0.3-1.2
		c0.1-0.3,0.3-0.5,0.4-0.8c0.1-0.1,0.2-0.1,0.3-0.2c0.7-0.7,2.3-0.8,3.2-0.8c0.4-0.1,0.8-0.1,1.2-0.1c1-0.1,1.9-0.1,2.9-0.2
		c1.1,0,2.1,0,3.2,0c1.1,0.1,2.3,0.1,3.4,0.1c0.6,0.1,1.2,0.1,1.7,0.1c0.6,0.1,1.2,0.1,1.7,0.1c0.5,0.1,1.1,0.1,1.6,0.2
		c1.4,0,2.9,0.3,4.3,0.5c1,0,2.1,0.2,3,0.6c0.2,0.1,0.4,0.1,0.6,0.2c0.1,0.1,0.3,0.1,0.4,0.2c0,0.1,0,0.1,0.1,0.1c0,0.1,0,0.2,0,0.3
		c0.1,0.2,0.2,0.5,0.2,0.7c0,0.3,0,0.7,0,1c0.6,1.8,0.3,5.1,0,6.9c0,0.8,0,1.5-0.1,2.3c0,0.4,0,0.8,0,1.2c-0.1,0.9-0.1,1.7-0.2,2.6
		c0,0.4,0,0.8-0.1,1.3c0,0.5,0,0.9-0.1,1.4c-0.1,1-0.1,1.9-0.2,2.9c-0.2,1-0.3,2-0.3,3c-0.2,1.6-0.4,3.1-0.6,4.7
		c0,1.1-0.2,2.1-0.4,3.2c-0.2,1.6-0.3,3.2-0.7,4.8c-0.1,1.1-0.3,2.2-0.5,3.3c-0.1,0.5-0.2,1.1-0.3,1.6c-0.1,0.5-0.2,1.1-0.3,1.6
		c-0.1,0.5-0.2,1.1-0.3,1.6c-0.2,1.1-0.4,2.1-0.6,3.2c-0.1,0.5-0.3,1.1-0.4,1.6c-0.4,3-1.5,6.1-2.3,9c-0.3,0.9-0.6,1.8-0.9,2.7
		c-0.3,0.9-0.7,1.7-1,2.6c-0.1,0.4-0.3,0.8-0.5,1.2c-0.1,0.4-0.3,0.8-0.5,1.2c-0.2,0.3-0.4,0.7-0.5,1.1c-0.2,0.3-0.4,0.7-0.6,1.1
		c-0.1,0.3-0.3,0.7-0.5,1c-0.1,0.1-0.2,0.1-0.3,0.2c-0.2,0.1-0.4,0.2-0.5,0.3c-0.3,0.1-0.5,0.1-0.7,0.2c-1.5,0.3-3.1,0.7-4.7,0.7
		c-0.5,0.1-1,0.1-1.5,0.2c-0.5,0-1,0-1.5,0.1c-0.6,0-1.2,0-1.7,0.1c-0.6,0-1.2,0-1.7,0c-1.2,0.1-2.4,0.1-3.6,0.1
		c-1.2,0.1-2.3,0.1-3.5,0c-1.1,0-2.3,0-3.4,0c-0.5-0.1-1.1-0.1-1.6-0.1c-0.5-0.1-1-0.1-1.5-0.1c-0.5-0.1-0.9-0.1-1.4-0.1
		c-0.8-0.1-1.6-0.2-2.4-0.4c-0.3,0-0.6-0.1-0.9-0.2c-0.4-0.1-1.3-0.2-1.5-0.7c-0.3-0.5-0.5-0.9-0.8-1.4c-1.3-1.9-2-4.1-3.2-6.1
		c-0.1-0.4-0.3-0.8-0.5-1.2c-0.1-0.3-0.3-0.7-0.5-1.1c-0.3-0.7-0.6-1.4-0.8-2.1c-0.4-1.1-0.9-2.1-1.1-3.2c-0.1-0.4-0.2-0.8-0.3-1.1
		c-0.1-0.4-0.3-0.8-0.4-1.1c-0.1-0.4-0.2-0.8-0.3-1.1c-0.1-0.4-0.2-0.8-0.3-1.2c-0.1-0.4-0.1-0.8-0.2-1.2c-0.1-0.4-0.2-0.8-0.3-1.2
		c-0.3-0.5-0.4-0.9-0.3-1.3c0.1-0.9,0-1.3-0.3-1.3c0,0-1.3,4.6-1.5,5c-0.1,0.4-0.2,0.8-0.3,1.2c-0.1,0.4-0.3,0.8-0.4,1.1
		c-0.2,0.8-0.5,1.5-0.8,2.3c-0.1,0.4-0.3,0.8-0.4,1.2c-0.4,0.7-0.7,1.4-0.9,2.2c-0.2,0.4-0.4,0.8-0.5,1.1c-0.2,0.4-0.4,0.8-0.5,1.1
		c-0.2,0.4-0.4,0.8-0.6,1.1c-0.2,0.4-0.4,0.8-0.6,1.2c-0.4,0.7-0.8,1.5-1.2,2.2c-0.4,0.8-0.9,1.5-1.4,2.3c-0.5,0.8-1.1,1.6-1.6,2.4
		c-0.1,0.1-0.2,0.2-0.3,0.3c-1.1,0.4-2.2,0.7-3.4,0.7c-0.4,0.1-0.8,0.1-1.3,0.2c-0.5,0-0.9,0-1.4,0.1c-0.5,0-1,0-1.5,0.1
		c-0.6,0-1.2,0-1.7,0c-3.4,0.4-7.3,0.4-10.7,0c-1.1,0-2.3,0-3.4-0.1c-0.5,0-1.1,0-1.6-0.1c-1-0.1-1.9-0.1-2.9-0.2
		c-0.4-0.1-0.8-0.1-1.2-0.2c-1,0-2.3-0.2-3.2-0.7c-0.1-0.1-0.1-0.1-0.2-0.2c-0.6-0.9-0.9-2-1.3-3c-1.1-3.3-2.6-6.8-3.1-10.3
		c-0.3-1-0.5-2-0.7-3c-0.1-0.5-0.3-1-0.4-1.5c-0.1-0.5-0.2-1.1-0.3-1.6c-0.2-1-0.4-2.1-0.6-3.1c-0.1-0.5-0.2-1.1-0.3-1.6
		c-0.1-0.5-0.2-1.1-0.3-1.7c-0.2-1.1-0.4-2.1-0.6-3.2c-0.1-0.6-0.1-1.2-0.2-1.7c-0.4-1.6-0.4-3.3-0.8-4.9c-0.5-3.6-1.3-7.5-1.3-11.2
		c-0.1-1-0.3-2-0.4-3c-0.1-1-0.1-1.9-0.2-2.9c-0.1-0.5-0.1-0.9-0.1-1.4c-0.1-0.4-0.1-0.8-0.1-1.3c-0.1-0.5-0.1-0.9-0.1-1.3
		c-0.1-0.5-0.1-0.9-0.1-1.3c-0.1-0.8-0.1-1.5-0.1-2.3c-0.1-0.7-0.1-1.5-0.1-2.2c-0.3-1.3-0.4-3.6,0-4.9c0-0.3,0-0.7,0.1-1
		c0-0.3,0-0.5,0.1-0.8C579.1,630.9,579.1,630.8,579.3,630.6C579.2,630.7,579.2,630.6,579.3,630.6
		C579.4,630.5,579.2,630.6,579.3,630.6z"/>
	<path d="M732.8,691.4c-0.1-0.3-0.3,0-0.6,0.9c-0.1,0.3-0.4,0.5-0.7,0.8c-0.5,0.5-0.9,0.9-1.4,1.4c-0.3,0.3-0.5,0.5-0.7,0.7
		c-0.5,0.4-1,0.9-1.5,1.3c-0.3,0.2-0.5,0.4-0.8,0.6c-0.8,0.4-1.7,1-2.4,1.5c-0.6,0.3-1.1,0.6-1.7,0.8c-0.3,0.1-0.5,0.2-0.8,0.3
		c-0.3,0.1-0.6,0.3-0.9,0.4c-0.3,0.1-0.5,0.1-0.8,0.2c-0.9,0.5-2.5,0.8-3.5,0.8c-0.3,0.1-0.6,0.1-0.9,0.1c-0.6,0.1-1.2,0.1-1.8,0.1
		c-0.3,0.1-0.6,0.1-0.9,0c-0.6,0-1.1,0-1.7,0c-0.3-0.1-0.6-0.1-0.9-0.1c-0.3-0.1-0.6-0.1-0.9-0.2c-0.9,0-1.8-0.3-2.6-0.5
		c-0.6-0.2-1.2-0.4-1.8-0.6c-0.3-0.1-0.5-0.2-0.8-0.3c-0.3-0.1-0.6-0.3-0.9-0.4c-0.8-0.4-1.6-0.8-2.4-1.2c-0.3-0.2-0.5-0.4-0.8-0.5
		c-0.3-0.2-0.5-0.4-0.8-0.5c-0.3-0.2-0.5-0.4-0.8-0.6c-0.6-0.3-1.1-0.7-1.5-1.1c-0.8-0.6-1.6-1.2-2.2-2c-0.2-0.2-0.4-0.4-0.7-0.7
		c-0.2-0.3-0.4-0.5-0.7-0.8c-0.7-0.7-1.3-1.6-1.8-2.4c-0.2-0.3-0.4-0.5-0.6-0.8c-0.2-0.3-0.4-0.6-0.6-0.9c-0.1-0.3-0.3-0.6-0.5-0.9
		c-0.2-0.3-0.4-0.7-0.5-1c-0.4-0.6-0.7-1.2-1-1.9c-0.4-1.1-0.8-2.1-1.2-3.2c-0.1-0.3-0.2-0.7-0.3-1.1c-0.1-0.3-0.3-0.7-0.4-1.1
		c-0.1-0.4-0.1-0.8-0.2-1.1c-0.5-1.6-0.6-3.3-0.9-4.9c0-0.4,0-0.8-0.1-1.3c0-0.4,0-0.8-0.1-1.3c0-1.8-0.1-3.6,0.1-5.4
		c0-0.5,0-0.9,0.1-1.4c0-1.5,0.3-2.9,0.5-4.4c0.1-0.6,0.3-1.2,0.4-1.7c0.2-1.5,0.6-3.2,1.2-4.6c0.1-0.5,0.3-1,0.5-1.5
		c0.5-1.7,1.4-3.8,2.4-5.3c0.2-0.4,0.4-0.8,0.7-1.2c0.2-0.4,0.4-0.8,0.7-1.1c0.3-0.4,0.5-0.8,0.8-1.1c1.2-1.8,2.7-3.3,4.2-4.8
		c0.3-0.3,0.7-0.5,1-0.8c0.6-0.6,1.2-1.1,1.9-1.5c0.9-0.7,2-1.3,3-1.9c0.4-0.2,0.8-0.4,1.1-0.5c0.3-0.2,0.7-0.4,1.1-0.5
		c0.3-0.1,0.7-0.3,1-0.5c0.4-0.1,0.8-0.3,1.1-0.4c0.7-0.2,1.5-0.4,2.2-0.6c1.4-0.5,3-0.8,4.5-0.8c0.3-0.1,0.7-0.1,1.1-0.1
		c1.3-0.3,3.1-0.3,4.4,0c0.4,0,0.8,0,1.1,0.1c1.1,0,2.2,0.3,3.3,0.5c1,0.4,2.1,0.6,3.1,1c0.7,0.2,1.4,0.4,2,0.7
		c0.3,0.2,0.7,0.4,1,0.5c0.6,0.3,1.2,0.7,1.8,1c0.3,0.2,0.6,0.4,0.9,0.6c0.6,0.4,1.2,0.8,1.7,1.2c0.5,0.7,0.7,1,0.8,0.7
		c0.2-1.3,0.4-2.6,0.5-3.9c0.1-0.4,0.2-0.8,0.3-1.3c0-0.3,0.1-0.5,0.3-0.6c0.3-0.2,0.7-0.3,1.1-0.3c0.3-0.1,0.7-0.1,1-0.1
		c2.9-0.5,6.5-0.3,9.4,0c0.6,0,1.2,0,1.9,0.1c2.6,0,6.1,0.2,8.6,1.2c0.3,0.1,0.5,0.1,0.7,0.2c0.1,0.1,0.3,0.3,0.4,0.4l0.1,0.1
		c0,1.4,0.2,3-0.1,4.4c0,0.4,0,0.8,0,1.1c-0.1,0.8-0.1,1.6-0.2,2.4c0,0.4,0,0.8,0,1.3c-0.1,1-0.1,1.9-0.2,2.9c0,0.5,0,1.1,0,1.6
		c-0.1,1.1-0.1,2.3-0.2,3.4c0,0.6,0,1.2,0,1.7c-0.2,1.9,0,3.9-0.2,5.8c0,2.9,0,5.7,0,8.6c0.2,2.1,0,4.1,0.2,6.2c0,0.7,0,1.3,0,2
		c0.1,1.3,0.1,2.5,0.2,3.8c0,0.6,0,1.2,0.1,1.7c0,0.6,0,1.2,0,1.8c0.1,0.5,0.1,1.1,0.1,1.6c0.1,0.5,0.1,1.1,0.1,1.6
		c0.1,0.5,0.1,1,0.1,1.5c0.1,0.5,0.1,1,0.1,1.5c0.1,0.5,0.1,0.9,0.1,1.4c0.1,0.8,0.1,1.7,0.2,2.5c0,0.4,0,0.8,0.1,1.2
		c0,0.4,0,0.8,0,1.1c0.1,0.7,0.1,1.3,0.2,2c0,0.6,0,1.1,0.1,1.7c0,0.9,0.3,2.5-0.1,3.3c0,0.1,0,0.2,0,0.3c0,0.1-0.1,0.2-0.2,0.3
		c-0.1,0.1-0.3,0.1-0.4,0.2c-0.3,0.1-0.5,0.1-0.7,0.1c-0.3,0.1-0.7,0.1-1,0.2c-0.3,0-0.7,0-1.1,0.1c-0.5,0-0.9,0-1.3,0
		c-3.7,0.5-8.1,0.4-11.8,0c-0.6,0-1.2,0-1.7-0.1c-0.6,0-1.2,0-1.7,0c-0.5-0.1-1-0.1-1.5-0.1c-0.5-0.1-0.9-0.1-1.4-0.1
		c-0.4-0.1-0.8-0.1-1.2-0.1c-0.3-0.1-0.7-0.1-1-0.2c-0.3,0-0.5,0-0.8-0.1c-0.2-0.1-0.4-0.1-0.6-0.1c-0.1-0.1-0.2-0.1-0.3-0.2
		c-0.2-0.2-0.3-0.4-0.4-0.7c-0.1-0.3-0.2-0.5-0.3-0.8c-0.1-0.4-0.2-0.8-0.2-1.1c-0.1-0.5-0.1-0.9-0.1-1.3c0.1-0.5,0.1-1,0.1-1.5
		c-0.1-0.5-0.1-1.1,0-1.6C732.9,692.4,732.9,691.8,732.8,691.4C732.7,691.1,732.9,691.8,732.8,691.4z M723.3,653
		c-0.9-0.1-1.7-0.1-2.6-0.1c-0.9,0.2-1.7,0.4-2.5,0.7c-1.1,0.5-2.3,1.3-3.1,2.3c-0.6,0.6-1.2,1.3-1.7,2.1c-0.5,0.8-0.9,1.6-1.2,2.4
		c-0.1,0.4-0.3,0.8-0.4,1.3c-0.2,1.3-0.3,2.6-0.3,4c0.2,1.2,0.6,2.7,1.2,3.7c0.3,0.4,0.5,0.8,0.7,1.1c0.9,1.4,2.2,2.6,3.7,3.5
		c0.7,0.4,1.4,0.8,2.2,1c2.1,0.7,4.4,0.4,6.4-0.5c0.5-0.1,0.9-0.3,1.3-0.5c0.4-0.3,0.8-0.5,1.2-0.8c0.4-0.2,0.8-0.5,1.1-0.8
		c0.7-0.6,1.4-1.2,1.9-2c0.8-1,1.4-2.4,1.8-3.6c0.1-0.9,0.3-1.9,0.4-2.8c0-0.9-0.1-1.9-0.3-2.8c-0.1-0.5-0.3-0.9-0.4-1.3
		c-0.2-0.4-0.4-0.8-0.6-1.2c-0.2-0.3-0.4-0.7-0.7-1.1c-0.6-0.6-1.2-1.2-1.8-1.8c-0.4-0.3-0.8-0.6-1.1-0.8c-0.8-0.5-1.6-0.9-2.5-1.3
		C725.1,653.4,724.2,653.1,723.3,653C722.9,652.9,723.8,653,723.3,653z"/>
</g>
<g>
	<path fill="#F1CC5A" d="M440.5,729.6H287.2c-12.8,0-23.2-10.4-23.2-23.2v-128c0-12.8,10.4-23.2,23.2-23.2h153.3
		c12.8,0,23.2,10.4,23.2,23.2v128C463.7,719.1,453.3,729.6,440.5,729.6z"/>
	<path fill="#FFEDBB" d="M429.1,714.7H298.6c-12.8,0-23.2-10.4-23.2-23.2v-97.9c0-12.8,10.4-23.2,23.2-23.2h130.6
		c12.8,0,23.2,10.4,23.2,23.2v97.9C452.3,704.3,441.9,714.7,429.1,714.7z"/>
</g>
</svg>
