<?xml version="1.0" encoding="utf-8"?>
<!-- Generator: Adobe Illustrator 18.0.0, SVG Export Plug-In . SVG Version: 6.00 Build 0)  -->
<!DOCTYPE svg PUBLIC "-//W3C//DTD SVG 1.0//EN" "http://www.w3.org/TR/2001/REC-SVG-20010904/DTD/svg10.dtd">
<svg version="1.0" id="Camada_1" xmlns="http://www.w3.org/2000/svg" xmlns:xlink="http://www.w3.org/1999/xlink" x="0px" y="0px"
	 viewBox="0 0 1024 768" enable-background="new 0 0 1024 768" xml:space="preserve">
<image overflow="visible" width="1500" height="1500" xlink:href="../../../Desenhos Jogo Yegatu/png2/tupasã.png"  transform="matrix(0.4949 0 0 0.4949 138.7424 -86.7177)">
</image>
<g enable-background="new    ">
	<path d="M473.8,758.1L473.8,758.1c-0.2-0.2-0.2-0.2-0.3-0.3c-0.1-0.1-0.1-0.2-0.1-0.3c-0.2-0.2-0.3-0.5-0.3-0.8
		c-0.1-0.1-0.1-0.3-0.2-0.4c0-0.2,0-0.4-0.1-0.5c-0.1-0.4-0.1-0.8-0.2-1.2c-0.1-0.3-0.1-0.5-0.1-0.7c-0.1-0.3-0.1-0.5-0.1-0.8
		c-0.1-0.2-0.1-0.4-0.1-0.7c-0.1-0.3-0.1-0.6-0.1-0.9c-0.1-0.6-0.1-1.2-0.2-1.8c0-0.3,0-0.7,0-1c-0.1-0.3-0.1-0.7-0.1-1
		c-0.1-0.7-0.1-1.5-0.1-2.2c-0.1-0.8-0.1-1.5-0.1-2.3c-0.2-1.3,0-2.5-0.2-3.8c0-1.8,0.2-3.8-0.1-5.6c0-4.1,0-8.2,0-12.4
		c0.3-2.8-0.1-5.6,0.2-8.4c0-1.7,0-3.5,0-5.2c0.2-1.7,0-3.5,0.2-5.2c0-1.2,0-2.4,0.1-3.6c0-1.2,0-2.3,0.1-3.5c0-1.2,0-2.3,0.1-3.5
		c0-1.2,0-2.5,0-3.7c0.2-2.2,0.2-4.7,0-7c0-1.6,0.1-3.3-0.1-5c0-1.1,0-2.1-0.1-3.2c0-0.5,0-1,0-1.5c-0.1-1-0.1-2-0.2-3
		c0-0.5,0-1-0.1-1.5c0-0.5,0-0.9,0-1.4c-0.1-0.5-0.1-0.9-0.1-1.4c-0.1-0.9-0.1-1.8-0.2-2.7c0-0.4,0-0.8-0.1-1.3c0-0.4,0-0.8,0-1.2
		c-0.1-0.4-0.1-0.8-0.1-1.2c-0.1-0.8-0.1-1.5-0.2-2.3c0-0.4,0-0.8,0-1.1c-0.2-1,0-2-0.2-3c0-1.6-0.4-3.9,0.1-5.5c0-0.2,0-0.4,0-0.6
		c0.1-0.3,0.1-0.7,0.2-1c0.2-0.4,0.4-0.7,0.8-0.9c0.3-0.1,0.5-0.3,0.8-0.4c0.8-0.2,1.5-0.4,2.3-0.6c1.5-0.2,3-0.5,4.6-0.5
		c0.6-0.1,1.2-0.1,1.7-0.2c0.6,0,1.2,0,1.8,0c1.8-0.2,3.6-0.1,5.4-0.1c1.1,0.1,2.2,0.1,3.3,0.2c0.5,0,1,0,1.5,0.1
		c0.8,0.1,1.7,0.1,2.5,0.2c0.3,0.1,0.6,0.1,0.9,0.2c0.2,0.1,0.4,0.1,0.7,0.2c0.1,0.1,0.3,0.1,0.4,0.2c0.3,0.2,0.6,0.4,0.8,0.7
		c0.2,0.2,0.3,0.4,0.4,0.7c0,0.3,0,0.6-0.1,0.9c0.1,0.5,0,1-0.1,1.5c-0.4,1-0.5,1.8-0.2,2.5c0.1,0.3,0.4,0,1.1-0.8
		c0.3-0.3,0.6-0.5,1.1-0.7c0.3-0.2,0.7-0.4,1.1-0.7c0.3-0.3,0.7-0.5,1.1-0.6c0.3-0.2,0.7-0.4,1.1-0.6c0.3-0.2,0.7-0.4,1.1-0.6
		c0.3-0.1,0.7-0.3,1.1-0.5c0.8-0.2,1.5-0.5,2.2-0.9c0.8-0.2,1.5-0.4,2.2-0.7c0.4-0.1,0.8-0.2,1.1-0.3c1.4-0.2,2.9-0.7,4.4-0.7
		c0.4-0.1,0.8-0.1,1.1-0.1c1-0.2,2.2-0.1,3.2-0.1c0.9,0.2,2.1,0.3,3.1,0.3c1,0.2,2.1,0.3,3.1,0.7c0.3,0.1,0.6,0.2,0.9,0.3
		c0.7,0.2,1.3,0.4,2,0.6c0.6,0.2,1.2,0.5,1.8,0.9c0.3,0.1,0.6,0.3,0.9,0.4c0.3,0.2,0.6,0.4,0.9,0.5c0.3,0.2,0.6,0.4,0.9,0.6
		c0.9,0.4,1.8,1.1,2.5,1.8c0.3,0.2,0.5,0.4,0.8,0.6c0.3,0.3,0.5,0.5,0.8,0.7c0.3,0.3,0.5,0.5,0.8,0.7c0.3,0.3,0.5,0.5,0.7,0.8
		c0.3,0.3,0.5,0.5,0.7,0.8c0.3,0.3,0.5,0.5,0.7,0.8c0.3,0.3,0.5,0.6,0.7,0.9c0.4,0.6,0.8,1.2,1.3,1.8c0.2,0.3,0.4,0.6,0.6,0.9
		c0.3,0.7,0.7,1.4,1.1,2c0.1,0.3,0.3,0.7,0.5,1c0.1,0.4,0.3,0.8,0.4,1.1c0.9,1.6,1.7,3.9,2,5.7c0.1,0.4,0.2,0.8,0.3,1.2
		c0.5,1.7,0.6,3.5,0.9,5.2c0,0.5,0,0.9,0.1,1.3c0,0.5,0,0.9,0.1,1.4c0,2,0,3.9,0,5.9c-0.1,0.5-0.1,1.1-0.2,1.6c0,1-0.1,2-0.3,3
		c-0.3,1.4-0.7,2.9-0.9,4.3c-0.2,0.9-0.5,1.8-0.8,2.7c-0.5,1.2-1.1,2.5-1.5,3.8c-0.4,0.8-0.8,1.5-1.2,2.3c-0.2,0.4-0.4,0.8-0.6,1.1
		c-0.7,1-1.5,2-2.1,3.1c-0.3,0.3-0.5,0.7-0.8,1c-0.3,0.3-0.5,0.6-0.8,0.9c-0.2,0.3-0.5,0.6-0.8,0.9c-0.5,0.5-1.1,1.1-1.6,1.6
		c-1.2,1-2.3,2-3.7,2.8c-0.9,0.6-1.9,1.3-2.9,1.7c-0.3,0.2-0.7,0.4-1,0.5c-0.9,0.6-2,0.9-3,1.3c-0.3,0.1-0.7,0.2-1.1,0.3
		c-0.3,0.1-0.7,0.2-1,0.3c-0.3,0.1-0.7,0.1-1.1,0.2c-0.3,0.1-0.7,0.2-1,0.3c-0.7,0-1.5,0.1-2.2,0.3c-0.3,0-0.7,0-1,0.1
		c-1.4,0-2.9,0.2-4.3-0.1c-0.7-0.1-1.5-0.1-2.2-0.2c-0.3-0.1-0.7-0.1-1-0.2c-0.7-0.2-1.4-0.4-2.1-0.6c-0.3-0.1-0.7-0.2-1-0.3
		c-1-0.2-2.2-0.7-3.1-1.2c-0.3-0.1-0.7-0.3-1-0.5c-0.6-0.3-1.3-0.7-1.9-1.1c-0.4-0.1-0.7-0.3-0.9-0.6c-1-1-1.2-0.8-0.8,0.6
		c0.4,2.2,0.5,4.8,0.5,7.1c0.1,0.5,0.1,1.1,0.1,1.6c0.1,0.5,0.1,1,0.1,1.5c0.1,0.5,0.1,1.1,0.1,1.6c0.1,0.5,0.1,1.1,0.1,1.6
		c0.1,0.5,0.1,1.1,0.1,1.6c0.1,0.5,0.1,1.1,0.1,1.6c0.1,1.1,0.1,2.1,0.2,3.2c0,0.5,0,1.1,0.1,1.6c0,0.5,0,1.1,0,1.6
		c0.1,1.1,0.1,2.1,0.2,3.2c0,1,0,2,0,3c0.3,2.2,0.1,4.6,0.1,6.9c-0.1,0.8-0.1,1.6-0.1,2.4c-0.1,0.7-0.1,1.4-0.2,2.1
		c0,0.3,0,0.7-0.1,1c0,0.3,0,0.6-0.1,0.9c0,0.3,0,0.5-0.1,0.8c-0.1,0.2-0.1,0.4-0.2,0.7c0,0.2,0,0.4-0.1,0.6
		c-0.1,0.1-0.1,0.3-0.2,0.5c-0.1,0.3-0.3,0.5-0.5,0.7c-0.1,0.1-0.1,0.1-0.2,0.2c-1.6,1-4,1.7-5.9,2c-0.5,0.1-0.9,0.2-1.4,0.3
		c-1.8,0.5-3.8,0.6-5.7,0.9c-0.5,0-1,0-1.5,0.1c-0.5,0-0.9,0-1.4,0.1c-1.4,0-2.7,0.1-4.1-0.1c-0.8,0-1.7-0.1-2.5-0.3
		c-0.4,0-0.8-0.1-1.1-0.2c-0.3-0.1-0.7-0.1-1.1-0.2c-0.3-0.1-0.6-0.2-0.9-0.3C474.8,758.6,474.3,758.4,473.8,758.1z M512.2,688.7
		c0.4,0.1,0.8,0.2,1.3,0.2c1.7,0.3,3.4-0.6,4.8-1.4c0.8-0.5,1.4-1,2-1.7c0.3-0.3,0.6-0.7,0.9-1c0.4-0.7,0.8-1.5,1.2-2.2
		c0.1-0.4,0.2-0.8,0.3-1.2c0.1-0.4,0.2-0.8,0.2-1.2c0.1-0.4,0.1-0.8,0-1.3c0-0.9-0.1-1.8-0.4-2.7c-0.1-0.5-0.2-0.9-0.4-1.4
		c-0.1-0.5-0.3-0.9-0.6-1.3c-0.6-1.2-1.5-2.4-2.6-3.1c-0.3-0.3-0.7-0.5-1.1-0.7c-0.5-0.1-0.9-0.2-1.4-0.3c-2.2-0.6-4.9,0.2-6.8,1.4
		c-1.6,0.9-2.6,2.2-3.7,3.6c-0.2,0.3-0.4,0.7-0.6,1.1c-0.7,1.7-1,3.4-0.7,5.3c0.2,0.9,0.5,1.8,1,2.7c0.2,0.4,0.4,0.8,0.7,1.2
		c0.5,0.7,1.1,1.4,1.8,1.9c0.6,0.5,1.3,0.9,2,1.3C510.7,688.2,511.4,688.5,512.2,688.7C512.6,688.8,511.8,688.6,512.2,688.7z"/>
	<path d="M595,704.8c-0.1-0.3-0.3,0-0.6,0.9c-0.1,0.3-0.4,0.5-0.7,0.8c-0.5,0.5-0.9,0.9-1.4,1.4c-0.3,0.3-0.5,0.5-0.7,0.7
		c-0.5,0.4-1,0.9-1.5,1.3c-0.3,0.2-0.5,0.4-0.8,0.6c-0.8,0.4-1.7,1-2.4,1.5c-0.6,0.3-1.1,0.6-1.7,0.8c-0.3,0.1-0.5,0.2-0.8,0.3
		c-0.3,0.1-0.6,0.3-0.9,0.4c-0.3,0.1-0.5,0.1-0.8,0.2c-0.9,0.5-2.5,0.8-3.5,0.8c-0.3,0.1-0.6,0.1-0.9,0.1c-0.6,0.1-1.2,0.1-1.8,0.1
		c-0.3,0.1-0.6,0.1-0.9,0c-0.6,0-1.1,0-1.7,0c-0.3-0.1-0.6-0.1-0.9-0.1c-0.3-0.1-0.6-0.1-0.9-0.2c-0.9,0-1.8-0.3-2.6-0.5
		c-0.6-0.2-1.2-0.4-1.8-0.6c-0.3-0.1-0.5-0.2-0.8-0.3c-0.3-0.1-0.6-0.3-0.9-0.4c-0.8-0.4-1.6-0.8-2.4-1.2c-0.3-0.2-0.5-0.4-0.8-0.5
		c-0.3-0.2-0.5-0.4-0.8-0.5c-0.3-0.2-0.5-0.4-0.8-0.6c-0.6-0.3-1.1-0.7-1.5-1.1c-0.8-0.6-1.6-1.2-2.2-2c-0.2-0.2-0.4-0.4-0.7-0.7
		c-0.2-0.3-0.4-0.5-0.7-0.8c-0.7-0.7-1.3-1.6-1.8-2.4c-0.2-0.3-0.4-0.5-0.6-0.8c-0.2-0.3-0.4-0.6-0.6-0.9c-0.1-0.3-0.3-0.6-0.5-0.9
		c-0.2-0.3-0.4-0.7-0.5-1c-0.4-0.6-0.7-1.2-1-1.9c-0.5-1.4-1.2-2.8-1.5-4.3c-0.1-0.3-0.3-0.7-0.4-1.1c-0.1-0.4-0.1-0.8-0.2-1.1
		c-0.5-1.6-0.6-3.3-0.9-4.9c0-0.4,0-0.8-0.1-1.3c0-0.4,0-0.8-0.1-1.3c0-1.8-0.1-3.6,0.1-5.4c0-0.5,0-0.9,0.1-1.4
		c0-1.5,0.3-2.9,0.5-4.4c0.1-0.6,0.3-1.2,0.4-1.7c0.2-1.5,0.6-3.2,1.2-4.6c0.1-0.5,0.3-1,0.5-1.5c0.5-1.7,1.4-3.8,2.4-5.3
		c0.2-0.4,0.4-0.8,0.7-1.2c0.2-0.4,0.4-0.8,0.7-1.1c0.3-0.4,0.5-0.8,0.8-1.1c1.2-1.8,2.7-3.3,4.2-4.8c0.3-0.3,0.7-0.5,1-0.8
		c0.6-0.6,1.2-1.1,1.9-1.5c0.9-0.7,2-1.3,3-1.9c0.4-0.2,0.8-0.4,1.1-0.5c0.3-0.2,0.7-0.4,1.1-0.5c0.3-0.1,0.7-0.3,1-0.5
		c0.4-0.1,0.8-0.3,1.1-0.4c0.7-0.2,1.5-0.4,2.2-0.6c1.4-0.5,3-0.8,4.5-0.8c0.3-0.1,0.7-0.1,1.1-0.1c1.3-0.3,3.1-0.3,4.4,0
		c0.4,0,0.8,0,1.1,0.1c1.1,0,2.2,0.3,3.3,0.5c1,0.4,2.1,0.6,3.1,1c0.7,0.2,1.4,0.4,2,0.7c0.3,0.2,0.7,0.4,1,0.5
		c0.6,0.3,1.2,0.7,1.8,1c0.3,0.2,0.6,0.4,0.9,0.6c0.6,0.4,1.2,0.8,1.7,1.2c0.5,0.7,0.7,1,0.8,0.7c0.2-1.3,0.4-2.6,0.5-3.9
		c0.1-0.4,0.2-0.8,0.3-1.3c0-0.3,0.1-0.5,0.3-0.6c0.3-0.2,0.7-0.3,1.1-0.3c0.3-0.1,0.7-0.1,1-0.1c2.9-0.5,6.5-0.3,9.4,0
		c0.6,0,1.2,0,1.9,0.1c2.6,0,6.1,0.2,8.6,1.2c0.3,0.1,0.5,0.1,0.7,0.2c0.1,0.1,0.3,0.3,0.4,0.4l0.1,0.1c0,1.4,0.2,3-0.1,4.4
		c0,0.4,0,0.8,0,1.1c-0.1,0.8-0.1,1.6-0.2,2.4c0,0.4,0,0.8,0,1.3c-0.1,1-0.1,1.9-0.2,2.9c0,0.5,0,1.1,0,1.6
		c-0.1,1.1-0.1,2.3-0.2,3.4c0,0.6,0,1.2,0,1.7c-0.2,1.9,0,3.9-0.2,5.8c0,2.9,0,5.7,0,8.6c0.2,2.1,0,4.1,0.2,6.2c0,0.7,0,1.3,0,2
		c0.1,1.3,0.1,2.5,0.2,3.8c0,0.6,0,1.2,0.1,1.7c0,0.6,0,1.2,0,1.8c0.1,0.5,0.1,1.1,0.1,1.6c0.1,0.5,0.1,1.1,0.1,1.6
		c0.1,0.5,0.1,1,0.1,1.5c0.1,0.5,0.1,1,0.1,1.5c0.1,0.5,0.1,0.9,0.1,1.4c0.1,0.8,0.1,1.7,0.2,2.5c0,0.4,0,0.8,0.1,1.2
		c0,0.4,0,0.8,0,1.1c0.1,0.7,0.1,1.3,0.2,2c0,0.6,0,1.1,0.1,1.7c0,0.9,0.3,2.5-0.1,3.3c0,0.1,0,0.2,0,0.3c0,0.1-0.1,0.2-0.2,0.3
		c-0.1,0.1-0.3,0.1-0.4,0.2c-0.3,0.1-0.5,0.1-0.7,0.1c-0.3,0.1-0.7,0.1-1,0.2c-0.3,0-0.7,0-1.1,0.1c-0.5,0-0.9,0-1.3,0
		c-3.7,0.5-8.1,0.4-11.8,0c-0.6,0-1.2,0-1.7-0.1c-0.6,0-1.2,0-1.7,0c-0.5-0.1-1-0.1-1.5-0.1c-0.5-0.1-0.9-0.1-1.4-0.1
		c-0.4-0.1-0.8-0.1-1.2-0.1c-0.3-0.1-0.7-0.1-1-0.2c-0.3,0-0.5,0-0.8-0.1c-0.2-0.1-0.4-0.1-0.6-0.1c-0.1-0.1-0.2-0.1-0.3-0.2
		c-0.2-0.2-0.3-0.4-0.4-0.7c-0.1-0.3-0.2-0.5-0.3-0.8c-0.1-0.4-0.2-0.8-0.2-1.1c-0.1-0.5-0.1-0.9-0.1-1.3c0.1-0.5,0.1-1,0.1-1.5
		c-0.1-0.5-0.1-1.1,0-1.6C595.1,705.9,595.2,705.3,595,704.8C595,704.6,595.2,705.3,595,704.8z M585.6,666.4
		c-0.9-0.1-1.7-0.1-2.6-0.1c-0.9,0.2-1.7,0.4-2.5,0.7c-1.1,0.5-2.3,1.3-3.1,2.3c-0.6,0.6-1.2,1.3-1.7,2.1c-0.5,0.8-0.9,1.6-1.2,2.4
		c-0.1,0.4-0.3,0.8-0.4,1.3c-0.2,1.3-0.3,2.6-0.3,4c0.2,1.2,0.6,2.7,1.2,3.7c0.3,0.4,0.5,0.8,0.7,1.1c0.9,1.4,2.2,2.6,3.7,3.5
		c0.7,0.4,1.4,0.8,2.2,1c2.1,0.7,4.4,0.4,6.4-0.5c0.5-0.1,0.9-0.3,1.3-0.5c0.4-0.3,0.8-0.5,1.2-0.8c0.4-0.2,0.8-0.5,1.1-0.8
		c0.7-0.6,1.4-1.2,1.9-2c0.8-1,1.4-2.4,1.8-3.6c0.1-0.9,0.3-1.9,0.4-2.8c0-0.9-0.1-1.9-0.3-2.8c-0.1-0.5-0.3-0.9-0.4-1.3
		c-0.2-0.4-0.4-0.8-0.6-1.2c-0.2-0.3-0.4-0.7-0.7-1.1c-0.6-0.6-1.2-1.2-1.8-1.8c-0.4-0.3-0.8-0.6-1.1-0.8c-0.8-0.5-1.6-0.9-2.5-1.3
		C587.4,666.8,586.5,666.6,585.6,666.4C585.2,666.4,586,666.5,585.6,666.4z"/>
	<path d="M695.3,654.4c0.1,0.3,0.1,0.6,0,0.9c-0.1,0.7-0.2,1.5-0.3,2.2c-0.3,0.8-0.5,1.6-0.8,2.4c-0.7,1.7-1.5,3.5-2.5,5.1
		c-0.2,0.4-0.4,0.8-0.7,1.2c-0.2,0.3-0.4,0.7-0.7,1.1c-0.2,0.3-0.4,0.6-0.7,0.9c-0.2,0.3-0.4,0.5-0.7,0.8c-0.2,0.3-0.4,0.5-0.6,0.7
		c-0.4,0.3-0.7,0.5-1.1,0.7c-0.2,0-0.4,0-0.5,0c-0.1-0.1-0.2-0.2-0.3-0.3c-0.3-0.4-0.7-0.8-1-1.2c-0.8-1.1-2-2.3-3.1-3.2
		c-0.7-0.7-1.5-1.3-2.3-1.9c-1.1-0.9-2.3-1.8-3.6-2.4c-1.2-0.8-2.5-1.3-3.7-1.9c-0.4-0.1-0.8-0.3-1.3-0.5c-0.8-0.3-1.6-0.5-2.4-0.7
		c-1.1-0.4-2.3-0.5-3.5-0.7c-1,0-2.1-0.1-3.1,0.1c-0.6,0-1.2,0.1-1.8,0.4c-0.5,0.2-1,0.4-1.5,0.7c-0.3,0.1-0.5,0.3-0.7,0.4
		c-0.2,0.2-0.4,0.4-0.5,0.6c-0.2,0.2-0.4,0.4-0.5,0.6c-0.4,0.8-0.8,1.6-0.8,2.5c-0.2,0.9,0,1.7,0.2,2.6c0.4,0.7,0.8,1.3,1.5,1.8
		c0.5,0.3,1,0.6,1.6,0.9c0.3,0.1,0.7,0.2,1,0.3c0.3,0.1,0.7,0.2,1,0.3c1.2,0.4,2.4,0.4,3.6,0.8c0.9,0.2,1.9,0.3,2.8,0.3
		c0.9,0.1,1.9,0.3,2.8,0.4c1.5,0.4,3,0.4,4.5,0.8c0.5,0.1,1,0.2,1.5,0.3c1,0.2,1.9,0.4,2.9,0.7c1.4,0.6,2.8,1,4.2,1.6
		c0.5,0.3,0.9,0.5,1.3,0.7c0.5,0.3,0.9,0.5,1.3,0.7c0.4,0.3,0.8,0.5,1.1,0.8c0.4,0.3,0.8,0.6,1.2,0.9c0.3,0.3,0.7,0.5,1,0.8
		c0.6,0.7,1.2,1.3,1.8,1.9c0.6,0.6,1.1,1.3,1.6,2c0.5,0.7,0.9,1.4,1.3,2.2c0.2,0.3,0.4,0.7,0.6,1.1c0.1,0.4,0.3,0.8,0.4,1.1
		c0.2,0.4,0.4,0.8,0.5,1.2c0.1,0.4,0.2,0.8,0.3,1.2c0.1,0.4,0.2,0.8,0.3,1.1c0.2,0.8,0.3,1.6,0.3,2.4c0.2,1.2,0.2,2.5,0,3.7
		c0,1.2-0.2,2.5-0.6,3.6c-0.1,0.3-0.2,0.6-0.3,0.9c-0.1,0.3-0.2,0.7-0.3,1c-0.1,0.3-0.2,0.6-0.3,0.9c-0.3,0.6-0.6,1.1-0.9,1.7
		c-0.1,0.3-0.3,0.5-0.5,0.8c-0.1,0.3-0.3,0.5-0.5,0.7c-0.8,1.1-1.8,1.9-2.8,2.9c-0.5,0.4-1.1,0.8-1.7,1.2c-0.6,0.4-1.2,0.8-1.9,1.1
		c-0.3,0.2-0.7,0.4-1.1,0.5c-0.8,0.4-1.5,0.7-2.3,1c-1.3,0.4-2.6,0.9-4,1.1c-0.5,0.1-1,0.3-1.5,0.4c-0.5,0.1-1,0.2-1.5,0.3
		c-0.5,0.1-1.1,0.2-1.6,0.3c-3,0.3-6.1,0.9-9.2,0.9c-0.7,0.1-1.4,0.1-2.1,0.1c-3.2,0.3-6.4,0.1-9.6,0.1c-0.5-0.1-1-0.1-1.5-0.2
		c-1.6,0-3.1-0.3-4.7-0.5c-1.5-0.4-3.1-0.7-4.6-0.9c-1-0.3-2-0.5-3-0.7c-1-0.2-1.9-0.5-2.8-0.9c-0.9-0.2-1.7-0.5-2.6-0.9
		c-0.7-0.2-1.4-0.5-2.1-0.9c-0.3-0.1-0.7-0.3-1-0.5c-0.3-0.1-0.5-0.3-0.8-0.5c-0.2-0.1-0.4-0.3-0.7-0.5c-0.2-0.1-0.4-0.3-0.5-0.5
		c-0.1-0.1-0.3-0.3-0.4-0.5c-0.1-0.1-0.2-0.3-0.2-0.4c-0.1-0.5-0.1-1-0.1-1.5c0.4-2.1,1.3-4,1.9-6.1c0.5-0.9,0.9-1.9,1.3-2.9
		c0.3-0.5,0.5-1,0.8-1.5c0.5-0.9,0.9-1.9,1.4-2.8c0.3-0.5,0.5-0.9,0.8-1.4c0.5-0.8,0.9-1.6,1.4-2.4c0.2-0.3,0.4-0.7,0.7-1
		c0.2-0.3,0.4-0.5,0.6-0.8c0.1-0.3,0.3-0.5,0.5-0.7c0.1-0.2,0.3-0.4,0.5-0.5c0.2-0.2,0.4-0.3,0.6-0.2c0.1,0.1,0.3,0.2,0.4,0.3
		c0.2,0.1,0.4,0.2,0.6,0.3c0.5,0.3,1.1,0.5,1.6,0.8c0.3,0.2,0.7,0.4,1,0.5c0.4,0.2,0.8,0.4,1.1,0.5c0.4,0.2,0.8,0.4,1.2,0.5
		c0.4,0.2,0.8,0.4,1.2,0.5c0.5,0.2,0.9,0.4,1.3,0.6c0.5,0.1,0.9,0.3,1.4,0.5c0.4,0.1,0.8,0.3,1.3,0.5c0.5,0.1,0.9,0.3,1.4,0.5
		c1,0.2,2,0.5,2.9,0.9c0.5,0.1,0.9,0.2,1.4,0.3c0.5,0.1,0.9,0.3,1.4,0.4c0.4,0.1,0.8,0.1,1.3,0.2c0.4,0.1,0.8,0.2,1.3,0.3
		c0.4,0,0.8,0,1.2,0.1c0.4,0,0.8,0,1.1,0.1c0.4,0,0.8,0,1.1-0.1c0.6,0,1.2-0.1,1.8-0.3c0.2-0.1,0.4-0.3,0.7-0.4
		c0.2-0.1,0.4-0.2,0.5-0.4c0.2-0.2,0.3-0.4,0.4-0.6c0.1-0.2,0.2-0.4,0.3-0.7c0.1-0.2,0.1-0.4,0.1-0.6c0.1-0.2,0.1-0.4,0-0.6
		c0-0.2,0-0.4-0.1-0.5c-0.1-0.2-0.2-0.4-0.3-0.5c-0.1-0.2-0.3-0.4-0.4-0.5c-0.2-0.1-0.4-0.3-0.5-0.4c-0.2-0.1-0.4-0.3-0.7-0.4
		c-0.2-0.1-0.4-0.3-0.7-0.4c-0.3-0.1-0.6-0.2-0.9-0.3c-0.3-0.1-0.6-0.2-0.9-0.3c-0.4-0.1-0.8-0.2-1.1-0.3c-0.4-0.1-0.8-0.1-1.1-0.2
		c-0.8-0.2-1.7-0.4-2.5-0.6c-0.9-0.1-1.9-0.3-2.8-0.4c-1-0.2-2-0.4-3-0.5c-1.1-0.2-2.1-0.4-3.2-0.6c-0.6-0.1-1.2-0.1-1.7-0.2
		c-0.5-0.1-1.1-0.2-1.7-0.3c-0.5-0.1-1.1-0.3-1.7-0.4c-1.4-0.2-3-0.5-4.3-1.2c-0.4-0.1-0.8-0.3-1.2-0.5c-0.8-0.4-1.5-0.9-2.2-1.5
		c-0.4-0.3-0.7-0.6-1-0.9c-0.3-0.3-0.7-0.7-1-1c-2.1-2.6-3.3-5.3-4.2-8.5c-0.1-0.9-0.3-1.9-0.4-2.8c0-0.9,0-1.9,0-2.8
		c0.1-1,0.3-2.1,0.5-3.1c0.1-1,0.4-2,0.8-2.9c0.4-1.3,1-2.6,1.8-3.7c0.3-0.3,0.5-0.7,0.8-1.1c0.2-0.3,0.5-0.7,0.8-1
		c0.3-0.3,0.6-0.7,0.9-1c0.3-0.3,0.6-0.6,0.9-0.9c0.6-0.6,1.3-1.2,2.1-1.7c0.3-0.3,0.7-0.5,1.1-0.8c0.4-0.2,0.8-0.4,1.2-0.7
		c1.1-0.7,2.5-1.3,3.7-1.8c0.4-0.1,0.8-0.3,1.3-0.5c1.3-0.4,2.7-0.8,4-1.2c0.5-0.1,0.9-0.2,1.4-0.3c0.5-0.1,0.9-0.2,1.4-0.3
		c1.4-0.2,2.8-0.5,4.2-0.5c0.5-0.1,0.9-0.1,1.4-0.1c0.9-0.1,1.9-0.1,2.8-0.2c0.5,0,1,0,1.5,0c2.5,0.4,5.1,0.5,7.7,0.8
		c0.5,0.1,1.1,0.2,1.6,0.3c1,0.3,2.1,0.5,3.1,0.7c0.5,0.1,1.1,0.3,1.6,0.5c1,0.2,2,0.5,3,0.9c0.5,0.1,0.9,0.3,1.4,0.4
		c0.5,0.2,0.9,0.4,1.4,0.6c0.9,0.3,1.8,0.6,2.7,1c0.8,0.4,1.6,0.8,2.4,1.2c0.4,0.1,0.8,0.3,1.2,0.5c0.7,0.4,1.3,0.8,2,1.2
		c0.3,0.2,0.6,0.4,0.9,0.6c0.3,0.2,0.5,0.4,0.8,0.6c0.2,0.2,0.4,0.4,0.7,0.6c0.2,0.1,0.4,0.3,0.5,0.5c0.2,0.2,0.4,0.4,0.5,0.6
		c0.3,0.3,0.5,0.6,0.6,1C695.2,653.8,695.3,654.1,695.3,654.4C695.4,654.6,695.3,654.1,695.3,654.4z"/>
	<path d="M742.8,704.8c-0.1-0.3-0.3,0-0.6,0.9c-0.1,0.3-0.4,0.5-0.7,0.8c-0.5,0.5-0.9,0.9-1.4,1.4c-0.3,0.3-0.5,0.5-0.7,0.7
		c-0.5,0.4-1,0.9-1.5,1.3c-0.3,0.2-0.5,0.4-0.8,0.6c-0.8,0.4-1.7,1-2.4,1.5c-0.6,0.3-1.1,0.6-1.7,0.8c-0.3,0.1-0.5,0.2-0.8,0.3
		c-0.3,0.1-0.6,0.3-0.9,0.4c-0.3,0.1-0.5,0.1-0.8,0.2c-0.9,0.5-2.5,0.8-3.5,0.8c-0.3,0.1-0.6,0.1-0.9,0.1c-0.6,0.1-1.2,0.1-1.8,0.1
		c-0.3,0.1-0.6,0.1-0.9,0c-0.6,0-1.1,0-1.7,0c-0.3-0.1-0.6-0.1-0.9-0.1c-0.3-0.1-0.6-0.1-0.9-0.2c-0.9,0-1.8-0.3-2.6-0.5
		c-0.6-0.2-1.2-0.4-1.8-0.6c-0.3-0.1-0.5-0.2-0.8-0.3c-0.3-0.1-0.6-0.3-0.9-0.4c-0.8-0.4-1.6-0.8-2.4-1.2c-0.3-0.2-0.5-0.4-0.8-0.5
		c-0.3-0.2-0.5-0.4-0.8-0.5c-0.3-0.2-0.5-0.4-0.8-0.6c-0.6-0.3-1.1-0.7-1.5-1.1c-0.8-0.6-1.6-1.2-2.2-2c-0.2-0.2-0.4-0.4-0.7-0.7
		c-0.2-0.3-0.4-0.5-0.7-0.8c-0.7-0.7-1.3-1.6-1.8-2.4c-0.2-0.3-0.4-0.5-0.6-0.8c-0.2-0.3-0.4-0.6-0.6-0.9c-0.1-0.3-0.3-0.6-0.5-0.9
		c-0.2-0.3-0.4-0.7-0.5-1c-0.4-0.6-0.7-1.2-1-1.9c-0.5-1.4-1.2-2.8-1.5-4.3c-0.1-0.3-0.3-0.7-0.4-1.1c-0.1-0.4-0.1-0.8-0.2-1.1
		c-0.5-1.6-0.6-3.3-0.9-4.9c0-0.4,0-0.8-0.1-1.3c0-0.4,0-0.8-0.1-1.3c0-1.8-0.1-3.6,0.1-5.4c0-0.5,0-0.9,0.1-1.4
		c0-1.5,0.3-2.9,0.5-4.4c0.1-0.6,0.3-1.2,0.4-1.7c0.2-1.5,0.6-3.2,1.2-4.6c0.1-0.5,0.3-1,0.5-1.5c0.5-1.7,1.4-3.8,2.4-5.3
		c0.2-0.4,0.4-0.8,0.7-1.2c0.2-0.4,0.4-0.8,0.7-1.1c0.3-0.4,0.5-0.8,0.8-1.1c1.2-1.8,2.7-3.3,4.2-4.8c0.3-0.3,0.7-0.5,1-0.8
		c0.6-0.6,1.2-1.1,1.9-1.5c0.9-0.7,2-1.3,3-1.9c0.4-0.2,0.8-0.4,1.1-0.5c0.3-0.2,0.7-0.4,1.1-0.5c0.3-0.1,0.7-0.3,1-0.5
		c0.4-0.1,0.8-0.3,1.1-0.4c0.7-0.2,1.5-0.4,2.2-0.6c1.4-0.5,3-0.8,4.5-0.8c0.3-0.1,0.7-0.1,1.1-0.1c1.3-0.3,3.1-0.3,4.4,0
		c0.4,0,0.8,0,1.1,0.1c1.1,0,2.2,0.3,3.3,0.5c1,0.4,2.1,0.6,3.1,1c0.7,0.2,1.4,0.4,2,0.7c0.3,0.2,0.7,0.4,1,0.5
		c0.6,0.3,1.2,0.7,1.8,1c0.3,0.2,0.6,0.4,0.9,0.6c0.6,0.4,1.2,0.8,1.7,1.2c0.5,0.7,0.7,1,0.8,0.7c0.2-1.3,0.4-2.6,0.5-3.9
		c0.1-0.4,0.2-0.8,0.3-1.3c0-0.3,0.1-0.5,0.3-0.6c0.3-0.2,0.7-0.3,1.1-0.3c0.3-0.1,0.7-0.1,1-0.1c2.9-0.5,6.5-0.3,9.4,0
		c0.6,0,1.2,0,1.9,0.1c2.6,0,6.1,0.2,8.6,1.2c0.3,0.1,0.5,0.1,0.7,0.2c0.1,0.1,0.3,0.3,0.4,0.4l0.1,0.1c0,1.4,0.2,3-0.1,4.4
		c0,0.4,0,0.8,0,1.1c-0.1,0.8-0.1,1.6-0.2,2.4c0,0.4,0,0.8,0,1.3c-0.1,1-0.1,1.9-0.2,2.9c0,0.5,0,1.1,0,1.6
		c-0.1,1.1-0.1,2.3-0.2,3.4c0,0.6,0,1.2,0,1.7c-0.2,1.9,0,3.9-0.2,5.8c0,2.9,0,5.7,0,8.6c0.2,2.1,0,4.1,0.2,6.2c0,0.7,0,1.3,0,2
		c0.1,1.3,0.1,2.5,0.2,3.8c0,0.6,0,1.2,0.1,1.7c0,0.6,0,1.2,0,1.8c0.1,0.5,0.1,1.1,0.1,1.6c0.1,0.5,0.1,1.1,0.1,1.6
		c0.1,0.5,0.1,1,0.1,1.5c0.1,0.5,0.1,1,0.1,1.5c0.1,0.5,0.1,0.9,0.1,1.4c0.1,0.8,0.1,1.7,0.2,2.5c0,0.4,0,0.8,0.1,1.2
		c0,0.4,0,0.8,0,1.1c0.1,0.7,0.1,1.3,0.2,2c0,0.6,0,1.1,0.1,1.7c0,0.9,0.3,2.5-0.1,3.3c0,0.1,0,0.2,0,0.3c0,0.1-0.1,0.2-0.2,0.3
		c-0.1,0.1-0.3,0.1-0.4,0.2c-0.3,0.1-0.5,0.1-0.7,0.1c-0.3,0.1-0.7,0.1-1,0.2c-0.3,0-0.7,0-1.1,0.1c-0.5,0-0.9,0-1.3,0
		c-3.7,0.5-8.1,0.4-11.8,0c-0.6,0-1.2,0-1.7-0.1c-0.6,0-1.2,0-1.7,0c-0.5-0.1-1-0.1-1.5-0.1c-0.5-0.1-0.9-0.1-1.4-0.1
		c-0.4-0.1-0.8-0.1-1.2-0.1c-0.3-0.1-0.7-0.1-1-0.2c-0.3,0-0.5,0-0.8-0.1c-0.2-0.1-0.4-0.1-0.6-0.1c-0.1-0.1-0.2-0.1-0.3-0.2
		c-0.2-0.2-0.3-0.4-0.4-0.7c-0.1-0.3-0.2-0.5-0.3-0.8c-0.1-0.4-0.2-0.8-0.2-1.1c-0.1-0.5-0.1-0.9-0.1-1.3c0.1-0.5,0.1-1,0.1-1.5
		c-0.1-0.5-0.1-1.1,0-1.6C742.9,705.9,742.9,705.3,742.8,704.8C742.7,704.6,742.9,705.3,742.8,704.8z M733.3,666.4
		c-0.9-0.1-1.7-0.1-2.6-0.1c-0.9,0.2-1.7,0.4-2.5,0.7c-1.1,0.5-2.3,1.3-3.1,2.3c-0.6,0.6-1.2,1.3-1.7,2.1c-0.5,0.8-0.9,1.6-1.2,2.4
		c-0.1,0.4-0.3,0.8-0.4,1.3c-0.2,1.3-0.3,2.6-0.3,4c0.2,1.2,0.6,2.7,1.2,3.7c0.3,0.4,0.5,0.8,0.7,1.1c0.9,1.4,2.2,2.6,3.7,3.5
		c0.7,0.4,1.4,0.8,2.2,1c2.1,0.7,4.4,0.4,6.4-0.5c0.5-0.1,0.9-0.3,1.3-0.5c0.4-0.3,0.8-0.5,1.2-0.8c0.4-0.2,0.8-0.5,1.1-0.8
		c0.7-0.6,1.4-1.2,1.9-2c0.8-1,1.4-2.4,1.8-3.6c0.1-0.9,0.3-1.9,0.4-2.8c0-0.9-0.1-1.9-0.3-2.8c-0.1-0.5-0.3-0.9-0.4-1.3
		c-0.2-0.4-0.4-0.8-0.6-1.2c-0.2-0.3-0.4-0.7-0.7-1.1c-0.6-0.6-1.2-1.2-1.8-1.8c-0.4-0.3-0.8-0.6-1.1-0.8c-0.8-0.5-1.6-0.9-2.5-1.3
		C735.1,666.8,734.2,666.6,733.3,666.4C732.9,666.4,733.8,666.5,733.3,666.4z"/>
</g>
<path d="M723.4,615.6c-4.2,0-7.4,10.1-14.2,9.8c-6.8-0.3-6.8-6.1-6.8-8.3c0-4.7,4.7-12.5,7.2-15.4s6.2-6.7,13.5-6.7
	c10.1,0,12,10.3,20,10.3c4.6,0,8.1-12.5,16.8-12.5c15.5,0,5.2,16.8,3.6,19.3c-2.6,4.1-10.3,14.7-20.7,14.7
	C732.4,626.7,730.4,615.6,723.4,615.6"/>
<g>
	<path fill="#F1CC5A" d="M433.1,729.6H279.8c-12.8,0-23.2-10.4-23.2-23.2v-128c0-12.8,10.4-23.2,23.2-23.2h153.3
		c12.8,0,23.2,10.4,23.2,23.2v128C456.3,719.1,445.9,729.6,433.1,729.6z"/>
	<path fill="#FFEDBB" d="M421.7,714.7H291.2c-12.8,0-23.2-10.4-23.2-23.2v-97.9c0-12.8,10.4-23.2,23.2-23.2h130.6
		c12.8,0,23.2,10.4,23.2,23.2v97.9C444.9,704.3,434.5,714.7,421.7,714.7z"/>
</g>
</svg>
