<?xml version="1.0" encoding="utf-8"?>
<!-- Generator: Adobe Illustrator 18.0.0, SVG Export Plug-In . SVG Version: 6.00 Build 0)  -->
<!DOCTYPE svg PUBLIC "-//W3C//DTD SVG 1.0//EN" "http://www.w3.org/TR/2001/REC-SVG-20010904/DTD/svg10.dtd">
<svg version="1.0" id="Camada_1" xmlns="http://www.w3.org/2000/svg" xmlns:xlink="http://www.w3.org/1999/xlink" x="0px" y="0px"
	 viewBox="0 0 1024 768" enable-background="new 0 0 1024 768" xml:space="preserve">
<image overflow="visible" width="1500" height="1500" xlink:href="../../../Desenhos Jogo Yegatu/png2/uka.png"  transform="matrix(0.4389 0 0 0.4389 180.6079 -46)">
</image>
<g>
	<path fill="#F1CC5A" d="M636.6,729.6H483.3c-12.8,0-23.2-10.4-23.2-23.2v-128c0-12.8,10.4-23.2,23.2-23.2h153.3
		c12.8,0,23.2,10.4,23.2,23.2v128C659.8,719.1,649.4,729.6,636.6,729.6z"/>
	<path fill="#FFEDBB" d="M625.2,714.7H494.7c-12.8,0-23.2-10.4-23.2-23.2v-97.9c0-12.8,10.4-23.2,23.2-23.2h130.6
		c12.8,0,23.2,10.4,23.2,23.2v97.9C648.4,704.3,638,714.7,625.2,714.7z"/>
</g>
<g>
	<path d="M363.3,598.4c0.1-0.1,0.3-0.3,0.5-0.4c0.3-0.1,0.6-0.2,0.9-0.3c0.4-0.1,0.8-0.2,1.1-0.3c1.5-0.2,2.9-0.4,4.4-0.6
		c0.6,0,1.2,0,1.8-0.1c0.6,0,1.2,0,1.8-0.1c1.8,0,3.7,0,5.5,0c1.7,0.2,3.5,0.3,5.1,0.3c1.2,0.2,2.4,0.4,3.6,0.6
		c0.3,0.1,0.5,0.2,0.8,0.3c0.1,0.1,0.3,0.2,0.4,0.3c0.1,0.1,0.2,0.2,0.2,0.3c-0.1,0.4-0.1,0.8-0.2,1.2c0,0.4,0,0.8-0.1,1.1
		c-0.1,0.8-0.1,1.7-0.2,2.5c-0.1,0.4-0.1,0.8-0.2,1.2c-0.1,0.9-0.1,1.7-0.2,2.6c-0.2,0.9-0.3,1.8-0.3,2.7c-0.2,0.9-0.3,1.9-0.3,2.8
		c-0.2,1-0.3,1.9-0.3,2.9c-0.1,0.5-0.1,0.9-0.2,1.4c0,1-0.1,2-0.3,3c-0.1,1-0.1,2-0.2,3c-0.1,0.5-0.1,1-0.1,1.5
		c-0.1,0.5-0.1,1-0.2,1.5c0,0.5,0,1-0.1,1.5c0,0.5,0,1-0.1,1.5c0,0.5,0,1-0.1,1.5c0,0.5,0,1.1-0.1,1.6c0,0.5,0,1,0,1.5
		c-0.1,1-0.1,2-0.1,3c-0.3,2.8-0.4,6.2,0,9c0,1,0,1.9,0.1,2.9c0,0.5,0,0.9,0.1,1.4c0.1,0.9,0.1,1.8,0.2,2.7c0.2,0.9,0.3,1.8,0.3,2.7
		c0.1,0.4,0.1,0.8,0.2,1.2c0.3,1.2,0.4,2.5,0.8,3.7c0.1,0.4,0.2,0.8,0.3,1.2c0.2,0.8,0.4,1.5,0.6,2.3c0.4,1,0.7,2.2,1.3,3
		c0.1,0.3,0.3,0.7,0.4,1c0.2,0.3,0.4,0.6,0.5,0.9c0.2,0.3,0.4,0.6,0.6,0.9c0.3,0.6,0.7,1.1,1.1,1.5c0.3,0.6,0.8,1,1.3,1.4
		c0.4,0.5,0.9,0.9,1.4,1.2c0.3,0.2,0.5,0.4,0.8,0.5c0.5,0.4,1.1,0.7,1.7,0.9c0.3,0.1,0.6,0.2,0.9,0.3c0.9,0.4,2,0.5,2.9,0.7
		c0.3,0,0.7,0,1,0.1c0.7,0,1.5,0,2.2-0.1c1.3,0,2.8-0.3,4-0.8c0.3-0.1,0.6-0.2,0.9-0.3c0.3-0.1,0.5-0.3,0.8-0.5
		c0.3-0.1,0.5-0.3,0.8-0.4c0.8-0.6,1.5-1,2.2-1.7c0.2-0.3,0.4-0.5,0.6-0.7c0.3-0.3,0.5-0.5,0.7-0.7c0.2-0.3,0.4-0.5,0.5-0.8
		c0.2-0.3,0.4-0.5,0.6-0.8c0.2-0.3,0.4-0.6,0.5-0.9c0.3-0.6,0.7-1.2,1-1.8c0.4-1,0.9-2,1.1-3.1c0.1-0.3,0.3-0.7,0.4-1.1
		c0.1-0.3,0.2-0.7,0.3-1.1c0.1-0.4,0.2-0.8,0.3-1.2c0.1-0.8,0.3-1.6,0.4-2.4c0.1-0.4,0.2-0.8,0.2-1.2c0.2-1.3,0.5-2.6,0.5-3.9
		c0.1-0.5,0.1-0.9,0.1-1.4c0.1-0.5,0.1-0.9,0.1-1.3c0.1-0.9,0.1-1.9,0.2-2.8c0-2.9,0.3-5.9-0.1-8.8c0-0.5,0-1,0-1.5
		c-0.1-1-0.1-2-0.2-3c0-0.5,0-1-0.1-1.5c0-0.5,0-1-0.1-1.5c0-0.5,0-1-0.1-1.5c-0.1-1-0.1-2-0.2-3c-0.1-0.5-0.1-1-0.2-1.5
		c0-1.5-0.4-3-0.4-4.5c-0.1-1-0.3-1.9-0.4-2.9c0-1.4-0.3-2.9-0.5-4.3c0-1.4-0.3-2.8-0.5-4.1c0-1.4-0.3-2.7-0.5-4
		c0-0.8-0.1-1.7-0.3-2.5c-0.1-0.8-0.1-1.6-0.2-2.4c-0.1-0.4-0.1-0.8-0.2-1.1c0-0.1,0.1-0.3,0.2-0.4c0.1-0.1,0.2-0.2,0.4-0.3
		c0.3-0.1,0.5-0.1,0.7-0.2c0.3-0.1,0.7-0.1,1-0.2c0.4-0.1,0.8-0.2,1.2-0.2c1-0.1,1.9-0.3,2.9-0.4c0.5,0,1.1,0,1.7-0.1
		c0.5,0,1.1,0,1.7,0c2.3-0.3,4.9-0.3,7.2,0c0.6,0,1.2,0,1.7,0.1c0.5,0,1.1,0,1.6,0.1c1.3,0,2.6,0.3,3.8,0.5c0.3,0.1,0.5,0.1,0.8,0.2
		c0.2,0.1,0.4,0.2,0.6,0.3c0.1,0.1,0.1,0.1,0.2,0.2c0.3,0.8,0.6,1.7,0.8,2.5c0.2,1.3,0.8,2.4,1,3.7c0.1,0.4,0.3,0.8,0.4,1.3
		c0.2,0.9,0.4,1.7,0.6,2.6c0.1,0.4,0.2,0.8,0.3,1.3c0.1,0.4,0.2,0.8,0.3,1.3c0.1,0.5,0.2,0.9,0.3,1.3c0.1,0.5,0.2,0.9,0.3,1.4
		c0.1,0.4,0.2,0.8,0.3,1.3c0.2,0.9,0.4,1.9,0.6,2.8c0.1,0.9,0.3,1.8,0.5,2.7c0.5,3.7,1.5,7.6,1.5,11.4c0.1,0.5,0.1,1,0.2,1.5
		c0.1,0.9,0.1,1.9,0.2,2.8c0.1,0.5,0.1,1,0.1,1.5c0.1,0.5,0.1,0.9,0.1,1.4c0.1,0.5,0.1,1,0.1,1.5c0.1,1,0.1,1.9,0.2,2.9
		c0,0.9,0,1.9,0.1,2.8c0,1.9,0.2,3.9-0.1,5.8c0,1,0,1.9,0,2.9c-0.1,0.9-0.1,1.9-0.2,2.8c0,0.5,0,0.9-0.1,1.4c0,0.5,0,0.9-0.1,1.4
		c0,0.9-0.1,1.9-0.3,2.8c0,2.5-0.4,5.8-1.2,8.1c-0.1,0.9-0.3,1.8-0.5,2.7c-0.1,0.4-0.2,0.8-0.3,1.3c-0.2,0.9-0.4,1.7-0.6,2.6
		c-0.1,0.4-0.3,0.8-0.4,1.2c-0.3,1.7-1,3.3-1.5,4.9c-0.4,0.8-0.7,1.6-0.9,2.4c-0.2,0.4-0.4,0.8-0.5,1.2c-0.2,0.3-0.4,0.7-0.5,1.1
		c-0.2,0.4-0.4,0.8-0.6,1.1c-0.1,0.4-0.3,0.8-0.5,1.1c-0.2,0.4-0.4,0.8-0.6,1.1c-0.3,0.7-0.7,1.4-1.1,2.1c-0.2,0.4-0.4,0.8-0.7,1.1
		c-0.4,0.7-0.8,1.4-1.3,2c-0.5,0.6-1,1.3-1.4,1.9c-0.5,0.6-1,1.2-1.5,1.8c-0.2,0.3-0.4,0.6-0.7,0.9c-0.8,0.8-1.6,1.7-2.5,2.4
		c-0.3,0.3-0.6,0.5-0.9,0.8c-0.3,0.3-0.6,0.5-0.9,0.8c-0.3,0.2-0.6,0.4-0.9,0.7c-0.6,0.5-1.3,1-1.9,1.4c-1,0.6-2,1.2-3,1.8
		c-0.4,0.2-0.8,0.4-1.1,0.5c-0.3,0.2-0.7,0.4-1.1,0.6c-0.3,0.1-0.7,0.3-1.1,0.5c-0.4,0.1-0.8,0.3-1.1,0.4c-0.4,0.1-0.8,0.3-1.2,0.4
		c-0.4,0.2-0.8,0.3-1.2,0.4c-0.8,0.3-1.7,0.5-2.5,0.7c-0.4,0.1-0.8,0.2-1.2,0.3c-2.1,0.6-4.7,1-6.8,1c-1,0.1-1.9,0.1-2.9,0.1
		c-1,0.1-2,0.1-3,0c-0.5,0-0.9,0-1.4,0c-0.5-0.1-1-0.1-1.5-0.1c-0.5-0.1-0.9-0.1-1.4-0.2c-1.3,0-2.8-0.2-4.1-0.6
		c-0.4-0.1-0.8-0.2-1.3-0.3c-0.4-0.1-0.8-0.2-1.3-0.3c-2-0.3-4.3-1.1-6-2c-0.3-0.1-0.7-0.3-1.1-0.5c-0.3-0.1-0.7-0.3-1.1-0.5
		c-0.3-0.2-0.7-0.4-1.1-0.6c-0.7-0.3-1.4-0.7-2-1.2c-0.7-0.4-1.4-0.8-2-1.3c-0.6-0.5-1.3-1-1.9-1.4c-0.5-0.6-1.1-1.1-1.7-1.5
		c-0.6-0.5-1.2-1.1-1.7-1.7c-0.6-0.5-1.1-1.1-1.6-1.7c-0.5-0.6-1-1.2-1.5-1.8c-0.2-0.3-0.4-0.7-0.7-1c-0.2-0.3-0.4-0.6-0.7-0.9
		c-0.2-0.3-0.4-0.7-0.7-1c-0.4-0.7-0.8-1.3-1.2-2c-0.4-0.7-0.8-1.5-1.2-2.2c-0.2-0.3-0.4-0.7-0.6-1c-0.2-0.4-0.4-0.8-0.5-1.2
		c-0.2-0.3-0.4-0.7-0.5-1.1c-0.2-0.3-0.4-0.7-0.5-1.1c-0.2-0.4-0.4-0.8-0.5-1.2c-0.3-0.8-0.6-1.5-0.9-2.3c-0.6-1.1-1-2.5-1.2-3.7
		c-0.2-0.8-0.5-1.7-0.8-2.5c-0.2-0.9-0.4-1.7-0.6-2.6c-0.2-0.9-0.4-1.7-0.6-2.6c-0.1-0.5-0.1-0.9-0.2-1.3c-0.7-2.5-1.2-5.6-1.2-8.2
		c-0.1-0.5-0.1-0.9-0.2-1.4c-0.1-0.9-0.1-1.9-0.2-2.8c-0.1-0.9-0.1-1.9-0.2-2.8c0-0.5,0-1-0.1-1.5c0-0.9,0-1.9,0-2.8
		c-0.3-1.8-0.3-4,0-5.8c0-1,0-1.9,0-2.9c0.1-1,0.1-1.9,0.2-2.9c0-0.5,0-1,0.1-1.5c0-0.5,0-0.9,0.1-1.4c0-0.5,0-1,0.1-1.5
		c0-0.5,0-0.9,0.1-1.4c0-1,0.1-2,0.3-2.9c0-4,0.7-9,1.8-12.9c0.1-1,0.3-1.9,0.5-2.8c0.1-0.5,0.1-0.9,0.2-1.4
		c0.2-0.9,0.4-1.9,0.6-2.8c0.1-0.4,0.2-0.8,0.3-1.3c0.1-0.5,0.2-0.9,0.3-1.4c0.2-0.9,0.4-1.7,0.6-2.6c0.1-0.5,0.2-0.9,0.3-1.3
		c0.1-0.5,0.3-0.9,0.4-1.3c0.2-0.9,0.4-1.8,0.7-2.6c0.2-0.9,0.4-1.7,0.7-2.5C363.1,598.6,363.2,598.5,363.3,598.4
		C363.5,598.3,363.2,598.5,363.3,598.4z"/>
</g>
</svg>
