<?xml version="1.0" encoding="utf-8"?>
<!-- Generator: Adobe Illustrator 18.0.0, SVG Export Plug-In . SVG Version: 6.00 Build 0)  -->
<!DOCTYPE svg PUBLIC "-//W3C//DTD SVG 1.0//EN" "http://www.w3.org/TR/2001/REC-SVG-20010904/DTD/svg10.dtd">
<svg version="1.0" id="Camada_1" xmlns="http://www.w3.org/2000/svg" xmlns:xlink="http://www.w3.org/1999/xlink" x="0px" y="0px"
	 viewBox="0 0 1024 768" enable-background="new 0 0 1024 768" xml:space="preserve">
<image overflow="visible" width="1500" height="1500" xlink:href="../../../Desenhos Jogo Yegatu/png2/urupe.png"  transform="matrix(0.5752 0 0 0.5752 82.6079 -168)">
</image>
<g>
	<path d="M602.7,758.9l-0.1-0.1c-0.1-0.1-0.1-0.1-0.2-0.2c-0.1-0.1-0.1-0.2-0.1-0.3c-0.2-0.2-0.3-0.5-0.3-0.8
		c-0.1-0.1-0.1-0.3-0.2-0.4c0-0.2,0-0.4-0.1-0.5c-0.1-0.4-0.1-0.8-0.2-1.2c-0.1-0.3-0.1-0.5-0.1-0.7c-0.1-0.3-0.1-0.5-0.1-0.8
		c-0.1-0.2-0.1-0.4-0.1-0.7c-0.1-0.3-0.1-0.6-0.1-0.9c-0.1-0.6-0.1-1.2-0.2-1.8c0-0.3,0-0.7,0-1c-0.1-0.3-0.1-0.7-0.1-1
		c-0.1-0.7-0.1-1.5-0.1-2.2c-0.1-0.8-0.1-1.5-0.1-2.3c-0.2-1.3,0-2.6-0.2-3.8c0-1.9,0.2-3.8-0.1-5.6c0-4.2,0-8.3,0-12.5
		c0.3-2.8-0.1-5.6,0.2-8.4c0-1.7,0-3.5,0-5.2c0.2-1.7,0-3.5,0.2-5.2c0-1.2,0-2.4,0.1-3.6c0-1.2,0-2.3,0.1-3.5c0-1.2,0-2.3,0.1-3.5
		c0-1.2,0-2.5,0-3.7c0.2-2.3,0.2-4.8,0-7c0-1.7,0.1-3.4-0.1-5c0-1.1,0-2.1-0.1-3.2c0-0.5,0-1,0-1.5c-0.1-1-0.1-2-0.2-3
		c0-0.5,0-1-0.1-1.5c0-0.5,0-0.9,0-1.4c-0.1-0.5-0.1-0.9-0.1-1.4c-0.1-0.9-0.1-1.8-0.2-2.7c0-0.4,0-0.8-0.1-1.3c0-0.4,0-0.8,0-1.2
		c-0.1-0.4-0.1-0.8-0.1-1.2c-0.1-0.8-0.1-1.5-0.2-2.3c0-0.4,0-0.8,0-1.1c-0.2-1,0-2-0.2-3c0-1.6-0.4-4,0.1-5.5c0-0.2,0-0.4,0-0.6
		c0.1-0.3,0.1-0.7,0.2-1c0.2-0.4,0.4-0.7,0.8-0.9c0.3-0.1,0.5-0.3,0.8-0.4c0.8-0.2,1.5-0.4,2.3-0.6c1.5-0.2,3.1-0.5,4.6-0.5
		c0.6-0.1,1.2-0.1,1.7-0.2c0.6,0,1.2,0,1.8,0c1.8-0.2,3.6-0.1,5.4-0.1c1.1,0.1,2.2,0.1,3.3,0.2c0.5,0,1,0,1.5,0.1
		c0.8,0.1,1.7,0.1,2.5,0.2c0.3,0.1,0.6,0.1,0.9,0.2c0.2,0.1,0.4,0.1,0.7,0.2c0.1,0.1,0.3,0.1,0.4,0.2c0.3,0.2,0.6,0.4,0.8,0.7
		c0.2,0.2,0.3,0.4,0.4,0.7c0,0.3,0,0.6-0.1,0.9c0.1,0.5,0,1-0.1,1.5c-0.4,1-0.5,1.8-0.2,2.5c0.1,0.3,0.4,0,1.1-0.8
		c0.3-0.3,0.6-0.5,1.1-0.7c0.3-0.2,0.7-0.4,1.1-0.7c0.3-0.3,0.7-0.5,1.1-0.6c0.3-0.2,0.7-0.4,1.1-0.6c0.3-0.2,0.7-0.4,1.1-0.6
		c0.3-0.1,0.7-0.3,1.1-0.5c0.8-0.2,1.5-0.5,2.2-0.9c0.8-0.2,1.5-0.4,2.2-0.7c0.4-0.1,0.8-0.2,1.1-0.3c1.5-0.2,2.9-0.7,4.4-0.7
		c0.4-0.1,0.8-0.1,1.1-0.1c1-0.2,2.2-0.1,3.2-0.1c0.9,0.2,2.2,0.3,3.1,0.3c1,0.2,2.1,0.3,3.1,0.7c0.3,0.1,0.6,0.2,0.9,0.3
		c0.7,0.2,1.3,0.4,2,0.6c0.6,0.2,1.2,0.5,1.8,0.9c0.3,0.1,0.6,0.3,0.9,0.4c0.3,0.2,0.6,0.4,0.9,0.5c0.3,0.2,0.6,0.4,0.9,0.6
		c0.9,0.4,1.8,1.1,2.5,1.8c0.3,0.2,0.5,0.4,0.8,0.6c0.3,0.3,0.5,0.5,0.8,0.7c0.3,0.3,0.5,0.5,0.8,0.7c0.3,0.3,0.5,0.5,0.7,0.8
		c0.3,0.3,0.5,0.5,0.7,0.8c0.3,0.3,0.5,0.5,0.7,0.8c0.3,0.3,0.5,0.6,0.7,0.9c0.4,0.6,0.8,1.2,1.3,1.8c0.2,0.3,0.4,0.6,0.6,0.9
		c0.3,0.7,0.7,1.4,1.1,2c0.1,0.3,0.3,0.7,0.5,1c0.1,0.4,0.3,0.8,0.4,1.1c0.2,0.3,0.4,0.7,0.5,1.1c0.6,1.5,1.2,3.1,1.5,4.6
		c0.1,0.4,0.2,0.8,0.3,1.2c0.5,1.7,0.7,3.5,0.9,5.2c0,0.5,0,0.9,0.1,1.3c0,0.5,0,0.9,0.1,1.4c0,2,0,4,0,5.9
		c-0.1,0.5-0.1,1.1-0.2,1.6c0,1-0.1,2-0.3,3c-0.4,1.4-0.7,2.9-0.9,4.3c-0.2,0.9-0.5,1.8-0.8,2.7c-0.5,1.2-1.1,2.6-1.5,3.8
		c-0.4,0.8-0.8,1.6-1.2,2.3c-0.2,0.4-0.4,0.8-0.6,1.1c-0.7,1-1.5,2.1-2.1,3.1c-0.3,0.3-0.5,0.7-0.8,1c-0.3,0.3-0.5,0.6-0.8,0.9
		c-0.2,0.3-0.5,0.6-0.8,0.9c-0.5,0.5-1.1,1.1-1.6,1.6c-1.2,1-2.4,2-3.7,2.8c-0.9,0.7-1.9,1.3-2.9,1.7c-0.3,0.2-0.7,0.4-1,0.5
		c-0.9,0.6-2,0.9-3,1.3c-0.3,0.1-0.7,0.2-1.1,0.3c-0.3,0.1-0.7,0.2-1,0.3c-0.3,0.1-0.7,0.1-1.1,0.2c-0.3,0.1-0.7,0.2-1,0.3
		c-0.7,0-1.5,0.1-2.2,0.3c-0.3,0-0.7,0-1,0.1c-1.4,0-2.9,0.2-4.3-0.1c-0.7-0.1-1.5-0.1-2.2-0.2c-0.3-0.1-0.7-0.1-1-0.2
		c-0.7-0.2-1.4-0.4-2.1-0.6c-0.3-0.1-0.7-0.2-1-0.3c-1.1-0.2-2.2-0.7-3.1-1.2c-0.3-0.1-0.7-0.3-1-0.5c-0.6-0.3-1.3-0.7-1.9-1.1
		c-0.4-0.1-0.7-0.3-0.9-0.6c-1-1-1.2-0.8-0.8,0.6c0.4,2.3,0.5,4.9,0.5,7.1c0.1,0.5,0.1,1.1,0.1,1.6c0.1,0.5,0.1,1,0.1,1.5
		c0.1,0.5,0.1,1.1,0.1,1.6c0.1,0.5,0.1,1.1,0.1,1.6c0.1,0.5,0.1,1.1,0.1,1.6c0.1,0.5,0.1,1.1,0.1,1.6c0.1,1.1,0.1,2.1,0.2,3.2
		c0,0.5,0,1.1,0.1,1.6c0,0.5,0,1.1,0,1.6c0.1,1.1,0.1,2.1,0.2,3.2c0,1,0,2,0,3c0.3,2.3,0.1,4.7,0.1,6.9c-0.1,0.8-0.1,1.6-0.1,2.4
		c-0.1,0.7-0.1,1.4-0.2,2.1c0,0.3,0,0.7-0.1,1c0,0.3,0,0.6-0.1,0.9c0,0.3,0,0.5-0.1,0.8c-0.1,0.2-0.1,0.4-0.2,0.7
		c0,0.2,0,0.4-0.1,0.6c-0.1,0.1-0.1,0.3-0.2,0.5c-0.1,0.3-0.3,0.5-0.5,0.7c-0.1,0.1-0.1,0.1-0.2,0.2c-1.6,1-4,1.7-5.9,2
		c-0.5,0.1-0.9,0.2-1.4,0.3c-1.8,0.5-3.8,0.6-5.7,0.9c-0.5,0-1,0-1.5,0.1c-0.5,0-0.9,0-1.4,0.1c-1.4,0-2.8,0.1-4.1-0.1
		c-0.8,0-1.7-0.1-2.5-0.3c-0.4,0-0.8-0.1-1.1-0.2c-0.3-0.1-0.7-0.1-1.1-0.2c-0.3-0.1-0.6-0.2-0.9-0.3
		C603.7,759.5,603.2,759.2,602.7,758.9z M641.4,689c0.4,0.1,0.8,0.2,1.3,0.2c1.7,0.3,3.4-0.6,4.8-1.4c0.8-0.5,1.4-1,2-1.7
		c0.3-0.3,0.6-0.7,0.9-1c0.4-0.7,0.8-1.5,1.2-2.2c0.1-0.4,0.2-0.8,0.3-1.2c0.1-0.4,0.2-0.8,0.2-1.2c0.1-0.4,0.1-0.8,0-1.3
		c0-0.9-0.1-1.8-0.4-2.7c-0.1-0.5-0.2-0.9-0.4-1.4c-0.1-0.5-0.3-0.9-0.6-1.3c-0.6-1.2-1.5-2.4-2.6-3.1c-0.3-0.3-0.7-0.5-1.1-0.7
		c-0.5-0.1-0.9-0.2-1.4-0.3c-2.2-0.6-5,0.2-6.8,1.4c-1.6,1-2.6,2.2-3.7,3.6c-0.2,0.3-0.4,0.7-0.6,1.1c-0.7,1.7-1,3.5-0.7,5.3
		c0.2,1,0.5,1.9,1,2.7c0.2,0.4,0.4,0.8,0.7,1.2c0.5,0.7,1.1,1.4,1.8,1.9c0.6,0.5,1.3,0.9,2,1.3C639.9,688.5,640.6,688.8,641.4,689
		C641.8,689.1,641,688.9,641.4,689z"/>
	<path d="M753.6,693c-0.1,0.7-0.3,1.4-0.5,2.1c-0.1,0.4-0.3,0.8-0.4,1.1c-0.2,0.4-0.4,0.8-0.5,1.1c-0.2,0.3-0.4,0.7-0.6,1
		c-0.2,0.4-0.4,0.8-0.6,1.1c-0.3,0.3-0.5,0.7-0.8,1c-0.2,0.3-0.4,0.7-0.7,1.1c-0.3,0.3-0.6,0.7-0.9,1c-0.3,0.3-0.6,0.6-0.9,0.9
		c-0.3,0.3-0.6,0.7-0.9,1c-0.7,0.6-1.4,1.2-2.1,1.8c-0.4,0.3-0.8,0.6-1.1,0.9c-0.4,0.3-0.8,0.5-1.2,0.8c-0.4,0.3-0.8,0.6-1.2,0.8
		c-0.8,0.6-1.6,1.1-2.4,1.5c-0.5,0.3-0.9,0.5-1.3,0.7c-0.8,0.5-1.7,0.9-2.6,1.3c-2.3,0.7-4.5,1.7-6.8,2.1c-1.3,0.4-2.8,0.6-4.1,0.6
		c-1.1,0.1-2.3,0.1-3.4,0.2c-1.1,0-2.2,0-3.3-0.1c-0.5,0-1.1,0-1.6,0c-0.5-0.1-1-0.1-1.5-0.1c-1.9-0.2-4-0.4-5.9-0.9
		c-0.5-0.1-0.9-0.2-1.4-0.3c-1.7-0.2-3.6-0.9-5.2-1.6c-0.4-0.1-0.8-0.3-1.2-0.5c-0.8-0.4-1.5-0.7-2.3-1c-0.8-0.4-1.5-0.8-2.1-1.3
		c-0.4-0.2-0.8-0.4-1.1-0.7c-0.3-0.2-0.7-0.4-1-0.7c-0.6-0.5-1.2-1-1.8-1.5c-0.3-0.3-0.6-0.5-0.9-0.8c-0.3-0.3-0.6-0.5-0.9-0.8
		c-0.3-0.3-0.5-0.6-0.8-0.9c-0.3-0.3-0.5-0.6-0.8-0.9c-0.3-0.3-0.5-0.7-0.8-1c-0.2-0.3-0.4-0.6-0.7-0.9c-0.6-1.1-1.3-2.1-1.9-3.2
		c-0.2-0.3-0.4-0.7-0.6-1c-0.2-0.4-0.4-0.8-0.5-1.2c-0.2-0.4-0.4-0.8-0.5-1.1c-0.9-1.9-1.7-4.3-2-6.3c-0.2-0.9-0.4-1.8-0.6-2.7
		c-0.2-0.9-0.3-1.7-0.3-2.6c-0.1-0.5-0.1-0.9-0.1-1.4c-0.2-1.2-0.2-2.7,0-3.9c0-0.5,0-0.9,0.1-1.3c0-1.3,0.3-2.6,0.5-3.9
		c0.1-0.4,0.2-0.8,0.3-1.2c0.1-0.5,0.2-0.9,0.3-1.3c0.4-1.2,0.7-2.5,1.3-3.6c0.1-0.4,0.3-0.8,0.5-1.2c0.1-0.4,0.3-0.8,0.5-1.1
		c0.2-0.4,0.4-0.8,0.6-1.2c0.4-0.8,0.8-1.5,1.3-2.2c0.2-0.3,0.4-0.7,0.7-1.1c1.1-1.8,2.6-3.6,4-5c0.3-0.3,0.6-0.6,0.9-0.9
		c0.3-0.3,0.6-0.5,0.9-0.8c0.9-0.9,2-1.8,3.1-2.5c2.3-1.9,5.2-3.6,8-4.5c0.4-0.2,0.8-0.4,1.2-0.5c1.2-0.5,2.6-1,3.9-1.2
		c0.5-0.1,0.9-0.3,1.4-0.4c0.5-0.1,0.9-0.1,1.4-0.2c0.6-0.1,1.2-0.2,1.8-0.3c1.2-0.3,2.4-0.4,3.6-0.4c4.4-0.5,8.5,0.5,12.9,1
		c0.9,0.2,1.8,0.5,2.7,0.9c0.5,0.1,0.9,0.3,1.3,0.5c1.7,0.5,3.5,1.5,4.9,2.4c1.9,1,3.6,2.5,5.2,3.8c0.9,0.9,1.7,1.7,2.6,2.6
		c0.3,0.3,0.5,0.6,0.8,0.9c0.3,0.3,0.5,0.7,0.8,1c0.3,0.3,0.5,0.6,0.7,0.9c0.3,0.3,0.5,0.7,0.7,1c0.3,0.3,0.5,0.6,0.7,0.9
		c0.6,1,1.2,2,1.8,3c0.1,0.3,0.3,0.7,0.5,1c0.1,0.3,0.3,0.7,0.4,1c0.4,0.6,0.7,1.3,0.9,2c0.3,0.6,0.5,1.2,0.7,1.9
		c0.1,0.3,0.2,0.7,0.3,1c0.2,0.6,0.4,1.2,0.5,1.8c0.1,0.3,0.2,0.6,0.3,0.9c0,0.6,0.1,1.2,0.3,1.8c0,0.3,0,0.5,0.1,0.8
		c0,0.3,0,0.5,0.1,0.8c0,1,0,2,0,3c-0.1,0.2-0.1,0.4-0.1,0.6c-0.1,0.2-0.1,0.4-0.1,0.6c-0.1,0.2-0.1,0.4-0.2,0.6
		c0,0.2,0,0.4-0.1,0.5c-0.1,0.3-0.3,0.6-0.5,0.9c-0.1,0.1-0.1,0.3-0.2,0.4c-0.1,0.1-0.2,0.2-0.3,0.3c-0.1,0.1-0.2,0.2-0.3,0.3
		c-0.1,0.1-0.3,0.2-0.5,0.3c-0.1,0.1-0.3,0.2-0.5,0.3c-0.2,0.1-0.4,0.2-0.6,0.3c-0.3,0.1-0.5,0.2-0.7,0.3c-0.3,0.1-0.5,0.2-0.8,0.3
		c-0.3,0.1-0.5,0.2-0.8,0.3c-0.3,0.1-0.6,0.2-0.9,0.3c-0.3,0.1-0.6,0.2-0.9,0.3c-0.3,0.1-0.7,0.1-1,0.2c-0.4,0.1-0.8,0.2-1.1,0.3
		c-0.8,0.2-1.5,0.4-2.3,0.6c-0.8,0.2-1.6,0.3-2.4,0.4c-2.1,0.7-4.5,0.8-6.6,1.1c-1,0.1-1.9,0.1-2.9,0.2c-0.5,0.1-0.9,0.1-1.4,0.2
		c-0.5,0-1,0-1.5,0.1c-0.5,0-0.9,0-1.4,0c-2.4,0.3-4.9,0.1-7.3,0.1c-1.4-0.2-2.9-0.3-4.3-0.3c-1.8-0.3-3.6-0.5-5.4-0.8
		c-0.5-0.1-0.9-0.2-1.3-0.3c-0.5,0-0.9-0.1-1.2-0.4c-0.7-0.4-1.1-0.5-1.2-0.3c-0.2,0.3-0.2,0.8,0,1.5c0.1,0.5,0.2,1,0.2,1.6
		c0.2,1,0.4,2,0.7,2.9c0.4,0.9,0.8,1.8,1.3,2.7c0.5,0.8,1.1,1.5,1.8,2.1c0.3,0.3,0.7,0.5,1.1,0.8c0.5,0.3,0.9,0.5,1.4,0.6
		c0.5,0.2,1,0.3,1.5,0.4c1.1,0.3,2.2,0.3,3.3,0c1.7-0.2,3.4-1,4.7-2.1c0.6-0.4,1.2-0.8,1.7-1.2c0.3-0.1,0.5-0.3,0.7-0.4
		c0.3-0.1,0.5-0.1,0.7-0.2c1.2-0.2,2.4-0.4,3.6-0.6c0.6-0.1,1.2-0.1,1.8-0.2c2.8-0.7,5.8-0.7,8.6-1.1c1-0.1,2.1-0.1,3.1-0.2
		c1-0.1,1.9-0.1,2.9-0.2c1.5,0,3.1-0.2,4.5,0.1c0.3,0,0.5,0,0.8,0.1c0.2,0,0.4,0,0.7,0.1c0.1,0,0.3,0,0.5,0.1
		c0.1,0.1,0.3,0.1,0.4,0.2C753.6,692.6,753.7,692.7,753.6,693C753.5,693.3,753.7,692.8,753.6,693z M709,673.6
		c0.1,0.3,0.5,0.5,1.2,0.6c0.5,0.1,0.9,0.2,1.4,0.5c0.4,0.1,0.9,0.3,1.4,0.4c0.5,0.1,1,0.2,1.5,0.3c0.5,0.1,1,0.1,1.5,0.2
		c0.5,0,1,0,1.5,0.1c1.4,0,2.9,0.1,4.3-0.1c0.8,0,1.6-0.1,2.3-0.4c0.3-0.1,0.6-0.1,0.9-0.2c0.3-0.1,0.5-0.3,0.7-0.4
		c0.2-0.1,0.4-0.2,0.5-0.4c1.5-1.5,1.9-3.6,1.6-5.6c-0.1-0.4-0.2-0.8-0.3-1.1c-0.1-0.4-0.3-0.8-0.5-1.2c-0.2-0.3-0.4-0.7-0.7-1
		c-0.2-0.3-0.5-0.6-0.8-0.9c-0.9-0.9-2.1-1.6-3.3-1.8c-0.8-0.2-1.5-0.3-2.3-0.1c-0.3,0-0.7,0-1,0.1c-0.7,0.2-1.4,0.5-2.1,0.8
		c-0.4,0.2-0.8,0.4-1.1,0.6c-0.3,0.3-0.7,0.5-1,0.8c-0.4,0.3-0.8,0.6-1.1,0.9c-0.3,0.3-0.7,0.6-1,1c-0.3,0.3-0.6,0.7-0.9,1.1
		c-0.9,1.4-1.4,2.8-2.2,4.2C709.1,672.6,708.9,673.2,709,673.6C709.1,673.8,708.9,673.2,709,673.6z"/>
</g>
<g>
	<path fill="#F1CC5A" d="M566.1,729.6H412.8c-12.8,0-23.2-10.4-23.2-23.2v-128c0-12.8,10.4-23.2,23.2-23.2h153.3
		c12.8,0,23.2,10.4,23.2,23.2v128C589.3,719.1,578.9,729.6,566.1,729.6z"/>
	<path fill="#FFEDBB" d="M554.7,714.7H424.2c-12.8,0-23.2-10.4-23.2-23.2v-97.9c0-12.8,10.4-23.2,23.2-23.2h130.6
		c12.8,0,23.2,10.4,23.2,23.2v97.9C577.9,704.3,567.5,714.7,554.7,714.7z"/>
</g>
<g>
	<path d="M292.8,598.4c0.1-0.1,0.3-0.3,0.5-0.4c0.3-0.1,0.6-0.2,0.9-0.3c0.4-0.1,0.8-0.2,1.1-0.3c1.5-0.2,2.9-0.4,4.4-0.6
		c0.6,0,1.2,0,1.8-0.1c0.6,0,1.2,0,1.8-0.1c1.8,0,3.7,0,5.5,0c1.7,0.2,3.5,0.3,5.1,0.3c1.2,0.2,2.4,0.4,3.6,0.6
		c0.3,0.1,0.5,0.2,0.8,0.3c0.1,0.1,0.3,0.2,0.4,0.3c0.1,0.1,0.2,0.2,0.2,0.3c-0.1,0.4-0.1,0.8-0.2,1.2c0,0.4,0,0.8-0.1,1.1
		c-0.1,0.8-0.1,1.7-0.2,2.5c-0.1,0.4-0.1,0.8-0.2,1.2c-0.1,0.9-0.1,1.7-0.2,2.6c-0.2,0.9-0.3,1.8-0.3,2.7c-0.2,0.9-0.3,1.9-0.3,2.8
		c-0.2,1-0.3,1.9-0.3,2.9c-0.1,0.5-0.1,0.9-0.2,1.4c0,1-0.1,2-0.3,3c-0.1,1-0.1,2-0.2,3c-0.1,0.5-0.1,1-0.1,1.5
		c-0.1,0.5-0.1,1-0.2,1.5c0,0.5,0,1-0.1,1.5c0,0.5,0,1-0.1,1.5c0,0.5,0,1-0.1,1.5c0,0.5,0,1.1-0.1,1.6c0,0.5,0,1,0,1.5
		c-0.1,1-0.1,2-0.1,3c-0.3,2.8-0.4,6.2,0,9c0,1,0,1.9,0.1,2.9c0,0.5,0,0.9,0.1,1.4c0.1,0.9,0.1,1.8,0.2,2.7c0.2,0.9,0.3,1.8,0.3,2.7
		c0.1,0.4,0.1,0.8,0.2,1.2c0.3,1.2,0.4,2.5,0.8,3.7c0.1,0.4,0.2,0.8,0.3,1.2c0.2,0.8,0.4,1.5,0.6,2.3c0.4,1,0.7,2.2,1.3,3
		c0.1,0.3,0.3,0.7,0.4,1c0.2,0.3,0.4,0.6,0.5,0.9c0.2,0.3,0.4,0.6,0.6,0.9c0.3,0.6,0.7,1.1,1.1,1.5c0.3,0.6,0.8,1,1.3,1.4
		c0.4,0.5,0.9,0.9,1.4,1.2c0.3,0.2,0.5,0.4,0.8,0.5c0.5,0.4,1.1,0.7,1.7,0.9c0.3,0.1,0.6,0.2,0.9,0.3c0.9,0.4,2,0.5,2.9,0.7
		c0.3,0,0.7,0,1,0.1c0.7,0,1.5,0,2.2-0.1c1.3,0,2.8-0.3,4-0.8c0.3-0.1,0.6-0.2,0.9-0.3c0.3-0.1,0.5-0.3,0.8-0.5
		c0.3-0.1,0.5-0.3,0.8-0.4c0.8-0.6,1.5-1,2.2-1.7c0.2-0.3,0.4-0.5,0.6-0.7c0.3-0.3,0.5-0.5,0.7-0.7c0.2-0.3,0.4-0.5,0.5-0.8
		c0.2-0.3,0.4-0.5,0.6-0.8c0.2-0.3,0.4-0.6,0.5-0.9c0.3-0.6,0.7-1.2,1-1.8c0.4-1,0.9-2,1.1-3.1c0.1-0.3,0.3-0.7,0.4-1.1
		c0.1-0.3,0.2-0.7,0.3-1.1c0.1-0.4,0.2-0.8,0.3-1.2c0.1-0.8,0.3-1.6,0.4-2.4c0.1-0.4,0.2-0.8,0.2-1.2c0.2-1.3,0.5-2.6,0.5-3.9
		c0.1-0.5,0.1-0.9,0.1-1.4c0.1-0.5,0.1-0.9,0.1-1.3c0.1-0.9,0.1-1.9,0.2-2.8c0-2.9,0.3-5.9-0.1-8.8c0-0.5,0-1,0-1.5
		c-0.1-1-0.1-2-0.2-3c0-0.5,0-1-0.1-1.5c0-0.5,0-1-0.1-1.5c0-0.5,0-1-0.1-1.5c-0.1-1-0.1-2-0.2-3c-0.1-0.5-0.1-1-0.2-1.5
		c0-1.5-0.4-3-0.4-4.5c-0.1-1-0.3-1.9-0.4-2.9c0-1.4-0.3-2.9-0.5-4.3c0-1.4-0.3-2.8-0.5-4.1c0-1.4-0.3-2.7-0.5-4
		c0-0.8-0.1-1.7-0.3-2.5c-0.1-0.8-0.1-1.6-0.2-2.4c-0.1-0.4-0.1-0.8-0.2-1.1c0-0.1,0.1-0.3,0.2-0.4c0.1-0.1,0.2-0.2,0.4-0.3
		c0.3-0.1,0.5-0.1,0.7-0.2c0.3-0.1,0.7-0.1,1-0.2c0.4-0.1,0.8-0.2,1.2-0.2c1-0.1,1.9-0.3,2.9-0.4c0.5,0,1.1,0,1.7-0.1
		c0.5,0,1.1,0,1.7,0c2.3-0.3,4.9-0.3,7.2,0c0.6,0,1.2,0,1.7,0.1c0.5,0,1.1,0,1.6,0.1c1.3,0,2.6,0.3,3.8,0.5c0.3,0.1,0.5,0.1,0.8,0.2
		c0.2,0.1,0.4,0.2,0.6,0.3c0.1,0.1,0.1,0.1,0.2,0.2c0.3,0.8,0.6,1.7,0.8,2.5c0.2,1.3,0.8,2.4,1,3.7c0.1,0.4,0.3,0.8,0.4,1.3
		c0.2,0.9,0.4,1.7,0.6,2.6c0.1,0.4,0.2,0.8,0.3,1.3c0.1,0.4,0.2,0.8,0.3,1.3c0.1,0.5,0.2,0.9,0.3,1.3c0.1,0.5,0.2,0.9,0.3,1.4
		c0.1,0.4,0.2,0.8,0.3,1.3c0.2,0.9,0.4,1.9,0.6,2.8c0.1,0.9,0.3,1.8,0.5,2.7c0.5,3.7,1.5,7.6,1.5,11.4c0.1,0.5,0.1,1,0.2,1.5
		c0.1,0.9,0.1,1.9,0.2,2.8c0.1,0.5,0.1,1,0.1,1.5c0.1,0.5,0.1,0.9,0.1,1.4c0.1,0.5,0.1,1,0.1,1.5c0.1,1,0.1,1.9,0.2,2.9
		c0,0.9,0,1.9,0.1,2.8c0,1.9,0.2,3.9-0.1,5.8c0,1,0,1.9,0,2.9c-0.1,0.9-0.1,1.9-0.2,2.8c0,0.5,0,0.9-0.1,1.4c0,0.5,0,0.9-0.1,1.4
		c0,0.9-0.1,1.9-0.3,2.8c0,2.5-0.4,5.8-1.2,8.1c-0.1,0.9-0.3,1.8-0.5,2.7c-0.1,0.4-0.2,0.8-0.3,1.3c-0.2,0.9-0.4,1.7-0.6,2.6
		c-0.1,0.4-0.3,0.8-0.4,1.2c-0.3,1.7-1,3.3-1.5,4.9c-0.4,0.8-0.7,1.6-0.9,2.4c-0.2,0.4-0.4,0.8-0.5,1.2c-0.2,0.3-0.4,0.7-0.5,1.1
		c-0.2,0.4-0.4,0.8-0.6,1.1c-0.1,0.4-0.3,0.8-0.5,1.1c-0.2,0.4-0.4,0.8-0.6,1.1c-0.3,0.7-0.7,1.4-1.1,2.1c-0.2,0.4-0.4,0.8-0.7,1.1
		c-0.4,0.7-0.8,1.4-1.3,2c-0.5,0.6-1,1.3-1.4,1.9c-0.5,0.6-1,1.2-1.5,1.8c-0.2,0.3-0.4,0.6-0.7,0.9c-0.8,0.8-1.6,1.7-2.5,2.4
		c-0.3,0.3-0.6,0.5-0.9,0.8c-0.3,0.3-0.6,0.5-0.9,0.8c-0.3,0.2-0.6,0.4-0.9,0.7c-0.6,0.5-1.3,1-1.9,1.4c-1,0.6-2,1.2-3,1.8
		c-0.4,0.2-0.8,0.4-1.1,0.5c-0.3,0.2-0.7,0.4-1.1,0.6c-0.3,0.1-0.7,0.3-1.1,0.5c-0.4,0.1-0.8,0.3-1.1,0.4c-0.4,0.1-0.8,0.3-1.2,0.4
		c-0.4,0.2-0.8,0.3-1.2,0.4c-0.8,0.3-1.7,0.5-2.5,0.7c-0.4,0.1-0.8,0.2-1.2,0.3c-2.1,0.6-4.7,1-6.8,1c-1,0.1-1.9,0.1-2.9,0.1
		c-1,0.1-2,0.1-3,0c-0.5,0-0.9,0-1.4,0c-0.5-0.1-1-0.1-1.5-0.1c-0.5-0.1-0.9-0.1-1.4-0.2c-1.3,0-2.8-0.2-4.1-0.6
		c-0.4-0.1-0.8-0.2-1.3-0.3c-0.4-0.1-0.8-0.2-1.3-0.3c-2-0.3-4.3-1.1-6-2c-0.3-0.1-0.7-0.3-1.1-0.5c-0.3-0.1-0.7-0.3-1.1-0.5
		c-0.3-0.2-0.7-0.4-1.1-0.6c-0.7-0.3-1.4-0.7-2-1.2c-0.7-0.4-1.4-0.8-2-1.3c-0.6-0.5-1.3-1-1.9-1.4c-0.5-0.6-1.1-1.1-1.7-1.5
		c-0.6-0.5-1.2-1.1-1.7-1.7c-0.6-0.5-1.1-1.1-1.6-1.7c-0.5-0.6-1-1.2-1.5-1.8c-0.2-0.3-0.4-0.7-0.7-1c-0.2-0.3-0.4-0.6-0.7-0.9
		c-0.2-0.3-0.4-0.7-0.7-1c-0.4-0.7-0.8-1.3-1.2-2c-0.4-0.7-0.8-1.5-1.2-2.2c-0.2-0.3-0.4-0.7-0.6-1c-0.2-0.4-0.4-0.8-0.5-1.2
		c-0.2-0.3-0.4-0.7-0.5-1.1c-0.2-0.3-0.4-0.7-0.5-1.1c-0.2-0.4-0.4-0.8-0.5-1.2c-0.3-0.8-0.6-1.5-0.9-2.3c-0.6-1.1-1-2.5-1.2-3.7
		c-0.2-0.8-0.5-1.7-0.8-2.5c-0.2-0.9-0.4-1.7-0.6-2.6c-0.2-0.9-0.4-1.7-0.6-2.6c-0.1-0.5-0.1-0.9-0.2-1.3c-0.7-2.5-1.2-5.6-1.2-8.2
		c-0.1-0.5-0.1-0.9-0.2-1.4c-0.1-0.9-0.1-1.9-0.2-2.8c-0.1-0.9-0.1-1.9-0.2-2.8c0-0.5,0-1-0.1-1.5c0-0.9,0-1.9,0-2.8
		c-0.3-1.8-0.3-4,0-5.8c0-1,0-1.9,0-2.9c0.1-1,0.1-1.9,0.2-2.9c0-0.5,0-1,0.1-1.5c0-0.5,0-0.9,0.1-1.4c0-0.5,0-1,0.1-1.5
		c0-0.5,0-0.9,0.1-1.4c0-1,0.1-2,0.3-2.9c0-4,0.7-9,1.8-12.9c0.1-1,0.3-1.9,0.5-2.8c0.1-0.5,0.1-0.9,0.2-1.4
		c0.2-0.9,0.4-1.9,0.6-2.8c0.1-0.4,0.2-0.8,0.3-1.3c0.1-0.5,0.2-0.9,0.3-1.4c0.2-0.9,0.4-1.7,0.6-2.6c0.1-0.5,0.2-0.9,0.3-1.3
		c0.1-0.5,0.3-0.9,0.4-1.3c0.2-0.9,0.4-1.8,0.7-2.6c0.2-0.9,0.4-1.7,0.7-2.5C292.6,598.6,292.7,598.5,292.8,598.4
		C292.9,598.3,292.7,598.5,292.8,598.4z"/>
</g>
</svg>
