<?xml version="1.0" encoding="utf-8"?>
<!-- Generator: Adobe Illustrator 18.0.0, SVG Export Plug-In . SVG Version: 6.00 Build 0)  -->
<!DOCTYPE svg PUBLIC "-//W3C//DTD SVG 1.0//EN" "http://www.w3.org/TR/2001/REC-SVG-20010904/DTD/svg10.dtd">
<svg version="1.0" id="Camada_1" xmlns="http://www.w3.org/2000/svg" xmlns:xlink="http://www.w3.org/1999/xlink" x="0px" y="0px"
	 viewBox="0 0 1024 768" enable-background="new 0 0 1024 768" xml:space="preserve">
<g>
	<path d="M465.3,599.4c0.2-0.2,0.4-0.4,0.7-0.5c0.3-0.1,0.6-0.3,0.9-0.4c0.8-0.2,1.5-0.4,2.3-0.6c1.9-0.5,4-0.7,5.9-0.9
		c0.5,0,1.1,0,1.6-0.1c0.6,0,1.2,0,1.7,0c1.6-0.2,3.4-0.2,5,0c0.5,0,1.1,0,1.6,0c0.5,0.1,1,0.1,1.5,0.1c0.5,0.1,1,0.1,1.5,0.1
		c1.5,0.2,3,0.4,4.4,0.8c0.4,0.1,0.8,0.3,1.2,0.6c0.1,0.1,0.2,0.2,0.3,0.3c0.1,0.1,0.1,0.2,0.2,0.3c0.2,0.2,0.3,0.5,0.4,0.7
		c0.1,0.2,0.1,0.4,0.1,0.5c0.1,0.2,0.1,0.4,0.1,0.5c0.1,0.2,0.1,0.4,0.1,0.6c0.4,1.3,0.1,3,0.1,4.3c-0.1,0.6-0.1,1.2-0.2,1.8
		c0,0.3,0,0.6-0.1,0.9c-0.1,0.7-0.1,1.4-0.2,2.1c-0.1,0.7-0.3,1.4-0.4,2.1c0,1.6-0.5,3.2-0.7,4.8c-0.4,1.2-0.5,2.6-0.7,3.8
		c-0.2,0.9-0.4,1.8-0.5,2.7c-0.2,0.9-0.4,1.9-0.6,2.8c-0.1,0.5-0.1,1-0.2,1.5c-0.2,1-0.4,1.9-0.6,2.9c-0.1,0.5-0.1,1-0.2,1.5
		c-0.2,1-0.4,2-0.6,3c-0.1,0.5-0.1,1.1-0.2,1.6c-0.2,1-0.4,2.1-0.6,3.1c-0.1,1.1-0.3,2.2-0.5,3.2c-0.1,1.1-0.3,2.2-0.5,3.2
		c-0.4,3.3-0.8,6.6-1.2,10c0,1.1-0.1,2.2-0.3,3.3c0,0.5,0,1.1-0.1,1.7c-0.1,1.1-0.1,2.2-0.2,3.3c-0.3,0.9-0.4,1.5-0.1,1.6
		c0.3,0.2,0.8-0.1,1.3-1c0.3-0.5,0.7-0.8,1.2-1c0.4-0.4,0.8-0.8,1.2-1.2c1.3-1,2.5-2.3,3.5-3.5c2.1-2.4,4.2-4.9,6-7.5
		c0.6-0.8,1.2-1.5,1.7-2.3c0.3-0.4,0.5-0.8,0.8-1.1c0.2-0.3,0.4-0.7,0.7-1.1c0.2-0.3,0.4-0.6,0.7-0.9c0.7-1.1,1.5-2.1,2.2-3.1
		c0.1-0.1,0.3-0.3,0.4-0.5c0.1-0.1,0.3-0.3,0.4-0.4c0.1-0.1,0.2-0.2,0.3-0.3c0.1-0.1,0.2-0.1,0.3-0.1c0.2-0.1,0.4-0.1,0.7-0.2
		c3,0,5.8,0.5,8.7,1.2c0.5,0.1,1,0.2,1.5,0.3c1.1,0.3,2.1,0.7,3.2,1c0.5,0.1,1.1,0.3,1.6,0.5c1.1,0.3,2.1,0.7,3.1,1.1
		c1.5,0.4,2.8,1.1,4.2,1.7c0.8,0.3,1.5,0.7,2.2,1.1c0.3,0.2,0.6,0.4,0.9,0.6c0.3,0.1,0.5,0.3,0.7,0.5c0.2,0.1,0.4,0.3,0.6,0.5
		c0.1,0.1,0.3,0.3,0.4,0.5c0.1,0.2,0.1,0.5,0.1,0.7c-0.1,0.3-0.3,0.7-0.4,1c-0.1,0.1-0.2,0.3-0.3,0.5c-0.1,0.2-0.3,0.4-0.5,0.6
		c-0.1,0.2-0.3,0.4-0.5,0.7c-0.4,0.5-0.8,0.9-1.2,1.4c-0.3,0.3-0.5,0.5-0.8,0.8c-0.7,0.9-1.7,1.9-2.6,2.6c-0.3,0.3-0.7,0.7-1,1
		c-0.3,0.3-0.7,0.6-1,0.9c-0.4,0.3-0.8,0.7-1.1,1c-0.4,0.3-0.8,0.7-1.1,1c-0.4,0.3-0.8,0.6-1.2,0.9c-1.2,1-2.4,2.1-3.7,3
		c-0.4,0.3-0.8,0.7-1.2,1c-1.3,0.9-2.6,2-3.9,2.9c-0.4,0.3-0.8,0.6-1.3,0.9c-0.4,0.3-0.8,0.5-1.2,0.8c-1.2,0.9-2.5,1.7-3.8,2.5
		c-0.4,0.2-0.8,0.4-1.2,0.7c-0.4,0.3-0.8,0.6-1.2,0.7c-0.6,0.1-1,0.3-1.1,0.6c-0.1,0.2,0.1,0.3,0.8,0.3c0.3,0.1,0.7,0.2,1,0.4
		c0.3,0.1,0.7,0.3,1,0.5c0.3,0.1,0.7,0.3,1.1,0.5c0.8,0.4,1.5,0.8,2.3,1.2c0.5,0.3,0.9,0.5,1.3,0.7c0.4,0.3,0.8,0.5,1.3,0.7
		c0.5,0.3,0.9,0.5,1.3,0.8c0.9,0.5,1.9,1.1,2.8,1.6c0.9,0.6,1.9,1.2,2.8,1.8c0.5,0.3,0.9,0.6,1.4,0.9c0.5,0.3,0.9,0.6,1.4,0.9
		c0.9,0.6,1.8,1.2,2.7,1.8c0.5,0.3,0.9,0.7,1.4,1c0.4,0.3,0.8,0.6,1.3,0.9c0.4,0.3,0.8,0.6,1.2,0.9c0.4,0.3,0.8,0.6,1.2,0.9
		c0.4,0.3,0.8,0.6,1.2,0.9c0.3,0.3,0.7,0.5,1.1,0.8c0.3,0.3,0.7,0.6,1,0.9c0.3,0.2,0.6,0.5,0.9,0.8c1,0.8,2,1.8,2.8,2.8
		c0.3,0.3,0.5,0.7,0.7,1.1c0.1,0.1,0.1,0.3,0.2,0.4c0,0.7-0.2,1.1-0.6,1.6c-0.2,0.2-0.4,0.4-0.6,0.6c-0.3,0.3-0.5,0.5-0.8,0.7
		c-1.1,0.9-2.2,1.7-3.3,2.4c-2,1.1-3.9,2.2-5.9,3.2c-1.6,0.6-3.1,1.5-4.7,2.1c-1,0.5-2.1,0.9-3.1,1.3c-0.5,0.1-0.9,0.3-1.4,0.5
		c-0.4,0.1-0.8,0.3-1.3,0.5c-0.4,0.1-0.8,0.2-1.2,0.3c-0.9,0.3-2.3,0.8-3.2,0.5c-0.1,0-0.3,0-0.4-0.1c-0.2-0.1-0.4-0.2-0.5-0.3
		c-0.2-0.1-0.4-0.3-0.5-0.4c-0.2-0.2-0.4-0.4-0.6-0.5c-0.4-0.5-0.8-1-1.3-1.4c-0.6-0.5-1.1-1.1-1.6-1.7c-0.6-0.6-1.1-1.3-1.7-1.9
		c-0.3-0.3-0.6-0.7-0.9-1c-0.3-0.4-0.7-0.8-1-1.1c-0.3-0.4-0.7-0.8-1-1.1c-0.3-0.4-0.7-0.8-1-1.1c-0.4-0.4-0.8-0.8-1.1-1.2
		c-0.3-0.3-0.7-0.7-1.1-1.1c-0.4-0.3-0.8-0.7-1.2-1.1c-0.3-0.3-0.7-0.7-1.1-1.1c-0.8-0.7-1.6-1.4-2.5-2c-0.8-0.7-1.6-1.3-2.5-1.9
		c-0.8-0.6-1.7-1.1-2.6-1.5c-0.5-0.2-1-0.4-1.4-0.7c-0.7-0.5-1.1-0.7-1.3-0.5c-0.3,0.3-0.3,0.8,0,1.6c0.2,0.5,0.3,1,0.2,1.6
		c0.1,1.1,0.3,2.2,0.5,3.2c0.1,0.5,0.2,1.1,0.3,1.6c0.1,0.5,0.2,1,0.3,1.5c0.1,0.5,0.2,1,0.3,1.5c0.1,0.5,0.2,1,0.3,1.5
		c0.1,0.4,0.2,0.8,0.3,1.3c0.2,1.7,0.5,3.4,0.5,5.1c-0.1,0.2-0.1,0.4-0.2,0.6c-0.2,0.4-0.4,0.6-0.8,0.6c-1.3,0.5-2.9,0.7-4.3,0.7
		c-0.5,0.1-1,0.1-1.5,0.2c-0.5,0-1.1,0-1.6,0.1c-0.6,0-1.2,0-1.8,0c-3.3,0.4-7.2,0.4-10.5,0c-0.5,0-0.9,0-1.4,0
		c-0.5-0.1-0.9-0.1-1.3-0.1c-0.3-0.1-0.7-0.1-1.1-0.2c-0.3,0-0.5,0-0.8-0.1c-0.2-0.1-0.4-0.1-0.5-0.2c-0.1,0-0.2-0.1-0.3-0.2
		c0-0.1,0-0.1,0-0.2c-0.2-0.2-0.1-1.1-0.1-1.4c-0.3-0.8-0.1-1.7-0.1-2.5c-0.3-1.1-0.1-2.3-0.1-3.4c-0.2-1.5,0-3-0.2-4.4
		c0-1.7,0.1-3.4-0.1-5.1c0-1.9,0.1-3.9-0.1-5.8c0-2.1,0.2-4.3-0.1-6.3c0-2.8,0.2-5.7-0.1-8.5c0-3.6,0-7.2,0-10.9
		c-1.1-9.5-0.1-19.7-0.1-29.3c0.4-3.3-0.2-6.7,0.2-10.1c0-1.5,0-3.1,0-4.6c0.2-1.4,0-2.8,0.2-4.2c0-0.9,0-1.8,0-2.7
		c0.1-0.8,0.1-1.7,0.1-2.5c0.1-0.8,0.1-1.5,0.1-2.3c0.1-0.7,0.1-1.3,0.2-2c0-0.6,0-1.3,0.1-1.9c0-0.3,0-0.6,0-0.9
		c0.1-0.2,0.1-0.4,0.1-0.7c0-0.5,0.1-0.9,0.2-1.4c0-0.2,0-0.4,0.1-0.6c0-0.2,0-0.4,0-0.5c0.1-0.2,0.1-0.4,0.1-0.5
		c0.1-0.1,0.1-0.3,0.1-0.4c0.1-0.1,0.1-0.2,0.1-0.3c0-0.2,0.1-0.3,0.2-0.4C464.9,599.7,465.1,599.6,465.3,599.4
		C465.5,599.2,465.1,599.6,465.3,599.4z"/>
	<path d="M586.1,705.2c-0.1-0.3-0.3,0-0.6,0.9c-0.1,0.3-0.4,0.5-0.7,0.8c-0.5,0.5-0.9,0.9-1.4,1.4c-0.3,0.3-0.5,0.5-0.7,0.7
		c-0.5,0.4-1,0.9-1.5,1.3c-0.3,0.2-0.5,0.4-0.8,0.6c-0.8,0.4-1.7,1-2.4,1.5c-0.6,0.3-1.1,0.6-1.7,0.8c-0.3,0.1-0.5,0.2-0.8,0.3
		c-0.3,0.1-0.6,0.3-0.9,0.4c-0.3,0.1-0.5,0.1-0.8,0.2c-0.9,0.5-2.5,0.8-3.5,0.8c-0.3,0.1-0.6,0.1-0.9,0.1c-0.6,0.1-1.2,0.1-1.8,0.1
		c-0.3,0.1-0.6,0.1-0.9,0c-0.6,0-1.1,0-1.7,0c-0.3-0.1-0.6-0.1-0.9-0.1c-0.3-0.1-0.6-0.1-0.9-0.2c-0.9,0-1.8-0.3-2.6-0.5
		c-0.6-0.2-1.2-0.4-1.8-0.6c-0.3-0.1-0.5-0.2-0.8-0.3c-0.3-0.1-0.6-0.3-0.9-0.4c-0.8-0.4-1.6-0.8-2.4-1.2c-0.3-0.2-0.5-0.4-0.8-0.5
		c-0.3-0.2-0.5-0.4-0.8-0.5c-0.3-0.2-0.5-0.4-0.8-0.6c-0.6-0.3-1.1-0.7-1.5-1.1c-0.8-0.6-1.6-1.2-2.2-2c-0.2-0.2-0.4-0.4-0.7-0.7
		c-0.2-0.3-0.4-0.5-0.7-0.8c-0.7-0.7-1.3-1.6-1.8-2.4c-0.2-0.3-0.4-0.5-0.6-0.8c-0.2-0.3-0.4-0.6-0.6-0.9c-0.1-0.3-0.3-0.6-0.5-0.9
		c-0.2-0.3-0.4-0.7-0.5-1c-0.4-0.6-0.7-1.3-1-1.9c-0.4-1.1-0.8-2.1-1.2-3.2c-0.1-0.3-0.2-0.7-0.3-1.1c-0.1-0.3-0.3-0.7-0.4-1.1
		c-0.1-0.4-0.1-0.8-0.2-1.1c-0.5-1.6-0.6-3.3-0.9-4.9c0-0.4,0-0.8-0.1-1.3c0-0.4,0-0.8-0.1-1.3c0-1.8-0.2-3.7,0.1-5.4
		c0-0.5,0-0.9,0.1-1.4c0-1.5,0.3-3,0.5-4.4c0.1-0.6,0.3-1.2,0.4-1.7c0.2-1.5,0.6-3.2,1.2-4.6c0.1-0.5,0.3-1,0.5-1.5
		c0.5-1.8,1.4-3.8,2.4-5.3c0.2-0.4,0.4-0.8,0.7-1.2c0.2-0.4,0.4-0.8,0.7-1.1c0.3-0.4,0.5-0.8,0.8-1.1c1.2-1.8,2.7-3.3,4.2-4.8
		c0.3-0.3,0.7-0.5,1-0.8c0.6-0.6,1.2-1.1,1.9-1.5c0.9-0.7,2-1.3,3-1.9c0.4-0.2,0.8-0.4,1.1-0.5c0.7-0.3,1.4-0.6,2.1-1
		c0.4-0.1,0.8-0.3,1.1-0.4c0.7-0.2,1.5-0.4,2.2-0.6c1.4-0.5,3.1-0.8,4.5-0.8c0.3-0.1,0.7-0.1,1.1-0.1c1.3-0.3,3.1-0.3,4.4,0
		c0.4,0,0.8,0,1.1,0.1c1.1,0,2.2,0.3,3.3,0.5c1,0.4,2.1,0.6,3.1,1c0.7,0.2,1.4,0.4,2,0.7c0.3,0.2,0.7,0.4,1,0.5
		c0.6,0.3,1.2,0.7,1.8,1c0.3,0.2,0.6,0.4,0.9,0.6c0.6,0.4,1.2,0.8,1.7,1.2c0.5,0.7,0.7,1,0.8,0.7c0.2-1.3,0.4-2.6,0.5-3.9
		c0.1-0.4,0.2-0.8,0.3-1.3c0-0.3,0.1-0.5,0.3-0.6c0.3-0.2,0.7-0.3,1.1-0.3c0.3-0.1,0.7-0.1,1-0.1c2.9-0.5,6.5-0.3,9.5,0
		c0.6,0,1.2,0,1.9,0.1c2.6,0,6.2,0.2,8.6,1.2c0.3,0.1,0.5,0.1,0.7,0.2c0.1,0.1,0.3,0.3,0.4,0.4l0.1,0.1c0,1.4,0.2,3.1-0.1,4.4
		c0,0.4,0,0.8,0,1.1c-0.1,0.8-0.1,1.6-0.2,2.4c0,0.4,0,0.8,0,1.3c-0.1,1-0.1,1.9-0.2,2.9c0,0.5,0,1.1,0,1.6
		c-0.1,1.1-0.1,2.3-0.2,3.4c0,0.6,0,1.2,0,1.7c-0.2,1.9,0,3.9-0.2,5.8c0,2.9,0,5.8,0,8.6c0.2,2.1,0,4.2,0.2,6.2c0,0.7,0,1.3,0,2
		c0.1,1.3,0.1,2.5,0.2,3.8c0,0.6,0,1.2,0.1,1.7c0,0.6,0,1.2,0,1.8c0.1,0.5,0.1,1.1,0.1,1.6c0.1,0.5,0.1,1.1,0.1,1.6
		c0.1,0.5,0.1,1,0.1,1.5c0.1,0.5,0.1,1,0.1,1.5c0.1,0.5,0.1,0.9,0.1,1.4c0.1,0.8,0.1,1.7,0.2,2.5c0,0.4,0,0.8,0.1,1.2
		c0,0.4,0,0.8,0,1.1c0.1,0.7,0.1,1.3,0.2,2c0,0.6,0,1.1,0.1,1.7c0,0.9,0.3,2.5-0.1,3.3c0,0.1,0,0.2,0,0.3c0,0.1-0.1,0.2-0.2,0.3
		c-0.1,0.1-0.3,0.1-0.4,0.2c-0.3,0.1-0.5,0.1-0.7,0.1c-0.3,0.1-0.7,0.1-1,0.2c-0.3,0-0.7,0-1.1,0.1c-0.5,0-0.9,0-1.3,0
		c-3.7,0.5-8.1,0.4-11.9,0c-0.6,0-1.2,0-1.7-0.1c-0.6,0-1.2,0-1.7,0c-0.5-0.1-1-0.1-1.5-0.1c-0.5-0.1-0.9-0.1-1.4-0.1
		c-0.4-0.1-0.8-0.1-1.2-0.1c-0.3-0.1-0.7-0.1-1-0.2c-0.3,0-0.5,0-0.8-0.1c-0.2-0.1-0.4-0.1-0.6-0.1c-0.1-0.1-0.2-0.1-0.3-0.2
		c-0.2-0.2-0.3-0.4-0.4-0.7c-0.1-0.3-0.2-0.5-0.3-0.8c-0.1-0.4-0.2-0.8-0.2-1.1c-0.1-0.5-0.1-0.9-0.1-1.3c0.1-0.5,0.1-1,0.1-1.5
		c-0.1-0.5-0.1-1.1,0-1.6C586.2,706.3,586.2,705.7,586.1,705.2C586,705,586.2,705.7,586.1,705.2z M576.5,666.5
		c-0.9-0.1-1.7-0.1-2.6-0.1c-0.9,0.2-1.7,0.4-2.5,0.7c-1.1,0.5-2.4,1.4-3.1,2.3c-0.6,0.6-1.2,1.3-1.7,2.1c-0.5,0.8-0.9,1.6-1.2,2.4
		c-0.1,0.4-0.3,0.8-0.4,1.3c-0.2,1.4-0.3,2.7-0.3,4c0.2,1.2,0.6,2.7,1.2,3.7c0.3,0.4,0.5,0.8,0.7,1.1c1,1.4,2.2,2.6,3.7,3.5
		c2.4,1.9,6,1.6,8.6,0.5c0.5-0.1,0.9-0.3,1.3-0.5c0.4-0.3,0.8-0.5,1.2-0.8c0.4-0.2,0.8-0.5,1.1-0.8c0.7-0.6,1.4-1.2,1.9-2
		c0.8-1,1.4-2.4,1.8-3.6c0.1-0.9,0.3-1.9,0.4-2.8c0-0.9-0.1-1.9-0.3-2.8c-0.1-0.5-0.3-0.9-0.4-1.3c-0.2-0.4-0.4-0.8-0.6-1.2
		c-0.2-0.3-0.4-0.7-0.7-1.1c-0.6-0.6-1.2-1.2-1.8-1.8c-0.4-0.3-0.8-0.6-1.1-0.8c-0.8-0.5-1.6-1-2.5-1.3
		C578.4,666.9,577.4,666.7,576.5,666.5C576.1,666.5,577,666.6,576.5,666.5z"/>
	<path d="M624,715.3c-0.2-0.1-0.3-0.3-0.3-0.5c-0.1-0.1-0.1-0.3-0.2-0.4c0-0.2,0-0.4-0.1-0.5c-0.1-0.2-0.1-0.4-0.1-0.7
		c-0.1-0.2-0.1-0.4-0.2-0.7c0-0.3,0-0.6-0.1-0.9c0-0.3,0-0.6,0-0.9c-0.1-0.3-0.1-0.7-0.1-1.1c-0.1-0.8-0.1-1.5-0.2-2.3
		c0-0.9,0-1.7-0.1-2.6c0-0.9,0-1.9,0-2.8c-0.5-4.2-0.1-8.7-0.1-12.9c0.2-2.2,0.1-4.4,0.1-6.6c0.2-1.6,0.1-3.2,0.1-4.8
		c0.1-1.2,0.1-2.3,0.1-3.5c0.1-1.2,0.1-2.3,0.1-3.5c0.1-1.2,0.1-2.3,0.2-3.5c0-0.6,0-1.2,0-1.8c0.1-1.1,0.1-2.2,0.2-3.3
		c0-0.6,0-1.2,0.1-1.7c0-0.5,0-1.1,0-1.6c0.1-0.5,0.1-1,0.1-1.5c0.1-0.5,0.1-1,0.1-1.5c0.1-0.9,0.1-1.9,0.2-2.8c0-0.5,0-0.9,0.1-1.3
		c0-0.4,0-0.8,0.1-1.2c0-0.4,0-0.8,0.1-1.2c0-0.3,0-0.7,0.1-1c0-0.3,0-0.7,0-1c0.1-0.3,0.1-0.5,0.1-0.8c0.1-0.3,0.1-0.5,0.1-0.8
		c0.1-0.2,0.1-0.4,0.1-0.6c0.1-0.2,0.1-0.4,0.1-0.6c0.1-0.1,0.1-0.3,0.1-0.4c0-0.2,0.1-0.3,0.2-0.4c0.1-0.1,0.3-0.2,0.4-0.3
		c0.3-0.1,0.5-0.1,0.7-0.2c2.2-0.4,4.6-0.9,6.8-0.9c0.6-0.1,1.2-0.1,1.7-0.2c0.6,0,1.2,0,1.8-0.1c0.6,0,1.2,0,1.7,0
		c1.6-0.2,3.4-0.2,5,0c0.5,0,0.9,0,1.4,0c0.4,0.1,0.8,0.1,1.2,0.1c0.7,0.1,1.5,0.3,2.2,0.6c0.2,0.2,0.4,0.4,0.6,0.6
		c0.2,0.3,0.4,0.5,0.6,0.8c0.4,0.7,0.8,1.4,1.1,2.1c0.2,0.5,0.4,0.9,0.5,1.4c0.3,0.6,0.4,1.2,0.3,1.7c-0.3,1.1-0.3,1.8,0,2.1
		c0.3,0.2,0.7-0.2,1.4-1.2c0.3-0.3,0.7-0.7,1.3-1c0.4-0.3,0.8-0.6,1.3-1c0.4-0.3,0.8-0.5,1.3-0.8c0.4-0.3,0.8-0.6,1.2-0.9
		c0.8-0.5,1.7-0.9,2.6-1.3c0.4-0.3,0.8-0.5,1.2-0.6c0.5-0.2,0.9-0.4,1.3-0.6c1.2-0.4,2.4-0.9,3.7-1.1c1.8-0.7,3.9-0.6,5.8-0.9
		c0.7,0,1.5,0,2.2,0.1c0.3,0,0.7,0,1.1,0.1c1.6,0,3.7,0.4,5.1,1c0.6,0.2,1.2,0.4,1.8,0.7c0.3,0.1,0.7,0.2,1,0.3
		c0.3,0.1,0.5,0.3,0.8,0.4c0.3,0.1,0.6,0.3,0.9,0.5c0.6,0.3,1.1,0.6,1.6,0.9c0.3,0.1,0.5,0.3,0.8,0.5c0.3,0.1,0.5,0.3,0.8,0.5
		c1.3,0.6,2.2,1.8,3.3,2.6c0.6,0.6,1.1,1.1,1.7,1.7c0.4,0.6,0.9,1.1,1.3,1.7c0.1,0.1,0.3,0.3,0.4,0.5c0.1,0.2,0.2,0.4,0.3,0.5
		c0.1,0.2,0.2,0.4,0.3,0.6c0.1,0.1,0.2,0.3,0.3,0.5c0.1,0.1,0.1,0.3,0.2,0.4c0.1,0.3,0.2,0.6,0.3,0.9c0.1,0.2,0.1,0.4,0.1,0.5
		c0.2,0.4,0.1,1,0.1,1.4c-0.1,0.1-0.1,0.2-0.1,0.3c-0.1,0.1-0.3,0.3-0.4,0.4c-0.1,0.1-0.3,0.3-0.4,0.4c-0.2,0.2-0.4,0.4-0.6,0.6
		c-0.3,0.3-0.5,0.5-0.7,0.7c-1,0.8-2,1.9-2.9,2.8c-0.4,0.4-0.8,0.8-1.1,1.1c-1.2,1.2-2.4,2.4-3.6,3.6c-0.8,0.7-1.6,1.5-2.4,2.3
		c-0.7,0.7-1.4,1.4-2.2,2.1c-0.3,0.3-0.7,0.6-1.1,0.9c-0.3,0.3-0.6,0.5-0.9,0.8c-0.3,0.2-0.5,0.4-0.8,0.7c-0.4,0.3-0.9,0.6-1.3,0.9
		c-0.1,0.1-0.3,0.1-0.4,0.1c-0.1,0.1-0.1,0.1-0.2,0c-0.3-0.4-0.6-0.8-0.9-1.2c-0.3-0.4-0.7-0.8-1-1.2c-0.3-0.3-0.7-0.7-1-1.1
		c-0.3-0.3-0.6-0.7-0.9-1.1c-0.3-0.3-0.7-0.7-1-1c-0.3-0.3-0.6-0.6-0.9-0.9c-0.7-0.5-1.3-1.1-2-1.6c-0.6-0.5-1.2-0.9-1.9-1.2
		c-0.6-0.4-1.3-0.7-2-0.9c-1-0.2-2-0.4-3.1-0.2c-0.4,0-0.8,0-1.1,0.1c-0.4,0.1-0.8,0.3-1.1,0.4c-0.3,0.1-0.6,0.2-0.9,0.4
		c-0.6,0.3-1.2,0.7-1.7,1.1c-0.6,0.4-1,0.9-1.4,1.5c-0.3,0.3-0.5,0.6-0.6,0.9c-0.2,0.3-0.4,0.7-0.6,1c-0.1,0.3-0.3,0.7-0.4,1
		c-0.2,0.4-0.3,0.8-0.4,1.1c-0.4,1.2-0.6,2.5-1,3.7c-0.2,0.9-0.3,1.8-0.3,2.7c-0.1,0.5-0.1,0.9-0.1,1.4c-0.1,1-0.1,1.9-0.2,2.9
		c0,1,0,2,0.1,3c0,0.5,0,1,0,1.5c0.1,0.5,0.1,1,0.1,1.5c0.1,0.5,0.1,1,0.1,1.5c0.1,0.5,0.1,1,0.1,1.5c0.2,1,0.3,1.9,0.3,2.9
		c0.3,2.8,0.8,5.6,1.2,8.3c0,1.5,0.4,3.1,0.7,4.5c0.1,0.6,0.1,1.2,0.2,1.8c0.1,0.3,0.1,0.5,0.1,0.8c0.1,0.3,0.1,0.5,0.1,0.7
		c0.1,0.2,0.3,2,0,2c-0.1,0.1-0.1,0.1-0.2,0.2c-0.4,0.1-0.8,0.2-1.2,0.2c-0.6,0.2-1.3,0.3-1.9,0.3c-0.5,0.1-0.9,0.1-1.3,0.2
		c-1,0.1-1.9,0.1-2.9,0.2c-0.5,0.1-1.1,0.1-1.6,0.2c-0.5,0-1.1,0-1.7,0.1c-0.6,0-1.2,0-1.7,0.1c-0.6,0-1.2,0-1.8,0.1
		c-0.6,0-1.2,0-1.8,0.1c-0.6,0-1.2,0-1.8,0.1c-0.6,0-1.2,0-1.8,0c-1.7,0.2-3.4,0-5,0.2c-0.5,0-1,0-1.5,0c-1.2-0.2-2.4,0-3.6-0.2
		c-0.3,0-0.6,0-0.9-0.1c-0.2,0-0.4,0-0.7-0.1C624.3,715.4,624.1,715.4,624,715.3C623.9,715.2,624.1,715.4,624,715.3z"/>
	<path d="M742.4,705.2c-0.1-0.3-0.3,0-0.6,0.9c-0.1,0.3-0.4,0.5-0.7,0.8c-0.5,0.5-0.9,0.9-1.4,1.4c-0.3,0.3-0.5,0.5-0.7,0.7
		c-0.5,0.4-1,0.9-1.5,1.3c-0.3,0.2-0.5,0.4-0.8,0.6c-0.8,0.4-1.7,1-2.4,1.5c-0.6,0.3-1.1,0.6-1.7,0.8c-0.3,0.1-0.5,0.2-0.8,0.3
		c-0.3,0.1-0.6,0.3-0.9,0.4c-0.3,0.1-0.5,0.1-0.8,0.2c-0.9,0.5-2.5,0.8-3.5,0.8c-0.3,0.1-0.6,0.1-0.9,0.1c-0.6,0.1-1.2,0.1-1.8,0.1
		c-0.3,0.1-0.6,0.1-0.9,0c-0.6,0-1.1,0-1.7,0c-0.3-0.1-0.6-0.1-0.9-0.1c-0.3-0.1-0.6-0.1-0.9-0.2c-0.9,0-1.8-0.3-2.6-0.5
		c-0.6-0.2-1.2-0.4-1.8-0.6c-0.3-0.1-0.5-0.2-0.8-0.3c-0.3-0.1-0.6-0.3-0.9-0.4c-0.8-0.4-1.6-0.8-2.4-1.2c-0.3-0.2-0.5-0.4-0.8-0.5
		c-0.3-0.2-0.5-0.4-0.8-0.5c-0.3-0.2-0.5-0.4-0.8-0.6c-0.6-0.3-1.1-0.7-1.5-1.1c-0.8-0.6-1.6-1.2-2.2-2c-0.2-0.2-0.4-0.4-0.7-0.7
		c-0.2-0.3-0.4-0.5-0.7-0.8c-0.7-0.7-1.3-1.6-1.8-2.4c-0.2-0.3-0.4-0.5-0.6-0.8c-0.2-0.3-0.4-0.6-0.6-0.9c-0.1-0.3-0.3-0.6-0.5-0.9
		c-0.2-0.3-0.4-0.7-0.5-1c-0.4-0.6-0.7-1.3-1-1.9c-0.4-1.1-0.8-2.1-1.2-3.2c-0.1-0.3-0.2-0.7-0.3-1.1c-0.1-0.3-0.3-0.7-0.4-1.1
		c-0.1-0.4-0.1-0.8-0.2-1.1c-0.5-1.6-0.6-3.3-0.9-4.9c0-0.4,0-0.8-0.1-1.3c0-0.4,0-0.8-0.1-1.3c0-1.8-0.2-3.7,0.1-5.4
		c0-0.5,0-0.9,0.1-1.4c0-1.5,0.3-3,0.5-4.4c0.1-0.6,0.3-1.2,0.4-1.7c0.2-1.5,0.6-3.2,1.2-4.6c0.1-0.5,0.3-1,0.5-1.5
		c0.5-1.8,1.4-3.8,2.4-5.3c0.2-0.4,0.4-0.8,0.7-1.2c0.2-0.4,0.4-0.8,0.7-1.1c0.3-0.4,0.5-0.8,0.8-1.1c1.2-1.8,2.7-3.3,4.2-4.8
		c0.3-0.3,0.7-0.5,1-0.8c0.6-0.6,1.2-1.1,1.9-1.5c0.9-0.7,2-1.3,3-1.9c0.4-0.2,0.8-0.4,1.1-0.5c0.7-0.3,1.4-0.6,2.1-1
		c0.4-0.1,0.8-0.3,1.1-0.4c0.7-0.2,1.5-0.4,2.2-0.6c1.4-0.5,3.1-0.8,4.5-0.8c0.3-0.1,0.7-0.1,1.1-0.1c1.3-0.3,3.1-0.3,4.4,0
		c0.4,0,0.8,0,1.1,0.1c1.1,0,2.2,0.3,3.3,0.5c1,0.4,2.1,0.6,3.1,1c0.7,0.2,1.4,0.4,2,0.7c0.3,0.2,0.7,0.4,1,0.5
		c0.6,0.3,1.2,0.7,1.8,1c0.3,0.2,0.6,0.4,0.9,0.6c0.6,0.4,1.2,0.8,1.7,1.2c0.5,0.7,0.7,1,0.8,0.7c0.2-1.3,0.4-2.6,0.5-3.9
		c0.1-0.4,0.2-0.8,0.3-1.3c0-0.3,0.1-0.5,0.3-0.6c0.3-0.2,0.7-0.3,1.1-0.3c0.3-0.1,0.7-0.1,1-0.1c2.9-0.5,6.5-0.3,9.5,0
		c0.6,0,1.2,0,1.9,0.1c2.6,0,6.2,0.2,8.6,1.2c0.3,0.1,0.5,0.1,0.7,0.2c0.1,0.1,0.3,0.3,0.4,0.4l0.1,0.1c0,1.4,0.2,3.1-0.1,4.4
		c0,0.4,0,0.8,0,1.1c-0.1,0.8-0.1,1.6-0.2,2.4c0,0.4,0,0.8,0,1.3c-0.1,1-0.1,1.9-0.2,2.9c0,0.5,0,1.1,0,1.6
		c-0.1,1.1-0.1,2.3-0.2,3.4c0,0.6,0,1.2,0,1.7c-0.2,1.9,0,3.9-0.2,5.8c0,2.9,0,5.8,0,8.6c0.2,2.1,0,4.2,0.2,6.2c0,0.7,0,1.3,0,2
		c0.1,1.3,0.1,2.5,0.2,3.8c0,0.6,0,1.2,0.1,1.7c0,0.6,0,1.2,0,1.8c0.1,0.5,0.1,1.1,0.1,1.6c0.1,0.5,0.1,1.1,0.1,1.6
		c0.1,0.5,0.1,1,0.1,1.5c0.1,0.5,0.1,1,0.1,1.5c0.1,0.5,0.1,0.9,0.1,1.4c0.1,0.8,0.1,1.7,0.2,2.5c0,0.4,0,0.8,0.1,1.2
		c0,0.4,0,0.8,0,1.1c0.1,0.7,0.1,1.3,0.2,2c0,0.6,0,1.1,0.1,1.7c0,0.9,0.3,2.5-0.1,3.3c0,0.1,0,0.2,0,0.3c0,0.1-0.1,0.2-0.2,0.3
		c-0.1,0.1-0.3,0.1-0.4,0.2c-0.3,0.1-0.5,0.1-0.7,0.1c-0.3,0.1-0.7,0.1-1,0.2c-0.3,0-0.7,0-1.1,0.1c-0.5,0-0.9,0-1.3,0
		c-3.7,0.5-8.1,0.4-11.9,0c-0.6,0-1.2,0-1.7-0.1c-0.6,0-1.2,0-1.7,0c-0.5-0.1-1-0.1-1.5-0.1c-0.5-0.1-0.9-0.1-1.4-0.1
		c-0.4-0.1-0.8-0.1-1.2-0.1c-0.3-0.1-0.7-0.1-1-0.2c-0.3,0-0.5,0-0.8-0.1c-0.2-0.1-0.4-0.1-0.6-0.1c-0.1-0.1-0.2-0.1-0.3-0.2
		c-0.2-0.2-0.3-0.4-0.4-0.7c-0.1-0.3-0.2-0.5-0.3-0.8c-0.1-0.4-0.2-0.8-0.2-1.1c-0.1-0.5-0.1-0.9-0.1-1.3c0.1-0.5,0.1-1,0.1-1.5
		c-0.1-0.5-0.1-1.1,0-1.6C742.5,706.3,742.5,705.7,742.4,705.2C742.3,705,742.5,705.7,742.4,705.2z M732.8,666.5
		c-0.9-0.1-1.7-0.1-2.6-0.1c-0.9,0.2-1.7,0.4-2.5,0.7c-1.1,0.5-2.4,1.4-3.1,2.3c-0.6,0.6-1.2,1.3-1.7,2.1c-0.5,0.8-0.9,1.6-1.2,2.4
		c-0.1,0.4-0.3,0.8-0.4,1.3c-0.2,1.4-0.3,2.7-0.3,4c0.2,1.2,0.6,2.7,1.2,3.7c0.3,0.4,0.5,0.8,0.7,1.1c1,1.4,2.2,2.6,3.7,3.5
		c2.4,1.9,6,1.6,8.6,0.5c0.5-0.1,0.9-0.3,1.3-0.5c0.4-0.3,0.8-0.5,1.2-0.8c0.4-0.2,0.8-0.5,1.1-0.8c0.7-0.6,1.4-1.2,1.9-2
		c0.8-1,1.4-2.4,1.8-3.6c0.1-0.9,0.3-1.9,0.4-2.8c0-0.9-0.1-1.9-0.3-2.8c-0.1-0.5-0.3-0.9-0.4-1.3c-0.2-0.4-0.4-0.8-0.6-1.2
		c-0.2-0.3-0.4-0.7-0.7-1.1c-0.6-0.6-1.2-1.2-1.8-1.8c-0.4-0.3-0.8-0.6-1.1-0.8c-0.8-0.5-1.6-1-2.5-1.3
		C734.6,666.9,733.7,666.7,732.8,666.5C732.4,666.5,733.3,666.6,732.8,666.5z"/>
</g>
<image overflow="visible" width="1500" height="1500" xlink:href="../../../Desenhos Jogo Yegatu/png2/wakara.png"  transform="matrix(0.4465 0 0 0.4465 173 -30)">
</image>
<g>
	<path fill="#F1CC5A" d="M428.3,729.6H275c-12.8,0-23.2-10.4-23.2-23.2v-128c0-12.8,10.4-23.2,23.2-23.2h153.3
		c12.8,0,23.2,10.4,23.2,23.2v128C451.5,719.1,441.1,729.6,428.3,729.6z"/>
	<path fill="#FFEDBB" d="M416.9,714.7H286.4c-12.8,0-23.2-10.4-23.2-23.2v-97.9c0-12.8,10.4-23.2,23.2-23.2H417
		c12.8,0,23.2,10.4,23.2,23.2v97.9C440.1,704.3,429.7,714.7,416.9,714.7z"/>
</g>
</svg>
