<?xml version="1.0" encoding="utf-8"?>
<!-- Generator: Adobe Illustrator 18.0.0, SVG Export Plug-In . SVG Version: 6.00 Build 0)  -->
<!DOCTYPE svg PUBLIC "-//W3C//DTD SVG 1.0//EN" "http://www.w3.org/TR/2001/REC-SVG-20010904/DTD/svg10.dtd">
<svg version="1.0" id="Camada_1" xmlns="http://www.w3.org/2000/svg" xmlns:xlink="http://www.w3.org/1999/xlink" x="0px" y="0px"
	 viewBox="0 0 1024 768" enable-background="new 0 0 1024 768" xml:space="preserve">
<image overflow="visible" width="1500" height="1500" xlink:href="../../../Desenhos Jogo Yegatu/png2/wiramiri.png"  transform="matrix(0.636 0 0 0.636 34 -191.4)">
</image>
<g>
	<path d="M408.4,715.3c-0.2-0.1-0.3-0.3-0.3-0.5c-0.1-0.1-0.1-0.3-0.2-0.4c0-0.2,0-0.4-0.1-0.5c-0.1-0.2-0.1-0.4-0.1-0.7
		c-0.1-0.2-0.1-0.4-0.2-0.7c0-0.3,0-0.6-0.1-0.9c0-0.3,0-0.6,0-0.9c-0.1-0.3-0.1-0.7-0.1-1.1c-0.1-0.8-0.1-1.5-0.2-2.3
		c0-0.9,0-1.7-0.1-2.6c0-0.9,0-1.9,0-2.8c-0.5-4.2-0.1-8.7-0.1-12.9c0.2-2.2,0.1-4.4,0.1-6.6c0.2-1.6,0.1-3.2,0.1-4.8
		c0.1-1.2,0.1-2.3,0.1-3.5c0.1-1.2,0.1-2.3,0.1-3.5c0.1-1.2,0.1-2.3,0.2-3.5c0-0.6,0-1.2,0-1.8c0.1-1.1,0.1-2.2,0.2-3.3
		c0-0.6,0-1.2,0.1-1.7c0-0.5,0-1.1,0-1.6c0.1-0.5,0.1-1,0.1-1.5c0.1-0.5,0.1-1,0.1-1.5c0.1-0.9,0.1-1.9,0.2-2.8c0-0.5,0-0.9,0.1-1.3
		c0-0.4,0-0.8,0.1-1.2c0-0.4,0-0.8,0.1-1.2c0-0.3,0-0.7,0.1-1c0-0.3,0-0.7,0-1c0.1-0.3,0.1-0.5,0.1-0.8c0.1-0.3,0.1-0.5,0.1-0.8
		c0.1-0.2,0.1-0.4,0.1-0.6c0.1-0.2,0.1-0.4,0.1-0.6c0.1-0.1,0.1-0.3,0.1-0.4c0-0.2,0.1-0.3,0.2-0.4c0.1-0.1,0.3-0.2,0.4-0.3
		c0.3-0.1,0.5-0.1,0.7-0.2c2.2-0.4,4.6-0.9,6.8-0.9c0.6-0.1,1.2-0.1,1.7-0.2c0.6,0,1.2,0,1.8-0.1c0.6,0,1.2,0,1.7,0
		c1.6-0.2,3.4-0.2,5,0c0.5,0,0.9,0,1.4,0c0.4,0.1,0.8,0.1,1.2,0.1c0.7,0.1,1.5,0.3,2.2,0.6c0.2,0.2,0.4,0.4,0.6,0.6
		c0.2,0.3,0.4,0.5,0.6,0.8c0.4,0.7,0.8,1.4,1.1,2.1c0.2,0.5,0.4,0.9,0.5,1.4c0.3,0.6,0.4,1.2,0.3,1.7c-0.3,1.1-0.3,1.8,0,2.1
		c0.3,0.2,0.7-0.2,1.4-1.2c0.3-0.3,0.7-0.7,1.3-1c0.4-0.3,0.8-0.6,1.3-1c0.4-0.3,0.8-0.5,1.3-0.8c0.4-0.3,0.8-0.6,1.2-0.9
		c0.8-0.5,1.7-0.9,2.6-1.3c0.4-0.3,0.8-0.5,1.2-0.6c0.5-0.2,0.9-0.4,1.3-0.6c1.2-0.4,2.4-0.9,3.7-1.1c1.8-0.7,3.9-0.6,5.8-0.9
		c0.7,0,1.5,0,2.2,0.1c0.3,0,0.7,0,1.1,0.1c1.6,0,3.7,0.4,5.1,1c0.6,0.2,1.2,0.4,1.8,0.7c0.3,0.1,0.7,0.2,1,0.3
		c0.3,0.1,0.5,0.3,0.8,0.4c0.3,0.1,0.6,0.3,0.9,0.5c0.6,0.3,1.1,0.6,1.6,0.9c0.3,0.1,0.5,0.3,0.8,0.5c0.3,0.1,0.5,0.3,0.8,0.5
		c1.3,0.6,2.2,1.8,3.3,2.6c0.6,0.6,1.1,1.1,1.7,1.7c0.4,0.6,0.9,1.1,1.3,1.7c0.1,0.1,0.3,0.3,0.4,0.5c0.1,0.2,0.2,0.4,0.3,0.5
		c0.1,0.2,0.2,0.4,0.3,0.6c0.1,0.1,0.2,0.3,0.3,0.5c0.1,0.1,0.1,0.3,0.2,0.4c0.1,0.3,0.2,0.6,0.3,0.9c0.1,0.2,0.1,0.4,0.1,0.5
		c0.2,0.4,0.1,1,0.1,1.4c-0.1,0.1-0.1,0.2-0.1,0.3c-0.1,0.1-0.3,0.3-0.4,0.4c-0.1,0.1-0.3,0.3-0.4,0.4c-0.2,0.2-0.4,0.4-0.6,0.6
		c-0.3,0.3-0.5,0.5-0.7,0.7c-1,0.8-2,1.9-2.9,2.8c-0.4,0.4-0.8,0.8-1.1,1.1c-1.2,1.2-2.4,2.4-3.6,3.6c-0.8,0.7-1.6,1.5-2.4,2.3
		c-0.7,0.7-1.4,1.4-2.2,2.1c-0.3,0.3-0.7,0.6-1.1,0.9c-0.3,0.3-0.6,0.5-0.9,0.8c-0.3,0.2-0.5,0.4-0.8,0.7c-0.4,0.3-0.9,0.6-1.3,0.9
		c-0.1,0.1-0.3,0.1-0.4,0.1c-0.1,0.1-0.1,0.1-0.2,0c-0.3-0.4-0.6-0.8-0.9-1.2c-0.3-0.4-0.7-0.8-1-1.2c-0.3-0.3-0.7-0.7-1-1.1
		c-0.3-0.3-0.6-0.7-0.9-1.1c-0.3-0.3-0.7-0.7-1-1c-0.3-0.3-0.6-0.6-0.9-0.9c-0.7-0.5-1.3-1.1-2-1.6c-0.6-0.5-1.2-0.9-1.9-1.2
		c-0.6-0.4-1.3-0.7-2-0.9c-1-0.2-2-0.4-3.1-0.2c-0.4,0-0.8,0-1.1,0.1c-0.4,0.1-0.8,0.3-1.1,0.4c-0.3,0.1-0.6,0.2-0.9,0.4
		c-0.6,0.3-1.2,0.7-1.7,1.1c-0.6,0.4-1,0.9-1.4,1.5c-0.3,0.3-0.5,0.6-0.6,0.9c-0.2,0.3-0.4,0.7-0.6,1c-0.1,0.3-0.3,0.7-0.4,1
		c-0.2,0.4-0.3,0.8-0.4,1.1c-0.4,1.2-0.6,2.5-1,3.7c-0.2,0.9-0.3,1.8-0.3,2.7c-0.1,0.5-0.1,0.9-0.1,1.4c-0.1,1-0.1,1.9-0.2,2.9
		c0,1,0,2,0.1,3c0,0.5,0,1,0,1.5c0.1,0.5,0.1,1,0.1,1.5c0.1,0.5,0.1,1,0.1,1.5c0.1,0.5,0.1,1,0.1,1.5c0.2,1,0.3,1.9,0.3,2.9
		c0.3,2.8,0.8,5.6,1.2,8.3c0,1.5,0.4,3.1,0.7,4.5c0.1,0.6,0.1,1.2,0.2,1.8c0.1,0.3,0.1,0.5,0.1,0.8c0.1,0.3,0.1,0.5,0.1,0.7
		c0.1,0.2,0.3,2,0,2c-0.1,0.1-0.1,0.1-0.2,0.2c-0.4,0.1-0.8,0.2-1.2,0.2c-0.6,0.2-1.3,0.3-1.9,0.3c-0.5,0.1-0.9,0.1-1.3,0.2
		c-1,0.1-1.9,0.1-2.9,0.2c-0.5,0.1-1.1,0.1-1.6,0.2c-0.5,0-1.1,0-1.7,0.1c-0.6,0-1.2,0-1.7,0.1c-0.6,0-1.2,0-1.8,0.1
		c-0.6,0-1.2,0-1.8,0.1c-0.6,0-1.2,0-1.8,0.1c-0.6,0-1.2,0-1.8,0c-1.7,0.2-3.4,0-5,0.2c-0.5,0-1,0-1.5,0c-1.2-0.2-2.4,0-3.6-0.2
		c-0.3,0-0.6,0-0.9-0.1c-0.2,0-0.4,0-0.7-0.1C408.7,715.4,408.6,715.4,408.4,715.3C408.4,715.2,408.6,715.4,408.4,715.3z"/>
	<path d="M526.8,705.2c-0.1-0.3-0.3,0-0.6,0.9c-0.1,0.3-0.4,0.5-0.7,0.8c-0.5,0.5-0.9,0.9-1.4,1.4c-0.3,0.3-0.5,0.5-0.7,0.7
		c-0.5,0.4-1,0.9-1.5,1.3c-0.3,0.2-0.5,0.4-0.8,0.6c-0.8,0.4-1.7,1-2.4,1.5c-0.6,0.3-1.1,0.6-1.7,0.8c-0.3,0.1-0.5,0.2-0.8,0.3
		c-0.3,0.1-0.6,0.3-0.9,0.4c-0.3,0.1-0.5,0.1-0.8,0.2c-0.9,0.5-2.5,0.8-3.5,0.8c-0.3,0.1-0.6,0.1-0.9,0.1c-0.6,0.1-1.2,0.1-1.8,0.1
		c-0.3,0.1-0.6,0.1-0.9,0c-0.6,0-1.1,0-1.7,0c-0.3-0.1-0.6-0.1-0.9-0.1c-0.3-0.1-0.6-0.1-0.9-0.2c-0.9,0-1.8-0.3-2.6-0.5
		c-0.6-0.2-1.2-0.4-1.8-0.6c-0.3-0.1-0.5-0.2-0.8-0.3c-0.3-0.1-0.6-0.3-0.9-0.4c-0.8-0.4-1.6-0.8-2.4-1.2c-0.3-0.2-0.5-0.4-0.8-0.5
		c-0.3-0.2-0.5-0.4-0.8-0.5c-0.3-0.2-0.5-0.4-0.8-0.6c-0.6-0.3-1.1-0.7-1.5-1.1c-0.8-0.6-1.6-1.2-2.2-2c-0.2-0.2-0.4-0.4-0.7-0.7
		c-0.2-0.3-0.4-0.5-0.7-0.8c-0.7-0.7-1.3-1.6-1.8-2.4c-0.2-0.3-0.4-0.5-0.6-0.8c-0.2-0.3-0.4-0.6-0.6-0.9c-0.1-0.3-0.3-0.6-0.5-0.9
		c-0.2-0.3-0.4-0.7-0.5-1c-0.4-0.6-0.7-1.3-1-1.9c-0.4-1.1-0.8-2.1-1.2-3.2c-0.1-0.3-0.2-0.7-0.3-1.1c-0.1-0.3-0.3-0.7-0.4-1.1
		c-0.1-0.4-0.1-0.8-0.2-1.1c-0.5-1.6-0.6-3.3-0.9-4.9c0-0.4,0-0.8-0.1-1.3c0-0.4,0-0.8-0.1-1.3c0-1.8-0.2-3.7,0.1-5.4
		c0-0.5,0-0.9,0.1-1.4c0-1.5,0.3-3,0.5-4.4c0.1-0.6,0.3-1.2,0.4-1.7c0.2-1.5,0.6-3.2,1.2-4.6c0.1-0.5,0.3-1,0.5-1.5
		c0.5-1.8,1.4-3.8,2.4-5.3c0.2-0.4,0.4-0.8,0.7-1.2c0.2-0.4,0.4-0.8,0.7-1.1c0.3-0.4,0.5-0.8,0.8-1.1c1.2-1.8,2.7-3.3,4.2-4.8
		c0.3-0.3,0.7-0.5,1-0.8c0.6-0.6,1.2-1.1,1.9-1.5c0.9-0.7,2-1.3,3-1.9c0.4-0.2,0.8-0.4,1.1-0.5c0.7-0.3,1.4-0.6,2.1-1
		c0.4-0.1,0.8-0.3,1.1-0.4c0.7-0.2,1.5-0.4,2.2-0.6c1.4-0.5,3.1-0.8,4.5-0.8c0.3-0.1,0.7-0.1,1.1-0.1c1.3-0.3,3.1-0.3,4.4,0
		c0.4,0,0.8,0,1.1,0.1c1.1,0,2.2,0.3,3.3,0.5c1,0.4,2.1,0.6,3.1,1c0.7,0.2,1.4,0.4,2,0.7c0.3,0.2,0.7,0.4,1,0.5
		c0.6,0.3,1.2,0.7,1.8,1c0.3,0.2,0.6,0.4,0.9,0.6c0.6,0.4,1.2,0.8,1.7,1.2c0.5,0.7,0.7,1,0.8,0.7c0.2-1.3,0.4-2.6,0.5-3.9
		c0.1-0.4,0.2-0.8,0.3-1.3c0-0.3,0.1-0.5,0.3-0.6c0.3-0.2,0.7-0.3,1.1-0.3c0.3-0.1,0.7-0.1,1-0.1c2.9-0.5,6.5-0.3,9.5,0
		c0.6,0,1.2,0,1.9,0.1c2.6,0,6.2,0.2,8.6,1.2c0.3,0.1,0.5,0.1,0.7,0.2c0.1,0.1,0.3,0.3,0.4,0.4l0.1,0.1c0,1.4,0.2,3.1-0.1,4.4
		c0,0.4,0,0.8,0,1.1c-0.1,0.8-0.1,1.6-0.2,2.4c0,0.4,0,0.8,0,1.3c-0.1,1-0.1,1.9-0.2,2.9c0,0.5,0,1.1,0,1.6
		c-0.1,1.1-0.1,2.3-0.2,3.4c0,0.6,0,1.2,0,1.7c-0.2,1.9,0,3.9-0.2,5.8c0,2.9,0,5.8,0,8.6c0.2,2.1,0,4.2,0.2,6.2c0,0.7,0,1.3,0,2
		c0.1,1.3,0.1,2.5,0.2,3.8c0,0.6,0,1.2,0.1,1.7c0,0.6,0,1.2,0,1.8c0.1,0.5,0.1,1.1,0.1,1.6c0.1,0.5,0.1,1.1,0.1,1.6
		c0.1,0.5,0.1,1,0.1,1.5c0.1,0.5,0.1,1,0.1,1.5c0.1,0.5,0.1,0.9,0.1,1.4c0.1,0.8,0.1,1.7,0.2,2.5c0,0.4,0,0.8,0.1,1.2
		c0,0.4,0,0.8,0,1.1c0.1,0.7,0.1,1.3,0.2,2c0,0.6,0,1.1,0.1,1.7c0,0.9,0.3,2.5-0.1,3.3c0,0.1,0,0.2,0,0.3c0,0.1-0.1,0.2-0.2,0.3
		c-0.1,0.1-0.3,0.1-0.4,0.2c-0.3,0.1-0.5,0.1-0.7,0.1c-0.3,0.1-0.7,0.1-1,0.2c-0.3,0-0.7,0-1.1,0.1c-0.5,0-0.9,0-1.3,0
		c-3.7,0.5-8.1,0.4-11.9,0c-0.6,0-1.2,0-1.7-0.1c-0.6,0-1.2,0-1.7,0c-0.5-0.1-1-0.1-1.5-0.1c-0.5-0.1-0.9-0.1-1.4-0.1
		c-0.4-0.1-0.8-0.1-1.2-0.1c-0.3-0.1-0.7-0.1-1-0.2c-0.3,0-0.5,0-0.8-0.1c-0.2-0.1-0.4-0.1-0.6-0.1c-0.1-0.1-0.2-0.1-0.3-0.2
		c-0.2-0.2-0.3-0.4-0.4-0.7c-0.1-0.3-0.2-0.5-0.3-0.8c-0.1-0.4-0.2-0.8-0.2-1.1c-0.1-0.5-0.1-0.9-0.1-1.3c0.1-0.5,0.1-1,0.1-1.5
		c-0.1-0.5-0.1-1.1,0-1.6C526.9,706.3,526.9,705.7,526.8,705.2C526.7,705,526.9,705.7,526.8,705.2z M517.3,666.5
		c-0.9-0.1-1.7-0.1-2.6-0.1c-0.9,0.2-1.7,0.4-2.5,0.7c-1.1,0.5-2.4,1.4-3.1,2.3c-0.6,0.6-1.2,1.3-1.7,2.1c-0.5,0.8-0.9,1.6-1.2,2.4
		c-0.1,0.4-0.3,0.8-0.4,1.3c-0.2,1.4-0.3,2.7-0.3,4c0.2,1.2,0.6,2.7,1.2,3.7c0.3,0.4,0.5,0.8,0.7,1.1c1,1.4,2.2,2.6,3.7,3.5
		c2.4,1.9,6,1.6,8.6,0.5c0.5-0.1,0.9-0.3,1.3-0.5c0.4-0.3,0.8-0.5,1.2-0.8c0.4-0.2,0.8-0.5,1.1-0.8c0.7-0.6,1.4-1.2,1.9-2
		c0.8-1,1.4-2.4,1.8-3.6c0.1-0.9,0.3-1.9,0.4-2.8c0-0.9-0.1-1.9-0.3-2.8c-0.1-0.5-0.3-0.9-0.4-1.3c-0.2-0.4-0.4-0.8-0.6-1.2
		c-0.2-0.3-0.4-0.7-0.7-1.1c-0.6-0.6-1.2-1.2-1.8-1.8c-0.4-0.3-0.8-0.6-1.1-0.8c-0.8-0.5-1.6-1-2.5-1.3
		C519.1,666.9,518.2,666.7,517.3,666.5C516.8,666.5,517.7,666.6,517.3,666.5z"/>
	<path d="M635.5,671.4c-0.1,0.3,0,0.7,0.2,1.2c0.1,0.4,0.2,0.8,0.2,1.3c0.1,0.5,0.1,0.9,0.2,1.3c0.1,0.5,0.2,1,0.2,1.5
		c0.1,0.5,0.1,0.9,0.2,1.4c0,0.5,0,1,0.1,1.5c0,0.5,0,1.1,0.1,1.6c0,0.5,0,1,0,1.5c0.3,2.7,0.1,5.5,0.1,8.1
		c-0.1,1.1-0.1,2.2-0.2,3.3c0,0.5,0,1.1-0.1,1.6c0,0.5,0,1-0.1,1.5c0,0.5,0,1.1-0.1,1.6c0,1-0.1,2-0.3,3c0,3.5-1,7.1-1.7,10.5
		c-0.1,0.2-0.2,0.4-0.3,0.7c-0.2,0.5-0.3,1.1-0.7,1.5c-0.1,0.3-0.2,0.4-0.5,0.4c-0.5,0.2-1.1,0.3-1.6,0.3c-0.4,0.1-0.8,0.1-1.2,0.1
		c-0.5,0.1-0.9,0.1-1.4,0.1c-1.6,0.2-3.3,0-4.9,0.2c-1.2,0-2.4,0-3.6-0.1c-1.1,0-2.2,0-3.3-0.1c-0.5,0-1,0-1.5,0
		c-0.4-0.1-0.8-0.1-1.3-0.1c-0.4-0.1-0.8-0.1-1.1-0.1c-0.3-0.1-0.6-0.1-0.9-0.2c-0.2,0-0.4,0-0.6-0.1c-0.1-0.1-0.2-0.1-0.3-0.2v-0.1
		c0-0.3,0-0.6,0.1-0.9c0-0.4,0-0.7,0.1-1.1c0-0.2,0-0.4,0.1-0.6c0-0.3,0-0.5,0.1-0.7c0.1-0.6,0.1-1.1,0.2-1.7
		c0.1-0.3,0.1-0.6,0.1-0.9c0.2-0.7,0.3-1.4,0.3-2.1c0.1-0.3,0.1-0.7,0.2-1.1c0-0.8,0.1-1.5,0.3-2.3c0.1-0.8,0.1-1.7,0.2-2.5
		c0.1-0.4,0.1-0.8,0.2-1.3c0.1-0.9,0.1-1.7,0.2-2.6c0.1-0.5,0.1-0.9,0.1-1.4c0.1-0.4,0.1-0.8,0.1-1.3c0.1-0.5,0.1-0.9,0.1-1.4
		c0.1-0.9,0.1-1.9,0.1-2.8c0.3-1.7,0.2-3.7,0-5.4c0-0.9,0-1.7-0.1-2.6c-0.1-0.8-0.1-1.7-0.2-2.5c-0.2-1.2-0.3-2.4-0.7-3.5
		c-0.1-0.3-0.1-0.7-0.2-1c-0.1-0.3-0.3-0.7-0.4-1c-0.1-0.3-0.2-0.7-0.3-1c-0.1-0.3-0.3-0.5-0.4-0.8c-0.1-0.3-0.3-0.6-0.5-0.9
		c-0.1-0.2-0.3-0.4-0.4-0.7c-0.2-0.3-0.4-0.5-0.6-0.7c-0.1-0.2-0.3-0.4-0.5-0.6c-0.2-0.1-0.4-0.3-0.7-0.5c-0.2-0.1-0.4-0.3-0.7-0.4
		c-0.2-0.1-0.4-0.2-0.7-0.3c-1-0.5-2.4-0.5-3.5-0.3c-0.3,0-0.7,0.1-1,0.2c-0.4,0.1-0.8,0.2-1.1,0.3c-0.3,0.1-0.7,0.2-1,0.4
		c-0.3,0.1-0.6,0.3-0.9,0.5c-0.3,0.2-0.5,0.4-0.8,0.7c-0.6,0.4-1.1,1-1.5,1.6c-0.5,0.6-0.9,1.3-1.3,2c-0.2,0.4-0.4,0.8-0.5,1.2
		c-0.8,1.7-1.2,3.6-1.7,5.3c-0.1,0.5-0.2,1-0.3,1.5c-0.3,2.1-0.5,4.2-0.8,6.2c0,0.6,0,1.2-0.1,1.7c0,0.5,0,1.1-0.1,1.6
		c0,1.1,0,2.2-0.1,3.3c0,1.6,0,3.2,0,4.8c0.1,1,0.1,2,0.1,3c0.1,1,0.1,1.9,0.1,2.9c0.1,0.9,0.1,1.7,0.2,2.6c0,0.4,0,0.8,0,1.2
		c0.1,0.7,0.1,1.5,0.1,2.2c0.2,0.8,0.1,1.7,0.1,2.5c0.1,0.4,0.1,0.7,0,1.1c0,0.2,0,0.4,0,0.6l-0.1,0.1c-0.5,0.1-0.9,0.1-1.4,0.1
		c-1.1,0.2-2.3,0-3.4,0.2c-4.8,0-10,0.5-14.8-0.1c-0.5,0-1.1,0-1.6,0c-1-0.1-1.9-0.1-2.9-0.2c-0.4,0-0.8,0-1.2-0.1
		c-0.3,0-0.7,0-1.1-0.1c-0.3-0.1-0.6-0.1-0.9-0.1c-0.2-0.1-0.4-0.1-0.7-0.2c-0.1,0-0.3-0.1-0.4-0.2c-0.1,0-0.1,0-0.2-0.1
		c-0.1-0.1-0.1-0.2-0.2-0.3c-0.1-0.1-0.1-0.3-0.1-0.5c-0.1-0.2-0.1-0.4-0.2-0.5c0-0.3,0-0.5-0.1-0.7c-0.1-0.3-0.1-0.5-0.1-0.8
		c-0.1-0.3-0.1-0.6-0.1-0.9c-0.1-0.7-0.1-1.4-0.2-2.1c0-0.4,0-0.8,0-1.1c-0.2-1.3,0-2.7-0.2-4c0-3.7,0-7.4,0-11.1
		c0.3-2.2-0.1-4.5,0.2-6.7c0-1.1,0-2.2,0-3.3c0.2-1.7,0-3.4,0.2-5.1c0-1.2,0-2.4,0.1-3.6c0-0.6,0-1.2,0-1.8c0.1-1.2,0.1-2.4,0.2-3.6
		c0-0.5,0-1.1,0-1.7c0.1-0.6,0.1-1.2,0.1-1.7c0.1-1.1,0.1-2.2,0.2-3.3c0-0.5,0-1.1,0.1-1.6c0-0.5,0-1,0-1.5c0.1-0.5,0.1-0.9,0.1-1.4
		c0.1-0.5,0.1-0.9,0.1-1.4c0.1-0.5,0.1-0.9,0.1-1.3c0.1-0.4,0.1-0.8,0.1-1.3c0.1-0.7,0.1-1.5,0.2-2.2c0-0.3,0-0.7,0.1-1
		c0-0.3,0-0.5,0.1-0.8c0-0.3,0-0.5,0.1-0.8c0-0.2,0-0.4,0.1-0.6c0-0.2,0-0.4,0.1-0.6c0-0.1,0-0.3,0.1-0.4c0-0.1,0-0.2,0.1-0.3
		c0-0.1,0-0.1,0.1-0.1c0.3-0.5,1.6-0.6,2-0.6c0.4-0.1,0.8-0.1,1.2-0.2c0.5,0,0.9,0,1.3-0.1c0.5,0,1,0,1.5-0.1c0.6,0,1.2,0,1.7-0.1
		c2.9,0,5.9-0.2,8.9,0.1c0.5,0,1.1,0,1.6,0c0.5,0.1,1,0.1,1.5,0.2c0.9,0,1.8,0.1,2.6,0.3c0.6,0,1.2,0.1,1.7,0.4
		c0.1,0,0.3,0.1,0.4,0.2c1.3,1.3,1.4,3.1,1.6,4.7c0.2,0.6,0.2,1.2,0.1,1.8c-0.2,0.9-0.2,1.6,0.1,2.1c0.1,0.3,0.4-0.1,0.7-1
		c0.2-0.3,0.5-0.7,0.8-1c0.9-0.9,1.5-1.8,2.5-2.6c0.6-0.5,1.2-1,1.8-1.5c0.3-0.2,0.6-0.4,0.9-0.6c0.3-0.3,0.7-0.5,1-0.7
		c0.7-0.3,1.3-0.7,2-1c0.9-0.5,2.1-1,3.1-1.2c1.3-0.5,3-0.8,4.3-0.8c1-0.2,2.3-0.2,3.3,0c1.1,0,2.2,0.3,3.2,0.5
		c0.4,0.1,0.8,0.3,1.1,0.4c0.8,0.1,1.5,0.4,2.1,0.8c2.8,0.9,4.8,3.2,7,4.9c0.3,0.3,0.6,0.7,0.9,1c0.4,0.3,0.7,0.6,0.9,1.1
		c0.5,1.5,1.1,1.5,1.5,0c0.1-0.4,0.4-0.8,0.7-1.1c0.3-0.3,0.5-0.6,0.8-1c0.2-0.3,0.4-0.6,0.7-0.9c0.6-0.6,1.1-1.1,1.7-1.7
		c1-0.8,1.8-1.5,2.8-2.1c0.3-0.2,0.6-0.4,0.9-0.6c0.3-0.1,0.7-0.3,1-0.5c0.3-0.1,0.7-0.3,1-0.4c0.3-0.2,0.7-0.4,1.1-0.5
		c1-0.2,2.1-0.6,3.1-0.8c0.4-0.1,0.8-0.2,1.1-0.2c0.4-0.1,0.8-0.1,1.1-0.2c0.4,0,0.8,0,1.1-0.1c0.7,0,1.5,0,2.2,0
		c0.4,0.1,0.8,0.1,1.1,0.1c0.4,0.1,0.8,0.1,1.2,0.1c1.1,0.2,2.2,0.3,3.3,0.7c0.3,0.1,0.7,0.2,1,0.3c1.1,0.2,2.3,0.6,3.2,1.2
		c0.4,0.1,0.8,0.3,1.1,0.5c1,0.4,2,1.1,2.9,1.7c0.3,0.2,0.7,0.4,1,0.7c0.6,0.5,1.2,0.9,1.8,1.4c0.9,0.7,1.8,1.6,2.5,2.5
		c0.3,0.3,0.5,0.6,0.8,0.9c0.2,0.3,0.4,0.6,0.7,0.9c0.2,0.3,0.4,0.7,0.7,1c0.4,0.7,0.8,1.3,1.2,2c0.3,0.5,0.5,0.9,0.7,1.4
		c0.7,1.3,1.4,2.8,1.8,4.2c0.2,0.5,0.4,1,0.5,1.5c0.8,1.8,1.4,4,1.6,5.9c0.1,0.5,0.2,1,0.3,1.5c0.5,1.9,0.8,4.1,0.8,6.1
		c0.1,0.5,0.1,1,0.1,1.5c0.1,0.5,0.1,1,0.1,1.5c0.2,2,0.1,4,0.1,6c-0.1,1-0.1,1.9-0.2,2.9c0,0.5,0,1-0.1,1.5c0,0.9-0.1,1.8-0.3,2.7
		c0,2.1-0.4,4.6-1,6.5c-0.1,0.8-0.3,1.6-0.4,2.4c-0.2,0.7-0.4,1.5-0.6,2.2c-0.1,0.3-0.2,0.7-0.3,1c-0.1,0.3-0.1,0.7-0.2,1
		c-0.1,0.3-0.2,0.6-0.3,0.9c-0.1,0.3-0.2,0.6-0.3,0.9c-0.1,0.3-0.2,0.6-0.3,0.9c-0.1,0.2-0.2,0.4-0.3,0.7c-0.1,0.3-0.2,0.5-0.3,0.7
		c-0.1,0.3-0.2,0.5-0.3,0.7c-0.1,0.2-0.1,0.4-0.2,0.6c-0.1,0.2-0.2,0.4-0.3,0.5c-0.2,0.3-0.4,0.6-0.6,0.9c-0.1,0.1-0.1,0.2-0.2,0.3
		c-0.1,0.1-0.2,0.2-0.3,0.3c-0.1,0.1-0.1,0.1-0.2,0.2c-0.1,0-0.1,0-0.2,0.1c-0.3,0.1-0.5,0.1-0.7,0.1c-0.3,0.1-0.7,0.1-1,0.1
		c-0.4,0.1-0.8,0.1-1.2,0.1c-1,0.1-1.9,0.1-2.9,0.2c-2.3,0-4.7,0.2-6.9-0.1c-1.1,0-2.2,0-3.3-0.1c-0.5,0-1,0-1.5,0
		c-0.5-0.1-0.9-0.1-1.4-0.1c-0.3-0.1-0.7-0.1-1.1-0.1c-0.3-0.1-0.6-0.1-0.9-0.1c-0.2-0.1-0.4-0.1-0.6-0.1c-0.1-0.1-0.1-0.1-0.2-0.2
		c-0.1-0.1-0.1-0.2,0-0.3c0-0.1,0-0.2,0-0.3c0.1-0.3,0.1-0.7,0.2-1c0.1-0.3,0.1-0.5,0.1-0.7c0.1-0.3,0.1-0.5,0.2-0.7
		c0.3-1.3,0.6-2.6,0.8-3.9c0.2-0.8,0.4-1.5,0.5-2.3c0.3-0.9,0.4-1.7,0.5-2.6c0.2-0.9,0.4-1.8,0.5-2.7c0.8-2.8,0.9-6,1.3-8.8
		c0.1-1,0.1-2,0.2-3c0.3-2.4,0.1-4.9,0.1-7.2c-0.1-0.5-0.1-0.9-0.2-1.4c0-1.2-0.2-2.6-0.6-3.8c-0.3-1.3-0.8-3-1.6-4.1
		c-0.3-0.6-0.7-1.1-1.2-1.6c-0.4-0.5-0.9-0.9-1.5-1.3c-0.3-0.1-0.5-0.3-0.8-0.5c-0.3-0.1-0.7-0.2-1-0.3c-0.3-0.1-0.7-0.2-1-0.3
		c-0.3,0-0.7,0-1.1-0.1c-0.4,0-0.8,0-1.2,0c-1,0-1.9,0.2-2.8,0.6c-0.9,0.3-1.6,0.7-2.3,1.3c-0.3,0.3-0.6,0.6-0.9,0.9
		C636,670.6,635.7,670.9,635.5,671.4C635.5,671.6,635.7,670.9,635.5,671.4z"/>
	<path d="M700.7,595.5c0.9,0.3,1.7,0.7,2.4,1.2c0.3,0.2,0.7,0.4,1.1,0.7c0.3,0.2,0.7,0.5,1,0.8c0.3,0.3,0.6,0.5,0.9,0.8
		c1.3,1,2.3,2.6,3,4c0.2,0.3,0.4,0.7,0.6,1.1c0.1,0.3,0.3,0.7,0.4,1.1c0.2,0.4,0.3,0.8,0.4,1.2c0.5,1.6,0.6,3.3,0.6,4.9
		c-0.1,0.4-0.1,0.8-0.1,1.2c-0.1,0.4-0.2,0.8-0.3,1.2c-0.2,1.2-0.6,2.6-1.2,3.6c-0.2,0.4-0.4,0.8-0.6,1.1c-0.2,0.4-0.4,0.8-0.7,1.1
		c-0.5,0.7-1,1.4-1.5,2c-0.9,0.9-1.8,1.8-2.8,2.4c-0.3,0.3-0.7,0.5-1.1,0.7c-0.3,0.2-0.7,0.4-1.1,0.6c-0.3,0.2-0.7,0.4-1.1,0.6
		c-2.1,0.7-4.1,1.4-6.3,1.4c-0.5,0.1-0.9,0.1-1.4,0.1c-0.4-0.1-0.8-0.1-1.3-0.1c-1.4-0.2-2.7-0.4-4-1c-0.5-0.1-0.9-0.3-1.2-0.5
		c-0.4-0.3-0.8-0.5-1.2-0.8c-0.3-0.2-0.7-0.5-1-0.8c-0.3-0.3-0.6-0.6-0.9-0.9c-0.7-0.6-1.2-1.3-1.6-2.1c-1.2-1.8-2.2-4.1-2.5-6.2
		c-0.1-0.5-0.2-0.9-0.2-1.3c-0.1-0.5-0.1-0.9-0.2-1.3c0-0.9,0-1.7,0-2.6c0.1-0.4,0.1-0.8,0.1-1.2c0.1-0.4,0.2-0.8,0.3-1.2
		c0.1-0.8,0.4-1.6,0.8-2.3c0.1-0.4,0.3-0.8,0.5-1.1c0.4-0.8,0.8-1.5,1.3-2.1c0.3-0.4,0.5-0.7,0.8-1c0.3-0.3,0.5-0.7,0.8-1
		c0.3-0.3,0.6-0.6,0.9-0.9c0.6-0.5,1.3-1,2-1.5c0.3-0.3,0.7-0.5,1.1-0.7c0.3-0.2,0.7-0.4,1.1-0.6c1.1-0.6,2.4-0.9,3.5-1.3
		c0.8-0.2,1.7-0.3,2.5-0.3C696.5,594.2,698.9,594.6,700.7,595.5C701.1,595.7,700.3,595.3,700.7,595.5z M684.3,642.9
		c0,0.1,0,0.2-0.1,0.3c-0.1,0.3-0.1,0.6-0.2,0.9c-0.1,0.2-0.1,0.4-0.2,0.6c0,0.3,0,0.5-0.1,0.7c-0.1,0.3-0.1,0.5-0.1,0.8
		c-0.2,0.6-0.3,1.3-0.3,1.9c-0.2,0.8-0.3,1.5-0.3,2.3c-0.1,0.8-0.3,1.7-0.4,2.5c0,1.5-0.4,2.9-0.4,4.3c-0.1,1-0.3,2.1-0.4,3.1
		c0,1.7-0.4,3.3-0.4,5c-0.2,1.2-0.3,2.3-0.3,3.5c-0.2,1.2-0.3,2.4-0.3,3.6c-0.1,0.6-0.1,1.2-0.2,1.8c-0.1,1.2-0.1,2.4-0.2,3.6
		c-0.1,0.7-0.1,1.3-0.2,1.9c0,0.6,0,1.2-0.1,1.8c-0.1,1.2-0.1,2.4-0.2,3.6c-0.1,1.2-0.1,2.4-0.2,3.6c0,0.5,0,1.1-0.1,1.7
		c0,0.5,0,1.1-0.1,1.7c0,0.5,0,1.1,0,1.7c-0.2,1.6,0,3.2-0.2,4.7c0,2.6-0.3,5.5,0.1,8c0,0.7,0,1.4,0.1,2.1c0,0.3,0,0.6,0,0.9
		c0.1,0.3,0.1,0.5,0.1,0.8c0.1,0.2,0.1,0.4,0.1,0.7c0.1,0.2,0.1,0.4,0.1,0.6c0.1,0.2,0.1,0.4,0.2,0.5c0,0.4,0.3,0.7,0.5,0.9
		c0.2,0.1,0.4,0.1,0.6,0.2c0.5,0.2,1.1,0.4,1.7,0.5c0.8,0.2,1.6,0.3,2.4,0.3c0.5,0.1,0.9,0.1,1.4,0.2c0.5,0,0.9,0,1.4,0.1
		c0.5,0,1.1,0,1.6,0.1c0.5,0,1.1,0,1.6,0.1c1.1,0,2.2,0,3.3,0c1.1,0.1,2.2,0.1,3.3,0.1c1.6-0.2,3.2,0,4.7-0.2c0.5,0,0.9,0,1.4-0.1
		c0.4,0,0.8,0,1.3-0.1c0.7-0.1,1.5-0.1,2.2-0.2c0.5-0.1,1-0.3,1.5-0.4c0.1,0,0.2,0,0.2-0.1c0.1-0.1,0.2-0.1,0.3-0.2
		c0.1-0.1,0.1-0.3,0.1-0.4c0.2-0.5,0.5-1.2,0.5-1.7c0.1-0.3,0.1-0.5,0.2-0.8c0-0.3,0-0.6,0.1-0.9c0-0.3,0-0.6,0.1-0.9
		c0-0.4,0-0.8,0.1-1.1c0-0.3,0-0.7,0.1-1.1c0-0.4,0-0.8,0-1.2c0.1-0.9,0.1-1.7,0.2-2.6c0-2-0.1-4,0.1-5.9c0-1.1,0-2.1-0.1-3.2
		c0-2.3,0.2-4.7-0.1-6.9c0-1.2,0-2.4-0.1-3.6c0-0.6,0-1.2,0-1.8c-0.1-1.2-0.1-2.4-0.2-3.6c0-0.6,0-1.2-0.1-1.9c0-0.6,0-1.2,0-1.8
		c-0.1-0.6-0.1-1.2-0.1-1.8c-0.1-0.6-0.1-1.2-0.1-1.7c-0.1-0.6-0.1-1.2-0.1-1.8c-0.1-0.6-0.1-1.2-0.1-1.8c-0.1-0.5-0.1-1.1-0.1-1.7
		c-0.1-0.5-0.1-1.1-0.1-1.7c-0.1-0.5-0.1-1.1-0.2-1.6c0-0.5,0-1.1-0.1-1.6c0-0.5,0-1.1-0.1-1.6c-0.1-1-0.1-1.9-0.2-2.9
		c-0.1-0.5-0.1-0.9-0.2-1.4c0-0.5,0-0.9-0.1-1.4c-0.1-0.8-0.1-1.7-0.2-2.5c-0.1-0.3-0.1-0.7-0.2-1.1c0-0.3,0-0.7-0.1-1
		c-0.1-0.6-0.1-1.3-0.2-1.9c-0.1-0.3-0.1-0.5-0.1-0.8c-0.1-0.2-0.1-0.4-0.2-0.7c0-0.2,0-0.4-0.1-0.6c0-0.1,0-0.3-0.1-0.5
		c-0.1-0.2-0.1-0.4-0.2-0.6l-0.1-0.1c-0.1-0.1-0.3-0.2-0.5-0.3c-1.7-0.8-4-0.8-5.8-1.1c-0.6,0-1.2,0-1.7-0.1c-0.5,0-1.1,0-1.6-0.1
		c-0.6,0-1.2,0-1.8,0c-1.6-0.2-3.4-0.2-5,0c-0.5,0-1,0-1.5,0.1c-1.2,0-3.3,0.1-4.4,0.8c-0.2,0.1-0.4,0.2-0.5,0.3
		C684.4,642.8,684.4,642.8,684.3,642.9C684.3,643,684.4,642.8,684.3,642.9z"/>
	<path d="M717.5,715.3c-0.2-0.1-0.3-0.3-0.3-0.5c-0.1-0.1-0.1-0.3-0.2-0.4c0-0.2,0-0.4-0.1-0.5c-0.1-0.2-0.1-0.4-0.1-0.7
		c-0.1-0.2-0.1-0.4-0.2-0.7c0-0.3,0-0.6-0.1-0.9c0-0.3,0-0.6,0-0.9c-0.1-0.3-0.1-0.7-0.1-1.1c-0.1-0.8-0.1-1.5-0.2-2.3
		c0-0.9,0-1.7-0.1-2.6c0-0.9,0-1.9,0-2.8c-0.5-4.2-0.1-8.7-0.1-12.9c0.2-2.2,0.1-4.4,0.1-6.6c0.2-1.6,0.1-3.2,0.1-4.8
		c0.1-1.2,0.1-2.3,0.1-3.5c0.1-1.2,0.1-2.3,0.1-3.5c0.1-1.2,0.1-2.3,0.2-3.5c0-0.6,0-1.2,0-1.8c0.1-1.1,0.1-2.2,0.2-3.3
		c0-0.6,0-1.2,0.1-1.7c0-0.5,0-1.1,0-1.6c0.1-0.5,0.1-1,0.1-1.5c0.1-0.5,0.1-1,0.1-1.5c0.1-0.9,0.1-1.9,0.2-2.8c0-0.5,0-0.9,0.1-1.3
		c0-0.4,0-0.8,0.1-1.2c0-0.4,0-0.8,0.1-1.2c0-0.3,0-0.7,0.1-1c0-0.3,0-0.7,0-1c0.1-0.3,0.1-0.5,0.1-0.8c0.1-0.3,0.1-0.5,0.1-0.8
		c0.1-0.2,0.1-0.4,0.1-0.6c0.1-0.2,0.1-0.4,0.1-0.6c0.1-0.1,0.1-0.3,0.1-0.4c0-0.2,0.1-0.3,0.2-0.4c0.1-0.1,0.3-0.2,0.4-0.3
		c0.3-0.1,0.5-0.1,0.7-0.2c2.2-0.4,4.6-0.9,6.8-0.9c0.6-0.1,1.2-0.1,1.7-0.2c0.6,0,1.2,0,1.8-0.1c0.6,0,1.2,0,1.7,0
		c1.6-0.2,3.4-0.2,5,0c0.5,0,0.9,0,1.4,0c0.4,0.1,0.8,0.1,1.2,0.1c0.7,0.1,1.5,0.3,2.2,0.6c0.2,0.2,0.4,0.4,0.6,0.6
		c0.2,0.3,0.4,0.5,0.6,0.8c0.4,0.7,0.8,1.4,1.1,2.1c0.2,0.5,0.4,0.9,0.5,1.4c0.3,0.6,0.4,1.2,0.3,1.7c-0.3,1.1-0.3,1.8,0,2.1
		c0.3,0.2,0.7-0.2,1.4-1.2c0.3-0.3,0.7-0.7,1.3-1c0.4-0.3,0.8-0.6,1.3-1c0.4-0.3,0.8-0.5,1.3-0.8c0.4-0.3,0.8-0.6,1.2-0.9
		c0.8-0.5,1.7-0.9,2.6-1.3c0.4-0.3,0.8-0.5,1.2-0.6c0.5-0.2,0.9-0.4,1.3-0.6c1.2-0.4,2.4-0.9,3.7-1.1c1.8-0.7,3.9-0.6,5.8-0.9
		c0.7,0,1.5,0,2.2,0.1c0.3,0,0.7,0,1.1,0.1c1.6,0,3.7,0.4,5.1,1c0.6,0.2,1.2,0.4,1.8,0.7c0.3,0.1,0.7,0.2,1,0.3
		c0.3,0.1,0.5,0.3,0.8,0.4c0.3,0.1,0.6,0.3,0.9,0.5c0.6,0.3,1.1,0.6,1.6,0.9c0.3,0.1,0.5,0.3,0.8,0.5c0.3,0.1,0.5,0.3,0.8,0.5
		c1.3,0.6,2.2,1.8,3.3,2.6c0.6,0.6,1.1,1.1,1.7,1.7c0.4,0.6,0.9,1.1,1.3,1.7c0.1,0.1,0.3,0.3,0.4,0.5c0.1,0.2,0.2,0.4,0.3,0.5
		c0.1,0.2,0.2,0.4,0.3,0.6c0.1,0.1,0.2,0.3,0.3,0.5c0.1,0.1,0.1,0.3,0.2,0.4c0.1,0.3,0.2,0.6,0.3,0.9c0.1,0.2,0.1,0.4,0.1,0.5
		c0.2,0.4,0.1,1,0.1,1.4c-0.1,0.1-0.1,0.2-0.1,0.3c-0.1,0.1-0.3,0.3-0.4,0.4c-0.1,0.1-0.3,0.3-0.4,0.4c-0.2,0.2-0.4,0.4-0.6,0.6
		c-0.3,0.3-0.5,0.5-0.7,0.7c-1,0.8-2,1.9-2.9,2.8c-0.4,0.4-0.8,0.8-1.1,1.1c-1.2,1.2-2.4,2.4-3.6,3.6c-0.8,0.7-1.6,1.5-2.4,2.3
		c-0.7,0.7-1.4,1.4-2.2,2.1c-0.3,0.3-0.7,0.6-1.1,0.9c-0.3,0.3-0.6,0.5-0.9,0.8c-0.3,0.2-0.5,0.4-0.8,0.7c-0.4,0.3-0.9,0.6-1.3,0.9
		c-0.1,0.1-0.3,0.1-0.4,0.1c-0.1,0.1-0.1,0.1-0.2,0c-0.3-0.4-0.6-0.8-0.9-1.2c-0.3-0.4-0.7-0.8-1-1.2c-0.3-0.3-0.7-0.7-1-1.1
		c-0.3-0.3-0.6-0.7-0.9-1.1c-0.3-0.3-0.7-0.7-1-1c-0.3-0.3-0.6-0.6-0.9-0.9c-0.7-0.5-1.3-1.1-2-1.6c-0.6-0.5-1.2-0.9-1.9-1.2
		c-0.6-0.4-1.3-0.7-2-0.9c-1-0.2-2-0.4-3.1-0.2c-0.4,0-0.8,0-1.1,0.1c-0.4,0.1-0.8,0.3-1.1,0.4c-0.3,0.1-0.6,0.2-0.9,0.4
		c-0.6,0.3-1.2,0.7-1.7,1.1c-0.6,0.4-1,0.9-1.4,1.5c-0.3,0.3-0.5,0.6-0.6,0.9c-0.2,0.3-0.4,0.7-0.6,1c-0.1,0.3-0.3,0.7-0.4,1
		c-0.2,0.4-0.3,0.8-0.4,1.1c-0.4,1.2-0.6,2.5-1,3.7c-0.2,0.9-0.3,1.8-0.3,2.7c-0.1,0.5-0.1,0.9-0.1,1.4c-0.1,1-0.1,1.9-0.2,2.9
		c0,1,0,2,0.1,3c0,0.5,0,1,0,1.5c0.1,0.5,0.1,1,0.1,1.5c0.1,0.5,0.1,1,0.1,1.5c0.1,0.5,0.1,1,0.1,1.5c0.2,1,0.3,1.9,0.3,2.9
		c0.3,2.8,0.8,5.6,1.2,8.3c0,1.5,0.4,3.1,0.7,4.5c0.1,0.6,0.1,1.2,0.2,1.8c0.1,0.3,0.1,0.5,0.1,0.8c0.1,0.3,0.1,0.5,0.1,0.7
		c0.1,0.2,0.3,2,0,2c-0.1,0.1-0.1,0.1-0.2,0.2c-0.4,0.1-0.8,0.2-1.2,0.2c-0.6,0.2-1.3,0.3-1.9,0.3c-0.5,0.1-0.9,0.1-1.3,0.2
		c-1,0.1-1.9,0.1-2.9,0.2c-0.5,0.1-1.1,0.1-1.6,0.2c-0.5,0-1.1,0-1.7,0.1c-0.6,0-1.2,0-1.7,0.1c-0.6,0-1.2,0-1.8,0.1
		c-0.6,0-1.2,0-1.8,0.1c-0.6,0-1.2,0-1.8,0.1c-0.6,0-1.2,0-1.8,0c-1.7,0.2-3.4,0-5,0.2c-0.5,0-1,0-1.5,0c-1.2-0.2-2.4,0-3.6-0.2
		c-0.3,0-0.6,0-0.9-0.1c-0.2,0-0.4,0-0.7-0.1C717.8,715.4,717.6,715.4,717.5,715.3C717.4,715.2,717.6,715.4,717.5,715.3z"/>
	<path d="M814.1,595.5c0.9,0.3,1.7,0.7,2.4,1.2c0.3,0.2,0.7,0.4,1.1,0.7c0.3,0.2,0.7,0.5,1,0.8c0.3,0.3,0.6,0.5,0.9,0.8
		c1.3,1,2.3,2.6,3,4c0.2,0.3,0.4,0.7,0.6,1.1c0.1,0.3,0.3,0.7,0.4,1.1c0.2,0.4,0.3,0.8,0.4,1.2c0.5,1.6,0.6,3.3,0.6,4.9
		c-0.1,0.4-0.1,0.8-0.1,1.2c-0.1,0.4-0.2,0.8-0.3,1.2c-0.2,1.2-0.6,2.6-1.2,3.6c-0.2,0.4-0.4,0.8-0.6,1.1c-0.2,0.4-0.4,0.8-0.7,1.1
		c-0.5,0.7-1,1.4-1.5,2c-0.9,0.9-1.8,1.8-2.8,2.4c-0.3,0.3-0.7,0.5-1.1,0.7c-0.3,0.2-0.7,0.4-1.1,0.6c-0.3,0.2-0.7,0.4-1.1,0.6
		c-2.1,0.7-4.1,1.4-6.3,1.4c-0.5,0.1-0.9,0.1-1.4,0.1c-0.4-0.1-0.8-0.1-1.3-0.1c-1.4-0.2-2.7-0.4-4-1c-0.5-0.1-0.9-0.3-1.2-0.5
		c-0.4-0.3-0.8-0.5-1.2-0.8c-0.3-0.2-0.7-0.5-1-0.8c-0.3-0.3-0.6-0.6-0.9-0.9c-0.7-0.6-1.2-1.3-1.6-2.1c-1.2-1.8-2.2-4.1-2.5-6.2
		c-0.1-0.5-0.2-0.9-0.2-1.3c-0.1-0.5-0.1-0.9-0.2-1.3c0-0.9,0-1.7,0-2.6c0.1-0.4,0.1-0.8,0.1-1.2c0.1-0.4,0.2-0.8,0.3-1.2
		c0.1-0.8,0.4-1.6,0.8-2.3c0.1-0.4,0.3-0.8,0.5-1.1c0.4-0.8,0.8-1.5,1.3-2.1c0.3-0.4,0.5-0.7,0.8-1c0.3-0.3,0.5-0.7,0.8-1
		c0.3-0.3,0.6-0.6,0.9-0.9c0.6-0.5,1.3-1,2-1.5c0.3-0.3,0.7-0.5,1.1-0.7c0.3-0.2,0.7-0.4,1.1-0.6c1.1-0.6,2.4-0.9,3.5-1.3
		c0.8-0.2,1.7-0.3,2.5-0.3C809.9,594.2,812.3,594.6,814.1,595.5C814.5,595.7,813.7,595.3,814.1,595.5z M797.7,642.9
		c0,0.1,0,0.2-0.1,0.3c-0.1,0.3-0.1,0.6-0.2,0.9c-0.1,0.2-0.1,0.4-0.2,0.6c0,0.3,0,0.5-0.1,0.7c-0.1,0.3-0.1,0.5-0.1,0.8
		c-0.2,0.6-0.3,1.3-0.3,1.9c-0.2,0.8-0.3,1.5-0.3,2.3c-0.1,0.8-0.3,1.7-0.4,2.5c0,1.5-0.4,2.9-0.4,4.3c-0.1,1-0.3,2.1-0.4,3.1
		c0,1.7-0.4,3.3-0.4,5c-0.2,1.2-0.3,2.3-0.3,3.5c-0.2,1.2-0.3,2.4-0.3,3.6c-0.1,0.6-0.1,1.2-0.2,1.8c-0.1,1.2-0.1,2.4-0.2,3.6
		c-0.1,0.7-0.1,1.3-0.2,1.9c0,0.6,0,1.2-0.1,1.8c-0.1,1.2-0.1,2.4-0.2,3.6c-0.1,1.2-0.1,2.4-0.2,3.6c0,0.5,0,1.1-0.1,1.7
		c0,0.5,0,1.1-0.1,1.7c0,0.5,0,1.1,0,1.7c-0.2,1.6,0,3.2-0.2,4.7c0,2.6-0.3,5.5,0.1,8c0,0.7,0,1.4,0.1,2.1c0,0.3,0,0.6,0,0.9
		c0.1,0.3,0.1,0.5,0.1,0.8c0.1,0.2,0.1,0.4,0.1,0.7c0.1,0.2,0.1,0.4,0.1,0.6c0.1,0.2,0.1,0.4,0.2,0.5c0,0.4,0.3,0.7,0.5,0.9
		c0.2,0.1,0.4,0.1,0.6,0.2c0.5,0.2,1.1,0.4,1.7,0.5c0.8,0.2,1.6,0.3,2.4,0.3c0.5,0.1,0.9,0.1,1.4,0.2c0.5,0,0.9,0,1.4,0.1
		c0.5,0,1.1,0,1.6,0.1c0.5,0,1.1,0,1.6,0.1c1.1,0,2.2,0,3.3,0c1.1,0.1,2.2,0.1,3.3,0.1c1.6-0.2,3.2,0,4.7-0.2c0.5,0,0.9,0,1.4-0.1
		c0.4,0,0.8,0,1.3-0.1c0.7-0.1,1.5-0.1,2.2-0.2c0.5-0.1,1-0.3,1.5-0.4c0.1,0,0.2,0,0.2-0.1c0.1-0.1,0.2-0.1,0.3-0.2
		c0.1-0.1,0.1-0.3,0.1-0.4c0.2-0.5,0.5-1.2,0.5-1.7c0.1-0.3,0.1-0.5,0.2-0.8c0-0.3,0-0.6,0.1-0.9c0-0.3,0-0.6,0.1-0.9
		c0-0.4,0-0.8,0.1-1.1c0-0.3,0-0.7,0.1-1.1c0-0.4,0-0.8,0-1.2c0.1-0.9,0.1-1.7,0.2-2.6c0-2-0.1-4,0.1-5.9c0-1.1,0-2.1-0.1-3.2
		c0-2.3,0.2-4.7-0.1-6.9c0-1.2,0-2.4-0.1-3.6c0-0.6,0-1.2,0-1.8c-0.1-1.2-0.1-2.4-0.2-3.6c0-0.6,0-1.2-0.1-1.9c0-0.6,0-1.2,0-1.8
		c-0.1-0.6-0.1-1.2-0.1-1.8c-0.1-0.6-0.1-1.2-0.1-1.7c-0.1-0.6-0.1-1.2-0.1-1.8c-0.1-0.6-0.1-1.2-0.1-1.8c-0.1-0.5-0.1-1.1-0.1-1.7
		c-0.1-0.5-0.1-1.1-0.1-1.7c-0.1-0.5-0.1-1.1-0.2-1.6c0-0.5,0-1.1-0.1-1.6c0-0.5,0-1.1-0.1-1.6c-0.1-1-0.1-1.9-0.2-2.9
		c-0.1-0.5-0.1-0.9-0.2-1.4c0-0.5,0-0.9-0.1-1.4c-0.1-0.8-0.1-1.7-0.2-2.5c-0.1-0.3-0.1-0.7-0.2-1.1c0-0.3,0-0.7-0.1-1
		c-0.1-0.6-0.1-1.3-0.2-1.9c-0.1-0.3-0.1-0.5-0.1-0.8c-0.1-0.2-0.1-0.4-0.2-0.7c0-0.2,0-0.4-0.1-0.6c0-0.1,0-0.3-0.1-0.5
		c-0.1-0.2-0.1-0.4-0.2-0.6l-0.1-0.1c-0.1-0.1-0.3-0.2-0.5-0.3c-1.7-0.8-4-0.8-5.8-1.1c-0.6,0-1.2,0-1.7-0.1c-0.5,0-1.1,0-1.6-0.1
		c-0.6,0-1.2,0-1.8,0c-1.6-0.2-3.4-0.2-5,0c-0.5,0-1,0-1.5,0.1c-1.2,0-3.3,0.1-4.4,0.8c-0.2,0.1-0.4,0.2-0.5,0.3
		C797.9,642.8,797.8,642.8,797.7,642.9C797.7,643,797.8,642.8,797.7,642.9z"/>
</g>
<g>
	<path fill="#F1CC5A" d="M373.3,729.6H220c-12.8,0-23.2-10.4-23.2-23.2v-128c0-12.8,10.4-23.2,23.2-23.2h153.3
		c12.8,0,23.2,10.4,23.2,23.2v128C396.5,719.1,386.1,729.6,373.3,729.6z"/>
	<path fill="#FFEDBB" d="M361.9,714.7H231.4c-12.8,0-23.2-10.4-23.2-23.2v-97.9c0-12.8,10.4-23.2,23.2-23.2H362
		c12.8,0,23.2,10.4,23.2,23.2v97.9C385.1,704.3,374.7,714.7,361.9,714.7z"/>
</g>
</svg>
