<?xml version="1.0" encoding="utf-8"?>
<!-- Generator: Adobe Illustrator 18.0.0, SVG Export Plug-In . SVG Version: 6.00 Build 0)  -->
<!DOCTYPE svg PUBLIC "-//W3C//DTD SVG 1.0//EN" "http://www.w3.org/TR/2001/REC-SVG-20010904/DTD/svg10.dtd">
<svg version="1.0" id="Camada_1" xmlns="http://www.w3.org/2000/svg" xmlns:xlink="http://www.w3.org/1999/xlink" x="0px" y="0px"
	 viewBox="0 0 1024 768" enable-background="new 0 0 1024 768" xml:space="preserve">
<g>
	<path d="M473.8,642.5c0.2,0.1,0.3,0.3,0.3,0.5c0.1,0.1,0.1,0.3,0.2,0.4c0,0.5,0.2,1.4,0.3,1.9c0,0.3,0,0.5,0,0.8
		c0.1,0.6,0.1,1.3,0.1,1.9c0.5,2.8,0.4,6.4,0,9.3c0,1.6,0,3.2,0,4.8c-0.3,2.2-0.1,4.6-0.1,6.8c-0.4,3.5-0.1,7.2-0.1,10.8
		c0.1,1.2,0.1,2.4,0.1,3.6c0.1,1.2,0.1,2.4,0.2,3.6c0,0.5,0,1.1,0.1,1.7c0.1,1.2,0.1,2.3,0.2,3.5c0.1,0.6,0.1,1.2,0.2,1.7
		c0.1,1.1,0.1,2.2,0.2,3.3c0.1,0.5,0.1,1.1,0.2,1.6c0.1,1,0.1,2,0.2,3c0.1,0.5,0.1,0.9,0.1,1.4c0.1,0.5,0.1,0.9,0.2,1.4
		c0,0.4,0,0.8,0.1,1.3c0,0.4,0,0.8,0.1,1.2c0,0.4,0,0.8,0,1.1c0.1,0.7,0.1,1.4,0.2,2.1c0,0.9,0.2,2-0.1,2.9c0,0.2,0,0.4,0,0.5
		c-0.1,0.1-0.1,0.3-0.1,0.4c-0.1,0.1-0.1,0.1-0.2,0.2c0,0.1-0.1,0.1-0.2,0.1c-0.1,0.1-0.3,0.1-0.4,0.1c-0.6,0.1-1.1,0.2-1.7,0.2
		c-0.4,0-0.8,0-1.1,0c-1,0.1-1.9,0.1-2.9,0.1c-3.8,0.5-8.3,0.5-12.1,0c-1,0-2.1,0-3.1-0.1c-0.5,0-0.9,0-1.4,0
		c-0.4-0.1-0.8-0.1-1.2-0.1c-0.3-0.1-0.7-0.1-1-0.1c-0.3-0.1-0.5-0.1-0.8-0.2c-0.1,0-0.3,0-0.5-0.1c-0.3-0.1-0.6-0.3-0.9-0.4
		c-0.5-0.2-0.7-0.6-0.8-1.1c-0.1-0.5-0.2-1-0.1-1.5c0.1-0.9,0.2-1.7,0.1-2.5c-0.1-0.3-0.3,0-0.6,0.7c-0.1,0.2-0.3,0.4-0.6,0.7
		c-0.2,0.2-0.4,0.4-0.7,0.6c-0.7,0.7-1.5,1.2-2.3,1.8c-0.3,0.1-0.6,0.3-0.9,0.5c-0.3,0.1-0.6,0.3-0.9,0.4c-0.6,0.4-1.3,0.7-2,0.8
		c-0.3,0.1-0.7,0.3-1,0.4c-0.4,0.1-0.8,0.2-1.1,0.3c-1.1,0.2-2.3,0.4-3.4,0.6c-0.3,0-0.7,0-1.1,0.1c-1.2,0-2.4,0.1-3.6-0.1
		c-1.2,0-2.5-0.3-3.7-0.5c-0.4-0.1-0.8-0.2-1.2-0.3c-0.8-0.3-1.6-0.5-2.4-0.8c-0.4-0.2-0.8-0.4-1.2-0.5c-0.4-0.2-0.8-0.4-1.1-0.6
		c-0.8-0.4-1.6-0.8-2.3-1.3c-0.4-0.3-0.8-0.5-1.1-0.8c-0.4-0.3-0.8-0.5-1.1-0.8c-1-1-2.2-1.9-3.1-3c-0.6-0.7-1.2-1.5-1.8-2.3
		c-0.5-0.9-1-1.8-1.6-2.7c-0.3-0.5-0.5-0.9-0.7-1.4c-0.8-1.3-1.3-2.8-1.9-4.2c-0.1-0.5-0.3-1-0.5-1.5c-0.1-0.5-0.3-1-0.4-1.5
		c-0.4-0.9-0.7-1.9-0.8-2.9c-0.1-0.5-0.3-1.1-0.4-1.6c-0.1-0.5-0.2-1-0.3-1.5c-0.3-2-0.5-4.1-0.8-6.1c0-0.5,0-1-0.1-1.5
		c0-0.5,0-1-0.1-1.5c0-1,0-2.1,0-3.1c-0.1-0.5-0.1-1,0-1.5c0-1,0-2,0-3c0.1-0.5,0.1-0.9,0.1-1.4c0.1-0.5,0.1-1,0.1-1.5
		c0.1-0.5,0.1-0.9,0.2-1.4c0-3,0.8-6.3,1.3-9.3c0.2-0.8,0.4-1.6,0.5-2.4c0.2-0.7,0.4-1.4,0.6-2.1c0.1-0.3,0.2-0.7,0.3-1.1
		c0.1-0.3,0.1-0.6,0.2-0.9c0.1-0.3,0.2-0.7,0.3-1c0.2-0.6,0.4-1.1,0.6-1.7c0.1-0.2,0.2-0.4,0.3-0.7c0.1-0.3,0.2-0.5,0.3-0.7
		c0.1-0.3,0.1-0.5,0.2-0.7c0.1-0.2,0.2-0.4,0.3-0.6c0.1-0.1,0.2-0.3,0.3-0.5c0.1-0.1,0.1-0.3,0.2-0.5c0.1-0.1,0.2-0.3,0.3-0.4
		c0.1-0.1,0.1-0.2,0.2-0.3c0.1-0.1,0.4-0.5,0.6-0.5c1-0.3,2.1-0.4,3.1-0.6c0.5,0,0.9,0,1.4-0.1c0.5,0,1.1,0,1.6-0.1
		c0.5,0,1.1,0,1.6-0.1c2.2,0,4.4-0.2,6.5,0.1c0.5,0,0.9,0,1.4,0c0.4,0.1,0.8,0.1,1.1,0.1c0.3,0.1,0.7,0.1,1,0.2c0.3,0,0.5,0,0.7,0.1
		c0.1,0.1,0.3,0.1,0.4,0.2c0,0.6,0.1,1.3-0.1,1.9c0,0.3,0,0.5-0.1,0.7c0,0.3,0,0.5-0.1,0.8c0,0.3,0,0.6-0.1,0.9
		c-0.1,0.7-0.1,1.4-0.2,2.1c-0.2,0.8-0.3,1.5-0.3,2.3c-0.2,0.9-0.3,1.7-0.3,2.6c-0.1,0.5-0.1,0.9-0.2,1.4c-0.1,1-0.1,1.9-0.2,2.9
		c-0.1,0.5-0.1,1-0.2,1.5c0,0.5,0,1-0.1,1.5c0,0.5,0,1,0,1.5c-0.1,1-0.1,2.1-0.1,3.1c-0.1,1.1-0.1,2.1-0.1,3.2
		c0.1,1,0.1,2.1,0.2,3.1c0,0.5,0,1,0.1,1.5c0,1.4,0.2,3,0.6,4.3c0.1,0.5,0.1,0.9,0.2,1.4c0.5,1.6,0.8,3.5,1.7,4.9
		c0.5,1,1.1,2.2,1.9,3c0.4,0.6,1,1.1,1.6,1.5c0.9,0.7,1.9,1.1,2.9,1.5c0.8,0.1,1.6,0.3,2.4,0.4c0.3,0,0.7,0,1.1-0.1
		c0.3,0,0.7,0,1-0.1c0.6-0.2,1.3-0.5,1.9-0.8c0.9-0.6,1.8-1.2,2.4-2.1c0.3-0.3,0.5-0.7,0.7-1c0.3-0.3,0.5-0.7,0.7-1
		c0.2-0.4,0.4-0.8,0.6-1.2c0.4-1.3,1-2.5,1.4-3.8c0.2-0.5,0.4-1,0.5-1.5c0.2-1,0.4-2,0.7-3c0.1-0.5,0.2-1.1,0.3-1.6
		c0.1-1.1,0.3-2.2,0.5-3.2c0.2-1.1,0.3-2.3,0.3-3.4c0.2-1.1,0.3-2.2,0.3-3.3c0.1-0.5,0.1-1.1,0.1-1.7c0.1-0.5,0.1-1.1,0.1-1.6
		c0.1-1.1,0.1-2.1,0.2-3.2c0-1,0-2.1,0.1-3.1c0-1.8,0-3.6,0-5.3c0.3-1.6-0.2-3.3,0.2-4.8c0-0.4,0-0.7,0.1-1.1c0-0.1,0-0.3,0-0.4
		c0.1-0.1,0.1-0.1,0.1-0.2c0.1-0.1,0.2-0.1,0.3-0.2c0.3-0.1,0.5-0.1,0.7-0.1c0.7-0.2,1.4-0.3,2.1-0.4c1-0.1,1.9-0.1,2.9-0.2
		c0.5-0.1,1.1-0.1,1.7-0.1c1.2-0.1,2.3-0.1,3.5-0.2c1.7,0,3.4,0,5.1,0c1.3,0.2,2.8,0.3,4.1,0.3c0.3,0.1,0.6,0.1,0.9,0.2
		C473.4,642.4,473.6,642.4,473.8,642.5C473.9,642.6,473.6,642.4,473.8,642.5z"/>
</g>
<image overflow="visible" width="1500" height="1500" xlink:href="../../../Desenhos Jogo Yegatu/png2/yurú.png"  transform="matrix(0.4573 0 0 0.4573 169 -30.6822)">
</image>
<path d="M359.4,664.6v-0.1c-0.1,0-0.1,0-0.1-0.1c-0.1-0.1-0.1-0.2-0.1-0.3c-0.1-0.1-0.1-0.2-0.2-0.3c-0.1-0.2-0.2-0.4-0.3-0.5
	c-0.1-0.1-0.1-0.3-0.2-0.5c-0.1-0.2-0.3-0.4-0.4-0.6c-0.1-0.3-0.2-0.5-0.3-0.7c-0.1-0.3-0.3-0.5-0.4-0.8c-0.2-0.3-0.4-0.6-0.5-0.9
	c-0.1-0.3-0.3-0.6-0.5-0.9c-0.1-0.3-0.3-0.7-0.5-1c-0.2-0.4-0.4-0.8-0.5-1.1c-0.2-0.4-0.4-0.8-0.6-1.1c-0.4-0.9-0.8-1.7-1.3-2.5
	c-0.4-0.9-0.8-1.8-1.3-2.6c-0.3-0.5-0.5-0.9-0.7-1.4c-0.3-0.5-0.5-0.9-0.7-1.4c-0.5-1-1.1-2-1.6-3c-1.4-3.3-3.1-6.4-4.7-9.6
	c-3.2-5.1-5.5-11-8.1-16.4c-0.5-1-0.9-2-1.4-3c-0.3-0.5-0.5-1-0.7-1.5c-0.4-1-0.9-2-1.4-2.9c-0.6-1.3-1.2-2.6-1.8-3.9
	c-0.1-0.4-0.3-0.8-0.5-1.3c-0.2-0.3-0.4-0.7-0.5-1.1c-0.4-0.7-0.7-1.5-0.9-2.2c-0.3-0.6-0.5-1.2-0.8-1.8c-0.1-0.3-0.2-0.6-0.3-0.9
	c-0.1-0.2-0.2-0.4-0.3-0.7c-0.1-0.2-0.1-0.4-0.2-0.7c-0.1-0.2-0.1-0.4-0.1-0.6c-0.1-0.1-0.1-0.3-0.2-0.5c0-0.1,0-0.3,0-0.4
	c-0.1-0.1-0.1-0.2,0-0.3c0-0.1,0-0.2,0.1-0.3c0.1-0.1,0.3-0.1,0.5-0.1c0.2-0.1,0.4-0.1,0.7-0.2c0.3,0,0.6,0,0.9-0.1
	c0.8-0.1,1.6-0.1,2.4-0.2c0.5,0,0.9,0,1.4-0.1c1,0,2.1,0,3.1-0.1c2.8,0,5.7,0,8.5,0c1.1,0.1,2.1,0.1,3.2,0.1
	c0.9,0.1,1.9,0.1,2.8,0.2c0.4,0,0.8,0,1.2,0.1c0.4,0,0.8,0,1.1,0.1c0.3,0,0.5,0,0.8,0.1c0.3,0,0.5,0,0.7,0.1c0.1,0,0.3,0,0.4,0.1
	c0.1,0.1,0.1,0.1,0.2,0.2c0.1,0.1,0.2,0.3,0.3,0.4c0.1,0.2,0.3,0.4,0.4,0.6c0.2,0.2,0.4,0.4,0.5,0.7c0.2,0.3,0.4,0.6,0.5,0.9
	c0.2,0.3,0.4,0.7,0.6,1c0.2,0.4,0.4,0.8,0.7,1.2c0.2,0.4,0.4,0.8,0.7,1.3c0.5,0.9,0.9,1.9,1.4,2.8c3.4,6.9,6.5,14.1,10.4,20.7
	c0.2,0.4,0.4,0.8,0.6,1.2c0.1,0.4,0.3,0.8,0.5,1.1c0.1,0.3,0.3,0.7,0.5,1c0.1,0.3,0.2,0.5,0.4,0.8c0.1,0.3,0.2,0.5,0.3,0.7
	c0.1,0.3,0.2,0.6,0.4,0.8v0.1V632c0.2-0.2,0.3-0.5,0.4-0.7c0.1-0.3,0.2-0.5,0.3-0.7c0.6-1.3,1.3-2.6,1.8-4c0.2-0.4,0.4-0.8,0.6-1.2
	c0.5-1,1-1.9,1.4-2.9c0.5-1,1-2.1,1.4-3.1c2.4-4.8,5-9.6,7.1-14.5c0.3-0.5,0.5-0.9,0.8-1.4c0.2-0.5,0.4-0.9,0.7-1.4
	c0.2-0.4,0.4-0.8,0.7-1.2c0.2-0.3,0.4-0.7,0.6-1.1c0.2-0.3,0.4-0.7,0.6-1c0.1-0.3,0.3-0.5,0.5-0.8c0.3-0.6,0.7-1.1,1.2-1.6
	c0.1-0.1,0.1-0.1,0.2-0.2c0.4-0.1,0.8-0.2,1.2-0.2c0.3,0,0.7,0,1-0.1c0.4,0,0.8,0,1.1,0c0.9-0.1,1.9-0.1,2.8-0.2
	c4.5,0,9.3-0.5,13.8,0.1c1,0,2,0,3,0.1c0.4,0,0.8,0,1.2,0.1c0.4,0,0.8,0,1.1,0.1c0.3,0,0.6,0,0.9,0.1c0.2,0,0.4,0,0.7,0.1
	c0.1,0,0.2,0,0.3,0.1c0.2,0,0,0.6,0,0.6c0,0.1,0,0.3-0.1,0.4c-0.1,0.2-0.1,0.4-0.1,0.5c-0.1,0.2-0.1,0.4-0.2,0.6
	c-0.1,0.2-0.2,0.4-0.3,0.7c-0.2,0.5-0.4,1-0.6,1.5c-0.1,0.3-0.3,0.6-0.4,0.9c-0.1,0.3-0.3,0.7-0.4,1c-0.3,0.7-0.7,1.5-1,2.2
	c-0.1,0.4-0.3,0.8-0.5,1.1c-0.8,1.8-1.6,3.5-2.4,5.3c-1.4,2.4-2.4,5-3.6,7.4c-2.1,5.6-5.3,11.1-7.9,16.5c-1.2,2.1-2.2,4.4-3.3,6.5
	c-0.6,1.6-1.5,3.2-2.3,4.7c-1.5,3.6-4,6.9-5.2,10.7c-0.2,0.3-0.4,0.7-0.6,1c-0.1,0.3-0.3,0.7-0.5,1c-0.1,0.3-0.3,0.7-0.5,1
	c-0.1,0.3-0.3,0.6-0.4,0.9c-0.1,0.3-0.3,0.5-0.4,0.8c-0.1,0.2-0.3,0.4-0.4,0.7c-0.1,0.2-0.2,0.4-0.3,0.6c-0.1,0.2-0.2,0.4-0.3,0.5
	c-0.1,0.3-0.2,0.6-0.4,0.8c0,0.1,0,0.2-0.1,0.3c0,0.1,0,0.1-0.1,0.2v0.1c0,0.1,0,0.1,0.1,0.2c0,0.1,0,0.3,0,0.4
	c0.1,0.1,0.1,0.3,0.1,0.5c0.1,0.2,0.1,0.4,0.1,0.6c0.2,0.5,0.3,1.1,0.3,1.6c0.3,1.5,0.6,2.9,0.8,4.4c0.4,1.4,0.4,2.8,0.8,4.2
	c0.1,1,0.3,2,0.5,3c0.1,0.5,0.1,1.1,0.2,1.6c0.2,1.1,0.4,2.2,0.6,3.3c0.1,0.5,0.1,1.1,0.2,1.7c0.2,1.1,0.4,2.2,0.5,3.3
	c0.5,2.2,0.5,4.5,1,6.7c0.1,0.5,0.1,1.1,0.1,1.6c0.2,1.5,0.5,3,0.5,4.5c0.1,0.5,0.1,0.9,0.2,1.4c0,0.5,0,0.9,0.1,1.4
	c0,0.4,0,0.8,0,1.2c0.2,1.5,0.1,3.2,0,4.6c0,0.5-0.1,1.1-0.2,1.6c-0.1,0.3-0.3,0.6-0.6,0.8c-0.1,0.1-0.2,0.1-0.4,0.2
	c-0.3,0-0.5,0.1-0.7,0.2c-0.3,0.1-0.5,0.1-0.8,0.1c-0.3,0.1-0.7,0.1-1,0.2c-1.2,0-2.5,0.1-3.7,0.3c-0.5,0-1,0-1.5,0.1
	c-1,0-2.1,0-3.1,0.1c-2.8,0-5.8,0.3-8.6-0.1c-1.2,0-2.3,0-3.5-0.1c-0.6,0-1.2,0-1.7-0.1c-0.5,0-1.1,0-1.6,0
	c-0.5-0.1-1.1-0.1-1.6-0.1c-0.5-0.1-1-0.1-1.5-0.2c-0.5,0-0.9,0-1.4-0.1c-0.8,0-1.6-0.1-2.4-0.3c-0.6,0-1.3-0.1-1.9-0.3
	c-0.2-0.1-0.4-0.1-0.7-0.2c-0.3-0.1-0.6-0.2-0.9-0.4c-0.1-0.1-0.1-0.1-0.1-0.2c-0.1-0.1-0.1-0.3-0.2-0.4c0-0.2,0-0.4,0-0.6
	c-0.5-1.4-0.1-3.4-0.1-4.8c0.1-0.5,0.1-0.9,0.1-1.3c0.1-0.5,0.1-0.9,0.1-1.4c0.1-0.5,0.1-1,0.1-1.5c0.1-0.5,0.1-1.1,0.2-1.6
	c0-1.7,0.3-3.4,0.5-5c0-1.2,0.1-2.4,0.3-3.6c0.7-3,0.5-6.1,1.2-9.1c0.2-1.7,0.4-3.5,0.6-5.2c0.7-2.8,0.8-5.8,1.3-8.6
	c0-0.7,0.1-1.5,0.3-2.2c0-0.3,0-0.5,0.1-0.8c0-0.3,0-0.5,0.1-0.7c0-0.2,0-0.4,0.1-0.6c0-0.1,0-0.3,0-0.5c0.1-0.1,0.1-0.1,0.1-0.2
	V664.6z"/>
<g>
	<path fill="#F1CC5A" d="M667.7,729.6H514.4c-12.8,0-23.2-10.4-23.2-23.2v-128c0-12.8,10.4-23.2,23.2-23.2h153.3
		c12.8,0,23.2,10.4,23.2,23.2v128C690.9,719.1,680.5,729.6,667.7,729.6z"/>
	<path fill="#FFEDBB" d="M656.3,714.7H525.8c-12.8,0-23.2-10.4-23.2-23.2v-97.9c0-12.8,10.4-23.2,23.2-23.2h130.6
		c12.8,0,23.2,10.4,23.2,23.2v97.9C679.5,704.3,669.1,714.7,656.3,714.7z"/>
</g>
</svg>
