<?xml version="1.0" encoding="utf-8"?>
<!-- Generator: Adobe Illustrator 18.0.0, SVG Export Plug-In . SVG Version: 6.00 Build 0)  -->
<!DOCTYPE svg PUBLIC "-//W3C//DTD SVG 1.0//EN" "http://www.w3.org/TR/2001/REC-SVG-20010904/DTD/svg10.dtd">
<svg version="1.0" id="Camada_1" xmlns="http://www.w3.org/2000/svg" xmlns:xlink="http://www.w3.org/1999/xlink" x="0px" y="0px"
	 viewBox="0 0 1024 768" enable-background="new 0 0 1024 768" xml:space="preserve">
<image overflow="visible" enable-background="new    " width="1500" height="1500" xlink:href="../../../Desenhos Jogo Yegatu/png2/ãbaiwa.png"  transform="matrix(0.4297 0 0 0.4297 192.612 -46.3518)">
</image>
<path fill="#020202" d="M274.6,558.1c-5.1,0-9,12.3-17.4,11.8c-8.3-0.5-8.3-7.4-8.3-10.2c0-5.8,5.8-15.3,8.8-18.8
	c3-3.5,7.7-8.1,16.5-8.1c12.3,0,14.6,12.5,24.6,12.5c5.6,0,10-15.3,20.6-15.3c19,0,6.3,20.4,4.4,23.7c-3.2,5.1-12.5,17.9-25.3,17.9
	C285.7,571.8,283.4,558.1,274.6,558.1"/>
<g enable-background="new    ">
	<path fill="#020202" d="M243.7,694L243.7,694c0-0.6,0.1-1.1,0.2-1.6c0-0.1,0-0.3,0-0.5c0.1-0.2,0.1-0.4,0.2-0.6
		c0.5-2.8,1.5-5.4,1.9-8.2c0.1-0.3,0.2-0.7,0.3-1c0.1-0.4,0.2-0.8,0.3-1.1c0.1-0.4,0.3-0.8,0.4-1.1c1.8-7,4-14,5.8-21
		c0.5-1.6,1-3.1,1.3-4.8c0.2-0.6,0.4-1.1,0.5-1.7c0.2-0.5,0.4-1,0.5-1.6c0.2-0.5,0.4-1,0.5-1.6c0.2-0.6,0.4-1.1,0.5-1.7
		c0.2-0.5,0.4-1,0.5-1.6c0.2-0.6,0.4-1.1,0.5-1.7c0.2-0.5,0.4-1,0.5-1.6c0.2-0.6,0.4-1.1,0.5-1.7c0.2-0.6,0.4-1.1,0.5-1.6
		c0.2-0.6,0.4-1.1,0.5-1.7c0.2-0.6,0.4-1.1,0.5-1.7c0.2-0.5,0.4-1,0.6-1.6c0.1-0.6,0.3-1.1,0.5-1.7c0.1-0.6,0.3-1.1,0.5-1.6
		c0.1-0.6,0.3-1.1,0.5-1.7c0.1-0.5,0.3-1,0.5-1.6c0.1-0.6,0.3-1.1,0.5-1.6c0.1-0.6,0.3-1.1,0.5-1.6c0.1-0.6,0.3-1.1,0.5-1.6
		c0.1-0.6,0.3-1.1,0.5-1.6c0.1-0.5,0.3-1,0.5-1.6c0.1-0.5,0.3-1,0.4-1.5c0.2-0.5,0.4-1,0.5-1.5c0.5-1.5,1-3,1.3-4.6
		c2-5.4,3.2-11.1,5.1-16.6c0.1-0.3,0.2-0.6,0.3-1c0.1-0.4,0.2-0.7,0.3-1c0.1-0.3,0.2-0.6,0.3-0.9c0.1-0.3,0.2-0.6,0.3-1
		c0.7-1.9,1.1-4.1,2-5.9c0.1-0.1,0.1-0.2,0.1-0.3c0.1-0.1,0.2-0.3,0.2-0.5c0.1-0.1,0.3-0.1,0.4-0.2c0.2-0.1,0.4-0.1,0.6-0.2
		c0.3-0.1,0.5-0.1,0.9-0.1c0.3-0.1,0.6-0.1,1-0.2c0.4,0,0.9,0,1.2-0.1c0.4,0,0.9,0,1.3-0.1c0.5,0,1,0,1.5-0.1
		c4.8,0.1,9.7-0.5,14.5,0.2c0.4,0,0.9,0,1.2,0c0.4,0.1,0.7,0.1,1.1,0.1c0.3,0.1,0.6,0.1,0.9,0.1c0.2,0.1,0.4,0.1,0.7,0.2
		c0.1,0,0.3,0,0.4,0.1v0.1c0.1,0,0.1,0,0.1,0.1c0.1,0.1,0.1,0.1,0.1,0.2c0.1,0.1,0.1,0.2,0.1,0.3c0.1,0.1,0.1,0.2,0.2,0.3
		c0,0.1,0,0.3,0.1,0.4c0.1,0.2,0.1,0.3,0.2,0.5c0.3,0.8,0.5,1.6,0.8,2.4c0.4,0.8,0.6,1.6,0.8,2.4c0.1,0.3,0.2,0.6,0.3,1
		c0.1,0.3,0.2,0.6,0.3,1c0.1,0.3,0.3,0.6,0.4,1c2.1,7.5,4.9,14.9,6.6,22.5c0.2,0.5,0.4,1,0.5,1.5c0.5,1.6,1,3.2,1.4,4.9
		c0.1,0.6,0.3,1.1,0.5,1.6c0.1,0.6,0.3,1.1,0.5,1.7c0.1,0.5,0.3,1,0.5,1.6c0.1,0.6,0.3,1.1,0.4,1.7c0.2,0.6,0.4,1.1,0.5,1.6
		c0.2,0.6,0.4,1.1,0.6,1.7c0.1,0.6,0.3,1.1,0.5,1.7c0.1,0.6,0.3,1.1,0.5,1.7c0.1,0.6,0.3,1.1,0.5,1.7c0.1,0.6,0.3,1.1,0.5,1.7
		c0.1,0.6,0.3,1.1,0.5,1.7c0.1,0.6,0.3,1.1,0.5,1.7c0.1,0.5,0.3,1,0.5,1.6c0.1,0.6,0.3,1.1,0.4,1.7c0.2,0.6,0.4,1.1,0.5,1.7
		c0.2,0.6,0.4,1.1,0.5,1.7c0.2,0.5,0.4,1,0.5,1.6c0.5,1.6,1,3.3,1.3,4.9c2.4,8,3.9,16.3,6.6,24.3c0.1,0.4,0.2,0.8,0.3,1.1
		c0.1,0.4,0.2,0.7,0.3,1c0.1,0.4,0.2,0.7,0.3,1c0.3,2.2,0.9,4.6,1.6,6.7c0.1,0.5,0.2,1.1,0.3,1.6c0.1,0.5,0.3,1.2,0.2,1.5
		c-0.1,0.1-0.1,0.2-0.2,0.3c-0.1,0.1-0.3,0.1-0.5,0.2c-0.3,0.1-0.5,0.1-0.7,0.1c-0.3,0.1-0.6,0.1-1,0.2c-6.7,0.7-13.4,0.2-20.1,0.2
		c-0.4-0.1-0.9-0.1-1.4-0.1c-0.4-0.1-0.8-0.1-1.2-0.1c-0.4-0.1-0.7-0.1-1.1-0.2c-1.1,0-2.4-0.2-2.9-1.2c-0.1-0.3-0.1-0.5-0.2-0.7
		c-3-8.4-5-17.3-6.2-26.1c-0.4-1.3-0.7-2.6-0.9-4c-0.1-0.2-0.1-0.3-0.2-0.5c0.1-0.5-0.1-0.7-0.6-0.7c-0.3,0-0.5,0-0.8-0.1
		c-1.4-0.2-2.8-0.2-4.1-0.2c-2-0.2-7.5-0.5-10.1,0.6c-0.2,0.1-0.4,0.2-0.5,0.3v0.1c-0.1,0.1-0.1,0.3-0.1,0.4
		c-0.1,0.2-0.1,0.4-0.1,0.6c-0.4,1.3-0.7,2.7-0.9,4.1c-0.1,0.4-0.2,0.9-0.3,1.3c-0.1,0.5-0.3,1-0.4,1.5c-0.6,4.6-2.8,15-4.7,20.5
		c-0.1,0.4-0.2,0.7-0.3,1c-0.1,0.3-0.1,0.6-0.2,0.9c-0.1,0.3-0.2,0.5-0.3,0.8c-0.1,0.2-0.1,0.3-0.2,0.5c0,0.1,0,0.2-0.1,0.3
		c-0.1,0.1-0.2,0.2-0.3,0.2c-0.2,0.1-0.4,0.1-0.6,0.2c-1.9,0.3-3.8,0.6-5.7,0.9c-1.6,0.1-3.2,0.2-4.8,0.3c-3.3,0.4-6.7,0.1-10,0.1
		c-0.5-0.1-1-0.1-1.4-0.1c-0.4-0.1-0.9-0.1-1.3-0.1c-0.3-0.1-0.7-0.1-1.1-0.2c-0.8-0.1-1.6-0.3-2.3-0.6
		C243.8,694.3,243.7,694.2,243.7,694z M293.1,650.4c0.1-0.1,0-0.3-0.1-0.6c-0.1-0.2-0.1-0.4-0.1-0.6c-1.3-4.9-2.3-10.2-3-15.2
		c-0.4-1.4-0.6-2.8-0.8-4.2c-0.7-2.8-1-5.7-1.4-8.5c-0.2-0.4-0.3-0.9-0.2-1.4c-0.7-0.1-0.9,0.4-0.7,1.4c-0.1,0.4-0.2,0.9-0.3,1.4
		c-0.3,2-0.7,3.9-1.1,5.9c-0.1,0.4-0.2,0.9-0.3,1.4c-0.1,0.5-0.2,1-0.3,1.5c-0.1,0.4-0.2,0.9-0.3,1.4c-0.1,0.5-0.2,1-0.3,1.4
		c-0.1,0.5-0.2,1-0.3,1.4c-0.1,0.4-0.2,0.9-0.3,1.4c-0.1,0.4-0.1,0.9-0.2,1.3c-0.3,1.3-0.6,2.5-0.8,3.8c-1,3-3.4,8.8,1.2,8.8
		c1.6,0,3.1-0.1,4.7-0.2c0.5-0.1,1-0.1,1.5-0.2c0.4,0,0.8,0,1.2-0.1C292,650.6,292.6,650.5,293.1,650.4
		C293.2,650.2,293,650.5,293.1,650.4z"/>
</g>
<g enable-background="new    ">
	<path fill="#020202" d="M584.1,582.1c1.2,0.5,2.3,1.1,3.4,1.8c0.3,0.2,0.6,0.4,1,0.8c0.3,0.3,0.6,0.5,0.9,0.8
		c1.4,1.5,2.5,3.1,3.5,4.9c0.1,0.3,0.3,0.7,0.4,1c0.2,0.4,0.3,0.8,0.4,1.1c0.6,1.9,0.7,3.9,0.5,5.8c-0.1,0.4-0.2,0.8-0.3,1.1
		c-0.3,1.6-0.9,3.1-1.7,4.5c-0.2,0.4-0.4,0.7-0.7,1c-1.3,2-3.1,3.8-5.2,4.9c-0.3,0.2-0.7,0.4-1.1,0.6c-0.3,0.2-0.7,0.4-1.1,0.6
		c-2.4,0.8-4.9,1.3-7.4,1.4c-0.4-0.1-0.8-0.1-1.2-0.1c-1.7-0.2-3.4-0.7-5-1.4c-0.4-0.3-0.8-0.5-1.2-0.8c-0.3-0.2-0.6-0.4-1-0.8
		c-0.3-0.3-0.6-0.5-0.9-0.9c-2.3-2.2-4.1-6-4.1-9.1c-0.1-0.4-0.1-0.9-0.2-1.2c-0.1-1.2,0-2.4,0.1-3.6c0.1-0.4,0.2-0.8,0.3-1.1
		c0.3-1.1,0.7-2.2,1.2-3.2c0.6-1.1,1.2-2,2-2.9c0.3-0.3,0.5-0.6,0.8-1c0.3-0.3,0.5-0.5,0.9-0.9c0.9-0.8,1.9-1.5,3-2.1
		c0.3-0.2,0.7-0.4,1.1-0.6C575.5,580.8,580.9,580.5,584.1,582.1C584.9,582.3,583.7,581.9,584.1,582.1z M568.5,626.9
		c0,0.1,0,0.2-0.1,0.3c-0.1,0.5-0.2,1-0.4,1.4c0,0.3,0,0.5-0.1,0.7c-0.1,0.3-0.1,0.5-0.1,0.8c-2.4,8.4-1.9,18-2.9,26.6
		c0,1.8-0.2,3.5-0.4,5.2c0,0.6,0,1.1-0.1,1.7c-0.2,2.8-0.2,5.7-0.5,8.5c0,0.5,0,1-0.1,1.6c0,0.5,0,1,0,1.6c-0.6,4.9,0,10,0,14.9
		c0.1,0.3,0.1,0.5,0.1,0.8c0.1,0.2,0.1,0.4,0.1,0.7c0.1,0.2,0.1,0.4,0.1,0.6c0.1,0.2,0.1,0.3,0.2,0.5c0.1,0.6,0.5,1,1.1,1
		c1.6,0.7,3.5,0.7,5.3,1c0.4,0,0.9,0,1.3,0.1c0.5,0,1,0,1.5,0.1c0.5,0,1,0,1.5,0.1c4,0,8.2,0.4,12.2-0.2c0.4,0,0.8,0,1.2-0.1
		c-0.2,0,3.7-0.2,3.7-0.7c0.1-0.1,0.2-0.1,0.3-0.2c0.1-0.1,0.1-0.3,0.1-0.4c0.3-0.8,0.5-1.6,0.7-2.4c0-0.3,0-0.5,0.1-0.9
		c0-0.3,0-0.6,0.1-0.9c0-0.4,0-0.7,0.1-1c0-0.3,0-0.7,0.1-1c0-0.4,0-0.8,0-1.1c0.7-7.6,0-15.2,0-22.8c-0.1-1.7-0.2-3.5-0.3-5.2
		c0-0.6,0-1.1,0-1.7c-0.1-0.6-0.1-1.1-0.1-1.7c-0.1-0.6-0.1-1.1-0.1-1.6c-0.1-0.6-0.1-1.1-0.1-1.7c-0.1-0.6-0.1-1.1-0.1-1.7
		c-0.1-0.5-0.1-1-0.1-1.6c-0.1-0.5-0.1-1-0.1-1.6c-0.1-0.5-0.1-1-0.2-1.5c0-0.5,0-1-0.1-1.5c0-0.5,0-1-0.1-1.5
		c0-1.4-0.2-2.7-0.4-4.1c0-0.4,0-0.9-0.1-1.3c0-1.2-0.1-2.3-0.4-3.4c0-0.3,0-0.6-0.1-1c-0.1-0.9-0.2-1.7-0.3-2.6
		c-0.1-0.2-0.1-0.4-0.2-0.7c0-0.2,0-0.4-0.1-0.6c0-0.1,0-0.3-0.1-0.5c0-0.3-0.1-0.5-0.3-0.7c-0.1-0.1-0.3-0.2-0.5-0.3
		c-2.4-0.7-4.8-1.1-7.2-1.1c-0.5,0-1,0-1.5-0.1c-0.6,0-1.2,0-1.7,0c-2.1-0.1-4.2-0.1-6.2,0.1c-1.8-0.2-3.3,0.2-4.7,1
		C568.6,626.8,568.5,626.8,568.5,626.9C568.5,626.9,568.5,626.8,568.5,626.9C568.5,626.9,568.5,626.8,568.5,626.9z"/>
	<path fill="#020202" d="M597.7,627.9c0.1-0.1,0.3-0.2,0.4-0.3c0.8-0.3,1.6-0.5,2.5-0.5c1.3-0.1,2.7-0.3,4-0.5c0.5,0,1,0,1.5,0
		c4.2-0.2,8.6-0.5,12.8,0.1c0.4,0,0.8,0,1.2,0.1c1.2,0,2.2,0.2,3.3,0.7c0.1,0.1,0.1,0.2,0.2,0.3c0.1,0.1,0.2,0.2,0.3,0.3
		c0.5,0.9,0.8,1.8,0.9,2.8c1.2,5,1.9,10.2,2.5,15.2c0.1,0.5,0.2,1,0.3,1.5c0.1,0.5,0.3,1,0.4,1.5c0.6,3.4,1.4,6.8,2.3,10.1
		c0.4,0.6,0.6,1.1,0.6,1.7c-0.1,1,0.1,1.6,0.6,1.8c0.3,0.1,0.5-0.3,0.7-1.3c1.2-2.3,2.4-4.6,3.5-6.9c3.6-7.2,7.5-14.7,10.1-22.3
		c0.1-0.3,0.3-0.5,0.5-0.9c0.4-1.3,1.1-2.4,1.9-3.4c0.5-0.7,0.9-0.9,1.6-0.9c0.1,0.1,0.2,0.2,0.3,0.3c0.8,0.8,1.4,1.6,2,2.6
		c0.2,0.3,0.4,0.5,0.5,0.8c0.2,0.3,0.4,0.6,0.5,0.9c2.4,3.6,4,7.8,6.1,11.5c0.1,0.2,9.7,19.5,9.9,19.4c0.5-1.7,1-3.3,1.3-5
		c0.3-1.7,0.6-3.3,1.1-4.9c0.4-4,1.3-8,1.3-12c0.1-0.4,0.1-0.8,0.2-1.2c0-0.4,0-0.9,0.1-1.3c0-0.4,0-0.8,0-1.1
		c0.1-0.4,0.1-0.8,0.1-1.1c0.1-0.4,0.1-0.8,0.1-1.1c0.1-0.3,0.1-0.6,0.1-1c0.1-0.3,0.1-0.6,0.1-1c0.1-0.3,0.1-0.6,0.1-1
		c0.1-0.3,0.1-0.5,0.1-0.8c0.1-0.3,0.1-0.5,0.1-0.8c0.1-0.3,0.1-0.5,0.2-0.7c0.1-0.6,0.3-1.8,1-2.1c1.4-0.5,2.8-0.8,4.2-0.9
		c3.6-0.3,7.2,0,10.8,0c0.6,0.1,1.1,0.1,1.6,0.1c0.5,0.1,1,0.1,1.5,0.2c2.2,0,5.4,0.5,7.6,1.2c0.1,0.1,0.3,0.1,0.4,0.2
		c0,0.1,0,0.1,0.1,0.1c0,0.1,0,0.2,0,0.3c1.3,3.5,0.1,7.8,0.1,11.5c-0.1,1.2-0.2,2.5-0.3,3.7c0,0.4,0,0.9-0.1,1.3
		c-0.5,7.3-1.1,15.2-2.9,22.4c-0.1,0.5-0.2,1-0.3,1.5c-0.1,0.5-0.2,1-0.3,1.5c-0.2,1.5-0.5,3.1-1,4.6c-0.5,4.1-2.4,10.6-4.5,14.7
		c-0.1,0.4-0.3,0.8-0.5,1.1c-0.2,0.3-0.4,0.7-0.5,1c-0.2,0.3-0.4,0.7-0.6,1c-0.1,0.3-0.3,0.6-0.5,1c-0.1,0.1-0.2,0.1-0.3,0.2
		c-0.2,0.1-0.4,0.2-0.5,0.3c-0.3,0.1-0.5,0.1-0.7,0.2c-2,0.3-4,0.6-6,0.9c-0.4,0-0.9,0-1.4,0.1c-0.6,0-1.1,0-1.6,0.1
		c-0.6,0-1.1,0-1.6,0c-3.9,0.3-7.8,0-11.6,0c-0.5-0.1-1-0.1-1.4-0.1c-0.4-0.1-0.9-0.1-1.3-0.1c-1.1-0.1-2.1-0.3-3.2-0.6
		c-1.2-0.2-1.9-0.9-2.2-2c-1.4-2.2-2.6-4.5-3.6-6.9c-0.1-0.3-0.3-0.7-0.5-1c-0.8-1.9-1.7-4-2.1-6.1c-0.1-0.4-0.3-0.7-0.4-1
		c-0.1-0.4-0.2-0.7-0.3-1c-0.1-0.4-0.2-0.8-0.3-1.1c-0.1-0.4-0.1-0.8-0.2-1.1c-0.1-0.4-0.2-0.8-0.3-1.1c-0.3-0.4-0.4-0.9-0.3-1.2
		c0.1-0.8,0-1.2-0.3-1.2c-0.7,1.9-1.2,3.9-1.7,5.9c-0.1,0.4-0.3,0.7-0.4,1c-0.4,1.1-0.8,2.2-1.2,3.3c-0.4,1.1-0.9,2.1-1.3,3.1
		c-0.2,0.4-0.4,0.7-0.5,1c-0.2,0.4-0.4,0.7-0.6,1c-0.2,0.4-0.4,0.8-0.6,1.1c-1.2,2.2-2.5,5-4.3,6.8c-1.5,0.4-3,0.6-4.5,0.9
		c-0.4,0-0.9,0-1.3,0.1c-0.5,0-1,0-1.4,0.1c-0.6,0-1.1,0-1.6,0c-3.5,0.4-10.7,0.3-15.1-0.2c-1.3,0-2.6-0.1-3.9-0.4
		c-1.4,0.3-2.5,0-3.3-0.9c-3-5-3.9-11.3-5.3-16.9c-0.1-0.5-0.2-1-0.3-1.5c-0.3-1.5-0.6-3-0.9-4.5c-0.1-0.5-0.2-1-0.3-1.6
		c-0.4-1.5-0.6-3.1-0.8-4.7c-1.8-7-2.7-15-2.7-22.3c-0.1-0.4-0.1-0.8-0.1-1.2c-0.1-0.4-0.1-0.9-0.1-1.2c-0.1-0.4-0.1-0.9-0.1-1.2
		C597.2,636.4,595.9,629.6,597.7,627.9C597.6,628,597.6,627.9,597.7,627.9C597.8,627.8,597.6,627.9,597.7,627.9
		C597.8,627.8,597.6,627.9,597.7,627.9z"/>
	<path fill="#020202" d="M745.5,685.9c-0.1-0.3-0.3,0-0.6,0.9c-0.1,0.3-0.4,0.5-0.7,0.8c-0.7,0.7-1.3,1.3-2,2
		c-0.7,0.7-1.4,1.3-2.2,1.8c-1.6,0.8-2.9,2-4.7,2.5c-0.3,0.1-0.5,0.3-0.9,0.4c-0.3,0.1-0.5,0.1-0.8,0.2c-1.4,0.4-2.8,0.7-4.2,0.9
		c-0.9,0.1-1.7,0.1-2.6,0.1c-0.8,0.1-1.7,0-2.5-0.1c-0.3-0.1-0.6-0.1-0.9-0.2c-1.8,0-3.3-0.9-5-1.3c-0.3-0.1-0.5-0.3-0.9-0.4
		c-1.1-0.4-2.1-1-3.1-1.6c-0.3-0.2-0.5-0.3-0.8-0.5c-0.3-0.2-0.5-0.4-0.8-0.6c-1.6-0.8-3-2.3-4.2-3.6c-0.2-0.3-0.4-0.5-0.7-0.8
		c-0.8-1-1.5-2-2.3-3c-0.2-0.3-0.4-0.6-0.6-0.9c-0.1-0.3-0.3-0.6-0.5-0.9c-0.2-0.3-0.4-0.6-0.5-1c-1.3-2.2-2-4.6-2.8-6.9
		c-0.1-0.4-0.1-0.7-0.2-1c-0.5-1.9-0.9-3.9-1-5.9c0-0.4,0-0.8-0.1-1.2c0-2.2,0-4.3,0.2-6.5c0.1-2,0.3-3.9,0.9-5.8
		c0.4-2,1-3.9,1.6-5.8c0.8-2.2,1.8-4.2,3-6.2c0.2-0.4,0.4-0.7,0.7-1c0.3-0.4,0.5-0.7,0.8-1c1.4-2.1,3-3.9,5-5.3
		c1.6-1.6,3.7-2.9,5.8-3.7c0.3-0.2,0.7-0.3,1.1-0.5c0.3-0.1,0.6-0.3,1-0.5c0.4-0.1,0.7-0.3,1.1-0.4c2.4-0.7,5-1.4,7.5-1.4
		c1.8-0.1,3.5-0.1,5.3,0.1c3.2,0,6.2,1.4,9,2.6c0.9,0.4,1.8,0.9,2.6,1.5c0.9,0.5,1.7,1.1,2.4,1.8c0.1-1.7,0.3-3.3,0.8-4.9
		c0-0.3,0.1-0.4,0.3-0.6c0.7-0.2,1.3-0.4,2-0.4c3.6-0.2,7.2-0.1,10.9,0.1c3.1,0,6,0.5,8.9,1.3c0.1,0.1,0.3,0.3,0.4,0.4l0.1,0.1
		c-0.1,1.7-0.1,3.5-0.1,5.2c-0.2,1.2-0.2,2.3-0.2,3.5c-0.2,1.4-0.2,2.9-0.2,4.3c-0.2,1.6-0.2,3.2-0.2,4.9c-0.7,7.1,0,14.4,0,21.5
		c0.1,1.7,0.2,3.5,0.3,5.2c0,0.6,0,1.1,0,1.7c0.1,0.5,0.1,1,0.1,1.5c0.1,0.5,0.1,1,0.1,1.5c0.1,0.5,0.1,1,0.1,1.4
		c0.1,0.5,0.1,1,0.1,1.4c0.1,0.4,0.1,0.9,0.1,1.3c0.1,1.2,0.2,2.3,0.3,3.5c0,0.4,0,0.7,0,1c0.2,2.4,0.2,4.5,0.2,6.9
		c-0.1,0.3-0.3,0.4-0.6,0.5c-0.3,0.1-0.5,0.1-0.7,0.1c-0.3,0.1-0.6,0.1-1,0.2c-0.3,0-0.7,0-1.1,0.1c-0.4,0-0.9,0-1.2,0
		c-4.3,0.2-8.7,0.2-13-0.1c-0.6,0-1.1,0-1.6,0c-0.4-0.1-0.9-0.1-1.4-0.1c-0.4-0.1-0.9-0.1-1.3-0.1c-0.4-0.1-0.8-0.1-1.2-0.1
		c-0.3-0.1-0.6-0.1-1-0.2c-0.3,0-0.5,0-0.8-0.1c-0.2-0.1-0.4-0.1-0.6-0.1c-0.1-0.1-0.2-0.1-0.3-0.2c-0.2-0.2-0.3-0.4-0.4-0.7
		c-0.1-0.3-0.2-0.5-0.3-0.8c-0.1-0.4-0.2-0.7-0.2-1c-0.1-0.4-0.1-0.9-0.1-1.2c0.1-0.4,0.1-0.9,0.1-1.4c-0.1-0.5-0.1-1,0-1.5
		C745.6,686.9,745.7,686.3,745.5,685.9C745.5,685.6,745.7,686.3,745.5,685.9C745.5,685.6,745.7,686.3,745.5,685.9z M736.4,649.2
		c-5.4-0.6-9.6,3.2-11,8.3c-0.6,3.3-0.2,5.5,1.5,8.4c2.8,4.2,8.4,5.7,13.1,3.3c0.4-0.3,0.8-0.5,1.2-0.8c0.4-0.2,0.7-0.4,1.1-0.8
		c3.7-2.8,4.7-7.7,3.3-11.9c-0.2-0.4-0.4-0.8-0.6-1.1c-0.2-0.3-0.4-0.7-0.7-1c-0.8-1-1.7-1.8-2.8-2.5
		C739.9,650.1,738.2,649.5,736.4,649.2C735.6,649.1,736.9,649.3,736.4,649.2z"/>
</g>
<path fill="#F1CC5A" d="M522.2,736.9H368.9c-12.8,0-23.2-10.4-23.2-23.2v-128c0-12.8,10.4-23.2,23.2-23.2h153.3
	c12.8,0,23.2,10.4,23.2,23.2v128C545.4,726.5,535,736.9,522.2,736.9z"/>
<path fill="#FFEDBB" d="M510.8,722.1H380.3c-12.8,0-23.2-10.4-23.2-23.2V601c0-12.8,10.4-23.2,23.2-23.2h130.6
	c12.8,0,23.2,10.4,23.2,23.2v97.9C534,711.7,523.6,722.1,510.8,722.1z"/>
</svg>
