<?xml version="1.0" encoding="utf-8"?>
<!-- Generator: Adobe Illustrator 18.0.0, SVG Export Plug-In . SVG Version: 6.00 Build 0)  -->
<!DOCTYPE svg PUBLIC "-//W3C//DTD SVG 1.0//EN" "http://www.w3.org/TR/2001/REC-SVG-20010904/DTD/svg10.dtd">
<svg version="1.0" id="Camada_1" xmlns="http://www.w3.org/2000/svg" xmlns:xlink="http://www.w3.org/1999/xlink" x="0px" y="0px"
	 viewBox="0 0 1024 768" enable-background="new 0 0 1024 768" xml:space="preserve">
<image overflow="visible" enable-background="new    " width="1500" height="1500" xlink:href="../../../Desenhos Jogo Yegatu/png2/ãdira.png"  transform="matrix(0.5971 0 0 0.5971 54.4443 -183.6408)">
</image>
<path fill="#020202" d="M300.1,558.1c-5.1,0-9,12.3-17.4,11.8c-8.3-0.5-8.3-7.4-8.3-10.2c0-5.8,5.8-15.3,8.8-18.8
	c3-3.5,7.7-8.1,16.5-8.1c12.3,0,14.6,12.5,24.6,12.5c5.6,0,10-15.3,20.6-15.3c19,0,6.3,20.4,4.4,23.7c-3.2,5.1-12.5,17.9-25.3,17.9
	C311.2,571.8,308.9,558.1,300.1,558.1"/>
<g enable-background="new    ">
	<path fill="#020202" d="M273.8,694L273.8,694c0-0.4-0.1-0.9,0.1-1.1c0-0.2,0-0.3,0.1-0.5c0-0.1,0-0.3,0-0.5
		c0.1-0.2,0.1-0.4,0.2-0.6c0.1-0.4,0.1-0.8,0.2-1.2c0.4-1.3,0.7-2.7,1-4c0.2-0.6,0.4-1.3,0.6-1.9c0.1-0.3,0.1-0.7,0.2-1
		c0.1-0.3,0.2-0.7,0.3-1c0.1-0.4,0.2-0.8,0.3-1.1c0.1-0.4,0.3-0.8,0.4-1.1c0.2-0.8,0.4-1.6,0.6-2.4c0.2-0.9,0.5-1.7,0.8-2.6
		c0.3-2.3,1.2-4.7,1.8-6.9c0.6-1.5,0.9-3,1.2-4.5c0.3-1,0.6-2,1-3c0.1-0.6,0.3-1.1,0.4-1.6c0.3-1.1,0.6-2.1,1-3.1
		c0.1-0.6,0.3-1.1,0.4-1.6c0.2-0.6,0.4-1.1,0.5-1.7c0.2-0.5,0.4-1,0.5-1.6c0.2-0.5,0.4-1,0.5-1.6c0.2-0.6,0.4-1.1,0.5-1.7
		c0.2-0.5,0.4-1,0.5-1.6c0.2-0.6,0.4-1.1,0.5-1.7c0.2-0.5,0.4-1,0.5-1.6c0.2-0.6,0.4-1.1,0.5-1.7c0.2-0.6,0.4-1.1,0.5-1.6
		c0.2-0.6,0.4-1.1,0.5-1.7c0.2-0.6,0.4-1.1,0.5-1.7c0.2-0.5,0.4-1,0.6-1.6c0.1-0.6,0.3-1.1,0.5-1.7c0.1-0.6,0.3-1.1,0.5-1.6
		c0.1-0.6,0.3-1.1,0.5-1.7c0.1-0.5,0.3-1,0.5-1.6c0.1-0.6,0.3-1.1,0.5-1.6c0.1-0.6,0.3-1.1,0.5-1.6c0.1-0.6,0.3-1.1,0.5-1.6
		c0.1-0.6,0.3-1.1,0.5-1.6c0.1-0.5,0.3-1,0.5-1.6c0.1-0.5,0.3-1,0.4-1.5c0.2-0.5,0.4-1,0.5-1.5c0.3-1,0.6-2,1-3
		c0.1-0.5,0.3-1,0.4-1.5c0.3-0.9,0.6-1.9,0.9-2.9c0.8-1.7,1-3.7,1.7-5.4c0.4-1.3,0.8-2.5,1.2-3.8c0.2-1.2,0.8-2.2,1-3.4
		c0.1-0.3,0.3-0.7,0.4-1c0.1-0.3,0.2-0.6,0.3-1c0.1-0.4,0.2-0.7,0.3-1c0.1-0.3,0.2-0.6,0.3-0.9c0.1-0.3,0.2-0.6,0.3-1
		c0.2-0.5,0.4-1.1,0.6-1.6c0.1-0.5,0.3-0.9,0.5-1.3c0.1-0.6,0.3-1.2,0.6-1.7c0-0.3,0.1-0.6,0.3-0.9c0-0.1,0-0.3,0.1-0.4
		c0.1-0.1,0.1-0.2,0.1-0.3c0.1-0.1,0.1-0.3,0.2-0.4v-0.1c0.1-0.1,0.3-0.1,0.4-0.2c0.2-0.1,0.4-0.1,0.6-0.2c0.3-0.1,0.5-0.1,0.9-0.1
		c0.3-0.1,0.6-0.1,1-0.2c0.4,0,0.9,0,1.2-0.1c0.4,0,0.9,0,1.3-0.1c0.5,0,1,0,1.5-0.1c1.1,0,2.2,0,3.3-0.1c1.7,0,3.4,0,5.1,0
		c1.6,0.2,3.2,0,4.8,0.2c0.4,0,0.9,0,1.3,0.1c0.4,0,0.9,0,1.2,0c0.4,0.1,0.7,0.1,1.1,0.1c0.3,0.1,0.6,0.1,0.9,0.1
		c0.2,0.1,0.4,0.1,0.7,0.2c0.1,0,0.3,0,0.4,0.1v0.1c0.1,0,0.1,0,0.1,0.1c0.1,0.1,0.1,0.1,0.1,0.2c0.1,0.1,0.1,0.2,0.1,0.3
		c0.1,0.1,0.1,0.2,0.2,0.3c0,0.1,0,0.3,0.1,0.4c0.1,0.2,0.1,0.3,0.2,0.5c0.2,0.6,0.4,1.1,0.6,1.7c0.1,0.3,0.1,0.5,0.2,0.7
		c0.2,0.5,0.4,1,0.6,1.5c0.1,0.3,0.1,0.6,0.2,0.9c0.1,0.3,0.2,0.6,0.3,1c0.1,0.3,0.2,0.6,0.3,1c0.1,0.3,0.3,0.6,0.4,1
		c0.2,0.7,0.4,1.4,0.6,2.1c0.4,1.2,0.9,2.3,1.1,3.5c0.6,1.7,1,3.4,1.5,5.1c0.6,1.3,0.8,2.8,1.2,4.2c0.3,1,0.6,2,0.9,2.9
		c0.3,1,0.6,2,1,3c0.1,0.5,0.3,1,0.4,1.6c0.2,0.5,0.4,1,0.5,1.5c0.3,1.1,0.6,2.2,1,3.2c0.1,0.5,0.3,1,0.5,1.6
		c0.1,0.6,0.3,1.1,0.5,1.6c0.1,0.6,0.3,1.1,0.5,1.7c0.1,0.5,0.3,1,0.5,1.6c0.1,0.6,0.3,1.1,0.4,1.7c0.2,0.6,0.4,1.1,0.5,1.6
		c0.2,0.6,0.4,1.1,0.6,1.7c0.1,0.6,0.3,1.1,0.5,1.7c0.1,0.6,0.3,1.1,0.5,1.7c0.1,0.6,0.3,1.1,0.5,1.7c0.1,0.6,0.3,1.1,0.5,1.7
		c0.1,0.6,0.3,1.1,0.5,1.7c0.1,0.6,0.3,1.1,0.5,1.7c0.1,0.5,0.3,1,0.5,1.6c0.1,0.6,0.3,1.1,0.4,1.7c0.2,0.6,0.4,1.1,0.5,1.7
		c0.2,0.6,0.4,1.1,0.5,1.7c0.2,0.5,0.4,1,0.5,1.6c0.3,1.1,0.6,2.2,1,3.3c0.1,0.6,0.3,1.1,0.4,1.6c0.3,1.1,0.6,2.2,1,3.2
		c0.2,1.1,0.5,2.1,0.9,3.1c0.3,1,0.5,2,0.8,3c1,2.6,1.9,5.8,2.3,8.6c0.3,0.9,0.5,1.8,0.8,2.7c0.2,0.8,0.4,1.7,0.7,2.5
		c0.1,0.4,0.2,0.8,0.3,1.1c0.1,0.4,0.2,0.8,0.3,1.1c0.1,0.4,0.2,0.7,0.3,1c0.1,0.4,0.2,0.7,0.3,1c0.1,0.7,0.2,1.4,0.5,2
		c0.3,1.4,0.6,2.7,1,4.1c0.1,0.2,0.1,0.4,0.2,0.6c0,0.4,0.1,0.8,0.2,1.1c0.1,0.2,0.1,0.3,0.1,0.5c0,0.3,0.1,0.5,0.2,0.8
		c0,0.2-0.1,0.6,0.1,0.8h-0.1c-0.1,0.1-0.1,0.2-0.2,0.3c-0.1,0.1-0.3,0.1-0.5,0.2c-0.3,0.1-0.5,0.1-0.7,0.1c-0.3,0.1-0.6,0.1-1,0.2
		c-0.8,0.1-1.5,0.1-2.3,0.2c-1,0.1-1.9,0.1-2.9,0.2c-3.4,0-6.7,0-10.1,0c-1.1-0.1-2.2-0.1-3.3-0.2c-0.5,0-1,0-1.5,0
		c-0.4-0.1-0.9-0.1-1.4-0.1c-0.4-0.1-0.8-0.1-1.2-0.1c-0.4-0.1-0.7-0.1-1.1-0.2c-0.6,0-1.2-0.1-1.7-0.3c-0.4,0-0.7-0.2-1-0.5
		c-0.1-0.2-0.1-0.3-0.2-0.5c-0.1-0.3-0.1-0.5-0.2-0.7c-0.2-0.6-0.4-1.2-0.6-1.8c-0.2-0.8-0.4-1.7-0.7-2.5c-0.9-5.9-3.4-11.6-4-17.6
		c-0.3-0.9-0.5-1.9-0.7-2.9c-0.1-0.4-0.2-0.9-0.3-1.3c-0.3-1.1-0.4-2.2-0.8-3.2c0-0.3,0-0.5-0.1-0.8c-0.1-0.2-0.1-0.3-0.2-0.5
		c0.1-0.2,0-0.4-0.1-0.6c-0.1,0-0.3,0-0.5-0.1c-0.3,0-0.5,0-0.8-0.1c-0.9-0.1-1.7-0.1-2.6-0.2c-0.5,0-1,0-1.5,0
		c-2.1-0.3-4.5-0.2-6.6,0c-0.9,0-1.7,0.1-2.6,0.3c-0.3,0.1-0.5,0.2-0.9,0.3c-0.2,0.1-0.4,0.2-0.5,0.3v0.1c-0.1,0.1-0.1,0.3-0.1,0.4
		c-0.1,0.2-0.1,0.4-0.1,0.6c-0.2,0.9-0.4,1.9-0.7,2.9c-0.1,0.4-0.1,0.8-0.2,1.2c-0.1,0.4-0.2,0.9-0.3,1.3c-0.1,0.5-0.3,1-0.4,1.5
		c-0.6,4.5-2,9-3,13.4c-0.3,2-1.1,3.9-1.3,5.9c-0.1,0.4-0.3,0.9-0.4,1.2c-0.1,0.4-0.2,0.7-0.3,1c-0.1,0.3-0.1,0.6-0.2,0.9
		c-0.1,0.3-0.2,0.5-0.3,0.8c-0.1,0.2-0.1,0.3-0.2,0.5c0,0.1,0,0.2-0.1,0.3c-0.1,0.1-0.2,0.2-0.3,0.2c-0.2,0.1-0.4,0.1-0.6,0.2
		c-1.4,0.3-2.8,0.7-4.2,0.7c-0.4,0.1-0.9,0.1-1.4,0.2c-1.1,0.1-2.1,0.1-3.2,0.2c-0.5,0.1-1.1,0.1-1.6,0.1c-1.7,0.2-3.5,0-5.2,0.2
		c-1.1,0-2.2,0-3.3-0.1c-0.5,0-1,0-1.5,0c-0.5-0.1-1-0.1-1.4-0.1c-0.4-0.1-0.9-0.1-1.3-0.1c-0.3-0.1-0.7-0.1-1.1-0.2
		c-0.6,0-1.2-0.1-1.7-0.4c-0.2-0.1-0.4-0.1-0.6-0.2C274,694.3,273.9,694.2,273.8,694z M323.3,650.4c0.1-0.1,0-0.3-0.1-0.6
		c-0.1-0.2-0.1-0.4-0.1-0.6c-0.1-0.5-0.3-1-0.4-1.5c0-1.2-0.4-2.6-0.7-3.8c-0.4-1.1-0.5-2.3-0.7-3.4c-0.2-0.8-0.4-1.6-0.6-2.5
		c-0.1-0.9-0.3-1.8-0.5-2.7c-0.1-0.4-0.1-0.9-0.2-1.3c-0.2-0.9-0.4-1.8-0.6-2.8c-0.1-0.5-0.1-1-0.2-1.4c-0.2-0.9-0.4-1.9-0.5-2.9
		c-0.4-1.4-0.4-2.8-0.8-4.2c-0.1-0.5-0.1-1-0.2-1.4c-0.2-0.4-0.3-0.9-0.2-1.4c-0.1-1.8-0.3-1.8-0.4,0c0,0.4-0.1,0.9-0.3,1.4
		c-0.1,0.4-0.2,0.9-0.3,1.4c0,1.4-0.4,3-0.8,4.4c-0.1,0.5-0.2,1-0.3,1.5c-0.1,0.4-0.2,0.9-0.3,1.4c-0.1,0.5-0.2,1-0.3,1.5
		c-0.1,0.4-0.2,0.9-0.3,1.4c-0.1,0.5-0.2,1-0.3,1.4c-0.1,0.5-0.2,1-0.3,1.4c-0.1,0.4-0.2,0.9-0.3,1.4c-0.1,0.4-0.1,0.9-0.2,1.3
		c-0.2,0.9-0.4,1.7-0.6,2.6c-0.1,0.4-0.1,0.9-0.2,1.2c-0.4,1.1-0.4,2.3-0.8,3.4c-0.1,0.6-0.3,1.3-0.4,1.9c0,0.8-0.2,2-0.5,2.8
		c-0.4,0.9,1,0.6,1.4,0.7c0.4,0,0.9,0,1.3,0c1-0.1,2-0.1,3.1-0.1c0.6-0.1,1.1-0.1,1.6-0.1c0.5-0.1,1-0.1,1.5-0.2
		c0.4,0,0.8,0,1.2-0.1C322.2,650.7,322.8,650.6,323.3,650.4C323.3,650.2,323.1,650.5,323.3,650.4z"/>
</g>
<g enable-background="new    ">
	<path fill="#020202" d="M596.2,695.4c-0.2-0.1-0.3-0.3-0.3-0.5c-0.1-0.1-0.1-0.3-0.2-0.4c0-0.2,0-0.3-0.1-0.5
		c-0.1-0.2-0.1-0.4-0.1-0.7c-0.1-0.2-0.1-0.4-0.2-0.7c0-0.3,0-0.6-0.1-0.9c0-0.3,0-0.6,0-0.9c-0.1-0.3-0.1-0.7-0.1-1
		c-0.1-0.7-0.1-1.5-0.2-2.2c0-0.8,0-1.7-0.1-2.5c0-0.9,0-1.8,0-2.7c-0.5-4-0.1-8.2-0.1-12.2c0.2-2.1,0.1-4.2,0.1-6.3
		c0.2-1.5,0.1-3.1,0.1-4.6c0.1-1.1,0.1-2.2,0.1-3.3c0.1-1.1,0.1-2.2,0.1-3.3c0.1-1.1,0.1-2.2,0.2-3.3c0-0.6,0-1.1,0-1.7
		c0.1-1,0.1-2.1,0.2-3.1c0-0.6,0-1.1,0.1-1.6c0-0.5,0-1,0-1.5c0.1-0.4,0.1-0.9,0.1-1.4c0.1-0.5,0.1-1,0.1-1.4
		c0.1-0.9,0.1-1.8,0.2-2.7c0-0.4,0-0.9,0.1-1.2c0-0.4,0-0.8,0.1-1.1c0-0.4,0-0.8,0.1-1.1c0-0.3,0-0.6,0.1-1c0-0.3,0-0.6,0-1
		c0.1-0.3,0.1-0.5,0.1-0.8c0.1-0.3,0.1-0.5,0.1-0.8c0.1-0.2,0.1-0.4,0.1-0.6c0.1-0.2,0.1-0.4,0.1-0.6c0.1-0.1,0.1-0.3,0.1-0.4
		c0-0.2,0.1-0.3,0.2-0.4c0.1-0.1,0.3-0.2,0.4-0.3c0.3-0.1,0.5-0.1,0.7-0.2c2.1-0.4,4.4-0.9,6.5-0.9c0.6-0.1,1.1-0.1,1.6-0.2
		c0.6,0,1.2,0,1.7-0.1c0.6,0,1.1,0,1.6,0c1.6-0.2,3.2-0.2,4.8,0c0.4,0,0.9,0,1.3,0c0.4,0.1,0.8,0.1,1.2,0.1c0.7,0.1,1.5,0.3,2.1,0.6
		c0.2,0.2,0.4,0.4,0.6,0.6c0.2,0.3,0.4,0.5,0.6,0.8c0.4,0.6,0.8,1.3,1.1,2c0.2,0.4,0.4,0.9,0.5,1.3c0.3,0.6,0.4,1.1,0.3,1.6
		c-0.3,1-0.3,1.7,0,2c0.3,0.2,0.7-0.2,1.3-1.1c0.3-0.3,0.7-0.6,1.2-1c0.4-0.3,0.8-0.6,1.2-1c0.4-0.3,0.8-0.5,1.2-0.8
		c0.4-0.3,0.8-0.5,1.2-0.9c0.8-0.5,1.6-0.9,2.5-1.2c0.4-0.3,0.8-0.4,1.2-0.6c0.4-0.2,0.9-0.4,1.2-0.6c1.2-0.4,2.3-0.9,3.6-1
		c1.8-0.7,3.7-0.5,5.6-0.9c0.7,0,1.4,0,2.1,0.1c0.3,0,0.7,0,1.1,0.1c1.5,0,3.5,0.4,4.9,1c0.6,0.2,1.2,0.4,1.7,0.7
		c0.3,0.1,0.6,0.2,1,0.3c0.3,0.1,0.5,0.3,0.8,0.4c0.3,0.1,0.6,0.3,0.9,0.5c0.5,0.2,1.1,0.5,1.5,0.9c0.3,0.1,0.5,0.3,0.8,0.5
		c0.3,0.1,0.5,0.3,0.8,0.5c1.2,0.6,2.1,1.7,3.2,2.5c0.5,0.5,1.1,1.1,1.6,1.6c0.4,0.6,0.9,1,1.2,1.6c0.1,0.1,0.3,0.3,0.4,0.5
		c0.1,0.2,0.2,0.3,0.3,0.5c0.1,0.2,0.2,0.4,0.3,0.6c0.1,0.1,0.2,0.3,0.3,0.5c0.1,0.1,0.1,0.3,0.2,0.4c0.1,0.3,0.2,0.6,0.3,0.9
		c0.1,0.2,0.1,0.3,0.1,0.5c0.2,0.4,0.1,0.9,0.1,1.3c-0.1,0.1-0.1,0.2-0.1,0.3c-0.1,0.1-0.3,0.3-0.4,0.4c-0.1,0.1-0.3,0.3-0.4,0.4
		c-0.2,0.2-0.4,0.4-0.6,0.6c-0.3,0.3-0.5,0.5-0.7,0.7c-1,0.8-1.9,1.8-2.8,2.7c-0.4,0.4-0.7,0.7-1.1,1c-1.2,1.1-2.3,2.3-3.5,3.4
		c-0.8,0.7-1.6,1.4-2.3,2.2c-0.7,0.7-1.4,1.4-2.1,2c-0.3,0.3-0.7,0.5-1.1,0.9c-0.3,0.3-0.5,0.5-0.9,0.8c-0.3,0.2-0.5,0.4-0.8,0.7
		c-0.4,0.3-0.8,0.6-1.2,0.9c-0.1,0.1-0.3,0.1-0.4,0.1c-0.1,0.1-0.1,0.1-0.2,0c-0.3-0.4-0.6-0.8-0.9-1.1c-0.3-0.4-0.6-0.8-1-1.1
		c-0.3-0.3-0.6-0.7-1-1c-0.3-0.3-0.5-0.7-0.9-1c-0.3-0.3-0.6-0.6-1-1c-0.3-0.3-0.5-0.5-0.9-0.9c-0.6-0.5-1.3-1-1.9-1.5
		c-0.5-0.5-1.1-0.9-1.8-1.1c-0.6-0.3-1.3-0.6-1.9-0.9c-1-0.2-2-0.4-3-0.2c-0.4,0-0.7,0-1.1,0.1c-0.4,0.1-0.7,0.3-1.1,0.4
		c-0.3,0.1-0.6,0.2-0.9,0.4c-0.6,0.3-1.1,0.6-1.6,1c-0.5,0.4-1,0.9-1.3,1.4c-0.3,0.3-0.4,0.6-0.6,0.9c-0.2,0.3-0.4,0.6-0.6,1
		c-0.1,0.3-0.3,0.6-0.4,1c-0.2,0.4-0.3,0.7-0.4,1c-0.4,1.2-0.6,2.4-1,3.5c-0.2,0.8-0.3,1.7-0.3,2.6c-0.1,0.4-0.1,0.9-0.1,1.3
		c-0.1,0.9-0.1,1.8-0.2,2.8c0,1,0,1.9,0.1,2.9c0,0.4,0,0.9,0,1.4c0.1,0.4,0.1,0.9,0.1,1.4c0.1,0.4,0.1,0.9,0.1,1.4
		c0.1,0.4,0.1,0.9,0.1,1.4c0.2,0.9,0.2,1.8,0.3,2.8c0.3,2.6,0.8,5.3,1.2,7.9c0,1.4,0.4,2.9,0.7,4.3c0.1,0.6,0.1,1.1,0.2,1.7
		c0.1,0.3,0.1,0.5,0.1,0.8c0.1,0.3,0.1,0.5,0.1,0.7c0.1,0.2,0.3,1.9,0,1.9c-0.1,0.1-0.1,0.1-0.2,0.2c-0.4,0.1-0.8,0.1-1.2,0.2
		c-0.6,0.2-1.2,0.3-1.8,0.3c-0.4,0.1-0.9,0.1-1.2,0.2c-0.9,0.1-1.9,0.1-2.8,0.2c-0.5,0.1-1,0.1-1.5,0.2c-0.5,0-1.1,0-1.6,0.1
		c-0.6,0-1.1,0-1.6,0.1c-0.6,0-1.2,0-1.7,0.1c-0.6,0-1.2,0-1.7,0.1c-0.6,0-1.2,0-1.7,0.1c-0.6,0-1.2,0-1.7,0c-1.6,0.2-3.2,0-4.8,0.2
		c-0.5,0-1,0-1.4,0c-1.1-0.2-2.3,0-3.5-0.2c-0.3,0-0.6,0-0.9-0.1c-0.2,0-0.4,0-0.7-0.1C596.5,695.5,596.3,695.4,596.2,695.4
		C596.1,695.3,596.3,695.4,596.2,695.4z"/>
	<path fill="#020202" d="M709.3,685.9c-0.1-0.3-0.3,0-0.6,0.9c-0.1,0.3-0.4,0.5-0.7,0.8c-0.4,0.4-0.9,0.9-1.3,1.3
		c-0.3,0.3-0.5,0.5-0.7,0.7c-0.5,0.4-1,0.8-1.4,1.2c-0.3,0.2-0.5,0.4-0.8,0.6c-0.8,0.4-1.6,0.9-2.3,1.4c-0.5,0.3-1.1,0.5-1.6,0.8
		c-0.3,0.1-0.5,0.2-0.8,0.3c-0.3,0.1-0.5,0.3-0.9,0.4c-0.3,0.1-0.5,0.1-0.8,0.2c-0.9,0.4-2.4,0.8-3.4,0.8c-0.3,0.1-0.5,0.1-0.9,0.1
		c-0.6,0.1-1.1,0.1-1.7,0.1c-0.3,0.1-0.5,0.1-0.9,0c-0.5,0-1.1,0-1.6,0c-0.3-0.1-0.6-0.1-0.9-0.1c-0.3-0.1-0.6-0.1-0.9-0.2
		c-0.8,0-1.7-0.3-2.5-0.5c-0.6-0.2-1.2-0.4-1.7-0.6c-0.3-0.1-0.5-0.2-0.8-0.3c-0.3-0.1-0.5-0.3-0.9-0.4c-0.8-0.4-1.5-0.8-2.3-1.1
		c-0.3-0.2-0.5-0.3-0.8-0.5c-0.3-0.2-0.5-0.3-0.8-0.5c-0.3-0.2-0.5-0.4-0.8-0.6c-0.5-0.3-1-0.6-1.4-1c-0.7-0.5-1.6-1.2-2.1-1.9
		c-0.2-0.2-0.4-0.4-0.7-0.7c-0.2-0.3-0.4-0.5-0.7-0.8c-0.7-0.7-1.3-1.5-1.7-2.3c-0.2-0.3-0.4-0.5-0.6-0.8c-0.2-0.3-0.4-0.6-0.6-0.9
		c-0.1-0.3-0.3-0.6-0.5-0.9c-0.2-0.3-0.4-0.6-0.5-1c-0.3-0.6-0.7-1.2-1-1.8c-0.5-1.3-1.2-2.7-1.4-4.1c-0.1-0.3-0.3-0.7-0.4-1
		c-0.1-0.4-0.1-0.7-0.2-1c-0.5-1.5-0.6-3.1-0.9-4.7c0-0.4,0-0.8-0.1-1.2c0-0.4,0-0.8-0.1-1.2c0-1.7-0.1-3.5,0.1-5.1
		c0-0.4,0-0.9,0.1-1.3c0-1.4,0.3-2.8,0.5-4.2c0.1-0.6,0.3-1.1,0.4-1.6c0.2-1.4,0.6-3,1.2-4.4c0.1-0.5,0.3-1,0.5-1.4
		c0.5-1.7,1.3-3.6,2.3-5c0.2-0.4,0.4-0.8,0.7-1.1c0.2-0.4,0.4-0.7,0.7-1c0.3-0.4,0.5-0.7,0.8-1c1.2-1.7,2.6-3.1,4-4.6
		c0.3-0.3,0.6-0.5,1-0.8c0.6-0.5,1.2-1,1.8-1.4c0.9-0.7,1.9-1.2,2.9-1.8c0.4-0.2,0.7-0.3,1.1-0.5c0.3-0.2,0.7-0.3,1.1-0.5
		c0.3-0.1,0.6-0.3,1-0.5c0.4-0.1,0.7-0.3,1.1-0.4c0.7-0.2,1.4-0.4,2.1-0.6c1.3-0.4,2.9-0.8,4.3-0.8c0.3-0.1,0.7-0.1,1.1-0.1
		c1.3-0.2,3-0.2,4.2,0c0.4,0,0.7,0,1.1,0.1c1.1,0,2.1,0.3,3.2,0.5c1,0.4,2,0.6,3,1c0.7,0.2,1.3,0.4,1.9,0.7c0.3,0.2,0.6,0.3,1,0.5
		c0.6,0.3,1.2,0.6,1.7,1c0.3,0.2,0.6,0.4,0.9,0.6c0.6,0.3,1.1,0.7,1.6,1.1c0.4,0.7,0.7,0.9,0.8,0.7c0.2-1.2,0.4-2.5,0.5-3.7
		c0.1-0.4,0.2-0.8,0.3-1.2c0-0.3,0.1-0.4,0.3-0.6c0.3-0.2,0.7-0.3,1.1-0.3c0.3-0.1,0.6-0.1,1-0.1c2.8-0.5,6.2-0.3,9,0
		c0.6,0,1.2,0,1.8,0.1c2.5,0,5.9,0.2,8.3,1.1c0.3,0.1,0.5,0.1,0.7,0.2c0.1,0.1,0.3,0.3,0.4,0.4l0.1,0.1c0,1.3,0.2,2.9-0.1,4.2
		c0,0.4,0,0.7,0,1c-0.1,0.8-0.1,1.5-0.2,2.3c0,0.4,0,0.8,0,1.2c-0.1,0.9-0.1,1.8-0.2,2.8c0,0.5,0,1,0,1.5c-0.1,1.1-0.1,2.2-0.2,3.2
		c0,0.6,0,1.1,0,1.6c-0.2,1.8,0,3.7-0.2,5.5c0,2.7,0,5.5,0,8.2c0.2,2,0,3.9,0.2,5.9c0,0.6,0,1.3,0,1.9c0.1,1.2,0.1,2.4,0.2,3.6
		c0,0.6,0,1.1,0.1,1.6c0,0.6,0,1.1,0,1.7c0.1,0.5,0.1,1,0.1,1.5c0.1,0.5,0.1,1,0.1,1.5c0.1,0.5,0.1,1,0.1,1.4c0.1,0.5,0.1,1,0.1,1.4
		c0.1,0.4,0.1,0.9,0.1,1.3c0.1,0.8,0.1,1.6,0.2,2.4c0,0.4,0,0.8,0.1,1.1c0,0.4,0,0.7,0,1c0.1,0.6,0.1,1.3,0.2,1.9
		c0,0.5,0,1.1,0.1,1.6c0,0.8,0.3,2.4-0.1,3.1c0,0.1,0,0.2,0,0.3c0,0.1-0.1,0.2-0.2,0.3c-0.1,0.1-0.3,0.1-0.4,0.2
		c-0.3,0.1-0.5,0.1-0.7,0.1c-0.3,0.1-0.6,0.1-1,0.2c-0.3,0-0.7,0-1.1,0.1c-0.4,0-0.9,0-1.2,0c-3.6,0.4-7.8,0.4-11.3,0
		c-0.6,0-1.1,0-1.6-0.1c-0.6,0-1.1,0-1.6,0c-0.4-0.1-0.9-0.1-1.4-0.1c-0.4-0.1-0.9-0.1-1.3-0.1c-0.4-0.1-0.8-0.1-1.2-0.1
		c-0.3-0.1-0.6-0.1-1-0.2c-0.3,0-0.5,0-0.8-0.1c-0.2-0.1-0.4-0.1-0.6-0.1c-0.1-0.1-0.2-0.1-0.3-0.2c-0.2-0.2-0.3-0.4-0.4-0.7
		c-0.1-0.3-0.2-0.5-0.3-0.8c-0.1-0.4-0.2-0.7-0.2-1c-0.1-0.4-0.1-0.9-0.1-1.2c0.1-0.4,0.1-0.9,0.1-1.4c-0.1-0.5-0.1-1,0-1.5
		C709.4,686.9,709.4,686.3,709.3,685.9C709.2,685.6,709.4,686.3,709.3,685.9z M700.2,649.2c-0.8-0.1-1.7-0.1-2.5-0.1
		c-0.8,0.1-1.6,0.4-2.4,0.7c-1,0.5-2.2,1.3-3,2.2c-0.6,0.6-1.2,1.3-1.6,2c-0.4,0.7-0.8,1.5-1.2,2.3c-0.1,0.4-0.3,0.8-0.4,1.2
		c-0.2,1.3-0.3,2.5-0.3,3.8c0.2,1.1,0.6,2.6,1.2,3.5c0.3,0.4,0.5,0.7,0.7,1c0.9,1.4,2.1,2.5,3.6,3.3c2.3,1.8,5.8,1.5,8.3,0.5
		c0.4-0.1,0.9-0.3,1.2-0.5c0.4-0.3,0.8-0.5,1.2-0.8c0.4-0.2,0.7-0.4,1.1-0.8c0.7-0.5,1.3-1.2,1.8-1.9c0.8-1,1.3-2.3,1.7-3.4
		c0.1-0.9,0.3-1.8,0.4-2.7c0-0.9-0.1-1.8-0.3-2.7c-0.1-0.4-0.3-0.9-0.4-1.2c-0.2-0.4-0.4-0.8-0.6-1.1c-0.2-0.3-0.4-0.7-0.7-1
		c-0.6-0.6-1.2-1.1-1.7-1.7c-0.4-0.3-0.7-0.6-1.1-0.8c-0.8-0.5-1.6-0.9-2.4-1.2C701.9,649.6,701,649.4,700.2,649.2
		C699.8,649.2,700.6,649.3,700.2,649.2z"/>
</g>
<path fill="#F1CC5A" d="M554.7,736.9H401.4c-12.8,0-23.2-10.4-23.2-23.2v-128c0-12.8,10.4-23.2,23.2-23.2h153.3
	c12.8,0,23.2,10.4,23.2,23.2v128C577.9,726.5,567.4,736.9,554.7,736.9z"/>
<path fill="#FFEDBB" d="M543.3,722.1H412.8c-12.8,0-23.2-10.4-23.2-23.2V601c0-12.8,10.4-23.2,23.2-23.2h130.6
	c12.8,0,23.2,10.4,23.2,23.2v97.9C566.5,711.7,556.1,722.1,543.3,722.1z"/>
</svg>
