<?xml version="1.0" encoding="utf-8"?>
<!-- Generator: Adobe Illustrator 18.0.0, SVG Export Plug-In . SVG Version: 6.00 Build 0)  -->
<!DOCTYPE svg PUBLIC "-//W3C//DTD SVG 1.1//EN" "http://www.w3.org/Graphics/SVG/1.1/DTD/svg11.dtd">
<svg version="1.1" id="Camada_1" xmlns="http://www.w3.org/2000/svg" xmlns:xlink="http://www.w3.org/1999/xlink" x="0px" y="0px"
	 viewBox="0 0 1024 768" enable-background="new 0 0 1024 768" xml:space="preserve">
<g>
	<defs>
		<rect id="SVGID_1_" width="1024" height="768.1"/>
	</defs>
	<clipPath id="SVGID_2_">
		<use xlink:href="#SVGID_1_"  overflow="visible"/>
	</clipPath>
	
		<linearGradient id="SVGID_3_" gradientUnits="userSpaceOnUse" x1="215.9104" y1="594.0044" x2="217.7417" y2="594.0044" gradientTransform="matrix(-3.6179 -477.5661 -477.5661 3.6179 284970.2188 101441.4766)">
		<stop  offset="0" style="stop-color:#A2CBE5"/>
		<stop  offset="1" style="stop-color:#3595E9"/>
	</linearGradient>
	<polygon clip-path="url(#SVGID_2_)" fill="url(#SVGID_3_)" points="0.1,776.3 -5.5,0 1023.9,-8.3 1029.5,768 	"/>
</g>
<g opacity="0.68">
	<path opacity="0.7" fill="#BADFF4" d="M694.9,162.7c4,26,30.7,13.6,33.4,6.1c28.7,43.3,73.4,20.6,73.4,20.6s28.7,24,50.7-6
		c4,5.3,25.4,13.3,38.8-10c5.2,4,50.3,5.2,65,0.4c14.7-4.8,48.3-13.1-53.8-17.7c5.4-4,7.4-33.4-15.3-25.2c5.3-14.2-4-48.9-38-34.9
		c-6.7-36-86.1-34.7-84.7,18.7c-7.3-4.7-38,1.3-27.4,29.6c-7.3-5.6-18-7.6-23.4,5.1c-4.7-1.8-18.7-10-24.7,7.3
		C650.2,148.7,628.9,172.7,694.9,162.7z"/>
	<path fill="#FFFFFF" d="M881.1,140.9c5.3-14.2-4-48.9-38-34.9c-3.1-29.9-73.3-38.6-78.7,8.7c-5.8-1.4-10.9,5.6-6,10
		c-17.9-6.9-25.6,11.4-21.4,19.6c-2.4-1.8-8.1,4.6-6,10c-7.3-5.6-18-7.6-23.4,5.1c-4.5-1.7-17.2-9.1-23.7,4.8c3.4-0.4,7-0.8,11-1.5
		c4,26,30.7,13.6,33.4,6.1c28.7,43.3,73.4,20.6,73.4,20.6s28.7,24,50.7-6c4,5.3,25.4,13.3,38.8-10c5.2,4,50.3,5.2,65,0.4
		c1.5-0.5,3.2-1,5-1.6c-8.8-2.3-27.9-4.5-64.8-6.1C901.8,162,903.8,132.7,881.1,140.9z"/>
</g>
<g opacity="0.7">
	<path fill="#FFFFFF" d="M521.6,398.3c-2.2-0.9-3.4-10.3,4.5-8.2c2.2-33.6,45.3-14,34.9,8.2c23.3,13.2-6.3,45.1-19.7,21.3
		C508.1,426.9,515,397,521.6,398.3z"/>
	<path opacity="0.7" fill="#BADFF4" d="M542.5,415.5c-10.7,2.4-22.1,3.9-25.7-12.2c-4,14.7,10.8,21.6,24.6,16.3
		c7.1,12.5,18.7,9.5,24.6,2C556.5,424.4,547.5,424.4,542.5,415.5z"/>
</g>
<g opacity="0.7">
	<circle fill="#28798C" cx="252" cy="193.5" r="1"/>
	<path opacity="0.7" fill="#BADFF4" d="M113.1,183.9c-2.5-0.4,1.5-23.6,29.5-16.6c-2.4-40.4,65.8-30.8,63.8-7.6
		c30-7.7,32.4,14.5,31.4,21.8c20.3-5.3,24.7,15,24.7,15c28,2.9,13.1,30-2.9,22.7c0.5,13.5-19.8,17.4-28,10.2
		c-1,6.3-24.2,12.6-30-1.9c1,16-46.4,25.1-58-4.8c0.5,3.4-18.4,9.2-23.2-5.6C84.1,222.6,88,178.6,113.1,183.9z"/>
	<path fill="#FFFFFF" d="M107.3,186.8c-2.5-0.4,1.5-23.6,29.5-16.6c-2.4-40.4,65.8-30.8,63.8-7.6c30-7.7,32.4,14.5,31.4,21.8
		c20.3-5.3,24.7,15,24.7,15c28,2.9,13.1,30-2.9,22.7c0.5,13.5-19.8,17.4-28,10.2c-1,6.3-24.2,12.6-30-1.9c1,16-46.4,25.1-58-4.8
		c0.5,3.4-18.4,9.2-23.2-5.6C78.3,225.5,82.2,181.5,107.3,186.8z"/>
</g>
</svg>
