<?xml version="1.0" encoding="utf-8"?>
<!-- Generator: Adobe Illustrator 18.0.0, SVG Export Plug-In . SVG Version: 6.00 Build 0)  -->
<!DOCTYPE svg PUBLIC "-//W3C//DTD SVG 1.1//EN" "http://www.w3.org/Graphics/SVG/1.1/DTD/svg11.dtd">
<svg version="1.1" id="Camada_1" xmlns="http://www.w3.org/2000/svg" xmlns:xlink="http://www.w3.org/1999/xlink" x="0px" y="0px"
	 viewBox="0 0 1024 282" enable-background="new 0 0 1024 282" xml:space="preserve">
<polygon fill="#0B2D4C" points="1024,86.1 0,90.9 0,282 0,282 1023.9,282 1024,282 "/>
<polygon fill="#153D60" points="1024,98.2 0,103 0,282 0,282 1023.9,282 1024,282 "/>
<path opacity="0.48" fill="#F4F4F4" d="M1024,172.5H834.3c-5.8,11.8,57.5,8.4,56.5,19.9c-1,11.5-339.9,9.1-339.9,0
	c0-9.1,45.5-11.5,45.5-24.4H176.5c-7.2,16.4-16.5,24.7-16.5,24.7s-66.6-4-88.1,0c0-18.1,29.2-14.8,27.3-28H0v88.6v0h1023.9l0.1,0
	V172.5z"/>
<rect y="227.3" fill="#FFEDBB" width="1024" height="54.7"/>
<path fill="#1B7C09" d="M2.4,66.8c-0.9,0.5-1.7,1-2.4,1.5V282v0h206.4c-1.2-6-3.4-13-7.4-19.4c0.1-0.3,0.2-0.6,0.3-0.8
	c17.9,6.8,36.7,1.6,36.7,1.6s-0.1-0.1-0.3-0.4h0h0c-2-2.2-13.4-14.8-28.4-19.7c13.2-10.6,19.6-27.8,19.6-27.8s-13.2,1-26.1,8.2
	c-1.6-4.2-4-8.2-7.6-12c0-0.2,0-0.4,0-0.6c16.5,4.6,32.5,0.2,32.5,0.2s-0.1-0.1-0.3-0.4c-2-2.2-13.4-14.8-28.4-19.7
	c13.2-10.6,19.6-27.8,19.6-27.8s-20.3,1.4-35,14.5c2.2-8.9,1.7-17.6,0.5-24.5c12.2,1,22-1.6,22-1.6s-0.1-0.1-0.3-0.4l0,0h0
	c-2-2.2-13.4-14.8-28.4-19.7c13.2-10.6,19.6-27.8,19.6-27.8s-20.3,1.4-35,14.5c0.7-2.9,1.2-5.9,1.4-8.7c4.5-1.7,7.3-3.2,7.3-3.2
	s-0.1-0.1-0.4-0.3c-0.9-0.6-3.3-2.3-6.8-4.2c-0.7-12.1-4.6-21.4-4.6-21.4s-0.1,0.1-0.3,0.4l0,0c-1.2,1.4-5.9,7-9.9,14.8
	c-3.4-1-6.9-1.7-10.6-1.9c10.2-13.5,12.3-31.7,12.3-31.7s-13.2,4.3-24,14.9c-1.5-2.6-3.2-5-5.2-7.3c8.2-5.1,13.2-10.6,13.2-10.6
	s-0.2-0.1-0.4-0.1h0c-2.1-0.6-11.1-3.1-21.7-3c-2.4-4.5-4.5-7.3-4.5-7.3s-1.6,3-3.4,7.8c-1.6,0.2-3.3,0.5-4.9,1
	c5.5-16,1.8-33.9,1.8-33.9s-16.4,12-21.9,30.9c-3.1-9.6-9-17.3-14-22.5c1.4-6.1,1.6-10.4,1.6-10.4s-0.2,0.1-0.4,0.2
	c-1.1,0.5-4,1.8-7.8,4.1c-1.3-1-2.1-1.6-2.1-1.6s0,0.2-0.1,0.5c-0.1,0.5-0.2,1.4-0.3,2.7c-5.6,3.5-12.2,8.7-17,15.5
	C30.8,27.3,16.4,16,16.4,16s-4.8,19.7,3.2,37.7c-6.5-4-13.5-6.2-19.6-7.4V65C0.8,65.6,1.6,66.2,2.4,66.8z M170.4,151.3
	c-0.5,0.9-1.1,1.9-1.6,2.8c-0.8-1.5-1.6-2.9-2.6-4.3C167.6,150.4,169,150.9,170.4,151.3z"/>
<path fill="#1D5434" d="M3.2,187.5c2.4,4.7,3.5,6.4,6.4,9.4L0,215.3v11.3l13.8-28.3c3.3,0,5.4-0.4,10-1.6
	c6.1-1.7,43.1-23.9,52.6-28.7c-5.5-1.4-34.6-3.2-57,18.8l7-14.4c4.1,0.1,6.1-0.2,11.2-1.6c6.1-1.7,43.1-23.9,52.6-28.7
	c-5.6-1.5-36.7-3.3-59.3,21.2l6.6-13.5c4.4,0.1,6.4-0.2,11.7-1.6c6.1-1.7,43.1-23.9,52.6-28.7C96,118,63.9,116,41.3,141.9l8.5-17.5
	c0.1,0.1,0.1,0.1,0.2,0.2c0-0.2,0.1-0.3,0.1-0.5c4.9,0.1,6.8-0.1,12.4-1.6c6.1-1.7,43.1-23.9,52.6-28.7c-5.9-1.5-39.8-3.5-62.5,25
	l9.2-18.9c4.5,0.1,6.4-0.2,11.7-1.6c6.1-1.7,43.1-23.9,52.6-28.7c-5.8-1.5-38-3.4-60.6,22.6l5-10.2l-0.2-0.4c5.2-2,7.2-3,12.5-7.1
	c5.9-4.5,39.5-48.8,45-54.6C125.3,18.2,86.9,37,77.5,58s-9.2,24.4-9.2,24.4c0.3-0.1,0.6-0.2,1-0.4l-7.3,14
	C69.1,58.9,44,34.2,38.8,30.8c2.8,10.3,11.2,52.6,14,58.2c2.6,5.2,3.7,6.7,7.1,10.3c-0.1,0.2-0.2,0.3-0.4,0.5c0.1,0,0.2,0,0.3,0
	l-8.3,16c4.5-34.6-18.8-57.5-23.8-60.8c2.8,10.3,11.2,52.6,14,58.2c2.4,4.7,3.5,6.3,6.3,9.3l-9.8,18.9c4.5-34.7-18.8-57.6-23.8-60.9
	c2.8,10.3,11.2,52.6,14,58.2c2.4,4.7,3.5,6.4,6.3,9.3l-8,15.4C31.1,129.2,8,106.5,3,103.3c2.8,10.3,11.2,52.6,14,58.2
	c2.4,4.6,3.5,6.3,6.1,9.2l-10.2,19.7c3-21.9-5.2-39.2-12.9-49.8v36C1.3,181.9,2.4,186,3.2,187.5z"/>
<g>
	<path fill="#33720F" d="M161.3,152.8c-1.9-1.6-34.3,13.2-42.5,30.4s-8.2,20.1-8.2,20.1c0.3-0.1,0.5-0.2,0.8-0.3l-6.3,11.5
		c6.8-30.7-13.5-51.7-17.8-54.7c2.1,8.6,8.1,44,10.4,48.7c2.1,4.3,3,5.6,5.7,8.7c-0.1,0.1-0.2,0.3-0.3,0.4c0.1,0,0.2,0,0.2,0
		L96,230.7c4.5-28.7-14.4-48.2-18.5-51c2.1,8.6,8.1,44,10.4,48.7c1.9,3.9,2.8,5.4,5,7.9l-8.6,15.5c4.5-28.8-14.4-48.3-18.4-51.1
		c2.1,8.6,8.1,44,10.4,48.7c1.9,4,2.8,5.4,5,7.9l-7,12.6c4.3-28.5-14.4-47.9-18.5-50.7c2.1,8.6,8.1,44,10.4,48.7
		c1.9,3.9,2.8,5.3,4.9,7.8l-3.5,6.3h3.6l2.5-4.9c3.4,0.1,5-0.1,9.3-1.1c5.1-1.2,36.3-18.9,44.3-22.7c-4.7-1.3-30.5-3.6-49.8,16.3
		l5.8-11.1c3.7,0.2,5.3,0,9.7-1.1c5.1-1.2,36.3-18.9,44.3-22.7c-4.7-1.4-31.3-3.7-50.7,17.3l7.5-14.4c0.1,0.1,0.1,0.1,0.2,0.2
		c0-0.1,0.1-0.3,0.1-0.4c4.1,0.2,5.7,0.1,10.3-1c5.1-1.2,36.3-18.9,44.3-22.7c-4.9-1.4-33-3.8-52.5,19.4l8.1-15.5
		c3.7,0.2,5.3,0,9.8-1.1c5.1-1.2,36.3-18.9,44.3-22.7c-4.8-1.4-31.5-3.7-50.9,17.5l4.3-8.4l-0.2-0.4c4.4-1.5,6-2.4,10.6-5.6
		C127.8,193.5,156.6,157.5,161.3,152.8z"/>
	<path fill="#33720F" d="M76.9,282h24.5c6.1-3.3,11.4-6.1,14.1-7.4C111.6,273.5,93.8,271.8,76.9,282z"/>
	<path fill="#33720F" d="M43.8,240.5c1.6,6.7,5.6,29.4,8.4,41.5h10.7C62.6,258.6,47.4,243,43.8,240.5z"/>
</g>
<path fill="#0D4C26" d="M0,282h134.1c-0.5-4.6-1.9-10.8-5.4-16.5c0.1-0.2,0.1-0.4,0.2-0.6c11.8,4.5,24.1,1.1,24.1,1.1
	s-0.1-0.1-0.2-0.2h0c-1.3-1.5-8.8-9.7-18.7-12.9c8.7-7,12.9-18.3,12.9-18.3s-8.7,0.6-17.1,5.4c-1.1-2.7-2.7-5.4-5-7.9
	c0-0.1,0-0.2,0-0.4c10.9,3,21.3,0.1,21.3,0.1s-0.1-0.1-0.2-0.2c-1.3-1.5-8.8-9.7-18.7-12.9c8.7-7,12.9-18.3,12.9-18.3
	s-13.3,1-23,9.5c1.5-5.8,1.1-11.6,0.3-16.1c8,0.7,14.5-1.1,14.5-1.1s-0.1-0.1-0.2-0.2v0c-1.3-1.5-8.8-9.7-18.7-12.9
	c8.7-7,12.9-18.3,12.9-18.3s-13.3,1-23,9.5c0.5-1.9,0.8-3.9,0.9-5.7c3-1.1,4.8-2.1,4.8-2.1s-0.1-0.1-0.3-0.2
	c-0.6-0.4-2.2-1.5-4.5-2.7c-0.4-8-3-14-3-14s-0.1,0.1-0.2,0.2v0c-0.8,0.9-3.9,4.6-6.5,9.8c-2.2-0.6-4.5-1.1-6.9-1.3
	c6.7-8.9,8.1-20.8,8.1-20.8s-8.7,2.8-15.8,9.8c-1-1.7-2.1-3.3-3.4-4.8c5.4-3.3,8.7-6.9,8.7-6.9s-0.1,0-0.3-0.1h0
	c-1.4-0.4-7.3-2-14.3-2c-1.6-3-2.9-4.8-2.9-4.8s-1.1,2-2.3,5.1c-1.1,0.2-2.2,0.4-3.2,0.6c3.6-10.5,1.2-22.3,1.2-22.3
	s-10.8,7.9-14.4,20.3c-2-6.3-5.9-11.4-9.2-14.8c0.9-4,1-6.8,1-6.8s-0.1,0-0.3,0.1c-0.7,0.3-2.7,1.2-5.2,2.7c-0.9-0.7-1.4-1-1.4-1
	s0,0.1,0,0.3c-0.1,0.3-0.1,0.9-0.2,1.8c-3.7,2.3-8,5.7-11.2,10.2c-4-10.4-13.5-17.8-13.5-17.8s-3.1,13,2.1,24.8
	c-3.5-2.2-7.3-3.6-10.8-4.4V282L0,282z M109.9,192.4c-0.4,0.6-0.7,1.2-1.1,1.9c-0.5-1-1.1-1.9-1.7-2.8
	C108.1,191.8,109,192.1,109.9,192.4z"/>
<g>
	<path fill="#4A9723" d="M87.9,236c-3.8,8-21.5,39.2-22.7,44.3c-0.1,0.6-0.3,1.1-0.4,1.6h10.3C91.2,263.3,89.1,240.4,87.9,236z"/>
	<path fill="#4A9723" d="M179.3,232.7c17.3-8.3,32-40.6,30.4-42.5c-4.7,4.7-40.8,33.5-44.4,38.6c-3.2,4.5-4.1,6.2-5.6,10.6l-0.4-0.2
		l-8.4,4.3c21.2-19.4,18.9-46.1,17.5-50.9c-3.8,8-21.5,39.2-22.7,44.3c-1.1,4.5-1.2,6.1-1.1,9.8l-15.5,8.1
		c23.2-19.5,20.8-47.6,19.4-52.5c-3.8,8-21.5,39.2-22.7,44.3c-1.1,4.7-1.3,6.2-1,10.3c-0.1,0-0.3,0.1-0.4,0.1
		c0.1,0.1,0.1,0.1,0.2,0.2l-14.4,7.5c21-19.4,18.7-46,17.3-50.7c-3.8,8-21.5,39.2-22.7,44.3c-1.1,4.4-1.2,6.1-1.1,9.7l-11.1,5.8
		c19.9-19.3,17.6-45.1,16.3-49.8c-3.8,8-21.5,39.2-22.7,44.3c-1,4.3-1.2,5.9-1.1,9.3L77,282h6.8l3-1.7c0.7,0.6,1.4,1.2,2,1.7H125
		c-8.5-4-19.5-6.8-32.4-4.9l12.6-7c2.5,2.2,3.9,3.1,7.9,5c3,1.4,18,4.3,30.9,6.8h14.5c-7.2-6.7-24.5-18.5-47.9-14.9l15.5-8.6
		c2.5,2.2,3.9,3.1,7.9,5c4.7,2.3,40.1,8.3,48.7,10.4c-2.8-4.1-22.3-22.9-51-18.5l13.1-7.3c0,0.1,0,0.2,0,0.2
		c0.1-0.1,0.3-0.2,0.4-0.3c3.1,2.8,4.3,3.6,8.7,5.7c4.7,2.3,40.1,8.3,48.7,10.4c-3-4.2-24-24.5-54.7-17.8l11.5-6.3
		c-0.1,0.3-0.2,0.5-0.3,0.8C159.2,240.9,162.1,241,179.3,232.7z"/>
</g>
<g>
	<path fill="#1B5A09" d="M37.8,127.8c0,0,19.2-14.1,26.2-16c7-1.9,22.2-2.4,37.1,1s48,23.2,35.3,19.1c-12.8-4-73.5-14.7-105.5,4.4
		C33.3,130.5,37.8,127.8,37.8,127.8z"/>
	<g>
		<path fill="#6AAD06" d="M38.2,2.7c-7.1,9.9-1.8,13.2-5,17.6c-3.2,4.4-0.3,7.9-4.9,17.1C23.7,46.6,27,56,27,56s-7.3,47.1,0,50.8
			c7.3,3.7,12.3-11.3,15.4-15.6c3.1-4.3-0.3-22.5,3-29c3.4-6.5,1.9-19,2.5-21.2c0.6-2.2-2.3-16.5-4.4-20
			C41.4,17.6,41.4,2.4,38.2,2.7z"/>
		<path fill="#1A640B" d="M34.4,100.2c0.3-3.3,7.1-80.1,3.9-97.5c0,0,0,0,0,0C38,3,37.8,3.2,37.7,3.5c2.9,18.6-3.9,95.9-4,96.7
			L34.4,100.2z"/>
	</g>
	<path fill="#1B5A09" d="M25.2,157.8c4.1-4.8,4.4-10,4.4-10s3.7-23.6,2.1-30.6c-1.6-7-8.2-20.8-18-32.5c-3-3.6-8.2-7.9-13.6-12v15.2
		C12.9,107.8,26.5,135,25.2,157.8z"/>
	<g>
		
			<linearGradient id="SVGID_1_" gradientUnits="userSpaceOnUse" x1="98.7606" y1="80.8097" x2="99.5476" y2="101.6663" gradientTransform="matrix(0.9611 0.2762 -0.2762 0.9611 -24.8729 -36.2417)">
			<stop  offset="0" style="stop-color:#AC0703"/>
			<stop  offset="0.9704" style="stop-color:#DB3737"/>
		</linearGradient>
		<path fill="url(#SVGID_1_)" d="M48,69.2c-1.9-0.5-7,9.4-8,13C39,85.8,40.9,94,40.9,94s6.4-6.7,7.7-11.2
			C49.9,78.3,49.9,69.7,48,69.2z"/>
		
			<linearGradient id="SVGID_2_" gradientUnits="userSpaceOnUse" x1="92.5865" y1="80.8085" x2="93.3735" y2="101.6643" gradientTransform="matrix(0.9993 -3.860000e-002 -3.860000e-002 -0.9993 -52.3361 188.6791)">
			<stop  offset="0" style="stop-color:#AC0703"/>
			<stop  offset="0.9704" style="stop-color:#DB3737"/>
		</linearGradient>
		<path fill="url(#SVGID_2_)" d="M37.5,103.9c-2,0.1-4.6-10.9-4.7-14.6c-0.1-3.7,3.7-11.2,3.7-11.2s4.6,8.1,4.8,12.7
			S39.5,103.9,37.5,103.9z"/>
		
			<linearGradient id="SVGID_3_" gradientUnits="userSpaceOnUse" x1="49.5031" y1="444.3391" x2="50.2902" y2="465.1961" gradientTransform="matrix(0.8358 0.549 0.549 -0.8358 -247.969 448.3694)">
			<stop  offset="0" style="stop-color:#AC0703"/>
			<stop  offset="0.9704" style="stop-color:#DB3737"/>
		</linearGradient>
		<path fill="url(#SVGID_3_)" d="M37.9,104.1c-1.6-1.1,2.6-11.5,4.6-14.6s9.5-6.9,9.5-6.9s-0.9,9.3-3.5,13.1
			C46.1,99.5,39.6,105.2,37.9,104.1z"/>
		
			<linearGradient id="SVGID_4_" gradientUnits="userSpaceOnUse" x1="37.5379" y1="479.2542" x2="38.325" y2="500.111" gradientTransform="matrix(0.806 0.5919 0.5919 -0.806 -277.0492 479.7073)">
			<stop  offset="0" style="stop-color:#AC0703"/>
			<stop  offset="0.9704" style="stop-color:#DB3737"/>
		</linearGradient>
		<path fill="url(#SVGID_4_)" d="M37.5,115.6c-1.6-1.2,3.2-11.3,5.4-14.3c2.2-3,9.9-6.4,9.9-6.4s-1.4,9.2-4.1,12.9
			C45.8,111.5,39,116.8,37.5,115.6z"/>
		
			<linearGradient id="SVGID_5_" gradientUnits="userSpaceOnUse" x1="68.2836" y1="400.4437" x2="69.0707" y2="421.3007" gradientTransform="matrix(0.8818 0.4716 0.4716 -0.8818 -214.6505 436.446)">
			<stop  offset="0" style="stop-color:#AC0703"/>
			<stop  offset="0.9704" style="stop-color:#DB3737"/>
		</linearGradient>
		<path fill="url(#SVGID_5_)" d="M35,115.4c-1.7-0.9,1.6-11.7,3.3-15c1.8-3.3,8.8-7.8,8.8-7.8s-0.1,9.3-2.3,13.4
			C42.7,110.2,36.7,116.3,35,115.4z"/>
		
			<linearGradient id="SVGID_6_" gradientUnits="userSpaceOnUse" x1="-1087.939" y1="63.9967" x2="-1087.152" y2="84.853" gradientTransform="matrix(-0.9973 7.370000e-002 -7.370000e-002 -0.9973 -1048.286 258.2501)">
			<stop  offset="0" style="stop-color:#AC0703"/>
			<stop  offset="0.9704" style="stop-color:#DB3737"/>
		</linearGradient>
		<path fill="url(#SVGID_6_)" d="M31.5,113.9c2-0.1,3.3-11.3,3-15c-0.3-3.7-4.9-10.7-4.9-10.7s-3.7,8.6-3.4,13.2
			C26.6,106,29.6,114,31.5,113.9z"/>
		
			<linearGradient id="SVGID_7_" gradientUnits="userSpaceOnUse" x1="-1104.0499" y1="161.6448" x2="-1103.2629" y2="182.5008" gradientTransform="matrix(-0.9957 -9.300000e-002 9.300000e-002 -0.9957 -1081.0289 173.5979)">
			<stop  offset="0" style="stop-color:#AC0703"/>
			<stop  offset="0.9704" style="stop-color:#DB3737"/>
		</linearGradient>
		<path fill="url(#SVGID_7_)" d="M32.9,114.9c2,0.2,5.1-10.6,5.5-14.3c0.3-3.7-3.1-11.4-3.1-11.4s-5.1,7.8-5.5,12.4
			C29.4,106.3,31,114.7,32.9,114.9z"/>
		
			<linearGradient id="SVGID_8_" gradientUnits="userSpaceOnUse" x1="-961.6519" y1="-157.1119" x2="-960.8649" y2="-136.2553" gradientTransform="matrix(-0.8863 0.4631 -0.4631 -0.8863 -896.2668 433.7002)">
			<stop  offset="0" style="stop-color:#AC0703"/>
			<stop  offset="0.9704" style="stop-color:#DB3737"/>
		</linearGradient>
		<path fill="url(#SVGID_8_)" d="M28.2,127.5c1.7-0.9-1.4-11.7-3.2-15c-1.7-3.3-8.8-7.9-8.8-7.9s0,9.3,2.1,13.4
			C20.6,122.1,26.5,128.4,28.2,127.5z"/>
		
			<linearGradient id="SVGID_9_" gradientUnits="userSpaceOnUse" x1="-950.7924" y1="-168.5072" x2="-950.0053" y2="-147.6504" gradientTransform="matrix(-0.8863 0.4631 -0.4631 -0.8863 -896.2668 433.7002)">
			<stop  offset="0" style="stop-color:#AC0703"/>
			<stop  offset="0.9704" style="stop-color:#DB3737"/>
		</linearGradient>
		<path fill="url(#SVGID_9_)" d="M23.9,142.6c1.7-0.9-1.4-11.7-3.2-15c-1.7-3.3-8.8-7.9-8.8-7.9s0,9.3,2.1,13.4
			C16.2,137.3,22.1,143.5,23.9,142.6z"/>
		
			<linearGradient id="SVGID_10_" gradientUnits="userSpaceOnUse" x1="-111.0952" y1="653.4834" x2="-110.3081" y2="674.34" gradientTransform="matrix(0.5052 0.863 0.863 -0.5052 -477.6835 554.0086)">
			<stop  offset="0" style="stop-color:#AC0703"/>
			<stop  offset="0.9704" style="stop-color:#DB3737"/>
		</linearGradient>
		<path fill="url(#SVGID_10_)" d="M30.7,128.2c-1-1.7,7.4-9.1,10.6-11c3.2-1.9,11.6-2,11.6-2s-4.9,7.9-8.9,10.2
			C40,127.7,31.7,129.9,30.7,128.2z"/>
		
			<linearGradient id="SVGID_11_" gradientUnits="userSpaceOnUse" x1="42.4432" y1="465.9636" x2="43.2303" y2="486.8204" gradientTransform="matrix(0.806 0.5919 0.5919 -0.806 -277.0492 479.7073)">
			<stop  offset="0" style="stop-color:#AC0703"/>
			<stop  offset="0.9704" style="stop-color:#DB3737"/>
		</linearGradient>
		<path fill="url(#SVGID_11_)" d="M33.5,129.2c-1.6-1.2,3.2-11.3,5.4-14.3c2.2-3,9.9-6.4,9.9-6.4s-1.4,9.2-4.1,12.9
			C41.9,125.1,35.1,130.4,33.5,129.2z"/>
		
			<linearGradient id="SVGID_12_" gradientUnits="userSpaceOnUse" x1="65.6983" y1="404.0349" x2="66.4853" y2="424.8911" gradientTransform="matrix(0.8668 0.4987 0.4987 -0.8668 -228.2903 446.3985)">
			<stop  offset="0" style="stop-color:#AC0703"/>
			<stop  offset="0.9704" style="stop-color:#DB3737"/>
		</linearGradient>
		<path fill="url(#SVGID_12_)" d="M30.7,128.8c-1.7-1,1.9-11.6,3.8-14.9c1.9-3.2,9.1-7.5,9.1-7.5s-0.4,9.3-2.7,13.3
			C38.6,123.8,32.4,129.8,30.7,128.8z"/>
		
			<linearGradient id="SVGID_13_" gradientUnits="userSpaceOnUse" x1="-1083.0333" y1="50.7066" x2="-1082.2463" y2="71.5629" gradientTransform="matrix(-0.9973 7.370000e-002 -7.370000e-002 -0.9973 -1048.286 258.2501)">
			<stop  offset="0" style="stop-color:#AC0703"/>
			<stop  offset="0.9704" style="stop-color:#DB3737"/>
		</linearGradient>
		<path fill="url(#SVGID_13_)" d="M27.6,127.5c2-0.1,3.3-11.3,3-15c-0.3-3.7-4.9-10.7-4.9-10.7s-3.7,8.6-3.4,13.2
			S25.7,127.6,27.6,127.5z"/>
		
			<linearGradient id="SVGID_14_" gradientUnits="userSpaceOnUse" x1="-1096.9288" y1="116.4454" x2="-1096.1417" y2="137.3027" gradientTransform="matrix(-0.9992 -3.920000e-002 3.920000e-002 -0.9992 -1070.506 202.3118)">
			<stop  offset="0" style="stop-color:#AC0703"/>
			<stop  offset="0.9704" style="stop-color:#DB3737"/>
		</linearGradient>
		<path fill="url(#SVGID_14_)" d="M29.7,128.6c2,0.1,4.6-10.8,4.7-14.6c0.1-3.7-3.7-11.2-3.7-11.2s-4.6,8.1-4.8,12.7
			S27.7,128.5,29.7,128.6z"/>
		
			<linearGradient id="SVGID_15_" gradientUnits="userSpaceOnUse" x1="-1090.2961" y1="278.5059" x2="-1089.5092" y2="299.3625" gradientTransform="matrix(-0.9611 -0.2762 0.2762 -0.9611 -1093.428 95.978)">
			<stop  offset="0" style="stop-color:#AC0703"/>
			<stop  offset="0.9704" style="stop-color:#DB3737"/>
		</linearGradient>
		<path fill="url(#SVGID_15_)" d="M31.1,128.9c1.9,0.5,7-9.4,8-13c1-3.6-0.9-11.7-0.9-11.7s-6.4,6.7-7.7,11.2
			C29.2,119.8,29.2,128.4,31.1,128.9z"/>
		
			<linearGradient id="SVGID_16_" gradientUnits="userSpaceOnUse" x1="-100.2357" y1="642.0883" x2="-99.4486" y2="662.9451" gradientTransform="matrix(0.5052 0.863 0.863 -0.5052 -477.6835 554.0086)">
			<stop  offset="0" style="stop-color:#AC0703"/>
			<stop  offset="0.9704" style="stop-color:#DB3737"/>
		</linearGradient>
		<path fill="url(#SVGID_16_)" d="M26.4,143.3c-1-1.7,7.4-9.1,10.6-11c3.2-1.9,11.6-2,11.6-2s-4.9,7.9-8.9,10.2S27.4,145,26.4,143.3
			z"/>
		
			<linearGradient id="SVGID_17_" gradientUnits="userSpaceOnUse" x1="47.8938" y1="451.1964" x2="48.6808" y2="472.0533" gradientTransform="matrix(0.806 0.5919 0.5919 -0.806 -277.0492 479.7073)">
			<stop  offset="0" style="stop-color:#AC0703"/>
			<stop  offset="0.9704" style="stop-color:#DB3737"/>
		</linearGradient>
		<path fill="url(#SVGID_17_)" d="M29.2,144.3c-1.6-1.2,3.2-11.3,5.4-14.3c2.2-3,9.9-6.4,9.9-6.4s-1.4,9.2-4.1,12.9
			S30.8,145.5,29.2,144.3z"/>
		
			<linearGradient id="SVGID_18_" gradientUnits="userSpaceOnUse" x1="69.4742" y1="388.7541" x2="70.2612" y2="409.6102" gradientTransform="matrix(0.8668 0.4987 0.4987 -0.8668 -228.2903 446.3985)">
			<stop  offset="0" style="stop-color:#AC0703"/>
			<stop  offset="0.9704" style="stop-color:#DB3737"/>
		</linearGradient>
		<path fill="url(#SVGID_18_)" d="M26.4,144c-1.7-1,1.9-11.6,3.8-14.9c1.9-3.2,9.1-7.5,9.1-7.5s-0.4,9.3-2.7,13.3
			C34.2,138.9,28.1,144.9,26.4,144z"/>
		
			<linearGradient id="SVGID_19_" gradientUnits="userSpaceOnUse" x1="-1077.5825" y1="35.94" x2="-1076.7955" y2="56.7962" gradientTransform="matrix(-0.9973 7.370000e-002 -7.370000e-002 -0.9973 -1048.286 258.2501)">
			<stop  offset="0" style="stop-color:#AC0703"/>
			<stop  offset="0.9704" style="stop-color:#DB3737"/>
		</linearGradient>
		<path fill="url(#SVGID_19_)" d="M23.3,142.6c2-0.1,3.3-11.3,3-15c-0.3-3.7-4.9-10.7-4.9-10.7s-3.7,8.6-3.4,13.2
			C18.3,134.7,21.3,142.8,23.3,142.6z"/>
		
			<linearGradient id="SVGID_20_" gradientUnits="userSpaceOnUse" x1="-1093.1774" y1="101.1577" x2="-1092.3904" y2="122.015" gradientTransform="matrix(-0.9992 -3.920000e-002 3.920000e-002 -0.9992 -1070.506 202.3118)">
			<stop  offset="0" style="stop-color:#AC0703"/>
			<stop  offset="0.9704" style="stop-color:#DB3737"/>
		</linearGradient>
		<path fill="url(#SVGID_20_)" d="M25.3,143.7c2,0.1,4.6-10.8,4.7-14.6c0.1-3.7-3.7-11.2-3.7-11.2s-4.6,8.1-4.8,12.7
			C21.3,135.3,23.4,143.6,25.3,143.7z"/>
		
			<linearGradient id="SVGID_21_" gradientUnits="userSpaceOnUse" x1="-1090.296" y1="262.7651" x2="-1089.509" y2="283.6217" gradientTransform="matrix(-0.9611 -0.2762 0.2762 -0.9611 -1093.428 95.978)">
			<stop  offset="0" style="stop-color:#AC0703"/>
			<stop  offset="0.9704" style="stop-color:#DB3737"/>
		</linearGradient>
		<path fill="url(#SVGID_21_)" d="M26.7,144.1c1.9,0.5,7-9.4,8-13c1-3.6-0.9-11.7-0.9-11.7s-6.4,6.7-7.7,11.2
			C24.8,134.9,24.8,143.5,26.7,144.1z"/>
	</g>
	<path fill="#65AB0A" d="M19.4,174.4c0,0,7.1-17.3,5.9-18.4c-1.2-1.1-3.7-13.1-4-16.2c-0.3-3.1,4.9-6.9,3.6-10.6
		c-1.2-3.7-4-7.4-4.9-9.3c-1-1.8,0.2-8.7-0.8-12.1c-1-3.3-6-5.4-8.7-9.1C7.9,95,7.9,87.6,4.8,84.3c-1-1.1-2.8-1.9-4.8-2.7v31.3
		C13.7,144,19.4,174.4,19.4,174.4z"/>
	<path fill="#65AB0A" d="M146.6,146.4c-1.4-4-9-15.6-20.7-16.1c-11.7-0.5-16-8.5-20.4-9.7c-4.4-1.3-10.9,2.2-15.5,1.6
		s-8.7-4.1-12.1-3.5c-3.4,0.7-9,4.9-11.1,4.9c-2.1,0-6.7-0.7-10.5-0.1c-3.8,0.6-4.8,7-7.7,8.1c-2.9,1.1-14.7,4.4-16.2,3.9
		c-1.5-0.5-13.6,13.7-13.6,13.7S98.5,124.9,146.6,146.4z"/>
</g>
<g>
	<path fill="#7DBD20" d="M236.4,153.6c0,0-106.4-82-188.1-14.7c4.5,17.3,3.5,35,3.5,35L31,149.4L0,173.5v51.4
		C18.9,209.9,98.1,154.5,236.4,153.6z"/>
	<path fill="#9DD91F" d="M236.4,153.6c-21.3-11.5-78.7-27.8-103.8-12.4c-6.7,8.6-9.5,27.9-9.5,27.9s-9.2-19.7-14.7-21.7
		C103.7,145.8,26.7,178,0,199.3v47C52.8,218,148.4,171.6,236.4,153.6z"/>
</g>
<path fill="#399600" d="M73,272.7c-0.3-9.4-29.8-30.2-29.8-30.2s31.5,6,36.5,12c2.3-3,8.6-8.9,2.7-14.8c-8.7-7.4-39.2-8.7-39.2-8.7
	s23.7-11.8,43.9-8.1c0,0,3.5-10.2-11.3-16.3c-14.8-6.1-36.5,9.6-36.5,9.6s12.1-20.2,36-16.8c-3-4.1-3.7-8.1-15.1-10.8
	c-11.4-2.7-32.6,6.7-32.6,6.7c9.2,22,16.9,52.6,19.9,86.6h22.3C71.7,278.2,73,274.9,73,272.7z"/>
<path fill="#41B419" d="M38.2,242.8l1.8,1.3c-7.1,9.3-8.9,25.8-9.1,37.9h17.1c-1.7-25.7-6.5-62.4-20.4-86.6c0,0-1-8-27.6-15.7v23.7
	c9.1,1,18.6,3.9,26.9,10.5c-9.8-3-18.9-2.6-26.9-0.5v35.4L37,230c0,0-25.4,18.7-37,31.8v9.2l14.3,11h0.2L38.2,242.8z"/>
<rect y="227.3" opacity="0.48" fill="#F4F4F4" width="1024" height="21.6"/>
<path fill="#1B7C09" d="M2.4,66.8c-0.9,0.5-1.7,1-2.4,1.5V282v0h206.4c-1.2-6-3.4-13-7.4-19.4c0.1-0.3,0.2-0.6,0.3-0.8
	c17.9,6.8,36.7,1.6,36.7,1.6s-0.1-0.1-0.3-0.4h0h0c-2-2.2-13.4-14.8-28.4-19.7c13.2-10.6,19.6-27.8,19.6-27.8s-13.2,1-26.1,8.2
	c-1.6-4.2-4-8.2-7.6-12c0-0.2,0-0.4,0-0.6c16.5,4.6,32.5,0.2,32.5,0.2s-0.1-0.1-0.3-0.4c-2-2.2-13.4-14.8-28.4-19.7
	c13.2-10.6,19.6-27.8,19.6-27.8s-20.3,1.4-35,14.5c2.2-8.9,1.7-17.6,0.5-24.5c12.2,1,22-1.6,22-1.6s-0.1-0.1-0.3-0.4l0,0h0
	c-2-2.2-13.4-14.8-28.4-19.7c13.2-10.6,19.6-27.8,19.6-27.8s-20.3,1.4-35,14.5c0.7-2.9,1.2-5.9,1.4-8.7c4.5-1.7,7.3-3.2,7.3-3.2
	s-0.1-0.1-0.4-0.3c-0.9-0.6-3.3-2.3-6.8-4.2c-0.7-12.1-4.6-21.4-4.6-21.4s-0.1,0.1-0.3,0.4l0,0c-1.2,1.4-5.9,7-9.9,14.8
	c-3.4-1-6.9-1.7-10.6-1.9c10.2-13.5,12.3-31.7,12.3-31.7s-13.2,4.3-24,14.9c-1.5-2.6-3.2-5-5.2-7.3c8.2-5.1,13.2-10.6,13.2-10.6
	s-0.2-0.1-0.4-0.1h0c-2.1-0.6-11.1-3.1-21.7-3c-2.4-4.5-4.5-7.3-4.5-7.3s-1.6,3-3.4,7.8c-1.6,0.2-3.3,0.5-4.9,1
	c5.5-16,1.8-33.9,1.8-33.9s-16.4,12-21.9,30.9c-3.1-9.6-9-17.3-14-22.5c1.4-6.1,1.6-10.4,1.6-10.4s-0.2,0.1-0.4,0.2
	c-1.1,0.5-4,1.8-7.8,4.1c-1.3-1-2.1-1.6-2.1-1.6s0,0.2-0.1,0.5c-0.1,0.5-0.2,1.4-0.3,2.7c-5.6,3.5-12.2,8.7-17,15.5
	C30.8,27.3,16.4,16,16.4,16s-4.8,19.7,3.2,37.7c-6.5-4-13.5-6.2-19.6-7.4V65C0.8,65.6,1.6,66.2,2.4,66.8z M170.4,151.3
	c-0.5,0.9-1.1,1.9-1.6,2.8c-0.8-1.5-1.6-2.9-2.6-4.3C167.6,150.4,169,150.9,170.4,151.3z"/>
<path fill="#1D5434" d="M3.2,187.5c2.4,4.7,3.5,6.4,6.4,9.4L0,215.3v11.3l13.8-28.3c3.3,0,5.4-0.4,10-1.6
	c6.1-1.7,43.1-23.9,52.6-28.7c-5.5-1.4-34.6-3.2-57,18.8l7-14.4c4.1,0.1,6.1-0.2,11.2-1.6c6.1-1.7,43.1-23.9,52.6-28.7
	c-5.6-1.5-36.7-3.3-59.3,21.2l6.6-13.5c4.4,0.1,6.4-0.2,11.7-1.6c6.1-1.7,43.1-23.9,52.6-28.7C96,118,63.9,116,41.3,141.9l8.5-17.5
	c0.1,0.1,0.1,0.1,0.2,0.2c0-0.2,0.1-0.3,0.1-0.5c4.9,0.1,6.8-0.1,12.4-1.6c6.1-1.7,43.1-23.9,52.6-28.7c-5.9-1.5-39.8-3.5-62.5,25
	l9.2-18.9c4.5,0.1,6.4-0.2,11.7-1.6c6.1-1.7,43.1-23.9,52.6-28.7c-5.8-1.5-38-3.4-60.6,22.6l5-10.2l-0.2-0.4c5.2-2,7.2-3,12.5-7.1
	c5.9-4.5,39.5-48.8,45-54.6C125.3,18.2,86.9,37,77.5,58s-9.2,24.4-9.2,24.4c0.3-0.1,0.6-0.2,1-0.4l-7.3,14
	C69.1,58.9,44,34.2,38.8,30.8c2.8,10.3,11.2,52.6,14,58.2c2.6,5.2,3.7,6.7,7.1,10.3c-0.1,0.2-0.2,0.3-0.4,0.5c0.1,0,0.2,0,0.3,0
	l-8.3,16c4.5-34.6-18.8-57.5-23.8-60.8c2.8,10.3,11.2,52.6,14,58.2c2.4,4.7,3.5,6.3,6.3,9.3l-9.8,18.9c4.5-34.7-18.8-57.6-23.8-60.9
	c2.8,10.3,11.2,52.6,14,58.2c2.4,4.7,3.5,6.4,6.3,9.3l-8,15.4C31.1,129.2,8,106.5,3,103.3c2.8,10.3,11.2,52.6,14,58.2
	c2.4,4.6,3.5,6.3,6.1,9.2l-10.2,19.7c3-21.9-5.2-39.2-12.9-49.8v36C1.3,181.9,2.4,186,3.2,187.5z"/>
<g>
	<path fill="#33720F" d="M161.3,152.8c-1.9-1.6-34.3,13.2-42.5,30.4s-8.2,20.1-8.2,20.1c0.3-0.1,0.5-0.2,0.8-0.3l-6.3,11.5
		c6.8-30.7-13.5-51.7-17.8-54.7c2.1,8.6,8.1,44,10.4,48.7c2.1,4.3,3,5.6,5.7,8.7c-0.1,0.1-0.2,0.3-0.3,0.4c0.1,0,0.2,0,0.2,0
		L96,230.7c4.5-28.7-14.4-48.2-18.5-51c2.1,8.6,8.1,44,10.4,48.7c1.9,3.9,2.8,5.4,5,7.9l-8.6,15.5c4.5-28.8-14.4-48.3-18.4-51.1
		c2.1,8.6,8.1,44,10.4,48.7c1.9,4,2.8,5.4,5,7.9l-7,12.6c4.3-28.5-14.4-47.9-18.5-50.7c2.1,8.6,8.1,44,10.4,48.7
		c1.9,3.9,2.8,5.3,4.9,7.8l-3.5,6.3h3.6l2.5-4.9c3.4,0.1,5-0.1,9.3-1.1c5.1-1.2,36.3-18.9,44.3-22.7c-4.7-1.3-30.5-3.6-49.8,16.3
		l5.8-11.1c3.7,0.2,5.3,0,9.7-1.1c5.1-1.2,36.3-18.9,44.3-22.7c-4.7-1.4-31.3-3.7-50.7,17.3l7.5-14.4c0.1,0.1,0.1,0.1,0.2,0.2
		c0-0.1,0.1-0.3,0.1-0.4c4.1,0.2,5.7,0.1,10.3-1c5.1-1.2,36.3-18.9,44.3-22.7c-4.9-1.4-33-3.8-52.5,19.4l8.1-15.5
		c3.7,0.2,5.3,0,9.8-1.1c5.1-1.2,36.3-18.9,44.3-22.7c-4.8-1.4-31.5-3.7-50.9,17.5l4.3-8.4l-0.2-0.4c4.4-1.5,6-2.4,10.6-5.6
		C127.8,193.5,156.6,157.5,161.3,152.8z"/>
	<path fill="#33720F" d="M76.9,282h24.5c6.1-3.3,11.4-6.1,14.1-7.4C111.6,273.5,93.8,271.8,76.9,282z"/>
	<path fill="#33720F" d="M43.8,240.5c1.6,6.7,5.6,29.4,8.4,41.5h10.7C62.6,258.6,47.4,243,43.8,240.5z"/>
</g>
<path fill="#0D4C26" d="M0,282h134.1c-0.5-4.6-1.9-10.8-5.4-16.5c0.1-0.2,0.1-0.4,0.2-0.6c11.8,4.5,24.1,1.1,24.1,1.1
	s-0.1-0.1-0.2-0.2h0c-1.3-1.5-8.8-9.7-18.7-12.9c8.7-7,12.9-18.3,12.9-18.3s-8.7,0.6-17.1,5.4c-1.1-2.7-2.7-5.4-5-7.9
	c0-0.1,0-0.2,0-0.4c10.9,3,21.3,0.1,21.3,0.1s-0.1-0.1-0.2-0.2c-1.3-1.5-8.8-9.7-18.7-12.9c8.7-7,12.9-18.3,12.9-18.3
	s-13.3,1-23,9.5c1.5-5.8,1.1-11.6,0.3-16.1c8,0.7,14.5-1.1,14.5-1.1s-0.1-0.1-0.2-0.2v0c-1.3-1.5-8.8-9.7-18.7-12.9
	c8.7-7,12.9-18.3,12.9-18.3s-13.3,1-23,9.5c0.5-1.9,0.8-3.9,0.9-5.7c3-1.1,4.8-2.1,4.8-2.1s-0.1-0.1-0.3-0.2
	c-0.6-0.4-2.2-1.5-4.5-2.7c-0.4-8-3-14-3-14s-0.1,0.1-0.2,0.2v0c-0.8,0.9-3.9,4.6-6.5,9.8c-2.2-0.6-4.5-1.1-6.9-1.3
	c6.7-8.9,8.1-20.8,8.1-20.8s-8.7,2.8-15.8,9.8c-1-1.7-2.1-3.3-3.4-4.8c5.4-3.3,8.7-6.9,8.7-6.9s-0.1,0-0.3-0.1h0
	c-1.4-0.4-7.3-2-14.3-2c-1.6-3-2.9-4.8-2.9-4.8s-1.1,2-2.3,5.1c-1.1,0.2-2.2,0.4-3.2,0.6c3.6-10.5,1.2-22.3,1.2-22.3
	s-10.8,7.9-14.4,20.3c-2-6.3-5.9-11.4-9.2-14.8c0.9-4,1-6.8,1-6.8s-0.1,0-0.3,0.1c-0.7,0.3-2.7,1.2-5.2,2.7c-0.9-0.7-1.4-1-1.4-1
	s0,0.1,0,0.3c-0.1,0.3-0.1,0.9-0.2,1.8c-3.7,2.3-8,5.7-11.2,10.2c-4-10.4-13.5-17.8-13.5-17.8s-3.1,13,2.1,24.8
	c-3.5-2.2-7.3-3.6-10.8-4.4V282L0,282z M109.9,192.4c-0.4,0.6-0.7,1.2-1.1,1.9c-0.5-1-1.1-1.9-1.7-2.8
	C108.1,191.8,109,192.1,109.9,192.4z"/>
<g>
	<path fill="#4A9723" d="M87.9,236c-3.8,8-21.5,39.2-22.7,44.3c-0.1,0.6-0.3,1.1-0.4,1.6h10.3C91.2,263.3,89.1,240.4,87.9,236z"/>
	<path fill="#4A9723" d="M179.3,232.7c17.3-8.3,32-40.6,30.4-42.5c-4.7,4.7-40.8,33.5-44.4,38.6c-3.2,4.5-4.1,6.2-5.6,10.6l-0.4-0.2
		l-8.4,4.3c21.2-19.4,18.9-46.1,17.5-50.9c-3.8,8-21.5,39.2-22.7,44.3c-1.1,4.5-1.2,6.1-1.1,9.8l-15.5,8.1
		c23.2-19.5,20.8-47.6,19.4-52.5c-3.8,8-21.5,39.2-22.7,44.3c-1.1,4.7-1.3,6.2-1,10.3c-0.1,0-0.3,0.1-0.4,0.1
		c0.1,0.1,0.1,0.1,0.2,0.2l-14.4,7.5c21-19.4,18.7-46,17.3-50.7c-3.8,8-21.5,39.2-22.7,44.3c-1.1,4.4-1.2,6.1-1.1,9.7l-11.1,5.8
		c19.9-19.3,17.6-45.1,16.3-49.8c-3.8,8-21.5,39.2-22.7,44.3c-1,4.3-1.2,5.9-1.1,9.3L77,282h6.8l3-1.7c0.7,0.6,1.4,1.2,2,1.7H125
		c-8.5-4-19.5-6.8-32.4-4.9l12.6-7c2.5,2.2,3.9,3.1,7.9,5c3,1.4,18,4.3,30.9,6.8h14.5c-7.2-6.7-24.5-18.5-47.9-14.9l15.5-8.6
		c2.5,2.2,3.9,3.1,7.9,5c4.7,2.3,40.1,8.3,48.7,10.4c-2.8-4.1-22.3-22.9-51-18.5l13.1-7.3c0,0.1,0,0.2,0,0.2
		c0.1-0.1,0.3-0.2,0.4-0.3c3.1,2.8,4.3,3.6,8.7,5.7c4.7,2.3,40.1,8.3,48.7,10.4c-3-4.2-24-24.5-54.7-17.8l11.5-6.3
		c-0.1,0.3-0.2,0.5-0.3,0.8C159.2,240.9,162.1,241,179.3,232.7z"/>
</g>
<g>
	<path fill="#1B5A09" d="M37.8,127.8c0,0,19.2-14.1,26.2-16c7-1.9,22.2-2.4,37.1,1s48,23.2,35.3,19.1c-12.8-4-73.5-14.7-105.5,4.4
		C33.3,130.5,37.8,127.8,37.8,127.8z"/>
	<g>
		<path fill="#6AAD06" d="M38.2,2.7c-7.1,9.9-1.8,13.2-5,17.6c-3.2,4.4-0.3,7.9-4.9,17.1C23.7,46.6,27,56,27,56s-7.3,47.1,0,50.8
			c7.3,3.7,12.3-11.3,15.4-15.6c3.1-4.3-0.3-22.5,3-29c3.4-6.5,1.9-19,2.5-21.2c0.6-2.2-2.3-16.5-4.4-20
			C41.4,17.6,41.4,2.4,38.2,2.7z"/>
		<path fill="#1A640B" d="M34.4,100.2c0.3-3.3,7.1-80.1,3.9-97.5c0,0,0,0,0,0C38,3,37.8,3.2,37.7,3.5c2.9,18.6-3.9,95.9-4,96.7
			L34.4,100.2z"/>
	</g>
	<path fill="#1B5A09" d="M25.2,157.8c4.1-4.8,4.4-10,4.4-10s3.7-23.6,2.1-30.6c-1.6-7-8.2-20.8-18-32.5c-3-3.6-8.2-7.9-13.6-12v15.2
		C12.9,107.8,26.5,135,25.2,157.8z"/>
	<g>
		
			<linearGradient id="SVGID_22_" gradientUnits="userSpaceOnUse" x1="98.7606" y1="80.8097" x2="99.5476" y2="101.6663" gradientTransform="matrix(0.9611 0.2762 -0.2762 0.9611 -24.8729 -36.2417)">
			<stop  offset="0" style="stop-color:#AC0703"/>
			<stop  offset="0.9704" style="stop-color:#DB3737"/>
		</linearGradient>
		<path fill="url(#SVGID_22_)" d="M48,69.2c-1.9-0.5-7,9.4-8,13C39,85.8,40.9,94,40.9,94s6.4-6.7,7.7-11.2
			C49.9,78.3,49.9,69.7,48,69.2z"/>
		
			<linearGradient id="SVGID_23_" gradientUnits="userSpaceOnUse" x1="92.5865" y1="80.8085" x2="93.3735" y2="101.6643" gradientTransform="matrix(0.9993 -3.860000e-002 -3.860000e-002 -0.9993 -52.3361 188.6791)">
			<stop  offset="0" style="stop-color:#AC0703"/>
			<stop  offset="0.9704" style="stop-color:#DB3737"/>
		</linearGradient>
		<path fill="url(#SVGID_23_)" d="M37.5,103.9c-2,0.1-4.6-10.9-4.7-14.6c-0.1-3.7,3.7-11.2,3.7-11.2s4.6,8.1,4.8,12.7
			S39.5,103.9,37.5,103.9z"/>
		
			<linearGradient id="SVGID_24_" gradientUnits="userSpaceOnUse" x1="49.5031" y1="444.3391" x2="50.2902" y2="465.1961" gradientTransform="matrix(0.8358 0.549 0.549 -0.8358 -247.969 448.3694)">
			<stop  offset="0" style="stop-color:#AC0703"/>
			<stop  offset="0.9704" style="stop-color:#DB3737"/>
		</linearGradient>
		<path fill="url(#SVGID_24_)" d="M37.9,104.1c-1.6-1.1,2.6-11.5,4.6-14.6s9.5-6.9,9.5-6.9s-0.9,9.3-3.5,13.1
			C46.1,99.5,39.6,105.2,37.9,104.1z"/>
		
			<linearGradient id="SVGID_25_" gradientUnits="userSpaceOnUse" x1="37.5379" y1="479.2542" x2="38.325" y2="500.111" gradientTransform="matrix(0.806 0.5919 0.5919 -0.806 -277.0492 479.7073)">
			<stop  offset="0" style="stop-color:#AC0703"/>
			<stop  offset="0.9704" style="stop-color:#DB3737"/>
		</linearGradient>
		<path fill="url(#SVGID_25_)" d="M37.5,115.6c-1.6-1.2,3.2-11.3,5.4-14.3c2.2-3,9.9-6.4,9.9-6.4s-1.4,9.2-4.1,12.9
			C45.8,111.5,39,116.8,37.5,115.6z"/>
		
			<linearGradient id="SVGID_26_" gradientUnits="userSpaceOnUse" x1="68.2836" y1="400.4437" x2="69.0707" y2="421.3007" gradientTransform="matrix(0.8818 0.4716 0.4716 -0.8818 -214.6505 436.446)">
			<stop  offset="0" style="stop-color:#AC0703"/>
			<stop  offset="0.9704" style="stop-color:#DB3737"/>
		</linearGradient>
		<path fill="url(#SVGID_26_)" d="M35,115.4c-1.7-0.9,1.6-11.7,3.3-15c1.8-3.3,8.8-7.8,8.8-7.8s-0.1,9.3-2.3,13.4
			C42.7,110.2,36.7,116.3,35,115.4z"/>
		
			<linearGradient id="SVGID_27_" gradientUnits="userSpaceOnUse" x1="-1087.939" y1="63.9967" x2="-1087.152" y2="84.853" gradientTransform="matrix(-0.9973 7.370000e-002 -7.370000e-002 -0.9973 -1048.286 258.2501)">
			<stop  offset="0" style="stop-color:#AC0703"/>
			<stop  offset="0.9704" style="stop-color:#DB3737"/>
		</linearGradient>
		<path fill="url(#SVGID_27_)" d="M31.5,113.9c2-0.1,3.3-11.3,3-15c-0.3-3.7-4.9-10.7-4.9-10.7s-3.7,8.6-3.4,13.2
			C26.6,106,29.6,114,31.5,113.9z"/>
		
			<linearGradient id="SVGID_28_" gradientUnits="userSpaceOnUse" x1="-1104.0499" y1="161.6448" x2="-1103.2629" y2="182.5008" gradientTransform="matrix(-0.9957 -9.300000e-002 9.300000e-002 -0.9957 -1081.0289 173.5979)">
			<stop  offset="0" style="stop-color:#AC0703"/>
			<stop  offset="0.9704" style="stop-color:#DB3737"/>
		</linearGradient>
		<path fill="url(#SVGID_28_)" d="M32.9,114.9c2,0.2,5.1-10.6,5.5-14.3c0.3-3.7-3.1-11.4-3.1-11.4s-5.1,7.8-5.5,12.4
			C29.4,106.3,31,114.7,32.9,114.9z"/>
		
			<linearGradient id="SVGID_29_" gradientUnits="userSpaceOnUse" x1="-961.6519" y1="-157.1119" x2="-960.8649" y2="-136.2553" gradientTransform="matrix(-0.8863 0.4631 -0.4631 -0.8863 -896.2668 433.7002)">
			<stop  offset="0" style="stop-color:#AC0703"/>
			<stop  offset="0.9704" style="stop-color:#DB3737"/>
		</linearGradient>
		<path fill="url(#SVGID_29_)" d="M28.2,127.5c1.7-0.9-1.4-11.7-3.2-15c-1.7-3.3-8.8-7.9-8.8-7.9s0,9.3,2.1,13.4
			C20.6,122.1,26.5,128.4,28.2,127.5z"/>
		
			<linearGradient id="SVGID_30_" gradientUnits="userSpaceOnUse" x1="-950.7924" y1="-168.5072" x2="-950.0053" y2="-147.6504" gradientTransform="matrix(-0.8863 0.4631 -0.4631 -0.8863 -896.2668 433.7002)">
			<stop  offset="0" style="stop-color:#AC0703"/>
			<stop  offset="0.9704" style="stop-color:#DB3737"/>
		</linearGradient>
		<path fill="url(#SVGID_30_)" d="M23.9,142.6c1.7-0.9-1.4-11.7-3.2-15c-1.7-3.3-8.8-7.9-8.8-7.9s0,9.3,2.1,13.4
			C16.2,137.3,22.1,143.5,23.9,142.6z"/>
		
			<linearGradient id="SVGID_31_" gradientUnits="userSpaceOnUse" x1="-111.0952" y1="653.4834" x2="-110.3081" y2="674.34" gradientTransform="matrix(0.5052 0.863 0.863 -0.5052 -477.6835 554.0086)">
			<stop  offset="0" style="stop-color:#AC0703"/>
			<stop  offset="0.9704" style="stop-color:#DB3737"/>
		</linearGradient>
		<path fill="url(#SVGID_31_)" d="M30.7,128.2c-1-1.7,7.4-9.1,10.6-11c3.2-1.9,11.6-2,11.6-2s-4.9,7.9-8.9,10.2
			C40,127.7,31.7,129.9,30.7,128.2z"/>
		
			<linearGradient id="SVGID_32_" gradientUnits="userSpaceOnUse" x1="42.4432" y1="465.9636" x2="43.2303" y2="486.8204" gradientTransform="matrix(0.806 0.5919 0.5919 -0.806 -277.0492 479.7073)">
			<stop  offset="0" style="stop-color:#AC0703"/>
			<stop  offset="0.9704" style="stop-color:#DB3737"/>
		</linearGradient>
		<path fill="url(#SVGID_32_)" d="M33.5,129.2c-1.6-1.2,3.2-11.3,5.4-14.3c2.2-3,9.9-6.4,9.9-6.4s-1.4,9.2-4.1,12.9
			C41.9,125.1,35.1,130.4,33.5,129.2z"/>
		
			<linearGradient id="SVGID_33_" gradientUnits="userSpaceOnUse" x1="65.6983" y1="404.0349" x2="66.4853" y2="424.8911" gradientTransform="matrix(0.8668 0.4987 0.4987 -0.8668 -228.2903 446.3985)">
			<stop  offset="0" style="stop-color:#AC0703"/>
			<stop  offset="0.9704" style="stop-color:#DB3737"/>
		</linearGradient>
		<path fill="url(#SVGID_33_)" d="M30.7,128.8c-1.7-1,1.9-11.6,3.8-14.9c1.9-3.2,9.1-7.5,9.1-7.5s-0.4,9.3-2.7,13.3
			C38.6,123.8,32.4,129.8,30.7,128.8z"/>
		
			<linearGradient id="SVGID_34_" gradientUnits="userSpaceOnUse" x1="-1083.0333" y1="50.7066" x2="-1082.2463" y2="71.5629" gradientTransform="matrix(-0.9973 7.370000e-002 -7.370000e-002 -0.9973 -1048.286 258.2501)">
			<stop  offset="0" style="stop-color:#AC0703"/>
			<stop  offset="0.9704" style="stop-color:#DB3737"/>
		</linearGradient>
		<path fill="url(#SVGID_34_)" d="M27.6,127.5c2-0.1,3.3-11.3,3-15c-0.3-3.7-4.9-10.7-4.9-10.7s-3.7,8.6-3.4,13.2
			S25.7,127.6,27.6,127.5z"/>
		
			<linearGradient id="SVGID_35_" gradientUnits="userSpaceOnUse" x1="-1096.9288" y1="116.4454" x2="-1096.1417" y2="137.3027" gradientTransform="matrix(-0.9992 -3.920000e-002 3.920000e-002 -0.9992 -1070.506 202.3118)">
			<stop  offset="0" style="stop-color:#AC0703"/>
			<stop  offset="0.9704" style="stop-color:#DB3737"/>
		</linearGradient>
		<path fill="url(#SVGID_35_)" d="M29.7,128.6c2,0.1,4.6-10.8,4.7-14.6c0.1-3.7-3.7-11.2-3.7-11.2s-4.6,8.1-4.8,12.7
			S27.7,128.5,29.7,128.6z"/>
		
			<linearGradient id="SVGID_36_" gradientUnits="userSpaceOnUse" x1="-1090.2961" y1="278.5059" x2="-1089.5092" y2="299.3625" gradientTransform="matrix(-0.9611 -0.2762 0.2762 -0.9611 -1093.428 95.978)">
			<stop  offset="0" style="stop-color:#AC0703"/>
			<stop  offset="0.9704" style="stop-color:#DB3737"/>
		</linearGradient>
		<path fill="url(#SVGID_36_)" d="M31.1,128.9c1.9,0.5,7-9.4,8-13c1-3.6-0.9-11.7-0.9-11.7s-6.4,6.7-7.7,11.2
			C29.2,119.8,29.2,128.4,31.1,128.9z"/>
		
			<linearGradient id="SVGID_37_" gradientUnits="userSpaceOnUse" x1="-100.2357" y1="642.0883" x2="-99.4486" y2="662.9451" gradientTransform="matrix(0.5052 0.863 0.863 -0.5052 -477.6835 554.0086)">
			<stop  offset="0" style="stop-color:#AC0703"/>
			<stop  offset="0.9704" style="stop-color:#DB3737"/>
		</linearGradient>
		<path fill="url(#SVGID_37_)" d="M26.4,143.3c-1-1.7,7.4-9.1,10.6-11c3.2-1.9,11.6-2,11.6-2s-4.9,7.9-8.9,10.2S27.4,145,26.4,143.3
			z"/>
		
			<linearGradient id="SVGID_38_" gradientUnits="userSpaceOnUse" x1="47.8938" y1="451.1964" x2="48.6808" y2="472.0533" gradientTransform="matrix(0.806 0.5919 0.5919 -0.806 -277.0492 479.7073)">
			<stop  offset="0" style="stop-color:#AC0703"/>
			<stop  offset="0.9704" style="stop-color:#DB3737"/>
		</linearGradient>
		<path fill="url(#SVGID_38_)" d="M29.2,144.3c-1.6-1.2,3.2-11.3,5.4-14.3c2.2-3,9.9-6.4,9.9-6.4s-1.4,9.2-4.1,12.9
			S30.8,145.5,29.2,144.3z"/>
		
			<linearGradient id="SVGID_39_" gradientUnits="userSpaceOnUse" x1="69.4742" y1="388.7541" x2="70.2612" y2="409.6102" gradientTransform="matrix(0.8668 0.4987 0.4987 -0.8668 -228.2903 446.3985)">
			<stop  offset="0" style="stop-color:#AC0703"/>
			<stop  offset="0.9704" style="stop-color:#DB3737"/>
		</linearGradient>
		<path fill="url(#SVGID_39_)" d="M26.4,144c-1.7-1,1.9-11.6,3.8-14.9c1.9-3.2,9.1-7.5,9.1-7.5s-0.4,9.3-2.7,13.3
			C34.2,138.9,28.1,144.9,26.4,144z"/>
		
			<linearGradient id="SVGID_40_" gradientUnits="userSpaceOnUse" x1="-1077.5825" y1="35.94" x2="-1076.7955" y2="56.7962" gradientTransform="matrix(-0.9973 7.370000e-002 -7.370000e-002 -0.9973 -1048.286 258.2501)">
			<stop  offset="0" style="stop-color:#AC0703"/>
			<stop  offset="0.9704" style="stop-color:#DB3737"/>
		</linearGradient>
		<path fill="url(#SVGID_40_)" d="M23.3,142.6c2-0.1,3.3-11.3,3-15c-0.3-3.7-4.9-10.7-4.9-10.7s-3.7,8.6-3.4,13.2
			C18.3,134.7,21.3,142.8,23.3,142.6z"/>
		
			<linearGradient id="SVGID_41_" gradientUnits="userSpaceOnUse" x1="-1093.1774" y1="101.1577" x2="-1092.3904" y2="122.015" gradientTransform="matrix(-0.9992 -3.920000e-002 3.920000e-002 -0.9992 -1070.506 202.3118)">
			<stop  offset="0" style="stop-color:#AC0703"/>
			<stop  offset="0.9704" style="stop-color:#DB3737"/>
		</linearGradient>
		<path fill="url(#SVGID_41_)" d="M25.3,143.7c2,0.1,4.6-10.8,4.7-14.6c0.1-3.7-3.7-11.2-3.7-11.2s-4.6,8.1-4.8,12.7
			C21.3,135.3,23.4,143.6,25.3,143.7z"/>
		
			<linearGradient id="SVGID_42_" gradientUnits="userSpaceOnUse" x1="-1090.296" y1="262.7651" x2="-1089.509" y2="283.6217" gradientTransform="matrix(-0.9611 -0.2762 0.2762 -0.9611 -1093.428 95.978)">
			<stop  offset="0" style="stop-color:#AC0703"/>
			<stop  offset="0.9704" style="stop-color:#DB3737"/>
		</linearGradient>
		<path fill="url(#SVGID_42_)" d="M26.7,144.1c1.9,0.5,7-9.4,8-13c1-3.6-0.9-11.7-0.9-11.7s-6.4,6.7-7.7,11.2
			C24.8,134.9,24.8,143.5,26.7,144.1z"/>
	</g>
	<path fill="#65AB0A" d="M19.4,174.4c0,0,7.1-17.3,5.9-18.4c-1.2-1.1-3.7-13.1-4-16.2c-0.3-3.1,4.9-6.9,3.6-10.6
		c-1.2-3.7-4-7.4-4.9-9.3c-1-1.8,0.2-8.7-0.8-12.1c-1-3.3-6-5.4-8.7-9.1C7.9,95,7.9,87.6,4.8,84.3c-1-1.1-2.8-1.9-4.8-2.7v31.3
		C13.7,144,19.4,174.4,19.4,174.4z"/>
	<path fill="#65AB0A" d="M146.6,146.4c-1.4-4-9-15.6-20.7-16.1c-11.7-0.5-16-8.5-20.4-9.7c-4.4-1.3-10.9,2.2-15.5,1.6
		s-8.7-4.1-12.1-3.5c-3.4,0.7-9,4.9-11.1,4.9c-2.1,0-6.7-0.7-10.5-0.1c-3.8,0.6-4.8,7-7.7,8.1c-2.9,1.1-14.7,4.4-16.2,3.9
		c-1.5-0.5-13.6,13.7-13.6,13.7S98.5,124.9,146.6,146.4z"/>
</g>
<g>
	<path fill="#7DBD20" d="M236.4,153.6c0,0-106.4-82-188.1-14.7c4.5,17.3,3.5,35,3.5,35L31,149.4L0,173.5v51.4
		C18.9,209.9,98.1,154.5,236.4,153.6z"/>
	<path fill="#9DD91F" d="M236.4,153.6c-21.3-11.5-78.7-27.8-103.8-12.4c-6.7,8.6-9.5,27.9-9.5,27.9s-9.2-19.7-14.7-21.7
		C103.7,145.8,26.7,178,0,199.3v47C52.8,218,148.4,171.6,236.4,153.6z"/>
</g>
<path fill="#399600" d="M73,272.7c-0.3-9.4-29.8-30.2-29.8-30.2s31.5,6,36.5,12c2.3-3,8.6-8.9,2.7-14.8c-8.7-7.4-39.2-8.7-39.2-8.7
	s23.7-11.8,43.9-8.1c0,0,3.5-10.2-11.3-16.3c-14.8-6.1-36.5,9.6-36.5,9.6s12.1-20.2,36-16.8c-3-4.1-3.7-8.1-15.1-10.8
	c-11.4-2.7-32.6,6.7-32.6,6.7c9.2,22,16.9,52.6,19.9,86.6h22.3C71.7,278.2,73,274.9,73,272.7z"/>
<path fill="#41B419" d="M38.2,242.8l1.8,1.3c-7.1,9.3-8.9,25.8-9.1,37.9h17.1c-1.7-25.7-6.5-62.4-20.4-86.6c0,0-1-8-27.6-15.7v23.7
	c9.1,1,18.6,3.9,26.9,10.5c-9.8-3-18.9-2.6-26.9-0.5v35.4L37,230c0,0-25.4,18.7-37,31.8v9.2l14.3,11h0.2L38.2,242.8z"/>
</svg>
