<?xml version="1.0" encoding="utf-8"?>
<!-- Generator: Adobe Illustrator 18.0.0, SVG Export Plug-In . SVG Version: 6.00 Build 0)  -->
<!DOCTYPE svg PUBLIC "-//W3C//DTD SVG 1.0//EN" "http://www.w3.org/TR/2001/REC-SVG-20010904/DTD/svg10.dtd">
<svg version="1.0" id="Camada_1" xmlns="http://www.w3.org/2000/svg" xmlns:xlink="http://www.w3.org/1999/xlink" x="0px" y="0px"
	 viewBox="0 0 163.8 80.8" enable-background="new 0 0 163.8 80.8" xml:space="preserve">
<g>
	<g>
		<path fill="#1B7C09" d="M15.1,24.7c0.1-0.1,0.2-0.1,0.3-0.1c0,0,0.1,0,0.2,0c0.2-0.1,0.4-0.1,0.6-0.1c0.1,0,0.2,0,0.3,0
			c0.1,0,0.2,0,0.3-0.1c0.1,0,0.3,0,0.4,0c0.1,0,0.3,0,0.4,0c0.2,0,0.3,0,0.5,0c0.1,0,0.3,0,0.5,0c0.2,0,0.3,0,0.5,0
			c0.2,0,0.4,0,0.6,0c0.4,0,0.7,0,1.1-0.1c0.2,0,0.4,0,0.6,0c0.6-0.1,1.3,0,1.9-0.1c2.7,0,5.4-0.3,8.1,0c0.6,0,1.3,0,1.9,0
			c0.4,0,0.8,0,1.2,0c0.4,0,0.7,0,1.1,0c0.2,0,0.3,0,0.5,0c0.3,0,0.6,0,1,0.1c0.1,0,0.3,0,0.4,0c0.1,0,0.3,0,0.4,0
			c0.2,0,0.5,0,0.7,0.1c0.1,0,0.2,0,0.3,0c0.1,0,0.2,0,0.3,0c0.1,0,0.2,0,0.3,0c0.1,0,0.2,0,0.3,0.1c0,0,0.1,0,0.1,0c0,0,0,0,0,0
			c0,0,0,0.1,0.1,0.1c0,0.1,0,0.1,0,0.2c0,0.1,0,0.2,0,0.3c0,0.1,0,0.2,0,0.3c0.1,0.8,0.1,1.8,0,2.6c0,0.2,0,0.4,0,0.7
			c0,0.2,0,0.4,0,0.6c0,0.2,0,0.4,0,0.7c0,0.2,0,0.4-0.1,0.7c0,0.4,0,0.9-0.1,1.3c-0.1,1,0,2.9-0.6,3.8c0,0.1-0.1,0.2-0.1,0.3
			c-0.2,0.1-0.6,0.1-0.8,0c-0.1,0-0.2,0-0.3,0c-0.3,0-0.5-0.1-0.8-0.1c-0.3,0-0.6-0.1-1-0.1c-0.4-0.1-0.7-0.1-1.1-0.2
			c-0.2,0-0.4-0.1-0.6-0.1c-0.2,0-0.4-0.1-0.6-0.1c-0.2,0-0.4-0.1-0.6-0.1c-0.2,0-0.4-0.1-0.6-0.1c-0.2,0-0.4-0.1-0.6-0.1
			c-0.2,0-0.4-0.1-0.6-0.1c-0.2,0-0.4-0.1-0.6-0.1c-0.2,0-0.4-0.1-0.6-0.1c-0.4-0.1-0.8-0.1-1.2-0.2c-0.2,0-0.4-0.1-0.6-0.1
			c-0.3-0.1-0.7-0.1-1-0.2c-0.4-0.1-0.9-0.1-1.3-0.3c-0.1,0-0.2,0-0.3,0c-0.1,0-0.2,0-0.3-0.1c-0.1,0-0.2-0.1-0.2,0
			c0,0.1,0,0.2,0,0.4c0,0.3,0.1,0.7,0.1,1c0,0.4,0.1,0.8,0.1,1.2c0.1,0.4,0.1,0.8,0.1,1.3c0,0.2,0,0.4,0.1,0.6c0,0.4,0,0.7,0.1,1.1
			c0,0.1,0,0.3,0.1,0.4c0,0.1,0,0.3,0,0.4c0,0.1,0,0.2,0,0.3c0,0,0,0.1,0,0.2v0c0,0,0,0,0.1,0c0.2,0,0.5-0.1,0.7-0.1
			c0.2,0,0.4,0,0.6,0c0.4,0,0.9-0.1,1.3-0.1c0.2,0,0.4,0,0.7,0c0.6-0.1,1.3-0.1,2,0c0.3,0,0.8,0,1,0.2c0,0.1,0.1,0.1,0.1,0.2
			c0.1,0.2,0.1,0.5,0.1,0.7c0.1,0.3,0.2,0.7,0.1,1c0,0.2,0,0.4,0.1,0.6c0,0.2,0,0.4,0,0.6c0,0.2,0,0.4,0,0.6c0,0.4,0,0.8,0,1.1
			c0,0.2,0,0.3,0,0.5c0,0.3,0,0.5-0.1,0.8c-0.1,0.3-0.4,0.5-0.7,0.5c-0.4,0.1-0.7,0.1-1.1,0.1c-0.2,0-0.4,0-0.6,0
			c-0.4,0-0.9,0-1.3-0.1c-0.4,0-0.8,0-1.3-0.1c-0.4,0-0.8,0-1.2-0.1h-0.1c0,0,0,0,0,0c0,0.1,0,0.3,0,0.4c0,0.1,0,0.2,0,0.4
			c0,0.1,0,0.3,0,0.4c0,0.2,0,0.3,0,0.5c0,0.2,0,0.4,0.1,0.6c0,0.4,0,0.8,0.1,1.2c0.1,0.4,0.1,0.9,0.1,1.3c0.1,0.6,0.1,1.3,0.2,1.9
			c0,0.5,0.1,1.1,0.2,1.6c0,0.1,0,0.3,0,0.4c0,0.1,0,0.2,0.1,0.3c0,0.1,0,0.2,0,0.2c0.1,0,0.3,0,0.4,0c0.3-0.1,0.7-0.2,1-0.2
			c0.1,0,0.3-0.1,0.4-0.1c0.1,0,0.3-0.1,0.5-0.1c1.8-0.3,3.6-0.9,5.4-1.3c0.4-0.1,0.8-0.1,1.2-0.2c0.2,0,0.4-0.1,0.6-0.1
			c0.5-0.1,0.9-0.2,1.4-0.3c0.1,0,0.2,0,0.4,0c0.2,0,0.4,0,0.6,0c0,0,0.1,0,0.2,0c0,0,0.1,0,0.1,0.1c0,0,0,0.1,0.1,0.1
			c0,0.1,0,0.1,0.1,0.2c0.1,0.2,0.2,0.4,0.2,0.6c0,0.1,0,0.2,0.1,0.4c0,0.1,0.1,0.3,0.1,0.4c0.1,0.3,0.2,0.6,0.2,1
			c0,0.2,0,0.3,0.1,0.5c0,0.2,0.1,0.4,0.1,0.6c0.1,0.4,0.1,0.8,0.2,1.2c0.3,1.2,0.3,2.5,0.5,3.8c0,0.4,0,0.8,0.1,1.1
			c0,0.4,0,0.7,0,1.1c0,0.3,0,0.6,0,0.9c0,0.2,0,0.5-0.1,0.7c0,0.2,0,0.3-0.1,0.4c0,0,0,0.1-0.1,0.1l-0.1,0c0,0-0.1,0-0.1,0
			c0,0-0.1,0-0.1,0c0,0-0.1,0-0.2,0c-0.1,0-0.1,0-0.2,0c-0.1,0-0.2,0-0.3,0c-0.2,0-0.4,0.1-0.7,0.1c-0.1,0-0.2,0-0.4,0
			c-0.3,0-0.5,0.1-0.8,0.1c-0.1,0-0.3,0-0.4,0c-0.3,0-0.7,0-1,0c-0.5,0.1-1.1,0-1.6,0.1c-0.8,0-1.7-0.1-2.5,0c-2,0-4,0-6,0
			c-1.1-0.1-2.2,0.1-3.3-0.1c-0.6,0-1.2,0-1.9,0c-0.6-0.1-1.1,0-1.7-0.1c-0.3,0-0.7,0-1,0c-0.3,0-0.6,0-1,0c-0.3,0-0.5,0-0.8,0
			c-0.2,0-0.4,0-0.7,0c-0.2,0-0.4,0-0.6,0c-0.1,0-0.3,0-0.4,0c-0.1,0-0.1,0-0.2,0c0,0-0.1,0-0.1-0.1v0c0-0.1-0.1-0.1-0.1-0.2
			c0-0.1,0-0.2,0-0.3c0-0.1,0-0.1,0-0.2c0-0.1,0-0.3,0-0.4c0-0.2-0.1-0.4-0.1-0.6c0-0.2,0-0.4,0-0.6c0-0.2,0-0.5,0-0.7
			c0-0.3,0-0.5,0-0.8c0-0.3,0-0.6,0-0.9c0-0.3,0-0.6,0-0.9c0-0.3-0.1-0.7,0-1c-0.1-0.5,0-1.1-0.1-1.6c0-0.6,0-1.1,0-1.7
			c0-0.6,0-1.2,0-1.8c0-0.6,0-1.3,0-1.9c-0.1-0.9,0-1.8,0-2.6c-0.1-1.3,0-2.7,0-4.1c-0.3-2.9-0.3-6.4,0-9.3c0-1.2-0.1-2.4,0-3.6
			c0-0.7-0.1-1.5,0-2.2c0-0.5,0-1,0-1.5c0-0.3,0-0.6,0-0.9c0-0.3,0-0.6,0-0.8c0-0.3,0-0.5,0-0.8c0-0.2,0-0.5,0-0.7
			c0-0.2,0-0.4,0.1-0.6c0-0.2,0-0.4,0-0.6c0-0.1,0-0.1,0-0.2c0-0.1,0-0.3,0.1-0.4c0,0,0-0.1,0-0.1c0,0,0-0.1,0-0.1
			c0-0.1,0-0.1,0.1-0.2C15,24.8,15,24.7,15.1,24.7C15.1,24.7,15.1,24.7,15.1,24.7z"/>
		<path fill="#020202" d="M54.9,48.8L54.9,48.8C54.9,48.8,54.8,48.8,54.9,48.8c-0.1-0.1-0.1-0.2-0.1-0.2c0,0,0-0.1-0.1-0.1
			c0-0.1-0.1-0.1-0.1-0.2c0,0,0-0.1-0.1-0.2c0-0.1-0.1-0.1-0.1-0.2c0-0.1-0.1-0.2-0.1-0.3c0-0.1-0.1-0.2-0.1-0.3
			c-0.1-0.1-0.1-0.2-0.2-0.3c-0.1-0.1-0.1-0.2-0.2-0.3c0-0.1-0.1-0.2-0.2-0.4c-0.1-0.1-0.1-0.3-0.2-0.4c-0.1-0.1-0.1-0.3-0.2-0.4
			c-0.2-0.3-0.3-0.6-0.5-0.9c-0.1-0.3-0.3-0.6-0.5-1c-0.1-0.2-0.2-0.3-0.3-0.5c-0.1-0.2-0.2-0.3-0.3-0.5c-0.2-0.4-0.4-0.7-0.6-1.1
			c-0.5-1.2-1.2-2.3-1.8-3.5c-1.2-1.9-2-4-3-6c-0.2-0.4-0.3-0.7-0.5-1.1c-0.1-0.2-0.2-0.4-0.3-0.6c-0.2-0.4-0.3-0.7-0.5-1.1
			c-0.2-0.5-0.4-1-0.7-1.4c0-0.1-0.1-0.3-0.2-0.5c-0.1-0.1-0.1-0.3-0.2-0.4c-0.1-0.3-0.2-0.5-0.3-0.8c-0.1-0.2-0.2-0.4-0.3-0.7
			c0-0.1-0.1-0.2-0.1-0.3c0-0.1-0.1-0.2-0.1-0.3c0-0.1,0-0.2-0.1-0.3c0-0.1,0-0.1,0-0.2c0,0,0-0.1-0.1-0.2c0,0,0-0.1,0-0.1
			c0,0,0-0.1,0-0.1c0,0,0-0.1,0-0.1c0,0,0.1,0,0.2,0c0.1,0,0.2,0,0.3-0.1c0.1,0,0.2,0,0.3,0c0.3,0,0.6-0.1,0.9-0.1
			c0.2,0,0.3,0,0.5,0c0.4,0,0.8,0,1.2,0c1.1,0,2.1,0,3.2,0c0.4,0,0.8,0,1.2,0c0.3,0,0.7,0,1,0.1c0.1,0,0.3,0,0.4,0
			c0.1,0,0.3,0,0.4,0c0.1,0,0.2,0,0.3,0c0.1,0,0.2,0,0.3,0c0,0,0.1,0,0.1,0c0,0,0,0,0.1,0.1c0,0,0.1,0.1,0.1,0.1
			c0,0.1,0.1,0.1,0.1,0.2c0.1,0.1,0.1,0.2,0.2,0.3c0.1,0.1,0.1,0.2,0.2,0.3c0.1,0.1,0.1,0.2,0.2,0.4c0.1,0.1,0.2,0.3,0.3,0.4
			c0.1,0.1,0.2,0.3,0.3,0.5c0.2,0.3,0.3,0.7,0.5,1c1.3,2.5,2.4,5.2,3.8,7.6c0.1,0.1,0.1,0.3,0.2,0.4c0,0.1,0.1,0.3,0.2,0.4
			c0,0.1,0.1,0.2,0.2,0.4c0,0.1,0.1,0.2,0.1,0.3c0,0.1,0.1,0.2,0.1,0.3c0,0.1,0.1,0.2,0.1,0.3v0v0c0.1-0.1,0.1-0.2,0.1-0.3
			c0-0.1,0.1-0.2,0.1-0.3c0.2-0.5,0.5-1,0.7-1.5c0.1-0.1,0.1-0.3,0.2-0.4c0.2-0.4,0.4-0.7,0.5-1.1c0.2-0.4,0.4-0.8,0.5-1.1
			c0.9-1.8,1.9-3.5,2.6-5.3c0.1-0.2,0.2-0.3,0.3-0.5c0.1-0.2,0.2-0.3,0.3-0.5c0.1-0.1,0.2-0.3,0.3-0.4c0.1-0.1,0.1-0.3,0.2-0.4
			c0.1-0.1,0.1-0.2,0.2-0.4c0-0.1,0.1-0.2,0.2-0.3c0.1-0.2,0.3-0.4,0.4-0.6c0,0,0,0,0.1-0.1c0.1,0,0.3-0.1,0.4-0.1
			c0.1,0,0.2,0,0.4,0c0.1,0,0.3,0,0.4,0c0.3,0,0.7-0.1,1-0.1c1.7,0,3.4-0.2,5.1,0c0.4,0,0.7,0,1.1,0c0.1,0,0.3,0,0.4,0
			c0.1,0,0.3,0,0.4,0c0.1,0,0.2,0,0.3,0c0.1,0,0.2,0,0.3,0c0,0,0.1,0,0.1,0c0.1,0,0,0.2,0,0.2c0,0,0,0.1,0,0.1c0,0.1,0,0.1,0,0.2
			c0,0.1-0.1,0.1-0.1,0.2c0,0.1-0.1,0.2-0.1,0.3c-0.1,0.2-0.2,0.4-0.2,0.6c0,0.1-0.1,0.2-0.1,0.3c0,0.1-0.1,0.2-0.1,0.4
			c-0.1,0.3-0.2,0.5-0.4,0.8c0,0.1-0.1,0.3-0.2,0.4c-0.3,0.7-0.6,1.3-0.9,2c-0.5,0.9-0.9,1.8-1.3,2.7c-0.8,2.1-1.9,4.1-2.9,6
			c-0.4,0.8-0.8,1.6-1.2,2.4c-0.2,0.6-0.6,1.2-0.9,1.7c-0.6,1.3-1.5,2.5-1.9,3.9c-0.1,0.1-0.1,0.2-0.2,0.4c0,0.1-0.1,0.2-0.2,0.4
			c-0.1,0.1-0.1,0.2-0.2,0.4c0,0.1-0.1,0.2-0.1,0.3c0,0.1-0.1,0.2-0.1,0.3c-0.1,0.1-0.1,0.2-0.1,0.3c0,0.1-0.1,0.1-0.1,0.2
			c0,0.1-0.1,0.1-0.1,0.2c0,0.1-0.1,0.2-0.1,0.3c0,0,0,0.1,0,0.1c0,0,0,0,0,0.1v0c0,0,0,0,0,0.1c0,0,0,0.1,0,0.1c0,0,0,0.1,0,0.2
			c0,0.1,0,0.1,0,0.2c0.1,0.2,0.1,0.4,0.1,0.6c0.1,0.5,0.2,1.1,0.3,1.6c0.1,0.5,0.2,1,0.3,1.5c0,0.4,0.1,0.7,0.2,1.1
			c0,0.2,0,0.4,0.1,0.6c0.1,0.4,0.2,0.8,0.2,1.2c0,0.2,0,0.4,0.1,0.6c0.1,0.4,0.2,0.8,0.2,1.2c0.2,0.8,0.2,1.7,0.4,2.5
			c0,0.2,0,0.4,0,0.6c0.1,0.5,0.2,1.1,0.2,1.7c0,0.2,0,0.3,0.1,0.5c0,0.2,0,0.3,0,0.5c0,0.1,0,0.3,0,0.4c0.1,0.5,0,1.2,0,1.7
			c0,0.2,0,0.4-0.1,0.6c0,0.1-0.1,0.2-0.2,0.3c0,0-0.1,0-0.1,0.1c-0.1,0-0.2,0-0.3,0.1c-0.1,0-0.2,0-0.3,0c-0.1,0-0.2,0-0.4,0.1
			c-0.4,0-0.9,0-1.4,0.1c-0.2,0-0.4,0-0.6,0c-0.4,0-0.8,0-1.2,0c-1.1,0-2.2,0.1-3.2,0c-0.4,0-0.9,0-1.3,0c-0.2,0-0.4,0-0.6,0
			c-0.2,0-0.4,0-0.6,0c-0.2,0-0.4,0-0.6,0c-0.2,0-0.4,0-0.6-0.1c-0.2,0-0.3,0-0.5,0c-0.3,0-0.6,0-0.9-0.1c-0.2,0-0.5,0-0.7-0.1
			c-0.1,0-0.2,0-0.3-0.1c-0.1,0-0.2-0.1-0.3-0.1c0,0,0,0,0-0.1c0,0,0-0.1-0.1-0.1c0-0.1,0-0.1,0-0.2c-0.2-0.5,0-1.2,0-1.8
			c0-0.2,0-0.3,0-0.5c0-0.2,0-0.3,0-0.5c0-0.2,0-0.4,0-0.6c0-0.2,0-0.4,0.1-0.6c0-0.6,0.1-1.2,0.2-1.8c0-0.4,0-0.9,0.1-1.3
			c0.2-1.1,0.2-2.2,0.4-3.3c0.1-0.6,0.1-1.3,0.2-1.9c0.3-1,0.3-2.1,0.5-3.2c0-0.3,0-0.5,0.1-0.8c0-0.1,0-0.2,0-0.3
			c0-0.1,0-0.2,0-0.3c0-0.1,0-0.1,0-0.2c0,0,0-0.1,0-0.2C54.9,48.9,54.9,48.9,54.9,48.8L54.9,48.8z"/>
		<path fill="#020202" d="M80.5,24.5c0,0,0.1-0.1,0.2-0.1c0.2-0.1,0.5-0.2,0.7-0.2c0.5-0.1,1.1-0.2,1.6-0.2c0.2,0,0.4,0,0.7,0
			c0.2,0,0.4,0,0.7,0c0.7,0,1.4,0,2,0c0.6,0.1,1.3,0.1,1.9,0.1c0.5,0.1,0.9,0.1,1.3,0.2c0.1,0,0.2,0.1,0.3,0.1c0,0,0.1,0.1,0.1,0.1
			c0,0,0.1,0.1,0.1,0.1c0,0.1-0.1,0.3-0.1,0.4c0,0.1,0,0.3,0,0.4c0,0.3-0.1,0.6-0.1,0.9c0,0.1,0,0.3-0.1,0.4c0,0.3-0.1,0.6-0.1,1
			c-0.1,0.3-0.1,0.7-0.1,1c-0.1,0.3-0.1,0.7-0.1,1c-0.1,0.4-0.1,0.7-0.1,1.1c0,0.2,0,0.3-0.1,0.5c0,0.4-0.1,0.7-0.1,1.1
			c0,0.4,0,0.7-0.1,1.1c0,0.2,0,0.4,0,0.6c0,0.2-0.1,0.4-0.1,0.6c0,0.2,0,0.4,0,0.6c0,0.2,0,0.4,0,0.6c0,0.2,0,0.4,0,0.6
			c0,0.2,0,0.4,0,0.6c0,0.2,0,0.4,0,0.6c0,0.4,0,0.7,0,1.1c-0.1,1-0.1,2.3,0,3.3c0,0.4,0,0.7,0,1.1c0,0.2,0,0.3,0,0.5
			c0,0.3,0.1,0.7,0.1,1c0.1,0.3,0.1,0.7,0.1,1c0,0.1,0,0.3,0.1,0.4c0.1,0.4,0.1,0.9,0.3,1.4c0,0.1,0.1,0.3,0.1,0.4
			c0.1,0.3,0.1,0.6,0.2,0.8c0.1,0.4,0.2,0.8,0.5,1.1c0,0.1,0.1,0.2,0.1,0.4c0.1,0.1,0.1,0.2,0.2,0.3c0.1,0.1,0.1,0.2,0.2,0.3
			c0.1,0.2,0.2,0.4,0.4,0.6c0.1,0.2,0.3,0.4,0.5,0.5c0.1,0.2,0.3,0.3,0.5,0.4c0.1,0.1,0.2,0.1,0.3,0.2c0.2,0.1,0.4,0.3,0.6,0.3
			c0.1,0,0.2,0.1,0.3,0.1c0.3,0.2,0.7,0.2,1.1,0.3c0.1,0,0.2,0,0.4,0c0.3,0,0.5,0,0.8,0c0.5,0,1.1-0.1,1.5-0.3
			c0.1,0,0.2-0.1,0.3-0.1c0.1,0,0.2-0.1,0.3-0.2c0.1,0,0.2-0.1,0.3-0.1c0.3-0.2,0.6-0.4,0.8-0.6c0.1-0.1,0.1-0.2,0.2-0.3
			c0.1-0.1,0.2-0.2,0.3-0.3c0.1-0.1,0.1-0.2,0.2-0.3c0.1-0.1,0.1-0.2,0.2-0.3c0.1-0.1,0.1-0.2,0.2-0.3c0.1-0.2,0.2-0.4,0.4-0.7
			c0.2-0.4,0.3-0.7,0.4-1.1c0-0.1,0.1-0.3,0.1-0.4c0-0.1,0.1-0.3,0.1-0.4c0-0.1,0.1-0.3,0.1-0.4c0-0.3,0.1-0.6,0.1-0.9
			c0-0.1,0.1-0.3,0.1-0.4c0.1-0.5,0.2-1,0.2-1.4c0-0.2,0-0.3,0-0.5c0-0.2,0-0.3,0-0.5c0-0.3,0-0.7,0.1-1c0-1,0.1-2.2,0-3.2
			c0-0.2,0-0.4,0-0.6c0-0.4,0-0.7-0.1-1.1c0-0.2,0-0.4,0-0.6c0-0.2,0-0.4,0-0.6c0-0.2,0-0.4,0-0.6c0-0.4-0.1-0.7-0.1-1.1
			c0-0.2,0-0.4-0.1-0.6c0-0.6-0.1-1.1-0.1-1.7c0-0.4-0.1-0.7-0.1-1.1c0-0.5-0.1-1.1-0.2-1.6c0-0.5-0.1-1-0.2-1.5
			c0-0.5-0.1-1-0.2-1.5c0-0.3-0.1-0.6-0.1-0.9c0-0.3,0-0.6-0.1-0.9c0-0.1,0-0.3-0.1-0.4c0,0,0-0.1,0.1-0.1c0,0,0.1-0.1,0.1-0.1
			c0.1,0,0.2,0,0.3-0.1c0.1,0,0.2,0,0.4-0.1c0.1,0,0.3-0.1,0.4-0.1c0.4-0.1,0.7-0.1,1.1-0.1c0.2,0,0.4,0,0.6,0c0.2,0,0.4,0,0.6,0
			c0.9-0.1,1.8-0.1,2.7,0c0.2,0,0.4,0,0.6,0c0.2,0,0.4,0,0.6,0c0.5,0,0.9,0.1,1.4,0.2c0.1,0,0.2,0,0.3,0.1c0.1,0,0.1,0.1,0.2,0.1
			c0,0,0,0,0.1,0.1c0.1,0.3,0.2,0.6,0.3,0.9c0.1,0.5,0.3,0.9,0.4,1.4c0,0.1,0.1,0.3,0.1,0.5c0.1,0.3,0.1,0.6,0.2,1
			c0,0.1,0.1,0.3,0.1,0.5c0,0.1,0.1,0.3,0.1,0.5c0,0.2,0.1,0.3,0.1,0.5c0,0.2,0.1,0.3,0.1,0.5c0,0.1,0.1,0.3,0.1,0.5
			c0.1,0.3,0.1,0.7,0.2,1c0,0.3,0.1,0.7,0.2,1c0.2,1.4,0.6,2.8,0.6,4.2c0,0.2,0,0.4,0.1,0.6c0,0.3,0,0.7,0.1,1c0,0.2,0,0.4,0,0.6
			c0,0.2,0,0.3,0,0.5c0,0.2,0,0.4,0,0.6c0,0.4,0.1,0.7,0.1,1.1c0,0.3,0,0.7,0,1c0,0.7,0.1,1.4,0,2.1c0,0.4,0,0.7,0,1.1
			c0,0.3,0,0.7-0.1,1c0,0.2,0,0.3,0,0.5c0,0.2,0,0.3,0,0.5c0,0.3,0,0.7-0.1,1c0,0.9-0.2,2.1-0.4,3c0,0.3-0.1,0.7-0.2,1
			c0,0.1-0.1,0.3-0.1,0.5c-0.1,0.3-0.1,0.6-0.2,1c-0.1,0.1-0.1,0.3-0.1,0.4c-0.1,0.6-0.4,1.2-0.6,1.8c-0.1,0.3-0.2,0.6-0.3,0.9
			c-0.1,0.1-0.1,0.3-0.2,0.4c-0.1,0.1-0.1,0.3-0.2,0.4c-0.1,0.1-0.1,0.3-0.2,0.4c-0.1,0.1-0.1,0.3-0.2,0.4c-0.1,0.1-0.1,0.3-0.2,0.4
			c-0.1,0.3-0.2,0.5-0.4,0.8c-0.1,0.1-0.2,0.3-0.3,0.4c-0.1,0.3-0.3,0.5-0.5,0.7c-0.2,0.2-0.4,0.5-0.5,0.7c-0.2,0.2-0.4,0.5-0.6,0.7
			c-0.1,0.1-0.2,0.2-0.3,0.3c-0.3,0.3-0.6,0.6-0.9,0.9c-0.1,0.1-0.2,0.2-0.3,0.3c-0.1,0.1-0.2,0.2-0.3,0.3c-0.1,0.1-0.2,0.2-0.3,0.3
			c-0.2,0.2-0.5,0.4-0.7,0.5c-0.4,0.2-0.7,0.4-1.1,0.7c-0.1,0.1-0.3,0.1-0.4,0.2c-0.1,0.1-0.3,0.1-0.4,0.2c-0.1,0-0.3,0.1-0.4,0.2
			c-0.3,0.1-0.6,0.2-0.9,0.3c-0.1,0.1-0.3,0.1-0.4,0.1c-0.3,0.1-0.6,0.2-0.9,0.3c-0.1,0-0.3,0.1-0.4,0.1c-0.8,0.2-1.7,0.4-2.5,0.4
			c-0.4,0-0.7,0-1.1,0c-0.4,0-0.7,0-1.1,0c-0.2,0-0.3,0-0.5,0c-0.2,0-0.4,0-0.6,0c-0.2,0-0.3,0-0.5-0.1c-0.5,0-1-0.1-1.5-0.2
			c-0.1,0-0.3-0.1-0.5-0.1c-0.1,0-0.3-0.1-0.5-0.1c-0.7-0.1-1.6-0.4-2.2-0.7c-0.1,0-0.3-0.1-0.4-0.2c-0.1,0-0.3-0.1-0.4-0.2
			c-0.1-0.1-0.3-0.1-0.4-0.2c-0.3-0.1-0.5-0.3-0.7-0.4c-0.3-0.1-0.5-0.3-0.7-0.5c-0.2-0.2-0.5-0.4-0.7-0.5c-0.2-0.2-0.4-0.4-0.6-0.6
			c-0.2-0.2-0.4-0.4-0.6-0.6c-0.2-0.2-0.4-0.4-0.6-0.6c-0.2-0.2-0.4-0.5-0.6-0.7c-0.1-0.1-0.2-0.2-0.3-0.4c-0.1-0.1-0.2-0.2-0.3-0.3
			c-0.1-0.1-0.2-0.2-0.3-0.4c-0.1-0.2-0.3-0.5-0.4-0.7c-0.1-0.3-0.3-0.5-0.4-0.8c-0.1-0.1-0.1-0.2-0.2-0.4c-0.1-0.1-0.1-0.3-0.2-0.4
			c-0.1-0.1-0.1-0.3-0.2-0.4c-0.1-0.1-0.1-0.3-0.2-0.4C80.1,57.3,80,57.2,80,57c-0.1-0.3-0.2-0.6-0.3-0.8c-0.2-0.4-0.4-0.9-0.4-1.4
			c-0.1-0.3-0.2-0.6-0.3-0.9c-0.1-0.3-0.1-0.6-0.2-1c-0.1-0.3-0.1-0.6-0.2-1c0-0.2,0-0.3-0.1-0.5c-0.3-0.9-0.4-2.1-0.4-3
			c0-0.2,0-0.3-0.1-0.5c0-0.3,0-0.7-0.1-1c0-0.3,0-0.7-0.1-1c0-0.2,0-0.4,0-0.6c0-0.3,0-0.7,0-1c-0.1-0.7-0.1-1.5,0-2.1
			c0-0.4,0-0.7,0-1.1c0-0.4,0.1-0.7,0.1-1.1c0-0.2,0-0.4,0-0.6c0-0.2,0-0.3,0-0.5c0-0.2,0-0.4,0-0.6c0-0.2,0-0.3,0-0.5
			c0-0.4,0-0.7,0.1-1.1c0-1.5,0.3-3.3,0.7-4.7c0-0.3,0.1-0.7,0.2-1c0-0.2,0-0.3,0.1-0.5c0.1-0.3,0.1-0.7,0.2-1
			c0-0.1,0.1-0.3,0.1-0.5c0-0.2,0.1-0.3,0.1-0.5c0.1-0.3,0.1-0.6,0.2-1c0-0.2,0.1-0.3,0.1-0.5c0-0.2,0.1-0.3,0.1-0.5
			c0.1-0.3,0.2-0.6,0.3-1c0.1-0.3,0.1-0.6,0.3-0.9C80.4,24.6,80.4,24.6,80.5,24.5C80.5,24.5,80.4,24.6,80.5,24.5z"/>
	</g>
</g>
</svg>
