<?xml version="1.0" encoding="utf-8"?>
<!-- Generator: Adobe Illustrator 18.0.0, SVG Export Plug-In . SVG Version: 6.00 Build 0)  -->
<!DOCTYPE svg PUBLIC "-//W3C//DTD SVG 1.0//EN" "http://www.w3.org/TR/2001/REC-SVG-20010904/DTD/svg10.dtd">
<svg version="1.0" id="Camada_1" xmlns="http://www.w3.org/2000/svg" xmlns:xlink="http://www.w3.org/1999/xlink" x="0px" y="0px"
	 viewBox="0 0 311.8 80.8" enable-background="new 0 0 311.8 80.8" xml:space="preserve">
<g>
	<g>
		<path fill="#1B7C09" d="M44.9,40.4c0.1,0.9,0.3,1.7,0.3,2.6c0,0.2,0,0.4,0,0.6c0,0.2,0,0.4,0,0.6c0.1,0.9,0.1,2,0,3
			c0,0.2,0,0.4,0,0.6c0,0.2,0,0.4-0.1,0.6c0,0.4-0.1,0.7-0.1,1.1c-0.1,0.5-0.1,1-0.3,1.5c0,0.2-0.1,0.3-0.1,0.5
			c0,0.1-0.1,0.3-0.1,0.5c-0.1,0.1-0.1,0.3-0.1,0.4c0,0.2-0.1,0.3-0.1,0.5c-0.1,0.3-0.2,0.6-0.3,0.9c0,0.3-0.1,0.6-0.3,0.8
			c-0.1,0.3-0.2,0.5-0.3,0.8c-0.1,0.1-0.1,0.3-0.2,0.4c-0.1,0.1-0.1,0.3-0.2,0.4c-0.1,0.1-0.1,0.2-0.2,0.4c-0.1,0.1-0.1,0.2-0.2,0.4
			c-0.1,0.2-0.3,0.5-0.4,0.7c-0.1,0.1-0.1,0.2-0.2,0.3c-0.1,0.1-0.1,0.2-0.2,0.3c-0.1,0.1-0.1,0.2-0.2,0.3c-0.1,0.2-0.3,0.4-0.5,0.6
			c-0.1,0.1-0.1,0.2-0.2,0.3c-0.1,0.1-0.2,0.2-0.3,0.3c-0.4,0.4-0.7,0.7-1.1,1c-0.1,0.1-0.2,0.2-0.3,0.3c-0.3,0.2-0.6,0.5-0.9,0.6
			c-0.2,0.2-0.4,0.3-0.6,0.4c-0.4,0.3-0.8,0.5-1.2,0.7c-0.2,0.1-0.4,0.2-0.7,0.3c-0.1,0-0.2,0.1-0.3,0.1c-0.1,0-0.2,0.1-0.3,0.1
			c-0.1,0-0.2,0.1-0.3,0.1c-0.1,0-0.2,0.1-0.3,0.1c-0.1,0-0.2,0-0.3,0.1c-0.4,0.2-0.9,0.3-1.4,0.3c-0.1,0-0.2,0-0.4,0.1
			c-0.1,0-0.2,0-0.3,0c-0.1,0-0.2,0-0.4,0c-0.1,0-0.2,0-0.3,0c-0.2,0-0.5,0-0.7,0c-0.2,0-0.5,0-0.7,0c-0.2,0-0.5,0-0.7,0
			c-0.1,0-0.2,0-0.3,0c-0.1,0-0.2,0-0.4,0c-0.1,0-0.2,0-0.4-0.1c-0.6,0-1.2-0.2-1.8-0.3c-0.2-0.1-0.5-0.2-0.7-0.2
			c-0.1,0-0.2-0.1-0.3-0.1c-0.1,0-0.2-0.1-0.4-0.1c-0.1,0-0.2-0.1-0.3-0.1c-0.1,0-0.2-0.1-0.4-0.1c-0.2-0.1-0.4-0.2-0.7-0.3
			c-0.1,0-0.2-0.1-0.3-0.1c-0.1,0-0.2-0.1-0.4-0.1c-0.1-0.1-0.2-0.1-0.3-0.2c-0.1,0-0.2-0.1-0.3-0.2c-0.1,0-0.2-0.1-0.3-0.2
			c-0.1-0.1-0.2-0.1-0.3-0.2c-0.1-0.1-0.2-0.1-0.3-0.2c-0.1-0.1-0.2-0.1-0.3-0.2c-0.1-0.1-0.2-0.1-0.3-0.2c-0.2-0.1-0.4-0.3-0.6-0.4
			c-0.1-0.1-0.2-0.1-0.3-0.2c-0.2-0.2-0.4-0.3-0.6-0.5c-0.4-0.3-0.8-0.7-1.2-1.1c-0.1-0.1-0.2-0.2-0.3-0.3c-0.1-0.1-0.2-0.2-0.3-0.3
			c-0.1-0.1-0.2-0.2-0.3-0.3c-0.2-0.2-0.4-0.4-0.5-0.6c-0.1-0.1-0.2-0.2-0.3-0.3c-0.2-0.3-0.5-0.7-0.7-1c-0.2-0.2-0.3-0.5-0.4-0.7
			c-0.2-0.2-0.3-0.5-0.4-0.7c-0.1-0.1-0.1-0.2-0.2-0.4c0-0.1-0.1-0.2-0.2-0.4c0-0.1-0.1-0.3-0.1-0.4c-0.1-0.3-0.2-0.5-0.4-0.8
			c0-0.1-0.1-0.3-0.1-0.4c-0.1-0.4-0.3-0.8-0.4-1.3c0-0.1-0.1-0.3-0.1-0.4c0-0.1-0.1-0.3-0.1-0.4c0-0.1-0.1-0.3-0.1-0.4
			c0-0.1-0.1-0.3-0.1-0.4c0-0.1,0-0.3-0.1-0.4c-0.2-0.6-0.3-1.2-0.3-1.8c0-0.1,0-0.3-0.1-0.5c0-0.5,0-1-0.1-1.4c0-0.3,0-0.6,0-1
			c0-0.2,0-0.3,0-0.5c0-0.3,0-0.7,0-1c0.1-0.5,0.1-1,0.1-1.5c0.1-0.9,0.2-1.8,0.4-2.6c0-0.2,0-0.3,0.1-0.5c0-0.2,0.1-0.3,0.1-0.5
			c0.1-0.9,0.4-1.9,0.7-2.7c0.1-0.4,0.2-0.7,0.4-1.1c0.2-0.4,0.3-0.7,0.4-1.1c0-0.2,0.1-0.3,0.2-0.5c0.2-0.5,0.4-1,0.7-1.5
			c0.1-0.1,0.1-0.3,0.2-0.4c0.3-0.4,0.5-0.9,0.8-1.3c0.1-0.1,0.2-0.3,0.3-0.4c0.1-0.1,0.2-0.3,0.3-0.4c0.1-0.1,0.2-0.2,0.3-0.4
			c0.3-0.5,0.8-1,1.2-1.5c0.1-0.1,0.2-0.2,0.3-0.4c0.2-0.2,0.4-0.4,0.6-0.6c0.1-0.1,0.2-0.2,0.3-0.3c0.1-0.1,0.2-0.2,0.3-0.3
			c0.1-0.1,0.2-0.2,0.3-0.3c0.1-0.1,0.2-0.2,0.3-0.3c0.1-0.1,0.2-0.2,0.3-0.3c0.2-0.2,0.5-0.3,0.7-0.5c0.2-0.2,0.5-0.3,0.7-0.5
			c0.1-0.1,0.2-0.1,0.4-0.2c0.2-0.1,0.5-0.2,0.7-0.4c0.2-0.1,0.5-0.2,0.7-0.4c0.5-0.2,1-0.4,1.5-0.6c0.1,0,0.2-0.1,0.4-0.1
			c0.1,0,0.2-0.1,0.4-0.1c0.2-0.1,0.5-0.1,0.7-0.2c0.3-0.1,0.5-0.1,0.8-0.1c0.2-0.1,0.5-0.1,0.7-0.1c0.1,0,0.2,0,0.4-0.1
			c0.1,0,0.3,0,0.4,0c0.6-0.1,1.3,0,1.9,0c0.3,0.1,0.7,0.1,1.1,0.1c0.1,0,0.2,0,0.4,0.1c0.4,0,0.7,0.1,1.1,0.2
			c0.2,0.1,0.5,0.1,0.7,0.2c0.1,0,0.2,0.1,0.3,0.1c0.1,0,0.2,0.1,0.3,0.1c0.1,0,0.2,0.1,0.4,0.1c0.1,0,0.2,0.1,0.3,0.1
			c0.1,0,0.2,0.1,0.3,0.1c0.2,0.1,0.5,0.2,0.7,0.3c0.2,0.1,0.4,0.2,0.6,0.3c0.1,0,0.2,0.1,0.3,0.2c0.2,0.1,0.4,0.2,0.6,0.4
			c0.1,0.1,0.2,0.1,0.3,0.2c0.2,0.2,0.4,0.3,0.6,0.4c0.1,0.1,0.2,0.1,0.3,0.2c0.1,0.1,0.2,0.2,0.3,0.3c0.1,0.1,0.2,0.2,0.3,0.3
			c0.2,0.1,0.4,0.3,0.5,0.5c0.1,0.1,0.2,0.2,0.3,0.3c0.1,0.1,0.1,0.2,0.2,0.3c0.1,0.2,0.3,0.4,0.4,0.6c0,0.1,0.1,0.2,0.2,0.3
			c0.1,0.1,0.1,0.2,0.2,0.3c0.1,0.1,0.1,0.2,0.2,0.3c0.1,0.1,0.1,0.2,0.2,0.3c0.1,0.1,0.1,0.2,0.2,0.3c0,0.1,0.1,0.2,0.1,0.3
			c0.1,0.1,0.1,0.2,0.2,0.4c0,0.1,0.1,0.2,0.1,0.3c0.1,0.2,0.2,0.5,0.3,0.7c0,0.1,0.1,0.2,0.1,0.4c0,0.1,0,0.2,0.1,0.4
			c0.2,0.6,0.3,1.4,0.4,2c0,0.1,0,0.3,0,0.4c0,0.1,0,0.3,0,0.4c0,0.5,0.1,1.1-0.3,1.4c-0.1,0.1-0.2,0.1-0.3,0.2
			c-0.3,0.2-0.6,0.3-0.9,0.3c-0.2,0-0.4,0.1-0.6,0.1c-0.2,0-0.4,0.1-0.6,0.1c-0.2,0-0.4,0-0.6,0c-0.4,0-0.9,0-1.3,0
			c-0.6,0-1.2-0.1-1.8-0.2c-0.4-0.1-0.8-0.2-1.2-0.4c-0.1,0-0.1-0.1-0.2-0.2c-0.1,0-0.1-0.1-0.1-0.2c-0.1-0.4-0.1-0.7-0.1-1.1
			c0-0.1,0-0.2-0.1-0.3c0-0.1,0-0.2-0.1-0.3c0-0.1-0.1-0.2-0.1-0.3c-0.1-0.1-0.1-0.2-0.1-0.3c-0.1-0.3-0.3-0.6-0.4-0.8
			c0-0.1-0.1-0.2-0.2-0.3c-0.1-0.1-0.1-0.1-0.2-0.2c-0.2-0.2-0.4-0.5-0.7-0.6c-0.1-0.1-0.1-0.1-0.2-0.2c-0.1-0.1-0.2-0.1-0.3-0.2
			c-0.1,0-0.2-0.1-0.3-0.1c-0.1,0-0.2-0.1-0.3-0.1c-0.1,0-0.2-0.1-0.3-0.1c-0.1,0-0.2-0.1-0.3-0.1c-0.2,0-0.4-0.1-0.6-0.1
			c-0.5,0-1-0.1-1.5-0.1c-0.1,0-0.2,0-0.3,0.1c-0.2,0-0.4,0.1-0.6,0.1c-0.1,0-0.2,0.1-0.3,0.1c-0.1,0-0.2,0.1-0.3,0.1
			c-0.2,0.1-0.4,0.2-0.6,0.3c-0.1,0.1-0.2,0.1-0.3,0.2c-0.4,0.3-0.8,0.6-1.2,0.9c-0.1,0.1-0.2,0.2-0.3,0.3c-0.4,0.4-0.7,0.9-1,1.4
			c-0.1,0.1-0.1,0.3-0.2,0.4c-0.2,0.3-0.3,0.6-0.4,0.9c-0.1,0.1-0.1,0.3-0.2,0.5C25.1,33.7,25,33.9,25,34c-0.2,0.5-0.4,1.1-0.4,1.6
			c-0.1,0.2-0.1,0.4-0.1,0.6c0,0.2-0.1,0.4-0.1,0.6c-0.1,0.4-0.1,0.9-0.1,1.3c0,0.2,0,0.5-0.1,0.7c0,0.2,0,0.5,0,0.7
			c0,0.5,0,1,0,1.5c0,0.2,0,0.5,0,0.7c0,0.2,0,0.4,0,0.7c0,0.4,0.1,0.9,0.2,1.3c0,0.2,0.1,0.4,0.1,0.6c0.1,0.6,0.3,1.2,0.4,1.7
			c0.1,0.2,0.1,0.3,0.2,0.5c0.1,0.2,0.1,0.3,0.2,0.5c0.3,0.6,0.6,1.2,0.9,1.8c0.1,0.1,0.2,0.2,0.3,0.4c0.2,0.3,0.4,0.5,0.6,0.7
			c0.2,0.4,0.6,0.6,0.9,0.9c0.1,0.1,0.2,0.2,0.3,0.3c0.1,0.1,0.2,0.2,0.3,0.3c0.2,0.2,0.4,0.3,0.7,0.4c0.1,0.1,0.2,0.1,0.3,0.2
			c0.1,0,0.2,0.1,0.3,0.1c0.1,0,0.2,0.1,0.3,0.1c0.1,0,0.2,0.1,0.3,0.1c0.3,0.1,0.7,0.2,1,0.2c0.1,0,0.2,0,0.3,0c0.2,0,0.4,0,0.6,0
			c0.5-0.1,1.1-0.1,1.6-0.3c0.3-0.1,0.6-0.2,0.9-0.4c0.1-0.1,0.2-0.1,0.3-0.2c0.1-0.1,0.2-0.1,0.3-0.2c0.4-0.2,0.6-0.6,0.9-1
			c0-0.1,0.1-0.2,0.2-0.3c0-0.1,0.1-0.2,0.1-0.3c0-0.1,0.1-0.2,0.1-0.3c0-0.1,0.1-0.2,0.1-0.3c0-0.1,0.1-0.2,0.1-0.4
			c0.1-0.4,0.2-0.8,0.2-1.2c0-0.1,0-0.3,0-0.4c0.1-0.8-0.6-0.4-1.2-0.3c-0.4,0-0.8,0.1-1.2,0.1c-0.2,0-0.4,0-0.7,0
			c-0.2,0-0.4,0-0.6,0c-0.4,0-0.8,0-1.2,0c-0.3,0-0.6,0-0.8-0.1c-0.2-0.1-0.3-0.2-0.3-0.3c0-0.1-0.1-0.2-0.1-0.3
			c0-0.1-0.1-0.3-0.1-0.4c-0.1-0.1-0.1-0.3-0.1-0.5c0-0.2-0.1-0.3-0.1-0.5c-0.1-0.2-0.1-0.4-0.1-0.6c-0.3-1.2-0.2-2.5-0.4-3.7
			c0-0.2,0-0.3,0-0.5c0-0.1,0-0.3,0-0.4c0-0.1,0-0.2,0.1-0.3c0-0.1,0.1-0.1,0.1-0.2c0,0,0.1-0.1,0.1-0.1c0.2,0,0.3,0,0.5-0.1
			c0.1,0,0.2,0,0.3,0c0.1,0,0.3,0,0.4,0c0.1,0,0.3,0,0.4,0c0.3,0,0.6-0.1,1-0.1c0.2,0,0.4,0,0.6,0c0.4,0,0.8,0,1.2,0
			c1.2-0.1,2.6-0.1,3.8,0c0.2,0,0.4,0,0.6,0c0.4,0,0.8,0,1.2,0.1c0.4,0,0.7,0,1.1,0.1c0.5,0,1,0.1,1.5,0.2c0.3,0.1,0.5,0.1,0.8,0.2
			c0.1,0,0.2,0.1,0.3,0.1c0.2,0.1,0.3,0.2,0.4,0.3C44.8,40.2,44.9,40.3,44.9,40.4C45,40.7,44.9,40.4,44.9,40.4z"/>
		<path fill="#020202" d="M48.6,63.4L48.6,63.4c0-0.1,0-0.4,0-0.4c0-0.1,0-0.1,0-0.2c0,0,0-0.1,0-0.2c0-0.1,0-0.1,0.1-0.2
			c0-0.2,0.1-0.3,0.1-0.5c0.2-0.5,0.3-1,0.4-1.5c0.1-0.2,0.1-0.5,0.2-0.7c0-0.1,0-0.3,0.1-0.4c0-0.1,0.1-0.3,0.1-0.4
			c0-0.1,0.1-0.3,0.1-0.4c0-0.1,0.1-0.3,0.1-0.4c0.1-0.3,0.2-0.6,0.2-0.9c0.1-0.3,0.2-0.7,0.3-1c0.1-0.9,0.5-1.8,0.7-2.7
			c0.2-0.6,0.3-1.2,0.5-1.7c0.1-0.4,0.2-0.8,0.4-1.2c0-0.2,0.1-0.4,0.1-0.6c0.1-0.4,0.2-0.8,0.4-1.2c0-0.2,0.1-0.4,0.1-0.6
			c0.1-0.2,0.1-0.4,0.2-0.7c0.1-0.2,0.1-0.4,0.2-0.6c0.1-0.2,0.1-0.4,0.2-0.6c0.1-0.2,0.1-0.4,0.2-0.7c0.1-0.2,0.1-0.4,0.2-0.6
			c0.1-0.2,0.1-0.4,0.2-0.7c0.1-0.2,0.1-0.4,0.2-0.6c0.1-0.2,0.1-0.4,0.2-0.7c0.1-0.2,0.1-0.4,0.2-0.6c0.1-0.2,0.1-0.4,0.2-0.7
			c0.1-0.2,0.1-0.4,0.2-0.7c0.1-0.2,0.1-0.4,0.2-0.6c0-0.2,0.1-0.4,0.2-0.7c0-0.2,0.1-0.4,0.2-0.6c0-0.2,0.1-0.4,0.2-0.7
			c0-0.2,0.1-0.4,0.2-0.6c0-0.2,0.1-0.4,0.2-0.6c0-0.2,0.1-0.4,0.2-0.6c0-0.2,0.1-0.4,0.2-0.6c0-0.2,0.1-0.4,0.2-0.6
			c0-0.2,0.1-0.4,0.2-0.6c0-0.2,0.1-0.4,0.1-0.6c0.1-0.2,0.1-0.4,0.2-0.6c0.1-0.4,0.2-0.8,0.4-1.2c0-0.2,0.1-0.4,0.1-0.6
			c0.1-0.4,0.2-0.7,0.3-1.1c0.3-0.7,0.4-1.4,0.7-2.1c0.1-0.5,0.3-1,0.4-1.5c0.1-0.5,0.3-0.9,0.4-1.3c0.1-0.3,0.2-0.5,0.3-0.8
			c0-0.1,0.1-0.3,0.1-0.4c0-0.1,0.1-0.2,0.1-0.3c0-0.1,0.1-0.2,0.1-0.4c0.1-0.2,0.2-0.4,0.2-0.6c0-0.2,0.1-0.4,0.2-0.5
			c0.1-0.2,0.1-0.5,0.2-0.7c0-0.1,0-0.2,0.1-0.3c0,0,0-0.1,0-0.1c0,0,0-0.1,0-0.1c0,0,0-0.1,0.1-0.1v0c0,0,0.1,0,0.1-0.1
			c0.1,0,0.1,0,0.2-0.1c0.1,0,0.2,0,0.3,0c0.1,0,0.2,0,0.4-0.1c0.2,0,0.3,0,0.5,0c0.2,0,0.3,0,0.5,0c0.2,0,0.4,0,0.6,0
			c0.4,0,0.8,0,1.3,0c0.7,0,1.3,0,2,0c0.6,0.1,1.2,0,1.9,0.1c0.2,0,0.3,0,0.5,0c0.2,0,0.3,0,0.5,0c0.1,0,0.3,0,0.4,0
			c0.1,0,0.2,0,0.3,0c0.1,0,0.2,0,0.3,0.1c0,0,0.1,0,0.1,0v0c0,0,0,0,0,0c0,0,0,0,0,0.1c0,0,0,0.1,0,0.1c0,0,0,0.1,0.1,0.1
			c0,0,0,0.1,0,0.1c0,0.1,0,0.1,0.1,0.2c0.1,0.2,0.2,0.4,0.2,0.7c0,0.1,0,0.2,0.1,0.3c0.1,0.2,0.1,0.4,0.2,0.6c0,0.1,0,0.2,0.1,0.3
			c0,0.1,0.1,0.2,0.1,0.4c0,0.1,0.1,0.2,0.1,0.4c0,0.1,0.1,0.2,0.1,0.4c0,0.1,0.1,0.3,0.1,0.4c0,0.1,0.1,0.3,0.1,0.4
			c0.2,0.4,0.3,0.9,0.4,1.4c0.2,0.7,0.4,1.3,0.6,2c0.2,0.5,0.3,1.1,0.5,1.6c0.1,0.4,0.2,0.8,0.3,1.1c0.1,0.4,0.2,0.8,0.4,1.2
			c0,0.2,0.1,0.4,0.1,0.6c0.1,0.2,0.1,0.4,0.2,0.6c0.1,0.4,0.2,0.8,0.4,1.3c0,0.2,0.1,0.4,0.2,0.6c0,0.2,0.1,0.4,0.2,0.6
			c0,0.2,0.1,0.4,0.2,0.7c0,0.2,0.1,0.4,0.2,0.6c0,0.2,0.1,0.4,0.1,0.7c0.1,0.2,0.1,0.4,0.2,0.6c0.1,0.2,0.1,0.4,0.2,0.7
			c0,0.2,0.1,0.4,0.2,0.7c0,0.2,0.1,0.4,0.2,0.7c0,0.2,0.1,0.4,0.2,0.7c0,0.2,0.1,0.4,0.2,0.7c0,0.2,0.1,0.4,0.2,0.7
			c0,0.2,0.1,0.4,0.2,0.7c0,0.2,0.1,0.4,0.2,0.6c0,0.2,0.1,0.4,0.1,0.7c0.1,0.2,0.1,0.4,0.2,0.7c0.1,0.2,0.1,0.4,0.2,0.7
			c0.1,0.2,0.1,0.4,0.2,0.6c0.1,0.4,0.2,0.9,0.4,1.3c0,0.2,0.1,0.4,0.1,0.6c0.1,0.4,0.2,0.8,0.4,1.3c0.1,0.4,0.2,0.8,0.3,1.2
			c0.1,0.4,0.2,0.8,0.3,1.2c0.4,1,0.7,2.2,0.9,3.3c0.1,0.3,0.2,0.7,0.3,1c0.1,0.3,0.2,0.6,0.3,1c0,0.1,0.1,0.3,0.1,0.4
			c0,0.1,0.1,0.3,0.1,0.4c0,0.1,0.1,0.3,0.1,0.4c0,0.1,0.1,0.3,0.1,0.4c0,0.3,0.1,0.5,0.2,0.8c0.1,0.5,0.2,1.1,0.4,1.6
			c0,0.1,0,0.1,0.1,0.2c0,0.1,0,0.3,0.1,0.4c0,0.1,0,0.1,0,0.2c0,0.1,0,0.2,0.1,0.3c0,0.1,0,0.2,0,0.3h0c0,0,0,0.1-0.1,0.1
			c0,0-0.1,0-0.2,0.1c-0.1,0-0.2,0-0.3,0c-0.1,0-0.2,0-0.4,0.1c-0.3,0-0.6,0.1-0.9,0.1c-0.4,0-0.7,0-1.1,0.1c-1.3,0-2.6,0-3.9,0
			c-0.4,0-0.8,0-1.3-0.1c-0.2,0-0.4,0-0.6,0c-0.2,0-0.4,0-0.6,0c-0.1,0-0.3,0-0.5,0c-0.1,0-0.3,0-0.4-0.1c-0.2,0-0.5,0-0.7-0.1
			c-0.2,0-0.3-0.1-0.4-0.2c0-0.1,0-0.1-0.1-0.2c0-0.1,0-0.2-0.1-0.3c-0.1-0.2-0.2-0.5-0.2-0.7c-0.1-0.3-0.2-0.6-0.3-1
			c-0.3-2.3-1.3-4.5-1.6-6.8c-0.1-0.4-0.2-0.7-0.3-1.1c0-0.2-0.1-0.3-0.1-0.5c-0.1-0.4-0.1-0.9-0.3-1.3c0-0.1,0-0.2,0-0.3
			c0-0.1,0-0.1-0.1-0.2c0-0.1,0-0.2,0-0.2c0,0-0.1,0-0.2,0c-0.4,0-0.9-0.1-1.3-0.1c-0.2,0-0.4,0-0.6,0c-0.8-0.1-1.7-0.1-2.6,0
			c-0.3,0-0.7,0-1,0.1c-0.1,0-0.2,0.1-0.3,0.1c-0.1,0-0.1,0.1-0.2,0.1v0c0,0,0,0.1,0,0.1c0,0.1,0,0.1,0,0.2
			c-0.1,0.4-0.1,0.8-0.3,1.1c0,0.1,0,0.3-0.1,0.5c-0.1,0.2-0.1,0.3-0.1,0.5c0,0.2-0.1,0.4-0.1,0.6c-0.2,1.7-0.8,3.5-1.2,5.2
			c-0.1,0.8-0.4,1.5-0.5,2.3c0,0.2-0.1,0.3-0.1,0.5c0,0.1-0.1,0.3-0.1,0.4c0,0.1,0,0.2-0.1,0.3c0,0.1-0.1,0.2-0.1,0.3
			c0,0.1-0.1,0.1-0.1,0.2c0,0,0,0.1,0,0.1c0,0-0.1,0.1-0.1,0.1c-0.1,0-0.1,0-0.2,0.1c-0.5,0.1-1.1,0.3-1.6,0.3c-0.2,0-0.4,0-0.6,0.1
			c-0.4,0-0.8,0.1-1.2,0.1c-0.2,0-0.4,0-0.6,0c-0.7,0.1-1.3,0-2,0.1c-0.4,0-0.8,0-1.3,0c-0.2,0-0.4,0-0.6,0c-0.2,0-0.4,0-0.6,0
			c-0.2,0-0.3,0-0.5,0c-0.1,0-0.3,0-0.4-0.1c-0.2,0-0.5,0-0.7-0.1c-0.1,0-0.1,0-0.2-0.1C48.7,63.5,48.6,63.4,48.6,63.4z M67.8,46.5
			c0,0,0-0.1,0-0.2c0-0.1,0-0.1,0-0.2c0-0.2-0.1-0.4-0.1-0.6c0-0.5-0.2-1-0.3-1.5c-0.1-0.4-0.2-0.9-0.3-1.3c-0.1-0.3-0.1-0.6-0.2-1
			c0-0.3-0.1-0.7-0.2-1c0-0.2,0-0.3-0.1-0.5c-0.1-0.4-0.1-0.7-0.2-1.1c0-0.2-0.1-0.4-0.1-0.6c-0.1-0.4-0.1-0.7-0.2-1.1
			c-0.2-0.5-0.1-1.1-0.3-1.6c0-0.2,0-0.4-0.1-0.6c-0.1-0.2-0.1-0.4-0.1-0.6c-0.1-0.7-0.1-0.7-0.1,0c0,0.2,0,0.4-0.1,0.6
			c0,0.2-0.1,0.4-0.1,0.6c0,0.5-0.2,1.2-0.3,1.7c0,0.2-0.1,0.4-0.1,0.6c0,0.2-0.1,0.4-0.1,0.6c0,0.2-0.1,0.4-0.1,0.6
			c0,0.2-0.1,0.4-0.1,0.6c0,0.2-0.1,0.4-0.1,0.6c0,0.2-0.1,0.4-0.1,0.6c0,0.2-0.1,0.4-0.1,0.6c0,0.2,0,0.3-0.1,0.5
			c-0.1,0.3-0.1,0.7-0.2,1c0,0.2,0,0.3-0.1,0.5c-0.1,0.4-0.2,0.9-0.3,1.3c-0.1,0.2-0.1,0.5-0.1,0.7c0,0.3-0.1,0.8-0.2,1.1
			c-0.2,0.3,0.4,0.2,0.6,0.3c0.2,0,0.3,0,0.5,0c0.4,0,0.8,0,1.2,0c0.2,0,0.4,0,0.6,0c0.2,0,0.4,0,0.6-0.1c0.1,0,0.3,0,0.5,0
			C67.4,46.6,67.6,46.5,67.8,46.5C67.8,46.4,67.7,46.5,67.8,46.5z"/>
		<path fill="#020202" d="M115.4,40.4c0.1,0.9,0.3,1.7,0.3,2.6c0,0.2,0,0.4,0,0.6c0,0.2,0,0.4,0,0.6c0.1,0.9,0.1,2,0,3
			c0,0.2,0,0.4,0,0.6c0,0.2,0,0.4-0.1,0.6c0,0.4-0.1,0.7-0.1,1.1c-0.1,0.5-0.1,1-0.3,1.5c0,0.2-0.1,0.3-0.1,0.5
			c0,0.1-0.1,0.3-0.1,0.5c-0.1,0.1-0.1,0.3-0.1,0.4c0,0.2-0.1,0.3-0.1,0.5c-0.1,0.3-0.2,0.6-0.3,0.9c0,0.3-0.1,0.6-0.3,0.8
			c-0.1,0.3-0.2,0.5-0.3,0.8c-0.1,0.1-0.1,0.3-0.2,0.4c-0.1,0.1-0.1,0.3-0.2,0.4c-0.1,0.1-0.1,0.2-0.2,0.4c-0.1,0.1-0.1,0.2-0.2,0.4
			c-0.1,0.2-0.3,0.5-0.4,0.7c-0.1,0.1-0.1,0.2-0.2,0.3c-0.1,0.1-0.1,0.2-0.2,0.3c-0.1,0.1-0.1,0.2-0.2,0.3c-0.1,0.2-0.3,0.4-0.5,0.6
			c-0.1,0.1-0.1,0.2-0.2,0.3c-0.1,0.1-0.2,0.2-0.3,0.3c-0.4,0.4-0.7,0.7-1.1,1c-0.1,0.1-0.2,0.2-0.3,0.3c-0.3,0.2-0.6,0.5-0.9,0.6
			c-0.2,0.2-0.4,0.3-0.6,0.4c-0.4,0.3-0.8,0.5-1.2,0.7c-0.2,0.1-0.4,0.2-0.7,0.3c-0.1,0-0.2,0.1-0.3,0.1c-0.1,0-0.2,0.1-0.3,0.1
			c-0.1,0-0.2,0.1-0.3,0.1c-0.1,0-0.2,0.1-0.3,0.1c-0.1,0-0.2,0-0.3,0.1c-0.4,0.2-0.9,0.3-1.4,0.3c-0.1,0-0.2,0-0.4,0.1
			c-0.1,0-0.2,0-0.3,0c-0.1,0-0.2,0-0.4,0c-0.1,0-0.2,0-0.3,0c-0.2,0-0.5,0-0.7,0c-0.2,0-0.5,0-0.7,0c-0.2,0-0.5,0-0.7,0
			c-0.1,0-0.2,0-0.3,0c-0.1,0-0.2,0-0.4,0c-0.1,0-0.2,0-0.4-0.1c-0.6,0-1.2-0.2-1.8-0.3c-0.2-0.1-0.5-0.2-0.7-0.2
			c-0.1,0-0.2-0.1-0.3-0.1c-0.1,0-0.2-0.1-0.4-0.1c-0.1,0-0.2-0.1-0.3-0.1C95.1,63,95,63,94.8,63c-0.2-0.1-0.4-0.2-0.7-0.3
			c-0.1,0-0.2-0.1-0.3-0.1c-0.1,0-0.2-0.1-0.4-0.1c-0.1-0.1-0.2-0.1-0.3-0.2c-0.1,0-0.2-0.1-0.3-0.2c-0.1,0-0.2-0.1-0.3-0.2
			c-0.1-0.1-0.2-0.1-0.3-0.2c-0.1-0.1-0.2-0.1-0.3-0.2c-0.1-0.1-0.2-0.1-0.3-0.2c-0.1-0.1-0.2-0.1-0.3-0.2c-0.2-0.1-0.4-0.3-0.6-0.4
			c-0.1-0.1-0.2-0.1-0.3-0.2c-0.2-0.2-0.4-0.3-0.6-0.5c-0.4-0.3-0.8-0.7-1.2-1.1c-0.1-0.1-0.2-0.2-0.3-0.3c-0.1-0.1-0.2-0.2-0.3-0.3
			c-0.1-0.1-0.2-0.2-0.3-0.3c-0.2-0.2-0.4-0.4-0.5-0.6c-0.1-0.1-0.2-0.2-0.3-0.3c-0.2-0.3-0.5-0.7-0.7-1c-0.2-0.2-0.3-0.5-0.4-0.7
			c-0.2-0.2-0.3-0.5-0.4-0.7c-0.1-0.1-0.1-0.2-0.2-0.4c0-0.1-0.1-0.2-0.2-0.4c0-0.1-0.1-0.3-0.1-0.4c-0.1-0.3-0.2-0.5-0.4-0.8
			c0-0.1-0.1-0.3-0.1-0.4c-0.1-0.4-0.3-0.8-0.4-1.3c0-0.1-0.1-0.3-0.1-0.4c0-0.1-0.1-0.3-0.1-0.4c0-0.1-0.1-0.3-0.1-0.4
			c0-0.1-0.1-0.3-0.1-0.4c0-0.1,0-0.3-0.1-0.4c-0.2-0.6-0.3-1.2-0.3-1.8c0-0.1,0-0.3-0.1-0.5c0-0.5,0-1-0.1-1.4c0-0.3,0-0.6,0-1
			c0-0.2,0-0.3,0-0.5c0-0.3,0-0.7,0-1c0.1-0.5,0.1-1,0.1-1.5c0.1-0.9,0.2-1.8,0.4-2.6c0-0.2,0-0.3,0.1-0.5c0-0.2,0.1-0.3,0.1-0.5
			c0.1-0.9,0.4-1.9,0.7-2.7c0.1-0.4,0.2-0.7,0.4-1.1c0.2-0.4,0.3-0.7,0.4-1.1c0-0.2,0.1-0.3,0.2-0.5c0.2-0.5,0.4-1,0.7-1.5
			c0.1-0.1,0.1-0.3,0.2-0.4c0.3-0.4,0.5-0.9,0.8-1.3c0.1-0.1,0.2-0.3,0.3-0.4c0.1-0.1,0.2-0.3,0.3-0.4c0.1-0.1,0.2-0.2,0.3-0.4
			c0.3-0.5,0.8-1,1.2-1.5c0.1-0.1,0.2-0.2,0.3-0.4c0.2-0.2,0.4-0.4,0.6-0.6c0.1-0.1,0.2-0.2,0.3-0.3c0.1-0.1,0.2-0.2,0.3-0.3
			c0.1-0.1,0.2-0.2,0.3-0.3c0.1-0.1,0.2-0.2,0.3-0.3c0.1-0.1,0.2-0.2,0.3-0.3c0.2-0.2,0.5-0.3,0.7-0.5c0.2-0.2,0.5-0.3,0.7-0.5
			c0.1-0.1,0.2-0.1,0.4-0.2c0.2-0.1,0.5-0.2,0.7-0.4c0.2-0.1,0.5-0.2,0.7-0.4c0.5-0.2,1-0.4,1.5-0.6c0.1,0,0.2-0.1,0.4-0.1
			c0.1,0,0.2-0.1,0.4-0.1c0.2-0.1,0.5-0.1,0.7-0.2c0.3-0.1,0.5-0.1,0.8-0.1c0.2-0.1,0.5-0.1,0.7-0.1c0.1,0,0.2,0,0.4-0.1
			c0.1,0,0.3,0,0.4,0c0.6-0.1,1.3,0,1.9,0c0.3,0.1,0.7,0.1,1.1,0.1c0.1,0,0.2,0,0.4,0.1c0.4,0,0.7,0.1,1.1,0.2
			c0.2,0.1,0.5,0.1,0.7,0.2c0.1,0,0.2,0.1,0.3,0.1c0.1,0,0.2,0.1,0.3,0.1c0.1,0,0.2,0.1,0.4,0.1c0.1,0,0.2,0.1,0.3,0.1
			c0.1,0,0.2,0.1,0.3,0.1c0.2,0.1,0.5,0.2,0.7,0.3c0.2,0.1,0.4,0.2,0.6,0.3c0.1,0,0.2,0.1,0.3,0.2c0.2,0.1,0.4,0.2,0.6,0.4
			c0.1,0.1,0.2,0.1,0.3,0.2c0.2,0.2,0.4,0.3,0.6,0.4c0.1,0.1,0.2,0.1,0.3,0.2c0.1,0.1,0.2,0.2,0.3,0.3c0.1,0.1,0.2,0.2,0.3,0.3
			c0.2,0.1,0.4,0.3,0.5,0.5c0.1,0.1,0.2,0.2,0.3,0.3c0.1,0.1,0.1,0.2,0.2,0.3c0.1,0.2,0.3,0.4,0.4,0.6c0,0.1,0.1,0.2,0.2,0.3
			c0.1,0.1,0.1,0.2,0.2,0.3c0.1,0.1,0.1,0.2,0.2,0.3c0.1,0.1,0.1,0.2,0.2,0.3c0.1,0.1,0.1,0.2,0.2,0.3c0,0.1,0.1,0.2,0.1,0.3
			c0.1,0.1,0.1,0.2,0.2,0.4c0,0.1,0.1,0.2,0.1,0.3c0.1,0.2,0.2,0.5,0.3,0.7c0,0.1,0.1,0.2,0.1,0.4c0,0.1,0,0.2,0.1,0.4
			c0.2,0.6,0.3,1.4,0.4,2c0,0.1,0,0.3,0,0.4c0,0.1,0,0.3,0,0.4c0,0.5,0.1,1.1-0.3,1.4c-0.1,0.1-0.2,0.1-0.3,0.2
			c-0.3,0.2-0.6,0.3-0.9,0.3c-0.2,0-0.4,0.1-0.6,0.1c-0.2,0-0.4,0.1-0.6,0.1c-0.2,0-0.4,0-0.6,0c-0.4,0-0.9,0-1.3,0
			c-0.6,0-1.2-0.1-1.8-0.2c-0.4-0.1-0.8-0.2-1.2-0.4c-0.1,0-0.1-0.1-0.2-0.2c-0.1,0-0.1-0.1-0.1-0.2c-0.1-0.4-0.1-0.7-0.1-1.1
			c0-0.1,0-0.2-0.1-0.3c0-0.1,0-0.2-0.1-0.3c0-0.1-0.1-0.2-0.1-0.3c-0.1-0.1-0.1-0.2-0.1-0.3c-0.1-0.3-0.3-0.6-0.4-0.8
			c0-0.1-0.1-0.2-0.2-0.3c-0.1-0.1-0.1-0.1-0.2-0.2c-0.2-0.2-0.4-0.5-0.7-0.6c-0.1-0.1-0.1-0.1-0.2-0.2c-0.1-0.1-0.2-0.1-0.3-0.2
			c-0.1,0-0.2-0.1-0.3-0.1c-0.1,0-0.2-0.1-0.3-0.1c-0.1,0-0.2-0.1-0.3-0.1c-0.1,0-0.2-0.1-0.3-0.1c-0.2,0-0.4-0.1-0.6-0.1
			c-0.5,0-1-0.1-1.5-0.1c-0.1,0-0.2,0-0.3,0.1c-0.2,0-0.4,0.1-0.6,0.1c-0.1,0-0.2,0.1-0.3,0.1c-0.1,0-0.2,0.1-0.3,0.1
			c-0.2,0.1-0.4,0.2-0.6,0.3c-0.1,0.1-0.2,0.1-0.3,0.2c-0.4,0.3-0.8,0.6-1.2,0.9c-0.1,0.1-0.2,0.2-0.3,0.3c-0.4,0.4-0.7,0.9-1,1.4
			c-0.1,0.1-0.1,0.3-0.2,0.4c-0.2,0.3-0.3,0.6-0.4,0.9c-0.1,0.1-0.1,0.3-0.2,0.5c-0.1,0.1-0.1,0.3-0.2,0.5c-0.2,0.5-0.4,1.1-0.4,1.6
			c-0.1,0.2-0.1,0.4-0.1,0.6c0,0.2-0.1,0.4-0.1,0.6c-0.1,0.4-0.1,0.9-0.1,1.3c0,0.2,0,0.5-0.1,0.7c0,0.2,0,0.5,0,0.7
			c0,0.5,0,1,0,1.5c0,0.2,0,0.5,0,0.7c0,0.2,0,0.4,0,0.7c0,0.4,0.1,0.9,0.2,1.3c0,0.2,0.1,0.4,0.1,0.6c0.1,0.6,0.3,1.2,0.4,1.7
			c0.1,0.2,0.1,0.3,0.2,0.5c0.1,0.2,0.1,0.3,0.2,0.5c0.3,0.6,0.6,1.2,0.9,1.8c0.1,0.1,0.2,0.2,0.3,0.4c0.2,0.3,0.4,0.5,0.6,0.7
			c0.2,0.4,0.6,0.6,0.9,0.9c0.1,0.1,0.2,0.2,0.3,0.3c0.1,0.1,0.2,0.2,0.3,0.3c0.2,0.2,0.4,0.3,0.7,0.4c0.1,0.1,0.2,0.1,0.3,0.2
			c0.1,0,0.2,0.1,0.3,0.1c0.1,0,0.2,0.1,0.3,0.1c0.1,0,0.2,0.1,0.3,0.1c0.3,0.1,0.7,0.2,1,0.2c0.1,0,0.2,0,0.3,0c0.2,0,0.4,0,0.6,0
			c0.5-0.1,1.1-0.1,1.6-0.3c0.3-0.1,0.6-0.2,0.9-0.4c0.1-0.1,0.2-0.1,0.3-0.2c0.1-0.1,0.2-0.1,0.3-0.2c0.4-0.2,0.6-0.6,0.9-1
			c0-0.1,0.1-0.2,0.2-0.3c0-0.1,0.1-0.2,0.1-0.3c0-0.1,0.1-0.2,0.1-0.3c0-0.1,0.1-0.2,0.1-0.3c0-0.1,0.1-0.2,0.1-0.4
			c0.1-0.4,0.2-0.8,0.2-1.2c0-0.1,0-0.3,0-0.4c0.1-0.8-0.6-0.4-1.2-0.3c-0.4,0-0.8,0.1-1.2,0.1c-0.2,0-0.4,0-0.7,0
			c-0.2,0-0.4,0-0.6,0c-0.4,0-0.8,0-1.2,0c-0.3,0-0.6,0-0.8-0.1c-0.2-0.1-0.3-0.2-0.3-0.3c0-0.1-0.1-0.2-0.1-0.3
			c0-0.1-0.1-0.3-0.1-0.4c-0.1-0.1-0.1-0.3-0.1-0.5c0-0.2-0.1-0.3-0.1-0.5c-0.1-0.2-0.1-0.4-0.1-0.6c-0.3-1.2-0.2-2.5-0.4-3.7
			c0-0.2,0-0.3,0-0.5c0-0.1,0-0.3,0-0.4c0-0.1,0-0.2,0.1-0.3c0-0.1,0.1-0.1,0.1-0.2c0,0,0.1-0.1,0.1-0.1c0.2,0,0.3,0,0.5-0.1
			c0.1,0,0.2,0,0.3,0c0.1,0,0.3,0,0.4,0c0.1,0,0.3,0,0.4,0c0.3,0,0.6-0.1,1-0.1c0.2,0,0.4,0,0.6,0c0.4,0,0.8,0,1.2,0
			c1.2-0.1,2.6-0.1,3.8,0c0.2,0,0.4,0,0.6,0c0.4,0,0.8,0,1.2,0.1c0.4,0,0.7,0,1.1,0.1c0.5,0,1,0.1,1.5,0.2c0.3,0.1,0.5,0.1,0.8,0.2
			c0.1,0,0.2,0.1,0.3,0.1c0.2,0.1,0.3,0.2,0.4,0.3C115.3,40.2,115.3,40.3,115.4,40.4C115.4,40.7,115.3,40.4,115.4,40.4z"/>
		<path fill="#020202" d="M119,63.4L119,63.4c0-0.1,0-0.4,0-0.4c0-0.1,0-0.1,0-0.2c0,0,0-0.1,0-0.2c0-0.1,0-0.1,0.1-0.2
			c0-0.2,0.1-0.3,0.1-0.5c0.2-0.5,0.3-1,0.4-1.5c0.1-0.2,0.1-0.5,0.2-0.7c0-0.1,0-0.3,0.1-0.4c0-0.1,0.1-0.3,0.1-0.4
			c0-0.1,0.1-0.3,0.1-0.4c0-0.1,0.1-0.3,0.1-0.4c0.1-0.3,0.2-0.6,0.2-0.9c0.1-0.3,0.2-0.7,0.3-1c0.1-0.9,0.5-1.8,0.7-2.7
			c0.2-0.6,0.3-1.2,0.5-1.7c0.1-0.4,0.2-0.8,0.4-1.2c0-0.2,0.1-0.4,0.1-0.6c0.1-0.4,0.2-0.8,0.4-1.2c0-0.2,0.1-0.4,0.1-0.6
			c0.1-0.2,0.1-0.4,0.2-0.7c0.1-0.2,0.1-0.4,0.2-0.6c0.1-0.2,0.1-0.4,0.2-0.6c0.1-0.2,0.1-0.4,0.2-0.7c0.1-0.2,0.1-0.4,0.2-0.6
			c0.1-0.2,0.1-0.4,0.2-0.7c0.1-0.2,0.1-0.4,0.2-0.6c0.1-0.2,0.1-0.4,0.2-0.7c0.1-0.2,0.1-0.4,0.2-0.6c0.1-0.2,0.1-0.4,0.2-0.7
			c0.1-0.2,0.1-0.4,0.2-0.7c0.1-0.2,0.1-0.4,0.2-0.6c0-0.2,0.1-0.4,0.2-0.7c0-0.2,0.1-0.4,0.2-0.6c0-0.2,0.1-0.4,0.2-0.7
			c0-0.2,0.1-0.4,0.2-0.6c0-0.2,0.1-0.4,0.2-0.6c0-0.2,0.1-0.4,0.2-0.6c0-0.2,0.1-0.4,0.2-0.6c0-0.2,0.1-0.4,0.2-0.6
			c0-0.2,0.1-0.4,0.2-0.6c0-0.2,0.1-0.4,0.1-0.6c0.1-0.2,0.1-0.4,0.2-0.6c0.1-0.4,0.2-0.8,0.4-1.2c0-0.2,0.1-0.4,0.1-0.6
			c0.1-0.4,0.2-0.7,0.3-1.1c0.3-0.7,0.4-1.4,0.7-2.1c0.1-0.5,0.3-1,0.4-1.5c0.1-0.5,0.3-0.9,0.4-1.3c0.1-0.3,0.2-0.5,0.3-0.8
			c0-0.1,0.1-0.3,0.1-0.4c0-0.1,0.1-0.2,0.1-0.3c0-0.1,0.1-0.2,0.1-0.4c0.1-0.2,0.2-0.4,0.2-0.6c0-0.2,0.1-0.4,0.2-0.5
			c0.1-0.2,0.1-0.5,0.2-0.7c0-0.1,0-0.2,0.1-0.3c0,0,0-0.1,0-0.1c0,0,0-0.1,0-0.1c0,0,0-0.1,0.1-0.1v0c0,0,0.1,0,0.1-0.1
			c0.1,0,0.1,0,0.2-0.1c0.1,0,0.2,0,0.3,0c0.1,0,0.2,0,0.4-0.1c0.2,0,0.3,0,0.5,0c0.2,0,0.3,0,0.5,0c0.2,0,0.4,0,0.6,0
			c0.4,0,0.8,0,1.3,0c0.7,0,1.3,0,2,0c0.6,0.1,1.2,0,1.9,0.1c0.2,0,0.3,0,0.5,0c0.2,0,0.3,0,0.5,0c0.1,0,0.3,0,0.4,0
			c0.1,0,0.2,0,0.3,0c0.1,0,0.2,0,0.3,0.1c0,0,0.1,0,0.1,0v0c0,0,0,0,0,0c0,0,0,0,0,0.1c0,0,0,0.1,0,0.1c0,0,0,0.1,0.1,0.1
			c0,0,0,0.1,0,0.1c0,0.1,0,0.1,0.1,0.2c0.1,0.2,0.2,0.4,0.2,0.7c0,0.1,0,0.2,0.1,0.3c0.1,0.2,0.1,0.4,0.2,0.6c0,0.1,0,0.2,0.1,0.3
			c0,0.1,0.1,0.2,0.1,0.4c0,0.1,0.1,0.2,0.1,0.4c0,0.1,0.1,0.2,0.1,0.4c0,0.1,0.1,0.3,0.1,0.4c0,0.1,0.1,0.3,0.1,0.4
			c0.2,0.4,0.3,0.9,0.4,1.4c0.2,0.7,0.4,1.3,0.6,2c0.2,0.5,0.3,1.1,0.5,1.6c0.1,0.4,0.2,0.8,0.3,1.1c0.1,0.4,0.2,0.8,0.4,1.2
			c0,0.2,0.1,0.4,0.1,0.6c0.1,0.2,0.1,0.4,0.2,0.6c0.1,0.4,0.2,0.8,0.4,1.3c0,0.2,0.1,0.4,0.2,0.6c0,0.2,0.1,0.4,0.2,0.6
			c0,0.2,0.1,0.4,0.2,0.7c0,0.2,0.1,0.4,0.2,0.6c0,0.2,0.1,0.4,0.1,0.7c0.1,0.2,0.1,0.4,0.2,0.6c0.1,0.2,0.1,0.4,0.2,0.7
			c0,0.2,0.1,0.4,0.2,0.7c0,0.2,0.1,0.4,0.2,0.7c0,0.2,0.1,0.4,0.2,0.7c0,0.2,0.1,0.4,0.2,0.7c0,0.2,0.1,0.4,0.2,0.7
			c0,0.2,0.1,0.4,0.2,0.7c0,0.2,0.1,0.4,0.2,0.6c0,0.2,0.1,0.4,0.1,0.7c0.1,0.2,0.1,0.4,0.2,0.7c0.1,0.2,0.1,0.4,0.2,0.7
			c0.1,0.2,0.1,0.4,0.2,0.6c0.1,0.4,0.2,0.9,0.4,1.3c0,0.2,0.1,0.4,0.1,0.6c0.1,0.4,0.2,0.8,0.4,1.3c0.1,0.4,0.2,0.8,0.3,1.2
			c0.1,0.4,0.2,0.8,0.3,1.2c0.4,1,0.7,2.2,0.9,3.3c0.1,0.3,0.2,0.7,0.3,1c0.1,0.3,0.2,0.6,0.3,1c0,0.1,0.1,0.3,0.1,0.4
			c0,0.1,0.1,0.3,0.1,0.4c0,0.1,0.1,0.3,0.1,0.4c0,0.1,0.1,0.3,0.1,0.4c0,0.3,0.1,0.5,0.2,0.8c0.1,0.5,0.2,1.1,0.4,1.6
			c0,0.1,0,0.1,0.1,0.2c0,0.1,0,0.3,0.1,0.4c0,0.1,0,0.1,0,0.2c0,0.1,0,0.2,0.1,0.3c0,0.1,0,0.2,0,0.3h0c0,0,0,0.1-0.1,0.1
			c0,0-0.1,0-0.2,0.1c-0.1,0-0.2,0-0.3,0c-0.1,0-0.2,0-0.4,0.1c-0.3,0-0.6,0.1-0.9,0.1c-0.4,0-0.7,0-1.1,0.1c-1.3,0-2.6,0-3.9,0
			c-0.4,0-0.8,0-1.3-0.1c-0.2,0-0.4,0-0.6,0c-0.2,0-0.4,0-0.6,0c-0.1,0-0.3,0-0.5,0c-0.1,0-0.3,0-0.4-0.1c-0.2,0-0.5,0-0.7-0.1
			c-0.2,0-0.3-0.1-0.4-0.2c0-0.1,0-0.1-0.1-0.2c0-0.1,0-0.2-0.1-0.3c-0.1-0.2-0.2-0.5-0.2-0.7c-0.1-0.3-0.2-0.6-0.3-1
			c-0.3-2.3-1.3-4.5-1.6-6.8c-0.1-0.4-0.2-0.7-0.3-1.1c0-0.2-0.1-0.3-0.1-0.5c-0.1-0.4-0.1-0.9-0.3-1.3c0-0.1,0-0.2,0-0.3
			c0-0.1,0-0.1-0.1-0.2c0-0.1,0-0.2,0-0.2c0,0-0.1,0-0.2,0c-0.4,0-0.9-0.1-1.3-0.1c-0.2,0-0.4,0-0.6,0c-0.8-0.1-1.7-0.1-2.6,0
			c-0.3,0-0.7,0-1,0.1c-0.1,0-0.2,0.1-0.3,0.1c-0.1,0-0.1,0.1-0.2,0.1v0c0,0,0,0.1,0,0.1c0,0.1,0,0.1,0,0.2
			c-0.1,0.4-0.1,0.8-0.3,1.1c0,0.1,0,0.3-0.1,0.5c-0.1,0.2-0.1,0.3-0.1,0.5c0,0.2-0.1,0.4-0.1,0.6c-0.2,1.7-0.8,3.5-1.2,5.2
			c-0.1,0.8-0.4,1.5-0.5,2.3c0,0.2-0.1,0.3-0.1,0.5c0,0.1-0.1,0.3-0.1,0.4c0,0.1,0,0.2-0.1,0.3c0,0.1-0.1,0.2-0.1,0.3
			c0,0.1-0.1,0.1-0.1,0.2c0,0,0,0.1,0,0.1c0,0-0.1,0.1-0.1,0.1c-0.1,0-0.1,0-0.2,0.1c-0.5,0.1-1.1,0.3-1.6,0.3c-0.2,0-0.4,0-0.6,0.1
			c-0.4,0-0.8,0.1-1.2,0.1c-0.2,0-0.4,0-0.6,0c-0.7,0.1-1.3,0-2,0.1c-0.4,0-0.8,0-1.3,0c-0.2,0-0.4,0-0.6,0c-0.2,0-0.4,0-0.6,0
			c-0.2,0-0.3,0-0.5,0c-0.1,0-0.3,0-0.4-0.1c-0.2,0-0.5,0-0.7-0.1c-0.1,0-0.1,0-0.2-0.1C119.1,63.5,119,63.4,119,63.4z M138.2,46.5
			c0,0,0-0.1,0-0.2c0-0.1,0-0.1,0-0.2c0-0.2-0.1-0.4-0.1-0.6c0-0.5-0.2-1-0.3-1.5c-0.1-0.4-0.2-0.9-0.3-1.3c-0.1-0.3-0.1-0.6-0.2-1
			c0-0.3-0.1-0.7-0.2-1c0-0.2,0-0.3-0.1-0.5c-0.1-0.4-0.1-0.7-0.2-1.1c0-0.2-0.1-0.4-0.1-0.6c-0.1-0.4-0.1-0.7-0.2-1.1
			c-0.2-0.5-0.1-1.1-0.3-1.6c0-0.2,0-0.4-0.1-0.6c-0.1-0.2-0.1-0.4-0.1-0.6c-0.1-0.7-0.1-0.7-0.1,0c0,0.2,0,0.4-0.1,0.6
			c0,0.2-0.1,0.4-0.1,0.6c0,0.5-0.2,1.2-0.3,1.7c0,0.2-0.1,0.4-0.1,0.6c0,0.2-0.1,0.4-0.1,0.6c0,0.2-0.1,0.4-0.1,0.6
			c0,0.2-0.1,0.4-0.1,0.6c0,0.2-0.1,0.4-0.1,0.6c0,0.2-0.1,0.4-0.1,0.6c0,0.2-0.1,0.4-0.1,0.6c0,0.2,0,0.3-0.1,0.5
			c-0.1,0.3-0.1,0.7-0.2,1c0,0.2,0,0.3-0.1,0.5c-0.1,0.4-0.2,0.9-0.3,1.3c-0.1,0.2-0.1,0.5-0.1,0.7c0,0.3-0.1,0.8-0.2,1.1
			c-0.2,0.3,0.4,0.2,0.6,0.3c0.2,0,0.3,0,0.5,0c0.4,0,0.8,0,1.2,0c0.2,0,0.4,0,0.6,0c0.2,0,0.4,0,0.6-0.1c0.1,0,0.3,0,0.5,0
			C137.8,46.6,138,46.5,138.2,46.5C138.2,46.4,138.2,46.5,138.2,46.5z"/>
		<path fill="#020202" d="M156,20.7c0.1,0,0.2-0.1,0.3-0.1c0.1,0,0.2,0,0.3-0.1c0.1,0,0.3,0,0.4-0.1c0.2,0,0.3,0,0.5,0
			c0.2,0,0.3,0,0.5,0c0.4,0,0.8,0,1.2,0c0.2,0,0.4,0,0.6,0c0.2,0,0.4,0,0.6,0c0.2,0,0.4,0,0.6,0.1c0.9,0,2,0.1,2.9,0.4
			c0.3,0,0.6,0.1,0.9,0.2c0.2,0,0.4,0.1,0.6,0.2c0,0,0.1,0,0.1,0.1c0,0,0,0,0,0.1c0,0,0,0,0.1,0.1c0,0,0,0.1,0.1,0.1
			c0,0.1,0,0.2,0.1,0.3c0,0,0,0.1,0.1,0.2c0,0,0,0.1,0,0.2c0,0.1,0,0.1,0,0.2c0,0.1,0,0.1,0.1,0.2c0,0.1,0,0.2,0,0.3
			c0,0.1,0,0.2,0,0.3c0,0.1,0,0.2,0,0.3c0,0.1,0,0.2,0,0.3c0,0.1,0,0.2,0,0.3c0,0.1,0,0.2,0,0.3c0,0.1,0,0.2,0,0.4
			c0,0.1,0,0.2,0,0.4c0,0.1,0,0.2,0,0.4c0,0.3,0,0.5,0.1,0.8c0,0.1,0,0.3,0,0.4c0,0.3,0.1,0.6,0.1,0.9c0,0.1,0,0.3,0,0.4
			c0,0.3,0,0.6,0,1c0.1,0.5,0,1,0.1,1.5c0,0.4,0,0.7,0,1.1c0.1,0.5,0,1.1,0,1.6c0.1,0.8,0,1.5,0,2.3c0.1,1,0,1.9,0.1,2.9
			c0,1-0.1,2,0,3c0,1-0.1,2,0,3c0,0.8,0,1.5,0,2.3c0.1,0.6,0,1.1,0,1.7c0.1,0.5,0,1.1,0,1.7c0.1,0.5,0,1.1,0.1,1.6c0,0.3,0,0.7,0,1
			c0,0.3,0,0.6,0,1c0,0,0,0,0.1,0c0.1,0,0.1,0,0.2,0c0.1,0,0.2,0,0.3,0c0.3-0.1,0.7-0.1,1.1-0.1c0.8-0.1,1.7-0.2,2.5-0.4
			c0.2,0,0.4,0,0.6-0.1c0.4-0.1,0.8-0.1,1.2-0.2c0.2,0,0.4-0.1,0.6-0.1c0.2,0,0.4-0.1,0.6-0.1c0.2,0,0.4-0.1,0.6-0.1
			c0.2,0,0.4-0.1,0.6-0.1c0.2,0,0.4-0.1,0.6-0.1c0.2,0,0.4-0.1,0.6-0.1c0.2,0,0.4-0.1,0.6-0.1c0.2,0,0.4,0,0.6-0.1
			c0.4-0.1,0.7-0.1,1.1-0.2c0.5-0.1,1-0.2,1.6-0.3c0.3,0,0.6,0,0.9-0.1c0.2,0,0.5,0,0.7-0.1c0.2,0,0.3,0,0.5,0c0.1,0,0.1,0,0.2,0
			c0,0,0.1,0,0.1,0c0,0,0.1,0.1,0.1,0.1c0,0.1,0.1,0.3,0.1,0.4c0,0.1,0,0.2,0,0.3c0,0.1,0,0.3,0,0.4c0,0.1,0,0.3,0,0.4
			c0,0.3-0.1,0.7-0.1,1c0,0.4-0.1,0.8-0.1,1.1c-0.1,0.4-0.1,0.8-0.1,1.2c-0.1,0.4-0.1,0.8-0.2,1.3c0,0.2,0,0.4-0.1,0.6
			c0,0.2-0.1,0.4-0.1,0.6c0,0.2-0.1,0.4-0.1,0.6c0,0.2-0.1,0.4-0.1,0.6c-0.1,0.4-0.1,0.7-0.2,1.1c-0.1,0.1-0.1,0.3-0.1,0.5
			c0,0.1-0.1,0.3-0.1,0.4c0,0.1-0.1,0.2-0.1,0.4c0,0.1-0.1,0.2-0.1,0.3c0,0.1-0.1,0.2-0.1,0.3c0,0,0,0.1-0.1,0.2
			c0,0-0.1,0.1-0.1,0.1h0c0,0-0.1,0-0.1,0c-0.1,0-0.1,0-0.1,0c-0.1,0-0.3,0.1-0.4,0.1c-0.1,0-0.2,0-0.3,0c-0.1,0-0.2,0-0.3,0
			c-0.1,0-0.2,0-0.3,0c-0.3,0-0.5,0.1-0.8,0.1c-0.1,0-0.3,0-0.4,0c-0.3,0-0.6,0.1-0.9,0.1c-0.3,0-0.7,0-1,0c-0.2,0-0.4,0-0.6,0
			c-0.4,0-0.8,0-1.2,0c-0.6,0.1-1.3,0-1.9,0.1c-0.7,0-1.3,0-2,0c-0.7,0-1.4,0-2,0c-2.6,0.3-5.3,0-7.9,0c-0.7-0.1-1.4,0-2.2-0.1
			c-0.3,0-0.6,0-0.9,0c-0.3,0-0.6,0-0.9,0c-0.2,0-0.5,0-0.7,0c-0.2,0-0.4,0-0.6-0.1c-0.1,0-0.2,0-0.3,0c-0.1,0-0.2,0-0.3-0.1
			c0,0-0.1,0-0.1,0c0,0,0,0,0,0c0,0,0,0,0,0l0,0c0-0.1,0-0.2,0-0.2c0,0,0-0.1,0-0.1c-0.1-0.2,0-0.4-0.1-0.6c0-0.2,0-0.3,0-0.5
			c0-0.3,0-0.6,0-0.9c0-0.4,0-0.7,0-1.1c0-0.6,0-1.2,0-1.7c-0.6-3.3,0-7.1,0-10.4c0.1-1.1,0-2.2,0-3.4c0.1-0.9,0-1.8,0.1-2.7
			c0-0.7,0-1.4,0-2.1c0-0.7,0-1.3,0-2c0-0.4,0-0.9,0-1.3c0-0.4,0-0.9,0-1.3c0.1-0.6,0-1.3,0.1-1.9c0-0.4,0-0.8,0-1.2
			c0-0.4,0-0.8,0-1.2c0-0.4,0-0.8,0-1.1c0-0.2,0-0.4,0-0.6c0-0.4,0-0.7,0-1.1c0-0.3,0-0.7,0.1-1c0-0.1,0-0.3,0-0.5c0-0.3,0-0.6,0-1
			c0-0.3,0-0.6,0.1-0.8c0-0.1,0-0.3,0-0.4c0-0.2,0.1-0.5,0.1-0.7c0-0.1,0-0.2,0-0.4c0-0.2,0-0.4,0.1-0.7c0-0.1,0-0.2,0-0.3
			c0-0.2,0-0.4,0.1-0.6c0-0.1,0-0.1,0-0.2c0,0,0-0.1,0-0.2c0-0.1,0-0.2,0.1-0.3c0,0,0-0.1,0-0.1c0,0,0-0.1,0-0.1c0,0,0-0.1,0.1-0.1
			C155.9,20.7,155.9,20.7,156,20.7C156.1,20.6,155.9,20.7,156,20.7z"/>
		<path fill="#020202" d="M186,21c0,0,0.1-0.1,0.2-0.1c0.2-0.1,0.5-0.2,0.7-0.2c0.5-0.1,1.1-0.2,1.6-0.2c0.2,0,0.4,0,0.7,0
			c0.2,0,0.4,0,0.7,0c0.7,0,1.4,0,2,0c0.6,0.1,1.3,0.1,1.9,0.1c0.5,0.1,0.9,0.1,1.3,0.2c0.1,0,0.2,0.1,0.3,0.1c0,0,0.1,0.1,0.1,0.1
			c0,0,0.1,0.1,0.1,0.1c0,0.1-0.1,0.3-0.1,0.4c0,0.1,0,0.3,0,0.4c0,0.3-0.1,0.6-0.1,0.9c0,0.1,0,0.3-0.1,0.4c0,0.3-0.1,0.6-0.1,1
			c-0.1,0.3-0.1,0.7-0.1,1c-0.1,0.3-0.1,0.7-0.1,1c-0.1,0.4-0.1,0.7-0.1,1.1c0,0.2,0,0.3-0.1,0.5c0,0.4-0.1,0.7-0.1,1.1
			c0,0.4,0,0.7-0.1,1.1c0,0.2,0,0.4,0,0.6c0,0.2-0.1,0.4-0.1,0.6c0,0.2,0,0.4,0,0.6c0,0.2,0,0.4,0,0.6c0,0.2,0,0.4,0,0.6
			c0,0.2,0,0.4,0,0.6c0,0.2,0,0.4,0,0.6c0,0.4,0,0.7,0,1.1c-0.1,1-0.1,2.3,0,3.3c0,0.4,0,0.7,0,1.1c0,0.2,0,0.3,0,0.5
			c0,0.3,0.1,0.7,0.1,1c0.1,0.3,0.1,0.7,0.1,1c0,0.1,0,0.3,0.1,0.4c0.1,0.4,0.1,0.9,0.3,1.4c0,0.1,0.1,0.3,0.1,0.4
			c0.1,0.3,0.1,0.6,0.2,0.8c0.1,0.4,0.2,0.8,0.5,1.1c0,0.1,0.1,0.2,0.1,0.4c0.1,0.1,0.1,0.2,0.2,0.3c0.1,0.1,0.1,0.2,0.2,0.3
			c0.1,0.2,0.2,0.4,0.4,0.6c0.1,0.2,0.3,0.4,0.5,0.5c0.1,0.2,0.3,0.3,0.5,0.4c0.1,0.1,0.2,0.1,0.3,0.2c0.2,0.1,0.4,0.3,0.6,0.3
			c0.1,0,0.2,0.1,0.3,0.1c0.3,0.2,0.7,0.2,1.1,0.3c0.1,0,0.2,0,0.4,0c0.3,0,0.5,0,0.8,0c0.5,0,1.1-0.1,1.5-0.3
			c0.1,0,0.2-0.1,0.3-0.1c0.1,0,0.2-0.1,0.3-0.2c0.1,0,0.2-0.1,0.3-0.1c0.3-0.2,0.6-0.4,0.8-0.6c0.1-0.1,0.1-0.2,0.2-0.3
			c0.1-0.1,0.2-0.2,0.3-0.3c0.1-0.1,0.1-0.2,0.2-0.3c0.1-0.1,0.1-0.2,0.2-0.3c0.1-0.1,0.1-0.2,0.2-0.3c0.1-0.2,0.2-0.4,0.4-0.7
			c0.2-0.4,0.3-0.7,0.4-1.1c0-0.1,0.1-0.3,0.1-0.4c0-0.1,0.1-0.3,0.1-0.4c0-0.1,0.1-0.3,0.1-0.4c0-0.3,0.1-0.6,0.1-0.9
			c0-0.1,0.1-0.3,0.1-0.4c0.1-0.5,0.2-1,0.2-1.4c0-0.2,0-0.3,0-0.5c0-0.2,0-0.3,0-0.5c0-0.3,0-0.7,0.1-1c0-1,0.1-2.2,0-3.2
			c0-0.2,0-0.4,0-0.6c0-0.4,0-0.7-0.1-1.1c0-0.2,0-0.4,0-0.6c0-0.2,0-0.4,0-0.6c0-0.2,0-0.4,0-0.6c0-0.4-0.1-0.7-0.1-1.1
			c0-0.2,0-0.4-0.1-0.6c0-0.6-0.1-1.1-0.1-1.7c0-0.4-0.1-0.7-0.1-1.1c0-0.5-0.1-1.1-0.2-1.6c0-0.5-0.1-1-0.2-1.5
			c0-0.5-0.1-1-0.2-1.5c0-0.3-0.1-0.6-0.1-0.9c0-0.3,0-0.6-0.1-0.9c0-0.1,0-0.3-0.1-0.4c0,0,0-0.1,0.1-0.1c0,0,0.1-0.1,0.1-0.1
			c0.1,0,0.2,0,0.3-0.1c0.1,0,0.2,0,0.4-0.1c0.1,0,0.3-0.1,0.4-0.1c0.4-0.1,0.7-0.1,1.1-0.1c0.2,0,0.4,0,0.6,0c0.2,0,0.4,0,0.6,0
			c0.9-0.1,1.8-0.1,2.7,0c0.2,0,0.4,0,0.6,0c0.2,0,0.4,0,0.6,0c0.5,0,0.9,0.1,1.4,0.2c0.1,0,0.2,0,0.3,0.1c0.1,0,0.1,0.1,0.2,0.1
			c0,0,0,0,0.1,0.1c0.1,0.3,0.2,0.6,0.3,0.9c0.1,0.5,0.3,0.9,0.4,1.4c0,0.1,0.1,0.3,0.1,0.5c0.1,0.3,0.1,0.6,0.2,1
			c0,0.1,0.1,0.3,0.1,0.5c0,0.1,0.1,0.3,0.1,0.5c0,0.2,0.1,0.3,0.1,0.5c0,0.2,0.1,0.3,0.1,0.5c0,0.1,0.1,0.3,0.1,0.5
			c0.1,0.3,0.1,0.7,0.2,1c0,0.3,0.1,0.7,0.2,1c0.2,1.4,0.6,2.8,0.6,4.2c0,0.2,0,0.4,0.1,0.6c0,0.3,0,0.7,0.1,1c0,0.2,0,0.4,0,0.6
			c0,0.2,0,0.3,0,0.5c0,0.2,0,0.4,0,0.6c0,0.4,0.1,0.7,0.1,1.1c0,0.3,0,0.7,0,1c0,0.7,0.1,1.4,0,2.1c0,0.4,0,0.7,0,1.1
			c0,0.3,0,0.7-0.1,1c0,0.2,0,0.3,0,0.5c0,0.2,0,0.3,0,0.5c0,0.3,0,0.7-0.1,1c0,0.9-0.2,2.1-0.4,3c0,0.3-0.1,0.7-0.2,1
			c0,0.1-0.1,0.3-0.1,0.5c-0.1,0.3-0.1,0.6-0.2,1c-0.1,0.1-0.1,0.3-0.1,0.4c-0.1,0.6-0.4,1.2-0.6,1.8c-0.1,0.3-0.2,0.6-0.3,0.9
			c-0.1,0.1-0.1,0.3-0.2,0.4c-0.1,0.1-0.1,0.3-0.2,0.4c-0.1,0.1-0.1,0.3-0.2,0.4c-0.1,0.1-0.1,0.3-0.2,0.4c-0.1,0.1-0.1,0.3-0.2,0.4
			c-0.1,0.3-0.2,0.5-0.4,0.8c-0.1,0.1-0.2,0.3-0.3,0.4c-0.1,0.3-0.3,0.5-0.5,0.7c-0.2,0.2-0.4,0.5-0.5,0.7c-0.2,0.2-0.4,0.5-0.6,0.7
			c-0.1,0.1-0.2,0.2-0.3,0.3c-0.3,0.3-0.6,0.6-0.9,0.9c-0.1,0.1-0.2,0.2-0.3,0.3c-0.1,0.1-0.2,0.2-0.3,0.3c-0.1,0.1-0.2,0.2-0.3,0.3
			c-0.2,0.2-0.5,0.4-0.7,0.5c-0.4,0.2-0.7,0.4-1.1,0.7c-0.1,0.1-0.3,0.1-0.4,0.2c-0.1,0.1-0.3,0.1-0.4,0.2c-0.1,0-0.3,0.1-0.4,0.2
			c-0.3,0.1-0.6,0.2-0.9,0.3c-0.1,0.1-0.3,0.1-0.4,0.1c-0.3,0.1-0.6,0.2-0.9,0.3c-0.1,0-0.3,0.1-0.4,0.1c-0.8,0.2-1.7,0.4-2.5,0.4
			c-0.4,0-0.7,0-1.1,0c-0.4,0-0.7,0-1.1,0c-0.2,0-0.3,0-0.5,0c-0.2,0-0.4,0-0.6,0c-0.2,0-0.3,0-0.5-0.1c-0.5,0-1-0.1-1.5-0.2
			c-0.1,0-0.3-0.1-0.5-0.1c-0.1,0-0.3-0.1-0.5-0.1c-0.7-0.1-1.6-0.4-2.2-0.7c-0.1,0-0.3-0.1-0.4-0.2c-0.1,0-0.3-0.1-0.4-0.2
			c-0.1-0.1-0.3-0.1-0.4-0.2c-0.3-0.1-0.5-0.3-0.7-0.4c-0.3-0.1-0.5-0.3-0.7-0.5c-0.2-0.2-0.5-0.4-0.7-0.5c-0.2-0.2-0.4-0.4-0.6-0.6
			c-0.2-0.2-0.4-0.4-0.6-0.6c-0.2-0.2-0.4-0.4-0.6-0.6c-0.2-0.2-0.4-0.5-0.6-0.7c-0.1-0.1-0.2-0.2-0.3-0.4c-0.1-0.1-0.2-0.2-0.3-0.3
			c-0.1-0.1-0.2-0.2-0.3-0.4c-0.1-0.2-0.3-0.5-0.4-0.7c-0.1-0.3-0.3-0.5-0.4-0.8c-0.1-0.1-0.1-0.2-0.2-0.4c-0.1-0.1-0.1-0.3-0.2-0.4
			c-0.1-0.1-0.1-0.3-0.2-0.4c-0.1-0.1-0.1-0.3-0.2-0.4c-0.1-0.1-0.1-0.3-0.2-0.4c-0.1-0.3-0.2-0.6-0.3-0.8c-0.2-0.4-0.4-0.9-0.4-1.4
			c-0.1-0.3-0.2-0.6-0.3-0.9c-0.1-0.3-0.1-0.6-0.2-1c-0.1-0.3-0.1-0.6-0.2-1c0-0.2,0-0.3-0.1-0.5c-0.3-0.9-0.4-2.1-0.4-3
			c0-0.2,0-0.3-0.1-0.5c0-0.3,0-0.7-0.1-1c0-0.3,0-0.7-0.1-1c0-0.2,0-0.4,0-0.6c0-0.3,0-0.7,0-1c-0.1-0.7-0.1-1.5,0-2.1
			c0-0.4,0-0.7,0-1.1c0-0.4,0.1-0.7,0.1-1.1c0-0.2,0-0.4,0-0.6c0-0.2,0-0.3,0-0.5c0-0.2,0-0.4,0-0.6c0-0.2,0-0.3,0-0.5
			c0-0.4,0-0.7,0.1-1.1c0-1.5,0.3-3.3,0.7-4.7c0-0.3,0.1-0.7,0.2-1c0-0.2,0-0.3,0.1-0.5c0.1-0.3,0.1-0.7,0.2-1
			c0-0.1,0.1-0.3,0.1-0.5c0-0.2,0.1-0.3,0.1-0.5c0.1-0.3,0.1-0.6,0.2-1c0-0.2,0.1-0.3,0.1-0.5c0-0.2,0.1-0.3,0.1-0.5
			c0.1-0.3,0.2-0.6,0.3-1c0.1-0.3,0.1-0.6,0.3-0.9C185.9,21.1,186,21.1,186,21C186.1,21,186,21.1,186,21z"/>
		<path fill="#020202" d="M222.6,63.6c0-0.3-0.1-0.6,0-0.8c0-0.4,0-0.7,0-1.1c0.1-0.5,0-0.9,0.1-1.4c0-0.4,0-0.8,0-1.3
			c0-0.3,0-0.6,0-1c0-0.3,0.1-0.7,0-1c0-0.3,0-0.7,0-1c0-0.4,0.1-0.8,0-1.1c0-0.4,0.1-0.8,0-1.1c0-0.4,0.1-0.8,0-1.2
			c0-0.4,0-0.8,0.1-1.3c0-0.2,0-0.4,0-0.6c0-0.4,0-0.9,0-1.3c0-0.4,0-0.9,0.1-1.3c0-0.2,0-0.4,0-0.7c0-0.2,0-0.5,0-0.7
			c0-0.5,0.1-0.9,0.1-1.4c0-0.2,0-0.4,0-0.7c0-0.5,0-0.9,0.1-1.4c0-0.2,0-0.4,0-0.7c0-0.2,0-0.5,0-0.7c0-0.5,0-0.9,0.1-1.4
			c0-0.2,0-0.5,0-0.7c0-0.2,0-0.5,0-0.7c0-0.2,0-0.4,0-0.7c0-0.5,0-0.9,0.1-1.4c0-0.2,0-0.4,0-0.7c0-0.2,0-0.4,0-0.7
			c0-0.2,0-0.4,0-0.7c0-0.2,0-0.4,0-0.7c0-0.4,0-0.8,0.1-1.3c0-0.2,0-0.4,0-0.6c0-0.2,0-0.4,0-0.6c0-0.2,0-0.4,0-0.6
			c0-0.2,0-0.4,0-0.6c0-0.2,0-0.4,0-0.6c0-0.2,0-0.4,0-0.6c0-0.4,0-0.7,0.1-1.1c0-0.2,0-0.4,0-0.6c0-0.2,0-0.3,0-0.5
			c0-0.2,0-0.3,0-0.5c0-0.1,0-0.3,0-0.5c0-0.2,0-0.3,0-0.5c0-0.1,0-0.3,0-0.4c0-0.1,0-0.3,0-0.4c0-0.1,0-0.3,0-0.4
			c0-0.1,0-0.3,0-0.4c0-0.2,0-0.5,0.1-0.7c0-0.1,0-0.2,0-0.3c0-0.1,0-0.2,0-0.3c0-0.1,0-0.2,0-0.3c0-0.1,0-0.2,0-0.3
			c0-0.1,0-0.2,0-0.3c0-0.1,0-0.1,0-0.2c0-0.1,0-0.1,0-0.2c0,0,0-0.1,0-0.2c0,0,0-0.1,0-0.1c0,0,0-0.1,0-0.1c0-0.1,0-0.1,0.1-0.2
			l0,0c0,0,0.1,0,0.2-0.1c0.1,0,0.1-0.1,0.2-0.1c0.4-0.1,0.8-0.2,1.2-0.2c0.2,0,0.3,0,0.5-0.1c0.2,0,0.4,0,0.6,0c0.2,0,0.4,0,0.6,0
			c0.8-0.1,1.6,0,2.5,0c0.4,0,0.8,0.1,1.2,0c0.2,0,0.4,0,0.6,0c0.2,0,0.4,0,0.6,0c0.2,0,0.3,0,0.5,0c0.2,0,0.3,0,0.5,0.1
			c0.3,0,0.6,0,0.9,0.1c0.1,0,0.2,0,0.3,0.1c0.2,0,0.3,0,0.4,0.1c0.1,0.1,0.1,0.1,0.1,0.2c0,0,0.1,0.1,0.1,0.1
			c0.1,0.1,0.2,0.3,0.3,0.4c0.1,0.2,0.3,0.4,0.3,0.6c0.1,0.1,0.1,0.2,0.2,0.3c0.1,0.1,0.1,0.3,0.2,0.4c0.2,0.3,0.3,0.6,0.4,0.8
			c0.1,0.2,0.1,0.3,0.2,0.5c0.3,0.5,0.5,1.1,0.7,1.6c0.1,0.2,0.2,0.4,0.3,0.6c0.1,0.2,0.1,0.4,0.2,0.6c0.1,0.2,0.2,0.4,0.3,0.6
			c0.1,0.2,0.2,0.4,0.3,0.6c0.1,0.2,0.2,0.4,0.3,0.6c0.2,0.4,0.3,0.8,0.5,1.2c0.2,0.4,0.4,0.8,0.6,1.3c0.3,0.8,0.6,1.7,1,2.5
			c0.1,0.2,0.2,0.4,0.3,0.6c0.1,0.4,0.3,0.8,0.5,1.2c0.2,0.5,0.5,1,0.6,1.6c0.1,0.1,0.1,0.3,0.2,0.5c0,0.1,0.1,0.3,0.2,0.4
			c0,0.1,0.1,0.3,0.2,0.4c0.1,0.3,0.2,0.5,0.3,0.8c0,0.1,0.1,0.2,0.1,0.3c0,0.1,0.1,0.2,0.1,0.3c0,0.1,0.1,0.2,0.1,0.3
			c0,0.1,0,0.1,0.1,0.2c0,0.1,0.1,0.2,0.1,0.3c0,0,0,0,0,0.1v0c0-0.3,0-0.7,0-1c0-0.4,0-0.8,0-1.1c0-0.3,0-0.7,0-1
			c0-0.4,0-0.7,0-1.1c0-0.4,0-0.8,0-1.2c0-0.2,0-0.4,0-0.6c0-0.4,0-0.9,0.1-1.3c0-0.2,0-0.4,0-0.7c0-0.5,0.1-0.9,0.1-1.4
			c0-0.2,0-0.4,0-0.7c0-0.2,0-0.5,0-0.7c0-0.2,0-0.4,0-0.7c0-0.2,0-0.5,0-0.7c0-0.4,0-0.9,0.1-1.3c0-0.2,0-0.4,0-0.6
			c0-0.2,0-0.4,0-0.6c0-0.2,0-0.4,0-0.6c0-0.2,0-0.4,0-0.6c0-0.2,0-0.3,0-0.5c0-0.2,0-0.4,0-0.6c0-0.1,0-0.3,0-0.5
			c0-0.1,0-0.3,0-0.4c0-0.1,0-0.3,0-0.4c0-0.1,0-0.2,0-0.4c0-0.1,0-0.2,0-0.3c0-0.1,0-0.2,0-0.3c0-0.1,0-0.1,0-0.2c0,0,0-0.1,0-0.2
			c0,0,0-0.1,0-0.1c0-0.1,0.1-0.1,0.1-0.1c0.2-0.1,0.4-0.1,0.6-0.1c0.1,0,0.3,0,0.4,0c0.1,0,0.3,0,0.5,0c0.2,0,0.3,0,0.5,0
			c0.6-0.1,1.2,0,1.8,0c0.2,0,0.4,0,0.6,0c0.7,0.1,1.3,0,2,0.1c0.2,0,0.4,0,0.6,0c0.2,0,0.4,0,0.6,0c0.2,0,0.4,0,0.6,0.1
			c0.5,0,1,0.1,1.5,0.3c0,0,0.1,0,0.1,0.1v0c0,0,0,0.1,0.1,0.1c0,0,0,0.1,0,0.1c0,0.1,0,0.2,0,0.3c0,0.1,0.1,0.3,0.1,0.4
			c0,0.1,0,0.2,0,0.3c0,0.2,0.1,0.4,0.1,0.6c0,0.1,0,0.2,0,0.3c0,0.2,0,0.4,0.1,0.7c0,0.1,0,0.2,0,0.4c0,0.3,0,0.5,0.1,0.8
			c0,0.1,0,0.3,0,0.4c0,0.3,0,0.6,0.1,0.9c0,0.2,0,0.3,0,0.5c0,0.3,0,0.7,0.1,1c0,0.2,0,0.3,0,0.5c0,0.4,0,0.7,0.1,1.1
			c0,0.2,0,0.4,0,0.6c0,0.2,0,0.4,0,0.6c0,0.4,0.1,0.8,0.1,1.2c0,0.2,0,0.4,0,0.6c0,0.4,0,0.8,0.1,1.3c0,0.2,0,0.4,0,0.6
			c0,0.4,0,0.9,0,1.3c0,0.4,0.1,0.9,0.1,1.3c0,0.2,0,0.4,0,0.7c0,0.4,0,0.9,0.1,1.3c0,0.2,0,0.5,0,0.7c0,0.5,0.1,0.9,0,1.4
			c0,0.5,0.1,0.9,0,1.4c0,0.5,0.1,0.9,0.1,1.4c0,0.5,0,0.9,0,1.4c0,0.4,0,0.9,0,1.3c0,0.5,0,0.9,0,1.4c0,0.4,0,0.9,0,1.3
			c0.1,0.7,0,1.3,0.1,2c0,0.6,0,1.2,0,1.8c0.1,0.8,0,1.6,0.1,2.3c0,1,0,2.1,0,3.1c0.1,0.9,0.2,2,0,2.9c0,0.5,0.1,1.2,0,1.7
			c0,0.2,0,0.3,0,0.5c0,0.1,0,0.1,0,0.2c0,0,0,0,0,0v0c-0.1,0.1-0.2,0.1-0.3,0.1c-0.1,0-0.1,0-0.2,0c-0.1,0-0.2,0-0.3,0
			c-0.1,0-0.2,0-0.4,0c-0.1,0-0.3,0-0.4,0c-0.3,0-0.7,0.1-1,0.1c-0.4,0-0.8,0-1.2,0c-1.1,0.1-2.2,0-3.3,0c-0.7-0.1-1.3,0-2-0.1
			c-0.4,0-0.8,0-1.3,0c-0.2,0-0.4,0-0.6,0c-0.2,0-0.4,0-0.6,0c-0.3,0-0.6,0-0.9-0.1c-0.1,0-0.2,0-0.4,0c-0.1,0-0.2,0-0.3,0
			c-0.1,0-0.2,0-0.3,0c-0.1,0-0.1,0-0.2,0c-0.1,0-0.1,0-0.1,0c0,0,0,0-0.1,0c0-0.1-0.1-0.2-0.1-0.3c0-0.1,0-0.1-0.1-0.2
			c0-0.1-0.1-0.1-0.1-0.2c0-0.1-0.1-0.2-0.1-0.3c0-0.1-0.1-0.2-0.1-0.3c0-0.1-0.1-0.2-0.1-0.4c-0.1-0.3-0.2-0.6-0.3-0.8
			c-0.1-0.3-0.3-0.7-0.4-1c0-0.2-0.1-0.3-0.2-0.5c-0.1-0.4-0.2-0.7-0.4-1.1c-0.2-0.4-0.3-0.8-0.4-1.2c-0.5-1.8-1.3-3.4-1.7-5.2
			c-0.2-0.6-0.5-1.3-0.7-1.9c-0.1-0.4-0.3-0.8-0.4-1.2c-0.1-0.2-0.1-0.4-0.2-0.6c0-0.2-0.1-0.4-0.1-0.6c-0.1-0.2-0.1-0.3-0.2-0.5
			c-0.3-0.7-0.6-1.6-0.7-2.3c0-0.1-0.1-0.2-0.1-0.4c0-0.1-0.1-0.2-0.1-0.3c0-0.1,0-0.2-0.1-0.3c-0.1-0.2-0.2-0.4-0.2-0.6
			c0,0,0,0,0-0.1v0v0c0,0.2,0,0.5,0,0.7c0,0.2,0,0.4,0,0.7c0.1,0.4,0,0.9,0.1,1.3c0,0.3,0,0.7,0,1c0,0.2,0,0.4,0,0.6
			c0,0.4,0,0.8,0,1.2c0,0.4,0,0.9,0,1.3c0,0.5,0.1,0.9,0.1,1.4c0,0.5,0,0.9,0,1.4c0,0.5,0,0.9,0,1.4c0,0.5,0,0.9,0,1.4
			c0.2,1.9,0.3,4.4,0,6.3c0,0.2,0,0.5,0,0.7c0,0.1,0,0.2,0,0.3c0,0.1,0,0.1,0,0.2c0,0.1,0,0.2-0.1,0.3c0,0,0,0.1,0,0.1
			c0,0-0.1,0-0.1,0.1c-0.1,0-0.1,0-0.2,0c-0.1,0-0.2,0-0.3,0c-0.1,0-0.2,0-0.4,0c-0.1,0-0.3,0-0.4,0c-0.3,0-0.7,0.1-1,0
			c-0.8,0.1-1.7,0-2.5,0.1c-0.5,0-0.9,0-1.4,0c-1.1-0.1-2.3,0-3.4,0c-0.6-0.1-1.1,0-1.7,0c-0.6-0.1-1.3,0.1-1.8-0.1
			C222.8,63.6,222.7,63.6,222.6,63.6L222.6,63.6L222.6,63.6z"/>
		<path fill="#020202" d="M258.2,63.4L258.2,63.4c0-0.1,0-0.4,0-0.4c0-0.1,0-0.1,0-0.2c0,0,0-0.1,0-0.2c0-0.1,0-0.1,0.1-0.2
			c0-0.2,0.1-0.3,0.1-0.5c0.2-0.5,0.3-1,0.4-1.5c0.1-0.2,0.1-0.5,0.2-0.7c0-0.1,0-0.3,0.1-0.4c0-0.1,0.1-0.3,0.1-0.4
			c0-0.1,0.1-0.3,0.1-0.4c0-0.1,0.1-0.3,0.1-0.4c0.1-0.3,0.2-0.6,0.2-0.9c0.1-0.3,0.2-0.7,0.3-1c0.1-0.9,0.5-1.8,0.7-2.7
			c0.2-0.6,0.3-1.2,0.5-1.7c0.1-0.4,0.2-0.8,0.4-1.2c0-0.2,0.1-0.4,0.1-0.6c0.1-0.4,0.2-0.8,0.4-1.2c0-0.2,0.1-0.4,0.1-0.6
			c0.1-0.2,0.1-0.4,0.2-0.7c0.1-0.2,0.1-0.4,0.2-0.6c0.1-0.2,0.1-0.4,0.2-0.6c0.1-0.2,0.1-0.4,0.2-0.7c0.1-0.2,0.1-0.4,0.2-0.6
			c0.1-0.2,0.1-0.4,0.2-0.7c0.1-0.2,0.1-0.4,0.2-0.6c0.1-0.2,0.1-0.4,0.2-0.7c0.1-0.2,0.1-0.4,0.2-0.6c0.1-0.2,0.1-0.4,0.2-0.7
			c0.1-0.2,0.1-0.4,0.2-0.7c0.1-0.2,0.1-0.4,0.2-0.6c0-0.2,0.1-0.4,0.2-0.7c0-0.2,0.1-0.4,0.2-0.6c0-0.2,0.1-0.4,0.2-0.7
			c0-0.2,0.1-0.4,0.2-0.6c0-0.2,0.1-0.4,0.2-0.6c0-0.2,0.1-0.4,0.2-0.6c0-0.2,0.1-0.4,0.2-0.6c0-0.2,0.1-0.4,0.2-0.6
			c0-0.2,0.1-0.4,0.2-0.6c0-0.2,0.1-0.4,0.1-0.6c0.1-0.2,0.1-0.4,0.2-0.6c0.1-0.4,0.2-0.8,0.4-1.2c0-0.2,0.1-0.4,0.1-0.6
			c0.1-0.4,0.2-0.7,0.3-1.1c0.3-0.7,0.4-1.4,0.7-2.1c0.1-0.5,0.3-1,0.4-1.5c0.1-0.5,0.3-0.9,0.4-1.3c0.1-0.3,0.2-0.5,0.3-0.8
			c0-0.1,0.1-0.3,0.1-0.4c0-0.1,0.1-0.2,0.1-0.3c0-0.1,0.1-0.2,0.1-0.4c0.1-0.2,0.2-0.4,0.2-0.6c0-0.2,0.1-0.4,0.2-0.5
			c0.1-0.2,0.1-0.5,0.2-0.7c0-0.1,0-0.2,0.1-0.3c0,0,0-0.1,0-0.1c0,0,0-0.1,0-0.1c0,0,0-0.1,0.1-0.1v0c0,0,0.1,0,0.1-0.1
			c0.1,0,0.1,0,0.2-0.1c0.1,0,0.2,0,0.3,0c0.1,0,0.2,0,0.4-0.1c0.2,0,0.3,0,0.5,0c0.2,0,0.3,0,0.5,0c0.2,0,0.4,0,0.6,0
			c0.4,0,0.8,0,1.3,0c0.7,0,1.3,0,2,0c0.6,0.1,1.2,0,1.9,0.1c0.2,0,0.3,0,0.5,0c0.2,0,0.3,0,0.5,0c0.1,0,0.3,0,0.4,0
			c0.1,0,0.2,0,0.3,0c0.1,0,0.2,0,0.3,0.1c0,0,0.1,0,0.1,0v0c0,0,0,0,0,0c0,0,0,0,0,0.1c0,0,0,0.1,0,0.1c0,0,0,0.1,0.1,0.1
			c0,0,0,0.1,0,0.1c0,0.1,0,0.1,0.1,0.2c0.1,0.2,0.2,0.4,0.2,0.7c0,0.1,0,0.2,0.1,0.3c0.1,0.2,0.1,0.4,0.2,0.6c0,0.1,0,0.2,0.1,0.3
			c0,0.1,0.1,0.2,0.1,0.4c0,0.1,0.1,0.2,0.1,0.4c0,0.1,0.1,0.2,0.1,0.4c0,0.1,0.1,0.3,0.1,0.4c0,0.1,0.1,0.3,0.1,0.4
			c0.2,0.4,0.3,0.9,0.4,1.4c0.2,0.7,0.4,1.3,0.6,2c0.2,0.5,0.3,1.1,0.5,1.6c0.1,0.4,0.2,0.8,0.3,1.1c0.1,0.4,0.2,0.8,0.4,1.2
			c0,0.2,0.1,0.4,0.1,0.6c0.1,0.2,0.1,0.4,0.2,0.6c0.1,0.4,0.2,0.8,0.4,1.3c0,0.2,0.1,0.4,0.2,0.6c0,0.2,0.1,0.4,0.2,0.6
			c0,0.2,0.1,0.4,0.2,0.7c0,0.2,0.1,0.4,0.2,0.6c0,0.2,0.1,0.4,0.1,0.7c0.1,0.2,0.1,0.4,0.2,0.6c0.1,0.2,0.1,0.4,0.2,0.7
			c0,0.2,0.1,0.4,0.2,0.7c0,0.2,0.1,0.4,0.2,0.7c0,0.2,0.1,0.4,0.2,0.7c0,0.2,0.1,0.4,0.2,0.7c0,0.2,0.1,0.4,0.2,0.7
			c0,0.2,0.1,0.4,0.2,0.7c0,0.2,0.1,0.4,0.2,0.6c0,0.2,0.1,0.4,0.1,0.7c0.1,0.2,0.1,0.4,0.2,0.7c0.1,0.2,0.1,0.4,0.2,0.7
			c0.1,0.2,0.1,0.4,0.2,0.6c0.1,0.4,0.2,0.9,0.4,1.3c0,0.2,0.1,0.4,0.1,0.6c0.1,0.4,0.2,0.8,0.4,1.3c0.1,0.4,0.2,0.8,0.3,1.2
			c0.1,0.4,0.2,0.8,0.3,1.2c0.4,1,0.7,2.2,0.9,3.3c0.1,0.3,0.2,0.7,0.3,1c0.1,0.3,0.2,0.6,0.3,1c0,0.1,0.1,0.3,0.1,0.4
			c0,0.1,0.1,0.3,0.1,0.4c0,0.1,0.1,0.3,0.1,0.4c0,0.1,0.1,0.3,0.1,0.4c0,0.3,0.1,0.5,0.2,0.8c0.1,0.5,0.2,1.1,0.4,1.6
			c0,0.1,0,0.1,0.1,0.2c0,0.1,0,0.3,0.1,0.4c0,0.1,0,0.1,0,0.2c0,0.1,0,0.2,0.1,0.3c0,0.1,0,0.2,0,0.3h0c0,0,0,0.1-0.1,0.1
			c0,0-0.1,0-0.2,0.1c-0.1,0-0.2,0-0.3,0c-0.1,0-0.2,0-0.4,0.1c-0.3,0-0.6,0.1-0.9,0.1c-0.4,0-0.7,0-1.1,0.1c-1.3,0-2.6,0-3.9,0
			c-0.4,0-0.8,0-1.3-0.1c-0.2,0-0.4,0-0.6,0c-0.2,0-0.4,0-0.6,0c-0.1,0-0.3,0-0.5,0c-0.1,0-0.3,0-0.4-0.1c-0.2,0-0.5,0-0.7-0.1
			c-0.2,0-0.3-0.1-0.4-0.2c0-0.1,0-0.1-0.1-0.2c0-0.1,0-0.2-0.1-0.3c-0.1-0.2-0.2-0.5-0.2-0.7c-0.1-0.3-0.2-0.6-0.3-1
			c-0.3-2.3-1.3-4.5-1.6-6.8c-0.1-0.4-0.2-0.7-0.3-1.1c0-0.2-0.1-0.3-0.1-0.5c-0.1-0.4-0.1-0.9-0.3-1.3c0-0.1,0-0.2,0-0.3
			c0-0.1,0-0.1-0.1-0.2c0-0.1,0-0.2,0-0.2c0,0-0.1,0-0.2,0c-0.4,0-0.9-0.1-1.3-0.1c-0.2,0-0.4,0-0.6,0c-0.8-0.1-1.7-0.1-2.6,0
			c-0.3,0-0.7,0-1,0.1c-0.1,0-0.2,0.1-0.3,0.1c-0.1,0-0.1,0.1-0.2,0.1v0c0,0,0,0.1,0,0.1c0,0.1,0,0.1,0,0.2
			c-0.1,0.4-0.1,0.8-0.3,1.1c0,0.1,0,0.3-0.1,0.5c-0.1,0.2-0.1,0.3-0.1,0.5c0,0.2-0.1,0.4-0.1,0.6c-0.2,1.7-0.8,3.5-1.2,5.2
			c-0.1,0.8-0.4,1.5-0.5,2.3c0,0.2-0.1,0.3-0.1,0.5c0,0.1-0.1,0.3-0.1,0.4c0,0.1,0,0.2-0.1,0.3c0,0.1-0.1,0.2-0.1,0.3
			c0,0.1-0.1,0.1-0.1,0.2c0,0,0,0.1,0,0.1c0,0-0.1,0.1-0.1,0.1c-0.1,0-0.1,0-0.2,0.1c-0.5,0.1-1.1,0.3-1.6,0.3c-0.2,0-0.4,0-0.6,0.1
			c-0.4,0-0.8,0.1-1.2,0.1c-0.2,0-0.4,0-0.6,0c-0.7,0.1-1.3,0-2,0.1c-0.4,0-0.8,0-1.3,0c-0.2,0-0.4,0-0.6,0c-0.2,0-0.4,0-0.6,0
			c-0.2,0-0.3,0-0.5,0c-0.1,0-0.3,0-0.4-0.1c-0.2,0-0.5,0-0.7-0.1c-0.1,0-0.1,0-0.2-0.1C258.2,63.5,258.2,63.4,258.2,63.4z
			 M277.3,46.5c0,0,0-0.1,0-0.2c0-0.1,0-0.1,0-0.2c0-0.2-0.1-0.4-0.1-0.6c0-0.5-0.2-1-0.3-1.5c-0.1-0.4-0.2-0.9-0.3-1.3
			c-0.1-0.3-0.1-0.6-0.2-1c0-0.3-0.1-0.7-0.2-1c0-0.2,0-0.3-0.1-0.5c-0.1-0.4-0.1-0.7-0.2-1.1c0-0.2-0.1-0.4-0.1-0.6
			c-0.1-0.4-0.1-0.7-0.2-1.1c-0.2-0.5-0.1-1.1-0.3-1.6c0-0.2,0-0.4-0.1-0.6c-0.1-0.2-0.1-0.4-0.1-0.6c-0.1-0.7-0.1-0.7-0.1,0
			c0,0.2,0,0.4-0.1,0.6c0,0.2-0.1,0.4-0.1,0.6c0,0.5-0.2,1.2-0.3,1.7c0,0.2-0.1,0.4-0.1,0.6c0,0.2-0.1,0.4-0.1,0.6
			c0,0.2-0.1,0.4-0.1,0.6c0,0.2-0.1,0.4-0.1,0.6c0,0.2-0.1,0.4-0.1,0.6c0,0.2-0.1,0.4-0.1,0.6c0,0.2-0.1,0.4-0.1,0.6
			c0,0.2,0,0.3-0.1,0.5c-0.1,0.3-0.1,0.7-0.2,1c0,0.2,0,0.3-0.1,0.5c-0.1,0.4-0.2,0.9-0.3,1.3c-0.1,0.2-0.1,0.5-0.1,0.7
			c0,0.3-0.1,0.8-0.2,1.1c-0.2,0.3,0.4,0.2,0.6,0.3c0.2,0,0.3,0,0.5,0c0.4,0,0.8,0,1.2,0c0.2,0,0.4,0,0.6,0c0.2,0,0.4,0,0.6-0.1
			c0.1,0,0.3,0,0.5,0C276.9,46.6,277.1,46.5,277.3,46.5C277.4,46.4,277.3,46.5,277.3,46.5z"/>
	</g>
</g>
</svg>
