<?xml version="1.0" encoding="utf-8"?>
<!-- Generator: Adobe Illustrator 18.0.0, SVG Export Plug-In . SVG Version: 6.00 Build 0)  -->
<!DOCTYPE svg PUBLIC "-//W3C//DTD SVG 1.0//EN" "http://www.w3.org/TR/2001/REC-SVG-20010904/DTD/svg10.dtd">
<svg version="1.0" id="Camada_1" xmlns="http://www.w3.org/2000/svg" xmlns:xlink="http://www.w3.org/1999/xlink" x="0px" y="0px"
	 viewBox="0 0 220.3 80.8" enable-background="new 0 0 220.3 80.8" xml:space="preserve">
<g>
	<g>
		<path fill="#1B7C09" d="M42.9,40.4c0.1,0.9,0.3,1.7,0.3,2.6c0,0.2,0,0.4,0,0.6c0,0.2,0,0.4,0,0.6c0.1,0.9,0.1,2,0,3
			c0,0.2,0,0.4,0,0.6c0,0.2,0,0.4-0.1,0.6c0,0.4-0.1,0.7-0.1,1.1c-0.1,0.5-0.1,1-0.3,1.5c0,0.2-0.1,0.3-0.1,0.5
			c0,0.1-0.1,0.3-0.1,0.5c-0.1,0.1-0.1,0.3-0.1,0.4c0,0.2-0.1,0.3-0.1,0.5c-0.1,0.3-0.2,0.6-0.3,0.9c0,0.3-0.1,0.6-0.3,0.8
			c-0.1,0.3-0.2,0.5-0.3,0.8c-0.1,0.1-0.1,0.3-0.2,0.4c-0.1,0.1-0.1,0.3-0.2,0.4c-0.1,0.1-0.1,0.2-0.2,0.4c-0.1,0.1-0.1,0.2-0.2,0.4
			c-0.1,0.2-0.3,0.5-0.4,0.7c-0.1,0.1-0.1,0.2-0.2,0.3c-0.1,0.1-0.1,0.2-0.2,0.3c-0.1,0.1-0.1,0.2-0.2,0.3c-0.1,0.2-0.3,0.4-0.5,0.6
			c-0.1,0.1-0.1,0.2-0.2,0.3c-0.1,0.1-0.2,0.2-0.3,0.3c-0.4,0.4-0.7,0.7-1.1,1c-0.1,0.1-0.2,0.2-0.3,0.3c-0.3,0.2-0.6,0.5-0.9,0.6
			c-0.2,0.2-0.4,0.3-0.6,0.4c-0.4,0.3-0.8,0.5-1.2,0.7c-0.2,0.1-0.4,0.2-0.7,0.3c-0.1,0-0.2,0.1-0.3,0.1c-0.1,0-0.2,0.1-0.3,0.1
			c-0.1,0-0.2,0.1-0.3,0.1c-0.1,0-0.2,0.1-0.3,0.1c-0.1,0-0.2,0-0.3,0.1c-0.4,0.2-0.9,0.3-1.4,0.3c-0.1,0-0.2,0-0.4,0.1
			c-0.1,0-0.2,0-0.3,0c-0.1,0-0.2,0-0.4,0c-0.1,0-0.2,0-0.3,0c-0.2,0-0.5,0-0.7,0c-0.2,0-0.5,0-0.7,0c-0.2,0-0.5,0-0.7,0
			c-0.1,0-0.2,0-0.3,0c-0.1,0-0.2,0-0.4,0c-0.1,0-0.2,0-0.4-0.1c-0.6,0-1.2-0.2-1.8-0.3c-0.2-0.1-0.5-0.2-0.7-0.2
			c-0.1,0-0.2-0.1-0.3-0.1c-0.1,0-0.2-0.1-0.4-0.1c-0.1,0-0.2-0.1-0.3-0.1c-0.1,0-0.2-0.1-0.4-0.1c-0.2-0.1-0.4-0.2-0.7-0.3
			c-0.1,0-0.2-0.1-0.3-0.1c-0.1,0-0.2-0.1-0.4-0.1c-0.1-0.1-0.2-0.1-0.3-0.2c-0.1,0-0.2-0.1-0.3-0.2c-0.1,0-0.2-0.1-0.3-0.2
			c-0.1-0.1-0.2-0.1-0.3-0.2c-0.1-0.1-0.2-0.1-0.3-0.2c-0.1-0.1-0.2-0.1-0.3-0.2c-0.1-0.1-0.2-0.1-0.3-0.2c-0.2-0.1-0.4-0.3-0.6-0.4
			c-0.1-0.1-0.2-0.1-0.3-0.2c-0.2-0.2-0.4-0.3-0.6-0.5c-0.4-0.3-0.8-0.7-1.2-1.1c-0.1-0.1-0.2-0.2-0.3-0.3c-0.1-0.1-0.2-0.2-0.3-0.3
			c-0.1-0.1-0.2-0.2-0.3-0.3c-0.2-0.2-0.4-0.4-0.5-0.6c-0.1-0.1-0.2-0.2-0.3-0.3c-0.2-0.3-0.5-0.7-0.7-1c-0.2-0.2-0.3-0.5-0.4-0.7
			c-0.2-0.2-0.3-0.5-0.4-0.7c-0.1-0.1-0.1-0.2-0.2-0.4c0-0.1-0.1-0.2-0.2-0.4c0-0.1-0.1-0.3-0.1-0.4c-0.1-0.3-0.2-0.5-0.4-0.8
			c0-0.1-0.1-0.3-0.1-0.4c-0.1-0.4-0.3-0.8-0.4-1.3c0-0.1-0.1-0.3-0.1-0.4c0-0.1-0.1-0.3-0.1-0.4c0-0.1-0.1-0.3-0.1-0.4
			c0-0.1-0.1-0.3-0.1-0.4c0-0.1,0-0.3-0.1-0.4c-0.2-0.6-0.3-1.2-0.3-1.8c0-0.1,0-0.3-0.1-0.5c0-0.5,0-1-0.1-1.4c0-0.3,0-0.6,0-1
			c0-0.2,0-0.3,0-0.5c0-0.3,0-0.7,0-1c0.1-0.5,0.1-1,0.1-1.5c0.1-0.9,0.2-1.8,0.4-2.6c0-0.2,0-0.3,0.1-0.5c0-0.2,0.1-0.3,0.1-0.5
			c0.1-0.9,0.4-1.9,0.7-2.7c0.1-0.4,0.2-0.7,0.4-1.1c0.2-0.4,0.3-0.7,0.4-1.1c0-0.2,0.1-0.3,0.2-0.5c0.2-0.5,0.4-1,0.7-1.5
			c0.1-0.1,0.1-0.3,0.2-0.4c0.3-0.4,0.5-0.9,0.8-1.3c0.1-0.1,0.2-0.3,0.3-0.4c0.1-0.1,0.2-0.3,0.3-0.4c0.1-0.1,0.2-0.2,0.3-0.4
			c0.3-0.5,0.8-1,1.2-1.5c0.1-0.1,0.2-0.2,0.3-0.4c0.2-0.2,0.4-0.4,0.6-0.6c0.1-0.1,0.2-0.2,0.3-0.3c0.1-0.1,0.2-0.2,0.3-0.3
			c0.1-0.1,0.2-0.2,0.3-0.3c0.1-0.1,0.2-0.2,0.3-0.3c0.1-0.1,0.2-0.2,0.3-0.3c0.2-0.2,0.5-0.3,0.7-0.5c0.2-0.2,0.5-0.3,0.7-0.5
			c0.1-0.1,0.2-0.1,0.4-0.2c0.2-0.1,0.5-0.2,0.7-0.4c0.2-0.1,0.5-0.2,0.7-0.4c0.5-0.2,1-0.4,1.5-0.6c0.1,0,0.2-0.1,0.4-0.1
			c0.1,0,0.2-0.1,0.4-0.1c0.2-0.1,0.5-0.1,0.7-0.2c0.3-0.1,0.5-0.1,0.8-0.1c0.2-0.1,0.5-0.1,0.7-0.1c0.1,0,0.2,0,0.4-0.1
			c0.1,0,0.3,0,0.4,0c0.6-0.1,1.3,0,1.9,0c0.3,0.1,0.7,0.1,1.1,0.1c0.1,0,0.2,0,0.4,0.1c0.4,0,0.7,0.1,1.1,0.2
			c0.2,0.1,0.5,0.1,0.7,0.2c0.1,0,0.2,0.1,0.3,0.1c0.1,0,0.2,0.1,0.3,0.1c0.1,0,0.2,0.1,0.4,0.1c0.1,0,0.2,0.1,0.3,0.1
			c0.1,0,0.2,0.1,0.3,0.1c0.2,0.1,0.5,0.2,0.7,0.3c0.2,0.1,0.4,0.2,0.6,0.3c0.1,0,0.2,0.1,0.3,0.2c0.2,0.1,0.4,0.2,0.6,0.4
			c0.1,0.1,0.2,0.1,0.3,0.2c0.2,0.2,0.4,0.3,0.6,0.4c0.1,0.1,0.2,0.1,0.3,0.2c0.1,0.1,0.2,0.2,0.3,0.3c0.1,0.1,0.2,0.2,0.3,0.3
			c0.2,0.1,0.4,0.3,0.5,0.5c0.1,0.1,0.2,0.2,0.3,0.3c0.1,0.1,0.1,0.2,0.2,0.3c0.1,0.2,0.3,0.4,0.4,0.6c0,0.1,0.1,0.2,0.2,0.3
			c0.1,0.1,0.1,0.2,0.2,0.3c0.1,0.1,0.1,0.2,0.2,0.3c0.1,0.1,0.1,0.2,0.2,0.3c0.1,0.1,0.1,0.2,0.2,0.3c0,0.1,0.1,0.2,0.1,0.3
			c0.1,0.1,0.1,0.2,0.2,0.4c0,0.1,0.1,0.2,0.1,0.3c0.1,0.2,0.2,0.5,0.3,0.7c0,0.1,0.1,0.2,0.1,0.4c0,0.1,0,0.2,0.1,0.4
			c0.2,0.6,0.3,1.4,0.4,2c0,0.1,0,0.3,0,0.4c0,0.1,0,0.3,0,0.4c0,0.5,0.1,1.1-0.3,1.4c-0.1,0.1-0.2,0.1-0.3,0.2
			c-0.3,0.2-0.6,0.3-0.9,0.3c-0.2,0-0.4,0.1-0.6,0.1c-0.2,0-0.4,0.1-0.6,0.1c-0.2,0-0.4,0-0.6,0c-0.4,0-0.9,0-1.3,0
			c-0.6,0-1.2-0.1-1.8-0.2c-0.4-0.1-0.8-0.2-1.2-0.4c-0.1,0-0.1-0.1-0.2-0.2c-0.1,0-0.1-0.1-0.1-0.2c-0.1-0.4-0.1-0.7-0.1-1.1
			c0-0.1,0-0.2-0.1-0.3c0-0.1,0-0.2-0.1-0.3c0-0.1-0.1-0.2-0.1-0.3c-0.1-0.1-0.1-0.2-0.1-0.3c-0.1-0.3-0.3-0.6-0.4-0.8
			c0-0.1-0.1-0.2-0.2-0.3c-0.1-0.1-0.1-0.1-0.2-0.2c-0.2-0.2-0.4-0.5-0.7-0.6c-0.1-0.1-0.1-0.1-0.2-0.2c-0.1-0.1-0.2-0.1-0.3-0.2
			c-0.1,0-0.2-0.1-0.3-0.1c-0.1,0-0.2-0.1-0.3-0.1c-0.1,0-0.2-0.1-0.3-0.1c-0.1,0-0.2-0.1-0.3-0.1c-0.2,0-0.4-0.1-0.6-0.1
			c-0.5,0-1-0.1-1.5-0.1c-0.1,0-0.2,0-0.3,0.1c-0.2,0-0.4,0.1-0.6,0.1c-0.1,0-0.2,0.1-0.3,0.1c-0.1,0-0.2,0.1-0.3,0.1
			c-0.2,0.1-0.4,0.2-0.6,0.3c-0.1,0.1-0.2,0.1-0.3,0.2c-0.4,0.3-0.8,0.6-1.2,0.9c-0.1,0.1-0.2,0.2-0.3,0.3c-0.4,0.4-0.7,0.9-1,1.4
			c-0.1,0.1-0.1,0.3-0.2,0.4c-0.2,0.3-0.3,0.6-0.4,0.9c-0.1,0.1-0.1,0.3-0.2,0.5C23.1,33.7,23,33.9,23,34c-0.2,0.5-0.4,1.1-0.4,1.6
			c-0.1,0.2-0.1,0.4-0.1,0.6c0,0.2-0.1,0.4-0.1,0.6c-0.1,0.4-0.1,0.9-0.1,1.3c0,0.2,0,0.5-0.1,0.7c0,0.2,0,0.5,0,0.7
			c0,0.5,0,1,0,1.5c0,0.2,0,0.5,0,0.7c0,0.2,0,0.4,0,0.7c0,0.4,0.1,0.9,0.2,1.3c0,0.2,0.1,0.4,0.1,0.6c0.1,0.6,0.3,1.2,0.4,1.7
			c0.1,0.2,0.1,0.3,0.2,0.5c0.1,0.2,0.1,0.3,0.2,0.5c0.3,0.6,0.6,1.2,0.9,1.8c0.1,0.1,0.2,0.2,0.3,0.4c0.2,0.3,0.4,0.5,0.6,0.7
			c0.2,0.4,0.6,0.6,0.9,0.9c0.1,0.1,0.2,0.2,0.3,0.3c0.1,0.1,0.2,0.2,0.3,0.3c0.2,0.2,0.4,0.3,0.7,0.4c0.1,0.1,0.2,0.1,0.3,0.2
			c0.1,0,0.2,0.1,0.3,0.1c0.1,0,0.2,0.1,0.3,0.1c0.1,0,0.2,0.1,0.3,0.1c0.3,0.1,0.7,0.2,1,0.2c0.1,0,0.2,0,0.3,0c0.2,0,0.4,0,0.6,0
			c0.5-0.1,1.1-0.1,1.6-0.3c0.3-0.1,0.6-0.2,0.9-0.4c0.1-0.1,0.2-0.1,0.3-0.2c0.1-0.1,0.2-0.1,0.3-0.2c0.4-0.2,0.6-0.6,0.9-1
			c0-0.1,0.1-0.2,0.2-0.3c0-0.1,0.1-0.2,0.1-0.3c0-0.1,0.1-0.2,0.1-0.3c0-0.1,0.1-0.2,0.1-0.3c0-0.1,0.1-0.2,0.1-0.4
			c0.1-0.4,0.2-0.8,0.2-1.2c0-0.1,0-0.3,0-0.4c0.1-0.8-0.6-0.4-1.2-0.3c-0.4,0-0.8,0.1-1.2,0.1c-0.2,0-0.4,0-0.7,0
			c-0.2,0-0.4,0-0.6,0c-0.4,0-0.8,0-1.2,0c-0.3,0-0.6,0-0.8-0.1c-0.2-0.1-0.3-0.2-0.3-0.3c0-0.1-0.1-0.2-0.1-0.3
			c0-0.1-0.1-0.3-0.1-0.4c-0.1-0.1-0.1-0.3-0.1-0.5c0-0.2-0.1-0.3-0.1-0.5c-0.1-0.2-0.1-0.4-0.1-0.6c-0.3-1.2-0.2-2.5-0.4-3.7
			c0-0.2,0-0.3,0-0.5c0-0.1,0-0.3,0-0.4c0-0.1,0-0.2,0.1-0.3c0-0.1,0.1-0.1,0.1-0.2c0,0,0.1-0.1,0.1-0.1c0.2,0,0.3,0,0.5-0.1
			c0.1,0,0.2,0,0.3,0c0.1,0,0.3,0,0.4,0c0.1,0,0.3,0,0.4,0c0.3,0,0.6-0.1,1-0.1c0.2,0,0.4,0,0.6,0c0.4,0,0.8,0,1.2,0
			c1.2-0.1,2.6-0.1,3.8,0c0.2,0,0.4,0,0.6,0c0.4,0,0.8,0,1.2,0.1c0.4,0,0.7,0,1.1,0.1c0.5,0,1,0.1,1.5,0.2c0.3,0.1,0.5,0.1,0.8,0.2
			c0.1,0,0.2,0.1,0.3,0.1c0.2,0.1,0.3,0.2,0.4,0.3C42.8,40.2,42.9,40.3,42.9,40.4C43,40.7,42.9,40.4,42.9,40.4z"/>
		<path fill="#020202" d="M48.8,21.5C48.8,21.5,48.8,21.4,48.8,21.5c0.1-0.1,0.2-0.1,0.2-0.1c0.1,0,0.1,0,0.2-0.1c0.1,0,0.2,0,0.3,0
			c0.1,0,0.2,0,0.3-0.1c0.2,0,0.5-0.1,0.7-0.1c0.3,0,0.6-0.1,0.9-0.1c0.1,0,0.3,0,0.5-0.1c0.3,0,0.7-0.1,1-0.1c0.2,0,0.4,0,0.6,0
			c0.2,0,0.4,0,0.6-0.1c0.2,0,0.4,0,0.6,0c0.2,0,0.4,0,0.6,0c0.2,0,0.4,0,0.6,0c0.2,0,0.4,0,0.6,0c0.2,0,0.4,0,0.7,0
			c0.4,0,0.9,0,1.3-0.1c0.4,0,0.9,0,1.3,0c0.7,0,1.3,0,2,0c0.6,0,1.3,0,1.9,0c0.6,0,1.2,0,1.7,0c0.2,0,0.4,0,0.6,0
			c0.3,0,0.6,0,1,0.1c0.1,0,0.3,0,0.4,0c0.3,0,0.5,0,0.8,0.1c0.1,0,0.2,0,0.3,0.1c0.1,0,0.2,0,0.3,0c0.2,0.1,0.4,0.1,0.6,0.2
			c0,0,0,0,0.1,0.1c0,0.1,0.1,0.1,0.1,0.2c0,0.1,0.1,0.2,0.1,0.3c0.3,0.7,0.3,1.7,0.4,2.5c0,0.2,0,0.4,0,0.6c0,0.2,0,0.4,0,0.6
			c0,0.2,0,0.4,0,0.6c0,0.8,0.1,1.6,0,2.3c0,0.2,0,0.3,0,0.5c0,0.1,0,0.3-0.1,0.4c0,0.2,0,0.5-0.1,0.7c0,0.1-0.1,0.1-0.1,0.2
			c0,0-0.1,0.1-0.1,0.1c-0.1,0-0.1,0.1-0.2,0.1c-0.1,0-0.2,0-0.4,0c-0.6,0.1-1.2,0-1.8,0c-0.2,0-0.4,0-0.7,0c-0.2,0-0.4,0-0.7,0
			c-0.2,0-0.4,0-0.6-0.1c-0.4,0-0.7,0-1.1-0.1c-0.2,0-0.4,0-0.7-0.1c0,0,0,0-0.1,0v0c0,0.3,0,0.7,0,1c-0.2,1.2,0,2.6,0,3.8
			c0.2,1.2-0.1,2.5,0.1,3.8c0,0.6,0,1.3,0,1.9c0,0.4,0,0.8,0,1.3c0,0.2,0,0.5,0,0.8c0,0.2,0,0.5,0,0.7c0,0.2,0,0.5,0,0.7
			c0,0.2,0,0.5,0,0.7c0,0.5,0,0.9,0.1,1.4c0,0.4,0,0.9,0.1,1.3c0,0.4,0,0.8,0.1,1.2c0,0.3,0,0.7,0.1,1c0,0.3,0,0.6,0.1,1
			c0,0.3,0,0.5,0.1,0.8c0,0.1,0,0.2,0.1,0.3c0,0.1,0,0.2,0,0.3c0,0.1,0,0.2,0,0.3c0,0,0,0.1,0,0.2c0,0.1,0,0.2,0.1,0.3
			c0,0,0,0,0,0.1v0c0,0,0,0,0.1,0c0.1,0,0.2,0,0.3,0c0.9-0.2,1.9-0.3,2.8-0.4c0.2,0,0.4,0,0.7,0c0.4,0,0.8,0,1.2,0
			c0.3,0,0.6,0.1,0.9,0.2c0.1,0,0.2,0.1,0.3,0.1c0,0,0,0.1,0.1,0.2c0,0.1,0.1,0.1,0.1,0.2c0.1,0.5,0.3,1.1,0.3,1.7
			c0,0.2,0,0.3,0.1,0.5c0,0.2,0,0.4,0,0.6c0,0.2,0,0.4,0,0.6c0,0.2,0,0.4,0,0.6c0,1,0.1,2.1,0,3.2c0,0.2,0,0.4,0,0.6
			c0,0.2,0,0.4,0,0.6c0,0.3,0,0.6-0.1,1c0,0.2-0.1,0.5-0.1,0.7c0,0.1-0.1,0.1-0.1,0.2c0,0.1-0.1,0.2-0.1,0.2c-0.1,0-0.2,0-0.3,0.1
			c-0.1,0-0.1,0-0.2,0c-0.1,0-0.2,0-0.3,0.1c-0.1,0-0.2,0-0.3,0c-0.1,0-0.2,0-0.3,0c-0.1,0-0.2,0-0.4,0c-0.1,0-0.3,0-0.4,0
			c-0.1,0-0.3,0-0.4,0c-0.3,0-0.6,0-1,0.1c-0.2,0-0.3,0-0.5,0c-0.4,0-0.7,0-1.1,0c-0.4,0-0.8,0-1.2,0c-1.1,0.1-2.2,0-3.2,0.1
			c-1.1,0-2.3,0.1-3.4,0c-0.9,0-1.8,0.1-2.6,0c-0.4,0-0.8,0-1.3,0c-0.4,0-0.8,0-1.2,0c-0.4,0-0.7,0-1.1-0.1c-0.2,0-0.3,0-0.5,0
			c-0.3,0-0.6,0-1-0.1c-0.1,0-0.3,0-0.4,0c-0.1,0-0.2,0-0.4,0c-0.1,0-0.2,0-0.4,0c-0.1,0-0.2,0-0.3,0c-0.1,0-0.2,0-0.3,0
			c-0.1,0-0.2,0-0.3,0c-0.1,0-0.1,0-0.2,0c-0.1,0-0.1,0-0.1,0c0,0-0.1,0-0.1,0c-0.1-0.1-0.1-0.1-0.1-0.2c-0.1-0.1-0.1-0.1-0.1-0.2
			c0-0.1,0-0.2-0.1-0.3c-0.1-0.3-0.1-0.6-0.1-0.9c0-0.4-0.1-0.7-0.1-1.1c0-0.4-0.1-0.8,0-1.3c-0.1-0.6-0.1-1.3,0-2
			c0-0.2,0-0.4,0-0.6c0-0.2,0-0.4,0-0.6c0-0.2,0-0.4,0.1-0.6c0-0.6,0.1-1.4,0.3-1.9c0-0.1,0.1-0.2,0.1-0.3c0-0.1,0.1-0.1,0.1-0.2
			c0-0.1,0.1-0.1,0.1-0.1c0.1,0,0.2-0.1,0.3-0.1c0.1,0,0.3-0.1,0.4-0.1c0.2,0,0.3,0,0.5,0c0.2,0,0.4,0,0.6,0
			c0.8,0.1,1.7,0.1,2.5,0.3c0.3,0,0.6,0.1,0.9,0.1c0.1,0,0.2,0,0.3,0.1c0,0,0,0,0.1,0v0c0,0,0,0,0-0.1c0-0.1,0.1-0.2,0-0.3
			c0-0.2,0.1-0.3,0.1-0.5c0-0.1,0-0.2,0-0.3c0-0.1,0-0.2,0-0.3c0-0.1,0-0.3,0-0.4c0-0.1,0-0.3,0-0.4c0-0.3,0.1-0.6,0.1-0.9
			c0-0.2,0-0.4,0.1-0.6c0-0.4,0.1-0.7,0.1-1.1c0-0.2,0-0.4,0.1-0.6c0-0.2,0-0.4,0-0.6c0-0.4,0-0.9,0.1-1.3c0-0.2,0-0.5,0-0.7
			c0-0.2,0-0.5,0.1-0.7c0-0.2,0-0.5,0-0.7c0-0.2,0-0.5,0-0.8c0-0.2,0-0.5,0-0.7c0-0.3,0-0.5,0-0.8c0-0.6,0-1.1,0.1-1.7
			c0-0.5,0-1.1,0-1.6c0-0.7,0-1.4,0-2.1c0-1.5,0.4-3.7,0-5.2c0-0.1,0-0.2,0-0.3v0c0,0-0.1,0-0.1,0c-0.1,0-0.1,0-0.2,0.1
			c-0.8,0-1.6,0.3-2.4,0.3c-0.6,0.1-1.2,0-1.8,0c-0.2,0-0.3,0-0.5-0.1c-0.4-0.1-0.9-0.2-1-0.6c-0.2-0.2-0.2-0.7-0.3-0.9
			c0-0.1,0-0.3,0-0.4c0-0.2,0-0.3,0-0.5c0-0.6,0-1.2,0-1.7c0-0.2,0-0.4,0-0.6c0-0.2,0-0.4,0-0.6c0.1-0.8,0.1-1.6,0.3-2.4
			c0-0.2,0-0.3,0.1-0.5c0-0.1,0.1-0.3,0.1-0.4c0-0.1,0.1-0.2,0.1-0.3c0-0.1,0.1-0.2,0.1-0.3C48.7,21.6,48.7,21.5,48.8,21.5
			C48.8,21.5,48.7,21.5,48.8,21.5z"/>
		<path fill="#020202" d="M74.2,20.7c0.1,0,0.2-0.1,0.3-0.1c0.1,0,0.2,0,0.3-0.1c0.1,0,0.3,0,0.4-0.1c0.2,0,0.3,0,0.5,0
			c0.2,0,0.3,0,0.5,0c0.4,0,0.8,0,1.2,0c0.2,0,0.4,0,0.6,0c0.2,0,0.4,0,0.6,0c0.2,0,0.4,0,0.6,0.1c0.9,0,2,0.1,2.9,0.4
			c0.3,0,0.6,0.1,0.9,0.2c0.2,0,0.4,0.1,0.6,0.2c0,0,0.1,0,0.1,0.1c0,0,0,0,0,0.1c0,0,0,0,0.1,0.1c0,0,0,0.1,0.1,0.1
			c0,0.1,0,0.2,0.1,0.3c0,0,0,0.1,0.1,0.2c0,0,0,0.1,0,0.2c0,0.1,0,0.1,0,0.2c0,0.1,0,0.1,0.1,0.2c0,0.1,0,0.2,0,0.3
			c0,0.1,0,0.2,0,0.3c0,0.1,0,0.2,0,0.3c0,0.1,0,0.2,0,0.3c0,0.1,0,0.2,0,0.3c0,0.1,0,0.2,0,0.3c0,0.1,0,0.2,0,0.4
			c0,0.1,0,0.2,0,0.4c0,0.1,0,0.2,0,0.4c0,0.3,0,0.5,0.1,0.8c0,0.1,0,0.3,0,0.4c0,0.3,0.1,0.6,0.1,0.9c0,0.1,0,0.3,0,0.4
			c0,0.3,0,0.6,0,1c0.1,0.5,0,1,0.1,1.5c0,0.4,0,0.7,0,1.1c0.1,0.5,0,1.1,0,1.6c0.1,0.8,0,1.5,0,2.3c0.1,1,0,1.9,0.1,2.9
			c0,1-0.1,2,0,3c0,1-0.1,2,0,3c0,0.8,0,1.5,0,2.3c0.1,0.6,0,1.1,0,1.7c0.1,0.5,0,1.1,0,1.7c0.1,0.5,0,1.1,0.1,1.6c0,0.3,0,0.7,0,1
			c0,0.3,0,0.6,0,1c0,0,0,0,0.1,0c0.1,0,0.1,0,0.2,0c0.1,0,0.2,0,0.3,0c0.3-0.1,0.7-0.1,1.1-0.1c0.8-0.1,1.7-0.2,2.5-0.4
			c0.2,0,0.4,0,0.6-0.1c0.4-0.1,0.8-0.1,1.2-0.2c0.2,0,0.4-0.1,0.6-0.1c0.2,0,0.4-0.1,0.6-0.1c0.2,0,0.4-0.1,0.6-0.1
			c0.2,0,0.4-0.1,0.6-0.1c0.2,0,0.4-0.1,0.6-0.1c0.2,0,0.4-0.1,0.6-0.1c0.2,0,0.4-0.1,0.6-0.1c0.2,0,0.4,0,0.6-0.1
			c0.4-0.1,0.7-0.1,1.1-0.2c0.5-0.1,1-0.2,1.6-0.3c0.3,0,0.6,0,0.9-0.1c0.2,0,0.5,0,0.7-0.1c0.2,0,0.3,0,0.5,0c0.1,0,0.1,0,0.2,0
			c0,0,0.1,0,0.1,0c0,0,0.1,0.1,0.1,0.1c0,0.1,0.1,0.3,0.1,0.4c0,0.1,0,0.2,0,0.3c0,0.1,0,0.3,0,0.4c0,0.1,0,0.3,0,0.4
			c0,0.3-0.1,0.7-0.1,1c0,0.4-0.1,0.8-0.1,1.1c-0.1,0.4-0.1,0.8-0.1,1.2c-0.1,0.4-0.1,0.8-0.2,1.3c0,0.2,0,0.4-0.1,0.6
			c0,0.2-0.1,0.4-0.1,0.6c0,0.2-0.1,0.4-0.1,0.6c0,0.2-0.1,0.4-0.1,0.6c-0.1,0.4-0.1,0.7-0.2,1.1c-0.1,0.1-0.1,0.3-0.1,0.5
			c0,0.1-0.1,0.3-0.1,0.4c0,0.1-0.1,0.2-0.1,0.4c0,0.1-0.1,0.2-0.1,0.3c0,0.1-0.1,0.2-0.1,0.3c0,0,0,0.1-0.1,0.2
			c0,0-0.1,0.1-0.1,0.1h0c0,0-0.1,0-0.1,0c-0.1,0-0.1,0-0.1,0c-0.1,0-0.3,0.1-0.4,0.1c-0.1,0-0.2,0-0.3,0c-0.1,0-0.2,0-0.3,0
			c-0.1,0-0.2,0-0.3,0c-0.3,0-0.5,0.1-0.8,0.1c-0.1,0-0.3,0-0.4,0c-0.3,0-0.6,0.1-0.9,0.1c-0.3,0-0.7,0-1,0c-0.2,0-0.4,0-0.6,0
			c-0.4,0-0.8,0-1.2,0c-0.6,0.1-1.3,0-1.9,0.1c-0.7,0-1.3,0-2,0c-0.7,0-1.4,0-2,0c-2.6,0.3-5.3,0-7.9,0c-0.7-0.1-1.4,0-2.2-0.1
			c-0.3,0-0.6,0-0.9,0c-0.3,0-0.6,0-0.9,0c-0.2,0-0.5,0-0.7,0c-0.2,0-0.4,0-0.6-0.1c-0.1,0-0.2,0-0.3,0c-0.1,0-0.2,0-0.3-0.1
			c0,0-0.1,0-0.1,0c0,0,0,0,0,0c0,0,0,0,0,0l0,0c0-0.1,0-0.2,0-0.2c0,0,0-0.1,0-0.1c-0.1-0.2,0-0.4-0.1-0.6c0-0.2,0-0.3,0-0.5
			c0-0.3,0-0.6,0-0.9c0-0.4,0-0.7,0-1.1c0-0.6,0-1.2,0-1.7c-0.6-3.3,0-7.1,0-10.4c0.1-1.1,0-2.2,0-3.4c0.1-0.9,0-1.8,0.1-2.7
			c0-0.7,0-1.4,0-2.1c0-0.7,0-1.3,0-2c0-0.4,0-0.9,0-1.3c0-0.4,0-0.9,0-1.3c0.1-0.6,0-1.3,0.1-1.9c0-0.4,0-0.8,0-1.2
			c0-0.4,0-0.8,0-1.2c0-0.4,0-0.8,0-1.1c0-0.2,0-0.4,0-0.6c0-0.4,0-0.7,0-1.1c0-0.3,0-0.7,0.1-1c0-0.1,0-0.3,0-0.5c0-0.3,0-0.6,0-1
			c0-0.3,0-0.6,0.1-0.8c0-0.1,0-0.3,0-0.4c0-0.2,0.1-0.5,0.1-0.7c0-0.1,0-0.2,0-0.4c0-0.2,0-0.4,0.1-0.7c0-0.1,0-0.2,0-0.3
			c0-0.2,0-0.4,0.1-0.6c0-0.1,0-0.1,0-0.2c0,0,0-0.1,0-0.2c0-0.1,0-0.2,0.1-0.3c0,0,0-0.1,0-0.1c0,0,0-0.1,0-0.1c0,0,0-0.1,0.1-0.1
			C74.1,20.7,74.2,20.7,74.2,20.7C74.3,20.6,74.2,20.7,74.2,20.7z"/>
		<path fill="#020202" d="M105.2,21.5C105.2,21.5,105.3,21.4,105.2,21.5c0.1-0.1,0.2-0.1,0.2-0.1c0.1,0,0.1,0,0.2-0.1
			c0.1,0,0.2,0,0.3,0c0.1,0,0.2,0,0.3-0.1c0.2,0,0.5-0.1,0.7-0.1c0.3,0,0.6-0.1,0.9-0.1c0.1,0,0.3,0,0.5-0.1c0.3,0,0.7-0.1,1-0.1
			c0.2,0,0.4,0,0.6,0c0.2,0,0.4,0,0.6-0.1c0.2,0,0.4,0,0.6,0c0.2,0,0.4,0,0.6,0c0.2,0,0.4,0,0.6,0c0.2,0,0.4,0,0.6,0
			c0.2,0,0.4,0,0.7,0c0.4,0,0.9,0,1.3-0.1c0.4,0,0.9,0,1.3,0c0.7,0,1.3,0,2,0c0.6,0,1.3,0,1.9,0c0.6,0,1.2,0,1.7,0
			c0.2,0,0.4,0,0.6,0c0.3,0,0.6,0,1,0.1c0.1,0,0.3,0,0.4,0c0.3,0,0.5,0,0.8,0.1c0.1,0,0.2,0,0.3,0.1c0.1,0,0.2,0,0.3,0
			c0.2,0.1,0.4,0.1,0.6,0.2c0,0,0,0,0.1,0.1c0,0.1,0.1,0.1,0.1,0.2c0,0.1,0.1,0.2,0.1,0.3c0.3,0.7,0.3,1.7,0.4,2.5
			c0,0.2,0,0.4,0,0.6c0,0.2,0,0.4,0,0.6c0,0.2,0,0.4,0,0.6c0,0.8,0.1,1.6,0,2.3c0,0.2,0,0.3,0,0.5c0,0.1,0,0.3-0.1,0.4
			c0,0.2,0,0.5-0.1,0.7c0,0.1-0.1,0.1-0.1,0.2c0,0-0.1,0.1-0.1,0.1c-0.1,0-0.1,0.1-0.2,0.1c-0.1,0-0.2,0-0.4,0c-0.6,0.1-1.2,0-1.8,0
			c-0.2,0-0.4,0-0.7,0c-0.2,0-0.4,0-0.7,0c-0.2,0-0.4,0-0.6-0.1c-0.4,0-0.7,0-1.1-0.1c-0.2,0-0.4,0-0.7-0.1c0,0,0,0-0.1,0v0
			c0,0.3,0,0.7,0,1c-0.2,1.2,0,2.6,0,3.8c0.2,1.2-0.1,2.5,0.1,3.8c0,0.6,0,1.3,0,1.9c0,0.4,0,0.8,0,1.3c0,0.2,0,0.5,0,0.8
			c0,0.2,0,0.5,0,0.7c0,0.2,0,0.5,0,0.7c0,0.2,0,0.5,0,0.7c0,0.5,0,0.9,0.1,1.4c0,0.4,0,0.9,0.1,1.3c0,0.4,0,0.8,0.1,1.2
			c0,0.3,0,0.7,0.1,1c0,0.3,0,0.6,0.1,1c0,0.3,0,0.5,0.1,0.8c0,0.1,0,0.2,0.1,0.3c0,0.1,0,0.2,0,0.3c0,0.1,0,0.2,0,0.3
			c0,0,0,0.1,0,0.2c0,0.1,0,0.2,0.1,0.3c0,0,0,0,0,0.1v0c0,0,0,0,0.1,0c0.1,0,0.2,0,0.3,0c0.9-0.2,1.9-0.3,2.8-0.4
			c0.2,0,0.4,0,0.7,0c0.4,0,0.8,0,1.2,0c0.3,0,0.6,0.1,0.9,0.2c0.1,0,0.2,0.1,0.3,0.1c0,0,0,0.1,0.1,0.2c0,0.1,0.1,0.1,0.1,0.2
			c0.1,0.5,0.3,1.1,0.3,1.7c0,0.2,0,0.3,0.1,0.5c0,0.2,0,0.4,0,0.6c0,0.2,0,0.4,0,0.6c0,0.2,0,0.4,0,0.6c0,1,0.1,2.1,0,3.2
			c0,0.2,0,0.4,0,0.6c0,0.2,0,0.4,0,0.6c0,0.3,0,0.6-0.1,1c0,0.2-0.1,0.5-0.1,0.7c0,0.1-0.1,0.1-0.1,0.2c0,0.1-0.1,0.2-0.1,0.2
			c-0.1,0-0.2,0-0.3,0.1c-0.1,0-0.1,0-0.2,0c-0.1,0-0.2,0-0.3,0.1c-0.1,0-0.2,0-0.3,0c-0.1,0-0.2,0-0.3,0c-0.1,0-0.2,0-0.4,0
			c-0.1,0-0.3,0-0.4,0c-0.1,0-0.3,0-0.4,0c-0.3,0-0.6,0-1,0.1c-0.2,0-0.3,0-0.5,0c-0.4,0-0.7,0-1.1,0c-0.4,0-0.8,0-1.2,0
			c-1.1,0.1-2.2,0-3.2,0.1c-1.1,0-2.3,0.1-3.4,0c-0.9,0-1.8,0.1-2.6,0c-0.4,0-0.8,0-1.3,0c-0.4,0-0.8,0-1.2,0c-0.4,0-0.7,0-1.1-0.1
			c-0.2,0-0.3,0-0.5,0c-0.3,0-0.6,0-1-0.1c-0.1,0-0.3,0-0.4,0c-0.1,0-0.2,0-0.4,0c-0.1,0-0.2,0-0.4,0c-0.1,0-0.2,0-0.3,0
			c-0.1,0-0.2,0-0.3,0c-0.1,0-0.2,0-0.3,0c-0.1,0-0.1,0-0.2,0c-0.1,0-0.1,0-0.1,0c0,0-0.1,0-0.1,0c-0.1-0.1-0.1-0.1-0.1-0.2
			c-0.1-0.1-0.1-0.1-0.1-0.2c0-0.1,0-0.2-0.1-0.3c-0.1-0.3-0.1-0.6-0.1-0.9c0-0.4-0.1-0.7-0.1-1.1c0-0.4-0.1-0.8,0-1.3
			c-0.1-0.6-0.1-1.3,0-2c0-0.2,0-0.4,0-0.6c0-0.2,0-0.4,0-0.6c0-0.2,0-0.4,0.1-0.6c0-0.6,0.1-1.4,0.3-1.9c0-0.1,0.1-0.2,0.1-0.3
			c0-0.1,0.1-0.1,0.1-0.2c0-0.1,0.1-0.1,0.1-0.1c0.1,0,0.2-0.1,0.3-0.1c0.1,0,0.3-0.1,0.4-0.1c0.2,0,0.3,0,0.5,0c0.2,0,0.4,0,0.6,0
			c0.8,0.1,1.7,0.1,2.5,0.3c0.3,0,0.6,0.1,0.9,0.1c0.1,0,0.2,0,0.3,0.1c0,0,0,0,0.1,0v0c0,0,0,0,0-0.1c0-0.1,0.1-0.2,0-0.3
			c0-0.2,0.1-0.3,0.1-0.5c0-0.1,0-0.2,0-0.3c0-0.1,0-0.2,0-0.3c0-0.1,0-0.3,0-0.4c0-0.1,0-0.3,0-0.4c0-0.3,0.1-0.6,0.1-0.9
			c0-0.2,0-0.4,0.1-0.6c0-0.4,0.1-0.7,0.1-1.1c0-0.2,0-0.4,0.1-0.6c0-0.2,0-0.4,0-0.6c0-0.4,0-0.9,0.1-1.3c0-0.2,0-0.5,0-0.7
			c0-0.2,0-0.5,0.1-0.7c0-0.2,0-0.5,0-0.7c0-0.2,0-0.5,0-0.8c0-0.2,0-0.5,0-0.7c0-0.3,0-0.5,0-0.8c0-0.6,0-1.1,0.1-1.7
			c0-0.5,0-1.1,0-1.6c0-0.7,0-1.4,0-2.1c0-1.5,0.4-3.7,0-5.2c0-0.1,0-0.2,0-0.3v0c0,0-0.1,0-0.1,0c-0.1,0-0.1,0-0.2,0.1
			c-0.8,0-1.6,0.3-2.4,0.3c-0.6,0.1-1.2,0-1.8,0c-0.2,0-0.3,0-0.5-0.1c-0.4-0.1-0.9-0.2-1-0.6c-0.2-0.2-0.2-0.7-0.3-0.9
			c0-0.1,0-0.3,0-0.4c0-0.2,0-0.3,0-0.5c0-0.6,0-1.2,0-1.7c0-0.2,0-0.4,0-0.6c0-0.2,0-0.4,0-0.6c0.1-0.8,0.1-1.6,0.3-2.4
			c0-0.2,0-0.3,0.1-0.5c0-0.1,0.1-0.3,0.1-0.4c0-0.1,0.1-0.2,0.1-0.3c0-0.1,0.1-0.2,0.1-0.3C105.1,21.6,105.2,21.5,105.2,21.5
			C105.2,21.5,105.2,21.5,105.2,21.5z"/>
		<path fill="#020202" d="M152.6,44.9c0,0.1,0.2,0.3,0.5,0.4c0.6,0.3,1.3,1.2,1.8,1.8c0.3,0.3,0.5,0.6,0.8,1c0.2,0.3,0.5,0.6,0.7,1
			c0.4,0.5,0.7,1,1,1.5c0.5,0.6,0.8,1.4,1.2,2.1c0.1,0.2,0.2,0.3,0.3,0.5c0.2,0.3,0.4,0.7,0.5,1c0.2,0.5,0.5,1,0.7,1.5
			c0.1,0.3,0.2,0.6,0.4,1c0.3,0.7,0.5,1.5,0.8,2.2c0,0.1,0.1,0.3,0.1,0.4c0,0.1,0.1,0.3,0.1,0.4c0.1,0.5,0.2,0.9,0.3,1.4
			c0,0.1,0,0.2,0,0.3c0,0.2,0,0.3,0.1,0.5c0,0.2,0.1,0.5,0,0.7c0,0,0,0.1,0,0.1c0,0,0,0,0,0.1c0,0,0,0,0,0.1
			c-0.2,0.1-0.4,0.2-0.6,0.2c-0.2,0.1-0.4,0.1-0.6,0.1c-0.3,0.1-0.6,0.1-0.9,0.1c-0.3,0-0.6,0.1-1,0.1c-0.4,0-0.7,0.1-1.1,0.1
			c-0.2,0-0.4,0-0.6,0.1c-0.2,0-0.4,0-0.6,0c-0.2,0-0.4,0-0.6,0c-0.4,0-0.8,0-1.2,0c-0.4,0-0.8,0-1.2,0c-0.4,0-0.8,0-1.2,0
			c-0.5-0.1-1.1-0.1-1.6-0.1c-0.5-0.1-1.2-0.1-1.7-0.3c-0.1,0-0.2-0.1-0.3-0.1c-0.1,0-0.2-0.1-0.3-0.1c-0.1-0.1-0.2-0.3-0.3-0.5
			c-0.1-0.1-0.1-0.3-0.1-0.4c-0.2-0.9-0.3-2-0.6-2.9c0-0.1,0-0.3-0.1-0.4c-0.1-0.1-0.1-0.3-0.1-0.5c0-0.1-0.1-0.3-0.1-0.5
			c-0.1-0.3-0.1-0.7-0.3-1c0-0.2-0.1-0.4-0.1-0.6c-0.1-0.2-0.1-0.3-0.2-0.5c-0.1-0.2-0.1-0.4-0.2-0.6c-0.2-0.6-0.4-1.1-0.7-1.7
			c-0.2-0.6-0.5-1.1-0.9-1.7c-0.3-0.4-0.5-0.7-0.7-1.1c-0.3-0.4-0.5-0.7-0.8-1.1c-0.1-0.2-0.3-0.4-0.4-0.6v0c0,0,0,0.1,0,0.1
			c0,0.1,0.1,0.3,0.1,0.4c0,0.1,0,0.2,0,0.3c0,0.1,0,0.3,0,0.4c0,0.1,0,0.3,0,0.4c0,0.2,0,0.3,0.1,0.5c0,0.2,0,0.3,0,0.5
			c0,0.2,0,0.4,0,0.6c0,0.4,0.1,0.8,0.1,1.2c0,0.2,0,0.4,0,0.6c0,0.2,0,0.4,0,0.7c0,0.2,0,0.4,0,0.7c0,0.4,0,0.9,0.1,1.3
			c0,1,0,2,0,3.1c0,0.2,0,0.4,0,0.6c0,0.2,0,0.3,0,0.5c-0.1,0.4-0.1,0.8-0.2,1.2c0,0.1,0,0.2-0.1,0.3c0,0.1-0.1,0.1-0.1,0.2
			c-0.1,0-0.1,0.1-0.1,0.1c-0.1,0-0.1,0.1-0.2,0.1c-0.1,0-0.2,0.1-0.3,0.1c-0.1,0-0.2,0.1-0.3,0.1c-0.7,0.3-1.6,0.4-2.3,0.4
			c-0.2,0-0.4,0-0.6,0.1c-0.2,0-0.4,0-0.6,0c-0.2,0-0.4,0-0.6,0c-1.2,0.1-2.5,0.1-3.7,0c-0.2,0-0.4,0-0.6,0c-0.2,0-0.4,0-0.6,0
			c-0.2,0-0.3,0-0.5,0c-0.3,0-0.6,0-0.9-0.1c-0.4,0-0.7-0.1-1-0.2c-0.2,0-0.3-0.1-0.4-0.2l0,0c0,0,0,0,0-0.1c0,0,0,0,0-0.1
			c0,0,0-0.1,0-0.1c0,0,0-0.1,0-0.1c0,0,0-0.1,0-0.2c0,0,0-0.1,0-0.2c0-0.1,0-0.1,0-0.2c0-0.2,0-0.3-0.1-0.5c0-0.1,0-0.2,0-0.3
			c0-0.1,0-0.2,0-0.3c0-0.2-0.1-0.5,0-0.7c0-0.3-0.1-0.5-0.1-0.8c0-0.3,0-0.6,0-0.8c0-0.3,0-0.6,0-0.9c-0.1-0.5,0-1-0.1-1.5
			c0-0.7,0.1-1.5,0-2.2c0-3.6-0.4-7.3,0-10.9c0-0.9-0.1-1.8,0-2.7c0-0.7,0-1.4,0-2c0.1-0.7,0-1.3,0.1-2c0-0.4,0-0.9,0-1.3
			c0-0.4,0-0.8,0-1.3c0-0.4,0.1-0.8,0-1.3c0-0.4,0-0.8,0-1.2c0-0.4,0-0.8,0-1.1c0-0.4,0-0.7,0.1-1.1c0-0.2,0-0.3,0-0.5
			c0-0.3,0-0.7,0-1c0-0.3,0-0.6,0.1-0.9c0-0.2,0-0.3,0-0.5c0-0.3,0.1-0.6,0.1-0.8c0-0.1,0-0.3,0-0.4c0-0.1,0-0.2,0-0.4
			c0-0.2,0-0.5,0.1-0.7c0-0.1,0-0.2,0-0.3c0-0.2,0.1-0.4,0.1-0.6c0-0.1,0-0.2,0-0.3c0-0.1,0-0.1,0-0.2c0-0.1,0-0.1,0-0.2
			c0-0.1,0-0.2,0.1-0.3c0,0,0-0.1,0-0.1c0,0,0,0,0-0.1l0-0.1c0,0,0,0,0-0.1c0,0,0.1,0,0.1-0.1c0,0,0.1-0.1,0.1-0.1
			c0.4-0.2,0.9-0.5,1.3-0.5c0.2-0.1,0.4-0.1,0.6-0.1c0.1,0,0.2,0,0.3,0c0.1,0,0.2,0,0.4,0c0.1,0,0.3,0,0.4,0c0.1,0,0.3,0,0.4,0
			c0.3,0,0.7,0,1,0c0.6-0.1,1.3,0,1.9-0.1c1.1,0,2.1,0,3.2,0c1,0,2,0,3.1,0c0.4,0,0.8,0,1.3,0c0.4,0,0.8,0,1.3,0.1
			c0.4,0,0.8,0,1.2,0.1c0.4,0,0.8,0.1,1.2,0.2c0.4,0.1,0.7,0.1,1.1,0.2c0.3,0.1,0.7,0.2,1,0.3c0.3,0.1,0.7,0.2,1,0.4
			c0.3,0.1,0.6,0.2,1,0.4c0.3,0.1,0.6,0.3,0.9,0.5c0.1,0.1,0.3,0.1,0.4,0.2c0.1,0.1,0.3,0.2,0.4,0.3c0.6,0.5,1.3,0.9,1.9,1.5
			c0.1,0.1,0.2,0.2,0.3,0.3c0.1,0.1,0.2,0.2,0.3,0.3c0.9,1.1,1.9,2.3,2.3,3.7c0.4,0.7,0.6,1.7,0.7,2.5c0.2,0.7,0.2,1.5,0.3,2.3
			c0,0.2,0,0.4,0,0.6c0,1,0,2.1-0.3,3.1c-0.1,0.3-0.2,0.7-0.3,1c0,0.1-0.1,0.3-0.1,0.4c-0.1,0.1-0.1,0.3-0.2,0.4
			c0,0.1-0.1,0.3-0.2,0.4c-0.1,0.1-0.2,0.3-0.3,0.4c-0.1,0.1-0.2,0.2-0.3,0.4c-0.2,0.4-0.5,0.8-0.9,1.1c-0.1,0.1-0.2,0.2-0.3,0.3
			c-0.4,0.3-0.7,0.6-1.1,0.9c-0.1,0.1-0.2,0.2-0.4,0.3c-0.1,0.1-0.3,0.2-0.4,0.3c-0.1,0.1-0.3,0.2-0.4,0.3c-0.3,0.1-0.6,0.3-0.9,0.4
			c-0.1,0-0.3,0.1-0.4,0.2c-0.1,0.1-0.3,0.2-0.4,0.2C152.8,44.7,152.6,44.8,152.6,44.9C152.6,45,152.6,44.8,152.6,44.9z M147.9,34.5
			c0-0.3,0-0.5,0-0.8c-0.1-0.2-0.1-0.5-0.2-0.7c0-0.2-0.1-0.4-0.2-0.7c-0.1-0.2-0.2-0.4-0.3-0.6c-0.1-0.2-0.2-0.3-0.4-0.5
			c-0.1-0.1-0.3-0.3-0.4-0.4c-0.1-0.1-0.3-0.2-0.5-0.4c-0.1-0.1-0.3-0.2-0.5-0.3c-0.2-0.1-0.3-0.2-0.5-0.3c-0.2-0.1-0.3-0.1-0.5-0.2
			c-0.3-0.1-0.7-0.2-1-0.3c-0.2,0-0.3-0.1-0.5-0.1c-0.1,0-0.3,0-0.4,0c-0.1,0-0.2,0-0.4,0c-0.1,0-0.2,0-0.3,0c-0.1,0-0.2,0-0.3,0
			c-0.1,0-0.1,0-0.1,0c0,0-0.1,0.1,0,0.2c0,0.1,0,0.2,0,0.3c0,0.1,0,0.2,0,0.3c0,0.2,0,0.4,0,0.7c0,0.3,0.1,0.5,0.1,0.8
			c0,0.3,0.1,0.6,0.1,0.8c0,0.2,0,0.3,0.1,0.5c0,0.3,0,0.7,0.1,1c0,0.2,0,0.3,0.1,0.5c0,0.4,0,0.8,0.1,1.1c0,0.2,0,0.4,0.1,0.6
			c0,0.4,0.1,0.8,0.1,1.2c0,0.2,0,0.4,0,0.7c0,0.2,0.1,0.4,0,0.7c-0.1,0.2-0.1,0.5,0,0.7c0,0,0.1,0.1,0.2,0c0.1,0,0.2,0,0.3,0
			c0.2,0,0.5-0.1,0.7-0.1c0.1,0,0.3-0.1,0.4-0.1c0.3-0.1,0.6-0.2,0.9-0.3c0.3-0.1,0.7-0.3,1-0.5c0.3-0.2,0.6-0.4,0.9-0.6
			c0.5-0.4,0.8-0.9,1.1-1.4c0.1-0.2,0.1-0.4,0.2-0.6C147.9,35.4,147.9,34.9,147.9,34.5z"/>
		<path fill="#020202" d="M164.9,21c0,0,0.1-0.1,0.2-0.1c0.2-0.1,0.5-0.2,0.7-0.2c0.5-0.1,1.1-0.2,1.6-0.2c0.2,0,0.4,0,0.7,0
			c0.2,0,0.4,0,0.7,0c0.7,0,1.4,0,2,0c0.6,0.1,1.3,0.1,1.9,0.1c0.5,0.1,0.9,0.1,1.3,0.2c0.1,0,0.2,0.1,0.3,0.1c0,0,0.1,0.1,0.1,0.1
			c0,0,0.1,0.1,0.1,0.1c0,0.1-0.1,0.3-0.1,0.4c0,0.1,0,0.3,0,0.4c0,0.3-0.1,0.6-0.1,0.9c0,0.1,0,0.3-0.1,0.4c0,0.3-0.1,0.6-0.1,1
			c-0.1,0.3-0.1,0.7-0.1,1c-0.1,0.3-0.1,0.7-0.1,1c-0.1,0.4-0.1,0.7-0.1,1.1c0,0.2,0,0.3-0.1,0.5c0,0.4-0.1,0.7-0.1,1.1
			c0,0.4,0,0.7-0.1,1.1c0,0.2,0,0.4,0,0.6c0,0.2-0.1,0.4-0.1,0.6c0,0.2,0,0.4,0,0.6c0,0.2,0,0.4,0,0.6c0,0.2,0,0.4,0,0.6
			c0,0.2,0,0.4,0,0.6c0,0.2,0,0.4,0,0.6c0,0.4,0,0.7,0,1.1c-0.1,1-0.1,2.3,0,3.3c0,0.4,0,0.7,0,1.1c0,0.2,0,0.3,0,0.5
			c0,0.3,0.1,0.7,0.1,1c0.1,0.3,0.1,0.7,0.1,1c0,0.1,0,0.3,0.1,0.4c0.1,0.4,0.1,0.9,0.3,1.4c0,0.1,0.1,0.3,0.1,0.4
			c0.1,0.3,0.1,0.6,0.2,0.8c0.1,0.4,0.2,0.8,0.5,1.1c0,0.1,0.1,0.2,0.1,0.4c0.1,0.1,0.1,0.2,0.2,0.3c0.1,0.1,0.1,0.2,0.2,0.3
			c0.1,0.2,0.2,0.4,0.4,0.6c0.1,0.2,0.3,0.4,0.5,0.5c0.1,0.2,0.3,0.3,0.5,0.4c0.1,0.1,0.2,0.1,0.3,0.2c0.2,0.1,0.4,0.3,0.6,0.3
			c0.1,0,0.2,0.1,0.3,0.1c0.3,0.2,0.7,0.2,1.1,0.3c0.1,0,0.2,0,0.4,0c0.3,0,0.5,0,0.8,0c0.5,0,1.1-0.1,1.5-0.3
			c0.1,0,0.2-0.1,0.3-0.1c0.1,0,0.2-0.1,0.3-0.2c0.1,0,0.2-0.1,0.3-0.1c0.3-0.2,0.6-0.4,0.8-0.6c0.1-0.1,0.1-0.2,0.2-0.3
			c0.1-0.1,0.2-0.2,0.3-0.3c0.1-0.1,0.1-0.2,0.2-0.3c0.1-0.1,0.1-0.2,0.2-0.3c0.1-0.1,0.1-0.2,0.2-0.3c0.1-0.2,0.2-0.4,0.4-0.7
			c0.2-0.4,0.3-0.7,0.4-1.1c0-0.1,0.1-0.3,0.1-0.4c0-0.1,0.1-0.3,0.1-0.4c0-0.1,0.1-0.3,0.1-0.4c0-0.3,0.1-0.6,0.1-0.9
			c0-0.1,0.1-0.3,0.1-0.4c0.1-0.5,0.2-1,0.2-1.4c0-0.2,0-0.3,0-0.5c0-0.2,0-0.3,0-0.5c0-0.3,0-0.7,0.1-1c0-1,0.1-2.2,0-3.2
			c0-0.2,0-0.4,0-0.6c0-0.4,0-0.7-0.1-1.1c0-0.2,0-0.4,0-0.6c0-0.2,0-0.4,0-0.6c0-0.2,0-0.4,0-0.6c0-0.4-0.1-0.7-0.1-1.1
			c0-0.2,0-0.4-0.1-0.6c0-0.6-0.1-1.1-0.1-1.7c0-0.4-0.1-0.7-0.1-1.1c0-0.5-0.1-1.1-0.2-1.6c0-0.5-0.1-1-0.2-1.5
			c0-0.5-0.1-1-0.2-1.5c0-0.3-0.1-0.6-0.1-0.9c0-0.3,0-0.6-0.1-0.9c0-0.1,0-0.3-0.1-0.4c0,0,0-0.1,0.1-0.1c0,0,0.1-0.1,0.1-0.1
			c0.1,0,0.2,0,0.3-0.1c0.1,0,0.2,0,0.4-0.1c0.1,0,0.3-0.1,0.4-0.1c0.4-0.1,0.7-0.1,1.1-0.1c0.2,0,0.4,0,0.6,0c0.2,0,0.4,0,0.6,0
			c0.9-0.1,1.8-0.1,2.7,0c0.2,0,0.4,0,0.6,0c0.2,0,0.4,0,0.6,0c0.5,0,0.9,0.1,1.4,0.2c0.1,0,0.2,0,0.3,0.1c0.1,0,0.1,0.1,0.2,0.1
			c0,0,0,0,0.1,0.1c0.1,0.3,0.2,0.6,0.3,0.9c0.1,0.5,0.3,0.9,0.4,1.4c0,0.1,0.1,0.3,0.1,0.5c0.1,0.3,0.1,0.6,0.2,1
			c0,0.1,0.1,0.3,0.1,0.5c0,0.1,0.1,0.3,0.1,0.5c0,0.2,0.1,0.3,0.1,0.5c0,0.2,0.1,0.3,0.1,0.5c0,0.1,0.1,0.3,0.1,0.5
			c0.1,0.3,0.1,0.7,0.2,1c0,0.3,0.1,0.7,0.2,1c0.2,1.4,0.6,2.8,0.6,4.2c0,0.2,0,0.4,0.1,0.6c0,0.3,0,0.7,0.1,1c0,0.2,0,0.4,0,0.6
			c0,0.2,0,0.3,0,0.5c0,0.2,0,0.4,0,0.6c0,0.4,0.1,0.7,0.1,1.1c0,0.3,0,0.7,0,1c0,0.7,0.1,1.4,0,2.1c0,0.4,0,0.7,0,1.1
			c0,0.3,0,0.7-0.1,1c0,0.2,0,0.3,0,0.5c0,0.2,0,0.3,0,0.5c0,0.3,0,0.7-0.1,1c0,0.9-0.2,2.1-0.4,3c0,0.3-0.1,0.7-0.2,1
			c0,0.1-0.1,0.3-0.1,0.5c-0.1,0.3-0.1,0.6-0.2,1c-0.1,0.1-0.1,0.3-0.1,0.4c-0.1,0.6-0.4,1.2-0.6,1.8c-0.1,0.3-0.2,0.6-0.3,0.9
			c-0.1,0.1-0.1,0.3-0.2,0.4c-0.1,0.1-0.1,0.3-0.2,0.4c-0.1,0.1-0.1,0.3-0.2,0.4c-0.1,0.1-0.1,0.3-0.2,0.4c-0.1,0.1-0.1,0.3-0.2,0.4
			c-0.1,0.3-0.2,0.5-0.4,0.8c-0.1,0.1-0.2,0.3-0.3,0.4c-0.1,0.3-0.3,0.5-0.5,0.7c-0.2,0.2-0.4,0.5-0.5,0.7c-0.2,0.2-0.4,0.5-0.6,0.7
			c-0.1,0.1-0.2,0.2-0.3,0.3c-0.3,0.3-0.6,0.6-0.9,0.9c-0.1,0.1-0.2,0.2-0.3,0.3c-0.1,0.1-0.2,0.2-0.3,0.3c-0.1,0.1-0.2,0.2-0.3,0.3
			c-0.2,0.2-0.5,0.4-0.7,0.5c-0.4,0.2-0.7,0.4-1.1,0.7c-0.1,0.1-0.3,0.1-0.4,0.2c-0.1,0.1-0.3,0.1-0.4,0.2c-0.1,0-0.3,0.1-0.4,0.2
			c-0.3,0.1-0.6,0.2-0.9,0.3c-0.1,0.1-0.3,0.1-0.4,0.1c-0.3,0.1-0.6,0.2-0.9,0.3c-0.1,0-0.3,0.1-0.4,0.1c-0.8,0.2-1.7,0.4-2.5,0.4
			c-0.4,0-0.7,0-1.1,0c-0.4,0-0.7,0-1.1,0c-0.2,0-0.3,0-0.5,0c-0.2,0-0.4,0-0.6,0c-0.2,0-0.3,0-0.5-0.1c-0.5,0-1-0.1-1.5-0.2
			c-0.1,0-0.3-0.1-0.5-0.1c-0.1,0-0.3-0.1-0.5-0.1c-0.7-0.1-1.6-0.4-2.2-0.7c-0.1,0-0.3-0.1-0.4-0.2c-0.1,0-0.3-0.1-0.4-0.2
			c-0.1-0.1-0.3-0.1-0.4-0.2c-0.3-0.1-0.5-0.3-0.7-0.4c-0.3-0.1-0.5-0.3-0.7-0.5c-0.2-0.2-0.5-0.4-0.7-0.5c-0.2-0.2-0.4-0.4-0.6-0.6
			c-0.2-0.2-0.4-0.4-0.6-0.6c-0.2-0.2-0.4-0.4-0.6-0.6c-0.2-0.2-0.4-0.5-0.6-0.7c-0.1-0.1-0.2-0.2-0.3-0.4c-0.1-0.1-0.2-0.2-0.3-0.3
			c-0.1-0.1-0.2-0.2-0.3-0.4c-0.1-0.2-0.3-0.5-0.4-0.7c-0.1-0.3-0.3-0.5-0.4-0.8c-0.1-0.1-0.1-0.2-0.2-0.4c-0.1-0.1-0.1-0.3-0.2-0.4
			c-0.1-0.1-0.1-0.3-0.2-0.4c-0.1-0.1-0.1-0.3-0.2-0.4c-0.1-0.1-0.1-0.3-0.2-0.4c-0.1-0.3-0.2-0.6-0.3-0.8c-0.2-0.4-0.4-0.9-0.4-1.4
			c-0.1-0.3-0.2-0.6-0.3-0.9c-0.1-0.3-0.1-0.6-0.2-1c-0.1-0.3-0.1-0.6-0.2-1c0-0.2,0-0.3-0.1-0.5c-0.3-0.9-0.4-2.1-0.4-3
			c0-0.2,0-0.3-0.1-0.5c0-0.3,0-0.7-0.1-1c0-0.3,0-0.7-0.1-1c0-0.2,0-0.4,0-0.6c0-0.3,0-0.7,0-1c-0.1-0.7-0.1-1.5,0-2.1
			c0-0.4,0-0.7,0-1.1c0-0.4,0.1-0.7,0.1-1.1c0-0.2,0-0.4,0-0.6c0-0.2,0-0.3,0-0.5c0-0.2,0-0.4,0-0.6c0-0.2,0-0.3,0-0.5
			c0-0.4,0-0.7,0.1-1.1c0-1.5,0.3-3.3,0.7-4.7c0-0.3,0.1-0.7,0.2-1c0-0.2,0-0.3,0.1-0.5c0.1-0.3,0.1-0.7,0.2-1
			c0-0.1,0.1-0.3,0.1-0.5c0-0.2,0.1-0.3,0.1-0.5c0.1-0.3,0.1-0.6,0.2-1c0-0.2,0.1-0.3,0.1-0.5c0-0.2,0.1-0.3,0.1-0.5
			c0.1-0.3,0.2-0.6,0.3-1c0.1-0.3,0.1-0.6,0.3-0.9C164.8,21.1,164.9,21.1,164.9,21C165,21,164.9,21.1,164.9,21z"/>
	</g>
</g>
</svg>
