<?xml version="1.0" encoding="utf-8"?>
<!-- Generator: Adobe Illustrator 18.0.0, SVG Export Plug-In . SVG Version: 6.00 Build 0)  -->
<!DOCTYPE svg PUBLIC "-//W3C//DTD SVG 1.1//EN" "http://www.w3.org/Graphics/SVG/1.1/DTD/svg11.dtd">
<svg version="1.1" id="Camada_1" xmlns="http://www.w3.org/2000/svg" xmlns:xlink="http://www.w3.org/1999/xlink" x="0px" y="0px"
	 viewBox="0 109.1 16 16" enable-background="new 0 109.1 16 16" xml:space="preserve">
<g>
	<g>
		<path fill="#EBAC29" d="M8,109.2c-4.4,0-7.9,3.5-7.9,7.9c0,4.4,3.5,7.9,7.9,7.9c4.4,0,7.9-3.5,7.9-7.9
			C15.9,112.8,12.4,109.2,8,109.2z M5.5,120.9"/>
		<path fill="#FFE388" d="M8,109.6c-4.1,0-7.5,3.4-7.5,7.5c0,4.1,3.4,7.5,7.5,7.5c4.1,0,7.5-3.4,7.5-7.5
			C15.5,113,12.2,109.6,8,109.6z"/>
		<path fill="#FFEDBB" d="M8.5,124.2c-4,0-7.3-3.3-7.3-7.3c0-0.1,0-0.2,0-0.3c-0.1,0.4-0.1,0.8-0.1,1.2c0,3.6,3,6.6,6.6,6.6
			c0.6,0,1.2-0.1,1.8-0.2C9.1,124.2,8.8,124.2,8.5,124.2z"/>
		<ellipse fill="#FFEDBB" cx="8.1" cy="114.4" rx="6.1" ry="4.4"/>
	</g>
	<g>
		<path fill-rule="evenodd" clip-rule="evenodd" fill="#EBAC29" d="M2.2,117c0,0.2,0,0.3,0.1,0.5c0,0,0,0,0,0l0,0
			c0.1,0.1,0.3,0.2,0.5,0.2h0.7v4.1c0,0.2,0.1,0.4,0.2,0.5c0.1,0.1,0.3,0.2,0.5,0.2h2.1v-3.5c0,0,0-0.1,0-0.1c0-0.2,0.2-0.4,0.4-0.4
			c0.1,0,0.2-0.1,0.3-0.1h1.3c0.1,0,0.2,0,0.3,0.1c0.1,0,0.2,0.1,0.2,0.1c0.1,0.1,0.2,0.3,0.2,0.5v3.5h2.1c0.1,0,0.2,0,0.3-0.1
			c0.1,0,0.1-0.1,0.2-0.1c0.1-0.1,0.2-0.3,0.2-0.5v-4.1h0.7c0.2,0,0.4-0.1,0.5-0.2l0,0c0,0,0,0,0,0c0,0,0-0.1,0.1-0.1
			c0-0.1,0.1-0.2,0.1-0.3V117c0-0.1,0-0.2-0.1-0.3c-0.1-0.1-0.1-0.2-0.2-0.3l0,0c0,0,0,0,0,0c-0.1-0.1-0.1-0.1-0.2-0.2
			c-0.1-0.1-0.1-0.1-0.2-0.2c-0.1-0.1-0.3-0.3-0.4-0.4c0,0-0.1-0.1-0.1-0.1c-0.2-0.2-0.1-0.1-0.1-0.5c0-0.6,0-1.1,0-1.7
			c0-0.3,0-0.5-0.1-0.7c0,0,0,0,0-0.1c-0.1-0.1-0.3-0.2-0.5-0.2h-0.7c-0.1,0-0.3,0-0.3,0.1c-0.2,0.1-0.3,0.3-0.3,0.5
			c0,0.1,0,0.3,0,0.4l0,0c0,0,0,0,0,0l-0.2-0.2c0,0,0,0,0,0l0,0c0,0,0,0,0,0c0,0,0,0,0,0L9.5,113c0,0,0,0,0,0l-0.1-0.1c0,0,0,0,0,0
			l-0.2-0.2c0,0,0,0,0,0c0,0,0,0,0,0l-0.1-0.1c0,0,0,0,0,0L9,112.5c0,0,0,0,0,0l-0.1-0.1c0,0,0,0,0,0l0,0c0,0,0,0,0,0l-0.4-0.4
			c-0.1-0.1-0.3-0.3-0.6-0.3H7.7c-0.3,0-0.5,0.2-0.6,0.4l-0.9,0.8c0,0,0,0,0,0c0,0,0,0,0,0c0,0,0,0,0,0L6,113c0,0,0,0,0,0l-0.1,0.1
			c0,0,0,0,0,0l-0.1,0.1c0,0,0,0,0,0l-0.3,0.3c0,0,0,0,0,0l0,0c0,0,0,0,0,0l-0.2,0.2c0,0,0,0,0,0l0,0c0,0,0,0,0,0l-0.3,0.3
			c-0.8,0.8-1.5,1.5-2.3,2.3l-0.2,0.2c0,0,0,0,0,0c0,0,0,0.1-0.1,0.1C2.3,116.8,2.2,116.9,2.2,117L2.2,117z"/>
	</g>
</g>
</svg>
