<?xml version="1.0" encoding="utf-8"?>
<!-- Generator: Adobe Illustrator 18.0.0, SVG Export Plug-In . SVG Version: 6.00 Build 0)  -->
<!DOCTYPE svg PUBLIC "-//W3C//DTD SVG 1.0//EN" "http://www.w3.org/TR/2001/REC-SVG-20010904/DTD/svg10.dtd">
<svg version="1.0" id="Camada_1" xmlns="http://www.w3.org/2000/svg" xmlns:xlink="http://www.w3.org/1999/xlink" x="0px" y="0px"
	 viewBox="0 0 189 80.8" enable-background="new 0 0 189 80.8" xml:space="preserve">
<g>
	<g>
		<path fill="#1B7C09" d="M14,25.5C14,25.5,14.1,25.4,14,25.5c0.1-0.1,0.2-0.1,0.2-0.1c0.1,0,0.1,0,0.2-0.1c0.1,0,0.2,0,0.3,0
			c0.1,0,0.2,0,0.3-0.1c0.2,0,0.5-0.1,0.7-0.1c0.3,0,0.6-0.1,0.9-0.1c0.1,0,0.3,0,0.5-0.1c0.3,0,0.7-0.1,1-0.1c0.2,0,0.4,0,0.6,0
			c0.2,0,0.4,0,0.6-0.1c0.2,0,0.4,0,0.6,0c0.2,0,0.4,0,0.6,0c0.2,0,0.4,0,0.6,0c0.2,0,0.4,0,0.6,0c0.2,0,0.4,0,0.7,0
			c0.4,0,0.9,0,1.3-0.1c0.4,0,0.9,0,1.3,0c0.7,0,1.3,0,2,0c0.6,0,1.3,0,1.9,0c0.6,0,1.2,0,1.7,0c0.2,0,0.4,0,0.6,0
			c0.3,0,0.6,0,1,0.1c0.1,0,0.3,0,0.4,0c0.3,0,0.5,0,0.8,0.1c0.1,0,0.2,0,0.3,0.1c0.1,0,0.2,0,0.3,0c0.2,0.1,0.4,0.1,0.6,0.2
			c0,0,0,0,0.1,0.1c0,0.1,0.1,0.1,0.1,0.2c0,0.1,0.1,0.2,0.1,0.3c0.3,0.7,0.3,1.7,0.4,2.5c0,0.2,0,0.4,0,0.6c0,0.2,0,0.4,0,0.6
			c0,0.2,0,0.4,0,0.6c0,0.8,0.1,1.6,0,2.3c0,0.2,0,0.3,0,0.5c0,0.1,0,0.3-0.1,0.4c0,0.2,0,0.5-0.1,0.7c0,0.1-0.1,0.1-0.1,0.2
			c0,0-0.1,0.1-0.1,0.1c-0.1,0-0.1,0.1-0.2,0.1c-0.1,0-0.2,0-0.4,0c-0.6,0.1-1.2,0-1.8,0c-0.2,0-0.4,0-0.7,0c-0.2,0-0.4,0-0.7,0
			c-0.2,0-0.4,0-0.6-0.1c-0.4,0-0.7,0-1.1-0.1c-0.2,0-0.4,0-0.7-0.1c0,0,0,0-0.1,0v0c0,0.3,0,0.7,0,1c-0.2,1.2,0,2.6,0,3.8
			c0.2,1.2-0.1,2.5,0.1,3.8c0,0.6,0,1.3,0,1.9c0,0.4,0,0.8,0,1.3c0,0.2,0,0.5,0,0.8c0,0.2,0,0.5,0,0.7c0,0.2,0,0.5,0,0.7
			c0,0.2,0,0.5,0,0.7c0,0.5,0,0.9,0.1,1.4c0,0.4,0,0.9,0.1,1.3c0,0.4,0,0.8,0.1,1.2c0,0.3,0,0.7,0.1,1c0,0.3,0,0.6,0.1,1
			c0,0.3,0,0.5,0.1,0.8c0,0.1,0,0.2,0.1,0.3c0,0.1,0,0.2,0,0.3c0,0.1,0,0.2,0,0.3c0,0,0,0.1,0,0.2c0,0.1,0,0.2,0.1,0.3
			c0,0,0,0,0,0.1v0c0,0,0,0,0.1,0c0.1,0,0.2,0,0.3,0c0.9-0.2,1.9-0.3,2.8-0.4c0.2,0,0.4,0,0.7,0c0.4,0,0.8,0,1.2,0
			c0.3,0,0.6,0.1,0.9,0.2c0.1,0,0.2,0.1,0.3,0.1c0,0,0,0.1,0.1,0.2c0,0.1,0.1,0.1,0.1,0.2c0.1,0.5,0.3,1.1,0.3,1.7
			c0,0.2,0,0.3,0.1,0.5c0,0.2,0,0.4,0,0.6c0,0.2,0,0.4,0,0.6c0,0.2,0,0.4,0,0.6c0,1,0.1,2.1,0,3.2c0,0.2,0,0.4,0,0.6
			c0,0.2,0,0.4,0,0.6c0,0.3,0,0.6-0.1,1c0,0.2-0.1,0.5-0.1,0.7c0,0.1-0.1,0.1-0.1,0.2c0,0.1-0.1,0.2-0.1,0.2c-0.1,0-0.2,0-0.3,0.1
			c-0.1,0-0.1,0-0.2,0c-0.1,0-0.2,0-0.3,0.1c-0.1,0-0.2,0-0.3,0c-0.1,0-0.2,0-0.3,0c-0.1,0-0.2,0-0.4,0c-0.1,0-0.3,0-0.4,0
			c-0.1,0-0.3,0-0.4,0c-0.3,0-0.6,0-1,0.1c-0.2,0-0.3,0-0.5,0c-0.4,0-0.7,0-1.1,0c-0.4,0-0.8,0-1.2,0c-1.1,0.1-2.2,0-3.2,0.1
			c-1.1,0-2.3,0.1-3.4,0c-0.9,0-1.8,0.1-2.6,0c-0.4,0-0.8,0-1.3,0c-0.4,0-0.8,0-1.2,0c-0.4,0-0.7,0-1.1-0.1c-0.2,0-0.3,0-0.5,0
			c-0.3,0-0.6,0-1-0.1c-0.1,0-0.3,0-0.4,0c-0.1,0-0.2,0-0.4,0c-0.1,0-0.2,0-0.4,0c-0.1,0-0.2,0-0.3,0c-0.1,0-0.2,0-0.3,0
			c-0.1,0-0.2,0-0.3,0c-0.1,0-0.1,0-0.2,0c-0.1,0-0.1,0-0.1,0c0,0-0.1,0-0.1,0c-0.1-0.1-0.1-0.1-0.1-0.2c-0.1-0.1-0.1-0.1-0.1-0.2
			c0-0.1,0-0.2-0.1-0.3c-0.1-0.3-0.1-0.6-0.1-0.9c0-0.4-0.1-0.7-0.1-1.1c0-0.4-0.1-0.8,0-1.3c-0.1-0.6-0.1-1.3,0-2
			c0-0.2,0-0.4,0-0.6c0-0.2,0-0.4,0-0.6c0-0.2,0-0.4,0.1-0.6c0-0.6,0.1-1.4,0.3-1.9c0-0.1,0.1-0.2,0.1-0.3c0-0.1,0.1-0.1,0.1-0.2
			c0-0.1,0.1-0.1,0.1-0.1c0.1,0,0.2-0.1,0.3-0.1c0.1,0,0.3-0.1,0.4-0.1c0.2,0,0.3,0,0.5,0c0.2,0,0.4,0,0.6,0
			c0.8,0.1,1.7,0.1,2.5,0.3c0.3,0,0.6,0.1,0.9,0.1c0.1,0,0.2,0,0.3,0.1c0,0,0,0,0.1,0v0c0,0,0,0,0-0.1c0-0.1,0.1-0.2,0-0.3
			c0-0.2,0.1-0.3,0.1-0.5c0-0.1,0-0.2,0-0.3c0-0.1,0-0.2,0-0.3c0-0.1,0-0.3,0-0.4c0-0.1,0-0.3,0-0.4c0-0.3,0.1-0.6,0.1-0.9
			c0-0.2,0-0.4,0.1-0.6c0-0.4,0.1-0.7,0.1-1.1c0-0.2,0-0.4,0.1-0.6c0-0.2,0-0.4,0-0.6c0-0.4,0-0.9,0.1-1.3c0-0.2,0-0.5,0-0.7
			c0-0.2,0-0.5,0.1-0.7c0-0.2,0-0.5,0-0.7c0-0.2,0-0.5,0-0.8c0-0.2,0-0.5,0-0.7c0-0.3,0-0.5,0-0.8c0-0.6,0-1.1,0.1-1.7
			c0-0.5,0-1.1,0-1.6c0-0.7,0-1.4,0-2.1c0-1.5,0.4-3.7,0-5.2c0-0.1,0-0.2,0-0.3v0c0,0-0.1,0-0.1,0c-0.1,0-0.1,0-0.2,0.1
			c-0.8,0-1.6,0.3-2.4,0.3c-0.6,0.1-1.2,0-1.8,0c-0.2,0-0.3,0-0.5-0.1c-0.4-0.1-0.9-0.2-1-0.6c-0.2-0.2-0.2-0.7-0.3-0.9
			c0-0.1,0-0.3,0-0.4c0-0.2,0-0.3,0-0.5c0-0.6,0-1.2,0-1.7c0-0.2,0-0.4,0-0.6c0-0.2,0-0.4,0-0.6c0.1-0.8,0.1-1.6,0.3-2.4
			c0-0.2,0-0.3,0.1-0.5c0-0.1,0.1-0.3,0.1-0.4c0-0.1,0.1-0.2,0.1-0.3c0-0.1,0.1-0.2,0.1-0.3C13.9,25.6,14,25.5,14,25.5
			C14,25.5,14,25.5,14,25.5z"/>
		<path fill="#020202" d="M69.3,44.4c0.1,0.9,0.3,1.7,0.3,2.6c0,0.2,0,0.4,0,0.6c0,0.2,0,0.4,0,0.6c0.1,0.9,0.1,2,0,3
			c0,0.2,0,0.4,0,0.6c0,0.2,0,0.4-0.1,0.6c0,0.4-0.1,0.7-0.1,1.1c-0.1,0.5-0.1,1-0.3,1.5c0,0.2-0.1,0.3-0.1,0.5
			c0,0.1-0.1,0.3-0.1,0.5c-0.1,0.1-0.1,0.3-0.1,0.4c0,0.2-0.1,0.3-0.1,0.5c-0.1,0.3-0.2,0.6-0.3,0.9c0,0.3-0.1,0.6-0.3,0.8
			c-0.1,0.3-0.2,0.5-0.3,0.8c-0.1,0.1-0.1,0.3-0.2,0.4c-0.1,0.1-0.1,0.3-0.2,0.4c-0.1,0.1-0.1,0.2-0.2,0.4c-0.1,0.1-0.1,0.2-0.2,0.4
			c-0.1,0.2-0.3,0.5-0.4,0.7c-0.1,0.1-0.1,0.2-0.2,0.3c-0.1,0.1-0.1,0.2-0.2,0.3c-0.1,0.1-0.1,0.2-0.2,0.3c-0.1,0.2-0.3,0.4-0.5,0.6
			c-0.1,0.1-0.1,0.2-0.2,0.3c-0.1,0.1-0.2,0.2-0.3,0.3c-0.4,0.4-0.7,0.7-1.1,1c-0.1,0.1-0.2,0.2-0.3,0.3c-0.3,0.2-0.6,0.5-0.9,0.6
			c-0.2,0.2-0.4,0.3-0.6,0.4c-0.4,0.3-0.8,0.5-1.2,0.7c-0.2,0.1-0.4,0.2-0.7,0.3c-0.1,0-0.2,0.1-0.3,0.1c-0.1,0-0.2,0.1-0.3,0.1
			c-0.1,0-0.2,0.1-0.3,0.1c-0.1,0-0.2,0.1-0.3,0.1c-0.1,0-0.2,0-0.3,0.1c-0.4,0.2-0.9,0.3-1.4,0.3c-0.1,0-0.2,0-0.4,0.1
			c-0.1,0-0.2,0-0.3,0c-0.1,0-0.2,0-0.4,0c-0.1,0-0.2,0-0.3,0c-0.2,0-0.5,0-0.7,0c-0.2,0-0.5,0-0.7,0c-0.2,0-0.5,0-0.7,0
			c-0.1,0-0.2,0-0.3,0c-0.1,0-0.2,0-0.4,0c-0.1,0-0.2,0-0.4-0.1c-0.6,0-1.2-0.2-1.8-0.3c-0.2-0.1-0.5-0.2-0.7-0.2
			c-0.1,0-0.2-0.1-0.3-0.1c-0.1,0-0.2-0.1-0.4-0.1c-0.1,0-0.2-0.1-0.3-0.1C49,67,48.9,67,48.8,67c-0.2-0.1-0.4-0.2-0.7-0.3
			c-0.1,0-0.2-0.1-0.3-0.1c-0.1,0-0.2-0.1-0.4-0.1c-0.1-0.1-0.2-0.1-0.3-0.2c-0.1,0-0.2-0.1-0.3-0.2c-0.1,0-0.2-0.1-0.3-0.2
			c-0.1-0.1-0.2-0.1-0.3-0.2c-0.1-0.1-0.2-0.1-0.3-0.2c-0.1-0.1-0.2-0.1-0.3-0.2c-0.1-0.1-0.2-0.1-0.3-0.2c-0.2-0.1-0.4-0.3-0.6-0.4
			c-0.1-0.1-0.2-0.1-0.3-0.2c-0.2-0.2-0.4-0.3-0.6-0.5c-0.4-0.3-0.8-0.7-1.2-1.1c-0.1-0.1-0.2-0.2-0.3-0.3c-0.1-0.1-0.2-0.2-0.3-0.3
			c-0.1-0.1-0.2-0.2-0.3-0.3c-0.2-0.2-0.4-0.4-0.5-0.6c-0.1-0.1-0.2-0.2-0.3-0.3c-0.2-0.3-0.5-0.7-0.7-1c-0.2-0.2-0.3-0.5-0.4-0.7
			c-0.2-0.2-0.3-0.5-0.4-0.7c-0.1-0.1-0.1-0.2-0.2-0.4c0-0.1-0.1-0.2-0.2-0.4c0-0.1-0.1-0.3-0.1-0.4c-0.1-0.3-0.2-0.5-0.4-0.8
			c0-0.1-0.1-0.3-0.1-0.4c-0.1-0.4-0.3-0.8-0.4-1.3c0-0.1-0.1-0.3-0.1-0.4c0-0.1-0.1-0.3-0.1-0.4c0-0.1-0.1-0.3-0.1-0.4
			c0-0.1-0.1-0.3-0.1-0.4c0-0.1,0-0.3-0.1-0.4c-0.2-0.6-0.3-1.2-0.3-1.8c0-0.1,0-0.3-0.1-0.5c0-0.5,0-1-0.1-1.4c0-0.3,0-0.6,0-1
			c0-0.2,0-0.3,0-0.5c0-0.3,0-0.7,0-1c0.1-0.5,0.1-1,0.1-1.5c0.1-0.9,0.2-1.8,0.4-2.6c0-0.2,0-0.3,0.1-0.5c0-0.2,0.1-0.3,0.1-0.5
			c0.1-0.9,0.4-1.9,0.7-2.7c0.1-0.4,0.2-0.7,0.4-1.1c0.2-0.4,0.3-0.7,0.4-1.1c0-0.2,0.1-0.3,0.2-0.5c0.2-0.5,0.4-1,0.7-1.5
			c0.1-0.1,0.1-0.3,0.2-0.4c0.3-0.4,0.5-0.9,0.8-1.3c0.1-0.1,0.2-0.3,0.3-0.4c0.1-0.1,0.2-0.3,0.3-0.4c0.1-0.1,0.2-0.2,0.3-0.4
			c0.3-0.5,0.8-1,1.2-1.5c0.1-0.1,0.2-0.2,0.3-0.4c0.2-0.2,0.4-0.4,0.6-0.6c0.1-0.1,0.2-0.2,0.3-0.3c0.1-0.1,0.2-0.2,0.3-0.3
			c0.1-0.1,0.2-0.2,0.3-0.3c0.1-0.1,0.2-0.2,0.3-0.3c0.1-0.1,0.2-0.2,0.3-0.3c0.2-0.2,0.5-0.3,0.7-0.5c0.2-0.2,0.5-0.3,0.7-0.5
			c0.1-0.1,0.2-0.1,0.4-0.2c0.2-0.1,0.5-0.2,0.7-0.4c0.2-0.1,0.5-0.2,0.7-0.4c0.5-0.2,1-0.4,1.5-0.6c0.1,0,0.2-0.1,0.4-0.1
			c0.1,0,0.2-0.1,0.4-0.1c0.2-0.1,0.5-0.1,0.7-0.2c0.3-0.1,0.5-0.1,0.8-0.1c0.2-0.1,0.5-0.1,0.7-0.1c0.1,0,0.2,0,0.4-0.1
			c0.1,0,0.3,0,0.4,0c0.6-0.1,1.3,0,1.9,0c0.3,0.1,0.7,0.1,1.1,0.1c0.1,0,0.2,0,0.4,0.1c0.4,0,0.7,0.1,1.1,0.2
			c0.2,0.1,0.5,0.1,0.7,0.2c0.1,0,0.2,0.1,0.3,0.1c0.1,0,0.2,0.1,0.3,0.1c0.1,0,0.2,0.1,0.4,0.1c0.1,0,0.2,0.1,0.3,0.1
			c0.1,0,0.2,0.1,0.3,0.1c0.2,0.1,0.5,0.2,0.7,0.3c0.2,0.1,0.4,0.2,0.6,0.3c0.1,0,0.2,0.1,0.3,0.2c0.2,0.1,0.4,0.2,0.6,0.4
			c0.1,0.1,0.2,0.1,0.3,0.2c0.2,0.2,0.4,0.3,0.6,0.4c0.1,0.1,0.2,0.1,0.3,0.2c0.1,0.1,0.2,0.2,0.3,0.3c0.1,0.1,0.2,0.2,0.3,0.3
			c0.2,0.1,0.4,0.3,0.5,0.5c0.1,0.1,0.2,0.2,0.3,0.3c0.1,0.1,0.1,0.2,0.2,0.3c0.1,0.2,0.3,0.4,0.4,0.6c0,0.1,0.1,0.2,0.2,0.3
			c0.1,0.1,0.1,0.2,0.2,0.3c0.1,0.1,0.1,0.2,0.2,0.3c0.1,0.1,0.1,0.2,0.2,0.3c0.1,0.1,0.1,0.2,0.2,0.3c0,0.1,0.1,0.2,0.1,0.3
			c0.1,0.1,0.1,0.2,0.2,0.4c0,0.1,0.1,0.2,0.1,0.3c0.1,0.2,0.2,0.5,0.3,0.7c0,0.1,0.1,0.2,0.1,0.4c0,0.1,0,0.2,0.1,0.4
			c0.2,0.6,0.3,1.4,0.4,2c0,0.1,0,0.3,0,0.4c0,0.1,0,0.3,0,0.4c0,0.5,0.1,1.1-0.3,1.4c-0.1,0.1-0.2,0.1-0.3,0.2
			c-0.3,0.2-0.6,0.3-0.9,0.3c-0.2,0-0.4,0.1-0.6,0.1c-0.2,0-0.4,0.1-0.6,0.1c-0.2,0-0.4,0-0.6,0c-0.4,0-0.9,0-1.3,0
			c-0.6,0-1.2-0.1-1.8-0.2c-0.4-0.1-0.8-0.2-1.2-0.4c-0.1,0-0.1-0.1-0.2-0.2c-0.1,0-0.1-0.1-0.1-0.2c-0.1-0.4-0.1-0.7-0.1-1.1
			c0-0.1,0-0.2-0.1-0.3c0-0.1,0-0.2-0.1-0.3c0-0.1-0.1-0.2-0.1-0.3c-0.1-0.1-0.1-0.2-0.1-0.3c-0.1-0.3-0.3-0.6-0.4-0.8
			c0-0.1-0.1-0.2-0.2-0.3c-0.1-0.1-0.1-0.1-0.2-0.2c-0.2-0.2-0.4-0.5-0.7-0.6c-0.1-0.1-0.1-0.1-0.2-0.2c-0.1-0.1-0.2-0.1-0.3-0.2
			c-0.1,0-0.2-0.1-0.3-0.1c-0.1,0-0.2-0.1-0.3-0.1c-0.1,0-0.2-0.1-0.3-0.1c-0.1,0-0.2-0.1-0.3-0.1c-0.2,0-0.4-0.1-0.6-0.1
			c-0.5,0-1-0.1-1.5-0.1c-0.1,0-0.2,0-0.3,0.1c-0.2,0-0.4,0.1-0.6,0.1c-0.1,0-0.2,0.1-0.3,0.1c-0.1,0-0.2,0.1-0.3,0.1
			c-0.2,0.1-0.4,0.2-0.6,0.3c-0.1,0.1-0.2,0.1-0.3,0.2c-0.4,0.3-0.8,0.6-1.2,0.9c-0.1,0.1-0.2,0.2-0.3,0.3c-0.4,0.4-0.7,0.9-1,1.4
			c-0.1,0.1-0.1,0.3-0.2,0.4c-0.2,0.3-0.3,0.6-0.4,0.9c-0.1,0.1-0.1,0.3-0.2,0.5c-0.1,0.1-0.1,0.3-0.2,0.5c-0.2,0.5-0.4,1.1-0.4,1.6
			c-0.1,0.2-0.1,0.4-0.1,0.6c0,0.2-0.1,0.4-0.1,0.6c-0.1,0.4-0.1,0.9-0.1,1.3c0,0.2,0,0.5-0.1,0.7c0,0.2,0,0.5,0,0.7
			c0,0.5,0,1,0,1.5c0,0.2,0,0.5,0,0.7c0,0.2,0,0.4,0,0.7c0,0.4,0.1,0.9,0.2,1.3c0,0.2,0.1,0.4,0.1,0.6c0.1,0.6,0.3,1.2,0.4,1.7
			c0.1,0.2,0.1,0.3,0.2,0.5c0.1,0.2,0.1,0.3,0.2,0.5c0.3,0.6,0.6,1.2,0.9,1.8c0.1,0.1,0.2,0.2,0.3,0.4c0.2,0.3,0.4,0.5,0.6,0.7
			c0.2,0.4,0.6,0.6,0.9,0.9c0.1,0.1,0.2,0.2,0.3,0.3c0.1,0.1,0.2,0.2,0.3,0.3c0.2,0.2,0.4,0.3,0.7,0.4c0.1,0.1,0.2,0.1,0.3,0.2
			c0.1,0,0.2,0.1,0.3,0.1c0.1,0,0.2,0.1,0.3,0.1c0.1,0,0.2,0.1,0.3,0.1c0.3,0.1,0.7,0.2,1,0.2c0.1,0,0.2,0,0.3,0c0.2,0,0.4,0,0.6,0
			c0.5-0.1,1.1-0.1,1.6-0.3c0.3-0.1,0.6-0.2,0.9-0.4c0.1-0.1,0.2-0.1,0.3-0.2c0.1-0.1,0.2-0.1,0.3-0.2c0.4-0.2,0.6-0.6,0.9-1
			c0-0.1,0.1-0.2,0.2-0.3c0-0.1,0.1-0.2,0.1-0.3c0-0.1,0.1-0.2,0.1-0.3c0-0.1,0.1-0.2,0.1-0.3c0-0.1,0.1-0.2,0.1-0.4
			c0.1-0.4,0.2-0.8,0.2-1.2c0-0.1,0-0.3,0-0.4c0.1-0.8-0.6-0.4-1.2-0.3c-0.4,0-0.8,0.1-1.2,0.1c-0.2,0-0.4,0-0.7,0
			c-0.2,0-0.4,0-0.6,0c-0.4,0-0.8,0-1.2,0c-0.3,0-0.6,0-0.8-0.1c-0.2-0.1-0.3-0.2-0.3-0.3c0-0.1-0.1-0.2-0.1-0.3
			c0-0.1-0.1-0.3-0.1-0.4c-0.1-0.1-0.1-0.3-0.1-0.5c0-0.2-0.1-0.3-0.1-0.5c-0.1-0.2-0.1-0.4-0.1-0.6c-0.3-1.2-0.2-2.5-0.4-3.7
			c0-0.2,0-0.3,0-0.5c0-0.1,0-0.3,0-0.4c0-0.1,0-0.2,0.1-0.3c0-0.1,0.1-0.1,0.1-0.2c0,0,0.1-0.1,0.1-0.1c0.2,0,0.3,0,0.5-0.1
			c0.1,0,0.2,0,0.3,0c0.1,0,0.3,0,0.4,0c0.1,0,0.3,0,0.4,0c0.3,0,0.6-0.1,1-0.1c0.2,0,0.4,0,0.6,0c0.4,0,0.8,0,1.2,0
			c1.2-0.1,2.6-0.1,3.8,0c0.2,0,0.4,0,0.6,0c0.4,0,0.8,0,1.2,0.1c0.4,0,0.7,0,1.1,0.1c0.5,0,1,0.1,1.5,0.2c0.3,0.1,0.5,0.1,0.8,0.2
			c0.1,0,0.2,0.1,0.3,0.1c0.2,0.1,0.3,0.2,0.4,0.3C69.2,44.2,69.3,44.3,69.3,44.4C69.3,44.7,69.3,44.4,69.3,44.4z"/>
		<path fill="#020202" d="M72.9,67.4L72.9,67.4c0-0.1,0-0.4,0-0.4c0-0.1,0-0.1,0-0.2c0,0,0-0.1,0-0.2c0-0.1,0-0.1,0.1-0.2
			c0-0.2,0.1-0.3,0.1-0.5c0.2-0.5,0.3-1,0.4-1.5c0.1-0.2,0.1-0.5,0.2-0.7c0-0.1,0-0.3,0.1-0.4c0-0.1,0.1-0.3,0.1-0.4
			c0-0.1,0.1-0.3,0.1-0.4c0-0.1,0.1-0.3,0.1-0.4c0.1-0.3,0.2-0.6,0.2-0.9c0.1-0.3,0.2-0.7,0.3-1c0.1-0.9,0.5-1.8,0.7-2.7
			c0.2-0.6,0.3-1.2,0.5-1.7c0.1-0.4,0.2-0.8,0.4-1.2c0-0.2,0.1-0.4,0.1-0.6c0.1-0.4,0.2-0.8,0.4-1.2c0-0.2,0.1-0.4,0.1-0.6
			c0.1-0.2,0.1-0.4,0.2-0.7c0.1-0.2,0.1-0.4,0.2-0.6c0.1-0.2,0.1-0.4,0.2-0.6c0.1-0.2,0.1-0.4,0.2-0.7c0.1-0.2,0.1-0.4,0.2-0.6
			c0.1-0.2,0.1-0.4,0.2-0.7c0.1-0.2,0.1-0.4,0.2-0.6c0.1-0.2,0.1-0.4,0.2-0.7c0.1-0.2,0.1-0.4,0.2-0.6c0.1-0.2,0.1-0.4,0.2-0.7
			c0.1-0.2,0.1-0.4,0.2-0.7c0.1-0.2,0.1-0.4,0.2-0.6c0-0.2,0.1-0.4,0.2-0.7c0-0.2,0.1-0.4,0.2-0.6c0-0.2,0.1-0.4,0.2-0.7
			c0-0.2,0.1-0.4,0.2-0.6c0-0.2,0.1-0.4,0.2-0.6c0-0.2,0.1-0.4,0.2-0.6c0-0.2,0.1-0.4,0.2-0.6c0-0.2,0.1-0.4,0.2-0.6
			c0-0.2,0.1-0.4,0.2-0.6c0-0.2,0.1-0.4,0.1-0.6c0.1-0.2,0.1-0.4,0.2-0.6c0.1-0.4,0.2-0.8,0.4-1.2c0-0.2,0.1-0.4,0.1-0.6
			c0.1-0.4,0.2-0.7,0.3-1.1c0.3-0.7,0.4-1.4,0.7-2.1c0.1-0.5,0.3-1,0.4-1.5c0.1-0.5,0.3-0.9,0.4-1.3c0.1-0.3,0.2-0.5,0.3-0.8
			c0-0.1,0.1-0.3,0.1-0.4c0-0.1,0.1-0.2,0.1-0.3c0-0.1,0.1-0.2,0.1-0.4c0.1-0.2,0.2-0.4,0.2-0.6c0-0.2,0.1-0.4,0.2-0.5
			c0.1-0.2,0.1-0.5,0.2-0.7c0-0.1,0-0.2,0.1-0.3c0,0,0-0.1,0-0.1c0,0,0-0.1,0-0.1c0,0,0-0.1,0.1-0.1v0c0,0,0.1,0,0.1-0.1
			c0.1,0,0.1,0,0.2-0.1c0.1,0,0.2,0,0.3,0c0.1,0,0.2,0,0.4-0.1c0.2,0,0.3,0,0.5,0c0.2,0,0.3,0,0.5,0c0.2,0,0.4,0,0.6,0
			c0.4,0,0.8,0,1.3,0c0.7,0,1.3,0,2,0c0.6,0.1,1.2,0,1.9,0.1c0.2,0,0.3,0,0.5,0c0.2,0,0.3,0,0.5,0c0.1,0,0.3,0,0.4,0
			c0.1,0,0.2,0,0.3,0c0.1,0,0.2,0,0.3,0.1c0,0,0.1,0,0.1,0v0c0,0,0,0,0,0c0,0,0,0,0,0.1c0,0,0,0.1,0,0.1c0,0,0,0.1,0.1,0.1
			c0,0,0,0.1,0,0.1c0,0.1,0,0.1,0.1,0.2c0.1,0.2,0.2,0.4,0.2,0.7c0,0.1,0,0.2,0.1,0.3c0.1,0.2,0.1,0.4,0.2,0.6c0,0.1,0,0.2,0.1,0.3
			c0,0.1,0.1,0.2,0.1,0.4c0,0.1,0.1,0.2,0.1,0.4c0,0.1,0.1,0.2,0.1,0.4c0,0.1,0.1,0.3,0.1,0.4c0,0.1,0.1,0.3,0.1,0.4
			c0.2,0.4,0.3,0.9,0.4,1.4c0.2,0.7,0.4,1.3,0.6,2c0.2,0.5,0.3,1.1,0.5,1.6c0.1,0.4,0.2,0.8,0.3,1.1c0.1,0.4,0.2,0.8,0.4,1.2
			c0,0.2,0.1,0.4,0.1,0.6c0.1,0.2,0.1,0.4,0.2,0.6c0.1,0.4,0.2,0.8,0.4,1.3c0,0.2,0.1,0.4,0.2,0.6c0,0.2,0.1,0.4,0.2,0.6
			c0,0.2,0.1,0.4,0.2,0.7c0,0.2,0.1,0.4,0.2,0.6c0,0.2,0.1,0.4,0.1,0.7c0.1,0.2,0.1,0.4,0.2,0.6c0.1,0.2,0.1,0.4,0.2,0.7
			c0,0.2,0.1,0.4,0.2,0.7c0,0.2,0.1,0.4,0.2,0.7c0,0.2,0.1,0.4,0.2,0.7c0,0.2,0.1,0.4,0.2,0.7c0,0.2,0.1,0.4,0.2,0.7
			c0,0.2,0.1,0.4,0.2,0.7c0,0.2,0.1,0.4,0.2,0.6c0,0.2,0.1,0.4,0.1,0.7c0.1,0.2,0.1,0.4,0.2,0.7c0.1,0.2,0.1,0.4,0.2,0.7
			c0.1,0.2,0.1,0.4,0.2,0.6c0.1,0.4,0.2,0.9,0.4,1.3c0,0.2,0.1,0.4,0.1,0.6c0.1,0.4,0.2,0.8,0.4,1.3c0.1,0.4,0.2,0.8,0.3,1.2
			c0.1,0.4,0.2,0.8,0.3,1.2c0.4,1,0.7,2.2,0.9,3.3c0.1,0.3,0.2,0.7,0.3,1c0.1,0.3,0.2,0.6,0.3,1c0,0.1,0.1,0.3,0.1,0.4
			c0,0.1,0.1,0.3,0.1,0.4c0,0.1,0.1,0.3,0.1,0.4c0,0.1,0.1,0.3,0.1,0.4c0,0.3,0.1,0.5,0.2,0.8c0.1,0.5,0.2,1.1,0.4,1.6
			c0,0.1,0,0.1,0.1,0.2c0,0.1,0,0.3,0.1,0.4c0,0.1,0,0.1,0,0.2c0,0.1,0,0.2,0.1,0.3c0,0.1,0,0.2,0,0.3h0c0,0,0,0.1-0.1,0.1
			c0,0-0.1,0-0.2,0.1c-0.1,0-0.2,0-0.3,0c-0.1,0-0.2,0-0.4,0.1c-0.3,0-0.6,0.1-0.9,0.1c-0.4,0-0.7,0-1.1,0.1c-1.3,0-2.6,0-3.9,0
			c-0.4,0-0.8,0-1.3-0.1c-0.2,0-0.4,0-0.6,0c-0.2,0-0.4,0-0.6,0c-0.1,0-0.3,0-0.5,0c-0.1,0-0.3,0-0.4-0.1c-0.2,0-0.5,0-0.7-0.1
			c-0.2,0-0.3-0.1-0.4-0.2c0-0.1,0-0.1-0.1-0.2c0-0.1,0-0.2-0.1-0.3c-0.1-0.2-0.2-0.5-0.2-0.7c-0.1-0.3-0.2-0.6-0.3-1
			c-0.3-2.3-1.3-4.5-1.6-6.8c-0.1-0.4-0.2-0.7-0.3-1.1c0-0.2-0.1-0.3-0.1-0.5c-0.1-0.4-0.1-0.9-0.3-1.3c0-0.1,0-0.2,0-0.3
			c0-0.1,0-0.1-0.1-0.2c0-0.1,0-0.2,0-0.2c0,0-0.1,0-0.2,0c-0.4,0-0.9-0.1-1.3-0.1c-0.2,0-0.4,0-0.6,0c-0.8-0.1-1.7-0.1-2.6,0
			c-0.3,0-0.7,0-1,0.1c-0.1,0-0.2,0.1-0.3,0.1c-0.1,0-0.1,0.1-0.2,0.1v0c0,0,0,0.1,0,0.1c0,0.1,0,0.1,0,0.2
			c-0.1,0.4-0.1,0.8-0.3,1.1c0,0.1,0,0.3-0.1,0.5c-0.1,0.2-0.1,0.3-0.1,0.5c0,0.2-0.1,0.4-0.1,0.6c-0.2,1.7-0.8,3.5-1.2,5.2
			c-0.1,0.8-0.4,1.5-0.5,2.3c0,0.2-0.1,0.3-0.1,0.5c0,0.1-0.1,0.3-0.1,0.4c0,0.1,0,0.2-0.1,0.3c0,0.1-0.1,0.2-0.1,0.3
			c0,0.1-0.1,0.1-0.1,0.2c0,0,0,0.1,0,0.1c0,0-0.1,0.1-0.1,0.1c-0.1,0-0.1,0-0.2,0.1c-0.5,0.1-1.1,0.3-1.6,0.3c-0.2,0-0.4,0-0.6,0.1
			c-0.4,0-0.8,0.1-1.2,0.1c-0.2,0-0.4,0-0.6,0c-0.7,0.1-1.3,0-2,0.1c-0.4,0-0.8,0-1.3,0c-0.2,0-0.4,0-0.6,0c-0.2,0-0.4,0-0.6,0
			c-0.2,0-0.3,0-0.5,0c-0.1,0-0.3,0-0.4-0.1c-0.2,0-0.5,0-0.7-0.1c-0.1,0-0.1,0-0.2-0.1C73,67.5,73,67.4,72.9,67.4z M92.1,50.5
			c0,0,0-0.1,0-0.2c0-0.1,0-0.1,0-0.2c0-0.2-0.1-0.4-0.1-0.6c0-0.5-0.2-1-0.3-1.5c-0.1-0.4-0.2-0.9-0.3-1.3c-0.1-0.3-0.1-0.6-0.2-1
			c0-0.3-0.1-0.7-0.2-1c0-0.2,0-0.3-0.1-0.5c-0.1-0.4-0.1-0.7-0.2-1.1c0-0.2-0.1-0.4-0.1-0.6c-0.1-0.4-0.1-0.7-0.2-1.1
			c-0.2-0.5-0.1-1.1-0.3-1.6c0-0.2,0-0.4-0.1-0.6C90,39,89.9,38.8,90,38.7c-0.1-0.7-0.1-0.7-0.1,0c0,0.2,0,0.4-0.1,0.6
			c0,0.2-0.1,0.4-0.1,0.6c0,0.5-0.2,1.2-0.3,1.7c0,0.2-0.1,0.4-0.1,0.6c0,0.2-0.1,0.4-0.1,0.6c0,0.2-0.1,0.4-0.1,0.6
			c0,0.2-0.1,0.4-0.1,0.6c0,0.2-0.1,0.4-0.1,0.6c0,0.2-0.1,0.4-0.1,0.6c0,0.2-0.1,0.4-0.1,0.6c0,0.2,0,0.3-0.1,0.5
			c-0.1,0.3-0.1,0.7-0.2,1c0,0.2,0,0.3-0.1,0.5c-0.1,0.4-0.2,0.9-0.3,1.3c-0.1,0.2-0.1,0.5-0.1,0.7c0,0.3-0.1,0.8-0.2,1.1
			c-0.2,0.3,0.4,0.2,0.6,0.3c0.2,0,0.3,0,0.5,0c0.4,0,0.8,0,1.2,0c0.2,0,0.4,0,0.6,0c0.2,0,0.4,0,0.6-0.1c0.1,0,0.3,0,0.5,0
			C91.7,50.6,91.9,50.5,92.1,50.5C92.1,50.4,92.1,50.5,92.1,50.5z"/>
		<path fill="#020202" d="M131.8,48.9c0,0.1,0.2,0.3,0.5,0.4c0.6,0.3,1.3,1.2,1.8,1.8c0.3,0.3,0.5,0.6,0.8,1c0.2,0.3,0.5,0.6,0.7,1
			c0.4,0.5,0.7,1,1,1.5c0.5,0.6,0.8,1.4,1.2,2.1c0.1,0.2,0.2,0.3,0.3,0.5c0.2,0.3,0.4,0.7,0.5,1c0.2,0.5,0.5,1,0.7,1.5
			c0.1,0.3,0.2,0.6,0.4,1c0.3,0.7,0.5,1.5,0.8,2.2c0,0.1,0.1,0.3,0.1,0.4c0,0.1,0.1,0.3,0.1,0.4c0.1,0.5,0.2,0.9,0.3,1.4
			c0,0.1,0,0.2,0,0.3c0,0.2,0,0.3,0.1,0.5c0,0.2,0.1,0.5,0,0.7c0,0,0,0.1,0,0.1c0,0,0,0,0,0.1c0,0,0,0,0,0.1
			c-0.2,0.1-0.4,0.2-0.6,0.2c-0.2,0.1-0.4,0.1-0.6,0.1c-0.3,0.1-0.6,0.1-0.9,0.1c-0.3,0-0.6,0.1-1,0.1c-0.4,0-0.7,0.1-1.1,0.1
			c-0.2,0-0.4,0-0.6,0.1c-0.2,0-0.4,0-0.6,0c-0.2,0-0.4,0-0.6,0c-0.4,0-0.8,0-1.2,0c-0.4,0-0.8,0-1.2,0c-0.4,0-0.8,0-1.2,0
			c-0.5-0.1-1.1-0.1-1.6-0.1c-0.5-0.1-1.2-0.1-1.7-0.3c-0.1,0-0.2-0.1-0.3-0.1c-0.1,0-0.2-0.1-0.3-0.1c-0.1-0.1-0.2-0.3-0.3-0.5
			c-0.1-0.1-0.1-0.3-0.1-0.4c-0.2-0.9-0.3-2-0.6-2.9c0-0.1,0-0.3-0.1-0.4c-0.1-0.1-0.1-0.3-0.1-0.5c0-0.1-0.1-0.3-0.1-0.5
			c-0.1-0.3-0.1-0.7-0.3-1c0-0.2-0.1-0.4-0.1-0.6c-0.1-0.2-0.1-0.3-0.2-0.5c-0.1-0.2-0.1-0.4-0.2-0.6c-0.2-0.6-0.4-1.1-0.7-1.7
			c-0.2-0.6-0.5-1.1-0.9-1.7c-0.3-0.4-0.5-0.7-0.7-1.1c-0.3-0.4-0.5-0.7-0.8-1.1c-0.1-0.2-0.3-0.4-0.4-0.6v0c0,0,0,0.1,0,0.1
			c0,0.1,0.1,0.3,0.1,0.4c0,0.1,0,0.2,0,0.3c0,0.1,0,0.3,0,0.4c0,0.1,0,0.3,0,0.4c0,0.2,0,0.3,0.1,0.5c0,0.2,0,0.3,0,0.5
			c0,0.2,0,0.4,0,0.6c0,0.4,0.1,0.8,0.1,1.2c0,0.2,0,0.4,0,0.6c0,0.2,0,0.4,0,0.7c0,0.2,0,0.4,0,0.7c0,0.4,0,0.9,0.1,1.3
			c0,1,0,2,0,3.1c0,0.2,0,0.4,0,0.6c0,0.2,0,0.3,0,0.5c-0.1,0.4-0.1,0.8-0.2,1.2c0,0.1,0,0.2-0.1,0.3c0,0.1-0.1,0.1-0.1,0.2
			c-0.1,0-0.1,0.1-0.1,0.1c-0.1,0-0.1,0.1-0.2,0.1c-0.1,0-0.2,0.1-0.3,0.1c-0.1,0-0.2,0.1-0.3,0.1c-0.7,0.3-1.6,0.4-2.3,0.4
			c-0.2,0-0.4,0-0.6,0.1c-0.2,0-0.4,0-0.6,0c-0.2,0-0.4,0-0.6,0c-1.2,0.1-2.5,0.1-3.7,0c-0.2,0-0.4,0-0.6,0c-0.2,0-0.4,0-0.6,0
			c-0.2,0-0.3,0-0.5,0c-0.3,0-0.6,0-0.9-0.1c-0.4,0-0.7-0.1-1-0.2c-0.2,0-0.3-0.1-0.4-0.2l0,0c0,0,0,0,0-0.1c0,0,0,0,0-0.1
			c0,0,0-0.1,0-0.1c0,0,0-0.1,0-0.1c0,0,0-0.1,0-0.2c0,0,0-0.1,0-0.2c0-0.1,0-0.1,0-0.2c0-0.2,0-0.3-0.1-0.5c0-0.1,0-0.2,0-0.3
			c0-0.1,0-0.2,0-0.3c0-0.2-0.1-0.5,0-0.7c0-0.3-0.1-0.5-0.1-0.8c0-0.3,0-0.6,0-0.8c0-0.3,0-0.6,0-0.9c-0.1-0.5,0-1-0.1-1.5
			c0-0.7,0.1-1.5,0-2.2c0-3.6-0.4-7.3,0-10.9c0-0.9-0.1-1.8,0-2.7c0-0.7,0-1.4,0-2c0.1-0.7,0-1.3,0.1-2c0-0.4,0-0.9,0-1.3
			c0-0.4,0-0.8,0-1.3c0-0.4,0.1-0.8,0-1.3c0-0.4,0-0.8,0-1.2c0-0.4,0-0.8,0-1.1c0-0.4,0-0.7,0.1-1.1c0-0.2,0-0.3,0-0.5
			c0-0.3,0-0.7,0-1c0-0.3,0-0.6,0.1-0.9c0-0.2,0-0.3,0-0.5c0-0.3,0.1-0.6,0.1-0.8c0-0.1,0-0.3,0-0.4c0-0.1,0-0.2,0-0.4
			c0-0.2,0-0.5,0.1-0.7c0-0.1,0-0.2,0-0.3c0-0.2,0.1-0.4,0.1-0.6c0-0.1,0-0.2,0-0.3c0-0.1,0-0.1,0-0.2c0-0.1,0-0.1,0-0.2
			c0-0.1,0-0.2,0.1-0.3c0,0,0-0.1,0-0.1c0,0,0,0,0-0.1l0-0.1c0,0,0,0,0-0.1c0,0,0.1,0,0.1-0.1c0,0,0.1-0.1,0.1-0.1
			c0.4-0.2,0.9-0.5,1.3-0.5c0.2-0.1,0.4-0.1,0.6-0.1c0.1,0,0.2,0,0.3,0c0.1,0,0.2,0,0.4,0c0.1,0,0.3,0,0.4,0c0.1,0,0.3,0,0.4,0
			c0.3,0,0.7,0,1,0c0.6-0.1,1.3,0,1.9-0.1c1.1,0,2.1,0,3.2,0c1,0,2,0,3.1,0c0.4,0,0.8,0,1.3,0c0.4,0,0.8,0,1.3,0.1
			c0.4,0,0.8,0,1.2,0.1c0.4,0,0.8,0.1,1.2,0.2c0.4,0.1,0.7,0.1,1.1,0.2c0.3,0.1,0.7,0.2,1,0.3c0.3,0.1,0.7,0.2,1,0.4
			c0.3,0.1,0.6,0.2,1,0.4c0.3,0.1,0.6,0.3,0.9,0.5c0.1,0.1,0.3,0.1,0.4,0.2c0.1,0.1,0.3,0.2,0.4,0.3c0.6,0.5,1.3,0.9,1.9,1.5
			c0.1,0.1,0.2,0.2,0.3,0.3c0.1,0.1,0.2,0.2,0.3,0.3c0.9,1.1,1.9,2.3,2.3,3.7c0.4,0.7,0.6,1.7,0.7,2.5c0.2,0.7,0.2,1.5,0.3,2.3
			c0,0.2,0,0.4,0,0.6c0,1,0,2.1-0.3,3.1c-0.1,0.3-0.2,0.7-0.3,1c0,0.1-0.1,0.3-0.1,0.4c-0.1,0.1-0.1,0.3-0.2,0.4
			c0,0.1-0.1,0.3-0.2,0.4c-0.1,0.1-0.2,0.3-0.3,0.4c-0.1,0.1-0.2,0.2-0.3,0.4c-0.2,0.4-0.5,0.8-0.9,1.1c-0.1,0.1-0.2,0.2-0.3,0.3
			c-0.4,0.3-0.7,0.6-1.1,0.9c-0.1,0.1-0.2,0.2-0.4,0.3c-0.1,0.1-0.3,0.2-0.4,0.3c-0.1,0.1-0.3,0.2-0.4,0.3c-0.3,0.1-0.6,0.3-0.9,0.4
			c-0.1,0-0.3,0.1-0.4,0.2c-0.1,0.1-0.3,0.2-0.4,0.2C132,48.7,131.8,48.8,131.8,48.9C131.9,49,131.8,48.8,131.8,48.9z M127.2,38.5
			c0-0.3,0-0.5,0-0.8c-0.1-0.2-0.1-0.5-0.2-0.7c0-0.2-0.1-0.4-0.2-0.7c-0.1-0.2-0.2-0.4-0.3-0.6c-0.1-0.2-0.2-0.3-0.4-0.5
			c-0.1-0.1-0.3-0.3-0.4-0.4c-0.1-0.1-0.3-0.2-0.5-0.4c-0.1-0.1-0.3-0.2-0.5-0.3c-0.2-0.1-0.3-0.2-0.5-0.3c-0.2-0.1-0.3-0.1-0.5-0.2
			c-0.3-0.1-0.7-0.2-1-0.3c-0.2,0-0.3-0.1-0.5-0.1c-0.1,0-0.3,0-0.4,0c-0.1,0-0.2,0-0.4,0c-0.1,0-0.2,0-0.3,0c-0.1,0-0.2,0-0.3,0
			c-0.1,0-0.1,0-0.1,0c0,0-0.1,0.1,0,0.2c0,0.1,0,0.2,0,0.3c0,0.1,0,0.2,0,0.3c0,0.2,0,0.4,0,0.7c0,0.3,0.1,0.5,0.1,0.8
			c0,0.3,0.1,0.6,0.1,0.8c0,0.2,0,0.3,0.1,0.5c0,0.3,0,0.7,0.1,1c0,0.2,0,0.3,0.1,0.5c0,0.4,0,0.8,0.1,1.1c0,0.2,0,0.4,0.1,0.6
			c0,0.4,0.1,0.8,0.1,1.2c0,0.2,0,0.4,0,0.7c0,0.2,0.1,0.4,0,0.7c-0.1,0.2-0.1,0.5,0,0.7c0,0,0.1,0.1,0.2,0c0.1,0,0.2,0,0.3,0
			c0.2,0,0.5-0.1,0.7-0.1c0.1,0,0.3-0.1,0.4-0.1c0.3-0.1,0.6-0.2,0.9-0.3c0.3-0.1,0.7-0.3,1-0.5c0.3-0.2,0.6-0.4,0.9-0.6
			c0.5-0.4,0.8-0.9,1.1-1.4c0.1-0.2,0.1-0.4,0.2-0.6C127.1,39.4,127.2,38.9,127.2,38.5z"/>
		<path fill="#020202" d="M143,67.4L143,67.4c0-0.1,0-0.4,0-0.4c0-0.1,0-0.1,0-0.2c0,0,0-0.1,0-0.2c0-0.1,0-0.1,0.1-0.2
			c0-0.2,0.1-0.3,0.1-0.5c0.2-0.5,0.3-1,0.4-1.5c0.1-0.2,0.1-0.5,0.2-0.7c0-0.1,0-0.3,0.1-0.4c0-0.1,0.1-0.3,0.1-0.4
			c0-0.1,0.1-0.3,0.1-0.4c0-0.1,0.1-0.3,0.1-0.4c0.1-0.3,0.2-0.6,0.2-0.9c0.1-0.3,0.2-0.7,0.3-1c0.1-0.9,0.5-1.8,0.7-2.7
			c0.2-0.6,0.3-1.2,0.5-1.7c0.1-0.4,0.2-0.8,0.4-1.2c0-0.2,0.1-0.4,0.1-0.6c0.1-0.4,0.2-0.8,0.4-1.2c0-0.2,0.1-0.4,0.1-0.6
			c0.1-0.2,0.1-0.4,0.2-0.7c0.1-0.2,0.1-0.4,0.2-0.6c0.1-0.2,0.1-0.4,0.2-0.6c0.1-0.2,0.1-0.4,0.2-0.7c0.1-0.2,0.1-0.4,0.2-0.6
			c0.1-0.2,0.1-0.4,0.2-0.7c0.1-0.2,0.1-0.4,0.2-0.6c0.1-0.2,0.1-0.4,0.2-0.7c0.1-0.2,0.1-0.4,0.2-0.6c0.1-0.2,0.1-0.4,0.2-0.7
			c0.1-0.2,0.1-0.4,0.2-0.7c0.1-0.2,0.1-0.4,0.2-0.6c0-0.2,0.1-0.4,0.2-0.7c0-0.2,0.1-0.4,0.2-0.6c0-0.2,0.1-0.4,0.2-0.7
			c0-0.2,0.1-0.4,0.2-0.6c0-0.2,0.1-0.4,0.2-0.6c0-0.2,0.1-0.4,0.2-0.6c0-0.2,0.1-0.4,0.2-0.6c0-0.2,0.1-0.4,0.2-0.6
			c0-0.2,0.1-0.4,0.2-0.6c0-0.2,0.1-0.4,0.1-0.6c0.1-0.2,0.1-0.4,0.2-0.6c0.1-0.4,0.2-0.8,0.4-1.2c0-0.2,0.1-0.4,0.1-0.6
			c0.1-0.4,0.2-0.7,0.3-1.1c0.3-0.7,0.4-1.4,0.7-2.1c0.1-0.5,0.3-1,0.4-1.5c0.1-0.5,0.3-0.9,0.4-1.3c0.1-0.3,0.2-0.5,0.3-0.8
			c0-0.1,0.1-0.3,0.1-0.4c0-0.1,0.1-0.2,0.1-0.3c0-0.1,0.1-0.2,0.1-0.4c0.1-0.2,0.2-0.4,0.2-0.6c0-0.2,0.1-0.4,0.2-0.5
			c0.1-0.2,0.1-0.5,0.2-0.7c0-0.1,0-0.2,0.1-0.3c0,0,0-0.1,0-0.1c0,0,0-0.1,0-0.1c0,0,0-0.1,0.1-0.1v0c0,0,0.1,0,0.1-0.1
			c0.1,0,0.1,0,0.2-0.1c0.1,0,0.2,0,0.3,0c0.1,0,0.2,0,0.4-0.1c0.2,0,0.3,0,0.5,0c0.2,0,0.3,0,0.5,0c0.2,0,0.4,0,0.6,0
			c0.4,0,0.8,0,1.3,0c0.7,0,1.3,0,2,0c0.6,0.1,1.2,0,1.9,0.1c0.2,0,0.3,0,0.5,0c0.2,0,0.3,0,0.5,0c0.1,0,0.3,0,0.4,0
			c0.1,0,0.2,0,0.3,0c0.1,0,0.2,0,0.3,0.1c0,0,0.1,0,0.1,0v0c0,0,0,0,0,0c0,0,0,0,0,0.1c0,0,0,0.1,0,0.1c0,0,0,0.1,0.1,0.1
			c0,0,0,0.1,0,0.1c0,0.1,0,0.1,0.1,0.2c0.1,0.2,0.2,0.4,0.2,0.7c0,0.1,0,0.2,0.1,0.3c0.1,0.2,0.1,0.4,0.2,0.6c0,0.1,0,0.2,0.1,0.3
			c0,0.1,0.1,0.2,0.1,0.4c0,0.1,0.1,0.2,0.1,0.4c0,0.1,0.1,0.2,0.1,0.4c0,0.1,0.1,0.3,0.1,0.4c0,0.1,0.1,0.3,0.1,0.4
			c0.2,0.4,0.3,0.9,0.4,1.4c0.2,0.7,0.4,1.3,0.6,2c0.2,0.5,0.3,1.1,0.5,1.6c0.1,0.4,0.2,0.8,0.3,1.1c0.1,0.4,0.2,0.8,0.4,1.2
			c0,0.2,0.1,0.4,0.1,0.6c0.1,0.2,0.1,0.4,0.2,0.6c0.1,0.4,0.2,0.8,0.4,1.3c0,0.2,0.1,0.4,0.2,0.6c0,0.2,0.1,0.4,0.2,0.6
			c0,0.2,0.1,0.4,0.2,0.7c0,0.2,0.1,0.4,0.2,0.6c0,0.2,0.1,0.4,0.1,0.7c0.1,0.2,0.1,0.4,0.2,0.6c0.1,0.2,0.1,0.4,0.2,0.7
			c0,0.2,0.1,0.4,0.2,0.7c0,0.2,0.1,0.4,0.2,0.7c0,0.2,0.1,0.4,0.2,0.7c0,0.2,0.1,0.4,0.2,0.7c0,0.2,0.1,0.4,0.2,0.7
			c0,0.2,0.1,0.4,0.2,0.7c0,0.2,0.1,0.4,0.2,0.6c0,0.2,0.1,0.4,0.1,0.7c0.1,0.2,0.1,0.4,0.2,0.7c0.1,0.2,0.1,0.4,0.2,0.7
			c0.1,0.2,0.1,0.4,0.2,0.6c0.1,0.4,0.2,0.9,0.4,1.3c0,0.2,0.1,0.4,0.1,0.6c0.1,0.4,0.2,0.8,0.4,1.3c0.1,0.4,0.2,0.8,0.3,1.2
			c0.1,0.4,0.2,0.8,0.3,1.2c0.4,1,0.7,2.2,0.9,3.3c0.1,0.3,0.2,0.7,0.3,1c0.1,0.3,0.2,0.6,0.3,1c0,0.1,0.1,0.3,0.1,0.4
			c0,0.1,0.1,0.3,0.1,0.4c0,0.1,0.1,0.3,0.1,0.4c0,0.1,0.1,0.3,0.1,0.4c0,0.3,0.1,0.5,0.2,0.8c0.1,0.5,0.2,1.1,0.4,1.6
			c0,0.1,0,0.1,0.1,0.2c0,0.1,0,0.3,0.1,0.4c0,0.1,0,0.1,0,0.2c0,0.1,0,0.2,0.1,0.3c0,0.1,0,0.2,0,0.3h0c0,0,0,0.1-0.1,0.1
			c0,0-0.1,0-0.2,0.1c-0.1,0-0.2,0-0.3,0c-0.1,0-0.2,0-0.4,0.1c-0.3,0-0.6,0.1-0.9,0.1c-0.4,0-0.7,0-1.1,0.1c-1.3,0-2.6,0-3.9,0
			c-0.4,0-0.8,0-1.3-0.1c-0.2,0-0.4,0-0.6,0c-0.2,0-0.4,0-0.6,0c-0.1,0-0.3,0-0.5,0c-0.1,0-0.3,0-0.4-0.1c-0.2,0-0.5,0-0.7-0.1
			c-0.2,0-0.3-0.1-0.4-0.2c0-0.1,0-0.1-0.1-0.2c0-0.1,0-0.2-0.1-0.3c-0.1-0.2-0.2-0.5-0.2-0.7c-0.1-0.3-0.2-0.6-0.3-1
			c-0.3-2.3-1.3-4.5-1.6-6.8c-0.1-0.4-0.2-0.7-0.3-1.1c0-0.2-0.1-0.3-0.1-0.5c-0.1-0.4-0.1-0.9-0.3-1.3c0-0.1,0-0.2,0-0.3
			c0-0.1,0-0.1-0.1-0.2c0-0.1,0-0.2,0-0.2c0,0-0.1,0-0.2,0c-0.4,0-0.9-0.1-1.3-0.1c-0.2,0-0.4,0-0.6,0c-0.8-0.1-1.7-0.1-2.6,0
			c-0.3,0-0.7,0-1,0.1c-0.1,0-0.2,0.1-0.3,0.1c-0.1,0-0.1,0.1-0.2,0.1v0c0,0,0,0.1,0,0.1c0,0.1,0,0.1,0,0.2
			c-0.1,0.4-0.1,0.8-0.3,1.1c0,0.1,0,0.3-0.1,0.5c-0.1,0.2-0.1,0.3-0.1,0.5c0,0.2-0.1,0.4-0.1,0.6c-0.2,1.7-0.8,3.5-1.2,5.2
			c-0.1,0.8-0.4,1.5-0.5,2.3c0,0.2-0.1,0.3-0.1,0.5c0,0.1-0.1,0.3-0.1,0.4c0,0.1,0,0.2-0.1,0.3c0,0.1-0.1,0.2-0.1,0.3
			c0,0.1-0.1,0.1-0.1,0.2c0,0,0,0.1,0,0.1c0,0-0.1,0.1-0.1,0.1c-0.1,0-0.1,0-0.2,0.1c-0.5,0.1-1.1,0.3-1.6,0.3c-0.2,0-0.4,0-0.6,0.1
			c-0.4,0-0.8,0.1-1.2,0.1c-0.2,0-0.4,0-0.6,0c-0.7,0.1-1.3,0-2,0.1c-0.4,0-0.8,0-1.3,0c-0.2,0-0.4,0-0.6,0c-0.2,0-0.4,0-0.6,0
			c-0.2,0-0.3,0-0.5,0c-0.1,0-0.3,0-0.4-0.1c-0.2,0-0.5,0-0.7-0.1c-0.1,0-0.1,0-0.2-0.1C143.1,67.5,143,67.4,143,67.4z M162.2,50.5
			c0,0,0-0.1,0-0.2c0-0.1,0-0.1,0-0.2c0-0.2-0.1-0.4-0.1-0.6c0-0.5-0.2-1-0.3-1.5c-0.1-0.4-0.2-0.9-0.3-1.3c-0.1-0.3-0.1-0.6-0.2-1
			c0-0.3-0.1-0.7-0.2-1c0-0.2,0-0.3-0.1-0.5c-0.1-0.4-0.1-0.7-0.2-1.1c0-0.2-0.1-0.4-0.1-0.6c-0.1-0.4-0.1-0.7-0.2-1.1
			c-0.2-0.5-0.1-1.1-0.3-1.6c0-0.2,0-0.4-0.1-0.6c-0.1-0.2-0.1-0.4-0.1-0.6c-0.1-0.7-0.1-0.7-0.1,0c0,0.2,0,0.4-0.1,0.6
			c0,0.2-0.1,0.4-0.1,0.6c0,0.5-0.2,1.2-0.3,1.7c0,0.2-0.1,0.4-0.1,0.6c0,0.2-0.1,0.4-0.1,0.6c0,0.2-0.1,0.4-0.1,0.6
			c0,0.2-0.1,0.4-0.1,0.6c0,0.2-0.1,0.4-0.1,0.6c0,0.2-0.1,0.4-0.1,0.6c0,0.2-0.1,0.4-0.1,0.6c0,0.2,0,0.3-0.1,0.5
			c-0.1,0.3-0.1,0.7-0.2,1c0,0.2,0,0.3-0.1,0.5c-0.1,0.4-0.2,0.9-0.3,1.3c-0.1,0.2-0.1,0.5-0.1,0.7c0,0.3-0.1,0.8-0.2,1.1
			c-0.2,0.3,0.4,0.2,0.6,0.3c0.2,0,0.3,0,0.5,0c0.4,0,0.8,0,1.2,0c0.2,0,0.4,0,0.6,0c0.2,0,0.4,0,0.6-0.1c0.1,0,0.3,0,0.5,0
			C161.8,50.6,162,50.5,162.2,50.5C162.2,50.4,162.1,50.5,162.2,50.5z"/>
	</g>
</g>
</svg>
