<?xml version="1.0" encoding="utf-8"?>
<!-- Generator: Adobe Illustrator 18.0.0, SVG Export Plug-In . SVG Version: 6.00 Build 0)  -->
<!DOCTYPE svg PUBLIC "-//W3C//DTD SVG 1.0//EN" "http://www.w3.org/TR/2001/REC-SVG-20010904/DTD/svg10.dtd">
<svg version="1.0" id="Camada_1" xmlns="http://www.w3.org/2000/svg" xmlns:xlink="http://www.w3.org/1999/xlink" x="0px" y="0px"
	 viewBox="0 0 85.8 80.8" enable-background="new 0 0 85.8 80.8" xml:space="preserve">
<path d="M52.8,20.6c-2.2,0.9-6.5-2.6-5.7-3.7c0,0,7.4-8.2,9.5-9.2s8.2,3.4,7.3,4.8S52.8,20.6,52.8,20.6z"/>
<g>
	<g>
		<path fill="#1B7C09" d="M14,25.5C14,25.5,14.1,25.4,14,25.5c0.1-0.1,0.2-0.1,0.2-0.1c0.1,0,0.1,0,0.2-0.1c0.1,0,0.2,0,0.3,0
			c0.1,0,0.2,0,0.3-0.1c0.7,0,1.4-0.2,2-0.3c0.5,0,1.1-0.1,1.6-0.1c0.2,0,0.4,0,0.6-0.1c0.2,0,0.4,0,0.6,0c0.2,0,0.4,0,0.6,0
			c0.2,0,0.4,0,0.6,0c0.2,0,0.4,0,0.6,0c0.2,0,0.4,0,0.7,0c2.9-0.2,5.9-0.1,8.8-0.1c0.5,0,0.9,0.1,1.4,0.1c0.4,0,0.8,0.1,1.1,0.1
			c0.1,0,0.2,0,0.3,0c0.3,0,0.5,0.1,0.6,0.3c0,0.1,0.1,0.1,0.1,0.2c0,0.1,0.1,0.2,0.1,0.3c0.3,1,0.4,2.1,0.4,3.1c0,0.2,0,0.4,0,0.6
			c0,0.2,0,0.4,0,0.6c0,0.9,0,1.9,0,2.8c0,0.1,0,0.3-0.1,0.4c0,0.3-0.1,0.6-0.2,0.9c0,0-0.1,0.1-0.1,0.1c-0.1,0-0.1,0.1-0.2,0.1
			c-0.1,0-0.2,0-0.4,0c-0.8,0.1-1.6,0.1-2.4,0c-0.2,0-0.4,0-0.7,0c-0.2,0-0.4,0-0.6-0.1c-0.5,0-1.3-0.1-1.9-0.1v0
			c0,4.2-0.2,8.4,0.1,12.5c0,0.2,0,0.5,0,0.7c0,0.2,0,0.5,0,0.7c0,0.2,0,0.5,0,0.7c0.1,2.2,0.3,4.7,0.7,6.9c0,0.1,0,0.2,0,0.3
			c0,0.1,0,0.2,0,0.3c0,0,0,0.1,0,0.2c0.1,0.1,0.1,0.2,0.1,0.4v0c0,0,0,0,0.1,0c0.1,0,0.2,0,0.3,0c1.1-0.2,2.3-0.4,3.5-0.4
			c0.6,0,1.9-0.2,2.4,0.3c0,0,0,0.1,0.1,0.2c0,0.1,0.1,0.1,0.1,0.2c0.1,0.7,0.2,1.4,0.3,2.2c0,0.2,0,0.4,0,0.6c0,0.2,0,0.4,0,0.6
			c0,0.2,0,0.4,0,0.6c0,1.2,0,2.5-0.1,3.7c0,0.2,0,0.4,0,0.6c0,0.6,0,1.4-0.3,1.9c-0.1,0.3-0.4,0.3-0.7,0.3c-0.1,0-0.2,0-0.3,0.1
			c-0.1,0-0.2,0-0.3,0c-0.1,0-0.2,0-0.3,0c-0.1,0-0.2,0-0.4,0c-0.1,0-0.3,0-0.4,0c-0.1,0-0.3,0-0.4,0c-0.5,0.1-1,0.1-1.5,0.1
			c-5.2,0.5-10.5,0-15.7,0C15.8,68,15.4,68,14.9,68c-0.1,0-0.2,0-0.4,0c-0.1,0-0.2,0-0.4,0c-0.1,0-0.2,0-0.3,0c-0.1,0-0.2,0-0.3,0
			c-0.1,0-0.2,0-0.3,0c-0.1,0-0.1,0-0.2,0c-0.1,0-0.1,0-0.1,0c0,0-0.1,0-0.1,0c-0.1-0.1-0.2-0.3-0.3-0.4c0-0.1,0-0.2-0.1-0.3
			C12,65,12.1,63,12.1,61.1c0-0.2,0-0.4,0-0.6c0-0.2,0-0.4,0.1-0.6c0-0.8,0.1-1.5,0.4-2.3c0-0.1,0.1-0.1,0.1-0.2
			c0-0.1,0.1-0.1,0.1-0.1c0.1,0,0.2-0.1,0.3-0.1c0.1,0,0.3-0.1,0.4-0.1c0.2,0,0.3,0,0.5,0c0.2,0,0.4,0,0.6,0
			c1.2,0.1,2.4,0.3,3.6,0.6c0,0,0,0,0.1,0v0c0,0,0,0,0-0.1c0.1-0.3,0.1-0.7,0.1-1.1c0-0.1,0-0.2,0-0.3c0-0.1,0-0.3,0-0.4
			c0-0.1,0-0.3,0-0.4c0-0.5,0.1-1,0.1-1.5c0-0.6,0.1-1.2,0.1-1.7c0-0.2,0-0.4,0-0.6c0-0.7,0.1-1.4,0.1-2c0-0.2,0-0.5,0.1-0.7
			c0-0.2,0-0.5,0-0.7c0-0.2,0-0.5,0-0.8c0-0.2,0-0.5,0-0.7c0-0.3,0-0.5,0-0.8c0.1-3.7,0.2-7.3,0.1-11c0,0-0.1,0-0.1,0
			c-0.1,0-0.1,0-0.2,0.1c-1.6,0-3.1,0.5-4.7,0.3c-1.2-0.4-1.2-0.9-1.3-2c0-0.2,0-0.3,0-0.5c0-0.8,0-1.6,0-2.4c0-0.2,0-0.4,0-0.6
			c0.1-0.9,0.3-1.9,0.4-2.8c0-0.1,0.1-0.3,0.1-0.4c0-0.1,0.1-0.2,0.1-0.3c0-0.1,0.1-0.2,0.1-0.3C13.9,25.6,14,25.5,14,25.5
			C14,25.5,14,25.5,14,25.5C14,25.5,14,25.5,14,25.5z"/>
		<path fill="#020202" d="M40.4,25.5C40.4,25.5,40.4,25.4,40.4,25.5c0.1-0.1,0.2-0.1,0.2-0.1c0.1,0,0.1,0,0.2-0.1c0.1,0,0.2,0,0.3,0
			c0.1,0,0.2,0,0.3-0.1c0.7,0,1.4-0.2,2-0.3c0.5,0,1.1-0.1,1.6-0.1c0.2,0,0.4,0,0.6-0.1c0.2,0,0.4,0,0.6,0c0.2,0,0.4,0,0.6,0
			c0.2,0,0.4,0,0.6,0c0.2,0,0.4,0,0.6,0c0.2,0,0.4,0,0.7,0c2.9-0.2,5.9-0.1,8.8-0.1c0.5,0,0.9,0.1,1.4,0.1c0.4,0,0.8,0.1,1.1,0.1
			c0.1,0,0.2,0,0.3,0c0.3,0,0.5,0.1,0.6,0.3c0,0.1,0.1,0.1,0.1,0.2c0,0.1,0.1,0.2,0.1,0.3c0.3,1,0.4,2.1,0.4,3.1c0,0.2,0,0.4,0,0.6
			c0,0.2,0,0.4,0,0.6c0,0.9,0,1.9,0,2.8c0,0.1,0,0.3-0.1,0.4c0,0.3-0.1,0.6-0.2,0.9c0,0-0.1,0.1-0.1,0.1c-0.1,0-0.1,0.1-0.2,0.1
			c-0.1,0-0.2,0-0.4,0c-0.8,0.1-1.6,0.1-2.4,0c-0.2,0-0.4,0-0.7,0c-0.2,0-0.4,0-0.6-0.1c-0.5,0-1.3-0.1-1.9-0.1v0
			c0,4.2-0.2,8.4,0.1,12.5c0,0.2,0,0.5,0,0.7c0,0.2,0,0.5,0,0.7c0,0.2,0,0.5,0,0.7c0.1,2.2,0.3,4.7,0.7,6.9c0,0.1,0,0.2,0,0.3
			c0,0.1,0,0.2,0,0.3c0,0,0,0.1,0,0.2c0.1,0.1,0.1,0.2,0.1,0.4v0c0,0,0,0,0.1,0c0.1,0,0.2,0,0.3,0c1.1-0.2,2.3-0.4,3.5-0.4
			c0.6,0,1.9-0.2,2.4,0.3c0,0,0,0.1,0.1,0.2c0,0.1,0.1,0.1,0.1,0.2c0.1,0.7,0.2,1.4,0.3,2.2c0,0.2,0,0.4,0,0.6c0,0.2,0,0.4,0,0.6
			c0,0.2,0,0.4,0,0.6c0,1.2,0,2.5-0.1,3.7c0,0.2,0,0.4,0,0.6c0,0.6,0,1.4-0.3,1.9c-0.1,0.3-0.4,0.3-0.7,0.3c-0.1,0-0.2,0-0.3,0.1
			c-0.1,0-0.2,0-0.3,0c-0.1,0-0.2,0-0.3,0c-0.1,0-0.2,0-0.4,0c-0.1,0-0.3,0-0.4,0c-0.1,0-0.3,0-0.4,0c-0.5,0.1-1,0.1-1.5,0.1
			c-5.2,0.5-10.5,0-15.7,0C42.2,68,41.7,68,41.2,68c-0.1,0-0.2,0-0.4,0c-0.1,0-0.2,0-0.4,0c-0.1,0-0.2,0-0.3,0c-0.1,0-0.2,0-0.3,0
			c-0.1,0-0.2,0-0.3,0c-0.1,0-0.1,0-0.2,0c-0.1,0-0.1,0-0.1,0c0,0-0.1,0-0.1,0c-0.1-0.1-0.2-0.3-0.3-0.4c0-0.1,0-0.2-0.1-0.3
			c-0.4-1.9-0.3-3.9-0.3-5.9c0-0.2,0-0.4,0-0.6c0-0.2,0-0.4,0.1-0.6c0-0.8,0.1-1.5,0.4-2.3c0-0.1,0.1-0.1,0.1-0.2
			c0-0.1,0.1-0.1,0.1-0.1c0.1,0,0.2-0.1,0.3-0.1c0.1,0,0.3-0.1,0.4-0.1c0.2,0,0.3,0,0.5,0c0.2,0,0.4,0,0.6,0
			c1.2,0.1,2.4,0.3,3.6,0.6c0,0,0,0,0.1,0v0c0,0,0,0,0-0.1c0.1-0.3,0.1-0.7,0.1-1.1c0-0.1,0-0.2,0-0.3c0-0.1,0-0.3,0-0.4
			c0-0.1,0-0.3,0-0.4c0-0.5,0.1-1,0.1-1.5c0-0.6,0.1-1.2,0.1-1.7c0-0.2,0-0.4,0-0.6c0-0.7,0.1-1.4,0.1-2c0-0.2,0-0.5,0.1-0.7
			c0-0.2,0-0.5,0-0.7c0-0.2,0-0.5,0-0.8c0-0.2,0-0.5,0-0.7c0-0.3,0-0.5,0-0.8c0.1-3.7,0.2-7.3,0.1-11c0,0-0.1,0-0.1,0
			c-0.1,0-0.1,0-0.2,0.1c-1.6,0-3.1,0.5-4.7,0.3c-1.2-0.4-1.2-0.9-1.3-2c0-0.2,0-0.3,0-0.5c0-0.8,0-1.6,0-2.4c0-0.2,0-0.4,0-0.6
			c0.1-0.9,0.3-1.9,0.4-2.8c0-0.1,0.1-0.3,0.1-0.4c0-0.1,0.1-0.2,0.1-0.3c0-0.1,0.1-0.2,0.1-0.3C40.3,25.6,40.3,25.5,40.4,25.5
			C40.4,25.5,40.3,25.5,40.4,25.5C40.4,25.5,40.3,25.5,40.4,25.5z"/>
	</g>
</g>
</svg>
