<?xml version="1.0" encoding="utf-8"?>
<!-- Generator: Adobe Illustrator 18.0.0, SVG Export Plug-In . SVG Version: 6.00 Build 0)  -->
<!DOCTYPE svg PUBLIC "-//W3C//DTD SVG 1.0//EN" "http://www.w3.org/TR/2001/REC-SVG-20010904/DTD/svg10.dtd">
<svg version="1.0" id="Camada_1" xmlns="http://www.w3.org/2000/svg" xmlns:xlink="http://www.w3.org/1999/xlink" x="0px" y="0px"
	 viewBox="0 0 160 66.5" enable-background="new 0 0 160 66.5" xml:space="preserve">
<g>
	<path fill="#020202" d="M47.2,11.2C47.2,11.2,47.2,11.2,47.2,11.2c0.1-0.1,0.2-0.1,0.2-0.1c0.1,0,0.1,0,0.2-0.1c0.1,0,0.2,0,0.3,0
		c0.1,0,0.2,0,0.3-0.1c0.2,0,0.5-0.1,0.7-0.1c0.3,0,0.6-0.1,0.9-0.1c0.1,0,0.3,0,0.5-0.1c0.3,0,0.7-0.1,1-0.1c0.2,0,0.4,0,0.6,0
		c0.2,0,0.4,0,0.6-0.1c0.2,0,0.4,0,0.6,0c0.2,0,0.4,0,0.6,0c0.2,0,0.4,0,0.6,0c0.2,0,0.4,0,0.6,0c0.2,0,0.4,0,0.7,0
		c0.4,0,0.9,0,1.3-0.1c0.4,0,0.9,0,1.3,0c0.7,0,1.3,0,2,0c0.6,0,1.3,0,1.9,0c0.6,0,1.2,0,1.7,0c0.2,0,0.4,0,0.6,0c0.3,0,0.6,0,1,0.1
		c0.1,0,0.3,0,0.4,0c0.3,0,0.5,0,0.8,0.1c0.1,0,0.2,0,0.3,0.1c0.1,0,0.2,0,0.3,0c0.2,0.1,0.4,0.1,0.6,0.2c0,0,0,0,0.1,0.1
		c0,0.1,0.1,0.1,0.1,0.2c0,0.1,0.1,0.2,0.1,0.3c0.3,0.7,0.3,1.7,0.4,2.5c0,0.2,0,0.4,0,0.6c0,0.2,0,0.4,0,0.6c0,0.2,0,0.4,0,0.6
		c0,0.8,0.1,1.6,0,2.3c0,0.2,0,0.3,0,0.5c0,0.1-0.1,0.3-0.1,0.4c0,0.2,0,0.5-0.1,0.7c0,0.1,0,0.1-0.1,0.2c0,0-0.1,0.1-0.1,0.1
		c-0.1,0-0.1,0.1-0.2,0.1c-0.1,0-0.2,0-0.4,0c-0.6,0.1-1.2,0-1.8,0c-0.2,0-0.4,0-0.7,0c-0.2,0-0.4,0-0.7,0c-0.2,0-0.4,0-0.6-0.1
		c-0.4,0-0.7,0-1.1-0.1c-0.2,0-0.4,0-0.7-0.1c0,0,0,0-0.1,0v0c0,0.3,0,0.7,0,1c-0.2,1.2,0,2.6,0,3.8c0.2,1.2-0.1,2.5,0.1,3.8
		c0,0.6,0,1.3,0,1.9c0,0.4,0,0.8,0,1.3c0,0.2,0,0.5,0,0.8c0,0.2,0,0.5,0,0.7c0,0.2,0,0.5,0,0.7c0,0.2,0,0.5,0,0.7
		c0,0.5,0,0.9,0.1,1.4c0,0.4,0,0.9,0.1,1.3c0,0.4,0,0.8,0.1,1.2c0,0.3,0,0.7,0.1,1c0,0.3,0.1,0.6,0.1,1c0,0.3,0,0.5,0.1,0.8
		c0,0.1,0,0.2,0.1,0.3c0,0.1,0,0.2,0,0.3c0,0.1,0,0.2,0,0.3c0,0,0,0.1,0,0.2c0,0.1,0,0.2,0.1,0.3c0,0,0,0,0,0.1v0c0,0,0,0,0.1,0
		c0.1,0,0.2,0,0.3,0c0.9-0.2,1.9-0.3,2.8-0.4c0.2,0,0.4,0,0.7,0c0.4,0,0.8,0,1.2,0c0.3,0,0.6,0.1,0.9,0.2c0.1,0,0.2,0.1,0.3,0.1
		c0,0,0,0.1,0.1,0.2c0,0.1,0.1,0.1,0.1,0.2c0.1,0.5,0.3,1.1,0.3,1.7c0,0.2,0,0.3,0.1,0.5c0,0.2,0,0.4,0,0.6c0,0.2,0,0.4,0,0.6
		c0,0.2,0,0.4,0,0.6c0,1,0.1,2.1,0,3.2c0,0.2,0,0.4,0,0.6c0,0.2,0,0.4,0,0.6c0,0.3,0,0.6-0.1,1c0,0.2-0.1,0.5-0.1,0.7
		c0,0.1-0.1,0.1-0.1,0.2c0,0.1-0.1,0.2-0.1,0.2c-0.1,0-0.2,0-0.3,0.1c-0.1,0-0.1,0-0.2,0c-0.1,0-0.2,0-0.3,0.1c-0.1,0-0.2,0-0.3,0
		c-0.1,0-0.2,0-0.3,0c-0.1,0-0.2,0-0.4,0c-0.1,0-0.3,0-0.4,0c-0.1,0-0.3,0-0.4,0c-0.3,0-0.6,0-1,0.1c-0.2,0-0.3,0-0.5,0
		c-0.4,0-0.7,0-1.1,0c-0.4,0-0.8,0-1.2,0c-1.1,0.1-2.2,0-3.2,0.1c-1.1,0-2.3,0.1-3.4,0c-0.9,0-1.8,0.1-2.6,0c-0.4,0-0.8,0-1.3,0
		c-0.4,0-0.8,0-1.2,0c-0.4,0-0.7,0-1.1-0.1c-0.2,0-0.3,0-0.5,0c-0.3,0-0.6,0-1-0.1c-0.1,0-0.3,0-0.4,0c-0.1,0-0.2,0-0.4,0
		c-0.1,0-0.2,0-0.4,0c-0.1,0-0.2,0-0.3,0c-0.1,0-0.2,0-0.3,0c-0.1,0-0.2,0-0.3,0c-0.1,0-0.1,0-0.2,0c-0.1,0-0.1,0-0.1,0
		c-0.1,0-0.1,0-0.1,0c-0.1-0.1-0.1-0.1-0.1-0.2c0-0.1-0.1-0.1-0.1-0.2c0-0.1,0-0.2-0.1-0.3c-0.1-0.3-0.1-0.6-0.1-0.9
		c0-0.4-0.1-0.7-0.1-1.1c0-0.4-0.1-0.8,0-1.3c-0.1-0.6-0.1-1.3,0-2c0-0.2,0-0.4,0-0.6c0-0.2,0-0.4,0-0.6c0-0.2,0-0.4,0.1-0.6
		c0-0.6,0.1-1.4,0.3-1.9c0-0.1,0.1-0.2,0.1-0.3c0-0.1,0.1-0.1,0.1-0.2c0-0.1,0.1-0.1,0.1-0.1c0.1,0,0.2-0.1,0.3-0.1
		c0.1,0,0.3-0.1,0.4-0.1c0.2,0,0.3,0,0.5,0c0.2,0,0.4,0,0.6,0c0.8,0.1,1.7,0.1,2.5,0.3c0.3,0,0.6,0.1,0.9,0.1c0.1,0,0.2,0,0.3,0.1
		c0,0,0,0,0.1,0v0c0,0,0,0,0-0.1c0-0.1,0.1-0.2,0-0.3c0-0.2,0.1-0.3,0.1-0.5c0-0.1,0-0.2,0-0.3c0-0.1,0-0.2,0-0.3c0-0.1,0-0.3,0-0.4
		c0-0.1,0-0.3,0-0.4c0-0.3,0.1-0.6,0.1-0.9c0-0.2,0-0.4,0.1-0.6c0-0.4,0.1-0.7,0.1-1.1c0-0.2,0-0.4,0.1-0.6c0-0.2,0-0.4,0-0.6
		c0-0.4,0-0.9,0.1-1.3c0-0.2,0-0.5,0-0.7c0-0.2,0-0.5,0.1-0.7c0-0.2,0-0.5,0-0.7c0-0.2,0-0.5,0-0.8c0-0.2,0-0.5,0-0.7
		c0-0.3,0-0.5,0-0.8c0-0.6,0-1.1,0.1-1.7c0-0.5,0-1.1,0-1.6c0-0.7,0-1.4,0-2.1c0-1.5,0.4-3.7,0-5.2c0-0.1,0-0.2,0-0.3v0
		c0,0,0,0-0.1,0c-0.1,0-0.1,0-0.2,0.1c-0.8,0-1.6,0.3-2.4,0.3c-0.6,0.1-1.2,0-1.8,0c-0.2,0-0.3,0-0.5-0.1c-0.4-0.1-0.9-0.2-1-0.6
		c-0.2-0.2-0.2-0.7-0.3-0.9c0-0.1,0-0.3,0-0.4c0-0.2,0-0.3,0-0.5c0-0.6,0-1.2,0-1.7c0-0.2,0-0.4,0-0.6c0-0.2,0-0.4,0-0.6
		c0.1-0.8,0.1-1.6,0.3-2.4c0-0.2,0-0.3,0.1-0.5c0-0.1,0.1-0.3,0.1-0.4c0-0.1,0.1-0.2,0.1-0.3c0-0.1,0.1-0.2,0.1-0.3
		C47.1,11.3,47.1,11.3,47.2,11.2C47.2,11.2,47.1,11.3,47.2,11.2z"/>
	<path fill="#020202" d="M72,10.7c0.1,0,0.1,0,0.2-0.1c0.5-0.1,1.1-0.3,1.6-0.3c0.2,0,0.4,0,0.6,0c0.2,0,0.4,0,0.6,0
		c0.4,0,0.8,0,1.3,0c0.6-0.1,1.3-0.1,2,0c0.4,0,0.8,0,1.3,0c0.2,0,0.4,0,0.6,0c0.2,0,0.4,0,0.6,0c0.3,0,0.6,0,0.9,0.1
		c0.1,0,0.2,0,0.3,0c0.1,0,0.2,0,0.3,0.1c0,0,0.1,0.1,0.2,0.1c0,0,0,0,0,0.1c0,0,0,0.1,0.1,0.1c0,0.1,0.1,0.1,0.1,0.2
		c0,0.1,0,0.2,0.1,0.3c0.1,0.2,0.1,0.4,0.2,0.7c0,0.3,0.1,0.5,0.2,0.8c0,0.1,0,0.3,0.1,0.5c0,0.1,0.1,0.3,0.1,0.5
		c0.1,0.4,0.1,0.7,0.2,1.1c0,0.2,0.1,0.4,0.1,0.6c0,0.2,0.1,0.4,0.1,0.6c0,0.2,0,0.4,0.1,0.6c0,0.2,0.1,0.4,0.1,0.6
		c0,0.2,0.1,0.4,0.1,0.7c0,0.2,0.1,0.5,0.1,0.7c0,0.2,0.1,0.4,0.1,0.7c0.1,0.5,0.2,0.9,0.2,1.4c0,0.2,0.1,0.4,0.1,0.7
		c0,0.2,0,0.5,0.1,0.7c0.1,0.4,0.1,0.9,0.2,1.3c0.1,0.6,0.1,1.2,0.3,1.8c0.1,0.7,0.2,1.4,0.3,2.1c0,0.3,0,0.6,0.1,0.8
		c0,0.3,0,0.6,0.1,0.9c0,0.1,0,0.1,0,0.2c0,0,0,0.1,0,0.1c0,0,0,0,0,0.1v0v0c0,0,0,0,0-0.1c0,0,0-0.1,0-0.1c0-0.1,0-0.1,0.1-0.2
		c0-0.1,0-0.2,0.1-0.3c0-0.1,0.1-0.2,0.1-0.3c0-0.1,0.1-0.2,0.1-0.3c0-0.1,0.1-0.3,0.1-0.4c0.2-0.4,0.3-0.9,0.5-1.4
		c0-0.2,0.1-0.3,0.1-0.5c0.1-0.2,0.1-0.3,0.2-0.5c0.1-0.2,0.1-0.4,0.2-0.6c0.1-0.4,0.3-0.8,0.4-1.2c0.6-2.9,2.3-5.6,3.1-8.4
		c0.1-0.1,0.1-0.3,0.2-0.5c0-0.1,0.1-0.3,0.2-0.4c0.1-0.1,0.1-0.3,0.2-0.4c0-0.1,0.1-0.2,0.2-0.4c0-0.1,0.1-0.2,0.1-0.3
		c0-0.1,0.1-0.2,0.1-0.3c0-0.1,0.1-0.2,0.1-0.3c0,0,0.1-0.1,0.1-0.2c0,0,0.2-0.3,0.3-0.2c0,0,0,0,0.1,0c0,0,0.1,0.1,0.1,0.1
		c0,0,0.1,0.1,0.1,0.1c0,0.1,0.1,0.2,0.1,0.3c0.2,0.3,0.3,0.7,0.5,1c0,0.1,0.1,0.3,0.1,0.4c0.1,0.1,0.1,0.3,0.2,0.4
		c0.1,0.1,0.1,0.3,0.2,0.5c0.1,0.2,0.1,0.3,0.2,0.5c0.2,0.4,0.3,0.7,0.4,1.1c0.5,1.2,0.9,2.5,1.3,3.8c0.3,1.1,0.8,2.1,1,3.2
		c0.1,0.2,0.1,0.4,0.2,0.6c0,0.2,0.1,0.4,0.2,0.6c0,0.2,0.1,0.4,0.2,0.6c0,0.2,0.1,0.4,0.2,0.6c0,0.2,0.1,0.3,0.1,0.5
		c0.2,0.4,0.4,0.9,0.4,1.4c0,0.1,0.1,0.3,0.1,0.4c0,0.1,0.1,0.2,0.1,0.4c0,0.2,0.1,0.4,0.2,0.6c0,0.1,0,0.1,0,0.2c0,0,0,0.1,0.1,0.1
		c0,0,0,0.1,0,0.1v0c0-0.1,0-0.1,0-0.2c0-0.1,0-0.1,0-0.2c0-0.1,0-0.2,0-0.3c0-0.1,0-0.2,0.1-0.3c0-0.1,0-0.2,0-0.3
		c0-0.1,0-0.3,0.1-0.4c0-0.8,0.2-1.7,0.4-2.5c0-0.4,0.1-0.8,0.1-1.2c0.1-0.4,0.2-0.9,0.2-1.3c0-0.2,0-0.4,0.1-0.7
		c0-0.2,0.1-0.4,0.1-0.7c0-0.2,0.1-0.4,0.1-0.7c0.1-0.5,0.2-0.9,0.2-1.4c0-0.2,0.1-0.4,0.1-0.7c0-0.2,0.1-0.4,0.1-0.7
		c0-0.2,0.1-0.4,0.1-0.7c0-0.2,0.1-0.4,0.1-0.7c0-0.2,0.1-0.4,0.1-0.6c0-0.2,0.1-0.4,0.1-0.6c0-0.2,0.1-0.4,0.1-0.6
		c0-0.2,0.1-0.4,0.1-0.6c0-0.2,0-0.4,0.1-0.6c0.1-0.3,0.1-0.7,0.2-1c0-0.1,0-0.3,0.1-0.4c0.1-0.4,0.1-0.8,0.3-1.1
		c0-0.2,0.1-0.4,0.1-0.6c0,0,0-0.1,0.1-0.2c0,0,0-0.1,0-0.1c0,0,0-0.1,0.1-0.1c0,0,0.1-0.1,0.1-0.1c0.1,0,0.2,0,0.3-0.1
		c0.4-0.1,0.9-0.2,1.3-0.2c0.4,0,0.7-0.1,1.1-0.1c0.2,0,0.4,0,0.6,0c0.2,0,0.4,0,0.7,0c0.4,0,0.9,0,1.3-0.1c0.6,0,1.3,0,1.9,0
		c0.4,0,0.7,0,1.1,0.1c0.1,0,0.3,0,0.5,0c0.2,0,0.5,0,0.7,0.1c0.1,0,0.1,0,0.2,0.1c0,0,0.1,0,0.1,0.1v0c0,0,0,0,0,0c0,0.5,0,1,0,1.4
		c-0.1,0.3,0,0.6,0,0.9c0,0.2-0.1,0.5,0,0.7c0,0.3-0.1,0.5,0,0.8c0,0.3,0,0.6-0.1,0.9c0,0.1,0,0.3,0,0.4c0,0.2,0,0.3,0,0.5
		c0,0.3-0.1,0.7-0.1,1c0,0.2,0,0.3,0,0.5c0,0.2,0,0.3,0,0.5c0,0.2,0,0.4,0,0.6c0,0.2,0,0.4,0,0.6c0,0.2,0,0.4,0,0.6
		c0,0.2,0,0.4,0,0.6c0,0.2,0,0.4,0,0.6c0,0.4-0.1,0.8-0.1,1.2c0,0.2,0,0.4,0,0.6c0,0.2,0,0.4-0.1,0.6c0,0.2,0,0.4,0,0.6
		c0,0.4-0.1,0.9-0.1,1.3c0,0.2-0.1,0.4-0.1,0.7c0,0.4-0.1,0.9-0.1,1.3c0,0.2,0,0.5-0.1,0.7c0,0.4-0.1,0.9-0.1,1.3
		c-0.1,0.5-0.1,0.9-0.1,1.4c-0.1,0.4-0.1,0.9-0.1,1.3c0,0.2,0,0.5-0.1,0.7c0,0.4-0.1,0.9-0.1,1.3c0,0.5,0,0.9-0.1,1.4
		c0,0.4-0.1,0.9-0.1,1.3c0,0.4,0,0.9-0.1,1.3c0,0.4,0,0.9-0.1,1.3c0,0.4,0,0.9-0.1,1.3c0,0.4-0.1,0.8-0.1,1.2c0,0.4,0,0.8-0.1,1.2
		c0,0.4,0,0.8-0.1,1.1c0,0.2,0,0.4-0.1,0.6c0,0.4-0.1,0.7-0.1,1.1c0,0.3,0,0.7-0.1,1c0,0.2,0,0.3-0.1,0.5c0,0.3-0.1,0.6-0.1,1
		c0,0.1,0,0.3,0,0.4c0,0.1-0.1,0.3-0.1,0.4c0,0.1,0,0.3,0,0.4c0,0.2-0.1,0.5-0.1,0.7c0,0.1,0,0.2,0,0.4c0,0.1,0,0.2,0,0.3
		c0,0.1,0,0.2,0,0.3c0,0.1,0,0.2,0,0.3c0,0.1,0,0.2,0,0.3c0,0.1,0,0.1,0,0.2c0,0.1,0,0.1,0,0.2c0,0,0,0.1,0,0.2c0,0.1,0,0.2-0.1,0.3
		c0,0,0,0.1,0,0.1c0,0,0,0.1-0.1,0.1v0c0,0-0.1,0-0.1,0c-0.1,0-0.1,0-0.2,0.1c-0.1,0-0.2,0-0.3,0c-0.1,0-0.2,0-0.3,0
		c-0.1,0-0.3,0-0.4,0c-0.3,0-0.7,0.1-1,0.1c-0.2,0-0.4,0-0.6,0c-2.1,0.2-4.5,0.2-6.6,0c-0.5,0-1.1,0-1.6,0c-0.5-0.1-1,0-1.5,0h0
		c-0.1-0.1-0.1-0.2-0.1-0.3c-0.1-0.2-0.2-0.3-0.2-0.5c0-0.1-0.1-0.2-0.1-0.3c0-0.1-0.1-0.2-0.1-0.4c0-0.1-0.1-0.3-0.1-0.4
		c-0.1-0.3-0.1-0.6-0.2-1c-0.1-0.4-0.2-0.7-0.3-1.1c-0.1-0.4-0.2-0.8-0.3-1.3c-0.1-0.7-0.3-1.3-0.4-2c-0.1-0.7-0.3-1.3-0.4-2
		c-0.1-0.4-0.2-0.9-0.3-1.3c-0.1-0.2-0.1-0.4-0.1-0.7c0-0.2-0.1-0.4-0.1-0.6c0-0.2-0.1-0.4-0.1-0.6c0-0.2-0.1-0.4-0.1-0.6
		c0-0.2-0.1-0.4-0.1-0.6c0-0.3-0.1-0.7-0.2-1c0-0.3-0.1-0.5-0.1-0.8c0-0.1,0-0.2,0-0.4c0-0.1,0-0.2-0.1-0.3c0-0.1,0-0.2,0-0.3
		c0,0,0-0.1,0-0.1c0,0,0-0.1,0-0.1v0v0c0,0,0,0.1,0,0.1c0,0,0,0.1,0,0.2c0,0.1,0,0.1,0,0.2c0,0.1,0,0.2,0,0.3
		c-0.2,0.7-0.3,1.5-0.4,2.3c-0.1,0.2-0.1,0.4-0.1,0.6c-0.1,0.4-0.2,0.8-0.2,1.2c0,0.2-0.1,0.4-0.1,0.7c-0.1,0.4-0.1,0.9-0.2,1.3
		c-0.1,0.2-0.1,0.5-0.1,0.7c-0.1,0.5-0.2,0.9-0.2,1.4c-0.1,0.2-0.1,0.4-0.1,0.7c-0.1,0.4-0.1,0.9-0.2,1.3c-0.1,0.2-0.1,0.4-0.1,0.6
		c-0.1,0.4-0.1,0.8-0.2,1.2C90.1,49.8,90,50,90,50.2c-0.1,0.2-0.1,0.3-0.1,0.5c-0.1,0.3-0.1,0.6-0.2,0.9c0,0.1-0.1,0.2-0.1,0.4
		c-0.1,0.2-0.1,0.4-0.2,0.6c0,0.1-0.1,0.1-0.1,0.2c0,0-0.1,0.1-0.1,0.1c0,0.1-0.1,0.1-0.1,0.1c-0.1,0-0.1,0-0.2,0.1
		c-0.1,0-0.2,0-0.3,0c-0.1,0-0.2,0-0.3,0c-0.1,0-0.2,0-0.4,0.1c-0.1,0-0.3,0-0.4,0c-0.2,0-0.3,0-0.5,0c-0.2,0-0.4,0-0.6,0
		c-0.2,0-0.4,0-0.6,0c-0.2,0-0.4,0-0.6,0c-0.2,0-0.4,0-0.6,0c-0.2,0-0.4,0-0.7,0c-0.7,0.1-1.3,0-2,0.1c-1,0-2.1,0-3.1,0
		c-0.3,0-0.7,0-1-0.1c-0.1,0-0.3,0-0.4,0c-0.1,0-0.3,0-0.4,0c-0.1,0-0.2,0-0.3,0c-0.1,0-0.2,0-0.3-0.1c-0.1,0-0.1,0-0.2,0
		c0,0-0.1,0-0.1-0.1c0,0,0,0,0,0v0c0,0,0-0.1,0-0.1c0,0,0-0.1,0-0.1c0-0.1-0.1-0.2-0.1-0.3c0,0,0-0.1,0-0.2c0-0.1,0-0.1,0-0.2
		c0-0.1,0-0.1,0-0.2c0-0.1,0-0.2,0-0.3c0-0.1,0-0.2,0-0.3c0-0.1,0-0.2-0.1-0.3c0-0.2,0-0.4-0.1-0.7c0-0.1-0.1-0.2-0.1-0.4
		c0-0.3,0-0.5-0.1-0.8c-0.1-0.3-0.1-0.6-0.1-0.9c-0.1-0.3-0.1-0.6-0.1-0.9c0-0.5-0.1-1-0.2-1.5c0-0.8-0.2-1.5-0.2-2.3
		c-0.1-1-0.3-2-0.3-3c-0.1-1.3-0.3-2.6-0.4-3.9c0-1.6-0.4-3.1-0.4-4.7c-0.1-1.1-0.3-2.3-0.3-3.4c-0.1-0.7-0.1-1.4-0.2-2
		c0-0.7-0.1-1.3-0.1-2c-0.1-0.4-0.1-0.9-0.1-1.3c-0.1-0.4-0.1-0.8-0.1-1.2c-0.1-0.4-0.1-0.8-0.1-1.2c0-0.2-0.1-0.4-0.1-0.6
		c0-0.4,0-0.8-0.1-1.1c0-0.2,0-0.4,0-0.6c0-0.2,0-0.4-0.1-0.6c0-0.2,0-0.3,0-0.5c0-0.2,0-0.3,0-0.5c0-0.1,0-0.3,0-0.5
		c0-0.2,0-0.3,0-0.5c0-0.2,0-0.3,0-0.5c0-0.1,0-0.3,0-0.4c0-0.1,0-0.3,0-0.4c0-0.3,0-0.5-0.1-0.8c0-0.1,0-0.3,0-0.4
		c0-0.2,0-0.4,0-0.7c-0.1-0.3,0-0.6,0-0.9c-0.1-0.3,0-0.8,0-1.1c0,0,0-0.2,0.1-0.2C71.9,10.7,72,10.7,72,10.7
		C72.1,10.7,72,10.7,72,10.7z"/>
	<path fill="#020202" d="M114.4,53.1L114.4,53.1c0-0.1,0-0.4,0-0.4c0-0.1,0-0.1,0-0.2c0,0,0-0.1,0-0.2c0-0.1,0-0.1,0.1-0.2
		c0-0.2,0.1-0.3,0.1-0.5c0.2-0.5,0.3-1,0.4-1.5c0.1-0.2,0.1-0.5,0.2-0.7c0-0.1,0-0.3,0.1-0.4c0-0.1,0.1-0.3,0.1-0.4
		c0-0.1,0.1-0.3,0.1-0.4c0-0.1,0.1-0.3,0.1-0.4c0.1-0.3,0.2-0.6,0.2-0.9c0.1-0.3,0.2-0.7,0.3-1c0.1-0.9,0.5-1.8,0.7-2.7
		c0.2-0.6,0.3-1.2,0.5-1.7c0.1-0.4,0.2-0.8,0.4-1.2c0-0.2,0.1-0.4,0.1-0.6c0.1-0.4,0.2-0.8,0.4-1.2c0-0.2,0.1-0.4,0.1-0.6
		c0.1-0.2,0.1-0.4,0.2-0.7c0.1-0.2,0.1-0.4,0.2-0.6c0.1-0.2,0.1-0.4,0.2-0.6c0.1-0.2,0.1-0.4,0.2-0.7c0.1-0.2,0.1-0.4,0.2-0.6
		c0.1-0.2,0.1-0.4,0.2-0.7c0.1-0.2,0.1-0.4,0.2-0.6c0.1-0.2,0.1-0.4,0.2-0.7c0.1-0.2,0.1-0.4,0.2-0.6c0.1-0.2,0.1-0.4,0.2-0.7
		c0.1-0.2,0.1-0.4,0.2-0.7c0.1-0.2,0.1-0.4,0.2-0.6c0-0.2,0.1-0.4,0.2-0.7c0-0.2,0.1-0.4,0.2-0.6c0-0.2,0.1-0.4,0.2-0.7
		c0-0.2,0.1-0.4,0.2-0.6c0-0.2,0.1-0.4,0.2-0.6c0-0.2,0.1-0.4,0.2-0.6c0-0.2,0.1-0.4,0.2-0.6c0-0.2,0.1-0.4,0.2-0.6
		c0-0.2,0.1-0.4,0.2-0.6c0-0.2,0.1-0.4,0.1-0.6c0.1-0.2,0.1-0.4,0.2-0.6c0.1-0.4,0.2-0.8,0.4-1.2c0-0.2,0.1-0.4,0.1-0.6
		c0.1-0.4,0.2-0.7,0.3-1.1c0.3-0.7,0.4-1.4,0.7-2.1c0.1-0.5,0.3-1,0.4-1.5c0.1-0.5,0.3-0.9,0.4-1.3c0-0.1,0.1-0.3,0.1-0.4
		c0-0.1,0.1-0.2,0.1-0.4c0-0.1,0.1-0.3,0.1-0.4c0-0.1,0.1-0.2,0.1-0.3c0-0.1,0.1-0.2,0.1-0.4c0.1-0.2,0.2-0.4,0.2-0.6
		c0-0.2,0.1-0.4,0.2-0.5c0.1-0.2,0.1-0.5,0.2-0.7c0-0.1,0-0.2,0.1-0.3c0,0,0-0.1,0-0.1c0,0,0-0.1,0-0.1c0,0,0.1-0.1,0.1-0.1v0
		c0,0,0.1,0,0.1-0.1c0.1,0,0.1,0,0.2-0.1c0.1,0,0.2,0,0.3,0c0.1,0,0.2,0,0.4-0.1c0.2,0,0.3,0,0.5,0c0.2,0,0.3,0,0.5,0
		c0.2,0,0.4,0,0.6,0c0.4,0,0.8,0,1.3,0c0.7,0,1.3,0,2,0c0.6,0.1,1.2,0,1.9,0.1c0.2,0,0.3,0,0.5,0c0.2,0,0.3,0,0.5,0
		c0.1,0,0.3,0,0.4,0c0.1,0,0.2,0,0.3,0c0.1,0,0.2,0,0.3,0.1c0,0,0.1,0,0.1,0v0c0,0,0,0,0,0c0,0,0,0,0,0.1c0,0,0,0.1,0,0.1
		c0,0,0,0.1,0.1,0.1c0,0,0,0.1,0,0.1c0,0.1,0,0.1,0.1,0.2c0.1,0.2,0.1,0.4,0.2,0.7c0,0.1,0,0.2,0.1,0.3c0.1,0.2,0.1,0.4,0.2,0.6
		c0,0.1,0,0.2,0.1,0.3c0,0.1,0.1,0.2,0.1,0.4c0,0.1,0.1,0.2,0.1,0.4c0,0.1,0.1,0.2,0.1,0.4c0,0.1,0.1,0.3,0.1,0.4
		c0,0.1,0.1,0.3,0.1,0.4c0.1,0.4,0.3,0.9,0.4,1.4c0.2,0.7,0.4,1.3,0.6,2c0.2,0.5,0.3,1.1,0.5,1.6c0.1,0.4,0.2,0.8,0.3,1.1
		c0.1,0.4,0.2,0.8,0.4,1.2c0,0.2,0.1,0.4,0.1,0.6c0.1,0.2,0.1,0.4,0.2,0.6c0.1,0.4,0.2,0.8,0.4,1.3c0,0.2,0.1,0.4,0.2,0.6
		c0,0.2,0.1,0.4,0.2,0.6c0,0.2,0.1,0.4,0.2,0.7c0,0.2,0.1,0.4,0.2,0.6c0,0.2,0.1,0.4,0.1,0.7c0.1,0.2,0.1,0.4,0.2,0.6
		c0.1,0.2,0.1,0.4,0.2,0.7c0,0.2,0.1,0.4,0.2,0.7c0,0.2,0.1,0.4,0.2,0.7c0,0.2,0.1,0.4,0.2,0.7c0,0.2,0.1,0.4,0.2,0.7
		c0,0.2,0.1,0.4,0.2,0.7c0,0.2,0.1,0.4,0.2,0.7c0,0.2,0.1,0.4,0.2,0.6c0,0.2,0.1,0.4,0.1,0.7c0.1,0.2,0.1,0.4,0.2,0.7
		c0.1,0.2,0.1,0.4,0.2,0.7c0.1,0.2,0.1,0.4,0.2,0.6c0.1,0.4,0.2,0.9,0.4,1.3c0,0.2,0.1,0.4,0.1,0.6c0.1,0.4,0.2,0.8,0.4,1.3
		c0.1,0.4,0.2,0.8,0.3,1.2c0.1,0.4,0.2,0.8,0.3,1.2c0.4,1,0.7,2.2,0.9,3.3c0.1,0.3,0.2,0.7,0.3,1c0.1,0.3,0.2,0.6,0.3,1
		c0,0.1,0.1,0.3,0.1,0.4c0,0.1,0.1,0.3,0.1,0.4c0,0.1,0.1,0.3,0.1,0.4c0,0.1,0.1,0.3,0.1,0.4c0,0.3,0.1,0.5,0.2,0.8
		c0.1,0.5,0.2,1.1,0.4,1.6c0,0.1,0,0.1,0.1,0.2c0,0.1,0,0.3,0.1,0.4c0,0.1,0,0.1,0,0.2c0,0.1,0,0.2,0.1,0.3c0,0.1,0,0.2,0,0.3h0
		c0,0-0.1,0.1-0.1,0.1c0,0-0.1,0-0.2,0.1c-0.1,0-0.2,0-0.3,0c-0.1,0-0.2,0-0.4,0.1c-0.3,0-0.6,0.1-0.9,0.1c-0.4,0-0.7,0-1.1,0.1
		c-1.3,0-2.6,0-3.9,0c-0.4,0-0.8,0-1.3-0.1c-0.2,0-0.4,0-0.6,0c-0.2,0-0.4,0-0.6,0c-0.1,0-0.3,0-0.5,0c-0.1,0-0.3,0-0.4-0.1
		c-0.2,0-0.5,0-0.7-0.1c-0.2,0-0.3-0.1-0.4-0.2c0-0.1,0-0.1-0.1-0.2c0-0.1-0.1-0.2-0.1-0.3c-0.1-0.2-0.2-0.5-0.2-0.7
		c-0.1-0.3-0.2-0.6-0.3-1c-0.1-0.4-0.2-0.7-0.3-1.1c-0.4-1.9-1.1-3.8-1.3-5.8c-0.1-0.4-0.2-0.7-0.3-1.1c-0.1-0.2-0.1-0.3-0.1-0.5
		c-0.1-0.4-0.1-0.9-0.3-1.3c0-0.1,0-0.2,0-0.3c0-0.1-0.1-0.1-0.1-0.2c0-0.1,0-0.2,0-0.2c-0.1,0-0.1,0-0.2,0c-0.1,0-0.2,0-0.3,0
		c-0.3,0-0.7-0.1-1-0.1c-0.2,0-0.4,0-0.6,0c-0.8-0.1-1.7-0.1-2.6,0c-0.3,0-0.7,0-1,0.1c-0.1,0-0.2,0.1-0.3,0.1
		c-0.1,0-0.1,0.1-0.2,0.1v0c0,0,0,0.1,0,0.1c0,0.1,0,0.1,0,0.2c-0.1,0.4-0.1,0.7-0.3,1.1c0,0.1-0.1,0.3-0.1,0.5
		c0,0.2-0.1,0.3-0.1,0.5c0,0.2-0.1,0.4-0.1,0.6c-0.2,1.7-0.8,3.5-1.2,5.2c-0.1,0.8-0.4,1.5-0.5,2.3c-0.1,0.2-0.1,0.3-0.1,0.5
		c0,0.1-0.1,0.3-0.1,0.4c0,0.1-0.1,0.2-0.1,0.3c0,0.1-0.1,0.2-0.1,0.3c0,0.1,0,0.1-0.1,0.2c0,0,0,0.1,0,0.1c0,0-0.1,0.1-0.1,0.1
		c-0.1,0-0.1,0-0.2,0.1c-0.5,0.1-1.1,0.3-1.6,0.3c-0.2,0-0.4,0-0.6,0.1c-0.4,0-0.8,0.1-1.2,0.1c-0.2,0-0.4,0-0.6,0
		c-0.7,0.1-1.3,0-2,0.1c-0.4,0-0.8,0-1.3,0c-0.2,0-0.4,0-0.6,0c-0.2,0-0.4,0-0.6,0c-0.2,0-0.3,0-0.5,0c-0.1,0-0.3,0-0.4-0.1
		c-0.2,0-0.5,0-0.7-0.1c-0.1,0-0.1,0-0.2-0.1C114.5,53.2,114.5,53.2,114.4,53.1z M133.6,36.2c0,0,0-0.1,0-0.2c0-0.1,0-0.1,0-0.2
		c0-0.2-0.1-0.4-0.1-0.6c0-0.5-0.2-1-0.3-1.5c-0.1-0.4-0.2-0.9-0.3-1.3c-0.1-0.3-0.1-0.6-0.2-1c0-0.3-0.1-0.7-0.2-1
		c0-0.2-0.1-0.3-0.1-0.5c-0.1-0.4-0.1-0.7-0.2-1.1c0-0.2,0-0.4-0.1-0.6c-0.1-0.4-0.1-0.7-0.2-1.1c-0.2-0.5-0.1-1.1-0.3-1.6
		c0-0.2,0-0.4-0.1-0.6c-0.1-0.2-0.1-0.4-0.1-0.6c0-0.7-0.1-0.7-0.1,0c0,0.2,0,0.4-0.1,0.6c-0.1,0.2-0.1,0.4-0.1,0.6
		c0,0.5-0.2,1.2-0.3,1.7c0,0.2-0.1,0.4-0.1,0.6c0,0.2-0.1,0.4-0.1,0.6c0,0.2-0.1,0.4-0.1,0.6c0,0.2-0.1,0.4-0.1,0.6
		c0,0.2-0.1,0.4-0.1,0.6c0,0.2-0.1,0.4-0.1,0.6c0,0.2-0.1,0.4-0.1,0.6c0,0.2-0.1,0.3-0.1,0.5c-0.1,0.3-0.1,0.7-0.2,1
		c0,0.2,0,0.3-0.1,0.5c-0.1,0.4-0.2,0.9-0.3,1.3c0,0.2-0.1,0.5-0.1,0.7c0,0.3-0.1,0.8-0.2,1.1c-0.2,0.3,0.4,0.2,0.6,0.3
		c0.2,0,0.3,0,0.5,0c0.4,0,0.8,0,1.2,0c0.2,0,0.4,0,0.6,0c0.2,0,0.4,0,0.6-0.1c0.1,0,0.3,0,0.5,0C133.2,36.3,133.4,36.3,133.6,36.2
		C133.7,36.2,133.6,36.3,133.6,36.2z"/>
</g>
<g>
	<g>
		<path fill="#1B7C09" d="M12.3,11.1c0.1-0.1,0.2-0.1,0.3-0.2c0.1,0,0.2-0.1,0.4-0.2c0.3-0.1,0.6-0.2,0.9-0.3c0.2,0,0.3-0.1,0.5-0.1
			c0.2,0,0.4-0.1,0.6-0.1c0.6-0.1,1.2-0.1,1.8-0.2c0.2,0,0.4,0,0.6,0c0.7,0,1.5-0.1,2.2,0c0.3,0,0.6,0,0.9,0.1c0.1,0,0.2,0,0.4,0.1
			c0.1,0,0.2,0,0.3,0.1c0.1,0,0.1,0.1,0.2,0.1c0,0,0.1,0.1,0.1,0.1c0,0,0.1,0.1,0.1,0.1c0,0,0.1,0.1,0.1,0.2c0,0.1,0.1,0.1,0.1,0.2
			c0,0.1,0.1,0.2,0.1,0.3c0,0.2,0.1,0.3,0.1,0.5c0,0.2,0.1,0.4,0.1,0.7c0,0.3,0.1,0.5,0.1,0.8c0,0.1,0,0.3,0,0.4c0,0.1,0,0.3,0,0.4
			c0,0.3,0,0.6,0.1,0.9c0,0.3,0,0.7,0,1c0.2,1.3,0,2.6,0,3.9c-0.1,1,0,2.1,0,3.1c0,0.2,0,0.4,0,0.6c0,0.2,0,0.4,0,0.6
			c0,0.4,0,0.8,0,1.3c-0.1,0.4-0.1,0.6,0,0.6c0.1,0,0.3-0.1,0.5-0.4c0.3-0.3,0.6-0.6,0.9-1c0.3-0.3,0.6-0.7,0.9-1
			c0.6-0.6,1.1-1.4,1.5-2.1c0.5-0.7,0.8-1.5,1.2-2.2c0.1-0.2,0.2-0.4,0.3-0.6c0.3-0.7,0.6-1.4,0.9-2.1c0-0.2,0.1-0.3,0.2-0.5
			c0-0.1,0.1-0.3,0.1-0.5c0.3-0.6,0.4-1.2,0.6-1.8c0.1-0.3,0.1-0.6,0.2-0.8c0.1-0.2,0.1-0.5,0.2-0.7c0-0.2,0.1-0.4,0.2-0.7
			c0-0.1,0-0.2,0.1-0.3c0-0.1,0-0.2,0.1-0.3c0-0.1,0-0.1,0.1-0.2c0,0,0-0.1,0.1-0.2c0,0,0-0.1,0-0.1c0,0,0-0.1,0.1-0.1
			c0,0,0,0,0-0.1c0,0,0,0,0.1,0c0.1,0,0.2,0,0.3,0c0.4-0.1,0.8,0,1.2,0c0.5,0.1,1.1,0.1,1.6,0.3c0.4,0.1,0.8,0.2,1.2,0.2
			c0.2,0,0.4,0.1,0.6,0.2c0.4,0.1,0.8,0.2,1.2,0.3c0.2,0,0.4,0.1,0.6,0.2c0.4,0.1,0.7,0.2,1.1,0.4c0.3,0.2,0.7,0.3,1,0.4
			c0.1,0.1,0.3,0.1,0.4,0.2c0.3,0.1,0.5,0.3,0.7,0.4c0.1,0,0.2,0.1,0.3,0.2c0.1,0,0.1,0.1,0.2,0.2c0,0,0.1,0.1,0.1,0.1
			c0.1,0.1,0.1,0.4,0,0.6c0,0,0,0.1,0,0.1c0,0.1-0.1,0.3-0.1,0.4c0,0.1,0,0.1-0.1,0.2c0,0.1-0.1,0.2-0.1,0.3c0,0.1-0.1,0.2-0.1,0.3
			c0,0.1-0.1,0.2-0.1,0.3c-0.1,0.1-0.1,0.2-0.1,0.3c0,0.1-0.1,0.2-0.1,0.3c-0.1,0.2-0.2,0.5-0.3,0.7c-0.1,0.3-0.3,0.5-0.4,0.8
			c-0.1,0.1-0.1,0.3-0.2,0.4c-0.1,0.1-0.1,0.3-0.2,0.4c-0.3,0.4-0.4,0.9-0.7,1.3c-0.1,0.1-0.2,0.3-0.3,0.4c-0.1,0.1-0.2,0.3-0.3,0.4
			c-0.2,0.3-0.4,0.6-0.6,1c-0.1,0.1-0.2,0.3-0.3,0.4c-0.1,0.2-0.2,0.3-0.3,0.5c-0.1,0.1-0.2,0.3-0.3,0.5c-0.1,0.1-0.2,0.3-0.3,0.5
			c-0.1,0.1-0.2,0.3-0.4,0.4c-0.1,0.2-0.2,0.3-0.4,0.5c-0.2,0.3-0.5,0.7-0.8,1c-0.1,0.1-0.3,0.3-0.4,0.4c-0.1,0.1-0.3,0.3-0.4,0.4
			c-0.4,0.5-0.9,0.9-1.3,1.3c-0.3,0.3-0.6,0.6-1,0.8c-0.2,0.1-0.3,0.3-0.5,0.4c-0.3,0.3-0.7,0.5-1,0.8c-0.2,0.2-0.3,0.3-0.5,0.4
			c-0.3,0.1-0.5,0.2-0.6,0.4c0,0.1,0.1,0.2,0.4,0.2c0.1,0,0.3,0.1,0.4,0.3c0.4,0.3,0.9,0.6,1.3,0.9c0.1,0.1,0.3,0.2,0.4,0.3
			c0.4,0.3,0.9,0.7,1.3,1.1c0.1,0.1,0.3,0.3,0.4,0.4c0.3,0.3,0.6,0.6,0.9,0.8c0.1,0.1,0.3,0.3,0.4,0.4c0.1,0.1,0.3,0.3,0.4,0.4
			c0.1,0.1,0.3,0.3,0.4,0.4c0.3,0.3,0.5,0.6,0.8,0.9c0.3,0.3,0.5,0.6,0.8,0.9c0.1,0.1,0.2,0.3,0.4,0.4c0.2,0.3,0.5,0.6,0.7,1
			c0.4,0.4,0.7,1,1,1.4c0.1,0.1,0.2,0.3,0.3,0.5c0.1,0.1,0.2,0.3,0.3,0.4c0.1,0.1,0.2,0.3,0.3,0.4c0.2,0.3,0.4,0.6,0.6,0.9
			c0.1,0.1,0.2,0.3,0.3,0.4c0.1,0.1,0.2,0.3,0.3,0.4c0.1,0.1,0.2,0.3,0.3,0.4c0.1,0.1,0.2,0.3,0.3,0.4c0.1,0.3,0.3,0.5,0.4,0.8
			c0.1,0.1,0.1,0.2,0.2,0.4c0.1,0.1,0.1,0.2,0.2,0.3c0,0.1,0.1,0.2,0.1,0.3c0.2,0.3,0.3,0.6,0.5,0.9c0,0.1,0.1,0.2,0.1,0.3
			c0,0.1,0.1,0.2,0.1,0.3c0.1,0.1,0.1,0.3,0.1,0.4c0,0,0,0.1,0,0.1c0,0,0,0.1,0,0.2c0.1,0.1,0,0.3,0,0.4c0,0.1-0.1,0.1-0.1,0.2
			c-0.1,0.1-0.1,0.2-0.2,0.3c-0.2,0.2-0.4,0.4-0.6,0.5c-0.1,0.1-0.2,0.2-0.4,0.3c-0.1,0.1-0.3,0.2-0.4,0.3c-0.1,0.1-0.3,0.2-0.5,0.3
			c-0.1,0.1-0.3,0.2-0.5,0.3c-0.3,0.2-0.7,0.4-1.1,0.6c-0.6,0.2-1.1,0.6-1.7,0.8c-0.7,0.3-1.4,0.7-2.1,0.9c-0.3,0.1-0.6,0.2-0.9,0.3
			c-0.2,0-0.5,0.1-0.7,0.1c-0.1,0-0.4,0.1-0.5,0c-0.1,0-0.1-0.1-0.2-0.1c-0.1-0.1-0.2-0.2-0.2-0.3c-0.1-0.1-0.1-0.1-0.1-0.2
			c0-0.1-0.1-0.1-0.1-0.2c-0.1-0.1-0.1-0.1-0.1-0.2c0-0.1-0.1-0.1-0.1-0.2c0-0.1-0.1-0.2-0.1-0.3c-0.1-0.2-0.2-0.4-0.3-0.6
			c0-0.1-0.1-0.2-0.1-0.3c-0.1-0.4-0.3-0.7-0.4-1.1c-0.1-0.3-0.2-0.5-0.4-0.8c0-0.1-0.1-0.3-0.2-0.4c-0.3-0.9-0.8-1.9-1.3-2.8
			c-0.1-0.2-0.2-0.3-0.3-0.5c-0.2-0.3-0.4-0.7-0.5-1c-0.2-0.3-0.4-0.7-0.6-1c-0.2-0.3-0.4-0.7-0.7-1c-0.4-0.7-0.9-1.5-1.5-2.1
			c-0.1-0.2-0.2-0.3-0.4-0.5c-0.1-0.2-0.3-0.3-0.4-0.5c-0.4-0.5-0.9-1-1.3-1.5c-0.1-0.1-0.3-0.3-0.4-0.5c-0.2-0.2-0.3-0.3-0.5-0.4
			c-0.2-0.1-0.3-0.3-0.5-0.5c-0.2-0.2-0.3-0.4-0.5-0.4c-0.1,0-0.1,0.1,0,0.4c0,0.1,0.1,0.2,0,0.4c0,0.1,0,0.3,0,0.4
			c0,0.1,0,0.3,0,0.5c0,0.3,0.1,0.6,0.1,1c0,0.2,0,0.3,0,0.5c0,0.2,0,0.3,0,0.5c0,0.4,0.1,0.8,0.1,1.1c0,0.2,0,0.4,0,0.6
			c0,0.2,0,0.4,0.1,0.6c0,0.2,0,0.4,0,0.6c0,0.4,0,0.8,0.1,1.2c0,0.2,0,0.4,0,0.6c0,0.2,0,0.4,0.1,0.6c0,0.2,0,0.4,0,0.6
			c0,0.4,0,0.8,0.1,1.2c0,0.2,0,0.4,0,0.6c0,0.2,0,0.4,0,0.6c0,0.2,0,0.4,0,0.6c0,0.4,0,0.7,0.1,1.1c0,0.2,0,0.3,0,0.5
			c0,0.3,0,0.6,0,0.9c0.1,0.5,0.2,1.5,0,2c0,0.1,0,0.2,0,0.4c0,0,0,0.1,0,0.1c0,0,0,0,0,0c0,0-0.1,0.1-0.1,0.1
			c-0.1,0-0.1,0.1-0.2,0.1c-0.2,0.1-0.5,0.1-0.7,0.1c-0.3,0-0.6,0.1-1,0.1c-0.2,0-0.4,0-0.6,0c-0.4,0-0.8,0-1.3,0.1
			c-1.3,0-2.6,0-4,0c-0.4,0-0.7,0-1.1-0.1c-0.2,0-0.3,0-0.5,0c-0.1,0-0.3,0-0.4,0c-0.1,0-0.2,0-0.4,0c-0.1,0-0.2,0-0.3,0
			c-0.1,0-0.1,0-0.2-0.1c0,0-0.1,0-0.1-0.1h0c0-0.1,0-0.2,0-0.3c-0.1-0.1,0-0.4,0-0.5c-0.1-0.2,0-0.5-0.1-0.7c0-0.2,0-0.4,0-0.6
			c0-0.2,0-0.4,0-0.7c0-0.3-0.1-0.5,0-0.8c0-0.3,0-0.5,0-0.8c0-0.3-0.1-0.6-0.1-0.9c0-0.3,0-0.6,0-1c0-0.3,0-0.7,0-1
			c0-0.2,0-0.3,0-0.5c0-0.4,0-0.7,0-1.1c0-0.4,0-0.8-0.1-1.1c0-0.4,0-0.8,0-1.2c0-0.2,0-0.4,0-0.6c0-0.4-0.1-0.8,0-1.2
			c0-0.4,0-0.9-0.1-1.3c0-0.4,0-0.9,0-1.3c0-0.4,0-0.9,0-1.3c0-0.4,0-0.9,0-1.3c0-0.2,0-0.4,0-0.7c-0.1-0.7,0-1.4-0.1-2
			c0-0.5,0-0.9,0-1.4c0-0.5,0-0.9,0-1.4c-0.1-0.7,0-1.3-0.1-2c0-0.7,0-1.3,0-2c-0.1-0.8,0-1.7,0-2.5c-0.2-2.1-0.4-5,0-7.1
			c0-0.4,0-0.9,0-1.3c0.1-0.4,0-0.7,0.1-1.1c0-0.2,0-0.4,0-0.6c0-0.2,0-0.4,0.1-0.6c0-0.1,0-0.2,0-0.3c0-0.1,0-0.3,0.1-0.4
			c0,0,0-0.1,0-0.2c0,0,0-0.1,0-0.1c0-0.1,0-0.1,0.1-0.2c0,0,0,0,0-0.1C12.2,11.3,12.2,11.2,12.3,11.1C12.4,11,12.2,11.2,12.3,11.1z
			"/>
	</g>
</g>
</svg>
