<?xml version="1.0" encoding="utf-8"?>
<!-- Generator: Adobe Illustrator 18.0.0, SVG Export Plug-In . SVG Version: 6.00 Build 0)  -->
<!DOCTYPE svg PUBLIC "-//W3C//DTD SVG 1.0//EN" "http://www.w3.org/TR/2001/REC-SVG-20010904/DTD/svg10.dtd">
<svg version="1.0" id="Camada_1" xmlns="http://www.w3.org/2000/svg" xmlns:xlink="http://www.w3.org/1999/xlink" x="0px" y="0px"
	 viewBox="120 314 776.7 222" enable-background="new 120 314 776.7 222" xml:space="preserve">
<g>
	<g>
		<path fill="#1B7C09" d="M135.3,483.5C135.3,483.5,135.3,483.4,135.3,483.5c-0.1-0.1-0.1-0.2-0.2-0.3c0-0.1,0-0.2-0.1-0.3
			c0-0.1,0-0.2-0.1-0.3c0-0.1,0-0.2-0.1-0.3c0-0.2,0-0.3,0-0.4c-0.1-0.2-0.1-0.3-0.1-0.5c-0.1-0.6-0.2-1.2-0.2-1.7
			c0-0.2,0-0.5,0-0.7c-2.6-25.3,0.2-50.9,0.2-76.3c0.1-1.9,0.2-3.8,0.2-5.8c0.1-1,0.2-2,0.2-3c0.1-0.9,0.1-1.8,0.2-2.6
			c0-0.2,0-0.5,0-0.8c0.1-0.6,0.2-1.3,0.2-1.9c0-0.2,0-0.4,0-0.5c0.1-0.4,0.1-0.9,0.2-1.3c0-0.1,0-0.2,0-0.4c0-0.2,0.1-0.3,0.2-0.4
			c0.3-0.4,0.6-0.7,1.1-0.9c0.2-0.1,0.3-0.1,0.4-0.2c0.2-0.1,0.3-0.2,0.4-0.2c0.5-0.2,1-0.4,1.5-0.5c0.7-0.1,1.5-0.2,2.2-0.3
			c0.3-0.1,0.5-0.1,0.8-0.1c0.3-0.1,0.7-0.1,1-0.1c1.1-0.1,2.3-0.2,3.4-0.2c3.3-0.4,13.9-0.5,19.2,0.2c0.4,0,0.9,0,1.3,0.1
			c2.2,0.2,4.3,0.5,6.4,1c2,0.5,3.8,1,5.7,1.7c0.4,0.2,0.7,0.3,1.1,0.4c0.4,0.2,0.7,0.4,1.1,0.5c1.3,0.6,2.6,1.3,3.9,2.1
			c2.7,2,5.1,4.1,7.1,6.8c1.3,2.3,2.5,4.6,3.7,7c0.1,0.4,0.2,0.8,0.3,1.2c1.3,3.2,1.8,6.9,1.8,10.3c0.5,4.1-0.2,10.3-2,14.3
			c-0.2,0.4-0.4,0.8-0.6,1.3c-1,2.1-2.2,4-3.6,5.9c-0.3,0.3-0.5,0.6-0.8,1c-0.3,0.3-0.6,0.7-0.9,1c-0.3,0.3-0.7,0.6-1,0.9
			c-0.8,0.9-1.8,1.8-2.8,2.4c-2.6,2-5.4,3.5-8.4,4.7c-0.4,0.1-0.7,0.3-1.1,0.4c-3.4,1.1-6.7,1.7-10.1,2.6c-0.2,0-0.5,0-0.7,0.1
			c-0.2,0-0.4,0-0.7,0.1c-0.2,0-0.4,0-0.6,0c-0.2,0.1-0.3,0.1-0.5,0.1c-0.2,0.1-0.3,0.1-0.5,0c-0.3-0.1-0.4-0.1-0.4,0
			c-0.1,0.3,0,0.7,0.1,1.1c0.6,4.2,0.6,8.5,1.1,12.7c0.1,1.3,0.2,2.6,0.2,3.9c0.3,4.9,0.9,10.8-1.2,15.4c-0.1,0.2-0.2,0.3-0.3,0.5
			c-0.1,0.2-0.2,0.3-0.3,0.5c-0.4,0.4-0.9,0.7-1.5,0.9c-0.3,0.1-0.5,0.2-0.7,0.3c-1.3,0.2-2.7,0.4-4,0.6c-0.4,0-0.8,0-1.2,0
			c-2.7,0-5.3,0-8,0c-0.4-0.1-0.9-0.1-1.3-0.1c-0.5-0.1-0.9-0.1-1.4-0.2C142,485.1,138.4,485,135.3,483.5
			C135.3,483.5,135.4,483.6,135.3,483.5z M174.4,416c0-0.6,0-1.3,0-1.8c-0.2-2.5-1.1-4.8-2.8-6.6c-0.3-0.3-0.7-0.6-1-0.9
			c-0.3-0.2-0.7-0.5-1-0.7c-2.3-1.4-4.4-1.7-7-2.3c-0.2,0-0.5,0-0.7,0c-0.2,0.1-0.3,0.1-0.5,0c-0.2-0.1-0.4,0-0.4,0.1
			c-0.1,0.1-0.1,0.2-0.1,0.3c0.1,0.2,0.1,0.4,0,0.6c0,2.1,0.2,4.3,0.2,6.4c0.1,0.5,0.1,0.9,0.1,1.4c0.1,0.5,0.1,0.9,0.1,1.4
			c0.1,0.5,0.1,1,0.1,1.5c0.1,0.5,0.1,1,0.1,1.5c0.1,0.5,0.1,1,0.1,1.5c0.1,0.5,0.1,1,0.1,1.5c0.1,0.5,0.1,1,0.1,1.5
			c0.1,0.5,0.1,1,0.1,1.5c0.1,0.5,0.1,0.9,0.1,1.3c0.1,0.5,0.1,0.9,0.1,1.4c0.1,1.1,0.2,2.3,0.2,3.4c0.1,0.9,0.1,1.9,0.1,2.8
			c0.1,0.1,0.2,0.1,0.4,0c0.2,0,0.3,0,0.5,0c0.2,0.1,0.4,0.1,0.6,0c0.8-0.1,1.5-0.3,2.2-0.6c0.3-0.1,0.6-0.3,0.9-0.4
			c0.3-0.1,0.5-0.3,0.8-0.4C172.5,427.3,174,421.2,174.4,416C174.4,415.3,174.4,416.7,174.4,416C174.4,415.3,174.4,416.7,174.4,416z
			"/>
		<path fill="#020202" d="M206,385.5c0.1-0.1,0.1-0.1,0.2-0.2c0.1,0,0.2,0,0.3-0.1c0.2-0.1,0.3-0.1,0.4-0.2c0.2,0,0.4,0,0.6-0.1
			c0.2-0.1,0.4-0.1,0.6-0.2c1.5-0.1,3-0.4,4.5-0.6c1.2-0.1,2.3-0.2,3.5-0.3c0.4-0.1,0.8-0.1,1.2-0.2c0.4,0,0.9,0,1.3-0.1
			c0.5,0,0.9,0,1.4-0.1c0.4,0,0.9,0,1.4-0.1c0.5,0,0.9,0,1.4,0c0.5-0.1,1-0.1,1.5-0.1c6.4-0.4,12.8-0.2,19.3-0.2c1,0.1,2,0.2,3,0.3
			c0.8,0,1.6,0.1,2.4,0.3c0.2,0,0.4,0,0.6,0.1c0.6,0.1,1,0.3,1.4,0.7c0.1,0.2,0.2,0.3,0.2,0.5c0.1,0.2,0.2,0.5,0.2,0.8
			c0.6,2.4,0.9,4.9,1,7.3c0,0.5,0,1,0.1,1.5c0,0.5,0,1,0.1,1.5c-0.1,2.2-0.1,4.5-0.1,6.7c-0.1,0.4-0.1,0.7-0.2,1
			c0,0.8-0.2,1.5-0.4,2.2c-0.1,0.1-0.1,0.2-0.2,0.3c-0.2,0.1-0.3,0.2-0.5,0.3c-0.3,0.1-0.5,0.1-0.8,0.1c-1.8,0.1-3.5,0.1-5.3,0
			c-0.5-0.1-1-0.1-1.5-0.1c-0.5-0.1-0.9-0.1-1.4-0.2c-1.1-0.1-2.9-0.4-4.1-0.4v0.1c0,9.9-0.5,19.9,0.3,29.7c0,0.6,0,1.2,0.1,1.8
			c0,0.6,0,1.2,0.1,1.7c0,0.6,0,1.2,0.1,1.8c0.1,5.4,0.6,11.2,1.5,16.4c0,0.2,0,0.5,0.1,0.7c0,0.2,0,0.4,0.1,0.6c0,0.1,0,0.3,0,0.4
			c0.1,0.3,0.2,0.6,0.2,0.9v0.1c0.1,0,0.1,0,0.2-0.1c0.2,0,0.4,0,0.6-0.1c2.5-0.5,5-0.9,7.6-1c1.3,0,4.2-0.4,5.3,0.8
			c0.1,0.1,0.1,0.3,0.2,0.4c0.1,0.2,0.2,0.3,0.2,0.5c0.3,1.7,0.5,3.4,0.7,5.2c0,0.5,0,0.9,0.1,1.4c0,0.5,0,0.9,0.1,1.4
			c0,0.5,0,1,0.1,1.5c0.1,3,0,5.9-0.2,8.8c0,0.5,0,0.9-0.1,1.3c-0.1,1.3,0,3.3-0.7,4.5c-0.2,0.6-0.9,0.8-1.5,0.8
			c-0.2,0.1-0.4,0.1-0.6,0.2c-0.2,0-0.4,0-0.6,0.1c-0.3,0-0.5,0-0.7,0.1c-0.3,0-0.5,0-0.8,0.1c-0.3,0-0.6,0-0.9,0
			c-0.3,0.1-0.7,0.1-1,0.1c-1.1,0.1-2.2,0.2-3.3,0.2c-11.3,1.2-22.9-0.1-34.2-0.1c-1-0.1-2.1-0.2-3.1-0.2c-0.3-0.1-0.5-0.1-0.8-0.1
			c-0.3-0.1-0.5-0.1-0.8-0.1c-0.3-0.1-0.5-0.1-0.7-0.1c-0.2-0.1-0.4-0.1-0.7-0.1c-0.2-0.1-0.4-0.1-0.6-0.1c-0.2-0.1-0.3-0.1-0.5-0.1
			c-0.1-0.1-0.2-0.1-0.3-0.1c-0.1-0.1-0.2-0.1-0.3-0.1c-0.2-0.3-0.4-0.7-0.6-1c-0.1-0.3-0.1-0.6-0.2-0.8c-0.8-4.6-0.6-9.3-0.6-13.9
			c0.1-0.5,0.1-1,0.1-1.5c0.1-0.5,0.1-1,0.2-1.5c0-1.8,0.3-3.6,0.9-5.3c0.1-0.2,0.1-0.3,0.2-0.5c0.1-0.2,0.2-0.3,0.3-0.3
			c0.2-0.1,0.4-0.2,0.7-0.3c0.3-0.1,0.7-0.2,1-0.2c0.4-0.1,0.8-0.1,1.1,0c0.4,0,0.9,0,1.3,0c2.6,0.3,5.3,0.7,7.8,1.3
			c0.1,0,0.1,0,0.2,0v-0.1c0-0.1,0-0.1,0-0.2c0.3-0.7,0.1-1.8,0.3-2.5c0-0.3,0-0.6,0.1-0.8c0-0.3,0-0.6,0.1-1c0-0.3,0-0.6,0.1-1
			c0.1-1.2,0.2-2.3,0.3-3.5c0-1.4,0.2-2.7,0.3-4.1c0-0.5,0-1,0.1-1.5c0.1-1.6,0.2-3.2,0.2-4.8c0.1-0.6,0.1-1.1,0.2-1.7
			c0-0.6,0-1.2,0.1-1.7c0-0.6,0-1.2,0.1-1.8c0-0.6,0-1.2,0-1.7c0.1-0.6,0.1-1.3,0.1-1.8c0.3-8.7,0.4-17.3,0.2-26c-0.1,0-0.1,0-0.2,0
			c-0.2,0.1-0.3,0.1-0.5,0.2c-3.6,0-6.7,1.2-10.3,0.6c-2.8-1-2.6-2.2-2.9-4.6c0-0.4,0-0.8-0.1-1.2c-0.1-1.9,0-3.7,0.1-5.6
			c0.1-0.5,0.1-1,0.1-1.5c0.3-2.2,0.6-4.5,0.9-6.7c0.1-0.4,0.2-0.7,0.2-1c0.1-0.3,0.2-0.6,0.3-0.8c0.1-0.2,0.1-0.5,0.2-0.7
			C205.8,385.7,205.9,385.6,206,385.5C206.1,385.4,205.9,385.6,206,385.5C206.1,385.4,205.9,385.6,206,385.5z"/>
		<path fill="#020202" d="M308,441c0.1,0.3,0.4,0.6,1.1,1c5.6,3.5,9.9,13,12.8,18.5c2.4,4.6,3.6,9.4,5.4,14.3c0.1,0.3,0.1,0.6,0.2,1
			c0.4,1.3,0.6,2.6,0.7,3.9c0.1,1,0.4,2.4,0,3.3c0,0.1,0,0.1-0.1,0.2c0,0.1,0,0.1-0.1,0.2c-3,1.6-6.9,1.4-10.2,1.8
			c-0.4,0-0.9,0-1.3,0.1c-0.4,0-0.9,0-1.3,0c-4.5,0.4-11.6,1-15.6-1.2c-0.2-0.1-0.4-0.1-0.6-0.3c-2.2-2.3-2-7.2-2.4-10.1
			c-0.1-0.3-0.2-0.7-0.2-1.1c-0.1-0.3-0.2-0.7-0.3-1.1c-0.3-1.2-0.6-2.5-0.9-3.7c-0.2-0.4-0.3-0.8-0.4-1.2c-0.2-0.4-0.3-0.8-0.4-1.3
			c-2.1-5.3-4.2-9.9-7.7-14.3c0,0.1,0,0.2,0,0.3c0.1,0.6,0.2,1.2,0.2,1.8c0.1,0.3,0.1,0.6,0.1,1c0.1,0.3,0.1,0.6,0.1,1
			c0.1,0.4,0.1,0.8,0.2,1.2c0,0.4,0,0.8,0.1,1.2c0,0.4,0,0.8,0.1,1.3c0.1,1.5,0.2,2.9,0.2,4.4c0.1,0.5,0.1,1,0.1,1.6
			c0.1,0.5,0.1,1,0.1,1.6c0.2,3.9,0.1,7.8,0.1,11.7c-0.1,0.4-0.1,0.8-0.1,1.1c-0.1,1.2-0.3,2.4-0.7,3.5c-0.1,0.2-0.2,0.3-0.2,0.5
			c-0.1,0.1-0.2,0.2-0.3,0.4c-0.2,0.1-0.3,0.2-0.5,0.3c-0.2,0.1-0.4,0.2-0.7,0.3c-0.2,0.1-0.5,0.2-0.7,0.3c-2.1,0.4-4.3,0.8-6.4,1
			c-0.4,0-0.8,0-1.2,0.1c-0.5,0-0.9,0-1.4,0c-3.1,0.2-6.2,0.2-9.3-0.1c-0.4,0-0.8,0-1.2-0.1c-0.4,0-0.8,0-1.1-0.1
			c-1.8-0.1-3.7-0.5-5.3-1.2c0-0.1,0-0.1-0.1-0.2c0-0.1,0-0.1-0.1-0.2c0-0.1,0-0.2-0.1-0.3c0-0.1,0-0.2-0.1-0.3c0-0.1,0-0.3-0.1-0.4
			c0-0.1,0-0.3,0-0.4c-0.1-0.2-0.1-0.3-0.1-0.5c-0.1-0.6-0.2-1.3-0.2-1.9c0-0.2,0-0.5,0-0.8c-3.8-24.9,0.2-51.2,0.2-76.4
			c0.2-1.9,0.2-3.9,0.2-5.8c0.1-1,0.2-2,0.2-3c0.1-0.3,0.1-0.6,0.1-0.9c0.1-0.8,0.2-1.6,0.2-2.4c0.1-0.7,0.2-1.3,0.2-2
			c0-0.2,0-0.3,0-0.5c0.1-0.2,0.1-0.3,0.1-0.4c0.1-0.4,0.2-0.8,0.2-1.1c0-0.1,0-0.1,0-0.2l0.1-0.2c0.1-0.1,0.1-0.1,0.1-0.2
			c0.1-0.1,0.1-0.1,0.2-0.2c0.1-0.1,0.2-0.2,0.2-0.3c1.2-0.7,3.4-1.5,5-1.5c0.3-0.1,0.5-0.1,0.8-0.1c0.3-0.1,0.6-0.1,0.9-0.1
			c0.3-0.1,0.7-0.1,1-0.1c13-1.5,30.9-1.8,42.5,5.7c0.3,0.2,0.7,0.4,1,0.6c1.8,1.2,3.4,2.7,4.9,4.3c0.2,0.2,0.5,0.5,0.7,0.8
			c5.1,6.9,6.5,13.5,7.4,21.7c0,4.4-0.5,7-1.6,10.8c-0.2,0.3-0.3,0.7-0.5,1c-0.1,0.4-0.2,0.7-0.4,1c-0.2,0.3-0.4,0.6-0.6,1
			c-0.2,0.3-0.4,0.6-0.6,0.9c-0.7,1.2-1.6,2.3-2.6,3.3c-1,1-2,2-3.2,2.8c-0.3,0.2-0.6,0.4-0.9,0.6c-0.3,0.2-0.6,0.4-0.9,0.6
			c-1,0.5-2,1-2.9,1.6c-0.3,0.3-0.7,0.4-1,0.4C308.4,440.6,308,440.8,308,441C308.1,441.3,308,440.8,308,441
			C308.1,441.3,308,440.8,308,441z M297.8,416.3c0-0.6,0-1.3-0.1-1.9c-0.1-0.6-0.2-1.1-0.4-1.7c-0.1-0.5-0.3-1-0.5-1.6
			c-0.2-0.4-0.5-0.8-0.7-1.3c-0.2-0.4-0.5-0.8-0.8-1.1c-0.3-0.3-0.6-0.7-0.9-1c-0.3-0.3-0.7-0.6-1.1-0.9c-0.3-0.3-0.7-0.6-1.1-0.8
			c-0.4-0.2-0.8-0.4-1.1-0.6c-0.4-0.2-0.8-0.4-1.1-0.5c-1.1-0.4-2.1-0.7-3.3-1c-0.3-0.1-0.7-0.1-1-0.1c-0.3-0.1-0.5-0.1-0.8-0.1
			c-0.2-0.1-0.5-0.1-0.7-0.1c-0.2,0.1-0.4,0.1-0.6,0c-0.2,0-0.3,0-0.3,0.1c-0.1,0.1-0.1,0.3-0.1,0.5c0,0.2,0,0.4,0,0.6
			c-0.1,0.2-0.1,0.4,0,0.6c0,2.2,0.2,4.4,0.5,6.6c0,1.2,0.1,2.5,0.3,3.7c0,1.4,0.1,2.8,0.3,4.2c0.1,1.5,0.2,3,0.2,4.5
			c0.1,0.5,0.1,1,0.1,1.6c-0.1,0.6-0.1,1.1,0,1.6c0,0.1,0.2,0.1,0.5,0.1c0.2,0,0.4,0,0.7,0.1c0.9,0,1.8-0.2,2.6-0.4
			c4.1-1,7.6-3.7,9-7.8C297.7,418.4,297.8,417.3,297.8,416.3C297.8,415.6,297.8,417.3,297.8,416.3z"/>
		<path fill="#020202" d="M330.9,484.8L330.9,484.8c0-0.6,0.1-1,0.2-1.5c0-0.1,0-0.3,0-0.4c0.1-0.2,0.1-0.3,0.2-0.5
			c0.4-2.5,1.2-5,1.6-7.5c0.1-0.3,0.2-0.6,0.2-1c0.1-0.4,0.2-0.7,0.2-1c0.1-0.4,0.2-0.7,0.3-1c1.6-6.5,3.4-12.9,4.9-19.3
			c0.5-1.4,0.8-2.9,1.1-4.4c0.2-0.5,0.3-1,0.4-1.6c0.2-0.5,0.3-1,0.4-1.5c0.2-0.5,0.3-1,0.4-1.5c0.2-0.5,0.3-1,0.4-1.6
			c0.2-0.5,0.3-1,0.4-1.5c0.2-0.5,0.3-1,0.4-1.6c0.2-0.5,0.3-1,0.4-1.5c0.2-0.5,0.3-1,0.4-1.6c0.2-0.5,0.3-1,0.4-1.5
			c0.2-0.5,0.3-1,0.4-1.6c0.2-0.5,0.3-1,0.4-1.6c0.2-0.5,0.3-1,0.5-1.5c0.1-0.5,0.2-1,0.4-1.6c0.1-0.5,0.2-1,0.4-1.5
			c0.1-0.5,0.2-1,0.4-1.6c0.1-0.5,0.2-1,0.4-1.5c0.1-0.5,0.2-1,0.4-1.5c0.1-0.5,0.2-1,0.4-1.5c0.1-0.5,0.2-1,0.4-1.5
			c0.1-0.5,0.2-1,0.4-1.5c0.1-0.5,0.2-1,0.4-1.5c0.1-0.5,0.2-0.9,0.3-1.4c0.2-0.5,0.3-0.9,0.4-1.4c0.5-1.4,0.8-2.8,1.1-4.2
			c1.9-5.4,3.7-11.4,4.8-17.1c0.1-0.3,0.2-0.6,0.2-0.8c0.1-0.3,0.2-0.6,0.2-0.9c0.6-1.7,0.9-3.8,1.7-5.4c0.1-0.1,0.1-0.1,0.1-0.3
			c0.1-0.1,0.2-0.3,0.2-0.4c0.1-0.1,0.2-0.1,0.3-0.2c0.2-0.1,0.3-0.1,0.5-0.2c0.2-0.1,0.5-0.1,0.7-0.1c0.3-0.1,0.5-0.1,0.8-0.2
			c0.4,0,0.7,0,1.1-0.1c0.4,0,0.8,0,1.1-0.1c0.4,0,0.9,0,1.3-0.1c4.1,0.1,8.2-0.4,12.3,0.2c0.4,0,0.7,0,1.1,0
			c0.3,0.1,0.6,0.1,0.9,0.1c0.3,0.1,0.5,0.1,0.7,0.1c0.2,0.1,0.4,0.1,0.6,0.2c0.1,0,0.2,0,0.3,0.1v0.1c0.1,0,0.1,0,0.1,0.1
			c0.1,0.1,0.1,0.1,0.1,0.2c0.1,0.1,0.1,0.1,0.1,0.3c0.1,0.1,0.1,0.2,0.2,0.3c0,0.1,0,0.2,0.1,0.4c0.1,0.2,0.1,0.3,0.2,0.4
			c0.2,0.7,0.5,1.4,0.7,2.2c0.3,0.7,0.5,1.4,0.7,2.2c0.1,0.3,0.2,0.6,0.2,0.9c0.1,0.3,0.2,0.6,0.2,0.9c0.1,0.3,0.2,0.6,0.3,0.9
			c1.8,6.9,4.2,13.7,5.6,20.7c0.2,0.5,0.3,0.9,0.4,1.4c0.4,1.5,0.8,3,1.2,4.5c0.1,0.5,0.2,1,0.4,1.5c0.1,0.5,0.2,1,0.4,1.6
			c0.1,0.5,0.2,1,0.4,1.5c0.1,0.5,0.2,1,0.3,1.6c0.2,0.5,0.3,1,0.4,1.5c0.2,0.5,0.3,1,0.5,1.6c0.1,0.5,0.2,1,0.4,1.6
			c0.1,0.5,0.2,1,0.4,1.6c0.1,0.5,0.2,1,0.4,1.6c0.1,0.5,0.2,1,0.4,1.6c0.1,0.5,0.2,1,0.4,1.6c0.1,0.5,0.2,1,0.4,1.6
			c0.1,0.5,0.2,1,0.4,1.5c0.1,0.5,0.2,1,0.3,1.6c0.2,0.5,0.3,1,0.4,1.6c0.2,0.5,0.3,1,0.4,1.6c0.2,0.5,0.3,1,0.4,1.5
			c0.4,1.5,0.8,3,1.1,4.5c2,7.4,3.3,15,5.6,22.3c0.1,0.4,0.1,0.7,0.2,1c0.1,0.4,0.1,0.7,0.2,1c0.1,0.3,0.1,0.7,0.2,1
			c0.2,2,0.8,4.2,1.4,6.1c0.1,0.5,0.1,1,0.2,1.5c0,0.4,0.2,1.1,0.2,1.4c-0.1,0.1-0.1,0.2-0.2,0.3c-0.1,0.1-0.2,0.1-0.4,0.2
			c-0.2,0.1-0.4,0.1-0.6,0.1c-0.3,0.1-0.5,0.1-0.8,0.2c-0.3,0-0.6,0-0.9,0.1c-0.4,0.1-0.7,0.1-1.1,0.1c-5,0.4-10,0-15,0
			c-0.4-0.1-0.8-0.1-1.2-0.1c-0.3-0.1-0.7-0.1-1.1-0.1c-0.3-0.1-0.6-0.1-0.9-0.2c-1,0-2-0.2-2.4-1.1c-0.1-0.2-0.1-0.4-0.2-0.6
			c-2.5-7.7-4.2-15.9-5.3-24c-0.4-1.2-0.6-2.4-0.7-3.7c-0.1-0.2-0.1-0.3-0.2-0.4c0.1-0.4-0.1-0.7-0.5-0.6c-0.2,0-0.4,0-0.7-0.1
			c-1.2-0.2-2.3-0.2-3.5-0.2c-1.6-0.2-6.4-0.4-8.5,0.5c-0.2,0.1-0.3,0.1-0.4,0.3v0.1c-0.1,0.1-0.1,0.2-0.1,0.3
			c-0.1,0.2-0.1,0.3-0.1,0.5c-0.3,1.2-0.6,2.5-0.7,3.8c-0.1,0.4-0.2,0.8-0.2,1.2c-0.1,0.5-0.2,0.9-0.3,1.4c-0.5,4.4-2.4,13.7-4,18.9
			c-0.1,0.3-0.1,0.7-0.2,1c-0.1,0.3-0.1,0.6-0.2,0.8c-0.1,0.2-0.2,0.5-0.2,0.7c-0.1,0.2-0.1,0.3-0.2,0.4c0,0.1,0,0.2-0.1,0.3
			c-0.1,0.1-0.2,0.2-0.2,0.2c-0.2,0.1-0.3,0.1-0.5,0.2c-1.6,0.3-3.2,0.6-4.8,0.8c-1.4,0.1-2.7,0.2-4.1,0.3c-2.8,0.3-5.6,0.1-8.5,0.1
			c-0.4-0.1-0.8-0.1-1.2-0.1c-0.4-0.1-0.8-0.1-1.1-0.1c-0.3-0.1-0.6-0.1-0.9-0.2c-0.7-0.1-1.3-0.3-2-0.5
			C331,485,330.9,484.9,330.9,484.8z M372.8,444.7c0.1-0.1,0-0.3-0.1-0.5c-0.1-0.2-0.1-0.3-0.1-0.5c-1.1-4.6-1.9-9.3-2.5-14
			c-0.3-1.3-0.5-2.6-0.7-3.8c-0.6-2.5-0.9-5.2-1.2-7.8c-0.2-0.4-0.2-0.8-0.2-1.3c-0.6-0.1-0.8,0.3-0.6,1.3c-0.1,0.4-0.2,0.8-0.2,1.3
			c-0.3,1.8-0.6,3.6-0.9,5.4c-0.1,0.4-0.1,0.8-0.2,1.3c-0.1,0.5-0.1,0.9-0.2,1.4c-0.1,0.4-0.1,0.8-0.2,1.3c-0.1,0.5-0.1,0.9-0.2,1.3
			c-0.1,0.5-0.1,0.9-0.2,1.3c-0.1,0.4-0.1,0.8-0.2,1.3c-0.1,0.4-0.1,0.8-0.2,1.2c-0.3,1.2-0.5,2.3-0.7,3.5c-0.8,2.6-3,8,1,8
			c1.3,0,2.7-0.1,4-0.2c0.4-0.1,0.9-0.1,1.3-0.2c0.3,0,0.7,0,1.1-0.1C371.8,444.9,372.3,444.8,372.8,444.7
			C372.8,444.6,372.6,444.8,372.8,444.7z"/>
		<path fill="#020202" d="M433.1,442L433.1,442c-0.1-0.1-0.1-0.1-0.1-0.2c-0.1-0.1-0.1-0.2-0.1-0.3c-0.1-0.1-0.1-0.2-0.2-0.3
			c-0.1-0.2-0.1-0.3-0.2-0.4c-0.1-0.1-0.1-0.3-0.2-0.4c-0.1-0.2-0.2-0.3-0.3-0.5c-0.1-0.2-0.1-0.4-0.2-0.6c-0.1-0.2-0.2-0.5-0.3-0.7
			c-0.2-0.3-0.3-0.6-0.4-0.8c-0.1-0.3-0.2-0.6-0.4-0.8c-0.1-0.3-0.2-0.6-0.4-0.9c-0.2-0.3-0.3-0.7-0.4-1c-0.2-0.3-0.3-0.7-0.5-1
			c-0.9-1.9-1.9-3.7-2.7-5.7c-0.2-0.4-0.4-0.8-0.6-1.2c-4.7-9.5-9.5-19.2-13.4-29.1c-1-2.4-2.1-4.7-3-7.1c-0.2-0.3-0.3-0.6-0.4-1
			c-0.6-1.4-1.1-2.9-1.6-4.3c-0.1-0.2-0.1-0.4-0.2-0.6c-0.1-0.2-0.1-0.4-0.2-0.6c-0.1-0.2-0.1-0.4-0.1-0.5c-0.1-0.1-0.1-0.3-0.2-0.4
			c0-0.1,0-0.2,0-0.3c-0.1-0.1-0.1-0.1,0-0.3c0-0.3,0.2-0.4,0.5-0.3c0.2-0.1,0.4-0.1,0.6-0.2c0.3,0,0.5,0,0.7-0.1
			c1-0.1,2.1-0.2,3.1-0.3c5,0.2,10.3-0.6,15.3,0.3c0.3,0,0.6,0,0.9,0.1c0.2,0,0.4,0,0.7,0.1c0.2,0,0.4,0,0.6,0.1
			c0.1,0,0.2,0,0.3,0.1c0.1,0.1,0.1,0.1,0.2,0.2c0.1,0.1,0.2,0.2,0.2,0.4c0.1,0.2,0.2,0.3,0.3,0.5c0.2,0.2,0.3,0.4,0.4,0.6
			c0.2,0.3,0.3,0.6,0.4,0.8c0.2,0.3,0.3,0.6,0.5,0.9c0.2,0.3,0.4,0.7,0.6,1c0.2,0.3,0.4,0.7,0.6,1.1c3.3,7.2,6.7,14.3,10,21.5
			c0.1,0.4,0.2,0.7,0.4,1c0.1,0.3,0.2,0.6,0.4,0.9c0.1,0.2,0.2,0.5,0.3,0.7c0.1,0.2,0.1,0.4,0.2,0.6c0.2,0.2,0.3,0.5,0.3,0.8v-0.1
			c0.2-0.4,0.4-0.8,0.6-1.2c0.6-1.5,1.2-3.1,2-4.5c3-6.3,5.4-12.9,8.7-19.1c0.2-0.4,0.4-0.8,0.6-1.2c0.2-0.3,0.4-0.7,0.6-1
			c0.2-0.3,0.3-0.6,0.5-1c0.2-0.3,0.3-0.6,0.5-0.9c0.1-0.2,0.2-0.5,0.4-0.7c0.3-0.6,0.7-1.1,1.1-1.6c0.6-0.1,1.2-0.2,1.8-0.3
			c0.3,0,0.6,0,0.9,0c5.5-0.5,11.4-0.9,16.8,0.1c0.3,0,0.6,0,0.9,0.1c0.3,0,0.5,0,0.7,0.1c0.2,0,0.4,0,0.6,0.1c0.1,0,0.2,0,0.2,0.1
			c0,0.3,0,0.6-0.1,0.9c-0.1,0.2-0.1,0.3-0.1,0.4c-0.1,0.2-0.1,0.3-0.2,0.5c-0.3,0.9-0.7,1.8-1.1,2.7c-0.1,0.3-0.2,0.6-0.3,0.9
			c-0.4,1-0.8,1.9-1.2,2.9c-6,15.1-12.6,31.1-20.6,45.4c-0.1,0.3-0.2,0.6-0.4,0.9c-0.1,0.3-0.2,0.6-0.4,0.9
			c-0.1,0.2-0.2,0.5-0.3,0.8c-0.1,0.2-0.2,0.5-0.3,0.7c-0.1,0.2-0.2,0.4-0.3,0.6c-0.1,0.2-0.1,0.3-0.2,0.5c-0.1,0.2-0.1,0.3-0.2,0.4
			c-0.2,0.3-0.3,0.6-0.4,1c0,0.1,0,0.1-0.1,0.2v0.1c0,0.1,0,0.1,0.1,0.2c0,0.1,0,0.2,0,0.3c0.1,0.1,0.1,0.3,0.1,0.4
			c0.1,0.2,0.1,0.3,0.1,0.5c1.2,4.1,1.6,8.7,2.1,12.9c0.3,1.4,0.5,2.9,0.7,4.4c0.7,3.3,1.3,6.8,1.3,10.1c0.1,1.7,0.3,3.4,0.6,5.2
			c0,0.4,0,0.8,0.1,1.2c0,0.3,0,0.7,0,1c0.2,1.8,0.1,3.6-0.2,5.4c-0.1,0.3-0.3,0.5-0.5,0.7c-0.1,0.1-0.2,0.1-0.3,0.2
			c-0.2,0-0.4,0.1-0.6,0.2c-0.2,0.1-0.4,0.1-0.7,0.1c-0.3,0.1-0.5,0.1-0.8,0.2c-1.4,0.1-2.8,0.3-4.2,0.3c-4.5-0.1-9.2,0.4-13.7-0.2
			c-0.4,0-0.9,0-1.3,0c-0.4-0.1-0.9-0.1-1.3-0.1c-0.4-0.1-0.8-0.1-1.2-0.2c-0.4,0-0.8,0-1.1-0.1c-1.3-0.1-2.8-0.3-4.1-0.7
			c-0.4,0-0.7-0.2-0.8-0.5c-0.1-0.1-0.1-0.2-0.2-0.3c0-0.2,0-0.3,0-0.5c-0.2-1.8-0.2-3.6,0-5.3c0.1-0.4,0.1-0.8,0.1-1.2
			c0.1-0.5,0.1-0.9,0.1-1.3c0.1-0.5,0.1-0.9,0.2-1.4c0-9.6,1.3-20.8,3.5-30.1c0-0.2,0-0.4,0.1-0.6c0-0.2,0-0.3,0.1-0.5
			c0-0.1,0-0.3,0-0.4C433.1,442.2,433.1,442.1,433.1,442L433.1,442z"/>
		<path fill="#020202" d="M484.9,484.8L484.9,484.8c0-0.6,0.1-1,0.2-1.5c0-0.1,0-0.3,0-0.4c0.1-0.2,0.1-0.3,0.2-0.5
			c0.4-2.5,1.2-5,1.6-7.5c0.1-0.3,0.2-0.6,0.2-1c0.1-0.4,0.2-0.7,0.2-1c0.1-0.4,0.2-0.7,0.3-1c1.6-6.5,3.4-12.9,4.9-19.3
			c0.5-1.4,0.8-2.9,1.1-4.4c0.2-0.5,0.3-1,0.4-1.6c0.2-0.5,0.3-1,0.4-1.5c0.2-0.5,0.3-1,0.4-1.5c0.2-0.5,0.3-1,0.4-1.6
			c0.2-0.5,0.3-1,0.4-1.5c0.2-0.5,0.3-1,0.4-1.6c0.2-0.5,0.3-1,0.4-1.5c0.2-0.5,0.3-1,0.4-1.6c0.2-0.5,0.3-1,0.4-1.5
			c0.2-0.5,0.3-1,0.4-1.6c0.2-0.5,0.3-1,0.4-1.6c0.2-0.5,0.3-1,0.5-1.5c0.1-0.5,0.2-1,0.4-1.6c0.1-0.5,0.2-1,0.4-1.5
			c0.1-0.5,0.2-1,0.4-1.6c0.1-0.5,0.2-1,0.4-1.5c0.1-0.5,0.2-1,0.4-1.5c0.1-0.5,0.2-1,0.4-1.5c0.1-0.5,0.2-1,0.4-1.5
			c0.1-0.5,0.2-1,0.4-1.5c0.1-0.5,0.2-1,0.4-1.5c0.1-0.5,0.2-0.9,0.3-1.4c0.2-0.5,0.3-0.9,0.4-1.4c0.5-1.4,0.8-2.8,1.1-4.2
			c1.9-5.4,3.7-11.4,4.8-17.1c0.1-0.3,0.2-0.6,0.2-0.8c0.1-0.3,0.2-0.6,0.2-0.9c0.6-1.7,0.9-3.8,1.7-5.4c0.1-0.1,0.1-0.1,0.1-0.3
			c0.1-0.1,0.2-0.3,0.2-0.4c0.1-0.1,0.2-0.1,0.3-0.2c0.2-0.1,0.3-0.1,0.5-0.2c0.2-0.1,0.5-0.1,0.7-0.1c0.3-0.1,0.5-0.1,0.8-0.2
			c0.4,0,0.7,0,1.1-0.1c0.4,0,0.8,0,1.1-0.1c0.4,0,0.9,0,1.3-0.1c4.1,0.1,8.2-0.4,12.3,0.2c0.4,0,0.7,0,1.1,0
			c0.3,0.1,0.6,0.1,0.9,0.1c0.3,0.1,0.5,0.1,0.7,0.1c0.2,0.1,0.4,0.1,0.6,0.2c0.1,0,0.2,0,0.3,0.1v0.1c0.1,0,0.1,0,0.1,0.1
			c0.1,0.1,0.1,0.1,0.1,0.2c0.1,0.1,0.1,0.1,0.1,0.3c0.1,0.1,0.1,0.2,0.2,0.3c0,0.1,0,0.2,0.1,0.4c0.1,0.2,0.1,0.3,0.2,0.4
			c0.2,0.7,0.5,1.4,0.7,2.2c0.3,0.7,0.5,1.4,0.7,2.2c0.1,0.3,0.2,0.6,0.2,0.9c0.1,0.3,0.2,0.6,0.2,0.9c0.1,0.3,0.2,0.6,0.3,0.9
			c1.8,6.9,4.2,13.7,5.6,20.7c0.2,0.5,0.3,0.9,0.4,1.4c0.4,1.5,0.8,3,1.2,4.5c0.1,0.5,0.2,1,0.4,1.5c0.1,0.5,0.2,1,0.4,1.6
			c0.1,0.5,0.2,1,0.4,1.5c0.1,0.5,0.2,1,0.3,1.6c0.2,0.5,0.3,1,0.4,1.5c0.2,0.5,0.3,1,0.5,1.6c0.1,0.5,0.2,1,0.4,1.6
			c0.1,0.5,0.2,1,0.4,1.6c0.1,0.5,0.2,1,0.4,1.6c0.1,0.5,0.2,1,0.4,1.6c0.1,0.5,0.2,1,0.4,1.6c0.1,0.5,0.2,1,0.4,1.6
			c0.1,0.5,0.2,1,0.4,1.5c0.1,0.5,0.2,1,0.3,1.6c0.2,0.5,0.3,1,0.4,1.6c0.2,0.5,0.3,1,0.4,1.6c0.2,0.5,0.3,1,0.4,1.5
			c0.4,1.5,0.8,3,1.1,4.5c2,7.4,3.3,15,5.6,22.3c0.1,0.4,0.1,0.7,0.2,1c0.1,0.4,0.1,0.7,0.2,1c0.1,0.3,0.1,0.7,0.2,1
			c0.2,2,0.8,4.2,1.4,6.1c0.1,0.5,0.1,1,0.2,1.5c0,0.4,0.2,1.1,0.2,1.4c-0.1,0.1-0.1,0.2-0.2,0.3c-0.1,0.1-0.2,0.1-0.4,0.2
			c-0.2,0.1-0.4,0.1-0.6,0.1c-0.3,0.1-0.5,0.1-0.8,0.2c-0.3,0-0.6,0-0.9,0.1c-0.4,0.1-0.7,0.1-1.1,0.1c-5,0.4-10,0-15,0
			c-0.4-0.1-0.8-0.1-1.2-0.1c-0.3-0.1-0.7-0.1-1.1-0.1c-0.3-0.1-0.6-0.1-0.9-0.2c-1,0-2-0.2-2.4-1.1c-0.1-0.2-0.1-0.4-0.2-0.6
			c-2.5-7.7-4.2-15.9-5.3-24c-0.4-1.2-0.6-2.4-0.7-3.7c-0.1-0.2-0.1-0.3-0.2-0.4c0.1-0.4-0.1-0.7-0.5-0.6c-0.2,0-0.4,0-0.7-0.1
			c-1.2-0.2-2.3-0.2-3.5-0.2c-1.6-0.2-6.4-0.4-8.5,0.5c-0.2,0.1-0.3,0.1-0.4,0.3v0.1c-0.1,0.1-0.1,0.2-0.1,0.3
			c-0.1,0.2-0.1,0.3-0.1,0.5c-0.3,1.2-0.6,2.5-0.7,3.8c-0.1,0.4-0.2,0.8-0.2,1.2c-0.1,0.5-0.2,0.9-0.3,1.4c-0.5,4.5-2.4,13.7-4,18.9
			c-0.1,0.3-0.1,0.7-0.2,1c-0.1,0.3-0.1,0.6-0.2,0.8c-0.1,0.2-0.2,0.5-0.2,0.7c-0.1,0.2-0.1,0.3-0.2,0.4c0,0.1,0,0.2-0.1,0.3
			c-0.1,0.1-0.2,0.2-0.2,0.2c-0.2,0.1-0.3,0.1-0.5,0.2c-1.6,0.3-3.2,0.6-4.8,0.8c-1.4,0.1-2.7,0.2-4.1,0.3c-2.8,0.3-5.6,0.1-8.5,0.1
			c-0.4-0.1-0.8-0.1-1.2-0.1c-0.4-0.1-0.8-0.1-1.1-0.1c-0.3-0.1-0.6-0.1-0.9-0.2c-0.7-0.1-1.3-0.3-2-0.5
			C485.1,485,485,484.9,484.9,484.8z M526.8,444.7c0.1-0.1,0-0.3-0.1-0.5c-0.1-0.2-0.1-0.3-0.1-0.5c-1.1-4.6-1.9-9.3-2.5-14
			c-0.3-1.3-0.5-2.6-0.7-3.8c-0.6-2.5-0.9-5.2-1.2-7.8c-0.2-0.4-0.2-0.8-0.2-1.3c-0.6-0.1-0.8,0.3-0.6,1.3c-0.1,0.4-0.2,0.8-0.2,1.3
			c-0.3,1.8-0.6,3.6-0.9,5.4c-0.1,0.4-0.1,0.8-0.2,1.3c-0.1,0.5-0.1,0.9-0.2,1.4c-0.1,0.4-0.1,0.8-0.2,1.3c-0.1,0.5-0.1,0.9-0.2,1.3
			c-0.1,0.5-0.1,0.9-0.2,1.3c-0.1,0.4-0.1,0.8-0.2,1.3c-0.1,0.4-0.1,0.8-0.2,1.2c-0.3,1.2-0.5,2.3-0.7,3.5c-0.8,2.6-3,8,1,8
			c1.3,0,2.7-0.1,4-0.2c0.4-0.1,0.9-0.1,1.3-0.2c0.3,0,0.7,0,1.1-0.1C525.9,444.9,526.4,444.8,526.8,444.7
			C526.9,444.6,526.7,444.8,526.8,444.7z"/>
		<path fill="#020202" d="M562.8,384.2c0.2-0.1,0.3-0.1,0.5-0.2c1.6-0.4,3.2-0.6,4.8-0.7c0.4-0.1,0.9-0.1,1.3-0.1
			c3.5-0.3,7.5-0.4,11.1,0.1c0.4,0,0.8,0,1.2,0.1c0.9,0.1,1.8,0.2,2.7,0.3c0.2,0.1,0.4,0.1,0.6,0.2c0.1,0.1,0.2,0.1,0.4,0.3
			c0.1,0,0.1,0.1,0.1,0.2c0.1,0.1,0.1,0.1,0.2,0.3c0.1,0.2,0.2,0.3,0.2,0.4c0.1,0.2,0.1,0.4,0.2,0.6c0.3,1.6,0.8,3.1,1,4.6
			c0.1,0.4,0.2,0.7,0.2,1.1c0.3,1.3,0.5,2.7,0.7,4c0.1,0.5,0.1,1,0.2,1.5c0.1,0.5,0.1,1,0.2,1.5c0.1,0.5,0.2,1,0.2,1.5
			c0.1,0.5,0.2,1,0.2,1.6c0.1,0.5,0.2,1.1,0.2,1.7c0.1,0.5,0.2,1,0.2,1.6c0.2,1.6,0.5,3.2,0.7,4.8c0.1,0.5,0.1,1.1,0.2,1.7
			c1,5.5,0.6,11.9,2.3,17.2c0,0.1,0,0.2,0,0.3c0.1,0.1,0.1,0.1,0.1,0.2v0.1v-0.1c0-0.1,0-0.1,0.1-0.2c0-0.1,0-0.2,0.1-0.3
			c0.1-0.2,0.1-0.3,0.2-0.4c0.1-0.2,0.1-0.4,0.2-0.6c0.1-0.2,0.1-0.5,0.2-0.7c0.1-0.3,0.1-0.6,0.2-0.8c0.1-0.4,0.2-0.7,0.2-1
			c0.5-1.5,1-2.9,1.4-4.5c0.2-0.4,0.3-0.8,0.4-1.2c0.2-0.5,0.3-0.9,0.5-1.3c2.1-8.1,5-16.1,8.1-23.9c0.1-0.3,0.2-0.7,0.4-1
			c0.4-0.9,0.8-1.7,1.1-2.6c0.1-0.2,0.2-0.4,0.3-0.6c0.1-0.2,0.2-0.4,0.3-0.6c0.1-0.1,0.2-0.3,0.2-0.4c0.3-0.5,0.5-0.6,0.8-0.4
			c0.1,0.1,0.2,0.1,0.2,0.3c0.1,0.1,0.2,0.2,0.2,0.3c0.1,0.2,0.2,0.4,0.2,0.6c0.6,1,1,2.1,1.4,3.2c0.2,0.4,0.3,0.7,0.4,1
			c0.2,0.4,0.3,0.7,0.4,1.1c0.2,0.4,0.3,0.8,0.4,1.2c3,6.5,4.2,13.9,6.6,20.6c0.1,0.5,0.2,0.9,0.4,1.4c0.1,0.5,0.2,0.9,0.4,1.4
			c0.1,0.5,0.2,0.9,0.4,1.4c0.1,0.4,0.2,0.8,0.3,1.2c0.4,1.4,0.8,2.9,1.3,4.3c0.1,0.3,0.1,0.6,0.2,0.9c0.3,0.6,0.4,1.2,0.5,1.8
			c0.1,0.1,0.1,0.2,0.2,0.3c0.1,0.3,0.1,0.4,0.1,0.2c0.1-0.3,0.1-0.7,0.1-1c0.1-0.2,0.1-0.4,0.1-0.6c0.1-0.2,0.1-0.5,0.2-0.7
			c0-0.3,0-0.6,0.1-0.8c0.1-0.4,0.1-0.7,0.2-1c0-4.4,1.3-9,1.8-13.4c0.1-0.5,0.2-1,0.2-1.6c0.1-0.5,0.2-1,0.2-1.6
			c0.2-1.6,0.5-3.2,0.7-4.8c0.1-0.5,0.1-1,0.2-1.6c0.1-0.5,0.1-1,0.2-1.6c0.1-0.5,0.1-1,0.2-1.6c0.1-0.5,0.1-1,0.2-1.5
			c0.1-0.5,0.1-1,0.2-1.5c0.1-0.5,0.1-1,0.2-1.5c0.1-0.5,0.1-0.9,0.2-1.3c0.1-0.5,0.1-0.9,0.2-1.3c0.3-1.2,0.5-2.3,0.7-3.5
			c0.5-1.5,0.7-3,1.1-4.5c0-0.1,0-0.2,0.1-0.3c0.1-0.1,0.1-0.2,0.2-0.2c0.1-0.1,0.2-0.2,0.3-0.3c0.2-0.1,0.4-0.1,0.6-0.2
			c2.2-0.5,4.4-0.8,6.7-0.8c0.5-0.1,1-0.1,1.5-0.1c3.5-0.2,7.1-0.4,10.7,0.1c0.7,0,1.4,0.2,2,0.4c0.1,0,0.1,0.1,0.2,0.2v0.1
			c0,0.1,0,0.1,0.1,0.1c0,4.1-0.4,8.2-0.4,12.2c-0.1,0.4-0.1,0.8-0.1,1.1c-0.1,1.2-0.2,2.4-0.2,3.6c0,0.4,0,0.8-0.1,1.2
			c0,0.5,0,0.9-0.1,1.3c0,0.4,0,0.8-0.1,1.3c0,0.5,0,0.9-0.1,1.3c0,0.5,0,0.9-0.1,1.4c0,0.5,0,0.9-0.1,1.4c-0.1,1.5-0.2,2.9-0.2,4.4
			c-0.1,0.5-0.1,1-0.2,1.5c0,0.5,0,1-0.1,1.5c0,1.6-0.1,3.1-0.3,4.6c0,1.6-0.1,3.2-0.3,4.7c-0.2,3.7-0.4,7.5-0.8,11.2
			c-0.2,9.4-1.1,19.2-2.3,28.4c-0.1,2-0.3,4.1-0.6,6.1c-0.1,1.1-0.2,2.2-0.2,3.3c-0.1,0.3-0.1,0.6-0.2,1c0,0.3,0,0.6-0.1,1
			c-0.1,0.9-0.2,1.8-0.2,2.6c-0.1,0.2-0.1,0.5-0.1,0.8c-0.1,0.2-0.1,0.5-0.1,0.7c-0.1,0.2-0.1,0.4-0.1,0.6c-0.1,0.2-0.1,0.5-0.1,0.7
			c-0.1,0.2-0.1,0.3-0.1,0.5c-0.1,0.2-0.1,0.3-0.1,0.5c-0.1,0.1-0.1,0.3-0.1,0.4c-0.1,0.3-0.2,0.7-0.2,1c-0.1,0.1-0.2,0.3-0.2,0.4
			c-0.1,0.1-0.2,0.1-0.3,0.1c-0.1,0.1-0.2,0.1-0.4,0.2c-0.2,0.1-0.4,0.1-0.7,0.1c-0.3,0.1-0.5,0.1-0.7,0.1c-0.3,0.1-0.7,0.1-1,0.1
			c-1.1,0.1-2.3,0.2-3.4,0.2c-6.3,0.8-14.4,0.1-21.2-0.1c-0.5-0.8-0.8-1.7-1-2.5c-0.1-0.3-0.2-0.6-0.2-0.9c-0.1-0.3-0.2-0.7-0.3-1
			c-1.6-7.3-2.8-14.6-4.3-22c-0.1-0.5-0.1-1-0.2-1.5c-0.1-0.5-0.1-0.9-0.2-1.4c-0.1-0.5-0.1-0.9-0.2-1.4c-0.1-0.4-0.1-0.8-0.2-1.3
			c-0.2-1.7-0.5-3.5-0.8-5.2c-0.1-0.2-0.1-0.4-0.2-0.6c0-0.2,0-0.4-0.1-0.6c0-0.1,0-0.2-0.1-0.4c0-0.1,0-0.2,0-0.3v-0.1v0.1
			c0,0.1,0,0.1-0.1,0.3c0,0.1,0,0.3-0.1,0.4c0,0.2,0,0.3-0.1,0.5c-0.1,0.2-0.1,0.5-0.1,0.8c-0.3,2.2-0.6,4.4-1.1,6.6
			c-0.3,1.5-0.5,3-0.7,4.5c-0.2,1.6-0.5,3.2-0.8,4.8c-0.2,1.6-0.5,3.2-0.8,4.8c-0.2,1.6-0.4,3.1-0.8,4.6c-0.2,1.4-0.5,2.8-0.7,4.2
			c-0.1,0.4-0.2,0.8-0.2,1.2c-0.3,1-0.5,2-0.7,3.1c-0.1,0.8-0.4,1.6-0.7,2.4c-0.2,0.2-0.4,0.4-0.7,0.4c-0.2,0-0.4,0-0.6,0.1
			c-0.2,0.1-0.5,0.1-0.7,0.1c-0.3,0.1-0.5,0.1-0.8,0.2c-0.3,0-0.7,0-1,0.1c-0.4,0-0.7,0-1.1,0.1c-0.4,0-0.8,0-1.2,0.1
			c-0.4,0-0.8,0-1.2,0.1c-0.4,0-0.9,0-1.3,0.1c-0.5,0-0.9,0-1.4,0c-0.5,0.1-1,0.1-1.5,0.1c-4.8,0.6-9.6,0-14.4,0
			c-0.3-0.1-0.6-0.1-0.9-0.1c-0.2-0.1-0.5-0.1-0.7-0.1c-0.2-0.1-0.4-0.1-0.6-0.2c-0.1,0-0.2,0-0.4-0.1c-0.1-0.1-0.2-0.1-0.2-0.2
			c-0.1,0-0.1,0-0.1-0.1v-0.1c-0.1-0.1-0.1-0.2-0.1-0.3c-0.1-0.1-0.1-0.1-0.1-0.3c-0.1-0.4-0.2-0.8-0.2-1.2c0-0.2,0-0.3-0.1-0.5
			c0-0.2,0-0.4-0.1-0.5c-0.1-0.2-0.1-0.4-0.1-0.6c-0.1-0.2-0.1-0.5-0.1-0.7c-0.1-0.2-0.1-0.5-0.2-0.8c0-0.8-0.2-1.6-0.3-2.4
			c-2-23.5-4.1-47.1-6.8-70.5c-0.1-1.3-0.2-2.7-0.2-4c-0.1-0.4-0.1-0.8-0.2-1.3c0-0.4,0-0.8-0.1-1.2c0-0.4,0-0.8-0.1-1.2
			c0-0.4,0-0.7-0.1-1.1c0-0.4,0-0.8-0.1-1.1c0-0.4,0-0.8-0.1-1.1c0-0.4,0-0.7-0.1-1c0-0.4,0-0.7,0-1c-0.1-0.9-0.2-1.9-0.2-2.8
			C562.4,389.9,561.6,384.8,562.8,384.2C562.9,384.1,562.7,384.2,562.8,384.2C562.9,384.1,562.7,384.2,562.8,384.2z"/>
		<path fill="#020202" d="M654,484.8L654,484.8c0-0.6,0.1-1,0.2-1.5c0-0.1,0-0.3,0-0.4c0.1-0.2,0.1-0.3,0.2-0.5
			c0.4-2.5,1.2-5,1.6-7.5c0.1-0.3,0.2-0.6,0.2-1c0.1-0.4,0.2-0.7,0.2-1c0.1-0.4,0.2-0.7,0.3-1c1.6-6.5,3.4-12.9,4.9-19.3
			c0.5-1.4,0.8-2.9,1.1-4.4c0.2-0.5,0.3-1,0.4-1.6c0.2-0.5,0.3-1,0.4-1.5c0.2-0.5,0.3-1,0.4-1.5c0.2-0.5,0.3-1,0.4-1.6
			c0.2-0.5,0.3-1,0.4-1.5c0.2-0.5,0.3-1,0.4-1.6c0.2-0.5,0.3-1,0.4-1.5c0.2-0.5,0.3-1,0.4-1.6c0.2-0.5,0.3-1,0.4-1.5
			c0.2-0.5,0.3-1,0.4-1.6c0.2-0.5,0.3-1,0.4-1.6c0.2-0.5,0.3-1,0.5-1.5c0.1-0.5,0.2-1,0.4-1.6c0.1-0.5,0.2-1,0.4-1.5
			c0.1-0.5,0.2-1,0.4-1.6c0.1-0.5,0.2-1,0.4-1.5c0.1-0.5,0.2-1,0.4-1.5c0.1-0.5,0.2-1,0.4-1.5c0.1-0.5,0.2-1,0.4-1.5
			c0.1-0.5,0.2-1,0.4-1.5c0.1-0.5,0.2-1,0.4-1.5c0.1-0.5,0.2-0.9,0.3-1.4c0.2-0.5,0.3-0.9,0.4-1.4c0.5-1.4,0.8-2.8,1.1-4.2
			c1.9-5.4,3.7-11.4,4.8-17.1c0.1-0.3,0.2-0.6,0.2-0.8c0.1-0.3,0.2-0.6,0.2-0.9c0.6-1.7,0.9-3.8,1.7-5.4c0.1-0.1,0.1-0.1,0.1-0.3
			c0.1-0.1,0.2-0.3,0.2-0.4c0.1-0.1,0.2-0.1,0.3-0.2c0.2-0.1,0.3-0.1,0.5-0.2c0.2-0.1,0.5-0.1,0.7-0.1c0.3-0.1,0.5-0.1,0.8-0.2
			c0.4,0,0.7,0,1.1-0.1c0.4,0,0.8,0,1.1-0.1c0.4,0,0.9,0,1.3-0.1c4.1,0.1,8.2-0.4,12.3,0.2c0.4,0,0.7,0,1.1,0
			c0.3,0.1,0.6,0.1,0.9,0.1c0.3,0.1,0.5,0.1,0.7,0.1c0.2,0.1,0.4,0.1,0.6,0.2c0.1,0,0.2,0,0.3,0.1v0.1c0.1,0,0.1,0,0.1,0.1
			c0.1,0.1,0.1,0.1,0.1,0.2c0.1,0.1,0.1,0.1,0.1,0.3c0.1,0.1,0.1,0.2,0.2,0.3c0,0.1,0,0.2,0.1,0.4c0.1,0.2,0.1,0.3,0.2,0.4
			c0.2,0.7,0.5,1.4,0.7,2.2c0.3,0.7,0.5,1.4,0.7,2.2c0.1,0.3,0.2,0.6,0.2,0.9c0.1,0.3,0.2,0.6,0.2,0.9c0.1,0.3,0.2,0.6,0.3,0.9
			c1.8,6.9,4.2,13.7,5.6,20.7c0.2,0.5,0.3,0.9,0.4,1.4c0.4,1.5,0.8,3,1.2,4.5c0.1,0.5,0.2,1,0.4,1.5c0.1,0.5,0.2,1,0.4,1.6
			c0.1,0.5,0.2,1,0.4,1.5c0.1,0.5,0.2,1,0.3,1.6c0.2,0.5,0.3,1,0.4,1.5c0.2,0.5,0.3,1,0.5,1.6c0.1,0.5,0.2,1,0.4,1.6
			c0.1,0.5,0.2,1,0.4,1.6c0.1,0.5,0.2,1,0.4,1.6c0.1,0.5,0.2,1,0.4,1.6c0.1,0.5,0.2,1,0.4,1.6c0.1,0.5,0.2,1,0.4,1.6
			c0.1,0.5,0.2,1,0.4,1.5c0.1,0.5,0.2,1,0.3,1.6c0.2,0.5,0.3,1,0.4,1.6c0.2,0.5,0.3,1,0.4,1.6c0.2,0.5,0.3,1,0.4,1.5
			c0.4,1.5,0.8,3,1.1,4.5c2,7.4,3.3,15,5.6,22.3c0.1,0.4,0.1,0.7,0.2,1c0.1,0.4,0.1,0.7,0.2,1c0.1,0.3,0.1,0.7,0.2,1
			c0.2,2,0.8,4.2,1.4,6.1c0.1,0.5,0.1,1,0.2,1.5c0,0.4,0.2,1.1,0.2,1.4c-0.1,0.1-0.1,0.2-0.2,0.3c-0.1,0.1-0.2,0.1-0.4,0.2
			c-0.2,0.1-0.4,0.1-0.6,0.1c-0.3,0.1-0.5,0.1-0.8,0.2c-0.3,0-0.6,0-0.9,0.1c-0.4,0.1-0.7,0.1-1.1,0.1c-5,0.4-10,0-15,0
			c-0.4-0.1-0.8-0.1-1.2-0.1c-0.3-0.1-0.7-0.1-1.1-0.1c-0.3-0.1-0.6-0.1-0.9-0.2c-1,0-2-0.2-2.4-1.1c-0.1-0.2-0.1-0.4-0.2-0.6
			c-2.5-7.7-4.2-15.9-5.3-24c-0.4-1.2-0.6-2.4-0.7-3.7c-0.1-0.2-0.1-0.3-0.2-0.4c0.1-0.4-0.1-0.7-0.5-0.6c-0.2,0-0.4,0-0.7-0.1
			c-1.2-0.2-2.3-0.2-3.5-0.2c-1.6-0.2-6.4-0.4-8.5,0.5c-0.2,0.1-0.3,0.1-0.4,0.3v0.1c-0.1,0.1-0.1,0.2-0.1,0.3
			c-0.1,0.2-0.1,0.3-0.1,0.5c-0.3,1.2-0.6,2.5-0.7,3.8c-0.1,0.4-0.2,0.8-0.2,1.2c-0.1,0.5-0.2,0.9-0.3,1.4c-0.5,4.5-2.4,13.7-4,18.9
			c-0.1,0.3-0.1,0.7-0.2,1c-0.1,0.3-0.1,0.6-0.2,0.8c-0.1,0.2-0.2,0.5-0.2,0.7c-0.1,0.2-0.1,0.3-0.2,0.4c0,0.1,0,0.2-0.1,0.3
			c-0.1,0.1-0.2,0.2-0.2,0.2c-0.2,0.1-0.3,0.1-0.5,0.2c-1.6,0.3-3.2,0.6-4.8,0.8c-1.4,0.1-2.7,0.2-4.1,0.3c-2.8,0.3-5.6,0.1-8.5,0.1
			c-0.4-0.1-0.8-0.1-1.2-0.1c-0.4-0.1-0.8-0.1-1.1-0.1c-0.3-0.1-0.6-0.1-0.9-0.2c-0.7-0.1-1.3-0.3-2-0.5
			C654.1,485,654,484.9,654,484.8z M695.9,444.7c0.1-0.1,0-0.3-0.1-0.5c-0.1-0.2-0.1-0.3-0.1-0.5c-1.1-4.6-1.9-9.3-2.5-14
			c-0.3-1.3-0.5-2.6-0.7-3.8c-0.6-2.5-0.9-5.2-1.2-7.8c-0.2-0.4-0.2-0.8-0.2-1.3c-0.6-0.1-0.8,0.3-0.6,1.3c-0.1,0.4-0.2,0.8-0.2,1.3
			c-0.3,1.8-0.6,3.6-0.9,5.4c-0.1,0.4-0.1,0.8-0.2,1.3c-0.1,0.5-0.1,0.9-0.2,1.4c-0.1,0.4-0.1,0.8-0.2,1.3c-0.1,0.5-0.1,0.9-0.2,1.3
			c-0.1,0.5-0.1,0.9-0.2,1.3c-0.1,0.4-0.1,0.8-0.2,1.3c-0.1,0.4-0.1,0.8-0.2,1.2c-0.3,1.2-0.5,2.3-0.7,3.5c-0.8,2.6-3,8,1,8
			c1.3,0,2.7-0.1,4-0.2c0.4-0.1,0.9-0.1,1.3-0.2c0.3,0,0.7,0,1.1-0.1C694.9,444.9,695.4,444.8,695.9,444.7
			C695.9,444.6,695.8,444.8,695.9,444.7z"/>
		<path fill="#020202" d="M781.1,441c0.1,0.3,0.4,0.6,1.1,1c5.6,3.5,9.9,13,12.8,18.5c2.4,4.6,3.6,9.4,5.4,14.3
			c0.1,0.3,0.1,0.6,0.2,1c0.4,1.3,0.6,2.6,0.7,3.9c0.1,1,0.4,2.4,0,3.3c0,0.1,0,0.1-0.1,0.2c0,0.1,0,0.1-0.1,0.2
			c-3,1.6-6.9,1.4-10.2,1.8c-0.4,0-0.9,0-1.3,0.1c-0.4,0-0.9,0-1.3,0c-4.5,0.4-11.6,1-15.6-1.2c-0.2-0.1-0.4-0.1-0.6-0.3
			c-2.2-2.3-2-7.2-2.4-10.1c-0.1-0.3-0.2-0.7-0.2-1.1c-0.1-0.3-0.2-0.7-0.3-1.1c-0.3-1.2-0.6-2.5-0.9-3.7c-0.2-0.4-0.3-0.8-0.4-1.2
			c-0.2-0.4-0.3-0.8-0.4-1.3c-2.1-5.2-4.4-10.1-7.7-14.3c0,0.1,0,0.2,0,0.3c0.1,0.6,0.2,1.2,0.2,1.8c0.1,0.3,0.1,0.6,0.1,1
			c0.1,0.3,0.1,0.6,0.1,1c0.1,0.4,0.1,0.8,0.2,1.2c0,0.4,0,0.8,0.1,1.2c0,0.4,0,0.8,0.1,1.3c0.1,1.5,0.2,2.9,0.2,4.4
			c0.1,0.5,0.1,1,0.1,1.6c0.1,0.5,0.1,1,0.1,1.6c0.2,3.9,0.1,7.8,0.1,11.7c-0.1,0.4-0.1,0.8-0.1,1.1c-0.1,1.2-0.3,2.4-0.7,3.5
			c-0.1,0.2-0.2,0.3-0.2,0.5c-0.1,0.1-0.2,0.2-0.3,0.4c-0.2,0.1-0.3,0.2-0.5,0.3c-0.2,0.1-0.4,0.2-0.7,0.3c-0.2,0.1-0.5,0.2-0.7,0.3
			c-2.1,0.4-4.3,0.8-6.4,1c-0.4,0-0.8,0-1.2,0.1c-0.5,0-0.9,0-1.4,0c-3.1,0.2-6.2,0.2-9.3-0.1c-0.4,0-0.8,0-1.2-0.1
			c-0.4,0-0.8,0-1.1-0.1c-1.8-0.1-3.7-0.5-5.3-1.2c0-0.1,0-0.1-0.1-0.2c0-0.1,0-0.1-0.1-0.2c0-0.1,0-0.2-0.1-0.3
			c0-0.1,0-0.2-0.1-0.3c0-0.1,0-0.3-0.1-0.4c0-0.1,0-0.3,0-0.4c-0.1-0.2-0.1-0.3-0.1-0.5c-0.1-0.6-0.2-1.3-0.2-1.9
			c0-0.2,0-0.5,0-0.8c-3.8-24.9,0.2-51.1,0.2-76.4c0.2-1.9,0.2-3.9,0.2-5.8c0.1-1,0.2-2,0.2-3c0.1-0.3,0.1-0.6,0.1-0.9
			c0.1-0.8,0.2-1.6,0.2-2.4c0.1-0.7,0.2-1.3,0.2-2c0-0.2,0-0.3,0-0.5c0.1-0.2,0.1-0.3,0.1-0.4c0.1-0.4,0.2-0.8,0.2-1.1
			c0-0.1,0-0.1,0-0.2l0.1-0.2c0.1-0.1,0.1-0.1,0.1-0.2c0.1-0.1,0.1-0.1,0.2-0.2c0.1-0.1,0.2-0.2,0.2-0.3c1.2-0.7,3.4-1.5,5-1.5
			c0.3-0.1,0.5-0.1,0.8-0.1c0.3-0.1,0.6-0.1,0.9-0.1c0.3-0.1,0.7-0.1,1-0.1c13-1.5,30.9-1.8,42.5,5.7c0.3,0.2,0.7,0.4,1,0.6
			c1.8,1.2,3.4,2.7,4.9,4.3c0.2,0.2,0.5,0.5,0.7,0.8c5.1,6.9,6.5,13.5,7.4,21.7c0,4.4-0.5,7-1.6,10.8c-0.2,0.3-0.3,0.7-0.5,1
			c-0.1,0.4-0.2,0.7-0.4,1c-0.2,0.3-0.4,0.6-0.6,1c-0.2,0.3-0.4,0.6-0.6,0.9c-0.7,1.2-1.6,2.3-2.6,3.3c-1,1-2,2-3.2,2.8
			c-0.3,0.2-0.6,0.4-0.9,0.6c-0.3,0.2-0.6,0.4-0.9,0.6c-1,0.5-2,1-2.9,1.6c-0.3,0.3-0.7,0.4-1,0.4
			C781.5,440.6,781.1,440.8,781.1,441C781.2,441.3,781.1,440.8,781.1,441C781.2,441.3,781.1,440.8,781.1,441z M770.9,416.3
			c0-0.6,0-1.3-0.1-1.9c-0.1-0.6-0.2-1.1-0.4-1.7c-0.1-0.5-0.3-1-0.5-1.6c-0.2-0.4-0.5-0.8-0.7-1.3c-0.2-0.4-0.5-0.8-0.8-1.1
			c-0.3-0.3-0.6-0.7-0.9-1c-0.3-0.3-0.7-0.6-1.1-0.9c-0.3-0.3-0.7-0.6-1.1-0.8c-0.4-0.2-0.8-0.4-1.1-0.6c-0.4-0.2-0.8-0.4-1.1-0.5
			c-1.1-0.4-2.1-0.7-3.3-1c-0.3-0.1-0.7-0.1-1-0.1c-0.3-0.1-0.5-0.1-0.8-0.1c-0.2-0.1-0.5-0.1-0.7-0.1c-0.2,0.1-0.4,0.1-0.6,0
			c-0.2,0-0.3,0-0.3,0.1c-0.1,0.1-0.1,0.3-0.1,0.5c0,0.2,0,0.4,0,0.6c-0.1,0.2-0.1,0.4,0,0.6c0,2.2,0.2,4.4,0.5,6.6
			c0,1.2,0.1,2.5,0.3,3.7c0,1.4,0.1,2.8,0.3,4.2c0.1,1.5,0.2,3,0.2,4.5c0.1,0.5,0.1,1,0.1,1.6c-0.1,0.6-0.1,1.1,0,1.6
			c0,0.1,0.2,0.1,0.5,0.1c0.2,0,0.4,0,0.7,0.1c0.9,0,1.8-0.2,2.6-0.4c4.1-1,7.6-3.7,9-7.8C770.8,418.4,770.9,417.3,770.9,416.3
			C770.9,415.6,770.9,417.3,770.9,416.3z"/>
		<path fill="#020202" d="M804,484.8L804,484.8c0-0.6,0.1-1,0.2-1.5c0-0.1,0-0.3,0-0.4c0.1-0.2,0.1-0.3,0.2-0.5
			c0.4-2.5,1.2-5,1.6-7.5c0.1-0.3,0.2-0.6,0.2-1c0.1-0.4,0.2-0.7,0.2-1c0.1-0.4,0.2-0.7,0.3-1c1.6-6.5,3.4-12.9,4.9-19.3
			c0.5-1.4,0.8-2.9,1.1-4.4c0.2-0.5,0.3-1,0.4-1.6c0.2-0.5,0.3-1,0.4-1.5c0.2-0.5,0.3-1,0.4-1.5c0.2-0.5,0.3-1,0.4-1.6
			c0.2-0.5,0.3-1,0.4-1.5c0.2-0.5,0.3-1,0.4-1.6c0.2-0.5,0.3-1,0.4-1.5c0.2-0.5,0.3-1,0.4-1.6c0.2-0.5,0.3-1,0.4-1.5
			c0.2-0.5,0.3-1,0.4-1.6c0.2-0.5,0.3-1,0.4-1.6c0.2-0.5,0.3-1,0.5-1.5c0.1-0.5,0.2-1,0.4-1.6c0.1-0.5,0.2-1,0.4-1.5
			c0.1-0.5,0.2-1,0.4-1.6c0.1-0.5,0.2-1,0.4-1.5c0.1-0.5,0.2-1,0.4-1.5c0.1-0.5,0.2-1,0.4-1.5c0.1-0.5,0.2-1,0.4-1.5
			c0.1-0.5,0.2-1,0.4-1.5c0.1-0.5,0.2-1,0.4-1.5c0.1-0.5,0.2-0.9,0.3-1.4c0.2-0.5,0.3-0.9,0.4-1.4c0.5-1.4,0.8-2.8,1.1-4.2
			c1.9-5.4,3.7-11.4,4.8-17.1c0.1-0.3,0.2-0.6,0.2-0.8c0.1-0.3,0.2-0.6,0.2-0.9c0.6-1.7,0.9-3.8,1.7-5.4c0.1-0.1,0.1-0.1,0.1-0.3
			c0.1-0.1,0.2-0.3,0.2-0.4c0.1-0.1,0.2-0.1,0.3-0.2c0.2-0.1,0.3-0.1,0.5-0.2c0.2-0.1,0.5-0.1,0.7-0.1c0.3-0.1,0.5-0.1,0.8-0.2
			c0.4,0,0.7,0,1.1-0.1c0.4,0,0.8,0,1.1-0.1c0.4,0,0.9,0,1.3-0.1c4.1,0.1,8.2-0.4,12.3,0.2c0.4,0,0.7,0,1.1,0
			c0.3,0.1,0.6,0.1,0.9,0.1c0.3,0.1,0.5,0.1,0.7,0.1c0.2,0.1,0.4,0.1,0.6,0.2c0.1,0,0.2,0,0.3,0.1v0.1c0.1,0,0.1,0,0.1,0.1
			c0.1,0.1,0.1,0.1,0.1,0.2c0.1,0.1,0.1,0.1,0.1,0.3c0.1,0.1,0.1,0.2,0.2,0.3c0,0.1,0,0.2,0.1,0.4c0.1,0.2,0.1,0.3,0.2,0.4
			c0.2,0.7,0.5,1.4,0.7,2.2c0.3,0.7,0.5,1.4,0.7,2.2c0.1,0.3,0.2,0.6,0.2,0.9c0.1,0.3,0.2,0.6,0.2,0.9c0.1,0.3,0.2,0.6,0.3,0.9
			c1.8,6.9,4.2,13.7,5.6,20.7c0.2,0.5,0.3,0.9,0.4,1.4c0.4,1.5,0.8,3,1.2,4.5c0.1,0.5,0.2,1,0.4,1.5c0.1,0.5,0.2,1,0.4,1.6
			c0.1,0.5,0.2,1,0.4,1.5c0.1,0.5,0.2,1,0.3,1.6c0.2,0.5,0.3,1,0.4,1.5c0.2,0.5,0.3,1,0.5,1.6c0.1,0.5,0.2,1,0.4,1.6
			c0.1,0.5,0.2,1,0.4,1.6c0.1,0.5,0.2,1,0.4,1.6c0.1,0.5,0.2,1,0.4,1.6c0.1,0.5,0.2,1,0.4,1.6c0.1,0.5,0.2,1,0.4,1.6
			c0.1,0.5,0.2,1,0.4,1.5c0.1,0.5,0.2,1,0.3,1.6c0.2,0.5,0.3,1,0.4,1.6c0.2,0.5,0.3,1,0.4,1.6c0.2,0.5,0.3,1,0.4,1.5
			c0.4,1.5,0.8,3,1.1,4.5c2,7.4,3.3,15,5.6,22.3c0.1,0.4,0.1,0.7,0.2,1c0.1,0.4,0.1,0.7,0.2,1c0.1,0.3,0.1,0.7,0.2,1
			c0.2,2,0.8,4.2,1.4,6.1c0.1,0.5,0.1,1,0.2,1.5c0,0.4,0.2,1.1,0.2,1.4c-0.1,0.1-0.1,0.2-0.2,0.3c-0.1,0.1-0.2,0.1-0.4,0.2
			c-0.2,0.1-0.4,0.1-0.6,0.1c-0.3,0.1-0.5,0.1-0.8,0.2c-0.3,0-0.6,0-0.9,0.1c-0.4,0.1-0.7,0.1-1.1,0.1c-5,0.4-10,0-15,0
			c-0.4-0.1-0.8-0.1-1.2-0.1c-0.3-0.1-0.7-0.1-1.1-0.1c-0.3-0.1-0.6-0.1-0.9-0.2c-1,0-2-0.2-2.4-1.1c-0.1-0.2-0.1-0.4-0.2-0.6
			c-2.5-7.7-4.2-15.9-5.3-24c-0.4-1.2-0.6-2.4-0.7-3.7c-0.1-0.2-0.1-0.3-0.2-0.4c0.1-0.4-0.1-0.7-0.5-0.6c-0.2,0-0.4,0-0.7-0.1
			c-1.2-0.2-2.3-0.2-3.5-0.2c-1.6-0.2-6.4-0.4-8.5,0.5c-0.2,0.1-0.3,0.1-0.4,0.3v0.1c-0.1,0.1-0.1,0.2-0.1,0.3
			c-0.1,0.2-0.1,0.3-0.1,0.5c-0.3,1.2-0.6,2.5-0.7,3.8c-0.1,0.4-0.2,0.8-0.2,1.2c-0.1,0.5-0.2,0.9-0.3,1.4c-0.5,4.5-2.4,13.7-4,18.9
			c-0.1,0.3-0.1,0.7-0.2,1c-0.1,0.3-0.1,0.6-0.2,0.8c-0.1,0.2-0.2,0.5-0.2,0.7c-0.1,0.2-0.1,0.3-0.2,0.4c0,0.1,0,0.2-0.1,0.3
			c-0.1,0.1-0.2,0.2-0.2,0.2c-0.2,0.1-0.3,0.1-0.5,0.2c-1.6,0.3-3.2,0.6-4.8,0.8c-1.4,0.1-2.7,0.2-4.1,0.3c-2.8,0.3-5.6,0.1-8.5,0.1
			c-0.4-0.1-0.8-0.1-1.2-0.1c-0.4-0.1-0.8-0.1-1.1-0.1c-0.3-0.1-0.6-0.1-0.9-0.2c-0.7-0.1-1.3-0.3-2-0.5
			C804.1,485,804,484.9,804,484.8z M845.9,444.7c0.1-0.1,0-0.3-0.1-0.5c-0.1-0.2-0.1-0.3-0.1-0.5c-1.1-4.6-1.9-9.3-2.5-14
			c-0.3-1.3-0.5-2.6-0.7-3.8c-0.6-2.5-0.9-5.2-1.2-7.8c-0.2-0.4-0.2-0.8-0.2-1.3c-0.6-0.1-0.8,0.3-0.6,1.3c-0.1,0.4-0.2,0.8-0.2,1.3
			c-0.3,1.8-0.6,3.6-0.9,5.4c-0.1,0.4-0.1,0.8-0.2,1.3c-0.1,0.5-0.1,0.9-0.2,1.4c-0.1,0.4-0.1,0.8-0.2,1.3c-0.1,0.5-0.1,0.9-0.2,1.3
			c-0.1,0.5-0.1,0.9-0.2,1.3c-0.1,0.4-0.1,0.8-0.2,1.3c-0.1,0.4-0.1,0.8-0.2,1.2c-0.3,1.2-0.5,2.3-0.7,3.5c-0.8,2.6-3,8,1,8
			c1.3,0,2.7-0.1,4-0.2c0.4-0.1,0.9-0.1,1.3-0.2c0.3,0,0.7,0,1.1-0.1C844.9,444.9,845.4,444.8,845.9,444.7
			C845.9,444.6,845.8,444.8,845.9,444.7z"/>
	</g>
</g>
</svg>
