<?xml version="1.0" encoding="utf-8"?>
<!-- Generator: Adobe Illustrator 18.0.0, SVG Export Plug-In . SVG Version: 6.00 Build 0)  -->
<!DOCTYPE svg PUBLIC "-//W3C//DTD SVG 1.0//EN" "http://www.w3.org/TR/2001/REC-SVG-20010904/DTD/svg10.dtd">
<svg version="1.0" id="Camada_1" xmlns="http://www.w3.org/2000/svg" xmlns:xlink="http://www.w3.org/1999/xlink" x="0px" y="0px"
	 viewBox="120 314 382 222" enable-background="new 120 314 382 222" xml:space="preserve">
<path fill="#1B7C09" d="M262,408.7c0,0.2,0,0.5,0,0.7c0,0.3,0,0.6,0,0.9c0,0.3,0,0.6-0.1,1c0,0.3,0,0.6-0.1,1
	c-0.1,0.4-0.1,0.7-0.2,1c-0.1,0.3-0.1,0.7-0.2,1.1c-0.1,0.3-0.1,0.7-0.2,1c-0.1,0.4-0.1,0.8-0.2,1.2c-0.1,0.4-0.2,0.7-0.3,1.1
	c-0.1,0.4-0.2,0.8-0.3,1.2c-0.1,0.4-0.2,0.8-0.3,1.1c-0.1,0.4-0.2,0.8-0.4,1.2c-0.1,0.3-0.2,0.7-0.3,1.1c-0.2,0.4-0.3,0.7-0.4,1.1
	c-0.2,0.4-0.3,0.7-0.4,1c-0.2,0.3-0.3,0.7-0.4,1c-0.2,0.4-0.3,0.7-0.4,1c-0.2,0.3-0.3,0.7-0.4,1c-0.2,0.3-0.3,0.6-0.5,0.9
	c-0.1,0.2-0.2,0.5-0.3,0.7c-0.2,0.2-0.3,0.5-0.4,0.7c-0.1,0.2-0.2,0.3-0.4,0.5c-0.1,0.1-0.2,0.3-0.3,0.4c-0.1,0.1-0.2,0.2-0.3,0.3
	c-0.1,0.1-0.2,0.2-0.3,0.2c-0.1,0.1-0.1,0.1-0.2,0.1c-0.1,0-0.2-0.1-0.2-0.2c-0.1-0.1-0.1-0.1-0.2-0.3c-0.2-0.4-0.4-0.8-0.7-1.2
	c-0.2-0.4-0.4-0.8-0.6-1.1c-0.2-0.4-0.4-0.8-0.7-1.1c-0.2-0.4-0.5-0.8-0.7-1.1c-0.2-0.3-0.4-0.7-0.7-1c-0.3-0.4-0.5-0.7-0.7-1
	c-0.3-0.3-0.5-0.6-0.7-1c-0.3-0.3-0.5-0.6-0.7-0.9c-0.3-0.3-0.5-0.7-0.8-1c-0.3-0.3-0.5-0.6-0.7-0.8c-0.3-0.3-0.5-0.6-0.8-0.8
	c-0.3-0.3-0.5-0.6-0.8-0.8c-0.3-0.2-0.5-0.5-0.8-0.7c-0.3-0.2-0.5-0.5-0.8-0.7c-0.2-0.2-0.5-0.4-0.8-0.6c-0.2-0.2-0.5-0.4-0.7-0.6
	c-0.3-0.2-0.5-0.4-0.8-0.5c-0.3-0.1-0.5-0.3-0.8-0.4c-0.3-0.2-0.5-0.3-0.8-0.4c-0.3-0.1-0.5-0.2-0.8-0.4c-0.2-0.1-0.5-0.2-0.7-0.3
	c-0.3-0.1-0.5-0.2-0.8-0.3c-0.2-0.1-0.5-0.2-0.7-0.3c-0.2-0.1-0.5-0.1-0.7-0.2c-0.2,0-0.5,0-0.7-0.1c-0.2-0.1-0.5-0.1-0.7-0.1
	c-0.2,0-0.4,0-0.7,0c-0.2,0-0.4,0-0.7,0.1c-0.2,0-0.4,0-0.7,0.1c-0.2,0.1-0.4,0.1-0.6,0.2c-0.2,0.1-0.4,0.1-0.6,0.2
	c-0.2,0.1-0.4,0.1-0.6,0.3c-0.2,0.1-0.3,0.2-0.5,0.4c-0.2,0.1-0.3,0.2-0.5,0.4c-0.2,0.2-0.3,0.3-0.5,0.5c-0.1,0.1-0.2,0.3-0.4,0.4
	c-0.1,0.2-0.2,0.4-0.3,0.6c-0.1,0.2-0.2,0.4-0.3,0.6c-0.1,0.2-0.2,0.5-0.3,0.7c-0.1,0.2-0.1,0.5-0.2,0.8c-0.1,0.2-0.2,0.5-0.2,0.8
	c-0.1,0.3-0.1,0.6-0.1,0.9c-0.1,0.3-0.1,0.7-0.1,1c-0.1,0.4-0.1,0.7-0.1,1c0,0.3,0,0.6,0.1,1c0,0.3,0.1,0.7,0.2,1
	c0.1,0.3,0.1,0.6,0.2,0.9c0.1,0.3,0.2,0.6,0.3,0.8c0.1,0.3,0.2,0.6,0.4,0.8c0.2,0.2,0.3,0.5,0.5,0.7c0.2,0.2,0.3,0.4,0.5,0.6
	c0.2,0.2,0.4,0.4,0.7,0.6c0.2,0.2,0.4,0.3,0.7,0.5c0.2,0.2,0.5,0.3,0.7,0.4c0.3,0.2,0.5,0.4,0.7,0.5c0.3,0.1,0.6,0.3,0.9,0.4
	c0.3,0.1,0.5,0.2,0.8,0.3c0.3,0.2,0.6,0.3,0.9,0.4c0.3,0.1,0.7,0.2,1,0.3c0.3,0.1,0.7,0.2,1,0.4c0.3,0.1,0.7,0.2,1.1,0.3
	c0.3,0.1,0.7,0.2,1,0.3c0.4,0.1,0.7,0.2,1.1,0.3c0.4,0.1,0.8,0.3,1.1,0.4c0.3,0.1,0.7,0.2,1.1,0.4c0.4,0.1,0.7,0.2,1.1,0.3
	c0.4,0.2,0.8,0.3,1.1,0.4c0.4,0.2,0.7,0.3,1.1,0.4c0.4,0.2,0.8,0.3,1.1,0.5c0.3,0.2,0.7,0.3,1.1,0.5c0.4,0.2,0.7,0.4,1.1,0.5
	c0.4,0.2,0.7,0.4,1.1,0.6c0.3,0.2,0.7,0.5,1.1,0.7c0.3,0.2,0.7,0.5,1,0.7c0.3,0.2,0.5,0.5,0.8,0.7c0.3,0.2,0.6,0.5,0.9,0.7
	c0.3,0.2,0.5,0.5,0.8,0.7c0.2,0.2,0.5,0.5,0.7,0.8c0.3,0.2,0.5,0.5,0.7,0.8c0.2,0.2,0.5,0.5,0.7,0.8c0.2,0.3,0.4,0.6,0.7,0.8
	c0.2,0.3,0.4,0.6,0.7,0.9c0.2,0.3,0.4,0.6,0.6,0.9c0.2,0.3,0.4,0.6,0.6,0.9c0.2,0.3,0.4,0.6,0.6,1c0.2,0.3,0.3,0.6,0.5,0.9
	c0.2,0.3,0.3,0.7,0.5,1c0.2,0.3,0.3,0.7,0.5,1c0.1,0.4,0.2,0.7,0.4,1c0.1,0.3,0.2,0.6,0.4,1c0.1,0.4,0.2,0.7,0.3,1
	c0.1,0.4,0.2,0.7,0.3,1c0.1,0.3,0.2,0.7,0.2,1c0.1,0.3,0.2,0.7,0.3,1c0.1,0.3,0.1,0.7,0.2,1c0.1,0.4,0.1,0.8,0.2,1.1
	c0.1,0.3,0.1,0.7,0.1,1.1c0.1,0.4,0.1,0.7,0.2,1c0.1,0.4,0.1,0.8,0.1,1.1c0,0.4,0,0.8,0.1,1.1c0,0.4,0,0.8,0,1.2c0,0.3,0,0.7,0,1.1
	c0,0.4,0,0.8-0.1,1.1c0,0.4,0,0.8-0.1,1.2c0,0.4,0,0.8-0.1,1.1c-0.1,0.4-0.1,0.8-0.2,1.2c-0.1,0.4-0.1,0.8-0.2,1.2
	c-0.1,0.3-0.1,0.7-0.2,1.1c-0.1,0.4-0.2,0.7-0.2,1c-0.1,0.3-0.1,0.7-0.2,1c-0.1,0.3-0.2,0.7-0.2,1c-0.1,0.3-0.2,0.6-0.3,1
	c-0.1,0.3-0.2,0.6-0.3,1c-0.1,0.3-0.2,0.6-0.4,1c-0.1,0.3-0.2,0.6-0.4,0.9c-0.1,0.3-0.2,0.6-0.4,0.9c-0.1,0.3-0.2,0.6-0.4,0.9
	s-0.3,0.6-0.5,0.8c-0.2,0.3-0.4,0.6-0.6,0.8c-0.2,0.3-0.4,0.6-0.6,0.8c-0.2,0.2-0.4,0.5-0.6,0.8c-0.2,0.2-0.4,0.5-0.7,0.7
	c-0.2,0.2-0.4,0.5-0.7,0.7c-0.2,0.2-0.4,0.4-0.7,0.6c-0.3,0.2-0.5,0.4-0.7,0.6c-0.3,0.2-0.5,0.4-0.8,0.6c-0.3,0.2-0.5,0.4-0.8,0.6
	c-0.3,0.2-0.5,0.3-0.8,0.5c-0.3,0.2-0.6,0.4-0.9,0.5c-0.3,0.2-0.7,0.3-1,0.4c-0.3,0.2-0.7,0.3-1,0.4c-0.3,0.2-0.7,0.3-1,0.4
	c-0.4,0.2-0.7,0.3-1.1,0.4c-0.4,0.1-0.8,0.2-1.1,0.4c-0.4,0.1-0.8,0.2-1.1,0.3c-0.4,0.1-0.8,0.2-1.1,0.3c-0.4,0.1-0.8,0.2-1.2,0.3
	c-0.4,0.1-0.9,0.2-1.3,0.3c-0.4,0.1-0.9,0.2-1.3,0.3c-0.5,0.1-0.9,0.1-1.4,0.2c-0.5,0.1-1,0.1-1.5,0.2c-0.5,0.1-1,0.1-1.5,0.2
	c-0.5,0.1-1,0.1-1.5,0.2c-0.5,0-1.1,0-1.6,0.1c-0.5,0-1.1,0-1.5,0c-0.6,0.1-1.2,0.1-1.7,0.1c-0.5,0-1.1,0-1.7,0c-0.4,0-0.8,0-1.1,0
	c-0.4-0.1-0.8-0.1-1.1-0.1c-0.4-0.1-0.8-0.1-1.1-0.2c-0.4,0-0.8,0-1.2-0.1c-0.4-0.1-0.8-0.2-1.2-0.3c-0.4-0.1-0.8-0.1-1.2-0.3
	c-0.4-0.1-0.8-0.1-1.2-0.3c-0.4-0.1-0.9-0.2-1.3-0.3c-0.4-0.1-0.8-0.2-1.2-0.3c-0.4-0.1-0.8-0.3-1.2-0.4c-0.4-0.1-0.8-0.3-1.2-0.4
	c-0.4-0.1-0.8-0.3-1.1-0.4c-0.4-0.1-0.8-0.3-1.1-0.4c-0.4-0.2-0.8-0.4-1.1-0.5c-0.3-0.2-0.7-0.3-1.1-0.5c-0.3-0.2-0.7-0.4-1-0.5
	c-0.3-0.2-0.7-0.4-1-0.6c-0.3-0.2-0.6-0.3-0.9-0.5c-0.3-0.2-0.5-0.4-0.8-0.6c-0.3-0.2-0.5-0.4-0.8-0.6c-0.2-0.2-0.4-0.4-0.7-0.6
	c-0.2-0.2-0.4-0.4-0.6-0.6c-0.2-0.2-0.3-0.4-0.5-0.6c-0.2-0.2-0.3-0.4-0.4-0.6c-0.1-0.2-0.2-0.4-0.3-0.6c-0.1-0.2-0.1-0.4-0.2-0.6
	c-0.1-0.2-0.1-0.3-0.1-0.5c0-0.2,0-0.5,0-0.7c0-0.3,0-0.6,0.1-0.9c0-0.3,0-0.6,0.1-0.9c0.1-0.3,0.1-0.7,0.2-1c0.1-0.3,0.1-0.7,0.2-1
	c0.1-0.4,0.1-0.8,0.2-1.1c0.1-0.4,0.2-0.8,0.2-1.2c0.1-0.4,0.2-0.8,0.3-1.2c0.1-0.5,0.2-0.9,0.3-1.3c0.1-0.5,0.2-0.9,0.4-1.3
	c0.1-0.5,0.2-0.9,0.4-1.4c0.1-0.5,0.2-0.9,0.4-1.3c0.1-0.5,0.2-0.9,0.4-1.4c0.1-0.5,0.2-0.9,0.4-1.3c0.2-0.5,0.3-0.9,0.5-1.3
	c0.1-0.5,0.2-0.9,0.4-1.3s0.3-0.8,0.5-1.2c0.1-0.4,0.2-0.8,0.4-1.2c0.2-0.4,0.3-0.7,0.4-1.1c0.2-0.3,0.3-0.7,0.5-1
	c0.1-0.3,0.2-0.7,0.4-1c0.1-0.3,0.2-0.6,0.3-0.9c0.2-0.3,0.3-0.6,0.4-0.8c0.1-0.2,0.2-0.5,0.3-0.7c0.1-0.2,0.2-0.3,0.3-0.5
	c0.1-0.1,0.1-0.3,0.2-0.4c0.1-0.1,0.1-0.1,0.2-0.3c0.1-0.1,0.1-0.1,0.2-0.1c0.1,0,0.1,0,0.2,0c0.1,0.1,0.2,0.2,0.2,0.3
	c0.1,0.1,0.2,0.2,0.3,0.3c0.1,0.1,0.2,0.3,0.3,0.4c0.1,0.1,0.2,0.2,0.4,0.3c0.2,0.2,0.3,0.4,0.4,0.5c0.2,0.2,0.3,0.3,0.5,0.5
	c0.2,0.2,0.4,0.3,0.6,0.5c0.2,0.2,0.4,0.4,0.6,0.6c0.2,0.2,0.4,0.4,0.6,0.6c0.2,0.2,0.4,0.4,0.7,0.6c0.2,0.2,0.4,0.4,0.7,0.6
	c0.2,0.2,0.4,0.5,0.7,0.7c0.2,0.2,0.5,0.4,0.7,0.6c0.2,0.2,0.5,0.5,0.7,0.7c0.2,0.2,0.5,0.5,0.7,0.7c0.3,0.2,0.5,0.4,0.7,0.6
	c0.3,0.2,0.5,0.5,0.8,0.7c0.2,0.2,0.5,0.4,0.7,0.6c0.3,0.2,0.5,0.4,0.8,0.6c0.3,0.2,0.5,0.4,0.8,0.6c0.3,0.2,0.5,0.3,0.8,0.5
	c0.2,0.2,0.5,0.3,0.7,0.5c0.3,0.2,0.5,0.4,0.8,0.5c0.3,0.1,0.5,0.3,0.8,0.4c0.2,0.1,0.5,0.2,0.7,0.3c0.3,0.1,0.5,0.2,0.8,0.3
	c0.2,0.1,0.5,0.2,0.7,0.3c0.2,0.1,0.5,0.2,0.7,0.3c0.2,0.1,0.5,0.1,0.7,0.1c0.2,0.1,0.4,0.1,0.7,0.1c0.2,0.1,0.4,0.1,0.7,0
	c0.2,0,0.4,0,0.7-0.1c0.2,0,0.4,0,0.6-0.1c0.2-0.1,0.4-0.2,0.6-0.3c0.2-0.1,0.4-0.2,0.6-0.3c0.2-0.2,0.3-0.4,0.5-0.5
	c0.2-0.2,0.3-0.3,0.5-0.5c0.1-0.2,0.2-0.5,0.4-0.7c0.1-0.2,0.2-0.5,0.3-0.8c0.1-0.3,0.2-0.6,0.3-0.9c0.1-0.3,0.2-0.7,0.2-1
	c0.1-0.4,0.2-0.7,0.2-1c0.1-0.3,0.1-0.7,0.1-1s0-0.6,0-1c0-0.3,0-0.6,0-0.9c-0.1-0.2-0.1-0.5-0.2-0.8c-0.1-0.3-0.1-0.6-0.2-0.8
	c-0.1-0.2-0.1-0.5-0.2-0.7c-0.1-0.2-0.2-0.5-0.4-0.7c-0.1-0.2-0.2-0.5-0.4-0.7c-0.2-0.2-0.3-0.4-0.5-0.6c-0.2-0.2-0.4-0.4-0.6-0.6
	c-0.2-0.2-0.4-0.3-0.7-0.5c-0.2-0.2-0.4-0.3-0.7-0.5c-0.2-0.2-0.5-0.3-0.7-0.5c-0.3-0.2-0.5-0.3-0.7-0.4c-0.3-0.2-0.6-0.3-0.9-0.4
	c-0.3-0.2-0.5-0.3-0.8-0.4c-0.3-0.2-0.7-0.3-1-0.4c-0.3-0.2-0.7-0.3-1-0.4c-0.3-0.1-0.7-0.2-1-0.3c-0.3-0.2-0.7-0.3-1.1-0.4
	c-0.3-0.1-0.7-0.2-1.1-0.3c-0.4-0.1-0.7-0.3-1.1-0.4c-0.4-0.1-0.8-0.2-1.1-0.3c-0.4-0.1-0.8-0.2-1.1-0.3c-0.4-0.1-0.8-0.2-1.2-0.4
	c-0.4-0.1-0.8-0.3-1.2-0.4c-0.4-0.1-0.8-0.2-1.2-0.3c-0.4-0.1-0.8-0.3-1.2-0.4c-0.4-0.1-0.8-0.2-1.2-0.3c-0.3-0.1-0.5-0.2-0.8-0.3
	c-0.3-0.1-0.5-0.2-0.8-0.3c-0.3-0.2-0.5-0.4-0.8-0.5c-0.3-0.1-0.5-0.3-0.7-0.5c-0.3-0.2-0.5-0.4-0.7-0.5c-0.3-0.2-0.5-0.5-0.7-0.7
	c-0.2-0.2-0.5-0.5-0.7-0.7c-0.2-0.2-0.4-0.5-0.7-0.8c-0.2-0.2-0.4-0.5-0.6-0.8c-0.2-0.3-0.4-0.6-0.7-0.9c-0.2-0.3-0.4-0.6-0.6-0.9
	c-0.2-0.4-0.3-0.7-0.5-1c-0.2-0.3-0.4-0.7-0.5-1c-0.2-0.4-0.3-0.7-0.5-1c-0.2-0.4-0.3-0.7-0.4-1c-0.2-0.4-0.3-0.8-0.4-1.1
	c-0.2-0.4-0.3-0.8-0.4-1.2c-0.1-0.4-0.2-0.8-0.3-1.1c-0.1-0.4-0.1-0.8-0.2-1.3c-0.1-0.4-0.1-0.8-0.2-1.2c-0.1-0.4-0.1-0.8-0.2-1.3
	c-0.1-0.4-0.1-0.8-0.2-1.3c-0.1-0.4-0.1-0.8-0.1-1.3c-0.1-0.4-0.1-0.8-0.1-1.3c0-0.5,0-0.9,0-1.4c0-0.5,0-0.9,0.1-1.3
	c0-0.6,0-1.2,0.1-1.8c0.1-0.5,0.1-1.1,0.2-1.7c0.1-0.5,0.1-1.1,0.2-1.7c0.1-0.5,0.1-1,0.2-1.6c0.1-0.5,0.2-1,0.3-1.5
	c0.1-0.5,0.2-0.9,0.3-1.4c0.2-0.5,0.3-0.9,0.4-1.4c0.2-0.5,0.3-0.9,0.5-1.4c0.2-0.4,0.3-0.8,0.5-1.2c0.2-0.4,0.4-0.8,0.6-1.2
	c0.2-0.4,0.4-0.8,0.6-1.2c0.2-0.4,0.4-0.7,0.6-1c0.2-0.4,0.4-0.8,0.7-1.1c0.2-0.3,0.4-0.6,0.7-1c0.2-0.4,0.5-0.7,0.7-1
	c0.2-0.3,0.5-0.6,0.7-1c0.3-0.3,0.5-0.6,0.7-0.8c0.3-0.3,0.5-0.6,0.8-0.9c0.3-0.2,0.5-0.5,0.8-0.8c0.3-0.2,0.6-0.5,0.9-0.7
	c0.3-0.2,0.5-0.4,0.8-0.6c0.3-0.2,0.6-0.5,0.9-0.7c0.3-0.2,0.6-0.4,0.9-0.5c0.3-0.2,0.6-0.4,0.9-0.6c0.3-0.2,0.7-0.3,1-0.4
	c0.3-0.2,0.6-0.3,0.9-0.5c0.3-0.1,0.7-0.3,1-0.4c0.3-0.1,0.7-0.2,1-0.4c0.3-0.1,0.7-0.2,1-0.3c0.3-0.1,0.7-0.2,1-0.3
	c0.3-0.1,0.7-0.2,1-0.3c0.3-0.1,0.7-0.2,1-0.3c0.3-0.1,0.7-0.1,1-0.2c0.4-0.1,0.7-0.1,1.1-0.2c0.3-0.1,0.7-0.1,1-0.2
	c0.3-0.1,0.7-0.1,1-0.1c0.3-0.1,0.7-0.1,1-0.1c0.3,0,0.7,0,1,0c0.4-0.1,0.8-0.1,1.1,0c0.4,0,0.8,0,1.1,0c0.4,0.1,0.8,0.1,1.1,0.1
	c0.4,0.1,0.8,0.1,1.2,0.2c0.4,0.1,0.8,0.1,1.1,0.3c0.4,0.1,0.8,0.1,1.2,0.3c0.4,0.1,0.8,0.1,1.1,0.3c0.4,0.1,0.8,0.2,1.2,0.4
	c0.4,0.1,0.8,0.3,1.1,0.4c0.4,0.1,0.8,0.2,1.2,0.4c0.4,0.2,0.8,0.4,1.1,0.5c0.4,0.1,0.8,0.3,1.2,0.4c0.4,0.2,0.8,0.4,1.1,0.5
	c0.4,0.2,0.8,0.4,1.1,0.5c0.3,0.2,0.7,0.4,1.1,0.6c0.4,0.2,0.7,0.4,1.1,0.6c0.4,0.2,0.7,0.4,1.1,0.6c0.4,0.2,0.7,0.4,1.1,0.6
	c0.3,0.2,0.7,0.5,1,0.7c0.3,0.2,0.7,0.4,1,0.6c0.3,0.2,0.6,0.5,0.9,0.7c0.3,0.2,0.5,0.5,0.8,0.7c0.3,0.2,0.5,0.5,0.8,0.7
	c0.3,0.2,0.5,0.5,0.8,0.7c0.2,0.2,0.5,0.5,0.7,0.7c0.2,0.2,0.4,0.4,0.7,0.6c0.2,0.2,0.4,0.5,0.6,0.7c0.2,0.2,0.4,0.5,0.6,0.7
	c0.2,0.2,0.3,0.5,0.5,0.7c0.1,0.2,0.2,0.4,0.4,0.6c0.1,0.2,0.2,0.5,0.3,0.7c0.1,0.2,0.1,0.4,0.2,0.6c0.1,0.2,0.1,0.4,0.2,0.6
	C261.9,408.2,261.9,408.5,262,408.7z"/>
<path fill="#020202" d="M269.9,392.9c0.1-0.1,0.1-0.1,0.2-0.2c0.1-0.1,0.2-0.1,0.4-0.2c0.1-0.1,0.2-0.1,0.4-0.1
	c0.2-0.1,0.4-0.1,0.6-0.2c0.2-0.1,0.4-0.1,0.7-0.1c0.2-0.1,0.5-0.1,0.7-0.1c0.2-0.1,0.5-0.1,0.7-0.2c0.3,0,0.6,0,0.9-0.1
	c0.3,0,0.6,0,0.9-0.1c0.4,0,0.7,0,1.1-0.1c0.3,0,0.7,0,1.1-0.1c0.4,0,0.7,0,1.1-0.1c0.4,0,0.8,0,1.2,0c0.4-0.1,0.8-0.1,1.2-0.1
	c0.4,0,0.8,0,1.2-0.1c0.4,0,0.9,0,1.3,0c0.5-0.1,0.9-0.1,1.4-0.1c0.4,0,0.9,0,1.4,0c0.4,0,0.9,0,1.4-0.1c0.5,0,1,0,1.5,0
	c0.5,0,0.9,0,1.4,0c0.5,0,1,0,1.5,0c0.5,0,1.1,0,1.5,0c0.5,0,1,0,1.5,0c0.5,0,1,0,1.5,0c0.5,0,1.1,0,1.5,0c0.5,0,1,0,1.5,0
	c0.5,0,1,0,1.5,0s1,0,1.5,0c0.5,0,1,0,1.5,0c0.5,0,1,0,1.5,0.1c0.5,0,1,0,1.5,0c0.4,0,0.9,0,1.4,0c0.4,0,0.9,0,1.3,0.1
	c0.5,0,0.9,0,1.4,0c0.4,0,0.9,0,1.3,0.1c0.4,0,0.8,0,1.2,0c0.4,0,0.8,0,1.2,0.1c0.4,0,0.8,0,1.1,0c0.3,0.1,0.7,0.1,1.1,0.1
	c0.3,0,0.7,0,1.1,0.1c0.3,0,0.7,0,1,0c0.3,0.1,0.6,0.1,0.9,0.1c0.3,0.1,0.5,0.1,0.8,0.1c0.3,0,0.5,0,0.8,0.1c0.2,0,0.4,0,0.7,0.1
	c0.2,0,0.4,0,0.6,0c0.2,0.1,0.4,0.1,0.6,0.1c0.1,0.1,0.2,0.1,0.4,0.1c0.1,0,0.2,0,0.3,0.1c0.1,0,0.1,0,0.2,0.1c0.1,0,0.1,0,0.1,0.1
	c0.1,0.1,0.1,0.1,0.2,0.3c0.1,0.2,0.1,0.3,0.1,0.5c0.1,0.2,0.1,0.5,0.1,0.7c0.1,0.2,0.1,0.5,0.1,0.8c0.1,0.3,0.1,0.7,0.1,1
	c0,0.3,0,0.7,0,1.1c0,0.4,0,0.8,0,1.2c0,0.5,0,0.9,0,1.4c0,0.5,0,0.9-0.1,1.4c0,0.5,0,1,0,1.6c-0.1,0.5-0.1,1-0.1,1.5
	c-0.1,0.5-0.1,1-0.1,1.6c-0.1,0.5-0.1,1-0.2,1.6c0,0.5,0,1-0.1,1.6c-0.1,0.5-0.1,1-0.1,1.6c-0.1,0.5-0.1,1-0.2,1.5
	c-0.1,0.5-0.1,0.9-0.2,1.4c-0.1,0.5-0.1,0.9-0.2,1.3c-0.1,0.4-0.1,0.8-0.2,1.2c-0.1,0.4-0.1,0.8-0.2,1.1c-0.1,0.3-0.1,0.6-0.2,1
	c-0.1,0.3-0.1,0.6-0.2,0.8c-0.1,0.2-0.1,0.4-0.2,0.6c-0.1,0.2-0.1,0.3-0.2,0.4c-0.1,0.1-0.1,0.2-0.2,0.3c-0.1,0.1-0.2,0.1-0.2,0.1
	c-0.1,0-0.2,0-0.4,0s-0.3,0-0.5,0c-0.2,0-0.4,0-0.7-0.1c-0.2,0-0.5,0-0.7-0.1c-0.3,0-0.5,0-0.8-0.1c-0.3-0.1-0.7-0.1-1-0.1
	c-0.3-0.1-0.7-0.1-1.1-0.2c-0.4-0.1-0.7-0.1-1.1-0.2c-0.4-0.1-0.8-0.2-1.2-0.3c-0.4-0.1-0.8-0.1-1.2-0.2c-0.4-0.1-0.9-0.2-1.3-0.3
	c-0.4-0.1-0.9-0.2-1.3-0.3c-0.4-0.1-0.9-0.2-1.3-0.3c-0.5-0.1-0.9-0.2-1.4-0.3c-0.4-0.1-0.9-0.2-1.4-0.3c-0.4-0.1-0.9-0.2-1.4-0.3
	c-0.4-0.1-0.9-0.2-1.3-0.3c-0.4-0.1-0.9-0.1-1.3-0.3c-0.4-0.1-0.9-0.1-1.3-0.3c-0.4-0.1-0.9-0.2-1.3-0.3c-0.4-0.1-0.8-0.2-1.2-0.3
	c-0.4-0.1-0.8-0.2-1.1-0.3c-0.4-0.1-0.7-0.1-1.1-0.3c-0.3-0.1-0.7-0.1-1.1-0.2c-0.3-0.1-0.6-0.1-0.9-0.2c-0.3-0.1-0.5-0.1-0.8-0.3
	c-0.2-0.1-0.4-0.1-0.7-0.1c-0.3-0.1-0.5-0.1-0.7-0.2c-0.3-0.1-0.4-0.1-0.4-0.1c-0.1,0.2-0.1,0.6,0.1,1c0.1,0.4,0.1,0.7,0.1,1.1
	c0,0.4,0,0.8,0.1,1.3c0,0.5,0,0.9,0.1,1.3c0.1,0.5,0.1,1,0.1,1.5c0.1,0.5,0.1,1,0.2,1.5c0.1,0.5,0.1,1,0.1,1.5
	c0.1,0.5,0.1,0.9,0.2,1.4c0,0.5,0,0.9,0.1,1.3c0.1,0.5,0.1,0.9,0.1,1.3c0.1,0.4,0.1,0.7,0.2,1c0,0.3,0,0.6,0,1
	c0.1,0.2,0.1,0.5,0.1,0.7c0.1,0.1,0.1,0.3,0.1,0.4v0.1c0.1,0.1,0.1,0.1,0.2,0c0.2-0.1,0.4-0.1,0.7-0.1c0.3,0,0.6,0,0.9-0.1
	c0.4,0,0.8,0,1.2-0.1c0.4,0,0.9,0,1.3-0.1c0.5-0.1,1.1-0.1,1.5-0.1c0.5-0.1,1-0.1,1.5-0.1c0.5-0.1,1.1-0.1,1.5-0.1c0.5,0,1,0,1.5,0
	c0.4,0,0.9,0,1.3,0.1c0.3,0,0.7,0,1.1,0.1c0.3,0.1,0.5,0.1,0.7,0.2c0.2,0.1,0.4,0.1,0.5,0.3c0.1,0.2,0.2,0.3,0.2,0.5
	c0.1,0.2,0.1,0.5,0.2,0.7c0.1,0.3,0.1,0.6,0.2,1c0.1,0.3,0.2,0.7,0.2,1.1c0.1,0.4,0.1,0.8,0.1,1.2c0.1,0.5,0.1,0.9,0.2,1.4
	c0,0.5,0,0.9,0.1,1.4c0,0.5,0,0.9,0.1,1.4c0,0.5,0,0.9,0,1.4s0,0.9-0.1,1.3c0,0.4,0,0.8-0.1,1.2c0,0.3,0,0.7-0.1,1
	c-0.1,0.3-0.1,0.6-0.2,0.9c-0.1,0.2-0.1,0.3-0.2,0.5c-0.1,0.2-0.3,0.3-0.5,0.4c-0.2,0.1-0.5,0.2-0.7,0.3c-0.4,0.1-0.7,0.1-1.1,0.2
	c-0.4,0.1-0.9,0.1-1.3,0.1c-0.4,0.1-0.9,0.1-1.4,0.1c-0.5-0.1-1-0.1-1.5-0.1c-0.5,0-0.9,0-1.4-0.1c-0.5,0-1,0-1.5-0.1
	c-0.4-0.1-0.9-0.1-1.3-0.2c-0.3,0-0.7,0-1.1-0.1c-0.3-0.1-0.6-0.1-0.9-0.1c-0.2,0-0.4,0-0.6-0.1h-0.2c-0.1,0-0.1,0,0,0.1
	c0,0.1,0,0.3,0,0.4s0,0.4,0.1,0.6c0,0.3,0,0.6,0,0.9c0.1,0.3,0.1,0.6,0.1,1c0.1,0.4,0.1,0.8,0.1,1.2c0.1,0.4,0.1,0.8,0.2,1.3
	c0,0.5,0,0.9,0.1,1.4c0.1,0.5,0.1,0.9,0.1,1.4c0.1,0.5,0.1,1,0.2,1.6c0.1,0.5,0.1,1,0.1,1.6c0.1,0.5,0.1,1,0.2,1.5
	c0.1,0.5,0.1,1,0.2,1.5c0.1,0.5,0.1,1,0.2,1.5c0,0.5,0,0.9,0.1,1.4c0.1,0.4,0.1,0.8,0.2,1.2c0.1,0.3,0.1,0.7,0.2,1.1
	c0,0.3,0,0.6,0.1,1c0.1,0.2,0.1,0.5,0.2,0.8c0,0.2,0,0.4,0.1,0.5c0.1,0.1,0.2,0.1,0.4,0c0.1-0.1,0.3-0.1,0.5-0.1
	c0.2-0.1,0.4-0.1,0.6-0.2c0.3-0.1,0.5-0.1,0.8-0.2c0.3-0.1,0.6-0.1,0.9-0.2c0.3-0.1,0.7-0.2,1-0.3c0.3-0.1,0.7-0.2,1.1-0.4
	c0.4-0.1,0.8-0.1,1.1-0.3c0.4-0.1,0.8-0.2,1.2-0.4c0.4-0.1,0.9-0.2,1.3-0.3c0.4-0.1,0.9-0.2,1.3-0.3c0.4-0.1,0.9-0.2,1.3-0.3
	c0.5-0.1,0.9-0.2,1.4-0.4c0.4-0.1,0.9-0.2,1.4-0.3c0.4-0.1,0.9-0.2,1.3-0.3c0.5-0.1,0.9-0.2,1.4-0.4c0.4-0.1,0.9-0.1,1.3-0.3
	c0.4-0.1,0.8-0.2,1.2-0.3c0.4-0.1,0.8-0.2,1.2-0.3c0.4-0.1,0.8-0.2,1.1-0.3c0.3-0.1,0.7-0.1,1-0.2c0.3-0.1,0.7-0.1,1-0.2
	c0.3,0,0.5,0,0.8-0.1c0.3,0,0.5,0,0.7,0c0.2,0,0.4,0,0.7,0c0.1,0.1,0.2,0.1,0.4,0.1c0.1,0.1,0.2,0.1,0.3,0.2
	c0.1,0.1,0.1,0.1,0.2,0.3c0.1,0.2,0.1,0.3,0.2,0.4c0.1,0.2,0.2,0.4,0.2,0.6c0.1,0.2,0.1,0.5,0.2,0.7c0.1,0.3,0.1,0.6,0.2,0.9
	c0.1,0.4,0.2,0.7,0.2,1c0.1,0.3,0.2,0.7,0.2,1c0.1,0.4,0.1,0.8,0.2,1.2c0.1,0.4,0.1,0.8,0.2,1.2c0.1,0.5,0.2,0.9,0.2,1.4
	c0.1,0.5,0.2,0.9,0.2,1.4c0.1,0.5,0.1,0.9,0.2,1.4c0.1,0.5,0.2,1,0.2,1.5c0.1,0.5,0.1,1,0.2,1.5c0.1,0.5,0.1,1,0.2,1.5
	c0.1,0.5,0.1,1,0.2,1.5c0.1,0.5,0.1,1,0.2,1.5c0.1,0.5,0.1,1,0.2,1.5c0,0.5,0,0.9,0.1,1.4c0.1,0.5,0.1,0.9,0.1,1.3
	c0.1,0.5,0.1,0.9,0.1,1.3c0,0.4,0,0.8,0,1.2c0.1,0.3,0.1,0.7,0.1,1.1c0,0.3,0,0.6,0,1c-0.1,0.3-0.1,0.6-0.1,0.9s0,0.6-0.1,0.8
	c0,0.2,0,0.4-0.1,0.6c-0.1,0.2-0.1,0.3-0.2,0.4c0,0.1-0.1,0.2-0.2,0.4l-0.2,0.1c-0.1,0.1-0.1,0.1-0.2,0.1c-0.1,0.1-0.2,0.1-0.3,0.1
	c-0.1,0.1-0.2,0.1-0.4,0.1c-0.2,0.1-0.3,0.1-0.5,0.1c-0.2,0.1-0.4,0.1-0.6,0.1c-0.2,0.1-0.4,0.1-0.7,0.1c-0.3,0-0.5,0-0.8,0.1
	c-0.3,0-0.5,0-0.8,0c-0.3,0.1-0.5,0.1-0.8,0.1c-0.3,0-0.7,0-1,0.1c-0.3,0-0.7,0-1,0c-0.4,0.1-0.7,0.1-1.1,0.1c-0.4,0-0.8,0-1.1,0
	c-0.4,0.1-0.8,0.1-1.1,0.1c-0.4,0-0.8,0-1.2,0c-0.4,0-0.8,0-1.2,0.1c-0.4,0-0.9,0-1.3,0c-0.4,0-0.9,0-1.3,0c-0.5,0-0.9,0-1.4,0
	c-0.4,0-0.9,0-1.4,0.1c-0.4,0-0.9,0-1.4,0c-0.5,0-1,0-1.5,0s-0.9,0-1.4,0c-0.5,0-1,0-1.5,0c-0.5,0-1,0-1.5,0c-0.5,0-1,0-1.5,0
	c-0.5,0-1.1,0-1.5,0c-0.5,0-1,0-1.5,0c-0.5,0-1,0-1.5,0c-0.5-0.1-1-0.1-1.5-0.1s-1,0-1.5,0c-0.5,0-1,0-1.5,0c-0.4,0-0.9,0-1.4,0
	c-0.5,0-0.9,0-1.4-0.1c-0.5,0-0.9,0-1.4,0c-0.5,0-0.9,0-1.4,0c-0.4,0-0.9,0-1.3,0c-0.4-0.1-0.9-0.1-1.3-0.1c-0.4,0-0.8,0-1.2,0
	c-0.4,0-0.8,0-1.2-0.1c-0.4,0-0.8,0-1.1,0c-0.4,0-0.7,0-1.1,0c-0.4-0.1-0.7-0.1-1.1-0.1s-0.7,0-1.1,0c-0.3-0.1-0.6-0.1-0.9-0.1
	c-0.3,0-0.6,0-0.9,0c-0.3-0.1-0.5-0.1-0.7-0.1c-0.3,0-0.5,0-0.7,0c-0.2-0.1-0.5-0.1-0.7-0.1c-0.2,0-0.4,0-0.6,0
	c-0.2-0.1-0.3-0.1-0.5-0.1c-0.1,0-0.2,0-0.4,0c-0.1-0.1-0.2-0.1-0.3-0.1c-0.1,0-0.1,0-0.2,0c-0.1-0.1-0.1-0.1-0.2-0.1
	c-0.1,0-0.1,0-0.1-0.1v-0.1c-0.1-0.1-0.1-0.1-0.1-0.2c0-0.1,0-0.2-0.1-0.3c0-0.1,0-0.2,0-0.3c0-0.1,0-0.2-0.1-0.3c0-0.2,0-0.3,0-0.4
	c-0.1-0.2-0.1-0.3-0.1-0.5s0-0.4,0-0.5c-0.1-0.2-0.1-0.4-0.1-0.6c0-0.2,0-0.5-0.1-0.7c0-0.2,0-0.5,0-0.7c0-0.3,0-0.6-0.1-0.8
	c0-0.3,0-0.6,0-0.8c0-0.3,0-0.6-0.1-0.9c0-0.3,0-0.6,0-1c0-0.3,0-0.6-0.1-0.9c0-0.3,0-0.7,0-1c0-0.4,0-0.7-0.1-1c0-0.4,0-0.7,0-1
	c0-0.4,0-0.8,0-1.1c-0.1-0.4-0.1-0.8-0.1-1.1c0-0.4,0-0.8,0-1.2c-0.1-0.4-0.1-0.8-0.1-1.2c0-0.4,0-0.8,0-1.2c0-0.5,0-0.9-0.1-1.3
	c0-0.4,0-0.8,0-1.3c0-0.5,0-0.9,0-1.3c0-0.5,0-0.9-0.1-1.4c0-0.5,0-0.9,0-1.4c0-0.5,0-1,0-1.5c0-0.5,0-0.9-0.1-1.4c0-0.5,0-1,0-1.5
	c0-0.5,0-1,0-1.5c0-0.5,0-1,0-1.5c-0.1-0.5-0.1-1-0.1-1.6c0-0.5,0-1,0-1.5c0-0.5,0-1,0-1.6c0-0.5,0-1,0-1.6c-0.1-0.5-0.1-1-0.1-1.6
	c0-0.5,0-1,0-1.6c0-0.5,0-1,0-1.6c0-0.6,0-1.1,0-1.7c0-0.5,0-1,0-1.6c0-0.5,0-1.1,0-1.7c-0.1-0.5-0.1-1-0.1-1.6c0-0.5,0-1.1,0-1.7
	c0-0.5,0-1,0-1.6c0-0.5,0-1,0-1.6c0-0.6,0-1.1,0-1.7c0-0.5,0-1,0-1.6c0-0.5,0-1,0-1.6c0-0.5,0-1.1,0-1.7c0-0.5,0-1,0-1.6s0-1,0-1.5
	c0-0.5,0-1,0-1.6c0-0.5,0-1,0-1.6s0-1,0-1.5c0-0.5,0-1,0.1-1.6c0-0.5,0-1,0-1.5c0-0.5,0-0.9,0-1.4c0-0.5,0-1,0-1.5
	c0-0.5,0-0.9,0-1.4c0-0.5,0-0.9,0-1.4c0-0.5,0-0.9,0.1-1.4c0-0.5,0-0.9,0-1.4c0-0.4,0-0.8,0-1.3c0-0.4,0-0.8,0-1.2
	c0-0.5,0-0.9,0.1-1.3c0-0.4,0-0.8,0-1.2c0-0.4,0-0.8,0-1.1c0-0.4,0-0.8,0.1-1.2c0-0.4,0-0.7,0-1c0-0.4,0-0.8,0-1.1
	c0.1-0.4,0.1-0.7,0.1-1c0-0.3,0-0.6,0-1c0.1-0.3,0.1-0.6,0.1-1c0-0.3,0-0.6,0-0.9c0.1-0.3,0.1-0.6,0.1-0.9c0-0.3,0-0.6,0-0.8
	c0.1-0.3,0.1-0.6,0.1-0.8c0-0.2,0-0.5,0.1-0.7c0-0.2,0-0.5,0-0.7c0-0.2,0-0.4,0.1-0.6c0-0.2,0-0.4,0-0.5c0.1-0.2,0.1-0.4,0.1-0.5
	c0-0.1,0-0.3,0.1-0.4c0-0.1,0-0.2,0.1-0.3c0-0.1,0-0.2,0-0.4c0.1-0.1,0.1-0.1,0.1-0.3c0-0.1,0-0.1,0.1-0.2c0-0.1,0-0.1,0.1-0.2
	C269.7,392.9,269.8,392.9,269.9,392.9z"/>
<path fill="#020202" d="M333.6,392.9c0.1-0.1,0.1-0.1,0.2-0.2c0.1-0.1,0.2-0.1,0.4-0.2c0.1-0.1,0.2-0.1,0.4-0.1
	c0.2-0.1,0.4-0.1,0.6-0.2c0.2-0.1,0.4-0.1,0.7-0.1c0.2-0.1,0.5-0.1,0.7-0.1c0.2-0.1,0.5-0.1,0.7-0.2c0.3,0,0.6,0,0.9-0.1
	c0.3,0,0.6,0,0.9-0.1c0.4,0,0.7,0,1.1-0.1c0.3,0,0.7,0,1.1-0.1c0.4,0,0.7,0,1.1-0.1c0.4,0,0.8,0,1.2,0c0.4-0.1,0.8-0.1,1.2-0.1
	c0.4,0,0.8,0,1.2-0.1c0.4,0,0.9,0,1.3,0c0.5-0.1,0.9-0.1,1.4-0.1c0.4,0,0.9,0,1.4,0c0.4,0,0.9,0,1.4-0.1c0.5,0,1,0,1.5,0
	c0.5,0,0.9,0,1.4,0c0.5,0,1,0,1.5,0c0.5,0,1.1,0,1.5,0c0.5,0,1,0,1.5,0c0.5,0,1,0,1.5,0c0.5,0,1.1,0,1.5,0c0.5,0,1,0,1.5,0
	c0.5,0,1,0,1.5,0s1,0,1.5,0c0.5,0,1,0,1.5,0c0.5,0,1,0,1.5,0.1c0.5,0,1,0,1.5,0c0.4,0,0.9,0,1.4,0c0.4,0,0.9,0,1.3,0.1
	c0.5,0,0.9,0,1.4,0c0.4,0,0.9,0,1.3,0.1c0.4,0,0.8,0,1.2,0c0.4,0,0.8,0,1.2,0.1c0.4,0,0.8,0,1.1,0c0.3,0.1,0.7,0.1,1.1,0.1
	c0.3,0,0.7,0,1.1,0.1c0.3,0,0.7,0,1,0c0.3,0.1,0.6,0.1,0.9,0.1c0.3,0.1,0.5,0.1,0.8,0.1c0.3,0,0.5,0,0.8,0.1c0.2,0,0.4,0,0.7,0.1
	c0.2,0,0.4,0,0.6,0c0.2,0.1,0.4,0.1,0.6,0.1c0.1,0.1,0.2,0.1,0.4,0.1c0.1,0,0.2,0,0.3,0.1c0.1,0,0.1,0,0.2,0.1c0.1,0,0.1,0,0.1,0.1
	c0.1,0.1,0.1,0.1,0.2,0.3c0.1,0.2,0.1,0.3,0.1,0.5c0.1,0.2,0.1,0.5,0.1,0.7c0.1,0.2,0.1,0.5,0.1,0.8c0.1,0.3,0.1,0.7,0.1,1
	c0,0.3,0,0.7,0,1.1c0,0.4,0,0.8,0,1.2c0,0.5,0,0.9,0,1.4c0,0.5,0,0.9-0.1,1.4c0,0.5,0,1,0,1.6c-0.1,0.5-0.1,1-0.1,1.5
	c-0.1,0.5-0.1,1-0.1,1.6c-0.1,0.5-0.1,1-0.2,1.6c0,0.5,0,1-0.1,1.6c-0.1,0.5-0.1,1-0.1,1.6c-0.1,0.5-0.1,1-0.2,1.5
	c-0.1,0.5-0.1,0.9-0.2,1.4c-0.1,0.5-0.1,0.9-0.2,1.3c-0.1,0.4-0.1,0.8-0.2,1.2c-0.1,0.4-0.1,0.8-0.2,1.1c-0.1,0.3-0.1,0.6-0.2,1
	c-0.1,0.3-0.1,0.6-0.2,0.8c-0.1,0.2-0.1,0.4-0.2,0.6c-0.1,0.2-0.1,0.3-0.2,0.4c-0.1,0.1-0.1,0.2-0.2,0.3c-0.1,0.1-0.2,0.1-0.2,0.1
	c-0.1,0-0.2,0-0.4,0s-0.3,0-0.5,0c-0.2,0-0.4,0-0.7-0.1c-0.2,0-0.5,0-0.7-0.1c-0.3,0-0.5,0-0.8-0.1c-0.3-0.1-0.7-0.1-1-0.1
	c-0.3-0.1-0.7-0.1-1.1-0.2c-0.4-0.1-0.7-0.1-1.1-0.2c-0.4-0.1-0.8-0.2-1.2-0.3c-0.4-0.1-0.8-0.1-1.2-0.2c-0.4-0.1-0.9-0.2-1.3-0.3
	c-0.4-0.1-0.9-0.2-1.3-0.3c-0.4-0.1-0.9-0.2-1.3-0.3c-0.5-0.1-0.9-0.2-1.4-0.3c-0.4-0.1-0.9-0.2-1.4-0.3c-0.4-0.1-0.9-0.2-1.4-0.3
	c-0.4-0.1-0.9-0.2-1.3-0.3c-0.4-0.1-0.9-0.1-1.3-0.3c-0.4-0.1-0.9-0.1-1.3-0.3c-0.4-0.1-0.9-0.2-1.3-0.3c-0.4-0.1-0.8-0.2-1.2-0.3
	c-0.4-0.1-0.8-0.2-1.1-0.3c-0.4-0.1-0.7-0.1-1.1-0.3c-0.3-0.1-0.7-0.1-1.1-0.2c-0.3-0.1-0.6-0.1-0.9-0.2c-0.3-0.1-0.5-0.1-0.8-0.3
	c-0.2-0.1-0.4-0.1-0.7-0.1c-0.3-0.1-0.5-0.1-0.7-0.2c-0.3-0.1-0.4-0.1-0.4-0.1c-0.1,0.2-0.1,0.6,0.1,1c0.1,0.4,0.1,0.7,0.1,1.1
	c0,0.4,0,0.8,0.1,1.3c0,0.5,0,0.9,0.1,1.3c0.1,0.5,0.1,1,0.1,1.5c0.1,0.5,0.1,1,0.2,1.5c0.1,0.5,0.1,1,0.1,1.5
	c0.1,0.5,0.1,0.9,0.2,1.4c0,0.5,0,0.9,0.1,1.3c0.1,0.5,0.1,0.9,0.1,1.3c0.1,0.4,0.1,0.7,0.2,1c0,0.3,0,0.6,0,1
	c0.1,0.2,0.1,0.5,0.1,0.7c0.1,0.1,0.1,0.3,0.1,0.4v0.1c0.1,0.1,0.1,0.1,0.2,0c0.2-0.1,0.4-0.1,0.7-0.1c0.3,0,0.6,0,0.9-0.1
	c0.4,0,0.8,0,1.2-0.1c0.4,0,0.9,0,1.3-0.1c0.5-0.1,1.1-0.1,1.5-0.1c0.5-0.1,1-0.1,1.5-0.1c0.5-0.1,1.1-0.1,1.5-0.1c0.5,0,1,0,1.5,0
	c0.4,0,0.9,0,1.3,0.1c0.3,0,0.7,0,1.1,0.1c0.3,0.1,0.5,0.1,0.7,0.2c0.2,0.1,0.4,0.1,0.5,0.3c0.1,0.2,0.2,0.3,0.2,0.5
	c0.1,0.2,0.1,0.5,0.2,0.7c0.1,0.3,0.1,0.6,0.2,1c0.1,0.3,0.2,0.7,0.2,1.1c0.1,0.4,0.1,0.8,0.1,1.2c0.1,0.5,0.1,0.9,0.2,1.4
	c0,0.5,0,0.9,0.1,1.4c0,0.5,0,0.9,0.1,1.4c0,0.5,0,0.9,0,1.4s0,0.9-0.1,1.3c0,0.4,0,0.8-0.1,1.2c0,0.3,0,0.7-0.1,1
	c-0.1,0.3-0.1,0.6-0.2,0.9c-0.1,0.2-0.1,0.3-0.2,0.5c-0.1,0.2-0.3,0.3-0.5,0.4c-0.2,0.1-0.5,0.2-0.7,0.3c-0.4,0.1-0.7,0.1-1.1,0.2
	c-0.4,0.1-0.9,0.1-1.3,0.1c-0.4,0.1-0.9,0.1-1.4,0.1c-0.5-0.1-1-0.1-1.5-0.1c-0.5,0-0.9,0-1.4-0.1c-0.5,0-1,0-1.5-0.1
	c-0.4-0.1-0.9-0.1-1.3-0.2c-0.3,0-0.7,0-1.1-0.1c-0.3-0.1-0.6-0.1-0.9-0.1c-0.2,0-0.4,0-0.6-0.1h-0.2c-0.1,0-0.1,0,0,0.1
	c0,0.1,0,0.3,0,0.4s0,0.4,0.1,0.6c0,0.3,0,0.6,0,0.9c0.1,0.3,0.1,0.6,0.1,1c0.1,0.4,0.1,0.8,0.1,1.2c0.1,0.4,0.1,0.8,0.2,1.3
	c0,0.5,0,0.9,0.1,1.4c0.1,0.5,0.1,0.9,0.1,1.4c0.1,0.5,0.1,1,0.2,1.6c0.1,0.5,0.1,1,0.1,1.6c0.1,0.5,0.1,1,0.2,1.5
	c0.1,0.5,0.1,1,0.2,1.5c0.1,0.5,0.1,1,0.2,1.5c0,0.5,0,0.9,0.1,1.4c0.1,0.4,0.1,0.8,0.2,1.2c0.1,0.3,0.1,0.7,0.2,1.1
	c0,0.3,0,0.6,0.1,1c0.1,0.2,0.1,0.5,0.2,0.8c0,0.2,0,0.4,0.1,0.5c0.1,0.1,0.2,0.1,0.4,0c0.1-0.1,0.3-0.1,0.5-0.1
	c0.2-0.1,0.4-0.1,0.6-0.2c0.3-0.1,0.5-0.1,0.8-0.2c0.3-0.1,0.6-0.1,0.9-0.2c0.3-0.1,0.7-0.2,1-0.3c0.3-0.1,0.7-0.2,1.1-0.4
	c0.4-0.1,0.8-0.1,1.1-0.3c0.4-0.1,0.8-0.2,1.2-0.4c0.4-0.1,0.9-0.2,1.3-0.3c0.4-0.1,0.9-0.2,1.3-0.3c0.4-0.1,0.9-0.2,1.3-0.3
	c0.5-0.1,0.9-0.2,1.4-0.4c0.4-0.1,0.9-0.2,1.4-0.3c0.4-0.1,0.9-0.2,1.3-0.3c0.5-0.1,0.9-0.2,1.4-0.4c0.4-0.1,0.9-0.1,1.3-0.3
	c0.4-0.1,0.8-0.2,1.2-0.3c0.4-0.1,0.8-0.2,1.2-0.3c0.4-0.1,0.8-0.2,1.1-0.3c0.3-0.1,0.7-0.1,1-0.2c0.3-0.1,0.7-0.1,1-0.2
	c0.3,0,0.5,0,0.8-0.1c0.3,0,0.5,0,0.7,0c0.2,0,0.4,0,0.7,0c0.1,0.1,0.2,0.1,0.4,0.1c0.1,0.1,0.2,0.1,0.3,0.2
	c0.1,0.1,0.1,0.1,0.2,0.3c0.1,0.2,0.1,0.3,0.2,0.4c0.1,0.2,0.2,0.4,0.2,0.6c0.1,0.2,0.1,0.5,0.2,0.7c0.1,0.3,0.1,0.6,0.2,0.9
	c0.1,0.4,0.2,0.7,0.2,1c0.1,0.3,0.2,0.7,0.2,1c0.1,0.4,0.1,0.8,0.2,1.2c0.1,0.4,0.1,0.8,0.2,1.2c0.1,0.5,0.2,0.9,0.2,1.4
	c0.1,0.5,0.2,0.9,0.2,1.4c0.1,0.5,0.1,0.9,0.2,1.4c0.1,0.5,0.2,1,0.2,1.5c0.1,0.5,0.1,1,0.2,1.5c0.1,0.5,0.1,1,0.2,1.5
	c0.1,0.5,0.1,1,0.2,1.5c0.1,0.5,0.1,1,0.2,1.5c0.1,0.5,0.1,1,0.2,1.5c0,0.5,0,0.9,0.1,1.4c0.1,0.5,0.1,0.9,0.1,1.3
	c0.1,0.5,0.1,0.9,0.1,1.3c0,0.4,0,0.8,0,1.2c0.1,0.3,0.1,0.7,0.1,1.1c0,0.3,0,0.6,0,1c-0.1,0.3-0.1,0.6-0.1,0.9s0,0.6-0.1,0.8
	c0,0.2,0,0.4-0.1,0.6c-0.1,0.2-0.1,0.3-0.2,0.4c0,0.1-0.1,0.2-0.2,0.4l-0.2,0.1c-0.1,0.1-0.1,0.1-0.2,0.1c-0.1,0.1-0.2,0.1-0.3,0.1
	c-0.1,0.1-0.2,0.1-0.4,0.1c-0.2,0.1-0.3,0.1-0.5,0.1c-0.2,0.1-0.4,0.1-0.6,0.1c-0.2,0.1-0.4,0.1-0.7,0.1c-0.3,0-0.5,0-0.8,0.1
	c-0.3,0-0.5,0-0.8,0c-0.3,0.1-0.5,0.1-0.8,0.1c-0.3,0-0.7,0-1,0.1c-0.3,0-0.7,0-1,0c-0.4,0.1-0.7,0.1-1.1,0.1c-0.4,0-0.8,0-1.1,0
	c-0.4,0.1-0.8,0.1-1.1,0.1c-0.4,0-0.8,0-1.2,0c-0.4,0-0.8,0-1.2,0.1c-0.4,0-0.9,0-1.3,0c-0.4,0-0.9,0-1.3,0c-0.5,0-0.9,0-1.4,0
	c-0.4,0-0.9,0-1.4,0.1c-0.4,0-0.9,0-1.4,0c-0.5,0-1,0-1.5,0s-0.9,0-1.4,0c-0.5,0-1,0-1.5,0c-0.5,0-1,0-1.5,0c-0.5,0-1,0-1.5,0
	c-0.5,0-1.1,0-1.5,0c-0.5,0-1,0-1.5,0c-0.5,0-1,0-1.5,0c-0.5-0.1-1-0.1-1.5-0.1s-1,0-1.5,0c-0.5,0-1,0-1.5,0c-0.4,0-0.9,0-1.4,0
	c-0.5,0-0.9,0-1.4-0.1c-0.5,0-0.9,0-1.4,0c-0.5,0-0.9,0-1.4,0c-0.4,0-0.9,0-1.3,0c-0.4-0.1-0.9-0.1-1.3-0.1c-0.4,0-0.8,0-1.2,0
	c-0.4,0-0.8,0-1.2-0.1c-0.4,0-0.8,0-1.1,0c-0.4,0-0.7,0-1.1,0c-0.4-0.1-0.7-0.1-1.1-0.1s-0.7,0-1.1,0c-0.3-0.1-0.6-0.1-0.9-0.1
	c-0.3,0-0.6,0-0.9,0c-0.3-0.1-0.5-0.1-0.7-0.1c-0.3,0-0.5,0-0.7,0c-0.2-0.1-0.5-0.1-0.7-0.1c-0.2,0-0.4,0-0.6,0
	c-0.2-0.1-0.3-0.1-0.5-0.1c-0.1,0-0.2,0-0.4,0c-0.1-0.1-0.2-0.1-0.3-0.1c-0.1,0-0.1,0-0.2,0c-0.1-0.1-0.1-0.1-0.2-0.1
	c-0.1,0-0.1,0-0.1-0.1v-0.1c-0.1-0.1-0.1-0.1-0.1-0.2c0-0.1,0-0.2-0.1-0.3c0-0.1,0-0.2,0-0.3c0-0.1,0-0.2-0.1-0.3c0-0.2,0-0.3,0-0.4
	c-0.1-0.2-0.1-0.3-0.1-0.5s0-0.4,0-0.5c-0.1-0.2-0.1-0.4-0.1-0.6c0-0.2,0-0.5-0.1-0.7c0-0.2,0-0.5,0-0.7c0-0.3,0-0.6-0.1-0.8
	c0-0.3,0-0.6,0-0.8c0-0.3,0-0.6-0.1-0.9c0-0.3,0-0.6,0-1c0-0.3,0-0.6-0.1-0.9c0-0.3,0-0.7,0-1c0-0.4,0-0.7-0.1-1c0-0.4,0-0.7,0-1
	c0-0.4,0-0.8,0-1.1c-0.1-0.4-0.1-0.8-0.1-1.1c0-0.4,0-0.8,0-1.2c-0.1-0.4-0.1-0.8-0.1-1.2c0-0.4,0-0.8,0-1.2c0-0.5,0-0.9-0.1-1.3
	c0-0.4,0-0.8,0-1.3c0-0.5,0-0.9,0-1.3c0-0.5,0-0.9-0.1-1.4c0-0.5,0-0.9,0-1.4c0-0.5,0-1,0-1.5c0-0.5,0-0.9-0.1-1.4c0-0.5,0-1,0-1.5
	c0-0.5,0-1,0-1.5c0-0.5,0-1,0-1.5c-0.1-0.5-0.1-1-0.1-1.6c0-0.5,0-1,0-1.5c0-0.5,0-1,0-1.6c0-0.5,0-1,0-1.6c-0.1-0.5-0.1-1-0.1-1.6
	c0-0.5,0-1,0-1.6c0-0.5,0-1,0-1.6c0-0.6,0-1.1,0-1.7c0-0.5,0-1,0-1.6c0-0.5,0-1.1,0-1.7c-0.1-0.5-0.1-1-0.1-1.6c0-0.5,0-1.1,0-1.7
	c0-0.5,0-1,0-1.6c0-0.5,0-1,0-1.6c0-0.6,0-1.1,0-1.7c0-0.5,0-1,0-1.6c0-0.5,0-1,0-1.6c0-0.5,0-1.1,0-1.7c0-0.5,0-1,0-1.6s0-1,0-1.5
	c0-0.5,0-1,0-1.6c0-0.5,0-1,0-1.6s0-1,0-1.5c0-0.5,0-1,0.1-1.6c0-0.5,0-1,0-1.5c0-0.5,0-0.9,0-1.4c0-0.5,0-1,0-1.5
	c0-0.5,0-0.9,0-1.4c0-0.5,0-0.9,0-1.4c0-0.5,0-0.9,0.1-1.4c0-0.5,0-0.9,0-1.4c0-0.4,0-0.8,0-1.3c0-0.4,0-0.8,0-1.2
	c0-0.5,0-0.9,0.1-1.3c0-0.4,0-0.8,0-1.2c0-0.4,0-0.8,0-1.1c0-0.4,0-0.8,0.1-1.2c0-0.4,0-0.7,0-1c0-0.4,0-0.8,0-1.1
	c0.1-0.4,0.1-0.7,0.1-1c0-0.3,0-0.6,0-1c0.1-0.3,0.1-0.6,0.1-1c0-0.3,0-0.6,0-0.9c0.1-0.3,0.1-0.6,0.1-0.9c0-0.3,0-0.6,0-0.8
	c0.1-0.3,0.1-0.6,0.1-0.8c0-0.2,0-0.5,0.1-0.7c0-0.2,0-0.5,0-0.7c0-0.2,0-0.4,0.1-0.6c0-0.2,0-0.4,0-0.5c0.1-0.2,0.1-0.4,0.1-0.5
	c0-0.1,0-0.3,0.1-0.4c0-0.1,0-0.2,0.1-0.3c0-0.1,0-0.2,0-0.4c0.1-0.1,0.1-0.1,0.1-0.3c0-0.1,0-0.1,0.1-0.2c0-0.1,0-0.1,0.1-0.2
	C333.5,392.9,333.5,392.9,333.6,392.9z"/>
<path fill="#020202" d="M355.1,365.6c-3.8,0-6.6,9-12.6,8.7c-6-0.3-6-5.4-6-7.4c0-4.2,4.2-11.1,6.4-13.7c2.2-2.6,5.5-5.9,12-5.9
	c8.9,0,10.6,9.1,17.8,9.1c4.1,0,7.2-11.1,14.9-11.1c13.8,0,4.6,14.9,3.2,17.2c-2.3,3.7-9.2,13-18.3,13
	C363.2,375.5,361.4,365.6,355.1,365.6"/>
</svg>
