<?xml version="1.0" encoding="utf-8"?>
<!-- Generator: Adobe Illustrator 18.0.0, SVG Export Plug-In . SVG Version: 6.00 Build 0)  -->
<!DOCTYPE svg PUBLIC "-//W3C//DTD SVG 1.0//EN" "http://www.w3.org/TR/2001/REC-SVG-20010904/DTD/svg10.dtd">
<svg version="1.0" id="Camada_1" xmlns="http://www.w3.org/2000/svg" xmlns:xlink="http://www.w3.org/1999/xlink" x="0px" y="0px"
	 viewBox="120 314 434 222" enable-background="new 120 314 434 222" xml:space="preserve">
<g>
	<g>
		<path fill="#1B7C09" d="M142,388.4c0.1-0.1,0.2-0.2,0.4-0.3c0.3-0.1,0.5-0.2,0.7-0.3c0.3-0.1,0.6-0.1,0.9-0.3
			c1.2-0.2,2.4-0.4,3.6-0.5c0.5,0,1,0,1.5-0.1c0.5,0,1,0,1.5-0.1c1.5,0,3,0,4.5,0c1.3,0.2,2.8,0.3,4.1,0.3c1,0.2,2,0.3,2.9,0.5
			c0.2,0.1,0.4,0.2,0.7,0.3c0.1,0.1,0.2,0.1,0.3,0.3c0.1,0.1,0.2,0.1,0.2,0.3c-0.1,0.4-0.1,0.7-0.2,1c0,0.4,0,0.7-0.1,1
			c-0.1,0.7-0.1,1.5-0.2,2.2c-0.1,0.3-0.1,0.7-0.2,1c-0.1,0.8-0.1,1.5-0.2,2.3c-0.1,0.8-0.2,1.6-0.2,2.4c-0.1,0.8-0.2,1.6-0.2,2.4
			c-0.1,0.8-0.2,1.7-0.2,2.5c-0.1,0.4-0.1,0.8-0.2,1.2c0,0.9-0.1,1.8-0.2,2.6c-0.1,0.9-0.1,1.7-0.2,2.6c-0.1,0.4-0.1,0.8-0.1,1.3
			c-0.1,0.4-0.1,0.8-0.2,1.3c0,0.4,0,0.8-0.1,1.3c0,0.4,0,0.8-0.1,1.3c0,0.5,0,0.9-0.1,1.3c0,0.5,0,0.9-0.1,1.4c0,0.4,0,0.8,0,1.3
			c-0.1,0.9-0.1,1.7-0.1,2.6c-0.3,2.4-0.3,5.4,0,7.8c0,0.8,0,1.7,0.1,2.5c0,0.4,0,0.8,0.1,1.2c0.1,0.8,0.1,1.6,0.2,2.4
			c0.1,0.8,0.2,1.6,0.2,2.4c0.1,0.3,0.1,0.7,0.2,1c0.3,1.1,0.3,2.2,0.7,3.2c0.1,0.3,0.1,0.7,0.2,1c0.1,0.7,0.3,1.3,0.5,2
			c0.3,0.9,0.5,1.9,1.1,2.6c0.1,0.3,0.2,0.6,0.3,0.9c0.2,0.3,0.3,0.6,0.4,0.8c0.2,0.2,0.3,0.5,0.5,0.8c0.2,0.5,0.5,0.9,0.9,1.3
			c0.3,0.5,0.6,0.9,1.1,1.2c0.3,0.4,0.7,0.8,1.1,1c0.2,0.2,0.4,0.3,0.7,0.4c0.4,0.3,0.9,0.6,1.4,0.8c0.2,0.1,0.5,0.2,0.7,0.3
			c0.7,0.4,1.6,0.5,2.4,0.6c0.3,0,0.5,0,0.8,0.1c0.6,0,1.2,0,1.8-0.1c1,0,2.3-0.3,3.3-0.7c0.2-0.1,0.5-0.2,0.7-0.3
			c0.2-0.1,0.4-0.3,0.7-0.4c0.2-0.1,0.4-0.2,0.7-0.3c0.6-0.5,1.2-0.9,1.8-1.5c0.2-0.2,0.3-0.4,0.5-0.6c0.2-0.2,0.4-0.4,0.6-0.6
			c0.2-0.2,0.3-0.5,0.4-0.7c0.2-0.2,0.3-0.5,0.5-0.7c0.2-0.3,0.3-0.6,0.4-0.8c0.3-0.5,0.5-1,0.8-1.6c0.3-0.9,0.7-1.8,0.9-2.7
			c0.1-0.3,0.2-0.6,0.3-1c0.1-0.3,0.1-0.6,0.2-1c0.1-0.3,0.1-0.7,0.2-1c0.1-0.7,0.2-1.4,0.3-2.1c0.1-0.3,0.2-0.7,0.2-1
			c0.1-1.1,0.4-2.3,0.4-3.4c0.1-0.4,0.1-0.8,0.1-1.2c0.1-0.4,0.1-0.8,0.1-1.1c0.1-0.8,0.1-1.6,0.2-2.4c0-2.5,0.2-5.1-0.1-7.6
			c0-0.5,0-0.9,0-1.3c-0.1-0.9-0.1-1.7-0.2-2.6c0-0.5,0-0.9-0.1-1.3c0-0.5,0-0.9-0.1-1.3c0-0.5,0-0.9-0.1-1.3
			c-0.1-0.9-0.1-1.7-0.2-2.6c-0.1-0.5-0.1-0.9-0.2-1.3c0-1.3-0.3-2.6-0.3-3.9c-0.1-0.8-0.2-1.7-0.3-2.5c0-1.3-0.2-2.5-0.4-3.8
			c0-1.2-0.2-2.4-0.4-3.6c0-1.2-0.3-2.3-0.4-3.5c0-0.7-0.1-1.5-0.2-2.2c-0.1-0.7-0.1-1.4-0.2-2.1c-0.1-0.3-0.1-0.7-0.2-1
			c0-0.1,0.1-0.2,0.2-0.4c0.1-0.1,0.2-0.1,0.3-0.3c0.2-0.1,0.4-0.1,0.6-0.2c0.3-0.1,0.5-0.1,0.8-0.2c0.3-0.1,0.7-0.2,1-0.2
			c0.8-0.1,1.6-0.2,2.4-0.3c0.4,0,0.9,0,1.4-0.1c0.4,0,0.9,0,1.4,0c1.9-0.2,4-0.2,5.9,0c0.5,0,0.9,0,1.4,0.1c0.4,0,0.9,0,1.3,0.1
			c1,0,2.1,0.3,3.1,0.4c0.2,0.1,0.4,0.1,0.7,0.2c0.2,0.1,0.3,0.1,0.5,0.3c0.1,0.1,0.1,0.1,0.2,0.2c0.2,0.7,0.4,1.5,0.7,2.2
			c0.2,1.1,0.6,2.1,0.8,3.2c0.1,0.3,0.2,0.7,0.3,1.1c0.2,0.8,0.3,1.5,0.5,2.3c0.1,0.4,0.2,0.7,0.2,1.1c0.1,0.3,0.2,0.7,0.2,1.1
			c0.1,0.4,0.2,0.8,0.2,1.1c0.1,0.4,0.2,0.8,0.2,1.2c0.1,0.4,0.2,0.7,0.2,1.1c0.2,0.8,0.3,1.6,0.5,2.4c0.1,0.8,0.2,1.6,0.4,2.4
			c0.4,3.2,1.2,6.6,1.2,9.9c0.1,0.5,0.1,0.9,0.2,1.3c0.1,0.8,0.1,1.6,0.2,2.4c0.1,0.5,0.1,0.9,0.1,1.3c0.1,0.4,0.1,0.8,0.1,1.2
			c0.1,0.5,0.1,0.9,0.1,1.3c0.1,0.8,0.1,1.7,0.2,2.5c0,0.8,0,1.6,0.1,2.4c0,1.7,0.1,3.4-0.1,5.1c0,0.8,0,1.7,0,2.5
			c-0.1,0.8-0.1,1.6-0.2,2.4c0,0.4,0,0.8-0.1,1.2c0,0.4,0,0.8-0.1,1.2c0,0.8-0.1,1.6-0.2,2.4c0,2.2-0.3,5-1,7.1
			c-0.1,0.8-0.2,1.6-0.4,2.4c-0.1,0.3-0.1,0.7-0.2,1.1c-0.2,0.8-0.3,1.5-0.5,2.3c-0.1,0.3-0.2,0.7-0.3,1c-0.2,1.5-0.8,2.9-1.2,4.3
			c-0.3,0.7-0.5,1.4-0.7,2.1c-0.2,0.4-0.3,0.7-0.4,1c-0.2,0.3-0.3,0.6-0.4,1c-0.2,0.3-0.3,0.7-0.5,1c-0.1,0.3-0.2,0.7-0.4,1
			c-0.2,0.3-0.3,0.7-0.5,1c-0.2,0.6-0.5,1.3-0.9,1.8c-0.2,0.3-0.4,0.7-0.6,1c-0.3,0.6-0.7,1.2-1.1,1.8c-0.4,0.5-0.8,1.1-1.1,1.7
			c-0.4,0.6-0.8,1.1-1.2,1.6c-0.2,0.2-0.4,0.5-0.6,0.8c-0.6,0.7-1.3,1.5-2,2.1c-0.2,0.2-0.5,0.5-0.7,0.7c-0.2,0.2-0.5,0.5-0.7,0.7
			c-0.2,0.2-0.5,0.4-0.7,0.6c-0.5,0.4-1,0.8-1.5,1.2c-0.8,0.5-1.6,1-2.4,1.6c-0.3,0.2-0.6,0.3-0.9,0.4c-0.3,0.2-0.6,0.3-0.9,0.5
			c-0.3,0.1-0.6,0.3-0.9,0.4c-0.3,0.1-0.6,0.2-0.9,0.3c-0.3,0.1-0.7,0.2-1,0.3c-0.3,0.2-0.7,0.3-1,0.4c-0.7,0.3-1.3,0.5-2,0.6
			c-0.3,0.1-0.7,0.2-1,0.3c-1.7,0.5-3.8,0.9-5.5,0.9c-0.8,0.1-1.6,0.1-2.4,0.1c-0.8,0.1-1.6,0.1-2.4,0c-0.4,0-0.8,0-1.1,0
			c-0.4-0.1-0.8-0.1-1.2-0.1c-0.4-0.1-0.8-0.1-1.1-0.2c-1.1,0-2.3-0.2-3.3-0.5c-0.3-0.1-0.7-0.1-1.1-0.3c-0.3-0.1-0.7-0.1-1.1-0.3
			c-1.6-0.3-3.5-1-4.9-1.7c-0.3-0.1-0.6-0.3-0.9-0.4c-0.3-0.1-0.6-0.3-0.9-0.4c-0.3-0.2-0.6-0.3-0.9-0.5c-0.6-0.3-1.1-0.6-1.6-1
			c-0.6-0.3-1.1-0.7-1.6-1.1c-0.5-0.4-1-0.8-1.5-1.2c-0.4-0.5-0.9-0.9-1.4-1.3c-0.5-0.4-1-0.9-1.4-1.5c-0.5-0.5-0.9-1-1.3-1.5
			c-0.4-0.6-0.8-1.1-1.2-1.6c-0.2-0.3-0.4-0.6-0.6-0.9c-0.2-0.2-0.4-0.5-0.6-0.8c-0.2-0.3-0.4-0.6-0.6-0.9c-0.3-0.6-0.7-1.2-1-1.7
			c-0.3-0.6-0.7-1.3-1-1.9c-0.2-0.3-0.3-0.6-0.5-0.9c-0.2-0.3-0.3-0.7-0.4-1c-0.2-0.3-0.3-0.6-0.4-1c-0.2-0.3-0.3-0.6-0.4-1
			c-0.2-0.3-0.3-0.7-0.4-1c-0.3-0.7-0.5-1.3-0.7-2c-0.5-1-0.8-2.2-1-3.2c-0.2-0.7-0.4-1.5-0.7-2.2c-0.2-0.8-0.3-1.5-0.5-2.3
			c-0.2-0.8-0.3-1.5-0.5-2.3c-0.1-0.4-0.1-0.8-0.2-1.1c-0.6-2.2-1-4.9-1-7.2c-0.1-0.4-0.1-0.8-0.2-1.2c-0.1-0.8-0.1-1.6-0.2-2.4
			c-0.1-0.8-0.1-1.6-0.2-2.4c0-0.4,0-0.8-0.1-1.3c0-0.8,0-1.6,0-2.4c-0.2-1.6-0.2-3.5,0-5.1c0-0.8,0-1.7,0-2.5
			c0.1-0.8,0.1-1.7,0.2-2.5c0-0.4,0-0.8,0.1-1.3c0-0.4,0-0.8,0.1-1.2c0-0.4,0-0.8,0.1-1.3c0-0.4,0-0.8,0.1-1.2
			c0-0.9,0.1-1.7,0.2-2.5c0-3.5,0.6-7.8,1.5-11.2c0.1-0.8,0.2-1.6,0.4-2.4c0.1-0.4,0.1-0.8,0.2-1.2c0.2-0.8,0.3-1.6,0.5-2.4
			c0.1-0.4,0.1-0.7,0.2-1.1c0.1-0.4,0.1-0.8,0.2-1.2c0.2-0.8,0.3-1.5,0.5-2.3c0.1-0.4,0.2-0.8,0.2-1.1c0.1-0.4,0.2-0.8,0.3-1.1
			c0.1-0.8,0.3-1.5,0.6-2.3c0.1-0.7,0.3-1.5,0.6-2.2C141.8,388.6,141.8,388.5,142,388.4C142.1,388.3,141.8,388.5,142,388.4z"/>
		<path fill="#020202" d="M270.2,445c0.1,0.3,0.4,0.6,1.1,1c1.3,0.8,2.8,2.9,3.8,4.2c0.6,0.8,1.2,1.5,1.8,2.3
			c0.5,0.8,1.1,1.5,1.6,2.3c0.8,1.2,1.6,2.4,2.3,3.6c1,1.5,1.8,3.3,2.7,4.9c0.2,0.4,0.4,0.8,0.6,1.2c0.4,0.8,0.8,1.6,1.1,2.4
			c0.5,1.2,1,2.3,1.5,3.5c0.3,0.8,0.5,1.5,0.8,2.3c0.8,1.6,1.1,3.5,1.7,5.2c0.1,0.4,0.1,0.7,0.2,1c0.1,0.3,0.1,0.6,0.2,1
			c0.2,1.1,0.4,2.2,0.7,3.2c0,0.2,0,0.5,0.1,0.7c0.1,0.4,0.1,0.8,0.2,1.2c0,0.5,0.1,1.3-0.1,1.8c0,0.1,0,0.2-0.1,0.3
			c0,0.1,0,0.1-0.1,0.2c0,0.1,0,0.1-0.1,0.2c-0.4,0.2-0.8,0.4-1.2,0.5c-0.5,0.1-0.9,0.2-1.4,0.3c-0.6,0.1-1.2,0.2-1.9,0.3
			c-0.7,0-1.4,0.1-2.1,0.3c-0.8,0.1-1.6,0.1-2.4,0.2c-0.4,0.1-0.8,0.1-1.2,0.2c-0.4,0-0.9,0-1.3,0.1c-0.4,0-0.9,0-1.3,0
			c-0.9,0.1-1.7,0.1-2.6,0.1c-0.9,0.1-1.8,0.1-2.7,0.1c-0.8-0.1-1.7-0.1-2.5-0.1c-1.1-0.1-2.4-0.3-3.5-0.3c-1.2-0.2-2.5-0.3-3.7-0.8
			c-0.2-0.1-0.4-0.1-0.7-0.3c-0.2-0.1-0.4-0.1-0.6-0.3c-0.3-0.3-0.5-0.7-0.7-1.1c-0.1-0.3-0.2-0.7-0.2-1c-0.5-2.2-0.7-4.6-1.4-6.8
			c-0.1-0.4-0.1-0.7-0.2-1c-0.1-0.3-0.2-0.7-0.2-1.1c-0.1-0.3-0.2-0.7-0.3-1.1c-0.1-0.8-0.3-1.6-0.6-2.4c-0.1-0.5-0.2-0.9-0.3-1.3
			c-0.2-0.4-0.3-0.8-0.4-1.2c-0.2-0.4-0.3-0.8-0.4-1.3c-0.5-1.3-1-2.7-1.5-3.9c-0.5-1.3-1.2-2.7-1.9-3.9c-1.3-2.3-2.7-4.5-4.3-6.6
			v0.1c0,0.1,0,0.2,0,0.3c0.1,0.3,0.1,0.7,0.2,1c0,0.3,0,0.6,0,0.8c0.1,0.3,0.1,0.6,0.1,1c0.1,0.3,0.1,0.6,0.1,1
			c0.1,0.4,0.1,0.8,0.2,1.2c0,0.4,0,0.8,0.1,1.2c0,0.4,0,0.8,0.1,1.3c0.1,1,0.1,1.9,0.2,2.9c0.1,0.5,0.1,1,0.1,1.5
			c0.1,0.5,0.1,1,0.1,1.6c0.1,0.5,0.1,1,0.1,1.6c0.1,1,0.1,2.1,0.2,3.1c0,2.4,0,4.8,0,7.3c-0.1,0.5-0.1,0.9-0.1,1.3
			c-0.1,0.4-0.1,0.8-0.1,1.1c-0.2,1-0.3,1.9-0.5,2.9c-0.1,0.2-0.1,0.4-0.2,0.6c-0.1,0.2-0.2,0.3-0.2,0.5c-0.1,0.1-0.2,0.2-0.3,0.4
			c-0.2,0.1-0.3,0.2-0.5,0.3c-0.2,0.1-0.4,0.2-0.7,0.3c-0.2,0.1-0.5,0.2-0.7,0.3c-1.5,0.6-3.6,0.9-5.1,0.9c-0.4,0.1-0.9,0.1-1.3,0.2
			c-0.4,0-0.8,0-1.2,0.1c-0.5,0-0.9,0-1.4,0c-2.5,0.3-5.6,0.3-8.1,0c-0.4,0-0.8,0-1.2-0.1c-0.4,0-0.8,0-1.2-0.1
			c-0.4,0-0.8,0-1.1-0.1c-0.7,0-1.4-0.1-2-0.3c-0.8,0-1.5-0.2-2.3-0.4c-0.3-0.1-0.6-0.2-0.9-0.4l-0.1-0.1c0-0.1,0-0.1-0.1-0.2
			c0-0.1,0-0.1-0.1-0.2c0-0.1,0-0.2-0.1-0.3c0-0.1,0-0.2-0.1-0.3c0-0.1,0-0.3-0.1-0.4c0-0.1,0-0.3,0-0.4c-0.1-0.2-0.1-0.3-0.1-0.5
			c-0.1-0.4-0.1-0.8-0.2-1.2c0-0.2,0-0.5-0.1-0.7c0-0.2,0-0.5,0-0.8c-0.1-0.6-0.1-1.1-0.1-1.7c-0.1-0.6-0.1-1.2-0.2-1.8
			c0-0.7,0-1.3-0.1-2c0-0.7,0-1.4,0-2.1c-0.2-1.2,0-2.4-0.2-3.6c0-1.7,0.1-3.5-0.1-5.2c0-8.5-0.8-17.4,0.1-25.8
			c0-2.1-0.1-4.3,0.1-6.4c0-1.6,0-3.2,0-4.8c0.2-1.5,0-3.1,0.2-4.6c0-1,0-2,0-3.1c0.1-1,0.1-2,0.1-3c0.1-1,0.1-2,0.1-3
			c0.1-0.9,0.1-1.9,0.1-2.8c0.1-0.9,0.1-1.8,0.1-2.7c0.1-0.9,0.1-1.7,0.2-2.6c0-0.4,0-0.8,0-1.2c0.1-0.8,0.1-1.6,0.1-2.4
			c0.1-0.7,0.1-1.5,0.2-2.2c0-0.4,0-0.8,0-1.1c0.1-0.7,0.1-1.3,0.2-2c0-0.3,0-0.6,0-1c0.1-0.3,0.1-0.6,0.1-0.9
			c0-0.6,0.1-1.1,0.2-1.7c0-0.2,0-0.5,0-0.7c0.1-0.5,0.1-0.9,0.2-1.4c0-0.2,0-0.4,0.1-0.6c0-0.2,0-0.3,0-0.5
			c0.1-0.2,0.1-0.3,0.1-0.4c0-0.3,0.1-0.5,0.2-0.8c0-0.1,0-0.2,0.1-0.4c0-0.1,0-0.1,0-0.2l0.1-0.2c0.1-0.1,0.1-0.1,0.1-0.2
			c0.1-0.1,0.1-0.1,0.2-0.2c0.1-0.1,0.2-0.2,0.2-0.3c0.9-0.5,1.9-1.1,2.9-1.1c0.4-0.2,0.9-0.3,1.3-0.3c0.2-0.1,0.5-0.1,0.7-0.1
			c0.3-0.1,0.5-0.1,0.8-0.1c0.3-0.1,0.6-0.1,0.9-0.1c0.3-0.1,0.7-0.1,1-0.1c0.8-0.1,1.5-0.1,2.3-0.1c1.4-0.2,2.8,0,4.1-0.2
			c2.3,0,4.7-0.1,7,0.1c2.2,0,4.5-0.1,6.7,0.1c0.9,0,1.8,0,2.8,0.1c0.9,0,1.8,0.1,2.8,0.3c0.9,0,1.7,0.1,2.5,0.4
			c0.9,0.1,1.7,0.2,2.5,0.4c0.8,0.2,1.6,0.3,2.4,0.5c0.8,0.2,1.5,0.5,2.3,0.7c0.7,0.3,1.5,0.6,2.2,0.9c0.7,0.3,1.4,0.6,2.1,0.9
			c0.7,0.3,1.3,0.7,2,1.1c0.3,0.2,0.6,0.4,0.9,0.5c0.3,0.2,0.7,0.4,1,0.6c1.4,1.2,2.9,2.2,4.1,3.5c0.2,0.2,0.5,0.5,0.7,0.8
			c0.2,0.2,0.5,0.5,0.7,0.8c2,2.7,4.1,5.6,5,8.8c0.8,1.8,1.4,4.1,1.6,6c0.5,1.7,0.5,3.6,0.7,5.3c0,0.5,0,1,0.1,1.5
			c0,2.4,0.1,5.1-0.7,7.4c-0.1,0.8-0.3,1.5-0.7,2.3c-0.1,0.4-0.2,0.7-0.3,1c-0.2,0.3-0.3,0.7-0.5,1c-0.1,0.4-0.2,0.7-0.4,1
			c-0.2,0.3-0.4,0.6-0.6,1c-0.2,0.3-0.4,0.6-0.6,0.9c-0.5,0.9-1.2,1.8-1.9,2.5c-0.3,0.3-0.5,0.6-0.7,0.8c-0.8,0.7-1.5,1.5-2.4,2.2
			c-0.3,0.2-0.5,0.4-0.8,0.6c-0.3,0.2-0.6,0.4-0.9,0.6c-0.3,0.2-0.6,0.4-0.9,0.6c-0.7,0.3-1.3,0.7-2,1c-0.3,0.1-0.7,0.3-1,0.5
			c-0.3,0.3-0.7,0.4-1,0.4C270.6,444.6,270.2,444.8,270.2,445C270.3,445.3,270.2,444.8,270.2,445z M260,420.3c0-0.6,0-1.3-0.1-1.9
			c-0.1-0.6-0.2-1.1-0.4-1.7c-0.1-0.5-0.3-1-0.5-1.6c-0.2-0.4-0.5-0.8-0.7-1.3c-0.2-0.4-0.5-0.8-0.8-1.1c-0.3-0.3-0.6-0.7-0.9-1
			c-0.3-0.3-0.7-0.6-1.1-0.9c-0.3-0.3-0.7-0.6-1.1-0.8c-0.4-0.2-0.8-0.4-1.1-0.6c-0.4-0.2-0.8-0.4-1.1-0.5c-0.7-0.2-1.5-0.5-2.2-0.7
			c-0.4-0.1-0.7-0.1-1.1-0.3c-0.3-0.1-0.7-0.1-1-0.1c-0.3-0.1-0.5-0.1-0.8-0.1c-0.2-0.1-0.5-0.1-0.7-0.1c-0.2,0.1-0.4,0.1-0.6,0
			c-0.2,0-0.3,0-0.3,0.1c-0.1,0.1-0.1,0.3-0.1,0.5c0,0.2,0,0.4,0,0.6c-0.1,0.2-0.1,0.4,0,0.6c0,0.5,0,1,0,1.6
			c0.1,0.6,0.1,1.2,0.2,1.8c0.1,0.7,0.1,1.3,0.2,2c0.1,0.4,0.1,0.8,0.2,1.1c0.1,0.8,0.1,1.6,0.2,2.4c0.1,0.4,0.1,0.8,0.2,1.2
			c0.1,0.9,0.1,1.8,0.2,2.7c0.1,0.5,0.1,1,0.2,1.5c0.1,1,0.1,1.9,0.2,2.9c0.1,0.5,0.1,1,0.1,1.6c0.1,0.5,0.1,1,0.1,1.6
			c-0.1,0.6-0.1,1.1,0,1.6c0,0.1,0.2,0.1,0.5,0.1c0.2,0,0.4,0,0.7,0.1c0.5-0.1,1.1-0.1,1.6-0.2c0.3-0.1,0.7-0.1,1-0.3
			c0.7-0.2,1.4-0.4,2-0.6c0.8-0.3,1.5-0.7,2.2-1.1c0.7-0.5,1.3-1,2-1.5c1-0.9,1.7-2,2.4-3.2c0.2-0.4,0.3-0.8,0.5-1.3
			C259.9,422.4,260,421.3,260,420.3z"/>
		<path fill="#020202" d="M295.7,388.4c0.1-0.1,0.2-0.2,0.4-0.3c0.3-0.1,0.5-0.2,0.7-0.3c0.3-0.1,0.6-0.1,0.9-0.3
			c1.2-0.2,2.4-0.4,3.6-0.5c0.5,0,1,0,1.5-0.1c0.5,0,1,0,1.5-0.1c1.5,0,3,0,4.5,0c1.3,0.2,2.8,0.3,4.1,0.3c1,0.2,2,0.3,2.9,0.5
			c0.2,0.1,0.4,0.2,0.7,0.3c0.1,0.1,0.2,0.1,0.3,0.3c0.1,0.1,0.2,0.1,0.2,0.3c-0.1,0.4-0.1,0.7-0.2,1c0,0.4,0,0.7-0.1,1
			c-0.1,0.7-0.1,1.5-0.2,2.2c-0.1,0.3-0.1,0.7-0.2,1c-0.1,0.8-0.1,1.5-0.2,2.3c-0.1,0.8-0.2,1.6-0.2,2.4c-0.1,0.8-0.2,1.6-0.2,2.4
			c-0.1,0.8-0.2,1.7-0.2,2.5c-0.1,0.4-0.1,0.8-0.2,1.2c0,0.9-0.1,1.8-0.2,2.6c-0.1,0.9-0.1,1.7-0.2,2.6c-0.1,0.4-0.1,0.8-0.1,1.3
			c-0.1,0.4-0.1,0.8-0.2,1.3c0,0.4,0,0.8-0.1,1.3c0,0.4,0,0.8-0.1,1.3c0,0.5,0,0.9-0.1,1.3c0,0.5,0,0.9-0.1,1.4c0,0.4,0,0.8,0,1.3
			c-0.1,0.9-0.1,1.7-0.1,2.6c-0.3,2.4-0.3,5.4,0,7.8c0,0.8,0,1.7,0.1,2.5c0,0.4,0,0.8,0.1,1.2c0.1,0.8,0.1,1.6,0.2,2.4
			c0.1,0.8,0.2,1.6,0.2,2.4c0.1,0.3,0.1,0.7,0.2,1c0.3,1.1,0.3,2.2,0.7,3.2c0.1,0.3,0.1,0.7,0.2,1c0.1,0.7,0.3,1.3,0.5,2
			c0.3,0.9,0.5,1.9,1.1,2.6c0.1,0.3,0.2,0.6,0.3,0.9c0.2,0.3,0.3,0.6,0.4,0.8c0.2,0.2,0.3,0.5,0.5,0.8c0.2,0.5,0.5,0.9,0.9,1.3
			c0.3,0.5,0.6,0.9,1.1,1.2c0.3,0.4,0.7,0.8,1.1,1c0.2,0.2,0.4,0.3,0.7,0.4c0.4,0.3,0.9,0.6,1.4,0.8c0.2,0.1,0.5,0.2,0.7,0.3
			c0.7,0.4,1.6,0.5,2.4,0.6c0.3,0,0.5,0,0.8,0.1c0.6,0,1.2,0,1.8-0.1c1,0,2.3-0.3,3.3-0.7c0.2-0.1,0.5-0.2,0.7-0.3
			c0.2-0.1,0.4-0.3,0.7-0.4c0.2-0.1,0.4-0.2,0.7-0.3c0.6-0.5,1.2-0.9,1.8-1.5c0.2-0.2,0.3-0.4,0.5-0.6c0.2-0.2,0.4-0.4,0.6-0.6
			c0.2-0.2,0.3-0.5,0.4-0.7c0.2-0.2,0.3-0.5,0.5-0.7c0.2-0.3,0.3-0.6,0.4-0.8c0.3-0.5,0.5-1,0.8-1.6c0.3-0.9,0.7-1.8,0.9-2.7
			c0.1-0.3,0.2-0.6,0.3-1c0.1-0.3,0.1-0.6,0.2-1c0.1-0.3,0.1-0.7,0.2-1c0.1-0.7,0.2-1.4,0.3-2.1c0.1-0.3,0.2-0.7,0.2-1
			c0.1-1.1,0.4-2.3,0.4-3.4c0.1-0.4,0.1-0.8,0.1-1.2c0.1-0.4,0.1-0.8,0.1-1.1c0.1-0.8,0.1-1.6,0.2-2.4c0-2.5,0.2-5.1-0.1-7.6
			c0-0.5,0-0.9,0-1.3c-0.1-0.9-0.1-1.7-0.2-2.6c0-0.5,0-0.9-0.1-1.3c0-0.5,0-0.9-0.1-1.3c0-0.5,0-0.9-0.1-1.3
			c-0.1-0.9-0.1-1.7-0.2-2.6c-0.1-0.5-0.1-0.9-0.2-1.3c0-1.3-0.3-2.6-0.3-3.9c-0.1-0.8-0.2-1.7-0.3-2.5c0-1.3-0.2-2.5-0.4-3.8
			c0-1.2-0.2-2.4-0.4-3.6c0-1.2-0.3-2.3-0.4-3.5c0-0.7-0.1-1.5-0.2-2.2c-0.1-0.7-0.1-1.4-0.2-2.1c-0.1-0.3-0.1-0.7-0.2-1
			c0-0.1,0.1-0.2,0.2-0.4c0.1-0.1,0.2-0.1,0.3-0.3c0.2-0.1,0.4-0.1,0.6-0.2c0.3-0.1,0.5-0.1,0.8-0.2c0.3-0.1,0.7-0.2,1-0.2
			c0.8-0.1,1.6-0.2,2.4-0.3c0.4,0,0.9,0,1.4-0.1c0.4,0,0.9,0,1.4,0c1.9-0.2,4-0.2,5.9,0c0.5,0,0.9,0,1.4,0.1c0.4,0,0.9,0,1.3,0.1
			c1,0,2.1,0.3,3.1,0.4c0.2,0.1,0.4,0.1,0.7,0.2c0.2,0.1,0.3,0.1,0.5,0.3c0.1,0.1,0.1,0.1,0.2,0.2c0.2,0.7,0.4,1.5,0.7,2.2
			c0.2,1.1,0.6,2.1,0.8,3.2c0.1,0.3,0.2,0.7,0.3,1.1c0.2,0.8,0.3,1.5,0.5,2.3c0.1,0.4,0.2,0.7,0.2,1.1c0.1,0.3,0.2,0.7,0.2,1.1
			c0.1,0.4,0.2,0.8,0.2,1.1c0.1,0.4,0.2,0.8,0.2,1.2c0.1,0.4,0.2,0.7,0.2,1.1c0.2,0.8,0.3,1.6,0.5,2.4c0.1,0.8,0.2,1.6,0.4,2.4
			c0.4,3.2,1.2,6.6,1.2,9.9c0.1,0.5,0.1,0.9,0.2,1.3c0.1,0.8,0.1,1.6,0.2,2.4c0.1,0.5,0.1,0.9,0.1,1.3c0.1,0.4,0.1,0.8,0.1,1.2
			c0.1,0.5,0.1,0.9,0.1,1.3c0.1,0.8,0.1,1.7,0.2,2.5c0,0.8,0,1.6,0.1,2.4c0,1.7,0.1,3.4-0.1,5.1c0,0.8,0,1.7,0,2.5
			c-0.1,0.8-0.1,1.6-0.2,2.4c0,0.4,0,0.8-0.1,1.2c0,0.4,0,0.8-0.1,1.2c0,0.8-0.1,1.6-0.2,2.4c0,2.2-0.3,5-1,7.1
			c-0.1,0.8-0.2,1.6-0.4,2.4c-0.1,0.3-0.1,0.7-0.2,1.1c-0.2,0.8-0.3,1.5-0.5,2.3c-0.1,0.3-0.2,0.7-0.3,1c-0.2,1.5-0.8,2.9-1.2,4.3
			c-0.3,0.7-0.5,1.4-0.7,2.1c-0.2,0.4-0.3,0.7-0.4,1c-0.2,0.3-0.3,0.6-0.4,1c-0.2,0.3-0.3,0.7-0.5,1c-0.1,0.3-0.2,0.7-0.4,1
			c-0.2,0.3-0.3,0.7-0.5,1c-0.2,0.6-0.5,1.3-0.9,1.8c-0.2,0.3-0.4,0.7-0.6,1c-0.3,0.6-0.7,1.2-1.1,1.8c-0.4,0.5-0.8,1.1-1.1,1.7
			c-0.4,0.6-0.8,1.1-1.2,1.6c-0.2,0.2-0.4,0.5-0.6,0.8c-0.6,0.7-1.3,1.5-2,2.1c-0.2,0.2-0.5,0.5-0.7,0.7c-0.2,0.2-0.5,0.5-0.7,0.7
			c-0.2,0.2-0.5,0.4-0.7,0.6c-0.5,0.4-1,0.8-1.5,1.2c-0.8,0.5-1.6,1-2.4,1.6c-0.3,0.2-0.6,0.3-0.9,0.4c-0.3,0.2-0.6,0.3-0.9,0.5
			c-0.3,0.1-0.6,0.3-0.9,0.4c-0.3,0.1-0.6,0.2-0.9,0.3c-0.3,0.1-0.7,0.2-1,0.3c-0.3,0.2-0.7,0.3-1,0.4c-0.7,0.3-1.3,0.5-2,0.6
			c-0.3,0.1-0.7,0.2-1,0.3c-1.7,0.5-3.8,0.9-5.5,0.9c-0.8,0.1-1.6,0.1-2.4,0.1c-0.8,0.1-1.6,0.1-2.4,0c-0.4,0-0.8,0-1.1,0
			c-0.4-0.1-0.8-0.1-1.2-0.1c-0.4-0.1-0.8-0.1-1.1-0.2c-1.1,0-2.3-0.2-3.3-0.5c-0.3-0.1-0.7-0.1-1.1-0.3c-0.3-0.1-0.7-0.1-1.1-0.3
			c-1.6-0.3-3.5-1-4.9-1.7c-0.3-0.1-0.6-0.3-0.9-0.4c-0.3-0.1-0.6-0.3-0.9-0.4c-0.3-0.2-0.6-0.3-0.9-0.5c-0.6-0.3-1.1-0.6-1.6-1
			c-0.6-0.3-1.1-0.7-1.6-1.1c-0.5-0.4-1-0.8-1.5-1.2c-0.4-0.5-0.9-0.9-1.4-1.3c-0.5-0.4-1-0.9-1.4-1.5c-0.5-0.5-0.9-1-1.3-1.5
			c-0.4-0.6-0.8-1.1-1.2-1.6c-0.2-0.3-0.4-0.6-0.6-0.9c-0.2-0.2-0.4-0.5-0.6-0.8c-0.2-0.3-0.4-0.6-0.6-0.9c-0.3-0.6-0.7-1.2-1-1.7
			c-0.3-0.6-0.7-1.3-1-1.9c-0.2-0.3-0.3-0.6-0.5-0.9c-0.2-0.3-0.3-0.7-0.4-1c-0.2-0.3-0.3-0.6-0.4-1c-0.2-0.3-0.3-0.6-0.4-1
			c-0.2-0.3-0.3-0.7-0.4-1c-0.3-0.7-0.5-1.3-0.7-2c-0.5-1-0.8-2.2-1-3.2c-0.2-0.7-0.4-1.5-0.7-2.2c-0.2-0.8-0.3-1.5-0.5-2.3
			c-0.2-0.8-0.3-1.5-0.5-2.3c-0.1-0.4-0.1-0.8-0.2-1.1c-0.6-2.2-1-4.9-1-7.2c-0.1-0.4-0.1-0.8-0.2-1.2c-0.1-0.8-0.1-1.6-0.2-2.4
			c-0.1-0.8-0.1-1.6-0.2-2.4c0-0.4,0-0.8-0.1-1.3c0-0.8,0-1.6,0-2.4c-0.2-1.6-0.2-3.5,0-5.1c0-0.8,0-1.7,0-2.5
			c0.1-0.8,0.1-1.7,0.2-2.5c0-0.4,0-0.8,0.1-1.3c0-0.4,0-0.8,0.1-1.2c0-0.4,0-0.8,0.1-1.3c0-0.4,0-0.8,0.1-1.2
			c0-0.9,0.1-1.7,0.2-2.5c0-3.5,0.6-7.8,1.5-11.2c0.1-0.8,0.2-1.6,0.4-2.4c0.1-0.4,0.1-0.8,0.2-1.2c0.2-0.8,0.3-1.6,0.5-2.4
			c0.1-0.4,0.1-0.7,0.2-1.1c0.1-0.4,0.1-0.8,0.2-1.2c0.2-0.8,0.3-1.5,0.5-2.3c0.1-0.4,0.2-0.8,0.2-1.1c0.1-0.4,0.2-0.8,0.3-1.1
			c0.1-0.8,0.3-1.5,0.6-2.3c0.1-0.7,0.3-1.5,0.6-2.2C295.5,388.6,295.6,388.5,295.7,388.4C295.8,388.3,295.6,388.5,295.7,388.4z"/>
		<path fill="#020202" d="M374.7,388.2c0.2-0.1,0.3-0.1,0.5-0.2c1.1-0.3,2.4-0.6,3.6-0.6c0.4-0.1,0.8-0.1,1.2-0.1
			c0.4-0.1,0.9-0.1,1.3-0.1c0.9-0.1,1.8-0.1,2.8-0.1c1.4-0.2,2.9-0.2,4.3,0c0.9,0,1.8,0,2.8,0.1c0.4,0,0.8,0,1.2,0.1
			c0.4,0,0.8,0,1.2,0.1c0.7,0,1.3,0.1,2,0.3c0.2,0,0.5,0,0.7,0.1c0.2,0.1,0.4,0.1,0.6,0.2c0.1,0.1,0.2,0.1,0.4,0.3
			c0.1,0,0.1,0.1,0.1,0.2c0.1,0.1,0.1,0.1,0.2,0.3c0.1,0.2,0.2,0.3,0.2,0.4c0.1,0.2,0.1,0.4,0.2,0.6c0.1,0.5,0.2,1.1,0.4,1.6
			c0.1,0.6,0.2,1.3,0.4,1.9c0.1,0.3,0.1,0.7,0.2,1.1c0.1,0.4,0.2,0.7,0.2,1.1c0.2,0.9,0.3,1.7,0.5,2.6c0.1,0.5,0.1,0.9,0.2,1.4
			c0.1,0.5,0.1,1,0.2,1.5c0.1,0.5,0.1,1,0.2,1.5c0.1,0.5,0.2,1,0.2,1.5c0.1,0.5,0.2,1,0.2,1.6c0.1,0.5,0.2,1.1,0.2,1.7
			c0.1,0.5,0.2,1,0.2,1.6c0.2,1.1,0.3,2.2,0.5,3.2c0.1,0.5,0.1,1,0.2,1.6c0.1,0.5,0.1,1.1,0.2,1.7c0.2,1,0.3,2,0.4,3.1
			c0.3,1.4,0.3,2.9,0.7,4.4c0.2,1.7,0.4,3.4,0.7,5.1c0,0.7,0.1,1.3,0.2,2c0,0.7,0.1,1.5,0.2,2.2c0,0.2,0,0.3,0.1,0.5
			c0,0.1,0,0.2,0,0.3c0.1,0.1,0.1,0.1,0.1,0.2v0.1v-0.1c0-0.1,0-0.1,0.1-0.2c0-0.1,0-0.2,0.1-0.3c0.1-0.2,0.1-0.3,0.2-0.4
			c0.1-0.2,0.1-0.4,0.2-0.6c0.1-0.2,0.1-0.5,0.2-0.7c0.1-0.3,0.1-0.6,0.2-0.8c0.1-0.4,0.2-0.7,0.2-1c0.4-1.1,0.6-2.2,1.1-3.2
			c0.1-0.4,0.2-0.8,0.3-1.2c0.2-0.4,0.3-0.8,0.4-1.2c0.2-0.5,0.3-0.9,0.5-1.3c0.2-0.9,0.5-1.9,0.9-2.8c1.4-6.9,4.9-13.2,6.8-19.9
			c0.2-0.3,0.3-0.7,0.5-1.1c0.1-0.3,0.2-0.7,0.4-1c0.2-0.6,0.5-1.2,0.8-1.8c0.1-0.2,0.2-0.5,0.3-0.8c0.1-0.2,0.2-0.4,0.3-0.6
			c0.1-0.2,0.2-0.4,0.3-0.6c0.1-0.1,0.2-0.3,0.2-0.4c0.1,0,0.5-0.6,0.7-0.4c0.1,0,0.1,0,0.2,0.1c0.1,0.1,0.2,0.1,0.2,0.3
			c0.1,0.1,0.2,0.2,0.2,0.3c0.1,0.2,0.2,0.4,0.2,0.6c0.4,0.7,0.6,1.5,1.1,2.3c0.1,0.3,0.2,0.6,0.3,1c0.2,0.4,0.3,0.7,0.4,1
			c0.2,0.4,0.3,0.7,0.4,1.1c0.2,0.4,0.3,0.8,0.4,1.2c0.4,0.8,0.7,1.7,0.9,2.6c1,3,2,5.9,2.9,8.9c0.6,2.6,1.7,5,2.3,7.6
			c0.2,0.5,0.3,1,0.5,1.5c0.1,0.5,0.2,0.9,0.4,1.4c0.1,0.5,0.2,0.9,0.4,1.4c0.1,0.5,0.2,0.9,0.4,1.4c0.1,0.4,0.2,0.8,0.3,1.2
			c0.4,1,0.8,2.2,1,3.3c0.1,0.3,0.2,0.7,0.3,1c0.1,0.3,0.1,0.6,0.2,0.9c0.1,0.5,0.2,0.9,0.4,1.3c0,0.2,0,0.4,0.1,0.5
			c0.1,0.1,0.1,0.2,0.2,0.3c0,0.1,0,0.2,0.1,0.3v-0.1c0-0.2,0-0.4,0.1-0.5c0-0.2,0-0.4,0-0.5c0.1-0.2,0.1-0.4,0.1-0.6
			c0.1-0.2,0.1-0.5,0.2-0.7c0-0.3,0-0.6,0.1-0.8c0.1-0.4,0.1-0.7,0.2-1c0-1.9,0.4-4.1,0.8-5.9c0.1-0.9,0.2-1.9,0.3-2.8
			c0.2-1,0.3-2,0.5-3.1c0.1-0.5,0.1-1,0.2-1.6c0.1-0.5,0.2-1,0.2-1.6c0.1-0.5,0.2-1,0.2-1.6c0.2-1.1,0.3-2.2,0.5-3.2
			c0.1-0.5,0.1-1,0.2-1.6c0.1-0.5,0.1-1,0.2-1.6c0.1-0.5,0.1-1,0.2-1.6c0.1-0.5,0.1-1,0.2-1.6c0.1-0.5,0.1-1,0.2-1.5
			c0.1-0.5,0.1-1,0.2-1.5c0.1-0.5,0.1-1,0.2-1.5c0.1-0.5,0.1-0.9,0.2-1.3c0.1-0.5,0.1-0.9,0.2-1.3c0.1-0.8,0.3-1.6,0.5-2.4
			c0.1-0.3,0.1-0.7,0.2-1c0.3-0.9,0.3-1.9,0.7-2.7c0.1-0.4,0.2-0.9,0.3-1.3c0.1-0.1,0.1-0.3,0.2-0.4c0-0.1,0-0.2,0.1-0.3
			c0.1-0.1,0.1-0.2,0.2-0.2c0.1-0.1,0.2-0.2,0.3-0.3c0.2-0.1,0.4-0.1,0.6-0.2c0.9-0.2,1.9-0.4,2.8-0.5c0.8-0.1,1.6-0.1,2.4-0.2
			c0.5-0.1,0.9-0.1,1.4-0.1c0.5-0.1,1-0.1,1.5-0.1c1-0.1,2-0.1,2.9-0.2c1.4,0,2.8,0,4.2,0c0.8,0.1,1.6,0.1,2.4,0.2
			c0.3,0,0.7,0,1.1,0.1c0.5,0,1,0.1,1.5,0.3c0.2,0,0.3,0.1,0.5,0.2c0.1,0,0.1,0.1,0.2,0.2v0.1c0,0.1,0,0.1,0.1,0.1
			c0,1.1,0,2.3,0,3.4c-0.2,0.7-0.1,1.5-0.1,2.2c-0.1,0.6-0.1,1.1-0.1,1.7c-0.1,0.6-0.1,1.2-0.1,1.8c-0.1,0.7-0.1,1.4-0.2,2.1
			c0,0.3,0,0.7,0,1c-0.1,0.4-0.1,0.8-0.1,1.1c-0.1,0.8-0.1,1.6-0.2,2.4c0,0.4,0,0.8-0.1,1.2c0,0.4,0,0.8-0.1,1.2
			c0,0.5,0,0.9-0.1,1.3c0,0.4,0,0.8-0.1,1.3c0,0.5,0,0.9-0.1,1.3c0,0.5,0,0.9-0.1,1.4c0,0.5,0,0.9-0.1,1.4c-0.1,1-0.1,1.9-0.2,2.9
			c-0.1,0.5-0.1,1-0.1,1.5c-0.1,0.5-0.1,1-0.2,1.5c0,0.5,0,1-0.1,1.5c-0.1,1-0.1,2-0.2,3.1c-0.1,0.5-0.1,1-0.2,1.6
			c-0.1,1-0.1,2-0.2,3.1c-0.1,0.5-0.1,1.1-0.2,1.7c-0.1,1-0.1,2.1-0.2,3.1c-0.1,1.1-0.2,2.2-0.2,3.2c-0.1,1-0.2,2.1-0.2,3.1
			c-0.1,0.6-0.1,1.1-0.2,1.7c0,1.1-0.1,2.1-0.2,3.1c0,1.1-0.1,2.2-0.2,3.2c0,1.1-0.1,2.1-0.2,3.1c0,1-0.1,2-0.2,3.1
			c0,1-0.1,2-0.2,3.1c0,1-0.1,2-0.2,3.1c0,1-0.1,1.9-0.2,2.9c0,0.9-0.1,1.9-0.2,2.8c-0.1,0.9-0.1,1.8-0.2,2.7
			c-0.1,0.5-0.1,0.9-0.2,1.3c0,0.9-0.1,1.8-0.2,2.6c0,0.8-0.1,1.6-0.2,2.4c-0.1,0.4-0.1,0.8-0.2,1.1c-0.1,0.8-0.1,1.5-0.2,2.3
			c-0.1,0.3-0.1,0.7-0.1,1c-0.1,0.3-0.1,0.6-0.2,1c0,0.3,0,0.6-0.1,1c-0.1,0.6-0.1,1.2-0.2,1.8c-0.1,0.3-0.1,0.6-0.1,0.9
			c-0.1,0.2-0.1,0.5-0.1,0.8c-0.1,0.2-0.1,0.5-0.1,0.7c-0.1,0.2-0.1,0.4-0.1,0.6c-0.1,0.2-0.1,0.5-0.1,0.7c-0.1,0.2-0.1,0.3-0.1,0.5
			c-0.1,0.2-0.1,0.3-0.1,0.5c-0.1,0.1-0.1,0.3-0.1,0.4c0,0.2-0.1,0.5-0.2,0.7c0,0.1,0,0.2,0,0.3c-0.1,0.1-0.1,0.2-0.2,0.3v0.1
			c-0.1,0.1-0.2,0.1-0.3,0.1c-0.1,0.1-0.2,0.1-0.4,0.2c-0.2,0.1-0.4,0.1-0.7,0.1c-0.3,0.1-0.5,0.1-0.7,0.1c-0.3,0.1-0.7,0.1-1,0.1
			c-0.7,0.1-1.5,0.1-2.2,0.2c-0.4,0-0.8,0-1.2,0c-4.5,0.5-9.9,0.5-14.4,0c-1.2,0-2.3,0-3.5,0c-1.1-0.2-2.2-0.1-3.3-0.1h-0.1
			c-0.1-0.2-0.2-0.4-0.3-0.6c-0.2-0.4-0.3-0.7-0.5-1.1c-0.1-0.3-0.1-0.6-0.2-0.8c-0.1-0.3-0.2-0.6-0.2-0.9c-0.1-0.3-0.2-0.7-0.3-1
			c-0.2-0.8-0.3-1.5-0.5-2.3c-0.2-0.9-0.4-1.7-0.6-2.6c-0.2-1-0.4-2-0.7-3c-0.2-1.6-0.6-3.1-0.9-4.6c-0.2-1.6-0.7-3.1-0.8-4.7
			c-0.2-1-0.4-2.1-0.6-3.1c-0.1-0.5-0.2-1-0.3-1.6c-0.1-0.5-0.1-1-0.2-1.5c-0.1-0.5-0.1-0.9-0.2-1.4c-0.1-0.5-0.1-0.9-0.2-1.4
			c-0.1-0.4-0.1-0.8-0.2-1.3c-0.1-0.8-0.2-1.6-0.4-2.4c-0.1-0.6-0.2-1.3-0.3-1.9c0-0.3,0-0.6-0.1-0.9c-0.1-0.2-0.1-0.4-0.2-0.6
			c0-0.2,0-0.4-0.1-0.6c0-0.1,0-0.2-0.1-0.4c0-0.1,0-0.2,0-0.3v-0.1v0.1c0,0.1,0,0.1-0.1,0.3c0,0.1,0,0.3-0.1,0.4
			c0,0.2,0,0.3-0.1,0.5c-0.1,0.2-0.1,0.5-0.1,0.8c-0.4,1.7-0.6,3.6-0.8,5.3c-0.1,0.4-0.2,0.8-0.2,1.3c-0.2,1-0.3,1.9-0.5,2.9
			c-0.1,0.5-0.1,1-0.2,1.6c-0.2,1-0.3,2.1-0.5,3.1c-0.1,0.5-0.2,1.1-0.3,1.7c-0.2,1.1-0.3,2.2-0.5,3.2c-0.1,0.5-0.2,1-0.3,1.6
			c-0.2,1-0.3,2.1-0.5,3.1c-0.1,0.5-0.2,1-0.3,1.5c-0.2,1-0.3,1.9-0.5,2.9c-0.1,0.4-0.2,0.8-0.2,1.3c-0.1,0.4-0.2,0.8-0.2,1.2
			c-0.2,0.7-0.3,1.5-0.5,2.2c-0.1,0.3-0.1,0.6-0.2,0.9c-0.2,0.5-0.3,1-0.4,1.5c-0.1,0.2-0.1,0.3-0.2,0.5c-0.1,0.1-0.1,0.2-0.2,0.3
			c0,0.2-0.1,0.3-0.3,0.3c-0.2,0.1-0.3,0.1-0.4,0.2c-0.2,0-0.4,0-0.6,0.1c-0.2,0.1-0.5,0.1-0.7,0.1c-0.3,0.1-0.5,0.1-0.8,0.2
			c-0.3,0-0.7,0-1,0.1c-0.4,0-0.7,0-1.1,0.1c-0.4,0-0.8,0-1.2,0.1c-0.4,0-0.8,0-1.2,0.1c-0.4,0-0.9,0-1.3,0.1c-0.5,0-1,0-1.4,0
			c-0.5,0.1-1,0.1-1.5,0.1c-1.4,0.2-2.9,0-4.3,0.2c-2.3,0-4.6,0-6.8,0c-0.8-0.1-1.5-0.1-2.3-0.2c-0.3,0-0.7,0-1,0
			c-0.3-0.1-0.6-0.1-0.9-0.1c-0.2-0.1-0.5-0.1-0.7-0.1c-0.2-0.1-0.4-0.1-0.6-0.2c-0.1,0-0.2,0-0.4-0.1c-0.1-0.1-0.2-0.1-0.2-0.2
			c-0.1,0-0.1,0-0.1-0.1v-0.1c-0.1-0.1-0.1-0.2-0.1-0.3c-0.1-0.1-0.1-0.1-0.1-0.3c-0.1-0.3-0.1-0.5-0.2-0.8c0-0.1,0-0.3-0.1-0.4
			c0-0.2,0-0.3-0.1-0.5c0-0.2,0-0.4-0.1-0.5c-0.1-0.2-0.1-0.4-0.1-0.6c-0.1-0.2-0.1-0.5-0.1-0.7c-0.1-0.2-0.1-0.5-0.2-0.8
			c-0.1-0.5-0.1-1-0.2-1.6c-0.1-0.3-0.1-0.6-0.2-0.9c-0.1-0.6-0.1-1.3-0.2-1.9c-0.1-0.7-0.2-1.4-0.2-2.1c-0.1-0.7-0.2-1.5-0.3-2.2
			c0-1.2-0.3-2.4-0.4-3.6c0-1.8-0.5-3.5-0.5-5.3c-0.3-2.4-0.7-4.8-0.7-7.2c-0.3-3.1-0.7-6.2-1-9.3c0-3.7-1-7.5-1-11.2
			c-0.3-2.7-0.7-5.4-0.7-8c-0.2-1.6-0.3-3.2-0.5-4.8c0-1.6-0.3-3.1-0.3-4.6c-0.1-1-0.2-2-0.2-3.1c-0.1-1-0.2-1.9-0.2-2.9
			c-0.1-1-0.2-1.9-0.2-2.9c-0.1-0.5-0.1-0.9-0.2-1.4c-0.1-0.9-0.1-1.8-0.2-2.7c-0.1-0.5-0.1-0.9-0.1-1.3c-0.1-0.4-0.1-0.8-0.2-1.3
			c0-0.4,0-0.8-0.1-1.2c0-0.4,0-0.8-0.1-1.2c0-0.4,0-0.7-0.1-1.1c0-0.4,0-0.8-0.1-1.1c0-0.4,0-0.8-0.1-1.1c0-0.4,0-0.7-0.1-1
			c0-0.4,0-0.7,0-1c0-0.6-0.1-1.2-0.2-1.8c0-0.3,0-0.7,0-1c-0.1-0.5-0.1-1-0.1-1.6c-0.2-0.7-0.1-1.4-0.1-2.1
			c-0.2-0.8-0.1-1.8-0.1-2.6c0.1-0.1,0-0.4,0.2-0.4C374.5,388.3,374.6,388.2,374.7,388.2C374.8,388.1,374.6,388.2,374.7,388.2z"/>
		<path fill="#020202" d="M465.9,488.8L465.9,488.8c0-0.3-0.1-0.9,0.1-1c0-0.2,0-0.3,0.1-0.4c0-0.1,0-0.3,0-0.4
			c0.1-0.2,0.1-0.3,0.2-0.5c0.1-0.4,0.1-0.8,0.2-1.1c0.4-1.2,0.6-2.4,0.8-3.7c0.2-0.6,0.3-1.2,0.5-1.7c0.1-0.3,0.1-0.6,0.2-1
			c0.1-0.3,0.2-0.6,0.2-1c0.1-0.4,0.2-0.7,0.2-1c0.1-0.4,0.2-0.7,0.3-1c0.2-0.7,0.3-1.5,0.5-2.2c0.2-0.8,0.4-1.6,0.7-2.4
			c0.3-2.1,1.1-4.3,1.5-6.4c0.5-1.3,0.7-2.7,1.1-4.1c0.3-0.9,0.5-1.9,0.8-2.8c0.1-0.5,0.2-1,0.3-1.5c0.3-1,0.5-1.9,0.8-2.9
			c0.1-0.5,0.2-1,0.3-1.5c0.2-0.5,0.3-1,0.4-1.6c0.2-0.5,0.3-1,0.4-1.5c0.2-0.5,0.3-1,0.4-1.5c0.2-0.5,0.3-1,0.4-1.6
			c0.2-0.5,0.3-1,0.4-1.5c0.2-0.5,0.3-1,0.4-1.6c0.2-0.5,0.3-1,0.4-1.5c0.2-0.5,0.3-1,0.4-1.6c0.2-0.5,0.3-1,0.4-1.5
			c0.2-0.5,0.3-1,0.4-1.6c0.2-0.5,0.3-1,0.4-1.6c0.2-0.5,0.3-1,0.5-1.5c0.1-0.5,0.2-1,0.4-1.6c0.1-0.5,0.2-1,0.4-1.5
			c0.1-0.5,0.2-1,0.4-1.6c0.1-0.5,0.2-1,0.4-1.5c0.1-0.5,0.2-1,0.4-1.5c0.1-0.5,0.2-1,0.4-1.5c0.1-0.5,0.2-1,0.4-1.5
			c0.1-0.5,0.2-1,0.4-1.5c0.1-0.5,0.2-1,0.4-1.5c0.1-0.5,0.2-0.9,0.3-1.4c0.2-0.5,0.3-0.9,0.4-1.4c0.3-0.9,0.5-1.9,0.8-2.8
			c0.1-0.5,0.2-0.9,0.3-1.4c0.3-0.9,0.5-1.7,0.7-2.6c0.6-1.6,0.8-3.4,1.5-5c0.3-1.2,0.7-2.3,1-3.5c0.2-1.1,0.6-2.1,0.8-3.1
			c0.2-0.6,0.4-1.2,0.6-1.8c0.1-0.4,0.2-0.7,0.2-1c0.1-0.3,0.2-0.6,0.2-0.8c0.1-0.3,0.2-0.6,0.2-0.9c0.2-0.5,0.3-1,0.5-1.5
			c0.1-0.4,0.2-0.8,0.4-1.2c0.1-0.5,0.3-1.1,0.5-1.6c0-0.3,0.1-0.5,0.2-0.8c0-0.1,0-0.2,0.1-0.4c0.1-0.1,0.1-0.1,0.1-0.3
			c0.1-0.1,0.1-0.2,0.2-0.4v-0.1c0.1-0.1,0.2-0.1,0.3-0.2c0.2-0.1,0.3-0.1,0.5-0.2c0.2-0.1,0.5-0.1,0.7-0.1c0.3-0.1,0.5-0.1,0.8-0.2
			c0.4,0,0.7,0,1.1-0.1c0.4,0,0.8,0,1.1-0.1c0.4,0,0.9,0,1.3-0.1c0.9,0,1.8,0,2.8-0.1c1.4,0,2.9,0,4.3,0c1.4,0.2,2.7,0,4.1,0.2
			c0.4,0,0.8,0,1.1,0.1c0.4,0,0.7,0,1.1,0c0.3,0.1,0.6,0.1,0.9,0.1c0.3,0.1,0.5,0.1,0.7,0.1c0.2,0.1,0.4,0.1,0.6,0.2
			c0.1,0,0.2,0,0.3,0.1v0.1c0.1,0,0.1,0,0.1,0.1c0.1,0.1,0.1,0.1,0.1,0.2c0.1,0.1,0.1,0.1,0.1,0.3c0.1,0.1,0.1,0.2,0.2,0.3
			c0,0.1,0,0.2,0.1,0.4c0.1,0.2,0.1,0.3,0.2,0.4c0.2,0.5,0.3,1.1,0.5,1.6c0.1,0.2,0.1,0.4,0.2,0.6c0.2,0.5,0.3,0.9,0.5,1.4
			c0.1,0.3,0.1,0.6,0.2,0.8c0.1,0.3,0.2,0.6,0.2,0.9c0.1,0.3,0.2,0.6,0.2,0.9c0.1,0.3,0.2,0.6,0.3,0.9c0.2,0.6,0.3,1.3,0.5,1.9
			c0.3,1.1,0.7,2.1,0.9,3.2c0.5,1.6,0.9,3.1,1.3,4.7c0.5,1.2,0.7,2.6,1.1,3.8c0.3,0.9,0.5,1.8,0.7,2.7c0.3,0.9,0.5,1.9,0.8,2.8
			c0.1,0.5,0.2,1,0.3,1.5c0.2,0.5,0.3,0.9,0.4,1.4c0.3,1,0.5,2,0.8,3c0.1,0.5,0.2,1,0.4,1.5c0.1,0.5,0.2,1,0.4,1.5
			c0.1,0.5,0.2,1,0.4,1.6c0.1,0.5,0.2,1,0.4,1.5c0.1,0.5,0.2,1,0.3,1.6c0.2,0.5,0.3,1,0.4,1.5c0.2,0.5,0.3,1,0.5,1.6
			c0.1,0.5,0.2,1,0.4,1.6c0.1,0.5,0.2,1,0.4,1.6c0.1,0.5,0.2,1,0.4,1.6c0.1,0.5,0.2,1,0.4,1.6c0.1,0.5,0.2,1,0.4,1.6
			c0.1,0.5,0.2,1,0.4,1.6c0.1,0.5,0.2,1,0.4,1.5c0.1,0.5,0.2,1,0.3,1.6c0.2,0.5,0.3,1,0.4,1.6c0.2,0.5,0.3,1,0.4,1.6
			c0.2,0.5,0.3,1,0.4,1.5c0.3,1,0.5,2,0.8,3.1c0.1,0.5,0.2,1,0.3,1.5c0.3,1,0.5,2,0.8,3c0.2,1,0.4,1.9,0.7,2.9
			c0.2,0.9,0.4,1.9,0.7,2.8c0.9,2.4,1.6,5.3,2,7.9c0.2,0.8,0.4,1.6,0.7,2.4c0.1,0.8,0.3,1.5,0.6,2.3c0.1,0.3,0.1,0.7,0.2,1
			c0.1,0.4,0.1,0.7,0.2,1c0.1,0.4,0.1,0.7,0.2,1c0.1,0.3,0.1,0.7,0.2,1c0.1,0.6,0.2,1.2,0.4,1.8c0.2,1.3,0.5,2.5,0.8,3.8
			c0.1,0.2,0.1,0.3,0.2,0.5c0,0.4,0.1,0.7,0.2,1c0.1,0.2,0.1,0.3,0.1,0.4c0,0.2,0.1,0.5,0.2,0.7c0,0.2-0.1,0.5,0.1,0.7h-0.1
			c-0.1,0.1-0.1,0.2-0.2,0.3c-0.1,0.1-0.2,0.1-0.4,0.2c-0.2,0.1-0.4,0.1-0.6,0.1c-0.3,0.1-0.5,0.1-0.8,0.2c-0.3,0-0.6,0-0.9,0.1
			c-0.4,0.1-0.7,0.1-1.1,0.1c-0.8,0.1-1.6,0.1-2.4,0.2c-2.8,0-5.7,0-8.5,0c-0.9-0.1-1.8-0.1-2.8-0.2c-0.4,0-0.9,0-1.3,0
			c-0.4-0.1-0.8-0.1-1.2-0.1c-0.3-0.1-0.7-0.1-1.1-0.1c-0.3-0.1-0.6-0.1-0.9-0.2c-0.5,0-1-0.1-1.5-0.3c-0.4,0-0.6-0.2-0.8-0.4
			c-0.1-0.2-0.1-0.3-0.2-0.4c-0.1-0.2-0.1-0.4-0.2-0.6c-0.2-0.5-0.3-1.1-0.5-1.7c-0.2-0.8-0.4-1.5-0.6-2.3
			c-0.7-5.4-2.9-10.7-3.4-16.2c-0.2-0.9-0.4-1.7-0.6-2.6c-0.1-0.4-0.2-0.8-0.2-1.2c-0.3-1-0.3-2-0.7-3c0-0.2,0-0.5-0.1-0.7
			c-0.1-0.2-0.1-0.3-0.2-0.4c0-0.2,0-0.4-0.1-0.5c-0.1,0-0.2,0-0.4-0.1c-0.2,0-0.4,0-0.7-0.1c-0.7-0.1-1.5-0.1-2.2-0.2
			c-0.4,0-0.9,0-1.3,0c-1.8-0.2-3.8-0.2-5.6,0c-0.7,0-1.5,0.1-2.2,0.3c-0.2,0.1-0.5,0.1-0.7,0.3c-0.2,0.1-0.3,0.1-0.4,0.3v0.1
			c-0.1,0.1-0.1,0.2-0.1,0.3c-0.1,0.2-0.1,0.3-0.1,0.5c-0.2,0.9-0.3,1.8-0.6,2.6c-0.1,0.3-0.1,0.7-0.2,1.1c-0.1,0.4-0.2,0.8-0.2,1.2
			c-0.1,0.5-0.2,0.9-0.3,1.4c-0.5,4.1-1.7,8.3-2.5,12.3c-0.2,1.8-0.9,3.6-1.1,5.4c-0.1,0.4-0.2,0.8-0.3,1.1c-0.1,0.3-0.1,0.7-0.2,1
			c-0.1,0.3-0.1,0.6-0.2,0.8c-0.1,0.2-0.2,0.5-0.2,0.7c-0.1,0.2-0.1,0.3-0.2,0.4c0,0.1,0,0.2-0.1,0.3c-0.1,0.1-0.2,0.2-0.2,0.2
			c-0.2,0.1-0.3,0.1-0.5,0.2c-1.2,0.3-2.4,0.6-3.6,0.6c-0.4,0.1-0.8,0.1-1.2,0.2c-0.9,0.1-1.8,0.1-2.7,0.2c-0.4,0.1-0.9,0.1-1.4,0.1
			c-1.5,0.2-2.9,0-4.4,0.2c-0.9,0-1.8,0-2.8-0.1c-0.4,0-0.9,0-1.3,0c-0.4-0.1-0.8-0.1-1.2-0.1c-0.4-0.1-0.8-0.1-1.1-0.1
			c-0.3-0.1-0.6-0.1-0.9-0.2c-0.5,0-1-0.1-1.5-0.4c-0.2-0.1-0.3-0.1-0.5-0.2C466,489,465.9,488.9,465.9,488.8z M507.8,448.7
			c0.1-0.1,0-0.3-0.1-0.5c-0.1-0.2-0.1-0.3-0.1-0.5c-0.1-0.5-0.2-0.9-0.3-1.4c0-1.1-0.4-2.4-0.6-3.5c-0.3-1-0.4-2.1-0.6-3.1
			c-0.2-0.8-0.3-1.5-0.5-2.3c-0.1-0.8-0.2-1.6-0.4-2.4c-0.1-0.4-0.1-0.8-0.2-1.2c-0.2-0.8-0.3-1.7-0.5-2.5c-0.1-0.5-0.1-0.9-0.2-1.3
			c-0.2-0.9-0.3-1.7-0.4-2.6c-0.3-1.3-0.3-2.6-0.7-3.8c-0.1-0.5-0.1-0.9-0.2-1.3c-0.2-0.4-0.2-0.8-0.2-1.3c-0.1-1.6-0.2-1.6-0.3,0
			c0,0.4-0.1,0.8-0.2,1.3c-0.1,0.4-0.2,0.8-0.2,1.3c0,1.3-0.4,2.8-0.7,4c-0.1,0.5-0.1,0.9-0.2,1.4c-0.1,0.4-0.1,0.8-0.2,1.3
			c-0.1,0.5-0.1,0.9-0.2,1.4c-0.1,0.4-0.1,0.8-0.2,1.3c-0.1,0.5-0.1,0.9-0.2,1.3c-0.1,0.5-0.1,0.9-0.2,1.3c-0.1,0.4-0.1,0.8-0.2,1.3
			c-0.1,0.4-0.1,0.8-0.2,1.2c-0.2,0.8-0.3,1.6-0.5,2.4c-0.1,0.4-0.1,0.8-0.2,1.1c-0.3,1-0.3,2.1-0.7,3.1c-0.1,0.6-0.2,1.2-0.3,1.7
			c0,0.7-0.2,1.8-0.4,2.5c-0.4,0.8,0.8,0.5,1.2,0.6c0.4,0,0.8,0,1.1,0c0.9-0.1,1.7-0.1,2.6-0.1c0.5-0.1,0.9-0.1,1.4-0.1
			c0.4-0.1,0.9-0.1,1.3-0.2c0.3,0,0.7,0,1.1-0.1C506.9,449,507.3,448.9,507.8,448.7C507.8,448.6,507.7,448.8,507.8,448.7z"/>
	</g>
</g>
</svg>
