<?xml version="1.0" encoding="utf-8"?>
<!-- Generator: Adobe Illustrator 18.0.0, SVG Export Plug-In . SVG Version: 6.00 Build 0)  -->
<!DOCTYPE svg PUBLIC "-//W3C//DTD SVG 1.0//EN" "http://www.w3.org/TR/2001/REC-SVG-20010904/DTD/svg10.dtd">
<svg version="1.0" id="Camada_1" xmlns="http://www.w3.org/2000/svg" xmlns:xlink="http://www.w3.org/1999/xlink" x="0px" y="0px"
	 viewBox="120 314 669 222" enable-background="new 120 314 669 222" xml:space="preserve">
<path fill="#1B7C09" d="M213,388.7c0.1-0.1,0.1-0.2,0.2-0.3c0.7-0.8,2.6-0.8,3.6-1c0.4,0,0.8,0,1.1-0.1c0.4,0,0.8,0,1.1-0.1
	c0.4,0,0.9,0,1.3,0c1.4-0.2,2.8-0.1,4.1-0.1c0.9,0.1,1.8,0.1,2.8,0.2c0.9,0,1.8,0.1,2.7,0.3c0.8,0,1.6,0.1,2.4,0.3
	c0.7,0.1,1.3,0.3,2,0.5c0.3,0.1,0.5,0.1,0.8,0.3c0.2,0.1,0.4,0.1,0.7,0.3c0.4,0.2,0.6,0.5,0.9,0.8c0.9,1,1.4,2.2,2,3.4
	c0.2,0.4,0.4,0.8,0.6,1.1c0.6,1.3,1.1,2.7,1.7,4c0.2,0.5,0.4,1,0.6,1.5c0.2,0.5,0.4,0.9,0.6,1.4c0.3,1,0.7,1.9,1.1,2.9
	c0.3,0.9,0.6,1.7,0.9,2.6c0.2,0.4,0.3,0.8,0.5,1.2c0.1,0.4,0.2,0.8,0.3,1.1c0.2,0.3,0.3,0.7,0.4,1c0.1,0.3,0.1,0.6,0.2,0.9
	c0.1,0.2,0.2,0.5,0.2,0.7c0.1,0.2,0.1,0.3,0.2,0.5c0.1,0.1,0.1,0.2,0.2,0.4v0.2c0-0.1,0-0.1,0.1-0.2c0-0.1,0-0.2,0.1-0.3
	c0.1-0.2,0.2-0.4,0.2-0.5c0.1-0.2,0.2-0.5,0.3-0.7c0.1-0.3,0.2-0.6,0.3-0.9c0.6-1,1-2.1,1.5-3.2c1.3-2.8,2.4-5.7,3.9-8.3
	c0.8-1.8,1.7-3.5,2.6-5.2c0.2-0.4,0.4-0.8,0.6-1.1c0.2-0.3,0.4-0.7,0.6-1c0.2-0.3,0.3-0.6,0.5-0.9c0.2-0.4,0.5-0.9,0.8-1.2
	c0.1-0.1,0.2-0.2,0.3-0.3c0.2-0.1,0.3-0.2,0.4-0.3c0.2-0.1,0.4-0.1,0.7-0.3c0.3-0.1,0.5-0.1,0.7-0.2c1.4-0.3,2.9-0.6,4.4-0.6
	c0.4-0.1,0.9-0.1,1.3-0.2c0.4,0,0.9,0,1.4,0c1.8-0.2,3.7-0.1,5.5-0.1c0.4,0.1,0.9,0.1,1.3,0.1c0.4,0.1,0.8,0.1,1.2,0.2
	c1,0,2.1,0.2,3.1,0.4c0.3,0.1,0.5,0.2,0.7,0.3c0.2,0.1,0.4,0.2,0.7,0.3c0.2,0.1,0.3,0.2,0.4,0.4c0.1,0.1,0.1,0.3,0.2,0.4
	c0,0.2,0,0.3,0,0.4c-0.1,0.1-0.1,0.3-0.1,0.4c-0.1,0.2-0.1,0.3-0.1,0.5c-0.1,0.5-0.2,0.9-0.4,1.4c-0.1,0.2-0.1,0.5-0.2,0.8
	c-0.1,0.3-0.2,0.6-0.3,0.8c-0.1,0.4-0.2,0.7-0.2,1c-0.3,0.6-0.6,1.3-0.7,2c-0.2,0.4-0.3,0.7-0.4,1c-0.2,0.4-0.3,0.8-0.5,1.1
	c-0.6,2.2-1.6,4.4-2.5,6.4c-0.2,0.4-0.4,0.8-0.6,1.3c-0.2,0.5-0.4,0.9-0.6,1.4c-0.4,0.9-0.8,1.9-1.1,2.8c-0.5,0.9-0.9,1.8-1.2,2.8
	c-1.5,3.2-2.9,6.5-4.4,9.8c-0.2,0.4-0.4,0.8-0.6,1.3c-0.2,0.4-0.4,0.8-0.6,1.2c-0.2,0.4-0.4,0.8-0.6,1.3c-0.2,0.4-0.4,0.8-0.6,1.2
	c-0.7,1.5-1.4,2.9-2,4.4c-0.1,0.3-0.2,0.6-0.4,1c-0.3,0.6-0.5,1.2-0.8,1.7c-0.3,0.7-0.6,1.4-1,2c-0.1,0.2-0.1,0.4-0.2,0.5
	c-0.1,0.3-0.2,0.8-0.5,1c0,0.1,0,0.1-0.1,0.2c0,0.1,0,0.1,0.1,0.1c0,0.1,0,0.1,0.1,0.2c0,0.1,0,0.1,0.1,0.2c0.1,0.1,0.2,0.2,0.2,0.3
	c0.1,0.2,0.1,0.3,0.2,0.4c0.2,0.3,0.4,0.7,0.7,1c0.1,0.2,0.2,0.5,0.4,0.7c0.1,0.2,0.2,0.5,0.4,0.7c0.2,0.3,0.3,0.6,0.5,0.8
	c0.5,0.9,1.1,1.9,1.5,2.8c0.2,0.3,0.4,0.7,0.7,1c0.2,0.4,0.4,0.8,0.6,1.1c0.7,1.1,1.3,2.3,2,3.4c0.2,0.5,0.5,0.9,0.7,1.3
	c0.2,0.4,0.5,0.8,0.7,1.2c0.2,0.4,0.5,0.8,0.7,1.3c0.7,1.3,1.6,2.6,2.2,3.9c0.3,0.5,0.5,0.9,0.7,1.3c0.3,0.5,0.5,0.9,0.8,1.4
	c0.2,0.4,0.5,0.8,0.7,1.3c0.5,0.9,1,1.8,1.5,2.7c1,1.7,1.8,3.6,2.8,5.2c1.4,2.7,2.7,5.4,4,8.1c0.2,0.3,0.3,0.6,0.5,1
	c0.1,0.3,0.2,0.6,0.3,0.9c0.3,0.5,0.5,1.1,0.7,1.7c0.1,0.3,0.1,0.6,0.2,0.8c0.1,0.2,0.1,0.5,0.2,0.7c0.1,0.3,0.2,0.7,0.2,1
	c0.1,0.3,0.1,0.5,0.1,0.8c-0.1,0.1-0.1,0.2-0.1,0.3c-0.1,0.1-0.2,0.2-0.3,0.3c-0.1,0.2-0.2,0.3-0.4,0.4c-0.2,0.2-0.4,0.3-0.7,0.3
	c-0.5,0.3-1.1,0.5-1.6,0.7c-0.3,0.1-0.7,0.1-1,0.3c-0.3,0.1-0.7,0.1-1.1,0.3c-0.4,0.1-0.8,0.1-1.2,0.3c-2.2,0.3-4.5,0.8-6.7,0.8
	c-0.5,0.1-1,0.1-1.5,0.1c-0.9,0.1-1.8,0.1-2.8,0.2c-0.9,0-1.8,0-2.7,0c-0.8,0-1.6-0.1-2.4-0.2c-0.7,0-1.4-0.1-2.1-0.2
	c-0.6-0.1-1.2-0.2-1.7-0.4c-0.2-0.1-0.4-0.1-0.6-0.2c-0.2-0.1-0.3-0.2-0.5-0.3c-0.2-0.2-0.5-0.5-0.7-0.8c-0.2-0.2-0.3-0.5-0.4-0.7
	c-0.7-1.3-1.5-2.7-2.1-4.1c-1.1-2.3-2.2-4.5-3.3-6.7c-0.4-0.9-0.8-1.7-1.1-2.6c-0.4-0.8-0.7-1.6-1.1-2.4c-0.1-0.3-0.2-0.6-0.4-1
	c-0.2-0.3-0.3-0.6-0.4-0.9c-0.1-0.2-0.2-0.5-0.3-0.7c-0.1-0.2-0.2-0.3-0.2-0.5c-0.1-0.1-0.1-0.2-0.2-0.3c0-0.1,0-0.1-0.1-0.1v0.1
	c-0.3,0.6-0.4,1.2-0.7,1.8c-0.8,1.4-1.2,3.1-1.8,4.6c-0.2,0.5-0.4,0.9-0.6,1.4c-0.2,0.5-0.4,1-0.7,1.5c-0.7,2-1.7,3.8-2.5,5.7
	c-0.3,0.8-0.7,1.6-1.2,2.4c-0.2,0.3-0.4,0.7-0.6,1c-0.2,0.3-0.3,0.6-0.5,0.9c-0.2,0.2-0.4,0.4-0.6,0.6c-0.1,0.2-0.2,0.3-0.4,0.4
	c-1,0.5-2.3,0.6-3.3,0.9c-0.7,0.1-1.5,0.1-2.2,0.2c-0.4,0.1-0.8,0.1-1.1,0.2c-0.4,0-0.8,0-1.2,0c-0.9,0.1-1.8,0.1-2.7,0.2
	c-1.4,0-2.8,0-4.1,0c-0.9-0.1-1.8-0.1-2.7-0.2c-0.4,0-0.9,0-1.3-0.1c-1.8,0-4-0.3-5.6-0.9c-0.3-0.1-0.5-0.1-0.8-0.2
	c-0.3-0.1-0.5-0.2-0.7-0.3c-0.4-0.1-0.7-0.3-1.1-0.6c-0.4-0.4-0.3-0.9-0.3-1.4c0.1-0.2,0.1-0.3,0.2-0.5c0-0.2,0-0.3,0.1-0.5
	c0.1-0.2,0.1-0.5,0.2-0.7c0.1-0.2,0.1-0.5,0.2-0.7c0.1-0.3,0.1-0.6,0.2-0.8c0.1-0.3,0.2-0.6,0.3-0.9c0.4-0.9,0.9-2,1.2-3
	c0.9-1.9,1.9-3.8,2.7-5.8c0.9-1.7,1.7-3.4,2.5-5.2c1-1.7,1.9-3.6,2.8-5.4c0.5-0.9,1-1.8,1.5-2.7c0.6-1.4,1.3-2.7,2.1-4
	c0.4-0.9,0.9-1.8,1.4-2.6c0.7-1.2,1.3-2.5,2-3.7c0.2-0.3,0.4-0.7,0.7-1.1c0.2-0.3,0.4-0.7,0.6-1.1c0.2-0.3,0.4-0.7,0.6-1
	c0.2-0.3,0.4-0.7,0.6-1c0.2-0.3,0.4-0.6,0.6-1c0.3-0.6,0.6-1.1,0.9-1.7c0.2-0.2,0.3-0.5,0.5-0.8c0.1-0.2,0.2-0.5,0.4-0.7
	c0.1-0.2,0.2-0.5,0.3-0.7c0.2-0.3,0.4-0.7,0.6-1c0.1-0.1,0.2-0.3,0.2-0.4c0.1-0.1,0.1-0.2,0.2-0.3c0.1-0.1,0.2-0.3,0.2-0.4v-0.1
	c0-0.1,0-0.1-0.1-0.2c0-0.1,0-0.2-0.1-0.3c-0.1-0.1-0.1-0.2-0.2-0.3c-0.1-0.2-0.1-0.4-0.2-0.5c-0.1-0.2-0.1-0.3-0.2-0.5
	c-0.1-0.2-0.2-0.5-0.2-0.7c-0.1-0.2-0.2-0.5-0.3-0.7c-0.1-0.3-0.2-0.6-0.4-0.8c-0.1-0.3-0.2-0.6-0.3-0.9c-0.2-0.3-0.3-0.7-0.4-1
	c-1.1-2.3-2.1-4.6-3-7c-0.2-0.4-0.4-0.8-0.6-1.3c-0.6-1.4-1.3-2.7-1.8-4.1c-0.4-1-0.8-1.9-1.2-2.9c-0.4-1-0.9-2-1.3-3
	c-0.7-2-1.6-3.9-2.4-5.8c-0.4-1-0.7-1.9-1.1-2.9c-1.4-2.9-2.3-6-3.7-8.9c-0.1-0.3-0.2-0.7-0.4-1.1c-0.1-0.3-0.2-0.6-0.4-1
	c-0.2-0.6-0.4-1.3-0.7-1.9c-0.1-0.2-0.2-0.5-0.3-0.8c-0.1-0.2-0.1-0.5-0.2-0.8c-0.1-0.2-0.1-0.4-0.2-0.6c-0.1-0.2-0.1-0.4-0.2-0.6
	c0-0.1,0-0.3-0.1-0.4c-0.1-0.1-0.1-0.3-0.1-0.4C213,389,213,388.8,213,388.7C213,388.6,213,388.7,213,388.7z"/>
<path fill="#020202" d="M286.8,488.8L286.8,488.8c0-0.3-0.1-0.9,0.1-1c0-0.2,0-0.3,0.1-0.4c0-0.1,0-0.3,0-0.4
	c0.1-0.2,0.1-0.3,0.2-0.5c0.1-0.4,0.1-0.8,0.2-1.1c0.4-1.2,0.6-2.4,0.8-3.7c0.2-0.6,0.3-1.2,0.5-1.7c0.1-0.3,0.1-0.6,0.2-1
	c0.1-0.3,0.2-0.6,0.2-1c0.1-0.4,0.2-0.7,0.2-1c0.1-0.4,0.2-0.7,0.3-1c0.2-0.7,0.3-1.5,0.5-2.2c0.2-0.8,0.4-1.6,0.7-2.4
	c0.3-2.1,1.1-4.3,1.5-6.4c0.5-1.3,0.7-2.7,1.1-4.1c0.3-0.9,0.5-1.9,0.8-2.8c0.1-0.5,0.2-1,0.3-1.5c0.3-1,0.5-1.9,0.8-2.9
	c0.1-0.5,0.2-1,0.3-1.5c0.2-0.5,0.3-1,0.4-1.6c0.2-0.5,0.3-1,0.4-1.5c0.2-0.5,0.3-1,0.4-1.5c0.2-0.5,0.3-1,0.4-1.6
	c0.2-0.5,0.3-1,0.4-1.5c0.2-0.5,0.3-1,0.4-1.6c0.2-0.5,0.3-1,0.4-1.5c0.2-0.5,0.3-1,0.4-1.6c0.2-0.5,0.3-1,0.4-1.5
	c0.2-0.5,0.3-1,0.4-1.6c0.2-0.5,0.3-1,0.4-1.6c0.2-0.5,0.3-1,0.5-1.5c0.1-0.5,0.2-1,0.4-1.6c0.1-0.5,0.2-1,0.4-1.5
	c0.1-0.5,0.2-1,0.4-1.6c0.1-0.5,0.2-1,0.4-1.5c0.1-0.5,0.2-1,0.4-1.5c0.1-0.5,0.2-1,0.4-1.5c0.1-0.5,0.2-1,0.4-1.5
	c0.1-0.5,0.2-1,0.4-1.5c0.1-0.5,0.2-1,0.4-1.5c0.1-0.5,0.2-0.9,0.3-1.4c0.2-0.5,0.3-0.9,0.4-1.4c0.3-0.9,0.5-1.9,0.8-2.8
	c0.1-0.5,0.2-0.9,0.3-1.4c0.3-0.9,0.5-1.7,0.7-2.6c0.6-1.6,0.8-3.4,1.5-5c0.3-1.2,0.7-2.3,1-3.5c0.2-1.1,0.6-2.1,0.8-3.1
	c0.2-0.6,0.4-1.2,0.6-1.8c0.1-0.4,0.2-0.7,0.2-1c0.1-0.3,0.2-0.6,0.2-0.8c0.1-0.3,0.2-0.6,0.2-0.9c0.2-0.5,0.3-1,0.5-1.5
	c0.1-0.4,0.2-0.8,0.4-1.2c0.1-0.5,0.3-1.1,0.5-1.6c0-0.3,0.1-0.5,0.2-0.8c0-0.1,0-0.2,0.1-0.4c0.1-0.1,0.1-0.1,0.1-0.3
	c0.1-0.1,0.1-0.2,0.2-0.4v-0.1c0.1-0.1,0.2-0.1,0.3-0.2c0.2-0.1,0.3-0.1,0.5-0.2c0.2-0.1,0.5-0.1,0.7-0.1c0.3-0.1,0.5-0.1,0.8-0.2
	c0.4,0,0.7,0,1.1-0.1c0.4,0,0.8,0,1.1-0.1c0.4,0,0.9,0,1.3-0.1c0.9,0,1.8,0,2.8-0.1c1.4,0,2.9,0,4.3,0c1.4,0.2,2.7,0,4.1,0.2
	c0.4,0,0.8,0,1.1,0.1c0.4,0,0.7,0,1.1,0c0.3,0.1,0.6,0.1,0.9,0.1c0.3,0.1,0.5,0.1,0.7,0.1c0.2,0.1,0.4,0.1,0.6,0.2
	c0.1,0,0.2,0,0.3,0.1v0.1c0.1,0,0.1,0,0.1,0.1c0.1,0.1,0.1,0.1,0.1,0.2c0.1,0.1,0.1,0.1,0.1,0.3c0.1,0.1,0.1,0.2,0.2,0.3
	c0,0.1,0,0.2,0.1,0.4c0.1,0.2,0.1,0.3,0.2,0.4c0.2,0.5,0.3,1.1,0.5,1.6c0.1,0.2,0.1,0.4,0.2,0.6c0.2,0.5,0.3,0.9,0.5,1.4
	c0.1,0.3,0.1,0.6,0.2,0.8c0.1,0.3,0.2,0.6,0.2,0.9c0.1,0.3,0.2,0.6,0.2,0.9c0.1,0.3,0.2,0.6,0.3,0.9c0.2,0.6,0.3,1.3,0.5,1.9
	c0.3,1.1,0.7,2.1,0.9,3.2c0.5,1.6,0.9,3.1,1.3,4.7c0.5,1.2,0.7,2.6,1.1,3.8c0.3,0.9,0.5,1.8,0.7,2.7c0.3,0.9,0.5,1.9,0.8,2.8
	c0.1,0.5,0.2,1,0.3,1.5c0.2,0.5,0.3,0.9,0.4,1.4c0.3,1,0.5,2,0.8,3c0.1,0.5,0.2,1,0.4,1.5c0.1,0.5,0.2,1,0.4,1.5
	c0.1,0.5,0.2,1,0.4,1.6c0.1,0.5,0.2,1,0.4,1.5c0.1,0.5,0.2,1,0.3,1.6c0.2,0.5,0.3,1,0.4,1.5c0.2,0.5,0.3,1,0.5,1.6
	c0.1,0.5,0.2,1,0.4,1.6c0.1,0.5,0.2,1,0.4,1.6c0.1,0.5,0.2,1,0.4,1.6c0.1,0.5,0.2,1,0.4,1.6c0.1,0.5,0.2,1,0.4,1.6
	c0.1,0.5,0.2,1,0.4,1.6c0.1,0.5,0.2,1,0.4,1.5c0.1,0.5,0.2,1,0.3,1.6c0.2,0.5,0.3,1,0.4,1.6c0.2,0.5,0.3,1,0.4,1.6
	c0.2,0.5,0.3,1,0.4,1.5c0.3,1,0.5,2,0.8,3.1c0.1,0.5,0.2,1,0.3,1.5c0.3,1,0.5,2,0.8,3c0.2,1,0.4,1.9,0.7,2.9
	c0.2,0.9,0.4,1.9,0.7,2.8c0.9,2.4,1.6,5.3,2,7.9c0.2,0.8,0.4,1.6,0.7,2.4c0.1,0.8,0.3,1.5,0.6,2.3c0.1,0.3,0.1,0.7,0.2,1
	c0.1,0.4,0.1,0.7,0.2,1c0.1,0.4,0.1,0.7,0.2,1c0.1,0.3,0.1,0.7,0.2,1c0.1,0.6,0.2,1.2,0.4,1.8c0.2,1.3,0.5,2.5,0.8,3.8
	c0.1,0.2,0.1,0.3,0.2,0.5c0,0.4,0.1,0.7,0.2,1c0.1,0.2,0.1,0.3,0.1,0.4c0,0.2,0.1,0.5,0.2,0.7c0,0.2-0.1,0.5,0.1,0.7h-0.1
	c-0.1,0.1-0.1,0.2-0.2,0.3c-0.1,0.1-0.2,0.1-0.4,0.2c-0.2,0.1-0.4,0.1-0.6,0.1c-0.3,0.1-0.5,0.1-0.8,0.2c-0.3,0-0.6,0-0.9,0.1
	c-0.4,0.1-0.7,0.1-1.1,0.1c-0.8,0.1-1.6,0.1-2.4,0.2c-2.8,0-5.7,0-8.5,0c-0.9-0.1-1.8-0.1-2.8-0.2c-0.4,0-0.9,0-1.3,0
	c-0.4-0.1-0.8-0.1-1.2-0.1c-0.3-0.1-0.7-0.1-1.1-0.1c-0.3-0.1-0.6-0.1-0.9-0.2c-0.5,0-1-0.1-1.5-0.3c-0.4,0-0.6-0.2-0.8-0.4
	c-0.1-0.2-0.1-0.3-0.2-0.4c-0.1-0.2-0.1-0.4-0.2-0.6c-0.2-0.5-0.3-1.1-0.5-1.7c-0.2-0.8-0.4-1.5-0.6-2.3c-0.7-5.4-2.9-10.7-3.4-16.2
	c-0.2-0.9-0.4-1.7-0.6-2.6c-0.1-0.4-0.2-0.8-0.2-1.2c-0.3-1-0.3-2-0.7-3c0-0.2,0-0.5-0.1-0.7c-0.1-0.2-0.1-0.3-0.2-0.4
	c0-0.2,0-0.4-0.1-0.5c-0.1,0-0.2,0-0.4-0.1c-0.2,0-0.4,0-0.7-0.1c-0.7-0.1-1.5-0.1-2.2-0.2c-0.4,0-0.9,0-1.3,0
	c-1.8-0.2-3.8-0.2-5.6,0c-0.7,0-1.5,0.1-2.2,0.3c-0.2,0.1-0.5,0.1-0.7,0.3c-0.2,0.1-0.3,0.1-0.4,0.3v0.1c-0.1,0.1-0.1,0.2-0.1,0.3
	c-0.1,0.2-0.1,0.3-0.1,0.5c-0.2,0.9-0.3,1.8-0.6,2.6c-0.1,0.3-0.1,0.7-0.2,1.1c-0.1,0.4-0.2,0.8-0.2,1.2c-0.1,0.5-0.2,0.9-0.3,1.4
	c-0.5,4.1-1.7,8.3-2.5,12.3c-0.2,1.8-0.9,3.6-1.1,5.4c-0.1,0.4-0.2,0.8-0.3,1.1c-0.1,0.3-0.1,0.7-0.2,1c-0.1,0.3-0.1,0.6-0.2,0.8
	c-0.1,0.2-0.2,0.5-0.2,0.7c-0.1,0.2-0.1,0.3-0.2,0.4c0,0.1,0,0.2-0.1,0.3c-0.1,0.1-0.2,0.2-0.2,0.2c-0.2,0.1-0.3,0.1-0.5,0.2
	c-1.2,0.3-2.4,0.6-3.6,0.6c-0.4,0.1-0.8,0.1-1.2,0.2c-0.9,0.1-1.8,0.1-2.7,0.2c-0.4,0.1-0.9,0.1-1.4,0.1c-1.5,0.2-2.9,0-4.4,0.2
	c-0.9,0-1.8,0-2.8-0.1c-0.4,0-0.9,0-1.3,0c-0.4-0.1-0.8-0.1-1.2-0.1c-0.4-0.1-0.8-0.1-1.1-0.1c-0.3-0.1-0.6-0.1-0.9-0.2
	c-0.5,0-1-0.1-1.5-0.4c-0.2-0.1-0.3-0.1-0.5-0.2C287,489,286.9,488.9,286.8,488.8z M328.7,448.7c0.1-0.1,0-0.3-0.1-0.5
	c-0.1-0.2-0.1-0.3-0.1-0.5c-0.1-0.5-0.2-0.9-0.3-1.4c0-1.1-0.4-2.4-0.6-3.5c-0.3-1-0.4-2.1-0.6-3.1c-0.2-0.8-0.3-1.5-0.5-2.3
	c-0.1-0.8-0.2-1.6-0.4-2.4c-0.1-0.4-0.1-0.8-0.2-1.2c-0.2-0.8-0.3-1.7-0.5-2.5c-0.1-0.5-0.1-0.9-0.2-1.3c-0.2-0.9-0.3-1.7-0.4-2.6
	c-0.3-1.3-0.3-2.6-0.7-3.8c-0.1-0.5-0.1-0.9-0.2-1.3c-0.2-0.4-0.2-0.8-0.2-1.3c-0.1-1.6-0.2-1.6-0.3,0c0,0.4-0.1,0.8-0.2,1.3
	c-0.1,0.4-0.2,0.8-0.2,1.3c0,1.3-0.4,2.8-0.7,4c-0.1,0.5-0.1,0.9-0.2,1.4c-0.1,0.4-0.1,0.8-0.2,1.3c-0.1,0.5-0.1,0.9-0.2,1.4
	c-0.1,0.4-0.1,0.8-0.2,1.3c-0.1,0.5-0.1,0.9-0.2,1.3c-0.1,0.5-0.1,0.9-0.2,1.3c-0.1,0.4-0.1,0.8-0.2,1.3c-0.1,0.4-0.1,0.8-0.2,1.2
	c-0.2,0.8-0.3,1.6-0.5,2.4c-0.1,0.4-0.1,0.8-0.2,1.1c-0.3,1-0.3,2.1-0.7,3.1c-0.1,0.6-0.2,1.2-0.3,1.7c0,0.7-0.2,1.8-0.4,2.5
	c-0.4,0.8,0.8,0.5,1.2,0.6c0.4,0,0.8,0,1.1,0c0.9-0.1,1.7-0.1,2.6-0.1c0.5-0.1,0.9-0.1,1.4-0.1c0.4-0.1,0.9-0.1,1.3-0.2
	c0.3,0,0.7,0,1.1-0.1C327.8,449,328.3,448.9,328.7,448.7C328.8,448.6,328.6,448.8,328.7,448.7z"/>
<path fill="#020202" d="M370.7,487.5C370.7,487.5,370.7,487.4,370.7,487.5c-0.1-0.1-0.1-0.2-0.2-0.3c0-0.1,0-0.2-0.1-0.3
	c0-0.1,0-0.2-0.1-0.3c0-0.1,0-0.2-0.1-0.3c0-0.2,0-0.3,0-0.4c-0.1-0.2-0.1-0.3-0.1-0.5c-0.1-0.4-0.1-0.8-0.2-1.1
	c0-0.2,0-0.4-0.1-0.6c0-0.2,0-0.5,0-0.7c-0.1-0.5-0.1-1.1-0.2-1.6c0-0.6,0-1.2-0.1-1.8c0-0.6,0-1.3-0.1-1.9c0-0.7,0-1.4-0.1-2.1
	c0-0.8,0-1.5,0-2.3c-0.2-1.7,0.1-3.3-0.2-5c0-2.3,0.2-4.6-0.1-6.9c0-5-0.4-10.3,0.1-15.3c0-2.7,0-5.4,0-8c0.2-2.2,0-4.3,0.2-6.5
	c0-1.6-0.1-3.2,0.1-4.7c0-1,0-2,0-3.1c0.2-1.5,0-3,0.2-4.5c0-1,0-2,0.1-3c0-1,0-1.9,0.1-2.9c0-0.9,0-1.8,0.1-2.7
	c0-0.9,0-1.8,0.1-2.6c0-0.4,0-0.8,0-1.3c0-0.8,0.1-1.6,0.2-2.4c0-0.8,0-1.6,0.1-2.4c0-0.4,0-0.7,0-1c0-0.7,0.1-1.3,0.2-2
	c0-0.4,0-0.7,0-1c0-0.6,0.1-1.2,0.2-1.8c0-0.2,0-0.5,0.1-0.8c0-0.2,0-0.5,0-0.8c0-0.4,0.1-0.9,0.2-1.3c0-0.2,0-0.4,0.1-0.6
	c0-0.2,0-0.4,0-0.5c0-0.3,0.1-0.6,0.2-1c0-0.1,0-0.2,0.1-0.4c0-0.1,0-0.2,0-0.4c0.1-0.1,0.1-0.2,0.2-0.3c0-0.1,0-0.1,0.1-0.1
	c0.1-0.3,0.5-0.5,0.7-0.7c0.1-0.1,0.2-0.1,0.3-0.2c0.2-0.1,0.3-0.1,0.4-0.2c0.2-0.1,0.3-0.2,0.4-0.2c0.3-0.1,0.7-0.2,1-0.4
	c0.2-0.1,0.4-0.1,0.6-0.2c0.5-0.1,0.9-0.1,1.4-0.2c0.3-0.1,0.5-0.1,0.8-0.1c0.3-0.1,0.5-0.1,0.8-0.1c0.3-0.1,0.7-0.1,1-0.1
	c0.7-0.1,1.5-0.1,2.2-0.2c0.4,0,0.8,0,1.2,0c4.4-0.6,9.6-0.3,14.1,0c1.2,0,2.5,0,3.7,0.1c0.4,0,0.9,0,1.4,0.1c0.4,0,0.9,0,1.3,0.1
	c1.7,0,3.6,0.3,5.2,0.7c0.4,0.1,0.8,0.1,1.2,0.3c0.8,0.2,1.6,0.4,2.4,0.5c0.8,0.2,1.5,0.5,2.3,0.8c0.4,0.1,0.7,0.2,1.1,0.4
	c0.4,0.2,0.7,0.3,1.1,0.4c0.4,0.2,0.7,0.4,1.1,0.5c1,0.3,2.1,0.9,3,1.6c0.3,0.2,0.6,0.3,0.9,0.5c1.5,1.1,3,2.2,4.2,3.5
	c0.8,0.7,1.5,1.6,2.1,2.4c0.3,0.3,0.5,0.6,0.7,0.9c0.5,0.9,1.2,1.8,1.7,2.8c0.6,1,1.1,2.1,1.5,3.1c0.2,0.4,0.3,0.7,0.5,1
	c0.1,0.4,0.2,0.8,0.3,1.2c0.3,0.8,0.6,1.6,0.7,2.4c0.2,1.2,0.4,2.6,0.7,3.8c0.1,0.9,0.2,1.9,0.2,2.8c0.1,0.5,0.1,0.9,0.1,1.4
	c0.3,2.7,0.1,5.7-0.4,8.3c-0.2,1.6-0.7,3-1.1,4.5c-0.2,0.5-0.4,0.9-0.6,1.4c-0.2,0.4-0.4,0.8-0.6,1.3c-0.7,1.7-1.7,3.3-2.8,4.7
	c-0.3,0.4-0.5,0.8-0.8,1.1c-0.3,0.3-0.5,0.6-0.8,1c-0.3,0.3-0.6,0.7-0.9,1c-0.3,0.3-0.7,0.6-1,0.9c-0.6,0.6-1.2,1.2-1.9,1.7
	c-0.3,0.2-0.7,0.5-1,0.7c-2.3,1.8-4.8,2.9-7.3,4.3c-0.4,0.1-0.7,0.3-1.1,0.4c-0.4,0.1-0.7,0.3-1.1,0.4c-1,0.3-2.1,0.7-3.1,1
	c-0.9,0.2-2,0.4-2.8,0.8c-1.1,0.2-2.3,0.6-3.4,0.6c-0.3,0.1-0.5,0.1-0.7,0.2c-0.2,0-0.5,0-0.7,0.1c-0.2,0-0.4,0-0.7,0.1
	c-0.2,0-0.4,0-0.6,0c-0.2,0.1-0.3,0.1-0.5,0.1c-0.2,0.1-0.3,0.1-0.5,0c-0.3-0.1-0.4-0.1-0.4,0c-0.1,0.3,0,0.7,0.1,1.1
	c0.2,1.2,0.2,2.4,0.3,3.6c0,0.8,0.1,1.7,0.2,2.5c0,0.9,0.1,1.8,0.2,2.6c0.1,0.9,0.1,1.7,0.2,2.6c0.1,0.5,0.1,0.9,0.2,1.3
	c0.1,0.9,0.1,1.8,0.2,2.7c0.1,0.4,0.1,0.8,0.1,1.2c0.1,0.9,0.1,1.7,0.2,2.6c0,0.8,0,1.6,0.1,2.4c0,0.8,0,1.6-0.1,2.4
	c0,0.7,0,1.4-0.1,2.1c0,0.7-0.1,1.3-0.2,2c-0.1,0.6-0.2,1.2-0.3,1.7c-0.1,0.5-0.3,1-0.5,1.5c-0.1,0.2-0.2,0.4-0.3,0.6
	c-0.1,0.2-0.2,0.3-0.3,0.5c-0.1,0.2-0.2,0.3-0.3,0.5c-0.3,0.3-0.6,0.5-0.9,0.6c-0.2,0.1-0.4,0.2-0.6,0.3c-0.3,0.1-0.5,0.2-0.7,0.3
	c-0.9,0.2-1.9,0.4-2.8,0.4c-0.4,0.1-0.8,0.1-1.1,0.2c-0.4,0-0.8,0-1.2,0c-2,0.3-4.5,0.2-6.6,0c-0.4,0-0.9,0-1.4,0
	c-0.4-0.1-0.9-0.1-1.3-0.1c-0.5-0.1-0.9-0.1-1.4-0.2c-0.8-0.1-1.7-0.1-2.5-0.2c-2-0.3-4.8-0.3-6.7-1.3
	C371.3,487.8,371,487.7,370.7,487.5C370.7,487.5,370.8,487.6,370.7,487.5z M409.8,420c0-0.6,0-1.3,0-1.8c-0.1-1.1-0.3-2.1-0.7-3.1
	c-0.4-0.9-0.9-1.7-1.4-2.5c-0.3-0.4-0.5-0.7-0.8-1c-0.3-0.3-0.7-0.6-1-0.9c-0.3-0.2-0.7-0.5-1-0.7c-0.7-0.4-1.4-0.8-2.1-1.1
	c-0.7-0.2-1.4-0.4-2.1-0.7c-0.7-0.1-1.3-0.2-2-0.3c-0.3,0-0.5,0-0.8-0.1c-0.2,0-0.5,0-0.7,0c-0.2,0.1-0.3,0.1-0.5,0
	c-0.2-0.1-0.4,0-0.4,0.1c-0.1,0.1-0.1,0.2-0.1,0.3c0.1,0.2,0.1,0.4,0,0.6c0,0.9-0.1,1.8,0.1,2.7c0,0.8,0,1.6,0.1,2.4
	c0,0.5,0,0.9,0,1.3c0.1,0.5,0.1,0.9,0.1,1.4c0.1,0.5,0.1,0.9,0.1,1.4c0.1,0.5,0.1,1,0.1,1.5c0.1,0.5,0.1,1,0.1,1.5
	c0.1,0.5,0.1,1,0.1,1.5c0.1,0.5,0.1,1,0.1,1.5c0.1,0.5,0.1,1,0.1,1.5c0.1,0.5,0.1,1,0.1,1.5c0.1,0.5,0.1,0.9,0.1,1.3
	c0.1,0.5,0.1,0.9,0.1,1.4c0.1,0.8,0.1,1.6,0.2,2.4c0,0.3,0,0.7,0.1,1c0,0.6,0.3,1.7,0.1,2.3c-0.1,0.2-0.1,0.4,0,0.5
	c0.1,0.1,0.2,0.1,0.4,0c0.2,0,0.3,0,0.5,0c0.2,0.1,0.4,0.1,0.6,0c0.5-0.1,1-0.2,1.5-0.4c0.3-0.1,0.5-0.2,0.7-0.3
	c0.3-0.1,0.6-0.3,0.9-0.4c0.3-0.1,0.5-0.3,0.8-0.4c0.6-0.4,1.2-0.8,1.7-1.3c0.9-0.9,1.8-1.8,2.4-3c0.6-0.8,1-1.7,1.3-2.6
	c0.7-1.7,1-3.4,1.3-5.2C409.7,421.4,409.8,420.7,409.8,420C409.8,419.3,409.8,420.7,409.8,420z"/>
<path fill="#020202" d="M438.8,388.9c0.2-0.2,0.4-0.3,0.7-0.4c0.1-0.1,0.2-0.1,0.4-0.1c0.2-0.1,0.4-0.1,0.6-0.2
	c0.2-0.1,0.4-0.1,0.7-0.1c0.2-0.1,0.5-0.1,0.7-0.1c0.2-0.1,0.5-0.1,0.7-0.2c0.3,0,0.6,0,0.9-0.1c0.3,0,0.6,0,0.9-0.1
	c0.4,0,0.7,0,1.1-0.1c0.3,0,0.7,0,1.1-0.1c0.4,0,0.7,0,1.1-0.1c0.4,0,0.8,0,1.2,0c0.8-0.1,1.6-0.1,2.4-0.2c0.4,0,0.9,0,1.3,0
	c1.4-0.2,2.8,0,4.1-0.2c5.8,0,11.9-0.6,17.7,0.1c1.4,0,2.8-0.1,4.1,0.1c0.9,0,1.8,0,2.7,0.1c0.8,0,1.6,0,2.4,0.1c0.4,0,0.8,0,1.1,0
	c0.7,0.1,1.4,0.1,2.1,0.2c0.3,0,0.7,0,1,0c0.3,0.1,0.6,0.1,0.9,0.1c0.5,0.1,1.1,0.1,1.6,0.2c0.2,0,0.4,0,0.7,0.1c0.2,0,0.4,0,0.6,0
	c0.2,0.1,0.4,0.1,0.6,0.1c0.2,0,0.5,0.1,0.7,0.2c0.1,0,0.1,0,0.2,0.1c0.1,0,0.1,0,0.1,0.1c0.1,0.1,0.1,0.1,0.2,0.3
	c0.1,0.2,0.1,0.3,0.1,0.5c0.1,0.2,0.1,0.5,0.1,0.7c0.1,0.2,0.1,0.5,0.1,0.8c0.3,1.9,0.2,4.3,0,6.2c0,0.5,0,1,0,1.6
	c-0.1,0.5-0.1,1-0.1,1.5c-0.1,0.5-0.1,1-0.1,1.6c-0.1,0.5-0.1,1-0.2,1.6c-0.1,1-0.1,2.1-0.2,3.1c-0.3,2.5,0,6.7-1.4,8.9
	c-0.1,0.3-0.2,0.5-0.3,0.7c-0.4,0.2-1.4,0.1-1.8,0c-0.2,0-0.5,0-0.7-0.1c-0.6-0.1-1.2-0.1-1.8-0.2c-0.7-0.1-1.4-0.2-2.1-0.4
	c-0.8-0.2-1.6-0.3-2.4-0.4c-0.4-0.1-0.9-0.2-1.3-0.3c-0.4-0.1-0.9-0.2-1.3-0.3c-0.4-0.1-0.9-0.2-1.3-0.3c-0.5-0.1-1-0.2-1.4-0.3
	c-0.4-0.1-0.9-0.2-1.4-0.3c-0.4-0.1-0.9-0.2-1.4-0.3c-0.4-0.1-0.9-0.2-1.3-0.3c-0.4-0.1-0.9-0.1-1.3-0.3c-0.9-0.2-1.7-0.3-2.6-0.5
	c-0.4-0.1-0.8-0.2-1.2-0.3c-0.7-0.2-1.5-0.3-2.2-0.5c-0.9-0.2-1.9-0.2-2.8-0.6c-0.2-0.1-0.4-0.1-0.7-0.1c-0.3-0.1-0.5-0.1-0.7-0.2
	c-0.3-0.1-0.4-0.1-0.4-0.1c-0.1,0.2-0.1,0.6,0.1,1c0.1,0.8,0.1,1.6,0.2,2.4c0.1,0.9,0.1,1.9,0.2,2.8c0.1,1,0.2,2,0.2,3
	c0.1,0.5,0.1,0.9,0.2,1.4c0.1,0.9,0.1,1.7,0.2,2.6c0.1,0.4,0.1,0.7,0.2,1c0,0.3,0,0.6,0,1c0.1,0.2,0.1,0.5,0.1,0.7
	c0.1,0.1,0.1,0.3,0.1,0.4v0.1c0.1,0.1,0.1,0.1,0.2,0c0.5-0.1,1-0.1,1.5-0.2c0.4,0,0.8,0,1.2-0.1c0.9-0.1,1.9-0.1,2.8-0.2
	c0.5-0.1,1-0.1,1.5-0.1c1.4-0.1,2.9-0.2,4.3,0c0.6,0,1.8,0,2.3,0.5c0.4,0.6,0.5,1.5,0.6,2.2c0.2,0.8,0.3,1.6,0.3,2.4
	c0.1,0.5,0.1,0.9,0.2,1.4c0,0.5,0,0.9,0.1,1.4c0,0.5,0,0.9,0.1,1.4c0,0.9,0,1.8-0.1,2.7c0,0.4,0,0.8-0.1,1.2c0,0.6-0.1,1.2-0.3,1.8
	c-0.5,1.5-2.6,1.5-3.8,1.5c-0.4,0.1-0.9,0.1-1.4,0.1c-0.9-0.1-1.9-0.1-2.8-0.2c-0.9,0-1.9-0.1-2.8-0.3c-0.8,0-1.8-0.1-2.5-0.3h-0.2
	c-0.1,0-0.1,0,0,0.1c0,0.4,0,0.7,0.1,1c0,0.3,0,0.6,0,0.9c0.1,0.3,0.1,0.6,0.1,1c0.1,0.4,0.1,0.8,0.1,1.2c0.1,0.4,0.1,0.8,0.2,1.3
	c0.1,0.9,0.1,1.9,0.2,2.8c0.1,1,0.2,2.1,0.2,3.1c0.2,1.5,0.3,3,0.5,4.5c0,1.3,0.2,2.5,0.4,3.8c0,0.3,0,0.6,0.1,1
	c0.1,0.2,0.1,0.5,0.2,0.8c0,0.2,0,0.4,0.1,0.5c0.3,0,0.6,0,0.9-0.1c0.7-0.3,1.5-0.4,2.3-0.5c0.3-0.1,0.7-0.2,1-0.3
	c0.3-0.1,0.7-0.2,1.1-0.4c3.9-0.6,7.9-2,11.7-3.1c0.8-0.2,1.7-0.3,2.5-0.5c0.4-0.1,0.8-0.2,1.2-0.3c1-0.3,2.1-0.4,3.1-0.6
	c0.3,0,0.5,0,0.8-0.1c0.5,0,0.9,0,1.4,0c0.1,0.1,0.2,0.1,0.4,0.1c0.1,0.1,0.2,0.1,0.3,0.2c0.1,0.1,0.1,0.1,0.2,0.3
	c0.1,0.2,0.1,0.3,0.2,0.4c0.2,0.4,0.3,0.9,0.5,1.3c0.1,0.3,0.1,0.6,0.2,0.9c0.1,0.4,0.2,0.7,0.2,1c0.2,0.8,0.3,1.5,0.5,2.3
	c0.1,0.4,0.1,0.8,0.2,1.2c0.1,0.5,0.2,0.9,0.2,1.4c0.2,0.9,0.3,1.9,0.4,2.8c0.6,2.9,0.7,6,1.1,8.9c0.1,0.9,0.1,1.8,0.2,2.7
	c0.1,0.8,0.1,1.7,0.1,2.5c0.1,0.7,0.1,1.4,0.1,2.1c0,0.6-0.1,1.1-0.2,1.7c0,0.4-0.1,0.7-0.2,1c0,0.1-0.1,0.2-0.2,0.4l-0.2,0.1
	c-0.1,0.1-0.1,0.1-0.2,0.1c-0.1,0.1-0.2,0.1-0.3,0.1c-0.1,0.1-0.2,0.1-0.4,0.1c-0.2,0.1-0.3,0.1-0.5,0.1c-0.2,0.1-0.4,0.1-0.6,0.1
	c-0.5,0.1-1,0.1-1.5,0.2c-0.3,0-0.5,0-0.8,0c-0.6,0.1-1.2,0.1-1.8,0.2c-0.3,0-0.7,0-1,0c-0.7,0.1-1.5,0.1-2.2,0.1
	c-1.2,0.2-2.4,0-3.6,0.2c-1.8,0-3.6-0.1-5.4,0.1c-4.4,0-8.7,0-13.1,0c-2.4-0.3-4.8,0.1-7.2-0.2c-1.4,0-2.7,0-4.1,0
	c-1.2-0.2-2.5,0-3.7-0.2c-0.7,0-1.5,0-2.2,0c-0.7-0.1-1.4-0.1-2.1-0.1c-0.6-0.1-1.2-0.1-1.8-0.1c-0.5-0.1-1-0.1-1.5-0.1
	c-0.4-0.1-0.9-0.1-1.3-0.1c-0.3-0.1-0.6-0.1-0.9-0.1c-0.2-0.1-0.3-0.1-0.5-0.1c-0.1,0-0.2-0.1-0.2-0.2v-0.1
	c-0.1-0.1-0.1-0.3-0.2-0.4c0-0.2,0-0.5-0.1-0.7c0-0.2,0-0.3,0-0.4c-0.1-0.3-0.1-0.7-0.1-1c-0.1-0.4-0.1-0.9-0.2-1.3
	c0-0.5,0-1-0.1-1.5c0-0.6,0-1.1-0.1-1.7c0-0.6,0-1.2-0.1-1.8c0-0.7,0-1.4-0.1-2.1c0-0.7,0-1.5,0-2.2c-0.1-0.8-0.1-1.6-0.1-2.4
	c-0.2-1.3,0-2.5-0.2-3.8c0-1.3,0.1-2.7-0.1-4c0-1.4,0.1-2.9-0.1-4.3c0-1.5,0-3,0-4.5c-0.2-2-0.1-4.2-0.1-6.2
	c-0.3-3.2-0.1-6.4-0.1-9.6c-0.7-6.9-0.7-15.2,0-22.1c0-2.8-0.2-5.8,0.1-8.6c0-1.7-0.1-3.5,0.1-5.2c0-1.2-0.1-2.4,0.1-3.6
	c0-0.7,0-1.5,0-2.2c0.1-0.7,0.1-1.3,0.1-2c0.1-0.6,0.1-1.2,0.1-1.8c0.1-0.6,0.1-1.1,0.1-1.7c0-0.5,0.1-1,0.2-1.5
	c0-0.4,0-0.9,0.1-1.3c0-0.2,0-0.4,0-0.5c0-0.3,0.1-0.6,0.2-1c0-0.1,0-0.2,0.1-0.3c0-0.1,0-0.2,0-0.4c0-0.2,0.1-0.3,0.2-0.4
	C438.6,389,438.7,388.9,438.8,388.9C438.8,388.8,438.7,388.9,438.8,388.9z"/>
<path fill="#020202" d="M499.8,388.2c0.2-0.1,0.3-0.1,0.5-0.2c1.1-0.3,2.4-0.6,3.6-0.6c0.4-0.1,0.8-0.1,1.2-0.1
	c0.4-0.1,0.9-0.1,1.3-0.1c0.9-0.1,1.8-0.1,2.8-0.1c1.4-0.2,2.9-0.2,4.3,0c0.9,0,1.8,0,2.8,0.1c0.4,0,0.8,0,1.2,0.1
	c0.4,0,0.8,0,1.2,0.1c0.7,0,1.3,0.1,2,0.3c0.2,0,0.5,0,0.7,0.1c0.2,0.1,0.4,0.1,0.6,0.2c0.1,0.1,0.2,0.1,0.4,0.3
	c0.1,0,0.1,0.1,0.1,0.2c0.1,0.1,0.1,0.1,0.2,0.3c0.1,0.2,0.2,0.3,0.2,0.4c0.1,0.2,0.1,0.4,0.2,0.6c0.1,0.5,0.2,1.1,0.4,1.6
	c0.1,0.6,0.2,1.3,0.4,1.9c0.1,0.3,0.1,0.7,0.2,1.1c0.1,0.4,0.2,0.7,0.2,1.1c0.2,0.9,0.3,1.7,0.5,2.6c0.1,0.5,0.1,0.9,0.2,1.4
	c0.1,0.5,0.1,1,0.2,1.5c0.1,0.5,0.1,1,0.2,1.5c0.1,0.5,0.2,1,0.2,1.5c0.1,0.5,0.2,1,0.2,1.6c0.1,0.5,0.2,1.1,0.2,1.7
	c0.1,0.5,0.2,1,0.2,1.6c0.2,1.1,0.3,2.2,0.5,3.2c0.1,0.5,0.1,1,0.2,1.6c0.1,0.5,0.1,1.1,0.2,1.7c0.2,1,0.3,2,0.4,3.1
	c0.3,1.4,0.3,2.9,0.7,4.4c0.2,1.7,0.4,3.4,0.7,5.1c0,0.7,0.1,1.3,0.2,2c0,0.7,0.1,1.5,0.2,2.2c0,0.2,0,0.3,0.1,0.5
	c0,0.1,0,0.2,0,0.3c0.1,0.1,0.1,0.1,0.1,0.2v0.1v-0.1c0-0.1,0-0.1,0.1-0.2c0-0.1,0-0.2,0.1-0.3c0.1-0.2,0.1-0.3,0.2-0.4
	c0.1-0.2,0.1-0.4,0.2-0.6c0.1-0.2,0.1-0.5,0.2-0.7c0.1-0.3,0.1-0.6,0.2-0.8c0.1-0.4,0.2-0.7,0.2-1c0.4-1.1,0.6-2.2,1.1-3.2
	c0.1-0.4,0.2-0.8,0.3-1.2c0.2-0.4,0.3-0.8,0.4-1.2c0.2-0.5,0.3-0.9,0.5-1.3c0.2-0.9,0.5-1.9,0.9-2.8c1.4-6.9,4.9-13.2,6.8-19.9
	c0.2-0.3,0.3-0.7,0.5-1.1c0.1-0.3,0.2-0.7,0.4-1c0.3-0.6,0.5-1.2,0.8-1.8c0.1-0.2,0.2-0.5,0.3-0.8c0.1-0.2,0.2-0.4,0.3-0.6
	c0.1-0.2,0.2-0.4,0.3-0.6c0.1-0.1,0.2-0.3,0.2-0.4c0.1,0,0.5-0.6,0.7-0.4c0.1,0,0.1,0,0.2,0.1c0.1,0.1,0.2,0.1,0.2,0.3
	c0.1,0.1,0.2,0.2,0.2,0.3c0.1,0.2,0.2,0.4,0.2,0.6c0.4,0.7,0.6,1.5,1.1,2.3c0.1,0.3,0.2,0.6,0.3,1c0.2,0.4,0.3,0.7,0.4,1
	c0.2,0.4,0.3,0.7,0.4,1.1c0.2,0.4,0.3,0.8,0.4,1.2c0.4,0.8,0.7,1.7,0.9,2.6c1,3,2,5.9,2.9,8.9c0.6,2.6,1.7,5,2.3,7.6
	c0.2,0.5,0.3,1,0.5,1.5c0.1,0.5,0.2,0.9,0.4,1.4c0.1,0.5,0.2,0.9,0.4,1.4c0.1,0.5,0.2,0.9,0.4,1.4c0.1,0.4,0.2,0.8,0.3,1.2
	c0.4,1,0.8,2.2,1,3.3c0.1,0.3,0.2,0.7,0.3,1c0.1,0.3,0.1,0.6,0.2,0.9c0.1,0.5,0.2,0.9,0.4,1.3c0,0.2,0,0.4,0.1,0.5
	c0.1,0.1,0.1,0.2,0.2,0.3c0,0.1,0,0.2,0.1,0.3v-0.1c0-0.2,0-0.4,0.1-0.5c0-0.2,0-0.4,0-0.5c0.1-0.2,0.1-0.4,0.1-0.6
	c0.1-0.2,0.1-0.5,0.2-0.7c0-0.3,0-0.6,0.1-0.8c0.1-0.4,0.1-0.7,0.2-1c0-1.9,0.4-4.1,0.8-5.9c0.1-0.9,0.2-1.9,0.3-2.8
	c0.2-1,0.3-2,0.5-3.1c0.1-0.5,0.1-1,0.2-1.6c0.1-0.5,0.2-1,0.2-1.6c0.1-0.5,0.2-1,0.2-1.6c0.2-1.1,0.3-2.2,0.5-3.2
	c0.1-0.5,0.1-1,0.2-1.6c0.1-0.5,0.1-1,0.2-1.6c0.1-0.5,0.1-1,0.2-1.6c0.1-0.5,0.1-1,0.2-1.6c0.1-0.5,0.1-1,0.2-1.5
	c0.1-0.5,0.1-1,0.2-1.5c0.1-0.5,0.1-1,0.2-1.5c0.1-0.5,0.1-0.9,0.2-1.3c0.1-0.5,0.1-0.9,0.2-1.3c0.1-0.8,0.3-1.6,0.5-2.4
	c0.1-0.3,0.1-0.7,0.2-1c0.3-0.9,0.3-1.9,0.7-2.7c0.1-0.4,0.2-0.9,0.3-1.3c0.1-0.1,0.1-0.3,0.2-0.4c0-0.1,0-0.2,0.1-0.3
	c0.1-0.1,0.1-0.2,0.2-0.2c0.1-0.1,0.2-0.2,0.3-0.3c0.2-0.1,0.4-0.1,0.6-0.2c0.9-0.2,1.9-0.4,2.8-0.5c0.8-0.1,1.6-0.1,2.4-0.2
	c0.5-0.1,0.9-0.1,1.4-0.1c0.5-0.1,1-0.1,1.5-0.1c1-0.1,2-0.1,2.9-0.2c1.4,0,2.8,0,4.2,0c0.8,0.1,1.6,0.1,2.4,0.2
	c0.3,0,0.7,0,1.1,0.1c0.5,0,1,0.1,1.5,0.3c0.2,0,0.3,0.1,0.5,0.2c0.1,0,0.1,0.1,0.2,0.2v0.1c0,0.1,0,0.1,0.1,0.1c0,1.1,0,2.3,0,3.4
	c-0.2,0.7-0.1,1.5-0.1,2.2c-0.1,0.6-0.1,1.1-0.1,1.7c-0.1,0.6-0.1,1.2-0.1,1.8c-0.1,0.7-0.1,1.4-0.2,2.1c0,0.3,0,0.7,0,1
	c-0.1,0.4-0.1,0.8-0.1,1.1c-0.1,0.8-0.1,1.6-0.2,2.4c0,0.4,0,0.8-0.1,1.2c0,0.4,0,0.8-0.1,1.2c0,0.5,0,0.9-0.1,1.3
	c0,0.4,0,0.8-0.1,1.3c0,0.5,0,0.9-0.1,1.3c0,0.5,0,0.9-0.1,1.4c0,0.5,0,0.9-0.1,1.4c-0.1,1-0.1,1.9-0.2,2.9c-0.1,0.5-0.1,1-0.1,1.5
	c-0.1,0.5-0.1,1-0.2,1.5c0,0.5,0,1-0.1,1.5c-0.1,1-0.1,2-0.2,3.1c-0.1,0.5-0.1,1-0.2,1.6c-0.1,1-0.1,2-0.2,3.1
	c-0.1,0.5-0.1,1.1-0.2,1.7c-0.1,1-0.1,2.1-0.2,3.1c-0.1,1.1-0.2,2.2-0.2,3.2c-0.1,1-0.2,2.1-0.2,3.1c-0.1,0.6-0.1,1.1-0.2,1.7
	c0,1.1-0.1,2.1-0.2,3.1c0,1.1-0.1,2.2-0.2,3.2c0,1.1-0.1,2.1-0.2,3.1c0,1-0.1,2-0.2,3.1c0,1-0.1,2-0.2,3.1c0,1-0.1,2-0.2,3.1
	c0,1-0.1,1.9-0.2,2.9c0,0.9-0.1,1.9-0.2,2.8c0,0.9-0.1,1.8-0.2,2.7c-0.1,0.5-0.1,0.9-0.2,1.3c0,0.9-0.1,1.8-0.2,2.6
	c-0.1,0.8-0.1,1.6-0.2,2.4c-0.1,0.4-0.1,0.8-0.2,1.1c-0.1,0.8-0.1,1.5-0.2,2.3c-0.1,0.3-0.1,0.7-0.1,1c-0.1,0.3-0.1,0.6-0.2,1
	c0,0.3,0,0.6-0.1,1c-0.1,0.6-0.1,1.2-0.2,1.8c-0.1,0.3-0.1,0.6-0.1,0.9c-0.1,0.2-0.1,0.5-0.1,0.8c-0.1,0.2-0.1,0.5-0.1,0.7
	c-0.1,0.2-0.1,0.4-0.1,0.6c-0.1,0.2-0.1,0.5-0.1,0.7c-0.1,0.2-0.1,0.3-0.1,0.5c-0.1,0.2-0.1,0.3-0.1,0.5c-0.1,0.1-0.1,0.3-0.1,0.4
	c0,0.2-0.1,0.5-0.2,0.7c0,0.1,0,0.2,0,0.3c-0.1,0.1-0.1,0.2-0.2,0.3v0.1c-0.1,0.1-0.2,0.1-0.3,0.1c-0.1,0.1-0.2,0.1-0.4,0.2
	c-0.2,0.1-0.4,0.1-0.7,0.1c-0.3,0.1-0.5,0.1-0.7,0.1c-0.3,0.1-0.7,0.1-1,0.1c-0.7,0.1-1.5,0.1-2.2,0.2c-0.4,0-0.8,0-1.2,0
	c-4.5,0.5-9.9,0.5-14.4,0c-1.2,0-2.3,0-3.5,0c-1.1-0.2-2.2-0.1-3.3-0.1h-0.1c-0.1-0.2-0.2-0.4-0.3-0.6c-0.2-0.4-0.3-0.7-0.5-1.1
	c-0.1-0.3-0.1-0.6-0.2-0.8c-0.1-0.3-0.2-0.6-0.2-0.9c-0.1-0.3-0.2-0.7-0.3-1c-0.2-0.8-0.3-1.5-0.5-2.3c-0.2-0.9-0.4-1.7-0.6-2.6
	c-0.2-1-0.4-2-0.7-3c-0.2-1.6-0.6-3.1-0.9-4.6c-0.2-1.6-0.7-3.1-0.8-4.7c-0.2-1-0.4-2.1-0.6-3.1c-0.1-0.5-0.2-1-0.3-1.6
	c-0.1-0.5-0.1-1-0.2-1.5c-0.1-0.5-0.1-0.9-0.2-1.4c-0.1-0.5-0.1-0.9-0.2-1.4c-0.1-0.4-0.1-0.8-0.2-1.3c-0.1-0.8-0.2-1.6-0.4-2.4
	c-0.1-0.6-0.2-1.3-0.3-1.9c0-0.3,0-0.6-0.1-0.9c-0.1-0.2-0.1-0.4-0.2-0.6c0-0.2,0-0.4-0.1-0.6c0-0.1,0-0.2-0.1-0.4
	c0-0.1,0-0.2,0-0.3v-0.1v0.1c0,0.1,0,0.1-0.1,0.3c0,0.1,0,0.3-0.1,0.4c0,0.2,0,0.3-0.1,0.5c-0.1,0.2-0.1,0.5-0.1,0.8
	c-0.4,1.7-0.6,3.6-0.8,5.3c-0.1,0.4-0.2,0.8-0.2,1.3c-0.2,1-0.3,1.9-0.5,2.9c-0.1,0.5-0.1,1-0.2,1.6c-0.2,1-0.3,2.1-0.5,3.1
	c-0.1,0.5-0.2,1.1-0.3,1.7c-0.2,1.1-0.3,2.2-0.5,3.2c-0.1,0.5-0.2,1-0.3,1.6c-0.2,1-0.3,2.1-0.5,3.1c-0.1,0.5-0.2,1-0.3,1.5
	c-0.2,1-0.3,1.9-0.5,2.9c-0.1,0.4-0.2,0.8-0.2,1.3c-0.1,0.4-0.2,0.8-0.2,1.2c-0.2,0.7-0.3,1.5-0.5,2.2c-0.1,0.3-0.1,0.6-0.2,0.9
	c-0.2,0.5-0.3,1-0.4,1.5c-0.1,0.2-0.1,0.3-0.2,0.5c-0.1,0.1-0.1,0.2-0.2,0.3c0,0.2-0.1,0.3-0.3,0.3c-0.2,0.1-0.3,0.1-0.4,0.2
	c-0.2,0-0.4,0-0.6,0.1c-0.2,0.1-0.5,0.1-0.7,0.1c-0.3,0.1-0.5,0.1-0.8,0.2c-0.3,0-0.7,0-1,0.1c-0.4,0-0.7,0-1.1,0.1
	c-0.4,0-0.8,0-1.2,0.1c-0.4,0-0.8,0-1.2,0.1c-0.4,0-0.9,0-1.3,0.1c-0.5,0-1,0-1.4,0c-0.5,0.1-1,0.1-1.5,0.1c-1.4,0.2-2.9,0-4.3,0.2
	c-2.3,0-4.6,0-6.8,0c-0.8-0.1-1.5-0.1-2.3-0.2c-0.3,0-0.7,0-1,0c-0.3-0.1-0.6-0.1-0.9-0.1c-0.2-0.1-0.5-0.1-0.7-0.1
	c-0.2-0.1-0.4-0.1-0.6-0.2c-0.1,0-0.2,0-0.4-0.1c-0.1-0.1-0.2-0.1-0.2-0.2c-0.1,0-0.1,0-0.1-0.1v-0.1c-0.1-0.1-0.1-0.2-0.1-0.3
	c-0.1-0.1-0.1-0.1-0.1-0.3c-0.1-0.3-0.1-0.5-0.2-0.8c0-0.1,0-0.3-0.1-0.4c0-0.2,0-0.3-0.1-0.5c0-0.2,0-0.4-0.1-0.5
	c-0.1-0.2-0.1-0.4-0.1-0.6c-0.1-0.2-0.1-0.5-0.1-0.7c-0.1-0.2-0.1-0.5-0.2-0.8c-0.1-0.5-0.1-1-0.2-1.6c-0.1-0.3-0.1-0.6-0.2-0.9
	c-0.1-0.6-0.1-1.3-0.2-1.9c-0.1-0.7-0.2-1.4-0.2-2.1c-0.1-0.7-0.2-1.5-0.3-2.2c0-1.2-0.3-2.4-0.4-3.6c0-1.8-0.5-3.5-0.5-5.3
	c-0.3-2.4-0.7-4.8-0.7-7.2c-0.3-3.1-0.7-6.2-1-9.3c0-3.7-1-7.5-1-11.2c-0.3-2.7-0.7-5.4-0.7-8c-0.2-1.6-0.3-3.2-0.5-4.8
	c0-1.6-0.3-3.1-0.3-4.6c-0.1-1-0.2-2-0.2-3.1c-0.1-1-0.2-1.9-0.2-2.9c-0.1-1-0.2-1.9-0.2-2.9c-0.1-0.5-0.1-0.9-0.2-1.4
	c-0.1-0.9-0.1-1.8-0.2-2.7c-0.1-0.5-0.1-0.9-0.1-1.3c-0.1-0.4-0.1-0.8-0.2-1.3c0-0.4,0-0.8-0.1-1.2c0-0.4,0-0.8-0.1-1.2
	c0-0.4,0-0.7-0.1-1.1c0-0.4,0-0.8-0.1-1.1c0-0.4,0-0.8-0.1-1.1c0-0.4,0-0.7-0.1-1c0-0.4,0-0.7,0-1c0-0.6-0.1-1.2-0.2-1.8
	c0-0.3,0-0.7,0-1c-0.1-0.5-0.1-1-0.1-1.6c-0.2-0.7-0.1-1.4-0.1-2.1c-0.2-0.8-0.1-1.8-0.1-2.6c0.1-0.1,0-0.4,0.2-0.4
	C499.6,388.3,499.7,388.2,499.8,388.2C500,388.1,499.7,388.2,499.8,388.2z"/>
<path fill="#020202" d="M591,488.8L591,488.8c0-0.3-0.1-0.9,0.1-1c0-0.2,0-0.3,0.1-0.4c0-0.1,0-0.3,0-0.4c0.1-0.2,0.1-0.3,0.2-0.5
	c0.1-0.4,0.1-0.8,0.2-1.1c0.4-1.2,0.6-2.4,0.8-3.7c0.2-0.6,0.3-1.2,0.5-1.7c0.1-0.3,0.1-0.6,0.2-1c0.1-0.3,0.2-0.6,0.2-1
	c0.1-0.4,0.2-0.7,0.2-1c0.1-0.4,0.2-0.7,0.3-1c0.2-0.7,0.3-1.5,0.5-2.2c0.2-0.8,0.4-1.6,0.7-2.4c0.3-2.1,1.1-4.3,1.5-6.4
	c0.5-1.3,0.7-2.7,1.1-4.1c0.3-0.9,0.5-1.9,0.8-2.8c0.1-0.5,0.2-1,0.3-1.5c0.3-1,0.5-1.9,0.8-2.9c0.1-0.5,0.2-1,0.3-1.5
	c0.2-0.5,0.3-1,0.4-1.6c0.2-0.5,0.3-1,0.4-1.5c0.2-0.5,0.3-1,0.4-1.5c0.2-0.5,0.3-1,0.4-1.6c0.2-0.5,0.3-1,0.4-1.5
	c0.2-0.5,0.3-1,0.4-1.6c0.2-0.5,0.3-1,0.4-1.5c0.2-0.5,0.3-1,0.4-1.6c0.2-0.5,0.3-1,0.4-1.5c0.2-0.5,0.3-1,0.4-1.6
	c0.2-0.5,0.3-1,0.4-1.6c0.2-0.5,0.3-1,0.5-1.5c0.1-0.5,0.2-1,0.4-1.6c0.1-0.5,0.2-1,0.4-1.5c0.1-0.5,0.2-1,0.4-1.6
	c0.1-0.5,0.2-1,0.4-1.5c0.1-0.5,0.2-1,0.4-1.5c0.1-0.5,0.2-1,0.4-1.5c0.1-0.5,0.2-1,0.4-1.5c0.1-0.5,0.2-1,0.4-1.5
	c0.1-0.5,0.2-1,0.4-1.5c0.1-0.5,0.2-0.9,0.3-1.4c0.2-0.5,0.3-0.9,0.4-1.4c0.3-0.9,0.5-1.9,0.8-2.8c0.1-0.5,0.2-0.9,0.3-1.4
	c0.3-0.9,0.5-1.7,0.7-2.6c0.6-1.6,0.8-3.4,1.5-5c0.3-1.2,0.7-2.3,1-3.5c0.2-1.1,0.6-2.1,0.8-3.1c0.2-0.6,0.4-1.2,0.6-1.8
	c0.1-0.4,0.2-0.7,0.2-1c0.1-0.3,0.2-0.6,0.2-0.8c0.1-0.3,0.2-0.6,0.2-0.9c0.2-0.5,0.3-1,0.5-1.5c0.1-0.4,0.2-0.8,0.4-1.2
	c0.1-0.5,0.3-1.1,0.5-1.6c0-0.3,0.1-0.5,0.2-0.8c0-0.1,0-0.2,0.1-0.4c0.1-0.1,0.1-0.1,0.1-0.3c0.1-0.1,0.1-0.2,0.2-0.4v-0.1
	c0.1-0.1,0.2-0.1,0.3-0.2c0.2-0.1,0.3-0.1,0.5-0.2c0.2-0.1,0.5-0.1,0.7-0.1c0.3-0.1,0.5-0.1,0.8-0.2c0.4,0,0.7,0,1.1-0.1
	c0.4,0,0.8,0,1.1-0.1c0.4,0,0.9,0,1.3-0.1c0.9,0,1.8,0,2.8-0.1c1.4,0,2.9,0,4.3,0c1.4,0.2,2.7,0,4.1,0.2c0.4,0,0.8,0,1.1,0.1
	c0.4,0,0.7,0,1.1,0c0.3,0.1,0.6,0.1,0.9,0.1c0.3,0.1,0.5,0.1,0.7,0.1c0.2,0.1,0.4,0.1,0.6,0.2c0.1,0,0.2,0,0.3,0.1v0.1
	c0.1,0,0.1,0,0.1,0.1c0.1,0.1,0.1,0.1,0.1,0.2c0.1,0.1,0.1,0.1,0.1,0.3c0.1,0.1,0.1,0.2,0.2,0.3c0,0.1,0,0.2,0.1,0.4
	c0.1,0.2,0.1,0.3,0.2,0.4c0.2,0.5,0.3,1.1,0.5,1.6c0.1,0.2,0.1,0.4,0.2,0.6c0.2,0.5,0.3,0.9,0.5,1.4c0.1,0.3,0.1,0.6,0.2,0.8
	c0.1,0.3,0.2,0.6,0.2,0.9c0.1,0.3,0.2,0.6,0.2,0.9c0.1,0.3,0.2,0.6,0.3,0.9c0.2,0.6,0.3,1.3,0.5,1.9c0.3,1.1,0.7,2.1,0.9,3.2
	c0.5,1.6,0.9,3.1,1.3,4.7c0.5,1.2,0.7,2.6,1.1,3.8c0.3,0.9,0.5,1.8,0.7,2.7c0.3,0.9,0.5,1.9,0.8,2.8c0.1,0.5,0.2,1,0.3,1.5
	c0.2,0.5,0.3,0.9,0.4,1.4c0.3,1,0.5,2,0.8,3c0.1,0.5,0.2,1,0.4,1.5c0.1,0.5,0.2,1,0.4,1.5c0.1,0.5,0.2,1,0.4,1.6
	c0.1,0.5,0.2,1,0.4,1.5c0.1,0.5,0.2,1,0.3,1.6c0.2,0.5,0.3,1,0.4,1.5c0.2,0.5,0.3,1,0.5,1.6c0.1,0.5,0.2,1,0.4,1.6
	c0.1,0.5,0.2,1,0.4,1.6c0.1,0.5,0.2,1,0.4,1.6c0.1,0.5,0.2,1,0.4,1.6c0.1,0.5,0.2,1,0.4,1.6c0.1,0.5,0.2,1,0.4,1.6
	c0.1,0.5,0.2,1,0.4,1.5c0.1,0.5,0.2,1,0.3,1.6c0.2,0.5,0.3,1,0.4,1.6c0.2,0.5,0.3,1,0.4,1.6c0.2,0.5,0.3,1,0.4,1.5
	c0.3,1,0.5,2,0.8,3.1c0.1,0.5,0.2,1,0.3,1.5c0.3,1,0.5,2,0.8,3c0.2,1,0.4,1.9,0.7,2.9c0.2,0.9,0.4,1.9,0.7,2.8
	c0.9,2.4,1.6,5.3,2,7.9c0.2,0.8,0.4,1.6,0.7,2.4c0.1,0.8,0.3,1.5,0.6,2.3c0.1,0.3,0.1,0.7,0.2,1c0.1,0.4,0.1,0.7,0.2,1
	c0.1,0.4,0.1,0.7,0.2,1c0.1,0.3,0.1,0.7,0.2,1c0.1,0.6,0.2,1.2,0.4,1.8c0.2,1.3,0.5,2.5,0.8,3.8c0.1,0.2,0.1,0.3,0.2,0.5
	c0,0.4,0.1,0.7,0.2,1c0.1,0.2,0.1,0.3,0.1,0.4c0,0.2,0.1,0.5,0.2,0.7c0,0.2-0.1,0.5,0.1,0.7h-0.1c-0.1,0.1-0.1,0.2-0.2,0.3
	c-0.1,0.1-0.2,0.1-0.4,0.2c-0.2,0.1-0.4,0.1-0.6,0.1c-0.3,0.1-0.5,0.1-0.8,0.2c-0.3,0-0.6,0-0.9,0.1c-0.4,0.1-0.7,0.1-1.1,0.1
	c-0.8,0.1-1.6,0.1-2.4,0.2c-2.8,0-5.7,0-8.5,0c-0.9-0.1-1.8-0.1-2.8-0.2c-0.4,0-0.9,0-1.3,0c-0.4-0.1-0.8-0.1-1.2-0.1
	c-0.3-0.1-0.7-0.1-1.1-0.1c-0.3-0.1-0.6-0.1-0.9-0.2c-0.5,0-1-0.1-1.5-0.3c-0.4,0-0.6-0.2-0.8-0.4c-0.1-0.2-0.1-0.3-0.2-0.4
	c-0.1-0.2-0.1-0.4-0.2-0.6c-0.2-0.5-0.3-1.1-0.5-1.7c-0.2-0.8-0.4-1.5-0.6-2.3c-0.7-5.4-2.9-10.7-3.4-16.2c-0.2-0.9-0.4-1.7-0.6-2.6
	c-0.1-0.4-0.2-0.8-0.2-1.2c-0.3-1-0.3-2-0.7-3c0-0.2,0-0.5-0.1-0.7c-0.1-0.2-0.1-0.3-0.2-0.4c0-0.2,0-0.4-0.1-0.5
	c-0.1,0-0.2,0-0.4-0.1c-0.2,0-0.4,0-0.7-0.1c-0.7-0.1-1.5-0.1-2.2-0.2c-0.4,0-0.9,0-1.3,0c-1.8-0.2-3.8-0.2-5.6,0
	c-0.7,0-1.5,0.1-2.2,0.3c-0.2,0.1-0.5,0.1-0.7,0.3c-0.2,0.1-0.3,0.1-0.4,0.3v0.1c-0.1,0.1-0.1,0.2-0.1,0.3c-0.1,0.2-0.1,0.3-0.1,0.5
	c-0.2,0.9-0.3,1.8-0.6,2.6c-0.1,0.3-0.1,0.7-0.2,1.1c-0.1,0.4-0.2,0.8-0.2,1.2c-0.1,0.5-0.2,0.9-0.3,1.4c-0.5,4.1-1.7,8.3-2.5,12.3
	c-0.2,1.8-0.9,3.6-1.1,5.4c-0.1,0.4-0.2,0.8-0.3,1.1c-0.1,0.3-0.1,0.7-0.2,1c-0.1,0.3-0.1,0.6-0.2,0.8c-0.1,0.2-0.2,0.5-0.2,0.7
	c-0.1,0.2-0.1,0.3-0.2,0.4c0,0.1,0,0.2-0.1,0.3c-0.1,0.1-0.2,0.2-0.2,0.2c-0.2,0.1-0.3,0.1-0.5,0.2c-1.2,0.3-2.4,0.6-3.6,0.6
	c-0.4,0.1-0.8,0.1-1.2,0.2c-0.9,0.1-1.8,0.1-2.7,0.2c-0.4,0.1-0.9,0.1-1.4,0.1c-1.5,0.2-2.9,0-4.4,0.2c-0.9,0-1.8,0-2.8-0.1
	c-0.4,0-0.9,0-1.3,0c-0.4-0.1-0.8-0.1-1.2-0.1c-0.4-0.1-0.8-0.1-1.1-0.1c-0.3-0.1-0.6-0.1-0.9-0.2c-0.5,0-1-0.1-1.5-0.4
	c-0.2-0.1-0.3-0.1-0.5-0.2C591.1,489,591,488.9,591,488.8z M632.9,448.7c0.1-0.1,0-0.3-0.1-0.5c-0.1-0.2-0.1-0.3-0.1-0.5
	c-0.1-0.5-0.2-0.9-0.3-1.4c0-1.1-0.4-2.4-0.6-3.5c-0.3-1-0.4-2.1-0.6-3.1c-0.2-0.8-0.3-1.5-0.5-2.3c-0.1-0.8-0.2-1.6-0.4-2.4
	c-0.1-0.4-0.1-0.8-0.2-1.2c-0.2-0.8-0.3-1.7-0.5-2.5c-0.1-0.5-0.1-0.9-0.2-1.3c-0.2-0.9-0.3-1.7-0.4-2.6c-0.3-1.3-0.3-2.6-0.7-3.8
	c-0.1-0.5-0.1-0.9-0.2-1.3c-0.2-0.4-0.2-0.8-0.2-1.3c-0.1-1.6-0.2-1.6-0.3,0c0,0.4-0.1,0.8-0.2,1.3c-0.1,0.4-0.2,0.8-0.2,1.3
	c0,1.3-0.4,2.8-0.7,4c-0.1,0.5-0.1,0.9-0.2,1.4c-0.1,0.4-0.1,0.8-0.2,1.3c-0.1,0.5-0.1,0.9-0.2,1.4c-0.1,0.4-0.1,0.8-0.2,1.3
	c-0.1,0.5-0.1,0.9-0.2,1.3c-0.1,0.5-0.1,0.9-0.2,1.3c-0.1,0.4-0.1,0.8-0.2,1.3c-0.1,0.4-0.1,0.8-0.2,1.2c-0.2,0.8-0.3,1.6-0.5,2.4
	c-0.1,0.4-0.1,0.8-0.2,1.1c-0.3,1-0.3,2.1-0.7,3.1c-0.1,0.6-0.2,1.2-0.3,1.7c0,0.7-0.2,1.8-0.4,2.5c-0.4,0.8,0.8,0.5,1.2,0.6
	c0.4,0,0.8,0,1.1,0c0.9-0.1,1.7-0.1,2.6-0.1c0.5-0.1,0.9-0.1,1.4-0.1c0.4-0.1,0.9-0.1,1.3-0.2c0.3,0,0.7,0,1.1-0.1
	C632,449,632.4,448.9,632.9,448.7C632.9,448.6,632.8,448.8,632.9,448.7z"/>
</svg>
