<?xml version="1.0" encoding="utf-8"?>
<!-- Generator: Adobe Illustrator 18.0.0, SVG Export Plug-In . SVG Version: 6.00 Build 0)  -->
<!DOCTYPE svg PUBLIC "-//W3C//DTD SVG 1.1//EN" "http://www.w3.org/Graphics/SVG/1.1/DTD/svg11.dtd">
<svg version="1.1" id="Camada_1" xmlns="http://www.w3.org/2000/svg" xmlns:xlink="http://www.w3.org/1999/xlink" x="0px" y="0px"
	 viewBox="0 0 16 16" enable-background="new 0 0 16 16" xml:space="preserve">
<g>
	<path fill="#EBAC29" d="M8,0.1c-4.4,0-8,3.6-8,8c0,4.4,3.6,8,8,8c4.4,0,8-3.6,8-8C15.9,3.7,12.3,0.1,8,0.1z M5.4,11.8"/>
	<path fill="#FFE388" d="M8,0.5c-4.2,0-7.5,3.4-7.5,7.5c0,4.2,3.4,7.5,7.5,7.5s7.5-3.4,7.5-7.5C15.5,3.9,12.1,0.5,8,0.5z"/>
	<path fill="#FFEDBB" d="M8.4,15.1c-4,0-7.3-3.3-7.3-7.3c0-0.1,0-0.2,0-0.3C1,7.9,1,8.3,1,8.7c0,3.7,3,6.6,6.6,6.6
		c0.6,0,1.2-0.1,1.8-0.2C9.1,15.1,8.7,15.1,8.4,15.1z"/>
	<ellipse fill="#FFEDBB" cx="8" cy="5.3" rx="6.2" ry="4.5"/>
	<g>
		<circle fill="#EBAC29" cx="7.8" cy="5.2" r="2.2"/>
		<path fill="#EBAC29" d="M10,6.9c0,0-0.6,0.9-2.2,1c-1.6-0.1-2.2-1-2.2-1c-2.2,1.8-2,4.5-2,4.5c1.6,0.5,4,0.6,4.1,0.6
			c0.1,0,2.5-0.1,4.1-0.6C12,11.4,12.2,8.8,10,6.9z"/>
	</g>
</g>
</svg>
