<?xml version="1.0" encoding="utf-8"?>
<!-- Generator: Adobe Illustrator 18.0.0, SVG Export Plug-In . SVG Version: 6.00 Build 0)  -->
<!DOCTYPE svg PUBLIC "-//W3C//DTD SVG 1.1//EN" "http://www.w3.org/Graphics/SVG/1.1/DTD/svg11.dtd">
<svg version="1.1" id="Camada_1" xmlns="http://www.w3.org/2000/svg" xmlns:xlink="http://www.w3.org/1999/xlink" x="0px" y="0px"
	 viewBox="0 0 16 16" enable-background="new 0 0 16 16" xml:space="preserve">
<g>
	<path fill="#EBAC29" d="M8,0C3.6,0,0,3.6,0,8c0,4.4,3.6,8,8,8c4.4,0,8-3.6,8-8C16,3.6,12.4,0,8,0z M5.4,11.8"/>
	<path fill="#FFE388" d="M8,0.4C3.8,0.4,0.4,3.8,0.4,8c0,4.2,3.4,7.6,7.6,7.6c4.2,0,7.6-3.4,7.6-7.6C15.6,3.8,12.2,0.4,8,0.4z"/>
	<path fill="#FFEDBB" d="M8.5,15.1c-4.1,0-7.4-3.3-7.4-7.4c0-0.1,0-0.2,0-0.3C1,7.8,1,8.2,1,8.6c0,3.7,3,6.7,6.7,6.7
		c0.6,0,1.2-0.1,1.8-0.2C9.1,15.1,8.8,15.1,8.5,15.1z"/>
	<ellipse fill="#FFEDBB" cx="8.1" cy="5.3" rx="6.2" ry="4.5"/>
	<g>
		<path fill="#EBAC29" d="M8.4,4.2l-2.3,2c0,0-1.9,0-2.2,0c-0.3,0-0.3,0.2-0.3,0.3v2.9c0,0.1,0.1,0.3,0.3,0.3l2.2,0l2.3,2
			c0.2,0.2,0.7,0.1,0.7-0.3c0,0,0-6.6,0-7C9.1,4.1,8.6,4,8.4,4.2z"/>
		<path fill="#EBAC29" d="M10.4,6.3c0,0-0.2-0.2-0.2-0.2C10.1,6,10.1,6,10,6C9.8,6,9.7,6.2,9.7,6.4c0,0.1,0,0.1,0,0.2
			c0,0,0,0.1,0,0.1c0.5,0.8,0.4,2,0.1,2.6c0,0.1-0.1,0.2-0.1,0.2c0,0.1-0.1,0.1-0.1,0.2c0,0.2,0.1,0.3,0.3,0.3c0,0,0.1,0,0.1,0l0,0
			c0,0,0,0,0,0c0.1,0,0.2-0.2,0.3-0.3C11,8.7,11,7,10.4,6.3z"/>
		<path fill="#EBAC29" d="M11.5,5.3c0,0-0.2-0.2-0.2-0.2C11.2,5,11.1,5,11,5c-0.2,0-0.4,0.2-0.4,0.4c0,0.1,0,0.1,0.1,0.2
			c0,0,0.1,0.1,0.1,0.1c1,1.1,0.7,3.8,0.1,4.6c0,0.1-0.1,0.2-0.1,0.2c0,0.1-0.1,0.1-0.1,0.2c0,0.2,0.1,0.3,0.3,0.3c0,0,0.1,0,0.1,0
			l0,0c0,0,0,0,0,0c0.1,0,0.2-0.2,0.3-0.3C12.4,9.3,12.4,6.5,11.5,5.3z"/>
	</g>
</g>
</svg>
