<?xml version="1.0" encoding="utf-8"?>
<!-- Generator: Adobe Illustrator 18.0.0, SVG Export Plug-In . SVG Version: 6.00 Build 0)  -->
<!DOCTYPE svg PUBLIC "-//W3C//DTD SVG 1.1//EN" "http://www.w3.org/Graphics/SVG/1.1/DTD/svg11.dtd">
<svg version="1.1" id="Camada_1" xmlns="http://www.w3.org/2000/svg" xmlns:xlink="http://www.w3.org/1999/xlink" x="0px" y="0px"
	 viewBox="0 109.1 15.8 16" enable-background="new 0 109.1 15.8 16" xml:space="preserve">
<g>
	<g>
		<path fill="#EBAC29" d="M8,109.2c-4.3,0-7.8,3.5-7.8,7.8c0,4.3,3.5,7.8,7.8,7.8s7.8-3.5,7.8-7.8C15.7,112.7,12.2,109.2,8,109.2z"
			/>
		<path fill="#FFE388" d="M8,109.6c-4.1,0-7.3,3.3-7.3,7.3c0,4.1,3.3,7.3,7.3,7.3s7.3-3.3,7.3-7.3C15.3,112.9,12,109.6,8,109.6z"/>
		<path fill="#FFEDBB" d="M8.4,123.9c-3.9,0-7.1-3.2-7.1-7.1c0-0.1,0-0.2,0-0.3c-0.1,0.4-0.1,0.8-0.1,1.2c0,3.6,2.9,6.4,6.4,6.4
			c0.6,0,1.2-0.1,1.8-0.2C9.1,123.9,8.7,123.9,8.4,123.9z"/>
		<ellipse fill="#FFEDBB" cx="8" cy="114.4" rx="6.1" ry="4.5"/>
	</g>
	<path fill="#EBAC29" d="M7.6,113.5l-2.2,1.9c0,0-1.8,0-2.1,0S3,115.6,3,115.7v2.8c0,0.1,0.1,0.3,0.3,0.3h2.1l2.2,1.9
		c0.2,0.2,0.7,0.1,0.7-0.3c0,0,0-6.3,0-6.6C8.3,113.4,7.8,113.3,7.6,113.5z"/>
	<path fill="#EBAC29" d="M9.2,117.2v-0.3c0-0.2,0.2-0.3,0.3-0.3h3.1c0.2,0,0.3,0.2,0.3,0.3v0.3c0,0.2-0.2,0.3-0.3,0.3H9.6
		C9.4,117.5,9.2,117.4,9.2,117.2z"/>
</g>
</svg>
