<?xml version="1.0" encoding="utf-8"?>
<!-- Generator: Adobe Illustrator 18.0.0, SVG Export Plug-In . SVG Version: 6.00 Build 0)  -->
<!DOCTYPE svg PUBLIC "-//W3C//DTD SVG 1.0//EN" "http://www.w3.org/TR/2001/REC-SVG-20010904/DTD/svg10.dtd">
<svg version="1.0" id="Camada_1" xmlns="http://www.w3.org/2000/svg" xmlns:xlink="http://www.w3.org/1999/xlink" x="0px" y="0px"
	 viewBox="0 0 210 206.5" enable-background="new 0 0 210 206.5" xml:space="preserve">
<image overflow="visible" width="2474" height="2394" xlink:href="../../../banco de imagens/botões/butt 28.png"  transform="matrix(7.936099e-002 0 0 7.936099e-002 7.1993 7.9767)">
</image>
<g>
	<text transform="matrix(1 0 0 1 69.5005 174.2302)"><tspan x="0" y="0" fill="#1B7C09" font-family="'Big_Bottom_Cartoon'" font-size="23.8038">Ja</tspan><tspan x="36.6" y="0" fill="#010500" font-family="'Big_Bottom_Cartoon'" font-size="23.8038">du</tspan></text>
	<path fill="#1B7C09" d="M93.2,150.6c-1,0-1.8,2.4-3.4,2.3c-1.6-0.1-1.6-1.4-1.6-2c0-1.1,1.1-2.9,1.7-3.6c0.6-0.7,1.5-1.6,3.2-1.6
		c2.4,0,2.8,2.4,4.7,2.4c1.1,0,1.9-2.9,4-2.9c3.7,0,1.2,4,0.8,4.6c-0.6,1-2.4,3.5-4.9,3.5C95.3,153.3,94.9,150.6,93.2,150.6"/>
</g>
<image overflow="visible" width="1500" height="1500" xlink:href="../../../Desenhos Jogo Yegatu/png/13.png"  transform="matrix(0.1085 0 0 0.1085 23.648 6.5263)">
</image>
</svg>
