<?xml version="1.0" encoding="utf-8"?>
<!-- Generator: Adobe Illustrator 18.0.0, SVG Export Plug-In . SVG Version: 6.00 Build 0)  -->
<!DOCTYPE svg PUBLIC "-//W3C//DTD SVG 1.0//EN" "http://www.w3.org/TR/2001/REC-SVG-20010904/DTD/svg10.dtd">
<svg version="1.0" id="Camada_1" xmlns="http://www.w3.org/2000/svg" xmlns:xlink="http://www.w3.org/1999/xlink" x="0px" y="0px"
	 viewBox="0 0 151.8 55.5" enable-background="new 0 0 151.8 55.5" xml:space="preserve">
<g>
	<g>
		<path fill="#1B7C09" d="M28.2,29.4c0.1,0.5,0.2,1,0.2,1.5c0,0.1,0,0.2,0,0.4c0,0.1,0,0.2,0,0.4c0.1,0.5,0.1,1.2,0,1.7
			c0,0.1,0,0.2,0,0.3c0,0.1,0,0.2,0,0.3c0,0.2,0,0.4,0,0.6c0,0.3-0.1,0.6-0.2,0.9c0,0.1,0,0.2,0,0.3c0,0.1-0.1,0.2-0.1,0.3
			c0,0.1-0.1,0.2-0.1,0.3c0,0.1-0.1,0.2-0.1,0.3c-0.1,0.2-0.1,0.3-0.2,0.5c0,0.2-0.1,0.3-0.2,0.5c0,0.1-0.1,0.2-0.1,0.3
			c0,0.1-0.1,0.1-0.1,0.2c0,0.1-0.1,0.2-0.1,0.2c0,0.1-0.1,0.2-0.1,0.2c0,0.1-0.1,0.1-0.1,0.2c0,0.1-0.1,0.1-0.1,0.2
			c-0.1,0.1-0.2,0.3-0.2,0.4c0,0.1-0.1,0.1-0.1,0.2c0,0.1-0.1,0.1-0.1,0.2c0,0.1-0.1,0.1-0.1,0.2c-0.1,0.1-0.2,0.3-0.3,0.4
			c0,0.1-0.1,0.1-0.1,0.2c-0.1,0.1-0.1,0.1-0.2,0.2c-0.2,0.2-0.4,0.4-0.6,0.6c-0.1,0.1-0.1,0.1-0.2,0.2c-0.2,0.1-0.3,0.3-0.5,0.4
			c-0.1,0.1-0.2,0.2-0.3,0.2c-0.1,0.1-0.2,0.1-0.3,0.2c-0.1,0.1-0.2,0.1-0.4,0.2c-0.1,0.1-0.3,0.1-0.4,0.2c-0.1,0-0.1,0.1-0.2,0.1
			c-0.1,0-0.1,0-0.2,0.1c-0.1,0-0.1,0-0.2,0.1c-0.1,0-0.1,0-0.2,0.1c-0.1,0-0.1,0-0.2,0C21.8,43,21.5,43,21.3,43c-0.1,0-0.1,0-0.2,0
			c-0.1,0-0.1,0-0.2,0c-0.1,0-0.1,0-0.2,0c-0.1,0-0.1,0-0.2,0c-0.1,0-0.3,0-0.4,0c-0.1,0-0.3,0-0.4,0c-0.1,0-0.3,0-0.4,0
			c-0.1,0-0.1,0-0.2,0c-0.1,0-0.1,0-0.2,0c-0.1,0-0.1,0-0.2,0c-0.3,0-0.7-0.1-1-0.2c-0.1,0-0.3-0.1-0.4-0.1c-0.1,0-0.1,0-0.2-0.1
			c-0.1,0-0.1,0-0.2-0.1c-0.1,0-0.1,0-0.2-0.1c-0.1,0-0.1-0.1-0.2-0.1c-0.1-0.1-0.3-0.1-0.4-0.2c-0.1,0-0.1-0.1-0.2-0.1
			c-0.1,0-0.1-0.1-0.2-0.1c-0.1,0-0.1-0.1-0.2-0.1c-0.1,0-0.1-0.1-0.2-0.1c-0.1,0-0.1-0.1-0.2-0.1c-0.1,0-0.1-0.1-0.2-0.1
			c-0.1,0-0.1-0.1-0.2-0.1c-0.1,0-0.1-0.1-0.2-0.1c-0.1,0-0.1-0.1-0.2-0.1c-0.1-0.1-0.2-0.2-0.3-0.3c-0.1,0-0.1-0.1-0.2-0.1
			c-0.1-0.1-0.3-0.2-0.4-0.3c-0.3-0.2-0.5-0.4-0.7-0.6c-0.1,0-0.1-0.1-0.2-0.1c-0.1-0.1-0.1-0.1-0.2-0.2c0-0.1-0.1-0.1-0.2-0.2
			c-0.1-0.1-0.2-0.2-0.3-0.4c-0.1-0.1-0.1-0.1-0.2-0.2c-0.1-0.2-0.3-0.4-0.4-0.6c-0.1-0.1-0.2-0.3-0.2-0.4c-0.1-0.1-0.2-0.3-0.2-0.4
			c0-0.1-0.1-0.1-0.1-0.2c0-0.1-0.1-0.1-0.1-0.2c0-0.1-0.1-0.2-0.1-0.2c0-0.1-0.1-0.2-0.1-0.2c0-0.1-0.1-0.1-0.1-0.2
			c0-0.1-0.1-0.2-0.1-0.2c-0.1-0.2-0.2-0.5-0.2-0.7c0-0.1-0.1-0.2-0.1-0.3c0-0.1,0-0.2-0.1-0.3c0-0.1,0-0.1-0.1-0.2
			c0-0.1,0-0.2-0.1-0.3c0-0.1,0-0.2,0-0.3c-0.1-0.3-0.2-0.7-0.2-1.1c0-0.1,0-0.2,0-0.3c0-0.3,0-0.6-0.1-0.8c0-0.2,0-0.4,0-0.6
			c0-0.1,0-0.2,0-0.3c0-0.2,0-0.4,0-0.6c0-0.3,0.1-0.6,0.1-0.9c0.1-0.5,0.1-1,0.2-1.5c0-0.1,0-0.2,0-0.3c0-0.1,0.1-0.2,0.1-0.3
			c0.1-0.5,0.2-1.1,0.4-1.6c0.1-0.2,0.1-0.4,0.2-0.6c0.1-0.2,0.2-0.4,0.3-0.6c0-0.1,0.1-0.2,0.1-0.3c0.1-0.3,0.3-0.6,0.4-0.9
			c0-0.1,0.1-0.2,0.1-0.3c0.2-0.3,0.3-0.5,0.5-0.8c0-0.1,0.1-0.2,0.2-0.3c0.1-0.1,0.1-0.1,0.2-0.2c0.1-0.1,0.1-0.1,0.2-0.2
			c0.2-0.3,0.4-0.6,0.7-0.9c0.1-0.1,0.1-0.1,0.2-0.2c0.1-0.1,0.2-0.3,0.4-0.4c0.1-0.1,0.1-0.1,0.2-0.2c0.1-0.1,0.1-0.1,0.2-0.2
			c0.1-0.1,0.1-0.1,0.2-0.1c0.1-0.1,0.1-0.1,0.2-0.2c0.1-0.1,0.1-0.1,0.2-0.2c0.1-0.1,0.3-0.2,0.4-0.3c0.1-0.1,0.3-0.2,0.4-0.3
			c0.1,0,0.1-0.1,0.2-0.1c0.1-0.1,0.3-0.1,0.4-0.2c0.1-0.1,0.3-0.1,0.4-0.2c0.3-0.1,0.6-0.3,0.9-0.3c0.1,0,0.1,0,0.2-0.1
			c0.1,0,0.1,0,0.2-0.1c0.1,0,0.3-0.1,0.4-0.1c0.1-0.1,0.3-0.1,0.5-0.1c0.1,0,0.3-0.1,0.4-0.1c0.1,0,0.1,0,0.2,0c0.1,0,0.2,0,0.2,0
			c0.3-0.1,0.7,0,1.1,0c0.2,0,0.4,0.1,0.6,0.1c0.1,0,0.1,0,0.2,0c0.2,0,0.4,0.1,0.6,0.1c0.1,0,0.3,0.1,0.4,0.1c0.1,0,0.1,0,0.2,0.1
			c0.1,0,0.1,0.1,0.2,0.1c0.1,0,0.1,0,0.2,0.1c0.1,0,0.1,0,0.2,0.1c0.1,0,0.1,0.1,0.2,0.1c0.1,0.1,0.3,0.1,0.4,0.2
			c0.1,0.1,0.2,0.1,0.4,0.2c0.1,0,0.1,0.1,0.2,0.1c0.1,0.1,0.2,0.1,0.3,0.2c0.1,0,0.1,0.1,0.2,0.1c0.1,0.1,0.2,0.2,0.3,0.3
			c0,0,0.1,0.1,0.2,0.1c0.1,0.1,0.1,0.1,0.2,0.2c0.1,0,0.1,0.1,0.2,0.2c0.1,0.1,0.2,0.2,0.3,0.3c0,0,0.1,0.1,0.2,0.2
			c0,0.1,0.1,0.1,0.1,0.2c0.1,0.1,0.2,0.2,0.3,0.3c0,0.1,0.1,0.1,0.1,0.2c0,0.1,0.1,0.1,0.1,0.2c0,0.1,0.1,0.1,0.1,0.2
			c0,0.1,0.1,0.1,0.1,0.2c0,0.1,0.1,0.1,0.1,0.2c0,0.1,0.1,0.1,0.1,0.2c0,0.1,0.1,0.1,0.1,0.2c0,0.1,0.1,0.1,0.1,0.2
			c0.1,0.1,0.1,0.3,0.2,0.4c0,0.1,0.1,0.1,0.1,0.2c0,0.1,0,0.1,0,0.2c0.1,0.4,0.2,0.8,0.2,1.2c0,0.1,0,0.2,0,0.2c0,0.1,0,0.2,0,0.3
			c0,0.3,0.1,0.6-0.2,0.8c-0.1,0-0.1,0.1-0.2,0.1c-0.2,0.1-0.3,0.1-0.5,0.2c-0.1,0-0.2,0-0.3,0.1c-0.1,0-0.2,0-0.3,0
			c-0.1,0-0.3,0-0.4,0c-0.3,0-0.5,0-0.8,0c-0.3,0-0.7,0-1-0.1c-0.2,0-0.5-0.1-0.7-0.2c0,0-0.1-0.1-0.1-0.1c0,0,0-0.1,0-0.1
			c0-0.2,0-0.4-0.1-0.6c0-0.1,0-0.1,0-0.2c0-0.1,0-0.1,0-0.2c0-0.1-0.1-0.1-0.1-0.2c0-0.1-0.1-0.1-0.1-0.2c0-0.2-0.2-0.3-0.3-0.5
			c0,0-0.1-0.1-0.1-0.2c0,0-0.1-0.1-0.1-0.1c-0.1-0.1-0.2-0.3-0.4-0.4c0,0-0.1-0.1-0.1-0.1c-0.1,0-0.1-0.1-0.2-0.1
			c-0.1,0-0.1-0.1-0.2-0.1c-0.1,0-0.1-0.1-0.2-0.1c-0.1,0-0.1,0-0.2-0.1c-0.1,0-0.1,0-0.2-0.1c-0.1,0-0.2-0.1-0.3-0.1
			c-0.3,0-0.6,0-0.9,0c-0.1,0-0.1,0-0.2,0c-0.1,0-0.1,0-0.2,0c-0.1,0-0.1,0-0.2,0c-0.1,0-0.1,0.1-0.2,0.1c-0.1,0-0.1,0-0.2,0.1
			c-0.1,0.1-0.2,0.1-0.3,0.2c-0.1,0-0.1,0.1-0.2,0.1c-0.2,0.2-0.4,0.4-0.7,0.5c-0.1,0.1-0.1,0.1-0.2,0.2c-0.2,0.2-0.4,0.5-0.6,0.8
			c0,0.1-0.1,0.2-0.1,0.2c-0.1,0.2-0.2,0.3-0.2,0.5c0,0.1-0.1,0.2-0.1,0.3c0,0.1-0.1,0.2-0.1,0.3c-0.1,0.3-0.2,0.6-0.3,0.9
			c0,0.1-0.1,0.2-0.1,0.4c0,0.1-0.1,0.2-0.1,0.3c-0.1,0.3-0.1,0.5-0.1,0.8c0,0.1,0,0.3,0,0.4c0,0.1,0,0.3,0,0.4c0,0.3,0,0.6,0,0.9
			c0,0.1,0,0.3,0,0.4c0,0.1,0,0.3,0,0.4c0,0.3,0.1,0.5,0.1,0.8c0,0.1,0,0.3,0.1,0.4c0,0.3,0.2,0.7,0.2,1c0,0.1,0.1,0.2,0.1,0.3
			c0,0.1,0.1,0.2,0.1,0.3c0.2,0.4,0.3,0.7,0.5,1.1c0,0.1,0.1,0.1,0.2,0.2c0.1,0.1,0.2,0.3,0.3,0.4c0.1,0.2,0.3,0.4,0.5,0.5
			c0.1,0.1,0.1,0.1,0.2,0.2c0.1,0.1,0.1,0.1,0.2,0.2c0.1,0.1,0.3,0.2,0.4,0.2c0.1,0,0.1,0.1,0.2,0.1c0.1,0,0.1,0.1,0.2,0.1
			c0.1,0,0.1,0.1,0.2,0.1c0.1,0,0.1,0,0.2,0.1c0.2,0.1,0.4,0.1,0.6,0.1c0.1,0,0.1,0,0.2,0c0.1,0,0.2,0,0.4,0c0.1,0,0.3,0,0.4,0
			c0.2,0,0.4-0.1,0.5-0.1c0.2,0,0.4-0.1,0.5-0.2c0.1,0,0.1-0.1,0.2-0.1c0.1,0,0.1-0.1,0.2-0.1c0.2-0.1,0.4-0.4,0.5-0.6
			c0-0.1,0.1-0.1,0.1-0.2c0-0.1,0.1-0.1,0.1-0.2c0-0.1,0.1-0.1,0.1-0.2c0-0.1,0.1-0.1,0.1-0.2c0-0.1,0.1-0.1,0.1-0.2
			c0.1-0.2,0.1-0.5,0.1-0.7c0-0.1,0-0.2,0-0.2c0.1-0.4-0.1-0.3-0.4-0.2c-0.1,0-0.2,0-0.3,0c-0.2,0-0.5,0-0.7,0.1c-0.1,0-0.3,0-0.4,0
			c-0.1,0-0.3,0-0.4,0c-0.2,0-0.5,0-0.7,0c-0.2,0-0.3,0-0.5-0.1c-0.1,0-0.2-0.1-0.2-0.2c0-0.1-0.1-0.1-0.1-0.2
			c0-0.1-0.1-0.2-0.1-0.2c0-0.1-0.1-0.2-0.1-0.3c0-0.1-0.1-0.2-0.1-0.3c0-0.1-0.1-0.2-0.1-0.3c-0.2-0.7-0.1-1.4-0.2-2.2
			c0-0.1,0-0.2,0-0.3c0-0.1,0-0.2,0-0.2c0-0.1,0-0.1,0-0.2c0,0,0-0.1,0.1-0.1c0,0,0,0,0.1,0c0.1,0,0.2,0,0.3,0c0.1,0,0.1,0,0.2,0
			c0.1,0,0.2,0,0.2,0c0.1,0,0.2,0,0.3,0c0.2,0,0.4,0,0.6,0c0.1,0,0.2,0,0.3,0c0.2,0,0.4,0,0.7,0c0.7-0.1,1.5-0.1,2.2,0
			c0.1,0,0.2,0,0.4,0c0.2,0,0.5,0,0.7,0c0.2,0,0.4,0,0.7,0.1c0.3,0,0.6,0.1,0.9,0.1c0.2,0,0.3,0.1,0.5,0.1c0.1,0,0.1,0,0.2,0.1
			c0.1,0,0.2,0.1,0.3,0.1C28.2,29.2,28.2,29.3,28.2,29.4C28.2,29.5,28.2,29.3,28.2,29.4z"/>
		<path fill="#1B7C09" d="M39.6,40.9c0-0.1-0.1,0-0.1,0.2c0,0.1-0.1,0.1-0.2,0.2c-0.1,0.1-0.2,0.2-0.3,0.3c-0.1,0.1-0.1,0.1-0.2,0.1
			c-0.1,0.1-0.2,0.2-0.3,0.3c-0.1,0-0.1,0.1-0.2,0.1c-0.2,0.1-0.4,0.2-0.5,0.3c-0.1,0.1-0.2,0.1-0.4,0.2c-0.1,0-0.1,0-0.2,0.1
			c-0.1,0-0.1,0.1-0.2,0.1c-0.1,0-0.1,0-0.2,0c-0.2,0.1-0.5,0.2-0.8,0.2c-0.1,0-0.1,0-0.2,0c-0.1,0-0.3,0-0.4,0c-0.1,0-0.1,0-0.2,0
			c-0.1,0-0.2,0-0.4,0c-0.1,0-0.1,0-0.2,0c-0.1,0-0.1,0-0.2,0c-0.2,0-0.4-0.1-0.6-0.1c-0.1,0-0.3-0.1-0.4-0.1
			c-0.1,0-0.1-0.1-0.2-0.1c-0.1,0-0.1-0.1-0.2-0.1c-0.2-0.1-0.3-0.2-0.5-0.3c-0.1,0-0.1-0.1-0.2-0.1c-0.1,0-0.1-0.1-0.2-0.1
			c-0.1,0-0.1-0.1-0.2-0.1c-0.1-0.1-0.2-0.1-0.3-0.2c-0.2-0.1-0.4-0.3-0.5-0.4c0,0-0.1-0.1-0.2-0.2c0-0.1-0.1-0.1-0.2-0.2
			c-0.1-0.1-0.3-0.3-0.4-0.5c0-0.1-0.1-0.1-0.1-0.2c0-0.1-0.1-0.1-0.1-0.2c0-0.1-0.1-0.1-0.1-0.2c0-0.1-0.1-0.1-0.1-0.2
			c-0.1-0.1-0.2-0.3-0.2-0.4c-0.1-0.3-0.3-0.6-0.3-0.9c0-0.1-0.1-0.2-0.1-0.2c0-0.1,0-0.2,0-0.2c-0.1-0.3-0.1-0.7-0.2-1.1
			c0-0.1,0-0.2,0-0.3c0-0.1,0-0.2,0-0.3c0-0.4,0-0.8,0-1.2c0-0.1,0-0.2,0-0.3c0-0.3,0.1-0.6,0.1-0.9c0-0.1,0.1-0.3,0.1-0.4
			c0-0.3,0.1-0.7,0.3-1c0-0.1,0.1-0.2,0.1-0.3c0.1-0.2,0.1-0.4,0.2-0.6c0-0.1,0.1-0.2,0.1-0.3c0-0.1,0.1-0.2,0.2-0.3
			c0-0.1,0.1-0.2,0.2-0.3c0-0.1,0.1-0.2,0.2-0.2c0.1-0.1,0.1-0.2,0.2-0.2c0.3-0.4,0.6-0.7,0.9-1c0.1-0.1,0.1-0.1,0.2-0.2
			c0.1-0.1,0.3-0.2,0.4-0.3c0.2-0.2,0.4-0.3,0.7-0.4c0.1,0,0.2-0.1,0.2-0.1c0.1,0,0.2-0.1,0.2-0.1c0.1,0,0.1-0.1,0.2-0.1
			c0.1,0,0.2-0.1,0.2-0.1c0.2,0,0.3-0.1,0.5-0.1c0.3-0.1,0.7-0.2,1-0.2c0.1,0,0.2,0,0.2,0c0.3-0.1,0.7-0.1,1,0c0.1,0,0.2,0,0.2,0
			c0.2,0,0.5,0.1,0.7,0.1c0.2,0.1,0.5,0.1,0.7,0.2c0.1,0,0.3,0.1,0.4,0.2c0.1,0,0.1,0.1,0.2,0.1c0.1,0.1,0.3,0.1,0.4,0.2
			c0.1,0,0.1,0.1,0.2,0.1c0.1,0.1,0.3,0.2,0.4,0.3c0.1,0.2,0.2,0.2,0.2,0.2c0-0.3,0.1-0.6,0.1-0.8c0-0.1,0.1-0.2,0.1-0.3
			c0-0.1,0-0.1,0.1-0.1c0.1,0,0.2-0.1,0.2-0.1c0.1,0,0.1,0,0.2,0c0.6-0.1,1.4-0.1,2,0c0.1,0,0.3,0,0.4,0c0.6,0,1.3,0,1.9,0.3
			c0.1,0,0.1,0,0.2,0c0,0,0.1,0.1,0.1,0.1l0,0c0,0.3,0,0.7,0,0.9c0,0.1,0,0.2,0,0.2c0,0.2,0,0.3,0,0.5c0,0.1,0,0.2,0,0.3
			c0,0.2,0,0.4,0,0.6c0,0.1,0,0.2,0,0.3c0,0.2,0,0.5,0,0.7c0,0.1,0,0.3,0,0.4c0,0.4,0,0.8,0,1.2c0,0.6,0,1.2,0,1.8
			c0,0.4,0,0.9,0,1.3c0,0.1,0,0.3,0,0.4c0,0.3,0,0.5,0,0.8c0,0.1,0,0.3,0,0.4c0,0.1,0,0.3,0,0.4c0,0.1,0,0.2,0,0.3
			c0,0.1,0,0.2,0,0.3c0,0.1,0,0.2,0,0.3c0,0.1,0,0.2,0,0.3c0,0.1,0,0.2,0,0.3c0,0.2,0,0.4,0,0.5c0,0.1,0,0.2,0,0.3
			c0,0.1,0,0.2,0,0.2c0,0.1,0,0.3,0,0.4c0,0.1,0,0.2,0,0.4c0,0.2,0.1,0.5,0,0.7c0,0,0,0.1,0,0.1c0,0,0,0,0,0.1c0,0-0.1,0-0.1,0
			c-0.1,0-0.1,0-0.2,0c-0.1,0-0.1,0-0.2,0c-0.1,0-0.2,0-0.2,0c-0.1,0-0.2,0-0.3,0c-0.8,0.1-1.8,0.1-2.6,0c-0.1,0-0.3,0-0.4,0
			c-0.1,0-0.3,0-0.4,0c-0.1,0-0.2,0-0.3,0c-0.1,0-0.2,0-0.3,0c-0.1,0-0.2,0-0.3,0c-0.1,0-0.1,0-0.2,0c-0.1,0-0.1,0-0.2,0
			c0,0-0.1,0-0.1,0c0,0-0.1,0-0.1,0c0,0-0.1-0.1-0.1-0.1c0-0.1-0.1-0.1-0.1-0.2c0-0.1,0-0.2,0-0.2c0-0.1,0-0.2,0-0.3
			c0-0.1,0-0.2,0-0.3c0-0.1,0-0.2,0-0.3C39.7,41.1,39.7,41,39.6,40.9C39.6,40.8,39.7,41,39.6,40.9z M37.6,32.6c-0.2,0-0.4,0-0.6,0
			c-0.2,0-0.4,0.1-0.5,0.2c-0.2,0.1-0.5,0.3-0.7,0.5c-0.1,0.1-0.3,0.3-0.4,0.5c-0.1,0.2-0.2,0.3-0.3,0.5c0,0.1-0.1,0.2-0.1,0.3
			c0,0.3-0.1,0.6-0.1,0.9c0,0.3,0.1,0.6,0.3,0.8c0.1,0.1,0.1,0.2,0.2,0.2c0.2,0.3,0.5,0.6,0.8,0.8c0.5,0.4,1.3,0.3,1.9,0.1
			c0.1,0,0.2-0.1,0.3-0.1c0.1-0.1,0.2-0.1,0.3-0.2c0.1,0,0.2-0.1,0.2-0.2c0.2-0.1,0.3-0.3,0.4-0.4c0.1-0.2,0.2-0.3,0.3-0.5
			c0-0.1,0.1-0.2,0.1-0.3c0-0.2,0.1-0.4,0.1-0.6c0-0.2,0-0.4-0.1-0.6c0-0.1-0.1-0.2-0.1-0.3c0-0.1-0.1-0.2-0.1-0.3
			c0-0.1-0.1-0.2-0.2-0.2c-0.1-0.1-0.3-0.3-0.4-0.4c-0.1-0.1-0.2-0.1-0.2-0.2c-0.2-0.1-0.4-0.2-0.5-0.3C38,32.7,37.8,32.6,37.6,32.6
			C37.5,32.6,37.7,32.6,37.6,32.6z"/>
		<path fill="#020202" d="M48.2,46C48.2,46,48.2,46,48.2,46c0-0.2,0.2-0.3,0.3-0.4c0.1-0.1,0.3-0.1,0.4-0.2c0.1,0,0.2-0.1,0.3-0.1
			c0.2-0.1,0.4-0.2,0.6-0.2c0.3,0,0.7-0.2,1-0.2c0.1,0,0.2,0,0.3-0.1c0.4-0.1,0.9-0.1,1.3-0.2c0.1,0,0.2,0,0.3,0c0.1,0,0.2,0,0.3,0
			c0.2,0,0.3,0,0.5,0c0,0,0.1,0,0.1,0c0,0,0.1,0,0.1,0.1c0,0,0.1,0.1,0.1,0.1c0,0,0.1,0.1,0.1,0.1c0,0,0,0.1,0.1,0.1
			c0,0,0.1,0.1,0.1,0.1c0.1,0.1,0.1,0.2,0.2,0.2c0,0,0.1,0.1,0.1,0.1c0.1,0,0.1,0.1,0.2,0.1c0.2,0.1,0.3,0.1,0.5,0.2
			c0.1,0,0.2,0,0.4,0.1c0.1,0,0.3,0,0.4,0c0.1,0,0.2,0,0.3-0.1c0.1,0,0.1-0.1,0.2-0.1c0.1-0.1,0.2-0.1,0.3-0.2
			c0.1,0,0.1-0.1,0.2-0.1c0.1,0,0.1-0.1,0.2-0.1c0.1-0.1,0.1-0.1,0.2-0.2c0.1-0.1,0.2-0.2,0.3-0.4c0.1-0.1,0.2-0.3,0.3-0.4
			c0.1-0.1,0.1-0.2,0.2-0.2c0-0.1,0.1-0.2,0.1-0.3c0.3-0.7,0.5-1.4,0.5-2.1c0-0.1,0-0.3,0-0.5c0-0.3,0-0.6,0-1c0-0.1-0.1,0-0.1,0.2
			c-0.1,0.1-0.2,0.3-0.3,0.4c-0.1,0.1-0.2,0.2-0.3,0.3c-0.1,0-0.1,0.1-0.2,0.2c-0.1,0-0.1,0.1-0.2,0.1c-0.1,0-0.1,0.1-0.2,0.1
			c-0.1,0-0.1,0.1-0.2,0.1c-0.1,0.1-0.3,0.2-0.4,0.3c-0.1,0-0.1,0.1-0.2,0.1c-0.1,0-0.1,0.1-0.2,0.1c-0.1,0-0.1,0.1-0.2,0.1
			c-0.1,0-0.1,0.1-0.2,0.1c-0.1,0-0.1,0-0.2,0.1c-0.1,0-0.1,0-0.2,0.1c-0.1,0-0.3,0.1-0.4,0.1c-0.1,0-0.3,0.1-0.4,0.1
			c-0.2,0-0.5,0-0.6,0.1c-0.3,0-0.6,0-0.9,0c-0.1,0-0.1,0-0.2,0c-0.3,0-0.8-0.1-1.1-0.2c-0.1,0-0.1,0-0.2-0.1
			c-0.1,0-0.3-0.1-0.4-0.2c-0.1-0.1-0.3-0.1-0.4-0.2c-0.1,0-0.1-0.1-0.2-0.1c-0.1,0-0.1-0.1-0.2-0.1c-0.1,0-0.1-0.1-0.2-0.1
			c-0.1-0.1-0.3-0.1-0.4-0.2c-0.1-0.1-0.3-0.2-0.4-0.3c-0.1,0-0.1-0.1-0.2-0.1c-0.2-0.2-0.3-0.3-0.5-0.5c-0.1-0.1-0.1-0.1-0.2-0.2
			c-0.1-0.1-0.1-0.1-0.2-0.2c0-0.1-0.1-0.1-0.1-0.2c-0.1-0.1-0.1-0.1-0.2-0.2c0-0.1-0.1-0.1-0.1-0.2c0-0.1-0.1-0.1-0.1-0.2
			c0-0.1-0.1-0.1-0.1-0.2c0-0.1-0.1-0.1-0.1-0.2c0-0.1-0.1-0.1-0.1-0.2c-0.1-0.2-0.2-0.5-0.3-0.7c0-0.1,0-0.2-0.1-0.2
			c0-0.1,0-0.2,0-0.3c-0.1-0.2-0.1-0.5-0.1-0.8c0-0.1,0-0.2,0-0.3c-0.1-0.4,0-0.8,0-1.1c0-0.1,0-0.2,0-0.3c0-0.2,0-0.4,0.1-0.6
			c0-0.2,0.1-0.4,0.1-0.6c0.1-0.5,0.3-1,0.4-1.4c0-0.1,0.1-0.2,0.1-0.3c0-0.1,0.1-0.2,0.1-0.3c0.1-0.2,0.2-0.3,0.3-0.5
			c0-0.1,0.1-0.2,0.1-0.2c0-0.1,0.1-0.1,0.1-0.2c0.1-0.2,0.2-0.3,0.3-0.5c0.1-0.1,0.1-0.1,0.2-0.2c0.3-0.4,0.6-0.8,1-1.1
			c0.2-0.2,0.4-0.3,0.5-0.5c0.1-0.1,0.1-0.1,0.2-0.2c0.1,0,0.1-0.1,0.2-0.1c0.1,0,0.1-0.1,0.2-0.1c0.1,0,0.1-0.1,0.2-0.1
			c0.1,0,0.1-0.1,0.2-0.1c0.1,0,0.1-0.1,0.2-0.1c0.1,0,0.1-0.1,0.2-0.1c0.1,0,0.1-0.1,0.2-0.1c0.1,0,0.1,0,0.2-0.1
			c0.1,0,0.1-0.1,0.2-0.1c0.1,0,0.1,0,0.2-0.1c0.1,0,0.1,0,0.2-0.1c0.2,0,0.4-0.1,0.6-0.1c0.1,0,0.1,0,0.2,0c0.1,0,0.1,0,0.2,0
			c0.2,0,0.4,0,0.7,0c0.1,0,0.1,0,0.2,0c0.1,0,0.1,0,0.2,0c0.2,0,0.4,0.1,0.6,0.1c0.1,0,0.1,0,0.2,0.1c0.1,0,0.1,0,0.2,0.1
			c0.1,0.1,0.3,0.1,0.4,0.2c0.1,0,0.1,0.1,0.2,0.1c0.1,0,0.1,0.1,0.2,0.1c0.1,0,0.1,0.1,0.2,0.1c0.1,0.1,0.3,0.2,0.4,0.3
			c0.1,0,0.1,0.1,0.2,0.1c0.1,0.1,0.1,0.1,0.2,0.2c0.1,0,0.1,0.1,0.2,0.2c0.1,0.2,0.2,0.2,0.2,0.1c0-0.2,0-0.3,0-0.5
			c0-0.1,0-0.2,0-0.4c0-0.2,0-0.3,0.1-0.4c0.1-0.1,0.1-0.1,0.2-0.2c0,0,0.1,0,0.1-0.1c0.1,0,0.1,0,0.2-0.1c0.1,0,0.2,0,0.2-0.1
			c0.8-0.2,1.6-0.2,2.4-0.2c0.2,0,0.4,0.1,0.6,0.1c0.1,0,0.2,0.1,0.2,0.1c0.1,0,0.1,0.1,0.2,0.1c0,0,0.1,0.1,0.1,0.1
			c0,0,0,0.1,0,0.1c0,0,0,0.1,0,0.1c0,0,0,0.1,0,0.1c0,0,0,0.1,0,0.2c0,0,0,0.1,0,0.1c0,0.1,0,0.1,0,0.2c0,0,0,0.1,0,0.1
			c0,0.1,0,0.2,0.1,0.4c0,0.3,0.1,0.6,0.1,0.9c0.1,0.6,0.2,1.2,0.3,1.8c0,0.8,0.2,1.7,0.3,2.5c0,0.5,0.1,0.9,0.1,1.4
			c0,0.2,0.1,0.5,0.1,0.7c0,0.2,0.1,0.5,0.1,0.7c0,0.1,0,0.3,0,0.4c0,0.3,0,0.5,0,0.8c0,0.1,0,0.2,0,0.4c0,0.2,0,0.3,0,0.5
			c0,0.1,0,0.3,0,0.5c0,0.1,0,0.3,0,0.5c0,0.3,0,0.6,0,0.9c0,0.5,0,1.1,0,1.6c0,0.3,0,0.5,0,0.8c0,0.1,0,0.3,0,0.4
			c0,0.2,0,0.5,0,0.7c-0.1,0.5-0.1,1.1-0.2,1.6c0,0.1,0,0.2,0,0.3c0,0.1-0.1,0.2-0.1,0.3c0,0.1-0.1,0.2-0.1,0.3
			c-0.1,0.4-0.2,0.9-0.4,1.3c0,0.1-0.1,0.1-0.1,0.2c0,0.1-0.1,0.2-0.1,0.2c0,0.1-0.1,0.1-0.1,0.2c-0.1,0.1-0.1,0.3-0.2,0.4
			c0,0.1-0.1,0.1-0.1,0.2c0,0.1-0.1,0.1-0.1,0.2c0,0.1-0.1,0.1-0.2,0.2c0,0.1-0.1,0.1-0.2,0.2c0,0.1-0.1,0.1-0.2,0.2
			c0,0.1-0.1,0.1-0.2,0.2c-0.1,0-0.1,0.1-0.2,0.1c-0.1,0-0.1,0.1-0.2,0.2c-0.1,0-0.1,0.1-0.2,0.1c-0.1,0.1-0.1,0.1-0.2,0.2
			c-0.1,0-0.1,0.1-0.2,0.1c-0.1,0-0.1,0.1-0.2,0.1c-0.1,0.1-0.3,0.1-0.4,0.2c-0.1,0.1-0.3,0.1-0.4,0.2c-0.2,0.1-0.5,0.2-0.7,0.3
			c-0.2,0-0.3,0.1-0.5,0.1c-0.1,0-0.2,0-0.3,0.1c-0.3,0.1-0.6,0.1-0.8,0.2c-0.1,0-0.2,0-0.3,0c-0.2,0-0.4,0.1-0.6,0.1
			c-0.1,0-0.2,0-0.3,0c-0.1,0-0.2,0-0.3,0c-0.2,0-0.4,0-0.6,0c-0.1,0-0.2,0-0.3,0c-0.1,0-0.2,0-0.3,0c-0.1,0-0.2,0-0.3,0
			c-0.2,0-0.4,0-0.6-0.1c-0.1,0-0.2,0-0.3,0c-0.1,0-0.2-0.1-0.3-0.1c-0.3-0.1-0.7-0.2-1-0.4c-0.1,0-0.2-0.1-0.2-0.1
			c-0.2-0.1-0.3-0.2-0.5-0.3c-0.1,0-0.2-0.1-0.2-0.1c-0.1-0.1-0.1-0.1-0.2-0.2c-0.1-0.1-0.3-0.2-0.4-0.3c-0.1-0.1-0.1-0.1-0.2-0.2
			c-0.1-0.1-0.3-0.2-0.4-0.4c-0.3-0.3-0.5-0.6-0.7-0.9c0-0.1-0.1-0.2-0.1-0.2c-0.2-0.2-0.3-0.5-0.4-0.8c0-0.1-0.1-0.2-0.1-0.3
			c0-0.1-0.1-0.2-0.1-0.3C48.4,46.9,48.3,46.5,48.2,46C48.2,46,48.2,46.2,48.2,46z M56.9,35.2c0.1-0.2,0.1-0.4,0.2-0.6
			c0-0.1,0-0.2,0-0.3c0-0.1,0-0.2,0-0.3c0-0.1,0-0.2,0-0.3c0-0.1-0.1-0.2-0.1-0.3c0-0.1-0.1-0.2-0.1-0.3c0-0.1-0.1-0.2-0.1-0.2
			c-0.1-0.1-0.1-0.2-0.2-0.2c-0.1-0.2-0.2-0.3-0.4-0.4c-0.1-0.1-0.2-0.1-0.2-0.2c-0.1,0-0.2-0.1-0.2-0.1c-0.2-0.1-0.5-0.2-0.8-0.2
			c-0.1,0-0.2,0-0.3,0c-0.1,0-0.2,0-0.3,0c-0.2,0-0.3,0.1-0.5,0.2c-0.3,0.2-0.6,0.4-0.9,0.7C53,32.9,53,33,52.9,33.1
			c-0.1,0.1-0.1,0.2-0.2,0.3c0,0.1-0.1,0.2-0.1,0.2c0,0.1-0.1,0.2-0.1,0.3c0,0.2-0.1,0.3-0.1,0.5c0,0.4,0,0.9,0.2,1.3
			c0,0.1,0.1,0.1,0.1,0.2c0,0.1,0.1,0.1,0.1,0.2c0.1,0.1,0.1,0.1,0.2,0.2c0.1,0.1,0.3,0.2,0.4,0.3c0.1,0,0.2,0.1,0.3,0.1
			c0.2,0.1,0.4,0.1,0.6,0.2c0.2,0,0.4,0,0.6,0c0.1,0,0.2,0,0.2-0.1c0.1,0,0.2,0,0.3-0.1c0.1,0,0.2-0.1,0.2-0.1
			c0.1,0,0.1-0.1,0.2-0.2c0.1,0,0.1-0.1,0.2-0.1c0.1-0.1,0.3-0.3,0.4-0.4c0.1-0.1,0.2-0.3,0.3-0.5C56.8,35.4,56.9,35.3,56.9,35.2
			C56.9,35.1,56.9,35.3,56.9,35.2z"/>
		<path fill="#020202" d="M74.6,40.9c0-0.1-0.1,0-0.1,0.2c0,0.1-0.1,0.1-0.2,0.2c-0.1,0.1-0.2,0.2-0.3,0.3c-0.1,0.1-0.1,0.1-0.2,0.1
			c-0.1,0.1-0.2,0.2-0.3,0.3c-0.1,0-0.1,0.1-0.2,0.1c-0.2,0.1-0.4,0.2-0.5,0.3c-0.1,0.1-0.2,0.1-0.4,0.2c-0.1,0-0.1,0-0.2,0.1
			c-0.1,0-0.1,0.1-0.2,0.1c-0.1,0-0.1,0-0.2,0c-0.2,0.1-0.5,0.2-0.8,0.2c-0.1,0-0.1,0-0.2,0c-0.1,0-0.3,0-0.4,0c-0.1,0-0.1,0-0.2,0
			c-0.1,0-0.2,0-0.4,0c-0.1,0-0.1,0-0.2,0c-0.1,0-0.1,0-0.2,0c-0.2,0-0.4-0.1-0.6-0.1c-0.1,0-0.3-0.1-0.4-0.1
			c-0.1,0-0.1-0.1-0.2-0.1c-0.1,0-0.1-0.1-0.2-0.1c-0.2-0.1-0.3-0.2-0.5-0.3c-0.1,0-0.1-0.1-0.2-0.1c-0.1,0-0.1-0.1-0.2-0.1
			c-0.1,0-0.1-0.1-0.2-0.1c-0.1-0.1-0.2-0.1-0.3-0.2c-0.2-0.1-0.4-0.3-0.5-0.4c0,0-0.1-0.1-0.2-0.2c0-0.1-0.1-0.1-0.2-0.2
			c-0.1-0.1-0.3-0.3-0.4-0.5c0-0.1-0.1-0.1-0.1-0.2c0-0.1-0.1-0.1-0.1-0.2c0-0.1-0.1-0.1-0.1-0.2c0-0.1-0.1-0.1-0.1-0.2
			c-0.1-0.1-0.2-0.3-0.2-0.4c-0.1-0.3-0.3-0.6-0.3-0.9c0-0.1-0.1-0.2-0.1-0.2c0-0.1,0-0.2,0-0.2c-0.1-0.3-0.1-0.7-0.2-1.1
			c0-0.1,0-0.2,0-0.3c0-0.1,0-0.2,0-0.3c0-0.4,0-0.8,0-1.2c0-0.1,0-0.2,0-0.3c0-0.3,0.1-0.6,0.1-0.9c0-0.1,0.1-0.3,0.1-0.4
			c0-0.3,0.1-0.7,0.3-1c0-0.1,0.1-0.2,0.1-0.3c0.1-0.2,0.1-0.4,0.2-0.6c0-0.1,0.1-0.2,0.1-0.3c0-0.1,0.1-0.2,0.2-0.3
			c0-0.1,0.1-0.2,0.2-0.3c0-0.1,0.1-0.2,0.2-0.2c0.1-0.1,0.1-0.2,0.2-0.2c0.3-0.4,0.6-0.7,0.9-1c0.1-0.1,0.1-0.1,0.2-0.2
			c0.1-0.1,0.3-0.2,0.4-0.3c0.2-0.2,0.4-0.3,0.7-0.4c0.1,0,0.2-0.1,0.2-0.1c0.1,0,0.2-0.1,0.2-0.1c0.1,0,0.1-0.1,0.2-0.1
			c0.1,0,0.2-0.1,0.2-0.1c0.2,0,0.3-0.1,0.5-0.1c0.3-0.1,0.7-0.2,1-0.2c0.1,0,0.2,0,0.2,0c0.3-0.1,0.7-0.1,1,0c0.1,0,0.2,0,0.2,0
			c0.2,0,0.5,0.1,0.7,0.1c0.2,0.1,0.5,0.1,0.7,0.2c0.1,0,0.3,0.1,0.4,0.2c0.1,0,0.1,0.1,0.2,0.1c0.1,0.1,0.3,0.1,0.4,0.2
			c0.1,0,0.1,0.1,0.2,0.1c0.1,0.1,0.3,0.2,0.4,0.3c0.1,0.2,0.2,0.2,0.2,0.2c0-0.3,0.1-0.6,0.1-0.8c0-0.1,0.1-0.2,0.1-0.3
			c0-0.1,0-0.1,0.1-0.1c0.1,0,0.2-0.1,0.2-0.1c0.1,0,0.1,0,0.2,0c0.6-0.1,1.4-0.1,2,0c0.1,0,0.3,0,0.4,0c0.6,0,1.3,0,1.9,0.3
			c0.1,0,0.1,0,0.2,0c0,0,0.1,0.1,0.1,0.1l0,0c0,0.3,0,0.7,0,0.9c0,0.1,0,0.2,0,0.2c0,0.2,0,0.3,0,0.5c0,0.1,0,0.2,0,0.3
			c0,0.2,0,0.4,0,0.6c0,0.1,0,0.2,0,0.3c0,0.2,0,0.5,0,0.7c0,0.1,0,0.3,0,0.4c0,0.4,0,0.8,0,1.2c0,0.6,0,1.2,0,1.8
			c0,0.4,0,0.9,0,1.3c0,0.1,0,0.3,0,0.4c0,0.3,0,0.5,0,0.8c0,0.1,0,0.3,0,0.4c0,0.1,0,0.3,0,0.4c0,0.1,0,0.2,0,0.3
			c0,0.1,0,0.2,0,0.3c0,0.1,0,0.2,0,0.3c0,0.1,0,0.2,0,0.3c0,0.1,0,0.2,0,0.3c0,0.2,0,0.4,0,0.5c0,0.1,0,0.2,0,0.3
			c0,0.1,0,0.2,0,0.2c0,0.1,0,0.3,0,0.4c0,0.1,0,0.2,0,0.4c0,0.2,0.1,0.5,0,0.7c0,0,0,0.1,0,0.1c0,0,0,0,0,0.1c0,0-0.1,0-0.1,0
			c-0.1,0-0.1,0-0.2,0c-0.1,0-0.1,0-0.2,0c-0.1,0-0.2,0-0.2,0c-0.1,0-0.2,0-0.3,0c-0.8,0.1-1.8,0.1-2.6,0c-0.1,0-0.3,0-0.4,0
			c-0.1,0-0.3,0-0.4,0c-0.1,0-0.2,0-0.3,0c-0.1,0-0.2,0-0.3,0c-0.1,0-0.2,0-0.3,0c-0.1,0-0.1,0-0.2,0c-0.1,0-0.1,0-0.2,0
			c0,0-0.1,0-0.1,0c0,0-0.1,0-0.1,0c0,0-0.1-0.1-0.1-0.1c0-0.1-0.1-0.1-0.1-0.2c0-0.1,0-0.2,0-0.2c0-0.1,0-0.2,0-0.3
			c0-0.1,0-0.2,0-0.3c0-0.1,0-0.2,0-0.3C74.7,41.1,74.7,41,74.6,40.9C74.6,40.8,74.7,41,74.6,40.9z M72.6,32.6c-0.2,0-0.4,0-0.6,0
			c-0.2,0-0.4,0.1-0.5,0.2c-0.2,0.1-0.5,0.3-0.7,0.5c-0.1,0.1-0.3,0.3-0.4,0.5c-0.1,0.2-0.2,0.3-0.3,0.5c0,0.1-0.1,0.2-0.1,0.3
			c0,0.3-0.1,0.6-0.1,0.9c0,0.3,0.1,0.6,0.3,0.8c0.1,0.1,0.1,0.2,0.2,0.2c0.2,0.3,0.5,0.6,0.8,0.8c0.5,0.4,1.3,0.3,1.9,0.1
			c0.1,0,0.2-0.1,0.3-0.1c0.1-0.1,0.2-0.1,0.3-0.2c0.1,0,0.2-0.1,0.2-0.2c0.2-0.1,0.3-0.3,0.4-0.4c0.1-0.2,0.2-0.3,0.3-0.5
			c0-0.1,0.1-0.2,0.1-0.3c0-0.2,0.1-0.4,0.1-0.6c0-0.2,0-0.4-0.1-0.6c0-0.1-0.1-0.2-0.1-0.3c0-0.1-0.1-0.2-0.1-0.3
			c0-0.1-0.1-0.2-0.2-0.2c-0.1-0.1-0.3-0.3-0.4-0.4c-0.1-0.1-0.2-0.1-0.2-0.2c-0.2-0.1-0.4-0.2-0.5-0.3C73,32.7,72.8,32.6,72.6,32.6
			C72.5,32.6,72.7,32.6,72.6,32.6z"/>
		<path fill="#020202" d="M84,18c0,0,0.1,0,0.1-0.1c0.2-0.2,0.7-0.2,1-0.2c0.2,0,0.4,0,0.7,0c0.2,0,0.5,0,0.7,0c0.1,0,0.3,0,0.4,0
			c0.1,0,0.2,0,0.3,0c0.1,0,0.3,0,0.4,0c0.4,0,0.7,0.1,1.1,0.2c0.1,0,0.1,0,0.2,0.1c0,0,0.1,0,0.1,0.1v0c0,0,0,0,0,0.1
			c0,0,0,0,0,0.1c0,0.1,0,0.1,0,0.2c0,0.1,0,0.2,0,0.3c0,0,0,0.1,0,0.1c0,0.1,0,0.2,0,0.3c0,0.1,0,0.3,0,0.4c0,0.1,0,0.3,0,0.4
			c0,0.2,0,0.3,0,0.5c0,0.2,0,0.3,0,0.5c0,0.2,0,0.4,0,0.6c0,0.2,0,0.4,0,0.6c0,0.3,0,0.6,0,0.9c0,0.3,0,0.7,0,1c0,0.3,0,0.7,0,1.1
			c0,0.5,0,1,0,1.5c0,0.9,0,1.8,0,2.7c0.1,0.8,0.1,1.6,0,2.4c0,0.9,0.1,1.8,0,2.7c0,0.4,0,0.7,0,1.1c0,0.4,0,0.7,0,1.1
			c0,0.2,0,0.5,0,0.7c0,0.2,0,0.4,0,0.7c0,0.2,0,0.4,0,0.6c0,0.2,0,0.4,0,0.6c0,0.1,0,0.2,0,0.3c0,0.2,0,0.4,0,0.6
			c0,0.1,0,0.2,0,0.3c0,0.1,0,0.2,0,0.3c0,0.2,0,0.3,0,0.5c0,0.1,0,0.1,0,0.2c0,0.1,0,0.1,0,0.2c0,0.1,0,0.1,0,0.2
			c0,0.1,0,0.1,0,0.2c0,0.1,0,0.1,0,0.2c0,0,0,0.1,0,0.2c0,0,0,0.1,0,0.1c0,0,0,0.1,0,0.1c0,0,0,0.1,0,0.1c0,0,0,0.1,0,0.1
			c0,0,0,0.1,0,0.1c0,0,0,0,0,0.1c0,0,0,0.1,0,0.1c0,0,0,0,0,0c0,0-0.1,0-0.1,0c-0.1,0-0.3,0.1-0.4,0.1c-0.1,0-0.2,0-0.2,0
			c-0.1,0-0.2,0-0.3,0c-0.1,0-0.2,0-0.3,0c-0.1,0-0.2,0-0.3,0c-0.3,0-0.7,0-1,0c-0.2,0-0.5,0-0.7,0c-0.2,0-0.5,0-0.7,0
			c-0.2,0-0.4,0-0.7,0c-0.2,0-0.4,0-0.6,0c-0.3,0-0.6-0.1-0.9-0.2c0,0-0.1,0-0.1,0c0,0,0,0,0,0c0,0,0,0,0,0c0,0,0,0,0-0.1
			c0,0,0,0,0-0.1c0,0,0-0.1,0-0.1c0-0.1,0-0.1,0-0.2c0-0.1,0-0.2,0-0.3c0-0.2,0-0.3,0-0.5c0-0.4,0-0.9,0-1.3c0-0.3,0-0.5,0-0.8
			c0-0.2,0-0.4,0-0.6c0-0.2,0-0.4,0-0.6c0-0.2,0-0.4,0-0.6c0-0.1,0-0.2,0-0.3c0-0.1,0-0.2,0-0.3c0-0.1,0-0.2,0-0.3
			c0-0.2,0-0.5,0-0.7c0-0.1,0-0.3,0-0.4c0-0.1,0-0.3,0-0.4c0-0.1,0-0.3,0-0.4c0-0.3,0-0.5,0-0.8c0-0.1,0-0.3,0-0.4
			c0-0.1,0-0.3,0-0.4c0-0.1,0-0.3,0-0.4c0-0.3,0-0.5,0-0.8c0-0.1,0-0.3,0-0.4c0-0.1,0-0.3,0-0.4c0-0.3,0-0.5,0-0.8
			c0-0.3,0.1-0.5,0.1-0.8c0-0.1,0-0.3,0-0.4c0-0.3,0-0.5,0.1-0.8c0-0.3,0-0.5,0-0.8c0-0.2,0.1-0.5,0.1-0.8c0-0.3,0.1-0.5,0.1-0.8
			c0-0.2,0.1-0.5,0.1-0.7c0-0.2,0.1-0.5,0.1-0.7c0-0.2,0.1-0.5,0.1-0.7c0-0.2,0.1-0.4,0.1-0.7c0-0.2,0.1-0.4,0.1-0.7
			c0-0.1,0-0.2,0-0.3c0-0.2,0-0.4,0.1-0.6c0-0.2,0-0.4,0-0.6c0-0.1,0-0.2,0-0.3c0-0.2,0-0.3,0-0.5c0-0.1,0-0.2,0-0.2
			c0-0.1,0-0.3,0-0.4c0-0.1,0-0.1,0-0.2c0-0.1,0-0.1,0-0.2c0-0.1,0-0.1,0-0.2c0-0.1,0-0.1,0-0.2c0-0.1,0-0.1,0-0.2c0,0,0-0.1,0-0.1
			c0,0,0-0.1,0-0.1c0,0,0-0.1,0-0.1c0,0,0-0.1,0-0.1c0,0,0-0.1,0-0.1c0,0,0-0.1,0-0.1C83.9,18.1,83.9,18.1,84,18
			C84,18.1,84,18,84,18L84,18z"/>
		<path fill="#020202" d="M104.6,27.5c0,0,0.1,0.1,0.1,0.1c0,0,0,0.1,0,0.1c0,0.1,0,0.3,0.1,0.4c0,0.1,0,0.1,0,0.2
			c0,0.1,0,0.3,0,0.4c0.1,0.6,0.1,1.4,0,2c0,0.3,0,0.7,0,1c-0.1,0.5,0,1,0,1.5c-0.1,0.8,0,1.5,0,2.3c0,0.3,0,0.5,0,0.8
			c0,0.3,0,0.5,0,0.8c0,0.1,0,0.2,0,0.4c0,0.3,0,0.5,0,0.8c0,0.1,0,0.3,0,0.4c0,0.2,0,0.5,0,0.7c0,0.1,0,0.2,0,0.3
			c0,0.2,0,0.4,0,0.6c0,0.1,0,0.2,0,0.3c0,0.1,0,0.2,0,0.3c0,0.1,0,0.2,0,0.3c0,0.1,0,0.2,0,0.3c0,0.1,0,0.2,0,0.2
			c0,0.2,0,0.3,0,0.5c0,0.2,0,0.4,0,0.6c0,0,0,0.1,0,0.1c0,0,0,0.1,0,0.1c0,0,0,0,0,0c0,0,0,0,0,0c0,0-0.1,0-0.1,0
			c-0.1,0-0.2,0-0.4,0c-0.1,0-0.2,0-0.2,0c-0.2,0-0.4,0-0.6,0c-0.8,0.1-1.8,0.1-2.6,0c-0.2,0-0.4,0-0.7,0c-0.1,0-0.2,0-0.3,0
			c-0.1,0-0.2,0-0.3,0c-0.1,0-0.1,0-0.2,0c-0.1,0-0.1,0-0.2,0c0,0-0.1,0-0.1,0c-0.1,0-0.1-0.1-0.2-0.1c-0.1,0-0.2-0.1-0.2-0.2
			c0-0.1,0-0.2,0-0.3c0-0.2,0-0.4,0-0.5c0-0.1-0.1,0-0.1,0.2c0,0-0.1,0.1-0.1,0.2c0,0-0.1,0.1-0.2,0.1c-0.1,0.1-0.3,0.3-0.5,0.4
			c-0.1,0-0.1,0.1-0.2,0.1c-0.1,0-0.1,0.1-0.2,0.1c-0.1,0.1-0.3,0.1-0.4,0.2c-0.1,0-0.1,0.1-0.2,0.1c-0.1,0-0.2,0-0.2,0.1
			c-0.2,0-0.5,0.1-0.7,0.1c-0.1,0-0.2,0-0.2,0c-0.3,0-0.5,0-0.8,0c-0.3,0-0.5-0.1-0.8-0.1c-0.1,0-0.2,0-0.3-0.1
			c-0.2-0.1-0.3-0.1-0.5-0.2c-0.1,0-0.2-0.1-0.3-0.1c-0.1,0-0.2-0.1-0.2-0.1c-0.2-0.1-0.3-0.2-0.5-0.3c-0.1-0.1-0.2-0.1-0.2-0.2
			c-0.1-0.1-0.2-0.1-0.2-0.2c-0.2-0.2-0.5-0.4-0.7-0.6c-0.1-0.2-0.3-0.3-0.4-0.5c-0.1-0.2-0.2-0.4-0.3-0.6c-0.1-0.1-0.1-0.2-0.2-0.3
			c-0.2-0.3-0.3-0.6-0.4-0.9c0-0.1-0.1-0.2-0.1-0.3c0-0.1-0.1-0.2-0.1-0.3c-0.1-0.2-0.1-0.4-0.2-0.6c0-0.1-0.1-0.2-0.1-0.3
			c0-0.1,0-0.2-0.1-0.3c-0.1-0.4-0.1-0.9-0.2-1.3c0-0.1,0-0.2,0-0.3c0-0.1,0-0.2,0-0.3c0-0.2,0-0.4,0-0.7c0-0.1,0-0.2,0-0.3
			c0-0.2,0-0.4,0-0.6c0-0.1,0-0.2,0-0.3c0-0.1,0-0.2,0-0.3c0-0.1,0-0.2,0-0.3c0-0.7,0.2-1.3,0.3-2c0.1-0.2,0.1-0.3,0.1-0.5
			c0-0.2,0.1-0.3,0.1-0.5c0-0.1,0-0.2,0.1-0.2c0-0.1,0-0.1,0-0.2c0-0.1,0.1-0.1,0.1-0.2c0-0.1,0.1-0.2,0.1-0.4c0,0,0-0.1,0.1-0.1
			c0-0.1,0-0.1,0.1-0.2c0-0.1,0-0.1,0-0.2c0,0,0.1-0.1,0.1-0.1c0,0,0-0.1,0.1-0.1c0,0,0-0.1,0-0.1c0,0,0-0.1,0.1-0.1c0,0,0,0,0-0.1
			c0,0,0.1-0.1,0.1-0.1c0.2-0.1,0.4-0.1,0.7-0.1c0.1,0,0.2,0,0.3,0c0.1,0,0.2,0,0.3,0c0.1,0,0.2,0,0.3,0c0.5,0,0.9,0,1.4,0
			c0.1,0,0.2,0,0.3,0c0.1,0,0.2,0,0.2,0c0.1,0,0.1,0,0.2,0c0.1,0,0.1,0,0.2,0c0,0,0.1,0,0.1,0c0,0.1,0,0.3,0,0.4c0,0.1,0,0.1,0,0.1
			c0,0.1,0,0.1,0,0.2c0,0.1,0,0.1,0,0.2c0,0.1,0,0.3,0,0.5c0,0.2-0.1,0.3-0.1,0.5c0,0.2-0.1,0.4-0.1,0.6c0,0.1,0,0.2,0,0.3
			c0,0.2,0,0.4,0,0.6c0,0.1,0,0.2,0,0.3c0,0.1,0,0.2,0,0.3c0,0.1,0,0.2,0,0.3c0,0.2,0,0.4,0,0.7c0,0.2,0,0.5,0,0.7
			c0,0.2,0,0.4,0,0.7c0,0.1,0,0.2,0,0.3c0,0.3,0,0.6,0.1,0.9c0,0.1,0,0.2,0,0.3c0.1,0.3,0.2,0.7,0.4,1.1c0.1,0.2,0.2,0.5,0.4,0.6
			c0.1,0.1,0.2,0.2,0.3,0.3c0.2,0.1,0.4,0.2,0.6,0.3c0.2,0,0.3,0.1,0.5,0.1c0.1,0,0.2,0,0.2,0c0.1,0,0.1,0,0.2,0
			c0.1-0.1,0.3-0.1,0.4-0.2c0.2-0.1,0.4-0.3,0.5-0.5c0.1-0.1,0.1-0.1,0.2-0.2c0.1-0.1,0.1-0.1,0.2-0.2c0-0.1,0.1-0.2,0.1-0.3
			c0.1-0.3,0.2-0.5,0.3-0.8c0-0.1,0.1-0.2,0.1-0.3c0-0.2,0.1-0.4,0.2-0.6c0-0.1,0-0.2,0.1-0.3c0-0.2,0.1-0.5,0.1-0.7
			c0-0.2,0.1-0.5,0.1-0.7c0-0.2,0.1-0.5,0.1-0.7c0-0.1,0-0.2,0-0.4c0-0.1,0-0.2,0-0.3c0-0.2,0-0.5,0-0.7c0-0.2,0-0.4,0-0.7
			c0-0.4,0-0.8,0-1.1c0.1-0.3,0-0.7,0-1c0-0.1,0-0.2,0-0.2c0,0,0-0.1,0-0.1c0,0,0,0,0,0c0,0,0.1,0,0.1,0c0.1,0,0.1,0,0.2,0
			c0.2,0,0.3-0.1,0.5-0.1c0.2,0,0.4,0,0.6,0c0.1,0,0.2,0,0.4,0c0.3,0,0.5,0,0.8,0c0.4,0,0.7,0,1.1,0c0.3,0,0.6,0.1,0.9,0.1
			c0.1,0,0.1,0,0.2,0C104.5,27.5,104.5,27.5,104.6,27.5C104.6,27.5,104.5,27.5,104.6,27.5z"/>
		<path fill="#020202" d="M107.5,43C107.5,43,107.5,43,107.5,43c-0.1-0.1-0.1-0.1-0.1-0.2c0,0,0-0.1,0-0.1c0-0.1,0-0.1,0-0.2
			c0-0.1,0-0.1,0-0.2c0-0.1,0-0.1,0-0.2c0-0.1,0-0.1,0-0.2c0-0.1,0-0.2,0-0.2c0-0.1,0-0.2,0-0.3c0-0.2,0-0.4,0-0.6c0-0.3,0-0.6,0-1
			c-0.1-0.7-0.1-1.5,0-2.1c0-0.5,0-1,0-1.5c0-0.2,0-0.5,0-0.7c0-0.4,0-0.7,0-1.1c0-0.1,0-0.2,0-0.4c0-0.3,0-0.5,0-0.8
			c0-0.2,0-0.5,0-0.7c0-0.1,0-0.3,0-0.4c0-0.1,0-0.3,0-0.4c0-0.2,0-0.5,0-0.7c0-0.1,0-0.2,0-0.3c0-0.1,0-0.2,0-0.3
			c0-0.1,0-0.2,0-0.3c0-0.1,0-0.2,0-0.3c0-0.1,0-0.2,0-0.3c0-0.2,0-0.3,0-0.5c0-0.1,0-0.2,0-0.2c0-0.1,0-0.1,0-0.2
			c0-0.1,0-0.1,0-0.2c0-0.1,0-0.1,0-0.2c0,0,0-0.1,0-0.1c0,0,0-0.1,0-0.1c0,0,0-0.1,0-0.1c0,0,0,0,0,0c0,0,0,0,0,0c0,0,0.1,0,0.1,0
			c0.1,0,0.2-0.1,0.3-0.1c0.1,0,0.2,0,0.2,0c0.2,0,0.4,0,0.6,0c0.4,0,0.7,0,1.1,0c0.3,0,0.5,0,0.8,0c0.1,0,0.3,0,0.4,0
			c0.1,0,0.2,0,0.4,0c0.2,0,0.4,0,0.7,0.1c0.3,0,0.7,0,0.9,0.2c0,0,0.1,0,0.1,0c0.1,0.1,0.2,0.2,0.3,0.3c0,0.1,0.1,0.2,0.1,0.2
			c0,0.1,0.1,0.2,0.1,0.3c0,0.1,0.1,0.3,0,0.4c0,0.2,0,0.4,0,0.5c0,0.1,0.1,0,0.2-0.2c0-0.1,0.1-0.1,0.2-0.2
			c0.1-0.1,0.1-0.1,0.2-0.2c0-0.1,0.1-0.1,0.2-0.2c0.1-0.1,0.1-0.1,0.2-0.2c0.1-0.1,0.1-0.1,0.2-0.2c0.1-0.1,0.1-0.1,0.2-0.2
			c0.2-0.1,0.4-0.3,0.6-0.4c0.2-0.1,0.4-0.2,0.7-0.3c0.1,0,0.1,0,0.2-0.1c0.2-0.1,0.3-0.1,0.5-0.1c0.1,0,0.2,0,0.2,0
			c0.2,0,0.5,0,0.7,0c0.2,0,0.5,0.1,0.7,0.1c0.1,0,0.1,0.1,0.2,0.1c0.1,0,0.2,0.1,0.2,0.1c0.1,0,0.2,0.1,0.2,0.1
			c0.1,0,0.2,0.1,0.2,0.1c0.1,0.1,0.3,0.2,0.4,0.3c0.1,0.1,0.1,0.1,0.2,0.2c0.1,0.1,0.3,0.2,0.4,0.3c0.1,0.1,0.1,0.1,0.2,0.2
			c0.1,0.1,0.1,0.1,0.2,0.2c0.1,0.1,0.1,0.1,0.2,0.2c0.1,0.1,0.1,0.2,0.2,0.2c0.1,0.2,0.2,0.4,0.3,0.5c0.1,0.1,0.1,0.2,0.2,0.3
			c0.3,0.6,0.5,1.2,0.8,1.8c0.1,0.2,0.1,0.4,0.2,0.6c0,0.3,0.1,0.7,0.2,1c0.1,0.2,0.1,0.4,0.1,0.6c0,0.2,0.1,0.4,0.1,0.7
			c0,0.2,0,0.4,0,0.6c0,0.2,0,0.4,0,0.6c0,0.2,0,0.4,0,0.6c0,0.1,0,0.2,0,0.3c0,0.1,0,0.2,0,0.3c0,0.1,0,0.2,0,0.3
			c0,0.3-0.1,0.6-0.1,0.9c0,0.1,0,0.2,0,0.3c-0.1,0.2-0.1,0.5-0.2,0.8c-0.1,0.2-0.1,0.3-0.1,0.5c0,0.1-0.1,0.3-0.1,0.5
			c0,0.1,0,0.1-0.1,0.2c0,0.1,0,0.1-0.1,0.2c0,0.1,0,0.1,0,0.2c0,0.1-0.1,0.1-0.1,0.2c0,0.1-0.1,0.1-0.1,0.2c0,0-0.1,0.1-0.1,0.1
			c0,0.1-0.1,0.2-0.1,0.3c0,0,0,0.1-0.1,0.1c0,0,0,0.1,0,0.1c0,0-0.1,0.1-0.1,0.1c0,0,0,0-0.1,0.1c0,0-0.1,0.1-0.1,0.1
			c-0.1,0-0.2,0.1-0.4,0.1c-0.1,0-0.2,0-0.3,0c-0.2,0-0.4,0-0.6,0c-0.7,0-1.5,0.1-2.2,0c-0.1,0-0.2,0-0.3,0c-0.1,0-0.2,0-0.3,0
			c-0.1,0-0.2,0-0.3,0c-0.1,0-0.1,0-0.2,0c0,0-0.1,0-0.1,0c0,0-0.1,0-0.1,0v0c0-0.1,0-0.2,0-0.2c0,0,0-0.1,0-0.1c0-0.1,0-0.1,0-0.2
			c0-0.1,0-0.1,0-0.2c0-0.2,0.1-0.4,0.1-0.6c0.1-0.2,0.1-0.5,0.2-0.7c0-0.2,0.1-0.4,0.1-0.6c0.1-0.3,0.1-0.6,0.2-0.9
			c0.1-0.5,0.2-1,0.2-1.6c0-0.1,0-0.2,0-0.3c0-0.1,0-0.2,0-0.3c0-0.1,0-0.2,0-0.3c0-0.4,0-0.8,0-1.2c0-0.1,0-0.2,0-0.3
			c0-0.3,0-0.5-0.1-0.8c0-0.1,0-0.2-0.1-0.2c0-0.2-0.1-0.3-0.2-0.5c0-0.1-0.1-0.1-0.1-0.2c0-0.1-0.1-0.1-0.1-0.2
			c0,0-0.1-0.1-0.2-0.1c0-0.1-0.1-0.1-0.2-0.2c0,0-0.1-0.1-0.2-0.1c-0.1,0-0.1-0.1-0.2-0.1c-0.1,0-0.1-0.1-0.2-0.1
			c-0.2,0-0.3-0.1-0.5-0.1c-0.3,0-0.6,0-0.9,0.2c-0.2,0.1-0.4,0.3-0.5,0.4c0,0.1-0.1,0.1-0.1,0.2c-0.1,0.1-0.1,0.1-0.2,0.2
			c0,0.1-0.1,0.2-0.1,0.2c0,0.1-0.1,0.2-0.1,0.3c-0.1,0.3-0.2,0.6-0.3,0.8c0,0.1,0,0.2-0.1,0.3c0,0.1,0,0.2-0.1,0.3
			c0,0.3-0.1,0.7-0.1,1c0,0.1,0,0.2,0,0.3c0,0.1,0,0.2,0,0.3c0,0.1,0,0.2,0,0.3c0,0.8-0.1,1.6,0,2.4c0,0.2,0,0.4,0,0.6
			c0,0.2,0,0.4,0,0.5c0,0.2,0,0.3,0,0.5c0,0.2,0.1,0.6,0,0.8c0,0,0,0.1,0,0.1c0,0-0.1,0.1-0.2,0.1c0,0-0.1,0-0.2,0
			c-0.2,0-0.3,0-0.5,0c-0.1,0-0.2,0-0.3,0c-0.1,0-0.2,0-0.3,0c-0.1,0-0.2,0-0.3,0c-0.1,0-0.3,0-0.4,0c-0.3,0-0.5,0-0.8,0
			c-0.3,0-0.5,0-0.8,0c-0.2,0-0.5,0-0.7,0c-0.3,0-0.6,0-0.9,0c-0.1,0-0.2,0-0.2,0c-0.1,0-0.1,0-0.2,0c0,0-0.1,0-0.2,0
			C107.6,43,107.5,43,107.5,43C107.5,43,107.5,43,107.5,43z"/>
		<path fill="#020202" d="M133.2,40.9c0-0.1-0.1,0-0.1,0.2c0,0.1-0.1,0.1-0.2,0.2c-0.1,0.1-0.2,0.2-0.3,0.3
			c-0.1,0.1-0.1,0.1-0.2,0.1c-0.1,0.1-0.2,0.2-0.3,0.3c-0.1,0-0.1,0.1-0.2,0.1c-0.2,0.1-0.4,0.2-0.5,0.3c-0.1,0.1-0.2,0.1-0.4,0.2
			c-0.1,0-0.1,0-0.2,0.1c-0.1,0-0.1,0.1-0.2,0.1c-0.1,0-0.1,0-0.2,0c-0.2,0.1-0.5,0.2-0.8,0.2c-0.1,0-0.1,0-0.2,0
			c-0.1,0-0.3,0-0.4,0c-0.1,0-0.1,0-0.2,0c-0.1,0-0.2,0-0.4,0c-0.1,0-0.1,0-0.2,0c-0.1,0-0.1,0-0.2,0c-0.2,0-0.4-0.1-0.6-0.1
			c-0.1,0-0.3-0.1-0.4-0.1c-0.1,0-0.1-0.1-0.2-0.1c-0.1,0-0.1-0.1-0.2-0.1c-0.2-0.1-0.3-0.2-0.5-0.3c-0.1,0-0.1-0.1-0.2-0.1
			c-0.1,0-0.1-0.1-0.2-0.1c-0.1,0-0.1-0.1-0.2-0.1c-0.1-0.1-0.2-0.1-0.3-0.2c-0.2-0.1-0.4-0.3-0.5-0.4c0,0-0.1-0.1-0.2-0.2
			c0-0.1-0.1-0.1-0.2-0.2c-0.1-0.1-0.3-0.3-0.4-0.5c0-0.1-0.1-0.1-0.1-0.2c0-0.1-0.1-0.1-0.1-0.2c0-0.1-0.1-0.1-0.1-0.2
			c0-0.1-0.1-0.1-0.1-0.2c-0.1-0.1-0.2-0.3-0.2-0.4c-0.1-0.3-0.3-0.6-0.3-0.9c0-0.1-0.1-0.2-0.1-0.2c0-0.1,0-0.2,0-0.2
			c-0.1-0.3-0.1-0.7-0.2-1.1c0-0.1,0-0.2,0-0.3c0-0.1,0-0.2,0-0.3c0-0.4,0-0.8,0-1.2c0-0.1,0-0.2,0-0.3c0-0.3,0.1-0.6,0.1-0.9
			c0-0.1,0.1-0.3,0.1-0.4c0-0.3,0.1-0.7,0.3-1c0-0.1,0.1-0.2,0.1-0.3c0.1-0.2,0.1-0.4,0.2-0.6c0-0.1,0.1-0.2,0.1-0.3
			c0-0.1,0.1-0.2,0.2-0.3c0-0.1,0.1-0.2,0.2-0.3c0-0.1,0.1-0.2,0.2-0.2c0.1-0.1,0.1-0.2,0.2-0.2c0.3-0.4,0.6-0.7,0.9-1
			c0.1-0.1,0.1-0.1,0.2-0.2c0.1-0.1,0.3-0.2,0.4-0.3c0.2-0.2,0.4-0.3,0.7-0.4c0.1,0,0.2-0.1,0.2-0.1c0.1,0,0.2-0.1,0.2-0.1
			c0.1,0,0.1-0.1,0.2-0.1c0.1,0,0.2-0.1,0.2-0.1c0.2,0,0.3-0.1,0.5-0.1c0.3-0.1,0.7-0.2,1-0.2c0.1,0,0.2,0,0.2,0
			c0.3-0.1,0.7-0.1,1,0c0.1,0,0.2,0,0.2,0c0.2,0,0.5,0.1,0.7,0.1c0.2,0.1,0.5,0.1,0.7,0.2c0.1,0,0.3,0.1,0.4,0.2
			c0.1,0,0.1,0.1,0.2,0.1c0.1,0.1,0.3,0.1,0.4,0.2c0.1,0,0.1,0.1,0.2,0.1c0.1,0.1,0.3,0.2,0.4,0.3c0.1,0.2,0.2,0.2,0.2,0.2
			c0-0.3,0.1-0.6,0.1-0.8c0-0.1,0.1-0.2,0.1-0.3c0-0.1,0-0.1,0.1-0.1c0.1,0,0.2-0.1,0.2-0.1c0.1,0,0.1,0,0.2,0c0.6-0.1,1.4-0.1,2,0
			c0.1,0,0.3,0,0.4,0c0.6,0,1.3,0,1.9,0.3c0.1,0,0.1,0,0.2,0c0,0,0.1,0.1,0.1,0.1l0,0c0,0.3,0,0.7,0,0.9c0,0.1,0,0.2,0,0.2
			c0,0.2,0,0.3,0,0.5c0,0.1,0,0.2,0,0.3c0,0.2,0,0.4,0,0.6c0,0.1,0,0.2,0,0.3c0,0.2,0,0.5,0,0.7c0,0.1,0,0.3,0,0.4
			c0,0.4,0,0.8,0,1.2c0,0.6,0,1.2,0,1.8c0,0.4,0,0.9,0,1.3c0,0.1,0,0.3,0,0.4c0,0.3,0,0.5,0,0.8c0,0.1,0,0.3,0,0.4
			c0,0.1,0,0.3,0,0.4c0,0.1,0,0.2,0,0.3c0,0.1,0,0.2,0,0.3c0,0.1,0,0.2,0,0.3c0,0.1,0,0.2,0,0.3c0,0.1,0,0.2,0,0.3
			c0,0.2,0,0.4,0,0.5c0,0.1,0,0.2,0,0.3c0,0.1,0,0.2,0,0.2c0,0.1,0,0.3,0,0.4c0,0.1,0,0.2,0,0.4c0,0.2,0.1,0.5,0,0.7
			c0,0,0,0.1,0,0.1c0,0,0,0,0,0.1c0,0-0.1,0-0.1,0c-0.1,0-0.1,0-0.2,0c-0.1,0-0.1,0-0.2,0c-0.1,0-0.2,0-0.2,0c-0.1,0-0.2,0-0.3,0
			c-0.8,0.1-1.8,0.1-2.6,0c-0.1,0-0.3,0-0.4,0c-0.1,0-0.3,0-0.4,0c-0.1,0-0.2,0-0.3,0c-0.1,0-0.2,0-0.3,0c-0.1,0-0.2,0-0.3,0
			c-0.1,0-0.1,0-0.2,0c-0.1,0-0.1,0-0.2,0c0,0-0.1,0-0.1,0c0,0-0.1,0-0.1,0c0,0-0.1-0.1-0.1-0.1c0-0.1-0.1-0.1-0.1-0.2
			c0-0.1,0-0.2,0-0.2c0-0.1,0-0.2,0-0.3c0-0.1,0-0.2,0-0.3c0-0.1,0-0.2,0-0.3C133.2,41.1,133.2,41,133.2,40.9
			C133.1,40.8,133.2,41,133.2,40.9z M131.1,32.6c-0.2,0-0.4,0-0.6,0c-0.2,0-0.4,0.1-0.5,0.2c-0.2,0.1-0.5,0.3-0.7,0.5
			c-0.1,0.1-0.3,0.3-0.4,0.5c-0.1,0.2-0.2,0.3-0.3,0.5c0,0.1-0.1,0.2-0.1,0.3c0,0.3-0.1,0.6-0.1,0.9c0,0.3,0.1,0.6,0.3,0.8
			c0.1,0.1,0.1,0.2,0.2,0.2c0.2,0.3,0.5,0.6,0.8,0.8c0.5,0.4,1.3,0.3,1.9,0.1c0.1,0,0.2-0.1,0.3-0.1c0.1-0.1,0.2-0.1,0.3-0.2
			c0.1,0,0.2-0.1,0.2-0.2c0.2-0.1,0.3-0.3,0.4-0.4c0.1-0.2,0.2-0.3,0.3-0.5c0-0.1,0.1-0.2,0.1-0.3c0-0.2,0.1-0.4,0.1-0.6
			c0-0.2,0-0.4-0.1-0.6c0-0.1-0.1-0.2-0.1-0.3c0-0.1-0.1-0.2-0.1-0.3c0-0.1-0.1-0.2-0.2-0.2c-0.1-0.1-0.3-0.3-0.4-0.4
			c-0.1-0.1-0.2-0.1-0.2-0.2c-0.2-0.1-0.4-0.2-0.5-0.3C131.5,32.7,131.3,32.6,131.1,32.6C131,32.6,131.2,32.6,131.1,32.6z"/>
	</g>
</g>
</svg>
