<?xml version="1.0" encoding="utf-8"?>
<!-- Generator: Adobe Illustrator 18.0.0, SVG Export Plug-In . SVG Version: 6.00 Build 0)  -->
<!DOCTYPE svg PUBLIC "-//W3C//DTD SVG 1.1//EN" "http://www.w3.org/Graphics/SVG/1.1/DTD/svg11.dtd">
<svg version="1.1" id="Camada_1" xmlns="http://www.w3.org/2000/svg" xmlns:xlink="http://www.w3.org/1999/xlink" x="0px" y="0px"
	 viewBox="0 0 1024 768" enable-background="new 0 0 1024 768" xml:space="preserve">
<g>
	<defs>
		<circle id="SVGID_1_" cx="511.9" cy="383.4" r="375.7"/>
	</defs>
	<clipPath id="SVGID_2_">
		<use xlink:href="#SVGID_1_"  overflow="visible"/>
	</clipPath>
	<g clip-path="url(#SVGID_2_)" enable-background="new    ">
		
			<image overflow="visible" width="2474" height="2474" xlink:href="../../banco de imagens/botões/butt 25.png"  transform="matrix(0.3065 0 0 0.3065 132.8006 4.7999)">
		</image>
	</g>
</g>
<g>
	<g>
		<path fill="#020202" d="M640.7,536.8c-0.2-0.9-11.6,17.3-43.6,17.1c-0.9,0.2-1.9,0.2-3,0c-0.9,0-1.7,0-2.6,0c-1.1,0-2.1,0-2.9,0
			c-1.1-0.2-2.1-0.3-3-0.3c-1.1-0.2-2.1-0.4-3-0.7c-0.9,0-1.9-0.1-3-0.3c-0.9-0.2-1.9-0.4-3-0.7c-0.9-0.2-1.8-0.4-2.6-0.7
			c-1.1-0.4-2.1-0.8-3-1c-0.9-0.2-1.9-0.5-3-1c-0.9-0.4-1.8-0.8-2.6-1c-0.9-0.4-1.9-0.9-3-1.3c-0.9-0.4-1.8-0.9-2.6-1.3
			c-0.9-0.4-1.8-0.9-2.6-1.3c-0.9-0.4-1.8-0.9-2.6-1.3c-0.9-0.7-1.7-1.2-2.6-1.7c-0.9-0.7-1.8-1.2-2.6-1.6c-0.9-0.7-1.7-1.3-2.6-2
			c-0.9-0.4-1.8-1-2.6-1.6c-0.9-0.7-1.6-1.3-2.3-2c-0.9-0.7-1.8-1.3-2.6-2c-0.6-0.9-1.4-1.6-2.3-2.3c-0.9-0.7-1.6-1.4-2.3-2.3
			c-0.7-0.7-1.4-1.4-2.3-2.3c-0.6-0.9-1.4-1.7-2.3-2.6c-0.7-0.7-1.3-1.4-2-2.3c-0.7-0.9-1.3-1.7-2-2.6c-0.7-0.9-1.3-1.9-2-3
			c-0.7-0.9-1.3-1.7-2-2.6c-0.6-1.1-1.3-2.1-2-3c-0.4-1.1-1-2.1-1.6-3c-0.6-1.1-1.2-2.2-1.6-3.3c-0.6-0.9-1.2-1.9-1.6-3
			c-0.4-1.1-1-2.2-1.6-3.3c-0.4-1.1-0.9-2.2-1.3-3.3c-0.4-1.3-0.9-2.5-1.3-3.6c-0.5-1.1-0.9-2.3-1.3-3.6c-0.4-1.1-0.8-2.3-1-3.6
			c-0.4-1.1-0.9-2.3-1.3-3.6c-0.2-1.3-0.5-2.5-0.7-3.6c-0.4-1.3-0.8-2.6-1-3.9c-0.2-1.3-0.5-2.6-0.7-3.9c-0.2-1.3-0.4-2.6-0.7-3.9
			c-0.2-1.5-0.4-3-0.6-4.3c0-1.3-0.1-2.7-0.3-4.3c0-1.3-0.1-2.7-0.3-4.3c0-1.3,0-2.7,0-4.3c0-1.5,0-3,0-4.3c0-1.5,0-3.1,0-4.6
			c0-1.5,0.1-3.1,0.3-4.6c0-1.5,0.1-3.1,0.3-4.6c0-1.8,0.1-3.4,0.3-4.9c0.2-1.5,0.4-3.1,0.6-4.6c0.2-1.7,0.5-3.4,0.7-4.9
			c0.4-2,0.9-3.8,1.3-5.6c0.2-1.7,0.5-3.5,1-5.3c0.4-1.7,0.9-3.4,1.3-4.9c0.4-1.7,1-3.4,1.6-4.9c0.4-1.7,1-3.4,1.6-4.9
			c0.4-1.5,1-3.1,1.6-4.6c0.7-1.5,1.3-3,2-4.3c0.6-1.5,1.3-3,2-4.3c0.6-1.5,1.4-3,2.3-4.3c0.7-1.3,1.4-2.6,2.3-3.9
			c15.1-23,42.5-46.3,79.7-48.3c37.2-2,51.3,16.8,51.6,15.9c0.9-1.8-1.2-11,4.4-14.4c5.7-3.4,88.7-3.2,87.7,5.4l0.3,0.3
			c0,0.4,0,0.8,0,1c0,0.5,0,0.9,0,1.3c0,0.7,0,1.3,0,2c0,0.7,0,1.3,0,2c0,0.9,0,1.6,0,2.3c0,1.1,0,2.1,0,3c0,1.1-0.1,2.1-0.3,3
			c0,1.3,0,2.5,0,3.6c-0.2,1.3-0.3,2.5-0.3,3.6c0,1.5-0.1,3-0.3,4.3c0,1.3,0,2.7,0,4.3c-0.2,1.5-0.3,3.1-0.3,4.6
			c0,1.8-0.1,3.4-0.3,4.9c0,1.8,0,3.5,0,5.3c-0.2,1.8-0.3,3.5-0.3,5.3c0,2-0.1,3.9-0.3,5.9c0,2,0,3.8,0,5.6
			c-0.2,2.2-0.3,4.3-0.3,6.2c0,2.2,0,4.3,0,6.2c0,2.2-0.1,4.4-0.3,6.6c0,2.2,0,4.4,0,6.6c0,2.4,0,4.7,0,6.9c0,2.6,0,5.2,0,7.6
			c0,2.4,0,4.8,0,7.2c0.2,2.4,0.3,4.7,0.3,6.9c0,2.4,0,4.7,0,6.9c0,2.2,0.1,4.4,0.3,6.6c0,2.2,0,4.4,0,6.6c0.2,2.2,0.3,4.3,0.3,6.2
			c0,2,0.1,4.1,0.3,6.2c0,2,0.1,3.8,0.3,5.6c0,2,0,3.9,0,5.9c0.2,1.7,0.3,3.5,0.3,5.3c0.2,1.7,0.3,3.5,0.3,5.3
			c0.2,1.7,0.3,3.4,0.3,4.9c0.2,1.8,0.3,3.4,0.3,4.9c0.2,1.5,0.3,3.1,0.3,4.6c0.2,1.3,0.3,2.7,0.3,4.3c0,1.3,0.1,2.6,0.3,3.9
			c0,1.3,0.1,2.6,0.3,3.9c0,1.3,0,2.5,0,3.6c0.2,1.1,0.3,2.3,0.3,3.6c0,0.9,0.1,1.9,0.3,3c0,1.1,0,2.1,0,3c0,0.9,0.1,1.7,0.3,2.6
			c0,0.9,0,1.7,0,2.6c0,0.7,0,1.3,0,2s0,1.3,0,2c0,0.7,0,1.2,0,1.6c0,0.4,0,1,0,1.6c0,0.2-0.1,0.5-0.3,1c0,0.4,0,0.8,0,1
			c-0.2,0.2-0.3,0.4-0.3,0.7c0,0.2-0.1,0.3-0.3,0.3c-0.4,0.2-0.9,0.4-1.3,0.7c-0.9,0.2-1.6,0.3-2.3,0.3c-1.1,0.2-2.2,0.4-3.3,0.7
			c-1.1,0-6.6,0.3-7.9,0.3c-1.8,0.2-3.4,0.3-4.9,0.3c-1.8,0-3.5,0-5.3,0c-1.8,0-9.2,0-11.2,0c-2,0-3.9,0-5.9,0
			c-2,0-9.5-0.1-11.5-0.3c-2,0-19.2-1-20.7-1c-1.3-0.2-9.9-1.3-9.9-1.3C644.8,550.1,641.2,538.3,640.7,536.8z"/>
		<path fill="#FFFFFF" d="M652.5,507.9c-0.2-0.7-0.7,0.1-1.6,2.5c-0.4,0.7-1,1.5-1.9,2.2c-0.7,0.5-1.4,1.2-1.9,1.9
			c-0.6,0.7-1.2,1.4-1.9,1.9c-0.7,0.7-1.4,1.4-1.9,1.9c-0.7,0.7-1.5,1.4-2.2,1.9c-0.7,0.5-1.4,1.1-1.9,1.6c-0.7,0.6-1.5,1.1-2.2,1.6
			c-0.7,0.4-1.4,0.8-2.2,1.4c-0.7,0.5-1.5,1-2.2,1.4c-0.7,0.4-1.5,0.8-2.2,1.4c-0.7,0.4-1.4,0.7-2.2,1.1s-1.6,0.7-2.5,1.1
			c-0.7,0.4-1.4,0.6-2.2,0.8c-0.7,0.4-1.6,0.7-2.4,1.1c-0.7,0.2-1.5,0.4-2.2,0.5c-0.7,0.4-1.5,0.6-2.4,0.8c-0.7,0.2-1.6,0.4-2.5,0.5
			c-0.7,0.2-1.5,0.4-2.2,0.5c-0.9,0.2-1.7,0.3-2.5,0.3c-0.7,0.2-1.5,0.3-2.4,0.3c-0.7,0.2-1.6,0.3-2.5,0.3c-0.7,0-1.6,0-2.5,0
			c-0.7,0.2-1.5,0.2-2.4,0c-0.7,0-1.5,0-2.2,0c-0.9,0-1.7,0-2.5,0c-0.9-0.2-1.7-0.3-2.5-0.3c-0.9-0.2-1.7-0.4-2.4-0.5
			c-0.7,0-1.6-0.1-2.5-0.3c-0.7-0.2-1.6-0.4-2.4-0.5c-0.7-0.2-1.5-0.4-2.2-0.6c-0.9-0.4-1.7-0.6-2.4-0.8c-0.7-0.2-1.6-0.5-2.5-0.8
			c-0.7-0.4-1.5-0.6-2.2-0.8c-0.7-0.4-1.6-0.7-2.5-1.1c-0.7-0.4-1.4-0.7-2.2-1.1s-1.5-0.7-2.2-1.1c-0.7-0.4-1.5-0.7-2.2-1.1
			c-0.7-0.5-1.4-1-2.2-1.4c-0.7-0.5-1.5-1-2.2-1.4c-0.7-0.5-1.5-1.1-2.2-1.6c-0.7-0.4-1.4-0.8-2.2-1.4c-0.7-0.5-1.4-1.1-1.9-1.6
			c-0.7-0.5-1.5-1.1-2.2-1.6c-0.6-0.7-1.2-1.4-1.9-1.9c-0.7-0.5-1.4-1.2-1.9-1.9c-0.6-0.5-1.2-1.2-1.9-1.9c-0.6-0.7-1.2-1.5-1.9-2.2
			c-0.6-0.5-1.1-1.2-1.6-1.9c-0.6-0.7-1.1-1.5-1.6-2.2c-0.5-0.7-1.1-1.5-1.6-2.5c-0.5-0.7-1.1-1.4-1.6-2.2c-0.6-0.9-1.1-1.7-1.6-2.5
			c-0.4-0.9-0.8-1.7-1.4-2.5c-0.6-0.9-1-1.8-1.4-2.7c-0.5-0.7-1-1.5-1.4-2.5c-0.4-0.9-0.8-1.8-1.4-2.7c-0.4-0.9-0.7-1.8-1.1-2.7
			c-0.4-1.1-0.7-2.1-1.1-3c-0.4-0.9-0.7-1.9-1.1-3c-0.4-0.9-0.6-1.9-0.8-3c-0.4-0.9-0.7-1.9-1.1-3c-0.2-1.1-0.4-2.1-0.6-3
			c-0.4-1.1-0.6-2.2-0.8-3.3c-0.2-1.1-0.4-2.2-0.5-3.3c-0.2-1.1-0.4-2.2-0.6-3.3c-0.2-1.3-0.4-2.5-0.5-3.5c0-1.1-0.1-2.3-0.3-3.5
			c0-1.1-0.1-2.3-0.3-3.5c0-1.1,0-2.3,0-3.5c0-1.3,0-2.5,0-3.5c0-1.3,0-2.5,0-3.8c0-1.3,0.1-2.5,0.3-3.8c0-1.3,0.1-2.5,0.3-3.8
			c0-1.5,0.1-2.8,0.3-4.1c0.2-1.3,0.4-2.5,0.5-3.8c0.2-1.5,0.4-2.8,0.6-4.1c0.4-1.6,0.7-3.2,1.1-4.6c0.2-1.5,0.5-2.9,0.8-4.4
			c0.4-1.5,0.7-2.8,1.1-4.1c0.4-1.5,0.8-2.8,1.4-4.1c0.4-1.5,0.8-2.8,1.4-4.1c0.4-1.3,0.8-2.6,1.4-3.8c0.5-1.3,1.1-2.5,1.6-3.5
			c0.6-1.3,1.1-2.5,1.6-3.5c0.6-1.3,1.2-2.5,1.9-3.5c0.6-1.1,1.2-2.2,1.9-3.3c0.6-1.1,1.2-2.1,1.9-3c0.7-1.1,1.5-2.1,2.2-3
			c0.7-1.1,1.5-2.1,2.2-3c0.7-0.9,1.4-1.8,2.2-2.7c0.7-0.9,1.4-1.8,2.2-2.7c0.9-0.7,1.7-1.5,2.5-2.5c0.9-0.7,1.7-1.5,2.4-2.2
			c0.9-0.7,1.8-1.5,2.7-2.2c0.7-0.7,1.6-1.5,2.5-2.2c0.9-0.7,1.8-1.4,2.7-1.9c0.9-0.7,1.8-1.4,2.7-1.9c0.9-0.5,1.8-1.1,2.7-1.6
			c0.9-0.5,1.8-1.1,2.7-1.6c1.1-0.5,2.1-1,3-1.4c0.9-0.5,1.9-1,3-1.4c0.9-0.4,1.8-0.8,2.7-1.4c1.1-0.4,2.1-0.7,3-1.1
			c1.1-0.2,2.1-0.5,3-0.8c1.1-0.4,2.1-0.6,3-0.8c1.1-0.4,2.1-0.6,3-0.8c1.1-0.2,2.1-0.4,3-0.6c1.1-0.2,2.1-0.4,3-0.5
			c1.1-0.2,2.2-0.3,3.3-0.3c0.9-0.2,1.9-0.3,3-0.3c0.9-0.2,1.9-0.3,3-0.3c1.1,0,2.1,0,3,0c1.1,0,2.1,0,3,0c1.1,0,2.1,0.1,3,0.3
			c1.1,0,2.1,0.1,3,0.3c1.1,0,2.1,0.1,3,0.3c1.1,0.2,2.1,0.4,3,0.5c0.9,0.2,1.9,0.4,3,0.6c0.9,0.4,1.8,0.6,2.7,0.8
			c1.1,0.2,2.1,0.5,3,0.8c0.9,0.4,1.8,0.7,2.7,1.1c0.9,0.2,1.8,0.5,2.7,0.8c0.9,0.4,1.8,0.7,2.7,1.1c0.9,0.6,1.8,1,2.7,1.4
			c0.7,0.4,1.6,0.8,2.5,1.4c0.9,0.5,1.7,1,2.4,1.4c0.9,0.5,1.7,1.1,2.5,1.6c0.9,0.5,1.7,1.1,2.5,1.6c1.1,0.4,1.8,0.9,2.2,1.6
			c1.3,2,2,2.6,2.2,1.9c0.7-1.4,1-3.4,0.8-5.7c-0.2-1.6,0-3.3,0.6-4.9c0.4-1.1,0.6-2.3,0.8-3.5c0-0.7,0.3-1.3,0.8-1.6
			c0.2-0.2,0.6-0.4,1.1-0.5c0.5-0.2,1.2-0.3,1.9-0.3c0.9-0.2,1.8-0.3,2.7-0.3c1.1-0.2,2.2-0.3,3.3-0.3c1.3,0,2.5,0,3.8,0
			c1.4,0,2.9,0,4.4,0c1.4,0,3,0,4.6,0c1.5,0,3,0,4.6,0c1.6,0,3.3,0.1,4.9,0.3c1.6,0,3.4,0.1,5.2,0.3c1.4,0,3,0.1,4.6,0.3
			c1.6,0.2,3.2,0.4,4.6,0.5c1.4,0.2,2.9,0.4,4.3,0.5c1.3,0.2,2.6,0.4,3.8,0.5c1.1,0.2,2.2,0.4,3.3,0.5c0.9,0.2,1.8,0.5,2.7,0.8
			c0.7,0.2,1.4,0.4,1.9,0.5c0.4,0.4,0.7,0.7,1.1,1.1l0.3,0.3c0,0.4,0,0.6,0,0.8c0,0.4,0,0.7,0,1.1c0,0.5,0,1.1,0,1.6s0,1.1,0,1.6
			c0,0.7,0,1.4,0,1.9c0,0.9,0,1.7,0,2.5c0,0.9-0.1,1.7-0.3,2.5c0,1.1,0,2.1,0,3c-0.2,1.1-0.3,2.1-0.3,3c0,1.3-0.1,2.5-0.3,3.5
			c0,1.1,0,2.3,0,3.5c-0.2,1.3-0.3,2.6-0.3,3.8c0,1.5-0.1,2.8-0.3,4.1c0,1.5,0,2.9,0,4.4c-0.2,1.5-0.3,2.9-0.3,4.4
			c0,1.6-0.1,3.3-0.3,4.9c0,1.6,0,3.2,0,4.6c-0.2,1.8-0.3,3.5-0.3,5.2c0,1.8,0,3.6,0,5.2c0,1.8-0.1,3.6-0.3,5.5c0,1.8,0,3.6,0,5.4
			c0,2,0,3.9,0,5.7c0,2.2,0,4.3,0,6.3s0,4,0,6c0.2,2,0.3,3.9,0.3,5.7c0,2,0,3.9,0,5.7c0,1.8,0.1,3.6,0.3,5.4c0,1.8,0,3.6,0,5.5
			c0.2,1.8,0.3,3.5,0.3,5.2c0,1.6,0.1,3.4,0.3,5.2c0,1.6,0.1,3.2,0.3,4.6c0,1.6,0,3.3,0,4.9c0.2,1.5,0.3,2.9,0.3,4.4
			c0.2,1.5,0.3,2.9,0.3,4.4c0.2,1.5,0.3,2.8,0.3,4.1c0.2,1.5,0.3,2.8,0.3,4.1c0.2,1.3,0.3,2.6,0.3,3.8c0.2,1.1,0.3,2.3,0.3,3.5
			c0,1.1,0.1,2.2,0.3,3.3c0,1.1,0.1,2.2,0.3,3.3c0,1.1,0,2.1,0,3c0.2,0.9,0.3,1.9,0.3,3c0,0.7,0.1,1.5,0.3,2.5c0,0.9,0,1.7,0,2.5
			c0,0.7,0.1,1.5,0.3,2.2c0,0.7,0,1.5,0,2.2c0,0.5,0,1.1,0,1.6c0,0.5,0,1.1,0,1.6c0,0.5,0,1,0,1.4s0,0.8,0,1.4
			c0,0.2-0.1,0.5-0.3,0.8c0,0.4,0,0.6,0,0.8c-0.2,0.2-0.3,0.4-0.3,0.5c0,0.2-0.1,0.3-0.3,0.3c-0.4,0.2-0.7,0.4-1.1,0.5
			c-0.7,0.2-1.4,0.3-1.9,0.3c-0.9,0.2-1.8,0.4-2.7,0.5c-0.9,0-1.9,0.1-3,0.3c-1.3,0-2.4,0-3.5,0c-1.4,0.2-2.8,0.3-4.1,0.3
			c-1.5,0-2.9,0-4.4,0c-1.4,0-3,0-4.6,0c-1.5,0-3,0-4.6,0c-1.6,0-3.3,0-4.9,0c-1.6,0-3.3,0-4.9,0c-1.4,0-3-0.1-4.6-0.3
			c-1.6,0-3.2-0.1-4.6-0.3c-1.6,0-3.2,0-4.6,0c-1.3-0.2-2.6-0.3-4.1-0.3c-1.3-0.2-2.6-0.3-3.8-0.3c-1.1-0.2-2.2-0.3-3.3-0.3
			c-0.9-0.2-1.8-0.4-2.7-0.5c-0.7,0-1.5-0.1-2.2-0.3c-0.6-0.2-1.1-0.3-1.6-0.3c-0.4-0.2-0.6-0.4-0.8-0.5c-0.6-0.5-0.9-1.2-1.1-1.9
			c-0.4-0.7-0.6-1.5-0.8-2.2c-0.4-1.1-0.6-2.1-0.6-3c-0.2-1.3-0.3-2.5-0.3-3.5c0.2-1.3,0.3-2.6,0.3-4.1c-0.4-1.5-0.4-2.9,0-4.4
			C652.7,510.8,652.8,509.1,652.5,507.9z M626.6,402.9c-1.1-0.2-2.3-0.3-3.5-0.3c-1.3,0-2.5,0-3.5,0c-1.3,0.2-2.5,0.5-3.5,0.8
			c-1.1,0.4-2.2,0.7-3.3,1.1c-1.1,0.5-2.1,1.2-3,1.9c-1.1,0.5-2.1,1.2-3,1.9c-0.9,0.7-1.7,1.5-2.4,2.5c-0.9,0.9-1.7,1.8-2.5,2.7
			c-0.7,0.9-1.5,1.9-2.2,3c-0.6,0.9-1.1,1.9-1.6,3c-0.5,1.3-1.1,2.5-1.6,3.5c-0.4,1.1-0.7,2.3-1.1,3.5c-0.2,1.1-0.4,2.3-0.5,3.5
			c-0.2,1.3-0.3,2.5-0.3,3.8c0,1.1,0,2.3,0,3.5c0.2,1.3,0.5,2.5,0.8,3.5c0.4,1.1,0.7,2.2,1.1,3.3c0.4,1.3,0.8,2.4,1.4,3.3
			c0.7,1.1,1.4,2.1,1.9,3c0.7,1.1,1.4,2.1,2.2,3c0.7,0.9,1.6,1.7,2.5,2.5c0.9,0.7,1.8,1.5,2.7,2.2c0.9,0.7,1.8,1.4,2.7,1.9
			c0.9,0.7,1.9,1.3,3,1.6c1.1,0.4,2.1,0.7,3,1.1c1.1,0.4,2.2,0.6,3.3,0.8c1.1,0.2,2.2,0.3,3.3,0.3c1.1,0,2.2-0.1,3.3-0.3
			c1.3-0.2,2.6-0.5,3.8-0.8c1.3-0.4,2.6-0.8,3.8-1.4c1.3-0.4,2.5-0.8,3.6-1.4c1.1-0.7,2.2-1.5,3.3-2.2c1.1-0.6,2.1-1.3,3-2.2
			c0.9-0.7,1.8-1.5,2.7-2.5c0.9-0.9,1.7-1.9,2.4-3c0.7-0.9,1.4-1.9,1.9-3c0.6-1.1,1.1-2.2,1.6-3.3c0.5-1.3,1-2.5,1.4-3.5
			c0.2-1.3,0.4-2.6,0.6-3.8c0.2-1.3,0.4-2.6,0.5-3.8c0-1.5-0.1-2.8-0.3-4.1c-0.2-1.3-0.4-2.5-0.5-3.5c-0.4-1.3-0.7-2.5-1.1-3.5
			c-0.5-1.1-1.1-2.2-1.6-3.3c-0.6-0.9-1.2-1.9-1.9-3c-0.7-0.9-1.6-1.7-2.5-2.5c-0.7-0.9-1.6-1.7-2.5-2.5c-1.1-0.9-2.1-1.6-3-2.2
			c-1.1-0.7-2.2-1.4-3.3-1.9c-1.1-0.5-2.3-1.1-3.5-1.6c-1.1-0.4-2.3-0.7-3.5-1.1C629.1,403.4,627.9,403.1,626.6,402.9z"/>
	</g>
	<g>
		<path d="M514.8,276.6c0.2,0.6,0.2,1.3,0,2.1c0,0.8,10.9,36.5-18.6,52.7c-23.9,11.3-50.9,12.3-56.6,2.8c-5.6-9.6-10.7-34-23.3-33.8
			c-12.6,0.1-25.3,4.1-25.7,52.8s15.6,76.3,30,76.3c12.5,0.2,8.9-2.3,18.9-9.4c10-7.1,30-4.7,48.3,3.3s36.1,25.2,31.6,48
			c-0.4,1-0.9,2.1-1.5,3.4c-0.4,1-0.8,2.1-1.2,3.3c-0.6,1-1.1,2.1-1.5,3.4c-0.6,1-1.1,2-1.5,3c-0.6,1.2-1.1,2.3-1.5,3.3
			c-0.6,1-1.2,2-1.8,3.1c-0.6,1-1.1,2-1.5,3c-0.6,0.8-1.2,1.7-1.8,2.7c-0.6,1-1.2,2-1.8,3c-0.6,0.8-1.2,1.7-1.8,2.7
			c-0.6,0.8-1.2,1.7-1.8,2.7c-0.6,0.8-1.2,1.6-1.8,2.4c-0.6,1-1.3,1.9-2.1,2.7c-0.6,0.8-1.2,1.6-1.8,2.4c-0.6,0.8-1.3,1.6-2.1,2.4
			c-0.6,0.8-1.2,1.5-1.8,2.1c-0.8,0.8-1.5,1.6-2.1,2.4c-0.8,0.6-1.5,1.3-2.1,2.1c-0.8,0.8-1.5,1.5-2.1,2.1c-0.8,0.6-1.6,1.3-2.4,2.1
			c-0.6,0.6-1.3,1.2-2.1,1.8s-1.6,1.2-2.4,1.8c-0.6,0.6-1.3,1.2-2.1,1.8c-0.8,0.6-1.6,1.2-2.4,1.8c-0.8,0.6-1.5,1.2-2.1,1.8
			c-0.8,0.4-1.6,0.9-2.4,1.5c-0.8,0.4-1.6,0.9-2.4,1.5c-0.8,0.4-1.6,0.9-2.4,1.5c-0.8,0.4-1.6,0.8-2.4,1.2c-0.8,0.4-1.6,0.8-2.4,1.2
			c-1,0.6-1.9,1.1-2.7,1.5c-0.8,0.4-1.6,0.7-2.4,0.9c-0.8,0.4-1.6,0.8-2.4,1.2c-1,0.4-1.9,0.7-2.7,0.9c-0.8,0.4-1.6,0.7-2.4,0.9
			c-1,0.4-1.9,0.7-2.7,0.9c-0.8,0.4-1.6,0.7-2.4,0.9c-1,0.2-1.9,0.4-2.7,0.6c-0.8,0.2-1.7,0.4-2.7,0.6c-0.8,0.2-1.6,0.4-2.4,0.6
			c-1,0.2-1.9,0.4-2.7,0.6c-1,0.2-1.9,0.4-2.7,0.6c-0.8,0-1.7,0.1-2.7,0.3c-0.8,0-1.7,0.1-2.7,0.3c-0.8,0-1.7,0-2.7,0
			c-0.8,0.2-1.6,0.3-2.4,0.3c-1,0-1.9,0-2.7,0c-1,0-1.9,0-2.7,0c-1,0-1.9,0-2.7,0c-1,0-1.9,0-2.7,0c-1-0.2-1.9-0.3-2.7-0.3
			c-1-0.2-1.9-0.3-2.7-0.3c-1-0.2-1.9-0.3-2.7-0.3c-1-0.2-1.9-0.4-2.7-0.6c-0.8,0-1.7-0.1-2.7-0.3c-0.8-0.2-1.7-0.4-2.7-0.6
			c-0.8-0.2-1.7-0.4-2.7-0.6c-0.8-0.2-1.7-0.5-2.7-0.9c-0.8-0.2-1.6-0.4-2.4-0.6c-1-0.2-1.9-0.5-2.7-0.9c-1-0.2-1.9-0.5-2.7-0.9
			c-0.8-0.4-1.7-0.7-2.7-0.9c-0.8-0.4-1.6-0.8-2.4-1.2c-1-0.4-1.9-0.7-2.7-0.9c-0.8-0.4-1.7-0.8-2.7-1.2c-0.8-0.4-1.6-0.9-2.4-1.5
			c-1-0.4-1.9-0.8-2.7-1.2c-0.8-0.4-1.6-0.9-2.4-1.5c-0.8-0.4-1.7-0.9-2.7-1.5c-0.8-0.4-1.6-0.9-2.4-1.5c-0.8-0.4-1.6-0.9-2.4-1.5
			c-0.8-0.6-1.6-1.2-2.4-1.8c-0.8-0.6-1.7-1.2-2.7-1.8c-0.8-0.6-1.6-1.2-2.4-1.8c-0.8-0.6-1.5-1.2-2.1-1.8c-0.8-0.6-1.6-1.2-2.4-1.8
			c-0.8-0.8-1.6-1.5-2.4-2.1c-0.8-0.8-1.6-1.5-2.4-2.1c-0.8-0.8-1.5-1.5-2.1-2.1c-0.8-0.8-1.6-1.6-2.4-2.4c-0.8-0.8-1.5-1.6-2.1-2.4
			c-0.8-0.6-1.6-1.3-2.4-2.1c-0.6-0.8-1.3-1.7-2.1-2.7c-0.6-0.8-1.3-1.6-2.1-2.4c-0.6-0.8-1.3-1.7-2.1-2.7c-0.6-0.8-1.3-1.6-2.1-2.4
			c-0.6-1-1.2-1.9-1.8-2.7c-0.8-1-1.5-2-2.1-3c-0.6-0.8-1.2-1.7-1.8-2.7c-0.6-1-1.2-2-1.8-3c-0.8-1-1.5-2-2.1-3.1
			c-0.6-1-1.2-2-1.8-3c-0.6-1-1.2-2.1-1.8-3.4c-0.4-1-0.9-2-1.5-3c-0.6-1.2-1.2-2.3-1.8-3.4c-0.6-1.2-1.1-2.3-1.5-3.3
			c-0.6-1.2-1.2-2.4-1.8-3.7c-0.4-1-0.9-2.1-1.5-3.3c-0.4-1.2-0.9-2.4-1.5-3.7c-0.4-1.2-0.8-2.4-1.2-3.7c-0.6-1.2-1.1-2.4-1.5-3.7
			c-0.4-1.2-0.8-2.5-1.2-4c-0.4-1.2-0.8-2.4-1.2-3.7c-0.6-1.4-1.1-2.7-1.5-4c-0.4-1.4-0.7-2.7-0.9-4c-0.4-1.4-0.8-2.8-1.2-4.3
			c-0.4-1.4-0.8-2.7-1.2-4c-0.2-1.4-0.5-2.8-0.9-4.3c-0.2-1.4-0.5-2.8-0.9-4.3c-0.2-1.4-0.5-2.9-0.9-4.6c-0.2-1.4-0.4-2.8-0.6-4.3
			c-0.4-1.6-0.7-3.2-0.9-4.6c-0.2-1.4-0.4-2.9-0.6-4.6c-0.2-1.4-0.4-2.9-0.6-4.6c-0.2-1.6-0.4-3.2-0.6-4.6c-0.2-1.6-0.3-3.2-0.3-4.9
			c-0.2-1.6-0.4-3.2-0.6-4.9c0-1.6-0.1-3.2-0.3-4.9c0-1.6-0.1-3.2-0.3-4.9c0-1.8,0-3.6,0-5.2c-0.2-1.6-0.3-3.3-0.3-5.2
			c0-1.6,0-3.4,0-5.2c0-1.4,0-2.9,0-4.6c0.2-1.4,0.3-2.8,0.3-4.3c0-1.6,0.1-3.2,0.3-4.6c0-1.4,0.1-2.8,0.3-4.3
			c0-1.6,0.1-3.1,0.3-4.6c0.2-1.4,0.4-2.8,0.6-4.3c0.2-1.4,0.4-2.7,0.6-4c0.2-1.4,0.4-2.8,0.6-4.3c0.2-1.4,0.4-2.7,0.6-4
			c0.4-1.4,0.7-2.8,0.9-4.3c0.4-1.2,0.7-2.5,0.9-4c0.4-1.2,0.7-2.4,0.9-3.7c0.4-1.4,0.8-2.7,1.2-4c0.4-1.2,0.8-2.4,1.2-3.7
			c0.4-1.4,0.8-2.7,1.2-4c0.4-1.2,0.8-2.4,1.2-3.7c0.4-1.2,0.9-2.3,1.5-3.4c0.4-1.2,0.8-2.4,1.2-3.7c0.6-1.2,1.1-2.3,1.5-3.4
			c0.6-1.2,1.1-2.3,1.5-3.3c0.6-1.2,1.2-2.3,1.8-3.4c0.6-1.2,1.1-2.3,1.5-3.3c0.6-1,1.2-2.1,1.8-3.4c0.6-1,1.2-2,1.8-3
			c0.6-1,1.2-2,1.8-3.1c0.8-1,1.5-2,2.1-3c0.6-1,1.2-1.9,1.8-2.7c0.8-1,1.5-2,2.1-3c0.6-1,1.3-1.9,2.1-2.7c0.6-1,1.3-1.9,2.1-2.7
			c0.8-1,1.5-1.9,2.1-2.7c0.8-0.8,1.6-1.6,2.4-2.4c0.6-1,1.3-1.9,2.1-2.7c0.8-0.8,1.6-1.6,2.4-2.4c0.8-0.8,1.6-1.6,2.4-2.4
			c0.8-0.8,1.6-1.6,2.4-2.4c0.8-0.6,1.6-1.3,2.4-2.1c0.8-0.8,1.6-1.5,2.4-2.1c0.8-0.8,1.6-1.5,2.4-2.1c1-0.8,1.9-1.5,2.7-2.1
			c0.8-0.6,1.6-1.2,2.4-1.8c1-0.8,1.9-1.5,2.7-2.1c1-0.6,1.9-1.2,2.7-1.8c0.8-0.6,1.7-1.2,2.7-1.8c0.8-0.6,1.7-1.1,2.7-1.5
			c0.8-0.6,1.7-1.2,2.7-1.8c0.8-0.4,1.7-0.9,2.7-1.5c1-0.4,1.9-0.9,2.7-1.5c1-0.4,2-0.9,3-1.5c0.8-0.4,1.7-0.8,2.7-1.2
			c1-0.4,1.9-0.8,2.7-1.2c1-0.4,2-0.8,3-1.2c0.8-0.4,1.7-0.8,2.7-1.2c1-0.4,2-0.8,3-1.2c1-0.2,1.9-0.5,2.7-0.9c1-0.2,2-0.5,3.1-0.9
			c1-0.2,2-0.5,3-0.9c1-0.2,1.9-0.4,2.7-0.6c1-0.2,2-0.5,3-0.9c1-0.2,2-0.4,3.1-0.6c1-0.2,2-0.3,3-0.3c1-0.2,1.9-0.4,2.7-0.6
			c1-0.2,2-0.3,3.1-0.3c1-0.2,2-0.3,3-0.3c1-0.2,2-0.3,3.1-0.3c0.8-0.2,1.7-0.3,2.7-0.3c1,0,2,0,3.1,0c1,0,2,0,3,0c1,0,1.9,0,2.7,0
			c1,0,2,0,3.1,0c1,0,2,0.1,3,0.3c0.8,0,1.7,0.1,2.7,0.3c1,0,1.9,0.1,2.7,0.3c1,0,2,0.1,3,0.3c1,0.2,1.9,0.4,2.7,0.6
			c1,0.2,2,0.4,3,0.6c0.8,0.2,1.7,0.4,2.7,0.6c0.8,0.2,1.7,0.4,2.7,0.6c0.8,0.4,1.7,0.7,2.7,0.9c0.8,0.4,1.7,0.7,2.7,0.9
			c0.8,0.4,1.7,0.7,2.7,0.9c0.8,0.4,1.7,0.8,2.7,1.2c0.8,0.4,1.6,0.7,2.4,0.9c1,0.4,1.9,0.8,2.7,1.2c0.8,0.4,1.6,0.9,2.4,1.5
			c0.8,0.4,1.7,0.8,2.7,1.2c0.8,0.6,1.6,1.1,2.4,1.5c0.8,0.4,1.6,0.9,2.4,1.5c0.8,0.6,1.6,1.1,2.4,1.5c0.8,0.6,1.6,1.2,2.4,1.8
			c0.8,0.6,1.5,1.2,2.1,1.8c0.8,0.6,1.6,1.2,2.4,1.8c0.8,0.6,1.5,1.2,2.1,1.8c0.8,0.6,1.5,1.3,2.1,2.1c0.8,0.6,1.5,1.3,2.1,2.1
			c0.8,0.6,1.5,1.3,2.1,2.1c0.8,0.8,1.5,1.5,2.1,2.1c0.6,0.8,1.3,1.6,2.1,2.4c0.6,0.8,1.2,1.6,1.8,2.4c0.6,0.8,1.2,1.6,1.8,2.4
			c0.6,1,1.2,1.9,1.8,2.7c0.6,0.8,1.2,1.7,1.8,2.7c0.6,0.8,1.1,1.7,1.5,2.7c0.6,1,1.2,1.9,1.8,2.7c0.4,1,0.9,2,1.5,3.1
			c0.4,1,0.9,2,1.5,3c0.4,1,0.9,2,1.5,3c0.4,1,0.8,2.1,1.2,3.4c0.4,1,0.8,2.1,1.2,3.3c0.4,1,0.8,2.1,1.2,3.4c0.4,1,0.8,2.1,1.2,3.3
			c0.4,1.2,0.7,2.4,0.9,3.7C514,274.2,514.4,275.4,514.8,276.6z"/>
		<path fill="#FFFFFF" d="M498,294.2c0.2,0.5,0.2,1.1,0,1.8c0,0.7-0.2,1.4-0.5,2.1c-0.3,0.7-0.8,1.3-1.3,1.8
			c-0.7,0.7-1.4,1.3-2.1,1.8c-0.7,0.7-1.5,1.3-2.3,1.8c-1,0.5-2,1-2.8,1.6c-1,0.5-2.2,1-3.4,1.6c-1,0.5-2.2,1-3.4,1.3
			c-1.2,0.5-2.5,1-3.9,1.3c-1.2,0.3-2.4,0.7-3.6,1c-1.4,0.3-2.7,0.7-3.9,1c-1.4,0.2-2.7,0.4-3.9,0.8c-1.2,0.2-2.5,0.3-3.9,0.5
			c-1,0.2-2.2,0.3-3.4,0.3c-1.2,0.2-2.3,0.3-3.4,0.3s-2,0-2.8,0c-0.9,0-1.7-0.1-2.6-0.3c-0.7-0.2-1.4-0.3-2.1-0.5
			c-0.5-0.2-1-0.4-1.3-0.8c-0.3-0.3-0.6-0.7-0.8-1c-0.3-1-0.6-2-0.8-2.8c-0.3-0.9-0.7-1.7-1-2.6c-0.3-0.9-0.8-1.6-1.3-2.3
			c-0.3-0.9-0.7-1.6-1-2.3c-0.3-0.9-0.8-1.6-1.3-2.3c-0.3-0.7-0.8-1.4-1.3-2.1c-0.5-0.5-1-1.1-1.3-1.8c-0.5-0.5-1-1.1-1.6-1.8
			c-0.5-0.5-1-1-1.6-1.6c-0.5-0.5-1-1-1.6-1.3c-0.5-0.5-1-1-1.6-1.6c-0.5-0.3-1-0.7-1.6-1c-0.7-0.3-1.3-0.7-1.8-1
			c-0.5-0.3-1.1-0.7-1.8-1c-0.5-0.2-1.1-0.4-1.8-0.8c-0.5-0.2-1.1-0.3-1.8-0.5c-0.5-0.2-1.1-0.3-1.8-0.5c-0.5-0.2-1.1-0.3-1.8-0.3
			c-0.5-0.2-1.1-0.3-1.8-0.3c-0.7,0-1.3,0-1.8,0c-0.7,0-1.4,0-2.1,0c-0.5,0-1.1,0-1.8,0c-0.7,0.2-1.3,0.3-1.8,0.5
			c-0.7,0-1.4,0.1-2.1,0.3c-0.7,0.2-1.3,0.4-1.8,0.8c-0.7,0.2-1.4,0.3-2.1,0.5c-0.5,0.3-1.1,0.7-1.8,1c-0.5,0.2-1.1,0.4-1.8,0.8
			c-0.7,0.3-1.3,0.8-1.8,1.3c-0.7,0.3-1.3,0.7-1.8,1c-0.7,0.5-1.3,1-1.8,1.3c-0.7,0.5-1.3,1-1.8,1.6s-1.1,1-1.8,1.6
			c-0.5,0.7-1,1.3-1.6,1.8c-0.5,0.7-1.1,1.3-1.8,1.8c-0.5,0.7-1,1.4-1.6,2.1c-0.5,0.7-1,1.4-1.6,2.1c-0.5,0.7-1,1.5-1.3,2.3
			c-0.5,0.7-1,1.5-1.6,2.3c-0.5,0.7-1,1.5-1.3,2.3c-0.5,0.9-1,1.7-1.3,2.6c-0.5,0.9-1,1.8-1.3,2.9c-0.3,0.9-0.7,1.8-1,2.8
			c-0.5,0.9-1,1.8-1.3,2.9c-0.3,1-0.6,2.1-0.8,3.1c-0.3,1-0.7,2.1-1,3.1c-0.3,1.2-0.6,2.3-0.8,3.4c-0.3,1.2-0.6,2.3-0.8,3.4
			c-0.2,1.2-0.3,2.4-0.5,3.6c-0.2,1.2-0.3,2.4-0.5,3.6c-0.2,1.2-0.3,2.5-0.5,3.9c0,1.2-0.1,2.5-0.3,3.9c0,1.2-0.1,2.5-0.3,3.9
			c0,1.4,0,2.8,0,4.1c0,1.4,0,2.8,0,4.1c0.2,1.6,0.3,3,0.3,4.4c0.2,1.6,0.3,3,0.3,4.4c0.2,2.2,0.4,4.4,0.8,6.5
			c0.2,2.1,0.4,4.1,0.8,6.2c0.3,1.9,0.7,3.8,1,5.7c0.3,1.9,0.7,3.8,1,5.7c0.5,1.7,0.9,3.5,1.3,5.2c0.5,1.6,1,3.2,1.6,4.9
			c0.5,1.6,1,3,1.6,4.4c0.5,1.6,1,3,1.6,4.4c0.7,1.4,1.3,2.7,1.8,3.9c0.7,1.4,1.4,2.7,2.1,3.9c0.5,1,1.1,2.2,1.8,3.4
			c0.7,1,1.4,2.1,2.1,3.1c0.7,1,1.5,2.1,2.3,3.1c0.7,0.9,1.4,1.7,2.1,2.6c0.7,0.9,1.5,1.6,2.3,2.3c0.7,0.9,1.5,1.6,2.3,2.3
			c0.7,0.7,1.5,1.3,2.3,1.8c0.7,0.7,1.5,1.3,2.3,1.8c0.9,0.5,1.6,1,2.3,1.6c0.9,0.3,1.7,0.8,2.6,1.3c0.7,0.3,1.5,0.7,2.3,1
			c0.7,0.3,1.5,0.6,2.3,0.8c0.7,0.3,1.5,0.6,2.3,0.8c0.7,0.2,1.5,0.3,2.3,0.5c0.7,0.2,1.5,0.3,2.3,0.3c0.7,0.2,1.4,0.3,2.1,0.3
			c0.9,0,1.6,0,2.3,0c0.7,0,1.4-0.1,2.1-0.3c0.7,0,1.4-0.1,2.1-0.3c0.7-0.2,1.3-0.3,1.8-0.5c0.7-0.2,1.3-0.3,1.8-0.5
			c0.7-0.2,1.3-0.4,1.8-0.8c0.5-0.2,1-0.4,1.6-0.8c0.5-0.3,1-0.7,1.6-1c0.5-0.3,0.9-0.7,1.3-1c0.5-0.3,0.9-0.7,1.3-1
			c0.5-0.5,0.9-1,1-1.3c0.3-0.5,0.7-1,1-1.6c0.2-0.3,0.4-0.6,0.8-0.8c0.5-0.2,1-0.3,1.6-0.5c0.5,0,1.1,0,1.8,0c0.9,0,1.6,0,2.3,0
			c1,0,2,0.1,2.8,0.3c1,0.2,2.1,0.3,3.1,0.5c1.2,0.2,2.4,0.4,3.6,0.8c1.2,0.3,2.4,0.7,3.6,1c1.2,0.3,2.4,0.7,3.6,1
			c1.4,0.3,2.7,0.8,3.9,1.3c1.4,0.3,2.8,0.8,4.1,1.3c1.2,0.5,2.5,1,3.9,1.3c1.2,0.5,2.5,1,3.9,1.6c1.2,0.5,2.4,1,3.6,1.6
			c1.2,0.7,2.4,1.3,3.6,1.8c1,0.5,2.2,1,3.4,1.6c0.9,0.5,1.8,1,2.8,1.6c0.9,0.5,1.7,1.1,2.6,1.8c0.9,0.5,1.6,1,2.3,1.6
			c0.5,0.3,1,0.9,1.6,1.6c0.5,0.3,1,0.8,1.3,1.3c0.3,0.3,0.5,0.8,0.5,1.3c0.2,0.3,0.2,0.8,0,1.3c-0.3,0.9-0.8,1.8-1.3,2.9
			c-0.3,0.9-0.7,1.8-1,2.8c-0.5,0.9-1,1.8-1.3,2.9c-0.5,0.9-1,1.7-1.3,2.6c-0.5,1-1,2-1.3,2.8c-0.5,0.9-1,1.7-1.6,2.6
			c-0.5,0.9-1,1.7-1.3,2.6c-0.5,0.7-1,1.5-1.6,2.3s-1,1.7-1.6,2.6c-0.5,0.7-1,1.5-1.6,2.3c-0.5,0.7-1,1.5-1.6,2.3
			c-0.5,0.7-1,1.4-1.6,2.1c-0.5,0.9-1.1,1.6-1.8,2.3c-0.5,0.7-1,1.4-1.6,2.1c-0.5,0.7-1.1,1.4-1.8,2.1c-0.5,0.7-1,1.3-1.6,1.8
			c-0.7,0.7-1.3,1.4-1.8,2.1c-0.7,0.5-1.3,1.1-1.8,1.8c-0.7,0.7-1.3,1.3-1.8,1.8c-0.7,0.5-1.4,1.1-2.1,1.8c-0.5,0.5-1.1,1-1.8,1.6
			c-0.7,0.5-1.4,1-2.1,1.6c-0.5,0.5-1.1,1-1.8,1.6c-0.7,0.5-1.4,1-2.1,1.6c-0.7,0.5-1.3,1-1.8,1.6c-0.7,0.3-1.4,0.8-2.1,1.3
			c-0.7,0.3-1.4,0.8-2.1,1.3c-0.7,0.3-1.4,0.8-2.1,1.3c-0.7,0.3-1.4,0.7-2.1,1c-0.7,0.3-1.4,0.7-2.1,1c-0.9,0.5-1.6,1-2.3,1.3
			c-0.7,0.3-1.4,0.6-2.1,0.8c-0.7,0.3-1.4,0.7-2.1,1c-0.9,0.3-1.6,0.6-2.3,0.8c-0.7,0.3-1.4,0.6-2.1,0.8c-0.9,0.3-1.6,0.6-2.3,0.8
			c-0.7,0.3-1.4,0.6-2.1,0.8c-0.9,0.2-1.6,0.3-2.3,0.5c-0.7,0.2-1.5,0.3-2.3,0.5c-0.7,0.2-1.4,0.3-2.1,0.5c-0.9,0.2-1.6,0.3-2.3,0.5
			c-0.9,0.2-1.6,0.3-2.3,0.5c-0.7,0-1.5,0.1-2.3,0.3c-0.7,0-1.5,0.1-2.3,0.3c-0.7,0-1.5,0-2.3,0c-0.7,0.2-1.4,0.3-2.1,0.3
			c-0.9,0-1.6,0-2.3,0c-0.9,0-1.6,0-2.3,0c-0.9,0-1.6,0-2.3,0c-0.9,0-1.6,0-2.3,0c-0.9-0.2-1.6-0.3-2.3-0.3
			c-0.9-0.2-1.6-0.3-2.3-0.3c-0.9-0.2-1.6-0.3-2.3-0.3c-0.9-0.2-1.6-0.3-2.3-0.5c-0.7,0-1.5-0.1-2.3-0.3c-0.7-0.2-1.5-0.3-2.3-0.5
			c-0.7-0.2-1.5-0.3-2.3-0.5c-0.7-0.2-1.5-0.4-2.3-0.8c-0.7-0.2-1.4-0.3-2.1-0.5c-0.9-0.2-1.6-0.4-2.3-0.8c-0.9-0.2-1.6-0.4-2.3-0.8
			c-0.7-0.3-1.5-0.6-2.3-0.8c-0.7-0.3-1.4-0.7-2.1-1c-0.9-0.3-1.6-0.6-2.3-0.8c-0.7-0.3-1.5-0.7-2.3-1c-0.7-0.3-1.4-0.8-2.1-1.3
			c-0.9-0.3-1.6-0.7-2.3-1c-0.7-0.3-1.4-0.8-2.1-1.3c-0.7-0.3-1.5-0.8-2.3-1.3c-0.7-0.3-1.4-0.8-2.1-1.3c-0.7-0.3-1.4-0.8-2.1-1.3
			c-0.7-0.5-1.4-1-2.1-1.6c-0.7-0.5-1.5-1-2.3-1.6c-0.7-0.5-1.4-1-2.1-1.6c-0.7-0.5-1.3-1-1.8-1.6c-0.7-0.5-1.4-1-2.1-1.6
			c-0.7-0.7-1.4-1.3-2.1-1.8c-0.7-0.7-1.4-1.3-2.1-1.8c-0.7-0.7-1.3-1.3-1.8-1.8c-0.7-0.7-1.4-1.4-2.1-2.1c-0.7-0.7-1.3-1.4-1.8-2.1
			c-0.7-0.5-1.4-1.1-2.1-1.8c-0.5-0.7-1.1-1.5-1.8-2.3c-0.5-0.7-1.1-1.4-1.8-2.1c-0.5-0.7-1.1-1.5-1.8-2.3c-0.5-0.7-1.1-1.4-1.8-2.1
			c-0.5-0.9-1-1.6-1.6-2.3c-0.7-0.9-1.3-1.7-1.8-2.6c-0.5-0.7-1-1.5-1.6-2.3c-0.5-0.9-1-1.7-1.6-2.6c-0.7-0.9-1.3-1.7-1.8-2.6
			c-0.5-0.9-1-1.7-1.6-2.6c-0.5-0.9-1-1.8-1.6-2.9c-0.3-0.9-0.8-1.7-1.3-2.6c-0.5-1-1-2-1.6-2.9c-0.5-1-1-2-1.3-2.8
			c-0.5-1-1-2.1-1.6-3.1c-0.3-0.9-0.8-1.8-1.3-2.8c-0.3-1-0.8-2.1-1.3-3.1c-0.3-1-0.7-2.1-1-3.1c-0.5-1-1-2.1-1.3-3.1
			c-0.3-1-0.7-2.2-1-3.4c-0.3-1-0.7-2.1-1-3.1c-0.5-1.2-1-2.3-1.3-3.4c-0.3-1.2-0.6-2.3-0.8-3.4c-0.3-1.2-0.7-2.4-1-3.6
			c-0.3-1.2-0.7-2.3-1-3.4c-0.2-1.2-0.4-2.4-0.8-3.6c-0.2-1.2-0.4-2.4-0.8-3.6c-0.2-1.2-0.4-2.5-0.8-3.9c-0.2-1.2-0.3-2.4-0.5-3.6
			c-0.3-1.4-0.6-2.7-0.8-3.9c-0.2-1.2-0.3-2.5-0.5-3.9c-0.2-1.2-0.3-2.5-0.5-3.9c-0.2-1.4-0.3-2.7-0.5-3.9c-0.2-1.4-0.3-2.8-0.3-4.1
			c-0.2-1.4-0.3-2.8-0.5-4.1c0-1.4-0.1-2.8-0.3-4.1c0-1.4-0.1-2.8-0.3-4.1c0-1.6,0-3,0-4.4c-0.2-1.4-0.3-2.8-0.3-4.4
			c0-1.4,0-2.9,0-4.4c0-1.2,0-2.5,0-3.9c0.2-1.2,0.3-2.4,0.3-3.6c0-1.4,0.1-2.7,0.3-3.9c0-1.2,0.1-2.4,0.3-3.6
			c0-1.4,0.1-2.7,0.3-3.9c0.2-1.2,0.3-2.4,0.5-3.6c0.2-1.2,0.3-2.3,0.5-3.4c0.2-1.2,0.3-2.4,0.5-3.6c0.2-1.2,0.3-2.3,0.5-3.4
			c0.3-1.2,0.6-2.4,0.8-3.6c0.3-1,0.6-2.2,0.8-3.4c0.3-1,0.6-2.1,0.8-3.1c0.3-1.2,0.7-2.3,1-3.4c0.3-1,0.7-2.1,1-3.1
			c0.3-1.2,0.7-2.3,1-3.4c0.3-1,0.7-2.1,1-3.1c0.3-1,0.8-2,1.3-2.9c0.3-1,0.7-2.1,1-3.1c0.5-1,0.9-2,1.3-2.9c0.5-1,1-2,1.3-2.8
			c0.5-1,1-2,1.6-2.9c0.5-1,0.9-2,1.3-2.8c0.5-0.9,1-1.8,1.6-2.9c0.5-0.9,1-1.7,1.6-2.6c0.5-0.9,1-1.7,1.6-2.6
			c0.7-0.9,1.3-1.7,1.8-2.6c0.5-0.9,1-1.6,1.6-2.3c0.7-0.9,1.3-1.7,1.8-2.6c0.5-0.9,1.1-1.6,1.8-2.3c0.5-0.9,1.1-1.6,1.8-2.3
			c0.7-0.9,1.3-1.6,1.8-2.3c0.7-0.7,1.4-1.4,2.1-2.1c0.5-0.9,1.1-1.6,1.8-2.3c0.7-0.7,1.4-1.4,2.1-2.1c0.7-0.7,1.4-1.4,2.1-2.1
			c0.7-0.7,1.4-1.4,2.1-2.1c0.7-0.5,1.4-1.1,2.1-1.8c0.7-0.7,1.4-1.3,2.1-1.8c0.7-0.7,1.4-1.3,2.1-1.8c0.9-0.7,1.6-1.3,2.3-1.8
			c0.7-0.5,1.4-1,2.1-1.6c0.9-0.7,1.6-1.3,2.3-1.8c0.9-0.5,1.6-1,2.3-1.6c0.7-0.5,1.5-1,2.3-1.6c0.7-0.5,1.5-1,2.3-1.3
			c0.7-0.5,1.5-1,2.3-1.6c0.7-0.3,1.5-0.8,2.3-1.3c0.9-0.3,1.6-0.8,2.3-1.3c0.9-0.3,1.7-0.8,2.6-1.3c0.7-0.3,1.5-0.7,2.3-1
			c0.9-0.3,1.6-0.7,2.3-1c0.9-0.3,1.7-0.7,2.6-1c0.7-0.3,1.5-0.7,2.3-1c0.9-0.3,1.7-0.7,2.6-1c0.9-0.2,1.6-0.4,2.3-0.8
			c0.9-0.2,1.7-0.4,2.6-0.8c0.9-0.2,1.7-0.4,2.6-0.8c0.9-0.2,1.6-0.3,2.3-0.5c0.9-0.2,1.7-0.4,2.6-0.8c0.9-0.2,1.7-0.3,2.6-0.5
			c0.9-0.2,1.7-0.3,2.6-0.3c0.9-0.2,1.6-0.3,2.3-0.5c0.9-0.2,1.7-0.3,2.6-0.3c0.9-0.2,1.7-0.3,2.6-0.3c0.9-0.2,1.7-0.3,2.6-0.3
			c0.7-0.2,1.5-0.3,2.3-0.3c0.9,0,1.7,0,2.6,0c0.9,0,1.7,0,2.6,0c0.9,0,1.6,0,2.3,0c0.9,0,1.7,0,2.6,0c0.9,0,1.7,0.1,2.6,0.3
			c0.7,0,1.5,0.1,2.3,0.3c0.9,0,1.6,0.1,2.3,0.3c0.9,0,1.7,0.1,2.6,0.3c0.9,0.2,1.6,0.3,2.3,0.5c0.9,0.2,1.7,0.3,2.6,0.5
			c0.7,0.2,1.5,0.3,2.3,0.5c0.7,0.2,1.5,0.3,2.3,0.5c0.7,0.3,1.5,0.6,2.3,0.8c0.7,0.3,1.5,0.6,2.3,0.8c0.7,0.3,1.5,0.6,2.3,0.8
			c0.7,0.3,1.5,0.7,2.3,1c0.7,0.3,1.4,0.6,2.1,0.8c0.9,0.3,1.6,0.7,2.3,1c0.7,0.3,1.4,0.8,2.1,1.3c0.7,0.3,1.5,0.7,2.3,1
			c0.7,0.5,1.4,1,2.1,1.3c0.7,0.3,1.4,0.8,2.1,1.3c0.7,0.5,1.4,1,2.1,1.3c0.7,0.5,1.4,1,2.1,1.6c0.7,0.5,1.3,1,1.8,1.6
			c0.7,0.5,1.4,1,2.1,1.6c0.7,0.5,1.3,1,1.8,1.6c0.7,0.5,1.3,1.1,1.8,1.8c0.7,0.5,1.3,1.1,1.8,1.8c0.7,0.5,1.3,1.1,1.8,1.8
			c0.7,0.7,1.3,1.3,1.8,1.8c0.5,0.7,1.1,1.4,1.8,2.1c0.5,0.7,1,1.4,1.6,2.1c0.5,0.7,1,1.4,1.6,2.1c0.5,0.9,1,1.6,1.6,2.3
			c0.5,0.7,1,1.5,1.6,2.3c0.5,0.7,0.9,1.5,1.3,2.3c0.5,0.9,1,1.6,1.6,2.3c0.3,0.9,0.8,1.7,1.3,2.6c0.3,0.9,0.8,1.7,1.3,2.6
			c0.3,0.9,0.8,1.7,1.3,2.6c0.3,0.9,0.7,1.8,1,2.9c0.3,0.9,0.7,1.8,1,2.8c0.3,0.9,0.7,1.8,1,2.9c0.3,0.9,0.7,1.8,1,2.8
			c0.3,1,0.6,2.1,0.8,3.1C497.3,292.1,497.7,293.2,498,294.2z"/>
	</g>
</g>
</svg>
