<?xml version="1.0" encoding="utf-8"?>
<!-- Generator: Adobe Illustrator 18.0.0, SVG Export Plug-In . SVG Version: 6.00 Build 0)  -->
<!DOCTYPE svg PUBLIC "-//W3C//DTD SVG 1.1//EN" "http://www.w3.org/Graphics/SVG/1.1/DTD/svg11.dtd">
<svg version="1.1" id="Camada_1" xmlns="http://www.w3.org/2000/svg" xmlns:xlink="http://www.w3.org/1999/xlink" x="0px" y="0px"
	 viewBox="0 0 1024 768" enable-background="new 0 0 1024 768" xml:space="preserve">
<g>
	<defs>
		<circle id="SVGID_1_" cx="511.9" cy="383.4" r="375.7"/>
	</defs>
	<clipPath id="SVGID_2_">
		<use xlink:href="#SVGID_1_"  overflow="visible"/>
	</clipPath>
	<g clip-path="url(#SVGID_2_)" enable-background="new    ">
		
			<image overflow="visible" width="2474" height="2474" xlink:href="../../banco de imagens/botões/butt 25.png"  transform="matrix(0.3065 0 0 0.3065 132.8006 4.7999)">
		</image>
	</g>
</g>
<g>
	<g>
		<path d="M403.8,340.7c0.8-32.9,4.3-147.4,4.5-147.4c3.7-0.9-0.8-7.1,59.1-9.8c0,0,3.2,0.1,4.8,0.3c1.6,0,3.2,0,4.8,0
			s3.1,0.1,4.5,0.3c1.6,0,3.1,0.1,4.5,0.3c1.4,0.2,2.8,0.3,4.2,0.3c1.2,0.2,2.5,0.4,3.9,0.6c1.2,0.2,2.3,0.4,3.3,0.6
			c1.2,0.2,2.3,0.5,3.3,0.9c0.8,0.2,1.6,0.5,2.4,0.9c0.8,0.2,1.5,0.5,2.1,0.9c0.4,0.2,0.8,0.5,1.2,0.9l0.3,0.3
			c0.2,0.2,0.3,0.4,0.3,0.6c0.2,0.4,0.3,0.7,0.3,0.9c0.2,0.4,0.3,0.8,0.3,1.2c0.2,0.4,0.3,0.8,0.3,1.2c0.2,0.4,0.3,0.9,0.3,1.5
			c0.2,0.4,0.3,0.9,0.3,1.5c0.2,0.6,0.3,1.2,0.3,1.8c0.2,0.6,0.3,1.3,0.3,2.1c0.2,0.6,0.4,1.3,0.6,2.1c0,0.8,0.1,1.6,0.3,2.4
			c0,0.8,0.1,1.7,0.3,2.7c0.2,0.8,0.3,1.7,0.3,2.7c0.2,0.8,0.3,1.7,0.3,2.7c0.2,1,0.4,2,0.6,3c0,1.2,0.1,2.3,0.3,3.3
			c0.2,1.2,0.3,2.3,0.3,3.3c0.2,1.2,0.4,2.4,0.6,3.6c0,1.2,0.1,2.4,0.3,3.6c0.2,1.2,0.3,2.5,0.3,3.9c0.2,1.2,0.4,2.5,0.6,3.9
			c0.2,1.2,0.3,2.5,0.3,3.9c0.2,1.4,0.4,2.8,0.6,4.2c0,1.4,0.1,2.8,0.3,4.2c0.2,1.4,0.4,2.8,0.6,4.2c0,1.6,0.1,3.1,0.3,4.5
			c0.2,1.6,0.3,3.2,0.3,4.8c0.2,1.4,0.4,2.9,0.6,4.5c0.2,1.6,0.3,3.2,0.3,4.8c0.2,1.6,0.4,3.2,0.6,4.8c0.2,1.6,0.3,3.2,0.3,4.8
			c0.2,1.8,0.4,3.5,0.6,5.1c0.2,1.6,0.3,3.3,0.3,5.1c0.2,1.6,0.4,3.3,0.6,5.1c0,1.6,0.1,3.3,0.3,5.1c0.2,1.8,0.4,3.6,0.6,5.4
			c0,1.6,0.1,3.3,0.3,5.1c0.2,1.8,0.4,3.6,0.6,5.4c0,1.8,0.1,3.6,0.3,5.4c0.2,1.8,0.4,3.6,0.6,5.4c0,1.8,0.1,3.6,0.3,5.4
			c0.2,1.8,0.3,3.6,0.3,5.4c0.2,1.8,0.4,3.6,0.6,5.4c0.2,1.8,0.3,3.7,0.3,5.7c0.2,1.8,0.4,3.6,0.6,5.4c0,1.8,0.1,3.6,0.3,5.4
			c0.2,1.8,0.3,3.7,0.3,5.7c0.2,1.8,0.4,3.6,0.6,5.4c0,1.8,0.1,3.6,0.3,5.4c0.2,1.8,0.3,3.6,0.3,5.4c0.2,1.8,0.4,3.7,0.6,5.7
			c0,1.8,0.1,3.6,0.3,5.4c0,1.8,0.1,3.6,0.3,5.4c0.2,1.6,0.3,3.3,0.3,5.1c0.2,1.8,0.3,3.6,0.3,5.4c0.2,1.8,0.4,3.6,0.6,5.4
			c0,1.6,0.1,3.3,0.3,5.1c0,1.8,0.1,3.5,0.3,5.1c0,1.8,0.1,3.5,0.3,5.1c0,1.8,0.1,3.5,0.3,5.1c0,1.6,0.1,3.3,0.3,5.1
			c0,1.6,0.1,3.2,0.3,4.8c0,1.6,0.1,3.2,0.3,4.8c0,1.6,0.1,3.2,0.3,4.8c0,1.6,0.1,3.1,0.3,4.5c0,1.6,0,3.2,0,4.8
			c0.2,1.4,0.3,2.8,0.3,4.2c0.2,1.6,0.3,3.1,0.3,4.5s0.1,2.8,0.3,4.2c0,1.4,0,2.8,0,4.2c0.2,1.2,0.3,2.5,0.3,3.9c0,1.4,0,2.7,0,3.9
			c0.2,1.2,0.3,2.4,0.3,3.6c0,1.4,0,2.7,0,3.9c0.2,1,0.3,2.1,0.3,3.3s0,2.3,0,3.3c0,1,0.1,2.1,0.3,3.3c0,1,0,2,0,3c0,1,0,1.9,0,2.7
			c0,1,0,1.9,0,2.7c0,1,0,1.9,0,2.7c0,0.8,0,1.6,0,2.4c0,0.6,0,1.3,0,2.1c0,0.6,0,1.3,0,2.1c0,0.6,0,1.2,0,1.8c0,0.4,0,0.9,0,1.5
			c0,0.4-0.1,0.9-0.3,1.5c0,0.4,0,0.8,0,1.2c0,0.2,0,0.5,0,0.9c0,0.2-0.1,0.5-0.3,0.9c0,0.2,0,0.4,0,0.6c-0.2,0-0.3,0.1-0.3,0.3
			c-0.2,0.2-0.5,0.4-0.9,0.6c-0.6,0.2-1.2,0.4-1.8,0.6c-0.6,0.4-1.3,0.7-2.1,0.9c-0.8,0.2-1.7,0.4-2.7,0.6c-1,0.2-2,0.4-3,0.6
			c-1.2,0.2-2.5,0.4-3.9,0.6c-1.2,0-2.5,0.1-3.9,0.3c-1.4,0.2-2.8,0.4-4.2,0.6c-1.6,0.2-3.2,0.3-4.8,0.3c-1.6,0.2-3.2,0.4-4.8,0.6
			c-1.8,0-3.5,0.1-5.1,0.3c-1.8,0-3.6,0.1-5.4,0.3c-1.6,0-3.3,0-5.1,0c-1.8,0.2-3.6,0.3-5.4,0.3c-1.8,0-3.6,0-5.4,0
			c-1.8,0.2-3.6,0.3-5.4,0.3c-1.8,0-56.2,0.1-58.5-5.5c-2.3-5.5-5.4-119.2-5.4-119.2c-0.7-2.2-2.8-2-3.3-0.1c0,0,0.3,115.8-2,118.8
			c-2.4,3-55.3,4.5-56.9,4.5c-1.8,0.2-3.6,0.3-5.4,0.3c-1.6,0-3.3,0-5.1,0c-1.8,0-3.6,0-5.4,0c-1.8,0-3.6-0.1-5.4-0.3
			c-1.8,0-3.6,0-5.4,0s-3.5-0.1-5.1-0.3c-1.8,0-3.5,0-5.1,0c-1.8-0.2-3.5-0.3-5.1-0.3c-1.6-0.2-3.1-0.3-4.5-0.3
			c-1.6-0.2-3.1-0.4-4.5-0.6c-1.4,0-2.8-0.1-4.2-0.3c-1.2-0.2-2.4-0.4-3.6-0.6c-1-0.2-2.1-0.4-3.3-0.6c-0.8,0-1.7-0.2-2.7-0.6
			c-0.8,0-1.5-0.2-2.1-0.6c-0.6-0.2-1.2-0.4-1.8-0.6c-0.4-0.2-0.8-0.4-1.2-0.6v-0.3c-0.2-0.2-0.3-0.4-0.3-0.6c0-0.4-0.1-0.7-0.3-0.9
			c0-0.4,0-0.7,0-0.9c0-0.4-0.1-0.8-0.3-1.2c0-0.6,0-1.1,0-1.5c0-0.6-0.1-1.1-0.3-1.5c0-0.6,0-1.2,0-1.8c0-0.8,0-1.5,0-2.1
			c0-0.8-0.1-1.5-0.3-2.1c0-0.8,0-1.6,0-2.4c0-0.8,0-1.6,0-2.4c0-1,0-1.9,0-2.7c0-1,0-2,0-3c0-1,0-2,0-3c0-1,0-2.1,0-3.3
			c0-1,0-2.1,0-3.3c0-1,0-2.1,0-3.3c0-1.2,0-2.4,0-3.6c0-1.2,0-2.5,0-3.9c0-1.2,0-2.4,0-3.6c0-1.4,0.1-2.8,0.3-4.2
			c0-1.4,0-2.7,0-3.9c0-1.4,0-2.9,0-4.5c0-1.4,0.1-2.8,0.3-4.2c0-1.4,0-2.9,0-4.5c0-1.4,0-2.9,0-4.5c0.2-1.6,0.3-3.1,0.3-4.5
			c0-1.6,0-3.2,0-4.8c0.2-1.6,0.3-3.2,0.3-4.8c0-1.6,0-3.2,0-4.8c0.2-1.8,0.3-3.5,0.3-5.1c0-1.6,0.1-3.3,0.3-5.1c0-1.6,0-3.3,0-5.1
			c0.2-1.6,0.3-3.3,0.3-5.1c0-1.6,0.1-3.3,0.3-5.1c0-1.8,0-3.6,0-5.4c0.2-1.6,0.3-3.3,0.3-5.1c0-1.8,0.1-3.6,0.3-5.4
			c0-1.8,0.1-3.6,0.3-5.4c0-1.8,0.1-3.6,0.3-5.4c0-1.8,0-3.6,0-5.4c0.2-1.8,0.3-3.6,0.3-5.4c0.2-1.8,0.3-3.7,0.3-5.7
			c0.2-1.8,0.3-3.6,0.3-5.4c0.2-1.8,0.3-3.6,0.3-5.4c0.2-1.8,0.3-3.6,0.3-5.4c0.2-2,0.3-3.9,0.3-5.7c0.2-1.8,0.3-3.6,0.3-5.4
			c0.2-1.8,0.3-3.6,0.3-5.4c0.2-1.8,0.3-3.6,0.3-5.4c0.2-1.8,0.3-3.6,0.3-5.4c0.2-1.8,0.3-3.6,0.3-5.4c0.2-1.8,0.4-3.6,0.6-5.4
			c0-1.8,0.1-3.6,0.3-5.4c0-1.6,0.1-3.3,0.3-5.1c0-1.8,0.1-3.6,0.3-5.4c0.2-1.6,0.3-3.3,0.3-5.1c0.2-1.6,0.3-3.3,0.3-5.1
			c0.2-1.6,0.3-3.3,0.3-5.1c0.2-1.6,0.4-3.2,0.6-4.8c0-1.6,0.1-3.3,0.3-5.1c0.2-1.6,0.3-3.2,0.3-4.8c0.2-1.4,0.3-2.9,0.3-4.5
			c0.2-1.6,0.4-3.2,0.6-4.8c0-1.4,0.1-2.9,0.3-4.5c0-1.4,0.1-2.9,0.3-4.5c0.2-1.4,0.3-2.8,0.3-4.2c0.2-1.4,0.4-2.8,0.6-4.2
			c0-1.4,0.1-2.8,0.3-4.2c0.2-1.4,0.3-2.8,0.3-4.2c0.2-1.2,0.4-2.4,0.6-3.6c0-1.4,0.1-2.7,0.3-3.9c0-1.2,0.1-2.4,0.3-3.6
			c0.2-1.2,0.3-2.4,0.3-3.6c0.2-1,0.4-2.1,0.6-3.3c0-1,0.1-2,0.3-3c0.2-1.2,0.3-2.3,0.3-3.3c0.2-0.8,0.4-1.7,0.6-2.7
			c0-1,0.1-1.9,0.3-2.7c0.2-0.8,0.3-1.7,0.3-2.7c0.2-0.8,0.3-1.6,0.3-2.4c0.2-0.6,0.4-1.3,0.6-2.1c0-0.6,0.1-1.3,0.3-2.1
			c0.2-0.6,0.3-1.2,0.3-1.8c0.2-0.4,0.4-0.9,0.6-1.5c0-0.6,0.1-1.1,0.3-1.5c0-0.4,0.1-0.8,0.3-1.2c0.2-0.4,0.3-0.8,0.3-1.2
			c0.2-0.2,0.4-0.4,0.6-0.6c0-0.2,0.1-0.4,0.3-0.6c0-0.2,0.1-0.3,0.3-0.3c0.6-0.4,1.2-0.8,1.8-1.2c0.8-0.2,1.6-0.5,2.4-0.9
			c1-0.2,1.9-0.4,2.7-0.6c1.2-0.4,2.3-0.7,3.3-0.9c1.4-0.2,2.7-0.4,3.9-0.6c1.4,0,2.7-0.1,3.9-0.3c1.6-0.2,3.1-0.4,4.5-0.6
			c1.6,0,3.1-0.1,4.5-0.3c1.6,0,3.2,0,4.8,0c1.8-0.2,3.5-0.3,5.1-0.3c1.6,0,3.2,0,4.8,0c1.8,0,3.5,0,5.1,0
			c53.8-1.5,55.8,8.1,55.8,8.1s4,114.4,5.5,147.5C400.8,343.5,403.8,343.8,403.8,340.7z"/>
		<path fill="#FFFFFF" d="M406.2,357.1c1.5-0.2,3-0.3,4.5-0.5c1.3-0.3,2.6-0.5,3.8-0.5c1,0,1.6-0.1,1.8-0.3c0.2-1.5,0.2-3.1,0-4.8
			c-0.3-1.7-0.4-3.3-0.2-4.8c0-1.7,0-3.3,0-4.8c0-1.7,0-3.3,0-4.8c0.2-1.5,0.2-3.1,0.2-4.8c0-1.5,0-3,0-4.5s0-3,0-4.5
			c0-1.7,0-3.3,0-4.8s0-3,0-4.5c0-1.5,0-2.9,0-4.3c0-1.5,0-3,0-4.5s0.1-2.9,0.3-4.3c0-1.5,0-2.9,0-4.3c0-1.5,0-2.9,0-4.3
			c0-1.3,0-2.8,0-4.3c0.2-1.3,0.2-2.7,0.2-4c0-1.3,0-2.6,0-3.8c0-1.3,0.1-2.7,0.3-4c0-1.2,0-2.4,0-3.8c0-1.2,0.1-2.4,0.2-3.8
			c0-1.2,0-2.4,0-3.5s0.1-2.4,0.3-3.5c0-1,0-2.1,0-3.3c0-1,0.1-2.1,0.2-3.3c0-1,0-2,0-3c0.2-1,0.3-2,0.3-3c0-1,0.1-2,0.2-3
			c0-0.8,0-1.7,0-2.5c0.2-1,0.3-1.9,0.3-2.8c0.2-0.8,0.2-1.6,0.2-2.3c0-0.8,0.1-1.6,0.3-2.3c0-0.8,0.1-1.6,0.2-2.3
			c0-0.7,0.1-1.3,0.3-2c0-0.5,0.1-1.1,0.2-1.8c0-0.5,0.1-1.1,0.3-1.8c0-0.3,0.1-0.8,0.2-1.3c0-0.5,0.1-0.9,0.3-1.3
			c0-0.5,0.1-0.9,0.2-1.3c0-0.3,0.1-0.6,0.3-0.8c0-0.3,0.1-0.6,0.2-0.8c0-0.2,0.1-0.3,0.3-0.5c0.2-0.2,0.2-0.3,0.2-0.5
			c0.5-0.3,1.1-0.6,1.8-0.8c0.5-0.3,1.2-0.6,2-0.8c0.7-0.3,1.4-0.6,2.3-0.8c1-0.2,1.9-0.4,2.8-0.8c1.2-0.2,2.3-0.3,3.3-0.5
			c1.2-0.2,2.4-0.3,3.5-0.5c1.2,0,2.4-0.1,3.5-0.3c1.3-0.2,2.7-0.3,4-0.3c1.2-0.2,2.4-0.2,3.8-0.2c1.3,0,2.7,0,4,0
			c1.5-0.2,2.9-0.3,4.3-0.3c1.3,0,2.7,0.1,4,0.3c1.3,0,2.7,0,4,0c1.3,0,2.6,0.1,3.8,0.2c1.3,0,2.6,0.1,3.8,0.3
			c1.2,0.2,2.4,0.3,3.5,0.3c1,0.2,2.1,0.3,3.3,0.5c1,0.2,1.9,0.3,2.8,0.5c1,0.2,1.9,0.4,2.8,0.8c0.7,0.2,1.3,0.4,2,0.8
			c0.7,0.2,1.3,0.4,1.8,0.8c0.3,0.2,0.7,0.4,1,0.8l0.2,0.3c0.2,0.2,0.3,0.3,0.3,0.5c0.2,0.3,0.2,0.6,0.2,0.8c0.2,0.3,0.3,0.7,0.3,1
			c0.2,0.3,0.2,0.7,0.2,1c0.2,0.3,0.3,0.8,0.3,1.3c0.2,0.3,0.2,0.8,0.2,1.3c0.2,0.5,0.3,1,0.3,1.5c0.2,0.5,0.2,1.1,0.2,1.8
			c0.2,0.5,0.3,1.1,0.5,1.8c0,0.7,0.1,1.3,0.3,2c0,0.7,0.1,1.4,0.2,2.3c0.2,0.7,0.3,1.4,0.3,2.3c0.2,0.7,0.2,1.4,0.2,2.3
			c0.2,0.8,0.3,1.7,0.5,2.5c0,1,0.1,1.9,0.3,2.8c0.2,1,0.2,1.9,0.2,2.8c0.2,1,0.3,2,0.5,3c0,1,0.1,2,0.3,3c0.2,1,0.2,2.1,0.2,3.3
			c0.2,1,0.3,2.1,0.5,3.3c0.2,1,0.2,2.1,0.2,3.3c0.2,1.2,0.3,2.4,0.5,3.5c0,1.2,0.1,2.4,0.3,3.5c0.2,1.2,0.3,2.4,0.5,3.5
			c0,1.4,0.1,2.6,0.2,3.8c0.2,1.3,0.3,2.7,0.3,4c0.2,1.2,0.3,2.4,0.5,3.8c0.2,1.3,0.2,2.7,0.2,4c0.2,1.4,0.3,2.7,0.5,4
			c0.2,1.3,0.3,2.7,0.3,4c0.2,1.5,0.3,2.9,0.5,4.3c0.2,1.3,0.2,2.8,0.2,4.3c0.2,1.4,0.3,2.8,0.5,4.3c0,1.3,0.1,2.8,0.3,4.3
			c0.2,1.5,0.3,3,0.5,4.5c0,1.3,0.1,2.8,0.2,4.3c0.2,1.5,0.3,3,0.5,4.5c0,1.5,0.1,3,0.3,4.5c0.2,1.5,0.3,3,0.5,4.5
			c0,1.5,0.1,3,0.2,4.5c0.2,1.5,0.3,3,0.3,4.5c0.2,1.5,0.3,3,0.5,4.5c0.2,1.5,0.2,3.1,0.2,4.8c0.2,1.5,0.3,3,0.5,4.5
			c0,1.5,0.1,3,0.2,4.5c0.2,1.5,0.3,3.1,0.3,4.8c0.2,1.5,0.3,3,0.5,4.5c0,1.5,0.1,3,0.2,4.5c0.2,1.5,0.3,3,0.3,4.5
			c0.2,1.5,0.3,3.1,0.5,4.8c0,1.5,0.1,3,0.2,4.5c0,1.5,0.1,3,0.3,4.5c0.2,1.4,0.2,2.8,0.2,4.3c0.2,1.5,0.3,3,0.3,4.5
			c0.2,1.5,0.3,3,0.5,4.5c0,1.3,0.1,2.8,0.2,4.3c0,1.5,0.1,2.9,0.3,4.3c0,1.5,0.1,2.9,0.2,4.3c0,1.5,0.1,2.9,0.3,4.3
			c0,1.4,0.1,2.8,0.2,4.3c0,1.3,0.1,2.7,0.3,4c0,1.4,0.1,2.7,0.2,4c0,1.3,0.1,2.7,0.3,4c0,1.4,0.1,2.6,0.2,3.8c0,1.3,0,2.7,0,4
			c0.2,1.2,0.3,2.4,0.3,3.5c0.2,1.3,0.2,2.6,0.2,3.8s0.1,2.4,0.3,3.5c0,1.2,0,2.4,0,3.5c0.2,1,0.2,2.1,0.2,3.3c0,1.2,0,2.3,0,3.3
			c0.2,1,0.3,2,0.3,3c0,1.2,0,2.3,0,3.3c0.2,0.8,0.2,1.8,0.2,2.8c0,1,0,1.9,0,2.8c0,0.8,0.1,1.8,0.2,2.8c0,0.8,0,1.7,0,2.5
			c0,0.8,0,1.6,0,2.3c0,0.8,0,1.6,0,2.3c0,0.8,0,1.6,0,2.3c0,0.7,0,1.3,0,2c0,0.5,0,1.1,0,1.8c0,0.5,0,1.1,0,1.8c0,0.5,0,1,0,1.5
			c0,0.3,0,0.8,0,1.3c0,0.3-0.1,0.8-0.2,1.3c0,0.3,0,0.7,0,1c0,0.2,0,0.4,0,0.8c0,0.2-0.1,0.4-0.2,0.8c0,0.2,0,0.3,0,0.5
			c-0.2,0-0.3,0.1-0.3,0.3c-0.2,0.2-0.4,0.3-0.8,0.5c-0.5,0.2-1,0.3-1.5,0.5c-0.5,0.3-1.1,0.6-1.8,0.8c-0.7,0.2-1.4,0.3-2.3,0.5
			c-0.8,0.2-1.7,0.3-2.5,0.5c-1,0.2-2.1,0.3-3.3,0.5c-1,0-2.1,0.1-3.3,0.3c-1.2,0.2-2.4,0.3-3.5,0.5c-1.4,0.2-2.7,0.3-4,0.3
			c-1.4,0.2-2.7,0.3-4,0.5c-1.5,0-2.9,0.1-4.3,0.3c-1.5,0-3,0.1-4.5,0.3c-1.3,0-2.8,0-4.3,0c-1.5,0.2-3,0.3-4.5,0.3s-3,0-4.5,0
			c-1.5,0.2-3,0.3-4.5,0.3s-2.9,0-4.3,0c-1.5,0-2.9,0-4.3,0c-1.5,0-2.9-0.1-4.3-0.3c-1.4,0-2.6,0-3.8,0c-1.4,0-2.6-0.1-3.8-0.3
			c-1.2,0-2.4-0.1-3.5-0.3c-1,0-2-0.1-3-0.3c-0.8-0.2-1.8-0.3-2.8-0.3c-0.7-0.2-1.4-0.3-2.3-0.5c-0.7-0.2-1.3-0.3-1.8-0.5
			c-0.5-0.2-1-0.3-1.5-0.5c-0.3-0.2-0.7-0.3-1-0.5c0-0.2,0-0.3,0-0.5c-0.2-0.3-0.2-0.7-0.2-1c-0.2-0.5-0.3-1-0.3-1.5
			c-0.2-0.5-0.2-1.1-0.2-1.8c0-0.7-0.1-1.4-0.3-2.3c0-0.8-0.1-1.7-0.2-2.5c0-1,0-2,0-3c-0.2-1-0.3-2.1-0.3-3.3
			c-0.2-1.2-0.2-2.4-0.2-3.5c-0.2-1.2-0.3-2.4-0.3-3.8c0-1.3-0.1-2.7-0.2-4c0-1.3-0.1-2.8-0.3-4.3c0-1.3,0-2.8,0-4.3
			c-0.2-1.5-0.2-3-0.2-4.5c-0.2-1.5-0.3-3-0.3-4.5c0-1.5-0.1-3-0.2-4.5c0-1.7,0-3.3,0-4.8c-0.2-1.5-0.3-3.1-0.3-4.8
			c0-1.5-0.1-3-0.2-4.5c0-1.5,0-3.1,0-4.8c-0.2-1.5-0.3-3-0.3-4.5c0-1.3-0.1-2.8-0.2-4.3c0-1.5,0-2.9,0-4.3c0-1.5-0.1-2.9-0.3-4.3
			c0-1.2,0-2.4,0-3.8c0-1.3-0.1-2.6-0.2-3.8c0-1.2,0-2.4,0-3.5c0-1,0-2,0-3c-0.2-1-0.3-1.9-0.3-2.8c0-0.8,0-1.7,0-2.5
			c0-0.7,0-1.3,0-2c0-0.7-0.1-1.3-0.2-1.8c0.2-0.3,0.2-0.8,0-1.3c0-0.2,0-0.4,0-0.8v-0.3c-0.7-0.2-1.3-0.3-1.8-0.3
			c-1.5-0.2-3-0.4-4.5-0.8c-1.9-0.2-3.6-0.3-5.3-0.5c-1.4-0.2-2.6-0.3-3.8-0.3c-1.7,0.2-3.4,0.3-5,0.5c-1.5,0.2-3,0.3-4.5,0.5
			c-1,0.3-2.1,0.5-3.3,0.5c-0.8,0-1.3,0.1-1.3,0.3c-0.2,1.7-0.2,3.4,0,5c0.2,1.7,0.2,3.4,0,5c0,1.7,0,3.4,0,5c0,1.5,0,3.1,0,4.8
			c-0.2,1.5-0.2,3.1-0.2,4.8c0,1.5,0,3.1,0,4.8c0,1.5,0,3,0,4.5c0,1.5,0,3.1,0,4.8c-0.2,1.5-0.3,2.9-0.3,4.3c0,1.5,0,3,0,4.5
			c0,1.3,0,2.8,0,4.3c-0.2,1.4-0.2,2.8-0.2,4.3c0,1.3,0,2.7,0,4c0,1.4,0,2.7,0,4c-0.2,1.2-0.3,2.4-0.3,3.8c0,1.2,0,2.4,0,3.8
			c-0.2,1.2-0.2,2.4-0.2,3.5c0,1.2,0,2.3,0,3.3c0,1.2-0.1,2.3-0.3,3.3c0,1.2,0,2.3,0,3.3c0,1-0.1,2-0.2,3c0,0.8,0,1.8,0,2.8
			c0,0.8-0.1,1.7-0.3,2.5c0,0.8,0,1.7,0,2.5c-0.2,0.7-0.2,1.4-0.2,2.3c0,0.7-0.1,1.3-0.3,2c0,0.7,0,1.4,0,2c0,0.5-0.1,1-0.2,1.5
			c0,0.5,0,1,0,1.5c-0.2,0.5-0.3,0.9-0.3,1.3s-0.1,0.7-0.2,1c0,0.3,0,0.6,0,0.8c-0.2,0.3-0.3,0.6-0.3,0.8l-0.2,0.3
			c-0.2,0.2-0.4,0.3-0.8,0.5c-0.5,0.3-1,0.6-1.5,0.8c-0.5,0.2-1.1,0.3-1.8,0.5c-0.7,0.2-1.4,0.3-2.3,0.3c-0.8,0.2-1.7,0.3-2.5,0.5
			c-1,0.2-2.1,0.3-3.3,0.3c-1,0.2-2.1,0.3-3.3,0.5c-1.2,0-2.4,0.1-3.5,0.3c-1.4,0-2.7,0-4,0c-1.4,0.2-2.7,0.3-4,0.3
			c-1.5,0-2.9,0-4.3,0c-1.5,0.2-3,0.3-4.5,0.3c-1.4,0-2.8,0-4.3,0s-3,0-4.5,0s-3-0.1-4.5-0.3c-1.5,0-3,0-4.5,0s-2.9-0.1-4.3-0.3
			c-1.5,0-2.9,0-4.3,0c-1.5-0.2-2.9-0.3-4.3-0.3c-1.4-0.2-2.6-0.3-3.8-0.3c-1.4-0.2-2.6-0.3-3.8-0.5c-1.2,0-2.4-0.1-3.5-0.3
			c-1-0.2-2-0.3-3-0.5c-0.8-0.2-1.8-0.3-2.8-0.5c-0.7,0-1.4-0.2-2.3-0.5c-0.7,0-1.3-0.2-1.8-0.5c-0.5-0.2-1-0.3-1.5-0.5
			c-0.3-0.2-0.7-0.3-1-0.5v-0.3c-0.2-0.2-0.3-0.3-0.3-0.5c0-0.3-0.1-0.6-0.2-0.8c0-0.3,0-0.6,0-0.8c0-0.3-0.1-0.7-0.3-1
			c0-0.5,0-0.9,0-1.3c0-0.5-0.1-0.9-0.2-1.3c0-0.5,0-1,0-1.5c0-0.7,0-1.3,0-1.8c0-0.7-0.1-1.3-0.2-1.8c0-0.7,0-1.3,0-2
			c0-0.7,0-1.3,0-2c0-0.8,0-1.6,0-2.3c0-0.8,0-1.7,0-2.5c0-0.8,0-1.7,0-2.5c0-0.8,0-1.8,0-2.8c0-0.8,0-1.8,0-2.8c0-0.8,0-1.8,0-2.8
			c0-1,0-2,0-3c0-1,0-2.1,0-3.3c0-1,0-2,0-3c0-1.2,0.1-2.4,0.2-3.5c0-1.2,0-2.3,0-3.3c0-1.2,0-2.4,0-3.8c0-1.2,0.1-2.4,0.2-3.5
			c0-1.2,0-2.4,0-3.8c0-1.2,0-2.4,0-3.8c0.2-1.3,0.3-2.6,0.3-3.8c0-1.3,0-2.7,0-4c0.2-1.3,0.2-2.7,0.2-4c0-1.3,0-2.7,0-4
			c0.2-1.5,0.3-2.9,0.3-4.3c0-1.3,0.1-2.8,0.2-4.3c0-1.3,0-2.8,0-4.3c0.2-1.3,0.3-2.8,0.3-4.3c0-1.3,0.1-2.8,0.2-4.3
			c0-1.5,0-3,0-4.5c0.2-1.3,0.3-2.8,0.3-4.3c0-1.5,0.1-3,0.2-4.5c0-1.5,0.1-3,0.3-4.5c0-1.5,0.1-3,0.2-4.5c0-1.5,0-3,0-4.5
			c0.2-1.5,0.3-3,0.3-4.5c0.2-1.5,0.2-3.1,0.2-4.8c0.2-1.5,0.3-3,0.3-4.5c0.2-1.5,0.2-3,0.2-4.5c0.2-1.5,0.3-3,0.3-4.5
			c0.2-1.7,0.2-3.3,0.2-4.8c0.2-1.5,0.3-3,0.3-4.5c0.2-1.5,0.2-3,0.2-4.5c0.2-1.5,0.3-3,0.3-4.5c0.2-1.5,0.2-3,0.2-4.5
			c0.2-1.5,0.3-3,0.3-4.5c0.2-1.5,0.3-3,0.5-4.5c0-1.5,0.1-3,0.2-4.5c0-1.3,0.1-2.8,0.3-4.3c0-1.5,0.1-3,0.2-4.5
			c0.2-1.3,0.3-2.8,0.3-4.3c0.2-1.3,0.2-2.8,0.2-4.3c0.2-1.3,0.3-2.8,0.3-4.3c0.2-1.3,0.3-2.7,0.5-4c0-1.3,0.1-2.8,0.2-4.3
			c0.2-1.3,0.2-2.7,0.2-4c0.2-1.2,0.3-2.4,0.3-3.8c0.2-1.3,0.3-2.7,0.5-4c0-1.2,0.1-2.4,0.2-3.8c0-1.2,0.1-2.4,0.3-3.8
			c0.2-1.2,0.2-2.4,0.2-3.5c0.2-1.2,0.3-2.4,0.5-3.5c0-1.2,0.1-2.4,0.3-3.5c0.2-1.2,0.2-2.4,0.2-3.5c0.2-1,0.3-2,0.5-3
			c0-1.2,0.1-2.3,0.3-3.3c0-1,0.1-2,0.2-3c0.2-1,0.3-2,0.3-3c0.2-0.8,0.3-1.8,0.5-2.8c0-0.8,0.1-1.7,0.2-2.5c0.2-1,0.3-1.9,0.3-2.8
			c0.2-0.7,0.3-1.4,0.5-2.3c0-0.8,0.1-1.6,0.2-2.3c0.2-0.7,0.3-1.4,0.3-2.3c0.2-0.7,0.2-1.3,0.2-2c0.2-0.5,0.3-1.1,0.5-1.8
			c0-0.5,0.1-1.1,0.3-1.8c0.2-0.5,0.2-1,0.2-1.5c0.2-0.3,0.3-0.8,0.5-1.3c0-0.5,0.1-0.9,0.2-1.3c0-0.3,0.1-0.7,0.3-1
			c0.2-0.3,0.2-0.7,0.2-1c0.2-0.2,0.3-0.3,0.5-0.5c0-0.2,0.1-0.3,0.3-0.5c0-0.2,0.1-0.3,0.2-0.3c0.5-0.3,1-0.7,1.5-1
			c0.7-0.2,1.3-0.4,2-0.8c0.8-0.2,1.6-0.3,2.3-0.5c1-0.3,1.9-0.6,2.8-0.8c1.2-0.2,2.3-0.3,3.3-0.5c1.2,0,2.3-0.1,3.3-0.3
			c1.4-0.2,2.6-0.3,3.8-0.5c1.3,0,2.6-0.1,3.8-0.3c1.3,0,2.7,0,4,0c1.5-0.2,2.9-0.3,4.3-0.3c1.3,0,2.7,0,4,0c1.5,0,2.9,0,4.3,0
			c1.3,0.2,2.7,0.3,4,0.3c1.5,0,2.9,0.1,4.3,0.3c1.2,0,2.4,0.1,3.8,0.3c1.3,0.2,2.6,0.3,3.8,0.3c1.2,0.2,2.3,0.3,3.5,0.5
			c1,0.2,2.1,0.3,3.3,0.5c1,0.2,1.9,0.3,2.8,0.5c0.8,0.2,1.7,0.4,2.5,0.8c0.8,0.2,1.6,0.3,2.3,0.5c0.5,0.3,1,0.7,1.5,1
			c0.5,0.2,0.9,0.4,1.3,0.8c0,0.2,0.1,0.3,0.3,0.5c0,0.2,0,0.4,0,0.8c0.2,0.3,0.2,0.8,0.2,1.3c0.2,0.5,0.3,1,0.3,1.5
			c0.2,0.7,0.2,1.4,0.2,2c0,0.8,0.1,1.6,0.3,2.3c0,0.8,0,1.7,0,2.5c0.2,1,0.2,2,0.2,3c0,1,0.1,2,0.3,3c0,1.2,0.1,2.4,0.2,3.5
			c0,1.2,0,2.4,0,3.5c0.2,1.3,0.3,2.6,0.3,3.8c0,1.4,0,2.7,0,4c0.2,1.3,0.2,2.7,0.2,4c0,1.5,0.1,2.9,0.3,4.3c0,1.5,0,3,0,4.5
			s0.1,3,0.2,4.5c0,1.5,0,3,0,4.5c0.2,1.5,0.3,3.1,0.3,4.8c0,1.5,0,3,0,4.5c0.2,1.5,0.2,3.1,0.2,4.8c0,1.5,0,3,0,4.5
			c0,1.7,0.1,3.3,0.3,4.8c0,1.5,0,3,0,4.5c0,1.5,0,3,0,4.5c0.2,1.5,0.2,3,0.2,4.5c0,1.5,0,2.9,0,4.3c0,1.5,0,2.9,0,4.3
			c0.2,1.3,0.3,2.7,0.3,4c0,1.3,0,2.7,0,4c0,1.2,0,2.4,0,3.5c0,1.2,0,2.4,0,3.5c0.2,1.2,0.2,2.3,0.2,3.3c0,1,0,2,0,3
			c0,1,0,1.9,0,2.8c0,0.8,0,1.7,0,2.5c0,0.7,0,1.4,0,2c0,0.7,0,1.3,0,1.8c0,0.5,0,1,0,1.5c0,0.3,0.1,0.7,0.3,1c0,0.2,0,0.3,0,0.5
			c-0.2,0.2-0.2,0.3,0,0.3c0.3,0.2,0.8,0.3,1.3,0.3c1.3,0,2.6,0.1,3.8,0.3c1.7,0,3.3,0.1,4.8,0.3c1.7,0.2,3.4,0.3,5,0.3
			C403.5,357.2,404.8,357.1,406.2,357.1z"/>
	</g>
	<g>
		<g>
			<g>
				<path d="M737.3,472c-0.2,1-0.4,2.1-0.6,3.3c-0.2,1-0.5,2-0.9,3c-0.4,1.2-0.8,2.3-1.2,3.4c-0.6,1.2-1.1,2.3-1.5,3.3
					c-0.6,1-1.2,2-1.8,3c-0.6,1.2-1.2,2.3-1.8,3.3c-0.8,1-1.6,2-2.4,3c-0.6,1-1.3,2.1-2.1,3.3c-0.8,1-1.7,2-2.7,3
					c-0.8,1-1.7,1.9-2.7,2.7c-1,1-1.9,2-2.7,3c-1,1-2.1,1.9-3.3,2.7c-1,1-2,1.9-3,2.7c-1.2,1-2.3,1.9-3.3,2.7
					c-1.2,0.8-2.4,1.6-3.6,2.4c-1.2,1-2.4,1.8-3.6,2.4c-1.2,0.8-2.4,1.6-3.6,2.4c-1.2,0.8-2.4,1.5-3.6,2.1c-1.4,0.8-2.7,1.5-3.9,2.1
					c-1.4,0.8-2.7,1.5-3.9,2.2c-1.4,0.6-2.7,1.2-3.9,1.8c-1.4,0.4-2.8,0.9-4.2,1.5c-1.4,0.6-2.7,1.1-3.9,1.5
					c-1.4,0.4-2.8,0.8-4.2,1.2c-1.4,0.4-2.8,0.8-4.2,1.2c-1.4,0.4-2.7,0.7-3.9,0.9c-1.4,0.4-2.8,0.7-4.2,0.9
					c-1.4,0.2-2.8,0.4-4.2,0.6c-1.4,0.2-2.7,0.3-3.9,0.3c-1.8,0.2-3.6,0.3-5.4,0.3c-1.6,0-3.2,0.1-4.8,0.3c-1.8,0-3.5,0-5.1,0
					s-3.2-0.1-4.8-0.3c-1.6,0-3.2,0-4.8,0c-1.6-0.2-3.1-0.3-4.5-0.3c-1.6-0.2-3.2-0.4-4.8-0.6c-1.4-0.2-2.8-0.4-4.2-0.6
					c-1.6-0.2-3.1-0.4-4.5-0.6c-1.4-0.2-2.8-0.5-4.2-0.9c-1.4-0.2-2.8-0.5-4.2-0.9c-1.4-0.2-2.7-0.5-3.9-0.9
					c-1.4-0.4-2.7-0.8-3.9-1.2c-1.4-0.4-2.7-0.8-3.9-1.2c-1.2-0.4-2.5-0.9-3.9-1.5c-1.2-0.4-2.4-0.9-3.6-1.5c-1-0.4-2.1-0.9-3.3-1.5
					c-1.2-0.6-2.4-1.1-3.6-1.5c-1-0.6-2.1-1.2-3.3-1.8c-1-0.8-2-1.5-3-2.1c-1.2-0.6-2.3-1.3-3.3-2.1c-1-0.6-2-1.3-3-2.2
					c-0.8-0.6-1.7-1.3-2.7-2.1c-1-0.8-1.9-1.6-2.7-2.4c-1-0.8-1.9-1.6-2.7-2.4c-1-0.8-1.9-1.6-2.7-2.4c-0.8-1-1.6-1.9-2.4-2.7
					c-0.8-1-1.6-1.9-2.4-2.7c-0.8-1-1.6-2-2.4-3c-0.6-0.8-1.3-1.7-2.1-2.7c-0.6-1-1.3-2-2.1-3c-0.6-1.2-1.2-2.3-1.8-3.3
					c-0.6-1-1.2-2.1-1.8-3.3c-0.6-1-1.2-2-1.8-3c-0.6-1.2-1.1-2.4-1.5-3.7c-0.6-1.2-1.1-2.3-1.5-3.3c-0.6-1.2-1.1-2.4-1.5-3.7
					c-0.4-1.2-0.8-2.4-1.2-3.6c-0.4-1.4-0.8-2.7-1.2-4c-0.4-1.2-0.8-2.5-1.2-4c-0.4-1.2-0.7-2.5-0.9-4c-0.4-1.2-0.7-2.5-0.9-4
					c-0.2-1.4-0.5-2.8-0.9-4.3c-0.2-1.2-0.4-2.5-0.6-4s-0.3-2.7-0.3-4c-0.2-1.4-0.3-2.8-0.3-4.3c-0.2-1.2-0.3-2.5-0.3-4s0-2.7,0-4
					c0-1.4,0.1-2.7,0.3-4c0-1.4,0.1-2.7,0.3-4c0-1.4,0.1-2.7,0.3-4c0.2-1.4,0.4-2.7,0.6-3.9c0.2-1.4,0.4-2.7,0.6-4
					c0.4-1.2,0.7-2.4,0.9-3.7c0.4-1.4,0.7-2.7,0.9-4c0.4-1.2,0.8-2.4,1.2-3.6c0.4-1.2,0.8-2.4,1.2-3.7c0.4-1.2,0.9-2.4,1.5-3.6
					c0.4-1.2,0.9-2.4,1.5-3.7c0.4-1.2,0.9-2.3,1.5-3.3c0.6-1.2,1.2-2.4,1.8-3.7c0.6-1,1.2-2.1,1.8-3.3c0.6-1.2,1.3-2.3,2.1-3.4
					c0.6-1,1.3-2.1,2.1-3.3c0.6-1,1.3-2,2.1-3c0.8-1,1.6-2,2.4-3c0.8-1,1.6-2,2.4-3c0.8-1,1.6-2,2.4-3c0.8-1,1.7-2,2.7-3
					c0.8-0.8,1.7-1.7,2.7-2.7c1-0.8,1.9-1.6,2.7-2.4c1-1,2-1.9,3-2.7c1-0.8,2-1.6,3-2.4c1-0.8,2.1-1.6,3.3-2.4c1-0.8,2-1.6,3-2.4
					c1.2-0.6,2.3-1.3,3.3-2.1c1.2-0.6,2.3-1.3,3.3-2.1c1.2-0.6,2.4-1.2,3.6-1.8c1.2-0.6,2.4-1.2,3.6-1.8c1.2-0.6,2.4-1.2,3.6-1.8
					c1.2-0.6,2.4-1.1,3.6-1.5c1.2-0.6,2.4-1.1,3.6-1.5c1.4-0.6,2.7-1.1,3.9-1.5c1.4-0.4,2.7-0.8,3.9-1.2c1.4-0.4,2.7-0.7,3.9-0.9
					c1.4-0.4,2.8-0.8,4.2-1.2c1.4-0.2,2.8-0.4,4.2-0.6c1.8-0.4,3.6-0.7,5.4-0.9c1.8-0.4,3.7-0.7,5.7-0.9c1.6-0.2,3.3-0.3,5.1-0.3
					c1.8-0.2,3.6-0.3,5.4-0.3c1.6,0,3.3,0,5.1,0c1.6,0,3.2,0,4.8,0c1.6,0,3.2,0.1,4.8,0.3c1.6,0.2,3.2,0.4,4.8,0.6
					c1.6,0.2,3.1,0.4,4.5,0.6c1.6,0.2,3.1,0.5,4.5,0.9c1.4,0.4,2.9,0.7,4.5,0.9c1.4,0.4,2.8,0.8,4.2,1.2c1.2,0.4,2.5,0.9,3.9,1.5
					c1.4,0.4,2.7,0.9,3.9,1.5c1.4,0.4,2.7,0.9,3.9,1.5c1.2,0.6,2.4,1.2,3.6,1.8c1.2,0.6,2.4,1.2,3.6,1.8c1.2,0.6,2.4,1.3,3.6,2.1
					c1.2,0.6,2.3,1.3,3.3,2.1c1.2,0.6,2.3,1.3,3.3,2.1c1,0.8,2,1.6,3,2.4c1,0.8,2,1.6,3,2.4c1,0.8,2,1.6,3,2.4
					c0.8,0.8,1.7,1.6,2.7,2.4c0.8,1,1.7,1.9,2.7,2.7c0.8,1,1.6,1.9,2.4,2.7c0.8,1,1.6,1.9,2.4,2.7c0.8,1,1.6,2,2.4,3
					c0.8,0.8,1.5,1.7,2.1,2.7c0.8,1,1.5,2,2.1,3c0.8,1,1.5,1.9,2.1,2.7c0.6,1,1.2,2,1.8,3c0.6,1,1.2,2,1.8,3c0.6,1,1.2,2,1.8,3
					c0.4,1,0.9,2,1.5,3c0.4,1,0.8,2,1.2,3c0.6,1,1.1,2,1.5,3c0.4,1,0.8,2,1.2,3c0.4,0.8,0.8,1.7,1.2,2.7c0.4,1,0.7,2,0.9,3
					c0.4,1,0.7,2,0.9,3c0.4,0.8,0.7,1.7,0.9,2.7c0.2,1,0.4,1.9,0.6,2.7c0.4,1,0.7,1.9,0.9,2.7c0,1,0.1,1.9,0.3,2.7
					c0.2,1,0.4,1.9,0.6,2.7c0,0.8,0.1,1.6,0.3,2.4c0,0.8,0.1,1.6,0.3,2.4c0,0.8,0,1.6,0,2.4c0,0.8,0,1.6,0,2.4c0,0.6,0,1.3,0,2.1
					c0,0.6,0,1.3,0,2.2c-0.2,0.6-0.3,1.2-0.3,1.8c-0.2,0.6-0.3,1.2-0.3,1.8c-0.2,0.6-0.4,1.2-0.6,1.8c0,0.6-0.1,1.1-0.3,1.5
					c-0.2,0.6-0.4,1.1-0.6,1.5c-0.2,0.4-5,8.3-5,8.3s-48.5,13.1-74.6,14.6s-46.7-0.6-47.9-0.8c-1.4-0.4-2.5,6.1,11.1,8.6
					c13.6,2.5,17.6-9.1,17.6-9.1s17-4,38.4-3.9c11.4-0.9,28.5,0.1,30.1-0.2c1.6,0,21.8,1,24.6,3.9c2.7,2.9-0.2,15.2,0,15.4
					C737.5,471.3,737.5,471.6,737.3,472z"/>
			</g>
		</g>
		<path fill="#FFFFFF" d="M711.8,465.1c-0.2,0.8-0.4,1.6-0.7,2.4c-0.3,1-0.6,1.9-1,2.7c-0.5,1-0.9,1.9-1.2,2.7
			c-0.5,0.8-1,1.6-1.5,2.4c-0.5,1-1,1.9-1.5,2.7c-0.7,0.8-1.3,1.6-1.9,2.4c-0.5,0.8-1.1,1.7-1.7,2.7c-0.7,0.8-1.4,1.6-2.2,2.4
			c-0.6,0.8-1.4,1.5-2.2,2.2c-0.8,0.8-1.5,1.6-2.2,2.4c-0.8,0.8-1.7,1.5-2.7,2.2c-0.8,0.8-1.6,1.5-2.4,2.2c-1,0.8-1.9,1.5-2.7,2.2
			c-1,0.7-1.9,1.3-2.9,1.9c-1,0.8-2,1.5-2.9,2c-1,0.6-1.9,1.3-2.9,1.9c-1,0.7-2,1.2-2.9,1.7c-1.1,0.7-2.2,1.2-3.2,1.7
			c-1.1,0.7-2.2,1.2-3.2,1.7c-1.2,0.5-2.2,1-3.2,1.5c-1.1,0.3-2.3,0.7-3.4,1.2c-1.2,0.5-2.2,0.9-3.2,1.2c-1.1,0.3-2.3,0.6-3.4,1
			c-1.1,0.3-2.3,0.7-3.4,1s-2.2,0.6-3.2,0.7c-1.1,0.3-2.3,0.6-3.4,0.7c-1.1,0.2-2.3,0.3-3.4,0.5c-1.1,0.2-2.2,0.2-3.2,0.2
			c-1.5,0.2-2.9,0.3-4.4,0.3c-1.3,0-2.6,0.1-3.9,0.2c-1.5,0-2.9,0-4.1,0c-1.3,0-2.6-0.1-3.9-0.2c-1.3,0-2.6,0-3.9,0
			c-1.3-0.2-2.5-0.3-3.7-0.3c-1.3-0.2-2.6-0.3-3.9-0.5c-1.2-0.2-2.3-0.3-3.4-0.5c-1.3-0.2-2.5-0.3-3.7-0.5c-1.1-0.2-2.3-0.4-3.4-0.7
			c-1.1-0.2-2.3-0.4-3.4-0.7c-1.1-0.2-2.2-0.4-3.2-0.7c-1.2-0.3-2.2-0.7-3.2-1c-1.2-0.3-2.2-0.7-3.2-1c-1-0.3-2-0.7-3.2-1.2
			c-1-0.3-1.9-0.7-2.9-1.2c-0.8-0.3-1.7-0.7-2.7-1.2c-1-0.5-2-0.9-2.9-1.2c-0.8-0.5-1.7-1-2.7-1.5c-0.8-0.6-1.6-1.2-2.4-1.7
			c-1-0.5-1.9-1.1-2.7-1.7c-0.8-0.5-1.6-1.1-2.4-1.7c-0.7-0.5-1.4-1.1-2.2-1.7c-0.8-0.6-1.5-1.3-2.2-1.9c-0.8-0.7-1.5-1.3-2.2-1.9
			c-0.8-0.7-1.5-1.3-2.2-2c-0.7-0.8-1.3-1.5-2-2.2c-0.6-0.8-1.3-1.5-1.9-2.2c-0.7-0.8-1.3-1.6-1.9-2.4c-0.5-0.6-1.1-1.4-1.7-2.2
			c-0.5-0.8-1.1-1.6-1.7-2.4c-0.5-1-1-1.9-1.5-2.7c-0.5-0.8-1-1.7-1.5-2.7c-0.5-0.8-1-1.6-1.4-2.4c-0.5-1-0.9-2-1.2-2.9
			c-0.5-1-0.9-1.9-1.2-2.7c-0.5-1-0.9-1.9-1.2-2.9c-0.3-1-0.7-2-1-2.9c-0.3-1.1-0.7-2.2-1-3.2c-0.3-1-0.7-2-1-3.2
			c-0.3-1-0.6-2-0.7-3.2c-0.3-1-0.6-2-0.7-3.2c-0.2-1.1-0.4-2.3-0.7-3.4c-0.2-1-0.3-2-0.5-3.2c-0.2-1.1-0.3-2.2-0.3-3.2
			c-0.2-1.2-0.2-2.3-0.2-3.4c-0.2-1-0.2-2-0.2-3.2c0-1.1,0-2.2,0-3.2c0-1.1,0.1-2.2,0.2-3.2c0-1.1,0.1-2.2,0.2-3.2
			c0-1.2,0.1-2.2,0.3-3.2c0.2-1.1,0.3-2.2,0.5-3.2c0.2-1.1,0.3-2.2,0.5-3.2c0.3-1,0.6-1.9,0.7-2.9c0.3-1.1,0.6-2.2,0.7-3.2
			c0.3-1,0.6-1.9,1-2.9c0.3-1,0.6-2,1-2.9c0.3-1,0.7-1.9,1.2-2.9c0.3-1,0.7-2,1.2-2.9c0.3-1,0.7-1.9,1.2-2.7c0.5-1,1-1.9,1.5-2.9
			c0.5-0.8,1-1.7,1.5-2.7c0.5-1,1.1-1.9,1.7-2.7c0.5-0.8,1.1-1.7,1.7-2.7c0.5-0.8,1.1-1.6,1.7-2.4c0.6-0.8,1.3-1.6,1.9-2.4
			c0.7-0.8,1.3-1.6,1.9-2.4c0.7-0.8,1.3-1.6,2-2.4c0.6-0.8,1.4-1.6,2.2-2.4c0.7-0.7,1.4-1.4,2.2-2.2c0.8-0.6,1.5-1.3,2.2-1.9
			c0.8-0.8,1.6-1.5,2.4-2.2c0.8-0.6,1.6-1.3,2.4-1.9c0.8-0.7,1.7-1.3,2.7-1.9c0.8-0.7,1.6-1.3,2.4-2c1-0.5,1.9-1.1,2.7-1.7
			c1-0.5,1.9-1.1,2.7-1.7c1-0.5,1.9-1,2.9-1.4c1-0.5,1.9-1,2.9-1.5c1-0.5,2-1,2.9-1.5c1-0.5,1.9-0.9,2.9-1.2c1-0.5,2-0.9,2.9-1.2
			c1.1-0.5,2.2-0.9,3.2-1.2c1.1-0.3,2.2-0.7,3.2-1c1.2-0.3,2.2-0.6,3.2-0.7c1.1-0.3,2.3-0.7,3.4-1c1.1-0.2,2.3-0.3,3.4-0.5
			c1.5-0.3,2.9-0.6,4.4-0.7c1.5-0.3,3-0.6,4.6-0.7c1.3-0.2,2.7-0.2,4.1-0.2c1.4-0.2,2.9-0.2,4.4-0.2c1.3,0,2.7,0,4.1,0
			c1.3,0,2.6,0,3.9,0c1.3,0,2.6,0.1,3.9,0.2c1.3,0.2,2.6,0.3,3.9,0.5c1.3,0.2,2.5,0.3,3.7,0.5c1.3,0.2,2.5,0.4,3.7,0.7
			c1.1,0.3,2.4,0.6,3.7,0.7c1.1,0.3,2.3,0.7,3.4,1c1,0.3,2,0.7,3.2,1.2c1.2,0.3,2.2,0.7,3.2,1.2c1.1,0.3,2.2,0.7,3.2,1.2
			c1,0.5,1.9,1,2.9,1.5c1,0.5,2,1,2.9,1.5c1,0.5,1.9,1.1,2.9,1.7c1,0.5,1.9,1.1,2.7,1.7c1,0.5,1.9,1.1,2.7,1.7
			c0.8,0.7,1.6,1.3,2.4,1.9c0.8,0.7,1.6,1.3,2.4,2c0.8,0.6,1.6,1.3,2.4,1.9c0.7,0.7,1.4,1.3,2.2,1.9c0.6,0.8,1.4,1.5,2.2,2.2
			c0.7,0.8,1.3,1.5,2,2.2c0.6,0.8,1.3,1.5,1.9,2.2c0.7,0.8,1.3,1.6,1.9,2.4c0.7,0.7,1.2,1.4,1.7,2.2c0.7,0.8,1.2,1.6,1.7,2.4
			c0.7,0.8,1.2,1.5,1.7,2.2c0.5,0.8,1,1.6,1.5,2.4c0.5,0.8,1,1.6,1.5,2.4c0.5,0.8,1,1.6,1.4,2.4c0.3,0.8,0.7,1.6,1.2,2.4
			c0.3,0.8,0.7,1.6,1,2.4c0.5,0.8,0.9,1.6,1.2,2.4c0.3,0.8,0.7,1.6,1,2.4c0.3,0.7,0.6,1.4,1,2.2c0.3,0.8,0.6,1.6,0.7,2.4
			c0.3,0.8,0.6,1.6,0.7,2.4c0.3,0.7,0.6,1.4,0.7,2.2c0.2,0.8,0.3,1.5,0.5,2.2c0.3,0.8,0.6,1.5,0.7,2.2c0,0.8,0.1,1.5,0.2,2.2
			c0.2,0.8,0.3,1.5,0.5,2.2c0,0.7,0.1,1.3,0.2,2c0,0.6,0.1,1.3,0.2,1.9c0,0.7,0,1.3,0,1.9c0,0.7,0,1.3,0,2c0,0.5,0,1.1,0,1.7
			c0,0.5,0,1.1,0,1.7c-0.2,0.5-0.2,1-0.2,1.4c-0.2,0.5-0.2,1-0.2,1.5c-0.2,0.5-0.3,1-0.5,1.5c0,0.5-0.1,0.9-0.2,1.2
			c-0.2,0.5-0.3,0.9-0.5,1.2c-0.2,0.3-0.4,0.6-0.7,1c-0.2,0.3-0.3,0.7-0.5,1c-0.2,0.2-0.4,0.4-0.7,0.7c-0.2,0.2-0.4,0.4-0.7,0.7
			c-0.3,0.2-0.7,0.4-1.2,0.7c-0.3,0.2-0.7,0.4-1.2,0.7c-0.5,0.2-1,0.4-1.5,0.7c-0.6,0.2-1.2,0.4-1.7,0.7c-0.6,0.2-1.3,0.4-1.9,0.7
			c-0.7,0.2-1.3,0.4-1.9,0.7c-0.7,0.2-1.4,0.4-2.2,0.7c-0.8,0.2-1.5,0.4-2.2,0.7c-0.8,0.2-1.6,0.3-2.4,0.5c-1,0.3-1.9,0.6-2.7,0.7
			c-0.8,0.3-1.7,0.6-2.7,0.7c-1,0.2-1.9,0.4-2.9,0.7c-0.8,0.2-1.7,0.3-2.7,0.5c-1.2,0.2-2.2,0.3-3.2,0.5c-1,0.3-2,0.6-3.2,0.7
			c-1,0.2-2,0.3-3.2,0.5c-1,0.2-2,0.3-3.2,0.5c-1.2,0.2-2.3,0.3-3.4,0.5c-1,0.2-2,0.3-3.2,0.5c-1.1,0-2.3,0.1-3.4,0.2
			c-1.3,0.2-2.5,0.3-3.7,0.3c-1.2,0.2-2.3,0.3-3.4,0.5c-1.2,0-2.4,0.1-3.7,0.3c-1.1,0-2.3,0-3.4,0c-1.3,0.2-2.5,0.2-3.7,0.2
			s-2.4,0-3.7,0c-1.2,0-2.3,0-3.4,0c-1.2,0-2.4,0-3.7,0c-1.1,0-2.3,0-3.4,0c-1.3-0.2-2.5-0.2-3.7-0.2s-2.3-0.1-3.4-0.3
			s-2.3-0.2-3.4-0.2c-1.1-0.2-2.3-0.3-3.4-0.5c-1.2-0.2-2.3-0.3-3.4-0.5c-1-0.2-2-0.3-3.2-0.5c-1.1-0.2-2.2-0.3-3.2-0.5
			c-1.1-0.3-2.2-0.6-3.2-0.7c-1.2,0-2.1-0.3-2.9-1c-1.6-1-3.7,23.5,17.9,27.4c18.8,3.2,26.8-5.5,26.8-5.5s14.3-1,26.1-1.9
			C685.3,464,712,464.1,711.8,465.1z M604.1,415.4c0.3,0.7,1.3,1.1,2.9,1.4c1.2,0.2,2.3,0.6,3.4,1.2c1,0.3,2.1,0.7,3.4,1
			c1.3,0.2,2.5,0.4,3.7,0.7c1.1,0.2,2.3,0.3,3.7,0.5c1.3,0,2.5,0.1,3.7,0.2c1.3,0,2.5,0,3.7,0c1.1,0,2.3,0,3.4,0
			c1.1,0,2.3-0.1,3.4-0.2c1,0,1.9-0.1,2.9-0.3c0.8-0.2,1.7-0.4,2.7-0.7c0.7-0.2,1.4-0.3,2.2-0.5c0.7-0.3,1.2-0.7,1.7-1
			c0.5-0.2,0.9-0.5,1.2-1c0.7-0.6,1.3-1.4,2-2.2c0.5-1,0.9-1.9,1.2-2.7c0.3-1,0.6-2,0.7-2.9c0.2-1,0.2-1.9,0.2-2.9
			c0-1-0.1-1.9-0.2-2.9c-0.3-1-0.6-1.9-0.7-2.7c-0.3-1-0.7-1.9-1.2-2.9c-0.5-0.8-1.1-1.6-1.7-2.4c-0.5-0.8-1.2-1.5-2-2.2
			c-0.6-0.6-1.4-1.3-2.2-1.9c-1-0.5-1.9-1-2.9-1.5c-1-0.5-1.9-0.8-2.9-1c-1.1-0.3-2.3-0.5-3.4-0.5c-0.8,0-1.5,0.1-2.2,0.2
			c-0.8,0-1.6,0.1-2.4,0.2c-0.8,0.3-1.7,0.7-2.7,1c-0.8,0.3-1.6,0.7-2.4,1c-1,0.5-1.9,1-2.7,1.5c-0.8,0.7-1.6,1.3-2.4,1.9
			c-1,0.7-1.9,1.4-2.7,2.2c-0.8,0.7-1.6,1.5-2.4,2.4c-0.7,0.8-1.4,1.7-2.2,2.7c-0.7,1-1.3,2-2,3.2c-0.8,1-1.4,2-1.9,3.2
			c-0.3,1.4-0.8,2.8-1.5,3.9C604.3,413.1,603.9,414.4,604.1,415.4z"/>
	</g>
</g>
</svg>
