<?xml version="1.0" encoding="utf-8"?>
<!-- Generator: Adobe Illustrator 18.0.0, SVG Export Plug-In . SVG Version: 6.00 Build 0)  -->
<!DOCTYPE svg PUBLIC "-//W3C//DTD SVG 1.1//EN" "http://www.w3.org/Graphics/SVG/1.1/DTD/svg11.dtd">
<svg version="1.1" id="Camada_1" xmlns="http://www.w3.org/2000/svg" xmlns:xlink="http://www.w3.org/1999/xlink" x="0px" y="0px"
	 viewBox="0 0 1024 768" enable-background="new 0 0 1024 768" xml:space="preserve">
<g>
	<defs>
		<circle id="SVGID_1_" cx="511.9" cy="383.4" r="375.7"/>
	</defs>
	<clipPath id="SVGID_2_">
		<use xlink:href="#SVGID_1_"  overflow="visible"/>
	</clipPath>
	<g clip-path="url(#SVGID_2_)" enable-background="new    ">
		
			<image overflow="visible" width="2474" height="2474" xlink:href="../../banco de imagens/botões/butt 25.png"  transform="matrix(0.3065 0 0 0.3065 132.8006 4.7999)">
		</image>
	</g>
</g>
<g>
	<g>
		<path d="M372.1,196.5c24,2.4,38.8,6,44.6,9.8c5.8,3.7,8.8,13,8.8,18.7c0.1,2.4,2.5,197,6.8,198.2c4.3,1.2,67.2-12.8,96.1-18.7
			c28.9-5.9,11.5,76.6,11.3,78.1c-0.2,1.7-10.8,43.7-14.3,47.2c-3.5,3.4-43.1,4.3-44.4,4.5c-1.5,0-2.9,0-4.3,0
			c-1.5,0.2-2.9,0.3-4.3,0.3c-1.5,0-3,0-4.6,0c-1.7,0.2-3.3,0.3-4.8,0.3c-1.5,0-3.1,0-4.8,0c-1.5,0-3.1,0.1-4.8,0.3
			c-1.7,0-3.3,0-4.8,0c-1.7,0-3.4,0-5.1,0c-1.7,0-3.4,0.1-5.1,0.3c-1.7,0-3.4,0-5.1,0c-1.7,0-3.4,0-5.1,0c-1.7,0-3.5,0-5.4,0
			c-1.7,0.2-3.4,0.3-5.1,0.3c-1.7,0-3.4,0-5.1,0c-1.9,0-3.7,0-5.4,0c-1.7,0-3.4,0-5.1,0c-1.7,0-3.4,0-5.1,0c-1.7,0-3.4,0-5.1,0
			c-1.7,0-3.4,0-5.1,0c-1.5,0-3.1,0-4.8,0c-1.7,0-3.3,0-4.8,0c-1.7,0-3.3,0-4.8,0c-1.5,0-3.1,0-4.8,0c-1.5,0-3,0-4.6,0
			c-1.3-0.2-2.7-0.3-4.3-0.3c-1.3,0-2.7,0-4.3,0c-1.3,0-2.7,0-4,0c-1.3,0-2.7-0.1-4-0.3c-1.3,0-2.5,0-3.7,0c-1.1,0-2.3,0-3.4,0
			c-1.1-0.2-2.3-0.3-3.4-0.3c-1.1,0-2.2,0-3.1,0c-0.9-0.2-1.9-0.3-2.8-0.3c-0.7,0-1.6,0-2.6,0c-0.7-0.2-1.5-0.3-2.3-0.3
			c-0.8,0-1.4-0.1-2-0.3c-0.8,0-1.4,0-2,0c-0.4-0.2-0.9-0.3-1.4-0.3c-0.4,0-0.8-0.1-1.1-0.3c-0.2,0-0.5-0.1-0.9-0.3
			c-0.2,0-0.3-0.1-0.3-0.3c-0.2,0-0.3-0.1-0.3-0.3l-0.3-0.3c0-0.2,0-0.5,0-0.8c0-0.2-0.1-0.5-0.3-0.8c0-0.4,0-0.8,0-1.1
			c-0.2-0.4-0.3-0.8-0.3-1.1c0-0.6,0-1,0-1.4c0-0.6-0.1-1.1-0.3-1.7c0-0.6,0-1.2,0-2c0-0.6-0.1-1.2-0.3-2c0-0.8,0-1.4,0-2
			c0-0.8,0-1.6,0-2.6c0-0.8-0.1-1.5-0.3-2.3c0-0.9,0-1.9,0-2.8c0-0.9,0-1.9,0-2.8c0-0.9-0.1-1.9-0.3-2.8c0-1.1,0-2.2,0-3.1
			c0-1.1,0-2.3,0-3.4c0-1.1,0-2.3,0-3.4c0-1.1,0-2.3,0-3.4c-0.2-1.1-0.3-2.4-0.3-3.7c0-1.1,0-2.4,0-3.7c0-1.3,0-2.6,0-4
			c0-1.3,0-2.7,0-4c0-1.3,0-2.7,0-4s0-2.7,0-4.3c0-1.3,0-2.7,0-4.3c0-1.3,0-2.7,0-4.3c0-1.5,0-3,0-4.5c0-1.5,0-3,0-4.6
			c0-1.5,0-3,0-4.5c0-1.5,0-3.1,0-4.8c0-1.5,0-3,0-4.5c0-1.7,0-3.3,0-4.8c0-1.7,0-3.4,0-5.1c0-1.5,0-3.1,0-4.8c0-1.7,0-3.4,0-5.1
			c0-1.5,0-3.1,0-4.8c0.2-1.7,0.3-3.4,0.3-5.1c0-1.7,0-3.4,0-5.1c0-1.7,0-3.4,0-5.1c0-1.7,0-3.5,0-5.4c0-1.7,0-3.4,0-5.1
			c0.2-1.7,0.3-3.4,0.3-5.1s0-3.5,0-5.4c0-1.7,0-3.4,0-5.1s0.1-3.4,0.3-5.1c0-1.9,0-3.7,0-5.4c0-1.7,0-3.4,0-5.1
			c0-1.7,0.1-3.5,0.3-5.4c0-1.7,0-3.4,0-5.1c0-1.7,0-3.4,0-5.1c0-1.7,0.1-3.4,0.3-5.1c0-1.7,0-3.4,0-5.1c0-1.7,0-3.4,0-5.1
			c0.2-1.7,0.3-3.4,0.3-5.1c0-1.7,0-3.4,0-5.1c0.2-1.7,0.3-3.3,0.3-4.8c0-1.7,0-3.4,0-5.1c0-1.5,0.1-3.1,0.3-4.8c0-1.5,0-3.1,0-4.8
			c0-1.5,0.1-3,0.3-4.5c0-1.5,0-3.1,0-4.8c0-1.5,0.1-3,0.3-4.5c0-1.5,0-3,0-4.5c0-1.3,0.1-2.7,0.3-4.3c0-1.5,0-2.9,0-4.2
			c0.2-1.5,0.3-2.9,0.3-4.3c0-1.3,0-2.7,0-4.3c0.2-1.3,0.3-2.6,0.3-4c0-1.3,0.1-2.6,0.3-4c0-1.1,0-2.4,0-3.7
			c0.2-1.3,0.3-2.5,0.3-3.7c0-1.1,0-2.4,0-3.7c0.2-1.1,0.3-2.3,0.3-3.4c0-1.1,0.1-2.2,0.3-3.1c0-1.1,0-2.3,0-3.4
			c0.2-0.9,0.3-1.9,0.3-2.8c0-0.9,1.8-22.6,5.5-28.4C329,193.4,348,194,372.1,196.5z"/>
		<path fill="#FFFFFF" d="M341.1,224.2c0.6-0.3,1.2-0.6,1.6-0.7c0.8-0.2,1.5-0.3,2.1-0.5c0.9-0.2,1.8-0.3,2.6-0.5
			c1.1,0,2.1-0.1,3-0.2c1.1,0,2.2,0,3.3,0c1.1-0.2,2.3-0.2,3.5-0.2c1.3,0,2.5,0.1,3.8,0.2c1.2,0,2.5,0,3.7,0c1.4,0.2,2.7,0.2,4,0.2
			c1.4,0.2,2.7,0.3,4,0.5c1.4,0,2.7,0.1,4,0.2c1.4,0.2,2.7,0.3,4,0.5c1.3,0.2,2.5,0.3,3.7,0.5c1.1,0.2,2.2,0.3,3.3,0.5
			c1.1,0.2,2.2,0.4,3.3,0.7c0.9,0.2,2,0.3,3,0.5c0.8,0.2,1.6,0.4,2.3,0.7c0.8,0.2,1.5,0.3,2.1,0.5c0.5,0.2,1,0.4,1.6,0.7
			c0.3,0.2,0.6,0.3,1,0.5c0.1,0.2,0.2,0.3,0.2,0.5c0.1,0.2,0.3,0.3,0.5,0.5c0.2,0.3,0.3,0.6,0.5,0.7c0,0.3,0.1,0.7,0.2,1
			c0.1,0.3,0.2,0.7,0.2,1c0.1,0.3,0.3,0.7,0.4,1.2c0.2,0.3,0.3,0.7,0.3,1.2c0.1,0.5,0.2,1,0.2,1.5c0.1,0.5,0.3,1,0.5,1.5
			c0,0.5,0.1,1.1,0.2,1.7c0,0.5,0.1,1.1,0.2,1.7c0,0.6,0.1,1.3,0.2,2c0,0.7,0.1,1.3,0.2,2c0,0.7,0.1,1.4,0.3,2.2
			c0,0.7,0.1,1.4,0.2,2.2c0,0.8,0.1,1.6,0.2,2.5c0,0.8,0.1,1.6,0.2,2.5c0,0.8,0,1.6,0,2.5c0.2,0.8,0.2,1.7,0.2,2.7
			c0,0.8,0.1,1.7,0.2,2.7c0,1,0,1.9,0,2.7c0.2,1,0.3,2,0.3,3s0.1,2.1,0.2,3.2c0,1,0,2,0,3c0.2,1,0.2,2.1,0.2,3.2c0,1,0,2.1,0,3.2
			c0.2,1.1,0.2,2.2,0.2,3.2c0,1.2,0,2.3,0,3.5c0,1.2,0.1,2.3,0.2,3.5c0,1.2,0,2.3,0,3.5c0,1.2,0,2.4,0,3.7c0.2,1.1,0.2,2.3,0.2,3.5
			c0,1.3,0,2.5,0,3.7c0,1.3,0,2.5,0,3.7c0.2,1.3,0.2,2.5,0.2,3.7c0,1.3,0,2.6,0,3.9c0,1.2,0,2.4,0,3.7c0,1.3,0,2.6,0,3.9
			c0.2,1.3,0.3,2.6,0.3,3.7c0,1.3,0,2.6,0,3.9c0,1.3,0,2.6,0,3.9c0,1.3,0,2.6,0,3.9c0,1.3,0.1,2.6,0.2,3.9c0,1.3,0,2.7,0,4.2
			c0,1.3,0,2.6,0,3.9c0,1.3,0,2.6,0,3.9c0,1.3,0,2.6,0,3.9c0,1.3,0.1,2.6,0.2,3.9c0,1.5,0,2.9,0,4.2c0,1.3,0,2.6,0,3.9
			c0,1.3,0,2.6,0,3.9c0,1.3,0,2.6,0,3.9c0,1.3,0.1,2.6,0.2,3.9c0,1.3,0,2.6,0,3.9s0,2.6,0,3.9c0,1.3,0,2.6,0,3.9c0,1.3,0,2.6,0,3.7
			c0.1,1.3,0.2,2.6,0.2,3.9c0,1.3,0,2.6,0,3.7c0,1.3,0,2.5,0,3.7c0.1,1.3,0.2,2.6,0.2,3.9c0,1.2,0,2.3,0,3.5c0,1.3,0,2.5,0,3.7
			c0.2,1.2,0.3,2.3,0.3,3.5c0,1.3,0,2.5,0,3.7c0,1.2,0.1,2.3,0.2,3.4c0,1.2,0,2.2,0,3.2c0,1.2,0.1,2.3,0.3,3.5c0,1.1,0,2.2,0,3.2
			c0,1.2,0.1,2.2,0.2,3.2c0,0.2,0.3,0.2,0.9,0.2c0.5-0.2,0.9-0.2,1.4,0c0.6,0,1.2,0,1.6,0c0.8-0.2,1.5-0.2,2.1-0.2
			c0.8,0,1.5-0.1,2.3-0.2c0.8-0.2,1.6-0.2,2.4-0.2c0.9-0.2,1.9-0.3,2.8-0.5c0.9-0.2,1.9-0.3,3-0.5c1.1-0.2,2.1-0.3,3-0.5
			c1.1-0.2,2.3-0.3,3.5-0.5c1.1-0.2,2.3-0.4,3.5-0.7c1.1-0.2,2.3-0.3,3.5-0.5c1.3-0.3,2.5-0.6,3.8-0.7c1.3-0.2,2.5-0.4,3.7-0.7
			c1.3-0.2,2.6-0.4,4-0.7c1.2-0.2,2.5-0.4,3.7-0.7c1.4-0.2,2.7-0.4,4-0.7c1.4-0.2,2.7-0.4,4-0.7c1.3-0.2,2.6-0.4,4-0.7
			c1.2-0.2,2.5-0.4,3.7-0.7c1.4-0.2,2.7-0.4,4-0.7c1.2-0.2,2.5-0.3,3.7-0.5c1.3-0.3,2.4-0.6,3.5-0.7c1.2-0.2,2.4-0.3,3.5-0.5
			c1.3-0.3,2.4-0.6,3.5-0.7c1.1-0.2,2.2-0.3,3.3-0.5c0.9-0.2,2-0.3,3-0.5c0.9,0,1.9-0.1,2.8-0.2c0.8-0.2,1.6-0.2,2.6-0.2
			c0.8-0.2,1.6-0.2,2.3-0.2c0.6,0,1.3-0.1,2.1-0.2c0.5,0,1,0,1.6,0c0.5,0,0.9,0.1,1.4,0.2c0.5,0,0.9,0,1.2,0
			c0.3,0.2,0.6,0.2,0.9,0.2c0.1,0.3,0.4,0.6,0.7,0.7c0.1,0.5,0.3,1,0.5,1.5c0.1,0.5,0.3,1,0.5,1.5c0,0.8,0.1,1.6,0.2,2.2
			c0,0.8,0,1.7,0,2.7c0.2,0.8,0.2,1.7,0.2,2.7c-0.1,1.2-0.2,2.2-0.2,3.2c0,1.1-0.1,2.3-0.2,3.4c0,1.3-0.1,2.6-0.2,3.7
			c-0.2,1.3-0.2,2.6-0.2,4c-0.2,1.3-0.3,2.6-0.5,3.9c-0.2,1.5-0.3,2.9-0.5,4.2c-0.3,1.5-0.5,2.9-0.7,4.2c-0.1,1.5-0.4,2.9-0.7,4.2
			c-0.2,1.5-0.3,2.9-0.5,4.2c-0.3,1.3-0.6,2.7-0.9,4.2c-0.2,1.3-0.4,2.6-0.7,3.9c-0.2,1.3-0.4,2.6-0.7,3.9c-0.1,1.2-0.4,2.4-0.7,3.7
			c-0.3,1.1-0.6,2.3-0.7,3.4c-0.3,1-0.6,2.1-0.9,3.2c-0.2,1-0.4,2-0.7,3c-0.2,0.8-0.4,1.6-0.7,2.5c-0.2,0.7-0.4,1.4-0.7,2.2
			c-0.1,0.5-0.4,1.1-0.7,1.7c-0.2,0.3-0.3,0.7-0.5,1.2c-0.2,0.2-0.4,0.4-0.7,0.7h-0.2c-0.3,0.2-0.6,0.2-0.7,0.2
			c-0.3,0.2-0.6,0.2-0.9,0.2c-0.5,0.2-0.9,0.2-1.2,0.2c-0.5,0-1,0.1-1.6,0.2c-0.5,0-1,0.1-1.6,0.2c-0.6,0-1.2,0-1.9,0
			c-0.8,0.2-1.5,0.2-2.1,0.2c-0.8,0.2-1.6,0.2-2.3,0.2c-0.8,0-1.6,0.1-2.6,0.2c-0.9,0-1.9,0-2.8,0c-0.9,0.2-1.9,0.2-2.8,0.2
			c-1,0-2,0.1-3.1,0.2c-1.1,0-2.2,0-3.3,0c-1.1,0-2.2,0.1-3.3,0.2c-1.3,0-2.4,0-3.5,0c-1.2,0.2-2.4,0.2-3.5,0.2c-1.2,0-2.5,0-3.7,0
			c-1.4,0.2-2.7,0.2-4,0.2c-1.3,0-2.6,0-4,0c-1.3,0-2.6,0.1-4,0.2c-1.4,0-2.7,0-4,0c-1.4,0-2.8,0-4.2,0c-1.4,0-2.8,0.1-4.2,0.2
			c-1.4,0-2.8,0-4.2,0c-1.4,0-2.8,0-4.2,0c-1.4,0-2.9,0-4.5,0c-1.4,0.2-2.8,0.2-4.2,0.2c-1.4,0-2.8,0-4.2,0c-1.6,0-3,0-4.5,0
			c-1.4,0-2.8,0-4.2,0c-1.4,0-2.8,0-4.2,0c-1.4,0-2.8,0-4.2,0c-1.4,0-2.8,0-4.2,0c-1.3,0-2.6,0-4,0s-2.7,0-4,0c-1.4,0-2.7,0-4,0
			s-2.6,0-4,0c-1.3,0-2.5,0-3.7,0c-1.1-0.2-2.3-0.2-3.5-0.2c-1.1,0-2.3,0-3.5,0c-1.1,0-2.2,0-3.3,0s-2.2-0.1-3.3-0.2
			c-1.1,0-2.1,0-3,0s-1.9,0-2.8,0c-0.9-0.2-1.9-0.2-2.8-0.2c-0.9,0-1.8,0-2.6,0c-0.8-0.2-1.6-0.2-2.3-0.2c-0.6,0-1.3,0-2.1,0
			c-0.6-0.2-1.3-0.2-1.9-0.2c-0.6,0-1.2-0.1-1.6-0.2c-0.6,0-1.2,0-1.6,0c-0.3-0.2-0.7-0.2-1.2-0.2c-0.3,0-0.6-0.1-0.9-0.2
			c-0.2,0-0.4-0.1-0.7-0.2c-0.1,0-0.2-0.1-0.2-0.2c-0.2,0-0.3-0.1-0.3-0.2l-0.2-0.2c0-0.2,0-0.4,0-0.7c0-0.2-0.1-0.4-0.2-0.7
			c0-0.3,0-0.7,0-1c-0.2-0.3-0.2-0.7-0.2-1c0-0.5,0-0.9,0-1.2c0-0.5-0.1-1-0.2-1.5c0-0.5,0-1.1,0-1.7c0-0.5-0.1-1.1-0.2-1.7
			c0-0.7,0-1.2,0-1.7c0-0.7,0-1.4,0-2.2c0-0.7-0.1-1.3-0.2-2c0-0.8,0-1.6,0-2.5c0-0.8,0-1.6,0-2.5c0-0.8-0.1-1.6-0.2-2.5
			c0-1,0-1.9,0-2.7c0-1,0-2,0-3c0-1,0-2,0-3c0-1,0-2,0-3c-0.2-1-0.2-2-0.2-3.2c0-1,0-2.1,0-3.2c0-1.1,0-2.3,0-3.4c0-1.2,0-2.3,0-3.5
			c0-1.1,0-2.3,0-3.4c0-1.2,0-2.4,0-3.7c0-1.1,0-2.4,0-3.7c0-1.1,0-2.4,0-3.7c0-1.3,0-2.6,0-3.9c0-1.3,0-2.6,0-4c0-1.3,0-2.6,0-3.9
			c0-1.3,0-2.7,0-4.2c0-1.3,0-2.6,0-4c0-1.5,0-2.9,0-4.2c0-1.5,0-3,0-4.4c0-1.3,0-2.7,0-4.2c0-1.5,0-2.9,0-4.4c0-1.3,0-2.7,0-4.2
			c0.2-1.5,0.2-3,0.2-4.4c0-1.5,0-3,0-4.4c0-1.5,0-3,0-4.4c0-1.5,0-3,0-4.7c0-1.5,0-3,0-4.4c0.2-1.5,0.2-3,0.2-4.4c0-1.5,0-3,0-4.7
			c0-1.5,0-3,0-4.4c0-1.5,0.1-3,0.2-4.4c0-1.6,0-3.2,0-4.7s0-3,0-4.4s0.1-3,0.2-4.7c0-1.5,0-3,0-4.4c0-1.5,0-3,0-4.4
			c0-1.5,0.1-3,0.2-4.4c0-1.5,0-3,0-4.4c0-1.5,0-3,0-4.4c0.1-1.5,0.2-3,0.2-4.4c0-1.5,0-3,0-4.4c0.1-1.5,0.2-2.9,0.2-4.2
			c0-1.5,0-3,0-4.4c0-1.3,0.1-2.7,0.2-4.2c0-1.3,0-2.7,0-4.2c0-1.3,0.1-2.6,0.3-3.9c0-1.3,0-2.7,0-4.2c0-1.3,0.1-2.6,0.2-3.9
			c0-1.3,0-2.6,0-3.9c0-1.1,0.1-2.4,0.2-3.7c0-1.3,0-2.5,0-3.7c0.1-1.3,0.2-2.5,0.2-3.7c0-1.1,0-2.4,0-3.7c0.1-1.2,0.2-2.3,0.2-3.5
			c0-1.1,0.1-2.3,0.2-3.4c0-1,0-2.1,0-3.2c0.2-1.1,0.2-2.2,0.2-3.2s0-2.1,0-3.2c0.1-1,0.2-2,0.2-3c0-1,0.1-1.9,0.2-2.7c0-1,0-2,0-3
			c0.1-0.8,0.2-1.6,0.2-2.5c0-0.8,0.1-1.6,0.2-2.5c0-0.8,0-1.6,0-2.5c0.2-0.7,0.2-1.4,0.2-2.2c0-0.7,0.1-1.4,0.2-2.2
			c0-0.5,0-1.1,0-1.7c0.2-0.7,0.2-1.3,0.2-2c0-0.5,0.1-1.1,0.2-1.7c0-0.5,0.1-1,0.2-1.5c0-0.3,0-0.7,0-1.2c0.1-0.3,0.2-0.7,0.2-1.2
			c0-0.3,0.1-0.7,0.2-1c0-0.3,0-0.6,0-0.7c0.2-0.3,0.2-0.6,0.2-0.7c0.2-0.2,0.2-0.3,0.2-0.5c0-0.2,0.1-0.2,0.2-0.2
			C340.5,224.7,340.8,224.4,341.1,224.2z"/>
	</g>
	<g>
		<path d="M706.2,433.3c0.1,0.9,0.2,1.8,0.2,2.6c0.1,0.9,0.2,1.8,0.2,2.6c0,0.9,0.1,1.8,0.2,2.6c0,0.9,0,1.8,0,2.6
			c0,0.8,0.1,1.7,0.2,2.6c0,0.8,0,1.6,0,2.4c0,0.9,0,1.8,0,2.6c0,0.8-0.1,1.6-0.2,2.4c0,0.8,0,1.6,0,2.4c0,0.8-0.1,1.7-0.2,2.6
			c0,0.8,0,1.6,0,2.4c-0.1,0.7-0.3,1.4-0.4,2.2c0,0.8-0.1,1.6-0.2,2.4c-0.1,0.8-0.2,1.6-0.2,2.4c-0.1,0.7-0.3,1.4-0.4,2.2
			c-0.1,0.8-0.3,1.6-0.4,2.2c-0.1,0.8-0.3,1.6-0.4,2.2c-0.3,0.8-0.5,1.6-0.6,2.2c-0.1,0.8-0.4,1.6-0.6,2.2c-0.1,0.7-0.4,1.4-0.6,2.2
			c-0.1,0.7-0.4,1.4-0.6,2.1c-0.3,0.7-0.6,1.4-0.9,2.1c-0.1,0.7-0.4,1.4-0.6,2.1c-0.3,0.7-0.6,1.4-1.1,2.1c-0.3,0.7-0.6,1.3-0.9,1.9
			c-0.3,0.7-0.6,1.4-1.1,2.1c-0.3,0.6-0.6,1.2-1.1,1.9c-0.3,0.6-0.6,1.2-1.1,1.9c-0.4,0.6-0.9,1.2-1.3,1.7c-0.3,0.7-0.6,1.3-1.1,1.9
			c-0.6,0.6-1.1,1.2-1.5,1.7c-0.4,0.6-0.9,1.2-1.3,1.7c-0.6,0.6-1.1,1.2-1.5,1.7c-0.6,0.5-1.1,1-1.5,1.6c-0.6,0.6-1.2,1.1-1.7,1.6
			c-0.6,0.6-1.2,1.1-1.7,1.6c-0.6,0.5-1.2,1-1.7,1.6c-0.6,0.5-1.2,0.9-1.9,1.4c-0.6,0.5-1.2,0.9-1.9,1.4c-0.6,0.5-1.2,0.9-1.9,1.4
			c-0.7,0.5-1.4,0.9-2.2,1.2c-0.7,0.5-1.4,0.9-2.2,1.2c-0.7,0.5-1.4,0.9-2.2,1.2c-0.9,0.5-1.7,0.9-2.4,1.2c-0.9,0.3-1.7,0.7-2.4,1
			c-0.9,0.3-1.7,0.7-2.6,1c-0.9,0.3-1.7,0.6-2.6,0.9c-0.9,0.3-1.7,0.7-2.6,1c-1,0.2-1.9,0.5-2.8,0.9c-1,0.2-2,0.5-3,0.7
			c-0.9,0.2-1.8,0.5-2.8,0.7c-1,0.2-2,0.5-3,0.7c-1.2,0.2-2.2,0.5-3.2,0.7c-1,0.1-2.1,0.3-3.2,0.5c-1.2,0.1-2.2,0.2-3.2,0.3
			c-1.2,0.2-2.3,0.4-3.5,0.5c-1.2,0.1-2.4,0.2-3.7,0.3c-1.2,0.1-2.3,0.2-3.5,0.2c-1.3,0.1-2.6,0.2-3.9,0.3c-1.3,0-2.5,0-3.7,0
			c-1.4,0.1-2.8,0.2-4.1,0.2c-1.3,0-2.6,0-3.9,0c-1.4,0-2.9-0.1-4.3-0.2c-0.9,0-1.8,0-2.8,0c-1-0.1-2-0.2-3-0.3
			c-1,0-1.9-0.1-2.8-0.2c-1-0.1-1.9-0.2-2.8-0.3c-1-0.1-1.9-0.2-2.8-0.3c-1-0.2-1.9-0.4-2.8-0.5c-1-0.2-1.9-0.4-2.8-0.5
			c-0.9-0.2-1.7-0.5-2.6-0.7c-1-0.2-1.9-0.5-2.8-0.7c-0.9-0.2-1.7-0.5-2.6-0.7c-0.9-0.3-1.7-0.6-2.6-0.9c-0.9-0.3-1.7-0.6-2.4-0.9
			c-0.9-0.3-1.7-0.7-2.6-1c-0.7-0.3-1.5-0.7-2.4-1c-0.9-0.3-1.7-0.7-2.4-1c-0.9-0.3-1.7-0.7-2.4-1c-0.7-0.5-1.5-0.9-2.4-1.2
			c-0.7-0.5-1.4-0.9-2.2-1.4c-0.7-0.3-1.4-0.7-2.2-1.2c-0.7-0.5-1.4-0.9-2.2-1.4c-0.7-0.5-1.4-0.9-2.2-1.4c-0.7-0.6-1.4-1.1-2.2-1.6
			c-0.6-0.5-1.2-1-1.9-1.6c-0.7-0.5-1.4-1-1.9-1.6c-0.7-0.6-1.4-1.1-1.9-1.7c-0.6-0.5-1.2-1-1.9-1.6c-0.6-0.6-1.2-1.2-1.7-1.9
			c-0.6-0.6-1.2-1.1-1.7-1.7c-0.6-0.6-1.2-1.2-1.7-1.9c-0.6-0.6-1.2-1.1-1.7-1.7c-0.6-0.7-1.1-1.4-1.5-2.1c-0.6-0.6-1.1-1.2-1.5-1.9
			c-0.6-0.7-1.1-1.4-1.5-2.1c-0.6-0.7-1.1-1.4-1.5-2.1c-0.4-0.7-0.9-1.4-1.5-2.1c-0.4-0.7-0.9-1.4-1.3-2.1c-0.4-0.8-0.9-1.6-1.3-2.2
			c-0.4-0.7-0.9-1.4-1.3-2.2c-0.3-0.7-0.6-1.4-1.1-2.2c-0.4-0.8-0.8-1.6-1.1-2.2c-0.4-0.8-0.8-1.6-1.1-2.4c-0.3-0.8-0.6-1.6-1.1-2.4
			c-0.3-0.7-0.6-1.4-0.9-2.2c-0.3-0.9-0.6-1.8-0.9-2.6c-0.3-0.8-0.6-1.6-0.9-2.4c-0.3-0.8-0.6-1.6-0.9-2.4c-0.1-0.9-0.4-1.8-0.6-2.6
			c-0.1-0.8-0.4-1.7-0.6-2.6c-0.1-0.8-0.4-1.7-0.6-2.6c-0.1-0.8-0.3-1.7-0.4-2.6c-0.1-0.9-0.3-1.8-0.4-2.6c-0.1-0.9-0.3-1.8-0.4-2.8
			c-0.1-0.8-0.3-1.7-0.4-2.6c0-0.9-0.1-1.8-0.2-2.8c0-0.9-0.1-1.8-0.2-2.8c0-0.9-0.1-1.8-0.2-2.8c0-0.9,0-1.8,0-2.8
			c0-0.9,0-1.8,0-2.8c0-0.9,0-1.8,0-2.8c0-0.9,0.1-1.8,0.2-2.6c0-0.9,0.1-1.8,0.2-2.6c0-0.8,0.1-1.7,0.2-2.6c0-0.8,0.1-1.7,0.2-2.6
			c0.1-0.8,0.3-1.6,0.4-2.4c0.1-0.9,0.3-1.8,0.4-2.6c0.1-0.9,0.4-1.8,0.6-2.6c0.1-0.8,0.4-1.7,0.6-2.6c0.1-0.8,0.4-1.6,0.6-2.4
			c0.1-0.9,0.4-1.8,0.6-2.6c0.3-0.8,0.6-1.7,0.9-2.6c0.3-0.8,0.6-1.6,0.9-2.4c0.3-0.8,0.6-1.6,0.9-2.4c0.3-0.9,0.6-1.8,0.9-2.6
			c0.4-0.8,0.8-1.6,1.1-2.4c0.4-0.8,0.8-1.6,1.1-2.4c0.4-0.8,0.9-1.6,1.3-2.4c0.3-0.8,0.6-1.6,1.1-2.4c0.4-0.7,0.9-1.4,1.3-2.2
			c0.4-0.8,0.9-1.6,1.3-2.4c0.4-0.7,0.9-1.4,1.5-2.2c0.4-0.8,0.9-1.6,1.3-2.2c0.6-0.8,1.1-1.6,1.5-2.2c0.6-0.7,1.1-1.4,1.5-2.2
			c0.6-0.7,1.2-1.4,1.7-2.1c0.4-0.7,0.9-1.4,1.5-2.1c0.6-0.7,1.1-1.4,1.7-2.1c0.6-0.7,1.1-1.4,1.7-2.1c0.6-0.7,1.1-1.4,1.7-2.1
			c0.6-0.6,1.1-1.2,1.7-1.9c0.7-0.6,1.4-1.2,1.9-1.9c0.6-0.6,1.2-1.2,1.9-1.9c0.6-0.6,1.2-1.1,1.9-1.7c0.6-0.6,1.2-1.1,1.9-1.7
			c0.6-0.6,1.2-1.1,1.9-1.7c0.7-0.5,1.4-1,1.9-1.6c0.7-0.6,1.4-1.1,2.2-1.6c0.7-0.6,1.4-1.1,2.2-1.6c0.7-0.5,1.4-0.9,2.2-1.4
			c0.7-0.5,1.4-0.9,2.2-1.4c0.7-0.5,1.4-0.9,2.2-1.4c0.7-0.5,1.4-0.9,2.2-1.2c0.9-0.5,1.7-0.9,2.4-1.2c0.7-0.3,1.5-0.7,2.4-1
			c0.7-0.3,1.4-0.7,2.2-1c0.9-0.3,1.7-0.7,2.4-1c0.9-0.3,1.7-0.6,2.4-0.9c0.9-0.2,1.7-0.5,2.4-0.9c0.9-0.2,1.7-0.5,2.6-0.7
			c0.7-0.2,1.5-0.5,2.4-0.7c0.9-0.1,1.7-0.3,2.4-0.5c0.9-0.1,1.7-0.3,2.6-0.5c0.9-0.1,1.7-0.2,2.4-0.3c0.9-0.1,1.7-0.2,2.6-0.2
			c0.9-0.1,1.7-0.2,2.6-0.3c0.9,0,1.7,0,2.6,0c0.9,0,1.7,0,2.6,0c0.9,0,1.7,0,2.6,0c0.9,0,1.7,0.1,2.6,0.2c0.9,0,1.7,0.1,2.6,0.2
			c0.9,0.1,1.7,0.2,2.6,0.3c0.9,0.1,1.7,0.2,2.6,0.3c0.9,0.1,1.7,0.2,2.6,0.3c0.9,0.2,1.7,0.4,2.4,0.5c0.9,0.2,1.7,0.5,2.6,0.7
			c0.9,0.1,1.7,0.3,2.6,0.5c0.7,0.2,1.5,0.5,2.4,0.7c0.9,0.3,1.7,0.6,2.4,0.9c0.9,0.2,1.7,0.5,2.4,0.9c0.9,0.2,1.7,0.5,2.6,0.9
			c0.7,0.3,1.4,0.7,2.2,1c0.9,0.3,1.7,0.7,2.4,1c0.9,0.3,1.7,0.7,2.4,1c0.7,0.3,1.5,0.7,2.4,1c0.7,0.5,1.4,0.9,2.2,1.2
			c0.7,0.5,1.4,0.9,2.2,1.4c0.7,0.3,1.4,0.7,2.2,1.2c0.7,0.5,1.4,0.9,2.2,1.4c0.7,0.5,1.4,1,2.2,1.6c0.7,0.5,1.4,0.9,2.2,1.4
			c0.7,0.6,1.4,1.1,2.2,1.6c0.6,0.6,1.2,1.1,1.9,1.6c0.7,0.6,1.4,1.2,1.9,1.7c0.7,0.5,1.4,1,1.9,1.6c0.7,0.6,1.4,1.2,1.9,1.7
			c0.6,0.6,1.2,1.2,1.9,1.9c0.6,0.6,1.1,1.2,1.7,1.7c0.7,0.7,1.4,1.3,1.9,1.9c0.6,0.6,1.2,1.2,1.7,1.9c0.6,0.7,1.1,1.3,1.7,1.9
			c0.6,0.7,1.1,1.4,1.7,2.1c0.6,0.7,1.1,1.4,1.5,2.1c0.6,0.7,1.1,1.4,1.7,2.1c0.4,0.7,0.9,1.4,1.5,2.1c0.4,0.7,0.9,1.4,1.5,2.1
			c0.4,0.8,0.9,1.6,1.5,2.2c0.4,0.7,0.9,1.4,1.3,2.2c0.4,0.7,0.9,1.4,1.5,2.2c0.4,0.8,0.9,1.6,1.3,2.2c0.4,0.8,0.9,1.6,1.3,2.4
			c0.4,0.7,0.8,1.4,1.1,2.2c0.4,0.8,0.9,1.6,1.3,2.4c0.3,0.8,0.6,1.6,1.1,2.4c0.4,0.8,0.8,1.6,1.1,2.4c0.3,0.8,0.6,1.6,1.1,2.4
			c0.3,0.9,0.6,1.8,0.9,2.6c0.3,0.8,0.6,1.6,1.1,2.4c0.3,0.9,0.6,1.8,0.9,2.6c0.3,0.8,0.5,1.7,0.6,2.6c0.3,0.8,0.6,1.7,0.9,2.6
			c0.3,0.8,0.5,1.7,0.6,2.6c0.3,0.8,0.5,1.7,0.6,2.6c0.1,0.9,0.4,1.8,0.6,2.6c0.1,0.9,0.3,1.8,0.4,2.8c0.1,0.8,0.3,1.7,0.4,2.6
			c0.1,0.9,0.3,1.8,0.4,2.8c0.1,0.9,0.3,1.8,0.4,2.6C706.1,431.5,706.2,432.4,706.2,433.3z"/>
		<path fill="#FFFFFF" d="M691.4,435.1c0.1,0.8,0.2,1.5,0.2,2.1c0.1,0.8,0.2,1.5,0.2,2.1c0,0.8,0.1,1.5,0.2,2.1c0,0.8,0,1.5,0,2.1
			c0,0.7,0.1,1.4,0.2,2.1c0,0.7,0,1.3,0,2c0,0.8,0,1.5,0,2.1c0,0.7-0.1,1.3-0.2,2c0,0.7,0,1.3,0,2c0,0.7-0.1,1.4-0.2,2.1
			c0,0.7,0,1.3,0,2c-0.1,0.6-0.2,1.2-0.4,1.9c0,0.7-0.1,1.3-0.2,2c-0.1,0.7-0.2,1.3-0.2,2c-0.1,0.6-0.2,1.2-0.4,1.9
			c-0.1,0.7-0.2,1.3-0.4,1.9c-0.1,0.7-0.2,1.3-0.4,1.9c-0.2,0.7-0.4,1.3-0.5,1.9c-0.1,0.7-0.3,1.3-0.5,1.9c-0.1,0.6-0.3,1.2-0.5,1.9
			c-0.1,0.6-0.3,1.1-0.5,1.7c-0.2,0.6-0.5,1.1-0.7,1.7c-0.1,0.6-0.3,1.1-0.5,1.7c-0.2,0.6-0.5,1.1-0.9,1.7c-0.2,0.6-0.5,1.1-0.7,1.6
			c-0.2,0.6-0.5,1.1-0.9,1.7c-0.2,0.5-0.5,1-0.9,1.6c-0.2,0.5-0.5,1-0.9,1.6c-0.4,0.5-0.7,1-1.1,1.4c-0.2,0.6-0.5,1.1-0.9,1.6
			c-0.5,0.5-0.9,1-1.2,1.4c-0.4,0.5-0.7,1-1.1,1.4c-0.5,0.5-0.9,1-1.2,1.4c-0.5,0.4-0.9,0.8-1.2,1.3c-0.5,0.5-1,0.9-1.4,1.3
			c-0.5,0.5-1,0.9-1.4,1.3c-0.5,0.4-1,0.8-1.4,1.3c-0.5,0.4-1,0.8-1.6,1.1c-0.5,0.4-1,0.8-1.6,1.1c-0.5,0.4-1,0.8-1.6,1.1
			c-0.6,0.4-1.2,0.7-1.8,1c-0.6,0.4-1.2,0.7-1.8,1c-0.6,0.4-1.2,0.7-1.8,1c-0.7,0.4-1.4,0.7-2,1c-0.7,0.3-1.4,0.6-2,0.9
			c-0.7,0.3-1.4,0.6-2.1,0.9c-0.7,0.3-1.4,0.5-2.1,0.7c-0.7,0.3-1.4,0.6-2.1,0.9c-0.8,0.2-1.6,0.4-2.3,0.7c-0.8,0.2-1.7,0.4-2.5,0.6
			c-0.7,0.2-1.5,0.4-2.3,0.6c-0.8,0.2-1.7,0.4-2.5,0.6c-1,0.2-1.8,0.4-2.7,0.6c-0.8,0.1-1.7,0.2-2.7,0.4c-1,0.1-1.8,0.2-2.7,0.3
			c-1,0.2-1.9,0.3-2.9,0.4s-2,0.2-3,0.3c-1,0.1-1.9,0.1-2.9,0.1c-1.1,0.1-2.1,0.2-3.2,0.3c-1.1,0-2.1,0-3,0
			c-1.2,0.1-2.3,0.1-3.4,0.1c-1.1,0-2.1,0-3.2,0c-1.2,0-2.4,0-3.6-0.1c-0.7,0-1.5,0-2.3,0c-0.8-0.1-1.7-0.2-2.5-0.3
			c-0.8,0-1.6,0-2.3-0.1c-0.8-0.1-1.6-0.2-2.3-0.3c-0.8-0.1-1.6-0.2-2.3-0.3c-0.8-0.2-1.6-0.3-2.3-0.4c-0.8-0.2-1.6-0.3-2.3-0.4
			c-0.7-0.2-1.4-0.4-2.1-0.6c-0.8-0.2-1.6-0.4-2.3-0.6c-0.7-0.2-1.4-0.4-2.1-0.6c-0.7-0.3-1.4-0.5-2.1-0.7c-0.7-0.3-1.4-0.5-2-0.7
			c-0.7-0.3-1.4-0.6-2.1-0.9c-0.6-0.3-1.2-0.6-2-0.9c-0.7-0.3-1.4-0.6-2-0.9c-0.7-0.3-1.4-0.6-2-0.9c-0.6-0.4-1.2-0.7-2-1
			c-0.6-0.4-1.2-0.8-1.8-1.1c-0.6-0.3-1.2-0.6-1.8-1c-0.6-0.4-1.2-0.8-1.8-1.1c-0.6-0.4-1.2-0.8-1.8-1.1c-0.6-0.5-1.2-0.9-1.8-1.3
			c-0.5-0.4-1-0.8-1.6-1.3c-0.6-0.4-1.1-0.8-1.6-1.3c-0.6-0.5-1.1-0.9-1.6-1.4c-0.5-0.4-1-0.8-1.6-1.3c-0.5-0.5-1-1-1.4-1.6
			c-0.5-0.5-1-0.9-1.4-1.4c-0.5-0.5-1-1-1.4-1.6c-0.5-0.5-1-0.9-1.4-1.4c-0.5-0.6-0.9-1.1-1.2-1.7c-0.5-0.5-0.9-1-1.2-1.6
			c-0.5-0.6-0.9-1.1-1.2-1.7c-0.5-0.6-0.9-1.1-1.2-1.7c-0.4-0.6-0.8-1.1-1.2-1.7c-0.4-0.6-0.7-1.1-1.1-1.7c-0.4-0.7-0.7-1.3-1.1-1.9
			c-0.4-0.6-0.7-1.2-1.1-1.9c-0.2-0.6-0.5-1.2-0.9-1.9c-0.4-0.7-0.7-1.3-0.9-1.9c-0.4-0.7-0.7-1.3-0.9-2c-0.2-0.7-0.5-1.3-0.9-2
			c-0.2-0.6-0.5-1.2-0.7-1.9c-0.2-0.8-0.5-1.5-0.7-2.1c-0.2-0.7-0.5-1.3-0.7-2c-0.2-0.7-0.5-1.3-0.7-2c-0.1-0.8-0.3-1.5-0.5-2.1
			c-0.1-0.7-0.3-1.4-0.5-2.1c-0.1-0.7-0.3-1.4-0.5-2.1c-0.1-0.7-0.2-1.4-0.4-2.1c-0.1-0.8-0.2-1.5-0.4-2.1c-0.1-0.8-0.2-1.5-0.4-2.3
			c-0.1-0.7-0.2-1.4-0.4-2.1c0-0.8-0.1-1.5-0.2-2.3c0-0.8-0.1-1.5-0.2-2.3c0-0.8-0.1-1.5-0.2-2.3c0-0.8,0-1.5,0-2.3s0-1.5,0-2.3
			c0-0.8,0-1.5,0-2.3c0-0.8,0.1-1.5,0.2-2.1c0-0.8,0.1-1.5,0.2-2.1c0-0.7,0.1-1.4,0.2-2.1c0-0.7,0.1-1.4,0.2-2.1
			c0.1-0.7,0.2-1.3,0.4-2c0.1-0.8,0.2-1.5,0.4-2.1c0.1-0.8,0.3-1.5,0.5-2.1c0.1-0.7,0.3-1.4,0.5-2.1c0.1-0.7,0.3-1.3,0.5-2
			c0.1-0.8,0.3-1.5,0.5-2.1c0.2-0.7,0.5-1.4,0.7-2.1c0.2-0.7,0.5-1.3,0.7-2c0.2-0.7,0.5-1.3,0.7-2c0.2-0.8,0.5-1.5,0.7-2.1
			c0.4-0.7,0.7-1.3,0.9-2c0.4-0.7,0.7-1.3,0.9-2c0.4-0.7,0.7-1.3,1.1-2c0.2-0.7,0.5-1.3,0.9-2c0.4-0.6,0.7-1.2,1.1-1.9
			c0.4-0.7,0.7-1.3,1.1-2c0.4-0.6,0.8-1.2,1.2-1.9c0.4-0.7,0.7-1.3,1.1-1.9c0.5-0.7,0.9-1.3,1.2-1.9c0.5-0.6,0.9-1.2,1.2-1.9
			c0.5-0.6,1-1.1,1.4-1.7c0.4-0.6,0.8-1.1,1.2-1.7c0.5-0.6,0.9-1.1,1.4-1.7c0.5-0.6,0.9-1.1,1.4-1.7c0.5-0.6,0.9-1.1,1.4-1.7
			c0.5-0.5,0.9-1,1.4-1.6c0.6-0.5,1.1-1,1.6-1.6c0.5-0.5,1-1,1.6-1.6c0.5-0.5,1-0.9,1.6-1.4c0.5-0.5,1-0.9,1.6-1.4
			c0.5-0.5,1-0.9,1.6-1.4c0.6-0.4,1.1-0.8,1.6-1.3c0.6-0.5,1.2-0.9,1.8-1.3c0.6-0.5,1.2-0.9,1.8-1.3c0.6-0.4,1.2-0.8,1.8-1.1
			c0.6-0.4,1.2-0.8,1.8-1.1c0.6-0.4,1.2-0.8,1.8-1.1c0.6-0.4,1.2-0.7,1.8-1c0.7-0.4,1.4-0.7,2-1c0.6-0.3,1.2-0.6,2-0.9
			c0.6-0.3,1.2-0.6,1.8-0.9c0.7-0.3,1.4-0.6,2-0.9c0.7-0.3,1.4-0.5,2-0.7c0.7-0.2,1.4-0.4,2-0.7c0.7-0.2,1.4-0.4,2.1-0.6
			c0.6-0.2,1.2-0.4,2-0.6c0.7-0.1,1.4-0.2,2-0.4c0.7-0.1,1.4-0.2,2.1-0.4c0.7-0.1,1.4-0.2,2-0.3c0.7-0.1,1.4-0.1,2.1-0.1
			c0.7-0.1,1.4-0.2,2.1-0.3c0.7,0,1.4,0,2.1,0c0.7,0,1.4,0,2.1,0c0.7,0,1.4,0,2.1,0c0.7,0,1.4,0.1,2.1,0.1c0.7,0,1.4,0.1,2.1,0.1
			c0.7,0.1,1.4,0.2,2.1,0.3c0.7,0.1,1.4,0.2,2.1,0.3c0.7,0.1,1.4,0.2,2.1,0.3c0.7,0.2,1.4,0.3,2,0.4c0.7,0.2,1.4,0.4,2.1,0.6
			c0.7,0.1,1.4,0.2,2.1,0.4c0.6,0.2,1.2,0.4,2,0.6c0.7,0.3,1.4,0.5,2,0.7c0.7,0.2,1.4,0.4,2,0.7c0.7,0.2,1.4,0.4,2.1,0.7
			c0.6,0.3,1.2,0.6,1.8,0.9c0.7,0.3,1.4,0.6,2,0.9c0.7,0.3,1.4,0.6,2,0.9c0.6,0.3,1.2,0.6,2,0.9c0.6,0.4,1.2,0.7,1.8,1
			c0.6,0.4,1.2,0.8,1.8,1.1c0.6,0.3,1.2,0.6,1.8,1c0.6,0.4,1.2,0.8,1.8,1.1c0.6,0.4,1.2,0.8,1.8,1.3c0.6,0.4,1.2,0.8,1.8,1.1
			c0.6,0.5,1.2,0.9,1.8,1.3c0.5,0.5,1,0.9,1.6,1.3c0.6,0.5,1.1,1,1.6,1.4c0.6,0.4,1.1,0.8,1.6,1.3c0.6,0.5,1.1,1,1.6,1.4
			c0.5,0.5,1,1,1.6,1.6c0.5,0.5,0.9,1,1.4,1.4c0.6,0.6,1.1,1.1,1.6,1.6c0.5,0.5,1,1,1.4,1.6c0.5,0.6,0.9,1.1,1.4,1.6
			c0.5,0.6,0.9,1.1,1.4,1.7c0.5,0.6,0.9,1.1,1.2,1.7c0.5,0.6,0.9,1.1,1.4,1.7c0.4,0.6,0.8,1.1,1.2,1.7c0.4,0.6,0.8,1.1,1.2,1.7
			c0.4,0.7,0.8,1.3,1.2,1.9c0.4,0.6,0.7,1.2,1.1,1.9c0.4,0.6,0.8,1.2,1.2,1.9c0.4,0.7,0.7,1.3,1.1,1.9c0.4,0.7,0.7,1.3,1.1,2
			c0.4,0.6,0.7,1.2,0.9,1.9c0.4,0.7,0.7,1.3,1.1,2c0.2,0.7,0.5,1.3,0.9,2c0.4,0.7,0.7,1.3,0.9,2c0.2,0.7,0.5,1.3,0.9,2
			c0.2,0.8,0.5,1.5,0.7,2.1c0.2,0.7,0.5,1.3,0.9,2c0.2,0.8,0.5,1.5,0.7,2.1c0.2,0.7,0.4,1.4,0.5,2.1c0.2,0.7,0.5,1.4,0.7,2.1
			c0.2,0.7,0.4,1.4,0.5,2.1c0.2,0.7,0.4,1.4,0.5,2.1c0.1,0.8,0.3,1.5,0.5,2.1c0.1,0.8,0.2,1.5,0.4,2.3c0.1,0.7,0.2,1.4,0.4,2.1
			c0.1,0.8,0.2,1.5,0.4,2.3c0.1,0.8,0.2,1.5,0.4,2.1C691.3,433.6,691.4,434.3,691.4,435.1z M645.4,428.1c-0.1-0.9-0.2-1.7-0.4-2.6
			c-0.1-0.9-0.3-1.7-0.5-2.4c-0.1-0.9-0.3-1.7-0.5-2.4c-0.2-0.8-0.5-1.5-0.7-2.3c-0.2-0.8-0.5-1.5-0.7-2.3c-0.2-0.8-0.5-1.5-0.7-2.3
			c-0.4-0.7-0.7-1.4-0.9-2.1c-0.4-0.7-0.7-1.3-1.1-2c-0.4-0.7-0.7-1.3-1.1-2c-0.4-0.7-0.7-1.3-1.1-2c-0.4-0.6-0.8-1.1-1.2-1.7
			c-0.4-0.7-0.8-1.3-1.2-1.9c-0.4-0.6-0.8-1.1-1.2-1.6c-0.5-0.6-1-1.1-1.4-1.7c-0.5-0.5-1-0.9-1.4-1.4c-0.5-0.5-1-0.9-1.6-1.4
			c-0.5-0.4-1-0.8-1.6-1.3c-0.5-0.4-1-0.8-1.6-1.1c-0.6-0.4-1.2-0.8-1.8-1.1c-0.5-0.3-1.1-0.6-1.8-1c-0.6-0.3-1.2-0.6-1.8-0.9
			c-0.6-0.3-1.2-0.5-2-0.7c-0.6-0.2-1.2-0.4-2-0.6c-0.6-0.2-1.2-0.4-2-0.6c-0.7-0.2-1.4-0.3-2.1-0.4c-0.7-0.1-1.4-0.2-2.1-0.3
			c-0.7,0-1.4,0-2.1-0.1c-0.7,0-1.4,0-2.1,0c-0.6,0.1-1.2,0.1-2,0.1c-0.6,0.1-1.2,0.2-1.8,0.4c-0.7,0.1-1.4,0.2-2,0.4
			c-0.6,0.2-1.2,0.4-1.8,0.6c-0.6,0.3-1.2,0.5-1.8,0.7c-0.6,0.3-1.1,0.6-1.6,1c-0.6,0.3-1.1,0.6-1.6,1c-0.6,0.3-1.1,0.6-1.6,1
			c-0.6,0.5-1.1,0.9-1.6,1.3c-0.5,0.5-1,0.9-1.4,1.3c-0.5,0.5-0.9,1-1.2,1.6c-0.5,0.5-1,1-1.4,1.6c-0.4,0.5-0.8,1-1.2,1.6
			c-0.4,0.6-0.7,1.1-1.1,1.7c-0.4,0.7-0.7,1.3-1.1,1.9c-0.4,0.7-0.7,1.3-1.1,1.9c-0.2,0.7-0.5,1.3-0.9,2c-0.2,0.7-0.5,1.4-0.9,2.1
			c-0.2,0.7-0.5,1.4-0.7,2.1c-0.2,0.7-0.5,1.4-0.7,2.1s-0.4,1.5-0.5,2.1c-0.2,0.8-0.4,1.5-0.5,2.3c-0.1,0.8-0.3,1.6-0.5,2.4
			c-0.1,0.8-0.2,1.5-0.2,2.3c-0.1,0.9-0.2,1.7-0.4,2.4c0,0.8-0.1,1.6-0.2,2.4c0,0.8,0,1.6,0,2.4c0,0.8,0,1.5,0,2.3
			c0,0.9,0.1,1.7,0.2,2.4c0,0.8,0.1,1.5,0.2,2.3c0.1,0.7,0.2,1.4,0.4,2.1c0.1,0.8,0.3,1.5,0.5,2.3c0.1,0.7,0.3,1.3,0.5,2
			c0.1,0.8,0.3,1.5,0.5,2.1c0.2,0.7,0.5,1.3,0.9,2c0.2,0.7,0.5,1.3,0.7,2c0.4,0.7,0.7,1.3,1.1,1.9c0.2,0.7,0.5,1.3,0.9,1.9
			c0.4,0.6,0.8,1.1,1.2,1.7c0.4,0.6,0.8,1.1,1.2,1.7c0.4,0.6,0.8,1.1,1.2,1.6c0.5,0.6,0.9,1.1,1.4,1.6c0.5,0.5,0.9,1,1.4,1.4
			c0.6,0.5,1.1,0.9,1.6,1.3c0.6,0.5,1.1,0.9,1.6,1.3c0.6,0.4,1.2,0.8,1.8,1.1c0.6,0.4,1.2,0.7,1.8,1c0.7,0.3,1.4,0.6,2,1
			c0.7,0.3,1.4,0.5,2,0.7c0.7,0.3,1.4,0.5,2.1,0.7c0.7,0.3,1.4,0.5,2.1,0.6c0.7,0.2,1.4,0.4,2.1,0.6c0.8,0.1,1.6,0.2,2.3,0.3
			c0.8,0.1,1.7,0.2,2.5,0.3c0.7,0,1.5,0,2.3,0c0.8,0,1.6,0,2.3,0c0.8,0,1.6,0,2.3-0.1c0.7-0.1,1.4-0.2,2.1-0.4
			c0.7-0.1,1.4-0.2,2.1-0.4c0.7-0.2,1.4-0.4,2.1-0.6c0.6-0.2,1.2-0.4,2-0.7c0.6-0.3,1.2-0.6,1.8-0.9c0.6-0.3,1.2-0.6,1.8-0.9
			c0.6-0.4,1.1-0.8,1.6-1.1c0.6-0.4,1.1-0.8,1.6-1.1c0.6-0.4,1.1-0.8,1.6-1.3c0.5-0.5,1-0.9,1.4-1.3c0.5-0.5,0.9-1,1.2-1.6
			c0.5-0.5,0.9-1,1.2-1.6c0.4-0.5,0.8-1,1.2-1.6c0.4-0.6,0.7-1.1,0.9-1.7c0.4-0.6,0.7-1.1,1.1-1.7c0.2-0.7,0.5-1.3,0.7-1.9
			c0.4-0.7,0.7-1.3,0.9-2c0.2-0.7,0.4-1.3,0.5-2c0.2-0.7,0.4-1.3,0.5-2c0.2-0.7,0.4-1.4,0.5-2.1c0.1-0.7,0.2-1.4,0.4-2.1
			c0.1-0.8,0.2-1.5,0.2-2.1c0.1-0.8,0.2-1.5,0.2-2.3s0-1.5,0-2.3c0-0.8,0-1.5,0-2.3c0-0.8-0.1-1.5-0.2-2.3
			C645.7,429.6,645.5,428.9,645.4,428.1z"/>
	</g>
</g>
</svg>
