<?xml version="1.0" encoding="utf-8"?>
<!-- Generator: Adobe Illustrator 18.0.0, SVG Export Plug-In . SVG Version: 6.00 Build 0)  -->
<!DOCTYPE svg PUBLIC "-//W3C//DTD SVG 1.1//EN" "http://www.w3.org/Graphics/SVG/1.1/DTD/svg11.dtd">
<svg version="1.1" id="Camada_1" xmlns="http://www.w3.org/2000/svg" xmlns:xlink="http://www.w3.org/1999/xlink" x="0px" y="0px"
	 viewBox="0 0 1024 768" enable-background="new 0 0 1024 768" xml:space="preserve">
<g>
	<defs>
		<circle id="SVGID_1_" cx="511.9" cy="383.4" r="375.7"/>
	</defs>
	<clipPath id="SVGID_2_">
		<use xlink:href="#SVGID_1_"  overflow="visible"/>
	</clipPath>
	<g clip-path="url(#SVGID_2_)" enable-background="new    ">
		
			<image overflow="visible" width="2474" height="2474" xlink:href="../../banco de imagens/botões/butt 25.png"  transform="matrix(0.3065 0 0 0.3065 132.8006 4.7999)">
		</image>
	</g>
</g>
<g>
	<g>
		<path d="M234.1,545.9v-0.3c0-0.2,0-0.4,0-0.6c0-0.2,0-0.5,0-0.9c0-0.2,0-0.5,0-0.9c0-0.4,0-0.7,0-0.9c0-0.6,0.1-1,0.3-1.4
			c0-0.4,0-0.9,0-1.4c0.2-0.6,0.3-1.2,0.3-1.7c0.2-0.6,0.3-1.2,0.3-1.7c0.2-0.6,0.3-1.3,0.3-2c0.2-0.8,0.3-1.4,0.3-2
			c0.2-0.8,0.4-1.5,0.6-2.3c0.2-1,0.3-1.8,0.3-2.6c0.2-0.8,0.4-1.6,0.6-2.6c0.2-1,0.4-1.9,0.6-2.9c0.2-1,0.4-1.9,0.6-2.9
			c0.2-1,0.4-1.9,0.6-2.9c0.2-1.2,0.4-2.2,0.6-3.2c0.2-1.2,0.4-2.3,0.6-3.5c0.4-1.2,0.7-2.3,0.9-3.5c0.2-1.2,0.4-2.3,0.6-3.5
			c0.4-1.3,0.7-2.6,0.9-3.7c0.2-1.3,0.5-2.6,0.9-3.7c0.2-1.3,0.5-2.7,0.9-4c0.2-1.3,0.5-2.7,0.9-4c0.2-1.3,0.5-2.7,0.9-4
			c0.2-1.3,0.5-2.8,0.9-4.3c0.2-1.3,0.5-2.7,0.9-4c0.4-1.5,0.7-3.1,0.9-4.6c0.4-1.3,0.8-2.8,1.2-4.3c0.2-1.5,0.5-3.1,0.9-4.6
			c0.4-1.5,0.8-3.1,1.2-4.6c0.2-1.5,0.5-3.1,0.9-4.6c0.4-1.5,0.8-3.2,1.2-4.9c0.4-1.5,0.8-3.1,1.2-4.6c0.4-1.7,0.7-3.4,0.9-4.9
			c0.4-1.7,0.8-3.4,1.2-4.9c0.4-1.7,0.8-3.4,1.2-4.9c0.4-1.7,0.8-3.5,1.2-5.2c0.4-1.7,0.8-3.4,1.2-4.9c0.4-1.7,0.8-3.5,1.2-5.2
			c0.4-1.7,0.8-3.5,1.2-5.2c0.4-1.7,0.8-3.4,1.2-4.9c0.4-1.7,0.8-3.5,1.2-5.2c0.4-1.7,0.8-3.5,1.2-5.2c0.4-1.7,0.9-3.5,1.5-5.2
			c0.4-1.7,0.8-3.5,1.2-5.2c0.4-1.7,0.8-3.5,1.2-5.2c0.4-1.7,0.8-3.5,1.2-5.2c0.4-1.7,0.8-3.5,1.2-5.2c0.4-1.7,0.8-3.5,1.2-5.2
			c0.6-1.7,1.1-3.5,1.5-5.2c0.4-1.7,0.8-3.4,1.2-4.9c0.4-1.7,0.8-3.5,1.2-5.2c0.4-1.7,0.8-3.5,1.2-5.2c0.4-1.5,0.8-3.2,1.2-4.9
			c0.4-1.7,0.8-3.5,1.2-5.2c0.6-1.5,1.1-3.2,1.5-4.9c0.4-1.5,0.8-3.2,1.2-4.9c0.4-1.5,0.8-3.2,1.2-4.9c0.4-1.5,0.8-3.1,1.2-4.6
			c0.4-1.7,0.8-3.4,1.2-4.9c0.4-1.5,0.8-3.1,1.2-4.6c0.4-1.5,0.8-3.1,1.2-4.6c0.2-1.5,0.5-3.1,0.9-4.6c0.4-1.3,0.8-2.8,1.2-4.3
			c0.4-1.5,0.8-3,1.2-4.3c0.4-1.5,0.8-3,1.2-4.3c0.2-1.3,0.5-2.8,0.9-4.3c0.4-1.3,0.8-2.7,1.2-4c0.2-1.3,0.5-2.7,0.9-4
			c0.4-1.3,0.8-2.6,1.2-3.7c0.2-1.3,0.5-2.6,0.9-3.7c0.4-1.3,0.7-2.6,0.9-3.7c0.4-1.2,0.7-2.3,0.9-3.5c0.4-1.2,0.7-2.3,0.9-3.5
			c0.4-1.2,0.7-2.3,0.9-3.5c0.4-1,0.7-2,0.9-3.2c0.4-1,0.7-1.9,0.9-2.9c0.2-1,0.5-1.9,0.9-2.9c0.2-1,0.4-1.9,0.6-2.9
			c0.2-0.8,0.5-1.6,0.9-2.6c0.2-0.8,0.4-1.5,0.6-2.3c0.2-0.8,0.4-1.5,0.6-2.3c0.2-0.8,0.4-1.5,0.6-2.3c0.2-0.6,0.4-1.3,0.6-2
			c0.2-0.6,0.4-1.2,0.6-1.7c0.2-0.6,0.4-1,0.6-1.4c0.2-0.6,0.3-1,0.3-1.4c0.2-0.6,0.4-1,0.6-1.4c0-0.4,0.1-0.7,0.3-0.9
			c0.2-0.4,0.3-0.7,0.3-0.9c0.2-0.4,0.3-0.7,0.3-0.9c0.2,0,0.3-0.1,0.3-0.3c0-0.2,0.1-0.3,0.3-0.3c0.4-0.4,0.8-0.6,1.2-0.6
			c0.6-0.4,1.2-0.6,1.8-0.6c1-0.2,1.9-0.4,2.8-0.6c1.2-0.2,2.4-0.3,3.7-0.3c1.2-0.2,2.4-0.3,3.7-0.3c1.6-0.2,3.2-0.3,4.6-0.3
			c1.6,0,3.2-0.1,4.6-0.3c1.8,0,3.6,0,5.2,0c1.8,0,3.6,0,5.2,0c1.8,0,3.7,0,5.5,0c1.8,0,3.7,0,5.5,0c1.6,0.2,3.4,0.3,5.2,0.3
			s3.6,0.1,5.2,0.3c1.8,0,3.6,0.1,5.2,0.3c1.6,0,3.2,0.1,4.6,0.3c1.6,0,3.2,0.1,4.6,0.3c1.2,0.2,2.4,0.3,3.7,0.3
			c1.2,0.2,2.3,0.4,3.4,0.6c1,0.2,1.9,0.4,2.7,0.6c0.6,0,1.2,0.1,1.8,0.3c0.4,0.2,0.8,0.4,1.2,0.6c0.2,0.2,0.4,0.4,0.6,0.6
			c0,0.4,0.1,0.8,0.3,1.2c0.2,0.6,0.4,1.2,0.6,1.7c0.2,0.8,0.4,1.5,0.6,2.3c0.4,0.8,0.7,1.6,0.9,2.6c0.2,1,0.4,1.9,0.6,2.9
			c0.4,1.2,0.7,2.3,0.9,3.5c0.4,1.3,0.7,2.6,0.9,3.7c0.4,1.3,0.7,2.7,0.9,4c0.4,1.5,0.7,3,0.9,4.3c0.4,1.5,0.7,3.1,0.9,4.6
			c0.4,1.5,0.8,3.2,1.2,4.9c0.2,1.5,0.5,3.2,0.9,4.9c0.4,1.7,0.7,3.5,0.9,5.2c0.4,1.7,0.8,3.5,1.2,5.2c0.2,1.7,0.5,3.5,0.9,5.2
			c0.4,1.9,0.7,3.7,0.9,5.5c0.4,1.7,0.8,3.5,1.2,5.2c0.2,1.9,0.5,3.7,0.9,5.5c0.4,1.7,0.7,3.5,0.9,5.2c0.4,1.7,0.7,3.5,0.9,5.2
			c0.4,1.7,0.7,3.5,0.9,5.2c0.4,1.5,0.7,3.2,0.9,4.9c0.4,1.5,0.7,3.1,0.9,4.6c0.2,1.5,0.5,3,0.9,4.3c0.2,1.5,0.4,3,0.6,4.3
			c0.2,1.3,0.5,2.6,0.9,3.7c0.2,1.3,0.4,2.6,0.6,3.7c0.2,1,0.3,2,0.3,3.2c0.2,1,0.4,1.9,0.6,2.9c0.2,0.8,0.3,1.5,0.3,2.3
			c0.2,0.6,0.4,1.2,0.6,1.7c0,0.6,0,1.1,0,1.4c0.2,0.4,0.3,0.7,0.3,0.9v0.3v-0.3c0-0.2,0.1-0.5,0.3-0.9c0-0.4,0.1-0.8,0.3-1.2
			c0-0.6,0.1-1.2,0.3-2c0-0.8,0.1-1.4,0.3-2c0.2-1,0.4-1.9,0.6-2.9c0.2-1,0.4-1.9,0.6-2.9c0.2-1.2,0.4-2.3,0.6-3.5
			c0.2-1.3,0.4-2.6,0.6-3.7c0.2-1.3,0.5-2.7,0.9-4c0.2-1.5,0.4-3,0.6-4.3c0.4-1.5,0.7-3.1,0.9-4.6c0.4-1.5,0.7-3.1,0.9-4.6
			c0.4-1.7,0.8-3.4,1.2-4.9c0.2-1.7,0.5-3.5,0.9-5.2c0.4-1.7,0.7-3.5,0.9-5.2c0.4-1.7,0.8-3.5,1.2-5.2c0.4-1.7,0.7-3.5,0.9-5.2
			c0.4-1.7,0.8-3.5,1.2-5.2c0.4-1.7,0.8-3.5,1.2-5.2c0.4-1.7,0.7-3.5,0.9-5.2c0.4-1.7,0.8-3.5,1.2-5.2c0.4-1.7,0.8-3.4,1.2-4.9
			c0.4-1.7,0.7-3.4,0.9-4.9c0.4-1.5,0.8-3.1,1.2-4.6c0.4-1.5,0.8-3.1,1.2-4.6c0.2-1.3,0.5-2.8,0.9-4.3c0.4-1.3,0.7-2.6,0.9-3.7
			c0.4-1.3,0.8-2.6,1.2-3.7c0.2-1.2,0.5-2.3,0.9-3.5c0.2-1,0.5-1.9,0.9-2.9c0.2-0.8,0.5-1.6,0.9-2.6c0.2-0.8,0.4-1.4,0.6-2
			c0.4-0.6,0.7-1.2,0.9-1.7c0.2-0.4,0.4-0.8,0.6-1.2c0.2-0.4,0.4-0.6,0.6-0.6c0.2-0.2,0.4-0.3,0.6-0.3c0.4,0,0.8,0,1.2,0
			c0.8,0,1.6,0,2.4,0c1-0.2,2-0.3,3.1-0.3c1.2,0,2.3-0.1,3.4-0.3c1.4,0,2.9,0,4.3,0c1.6-0.2,3.2-0.3,4.6-0.3
			c1.8-0.2,3.6-0.3,5.2-0.3c1.6,0,3.4-0.1,5.2-0.3c1.8,0,3.7,0,5.5,0c1.8-0.2,3.7-0.3,5.5-0.3c1.8,0,3.7,0,5.5,0
			c1.8-0.2,3.7-0.3,5.5-0.3c1.6,0,3.4,0,5.2,0c1.6,0,3.3,0,4.9,0c1.6,0,3.2,0.1,4.6,0.3c1.4,0,2.7,0,4,0c1.2,0.2,2.4,0.3,3.7,0.3
			c1,0.2,1.9,0.4,2.7,0.6c0.8,0,1.5,0.1,2.1,0.3c0.4,0.2,0.8,0.5,1.2,0.9h0.3c0,0.2,0.1,0.4,0.3,0.6c0,0.2,0.1,0.4,0.3,0.6
			c0,0.4,0.1,0.7,0.3,0.9c0,0.4,0.1,0.8,0.3,1.2s0.3,0.8,0.3,1.2c0.2,0.6,0.4,1.1,0.6,1.4c0.2,0.6,0.4,1.2,0.6,1.7
			c0.2,0.6,0.3,1.2,0.3,1.7c0.2,0.8,0.4,1.4,0.6,2c0.2,0.8,0.4,1.4,0.6,2c0.4,0.8,0.7,1.5,0.9,2.3c0.2,1,0.4,1.8,0.6,2.6
			c0.2,1,0.4,1.8,0.6,2.6c0.4,1,0.7,1.9,0.9,2.9c0.2,1,0.5,1.9,0.9,2.9c0.2,1,0.4,1.9,0.6,2.9c0.4,1.2,0.7,2.2,0.9,3.2
			c0.4,1.2,0.7,2.3,0.9,3.5c0.4,1.2,0.7,2.3,0.9,3.5c0.4,1.2,0.7,2.3,0.9,3.5c0.4,1.3,0.8,2.6,1.2,3.7c0.2,1.3,0.5,2.6,0.9,3.7
			c0.4,1.3,0.7,2.7,0.9,4c0.4,1.3,0.8,2.7,1.2,4c0.4,1.3,0.7,2.7,0.9,4c0.4,1.3,0.8,2.8,1.2,4.3c0.4,1.3,0.8,2.8,1.2,4.3
			c0.4,1.3,0.8,2.8,1.2,4.3c0.2,1.5,0.5,3,0.9,4.3c0.4,1.5,0.8,3.1,1.2,4.6c0.4,1.5,0.8,3.1,1.2,4.6c0.4,1.5,0.8,3.2,1.2,4.9
			c0.4,1.5,0.8,3.1,1.2,4.6c0.4,1.7,0.8,3.4,1.2,4.9c0.4,1.5,0.8,3.2,1.2,4.9c0.4,1.5,0.8,3.2,1.2,4.9c0.4,1.7,0.8,3.4,1.2,4.9
			c0.4,1.7,0.8,3.5,1.2,5.2c0.6,1.5,1.1,3.2,1.5,4.9c0.4,1.7,0.8,3.5,1.2,5.2c0.4,1.7,0.8,3.5,1.2,5.2c0.4,1.7,0.8,3.5,1.2,5.2
			c0.4,1.5,0.8,3.2,1.2,4.9c0.6,1.7,1.1,3.5,1.5,5.2c0.4,1.7,0.8,3.5,1.2,5.2c0.4,1.7,0.8,3.5,1.2,5.2c0.4,1.9,0.8,3.7,1.2,5.5
			c0.4,1.7,0.9,3.5,1.5,5.2c0.4,1.7,0.8,3.5,1.2,5.2c0.4,1.7,0.8,3.5,1.2,5.2c0.4,1.7,0.8,3.5,1.2,5.2c0.4,1.5,0.8,3.2,1.2,4.9
			c0.4,1.7,0.8,3.5,1.2,5.2c0.4,1.7,0.8,3.5,1.2,5.2c0.4,1.7,0.8,3.4,1.2,4.9c0.4,1.7,0.8,3.5,1.2,5.2c0.4,1.5,0.8,3.2,1.2,4.9
			c0.4,1.7,0.8,3.4,1.2,4.9c0.4,1.7,0.8,3.4,1.2,4.9c0.4,1.5,0.8,3.2,1.2,4.9c0.4,1.5,0.7,3.1,0.9,4.6c0.4,1.7,0.8,3.4,1.2,4.9
			c0.4,1.5,0.8,3.1,1.2,4.6c0.2,1.5,0.5,3.1,0.9,4.6c0.4,1.3,0.8,2.8,1.2,4.3c0.2,1.5,0.5,3,0.9,4.3c0.4,1.5,0.7,3,0.9,4.3
			c0.4,1.5,0.7,3,0.9,4.3c0.4,1.3,0.8,2.7,1.2,4c0.2,1.3,0.5,2.7,0.9,4c0.2,1.3,0.5,2.7,0.9,4c0.2,1.2,0.4,2.4,0.6,3.7
			c0.4,1.2,0.7,2.4,0.9,3.7c0.2,1.2,0.5,2.3,0.9,3.5c0.2,1.2,0.4,2.3,0.6,3.5c0.2,1.2,0.5,2.3,0.9,3.5c0.2,1,0.4,2,0.6,3.2
			c0.2,1,0.4,1.9,0.6,2.9s0.4,1.9,0.6,2.9c0.2,1,0.4,1.9,0.6,2.9c0.2,0.8,0.4,1.6,0.6,2.6c0,0.8,0.1,1.6,0.3,2.6
			c0.2,0.8,0.4,1.5,0.6,2.3c0,0.6,0.1,1.3,0.3,2c0.2,0.6,0.3,1.3,0.3,2c0.2,0.6,0.3,1.2,0.3,1.7c0.2,0.6,0.3,1.2,0.3,1.7
			c0.2,0.4,0.3,0.9,0.3,1.4c0,0.4,0.1,0.8,0.3,1.2c0,0.4,0,0.8,0,1.2c0,0.2,0,0.5,0,0.9c0,0.2,0,0.4,0,0.6c0,0.2,0,0.4,0,0.6v0.3
			c-0.2,0.2-0.5,0.3-0.9,0.3c-0.4,0.2-0.8,0.4-1.2,0.6c-0.8,0.2-1.5,0.3-2.1,0.3c-0.8,0.2-1.7,0.4-2.8,0.6c-1,0-2,0.1-3.1,0.3
			c-1.2,0-2.4,0.1-3.7,0.3c-1.4,0-2.7,0.1-4,0.3c-1.6,0-3.2,0.1-4.6,0.3c-1.6,0-3.3,0-4.9,0c-1.6,0.2-3.3,0.3-4.9,0.3
			c-1.8,0-3.6,0-5.2,0c-1.8,0.2-3.7,0.3-5.5,0.3c-1.8,0-3.7,0-5.5,0c-1.8,0-3.7,0-5.5,0c-1.8,0-3.7,0-5.5,0c-2,0-4,0-5.8,0
			s-3.7-0.1-5.5-0.3c-1.6,0-3.4,0-5.2,0c-1.6,0-3.4-0.1-5.2-0.3c-1.6,0-3.3,0-4.9,0c-1.4-0.2-3-0.3-4.6-0.3c-1.2-0.2-2.6-0.3-4-0.3
			c-1.4-0.2-2.8-0.3-4-0.3c-1-0.2-2.1-0.3-3.4-0.3c-1-0.2-1.9-0.4-2.7-0.6c-0.8,0-1.6-0.1-2.4-0.3c-0.6-0.2-1.1-0.4-1.5-0.6
			c-0.4,0-0.8-0.1-1.2-0.3c-0.2-0.2-0.3-0.5-0.3-0.9c-0.2-0.2-0.4-0.5-0.6-0.9c-0.2-0.6-0.4-1.1-0.6-1.4c-0.2-0.8-0.4-1.4-0.6-2
			c-0.2-0.8-0.4-1.5-0.6-2.3c-0.4-0.8-0.7-1.6-0.9-2.6c-0.2-1-0.4-1.9-0.6-2.9c-0.4-1.2-0.7-2.3-0.9-3.5c-0.4-1.2-0.7-2.3-0.9-3.5
			c-0.2-1.3-0.5-2.7-0.9-4c-0.2-1.3-0.5-2.7-0.9-4c-0.2-1.5-0.5-3-0.9-4.3c-0.4-1.5-0.7-3.1-0.9-4.6c-0.4-1.5-0.7-3.1-0.9-4.6
			c-0.4-1.7-0.8-3.4-1.2-4.9c-0.2-1.7-0.5-3.5-0.9-5.2c-0.4-1.7-0.7-3.5-0.9-5.2c-0.4-1.7-0.8-3.5-1.2-5.2c-0.2-1.7-0.5-3.5-0.9-5.2
			c-0.4-1.7-0.7-3.6-0.9-5.5c-0.4-1.7-0.8-3.5-1.2-5.2c-0.2-1.7-0.5-3.5-0.9-5.5c-0.4-1.7-0.7-3.5-0.9-5.2c-0.4-1.7-0.7-3.5-0.9-5.2
			c-0.4-1.7-0.7-3.5-0.9-5.2c-0.4-1.7-0.7-3.5-0.9-5.2c-0.4-1.5-0.7-3.2-0.9-4.9c-0.4-1.5-0.7-3.1-0.9-4.6c-0.4-1.5-0.7-3.1-0.9-4.6
			c-0.2-1.5-0.4-3.1-0.6-4.6c-0.4-1.3-0.7-2.7-0.9-4c-0.2-1.3-0.4-2.7-0.6-4c-0.2-1.2-0.4-2.4-0.6-3.7c-0.2-1.2-0.4-2.3-0.6-3.5
			c-0.2-1-0.4-1.9-0.6-2.9c-0.2-1-0.4-1.9-0.6-2.9c0-0.8-0.1-1.5-0.3-2.3c0-0.8-0.1-1.4-0.3-2c-0.2-0.6-0.3-1.2-0.3-1.7
			c0-0.4-0.1-0.8-0.3-1.2c0-0.2,0-0.4,0-0.6v-0.3v0.3c-0.2,0.2-0.3,0.4-0.3,0.6c-0.2,0.4-0.3,0.8-0.3,1.2c-0.2,0.6-0.4,1.2-0.6,1.7
			c-0.2,0.8-0.4,1.4-0.6,2c-0.4,0.8-0.7,1.5-0.9,2.3c-0.2,1-0.5,1.9-0.9,2.9c-0.4,1-0.7,2-0.9,3.2c-0.4,1.2-0.8,2.3-1.2,3.5
			c-0.4,1.2-0.8,2.3-1.2,3.5c-0.4,1.3-0.8,2.7-1.2,4c-0.6,1.3-1.1,2.8-1.5,4.3c-0.4,1.3-0.9,2.8-1.5,4.3c-0.4,1.5-0.9,3.1-1.5,4.6
			c-0.4,1.5-0.9,3.1-1.5,4.6c-0.6,1.5-1.1,3.2-1.5,4.9c-0.6,1.5-1.2,3.2-1.8,4.9c-0.6,1.7-1.2,3.4-1.8,4.9c-0.6,1.7-1.1,3.5-1.5,5.2
			c-0.6,1.7-1.2,3.5-1.8,5.2c-0.6,1.7-1.2,3.4-1.8,4.9c-0.6,1.7-1.2,3.5-1.8,5.2c-0.6,1.7-1.2,3.5-1.8,5.2c-0.6,1.5-1.2,3.2-1.8,4.9
			c-0.6,1.5-1.2,3.2-1.8,4.9c-0.6,1.5-1.2,3.1-1.8,4.6c-0.4,1.5-0.9,3.1-1.5,4.6c-0.6,1.5-1.2,3.1-1.8,4.6c-0.6,1.3-1.1,2.7-1.5,4
			c-8.2,12.9-24,9.3-28.4-0.6c-0.1-1.5-1.2-2.8-1.8-4.3c-0.6-1.3-1.1-2.8-1.5-4.3c-0.6-1.3-1.2-2.8-1.8-4.3
			c-0.6-1.5-1.2-3.1-1.8-4.6c-0.8-1.7-1.5-3.4-2.1-4.9c-0.6-1.5-1.2-3.2-1.8-4.9c-0.6-1.5-1.2-3.2-1.8-4.9c-0.6-1.5-1.2-3.2-1.8-4.9
			c-0.6-1.5-1.2-3.2-1.8-4.9c-0.6-1.7-1.2-3.4-1.8-4.9c-0.6-1.7-1.2-3.4-1.8-4.9c-0.6-1.7-1.2-3.4-1.8-4.9c-0.6-1.5-1.2-3.2-1.8-4.9
			c-0.6-1.5-1.2-3.1-1.8-4.6c-0.4-1.5-0.9-3.1-1.5-4.6c-0.6-1.3-1.1-2.8-1.5-4.3c-0.6-1.3-1.1-2.7-1.5-4c-0.6-1.3-1.1-2.7-1.5-4
			c-0.4-1.3-0.8-2.7-1.2-4c-0.6-1.2-1.1-2.3-1.5-3.5c-0.4-1-0.7-2-0.9-3.2c-0.4-1-0.8-2-1.2-3.2c-0.2-0.8-0.5-1.6-0.9-2.6
			c-0.2-0.8-0.5-1.5-0.9-2.3c-0.2-0.6-0.4-1.2-0.6-2c-0.2-0.4-0.4-0.9-0.6-1.4c0-0.4-0.1-0.8-0.3-1.2c-0.2-0.2-0.3-0.4-0.3-0.6v-0.3
			v0.3c0,0.2,0,0.4,0,0.6c-0.2,0.4-0.3,0.8-0.3,1.2c0,0.6-0.1,1.2-0.3,1.7c0,0.8,0,1.4,0,2c-0.2,1-0.3,1.8-0.3,2.6
			c-0.2,1-0.4,1.9-0.6,2.9c0,1-0.1,2-0.3,3.2c-0.2,1.2-0.3,2.3-0.3,3.5c-0.2,1.2-0.4,2.4-0.6,3.7c-0.2,1.3-0.4,2.7-0.6,4
			c0,1.3-0.1,2.8-0.3,4.3c-0.2,1.3-0.4,2.8-0.6,4.3c-0.2,1.5-0.4,3.2-0.6,4.9c-0.2,1.5-0.4,3.1-0.6,4.6c-0.4,1.7-0.7,3.5-0.9,5.2
			c-0.2,1.7-0.4,3.5-0.6,5.2c-0.2,1.7-0.4,3.5-0.6,5.2c-0.4,1.7-0.7,3.5-0.9,5.2c-0.2,1.7-0.4,3.5-0.6,5.5c-0.4,1.7-0.7,3.5-0.9,5.2
			c-0.2,1.9-0.4,3.7-0.6,5.5c-0.4,1.7-0.7,3.5-0.9,5.2c-0.2,1.7-0.5,3.6-0.9,5.5c-0.2,1.7-0.4,3.5-0.6,5.2c-0.4,1.5-0.7,3.2-0.9,4.9
			c-0.2,1.7-0.5,3.5-0.9,5.2c-0.2,1.5-0.4,3.1-0.6,4.6c-0.4,1.5-0.7,3.1-0.9,4.6c-0.2,1.5-0.4,3.1-0.6,4.6c-0.4,1.3-0.7,2.7-0.9,4
			c-0.2,1.3-0.5,2.7-0.9,4c-0.2,1.2-0.4,2.4-0.6,3.7c-0.2,1.2-0.5,2.3-0.9,3.5c-0.2,1-0.4,1.9-0.6,2.9c-0.2,1-0.4,1.9-0.6,2.9
			c-0.2,0.8-0.5,1.5-0.9,2.3c-0.2,0.6-0.4,1.2-0.6,1.7c-0.2,0.6-0.4,1.2-0.6,1.7c-0.2,0.4-0.4,0.7-0.6,0.9c0,0.4-0.2,0.7-0.6,0.9
			c-0.2,0.2-0.5,0.3-0.9,0.3c-0.6,0.2-1.2,0.4-1.8,0.6c-0.8,0.2-1.6,0.3-2.5,0.3c-0.8,0.2-1.7,0.4-2.7,0.6c-1.2,0.2-2.3,0.3-3.4,0.3
			c-1.2,0.2-2.6,0.3-4,0.3c-1.2,0.2-2.6,0.3-4,0.3c-1.6,0.2-3.2,0.3-4.6,0.3c-1.6,0.2-3.3,0.3-4.9,0.3c-1.6,0.2-3.3,0.3-4.9,0.3
			c-1.8,0-3.6,0-5.2,0c-1.8,0.2-3.7,0.3-5.5,0.3c-1.8,0-3.7,0-5.5,0c-1.8,0-3.7,0-5.5,0s-3.7,0-5.5,0c-1.6,0-3.4,0-5.2,0
			c-1.8,0-3.7,0-5.5,0c-1.6,0-3.3-0.1-4.9-0.3c-1.8,0-3.6,0-5.2,0c-1.4,0-3-0.1-4.6-0.3c-1.4,0-2.9-0.1-4.3-0.3
			c-1.4,0-2.8-0.1-4-0.3c-1.2,0-2.4-0.1-3.7-0.3c-1-0.2-2-0.3-3.1-0.3c-1-0.2-1.9-0.4-2.8-0.6c-0.8-0.2-1.5-0.4-2.1-0.6
			c-0.6,0-1.1-0.1-1.5-0.3C234.8,546.3,234.5,546.1,234.1,545.9z"/>
		<path fill="#FFFFFF" d="M257.8,522.5v-0.2c0-0.2,0-0.3,0-0.5c0-0.2,69.9-279.5,69.9-279.7c0.2,0,58.1-0.2,59.4,0
			c1.1,0.2,34.6,137.7,34.6,137.7s36.8-136.4,37-136.7c0.2-0.3,66.5-0.5,66.5-0.5c0,0.2,61.8,279.9,61.8,279.9
			c-0.2,0.2-63.7,0.2-64,0c-0.2-0.2-40.4-175.6-40.4-175.6S434.3,473.3,434,473.8c-6.3,13.8-17.8,13.8-23.9,0
			c-0.4-0.6-45.2-129.1-45.2-129.1s-37,178.4-37.5,178.6C326.7,523.3,258.2,522.6,257.8,522.5z"/>
	</g>
	<g>
		<path d="M773.9,446.7c0.1,0.9,0.2,1.8,0.2,2.6c0.1,0.9,0.2,1.8,0.2,2.6c0,0.9,0.1,1.8,0.2,2.6c0,0.9,0,1.8,0,2.6
			c0,0.8,0.1,1.7,0.2,2.6c0,0.8,0,1.6,0,2.4c0,0.9,0,1.8,0,2.6c0,0.8-0.1,1.6-0.2,2.4c0,0.8,0,1.6,0,2.4c0,0.8-0.1,1.7-0.2,2.6
			c0,0.8,0,1.6,0,2.4c-0.1,0.7-0.3,1.4-0.4,2.2c0,0.8-0.1,1.6-0.2,2.4c-0.1,0.8-0.2,1.6-0.2,2.4c-0.1,0.7-0.3,1.4-0.4,2.2
			c-0.1,0.8-0.3,1.5-0.4,2.2c-0.1,0.8-0.3,1.5-0.4,2.2c-0.3,0.8-0.5,1.5-0.6,2.2c-0.1,0.8-0.4,1.5-0.6,2.2c-0.1,0.7-0.4,1.4-0.6,2.2
			c-0.1,0.7-0.4,1.4-0.6,2.1c-0.3,0.7-0.6,1.4-0.9,2.1c-0.1,0.7-0.4,1.4-0.6,2.1c-0.3,0.7-0.6,1.4-1.1,2.1c-0.3,0.7-0.6,1.3-0.9,1.9
			c-0.3,0.7-0.6,1.4-1.1,2.1c-0.3,0.6-0.6,1.2-1.1,1.9c-0.3,0.6-0.6,1.2-1.1,1.9c-0.4,0.6-0.9,1.1-1.3,1.7c-0.3,0.7-0.6,1.3-1.1,1.9
			c-0.6,0.6-1.1,1.1-1.5,1.7c-0.4,0.6-0.9,1.1-1.3,1.7c-0.6,0.6-1.1,1.1-1.5,1.7c-0.6,0.5-1.1,1-1.5,1.5c-0.6,0.6-1.1,1.1-1.7,1.5
			c-0.6,0.6-1.1,1.1-1.7,1.5c-0.6,0.5-1.2,1-1.7,1.5c-0.6,0.5-1.2,0.9-1.9,1.4c-0.6,0.5-1.2,0.9-1.9,1.4c-0.6,0.5-1.2,0.9-1.9,1.4
			c-0.7,0.5-1.4,0.9-2.2,1.2c-0.7,0.5-1.4,0.9-2.2,1.2c-0.7,0.5-1.4,0.9-2.2,1.2c-0.9,0.5-1.7,0.9-2.4,1.2c-0.9,0.3-1.7,0.7-2.4,1
			c-0.9,0.3-1.7,0.7-2.6,1c-0.9,0.3-1.7,0.6-2.6,0.9c-0.9,0.3-1.7,0.7-2.6,1c-1,0.2-1.9,0.5-2.8,0.9c-1,0.2-2,0.5-3,0.7
			c-0.9,0.2-1.8,0.5-2.8,0.7c-1,0.2-2,0.5-3,0.7c-1.2,0.2-2.2,0.5-3.2,0.7c-1,0.1-2.1,0.3-3.2,0.5c-1.2,0.1-2.2,0.2-3.2,0.3
			c-1.2,0.2-2.3,0.4-3.4,0.5c-1.1,0.1-2.4,0.2-3.7,0.3c-1.1,0.1-2.3,0.2-3.4,0.2c-1.3,0.1-2.6,0.2-3.9,0.3c-1.3,0-2.5,0-3.7,0
			c-1.4,0.1-2.8,0.2-4.1,0.2c-1.3,0-2.6,0-3.9,0c-1.4,0-2.9-0.1-4.3-0.2c-0.9,0-1.8,0-2.8,0c-1-0.1-2-0.2-3-0.3
			c-1,0-1.9-0.1-2.8-0.2c-1-0.1-1.9-0.2-2.8-0.3c-1-0.1-1.9-0.2-2.8-0.3c-1-0.2-1.9-0.4-2.8-0.5c-1-0.2-1.9-0.4-2.8-0.5
			c-0.9-0.2-1.7-0.5-2.6-0.7c-1-0.2-1.9-0.5-2.8-0.7c-0.9-0.2-1.7-0.5-2.6-0.7c-0.9-0.3-1.7-0.6-2.6-0.9c-0.9-0.3-1.7-0.6-2.4-0.9
			c-0.9-0.3-1.7-0.7-2.6-1c-0.7-0.3-1.5-0.7-2.4-1c-0.9-0.3-1.7-0.7-2.4-1c-0.9-0.3-1.7-0.7-2.4-1c-0.7-0.5-1.5-0.9-2.4-1.2
			c-0.7-0.5-1.4-0.9-2.2-1.4c-0.7-0.3-1.4-0.7-2.2-1.2c-0.7-0.5-1.4-0.9-2.2-1.4c-0.7-0.5-1.4-0.9-2.2-1.4c-0.7-0.6-1.4-1.1-2.2-1.5
			c-0.6-0.5-1.2-1-1.9-1.5c-0.7-0.5-1.4-1-1.9-1.5c-0.7-0.6-1.4-1.1-1.9-1.7c-0.6-0.5-1.2-1-1.9-1.5c-0.6-0.6-1.2-1.2-1.7-1.9
			c-0.6-0.6-1.2-1.1-1.7-1.7c-0.6-0.6-1.2-1.2-1.7-1.9c-0.6-0.6-1.2-1.1-1.7-1.7c-0.6-0.7-1.1-1.4-1.5-2.1c-0.6-0.6-1.1-1.2-1.5-1.9
			c-0.6-0.7-1.1-1.4-1.5-2.1c-0.6-0.7-1.1-1.4-1.5-2.1c-0.4-0.7-0.9-1.4-1.5-2.1c-0.4-0.7-0.9-1.4-1.3-2.1c-0.4-0.8-0.9-1.5-1.3-2.2
			c-0.4-0.7-0.9-1.4-1.3-2.2c-0.3-0.7-0.6-1.4-1.1-2.2c-0.4-0.8-0.8-1.5-1.1-2.2c-0.4-0.8-0.8-1.6-1.1-2.4c-0.3-0.8-0.6-1.6-1.1-2.4
			c-0.3-0.7-0.6-1.4-0.9-2.2c-0.3-0.9-0.6-1.8-0.9-2.6c-0.3-0.8-0.6-1.6-0.9-2.4c-0.3-0.8-0.6-1.6-0.9-2.4c-0.1-0.9-0.4-1.8-0.6-2.6
			c-0.1-0.8-0.4-1.7-0.6-2.6c-0.1-0.8-0.4-1.7-0.6-2.6c-0.1-0.8-0.3-1.7-0.4-2.6c-0.1-0.9-0.3-1.8-0.4-2.6c-0.1-0.9-0.3-1.8-0.4-2.8
			c-0.1-0.8-0.3-1.7-0.4-2.6c0-0.9-0.1-1.8-0.2-2.8c0-0.9-0.1-1.8-0.2-2.8c0-0.9-0.1-1.8-0.2-2.8c0-0.9,0-1.8,0-2.8
			c0-0.9,0-1.8,0-2.8c0-0.9,0-1.8,0-2.8c0-0.9,0.1-1.8,0.2-2.6c0-0.9,0.1-1.8,0.2-2.6c0-0.8,0.1-1.7,0.2-2.6c0-0.8,0.1-1.7,0.2-2.6
			c0.1-0.8,0.3-1.6,0.4-2.4c0.1-0.9,0.3-1.8,0.4-2.6c0.1-0.9,0.4-1.8,0.6-2.6c0.1-0.8,0.4-1.7,0.6-2.6c0.1-0.8,0.4-1.6,0.6-2.4
			c0.1-0.9,0.4-1.8,0.6-2.6c0.3-0.8,0.6-1.7,0.9-2.6c0.3-0.8,0.6-1.6,0.9-2.4c0.3-0.8,0.6-1.6,0.9-2.4c0.3-0.9,0.6-1.8,0.9-2.6
			c0.4-0.8,0.8-1.6,1.1-2.4c0.4-0.8,0.8-1.6,1.1-2.4c0.4-0.8,0.9-1.6,1.3-2.4c0.3-0.8,0.6-1.6,1.1-2.4c0.4-0.7,0.9-1.4,1.3-2.2
			c0.4-0.8,0.9-1.6,1.3-2.4c0.4-0.7,0.9-1.4,1.5-2.2c0.4-0.8,0.9-1.5,1.3-2.2c0.6-0.8,1.1-1.5,1.5-2.2c0.6-0.7,1.1-1.4,1.5-2.2
			c0.6-0.7,1.1-1.4,1.7-2.1c0.4-0.7,0.9-1.4,1.5-2.1c0.6-0.7,1.1-1.4,1.7-2.1c0.6-0.7,1.1-1.4,1.7-2.1c0.6-0.7,1.1-1.4,1.7-2.1
			c0.6-0.6,1.1-1.2,1.7-1.9c0.7-0.6,1.4-1.2,1.9-1.9c0.6-0.6,1.2-1.2,1.9-1.9c0.6-0.6,1.2-1.1,1.9-1.7c0.6-0.6,1.2-1.1,1.9-1.7
			c0.6-0.6,1.2-1.1,1.9-1.7c0.7-0.5,1.4-1,1.9-1.5c0.7-0.6,1.4-1.1,2.2-1.5c0.7-0.6,1.4-1.1,2.2-1.5c0.7-0.5,1.4-0.9,2.2-1.4
			c0.7-0.5,1.4-0.9,2.2-1.4c0.7-0.5,1.4-0.9,2.2-1.4c0.7-0.5,1.4-0.9,2.2-1.2c0.9-0.5,1.7-0.9,2.4-1.2c0.7-0.3,1.5-0.7,2.4-1
			c0.7-0.3,1.4-0.7,2.2-1c0.9-0.3,1.6-0.7,2.4-1c0.9-0.3,1.7-0.6,2.4-0.9c0.9-0.2,1.7-0.5,2.4-0.9c0.9-0.2,1.7-0.5,2.6-0.7
			c0.7-0.2,1.5-0.5,2.4-0.7c0.9-0.1,1.7-0.3,2.4-0.5c0.9-0.1,1.7-0.3,2.6-0.5c0.9-0.1,1.7-0.2,2.4-0.3c0.9-0.1,1.7-0.2,2.6-0.2
			c0.9-0.1,1.7-0.2,2.6-0.3c0.9,0,1.7,0,2.6,0c0.9,0,1.7,0,2.6,0c0.9,0,1.7,0,2.6,0c0.9,0,1.7,0.1,2.6,0.2c0.9,0,1.7,0.1,2.6,0.2
			c0.9,0.1,1.7,0.2,2.6,0.3c0.9,0.1,1.7,0.2,2.6,0.3c0.9,0.1,1.7,0.2,2.6,0.3c0.9,0.2,1.6,0.4,2.4,0.5c0.9,0.2,1.7,0.5,2.6,0.7
			c0.9,0.1,1.7,0.3,2.6,0.5c0.7,0.2,1.5,0.5,2.4,0.7c0.9,0.3,1.7,0.6,2.4,0.9c0.9,0.2,1.7,0.5,2.4,0.9c0.9,0.2,1.7,0.5,2.6,0.9
			c0.7,0.3,1.4,0.7,2.2,1c0.9,0.3,1.7,0.7,2.4,1c0.9,0.3,1.6,0.7,2.4,1c0.7,0.3,1.5,0.7,2.4,1c0.7,0.5,1.4,0.9,2.2,1.2
			c0.7,0.5,1.4,0.9,2.2,1.4c0.7,0.3,1.4,0.7,2.2,1.2c0.7,0.5,1.4,0.9,2.2,1.4c0.7,0.5,1.4,1,2.2,1.5c0.7,0.5,1.4,0.9,2.2,1.4
			c0.7,0.6,1.4,1.1,2.2,1.5c0.6,0.6,1.2,1.1,1.9,1.5c0.7,0.6,1.4,1.1,1.9,1.7c0.7,0.5,1.4,1,1.9,1.5c0.7,0.6,1.4,1.1,1.9,1.7
			c0.6,0.6,1.2,1.2,1.9,1.9c0.6,0.6,1.1,1.1,1.7,1.7c0.7,0.7,1.4,1.3,1.9,1.9c0.6,0.6,1.1,1.2,1.7,1.9c0.6,0.7,1.1,1.3,1.7,1.9
			c0.6,0.7,1.1,1.4,1.7,2.1c0.6,0.7,1.1,1.4,1.5,2.1c0.6,0.7,1.1,1.4,1.7,2.1c0.4,0.7,0.9,1.4,1.5,2.1c0.4,0.7,0.9,1.4,1.5,2.1
			c0.4,0.8,0.9,1.5,1.5,2.2c0.4,0.7,0.9,1.4,1.3,2.2c0.4,0.7,0.9,1.4,1.5,2.2c0.4,0.8,0.9,1.5,1.3,2.2c0.4,0.8,0.9,1.6,1.3,2.4
			c0.4,0.7,0.8,1.4,1.1,2.2c0.4,0.8,0.9,1.6,1.3,2.4c0.3,0.8,0.6,1.6,1.1,2.4c0.4,0.8,0.8,1.6,1.1,2.4c0.3,0.8,0.6,1.6,1.1,2.4
			c0.3,0.9,0.6,1.8,0.9,2.6c0.3,0.8,0.6,1.6,1.1,2.4c0.3,0.9,0.6,1.8,0.9,2.6c0.3,0.8,0.5,1.7,0.6,2.6c0.3,0.8,0.6,1.7,0.9,2.6
			c0.3,0.8,0.5,1.7,0.6,2.6c0.3,0.8,0.5,1.7,0.6,2.6c0.1,0.9,0.4,1.8,0.6,2.6c0.1,0.9,0.3,1.8,0.4,2.8c0.1,0.8,0.3,1.7,0.4,2.6
			c0.1,0.9,0.3,1.8,0.4,2.8c0.1,0.9,0.3,1.8,0.4,2.6C773.8,444.9,773.9,445.8,773.9,446.7z"/>
		<path fill="#FFFFFF" d="M759.1,448.5c0.1,0.8,0.2,1.5,0.2,2.1c0.1,0.8,0.2,1.5,0.2,2.1c0,0.8,0.1,1.5,0.2,2.1c0,0.8,0,1.5,0,2.1
			c0,0.7,0.1,1.4,0.2,2.1c0,0.7,0,1.3,0,2c0,0.8,0,1.5,0,2.1c0,0.7-0.1,1.3-0.2,2c0,0.7,0,1.3,0,2c0,0.7-0.1,1.4-0.2,2.1
			c0,0.7,0,1.3,0,2c-0.1,0.6-0.2,1.2-0.4,1.8c0,0.7-0.1,1.3-0.2,2c-0.1,0.7-0.2,1.3-0.2,2c-0.1,0.6-0.2,1.2-0.4,1.8
			c-0.1,0.7-0.2,1.3-0.4,1.8c-0.1,0.7-0.2,1.3-0.4,1.8c-0.2,0.7-0.4,1.3-0.5,1.8c-0.1,0.7-0.3,1.3-0.5,1.8c-0.1,0.6-0.3,1.2-0.5,1.8
			c-0.1,0.6-0.3,1.1-0.5,1.7c-0.2,0.6-0.5,1.1-0.7,1.7c-0.1,0.6-0.3,1.1-0.5,1.7c-0.2,0.6-0.5,1.1-0.9,1.7c-0.2,0.6-0.5,1.1-0.7,1.6
			c-0.2,0.6-0.5,1.1-0.9,1.7c-0.2,0.5-0.5,1-0.9,1.6c-0.2,0.5-0.5,1-0.9,1.6c-0.4,0.5-0.7,0.9-1.1,1.4c-0.2,0.6-0.5,1.1-0.9,1.6
			c-0.5,0.5-0.9,0.9-1.2,1.4c-0.4,0.5-0.7,0.9-1.1,1.4c-0.5,0.5-0.9,0.9-1.2,1.4c-0.5,0.4-0.9,0.8-1.2,1.3c-0.5,0.5-0.9,0.9-1.4,1.3
			c-0.5,0.5-0.9,0.9-1.4,1.3c-0.5,0.4-1,0.8-1.4,1.3c-0.5,0.4-1,0.8-1.6,1.1c-0.5,0.4-1,0.8-1.6,1.1c-0.5,0.4-1,0.8-1.6,1.1
			c-0.6,0.4-1.2,0.7-1.8,1c-0.6,0.4-1.2,0.7-1.8,1c-0.6,0.4-1.2,0.7-1.8,1c-0.7,0.4-1.4,0.7-2,1c-0.7,0.3-1.4,0.6-2,0.9
			c-0.7,0.3-1.4,0.6-2.1,0.9c-0.7,0.3-1.4,0.5-2.1,0.7c-0.7,0.3-1.4,0.6-2.1,0.9c-0.8,0.2-1.6,0.4-2.3,0.7c-0.8,0.2-1.7,0.4-2.5,0.6
			c-0.7,0.2-1.5,0.4-2.3,0.6c-0.8,0.2-1.7,0.4-2.5,0.6c-1,0.2-1.8,0.4-2.7,0.6c-0.8,0.1-1.7,0.2-2.7,0.4c-1,0.1-1.8,0.2-2.7,0.3
			c-1,0.2-1.9,0.3-2.8,0.4c-0.9,0.1-2,0.2-3,0.3c-0.9,0.1-1.9,0.1-2.8,0.1c-1.1,0.1-2.1,0.2-3.2,0.3c-1.1,0-2.1,0-3,0
			c-1.2,0.1-2.3,0.1-3.4,0.1c-1.1,0-2.1,0-3.2,0c-1.2,0-2.4,0-3.6-0.1c-0.7,0-1.5,0-2.3,0c-0.8-0.1-1.7-0.2-2.5-0.3
			c-0.8,0-1.6,0-2.3-0.1c-0.8-0.1-1.6-0.2-2.3-0.3c-0.8-0.1-1.6-0.2-2.3-0.3c-0.8-0.2-1.6-0.3-2.3-0.4c-0.8-0.2-1.6-0.3-2.3-0.4
			c-0.7-0.2-1.4-0.4-2.1-0.6c-0.8-0.2-1.6-0.4-2.3-0.6c-0.7-0.2-1.4-0.4-2.1-0.6c-0.7-0.3-1.4-0.5-2.1-0.7c-0.7-0.3-1.4-0.5-2-0.7
			c-0.7-0.3-1.4-0.6-2.1-0.9c-0.6-0.3-1.2-0.6-2-0.9c-0.7-0.3-1.4-0.6-2-0.9c-0.7-0.3-1.4-0.6-2-0.9c-0.6-0.4-1.2-0.7-2-1
			c-0.6-0.4-1.2-0.8-1.8-1.1c-0.6-0.3-1.2-0.6-1.8-1c-0.6-0.4-1.2-0.8-1.8-1.1c-0.6-0.4-1.2-0.8-1.8-1.1c-0.6-0.5-1.2-0.9-1.8-1.3
			c-0.5-0.4-1-0.8-1.6-1.3c-0.6-0.4-1.1-0.8-1.6-1.3c-0.6-0.5-1.1-0.9-1.6-1.4c-0.5-0.4-1-0.8-1.6-1.3c-0.5-0.5-1-1-1.4-1.6
			c-0.5-0.5-1-0.9-1.4-1.4c-0.5-0.5-1-1-1.4-1.6c-0.5-0.5-1-0.9-1.4-1.4c-0.5-0.6-0.9-1.1-1.2-1.7c-0.5-0.5-0.9-1-1.2-1.6
			c-0.5-0.6-0.9-1.1-1.2-1.7c-0.5-0.6-0.9-1.1-1.2-1.7c-0.4-0.6-0.8-1.1-1.2-1.7c-0.4-0.6-0.7-1.1-1.1-1.7c-0.4-0.7-0.7-1.3-1.1-1.8
			c-0.4-0.6-0.7-1.2-1.1-1.8c-0.2-0.6-0.5-1.2-0.9-1.8c-0.4-0.7-0.7-1.3-0.9-1.8c-0.4-0.7-0.7-1.3-0.9-2c-0.2-0.7-0.5-1.3-0.9-2
			c-0.2-0.6-0.5-1.2-0.7-1.8c-0.2-0.8-0.5-1.5-0.7-2.1c-0.2-0.7-0.5-1.3-0.7-2c-0.2-0.7-0.5-1.3-0.7-2c-0.1-0.8-0.3-1.5-0.5-2.1
			c-0.1-0.7-0.3-1.4-0.5-2.1c-0.1-0.7-0.3-1.4-0.5-2.1c-0.1-0.7-0.2-1.4-0.4-2.1c-0.1-0.8-0.2-1.5-0.4-2.1c-0.1-0.8-0.2-1.5-0.4-2.3
			c-0.1-0.7-0.2-1.4-0.4-2.1c0-0.8-0.1-1.5-0.2-2.3c0-0.8-0.1-1.5-0.2-2.3c0-0.8-0.1-1.5-0.2-2.3c0-0.8,0-1.5,0-2.3
			c0-0.8,0-1.5,0-2.3c0-0.8,0-1.5,0-2.3c0-0.8,0.1-1.5,0.2-2.1c0-0.8,0.1-1.5,0.2-2.1c0-0.7,0.1-1.4,0.2-2.1c0-0.7,0.1-1.4,0.2-2.1
			c0.1-0.7,0.2-1.3,0.4-2c0.1-0.8,0.2-1.5,0.4-2.1c0.1-0.8,0.3-1.5,0.5-2.1c0.1-0.7,0.3-1.4,0.5-2.1c0.1-0.7,0.3-1.3,0.5-2
			c0.1-0.8,0.3-1.5,0.5-2.1c0.2-0.7,0.5-1.4,0.7-2.1c0.2-0.7,0.5-1.3,0.7-2c0.2-0.7,0.5-1.3,0.7-2c0.2-0.8,0.5-1.5,0.7-2.1
			c0.4-0.7,0.7-1.3,0.9-2c0.4-0.7,0.6-1.3,0.9-2c0.4-0.7,0.7-1.3,1.1-2c0.2-0.7,0.5-1.3,0.9-2c0.4-0.6,0.7-1.2,1.1-1.8
			c0.4-0.7,0.7-1.3,1.1-2c0.4-0.6,0.8-1.2,1.2-1.8c0.4-0.7,0.7-1.3,1.1-1.8c0.5-0.7,0.9-1.3,1.2-1.8c0.5-0.6,0.9-1.2,1.2-1.8
			c0.5-0.6,0.9-1.1,1.4-1.7c0.4-0.6,0.8-1.1,1.2-1.7c0.5-0.6,0.9-1.1,1.4-1.7c0.5-0.6,0.9-1.1,1.4-1.7c0.5-0.6,0.9-1.1,1.4-1.7
			c0.5-0.5,0.9-1,1.4-1.6c0.6-0.5,1.1-1,1.6-1.6c0.5-0.5,1-1,1.6-1.6c0.5-0.5,1-0.9,1.6-1.4c0.5-0.5,1-0.9,1.6-1.4
			c0.5-0.5,1-0.9,1.6-1.4c0.6-0.4,1.1-0.8,1.6-1.3c0.6-0.5,1.2-0.9,1.8-1.3c0.6-0.5,1.2-0.9,1.8-1.3c0.6-0.4,1.2-0.8,1.8-1.1
			c0.6-0.4,1.2-0.8,1.8-1.1c0.6-0.4,1.2-0.8,1.8-1.1c0.6-0.4,1.2-0.7,1.8-1c0.7-0.4,1.4-0.7,2-1c0.6-0.3,1.2-0.6,2-0.9
			c0.6-0.3,1.2-0.6,1.8-0.9c0.7-0.3,1.4-0.6,2-0.9c0.7-0.3,1.4-0.5,2-0.7c0.7-0.2,1.4-0.4,2-0.7c0.7-0.2,1.4-0.4,2.1-0.6
			c0.6-0.2,1.2-0.4,2-0.6c0.7-0.1,1.4-0.2,2-0.4c0.7-0.1,1.4-0.2,2.1-0.4c0.7-0.1,1.4-0.2,2-0.3c0.7-0.1,1.4-0.1,2.1-0.1
			c0.7-0.1,1.4-0.2,2.1-0.3c0.7,0,1.4,0,2.1,0c0.7,0,1.4,0,2.1,0c0.7,0,1.4,0,2.1,0c0.7,0,1.4,0,2.1,0.1c0.7,0,1.4,0,2.1,0.1
			c0.7,0.1,1.4,0.2,2.1,0.3c0.7,0.1,1.4,0.2,2.1,0.3c0.7,0.1,1.4,0.2,2.1,0.3c0.7,0.2,1.4,0.3,2,0.4c0.7,0.2,1.4,0.4,2.1,0.6
			c0.7,0.1,1.4,0.2,2.1,0.4c0.6,0.2,1.2,0.4,2,0.6c0.7,0.3,1.4,0.5,2,0.7c0.7,0.2,1.4,0.4,2,0.7c0.7,0.2,1.4,0.4,2.1,0.7
			c0.6,0.3,1.2,0.6,1.8,0.9c0.7,0.3,1.4,0.6,2,0.9c0.7,0.3,1.4,0.6,2,0.9c0.6,0.3,1.2,0.6,2,0.9c0.6,0.4,1.2,0.7,1.8,1
			c0.6,0.4,1.2,0.8,1.8,1.1c0.6,0.3,1.2,0.6,1.8,1c0.6,0.4,1.2,0.8,1.8,1.1c0.6,0.4,1.2,0.8,1.8,1.3c0.6,0.4,1.2,0.8,1.8,1.1
			c0.6,0.5,1.2,0.9,1.8,1.3c0.5,0.5,1,0.9,1.6,1.3c0.6,0.5,1.1,0.9,1.6,1.4c0.6,0.4,1.1,0.8,1.6,1.3c0.6,0.5,1.1,0.9,1.6,1.4
			c0.5,0.5,1,1,1.6,1.6c0.5,0.5,0.9,0.9,1.4,1.4c0.6,0.6,1.1,1.1,1.6,1.6c0.5,0.5,0.9,1,1.4,1.6c0.5,0.6,0.9,1.1,1.4,1.6
			c0.5,0.6,0.9,1.1,1.4,1.7c0.5,0.6,0.9,1.1,1.2,1.7c0.5,0.6,0.9,1.1,1.4,1.7c0.4,0.6,0.8,1.1,1.2,1.7c0.4,0.6,0.8,1.1,1.2,1.7
			c0.4,0.7,0.8,1.3,1.2,1.8c0.4,0.6,0.7,1.2,1.1,1.8c0.4,0.6,0.8,1.2,1.2,1.8c0.4,0.7,0.7,1.3,1.1,1.8c0.4,0.7,0.7,1.3,1.1,2
			c0.4,0.6,0.7,1.2,0.9,1.8c0.4,0.7,0.7,1.3,1.1,2c0.2,0.7,0.5,1.3,0.9,2c0.4,0.7,0.6,1.3,0.9,2c0.2,0.7,0.5,1.3,0.9,2
			c0.2,0.8,0.5,1.5,0.7,2.1c0.2,0.7,0.5,1.3,0.9,2c0.2,0.8,0.5,1.5,0.7,2.1c0.2,0.7,0.4,1.4,0.5,2.1c0.2,0.7,0.5,1.4,0.7,2.1
			c0.2,0.7,0.4,1.4,0.5,2.1c0.2,0.7,0.4,1.4,0.5,2.1c0.1,0.8,0.3,1.5,0.5,2.1c0.1,0.8,0.2,1.5,0.4,2.3c0.1,0.7,0.2,1.4,0.4,2.1
			c0.1,0.8,0.2,1.5,0.4,2.3c0.1,0.8,0.2,1.5,0.4,2.1C759,447,759.1,447.7,759.1,448.5z M713.2,441.5c-0.1-0.9-0.2-1.7-0.4-2.6
			c-0.1-0.9-0.3-1.7-0.5-2.4c-0.1-0.9-0.3-1.7-0.5-2.4c-0.2-0.8-0.5-1.5-0.7-2.3c-0.2-0.8-0.5-1.5-0.7-2.3c-0.2-0.8-0.5-1.5-0.7-2.3
			c-0.4-0.7-0.7-1.4-0.9-2.1c-0.4-0.7-0.7-1.3-1.1-2c-0.4-0.7-0.7-1.3-1.1-2c-0.4-0.7-0.7-1.3-1.1-2c-0.4-0.6-0.8-1.1-1.2-1.7
			c-0.4-0.7-0.8-1.3-1.2-1.8c-0.4-0.6-0.8-1.1-1.2-1.6c-0.5-0.6-1-1.1-1.4-1.7c-0.5-0.5-1-0.9-1.4-1.4c-0.5-0.5-1-0.9-1.6-1.4
			c-0.5-0.4-1-0.8-1.6-1.3c-0.5-0.4-1-0.8-1.6-1.1c-0.6-0.4-1.2-0.8-1.8-1.1c-0.5-0.3-1.1-0.6-1.8-1c-0.6-0.3-1.2-0.6-1.8-0.9
			c-0.6-0.3-1.2-0.5-2-0.7c-0.6-0.2-1.2-0.4-2-0.6c-0.6-0.2-1.2-0.4-2-0.6c-0.7-0.2-1.4-0.3-2.1-0.4c-0.7-0.1-1.4-0.2-2.1-0.3
			c-0.7,0-1.4,0-2.1-0.1c-0.7,0-1.4,0-2.1,0c-0.6,0.1-1.2,0.1-2,0.1c-0.6,0.1-1.2,0.2-1.8,0.4c-0.7,0.1-1.4,0.2-2,0.4
			c-0.6,0.2-1.2,0.4-1.8,0.6c-0.6,0.3-1.2,0.5-1.8,0.7c-0.6,0.3-1.1,0.6-1.6,1c-0.6,0.3-1.1,0.6-1.6,1c-0.6,0.3-1.1,0.6-1.6,1
			c-0.6,0.5-1.1,0.9-1.6,1.3c-0.5,0.5-1,0.9-1.4,1.3c-0.5,0.5-0.9,1-1.2,1.6c-0.5,0.5-0.9,1-1.4,1.6c-0.4,0.5-0.8,1-1.2,1.6
			c-0.4,0.6-0.7,1.1-1.1,1.7c-0.4,0.7-0.7,1.3-1.1,1.8c-0.4,0.7-0.7,1.3-1.1,1.8c-0.2,0.7-0.5,1.3-0.9,2c-0.2,0.7-0.5,1.4-0.9,2.1
			c-0.2,0.7-0.5,1.4-0.7,2.1c-0.2,0.7-0.5,1.4-0.7,2.1c-0.2,0.8-0.4,1.5-0.5,2.1c-0.2,0.8-0.4,1.5-0.5,2.3c-0.1,0.8-0.3,1.6-0.5,2.4
			c-0.1,0.8-0.2,1.5-0.2,2.3c-0.1,0.9-0.2,1.7-0.4,2.4c0,0.8-0.1,1.6-0.2,2.4c0,0.8,0,1.6,0,2.4c0,0.8,0,1.5,0,2.3
			c0,0.9,0.1,1.7,0.2,2.4c0,0.8,0.1,1.5,0.2,2.3c0.1,0.7,0.2,1.4,0.4,2.1c0.1,0.8,0.3,1.5,0.5,2.3c0.1,0.7,0.3,1.3,0.5,2
			c0.1,0.8,0.3,1.5,0.5,2.1c0.2,0.7,0.5,1.3,0.9,2c0.2,0.7,0.5,1.3,0.7,2c0.4,0.7,0.7,1.3,1.1,1.8c0.2,0.7,0.5,1.3,0.9,1.8
			c0.4,0.6,0.8,1.1,1.2,1.7c0.4,0.6,0.8,1.1,1.2,1.7c0.4,0.6,0.8,1.1,1.2,1.6c0.5,0.6,0.9,1.1,1.4,1.6c0.5,0.5,0.9,0.9,1.4,1.4
			c0.6,0.5,1.1,0.9,1.6,1.3c0.6,0.5,1.1,0.9,1.6,1.3c0.6,0.4,1.2,0.8,1.8,1.1c0.6,0.4,1.2,0.7,1.8,1c0.7,0.3,1.4,0.6,2,1
			c0.7,0.3,1.4,0.5,2,0.7c0.7,0.3,1.4,0.5,2.1,0.7c0.7,0.3,1.4,0.5,2.1,0.6c0.7,0.2,1.4,0.4,2.1,0.6c0.8,0.1,1.6,0.2,2.3,0.3
			c0.8,0.1,1.7,0.2,2.5,0.3c0.7,0,1.5,0,2.3,0c0.8,0,1.6,0,2.3,0c0.8,0,1.6,0,2.3-0.1c0.7-0.1,1.4-0.2,2.1-0.4
			c0.7-0.1,1.4-0.2,2.1-0.4c0.7-0.2,1.4-0.4,2.1-0.6c0.6-0.2,1.2-0.4,2-0.7c0.6-0.3,1.2-0.6,1.8-0.9c0.6-0.3,1.2-0.6,1.8-0.9
			c0.6-0.4,1.1-0.8,1.6-1.1c0.6-0.4,1.1-0.8,1.6-1.1c0.6-0.4,1.1-0.8,1.6-1.3c0.5-0.5,0.9-0.9,1.4-1.3c0.5-0.5,0.9-1,1.2-1.6
			c0.5-0.5,0.9-1,1.2-1.6c0.4-0.5,0.8-1,1.2-1.6c0.4-0.6,0.6-1.1,0.9-1.7c0.4-0.6,0.7-1.1,1.1-1.7c0.2-0.7,0.5-1.3,0.7-1.8
			c0.4-0.7,0.6-1.3,0.9-2c0.2-0.7,0.4-1.3,0.5-2c0.2-0.7,0.4-1.3,0.5-2c0.2-0.7,0.4-1.4,0.5-2.1c0.1-0.7,0.2-1.4,0.4-2.1
			c0.1-0.8,0.2-1.5,0.2-2.1c0.1-0.8,0.2-1.5,0.2-2.3c0-0.8,0-1.5,0-2.3c0-0.8,0-1.5,0-2.3c0-0.8-0.1-1.5-0.2-2.3
			C713.5,443,713.4,442.3,713.2,441.5z"/>
	</g>
</g>
</svg>
