<?xml version="1.0" encoding="utf-8"?>
<!-- Generator: Adobe Illustrator 18.0.0, SVG Export Plug-In . SVG Version: 6.00 Build 0)  -->
<!DOCTYPE svg PUBLIC "-//W3C//DTD SVG 1.0//EN" "http://www.w3.org/TR/2001/REC-SVG-20010904/DTD/svg10.dtd" [
	<!ENTITY ns_flows "http://ns.adobe.com/Flows/1.0/">
	<!ENTITY ns_extend "http://ns.adobe.com/Extensibility/1.0/">
	<!ENTITY ns_ai "http://ns.adobe.com/AdobeIllustrator/10.0/">
	<!ENTITY ns_graphs "http://ns.adobe.com/Graphs/1.0/">
]>
<svg version="1.0" id="Camada_1" xmlns:x="&ns_extend;" xmlns:i="&ns_ai;" xmlns:graph="&ns_graphs;"
	 xmlns="http://www.w3.org/2000/svg" xmlns:xlink="http://www.w3.org/1999/xlink" xmlns:a="http://ns.adobe.com/AdobeSVGViewerExtensions/3.0/"
	 x="0px" y="0px" viewBox="0 0 1024 768" enable-background="new 0 0 1024 768" xml:space="preserve">
<g>
	<path fill="#EBAC29" d="M512,4.8c-18.8,0-37.5,1.4-56.1,4.1c-18.1,2.7-35.9,6.7-53.4,12c-17.2,5.2-33.9,11.6-50.2,19.2
		c-16.1,7.5-31.6,16.1-46.4,25.8c-14.7,9.6-28.8,20.2-42.1,31.8c-13.2,11.5-25.7,23.9-37.2,37.2c-11.5,13.2-22.2,27.2-31.8,41.9
		c-9.7,14.7-18.3,30.1-25.8,46.1c-7.6,16.1-14.1,32.6-19.3,49.6c-5.3,17.2-9.4,34.8-12.2,52.5c-2.9,18.1-4.4,36.5-4.6,54.8
		c-0.2,18.8,1,37.5,3.5,56.1c2.5,18.1,6.3,36.1,11.4,53.6c5,17.2,11.2,34.1,18.7,50.4c7.3,16.1,15.8,31.8,25.3,46.7
		c9.5,14.8,19.9,29,31.4,42.4c11.4,13.4,23.7,25.9,36.8,37.6c13.1,11.7,27,22.5,41.6,32.2c14.6,9.8,29.9,18.6,45.8,26.3
		c16,7.8,32.5,14.4,49.4,19.8c17.1,5.5,34.6,9.8,52.3,12.8c18.1,3.1,36.4,4.8,54.7,5.2c18.6,0.4,37.3-0.6,55.8-3
		c18.1-2.4,36.1-6.1,53.7-11.1c17.4-4.9,34.3-11.2,50.8-18.5c16.3-7.3,32.2-15.8,47.3-25.4c15.1-9.5,29.5-20.1,43.2-31.6
		c13.6-11.5,26.5-23.9,38.4-37.1c12-13.2,23-27.3,33-42.1c10.1-14.8,19.1-30.3,27-46.3c7.9-16.2,14.7-32.9,20.3-50
		c5.6-17.3,10-35.1,13-53c3.1-18.3,4.8-36.8,5-55.4c0.3-18.6-0.1-37.1-2.2-55.6c-2-17.9-5.3-35.7-10-53.1
		c-4.6-17.1-10.4-33.8-17.3-50c-6.9-16-15-31.6-24.1-46.4c-9.1-14.8-19.2-28.9-30.3-42.3c-11.1-13.4-23.1-25.9-35.9-37.6
		c-12.8-11.7-26.5-22.6-40.9-32.4c-14.4-9.9-29.6-18.8-45.2-26.7c-15.8-7.9-32.2-14.7-49-20.4c-17.1-5.7-34.5-10.3-52.2-13.6
		c-18.1-3.4-36.5-5.5-54.9-6.3C523.4,4.9,517.7,4.8,512,4.8z"/>
	<path fill="#FFE388" d="M512,24c-18.7,0-37.5,1.4-56,4.3c-18,2.8-35.7,6.9-53.1,12.4c-17,5.4-33.6,12-49.6,19.8
		c-15.8,7.7-31,16.7-45.5,26.6c-14.4,9.9-28,20.9-40.8,32.8c-12.8,11.9-24.7,24.7-35.6,38.2c-10.9,13.6-20.9,28-29.7,43.1
		c-8.9,15.1-16.7,30.9-23.3,47.2c-6.7,16.5-12.1,33.4-16.3,50.7c-4.2,17.6-7.2,35.5-8.7,53.6c-1.6,18.5-1.8,37.1-0.5,55.7
		c1.3,18.3,4,36.6,8.1,54.5c4,17.6,9.4,34.9,16.1,51.7c6.6,16.6,14.4,32.7,23.4,48.2c8.9,15.4,19,30.1,30,44
		c11,13.9,23.1,26.9,36,39.1c12.9,12.1,26.7,23.4,41.3,33.5c14.6,10.2,29.9,19.3,45.8,27.3c16,8,32.7,14.8,49.7,20.3
		c17.3,5.6,35,9.9,53,12.7c18.3,2.9,36.9,4.4,55.5,4.4c18.6,0,37.2-1.4,55.5-4.3c18-2.8,35.7-7.1,53-12.6
		c17.1-5.5,33.7-12.3,49.8-20.3c15.9-7.9,31.3-17,45.9-27.2c14.6-10.1,28.4-21.3,41.3-33.5c12.9-12.1,25-25.2,36-39
		c11.1-13.9,21.1-28.6,30.1-43.9c9-15.4,16.9-31.5,23.5-48.1c6.7-16.8,12.1-34,16.2-51.6c4.1-17.9,6.9-36.1,8.2-54.5
		c0.7-9.4,0.8-18.7,0.9-28.1c0.1-9.3-0.1-18.6-0.7-27.9c-1.1-18.1-3.7-36.1-7.6-53.8c-3.8-17.3-9-34.2-15.4-50.7
		c-6.3-16.2-13.9-31.9-22.6-47c-8.6-14.9-18.4-29.2-29.1-42.7c-10.7-13.5-22.5-26.1-35.1-37.9c-12.6-11.8-26.1-22.6-40.3-32.4
		C707,78.6,692,69.8,676.4,62c-15.8-7.8-32.2-14.5-49-19.9c-17.1-5.6-34.6-9.8-52.4-12.8c-18.2-3.1-36.6-4.8-55.1-5.2
		C517.3,24,514.6,24,512,24z"/>
	<path fill="#FFEDBB" d="M536,720c-18.6,0-37.1-1.5-55.5-4.5c-17.9-2.9-35.6-7.2-52.8-12.9c-17-5.6-33.5-12.5-49.5-20.7
		c-15.8-8.1-31-17.3-45.4-27.7c-14.4-10.3-27.9-21.7-40.6-34c-12.7-12.3-24.4-25.6-35.1-39.6c-10.7-14.1-20.4-29-28.9-44.6
		c-8.6-15.7-15.9-32-22-48.8c-6.2-17-11-34.5-14.4-52.2c-3.5-18.1-5.5-36.6-6.1-55c-0.2-8.3-0.2-16.6-0.2-24.8
		c-3.2,12.6-4.3,25.7-4.6,38.7c-0.3,11.1-0.3,22.3,0.2,33.5c0.8,18.5,3.2,37,7.3,55.1c3.9,17.6,9.3,34.8,16.2,51.4
		c6.7,16.3,14.9,32.1,24.2,47.1c9.3,14.8,19.8,28.9,31.4,42c11.6,13,24.2,25.1,37.8,36.1c13.6,11,28.1,20.9,43.3,29.5
		c15.3,8.7,31.3,16.1,47.9,22.1c16.8,6.1,34.1,10.8,51.6,14c18,3.3,36.3,5,54.5,5.1c26.2,0.2,52.2-3.6,78-7.8
		c3.6-0.6,7.1-1.2,10.7-1.8C568,720,552,720,536,720z"/>
	<path fill="#FFEDBB" d="M516.8,38.4c20.9,0,41.8,1.6,62.5,4.9c19.6,3.1,39,7.8,57.9,14.1c17.8,5.9,35.2,13.3,51.8,22.2
		c15.6,8.4,30.6,18.2,44.4,29.3c13,10.5,25,22.3,35.5,35.4c10,12.4,18.6,25.9,25.2,40.4c6.5,14.1,11.1,29,13.6,44.4
		c2.4,15.5,2.6,31.3,0.5,46.8c-2.1,15.4-6.4,30.4-12.6,44.7c-6.3,14.6-14.6,28.2-24.4,40.8c-10.2,13.2-22,25.1-34.7,35.8
		c-13.6,11.3-28.3,21.3-43.7,29.8c-16.4,9.1-33.6,16.7-51.3,22.8c-18.7,6.5-37.9,11.4-57.4,14.8c-20.5,3.6-41.3,5.4-62.2,5.7
		c-21,0.3-42-1.1-62.8-4.2c-19.7-2.9-39.3-7.3-58.3-13.4c-18-5.7-35.6-12.9-52.3-21.6c-15.8-8.2-31-17.8-45-28.8
		c-13.2-10.4-25.5-22-36.3-34.9c-10.2-12.3-19.1-25.7-26.1-40c-6.8-14-11.8-28.8-14.6-44.1c-2.8-15.4-3.3-31.2-1.6-46.8
		c1.7-15.4,5.7-30.6,11.6-44.9c6-14.6,14-28.4,23.5-41.1c9.9-13.3,21.4-25.4,34-36.3c13.3-11.5,27.8-21.6,43-30.4
		c16.2-9.3,33.2-17.1,50.7-23.4c18.5-6.7,37.6-11.9,57-15.5c20.4-3.8,41.1-5.9,61.8-6.5C510,38.4,513.4,38.4,516.8,38.4z"/>
	<g>
		<path fill="#EBAC29" d="M435.2,585.6c-7.1,0-14.2,0-21.3,0c-12.8,0-25.5,0-38.3,0c-4.5,0-9,0-13.5,0c-3.4,0-6.7,0.1-10.1-0.7
			c-8.1-1.8-14.4-7.7-16.6-15.7c-0.8-2.7-1-5.5-1-8.4c0-3.1,0-6.3,0-9.4c0-6.3,0-12.6,0-18.9c0-8.9,0-17.7,0-26.6
			c0-10.9,0-21.7,0-32.6c0-12.3,0-24.5,0-36.8c0-13.1,0-26.1,0-39.2c0-13.3,0-26.6,0-39.9c0-13,0-25.9,0-38.9c0-12,0-24,0-36
			c0-10.5,0-21,0-31.5c0-8.4,0-16.8,0-25.1c0-5.7,0-11.4,0-17c0-2.4,0-4.8,0-7.2c0-6,1.7-12,5.7-16.6c4.7-5.3,11.6-7.5,18.5-7.5
			c8.2,0,16.3,0,24.5,0c12.7,0,25.3,0,38,0c4,0,8,0,12,0c4.4,0,8.7,0.3,12.9,2.1c7.7,3.3,12.4,10.7,13.2,18.9
			c0.1,1.4,0.1,2.8,0.1,4.2c0,3.4,0,6.9,0,10.3c0,6.6,0,13.1,0,19.7c0,9.1,0,18.1,0,27.2c0,11,0,22,0,33c0,12.4,0,24.7,0,37.1
			c0,13.1,0,26.2,0,39.4c0,13.3,0,26.6,0,39.9c0,12.9,0,25.8,0,38.7c0,11.9,0,23.8,0,35.7c0,10.3,0,20.6,0,31c0,8.2,0,16.3,0,24.5
			c0,5.4,0,10.8,0,16.2c0,2.1,0,4.2,0,6.2c0,6-1.7,12-5.7,16.5C448.9,583.3,442,585.6,435.2,585.6z"/>
		<path fill="#EBAC29" d="M660.8,585.6c-7.1,0-14.2,0-21.3,0c-12.8,0-25.5,0-38.3,0c-4.5,0-9,0-13.5,0c-3.3,0-6.6,0.1-9.9-0.6
			c-8.1-1.7-14.5-7.5-16.8-15.5c-0.8-2.8-1.1-5.7-1.1-8.6c0-3.1,0-6.2,0-9.4c0-6.3,0-12.6,0-18.8c0-8.9,0-17.7,0-26.6
			c0-10.8,0-21.7,0-32.5c0-12.3,0-24.5,0-36.8c0-13.1,0-26.1,0-39.2c0-13.3,0-26.6,0-39.9c0-13,0-25.9,0-38.9c0-12,0-24,0-36.1
			c0-10.5,0-21,0-31.5c0-8.4,0-16.8,0-25.2c0-5.7,0-11.4,0-17.1c0-2.4,0-4.8,0-7.3c0-5.9,1.6-11.9,5.6-16.4
			c4.7-5.4,11.6-7.7,18.6-7.7c8.1,0,16.1,0,24.2,0c12.6,0,25.3,0,37.9,0c4,0,8.1,0,12.1,0c4.3,0,8.5,0.2,12.5,1.9
			c7.8,3.2,12.6,10.3,13.6,18.6c0.2,1.6,0.2,3.1,0.2,4.7c0,3.4,0,6.8,0,10.2c0,6.5,0,13,0,19.6c0,9,0,18.1,0,27.1c0,11,0,22,0,33
			c0,12.3,0,24.7,0,37c0,13.1,0,26.2,0,39.3c0,13.3,0,26.6,0,39.9c0,12.9,0,25.8,0,38.7c0,11.9,0,23.8,0,35.7c0,10.3,0,20.7,0,31
			c0,8.2,0,16.4,0,24.6c0,5.4,0,10.9,0,16.3c0,2.1,0,4.2,0,6.3c0,5.9-1.7,11.8-5.6,16.3C674.6,583.2,667.7,585.6,660.8,585.6z"/>
	</g>
</g>
</svg>
