<?xml version="1.0" encoding="utf-8"?>
<!-- Generator: Adobe Illustrator 18.0.0, SVG Export Plug-In . SVG Version: 6.00 Build 0)  -->
<!DOCTYPE svg PUBLIC "-//W3C//DTD SVG 1.1//EN" "http://www.w3.org/Graphics/SVG/1.1/DTD/svg11.dtd">
<svg version="1.1" id="Camada_1" xmlns="http://www.w3.org/2000/svg" xmlns:xlink="http://www.w3.org/1999/xlink" x="0px" y="0px"
	 viewBox="0 0 64 64" enable-background="new 0 0 64 64" xml:space="preserve">
<g>
	<path fill-rule="evenodd" clip-rule="evenodd" d="M27.2,4.2c-0.7,0.7-1.4,1.4-1.4,2.8c-0.7,2.1,0.7,4.2,0.7,5.6
		c-2.1,1.4-2.2,2.6-2.1,4.2c-1.5-0.5-3.2,0-4.2,0.7c-1.4,0.5-2.3,1.1-2.8,2.8c-3.5,2.1-4.9,5.6-4.9,10.5c0,4.2,4.2,24.5,9.8,28.7
		c2.1,1.4,3.5,1.4,5.6,0.7c1.4,2.1,0,1.4,2.8,2.1c4.9,0.7,9.8-4.2,12.6-7c9.1-9.1,16.8-35.7-0.7-37.1c-0.7-4.2,0-6.3-2.8-9.1
		c0-4.2-4.2-6.3-6.3-7C30.9,1.5,28.4,3,27.2,4.2L27.2,4.2z"/>
</g>
</svg>
