<?xml version="1.0" encoding="utf-8"?>
<!-- Generator: Adobe Illustrator 18.0.0, SVG Export Plug-In . SVG Version: 6.00 Build 0)  -->
<!DOCTYPE svg PUBLIC "-//W3C//DTD SVG 1.1//EN" "http://www.w3.org/Graphics/SVG/1.1/DTD/svg11.dtd">
<svg version="1.1" id="Camada_1" xmlns="http://www.w3.org/2000/svg" xmlns:xlink="http://www.w3.org/1999/xlink" x="0px" y="0px"
	 viewBox="0 0 64 64" enable-background="new 0 0 64 64" xml:space="preserve">
<g>
	<path fill-rule="evenodd" clip-rule="evenodd" d="M42.4,34.3c0.4,0.4,0.8,1,0.9,2.2c0.5,1.8,6.7,3.1,10.1,6.9
		c4.5,5,0.3,13.4-0.9,17.7c-11.7-2.9-18.4-7.3-20-13.7c-1.1-4.4,3-6,2.2-7.5C34.1,38.9,34,39,33,36.9v-0.6c2-3.7-4.2-9.7-6.6-15.8
		l-3-5.5c-2.9-0.8-4.4-0.4-6.3-3.4l-1.6-3.9c-0.3-2.6,0.9-3.9,2.2-4.5c0.6,1.1,1.9,2.7,4.8,2.3c3.7-0.5,2.7-1.9,2.1-2.9
		c2.8-0.1,3.8,2.7,5,4.5c1.8,3.1,1.2,3.7-0.6,6.1c4.4,7.7,7,14.2,12,20.2C41.1,33.5,41.8,33.7,42.4,34.3L42.4,34.3z"/>
</g>
</svg>
