<?xml version="1.0" encoding="utf-8"?>
<!-- Generator: Adobe Illustrator 18.0.0, SVG Export Plug-In . SVG Version: 6.00 Build 0)  -->
<!DOCTYPE svg PUBLIC "-//W3C//DTD SVG 1.0//EN" "http://www.w3.org/TR/2001/REC-SVG-20010904/DTD/svg10.dtd">
<svg version="1.0" id="Camada_1" xmlns="http://www.w3.org/2000/svg" xmlns:xlink="http://www.w3.org/1999/xlink" x="0px" y="0px"
	 viewBox="0 0 76.3 55.5" enable-background="new 0 0 76.3 55.5" xml:space="preserve">
<path d="M55.4,26.1c-1.6,0.7-4.7-1.9-4.1-2.7c0,0,5.4-6,6.9-6.7c1.5-0.7,6,2.5,5.3,3.5C62.7,21.2,55.4,26.1,55.4,26.1z"/>
<g>
	<g>
		<path fill="#1B7C09" d="M11.2,18.8c0,0,0.1-0.1,0.2-0.1c0.1,0,0.1-0.1,0.2-0.1c0.2-0.1,0.3-0.1,0.5-0.2c0.1,0,0.2,0,0.3-0.1
			c0.1,0,0.2,0,0.3-0.1c0.3,0,0.7-0.1,1-0.1c0.1,0,0.2,0,0.3,0c0.4,0,0.9,0,1.3,0c0.2,0,0.3,0,0.5,0.1c0.1,0,0.1,0,0.2,0
			c0.1,0,0.2,0,0.3,0.1c0,0,0.1,0,0.1,0.1c0,0,0,0,0.1,0.1c0,0,0.1,0.1,0.1,0.1c0,0,0,0.1,0.1,0.1c0,0,0.1,0.1,0.1,0.1
			c0,0.1,0.1,0.2,0.1,0.3c0,0.1,0.1,0.3,0.1,0.4c0,0.1,0,0.3,0,0.5c0,0.1,0,0.2,0,0.2c0,0.1,0,0.2,0,0.2c0,0.2,0,0.4,0,0.5
			c0,0.2,0,0.4,0,0.6c0.1,0.7,0,1.5,0,2.3c-0.1,0.6,0,1.2,0,1.8c0,0.1,0,0.2,0,0.4c0,0.1,0,0.2,0,0.3c0,0.2,0,0.5,0,0.7
			c-0.1,0.2-0.1,0.4,0,0.4c0.1,0,0.2-0.1,0.3-0.3c0.2-0.2,0.4-0.4,0.5-0.6c0.2-0.2,0.3-0.4,0.5-0.6c0.3-0.4,0.6-0.8,0.9-1.2
			c0.1-0.1,0.1-0.2,0.2-0.3c0.2-0.3,0.3-0.6,0.5-0.9c0-0.1,0.1-0.2,0.2-0.3c0.2-0.4,0.3-0.8,0.5-1.2c0-0.1,0.1-0.2,0.1-0.3
			c0-0.1,0.1-0.2,0.1-0.3c0.2-0.3,0.3-0.7,0.4-1.1c0-0.1,0-0.2,0.1-0.3c0-0.1,0.1-0.2,0.1-0.2c0-0.1,0.1-0.3,0.1-0.4
			c0-0.1,0.1-0.3,0.1-0.4c0,0,0-0.1,0-0.2c0,0,0-0.1,0-0.1c0,0,0-0.1,0-0.1c0,0,0-0.1,0-0.1c0,0,0-0.1,0-0.1c0,0,0,0,0-0.1
			c0,0,0,0,0,0c0,0,0,0,0,0c0,0,0.1,0,0.2,0c0.2,0,0.5,0,0.7,0c0.3,0,0.6,0.1,0.9,0.2c0.2,0,0.4,0.1,0.7,0.1c0.1,0,0.2,0.1,0.3,0.1
			c0.2,0.1,0.5,0.1,0.7,0.2c0.1,0,0.2,0.1,0.3,0.1c0.2,0.1,0.4,0.1,0.6,0.2c0.2,0.1,0.4,0.2,0.6,0.2c0.1,0,0.2,0.1,0.3,0.1
			c0.2,0.1,0.3,0.1,0.4,0.2c0.1,0,0.1,0.1,0.2,0.1c0,0,0.1,0.1,0.1,0.1c0,0,0.1,0.1,0.1,0.1c0,0.1,0,0.2,0,0.3c0,0,0,0.1,0,0.1
			c0,0.1,0,0.2,0,0.3c0,0,0,0.1,0,0.1c0,0.1,0,0.1-0.1,0.2c0,0.1,0,0.1,0,0.2c0,0.1-0.1,0.1-0.1,0.2c0,0.1-0.1,0.1-0.1,0.2
			c0,0.1,0,0.1-0.1,0.2c-0.1,0.1-0.1,0.3-0.2,0.4c-0.1,0.1-0.2,0.3-0.2,0.5c0,0.1-0.1,0.1-0.1,0.2c0,0.1-0.1,0.2-0.1,0.2
			c-0.1,0.2-0.3,0.5-0.4,0.8c0,0.1-0.1,0.2-0.2,0.3c0,0.1-0.1,0.2-0.2,0.3c-0.1,0.2-0.2,0.4-0.3,0.6c-0.1,0.1-0.1,0.2-0.2,0.3
			c-0.1,0.1-0.1,0.2-0.2,0.3c-0.1,0.1-0.1,0.2-0.2,0.3c-0.1,0.1-0.1,0.2-0.2,0.3C25,26,25,26.1,24.9,26.2c-0.1,0.1-0.1,0.2-0.2,0.3
			c-0.1,0.2-0.3,0.4-0.5,0.6c-0.1,0.1-0.2,0.2-0.2,0.3c-0.1,0.1-0.2,0.2-0.2,0.3c-0.2,0.3-0.5,0.5-0.8,0.8c-0.2,0.2-0.4,0.3-0.6,0.5
			c-0.1,0.1-0.2,0.2-0.3,0.2c-0.2,0.2-0.4,0.3-0.6,0.5c-0.1,0.1-0.2,0.2-0.3,0.2c-0.2,0.1-0.3,0.1-0.3,0.2c0,0.1,0.1,0.1,0.3,0.1
			c0.1,0,0.2,0.1,0.2,0.1c0.3,0.2,0.5,0.3,0.8,0.5c0.1,0.1,0.2,0.1,0.3,0.2c0.2,0.2,0.5,0.4,0.7,0.6c0.1,0.1,0.2,0.2,0.3,0.2
			c0.2,0.2,0.3,0.3,0.5,0.5c0.1,0.1,0.2,0.2,0.2,0.3c0.1,0.1,0.2,0.2,0.2,0.2c0.1,0.1,0.2,0.2,0.2,0.3c0.2,0.2,0.3,0.3,0.5,0.5
			c0.2,0.2,0.3,0.3,0.5,0.5c0.2,0.3,0.4,0.5,0.6,0.8c0.2,0.3,0.4,0.6,0.6,0.8c0.1,0.1,0.1,0.2,0.2,0.3c0.1,0.1,0.1,0.2,0.2,0.3
			c0.1,0.1,0.1,0.2,0.2,0.3c0.1,0.2,0.2,0.4,0.3,0.5c0,0.1,0.1,0.2,0.2,0.3c0.1,0.1,0.1,0.2,0.2,0.2c0.1,0.1,0.1,0.2,0.2,0.2
			c0.1,0.1,0.1,0.2,0.2,0.2c0.1,0.2,0.2,0.3,0.3,0.5c0,0.1,0.1,0.1,0.1,0.2c0,0.1,0.1,0.1,0.1,0.2c0,0.1,0.1,0.1,0.1,0.2
			c0.1,0.2,0.2,0.4,0.3,0.5c0,0.1,0,0.1,0.1,0.2c0,0.1,0,0.1,0.1,0.1c0,0.1,0.1,0.2,0.1,0.3c0,0,0,0.1,0,0.1c0,0,0,0.1,0,0.1
			c0.1,0.1,0,0.2,0,0.2c0,0,0,0.1-0.1,0.1c0,0-0.1,0.1-0.1,0.2c-0.1,0.1-0.2,0.2-0.3,0.3c-0.1,0.1-0.1,0.1-0.2,0.2
			c-0.1,0.1-0.2,0.1-0.3,0.1c-0.1,0.1-0.2,0.1-0.3,0.2c-0.1,0.1-0.2,0.1-0.3,0.2c-0.2,0.1-0.4,0.3-0.6,0.4c-0.2,0.1-0.4,0.2-0.7,0.3
			c-0.1,0.1-0.2,0.1-0.3,0.1c-0.4,0.2-0.8,0.4-1.2,0.5c-0.2,0.1-0.3,0.1-0.5,0.2c-0.1,0-0.3,0.1-0.4,0.1c-0.1,0-0.2,0.1-0.3,0
			c0,0-0.1,0-0.1,0c0,0,0,0,0,0c-0.1,0-0.1-0.1-0.1-0.2c0,0-0.1-0.1-0.1-0.1c0,0-0.1-0.1-0.1-0.1c0,0-0.1-0.1-0.1-0.1
			c0,0-0.1-0.1-0.1-0.1c0-0.1-0.1-0.1-0.1-0.2c0-0.1-0.1-0.2-0.2-0.3c0-0.1-0.1-0.1-0.1-0.2c-0.1-0.2-0.2-0.4-0.3-0.6
			c-0.1-0.2-0.1-0.3-0.2-0.5c0-0.1-0.1-0.2-0.1-0.3c-0.1-0.3-0.3-0.5-0.4-0.8c0-0.1-0.1-0.2-0.1-0.3c-0.1-0.2-0.2-0.4-0.3-0.6
			c0-0.1-0.1-0.2-0.2-0.3c-0.1-0.2-0.2-0.4-0.3-0.6c-0.1-0.2-0.2-0.4-0.3-0.6c-0.1-0.2-0.3-0.4-0.4-0.6c-0.2-0.4-0.5-0.8-0.8-1.2
			c-0.1-0.1-0.1-0.2-0.2-0.3c-0.1-0.1-0.2-0.2-0.2-0.3c-0.3-0.3-0.5-0.6-0.8-0.9c-0.1-0.1-0.2-0.2-0.3-0.3c-0.1-0.1-0.2-0.2-0.3-0.3
			c-0.1-0.1-0.2-0.2-0.3-0.3c-0.1-0.1-0.2-0.2-0.3-0.3c-0.1,0-0.1,0.1,0,0.2c0,0.1,0,0.1,0,0.2c0,0.1,0,0.2,0,0.2c0,0.1,0,0.2,0,0.3
			c0,0.2,0,0.4,0,0.6c0,0.1,0,0.2,0,0.3c0,0.1,0,0.2,0,0.3c0,0.2,0,0.4,0,0.7c0,0.1,0,0.2,0,0.3c0,0.1,0,0.2,0,0.3
			c0,0.1,0,0.3,0,0.4c0,0.2,0,0.5,0,0.7c0,0.1,0,0.3,0,0.4c0,0.1,0,0.2,0,0.3c0,0.1,0,0.3,0,0.4c0,0.2,0,0.5,0,0.7
			c0,0.1,0,0.2,0,0.3c0,0.1,0,0.2,0,0.3c0,0.1,0,0.2,0,0.3c0,0.2,0,0.4,0,0.6c0,0.1,0,0.2,0,0.3c0,0.2,0,0.4,0,0.5
			c0.1,0.3,0.1,0.9,0,1.2c0,0.1,0,0.1,0,0.2c0,0,0,0,0,0.1c0,0,0,0,0,0c0,0-0.1,0-0.1,0c0,0-0.1,0-0.1,0c-0.1,0-0.3,0.1-0.4,0.1
			c-0.2,0-0.4,0-0.6,0c-0.1,0-0.2,0-0.3,0c-0.2,0-0.5,0-0.7,0c-0.8,0-1.5,0-2.3,0c-0.2,0-0.4,0-0.6,0c-0.1,0-0.2,0-0.3,0
			c-0.1,0-0.2,0-0.2,0c-0.1,0-0.1,0-0.2,0c0,0-0.1,0-0.2,0c0,0-0.1,0-0.1,0c0,0,0,0,0,0h0c0-0.1,0-0.1,0-0.2c0-0.1,0-0.2,0-0.3
			c0-0.1,0-0.3,0-0.4c0-0.1,0-0.2,0-0.3c0-0.1,0-0.3,0-0.4c0-0.1,0-0.3,0-0.5c0-0.2,0-0.3,0-0.5c0-0.2,0-0.4,0-0.5
			c0-0.2,0-0.4,0-0.6c0-0.2,0-0.4,0-0.6c0-0.1,0-0.2,0-0.3c0-0.2,0-0.4,0-0.6c0-0.2,0-0.4,0-0.7c0-0.2,0-0.5,0-0.7
			c0-0.1,0-0.2,0-0.4c0-0.2,0-0.5,0-0.7c0-0.3,0-0.5,0-0.8c0-0.3,0-0.5,0-0.8c0-0.3,0-0.5,0-0.8c0-0.3,0-0.5,0-0.8
			c0-0.1,0-0.3,0-0.4c0-0.4,0-0.8,0-1.2c0-0.3,0-0.5,0-0.8c0-0.3,0-0.5,0-0.8c0-0.4,0-0.8,0-1.2c0-0.4,0-0.8,0-1.2
			c-0.1-0.5,0-1,0-1.5c-0.1-1.2-0.2-2.9,0-4.1c0-0.3,0-0.5,0-0.8c0-0.2,0-0.4,0-0.6c0-0.1,0-0.2,0-0.4c0-0.1,0-0.2,0-0.3
			c0-0.1,0-0.1,0-0.2c0-0.1,0-0.2,0-0.2c0,0,0-0.1,0-0.1c0,0,0-0.1,0-0.1c0,0,0-0.1,0-0.1c0,0,0,0,0,0
			C11.1,18.9,11.1,18.8,11.2,18.8C11.2,18.7,11.1,18.8,11.2,18.8z"/>
		<path fill="#1B7C09" d="M39.9,41.4c0-0.1-0.1,0-0.1,0.2c0,0.1-0.1,0.1-0.2,0.2c-0.1,0.1-0.2,0.2-0.3,0.3c-0.1,0.1-0.1,0.1-0.2,0.1
			c-0.1,0.1-0.2,0.2-0.3,0.3c-0.1,0-0.1,0.1-0.2,0.1c-0.2,0.1-0.4,0.2-0.5,0.3C38,43,37.9,43,37.8,43.1c-0.1,0-0.1,0-0.2,0.1
			c-0.1,0-0.1,0.1-0.2,0.1c-0.1,0-0.1,0-0.2,0c-0.2,0.1-0.5,0.2-0.8,0.2c-0.1,0-0.1,0-0.2,0c-0.1,0-0.3,0-0.4,0c-0.1,0-0.1,0-0.2,0
			c-0.1,0-0.2,0-0.4,0c-0.1,0-0.1,0-0.2,0c-0.1,0-0.1,0-0.2,0c-0.2,0-0.4-0.1-0.6-0.1c-0.1,0-0.3-0.1-0.4-0.1
			c-0.1,0-0.1-0.1-0.2-0.1c-0.1,0-0.1-0.1-0.2-0.1c-0.2-0.1-0.3-0.2-0.5-0.3c-0.1,0-0.1-0.1-0.2-0.1c-0.1,0-0.1-0.1-0.2-0.1
			c-0.1,0-0.1-0.1-0.2-0.1c-0.1-0.1-0.2-0.1-0.3-0.2c-0.2-0.1-0.4-0.3-0.5-0.4c0,0-0.1-0.1-0.2-0.2c0-0.1-0.1-0.1-0.2-0.2
			c-0.1-0.1-0.3-0.3-0.4-0.5c0-0.1-0.1-0.1-0.1-0.2c0-0.1-0.1-0.1-0.1-0.2c0-0.1-0.1-0.1-0.1-0.2c0-0.1-0.1-0.1-0.1-0.2
			c-0.1-0.1-0.2-0.3-0.2-0.4c-0.1-0.3-0.3-0.6-0.3-0.9c0-0.1-0.1-0.2-0.1-0.2c0-0.1,0-0.2,0-0.2c-0.1-0.3-0.1-0.7-0.2-1.1
			c0-0.1,0-0.2,0-0.3c0-0.1,0-0.2,0-0.3c0-0.4,0-0.8,0-1.2c0-0.1,0-0.2,0-0.3c0-0.3,0.1-0.6,0.1-0.9c0-0.1,0.1-0.3,0.1-0.4
			c0-0.3,0.1-0.7,0.3-1c0-0.1,0.1-0.2,0.1-0.3c0.1-0.2,0.1-0.4,0.2-0.6c0-0.1,0.1-0.2,0.1-0.3c0-0.1,0.1-0.2,0.2-0.3
			c0-0.1,0.1-0.2,0.2-0.3c0-0.1,0.1-0.2,0.2-0.2c0.1-0.1,0.1-0.2,0.2-0.2c0.3-0.4,0.6-0.7,0.9-1c0.1-0.1,0.1-0.1,0.2-0.2
			c0.1-0.1,0.3-0.2,0.4-0.3c0.2-0.2,0.4-0.3,0.7-0.4c0.1,0,0.2-0.1,0.2-0.1c0.1,0,0.2-0.1,0.2-0.1c0.1,0,0.1-0.1,0.2-0.1
			c0.1,0,0.2-0.1,0.2-0.1c0.2,0,0.3-0.1,0.5-0.1c0.3-0.1,0.7-0.2,1-0.2c0.1,0,0.2,0,0.2,0c0.3-0.1,0.7-0.1,1,0c0.1,0,0.2,0,0.2,0
			c0.2,0,0.5,0.1,0.7,0.1c0.2,0.1,0.5,0.1,0.7,0.2c0.1,0,0.3,0.1,0.4,0.2c0.1,0,0.1,0.1,0.2,0.1c0.1,0.1,0.3,0.1,0.4,0.2
			c0.1,0,0.1,0.1,0.2,0.1c0.1,0.1,0.3,0.2,0.4,0.3c0.1,0.2,0.2,0.2,0.2,0.2c0-0.3,0.1-0.6,0.1-0.8c0-0.1,0.1-0.2,0.1-0.3
			c0-0.1,0-0.1,0.1-0.1c0.1,0,0.2-0.1,0.2-0.1c0.1,0,0.1,0,0.2,0c0.6-0.1,1.4-0.1,2,0c0.1,0,0.3,0,0.4,0c0.6,0,1.3,0,1.9,0.3
			c0.1,0,0.1,0,0.2,0c0,0,0.1,0.1,0.1,0.1l0,0c0,0.3,0,0.7,0,0.9c0,0.1,0,0.2,0,0.2c0,0.2,0,0.3,0,0.5c0,0.1,0,0.2,0,0.3
			c0,0.2,0,0.4,0,0.6c0,0.1,0,0.2,0,0.3c0,0.2,0,0.5,0,0.7c0,0.1,0,0.3,0,0.4c0,0.4,0,0.8,0,1.2c0,0.6,0,1.2,0,1.8
			c0,0.4,0,0.9,0,1.3c0,0.1,0,0.3,0,0.4c0,0.3,0,0.5,0,0.8c0,0.1,0,0.3,0,0.4c0,0.1,0,0.3,0,0.4c0,0.1,0,0.2,0,0.3
			c0,0.1,0,0.2,0,0.3c0,0.1,0,0.2,0,0.3c0,0.1,0,0.2,0,0.3c0,0.1,0,0.2,0,0.3c0,0.2,0,0.4,0,0.5c0,0.1,0,0.2,0,0.3
			c0,0.1,0,0.2,0,0.2c0,0.1,0,0.3,0,0.4c0,0.1,0,0.2,0,0.4c0,0.2,0.1,0.5,0,0.7c0,0,0,0.1,0,0.1c0,0,0,0,0,0.1c0,0-0.1,0-0.1,0
			c-0.1,0-0.1,0-0.2,0c-0.1,0-0.1,0-0.2,0c-0.1,0-0.2,0-0.2,0c-0.1,0-0.2,0-0.3,0c-0.8,0.1-1.8,0.1-2.6,0c-0.1,0-0.3,0-0.4,0
			c-0.1,0-0.3,0-0.4,0c-0.1,0-0.2,0-0.3,0c-0.1,0-0.2,0-0.3,0c-0.1,0-0.2,0-0.3,0c-0.1,0-0.1,0-0.2,0c-0.1,0-0.1,0-0.2,0
			c0,0-0.1,0-0.1,0c0,0-0.1,0-0.1,0c0,0-0.1-0.1-0.1-0.1c0-0.1-0.1-0.1-0.1-0.2c0-0.1,0-0.2,0-0.2c0-0.1,0-0.2,0-0.3
			c0-0.1,0-0.2,0-0.3c0-0.1,0-0.2,0-0.3C39.9,41.6,39.9,41.5,39.9,41.4C39.9,41.3,39.9,41.5,39.9,41.4z M37.8,33.1
			c-0.2,0-0.4,0-0.6,0c-0.2,0-0.4,0.1-0.5,0.2c-0.2,0.1-0.5,0.3-0.7,0.5c-0.1,0.1-0.3,0.3-0.4,0.5c-0.1,0.2-0.2,0.3-0.3,0.5
			c0,0.1-0.1,0.2-0.1,0.3c0,0.3-0.1,0.6-0.1,0.9c0,0.3,0.1,0.6,0.3,0.8c0.1,0.1,0.1,0.2,0.2,0.2c0.2,0.3,0.5,0.6,0.8,0.8
			c0.5,0.4,1.3,0.3,1.9,0.1c0.1,0,0.2-0.1,0.3-0.1c0.1-0.1,0.2-0.1,0.3-0.2c0.1,0,0.2-0.1,0.2-0.2c0.2-0.1,0.3-0.3,0.4-0.4
			c0.1-0.2,0.2-0.3,0.3-0.5c0-0.1,0.1-0.2,0.1-0.3c0-0.2,0.1-0.4,0.1-0.6c0-0.2,0-0.4-0.1-0.6c0-0.1-0.1-0.2-0.1-0.3
			c0-0.1-0.1-0.2-0.1-0.3c0-0.1-0.1-0.2-0.2-0.2c-0.1-0.1-0.3-0.3-0.4-0.4c-0.1-0.1-0.2-0.1-0.2-0.2c-0.2-0.1-0.4-0.2-0.5-0.3
			C38.2,33.2,38,33.1,37.8,33.1C37.7,33.1,37.9,33.1,37.8,33.1z"/>
		<path fill="#020202" d="M57,41.4c0-0.1-0.1,0-0.1,0.2c0,0.1-0.1,0.1-0.2,0.2c-0.1,0.1-0.2,0.2-0.3,0.3c-0.1,0.1-0.1,0.1-0.2,0.1
			c-0.1,0.1-0.2,0.2-0.3,0.3c-0.1,0-0.1,0.1-0.2,0.1c-0.2,0.1-0.4,0.2-0.5,0.3C55.1,43,55,43,54.9,43.1c-0.1,0-0.1,0-0.2,0.1
			c-0.1,0-0.1,0.1-0.2,0.1c-0.1,0-0.1,0-0.2,0c-0.2,0.1-0.5,0.2-0.8,0.2c-0.1,0-0.1,0-0.2,0c-0.1,0-0.3,0-0.4,0c-0.1,0-0.1,0-0.2,0
			c-0.1,0-0.2,0-0.4,0c-0.1,0-0.1,0-0.2,0c-0.1,0-0.1,0-0.2,0c-0.2,0-0.4-0.1-0.6-0.1c-0.1,0-0.3-0.1-0.4-0.1
			c-0.1,0-0.1-0.1-0.2-0.1c-0.1,0-0.1-0.1-0.2-0.1c-0.2-0.1-0.3-0.2-0.5-0.3c-0.1,0-0.1-0.1-0.2-0.1c-0.1,0-0.1-0.1-0.2-0.1
			c-0.1,0-0.1-0.1-0.2-0.1c-0.1-0.1-0.2-0.1-0.3-0.2c-0.2-0.1-0.4-0.3-0.5-0.4c0,0-0.1-0.1-0.2-0.2c0-0.1-0.1-0.1-0.2-0.2
			c-0.1-0.1-0.3-0.3-0.4-0.5c0-0.1-0.1-0.1-0.1-0.2c0-0.1-0.1-0.1-0.1-0.2c0-0.1-0.1-0.1-0.1-0.2c0-0.1-0.1-0.1-0.1-0.2
			c-0.1-0.1-0.2-0.3-0.2-0.4c-0.1-0.3-0.3-0.6-0.3-0.9c0-0.1-0.1-0.2-0.1-0.2c0-0.1,0-0.2,0-0.2c-0.1-0.3-0.1-0.7-0.2-1.1
			c0-0.1,0-0.2,0-0.3c0-0.1,0-0.2,0-0.3c0-0.4,0-0.8,0-1.2c0-0.1,0-0.2,0-0.3c0-0.3,0.1-0.6,0.1-0.9c0-0.1,0.1-0.3,0.1-0.4
			c0-0.3,0.1-0.7,0.3-1c0-0.1,0.1-0.2,0.1-0.3c0.1-0.2,0.1-0.4,0.2-0.6c0-0.1,0.1-0.2,0.1-0.3c0-0.1,0.1-0.2,0.2-0.3
			c0-0.1,0.1-0.2,0.2-0.3c0-0.1,0.1-0.2,0.2-0.2c0.1-0.1,0.1-0.2,0.2-0.2c0.3-0.4,0.6-0.7,0.9-1c0.1-0.1,0.1-0.1,0.2-0.2
			c0.1-0.1,0.3-0.2,0.4-0.3c0.2-0.2,0.4-0.3,0.7-0.4c0.1,0,0.2-0.1,0.2-0.1c0.1,0,0.2-0.1,0.2-0.1c0.1,0,0.1-0.1,0.2-0.1
			c0.1,0,0.2-0.1,0.2-0.1c0.2,0,0.3-0.1,0.5-0.1c0.3-0.1,0.7-0.2,1-0.2c0.1,0,0.2,0,0.2,0c0.3-0.1,0.7-0.1,1,0c0.1,0,0.2,0,0.2,0
			c0.2,0,0.5,0.1,0.7,0.1c0.2,0.1,0.5,0.1,0.7,0.2c0.1,0,0.3,0.1,0.4,0.2c0.1,0,0.1,0.1,0.2,0.1c0.1,0.1,0.3,0.1,0.4,0.2
			c0.1,0,0.1,0.1,0.2,0.1c0.1,0.1,0.3,0.2,0.4,0.3c0.1,0.2,0.2,0.2,0.2,0.2c0-0.3,0.1-0.6,0.1-0.8c0-0.1,0.1-0.2,0.1-0.3
			c0-0.1,0-0.1,0.1-0.1c0.1,0,0.2-0.1,0.2-0.1c0.1,0,0.1,0,0.2,0c0.6-0.1,1.4-0.1,2,0c0.1,0,0.3,0,0.4,0c0.6,0,1.3,0,1.9,0.3
			c0.1,0,0.1,0,0.2,0c0,0,0.1,0.1,0.1,0.1l0,0c0,0.3,0,0.7,0,0.9c0,0.1,0,0.2,0,0.2c0,0.2,0,0.3,0,0.5c0,0.1,0,0.2,0,0.3
			c0,0.2,0,0.4,0,0.6c0,0.1,0,0.2,0,0.3c0,0.2,0,0.5,0,0.7c0,0.1,0,0.3,0,0.4c0,0.4,0,0.8,0,1.2c0,0.6,0,1.2,0,1.8
			c0,0.4,0,0.9,0,1.3c0,0.1,0,0.3,0,0.4c0,0.3,0,0.5,0,0.8c0,0.1,0,0.3,0,0.4c0,0.1,0,0.3,0,0.4c0,0.1,0,0.2,0,0.3
			c0,0.1,0,0.2,0,0.3c0,0.1,0,0.2,0,0.3c0,0.1,0,0.2,0,0.3c0,0.1,0,0.2,0,0.3c0,0.2,0,0.4,0,0.5c0,0.1,0,0.2,0,0.3
			c0,0.1,0,0.2,0,0.2c0,0.1,0,0.3,0,0.4c0,0.1,0,0.2,0,0.4c0,0.2,0.1,0.5,0,0.7c0,0,0,0.1,0,0.1c0,0,0,0,0,0.1c0,0-0.1,0-0.1,0
			c-0.1,0-0.1,0-0.2,0c-0.1,0-0.1,0-0.2,0c-0.1,0-0.2,0-0.2,0c-0.1,0-0.2,0-0.3,0c-0.8,0.1-1.8,0.1-2.6,0c-0.1,0-0.3,0-0.4,0
			c-0.1,0-0.3,0-0.4,0c-0.1,0-0.2,0-0.3,0c-0.1,0-0.2,0-0.3,0c-0.1,0-0.2,0-0.3,0c-0.1,0-0.1,0-0.2,0c-0.1,0-0.1,0-0.2,0
			c0,0-0.1,0-0.1,0c0,0-0.1,0-0.1,0c0,0-0.1-0.1-0.1-0.1c0-0.1-0.1-0.1-0.1-0.2c0-0.1,0-0.2,0-0.2c0-0.1,0-0.2,0-0.3
			c0-0.1,0-0.2,0-0.3c0-0.1,0-0.2,0-0.3C57,41.6,57,41.5,57,41.4C57,41.3,57,41.5,57,41.4z M55,33.1c-0.2,0-0.4,0-0.6,0
			c-0.2,0-0.4,0.1-0.5,0.2c-0.2,0.1-0.5,0.3-0.7,0.5c-0.1,0.1-0.3,0.3-0.4,0.5c-0.1,0.2-0.2,0.3-0.3,0.5c0,0.1-0.1,0.2-0.1,0.3
			c0,0.3-0.1,0.6-0.1,0.9c0,0.3,0.1,0.6,0.3,0.8c0.1,0.1,0.1,0.2,0.2,0.2c0.2,0.3,0.5,0.6,0.8,0.8c0.5,0.4,1.3,0.3,1.9,0.1
			c0.1,0,0.2-0.1,0.3-0.1c0.1-0.1,0.2-0.1,0.3-0.2c0.1,0,0.2-0.1,0.2-0.2c0.2-0.1,0.3-0.3,0.4-0.4c0.1-0.2,0.2-0.3,0.3-0.5
			c0-0.1,0.1-0.2,0.1-0.3c0-0.2,0.1-0.4,0.1-0.6c0-0.2,0-0.4-0.1-0.6c0-0.1-0.1-0.2-0.1-0.3c0-0.1-0.1-0.2-0.1-0.3
			c0-0.1-0.1-0.2-0.2-0.2c-0.1-0.1-0.3-0.3-0.4-0.4c-0.1-0.1-0.2-0.1-0.2-0.2c-0.2-0.1-0.4-0.2-0.5-0.3C55.3,33.2,55.1,33.1,55,33.1
			C54.9,33.1,55.1,33.1,55,33.1z"/>
	</g>
</g>
</svg>
