<?xml version="1.0" encoding="utf-8"?>
<!-- Generator: Adobe Illustrator 18.0.0, SVG Export Plug-In . SVG Version: 6.00 Build 0)  -->
<!DOCTYPE svg PUBLIC "-//W3C//DTD SVG 1.0//EN" "http://www.w3.org/TR/2001/REC-SVG-20010904/DTD/svg10.dtd">
<svg version="1.0" id="Camada_1" xmlns="http://www.w3.org/2000/svg" xmlns:xlink="http://www.w3.org/1999/xlink" x="0px" y="0px"
	 viewBox="0 0 88.8 55.5" enable-background="new 0 0 88.8 55.5" xml:space="preserve">
<g>
	<g>
		<path fill="#1B7C09" d="M10.6,41L10.6,41c0-0.1,0-0.3,0-0.4c0,0,0-0.1,0-0.1c0,0,0-0.1,0-0.1c0,0,0-0.1,0-0.1c0,0,0-0.1,0-0.2
			c0-0.1,0-0.1,0-0.2c0-0.1,0.1-0.2,0.1-0.4c0.1-0.4,0.2-0.9,0.3-1.3c0.1-0.2,0.1-0.3,0.1-0.5c0-0.2,0.1-0.4,0.1-0.6
			c0-0.1,0-0.2,0.1-0.3c0-0.1,0-0.2,0.1-0.3c0-0.1,0-0.2,0.1-0.3c0-0.1,0-0.2,0.1-0.3c0-0.2,0.1-0.4,0.1-0.6c0-0.1,0.1-0.2,0.1-0.3
			c0-0.2,0.1-0.5,0.2-0.7c0.1-0.5,0.2-0.9,0.3-1.4c0.3-1.2,0.5-2.6,0.9-3.8c0.1-0.6,0.3-1.3,0.4-1.9c0.2-0.7,0.4-1.5,0.5-2.3
			c0.3-0.8,0.4-1.7,0.6-2.5c0.1-0.4,0.2-0.9,0.3-1.3c0-0.2,0.1-0.4,0.2-0.6c0-0.2,0.1-0.4,0.2-0.6c0-0.2,0.1-0.4,0.1-0.6
			c0-0.1,0.1-0.2,0.1-0.3c0-0.1,0-0.2,0.1-0.3c0-0.1,0.1-0.2,0.1-0.3c0-0.1,0.1-0.2,0.1-0.2c0-0.1,0.1-0.3,0.1-0.4
			c0-0.1,0.1-0.3,0.1-0.4c0-0.2,0.1-0.3,0.1-0.5c0,0,0-0.1,0-0.1c0-0.1,0.1-0.2,0.1-0.2c0,0,0-0.1,0-0.1c0,0,0-0.1,0-0.1
			c0,0,0-0.1,0-0.1c0,0,0,0,0-0.1c0,0,0,0,0-0.1c0,0,0,0,0,0c0,0,0.1,0,0.1,0c0,0,0.1,0,0.1,0c0.1,0,0.3-0.1,0.5-0.1
			c0.1,0,0.2,0,0.3,0c0.2,0,0.4,0,0.6,0c0.5,0,1,0,1.5,0c0.2,0,0.5,0,0.7,0c0.1,0,0.3,0,0.4,0c0.1,0,0.2,0,0.3,0c0.2,0,0.4,0,0.6,0
			c0.1,0,0.3,0.1,0.4,0.1c0,0,0.1,0,0.1,0c0,0,0.1,0,0.1,0c0,0,0,0,0,0c0,0,0,0.1,0,0.1c0,0,0,0.1,0,0.1c0,0.1,0,0.1,0,0.2
			c0.1,0.1,0.1,0.3,0.1,0.4c0,0.1,0,0.2,0.1,0.3c0,0.1,0.1,0.2,0.1,0.3c0,0.1,0,0.2,0.1,0.3c0,0.1,0.1,0.2,0.1,0.3
			c0,0.1,0.1,0.2,0.1,0.3c0,0.1,0.1,0.2,0.1,0.4c0,0.2,0.1,0.5,0.1,0.8c0,0.1,0.1,0.3,0.1,0.4c0,0.3,0.1,0.5,0.1,0.8
			c0,0.1,0.1,0.3,0.1,0.4c0,0.3,0.1,0.5,0.1,0.8c0,0.1,0.1,0.3,0.1,0.4c0,0.1,0.1,0.3,0.1,0.4c0,0.1,0.1,0.2,0.1,0.4
			c0,0.2,0.1,0.4,0.1,0.7c0,0.2,0.1,0.4,0.1,0.6c0,0.2,0.1,0.3,0.1,0.5c0,0.1,0.1,0.3,0.1,0.4c0,0,0,0.1,0,0.1c0,0,0,0.1,0,0.1
			c0,0,0,0.1,0,0.1v0v0c0,0,0,0,0-0.1c0,0,0-0.1,0-0.1c0,0,0-0.1,0-0.2c0-0.1,0-0.1,0-0.2c0.1-0.4,0.1-0.9,0.2-1.3
			c0-0.1,0-0.2,0-0.3c0-0.1,0.1-0.2,0.1-0.3c0-0.1,0-0.2,0.1-0.3c0-0.1,0.1-0.3,0.1-0.4c0-0.3,0.1-0.5,0.1-0.8
			c0.1-0.3,0.1-0.5,0.2-0.8c0.1-0.4,0.2-0.8,0.2-1.2c0.1-0.4,0.2-0.7,0.2-1.1c0.1-0.2,0.1-0.5,0.2-0.7c0-0.2,0.1-0.4,0.1-0.6
			c0-0.1,0.1-0.2,0.1-0.3c0-0.1,0-0.2,0.1-0.3c0-0.1,0-0.1,0.1-0.2c0-0.1,0-0.1,0.1-0.2c0-0.1,0-0.1,0-0.1c0,0,0-0.1,0.1-0.1
			c0-0.1,0-0.1,0.1-0.1c0.1-0.1,0.3,0,0.3,0c0.2,0,0.3,0,0.5,0c0.1,0,0.2,0,0.3,0c0.1,0,0.2,0,0.3,0c0.2,0,0.5,0,0.7,0
			c0.1,0,0.3,0,0.4,0c0.3,0,0.5,0,0.8,0c0.5,0,1-0.1,1.4,0c0.1,0,0.2,0,0.3,0c0.1,0,0.2,0,0.3,0c0.1,0,0.1,0,0.2,0
			c0.1,0,0.1,0,0.2,0c0,0,0.1,0,0.1,0.1h0c0,0,0,0,0,0c0,0,0,0,0,0c0,0,0,0,0,0.1c0,0.1,0,0.1,0,0.2c0,0,0,0.1,0,0.1
			c0,0.1,0.1,0.2,0.1,0.3c0,0.1,0,0.1,0,0.2c0,0.1,0,0.1,0,0.1c0.1,0.2,0.1,0.4,0.2,0.6c0,0.1,0.1,0.3,0.1,0.4c0,0.1,0,0.1,0,0.2
			c0,0.1,0.1,0.2,0.1,0.2c0,0.1,0.1,0.2,0.1,0.3c0,0.1,0.1,0.2,0.1,0.3c0,0.1,0.1,0.2,0.1,0.3c0,0.1,0.1,0.2,0.1,0.3
			c0,0.2,0.1,0.4,0.1,0.6c0.1,0.2,0.1,0.4,0.2,0.6c0.1,0.3,0.2,0.6,0.3,1c0.1,1.2,0.6,2.4,0.8,3.6c0.2,0.6,0.3,1.3,0.5,1.9
			c0.2,0.6,0.3,1.3,0.5,2c0.4,1.6,0.9,3.2,1.1,4.8c0.1,0.2,0.1,0.5,0.2,0.7c0,0.2,0.1,0.4,0.2,0.7c0,0.2,0.1,0.4,0.1,0.6
			c0,0.1,0,0.2,0.1,0.3c0,0.1,0.1,0.2,0.1,0.3c0,0.1,0,0.2,0.1,0.3c0,0.1,0,0.2,0.1,0.3c0,0.1,0,0.2,0,0.3c0,0.2,0.1,0.4,0.1,0.5
			c0,0.2,0.1,0.3,0.1,0.5c0.1,0.4,0.1,0.7,0.2,1.1c0,0.1,0,0.2,0.1,0.4c0,0,0,0.1,0,0.2c0,0,0,0.1,0,0.2c0,0,0,0.1,0,0.1
			c0,0,0,0.1,0,0.1c0,0.1,0,0.1,0,0.2c0,0.1,0,0.2,0,0.2v0c0,0,0,0-0.1,0c0,0-0.1,0-0.1,0c-0.1,0-0.1,0-0.2,0c-0.1,0-0.1,0-0.2,0
			c-0.1,0-0.1,0-0.2,0c-0.1,0-0.2,0-0.3,0c-0.1,0-0.2,0-0.3,0c-0.1,0-0.2,0-0.3,0c-0.1,0-0.2,0-0.3,0c-0.2,0-0.5,0-0.7,0
			c-0.8,0.1-1.6,0.1-2.4,0c-0.2,0-0.5,0-0.7,0c-0.1,0-0.2,0-0.3,0c-0.1,0-0.2,0-0.3,0c-0.1,0-0.2,0-0.3,0c-0.1,0-0.2,0-0.3,0
			c-0.1,0-0.2,0-0.2,0c-0.1,0-0.1,0-0.2,0c-0.1,0-0.1,0-0.2,0c0,0-0.1,0-0.1,0c0,0-0.1,0-0.1,0c0,0,0,0,0-0.1c0,0,0,0,0-0.1
			c0,0,0-0.1,0-0.1c0-0.1,0-0.1,0-0.2c0-0.1,0-0.1,0-0.2c-0.1-0.1-0.1-0.3-0.1-0.4c0-0.1-0.1-0.2-0.1-0.3c0-0.2-0.1-0.4-0.1-0.6
			c0-0.1,0-0.2-0.1-0.3c0-0.2-0.1-0.4-0.1-0.7c0-0.1-0.1-0.2-0.1-0.3c0-0.1-0.1-0.3-0.1-0.4c0-0.3-0.1-0.5-0.1-0.8
			c0-0.1-0.1-0.3-0.1-0.4c0-0.3-0.1-0.5-0.1-0.8c0-0.1-0.1-0.3-0.1-0.4c0-0.3-0.1-0.5-0.1-0.8c0-0.1-0.1-0.3-0.1-0.4
			c0-0.1-0.1-0.3-0.1-0.4c0-0.1-0.1-0.3-0.1-0.4c0-0.1-0.1-0.2-0.1-0.4c0-0.1-0.1-0.2-0.1-0.3c0-0.2-0.1-0.5-0.1-0.7
			c-0.1-0.5-0.2-1.1-0.3-1.6c0-0.1,0-0.1,0-0.2c0-0.1,0-0.3-0.1-0.4c0,0,0,0,0,0v0v0c0,0,0,0,0,0c0,0,0,0.1,0,0.1c0,0,0,0.1,0,0.1
			c0,0.1,0,0.1,0,0.1c-0.1,0.2-0.2,0.4-0.2,0.6c-0.1,0.3-0.2,0.5-0.3,0.8c-0.1,0.2-0.1,0.4-0.2,0.6c0,0.1-0.1,0.2-0.1,0.3
			c-0.1,0.2-0.1,0.5-0.2,0.7c-0.1,0.4-0.3,0.7-0.4,1.1c-0.3,0.9-0.6,1.7-0.9,2.6c-0.1,0.3-0.3,0.7-0.3,1c0,0.1-0.1,0.2-0.1,0.3
			c0,0.1-0.1,0.2-0.1,0.3c0,0.1-0.1,0.2-0.1,0.3c-0.1,0.3-0.2,0.5-0.4,0.8c0,0-0.1,0.1-0.1,0.1c0,0,0,0.1-0.1,0.1c0,0,0,0.1,0,0.1
			c0,0,0,0,0,0c0,0-0.1,0-0.1-0.1c0,0-0.1,0-0.1-0.1c0,0-0.1-0.1-0.1-0.1c0-0.1-0.1-0.1-0.1-0.2c0-0.1-0.1-0.1-0.1-0.2
			c0-0.1-0.1-0.1-0.1-0.2c0-0.1-0.1-0.1-0.1-0.2c0-0.1-0.1-0.2-0.1-0.2c-0.1-0.2-0.1-0.4-0.2-0.5c-0.1-0.3-0.3-0.6-0.4-0.9
			c-0.1-0.2-0.2-0.4-0.3-0.7c-0.5-1.2-0.9-2.4-1.3-3.6c-0.1-0.2-0.1-0.4-0.2-0.7c0-0.1-0.1-0.2-0.1-0.3c-0.1-0.2-0.1-0.4-0.2-0.6
			c-0.1-0.2-0.1-0.3-0.2-0.5c0-0.1-0.1-0.2-0.1-0.2c0-0.1,0-0.1-0.1-0.2c0-0.1,0-0.1-0.1-0.2c0,0,0-0.1,0-0.2c0,0,0-0.1,0-0.1
			c0,0,0-0.1,0-0.1c0,0,0,0,0,0v0v0c0,0,0,0,0,0c0,0.1,0,0.1,0,0.2c0,0.1,0,0.1,0,0.2c0,0.1,0,0.1,0,0.2c0,0.1,0,0.1,0,0.2
			c0,0.2,0,0.3,0,0.5c0,0.2-0.1,0.4-0.1,0.6c0,0.4-0.1,0.9-0.2,1.4c-0.1,0.4-0.1,0.8-0.2,1.2c-0.1,0.3-0.1,0.5-0.1,0.8
			c-0.1,0.3-0.1,0.5-0.1,0.8c0,0.3-0.1,0.5-0.1,0.8c0,0.1,0,0.3,0,0.4c0,0.3-0.1,0.5-0.1,0.8c0,0.1,0,0.2,0,0.3
			c-0.1,0.2-0.1,0.5-0.1,0.7c0,0.2-0.1,0.4-0.1,0.6c0,0.2-0.1,0.4-0.1,0.5c0,0.2-0.1,0.4-0.2,0.6c0,0.1-0.1,0.2-0.1,0.3
			c0,0,0,0,0,0.1c0,0,0,0.1,0,0.1c0,0,0,0-0.1,0c0,0-0.1,0-0.1,0c-0.1,0-0.1,0-0.2,0c-0.1,0-0.3,0.1-0.4,0.1c-0.1,0-0.2,0-0.3,0
			c-0.1,0-0.2,0-0.3,0c-0.1,0-0.2,0-0.3,0c-0.1,0-0.2,0-0.3,0c-0.2,0-0.5,0-0.7,0c-0.8,0.1-1.8,0.1-2.7,0c-0.2,0-0.5,0-0.7,0
			c-0.1,0-0.2,0-0.3,0c-0.1,0-0.2,0-0.3,0c-0.2,0-0.3,0-0.5,0c-0.1,0-0.2-0.1-0.3-0.1C10.8,41.1,10.7,41.1,10.6,41
			C10.7,41.1,10.7,41,10.6,41z"/>
		<path fill="#1B7C09" d="M43.3,15.7c0.2,0.1,0.4,0.1,0.5,0.3c0.1,0,0.2,0.1,0.2,0.2c0.1,0,0.1,0.1,0.2,0.2c0.1,0.1,0.1,0.1,0.2,0.2
			c0.3,0.2,0.5,0.5,0.7,0.9c0,0.1,0.1,0.2,0.1,0.2c0,0.1,0.1,0.1,0.1,0.2c0,0.1,0.1,0.2,0.1,0.3c0.1,0.3,0.1,0.7,0.1,1.1
			c0,0.1,0,0.2,0,0.3c0,0.1,0,0.2-0.1,0.3c0,0.3-0.1,0.6-0.3,0.8c0,0.1-0.1,0.2-0.1,0.2c0,0.1-0.1,0.2-0.2,0.2
			c-0.1,0.1-0.2,0.3-0.3,0.4c-0.2,0.2-0.4,0.4-0.6,0.5c-0.1,0.1-0.2,0.1-0.2,0.2c-0.1,0-0.2,0.1-0.2,0.1c-0.1,0-0.2,0.1-0.2,0.1
			c-0.4,0.2-0.9,0.3-1.4,0.3c-0.1,0-0.2,0-0.3,0c-0.1,0-0.2,0-0.3,0c-0.3,0-0.6-0.1-0.9-0.2c-0.1,0-0.2-0.1-0.3-0.1
			c-0.1-0.1-0.2-0.1-0.3-0.2c-0.1,0-0.1-0.1-0.2-0.2c-0.1-0.1-0.1-0.1-0.2-0.2c-0.1-0.1-0.3-0.3-0.3-0.5c-0.3-0.4-0.5-0.9-0.5-1.3
			c0-0.1,0-0.2,0-0.3c0-0.1,0-0.2,0-0.3c0-0.2,0-0.4,0-0.6c0-0.1,0-0.2,0-0.3c0-0.1,0-0.2,0.1-0.3c0-0.2,0.1-0.3,0.2-0.5
			c0-0.1,0.1-0.2,0.1-0.2c0.1-0.2,0.2-0.3,0.3-0.5c0.1-0.1,0.1-0.2,0.2-0.2c0.1-0.1,0.1-0.1,0.2-0.2c0.1-0.1,0.1-0.1,0.2-0.2
			c0.1-0.1,0.3-0.2,0.4-0.3c0.1-0.1,0.2-0.1,0.2-0.2c0.1,0,0.2-0.1,0.2-0.1c0.2-0.1,0.5-0.2,0.8-0.3c0.2,0,0.4-0.1,0.5-0.1
			C42.4,15.4,43,15.5,43.3,15.7C43.4,15.8,43.3,15.7,43.3,15.7z M39.8,25.8C39.8,25.8,39.8,25.9,39.8,25.8c0,0.1-0.1,0.2-0.1,0.3
			c0,0,0,0.1,0,0.1c0,0.1,0,0.1,0,0.2c0,0.1,0,0.1,0,0.2c0,0.1-0.1,0.3-0.1,0.4c0,0.2-0.1,0.3-0.1,0.5c0,0.2-0.1,0.4-0.1,0.5
			c0,0.3-0.1,0.6-0.1,0.9c0,0.2-0.1,0.4-0.1,0.7c0,0.4-0.1,0.7-0.1,1.1c0,0.2-0.1,0.5-0.1,0.8c0,0.3-0.1,0.5-0.1,0.8
			c0,0.1,0,0.3,0,0.4c0,0.3,0,0.5,0,0.8c0,0.1,0,0.3,0,0.4c0,0.1,0,0.3,0,0.4c0,0.3,0,0.5,0,0.8c0,0.3,0,0.5,0,0.8
			c0,0.1,0,0.2,0,0.4c0,0.1,0,0.2,0,0.4c0,0.1,0,0.2,0,0.4c0,0.3,0,0.7,0,1c0,0.6-0.1,1.2,0,1.7c0,0.2,0,0.3,0,0.5
			c0,0.1,0,0.1,0,0.2c0,0.1,0,0.1,0,0.2c0,0,0,0.1,0,0.1c0,0,0,0.1,0,0.1c0,0,0,0.1,0,0.1c0,0.1,0.1,0.1,0.1,0.2c0,0,0.1,0,0.1,0
			c0.1,0.1,0.2,0.1,0.4,0.1c0.1,0,0.2,0,0.2,0c0.1,0,0.2,0,0.3,0c0.1,0,0.2,0,0.3,0c0.1,0,0.2,0,0.3,0c0.1,0,0.2,0,0.3,0
			c0.1,0,0.2,0,0.3,0c0.2,0,0.5,0,0.7,0c0.2,0,0.5,0,0.7,0c0.3,0,0.7,0,1,0c0.1,0,0.2,0,0.3,0c0.1,0,0.2,0,0.3,0c0.2,0,0.3,0,0.5,0
			c0.1,0,0.2-0.1,0.3-0.1c0,0,0,0,0,0c0,0,0.1,0,0.1,0c0,0,0-0.1,0-0.1c0.1-0.1,0.1-0.2,0.1-0.4c0-0.1,0-0.1,0-0.2
			c0-0.1,0-0.1,0-0.2c0-0.1,0-0.1,0-0.2c0-0.1,0-0.2,0-0.2c0-0.1,0-0.2,0-0.2c0-0.1,0-0.2,0-0.3c0-0.2,0-0.4,0-0.6
			c0-0.4,0-0.9,0-1.3c0-0.2,0-0.5,0-0.7c0-0.5,0-1,0-1.5c0-0.3,0-0.5,0-0.8c0-0.1,0-0.3,0-0.4c0-0.3,0-0.5,0-0.8c0-0.1,0-0.3,0-0.4
			c0-0.1,0-0.3,0-0.4c0-0.1,0-0.3,0-0.4c0-0.1,0-0.3,0-0.4c0-0.1,0-0.3,0-0.4c0-0.1,0-0.3,0-0.4c0-0.1,0-0.2,0-0.4
			c0-0.1,0-0.2,0-0.4c0-0.1,0-0.2,0-0.3c0-0.1,0-0.2,0-0.3c0-0.1,0-0.2,0-0.3c0-0.2,0-0.4,0-0.6c0-0.1,0-0.2,0-0.3
			c0-0.1,0-0.2,0-0.3c0-0.2,0-0.4,0-0.5c0-0.1,0-0.1,0-0.2c0-0.1,0-0.1,0-0.2c0-0.1,0-0.3,0-0.4c0-0.1,0-0.1,0-0.2c0,0,0-0.1,0-0.2
			c0,0,0-0.1,0-0.1c0,0,0-0.1,0-0.1c0,0,0-0.1,0-0.1l0,0c0,0-0.1,0-0.1-0.1c-0.4-0.2-0.9-0.2-1.3-0.2c-0.1,0-0.3,0-0.4,0
			c-0.1,0-0.2,0-0.3,0c-0.1,0-0.3,0-0.4,0c-0.3,0-0.7,0-1.1,0c-0.1,0-0.2,0-0.3,0c-0.3,0-0.7,0-1,0.2C39.9,25.7,39.9,25.8,39.8,25.8
			C39.8,25.8,39.8,25.8,39.8,25.8C39.8,25.8,39.8,25.8,39.8,25.8z"/>
		<path fill="#020202" d="M47.2,41.3c0,0-0.1-0.1-0.1-0.1c0,0,0-0.1,0-0.1c0,0,0-0.1,0-0.1c0,0,0-0.1,0-0.1c0,0,0-0.1,0-0.2
			c0-0.1,0-0.1,0-0.2c0-0.1,0-0.1,0-0.2c0-0.1,0-0.2,0-0.2c0-0.2,0-0.3,0-0.5c0-0.2,0-0.4,0-0.6c0-0.2,0-0.4,0-0.6
			c-0.1-0.9,0-1.8,0-2.7c0-0.5,0-0.9,0-1.4c0-0.3,0-0.7,0-1c0-0.2,0-0.5,0-0.8c0-0.2,0-0.5,0-0.8c0-0.3,0-0.5,0-0.8
			c0-0.1,0-0.3,0-0.4c0-0.2,0-0.5,0-0.7c0-0.1,0-0.3,0-0.4c0-0.1,0-0.2,0-0.3c0-0.1,0-0.2,0-0.3c0-0.1,0-0.2,0-0.3
			c0-0.2,0-0.4,0-0.6c0-0.1,0-0.2,0-0.3c0-0.1,0-0.2,0-0.3c0-0.1,0-0.2,0-0.3c0-0.1,0-0.1,0-0.2c0-0.1,0-0.1,0-0.2
			c0-0.1,0-0.1,0-0.2c0-0.1,0-0.1,0-0.2c0,0,0-0.1,0-0.1c0,0,0-0.1,0-0.1c0,0,0-0.1,0-0.1c0,0,0-0.1,0-0.1c0,0,0.1,0,0.1-0.1
			c0.1,0,0.1,0,0.2,0c0.5-0.1,1-0.2,1.5-0.2c0.1,0,0.3,0,0.4,0c0.1,0,0.3,0,0.4,0c0.1,0,0.3,0,0.4,0c0.3,0,0.7,0,1.1,0
			c0.1,0,0.2,0,0.3,0c0.1,0,0.2,0,0.3,0c0.2,0,0.3,0.1,0.5,0.1c0,0,0.1,0.1,0.1,0.1c0,0.1,0.1,0.1,0.1,0.2c0.1,0.1,0.2,0.3,0.2,0.5
			c0,0.1,0.1,0.2,0.1,0.3C53,26.9,53,27,53,27.1c-0.1,0.2-0.1,0.4,0,0.5c0.1,0,0.2,0,0.3-0.3c0.1-0.1,0.2-0.1,0.3-0.2
			c0.1-0.1,0.2-0.1,0.3-0.2c0.2-0.1,0.4-0.2,0.5-0.4c0.2-0.1,0.4-0.2,0.6-0.3c0.1-0.1,0.2-0.1,0.3-0.1c0.1,0,0.2-0.1,0.3-0.1
			c0.3-0.1,0.5-0.2,0.8-0.2c0.4-0.2,0.8-0.1,1.3-0.2c0.2,0,0.3,0,0.5,0c0.1,0,0.2,0,0.2,0c0.3,0,0.8,0.1,1.1,0.2
			c0.1,0,0.3,0.1,0.4,0.2c0.1,0,0.1,0,0.2,0.1c0.1,0,0.1,0.1,0.2,0.1c0.1,0,0.1,0.1,0.2,0.1c0.1,0.1,0.2,0.1,0.3,0.2
			c0.1,0,0.1,0.1,0.2,0.1c0.1,0,0.1,0.1,0.2,0.1c0.3,0.1,0.5,0.4,0.7,0.6c0.1,0.1,0.2,0.2,0.4,0.4c0.1,0.1,0.2,0.2,0.3,0.4
			c0,0,0.1,0.1,0.1,0.1c0,0,0,0.1,0.1,0.1c0,0,0,0.1,0.1,0.1c0,0,0,0.1,0.1,0.1c0,0,0,0.1,0,0.1c0,0.1,0.1,0.1,0.1,0.2
			c0,0,0,0.1,0,0.1c0,0.1,0,0.2,0,0.3c0,0,0,0,0,0.1c0,0-0.1,0.1-0.1,0.1c0,0-0.1,0.1-0.1,0.1c0,0-0.1,0.1-0.1,0.1
			c-0.1,0.1-0.1,0.1-0.2,0.2c-0.2,0.2-0.4,0.4-0.6,0.6c-0.1,0.1-0.2,0.2-0.2,0.2c-0.3,0.3-0.5,0.5-0.8,0.8c-0.2,0.2-0.4,0.3-0.5,0.5
			c-0.2,0.2-0.3,0.3-0.5,0.5c-0.1,0.1-0.2,0.1-0.2,0.2c-0.1,0.1-0.1,0.1-0.2,0.2c-0.1,0-0.1,0.1-0.2,0.2c-0.1,0.1-0.2,0.1-0.3,0.2
			c0,0-0.1,0-0.1,0c0,0,0,0,0,0c-0.1-0.1-0.1-0.2-0.2-0.3c-0.1-0.1-0.1-0.2-0.2-0.3c-0.1-0.1-0.1-0.2-0.2-0.2
			C58,32,58,31.9,57.9,31.9c-0.1-0.1-0.1-0.1-0.2-0.2c-0.1-0.1-0.1-0.1-0.2-0.2c-0.1-0.1-0.3-0.2-0.4-0.3c-0.1-0.1-0.3-0.2-0.4-0.3
			c-0.1-0.1-0.3-0.1-0.4-0.2c-0.2,0-0.4-0.1-0.7,0c-0.1,0-0.2,0-0.2,0c-0.1,0-0.2,0.1-0.2,0.1c-0.1,0-0.1,0-0.2,0.1
			c-0.1,0.1-0.3,0.1-0.4,0.2c-0.1,0.1-0.2,0.2-0.3,0.3c-0.1,0.1-0.1,0.1-0.1,0.2c0,0.1-0.1,0.1-0.1,0.2c0,0.1-0.1,0.1-0.1,0.2
			c0,0.1-0.1,0.2-0.1,0.2c-0.1,0.3-0.1,0.5-0.2,0.8c0,0.2-0.1,0.4-0.1,0.6c0,0.1,0,0.2,0,0.3c0,0.2,0,0.4,0,0.6c0,0.2,0,0.4,0,0.6
			c0,0.1,0,0.2,0,0.3c0,0.1,0,0.2,0,0.3c0,0.1,0,0.2,0,0.3c0,0.1,0,0.2,0,0.3c0,0.2,0.1,0.4,0.1,0.6c0.1,0.6,0.2,1.2,0.3,1.8
			c0,0.3,0.1,0.7,0.2,1c0,0.1,0,0.3,0,0.4c0,0.1,0,0.1,0,0.2c0,0.1,0,0.1,0,0.1c0,0,0.1,0.4,0,0.4c0,0,0,0,0,0c-0.1,0-0.2,0-0.3,0
			c-0.1,0-0.3,0.1-0.4,0.1c-0.1,0-0.2,0-0.3,0c-0.2,0-0.4,0-0.6,0c-0.1,0-0.2,0-0.3,0c-0.1,0-0.2,0-0.4,0c-0.1,0-0.3,0-0.4,0
			c-0.1,0-0.3,0-0.4,0c-0.1,0-0.3,0-0.4,0c-0.1,0-0.3,0-0.4,0c-0.1,0-0.3,0-0.4,0c-0.4,0-0.7,0-1.1,0c-0.1,0-0.2,0-0.3,0
			c-0.3,0-0.5,0-0.8,0c-0.1,0-0.1,0-0.2,0C47.4,41.3,47.3,41.3,47.2,41.3C47.2,41.3,47.2,41.3,47.2,41.3
			C47.2,41.3,47.2,41.3,47.2,41.3z"/>
		<path fill="#020202" d="M72.9,39.1c0-0.1-0.1,0-0.1,0.2c0,0.1-0.1,0.1-0.2,0.2c-0.1,0.1-0.2,0.2-0.3,0.3c-0.1,0.1-0.1,0.1-0.2,0.1
			c-0.1,0.1-0.2,0.2-0.3,0.3c-0.1,0-0.1,0.1-0.2,0.1c-0.2,0.1-0.4,0.2-0.5,0.3c-0.1,0.1-0.2,0.1-0.4,0.2c-0.1,0-0.1,0-0.2,0.1
			c-0.1,0-0.1,0.1-0.2,0.1c-0.1,0-0.1,0-0.2,0c-0.2,0.1-0.5,0.2-0.8,0.2c-0.1,0-0.1,0-0.2,0c-0.1,0-0.3,0-0.4,0c-0.1,0-0.1,0-0.2,0
			c-0.1,0-0.2,0-0.4,0c-0.1,0-0.1,0-0.2,0c-0.1,0-0.1,0-0.2,0c-0.2,0-0.4-0.1-0.6-0.1c-0.1,0-0.3-0.1-0.4-0.1
			c-0.1,0-0.1-0.1-0.2-0.1c-0.1,0-0.1-0.1-0.2-0.1c-0.2-0.1-0.3-0.2-0.5-0.3c-0.1,0-0.1-0.1-0.2-0.1c-0.1,0-0.1-0.1-0.2-0.1
			c-0.1,0-0.1-0.1-0.2-0.1c-0.1-0.1-0.2-0.1-0.3-0.2c-0.2-0.1-0.4-0.3-0.5-0.4c0,0-0.1-0.1-0.2-0.2c0-0.1-0.1-0.1-0.2-0.2
			c-0.1-0.1-0.3-0.3-0.4-0.5c0-0.1-0.1-0.1-0.1-0.2c0-0.1-0.1-0.1-0.1-0.2c0-0.1-0.1-0.1-0.1-0.2c0-0.1-0.1-0.1-0.1-0.2
			c-0.1-0.1-0.2-0.3-0.2-0.4c-0.1-0.3-0.3-0.6-0.3-0.9c0-0.1-0.1-0.2-0.1-0.2c0-0.1,0-0.2,0-0.2c-0.1-0.3-0.1-0.7-0.2-1.1
			c0-0.1,0-0.2,0-0.3c0-0.1,0-0.2,0-0.3c0-0.4,0-0.8,0-1.2c0-0.1,0-0.2,0-0.3c0-0.3,0.1-0.6,0.1-0.9c0-0.1,0.1-0.3,0.1-0.4
			c0-0.3,0.1-0.7,0.3-1c0-0.1,0.1-0.2,0.1-0.3c0.1-0.2,0.1-0.4,0.2-0.6c0-0.1,0.1-0.2,0.1-0.3c0-0.1,0.1-0.2,0.2-0.3
			c0-0.1,0.1-0.2,0.2-0.3c0-0.1,0.1-0.2,0.2-0.2c0.1-0.1,0.1-0.2,0.2-0.2c0.3-0.4,0.6-0.7,0.9-1c0.1-0.1,0.1-0.1,0.2-0.2
			c0.1-0.1,0.3-0.2,0.4-0.3c0.2-0.2,0.4-0.3,0.7-0.4c0.1,0,0.2-0.1,0.2-0.1c0.1,0,0.2-0.1,0.2-0.1c0.1,0,0.1-0.1,0.2-0.1
			c0.1,0,0.2-0.1,0.2-0.1c0.2,0,0.3-0.1,0.5-0.1c0.3-0.1,0.7-0.2,1-0.2c0.1,0,0.2,0,0.2,0c0.3-0.1,0.7-0.1,1,0c0.1,0,0.2,0,0.2,0
			c0.2,0,0.5,0.1,0.7,0.1c0.2,0.1,0.5,0.1,0.7,0.2c0.1,0,0.3,0.1,0.4,0.2c0.1,0,0.1,0.1,0.2,0.1c0.1,0.1,0.3,0.1,0.4,0.2
			c0.1,0,0.1,0.1,0.2,0.1c0.1,0.1,0.3,0.2,0.4,0.3c0.1,0.2,0.2,0.2,0.2,0.2c0-0.3,0.1-0.6,0.1-0.8c0-0.1,0.1-0.2,0.1-0.3
			c0-0.1,0-0.1,0.1-0.1c0.1,0,0.2-0.1,0.2-0.1c0.1,0,0.1,0,0.2,0c0.6-0.1,1.4-0.1,2,0c0.1,0,0.3,0,0.4,0c0.6,0,1.3,0,1.9,0.3
			c0.1,0,0.1,0,0.2,0c0,0,0.1,0.1,0.1,0.1l0,0c0,0.3,0,0.7,0,0.9c0,0.1,0,0.2,0,0.2c0,0.2,0,0.3,0,0.5c0,0.1,0,0.2,0,0.3
			c0,0.2,0,0.4,0,0.6c0,0.1,0,0.2,0,0.3c0,0.2,0,0.5,0,0.7c0,0.1,0,0.3,0,0.4c0,0.4,0,0.8,0,1.2c0,0.6,0,1.2,0,1.8
			c0,0.4,0,0.9,0,1.3c0,0.1,0,0.3,0,0.4c0,0.3,0,0.5,0,0.8c0,0.1,0,0.3,0,0.4c0,0.1,0,0.3,0,0.4c0,0.1,0,0.2,0,0.3
			c0,0.1,0,0.2,0,0.3c0,0.1,0,0.2,0,0.3c0,0.1,0,0.2,0,0.3c0,0.1,0,0.2,0,0.3c0,0.2,0,0.4,0,0.5c0,0.1,0,0.2,0,0.3
			c0,0.1,0,0.2,0,0.2c0,0.1,0,0.3,0,0.4c0,0.1,0,0.2,0,0.4c0,0.2,0.1,0.5,0,0.7c0,0,0,0.1,0,0.1c0,0,0,0,0,0.1c0,0-0.1,0-0.1,0
			c-0.1,0-0.1,0-0.2,0c-0.1,0-0.1,0-0.2,0c-0.1,0-0.2,0-0.2,0c-0.1,0-0.2,0-0.3,0c-0.8,0.1-1.8,0.1-2.6,0c-0.1,0-0.3,0-0.4,0
			c-0.1,0-0.3,0-0.4,0c-0.1,0-0.2,0-0.3,0c-0.1,0-0.2,0-0.3,0c-0.1,0-0.2,0-0.3,0c-0.1,0-0.1,0-0.2,0c-0.1,0-0.1,0-0.2,0
			c0,0-0.1,0-0.1,0c0,0-0.1,0-0.1,0c0,0-0.1-0.1-0.1-0.1c0-0.1-0.1-0.1-0.1-0.2c0-0.1,0-0.2,0-0.2c0-0.1,0-0.2,0-0.3
			c0-0.1,0-0.2,0-0.3c0-0.1,0-0.2,0-0.3C72.9,39.4,72.9,39.2,72.9,39.1C72.9,39.1,72.9,39.2,72.9,39.1z M70.8,30.9
			c-0.2,0-0.4,0-0.6,0c-0.2,0-0.4,0.1-0.5,0.2c-0.2,0.1-0.5,0.3-0.7,0.5c-0.1,0.1-0.3,0.3-0.4,0.5c-0.1,0.2-0.2,0.3-0.3,0.5
			c0,0.1-0.1,0.2-0.1,0.3c0,0.3-0.1,0.6-0.1,0.9c0,0.3,0.1,0.6,0.3,0.8c0.1,0.1,0.1,0.2,0.2,0.2c0.2,0.3,0.5,0.6,0.8,0.8
			c0.5,0.4,1.3,0.3,1.9,0.1c0.1,0,0.2-0.1,0.3-0.1c0.1-0.1,0.2-0.1,0.3-0.2c0.1,0,0.2-0.1,0.2-0.2c0.2-0.1,0.3-0.3,0.4-0.4
			c0.1-0.2,0.2-0.3,0.3-0.5c0-0.1,0.1-0.2,0.1-0.3c0-0.2,0.1-0.4,0.1-0.6c0-0.2,0-0.4-0.1-0.6c0-0.1-0.1-0.2-0.1-0.3
			c0-0.1-0.1-0.2-0.1-0.3c0-0.1-0.1-0.2-0.2-0.2c-0.1-0.1-0.3-0.3-0.4-0.4c-0.1-0.1-0.2-0.1-0.2-0.2c-0.2-0.1-0.4-0.2-0.5-0.3
			C71.2,31,71,30.9,70.8,30.9C70.8,30.9,70.9,30.9,70.8,30.9z"/>
	</g>
</g>
<path d="M71.5,23c-1.4,0.6-4.2-1.7-3.6-2.4c0,0,4.8-5.3,6.1-5.9c1.4-0.6,5.3,2.2,4.7,3.1S71.5,23,71.5,23z"/>
</svg>
