<?xml version="1.0" encoding="utf-8"?>
<!-- Generator: Adobe Illustrator 18.0.0, SVG Export Plug-In . SVG Version: 6.00 Build 0)  -->
<!DOCTYPE svg PUBLIC "-//W3C//DTD SVG 1.1//EN" "http://www.w3.org/Graphics/SVG/1.1/DTD/svg11.dtd">
<svg version="1.1" id="Camada_1" xmlns="http://www.w3.org/2000/svg" xmlns:xlink="http://www.w3.org/1999/xlink" x="0px" y="0px"
	 viewBox="0 0 811.3 350.5" enable-background="new 0 0 811.3 350.5" xml:space="preserve">
<path fill="#ECC657" d="M807.7,340.3c0,4.1-4.4,7.4-9.9,7.4H12.9c-5.5,0-9.9-3.3-9.9-7.4V11.5c0-4.1,4.4-7.4,9.9-7.4h784.8
	c5.5,0,9.9,3.3,9.9,7.4V340.3z"/>
<path fill="#FFEDBB" d="M801.2,333.2c0,3.9-4.4,7.1-9.8,7.1H20.2c-5.4,0-9.8-3.2-9.8-7.1V17.5c0-3.9,4.4-7.1,9.8-7.1h771.2
	c5.4,0,9.8,3.2,9.8,7.1V333.2z"/>
</svg>
