<?xml version="1.0" encoding="utf-8"?>
<!-- Generator: Adobe Illustrator 18.0.0, SVG Export Plug-In . SVG Version: 6.00 Build 0)  -->
<!DOCTYPE svg PUBLIC "-//W3C//DTD SVG 1.1//EN" "http://www.w3.org/Graphics/SVG/1.1/DTD/svg11.dtd">
<svg version="1.1" id="Camada_1" xmlns="http://www.w3.org/2000/svg" xmlns:xlink="http://www.w3.org/1999/xlink" x="0px" y="0px"
	 viewBox="0 0 280.5 114.5" enable-background="new 0 0 280.5 114.5" xml:space="preserve">
<g>
	<path opacity="0.7" fill="#506868" d="M38.5,81.5c3.4,22.4,26.4,11.6,28.7,5.3c24.7,37.2,63.1,17.7,63.1,17.7s24.7,20.6,43.6-5.2
		c3.4,4.6,21.8,11.5,33.3-8.6c4.5,3.4,43.2,4.4,55.9,0.3c12.6-4.1,41.5-11.2-46.2-15.2c4.6-3.4,6.3-28.7-13.1-21.6
		c4.6-12.2-3.4-42-32.7-30c-5.7-31-74-29.8-72.8,16.1c-6.3-4-32.7,1.1-23.5,25.4c-6.3-4.8-15.5-6.5-20.1,4.4
		c-4.1-1.6-16.1-8.6-21.2,6.3C0.1,69.4-18.2,90.1,38.5,81.5z"/>
	<path fill="#083B72" d="M198.5,62.7c4.6-12.2-3.4-42-32.7-30c-4.5-24.2-47.3-28.8-65.1-7.6c-1.7,4.3-2.7,9.3-2.5,15
		c-1-0.6-2.5-1-4.3-1.2c-0.7,3-1,6.3-0.9,9.8c-3.6-2.3-13.5-1.6-19.9,3.8c-0.7,3.5-0.4,7.9,1.5,13c-2.1-1.6-4.5-2.8-6.9-3.4
		c-0.5,3.3,0,7.3,1.7,12c-6.3-4.8-15.5-6.5-20.1,4.4c-3.8-1.5-14.8-7.9-20.3,4.1c2.9-0.3,6-0.7,9.4-1.2c3.4,22.4,26.4,11.6,28.7,5.3
		c24.7,37.2,63.1,17.7,63.1,17.7s24.7,20.6,43.6-5.2c3.4,4.6,21.8,11.5,33.3-8.6c4.5,3.4,43.2,4.4,55.9,0.3c1.3-0.4,2.8-0.9,4.3-1.4
		c-7.5-2-24-3.8-55.7-5.3C216.2,80.9,217.9,55.7,198.5,62.7z"/>
</g>
</svg>
