<?xml version="1.0" encoding="utf-8"?>
<!-- Generator: Adobe Illustrator 18.0.0, SVG Export Plug-In . SVG Version: 6.00 Build 0)  -->
<!DOCTYPE svg PUBLIC "-//W3C//DTD SVG 1.1//EN" "http://www.w3.org/Graphics/SVG/1.1/DTD/svg11.dtd">
<svg version="1.1" id="Camada_1" xmlns="http://www.w3.org/2000/svg" xmlns:xlink="http://www.w3.org/1999/xlink" x="0px" y="0px"
	 viewBox="0 109.1 15.8 16" enable-background="new 0 109.1 15.8 16" xml:space="preserve">
<g>
	<path fill="#EBAC29" d="M7.9,109.3c-4.4,0-7.9,3.6-7.9,7.9c0,4.4,3.6,7.9,7.9,7.9s7.9-3.6,7.9-7.9C15.8,112.8,12.2,109.3,7.9,109.3
		z"/>
	<path fill="#FFE388" d="M7.9,109.7c-4.2,0-7.4,3.4-7.4,7.4c0,4.2,3.4,7.4,7.4,7.4s7.4-3.4,7.4-7.4S12,109.7,7.9,109.7z"/>
	<path fill="#FFEDBB" d="M8.3,124.1c-4,0-7.2-3.3-7.2-7.2c0-0.1,0-0.2,0-0.3C1,117,1,117.4,1,117.8c0,3.7,3,6.5,6.5,6.5
		c0.6,0,1.2-0.1,1.8-0.2C9,124.1,8.6,124.1,8.3,124.1z"/>
	<ellipse fill="#FFEDBB" cx="7.9" cy="114.6" rx="6.1" ry="4.6"/>
	<g>
		<path fill-rule="evenodd" clip-rule="evenodd" fill="#EBAC29" d="M7.6,115.1c1.2-0.2,2.2,0.7,2.4,1.7c0.2,1.2-0.7,2.2-1.7,2.4
			C5.5,119.6,4.8,115.5,7.6,115.1L7.6,115.1z M3.9,114.5c0.1,0.2,0.7,0.6,0.9,0.9l-0.3,0.6l-1.3,0v2l1.3,0l0.3,0.7L4,119.7l1.4,1.4
			c0.3-0.1,0.7-0.8,1-0.9l0.6,0.2v1.3h2l0-1.3l0.6-0.2l0.9,0.9c0.2-0.1,1.3-1.3,1.4-1.4l-0.9-0.9l0.3-0.7l1.3,0c0-0.4,0-1.7,0-2
			l-1.3,0l-0.3-0.7l0.9-0.9l-1.4-1.4c-0.3,0.1-0.6,0.6-1,0.9c-0.2-0.1-0.6-0.2-0.6-0.3v-1.2h-2l0,1.3L6.3,114l-0.9-0.9
			c-0.2,0.1-0.6,0.5-0.7,0.7C4.4,114,4.2,114.3,3.9,114.5L3.9,114.5z"/>
	</g>
</g>
</svg>
