<?xml version="1.0" encoding="utf-8"?>
<!-- Generator: Adobe Illustrator 18.0.0, SVG Export Plug-In . SVG Version: 6.00 Build 0)  -->
<!DOCTYPE svg PUBLIC "-//W3C//DTD SVG 1.1//EN" "http://www.w3.org/Graphics/SVG/1.1/DTD/svg11.dtd">
<svg version="1.1" id="Camada_1" xmlns="http://www.w3.org/2000/svg" xmlns:xlink="http://www.w3.org/1999/xlink" x="0px" y="0px"
	 viewBox="0 0 1024 768" enable-background="new 0 0 1024 768" xml:space="preserve">
<linearGradient id="SVGID_1_" gradientUnits="userSpaceOnUse" x1="512.0542" y1="840.3579" x2="512.0542" y2="35.8241">
	<stop  offset="0" style="stop-color:#043465"/>
	<stop  offset="1" style="stop-color:#011329"/>
</linearGradient>
<rect x="0.1" fill="url(#SVGID_1_)" width="1023.9" height="768"/>
<g opacity="0.4">
	<path fill="#083B72" d="M1024,111.1v0.7C1024.1,111.4,1024,111.1,1024,111.1z"/>
	<path fill="#083B72" d="M180.1,177.5c65.8-2.6,140.6-70.8,265.3-45.4c124.8,25.4,170.6,12.4,170.6,12.4s161.9-12,288.5,11.8
		c107.2,20.1,118.5,14.2,119.4,11.9v-0.7v-55.7c-0.9,2.3-12.2,8.2-119.4-11.9C777.9,76.2,616.1,88.1,616.1,88.1s-45.9,13-170.6-12.4
		c-124.8-25.4-199.5,42.8-265.3,45.4C114.3,123.7,52.9,85.7,0.2,87.7v56.5C52.9,142.1,114.3,180.1,180.1,177.5z"/>
</g>
<circle fill="#FFFFFF" cx="801.6" cy="299.4" r="2.8"/>
<path fill="#28798C" d="M930.2,458.1c0,2-1.6,3.6-3.6,3.6c-2,0-3.6-1.6-3.6-3.6c0-2,1.6-3.6,3.6-3.6
	C928.6,454.5,930.2,456.1,930.2,458.1z"/>
<path fill="#28798C" d="M122.5,532.5c0,2-1.6,3.6-3.6,3.6c-2,0-3.6-1.6-3.6-3.6c0-2,1.6-3.6,3.6-3.6
	C120.9,528.9,122.5,530.5,122.5,532.5z"/>
<circle fill="#28798C" cx="713.1" cy="560.7" r="2.8"/>
<circle fill="#FFFFFF" cx="955.3" cy="338.8" r="2.8"/>
<circle fill="#FFFFFF" cx="875.2" cy="225.5" r="2.8"/>
<circle fill="#FFFFFF" cx="121.7" cy="270.1" r="2.8"/>
<circle fill="#FFFFFF" cx="66.3" cy="373.9" r="1.2"/>
<circle fill="#FFFFFF" cx="227.7" cy="468.4" r="1.2"/>
<circle fill="#28798C" cx="829.2" cy="533.8" r="1.2"/>
<circle fill="#28798C" cx="260.4" cy="391.5" r="1.2"/>
<circle fill="#28798C" cx="227.7" cy="468.4" r="1.2"/>
<circle fill="#FFFFFF" cx="641.7" cy="295.4" r="1.2"/>
<circle fill="#FFFFFF" cx="770.9" cy="145.7" r="1.2"/>
<circle fill="#FFFFFF" cx="451.4" cy="201.9" r="1.2"/>
<circle fill="#FFFFFF" cx="289.6" cy="280.4" r="1.2"/>
<circle fill="#FFFFFF" cx="259.2" cy="189.4" r="1.2"/>
<circle fill="#FFFFFF" cx="204.9" cy="186.9" r="2.8"/>
<path opacity="0.7" fill="#083B72" d="M735.7,567.1c1.7,0.1,3.5,0.1,5.6,0C739.3,567,737.5,567,735.7,567.1z"/>
</svg>
