<?xml version="1.0" encoding="utf-8"?>
<!-- Generator: Adobe Illustrator 18.0.0, SVG Export Plug-In . SVG Version: 6.00 Build 0)  -->
<!DOCTYPE svg PUBLIC "-//W3C//DTD SVG 1.1//EN" "http://www.w3.org/Graphics/SVG/1.1/DTD/svg11.dtd">
<svg version="1.1" id="Camada_1" xmlns="http://www.w3.org/2000/svg" xmlns:xlink="http://www.w3.org/1999/xlink" x="0px" y="0px"
	 viewBox="0 109.1 15.8 16" enable-background="new 0 109.1 15.8 16" xml:space="preserve">
<g>
	<g>
		<path fill="#EBAC29" d="M8,109.2c-4.3,0-7.9,3.5-7.9,7.9c0,4.3,3.5,7.9,7.9,7.9s7.9-3.5,7.9-7.9C15.7,112.8,12.2,109.2,8,109.2z"
			/>
		<path fill="#FFE388" d="M8,109.6c-4.1,0-7.4,3.3-7.4,7.4c0,4.1,3.3,7.4,7.4,7.4s7.4-3.3,7.4-7.4S12,109.6,8,109.6z"/>
		<path fill="#FFEDBB" d="M8.4,124c-3.9,0-7.2-3.2-7.2-7.2c0-0.1,0-0.2,0-0.3c-0.1,0.4-0.1,0.8-0.1,1.2c0,3.6,3,6.5,6.5,6.5
			c0.6,0,1.2-0.1,1.8-0.2C9,124,8.6,124,8.4,124z"/>
		<ellipse fill="#FFEDBB" cx="8" cy="114.5" rx="6.1" ry="4.6"/>
	</g>
	<g>
		<path fill-rule="evenodd" clip-rule="evenodd" fill="#EBAC29" d="M5.9,120.9c-0.5,0-1,0-1.4-0.4c-0.2-0.1-0.2-0.2-0.3-0.4
			c-0.6-0.8,0.3-1.9,1.8-1.9c0.2,0,0.5,0,0.6,0.1c0.2,0.1,0.3,0.2,0.4,0.3c0.3,0.2,0.6,0.4,0.6,0.9c0,0.4-0.2,0.8-0.5,1
			C6.8,120.7,6.4,120.9,5.9,120.9L5.9,120.9z M4.6,114c0-1.3,1.1-1.6,1.8-0.7c0.3,0.4,0.6,0.9,0.5,1.6c-0.1,1.3-1.2,1.4-1.9,0.4
			C4.7,114.9,4.6,114.5,4.6,114L4.6,114z M3,114.1c0,0.5,0,0.7,0.2,1.2c0.2,0.3,0.3,0.4,0.5,0.7c0.2,0.2,0.5,0.4,0.7,0.5
			c0.5,0.2,0.6,0.1,1,0.2c-0.1,0.2,0,0.5,0,0.7c0,0.1,0.1,0.1,0.1,0.2c-0.3,0-0.8,0.1-1.2,0.2c-0.9,0.3-2,1.1-2,2.1
			c0,0.5,0.1,0.7,0.4,1.1c0.8,1,3.1,1.3,4.3,0.7c0.3-0.1,0.6-0.3,0.8-0.5c0.1,0,0.1-0.1,0.1-0.1c0.1,0,0.1-0.1,0.1-0.1
			c0,0,0-0.1,0.1-0.1c0.2-0.3,0.4-0.6,0.5-1c0-0.4,0-0.8-0.1-1.1c0-0.1-0.1-0.2-0.1-0.3c-0.2-0.4-0.5-0.7-0.8-0.9
			c-0.1-0.1-0.2-0.1-0.2-0.2c-0.1-0.1-0.1-0.1-0.2-0.2c-0.1-0.1-0.1-0.1-0.1-0.1c-0.1-0.1-0.1,0-0.1-0.1c-0.1-0.2,0-0.4,0.2-0.6
			c0.2-0.2,0.5-0.4,0.7-0.6c0.1-0.1,0.1-0.1,0.2-0.2c0.4-0.7,0.4-1.5,0-2.2C8,113,8,112.9,7.9,112.8c0.2,0,0.2,0,0.4-0.1l0.5-0.4
			c0.1-0.1,0.2-0.1,0.2-0.3c0-0.1-0.1-0.2-0.2-0.2h-3c-0.7,0-1.3,0.3-1.8,0.7C3.5,112.8,3,113.5,3,114.1L3,114.1z"/>
		<path fill-rule="evenodd" clip-rule="evenodd" fill="#EBAC29" d="M10.6,114.3v1.6H9c-0.3,0-0.2,0.4-0.2,0.7c0,0.1,0.1,0.2,0.2,0.2
			h1.7v1.6c0,0.4,0.3,0.3,0.7,0.3c0.1,0,0.2-0.1,0.2-0.2v-1.7h1.7c0.3,0,0.2-0.4,0.2-0.7c0-0.1-0.1-0.2-0.2-0.2h-1.7v-1.6
			c0-0.3-0.3-0.3-0.7-0.3C10.7,114,10.6,114.1,10.6,114.3L10.6,114.3z"/>
	</g>
</g>
</svg>
