<?xml version="1.0" encoding="utf-8"?>
<!-- Generator: Adobe Illustrator 18.0.0, SVG Export Plug-In . SVG Version: 6.00 Build 0)  -->
<!DOCTYPE svg PUBLIC "-//W3C//DTD SVG 1.1//EN" "http://www.w3.org/Graphics/SVG/1.1/DTD/svg11.dtd">
<svg version="1.1" id="Camada_1" xmlns="http://www.w3.org/2000/svg" xmlns:xlink="http://www.w3.org/1999/xlink" x="0px" y="0px"
	 viewBox="0 109.1 15.8 16" enable-background="new 0 109.1 15.8 16" xml:space="preserve">
<g>
	<g>
		<path fill="#EBAC29" d="M7.9,109.3c-4.3,0-7.9,3.5-7.9,7.9c0,4.3,3.5,7.9,7.9,7.9s7.9-3.5,7.9-7.9
			C15.7,112.8,12.1,109.3,7.9,109.3z"/>
		<path fill="#FFE388" d="M7.9,109.7c-4.1,0-7.4,3.3-7.4,7.4c0,4.1,3.3,7.4,7.4,7.4s7.4-3.3,7.4-7.4S12,109.7,7.9,109.7z"/>
		<path fill="#FFEDBB" d="M8.3,124c-3.9,0-7.2-3.2-7.2-7.2c0-0.1,0-0.2,0-0.3c-0.1,0.4-0.1,0.8-0.1,1.2c0,3.6,2.9,6.5,6.5,6.5
			c0.6,0,1.2-0.1,1.8-0.2C9,124,8.6,124,8.3,124z"/>
		<ellipse fill="#FFEDBB" cx="7.9" cy="114.6" rx="6.1" ry="4.6"/>
	</g>
	<path fill="#EBAC29" d="M7.5,113.9l-2.2,1.9c0,0-1.8,0-2.1,0S3,116,3,116.1v2.8c0,0.1,0.1,0.3,0.3,0.3h2.1l2.2,1.9
		c0.2,0.2,0.7,0.1,0.7-0.3c0,0,0-6.3,0-6.7C8.2,113.8,7.7,113.7,7.5,113.9z"/>
	<path fill="#EBAC29" d="M12.7,117h-1.2v-1.2c0-0.1-0.1-0.2-0.2-0.2h-0.5c-0.1,0-0.2,0.1-0.2,0.2v1.2H9.4c-0.1,0-0.2,0.1-0.2,0.2
		v0.5c0,0.1,0.1,0.2,0.2,0.2h1.2v1.2c0,0.1,0.1,0.2,0.2,0.2h0.5c0.1,0,0.2-0.1,0.2-0.2V118h1.2c0.1,0,0.2-0.1,0.2-0.2v-0.5
		C12.9,117.1,12.8,117,12.7,117z"/>
</g>
</svg>
