<?xml version="1.0" encoding="utf-8"?>
<!-- Generator: Adobe Illustrator 18.0.0, SVG Export Plug-In . SVG Version: 6.00 Build 0)  -->
<!DOCTYPE svg PUBLIC "-//W3C//DTD SVG 1.1//EN" "http://www.w3.org/Graphics/SVG/1.1/DTD/svg11.dtd">
<svg version="1.1" id="Camada_1" xmlns="http://www.w3.org/2000/svg" xmlns:xlink="http://www.w3.org/1999/xlink" x="0px" y="0px"
	 viewBox="264 216 232 41.7" enable-background="new 264 216 232 41.7" xml:space="preserve">
<text transform="matrix(0.93 0 0 1 268.7334 245.583)" fill="#D18102" font-family="'Big_Bottom_Cartoon'" font-size="20.4787">Re pinima nerera</text>
<path fill="#D18102" d="M291.4,227.2c-0.8,0-1.4,1.9-2.7,1.8c-1.3-0.1-1.3-1.1-1.3-1.6c0-0.9,0.9-2.4,1.4-2.9
	c0.5-0.6,1.2-1.3,2.5-1.3c1.9,0,2.3,1.9,3.8,1.9c0.9,0,1.5-2.3,3.2-2.3c2.9,0,1,3.2,0.7,3.6c-0.5,0.8-1.9,2.8-3.9,2.8
	C293.1,229.3,292.8,227.2,291.4,227.2"/>
</svg>
