<?xml version="1.0" encoding="utf-8"?>
<!-- Generator: Adobe Illustrator 18.0.0, SVG Export Plug-In . SVG Version: 6.00 Build 0)  -->
<!DOCTYPE svg PUBLIC "-//W3C//DTD SVG 1.0//EN" "http://www.w3.org/TR/2001/REC-SVG-20010904/DTD/svg10.dtd">
<svg version="1.0" id="Camada_1" xmlns="http://www.w3.org/2000/svg" xmlns:xlink="http://www.w3.org/1999/xlink" x="0px" y="0px"
	 viewBox="0 0 64 64" enable-background="new 0 0 64 64" xml:space="preserve">
<image overflow="visible" width="2486" height="2479" xlink:href="../../../banco de imagens/bot천es/butt 22.png"  transform="matrix(2.527911e-002 0 0 2.527911e-002 0.7857 0.6095)">
</image>
<g>
	
		<image overflow="visible" width="2631" height="2500" xlink:href="../../../banco de imagens/bot천es/butt 31.png"  transform="matrix(6.291382e-003 0 0 6.291382e-003 5.6935 35.7232)">
	</image>
	
		<image overflow="visible" width="2631" height="2500" xlink:href="../../../banco de imagens/bot천es/butt 31.png"  transform="matrix(6.291382e-003 0 0 6.291382e-003 23.9277 41.6499)">
	</image>
	
		<image overflow="visible" width="2631" height="2500" xlink:href="../../../banco de imagens/bot천es/butt 31.png"  transform="matrix(6.291382e-003 0 0 6.291382e-003 42.1618 35.7232)">
	</image>
</g>
<g>
	<path d="M29,25c0,0-7.6,0.8-8.8-0.6C19.1,23.1,24,6.1,24,6.1c0.8-1.1,7.9-1.2,7.8-0.5c0,0-2.1,10.7-1.6,11c0.5,0.3-0.9,0.8-0.8,0.5
		c0.1-0.3,2-11.1,2.4-11.7s5.9-0.7,6.4,0C38.7,6.1,38.6,16,38.6,16s2-0.2,2.8,0.3c0.7,0.4,2,6.9,1.4,7.5c-0.6,0.6-3.8,0.5-3.8,0.5
		l0.7,9.5c-3.5,1.1-10.5,0.8-10.9,0.3C28.4,33.5,29,25,29,25z"/>
	<path fill="#FFFFFF" d="M30.4,22.8c0,0-7.1,0.9-8.1-0.3c-1-1.2,3.1-14.9,3.1-14.9c0.3-0.4,5-0.6,4.9,0c0,0-2.9,9.6-2.5,9.9
		s2.7,0.3,2.8,0s0.8-9.6,1.2-10c0.4-0.4,4.1-0.6,4.5,0s0.4,10.1,0.4,10.1l2.3,0.1c1.2,0.9,1.8,3.6,1.1,4.5l-3.3,0.2l0.7,9.4
		c-3,1-5.2,0.7-7.3,0.2L30.4,22.8z"/>
</g>
</svg>
