<?xml version="1.0" encoding="utf-8"?>
<!-- Generator: Adobe Illustrator 18.0.0, SVG Export Plug-In . SVG Version: 6.00 Build 0)  -->
<!DOCTYPE svg PUBLIC "-//W3C//DTD SVG 1.1//EN" "http://www.w3.org/Graphics/SVG/1.1/DTD/svg11.dtd">
<svg version="1.1" id="Camada_1" xmlns="http://www.w3.org/2000/svg" xmlns:xlink="http://www.w3.org/1999/xlink" x="0px" y="0px"
	 viewBox="0 0 16 16" enable-background="new 0 0 16 16" xml:space="preserve">
<g>
	<g>
		<path fill="#EBAC29" d="M15.9,8c0-4.4-3.5-7.9-7.9-7.9S0.1,3.7,0.1,8c0,4.4,3.5,7.9,7.9,7.9S15.9,12.4,15.9,8z M5.4,4.3"/>
		<path fill="#FFE388" d="M15.5,8c0-4.1-3.4-7.5-7.5-7.5C3.9,0.5,0.5,3.9,0.5,8c0,4.1,3.4,7.5,7.5,7.5C12.1,15.5,15.5,12.2,15.5,8z"
			/>
		<path fill="#FFEDBB" d="M8.4,1c-4,0-7.3,3.3-7.3,7.3c0,0.1,0,0.2,0,0.3C1.1,8.2,1,7.8,1,7.4c0-3.6,3-6.6,6.6-6.6
			c0.6,0,1.2,0.1,1.8,0.2C9.1,1,8.8,1,8.4,1z"/>
		<ellipse fill="#FFEDBB" cx="8" cy="10.8" rx="6.1" ry="4.4"/>
	</g>
	<path fill="#EBAC29" d="M5.1,8.1C4.4,7.4,2.9,8.8,3.7,9.5c0.7,0.7,2.1,2.1,2.1,2.1c0.4,0.4,1.2,0.5,1.8,0L12.3,6
		c1.1-1.5-0.5-2.5-1.5-1.5l-4.2,5L5.1,8.1z"/>
</g>
</svg>
