<?xml version="1.0" encoding="utf-8"?>
<!-- Generator: Adobe Illustrator 18.0.0, SVG Export Plug-In . SVG Version: 6.00 Build 0)  -->
<!DOCTYPE svg PUBLIC "-//W3C//DTD SVG 1.1//EN" "http://www.w3.org/Graphics/SVG/1.1/DTD/svg11.dtd">
<svg version="1.1" id="Camada_1" xmlns="http://www.w3.org/2000/svg" xmlns:xlink="http://www.w3.org/1999/xlink" x="0px" y="0px"
	 viewBox="0 0 1024 768" enable-background="new 0 0 1024 768" xml:space="preserve">
<g>
	<defs>
		<circle id="SVGID_1_" cx="511.9" cy="383.4" r="375.7"/>
	</defs>
	<clipPath id="SVGID_2_">
		<use xlink:href="#SVGID_1_"  overflow="visible"/>
	</clipPath>
	<g clip-path="url(#SVGID_2_)" enable-background="new    ">
		
			<image overflow="visible" width="2474" height="2474" xlink:href="../../banco de imagens/botões/butt 25.png"  transform="matrix(0.3065 0 0 0.3065 132.8006 4.7999)">
		</image>
	</g>
</g>
<g>
	<g>
		<path d="M397.3,195.7c2.2,0.2,4.3,0.3,6.5,0.3s4.3,0.1,6.5,0.3c2.2,0,4.3,0.1,6.5,0.3c1.9,0.2,4,0.4,6.1,0.6c1.9,0,4,0.1,6.1,0.3
			c1.9,0.2,3.8,0.5,5.8,0.9c1.9,0.2,3.8,0.4,5.8,0.6c1.9,0.4,3.8,0.7,5.8,0.9c1.9,0.4,3.7,0.7,5.4,0.9c1.9,0.4,65.1,11.9,71,64.5
			c5.9,52.6-32.3,74.5-33.2,75.1c7.1,6.7,65.3,23.4,65.3,100.5c0,0,0,3.3,0,4.9s0,3.3,0,4.9c-0.2,1.6-0.4,3.2-0.4,4.6
			c-0.2,1.6-0.5,3.2-0.7,4.6c-0.2,1.6-0.5,3.2-0.7,4.6s-0.5,2.9-0.7,4.3c-0.5,1.4-0.8,2.9-1.1,4.3c-0.5,1.4-1,2.9-1.4,4.3
			c-0.5,1.4-1,2.8-1.4,4c-0.5,1.4-1,2.8-1.4,4c-0.5,1.2-1.1,2.5-1.8,3.7c-0.5,1.4-1.1,2.8-1.8,4c-0.7,1-1.4,2.1-2.2,3.4
			c-0.7,1.2-1.4,2.5-2.2,3.7c-0.7,1-1.4,2.2-2.2,3.4c-1,1-1.8,2-2.5,3.1c-1,1.2-1.9,2.4-2.9,3.4s-1.9,2-2.9,3.1
			c-1,1-1.9,1.9-2.9,2.8c-1,1-1.9,2-2.9,3.1c-1.2,0.8-2.3,1.6-3.2,2.5c-1.2,1-2.4,1.9-3.6,2.8c-1.2,0.8-2.4,1.6-3.6,2.5
			c-1.2,0.8-2.4,1.6-3.6,2.5c-1.2,0.8-2.4,1.6-3.6,2.5c-1.4,0.6-2.8,1.3-4,2.2c-1.4,0.6-2.8,1.3-4,2.1c-1.4,0.6-2.9,1.2-4.3,1.8
			s-2.9,1.2-4.3,1.8s-2.9,1.2-4.3,1.8s-3,1.1-4.7,1.5c-1.4,0.6-2.9,1.1-4.3,1.5c-1.7,0.6-3.4,1.1-5,1.5c-1.4,0.6-3,1.1-4.7,1.5
			s-3.4,0.8-5,1.2c-1.7,0.4-3.4,0.8-5.1,1.2c-1.7,0.2-3.5,0.5-5.4,0.9c-1.7,0.4-3.4,0.7-5,0.9c-1.9,0.4-3.7,0.7-5.4,0.9
			c-1.9,0.2-3.7,0.4-5.4,0.6c-1.9,0.2-3.8,0.4-5.8,0.6c-1.9,0.2-3.8,0.4-5.8,0.6c-1.9,0.2-3.8,0.4-5.8,0.6c-1.9,0-3.8,0.1-5.8,0.3
			c-1.9,0-3.8,0.1-5.8,0.3c-2.2,0-4.2,0-6.1,0c-3.6,0-7.1,0.1-10.5,0.3c-3.4,0-6.6,0-9.7,0s-6.3,0-9.4,0c-2.9,0-5.8,0-8.7,0
			c-2.6,0-5.3,0-7.9,0c-2.4,0-4.8,0-7.2,0c-2.4,0-4.8,0-7.2,0c-2.2,0-4.3,0-6.5,0c-1.9,0-3.8-0.1-5.8-0.3c-1.9,0-3.7,0-5.4,0
			c-1.7,0-3.4-0.1-5-0.3c-1.7,0-3.2,0-4.7,0c-1.4-0.2-2.9-0.3-4.3-0.3c-1.2-0.2-2.4-0.3-3.6-0.3c-1.2-0.2-2.4-0.4-3.6-0.6
			c-1,0-2-0.1-3.2-0.3c-1-0.2-1.9-0.3-2.9-0.3c-0.7-0.2-1.6-0.4-2.5-0.6c-0.7-0.2-1.4-0.4-2.2-0.6c-0.7,0-1.4-0.1-2.2-0.3
			c-0.7-0.2-1.3-0.4-1.8-0.6c-0.5-0.2-1.1-0.4-1.8-0.6c-0.5-0.4-1-0.7-1.4-0.9c-0.2-0.2-0.6-0.4-1.1-0.6c-0.5-0.2-0.8-0.5-1.1-0.9
			c-0.5-0.2-0.8-0.4-1.1-0.6c-0.2-0.2-0.4-0.4-0.4-0.6c-0.2,0-0.4-0.1-0.4-0.3c0-0.4-0.1-0.7-0.4-0.9c0-0.4,0-0.8,0-1.2
			c-0.2-0.4-0.4-0.8-0.4-1.2c-0.2-0.4-0.4-0.9-0.4-1.5s-0.1-1.1-0.4-1.5c0-0.6-0.1-1.3-0.4-2.1c0-0.6,0-1.2,0-1.8
			c-0.2-0.8-0.4-1.6-0.4-2.5c0-0.8-0.1-1.6-0.4-2.5c0-1,0-1.9,0-2.8c-0.2-1-0.4-1.9-0.4-2.8c-0.2-1-0.4-2-0.4-3.1
			c0-1-0.1-2.2-0.4-3.4c0-1,0-2,0-3.1c-0.2-1.2-0.4-2.5-0.4-3.7s-0.1-2.5-0.4-3.7c0-1.2,0-2.5,0-3.7c-0.2-1.4-0.4-2.8-0.4-4
			c0-1.4,0-2.8,0-4c-0.2-1.4-0.4-2.9-0.4-4.3s-0.1-2.9-0.4-4.3c0-1.6,0-3.2,0-4.6c-0.2-1.4-0.4-3-0.4-4.6c0-1.4,0-3,0-4.6
			c-0.2-1.6-0.4-3.2-0.4-4.6c0-1.6,0-3.3,0-4.9c-0.2-1.6-0.4-3.3-0.4-4.9c0-1.8,0-3.6,0-5.2c-0.2-1.6-0.4-3.3-0.4-4.9
			c0-1.8,0-3.6,0-5.2c-0.2-1.8-0.4-3.7-0.4-5.5c0-1.6,0-3.4,0-5.2c0-1.8-0.1-3.6-0.4-5.2c0-1.8,0-3.7,0-5.5s0-3.7,0-5.5
			c-0.2-1.8-0.4-3.7-0.4-5.5s0-3.7,0-5.5s0-3.7,0-5.5c-0.2-1.8-0.4-3.7-0.4-5.5c0-2,0-4,0-5.8s0-3.7,0-5.5s-0.1-3.8-0.4-5.8
			c0-1.8,0-3.7,0-5.5s0-3.7,0-5.5c0-2,0-4,0-5.8s0-3.7,0-5.5s0-3.7,0-5.5c-0.2-1.8-0.4-3.8-0.4-5.8c0-1.8,0-3.7,0-5.5s0-3.7,0-5.5
			s0-3.6,0-5.2c0-1.8,0-3.7,0-5.5s0-3.7,0-5.5c0-1.6,0-3.4,0-5.2c0-1.8,0-3.6,0-5.2c0-1.8,0-3.6,0-5.2s0-3.4,0-5.2
			c0.2-1.6,0.4-3.3,0.4-4.9s0-3.3,0-4.9s0-3.3,0-4.9s0-3.2,0-4.6c0-1.6,0-3.3,0-4.9c0-1.4,0.1-2.9,0.4-4.3c0-1.6,0-3.2,0-4.6
			s0-2.9,0-4.3s0.1-2.9,0.4-4.3c0-1.2,0-2.6,0-4c0-1.2,0-2.6,0-4c0.2-1.2,0.4-2.5,0.4-3.7s0-2.5,0-3.7c0.2-1.2,0.4-2.3,0.4-3.4
			c0-1.2,0-2.3,0-3.4c0.2-1,0.4-2.1,0.4-3.4c0-1,0-1.9,0-2.8c0.2-1,0.4-2,0.4-3.1c0-0.8,0.1-1.6,0.4-2.5c0-0.8,0-1.7,0-2.8
			c0.2-0.6,0.4-1.3,0.4-2.2c0.2-0.6,0.4-1.3,0.4-2.2c0-0.6,0.1-1.2,0.4-1.8c0-0.6,0.1-1.1,0.4-1.5c0-0.6,0-1.1,0-1.5
			c0.2-0.4,0.4-0.8,0.4-1.2c0.2-0.4,0.4-0.8,0.4-1.2c0.2-0.2,0.4-0.4,0.4-0.6c0.2-0.2,0.4-0.4,0.4-0.6l0.4-0.3
			c0.5-0.4,1-0.7,1.4-0.9c0.5-0.2,0.8-0.4,1.1-0.6c0.5-0.2,1.1-0.4,1.8-0.6c0.5-0.4,1-0.7,1.4-0.9c0.5-0.2,1.1-0.4,1.8-0.6
			c0.5-0.2,1.1-0.4,1.8-0.6c0.7-0.2,1.4-0.4,2.2-0.6c0.7-0.2,1.4-0.4,2.2-0.6c0.7-0.2,1.6-0.3,2.5-0.3c0.7-0.2,1.6-0.4,2.5-0.6
			c1-0.2,2-0.4,3.2-0.6c1-0.2,2-0.3,3.2-0.3c1.2-0.2,2.4-0.4,3.6-0.6c1.2,0,2.4-0.1,3.6-0.3c1.4-0.2,2.9-0.3,4.3-0.3
			c1.7-0.2,3.2-0.3,4.7-0.3c1.7-0.2,3.4-0.3,5-0.3c1.7-0.2,3.5-0.3,5.4-0.3s3.8-0.1,5.8-0.3c2.2,0,4.3,0,6.5,0s4.3,0,6.5,0
			c2.6-0.2,5.2-0.3,7.6-0.3s4.9,0,7.6,0c2.9,0,5.6,0,8.3,0c3.1,0,6.1,0,9,0c3.1,0.2,6.3,0.3,9.4,0.3
			C390.6,195.7,393.9,195.7,397.3,195.7z"/>
		<path fill="#FFFFFF" d="M393.6,216c1.6,0.2,3.2,0.3,4.8,0.3c1.6,0,3.2,0.1,4.8,0.3c1.6,0,3.2,0.1,4.8,0.3c1.4,0.2,2.9,0.4,4.5,0.6
			c1.4,0,2.9,0.1,4.5,0.3c1.4,0.2,2.8,0.5,4.3,0.8c1.4,0.2,2.8,0.4,4.3,0.6c1.4,0.4,2.8,0.6,4.3,0.8c1.4,0.4,2.8,0.6,4,0.8
			c1.4,0.4,2.8,0.7,4,1.1c1.2,0.4,2.5,0.7,3.7,1.1c1.2,0.4,2.5,0.7,3.7,1.1c1.2,0.6,2.5,1,3.7,1.4c1.1,0.4,2.2,0.8,3.5,1.4
			c1.1,0.6,2.1,1.1,3.2,1.7c1.1,0.4,2.1,0.9,3.2,1.7c1.1,0.5,2,1.1,2.9,1.7c1.1,0.5,2,1.2,2.9,1.9c0.9,0.6,1.8,1.2,2.7,1.9
			c0.9,0.6,1.8,1.2,2.7,1.9c0.9,0.7,1.7,1.5,2.4,2.2c0.9,0.7,1.7,1.6,2.4,2.5c0.7,0.7,1.4,1.6,2.1,2.5c0.7,0.7,1.3,1.6,1.9,2.5
			c0.7,0.9,1.3,1.8,1.9,2.8c0.7,0.9,1.2,1.8,1.6,2.8c0.5,0.9,1.1,1.9,1.6,3c0.5,0.9,1,1.9,1.3,3c0.4,1.1,0.7,2.2,1.1,3.3
			c0.4,1.1,0.7,2.2,1.1,3.3c0.2,1.1,0.4,2.2,0.8,3.3c0.2,1.3,0.4,2.5,0.5,3.6c0.2,1.3,0.3,2.6,0.3,3.9c0.2,1.3,0.3,2.6,0.3,3.9
			c0,1.5,0,2.9,0,4.1c0,1.7-0.1,3.3-0.3,5c-0.2,1.7-0.4,3.3-0.5,5c-0.4,1.5-0.7,2.9-1.1,4.4s-0.7,2.9-1.1,4.4
			c-0.5,1.3-1.1,2.6-1.6,3.9s-1.1,2.6-1.6,3.9c-0.7,1.3-1.4,2.5-2.1,3.6c-0.5,1.1-1.2,2.2-1.9,3.3c-0.9,1.1-1.7,2.1-2.4,3
			c-0.7,1.1-1.5,2.1-2.4,3s-1.8,1.8-2.7,2.5c-0.9,0.9-1.8,1.8-2.7,2.5c-0.9,0.7-1.8,1.5-2.7,2.2c-0.9,0.7-1.9,1.4-2.9,1.9
			c-0.9,0.7-1.8,1.4-2.7,1.9c-1.1,0.6-2,1.1-2.9,1.7c-1.1,0.6-2.1,1-2.9,1.4c-0.9,0.6-1.9,1-2.9,1.4c-0.9,0.6-1.8,0.9-2.7,1.1
			c-1.2,0-2.2,0.3-2.9,0.8c-0.4,0.2,0.3,0.4,1.9,0.6c0.5,0,1.1,0.2,1.6,0.6c0.7,0.4,1.4,0.6,2.1,0.8c0.5,0.2,1.2,0.5,1.9,0.8
			c0.7,0.4,1.4,0.6,2.1,0.8c0.7,0.4,1.5,0.7,2.4,1.1c0.7,0.4,1.4,0.7,2.1,1.1c0.9,0.6,1.7,1,2.4,1.4c0.9,0.4,1.7,0.8,2.4,1.4
			c0.9,0.6,1.8,1.1,2.7,1.7c0.9,0.6,1.7,1.1,2.4,1.7c0.9,0.6,1.8,1.2,2.7,1.9c0.9,0.6,1.7,1.2,2.4,1.9c0.9,0.7,1.8,1.4,2.7,1.9
			c0.9,0.9,1.8,1.8,2.7,2.5c0.7,0.7,1.5,1.6,2.4,2.5c0.9,0.7,1.7,1.6,2.4,2.5c0.9,0.9,1.7,1.9,2.4,3c0.9,0.9,1.7,1.8,2.4,2.8
			c0.9,1.1,1.7,2.2,2.4,3.3c0.7,1.1,1.4,2.2,2.1,3.3c0.7,1.3,1.4,2.5,2.1,3.6c0.7,1.3,1.3,2.6,1.9,3.9c0.7,1.3,1.3,2.7,1.9,4.1
			c0.7,1.3,1.3,2.7,1.9,4.1c0.5,1.5,1.1,2.9,1.6,4.4s1,3,1.3,4.7c0.5,1.7,1,3.3,1.3,5c0.4,1.7,0.7,3.3,1.1,5
			c0.4,1.8,0.6,3.7,0.8,5.5c0.4,1.8,0.6,3.7,0.8,5.5c0.2,2,0.3,4,0.3,6.1c0.2,2,0.3,4.1,0.3,6.1c0,1.5,0,2.9,0,4.4s0,2.9,0,4.4
			c-0.2,1.5-0.3,2.9-0.3,4.1c-0.2,1.5-0.4,2.9-0.5,4.1c-0.2,1.5-0.4,2.9-0.5,4.1c-0.2,1.3-0.4,2.6-0.5,3.9c-0.4,1.3-0.6,2.6-0.8,3.9
			c-0.4,1.3-0.7,2.6-1.1,3.9s-0.7,2.5-1.1,3.6c-0.4,1.3-0.7,2.5-1.1,3.6s-0.8,2.2-1.3,3.3c-0.4,1.3-0.8,2.5-1.3,3.6
			c-0.5,0.9-1.1,1.9-1.6,3s-1.1,2.2-1.6,3.3c-0.5,0.9-1.1,1.9-1.6,3c-0.7,0.9-1.3,1.8-1.9,2.8c-0.7,1.1-1.4,2.1-2.1,3
			s-1.4,1.8-2.1,2.8c-0.7,0.9-1.4,1.8-2.1,2.5c-0.7,0.9-1.4,1.8-2.1,2.8c-0.9,0.7-1.7,1.5-2.4,2.2c-0.9,0.9-1.8,1.8-2.7,2.5
			c-0.9,0.7-1.8,1.5-2.7,2.2c-0.9,0.7-1.8,1.5-2.7,2.2c-0.9,0.7-1.8,1.5-2.7,2.2c-1.1,0.6-2,1.2-2.9,1.9c-1.1,0.5-2,1.2-2.9,1.9
			c-1.1,0.6-2.1,1.1-3.2,1.7c-1.1,0.5-2.1,1.1-3.2,1.7c-1.1,0.6-2.1,1.1-3.2,1.7c-1.1,0.6-2.2,1-3.5,1.4c-1.1,0.6-2.1,1-3.2,1.4
			c-1.2,0.6-2.5,1-3.7,1.4c-1.1,0.6-2.2,1-3.5,1.4c-1.2,0.4-2.5,0.7-3.7,1.1c-1.2,0.4-2.5,0.7-3.7,1.1c-1.2,0.2-2.6,0.5-4,0.8
			c-1.2,0.4-2.5,0.6-3.7,0.8c-1.4,0.4-2.8,0.6-4,0.8c-1.4,0.2-2.8,0.4-4,0.6c-1.4,0.2-2.8,0.4-4.3,0.6c-1.4,0.2-2.8,0.4-4.3,0.6
			c-1.4,0.2-2.8,0.4-4.3,0.6c-1.4,0-2.8,0.1-4.3,0.3c-1.4,0-2.8,0.1-4.3,0.3c-1.6,0-3.1,0-4.5,0c-2.7,0-5.3,0.1-7.7,0.3
			c-2.5,0-4.9,0-7.2,0s-4.6,0-6.9,0c-2.1,0-4.3,0-6.4,0c-2,0-3.9,0-5.9,0c-1.8,0-3.6,0-5.3,0c-1.8,0-3.6,0-5.3,0c-1.6,0-3.2,0-4.8,0
			c-1.4,0-2.8-0.1-4.3-0.3c-1.4,0-2.8,0-4,0s-2.5-0.1-3.7-0.3c-1.2,0-2.4,0-3.5,0c-1.1-0.2-2.1-0.3-3.2-0.3
			c-0.9-0.2-1.8-0.3-2.7-0.3c-0.9-0.2-1.8-0.4-2.7-0.5c-0.7,0-1.5-0.1-2.4-0.3c-0.7-0.2-1.4-0.3-2.1-0.3c-0.5-0.2-1.2-0.4-1.9-0.6
			c-0.5-0.2-1.1-0.4-1.6-0.5c-0.5,0-1.1-0.1-1.6-0.3s-1-0.4-1.3-0.6c-0.4-0.2-0.8-0.4-1.3-0.6c-0.4-0.4-0.7-0.6-1.1-0.8
			c-0.2-0.2-0.4-0.4-0.8-0.6c-0.4-0.2-0.6-0.5-0.8-0.8c-0.4-0.2-0.6-0.4-0.8-0.6c-0.2-0.2-0.3-0.4-0.3-0.5c0,0-0.3-0.1-0.3-0.3
			c0-0.4-0.1-0.6-0.3-0.8c0-0.4,0-0.7,0-1.1c-0.2-0.4-0.3-0.7-0.3-1.1c-0.2-0.4-0.3-0.8-0.3-1.4s-0.1-1-0.3-1.4
			c0-0.6-0.1-1.2-0.3-1.9c0-0.5,0-1.1,0-1.7c-0.2-0.7-0.3-1.5-0.3-2.2s-0.1-1.5-0.3-2.2c0-0.9,0-1.7,0-2.5c-0.2-0.9-0.3-1.7-0.3-2.5
			c-0.2-0.9-0.3-1.8-0.3-2.8c0-0.9-0.1-1.9-0.3-3c0-0.9,0-1.8,0-2.8c-0.2-1.1-0.3-2.2-0.3-3.3c0-1.1-0.1-2.2-0.3-3.3
			c0-1.1,0-2.2,0-3.3c-0.2-1.3-0.3-2.5-0.3-3.6c0-1.3,0-2.5,0-3.6c-0.2-1.3-0.3-2.6-0.3-3.9s-0.1-2.6-0.3-3.9c0-1.5,0-2.9,0-4.1
			c-0.2-1.3-0.3-2.7-0.3-4.1c0-1.3,0-2.7,0-4.1c-0.2-1.5-0.3-2.8-0.3-4.1c0-1.5,0-2.9,0-4.4c-0.2-1.5-0.3-2.9-0.3-4.4
			c0-1.7,0-3.2,0-4.7c-0.2-1.5-0.3-2.9-0.3-4.4c0-1.7,0-3.2,0-4.7c-0.2-1.7-0.3-3.3-0.3-5c0-1.5,0-3,0-4.7s-0.1-3.2-0.3-4.7
			c0-1.7,0-3.3,0-5s0-3.3,0-5c-0.2-1.7-0.3-3.3-0.3-5s0-3.3,0-5s0-3.3,0-5c-0.2-1.7-0.3-3.3-0.3-5c0-1.8,0-3.6,0-5.2
			c0-1.7,0-3.3,0-5s-0.1-3.4-0.3-5.2c0-1.7,0-3.3,0-5s0-3.3,0-5c0-1.8,0-3.6,0-5.2c0-1.7,0-3.3,0-5s0-3.3,0-5
			c-0.2-1.7-0.3-3.4-0.3-5.2c0-1.7,0-3.3,0-5s0-3.3,0-5s0-3.2,0-4.7c0-1.7,0-3.3,0-5s0-3.3,0-5c0-1.5,0-3,0-4.7s0-3.2,0-4.7
			c0-1.7,0-3.2,0-4.7s0-3,0-4.7c0.2-1.5,0.3-2.9,0.3-4.4s0-2.9,0-4.4s0-2.9,0-4.4s0-2.9,0-4.1c0-1.5,0-2.9,0-4.4
			c0-1.3,0.1-2.6,0.3-3.9c0-1.5,0-2.8,0-4.1c0-1.3,0-2.6,0-3.9s0.1-2.6,0.3-3.9c0-1.1,0-2.3,0-3.6c0-1.1,0-2.3,0-3.6
			c0.2-1.1,0.3-2.2,0.3-3.3c0-1.1,0-2.2,0-3.3c0.2-1.1,0.3-2.1,0.3-3c0-1.1,0-2.1,0-3c0.2-0.9,0.3-1.9,0.3-3c0-0.9,0-1.7,0-2.5
			c0.2-0.9,0.3-1.8,0.3-2.8c0-0.7,0.1-1.5,0.3-2.2c0-0.7,0-1.6,0-2.5c0.2-0.6,0.3-1.2,0.3-1.9c0.2-0.6,0.3-1.2,0.3-1.9
			c0-0.6,0.1-1.1,0.3-1.7c0-0.6,0.1-1,0.3-1.4c0-0.6,0-1,0-1.4c0.2-0.4,0.3-0.7,0.3-1.1c0.2-0.4,0.3-0.7,0.3-1.1
			c0.2-0.2,0.3-0.4,0.3-0.6c0.2-0.2,0.3-0.4,0.3-0.6l0.3-0.3c0.4-0.4,0.7-0.6,1.1-0.8s0.6-0.4,0.8-0.6c0.4-0.2,0.8-0.4,1.3-0.6
			c0.4-0.4,0.7-0.6,1.1-0.8s0.8-0.4,1.3-0.6c0.4-0.2,0.8-0.4,1.3-0.6c0.5-0.2,1.1-0.4,1.6-0.6c0.5-0.2,1.1-0.4,1.6-0.6
			c0.5-0.2,1.2-0.3,1.9-0.3c0.5-0.2,1.2-0.4,1.9-0.6c0.7-0.2,1.5-0.4,2.4-0.6c0.7-0.2,1.5-0.3,2.4-0.3c0.9-0.2,1.8-0.4,2.7-0.6
			c0.9,0,1.8-0.1,2.7-0.3c1.1-0.2,2.1-0.3,3.2-0.3c1.2-0.2,2.4-0.3,3.5-0.3c1.2-0.2,2.5-0.3,3.7-0.3c1.2-0.2,2.6-0.3,4-0.3
			s2.8-0.1,4.3-0.3c1.6,0,3.2,0,4.8,0c1.6,0,3.2,0,4.8,0c2-0.2,3.8-0.3,5.6-0.3c1.8,0,3.6,0,5.6,0c2.1,0,4.2,0,6.1,0
			c2.3,0,4.5,0,6.7,0c2.3,0.2,4.6,0.3,6.9,0.3C388.6,216,391.1,216,393.6,216z M383.7,274.2c-0.4,0.4-0.4,1.1-0.3,2.2
			c0,1.1,0,2.2,0,3.3c-0.2,1.5-0.2,2.9,0,4.1c0,1.5,0,3,0,4.7c0,1.5,0.1,2.9,0.3,4.4c0,1.5,0,2.9,0,4.1c0.4,1.3,0.4,2.5,0.3,3.6
			c-0.2,1.3-0.1,2.1,0.3,2.5s1.2,0.4,2.4,0c1.1-0.2,2.1-0.3,3.2-0.3c1.2-0.2,2.5-0.6,3.7-1.1c1.2-0.6,2.4-1.1,3.5-1.7
			c1.2-0.7,2.3-1.7,3.2-2.8c0.9-0.9,1.5-2,1.9-3.3c0.5-1.5,0.7-2.9,0.5-4.4c-0.2-1.7-0.5-3.2-1.1-4.7c-0.5-1.5-1.3-2.8-2.1-3.9
			c-0.9-0.9-2-1.8-3.2-2.8c-1.1-0.7-2.2-1.4-3.5-1.9c-1.1-0.6-2.2-0.9-3.5-1.1c-1.1-0.2-2.1-0.5-3.2-0.8
			C384.8,274.1,384,274,383.7,274.2z M387.7,384.1c-0.2,0.2-0.2,0.6,0,1.4c0.2,0.5,0.2,1.2,0,1.9c0,0.7,0,1.6,0,2.5
			c0.2,0.9,0.3,1.8,0.3,2.8c0,1.1,0,2.2,0,3.3s0,2.3,0,3.6c0,1.3,0.1,2.5,0.3,3.6c0,1.5,0,2.9,0,4.1c0,1.5,0.1,2.9,0.3,4.4
			c0,1.5,0,2.9,0,4.4s0.1,2.9,0.3,4.4c0,1.5,0,3,0,4.7c0,1.5,0.1,3,0.3,4.7c0,1.5,0,2.9,0,4.4c0.2,1.5,0.3,3,0.3,4.7
			c0,1.3,0.1,2.7,0.3,4.1c0,1.5,0,2.9,0,4.4c0.2,1.3,0.3,2.6,0.3,3.9s0.1,2.6,0.3,3.9c0,1.3,0,2.5,0,3.6c0.2,1.1,0.3,2.1,0.3,3
			s0.1,1.8,0.3,2.8c0,0.9,0,1.8,0,2.5c0.2,0.6,0.3,1.2,0.3,1.9c-0.2,0.6-0.1,0.9,0.3,1.1c0.2,0.2,0.5,0.3,1.1,0.3c0.7,0,1.3,0,1.9,0
			c0.7,0.2,1.5,0.2,2.4,0s1.8-0.3,2.7-0.3c1.1-0.2,2-0.4,2.9-0.6c1.1-0.2,2.1-0.4,3.2-0.6c1.1-0.4,2.2-0.7,3.5-1.1
			c1.1-0.4,2.1-0.8,3.2-1.4c1.2-0.6,2.4-1.1,3.5-1.7c1.1-0.7,2.1-1.5,3.2-2.2c1.1-0.9,2-1.8,2.9-2.8c1.1-0.9,2-1.9,2.7-3
			c0.9-1.1,1.7-2.3,2.4-3.6c0.7-1.5,1.4-2.9,2.1-4.4c0.5-1.5,1-3,1.3-4.7c0.4-1.8,0.6-3.7,0.8-5.5c0-2,0-4,0-6.1
			c-0.2-2.2-0.4-4.4-0.8-6.6c-0.2-2-0.5-4-1.1-6.1c-0.4-1.8-0.8-3.7-1.3-5.5c-0.5-1.7-1.2-3.3-1.9-5c-0.7-1.5-1.4-2.9-2.1-4.4
			c-0.9-1.3-1.8-2.6-2.7-3.9c-0.7-1.1-1.6-2.2-2.7-3.3c-0.9-1.1-1.8-2.1-2.7-3c-1.1-0.9-2.1-1.7-3.2-2.5c-0.9-0.7-1.9-1.5-2.9-2.2
			c-1.1-0.7-2.1-1.4-2.9-1.9c-1.1-0.4-2.1-0.8-3.2-1.4c-0.9-0.4-1.9-0.7-2.9-1.1c-0.9-0.4-1.8-0.6-2.7-0.8c-0.9-0.2-1.8-0.4-2.7-0.6
			c-0.7-0.2-1.5-0.4-2.4-0.6c-0.7,0-1.3,0-1.9,0c-0.7,0.2-1.3,0.2-1.9,0C388.3,383.8,387.9,383.9,387.7,384.1z"/>
	</g>
	<path fill="#020202" d="M655.2,536.4c-0.2-0.9-11.9,17.1-44.8,16.9c-0.9,0.2-1.9,0.2-3.1,0c-0.9,0-1.8,0-2.7,0c-1.1,0-2.2,0-3,0
		c-1.1-0.2-2.2-0.3-3.1-0.3c-1.1-0.2-2.1-0.4-3-0.6c-0.9,0-1.9-0.1-3-0.3c-0.9-0.2-1.9-0.4-3-0.7c-0.9-0.2-1.8-0.4-2.7-0.6
		c-1.1-0.4-2.2-0.8-3-1c-0.9-0.2-1.9-0.5-3-1c-0.9-0.4-1.8-0.8-2.7-1c-0.9-0.4-1.9-0.9-3-1.3c-0.9-0.4-1.8-0.9-2.7-1.3
		c-0.9-0.4-1.8-0.9-2.7-1.3c-0.9-0.4-1.8-0.9-2.7-1.3c-0.9-0.7-1.8-1.2-2.7-1.6c-0.9-0.6-1.8-1.2-2.7-1.6c-0.9-0.6-1.8-1.3-2.7-1.9
		c-0.9-0.4-1.8-1-2.7-1.6c-0.9-0.7-1.7-1.3-2.3-2c-0.9-0.6-1.8-1.3-2.7-2c-0.7-0.9-1.5-1.6-2.3-2.3c-0.9-0.6-1.7-1.4-2.4-2.3
		c-0.7-0.6-1.5-1.4-2.4-2.3c-0.7-0.9-1.5-1.7-2.3-2.6c-0.7-0.6-1.4-1.4-2-2.3c-0.7-0.9-1.3-1.7-2-2.6c-0.7-0.9-1.3-1.8-2-2.9
		c-0.7-0.9-1.3-1.7-2-2.6c-0.7-1.1-1.3-2-2-2.9c-0.4-1.1-1-2.1-1.7-2.9c-0.7-1.1-1.2-2.2-1.7-3.2c-0.7-0.9-1.2-1.8-1.7-2.9
		c-0.4-1.1-1-2.2-1.7-3.3c-0.4-1.1-0.9-2.2-1.3-3.2c-0.4-1.3-0.9-2.5-1.3-3.6c-0.5-1.1-0.9-2.3-1.4-3.6c-0.4-1.1-0.8-2.3-1-3.6
		c-0.4-1.1-0.9-2.3-1.3-3.6c-0.2-1.3-0.5-2.5-0.7-3.6c-0.4-1.3-0.8-2.6-1-3.9s-0.5-2.6-0.7-3.9s-0.4-2.6-0.7-3.9
		c-0.2-1.5-0.4-2.9-0.7-4.2c0-1.3-0.1-2.7-0.3-4.2c0-1.3-0.1-2.7-0.3-4.2c0-1.3,0-2.7,0-4.2s0-2.9,0-4.2c0-1.5,0-3,0-4.6
		c0-1.5,0.1-3,0.3-4.6c0-1.5,0.1-3,0.3-4.5c0-1.7,0.1-3.4,0.3-4.9s0.4-3,0.7-4.5c0.2-1.7,0.5-3.4,0.7-4.9c0.4-1.9,0.9-3.8,1.3-5.5
		c0.2-1.7,0.6-3.5,1-5.2s0.9-3.4,1.3-4.9c0.4-1.7,1-3.4,1.7-4.9c0.4-1.7,1-3.4,1.7-4.9c0.4-1.5,1-3,1.7-4.6c0.7-1.5,1.3-2.9,2-4.2
		c0.7-1.5,1.3-2.9,2-4.2c0.7-1.5,1.4-2.9,2.3-4.2c0.7-1.3,1.5-2.6,2.4-3.9c15.5-22.7,43.7-45.8,81.9-47.8c38.3-2,52.8,16.6,53,15.7
		c0.9-1.7-1.3-10.9,4.6-14.2c5.8-3.3,91.2-3.2,90.2,5.3l0.3,0.3c0,0.4,0,0.8,0,1c0,0.4,0,0.9,0,1.3c0,0.6,0,1.3,0,2
		c0,0.6,0,1.3,0,1.9c0,0.9,0,1.6,0,2.3c0,1.1,0,2.1,0,2.9c0,1.1-0.1,2.1-0.3,2.9c0,1.3,0,2.5,0,3.6c-0.2,1.3-0.3,2.5-0.3,3.6
		c0,1.5-0.1,2.9-0.3,4.2c0,1.3,0,2.7,0,4.2c-0.2,1.5-0.3,3-0.3,4.6c0,1.7-0.1,3.4-0.3,4.9c0,1.7,0,3.5,0,5.2
		c-0.2,1.7-0.3,3.5-0.3,5.2c0,2-0.1,3.9-0.3,5.8c0,2,0,3.8,0,5.5c-0.2,2.2-0.3,4.2-0.3,6.2c0,2.2,0,4.2,0,6.2c0,2.2-0.1,4.3-0.3,6.5
		c0,2.2,0,4.3,0,6.5c0,2.4,0,4.7,0,6.8c0,2.6,0,5.1,0,7.5s0,4.8,0,7.1c0.2,2.4,0.3,4.7,0.3,6.8c0,2.4,0,4.7,0,6.8s0.1,4.3,0.3,6.5
		c0,2.2,0,4.3,0,6.5c0.2,2.2,0.3,4.2,0.3,6.2s0.1,4,0.3,6.2c0,2,0.1,3.8,0.3,5.5c0,1.9,0,3.9,0,5.8c0.2,1.7,0.3,3.5,0.3,5.2
		c0.2,1.7,0.3,3.5,0.3,5.2c0.2,1.7,0.3,3.4,0.3,4.9c0.2,1.7,0.3,3.4,0.3,4.9c0.2,1.5,0.3,3,0.3,4.6c0.2,1.3,0.3,2.7,0.3,4.2
		c0,1.3,0.1,2.6,0.3,3.9c0,1.3,0.1,2.6,0.3,3.9c0,1.3,0,2.5,0,3.6c0.2,1.1,0.3,2.3,0.3,3.6c0,0.9,0.1,1.8,0.3,2.9c0,1.1,0,2.1,0,2.9
		c0,0.9,0.1,1.7,0.3,2.6c0,0.9,0,1.7,0,2.6c0,0.7,0,1.3,0,2c0,0.6,0,1.3,0,2c0,0.6,0,1.2,0,1.6c0,0.4,0,1,0,1.6c0,0.2-0.1,0.5-0.3,1
		c0,0.4,0,0.8,0,1c-0.2,0.2-0.3,0.4-0.3,0.6c0,0.2-0.1,0.3-0.3,0.3c-0.4,0.2-0.9,0.4-1.3,0.6c-0.9,0.2-1.7,0.3-2.3,0.3
		c-1.2,0.2-2.3,0.4-3.4,0.6c-1.1,0-6.8,0.3-8.1,0.3c-1.8,0.2-3.5,0.3-5.1,0.3c-1.8,0-3.6,0-5.4,0c-1.8,0-9.5,0-11.5,0s-4,0-6.1,0
		c-2,0-9.8-0.1-11.8-0.3c-2,0-19.7-1-21.3-1c-1.4-0.2-10.2-1.3-10.2-1.3C659.4,549.6,655.7,538,655.2,536.4z"/>
	<path fill="#FFFFFF" d="M667.3,507.9c-0.2-0.7-0.8,0.1-1.7,2.4c-0.4,0.7-1,1.4-2,2.2c-0.8,0.5-1.4,1.2-2,1.9s-1.2,1.3-2,1.9
		c-0.8,0.7-1.4,1.3-2,1.9c-0.8,0.7-1.5,1.3-2.2,1.9c-0.8,0.5-1.4,1.1-2,1.6c-0.8,0.5-1.5,1.1-2.3,1.6c-0.8,0.4-1.5,0.8-2.2,1.3
		c-0.8,0.5-1.5,1-2.2,1.4c-0.8,0.4-1.5,0.8-2.3,1.3c-0.7,0.4-1.5,0.7-2.2,1.1c-0.8,0.4-1.6,0.7-2.5,1.1c-0.7,0.4-1.5,0.6-2.2,0.8
		c-0.8,0.4-1.6,0.7-2.5,1.1c-0.8,0.2-1.5,0.4-2.3,0.5c-0.8,0.4-1.6,0.6-2.5,0.8c-0.8,0.2-1.6,0.4-2.5,0.5c-0.8,0.2-1.5,0.4-2.2,0.5
		c-0.9,0.2-1.8,0.3-2.5,0.3c-0.8,0.2-1.6,0.3-2.5,0.3c-0.8,0.2-1.6,0.3-2.5,0.3c-0.8,0-1.6,0-2.5,0c-0.7,0.2-1.6,0.2-2.5,0
		c-0.8,0-1.5,0-2.2,0c-1,0-1.8,0-2.5,0c-0.9-0.2-1.8-0.3-2.5-0.3c-0.9-0.2-1.8-0.4-2.5-0.5c-0.8,0-1.6-0.1-2.5-0.3
		c-0.8-0.2-1.6-0.4-2.5-0.5c-0.8-0.2-1.5-0.4-2.3-0.5c-0.9-0.3-1.8-0.6-2.5-0.8c-0.8-0.2-1.6-0.4-2.5-0.8c-0.8-0.4-1.5-0.6-2.2-0.8
		c-0.8-0.4-1.6-0.7-2.5-1.1c-0.8-0.4-1.5-0.7-2.2-1.1c-0.8-0.4-1.5-0.7-2.2-1.1c-0.8-0.4-1.5-0.7-2.3-1.1c-0.8-0.5-1.5-1-2.2-1.3
		c-0.8-0.5-1.5-1-2.2-1.3c-0.8-0.5-1.5-1.1-2.3-1.6c-0.7-0.4-1.5-0.8-2.2-1.3c-0.8-0.5-1.4-1.1-2-1.6c-0.8-0.5-1.5-1.1-2.2-1.6
		c-0.6-0.7-1.2-1.3-2-1.9c-0.8-0.5-1.4-1.2-2-1.9c-0.6-0.5-1.2-1.2-2-1.9c-0.6-0.7-1.2-1.4-2-2.2c-0.6-0.5-1.1-1.2-1.7-1.9
		c-0.6-0.7-1.1-1.4-1.7-2.2c-0.5-0.7-1.1-1.5-1.7-2.4c-0.5-0.7-1.1-1.4-1.7-2.1c-0.6-0.9-1.1-1.7-1.7-2.4c-0.4-0.9-0.8-1.7-1.4-2.4
		c-0.6-0.9-1.1-1.8-1.4-2.7c-0.5-0.7-1-1.5-1.4-2.4s-0.8-1.8-1.4-2.7c-0.4-0.9-0.7-1.8-1.1-2.7c-0.4-1.1-0.8-2.1-1.1-3
		s-0.8-1.9-1.1-3c-0.4-0.9-0.7-1.9-0.8-3c-0.4-0.9-0.8-1.9-1.1-3c-0.2-1.1-0.4-2.1-0.6-3c-0.4-1.1-0.6-2.2-0.8-3.2
		c-0.2-1.1-0.4-2.1-0.5-3.2c-0.2-1.1-0.4-2.2-0.6-3.2c-0.2-1.3-0.4-2.4-0.5-3.5c0-1.1-0.1-2.2-0.3-3.5c0-1.1-0.1-2.2-0.3-3.5
		c0-1.1,0-2.2,0-3.5s0-2.4,0-3.5c0-1.3,0-2.5,0-3.8c0-1.2,0.1-2.5,0.3-3.8c0-1.3,0.1-2.5,0.3-3.8c0-1.4,0.1-2.8,0.3-4
		s0.4-2.5,0.5-3.8c0.2-1.4,0.4-2.8,0.6-4c0.4-1.6,0.8-3.1,1.1-4.6c0.2-1.4,0.5-2.9,0.8-4.3c0.4-1.4,0.8-2.8,1.1-4
		c0.4-1.4,0.8-2.8,1.4-4c0.4-1.4,0.8-2.8,1.4-4c0.4-1.3,0.8-2.5,1.4-3.8c0.5-1.3,1.1-2.4,1.7-3.5c0.6-1.3,1.1-2.4,1.7-3.5
		c0.6-1.3,1.2-2.4,2-3.5c0.6-1.1,1.2-2.2,2-3.2c0.6-1.1,1.2-2.1,2-3c0.8-1.1,1.5-2.1,2.2-3c0.8-1.1,1.5-2.1,2.3-3
		c0.7-0.9,1.5-1.8,2.2-2.7c0.8-0.9,1.5-1.8,2.2-2.7c0.9-0.7,1.8-1.5,2.5-2.4c0.9-0.7,1.8-1.4,2.5-2.2c0.9-0.7,1.9-1.4,2.8-2.2
		c0.8-0.7,1.6-1.4,2.5-2.2c0.9-0.7,1.9-1.3,2.8-1.9c0.9-0.7,1.9-1.3,2.8-1.9c0.9-0.5,1.8-1.1,2.8-1.6c0.9-0.5,1.8-1.1,2.8-1.6
		c1.1-0.5,2.2-1,3.1-1.3c0.9-0.5,2-1,3.1-1.3c0.9-0.4,1.9-0.8,2.8-1.4c1.1-0.4,2.1-0.7,3.1-1.1c1.1-0.2,2.1-0.4,3.1-0.8
		c1.1-0.4,2.1-0.6,3.1-0.8c1.1-0.3,2.1-0.6,3.1-0.8c1.1-0.2,2.1-0.4,3.1-0.5c1.1-0.2,2.1-0.4,3.1-0.5c1.1-0.2,2.2-0.3,3.4-0.3
		c0.9-0.2,2-0.3,3.1-0.3c0.9-0.2,2-0.3,3.1-0.3s2.2,0,3.1,0c1.1,0,2.1,0,3.1,0c1.1,0,2.1,0.1,3.1,0.3c1.1,0,2.1,0.1,3.1,0.3
		c1.1,0,2.1,0.1,3.1,0.3c1.1,0.2,2.1,0.4,3.1,0.5c0.9,0.2,2,0.4,3.1,0.5c0.9,0.4,1.8,0.6,2.8,0.8c1.1,0.2,2.1,0.4,3.1,0.8
		c0.9,0.4,1.8,0.7,2.8,1.1c0.9,0.2,1.8,0.4,2.8,0.8c0.9,0.4,1.9,0.7,2.8,1.1c0.9,0.5,1.9,1,2.8,1.3c0.8,0.4,1.6,0.8,2.5,1.4
		c0.9,0.5,1.8,1,2.5,1.3c0.9,0.5,1.8,1.1,2.5,1.6c0.9,0.5,1.8,1.1,2.5,1.6c1.1,0.4,1.8,0.9,2.2,1.6c1.3,2,2.1,2.6,2.2,1.9
		c0.8-1.4,1-3.3,0.8-5.7c-0.2-1.6,0-3.2,0.6-4.8c0.4-1.1,0.6-2.3,0.8-3.5c0-0.7,0.3-1.2,0.8-1.6c0.2-0.2,0.6-0.4,1.1-0.5
		c0.5-0.2,1.2-0.3,2-0.3c0.9-0.2,1.8-0.3,2.8-0.3c1.1-0.2,2.3-0.3,3.4-0.3c1.3,0,2.6,0,3.9,0c1.5,0,3,0,4.5,0s3.1,0,4.7,0
		c1.5,0,3.1,0,4.8,0s3.4,0.1,5,0.3c1.7,0,3.5,0.1,5.3,0.3c1.5,0,3.1,0.1,4.8,0.3c1.7,0.2,3.3,0.4,4.8,0.5c1.5,0.2,3,0.4,4.5,0.5
		c1.3,0.2,2.6,0.4,3.9,0.5c1.1,0.2,2.3,0.4,3.4,0.5c0.9,0.2,1.9,0.5,2.8,0.8c0.7,0.2,1.4,0.4,2,0.5c0.4,0.4,0.7,0.7,1.1,1.1l0.3,0.3
		c0,0.4,0,0.6,0,0.8c0,0.4,0,0.7,0,1.1c0,0.5,0,1.1,0,1.6s0,1.1,0,1.6c0,0.7,0,1.3,0,1.9c0,0.9,0,1.7,0,2.4c0,0.9-0.1,1.7-0.3,2.4
		c0,1.1,0,2.1,0,3c-0.2,1.1-0.3,2.1-0.3,3c0,1.3-0.1,2.4-0.3,3.5c0,1.1,0,2.2,0,3.5c-0.2,1.3-0.3,2.5-0.3,3.8c0,1.4-0.1,2.8-0.3,4
		c0,1.4,0,2.9,0,4.3c-0.2,1.4-0.3,2.9-0.3,4.3c0,1.6-0.1,3.2-0.3,4.9c0,1.6,0,3.1,0,4.6c-0.2,1.8-0.3,3.5-0.3,5.1c0,1.8,0,3.5,0,5.1
		c0,1.8-0.1,3.6-0.3,5.4c0,1.8,0,3.6,0,5.4c0,2,0,3.9,0,5.7c0,2.1,0,4.2,0,6.2s0,3.9,0,5.9c0.2,2,0.3,3.9,0.3,5.7c0,2,0,3.9,0,5.7
		c0,1.8,0.1,3.6,0.3,5.4c0,1.8,0,3.6,0,5.4c0.2,1.8,0.3,3.5,0.3,5.1s0.1,3.3,0.3,5.1c0,1.6,0.1,3.1,0.3,4.6c0,1.6,0,3.2,0,4.9
		c0.2,1.4,0.3,2.9,0.3,4.3c0.2,1.4,0.3,2.9,0.3,4.3c0.2,1.4,0.3,2.8,0.3,4c0.2,1.4,0.3,2.8,0.3,4c0.2,1.3,0.3,2.5,0.3,3.8
		c0.2,1.1,0.3,2.2,0.3,3.5c0,1.1,0.1,2.2,0.3,3.2c0,1.1,0.1,2.2,0.3,3.2c0,1.1,0,2.1,0,3c0.2,0.9,0.3,1.9,0.3,3
		c0,0.7,0.1,1.5,0.3,2.4c0,0.9,0,1.7,0,2.4s0.1,1.4,0.3,2.2c0,0.7,0,1.4,0,2.2c0,0.5,0,1.1,0,1.6s0,1.1,0,1.6s0,1,0,1.3
		c0,0.4,0,0.8,0,1.3c0,0.2-0.1,0.4-0.3,0.8c0,0.4,0,0.6,0,0.8c-0.2,0.2-0.3,0.4-0.3,0.5c0,0.2-0.1,0.3-0.3,0.3
		c-0.4,0.2-0.8,0.4-1.1,0.5c-0.8,0.2-1.4,0.3-2,0.3c-0.9,0.2-1.9,0.4-2.8,0.5c-0.9,0-2,0.1-3.1,0.3c-1.3,0-2.5,0-3.6,0
		c-1.5,0.2-2.9,0.3-4.2,0.3c-1.5,0-3,0-4.5,0s-3.1,0-4.7,0c-1.5,0-3.1,0-4.8,0s-3.4,0-5.1,0c-1.7,0-3.4,0-5,0
		c-1.5,0-3.1-0.1-4.8-0.3c-1.7,0-3.3-0.1-4.8-0.3c-1.7,0-3.3,0-4.7,0c-1.3-0.2-2.7-0.3-4.2-0.3c-1.3-0.2-2.6-0.3-3.9-0.3
		c-1.1-0.2-2.2-0.3-3.4-0.3c-0.9-0.2-1.9-0.4-2.8-0.5c-0.8,0-1.5-0.1-2.2-0.3c-0.6-0.2-1.1-0.3-1.7-0.3c-0.4-0.2-0.7-0.4-0.8-0.5
		c-0.6-0.5-0.9-1.2-1.1-1.9c-0.4-0.7-0.7-1.4-0.8-2.2c-0.4-1.1-0.6-2.1-0.6-3c-0.2-1.3-0.3-2.4-0.3-3.5c0.2-1.2,0.3-2.6,0.3-4
		c-0.4-1.4-0.4-2.9,0-4.3C667.6,510.7,667.7,509.1,667.3,507.9z M640.7,404.1c-1.1-0.2-2.3-0.3-3.6-0.3s-2.5,0-3.7,0
		c-1.3,0.2-2.5,0.4-3.6,0.8s-2.2,0.7-3.4,1.1c-1.1,0.5-2.2,1.2-3.1,1.9c-1.1,0.5-2.1,1.2-3.1,1.9c-0.9,0.7-1.8,1.5-2.5,2.4
		c-0.9,0.9-1.8,1.8-2.5,2.7c-0.8,0.9-1.5,1.9-2.2,3c-0.6,0.9-1.1,1.9-1.7,3c-0.5,1.3-1.1,2.4-1.7,3.5c-0.4,1.1-0.7,2.2-1.1,3.5
		c-0.2,1.1-0.4,2.2-0.5,3.5c-0.2,1.3-0.3,2.5-0.3,3.8c0,1.1,0,2.2,0,3.5c0.2,1.3,0.5,2.4,0.8,3.5c0.4,1.1,0.8,2.2,1.1,3.2
		c0.4,1.3,0.8,2.3,1.4,3.2c0.7,1.1,1.4,2.1,2,3c0.7,1.1,1.5,2.1,2.2,3c0.8,0.9,1.6,1.7,2.5,2.4c0.9,0.7,1.9,1.4,2.8,2.2
		c0.9,0.7,1.8,1.3,2.8,1.9c0.9,0.7,2,1.3,3.1,1.6c1.1,0.4,2.1,0.7,3.1,1.1c1.1,0.4,2.2,0.6,3.4,0.8c1.1,0.2,2.3,0.3,3.4,0.3
		c1.1,0,2.2-0.1,3.4-0.3c1.3-0.2,2.6-0.4,3.9-0.8c1.3-0.4,2.6-0.8,3.9-1.3c1.3-0.4,2.5-0.8,3.6-1.3c1.1-0.7,2.2-1.4,3.4-2.2
		c1.1-0.5,2.2-1.3,3.1-2.2c0.9-0.7,1.8-1.5,2.8-2.4c0.9-0.9,1.8-1.9,2.5-3c0.8-0.9,1.4-1.9,2-3s1.1-2.2,1.7-3.2
		c0.5-1.2,1-2.4,1.4-3.5c0.2-1.3,0.4-2.5,0.6-3.8c0.2-1.3,0.4-2.5,0.5-3.8c0-1.4-0.1-2.8-0.3-4s-0.4-2.4-0.5-3.5
		c-0.4-1.2-0.8-2.4-1.1-3.5c-0.5-1.1-1.1-2.2-1.7-3.2c-0.6-0.9-1.2-1.9-2-3c-0.8-0.9-1.6-1.7-2.5-2.4c-0.8-0.9-1.6-1.7-2.5-2.4
		c-1.1-0.9-2.1-1.6-3.1-2.2c-1.1-0.7-2.2-1.3-3.4-1.9c-1.1-0.5-2.3-1.1-3.7-1.6c-1.1-0.4-2.3-0.7-3.6-1.1
		C643.3,404.6,642,404.3,640.7,404.1z"/>
</g>
</svg>
