<?xml version="1.0" encoding="utf-8"?>
<!-- Generator: Adobe Illustrator 18.0.0, SVG Export Plug-In . SVG Version: 6.00 Build 0)  -->
<!DOCTYPE svg PUBLIC "-//W3C//DTD SVG 1.1//EN" "http://www.w3.org/Graphics/SVG/1.1/DTD/svg11.dtd">
<svg version="1.1" id="Camada_1" xmlns="http://www.w3.org/2000/svg" xmlns:xlink="http://www.w3.org/1999/xlink" x="0px" y="0px"
	 viewBox="0 0 1024 768" enable-background="new 0 0 1024 768" xml:space="preserve">
<g>
	<defs>
		<circle id="SVGID_1_" cx="511.9" cy="383.4" r="375.7"/>
	</defs>
	<clipPath id="SVGID_2_">
		<use xlink:href="#SVGID_1_"  overflow="visible"/>
	</clipPath>
	<g clip-path="url(#SVGID_2_)" enable-background="new    ">
		
			<image overflow="visible" width="2474" height="2474" xlink:href="../../banco de imagens/botões/butt 25.png"  transform="matrix(0.3065 0 0 0.3065 132.8006 4.7999)">
		</image>
	</g>
</g>
<g>
	<g>
		<path d="M723.3,449.2c0.1,1,0.2,1.9,0.2,2.8c0.1,1,0.2,1.9,0.2,2.8c0,1,0.1,1.9,0.2,2.8c0,1,0,1.9,0,2.8c0,0.9,0.1,1.8,0.2,2.8
			c0,0.9,0,1.7,0,2.6c0,1,0,1.9,0,2.8c0,0.9-0.1,1.7-0.2,2.6c0,0.9,0,1.7,0,2.6c0,0.9-0.1,1.8-0.2,2.8c0,0.9,0,1.7,0,2.6
			c-0.2,0.7-0.3,1.5-0.5,2.4c0,0.9-0.1,1.7-0.2,2.6c-0.2,0.9-0.2,1.7-0.2,2.6c-0.2,0.7-0.3,1.5-0.5,2.4c-0.2,0.9-0.3,1.7-0.5,2.4
			c-0.2,0.9-0.3,1.7-0.5,2.4c-0.3,0.9-0.5,1.7-0.7,2.4c-0.2,0.9-0.4,1.7-0.7,2.4c-0.2,0.7-0.4,1.5-0.7,2.4c-0.2,0.7-0.4,1.5-0.7,2.2
			c-0.3,0.7-0.6,1.5-0.9,2.2c-0.2,0.7-0.4,1.5-0.7,2.2c-0.3,0.7-0.7,1.5-1.1,2.2c-0.3,0.7-0.6,1.4-0.9,2c-0.3,0.7-0.7,1.5-1.1,2.2
			c-0.3,0.6-0.7,1.3-1.1,2c-0.3,0.6-0.7,1.3-1.1,2c-0.5,0.6-0.9,1.2-1.4,1.8c-0.3,0.7-0.7,1.4-1.1,2c-0.6,0.6-1.1,1.2-1.6,1.8
			c-0.5,0.6-0.9,1.2-1.4,1.8c-0.6,0.6-1.1,1.2-1.6,1.8c-0.6,0.5-1.1,1-1.6,1.7c-0.6,0.6-1.2,1.2-1.8,1.7c-0.6,0.6-1.2,1.2-1.8,1.7
			c-0.6,0.5-1.2,1-1.8,1.7c-0.6,0.5-1.3,1-2.1,1.5c-0.6,0.5-1.3,1-2.1,1.5c-0.6,0.5-1.3,1-2.1,1.5c-0.8,0.5-1.5,0.9-2.3,1.3
			c-0.8,0.5-1.5,0.9-2.3,1.3c-0.8,0.5-1.5,0.9-2.3,1.3c-0.9,0.5-1.8,0.9-2.5,1.3c-0.9,0.4-1.8,0.7-2.5,1.1c-0.9,0.4-1.8,0.7-2.8,1.1
			c-0.9,0.4-1.8,0.7-2.8,0.9c-0.9,0.4-1.8,0.7-2.8,1.1c-1.1,0.2-2.1,0.6-3,0.9c-1.1,0.2-2.1,0.5-3.2,0.7c-0.9,0.2-1.9,0.5-3,0.7
			c-1.1,0.2-2.1,0.5-3.2,0.7c-1.2,0.2-2.4,0.5-3.4,0.7c-1.1,0.1-2.2,0.3-3.4,0.5c-1.2,0.1-2.4,0.2-3.4,0.4c-1.2,0.2-2.5,0.4-3.7,0.6
			c-1.2,0.1-2.5,0.2-3.9,0.4c-1.2,0.1-2.4,0.2-3.7,0.2c-1.4,0.1-2.8,0.2-4.1,0.4c-1.4,0-2.7,0-3.9,0c-1.5,0.1-3,0.2-4.4,0.2
			c-1.4,0-2.8,0-4.1,0c-1.5,0-3.1-0.1-4.6-0.2c-0.9,0-1.9,0-3,0c-1.1-0.1-2.1-0.2-3.2-0.4c-1.1,0-2.1-0.1-3-0.2
			c-1.1-0.1-2.1-0.2-3-0.4c-1.1-0.1-2.1-0.2-3-0.4c-1.1-0.2-2.1-0.4-3-0.6c-1.1-0.2-2.1-0.4-3-0.5c-0.9-0.2-1.8-0.5-2.8-0.7
			c-1.1-0.2-2.1-0.5-3-0.7c-0.9-0.2-1.8-0.5-2.8-0.7c-0.9-0.4-1.8-0.7-2.8-0.9c-0.9-0.4-1.8-0.7-2.5-0.9c-0.9-0.4-1.8-0.7-2.8-1.1
			c-0.8-0.4-1.6-0.7-2.5-1.1c-0.9-0.4-1.8-0.7-2.5-1.1c-0.9-0.4-1.8-0.7-2.5-1.1c-0.8-0.5-1.6-0.9-2.5-1.3c-0.8-0.5-1.5-1-2.3-1.5
			c-0.8-0.4-1.5-0.8-2.3-1.3c-0.8-0.5-1.5-1-2.3-1.5c-0.8-0.5-1.5-1-2.3-1.5c-0.8-0.6-1.5-1.2-2.3-1.7c-0.6-0.5-1.3-1-2.1-1.7
			c-0.8-0.5-1.5-1-2.1-1.7c-0.8-0.6-1.5-1.2-2.1-1.8c-0.6-0.5-1.3-1-2.1-1.7c-0.6-0.6-1.2-1.3-1.8-2c-0.6-0.6-1.2-1.2-1.8-1.8
			c-0.6-0.6-1.2-1.3-1.8-2c-0.6-0.6-1.2-1.2-1.8-1.8c-0.6-0.7-1.1-1.5-1.6-2.2c-0.6-0.6-1.1-1.3-1.6-2c-0.6-0.7-1.1-1.5-1.6-2.2
			c-0.6-0.7-1.1-1.5-1.6-2.2c-0.5-0.7-1-1.5-1.6-2.2c-0.5-0.7-0.9-1.5-1.4-2.2c-0.5-0.9-0.9-1.7-1.4-2.4c-0.5-0.7-0.9-1.5-1.4-2.4
			c-0.3-0.7-0.7-1.5-1.1-2.4c-0.5-0.9-0.8-1.7-1.1-2.4c-0.5-0.9-0.8-1.7-1.1-2.6c-0.3-0.9-0.7-1.7-1.1-2.6c-0.3-0.7-0.6-1.5-0.9-2.4
			c-0.3-1-0.6-1.9-0.9-2.8c-0.3-0.9-0.6-1.7-0.9-2.6c-0.3-0.9-0.6-1.7-0.9-2.6c-0.2-1-0.4-1.9-0.7-2.8c-0.2-0.9-0.4-1.8-0.7-2.8
			c-0.2-0.9-0.4-1.8-0.7-2.8c-0.2-0.9-0.3-1.8-0.5-2.8c-0.2-1-0.3-1.9-0.5-2.8c-0.2-1-0.3-2-0.5-2.9c-0.2-0.9-0.3-1.8-0.5-2.8
			c0-1-0.1-2-0.2-2.9c0-1-0.1-2-0.2-2.9c0-1-0.1-2-0.2-2.9c0-1,0-2,0-2.9s0-2,0-2.9c0-1,0-2,0-2.9c0-1,0.1-1.9,0.2-2.8
			c0-1,0.1-1.9,0.2-2.8c0-0.9,0.1-1.8,0.2-2.8c0-0.9,0.1-1.8,0.2-2.8c0.2-0.9,0.3-1.7,0.5-2.6c0.1-1,0.3-1.9,0.5-2.8
			c0.1-1,0.4-1.9,0.7-2.8c0.2-0.9,0.4-1.8,0.7-2.8c0.2-0.9,0.4-1.7,0.7-2.6c0.1-1,0.4-1.9,0.7-2.8c0.3-0.9,0.6-1.8,0.9-2.8
			c0.3-0.9,0.6-1.7,0.9-2.6c0.3-0.9,0.6-1.7,0.9-2.6c0.3-1,0.6-1.9,0.9-2.8c0.5-0.9,0.8-1.7,1.1-2.6c0.5-0.9,0.8-1.7,1.1-2.6
			c0.5-0.9,0.9-1.7,1.4-2.6c0.3-0.9,0.7-1.7,1.1-2.6c0.5-0.7,0.9-1.5,1.4-2.4c0.5-0.9,0.9-1.7,1.4-2.6c0.5-0.7,1-1.5,1.6-2.4
			c0.5-0.9,0.9-1.7,1.4-2.4c0.6-0.9,1.1-1.7,1.6-2.4c0.6-0.7,1.1-1.5,1.6-2.4c0.6-0.7,1.2-1.5,1.8-2.2c0.5-0.7,1-1.5,1.6-2.2
			c0.6-0.7,1.2-1.5,1.8-2.2c0.6-0.7,1.2-1.5,1.8-2.2c0.6-0.7,1.2-1.5,1.8-2.2c0.6-0.6,1.2-1.3,1.8-2c0.8-0.6,1.5-1.3,2.1-2
			c0.6-0.6,1.3-1.3,2.1-2c0.6-0.6,1.3-1.2,2.1-1.8c0.6-0.6,1.3-1.2,2.1-1.8c0.6-0.6,1.3-1.2,2.1-1.8c0.8-0.5,1.5-1,2.1-1.7
			c0.8-0.6,1.5-1.2,2.3-1.7c0.8-0.6,1.5-1.2,2.3-1.7c0.8-0.5,1.5-1,2.3-1.5c0.8-0.5,1.5-1,2.3-1.5c0.8-0.5,1.5-1,2.3-1.5
			c0.8-0.5,1.5-0.9,2.3-1.3c0.9-0.5,1.8-0.9,2.5-1.3c0.8-0.4,1.6-0.7,2.5-1.1c0.8-0.4,1.5-0.7,2.3-1.1c0.9-0.4,1.8-0.7,2.5-1.1
			c0.9-0.4,1.8-0.7,2.5-0.9c0.9-0.2,1.8-0.6,2.5-0.9c0.9-0.2,1.8-0.5,2.8-0.7c0.8-0.2,1.6-0.5,2.5-0.7c0.9-0.1,1.8-0.3,2.5-0.5
			c0.9-0.1,1.8-0.3,2.8-0.6c0.9-0.1,1.8-0.2,2.5-0.4c0.9-0.1,1.8-0.2,2.8-0.2c0.9-0.1,1.8-0.2,2.8-0.4c0.9,0,1.8,0,2.8,0
			c0.9,0,1.8,0,2.8,0c0.9,0,1.8,0,2.8,0c0.9,0,1.8,0.1,2.8,0.2c0.9,0,1.8,0.1,2.8,0.2c0.9,0.1,1.8,0.2,2.8,0.4
			c0.9,0.1,1.8,0.2,2.8,0.4c0.9,0.1,1.8,0.2,2.8,0.4c0.9,0.2,1.8,0.4,2.5,0.5c0.9,0.2,1.8,0.5,2.8,0.7c0.9,0.1,1.8,0.3,2.8,0.5
			c0.8,0.2,1.6,0.5,2.5,0.7c0.9,0.4,1.8,0.7,2.5,0.9c0.9,0.2,1.8,0.6,2.5,0.9c0.9,0.2,1.8,0.5,2.8,0.9c0.8,0.4,1.5,0.7,2.3,1.1
			c0.9,0.4,1.8,0.7,2.5,1.1c0.9,0.4,1.8,0.7,2.5,1.1c0.8,0.4,1.6,0.7,2.5,1.1c0.8,0.5,1.5,0.9,2.3,1.3c0.8,0.5,1.5,1,2.3,1.5
			c0.8,0.4,1.5,0.8,2.3,1.3c0.8,0.5,1.5,1,2.3,1.5c0.8,0.5,1.5,1,2.3,1.7c0.8,0.5,1.5,1,2.3,1.5c0.8,0.6,1.5,1.2,2.3,1.7
			c0.6,0.6,1.3,1.2,2.1,1.7c0.8,0.6,1.5,1.2,2.1,1.8c0.8,0.5,1.5,1,2.1,1.7c0.8,0.6,1.5,1.2,2.1,1.8c0.6,0.6,1.3,1.3,2.1,2
			c0.6,0.6,1.2,1.2,1.8,1.8c0.8,0.7,1.5,1.4,2.1,2c0.6,0.6,1.2,1.3,1.8,2c0.6,0.7,1.2,1.4,1.8,2c0.6,0.7,1.2,1.5,1.8,2.2
			c0.6,0.7,1.1,1.5,1.6,2.2c0.6,0.7,1.2,1.5,1.8,2.2c0.5,0.7,1,1.5,1.6,2.2c0.5,0.7,1,1.5,1.6,2.2c0.5,0.9,1,1.7,1.6,2.4
			c0.5,0.7,0.9,1.5,1.4,2.4c0.5,0.7,1,1.5,1.6,2.4c0.5,0.9,0.9,1.7,1.4,2.4c0.5,0.9,0.9,1.7,1.4,2.6c0.5,0.7,0.8,1.5,1.1,2.4
			c0.5,0.9,0.9,1.7,1.4,2.6c0.3,0.9,0.7,1.7,1.1,2.6c0.5,0.9,0.8,1.7,1.1,2.6c0.3,0.9,0.7,1.7,1.1,2.6c0.3,1,0.6,1.9,0.9,2.8
			c0.3,0.9,0.7,1.7,1.1,2.6c0.3,1,0.6,1.9,0.9,2.8c0.3,0.9,0.5,1.8,0.7,2.8c0.3,0.9,0.6,1.8,0.9,2.8c0.3,0.9,0.5,1.8,0.7,2.8
			c0.3,0.9,0.5,1.8,0.7,2.8c0.2,1,0.4,1.9,0.7,2.8c0.1,1,0.3,2,0.5,2.9c0.1,0.9,0.3,1.8,0.5,2.8c0.2,1,0.3,2,0.5,2.9
			c0.2,1,0.3,1.9,0.5,2.8C723.3,447.2,723.3,448.2,723.3,449.2z"/>
		<path fill="#FFFFFF" d="M707.6,451.1c0.1,0.8,0.2,1.6,0.2,2.3c0.1,0.8,0.2,1.6,0.2,2.3c0,0.8,0.1,1.6,0.2,2.3c0,0.8,0,1.6,0,2.3
			c0,0.7,0.1,1.5,0.2,2.3c0,0.7,0,1.4,0,2.1c0,0.8,0,1.6,0,2.3c0,0.7-0.1,1.4-0.2,2.1c0,0.7,0,1.4,0,2.1c0,0.7-0.1,1.5-0.2,2.3
			c0,0.7,0,1.4,0,2.1c-0.1,0.6-0.3,1.3-0.4,2c0,0.7-0.1,1.4-0.2,2.1c-0.1,0.7-0.2,1.4-0.2,2.1c-0.1,0.6-0.3,1.3-0.4,2
			c-0.1,0.7-0.3,1.4-0.4,2c-0.1,0.7-0.3,1.4-0.4,2c-0.3,0.7-0.4,1.4-0.6,2c-0.1,0.7-0.3,1.4-0.6,2c-0.1,0.6-0.3,1.3-0.6,2
			c-0.1,0.6-0.3,1.2-0.6,1.8c-0.3,0.6-0.5,1.2-0.8,1.8c-0.1,0.6-0.3,1.2-0.6,1.8c-0.3,0.6-0.6,1.2-0.9,1.8c-0.3,0.6-0.5,1.2-0.8,1.7
			c-0.3,0.6-0.6,1.2-0.9,1.8c-0.3,0.5-0.6,1.1-0.9,1.7c-0.3,0.5-0.6,1.1-0.9,1.7c-0.4,0.5-0.8,1-1.1,1.5c-0.3,0.6-0.6,1.2-0.9,1.7
			c-0.5,0.5-0.9,1-1.3,1.5c-0.4,0.5-0.8,1-1.1,1.5c-0.5,0.5-0.9,1-1.3,1.5c-0.5,0.4-0.9,0.9-1.3,1.4c-0.5,0.5-1,1-1.5,1.4
			c-0.5,0.5-1,1-1.5,1.4c-0.5,0.4-1,0.9-1.5,1.4c-0.5,0.4-1.1,0.8-1.7,1.2c-0.5,0.4-1.1,0.8-1.7,1.2c-0.5,0.4-1.1,0.8-1.7,1.2
			c-0.6,0.4-1.3,0.8-1.9,1.1c-0.6,0.4-1.3,0.8-1.9,1.1c-0.6,0.4-1.3,0.8-1.9,1.1c-0.8,0.4-1.5,0.8-2.1,1.1c-0.8,0.3-1.5,0.6-2.1,0.9
			c-0.8,0.3-1.5,0.6-2.3,0.9c-0.8,0.3-1.5,0.6-2.3,0.8c-0.8,0.3-1.5,0.6-2.3,0.9c-0.9,0.2-1.7,0.5-2.5,0.8c-0.9,0.2-1.8,0.4-2.6,0.6
			c-0.8,0.2-1.6,0.4-2.5,0.6c-0.9,0.2-1.8,0.4-2.7,0.6c-1,0.2-2,0.4-2.8,0.6c-0.9,0.1-1.8,0.3-2.8,0.5c-1,0.1-2,0.2-2.8,0.3
			c-1,0.2-2,0.4-3,0.5c-1,0.1-2.1,0.2-3.2,0.3c-1,0.1-2,0.2-3,0.2c-1.1,0.1-2.3,0.2-3.4,0.3c-1.1,0-2.2,0-3.2,0
			c-1.3,0.1-2.5,0.2-3.6,0.2c-1.1,0-2.3,0-3.4,0c-1.3,0-2.5,0-3.8-0.2c-0.8,0-1.6,0-2.5,0c-0.9-0.1-1.8-0.2-2.7-0.3
			c-0.9,0-1.7,0-2.5-0.2c-0.9-0.1-1.7-0.2-2.5-0.3c-0.9-0.1-1.7-0.2-2.5-0.3c-0.9-0.2-1.7-0.4-2.5-0.5c-0.9-0.2-1.7-0.4-2.5-0.5
			c-0.8-0.2-1.5-0.4-2.3-0.6c-0.9-0.2-1.7-0.4-2.5-0.6c-0.8-0.2-1.5-0.4-2.3-0.6c-0.8-0.3-1.5-0.6-2.3-0.8c-0.8-0.3-1.5-0.6-2.1-0.8
			c-0.8-0.3-1.5-0.6-2.3-0.9c-0.6-0.3-1.3-0.6-2.1-0.9c-0.8-0.3-1.5-0.6-2.1-0.9c-0.8-0.3-1.5-0.6-2.1-0.9c-0.6-0.4-1.3-0.8-2.1-1.1
			c-0.6-0.4-1.3-0.8-1.9-1.2c-0.6-0.3-1.3-0.7-1.9-1.1c-0.6-0.4-1.3-0.8-1.9-1.2c-0.6-0.4-1.3-0.8-1.9-1.2c-0.6-0.5-1.3-1-1.9-1.4
			c-0.5-0.4-1.1-0.9-1.7-1.4c-0.6-0.4-1.2-0.9-1.7-1.4c-0.6-0.5-1.2-1-1.7-1.5c-0.5-0.4-1.1-0.9-1.7-1.4c-0.5-0.5-1-1.1-1.5-1.7
			c-0.5-0.5-1-1-1.5-1.5c-0.5-0.5-1-1.1-1.5-1.7c-0.5-0.5-1-1-1.5-1.5c-0.5-0.6-0.9-1.2-1.3-1.8c-0.5-0.5-0.9-1.1-1.3-1.7
			c-0.5-0.6-0.9-1.2-1.3-1.8c-0.5-0.6-0.9-1.2-1.3-1.8c-0.4-0.6-0.8-1.2-1.3-1.8c-0.4-0.6-0.8-1.2-1.1-1.8c-0.4-0.7-0.8-1.4-1.1-2
			c-0.4-0.6-0.8-1.3-1.1-2c-0.3-0.6-0.6-1.3-0.9-2c-0.4-0.7-0.7-1.4-0.9-2c-0.4-0.7-0.7-1.4-0.9-2.1c-0.3-0.7-0.6-1.4-0.9-2.1
			c-0.3-0.6-0.5-1.3-0.8-2c-0.3-0.8-0.5-1.6-0.8-2.3c-0.3-0.7-0.5-1.4-0.8-2.1c-0.3-0.7-0.5-1.4-0.8-2.1c-0.1-0.8-0.3-1.6-0.6-2.3
			c-0.1-0.7-0.3-1.5-0.6-2.3c-0.1-0.7-0.3-1.5-0.6-2.3c-0.1-0.7-0.3-1.5-0.4-2.3c-0.1-0.8-0.3-1.6-0.4-2.3c-0.1-0.8-0.3-1.6-0.4-2.4
			c-0.1-0.7-0.3-1.5-0.4-2.3c0-0.8-0.1-1.6-0.2-2.4c0-0.8-0.1-1.6-0.2-2.4c0-0.8-0.1-1.6-0.2-2.4c0-0.8,0-1.6,0-2.4s0-1.6,0-2.4
			c0-0.8,0-1.6,0-2.4c0-0.8,0.1-1.6,0.2-2.3c0-0.8,0.1-1.6,0.2-2.3c0-0.7,0.1-1.5,0.2-2.3c0-0.7,0.1-1.5,0.2-2.3
			c0.1-0.7,0.3-1.4,0.4-2.1c0.1-0.8,0.3-1.6,0.4-2.3c0.1-0.8,0.3-1.6,0.6-2.3c0.1-0.7,0.3-1.5,0.6-2.3c0.1-0.7,0.3-1.4,0.6-2.1
			c0.1-0.8,0.3-1.6,0.6-2.3c0.3-0.7,0.5-1.5,0.8-2.3c0.3-0.7,0.5-1.4,0.8-2.1c0.3-0.7,0.5-1.4,0.8-2.1c0.3-0.8,0.5-1.6,0.8-2.3
			c0.4-0.7,0.7-1.4,0.9-2.1c0.4-0.7,0.7-1.4,0.9-2.1c0.4-0.7,0.8-1.4,1.1-2.1c0.3-0.7,0.6-1.4,0.9-2.1c0.4-0.6,0.8-1.3,1.1-2
			c0.4-0.7,0.8-1.4,1.1-2.1c0.4-0.6,0.8-1.3,1.3-2c0.4-0.7,0.8-1.4,1.1-2c0.5-0.7,0.9-1.4,1.3-2c0.5-0.6,0.9-1.3,1.3-2
			c0.5-0.6,1-1.2,1.5-1.8c0.4-0.6,0.8-1.2,1.3-1.8c0.5-0.6,1-1.2,1.5-1.8c0.5-0.6,1-1.2,1.5-1.8c0.5-0.6,1-1.2,1.5-1.8
			c0.5-0.5,1-1.1,1.5-1.7c0.6-0.5,1.2-1.1,1.7-1.7c0.5-0.5,1.1-1.1,1.7-1.7c0.5-0.5,1.1-1,1.7-1.5c0.5-0.5,1.1-1,1.7-1.5
			c0.5-0.5,1.1-1,1.7-1.5c0.6-0.4,1.2-0.9,1.7-1.4c0.6-0.5,1.3-1,1.9-1.4c0.6-0.5,1.3-1,1.9-1.4c0.6-0.4,1.3-0.8,1.9-1.2
			c0.6-0.4,1.3-0.8,1.9-1.2c0.6-0.4,1.3-0.8,1.9-1.2c0.6-0.4,1.3-0.8,1.9-1.1c0.8-0.4,1.5-0.8,2.1-1.1c0.6-0.3,1.3-0.6,2.1-0.9
			c0.6-0.3,1.3-0.6,1.9-0.9c0.8-0.3,1.4-0.6,2.1-0.9c0.8-0.3,1.5-0.6,2.1-0.8c0.8-0.2,1.5-0.5,2.1-0.8c0.8-0.2,1.5-0.4,2.3-0.6
			c0.6-0.2,1.3-0.4,2.1-0.6c0.8-0.1,1.5-0.2,2.1-0.5c0.8-0.1,1.5-0.3,2.3-0.5c0.8-0.1,1.5-0.2,2.1-0.3c0.8-0.1,1.5-0.2,2.3-0.2
			c0.8-0.1,1.5-0.2,2.3-0.3c0.8,0,1.5,0,2.3,0c0.8,0,1.5,0,2.3,0c0.8,0,1.5,0,2.3,0c0.8,0,1.5,0.1,2.3,0.2c0.8,0,1.5,0.1,2.3,0.2
			c0.8,0.1,1.5,0.2,2.3,0.3c0.8,0.1,1.5,0.2,2.3,0.3c0.8,0.1,1.5,0.2,2.3,0.3c0.8,0.2,1.4,0.4,2.1,0.5c0.8,0.2,1.5,0.4,2.3,0.6
			c0.8,0.1,1.5,0.3,2.3,0.5c0.6,0.2,1.3,0.4,2.1,0.6c0.8,0.3,1.5,0.6,2.1,0.8c0.8,0.2,1.5,0.5,2.1,0.8c0.8,0.2,1.5,0.5,2.3,0.8
			c0.6,0.3,1.3,0.6,1.9,0.9c0.8,0.3,1.5,0.6,2.1,0.9c0.8,0.3,1.4,0.6,2.1,0.9c0.6,0.3,1.3,0.6,2.1,0.9c0.6,0.4,1.3,0.8,1.9,1.1
			c0.6,0.4,1.3,0.8,1.9,1.2c0.6,0.3,1.3,0.7,1.9,1.1c0.6,0.4,1.3,0.8,1.9,1.2c0.6,0.4,1.3,0.9,1.9,1.4c0.6,0.4,1.3,0.8,1.9,1.2
			c0.6,0.5,1.3,1,1.9,1.4c0.5,0.5,1.1,1,1.7,1.4c0.6,0.5,1.2,1,1.7,1.5c0.6,0.4,1.2,0.9,1.7,1.4c0.6,0.5,1.2,1,1.7,1.5
			c0.5,0.5,1.1,1.1,1.7,1.7c0.5,0.5,1,1,1.5,1.5c0.6,0.6,1.2,1.2,1.7,1.7c0.5,0.5,1,1.1,1.5,1.7c0.5,0.6,1,1.2,1.5,1.7
			c0.5,0.6,1,1.2,1.5,1.8c0.5,0.6,0.9,1.2,1.3,1.8c0.5,0.6,1,1.2,1.5,1.8c0.4,0.6,0.8,1.2,1.3,1.8c0.4,0.6,0.8,1.2,1.3,1.8
			c0.4,0.7,0.8,1.4,1.3,2c0.4,0.6,0.8,1.3,1.1,2c0.4,0.6,0.8,1.3,1.3,2c0.4,0.7,0.8,1.4,1.1,2c0.4,0.7,0.8,1.4,1.1,2.1
			c0.4,0.6,0.7,1.3,0.9,2c0.4,0.7,0.8,1.4,1.1,2.1c0.3,0.7,0.6,1.4,0.9,2.1c0.4,0.7,0.7,1.4,0.9,2.1c0.3,0.7,0.6,1.4,0.9,2.1
			c0.3,0.8,0.5,1.6,0.8,2.3c0.3,0.7,0.6,1.4,0.9,2.1c0.3,0.8,0.5,1.6,0.8,2.3c0.3,0.7,0.4,1.5,0.6,2.3c0.3,0.7,0.5,1.5,0.8,2.3
			c0.3,0.7,0.4,1.5,0.6,2.3c0.3,0.7,0.4,1.5,0.6,2.3c0.1,0.8,0.3,1.6,0.6,2.3c0.1,0.8,0.3,1.6,0.4,2.4c0.1,0.7,0.3,1.5,0.4,2.3
			c0.1,0.8,0.3,1.6,0.4,2.4c0.1,0.8,0.3,1.6,0.4,2.3C707.5,449.5,707.6,450.3,707.6,451.1z M658.8,443.7c-0.1-0.9-0.3-1.8-0.4-2.7
			c-0.1-0.9-0.3-1.8-0.6-2.6c-0.1-0.9-0.3-1.8-0.6-2.6c-0.3-0.8-0.5-1.6-0.8-2.4c-0.3-0.8-0.5-1.6-0.8-2.4c-0.3-0.8-0.5-1.6-0.8-2.4
			c-0.4-0.7-0.7-1.5-0.9-2.3c-0.4-0.7-0.8-1.4-1.1-2.1c-0.4-0.7-0.8-1.4-1.1-2.1c-0.4-0.7-0.8-1.4-1.1-2.1c-0.4-0.6-0.8-1.2-1.3-1.8
			c-0.4-0.7-0.8-1.4-1.3-2c-0.4-0.6-0.8-1.2-1.3-1.7c-0.5-0.6-1-1.2-1.5-1.8c-0.5-0.5-1-1-1.5-1.5c-0.5-0.5-1.1-1-1.7-1.5
			c-0.5-0.4-1.1-0.9-1.7-1.4c-0.5-0.4-1.1-0.8-1.7-1.2c-0.6-0.4-1.3-0.8-1.9-1.2c-0.5-0.3-1.1-0.7-1.9-1.1c-0.6-0.3-1.3-0.6-1.9-0.9
			c-0.6-0.3-1.3-0.6-2.1-0.8c-0.6-0.2-1.3-0.4-2.1-0.6c-0.6-0.2-1.3-0.4-2.1-0.6c-0.8-0.2-1.5-0.4-2.3-0.5c-0.8-0.1-1.5-0.2-2.3-0.3
			c-0.8,0-1.5,0-2.3-0.1c-0.8,0-1.5,0-2.3,0c-0.6,0.1-1.3,0.1-2.1,0.1c-0.6,0.1-1.3,0.3-1.9,0.5c-0.8,0.1-1.5,0.3-2.1,0.5
			c-0.6,0.2-1.3,0.4-1.9,0.6c-0.6,0.3-1.3,0.6-1.9,0.8c-0.6,0.3-1.2,0.7-1.7,1.1c-0.6,0.3-1.2,0.7-1.7,1.1c-0.6,0.3-1.2,0.7-1.7,1.1
			c-0.6,0.5-1.2,1-1.7,1.4c-0.5,0.5-1,1-1.5,1.4c-0.5,0.5-0.9,1.1-1.3,1.7c-0.5,0.5-1,1.1-1.5,1.7c-0.4,0.5-0.8,1.1-1.3,1.7
			c-0.4,0.6-0.8,1.2-1.1,1.8c-0.4,0.7-0.8,1.4-1.1,2c-0.4,0.7-0.8,1.4-1.1,2c-0.3,0.7-0.6,1.4-0.9,2.1c-0.3,0.7-0.6,1.5-0.9,2.3
			c-0.3,0.7-0.5,1.5-0.8,2.3c-0.3,0.7-0.5,1.5-0.8,2.3c-0.3,0.8-0.4,1.6-0.6,2.3c-0.3,0.8-0.4,1.6-0.6,2.4c-0.1,0.8-0.3,1.7-0.6,2.6
			c-0.1,0.8-0.2,1.6-0.2,2.4c-0.1,0.9-0.3,1.8-0.4,2.6c0,0.8-0.1,1.7-0.2,2.6c0,0.8,0,1.7,0,2.6c0,0.8,0,1.6,0,2.4
			c0,0.9,0.1,1.8,0.2,2.6c0,0.8,0.1,1.6,0.2,2.4c0.1,0.7,0.3,1.5,0.4,2.3c0.1,0.8,0.3,1.6,0.6,2.4c0.1,0.7,0.3,1.4,0.6,2.1
			c0.1,0.8,0.3,1.6,0.6,2.3c0.3,0.7,0.6,1.4,0.9,2.1c0.3,0.7,0.5,1.4,0.8,2.1c0.4,0.7,0.8,1.4,1.1,2c0.3,0.7,0.6,1.4,0.9,2
			c0.4,0.6,0.8,1.2,1.3,1.8c0.4,0.6,0.8,1.2,1.3,1.8c0.4,0.6,0.8,1.2,1.3,1.7c0.5,0.6,1,1.2,1.5,1.7c0.5,0.5,1,1,1.5,1.5
			c0.6,0.5,1.2,1,1.7,1.4c0.6,0.5,1.2,1,1.7,1.4c0.6,0.4,1.3,0.8,1.9,1.2c0.6,0.4,1.3,0.8,1.9,1.1c0.8,0.3,1.5,0.7,2.1,1.1
			c0.8,0.3,1.5,0.6,2.1,0.8c0.8,0.3,1.5,0.6,2.3,0.8c0.8,0.3,1.5,0.5,2.3,0.6c0.8,0.2,1.5,0.4,2.3,0.6c0.9,0.1,1.7,0.2,2.5,0.3
			c0.9,0.1,1.8,0.2,2.6,0.3c0.8,0,1.6,0,2.5,0c0.9,0,1.7,0,2.5,0c0.9,0,1.7,0,2.5-0.2c0.8-0.1,1.5-0.2,2.3-0.5
			c0.8-0.1,1.5-0.2,2.3-0.5c0.8-0.2,1.5-0.4,2.3-0.6c0.6-0.2,1.3-0.5,2.1-0.8c0.6-0.3,1.3-0.6,1.9-0.9c0.6-0.3,1.3-0.6,1.9-0.9
			c0.6-0.4,1.2-0.8,1.7-1.2c0.6-0.4,1.2-0.8,1.7-1.2c0.6-0.4,1.2-0.9,1.7-1.4c0.5-0.5,1-1,1.5-1.4c0.5-0.5,0.9-1.1,1.3-1.7
			c0.5-0.5,0.9-1.1,1.3-1.7c0.4-0.5,0.8-1.1,1.3-1.7c0.4-0.6,0.7-1.2,0.9-1.8c0.4-0.6,0.8-1.2,1.1-1.8c0.3-0.7,0.5-1.4,0.8-2
			c0.4-0.7,0.7-1.4,0.9-2.1c0.3-0.7,0.4-1.4,0.6-2.1c0.3-0.7,0.4-1.4,0.6-2.1c0.3-0.7,0.4-1.5,0.6-2.3c0.1-0.7,0.3-1.5,0.4-2.3
			c0.1-0.8,0.2-1.6,0.2-2.3c0.1-0.8,0.2-1.6,0.2-2.4s0-1.6,0-2.4c0-0.8,0-1.6,0-2.4c0-0.8-0.1-1.6-0.2-2.4
			C659,445.3,658.9,444.5,658.8,443.7z"/>
	</g>
	<g>
		<path d="M528.6,273.2c0.2,0.6,0.2,1.3,0,2.2c0,0.8,11.1,36.9-18.8,53.4c-24.2,11.4-51.6,12.5-57.3,2.8
			c-5.7-9.7-10.8-34.4-23.6-34.3s-25.6,4.2-26.1,53.4s15.8,77.3,30.4,77.3c12.7,0.2,9-2.3,19.1-9.5c10.1-7.2,30.4-4.8,49,3.3
			s36.6,25.5,32,48.6c-0.4,1-0.9,2.2-1.5,3.4c-0.4,1-0.8,2.2-1.2,3.4c-0.6,1-1.1,2.2-1.5,3.4c-0.6,1-1.1,2.1-1.5,3.1
			c-0.6,1.2-1.1,2.4-1.5,3.4c-0.6,1-1.2,2.1-1.9,3.1c-0.6,1-1.1,2.1-1.5,3.1c-0.6,0.8-1.2,1.7-1.8,2.8c-0.6,1-1.2,2.1-1.8,3.1
			c-0.6,0.8-1.2,1.7-1.9,2.8c-0.6,0.8-1.2,1.7-1.8,2.8c-0.6,0.8-1.2,1.6-1.8,2.5c-0.6,1-1.3,2-2.2,2.8c-0.6,0.8-1.2,1.6-1.9,2.5
			c-0.6,0.8-1.3,1.6-2.2,2.5c-0.6,0.8-1.2,1.5-1.8,2.2c-0.8,0.8-1.5,1.6-2.2,2.5c-0.8,0.6-1.5,1.3-2.2,2.2c-0.8,0.8-1.5,1.5-2.2,2.2
			c-0.8,0.6-1.6,1.3-2.5,2.2c-0.6,0.6-1.3,1.2-2.2,1.8c-0.8,0.6-1.6,1.2-2.5,1.8c-0.6,0.6-1.3,1.2-2.2,1.9c-0.8,0.6-1.6,1.2-2.5,1.8
			c-0.8,0.6-1.5,1.2-2.2,1.8c-0.8,0.4-1.6,0.9-2.5,1.5c-0.8,0.4-1.6,0.9-2.5,1.5c-0.8,0.4-1.6,0.9-2.5,1.5c-0.8,0.4-1.6,0.8-2.5,1.2
			c-0.8,0.4-1.6,0.8-2.5,1.2c-1,0.6-2,1.1-2.8,1.5c-0.8,0.4-1.6,0.7-2.5,0.9c-0.8,0.4-1.6,0.8-2.5,1.2c-1,0.4-2,0.7-2.8,0.9
			c-0.8,0.4-1.6,0.7-2.5,0.9c-1,0.4-2,0.7-2.8,0.9c-0.8,0.4-1.6,0.7-2.5,0.9c-1,0.2-2,0.4-2.8,0.6c-0.8,0.2-1.7,0.4-2.8,0.6
			c-0.8,0.2-1.6,0.4-2.5,0.6c-1,0.2-2,0.4-2.8,0.6c-1,0.2-2,0.4-2.8,0.6c-0.8,0-1.7,0.1-2.8,0.3c-0.8,0-1.7,0.1-2.8,0.3
			c-0.8,0-1.7,0-2.8,0c-0.8,0.2-1.6,0.3-2.5,0.3c-1,0-2,0-2.8,0c-1,0-2,0-2.8,0c-1,0-2,0-2.8,0c-1,0-2,0-2.8,0c-1-0.2-2-0.3-2.8-0.3
			c-1-0.2-2-0.3-2.8-0.3c-1-0.2-2-0.3-2.8-0.3c-1-0.2-2-0.4-2.8-0.6c-0.8,0-1.7-0.1-2.8-0.3c-0.8-0.2-1.7-0.4-2.8-0.6
			c-0.8-0.2-1.7-0.4-2.8-0.6c-0.8-0.2-1.7-0.5-2.8-0.9c-0.8-0.2-1.6-0.4-2.5-0.6c-1-0.2-2-0.5-2.8-0.9c-1-0.2-2-0.5-2.8-0.9
			c-0.8-0.4-1.7-0.7-2.8-0.9c-0.8-0.4-1.6-0.8-2.5-1.2c-1-0.4-2-0.7-2.8-0.9c-0.8-0.4-1.7-0.8-2.8-1.2c-0.8-0.4-1.6-0.9-2.5-1.5
			c-1-0.4-2-0.8-2.8-1.2c-0.8-0.4-1.6-0.9-2.5-1.5c-0.8-0.4-1.7-0.9-2.8-1.5c-0.8-0.4-1.6-0.9-2.5-1.5c-0.8-0.4-1.6-0.9-2.5-1.5
			c-0.8-0.6-1.6-1.2-2.5-1.8c-0.8-0.6-1.7-1.2-2.8-1.8c-0.8-0.6-1.6-1.2-2.5-1.9c-0.8-0.6-1.5-1.2-2.2-1.8c-0.8-0.6-1.6-1.2-2.5-1.8
			c-0.8-0.8-1.6-1.5-2.5-2.2c-0.8-0.8-1.6-1.5-2.5-2.2c-0.8-0.8-1.5-1.5-2.2-2.2c-0.8-0.8-1.6-1.6-2.5-2.5c-0.8-0.8-1.5-1.6-2.2-2.5
			c-0.8-0.6-1.6-1.3-2.5-2.2c-0.6-0.8-1.3-1.7-2.2-2.8c-0.6-0.8-1.3-1.6-2.2-2.5c-0.6-0.8-1.3-1.7-2.2-2.8c-0.6-0.8-1.3-1.6-2.2-2.5
			c-0.6-1-1.2-1.9-1.8-2.8c-0.8-1-1.5-2.1-2.2-3.1c-0.6-0.8-1.2-1.7-1.8-2.8c-0.6-1-1.2-2-1.8-3.1c-0.8-1-1.5-2.1-2.2-3.1
			c-0.6-1-1.2-2-1.8-3.1c-0.6-1-1.2-2.2-1.8-3.4c-0.4-1-0.9-2-1.5-3.1c-0.6-1.2-1.2-2.4-1.9-3.4c-0.6-1.2-1.1-2.4-1.5-3.4
			c-0.6-1.2-1.2-2.5-1.8-3.7c-0.4-1-0.9-2.2-1.5-3.4c-0.4-1.2-0.9-2.5-1.5-3.7c-0.4-1.2-0.8-2.5-1.2-3.7c-0.6-1.2-1.1-2.5-1.5-3.7
			c-0.4-1.2-0.8-2.6-1.2-4c-0.4-1.2-0.8-2.5-1.2-3.7c-0.6-1.4-1.1-2.8-1.5-4c-0.4-1.4-0.7-2.8-0.9-4c-0.4-1.4-0.8-2.9-1.2-4.3
			c-0.4-1.4-0.8-2.8-1.2-4c-0.2-1.4-0.5-2.9-0.9-4.3c-0.2-1.4-0.5-2.9-0.9-4.3c-0.2-1.4-0.5-3-0.9-4.6c-0.2-1.4-0.4-2.9-0.6-4.3
			c-0.4-1.6-0.7-3.2-0.9-4.6c-0.2-1.4-0.4-3-0.6-4.6c-0.2-1.4-0.4-3-0.6-4.6c-0.2-1.6-0.4-3.2-0.6-4.6c-0.2-1.6-0.3-3.3-0.3-4.9
			c-0.2-1.6-0.4-3.3-0.6-4.9c0-1.6-0.1-3.3-0.3-4.9c0-1.6-0.1-3.3-0.3-4.9c0-1.8,0-3.6,0-5.2c-0.2-1.6-0.3-3.4-0.3-5.2
			c0-1.6,0-3.4,0-5.2c0-1.4,0-3,0-4.6c0.2-1.4,0.3-2.9,0.3-4.3c0-1.6,0.1-3.2,0.3-4.6c0-1.4,0.1-2.9,0.3-4.3c0-1.6,0.1-3.2,0.3-4.6
			c0.2-1.4,0.4-2.9,0.6-4.3c0.2-1.4,0.4-2.8,0.6-4c0.2-1.4,0.4-2.9,0.6-4.3c0.2-1.4,0.4-2.8,0.6-4c0.4-1.4,0.7-2.9,0.9-4.3
			c0.4-1.2,0.7-2.6,0.9-4c0.4-1.2,0.7-2.5,0.9-3.7c0.4-1.4,0.8-2.8,1.2-4c0.4-1.2,0.8-2.5,1.2-3.7c0.4-1.4,0.8-2.8,1.2-4
			c0.4-1.2,0.8-2.5,1.2-3.7c0.4-1.2,0.9-2.4,1.5-3.4c0.4-1.2,0.8-2.5,1.2-3.7c0.6-1.2,1.1-2.4,1.5-3.4c0.6-1.2,1.1-2.4,1.5-3.4
			c0.6-1.2,1.2-2.4,1.9-3.4c0.6-1.2,1.1-2.4,1.5-3.4c0.6-1,1.2-2.2,1.8-3.4c0.6-1,1.2-2,1.8-3.1c0.6-1,1.2-2.1,1.9-3.1
			c0.8-1,1.5-2,2.2-3.1c0.6-1,1.2-2,1.8-2.8c0.8-1,1.5-2,2.2-3.1c0.6-1,1.3-1.9,2.2-2.8c0.6-1,1.3-2,2.2-2.8c0.8-1,1.5-1.9,2.2-2.8
			c0.8-0.8,1.6-1.6,2.5-2.5c0.6-1,1.3-2,2.2-2.8c0.8-0.8,1.6-1.6,2.5-2.5c0.8-0.8,1.6-1.6,2.5-2.5c0.8-0.8,1.6-1.6,2.5-2.5
			c0.8-0.6,1.6-1.3,2.5-2.2c0.8-0.8,1.6-1.5,2.5-2.2c0.8-0.8,1.6-1.5,2.5-2.2c1-0.8,2-1.5,2.8-2.2c0.8-0.6,1.6-1.2,2.5-1.8
			c1-0.8,1.9-1.5,2.8-2.2c1-0.6,2-1.2,2.8-1.8c0.8-0.6,1.7-1.2,2.8-1.8c0.8-0.6,1.7-1.1,2.8-1.5c0.8-0.6,1.7-1.2,2.8-1.9
			c0.8-0.4,1.7-0.9,2.8-1.5c1-0.4,2-0.9,2.8-1.5c1-0.4,2-0.9,3.1-1.5c0.8-0.4,1.7-0.8,2.8-1.2c1-0.4,2-0.8,2.8-1.2
			c1-0.4,2-0.8,3.1-1.2c0.8-0.4,1.7-0.8,2.8-1.2c1-0.4,2-0.8,3.1-1.2c1-0.2,1.9-0.5,2.8-0.9c1-0.2,2.1-0.5,3.1-0.9
			c1-0.2,2-0.5,3.1-0.9c1-0.2,2-0.4,2.8-0.6c1-0.2,2-0.5,3.1-0.9c1-0.2,2.1-0.4,3.1-0.6c1-0.2,2-0.3,3.1-0.3c1-0.2,1.9-0.4,2.8-0.6
			c1-0.2,2.1-0.3,3.1-0.3c1-0.2,2-0.3,3.1-0.3c1-0.2,2.1-0.3,3.1-0.3c0.8-0.2,1.7-0.3,2.8-0.3c1,0,2.1,0,3.1,0c1,0,2,0,3.1,0
			c1,0,1.9,0,2.8,0c1,0,2.1,0,3.1,0c1,0,2,0.1,3.1,0.3c0.8,0,1.7,0.1,2.8,0.3c1,0,1.9,0.1,2.8,0.3c1,0,2.1,0.1,3.1,0.3
			c1,0.2,2,0.4,2.8,0.6c1,0.2,2,0.4,3.1,0.6c0.8,0.2,1.7,0.4,2.8,0.6c0.8,0.2,1.7,0.4,2.8,0.6c0.8,0.4,1.7,0.7,2.8,0.9
			c0.8,0.4,1.7,0.7,2.8,0.9c0.8,0.4,1.7,0.7,2.8,0.9c0.8,0.4,1.7,0.8,2.8,1.2c0.8,0.4,1.6,0.7,2.5,0.9c1,0.4,1.9,0.8,2.8,1.2
			c0.8,0.4,1.6,0.9,2.5,1.5c0.8,0.4,1.7,0.8,2.8,1.2c0.8,0.6,1.6,1.1,2.5,1.5c0.8,0.4,1.6,0.9,2.5,1.5c0.8,0.6,1.6,1.1,2.5,1.5
			c0.8,0.6,1.6,1.2,2.5,1.8c0.8,0.6,1.5,1.2,2.2,1.9c0.8,0.6,1.6,1.2,2.5,1.8c0.8,0.6,1.5,1.2,2.2,1.8c0.8,0.6,1.5,1.3,2.2,2.2
			c0.8,0.6,1.5,1.3,2.2,2.2c0.8,0.6,1.5,1.3,2.2,2.2c0.8,0.8,1.5,1.5,2.2,2.2c0.6,0.8,1.3,1.6,2.2,2.5c0.6,0.8,1.2,1.6,1.8,2.5
			c0.6,0.8,1.2,1.6,1.8,2.5c0.6,1,1.2,2,1.9,2.8c0.6,0.8,1.2,1.7,1.8,2.8c0.6,0.8,1.1,1.7,1.5,2.8c0.6,1,1.2,2,1.8,2.8
			c0.4,1,0.9,2.1,1.5,3.1c0.4,1,0.9,2.1,1.5,3.1c0.4,1,0.9,2.1,1.5,3.1c0.4,1,0.8,2.2,1.2,3.4c0.4,1,0.8,2.2,1.2,3.4
			c0.4,1,0.8,2.2,1.2,3.4c0.4,1,0.8,2.2,1.2,3.4c0.4,1.2,0.7,2.5,0.9,3.7C527.7,270.7,528.1,271.9,528.6,273.2z"/>
		<path fill="#FFFFFF" d="M511.6,291c0.2,0.5,0.2,1.1,0,1.8c0,0.7-0.2,1.4-0.5,2.1c-0.4,0.7-0.8,1.3-1.3,1.8
			c-0.7,0.7-1.4,1.3-2.1,1.8c-0.7,0.7-1.5,1.3-2.4,1.8c-1,0.5-2,1-2.9,1.6c-1.1,0.5-2.2,1-3.4,1.6c-1,0.5-2.2,1-3.4,1.3
			c-1.2,0.5-2.5,1-3.9,1.3c-1.2,0.4-2.5,0.7-3.7,1c-1.4,0.4-2.7,0.7-3.9,1c-1.4,0.2-2.7,0.4-3.9,0.8c-1.2,0.2-2.5,0.4-3.9,0.5
			c-1,0.2-2.2,0.3-3.4,0.3c-1.2,0.2-2.4,0.3-3.4,0.3c-1,0-2,0-2.9,0c-0.9,0-1.8-0.1-2.6-0.3c-0.7-0.2-1.4-0.3-2.1-0.5
			c-0.5-0.2-1-0.4-1.3-0.8c-0.4-0.3-0.6-0.7-0.8-1c-0.4-1-0.6-2-0.8-2.9c-0.3-0.9-0.7-1.8-1-2.6c-0.4-0.9-0.8-1.7-1.3-2.4
			c-0.4-0.9-0.7-1.7-1-2.4c-0.4-0.9-0.8-1.7-1.3-2.4c-0.4-0.7-0.8-1.4-1.3-2.1c-0.5-0.5-1-1.1-1.3-1.8c-0.5-0.5-1-1.1-1.6-1.8
			c-0.5-0.5-1-1-1.6-1.6s-1.1-1-1.6-1.3c-0.5-0.5-1-1.1-1.6-1.6c-0.5-0.3-1-0.7-1.6-1c-0.7-0.3-1.3-0.7-1.8-1
			c-0.5-0.3-1.1-0.7-1.8-1c-0.5-0.2-1.1-0.4-1.8-0.8c-0.5-0.2-1.1-0.4-1.8-0.5c-0.5-0.2-1.1-0.4-1.8-0.5c-0.5-0.2-1.1-0.3-1.8-0.3
			c-0.5-0.2-1.1-0.3-1.8-0.3c-0.7,0-1.3,0-1.8,0c-0.7,0-1.4,0-2.1,0c-0.5,0-1.1,0-1.8,0c-0.7,0.2-1.3,0.4-1.8,0.5
			c-0.7,0-1.4,0.1-2.1,0.3c-0.7,0.2-1.3,0.4-1.8,0.8c-0.7,0.2-1.4,0.3-2.1,0.5c-0.5,0.4-1.1,0.7-1.8,1c-0.5,0.2-1.1,0.4-1.8,0.8
			c-0.7,0.4-1.3,0.8-1.8,1.3c-0.7,0.4-1.3,0.7-1.8,1c-0.7,0.5-1.3,1-1.8,1.3c-0.7,0.5-1.3,1-1.8,1.6c-0.5,0.5-1.1,1-1.8,1.6
			c-0.5,0.7-1,1.3-1.6,1.8c-0.5,0.7-1.1,1.3-1.8,1.8c-0.5,0.7-1,1.4-1.6,2.1c-0.5,0.7-1.1,1.4-1.6,2.1c-0.5,0.7-1,1.5-1.3,2.4
			c-0.5,0.7-1,1.5-1.6,2.4c-0.5,0.7-1,1.5-1.3,2.4c-0.5,0.9-1,1.8-1.3,2.6c-0.5,0.9-1,1.8-1.3,2.9c-0.4,0.9-0.7,1.8-1,2.9
			c-0.5,0.9-1,1.8-1.3,2.9c-0.4,1-0.6,2.1-0.8,3.1c-0.4,1-0.7,2.1-1.1,3.2c-0.3,1.2-0.6,2.4-0.8,3.4c-0.3,1.2-0.6,2.4-0.8,3.4
			c-0.2,1.2-0.4,2.5-0.5,3.7c-0.2,1.2-0.4,2.5-0.5,3.7c-0.2,1.2-0.4,2.5-0.5,3.9c0,1.2-0.1,2.5-0.3,3.9c0,1.2-0.1,2.5-0.3,3.9
			c0,1.4,0,2.8,0,4.2c0,1.4,0,2.8,0,4.2c0.2,1.6,0.3,3.1,0.3,4.5c0.2,1.6,0.3,3.1,0.3,4.5c0.2,2.3,0.4,4.5,0.8,6.6
			c0.2,2.1,0.4,4.2,0.8,6.3c0.3,1.9,0.7,3.8,1,5.8c0.4,1.9,0.7,3.8,1.1,5.8c0.5,1.8,1,3.5,1.3,5.3c0.5,1.6,1,3.2,1.6,5
			c0.5,1.6,1,3.1,1.6,4.5c0.5,1.6,1,3.1,1.6,4.5c0.7,1.4,1.3,2.7,1.8,3.9c0.7,1.4,1.4,2.7,2.1,3.9c0.5,1,1.1,2.2,1.8,3.4
			c0.7,1,1.4,2.1,2.1,3.1c0.7,1,1.5,2.1,2.4,3.2c0.7,0.9,1.4,1.8,2.1,2.6c0.7,0.9,1.5,1.7,2.4,2.4c0.7,0.9,1.5,1.7,2.4,2.4
			c0.7,0.7,1.5,1.3,2.4,1.8c0.7,0.7,1.5,1.3,2.4,1.8c0.9,0.5,1.7,1,2.4,1.6c0.9,0.4,1.7,0.8,2.6,1.3c0.7,0.4,1.5,0.7,2.4,1
			c0.7,0.4,1.5,0.6,2.4,0.8c0.7,0.4,1.5,0.6,2.4,0.8c0.7,0.2,1.5,0.3,2.4,0.5c0.7,0.2,1.5,0.3,2.4,0.3c0.7,0.2,1.4,0.3,2.1,0.3
			c0.9,0,1.7,0,2.4,0c0.7,0,1.4-0.1,2.1-0.3c0.7,0,1.4-0.1,2.1-0.3c0.7-0.2,1.3-0.4,1.8-0.5c0.7-0.2,1.3-0.4,1.8-0.5
			c0.7-0.2,1.3-0.4,1.8-0.8c0.5-0.2,1-0.4,1.6-0.8c0.5-0.3,1-0.7,1.6-1c0.5-0.3,1-0.7,1.3-1c0.5-0.3,1-0.7,1.3-1
			c0.5-0.5,0.9-1,1-1.3c0.4-0.5,0.7-1,1.1-1.6c0.2-0.3,0.4-0.6,0.8-0.8c0.5-0.2,1-0.3,1.6-0.5c0.5,0,1.1,0,1.8,0c0.9,0,1.7,0,2.4,0
			c1,0,2,0.1,2.9,0.3c1,0.2,2.1,0.4,3.2,0.5c1.2,0.2,2.4,0.4,3.7,0.8c1.2,0.4,2.5,0.7,3.7,1c1.2,0.4,2.4,0.7,3.7,1.1
			c1.4,0.3,2.7,0.8,3.9,1.3c1.4,0.4,2.8,0.8,4.2,1.3c1.2,0.5,2.5,1,3.9,1.3c1.2,0.5,2.5,1,3.9,1.6c1.2,0.5,2.5,1,3.7,1.6
			c1.2,0.7,2.4,1.3,3.7,1.8c1.1,0.5,2.2,1,3.4,1.6c0.9,0.5,1.8,1.1,2.9,1.6c0.9,0.5,1.8,1.1,2.6,1.8c0.9,0.5,1.7,1,2.4,1.6
			c0.5,0.4,1,0.9,1.6,1.6c0.5,0.4,1,0.8,1.3,1.3c0.3,0.3,0.5,0.8,0.5,1.3c0.2,0.4,0.2,0.8,0,1.3c-0.4,0.9-0.8,1.8-1.3,2.9
			c-0.4,0.9-0.7,1.8-1.1,2.9c-0.5,0.9-1,1.8-1.3,2.9c-0.5,0.9-1,1.8-1.3,2.6c-0.5,1-1,2-1.3,2.9c-0.5,0.9-1,1.8-1.6,2.6
			c-0.5,0.9-1,1.8-1.3,2.6c-0.5,0.7-1,1.5-1.6,2.4c-0.5,0.9-1,1.8-1.6,2.6c-0.5,0.7-1,1.5-1.6,2.4c-0.5,0.7-1,1.5-1.6,2.4
			c-0.5,0.7-1,1.4-1.6,2.1c-0.5,0.9-1.1,1.7-1.8,2.4c-0.5,0.7-1.1,1.4-1.6,2.1c-0.5,0.7-1.1,1.4-1.8,2.1c-0.5,0.7-1,1.3-1.6,1.8
			c-0.7,0.7-1.3,1.4-1.8,2.1c-0.7,0.5-1.3,1.1-1.8,1.8c-0.7,0.7-1.3,1.3-1.8,1.8c-0.7,0.5-1.4,1.1-2.1,1.8c-0.5,0.5-1.1,1-1.8,1.6
			c-0.7,0.5-1.4,1-2.1,1.6c-0.5,0.5-1.1,1.1-1.8,1.6c-0.7,0.5-1.4,1-2.1,1.6c-0.7,0.5-1.3,1-1.8,1.6c-0.7,0.4-1.4,0.8-2.1,1.3
			c-0.7,0.4-1.4,0.8-2.1,1.3c-0.7,0.3-1.4,0.8-2.1,1.3c-0.7,0.4-1.4,0.7-2.1,1c-0.7,0.4-1.4,0.7-2.1,1c-0.9,0.5-1.7,1-2.4,1.3
			c-0.7,0.4-1.4,0.6-2.1,0.8c-0.7,0.3-1.4,0.7-2.1,1c-0.9,0.4-1.7,0.6-2.4,0.8c-0.7,0.4-1.4,0.6-2.1,0.8c-0.9,0.4-1.7,0.6-2.4,0.8
			c-0.7,0.4-1.4,0.6-2.1,0.8c-0.9,0.2-1.7,0.4-2.4,0.5c-0.7,0.2-1.5,0.4-2.4,0.5c-0.7,0.2-1.4,0.4-2.1,0.5c-0.9,0.2-1.7,0.3-2.4,0.5
			c-0.9,0.2-1.7,0.3-2.4,0.5c-0.7,0-1.5,0.1-2.4,0.3c-0.7,0-1.5,0.1-2.4,0.3c-0.7,0-1.5,0-2.4,0c-0.7,0.2-1.4,0.3-2.1,0.3
			c-0.9,0-1.7,0-2.4,0c-0.9,0-1.7,0-2.4,0c-0.9,0-1.7,0-2.4,0c-0.9,0-1.7,0-2.4,0c-0.9-0.2-1.7-0.3-2.4-0.3
			c-0.9-0.2-1.7-0.3-2.4-0.3c-0.9-0.2-1.7-0.3-2.4-0.3c-0.9-0.2-1.7-0.4-2.4-0.5c-0.7,0-1.5-0.1-2.4-0.3c-0.7-0.2-1.5-0.4-2.4-0.5
			c-0.7-0.2-1.5-0.3-2.4-0.5c-0.7-0.2-1.5-0.4-2.4-0.8c-0.7-0.2-1.4-0.3-2.1-0.5c-0.9-0.2-1.7-0.4-2.4-0.8c-0.9-0.2-1.7-0.4-2.4-0.8
			c-0.7-0.3-1.5-0.6-2.4-0.8c-0.7-0.3-1.4-0.7-2.1-1c-0.9-0.4-1.7-0.6-2.4-0.8c-0.7-0.3-1.5-0.7-2.4-1c-0.7-0.3-1.4-0.8-2.1-1.3
			c-0.9-0.3-1.7-0.7-2.4-1c-0.7-0.3-1.4-0.8-2.1-1.3c-0.7-0.4-1.5-0.8-2.4-1.3c-0.7-0.3-1.4-0.8-2.1-1.3c-0.7-0.3-1.4-0.8-2.1-1.3
			c-0.7-0.5-1.4-1-2.1-1.6c-0.7-0.5-1.5-1-2.4-1.6c-0.7-0.5-1.4-1.1-2.1-1.6c-0.7-0.5-1.3-1-1.8-1.6c-0.7-0.5-1.4-1-2.1-1.6
			c-0.7-0.7-1.4-1.3-2.1-1.8c-0.7-0.7-1.4-1.3-2.1-1.8c-0.7-0.7-1.3-1.3-1.8-1.8c-0.7-0.7-1.4-1.4-2.1-2.1c-0.7-0.7-1.3-1.4-1.8-2.1
			c-0.7-0.5-1.4-1.1-2.1-1.8c-0.5-0.7-1.1-1.5-1.8-2.4c-0.5-0.7-1.1-1.4-1.8-2.1c-0.5-0.7-1.1-1.5-1.8-2.4c-0.5-0.7-1.1-1.4-1.8-2.1
			c-0.5-0.9-1-1.7-1.6-2.4c-0.7-0.9-1.3-1.8-1.8-2.6c-0.5-0.7-1-1.5-1.6-2.4c-0.5-0.9-1-1.7-1.6-2.6c-0.7-0.9-1.3-1.8-1.8-2.6
			c-0.5-0.9-1-1.7-1.6-2.6c-0.5-0.9-1-1.8-1.6-2.9c-0.4-0.9-0.8-1.7-1.3-2.6c-0.5-1-1.1-2-1.6-2.9c-0.5-1-1-2-1.3-2.9
			c-0.5-1-1-2.1-1.6-3.2c-0.4-0.9-0.8-1.8-1.3-2.9c-0.4-1-0.8-2.1-1.3-3.2c-0.3-1-0.7-2.1-1-3.1c-0.5-1-1-2.1-1.3-3.2
			c-0.4-1-0.7-2.2-1-3.4c-0.4-1-0.7-2.1-1-3.2c-0.5-1.2-1-2.4-1.3-3.4c-0.4-1.2-0.6-2.4-0.8-3.4c-0.3-1.2-0.7-2.4-1-3.7
			c-0.4-1.2-0.7-2.4-1-3.4c-0.2-1.2-0.4-2.5-0.8-3.7c-0.2-1.2-0.4-2.4-0.8-3.7c-0.2-1.2-0.4-2.5-0.8-3.9c-0.2-1.2-0.4-2.4-0.5-3.7
			c-0.4-1.4-0.6-2.7-0.8-3.9c-0.2-1.2-0.3-2.5-0.5-3.9c-0.2-1.2-0.3-2.5-0.5-3.9c-0.2-1.4-0.4-2.7-0.5-3.9c-0.2-1.4-0.3-2.8-0.3-4.2
			c-0.2-1.4-0.4-2.8-0.5-4.2c0-1.4-0.1-2.8-0.3-4.2c0-1.4-0.1-2.8-0.3-4.2c0-1.6,0-3.1,0-4.5c-0.2-1.4-0.3-2.9-0.3-4.5
			c0-1.4,0-2.9,0-4.5c0-1.2,0-2.5,0-3.9c0.2-1.2,0.3-2.4,0.3-3.7c0-1.4,0.1-2.7,0.3-3.9c0-1.2,0.1-2.5,0.3-3.7
			c0-1.4,0.1-2.7,0.3-3.9c0.2-1.2,0.3-2.5,0.5-3.7c0.2-1.2,0.3-2.4,0.5-3.4c0.2-1.2,0.3-2.5,0.5-3.7c0.2-1.2,0.4-2.4,0.5-3.4
			c0.4-1.2,0.6-2.4,0.8-3.7c0.3-1,0.6-2.2,0.8-3.4c0.3-1,0.6-2.1,0.8-3.1c0.3-1.2,0.7-2.4,1-3.4c0.3-1,0.7-2.1,1-3.1
			c0.3-1.2,0.7-2.4,1-3.4c0.4-1,0.7-2.1,1.1-3.1c0.3-1.1,0.8-2,1.3-2.9c0.3-1,0.7-2.1,1-3.1c0.5-1.1,1-2,1.3-2.9c0.5-1,1-2,1.3-2.9
			c0.5-1.1,1.1-2,1.6-2.9c0.5-1,1-2,1.3-2.9c0.5-0.9,1-1.8,1.6-2.9c0.5-0.9,1-1.7,1.6-2.6c0.5-0.9,1.1-1.8,1.6-2.6
			c0.7-0.9,1.3-1.7,1.8-2.6c0.5-0.9,1-1.7,1.6-2.4c0.7-0.9,1.3-1.7,1.8-2.6c0.5-0.9,1.1-1.7,1.8-2.4c0.5-0.9,1.1-1.7,1.8-2.4
			c0.7-0.9,1.3-1.7,1.8-2.4c0.7-0.7,1.4-1.4,2.1-2.1c0.5-0.9,1.1-1.7,1.8-2.4c0.7-0.7,1.4-1.4,2.1-2.1c0.7-0.7,1.4-1.4,2.1-2.1
			c0.7-0.7,1.4-1.4,2.1-2.1c0.7-0.5,1.4-1.1,2.1-1.8c0.7-0.7,1.4-1.3,2.1-1.8c0.7-0.7,1.4-1.3,2.1-1.8c0.9-0.7,1.7-1.3,2.4-1.8
			c0.7-0.5,1.4-1,2.1-1.6c0.9-0.7,1.7-1.3,2.4-1.8c0.9-0.5,1.7-1,2.4-1.6c0.7-0.5,1.5-1,2.4-1.6c0.7-0.5,1.5-1,2.4-1.3
			c0.7-0.5,1.5-1.1,2.4-1.6c0.7-0.3,1.5-0.8,2.4-1.3c0.9-0.3,1.7-0.8,2.4-1.3c0.9-0.3,1.7-0.8,2.6-1.3c0.7-0.4,1.5-0.7,2.4-1.1
			c0.9-0.3,1.7-0.7,2.4-1c0.9-0.3,1.7-0.7,2.6-1c0.7-0.3,1.5-0.7,2.4-1c0.9-0.3,1.7-0.7,2.6-1c0.9-0.2,1.7-0.4,2.4-0.8
			c0.9-0.2,1.8-0.4,2.6-0.8c0.9-0.2,1.7-0.4,2.6-0.8c0.9-0.2,1.7-0.3,2.4-0.5c0.9-0.2,1.7-0.4,2.6-0.8c0.9-0.2,1.8-0.3,2.6-0.5
			c0.9-0.2,1.7-0.3,2.6-0.3c0.9-0.2,1.7-0.3,2.4-0.5c0.9-0.2,1.8-0.3,2.6-0.3c0.9-0.2,1.7-0.3,2.6-0.3c0.9-0.2,1.8-0.3,2.6-0.3
			c0.7-0.2,1.5-0.3,2.4-0.3c0.9,0,1.8,0,2.6,0c0.9,0,1.7,0,2.6,0c0.9,0,1.7,0,2.4,0c0.9,0,1.8,0,2.6,0c0.9,0,1.7,0.1,2.6,0.3
			c0.7,0,1.5,0.1,2.4,0.3c0.9,0,1.7,0.1,2.4,0.3c0.9,0,1.8,0.1,2.6,0.3c0.9,0.2,1.7,0.4,2.4,0.5c0.9,0.2,1.7,0.4,2.6,0.5
			c0.7,0.2,1.5,0.4,2.4,0.5c0.7,0.2,1.5,0.4,2.4,0.5c0.7,0.4,1.5,0.6,2.4,0.8c0.7,0.4,1.5,0.6,2.4,0.8c0.7,0.3,1.5,0.6,2.4,0.8
			c0.7,0.3,1.5,0.7,2.4,1c0.7,0.4,1.4,0.6,2.1,0.8c0.9,0.4,1.7,0.7,2.4,1c0.7,0.4,1.4,0.8,2.1,1.3c0.7,0.4,1.5,0.7,2.4,1.1
			c0.7,0.5,1.4,1,2.1,1.3c0.7,0.4,1.4,0.8,2.1,1.3c0.7,0.5,1.4,1,2.1,1.3c0.7,0.5,1.4,1,2.1,1.6c0.7,0.5,1.3,1.1,1.8,1.6
			c0.7,0.5,1.4,1,2.1,1.6c0.7,0.5,1.3,1,1.8,1.6c0.7,0.5,1.3,1.1,1.8,1.8c0.7,0.5,1.3,1.1,1.8,1.8c0.7,0.5,1.3,1.1,1.8,1.8
			c0.7,0.7,1.3,1.3,1.8,1.8c0.5,0.7,1.1,1.4,1.8,2.1c0.5,0.7,1,1.4,1.6,2.1c0.5,0.7,1,1.4,1.6,2.1c0.5,0.9,1.1,1.7,1.6,2.4
			c0.5,0.7,1,1.5,1.6,2.4c0.5,0.7,1,1.5,1.3,2.4c0.5,0.9,1,1.7,1.6,2.4c0.4,0.9,0.8,1.8,1.3,2.6c0.3,0.9,0.8,1.8,1.3,2.6
			c0.3,0.9,0.8,1.8,1.3,2.6c0.3,0.9,0.7,1.8,1,2.9c0.4,0.9,0.7,1.8,1,2.9c0.4,0.9,0.7,1.8,1.1,2.9c0.3,0.9,0.7,1.8,1,2.9
			c0.3,1,0.6,2.1,0.8,3.2C510.9,288.9,511.2,289.9,511.6,291z"/>
	</g>
</g>
</svg>
