<?xml version="1.0" encoding="utf-8"?>
<!-- Generator: Adobe Illustrator 18.0.0, SVG Export Plug-In . SVG Version: 6.00 Build 0)  -->
<!DOCTYPE svg PUBLIC "-//W3C//DTD SVG 1.1//EN" "http://www.w3.org/Graphics/SVG/1.1/DTD/svg11.dtd">
<svg version="1.1" id="Camada_1" xmlns="http://www.w3.org/2000/svg" xmlns:xlink="http://www.w3.org/1999/xlink" x="0px" y="0px"
	 viewBox="0 0 1024 768" enable-background="new 0 0 1024 768" xml:space="preserve">
<g>
	<defs>
		<circle id="SVGID_1_" cx="511.9" cy="383.4" r="375.7"/>
	</defs>
	<clipPath id="SVGID_2_">
		<use xlink:href="#SVGID_1_"  overflow="visible"/>
	</clipPath>
	<g clip-path="url(#SVGID_2_)" enable-background="new    ">
		
			<image overflow="visible" width="2474" height="2474" xlink:href="../../banco de imagens/botões/butt 25.png"  transform="matrix(0.3065 0 0 0.3065 132.8006 4.7999)">
		</image>
	</g>
</g>
<g>
	<g>
		<path d="M516.4,274.8c0.2,0.6,0.2,1.3,0,2.2c0,0.8,11.1,37-18.8,53.4c-24.2,11.4-51.6,12.5-57.3,2.8c-5.7-9.7-10.8-34.4-23.6-34.3
			c-12.8,0.1-25.6,4.2-26.1,53.5c-0.5,49.3,15.8,77.4,30.4,77.4c12.7,0.2,9-2.3,19.1-9.5c10.1-7.2,30.4-4.8,49,3.3
			c18.6,8.1,36.6,25.5,32,48.7c-0.4,1-0.9,2.2-1.5,3.4c-0.4,1-0.8,2.2-1.2,3.4c-0.6,1-1.1,2.2-1.5,3.4c-0.6,1-1.1,2.1-1.5,3.1
			c-0.6,1.2-1.1,2.4-1.5,3.4c-0.6,1-1.2,2.1-1.9,3.1c-0.6,1-1.1,2.1-1.5,3.1c-0.6,0.8-1.2,1.8-1.9,2.8c-0.6,1-1.2,2.1-1.9,3.1
			c-0.6,0.8-1.2,1.8-1.9,2.8c-0.6,0.8-1.2,1.8-1.9,2.8c-0.6,0.8-1.2,1.7-1.9,2.5c-0.6,1-1.3,2-2.2,2.8c-0.6,0.8-1.2,1.7-1.9,2.5
			c-0.6,0.8-1.3,1.7-2.2,2.5c-0.6,0.8-1.2,1.6-1.9,2.2c-0.8,0.8-1.5,1.7-2.2,2.5c-0.8,0.6-1.6,1.3-2.2,2.2c-0.8,0.8-1.5,1.6-2.2,2.2
			c-0.8,0.6-1.7,1.3-2.5,2.2c-0.6,0.6-1.3,1.2-2.2,1.9c-0.8,0.6-1.7,1.2-2.5,1.9c-0.6,0.6-1.3,1.2-2.2,1.9c-0.8,0.6-1.7,1.2-2.5,1.9
			c-0.8,0.6-1.5,1.2-2.2,1.9c-0.8,0.4-1.7,0.9-2.5,1.5c-0.8,0.4-1.7,0.9-2.5,1.6c-0.8,0.4-1.7,0.9-2.5,1.5c-0.8,0.4-1.7,0.8-2.5,1.2
			c-0.8,0.4-1.7,0.8-2.5,1.2c-1,0.6-2,1.1-2.8,1.5c-0.8,0.4-1.7,0.7-2.5,0.9c-0.8,0.4-1.6,0.8-2.5,1.2c-1,0.4-2,0.7-2.8,0.9
			c-0.8,0.4-1.7,0.7-2.5,0.9c-1,0.4-2,0.7-2.8,0.9c-0.8,0.4-1.7,0.7-2.5,0.9c-1,0.2-2,0.4-2.8,0.6c-0.8,0.2-1.8,0.4-2.8,0.6
			c-0.8,0.2-1.7,0.4-2.5,0.6c-1,0.2-2,0.4-2.8,0.6c-1,0.2-2,0.4-2.8,0.6c-0.8,0-1.8,0.1-2.8,0.3c-0.8,0-1.8,0.1-2.8,0.3
			c-0.8,0-1.8,0-2.8,0c-0.8,0.2-1.7,0.3-2.5,0.3c-1,0-2,0-2.8,0c-1,0-2,0-2.8,0c-1,0-2,0-2.8,0c-1,0-2,0-2.8,0c-1-0.2-2-0.3-2.8-0.3
			c-1-0.2-2-0.3-2.8-0.3c-1-0.2-2-0.3-2.8-0.3c-1-0.2-2-0.4-2.8-0.6c-0.8,0-1.8-0.1-2.8-0.3c-0.8-0.2-1.8-0.4-2.8-0.6
			c-0.8-0.2-1.8-0.4-2.8-0.6c-0.8-0.2-1.8-0.5-2.8-0.9c-0.8-0.2-1.7-0.4-2.5-0.6c-1-0.2-2-0.5-2.8-0.9c-1-0.2-2-0.5-2.8-0.9
			c-0.8-0.4-1.8-0.7-2.8-0.9c-0.8-0.4-1.7-0.8-2.5-1.2c-1-0.4-2-0.7-2.8-0.9c-0.8-0.4-1.8-0.8-2.8-1.2c-0.8-0.4-1.7-0.9-2.5-1.5
			c-1-0.4-2-0.8-2.8-1.2c-0.8-0.4-1.7-0.9-2.5-1.5c-0.8-0.4-1.8-0.9-2.8-1.6c-0.8-0.4-1.7-0.9-2.5-1.5c-0.8-0.4-1.7-0.9-2.5-1.5
			c-0.8-0.6-1.7-1.2-2.5-1.9c-0.8-0.6-1.8-1.2-2.8-1.9c-0.8-0.6-1.7-1.2-2.5-1.9c-0.8-0.6-1.6-1.2-2.2-1.9c-0.8-0.6-1.7-1.2-2.5-1.9
			c-0.8-0.8-1.7-1.5-2.5-2.2c-0.8-0.8-1.7-1.5-2.5-2.2c-0.8-0.8-1.5-1.5-2.2-2.2c-0.8-0.8-1.7-1.7-2.5-2.5c-0.8-0.8-1.6-1.6-2.2-2.5
			c-0.8-0.6-1.7-1.3-2.5-2.2c-0.6-0.8-1.3-1.8-2.2-2.8c-0.6-0.8-1.3-1.6-2.2-2.5c-0.6-0.8-1.3-1.7-2.2-2.8c-0.6-0.8-1.3-1.7-2.2-2.5
			c-0.6-1-1.2-2-1.9-2.8c-0.8-1-1.6-2.1-2.2-3.1c-0.6-0.8-1.2-1.8-1.9-2.8c-0.6-1-1.2-2.1-1.9-3.1c-0.8-1-1.6-2.1-2.2-3.1
			c-0.6-1-1.2-2.1-1.9-3.1c-0.6-1-1.2-2.2-1.9-3.4c-0.4-1-0.9-2.1-1.5-3.1c-0.6-1.2-1.2-2.4-1.9-3.4c-0.6-1.2-1.1-2.4-1.5-3.4
			c-0.6-1.2-1.2-2.5-1.9-3.7c-0.4-1-0.9-2.2-1.5-3.4c-0.4-1.2-0.9-2.5-1.6-3.7c-0.4-1.2-0.8-2.5-1.2-3.7c-0.6-1.2-1.1-2.5-1.5-3.7
			c-0.4-1.2-0.8-2.6-1.2-4c-0.4-1.2-0.8-2.5-1.2-3.7c-0.6-1.4-1.1-2.8-1.5-4c-0.4-1.4-0.7-2.8-0.9-4c-0.4-1.4-0.8-2.9-1.2-4.3
			c-0.4-1.4-0.8-2.8-1.2-4c-0.2-1.4-0.5-2.9-0.9-4.3c-0.2-1.4-0.5-2.9-0.9-4.3c-0.2-1.4-0.5-3-0.9-4.6c-0.2-1.4-0.4-2.9-0.6-4.3
			c-0.4-1.7-0.7-3.2-0.9-4.6c-0.2-1.4-0.4-3-0.6-4.6c-0.2-1.4-0.4-3-0.6-4.6c-0.2-1.7-0.4-3.2-0.6-4.6c-0.2-1.6-0.3-3.3-0.3-4.9
			c-0.2-1.6-0.4-3.3-0.6-4.9c0-1.7-0.1-3.3-0.3-4.9c0-1.7-0.1-3.3-0.3-4.9c0-1.9,0-3.6,0-5.3c-0.2-1.6-0.3-3.4-0.3-5.2
			c0-1.7,0-3.4,0-5.3c0-1.4,0-3,0-4.6c0.2-1.4,0.3-2.9,0.3-4.3c0-1.7,0.1-3.2,0.3-4.6c0-1.4,0.1-2.9,0.3-4.3c0-1.6,0.1-3.2,0.3-4.6
			c0.2-1.4,0.4-2.9,0.6-4.3c0.2-1.4,0.4-2.8,0.6-4c0.2-1.4,0.4-2.9,0.6-4.3c0.2-1.4,0.4-2.8,0.6-4c0.4-1.4,0.7-2.9,0.9-4.3
			c0.4-1.2,0.7-2.6,0.9-4c0.4-1.2,0.7-2.5,0.9-3.7c0.4-1.4,0.8-2.8,1.2-4c0.4-1.2,0.8-2.5,1.2-3.7c0.4-1.4,0.8-2.8,1.2-4
			c0.4-1.2,0.8-2.5,1.2-3.7c0.4-1.2,0.9-2.4,1.5-3.4c0.4-1.2,0.8-2.5,1.2-3.7c0.6-1.2,1.1-2.4,1.5-3.4c0.6-1.2,1.1-2.4,1.5-3.4
			c0.6-1.2,1.2-2.4,1.9-3.4c0.6-1.2,1.1-2.4,1.5-3.4c0.6-1,1.2-2.2,1.9-3.4c0.6-1,1.2-2.1,1.9-3.1s1.2-2.1,1.9-3.1
			c0.8-1,1.5-2.1,2.2-3.1c0.6-1,1.2-2,1.9-2.8c0.8-1,1.5-2.1,2.2-3.1c0.6-1,1.3-2,2.2-2.8c0.6-1,1.3-2,2.2-2.8c0.8-1,1.5-2,2.2-2.8
			c0.8-0.8,1.7-1.7,2.5-2.5c0.6-1,1.3-2,2.2-2.8c0.8-0.8,1.6-1.6,2.5-2.5c0.8-0.8,1.7-1.7,2.5-2.5c0.8-0.8,1.6-1.6,2.5-2.5
			c0.8-0.6,1.6-1.3,2.5-2.2c0.8-0.8,1.7-1.5,2.5-2.2c0.8-0.8,1.6-1.5,2.5-2.2c1-0.8,2-1.5,2.8-2.2c0.8-0.6,1.6-1.2,2.5-1.9
			c1-0.8,2-1.6,2.8-2.2c1-0.6,2-1.2,2.8-1.9c0.8-0.6,1.7-1.2,2.8-1.9c0.8-0.6,1.8-1.1,2.8-1.5c0.8-0.6,1.8-1.2,2.8-1.9
			c0.8-0.4,1.7-0.9,2.8-1.5c1-0.4,2-0.9,2.8-1.5c1-0.4,2.1-0.9,3.1-1.5c0.8-0.4,1.8-0.8,2.8-1.2c1-0.4,2-0.8,2.8-1.2
			c1-0.4,2.1-0.8,3.1-1.2c0.8-0.4,1.8-0.8,2.8-1.2c1-0.4,2.1-0.8,3.1-1.2c1-0.2,2-0.5,2.8-0.9c1-0.2,2.1-0.5,3.1-0.9
			c1-0.2,2.1-0.5,3.1-0.9c1-0.2,2-0.4,2.8-0.6c1-0.2,2.1-0.5,3.1-0.9c1-0.2,2.1-0.4,3.1-0.6c1-0.2,2.1-0.3,3.1-0.3
			c1-0.2,2-0.4,2.8-0.6c1-0.2,2.1-0.3,3.1-0.3c1-0.2,2.1-0.3,3.1-0.3c1-0.2,2.1-0.3,3.1-0.3c0.8-0.2,1.7-0.3,2.8-0.3
			c1,0,2.1,0,3.1,0c1,0,2.1,0,3.1,0c1,0,2,0,2.8,0c1,0,2.1,0,3.1,0c1,0,2.1,0.1,3.1,0.3c0.8,0,1.8,0.1,2.8,0.3c1,0,2,0.1,2.8,0.3
			c1,0,2.1,0.1,3.1,0.3c1,0.2,2,0.4,2.8,0.6c1,0.2,2.1,0.4,3.1,0.6c0.8,0.2,1.8,0.4,2.8,0.6c0.8,0.2,1.7,0.4,2.8,0.6
			c0.8,0.4,1.8,0.7,2.8,0.9c0.8,0.4,1.8,0.7,2.8,0.9c0.8,0.4,1.7,0.7,2.8,0.9c0.8,0.4,1.8,0.8,2.8,1.2c0.8,0.4,1.6,0.7,2.5,0.9
			c1,0.4,2,0.8,2.8,1.2c0.8,0.4,1.7,0.9,2.5,1.5c0.8,0.4,1.7,0.8,2.8,1.2c0.8,0.6,1.6,1.1,2.5,1.5c0.8,0.4,1.7,0.9,2.5,1.5
			c0.8,0.6,1.6,1.1,2.5,1.5c0.8,0.6,1.7,1.2,2.5,1.9c0.8,0.6,1.6,1.2,2.2,1.9c0.8,0.6,1.6,1.2,2.5,1.9c0.8,0.6,1.5,1.2,2.2,1.9
			c0.8,0.6,1.6,1.3,2.2,2.2c0.8,0.6,1.5,1.3,2.2,2.2c0.8,0.6,1.5,1.3,2.2,2.2c0.8,0.8,1.6,1.5,2.2,2.2c0.6,0.8,1.3,1.7,2.2,2.5
			c0.6,0.8,1.2,1.7,1.9,2.5c0.6,0.8,1.2,1.7,1.9,2.5c0.6,1,1.2,2,1.9,2.8c0.6,0.8,1.2,1.8,1.9,2.8c0.6,0.8,1.1,1.8,1.5,2.8
			c0.6,1,1.2,2,1.9,2.8c0.4,1,0.9,2.1,1.6,3.1c0.4,1,0.9,2.1,1.5,3.1c0.4,1,0.9,2.1,1.5,3.1c0.4,1,0.8,2.2,1.2,3.4
			c0.4,1,0.8,2.2,1.2,3.4c0.4,1,0.8,2.2,1.2,3.4c0.4,1,0.8,2.2,1.2,3.4c0.4,1.2,0.7,2.5,0.9,3.7C515.6,272.4,516,273.6,516.4,274.8z
			"/>
		<path fill="#FFFFFF" d="M499.4,292.7c0.2,0.5,0.2,1.1,0,1.8c0,0.7-0.2,1.4-0.5,2.1c-0.4,0.7-0.8,1.3-1.3,1.8
			c-0.7,0.7-1.4,1.3-2.1,1.8c-0.7,0.7-1.5,1.3-2.4,1.8c-1,0.5-2,1-2.9,1.6c-1.1,0.5-2.2,1-3.4,1.6c-1,0.5-2.2,1-3.4,1.3
			c-1.2,0.5-2.5,1-3.9,1.3c-1.2,0.4-2.5,0.7-3.7,1c-1.4,0.4-2.7,0.7-3.9,1c-1.4,0.2-2.7,0.4-3.9,0.8c-1.2,0.2-2.5,0.4-3.9,0.5
			c-1,0.2-2.2,0.3-3.4,0.3c-1.2,0.2-2.4,0.3-3.4,0.3s-2,0-2.9,0c-0.9,0-1.8-0.1-2.6-0.3c-0.7-0.2-1.4-0.3-2.1-0.5
			c-0.5-0.2-1-0.4-1.3-0.8c-0.4-0.3-0.6-0.7-0.8-1c-0.4-1-0.6-2-0.8-2.9c-0.3-0.9-0.7-1.8-1-2.6c-0.4-0.9-0.8-1.7-1.3-2.4
			c-0.4-0.9-0.7-1.7-1-2.4c-0.4-0.9-0.8-1.7-1.3-2.4c-0.4-0.7-0.8-1.4-1.3-2.1c-0.5-0.5-1-1.1-1.3-1.8c-0.5-0.5-1-1.1-1.6-1.8
			c-0.5-0.5-1-1-1.6-1.6s-1.1-1-1.6-1.3c-0.5-0.5-1-1.1-1.6-1.6c-0.5-0.3-1-0.7-1.6-1c-0.7-0.3-1.3-0.7-1.8-1
			c-0.5-0.3-1.1-0.7-1.8-1c-0.5-0.2-1.1-0.4-1.8-0.8c-0.5-0.2-1.1-0.4-1.8-0.5c-0.5-0.2-1.1-0.4-1.8-0.5c-0.5-0.2-1.1-0.3-1.8-0.3
			c-0.5-0.2-1.1-0.3-1.8-0.3c-0.7,0-1.3,0-1.8,0c-0.7,0-1.4,0-2.1,0c-0.5,0-1.1,0-1.8,0c-0.7,0.2-1.3,0.4-1.8,0.5
			c-0.7,0-1.4,0.1-2.1,0.3c-0.7,0.2-1.3,0.4-1.8,0.8c-0.7,0.2-1.4,0.3-2.1,0.5c-0.5,0.4-1.1,0.7-1.8,1c-0.5,0.2-1.1,0.4-1.8,0.8
			c-0.7,0.4-1.3,0.8-1.8,1.3c-0.7,0.4-1.3,0.7-1.8,1c-0.7,0.5-1.3,1-1.8,1.3c-0.7,0.5-1.3,1-1.8,1.6s-1.1,1-1.8,1.6
			c-0.5,0.7-1,1.3-1.6,1.8c-0.5,0.7-1.1,1.3-1.8,1.8c-0.5,0.7-1,1.4-1.6,2.1c-0.5,0.7-1.1,1.4-1.6,2.1c-0.5,0.7-1,1.5-1.3,2.4
			c-0.5,0.7-1,1.5-1.6,2.4c-0.5,0.7-1,1.5-1.3,2.4c-0.5,0.9-1,1.8-1.3,2.6c-0.5,0.9-1,1.8-1.3,2.9c-0.4,0.9-0.7,1.8-1,2.9
			c-0.5,0.9-1,1.8-1.3,2.9c-0.4,1-0.6,2.1-0.8,3.1c-0.4,1-0.7,2.1-1.1,3.2c-0.3,1.2-0.6,2.4-0.8,3.4c-0.3,1.2-0.6,2.4-0.8,3.4
			c-0.2,1.2-0.4,2.5-0.5,3.7c-0.2,1.2-0.4,2.5-0.5,3.7c-0.2,1.2-0.4,2.5-0.5,3.9c0,1.2-0.1,2.5-0.3,3.9c0,1.2-0.1,2.5-0.3,3.9
			c0,1.4,0,2.8,0,4.2c0,1.4,0,2.8,0,4.2c0.2,1.6,0.3,3.1,0.3,4.5c0.2,1.6,0.3,3.1,0.3,4.5c0.2,2.3,0.4,4.5,0.8,6.6
			c0.2,2.1,0.4,4.2,0.8,6.3c0.3,1.9,0.7,3.9,1,5.8c0.4,1.9,0.7,3.9,1.1,5.8c0.5,1.8,1,3.5,1.3,5.3c0.5,1.6,1,3.2,1.6,5
			c0.5,1.6,1,3.1,1.6,4.5c0.5,1.6,1,3.1,1.6,4.5c0.7,1.4,1.3,2.7,1.8,3.9c0.7,1.4,1.4,2.7,2.1,3.9c0.5,1,1.1,2.2,1.8,3.4
			c0.7,1,1.4,2.1,2.1,3.1c0.7,1,1.5,2.1,2.4,3.2c0.7,0.9,1.4,1.8,2.1,2.6c0.7,0.9,1.5,1.7,2.4,2.4c0.7,0.9,1.5,1.7,2.4,2.4
			c0.7,0.7,1.5,1.3,2.4,1.8c0.7,0.7,1.5,1.3,2.4,1.8c0.9,0.5,1.7,1,2.4,1.6c0.9,0.4,1.7,0.8,2.6,1.3c0.7,0.4,1.5,0.7,2.4,1
			c0.7,0.4,1.5,0.6,2.4,0.8c0.7,0.4,1.5,0.6,2.4,0.8c0.7,0.2,1.5,0.3,2.4,0.5c0.7,0.2,1.5,0.3,2.4,0.3c0.7,0.2,1.4,0.3,2.1,0.3
			c0.9,0,1.7,0,2.4,0c0.7,0,1.4-0.1,2.1-0.3c0.7,0,1.4-0.1,2.1-0.3s1.3-0.4,1.8-0.5c0.7-0.2,1.3-0.4,1.8-0.5
			c0.7-0.2,1.3-0.4,1.8-0.8c0.5-0.2,1-0.4,1.6-0.8c0.5-0.3,1-0.7,1.6-1c0.5-0.3,1-0.7,1.3-1c0.5-0.3,1-0.7,1.3-1
			c0.5-0.5,0.9-1,1-1.3c0.4-0.5,0.7-1,1.1-1.6c0.2-0.3,0.4-0.6,0.8-0.8c0.5-0.2,1-0.3,1.6-0.5c0.5,0,1.1,0,1.8,0c0.9,0,1.7,0,2.4,0
			c1,0,2,0.1,2.9,0.3c1,0.2,2.1,0.4,3.2,0.5c1.2,0.2,2.4,0.4,3.7,0.8c1.2,0.4,2.5,0.7,3.7,1c1.2,0.4,2.4,0.7,3.7,1.1
			c1.4,0.3,2.7,0.8,3.9,1.3c1.4,0.4,2.8,0.8,4.2,1.3c1.2,0.5,2.5,1,3.9,1.3c1.2,0.5,2.5,1,3.9,1.6c1.2,0.5,2.5,1,3.7,1.6
			c1.2,0.7,2.4,1.3,3.7,1.8c1.1,0.5,2.2,1,3.4,1.6c0.9,0.5,1.8,1.1,2.9,1.6c0.9,0.5,1.8,1.1,2.6,1.8c0.9,0.5,1.7,1,2.4,1.6
			c0.5,0.4,1,0.9,1.6,1.6c0.5,0.4,1,0.8,1.3,1.3c0.3,0.3,0.5,0.8,0.5,1.3c0.2,0.4,0.2,0.8,0,1.3c-0.4,0.9-0.8,1.8-1.3,2.9
			c-0.4,0.9-0.7,1.8-1.1,2.9c-0.5,0.9-1,1.8-1.3,2.9c-0.5,0.9-1,1.8-1.3,2.6c-0.5,1-1,2-1.3,2.9c-0.5,0.9-1,1.8-1.6,2.6
			c-0.5,0.9-1,1.8-1.3,2.6c-0.5,0.7-1,1.5-1.6,2.4c-0.5,0.9-1,1.8-1.6,2.6c-0.5,0.7-1,1.5-1.6,2.4c-0.5,0.7-1,1.5-1.6,2.4
			c-0.5,0.7-1,1.4-1.6,2.1c-0.5,0.9-1.1,1.7-1.8,2.4c-0.5,0.7-1.1,1.4-1.6,2.1c-0.5,0.7-1.1,1.4-1.8,2.1c-0.5,0.7-1,1.3-1.6,1.8
			c-0.7,0.7-1.3,1.4-1.8,2.1c-0.7,0.5-1.3,1.1-1.8,1.8c-0.7,0.7-1.3,1.3-1.8,1.8c-0.7,0.5-1.4,1.1-2.1,1.8c-0.5,0.5-1.1,1-1.8,1.6
			s-1.4,1-2.1,1.6c-0.5,0.5-1.1,1.1-1.8,1.6c-0.7,0.5-1.4,1-2.1,1.6s-1.3,1-1.8,1.6c-0.7,0.4-1.4,0.8-2.1,1.3
			c-0.7,0.4-1.4,0.8-2.1,1.3c-0.7,0.3-1.4,0.8-2.1,1.3c-0.7,0.4-1.4,0.7-2.1,1c-0.7,0.4-1.4,0.7-2.1,1c-0.9,0.5-1.7,1-2.4,1.3
			c-0.7,0.4-1.4,0.6-2.1,0.8c-0.7,0.3-1.4,0.7-2.1,1c-0.9,0.4-1.7,0.6-2.4,0.8c-0.7,0.4-1.4,0.6-2.1,0.8c-0.9,0.4-1.7,0.6-2.4,0.8
			c-0.7,0.4-1.4,0.6-2.1,0.8c-0.9,0.2-1.7,0.4-2.4,0.5c-0.7,0.2-1.5,0.4-2.4,0.5c-0.7,0.2-1.4,0.4-2.1,0.5c-0.9,0.2-1.7,0.3-2.4,0.5
			c-0.9,0.2-1.7,0.3-2.4,0.5c-0.7,0-1.5,0.1-2.4,0.3c-0.7,0-1.5,0.1-2.4,0.3c-0.7,0-1.5,0-2.4,0c-0.7,0.2-1.4,0.3-2.1,0.3
			c-0.9,0-1.7,0-2.4,0c-0.9,0-1.7,0-2.4,0c-0.9,0-1.7,0-2.4,0c-0.9,0-1.7,0-2.4,0c-0.9-0.2-1.7-0.3-2.4-0.3
			c-0.9-0.2-1.7-0.3-2.4-0.3c-0.9-0.2-1.7-0.3-2.4-0.3c-0.9-0.2-1.7-0.4-2.4-0.5c-0.7,0-1.5-0.1-2.4-0.3c-0.7-0.2-1.5-0.4-2.4-0.5
			c-0.7-0.2-1.5-0.3-2.4-0.5c-0.7-0.2-1.5-0.4-2.4-0.8c-0.7-0.2-1.4-0.3-2.1-0.5c-0.9-0.2-1.7-0.4-2.4-0.8c-0.9-0.2-1.7-0.4-2.4-0.8
			c-0.7-0.3-1.5-0.6-2.4-0.8c-0.7-0.3-1.4-0.7-2.1-1c-0.9-0.4-1.7-0.6-2.4-0.8c-0.7-0.3-1.5-0.7-2.4-1c-0.7-0.3-1.4-0.8-2.1-1.3
			c-0.9-0.3-1.7-0.7-2.4-1c-0.7-0.3-1.4-0.8-2.1-1.3c-0.7-0.4-1.5-0.8-2.4-1.3c-0.7-0.3-1.4-0.8-2.1-1.3c-0.7-0.3-1.4-0.8-2.1-1.3
			c-0.7-0.5-1.4-1-2.1-1.6s-1.5-1-2.4-1.6c-0.7-0.5-1.4-1.1-2.1-1.6c-0.7-0.5-1.3-1-1.8-1.6c-0.7-0.5-1.4-1-2.1-1.6
			c-0.7-0.7-1.4-1.3-2.1-1.8c-0.7-0.7-1.4-1.3-2.1-1.8c-0.7-0.7-1.3-1.3-1.8-1.8c-0.7-0.7-1.4-1.4-2.1-2.1c-0.7-0.7-1.3-1.4-1.8-2.1
			c-0.7-0.5-1.4-1.1-2.1-1.8c-0.5-0.7-1.1-1.5-1.8-2.4c-0.5-0.7-1.1-1.4-1.8-2.1c-0.5-0.7-1.1-1.5-1.8-2.4c-0.5-0.7-1.1-1.4-1.8-2.1
			c-0.5-0.9-1-1.7-1.6-2.4c-0.7-0.9-1.3-1.8-1.8-2.6c-0.5-0.7-1-1.5-1.6-2.4c-0.5-0.9-1-1.7-1.6-2.6c-0.7-0.9-1.3-1.8-1.8-2.6
			c-0.5-0.9-1-1.7-1.6-2.6c-0.5-0.9-1-1.8-1.6-2.9c-0.4-0.9-0.8-1.7-1.3-2.6c-0.5-1-1.1-2-1.6-2.9c-0.5-1-1-2-1.3-2.9
			c-0.5-1-1-2.1-1.6-3.2c-0.4-0.9-0.8-1.8-1.3-2.9c-0.4-1-0.8-2.1-1.3-3.2c-0.3-1-0.7-2.1-1-3.1c-0.5-1-1-2.1-1.3-3.2
			c-0.4-1-0.7-2.2-1-3.4c-0.4-1-0.7-2.1-1-3.2c-0.5-1.2-1-2.4-1.3-3.4c-0.4-1.2-0.6-2.4-0.8-3.4c-0.3-1.2-0.7-2.4-1-3.7
			c-0.4-1.2-0.7-2.4-1-3.4c-0.2-1.2-0.4-2.5-0.8-3.7c-0.2-1.2-0.4-2.4-0.8-3.7c-0.2-1.2-0.4-2.5-0.8-3.9c-0.2-1.2-0.4-2.4-0.5-3.7
			c-0.4-1.4-0.6-2.7-0.8-3.9c-0.2-1.2-0.3-2.5-0.5-3.9c-0.2-1.2-0.3-2.5-0.5-3.9s-0.4-2.7-0.5-3.9c-0.2-1.4-0.3-2.8-0.3-4.2
			c-0.2-1.4-0.4-2.8-0.5-4.2c0-1.4-0.1-2.8-0.3-4.2c0-1.4-0.1-2.8-0.3-4.2c0-1.6,0-3.1,0-4.5c-0.2-1.4-0.3-2.9-0.3-4.5
			c0-1.4,0-2.9,0-4.5c0-1.2,0-2.5,0-3.9c0.2-1.2,0.3-2.4,0.3-3.7c0-1.4,0.1-2.7,0.3-3.9c0-1.2,0.1-2.5,0.3-3.7
			c0-1.4,0.1-2.7,0.3-3.9c0.2-1.2,0.3-2.5,0.5-3.7c0.2-1.2,0.3-2.4,0.5-3.4c0.2-1.2,0.3-2.5,0.5-3.7c0.2-1.2,0.4-2.4,0.5-3.4
			c0.4-1.2,0.6-2.4,0.8-3.7c0.3-1,0.6-2.2,0.8-3.4c0.3-1,0.6-2.1,0.8-3.1c0.3-1.2,0.7-2.4,1-3.4c0.3-1,0.7-2.1,1-3.1
			c0.3-1.2,0.7-2.4,1-3.4c0.4-1,0.7-2.1,1.1-3.1c0.3-1.1,0.8-2,1.3-2.9c0.3-1,0.7-2.1,1-3.1c0.5-1.1,1-2,1.3-2.9c0.5-1,1-2,1.3-2.9
			c0.5-1.1,1.1-2,1.6-2.9c0.5-1,1-2,1.3-2.9c0.5-0.9,1-1.8,1.6-2.9c0.5-0.9,1-1.7,1.6-2.6c0.5-0.9,1.1-1.8,1.6-2.6
			c0.7-0.9,1.3-1.7,1.8-2.6c0.5-0.9,1-1.7,1.6-2.4c0.7-0.9,1.3-1.7,1.8-2.6c0.5-0.9,1.1-1.7,1.8-2.4c0.5-0.9,1.1-1.7,1.8-2.4
			c0.7-0.9,1.3-1.7,1.8-2.4c0.7-0.7,1.4-1.4,2.1-2.1c0.5-0.9,1.1-1.7,1.8-2.4c0.7-0.7,1.4-1.4,2.1-2.1s1.4-1.4,2.1-2.1
			c0.7-0.7,1.4-1.4,2.1-2.1c0.7-0.5,1.4-1.1,2.1-1.8s1.4-1.3,2.1-1.8c0.7-0.7,1.4-1.3,2.1-1.8c0.9-0.7,1.7-1.3,2.4-1.8
			c0.7-0.5,1.4-1,2.1-1.6c0.9-0.7,1.7-1.3,2.4-1.8c0.9-0.5,1.7-1,2.4-1.6c0.7-0.5,1.5-1,2.4-1.6c0.7-0.5,1.5-1,2.4-1.3
			c0.7-0.5,1.5-1.1,2.4-1.6c0.7-0.3,1.5-0.8,2.4-1.3c0.9-0.3,1.7-0.8,2.4-1.3c0.9-0.3,1.7-0.8,2.6-1.3c0.7-0.4,1.5-0.7,2.4-1.1
			c0.9-0.3,1.7-0.7,2.4-1c0.9-0.3,1.7-0.7,2.6-1c0.7-0.3,1.5-0.7,2.4-1c0.9-0.3,1.7-0.7,2.6-1c0.9-0.2,1.7-0.4,2.4-0.8
			c0.9-0.2,1.8-0.4,2.6-0.8c0.9-0.2,1.7-0.4,2.6-0.8c0.9-0.2,1.7-0.3,2.4-0.5c0.9-0.2,1.7-0.4,2.6-0.8c0.9-0.2,1.8-0.3,2.6-0.5
			c0.9-0.2,1.7-0.3,2.6-0.3c0.9-0.2,1.7-0.3,2.4-0.5c0.9-0.2,1.8-0.3,2.6-0.3c0.9-0.2,1.7-0.3,2.6-0.3c0.9-0.2,1.8-0.3,2.6-0.3
			c0.7-0.2,1.5-0.3,2.4-0.3c0.9,0,1.8,0,2.6,0c0.9,0,1.7,0,2.6,0c0.9,0,1.7,0,2.4,0c0.9,0,1.8,0,2.6,0c0.9,0,1.7,0.1,2.6,0.3
			c0.7,0,1.5,0.1,2.4,0.3c0.9,0,1.7,0.1,2.4,0.3c0.9,0,1.8,0.1,2.6,0.3c0.9,0.2,1.7,0.4,2.4,0.5c0.9,0.2,1.7,0.4,2.6,0.5
			c0.7,0.2,1.5,0.4,2.4,0.5c0.7,0.2,1.5,0.4,2.4,0.5c0.7,0.4,1.5,0.6,2.4,0.8c0.7,0.4,1.5,0.6,2.4,0.8c0.7,0.3,1.5,0.6,2.4,0.8
			c0.7,0.3,1.5,0.7,2.4,1c0.7,0.4,1.4,0.6,2.1,0.8c0.9,0.4,1.7,0.7,2.4,1c0.7,0.4,1.4,0.8,2.1,1.3c0.7,0.4,1.5,0.7,2.4,1.1
			c0.7,0.5,1.4,1,2.1,1.3c0.7,0.4,1.4,0.8,2.1,1.3c0.7,0.5,1.4,1,2.1,1.3c0.7,0.5,1.4,1,2.1,1.6c0.7,0.5,1.3,1.1,1.8,1.6
			c0.7,0.5,1.4,1,2.1,1.6s1.3,1,1.8,1.6c0.7,0.5,1.3,1.1,1.8,1.8c0.7,0.5,1.3,1.1,1.8,1.8c0.7,0.5,1.3,1.1,1.8,1.8
			c0.7,0.7,1.3,1.3,1.8,1.8c0.5,0.7,1.1,1.4,1.8,2.1c0.5,0.7,1,1.4,1.6,2.1c0.5,0.7,1,1.4,1.6,2.1c0.5,0.9,1.1,1.7,1.6,2.4
			c0.5,0.7,1,1.5,1.6,2.4c0.5,0.7,1,1.5,1.3,2.4c0.5,0.9,1,1.7,1.6,2.4c0.4,0.9,0.8,1.8,1.3,2.6c0.3,0.9,0.8,1.8,1.3,2.6
			c0.3,0.9,0.8,1.8,1.3,2.6c0.3,0.9,0.7,1.8,1,2.9c0.4,0.9,0.7,1.8,1,2.9c0.4,0.9,0.7,1.8,1.1,2.9c0.3,0.9,0.7,1.8,1,2.9
			c0.3,1,0.6,2.1,0.8,3.2C498.7,290.6,499,291.6,499.4,292.7z"/>
	</g>
	<g>
		<g>
			<g>
				<path d="M718.2,330.8c0.2,0.2,0.4,0.4,0.6,0.6c0.2,0.2,0.3,0.5,0.3,0.9c0.2,0.4,0.4,0.8,0.6,1.3c0,0.4,0.1,0.9,0.3,1.5
					c0.2,0.6,0.3,1.2,0.3,1.9c0,0.8,0.1,1.6,0.3,2.5c0,0.8,0,1.6,0,2.5c0.2,0.8,0.3,1.7,0.3,2.8c0,1,0,2.1,0,3.1
					c0.2,1.3,0.3,2.4,0.3,3.4c0,1.2,0,2.5,0,3.7s0,2.5,0,3.7c0,1.4,0,2.9,0,4.3c0,1.2,0,2.6,0,4c0,1.6,0,3.2,0,4.6
					c0,1.5-0.1,3-0.3,4.6c0,1.6,0,3.2,0,4.6c0,1.6,0,3.3,0,4.9c0,1.6,0,3.4,0,5.2c-0.2,1.6-0.3,3.3-0.3,4.9c0,1.9,0,3.6,0,5.2
					c0,1.9,0,3.7,0,5.5c0,1.7,0,3.4,0,5.3c-0.2,1.8-0.3,3.7-0.3,5.5s0,3.6,0,5.2c0,1.9,0,3.7,0,5.5c0,1.9,0,3.7,0,5.6s0,3.7,0,5.5
					s0,3.7,0,5.6c0.2,1.8,0.3,3.7,0.3,5.5c0,1.9,0,3.7,0,5.5c0.2,1.9,0.3,3.7,0.3,5.6c0,1.8,0.1,3.7,0.3,5.5c0,1.6,0.1,3.4,0.3,5.2
					c0,1.9,0.1,3.7,0.3,5.6c0.2,1.8,0.3,3.6,0.3,5.2c0.2,1.8,0.4,3.6,0.6,5.2c0,1.6,0.1,3.4,0.3,5.2c0.2,1.6,0.3,3.3,0.3,4.9
					c0.2,1.6,0.4,3.3,0.6,4.9c0,1.6,0.1,3.2,0.3,4.6c0.2,1.6,0.3,3.2,0.3,4.6c0.2,1.4,0.3,2.9,0.3,4.3c0.2,1.5,0.4,2.9,0.6,4.3
					c0,1.2,0.1,2.6,0.3,4c0,1.2,0.1,2.5,0.3,3.7c0,1.2,0,2.4,0,3.4c0.2,1.3,0.3,2.4,0.3,3.4c0,1,0.1,2,0.3,3.1c0,0.8,0,1.7,0,2.8
					c0,0.8,0,1.6,0,2.5c0,0.6,0,1.3,0,2.2c0,0.4-0.1,0.9-0.3,1.5c0,0.6,0,1.1,0,1.6c-0.2,0.4-0.3,0.8-0.3,1.2
					c-0.2,0.2-0.4,0.4-0.6,0.6c0,0.2-0.2,0.3-0.6,0.3c-0.4,0.2-0.8,0.3-1.2,0.3c-0.8,0.2-1.5,0.3-2.1,0.3c-1,0-2,0.1-3,0.3
					c-1.2,0-2.3,0-3.3,0c-1.4,0.2-2.8,0.3-4.2,0.3c-1.4,0-2.9,0-4.5,0c-1.6,0.2-3.2,0.3-4.8,0.3s-3.2,0-4.8,0c-1.8,0-3.6,0-5.4,0
					c-1.8,0-3.6,0-5.4,0s-3.6,0-5.4,0c-1.6,0-3.3,0-5.1,0c-1.8,0-3.5-0.1-5.1-0.3c-1.6,0-3.2,0-4.8,0s-3.1-0.1-4.5-0.3
					c-1.4,0-2.8,0-4.2,0c-1.2-0.2-11.1,0.5-17.3-0.9c-6.2-1.5-7.6-5.8-7.8-8.2c-0.2-0.8-11.9,8.9-24.4,10.4c0,0-2.3,0.4-3.3,0.6
					c-1.2,0.2-2.4,0.4-3.6,0.6c-1,0-2.1,0.1-3.3,0.3c-1.2,0-2.4,0-3.6,0c-1.2,0-2.4,0-3.6,0s-2.4-0.1-3.6-0.3
					c-1.2,0-2.4-0.1-3.6-0.3c-1.2-0.2-2.4-0.4-3.6-0.6c-1.4-0.2-2.7-0.4-3.9-0.6c-1.2-0.4-2.4-0.7-3.6-0.9c-1.2-0.4-2.4-0.8-3.6-1.2
					c-1.2-0.4-2.4-0.8-3.6-1.3c-1.2-0.6-2.4-1.1-3.6-1.5c-1.2-0.6-2.3-1.2-3.3-1.9c-1.2-0.6-2.4-1.2-3.6-1.9
					c-1.2-0.6-2.3-1.3-3.3-2.2c-1.2-0.8-2.3-1.6-3.3-2.5c-1.2-0.8-2.3-1.6-3.3-2.5c-1-1-2.1-2-3.3-2.8c-1-1-2-2.1-3-3.1
					c-1-1-2-2.2-3-3.4c-0.8-1-1.7-2.2-2.7-3.4c-1-1.2-1.9-2.5-2.7-3.7c-0.8-1.4-1.6-2.9-2.4-4.3c-1-1.2-1.8-2.6-2.4-4
					c-0.8-1.4-1.5-2.9-2.1-4.3c-0.8-1.4-1.5-2.9-2.1-4.3c-0.6-1.4-1.2-2.9-1.8-4.3c-0.6-1.4-1.2-2.9-1.8-4.3
					c-0.4-1.6-0.9-3.2-1.5-4.6c-0.4-1.4-0.8-3-1.2-4.6c-0.6-1.4-1.1-2.9-1.5-4.3c-0.4-1.6-0.7-3.2-0.9-4.6c-0.4-1.6-0.8-3.3-1.2-4.9
					c-0.2-1.4-0.5-3-0.9-4.6c-0.2-1.4-0.4-3-0.6-4.6c-0.2-1.6-0.4-3.2-0.6-4.6c-0.2-1.6-0.4-3.3-0.6-4.9c-0.2-1.4-0.4-3-0.6-4.6
					c0-1.6-0.1-3.2-0.3-4.6c0-1.6-0.1-3.2-0.3-4.6c0-1.6,0-3.3,0-4.9c0-1.4,0-3,0-4.6c-0.2-1.4-0.2-3,0-4.6c0-1.4,0-3,0-4.6
					c0-1.4,0-3,0-4.6c0.2-1.4,0.3-2.9,0.3-4.3c0.2-1.4,0.3-3,0.3-4.6c0.2-1.4,0.4-2.9,0.6-4.3c0-1.4,0.1-2.9,0.3-4.3
					c0.2-1.4,0.4-2.9,0.6-4.3c0.2-1.2,0.4-2.6,0.6-4c0.2-1.4,0.4-2.8,0.6-4c0.2-1.4,0.4-2.8,0.6-4c0.2-1.4,0.4-2.8,0.6-4
					c0.2-1.2,0.4-2.5,0.6-3.7c0.4-1.2,0.7-2.5,0.9-3.7s0.4-2.5,0.6-3.7c0.4-1,0.7-2.2,0.9-3.4c0.2-1,0.5-2,0.9-3.1
					c0.2-1,0.5-2.2,0.9-3.4c0.2-0.8,0.4-1.7,0.6-2.8c0.4-1,0.7-2,0.9-3.1c0.4-0.8,0.7-1.6,0.9-2.5c0.2-0.8,0.5-1.7,0.9-2.8
					c0.2-0.6,0.5-1.3,0.9-2.2c0.2-0.8,0.5-1.5,0.9-2.2c0.2-0.8,0.4-1.5,0.6-2.2c0.4-0.6,0.7-1.2,0.9-1.9c0.2-0.4,0.5-0.9,0.9-1.5
					c0.2-0.4,0.4-0.9,0.6-1.6c0.2-0.4,0.5-0.8,0.9-1.2c0.2-0.2,0.4-0.5,0.6-0.9c0.2-0.2,0.4-0.4,0.6-0.6c0.2-0.2,0.4-0.4,0.6-0.6
					c0.2-0.2,0.4-0.3,0.6-0.3c0.8-0.2,1.6-0.4,2.4-0.6c1-0.2,2-0.4,3-0.6c1.4-0.2,2.7-0.4,3.9-0.6c1.4,0,2.8-0.1,4.2-0.3
					c1.6,0,3.2-0.1,4.8-0.3c1.6,0,3.2-0.1,4.8-0.3c1.8,0,3.5,0,5.2,0c1.6,0,3.3,0,5.1,0c1.6,0,3.2,0,4.8,0c1.4,0,2.9,0.1,4.5,0.3
					c1.4,0,2.8,0,4.2,0c1.2,0.2,2.3,0.3,3.3,0.3c1,0.2,2,0.4,3,0.6c0.8,0,20.4,0.5,24.4,8.2c4,7.7-6.8,102,11.7,102
					c18.5,0,11.9-94.4,15.6-100.5s20.4-6.9,20.4-7.2c0.4-0.2,0.7-0.4,0.9-0.6c0.8-0.2,1.5-0.3,2.1-0.3c0.8-0.2,1.7-0.4,2.7-0.6
					c1.2-0.2,2.4-0.4,3.6-0.6c1.4,0,2.8-0.1,4.2-0.3c1.4-0.2,2.9-0.3,4.5-0.3c1.6-0.2,3.3-0.3,5.1-0.3c1.6-0.2,3.3-0.3,5.1-0.3
					s3.6-0.1,5.4-0.3c1.8,0,3.6,0,5.4,0c1.6,0,3.3,0,5.1,0c1.6,0,3.2,0,4.8,0c1.6,0.2,3.2,0.3,4.8,0.3c1.2,0,2.5,0.1,3.9,0.3
					c1.2,0.2,2.4,0.3,3.6,0.3c0.8,0.2,1.7,0.4,2.7,0.6C717,330.4,717.6,330.6,718.2,330.8z"/>
			</g>
		</g>
		<path fill="#FFFFFF" d="M698.8,361.8c0.2,0.1,0.3,0.3,0.5,0.4c0.2,0.2,0.2,0.4,0.2,0.7c0.2,0.3,0.3,0.6,0.5,0.9
			c0,0.3,0.1,0.7,0.2,1.1c0.2,0.4,0.2,0.9,0.2,1.4c0,0.6,0.1,1.2,0.3,1.8c0,0.6,0,1.2,0,1.8c0.2,0.6,0.2,1.3,0.2,2
			c0,0.8,0,1.5,0,2.3c0.2,0.9,0.2,1.7,0.2,2.5c0,0.9,0,1.8,0,2.7s0,1.8,0,2.7c0,1,0,2.1,0,3.2c0,0.9,0,1.9,0,2.9c0,1.2,0,2.4,0,3.4
			c0,1-0.1,2.2-0.2,3.4c0,1.2,0,2.3,0,3.4c0,1.2,0,2.4,0,3.6c0,1.2,0,2.5,0,3.8c-0.2,1.2-0.2,2.4-0.2,3.6c0,1.3,0,2.6,0,3.8
			c0,1.4,0,2.7,0,4.1c0,1.2,0,2.5,0,3.8c-0.2,1.3-0.3,2.7-0.3,4.1c0,1.3,0,2.6,0,3.8c0,1.3,0,2.7,0,4.1s0,2.7,0,4.1s0,2.7,0,4.1
			c0,1.4,0,2.7,0,4.1c0.2,1.4,0.3,2.7,0.3,4.1c0,1.3,0,2.7,0,4.1c0.2,1.3,0.2,2.7,0.2,4.1c0,1.4,0.1,2.7,0.2,4.1
			c0,1.2,0.1,2.5,0.2,3.8c0,1.4,0.1,2.7,0.3,4.1c0.2,1.4,0.2,2.7,0.2,3.8c0.2,1.4,0.3,2.6,0.5,3.8c0,1.2,0.1,2.5,0.2,3.8
			c0.2,1.2,0.2,2.4,0.2,3.6c0.2,1.2,0.3,2.4,0.5,3.6c0,1.2,0.1,2.3,0.2,3.4c0.2,1.2,0.2,2.3,0.2,3.4c0.2,1,0.3,2.1,0.3,3.2
			c0.2,1,0.3,2.1,0.5,3.2c0,0.9,0.1,1.9,0.2,2.9c0,0.9,0.1,1.8,0.3,2.7c0,0.9,0,1.7,0,2.5c0.2,0.9,0.2,1.7,0.2,2.5s0.1,1.5,0.2,2.3
			c0,0.6,0,1.3,0,2c0,0.6,0,1.2,0,1.8c0,0.5,0,1,0,1.6c0,0.3-0.1,0.7-0.2,1.1c0,0.4,0,0.8,0,1.1c-0.2,0.3-0.2,0.6-0.2,0.9
			c-0.2,0.1-0.3,0.3-0.5,0.5c0,0.1-0.2,0.2-0.5,0.2c-0.3,0.1-0.7,0.2-1,0.2c-0.6,0.2-1.2,0.2-1.7,0.2c-0.8,0-1.7,0.1-2.5,0.2
			c-1,0-1.9,0-2.7,0c-1.2,0.1-2.3,0.2-3.5,0.2c-1.2,0-2.4,0-3.7,0c-1.3,0.1-2.6,0.2-4,0.2c-1.3,0-2.6,0-4,0c-1.5,0-3,0-4.5,0
			c-1.5,0-3,0-4.5,0c-1.5,0-3,0-4.5,0c-1.3,0-2.7,0-4.2,0c-1.5,0-2.9-0.1-4.2-0.2c-1.3,0-2.6,0-4,0c-1.3,0-2.6-0.1-3.7-0.2
			c-1.2,0-2.3,0-3.5,0c-1-0.1-2-0.2-3-0.2c-0.8-0.2-1.7-0.2-2.5-0.2c-0.7-0.1-1.3-0.3-2-0.4c-0.3,0-0.7-0.1-1.3-0.2
			c-0.6-0.3-1.4-0.6-2.2-0.9c-0.5-0.1-0.9-0.4-1.3-0.9c-0.3-0.4-0.6-1-0.7-1.6c-0.3-1.2,0.2-7.2,0-9c-0.2-0.6-0.6-0.1-1.5,1.6
			c-0.3,0.4-0.8,1-1.5,1.6c-0.5,0.4-1.1,0.9-1.7,1.3c-0.5,0.5-1.1,0.9-1.7,1.4c-0.7,0.5-1.3,0.9-2,1.4c-0.7,0.4-1.3,0.9-2,1.4
			c-0.8,0.3-1.6,0.7-2.2,1.1c-0.7,0.3-1.4,0.6-2.2,0.9c-0.8,0.5-1.7,0.8-2.5,1.1c-0.8,0.3-1.7,0.5-2.5,0.7c-0.8,0.3-1.7,0.6-2.5,0.9
			c-1,0.1-1.9,0.4-2.8,0.7c-0.8,0.2-1.7,0.3-2.7,0.5c-1,0.1-1.9,0.3-2.7,0.5c-1,0.1-2,0.3-3,0.4c-0.8,0-1.7,0.1-2.8,0.2
			c-1,0-2,0-3,0s-2,0-3,0c-1,0-2-0.1-3-0.2c-1,0-2-0.1-3-0.2c-1-0.1-2-0.3-3-0.5c-1.2-0.1-2.2-0.3-3.2-0.4c-1-0.3-2-0.5-3-0.7
			c-1-0.3-2-0.6-3-0.9c-1-0.3-2-0.6-3-0.9c-1-0.5-2-0.8-3-1.1c-1-0.4-1.9-0.9-2.8-1.4c-1-0.4-2-0.9-3-1.3c-1-0.5-1.9-1-2.7-1.6
			c-1-0.6-1.9-1.2-2.7-1.8c-1-0.6-1.9-1.2-2.8-1.8c-0.8-0.8-1.7-1.4-2.7-2c-0.8-0.7-1.7-1.5-2.5-2.2c-0.8-0.8-1.7-1.6-2.5-2.5
			c-0.7-0.8-1.4-1.6-2.2-2.5c-0.8-0.9-1.6-1.8-2.2-2.7c-0.6-1-1.3-2.1-2-3.2c-0.8-0.9-1.5-1.9-2-2.9c-0.7-1-1.3-2.1-1.7-3.2
			c-0.7-1-1.3-2.1-1.7-3.2c-0.5-1-1-2.1-1.5-3.2c-0.5-1-1-2.1-1.5-3.2c-0.3-1.2-0.7-2.3-1.2-3.4c-0.3-1.1-0.7-2.2-1-3.4
			c-0.5-1-0.9-2.1-1.3-3.2c-0.3-1.2-0.6-2.3-0.7-3.4c-0.3-1.2-0.6-2.4-1-3.6c-0.2-1-0.4-2.2-0.7-3.4c-0.2-1-0.3-2.2-0.5-3.4
			c-0.2-1.2-0.3-2.3-0.5-3.4c-0.2-1.2-0.3-2.4-0.5-3.6c-0.2-1.1-0.3-2.2-0.5-3.4c0-1.2-0.1-2.3-0.2-3.4c0-1.2-0.1-2.3-0.3-3.4
			c0-1.2,0-2.4,0-3.6c0-1,0-2.2,0-3.4c-0.2-1-0.2-2.2,0-3.4c0-1,0-2.2,0-3.4c0-1,0-2.2,0-3.4c0.2-1,0.3-2.1,0.3-3.2
			c0.2-1,0.2-2.2,0.2-3.4c0.2-1,0.3-2.1,0.5-3.2c0-1,0.1-2.1,0.2-3.2c0.2-1,0.3-2.1,0.5-3.2c0.2-0.9,0.3-1.9,0.5-2.9
			c0.2-1.1,0.3-2,0.5-2.9c0.2-1,0.3-2,0.5-2.9c0.2-1,0.3-2,0.5-2.9c0.2-0.9,0.3-1.8,0.5-2.7c0.3-0.9,0.6-1.8,0.7-2.7
			c0.2-0.9,0.3-1.8,0.5-2.7c0.3-0.8,0.6-1.6,0.7-2.5c0.2-0.8,0.4-1.5,0.7-2.3c0.2-0.8,0.4-1.6,0.7-2.5c0.2-0.6,0.3-1.3,0.5-2
			c0.3-0.8,0.6-1.5,0.7-2.3c0.3-0.6,0.6-1.2,0.7-1.8c0.2-0.6,0.4-1.3,0.7-2c0.2-0.4,0.4-1,0.7-1.6c0.2-0.6,0.4-1.1,0.7-1.6
			c0.2-0.6,0.3-1.1,0.5-1.6c0.3-0.4,0.6-0.9,0.7-1.3c0.2-0.3,0.4-0.7,0.7-1.1c0.2-0.3,0.3-0.7,0.5-1.1c0.2-0.3,0.4-0.6,0.7-0.9
			c0.2-0.1,0.3-0.4,0.5-0.7c0.2-0.1,0.3-0.3,0.5-0.5c0.2-0.1,0.3-0.3,0.5-0.4c0.2-0.1,0.3-0.2,0.3-0.2c0.8-0.1,1.5-0.3,2.2-0.4
			c0.8-0.1,1.6-0.3,2.5-0.5c1.2-0.1,2.2-0.3,3.2-0.4c1.2,0,2.3-0.1,3.5-0.2c1.3,0,2.6-0.1,4-0.2c1.3,0,2.6-0.1,4-0.2
			c1.5,0,2.9,0,4.2,0c1.3,0,2.8,0,4.2,0c1.3,0,2.6,0,4,0c1.2,0,2.4,0.1,3.7,0.2c1.2,0,2.3,0,3.5,0c1,0.1,1.9,0.2,2.7,0.2
			c0.8,0.2,1.7,0.3,2.5,0.5c0.7,0,1.3,0.1,1.7,0.2c0.3,0.1,0.7,0.3,1,0.5c0,0.1,0,0.3,0,0.4c0,0.2,0,0.3,0,0.5c0,0.3,0,0.6,0,0.9
			c0,0.3,0,0.7,0,1.1c0,0.4-0.1,0.9-0.2,1.3c0,0.6-0.1,1.1-0.2,1.6c0,0.6-0.1,1.2-0.2,1.8c0,0.8-0.1,1.4-0.3,2
			c0,0.8-0.1,1.5-0.2,2.3c-0.2,0.8-0.2,1.6-0.2,2.5c-0.2,0.8-0.3,1.6-0.5,2.5c-0.2,0.9-0.2,1.8-0.2,2.7c-0.2,1-0.3,2-0.5,2.9
			c-0.2,1-0.2,2-0.2,2.9c-0.2,1.1-0.3,2.1-0.5,3.2c0,1.1-0.1,2.1-0.2,3.2c-0.2,1.1-0.2,2.2-0.2,3.4c-0.2,1-0.3,2.2-0.5,3.4
			c0,1-0.1,2.2-0.2,3.4c0,1.1,0,2.2,0,3.4c-0.2,1.2-0.2,2.4-0.2,3.6c0,1.2,0,2.3,0,3.4c-0.2,1.2-0.3,2.4-0.3,3.6c0,1.2,0,2.4,0,3.6
			c0.2,1,0.3,2.2,0.3,3.4c0,1.2,0.1,2.4,0.2,3.6c0,1,0.1,2.2,0.2,3.4c0,1,0.1,2.2,0.3,3.4c0.2,1.1,0.3,2.1,0.5,3.2
			c0.2,1.1,0.4,2.1,0.7,3.2c0.2,1.1,0.3,2.1,0.5,3.2c0.3,1.1,0.6,2,1,2.9c0.3,1.1,0.6,2,1,2.9c0.3,0.9,0.7,1.8,1,2.7
			c0.3,0.9,0.7,1.7,1.2,2.5c0.5,0.9,1,1.7,1.5,2.5c0.5,0.8,1,1.5,1.5,2.3c0.5,0.8,1.1,1.4,1.7,2c0.5,0.6,1.1,1.2,1.7,1.8
			c0.7,0.6,1.4,1.1,2.2,1.6c0.6,0.4,1.4,0.9,2.2,1.3c0.8,0.5,1.7,0.8,2.5,1.1c0.8,0.3,1.7,0.6,2.5,0.9c1,0.1,2,0.3,3,0.4
			c1,0.2,2,0.3,3,0.5c0.8,0,1.7-0.1,2.7-0.2c0.8,0,1.7-0.1,2.5-0.2c0.8-0.3,1.7-0.6,2.5-0.9c0.8-0.3,1.6-0.6,2.2-0.9
			c0.8-0.4,1.6-0.9,2.2-1.4c0.7-0.4,1.3-1,2-1.6c0.7-0.6,1.3-1.2,1.7-1.8c0.7-0.8,1.3-1.5,1.7-2.3c0.7-0.8,1.3-1.5,1.7-2.3
			c0.5-0.9,1-1.8,1.5-2.7c0.3-0.9,0.7-1.8,1.2-2.7c0.5-0.9,0.9-1.9,1.3-2.9c0.3-0.9,0.7-1.9,1-2.9c0.5-1,0.9-2.2,1.2-3.4
			c0.2-1.1,0.4-2.2,0.7-3.4c0.3-1,0.7-2.2,1-3.4c0.2-1.2,0.4-2.4,0.7-3.6c0.2-1.2,0.3-2.4,0.5-3.6c0.2-1.2,0.4-2.4,0.7-3.6
			c0.2-1.4,0.3-2.6,0.5-3.8c0.2-1.2,0.3-2.5,0.3-3.8c0.2-1.2,0.3-2.4,0.5-3.6c0.2-1.4,0.3-2.6,0.3-3.8c0.2-1.2,0.2-2.5,0.2-3.8
			c0.2-1.2,0.2-2.4,0.2-3.6c0.2-1.2,0.2-2.4,0.2-3.6c0-1.2,0.1-2.4,0.3-3.6c0-1.2,0-2.4,0-3.6c0-1.1,0.1-2.2,0.2-3.4
			c0-1,0-2.1,0-3.2c0-1,0-2.1,0-3.2c0-0.9,0-1.9,0-2.9c0-0.9,0-1.8,0-2.7c0.2-0.9,0.2-1.8,0.2-2.7c0-0.7,0-1.6,0-2.5
			c0-0.6,0-1.3,0-2c0-0.6,0-1.3,0-2c0-0.4,0.1-1,0.3-1.6c0-0.4,0-0.9,0-1.4c0-0.4,0.1-0.8,0.2-1.1c0-0.3,0-0.6,0-0.9
			c0.2-0.1,0.2-0.3,0.2-0.5c0.3-0.1,0.6-0.3,0.7-0.4c0.7-0.1,1.2-0.2,1.7-0.2c0.7-0.1,1.4-0.3,2.2-0.4c1-0.1,2-0.3,3-0.5
			c1.2,0,2.3-0.1,3.5-0.2c1.2-0.1,2.4-0.2,3.7-0.2c1.3-0.1,2.8-0.2,4.2-0.2c1.3-0.1,2.7-0.2,4.2-0.2s3-0.1,4.5-0.2c1.5,0,3,0,4.5,0
			c1.3,0,2.7,0,4.2,0c1.3,0,2.6,0,4,0c1.3,0.1,2.6,0.2,4,0.2c1,0,2.1,0.1,3.2,0.2c1,0.2,2,0.2,3,0.2c0.7,0.1,1.4,0.3,2.2,0.4
			C697.8,361.4,698.3,361.6,698.8,361.8z"/>
	</g>
</g>
</svg>
