<?xml version="1.0" encoding="utf-8"?>
<!-- Generator: Adobe Illustrator 18.0.0, SVG Export Plug-In . SVG Version: 6.00 Build 0)  -->
<!DOCTYPE svg PUBLIC "-//W3C//DTD SVG 1.1//EN" "http://www.w3.org/Graphics/SVG/1.1/DTD/svg11.dtd">
<svg version="1.1" id="Camada_1" xmlns="http://www.w3.org/2000/svg" xmlns:xlink="http://www.w3.org/1999/xlink" x="0px" y="0px"
	 viewBox="0 0 1024 768" enable-background="new 0 0 1024 768" xml:space="preserve">
<g>
	<defs>
		<circle id="SVGID_1_" cx="511.9" cy="383.4" r="375.7"/>
	</defs>
	<clipPath id="SVGID_2_">
		<use xlink:href="#SVGID_1_"  overflow="visible"/>
	</clipPath>
	<g clip-path="url(#SVGID_2_)" enable-background="new    ">
		
			<image overflow="visible" width="2474" height="2474" xlink:href="../../banco de imagens/botões/butt 25.png"  transform="matrix(0.3065 0 0 0.3065 132.8006 4.7999)">
		</image>
	</g>
</g>
<g>
	<g>
		<path d="M344.1,199.9c0.2-0.2,0.5-0.4,0.9-0.6c0.4-0.2,0.9-0.3,1.5-0.3c0.4-0.2,0.9-0.4,1.5-0.6c0.8-0.2,1.5-0.3,2.1-0.3
			c0.8-0.2,1.6-0.4,2.4-0.6c0.8,0,1.7-0.1,2.7-0.3c1-0.2,1.9-0.3,2.7-0.3c1.2-0.2,2.3-0.3,3.3-0.3c1.2-0.2,2.4-0.3,3.7-0.3
			c1.2-0.2,2.4-0.3,3.7-0.3c1.2-0.2,2.5-0.3,4-0.3c1.4-0.2,2.8-0.3,4.3-0.3c1.4-0.2,2.8-0.3,4.3-0.3c1.4,0,4.6-0.3,4.6-0.3
			s3.1,0,4.6,0c1.6-0.2,3.2-0.3,4.9-0.3c1.8,0,3.5,0,5.2,0c1.6,0,3.3-0.1,5.2-0.3c1.6,0,3.3,0,5.2,0c1.8,0,3.7,0,5.5,0
			c1.8,0,3.5-0.1,5.2-0.3c1.8,0,3.8,0,5.8,0c1.8,0,3.6,0,5.5,0c1.8,0,3.7,0,5.5,0c1.8,0,3.6,0,5.5,0c2,0,4,0,5.8,0
			c1.8,0,3.7,0,5.5,0c1.8,0,3.7,0,5.5,0c1.8,0,3.7,0.1,5.5,0.3c1.8,0,3.7,0,5.5,0c1.8,0,3.7,0,5.5,0s3.7,0,5.5,0
			c1.6,0.2,3.3,0.3,5.2,0.3c1.6,0,3.2,0,4.9,0c1.8,0,3.5,0.1,5.2,0.3c1.6,0,3.2,0,4.9,0c1.4,0,2.9,0.1,4.6,0.3c1.4,0,2.9,0,4.6,0
			c1.4,0.2,2.8,0.3,4.3,0.3c1.2,0,2.5,0.1,4,0.3c1.4,0,2.7,0,4,0c1.2,0.2,2.4,0.3,3.7,0.3c1,0,2.1,0.1,3.4,0.3c1,0,2,0,3,0
			c1,0.2,2,0.3,3,0.3c0.8,0.2,1.6,0.3,2.4,0.3c0.8,0,1.5,0.1,2.1,0.3c0.6,0,1.3,0.1,2.1,0.3c0.4,0,0.9,0.1,1.5,0.3
			c0.4,0,0.8,0,1.2,0c0.2,0.2,0.5,0.3,0.9,0.3l0.3,0.3c0.2,0.4,0.4,0.8,0.6,1.2c0.2,0.4,0.3,0.9,0.3,1.5c0.2,0.8,0.3,1.6,0.3,2.4
			c0.2,1,0.3,2,0.3,3c0.2,1.2,0.3,2.3,0.3,3.3c0,1.4,0,2.7,0,4c0,1.6,0,3.2,0,4.6c0,1.6,0,3.1,0,4.6c0,1.8-0.1,3.6-0.3,5.2
			c0,1.6,0,3.3,0,5.2c-0.2,1.8-0.3,3.7-0.3,5.5c-0.2,1.8-0.3,3.6-0.3,5.2c-0.2,1.8-0.3,3.7-0.3,5.5c-0.2,1.8-0.4,3.6-0.6,5.5
			c-0.2,1.8-0.3,3.7-0.3,5.5c-0.2,1.6-0.4,3.3-0.6,5.2c-0.2,1.6-0.4,3.2-0.6,4.9c-0.2,1.6-6.6,56.1-14.5,58.6c-6.4,2-55.4-9.5-74-14
			c-4.4-1.1-2,11.5,1.6,11.4c8.8-0.5,24.6-3.9,27.8-1.5c4.4,3.3,11.2,21.3,12.8,35.1c1.6,13.8-1.9,39.8-10.1,38.4
			c-3.3,0.4-12.8,3-17.5,2.9c-3.3-0.1,22.5,137.4,17.8,144.5c-4.7,7.1-38.2,7.5-39.4,7.8c-1.4,0-2.8,0-4.3,0
			c-1.4,0.2-2.8,0.3-4.3,0.3c-1.6,0-3.2,0.1-4.9,0.3c-1.6,0-3.2,0-4.9,0c-1.6,0-3.3,0-5.2,0c-1.6,0-3.3,0.1-5.2,0.3
			c-1.8,0-3.6,0-5.2,0c-1.8,0-3.7,0-5.5,0c-1.8-0.2-3.6-0.3-5.5-0.3c-1.8,0-3.7,0-5.5,0c-1.8,0-3.7,0-5.5,0c-1.8,0-3.7-0.1-5.5-0.3
			c-1.6,0-3.3,0-5.2,0c-1.6,0-3.2-0.1-4.9-0.3c-1.6,0-3.2,0-4.9,0c-1.6-0.2-3.2-0.3-4.9-0.3c-1.4,0-2.8-0.1-4.3-0.3
			c-1.4,0-2.7-0.1-4-0.3c-1.2,0-2.5,0-4,0c-1-0.2-2.1-0.3-3.3-0.3c-0.8-0.2-1.7-0.3-2.7-0.3c-0.8-0.2-1.6-0.3-2.4-0.3
			c-0.6-0.2-1.3-0.3-2.1-0.3c-0.4,0-0.8-0.1-1.2-0.3c-0.4,0-0.7-0.1-0.9-0.3l-0.3-0.3v-0.3c-0.2-0.2-0.3-0.4-0.3-0.6
			c0-0.4-0.1-0.7-0.3-0.9c0-0.4,0-0.8,0-1.2c0-0.4-0.1-0.8-0.3-1.2c0-0.6,0-1.1,0-1.5c-0.2-0.6-0.3-1.2-0.3-1.8s0-1.2,0-1.8
			c-0.2-0.8-0.3-1.5-0.3-2.1c0-0.8-0.1-1.6-0.3-2.4c0-0.8,0-1.6,0-2.4s-0.1-1.7-0.3-2.7c0-0.8,0-1.7,0-2.7c0-1-0.1-2-0.3-3
			c0-1,0-2,0-3c0-1.2-0.1-2.3-0.3-3.3c0-1.2,0-2.4,0-3.6c0-1.2-0.1-2.3-0.3-3.3c0-1.4,0-2.7,0-4c0-1.2,0-2.5,0-4
			c-0.2-1.2-0.3-2.5-0.3-4c0-1.4,0-2.7,0-4c0-1.4-0.1-2.8-0.3-4.3c0-1.6,0-3.1,0-4.6c0-1.4,0-2.8,0-4.3c-0.2-1.6-0.3-3.2-0.3-4.9
			c0-1.4,0-2.9,0-4.6c0-1.6-0.1-3.2-0.3-4.9c0-1.6,0-3.2,0-4.9c0-1.6,0-3.2,0-4.9c0-1.6-0.1-3.2-0.3-4.9c0-1.8,0-3.5,0-5.2
			c0-1.8,0-3.5,0-5.2c0-1.8,0-3.5,0-5.2c-0.2-1.8-0.3-3.6-0.3-5.5c0-1.8,0-3.5,0-5.2c0-1.8,0-3.7,0-5.5c0-1.8,0-3.7,0-5.5
			c0-1.8-0.1-3.7-0.3-5.5c0-1.8,0-3.6,0-5.5c0-1.8,0-3.7,0-5.5c0-2,0-4,0-5.8c0-1.8,0-3.7,0-5.5c0-1.8,0-3.6,0-5.5
			c0-2-0.1-4-0.3-5.8c0-1.8,0-3.7,0-5.5c0-1.8,0-3.8,0-5.8c0-1.8,0-3.7,0-5.5c0-1.8,0-3.6,0-5.5c0-2,0-4,0-5.8c0-1.8,0-3.6,0-5.5
			c0-1.8,0-3.7,0-5.5c0-1.8,0-3.7,0-5.5c0-1.8,0-3.7,0-5.5c0-1.8,0-3.7,0-5.5c0-1.6,0-3.3,0-5.2c0-1.8,0-3.7,0-5.5
			c0-1.6,0.1-3.3,0.3-5.2c0-1.6,0-3.3,0-5.2c0-1.6,0-3.3,0-5.2c0-1.6,0-3.2,0-4.9c0-1.6,0-3.2,0-4.9c0-1.6,0-3.2,0-4.9
			c0-1.6,0.1-3.2,0.3-4.9c0-1.6,0-3.2,0-4.9c0-1.4,0-2.9,0-4.6c0-1.4,0-2.8,0-4.3c0.2-1.6,0.3-3.1,0.3-4.6c0-1.4,0-2.8,0-4.3
			c0-1.2,0-2.5,0-4c0.2-1.4,0.3-2.7,0.3-4c0-1.4,0-2.7,0-4s0.1-2.5,0.3-4c0-1,0-2.1,0-3.3c0-1.2,0-2.4,0-3.7c0.2-1,0.3-2.1,0.3-3.3
			c0-1,0-2,0-3c0.2-1,0.3-2,0.3-3c0-0.8,0-1.7,0-2.7c0.2-0.8,0.3-1.7,0.3-2.7c0-0.8,0.1-1.6,0.3-2.4c0-0.8,0-1.6,0-2.4
			c0-0.6,0.1-1.3,0.3-2.1c0-0.6,0-1.2,0-1.8c0.2-0.6,0.3-1.2,0.3-1.8c0-0.4,0.1-0.9,0.3-1.5c0-0.4,0.1-0.8,0.3-1.2
			c0-0.4,0-0.7,0-0.9c0.2-0.4,0.3-0.7,0.3-0.9c0-0.4,0.1-0.7,0.3-0.9l0.3-0.3C343.7,200.3,343.9,200.1,344.1,199.9z"/>
		<path fill="#FFFFFF" d="M363.2,224.8c0.2-0.2,0.4-0.3,0.7-0.5c0.3-0.2,0.7-0.3,1.2-0.3c0.3-0.2,0.7-0.3,1.2-0.5
			c0.7-0.2,1.2-0.3,1.7-0.3c0.7-0.2,1.3-0.3,2-0.5c0.7,0,1.4-0.1,2.2-0.3c0.8-0.2,1.6-0.3,2.2-0.3c1-0.2,1.9-0.3,2.7-0.3
			c1-0.2,2-0.3,3-0.3c1-0.2,2-0.3,3-0.3c1-0.2,2.1-0.3,3.2-0.3c1.2-0.2,2.3-0.3,3.5-0.3c1.2-0.2,2.3-0.3,3.5-0.3s2.4-0.1,3.7-0.3
			c1.3,0,2.6,0,3.7,0c1.3-0.2,2.6-0.3,4-0.3c1.5,0,2.9,0,4.2,0c1.3,0,2.7-0.1,4.2-0.3c1.3,0,2.7,0,4.2,0c1.5,0,3,0,4.5,0
			c1.5,0,2.9-0.1,4.2-0.3c1.5,0,3.1,0,4.7,0c1.5,0,3,0,4.5,0c1.5,0,3,0,4.5,0c1.5,0,3,0,4.5,0c1.6,0,3.2,0,4.7,0c1.5,0,3,0,4.5,0
			s3,0,4.5,0s3,0.1,4.5,0.3c1.5,0,3,0,4.5,0s3,0,4.5,0s3,0,4.5,0c1.3,0.2,2.7,0.3,4.2,0.3c1.3,0,2.6,0,4,0c1.5,0,2.9,0.1,4.2,0.3
			c1.3,0,2.6,0,4,0c1.2,0,2.4,0.1,3.7,0.3c1.2,0,2.4,0,3.7,0c1.2,0.2,2.3,0.3,3.5,0.3c1,0,2.1,0.1,3.2,0.3c1.2,0,2.2,0,3.2,0
			c1,0.2,2,0.3,3,0.3c0.8,0,1.7,0.1,2.7,0.3c0.8,0,1.6,0,2.5,0c0.8,0.2,1.7,0.3,2.5,0.3c0.7,0.2,1.3,0.3,2,0.3
			c0.7,0,1.2,0.1,1.7,0.3c0.5,0,1.1,0.1,1.7,0.3c0.3,0,0.7,0.1,1.2,0.3c0.3,0,0.7,0,1,0c0.2,0.2,0.4,0.3,0.7,0.3l0.2,0.3
			c0.2,0.3,0.3,0.7,0.5,1c0.2,0.3,0.3,0.8,0.3,1.3c0.2,0.7,0.2,1.4,0.2,2.1c0.2,0.9,0.3,1.7,0.3,2.6c0.2,1,0.2,2,0.2,2.9
			c0,1.2,0,2.3,0,3.4c0,1.4,0,2.7,0,3.9c0,1.4,0,2.7,0,3.9c0,1.6-0.1,3-0.2,4.4c0,1.4,0,2.9,0,4.4c-0.2,1.6-0.3,3.1-0.3,4.7
			c-0.2,1.6-0.2,3-0.2,4.4c-0.2,1.6-0.3,3.1-0.3,4.7c-0.2,1.6-0.3,3.1-0.5,4.7c-0.2,1.6-0.2,3.1-0.2,4.7c-0.2,1.4-0.3,2.9-0.5,4.4
			c-0.2,1.4-0.3,2.8-0.5,4.2c-0.2,1.4-0.3,2.7-0.5,3.9c-0.2,1.2-0.3,2.4-0.5,3.6c-0.2,1.2-0.3,2.3-0.5,3.4c-0.2,0.9-0.3,1.8-0.5,2.9
			c-0.2,0.9-0.3,1.7-0.5,2.3c-0.2,0.7-0.4,1.3-0.7,1.8c-0.2,0.5-0.3,1-0.5,1.3c-0.2,0.4-0.3,0.6-0.5,0.8c-0.2,0-0.4,0-0.7,0
			c-0.3,0.2-0.7,0.3-1.2,0.3s-1,0-1.5,0c-0.7-0.2-1.3-0.3-2-0.3c-0.7,0-1.4-0.1-2.2-0.3c-0.8,0-1.7-0.1-2.5-0.3c-1-0.2-2-0.3-3-0.5
			c-1-0.2-2.1-0.3-3.2-0.5c-1.2-0.2-2.2-0.3-3.2-0.5c-1.3-0.2-2.6-0.3-3.7-0.5c-1.2-0.2-2.4-0.4-3.7-0.8c-1.3-0.2-2.6-0.3-4-0.5
			c-1.3-0.3-2.6-0.6-4-0.8c-1.3-0.3-2.6-0.6-4-0.8c-1.5-0.3-2.9-0.6-4.2-0.8c-1.3-0.3-2.7-0.6-4.2-0.8c-1.3-0.3-2.6-0.7-4-1
			c-1.5-0.2-2.9-0.4-4.2-0.8c-1.3-0.2-2.6-0.4-4-0.8c-1.3-0.3-2.6-0.6-4-0.8c-1.3-0.3-2.6-0.6-4-0.8c-1.2-0.3-2.4-0.6-3.7-0.8
			c-1.2-0.3-2.3-0.6-3.5-0.8c-1.2-0.2-2.2-0.4-3.2-0.8c-1-0.2-2-0.3-3-0.5c-1-0.3-2-0.6-3-0.8c-0.8,0-1.7-0.2-2.5-0.5
			c-0.7-0.2-1.3-0.3-2-0.3c-0.7-0.2-1.3-0.3-2-0.5c-0.8-0.3-1.2-0.4-1.2-0.3c-0.2,0.7-0.1,1.7,0.2,2.9c0.3,1,0.4,2.2,0.2,3.4
			c0.2,1.2,0.3,2.5,0.5,3.9c0.2,1.2,0.3,2.5,0.5,3.9c0.2,1.4,0.4,2.9,0.7,4.4c0.2,1.4,0.3,2.8,0.5,4.2c0.2,1.6,0.4,3,0.7,4.4
			c0.2,1.4,0.3,2.9,0.5,4.4c0.3,1.2,0.6,2.5,0.7,3.9c0.2,1.2,0.3,2.4,0.5,3.6c0.2,1,0.4,2.2,0.7,3.4c0.2,0.9,0.2,1.7,0.2,2.6
			c0.2,0.7,0.3,1.4,0.5,2.1c0,0.5,0.1,1,0.2,1.3v0.5c0.2,0,0.4-0.1,0.7-0.3c0.7,0,1.3,0,2,0c1-0.2,2-0.3,3-0.5
			c1.2,0,2.4-0.1,3.7-0.3c1.5-0.2,2.9-0.3,4.2-0.3c1.6-0.2,3.2-0.3,4.7-0.3c1.6-0.2,3.2-0.3,4.7-0.3c1.5,0,3,0,4.5,0
			c1.5,0,2.9,0,4.2,0c1.2,0,2.3,0.1,3.5,0.3c0.8,0.2,1.6,0.4,2.5,0.8c0.7,0.2,1.2,0.4,1.5,0.8c0.3,0.4,0.6,0.8,0.7,1.3
			c0.2,0.7,0.3,1.4,0.5,2.1c0.2,1,0.3,2,0.5,2.9c0.3,1.2,0.6,2.3,0.7,3.4c0.2,1.2,0.2,2.5,0.2,3.9c0.2,1.2,0.3,2.5,0.5,3.9
			c0,1.4,0.1,2.8,0.3,4.2c0,1.4,0.1,2.9,0.2,4.4c0,1.2,0,2.5,0,3.9c0,1.4-0.1,2.7-0.2,3.9c0,1.2-0.1,2.4-0.3,3.6
			c0,1-0.1,2.1-0.2,3.1c-0.2,0.7-0.4,1.5-0.7,2.3c-0.2,0.7-0.4,1.3-0.7,1.8c-0.3,0.5-0.8,1-1.5,1.3c-1,0.3-1.9,0.6-2.7,0.8
			c-1.2,0.2-2.3,0.3-3.5,0.5c-1.3,0.2-2.6,0.3-4,0.3c-1.5,0-2.9-0.1-4.2-0.3c-1.5,0-2.9-0.1-4.2-0.3c-1.5-0.2-2.9-0.3-4.2-0.5
			c-1.2,0-2.3-0.1-3.5-0.3c-1-0.2-2-0.3-3-0.5c-0.5,0-1.1-0.1-1.7-0.3c-0.3,0-0.6,0-0.7,0c0.2,0.2,0.2,0.4,0.2,0.8
			c0,0.3,0,0.6,0,0.8c0.2,0.5,0.3,1,0.3,1.6c0.2,0.5,0.2,1,0.2,1.6c0.2,0.7,0.3,1.4,0.5,2.1c0,0.7,0.1,1.5,0.3,2.3
			c0.2,0.9,0.3,1.7,0.5,2.6c0.2,1,0.3,2,0.5,2.9c0.2,1,0.3,2.1,0.5,3.1c0.2,1.2,0.3,2.3,0.5,3.4c0.2,1.2,0.3,2.4,0.5,3.6
			c0.3,1.2,0.6,2.4,0.7,3.6c0.2,1.4,0.3,2.8,0.5,4.2c0.3,1.2,0.6,2.5,0.7,3.9c0.2,1.6,0.4,3,0.7,4.4c0.2,1.4,0.3,2.9,0.5,4.4
			c0.3,1.4,0.6,2.9,0.7,4.4c0.3,1.6,0.6,3,0.7,4.4c0.2,1.6,0.4,3.1,0.7,4.7c0.2,1.6,0.4,3.1,0.7,4.7c0.2,1.6,0.3,3.1,0.5,4.7
			c0.3,1.6,0.6,3.1,0.7,4.7c0.3,1.6,0.6,3.1,0.7,4.7c0.2,1.6,0.4,3.1,0.7,4.7c0.2,1.6,0.3,3.1,0.5,4.7c0.2,1.6,0.4,3.1,0.7,4.7
			c0.2,1.4,0.3,2.9,0.5,4.4c0.2,1.4,0.3,2.9,0.5,4.4c0.2,1.4,0.3,2.8,0.5,4.2c0.2,1.4,0.3,2.8,0.5,4.2c0.2,1.2,0.3,2.5,0.5,3.9
			c0.2,1.2,0.3,2.4,0.5,3.6c0,1.2,0.1,2.4,0.3,3.6c0.2,1.2,0.2,2.3,0.2,3.4c0.2,1,0.3,2.1,0.3,3.1c0.2,1,0.2,2,0.2,2.9
			c0,0.9,0,1.7,0,2.6c0,0.9,0.1,1.7,0.3,2.3c0,0.7-0.1,1.4-0.3,2.1c0,0.5,0,1.1,0,1.8c0,0.4-0.1,0.8-0.2,1.3c0,0.4-0.1,0.7-0.3,1
			c0,0.2-0.1,0.4-0.2,0.5c-0.2,0.2-0.4,0.4-0.7,0.5c-0.3,0.2-0.7,0.4-1.2,0.5c-0.5,0.2-1.1,0.3-1.7,0.5c-0.7,0-1.3,0.1-2,0.3
			c-0.8,0.2-1.7,0.3-2.5,0.3c-0.8,0.2-1.7,0.3-2.7,0.5c-1,0-2,0.1-3,0.3c-1.2,0-2.3,0-3.5,0c-1.2,0.2-2.3,0.3-3.5,0.3
			c-1.3,0-2.6,0.1-4,0.3c-1.3,0-2.6,0-4,0c-1.3,0-2.7,0-4.2,0c-1.3,0-2.7,0.1-4.2,0.3c-1.5,0-2.9,0-4.2,0c-1.5,0-3,0-4.5,0
			c-1.5-0.2-3-0.3-4.5-0.3c-1.5,0-3,0-4.5,0c-1.5,0-3,0-4.5,0c-1.5,0-3-0.1-4.5-0.3c-1.3,0-2.7,0-4.2,0c-1.3,0-2.6-0.1-4-0.3
			c-1.3,0-2.6,0-4,0c-1.3-0.2-2.6-0.3-4-0.3c-1.2,0-2.3-0.1-3.5-0.3c-1.2,0-2.2-0.1-3.2-0.3c-1,0-2.1,0-3.2,0
			c-0.8-0.2-1.7-0.3-2.7-0.3c-0.7-0.2-1.4-0.3-2.2-0.3c-0.7-0.2-1.3-0.3-2-0.3c-0.5-0.2-1.1-0.3-1.7-0.3c-0.3,0-0.7-0.1-1-0.3
			c-0.3,0-0.6-0.1-0.7-0.3l-0.2-0.3v-0.3c-0.2-0.2-0.2-0.3-0.2-0.5c0-0.3-0.1-0.6-0.2-0.8c0-0.3,0-0.7,0-1c0-0.3-0.1-0.7-0.2-1
			c0-0.5,0-1,0-1.3c-0.2-0.5-0.2-1-0.2-1.6c0-0.5,0-1,0-1.6c-0.2-0.7-0.2-1.3-0.2-1.8c0-0.7-0.1-1.4-0.2-2.1c0-0.7,0-1.4,0-2.1
			c0-0.7-0.1-1.5-0.2-2.3c0-0.7,0-1.5,0-2.3c0-0.9-0.1-1.7-0.2-2.6c0-0.9,0-1.7,0-2.6c0-1-0.1-2-0.2-2.9c0-1,0-2.1,0-3.1
			c0-1-0.1-2-0.2-2.9c0-1.2,0-2.3,0-3.4c0-1,0-2.2,0-3.4c-0.2-1-0.2-2.2-0.2-3.4c0-1.2,0-2.3,0-3.4c0-1.2-0.1-2.4-0.2-3.6
			c0-1.4,0-2.7,0-3.9s0-2.4,0-3.6c-0.2-1.4-0.2-2.8-0.2-4.2c0-1.2,0-2.5,0-3.9c0-1.4-0.1-2.8-0.2-4.2c0-1.4,0-2.8,0-4.2
			c0-1.4,0-2.8,0-4.2c0-1.4-0.1-2.8-0.2-4.2c0-1.6,0-3,0-4.4c0-1.6,0-3,0-4.4c0-1.6,0-3,0-4.4c-0.2-1.6-0.2-3.1-0.2-4.7
			c0-1.6,0-3,0-4.4c0-1.6,0-3.1,0-4.7c0-1.6,0-3.1,0-4.7c0-1.6-0.1-3.1-0.2-4.7c0-1.6,0-3.1,0-4.7c0-1.6,0-3.1,0-4.7
			c0-1.7,0-3.4,0-4.9s0-3.1,0-4.7c0-1.6,0-3.1,0-4.7c0-1.7-0.1-3.4-0.2-4.9c0-1.6,0-3.1,0-4.7c0-1.6,0-3.2,0-4.9c0-1.6,0-3.1,0-4.7
			c0-1.6,0-3.1,0-4.7c0-1.7,0-3.4,0-4.9c0-1.6,0-3.1,0-4.7s0-3.1,0-4.7c0-1.6,0-3.1,0-4.7s0-3.1,0-4.7c0-1.6,0-3.1,0-4.7
			c0-1.4,0-2.9,0-4.4c0-1.6,0-3.1,0-4.7c0-1.4,0.1-2.9,0.2-4.4c0-1.4,0-2.9,0-4.4c0-1.4,0-2.9,0-4.4c0-1.4,0-2.8,0-4.2
			c0-1.4,0-2.8,0-4.2c0-1.4,0-2.8,0-4.2c0-1.4,0.1-2.8,0.2-4.2c0-1.4,0-2.8,0-4.2c0-1.2,0-2.5,0-3.9c0-1.2,0-2.4,0-3.6
			c0.2-1.4,0.2-2.7,0.2-3.9c0-1.2,0-2.4,0-3.6c0-1,0-2.2,0-3.4c0.2-1.2,0.2-2.3,0.2-3.4c0-1.2,0-2.3,0-3.4c0-1,0.1-2.2,0.2-3.4
			c0-0.9,0-1.8,0-2.9c0-1,0-2.1,0-3.1c0.2-0.9,0.2-1.8,0.2-2.9c0-0.9,0-1.7,0-2.6c0.2-0.9,0.2-1.7,0.2-2.6c0-0.7,0-1.5,0-2.3
			c0.2-0.7,0.2-1.5,0.2-2.3c0-0.7,0.1-1.4,0.2-2.1c0-0.7,0-1.4,0-2.1c0-0.5,0.1-1.1,0.2-1.8c0-0.5,0-1,0-1.6c0.2-0.5,0.2-1,0.2-1.6
			c0-0.3,0.1-0.8,0.2-1.3c0-0.3,0.1-0.7,0.2-1c0-0.3,0-0.6,0-0.8c0.2-0.3,0.2-0.6,0.2-0.8c0-0.3,0.1-0.6,0.2-0.8l0.2-0.3
			C362.9,225.1,363.1,224.9,363.2,224.8z"/>
	</g>
	<g>
		<g>
			<g>
				<path d="M685.9,333.9c0.2,0.2,0.4,0.4,0.6,0.6c0.2,0.2,0.3,0.5,0.3,0.9c0.2,0.4,0.4,0.8,0.6,1.2c0,0.4,0.1,0.9,0.3,1.5
					c0.2,0.6,0.3,1.2,0.3,1.8c0,0.8,0.1,1.6,0.3,2.4c0,0.8,0,1.6,0,2.4c0.2,0.8,0.3,1.7,0.3,2.7c0,1,0,2,0,3
					c0.2,1.2,0.3,2.3,0.3,3.3c0,1.2,0,2.4,0,3.6c0,1.2,0,2.4,0,3.6c0,1.4,0,2.8,0,4.2c0,1.2,0,2.5,0,3.9c0,1.6,0,3.1,0,4.5
					c0,1.4-0.1,2.9-0.3,4.6c0,1.6,0,3.1,0,4.5c0,1.6,0,3.2,0,4.9c0,1.6,0,3.3,0,5.1c-0.2,1.6-0.3,3.2-0.3,4.9c0,1.8,0,3.5,0,5.1
					c0,1.8,0,3.6,0,5.4c0,1.6,0,3.3,0,5.2c-0.2,1.8-0.3,3.6-0.3,5.4s0,3.5,0,5.1c0,1.8,0,3.6,0,5.4c0,1.8,0,3.6,0,5.5s0,3.6,0,5.4
					s0,3.6,0,5.5c0.2,1.8,0.3,3.6,0.3,5.4s0,3.6,0,5.4c0.2,1.8,0.3,3.6,0.3,5.5c0,1.8,0.1,3.6,0.3,5.4c0,1.6,0.1,3.3,0.3,5.1
					c0,1.8,0.1,3.6,0.3,5.5c0.2,1.8,0.3,3.5,0.3,5.1c0.2,1.8,0.4,3.5,0.6,5.1c0,1.6,0.1,3.3,0.3,5.1c0.2,1.6,0.3,3.2,0.3,4.9
					c0.2,1.6,0.4,3.2,0.6,4.8c0,1.6,0.1,3.1,0.3,4.6c0.2,1.6,0.3,3.1,0.3,4.5c0.2,1.4,0.3,2.8,0.3,4.2c0.2,1.4,0.4,2.8,0.6,4.3
					c0,1.2,0.1,2.5,0.3,3.9c0,1.2,0.1,2.4,0.3,3.6c0,1.2,0,2.3,0,3.3c0.2,1.2,0.3,2.3,0.3,3.3c0,1,0.1,2,0.3,3c0,0.8,0,1.7,0,2.7
					c0,0.8,0,1.6,0,2.4c0,0.6,0,1.3,0,2.1c0,0.4-0.1,0.9-0.3,1.5c0,0.6,0,1.1,0,1.5c-0.2,0.4-0.3,0.8-0.3,1.2
					c-0.2,0.2-0.4,0.4-0.6,0.6c0,0.2-0.2,0.3-0.6,0.3c-0.4,0.2-0.8,0.3-1.2,0.3c-0.8,0.2-1.5,0.3-2.1,0.3c-1,0-2,0.1-3,0.3
					c-1.2,0-2.3,0-3.3,0c-1.4,0.2-2.8,0.3-4.1,0.3c-1.4,0-2.9,0-4.4,0c-1.6,0.2-3.2,0.3-4.7,0.3s-3.2,0-4.7,0c-1.8,0-3.6,0-5.3,0
					c-1.8,0-3.6,0-5.3,0c-1.8,0-3.5,0-5.3,0c-1.6,0-3.3,0-5,0s-3.5-0.1-5-0.3c-1.6,0-3.2,0-4.7,0c-1.6,0-3.1-0.1-4.5-0.3
					c-1.4,0-2.8,0-4.1,0c-1.2-0.2-10.9,0.5-17-0.9c-6.1-1.4-7.5-5.6-7.7-8.1c-0.2-0.8-11.6,8.8-23.9,10.2c0,0-2.3,0.4-3.3,0.6
					c-1.2,0.2-2.4,0.4-3.6,0.6c-1,0-2.1,0.1-3.3,0.3c-1.2,0-2.4,0-3.5,0c-1.2,0-2.4,0-3.6,0c-1.2,0-2.4-0.1-3.6-0.3
					c-1.2,0-2.4-0.1-3.5-0.3c-1.2-0.2-2.4-0.4-3.6-0.6c-1.4-0.2-2.7-0.4-3.9-0.6c-1.2-0.4-2.4-0.7-3.5-0.9c-1.2-0.4-2.4-0.8-3.6-1.2
					c-1.2-0.4-2.4-0.8-3.5-1.2c-1.2-0.6-2.4-1.1-3.6-1.5c-1.2-0.6-2.3-1.2-3.3-1.8c-1.2-0.6-2.4-1.2-3.6-1.8
					c-1.2-0.6-2.3-1.3-3.3-2.1c-1.2-0.8-2.3-1.6-3.3-2.4c-1.2-0.8-2.3-1.6-3.3-2.4c-1-1-2.1-1.9-3.3-2.7c-1-1-2-2-3-3
					c-1-1-2-2.1-3-3.3c-0.8-1-1.7-2.1-2.7-3.3c-1-1.2-1.9-2.4-2.6-3.6c-0.8-1.4-1.6-2.8-2.4-4.3c-1-1.2-1.8-2.5-2.4-3.9
					c-0.8-1.4-1.5-2.8-2.1-4.3c-0.8-1.4-1.5-2.8-2.1-4.2c-0.6-1.4-1.2-2.8-1.8-4.2c-0.6-1.4-1.2-2.8-1.8-4.2
					c-0.4-1.6-0.9-3.1-1.5-4.6c-0.4-1.4-0.8-2.9-1.2-4.5c-0.6-1.4-1.1-2.8-1.5-4.2c-0.4-1.6-0.7-3.1-0.9-4.6
					c-0.4-1.6-0.8-3.2-1.2-4.9c-0.2-1.4-0.5-2.9-0.9-4.5c-0.2-1.4-0.4-2.9-0.6-4.6c-0.2-1.6-0.4-3.1-0.6-4.5
					c-0.2-1.6-0.4-3.2-0.6-4.9c-0.2-1.4-0.4-2.9-0.6-4.5c0-1.6-0.1-3.1-0.3-4.6c0-1.6-0.1-3.1-0.3-4.5c0-1.6,0-3.2,0-4.9
					c0-1.4,0-2.9,0-4.6c-0.2-1.4-0.2-2.9,0-4.5c0-1.4,0-2.9,0-4.5c0-1.4,0-2.9,0-4.6c0.2-1.4,0.3-2.8,0.3-4.2
					c0.2-1.4,0.3-2.9,0.3-4.6c0.2-1.4,0.4-2.8,0.6-4.2c0-1.4,0.1-2.8,0.3-4.2c0.2-1.4,0.4-2.8,0.6-4.2c0.2-1.2,0.4-2.5,0.6-3.9
					c0.2-1.4,0.4-2.7,0.6-3.9c0.2-1.4,0.4-2.7,0.6-3.9c0.2-1.4,0.4-2.7,0.6-3.9c0.2-1.2,0.4-2.4,0.6-3.6c0.4-1.2,0.7-2.4,0.9-3.6
					c0.2-1.2,0.4-2.4,0.6-3.6c0.4-1,0.7-2.1,0.9-3.3c0.2-1,0.5-2,0.9-3c0.2-1,0.5-2.1,0.9-3.3c0.2-0.8,0.4-1.7,0.6-2.7
					c0.4-1,0.7-2,0.9-3c0.4-0.8,0.7-1.6,0.9-2.4c0.2-0.8,0.5-1.7,0.9-2.7c0.2-0.6,0.5-1.3,0.9-2.1c0.2-0.8,0.5-1.5,0.9-2.1
					c0.2-0.8,0.4-1.5,0.6-2.1c0.4-0.6,0.7-1.2,0.9-1.8c0.2-0.4,0.5-0.9,0.9-1.5c0.2-0.4,0.4-0.9,0.6-1.5c0.2-0.4,0.5-0.8,0.9-1.2
					c0.2-0.2,0.4-0.5,0.6-0.9c0.2-0.2,0.4-0.4,0.6-0.6c0.2-0.2,0.4-0.4,0.6-0.6c0.2-0.2,0.4-0.3,0.6-0.3c0.8-0.2,1.6-0.4,2.4-0.6
					c1-0.2,2-0.4,3-0.6c1.4-0.2,2.7-0.4,3.9-0.6c1.4,0,2.8-0.1,4.1-0.3c1.6,0,3.2-0.1,4.7-0.3c1.6,0,3.1-0.1,4.7-0.3
					c1.8,0,3.5,0,5.1,0c1.6,0,3.3,0,5,0c1.6,0,3.1,0,4.7,0c1.4,0,2.9,0.1,4.5,0.3c1.4,0,2.8,0,4.1,0c1.2,0.2,2.3,0.3,3.3,0.3
					c1,0.2,2,0.4,3,0.6c0.8,0,20,0.5,23.9,8c3.9,7.5-6.6,100.1,11.5,100.1s11.7-92.6,15.3-98.6c3.6-6.1,20-6.8,20-7
					c0.4-0.2,0.7-0.4,0.9-0.6c0.8-0.2,1.5-0.3,2.1-0.3c0.8-0.2,1.7-0.4,2.6-0.6c1.2-0.2,2.4-0.4,3.6-0.6c1.4,0,2.8-0.1,4.1-0.3
					c1.4-0.2,2.9-0.3,4.5-0.3c1.6-0.2,3.3-0.3,5-0.3c1.6-0.2,3.3-0.3,5-0.3s3.5-0.1,5.3-0.3c1.8,0,3.6,0,5.3,0c1.6,0,3.3,0,5,0
					c1.6,0,3.1,0,4.7,0c1.6,0.2,3.2,0.3,4.7,0.3c1.2,0,2.5,0.1,3.9,0.3c1.2,0.2,2.4,0.3,3.6,0.3c0.8,0.2,1.7,0.4,2.6,0.6
					C684.7,333.5,685.3,333.7,685.9,333.9z"/>
			</g>
		</g>
		<path fill="#FFFFFF" d="M666.9,364.3c0.2,0.1,0.3,0.3,0.5,0.4c0.2,0.2,0.2,0.4,0.2,0.7c0.2,0.3,0.3,0.6,0.5,0.9
			c0,0.3,0.1,0.7,0.2,1.1c0.2,0.4,0.2,0.9,0.2,1.3c0,0.6,0.1,1.2,0.3,1.8c0,0.6,0,1.2,0,1.8c0.2,0.6,0.2,1.3,0.2,2
			c0,0.7,0,1.5,0,2.2c0.2,0.9,0.2,1.7,0.2,2.4c0,0.9,0,1.8,0,2.7c0,0.9,0,1.8,0,2.7c0,1,0,2.1,0,3.1c0,0.9,0,1.8,0,2.9
			c0,1.2,0,2.3,0,3.3c0,1-0.1,2.1-0.2,3.3c0,1.2,0,2.3,0,3.3c0,1.2,0,2.4,0,3.6c0,1.2,0,2.4,0,3.8c-0.2,1.2-0.2,2.4-0.2,3.6
			c0,1.3,0,2.6,0,3.8c0,1.3,0,2.7,0,4c0,1.2,0,2.4,0,3.8c-0.2,1.3-0.3,2.7-0.3,4c0,1.3,0,2.6,0,3.8c0,1.3,0,2.7,0,4c0,1.3,0,2.7,0,4
			c0,1.3,0,2.7,0,4s0,2.7,0,4c0.2,1.3,0.3,2.7,0.3,4c0,1.3,0,2.7,0,4c0.2,1.3,0.2,2.7,0.2,4s0.1,2.7,0.2,4c0,1.2,0.1,2.4,0.2,3.8
			c0,1.3,0.1,2.7,0.3,4c0.2,1.3,0.2,2.6,0.2,3.8c0.2,1.3,0.3,2.6,0.5,3.8c0,1.2,0.1,2.4,0.2,3.8c0.2,1.2,0.2,2.4,0.2,3.5
			c0.2,1.2,0.3,2.4,0.5,3.6c0,1.2,0.1,2.3,0.2,3.3c0.2,1.2,0.2,2.3,0.2,3.3c0.2,1,0.3,2.1,0.3,3.1c0.2,1,0.3,2.1,0.5,3.1
			c0,0.9,0.1,1.8,0.2,2.9c0,0.9,0.1,1.8,0.3,2.7c0,0.9,0,1.7,0,2.4c0.2,0.9,0.2,1.7,0.2,2.4c0,0.7,0.1,1.5,0.2,2.2c0,0.6,0,1.3,0,2
			c0,0.6,0,1.2,0,1.8c0,0.5,0,1,0,1.6c0,0.3-0.1,0.7-0.2,1.1c0,0.4,0,0.8,0,1.1c-0.2,0.3-0.2,0.6-0.2,0.9c-0.2,0.1-0.3,0.3-0.5,0.5
			c0,0.1-0.2,0.2-0.5,0.2c-0.3,0.1-0.7,0.2-1,0.2c-0.6,0.2-1.2,0.2-1.7,0.2c-0.8,0-1.6,0.1-2.4,0.2c-1,0-1.9,0-2.7,0
			c-1.1,0.1-2.3,0.2-3.4,0.2c-1.1,0-2.4,0-3.7,0c-1.3,0.1-2.6,0.2-3.9,0.2c-1.3,0-2.6,0-3.9,0c-1.5,0-2.9,0-4.4,0
			c-1.5,0-2.9,0-4.4,0c-1.4,0-2.9,0-4.4,0c-1.3,0-2.7,0-4.1,0c-1.4,0-2.8-0.1-4.1-0.2c-1.3,0-2.6,0-3.9,0c-1.3,0-2.5-0.1-3.7-0.2
			c-1.1,0-2.3,0-3.4,0c-1-0.1-1.9-0.2-2.9-0.2c-0.8-0.2-1.6-0.2-2.4-0.2c-0.7-0.1-1.3-0.3-1.9-0.4c-0.3,0-0.7-0.1-1.2-0.2
			c-0.6-0.3-1.4-0.6-2.2-0.9c-0.5-0.1-0.9-0.4-1.2-0.9c-0.3-0.4-0.6-1-0.7-1.6c-0.3-1.2,0.2-7.1,0-8.9c-0.2-0.6-0.6-0.1-1.4,1.6
			c-0.3,0.4-0.8,1-1.5,1.6c-0.5,0.4-1.1,0.9-1.7,1.3c-0.5,0.5-1.1,0.9-1.7,1.3s-1.3,0.9-1.9,1.3c-0.7,0.4-1.3,0.9-2,1.3
			c-0.8,0.3-1.5,0.7-2.2,1.1c-0.7,0.3-1.4,0.6-2.2,0.9c-0.8,0.5-1.6,0.8-2.4,1.1c-0.8,0.3-1.6,0.5-2.4,0.7c-0.8,0.3-1.6,0.6-2.4,0.9
			c-1,0.1-1.9,0.4-2.7,0.7c-0.8,0.2-1.7,0.3-2.7,0.5c-1,0.1-1.9,0.3-2.7,0.5c-1,0.1-1.9,0.3-2.9,0.4c-0.8,0-1.7,0.1-2.7,0.2
			c-1,0-1.9,0-2.9,0c-1,0-1.9,0-2.9,0c-1,0-2-0.1-2.9-0.2c-1,0-1.9-0.1-2.9-0.2c-1-0.1-2-0.3-2.9-0.5c-1.1-0.1-2.2-0.3-3.2-0.4
			c-1-0.3-1.9-0.5-2.9-0.7c-1-0.3-1.9-0.6-2.9-0.9c-1-0.3-1.9-0.6-2.9-0.9c-1-0.5-1.9-0.8-2.9-1.1c-1-0.4-1.9-0.9-2.7-1.3
			c-1-0.4-1.9-0.9-2.9-1.3c-1-0.5-1.9-1-2.7-1.6c-1-0.6-1.9-1.2-2.7-1.8c-1-0.6-1.9-1.2-2.7-1.8c-0.8-0.7-1.7-1.4-2.7-2
			c-0.8-0.7-1.6-1.5-2.4-2.2c-0.8-0.7-1.6-1.6-2.4-2.5c-0.7-0.7-1.4-1.6-2.2-2.4c-0.8-0.9-1.5-1.8-2.2-2.7c-0.6-1-1.3-2.1-1.9-3.1
			c-0.8-0.9-1.5-1.9-1.9-2.9c-0.7-1-1.2-2.1-1.7-3.1c-0.7-1-1.2-2.1-1.7-3.1c-0.5-1-1-2.1-1.5-3.1c-0.5-1-1-2.1-1.5-3.1
			c-0.3-1.2-0.7-2.3-1.2-3.3c-0.3-1-0.7-2.1-1-3.3c-0.5-1-0.9-2.1-1.2-3.1c-0.3-1.2-0.6-2.3-0.7-3.3c-0.3-1.2-0.6-2.4-1-3.6
			c-0.2-1-0.4-2.1-0.7-3.3c-0.2-1-0.3-2.1-0.5-3.3c-0.2-1.2-0.3-2.3-0.5-3.3c-0.2-1.2-0.3-2.4-0.5-3.5c-0.2-1-0.3-2.1-0.5-3.3
			c0-1.2-0.1-2.3-0.2-3.3c0-1.2-0.1-2.3-0.3-3.3c0-1.2,0-2.4,0-3.6c0-1,0-2.1,0-3.3c-0.2-1-0.2-2.1,0-3.3c0-1,0-2.1,0-3.3
			c0-1,0-2.1,0-3.3c0.2-1,0.3-2.1,0.3-3.1c0.2-1,0.2-2.1,0.2-3.3c0.2-1,0.3-2.1,0.5-3.1c0-1,0.1-2.1,0.2-3.1c0.2-1,0.3-2.1,0.5-3.1
			c0.2-0.9,0.3-1.8,0.5-2.9c0.2-1,0.3-2,0.5-2.9c0.2-1,0.3-2,0.5-2.9c0.2-1,0.3-2,0.5-2.9c0.2-0.9,0.3-1.8,0.5-2.7
			c0.3-0.9,0.6-1.8,0.7-2.7c0.2-0.9,0.3-1.8,0.5-2.7c0.3-0.7,0.6-1.6,0.7-2.4c0.2-0.7,0.4-1.5,0.7-2.2c0.2-0.7,0.4-1.6,0.7-2.4
			c0.2-0.6,0.3-1.3,0.5-2c0.3-0.7,0.6-1.5,0.7-2.2c0.3-0.6,0.6-1.2,0.7-1.8c0.2-0.6,0.4-1.2,0.7-2c0.2-0.4,0.4-1,0.7-1.6
			c0.2-0.6,0.4-1.1,0.7-1.6c0.2-0.6,0.3-1.1,0.5-1.6c0.3-0.4,0.6-0.9,0.7-1.3c0.2-0.3,0.4-0.7,0.7-1.1c0.2-0.3,0.3-0.7,0.5-1.1
			c0.2-0.3,0.4-0.6,0.7-0.9c0.2-0.1,0.3-0.4,0.5-0.7c0.2-0.1,0.3-0.3,0.5-0.5c0.2-0.1,0.3-0.3,0.5-0.4c0.2-0.1,0.3-0.2,0.3-0.2
			c0.8-0.1,1.5-0.3,2.1-0.4c0.8-0.1,1.6-0.3,2.4-0.5c1.1-0.1,2.2-0.3,3.2-0.4c1.1,0,2.3-0.1,3.4-0.2c1.3,0,2.6-0.1,3.9-0.2
			c1.3,0,2.6-0.1,3.9-0.2c1.5,0,2.9,0,4.1,0c1.3,0,2.7,0,4.1,0c1.3,0,2.6,0,3.9,0c1.1,0,2.4,0.1,3.7,0.2c1.1,0,2.3,0,3.4,0
			c1,0.1,1.9,0.2,2.7,0.2c0.8,0.2,1.6,0.3,2.4,0.5c0.7,0,1.2,0.1,1.7,0.2c0.3,0.1,0.7,0.3,1,0.5c0,0.1,0,0.3,0,0.4
			c0,0.2,0,0.3,0,0.5c0,0.3,0,0.6,0,0.9c0,0.3,0,0.7,0,1.1c0,0.4-0.1,0.9-0.2,1.3c0,0.6-0.1,1.1-0.2,1.6c0,0.6-0.1,1.2-0.2,1.8
			c0,0.7-0.1,1.4-0.3,2c0,0.7-0.1,1.5-0.2,2.2c-0.2,0.7-0.2,1.6-0.2,2.4c-0.2,0.7-0.3,1.6-0.5,2.4c-0.2,0.9-0.2,1.8-0.2,2.7
			c-0.2,1-0.3,2-0.5,2.9c-0.2,1-0.2,2-0.2,2.9c-0.2,1-0.3,2.1-0.5,3.1c0,1-0.1,2.1-0.2,3.1c-0.2,1-0.2,2.1-0.2,3.3
			c-0.2,1-0.3,2.1-0.5,3.3c0,1-0.1,2.1-0.2,3.3c0,1,0,2.1,0,3.3c-0.2,1.2-0.2,2.4-0.2,3.5c0,1.2,0,2.3,0,3.3
			c-0.2,1.2-0.3,2.4-0.3,3.5c0,1.2,0,2.4,0,3.6c0.2,1,0.3,2.1,0.3,3.3c0,1.2,0.1,2.4,0.2,3.6c0,1,0.1,2.1,0.2,3.3
			c0,1,0.1,2.1,0.3,3.3c0.2,1,0.3,2.1,0.5,3.1c0.2,1,0.4,2.1,0.7,3.1c0.2,1,0.3,2.1,0.5,3.1c0.3,1,0.6,2,1,2.9c0.3,1,0.6,2,1,2.9
			c0.3,0.9,0.7,1.8,1,2.7c0.3,0.9,0.7,1.7,1.2,2.5c0.5,0.9,1,1.7,1.5,2.4c0.5,0.7,1,1.5,1.5,2.2s1.1,1.4,1.7,2
			c0.5,0.6,1.1,1.2,1.7,1.8c0.7,0.6,1.4,1.1,2.2,1.6c0.6,0.4,1.4,0.9,2.2,1.3c0.8,0.5,1.6,0.8,2.4,1.1c0.8,0.3,1.6,0.6,2.4,0.9
			c1,0.1,1.9,0.3,2.9,0.4c1,0.2,2,0.3,2.9,0.5c0.8,0,1.7-0.1,2.7-0.2c0.8,0,1.6-0.1,2.4-0.2c0.8-0.3,1.6-0.6,2.4-0.9
			c0.8-0.3,1.5-0.6,2.2-0.9c0.8-0.4,1.5-0.9,2.2-1.3c0.7-0.4,1.3-1,1.9-1.6c0.7-0.6,1.2-1.2,1.7-1.8c0.7-0.7,1.2-1.5,1.7-2.2
			c0.7-0.7,1.2-1.5,1.7-2.2c0.5-0.9,1-1.8,1.5-2.7c0.3-0.9,0.7-1.8,1.2-2.7c0.5-0.9,0.9-1.8,1.2-2.9c0.3-0.9,0.7-1.9,1-2.9
			c0.5-1,0.9-2.1,1.2-3.3c0.2-1,0.4-2.1,0.7-3.3c0.3-1,0.7-2.1,1-3.3c0.2-1.2,0.4-2.4,0.7-3.6c0.2-1.2,0.3-2.4,0.5-3.5
			c0.2-1.2,0.4-2.4,0.7-3.6c0.2-1.3,0.3-2.6,0.5-3.8c0.2-1.2,0.3-2.4,0.3-3.8c0.2-1.2,0.3-2.4,0.5-3.5c0.2-1.3,0.3-2.6,0.3-3.8
			c0.2-1.2,0.2-2.4,0.2-3.8c0.2-1.2,0.2-2.4,0.2-3.6c0.2-1.2,0.2-2.4,0.2-3.5c0-1.2,0.1-2.4,0.3-3.6c0-1.2,0-2.4,0-3.5
			c0-1,0.1-2.1,0.2-3.3c0-1,0-2.1,0-3.1c0-1,0-2.1,0-3.1c0-0.9,0-1.8,0-2.9c0-0.9,0-1.8,0-2.7c0.2-0.9,0.2-1.8,0.2-2.7
			c0-0.7,0-1.6,0-2.4c0-0.6,0-1.2,0-2c0-0.6,0-1.3,0-2c0-0.4,0.1-1,0.3-1.6c0-0.4,0-0.9,0-1.3c0-0.4,0.1-0.8,0.2-1.1
			c0-0.3,0-0.6,0-0.9c0.2-0.1,0.2-0.3,0.2-0.5c0.3-0.1,0.6-0.3,0.7-0.4c0.7-0.1,1.2-0.2,1.7-0.2c0.7-0.1,1.4-0.3,2.2-0.4
			c1-0.1,1.9-0.3,2.9-0.5c1.1,0,2.3-0.1,3.4-0.2c1.1-0.1,2.4-0.2,3.7-0.2c1.3-0.1,2.7-0.2,4.1-0.2c1.3-0.1,2.7-0.2,4.1-0.2
			s2.9-0.1,4.4-0.2c1.5,0,2.9,0,4.4,0c1.3,0,2.7,0,4.1,0c1.3,0,2.6,0,3.9,0c1.3,0.1,2.6,0.2,3.9,0.2c1,0,2,0.1,3.2,0.2
			c1,0.2,2,0.2,2.9,0.2c0.7,0.1,1.4,0.3,2.2,0.4C665.9,364,666.4,364.2,666.9,364.3z"/>
	</g>
</g>
</svg>
