<?xml version="1.0" encoding="utf-8"?>
<!-- Generator: Adobe Illustrator 18.0.0, SVG Export Plug-In . SVG Version: 6.00 Build 0)  -->
<!DOCTYPE svg PUBLIC "-//W3C//DTD SVG 1.1//EN" "http://www.w3.org/Graphics/SVG/1.1/DTD/svg11.dtd">
<svg version="1.1" id="Camada_1" xmlns="http://www.w3.org/2000/svg" xmlns:xlink="http://www.w3.org/1999/xlink" x="0px" y="0px"
	 viewBox="0 0 1024 768" enable-background="new 0 0 1024 768" xml:space="preserve">
<g>
	<defs>
		<circle id="SVGID_1_" cx="511.9" cy="383.4" r="375.7"/>
	</defs>
	<clipPath id="SVGID_2_">
		<use xlink:href="#SVGID_1_"  overflow="visible"/>
	</clipPath>
	<g clip-path="url(#SVGID_2_)" enable-background="new    ">
		
			<image overflow="visible" width="2474" height="2474" xlink:href="../../banco de imagens/botões/butt 25.png"  transform="matrix(0.3065 0 0 0.3065 132.8006 4.7999)">
		</image>
	</g>
</g>
<g>
	<g>
		<path d="M643.6,205.4c1.4,0.4,2.8,0.9,4.2,1.5c1.4,0.6,2.8,1.3,4.2,2.1c1.1,0.6,2.4,1.3,3.8,2.1c1.2,0.6,2.3,1.4,3.5,2.5
			c1.2,0.8,2.2,1.6,3.1,2.5c1.1,0.8,2.2,1.7,3.1,2.8c0.9,1,1.9,2,2.8,3.1c0.9,1,1.7,2,2.4,3.1c0.7,1,1.4,2.1,2.1,3.4
			c0.7,1,1.4,2.1,2.1,3.4c0.4,1,0.9,2.1,1.4,3.4c0.7,1.2,1.1,2.5,1.4,3.7c0.5,1.2,0.8,2.5,1,3.7c0.2,1.2,0.5,2.5,0.7,3.7
			c0.2,1.2,0.3,2.5,0.3,3.7s0,2.6,0,4c-0.2,1.2-0.3,2.5-0.3,3.7c-0.2,1.2-0.6,2.5-1,3.7c-0.2,1.4-0.6,2.8-1,4
			c-0.5,1.2-0.9,2.5-1.4,3.7c-0.5,1.2-1,2.4-1.7,3.4c-0.7,1.2-1.4,2.4-2.1,3.4c-0.7,1.2-1.5,2.4-2.4,3.4c-0.7,1-1.5,2.1-2.4,3.1
			c-0.9,1-1.9,2.1-2.8,3.1c-0.9,0.8-2,1.6-3.1,2.5c-0.9,1-2,1.9-3.1,2.8c-1.1,0.8-2.3,1.5-3.5,2.1c-1.1,0.8-2.4,1.5-3.8,2.1
			c-1.1,0.6-2.4,1.2-3.8,1.8c-1.2,0.6-2.4,1.2-3.8,1.8c-1.4,0.4-2.8,0.8-4.2,1.2c-1.4,0.4-2.8,0.8-4.2,1.2c-1.6,0.4-3.1,0.7-4.5,0.9
			c-1.4,0.2-2.9,0.4-4.5,0.6c-1.6,0.2-3.1,0.3-4.5,0.3c-1.6,0.2-3.3,0.3-4.9,0.3c-1.4-0.2-2.9-0.3-4.5-0.3c-1.6-0.2-3.3-0.4-4.9-0.6
			c-1.6-0.2-3.2-0.5-4.9-0.9c-1.4-0.4-2.8-0.9-4.2-1.5c-1.6-0.4-3-0.9-4.2-1.5c-1.4-0.8-2.8-1.6-4.2-2.5c-1.2-0.6-2.3-1.4-3.5-2.5
			c-1.2-0.8-2.2-1.7-3.1-2.8c-1.2-1-2.2-2-3.1-3.1c-0.9-1-1.7-2.1-2.4-3.4c-0.9-1.2-1.7-2.5-2.4-3.7c-0.7-1.2-1.4-2.5-2.1-3.7
			c-0.7-1.2-1.3-2.5-1.7-3.7c-0.5-1.4-0.9-2.8-1.4-4c-0.4-1.4-0.8-2.8-1-4c-0.5-1.4-0.7-2.8-0.7-4c-0.2-1.4-0.5-2.8-0.7-4
			c0-1.4,0-2.8,0-4c0-1.4,0-2.8,0-4c0.2-1.2,0.4-2.5,0.4-3.7c0.2-1.2,0.6-2.5,1-3.7c0.2-1.2,0.6-2.5,1-3.7c0.5-1.2,1-2.4,1.7-3.4
			c0.5-1.2,1-2.4,1.7-3.4c0.7-1.2,1.4-2.4,2.1-3.4c0.7-1,1.5-2,2.4-3.1c0.9-1.2,1.9-2.2,2.8-3.1c0.9-1,1.9-2,2.8-3.1
			c0.9-0.8,2-1.7,3.1-2.8c1.1-0.8,2.3-1.6,3.5-2.5c1.1-0.8,2.3-1.5,3.5-2.1c1.1-0.8,2.4-1.5,3.8-2.1c1.1-0.6,2.4-1.2,3.8-1.8
			c1.2-0.6,2.4-1.1,3.8-1.5c1.4-0.4,2.8-0.8,4.2-1.2c1.4-0.4,2.8-0.8,4.2-1.2c1.4-0.2,2.8-0.4,4.2-0.6c1.6-0.2,3.1-0.3,4.5-0.3
			c1.4-0.2,2.8-0.3,4.2-0.3c1.6,0,3.1,0.1,4.5,0.3c1.4,0.2,2.8,0.4,4.2,0.6c1.4,0.2,2.9,0.5,4.5,0.9
			C640.8,204.3,642.2,204.8,643.6,205.4z"/>
		<path d="M583.5,337.2c0,0.2-0.1,0.5-0.4,0.9c0,0.4-0.1,0.8-0.4,1.2c-0.2,0.4-0.4,0.9-0.4,1.5c-0.2,0.6-0.5,1.2-0.7,1.8
			c0,0.8-0.1,1.5-0.4,2.1c-0.2,0.8-0.4,1.6-0.4,2.4c-0.2,1-0.5,1.9-0.7,2.7c-0.2,1-0.4,2-0.4,3c-0.2,1.2-0.5,2.3-0.7,3.3
			c-0.2,1.2-0.4,2.4-0.4,3.6c-0.2,1.2-0.5,2.4-0.7,3.6c-0.2,1.2-0.5,2.5-0.7,3.9c0,1.4-0.1,2.8-0.4,4.2c-0.2,1.4-0.5,2.8-0.7,4.2
			c-0.2,1.4-0.4,2.9-0.4,4.5c-0.2,1.4-0.5,2.9-0.7,4.5c-0.2,1.6-0.5,3.2-0.7,4.8c0,1.6-0.1,3.2-0.4,4.8c-0.2,1.8-0.5,3.5-0.7,5.1
			c-0.2,1.6-0.4,3.3-0.4,5.1c-0.2,1.8-0.5,3.5-0.7,5.1c-0.2,1.8-0.4,3.6-0.4,5.4c-0.2,1.8-0.5,3.6-0.7,5.4c-0.2,1.8-0.4,3.6-0.4,5.4
			c-0.2,1.8-0.5,3.6-0.7,5.4c0,1.8-0.1,3.6-0.4,5.4c-0.2,1.8-0.4,3.6-0.4,5.4c-0.2,2-0.5,3.9-0.7,5.7c0,1.8-0.1,3.6-0.4,5.4
			c0,1.8-0.1,3.6-0.4,5.4s-0.4,3.6-0.4,5.4c-0.2,1.8-0.4,3.6-0.4,5.4c0,1.8-0.1,3.6-0.4,5.4c0,1.6-0.1,3.3-0.4,5.1
			c0,1.6-0.1,3.3-0.4,5.1c0,1.6,0,3.3,0,5.1c-0.2,1.6-0.4,3.2-0.4,4.8c0,1.6,0,3.2,0,4.8c0,1.4-0.1,2.9-0.4,4.5c0,1.6,0,3.1,0,4.5
			c0,1.4,0,2.8,0,4.2c0,1.4,0,2.8,0,4.2c0,1.2,0,2.5,0,3.9c0,1.2,0,2.4,0,3.6c0,1.2,0.1,2.4,0.4,3.6c0,1,0,2.1,0,3.3
			c0,1,0.1,2,0.4,3c0,0.8,0,1.7,0,2.7c0.2,0.8,0.4,1.6,0.4,2.4c0.2,0.6,0.4,1.3,0.4,2.1c0.2,0.6,0.4,1.2,0.4,1.8
			c0.2,0.6,0.5,1.1,0.7,1.5c0,0.4,0.1,0.8,0.4,1.2c0.2,0.4,0.5,0.7,0.7,0.9c0.2,0.2,0.5,0.4,0.7,0.6c0.7,0.2,1.5,0.4,2.2,0.6
			c1,0.4,1.9,0.7,2.9,0.9c1.2,0.2,2.3,0.4,3.3,0.6c1.5,0.2,2.8,0.4,4,0.6c1.7,0.2,3.3,0.3,4.7,0.3c1.7,0.2,3.4,0.4,5.1,0.6
			c1.7,0,3.4,0.1,5.1,0.3c1.9,0,3.9,0.1,5.8,0.3c1.9,0,3.9,0.1,5.8,0.3c1.9,0,3.9,0,5.8,0c1.9,0,4,0,6.2,0c1.9,0.2,3.9,0.3,5.8,0.3
			c2.2,0,4.2,0,6.2,0c1.9-0.2,3.9-0.3,5.8-0.3c1.9,0,3.9,0,5.8,0c1.7,0,3.5-0.1,5.5-0.3c1.7,0,3.4-0.1,5.1-0.3c1.5,0,3-0.1,4.7-0.3
			c1.5,0,2.9-0.1,4.4-0.3c1.2-0.2,2.4-0.3,3.6-0.3c1-0.2,1.9-0.4,2.9-0.6c1-0.2,1.8-0.4,2.5-0.6c0.5,0,0.7-0.1,0.7-0.3
			c0.5-0.2,0.8-0.4,1.1-0.6c0.2-0.4,0.4-0.8,0.4-1.2c0.2-0.4,0.5-0.9,0.7-1.5c0.2-0.6,0.5-1.2,0.7-1.8c0.2-0.6,0.4-1.2,0.4-1.8
			c0.2-0.8,0.5-1.6,0.7-2.4c0-0.8,0.1-1.7,0.4-2.7c0-1,0.1-1.9,0.4-2.7c0-1.2,0.1-2.3,0.4-3.3c0-1,0.1-2.1,0.4-3.3
			c0-1.2,0-2.4,0-3.6c0.2-1.2,0.4-2.4,0.4-3.6c0-1.4,0.1-2.8,0.4-4.2c0-1.4,0-2.8,0-4.2c0-1.4,0-2.8,0-4.2c0-1.6,0-3.1,0-4.5
			c0-1.6,0.1-3.2,0.4-4.8c0-1.6,0-3.2,0-4.8c0-1.6-0.1-3.2-0.4-4.8c0-1.8,0-3.5,0-5.1c0-1.8,0-3.5,0-5.1c0-1.8,0-3.6,0-5.4
			c0-1.6-0.1-3.3-0.4-5.1c0-1.8,0-3.6,0-5.4c0-1.8-0.1-3.6-0.4-5.4c0-1.8,0-3.6,0-5.4c-0.2-1.8-0.4-3.6-0.4-5.4s-0.1-3.6-0.4-5.4
			c0-1.8-0.1-3.7-0.4-5.7c0-1.8,0-3.6,0-5.4c-0.2-1.8-0.4-3.6-0.4-5.4c-0.2-1.8-0.4-3.5-0.4-5.1c-0.2-1.8-0.4-3.6-0.4-5.4
			c-0.2-1.8-0.4-3.6-0.4-5.4c-0.2-1.6-0.4-3.3-0.4-5.1c-0.2-1.6-0.4-3.3-0.4-5.1c-0.2-1.6-0.5-3.2-0.7-4.8c0-1.6-0.1-3.2-0.4-4.8
			c0-1.6-0.1-3.2-0.4-4.8c0-1.4-0.1-2.9-0.4-4.5c-0.2-1.4-0.4-2.8-0.4-4.2c-0.2-1.4-0.5-2.8-0.7-4.2c0-1.4-0.1-2.8-0.4-4.2
			c0-1.2-0.1-2.5-0.4-3.9c-0.2-1.2-0.4-2.4-0.4-3.6c-0.2-1-0.5-2.1-0.7-3.3c0-1-0.1-2-0.4-3c0-1-0.1-2-0.4-3c-0.2-1-0.4-1.9-0.4-2.7
			c-0.2-0.8-0.4-1.6-0.4-2.4c-0.2-0.6-0.5-1.3-0.7-2.1c0-0.6-0.1-1.2-0.4-1.8c0-0.4-0.1-0.9-0.4-1.5c0-0.2-0.1-0.5-0.4-0.9
			c-0.2-0.4-0.4-0.7-0.4-0.9l-0.4-0.3c-0.5-0.4-1.1-0.7-1.8-0.9c-1-0.4-1.9-0.7-2.9-0.9c-1.2-0.2-2.4-0.4-3.6-0.6
			c-1.5-0.2-2.9-0.4-4.4-0.6c-1.5-0.2-3-0.4-4.7-0.6c-2-0.2-3.8-0.4-5.5-0.6c-2.2,0-4.2-0.1-6.2-0.3c-1.9,0-3.9-0.1-5.8-0.3
			c-2.2,0-4.4,0-6.5,0c-1.9-0.2-4-0.3-6.2-0.3c-1.9,0-4,0-6.2,0c-1.9,0-3.9,0.1-5.8,0.3c-1.9,0-3.8,0.1-5.5,0.3
			c-1.7,0-3.4,0.1-5.1,0.3c-1.5,0.2-2.9,0.4-4.4,0.6c-1.5,0.2-2.8,0.4-4,0.6c-1,0.2-1.8,0.5-2.5,0.9c-0.7,0.2-1.3,0.5-1.8,0.9
			C584,336.8,583.7,337,583.5,337.2z"/>
		<path fill="#FFFFFF" d="M637.3,218.8c1,0.3,2,0.6,3.1,1c1,0.4,2,0.9,3,1.4c0.8,0.4,1.8,0.9,2.8,1.4c0.8,0.4,1.7,1,2.5,1.6
			c0.8,0.6,1.6,1.1,2.3,1.6c0.8,0.6,1.6,1.2,2.3,1.9c0.7,0.7,1.3,1.4,2,2.1c0.7,0.7,1.3,1.4,1.8,2.1c0.5,0.7,1,1.4,1.5,2.3
			c0.5,0.7,1,1.4,1.5,2.3c0.4,0.7,0.7,1.4,1,2.3c0.5,0.8,0.8,1.7,1,2.5c0.3,0.8,0.6,1.6,0.8,2.5c0.2,0.8,0.3,1.6,0.5,2.5
			c0.2,0.8,0.2,1.6,0.2,2.5c0,0.8,0,1.7,0,2.7c-0.2,0.8-0.2,1.6-0.2,2.5c-0.2,0.8-0.4,1.7-0.8,2.5c-0.2,1-0.4,1.8-0.8,2.7
			c-0.3,0.8-0.7,1.7-1,2.5c-0.3,0.8-0.8,1.6-1.3,2.3c-0.5,0.8-1,1.6-1.5,2.3c-0.5,0.8-1.1,1.6-1.8,2.3c-0.5,0.7-1.1,1.4-1.8,2.1
			c-0.7,0.7-1.4,1.4-2,2.1c-0.7,0.6-1.4,1.1-2.3,1.6c-0.7,0.7-1.4,1.3-2.3,1.9c-0.8,0.6-1.7,1-2.5,1.4c-0.8,0.6-1.8,1-2.8,1.4
			c-0.9,0.4-1.8,0.8-2.8,1.2c-0.8,0.4-1.8,0.8-2.8,1.2c-1,0.3-2,0.5-3,0.8c-1,0.3-2,0.6-3.1,0.8c-1.2,0.3-2.3,0.5-3.3,0.6
			c-1,0.1-2.1,0.3-3.3,0.4c-1.2,0.2-2.3,0.2-3.3,0.2c-1.2,0.1-2.4,0.2-3.5,0.2c-1-0.1-2.1-0.2-3.3-0.2c-1.2-0.1-2.4-0.3-3.5-0.4
			c-1.2-0.1-2.4-0.3-3.5-0.6c-1-0.3-2-0.6-3-1c-1.2-0.3-2.2-0.6-3.1-1c-1-0.5-2-1.1-3-1.6c-0.8-0.4-1.7-1-2.5-1.6
			c-0.8-0.6-1.6-1.2-2.3-1.9c-0.8-0.7-1.6-1.4-2.3-2.1c-0.7-0.7-1.3-1.4-1.8-2.3c-0.7-0.8-1.3-1.6-1.8-2.5c-0.5-0.8-1-1.7-1.5-2.5
			c-0.5-0.8-0.9-1.6-1.3-2.5c-0.4-1-0.7-1.9-1-2.7c-0.3-1-0.6-1.9-0.7-2.7c-0.4-1-0.5-1.8-0.5-2.7c-0.2-1-0.3-1.8-0.5-2.7
			c0-1,0-1.9,0-2.7c0-1,0-1.9,0-2.7c0.2-0.8,0.3-1.6,0.3-2.5c0.2-0.8,0.4-1.7,0.8-2.5c0.2-0.8,0.4-1.6,0.7-2.5
			c0.4-0.8,0.8-1.6,1.3-2.3c0.3-0.8,0.8-1.6,1.3-2.3c0.5-0.8,1-1.6,1.5-2.3c0.5-0.7,1.1-1.4,1.8-2.1c0.7-0.8,1.4-1.5,2-2
			c0.7-0.7,1.4-1.4,2-2.1c0.7-0.6,1.4-1.2,2.3-1.9c0.8-0.6,1.7-1.1,2.5-1.6c0.8-0.6,1.7-1,2.5-1.4c0.8-0.6,1.8-1,2.8-1.4
			c0.8-0.4,1.8-0.8,2.8-1.2c0.8-0.4,1.8-0.8,2.8-1c1-0.3,2-0.6,3-0.8c1-0.3,2-0.5,3-0.8c1-0.1,2-0.3,3.1-0.4
			c1.2-0.1,2.3-0.2,3.3-0.2c1-0.1,2-0.2,3-0.2c1.2,0,2.3,0.1,3.3,0.2c1,0.2,2,0.3,3,0.4s2.1,0.4,3.3,0.6
			C635.2,218.1,636.3,218.4,637.3,218.8z"/>
		<path fill="#FFFFFF" d="M594.8,354c0,0.2-0.1,0.4-0.3,0.8c0,0.3-0.1,0.7-0.2,1s-0.2,0.8-0.2,1.3c-0.2,0.5-0.3,1-0.5,1.5
			c0,0.7-0.1,1.3-0.2,1.8c-0.2,0.7-0.2,1.4-0.2,2c-0.2,0.9-0.3,1.6-0.5,2.3c-0.2,0.8-0.2,1.7-0.2,2.5c-0.2,1-0.3,1.9-0.5,2.8
			c-0.2,1-0.2,2-0.2,3.1c-0.2,1-0.3,2-0.5,3c-0.2,1-0.3,2.1-0.5,3.3c0,1.2-0.1,2.4-0.3,3.5s-0.3,2.4-0.5,3.5
			c-0.2,1.2-0.2,2.5-0.2,3.8c-0.2,1.2-0.3,2.5-0.5,3.8c-0.2,1.4-0.3,2.7-0.5,4.1c0,1.4-0.1,2.7-0.2,4.1c-0.2,1.5-0.3,2.9-0.5,4.3
			c-0.2,1.3-0.2,2.8-0.2,4.3c-0.2,1.5-0.3,3-0.5,4.3c-0.2,1.5-0.3,3.1-0.3,4.6c-0.2,1.5-0.3,3-0.5,4.6c-0.2,1.5-0.3,3-0.3,4.6
			c-0.2,1.5-0.3,3-0.5,4.6c0,1.5-0.1,3.1-0.2,4.6c-0.2,1.5-0.3,3.1-0.3,4.6c-0.2,1.7-0.3,3.3-0.5,4.8c0,1.5-0.1,3-0.3,4.6
			c0,1.5-0.1,3.1-0.2,4.6c-0.2,1.5-0.2,3.1-0.2,4.6c-0.2,1.5-0.2,3.1-0.2,4.6c0,1.5-0.1,3-0.3,4.6c0,1.3-0.1,2.8-0.2,4.3
			c0,1.3-0.1,2.8-0.2,4.3c0,1.3,0,2.8,0,4.3c-0.2,1.3-0.3,2.7-0.3,4c0,1.4,0,2.7,0,4.1c0,1.2-0.1,2.5-0.2,3.8c0,1.4,0,2.6,0,3.8
			c0,1.2,0,2.4,0,3.5c0,1.2,0,2.4,0,3.5c0,1,0,2.1,0,3.3c0,1,0,2,0,3.1c0,1,0.1,2,0.2,3c0,0.8,0,1.8,0,2.8c0,0.8,0.1,1.7,0.3,2.5
			c0,0.7,0,1.4,0,2.3c0.2,0.7,0.2,1.3,0.2,2c0.2,0.5,0.2,1.1,0.2,1.8c0.2,0.5,0.3,1,0.3,1.5c0.2,0.5,0.3,0.9,0.5,1.3
			c0,0.4,0.1,0.7,0.2,1c0.2,0.4,0.3,0.6,0.5,0.8s0.3,0.4,0.5,0.5c0.5,0.2,1,0.3,1.5,0.5c0.7,0.4,1.3,0.6,2,0.8
			c0.8,0.2,1.5,0.4,2.2,0.5c1,0.2,1.9,0.3,2.7,0.5c1.2,0.2,2.2,0.3,3.2,0.3c1.1,0.2,2.3,0.3,3.4,0.5c1.1,0,2.3,0.1,3.4,0.3
			c1.3,0,2.6,0.1,3.9,0.2c1.3,0,2.6,0.1,3.9,0.2c1.3,0,2.6,0,3.9,0s2.7,0,4.2,0c1.3,0.2,2.6,0.2,3.9,0.2c1.5,0,2.9,0,4.1,0
			c1.3-0.2,2.6-0.2,3.9-0.2c1.3,0,2.6,0,3.9,0c1.1,0,2.4-0.1,3.7-0.2c1.1,0,2.3-0.1,3.4-0.2c1,0,2-0.1,3.2-0.3c1,0,2-0.1,2.9-0.2
			c0.8-0.2,1.6-0.2,2.5-0.2c0.7-0.2,1.3-0.4,2-0.5c0.7-0.2,1.2-0.3,1.7-0.5c0.3,0,0.5-0.1,0.5-0.3c0.3-0.2,0.6-0.3,0.7-0.5
			c0.2-0.4,0.2-0.7,0.2-1c0.2-0.4,0.3-0.8,0.5-1.3c0.2-0.5,0.3-1,0.5-1.5c0.2-0.5,0.3-1,0.3-1.5c0.2-0.7,0.3-1.4,0.5-2
			c0-0.7,0.1-1.4,0.2-2.3c0-0.8,0.1-1.6,0.3-2.3c0-1,0.1-1.9,0.2-2.8c0-0.8,0.1-1.8,0.2-2.8c0-1,0-2,0-3.1c0.2-1,0.3-2,0.3-3
			c0-1.2,0.1-2.4,0.2-3.5c0-1.2,0-2.4,0-3.5s0-2.4,0-3.5c0-1.4,0-2.6,0-3.8c0-1.3,0.1-2.7,0.2-4c0-1.4,0-2.7,0-4.1
			c0-1.3-0.1-2.7-0.2-4c0-1.5,0-3,0-4.3c0-1.5,0-2.9,0-4.3c0-1.5,0-3.1,0-4.6c0-1.4-0.1-2.8-0.2-4.3c0-1.5,0-3.1,0-4.6
			c0-1.5-0.1-3.1-0.3-4.6c0-1.5,0-3,0-4.6c-0.2-1.5-0.2-3-0.2-4.6s-0.1-3-0.2-4.6c0-1.5-0.1-3.1-0.3-4.8c0-1.5,0-3,0-4.6
			c-0.2-1.5-0.2-3-0.2-4.6c-0.2-1.5-0.2-2.9-0.2-4.3c-0.2-1.5-0.2-3-0.2-4.6c-0.2-1.5-0.3-3.1-0.3-4.6c-0.2-1.4-0.2-2.8-0.2-4.3
			c-0.2-1.4-0.2-2.8-0.2-4.3c-0.2-1.4-0.3-2.7-0.5-4.1c0-1.3-0.1-2.7-0.2-4c0-1.4-0.1-2.7-0.2-4.1c0-1.2-0.1-2.5-0.3-3.8
			c-0.2-1.2-0.2-2.4-0.2-3.5c-0.2-1.2-0.3-2.4-0.5-3.5c0-1.2-0.1-2.4-0.2-3.5c0-1-0.1-2.1-0.2-3.3c-0.2-1-0.2-2-0.2-3
			c-0.2-0.8-0.3-1.8-0.5-2.8c0-0.8-0.1-1.7-0.2-2.5c0-0.8-0.1-1.7-0.3-2.5s-0.2-1.6-0.2-2.3c-0.2-0.7-0.2-1.3-0.2-2
			c-0.2-0.5-0.3-1.1-0.5-1.8c0-0.5-0.1-1-0.2-1.5c0-0.3-0.1-0.8-0.2-1.3c0-0.2-0.1-0.4-0.3-0.8c-0.2-0.4-0.2-0.6-0.2-0.8l-0.2-0.2
			c-0.3-0.4-0.7-0.6-1.2-0.8c-0.6-0.4-1.3-0.6-2-0.8c-0.8-0.2-1.6-0.4-2.5-0.5c-1-0.2-2-0.3-2.9-0.5c-1-0.2-2.1-0.4-3.2-0.5
			c-1.3-0.2-2.5-0.3-3.7-0.5c-1.5,0-2.9-0.1-4.2-0.2c-1.3,0-2.6-0.1-3.9-0.2c-1.5,0-2.9,0-4.4,0c-1.3-0.2-2.7-0.2-4.2-0.2
			c-1.3,0-2.7,0-4.2,0c-1.3,0-2.6,0.1-3.9,0.2c-1.3,0-2.6,0.1-3.7,0.2c-1.1,0-2.3,0.1-3.4,0.2c-1,0.2-2,0.4-2.9,0.5
			c-1,0.2-1.9,0.4-2.7,0.5c-0.7,0.2-1.2,0.4-1.7,0.7c-0.5,0.2-0.9,0.4-1.2,0.8C595.1,353.7,594.9,353.9,594.8,354z"/>
	</g>
	<g>
		<path d="M581.8,367.1c0.2,1.8,0.4,3.5,0.6,5.1c0.2,1.8,0.3,3.6,0.3,5.4c0.2,1.6,0.3,3.3,0.3,5.2c0.2,1.6,0.3,3.3,0.3,5.1
			c0.2,1.6,0.3,3.2,0.3,4.8v5.1v4.8v4.5c0,1.6-0.1,3.2-0.3,4.8v4.5c-0.2,1.4-0.4,2.9-0.6,4.5c0,1.4-0.1,2.8-0.3,4.2
			c-0.2,1.6-0.3,3.1-0.3,4.5c-0.2,1.4-0.4,2.8-0.6,4.2c-0.2,1.4-0.5,2.8-0.7,4.2c-0.2,1.4-0.5,2.7-1,3.9c-0.2,1.4-0.4,2.8-0.6,4.2
			c-0.4,1.2-0.8,2.5-1,3.9c-0.4,1.2-0.8,2.4-1,3.6c-0.4,1.4-0.7,2.7-1,3.9c-0.4,1.2-0.9,2.4-1.3,3.6c-0.4,1.2-0.9,2.4-1.3,3.6
			c-0.2,1.2-0.5,2.4-1,3.6c-0.4,1.2-1,2.3-1.6,3.3c-0.4,1.2-0.9,2.4-1.3,3.6c-0.4,1-0.9,2-1.3,3c-0.7,1.2-1.2,2.3-1.6,3.3
			c-0.6,1-1.2,2.1-1.6,3.3c-0.7,1-1.2,2-1.6,3c-0.6,1-1.3,2-1.9,3c-0.4,0.8-1,1.7-1.6,2.7c-0.7,1-1.3,2-1.9,3
			c-0.7,0.8-1.3,1.7-1.9,2.7c-0.7,0.8-1.3,1.7-1.9,2.7c-0.7,0.8-1.3,1.6-2,2.4c-0.7,1-1.3,1.9-1.9,2.7c-0.6,0.8-1.4,1.6-2.3,2.4
			c-0.6,0.8-1.3,1.6-1.9,2.4c-0.9,0.8-1.6,1.5-2.3,2.1c-0.9,0.8-1.6,1.6-2.3,2.4c-0.9,0.6-1.6,1.3-2.3,2.1c-0.9,0.6-1.6,1.3-2.3,2.1
			c-0.9,0.6-1.7,1.2-2.6,1.8c-0.9,0.8-1.6,1.5-2.3,2.1c-0.9,0.6-1.7,1.2-2.6,1.8c-0.9,0.6-1.7,1.2-2.6,1.8c-0.9,0.6-1.7,1.1-2.6,1.5
			c-0.9,0.6-1.7,1.2-2.6,1.8c-0.9,0.6-1.7,1.1-2.6,1.5c-0.9,0.6-1.7,1.1-2.6,1.5c-0.9,0.4-1.7,0.9-2.6,1.5c-1.1,0.4-2.1,0.8-2.9,1.2
			c-0.9,0.4-1.7,0.8-2.6,1.2c-1.1,0.4-2.1,0.8-2.9,1.2c-0.9,0.4-1.8,0.8-2.9,1.2c-0.9,0.4-1.7,0.8-2.6,1.2c-1.1,0.2-2,0.5-2.9,0.9
			c-1.1,0.2-2.1,0.5-2.9,0.9c-1.1,0.2-2.1,0.5-2.9,0.9c-1.1,0.2-2.1,0.4-2.9,0.6c-1.1,0.4-2.2,0.7-3.3,0.9c-0.9,0.2-1.8,0.4-2.9,0.6
			c-0.9,0.2-1.8,0.4-2.9,0.6c-1.1,0.2-2.1,0.3-2.9,0.3c-1.1,0.2-2.2,0.4-3.3,0.6c-0.9,0-1.8,0.1-2.9,0.3c-1.1,0-2.2,0.1-3.2,0.3
			c-0.9,0-1.8,0.1-2.9,0.3h-3.3h-2.9c-1.1,0.2-2.2,0.3-3.3,0.3c-1.1,0-2.1-0.1-2.9-0.3h-3.2c-1.1,0-2.2-0.1-3.2-0.3h-2.9
			c-1.1-0.2-2.2-0.3-3.2-0.3c-1.1-0.2-2.2-0.4-3.3-0.6c-0.9,0-1.8-0.1-2.9-0.3c-1.1-0.2-2.2-0.4-3.2-0.6c-1.1-0.2-2-0.4-2.9-0.6
			c-1.1-0.2-2.2-0.4-3.2-0.6c-1.1-0.2-2.2-0.4-3.3-0.6c-0.9-0.4-1.8-0.7-2.9-0.9c-1.1-0.2-2.2-0.5-3.2-0.9c-1.1-0.2-2-0.5-2.9-0.9
			c-1.1-0.2-2.2-0.5-3.2-0.9c-1.1-0.2-2.1-0.5-2.9-0.9c-1.1-0.4-2.2-0.8-3.2-1.2c-0.9-0.4-1.8-0.8-2.9-1.2c-1.1-0.4-2.1-0.8-2.9-1.2
			c-1.1-0.4-2.1-0.8-2.9-1.2c-1.1-0.4-2.2-0.8-3.2-1.2c-0.9-0.6-1.8-1.1-2.9-1.5c-0.9-0.4-1.9-0.9-2.9-1.5c-0.9-0.4-1.9-0.9-2.9-1.5
			c-0.9-0.6-1.8-1.1-2.9-1.5c-0.9-0.6-1.8-1.2-2.9-1.8c-0.9-0.6-1.7-1.1-2.6-1.5c-1.1-0.6-2.1-1.2-2.9-1.8c-1.7-1.2-3.5-2.4-5.2-3.7
			c-0.9-0.6-1.7-1.2-2.6-1.8c-1.1-0.8-2.1-1.5-2.9-2.1c-0.9-0.6-1.7-1.3-2.6-2.1c-0.9-0.6-1.7-1.3-2.6-2.1c-0.9-0.8-1.7-1.5-2.6-2.1
			c-0.6-0.8-1.4-1.6-2.3-2.4c-0.9-0.8-1.7-1.6-2.6-2.4c-0.9-0.6-1.6-1.3-2.3-2.1c-0.9-0.8-1.7-1.7-2.6-2.7c-0.7-0.8-1.4-1.6-2.3-2.4
			c-0.7-0.8-1.4-1.6-2.3-2.4c-0.7-1-1.3-1.9-2-2.7c-0.9-0.8-1.6-1.7-2.3-2.7c-0.6-0.8-1.3-1.7-1.9-2.7c-0.9-0.8-1.6-1.7-2.3-2.7
			c-0.7-1-1.3-1.9-2-2.7c-0.6-1-1.3-2-1.9-3c-0.6-1-1.2-2-1.6-3c-0.6-1-1.3-2-1.9-3c-0.6-1-1.2-2-1.6-3c-0.7-1-1.3-2-1.9-3
			c-0.4-1-1-2-1.6-3c-0.4-1.2-0.9-2.3-1.3-3.3c-0.6-1-1.2-2.1-1.6-3.3c-0.4-1-1-2-1.6-3c-0.4-1.2-0.9-2.3-1.3-3.3
			c-0.4-1.2-0.9-2.4-1.3-3.6c-0.4-1-0.9-2.1-1.3-3.3c-0.4-1.2-0.8-2.3-1-3.3c-0.4-1.2-0.9-2.4-1.3-3.6c-0.2-1.2-0.5-2.4-1-3.6
			c-0.2-1-0.5-2.1-1-3.3c-0.2-1.2-0.5-2.4-1-3.6c-0.2-1.2-0.4-2.4-0.7-3.6c-0.4-1.4-0.7-2.7-1-3.9c-0.2-1.2-0.4-2.4-0.6-3.6
			c-0.2-1.2-0.4-2.4-0.7-3.6c-0.2-1.4-0.3-2.7-0.3-3.9c-0.2-1.2-0.4-2.5-0.6-3.9c0-1.2-0.1-2.5-0.3-3.9c-0.2-1.2-0.3-2.5-0.3-3.9
			c0-1.2-0.1-2.5-0.3-3.9v-3.9c0-1.2-0.1-2.5-0.3-3.9v-3.9c0.2-1.4,0.3-2.8,0.3-4.2v-3.9c0.2-1.4,0.3-2.8,0.3-4.2
			c0-1.4,0.1-2.8,0.3-4.2c0.2-1.2,0.3-2.5,0.3-3.9c0.2-1.4,0.4-2.8,0.6-4.2c0.2-1.4,0.4-2.8,0.7-4.2c0.2-1.4,0.4-2.8,0.6-4.2
			c0.2-1.4,0.4-2.8,0.7-4.2c0.2-1.6,0.5-3.1,1-4.5c0.2-1.4,0.4-2.8,0.7-4.2c0.4-1.4,0.9-2.8,1.3-4.2c0.2-1.4,0.5-2.9,1-4.5
			c0.4-1.4,0.9-2.8,1.3-4.2c0.4-1.4,0.9-2.9,1.3-4.6c0.4-1.4,0.9-2.8,1.3-4.2c0.4-1.6,1-3.2,1.6-4.8c0.4-1.4,1-2.9,1.6-4.5
			c0.7-1.4,1.2-2.9,1.6-4.5c0.6-1.4,1.3-2.8,1.9-4.2c0.6-1.6,1.3-3.1,1.9-4.5c0.4-1.4,1.1-2.8,1.9-4.2c0.6-1.4,1.3-2.7,1.9-3.9
			c0.7-1.4,1.3-2.8,2-4.2c0.6-1.2,1.4-2.5,2.3-3.9c0.6-1.2,1.3-2.4,1.9-3.6c0.9-1.2,1.6-2.5,2.3-3.9c0.9-1.2,1.6-2.4,2.3-3.6
			c0.9-1,1.7-2.1,2.6-3.3c0.7-1.2,1.4-2.4,2.3-3.6c0.9-1,1.7-2.1,2.6-3.3c0.9-1,1.7-2,2.6-3c0.9-1.2,1.7-2.3,2.6-3.3
			c0.9-1,1.7-2,2.6-3c0.9-1,1.7-2,2.6-3c0.9-1,1.7-1.9,2.6-2.7c0.9-1,1.8-2,2.9-3c0.9-0.8,1.7-1.7,2.6-2.7c1.1-0.8,2.1-1.6,2.9-2.4
			c0.9-1,1.8-1.9,2.9-2.7c0.9-0.8,1.8-1.6,2.9-2.4c0.9-0.8,1.8-1.5,2.9-2.1c1.1-0.8,2-1.6,2.9-2.4c1.1-0.8,2.1-1.5,2.9-2.1
			c1.1-0.8,2.2-1.5,3.2-2.1c1.1-0.6,2-1.2,2.9-1.8c1.1-0.8,2.2-1.5,3.3-2.1c1.1-0.6,2-1.2,2.9-1.8c1.1-0.6,2.2-1.2,3.3-1.8
			c1.1-0.4,2.2-0.9,3.2-1.5c1.1-0.6,2.1-1.1,3.2-1.5c1.1-0.6,2.2-1.1,3.2-1.5c1.1-0.4,2.2-0.9,3.2-1.5c1.1-0.4,2.1-0.8,3.2-1.2
			c1.1-0.4,2.2-0.8,3.3-1.2c1.1-0.4,2.2-0.8,3.3-1.2c1.1-0.4,2.1-0.7,3.2-0.9c1.1-0.4,2.2-0.7,3.3-0.9c1.1-0.4,2.2-0.7,3.3-0.9
			c1.1-0.4,2.1-0.7,3.2-0.9c1.1-0.2,2.2-0.4,3.2-0.6c1.3-0.4,2.5-0.7,3.6-0.9c1.1-0.2,2.2-0.3,3.3-0.3c1.1-0.2,2.1-0.4,3.2-0.6
			c1.1-0.2,2.2-0.3,3.2-0.3c1.1-0.2,2.2-0.4,3.2-0.6h3.6c1.1-0.2,2.2-0.3,3.3-0.3h3.2h3.2h3.2h3.2c1.1,0.2,2.2,0.3,3.3,0.3
			c1.1,0,2.2,0.1,3.2,0.3c1.1,0.2,2,0.3,2.9,0.3c1.1,0.2,2.1,0.4,3.2,0.6c1.1,0,2.2,0.1,3.3,0.3c1.1,0.2,2.2,0.4,3.3,0.6
			c0.9,0.2,1.8,0.4,2.9,0.6c1.1,0.4,2.2,0.7,3.3,0.9c0.9,0.2,1.8,0.4,2.9,0.6c1.1,0.4,2,0.7,2.9,0.9c1.1,0.4,2,0.8,2.9,1.2
			c1.1,0.2,2.2,0.5,3.2,0.9c0.9,0.4,1.7,0.7,2.6,0.9c1.1,0.4,2,0.8,2.9,1.2c1.1,0.4,2.1,0.8,2.9,1.2c0.9,0.4,1.8,0.9,2.9,1.5
			c0.9,0.4,1.7,0.8,2.6,1.2c0.9,0.4,1.8,0.9,2.9,1.5c0.9,0.4,1.7,0.9,2.6,1.5c0.9,0.4,1.7,0.9,2.6,1.5c0.9,0.6,1.7,1.1,2.6,1.5
			c0.9,0.6,1.7,1.2,2.6,1.8c0.6,0.6,1.4,1.2,2.3,1.8c0.9,0.6,1.7,1.2,2.6,1.8c0.6,0.6,1.4,1.2,2.3,1.8c0.9,0.8,1.6,1.5,2.3,2.1
			c0.9,0.6,1.6,1.3,2.3,2.1c0.6,0.6,1.4,1.2,2.3,1.8c0.6,0.8,1.3,1.6,1.9,2.4c0.6,0.6,1.4,1.3,2.3,2.1c0.7,0.8,1.3,1.5,1.9,2.1
			c0.6,0.8,1.3,1.6,2,2.4c0.6,0.8,1.3,1.6,1.9,2.4c0.4,0.8,1,1.6,1.6,2.4c0.7,1,1.2,1.9,1.6,2.7c0.6,0.8,1.2,1.6,1.6,2.4
			c0.6,1,1.2,1.9,1.6,2.7c0.6,1,1.2,1.9,1.6,2.7c0.4,1,0.9,1.9,1.3,2.7c0.7,1,1.2,2,1.6,3c0.4,0.8,0.8,1.7,1,2.7c0.4,1,0.9,2,1.3,3
			c0.4,1,0.8,2,1,3c0.4,1,0.9,2,1.3,3c0.2,1,0.4,2,0.7,3c0.4,1.2,0.8,2.3,1,3.3c0.2,1,0.4,2,0.7,3c0.2,1.2,0.4,2.3,0.6,3.3
			c0.2,1.2,0.4,2.3,0.7,3.3c0.2,1.2,0.4,2.4,0.6,3.6c0,1,0.1,2.1,0.3,3.3c0,1.2,0.1,2.4,0.3,3.6v15.1v8.1c0,0-0.2,4.9-0.7,5.7
			c-0.4,0.8-1,5.7-1,5.7s3.2,10-26.5,10c-33.7,0-62.5,0-68.2-5.7c-0.4-0.4-0.3-27.2-16.2-29.7c-43.5-3.1-42,54.7-42,66.5
			c0,11.8,7.9,64.7,34.7,64.7c16.2,0.6,19.2-8.9,18.6-8.6c-0.7,0.2-16.1,1-22.9,0.5c-6.8-0.5-16-5.1-16.6-17.7
			c-0.6-12.6-7.2-53.3-4.8-58.6c0-14.2,67.1-9.4,92.3-6.8c1.7,0,45.8,2.7,46.9,2.9c1.1,0.2,6.3,1.7,8.4,8.2
			C579.3,358.8,581.6,365.2,581.8,367.1"/>
		<path fill="#FFFFFF" d="M550.7,361.9c0.2,1.6,0.4,3.1,0.5,4.7c0.2,1.6,0.3,3.1,0.5,4.7c0.2,1.6,0.3,3,0.5,4.4
			c0.2,1.6,0.3,3.1,0.3,4.7c0.2,1.4,0.3,2.9,0.3,4.4c0.2,1.4,0.3,2.9,0.3,4.4c0.2,1.4,0.3,2.8,0.3,4.2v4.4v4.2v3.9
			c0,1.4-0.1,2.8-0.3,4.2v3.9c-0.2,1.2-0.3,2.5-0.5,3.9c0,1.2-0.1,2.4-0.3,3.6c-0.2,1.4-0.3,2.7-0.3,3.9c-0.2,1.2-0.4,2.4-0.5,3.7
			c-0.2,1.2-0.3,2.4-0.5,3.6c-0.2,1.2-0.4,2.3-0.8,3.4c-0.2,1.2-0.3,2.5-0.5,3.7c-0.3,1-0.6,2.2-0.8,3.4c-0.4,1-0.6,2.1-0.8,3.1
			c-0.4,1.2-0.6,2.3-0.8,3.4c-0.4,1-0.7,2.1-1,3.1c-0.4,1-0.7,2.1-1,3.1c-0.2,1-0.4,2.1-0.8,3.1c-0.3,1-0.8,2-1.3,2.9
			c-0.3,1-0.7,2.1-1,3.1c-0.3,0.9-0.7,1.7-1,2.6c-0.5,1-1,2-1.3,2.9c-0.5,0.9-1,1.8-1.3,2.9c-0.5,0.9-1,1.7-1.3,2.6
			c-0.5,0.9-1,1.7-1.6,2.6c-0.4,0.7-0.8,1.5-1.3,2.3c-0.5,0.9-1,1.7-1.6,2.6c-0.5,0.7-1,1.5-1.6,2.3c-0.5,0.7-1,1.5-1.6,2.4
			c-0.5,0.7-1.1,1.4-1.6,2.1c-0.5,0.9-1.1,1.6-1.6,2.4c-0.5,0.7-1.1,1.4-1.8,2.1c-0.5,0.7-1,1.4-1.6,2.1c-0.7,0.7-1.3,1.3-1.8,1.8
			c-0.7,0.7-1.3,1.4-1.8,2.1c-0.7,0.5-1.3,1.1-1.8,1.8c-0.7,0.5-1.3,1.1-1.8,1.8c-0.7,0.5-1.4,1-2.1,1.6c-0.7,0.7-1.3,1.3-1.8,1.8
			c-0.7,0.5-1.4,1-2.1,1.6c-0.7,0.5-1.4,1-2.1,1.6c-0.7,0.5-1.4,0.9-2.1,1.3c-0.7,0.5-1.4,1-2.1,1.6c-0.7,0.5-1.4,1-2.1,1.3
			c-0.7,0.5-1.4,0.9-2.1,1.3c-0.7,0.4-1.4,0.8-2.1,1.3c-0.9,0.3-1.7,0.7-2.3,1c-0.7,0.3-1.4,0.7-2.1,1c-0.9,0.3-1.6,0.7-2.3,1
			c-0.7,0.4-1.5,0.7-2.4,1c-0.7,0.3-1.4,0.7-2.1,1c-0.9,0.2-1.7,0.4-2.3,0.8c-0.9,0.2-1.7,0.4-2.4,0.8c-0.9,0.2-1.6,0.4-2.3,0.8
			c-0.9,0.2-1.7,0.4-2.4,0.5c-0.9,0.3-1.7,0.6-2.6,0.8c-0.7,0.2-1.5,0.4-2.3,0.5c-0.7,0.2-1.5,0.3-2.3,0.5c-0.9,0.2-1.7,0.3-2.3,0.3
			c-0.9,0.2-1.7,0.3-2.6,0.5c-0.7,0-1.5,0.1-2.3,0.3c-0.9,0-1.7,0.1-2.6,0.3c-0.7,0-1.5,0.1-2.4,0.3h-2.6h-2.3
			c-0.9,0.2-1.8,0.3-2.6,0.3c-0.9,0-1.7-0.1-2.4-0.3h-2.6c-0.9,0-1.7-0.1-2.6-0.3h-2.3c-0.9-0.2-1.7-0.3-2.6-0.3
			c-0.9-0.2-1.7-0.4-2.6-0.5c-0.7,0-1.5-0.1-2.3-0.3c-0.9-0.2-1.7-0.3-2.6-0.5c-0.9-0.2-1.7-0.3-2.4-0.5c-0.9-0.2-1.7-0.3-2.6-0.5
			c-0.9-0.2-1.7-0.3-2.6-0.5c-0.7-0.4-1.5-0.6-2.3-0.8c-0.9-0.2-1.7-0.4-2.6-0.8c-0.9-0.2-1.6-0.4-2.3-0.8c-0.9-0.2-1.7-0.4-2.6-0.8
			c-0.9-0.2-1.7-0.4-2.4-0.8c-0.9-0.3-1.7-0.7-2.6-1c-0.7-0.3-1.5-0.7-2.3-1c-0.9-0.4-1.7-0.7-2.4-1c-0.9-0.3-1.6-0.7-2.3-1
			c-0.9-0.3-1.7-0.7-2.6-1c-0.7-0.5-1.5-1-2.3-1.3c-0.7-0.3-1.5-0.8-2.4-1.3c-0.7-0.3-1.5-0.8-2.3-1.3c-0.7-0.5-1.5-1-2.3-1.3
			c-0.7-0.5-1.5-1-2.3-1.6c-0.7-0.5-1.4-0.9-2.1-1.3c-0.9-0.5-1.7-1-2.4-1.6c-1.4-1-2.8-2.1-4.2-3.1c-0.7-0.5-1.4-1-2.1-1.6
			c-0.9-0.7-1.7-1.3-2.4-1.8c-0.7-0.5-1.4-1.1-2.1-1.8c-0.7-0.5-1.4-1.1-2.1-1.8c-0.7-0.7-1.4-1.3-2.1-1.8c-0.5-0.7-1.1-1.4-1.8-2.1
			c-0.7-0.7-1.4-1.4-2.1-2.1c-0.7-0.5-1.3-1.1-1.8-1.8c-0.7-0.7-1.4-1.5-2.1-2.3c-0.5-0.7-1.1-1.4-1.8-2.1c-0.5-0.7-1.1-1.4-1.8-2.1
			c-0.5-0.9-1-1.6-1.6-2.3c-0.7-0.7-1.3-1.5-1.8-2.3c-0.5-0.7-1-1.5-1.6-2.4c-0.7-0.7-1.3-1.5-1.8-2.3c-0.5-0.9-1-1.7-1.6-2.4
			c-0.5-0.9-1-1.7-1.6-2.6c-0.5-0.9-1-1.7-1.3-2.6c-0.5-0.9-1-1.7-1.6-2.6c-0.5-0.9-1-1.7-1.3-2.6c-0.5-0.9-1.1-1.7-1.6-2.6
			c-0.3-0.9-0.8-1.7-1.3-2.6c-0.4-1-0.7-2-1.1-2.9c-0.5-0.9-1-1.8-1.3-2.9c-0.3-0.9-0.8-1.7-1.3-2.6c-0.3-1.1-0.7-2-1-2.9
			c-0.3-1-0.7-2.1-1-3.1c-0.4-0.9-0.7-1.8-1.1-2.9c-0.3-1.1-0.6-2-0.8-2.9c-0.4-1-0.7-2.1-1-3.1c-0.2-1-0.4-2.1-0.8-3.1
			c-0.2-0.9-0.4-1.8-0.8-2.9c-0.2-1-0.4-2.1-0.8-3.1c-0.2-1-0.3-2.1-0.5-3.1c-0.3-1.2-0.6-2.4-0.8-3.4c-0.2-1.1-0.3-2.1-0.5-3.1
			c-0.2-1.1-0.4-2.1-0.5-3.1c-0.2-1.2-0.3-2.4-0.3-3.4c-0.2-1-0.3-2.2-0.5-3.4c0-1-0.1-2.2-0.3-3.4c-0.2-1-0.3-2.2-0.3-3.4
			c0-1-0.1-2.2-0.3-3.4v-3.4c0-1-0.1-2.1-0.3-3.4V383c0.2-1.2,0.3-2.4,0.3-3.6V376c0.2-1.2,0.3-2.4,0.3-3.7c0-1.2,0.1-2.4,0.3-3.6
			c0.2-1,0.3-2.2,0.3-3.4c0.2-1.2,0.4-2.4,0.5-3.6c0.2-1.2,0.3-2.4,0.5-3.7c0.2-1.2,0.3-2.4,0.5-3.7c0.2-1.2,0.4-2.4,0.5-3.6
			c0.2-1.4,0.4-2.7,0.8-3.9c0.2-1.2,0.3-2.4,0.5-3.6c0.4-1.2,0.7-2.4,1-3.6c0.2-1.2,0.4-2.5,0.8-3.9c0.3-1.2,0.7-2.4,1-3.6
			c0.4-1.2,0.7-2.5,1-3.9c0.4-1.2,0.7-2.4,1.1-3.7c0.3-1.4,0.8-2.8,1.3-4.2c0.3-1.2,0.8-2.5,1.3-3.9c0.5-1.2,0.9-2.5,1.3-3.9
			c0.5-1.2,1-2.4,1.6-3.6c0.5-1.4,1-2.7,1.6-3.9c0.4-1.2,0.9-2.4,1.6-3.6c0.5-1.2,1-2.4,1.6-3.4c0.5-1.2,1-2.4,1.6-3.7
			c0.5-1,1.1-2.2,1.8-3.4c0.5-1,1-2.1,1.6-3.1c0.7-1,1.3-2.2,1.8-3.4c0.7-1,1.3-2.1,1.8-3.1c0.7-0.9,1.4-1.8,2.1-2.9
			c0.5-1,1.1-2.1,1.8-3.1c0.7-0.9,1.4-1.8,2.1-2.9c0.7-0.9,1.4-1.7,2.1-2.6c0.7-1,1.4-2,2.1-2.9c0.7-0.9,1.4-1.7,2.1-2.6
			c0.7-0.9,1.4-1.7,2.1-2.6c0.7-0.9,1.4-1.6,2.1-2.3c0.7-0.9,1.5-1.7,2.3-2.6c0.7-0.7,1.4-1.5,2.1-2.3c0.9-0.7,1.6-1.4,2.3-2.1
			c0.7-0.9,1.5-1.7,2.3-2.3c0.7-0.7,1.5-1.4,2.4-2.1c0.7-0.7,1.5-1.3,2.3-1.8c0.9-0.7,1.6-1.4,2.4-2.1c0.9-0.7,1.6-1.3,2.3-1.8
			c0.9-0.7,1.7-1.3,2.6-1.8c0.9-0.5,1.7-1,2.3-1.6c0.9-0.7,1.7-1.3,2.6-1.8c0.9-0.5,1.7-1,2.4-1.6c0.9-0.5,1.7-1.1,2.6-1.6
			c0.9-0.3,1.7-0.8,2.6-1.3c0.9-0.5,1.7-0.9,2.6-1.3c0.9-0.5,1.7-0.9,2.6-1.3c0.9-0.3,1.7-0.8,2.6-1.3c0.9-0.3,1.7-0.7,2.6-1
			c0.9-0.3,1.7-0.7,2.6-1c0.9-0.3,1.7-0.7,2.6-1.1c0.9-0.3,1.7-0.6,2.6-0.8c0.9-0.3,1.7-0.6,2.6-0.8c0.9-0.3,1.7-0.6,2.6-0.8
			c0.9-0.3,1.7-0.6,2.6-0.8c0.9-0.2,1.7-0.3,2.6-0.5c1-0.3,2-0.6,2.9-0.8c0.9-0.2,1.7-0.3,2.6-0.3c0.9-0.2,1.7-0.3,2.6-0.5
			c0.9-0.2,1.7-0.3,2.6-0.3c0.9-0.2,1.7-0.3,2.6-0.5h2.9c0.9-0.2,1.7-0.3,2.6-0.3h2.6h2.6h2.6h2.6c0.9,0.2,1.7,0.3,2.6,0.3
			c0.9,0,1.7,0.1,2.6,0.3c0.9,0.2,1.6,0.3,2.3,0.3c0.9,0.2,1.7,0.3,2.6,0.5c0.9,0,1.7,0.1,2.6,0.3c0.9,0.2,1.7,0.4,2.6,0.5
			c0.7,0.2,1.5,0.3,2.3,0.5c0.9,0.3,1.7,0.6,2.6,0.8c0.7,0.2,1.5,0.3,2.4,0.5c0.9,0.3,1.6,0.6,2.3,0.8c0.9,0.4,1.7,0.7,2.3,1
			c0.9,0.2,1.7,0.4,2.6,0.8c0.7,0.3,1.4,0.6,2.1,0.8c0.9,0.3,1.6,0.7,2.3,1c0.9,0.3,1.6,0.7,2.3,1c0.7,0.4,1.5,0.8,2.4,1.3
			c0.7,0.4,1.4,0.7,2.1,1c0.7,0.3,1.5,0.8,2.4,1.3c0.7,0.3,1.4,0.8,2.1,1.3c0.7,0.3,1.4,0.8,2.1,1.3c0.7,0.5,1.4,1,2.1,1.3
			c0.7,0.5,1.4,1,2.1,1.6c0.5,0.5,1.1,1,1.8,1.6c0.7,0.5,1.4,1,2.1,1.6c0.5,0.5,1.1,1,1.8,1.6c0.7,0.7,1.3,1.3,1.8,1.8
			c0.7,0.5,1.3,1.1,1.8,1.8c0.5,0.5,1.1,1,1.8,1.6c0.5,0.7,1,1.4,1.6,2.1c0.5,0.5,1.1,1.1,1.8,1.8c0.5,0.7,1,1.3,1.6,1.8
			c0.5,0.7,1.1,1.4,1.6,2.1c0.5,0.7,1.1,1.4,1.6,2.1c0.3,0.7,0.8,1.4,1.3,2.1c0.5,0.9,1,1.7,1.3,2.4c0.5,0.7,1,1.4,1.3,2.1
			c0.5,0.9,0.9,1.7,1.3,2.4c0.5,0.9,0.9,1.6,1.3,2.3c0.3,0.9,0.7,1.7,1,2.4c0.5,0.9,1,1.7,1.3,2.6c0.3,0.7,0.6,1.5,0.8,2.4
			c0.3,0.9,0.7,1.7,1,2.6c0.3,0.9,0.6,1.7,0.8,2.6c0.3,0.9,0.7,1.7,1,2.6c0.2,0.9,0.3,1.7,0.5,2.6c0.3,1,0.6,2,0.8,2.9
			c0.2,0.9,0.3,1.7,0.5,2.6c0.2,1,0.3,2,0.5,2.9c0.2,1,0.3,2,0.5,2.9c0.2,1,0.3,2.1,0.5,3.1c0,0.9,0.1,1.8,0.3,2.8
			c0,1.1,0.1,2.1,0.3,3.1v2.9v3.1c0,0.9-0.2,1.7-0.5,2.3c-0.4,0.7-0.8,1.3-1.3,1.8c-0.7,0.5-1.4,1.1-2.1,1.6c-0.9,0.5-1.8,1-2.9,1.3
			c-1.2,0.4-2.3,0.6-3.4,0.8c-1.4,0.3-2.7,0.6-3.9,0.8c-1.4,0.4-2.8,0.5-4.2,0.5c-1.6,0.2-3,0.3-4.4,0.3c-1.6,0.2-3.1,0.3-4.7,0.3
			c-1.4,0-2.9-0.1-4.4-0.3c-1.6,0-3-0.1-4.4-0.3c-1.4-0.2-2.8-0.3-4.2-0.5c-1.4-0.2-2.7-0.4-3.9-0.8c-1.2-0.2-2.3-0.4-3.4-0.8
			c-1.1-0.4-2-0.7-2.9-1.1c-0.9-0.3-1.7-0.7-2.3-1c-0.5-0.3-1-0.8-1.3-1.3c-0.3-0.3-0.5-0.8-0.5-1.3c-0.2-0.9-0.3-1.7-0.3-2.6
			c0-0.9-0.1-1.7-0.3-2.6c-0.2-0.9-0.3-1.7-0.5-2.6c0-0.9-0.2-1.7-0.5-2.4c-0.2-0.9-0.4-1.7-0.5-2.3c-0.3-0.9-0.6-1.7-0.8-2.3
			c-0.4-0.9-0.7-1.7-1-2.4c-0.2-0.7-0.4-1.4-0.8-2.1c-0.3-0.7-0.8-1.3-1.3-1.8c-0.3-0.7-0.7-1.4-1-2.1c-0.3-0.5-0.8-1.1-1.3-1.8
			c-0.5-0.5-1-1.1-1.3-1.6c-0.5-0.5-1-1-1.6-1.5c-0.5-0.5-1.1-1-1.6-1.6c-0.5-0.5-1-0.9-1.6-1.3c-0.5-0.5-1-0.9-1.6-1.3
			c-0.7-0.5-1.3-1-1.8-1.3c-0.7-0.4-1.3-0.7-1.8-1c-0.7-0.3-1.3-0.7-1.8-1.1c-0.7-0.2-1.3-0.4-1.8-0.8c-0.7-0.2-1.4-0.4-2.1-0.8
			c-0.7-0.2-1.4-0.3-2.1-0.5c-0.7-0.2-1.3-0.3-1.8-0.5c-0.7,0-1.4-0.1-2.1-0.3c-0.7-0.2-1.4-0.3-2.1-0.3H456h-2.1h-2.1
			c-0.7,0.2-1.4,0.3-2.1,0.5c-0.7,0-1.4,0.1-2.1,0.3c-0.9,0.2-1.7,0.3-2.3,0.5c-0.7,0.3-1.4,0.6-2.1,0.8c-0.7,0.3-1.4,0.6-2.1,0.8
			c-0.7,0.4-1.4,0.7-2.1,1c-0.7,0.3-1.4,0.7-2.1,1c-0.7,0.5-1.4,1-2.1,1.3c-0.7,0.5-1.4,1-2.1,1.6c-0.7,0.5-1.4,1-2.1,1.6
			c-0.7,0.5-1.4,1-2.1,1.6c-0.5,0.7-1.1,1.3-1.8,1.8c-0.7,0.7-1.3,1.4-1.8,2.1c-0.7,0.7-1.3,1.5-1.8,2.3c-0.7,0.7-1.3,1.5-1.8,2.4
			c-0.7,0.7-1.3,1.5-1.8,2.4c-0.5,0.9-1,1.7-1.6,2.6c-0.5,1-1.1,2-1.6,2.8c-0.5,1.1-1,2.1-1.6,3.1c-0.5,1-1,2.1-1.3,3.1
			c-0.5,1-1,2.2-1.3,3.4c-0.5,1-1,2.2-1.3,3.4c-0.5,1.2-1,2.4-1.3,3.7c-0.3,1.4-0.7,2.7-1,3.9c-0.3,1.4-0.6,2.7-0.8,3.9
			c-0.4,1.4-0.6,2.9-0.8,4.4c-0.3,1.4-0.6,2.8-0.8,4.2c-0.4,1.6-0.6,3.1-0.8,4.7c-0.2,1.6-0.3,3.1-0.3,4.7c-0.2,1.7-0.3,3.4-0.5,5
			c0,1.7-0.1,3.5-0.3,5.2v5.2v5.5c0.2,1.7,0.3,3.5,0.3,5.2c0.2,1.6,0.3,3.1,0.3,4.7c0.2,1.7,0.3,3.4,0.5,5c0.2,1.4,0.4,2.9,0.8,4.4
			c0.2,1.6,0.4,3,0.8,4.4c0.2,1.4,0.4,2.8,0.8,4.2c0.3,1.4,0.7,2.8,1,4.2c0.3,1.2,0.7,2.5,1,3.9c0.5,1.2,1,2.4,1.3,3.7
			c0.5,1.2,1,2.4,1.3,3.7c0.5,1,1,2.2,1.6,3.4c0.5,1.1,1.1,2.1,1.6,3.1c0.5,1,1.1,2.1,1.6,3.1c0.5,1,1.1,2.1,1.8,3.1
			c0.5,0.9,1.1,1.7,1.8,2.6c0.5,0.9,1.1,1.7,1.8,2.6c0.7,0.9,1.4,1.7,2.1,2.6c0.5,0.9,1.1,1.7,1.8,2.3c0.7,0.7,1.4,1.4,2.1,2.1
			c0.7,0.7,1.4,1.4,2.1,2.1c0.9,0.7,1.6,1.3,2.3,1.8c0.7,0.7,1.4,1.3,2.1,1.8c0.9,0.5,1.7,1,2.4,1.6c0.7,0.5,1.5,1,2.3,1.3
			c0.7,0.5,1.5,1,2.4,1.3c0.7,0.3,1.5,0.7,2.3,1.1c0.7,0.3,1.5,0.7,2.3,1c0.7,0.4,1.5,0.6,2.3,0.8c0.7,0.3,1.5,0.6,2.4,0.8
			c0.7,0.2,1.5,0.4,2.3,0.5c0.7,0.2,1.5,0.3,2.4,0.3c0.7,0.2,1.5,0.3,2.4,0.3c0.7,0.2,1.5,0.3,2.3,0.3h2.1c0.9-0.2,1.7-0.3,2.3-0.3
			c0.7,0,1.5-0.1,2.4-0.3c0.7-0.2,1.4-0.3,2.1-0.5c0.7-0.2,1.4-0.3,2.1-0.5c0.7-0.2,1.4-0.4,2.1-0.8c0.7-0.2,1.4-0.4,2.1-0.8
			c0.7-0.3,1.4-0.7,2.1-1.1c0.7-0.3,1.3-0.7,1.8-1c0.7-0.5,1.3-1,1.8-1.3c0.7-0.5,1.3-1,1.8-1.6c0.5-0.3,1.1-0.8,1.8-1.3
			c0.5-0.7,1.1-1.3,1.6-1.8c0.5-0.5,1-1.1,1.3-1.8c0.5-0.5,1-1.1,1.6-1.8c0.4-0.7,0.8-1.4,1.3-2.1c0.3-0.7,0.7-1.4,1-2.1
			c0.4-0.9,0.7-1.7,1.1-2.4c0.3-0.9,0.7-1.6,1-2.3c0.3-0.9,0.6-1.7,0.8-2.6c0.3-0.9,0.6-1.8,0.8-2.9c0.2-0.9,0.4-1.7,0.5-2.6
			c0.2-1,0.3-2.1,0.3-3.1c0.2-0.9,0.3-1.8,0.3-2.9c0.2-1.2,0.3-2.2,0.3-3.1c0-0.2-0.3-0.2-0.8,0c-0.5,0.2-1.1,0.3-1.8,0.3
			c-0.9,0-1.7,0.1-2.6,0.3c-1.2,0.2-2.4,0.4-3.7,0.5c-1.4,0-2.8,0.1-4.2,0.3c-1.4,0.2-2.9,0.3-4.4,0.5c-1.6,0-3.1,0.1-4.7,0.3
			c-1.6,0-3,0.1-4.4,0.3h-4.4c-1.4,0-2.8-0.1-4.2-0.3c-1,0-2.2-0.1-3.4-0.3c-0.9-0.2-1.7-0.3-2.4-0.5c-0.7-0.3-1.2-0.7-1.6-1
			c-0.3-0.3-0.6-0.8-0.8-1.3c-0.3-0.7-0.6-1.4-0.8-2.1c-0.3-0.9-0.6-1.8-0.8-2.9c-0.3-1-0.6-2.2-0.8-3.4c-0.4-1.2-0.6-2.4-0.8-3.7
			c-0.4-1.4-0.6-2.8-0.8-4.2c-0.4-1.6-0.6-3-0.8-4.4c-0.2-1.5-0.3-3.1-0.5-4.7c-0.2-1.6-0.3-3-0.5-4.4c-0.2-1.6-0.4-3.1-0.5-4.7
			c-0.2-1.4-0.3-2.8-0.3-4.2c0-1.4-0.1-2.7-0.3-3.9c0-1.2,0.1-2.4,0.3-3.7V359c0.2-0.7,0.3-1.5,0.5-2.4c0.2-0.5,0.4-1.1,0.8-1.6
			c0.2-0.3,0.4-0.5,0.8-0.5c0.5-0.2,1.1-0.3,1.8-0.3c0.5,0,1.1-0.1,1.8-0.3c0.9,0,1.6-0.1,2.3-0.3c1,0,2-0.1,2.9-0.3h3.1
			c1-0.2,2.1-0.3,3.1-0.3c1.2,0,2.4-0.1,3.7-0.3h3.9c1.2-0.2,2.5-0.3,3.9-0.3h4.2c1.4-0.2,2.9-0.3,4.4-0.3h4.4h4.4h4.4h4.4
			c1.6,0,3.1,0.1,4.7,0.3h4.4c1.4,0.2,2.8,0.3,4.2,0.3c1.6,0,3,0.1,4.4,0.3c1.4,0,2.7,0.1,3.9,0.3c1.4,0.2,2.7,0.3,3.9,0.5
			c1.4,0,2.7,0.1,3.9,0.3c1,0.2,2.2,0.4,3.4,0.5c1,0.2,2.1,0.3,3.1,0.5c1,0.3,2,0.6,2.9,0.8c0.9,0.2,1.7,0.4,2.6,0.8
			c0.7,0.2,1.5,0.5,2.4,0.8c0.5,0.2,1,0.4,1.6,0.8c0.5,0.3,1,0.7,1.6,1c0.3,0.3,0.6,0.7,0.8,1C550.3,360.9,550.5,361.4,550.7,361.9"
			/>
	</g>
</g>
</svg>
