<?xml version="1.0" encoding="utf-8"?>
<!-- Generator: Adobe Illustrator 18.0.0, SVG Export Plug-In . SVG Version: 6.00 Build 0)  -->
<!DOCTYPE svg PUBLIC "-//W3C//DTD SVG 1.1//EN" "http://www.w3.org/Graphics/SVG/1.1/DTD/svg11.dtd">
<svg version="1.1" id="Camada_1" xmlns="http://www.w3.org/2000/svg" xmlns:xlink="http://www.w3.org/1999/xlink" x="0px" y="0px"
	 viewBox="0 0 1024 768" enable-background="new 0 0 1024 768" xml:space="preserve">
<g>
	<defs>
		<circle id="SVGID_1_" cx="511.9" cy="383.4" r="375.7"/>
	</defs>
	<clipPath id="SVGID_2_">
		<use xlink:href="#SVGID_1_"  overflow="visible"/>
	</clipPath>
	<g clip-path="url(#SVGID_2_)" enable-background="new    ">
		
			<image overflow="visible" width="2474" height="2474" xlink:href="../../banco de imagens/botões/butt 25.png"  transform="matrix(0.3065 0 0 0.3065 132.8006 4.7999)">
		</image>
	</g>
</g>
<g>
	<g>
		<path d="M351.8,201.7c24.5,2.5,39.6,6.2,45.4,10c5.9,3.8,9,13.3,9,19c0.1,2.5,2.5,200.9,7,202.2c4.4,1.2,68.6-13.1,98-19
			c29.5-6,11.7,78.1,11.5,79.6c-0.2,1.7-11,44.6-14.6,48.1c-3.6,3.5-44,4.4-45.3,4.5c-1.6,0-3,0-4.4,0c-1.6,0.2-3,0.3-4.3,0.3
			c-1.5,0-3.1,0-4.6,0c-1.7,0.2-3.4,0.3-4.9,0.3c-1.5,0-3.2,0-4.9,0c-1.5,0-3.2,0.1-4.9,0.3c-1.7,0-3.4,0-4.9,0c-1.7,0-3.5,0-5.2,0
			c-1.7,0-3.5,0.1-5.2,0.3c-1.7,0-3.5,0-5.2,0s-3.5,0-5.2,0c-1.7,0-3.6,0-5.5,0c-1.7,0.2-3.5,0.3-5.2,0.3c-1.7,0-3.5,0-5.2,0
			c-1.9,0-3.8,0-5.5,0c-1.7,0-3.5,0-5.2,0c-1.7,0-3.5,0-5.2,0s-3.5,0-5.2,0c-1.7,0-3.5,0-5.2,0c-1.5,0-3.2,0-4.9,0
			c-1.7,0-3.4,0-4.9,0c-1.7,0-3.4,0-4.9,0c-1.6,0-3.2,0-4.9,0c-1.5,0-3.1,0-4.6,0c-1.4-0.2-2.8-0.3-4.3-0.3c-1.4,0-2.8,0-4.3,0
			c-1.4,0-2.7,0-4,0c-1.4,0-2.7-0.1-4.1-0.3c-1.4,0-2.6,0-3.8,0c-1.1,0-2.3,0-3.5,0c-1.1-0.2-2.3-0.3-3.5-0.3c-1.1,0-2.2,0-3.2,0
			c-1-0.2-1.9-0.3-2.9-0.3c-0.8,0-1.6,0-2.6,0c-0.8-0.2-1.5-0.3-2.3-0.3c-0.8,0-1.5-0.1-2-0.3c-0.8,0-1.4,0-2,0
			c-0.4-0.2-0.9-0.3-1.5-0.3c-0.4,0-0.8-0.1-1.1-0.3c-0.2,0-0.5-0.1-0.9-0.3c-0.2,0-0.3-0.1-0.3-0.3c-0.2,0-0.3-0.1-0.3-0.3
			l-0.3-0.3c0-0.2,0-0.5,0-0.9c0-0.2-0.1-0.5-0.3-0.9c0-0.4,0-0.8,0-1.2c-0.2-0.4-0.3-0.8-0.3-1.1c0-0.6,0-1.1,0-1.5
			c0-0.6-0.1-1.1-0.3-1.7c0-0.6,0-1.2,0-2c0-0.6-0.1-1.3-0.3-2c0-0.8,0-1.4,0-2c0-0.8,0-1.6,0-2.6c0-0.8-0.1-1.5-0.3-2.3
			c0-1,0-1.9,0-2.9c0-1,0-1.9,0-2.9c0-1-0.1-1.9-0.3-2.9c0-1.2,0-2.2,0-3.2c0-1.2,0-2.3,0-3.5c0-1.1,0-2.3,0-3.5c0-1.2,0-2.3,0-3.5
			c-0.2-1.2-0.3-2.4-0.3-3.8c0-1.2,0-2.4,0-3.8c0-1.3,0-2.7,0-4c0-1.3,0-2.7,0-4c0-1.4,0-2.7,0-4.1c0-1.4,0-2.8,0-4.3
			c0-1.3,0-2.8,0-4.3c0-1.3,0-2.8,0-4.3c0-1.5,0-3.1,0-4.6c0-1.5,0-3.1,0-4.6c0-1.5,0-3.1,0-4.6c0-1.5,0-3.2,0-4.9
			c0-1.5,0-3.1,0-4.6c0-1.7,0-3.4,0-4.9c0-1.7,0-3.5,0-5.2c0-1.5,0-3.2,0-4.9c0-1.7,0-3.5,0-5.2c0-1.6,0-3.2,0-4.9
			c0.2-1.7,0.3-3.5,0.3-5.2c0-1.7,0-3.5,0-5.2c0-1.7,0-3.5,0-5.2c0-1.7,0-3.6,0-5.5c0-1.7,0-3.5,0-5.2c0.2-1.7,0.3-3.5,0.3-5.2
			s0-3.6,0-5.5c0-1.7,0-3.5,0-5.2s0.1-3.5,0.3-5.2c0-1.9,0-3.8,0-5.5c0-1.7,0-3.5,0-5.2c0-1.7,0.1-3.6,0.3-5.5c0-1.7,0-3.5,0-5.2
			c0-1.7,0-3.5,0-5.2c0-1.7,0.1-3.5,0.3-5.2c0-1.7,0-3.5,0-5.2c0-1.7,0-3.5,0-5.2c0.2-1.7,0.3-3.5,0.3-5.2c0-1.7,0-3.5,0-5.2
			c0.2-1.7,0.3-3.4,0.3-4.9c0-1.7,0-3.5,0-5.2c0-1.5,0.1-3.2,0.3-4.9c0-1.5,0-3.2,0-4.9c0-1.5,0.1-3.1,0.3-4.6c0-1.5,0-3.2,0-4.9
			c0-1.5,0.1-3.1,0.3-4.6c0-1.5,0-3.1,0-4.6c0-1.4,0.1-2.8,0.3-4.3c0-1.5,0-3,0-4.3c0.2-1.5,0.3-3,0.3-4.3c0-1.3,0-2.8,0-4.4
			c0.2-1.3,0.3-2.7,0.3-4c0-1.4,0.1-2.7,0.3-4.1c0-1.1,0-2.4,0-3.8c0.2-1.3,0.3-2.6,0.3-3.8c0-1.2,0-2.4,0-3.8
			c0.2-1.2,0.3-2.3,0.3-3.5c0-1.2,0.1-2.2,0.3-3.2c0-1.2,0-2.3,0-3.5c0.2-1,0.3-1.9,0.3-2.9c0-1,1.9-23,5.6-29
			C307.9,198.6,327.3,199.2,351.8,201.7z"/>
		<path fill="#FFFFFF" d="M320.3,230c0.6-0.3,1.2-0.6,1.7-0.8c0.8-0.2,1.5-0.3,2.2-0.5c0.9-0.2,1.8-0.3,2.6-0.5
			c1.1,0,2.1-0.1,3.1-0.3c1.1,0,2.2,0,3.4,0c1.1-0.2,2.3-0.2,3.6-0.2c1.3,0,2.6,0.1,3.8,0.2c1.3,0,2.5,0,3.8,0
			c1.4,0.2,2.8,0.3,4.1,0.3c1.4,0.2,2.8,0.3,4.1,0.5c1.4,0,2.8,0.1,4.1,0.3c1.4,0.2,2.8,0.3,4.1,0.5c1.3,0.2,2.5,0.3,3.8,0.5
			c1.1,0.2,2.2,0.3,3.4,0.5c1.1,0.2,2.2,0.4,3.4,0.8c1,0.2,2,0.3,3.1,0.5c0.8,0.2,1.6,0.4,2.4,0.8c0.8,0.2,1.5,0.3,2.2,0.5
			c0.5,0.2,1,0.4,1.7,0.8c0.3,0.2,0.6,0.3,1,0.5c0.2,0.2,0.2,0.3,0.2,0.5c0.2,0.2,0.3,0.3,0.5,0.5c0.2,0.3,0.3,0.6,0.5,0.8
			c0,0.3,0.1,0.7,0.2,1c0.2,0.3,0.2,0.7,0.2,1c0.2,0.3,0.3,0.8,0.5,1.3c0.2,0.3,0.3,0.8,0.3,1.3c0.2,0.5,0.2,1,0.2,1.5
			c0.2,0.5,0.3,1,0.5,1.5c0,0.5,0.1,1.1,0.2,1.8c0,0.5,0.1,1.1,0.2,1.8c0,0.7,0.1,1.3,0.2,2c0,0.7,0.1,1.3,0.2,2
			c0,0.7,0.1,1.4,0.3,2.3c0,0.7,0.1,1.4,0.2,2.3c0,0.8,0.1,1.7,0.2,2.5c0,0.8,0.1,1.7,0.2,2.5c0,0.8,0,1.7,0,2.5
			c0.2,0.8,0.2,1.8,0.2,2.8c0,0.8,0.1,1.8,0.2,2.8c0,1,0,1.9,0,2.8c0.2,1,0.3,2,0.3,3s0.1,2.1,0.2,3.3c0,1,0,2,0,3
			c0.2,1,0.2,2.1,0.2,3.3c0,1,0,2.1,0,3.3c0.2,1.2,0.2,2.3,0.2,3.3c0,1.2,0,2.4,0,3.5c0,1.2,0.1,2.3,0.2,3.5c0,1.2,0,2.3,0,3.5
			c0,1.2,0,2.4,0,3.8c0.2,1.2,0.2,2.3,0.2,3.5c0,1.3,0,2.6,0,3.8c0,1.3,0,2.6,0,3.8c0.2,1.3,0.2,2.6,0.2,3.8c0,1.3,0,2.7,0,4
			c0,1.2,0,2.4,0,3.8c0,1.3,0,2.7,0,4c0.2,1.3,0.3,2.6,0.3,3.8c0,1.3,0,2.7,0,4s0,2.7,0,4c0,1.3,0,2.7,0,4s0.1,2.7,0.2,4
			c0,1.3,0,2.8,0,4.3c0,1.3,0,2.7,0,4c0,1.3,0,2.7,0,4c0,1.3,0,2.7,0,4c0,1.3,0.1,2.7,0.2,4c0,1.5,0,2.9,0,4.3c0,1.3,0,2.7,0,4
			c0,1.3,0,2.7,0,4c0,1.3,0,2.7,0,4c0,1.3,0.1,2.7,0.2,4c0,1.3,0,2.7,0,4c0,1.3,0,2.7,0,4c0,1.3,0,2.7,0,4c0,1.4,0,2.6,0,3.8
			c0.2,1.3,0.2,2.7,0.2,4c0,1.4,0,2.6,0,3.8c0,1.3,0,2.6,0,3.8c0.2,1.3,0.2,2.7,0.2,4c0,1.2,0,2.4,0,3.5c0,1.3,0,2.6,0,3.8
			c0.2,1.2,0.3,2.4,0.3,3.5c0,1.3,0,2.6,0,3.8c0,1.2,0.1,2.4,0.2,3.5c0,1.2,0,2.3,0,3.3c0,1.2,0.1,2.4,0.3,3.5c0,1.2,0,2.3,0,3.3
			c0,1.2,0.1,2.3,0.2,3.3c0,0.2,0.3,0.3,1,0.3c0.5-0.2,0.9-0.2,1.4,0c0.6,0,1.2,0,1.7,0c0.8-0.2,1.5-0.3,2.2-0.3
			c0.8,0,1.6-0.1,2.4-0.3c0.8-0.2,1.6-0.3,2.4-0.3c0.9-0.2,1.9-0.3,2.9-0.5c0.9-0.2,2-0.3,3.1-0.5c1.1-0.2,2.2-0.3,3.1-0.5
			c1.1-0.2,2.3-0.3,3.6-0.5c1.1-0.2,2.3-0.4,3.6-0.8c1.1-0.2,2.3-0.3,3.6-0.5c1.3-0.3,2.6-0.6,3.8-0.7c1.3-0.2,2.5-0.4,3.8-0.8
			c1.3-0.2,2.6-0.4,4.1-0.8c1.3-0.2,2.5-0.4,3.8-0.7c1.4-0.2,2.8-0.4,4.1-0.8c1.4-0.2,2.8-0.4,4.1-0.8c1.3-0.2,2.6-0.4,4.1-0.7
			c1.3-0.2,2.5-0.4,3.8-0.8c1.4-0.2,2.8-0.4,4.1-0.8c1.3-0.2,2.5-0.3,3.8-0.5c1.3-0.3,2.5-0.6,3.6-0.8c1.3-0.2,2.5-0.3,3.6-0.5
			c1.3-0.3,2.5-0.6,3.6-0.8c1.1-0.2,2.2-0.3,3.4-0.5c1-0.2,2-0.3,3.1-0.5c1,0,1.9-0.1,2.9-0.3c0.8-0.2,1.7-0.3,2.6-0.3
			c0.8-0.2,1.6-0.3,2.4-0.3c0.6,0,1.4-0.1,2.2-0.3c0.5,0,1,0,1.7,0c0.5,0,1,0.1,1.4,0.3c0.5,0,0.9,0,1.2,0c0.3,0.2,0.6,0.3,1,0.3
			c0.2,0.3,0.4,0.6,0.7,0.7c0.2,0.5,0.3,1,0.5,1.5c0.1,0.5,0.3,1,0.5,1.5c0,0.8,0.1,1.6,0.2,2.3c0,0.8,0,1.8,0,2.8
			c0.2,0.8,0.2,1.8,0.2,2.8c-0.2,1.2-0.2,2.3-0.2,3.3c0,1.2-0.1,2.3-0.2,3.5c0,1.3-0.1,2.6-0.2,3.8c-0.2,1.3-0.2,2.7-0.2,4
			c-0.2,1.3-0.3,2.7-0.5,4c-0.2,1.5-0.3,2.9-0.5,4.3c-0.3,1.5-0.5,2.9-0.7,4.3c-0.2,1.5-0.4,2.9-0.7,4.3c-0.2,1.5-0.3,2.9-0.5,4.3
			c-0.3,1.4-0.6,2.8-1,4.3c-0.2,1.3-0.4,2.7-0.7,4c-0.2,1.3-0.4,2.7-0.7,4c-0.2,1.2-0.4,2.4-0.7,3.8c-0.3,1.2-0.6,2.3-0.7,3.5
			c-0.3,1-0.7,2.1-1,3.3c-0.2,1-0.4,2-0.7,3c-0.2,0.8-0.4,1.7-0.7,2.5c-0.2,0.7-0.4,1.4-0.7,2.3c-0.2,0.5-0.4,1.1-0.7,1.8
			c-0.2,0.3-0.3,0.7-0.5,1.3c-0.2,0.2-0.4,0.4-0.7,0.8h-0.2c-0.3,0.2-0.6,0.2-0.7,0.2c-0.3,0.2-0.6,0.3-1,0.3
			c-0.5,0.2-0.9,0.3-1.2,0.3c-0.5,0-1.1,0.1-1.7,0.3c-0.5,0-1,0.1-1.7,0.3c-0.6,0-1.3,0-1.9,0c-0.8,0.2-1.5,0.3-2.2,0.3
			c-0.8,0.2-1.6,0.3-2.4,0.3c-0.8,0-1.7,0.1-2.6,0.3c-0.9,0-1.9,0-2.9,0c-1,0.2-1.9,0.3-2.9,0.3c-1,0-2,0.1-3.1,0.3
			c-1.1,0-2.2,0-3.4,0c-1.1,0-2.2,0.1-3.3,0.2c-1.3,0-2.5,0-3.6,0c-1.3,0.2-2.5,0.3-3.6,0.3c-1.3,0-2.6,0-3.8,0
			c-1.4,0.2-2.8,0.3-4.1,0.3c-1.3,0-2.7,0-4.1,0c-1.3,0-2.6,0.1-4.1,0.3c-1.4,0-2.8,0-4.1,0c-1.4,0-2.9,0-4.3,0s-2.9,0.1-4.3,0.3
			c-1.4,0-2.9,0-4.3,0c-1.4,0-2.9,0-4.3,0c-1.4,0-3,0-4.5,0c-1.4,0.2-2.9,0.3-4.3,0.3c-1.4,0-2.9,0-4.3,0c-1.6,0-3.1,0-4.6,0
			c-1.4,0-2.8,0-4.3,0c-1.4,0-2.9,0-4.3,0c-1.4,0-2.9,0-4.3,0c-1.4,0-2.9,0-4.3,0c-1.3,0-2.6,0-4.1,0s-2.8,0-4.1,0
			c-1.4,0-2.8,0-4.1,0s-2.6,0-4.1,0c-1.3,0-2.6,0-3.8,0c-1.1-0.2-2.3-0.3-3.6-0.3c-1.1,0-2.3,0-3.6,0c-1.1,0-2.2,0-3.4,0
			s-2.2-0.1-3.4-0.3c-1.1,0-2.1,0-3.1,0s-1.9,0-2.9,0c-1-0.2-1.9-0.3-2.9-0.3c-0.9,0-1.8,0-2.6,0c-0.8-0.2-1.6-0.3-2.4-0.3
			c-0.6,0-1.4,0-2.1,0c-0.6-0.2-1.3-0.3-1.9-0.3s-1.2-0.1-1.7-0.2c-0.6,0-1.2,0-1.7,0c-0.3-0.2-0.7-0.3-1.2-0.3
			c-0.3,0-0.7-0.1-1-0.3c-0.2,0-0.4-0.1-0.7-0.3c-0.2,0-0.2-0.1-0.2-0.3c-0.2,0-0.3-0.1-0.3-0.3l-0.2-0.3c0-0.2,0-0.4,0-0.8
			c0-0.2-0.1-0.4-0.2-0.7c0-0.3,0-0.7,0-1c-0.2-0.3-0.2-0.7-0.2-1c0-0.5,0-0.9,0-1.3c0-0.5-0.1-1-0.2-1.5c0-0.5,0-1.1,0-1.8
			c0-0.5-0.1-1.1-0.2-1.7c0-0.7,0-1.3,0-1.8c0-0.7,0-1.4,0-2.3c0-0.7-0.1-1.3-0.2-2c0-0.8,0-1.7,0-2.5c0-0.8,0-1.7,0-2.5
			c0-0.8-0.1-1.7-0.2-2.5c0-1,0-1.9,0-2.8c0-1,0-2,0-3c0-1,0-2,0-3c0-1,0-2,0-3c-0.2-1-0.2-2.1-0.2-3.3c0-1,0-2.1,0-3.3
			c0-1.2,0-2.3,0-3.5c0-1.2,0-2.4,0-3.5c0-1.2,0-2.3,0-3.5c0-1.2,0-2.4,0-3.8c0-1.2,0-2.4,0-3.8c0-1.2,0-2.4,0-3.8c0-1.3,0-2.7,0-4
			c0-1.3,0-2.7,0-4s0-2.7,0-4c0-1.3,0-2.8,0-4.3c0-1.3,0-2.7,0-4c0-1.5,0-2.9,0-4.3c0-1.5,0-3,0-4.5c0-1.3,0-2.8,0-4.3
			c0-1.5,0-3,0-4.5c0-1.3,0-2.8,0-4.3c0.2-1.5,0.2-3,0.2-4.5c0-1.5,0-3,0-4.5c0-1.5,0-3,0-4.5s0-3.1,0-4.8c0-1.5,0-3,0-4.5
			c0.2-1.5,0.2-3,0.2-4.5c0-1.5,0-3.1,0-4.8c0-1.5,0-3,0-4.5c0-1.5,0.1-3,0.2-4.5c0-1.7,0-3.3,0-4.8c0-1.5,0-3,0-4.5
			c0-1.5,0.1-3.1,0.2-4.8c0-1.5,0-3,0-4.5c0-1.5,0-3,0-4.5c0-1.5,0.1-3,0.2-4.5c0-1.5,0-3,0-4.5c0-1.5,0-3,0-4.5
			c0.2-1.5,0.2-3,0.2-4.5c0-1.5,0-3,0-4.5c0.2-1.5,0.2-2.9,0.2-4.3c0-1.5,0-3,0-4.5c0-1.3,0.1-2.8,0.2-4.3c0-1.3,0-2.8,0-4.3
			c0-1.3,0.1-2.7,0.3-4c0-1.3,0-2.8,0-4.3c0-1.3,0.1-2.7,0.2-4c0-1.3,0-2.7,0-4c0-1.2,0.1-2.4,0.2-3.8c0-1.3,0-2.6,0-3.8
			c0.2-1.3,0.2-2.6,0.2-3.8c0-1.2,0-2.4,0-3.8c0.2-1.2,0.2-2.4,0.2-3.5c0-1.2,0.1-2.3,0.2-3.5c0-1,0-2.1,0-3.3
			c0.2-1.2,0.2-2.3,0.2-3.3c0-1,0-2.1,0-3.3c0.2-1,0.2-2,0.2-3c0-1,0.1-1.9,0.2-2.8c0-1,0-2,0-3c0.2-0.8,0.2-1.7,0.2-2.5
			c0-0.8,0.1-1.7,0.2-2.5c0-0.8,0-1.7,0-2.5c0.2-0.7,0.2-1.4,0.2-2.3c0-0.7,0.1-1.4,0.2-2.3c0-0.5,0-1.1,0-1.8
			c0.2-0.7,0.2-1.3,0.2-2c0-0.5,0.1-1.1,0.2-1.8c0-0.5,0.1-1,0.2-1.5c0-0.3,0-0.8,0-1.3c0.2-0.3,0.2-0.8,0.2-1.3
			c0-0.3,0.1-0.7,0.2-1c0-0.3,0-0.6,0-0.8c0.2-0.3,0.2-0.6,0.2-0.8c0.2-0.2,0.2-0.3,0.2-0.5c0-0.2,0.1-0.3,0.2-0.3
			C319.6,230.5,320,230.2,320.3,230z"/>
	</g>
	<g>
		<path fill="#020202" d="M629.1,530.3c-0.2-0.9-11.2,16.8-42.4,16.7c-0.9,0.2-1.8,0.2-2.9,0c-0.8,0-1.7,0-2.5,0c-1.1,0-2,0-2.9,0
			c-1.1-0.2-2-0.3-2.9-0.3c-1.1-0.2-2-0.4-2.9-0.6c-0.9,0-1.8-0.1-2.9-0.3c-0.9-0.2-1.8-0.4-2.9-0.6c-0.9-0.2-1.7-0.4-2.6-0.6
			c-1.1-0.4-2-0.7-2.9-1c-0.9-0.2-1.8-0.5-2.9-1c-0.9-0.4-1.7-0.7-2.6-1c-0.9-0.4-1.8-0.8-2.9-1.3c-0.9-0.4-1.7-0.8-2.6-1.3
			c-0.9-0.4-1.7-0.9-2.5-1.3c-0.9-0.4-1.7-0.8-2.6-1.3c-0.9-0.6-1.7-1.2-2.5-1.6c-0.9-0.6-1.7-1.2-2.6-1.6c-0.9-0.6-1.7-1.3-2.5-1.9
			c-0.9-0.4-1.7-1-2.6-1.6c-0.8-0.6-1.6-1.3-2.2-1.9c-0.9-0.6-1.7-1.3-2.6-1.9c-0.6-0.8-1.4-1.6-2.2-2.2c-0.9-0.6-1.6-1.4-2.2-2.2
			c-0.6-0.6-1.4-1.4-2.2-2.2c-0.6-0.8-1.4-1.7-2.2-2.6c-0.6-0.6-1.3-1.4-1.9-2.2c-0.6-0.8-1.3-1.7-1.9-2.6c-0.6-0.8-1.3-1.8-1.9-2.9
			c-0.6-0.8-1.3-1.7-1.9-2.6c-0.6-1.1-1.3-2-1.9-2.9c-0.4-1.1-0.9-2-1.6-2.9c-0.6-1.1-1.2-2.1-1.6-3.2c-0.6-0.8-1.2-1.8-1.6-2.9
			c-0.4-1.1-0.9-2.1-1.6-3.2c-0.4-1.1-0.9-2.1-1.3-3.2c-0.4-1.3-0.9-2.4-1.3-3.5c-0.4-1.1-0.9-2.2-1.3-3.5c-0.4-1.1-0.7-2.2-0.9-3.5
			c-0.4-1.1-0.9-2.2-1.3-3.5c-0.2-1.3-0.4-2.5-0.6-3.5c-0.4-1.3-0.7-2.6-0.9-3.8c-0.2-1.3-0.4-2.6-0.6-3.8c-0.2-1.3-0.4-2.6-0.6-3.8
			c-0.2-1.5-0.4-2.9-0.6-4.2c0-1.3-0.1-2.7-0.3-4.2c0-1.3-0.1-2.7-0.3-4.2c0-1.3,0-2.7,0-4.2s0-2.9,0-4.2c0-1.5,0-3,0-4.5
			c0-1.5,0.1-3,0.3-4.5c0-1.5,0.1-3,0.3-4.5c0-1.7,0.1-3.3,0.3-4.8c0.2-1.5,0.4-3,0.6-4.5c0.2-1.7,0.4-3.3,0.6-4.8
			c0.4-1.9,0.9-3.7,1.3-5.4c0.2-1.7,0.5-3.4,1-5.1c0.4-1.7,0.8-3.3,1.3-4.8c0.4-1.7,0.9-3.3,1.6-4.8c0.4-1.7,0.9-3.3,1.6-4.8
			c0.4-1.5,0.9-3,1.6-4.5c0.6-1.5,1.3-2.9,1.9-4.2c0.6-1.5,1.3-2.9,1.9-4.2c0.6-1.5,1.4-2.9,2.2-4.2c0.6-1.3,1.4-2.6,2.2-3.8
			c14.6-22.4,41.3-45,77.5-47c36.2-2,49.9,16.3,50.2,15.5c0.8-1.7-1.2-10.7,4.3-14c5.5-3.3,86.3-3.1,85.3,5.2l0.3,0.3
			c0,0.4,0,0.7,0,0.9c0,0.4,0,0.9,0,1.3c0,0.6,0,1.3,0,1.9c0,0.6,0,1.3,0,1.9c0,0.9,0,1.6,0,2.2c0,1.1,0,2,0,2.9
			c0,1.1-0.1,2-0.3,2.9c0,1.3,0,2.5,0,3.5c-0.2,1.3-0.3,2.4-0.3,3.5c0,1.5-0.1,2.9-0.3,4.2c0,1.3,0,2.7,0,4.2
			c-0.2,1.5-0.3,3-0.3,4.5c0,1.7-0.1,3.3-0.3,4.8c0,1.7,0,3.4,0,5.1c-0.2,1.7-0.3,3.4-0.3,5.1c0,1.9-0.1,3.8-0.3,5.7
			c0,1.9,0,3.7,0,5.4c-0.2,2.1-0.3,4.2-0.3,6.1c0,2.1,0,4.2,0,6.1c0,2.1-0.1,4.3-0.3,6.4c0,2.1,0,4.3,0,6.4c0,2.3,0,4.6,0,6.7
			c0,2.6,0,5,0,7.3c0,2.3,0,4.7,0,7c0.2,2.3,0.3,4.6,0.3,6.7c0,2.3,0,4.6,0,6.7c0,2.1,0.1,4.3,0.3,6.4c0,2.1,0,4.3,0,6.4
			c0.2,2.1,0.3,4.2,0.3,6.1c0,1.9,0.1,3.9,0.3,6.1c0,1.9,0.1,3.7,0.3,5.4c0,1.9,0,3.8,0,5.8c0.2,1.7,0.3,3.4,0.3,5.1
			c0.2,1.7,0.3,3.4,0.3,5.1c0.2,1.7,0.3,3.3,0.3,4.8c0.2,1.7,0.3,3.3,0.3,4.8c0.2,1.5,0.3,3,0.3,4.5c0.2,1.3,0.3,2.7,0.3,4.2
			c0,1.3,0.1,2.6,0.3,3.8c0,1.3,0.1,2.6,0.3,3.8c0,1.3,0,2.5,0,3.5c0.2,1.1,0.3,2.2,0.3,3.5c0,0.9,0.1,1.8,0.3,2.9c0,1.1,0,2,0,2.9
			c0,0.8,0.1,1.7,0.3,2.6c0,0.8,0,1.7,0,2.5c0,0.6,0,1.3,0,1.9c0,0.6,0,1.3,0,1.9c0,0.6,0,1.2,0,1.6c0,0.4,0,1,0,1.6
			c0,0.2-0.1,0.5-0.3,1c0,0.4,0,0.8,0,1c-0.2,0.2-0.3,0.4-0.3,0.6c0,0.2-0.1,0.3-0.3,0.3c-0.4,0.2-0.8,0.4-1.3,0.6
			c-0.9,0.2-1.6,0.3-2.2,0.3c-1.1,0.2-2.2,0.4-3.2,0.6c-1.1,0-6.4,0.3-7.7,0.3c-1.7,0.2-3.3,0.3-4.8,0.3c-1.7,0-3.4,0-5.1,0
			c-1.7,0-9,0-10.9,0c-1.9,0-3.8,0-5.7,0c-1.9,0-9.3-0.1-11.2-0.3c-1.9,0-18.6-0.9-20.1-0.9c-1.3-0.2-9.6-1.3-9.6-1.3
			C633,543.3,629.5,531.8,629.1,530.3z"/>
		<path fill="#FFFFFF" d="M640.5,502.2c-0.2-0.7-0.7,0.1-1.6,2.4c-0.4,0.7-1,1.4-1.9,2.1c-0.7,0.5-1.3,1.2-1.9,1.9
			c-0.5,0.7-1.1,1.3-1.9,1.9c-0.7,0.7-1.3,1.3-1.9,1.9c-0.7,0.7-1.4,1.3-2.1,1.9c-0.7,0.5-1.3,1.1-1.9,1.6c-0.7,0.5-1.4,1.1-2.1,1.6
			c-0.7,0.4-1.4,0.8-2.1,1.3c-0.7,0.5-1.4,1-2.1,1.3c-0.7,0.4-1.4,0.8-2.1,1.3c-0.7,0.4-1.4,0.7-2.1,1.1c-0.7,0.4-1.5,0.7-2.4,1.1
			c-0.7,0.4-1.4,0.6-2.1,0.8c-0.7,0.4-1.5,0.7-2.4,1.1c-0.7,0.2-1.4,0.4-2.1,0.5c-0.7,0.4-1.5,0.6-2.4,0.8c-0.7,0.2-1.5,0.4-2.4,0.5
			c-0.7,0.2-1.4,0.4-2.1,0.5c-0.9,0.2-1.7,0.3-2.4,0.3c-0.7,0.2-1.5,0.3-2.4,0.3c-0.7,0.2-1.5,0.3-2.4,0.3c-0.7,0-1.5,0-2.4,0
			c-0.7,0.2-1.5,0.2-2.4,0c-0.7,0-1.4,0-2.1,0c-0.9,0-1.7,0-2.4,0c-0.9-0.2-1.7-0.3-2.4-0.3c-0.9-0.2-1.7-0.3-2.4-0.5
			c-0.7,0-1.5-0.1-2.4-0.3c-0.7-0.2-1.5-0.4-2.4-0.5c-0.7-0.2-1.4-0.4-2.1-0.5c-0.9-0.3-1.7-0.6-2.4-0.8c-0.7-0.2-1.5-0.4-2.4-0.8
			c-0.7-0.4-1.4-0.6-2.1-0.8c-0.7-0.3-1.5-0.7-2.4-1.1c-0.7-0.4-1.4-0.7-2.1-1.1s-1.4-0.7-2.1-1.1c-0.7-0.3-1.4-0.7-2.1-1.1
			c-0.7-0.5-1.4-1-2.1-1.3c-0.7-0.5-1.4-1-2.1-1.3c-0.7-0.5-1.4-1.1-2.1-1.6c-0.7-0.4-1.4-0.8-2.1-1.3c-0.7-0.5-1.3-1.1-1.9-1.6
			c-0.7-0.5-1.4-1.1-2.1-1.6c-0.5-0.7-1.2-1.3-1.9-1.9c-0.7-0.5-1.3-1.1-1.9-1.9c-0.5-0.5-1.2-1.1-1.9-1.9c-0.5-0.7-1.2-1.4-1.9-2.1
			c-0.5-0.5-1.1-1.1-1.6-1.9c-0.5-0.7-1.1-1.4-1.6-2.1c-0.5-0.7-1.1-1.5-1.6-2.4c-0.5-0.7-1.1-1.4-1.6-2.1c-0.5-0.9-1.1-1.7-1.6-2.4
			c-0.3-0.9-0.8-1.7-1.3-2.4c-0.5-0.9-1-1.8-1.3-2.6c-0.5-0.7-1-1.5-1.3-2.4c-0.4-0.9-0.8-1.8-1.3-2.7c-0.3-0.9-0.7-1.8-1.1-2.7
			c-0.3-1.1-0.7-2-1.1-2.9c-0.3-0.9-0.7-1.9-1.1-2.9c-0.4-0.9-0.6-1.9-0.8-2.9c-0.3-0.9-0.7-1.9-1.1-2.9c-0.2-1.1-0.4-2-0.5-2.9
			c-0.3-1.1-0.6-2.1-0.8-3.2c-0.2-1.1-0.3-2.1-0.5-3.2c-0.2-1.1-0.4-2.1-0.5-3.2c-0.2-1.2-0.3-2.4-0.5-3.5c0-1.1-0.1-2.2-0.3-3.4
			c0-1.1-0.1-2.2-0.3-3.5c0-1.1,0-2.2,0-3.4c0-1.2,0-2.4,0-3.4c0-1.2,0-2.5,0-3.7c0-1.2,0.1-2.5,0.3-3.7c0-1.2,0.1-2.5,0.3-3.7
			c0-1.4,0.1-2.7,0.3-4c0.2-1.2,0.3-2.5,0.5-3.7c0.2-1.4,0.4-2.7,0.5-4c0.4-1.6,0.7-3.1,1.1-4.5c0.2-1.4,0.5-2.8,0.8-4.2
			c0.4-1.4,0.7-2.7,1.1-4c0.4-1.4,0.8-2.7,1.3-4c0.3-1.4,0.8-2.7,1.3-4c0.4-1.2,0.8-2.5,1.3-3.7c0.5-1.2,1.1-2.4,1.6-3.5
			c0.5-1.2,1.1-2.4,1.6-3.4c0.5-1.2,1.1-2.4,1.9-3.4c0.5-1.1,1.1-2.1,1.9-3.2c0.5-1.1,1.1-2,1.9-2.9c0.7-1.1,1.4-2,2.1-2.9
			c0.7-1.1,1.4-2,2.1-2.9c0.7-0.9,1.4-1.8,2.1-2.7c0.7-0.9,1.4-1.8,2.1-2.6c0.9-0.7,1.7-1.5,2.4-2.4c0.9-0.7,1.7-1.4,2.4-2.1
			c0.9-0.7,1.8-1.4,2.7-2.1c0.7-0.7,1.5-1.4,2.4-2.1c0.9-0.7,1.8-1.3,2.7-1.9c0.9-0.7,1.8-1.3,2.7-1.9c0.9-0.5,1.7-1.1,2.7-1.6
			c0.9-0.5,1.7-1.1,2.6-1.6c1.1-0.5,2-1,2.9-1.3c0.9-0.5,1.9-1,2.9-1.3c0.9-0.4,1.8-0.8,2.7-1.3c1.1-0.4,2-0.7,2.9-1.1
			c1.1-0.2,2-0.4,2.9-0.8c1.1-0.4,2-0.6,2.9-0.8c1.1-0.3,2-0.6,2.9-0.8c1.1-0.2,2-0.4,2.9-0.5c1.1-0.2,2-0.3,2.9-0.5
			c1.1-0.2,2.1-0.3,3.2-0.3c0.9-0.2,1.9-0.3,2.9-0.3c0.9-0.2,1.9-0.3,2.9-0.3c1.1,0,2,0,2.9,0c1.1,0,2,0,2.9,0c1.1,0,2,0.1,2.9,0.3
			c1.1,0,2,0.1,2.9,0.3c1.1,0,2,0.1,2.9,0.3c1.1,0.2,2,0.4,2.9,0.5c0.9,0.2,1.9,0.4,2.9,0.5c0.9,0.4,1.7,0.6,2.7,0.8
			c1.1,0.2,2,0.4,2.9,0.8c0.9,0.4,1.7,0.7,2.7,1.1c0.9,0.2,1.7,0.4,2.6,0.8c0.9,0.4,1.8,0.7,2.7,1.1c0.9,0.5,1.8,1,2.7,1.3
			c0.7,0.4,1.5,0.8,2.4,1.3c0.9,0.5,1.7,1,2.4,1.3c0.9,0.5,1.7,1.1,2.4,1.6c0.9,0.5,1.7,1.1,2.4,1.6c1.1,0.4,1.7,0.9,2.1,1.6
			c1.2,2,1.9,2.6,2.1,1.9c0.7-1.4,1-3.3,0.8-5.6c-0.2-1.6,0-3.2,0.5-4.8c0.3-1.1,0.6-2.2,0.8-3.5c0-0.7,0.3-1.2,0.8-1.6
			c0.2-0.2,0.5-0.4,1.1-0.5c0.5-0.2,1.1-0.3,1.9-0.3c0.9-0.2,1.7-0.3,2.6-0.3c1.1-0.2,2.1-0.3,3.2-0.3c1.2,0,2.5,0,3.7,0
			c1.4,0,2.8,0,4.2,0c1.4,0,2.9,0,4.5,0c1.4,0,2.9,0,4.5,0c1.6,0,3.2,0.1,4.8,0.3c1.6,0,3.3,0.1,5,0.3c1.4,0,2.9,0.1,4.5,0.3
			s3.1,0.4,4.5,0.5c1.4,0.2,2.8,0.4,4.2,0.5c1.3,0.2,2.5,0.4,3.7,0.5c1.1,0.2,2.1,0.4,3.2,0.5c0.9,0.2,1.8,0.5,2.7,0.8
			c0.7,0.2,1.3,0.4,1.9,0.5c0.3,0.4,0.7,0.7,1.1,1.1l0.3,0.3c0,0.4,0,0.6,0,0.8c0,0.4,0,0.7,0,1.1c0,0.5,0,1.1,0,1.6s0,1.1,0,1.6
			c0,0.7,0,1.3,0,1.9c0,0.9,0,1.7,0,2.4c0,0.9-0.1,1.7-0.3,2.4c0,1.1,0,2,0,2.9c-0.2,1.1-0.3,2-0.3,2.9c0,1.2-0.1,2.4-0.3,3.5
			c0,1.1,0,2.2,0,3.4c-0.2,1.2-0.3,2.5-0.3,3.7c0,1.4-0.1,2.7-0.3,4c0,1.4,0,2.8,0,4.2c-0.2,1.4-0.3,2.8-0.3,4.2
			c0,1.6-0.1,3.2-0.3,4.8c0,1.6,0,3.1,0,4.5c-0.2,1.8-0.3,3.4-0.3,5c0,1.8,0,3.5,0,5c0,1.8-0.1,3.5-0.3,5.3c0,1.8,0,3.5,0,5.3
			c0,2,0,3.8,0,5.6c0,2.1,0,4.2,0,6.1c0,1.9,0,3.9,0,5.8c0.2,2,0.3,3.8,0.3,5.6c0,1.9,0,3.8,0,5.6c0,1.8,0.1,3.5,0.3,5.3
			c0,1.8,0,3.5,0,5.3c0.2,1.8,0.3,3.4,0.3,5c0,1.6,0.1,3.3,0.3,5c0,1.6,0.1,3.1,0.3,4.5c0,1.6,0,3.2,0,4.8c0.2,1.4,0.3,2.8,0.3,4.2
			c0.2,1.4,0.3,2.8,0.3,4.2c0.2,1.4,0.3,2.7,0.3,4c0.2,1.4,0.3,2.7,0.3,4c0.2,1.2,0.3,2.5,0.3,3.7c0.2,1.1,0.3,2.2,0.3,3.4
			c0,1.1,0.1,2.1,0.3,3.2c0,1.1,0.1,2.1,0.3,3.2c0,1.1,0,2,0,2.9c0.2,0.9,0.3,1.9,0.3,2.9c0,0.7,0.1,1.5,0.3,2.4c0,0.9,0,1.7,0,2.4
			c0,0.7,0.1,1.4,0.3,2.1c0,0.7,0,1.4,0,2.1c0,0.5,0,1.1,0,1.6c0,0.5,0,1.1,0,1.6c0,0.5,0,1,0,1.3s0,0.8,0,1.3
			c0,0.2-0.1,0.4-0.3,0.8c0,0.4,0,0.6,0,0.8c-0.2,0.2-0.3,0.4-0.3,0.5c0,0.2-0.1,0.3-0.3,0.3c-0.3,0.2-0.7,0.4-1.1,0.5
			c-0.7,0.2-1.3,0.3-1.9,0.3c-0.9,0.2-1.8,0.4-2.7,0.5c-0.9,0-1.9,0.1-2.9,0.3c-1.2,0-2.4,0-3.5,0c-1.4,0.2-2.7,0.3-4,0.3
			c-1.4,0-2.8,0-4.2,0c-1.4,0-2.9,0-4.5,0c-1.4,0-2.9,0-4.5,0c-1.6,0-3.2,0-4.8,0c-1.6,0-3.2,0-4.8,0c-1.4,0-2.9-0.1-4.5-0.3
			c-1.6,0-3.1-0.1-4.5-0.3c-1.6,0-3.1,0-4.5,0c-1.3-0.2-2.6-0.3-4-0.3c-1.2-0.2-2.5-0.3-3.7-0.3c-1.1-0.2-2.1-0.3-3.2-0.3
			c-0.9-0.2-1.8-0.4-2.7-0.5c-0.7,0-1.4-0.1-2.1-0.3c-0.5-0.2-1.1-0.3-1.6-0.3c-0.4-0.2-0.6-0.4-0.8-0.5c-0.5-0.5-0.9-1.2-1.1-1.9
			c-0.4-0.7-0.6-1.4-0.8-2.1c-0.4-1.1-0.5-2-0.5-2.9c-0.2-1.2-0.3-2.4-0.3-3.4c0.2-1.2,0.3-2.6,0.3-4c-0.3-1.4-0.3-2.8,0-4.2
			C640.8,505,640.9,503.5,640.5,502.2z M615.3,400.2c-1.1-0.2-2.2-0.3-3.4-0.3c-1.3,0-2.4,0-3.5,0c-1.2,0.2-2.4,0.4-3.4,0.8
			c-1.1,0.4-2.1,0.7-3.2,1.1c-1.1,0.5-2,1.1-2.9,1.9c-1.1,0.5-2,1.1-2.9,1.9c-0.9,0.7-1.7,1.5-2.4,2.4c-0.9,0.9-1.7,1.8-2.4,2.7
			c-0.7,0.9-1.4,1.9-2.1,2.9c-0.5,0.9-1.1,1.9-1.6,2.9c-0.5,1.2-1.1,2.4-1.6,3.5c-0.3,1.1-0.7,2.2-1.1,3.4c-0.2,1.1-0.3,2.2-0.5,3.5
			c-0.2,1.2-0.3,2.5-0.3,3.7c0,1.1,0,2.2,0,3.4c0.2,1.2,0.5,2.4,0.8,3.4c0.4,1.1,0.7,2.1,1.1,3.2c0.4,1.2,0.8,2.3,1.3,3.2
			c0.7,1.1,1.3,2,1.9,2.9c0.7,1.1,1.4,2,2.1,2.9c0.7,0.9,1.5,1.7,2.4,2.4c0.9,0.7,1.8,1.4,2.7,2.1c0.9,0.7,1.7,1.3,2.6,1.9
			c0.9,0.7,1.9,1.2,2.9,1.6c1.1,0.4,2,0.7,2.9,1.1c1.1,0.4,2.1,0.6,3.2,0.8c1.1,0.2,2.1,0.3,3.2,0.3c1.1,0,2.1-0.1,3.2-0.3
			c1.2-0.2,2.5-0.4,3.7-0.8c1.2-0.4,2.5-0.8,3.7-1.3c1.2-0.4,2.4-0.8,3.5-1.3c1.1-0.7,2.1-1.4,3.2-2.1c1.1-0.5,2-1.2,2.9-2.1
			c0.9-0.7,1.7-1.5,2.7-2.4c0.9-0.9,1.7-1.9,2.4-2.9c0.7-0.9,1.3-1.9,1.9-2.9c0.5-1.1,1.1-2.1,1.6-3.2c0.5-1.2,1-2.4,1.3-3.4
			c0.2-1.2,0.4-2.5,0.5-3.7c0.2-1.2,0.3-2.5,0.5-3.7c0-1.4-0.1-2.7-0.3-4c-0.2-1.2-0.3-2.4-0.5-3.4c-0.4-1.2-0.7-2.4-1.1-3.4
			c-0.5-1.1-1.1-2.1-1.6-3.2c-0.5-0.9-1.2-1.9-1.9-2.9c-0.7-0.9-1.5-1.7-2.4-2.4c-0.7-0.9-1.5-1.7-2.4-2.4c-1.1-0.9-2-1.6-2.9-2.1
			c-1.1-0.7-2.1-1.3-3.2-1.9c-1.1-0.5-2.2-1.1-3.5-1.6c-1.1-0.3-2.2-0.7-3.4-1.1C617.8,400.6,616.6,400.4,615.3,400.2z"/>
	</g>
</g>
</svg>
