<?xml version="1.0" encoding="utf-8"?>
<!-- Generator: Adobe Illustrator 18.0.0, SVG Export Plug-In . SVG Version: 6.00 Build 0)  -->
<!DOCTYPE svg PUBLIC "-//W3C//DTD SVG 1.1//EN" "http://www.w3.org/Graphics/SVG/1.1/DTD/svg11.dtd">
<svg version="1.1" id="Camada_1" xmlns="http://www.w3.org/2000/svg" xmlns:xlink="http://www.w3.org/1999/xlink" x="0px" y="0px"
	 viewBox="0 0 1024 768" enable-background="new 0 0 1024 768" xml:space="preserve">
<g>
	<defs>
		<circle id="SVGID_1_" cx="511.9" cy="383.4" r="375.7"/>
	</defs>
	<clipPath id="SVGID_2_">
		<use xlink:href="#SVGID_1_"  overflow="visible"/>
	</clipPath>
	<g clip-path="url(#SVGID_2_)" enable-background="new    ">
		
			<image overflow="visible" width="2474" height="2474" xlink:href="../../banco de imagens/botões/butt 25.png"  transform="matrix(0.3065 0 0 0.3065 132.8006 4.7999)">
		</image>
	</g>
</g>
<g>
	<g>
		<path d="M210.6,531v-0.3c0-0.2,0-0.4,0-0.6c0-0.2,0-0.5,0-0.9c0-0.2,0-0.5,0-0.9s0-0.7,0-0.9c0-0.6,0.1-1.1,0.3-1.4
			c0-0.4,0-0.9,0-1.4c0.2-0.6,0.3-1.2,0.3-1.7c0.2-0.6,0.3-1.2,0.3-1.7c0.2-0.6,0.3-1.3,0.3-2c0.2-0.8,0.3-1.4,0.3-2
			c0.2-0.8,0.4-1.5,0.6-2.3c0.2-1,0.3-1.8,0.3-2.6c0.2-0.8,0.4-1.6,0.6-2.6c0.2-1,0.4-1.9,0.6-2.9c0.2-1,0.4-1.9,0.6-2.9
			c0.2-1,0.4-1.9,0.6-2.9c0.2-1.2,0.4-2.2,0.6-3.2c0.2-1.2,0.4-2.3,0.6-3.5c0.4-1.2,0.7-2.3,0.9-3.5c0.2-1.2,0.4-2.3,0.6-3.5
			c0.4-1.3,0.7-2.6,0.9-3.8c0.2-1.3,0.5-2.6,0.9-3.8c0.2-1.4,0.5-2.7,0.9-4.1c0.2-1.3,0.5-2.7,0.9-4.1c0.2-1.4,0.5-2.7,0.9-4.1
			c0.2-1.3,0.5-2.8,0.9-4.3c0.2-1.4,0.5-2.7,0.9-4.1c0.4-1.5,0.7-3.1,0.9-4.6c0.4-1.4,0.8-2.8,1.2-4.3c0.2-1.5,0.5-3.1,0.9-4.6
			c0.4-1.5,0.8-3.1,1.2-4.6c0.2-1.5,0.5-3.1,0.9-4.6c0.4-1.5,0.8-3.2,1.2-4.9c0.4-1.5,0.8-3.1,1.2-4.6c0.4-1.7,0.7-3.4,0.9-4.9
			c0.4-1.7,0.8-3.4,1.2-4.9c0.4-1.7,0.8-3.4,1.2-4.9c0.4-1.7,0.8-3.5,1.2-5.2c0.4-1.7,0.8-3.4,1.2-4.9c0.4-1.7,0.8-3.5,1.2-5.2
			c0.4-1.7,0.8-3.5,1.2-5.2c0.4-1.7,0.8-3.4,1.2-4.9c0.4-1.7,0.8-3.5,1.2-5.2c0.4-1.7,0.8-3.5,1.2-5.2c0.4-1.7,0.9-3.5,1.5-5.2
			c0.4-1.7,0.8-3.5,1.2-5.2c0.4-1.7,0.8-3.5,1.2-5.2c0.4-1.7,0.8-3.5,1.2-5.2c0.4-1.7,0.8-3.5,1.2-5.2c0.4-1.7,0.8-3.5,1.2-5.2
			c0.6-1.7,1.1-3.5,1.5-5.2c0.4-1.7,0.8-3.4,1.2-4.9c0.4-1.7,0.8-3.5,1.2-5.2c0.4-1.7,0.8-3.5,1.2-5.2c0.4-1.5,0.8-3.2,1.2-4.9
			c0.4-1.7,0.8-3.5,1.2-5.2c0.6-1.5,1.1-3.2,1.5-4.9c0.4-1.5,0.8-3.2,1.2-4.9c0.4-1.5,0.8-3.2,1.2-4.9c0.4-1.5,0.8-3.1,1.2-4.6
			c0.4-1.7,0.8-3.4,1.2-4.9c0.4-1.5,0.8-3.1,1.2-4.6c0.4-1.5,0.8-3.1,1.2-4.6c0.2-1.5,0.5-3.1,0.9-4.6c0.4-1.3,0.8-2.8,1.2-4.3
			c0.4-1.5,0.8-3,1.2-4.3c0.4-1.5,0.8-3,1.2-4.3c0.2-1.4,0.5-2.8,0.9-4.3c0.4-1.3,0.8-2.7,1.2-4.1c0.2-1.4,0.5-2.7,0.9-4.1
			c0.4-1.3,0.8-2.6,1.2-3.8c0.2-1.4,0.5-2.6,0.9-3.8c0.4-1.4,0.7-2.6,0.9-3.8c0.4-1.2,0.7-2.3,0.9-3.5c0.4-1.2,0.7-2.3,0.9-3.5
			c0.4-1.2,0.7-2.3,0.9-3.5c0.4-1,0.7-2,0.9-3.2c0.4-1,0.7-1.9,0.9-2.9c0.2-1,0.5-1.9,0.9-2.9c0.2-1,0.4-1.9,0.6-2.9
			c0.2-0.8,0.5-1.6,0.9-2.6c0.2-0.8,0.4-1.5,0.6-2.3s0.4-1.5,0.6-2.3s0.4-1.5,0.6-2.3c0.2-0.6,0.4-1.3,0.6-2
			c0.2-0.6,0.4-1.2,0.6-1.7c0.2-0.6,0.4-1.1,0.6-1.4c0.2-0.6,0.3-1.1,0.3-1.4c0.2-0.6,0.4-1.1,0.6-1.4c0-0.4,0.1-0.7,0.3-0.9
			c0.2-0.4,0.3-0.7,0.3-0.9c0.2-0.4,0.3-0.7,0.3-0.9c0.2,0,0.3-0.1,0.3-0.3c0-0.2,0.1-0.3,0.3-0.3c0.4-0.4,0.8-0.6,1.2-0.6
			c0.6-0.4,1.2-0.6,1.8-0.6c1-0.2,1.9-0.4,2.8-0.6c1.2-0.2,2.5-0.3,3.7-0.3c1.2-0.2,2.5-0.3,3.7-0.3c1.6-0.2,3.2-0.3,4.6-0.3
			c1.6,0,3.2-0.1,4.6-0.3c1.8,0,3.6,0,5.2,0c1.8,0,3.6,0,5.2,0c1.8,0,3.7,0,5.5,0c1.8,0,3.7,0,5.5,0c1.6,0.2,3.4,0.3,5.2,0.3
			s3.6,0.1,5.2,0.3c1.8,0,3.6,0.1,5.2,0.3c1.6,0,3.2,0.1,4.6,0.3c1.6,0,3.2,0.1,4.6,0.3c1.2,0.2,2.5,0.3,3.7,0.3
			c1.2,0.2,2.4,0.4,3.4,0.6c1,0.2,1.9,0.4,2.8,0.6c0.6,0,1.2,0.1,1.8,0.3c0.4,0.2,0.8,0.4,1.2,0.6c0.2,0.2,0.4,0.4,0.6,0.6
			c0,0.4,0.1,0.8,0.3,1.2c0.2,0.6,0.4,1.2,0.6,1.7c0.2,0.8,0.4,1.5,0.6,2.3c0.4,0.8,0.7,1.6,0.9,2.6c0.2,1,0.4,1.9,0.6,2.9
			c0.4,1.2,0.7,2.3,0.9,3.5c0.4,1.4,0.7,2.6,0.9,3.8c0.4,1.4,0.7,2.7,0.9,4.1c0.4,1.5,0.7,3,0.9,4.3c0.4,1.5,0.7,3.1,0.9,4.6
			c0.4,1.5,0.8,3.2,1.2,4.9c0.2,1.5,0.5,3.2,0.9,4.9c0.4,1.7,0.7,3.5,0.9,5.2c0.4,1.7,0.8,3.5,1.2,5.2c0.2,1.7,0.5,3.5,0.9,5.2
			c0.4,1.9,0.7,3.8,0.9,5.5c0.4,1.7,0.8,3.5,1.2,5.2c0.2,1.9,0.5,3.8,0.9,5.5c0.4,1.7,0.7,3.5,0.9,5.2c0.4,1.7,0.7,3.5,0.9,5.2
			c0.4,1.7,0.7,3.5,0.9,5.2c0.4,1.5,0.7,3.2,0.9,4.9c0.4,1.5,0.7,3.1,0.9,4.6c0.2,1.5,0.5,3,0.9,4.3c0.2,1.5,0.4,3,0.6,4.3
			c0.2,1.3,0.5,2.6,0.9,3.8c0.2,1.4,0.4,2.6,0.6,3.8c0.2,1,0.3,2,0.3,3.2c0.2,1,0.4,1.9,0.6,2.9c0.2,0.8,0.3,1.5,0.3,2.3
			c0.2,0.6,0.4,1.2,0.6,1.7c0,0.6,0,1.1,0,1.4c0.2,0.4,0.3,0.7,0.3,0.9v0.3v-0.3c0-0.2,0.1-0.5,0.3-0.9c0-0.4,0.1-0.8,0.3-1.2
			c0-0.6,0.1-1.3,0.3-2c0-0.8,0.1-1.4,0.3-2c0.2-1,0.4-1.9,0.6-2.9c0.2-1,0.4-1.9,0.6-2.9c0.2-1.2,0.4-2.3,0.6-3.5
			c0.2-1.4,0.4-2.6,0.6-3.8c0.2-1.3,0.5-2.7,0.9-4.1c0.2-1.5,0.4-3,0.6-4.3c0.4-1.5,0.7-3.1,0.9-4.6c0.4-1.5,0.7-3.1,0.9-4.6
			c0.4-1.7,0.8-3.4,1.2-4.9c0.2-1.7,0.5-3.5,0.9-5.2c0.4-1.7,0.7-3.5,0.9-5.2c0.4-1.7,0.8-3.5,1.2-5.2c0.4-1.7,0.7-3.5,0.9-5.2
			c0.4-1.7,0.8-3.5,1.2-5.2c0.4-1.7,0.8-3.5,1.2-5.2c0.4-1.7,0.7-3.5,0.9-5.2c0.4-1.7,0.8-3.5,1.2-5.2c0.4-1.7,0.8-3.4,1.2-4.9
			c0.4-1.7,0.7-3.4,0.9-4.9c0.4-1.5,0.8-3.1,1.2-4.6c0.4-1.5,0.8-3.1,1.2-4.6c0.2-1.4,0.5-2.8,0.9-4.3c0.4-1.3,0.7-2.6,0.9-3.8
			c0.4-1.4,0.8-2.6,1.2-3.8c0.2-1.2,0.5-2.3,0.9-3.5c0.2-1,0.5-1.9,0.9-2.9c0.2-0.8,0.5-1.6,0.9-2.6c0.2-0.8,0.4-1.4,0.6-2
			c0.4-0.6,0.7-1.2,0.9-1.7c0.2-0.4,0.4-0.8,0.6-1.2c0.2-0.4,0.4-0.6,0.6-0.6c0.2-0.2,0.4-0.3,0.6-0.3c0.4,0,0.8,0,1.2,0
			c0.8,0,1.6,0,2.5,0c1-0.2,2-0.3,3.1-0.3c1.2,0,2.4-0.1,3.4-0.3c1.4,0,2.9,0,4.3,0c1.6-0.2,3.2-0.3,4.6-0.3
			c1.8-0.2,3.6-0.3,5.2-0.3c1.6,0,3.4-0.1,5.2-0.3c1.8,0,3.7,0,5.5,0c1.8-0.2,3.7-0.3,5.5-0.3c1.8,0,3.7,0,5.5,0
			c1.8-0.2,3.7-0.3,5.5-0.3c1.6,0,3.4,0,5.2,0c1.6,0,3.3,0,4.9,0c1.6,0,3.2,0.1,4.6,0.3c1.4,0,2.8,0,4,0c1.2,0.2,2.5,0.3,3.7,0.3
			c1,0.2,1.9,0.4,2.8,0.6c0.8,0,1.5,0.1,2.2,0.3c0.4,0.2,0.8,0.5,1.2,0.9h0.3c0,0.2,0.1,0.4,0.3,0.6c0,0.2,0.1,0.4,0.3,0.6
			c0,0.4,0.1,0.7,0.3,0.9c0,0.4,0.1,0.8,0.3,1.2c0.2,0.4,0.3,0.8,0.3,1.2c0.2,0.6,0.4,1.1,0.6,1.4c0.2,0.6,0.4,1.2,0.6,1.7
			c0.2,0.6,0.3,1.2,0.3,1.7c0.2,0.8,0.4,1.4,0.6,2c0.2,0.8,0.4,1.4,0.6,2c0.4,0.8,0.7,1.5,0.9,2.3c0.2,1,0.4,1.8,0.6,2.6
			c0.2,1,0.4,1.8,0.6,2.6c0.4,1,0.7,1.9,0.9,2.9c0.2,1,0.5,1.9,0.9,2.9c0.2,1,0.4,1.9,0.6,2.9c0.4,1.2,0.7,2.2,0.9,3.2
			c0.4,1.2,0.7,2.3,0.9,3.5c0.4,1.2,0.7,2.3,0.9,3.5c0.4,1.2,0.7,2.3,0.9,3.5c0.4,1.4,0.8,2.6,1.2,3.8c0.2,1.4,0.5,2.6,0.9,3.8
			c0.4,1.4,0.7,2.7,0.9,4.1c0.4,1.4,0.8,2.7,1.2,4.1c0.4,1.4,0.7,2.7,0.9,4.1c0.4,1.4,0.8,2.8,1.2,4.3c0.4,1.4,0.8,2.8,1.2,4.3
			c0.4,1.4,0.8,2.8,1.2,4.3c0.2,1.5,0.5,3,0.9,4.3c0.4,1.5,0.8,3.1,1.2,4.6c0.4,1.5,0.8,3.1,1.2,4.6s0.8,3.2,1.2,4.9
			c0.4,1.5,0.8,3.1,1.2,4.6c0.4,1.7,0.8,3.4,1.2,4.9c0.4,1.5,0.8,3.2,1.2,4.9c0.4,1.5,0.8,3.2,1.2,4.9c0.4,1.7,0.8,3.4,1.2,4.9
			c0.4,1.7,0.8,3.5,1.2,5.2c0.6,1.5,1.1,3.2,1.5,4.9c0.4,1.7,0.8,3.5,1.2,5.2c0.4,1.7,0.8,3.5,1.2,5.2c0.4,1.7,0.8,3.5,1.2,5.2
			c0.4,1.5,0.8,3.2,1.2,4.9c0.6,1.7,1.1,3.5,1.5,5.2c0.4,1.7,0.8,3.5,1.2,5.2c0.4,1.7,0.8,3.5,1.2,5.2c0.4,1.9,0.8,3.8,1.2,5.5
			c0.4,1.7,0.9,3.5,1.5,5.2c0.4,1.7,0.8,3.5,1.2,5.2c0.4,1.7,0.8,3.5,1.2,5.2c0.4,1.7,0.8,3.5,1.2,5.2c0.4,1.5,0.8,3.2,1.2,4.9
			c0.4,1.7,0.8,3.5,1.2,5.2c0.4,1.7,0.8,3.5,1.2,5.2c0.4,1.7,0.8,3.4,1.2,4.9c0.4,1.7,0.8,3.5,1.2,5.2c0.4,1.5,0.8,3.2,1.2,4.9
			c0.4,1.7,0.8,3.4,1.2,4.9c0.4,1.7,0.8,3.4,1.2,4.9c0.4,1.5,0.8,3.2,1.2,4.9c0.4,1.5,0.7,3.1,0.9,4.6c0.4,1.7,0.8,3.4,1.2,4.9
			c0.4,1.5,0.8,3.1,1.2,4.6c0.2,1.5,0.5,3.1,0.9,4.6c0.4,1.4,0.8,2.8,1.2,4.3c0.2,1.5,0.5,3,0.9,4.3c0.4,1.5,0.7,3,0.9,4.3
			c0.4,1.5,0.7,3,0.9,4.3c0.4,1.4,0.8,2.7,1.2,4.1c0.2,1.4,0.5,2.7,0.9,4.1c0.2,1.4,0.5,2.7,0.9,4.1c0.2,1.2,0.4,2.4,0.6,3.8
			c0.4,1.2,0.7,2.4,0.9,3.8c0.2,1.2,0.5,2.3,0.9,3.5c0.2,1.2,0.4,2.3,0.6,3.5c0.2,1.2,0.5,2.3,0.9,3.5c0.2,1,0.4,2,0.6,3.2
			c0.2,1,0.4,1.9,0.6,2.9c0.2,1,0.4,1.9,0.6,2.9c0.2,1,0.4,1.9,0.6,2.9c0.2,0.8,0.4,1.6,0.6,2.6c0,0.8,0.1,1.6,0.3,2.6
			c0.2,0.8,0.4,1.5,0.6,2.3c0,0.6,0.1,1.3,0.3,2c0.2,0.6,0.3,1.3,0.3,2c0.2,0.6,0.3,1.2,0.3,1.7c0.2,0.6,0.3,1.2,0.3,1.7
			c0.2,0.4,0.3,0.9,0.3,1.4c0,0.4,0.1,0.8,0.3,1.2c0,0.4,0,0.8,0,1.2c0,0.2,0,0.5,0,0.9c0,0.2,0,0.4,0,0.6c0,0.2,0,0.4,0,0.6v0.3
			c-0.2,0.2-0.5,0.3-0.9,0.3c-0.4,0.2-0.8,0.4-1.2,0.6c-0.8,0.2-1.5,0.3-2.2,0.3c-0.8,0.2-1.7,0.4-2.8,0.6c-1,0-2.1,0.1-3.1,0.3
			c-1.2,0-2.5,0.1-3.7,0.3c-1.4,0-2.8,0.1-4,0.3c-1.6,0-3.2,0.1-4.6,0.3c-1.6,0-3.3,0-4.9,0c-1.6,0.2-3.3,0.3-4.9,0.3
			c-1.8,0-3.6,0-5.2,0c-1.8,0.2-3.7,0.3-5.5,0.3c-1.8,0-3.7,0-5.5,0c-1.8,0-3.7,0-5.5,0c-1.8,0-3.7,0-5.5,0c-2.1,0-4,0-5.8,0
			c-1.8,0-3.7-0.1-5.5-0.3c-1.6,0-3.4,0-5.2,0c-1.6,0-3.4-0.1-5.2-0.3c-1.6,0-3.3,0-4.9,0c-1.4-0.2-3-0.3-4.6-0.3
			c-1.2-0.2-2.6-0.3-4-0.3c-1.4-0.2-2.8-0.3-4-0.3c-1-0.2-2.2-0.3-3.4-0.3c-1-0.2-1.9-0.4-2.8-0.6c-0.8,0-1.6-0.1-2.5-0.3
			c-0.6-0.2-1.1-0.4-1.5-0.6c-0.4,0-0.8-0.1-1.2-0.3c-0.2-0.2-0.3-0.5-0.3-0.9c-0.2-0.2-0.4-0.5-0.6-0.9c-0.2-0.6-0.4-1.1-0.6-1.5
			c-0.2-0.8-0.4-1.4-0.6-2c-0.2-0.8-0.4-1.5-0.6-2.3c-0.4-0.8-0.7-1.6-0.9-2.6c-0.2-1-0.4-1.9-0.6-2.9c-0.4-1.2-0.7-2.3-0.9-3.5
			c-0.4-1.2-0.7-2.3-0.9-3.5c-0.2-1.4-0.5-2.7-0.9-4.1c-0.2-1.3-0.5-2.7-0.9-4.1c-0.2-1.5-0.5-3-0.9-4.3c-0.4-1.5-0.7-3.1-0.9-4.6
			c-0.4-1.5-0.7-3.1-0.9-4.6c-0.4-1.7-0.8-3.4-1.2-4.9c-0.2-1.7-0.5-3.5-0.9-5.2c-0.4-1.7-0.7-3.5-0.9-5.2c-0.4-1.7-0.8-3.5-1.2-5.2
			c-0.2-1.7-0.5-3.5-0.9-5.2c-0.4-1.7-0.7-3.6-0.9-5.5c-0.4-1.7-0.8-3.5-1.2-5.2c-0.2-1.7-0.5-3.6-0.9-5.5c-0.4-1.7-0.7-3.5-0.9-5.2
			c-0.4-1.7-0.7-3.5-0.9-5.2c-0.4-1.7-0.7-3.5-0.9-5.2c-0.4-1.7-0.7-3.5-0.9-5.2c-0.4-1.5-0.7-3.2-0.9-4.9c-0.4-1.5-0.7-3.1-0.9-4.6
			c-0.4-1.5-0.7-3.1-0.9-4.6c-0.2-1.5-0.4-3.1-0.6-4.6c-0.4-1.3-0.7-2.7-0.9-4.1c-0.2-1.4-0.4-2.7-0.6-4.1c-0.2-1.2-0.4-2.4-0.6-3.8
			c-0.2-1.2-0.4-2.3-0.6-3.5c-0.2-1-0.4-1.9-0.6-2.9c-0.2-1-0.4-1.9-0.6-2.9c0-0.8-0.1-1.5-0.3-2.3c0-0.8-0.1-1.4-0.3-2
			c-0.2-0.6-0.3-1.2-0.3-1.7c0-0.4-0.1-0.8-0.3-1.2c0-0.2,0-0.4,0-0.6v-0.3v0.3c-0.2,0.2-0.3,0.4-0.3,0.6c-0.2,0.4-0.3,0.8-0.3,1.2
			c-0.2,0.6-0.4,1.2-0.6,1.7c-0.2,0.8-0.4,1.5-0.6,2c-0.4,0.8-0.7,1.5-0.9,2.3c-0.2,1-0.5,1.9-0.9,2.9c-0.4,1-0.7,2-0.9,3.2
			c-0.4,1.2-0.8,2.3-1.2,3.5c-0.4,1.2-0.8,2.3-1.2,3.5c-0.4,1.4-0.8,2.7-1.2,4.1c-0.6,1.4-1.1,2.8-1.5,4.3c-0.4,1.4-0.9,2.8-1.5,4.3
			c-0.4,1.5-0.9,3.1-1.5,4.6c-0.4,1.5-0.9,3.1-1.5,4.6c-0.6,1.5-1.1,3.2-1.5,4.9c-0.6,1.5-1.2,3.2-1.8,4.9c-0.6,1.7-1.2,3.4-1.8,4.9
			c-0.6,1.7-1.1,3.5-1.5,5.2c-0.6,1.7-1.2,3.5-1.8,5.2c-0.6,1.7-1.2,3.4-1.8,4.9c-0.6,1.7-1.2,3.5-1.8,5.2c-0.6,1.7-1.2,3.5-1.8,5.2
			c-0.6,1.5-1.2,3.2-1.8,4.9c-0.6,1.5-1.2,3.2-1.8,4.9c-0.6,1.5-1.2,3.1-1.8,4.6c-0.4,1.5-0.9,3.1-1.5,4.6c-0.6,1.5-1.2,3.1-1.8,4.6
			c-0.6,1.4-1.1,2.7-1.5,4.1c-8.3,13-24.1,9.4-28.6-0.6c-0.1-1.5-1.2-2.8-1.8-4.3c-0.6-1.3-1.1-2.8-1.5-4.3
			c-0.6-1.4-1.2-2.8-1.8-4.3c-0.6-1.5-1.2-3.1-1.8-4.6c-0.8-1.7-1.5-3.4-2.2-4.9c-0.6-1.5-1.2-3.2-1.8-4.9c-0.6-1.5-1.2-3.2-1.8-4.9
			c-0.6-1.5-1.2-3.2-1.8-4.9c-0.6-1.5-1.2-3.2-1.8-4.9c-0.6-1.7-1.2-3.4-1.8-4.9c-0.6-1.7-1.2-3.4-1.8-4.9c-0.6-1.7-1.2-3.4-1.8-4.9
			s-1.2-3.2-1.8-4.9c-0.6-1.5-1.2-3.1-1.8-4.6c-0.4-1.5-0.9-3.1-1.5-4.6c-0.6-1.3-1.1-2.8-1.5-4.3c-0.6-1.4-1.1-2.7-1.5-4.1
			c-0.6-1.3-1.1-2.7-1.5-4.1c-0.4-1.4-0.8-2.7-1.2-4.1c-0.6-1.2-1.1-2.3-1.5-3.5c-0.4-1-0.7-2-0.9-3.2c-0.4-1-0.8-2-1.2-3.2
			c-0.2-0.8-0.5-1.6-0.9-2.6c-0.2-0.8-0.5-1.5-0.9-2.3c-0.2-0.6-0.4-1.3-0.6-2c-0.2-0.4-0.4-0.9-0.6-1.5c0-0.4-0.1-0.8-0.3-1.2
			c-0.2-0.2-0.3-0.4-0.3-0.6v-0.3v0.3c0,0.2,0,0.4,0,0.6c-0.2,0.4-0.3,0.8-0.3,1.2c0,0.6-0.1,1.2-0.3,1.7c0,0.8,0,1.4,0,2
			c-0.2,1-0.3,1.8-0.3,2.6c-0.2,1-0.4,1.9-0.6,2.9c0,1-0.1,2-0.3,3.2c-0.2,1.2-0.3,2.3-0.3,3.5c-0.2,1.2-0.4,2.4-0.6,3.8
			c-0.2,1.4-0.4,2.7-0.6,4.1c0,1.4-0.1,2.8-0.3,4.3c-0.2,1.4-0.4,2.8-0.6,4.3c-0.2,1.5-0.4,3.2-0.6,4.9c-0.2,1.5-0.4,3.1-0.6,4.6
			c-0.4,1.7-0.7,3.5-0.9,5.2c-0.2,1.7-0.4,3.5-0.6,5.2c-0.2,1.7-0.4,3.5-0.6,5.2c-0.4,1.7-0.7,3.5-0.9,5.2c-0.2,1.7-0.4,3.6-0.6,5.5
			c-0.4,1.7-0.7,3.5-0.9,5.2c-0.2,1.9-0.4,3.8-0.6,5.5c-0.4,1.7-0.7,3.5-0.9,5.2c-0.2,1.7-0.5,3.6-0.9,5.5c-0.2,1.7-0.4,3.5-0.6,5.2
			c-0.4,1.5-0.7,3.2-0.9,4.9c-0.2,1.7-0.5,3.5-0.9,5.2c-0.2,1.5-0.4,3.1-0.6,4.6c-0.4,1.5-0.7,3.1-0.9,4.6c-0.2,1.5-0.4,3.1-0.6,4.6
			c-0.4,1.4-0.7,2.7-0.9,4.1c-0.2,1.4-0.5,2.7-0.9,4.1c-0.2,1.2-0.4,2.4-0.6,3.8c-0.2,1.2-0.5,2.3-0.9,3.5c-0.2,1-0.4,1.9-0.6,2.9
			c-0.2,1-0.4,1.9-0.6,2.9c-0.2,0.8-0.5,1.5-0.9,2.3c-0.2,0.6-0.4,1.2-0.6,1.7c-0.2,0.6-0.4,1.2-0.6,1.7c-0.2,0.4-0.4,0.7-0.6,0.9
			c0,0.4-0.2,0.7-0.6,0.9c-0.2,0.2-0.5,0.3-0.9,0.3c-0.6,0.2-1.2,0.4-1.8,0.6c-0.8,0.2-1.6,0.3-2.5,0.3c-0.8,0.2-1.7,0.4-2.8,0.6
			c-1.2,0.2-2.4,0.3-3.4,0.3c-1.2,0.2-2.6,0.3-4,0.3c-1.2,0.2-2.6,0.3-4,0.3c-1.6,0.2-3.2,0.3-4.6,0.3c-1.6,0.2-3.3,0.3-4.9,0.3
			c-1.6,0.2-3.3,0.3-4.9,0.3c-1.8,0-3.6,0-5.2,0c-1.8,0.2-3.7,0.3-5.5,0.3c-1.8,0-3.7,0-5.5,0c-1.8,0-3.7,0-5.5,0s-3.7,0-5.5,0
			c-1.6,0-3.4,0-5.2,0s-3.7,0-5.5,0c-1.6,0-3.3-0.1-4.9-0.3c-1.8,0-3.6,0-5.2,0c-1.4,0-3-0.1-4.6-0.3c-1.4,0-2.9-0.1-4.3-0.3
			c-1.4,0-2.8-0.1-4-0.3c-1.2,0-2.5-0.1-3.7-0.3c-1-0.2-2.1-0.3-3.1-0.3c-1-0.2-2-0.4-2.8-0.6c-0.8-0.2-1.5-0.4-2.2-0.6
			c-0.6,0-1.1-0.1-1.5-0.3C211.3,531.4,211,531.2,210.6,531z"/>
		<path fill="#FFFFFF" d="M234.5,507.4v-0.2c0-0.2,0-0.3,0-0.5c0-0.2,70.4-281.4,70.4-281.5c0.2,0,58.5-0.2,59.8,0
			c1.1,0.2,34.9,138.6,34.9,138.6s37-137.3,37.2-137.6c0.2-0.3,67-0.5,67-0.5c0,0.2,62.2,281.8,62.2,281.8c-0.2,0.2-64.1,0.2-64.5,0
			c-0.2-0.2-40.6-176.7-40.6-176.7s-48.6,127.2-48.9,127.7c-6.3,13.9-17.9,13.9-24,0c-0.4-0.6-45.5-130-45.5-130
			S305,507.9,304.5,508.1C303.8,508.3,234.8,507.5,234.5,507.4z"/>
	</g>
	<g>
		<path fill="#020202" d="M702.5,511.9c-0.2-0.8-11.1,16.5-41.7,16.4c-0.8,0.2-1.8,0.2-2.8,0c-0.8,0-1.7,0-2.5,0c-1,0-2,0-2.8,0
			c-1-0.2-2-0.3-2.8-0.3c-1-0.2-2-0.4-2.8-0.6c-0.8,0-1.8-0.1-2.8-0.3c-0.8-0.2-1.8-0.4-2.8-0.6c-0.8-0.2-1.7-0.4-2.5-0.6
			c-1-0.4-2-0.7-2.8-0.9c-0.8-0.2-1.8-0.5-2.8-0.9c-0.8-0.4-1.7-0.7-2.5-0.9c-0.8-0.4-1.8-0.8-2.8-1.3c-0.8-0.4-1.7-0.8-2.5-1.3
			c-0.8-0.4-1.7-0.8-2.5-1.3c-0.8-0.4-1.7-0.8-2.5-1.3c-0.8-0.6-1.7-1.2-2.5-1.6c-0.8-0.6-1.7-1.1-2.5-1.6c-0.8-0.6-1.7-1.3-2.5-1.9
			c-0.8-0.4-1.7-0.9-2.5-1.6c-0.8-0.6-1.6-1.3-2.2-1.9c-0.8-0.6-1.7-1.3-2.5-1.9c-0.6-0.8-1.4-1.6-2.2-2.2c-0.8-0.6-1.6-1.4-2.2-2.2
			c-0.6-0.6-1.4-1.4-2.2-2.2c-0.6-0.8-1.4-1.7-2.2-2.5c-0.6-0.6-1.3-1.4-1.9-2.2c-0.6-0.8-1.3-1.7-1.9-2.5c-0.6-0.8-1.3-1.8-1.9-2.8
			c-0.6-0.8-1.3-1.7-1.9-2.5c-0.6-1-1.3-2-1.9-2.8c-0.4-1-0.9-2-1.6-2.8c-0.6-1-1.1-2.1-1.6-3.1c-0.6-0.8-1.1-1.8-1.6-2.8
			c-0.4-1-0.9-2.1-1.6-3.2c-0.4-1-0.8-2.1-1.3-3.1c-0.4-1.3-0.8-2.4-1.3-3.5c-0.4-1-0.8-2.2-1.3-3.5c-0.4-1-0.7-2.2-0.9-3.5
			c-0.4-1-0.8-2.2-1.3-3.5c-0.2-1.3-0.4-2.4-0.6-3.5c-0.4-1.3-0.7-2.5-0.9-3.8c-0.2-1.3-0.4-2.5-0.6-3.8c-0.2-1.3-0.4-2.5-0.6-3.8
			c-0.2-1.5-0.4-2.8-0.6-4.1c0-1.3-0.1-2.6-0.3-4.1c0-1.3-0.1-2.6-0.3-4.1c0-1.3,0-2.6,0-4.1c0-1.5,0-2.8,0-4.1c0-1.5,0-2.9,0-4.4
			c0-1.5,0.1-2.9,0.3-4.4c0-1.5,0.1-2.9,0.3-4.4c0-1.7,0.1-3.3,0.3-4.7c0.2-1.5,0.4-2.9,0.6-4.4c0.2-1.7,0.4-3.3,0.6-4.7
			c0.4-1.9,0.8-3.7,1.3-5.3c0.2-1.7,0.5-3.3,1-5c0.4-1.7,0.8-3.2,1.3-4.7c0.4-1.7,0.9-3.3,1.6-4.7c0.4-1.7,0.9-3.2,1.6-4.7
			c0.4-1.5,0.9-2.9,1.6-4.4c0.6-1.5,1.3-2.8,1.9-4.1c0.6-1.5,1.3-2.8,1.9-4.1c0.6-1.5,1.3-2.8,2.2-4.1c0.6-1.3,1.4-2.5,2.2-3.8
			c14.4-22,40.7-44.3,76.3-46.2c35.6-1.9,49.2,16.1,49.4,15.2c0.8-1.7-1.2-10.6,4.3-13.8c5.4-3.2,84.9-3.1,84,5.1l0.3,0.3
			c0,0.4,0,0.7,0,0.9c0,0.4,0,0.8,0,1.3c0,0.6,0,1.3,0,1.9c0,0.6,0,1.3,0,1.9c0,0.8,0,1.6,0,2.2c0,1,0,2,0,2.8c0,1.1-0.1,2-0.3,2.8
			c0,1.3,0,2.4,0,3.5c-0.2,1.3-0.3,2.4-0.3,3.5c0,1.5-0.1,2.8-0.3,4.1c0,1.3,0,2.6,0,4.1c-0.2,1.5-0.3,3-0.3,4.4
			c0,1.7-0.1,3.3-0.3,4.7c0,1.7,0,3.4,0,5c-0.2,1.7-0.3,3.4-0.3,5c0,1.9-0.1,3.8-0.3,5.7c0,1.9,0,3.7,0,5.4c-0.2,2.1-0.3,4.1-0.3,6
			c0,2.1,0,4.1,0,6c0,2.1-0.1,4.2-0.3,6.3c0,2.1,0,4.2,0,6.3c0,2.3,0,4.5,0,6.6c0,2.5,0,4.9,0,7.2c0,2.3,0,4.6,0,6.9
			c0.2,2.3,0.3,4.5,0.3,6.6c0,2.3,0,4.5,0,6.6c0,2.1,0.1,4.2,0.3,6.3c0,2.1,0,4.2,0,6.3c0.2,2.1,0.3,4.1,0.3,6c0,1.9,0.1,3.9,0.3,6
			c0,1.9,0.1,3.7,0.3,5.4c0,1.9,0,3.8,0,5.7c0.2,1.7,0.3,3.4,0.3,5c0.2,1.7,0.3,3.4,0.3,5c0.2,1.7,0.3,3.2,0.3,4.7
			c0.2,1.7,0.3,3.3,0.3,4.7c0.2,1.5,0.3,2.9,0.3,4.4c0.2,1.3,0.3,2.6,0.3,4.1c0,1.3,0.1,2.5,0.3,3.8c0,1.3,0.1,2.5,0.3,3.8
			c0,1.3,0,2.4,0,3.5c0.2,1,0.3,2.2,0.3,3.5c0,0.8,0.1,1.8,0.3,2.8c0,1,0,2,0,2.8c0,0.8,0.1,1.7,0.3,2.5c0,0.8,0,1.7,0,2.5
			c0,0.6,0,1.3,0,1.9s0,1.3,0,1.9c0,0.6,0,1.2,0,1.6c0,0.4,0,0.9,0,1.6c0,0.2-0.1,0.5-0.3,0.9c0,0.4,0,0.7,0,0.9
			c-0.2,0.2-0.3,0.4-0.3,0.6c0,0.2-0.1,0.3-0.3,0.3c-0.4,0.2-0.8,0.4-1.3,0.6c-0.8,0.2-1.6,0.3-2.2,0.3c-1.1,0.2-2.1,0.4-3.2,0.6
			c-1,0-6.3,0.3-7.5,0.3c-1.7,0.2-3.3,0.3-4.7,0.3c-1.7,0-3.4,0-5,0c-1.7,0-8.8,0-10.7,0c-1.9,0-3.8,0-5.6,0c-1.9,0-9.1-0.1-11-0.3
			c-1.9,0-18.4-0.9-19.8-0.9c-1.3-0.2-9.5-1.3-9.5-1.3C706.4,524.7,702.9,513.4,702.5,511.9z"/>
		<path fill="#FFFFFF" d="M713.8,484.2c-0.2-0.7-0.7,0.1-1.6,2.3c-0.4,0.7-1,1.4-1.8,2.1c-0.7,0.5-1.3,1.1-1.8,1.8
			c-0.5,0.7-1.1,1.3-1.8,1.8c-0.7,0.7-1.3,1.3-1.8,1.8c-0.7,0.7-1.4,1.3-2.1,1.8c-0.7,0.5-1.3,1-1.8,1.6c-0.7,0.5-1.4,1.1-2.1,1.6
			c-0.7,0.4-1.4,0.8-2.1,1.3c-0.7,0.5-1.4,1-2.1,1.3c-0.7,0.4-1.4,0.8-2.1,1.3c-0.7,0.4-1.4,0.7-2.1,1.1c-0.7,0.4-1.5,0.7-2.4,1
			c-0.7,0.4-1.4,0.6-2.1,0.8c-0.7,0.4-1.5,0.7-2.3,1c-0.7,0.2-1.4,0.4-2.1,0.5c-0.7,0.4-1.5,0.6-2.3,0.8c-0.7,0.2-1.5,0.4-2.4,0.5
			c-0.7,0.2-1.4,0.4-2.1,0.5c-0.9,0.2-1.7,0.3-2.4,0.3c-0.7,0.2-1.5,0.3-2.3,0.3c-0.7,0.2-1.5,0.3-2.4,0.3c-0.7,0-1.5,0-2.4,0
			c-0.7,0.2-1.5,0.2-2.3,0c-0.7,0-1.4,0-2.1,0c-0.9,0-1.7,0-2.4,0c-0.9-0.2-1.7-0.3-2.4-0.3c-0.9-0.2-1.7-0.3-2.3-0.5
			c-0.7,0-1.5-0.1-2.4-0.3c-0.7-0.2-1.5-0.4-2.3-0.5c-0.7-0.2-1.4-0.4-2.1-0.5c-0.9-0.3-1.7-0.6-2.3-0.8c-0.7-0.2-1.5-0.4-2.4-0.8
			c-0.7-0.4-1.4-0.6-2.1-0.8c-0.7-0.3-1.5-0.7-2.4-1c-0.7-0.4-1.4-0.7-2.1-1s-1.4-0.7-2.1-1.1c-0.7-0.3-1.4-0.7-2.1-1
			c-0.7-0.5-1.4-1-2.1-1.3c-0.7-0.5-1.4-1-2.1-1.3c-0.7-0.5-1.4-1-2.1-1.6c-0.7-0.4-1.4-0.8-2.1-1.3c-0.7-0.5-1.3-1-1.8-1.6
			c-0.7-0.5-1.4-1-2.1-1.6c-0.5-0.7-1.1-1.3-1.8-1.8c-0.7-0.5-1.3-1.1-1.8-1.8c-0.5-0.5-1.1-1.1-1.8-1.8c-0.5-0.7-1.1-1.4-1.8-2.1
			c-0.5-0.5-1-1.1-1.6-1.8c-0.5-0.7-1-1.4-1.6-2.1c-0.5-0.7-1-1.5-1.6-2.4c-0.5-0.7-1-1.4-1.6-2.1c-0.5-0.9-1-1.7-1.6-2.3
			c-0.3-0.9-0.8-1.7-1.3-2.4c-0.5-0.9-1-1.7-1.3-2.6c-0.5-0.7-1-1.5-1.3-2.3c-0.4-0.9-0.8-1.7-1.3-2.6c-0.3-0.9-0.7-1.7-1-2.6
			c-0.3-1-0.7-2-1-2.9c-0.3-0.9-0.7-1.8-1-2.9c-0.4-0.9-0.6-1.8-0.8-2.9c-0.3-0.9-0.7-1.8-1-2.9c-0.2-1.1-0.4-2-0.5-2.9
			c-0.3-1-0.6-2.1-0.8-3.1c-0.2-1-0.3-2.1-0.5-3.1c-0.2-1.1-0.4-2.1-0.5-3.1c-0.2-1.2-0.3-2.4-0.5-3.4c0-1-0.1-2.2-0.3-3.4
			c0-1.1-0.1-2.2-0.3-3.4c0-1,0-2.2,0-3.4c0-1.2,0-2.4,0-3.4c0-1.2,0-2.4,0-3.7c0-1.2,0.1-2.4,0.3-3.7c0-1.2,0.1-2.4,0.3-3.7
			c0-1.4,0.1-2.7,0.3-3.9c0.2-1.2,0.3-2.4,0.5-3.7c0.2-1.4,0.4-2.7,0.5-3.9c0.4-1.6,0.7-3,1-4.4c0.2-1.4,0.4-2.8,0.8-4.2
			c0.4-1.4,0.7-2.7,1-3.9c0.4-1.4,0.8-2.7,1.3-3.9c0.3-1.4,0.8-2.7,1.3-3.9c0.4-1.2,0.8-2.4,1.3-3.7c0.5-1.2,1-2.4,1.6-3.4
			c0.5-1.2,1-2.3,1.6-3.4c0.5-1.2,1.1-2.4,1.8-3.4c0.5-1,1.1-2.1,1.8-3.1c0.5-1,1.1-2,1.8-2.9c0.7-1,1.4-2,2.1-2.9
			c0.7-1.1,1.4-2,2.1-2.9c0.7-0.9,1.4-1.7,2.1-2.6c0.7-0.9,1.4-1.7,2.1-2.6c0.9-0.7,1.7-1.5,2.4-2.3c0.9-0.7,1.7-1.4,2.3-2.1
			c0.9-0.7,1.7-1.4,2.6-2.1c0.7-0.7,1.5-1.4,2.4-2.1c0.9-0.7,1.7-1.3,2.6-1.8c0.9-0.7,1.7-1.3,2.6-1.8c0.9-0.5,1.7-1.1,2.6-1.6
			c0.8-0.5,1.7-1,2.6-1.6c1.1-0.5,2-1,2.9-1.3c0.9-0.5,1.8-1,2.9-1.3c0.9-0.4,1.7-0.8,2.6-1.3c1-0.4,2-0.7,2.9-1
			c1-0.2,2-0.4,2.9-0.8c1-0.4,2-0.6,2.9-0.8c1-0.3,2-0.6,2.9-0.8c1-0.2,2-0.4,2.9-0.5c1-0.2,2-0.3,2.9-0.5c1-0.2,2.1-0.3,3.1-0.3
			c0.9-0.2,1.8-0.3,2.9-0.3c0.9-0.2,1.8-0.3,2.9-0.3c1.1,0,2,0,2.9,0c1,0,2,0,2.9,0c1,0,2,0.1,2.9,0.3c1,0,2,0.1,2.9,0.3
			c1,0,2,0.1,2.9,0.3c1,0.2,2,0.4,2.9,0.5c0.9,0.2,1.8,0.4,2.9,0.5c0.9,0.4,1.7,0.6,2.6,0.8c1,0.2,2,0.4,2.9,0.8
			c0.9,0.4,1.7,0.7,2.6,1c0.8,0.2,1.7,0.4,2.6,0.8c0.9,0.4,1.7,0.7,2.6,1c0.9,0.5,1.7,1,2.6,1.3c0.7,0.4,1.5,0.8,2.4,1.3
			c0.9,0.5,1.7,1,2.3,1.3c0.9,0.5,1.7,1,2.4,1.6c0.9,0.5,1.7,1,2.4,1.6c1,0.4,1.7,0.9,2.1,1.6c1.2,1.9,1.9,2.5,2.1,1.8
			c0.7-1.4,1-3.2,0.8-5.5c-0.2-1.6,0-3.1,0.5-4.7c0.3-1,0.6-2.2,0.8-3.4c0-0.7,0.3-1.2,0.8-1.6c0.2-0.2,0.5-0.4,1.1-0.5
			c0.5-0.2,1.1-0.3,1.8-0.3c0.9-0.2,1.7-0.3,2.6-0.3c1.1-0.2,2.1-0.3,3.1-0.3c1.2,0,2.4,0,3.7,0c1.4,0,2.8,0,4.2,0
			c1.4,0,2.9,0,4.4,0c1.4,0,2.9,0,4.4,0c1.6,0,3.1,0.1,4.7,0.3c1.6,0,3.2,0.1,5,0.3c1.4,0,2.9,0.1,4.4,0.3c1.6,0.2,3,0.4,4.4,0.5
			c1.4,0.2,2.8,0.4,4.2,0.5c1.2,0.2,2.4,0.4,3.7,0.5c1.1,0.2,2.1,0.4,3.1,0.5c0.9,0.2,1.7,0.4,2.6,0.8c0.7,0.2,1.3,0.4,1.8,0.5
			c0.3,0.4,0.7,0.7,1,1.1l0.3,0.3c0,0.4,0,0.6,0,0.8c0,0.4,0,0.7,0,1c0,0.5,0,1.1,0,1.6c0,0.5,0,1,0,1.6c0,0.7,0,1.3,0,1.8
			c0,0.9,0,1.7,0,2.3c0,0.9-0.1,1.7-0.3,2.4c0,1,0,2,0,2.9c-0.2,1-0.3,2-0.3,2.9c0,1.2-0.1,2.3-0.3,3.4c0,1,0,2.2,0,3.4
			c-0.2,1.2-0.3,2.4-0.3,3.7c0,1.4-0.1,2.7-0.3,3.9c0,1.4,0,2.8,0,4.2c-0.2,1.4-0.3,2.8-0.3,4.2c0,1.6-0.1,3.1-0.3,4.7
			c0,1.6,0,3,0,4.4c-0.2,1.7-0.3,3.4-0.3,4.9c0,1.7,0,3.4,0,5c0,1.7-0.1,3.5-0.3,5.2c0,1.7,0,3.5,0,5.2c0,1.9,0,3.7,0,5.5
			c0,2.1,0,4.1,0,6s0,3.8,0,5.7c0.2,1.9,0.3,3.7,0.3,5.5c0,1.9,0,3.7,0,5.5c0,1.7,0.1,3.5,0.3,5.2c0,1.7,0,3.5,0,5.2
			c0.2,1.7,0.3,3.4,0.3,5c0,1.6,0.1,3.2,0.3,5c0,1.6,0.1,3,0.3,4.4c0,1.6,0,3.1,0,4.7c0.2,1.4,0.3,2.8,0.3,4.2
			c0.2,1.4,0.3,2.8,0.3,4.2c0.2,1.4,0.3,2.7,0.3,3.9c0.2,1.4,0.3,2.7,0.3,3.9c0.2,1.2,0.3,2.4,0.3,3.7c0.2,1,0.3,2.2,0.3,3.4
			c0,1,0.1,2.1,0.3,3.1c0,1,0.1,2.1,0.3,3.1c0,1,0,2,0,2.9c0.2,0.9,0.3,1.8,0.3,2.9c0,0.7,0.1,1.5,0.3,2.3c0,0.9,0,1.7,0,2.3
			c0,0.7,0.1,1.4,0.3,2.1c0,0.7,0,1.4,0,2.1c0,0.5,0,1,0,1.6c0,0.5,0,1,0,1.6c0,0.5,0,1,0,1.3s0,0.8,0,1.3c0,0.2-0.1,0.4-0.3,0.8
			c0,0.4,0,0.6,0,0.8c-0.2,0.2-0.3,0.4-0.3,0.5c0,0.2-0.1,0.3-0.3,0.3c-0.3,0.2-0.7,0.4-1,0.5c-0.7,0.2-1.3,0.3-1.8,0.3
			c-0.9,0.2-1.7,0.4-2.6,0.5c-0.9,0-1.8,0.1-2.9,0.3c-1.2,0-2.3,0-3.4,0c-1.4,0.2-2.7,0.3-3.9,0.3c-1.4,0-2.8,0-4.2,0
			c-1.4,0-2.9,0-4.4,0c-1.4,0-2.9,0-4.4,0c-1.6,0-3.1,0-4.7,0c-1.6,0-3.1,0-4.7,0c-1.4,0-2.9-0.1-4.4-0.3c-1.6,0-3-0.1-4.4-0.3
			c-1.6,0-3,0-4.4,0c-1.2-0.2-2.5-0.3-3.9-0.3c-1.2-0.2-2.4-0.3-3.7-0.3c-1-0.2-2.1-0.3-3.1-0.3c-0.9-0.2-1.7-0.4-2.6-0.5
			c-0.7,0-1.4-0.1-2.1-0.3c-0.5-0.2-1.1-0.3-1.6-0.3c-0.4-0.2-0.6-0.4-0.8-0.5c-0.5-0.5-0.9-1.1-1-1.8c-0.4-0.7-0.6-1.4-0.8-2.1
			c-0.4-1-0.5-2-0.5-2.9c-0.2-1.2-0.3-2.3-0.3-3.4c0.2-1.2,0.3-2.5,0.3-3.9c-0.3-1.4-0.3-2.8,0-4.2C714,487,714.1,485.5,713.8,484.2
			z M689,383.8c-1-0.2-2.2-0.3-3.4-0.3c-1.2,0-2.4,0-3.4,0c-1.2,0.2-2.4,0.4-3.4,0.8c-1,0.4-2.1,0.7-3.1,1.1c-1,0.5-2,1.1-2.9,1.8
			c-1,0.5-2,1.1-2.9,1.8c-0.9,0.7-1.7,1.5-2.3,2.3c-0.9,0.9-1.7,1.7-2.4,2.6c-0.7,0.9-1.4,1.8-2.1,2.9c-0.5,0.9-1,1.8-1.6,2.9
			c-0.5,1.2-1,2.4-1.6,3.4c-0.3,1-0.7,2.2-1,3.4c-0.2,1.1-0.3,2.2-0.5,3.4c-0.2,1.2-0.3,2.4-0.3,3.7c0,1,0,2.2,0,3.4
			c0.2,1.2,0.4,2.4,0.8,3.4c0.4,1,0.7,2.1,1,3.1c0.4,1.2,0.8,2.3,1.3,3.1c0.7,1,1.3,2,1.8,2.9c0.7,1,1.4,2,2.1,2.9
			c0.7,0.9,1.5,1.7,2.4,2.4c0.9,0.7,1.7,1.4,2.6,2.1c0.9,0.7,1.7,1.3,2.6,1.8c0.9,0.7,1.8,1.2,2.9,1.6c1,0.4,2,0.7,2.9,1
			c1,0.4,2.1,0.6,3.1,0.8c1,0.2,2.1,0.3,3.1,0.3c1,0,2.1-0.1,3.1-0.3c1.2-0.2,2.4-0.4,3.7-0.8c1.2-0.4,2.4-0.8,3.7-1.3
			c1.2-0.4,2.4-0.8,3.4-1.3c1-0.7,2.1-1.4,3.1-2.1c1.1-0.5,2-1.2,2.9-2.1c0.9-0.7,1.7-1.5,2.6-2.3c0.9-0.9,1.6-1.8,2.3-2.9
			c0.7-0.9,1.3-1.8,1.8-2.9c0.5-1,1-2.1,1.6-3.1c0.5-1.2,1-2.3,1.3-3.4c0.2-1.2,0.4-2.4,0.5-3.7c0.2-1.2,0.3-2.4,0.5-3.7
			c0-1.4-0.1-2.7-0.3-3.9c-0.2-1.2-0.3-2.3-0.5-3.4c-0.4-1.2-0.7-2.3-1.1-3.4c-0.5-1-1-2.1-1.6-3.1c-0.5-0.9-1.1-1.8-1.8-2.9
			c-0.7-0.9-1.5-1.7-2.4-2.3c-0.7-0.9-1.5-1.7-2.4-2.4c-1-0.9-2-1.6-2.9-2.1c-1-0.7-2.1-1.3-3.1-1.8c-1-0.5-2.2-1.1-3.4-1.6
			c-1-0.3-2.2-0.7-3.4-1C691.4,384.2,690.2,384,689,383.8z"/>
	</g>
</g>
</svg>
