<?xml version="1.0" encoding="utf-8"?>
<!-- Generator: Adobe Illustrator 18.0.0, SVG Export Plug-In . SVG Version: 6.00 Build 0)  -->
<!DOCTYPE svg PUBLIC "-//W3C//DTD SVG 1.1//EN" "http://www.w3.org/Graphics/SVG/1.1/DTD/svg11.dtd">
<svg version="1.1" id="Camada_1" xmlns="http://www.w3.org/2000/svg" xmlns:xlink="http://www.w3.org/1999/xlink" x="0px" y="0px"
	 viewBox="0 0 1024 768" enable-background="new 0 0 1024 768" xml:space="preserve">
<g>
	<defs>
		<circle id="SVGID_1_" cx="511.9" cy="383.4" r="375.7"/>
	</defs>
	<clipPath id="SVGID_2_">
		<use xlink:href="#SVGID_1_"  overflow="visible"/>
	</clipPath>
	<g clip-path="url(#SVGID_2_)" enable-background="new    ">
		
			<image overflow="visible" width="2474" height="2474" xlink:href="../../banco de imagens/botões/butt 25.png"  transform="matrix(0.3065 0 0 0.3065 132.8006 4.7999)">
		</image>
	</g>
</g>
<g>
	<g>
		<path d="M270.5,540c0-0.2,0-0.4,0-0.6c0-0.4,0-0.7,0-0.9c0-0.4,0-0.7,0-0.8c0-0.6,0-1,0-1.4c0-0.4,0-0.8,0-1.1
			c0-0.6,0.1-1.1,0.3-1.7c0-0.6,0-1.1,0-1.7c0-0.8,0-1.4,0-2c0-0.8,0-1.5,0-2.3s0-1.5,0-2.3c0.2-0.8,0.3-1.5,0.3-2.3
			c0-0.9,0-1.9,0-2.8c0-0.9,0-1.9,0-2.8c0-0.9,0.1-1.9,0.3-2.8c0-1.1,0-2.2,0-3.1c0-1.1,0-2.2,0-3.1c0-1.1,0.1-2.3,0.3-3.4
			c0-1.3,0-2.6,0-3.7c0-1.1,0-2.4,0-3.7c0.2-1.1,0.3-2.4,0.3-3.7s0-2.6,0-4c0.2-1.3,0.3-2.6,0.3-4s0-2.6,0-4
			c0.2-1.5,0.3-2.9,0.3-4.2c0-1.5,0-3,0-4.5c0.2-1.3,0.3-2.7,0.3-4.2s0-3,0-4.5c0.2-1.5,0.3-3,0.3-4.5c0-1.7,0-3.3,0-4.8
			c0.2-1.5,0.3-3.1,0.3-4.8c0-1.5,0.1-3.1,0.3-4.8c0-1.5,0-3.1,0-4.8c0.2-1.7,0.3-3.4,0.3-5.1c0-1.5,0-3.1,0-4.8
			c0.2-1.7,0.3-3.4,0.3-5.1c0-1.7,0.1-3.4,0.3-5.1c0-1.7,0-3.4,0-5.1c0.2-1.7,0.3-3.5,0.3-5.4c0.2-1.7,0.3-3.4,0.3-5.1
			c0-1.7,0.1-3.5,0.3-5.4c0-1.7,0-3.4,0-5.1c0.2-1.9,0.3-3.7,0.3-5.4s0.1-3.5,0.3-5.4c0-1.7,0-3.4,0-5.1c0.2-1.9,0.3-3.7,0.3-5.4
			c0.2-1.7,0.3-3.5,0.3-5.4c0-1.7,0.1-3.4,0.3-5.1c0-1.9,0.1-3.7,0.3-5.4c0-1.7,0-3.5,0-5.4c0.2-1.7,0.3-3.4,0.3-5.1
			c0.2-1.7,0.3-3.5,0.3-5.4c0-1.7,0.1-3.4,0.3-5.1c0-1.7,0.1-3.4,0.3-5.1c0-1.7,0-3.4,0-5.1c0.2-1.7,0.3-3.4,0.3-5.1
			c0.2-1.7,0.3-3.4,0.3-5.1c0.2-1.5,0.3-3.1,0.3-4.8s0.1-3.3,0.3-4.8c0-1.7,0.1-3.3,0.3-4.8c0-1.7,0.1-3.3,0.3-4.8
			c0-1.5,0-3.1,0-4.8c0.2-1.5,0.3-3,0.3-4.5c0.2-1.5,0.3-3,0.3-4.5c0.2-1.5,0.3-2.9,0.3-4.2c0.2-1.5,0.3-3,0.3-4.5
			c0-1.3,0.1-2.6,0.3-4c0-1.5,0.1-2.9,0.3-4.2c0-1.3,0.1-2.6,0.3-4c0-1.3,0.1-2.6,0.3-4c0-1.1,0.1-2.4,0.3-3.7c0-1.3,0-2.6,0-3.7
			c0.2-1.1,0.3-2.3,0.3-3.4c0.2-1.1,0.3-2.3,0.3-3.4c0.2-1.1,0.3-2.3,0.3-3.4c0.2-0.9,0.3-2,0.3-3.1c0.2-1,0.3-1.9,0.3-2.8
			s0.1-1.9,0.3-2.8c0-0.8,0.1-1.6,0.3-2.5c0-0.8,0.1-1.6,0.3-2.5c0-0.8,0.1-1.5,0.3-2.3c0-0.6,0.1-1.2,0.3-2c0-0.8,0.1-1.4,0.3-2
			c0-0.6,0-1.1,0-1.7c0.2-0.6,0.3-1.1,0.3-1.7c0.2-0.4,0.3-0.8,0.3-1.4c0.2-0.4,0.3-0.8,0.3-1.1c0.2-0.2,0.3-0.5,0.3-0.9
			c0.2-0.2,0.3-0.5,0.3-0.8c0-0.2,0.1-0.4,0.3-0.6l0.3-0.3c0.4-0.2,0.9-0.4,1.4-0.6c0.6-0.4,1.2-0.7,1.7-0.8c1-0.2,1.8-0.4,2.6-0.6
			c1-0.2,1.9-0.4,2.9-0.6c1.2-0.2,2.3-0.3,3.5-0.3c1.3-0.2,2.6-0.4,3.7-0.6c1.5,0,3-0.1,4.3-0.3c1.3,0,2.8,0,4.3,0
			c1.5-0.2,3.1-0.3,4.6-0.3c1.5,0,3.1,0,4.6,0c1.7,0,3.4,0,4.9,0c1.5,0,3.2,0,4.9,0c1.5,0.2,3.1,0.3,4.6,0.3c1.7,0,3.4,0,4.9,0
			c1.5,0.2,3.1,0.3,4.6,0.3c1.3,0.2,2.8,0.3,4.3,0.3c1.3,0.2,2.7,0.3,4,0.3c1.3,0.2,2.6,0.4,3.7,0.6c1.2,0,2.3,0.1,3.5,0.3
			c1,0.2,2,0.4,3.2,0.6c0.8,0.2,1.5,0.4,2.3,0.6c0.8,0,1.4,0.1,2,0.3c0.6,0.2,1.1,0.4,1.4,0.6c0.2,0.2,0.4,0.4,0.6,0.6
			c0.2,0.2,0.4,0.5,0.6,0.9c0.4,0.4,0.7,0.8,0.9,1.1c0.4,0.6,0.8,1.1,1.2,1.7c0.4,0.6,0.7,1.1,0.9,1.7c0.6,0.8,1.1,1.5,1.4,2.3
			c0.4,0.8,0.8,1.6,1.2,2.5c0.6,0.8,1.1,1.6,1.4,2.6c0.6,0.9,1.1,2,1.4,3.1c0.6,1,1.2,2,1.7,3.1c0.6,1.1,1.1,2.3,1.4,3.4
			c0.6,1.3,1.2,2.6,1.7,3.7c0.8,1.3,1.4,2.6,2,4c0.6,1.3,1.2,2.6,1.7,4c0.6,1.3,1.3,2.7,2,4.2c0.6,1.3,1.2,2.7,2,4.2
			c0.6,1.5,1.2,3,1.7,4.5c0.8,1.5,1.4,3,2,4.5c0.8,1.5,1.5,3,2.3,4.5c0.6,1.5,1.3,3.1,2,4.8c0.6,1.5,1.2,3.1,2,4.8
			c0.8,1.5,1.4,3,2,4.5c0.8,1.7,1.5,3.3,2.3,4.8c0.6,1.7,1.2,3.3,2,4.8c0.6,1.7,1.3,3.3,2,4.8c0.6,1.7,1.2,3.3,2,4.8
			c0.8,1.7,1.4,3.3,2,4.8c0.6,1.5,1.3,3,2,4.5c0.6,1.5,1.2,3,2,4.5c0.6,1.5,1.2,3,1.7,4.5s1.2,3,2,4.5c0.6,1.3,1.2,2.7,1.7,4.2
			c0.6,1.3,1.2,2.6,1.7,4c0.6,1.3,1.1,2.6,1.4,4c0.6,1.1,1.2,2.4,1.7,3.7c0.4,1.1,0.9,2.3,1.4,3.4c0.4,1.1,0.9,2.3,1.4,3.4
			c0.4,1,0.8,2,1.2,3.1c0.4,0.9,0.8,1.9,1.2,2.8c0.4,0.8,0.8,1.6,1.2,2.6c0.4,0.8,0.7,1.5,0.9,2.3c0.4,0.6,0.7,1.2,0.9,2
			c0.2,0.6,0.4,1.1,0.6,1.7c0.2,0.4,0.4,0.8,0.6,1.1c0.2,0.4,0.4,0.8,0.6,1.1c0,0.2,0.1,0.4,0.3,0.6v-0.3c0-0.2,0-0.4,0-0.6
			c0-0.4,0-0.8,0-1.1c0-0.6,0-1.1,0-1.7c0-0.6,0-1.1,0-1.7c0-0.9,0.1-1.8,0.3-2.6c0-0.8,0-1.6,0-2.5c0-0.9,0-2,0-3.1
			s0.1-2.2,0.3-3.1c0-1.3,0-2.6,0-3.7c0-1.3,0.1-2.6,0.3-4c0-1.3,0-2.6,0-4c0-1.5,0.1-3,0.3-4.5c0-1.5,0-2.9,0-4.2
			c0-1.7,0.1-3.3,0.3-4.8c0-1.7,0-3.3,0-4.8c0.2-1.7,0.3-3.4,0.3-5.1c0-1.7,0.1-3.4,0.3-5.1c0-1.7,0-3.4,0-5.1
			c0.2-1.7,0.3-3.4,0.3-5.1c0-1.7,0.1-3.5,0.3-5.4c0-1.7,0.1-3.4,0.3-5.1c0-1.9,0-3.7,0-5.4c0.2-1.7,0.3-3.4,0.3-5.1
			c0.2-1.9,0.3-3.7,0.3-5.4c0.2-1.7,0.3-3.4,0.3-5.1c0-1.7,0.1-3.4,0.3-5.1c0-1.5,0.1-3.1,0.3-4.8c0-1.5,0.1-3.1,0.3-4.8
			c0-1.5,0.1-3,0.3-4.5c0-1.5,0.1-3,0.3-4.5c0-1.3,0.1-2.6,0.3-4c0-1.3,0.1-2.7,0.3-4.2c0-1.1,0.1-2.4,0.3-3.7
			c0-1.1,0.1-2.3,0.3-3.4c0-1.1,0.1-2.2,0.3-3.1c0-0.9,0.1-1.9,0.3-2.8c0-0.9,0.1-1.8,0.3-2.5c0-0.8,0.1-1.5,0.3-2.3
			c0-0.6,0.1-1.1,0.3-1.7c0-0.4,0.1-0.8,0.3-1.4c0-0.2,0.1-0.5,0.3-0.9c0-0.2,0.1-0.4,0.3-0.6c0.2-0.2,0.5-0.3,0.9-0.3
			c0.6-0.2,1.2-0.4,2-0.6c0.8-0.2,1.5-0.3,2.3-0.3c1.2-0.2,2.2-0.3,3.2-0.3c1.2-0.2,2.4-0.3,3.8-0.3c1.3-0.2,2.7-0.3,4-0.3
			c1.5-0.2,3-0.3,4.3-0.3c1.7,0,3.4,0,4.9,0c1.5,0,3.2,0,4.9,0c1.7-0.2,3.4-0.3,4.9-0.3c1.7,0.2,3.5,0.3,5.2,0.3c1.7,0,3.5,0,5.2,0
			s3.4,0.1,4.9,0.3c1.5,0,3.2,0,4.9,0c1.3,0.2,2.8,0.3,4.3,0.3c1.3,0.2,2.8,0.4,4.3,0.6c1.2,0,2.3,0.1,3.5,0.3
			c1.2,0.2,2.2,0.4,3.2,0.6c1,0.2,1.8,0.4,2.6,0.6c0.8,0.2,1.4,0.4,2,0.6c0.4,0.2,0.8,0.4,1.2,0.6v0.3c0.2,0.2,0.3,0.4,0.3,0.6
			s0.1,0.4,0.3,0.6c0,0.4,0,0.8,0,1.1c0.2,0.4,0.3,0.8,0.3,1.1c0,0.4,0,0.8,0,1.1c0.2,0.6,0.3,1,0.3,1.4c0,0.6,0.1,1.1,0.3,1.7
			c0,0.8,0,1.4,0,2c0.2,0.8,0.3,1.4,0.3,2c0,0.8,0.1,1.5,0.3,2.3c0,0.8,0,1.6,0,2.5c0.2,0.8,0.3,1.6,0.3,2.5c0,0.8,0.1,1.6,0.3,2.5
			c0,1,0,1.9,0,2.8c0.2,1.1,0.3,2.2,0.3,3.1s0.1,2,0.3,3.1c0,1.1,0,2.3,0,3.4c0.2,1.1,0.3,2.3,0.3,3.4c0,1.1,0.1,2.3,0.3,3.4
			c0,1.3,0,2.5,0,3.7c0.2,1.3,0.3,2.6,0.3,4c0,1.3,0.1,2.6,0.3,4c0,1.3,0,2.6,0,4c0.2,1.3,0.3,2.7,0.3,4.2c0,1.3,0.1,2.7,0.3,4.2
			c0,1.3,0.1,2.7,0.3,4.2c0,1.5,0,2.9,0,4.2c0.2,1.5,0.3,3,0.3,4.5c0,1.7,0.1,3.3,0.3,4.8c0,1.5,0,3,0,4.5c0.2,1.7,0.3,3.3,0.3,4.8
			c0,1.5,0.1,3.1,0.3,4.8c0,1.7,0,3.3,0,4.8c0.2,1.7,0.3,3.4,0.3,5.1c0,1.5,0,3.1,0,4.8c0.2,1.7,0.3,3.4,0.3,5.1
			c0,1.7,0.1,3.4,0.3,5.1c0,1.7,0,3.4,0,5.1c0.2,1.7,0.3,3.4,0.3,5.1c0,1.7,0.1,3.4,0.3,5.1c0,1.9,0,3.7,0,5.4
			c0.2,1.7,0.3,3.4,0.3,5.1c0,1.7,0,3.5,0,5.4c0.2,1.7,0.3,3.4,0.3,5.1c0,1.9,0,3.7,0,5.4c0.2,1.7,0.3,3.4,0.3,5.1
			c0,1.9,0.1,3.7,0.3,5.4c0,1.7,0,3.4,0,5.1c0,1.9,0.1,3.7,0.3,5.4c0,1.7,0,3.4,0,5.1c0,1.7,0.1,3.4,0.3,5.1c0,1.9,0,3.7,0,5.4
			c0,1.7,0,3.4,0,5.1c0.2,1.7,0.3,3.4,0.3,5.1c0,1.7,0,3.3,0,4.8c0.2,1.7,0.3,3.4,0.3,5.1c0,1.7,0,3.3,0,4.8c0,1.7,0.1,3.4,0.3,5.1
			c0,1.5,0,3.1,0,4.8c0,1.5,0,3,0,4.5c0,1.7,0,3.3,0,4.8c0.2,1.5,0.3,3,0.3,4.5s0,3,0,4.5c0,1.5,0,3,0,4.5c0,1.3,0.1,2.7,0.3,4.2
			c0,1.5,0,2.9,0,4.2c0,1.3,0,2.7,0,4.2c0,1.3,0,2.6,0,4c0,1.3,0,2.6,0,4c0,1.1,0,2.4,0,3.7c0,1.3,0,2.6,0,3.7
			c0.2,1.3,0.3,2.5,0.3,3.7s0,2.3,0,3.4s0,2.3,0,3.4c0,0.9,0,2,0,3.1c0,0.9,0,1.9,0,2.8c0,1,0,1.9,0,2.8c0,0.9-0.1,1.9-0.3,2.8
			c0,1,0,1.8,0,2.5c0,0.8,0,1.6,0,2.6c0,0.6,0,1.2,0,2c0,0.8,0,1.5,0,2.3c0,0.6,0,1.1,0,1.7c0,0.6-0.1,1.1-0.3,1.7c0,0.6,0,1,0,1.4
			c0,0.6,0,1,0,1.4c0,0.4,0,0.8,0,1.1c-0.2,0.4-0.3,0.7-0.3,0.9c0,0.2,0,0.5,0,0.8c-0.2,0-0.3,0.1-0.3,0.3v0.3
			c-0.2,0.2-0.5,0.4-0.9,0.6c-0.4,0.2-0.9,0.4-1.4,0.6c-0.6,0-1.2,0.1-1.7,0.3c-1,0.2-1.8,0.3-2.6,0.3c-1,0.2-1.9,0.3-2.9,0.3
			c-1.2,0.2-2.3,0.3-3.5,0.3c-1.3,0.2-2.6,0.3-3.7,0.3c-1.5,0-3,0.1-4.3,0.3c-1.4,0-2.8,0-4.3,0c-1.5,0-3.1,0-4.6,0
			c-1.7,0.2-3.4,0.3-4.9,0.3c-1.7,0-3.5,0-5.2,0c-1.7,0-3.5,0-5.2,0c-1.7,0-3.5,0-5.2,0c-1.7,0-3.5,0-5.2,0
			c-1.9-0.2-3.8-0.3-5.5-0.3c-1.7,0-3.5,0-5.2,0c-1.5,0-3.2-0.1-4.9-0.3c-1.7,0-3.4,0-4.9,0c-1.5,0-3.2-0.1-4.9-0.3
			c-1.3,0-2.8,0-4.3,0c-1.4-0.2-2.8-0.3-4.3-0.3c-1.2-0.2-2.4-0.3-3.7-0.3c-1.2,0-2.3-0.1-3.5-0.3c-1,0-1.9-0.1-2.9-0.3
			c-1,0-1.8-0.1-2.6-0.3c-0.8,0-1.4-0.1-2-0.3c-0.6,0-1.1-0.1-1.4-0.3c-0.4,0-0.7-0.1-0.9-0.3c-0.2,0-0.4-0.1-0.6-0.3
			c0-0.2-0.1-0.5-0.3-0.9c-0.2-0.4-0.5-0.8-0.9-1.1c-0.2-0.6-0.4-1.1-0.6-1.7c-0.4-0.6-0.7-1.1-0.9-1.7c-0.4-0.8-0.7-1.5-0.9-2.3
			c-0.4-0.9-0.8-1.8-1.2-2.5c-0.4-0.9-0.8-1.9-1.2-2.8c-0.4-1.1-0.8-2.2-1.2-3.1c-0.4-1.1-0.8-2.3-1.2-3.4c-0.6-1.3-1.1-2.5-1.4-3.7
			c-0.4-1.3-0.9-2.6-1.4-4c-0.4-1.3-0.9-2.6-1.4-4c-0.4-1.3-0.9-2.7-1.4-4.2c-0.6-1.5-1.1-2.9-1.4-4.2c-0.6-1.5-1.2-3-1.7-4.5
			c-0.6-1.7-1.2-3.3-1.7-4.8c-0.4-1.5-0.9-3.1-1.4-4.8c-0.6-1.5-1.2-3.1-1.7-4.8c-0.6-1.7-1.2-3.3-1.7-4.8c-0.6-1.7-1.2-3.4-1.7-5.1
			c-0.6-1.7-1.2-3.4-1.7-5.1c-0.6-1.7-1.2-3.3-1.7-4.8c-0.6-1.7-1.2-3.4-1.7-5.1c-0.6-1.7-1.1-3.4-1.4-5.1c-0.6-1.7-1.2-3.3-1.7-4.8
			c-0.6-1.7-1.2-3.4-1.7-5.1c-0.6-1.5-1.2-3.1-1.7-4.8c-0.4-1.5-0.9-3-1.4-4.5c-0.6-1.7-1.1-3.3-1.4-4.8c-0.6-1.5-1.2-3-1.7-4.5
			c-0.4-1.3-0.8-2.7-1.2-4.2c-0.6-1.3-1.1-2.6-1.4-4c-0.6-1.3-1.1-2.6-1.4-4c-0.4-1.3-0.8-2.6-1.2-4c-0.4-1.1-0.8-2.3-1.2-3.4
			s-0.8-2.3-1.2-3.4c-0.4-0.9-0.7-1.9-0.9-2.8c-0.4-0.9-0.7-1.9-0.9-2.8c-0.4-0.8-0.7-1.6-0.9-2.6c-0.2-0.6-0.4-1.2-0.6-2
			c-0.2-0.6-0.4-1.1-0.6-1.7c-0.2-0.6-0.4-1-0.6-1.4c-0.2-0.4-0.3-0.8-0.3-1.1c-0.2-0.2-0.3-0.4-0.3-0.6v-0.3v0.3c0,0.2,0,0.5,0,0.9
			s0,0.8,0,1.1s0,0.9,0,1.4c0,0.8,0.1,1.4,0.3,2c0,0.8,0,1.5,0,2.3c0,0.9,0,1.9,0,2.8c0.2,0.9,0.3,2,0.3,3.1c0,1,0,2,0,3.1
			c0,1.3,0.1,2.5,0.3,3.7c0,1.3,0,2.6,0,4s0.1,2.6,0.3,4c0,1.5,0,3,0,4.5c0.2,1.5,0.3,3,0.3,4.5c0,1.5,0,3,0,4.5
			c0.2,1.7,0.3,3.4,0.3,5.1c0,1.5,0,3.1,0,4.8c0.2,1.7,0.3,3.4,0.3,5.1c0,1.7,0.1,3.5,0.3,5.4c0,1.7,0,3.4,0,5.1
			c0,1.7,0.1,3.5,0.3,5.4c0,1.7,0,3.5,0,5.4c0,1.7,0.1,3.4,0.3,5.1c0,1.9,0,3.7,0,5.4c0,1.7,0,3.4,0,5.1c0.2,1.7,0.3,3.5,0.3,5.4
			c0,1.7,0,3.3,0,4.8c0,1.7,0,3.4,0,5.1c0,1.5,0,3.1,0,4.8c0,1.5,0,3,0,4.5c0,1.5,0,3,0,4.5c0,1.5,0,2.9,0,4.2c0,1.3,0,2.6,0,4
			c0,1.3,0,2.6,0,4c0,1.1,0,2.3,0,3.4s-0.1,2.3-0.3,3.4c0,0.9,0,1.9,0,2.8c0,0.8-0.1,1.6-0.3,2.6c0,0.8,0,1.5,0,2.3
			c-0.2,0.6-0.3,1.1-0.3,1.7c-0.2,0.4-0.3,0.9-0.3,1.4c0,0.4-0.1,0.7-0.3,0.9c0,0.4-0.1,0.6-0.3,0.6c-0.4,0.2-0.7,0.4-0.9,0.6
			c-0.6,0.2-1.2,0.3-1.7,0.3c-0.6,0.2-1.3,0.3-2,0.3c-1,0.2-1.9,0.3-2.9,0.3c-1,0.2-2,0.3-3.2,0.3c-1.2,0.2-2.4,0.3-3.8,0.3
			s-2.7,0-4,0c-1.5,0.2-3,0.3-4.3,0.3c-1.5,0-3.2,0-4.9,0c-1.5,0-3.2,0-4.9,0c-1.7,0-3.5,0.1-5.2,0.3c-1.7,0-3.5,0-5.2,0
			c-1.9,0-3.7,0-5.5,0c-1.7-0.2-3.6-0.3-5.5-0.3c-1.7,0-3.6,0-5.5,0c-1.7,0-3.5,0-5.2,0c-1.7,0-3.5,0-5.2,0c-1.7,0-3.5,0-5.2,0
			c-1.5-0.2-3.1-0.3-4.6-0.3c-1.5,0-3.1,0-4.6,0c-1.3,0-2.7,0-4,0c-1.4-0.2-2.7-0.3-4-0.3c-1,0-2,0-3.2,0c-1,0-1.9,0-2.9,0
			c-0.8,0-1.5,0-2.3,0c-0.6,0-1.2-0.1-1.7-0.3c-0.4,0-0.8,0-1.2,0h-0.3V540z"/>
		<path fill="#FFFFFF" d="M355.5,517.4c-0.5,0.2-66.2,0.7-66.2,0.7v-0.2c0-0.2,14.4-279,14.6-279.2c0,0,53.5-0.4,53.8-0.2
			c0.2,0.2,84.7,166,84.9,166.1c0,0,19.4-166,19.6-166.1c0.2-0.2,44.4,1.4,44.4,1.4c0.2,0.2,0.2,0.3,0.2,0.5c0,0.2,8,278,7.7,278.2
			c-0.3,0.2-70.1,0.4-70.8,0.2c-0.7,0-78.2-176.2-78.2-176.2"/>
	</g>
	<g>
		<path d="M716.2,437.2c0.1,0.9,0.2,1.8,0.2,2.6c0.1,0.9,0.2,1.8,0.2,2.6c0,0.9,0.1,1.8,0.2,2.6c0,0.9,0,1.8,0,2.6
			c0,0.8,0.1,1.6,0.2,2.6c0,0.8,0,1.6,0,2.4c0,0.9,0,1.8,0,2.6c0,0.8-0.1,1.6-0.2,2.4c0,0.8,0,1.6,0,2.4c0,0.8-0.1,1.6-0.2,2.6
			c0,0.8,0,1.6,0,2.4c-0.1,0.7-0.3,1.4-0.4,2.2c0,0.8-0.1,1.6-0.2,2.4c-0.1,0.8-0.2,1.6-0.2,2.4c-0.1,0.7-0.3,1.4-0.4,2.2
			c-0.1,0.8-0.3,1.5-0.4,2.2c-0.1,0.8-0.3,1.5-0.4,2.2c-0.3,0.8-0.5,1.5-0.6,2.2c-0.1,0.8-0.4,1.5-0.6,2.2c-0.1,0.7-0.4,1.4-0.6,2.2
			c-0.1,0.7-0.4,1.4-0.6,2c-0.3,0.7-0.6,1.4-0.9,2c-0.1,0.7-0.4,1.4-0.6,2c-0.3,0.7-0.6,1.4-1.1,2c-0.3,0.7-0.6,1.3-0.9,1.9
			c-0.3,0.7-0.6,1.4-1.1,2c-0.3,0.6-0.6,1.2-1.1,1.9c-0.3,0.6-0.6,1.2-1.1,1.9c-0.4,0.6-0.9,1.1-1.3,1.7c-0.3,0.7-0.6,1.3-1.1,1.9
			c-0.6,0.6-1.1,1.1-1.5,1.7c-0.4,0.6-0.9,1.1-1.3,1.7c-0.6,0.6-1.1,1.1-1.5,1.7c-0.6,0.5-1.1,1-1.5,1.5c-0.6,0.6-1.1,1.1-1.7,1.5
			c-0.6,0.6-1.1,1.1-1.7,1.5c-0.6,0.5-1.1,1-1.7,1.5c-0.6,0.5-1.2,0.9-1.9,1.4c-0.6,0.5-1.2,0.9-1.9,1.4c-0.6,0.5-1.2,0.9-1.9,1.4
			c-0.7,0.5-1.4,0.9-2.1,1.2c-0.7,0.5-1.4,0.9-2.1,1.2c-0.7,0.5-1.4,0.9-2.1,1.2c-0.9,0.5-1.6,0.9-2.3,1.2c-0.9,0.3-1.6,0.7-2.3,1
			c-0.9,0.3-1.7,0.7-2.6,1c-0.9,0.3-1.7,0.6-2.6,0.9c-0.9,0.3-1.7,0.7-2.6,1c-1,0.2-1.9,0.5-2.8,0.9c-1,0.2-2,0.5-3,0.7
			c-0.9,0.2-1.8,0.5-2.8,0.7c-1,0.2-2,0.5-3,0.7c-1.1,0.2-2.2,0.5-3.2,0.7c-1,0.1-2.1,0.3-3.2,0.5c-1.1,0.1-2.2,0.2-3.2,0.3
			c-1.1,0.2-2.3,0.4-3.4,0.5c-1.1,0.1-2.3,0.2-3.6,0.3c-1.1,0.1-2.3,0.2-3.4,0.2c-1.3,0.1-2.6,0.2-3.8,0.3c-1.3,0-2.5,0-3.6,0
			c-1.4,0.1-2.8,0.2-4,0.2c-1.3,0-2.6,0-3.8,0c-1.4,0-2.8-0.1-4.3-0.2c-0.9,0-1.8,0-2.8,0c-1-0.1-2-0.2-3-0.3c-1,0-1.9-0.1-2.8-0.2
			c-1-0.1-1.9-0.2-2.8-0.3c-1-0.1-1.9-0.2-2.8-0.3c-1-0.2-1.9-0.4-2.8-0.5c-1-0.2-1.9-0.4-2.8-0.5c-0.9-0.2-1.7-0.5-2.6-0.7
			c-1-0.2-1.9-0.5-2.8-0.7c-0.9-0.2-1.7-0.5-2.6-0.7c-0.9-0.3-1.7-0.6-2.6-0.9c-0.9-0.3-1.6-0.6-2.3-0.9c-0.9-0.3-1.7-0.7-2.6-1
			c-0.7-0.3-1.5-0.7-2.3-1c-0.9-0.3-1.6-0.7-2.3-1c-0.9-0.3-1.6-0.7-2.3-1c-0.7-0.5-1.5-0.9-2.3-1.2c-0.7-0.5-1.4-0.9-2.1-1.4
			c-0.7-0.3-1.4-0.7-2.1-1.2c-0.7-0.5-1.4-0.9-2.1-1.4c-0.7-0.5-1.4-0.9-2.1-1.4c-0.7-0.6-1.4-1.1-2.1-1.5c-0.6-0.5-1.2-1-1.9-1.5
			c-0.7-0.5-1.4-1-1.9-1.5c-0.7-0.6-1.4-1.1-1.9-1.7c-0.6-0.5-1.2-1-1.9-1.5c-0.6-0.6-1.1-1.2-1.7-1.9c-0.6-0.6-1.1-1.1-1.7-1.7
			c-0.6-0.6-1.1-1.2-1.7-1.9c-0.6-0.6-1.1-1.1-1.7-1.7c-0.6-0.7-1.1-1.4-1.5-2c-0.6-0.6-1.1-1.2-1.5-1.9c-0.6-0.7-1.1-1.4-1.5-2
			c-0.6-0.7-1.1-1.4-1.5-2c-0.4-0.7-0.9-1.4-1.5-2c-0.4-0.7-0.9-1.4-1.3-2c-0.4-0.8-0.9-1.5-1.3-2.2c-0.4-0.7-0.9-1.4-1.3-2.2
			c-0.3-0.7-0.6-1.4-1.1-2.2c-0.4-0.8-0.8-1.5-1.1-2.2c-0.4-0.8-0.8-1.6-1.1-2.4c-0.3-0.8-0.6-1.6-1.1-2.4c-0.3-0.7-0.6-1.4-0.9-2.2
			c-0.3-0.9-0.6-1.8-0.9-2.6c-0.3-0.8-0.6-1.6-0.9-2.4c-0.3-0.8-0.6-1.6-0.9-2.4c-0.1-0.9-0.4-1.8-0.6-2.6c-0.1-0.8-0.4-1.6-0.6-2.6
			c-0.1-0.8-0.4-1.6-0.6-2.6c-0.1-0.8-0.3-1.6-0.4-2.6c-0.1-0.9-0.3-1.8-0.4-2.6c-0.1-0.9-0.3-1.8-0.4-2.7c-0.1-0.8-0.3-1.6-0.4-2.6
			c0-0.9-0.1-1.8-0.2-2.7c0-0.9-0.1-1.8-0.2-2.7c0-0.9-0.1-1.8-0.2-2.7c0-0.9,0-1.8,0-2.7c0-0.9,0-1.8,0-2.7c0-0.9,0-1.8,0-2.7
			c0-0.9,0.1-1.8,0.2-2.6c0-0.9,0.1-1.8,0.2-2.6c0-0.8,0.1-1.6,0.2-2.6c0-0.8,0.1-1.6,0.2-2.6c0.1-0.8,0.3-1.6,0.4-2.4
			c0.1-0.9,0.3-1.8,0.4-2.6c0.1-0.9,0.4-1.8,0.6-2.6c0.1-0.8,0.4-1.6,0.6-2.6c0.1-0.8,0.4-1.6,0.6-2.4c0.1-0.9,0.4-1.8,0.6-2.6
			c0.3-0.8,0.6-1.6,0.9-2.6c0.3-0.8,0.6-1.6,0.9-2.4c0.3-0.8,0.6-1.6,0.9-2.4c0.3-0.9,0.6-1.8,0.9-2.6c0.4-0.8,0.8-1.6,1.1-2.4
			c0.4-0.8,0.8-1.6,1.1-2.4c0.4-0.8,0.9-1.6,1.3-2.4c0.3-0.8,0.6-1.6,1.1-2.4c0.4-0.7,0.9-1.4,1.3-2.2c0.4-0.8,0.9-1.6,1.3-2.4
			c0.4-0.7,0.9-1.4,1.5-2.2c0.4-0.8,0.9-1.5,1.3-2.2c0.6-0.8,1.1-1.5,1.5-2.2c0.6-0.7,1.1-1.4,1.5-2.2c0.6-0.7,1.1-1.4,1.7-2
			c0.4-0.7,0.9-1.4,1.5-2c0.6-0.7,1.1-1.4,1.7-2c0.6-0.7,1.1-1.4,1.7-2c0.6-0.7,1.1-1.4,1.7-2c0.6-0.6,1.1-1.2,1.7-1.9
			c0.7-0.6,1.3-1.2,1.9-1.9c0.6-0.6,1.2-1.2,1.9-1.9c0.6-0.6,1.2-1.1,1.9-1.7c0.6-0.6,1.2-1.1,1.9-1.7c0.6-0.6,1.2-1.1,1.9-1.7
			c0.7-0.5,1.3-1,1.9-1.5c0.7-0.6,1.4-1.1,2.1-1.5c0.7-0.6,1.4-1.1,2.1-1.5c0.7-0.5,1.4-0.9,2.1-1.4c0.7-0.5,1.4-0.9,2.1-1.4
			c0.7-0.5,1.4-0.9,2.1-1.4c0.7-0.5,1.4-0.9,2.1-1.2c0.9-0.5,1.6-0.9,2.3-1.2c0.7-0.3,1.5-0.7,2.3-1c0.7-0.3,1.4-0.7,2.1-1
			c0.9-0.3,1.6-0.7,2.3-1c0.9-0.3,1.6-0.6,2.3-0.9c0.9-0.2,1.6-0.5,2.3-0.9c0.9-0.2,1.7-0.5,2.6-0.7c0.7-0.2,1.5-0.5,2.3-0.7
			c0.9-0.1,1.6-0.3,2.3-0.5c0.9-0.1,1.7-0.3,2.6-0.5c0.9-0.1,1.6-0.2,2.3-0.3c0.9-0.1,1.7-0.2,2.6-0.2c0.9-0.1,1.7-0.2,2.6-0.3
			c0.9,0,1.7,0,2.6,0c0.9,0,1.7,0,2.6,0c0.9,0,1.7,0,2.6,0c0.9,0,1.7,0.1,2.6,0.2c0.9,0,1.7,0.1,2.6,0.2c0.9,0.1,1.7,0.2,2.6,0.3
			c0.9,0.1,1.7,0.2,2.6,0.3c0.9,0.1,1.7,0.2,2.6,0.3c0.9,0.2,1.6,0.4,2.3,0.5c0.9,0.2,1.7,0.5,2.6,0.7c0.9,0.1,1.7,0.3,2.6,0.5
			c0.7,0.2,1.5,0.5,2.3,0.7c0.9,0.3,1.6,0.6,2.3,0.9c0.9,0.2,1.6,0.5,2.3,0.9c0.9,0.2,1.7,0.5,2.6,0.9c0.7,0.3,1.4,0.7,2.1,1
			c0.9,0.3,1.6,0.7,2.3,1c0.9,0.3,1.6,0.7,2.3,1c0.7,0.3,1.5,0.7,2.3,1c0.7,0.5,1.4,0.9,2.1,1.2c0.7,0.5,1.4,0.9,2.1,1.4
			c0.7,0.3,1.4,0.7,2.1,1.2c0.7,0.5,1.4,0.9,2.1,1.4c0.7,0.5,1.4,1,2.1,1.5c0.7,0.5,1.4,0.9,2.1,1.4c0.7,0.6,1.4,1.1,2.1,1.5
			c0.6,0.6,1.2,1.1,1.9,1.5c0.7,0.6,1.3,1.1,1.9,1.7c0.7,0.5,1.3,1,1.9,1.5c0.7,0.6,1.3,1.1,1.9,1.7c0.6,0.6,1.2,1.2,1.9,1.9
			c0.6,0.6,1.1,1.1,1.7,1.7c0.7,0.7,1.3,1.3,1.9,1.9c0.6,0.6,1.1,1.2,1.7,1.9c0.6,0.7,1.1,1.3,1.7,1.9c0.6,0.7,1.1,1.4,1.7,2
			c0.6,0.7,1.1,1.4,1.5,2c0.6,0.7,1.1,1.4,1.7,2c0.4,0.7,0.9,1.4,1.5,2c0.4,0.7,0.9,1.4,1.5,2c0.4,0.8,0.9,1.5,1.5,2.2
			c0.4,0.7,0.9,1.4,1.3,2.2c0.4,0.7,0.9,1.4,1.5,2.2c0.4,0.8,0.9,1.5,1.3,2.2c0.4,0.8,0.9,1.6,1.3,2.4c0.4,0.7,0.8,1.4,1.1,2.2
			c0.4,0.8,0.9,1.6,1.3,2.4c0.3,0.8,0.6,1.6,1.1,2.4c0.4,0.8,0.8,1.6,1.1,2.4c0.3,0.8,0.6,1.6,1.1,2.4c0.3,0.9,0.6,1.8,0.9,2.6
			c0.3,0.8,0.6,1.6,1.1,2.4c0.3,0.9,0.6,1.8,0.9,2.6c0.3,0.8,0.5,1.6,0.6,2.6c0.3,0.8,0.6,1.6,0.9,2.6c0.3,0.8,0.5,1.6,0.6,2.6
			c0.3,0.8,0.5,1.6,0.6,2.6c0.1,0.9,0.4,1.8,0.6,2.6c0.1,0.9,0.3,1.8,0.4,2.7c0.1,0.8,0.3,1.6,0.4,2.6c0.1,0.9,0.3,1.8,0.4,2.7
			c0.1,0.9,0.3,1.8,0.4,2.6C716.1,435.4,716.2,436.3,716.2,437.2z"/>
		<path fill="#FFFFFF" d="M701.5,439c0.1,0.8,0.2,1.5,0.2,2.1c0.1,0.7,0.2,1.5,0.2,2.1c0,0.8,0.1,1.5,0.2,2.1c0,0.8,0,1.5,0,2.1
			c0,0.7,0.1,1.4,0.2,2.1c0,0.7,0,1.3,0,2c0,0.8,0,1.5,0,2.1c0,0.7-0.1,1.3-0.2,2c0,0.7,0,1.3,0,2c0,0.7-0.1,1.4-0.2,2.1
			c0,0.7,0,1.3,0,2c-0.1,0.6-0.2,1.2-0.4,1.8c0,0.7-0.1,1.3-0.2,2c-0.1,0.7-0.2,1.3-0.2,2c-0.1,0.6-0.2,1.2-0.4,1.8
			c-0.1,0.7-0.2,1.3-0.3,1.8c-0.1,0.7-0.2,1.3-0.4,1.8c-0.2,0.7-0.4,1.3-0.5,1.8c-0.1,0.7-0.3,1.3-0.5,1.8c-0.1,0.6-0.3,1.2-0.5,1.8
			c-0.1,0.6-0.3,1.1-0.5,1.7c-0.2,0.6-0.5,1.1-0.7,1.7c-0.1,0.6-0.3,1.1-0.5,1.7c-0.2,0.6-0.5,1.1-0.9,1.7c-0.2,0.6-0.5,1.1-0.7,1.5
			c-0.2,0.6-0.5,1.1-0.9,1.7c-0.2,0.5-0.5,1-0.9,1.5c-0.2,0.5-0.5,1-0.9,1.5c-0.4,0.5-0.7,0.9-1.1,1.4c-0.2,0.6-0.5,1.1-0.9,1.5
			c-0.5,0.5-0.9,0.9-1.2,1.4c-0.4,0.5-0.7,0.9-1.1,1.4c-0.5,0.5-0.9,0.9-1.2,1.4c-0.5,0.4-0.9,0.8-1.2,1.3c-0.5,0.5-0.9,0.9-1.4,1.3
			c-0.5,0.5-0.9,0.9-1.4,1.3c-0.5,0.4-0.9,0.8-1.4,1.3c-0.5,0.4-1,0.8-1.6,1.1c-0.5,0.4-1,0.8-1.6,1.1c-0.5,0.4-1,0.8-1.6,1.1
			c-0.6,0.4-1.2,0.7-1.8,1c-0.6,0.4-1.2,0.7-1.8,1c-0.6,0.4-1.2,0.7-1.8,1c-0.7,0.4-1.3,0.7-1.9,1c-0.7,0.3-1.3,0.6-1.9,0.8
			c-0.7,0.3-1.4,0.6-2.1,0.8c-0.7,0.3-1.4,0.5-2.1,0.7c-0.7,0.3-1.4,0.6-2.1,0.8c-0.8,0.2-1.6,0.4-2.3,0.7c-0.8,0.2-1.6,0.4-2.5,0.6
			c-0.7,0.2-1.5,0.4-2.3,0.6c-0.8,0.2-1.6,0.4-2.5,0.6c-0.9,0.2-1.8,0.4-2.6,0.6c-0.8,0.1-1.7,0.2-2.6,0.4c-0.9,0.1-1.8,0.2-2.6,0.3
			c-0.9,0.2-1.9,0.3-2.8,0.4c-0.9,0.1-1.9,0.2-3,0.3c-0.9,0.1-1.9,0.1-2.8,0.1c-1.1,0.1-2.1,0.2-3.2,0.3c-1.1,0-2.1,0-3,0
			c-1.2,0.1-2.3,0.1-3.3,0.1c-1.1,0-2.1,0-3.2,0c-1.2,0-2.3,0-3.5-0.1c-0.7,0-1.5,0-2.3,0c-0.8-0.1-1.6-0.2-2.5-0.3
			c-0.8,0-1.6,0-2.3-0.1c-0.8-0.1-1.6-0.2-2.3-0.3c-0.8-0.1-1.6-0.2-2.3-0.3c-0.8-0.2-1.6-0.3-2.3-0.4c-0.8-0.2-1.6-0.3-2.3-0.4
			c-0.7-0.2-1.4-0.4-2.1-0.6c-0.8-0.2-1.6-0.4-2.3-0.6c-0.7-0.2-1.4-0.4-2.1-0.6c-0.7-0.3-1.4-0.5-2.1-0.7c-0.7-0.3-1.3-0.5-1.9-0.7
			c-0.7-0.3-1.4-0.6-2.1-0.8c-0.6-0.3-1.2-0.6-1.9-0.8c-0.7-0.3-1.3-0.6-1.9-0.8c-0.7-0.3-1.3-0.6-1.9-0.8c-0.6-0.4-1.2-0.7-1.9-1
			c-0.6-0.4-1.2-0.7-1.8-1.1c-0.6-0.3-1.2-0.6-1.8-1c-0.6-0.4-1.2-0.7-1.8-1.1c-0.6-0.4-1.2-0.7-1.8-1.1c-0.6-0.5-1.2-0.9-1.8-1.3
			c-0.5-0.4-1-0.8-1.6-1.3c-0.6-0.4-1.1-0.8-1.6-1.3c-0.6-0.5-1.1-0.9-1.6-1.4c-0.5-0.4-1-0.8-1.6-1.3c-0.5-0.5-0.9-1-1.4-1.5
			c-0.5-0.5-0.9-0.9-1.4-1.4c-0.5-0.5-0.9-1-1.4-1.5c-0.5-0.5-0.9-0.9-1.4-1.4c-0.5-0.6-0.9-1.1-1.2-1.7c-0.5-0.5-0.9-1-1.2-1.5
			c-0.5-0.6-0.9-1.1-1.2-1.7c-0.5-0.6-0.9-1.1-1.2-1.7c-0.4-0.6-0.8-1.1-1.2-1.7c-0.4-0.6-0.7-1.1-1.1-1.7c-0.4-0.7-0.7-1.3-1.1-1.8
			c-0.3-0.6-0.7-1.2-1.1-1.8c-0.2-0.6-0.5-1.2-0.9-1.8c-0.4-0.7-0.6-1.3-0.9-1.8c-0.4-0.7-0.6-1.3-0.9-2c-0.2-0.7-0.5-1.3-0.9-2
			c-0.2-0.6-0.5-1.2-0.7-1.8c-0.2-0.7-0.5-1.5-0.7-2.1c-0.2-0.7-0.5-1.3-0.7-2c-0.2-0.7-0.5-1.3-0.7-2c-0.1-0.7-0.3-1.5-0.5-2.1
			c-0.1-0.7-0.3-1.4-0.5-2.1c-0.1-0.7-0.3-1.4-0.5-2.1c-0.1-0.7-0.2-1.4-0.3-2.1c-0.1-0.7-0.2-1.5-0.4-2.1c-0.1-0.7-0.2-1.5-0.4-2.2
			c-0.1-0.7-0.2-1.4-0.4-2.1c0-0.7-0.1-1.5-0.2-2.2c0-0.7-0.1-1.5-0.2-2.2c0-0.7-0.1-1.5-0.2-2.2c0-0.7,0-1.5,0-2.2
			c0-0.7,0-1.5,0-2.2c0-0.7,0-1.5,0-2.2c0-0.7,0.1-1.5,0.2-2.1c0-0.7,0.1-1.5,0.2-2.1c0-0.7,0.1-1.4,0.2-2.1c0-0.7,0.1-1.4,0.2-2.1
			c0.1-0.7,0.2-1.3,0.4-2c0.1-0.7,0.2-1.5,0.4-2.1c0.1-0.7,0.3-1.5,0.5-2.1c0.1-0.7,0.3-1.4,0.5-2.1c0.1-0.7,0.3-1.3,0.5-2
			c0.1-0.7,0.3-1.5,0.5-2.1c0.2-0.7,0.5-1.4,0.7-2.1c0.2-0.7,0.5-1.3,0.7-2c0.2-0.7,0.5-1.3,0.7-2c0.2-0.7,0.5-1.5,0.7-2.1
			c0.4-0.7,0.6-1.3,0.9-2c0.4-0.7,0.6-1.3,0.9-2c0.4-0.7,0.7-1.3,1.1-2c0.2-0.7,0.5-1.3,0.9-2c0.4-0.6,0.7-1.2,1.1-1.8
			c0.4-0.7,0.7-1.3,1.1-2c0.3-0.6,0.8-1.2,1.2-1.8c0.3-0.7,0.7-1.3,1.1-1.8c0.5-0.7,0.9-1.3,1.2-1.8c0.5-0.6,0.9-1.2,1.2-1.8
			c0.5-0.6,0.9-1.1,1.4-1.7c0.4-0.6,0.8-1.1,1.2-1.7c0.5-0.6,0.9-1.1,1.4-1.7c0.5-0.6,0.9-1.1,1.4-1.7c0.5-0.6,0.9-1.1,1.4-1.7
			c0.5-0.5,0.9-1,1.4-1.5c0.6-0.5,1.1-1,1.6-1.5c0.5-0.5,1-1,1.6-1.5c0.5-0.5,1-0.9,1.6-1.4c0.5-0.5,1-0.9,1.6-1.4
			c0.5-0.5,1-0.9,1.6-1.4c0.6-0.4,1.1-0.8,1.6-1.3c0.6-0.5,1.2-0.9,1.8-1.3c0.6-0.5,1.2-0.9,1.8-1.3c0.6-0.4,1.2-0.7,1.8-1.1
			c0.6-0.4,1.2-0.7,1.8-1.1c0.6-0.4,1.2-0.7,1.8-1.1c0.6-0.4,1.2-0.7,1.8-1c0.7-0.4,1.3-0.7,1.9-1c0.6-0.3,1.2-0.6,1.9-0.8
			c0.6-0.3,1.2-0.6,1.8-0.8c0.7-0.3,1.3-0.6,1.9-0.8c0.7-0.3,1.3-0.5,1.9-0.7c0.7-0.2,1.3-0.4,1.9-0.7c0.7-0.2,1.4-0.4,2.1-0.6
			c0.6-0.2,1.2-0.4,1.9-0.6c0.7-0.1,1.3-0.2,1.9-0.4c0.7-0.1,1.4-0.2,2.1-0.4c0.7-0.1,1.3-0.2,1.9-0.3c0.7-0.1,1.4-0.1,2.1-0.1
			c0.7-0.1,1.4-0.2,2.1-0.3c0.7,0,1.4,0,2.1,0c0.7,0,1.4,0,2.1,0c0.7,0,1.4,0,2.1,0c0.7,0,1.4,0,2.1,0.1c0.7,0,1.4,0,2.1,0.1
			c0.7,0.1,1.4,0.2,2.1,0.3c0.7,0.1,1.4,0.2,2.1,0.3c0.7,0.1,1.4,0.2,2.1,0.3c0.7,0.2,1.3,0.3,1.9,0.4c0.7,0.2,1.4,0.4,2.1,0.6
			c0.7,0.1,1.4,0.2,2.1,0.4c0.6,0.2,1.2,0.4,1.9,0.6c0.7,0.3,1.3,0.5,1.9,0.7c0.7,0.2,1.3,0.4,1.9,0.7c0.7,0.2,1.4,0.4,2.1,0.7
			c0.6,0.3,1.2,0.6,1.8,0.8c0.7,0.3,1.3,0.6,1.9,0.8c0.7,0.3,1.3,0.6,1.9,0.8c0.6,0.3,1.2,0.6,1.9,0.8c0.6,0.4,1.2,0.7,1.8,1
			c0.6,0.4,1.2,0.8,1.8,1.1c0.6,0.3,1.2,0.6,1.8,1c0.6,0.4,1.2,0.7,1.8,1.1c0.6,0.4,1.2,0.8,1.8,1.3c0.6,0.4,1.2,0.7,1.8,1.1
			c0.6,0.5,1.2,0.9,1.8,1.3c0.5,0.5,1,0.9,1.6,1.3c0.6,0.5,1.1,0.9,1.6,1.4c0.6,0.4,1.1,0.8,1.6,1.3c0.6,0.5,1.1,0.9,1.6,1.4
			c0.5,0.5,1,1,1.6,1.5c0.5,0.5,0.9,0.9,1.4,1.4c0.6,0.6,1.1,1.1,1.6,1.5c0.5,0.5,0.9,1,1.4,1.5c0.5,0.6,0.9,1.1,1.4,1.5
			c0.5,0.6,0.9,1.1,1.4,1.7c0.5,0.6,0.9,1.1,1.2,1.7c0.5,0.6,0.9,1.1,1.4,1.7c0.4,0.6,0.8,1.1,1.2,1.7c0.4,0.6,0.8,1.1,1.2,1.7
			c0.4,0.7,0.8,1.3,1.2,1.8c0.4,0.6,0.7,1.2,1.1,1.8c0.3,0.6,0.8,1.2,1.2,1.8c0.4,0.7,0.7,1.3,1.1,1.8c0.4,0.7,0.7,1.3,1.1,2
			c0.4,0.6,0.6,1.2,0.9,1.8c0.4,0.7,0.7,1.3,1.1,2c0.2,0.7,0.5,1.3,0.9,2c0.3,0.7,0.6,1.3,0.9,2c0.2,0.7,0.5,1.3,0.9,2
			c0.2,0.7,0.5,1.5,0.7,2.1c0.2,0.7,0.5,1.3,0.9,2c0.2,0.8,0.5,1.5,0.7,2.1c0.2,0.7,0.4,1.4,0.5,2.1c0.2,0.7,0.5,1.4,0.7,2.1
			c0.2,0.7,0.4,1.4,0.5,2.1c0.2,0.7,0.4,1.4,0.5,2.1c0.1,0.8,0.3,1.5,0.5,2.1c0.1,0.7,0.2,1.5,0.4,2.2c0.1,0.7,0.2,1.4,0.3,2.1
			c0.1,0.8,0.2,1.5,0.4,2.2c0.1,0.8,0.2,1.5,0.4,2.1C701.5,437.5,701.5,438.2,701.5,439z M656.2,432.1c-0.1-0.8-0.2-1.7-0.3-2.5
			c-0.1-0.8-0.3-1.6-0.5-2.4c-0.1-0.8-0.3-1.6-0.5-2.4c-0.2-0.7-0.5-1.5-0.7-2.2c-0.2-0.7-0.5-1.5-0.7-2.2c-0.2-0.7-0.5-1.5-0.7-2.2
			c-0.4-0.7-0.6-1.4-0.9-2.1c-0.3-0.7-0.7-1.3-1.1-2c-0.4-0.7-0.7-1.3-1.1-2c-0.4-0.7-0.7-1.3-1.1-2c-0.3-0.6-0.8-1.1-1.2-1.7
			c-0.3-0.7-0.8-1.3-1.2-1.8c-0.4-0.6-0.8-1.1-1.2-1.5c-0.5-0.6-0.9-1.1-1.4-1.7c-0.5-0.5-0.9-0.9-1.4-1.4c-0.5-0.5-1-0.9-1.6-1.4
			c-0.5-0.4-1-0.8-1.6-1.3c-0.5-0.4-1-0.7-1.6-1.1c-0.6-0.4-1.2-0.7-1.8-1.1c-0.5-0.3-1.1-0.6-1.8-1c-0.6-0.3-1.2-0.6-1.8-0.8
			c-0.6-0.3-1.2-0.5-1.9-0.7c-0.6-0.2-1.2-0.4-1.9-0.6c-0.6-0.2-1.2-0.4-1.9-0.6c-0.7-0.2-1.4-0.3-2.1-0.4c-0.7-0.1-1.4-0.2-2.1-0.3
			c-0.7,0-1.4,0-2.1-0.1c-0.7,0-1.4,0-2.1,0c-0.6,0.1-1.2,0.1-1.9,0.1c-0.6,0.1-1.2,0.2-1.8,0.4c-0.7,0.1-1.3,0.2-1.9,0.4
			c-0.6,0.2-1.2,0.4-1.8,0.6c-0.6,0.3-1.2,0.5-1.8,0.7c-0.6,0.3-1.1,0.6-1.6,1c-0.6,0.3-1.1,0.6-1.6,1c-0.6,0.3-1.1,0.6-1.6,1
			c-0.6,0.5-1.1,0.9-1.6,1.3c-0.5,0.5-0.9,0.9-1.4,1.3c-0.5,0.5-0.9,1-1.2,1.5c-0.5,0.5-0.9,1-1.4,1.5c-0.3,0.5-0.8,1-1.2,1.5
			c-0.4,0.6-0.7,1.1-1.1,1.7c-0.4,0.7-0.7,1.3-1.1,1.8c-0.4,0.7-0.7,1.3-1.1,1.8c-0.2,0.7-0.5,1.3-0.9,2c-0.2,0.7-0.5,1.4-0.9,2.1
			c-0.2,0.7-0.5,1.4-0.7,2.1c-0.2,0.7-0.5,1.4-0.7,2.1s-0.4,1.5-0.5,2.1c-0.2,0.8-0.4,1.5-0.5,2.2c-0.1,0.8-0.3,1.5-0.5,2.4
			c-0.1,0.8-0.2,1.5-0.2,2.2c-0.1,0.8-0.2,1.6-0.4,2.4c0,0.8-0.1,1.5-0.2,2.4c0,0.8,0,1.5,0,2.4c0,0.8,0,1.5,0,2.2
			c0,0.8,0.1,1.6,0.2,2.4c0,0.8,0.1,1.5,0.2,2.2c0.1,0.7,0.2,1.4,0.3,2.1c0.1,0.8,0.3,1.5,0.5,2.2c0.1,0.7,0.3,1.3,0.5,2
			c0.1,0.8,0.3,1.5,0.5,2.1c0.2,0.7,0.5,1.3,0.9,2c0.2,0.7,0.5,1.3,0.7,2c0.4,0.7,0.7,1.3,1.1,1.8c0.2,0.7,0.5,1.3,0.9,1.8
			c0.4,0.6,0.8,1.1,1.2,1.7c0.4,0.6,0.8,1.1,1.2,1.7c0.4,0.6,0.8,1.1,1.2,1.5c0.5,0.6,0.9,1.1,1.4,1.5c0.5,0.5,0.9,0.9,1.4,1.4
			c0.6,0.5,1.1,0.9,1.6,1.3c0.6,0.5,1.1,0.9,1.6,1.3c0.6,0.4,1.2,0.8,1.8,1.1c0.6,0.4,1.2,0.7,1.8,1c0.7,0.3,1.3,0.6,1.9,1
			c0.7,0.3,1.3,0.5,1.9,0.7c0.7,0.3,1.4,0.5,2.1,0.7c0.7,0.3,1.4,0.5,2.1,0.6c0.7,0.2,1.4,0.4,2.1,0.6c0.8,0.1,1.6,0.2,2.3,0.3
			c0.8,0.1,1.6,0.2,2.5,0.3c0.7,0,1.5,0,2.3,0c0.8,0,1.6,0,2.3,0c0.8,0,1.6,0,2.3-0.1c0.7-0.1,1.4-0.2,2.1-0.4
			c0.7-0.1,1.4-0.2,2.1-0.4c0.7-0.2,1.4-0.4,2.1-0.6c0.6-0.2,1.2-0.4,1.9-0.7c0.6-0.3,1.2-0.6,1.8-0.8c0.6-0.3,1.2-0.6,1.8-0.8
			c0.6-0.4,1.1-0.7,1.6-1.1c0.6-0.4,1.1-0.7,1.6-1.1c0.6-0.4,1.1-0.8,1.6-1.3c0.5-0.5,0.9-0.9,1.4-1.3c0.5-0.5,0.9-1,1.2-1.5
			c0.5-0.5,0.9-1,1.2-1.5c0.4-0.5,0.8-1,1.2-1.5c0.4-0.6,0.6-1.1,0.9-1.7c0.4-0.6,0.7-1.1,1.1-1.7c0.2-0.7,0.5-1.3,0.7-1.8
			c0.4-0.7,0.6-1.3,0.9-2c0.2-0.7,0.4-1.3,0.5-2c0.2-0.7,0.4-1.3,0.5-2c0.2-0.7,0.4-1.4,0.5-2.1c0.1-0.7,0.2-1.4,0.3-2.1
			c0.1-0.7,0.2-1.5,0.2-2.1c0.1-0.7,0.2-1.5,0.2-2.2c0-0.7,0-1.5,0-2.2c0-0.7,0-1.5,0-2.2c0-0.7-0.1-1.5-0.2-2.2
			C656.4,433.6,656.3,432.9,656.2,432.1z"/>
	</g>
</g>
</svg>
