<?xml version="1.0" encoding="utf-8"?>
<!-- Generator: Adobe Illustrator 18.0.0, SVG Export Plug-In . SVG Version: 6.00 Build 0)  -->
<!DOCTYPE svg PUBLIC "-//W3C//DTD SVG 1.1//EN" "http://www.w3.org/Graphics/SVG/1.1/DTD/svg11.dtd">
<svg version="1.1" id="Camada_1" xmlns="http://www.w3.org/2000/svg" xmlns:xlink="http://www.w3.org/1999/xlink" x="0px" y="0px"
	 viewBox="0 0 1024 768" enable-background="new 0 0 1024 768" xml:space="preserve">
<g>
	<defs>
		<circle id="SVGID_1_" cx="511.9" cy="383.4" r="375.7"/>
	</defs>
	<clipPath id="SVGID_2_">
		<use xlink:href="#SVGID_1_"  overflow="visible"/>
	</clipPath>
	<g clip-path="url(#SVGID_2_)" enable-background="new    ">
		
			<image overflow="visible" width="2474" height="2474" xlink:href="../../banco de imagens/botões/butt 25.png"  transform="matrix(0.3065 0 0 0.3065 132.8006 4.7999)">
		</image>
	</g>
</g>
<g>
	<g>
		<path d="M467.9,391.1c0,0,10.8-5.8,20.6-14.1c9.8-8.4,22.8-26.6,22.8-62c0.3-30.6-7-40.5-13.2-54.2c-6.2-13.7-28.1-34.3-42.1-42.3
			c-14-7.9-31.9-10.7-37.3-11.1c-5.4-0.5-25.8-2.6-40.7-2.6c-14.9,0-41.5,0.1-42.9,0.3c0,0-34.9,1.8-39.2,5.4
			c-8.9,3.5-10.7,10.5-10.7,21.2c0,0-0.2,292.9,0,293.5c0,0.6,2.3,7.2,3.7,9.2c1.5,2.1,20,2.7,20.9,2.7c1.1,0.2,34.7,1.2,34.7,1.2
			h4.5c1.4,0,38-2,36.8-2c-3.7,0,6.3-1.6,7.2-2c0.9-0.2,1.7-0.5,2.4-0.8c0.7-0.2,1.4-0.5,2.1-0.9c0.5-0.2,1.1-0.5,1.6-0.9
			c0.3-0.4,0.5-0.6,1.1-1.1c0.5-0.6,0.5-0.9,0.8-1.7c0.1-0.8,0.3-1.5,0.5-2c0.2-1,0.4-1.9,0.5-2.9c0.2-1,0,0,0.2-1
			c0.2-1.3,0.5-6.3,0.5-6.3s0-1.5,0-3.1c0-1.3-0.2-2.7,0-4.3c0-1.3-0.3-2.8-0.3-4.3c0-1.5,0.2-3.7,0-5.2c-0.4-3-0.5-2.7-0.5-4.3
			c0-1.7,0-3.3,0-4.9c0-1.7-1.2-3.4-1.2-5.1c-0.2-1.7-1.7-3.7-1.7-5.4c0-1.7-1.5-3.4-1.7-5.1c0-1.7-1.5-3.5-1.7-5.2
			c0-1.7-1.5-2.8-1.7-4.6c0-1.5,1.3-6.7,1.2-8.4c0-1.5-3.6,0.2-3.8-1.6c-0.2-1.5-0.3-3-0.3-4.6c-0.2-1.5-0.3-2.9-0.3-4.3
			c-0.2-1.3-0.3-2.7-0.3-4c-0.2-1.3-0.3-2.7-0.5-4c0-1.1-0.1-2.2-0.3-3.2c0-1.1-0.1-2.2-0.3-3.1v-2.6c-0.2-0.6-0.3-1.2-0.3-2
			c0-0.6-0.1-1-0.3-1.4V425v-0.3c1.1,1.3-15.5,2.8-14.4,4.3c1.1,1.3,8,2.8,8.9,4.3c1.1,1.3-4,2.8-3.1,4.3c0.9,1.4,1.7,2.8,2.4,4.3
			c0.9,1.3,1.7,2.7,2.6,4.3c0.7,1.3,1.4,2.8,2.1,4.3c0.7,1.3,1.4,2.8,2.1,4.3c0.7,1.5,1.3,3,1.9,4.3c0.7,1.5,1.3,3,1.8,4.3
			c0.5,1.5,1,2.9,1.6,4.3c0.5,1.5,1.1,2.9,1.6,4.3c0.3,1.5,0.8,2.9,1.3,4.3c0.3,1.3,0.8,2.7,1.3,4c0.3,1.3,0.7,2.8,1,4.3
			c0.4,1.2,0.7,2.4,1.1,3.7c0.3,1.4,0.6,2.7,0.8,4c0.4,1.3,0.7,2.6,1.1,3.7c0.2,1.3,0.4,2.6,0.8,3.7c0.2,1.1,0.4,2.3,0.5,3.4
			c0.4,1.1,0.6,2.3,0.8,3.4c0.2,1.1,0.3,2.2,0.5,3.1c0.2,1.1,0.7,4.1,0.9,5c0.2,0.9,0,0,0.2,0.9c0.2,0.9,0.4,1.9,0.5,2.9
			c0.2,0.8,0.3,1.5,0.5,2.3c0.2,0.8,0.3,1.5,0.5,2.3c0.2,0.8,0.4,1.8,0.4,1.8s0.3,1.7,0.5,2.4c0.3,0.7,0.8,2,0.9,2.6
			c0.2,0.4-0.2-0.4,0,0c0.2,0.4,0.3,0.8,0.5,1.1c0.2,0.4,0.7,1.1,0.5,0.8c-0.2-0.3,0.4,0.4,0.6,0.6c0.7,0.4,0.8,0.7,1.4,0.9
			c0.7,0.4,1.7,0.8,1.7,0.8s3.3,0.7,4.2,0.9c0.9,0.2,2.6,0.4,3.7,0.6c0.9,0.2,3.2,0.4,4.2,0.6c0,0,11.1,0.6,11.1,0.6
			c1.2,0,9.5,0.1,10.7,0.3c1.2,0.2,2.4,0.3,3.7,0.3c1.2,0,2.5,0.1,3.9,0.3h3.9c1.4,0,2.8,0.1,4.2,0.3h4.2c1.4,0,2.9-0.1,4.5-0.3h4.2
			c1.4,0,2.8-0.1,4.2-0.3h4.2c1.4-0.2,2.8-0.3,4.2-0.3c1.4-0.2,2.7-0.4,3.9-0.6c1.4,0,2.7-0.1,3.9-0.3c1.2-0.2,2.5-0.3,3.7-0.3
			c1.2-0.2,2.4-0.4,3.7-0.6c1.1-0.2,2.1-0.3,3.2-0.3c1.1-0.2,2.1-0.4,3.2-0.6c0.9-0.2,1.8-0.4,2.9-0.6c0.7-0.2,1.5-0.4,2.4-0.6
			c0.7-0.2,1.4-0.4,2.1-0.6c0.5-0.2,1.1-0.4,1.6-0.6c0.5-0.2,1-0.4,1.3-0.6c0.3-0.2,0.7-0.4,1.1-0.6c0.2-0.2,0.3-0.4,0.3-0.6
			c0.2-0.2,0.3-0.4,0.3-0.6c0.2-0.4,0.3-0.8,0.3-1.1c0.1-0.4,0.3-0.8,0.3-1.2v-1.4v-1.4V523c-0.2-0.8-0.3-1.4-0.3-2
			c0-0.8-0.1-1.4-0.3-2c-0.2-0.8-0.3-1.5-0.3-2.3c-0.2-0.9-0.3-1.8-0.5-2.6c-0.2-0.8-2.7-16-3-17.1c-0.4-1.2-5.6-26.1-6.2-27.2
			c-0.5-1.3-7.8-22.1-10.9-29.4c-3.1-7.3-12.7-24.7-19.7-32.4L467.9,391.1z"/>
		<path fill="#FFFFFF" d="M448.5,390.2c0.2,0.8,6,5.8,8.7,8.9c2.7,3.1,7.2,8.2,8,9.4c0.9,1,1.8,2.1,2.6,3.3c0.8,1,1.6,2.1,2.4,3.3
			c0.8,1.2,1.6,2.3,2.4,3.3c0.8,1.2,1.6,2.4,2.4,3.5c0.8,1.2,1.5,2.4,2.1,3.6c0.8,1,1.5,2.1,2.1,3.3c0.8,1.2,1.5,2.4,2.1,3.6
			c0.6,1.2,1.2,2.4,1.9,3.5c0.6,1.2,1.3,2.4,1.9,3.6c0.6,1.2,1.3,2.4,1.9,3.5c0.5,1.2,1,2.4,1.7,3.5c0.6,1,1.2,2.1,1.7,3.3
			c0.5,1.2,1,2.4,1.7,3.6c0.5,1.2,0.9,2.3,1.4,3.3c0.5,1.2,0.9,2.4,1.4,3.6c0.5,1,0.9,2.1,1.4,3.3c0.3,1.2,0.7,2.3,1.2,3.3
			c0.5,1,0.9,2.1,1.2,3.3c0.5,1,0.9,2,1.2,3c0.3,1,0.6,2.1,0.9,3.3c0.3,1,0.6,2,0.9,3c0.3,0.9,0.6,1.8,0.9,2.8c0.3,1,0.6,2,0.9,2.8
			c0.2,1,0.4,1.9,0.7,2.8c0.1,0.9,0.4,1.8,0.7,2.8c0.2,0.9,0.3,1.7,0.5,2.6c0.2,0.7,0.3,1.4,0.5,2.3c0.2,0.8,0.3,1.6,0.5,2.3
			c0.2,0.7,0.3,1.5,0.5,2.3c0,0.7,0.1,1.4,0.2,2c0.2,0.5,0.2,1.1,0.2,1.8c0,0.5,0.1,1.1,0.2,1.8c0,0.5,0,1,0,1.5c0,0.5,0,0.9,0,1.3
			c0,0.5,0,0.9,0,1.3c0,0.3-0.1,0.7-0.2,1c0,0.3-0.1,0.7-0.2,1c0,0.2-0.1,0.3-0.2,0.5c0,0.2-0.1,0.3-0.2,0.5
			c-0.3,0.2-0.6,0.3-0.9,0.5c-0.3,0.2-0.7,0.3-1.2,0.5c-0.5,0.2-0.9,0.3-1.4,0.5c-0.6,0.2-1.3,0.3-1.9,0.5c-0.8,0.2-1.5,0.3-2.1,0.5
			c-0.9,0.2-1.8,0.3-2.6,0.5c-1,0.2-1.9,0.3-2.8,0.5c-0.9,0-1.9,0.1-2.8,0.3c-1.1,0.2-2.2,0.3-3.3,0.5c-1.1,0-2.2,0.1-3.3,0.3
			c-1.1,0.2-2.3,0.3-3.5,0.3c-1.1,0.2-2.3,0.3-3.6,0.5c-1.2,0-2.5,0.1-3.8,0.3c-1.3,0-2.5,0-3.8,0c-1.3,0.2-2.5,0.2-3.8,0.2
			c-1.3,0-2.5,0-3.8,0c-1.4,0.2-2.8,0.3-4,0.3c-1.2,0-2.5,0-3.8,0c-1.3-0.2-2.5-0.3-3.8-0.3c-1.1,0-2.3,0-3.5,0
			c-1.3-0.2-2.4-0.2-3.5-0.2c-1.1,0-2.2-0.1-3.3-0.3c-1.1-0.2-2.2-0.3-3.3-0.3c-0.9-0.2-2-0.3-3.1-0.5c-0.9-0.2-1.8-0.3-2.6-0.5
			c-1-0.2-1.8-0.3-2.6-0.5c-0.8-0.2-1.6-0.4-2.4-0.8c-0.6-0.2-1.3-0.4-1.9-0.8c-0.5-0.2-1-0.4-1.7-0.8c-0.2-0.2-0.3-0.3-0.5-0.5
			c-0.2-0.2-0.3-0.4-0.5-0.8c-0.2-0.3-0.3-0.7-0.5-1c-0.2-0.3-0.3-0.7-0.5-1c-0.1-0.5-0.3-1-0.5-1.5c-0.2-0.5-0.2-1-0.2-1.5
			c-0.1-0.7-0.3-1.3-0.5-2c-0.2-0.7-0.3-1.4-0.5-2c-0.2-0.7-0.3-1.4-0.5-2c-0.1-0.8-0.3-1.7-0.5-2.5c-0.2-0.8-0.3-1.7-0.5-2.5
			c-0.2-0.8-0.3-1.8-0.5-2.8c-0.2-0.8-0.3-1.8-0.5-2.8c-0.2-1-0.4-2-0.7-3c-0.2-1-0.3-2-0.5-3.1c-0.3-1-0.6-2.1-0.7-3.3
			c-0.3-1-0.6-2.1-0.9-3.3c-0.2-1.2-0.4-2.4-0.7-3.5c-0.3-1.2-0.6-2.3-0.9-3.3c-0.3-1.4-0.6-2.6-0.9-3.8c-0.5-1.2-0.9-2.4-1.2-3.6
			c-0.5-1.2-0.9-2.4-1.2-3.8c-0.5-1.2-0.9-2.4-1.4-3.8c-0.5-1.2-1-2.4-1.4-3.8c-0.5-1.2-1-2.4-1.7-3.8c-0.5-1.2-1-2.4-1.7-3.8
			c-0.6-1.4-1.2-2.6-1.9-3.8c-0.6-1.4-1.3-2.6-1.9-3.8c-0.8-1.3-1.6-2.6-2.3-3.8c-0.6-1.4-1.4-2.6-2.1-3.8c-0.8-1.4-1.7-2.6-2.6-3.8
			c-0.8-1.4-1.7-2.6-2.6-3.8c-0.9-1.4-1.9-2.6-2.8-3.8v0.3c0,0.3,0,0.7,0,1c0.2,0.3,0.3,0.8,0.3,1.3c0,0.7,0.1,1.3,0.2,1.8
			c0,0.8,0,1.6,0,2.3c0.1,0.8,0.2,1.8,0.2,2.8c0.2,0.9,0.2,1.8,0.2,2.8c0.2,1.2,0.3,2.4,0.5,3.6c0,1.2,0.1,2.4,0.2,3.5
			c0,1.2,0.1,2.5,0.2,3.8c0,1.4,0.1,2.7,0.2,4.1c0.2,1.5,0.2,3,0.2,4.3c0.2,1.5,0.2,3,0.2,4.3c0.2,1.5,0.2,3.1,0.2,4.6
			c0.2,1.5,0.2,3.1,0.2,4.6c0.2,1.5,0.2,3,0.2,4.6c0,1.5,0.1,3,0.3,4.6c0,1.5,0,3.1,0,4.6c0,1.4,0,2.8,0,4.3c0,1.4,0,2.8,0,4.3
			c0,1.4,0,2.7,0,4.1s0,2.6,0,3.8c-0.2,1.4-0.3,2.6-0.3,3.8c-0.2,1.2-0.2,2.3-0.2,3.3c-0.1,1-0.3,2.1-0.5,3.3
			c-0.2,0.8-0.3,1.7-0.5,2.5s-0.3,1.7-0.5,2.5c-0.2,0.5-0.3,1.1-0.5,1.8c-0.3,0.5-0.6,1-0.7,1.5c-0.3,0.3-0.6,0.7-1,1
			c-0.5,0.3-0.9,0.6-1.4,0.8c-0.6,0.3-1.3,0.6-1.9,0.8c-0.6,0.3-1.3,0.6-2.1,0.8c-0.8,0.3-1.6,0.6-2.4,0.8c-0.9,0.2-1.9,0.3-2.8,0.5
			c-0.9,0.2-2,0.3-3.1,0.5c-1.1,0.2-2.2,0.3-3.3,0.5c-1.1,0.2-2.2,0.3-3.3,0.3c-1.3,0.2-2.5,0.3-3.8,0.5c-1.3,0-2.4,0.1-3.5,0.3
			c-1.4,0-2.7,0-4,0c-1.3,0.2-2.5,0.3-3.8,0.3c-1.4,0-2.8,0-4,0c-1.4,0-2.7,0-4,0c-1.3,0-2.6,0-4,0c-1.3,0-2.5,0-3.8,0
			c-1.2,0-2.5-0.1-3.8-0.3c-1.3,0-2.4-0.1-3.5-0.3c-1.3,0-2.4-0.1-3.5-0.2c-1.1,0-2.2-0.1-3.3-0.3c-1.1,0-2.1-0.1-3.1-0.3
			c-0.9-0.2-1.9-0.3-2.8-0.5c-0.8,0-1.7-0.1-2.6-0.3c-0.8-0.2-1.5-0.3-2.1-0.5c-0.6-0.2-1.3-0.3-1.9-0.5c-0.5-0.2-0.9-0.3-1.4-0.5
			c-0.5-0.2-0.9-0.4-1.2-0.8l-0.2-0.3c0-0.2-0.1-0.3-0.2-0.5c0-0.2-0.1-0.3-0.2-0.5c0-0.3-0.1-0.7-0.3-1c0-0.3-0.1-0.7-0.2-1
			c0-0.3-0.1-0.8-0.2-1.3c0-0.3,0-0.8,0-1.3c-0.2-0.5-0.2-1-0.2-1.5c-0.2-0.5-0.2-1.1-0.2-1.8c0-0.5-0.1-1.1-0.2-1.8
			c0-0.7-0.1-1.4-0.2-2c0-0.7,0-1.4,0-2.3c-0.2-0.7-0.2-1.4-0.2-2.3s0-1.7,0-2.5c-0.2-0.8-0.2-1.7-0.2-2.5c0-0.8-0.1-1.8-0.2-2.8
			c0-0.8,0-1.8,0-2.8c0-1-0.1-2-0.2-3.1c0-1,0-2,0-3c0-1,0-2,0-3.1c-0.2-1.2-0.2-2.4-0.2-3.5c0-1,0-2.1,0-3.3c0-1.2-0.1-2.4-0.2-3.5
			c0-1.2,0-2.4,0-3.6c0-1.4,0-2.6,0-3.8c0-1.2,0-2.4,0-3.8c0-1.3-0.1-2.6-0.2-3.8c0-1.4,0-2.7,0-4.1s0-2.7,0-4.1c0-1.4,0-2.7,0-4.1
			c0-1.4,0-2.8,0-4.3c0-1.4,0-2.7,0-4.1c0-1.5,0-3,0-4.3c0-1.5,0-3,0-4.6c0-1.4,0-2.8,0-4.3c0-1.5,0-3,0-4.3c0-1.5,0-3,0-4.6
			c0-1.5,0-3,0-4.6c0-1.5,0-3,0-4.6c0-1.5,0-3,0-4.6c0-1.5,0-3,0-4.6c0-1.5,0-3,0-4.6c0-1.5,0-3.1,0-4.8c0-1.5,0.1-3,0.2-4.6
			c0-1.5,0-3.1,0-4.6c0-1.5,0-3.1,0-4.8c0-1.5,0-3,0-4.6c0-1.5,0.1-3.1,0.2-4.6c0-1.5,0-3.1,0-4.6c0-1.7,0-3.3,0-4.8
			c0-1.5,0-3,0-4.6c0.2-1.5,0.2-3.1,0.2-4.6c0-1.5,0-3,0-4.3c0-1.5,0.1-3,0.2-4.6c0-1.5,0-3,0-4.6c0-1.4,0-2.8,0-4.3
			c0.1-1.5,0.2-3,0.2-4.3c0-1.5,0-3,0-4.3c0.2-1.5,0.2-3,0.2-4.3s0-2.8,0-4.3c0.2-1.4,0.2-2.7,0.2-4.1c0-1.4,0-2.7,0-4.1
			c0.1-1.3,0.2-2.7,0.2-4.1c0-1.2,0-2.5,0-3.8c0.2-1.2,0.2-2.4,0.2-3.8c0-1.2,0.1-2.5,0.2-3.8c0-1.2,0-2.4,0-3.6
			c0.1-1.2,0.2-2.4,0.2-3.6c0-1.2,0-2.4,0-3.6c0.2-1,0.2-2.1,0.2-3.3c0-1,0.1-2,0.2-3c0-1.2,0-2.3,0-3.3c0.2-1,0.3-1.9,0.3-2.8
			c0-1,0.1-2,0.2-3c0-0.8,0-1.8,0-2.8c0.2-0.8,0.2-1.7,0.2-2.5c0.2-0.8,0.2-1.7,0.2-2.5c0-0.7,0.1-1.4,0.2-2.3c0-0.7,0-1.4,0-2
			c0.2-0.7,0.2-1.4,0.2-2c0-0.7,0.1-1.4,0.2-2c0-0.5,0.1-1.1,0.2-1.8c0-0.5,0-1,0-1.5c0.2-0.5,0.2-0.9,0.2-1.3
			c0.2-0.5,0.2-0.9,0.2-1.3c0-0.3,0.1-0.7,0.2-1c0-0.3,0.1-0.7,0.2-1c0-0.2,0-0.3,0-0.5l0.2-0.5c0.1-0.2,0.2-0.3,0.2-0.5
			c0.2-0.2,0.4-0.3,0.7-0.5c0.3-0.3,0.5-0.6,0.7-0.8c0.3-0.2,0.6-0.3,0.9-0.5c0.3-0.2,0.6-0.3,0.9-0.5c0.3-0.2,0.6-0.3,0.9-0.5
			c0.3-0.2,0.7-0.3,1.2-0.5c0.5-0.2,0.9-0.3,1.4-0.5c0.5-0.2,0.9-0.3,1.4-0.5c0.5-0.2,1-0.3,1.7-0.3c0.5-0.2,1-0.3,1.7-0.5
			c0.6-0.2,1.3-0.3,2.1-0.3c0.6-0.2,1.3-0.2,2.1-0.2c0.8-0.2,1.6-0.3,2.4-0.3c0.9-0.2,1.8-0.2,2.6-0.2c0.9-0.2,1.9-0.3,2.8-0.3
			c1.1-0.2,2.2-0.2,3.3-0.2c1.1,0,2.2,0,3.3,0c1.3-0.2,2.5-0.3,3.8-0.3c1.3,0,2.5,0,3.8,0c1.6,0,3.1-0.1,4.5-0.3c1.4,0,2.9,0,4.5,0
			c1.7,0,3.4,0,5,0c1.7,0,3.5,0,5.2,0c1.9,0,3.8,0.1,5.7,0.3c2,0,4.1,0,6.1,0c2.2,0,4.3,0,6.4,0c2.4,0,4.6,0.1,6.8,0.3
			c1.4,0,2.8,0,4,0c1.4,0,2.7,0.1,4,0.2c1.4,0,2.7,0.1,4,0.3c1.3,0.2,2.6,0.3,4,0.5c1.2,0,2.5,0.1,3.8,0.2c1.2,0.2,2.4,0.4,3.5,0.8
			c1.3,0.2,2.5,0.3,3.8,0.5c1.3,0.2,2.4,0.4,3.5,0.8c1.2,0.2,2.4,0.4,3.5,0.8c1.1,0.3,2.3,0.6,3.5,0.8c1.1,0.3,2.2,0.7,3.3,1
			c1.1,0.3,2.2,0.7,3.3,1c1.1,0.5,2.2,0.9,3.3,1.3c0.9,0.3,2,0.8,3.1,1.3c0.9,0.3,2,0.8,3.1,1.3c0.9,0.5,2,0.9,3.1,1.3
			c0.9,0.5,1.9,1,2.8,1.5c0.9,0.5,1.9,1.1,2.8,1.8c0.9,0.5,1.8,1,2.6,1.5c0.9,0.5,1.9,1.1,2.8,1.8c0.8,0.7,1.7,1.3,2.6,1.8
			c0.8,0.7,1.6,1.4,2.3,2c0.8,0.7,1.6,1.4,2.4,2c0.8,0.7,1.5,1.4,2.3,2c0.8,0.7,1.6,1.4,2.4,2.3c0.6,0.7,1.3,1.4,2.1,2.3
			c0.6,0.7,1.4,1.4,2.1,2.3c0.6,0.8,1.3,1.7,1.9,2.5c0.6,0.8,1.3,1.7,1.9,2.5c0.6,0.8,1.3,1.7,1.9,2.5c0.5,1,1,1.9,1.7,2.8
			c0.5,1,1,2,1.7,2.8c0.5,1,0.9,2,1.4,3c0.5,1,0.9,2,1.4,3c0.5,1,0.9,2,1.4,3c0.5,1,0.9,2.1,1.2,3.3c0.5,1,0.9,2.1,1.2,3.3
			c0.3,1,0.6,2.1,0.9,3.3c0.3,1.2,0.6,2.4,0.9,3.6c0.3,1.2,0.6,2.4,0.9,3.6c0.3,1.2,0.6,2.4,0.7,3.8c0.3,1.2,0.6,2.4,0.7,3.5
			c0.2,1.4,0.3,2.7,0.5,4.1c0.2,1.2,0.3,2.5,0.5,3.8c0.2,1.4,0.3,2.7,0.5,4.1c0,1.4,0.1,2.8,0.2,4.3c0,1.2,0,2.5,0,3.8
			c0,1.2,0,2.4,0,3.8c0,1.2-0.1,2.4-0.2,3.6c-0.2,1.2-0.3,2.4-0.5,3.6c-0.2,1.2-0.3,2.4-0.5,3.6c-0.1,1.2-0.4,2.3-0.7,3.3
			c-0.2,1.2-0.4,2.3-0.7,3.3c-0.3,1.2-0.7,2.3-1.2,3.3c-0.3,1-0.6,2-0.9,3c-0.5,1-0.9,2-1.4,2.8c-0.3,1-0.7,2-1.2,3
			c-0.5,0.8-1,1.8-1.7,2.8c-0.5,0.8-1,1.7-1.7,2.5c-0.5,0.8-1,1.7-1.7,2.5c-0.6,0.8-1.3,1.7-1.9,2.5c-0.6,0.8-1.3,1.6-1.9,2.3
			c-0.8,0.8-1.5,1.6-2.1,2.3c-0.8,0.7-1.5,1.4-2.1,2.3c-0.8,0.7-1.6,1.4-2.4,2c-0.8,0.7-1.6,1.4-2.4,2c-0.8,0.5-1.6,1.1-2.3,1.8
			c-1,0.7-8.4,5.1-10.9,6.6C454.8,387.7,448.5,389.5,448.5,390.2z M418.8,318.4c0-1.9-0.1-3.7-0.2-5.6c-0.3-1.7-0.7-3.3-1.2-4.8
			c-0.3-1.5-0.8-3.1-1.4-4.6c-0.6-1.2-1.3-2.4-2.1-3.8c-0.6-1.2-1.4-2.3-2.4-3.3c-0.8-1-1.7-2-2.6-3.1c-0.9-0.8-2-1.7-3-2.5
			c-1-0.8-2-1.6-3.1-2.3c-1.1-0.5-2.2-1.1-3.3-1.8c-1.1-0.5-2.2-1-3.3-1.5c-1.1-0.3-2.2-0.7-3.3-1c-1.1-0.3-2.1-0.7-3.1-1
			c-1.1-0.2-2.1-0.4-3.1-0.8c-0.9-0.2-1.9-0.3-2.8-0.3c-0.8-0.2-1.6-0.3-2.4-0.3c-0.6-0.2-1.3-0.2-2.1-0.2c-0.5,0.2-1,0.2-1.7,0
			c-0.5,0-0.8,0.1-0.9,0.2c-0.3,0.3-0.4,0.8-0.2,1.5c0,0.5,0,1.1,0,1.8c-0.2,0.5-0.2,1.1,0,1.8c0,0.8,0,1.6,0,2.3c0,0.7,0,1.4,0,2.3
			c0.2,0.8,0.2,1.7,0.2,2.5c0,0.8,0.1,1.8,0.2,2.8c0,1,0.1,1.9,0.2,2.8c0.1,1,0.2,2,0.2,3c0.1,1.2,0.3,2.3,0.5,3.3
			c0,1.2,0.1,2.4,0.2,3.6c0.1,1.2,0.2,2.4,0.2,3.6c0.2,1.2,0.3,2.4,0.5,3.6c0,1.4,0.1,2.7,0.2,4.1c0.2,1.2,0.2,2.5,0.2,3.8
			c0.1,1.4,0.3,2.8,0.5,4.3c0,1.4,0.1,2.7,0.2,4.1c0.2,1.5,0.2,3,0.2,4.3c0.2,1.5,0.2,3,0.2,4.6c0.3,1.5,0.4,3.1,0.2,4.6
			c-0.3,1.7-0.3,3.2,0,4.6c0,0.3,0.5,0.4,1.4,0.3c0.5,0,1.1,0.1,1.9,0.3c0.6,0,1.3-0.1,2.1-0.3c0.8-0.2,1.7-0.3,2.6-0.3
			c0.9-0.2,1.9-0.4,2.8-0.8c0.9-0.2,1.9-0.4,2.8-0.8c1.1-0.3,2.1-0.7,3.1-1c1.1-0.5,2.2-1,3.3-1.5c0.9-0.5,2-1.1,3.1-1.8
			c0.9-0.5,1.9-1.2,2.8-2c1.1-0.7,2-1.4,2.8-2.3c0.9-0.8,1.8-1.8,2.6-2.8c0.8-1,1.6-2,2.4-3.1c0.6-1.2,1.3-2.4,1.9-3.6
			c0.5-1.2,0.9-2.4,1.4-3.8c0.3-1.5,0.6-3,0.7-4.3C418.7,321.5,418.8,319.9,418.8,318.4z"/>
	</g>
	<g>
		<path fill="#020202" d="M633.4,520.1c-0.2-0.8-10.7,16-40.3,15.8c-0.8,0.2-1.7,0.2-2.8,0c-0.8,0-1.6,0-2.4,0c-1,0-1.9,0-2.7,0
			c-1-0.2-1.9-0.3-2.8-0.3c-1-0.2-1.9-0.4-2.7-0.6c-0.8,0-1.7-0.1-2.7-0.3c-0.8-0.2-1.7-0.4-2.7-0.6c-0.8-0.2-1.6-0.4-2.4-0.6
			c-1-0.4-1.9-0.7-2.7-0.9c-0.8-0.2-1.7-0.5-2.7-0.9c-0.8-0.4-1.6-0.7-2.4-0.9c-0.8-0.4-1.7-0.8-2.7-1.2c-0.8-0.4-1.6-0.8-2.4-1.2
			c-0.8-0.4-1.6-0.8-2.4-1.2c-0.8-0.4-1.6-0.8-2.4-1.2c-0.8-0.6-1.6-1.1-2.4-1.5c-0.8-0.6-1.6-1.1-2.4-1.5c-0.8-0.6-1.6-1.2-2.4-1.8
			c-0.8-0.4-1.6-0.9-2.4-1.5c-0.8-0.6-1.5-1.2-2.1-1.8c-0.8-0.6-1.6-1.2-2.4-1.8c-0.6-0.8-1.3-1.5-2.1-2.1c-0.8-0.6-1.5-1.3-2.1-2.1
			c-0.6-0.6-1.3-1.3-2.1-2.1c-0.6-0.8-1.3-1.6-2.1-2.4c-0.6-0.6-1.2-1.3-1.8-2.1c-0.6-0.8-1.2-1.6-1.8-2.4c-0.6-0.8-1.2-1.7-1.8-2.7
			c-0.6-0.8-1.2-1.6-1.8-2.4c-0.6-1-1.2-1.9-1.8-2.7c-0.4-1-0.9-1.9-1.5-2.7c-0.6-1-1.1-2-1.5-3c-0.6-0.8-1.1-1.7-1.5-2.7
			c-0.4-1-0.9-2-1.5-3.1c-0.4-1-0.8-2-1.2-3c-0.4-1.2-0.8-2.3-1.2-3.3c-0.4-1-0.8-2.1-1.2-3.3c-0.4-1-0.7-2.1-0.9-3.3
			c-0.4-1-0.8-2.1-1.2-3.3c-0.2-1.2-0.4-2.3-0.6-3.3c-0.4-1.2-0.7-2.4-0.9-3.6c-0.2-1.2-0.4-2.4-0.6-3.7c-0.2-1.2-0.4-2.4-0.6-3.6
			c-0.2-1.4-0.4-2.7-0.6-4c0-1.2-0.1-2.5-0.3-4c0-1.2-0.1-2.5-0.3-3.9c0-1.2,0-2.5,0-4c0-1.4,0-2.7,0-4c0-1.4,0-2.8,0-4.3
			c0-1.4,0.1-2.8,0.3-4.3c0-1.4,0.1-2.8,0.3-4.2c0-1.6,0.1-3.1,0.3-4.6c0.2-1.4,0.4-2.8,0.6-4.2c0.2-1.6,0.4-3.1,0.6-4.6
			c0.4-1.8,0.8-3.5,1.2-5.2c0.2-1.6,0.5-3.2,0.9-4.9c0.4-1.6,0.8-3.1,1.2-4.6c0.4-1.6,0.9-3.1,1.5-4.6c0.4-1.6,0.9-3.1,1.5-4.6
			c0.4-1.4,0.9-2.8,1.5-4.3c0.6-1.4,1.2-2.7,1.8-4c0.6-1.4,1.2-2.7,1.8-3.9c0.6-1.4,1.3-2.7,2.1-4c0.6-1.2,1.3-2.4,2.1-3.6
			c13.9-21.3,39.3-42.8,73.7-44.7c34.4-1.9,47.5,15.5,47.7,14.7c0.8-1.6-1.1-10.2,4.1-13.3c5.3-3.1,82.1-3,81.2,5l0.3,0.3
			c0,0.4,0,0.7,0,0.9c0,0.4,0,0.8,0,1.2c0,0.6,0,1.2,0,1.8c0,0.6,0,1.2,0,1.8c0,0.8,0,1.5,0,2.1c0,1,0,1.9,0,2.7
			c0,1-0.1,1.9-0.3,2.7c0,1.2,0,2.3,0,3.3c-0.2,1.2-0.3,2.3-0.3,3.3c0,1.4-0.1,2.7-0.3,4c0,1.2,0,2.5,0,3.9
			c-0.2,1.4-0.3,2.9-0.3,4.3c0,1.6-0.1,3.1-0.3,4.6c0,1.6,0,3.2,0,4.9c-0.2,1.6-0.3,3.2-0.3,4.9c0,1.8-0.1,3.7-0.3,5.5
			c0,1.8,0,3.6,0,5.2c-0.2,2-0.3,4-0.3,5.8c0,2,0,3.9,0,5.8c0,2-0.1,4.1-0.3,6.1c0,2,0,4.1,0,6.1c0,2.2,0,4.4,0,6.4c0,2.4,0,4.8,0,7
			c0,2.2,0,4.5,0,6.7c0.2,2.2,0.3,4.4,0.3,6.4c0,2.2,0,4.4,0,6.4c0,2,0.1,4.1,0.3,6.1c0,2,0,4.1,0,6.1c0.2,2,0.3,3.9,0.3,5.8
			c0,1.8,0.1,3.8,0.3,5.8c0,1.8,0.1,3.6,0.3,5.2c0,1.8,0,3.6,0,5.5c0.2,1.6,0.3,3.2,0.3,4.9c0.2,1.6,0.3,3.2,0.3,4.9
			c0.2,1.6,0.3,3.1,0.3,4.6c0.2,1.6,0.3,3.1,0.3,4.6c0.2,1.4,0.3,2.8,0.3,4.3c0.2,1.2,0.3,2.5,0.3,4c0,1.2,0.1,2.4,0.3,3.6
			c0,1.2,0.1,2.4,0.3,3.7c0,1.2,0,2.3,0,3.3c0.2,1,0.3,2.1,0.3,3.3c0,0.8,0.1,1.7,0.3,2.7c0,1,0,1.9,0,2.7c0,0.8,0.1,1.6,0.3,2.4
			c0,0.8,0,1.6,0,2.4c0,0.6,0,1.2,0,1.8c0,0.6,0,1.2,0,1.8c0,0.6,0,1.1,0,1.5c0,0.4,0,0.9,0,1.5c0,0.2-0.1,0.5-0.3,0.9
			c0,0.4,0,0.7,0,0.9c-0.2,0.2-0.3,0.4-0.3,0.6c0,0.2-0.1,0.3-0.3,0.3c-0.4,0.2-0.8,0.4-1.2,0.6c-0.8,0.2-1.5,0.3-2.1,0.3
			c-1,0.2-2,0.4-3.1,0.6c-1,0-6.1,0.3-7.3,0.3c-1.6,0.2-3.1,0.3-4.6,0.3c-1.6,0-3.3,0-4.9,0c-1.6,0-8.5,0-10.3,0c-1.8,0-3.6,0-5.5,0
			c-1.8,0-8.8-0.1-10.6-0.3c-1.8,0-17.7-0.9-19.2-0.9c-1.2-0.2-9.1-1.2-9.1-1.2C637.1,532.4,633.8,521.5,633.4,520.1z"/>
		<path fill="#FFFFFF" d="M644.2,493.3c-0.2-0.7-0.7,0.1-1.5,2.3c-0.3,0.7-0.9,1.3-1.8,2c-0.7,0.5-1.3,1.1-1.8,1.8
			c-0.5,0.7-1.1,1.3-1.8,1.8c-0.7,0.7-1.3,1.3-1.8,1.8c-0.7,0.7-1.4,1.3-2,1.8c-0.7,0.5-1.3,1-1.8,1.5c-0.7,0.5-1.4,1-2,1.5
			c-0.7,0.3-1.3,0.8-2,1.3c-0.7,0.5-1.4,0.9-2,1.3c-0.7,0.3-1.4,0.7-2,1.3c-0.7,0.3-1.3,0.7-2,1c-0.7,0.3-1.4,0.7-2.3,1
			c-0.7,0.3-1.3,0.6-2,0.8c-0.7,0.3-1.4,0.7-2.3,1c-0.7,0.2-1.4,0.3-2,0.5c-0.7,0.3-1.4,0.6-2.3,0.8c-0.7,0.2-1.4,0.3-2.3,0.5
			c-0.7,0.2-1.4,0.3-2,0.5c-0.8,0.2-1.6,0.3-2.3,0.3c-0.7,0.2-1.4,0.2-2.3,0.2c-0.7,0.2-1.4,0.3-2.3,0.3c-0.7,0-1.4,0-2.3,0
			c-0.7,0.2-1.4,0.2-2.3,0c-0.7,0-1.4,0-2,0c-0.9,0-1.6,0-2.3,0c-0.8-0.2-1.6-0.3-2.3-0.3c-0.8-0.2-1.6-0.3-2.3-0.5
			c-0.7,0-1.4-0.1-2.3-0.2c-0.7-0.2-1.4-0.3-2.3-0.5c-0.7-0.2-1.4-0.3-2-0.5c-0.8-0.3-1.6-0.6-2.3-0.8c-0.7-0.2-1.4-0.4-2.3-0.8
			c-0.7-0.3-1.4-0.6-2-0.8c-0.7-0.3-1.4-0.7-2.3-1c-0.7-0.3-1.3-0.7-2-1s-1.4-0.7-2-1c-0.7-0.3-1.4-0.7-2-1c-0.7-0.5-1.3-0.9-2-1.3
			c-0.7-0.5-1.4-0.9-2-1.3c-0.7-0.5-1.4-1-2-1.5c-0.7-0.3-1.3-0.8-2-1.3c-0.7-0.5-1.3-1-1.8-1.5c-0.7-0.5-1.4-1-2-1.5
			c-0.5-0.7-1.1-1.3-1.8-1.8c-0.7-0.5-1.3-1.1-1.8-1.8c-0.5-0.5-1.1-1.1-1.8-1.8c-0.5-0.7-1.1-1.3-1.8-2c-0.5-0.5-1-1.1-1.5-1.8
			c-0.5-0.7-1-1.3-1.5-2c-0.5-0.7-1-1.4-1.5-2.3c-0.5-0.7-1-1.3-1.5-2c-0.5-0.8-1-1.6-1.5-2.3c-0.3-0.8-0.8-1.6-1.3-2.3
			c-0.5-0.8-0.9-1.7-1.3-2.5c-0.5-0.7-0.9-1.4-1.3-2.3c-0.3-0.8-0.8-1.7-1.3-2.5c-0.3-0.8-0.7-1.7-1-2.5c-0.3-1-0.7-1.9-1-2.8
			c-0.3-0.8-0.7-1.8-1-2.8c-0.3-0.8-0.6-1.8-0.8-2.8c-0.3-0.8-0.7-1.8-1-2.8c-0.2-1-0.3-1.9-0.5-2.8c-0.3-1-0.6-2-0.8-3
			c-0.2-1-0.3-2-0.5-3c-0.2-1-0.3-2-0.5-3c-0.2-1.2-0.3-2.3-0.5-3.3c0-1-0.1-2.1-0.3-3.3c0-1-0.1-2.1-0.2-3.3c0-1,0-2.1,0-3.3
			c0-1.2,0-2.3,0-3.3c0-1.2,0-2.3,0-3.5c0-1.2,0.1-2.3,0.2-3.5c0-1.2,0.1-2.4,0.3-3.5c0-1.3,0.1-2.6,0.2-3.8
			c0.2-1.2,0.3-2.3,0.5-3.5c0.2-1.3,0.3-2.6,0.5-3.8c0.3-1.5,0.7-2.9,1-4.3c0.2-1.3,0.4-2.7,0.8-4c0.3-1.3,0.7-2.6,1-3.8
			c0.3-1.3,0.8-2.6,1.3-3.8c0.3-1.3,0.8-2.6,1.3-3.8c0.3-1.2,0.8-2.4,1.3-3.5c0.5-1.2,1-2.3,1.5-3.3c0.5-1.2,1-2.3,1.5-3.3
			c0.5-1.2,1.1-2.3,1.8-3.3c0.5-1,1.1-2,1.8-3c0.5-1,1.1-1.9,1.8-2.8c0.7-1,1.4-1.9,2-2.8c0.7-1,1.4-1.9,2-2.8
			c0.7-0.8,1.3-1.7,2-2.5c0.7-0.8,1.3-1.7,2-2.5c0.8-0.7,1.6-1.4,2.3-2.3c0.8-0.7,1.6-1.3,2.3-2c0.8-0.7,1.7-1.3,2.5-2
			c0.7-0.7,1.4-1.3,2.3-2c0.8-0.7,1.7-1.3,2.5-1.8c0.8-0.7,1.7-1.3,2.5-1.8c0.8-0.5,1.7-1,2.5-1.5c0.8-0.5,1.7-1,2.5-1.5
			c1-0.5,1.9-0.9,2.8-1.3c0.8-0.5,1.8-0.9,2.8-1.3c0.8-0.3,1.7-0.8,2.5-1.3c1-0.3,1.9-0.7,2.8-1c1-0.2,1.9-0.4,2.8-0.8
			c1-0.3,1.9-0.6,2.8-0.8c1-0.3,1.9-0.6,2.8-0.7c1-0.2,1.9-0.3,2.8-0.5c1-0.2,1.9-0.3,2.8-0.5c1-0.2,2-0.2,3-0.2
			c0.8-0.2,1.8-0.3,2.8-0.3c0.8-0.2,1.8-0.2,2.8-0.2c1,0,1.9,0,2.8,0c1,0,1.9,0,2.8,0c1,0,1.9,0.1,2.8,0.2c1,0,1.9,0.1,2.8,0.3
			c1,0,1.9,0.1,2.8,0.2c1,0.2,1.9,0.3,2.8,0.5c0.8,0.2,1.8,0.3,2.8,0.5c0.8,0.3,1.7,0.6,2.5,0.7c1,0.2,1.9,0.4,2.8,0.8
			c0.8,0.3,1.7,0.7,2.5,1c0.8,0.2,1.7,0.4,2.5,0.8c0.8,0.3,1.7,0.7,2.5,1c0.8,0.5,1.7,0.9,2.5,1.3c0.7,0.3,1.4,0.8,2.3,1.3
			c0.8,0.5,1.6,0.9,2.3,1.3c0.8,0.5,1.6,1,2.3,1.5c0.8,0.5,1.6,1,2.3,1.5c1,0.3,1.7,0.8,2,1.5c1.2,1.9,1.8,2.4,2,1.8
			c0.7-1.3,0.9-3.1,0.8-5.3c-0.2-1.5,0-3,0.5-4.5c0.3-1,0.6-2.1,0.7-3.3c0-0.7,0.3-1.2,0.8-1.5c0.2-0.2,0.5-0.3,1-0.5
			c0.5-0.2,1.1-0.3,1.8-0.3c0.8-0.2,1.7-0.2,2.5-0.2c1-0.2,2-0.3,3-0.3c1.2,0,2.3,0,3.5,0c1.3,0,2.7,0,4,0c1.3,0,2.8,0,4.3,0
			c1.4,0,2.8,0,4.3,0c1.5,0,3,0.1,4.5,0.3c1.5,0,3.1,0.1,4.8,0.2c1.3,0,2.8,0.1,4.3,0.3s2.9,0.3,4.3,0.5c1.3,0.2,2.7,0.3,4,0.5
			c1.2,0.2,2.4,0.3,3.5,0.5c1,0.2,2,0.3,3,0.5c0.8,0.2,1.7,0.4,2.5,0.8c0.7,0.2,1.3,0.3,1.8,0.5c0.3,0.3,0.7,0.7,1,1l0.2,0.2
			c0,0.3,0,0.6,0,0.8c0,0.3,0,0.7,0,1c0,0.5,0,1,0,1.5c0,0.5,0,1,0,1.5c0,0.7,0,1.3,0,1.8c0,0.8,0,1.6,0,2.3c0,0.9-0.1,1.6-0.2,2.3
			c0,1,0,1.9,0,2.8c-0.2,1-0.2,1.9-0.2,2.8c0,1.2-0.1,2.3-0.3,3.3c0,1,0,2.1,0,3.3c-0.2,1.2-0.2,2.4-0.2,3.5c0,1.4-0.1,2.6-0.2,3.8
			c0,1.3,0,2.7,0,4c-0.2,1.3-0.3,2.7-0.3,4c0,1.5-0.1,3-0.2,4.5c0,1.5,0,2.9,0,4.3c-0.2,1.7-0.2,3.3-0.2,4.8c0,1.7,0,3.3,0,4.8
			c0,1.7-0.1,3.4-0.2,5c0,1.7,0,3.4,0,5c0,1.9,0,3.6,0,5.3c0,2,0,3.9,0,5.8c0,1.8,0,3.7,0,5.5c0.2,1.9,0.2,3.6,0.2,5.3
			c0,1.8,0,3.6,0,5.3c0,1.7,0.1,3.4,0.2,5c0,1.7,0,3.4,0,5c0.2,1.7,0.2,3.3,0.2,4.8c0,1.5,0.1,3.1,0.3,4.8c0,1.5,0.1,2.9,0.2,4.3
			c0,1.5,0,3,0,4.5c0.2,1.3,0.2,2.7,0.2,4c0.2,1.3,0.3,2.7,0.3,4c0.2,1.4,0.2,2.6,0.2,3.8c0.2,1.3,0.2,2.6,0.2,3.8
			c0.2,1.2,0.2,2.4,0.2,3.5c0.2,1,0.3,2.1,0.3,3.3c0,1,0.1,2,0.2,3c0,1,0.1,2,0.2,3c0,1,0,1.9,0,2.8c0.2,0.8,0.3,1.8,0.3,2.8
			c0,0.7,0.1,1.4,0.2,2.3c0,0.8,0,1.6,0,2.3c0,0.7,0.1,1.3,0.2,2c0,0.7,0,1.3,0,2c0,0.5,0,1,0,1.5c0,0.5,0,1,0,1.5
			c0,0.5,0,0.9,0,1.3s0,0.8,0,1.3c0,0.2-0.1,0.4-0.2,0.8c0,0.3,0,0.6,0,0.8c-0.2,0.2-0.2,0.3-0.2,0.5c0,0.2-0.1,0.3-0.3,0.3
			c-0.3,0.2-0.7,0.3-1,0.5c-0.7,0.2-1.3,0.3-1.8,0.3c-0.8,0.2-1.7,0.3-2.5,0.5c-0.8,0-1.8,0.1-2.8,0.2c-1.2,0-2.3,0-3.3,0
			c-1.3,0.2-2.6,0.3-3.8,0.3c-1.4,0-2.7,0-4,0c-1.3,0-2.8,0-4.3,0c-1.4,0-2.8,0-4.3,0c-1.5,0-3,0-4.6,0c-1.5,0-3,0-4.5,0
			c-1.3,0-2.8-0.1-4.3-0.3c-1.5,0-2.9-0.1-4.3-0.2c-1.5,0-2.9,0-4.3,0c-1.2-0.2-2.4-0.3-3.8-0.3c-1.2-0.2-2.4-0.2-3.5-0.2
			c-1-0.2-2-0.3-3-0.3c-0.8-0.2-1.7-0.3-2.5-0.5c-0.7,0-1.4-0.1-2-0.3c-0.5-0.2-1-0.2-1.5-0.2c-0.3-0.2-0.6-0.3-0.8-0.5
			c-0.5-0.5-0.8-1.1-1-1.8c-0.3-0.7-0.6-1.3-0.8-2c-0.3-1-0.5-1.9-0.5-2.8c-0.2-1.2-0.2-2.3-0.2-3.3c0.2-1.2,0.2-2.4,0.2-3.8
			c-0.3-1.3-0.3-2.7,0-4C644.5,496,644.6,494.5,644.2,493.3z M620.3,396.3c-1-0.2-2.1-0.2-3.3-0.2c-1.2,0-2.3,0-3.3,0
			c-1.2,0.2-2.3,0.4-3.3,0.7c-1,0.3-2,0.7-3,1c-1,0.5-1.9,1.1-2.8,1.8c-1,0.5-1.9,1.1-2.8,1.8c-0.8,0.7-1.6,1.4-2.3,2.3
			c-0.8,0.8-1.6,1.7-2.3,2.5c-0.7,0.8-1.4,1.8-2,2.8c-0.5,0.8-1,1.8-1.5,2.8c-0.5,1.2-1,2.3-1.5,3.3c-0.3,1-0.7,2.1-1,3.3
			c-0.2,1-0.3,2.1-0.5,3.3c-0.2,1.2-0.3,2.3-0.3,3.5c0,1,0,2.1,0,3.3c0.2,1.2,0.4,2.3,0.8,3.3c0.3,1,0.7,2,1,3
			c0.3,1.2,0.8,2.2,1.3,3c0.7,1,1.3,1.9,1.8,2.8c0.7,1,1.3,1.9,2,2.8c0.7,0.9,1.4,1.6,2.3,2.3c0.8,0.7,1.7,1.3,2.5,2
			c0.8,0.7,1.7,1.3,2.5,1.8c0.8,0.7,1.8,1.2,2.8,1.5c1,0.3,1.9,0.7,2.8,1c1,0.3,2,0.6,3,0.8c1,0.2,2,0.2,3,0.2c1,0,2-0.1,3-0.2
			c1.2-0.2,2.4-0.4,3.5-0.8c1.2-0.3,2.4-0.8,3.5-1.3c1.2-0.3,2.3-0.8,3.3-1.3c1-0.7,2-1.3,3-2c1-0.5,1.9-1.2,2.8-2
			c0.8-0.7,1.7-1.4,2.5-2.3c0.8-0.8,1.6-1.8,2.3-2.8c0.7-0.8,1.3-1.8,1.8-2.8c0.5-1,1-2,1.5-3c0.5-1.2,0.9-2.3,1.3-3.3
			c0.2-1.2,0.3-2.4,0.5-3.5c0.2-1.2,0.3-2.4,0.5-3.5c0-1.3-0.1-2.6-0.2-3.8c-0.2-1.2-0.3-2.3-0.5-3.3c-0.3-1.2-0.7-2.3-1-3.3
			c-0.5-1-1-2-1.5-3c-0.5-0.8-1.1-1.8-1.8-2.8c-0.7-0.8-1.4-1.6-2.3-2.3c-0.7-0.8-1.4-1.6-2.3-2.3c-1-0.8-1.9-1.5-2.8-2
			c-1-0.7-2-1.3-3-1.8c-1-0.5-2.1-1-3.3-1.5c-1-0.3-2.1-0.7-3.3-1C622.6,396.7,621.5,396.4,620.3,396.3z"/>
	</g>
</g>
</svg>
