<?xml version="1.0" encoding="utf-8"?>
<!-- Generator: Adobe Illustrator 18.0.0, SVG Export Plug-In . SVG Version: 6.00 Build 0)  -->
<!DOCTYPE svg PUBLIC "-//W3C//DTD SVG 1.1//EN" "http://www.w3.org/Graphics/SVG/1.1/DTD/svg11.dtd">
<svg version="1.1" id="Camada_1" xmlns="http://www.w3.org/2000/svg" xmlns:xlink="http://www.w3.org/1999/xlink" x="0px" y="0px"
	 viewBox="0 0 1024 768" enable-background="new 0 0 1024 768" xml:space="preserve">
<g>
	<path fill="#EBAC29" d="M512,9.6c-206.4,0-374.4,168-374.4,374.4s168,374.4,374.4,374.4s374.4-168,374.4-374.4S718.4,9.6,512,9.6z"
		/>
	<path fill="#FFE388" d="M512,28.8c-196.8,0-355.2,158.4-355.2,355.2S315.2,739.2,512,739.2S867.2,580.8,867.2,384
		S708.8,28.8,512,28.8z"/>
	<path fill="#FFEDBB" d="M531.2,720c-192,0-340.8-153.6-340.8-345.6c0-4.8,0-9.6,0-14.4c-4.8,19.2-4.8,38.4-4.8,57.6
		c0,172.8,139.2,312,312,312c28.8,0,57.6-4.8,81.6-9.6C564.8,720,550.4,720,531.2,720z"/>
	<ellipse fill="#FFEDBB" cx="512" cy="254.4" rx="288" ry="211.2"/>
	<g>
		<path fill="#EBAC29" d="M531.2,206.4l-105.6,91.2c0,0-91.2,0-100.8,0c-9.6,0-14.4,9.6-14.4,14.4v139.2c0,4.8,4.8,9.6,14.4,9.6
			h105.6l105.6,96c9.6,9.6,28.8,4.8,28.8-14.4c0,0,0-312,0-331.2C564.8,201.6,540.8,196.8,531.2,206.4z"/>
		<path fill="#EBAC29" d="M619,307.2c0,0-11.3-16-25.8-6.7c-9.3,9.3-4.4,16.3-4.4,21.1c24,38.4,14.4,91.2,0,120
			c0,0-11.9,17.1-1.2,25.2c10.7,8.1,20.7-1.2,26.6-9.4C638.9,418.7,647.8,340.8,619,307.2z"/>
		<path fill="#EBAC29" d="M675.2,254.4c0,0-18.3-22.7-31.6-9.3c-12,12,2.8,28.5,2.8,28.5c43.2,52.8,28.8,177.6,0,216
			c0,0-9.2,18.7,0.7,26.7c9.9,5.6,19.3-3.4,25.3-10.3C720.4,448.4,718.4,312,675.2,254.4z"/>
	</g>
</g>
</svg>
