<?xml version="1.0" encoding="utf-8"?>
<!-- Generator: Adobe Illustrator 18.0.0, SVG Export Plug-In . SVG Version: 6.00 Build 0)  -->
<!DOCTYPE svg PUBLIC "-//W3C//DTD SVG 1.1//EN" "http://www.w3.org/Graphics/SVG/1.1/DTD/svg11.dtd">
<svg version="1.1" id="Camada_1" xmlns="http://www.w3.org/2000/svg" xmlns:xlink="http://www.w3.org/1999/xlink" x="0px" y="0px"
	 viewBox="0 0 1024 768" enable-background="new 0 0 1024 768" xml:space="preserve">
<g>
	<defs>
		<circle id="SVGID_1_" cx="511.9" cy="383.4" r="375.7"/>
	</defs>
	<clipPath id="SVGID_2_">
		<use xlink:href="#SVGID_1_"  overflow="visible"/>
	</clipPath>
	<g clip-path="url(#SVGID_2_)" enable-background="new    ">
		
			<image overflow="visible" width="2474" height="2474" xlink:href="../../banco de imagens/botões/butt 25.png"  transform="matrix(0.3065 0 0 0.3065 132.8006 4.7999)">
		</image>
	</g>
</g>
<g>
	<g>
		<path d="M399.9,225.6c4,16.4,21.5,89.2,21.5,89.2s16.2-77,20.6-90.8c4.4-13.8,96.9-15.2,117.3,0.8l0.3,0.3c0,0.2,0,0.6,0,0.6
			s0,0.4,0,0.6c0,0.2,0,0.5,0,0.8c0,0.4-0.1,0.6-0.3,0.8c0,0.6,0,1,0,1.4c0,0.4-0.1,0.8-0.3,1.4c0,0.6,0,1,0,1.4
			c-0.2,0.6-0.3,1.1-0.3,1.7c-0.2,0.7-0.4,1.4-0.6,1.9c0,0.7-0.1,1.5-0.3,2.2c0,0.7-0.1,1.4-0.3,1.9c-0.2,0.9-0.4,1.8-0.6,2.5
			c-0.2,0.7-0.3,1.6-0.3,2.5c-0.2,0.9-0.4,1.8-0.6,2.5c-0.2,0.9-0.4,1.8-0.6,2.8c-0.2,1.1-0.4,2.1-0.6,3c-0.4,0.9-0.7,1.9-0.9,3
			c-0.2,0.9-0.4,1.9-0.6,3c-0.2,1.1-0.4,2.2-0.6,3.3c-0.4,1.1-0.7,2.2-0.9,3.3c-0.2,1.3-0.5,2.5-0.9,3.6c-0.2,1.1-0.5,2.3-0.9,3.6
			c-0.2,1.3-0.4,2.5-0.6,3.6c-0.4,1.3-0.7,2.6-0.9,3.9c-0.4,1.3-0.8,2.6-1.2,3.9c-0.2,1.5-0.5,2.9-0.9,4.2c-0.2,1.3-0.5,2.7-0.9,4.2
			c-0.4,1.3-0.7,2.7-0.9,4.2c-0.4,1.3-0.8,2.7-1.2,4.2c-0.4,1.5-0.7,3-0.9,4.4c-0.4,1.5-0.8,3-1.2,4.4c-0.4,1.5-0.8,3-1.2,4.4
			c-0.4,1.5-0.8,3-1.2,4.4c-0.2,1.5-0.5,3-0.9,4.7c-0.4,1.5-0.8,3-1.2,4.4c-0.4,1.7-0.8,3.2-1.2,4.7c-0.4,1.7-0.8,3.2-1.2,4.7
			c-0.4,1.7-0.8,3.3-1.2,5c-0.4,1.5-0.8,3-1.2,4.7c-0.4,1.7-0.8,3.2-1.2,4.7c-0.4,1.7-0.8,3.3-1.2,5c-0.6,1.7-1.1,3.3-1.5,5
			c-0.4,1.7-0.8,3.2-1.2,4.7c-0.4,1.7-0.8,3.3-1.2,5c-0.4,1.7-0.8,3.3-1.2,5c-0.6,1.7-1.1,3.3-1.5,5c-0.4,1.7-0.8,3.3-1.2,5
			c-0.4,1.7-0.8,3.3-1.2,5c-0.4,1.7-0.9,3.2-1.5,4.7c-0.4,1.7-0.8,3.3-1.2,5c-0.4,1.7-0.8,3.3-1.2,5c-0.4,1.7-0.8,3.3-1.2,5
			c-0.6,1.5-1.1,3-1.5,4.7c-0.4,1.7-0.8,3.3-1.2,5c-0.4,1.5-0.8,3-1.2,4.7c-0.4,1.7-0.9,3.2-1.5,4.7c-0.4,1.7-0.8,3.3-1.2,5
			c-0.4,1.5-0.8,3-1.2,4.4c-0.4,1.7-0.8,3.2-1.2,4.7c-0.4,1.7-0.8,3.2-1.2,4.7c-0.4,1.5-0.8,3-1.2,4.4c-0.4,1.5-0.8,3-1.2,4.4
			c-0.4,1.5-0.8,3-1.2,4.4c-0.4,1.5-0.8,3-1.2,4.4c-0.4,1.5-0.8,2.9-1.2,4.2c-0.4,1.5-0.8,3-1.2,4.4c-0.4,1.3-0.8,2.6-1.2,3.9
			c-0.4,1.5-0.8,2.9-1.2,4.2c-0.2,1.3-0.5,2.6-0.9,3.9c-0.4,1.3-0.8,2.6-1.2,3.9c-0.4,1.3-0.7,2.5-0.9,3.6c-0.4,1.3-0.8,2.5-1.2,3.6
			c-0.2,1.3-0.5,2.5-0.9,3.6c-0.4,1.1-0.7,2.2-0.9,3.3c-0.4,1.1-0.8,2.2-1.2,3.3c-0.2,1.1-0.5,2.2-0.9,3.3c-0.2,0.9-0.5,1.9-0.9,3
			c-0.2,0.9-0.4,1.8-0.6,2.8c-0.4,0.9-0.7,1.8-0.9,2.8c-0.2,0.9-0.5,1.8-0.9,2.8c-0.2,0.9-0.4,1.8-0.6,2.5c-0.4,0.7-0.7,1.6-0.9,2.5
			c-0.2,0.7-0.4,1.5-0.6,2.2c-0.2,0.6-0.4,1.2-0.6,1.9c-0.2,0.6-0.4,1.2-0.6,1.9c-0.2,0.6-0.4,1.1-0.6,1.7c-0.2,0.6-0.4,1.1-0.6,1.7
			c-0.2,0.4-0.4,0.8-0.6,1.4c0,0.4-0.1,0.7-0.3,1.1c-0.2,0.4-0.3,0.7-0.3,1.1c-0.2,0.2-0.4,0.5-0.6,0.8c0,0.2-0.1,0.4-0.3,0.6
			c0,0.2,0,0.4,0,0.6l-0.3,0.3c-0.4,0.2-0.7,0.4-0.9,0.6c-0.6,0.2-1.2,0.4-1.8,0.6c-0.6,0.2-1.3,0.4-2.1,0.6c-1,0.2-1.9,0.3-2.7,0.3
			c-1.2,0.2-2.3,0.4-3.3,0.6c-1.2,0-2.4,0.1-3.7,0.3c-1.4,0-2.8,0.1-4.3,0.3c-1.4,0-2.8,0.1-4.3,0.3c-1.6,0-3.2,0.1-4.9,0.3
			c-1.6,0-3.2,0-4.9,0c-1.8,0-3.6,0.1-5.2,0.3c-1.8,0-3.7,0-5.5,0c-1.8,0-3.7,0-5.5,0c-1.8,0-3.7,0-5.5,0c-1.8,0-3.7,0-5.5,0
			c-1.8,0-3.7,0-5.5,0c-1.8,0-3.7,0-5.5,0c-1.6-0.2-3.3-0.3-5.2-0.3c-1.6,0-3.2,0-4.9,0c-1.6-0.2-3.3-0.3-4.9-0.3
			c-1.6,0-3.2-0.1-4.6-0.3c-1.4,0-2.8-0.1-4.3-0.3c-1.2,0-2.4,0-3.7,0c-1-0.2-2.1-0.4-3.4-0.6c-1,0-1.9-0.1-2.7-0.3
			c-0.8,0-1.6-0.1-2.4-0.3c-0.6,0-1.2-0.1-1.8-0.3c-0.2-0.2-0.5-0.4-0.9-0.6h-0.3c-0.2-0.2-0.3-0.4-0.3-0.6
			c-0.2-0.2-0.3-0.4-0.3-0.6c-0.2-0.4-0.3-0.6-0.3-0.8c-0.2-0.4-0.4-0.7-0.6-1.1c-0.2-0.4-0.4-0.7-0.6-1.1c0-0.4-0.1-0.8-0.3-1.4
			c-0.2-0.4-0.4-0.8-0.6-1.4c-0.2-0.6-0.4-1.1-0.6-1.7c-0.2-0.7-0.5-1.4-0.9-1.9c-0.2-0.7-0.4-1.4-0.6-1.9c-0.2-0.7-0.4-1.5-0.6-2.2
			c-0.4-0.7-0.7-1.5-0.9-2.2c-0.2-0.9-0.5-1.8-0.9-2.5c-0.2-0.9-0.4-1.8-0.6-2.8c-0.4-0.9-0.7-1.8-0.9-2.8c-0.4-0.9-0.7-1.8-0.9-2.8
			c-0.4-1.1-0.8-2.1-1.2-3c-0.2-1.1-0.5-2.1-0.9-3c-0.4-1.1-0.7-2.2-0.9-3.3c-0.4-1.1-0.8-2.2-1.2-3.3c-0.2-1.3-0.5-2.5-0.9-3.6
			c-0.4-1.3-0.8-2.5-1.2-3.6c-0.4-1.3-0.7-2.5-0.9-3.6c-0.4-1.3-0.8-2.6-1.2-3.9c-0.4-1.3-0.8-2.6-1.2-3.9c-0.4-1.5-0.8-2.9-1.2-4.2
			c-0.4-1.3-0.8-2.7-1.2-4.2c-0.4-1.3-0.8-2.7-1.2-4.2c-0.4-1.3-0.8-2.7-1.2-4.2c-0.4-1.5-0.8-3-1.2-4.4c-0.4-1.5-0.9-3-1.5-4.4
			c-0.4-1.5-0.8-3-1.2-4.4c-0.4-1.5-0.8-3-1.2-4.4c-0.4-1.5-0.8-3-1.2-4.7c-0.6-1.5-1.1-3-1.5-4.4c-0.4-1.7-0.8-3.2-1.2-4.7
			c-0.4-1.7-0.9-3.2-1.5-4.7c-0.4-1.7-0.8-3.3-1.2-5c-0.4-1.5-0.8-3-1.2-4.7c-0.6-1.7-1.1-3.3-1.5-5c-0.4-1.5-0.8-3-1.2-4.7
			c-0.6-1.7-1.1-3.3-1.5-5c-0.4-1.7-0.8-3.3-1.2-5c-0.6-1.7-1.1-3.2-1.5-4.7c-0.4-1.7-0.8-3.3-1.2-5c-0.6-1.7-1.1-3.3-1.5-5
			c-0.4-1.7-0.8-3.3-1.2-5c-0.4-1.7-0.9-3.3-1.5-5c-0.4-1.7-0.8-3.3-1.2-5c-0.4-1.7-0.8-3.3-1.2-5c-0.6-1.7-1.1-3.2-1.5-4.7
			c-0.4-1.7-0.8-3.3-1.2-5c-0.4-1.7-0.8-3.3-1.2-5c-0.4-1.7-0.9-3.2-1.5-4.7c-0.4-1.7-0.8-3.3-1.2-5c-0.4-1.5-0.8-3-1.2-4.7
			c-0.4-1.7-0.8-3.2-1.2-4.7c-0.4-1.7-0.8-3.2-1.2-4.7c-0.4-1.7-0.8-3.2-1.2-4.7c-0.4-1.5-0.8-3-1.2-4.7c-0.4-1.5-0.8-3-1.2-4.4
			c-0.4-1.5-0.7-3-0.9-4.4c-0.4-1.5-0.8-3-1.2-4.4c-0.4-1.5-0.8-3-1.2-4.4c-0.2-1.5-0.5-2.9-0.9-4.2c-0.4-1.5-0.8-2.9-1.2-4.2
			c-0.2-1.5-0.5-2.9-0.9-4.2c-0.4-1.5-0.7-2.9-0.9-4.2c-0.4-1.3-0.7-2.6-0.9-3.9c-0.4-1.3-0.7-2.6-0.9-3.9c-0.4-1.3-0.7-2.5-0.9-3.6
			c-0.4-1.3-0.7-2.6-0.9-3.9c-0.2-1.1-0.5-2.2-0.9-3.3c-0.2-1.3-0.4-2.5-0.6-3.6c-0.2-1.1-0.5-2.2-0.9-3.3c-0.2-0.9-0.4-1.9-0.6-3
			c-0.2-1.1-0.4-2.1-0.6-3c-0.2-0.9-0.4-1.9-0.6-3c-0.2-0.9-0.4-1.8-0.6-2.8c-0.2-0.9-0.4-1.8-0.6-2.5c0-0.9-0.1-1.8-0.3-2.5
			c-0.2-0.9-0.4-1.8-0.6-2.5c0-0.7-0.1-1.5-0.3-2.2c0-0.7-0.1-1.4-0.3-1.9c0-0.7-0.1-1.4-0.3-1.9c0-0.6-0.1-1.2-0.3-1.9
			c0-0.4,0-0.8,0-1.4c-0.2-0.6-0.3-1-0.3-1.4c0-0.4,0-0.8,0-1.4c0-0.4,0-0.6,0-0.8c0-0.4,0-0.8,0-0.8
			C286.5,212,395.9,209.2,399.9,225.6z"/>
		<path fill="#FFFFFF" d="M317.2,242.5c0.5-0.3,1-0.5,1.6-0.5c0.6-0.3,1.3-0.6,2.1-0.7c0.8,0,1.6-0.1,2.5-0.2c0.9-0.2,1.9-0.3,3-0.5
			c1.1,0,2.1-0.1,3.2-0.2c1.1-0.2,2.2-0.2,3.4-0.2c1.2,0,2.4-0.1,3.7-0.2c1.2,0,2.4,0,3.7,0c1.4,0,2.7,0,3.9,0c1.4,0,2.7,0,4.1,0
			c1.2,0,2.5,0,3.9,0c1.2,0,2.5,0,3.9,0c1.2,0.2,2.4,0.2,3.7,0.2c1.2,0,2.4,0.1,3.7,0.2c1.1,0,2.2,0.1,3.4,0.2
			c0.9,0.2,1.9,0.2,3,0.2c0.9,0.2,1.8,0.3,2.7,0.5c0.8,0,1.6,0.1,2.5,0.2c0.6,0.2,1.2,0.3,1.8,0.5c0.5,0.2,0.9,0.3,1.4,0.5
			c0.5,0.2,0.8,0.3,0.9,0.5c0.2,0.2,0.3,0.3,0.5,0.5c0.1,0.3,0.3,0.6,0.5,0.7c0.1,0.3,0.3,0.7,0.5,1c0.2,0.5,0.3,1,0.5,1.5
			c0.1,0.5,0.3,1,0.5,1.5c0.3,0.7,0.5,1.3,0.7,2c0.3,0.8,0.5,1.6,0.7,2.2c0.3,0.8,0.6,1.6,0.9,2.5c0.3,0.8,0.5,1.6,0.7,2.5
			c0.3,1,0.6,2,0.9,2.9c0.3,1,0.6,2,0.9,2.9c0.3,1.1,0.6,2.2,0.9,3.2c0.5,1.1,0.8,2.3,1.1,3.4c0.3,1.1,0.6,2.4,0.9,3.7
			c0.5,1.1,0.8,2.4,1.1,3.7c0.3,1.3,0.7,2.5,1.1,3.7c0.3,1.3,0.7,2.7,1.1,4.2c0.3,1.3,0.6,2.6,0.9,3.9c0.5,1.3,0.9,2.7,1.4,4.2
			c0.3,1.5,0.7,2.9,1.1,4.2c0.3,1.5,0.7,2.9,1.1,4.4c0.3,1.3,0.7,2.7,1.1,4.2c0.5,1.5,0.8,2.9,1.1,4.4c0.5,1.5,0.8,2.9,1.1,4.4
			c0.5,1.5,0.9,2.9,1.4,4.4c0.3,1.5,0.7,2.9,1.1,4.4c0.3,1.5,0.7,2.9,1.1,4.4c0.5,1.5,0.8,2.9,1.1,4.2c0.5,1.5,0.8,2.9,1.1,4.4
			c0.5,1.5,0.8,2.9,1.1,4.2c0.3,1.5,0.7,2.9,1.1,4.2c0.3,1.5,0.7,2.9,1.1,4.2c0.3,1.3,0.6,2.6,0.9,3.9c0.3,1.3,0.7,2.6,1.1,3.9
			c0.3,1.3,0.6,2.5,0.9,3.7c0.3,1.3,0.6,2.5,0.9,3.7c0.3,1.1,0.6,2.3,0.9,3.4c0.3,1.1,0.6,2.2,0.9,3.2c0.3,1,0.5,2,0.7,3.2
			c0.3,1,0.6,2,0.9,2.9c0.1,0.8,0.4,1.7,0.7,2.7c0.1,0.8,0.4,1.6,0.7,2.5c0.1,0.7,0.3,1.4,0.5,2.2c0.1,0.7,0.3,1.3,0.5,2
			c0.1,0.5,0.3,1.1,0.5,1.7c0.1,0.3,0.3,0.7,0.5,1.2c0,0.5,0.1,0.9,0.2,1.2c0.1,0.3,0.2,0.6,0.2,0.7c0,0.2,0.1,0.3,0.2,0.5v0.2v-0.2
			c0-0.2,0.1-0.3,0.2-0.5c0-0.2,0-0.4,0-0.7c0.1-0.3,0.3-0.7,0.5-1c0-0.5,0.1-1,0.2-1.5c0.1-0.7,0.3-1.2,0.5-1.7
			c0.1-0.7,0.3-1.3,0.5-2c0.1-0.7,0.3-1.4,0.5-2.2c0.3-0.8,0.5-1.6,0.7-2.2c0.3-1,0.5-1.9,0.7-2.7c0.3-1,0.5-2,0.7-2.9
			c0.3-1,0.6-2,0.9-2.9c0.1-1.1,0.4-2.2,0.7-3.2c0.3-1.1,0.6-2.3,0.9-3.4c0.3-1.1,0.6-2.3,0.9-3.4c0.3-1.3,0.6-2.5,0.9-3.7
			c0.3-1.3,0.6-2.6,0.9-3.9c0.3-1.3,0.7-2.6,1.1-3.9c0.3-1.3,0.6-2.6,0.9-3.9c0.3-1.5,0.7-2.9,1.1-4.2c0.3-1.5,0.6-2.9,0.9-4.2
			c0.5-1.5,0.8-2.9,1.1-4.4c0.5-1.3,0.8-2.7,1.1-4.2c0.5-1.5,0.8-2.9,1.1-4.4c0.5-1.5,0.8-2.9,1.1-4.4c0.5-1.5,0.8-2.9,1.1-4.4
			c0.5-1.3,0.8-2.7,1.1-4.2c0.5-1.5,0.8-2.9,1.1-4.4c0.5-1.5,0.8-2.9,1.1-4.4c0.5-1.5,0.8-2.9,1.1-4.2c0.5-1.5,0.9-2.9,1.4-4.2
			c0.3-1.5,0.6-2.9,0.9-4.2c0.5-1.5,0.8-2.9,1.1-4.2c0.5-1.3,0.8-2.6,1.1-3.9c0.5-1.3,0.8-2.6,1.1-3.9c0.3-1.3,0.7-2.5,1.1-3.7
			c0.3-1.3,0.6-2.5,0.9-3.7c0.3-1.1,0.7-2.3,1.1-3.4c0.3-1.1,0.6-2.3,0.9-3.4c0.3-1,0.6-2,0.9-3.2c0.3-1,0.6-2,0.9-2.9
			c0.3-0.8,0.6-1.7,0.9-2.7c0.1-0.8,0.4-1.6,0.7-2.5c0.3-0.8,0.6-1.6,0.9-2.5c0.1-0.7,0.4-1.3,0.7-2c0.1-0.7,0.4-1.3,0.7-2
			c0.1-0.5,0.3-1,0.5-1.5c0.2-0.3,0.4-0.7,0.7-1.2c0.2-0.3,0.3-0.7,0.5-1c0.1-0.2,0.3-0.4,0.5-0.7c0-0.2,0.1-0.2,0.2-0.2
			c0.3-0.2,0.7-0.3,1.1-0.5c0.5-0.2,1-0.3,1.6-0.5c0.8-0.2,1.5-0.2,2.3-0.2c0.8-0.2,1.6-0.2,2.5-0.2c1.1-0.2,2.1-0.2,3-0.2
			c1.2-0.2,2.4-0.2,3.4-0.2c1.2-0.2,2.4-0.2,3.7-0.2c1.2,0,2.5-0.1,3.9-0.2c1.2,0,2.5,0,3.9,0c1.4,0,2.7,0,4.1,0c1.4,0,2.7,0,4.1,0
			c1.2,0,2.5,0.1,3.9,0.2c1.4,0,2.7,0,3.9,0c1.4,0,2.7,0.1,3.9,0.2c1.2,0,2.4,0.1,3.4,0.2c1.1,0,2.2,0.1,3.4,0.2
			c0.9,0.2,1.8,0.2,2.7,0.2c0.9,0.2,1.7,0.3,2.5,0.5c0.8,0.2,1.4,0.3,2.1,0.5c0.5,0.2,0.9,0.3,1.4,0.5c0.3,0.2,0.6,0.3,0.9,0.5
			l0.2,0.2c0,0.2,0,0.3,0,0.5c0,0.2,0,0.3,0,0.5c0,0.2,0,0.4,0,0.7c0,0.3-0.1,0.6-0.2,0.7c0,0.5,0,0.9,0,1.2c0,0.3-0.1,0.7-0.2,1.2
			c0,0.5,0,0.9,0,1.2c-0.2,0.5-0.2,1-0.2,1.5c-0.2,0.7-0.3,1.2-0.5,1.7c0,0.7-0.1,1.3-0.2,2c0,0.7-0.1,1.2-0.2,1.7
			c-0.2,0.8-0.3,1.6-0.5,2.2c-0.2,0.7-0.2,1.4-0.2,2.2c-0.2,0.8-0.3,1.6-0.5,2.2c-0.2,0.8-0.3,1.6-0.5,2.5c-0.2,1-0.3,1.9-0.5,2.7
			c-0.3,0.8-0.5,1.7-0.7,2.7c-0.2,0.8-0.3,1.7-0.5,2.7c-0.2,1-0.3,2-0.5,2.9c-0.3,1-0.5,2-0.7,2.9c-0.2,1.1-0.4,2.2-0.7,3.2
			c-0.2,1-0.4,2-0.7,3.2c-0.2,1.1-0.3,2.2-0.5,3.2c-0.3,1.1-0.5,2.3-0.7,3.4c-0.3,1.1-0.6,2.3-0.9,3.4c-0.2,1.3-0.4,2.5-0.7,3.7
			c-0.2,1.1-0.4,2.4-0.7,3.7c-0.3,1.1-0.5,2.4-0.7,3.7c-0.3,1.1-0.6,2.4-0.9,3.7c-0.3,1.3-0.5,2.6-0.7,3.9c-0.3,1.3-0.6,2.6-0.9,3.9
			c-0.3,1.3-0.6,2.6-0.9,3.9c-0.3,1.3-0.6,2.6-0.9,3.9c-0.2,1.3-0.4,2.7-0.7,4.2c-0.3,1.3-0.6,2.6-0.9,3.9c-0.3,1.5-0.6,2.9-0.9,4.2
			c-0.3,1.5-0.6,2.9-0.9,4.2c-0.3,1.5-0.6,2.9-0.9,4.4c-0.3,1.3-0.6,2.7-0.9,4.2c-0.3,1.5-0.6,2.9-0.9,4.2c-0.3,1.5-0.6,2.9-0.9,4.4
			c-0.5,1.5-0.8,2.9-1.1,4.4c-0.3,1.5-0.6,2.9-0.9,4.2c-0.3,1.5-0.6,2.9-0.9,4.4c-0.3,1.5-0.6,2.9-0.9,4.4c-0.5,1.5-0.8,2.9-1.1,4.4
			c-0.3,1.5-0.6,2.9-0.9,4.4c-0.3,1.5-0.6,2.9-0.9,4.4c-0.3,1.5-0.7,2.9-1.1,4.2c-0.3,1.5-0.6,2.9-0.9,4.4c-0.3,1.5-0.6,2.9-0.9,4.4
			c-0.3,1.5-0.6,2.9-0.9,4.4c-0.5,1.3-0.8,2.7-1.1,4.2c-0.3,1.5-0.6,2.9-0.9,4.4c-0.3,1.3-0.6,2.7-0.9,4.2c-0.3,1.5-0.7,2.9-1.1,4.2
			c-0.3,1.5-0.6,2.9-0.9,4.4c-0.3,1.3-0.6,2.6-0.9,3.9c-0.3,1.5-0.6,2.9-0.9,4.2c-0.3,1.5-0.6,2.9-0.9,4.2c-0.3,1.3-0.6,2.6-0.9,3.9
			c-0.3,1.3-0.6,2.6-0.9,3.9c-0.3,1.3-0.6,2.6-0.9,3.9c-0.3,1.3-0.6,2.6-0.9,3.9c-0.3,1.3-0.6,2.5-0.9,3.7c-0.3,1.3-0.6,2.6-0.9,3.9
			c-0.3,1.1-0.6,2.3-0.9,3.4c-0.3,1.3-0.6,2.5-0.9,3.7c-0.2,1.1-0.4,2.3-0.7,3.4c-0.3,1.1-0.6,2.3-0.9,3.4c-0.3,1.1-0.5,2.2-0.7,3.2
			c-0.3,1.1-0.6,2.2-0.9,3.2c-0.2,1.1-0.4,2.2-0.7,3.2c-0.3,1-0.5,2-0.7,2.9c-0.3,1-0.6,2-0.9,2.9c-0.2,1-0.4,2-0.7,2.9
			c-0.2,0.8-0.4,1.7-0.7,2.7c-0.2,0.8-0.3,1.6-0.5,2.5c-0.3,0.8-0.5,1.6-0.7,2.5c-0.2,0.8-0.4,1.6-0.7,2.5c-0.2,0.8-0.3,1.6-0.5,2.2
			c-0.3,0.7-0.5,1.4-0.7,2.2c-0.2,0.7-0.3,1.3-0.5,2c-0.2,0.5-0.3,1.1-0.5,1.7c-0.2,0.5-0.3,1.1-0.5,1.7c-0.2,0.5-0.3,1-0.5,1.5
			c-0.2,0.5-0.3,1-0.5,1.5c-0.2,0.3-0.3,0.7-0.5,1.2c0,0.3-0.1,0.7-0.2,1c-0.2,0.3-0.2,0.7-0.2,1c-0.2,0.2-0.3,0.4-0.5,0.7
			c0,0.2-0.1,0.3-0.2,0.5c0,0.2,0,0.3,0,0.5l-0.2,0.2c-0.3,0.2-0.5,0.3-0.7,0.5c-0.5,0.2-0.9,0.3-1.4,0.5c-0.5,0.2-1,0.3-1.6,0.5
			c-0.8,0.2-1.4,0.2-2.1,0.2c-0.9,0.2-1.8,0.3-2.5,0.5c-0.9,0-1.8,0.1-2.7,0.2c-1.1,0-2.1,0.1-3.2,0.2c-1.1,0-2.1,0.1-3.2,0.2
			c-1.2,0-2.4,0.1-3.7,0.2c-1.2,0-2.4,0-3.7,0c-1.4,0-2.7,0.1-3.9,0.2c-1.4,0-2.7,0-4.1,0c-1.4,0-2.7,0-4.1,0c-1.4,0-2.7,0-4.1,0
			c-1.4,0-2.7,0-4.1,0c-1.4,0-2.7,0-4.1,0c-1.4,0-2.7,0-4.1,0c-1.2-0.2-2.5-0.2-3.9-0.2c-1.2,0-2.4,0-3.6,0
			c-1.2-0.2-2.4-0.2-3.7-0.2c-1.2,0-2.4-0.1-3.4-0.2c-1.1,0-2.1-0.1-3.2-0.2c-0.9,0-1.8,0-2.7,0c-0.8-0.2-1.6-0.3-2.5-0.5
			c-0.8,0-1.4-0.1-2.1-0.2c-0.6,0-1.2-0.1-1.8-0.2c-0.5,0-0.9-0.1-1.4-0.2c-0.2-0.2-0.4-0.3-0.7-0.5h-0.2c-0.2-0.2-0.2-0.3-0.2-0.5
			c-0.2-0.2-0.2-0.3-0.2-0.5c-0.2-0.3-0.2-0.6-0.2-0.7c-0.2-0.3-0.3-0.7-0.5-1c-0.2-0.3-0.3-0.7-0.5-1c0-0.3-0.1-0.7-0.2-1.2
			c-0.2-0.3-0.3-0.7-0.5-1.2c-0.2-0.5-0.3-1-0.5-1.5c-0.2-0.7-0.4-1.2-0.7-1.7c-0.2-0.7-0.3-1.2-0.5-1.7c-0.2-0.7-0.3-1.3-0.5-2
			c-0.3-0.7-0.5-1.3-0.7-2c-0.2-0.8-0.4-1.6-0.7-2.2c-0.2-0.8-0.3-1.6-0.5-2.5c-0.3-0.8-0.5-1.6-0.7-2.5c-0.3-0.8-0.5-1.6-0.7-2.5
			c-0.3-1-0.6-1.9-0.9-2.7c-0.2-1-0.4-1.9-0.7-2.7c-0.3-1-0.5-2-0.7-2.9c-0.3-1-0.6-2-0.9-2.9c-0.2-1.1-0.4-2.2-0.7-3.2
			c-0.3-1.1-0.6-2.2-0.9-3.2c-0.3-1.1-0.5-2.2-0.7-3.2c-0.3-1.1-0.6-2.3-0.9-3.4c-0.3-1.1-0.6-2.3-0.9-3.4c-0.3-1.3-0.6-2.5-0.9-3.7
			c-0.3-1.1-0.6-2.4-0.9-3.7c-0.3-1.1-0.6-2.4-0.9-3.7c-0.3-1.1-0.6-2.4-0.9-3.7c-0.3-1.3-0.6-2.6-0.9-3.9c-0.3-1.3-0.7-2.6-1.1-3.9
			c-0.3-1.3-0.6-2.6-0.9-3.9c-0.3-1.3-0.6-2.6-0.9-3.9c-0.3-1.3-0.6-2.7-0.9-4.2c-0.5-1.3-0.8-2.6-1.1-3.9c-0.3-1.5-0.6-2.9-0.9-4.2
			c-0.3-1.5-0.7-2.9-1.1-4.2c-0.3-1.5-0.6-2.9-0.9-4.4c-0.3-1.3-0.6-2.7-0.9-4.2c-0.5-1.5-0.8-2.9-1.1-4.4c-0.3-1.3-0.6-2.7-0.9-4.2
			c-0.5-1.5-0.8-2.9-1.1-4.4c-0.3-1.5-0.6-2.9-0.9-4.4c-0.5-1.5-0.8-2.9-1.1-4.2c-0.3-1.5-0.6-2.9-0.9-4.4c-0.5-1.5-0.8-2.9-1.1-4.4
			c-0.3-1.5-0.6-2.9-0.9-4.4c-0.3-1.5-0.7-2.9-1.1-4.4c-0.3-1.5-0.6-2.9-0.9-4.4c-0.3-1.5-0.6-2.9-0.9-4.4c-0.5-1.5-0.8-2.9-1.1-4.2
			c-0.3-1.5-0.6-2.9-0.9-4.4c-0.3-1.5-0.6-2.9-0.9-4.4c-0.3-1.5-0.7-2.9-1.1-4.2c-0.3-1.5-0.6-2.9-0.9-4.4c-0.3-1.3-0.6-2.7-0.9-4.2
			c-0.3-1.5-0.6-2.9-0.9-4.2c-0.3-1.5-0.6-2.9-0.9-4.2c-0.3-1.5-0.6-2.9-0.9-4.2c-0.3-1.3-0.6-2.7-0.9-4.2c-0.3-1.3-0.6-2.6-0.9-3.9
			c-0.3-1.3-0.5-2.6-0.7-3.9c-0.3-1.3-0.6-2.6-0.9-3.9c-0.3-1.3-0.6-2.6-0.9-3.9c-0.2-1.3-0.4-2.5-0.7-3.7c-0.3-1.3-0.6-2.5-0.9-3.7
			c-0.2-1.3-0.4-2.5-0.7-3.7c-0.3-1.3-0.5-2.5-0.7-3.7c-0.3-1.1-0.5-2.3-0.7-3.4c-0.3-1.1-0.5-2.3-0.7-3.4c-0.3-1.1-0.5-2.2-0.7-3.2
			c-0.3-1.1-0.5-2.3-0.7-3.4c-0.2-1-0.4-2-0.7-2.9c-0.2-1.1-0.3-2.2-0.5-3.2c-0.2-1-0.4-2-0.7-2.9c-0.2-0.8-0.3-1.7-0.5-2.7
			c-0.2-1-0.3-1.9-0.5-2.7c-0.2-0.8-0.3-1.7-0.5-2.7c-0.2-0.8-0.3-1.6-0.5-2.5c-0.2-0.8-0.3-1.6-0.5-2.2c0-0.8-0.1-1.6-0.2-2.2
			c-0.2-0.8-0.3-1.6-0.5-2.2c0-0.7-0.1-1.3-0.2-2c0-0.7-0.1-1.2-0.2-1.7c0-0.7-0.1-1.2-0.2-1.7c0-0.5-0.1-1.1-0.2-1.7
			c0-0.3,0-0.7,0-1.2c-0.1-0.5-0.2-0.9-0.2-1.2c0-0.3,0-0.7,0-1.2c0-0.3,0-0.6,0-0.7c0-0.3,0-0.6,0-0.7c0-0.3,0.1-0.6,0.2-0.7
			c0-0.2,0-0.3,0-0.5l0.2-0.2C316.3,242.8,316.7,242.7,317.2,242.5z"/>
	</g>
	<g>
		<path fill="#020202" d="M626.4,537.9c-0.2-0.8-11,16.5-41.6,16.3c-0.8,0.2-1.8,0.2-2.8,0c-0.8,0-1.7,0-2.5,0c-1,0-2,0-2.8,0
			c-1-0.2-2-0.3-2.8-0.3c-1-0.2-2-0.4-2.8-0.6c-0.8,0-1.8-0.1-2.8-0.3c-0.8-0.2-1.8-0.4-2.8-0.6c-0.8-0.2-1.7-0.4-2.5-0.6
			c-1-0.4-2-0.7-2.8-0.9c-0.8-0.2-1.8-0.5-2.8-0.9c-0.8-0.4-1.7-0.7-2.5-0.9c-0.8-0.4-1.8-0.8-2.8-1.3c-0.8-0.4-1.7-0.8-2.5-1.2
			c-0.8-0.4-1.7-0.8-2.5-1.3c-0.8-0.4-1.7-0.8-2.5-1.3c-0.8-0.6-1.7-1.1-2.5-1.6c-0.8-0.6-1.7-1.1-2.5-1.6c-0.8-0.6-1.7-1.2-2.5-1.9
			c-0.8-0.4-1.7-0.9-2.5-1.6c-0.8-0.6-1.6-1.3-2.2-1.9c-0.8-0.6-1.7-1.3-2.5-1.9c-0.6-0.8-1.4-1.6-2.2-2.2c-0.8-0.6-1.6-1.4-2.2-2.2
			c-0.6-0.6-1.4-1.4-2.2-2.2c-0.6-0.8-1.4-1.7-2.2-2.5c-0.6-0.6-1.3-1.4-1.9-2.2c-0.6-0.8-1.2-1.7-1.9-2.5c-0.6-0.8-1.2-1.8-1.9-2.8
			c-0.6-0.8-1.3-1.7-1.9-2.5c-0.6-1-1.2-2-1.9-2.8c-0.4-1-0.9-2-1.6-2.8c-0.6-1-1.1-2.1-1.6-3.1c-0.6-0.8-1.1-1.8-1.6-2.8
			c-0.4-1-0.9-2.1-1.6-3.1c-0.4-1-0.8-2.1-1.3-3.1c-0.4-1.3-0.8-2.4-1.2-3.5c-0.4-1-0.8-2.2-1.3-3.4c-0.4-1-0.7-2.2-0.9-3.5
			c-0.4-1-0.8-2.2-1.3-3.5c-0.2-1.3-0.4-2.4-0.6-3.5c-0.4-1.2-0.7-2.5-0.9-3.8c-0.2-1.3-0.4-2.5-0.6-3.8c-0.2-1.3-0.4-2.5-0.6-3.8
			c-0.2-1.5-0.4-2.8-0.6-4.1c0-1.3-0.1-2.6-0.3-4.1c0-1.3-0.1-2.6-0.3-4.1c0-1.3,0-2.6,0-4.1s0-2.8,0-4.1c0-1.5,0-2.9,0-4.4
			c0-1.5,0.1-2.9,0.3-4.4c0-1.5,0.1-2.9,0.3-4.4c0-1.7,0.1-3.2,0.3-4.7c0.2-1.5,0.4-2.9,0.6-4.4c0.2-1.7,0.4-3.2,0.6-4.7
			c0.4-1.9,0.8-3.7,1.2-5.3c0.2-1.7,0.5-3.3,1-5c0.4-1.7,0.8-3.2,1.2-4.7c0.4-1.7,0.9-3.2,1.6-4.7c0.4-1.7,0.9-3.2,1.6-4.7
			c0.4-1.5,0.9-2.9,1.6-4.4c0.6-1.5,1.2-2.8,1.9-4.1c0.6-1.5,1.2-2.8,1.9-4.1c0.6-1.5,1.3-2.8,2.2-4.1c0.6-1.2,1.4-2.5,2.2-3.8
			c14.4-22,40.5-44.2,76.1-46.1c35.5-1.9,49,16,49.2,15.2c0.8-1.7-1.2-10.5,4.2-13.7c5.4-3.2,84.7-3,83.7,5.1l0.3,0.3
			c0,0.4,0,0.7,0,0.9c0,0.4,0,0.8,0,1.3c0,0.6,0,1.2,0,1.9c0,0.6,0,1.2,0,1.9c0,0.8,0,1.6,0,2.2c0,1,0,2,0,2.8c0,1.1-0.1,2-0.3,2.8
			c0,1.2,0,2.4,0,3.5c-0.2,1.2-0.3,2.4-0.3,3.4c0,1.5-0.1,2.8-0.3,4.1c0,1.3,0,2.6,0,4.1c-0.2,1.5-0.3,2.9-0.3,4.4
			c0,1.7-0.1,3.2-0.3,4.7c0,1.7,0,3.3,0,5c-0.2,1.7-0.3,3.3-0.3,5c0,1.9-0.1,3.8-0.3,5.6c0,1.9,0,3.7,0,5.3c-0.2,2.1-0.3,4.1-0.3,6
			c0,2.1,0,4.1,0,6c0,2.1-0.1,4.2-0.3,6.3c0,2.1,0,4.2,0,6.3c0,2.3,0,4.5,0,6.6c0,2.5,0,4.9,0,7.2c0,2.3,0,4.6,0,6.9
			c0.2,2.3,0.3,4.5,0.3,6.6c0,2.3,0,4.5,0,6.6c0,2.1,0.1,4.2,0.3,6.3c0,2.1,0,4.2,0,6.3c0.2,2.1,0.3,4.1,0.3,6c0,1.9,0.1,3.9,0.3,6
			c0,1.9,0.1,3.7,0.3,5.3c0,1.9,0,3.8,0,5.6c0.2,1.7,0.3,3.3,0.3,5c0.2,1.7,0.3,3.3,0.3,5c0.2,1.7,0.3,3.2,0.3,4.7
			c0.2,1.7,0.3,3.2,0.3,4.7c0.2,1.5,0.3,2.9,0.3,4.4c0.2,1.2,0.3,2.6,0.3,4.1c0,1.2,0.1,2.5,0.3,3.8c0,1.3,0.1,2.5,0.3,3.8
			c0,1.2,0,2.4,0,3.5c0.2,1,0.3,2.2,0.3,3.4c0,0.8,0.1,1.8,0.3,2.8c0,1,0,2,0,2.8c0,0.8,0.1,1.7,0.3,2.5c0,0.8,0,1.7,0,2.5
			c0,0.6,0,1.3,0,1.9c0,0.6,0,1.3,0,1.9c0,0.6,0,1.1,0,1.6c0,0.4,0,0.9,0,1.6c0,0.2-0.1,0.5-0.3,0.9c0,0.4,0,0.7,0,0.9
			c-0.2,0.2-0.3,0.4-0.3,0.6c0,0.2-0.1,0.3-0.3,0.3c-0.4,0.2-0.8,0.4-1.2,0.6c-0.8,0.2-1.6,0.3-2.2,0.3c-1.1,0.2-2.1,0.4-3.2,0.6
			c-1,0-6.3,0.3-7.5,0.3c-1.7,0.2-3.2,0.3-4.7,0.3c-1.7,0-3.4,0-5,0c-1.7,0-8.8,0-10.7,0c-1.9,0-3.7,0-5.6,0c-1.9,0-9.1-0.1-11-0.3
			c-1.9,0-18.3-0.9-19.8-0.9c-1.3-0.2-9.4-1.3-9.4-1.3C630.3,550.6,626.8,539.4,626.4,537.9z"/>
		<path fill="#FFFFFF" d="M637.6,510.3c-0.2-0.7-0.7,0.1-1.6,2.3c-0.4,0.7-1,1.4-1.8,2.1c-0.7,0.5-1.3,1.1-1.8,1.8
			c-0.5,0.7-1.1,1.3-1.8,1.8c-0.7,0.7-1.3,1.3-1.8,1.8c-0.7,0.7-1.4,1.3-2.1,1.8c-0.7,0.5-1.3,1-1.8,1.6c-0.7,0.5-1.4,1-2.1,1.6
			c-0.7,0.3-1.4,0.8-2.1,1.3c-0.7,0.5-1.4,1-2.1,1.3c-0.7,0.3-1.4,0.8-2.1,1.3c-0.7,0.3-1.4,0.7-2.1,1s-1.5,0.7-2.3,1
			c-0.7,0.3-1.4,0.6-2.1,0.8c-0.7,0.3-1.5,0.7-2.3,1c-0.7,0.2-1.4,0.3-2.1,0.5c-0.7,0.3-1.5,0.6-2.3,0.8c-0.7,0.2-1.5,0.3-2.3,0.5
			c-0.7,0.2-1.4,0.3-2.1,0.5c-0.9,0.2-1.7,0.3-2.3,0.3c-0.7,0.2-1.5,0.3-2.3,0.3c-0.7,0.2-1.5,0.3-2.3,0.3c-0.7,0-1.5,0-2.3,0
			c-0.7,0.2-1.5,0.2-2.3,0c-0.7,0-1.4,0-2.1,0c-0.9,0-1.7,0-2.3,0c-0.9-0.2-1.7-0.3-2.4-0.3c-0.9-0.2-1.6-0.3-2.3-0.5
			c-0.7,0-1.5-0.1-2.3-0.3c-0.7-0.2-1.5-0.3-2.3-0.5c-0.7-0.2-1.4-0.3-2.1-0.5c-0.9-0.3-1.7-0.6-2.3-0.8c-0.7-0.2-1.5-0.4-2.3-0.8
			c-0.7-0.3-1.4-0.6-2.1-0.8c-0.7-0.3-1.5-0.7-2.3-1c-0.7-0.3-1.4-0.7-2.1-1s-1.4-0.7-2.1-1c-0.7-0.3-1.4-0.7-2.1-1
			c-0.7-0.5-1.4-1-2.1-1.3c-0.7-0.5-1.4-1-2.1-1.3c-0.7-0.5-1.4-1-2.1-1.6c-0.7-0.3-1.4-0.8-2.1-1.3c-0.7-0.5-1.3-1-1.8-1.6
			c-0.7-0.5-1.4-1-2.1-1.6c-0.5-0.7-1.1-1.3-1.8-1.8c-0.7-0.5-1.3-1.1-1.8-1.8c-0.5-0.5-1.1-1.1-1.8-1.8c-0.5-0.7-1.1-1.4-1.8-2.1
			c-0.5-0.5-1-1.1-1.6-1.8c-0.5-0.7-1-1.4-1.6-2.1c-0.5-0.7-1-1.5-1.6-2.3c-0.5-0.7-1-1.4-1.5-2.1c-0.5-0.9-1-1.7-1.6-2.3
			c-0.3-0.9-0.8-1.6-1.3-2.3c-0.5-0.9-1-1.7-1.3-2.6c-0.5-0.7-1-1.5-1.3-2.3c-0.4-0.9-0.8-1.7-1.3-2.6c-0.3-0.9-0.7-1.7-1-2.6
			c-0.3-1-0.7-2-1-2.9c-0.3-0.9-0.7-1.8-1-2.9c-0.4-0.9-0.6-1.8-0.8-2.9c-0.3-0.9-0.7-1.8-1-2.9c-0.2-1-0.4-2-0.5-2.9
			c-0.3-1-0.6-2.1-0.8-3.1c-0.2-1-0.3-2.1-0.5-3.1c-0.2-1-0.4-2.1-0.5-3.1c-0.2-1.2-0.3-2.3-0.5-3.4c0-1-0.1-2.2-0.3-3.4
			c0-1-0.1-2.2-0.3-3.4c0-1,0-2.2,0-3.4c0-1.2,0-2.3,0-3.4c0-1.2,0-2.4,0-3.6c0-1.2,0.1-2.4,0.3-3.6c0-1.2,0.1-2.4,0.3-3.6
			c0-1.4,0.1-2.7,0.3-3.9c0.2-1.2,0.3-2.4,0.5-3.6c0.2-1.4,0.4-2.7,0.5-3.9c0.4-1.6,0.7-3,1-4.4c0.2-1.4,0.4-2.8,0.8-4.2
			c0.4-1.4,0.7-2.7,1-3.9c0.4-1.4,0.8-2.7,1.3-3.9c0.3-1.4,0.8-2.7,1.3-3.9c0.4-1.2,0.8-2.4,1.3-3.6c0.5-1.2,1-2.3,1.5-3.4
			c0.5-1.2,1-2.3,1.6-3.4c0.5-1.2,1.1-2.3,1.8-3.4c0.5-1,1.1-2.1,1.8-3.1c0.5-1,1.1-2,1.8-2.9c0.7-1,1.4-2,2.1-2.9
			c0.7-1,1.4-2,2.1-2.9c0.7-0.9,1.4-1.7,2.1-2.6c0.7-0.9,1.4-1.7,2.1-2.6c0.9-0.7,1.7-1.5,2.3-2.3c0.9-0.7,1.7-1.4,2.3-2.1
			c0.9-0.7,1.7-1.4,2.6-2.1c0.7-0.7,1.5-1.4,2.4-2.1c0.9-0.7,1.7-1.3,2.6-1.8c0.9-0.7,1.7-1.3,2.6-1.8c0.9-0.5,1.7-1,2.6-1.6
			c0.8-0.5,1.7-1,2.6-1.6c1.1-0.5,2-1,2.9-1.3c0.9-0.5,1.8-1,2.9-1.3c0.9-0.3,1.7-0.8,2.6-1.3c1-0.3,2-0.7,2.9-1
			c1-0.2,2-0.4,2.9-0.8c1-0.3,2-0.6,2.9-0.8c1-0.3,2-0.6,2.9-0.8c1-0.2,2-0.3,2.9-0.5c1-0.2,2-0.3,2.9-0.5c1-0.2,2.1-0.3,3.1-0.3
			c0.9-0.2,1.8-0.3,2.9-0.3c0.9-0.2,1.8-0.3,2.9-0.3c1.1,0,2,0,2.9,0c1,0,2,0,2.9,0c1,0,2,0.1,2.9,0.3c1,0,2,0.1,2.9,0.3
			c1,0,2,0.1,2.9,0.3c1,0.2,2,0.3,2.9,0.5c0.9,0.2,1.8,0.3,2.9,0.5c0.9,0.3,1.7,0.6,2.6,0.8c1,0.2,2,0.4,2.9,0.8
			c0.9,0.4,1.7,0.7,2.6,1c0.8,0.2,1.7,0.4,2.6,0.8c0.9,0.3,1.7,0.7,2.6,1c0.9,0.5,1.7,1,2.6,1.3c0.7,0.4,1.5,0.8,2.3,1.3
			c0.9,0.5,1.7,1,2.3,1.3c0.9,0.5,1.6,1,2.4,1.6c0.9,0.5,1.6,1,2.3,1.6c1,0.3,1.7,0.9,2.1,1.6c1.2,1.9,1.9,2.5,2.1,1.8
			c0.7-1.4,1-3.2,0.8-5.5c-0.2-1.6,0-3.1,0.5-4.7c0.3-1,0.6-2.2,0.8-3.4c0-0.7,0.3-1.2,0.8-1.6c0.2-0.2,0.5-0.4,1.1-0.5
			c0.5-0.2,1.1-0.3,1.8-0.3c0.8-0.2,1.7-0.3,2.6-0.3c1.1-0.2,2.1-0.3,3.1-0.3c1.2,0,2.4,0,3.6,0c1.4,0,2.8,0,4.2,0
			c1.4,0,2.9,0,4.4,0c1.4,0,2.9,0,4.4,0c1.6,0,3.1,0.1,4.7,0.3c1.6,0,3.2,0.1,5,0.3c1.4,0,2.9,0.1,4.4,0.3c1.6,0.2,3,0.3,4.4,0.5
			c1.4,0.2,2.8,0.3,4.1,0.5c1.2,0.2,2.4,0.3,3.6,0.5c1.1,0.2,2.1,0.3,3.1,0.5c0.9,0.2,1.7,0.4,2.6,0.8c0.7,0.2,1.3,0.3,1.8,0.5
			c0.3,0.3,0.7,0.7,1,1l0.3,0.3c0,0.3,0,0.6,0,0.8c0,0.3,0,0.7,0,1c0,0.5,0,1,0,1.6c0,0.5,0,1,0,1.6c0,0.7,0,1.3,0,1.8
			c0,0.9,0,1.6,0,2.3c0,0.9-0.1,1.6-0.3,2.3c0,1,0,2,0,2.9c-0.2,1-0.3,2-0.3,2.9c0,1.2-0.1,2.3-0.3,3.4c0,1,0,2.2,0,3.4
			c-0.2,1.2-0.3,2.4-0.3,3.6c0,1.4-0.1,2.7-0.3,3.9c0,1.4,0,2.8,0,4.2c-0.2,1.4-0.3,2.8-0.3,4.2c0,1.6-0.1,3.1-0.3,4.7
			c0,1.6,0,3,0,4.4c-0.2,1.7-0.3,3.4-0.3,4.9c0,1.7,0,3.4,0,4.9c0,1.7-0.1,3.5-0.3,5.2c0,1.7,0,3.5,0,5.2c0,1.9,0,3.7,0,5.5
			c0,2.1,0,4.1,0,6s0,3.8,0,5.7c0.2,1.9,0.3,3.7,0.3,5.5c0,1.9,0,3.7,0,5.5c0,1.7,0.1,3.5,0.3,5.2c0,1.7,0,3.5,0,5.2
			c0.2,1.7,0.3,3.4,0.3,4.9c0,1.6,0.1,3.2,0.3,4.9c0,1.6,0.1,3,0.3,4.4c0,1.6,0,3.1,0,4.7c0.2,1.4,0.3,2.8,0.3,4.2
			c0.2,1.4,0.3,2.8,0.3,4.2c0.2,1.4,0.3,2.7,0.3,3.9c0.2,1.4,0.3,2.7,0.3,3.9c0.2,1.2,0.3,2.4,0.3,3.7c0.2,1,0.3,2.2,0.3,3.4
			c0,1,0.1,2.1,0.3,3.1c0,1,0.1,2.1,0.3,3.1c0,1,0,2,0,2.9c0.2,0.9,0.3,1.8,0.3,2.9c0,0.7,0.1,1.5,0.3,2.3c0,0.9,0,1.7,0,2.3
			c0,0.7,0.1,1.4,0.3,2.1c0,0.7,0,1.4,0,2.1c0,0.5,0,1,0,1.6c0,0.5,0,1,0,1.6c0,0.5,0,1,0,1.3s0,0.8,0,1.3c0,0.2-0.1,0.4-0.3,0.8
			c0,0.3,0,0.6,0,0.8c-0.2,0.2-0.3,0.3-0.3,0.5c0,0.2-0.1,0.3-0.3,0.3c-0.3,0.2-0.7,0.3-1,0.5c-0.7,0.2-1.3,0.3-1.8,0.3
			c-0.9,0.2-1.7,0.3-2.6,0.5c-0.9,0-1.8,0.1-2.9,0.3c-1.2,0-2.3,0-3.4,0c-1.4,0.2-2.7,0.3-3.9,0.3c-1.4,0-2.8,0-4.2,0
			c-1.4,0-2.9,0-4.4,0c-1.4,0-2.9,0-4.4,0c-1.6,0-3.1,0-4.7,0c-1.5,0-3.1,0-4.7,0c-1.4,0-2.9-0.1-4.4-0.3c-1.5,0-3-0.1-4.4-0.3
			c-1.5,0-3,0-4.4,0c-1.2-0.2-2.5-0.3-3.9-0.3c-1.2-0.2-2.4-0.3-3.6-0.3c-1-0.2-2.1-0.3-3.1-0.3c-0.9-0.2-1.7-0.3-2.6-0.5
			c-0.7,0-1.4-0.1-2.1-0.3c-0.5-0.2-1.1-0.3-1.6-0.3c-0.4-0.2-0.6-0.3-0.8-0.5c-0.5-0.5-0.9-1.1-1-1.8c-0.4-0.7-0.6-1.4-0.8-2.1
			c-0.4-1-0.5-2-0.5-2.9c-0.2-1.2-0.3-2.3-0.3-3.4c0.2-1.2,0.3-2.5,0.3-3.9c-0.3-1.4-0.3-2.8,0-4.2
			C637.9,513.1,638,511.5,637.6,510.3z M612.9,410.2c-1-0.2-2.2-0.3-3.4-0.3c-1.2,0-2.3,0-3.4,0c-1.2,0.2-2.3,0.4-3.4,0.8
			c-1,0.3-2.1,0.7-3.1,1c-1,0.5-2,1.1-2.9,1.8c-1,0.5-2,1.1-2.9,1.8c-0.9,0.7-1.6,1.5-2.3,2.3c-0.9,0.9-1.6,1.7-2.3,2.6
			c-0.7,0.9-1.4,1.8-2.1,2.9c-0.5,0.9-1,1.8-1.6,2.9c-0.5,1.2-1,2.3-1.6,3.4c-0.3,1-0.7,2.2-1,3.4c-0.2,1-0.3,2.2-0.5,3.4
			c-0.2,1.2-0.3,2.4-0.3,3.6c0,1,0,2.2,0,3.4c0.2,1.2,0.4,2.3,0.8,3.4c0.4,1,0.7,2.1,1,3.1c0.4,1.2,0.8,2.3,1.3,3.1
			c0.7,1,1.3,2,1.8,2.9c0.7,1,1.4,2,2.1,2.9c0.7,0.9,1.5,1.7,2.3,2.3c0.9,0.7,1.7,1.4,2.6,2.1c0.9,0.7,1.7,1.3,2.6,1.8
			c0.9,0.7,1.8,1.2,2.9,1.6c1,0.3,2,0.7,2.9,1c1,0.3,2.1,0.6,3.1,0.8c1,0.2,2.1,0.3,3.1,0.3c1,0,2.1-0.1,3.1-0.3
			c1.2-0.2,2.4-0.4,3.6-0.8c1.2-0.3,2.4-0.8,3.6-1.3c1.2-0.4,2.3-0.8,3.4-1.3c1-0.7,2.1-1.4,3.1-2.1c1.1-0.5,2-1.2,2.9-2.1
			c0.9-0.7,1.7-1.5,2.6-2.3c0.8-0.9,1.6-1.8,2.3-2.9c0.7-0.9,1.3-1.8,1.8-2.9c0.5-1,1-2.1,1.6-3.1c0.5-1.2,1-2.3,1.3-3.4
			c0.2-1.2,0.4-2.4,0.5-3.6c0.2-1.2,0.3-2.4,0.5-3.6c0-1.4-0.1-2.7-0.3-3.9c-0.2-1.2-0.3-2.3-0.5-3.4c-0.4-1.2-0.7-2.3-1.1-3.4
			c-0.5-1-1-2.1-1.5-3.1c-0.5-0.9-1.1-1.8-1.8-2.9c-0.7-0.9-1.5-1.7-2.3-2.3c-0.7-0.9-1.5-1.7-2.3-2.3c-1-0.9-2-1.6-2.9-2.1
			c-1-0.7-2.1-1.3-3.1-1.8c-1-0.5-2.2-1-3.4-1.6c-1-0.3-2.2-0.7-3.4-1C615.3,410.6,614.1,410.3,612.9,410.2z"/>
	</g>
</g>
</svg>
