<?xml version="1.0" encoding="utf-8"?>
<!-- Generator: Adobe Illustrator 18.0.0, SVG Export Plug-In . SVG Version: 6.00 Build 0)  -->
<!DOCTYPE svg PUBLIC "-//W3C//DTD SVG 1.1//EN" "http://www.w3.org/Graphics/SVG/1.1/DTD/svg11.dtd">
<svg version="1.1" id="Camada_1" xmlns="http://www.w3.org/2000/svg" xmlns:xlink="http://www.w3.org/1999/xlink" x="0px" y="0px"
	 viewBox="0 0 1024 768" enable-background="new 0 0 1024 768" xml:space="preserve">
<g>
	<defs>
		<circle id="SVGID_1_" cx="511.9" cy="383.4" r="375.7"/>
	</defs>
	<clipPath id="SVGID_2_">
		<use xlink:href="#SVGID_1_"  overflow="visible"/>
	</clipPath>
	<g clip-path="url(#SVGID_2_)" enable-background="new    ">
		
			<image overflow="visible" width="2474" height="2474" xlink:href="../../banco de imagens/botões/butt 25.png"  transform="matrix(0.3065 0 0 0.3065 132.8006 4.7999)">
		</image>
	</g>
</g>
<g>
	<g>
		<path fill="#020202" d="M648.9,535.1c-0.2-0.9-11.8,17.7-44.6,17.5c-0.9,0.2-1.9,0.2-3,0c-0.9,0-1.8,0-2.7,0c-1.1,0-2.1,0-3,0
			c-1.1-0.2-2.1-0.3-3-0.3c-1.1-0.2-2.1-0.4-3-0.7c-0.9,0-1.9-0.1-3-0.3c-0.9-0.2-1.9-0.5-3-0.7c-0.9-0.2-1.8-0.4-2.7-0.7
			c-1.1-0.5-2.1-0.8-3-1c-0.9-0.2-1.9-0.6-3-1c-0.9-0.4-1.8-0.8-2.7-1c-0.9-0.4-1.9-0.9-3-1.3c-0.9-0.4-1.8-0.9-2.7-1.3
			c-0.9-0.5-1.8-0.9-2.7-1.4c-0.9-0.5-1.8-0.9-2.7-1.3c-0.9-0.7-1.8-1.2-2.7-1.7c-0.9-0.7-1.8-1.2-2.7-1.7c-0.9-0.7-1.8-1.3-2.7-2
			c-0.9-0.5-1.8-1-2.7-1.7c-0.9-0.7-1.7-1.4-2.3-2c-0.9-0.7-1.8-1.4-2.7-2c-0.7-0.9-1.5-1.7-2.3-2.4c-0.9-0.7-1.7-1.5-2.4-2.4
			c-0.7-0.7-1.5-1.4-2.4-2.4c-0.7-0.9-1.5-1.8-2.3-2.7c-0.7-0.7-1.4-1.4-2-2.4c-0.7-0.9-1.3-1.8-2-2.7c-0.7-0.9-1.3-1.9-2-3
			c-0.7-0.9-1.3-1.8-2-2.7c-0.7-1.1-1.3-2.1-2-3c-0.4-1.1-1-2.1-1.7-3c-0.7-1.1-1.2-2.2-1.7-3.4c-0.7-0.9-1.2-1.9-1.7-3
			c-0.4-1.1-1-2.2-1.7-3.4c-0.4-1.1-0.9-2.2-1.3-3.4c-0.4-1.3-0.9-2.6-1.3-3.7c-0.5-1.1-0.9-2.4-1.4-3.7c-0.4-1.1-0.8-2.4-1-3.7
			c-0.4-1.1-0.9-2.4-1.3-3.7c-0.2-1.4-0.5-2.6-0.7-3.7c-0.4-1.3-0.8-2.7-1-4c-0.2-1.4-0.5-2.7-0.7-4c-0.2-1.3-0.4-2.7-0.7-4
			c-0.2-1.6-0.4-3-0.7-4.4c0-1.4-0.1-2.8-0.3-4.4c0-1.4-0.1-2.8-0.3-4.4c0-1.4,0-2.8,0-4.4s0-3,0-4.4c0-1.6,0-3.1,0-4.7
			c0-1.6,0.1-3.1,0.3-4.7c0-1.6,0.1-3.1,0.3-4.7c0-1.8,0.1-3.5,0.3-5.1c0.2-1.6,0.4-3.1,0.7-4.7c0.2-1.8,0.5-3.5,0.7-5.1
			c0.4-2,0.9-3.9,1.3-5.7c0.2-1.8,0.6-3.6,1-5.4c0.4-1.8,0.9-3.5,1.3-5c0.4-1.8,1-3.5,1.7-5.1c0.4-1.8,1-3.5,1.7-5
			c0.4-1.6,1-3.1,1.7-4.7c0.7-1.6,1.3-3,2-4.4c0.7-1.6,1.3-3,2-4.4c0.7-1.6,1.4-3,2.3-4.4c0.7-1.3,1.5-2.7,2.4-4
			c15.4-23.6,43.5-47.4,81.6-49.5c38.1-2.1,52.6,17.2,52.8,16.3c0.9-1.8-1.3-11.3,4.6-14.7c5.8-3.4,90.9-3.3,89.9,5.5l0.3,0.3
			c0,0.5,0,0.8,0,1c0,0.5,0,0.9,0,1.4c0,0.7,0,1.3,0,2c0,0.7,0,1.3,0,2c0,0.9,0,1.7,0,2.4c0,1.1,0,2.1,0,3c0,1.1-0.1,2.1-0.3,3
			c0,1.3,0,2.6,0,3.7c-0.2,1.3-0.3,2.6-0.3,3.7c0,1.6-0.1,3-0.3,4.4c0,1.4,0,2.8,0,4.4c-0.2,1.6-0.3,3.2-0.3,4.7
			c0,1.8-0.1,3.5-0.3,5c0,1.8,0,3.6,0,5.4c-0.2,1.8-0.3,3.6-0.3,5.4c0,2-0.1,4-0.3,6.1c0,2,0,3.9,0,5.7c-0.2,2.2-0.3,4.4-0.3,6.4
			c0,2.2,0,4.4,0,6.4c0,2.3-0.1,4.5-0.3,6.7c0,2.2,0,4.5,0,6.7c0,2.5,0,4.8,0,7.1c0,2.7,0,5.3,0,7.7c0,2.5,0,4.9,0,7.4
			c0.2,2.5,0.3,4.8,0.3,7.1c0,2.5,0,4.8,0,7.1c0,2.2,0.1,4.5,0.3,6.7c0,2.3,0,4.5,0,6.7c0.2,2.2,0.3,4.4,0.3,6.4
			c0,2,0.1,4.2,0.3,6.4c0,2,0.1,3.9,0.3,5.7c0,2,0,4,0,6.1c0.2,1.8,0.3,3.6,0.3,5.4c0.2,1.8,0.3,3.6,0.3,5.4c0.2,1.8,0.3,3.5,0.3,5
			c0.2,1.8,0.3,3.5,0.3,5c0.2,1.6,0.3,3.1,0.3,4.7c0.2,1.3,0.3,2.8,0.3,4.4c0,1.3,0.1,2.7,0.3,4c0,1.4,0.1,2.7,0.3,4
			c0,1.3,0,2.6,0,3.7c0.2,1.1,0.3,2.4,0.3,3.7c0,0.9,0.1,1.9,0.3,3c0,1.1,0,2.1,0,3c0,0.9,0.1,1.8,0.3,2.7c0,0.9,0,1.8,0,2.7
			c0,0.7,0,1.4,0,2s0,1.4,0,2c0,0.7,0,1.2,0,1.7c0,0.5,0,1,0,1.7c0,0.2-0.1,0.6-0.3,1c0,0.5,0,0.8,0,1c-0.2,0.2-0.3,0.5-0.3,0.7
			c0,0.2-0.1,0.3-0.3,0.3c-0.4,0.2-0.9,0.5-1.3,0.7c-0.9,0.2-1.7,0.3-2.3,0.3c-1.1,0.2-2.3,0.4-3.4,0.7c-1.1,0-6.7,0.3-8.1,0.3
			c-1.8,0.2-3.5,0.3-5,0.3c-1.8,0-3.6,0-5.4,0c-1.8,0-9.4,0-11.5,0c-2,0-4,0-6,0c-2,0-9.8-0.1-11.8-0.3c-2,0-19.6-1-21.2-1
			c-1.4-0.2-10.1-1.4-10.1-1.4C653,548.8,649.3,536.7,648.9,535.1z"/>
		<path fill="#FFFFFF" d="M660.9,505.5c-0.2-0.7-0.7,0.1-1.7,2.5c-0.4,0.7-1,1.5-2,2.2c-0.7,0.6-1.4,1.2-2,2c-0.6,0.7-1.2,1.4-2,2
			c-0.7,0.7-1.4,1.4-2,2c-0.7,0.8-1.5,1.4-2.2,2c-0.7,0.6-1.4,1.1-2,1.7c-0.8,0.6-1.5,1.1-2.2,1.7c-0.7,0.4-1.5,0.8-2.2,1.4
			c-0.8,0.6-1.5,1-2.2,1.4c-0.8,0.4-1.5,0.8-2.2,1.4c-0.7,0.4-1.5,0.7-2.2,1.1s-1.6,0.7-2.5,1.1c-0.7,0.4-1.5,0.7-2.2,0.8
			c-0.7,0.4-1.6,0.7-2.5,1.1c-0.8,0.2-1.5,0.4-2.2,0.6c-0.7,0.4-1.6,0.7-2.5,0.8c-0.8,0.2-1.6,0.4-2.5,0.6c-0.8,0.2-1.5,0.4-2.2,0.6
			c-0.9,0.2-1.8,0.3-2.5,0.3c-0.8,0.2-1.6,0.3-2.5,0.3c-0.7,0.2-1.6,0.3-2.5,0.3c-0.7,0-1.6,0-2.5,0c-0.7,0.2-1.6,0.2-2.5,0
			c-0.7,0-1.5,0-2.2,0c-1,0-1.8,0-2.5,0c-0.9-0.2-1.8-0.3-2.5-0.3c-0.9-0.2-1.8-0.4-2.5-0.6c-0.7,0-1.6-0.1-2.5-0.3
			c-0.7-0.2-1.6-0.4-2.5-0.6c-0.7-0.2-1.5-0.4-2.2-0.6c-0.9-0.4-1.8-0.6-2.5-0.8c-0.7-0.2-1.6-0.5-2.5-0.8c-0.7-0.4-1.5-0.6-2.2-0.8
			c-0.7-0.4-1.6-0.7-2.5-1.1c-0.7-0.4-1.5-0.7-2.2-1.1c-0.7-0.4-1.5-0.8-2.2-1.1c-0.8-0.4-1.5-0.7-2.2-1.1c-0.7-0.6-1.5-1-2.2-1.4
			c-0.7-0.6-1.5-1-2.2-1.4c-0.7-0.6-1.5-1.1-2.2-1.7c-0.7-0.4-1.5-0.8-2.2-1.4c-0.7-0.6-1.4-1.1-2-1.7c-0.7-0.6-1.5-1.1-2.2-1.7
			c-0.6-0.7-1.2-1.4-2-2c-0.7-0.6-1.4-1.2-2-2c-0.6-0.6-1.2-1.2-2-2c-0.6-0.7-1.2-1.5-2-2.2c-0.6-0.6-1.1-1.2-1.7-2
			c-0.6-0.7-1.1-1.5-1.7-2.2c-0.5-0.8-1.1-1.6-1.7-2.5c-0.5-0.7-1.1-1.5-1.7-2.2c-0.6-0.9-1.1-1.8-1.7-2.5c-0.4-0.9-0.8-1.8-1.4-2.5
			c-0.6-0.9-1-1.8-1.4-2.8c-0.5-0.7-1-1.6-1.4-2.5c-0.4-0.9-0.8-1.9-1.4-2.8c-0.4-0.9-0.7-1.9-1.1-2.8c-0.4-1.1-0.7-2.1-1.1-3.1
			c-0.4-0.9-0.7-2-1.1-3.1c-0.4-0.9-0.7-2-0.8-3.1c-0.4-0.9-0.7-2-1.1-3.1c-0.2-1.1-0.4-2.1-0.6-3.1c-0.4-1.1-0.6-2.2-0.8-3.3
			c-0.2-1.1-0.4-2.2-0.5-3.3c-0.2-1.1-0.4-2.2-0.6-3.3c-0.2-1.3-0.4-2.5-0.5-3.6c0-1.1-0.1-2.3-0.3-3.6c0-1.1-0.1-2.3-0.3-3.6
			c0-1.1,0-2.3,0-3.6c0-1.3,0-2.5,0-3.6c0-1.3,0-2.6,0-3.9c0-1.3,0.1-2.6,0.3-3.9c0-1.3,0.1-2.6,0.3-3.9c0-1.5,0.1-2.9,0.3-4.2
			c0.2-1.3,0.4-2.6,0.5-3.9c0.2-1.5,0.4-2.9,0.6-4.2c0.4-1.7,0.7-3.3,1.1-4.7c0.2-1.5,0.5-3,0.8-4.5c0.4-1.5,0.7-2.9,1.1-4.2
			c0.4-1.5,0.8-2.9,1.4-4.2c0.4-1.5,0.8-2.9,1.4-4.2c0.4-1.3,0.8-2.6,1.4-3.9c0.5-1.3,1.1-2.5,1.7-3.6c0.6-1.3,1.1-2.5,1.7-3.6
			c0.6-1.3,1.2-2.5,2-3.6c0.6-1.1,1.2-2.2,2-3.3c0.6-1.1,1.2-2.1,2-3.1c0.7-1.1,1.5-2.1,2.2-3.1c0.7-1.1,1.5-2.1,2.2-3.1
			c0.7-0.9,1.5-1.9,2.2-2.8c0.7-0.9,1.5-1.9,2.2-2.8c0.9-0.7,1.8-1.6,2.5-2.5c0.9-0.7,1.8-1.5,2.5-2.2c0.9-0.7,1.9-1.5,2.8-2.2
			c0.8-0.7,1.6-1.5,2.5-2.2c0.9-0.7,1.9-1.4,2.8-2c0.9-0.7,1.9-1.4,2.8-2c0.9-0.6,1.8-1.1,2.8-1.7c0.9-0.6,1.8-1.1,2.8-1.7
			c1.1-0.6,2.2-1,3.1-1.4c0.9-0.6,2-1,3.1-1.4c0.9-0.4,1.9-0.8,2.8-1.4c1.1-0.4,2.1-0.7,3.1-1.1c1.1-0.2,2.1-0.5,3.1-0.8
			c1.1-0.4,2.1-0.6,3.1-0.8c1.1-0.4,2.1-0.6,3.1-0.8c1.1-0.2,2.1-0.4,3.1-0.6c1.1-0.2,2.1-0.4,3.1-0.6c1.1-0.2,2.2-0.3,3.3-0.3
			c0.9-0.2,2-0.3,3.1-0.3c0.9-0.2,2-0.3,3.1-0.3c1.1,0,2.2,0,3.1,0c1.1,0,2.1,0,3.1,0c1.1,0,2.1,0.1,3.1,0.3c1.1,0,2.1,0.1,3.1,0.3
			c1.1,0,2.1,0.1,3.1,0.3c1.1,0.2,2.1,0.4,3.1,0.6c0.9,0.2,2,0.4,3.1,0.6c0.9,0.4,1.8,0.6,2.8,0.8c1.1,0.2,2.1,0.5,3.1,0.8
			c0.9,0.4,1.8,0.8,2.8,1.1c0.9,0.2,1.8,0.5,2.8,0.8c0.9,0.4,1.9,0.8,2.8,1.1c0.9,0.6,1.9,1,2.8,1.4c0.8,0.4,1.6,0.8,2.5,1.4
			c0.9,0.6,1.8,1,2.5,1.4c0.9,0.6,1.8,1.1,2.5,1.7c0.9,0.6,1.8,1.1,2.5,1.7c1.1,0.4,1.8,0.9,2.2,1.7c1.3,2.1,2,2.7,2.2,2
			c0.7-1.5,1-3.4,0.8-5.9c-0.2-1.7,0-3.3,0.6-5c0.4-1.1,0.6-2.3,0.8-3.6c0-0.7,0.3-1.3,0.8-1.7c0.2-0.2,0.6-0.4,1.1-0.6
			c0.5-0.2,1.2-0.3,2-0.3c0.9-0.2,1.8-0.3,2.8-0.3c1.1-0.2,2.2-0.3,3.4-0.3c1.3,0,2.6,0,3.9,0c1.5,0,3,0,4.5,0c1.5,0,3.1,0,4.7,0
			c1.5,0,3.1,0,4.7,0c1.7,0,3.4,0.1,5,0.3c1.7,0,3.5,0.1,5.3,0.3c1.5,0,3.1,0.1,4.7,0.3c1.7,0.2,3.2,0.4,4.7,0.6
			c1.5,0.2,3,0.4,4.5,0.6c1.3,0.2,2.6,0.4,3.9,0.6c1.1,0.2,2.2,0.4,3.4,0.6c0.9,0.2,1.9,0.5,2.8,0.8c0.7,0.2,1.4,0.4,2,0.6
			c0.4,0.4,0.7,0.7,1.1,1.1l0.3,0.3c0,0.4,0,0.7,0,0.8c0,0.4,0,0.7,0,1.1c0,0.6,0,1.1,0,1.7s0,1.1,0,1.7c0,0.7,0,1.4,0,2
			c0,0.9,0,1.8,0,2.5c0,0.9-0.1,1.8-0.3,2.5c0,1.1,0,2.1,0,3.1c-0.2,1.1-0.3,2.1-0.3,3.1c0,1.3-0.1,2.5-0.3,3.6c0,1.1,0,2.3,0,3.6
			c-0.2,1.3-0.3,2.6-0.3,3.9c0,1.5-0.1,2.9-0.3,4.2c0,1.5,0,3,0,4.5c-0.2,1.5-0.3,3-0.3,4.5c0,1.7-0.1,3.3-0.3,5c0,1.7,0,3.3,0,4.7
			c-0.2,1.9-0.3,3.6-0.3,5.3c0,1.9,0,3.6,0,5.3c0,1.9-0.1,3.7-0.3,5.6c0,1.9,0,3.7,0,5.6c0,2.1,0,4,0,5.9c0,2.2,0,4.4,0,6.4
			c0,2,0,4.1,0,6.1c0.2,2.1,0.3,4,0.3,5.9c0,2,0,4,0,5.9c0,1.9,0.1,3.7,0.3,5.6c0,1.9,0,3.7,0,5.6c0.2,1.9,0.3,3.6,0.3,5.3
			c0,1.7,0.1,3.4,0.3,5.3c0,1.7,0.1,3.2,0.3,4.7c0,1.7,0,3.3,0,5c0.2,1.5,0.3,3,0.3,4.5c0.2,1.5,0.3,3,0.3,4.5
			c0.2,1.5,0.3,2.9,0.3,4.2c0.2,1.5,0.3,2.9,0.3,4.2c0.2,1.3,0.3,2.6,0.3,3.9c0.2,1.1,0.3,2.3,0.3,3.6c0,1.1,0.1,2.2,0.3,3.3
			c0,1.1,0.1,2.2,0.3,3.3c0,1.1,0,2.1,0,3.1c0.2,0.9,0.3,2,0.3,3.1c0,0.7,0.1,1.6,0.3,2.5c0,0.9,0,1.8,0,2.5c0,0.8,0.1,1.5,0.3,2.2
			c0,0.7,0,1.5,0,2.2c0,0.6,0,1.1,0,1.7c0,0.6,0,1.1,0,1.7c0,0.6,0,1,0,1.4c0,0.4,0,0.8,0,1.4c0,0.2-0.1,0.5-0.3,0.8
			c0,0.4,0,0.6,0,0.8c-0.2,0.2-0.3,0.4-0.3,0.6c0,0.2-0.1,0.3-0.3,0.3c-0.4,0.2-0.7,0.4-1.1,0.6c-0.7,0.2-1.4,0.3-2,0.3
			c-0.9,0.2-1.9,0.4-2.8,0.6c-0.9,0-2,0.1-3.1,0.3c-1.3,0-2.5,0-3.6,0c-1.5,0.2-2.9,0.3-4.2,0.3c-1.5,0-3,0-4.5,0
			c-1.5,0-3.1,0-4.7,0c-1.5,0-3.1,0-4.7,0c-1.7,0-3.4,0-5,0c-1.7,0-3.3,0-5,0c-1.5,0-3.1-0.1-4.7-0.3c-1.7,0-3.2-0.1-4.7-0.3
			c-1.7,0-3.2,0-4.7,0c-1.3-0.2-2.7-0.3-4.2-0.3c-1.3-0.2-2.6-0.3-3.9-0.3c-1.1-0.2-2.2-0.3-3.3-0.3c-0.9-0.2-1.9-0.4-2.8-0.6
			c-0.8,0-1.5-0.1-2.2-0.3c-0.6-0.2-1.1-0.3-1.7-0.3c-0.4-0.2-0.7-0.4-0.8-0.6c-0.6-0.6-0.9-1.2-1.1-2c-0.4-0.8-0.7-1.5-0.8-2.2
			c-0.4-1.1-0.6-2.1-0.6-3.1c-0.2-1.3-0.3-2.5-0.3-3.6c0.2-1.3,0.3-2.7,0.3-4.2c-0.4-1.5-0.4-3,0-4.5
			C661.2,508.5,661.3,506.8,660.9,505.5z M634.4,398c-1.1-0.2-2.3-0.3-3.6-0.3c-1.3,0-2.5,0-3.6,0c-1.3,0.2-2.5,0.5-3.6,0.8
			c-1.1,0.4-2.2,0.7-3.3,1.1c-1.1,0.6-2.2,1.2-3.1,2c-1.1,0.6-2.1,1.2-3.1,2c-0.9,0.7-1.8,1.6-2.5,2.5c-0.9,0.9-1.8,1.9-2.5,2.8
			c-0.7,0.9-1.5,2-2.2,3.1c-0.6,0.9-1.1,2-1.7,3.1c-0.5,1.3-1.1,2.5-1.7,3.6c-0.4,1.1-0.7,2.3-1.1,3.6c-0.2,1.1-0.4,2.3-0.5,3.6
			c-0.2,1.3-0.3,2.6-0.3,3.9c0,1.1,0,2.3,0,3.6c0.2,1.3,0.5,2.5,0.8,3.6c0.4,1.1,0.8,2.2,1.1,3.4c0.4,1.3,0.8,2.4,1.4,3.3
			c0.7,1.1,1.4,2.1,2,3.1c0.7,1.1,1.5,2.1,2.2,3.1c0.8,0.9,1.6,1.8,2.5,2.5c0.9,0.7,1.9,1.5,2.8,2.2c0.9,0.7,1.8,1.4,2.8,2
			c0.9,0.7,2,1.3,3.1,1.7c1.1,0.4,2.1,0.7,3.1,1.1c1.1,0.4,2.2,0.7,3.3,0.8c1.1,0.2,2.2,0.3,3.4,0.3c1.1,0,2.2-0.1,3.3-0.3
			c1.3-0.2,2.6-0.5,3.9-0.8c1.3-0.4,2.6-0.8,3.9-1.4c1.3-0.4,2.5-0.8,3.6-1.4c1.1-0.7,2.2-1.5,3.3-2.2c1.1-0.6,2.2-1.3,3.1-2.2
			c0.9-0.7,1.8-1.6,2.8-2.5c0.9-0.9,1.7-2,2.5-3.1c0.7-0.9,1.4-2,2-3.1c0.6-1.1,1.1-2.2,1.7-3.3c0.5-1.3,1-2.5,1.4-3.6
			c0.2-1.3,0.4-2.6,0.6-3.9c0.2-1.3,0.4-2.6,0.5-3.9c0-1.5-0.1-2.9-0.3-4.2c-0.2-1.3-0.4-2.5-0.5-3.6c-0.4-1.3-0.7-2.5-1.1-3.6
			c-0.5-1.1-1.1-2.2-1.7-3.3c-0.6-0.9-1.2-2-2-3.1c-0.7-0.9-1.6-1.8-2.5-2.5c-0.7-0.9-1.6-1.8-2.5-2.5c-1.1-0.9-2.1-1.7-3.1-2.2
			c-1.1-0.7-2.2-1.4-3.3-2c-1.1-0.6-2.3-1.1-3.6-1.7c-1.1-0.4-2.3-0.7-3.6-1.1C637,398.5,635.7,398.2,634.4,398z"/>
	</g>
	<g>
		<path d="M288.7,218.2c0.2-0.4,0.5-0.7,0.9-0.9c0.4-0.4,0.9-0.7,1.4-0.9c0.6-0.2,1.3-0.4,2-0.6c0.8-0.2,1.6-0.4,2.6-0.6
			c1-0.2,1.9-0.4,2.9-0.6c1.3-0.2,2.6-0.4,3.8-0.6c1.3,0,2.7-0.1,4-0.3c1.3,0,2.7-0.1,4.1-0.3c1.5,0,3.1,0,4.6,0
			c1.5-0.2,3.2-0.3,4.9-0.3c1.5,0,3.2,0,4.9,0c1.5,0,3.2,0,4.9,0c1.5,0.2,3.2,0.3,4.9,0.3c1.7,0,3.4,0.1,4.9,0.3
			c1.7,0,3.4,0.1,4.9,0.3c1.5,0.2,3.1,0.4,4.6,0.6c1.5,0,3,0.1,4.3,0.3c1.5,0.2,3,0.4,4.3,0.6c1.2,0.4,2.4,0.7,3.8,0.9
			c1.2,0.2,2.2,0.5,3.2,0.9c1,0.2,1.9,0.5,2.9,0.9c0.8,0.2,1.5,0.5,2.3,0.9c0.6,0.4,12.2,3.5,18.4,11.2c6.1,7.6,18.9,48.5,18.9,48.5
			c0-0.2,15.7-41.6,23.3-49.6c7.6-7.9,18.9-11.3,19.3-11.5c0.8-0.2,1.5-0.5,2.3-0.9c1-0.2,1.8-0.4,2.6-0.6c1.2-0.2,2.3-0.4,3.5-0.6
			c1.2-0.2,2.4-0.4,3.8-0.6c1.3-0.2,2.7-0.4,4.1-0.6c1.3-0.2,2.8-0.3,4.3-0.3c1.5-0.2,3.1-0.4,4.6-0.6c1.5,0,3.2,0,4.9,0
			c1.5-0.2,3.2-0.3,4.9-0.3c1.5,0,3.2,0,4.9,0c1.5,0,3.2,0,4.9,0c1.5,0,3.1,0,4.6,0c1.5,0.2,3.1,0.3,4.6,0.3c1.5,0.2,3,0.4,4.3,0.6
			c1.3,0,2.7,0.1,4,0.3c1.3,0.2,2.6,0.4,3.8,0.6c1.2,0.2,2.2,0.4,3.2,0.6c1,0.4,1.8,0.7,2.6,0.9c0.8,0.4,1.5,0.7,2.3,0.9
			c0.6,0.4,14.4,2.8,16.8,21.5c2.5,22.2-59.2,146-59.4,146.2c0,0.2,74.5,130.3,73.3,139.4S538.5,545,538,545.2
			c-0.8,0.6-1.5,1-2.3,1.2c-0.8,0.4-1.6,0.8-2.6,1.2c-1,0.4-2,0.8-3.2,1.2c-1.2,0.2-2.3,0.5-3.5,0.9c-1.2,0.2-2.4,0.5-3.8,0.9
			c-1.4,0.2-2.8,0.5-4.3,0.9c-1.4,0.2-2.8,0.4-4.3,0.6c-1.5,0.2-3.1,0.4-4.6,0.6c-1.5,0.2-3.2,0.4-4.9,0.6c-1.5,0.2-3.2,0.4-4.9,0.6
			c-1.5,0.2-3.2,0.3-4.9,0.3c-1.7,0.2-3.5,0.3-5.2,0.3c-1.5,0.2-3.2,0.3-4.9,0.3s-3.4,0.1-4.9,0.3c-1.5,0-3.2,0-4.9,0
			c-1.5,0-3.1,0-4.6,0c-1.5-0.2-3.1-0.3-4.6-0.3c-1.4,0-2.7-0.1-4.1-0.3c-1.3,0-2.7-0.1-4-0.3c-1.2-0.2-2.3-0.3-3.5-0.3
			c-1.2-0.2-2.2-0.4-3.2-0.6c-1-0.2-1.9-0.5-2.9-0.9c-0.6-0.2-4.8,0.4-10.3-2.5c-15.1-8.4-28.1-46.8-28.5-47.6
			c-0.4-0.6-7,44.5-33.2,47.2c0,0-7,1.5-7.8,1.7c-1,0.2-1.9,0.4-2.9,0.6c-1.2,0.2-2.2,0.4-3.2,0.6c-1.3,0-2.6,0.1-3.8,0.3
			c-1.4,0.2-2.7,0.3-4,0.3c-1.4,0.2-2.7,0.4-4.1,0.6c-1.5,0-3,0-4.3,0c-1.5,0.2-3.1,0.3-4.6,0.3c-1.7,0-3.4,0.1-4.9,0.3
			c-1.5,0-3.2,0-4.9,0c-1.5,0-3.2,0-4.9,0c-1.5,0-3.2,0-4.9,0c-1.5-0.2-3.1-0.3-4.6-0.3c-1.7,0-3.4-0.1-4.9-0.3
			c-1.5,0-3.1-0.1-4.6-0.3c-1.5,0-3.1-0.1-4.6-0.3c-1.3-0.2-2.7-0.4-4-0.6c-1.4-0.2-2.7-0.4-4.1-0.6c-1.3-0.2-2.6-0.4-3.8-0.6
			c-1.2-0.2-2.3-0.5-3.5-0.9c-1-0.2-1.9-0.4-2.9-0.6c-1-0.4-1.8-0.8-2.6-1.2c-0.8-0.2-1.4-0.5-2-0.9c-0.6-0.4-2.9-3-2.9-3.2
			c0-0.4-12.3-10.9-12.3-22.1c0-11.2,74.3-138.2,74.4-138.4c0.2-0.2-62.5-137.4-62.7-146.1C276,225.5,288.7,218.4,288.7,218.2z"/>
		<path fill="#FFFFFF" d="M298,239.3c0.2-0.3,0.4-0.6,0.8-0.8c0.4-0.3,0.8-0.6,1.3-0.8c0.5-0.2,1.2-0.3,1.9-0.5
			c0.7-0.2,1.5-0.3,2.4-0.5c0.9-0.2,1.8-0.3,2.7-0.5c1.2-0.2,2.4-0.3,3.5-0.5c1.2,0,2.5-0.1,3.7-0.3c1.2,0,2.5-0.1,3.7-0.3
			c1.4,0,2.8,0,4.3,0c1.4-0.2,2.9-0.3,4.5-0.3c1.4,0,2.9,0,4.5,0c1.4,0,2.9,0,4.5,0c1.4,0.2,2.9,0.3,4.5,0.3c1.6,0,3.1,0.1,4.5,0.3
			c1.6,0,3.1,0.1,4.5,0.3c1.4,0.2,2.8,0.3,4.3,0.5c1.4,0,2.8,0.1,4,0.3c1.4,0.2,2.8,0.3,4,0.5c1.1,0.3,2.2,0.6,3.5,0.8
			c1.1,0.2,2,0.4,2.9,0.8c0.9,0.2,1.8,0.4,2.7,0.8c0.7,0.2,1.4,0.4,2.1,0.8c0.5,0.3,1.1,0.7,1.6,1c0.5,0.3,1,0.8,1.3,1.3
			c0.5,0.5,1.1,1.1,1.6,1.8c0.5,0.7,1.1,1.5,1.6,2.3c0.5,0.9,1.1,1.8,1.6,2.8c0.5,1,1.1,2,1.6,3.1c0.7,1.2,1.3,2.3,1.9,3.3
			c0.7,1.4,1.3,2.6,1.9,3.8c0.5,1.4,1.2,2.6,1.9,3.8c0.5,1.4,1.2,2.7,1.9,4.1c0.5,1.4,1.2,2.8,1.9,4.3c0.5,1.4,1.2,2.7,1.9,4.1
			c0.5,1.4,1.1,2.7,1.6,4.1c0.5,1.4,1.2,2.8,1.9,4.3c0.5,1.2,1.1,2.5,1.6,3.8c0.5,1.4,1,2.6,1.3,3.8c0.5,1.2,1.1,2.4,1.6,3.6
			c0.4,1.2,0.7,2.3,1.1,3.3c0.5,1,1,2,1.3,2.8c0.2,0.9,0.4,1.7,0.8,2.6c0.4,0.7,0.6,1.4,0.8,2c0.2,0.5,0.4,1,0.5,1.5
			c0.2,0.3,0.4,0.7,0.5,1v0.5c0-0.2,0.1-0.3,0.3-0.5c0-0.3,0.1-0.6,0.3-0.8c0.4-0.5,0.6-1,0.8-1.5c0.4-0.7,0.7-1.4,1.1-2
			c0.4-0.8,0.7-1.7,1.1-2.6c0.5-0.9,1.1-1.8,1.6-2.8c0.5-1,1.1-2.1,1.6-3.3c0.5-1,1.1-2.1,1.6-3.3c0.7-1.4,1.4-2.6,2.1-3.8
			c0.5-1.4,1.2-2.6,1.9-3.8c0.7-1.4,1.4-2.7,2.1-4.1c0.7-1.5,1.4-3,2.1-4.3c0.7-1.4,1.4-2.7,2.1-4.1c0.7-1.4,1.5-2.7,2.4-4.1
			c0.7-1.4,1.4-2.7,2.1-4.1c0.7-1.4,1.4-2.7,2.1-4.1c0.7-1.2,1.4-2.4,2.1-3.6c0.7-1.2,1.4-2.4,2.1-3.6c0.5-1.2,1.2-2.3,1.9-3.3
			c0.5-1,1.2-2,1.9-2.8c0.5-0.9,1.1-1.7,1.6-2.6c0.5-0.7,1-1.4,1.3-2c0.5-0.5,1-1,1.3-1.5c0.4-0.3,0.7-0.7,1.1-1
			c0.5-0.3,1-0.6,1.3-0.8c0.7-0.2,1.4-0.4,2.1-0.8c0.9-0.2,1.7-0.3,2.4-0.5c1.1-0.2,2.1-0.3,3.2-0.5c1.1-0.2,2.2-0.3,3.5-0.5
			c1.2-0.2,2.5-0.3,3.7-0.5c1.2-0.2,2.6-0.3,4-0.3c1.4-0.2,2.8-0.3,4.3-0.5c1.4,0,2.9,0,4.5,0c1.4-0.2,2.9-0.3,4.5-0.3
			c1.4,0,2.9,0,4.5,0c1.4,0,2.9,0,4.5,0c1.4,0,2.8,0,4.3,0c1.4,0.2,2.8,0.3,4.3,0.3c1.4,0.2,2.8,0.3,4,0.5c1.2,0,2.5,0.1,3.7,0.3
			c1.2,0.2,2.4,0.3,3.5,0.5c1.1,0.2,2,0.3,2.9,0.5c0.9,0.3,1.7,0.6,2.4,0.8c0.7,0.3,1.4,0.6,2.1,0.8c0.5,0.3,1,0.7,1.3,1
			c0.2,0.2,0.3,0.3,0.3,0.5c0,0.3,0.1,0.6,0.3,0.8c0,0.5,0,0.9,0,1.3c-0.2,0.3-0.3,0.8-0.3,1.3c-0.2,0.5-0.3,1-0.3,1.5
			c-0.2,0.7-0.4,1.4-0.5,2c-0.2,0.7-2,6-2.4,6.6c-0.4,1-1.8,4.8-2.1,5.6c-0.4,1-0.7,2-1.1,3.1c-0.5,1-1,2-1.3,3.1
			c-0.5,1.2-1.1,2.3-1.6,3.3c-0.4,1.2-0.8,2.4-1.3,3.6c-0.5,1.2-1.1,2.4-1.6,3.6c-0.5,1.2-1.1,2.5-1.6,3.8c-0.7,1.2-1.3,2.4-1.9,3.6
			c-0.5,1.4-1.2,2.7-1.9,4.1c-0.5,1.2-1.2,2.5-1.9,3.8c-0.5,1.4-1.2,2.7-1.9,4.1c-0.5,1.4-1.2,2.7-1.9,4.1c-0.7,1.4-1.3,2.7-1.9,4.1
			c-0.7,1.4-1.4,2.7-2.1,4.1c-0.7,1.4-1.3,2.7-1.9,4.1c-0.7,1.4-1.4,2.7-2.1,4.1c-0.7,1.4-1.4,2.7-2.1,4.1c-0.5,1.5-1.2,3-1.9,4.3
			c-0.7,1.4-1.4,2.7-2.1,4.1c-0.7,1.4-1.4,2.6-2.1,3.8c-0.5,1.4-1.2,2.7-1.9,4.1c-0.7,1.4-1.4,2.7-2.1,4.1c-0.5,1.2-1.2,2.5-1.9,3.8
			c-0.5,1.2-1.2,2.4-1.9,3.6c-0.5,1.2-1.2,2.5-1.9,3.8c-0.5,1.2-1.2,2.4-1.9,3.6c-0.5,1-1.1,2.1-1.6,3.3c-0.7,1-1.3,2.1-1.9,3.3
			c-0.5,1-1.1,2-1.6,3.1c-0.5,1-1.1,2-1.6,3.1c-0.4,0.9-0.8,1.8-1.3,2.8c-0.5,0.9-1,1.7-1.3,2.6c-0.4,0.9-0.8,1.7-1.3,2.6
			c-0.4,0.7-0.7,1.4-1.1,2c-0.4,0.7-0.7,1.4-1.1,2c-0.4,0.7-0.7,1.3-1.1,1.8c-0.2,0.5-0.4,1-0.8,1.5c-0.2,0.5-0.4,0.9-0.5,1.3
			c-0.2,0.3-0.4,0.7-0.5,1c-0.2,0.3-0.4,0.6-0.5,0.8c0,0.2-0.1,0.3-0.3,0.5c0,0.2,0.1,0.3,0.3,0.3c0,0.2,0.1,0.3,0.3,0.5
			c0,0.2,0.1,0.3,0.3,0.5c0.4,0.3,0.6,0.7,0.8,1c0.2,0.5,0.4,0.9,0.8,1.3c0.4,0.5,0.7,1,1.1,1.5c0.4,0.5,0.7,1,1.1,1.5
			c0.4,0.7,2.1,3.4,2.7,4.1c0.5,0.9,1.1,1.6,1.6,2.3c0.5,0.9,1.1,1.7,1.6,2.6c0.5,0.9,1.1,1.8,1.6,2.8c0.7,0.9,1.3,1.8,1.9,2.8
			c0.7,1,1.4,2,2.1,2.8c0.7,1.2,1.3,2.3,1.9,3.3c0.7,1,1.4,2.1,2.1,3.3c0.9,1,1.7,2.1,2.4,3.3c0.7,1.2,1.4,2.3,2.1,3.3
			c0.7,1.4,1.5,2.6,2.4,3.8c0.7,1.2,1.5,2.4,2.4,3.6c0.7,1.2,1.5,2.5,2.4,3.8c0.7,1.2,1.5,2.4,2.4,3.6c0.7,1.4,1.5,2.7,2.4,4.1
			c0.9,1.2,1.7,2.5,2.4,3.8c0.9,1.4,1.7,2.6,2.4,3.8c0.9,1.4,1.8,2.7,2.7,4.1c0.7,1.2,1.5,2.5,2.4,3.8c0.7,1.4,1.5,2.7,2.4,4.1
			c0.9,1.2,1.7,2.5,2.4,3.8c0.9,1.4,1.7,2.6,2.4,3.8c0.7,1.4,1.5,2.6,2.4,3.8c0.7,1.4,1.4,2.6,2.1,3.8c0.7,1.4,1.5,2.6,2.4,3.8
			c0.7,1.2,1.4,2.5,2.1,3.8c0.7,1.2,1.3,2.4,1.9,3.6c0.7,1,1.4,2.1,2.1,3.3c0.7,1.2,1.3,2.4,1.9,3.6c0.5,1,2.9,5.4,3.5,6.4
			c0.5,1,1.1,2,1.6,3.1c0.5,0.9,1.1,1.8,1.6,2.8c0.4,0.9,0.7,1.7,1.1,2.6c0.5,0.9,1,1.7,1.3,2.6c0.4,0.9,0.7,1.6,1.1,2.3
			c0.2,0.9,0.4,1.6,0.8,2.3c0.2,0.7,0.4,1.4,0.8,2c0.2,0.5,0.4,1,0.5,1.5c0.2,0.5,0.3,1,0.3,1.5c0.2,0.5,0.3,0.9,0.3,1.3
			c0,0.3,0,0.7,0,1c-0.2,0.3-0.3,0.6-0.3,0.8c-0.4,0.3-0.7,0.7-1.1,1c-0.4,0.5-0.8,0.9-1.3,1c-0.7,0.5-1.4,0.9-2.1,1
			c-0.7,0.3-1.5,0.7-2.4,1c-0.9,0.3-1.9,0.7-2.9,1c-1.1,0.2-2.1,0.4-3.2,0.8c-1.1,0.2-2.2,0.4-3.5,0.8c-1.2,0.2-2.6,0.4-4,0.8
			c-1.2,0.2-2.6,0.3-4,0.5c-1.4,0.2-2.8,0.3-4.3,0.5c-1.4,0.2-2.9,0.3-4.5,0.5c-1.4,0.2-2.9,0.3-4.5,0.5c-1.4,0.2-2.9,0.3-4.5,0.3
			c-1.6,0.2-3.2,0.3-4.8,0.3c-1.4,0.2-2.9,0.3-4.5,0.3s-3.1,0.1-4.5,0.3c-1.4,0-2.9,0-4.5,0c-1.4,0-2.8,0-4.3,0
			c-1.4-0.2-2.8-0.3-4.3-0.3c-1.2,0-2.5-0.1-3.7-0.3c-1.2,0-2.5-0.1-3.7-0.3c-1.1-0.2-2.1-0.3-3.2-0.3c-1.1-0.2-2-0.3-2.9-0.5
			c-0.9-0.2-1.8-0.4-2.7-0.8c-0.5-0.2-1.2-0.3-1.9-0.5c-0.5-0.3-1.1-0.6-1.6-0.8c-0.4-0.3-0.7-0.7-1.1-1c-0.4-0.3-0.7-0.8-1.1-1.3
			c-0.5-0.7-1-1.4-1.3-2c-0.5-0.8-1.1-1.7-1.6-2.6c-0.5-0.9-1.1-1.8-1.6-2.8c-0.5-1-1.2-2.1-1.9-3.3c-0.7-1.2-1.3-2.3-1.9-3.3
			c-0.7-1.4-1.4-2.6-2.1-3.8c-0.7-1.2-1.4-2.5-2.1-3.8c-0.7-1.4-1.4-2.7-2.1-4.1c-0.7-1.2-1.4-2.5-2.1-3.8c-0.7-1.4-1.4-2.7-2.1-4.1
			c-0.5-1.4-1.2-2.6-1.9-3.8c-0.7-1.4-1.3-2.6-1.9-3.8c-0.7-1.2-1.3-2.4-1.9-3.6c-0.5-1-1.2-2.1-1.9-3.3c-0.4-0.9-0.8-1.8-1.3-2.8
			c-0.5-0.8-1-1.7-1.3-2.6c-0.4-0.7-0.7-1.4-1.1-2c-0.4-0.5-0.6-1-0.8-1.5c-0.2-0.3-0.4-0.7-0.5-1c0-0.3-0.1-0.4-0.3-0.3v0.3
			c-0.2,0.3-0.4,0.8-0.5,1.3c-0.2,0.5-0.4,1-0.8,1.5c-0.2,0.9-0.4,1.7-0.8,2.6c-0.5,0.9-1,1.8-1.3,2.8c-0.4,1-0.8,2.1-1.3,3.3
			c-0.5,1.2-1.1,2.4-1.6,3.6c-0.5,1.4-1.1,2.6-1.6,3.8c-0.7,1.4-1.3,2.7-1.9,4.1c-0.7,1.5-1.4,3-2.1,4.3c-0.5,1.4-1.2,2.8-1.9,4.4
			c-0.7,1.4-1.4,2.7-2.1,4.1c-0.7,1.4-1.4,2.7-2.1,4.1c-0.7,1.4-3.3,6.5-4,7.7c-0.7,1.2-1.4,2.3-2.1,3.3c-0.5,1-1.2,2-1.9,2.8
			c-0.5,0.9-1.1,1.7-1.6,2.6c-0.5,0.7-1.2,1.3-1.9,1.8c-0.4,0.5-0.8,0.9-1.3,1.3c-0.4,0.2-0.8,0.3-1.3,0.5c-0.5,0.2-1.2,0.3-1.9,0.5
			c-0.7,0.2-1.4,0.3-2.1,0.5c-0.9,0.2-1.8,0.3-2.7,0.5c-1.1,0.2-2,0.3-2.9,0.5c-1.2,0-2.4,0.1-3.5,0.3c-1.2,0.2-2.5,0.3-3.7,0.3
			c-1.2,0.2-2.5,0.3-3.7,0.5c-1.4,0-2.8,0-4,0c-1.4,0.2-2.8,0.3-4.3,0.3c-1.6,0-3.1,0.1-4.5,0.3c-1.4,0-2.9,0-4.5,0
			c-1.4,0-2.9,0-4.5,0c-1.4,0-2.9,0-4.5,0c-1.4-0.2-2.8-0.3-4.3-0.3c-1.6,0-3.1-0.1-4.5-0.3c-1.4,0-2.8-0.1-4.3-0.3
			c-1.4,0-2.8-0.1-4.3-0.3c-1.2-0.2-2.5-0.3-3.7-0.5c-1.2-0.2-2.5-0.3-3.7-0.5s-2.4-0.3-3.5-0.5c-1.1-0.2-2.1-0.4-3.2-0.8
			c-0.9-0.2-1.8-0.3-2.7-0.5c-0.9-0.3-1.7-0.7-2.4-1c-0.7-0.2-1.3-0.4-1.9-0.8c-0.5-0.3-1.1-0.7-1.6-1c-0.4-0.3-0.6-0.7-0.8-1
			c-0.2-0.3-0.3-0.6-0.3-0.8c0-0.3,0-0.7,0-1c0-0.5,0-0.9,0-1.3c0.2-0.5,0.4-1,0.5-1.5c0-0.5,0.1-1,0.3-1.5c0.2-0.7,0.4-1.4,0.8-2
			c0.2-0.7,0.4-1.4,0.8-2c0.2-0.9,0.4-1.6,0.8-2.3c0.4-0.9,0.7-1.7,1.1-2.6c0.5-1,1-2,1.3-2.8c0.4-0.8,0.8-1.8,1.3-2.8
			c0.5-1,1-2,1.3-3.1c0.5-1,1.1-2,1.6-3.1c0.5-1,1.1-2.1,1.6-3.3c0.7-1,1.3-2.1,1.9-3.3c0.5-1.2,1.2-2.4,1.9-3.6
			c0.7-1.2,1.3-2.4,1.9-3.6c0.7-1.2,1.4-2.4,2.1-3.6c0.5-1.4,1.2-2.6,1.9-3.8c0.7-1.2,1.4-2.5,2.1-3.8c0.7-1.2,1.4-2.5,2.1-3.8
			c0.9-1.4,1.7-2.6,2.4-3.8c0.7-1.4,1.4-2.7,2.1-4.1c0.7-1.4,1.5-2.6,2.4-3.8c0.7-1.4,1.4-2.7,2.1-4.1c0.9-1.4,1.7-2.7,2.4-4.1
			c0.7-1.2,1.5-2.5,2.4-3.8c0.7-1.4,1.4-2.7,2.1-4.1c0.9-1.2,1.7-2.5,2.4-3.8c0.7-1.2,1.5-2.5,2.4-3.8c0.7-1.2,1.4-2.5,2.1-3.8
			c0.7-1.2,1.5-2.5,2.4-3.8c0.7-1.2,1.4-2.4,2.1-3.6c0.7-1.2,1.4-2.4,2.1-3.6c0.7-1.2,1.4-2.4,2.1-3.6c0.7-1,1.4-2.1,2.1-3.3
			c0.5-1,1.2-2.1,1.9-3.3c0.7-1,1.3-2,1.9-3.1c0.7-1,1.3-2,1.9-3.1c0.5-0.9,1.2-1.8,1.9-2.8c0.5-0.8,1.1-1.7,1.6-2.6
			c0.5-0.9,1-1.7,1.3-2.6c0.5-0.7,1.1-1.4,1.6-2.3c0.4-0.7,0.8-1.4,1.3-2c0.4-0.7,0.7-1.4,1.1-2c0.4-0.5,0.7-1,1.1-1.5
			c0.4-0.5,0.6-1,0.8-1.5c0.4-0.3,0.6-0.8,0.8-1.3c0.2-0.3,0.4-0.6,0.5-0.8c0.2-0.3,0.4-0.6,0.5-0.8c0.2-0.2,0.3-0.3,0.3-0.5v-0.3
			c0-0.2-0.1-0.3-0.3-0.5c0-0.3-0.1-0.6-0.3-0.8c-0.2-0.3-0.4-0.7-0.5-1c-0.2-0.5-0.4-1-0.8-1.5c-0.2-0.5-0.4-1-0.8-1.5
			c-0.4-0.7-0.6-1.4-0.8-2c-0.4-0.7-0.7-1.4-1.1-2c-0.4-0.9-0.8-1.6-1.3-2.3c-0.4-0.9-0.7-1.7-1.1-2.6c-0.5-1-1-2-1.3-2.8
			c-0.5-1-1.1-2-1.6-3.1c-0.5-1-1.1-2-1.6-3.1c-0.5-1.2-1.1-2.3-1.6-3.3c-0.5-1.2-1.1-2.4-1.6-3.6c-0.5-1.2-1.2-2.4-1.9-3.6
			c-0.5-1.4-1.1-2.6-1.6-3.8c-0.7-1.2-1.3-2.5-1.9-3.8c-0.7-1.4-1.4-2.6-2.1-3.8c-0.5-1.4-1.2-2.7-1.9-4.1c-0.7-1.4-1.3-2.7-1.9-4.1
			c-0.7-1.5-1.4-3-2.1-4.3c-0.7-1.4-1.3-2.7-1.9-4.1c-0.7-1.5-1.4-3-2.1-4.3c-0.7-1.4-1.4-2.8-2.1-4.3c-0.5-1.4-1.2-2.7-1.9-4.1
			c-0.7-1.5-1.4-3-2.1-4.3c-0.7-1.4-1.3-2.8-1.9-4.3c-0.7-1.4-1.4-2.7-2.1-4.1c-0.5-1.4-1.2-2.8-1.9-4.3c-0.7-1.4-1.3-2.7-1.9-4.1
			c-0.7-1.4-1.3-2.7-1.9-4.1c-0.7-1.2-1.3-2.5-1.9-3.8c-0.5-1.4-1.2-2.6-1.9-3.8c-0.5-1.4-1.1-2.6-1.6-3.8c-0.5-1.2-1.1-2.4-1.6-3.6
			c-0.5-1.2-1.1-2.4-1.6-3.6c-0.5-1.2-1.1-2.3-1.6-3.3c-0.4-1-0.8-2.1-1.3-3.3c-0.4-0.8-0.8-1.8-1.3-2.8c-0.4-1-0.7-2-1.1-2.8
			c-0.4-0.8-0.7-1.8-1.1-2.8c-0.4-0.7-0.7-1.4-1.1-2.3c-0.2-0.7-0.4-1.4-0.8-2.3c-0.2-0.5-0.4-1.1-0.8-1.8c-0.2-0.5-0.4-1.1-0.5-1.8
			c0-0.3-0.1-0.8-0.3-1.3c-0.2-0.3-0.3-0.8-0.3-1.3c-0.2-0.2-0.3-0.4-0.3-0.8C298,239.6,298,239.5,298,239.3z"/>
	</g>
</g>
</svg>
