<?xml version="1.0" encoding="utf-8"?>
<!-- Generator: Adobe Illustrator 18.0.0, SVG Export Plug-In . SVG Version: 6.00 Build 0)  -->
<!DOCTYPE svg PUBLIC "-//W3C//DTD SVG 1.1//EN" "http://www.w3.org/Graphics/SVG/1.1/DTD/svg11.dtd">
<svg version="1.1" id="Camada_1" xmlns="http://www.w3.org/2000/svg" xmlns:xlink="http://www.w3.org/1999/xlink" x="0px" y="0px"
	 viewBox="0 0 1024 768" enable-background="new 0 0 1024 768" xml:space="preserve">
<g>
	<defs>
		<circle id="SVGID_1_" cx="511.9" cy="383.4" r="375.7"/>
	</defs>
	<clipPath id="SVGID_2_">
		<use xlink:href="#SVGID_1_"  overflow="visible"/>
	</clipPath>
	<g clip-path="url(#SVGID_2_)" enable-background="new    ">
		
			<image overflow="visible" width="2474" height="2474" xlink:href="../../banco de imagens/botões/butt 25.png"  transform="matrix(0.3065 0 0 0.3065 132.8006 4.7999)">
		</image>
	</g>
</g>
<g>
	<g>
		<g>
			<g>
				<path d="M722.5,323.5c0.2,0.2,0.4,0.4,0.6,0.6c0.2,0.2,0.3,0.5,0.3,0.9c0.2,0.4,0.4,0.8,0.6,1.3c0,0.4,0.1,0.9,0.3,1.5
					c0.2,0.6,0.3,1.2,0.3,1.9c0,0.8,0.1,1.7,0.3,2.5c0,0.8,0,1.7,0,2.5c0.2,0.8,0.3,1.7,0.3,2.8c0,1,0,2.1,0,3.1
					c0.2,1.3,0.3,2.4,0.3,3.4c0,1.2,0,2.5,0,3.7s0,2.5,0,3.7c0,1.4,0,2.9,0,4.3c0,1.2,0,2.6,0,4c0,1.7,0,3.2,0,4.6
					c0,1.5-0.1,3-0.3,4.7c0,1.7,0,3.2,0,4.6c0,1.7,0,3.3,0,5s0,3.4,0,5.3c-0.2,1.7-0.3,3.3-0.3,5c0,1.9,0,3.6,0,5.3
					c0,1.9,0,3.7,0,5.6c0,1.7,0,3.4,0,5.3c-0.2,1.8-0.3,3.7-0.3,5.6c0,1.9,0,3.6,0,5.3c0,1.9,0,3.7,0,5.6c0,1.9,0,3.7,0,5.6
					c0,1.9,0,3.7,0,5.6s0,3.7,0,5.6c0.2,1.8,0.3,3.7,0.3,5.6c0,1.9,0,3.7,0,5.6c0.2,1.9,0.3,3.7,0.3,5.6c0,1.8,0.1,3.7,0.3,5.6
					c0,1.7,0.1,3.4,0.3,5.3c0,1.9,0.1,3.7,0.3,5.6c0.2,1.8,0.3,3.6,0.3,5.3c0.2,1.8,0.4,3.6,0.6,5.3c0,1.7,0.1,3.4,0.3,5.3
					c0.2,1.7,0.3,3.3,0.3,5c0.2,1.7,0.4,3.3,0.6,4.9c0,1.7,0.1,3.2,0.3,4.7c0.2,1.7,0.3,3.2,0.3,4.6c0.2,1.4,0.3,2.9,0.3,4.3
					c0.2,1.5,0.4,2.9,0.6,4.4c0,1.2,0.1,2.6,0.3,4c0,1.2,0.1,2.5,0.3,3.7c0,1.2,0,2.4,0,3.4c0.2,1.3,0.3,2.4,0.3,3.4
					c0,1,0.1,2.1,0.3,3.1c0,0.8,0,1.7,0,2.8c0,0.8,0,1.7,0,2.5c0,0.6,0,1.4,0,2.2c0,0.4-0.1,0.9-0.3,1.5c0,0.6,0,1.1,0,1.6
					c-0.2,0.4-0.3,0.8-0.3,1.2c-0.2,0.2-0.4,0.4-0.6,0.6c0,0.2-0.2,0.3-0.6,0.3c-0.4,0.2-0.8,0.3-1.2,0.3c-0.8,0.2-1.5,0.3-2.1,0.3
					c-1,0-2,0.1-3,0.3c-1.2,0-2.3,0-3.3,0c-1.4,0.2-2.8,0.3-4.2,0.3c-1.4,0-2.9,0-4.5,0c-1.6,0.2-3.2,0.3-4.9,0.3s-3.2,0-4.9,0
					c-1.8,0-3.6,0-5.4,0c-1.8,0-3.6,0-5.5,0s-3.6,0-5.4,0c-1.6,0-3.3,0-5.2,0s-3.5-0.1-5.2-0.3c-1.6,0-3.2,0-4.9,0
					c-1.6,0-3.1-0.1-4.6-0.3c-1.4,0-2.8,0-4.2,0c-1.2-0.2-11.1,0.5-17.4-0.9c-6.2-1.5-7.7-5.8-7.9-8.2c-0.2-0.8-11.9,9-24.5,10.4
					c0,0-2.3,0.4-3.3,0.6c-1.2,0.2-2.4,0.4-3.6,0.6c-1,0-2.1,0.1-3.3,0.3c-1.2,0-2.4,0-3.6,0c-1.2,0-2.4,0-3.6,0s-2.4-0.1-3.6-0.3
					c-1.2,0-2.4-0.1-3.6-0.3s-2.4-0.4-3.6-0.6c-1.4-0.2-2.7-0.4-3.9-0.6c-1.2-0.4-2.4-0.7-3.6-0.9c-1.2-0.4-2.4-0.8-3.6-1.2
					c-1.2-0.4-2.4-0.8-3.6-1.3c-1.2-0.6-2.4-1.1-3.6-1.5c-1.2-0.6-2.3-1.2-3.3-1.9c-1.2-0.6-2.4-1.2-3.6-1.9
					c-1.2-0.6-2.3-1.3-3.3-2.2c-1.2-0.8-2.3-1.7-3.4-2.5c-1.2-0.8-2.3-1.7-3.3-2.5c-1-1-2.1-2-3.3-2.8c-1-1-2-2.1-3-3.1
					c-1-1-2-2.2-3-3.4c-0.8-1-1.7-2.2-2.7-3.4c-1-1.2-1.9-2.5-2.7-3.7c-0.8-1.4-1.6-2.9-2.4-4.4c-1-1.2-1.8-2.6-2.4-4
					c-0.8-1.4-1.5-2.9-2.1-4.4c-0.8-1.4-1.5-2.9-2.1-4.3c-0.6-1.4-1.2-2.9-1.8-4.3c-0.6-1.4-1.2-2.9-1.8-4.3
					c-0.4-1.7-0.9-3.2-1.5-4.7c-0.4-1.4-0.8-3-1.2-4.6c-0.6-1.4-1.1-2.9-1.5-4.3c-0.4-1.7-0.7-3.2-0.9-4.7c-0.4-1.7-0.8-3.3-1.2-5
					c-0.2-1.4-0.5-3-0.9-4.6c-0.2-1.4-0.4-3-0.6-4.7c-0.2-1.6-0.4-3.2-0.6-4.6c-0.2-1.7-0.4-3.3-0.6-5c-0.2-1.4-0.4-3-0.6-4.6
					c0-1.7-0.1-3.2-0.3-4.7c0-1.7-0.1-3.2-0.3-4.6c0-1.7,0-3.3,0-5c0-1.4,0-3,0-4.7c-0.2-1.4-0.2-3,0-4.6c0-1.4,0-3,0-4.6
					c0-1.4,0-3,0-4.7c0.2-1.4,0.3-2.9,0.3-4.3c0.2-1.4,0.3-3,0.3-4.7c0.2-1.4,0.4-2.9,0.6-4.3c0-1.4,0.1-2.9,0.3-4.3
					c0.2-1.4,0.4-2.9,0.6-4.3c0.2-1.2,0.4-2.6,0.6-4c0.2-1.4,0.4-2.8,0.6-4c0.2-1.4,0.4-2.8,0.6-4c0.2-1.4,0.4-2.8,0.6-4
					c0.2-1.2,0.4-2.5,0.6-3.7c0.4-1.2,0.7-2.5,0.9-3.7s0.4-2.5,0.6-3.7c0.4-1,0.7-2.2,0.9-3.4c0.2-1,0.5-2.1,0.9-3.1
					c0.2-1,0.5-2.2,0.9-3.4c0.2-0.8,0.4-1.7,0.6-2.8c0.4-1,0.7-2.1,0.9-3.1c0.4-0.8,0.7-1.7,0.9-2.5c0.2-0.8,0.5-1.7,0.9-2.8
					c0.2-0.6,0.5-1.3,0.9-2.2c0.2-0.8,0.5-1.5,0.9-2.2c0.2-0.8,0.4-1.5,0.6-2.2c0.4-0.6,0.7-1.2,0.9-1.9c0.2-0.4,0.5-0.9,0.9-1.5
					c0.2-0.4,0.4-0.9,0.6-1.6c0.2-0.4,0.5-0.8,0.9-1.2c0.2-0.2,0.4-0.5,0.6-0.9c0.2-0.2,0.4-0.4,0.6-0.6c0.2-0.2,0.4-0.4,0.6-0.6
					c0.2-0.2,0.4-0.3,0.6-0.3c0.8-0.2,1.6-0.4,2.4-0.6c1-0.2,2-0.4,3-0.6c1.4-0.2,2.7-0.4,3.9-0.6c1.4,0,2.8-0.1,4.2-0.3
					c1.6,0,3.2-0.1,4.9-0.3c1.6,0,3.2-0.1,4.8-0.3c1.8,0,3.5,0,5.2,0c1.6,0,3.3,0,5.2,0c1.6,0,3.2,0,4.8,0c1.4,0,2.9,0.1,4.6,0.3
					c1.4,0,2.8,0,4.2,0c1.2,0.2,2.3,0.3,3.3,0.3c1,0.2,2,0.4,3,0.6c0.8,0,20.5,0.5,24.5,8.2s-6.8,102.5,11.8,102.5s12-94.8,15.6-101
					c3.7-6.2,20.5-7,20.5-7.2c0.4-0.2,0.7-0.4,0.9-0.6c0.8-0.2,1.5-0.3,2.1-0.3c0.8-0.2,1.7-0.4,2.7-0.6c1.2-0.2,2.4-0.4,3.6-0.6
					c1.4,0,2.8-0.1,4.2-0.3c1.4-0.2,2.9-0.3,4.6-0.3c1.6-0.2,3.3-0.3,5.2-0.3c1.6-0.2,3.3-0.3,5.2-0.3s3.6-0.1,5.4-0.3
					c1.8,0,3.6,0,5.5,0c1.6,0,3.3,0,5.2,0c1.6,0,3.2,0,4.8,0c1.6,0.2,3.2,0.3,4.9,0.3c1.2,0,2.5,0.1,3.9,0.3
					c1.2,0.2,2.4,0.3,3.6,0.3c0.8,0.2,1.7,0.4,2.7,0.6C721.3,323.1,721.9,323.3,722.5,323.5z"/>
			</g>
		</g>
		<path fill="#FFFFFF" d="M703.1,354.7c0.2,0.1,0.3,0.3,0.5,0.4c0.2,0.2,0.2,0.4,0.2,0.7c0.2,0.3,0.3,0.6,0.5,0.9
			c0,0.3,0.1,0.7,0.2,1.1c0.2,0.4,0.2,0.9,0.2,1.4c0,0.6,0.1,1.2,0.3,1.8c0,0.6,0,1.2,0,1.8c0.2,0.6,0.2,1.3,0.2,2.1
			c0,0.8,0,1.5,0,2.3c0.2,0.9,0.2,1.7,0.2,2.5c0,0.9,0,1.8,0,2.7c0,0.9,0,1.8,0,2.7c0,1.1,0,2.1,0,3.2c0,0.9,0,1.9,0,2.9
			c0,1.2,0,2.4,0,3.4c0,1.1-0.1,2.2-0.2,3.4c0,1.2,0,2.3,0,3.4c0,1.2,0,2.4,0,3.6c0,1.2,0,2.5,0,3.9c-0.2,1.2-0.2,2.4-0.2,3.6
			c0,1.3,0,2.6,0,3.8c0,1.4,0,2.7,0,4.1c0,1.2,0,2.5,0,3.9c-0.2,1.3-0.3,2.7-0.3,4.1c0,1.3,0,2.6,0,3.9c0,1.3,0,2.7,0,4.1
			s0,2.7,0,4.1s0,2.7,0,4.1s0,2.7,0,4.1c0.2,1.4,0.3,2.7,0.3,4.1c0,1.3,0,2.7,0,4.1c0.2,1.3,0.2,2.7,0.2,4.1c0,1.4,0.1,2.7,0.2,4.1
			c0,1.2,0.1,2.5,0.2,3.9c0,1.4,0.1,2.7,0.3,4.1c0.2,1.4,0.2,2.7,0.2,3.9c0.2,1.4,0.3,2.6,0.5,3.9c0,1.2,0.1,2.5,0.2,3.9
			c0.2,1.2,0.2,2.4,0.2,3.6c0.2,1.2,0.3,2.4,0.5,3.6c0,1.2,0.1,2.3,0.2,3.4c0.2,1.2,0.2,2.3,0.2,3.4c0.2,1.1,0.3,2.1,0.3,3.2
			c0.2,1.1,0.3,2.1,0.5,3.2c0,0.9,0.1,1.9,0.2,3c0,0.9,0.1,1.8,0.3,2.7c0,0.9,0,1.7,0,2.5c0.2,0.9,0.2,1.7,0.2,2.5
			c0,0.8,0.1,1.5,0.2,2.3c0,0.6,0,1.3,0,2.1c0,0.6,0,1.2,0,1.8c0,0.5,0,1,0,1.6c0,0.3-0.1,0.7-0.2,1.1c0,0.4,0,0.8,0,1.1
			c-0.2,0.3-0.2,0.6-0.2,0.9c-0.2,0.1-0.3,0.3-0.5,0.5c0,0.1-0.2,0.2-0.5,0.2c-0.3,0.1-0.7,0.2-1,0.2c-0.7,0.2-1.2,0.2-1.7,0.2
			c-0.8,0-1.7,0.1-2.5,0.2c-1,0-1.9,0-2.7,0c-1.2,0.1-2.3,0.2-3.5,0.2c-1.2,0-2.4,0-3.7,0c-1.3,0.1-2.7,0.2-4,0.2c-1.3,0-2.7,0-4,0
			c-1.5,0-3,0-4.5,0c-1.5,0-3,0-4.5,0c-1.5,0-3,0-4.5,0c-1.3,0-2.7,0-4.2,0c-1.5,0-2.9-0.1-4.2-0.2c-1.3,0-2.7,0-4,0
			c-1.3,0-2.6-0.1-3.8-0.2c-1.2,0-2.3,0-3.5,0c-1-0.1-2-0.2-3-0.2c-0.8-0.2-1.7-0.2-2.5-0.2c-0.7-0.1-1.3-0.3-2-0.4
			c-0.3,0-0.8-0.1-1.3-0.2c-0.7-0.3-1.4-0.6-2.2-0.9c-0.5-0.1-0.9-0.4-1.3-0.9c-0.3-0.4-0.6-1-0.8-1.6c-0.3-1.2,0.2-7.3,0-9.1
			c-0.2-0.6-0.7-0.1-1.5,1.6c-0.3,0.4-0.8,1-1.5,1.6c-0.5,0.4-1.1,0.9-1.7,1.3c-0.5,0.5-1.1,0.9-1.7,1.4c-0.7,0.5-1.3,0.9-2,1.4
			c-0.7,0.4-1.3,0.9-2,1.4c-0.8,0.3-1.6,0.7-2.2,1.1c-0.7,0.3-1.4,0.6-2.3,0.9c-0.8,0.5-1.7,0.8-2.5,1.1c-0.8,0.3-1.7,0.5-2.5,0.7
			c-0.8,0.3-1.7,0.6-2.5,0.9c-1,0.1-1.9,0.4-2.8,0.7c-0.8,0.2-1.7,0.3-2.7,0.5c-1,0.1-1.9,0.3-2.7,0.5c-1,0.1-2,0.3-3,0.4
			c-0.8,0-1.7,0.1-2.8,0.2c-1,0-2,0-3,0c-1,0-2,0-3,0c-1,0-2-0.1-3-0.2c-1,0-2-0.1-3-0.2c-1-0.1-2-0.3-3-0.5
			c-1.2-0.1-2.2-0.3-3.3-0.4c-1-0.3-2-0.5-3-0.7c-1-0.3-2-0.6-3-0.9c-1-0.3-2-0.6-3-0.9c-1-0.5-2-0.8-3-1.1c-1-0.4-1.9-0.9-2.8-1.4
			c-1-0.4-2-0.9-3-1.3c-1-0.5-1.9-1-2.7-1.6c-1-0.6-1.9-1.2-2.7-1.8c-1-0.6-1.9-1.2-2.8-1.8c-0.8-0.8-1.7-1.4-2.7-2.1
			c-0.8-0.7-1.7-1.5-2.5-2.3c-0.8-0.8-1.7-1.6-2.5-2.5c-0.7-0.8-1.4-1.6-2.3-2.5s-1.6-1.8-2.3-2.7c-0.6-1.1-1.3-2.1-2-3.2
			c-0.8-0.9-1.5-1.9-2-3c-0.7-1.1-1.3-2.1-1.7-3.2c-0.7-1.1-1.3-2.1-1.7-3.2c-0.5-1.1-1-2.1-1.5-3.2c-0.5-1.1-1-2.1-1.5-3.2
			c-0.3-1.2-0.8-2.3-1.2-3.4c-0.3-1.1-0.7-2.2-1-3.4c-0.5-1.1-0.9-2.1-1.3-3.2c-0.3-1.2-0.6-2.3-0.8-3.4c-0.3-1.2-0.6-2.4-1-3.6
			c-0.2-1.1-0.4-2.2-0.8-3.4c-0.2-1.1-0.3-2.2-0.5-3.4c-0.2-1.2-0.3-2.3-0.5-3.4c-0.2-1.2-0.3-2.4-0.5-3.6c-0.2-1.1-0.3-2.2-0.5-3.4
			c0-1.2-0.1-2.3-0.2-3.4c0-1.2-0.1-2.3-0.3-3.4c0-1.2,0-2.4,0-3.6c0-1.1,0-2.2,0-3.4c-0.2-1.1-0.2-2.2,0-3.4c0-1.1,0-2.2,0-3.4
			c0-1.1,0-2.2,0-3.4c0.2-1.1,0.3-2.1,0.3-3.2c0.2-1.1,0.2-2.2,0.2-3.4c0.2-1.1,0.3-2.1,0.5-3.2c0-1.1,0.1-2.1,0.2-3.2
			c0.2-1.1,0.3-2.1,0.5-3.2c0.2-0.9,0.3-1.9,0.5-2.9c0.2-1.1,0.3-2.1,0.5-3c0.2-1.1,0.3-2.1,0.5-3c0.2-1.1,0.3-2,0.5-3
			c0.2-0.9,0.3-1.8,0.5-2.7c0.3-0.9,0.6-1.8,0.8-2.7c0.2-0.9,0.3-1.8,0.5-2.7c0.3-0.8,0.6-1.6,0.8-2.5c0.2-0.8,0.4-1.5,0.8-2.3
			c0.2-0.8,0.4-1.6,0.7-2.5c0.2-0.6,0.3-1.3,0.5-2.1c0.3-0.8,0.6-1.5,0.8-2.3c0.3-0.6,0.6-1.2,0.8-1.8c0.2-0.6,0.4-1.3,0.8-2.1
			c0.2-0.4,0.4-1,0.7-1.6c0.2-0.6,0.4-1.1,0.8-1.6c0.2-0.6,0.3-1.1,0.5-1.6c0.3-0.4,0.6-0.9,0.8-1.3c0.2-0.3,0.4-0.7,0.8-1.1
			c0.2-0.3,0.3-0.7,0.5-1.1c0.2-0.3,0.4-0.6,0.8-0.9c0.2-0.1,0.3-0.4,0.5-0.7c0.2-0.1,0.3-0.3,0.5-0.5c0.2-0.1,0.3-0.3,0.5-0.4
			c0.2-0.1,0.3-0.2,0.3-0.2c0.8-0.1,1.5-0.3,2.2-0.4c0.8-0.1,1.6-0.3,2.5-0.5c1.2-0.1,2.2-0.3,3.2-0.4c1.2,0,2.3-0.1,3.5-0.2
			c1.3,0,2.7-0.1,4-0.2c1.3,0,2.7-0.1,4-0.2c1.5,0,2.9,0,4.2,0c1.3,0,2.8,0,4.2,0c1.3,0,2.7,0,4,0c1.2,0,2.4,0.1,3.7,0.2
			c1.2,0,2.3,0,3.5,0c1,0.1,1.9,0.2,2.7,0.2c0.8,0.2,1.7,0.3,2.5,0.5c0.7,0,1.3,0.1,1.7,0.2c0.3,0.1,0.7,0.3,1,0.5
			c0,0.1,0,0.3,0,0.4c0,0.2,0,0.3,0,0.5c0,0.3,0,0.6,0,0.9c0,0.3,0,0.7,0,1.1c0,0.4-0.1,0.9-0.2,1.3c0,0.6-0.1,1.1-0.2,1.6
			c0,0.6-0.1,1.2-0.2,1.8c0,0.8-0.1,1.4-0.3,2c0,0.8-0.1,1.5-0.2,2.3c-0.2,0.8-0.2,1.6-0.2,2.5c-0.2,0.8-0.3,1.6-0.5,2.5
			c-0.2,0.9-0.2,1.8-0.2,2.7c-0.2,1.1-0.3,2-0.5,3c-0.2,1.1-0.2,2-0.2,2.9c-0.2,1.1-0.3,2.1-0.5,3.2c0,1.1-0.1,2.1-0.2,3.2
			c-0.2,1.1-0.2,2.2-0.2,3.4c-0.2,1.1-0.3,2.2-0.5,3.4c0,1.1-0.1,2.2-0.2,3.4c0,1.1,0,2.2,0,3.4c-0.2,1.2-0.2,2.4-0.2,3.6
			c0,1.2,0,2.3,0,3.4c-0.2,1.2-0.3,2.4-0.3,3.6c0,1.2,0,2.4,0,3.6c0.2,1.1,0.3,2.2,0.3,3.4c0,1.2,0.1,2.4,0.2,3.6
			c0,1.1,0.1,2.2,0.2,3.4c0,1.1,0.1,2.2,0.3,3.4c0.2,1.1,0.3,2.1,0.5,3.2c0.2,1.1,0.4,2.1,0.8,3.2c0.2,1.1,0.3,2.1,0.5,3.2
			c0.3,1.1,0.6,2.1,1,3c0.3,1.1,0.7,2.1,1,3c0.3,0.9,0.7,1.8,1,2.7c0.3,0.9,0.8,1.8,1.2,2.5c0.5,0.9,1,1.7,1.5,2.5
			c0.5,0.8,1,1.5,1.5,2.3c0.5,0.8,1.1,1.4,1.7,2c0.5,0.6,1.1,1.2,1.7,1.8c0.7,0.6,1.4,1.1,2.3,1.6c0.7,0.4,1.4,0.9,2.2,1.3
			c0.8,0.5,1.7,0.8,2.5,1.1c0.8,0.3,1.7,0.6,2.5,0.9c1,0.1,2,0.3,3,0.4c1,0.2,2,0.3,3,0.5c0.8,0,1.7-0.1,2.7-0.2
			c0.8,0,1.7-0.1,2.5-0.2c0.8-0.3,1.7-0.6,2.5-0.9c0.8-0.3,1.6-0.6,2.2-0.9c0.8-0.4,1.6-0.9,2.3-1.4c0.7-0.4,1.3-1,2-1.6
			c0.7-0.6,1.3-1.2,1.7-1.8c0.7-0.8,1.3-1.5,1.7-2.3c0.7-0.8,1.3-1.5,1.7-2.3c0.5-0.9,1-1.8,1.5-2.7c0.3-0.9,0.8-1.8,1.2-2.7
			c0.5-0.9,0.9-1.9,1.3-2.9c0.3-0.9,0.7-1.9,1-3c0.5-1.1,0.9-2.2,1.2-3.4c0.2-1.1,0.4-2.2,0.8-3.4c0.3-1.1,0.7-2.2,1-3.4
			c0.2-1.2,0.4-2.4,0.7-3.6c0.2-1.2,0.3-2.4,0.5-3.6c0.2-1.2,0.4-2.4,0.8-3.6c0.2-1.4,0.3-2.6,0.5-3.9c0.2-1.2,0.3-2.5,0.3-3.9
			c0.2-1.2,0.3-2.4,0.5-3.6c0.2-1.4,0.3-2.6,0.3-3.9c0.2-1.2,0.2-2.5,0.2-3.9c0.2-1.2,0.2-2.4,0.2-3.6c0.2-1.2,0.2-2.4,0.2-3.6
			c0-1.2,0.1-2.4,0.3-3.6c0-1.2,0-2.4,0-3.6c0-1.1,0.1-2.2,0.2-3.4c0-1.1,0-2.1,0-3.2c0-1.1,0-2.1,0-3.2c0-0.9,0-1.9,0-3
			c0-0.9,0-1.8,0-2.7c0.2-0.9,0.2-1.8,0.2-2.7c0-0.7,0-1.6,0-2.5c0-0.6,0-1.3,0-2c0-0.6,0-1.3,0-2.1c0-0.4,0.1-1,0.3-1.6
			c0-0.4,0-0.9,0-1.4c0-0.4,0.1-0.8,0.2-1.1c0-0.3,0-0.6,0-0.9c0.2-0.1,0.2-0.3,0.2-0.5c0.3-0.1,0.6-0.3,0.8-0.4
			c0.7-0.1,1.2-0.2,1.7-0.2c0.7-0.1,1.4-0.3,2.3-0.4c1-0.1,2-0.3,3-0.5c1.2,0,2.3-0.1,3.5-0.2c1.2-0.1,2.4-0.2,3.7-0.2
			c1.3-0.1,2.8-0.2,4.2-0.2c1.3-0.1,2.7-0.2,4.2-0.2c1.5,0,3-0.1,4.5-0.2c1.5,0,3,0,4.5,0c1.3,0,2.7,0,4.2,0c1.3,0,2.7,0,4,0
			c1.3,0.1,2.7,0.2,4,0.2c1,0,2.1,0.1,3.2,0.2c1,0.2,2,0.2,3,0.2c0.7,0.1,1.4,0.3,2.2,0.4C702.1,354.3,702.6,354.5,703.1,354.7z"/>
	</g>
	<g>
		<path d="M295,217.2c0.2-0.4,0.5-0.7,0.9-0.9c0.4-0.4,0.9-0.7,1.4-0.9c0.6-0.2,1.2-0.4,2-0.6c0.8-0.2,1.6-0.4,2.6-0.6
			c1-0.2,1.9-0.4,2.9-0.6c1.3-0.2,2.6-0.4,3.7-0.6c1.3,0,2.7-0.1,4-0.3c1.3,0,2.7-0.1,4-0.3c1.5,0,3.1,0,4.6,0
			c1.5-0.2,3.2-0.3,4.9-0.3c1.5,0,3.2,0,4.9,0c1.5,0,3.2,0,4.9,0c1.5,0.2,3.2,0.3,4.9,0.3c1.7,0,3.3,0.1,4.9,0.3
			c1.7,0,3.3,0.1,4.9,0.3c1.5,0.2,3.1,0.4,4.6,0.6c1.5,0,3,0.1,4.3,0.3c1.5,0.2,3,0.4,4.3,0.6c1.1,0.4,2.4,0.7,3.7,0.9
			c1.1,0.2,2.2,0.5,3.2,0.9c1,0.2,1.9,0.5,2.9,0.9c0.8,0.2,1.5,0.5,2.3,0.9c0.6,0.4,12.2,3.5,18.3,11.1c6.1,7.6,18.8,48.2,18.8,48.2
			c0-0.2,15.6-41.4,23.1-49.3c7.5-7.9,18.8-11.2,19.2-11.4c0.8-0.2,1.5-0.5,2.3-0.9c1-0.2,1.8-0.4,2.6-0.6c1.1-0.2,2.3-0.4,3.4-0.6
			c1.1-0.2,2.4-0.4,3.7-0.6c1.3-0.2,2.7-0.4,4-0.6c1.3-0.2,2.8-0.3,4.3-0.3c1.5-0.2,3.1-0.4,4.6-0.6c1.5,0,3.2,0,4.9,0
			c1.5-0.2,3.2-0.3,4.9-0.3c1.5,0,3.2,0,4.9,0c1.5,0,3.2,0,4.9,0c1.5,0,3.1,0,4.6,0c1.5,0.2,3.1,0.3,4.6,0.3c1.5,0.2,3,0.4,4.3,0.6
			c1.3,0,2.7,0.1,4,0.3c1.3,0.2,2.6,0.4,3.7,0.6c1.2,0.2,2.2,0.4,3.2,0.6c1,0.4,1.8,0.7,2.6,0.9c0.8,0.4,1.5,0.7,2.3,0.9
			c0.6,0.4,14.3,2.7,16.7,21.4c2.5,22.1-58.8,145.1-59,145.3c0,0.2,74.1,129.5,72.9,138.6s-16.2,20.5-16.8,20.6
			c-0.8,0.6-1.5,1-2.3,1.1c-0.8,0.4-1.6,0.8-2.6,1.1c-1,0.4-2,0.8-3.2,1.1c-1.2,0.2-2.3,0.5-3.4,0.9c-1.1,0.2-2.4,0.5-3.7,0.9
			c-1.3,0.2-2.8,0.5-4.3,0.9c-1.3,0.2-2.8,0.4-4.3,0.6c-1.5,0.2-3.1,0.4-4.6,0.6c-1.5,0.2-3.2,0.4-4.9,0.6c-1.5,0.2-3.2,0.4-4.9,0.6
			c-1.5,0.2-3.2,0.3-4.9,0.3c-1.7,0.2-3.4,0.3-5.2,0.3c-1.5,0.2-3.2,0.3-4.9,0.3c-1.7,0-3.4,0.1-4.9,0.3c-1.5,0-3.2,0-4.9,0
			c-1.5,0-3.1,0-4.6,0c-1.5-0.2-3.1-0.3-4.6-0.3c-1.3,0-2.7-0.1-4-0.3c-1.3,0-2.7-0.1-4-0.3c-1.1-0.2-2.3-0.3-3.4-0.3
			c-1.1-0.2-2.2-0.4-3.2-0.6c-1-0.2-1.9-0.5-2.9-0.9c-0.6-0.2-4.8,0.4-10.2-2.5c-15.1-8.4-27.9-46.5-28.3-47.3
			c-0.4-0.6-6.9,44.2-33,46.9c0,0-7,1.5-7.8,1.7c-1,0.2-1.9,0.4-2.9,0.6c-1.1,0.2-2.2,0.4-3.2,0.6c-1.3,0-2.6,0.1-3.7,0.3
			c-1.3,0.2-2.7,0.3-4,0.3c-1.3,0.2-2.7,0.4-4,0.6c-1.5,0-3,0-4.3,0c-1.5,0.2-3.1,0.3-4.6,0.3c-1.7,0-3.4,0.1-4.9,0.3
			c-1.5,0-3.2,0-4.9,0c-1.5,0-3.2,0-4.9,0c-1.5,0-3.2,0-4.9,0c-1.5-0.2-3.1-0.3-4.6-0.3c-1.7,0-3.4-0.1-4.9-0.3
			c-1.5,0-3.1-0.1-4.6-0.3c-1.5,0-3.1-0.1-4.6-0.3c-1.3-0.2-2.7-0.4-4-0.6c-1.3-0.2-2.7-0.4-4-0.6c-1.3-0.2-2.6-0.4-3.7-0.6
			c-1.1-0.2-2.3-0.5-3.4-0.9c-1-0.2-1.9-0.4-2.9-0.6c-1-0.4-1.8-0.8-2.6-1.1c-0.8-0.2-1.4-0.5-2-0.9c-0.6-0.4-2.9-3-2.9-3.2
			c0-0.4-12.2-10.8-12.2-21.9c0-11.1,73.8-137.4,74-137.6c0.2-0.2-62.1-136.6-62.4-145.2C282.3,224.5,295,217.4,295,217.2z"/>
		<path fill="#FFFFFF" d="M304.2,238.2c0.2-0.3,0.4-0.6,0.8-0.8c0.4-0.3,0.8-0.6,1.3-0.8c0.5-0.2,1.1-0.3,1.9-0.5
			c0.7-0.2,1.5-0.3,2.4-0.5c0.9-0.2,1.8-0.3,2.7-0.5c1.2-0.2,2.4-0.3,3.4-0.5c1.2,0,2.5-0.1,3.7-0.3c1.2,0,2.5-0.1,3.7-0.3
			c1.4,0,2.8,0,4.2,0c1.4-0.2,2.9-0.3,4.5-0.3c1.4,0,2.9,0,4.5,0c1.4,0,2.9,0,4.5,0c1.4,0.2,2.9,0.3,4.5,0.3c1.6,0,3.1,0.1,4.5,0.3
			c1.6,0,3.1,0.1,4.5,0.3c1.4,0.2,2.8,0.3,4.2,0.5c1.4,0,2.7,0.1,4,0.3c1.4,0.2,2.7,0.3,4,0.5c1.1,0.3,2.2,0.6,3.4,0.8
			c1.1,0.2,2,0.4,2.9,0.8c0.9,0.2,1.8,0.4,2.7,0.8c0.7,0.2,1.4,0.4,2.1,0.8c0.5,0.3,1.1,0.7,1.6,1c0.5,0.3,1,0.8,1.3,1.3
			c0.5,0.5,1.1,1.1,1.6,1.8c0.5,0.7,1.1,1.4,1.6,2.3c0.5,0.8,1.1,1.8,1.6,2.8c0.5,1,1.1,2,1.6,3.1c0.7,1.2,1.3,2.3,1.9,3.3
			c0.7,1.4,1.3,2.6,1.9,3.8c0.5,1.4,1.1,2.6,1.9,3.8c0.5,1.4,1.1,2.7,1.9,4.1c0.5,1.4,1.1,2.8,1.9,4.3c0.5,1.4,1.2,2.7,1.9,4.1
			c0.5,1.4,1.1,2.7,1.6,4.1c0.5,1.4,1.1,2.8,1.9,4.3c0.5,1.2,1.1,2.5,1.6,3.8c0.5,1.4,1,2.6,1.3,3.8c0.5,1.2,1.1,2.4,1.6,3.6
			c0.4,1.2,0.7,2.3,1.1,3.3c0.5,1,1,2,1.3,2.8c0.2,0.8,0.4,1.7,0.8,2.5c0.4,0.7,0.6,1.4,0.8,2c0.2,0.5,0.4,1,0.5,1.5
			c0.2,0.3,0.4,0.7,0.5,1v0.5c0-0.2,0.1-0.3,0.3-0.5c0-0.3,0.1-0.6,0.3-0.8c0.4-0.5,0.6-1,0.8-1.5c0.4-0.7,0.7-1.4,1.1-2
			c0.4-0.8,0.7-1.7,1.1-2.5c0.5-0.8,1.1-1.8,1.6-2.8c0.5-1,1.1-2.1,1.6-3.3c0.5-1,1.1-2.1,1.6-3.3c0.7-1.4,1.4-2.6,2.1-3.8
			c0.5-1.4,1.1-2.6,1.9-3.8c0.7-1.4,1.4-2.7,2.1-4.1c0.7-1.5,1.4-3,2.1-4.3c0.7-1.4,1.4-2.7,2.1-4.1c0.7-1.4,1.5-2.7,2.4-4.1
			c0.7-1.4,1.4-2.7,2.1-4.1c0.7-1.4,1.4-2.7,2.1-4.1c0.7-1.2,1.4-2.4,2.1-3.6c0.7-1.2,1.4-2.4,2.1-3.6c0.5-1.2,1.1-2.3,1.9-3.3
			c0.5-1,1.1-1.9,1.9-2.8c0.5-0.8,1.1-1.7,1.6-2.5c0.5-0.7,1-1.4,1.3-2c0.5-0.5,1-1,1.3-1.5c0.4-0.3,0.7-0.7,1.1-1
			c0.5-0.3,1-0.6,1.3-0.8c0.7-0.2,1.4-0.4,2.1-0.8c0.9-0.2,1.7-0.3,2.4-0.5c1.1-0.2,2.1-0.3,3.2-0.5c1.1-0.2,2.2-0.3,3.4-0.5
			c1.2-0.2,2.5-0.3,3.7-0.5c1.2-0.2,2.6-0.3,4-0.3c1.4-0.2,2.8-0.3,4.2-0.5c1.4,0,2.9,0,4.5,0c1.4-0.2,2.9-0.3,4.5-0.3
			c1.4,0,2.9,0,4.5,0c1.4,0,2.9,0,4.5,0c1.4,0,2.8,0,4.2,0c1.4,0.2,2.8,0.3,4.2,0.3c1.4,0.2,2.7,0.3,4,0.5c1.2,0,2.5,0.1,3.7,0.3
			c1.2,0.2,2.4,0.3,3.4,0.5c1.1,0.2,2,0.3,2.9,0.5c0.9,0.3,1.7,0.6,2.4,0.8c0.7,0.3,1.4,0.6,2.1,0.8c0.5,0.3,1,0.7,1.3,1
			c0.2,0.2,0.3,0.3,0.3,0.5c0,0.3,0.1,0.6,0.3,0.8c0,0.5,0,0.9,0,1.3c-0.2,0.3-0.3,0.8-0.3,1.3c-0.2,0.5-0.3,1-0.3,1.5
			c-0.2,0.7-0.4,1.4-0.5,2c-0.2,0.7-2,5.9-2.4,6.6c-0.4,1-1.8,4.7-2.1,5.6c-0.4,1-0.7,2-1.1,3.1c-0.5,1-1,2-1.3,3
			c-0.5,1.2-1.1,2.3-1.6,3.3c-0.4,1.2-0.8,2.4-1.3,3.6c-0.5,1.2-1.1,2.4-1.6,3.6c-0.5,1.2-1.1,2.5-1.6,3.8c-0.7,1.2-1.3,2.4-1.9,3.6
			c-0.5,1.4-1.1,2.7-1.9,4.1c-0.5,1.2-1.2,2.5-1.9,3.8c-0.5,1.4-1.2,2.7-1.9,4.1c-0.5,1.4-1.2,2.7-1.9,4.1c-0.7,1.4-1.3,2.7-1.9,4.1
			c-0.7,1.4-1.4,2.7-2.1,4.1c-0.7,1.4-1.3,2.7-1.9,4.1c-0.7,1.4-1.4,2.7-2.1,4.1c-0.7,1.4-1.4,2.7-2.1,4.1c-0.5,1.5-1.2,3-1.9,4.3
			c-0.7,1.4-1.4,2.7-2.1,4.1c-0.7,1.4-1.4,2.6-2.1,3.8c-0.5,1.4-1.2,2.7-1.9,4.1c-0.7,1.4-1.4,2.7-2.1,4.1c-0.5,1.2-1.1,2.5-1.9,3.8
			c-0.5,1.2-1.2,2.4-1.9,3.6c-0.5,1.2-1.2,2.5-1.9,3.8c-0.5,1.2-1.2,2.4-1.9,3.6c-0.5,1-1.1,2.1-1.6,3.3c-0.7,1-1.3,2.1-1.9,3.3
			c-0.5,1-1.1,2-1.6,3.1c-0.5,1-1.1,2-1.6,3.1c-0.4,0.8-0.8,1.8-1.3,2.8c-0.5,0.8-1,1.7-1.3,2.5c-0.4,0.8-0.8,1.7-1.3,2.5
			c-0.4,0.7-0.7,1.4-1.1,2c-0.4,0.7-0.7,1.4-1.1,2c-0.4,0.7-0.7,1.3-1.1,1.8c-0.2,0.5-0.4,1-0.8,1.5c-0.2,0.5-0.4,0.9-0.5,1.3
			c-0.2,0.3-0.4,0.7-0.5,1c-0.2,0.3-0.4,0.6-0.5,0.8c0,0.2-0.1,0.3-0.3,0.5c0,0.2,0.1,0.3,0.3,0.3c0,0.2,0.1,0.3,0.3,0.5
			c0,0.2,0.1,0.3,0.3,0.5c0.4,0.3,0.6,0.7,0.8,1c0.2,0.5,0.4,0.9,0.8,1.3c0.4,0.5,0.7,1,1.1,1.5c0.4,0.5,0.7,1,1.1,1.5
			c0.4,0.7,2.1,3.4,2.7,4.1c0.5,0.8,1.1,1.6,1.6,2.3c0.5,0.8,1.1,1.7,1.6,2.5c0.5,0.8,1.1,1.8,1.6,2.8c0.7,0.8,1.3,1.8,1.9,2.8
			c0.7,1,1.4,2,2.1,2.8c0.7,1.2,1.3,2.3,1.9,3.3c0.7,1,1.4,2.1,2.1,3.3c0.9,1,1.7,2.1,2.4,3.3c0.7,1.2,1.4,2.3,2.1,3.3
			c0.7,1.4,1.5,2.6,2.4,3.8c0.7,1.2,1.5,2.4,2.4,3.6c0.7,1.2,1.5,2.5,2.4,3.8c0.7,1.2,1.5,2.4,2.4,3.6c0.7,1.4,1.5,2.7,2.4,4.1
			c0.9,1.2,1.7,2.5,2.4,3.8c0.9,1.4,1.7,2.6,2.4,3.8c0.9,1.4,1.8,2.7,2.7,4.1c0.7,1.2,1.5,2.5,2.4,3.8c0.7,1.4,1.5,2.7,2.4,4.1
			c0.9,1.2,1.7,2.5,2.4,3.8c0.9,1.4,1.7,2.6,2.4,3.8c0.7,1.4,1.5,2.6,2.4,3.8c0.7,1.4,1.4,2.6,2.1,3.8c0.7,1.4,1.5,2.6,2.4,3.8
			c0.7,1.2,1.4,2.5,2.1,3.8c0.7,1.2,1.3,2.4,1.9,3.6c0.7,1,1.4,2.1,2.1,3.3c0.7,1.2,1.3,2.4,1.9,3.6c0.5,1,2.9,5.3,3.5,6.4
			c0.5,1,1.1,2,1.6,3c0.5,0.9,1.1,1.8,1.6,2.8c0.4,0.9,0.7,1.7,1.1,2.5c0.5,0.9,1,1.7,1.3,2.5c0.4,0.9,0.7,1.6,1.1,2.3
			c0.2,0.9,0.4,1.6,0.8,2.3c0.2,0.7,0.4,1.4,0.8,2c0.2,0.5,0.4,1,0.5,1.5c0.2,0.5,0.3,1,0.3,1.5c0.2,0.5,0.3,0.9,0.3,1.3
			c0,0.3,0,0.7,0,1c-0.2,0.3-0.3,0.6-0.3,0.8c-0.4,0.3-0.7,0.7-1.1,1c-0.4,0.5-0.8,0.9-1.3,1c-0.7,0.5-1.4,0.8-2.1,1
			c-0.7,0.3-1.5,0.7-2.4,1c-0.9,0.3-1.9,0.7-2.9,1c-1.1,0.2-2.1,0.4-3.2,0.8c-1.1,0.2-2.2,0.4-3.4,0.8c-1.2,0.2-2.6,0.4-4,0.8
			c-1.2,0.2-2.6,0.3-4,0.5c-1.4,0.2-2.8,0.3-4.2,0.5c-1.4,0.2-2.9,0.3-4.5,0.5c-1.4,0.2-2.9,0.3-4.5,0.5c-1.4,0.2-2.9,0.3-4.5,0.3
			c-1.6,0.2-3.2,0.3-4.8,0.3c-1.4,0.2-2.9,0.3-4.5,0.3c-1.6,0-3.1,0.1-4.5,0.3c-1.4,0-2.9,0-4.5,0c-1.4,0-2.8,0-4.2,0
			c-1.4-0.2-2.8-0.3-4.2-0.3c-1.2,0-2.5-0.1-3.7-0.3c-1.2,0-2.5-0.1-3.7-0.3c-1.1-0.2-2.1-0.3-3.2-0.3c-1.1-0.2-2-0.3-2.9-0.5
			c-0.9-0.2-1.8-0.4-2.7-0.8c-0.5-0.2-1.2-0.3-1.9-0.5c-0.5-0.3-1.1-0.6-1.6-0.8c-0.4-0.3-0.7-0.7-1.1-1c-0.4-0.3-0.7-0.8-1.1-1.3
			c-0.5-0.7-1-1.4-1.3-2c-0.5-0.8-1.1-1.7-1.6-2.5c-0.5-0.8-1.1-1.8-1.6-2.8c-0.5-1-1.1-2.1-1.9-3.3c-0.7-1.2-1.3-2.3-1.9-3.3
			c-0.7-1.4-1.4-2.6-2.1-3.8c-0.7-1.2-1.4-2.5-2.1-3.8c-0.7-1.4-1.4-2.7-2.1-4.1c-0.7-1.2-1.4-2.5-2.1-3.8c-0.7-1.4-1.4-2.7-2.1-4.1
			c-0.5-1.4-1.2-2.6-1.9-3.8c-0.7-1.4-1.3-2.6-1.9-3.8c-0.7-1.2-1.3-2.4-1.9-3.6c-0.5-1-1.2-2.1-1.9-3.3c-0.4-0.8-0.8-1.8-1.3-2.8
			c-0.5-0.8-1-1.7-1.3-2.5c-0.4-0.7-0.7-1.4-1.1-2c-0.4-0.5-0.6-1-0.8-1.5c-0.2-0.3-0.4-0.7-0.5-1c0-0.3-0.1-0.4-0.3-0.3v0.3
			c-0.2,0.3-0.4,0.8-0.5,1.3c-0.2,0.5-0.4,1-0.8,1.5c-0.2,0.9-0.4,1.7-0.8,2.5c-0.5,0.9-1,1.8-1.3,2.8c-0.4,1-0.8,2.1-1.3,3.3
			c-0.5,1.2-1.1,2.4-1.6,3.6c-0.5,1.4-1.1,2.6-1.6,3.8c-0.7,1.4-1.3,2.7-1.9,4.1c-0.7,1.5-1.4,3-2.1,4.3c-0.5,1.4-1.2,2.8-1.9,4.3
			c-0.7,1.4-1.4,2.7-2.1,4.1c-0.7,1.4-1.4,2.7-2.1,4.1c-0.7,1.4-3.3,6.4-4,7.6c-0.7,1.2-1.4,2.3-2.1,3.3c-0.5,1-1.2,1.9-1.9,2.8
			c-0.5,0.9-1.1,1.7-1.6,2.5c-0.5,0.7-1.2,1.3-1.9,1.8c-0.4,0.5-0.8,0.9-1.3,1.3c-0.4,0.2-0.8,0.3-1.3,0.5c-0.5,0.2-1.2,0.3-1.9,0.5
			c-0.7,0.2-1.4,0.3-2.1,0.5c-0.9,0.2-1.8,0.3-2.7,0.5c-1.1,0.2-2,0.3-2.9,0.5c-1.2,0-2.4,0.1-3.4,0.3c-1.2,0.2-2.5,0.3-3.7,0.3
			c-1.2,0.2-2.5,0.3-3.7,0.5c-1.4,0-2.7,0-4,0c-1.4,0.2-2.8,0.3-4.2,0.3c-1.6,0-3.1,0.1-4.5,0.3c-1.4,0-2.9,0-4.5,0
			c-1.4,0-2.9,0-4.5,0c-1.4,0-2.9,0-4.5,0c-1.4-0.2-2.8-0.3-4.2-0.3c-1.6,0-3.1-0.1-4.5-0.3c-1.4,0-2.8-0.1-4.2-0.3
			c-1.4,0-2.8-0.1-4.2-0.3c-1.2-0.2-2.5-0.3-3.7-0.5c-1.2-0.2-2.5-0.3-3.7-0.5s-2.4-0.3-3.4-0.5c-1.1-0.2-2.1-0.4-3.2-0.8
			c-0.9-0.2-1.8-0.3-2.7-0.5c-0.9-0.3-1.7-0.7-2.4-1c-0.7-0.2-1.3-0.4-1.9-0.8c-0.5-0.3-1.1-0.7-1.6-1c-0.4-0.3-0.6-0.7-0.8-1
			c-0.2-0.3-0.3-0.6-0.3-0.8c0-0.3,0-0.7,0-1c0-0.5,0-0.9,0-1.3c0.2-0.5,0.4-1,0.5-1.5c0-0.5,0.1-1,0.3-1.5c0.2-0.7,0.4-1.4,0.8-2
			c0.2-0.7,0.4-1.4,0.8-2c0.2-0.8,0.4-1.6,0.8-2.3c0.4-0.8,0.7-1.7,1.1-2.5c0.5-1,1-1.9,1.3-2.8c0.4-0.8,0.8-1.8,1.3-2.8
			c0.5-1,1-2,1.3-3.1c0.5-1,1.1-2,1.6-3.1c0.5-1,1.1-2.1,1.6-3.3c0.7-1,1.3-2.1,1.9-3.3c0.5-1.2,1.1-2.4,1.9-3.6
			c0.7-1.2,1.3-2.4,1.9-3.6c0.7-1.2,1.4-2.4,2.1-3.6c0.5-1.4,1.1-2.6,1.9-3.8c0.7-1.2,1.4-2.5,2.1-3.8c0.7-1.2,1.4-2.5,2.1-3.8
			c0.9-1.4,1.7-2.6,2.4-3.8c0.7-1.4,1.4-2.7,2.1-4.1c0.7-1.4,1.5-2.6,2.4-3.8c0.7-1.4,1.4-2.7,2.1-4.1c0.9-1.4,1.7-2.7,2.4-4.1
			c0.7-1.2,1.5-2.5,2.4-3.8c0.7-1.4,1.4-2.7,2.1-4.1c0.9-1.2,1.7-2.5,2.4-3.8c0.7-1.2,1.5-2.5,2.4-3.8c0.7-1.2,1.4-2.5,2.1-3.8
			c0.7-1.2,1.5-2.5,2.4-3.8c0.7-1.2,1.4-2.4,2.1-3.6c0.7-1.2,1.4-2.4,2.1-3.6c0.7-1.2,1.4-2.4,2.1-3.6c0.7-1,1.4-2.1,2.1-3.3
			c0.5-1,1.1-2.1,1.9-3.3c0.7-1,1.3-2,1.9-3c0.7-1,1.3-2,1.9-3.1c0.5-0.8,1.1-1.8,1.9-2.8c0.5-0.8,1.1-1.7,1.6-2.5
			c0.5-0.8,1-1.7,1.3-2.5c0.5-0.7,1.1-1.4,1.6-2.3c0.4-0.7,0.8-1.4,1.3-2c0.4-0.7,0.7-1.4,1.1-2c0.4-0.5,0.7-1,1.1-1.5
			c0.4-0.5,0.6-1,0.8-1.5c0.4-0.3,0.6-0.8,0.8-1.3c0.2-0.3,0.4-0.6,0.5-0.8c0.2-0.3,0.4-0.6,0.5-0.8c0.2-0.2,0.3-0.3,0.3-0.5v-0.3
			c0-0.2-0.1-0.3-0.3-0.5c0-0.3-0.1-0.6-0.3-0.8c-0.2-0.3-0.4-0.7-0.5-1c-0.2-0.5-0.4-1-0.8-1.5c-0.2-0.5-0.4-1-0.8-1.5
			c-0.4-0.7-0.6-1.4-0.8-2c-0.4-0.7-0.7-1.4-1.1-2c-0.4-0.8-0.8-1.6-1.3-2.3c-0.4-0.8-0.7-1.7-1.1-2.5c-0.5-1-1-1.9-1.3-2.8
			c-0.5-1-1.1-2-1.6-3.1c-0.5-1-1.1-2-1.6-3.1c-0.5-1.2-1.1-2.3-1.6-3.3c-0.5-1.2-1.1-2.4-1.6-3.6c-0.5-1.2-1.2-2.4-1.9-3.6
			c-0.5-1.4-1.1-2.6-1.6-3.8c-0.7-1.2-1.3-2.5-1.9-3.8c-0.7-1.4-1.4-2.6-2.1-3.8c-0.5-1.4-1.2-2.7-1.9-4.1c-0.7-1.4-1.3-2.7-1.9-4.1
			c-0.7-1.5-1.4-3-2.1-4.3c-0.7-1.4-1.3-2.7-1.9-4.1c-0.7-1.5-1.4-3-2.1-4.3c-0.7-1.4-1.4-2.8-2.1-4.3c-0.5-1.4-1.2-2.7-1.9-4.1
			c-0.7-1.5-1.4-3-2.1-4.3c-0.7-1.4-1.3-2.8-1.9-4.3c-0.7-1.4-1.4-2.7-2.1-4.1c-0.5-1.4-1.2-2.8-1.9-4.3c-0.7-1.4-1.3-2.7-1.9-4.1
			c-0.7-1.4-1.3-2.7-1.9-4.1c-0.7-1.2-1.3-2.5-1.9-3.8c-0.5-1.4-1.1-2.6-1.9-3.8c-0.5-1.4-1.1-2.6-1.6-3.8c-0.5-1.2-1.1-2.4-1.6-3.6
			c-0.5-1.2-1.1-2.4-1.6-3.6c-0.5-1.2-1.1-2.3-1.6-3.3c-0.4-1-0.8-2.1-1.3-3.3c-0.4-0.8-0.8-1.8-1.3-2.8c-0.4-1-0.7-1.9-1.1-2.8
			c-0.4-0.8-0.7-1.8-1.1-2.8c-0.4-0.7-0.7-1.4-1.1-2.3c-0.2-0.7-0.4-1.4-0.8-2.3c-0.2-0.5-0.4-1.1-0.8-1.8c-0.2-0.5-0.4-1.1-0.5-1.8
			c0-0.3-0.1-0.8-0.3-1.3c-0.2-0.3-0.3-0.8-0.3-1.3c-0.2-0.2-0.3-0.4-0.3-0.8C304.2,238.5,304.2,238.4,304.2,238.2z"/>
	</g>
</g>
</svg>
