<?xml version="1.0" encoding="utf-8"?>
<!-- Generator: Adobe Illustrator 18.0.0, SVG Export Plug-In . SVG Version: 6.00 Build 0)  -->
<!DOCTYPE svg PUBLIC "-//W3C//DTD SVG 1.0//EN" "http://www.w3.org/TR/2001/REC-SVG-20010904/DTD/svg10.dtd">
<svg version="1.0" id="Camada_1" xmlns="http://www.w3.org/2000/svg" xmlns:xlink="http://www.w3.org/1999/xlink" x="0px" y="0px"
	 viewBox="0 0 210 206.5" enable-background="new 0 0 210 206.5" xml:space="preserve">
<image overflow="visible" width="2474" height="2394" xlink:href="../../../banco de imagens/botões/butt 28.png"  transform="matrix(7.936099e-002 0 0 7.936099e-002 7.1993 7.9767)">
</image>
<image overflow="visible" width="1500" height="1500" xlink:href="../../../Desenhos Jogo Yegatu/png/94.png"  transform="matrix(0.1302 0 0 0.1302 8.3333 0)">
</image>
<g>
	<text transform="matrix(1 0 0 1 46.5005 173.2302)"><tspan x="0" y="0" fill="#1B7C09" font-family="'Big_Bottom_Cartoon'" font-size="23.8038">Ga</tspan><tspan x="40.5" y="0" font-family="'Big_Bottom_Cartoon'" font-size="23.8038">penu</tspan></text>
	<path d="M148.8,150.7c-1.2,0-2,2.8-3.9,2.7c-1.9-0.1-1.9-1.7-1.9-2.3c0-1.3,1.3-3.4,2-4.2c0.7-0.8,1.7-1.8,3.7-1.8
		c2.7,0,3.3,2.8,5.5,2.8c1.2,0,2.2-3.4,4.6-3.4c4.2,0,1.4,4.6,1,5.3c-0.7,1.1-2.8,4-5.6,4C151.3,153.8,150.7,150.7,148.8,150.7"/>
</g>
</svg>
