<?xml version="1.0" encoding="utf-8"?>
<!-- Generator: Adobe Illustrator 18.0.0, SVG Export Plug-In . SVG Version: 6.00 Build 0)  -->
<!DOCTYPE svg PUBLIC "-//W3C//DTD SVG 1.0//EN" "http://www.w3.org/TR/2001/REC-SVG-20010904/DTD/svg10.dtd">
<svg version="1.0" id="Camada_1" xmlns="http://www.w3.org/2000/svg" xmlns:xlink="http://www.w3.org/1999/xlink" x="0px" y="0px"
	 viewBox="0 0 1024 768" enable-background="new 0 0 1024 768" xml:space="preserve">
<image overflow="visible" enable-background="new    " width="2474" height="2394" xlink:href="../../../banco de imagens/botões/butt 28.png"  transform="matrix(0.2952 0 0 0.2952 148.2666 29.6664)">
</image>
<text transform="matrix(1 0 0 1 310.2785 647.9847)" fill="#1B7C09" font-family="'Big_Bottom_Cartoon'" font-size="88.5294">Li</text>
<text transform="matrix(1 0 0 1 421.9297 647.9847)" fill="#010500" font-family="'Big_Bottom_Cartoon'" font-size="88.5294">ma u</text>
<path fill="#010500" d="M660.4,566.9c-3.6,0-6.3,8.6-12.1,8.3c-5.8-0.3-5.8-5.2-5.8-7.1c0-4,4-10.6,6.1-13.1
	c2.1-2.5,5.3-5.7,11.4-5.7c8.5,0,10.2,8.7,17,8.7c3.9,0,6.9-10.6,14.3-10.6c13.1,0,4.4,14.2,3,16.4c-2.2,3.5-8.7,12.4-17.5,12.4
	C668.1,576.3,666.3,566.9,660.4,566.9"/>
<image overflow="visible" width="1500" height="1500" xlink:href="../../../Desenhos Jogo Yegatu/png/51.png"  transform="matrix(0.4699 0 0 0.4699 161 -18)">
</image>
</svg>
