<?xml version="1.0" encoding="utf-8"?>
<!-- Generator: Adobe Illustrator 18.0.0, SVG Export Plug-In . SVG Version: 6.00 Build 0)  -->
<!DOCTYPE svg PUBLIC "-//W3C//DTD SVG 1.0//EN" "http://www.w3.org/TR/2001/REC-SVG-20010904/DTD/svg10.dtd">
<svg version="1.0" id="Camada_1" xmlns="http://www.w3.org/2000/svg" xmlns:xlink="http://www.w3.org/1999/xlink" x="0px" y="0px"
	 viewBox="0 0 1024 768" enable-background="new 0 0 1024 768" xml:space="preserve">
<image overflow="visible" enable-background="new    " width="2474" height="2394" xlink:href="../../../banco de imagens/botões/butt 28.png"  transform="matrix(0.2952 0 0 0.2952 148.2666 29.6664)">
</image>
<g>
	<text transform="matrix(1 0 0 1 222.4692 653.5204)" fill="#1B7C09" font-family="'Big_Bottom_Cartoon'" font-size="76.9481">Pi</text>
	<text transform="matrix(1 0 0 1 311.6943 653.5204)" fill="#010500" font-family="'Big_Bottom_Cartoon'" font-size="76.9481">raya pira</text>
	<path fill="#010500" d="M391,577.8c-3.1,0-5.5,7.5-10.5,7.2s-5-4.5-5-6.2c0-3.5,3.5-9.2,5.3-11.4c1.8-2.2,4.6-5,9.9-5
		c7.4,0,8.9,7.6,14.8,7.6c3.4,0,6-9.2,12.4-9.2c11.4,0,3.8,12.3,2.6,14.3c-1.9,3-7.6,10.8-15.2,10.8
		C397.7,586,396.2,577.8,391,577.8"/>
</g>
<image overflow="visible" width="1500" height="1500" xlink:href="../../../Desenhos Jogo Yegatu/png/14.png"  transform="matrix(0.4587 0 0 0.4587 164 -12.1876)">
</image>
</svg>
