<?xml version="1.0" encoding="utf-8"?>
<!-- Generator: Adobe Illustrator 18.0.0, SVG Export Plug-In . SVG Version: 6.00 Build 0)  -->
<!DOCTYPE svg PUBLIC "-//W3C//DTD SVG 1.1//EN" "http://www.w3.org/Graphics/SVG/1.1/DTD/svg11.dtd">
<svg version="1.1" id="Camada_1" xmlns="http://www.w3.org/2000/svg" xmlns:xlink="http://www.w3.org/1999/xlink" x="0px" y="0px"
	 viewBox="52 -122.5 201.3 145.8" enable-background="new 52 -122.5 201.3 145.8" xml:space="preserve">
<g>
	<path fill="#020202" d="M56.8,17.4v-0.1c0-0.1,0-0.2,0-0.2c0-0.1,0-0.2,0-0.4c0-0.1,0-0.2,0-0.4c0-0.2,0-0.3,0.1-0.3
		c0-0.2,0-0.4,0.1-0.6c0-0.2,0-0.3,0-0.6c0.1-0.2,0.2-0.5,0.3-0.7c0-0.2,0-0.5,0.1-0.7c0.1-0.2,0.1-0.5,0.1-0.8
		c0.1-0.2,0.2-0.5,0.3-0.8c0.1-0.3,0.2-0.6,0.3-0.9c0.1-0.3,0.2-0.6,0.3-0.9c0.1-0.4,0.2-0.7,0.3-1c0.1-0.4,0.2-0.8,0.3-1.2
		c0.2-0.4,0.3-0.8,0.4-1.2c0.1-0.4,0.2-0.8,0.4-1.2C59.8,5,59.9,4.5,60,4.1c0.2-0.4,0.3-0.8,0.4-1.3c0.2-0.5,0.3-0.9,0.4-1.4
		C61,0.9,61.1,0.4,61.3,0c0.1-0.5,0.2-0.9,0.4-1.4c0.2-0.5,0.3-1,0.4-1.5c0.2-0.5,0.3-1.1,0.5-1.6c0.2-0.5,0.4-1,0.5-1.5
		c0.1-0.5,0.2-1.1,0.4-1.6c0.2-0.5,0.3-1.1,0.5-1.6c0.2-0.6,0.3-1.2,0.5-1.8c0.2-0.5,0.4-1.1,0.5-1.8c0.2-0.5,0.4-1.1,0.5-1.8
		c0.3-0.6,0.5-1.2,0.7-1.8c0.2-0.6,0.3-1.2,0.5-1.9c0.2-0.6,0.3-1.2,0.5-1.9c0.3-0.6,0.5-1.2,0.7-1.9c0.2-0.6,0.4-1.2,0.7-1.9
		c0.2-0.7,0.4-1.4,0.5-2c0.3-0.6,0.5-1.3,0.7-2c0.2-0.6,0.4-1.2,0.7-1.9c0.2-0.7,0.4-1.4,0.5-2c0.3-0.7,0.5-1.4,0.7-2.1
		c0.3-0.6,0.5-1.3,0.7-2c0.3-0.6,0.5-1.3,0.7-2c0.3-0.7,0.5-1.4,0.7-2.1c0.3-0.6,0.5-1.3,0.7-2c0.3-0.7,0.5-1.4,0.7-2.1
		c0.3-0.6,0.5-1.3,0.7-2c0.3-0.7,0.5-1.4,0.7-2.1c0.3-0.7,0.5-1.4,0.7-2c0.3-0.7,0.5-1.4,0.7-2.1c0.3-0.7,0.5-1.4,0.7-2.1
		c0.3-0.6,0.5-1.3,0.8-2c0.2-0.7,0.4-1.4,0.7-2.1c0.2-0.7,0.4-1.4,0.7-2c0.2-0.7,0.4-1.4,0.7-2.1c0.2-0.6,0.4-1.3,0.7-2
		c0.2-0.7,0.4-1.4,0.7-2c0.2-0.7,0.4-1.4,0.7-2c0.2-0.7,0.4-1.4,0.7-2c0.2-0.7,0.4-1.4,0.7-2c0.2-0.6,0.4-1.3,0.7-2
		c0.2-0.6,0.4-1.2,0.5-1.9c0.3-0.6,0.5-1.2,0.7-1.9c0.3-0.6,0.5-1.2,0.7-1.9c0.2-0.6,0.4-1.2,0.7-1.9c0.2-0.6,0.4-1.2,0.5-1.9
		c0.3-0.5,0.5-1.1,0.7-1.8c0.2-0.6,0.4-1.2,0.5-1.8c0.3-0.5,0.5-1.1,0.7-1.8c0.2-0.5,0.4-1.1,0.5-1.6c0.2-0.5,0.3-1.1,0.5-1.6
		c0.2-0.5,0.4-1.1,0.7-1.6c0.2-0.5,0.4-1.1,0.5-1.6c0.2-0.5,0.4-1,0.5-1.5c0.2-0.5,0.4-1,0.5-1.5c0.1-0.5,0.2-0.9,0.4-1.4
		c0.2-0.5,0.4-0.9,0.5-1.4c0.2-0.5,0.3-0.9,0.4-1.4c0.2-0.4,0.3-0.8,0.5-1.3c0.2-0.4,0.3-0.8,0.4-1.2c0.2-0.5,0.3-0.9,0.4-1.3
		c0.2-0.4,0.3-0.7,0.4-1.1c0.2-0.4,0.3-0.8,0.4-1.2c0.2-0.3,0.3-0.6,0.4-0.9c0.1-0.4,0.2-0.7,0.4-1c0.1-0.2,0.2-0.5,0.3-0.8
		c0.1-0.3,0.2-0.6,0.4-0.8c0.1-0.3,0.2-0.6,0.3-0.8c0.1-0.2,0.2-0.5,0.3-0.7c0.1-0.2,0.2-0.4,0.3-0.6c0-0.2,0-0.4,0.1-0.6
		c0.1-0.2,0.2-0.3,0.3-0.5c0-0.2,0-0.3,0.1-0.5c0.1-0.1,0.1-0.2,0.1-0.4c0.1-0.1,0.1-0.2,0.1-0.2c0-0.1,0-0.2,0.1-0.2v-0.1
		c0.2-0.1,0.4-0.2,0.5-0.2c0.3-0.1,0.5-0.2,0.8-0.2c0.4-0.1,0.7-0.1,1.2-0.1c0.4-0.1,0.9-0.2,1.3-0.2c0.6,0,1.2,0,1.7-0.1
		c0.6,0,1.2,0,1.8-0.1c0.7,0,1.4,0,2.1-0.1c0.7,0,1.4,0,2.1,0c0.8,0,1.6,0,2.4-0.1c0.8,0,1.5,0,2.2,0c0.8,0,1.6,0,2.4,0s1.6,0,2.4,0
		c0.8,0.1,1.5,0.1,2.2,0.1c0.8,0,1.5,0,2.2,0c0.7,0,1.4,0,2.1,0.1c0.6,0,1.2,0,1.9,0.1c0.6,0,1.2,0,1.7,0c0.5,0.1,1,0.1,1.5,0.1
		c0.4,0.1,0.8,0.1,1.2,0.1c0.3,0.1,0.6,0.2,0.9,0.2c0.2,0,0.4,0,0.5,0.1v0.1c0.1,0,0.1,0,0.1,0.1c0.1,0.1,0.1,0.2,0.1,0.2
		c0.1,0.1,0.1,0.2,0.1,0.3c0.1,0.2,0.2,0.3,0.3,0.4c0,0.2,0,0.3,0.1,0.5c0.1,0.2,0.2,0.4,0.3,0.6c0.1,0.2,0.2,0.5,0.3,0.7
		c0.1,0.2,0.2,0.5,0.3,0.7c0.1,0.2,0.2,0.5,0.3,0.7c0.1,0.3,0.2,0.6,0.3,0.8c0.2,0.3,0.3,0.6,0.4,0.9c0.1,0.3,0.2,0.6,0.4,0.9
		c0.1,0.4,0.2,0.7,0.3,1.1c0.2,0.4,0.3,0.8,0.4,1.2c0.2,0.4,0.3,0.8,0.4,1.2c0.2,0.4,0.4,0.8,0.5,1.2c0.1,0.4,0.2,0.8,0.4,1.3
		c0.2,0.4,0.3,0.8,0.4,1.3c0.2,0.5,0.3,0.9,0.5,1.4c0.2,0.5,0.4,0.9,0.5,1.4c0.2,0.5,0.3,1,0.4,1.5c0.2,0.5,0.4,1,0.5,1.5
		c0.2,0.5,0.3,1,0.5,1.5c0.2,0.5,0.4,1.1,0.5,1.6c0.2,0.5,0.4,1.1,0.5,1.6c0.3,0.5,0.5,1.1,0.7,1.6c0.2,0.6,0.4,1.2,0.5,1.8
		c0.2,0.6,0.3,1.2,0.5,1.8c0.3,0.6,0.5,1.2,0.7,1.9c0.2,0.5,0.4,1.1,0.5,1.8c0.3,0.6,0.5,1.2,0.7,1.9c0.2,0.6,0.4,1.2,0.7,1.9
		c0.2,0.6,0.4,1.3,0.5,2c0.3,0.6,0.5,1.2,0.7,1.9c0.3,0.6,0.5,1.3,0.7,2c0.2,0.6,0.4,1.3,0.7,2c0.2,0.6,0.4,1.3,0.7,2
		c0.2,0.7,0.4,1.4,0.7,2c0.2,0.7,0.4,1.4,0.7,2.1c0.2,0.6,0.4,1.3,0.7,2c0.2,0.7,0.4,1.4,0.5,2.1c0.3,0.7,0.5,1.4,0.7,2
		c0.3,0.7,0.5,1.4,0.8,2.1c0.2,0.7,0.4,1.4,0.7,2.1c0.2,0.7,0.4,1.4,0.7,2.1c0.2,0.7,0.4,1.4,0.7,2.1c0.2,0.7,0.4,1.4,0.7,2.1
		c0.2,0.7,0.4,1.4,0.7,2.1c0.2,0.7,0.4,1.4,0.7,2.1c0.2,0.6,0.4,1.3,0.7,2c0.2,0.7,0.4,1.4,0.5,2.1c0.3,0.7,0.5,1.4,0.7,2.1
		c0.3,0.7,0.5,1.4,0.7,2.1c0.3,0.6,0.5,1.3,0.7,2c0.3,0.7,0.5,1.4,0.7,2.1c0.2,0.6,0.4,1.3,0.7,2c0.2,0.7,0.4,1.4,0.5,2
		c0.3,0.7,0.5,1.4,0.7,2c0.2,0.7,0.4,1.4,0.7,2c0.2,0.6,0.4,1.3,0.5,2c0.2,0.6,0.4,1.2,0.7,1.9c0.2,0.6,0.4,1.2,0.5,1.9
		c0.2,0.6,0.3,1.2,0.5,1.9c0.3,0.6,0.5,1.2,0.7,1.9c0.2,0.6,0.4,1.2,0.5,1.8c0.2,0.6,0.4,1.2,0.5,1.9c0.2,0.5,0.4,1.1,0.5,1.6
		c0.2,0.6,0.3,1.2,0.5,1.8c0.2,0.5,0.3,1.1,0.4,1.6c0.2,0.5,0.4,1.1,0.5,1.6c0.2,0.5,0.3,1.1,0.5,1.6c0.1,0.5,0.2,1,0.4,1.5
		c0.2,0.5,0.4,1,0.5,1.5c0.1,0.5,0.2,0.9,0.4,1.4c0.1,0.5,0.2,0.9,0.4,1.4c0.1,0.5,0.2,0.9,0.4,1.3c0.1,0.5,0.2,0.9,0.4,1.3
		c0.1,0.5,0.2,0.9,0.3,1.3c0.1,0.4,0.2,0.8,0.4,1.2c0.1,0.4,0.2,0.8,0.3,1.2c0.1,0.3,0.2,0.7,0.3,1c0.1,0.3,0.2,0.6,0.3,0.9
		c0.1,0.3,0.2,0.6,0.3,0.9c0.1,0.3,0.2,0.6,0.3,0.9c0.1,0.2,0.2,0.5,0.3,0.7c0,0.3,0,0.6,0.1,0.8c0.1,0.2,0.1,0.4,0.1,0.6
		c0.1,0.2,0.1,0.4,0.1,0.6c0.1,0.2,0.1,0.4,0.1,0.6s0,0.3,0.1,0.4c0,0.2,0,0.3,0,0.5c0,0.1,0,0.2,0,0.2c0,0.1,0,0.2,0.1,0.2h-0.1
		c-0.1,0.2-0.2,0.3-0.3,0.4c-0.2,0.1-0.4,0.2-0.7,0.2c-0.4,0.1-0.7,0.1-0.9,0.1c-0.4,0.1-0.9,0.2-1.3,0.2c-0.5,0-1,0-1.5,0.1
		c-0.6,0.1-1.2,0.1-1.7,0.1c-0.6,0.1-1.3,0.1-2,0.1c-0.6,0-1.3,0-2,0.1c-0.7,0-1.5,0-2.2,0c-0.7,0-1.5,0-2.2,0
		c-0.8,0-29.5,0-33.4-0.8c-3.6-0.7-7.1-5.2-7.1-11.8c0-13.5-1.1-21.8-3.1-24.4c-2-2.6-5.7,0-5.8,0.7c-0.1,0.7-2.4,13.3-5.8,25.1
		c-1.6,5.5-3.9,9.1-6.5,10.2C98.1,18.6,70.8,19,70,19c-0.8,0-1.5,0-2.2-0.1c-0.7,0-1.4,0-2.1,0c-0.7-0.1-1.4-0.1-2-0.1
		c-0.6-0.1-1.2-0.1-1.8-0.1c-0.4-0.1-0.9-0.2-1.5-0.2c-0.4,0-0.9,0-1.3-0.1c-0.4-0.1-0.8-0.2-1.1-0.4c-0.3-0.1-0.5-0.2-0.8-0.2
		C57,17.7,56.9,17.5,56.8,17.4z"/>
	<path fill="#020202" d="M208.1,12.4c-0.1-0.3-4.4,6.6-16.6,6.5c-0.3,0.1-0.7,0.1-1.1,0c-0.3,0-0.7,0-1,0c-0.4,0-0.8,0-1.1,0
		c-0.4-0.1-0.8-0.1-1.1-0.1c-0.4-0.1-0.8-0.2-1.1-0.2c-0.3,0-0.7,0-1.1-0.1c-0.3-0.1-0.7-0.2-1.1-0.3c-0.3-0.1-0.7-0.2-1-0.2
		c-0.4-0.2-0.8-0.3-1.1-0.4c-0.3-0.1-0.7-0.2-1.1-0.4c-0.3-0.2-0.7-0.3-1-0.4c-0.3-0.2-0.7-0.3-1.1-0.5c-0.3-0.2-0.7-0.3-1-0.5
		c-0.3-0.2-0.7-0.3-1-0.5c-0.3-0.2-0.7-0.3-1-0.5c-0.3-0.3-0.7-0.5-1-0.6c-0.3-0.2-0.7-0.5-1-0.6c-0.3-0.2-0.7-0.5-1-0.7
		c-0.3-0.2-0.7-0.4-1-0.6c-0.3-0.3-0.6-0.5-0.9-0.8c-0.3-0.2-0.7-0.5-1-0.8c-0.2-0.3-0.5-0.6-0.9-0.9c-0.3-0.2-0.6-0.5-0.9-0.9
		c-0.3-0.2-0.5-0.5-0.9-0.9c-0.2-0.3-0.5-0.7-0.9-1c-0.3-0.2-0.5-0.5-0.8-0.9c-0.3-0.3-0.5-0.7-0.8-1c-0.3-0.3-0.5-0.7-0.8-1.1
		c-0.3-0.3-0.5-0.7-0.8-1c-0.2-0.4-0.5-0.8-0.8-1.1c-0.2-0.4-0.4-0.8-0.6-1.1c-0.2-0.4-0.5-0.8-0.6-1.3c-0.2-0.3-0.5-0.7-0.6-1.1
		c-0.2-0.4-0.4-0.8-0.6-1.3c-0.2-0.4-0.3-0.8-0.5-1.3c-0.2-0.5-0.3-1-0.5-1.4c-0.2-0.4-0.3-0.9-0.5-1.4c-0.2-0.4-0.3-0.9-0.4-1.4
		c-0.2-0.4-0.3-0.9-0.5-1.4c-0.1-0.5-0.2-1-0.3-1.4c-0.2-0.5-0.3-1-0.4-1.5c-0.1-0.5-0.2-1-0.3-1.5c-0.1-0.5-0.2-1-0.3-1.5
		c-0.1-0.6-0.2-1.1-0.2-1.6c0-0.5,0-1-0.1-1.6c0-0.5,0-1-0.1-1.6c0-0.5,0-1,0-1.6s0-1.1,0-1.6c0-0.6,0-1.2,0-1.8
		c0-0.6,0-1.2,0.1-1.8c0-0.6,0-1.2,0.1-1.8c0-0.7,0-1.3,0.1-1.9c0.1-0.6,0.2-1.2,0.2-1.8c0.1-0.7,0.2-1.3,0.3-1.9
		c0.2-0.7,0.3-1.5,0.5-2.1c0.1-0.7,0.2-1.3,0.4-2c0.2-0.7,0.3-1.3,0.5-1.9c0.2-0.7,0.4-1.3,0.6-1.9c0.2-0.7,0.4-1.3,0.6-1.9
		c0.2-0.6,0.4-1.2,0.6-1.8c0.3-0.6,0.5-1.1,0.8-1.6c0.2-0.6,0.5-1.1,0.8-1.6c0.2-0.6,0.5-1.1,0.9-1.6c0.3-0.5,0.5-1,0.9-1.5
		c5.7-8.8,16.2-17.7,30.4-18.4c14.2-0.8,19.6,6.4,19.7,6.1c0.3-0.7-0.5-4.2,1.7-5.5c2.2-1.3,33.8-1.2,33.5,2l0.1,0.1
		c0,0.2,0,0.3,0,0.4c0,0.2,0,0.3,0,0.5c0,0.2,0,0.5,0,0.8c0,0.2,0,0.5,0,0.7c0,0.3,0,0.6,0,0.9c0,0.4,0,0.8,0,1.1
		c0,0.4,0,0.8-0.1,1.1c0,0.5,0,1,0,1.4c-0.1,0.5-0.1,1-0.1,1.4c0,0.6,0,1.1-0.1,1.6c0,0.5,0,1,0,1.6c-0.1,0.6-0.1,1.2-0.1,1.8
		c0,0.7,0,1.3-0.1,1.9c0,0.7,0,1.3,0,2c-0.1,0.7-0.1,1.3-0.1,2c0,0.8,0,1.5-0.1,2.3c0,0.8,0,1.5,0,2.1c-0.1,0.8-0.1,1.6-0.1,2.4
		c0,0.8,0,1.6,0,2.4c0,0.8,0,1.7-0.1,2.5c0,0.8,0,1.7,0,2.5c0,0.9,0,1.8,0,2.6c0,1,0,2,0,2.9c0,0.9,0,1.8,0,2.8
		c0.1,0.9,0.1,1.8,0.1,2.6c0,0.9,0,1.8,0,2.6c0,0.8,0,1.7,0.1,2.5c0,0.8,0,1.7,0,2.5c0.1,0.8,0.1,1.6,0.1,2.4c0,0.8,0,1.5,0.1,2.4
		c0,0.8,0,1.5,0.1,2.1c0,0.7,0,1.5,0,2.3c0.1,0.7,0.1,1.3,0.1,2c0.1,0.7,0.1,1.3,0.1,2c0.1,0.7,0.1,1.3,0.1,1.9
		c0.1,0.7,0.1,1.3,0.1,1.9c0.1,0.6,0.1,1.2,0.1,1.8c0.1,0.5,0.1,1,0.1,1.6c0,0.5,0,1,0.1,1.5c0,0.5,0,1,0.1,1.5c0,0.5,0,1,0,1.4
		C249,9,249,9.4,249,9.9c0,0.3,0,0.7,0.1,1.1c0,0.4,0,0.8,0,1.1c0,0.3,0,0.7,0.1,1c0,0.3,0,0.7,0,1c0,0.3,0,0.5,0,0.8
		c0,0.2,0,0.5,0,0.8c0,0.2,0,0.5,0,0.6c0,0.2,0,0.4,0,0.6c0,0.1,0,0.2-0.1,0.4c0,0.2,0,0.3,0,0.4c-0.1,0.1-0.1,0.2-0.1,0.2
		c0,0.1,0,0.1-0.1,0.1c-0.2,0.1-0.3,0.2-0.5,0.2c-0.3,0.1-0.6,0.1-0.9,0.1c-0.4,0.1-0.8,0.2-1.3,0.2c-0.4,0-2.5,0.1-3,0.1
		c-0.7,0.1-1.3,0.1-1.9,0.1c-0.7,0-1.3,0-2,0c-0.7,0-3.5,0-4.3,0c-0.7,0-1.5,0-2.3,0s-3.6,0-4.4-0.1c-0.8,0-7.3-0.4-7.9-0.4
		c-0.5-0.1-3.8-0.5-3.8-0.5C209.6,17.5,208.3,13,208.1,12.4z"/>
	<path fill="#FFFFFF" d="M69.4,10.3v-0.1c0-0.1,0-0.1,0-0.2c0-0.1,0-0.2,0-0.3c0-0.1,0-0.2,0-0.3c0-0.1,0-0.2,0.1-0.3
		c0-0.2,0-0.4,0.1-0.5c0-0.1,0-0.3,0-0.5c0.1-0.2,0.1-0.4,0.2-0.6c0-0.2,0-0.4,0.1-0.6C70,6.6,70,6.4,70,6.1
		c0.1-0.2,0.1-0.4,0.2-0.7c0.1-0.3,0.1-0.6,0.2-0.8c0.1-0.3,0.1-0.6,0.2-0.8c0.1-0.3,0.1-0.7,0.2-0.9c0.1-0.3,0.1-0.7,0.2-1
		c0.1-0.3,0.2-0.7,0.3-1c0.1-0.3,0.2-0.7,0.3-1c0.1-0.3,0.1-0.7,0.2-1.1c0.1-0.3,0.2-0.7,0.3-1.1c0.1-0.4,0.2-0.8,0.3-1.2
		c0.1-0.4,0.3-0.8,0.4-1.2C73-5.6,73.1-6,73.2-6.4c0.1-0.5,0.2-0.9,0.3-1.4c0.1-0.5,0.3-1,0.4-1.5c0.1-0.4,0.3-0.9,0.4-1.3
		c0.1-0.5,0.2-1,0.3-1.5c0.1-0.5,0.3-1,0.4-1.5c0.1-0.6,0.3-1.1,0.4-1.6c0.1-0.5,0.3-1,0.4-1.6c0.1-0.5,0.3-1,0.4-1.6
		c0.2-0.6,0.4-1.1,0.5-1.6c0.1-0.6,0.3-1.1,0.4-1.7c0.1-0.6,0.3-1.1,0.4-1.7c0.2-0.6,0.4-1.1,0.5-1.7c0.1-0.6,0.3-1.1,0.5-1.7
		c0.1-0.6,0.3-1.2,0.4-1.8c0.2-0.6,0.4-1.1,0.5-1.8c0.1-0.6,0.3-1.1,0.5-1.7c0.1-0.6,0.3-1.2,0.4-1.8c0.2-0.6,0.4-1.2,0.5-1.9
		c0.2-0.6,0.4-1.1,0.5-1.8c0.2-0.6,0.4-1.1,0.5-1.8c0.2-0.6,0.4-1.2,0.5-1.9c0.2-0.6,0.4-1.1,0.5-1.8c0.2-0.6,0.4-1.2,0.5-1.9
		c0.2-0.6,0.4-1.1,0.5-1.8c0.2-0.6,0.4-1.2,0.5-1.9c0.2-0.6,0.4-1.2,0.5-1.8c0.2-0.6,0.4-1.2,0.5-1.9c0.2-0.6,0.4-1.2,0.5-1.9
		c0.2-0.6,0.4-1.1,0.6-1.8c0.1-0.6,0.3-1.2,0.5-1.9c0.1-0.6,0.3-1.2,0.5-1.8c0.1-0.6,0.3-1.2,0.5-1.9c0.1-0.6,0.3-1.1,0.5-1.8
		c0.1-0.6,0.3-1.2,0.5-1.8c0.1-0.6,0.3-1.2,0.5-1.8c0.1-0.6,0.3-1.2,0.5-1.8c0.1-0.6,0.3-1.2,0.5-1.8c0.1-0.6,0.3-1.1,0.5-1.8
		c0.1-0.6,0.3-1.1,0.4-1.7c0.2-0.6,0.4-1.1,0.5-1.7c0.2-0.6,0.4-1.1,0.5-1.7c0.1-0.6,0.3-1.1,0.5-1.7c0.1-0.5,0.3-1.1,0.4-1.7
		c0.2-0.5,0.4-1,0.5-1.6c0.1-0.6,0.3-1.1,0.4-1.6c0.2-0.5,0.4-1,0.5-1.6c0.1-0.5,0.3-1,0.4-1.5c0.1-0.5,0.3-1,0.4-1.5
		c0.1-0.5,0.3-1,0.5-1.5c0.1-0.5,0.3-1,0.4-1.5c0.1-0.4,0.3-0.9,0.4-1.3c0.1-0.4,0.3-0.9,0.4-1.4c0.1-0.4,0.2-0.8,0.3-1.2
		c0.1-0.4,0.3-0.8,0.4-1.2c0.1-0.4,0.2-0.8,0.3-1.2c0.1-0.3,0.3-0.7,0.4-1.1c0.1-0.3,0.2-0.7,0.3-1c0.1-0.4,0.2-0.8,0.3-1.1
		c0.1-0.3,0.2-0.7,0.3-0.9c0.1-0.3,0.2-0.7,0.3-1c0.1-0.3,0.2-0.6,0.3-0.8c0.1-0.3,0.2-0.7,0.3-0.9c0.1-0.2,0.1-0.4,0.2-0.7
		c0.1-0.3,0.2-0.5,0.3-0.7c0.1-0.3,0.1-0.5,0.2-0.7c0.1-0.2,0.1-0.4,0.2-0.6c0.1-0.2,0.1-0.4,0.2-0.5c0-0.2,0-0.4,0.1-0.5
		c0.1-0.1,0.1-0.3,0.2-0.4c0-0.1,0-0.3,0.1-0.4c0.1-0.1,0.1-0.2,0.1-0.3c0.1-0.1,0.1-0.1,0.1-0.2c0-0.1,0-0.1,0.1-0.2v-0.1
		c0.1-0.1,0.3-0.1,0.4-0.2c0.2-0.1,0.4-0.1,0.6-0.2c0.3-0.1,0.6-0.1,0.9-0.1c0.3-0.1,0.7-0.1,1-0.2c0.5,0,0.9,0,1.4-0.1
		c0.5,0,1,0,1.5-0.1c0.6,0,1.1,0,1.7-0.1c0.6,0,1.1,0,1.7,0c0.6,0,1.3,0,1.9-0.1c0.6,0,1.2,0,1.8,0c0.6,0,1.3,0,1.9,0
		c0.6,0,1.2,0,1.9,0c0.6,0.1,1.2,0.1,1.8,0.1c0.6,0,1.2,0,1.8,0c0.5,0,1.1,0,1.7,0.1c0.5,0,1,0,1.5,0.1c0.5,0,0.9,0,1.4,0
		c0.4,0.1,0.8,0.1,1.1,0.1c0.3,0.1,0.7,0.1,0.9,0.1c0.2,0.1,0.4,0.1,0.7,0.2c0.1,0,0.3,0,0.4,0.1v0.1c0.1,0,0.1,0,0.1,0.1
		c0.1,0.1,0.1,0.1,0.1,0.2c0.1,0.1,0.1,0.2,0.1,0.3c0.1,0.1,0.1,0.2,0.2,0.3c0,0.1,0,0.3,0.1,0.4c0.1,0.2,0.1,0.4,0.2,0.5
		c0.1,0.2,0.1,0.4,0.2,0.6c0.1,0.2,0.1,0.4,0.2,0.6s0.1,0.4,0.2,0.6c0.1,0.3,0.1,0.5,0.2,0.7c0.1,0.3,0.2,0.6,0.3,0.8
		c0.1,0.3,0.2,0.6,0.3,0.8c0.1,0.3,0.1,0.7,0.2,0.9c0.1,0.3,0.2,0.7,0.3,1c0.1,0.4,0.2,0.7,0.3,1c0.1,0.3,0.3,0.7,0.4,1
		c0.1,0.3,0.2,0.7,0.3,1.1c0.1,0.3,0.2,0.7,0.3,1.1c0.1,0.4,0.3,0.8,0.4,1.2c0.1,0.4,0.3,0.8,0.4,1.2c0.1,0.4,0.2,0.9,0.3,1.4
		c0.1,0.4,0.3,0.9,0.4,1.3c0.1,0.4,0.3,0.9,0.4,1.4c0.1,0.5,0.3,1,0.4,1.5c0.1,0.5,0.3,1,0.4,1.5c0.2,0.5,0.4,1,0.5,1.5
		c0.1,0.6,0.3,1.1,0.4,1.6c0.1,0.6,0.3,1.1,0.4,1.6c0.2,0.6,0.4,1.1,0.5,1.7c0.1,0.5,0.3,1,0.4,1.6c0.2,0.6,0.4,1.1,0.5,1.7
		c0.1,0.6,0.3,1.1,0.5,1.7c0.1,0.6,0.3,1.1,0.4,1.8c0.2,0.6,0.4,1.1,0.5,1.7c0.2,0.6,0.4,1.1,0.5,1.8c0.1,0.6,0.3,1.1,0.5,1.8
		c0.1,0.6,0.3,1.1,0.5,1.8c0.1,0.6,0.3,1.2,0.5,1.8c0.1,0.6,0.3,1.2,0.5,1.9c0.1,0.6,0.3,1.1,0.5,1.8c0.1,0.6,0.3,1.2,0.4,1.9
		c0.2,0.6,0.4,1.2,0.5,1.8c0.2,0.6,0.4,1.2,0.6,1.9c0.1,0.6,0.3,1.2,0.5,1.9c0.1,0.6,0.3,1.2,0.5,1.9c0.1,0.6,0.3,1.2,0.5,1.9
		c0.1,0.6,0.3,1.2,0.5,1.9c0.1,0.6,0.3,1.2,0.5,1.9c0.1,0.6,0.3,1.2,0.5,1.9c0.1,0.6,0.3,1.1,0.5,1.8c0.1,0.6,0.3,1.2,0.4,1.9
		c0.2,0.6,0.4,1.2,0.5,1.9c0.2,0.6,0.4,1.2,0.5,1.9c0.2,0.6,0.4,1.1,0.5,1.8c0.2,0.6,0.4,1.2,0.5,1.9c0.1,0.6,0.3,1.1,0.5,1.8
		c0.1,0.6,0.3,1.2,0.4,1.8c0.2,0.6,0.4,1.2,0.5,1.8c0.1,0.6,0.3,1.2,0.5,1.8c0.1,0.6,0.3,1.1,0.4,1.8c0.1,0.6,0.3,1.1,0.5,1.7
		c0.1,0.6,0.3,1.1,0.4,1.7c0.1,0.6,0.3,1.1,0.4,1.7c0.2,0.6,0.4,1.1,0.5,1.7c0.1,0.6,0.3,1.1,0.4,1.6c0.1,0.6,0.3,1.1,0.4,1.7
		c0.1,0.5,0.3,1,0.4,1.5c0.1,0.6,0.3,1.1,0.4,1.6c0.1,0.5,0.2,1,0.3,1.5c0.1,0.5,0.3,1,0.4,1.5c0.1,0.5,0.3,1,0.4,1.5
		c0.1,0.4,0.2,0.9,0.3,1.4c0.1,0.4,0.3,0.9,0.4,1.3c0.1,0.4,0.2,0.8,0.3,1.2c0.1,0.4,0.2,0.8,0.3,1.2c0.1,0.4,0.2,0.8,0.3,1.1
		c0.1,0.4,0.2,0.8,0.3,1.1c0.1,0.4,0.1,0.8,0.2,1.1c0.1,0.3,0.2,0.7,0.3,1c0.1,0.3,0.1,0.7,0.2,1c0.1,0.3,0.1,0.6,0.2,0.9
		c0.1,0.3,0.1,0.6,0.2,0.8c0.1,0.3,0.1,0.6,0.2,0.8c0.1,0.3,0.1,0.6,0.2,0.8c0.1,0.2,0.1,0.4,0.2,0.6c0,0.3,0,0.5,0.1,0.7
		c0.1,0.2,0.1,0.4,0.1,0.5c0.1,0.2,0.1,0.4,0.1,0.5c0.1,0.2,0.1,0.4,0.1,0.5c0,0.1,0,0.2,0.1,0.3c0,0.1,0,0.3,0,0.4
		c0,0.1,0,0.1,0,0.2c0,0.1,0,0.1,0.1,0.2h-0.1c-0.1,0.1-0.1,0.2-0.2,0.3c-0.1,0.1-0.3,0.1-0.5,0.2c-0.3,0.1-0.5,0.1-0.7,0.1
		c-0.3,0.1-0.7,0.1-1,0.2c-0.4,0-0.8,0-1.1,0.1c-0.5,0.1-0.9,0.1-1.3,0.1c-0.5,0.1-1,0.1-1.6,0.1c-0.5,0-1,0-1.6,0.1
		c-0.6,0-1.1,0-1.8,0c-0.6,0-1.1,0-1.8,0c-0.6,0-1.2,0-1.8,0c-0.6,0-1.2,0-1.9,0c-0.6,0-1.2,0-1.9,0c-0.6,0-1.3,0-1.9,0
		c-0.6-0.1-1.3-0.1-1.9-0.1c-0.5,0-1.1,0-1.7-0.1c-0.6,0-1.1,0-1.7,0c-0.5-0.1-1-0.1-1.6-0.1c-0.4-0.1-0.9-0.1-1.4-0.1
		c-0.4-0.1-0.8-0.1-1.1-0.2c-0.3,0-0.7,0-1-0.1c-0.3-0.1-0.5-0.1-0.8-0.2c-0.2,0-0.4,0-0.5-0.1c-0.1-0.1-0.2-0.1-0.3-0.2
		c-0.1-0.1-0.1-0.1-0.2-0.2c-0.1-0.2-0.1-0.4-0.2-0.5c-0.1-0.3-0.1-0.5-0.2-0.7c-0.1-0.3-0.2-0.6-0.3-0.9c-0.1-0.3-0.2-0.7-0.3-1
		c-0.1-0.4-0.2-0.8-0.3-1.2c-0.1-0.5-0.3-1-0.4-1.5c-0.1-0.5-0.2-1-0.3-1.5c-0.1-0.6-0.3-1.1-0.4-1.6c-0.1-0.6-0.3-1.2-0.4-1.8
		c-0.1-0.6-0.3-1.1-0.4-1.8c-0.1-0.6-0.3-1.1-0.4-1.8c-0.1-0.6-0.3-1.2-0.4-1.9c-0.1-0.6-0.3-1.2-0.4-1.8c-0.1-0.6-0.3-1.2-0.4-1.9
		c-0.1-0.6-0.3-1.2-0.4-1.9c-0.1-0.6-0.3-1.1-0.4-1.8c-0.1-0.5-0.2-1.1-0.3-1.8c-0.1-0.6-0.3-1.1-0.4-1.6c-0.1-0.6-0.2-1.1-0.3-1.6
		c-0.1-0.5-0.2-1-0.3-1.5c-0.1-0.5-0.2-0.9-0.3-1.3c-0.1-0.4-0.1-0.8-0.2-1.1c-0.1-0.3-0.2-0.7-0.3-1c0-0.3,0-0.6-0.1-0.8
		c-0.1-0.2-0.1-0.4-0.2-0.5c0-0.1,0-0.3,0-0.4c0-0.1,0-0.1-0.1-0.2c-0.1,0-0.3,0-0.5-0.1c-0.3,0-0.5,0-0.8-0.1
		c-0.4-0.1-0.8-0.1-1.3-0.1c-0.5,0-1,0-1.6-0.1c-0.6,0-1.1,0-1.7,0c-0.6-0.1-1.2-0.1-1.8-0.1c-0.6,0-1.3,0-1.9,0c-0.6,0-1.2,0-1.8,0
		c-0.6,0-1.2,0-1.8,0.1c-0.5,0-1,0-1.5,0.1c-0.4,0.1-0.9,0.1-1.4,0.2c-0.3,0.1-0.6,0.2-0.9,0.3c-0.2,0.1-0.4,0.2-0.5,0.3v0.1
		c-0.1,0.1-0.1,0.3-0.1,0.4c-0.1,0.2-0.1,0.4-0.1,0.6c-0.1,0.3-0.1,0.6-0.2,0.8c-0.1,0.3-0.1,0.7-0.2,1c-0.1,0.4-0.2,0.8-0.3,1.2
		c-0.1,0.4-0.1,0.9-0.2,1.4c-0.1,0.5-0.2,1-0.3,1.5c-0.1,0.6-0.3,1.1-0.4,1.7c-0.1,0.6-0.2,1.1-0.3,1.7c-0.1,0.6-0.3,1.2-0.4,1.8
		c-0.1,0.6-0.3,1.2-0.4,1.9c-0.1,0.6-0.3,1.2-0.4,1.9c-0.1,0.6-0.3,1.2-0.4,1.9c-0.1,0.6-0.3,1.2-0.4,1.9c-0.1,0.6-0.3,1.2-0.4,1.9
		c-0.1,0.6-0.3,1.2-0.4,1.9c-0.1,0.6-0.2,1.1-0.3,1.8c-0.1,0.6-0.3,1.1-0.4,1.7c-0.1,0.6-0.3,1.1-0.4,1.6c-0.1,0.5-0.2,1-0.3,1.5
		c-0.1,0.5-0.3,0.9-0.4,1.3c-0.1,0.4-0.2,0.8-0.3,1.1c-0.1,0.3-0.1,0.7-0.2,0.9c-0.1,0.3-0.2,0.6-0.3,0.8c-0.1,0.2-0.1,0.4-0.2,0.5
		c0,0.1,0,0.2-0.1,0.3c-0.1,0.1-0.2,0.2-0.3,0.2c-0.2,0.1-0.4,0.1-0.6,0.2c-0.3,0.1-0.6,0.1-0.8,0.2c-0.3,0.1-0.7,0.1-1,0.2
		c-0.4,0.1-0.8,0.1-1.3,0.2c-0.5,0.1-1,0.1-1.5,0.1c-0.5,0.1-1,0.1-1.6,0.2c-0.6,0-1.1,0-1.7,0.1c-0.5,0.1-1.1,0.1-1.8,0.1
		c-0.5,0.1-1.1,0.1-1.8,0.1c-0.6,0.1-1.2,0.1-1.9,0.1s-1.2,0-1.9,0c-0.6,0-1.2,0-1.9,0.1c-0.6,0-1.2,0-1.8,0c-0.6,0-1.2,0-1.8-0.1
		c-0.6,0-1.1,0-1.7,0c-0.6-0.1-1.1-0.1-1.6-0.1c-0.5-0.1-1-0.1-1.5-0.1c-0.3-0.1-0.7-0.1-1.1-0.2c-0.3,0-0.7,0-1-0.1
		c-0.3-0.1-0.6-0.2-0.8-0.3c-0.2-0.1-0.4-0.1-0.6-0.2C69.6,10.6,69.5,10.5,69.4,10.3z M122.9-37.4c0.1-0.1-1.9-8.5-2.7-13.5
		c-0.6-3.7-2.3-17.6-2.3-17.6s-0.2-3.6-1.2-3.6s-1.5,3.8-1.5,3.8s-2,12.6-2.3,16.7c-0.4,5.6-3,14.9-2.9,15c0.1,0.1,0.3,0.1,0.6,0.1
		c0.3,0,0.7,0,1,0.1c0.5,0,1,0,1.5,0c0.6-0.1,1.1-0.1,1.7-0.1c0.5,0,1.1,0,1.7,0c0.6-0.1,1.2-0.1,1.8-0.1c0.6-0.1,1.1-0.1,1.7-0.2
		c0.4,0,0.9,0,1.4-0.1c0.3-0.1,0.7-0.2,1.1-0.2C122.6-37.2,122.8-37.2,122.9-37.4z"/>
	<path fill="#FFFFFF" d="M212.6,1.4c-0.1-0.3-0.3,0-0.6,0.9c-0.1,0.3-0.4,0.6-0.7,0.8c-0.3,0.2-0.5,0.5-0.7,0.7
		c-0.2,0.3-0.4,0.5-0.7,0.7c-0.3,0.3-0.5,0.5-0.7,0.7c-0.3,0.3-0.6,0.5-0.8,0.7c-0.3,0.2-0.5,0.4-0.7,0.6c-0.3,0.2-0.6,0.4-0.8,0.6
		c-0.3,0.1-0.5,0.3-0.8,0.5c-0.3,0.2-0.6,0.4-0.8,0.5c-0.3,0.1-0.6,0.3-0.8,0.5c-0.3,0.1-0.5,0.3-0.8,0.4c-0.3,0.1-0.6,0.3-0.9,0.4
		c-0.3,0.1-0.5,0.2-0.8,0.3c-0.3,0.1-0.6,0.3-0.9,0.4c-0.3,0.1-0.6,0.1-0.8,0.2c-0.3,0.1-0.6,0.2-0.9,0.3c-0.3,0.1-0.6,0.1-0.9,0.2
		c-0.3,0.1-0.6,0.1-0.8,0.2c-0.3,0.1-0.7,0.1-0.9,0.1c-0.3,0.1-0.6,0.1-0.9,0.1c-0.3,0.1-0.6,0.1-0.9,0.1c-0.3,0-0.6,0-0.9,0
		c-0.3,0.1-0.6,0.1-0.9,0c-0.3,0-0.6,0-0.8,0c-0.4,0-0.7,0-0.9,0c-0.3-0.1-0.7-0.1-0.9-0.1c-0.3-0.1-0.7-0.1-0.9-0.2
		c-0.3,0-0.6,0-0.9-0.1c-0.3-0.1-0.6-0.1-0.9-0.2c-0.3-0.1-0.6-0.1-0.8-0.2c-0.3-0.1-0.7-0.2-0.9-0.3c-0.3-0.1-0.6-0.2-0.9-0.3
		c-0.3-0.1-0.6-0.2-0.8-0.3c-0.3-0.1-0.6-0.3-0.9-0.4c-0.3-0.1-0.5-0.3-0.8-0.4c-0.3-0.1-0.6-0.3-0.8-0.4c-0.3-0.1-0.6-0.3-0.8-0.4
		c-0.3-0.2-0.5-0.4-0.8-0.5c-0.3-0.2-0.6-0.4-0.8-0.5c-0.3-0.2-0.6-0.4-0.8-0.6c-0.3-0.1-0.5-0.3-0.8-0.5s-0.5-0.4-0.7-0.6
		c-0.3-0.2-0.6-0.4-0.8-0.6c-0.2-0.3-0.5-0.5-0.7-0.7c-0.3-0.2-0.5-0.4-0.7-0.7c-0.2-0.2-0.5-0.4-0.7-0.7c-0.2-0.3-0.5-0.6-0.7-0.8
		c-0.2-0.2-0.4-0.4-0.6-0.7c-0.2-0.3-0.4-0.6-0.6-0.8c-0.2-0.3-0.4-0.6-0.6-0.9c-0.2-0.3-0.4-0.5-0.6-0.8c-0.2-0.3-0.4-0.7-0.6-0.9
		c-0.1-0.3-0.3-0.7-0.5-0.9c-0.2-0.3-0.4-0.7-0.5-1c-0.2-0.3-0.4-0.6-0.5-0.9c-0.1-0.3-0.3-0.7-0.5-1c-0.1-0.3-0.3-0.7-0.4-1
		c-0.1-0.4-0.3-0.8-0.4-1.1c-0.1-0.3-0.3-0.7-0.4-1.1c-0.1-0.3-0.2-0.7-0.3-1.1c-0.1-0.3-0.3-0.7-0.4-1.1c-0.1-0.4-0.1-0.8-0.2-1.1
		c-0.1-0.4-0.2-0.8-0.3-1.2c-0.1-0.4-0.1-0.8-0.2-1.2c-0.1-0.4-0.1-0.8-0.2-1.2c-0.1-0.5-0.1-0.9-0.2-1.4c0-0.4,0-0.9-0.1-1.3
		c0-0.4,0-0.9-0.1-1.4c0-0.4,0-0.9,0-1.3c0-0.5,0-0.9,0-1.4c0-0.5,0-1,0-1.5c0-0.5,0-1,0.1-1.5c0-0.5,0-1,0.1-1.5
		c0-0.6,0-1.1,0.1-1.6c0.1-0.5,0.1-1,0.2-1.5c0.1-0.6,0.1-1.1,0.2-1.6c0.1-0.6,0.3-1.2,0.4-1.8c0.1-0.6,0.2-1.1,0.3-1.7
		c0.1-0.6,0.3-1.1,0.4-1.6c0.1-0.6,0.3-1.1,0.5-1.6c0.1-0.6,0.3-1.1,0.5-1.6c0.1-0.5,0.3-1,0.5-1.5c0.2-0.5,0.4-0.9,0.6-1.4
		c0.2-0.5,0.4-0.9,0.6-1.3c0.2-0.5,0.4-0.9,0.7-1.4c0.2-0.4,0.4-0.8,0.7-1.2c0.2-0.4,0.4-0.8,0.7-1.1c0.3-0.4,0.6-0.8,0.8-1.1
		c0.3-0.4,0.6-0.8,0.8-1.1c0.3-0.3,0.5-0.7,0.8-1c0.3-0.3,0.6-0.7,0.8-1c0.3-0.3,0.7-0.6,0.9-0.9c0.3-0.3,0.7-0.6,0.9-0.8
		c0.3-0.3,0.7-0.6,1-0.8c0.3-0.3,0.6-0.6,0.9-0.8c0.3-0.3,0.7-0.5,1-0.7c0.3-0.3,0.7-0.5,1-0.7c0.3-0.2,0.7-0.4,1-0.6
		c0.3-0.2,0.7-0.4,1-0.6c0.4-0.2,0.8-0.4,1.2-0.5c0.3-0.2,0.7-0.4,1.1-0.5c0.3-0.1,0.7-0.3,1-0.5c0.4-0.1,0.8-0.3,1.1-0.4
		c0.4-0.1,0.8-0.2,1.1-0.3c0.4-0.1,0.8-0.2,1.1-0.3c0.4-0.1,0.8-0.2,1.1-0.3c0.4-0.1,0.8-0.1,1.2-0.2c0.4-0.1,0.8-0.1,1.1-0.2
		c0.4-0.1,0.8-0.1,1.2-0.1c0.3-0.1,0.7-0.1,1.1-0.1c0.3-0.1,0.7-0.1,1.1-0.1c0.4,0,0.8,0,1.2,0c0.4,0,0.8,0,1.1,0
		c0.4,0,0.8,0,1.1,0.1c0.4,0,0.8,0,1.1,0.1c0.4,0,0.8,0,1.1,0.1c0.4,0.1,0.8,0.1,1.1,0.2c0.3,0.1,0.7,0.1,1.2,0.2
		c0.3,0.1,0.7,0.2,1,0.3c0.4,0.1,0.8,0.2,1.1,0.3c0.3,0.1,0.7,0.3,1,0.4c0.3,0.1,0.7,0.2,1,0.3c0.3,0.1,0.7,0.3,1,0.4
		c0.3,0.2,0.7,0.4,1,0.5c0.3,0.1,0.6,0.3,0.9,0.5c0.3,0.2,0.7,0.4,0.9,0.5c0.3,0.2,0.7,0.4,0.9,0.6c0.3,0.2,0.7,0.4,0.9,0.6
		c0.4,0.1,0.7,0.3,0.8,0.6c0.5,0.8,0.8,1,0.8,0.7c0.3-0.5,0.4-1.3,0.3-2.2c-0.1-0.6,0-1.2,0.2-1.9c0.1-0.4,0.2-0.9,0.3-1.4
		c0-0.3,0.1-0.5,0.3-0.6c0.1-0.1,0.2-0.1,0.4-0.2c0.2-0.1,0.4-0.1,0.7-0.1c0.3-0.1,0.7-0.1,1-0.1c0.4-0.1,0.8-0.1,1.3-0.1
		c0.5,0,1,0,1.5,0c0.6,0,1.1,0,1.7,0c0.5,0,1.1,0,1.8,0c0.6,0,1.2,0,1.8,0c0.6,0,1.3,0,1.9,0.1c0.6,0,1.3,0,2,0.1
		c0.5,0,1.1,0,1.8,0.1c0.6,0.1,1.2,0.1,1.8,0.2c0.5,0.1,1.1,0.1,1.7,0.2c0.5,0.1,1,0.1,1.5,0.2c0.4,0.1,0.8,0.1,1.3,0.2
		c0.3,0.1,0.7,0.2,1,0.3c0.3,0.1,0.5,0.1,0.7,0.2c0.1,0.1,0.3,0.3,0.4,0.4l0.1,0.1c0,0.1,0,0.2,0,0.3c0,0.1,0,0.3,0,0.4
		c0,0.2,0,0.4,0,0.6s0,0.4,0,0.6c0,0.3,0,0.5,0,0.7c0,0.3,0,0.7,0,0.9c0,0.4,0,0.7-0.1,0.9c0,0.4,0,0.8,0,1.1
		c-0.1,0.4-0.1,0.8-0.1,1.1c0,0.5,0,0.9-0.1,1.4c0,0.4,0,0.9,0,1.3c-0.1,0.5-0.1,1-0.1,1.5c0,0.6,0,1.1-0.1,1.6c0,0.6,0,1.1,0,1.7
		c-0.1,0.6-0.1,1.1-0.1,1.7c0,0.6,0,1.2-0.1,1.9c0,0.6,0,1.2,0,1.8c-0.1,0.7-0.1,1.3-0.1,2c0,0.7,0,1.4,0,2c0,0.7,0,1.4-0.1,2.1
		c0,0.7,0,1.4,0,2.1c0,0.8,0,1.5,0,2.2c0,0.8,0,1.6,0,2.4s0,1.5,0,2.3c0.1,0.8,0.1,1.5,0.1,2.2c0,0.8,0,1.5,0,2.2s0,1.4,0.1,2.1
		c0,0.7,0,1.4,0,2.1c0.1,0.7,0.1,1.3,0.1,2c0,0.6,0,1.3,0.1,2c0,0.6,0,1.2,0.1,1.8c0,0.6,0,1.2,0,1.9c0.1,0.6,0.1,1.1,0.1,1.7
		c0.1,0.6,0.1,1.1,0.1,1.7c0.1,0.6,0.1,1.1,0.1,1.6c0.1,0.6,0.1,1.1,0.1,1.6c0.1,0.5,0.1,1,0.1,1.5c0.1,0.4,0.1,0.9,0.1,1.3
		c0,0.4,0,0.8,0.1,1.2c0,0.4,0,0.8,0.1,1.2c0,0.4,0,0.8,0,1.1c0.1,0.3,0.1,0.7,0.1,1.1c0,0.3,0,0.6,0.1,0.9c0,0.3,0,0.7,0,0.9
		c0,0.3,0,0.6,0.1,0.8c0,0.3,0,0.6,0,0.8c0,0.2,0,0.4,0,0.6c0,0.2,0,0.4,0,0.6c0,0.2,0,0.4,0,0.5c0,0.1,0,0.3,0,0.5
		c0,0.1,0,0.2-0.1,0.3c0,0.1,0,0.2,0,0.3c-0.1,0.1-0.1,0.1-0.1,0.2c0,0.1,0,0.1-0.1,0.1c-0.1,0.1-0.3,0.1-0.4,0.2
		c-0.3,0.1-0.5,0.1-0.7,0.1c-0.3,0.1-0.7,0.1-1,0.2c-0.3,0-0.7,0-1.1,0.1c-0.5,0-0.9,0-1.4,0c-0.5,0.1-1.1,0.1-1.6,0.1
		c-0.6,0-1.1,0-1.7,0c-0.5,0-1.1,0-1.8,0c-0.6,0-1.2,0-1.8,0c-0.6,0-1.3,0-1.9,0c-0.6,0-1.2,0-1.9,0c-0.5,0-1.1,0-1.8-0.1
		c-0.6,0-1.2,0-1.8-0.1c-0.6,0-1.2,0-1.8,0c-0.5-0.1-1-0.1-1.6-0.1c-0.5-0.1-1-0.1-1.5-0.1c-0.4-0.1-0.8-0.1-1.2-0.1
		c-0.3-0.1-0.7-0.1-1-0.2c-0.3,0-0.6,0-0.8-0.1c-0.2-0.1-0.4-0.1-0.6-0.1c-0.1-0.1-0.2-0.1-0.3-0.2c-0.2-0.2-0.3-0.5-0.4-0.7
		c-0.1-0.3-0.2-0.6-0.3-0.8c-0.1-0.4-0.2-0.8-0.2-1.1c-0.1-0.5-0.1-0.9-0.1-1.4c0.1-0.5,0.1-1,0.1-1.6c-0.1-0.6-0.1-1.1,0-1.7
		C212.7,2.5,212.7,1.9,212.6,1.4z M202.7-38.6c-0.4-0.1-0.9-0.1-1.3-0.1c-0.5,0-0.9,0-1.4,0c-0.5,0.1-0.9,0.2-1.4,0.3
		c-0.4,0.1-0.8,0.3-1.2,0.4c-0.4,0.2-0.8,0.4-1.2,0.7c-0.4,0.2-0.8,0.4-1.1,0.7c-0.3,0.3-0.7,0.6-0.9,0.9c-0.3,0.3-0.7,0.7-0.9,1
		c-0.3,0.3-0.6,0.7-0.8,1.1c-0.2,0.3-0.4,0.7-0.6,1.1c-0.2,0.5-0.4,0.9-0.6,1.4c-0.1,0.4-0.3,0.9-0.4,1.3c-0.1,0.4-0.1,0.9-0.2,1.4
		c-0.1,0.5-0.1,1-0.1,1.5c0,0.4,0,0.9,0,1.3c0.1,0.5,0.2,0.9,0.3,1.4c0.1,0.4,0.3,0.8,0.4,1.2c0.1,0.5,0.3,0.9,0.5,1.2
		c0.3,0.4,0.5,0.8,0.7,1.1c0.3,0.4,0.5,0.8,0.8,1.1c0.3,0.4,0.6,0.7,0.9,0.9c0.3,0.3,0.7,0.6,1,0.8c0.3,0.3,0.7,0.5,1,0.7
		c0.3,0.3,0.7,0.5,1.2,0.6c0.4,0.1,0.8,0.3,1.1,0.4c0.4,0.1,0.8,0.2,1.2,0.3c0.4,0.1,0.8,0.1,1.3,0.1c0.4,0,0.8,0,1.2-0.1
		c0.5-0.1,1-0.2,1.5-0.3c0.5-0.1,1-0.3,1.5-0.5c0.5-0.1,0.9-0.3,1.4-0.5c0.4-0.3,0.8-0.6,1.2-0.8c0.4-0.2,0.8-0.5,1.2-0.8
		c0.3-0.3,0.7-0.6,1-0.9c0.3-0.3,0.7-0.7,0.9-1.1c0.3-0.3,0.5-0.7,0.7-1.1c0.2-0.4,0.4-0.8,0.6-1.2c0.2-0.5,0.4-0.9,0.5-1.3
		c0.1-0.5,0.1-1,0.2-1.5c0.1-0.5,0.1-1,0.2-1.5c0-0.6,0-1.1-0.1-1.6c-0.1-0.5-0.1-0.9-0.2-1.4c-0.1-0.5-0.3-0.9-0.4-1.3
		c-0.2-0.4-0.4-0.8-0.6-1.2c-0.2-0.3-0.5-0.7-0.7-1.1c-0.3-0.3-0.6-0.7-0.9-0.9c-0.3-0.3-0.6-0.7-0.9-0.9c-0.4-0.3-0.8-0.6-1.1-0.8
		c-0.4-0.3-0.8-0.5-1.2-0.7c-0.4-0.2-0.9-0.4-1.4-0.6c-0.4-0.1-0.9-0.3-1.4-0.4C203.7-38.5,203.2-38.6,202.7-38.6z"/>
</g>
</svg>
