<?xml version="1.0" encoding="utf-8"?>
<!-- Generator: Adobe Illustrator 18.0.0, SVG Export Plug-In . SVG Version: 6.00 Build 0)  -->
<!DOCTYPE svg PUBLIC "-//W3C//DTD SVG 1.0//EN" "http://www.w3.org/TR/2001/REC-SVG-20010904/DTD/svg10.dtd">
<svg version="1.0" id="Camada_1" xmlns="http://www.w3.org/2000/svg" xmlns:xlink="http://www.w3.org/1999/xlink" x="0px" y="0px"
	 viewBox="0 0 204.3 81.9" enable-background="new 0 0 204.3 81.9" xml:space="preserve">
<g>
	<g>
		<path fill="#1B7C09" d="M12.6,60.1L12.6,60.1c0-0.1,0-0.4,0-0.4c0-0.1,0-0.1,0-0.2c0,0,0-0.1,0-0.2c0-0.1,0-0.1,0.1-0.2
			c0-0.2,0.1-0.3,0.1-0.5c0.2-0.5,0.3-1,0.4-1.5c0.1-0.2,0.1-0.5,0.2-0.7c0-0.1,0-0.3,0.1-0.4c0-0.1,0.1-0.3,0.1-0.4
			c0-0.1,0.1-0.3,0.1-0.4c0-0.1,0.1-0.3,0.1-0.4c0.1-0.3,0.2-0.6,0.2-0.9c0.1-0.3,0.2-0.7,0.3-1c0.1-0.9,0.5-1.8,0.7-2.7
			c0.2-0.6,0.3-1.2,0.5-1.7c0.1-0.4,0.2-0.8,0.4-1.2c0-0.2,0.1-0.4,0.1-0.6c0.1-0.4,0.2-0.8,0.4-1.2c0-0.2,0.1-0.4,0.1-0.6
			c0.1-0.2,0.1-0.4,0.2-0.7c0.1-0.2,0.1-0.4,0.2-0.6c0.1-0.2,0.1-0.4,0.2-0.6c0.1-0.2,0.1-0.4,0.2-0.7c0.1-0.2,0.1-0.4,0.2-0.6
			c0.1-0.2,0.1-0.4,0.2-0.7c0.1-0.2,0.1-0.4,0.2-0.6c0.1-0.2,0.1-0.4,0.2-0.7c0.1-0.2,0.1-0.4,0.2-0.6c0.1-0.2,0.1-0.4,0.2-0.7
			c0.1-0.2,0.1-0.4,0.2-0.7c0.1-0.2,0.1-0.4,0.2-0.6c0-0.2,0.1-0.4,0.2-0.7c0-0.2,0.1-0.4,0.2-0.6c0-0.2,0.1-0.4,0.2-0.7
			c0-0.2,0.1-0.4,0.2-0.6c0-0.2,0.1-0.4,0.2-0.6c0-0.2,0.1-0.4,0.2-0.6c0-0.2,0.1-0.4,0.2-0.6c0-0.2,0.1-0.4,0.2-0.6
			c0-0.2,0.1-0.4,0.2-0.6c0-0.2,0.1-0.4,0.1-0.6c0.1-0.2,0.1-0.4,0.2-0.6c0.1-0.4,0.2-0.8,0.4-1.2c0-0.2,0.1-0.4,0.1-0.6
			c0.1-0.4,0.2-0.7,0.3-1.1c0.3-0.7,0.4-1.4,0.7-2.1c0.1-0.5,0.3-1,0.4-1.5c0.1-0.5,0.3-0.9,0.4-1.3c0.1-0.3,0.2-0.5,0.3-0.8
			c0-0.1,0.1-0.3,0.1-0.4c0-0.1,0.1-0.2,0.1-0.3c0-0.1,0.1-0.2,0.1-0.4c0.1-0.2,0.2-0.4,0.2-0.6c0-0.2,0.1-0.4,0.2-0.5
			c0.1-0.2,0.1-0.5,0.2-0.7c0-0.1,0-0.2,0.1-0.3c0,0,0-0.1,0-0.1c0,0,0-0.1,0-0.1c0,0,0-0.1,0.1-0.1v0c0,0,0.1,0,0.1-0.1
			c0.1,0,0.1,0,0.2-0.1c0.1,0,0.2,0,0.3,0c0.1,0,0.2,0,0.4-0.1c0.2,0,0.3,0,0.5,0c0.2,0,0.3,0,0.5,0c0.2,0,0.4,0,0.6,0
			c0.4,0,0.8,0,1.3,0c0.7,0,1.3,0,2,0c0.6,0.1,1.2,0,1.9,0.1c0.2,0,0.3,0,0.5,0c0.2,0,0.3,0,0.5,0c0.1,0,0.3,0,0.4,0
			c0.1,0,0.2,0,0.3,0c0.1,0,0.2,0,0.3,0.1c0,0,0.1,0,0.1,0v0c0,0,0,0,0,0c0,0,0,0,0,0.1c0,0,0,0.1,0,0.1c0,0,0,0.1,0.1,0.1
			c0,0,0,0.1,0,0.1c0,0.1,0,0.1,0.1,0.2c0.1,0.2,0.2,0.4,0.2,0.7c0,0.1,0,0.2,0.1,0.3c0.1,0.2,0.1,0.4,0.2,0.6c0,0.1,0,0.2,0.1,0.3
			c0,0.1,0.1,0.2,0.1,0.4c0,0.1,0.1,0.2,0.1,0.4c0,0.1,0.1,0.2,0.1,0.4c0,0.1,0.1,0.3,0.1,0.4c0,0.1,0.1,0.3,0.1,0.4
			c0.2,0.4,0.3,0.9,0.4,1.4c0.2,0.7,0.4,1.3,0.6,2c0.2,0.5,0.3,1.1,0.5,1.6c0.1,0.4,0.2,0.8,0.3,1.1c0.1,0.4,0.2,0.8,0.4,1.2
			c0,0.2,0.1,0.4,0.1,0.6c0.1,0.2,0.1,0.4,0.2,0.6c0.1,0.4,0.2,0.8,0.4,1.3c0,0.2,0.1,0.4,0.2,0.6c0,0.2,0.1,0.4,0.2,0.6
			c0,0.2,0.1,0.4,0.2,0.7c0,0.2,0.1,0.4,0.2,0.6c0,0.2,0.1,0.4,0.1,0.7c0.1,0.2,0.1,0.4,0.2,0.6c0.1,0.2,0.1,0.4,0.2,0.7
			c0,0.2,0.1,0.4,0.2,0.7c0,0.2,0.1,0.4,0.2,0.7c0,0.2,0.1,0.4,0.2,0.7c0,0.2,0.1,0.4,0.2,0.7c0,0.2,0.1,0.4,0.2,0.7
			c0,0.2,0.1,0.4,0.2,0.7c0,0.2,0.1,0.4,0.2,0.6c0,0.2,0.1,0.4,0.1,0.7c0.1,0.2,0.1,0.4,0.2,0.7c0.1,0.2,0.1,0.4,0.2,0.7
			c0.1,0.2,0.1,0.4,0.2,0.6c0.1,0.4,0.2,0.9,0.4,1.3c0,0.2,0.1,0.4,0.1,0.6c0.1,0.4,0.2,0.8,0.4,1.3c0.1,0.4,0.2,0.8,0.3,1.2
			c0.1,0.4,0.2,0.8,0.3,1.2c0.4,1,0.7,2.2,0.9,3.3c0.1,0.3,0.2,0.7,0.3,1c0.1,0.3,0.2,0.6,0.3,1c0,0.1,0.1,0.3,0.1,0.4
			c0,0.1,0.1,0.3,0.1,0.4c0,0.1,0.1,0.3,0.1,0.4c0,0.1,0.1,0.3,0.1,0.4c0,0.3,0.1,0.5,0.2,0.8c0.1,0.5,0.2,1.1,0.4,1.6
			c0,0.1,0,0.1,0.1,0.2c0,0.1,0,0.3,0.1,0.4c0,0.1,0,0.1,0,0.2c0,0.1,0,0.2,0.1,0.3c0,0.1,0,0.2,0,0.3h0c0,0,0,0.1-0.1,0.1
			c0,0-0.1,0-0.2,0.1c-0.1,0-0.2,0-0.3,0c-0.1,0-0.2,0-0.4,0.1c-0.3,0-0.6,0.1-0.9,0.1c-0.4,0-0.7,0-1.1,0.1c-1.3,0-2.6,0-3.9,0
			c-0.4,0-0.8,0-1.3-0.1c-0.2,0-0.4,0-0.6,0c-0.2,0-0.4,0-0.6,0c-0.1,0-0.3,0-0.5,0c-0.1,0-0.3,0-0.4-0.1c-0.2,0-0.5,0-0.7-0.1
			c-0.2,0-0.3-0.1-0.4-0.2c0-0.1,0-0.1-0.1-0.2c0-0.1,0-0.2-0.1-0.3c-0.1-0.2-0.2-0.5-0.2-0.7c-0.1-0.3-0.2-0.6-0.3-1
			c-0.3-2.3-1.3-4.5-1.6-6.8c-0.1-0.4-0.2-0.7-0.3-1.1c0-0.2-0.1-0.3-0.1-0.5c-0.1-0.4-0.1-0.9-0.3-1.3c0-0.1,0-0.2,0-0.3
			c0-0.1,0-0.1-0.1-0.2c0-0.1,0-0.2,0-0.2c0,0-0.1,0-0.2,0c-0.4,0-0.9-0.1-1.3-0.1c-0.2,0-0.4,0-0.6,0c-0.8-0.1-1.7-0.1-2.6,0
			c-0.3,0-0.7,0-1,0.1c-0.1,0-0.2,0.1-0.3,0.1c-0.1,0-0.1,0.1-0.2,0.1v0c0,0,0,0.1,0,0.1c0,0.1,0,0.1,0,0.2
			c-0.1,0.4-0.1,0.8-0.3,1.1c0,0.1,0,0.3-0.1,0.5c-0.1,0.2-0.1,0.3-0.1,0.5c0,0.2-0.1,0.4-0.1,0.6c-0.2,1.7-0.8,3.5-1.2,5.2
			c-0.1,0.8-0.4,1.5-0.5,2.3c0,0.2-0.1,0.3-0.1,0.5c0,0.1-0.1,0.3-0.1,0.4c0,0.1,0,0.2-0.1,0.3c0,0.1-0.1,0.2-0.1,0.3
			c0,0.1-0.1,0.1-0.1,0.2c0,0,0,0.1,0,0.1c0,0-0.1,0.1-0.1,0.1c-0.1,0-0.1,0-0.2,0.1c-0.5,0.1-1.1,0.3-1.6,0.3c-0.2,0-0.4,0-0.6,0.1
			c-0.4,0-0.8,0.1-1.2,0.1c-0.2,0-0.4,0-0.6,0c-0.7,0.1-1.3,0-2,0.1c-0.4,0-0.8,0-1.3,0c-0.2,0-0.4,0-0.6,0c-0.2,0-0.4,0-0.6,0
			c-0.2,0-0.3,0-0.5,0c-0.1,0-0.3,0-0.4-0.1c-0.2,0-0.5,0-0.7-0.1c-0.1,0-0.1,0-0.2-0.1C12.7,60.2,12.6,60.2,12.6,60.1z M31.8,43.2
			c0,0,0-0.1,0-0.2c0-0.1,0-0.1,0-0.2c0-0.2-0.1-0.4-0.1-0.6c0-0.5-0.2-1-0.3-1.5c-0.1-0.4-0.2-0.9-0.3-1.3c-0.1-0.3-0.1-0.6-0.2-1
			c0-0.3-0.1-0.7-0.2-1c0-0.2,0-0.3-0.1-0.5c-0.1-0.4-0.1-0.7-0.2-1.1c0-0.2-0.1-0.4-0.1-0.6c-0.1-0.4-0.1-0.7-0.2-1.1
			c-0.2-0.5-0.1-1.1-0.3-1.6c0-0.2,0-0.4-0.1-0.6c-0.1-0.2-0.1-0.4-0.1-0.6c-0.1-0.7-0.1-0.7-0.1,0c0,0.2,0,0.4-0.1,0.6
			c0,0.2-0.1,0.4-0.1,0.6c0,0.5-0.2,1.2-0.3,1.7c0,0.2-0.1,0.4-0.1,0.6c0,0.2-0.1,0.4-0.1,0.6c0,0.2-0.1,0.4-0.1,0.6
			c0,0.2-0.1,0.4-0.1,0.6c0,0.2-0.1,0.4-0.1,0.6c0,0.2-0.1,0.4-0.1,0.6c0,0.2-0.1,0.4-0.1,0.6c0,0.2,0,0.3-0.1,0.5
			c-0.1,0.3-0.1,0.7-0.2,1c0,0.2,0,0.3-0.1,0.5c-0.1,0.4-0.2,0.9-0.3,1.3c-0.1,0.2-0.1,0.5-0.1,0.7c0,0.3-0.1,0.8-0.2,1.1
			c-0.2,0.3,0.4,0.2,0.6,0.3c0.2,0,0.3,0,0.5,0c0.4,0,0.8,0,1.2,0c0.2,0,0.4,0,0.6,0c0.2,0,0.4,0,0.6-0.1c0.1,0,0.3,0,0.5,0
			C31.4,43.3,31.6,43.3,31.8,43.2C31.8,43.2,31.8,43.3,31.8,43.2z"/>
		<path fill="#020202" d="M48.8,18.1c0.1-0.1,0.2-0.1,0.3-0.2c0.1,0,0.2-0.1,0.4-0.2c0.3-0.1,0.6-0.2,0.9-0.3c0.2,0,0.3-0.1,0.5-0.1
			c0.2,0,0.4-0.1,0.6-0.1c0.6-0.1,1.2-0.1,1.8-0.2c0.2,0,0.4,0,0.6,0c0.7,0,1.5-0.1,2.2,0c0.3,0,0.6,0,0.9,0.1c0.1,0,0.2,0,0.4,0.1
			c0.1,0,0.2,0,0.3,0.1c0.1,0,0.1,0.1,0.2,0.1c0,0,0.1,0.1,0.1,0.1c0,0,0.1,0.1,0.1,0.1c0,0,0.1,0.1,0.1,0.2c0,0.1,0.1,0.1,0.1,0.2
			c0,0.1,0.1,0.2,0.1,0.3c0,0.2,0.1,0.3,0.1,0.5c0,0.2,0.1,0.4,0.1,0.7c0,0.3,0.1,0.5,0.1,0.8c0,0.1,0,0.3,0,0.4c0,0.1,0,0.3,0,0.4
			c0,0.3,0,0.6,0.1,0.9c0,0.3,0,0.7,0,1c0.2,1.3,0,2.6,0,3.9c-0.1,1,0,2.1,0,3.1c0,0.2,0,0.4,0,0.6c0,0.2,0,0.4,0,0.6
			c0,0.4,0,0.8,0,1.3c-0.1,0.4-0.1,0.6,0,0.6c0.1,0,0.3-0.1,0.5-0.4c0.3-0.3,0.6-0.6,0.9-1c0.3-0.3,0.6-0.7,0.9-1
			c0.6-0.6,1.1-1.4,1.5-2.1c0.5-0.7,0.8-1.5,1.2-2.2c0.1-0.2,0.2-0.4,0.3-0.6c0.3-0.7,0.6-1.4,0.9-2.1c0-0.2,0.1-0.3,0.2-0.5
			c0-0.1,0.1-0.3,0.1-0.5c0.3-0.6,0.4-1.2,0.6-1.8c0.1-0.3,0.1-0.6,0.2-0.8c0.1-0.2,0.1-0.5,0.2-0.7c0-0.2,0.1-0.4,0.2-0.7
			c0-0.1,0-0.2,0.1-0.3c0-0.1,0-0.2,0.1-0.3c0-0.1,0-0.1,0.1-0.2c0,0,0-0.1,0.1-0.2c0,0,0-0.1,0-0.1c0,0,0-0.1,0.1-0.1
			c0,0,0,0,0-0.1c0,0,0,0,0.1,0c0.1,0,0.2,0,0.3,0c0.4-0.1,0.8,0,1.2,0c0.5,0.1,1.1,0.1,1.6,0.3c0.4,0.1,0.8,0.2,1.2,0.2
			c0.2,0,0.4,0.1,0.6,0.2c0.4,0.1,0.8,0.2,1.2,0.3c0.2,0,0.4,0.1,0.6,0.2c0.4,0.1,0.7,0.2,1.1,0.4c0.3,0.2,0.7,0.3,1,0.4
			c0.1,0.1,0.3,0.1,0.4,0.2c0.3,0.1,0.5,0.3,0.7,0.4c0.1,0,0.2,0.1,0.3,0.2c0.1,0,0.1,0.1,0.2,0.2c0,0,0.1,0.1,0.1,0.1
			c0.1,0.1,0.1,0.4,0,0.6c0,0,0,0.1,0,0.1c0,0.1-0.1,0.3-0.1,0.4c0,0.1,0,0.1-0.1,0.2c0,0.1-0.1,0.2-0.1,0.3c0,0.1-0.1,0.2-0.1,0.3
			c0,0.1-0.1,0.2-0.1,0.3c-0.1,0.1-0.1,0.2-0.1,0.3c0,0.1-0.1,0.2-0.1,0.3c-0.1,0.2-0.2,0.5-0.3,0.7c-0.1,0.3-0.3,0.5-0.4,0.8
			c-0.1,0.1-0.1,0.3-0.2,0.4c-0.1,0.1-0.1,0.3-0.2,0.4c-0.3,0.4-0.4,0.9-0.7,1.3c-0.1,0.1-0.2,0.3-0.3,0.4c-0.1,0.1-0.2,0.3-0.3,0.4
			c-0.2,0.3-0.4,0.6-0.6,1c-0.1,0.1-0.2,0.3-0.3,0.4c-0.1,0.2-0.2,0.3-0.3,0.5c-0.1,0.1-0.2,0.3-0.3,0.5c-0.1,0.1-0.2,0.3-0.3,0.5
			c-0.1,0.1-0.2,0.3-0.4,0.4c-0.1,0.2-0.2,0.3-0.4,0.5c-0.2,0.3-0.5,0.7-0.8,1c-0.1,0.1-0.3,0.3-0.4,0.4c-0.1,0.1-0.3,0.3-0.4,0.4
			c-0.4,0.5-0.9,0.9-1.3,1.3c-0.3,0.3-0.6,0.6-1,0.8c-0.2,0.1-0.3,0.3-0.5,0.4c-0.3,0.3-0.7,0.5-1,0.8c-0.2,0.2-0.3,0.3-0.5,0.4
			c-0.3,0.1-0.5,0.2-0.6,0.4c0,0.1,0.1,0.2,0.4,0.2c0.1,0,0.3,0.1,0.4,0.3c0.4,0.3,0.9,0.6,1.3,0.9c0.1,0.1,0.3,0.2,0.4,0.3
			c0.4,0.3,0.9,0.7,1.3,1.1c0.1,0.1,0.3,0.3,0.4,0.4c0.3,0.3,0.6,0.6,0.9,0.8c0.1,0.1,0.3,0.3,0.4,0.4c0.1,0.1,0.3,0.3,0.4,0.4
			c0.1,0.1,0.3,0.3,0.4,0.4c0.3,0.3,0.5,0.6,0.8,0.9c0.3,0.3,0.5,0.6,0.8,0.9c0.1,0.1,0.2,0.3,0.4,0.4c0.2,0.3,0.5,0.6,0.7,1
			c0.4,0.4,0.7,1,1,1.4c0.1,0.1,0.2,0.3,0.3,0.5c0.1,0.1,0.2,0.3,0.3,0.4c0.1,0.1,0.2,0.3,0.3,0.4c0.2,0.3,0.4,0.6,0.6,0.9
			c0.1,0.1,0.2,0.3,0.3,0.4c0.1,0.1,0.2,0.3,0.3,0.4c0.1,0.1,0.2,0.3,0.3,0.4c0.1,0.1,0.2,0.3,0.3,0.4c0.1,0.3,0.3,0.5,0.4,0.8
			c0.1,0.1,0.1,0.2,0.2,0.4c0.1,0.1,0.1,0.2,0.2,0.3c0,0.1,0.1,0.2,0.1,0.3c0.2,0.3,0.3,0.6,0.5,0.9c0,0.1,0.1,0.2,0.1,0.3
			c0,0.1,0.1,0.2,0.1,0.3c0.1,0.1,0.1,0.3,0.1,0.4c0,0,0,0.1,0,0.1c0,0,0,0.1,0,0.2c0.1,0.1,0,0.3,0,0.4c0,0.1-0.1,0.1-0.1,0.2
			c-0.1,0.1-0.1,0.2-0.2,0.3c-0.2,0.2-0.4,0.4-0.6,0.5c-0.1,0.1-0.2,0.2-0.4,0.3c-0.1,0.1-0.3,0.2-0.4,0.3c-0.1,0.1-0.3,0.2-0.5,0.3
			c-0.1,0.1-0.3,0.2-0.5,0.3c-0.3,0.2-0.7,0.4-1.1,0.6c-0.6,0.2-1.1,0.6-1.7,0.8c-0.7,0.3-1.4,0.7-2.1,0.9c-0.3,0.1-0.6,0.2-0.9,0.3
			c-0.2,0-0.5,0.1-0.7,0.1c-0.1,0-0.4,0.1-0.5,0c-0.1,0-0.1-0.1-0.2-0.1c-0.1-0.1-0.2-0.2-0.2-0.3C70.1,60.1,70,60.1,70,60
			c0-0.1-0.1-0.1-0.1-0.2c-0.1-0.1-0.1-0.1-0.1-0.2c0-0.1-0.1-0.1-0.1-0.2c0-0.1-0.1-0.2-0.1-0.3c-0.1-0.2-0.2-0.4-0.3-0.6
			c0-0.1-0.1-0.2-0.1-0.3c-0.1-0.4-0.3-0.7-0.4-1.1c-0.1-0.3-0.2-0.5-0.4-0.8c0-0.1-0.1-0.3-0.2-0.4c-0.3-0.9-0.8-1.9-1.3-2.8
			c-0.1-0.2-0.2-0.3-0.3-0.5c-0.2-0.3-0.4-0.7-0.5-1c-0.2-0.3-0.4-0.7-0.6-1c-0.2-0.3-0.4-0.7-0.7-1c-0.4-0.7-0.9-1.5-1.5-2.1
			c-0.1-0.2-0.2-0.3-0.4-0.5c-0.1-0.2-0.3-0.3-0.4-0.5c-0.4-0.5-0.9-1-1.3-1.5c-0.1-0.1-0.3-0.3-0.4-0.5c-0.2-0.2-0.3-0.3-0.5-0.4
			c-0.2-0.1-0.3-0.3-0.5-0.5c-0.2-0.2-0.3-0.4-0.5-0.4c-0.1,0-0.1,0.1,0,0.4c0,0.1,0.1,0.2,0,0.4c0,0.1,0,0.3,0,0.4
			c0,0.1,0,0.3,0,0.5c0,0.3,0.1,0.6,0.1,1c0,0.2,0,0.3,0,0.5c0,0.2,0,0.3,0,0.5c0,0.4,0.1,0.8,0.1,1.1c0,0.2,0,0.4,0,0.6
			c0,0.2,0,0.4,0.1,0.6c0,0.2,0,0.4,0,0.6c0,0.4,0,0.8,0.1,1.2c0,0.2,0,0.4,0,0.6c0,0.2,0,0.4,0.1,0.6c0,0.2,0,0.4,0,0.6
			c0,0.4,0,0.8,0.1,1.2c0,0.2,0,0.4,0,0.6c0,0.2,0,0.4,0,0.6c0,0.2,0,0.4,0,0.6c0,0.4,0,0.7,0.1,1.1c0,0.2,0,0.3,0,0.5
			c0,0.3,0,0.6,0,0.9c0.1,0.5,0.2,1.5,0,2c0,0.1,0,0.2,0,0.4c0,0,0,0.1,0,0.1c0,0,0,0,0,0c0,0-0.1,0.1-0.1,0.1
			c-0.1,0-0.1,0.1-0.2,0.1c-0.2,0.1-0.5,0.1-0.7,0.1c-0.3,0-0.6,0.1-1,0.1c-0.2,0-0.4,0-0.6,0c-0.4,0-0.8,0-1.3,0.1
			c-1.3,0-2.6,0-4,0c-0.4,0-0.7,0-1.1-0.1c-0.2,0-0.3,0-0.5,0c-0.1,0-0.3,0-0.4,0c-0.1,0-0.2,0-0.4,0c-0.1,0-0.2,0-0.3,0
			c-0.1,0-0.1,0-0.2-0.1c0,0-0.1,0-0.1-0.1h0c0-0.1,0-0.2,0-0.3c-0.1-0.1,0-0.4,0-0.5c-0.1-0.2,0-0.5-0.1-0.7c0-0.2,0-0.4,0-0.6
			c0-0.2,0-0.4,0-0.7c0-0.3-0.1-0.5,0-0.8c0-0.3,0-0.5,0-0.8c0-0.3-0.1-0.6-0.1-0.9c0-0.3,0-0.6,0-1c0-0.3,0-0.7,0-1
			c0-0.2,0-0.3,0-0.5c0-0.4,0-0.7,0-1.1c0-0.4,0-0.8-0.1-1.1c0-0.4,0-0.8,0-1.2c0-0.2,0-0.4,0-0.6c0-0.4-0.1-0.8,0-1.2
			c0-0.4,0-0.9-0.1-1.3c0-0.4,0-0.9,0-1.3c0-0.4,0-0.9,0-1.3c0-0.4,0-0.9,0-1.3c0-0.2,0-0.4,0-0.7c-0.1-0.7,0-1.4-0.1-2
			c0-0.5,0-0.9,0-1.4c0-0.5,0-0.9,0-1.4c-0.1-0.7,0-1.3-0.1-2c0-0.7,0-1.3,0-2c-0.1-0.8,0-1.7,0-2.5c-0.2-2.1-0.4-5,0-7.1
			c0-0.4,0-0.9,0-1.3c0.1-0.4,0-0.7,0.1-1.1c0-0.2,0-0.4,0-0.6c0-0.2,0-0.4,0.1-0.6c0-0.1,0-0.2,0-0.3c0-0.1,0-0.3,0.1-0.4
			c0,0,0-0.1,0-0.2c0,0,0-0.1,0-0.1c0-0.1,0-0.1,0.1-0.2c0,0,0,0,0-0.1C48.6,18.3,48.7,18.2,48.8,18.1C48.9,18,48.7,18.2,48.8,18.1z
			"/>
		<path fill="#020202" d="M82.1,60.1L82.1,60.1c0-0.1,0-0.4,0-0.4c0-0.1,0-0.1,0-0.2c0,0,0-0.1,0-0.2c0-0.1,0-0.1,0.1-0.2
			c0-0.2,0.1-0.3,0.1-0.5c0.2-0.5,0.3-1,0.4-1.5c0.1-0.2,0.1-0.5,0.2-0.7c0-0.1,0-0.3,0.1-0.4c0-0.1,0.1-0.3,0.1-0.4
			c0-0.1,0.1-0.3,0.1-0.4c0-0.1,0.1-0.3,0.1-0.4c0.1-0.3,0.2-0.6,0.2-0.9c0.1-0.3,0.2-0.7,0.3-1c0.1-0.9,0.5-1.8,0.7-2.7
			c0.2-0.6,0.3-1.2,0.5-1.7c0.1-0.4,0.2-0.8,0.4-1.2c0-0.2,0.1-0.4,0.1-0.6c0.1-0.4,0.2-0.8,0.4-1.2c0-0.2,0.1-0.4,0.1-0.6
			c0.1-0.2,0.1-0.4,0.2-0.7c0.1-0.2,0.1-0.4,0.2-0.6c0.1-0.2,0.1-0.4,0.2-0.6c0.1-0.2,0.1-0.4,0.2-0.7c0.1-0.2,0.1-0.4,0.2-0.6
			c0.1-0.2,0.1-0.4,0.2-0.7c0.1-0.2,0.1-0.4,0.2-0.6c0.1-0.2,0.1-0.4,0.2-0.7c0.1-0.2,0.1-0.4,0.2-0.6c0.1-0.2,0.1-0.4,0.2-0.7
			c0.1-0.2,0.1-0.4,0.2-0.7c0.1-0.2,0.1-0.4,0.2-0.6c0-0.2,0.1-0.4,0.2-0.7c0-0.2,0.1-0.4,0.2-0.6c0-0.2,0.1-0.4,0.2-0.7
			c0-0.2,0.1-0.4,0.2-0.6c0-0.2,0.1-0.4,0.2-0.6c0-0.2,0.1-0.4,0.2-0.6c0-0.2,0.1-0.4,0.2-0.6c0-0.2,0.1-0.4,0.2-0.6
			c0-0.2,0.1-0.4,0.2-0.6c0-0.2,0.1-0.4,0.1-0.6c0.1-0.2,0.1-0.4,0.2-0.6c0.1-0.4,0.2-0.8,0.4-1.2c0-0.2,0.1-0.4,0.1-0.6
			c0.1-0.4,0.2-0.7,0.3-1.1c0.3-0.7,0.4-1.4,0.7-2.1c0.1-0.5,0.3-1,0.4-1.5c0.1-0.5,0.3-0.9,0.4-1.3c0.1-0.3,0.2-0.5,0.3-0.8
			c0-0.1,0.1-0.3,0.1-0.4c0-0.1,0.1-0.2,0.1-0.3c0-0.1,0.1-0.2,0.1-0.4c0.1-0.2,0.2-0.4,0.2-0.6c0-0.2,0.1-0.4,0.2-0.5
			c0.1-0.2,0.1-0.5,0.2-0.7c0-0.1,0-0.2,0.1-0.3c0,0,0-0.1,0-0.1c0,0,0-0.1,0-0.1c0,0,0-0.1,0.1-0.1v0c0,0,0.1,0,0.1-0.1
			c0.1,0,0.1,0,0.2-0.1c0.1,0,0.2,0,0.3,0c0.1,0,0.2,0,0.4-0.1c0.2,0,0.3,0,0.5,0c0.2,0,0.3,0,0.5,0c0.2,0,0.4,0,0.6,0
			c0.4,0,0.8,0,1.3,0c0.7,0,1.3,0,2,0c0.6,0.1,1.2,0,1.9,0.1c0.2,0,0.3,0,0.5,0c0.2,0,0.3,0,0.5,0c0.1,0,0.3,0,0.4,0
			c0.1,0,0.2,0,0.3,0c0.1,0,0.2,0,0.3,0.1c0,0,0.1,0,0.1,0v0c0,0,0,0,0,0c0,0,0,0,0,0.1c0,0,0,0.1,0,0.1c0,0,0,0.1,0.1,0.1
			c0,0,0,0.1,0,0.1c0,0.1,0,0.1,0.1,0.2c0.1,0.2,0.2,0.4,0.2,0.7c0,0.1,0,0.2,0.1,0.3c0.1,0.2,0.1,0.4,0.2,0.6c0,0.1,0,0.2,0.1,0.3
			c0,0.1,0.1,0.2,0.1,0.4c0,0.1,0.1,0.2,0.1,0.4c0,0.1,0.1,0.2,0.1,0.4c0,0.1,0.1,0.3,0.1,0.4c0,0.1,0.1,0.3,0.1,0.4
			c0.2,0.4,0.3,0.9,0.4,1.4c0.2,0.7,0.4,1.3,0.6,2c0.2,0.5,0.3,1.1,0.5,1.6c0.1,0.4,0.2,0.8,0.3,1.1c0.1,0.4,0.2,0.8,0.4,1.2
			c0,0.2,0.1,0.4,0.1,0.6c0.1,0.2,0.1,0.4,0.2,0.6c0.1,0.4,0.2,0.8,0.4,1.3c0,0.2,0.1,0.4,0.2,0.6c0,0.2,0.1,0.4,0.2,0.6
			c0,0.2,0.1,0.4,0.2,0.7c0,0.2,0.1,0.4,0.2,0.6c0,0.2,0.1,0.4,0.1,0.7c0.1,0.2,0.1,0.4,0.2,0.6c0.1,0.2,0.1,0.4,0.2,0.7
			c0,0.2,0.1,0.4,0.2,0.7c0,0.2,0.1,0.4,0.2,0.7c0,0.2,0.1,0.4,0.2,0.7c0,0.2,0.1,0.4,0.2,0.7c0,0.2,0.1,0.4,0.2,0.7
			c0,0.2,0.1,0.4,0.2,0.7c0,0.2,0.1,0.4,0.2,0.6c0,0.2,0.1,0.4,0.1,0.7c0.1,0.2,0.1,0.4,0.2,0.7c0.1,0.2,0.1,0.4,0.2,0.7
			c0.1,0.2,0.1,0.4,0.2,0.6c0.1,0.4,0.2,0.9,0.4,1.3c0,0.2,0.1,0.4,0.1,0.6c0.1,0.4,0.2,0.8,0.4,1.3c0.1,0.4,0.2,0.8,0.3,1.2
			c0.1,0.4,0.2,0.8,0.3,1.2c0.4,1,0.7,2.2,0.9,3.3c0.1,0.3,0.2,0.7,0.3,1c0.1,0.3,0.2,0.6,0.3,1c0,0.1,0.1,0.3,0.1,0.4
			c0,0.1,0.1,0.3,0.1,0.4c0,0.1,0.1,0.3,0.1,0.4c0,0.1,0.1,0.3,0.1,0.4c0,0.3,0.1,0.5,0.2,0.8c0.1,0.5,0.2,1.1,0.4,1.6
			c0,0.1,0,0.1,0.1,0.2c0,0.1,0,0.3,0.1,0.4c0,0.1,0,0.1,0,0.2c0,0.1,0,0.2,0.1,0.3c0,0.1,0,0.2,0,0.3h0c0,0,0,0.1-0.1,0.1
			c0,0-0.1,0-0.2,0.1c-0.1,0-0.2,0-0.3,0c-0.1,0-0.2,0-0.4,0.1c-0.3,0-0.6,0.1-0.9,0.1c-0.4,0-0.7,0-1.1,0.1c-1.3,0-2.6,0-3.9,0
			c-0.4,0-0.8,0-1.3-0.1c-0.2,0-0.4,0-0.6,0c-0.2,0-0.4,0-0.6,0c-0.1,0-0.3,0-0.5,0c-0.1,0-0.3,0-0.4-0.1c-0.2,0-0.5,0-0.7-0.1
			c-0.2,0-0.3-0.1-0.4-0.2c0-0.1,0-0.1-0.1-0.2c0-0.1,0-0.2-0.1-0.3c-0.1-0.2-0.2-0.5-0.2-0.7c-0.1-0.3-0.2-0.6-0.3-1
			c-0.3-2.3-1.3-4.5-1.6-6.8c-0.1-0.4-0.2-0.7-0.3-1.1c0-0.2-0.1-0.3-0.1-0.5c-0.1-0.4-0.1-0.9-0.3-1.3c0-0.1,0-0.2,0-0.3
			c0-0.1,0-0.1-0.1-0.2c0-0.1,0-0.2,0-0.2c0,0-0.1,0-0.2,0c-0.4,0-0.9-0.1-1.3-0.1c-0.2,0-0.4,0-0.6,0c-0.8-0.1-1.7-0.1-2.6,0
			c-0.3,0-0.7,0-1,0.1c-0.1,0-0.2,0.1-0.3,0.1c-0.1,0-0.1,0.1-0.2,0.1v0c0,0,0,0.1,0,0.1c0,0.1,0,0.1,0,0.2
			c-0.1,0.4-0.1,0.8-0.3,1.1c0,0.1,0,0.3-0.1,0.5c-0.1,0.2-0.1,0.3-0.1,0.5c0,0.2-0.1,0.4-0.1,0.6c-0.2,1.7-0.8,3.5-1.2,5.2
			c-0.1,0.8-0.4,1.5-0.5,2.3c0,0.2-0.1,0.3-0.1,0.5c0,0.1-0.1,0.3-0.1,0.4c0,0.1,0,0.2-0.1,0.3c0,0.1-0.1,0.2-0.1,0.3
			c0,0.1-0.1,0.1-0.1,0.2c0,0,0,0.1,0,0.1c0,0-0.1,0.1-0.1,0.1c-0.1,0-0.1,0-0.2,0.1c-0.5,0.1-1.1,0.3-1.6,0.3c-0.2,0-0.4,0-0.6,0.1
			c-0.4,0-0.8,0.1-1.2,0.1c-0.2,0-0.4,0-0.6,0c-0.7,0.1-1.3,0-2,0.1c-0.4,0-0.8,0-1.3,0c-0.2,0-0.4,0-0.6,0c-0.2,0-0.4,0-0.6,0
			c-0.2,0-0.3,0-0.5,0c-0.1,0-0.3,0-0.4-0.1c-0.2,0-0.5,0-0.7-0.1c-0.1,0-0.1,0-0.2-0.1C82.2,60.2,82.2,60.2,82.1,60.1z M101.3,43.2
			c0,0,0-0.1,0-0.2c0-0.1,0-0.1,0-0.2c0-0.2-0.1-0.4-0.1-0.6c0-0.5-0.2-1-0.3-1.5c-0.1-0.4-0.2-0.9-0.3-1.3c-0.1-0.3-0.1-0.6-0.2-1
			c0-0.3-0.1-0.7-0.2-1c0-0.2,0-0.3-0.1-0.5c-0.1-0.4-0.1-0.7-0.2-1.1c0-0.2-0.1-0.4-0.1-0.6c-0.1-0.4-0.1-0.7-0.2-1.1
			c-0.2-0.5-0.1-1.1-0.3-1.6c0-0.2,0-0.4-0.1-0.6c-0.1-0.2-0.1-0.4-0.1-0.6c-0.1-0.7-0.1-0.7-0.1,0c0,0.2,0,0.4-0.1,0.6
			c0,0.2-0.1,0.4-0.1,0.6c0,0.5-0.2,1.2-0.3,1.7c0,0.2-0.1,0.4-0.1,0.6c0,0.2-0.1,0.4-0.1,0.6c0,0.2-0.1,0.4-0.1,0.6
			c0,0.2-0.1,0.4-0.1,0.6c0,0.2-0.1,0.4-0.1,0.6c0,0.2-0.1,0.4-0.1,0.6c0,0.2-0.1,0.4-0.1,0.6c0,0.2,0,0.3-0.1,0.5
			c-0.1,0.3-0.1,0.7-0.2,1c0,0.2,0,0.3-0.1,0.5c-0.1,0.4-0.2,0.9-0.3,1.3c-0.1,0.2-0.1,0.5-0.1,0.7c0,0.3-0.1,0.8-0.2,1.1
			c-0.2,0.3,0.4,0.2,0.6,0.3c0.2,0,0.3,0,0.5,0c0.4,0,0.8,0,1.2,0c0.2,0,0.4,0,0.6,0c0.2,0,0.4,0,0.6-0.1c0.1,0,0.3,0,0.5,0
			C100.9,43.3,101.1,43.3,101.3,43.2C101.4,43.2,101.3,43.3,101.3,43.2z"/>
		<path fill="#020202" d="M141.1,41.7c0,0.1,0.2,0.3,0.5,0.4c0.6,0.3,1.3,1.2,1.8,1.8c0.3,0.3,0.5,0.6,0.8,1c0.2,0.3,0.5,0.6,0.7,1
			c0.4,0.5,0.7,1,1,1.5c0.5,0.6,0.8,1.4,1.2,2.1c0.1,0.2,0.2,0.3,0.3,0.5c0.2,0.3,0.4,0.7,0.5,1c0.2,0.5,0.5,1,0.7,1.5
			c0.1,0.3,0.2,0.6,0.4,1c0.3,0.7,0.5,1.5,0.8,2.2c0,0.1,0.1,0.3,0.1,0.4c0,0.1,0.1,0.3,0.1,0.4c0.1,0.5,0.2,0.9,0.3,1.4
			c0,0.1,0,0.2,0,0.3c0,0.2,0,0.3,0.1,0.5c0,0.2,0.1,0.5,0,0.7c0,0,0,0.1,0,0.1c0,0,0,0,0,0.1c0,0,0,0,0,0.1
			c-0.2,0.1-0.4,0.2-0.6,0.2c-0.2,0.1-0.4,0.1-0.6,0.1c-0.3,0.1-0.6,0.1-0.9,0.1c-0.3,0-0.6,0.1-1,0.1c-0.4,0-0.7,0.1-1.1,0.1
			c-0.2,0-0.4,0-0.6,0.1c-0.2,0-0.4,0-0.6,0c-0.2,0-0.4,0-0.6,0c-0.4,0-0.8,0-1.2,0c-0.4,0-0.8,0-1.2,0c-0.4,0-0.8,0-1.2,0
			c-0.5-0.1-1.1-0.1-1.6-0.1c-0.5-0.1-1.2-0.1-1.7-0.3c-0.1,0-0.2-0.1-0.3-0.1c-0.1,0-0.2-0.1-0.3-0.1c-0.1-0.1-0.2-0.3-0.3-0.5
			c-0.1-0.1-0.1-0.3-0.1-0.4c-0.2-0.9-0.3-2-0.6-2.9c0-0.1,0-0.3-0.1-0.4c-0.1-0.1-0.1-0.3-0.1-0.5c0-0.1-0.1-0.3-0.1-0.5
			c-0.1-0.3-0.1-0.7-0.3-1c0-0.2-0.1-0.4-0.1-0.6c-0.1-0.2-0.1-0.3-0.2-0.5c-0.1-0.2-0.1-0.4-0.2-0.6c-0.2-0.6-0.4-1.1-0.7-1.7
			c-0.2-0.6-0.5-1.1-0.9-1.7c-0.3-0.4-0.5-0.7-0.7-1.1c-0.3-0.4-0.5-0.7-0.8-1.1c-0.1-0.2-0.3-0.4-0.4-0.6v0c0,0,0,0.1,0,0.1
			c0,0.1,0.1,0.3,0.1,0.4c0,0.1,0,0.2,0,0.3c0,0.1,0,0.3,0,0.4c0,0.1,0,0.3,0,0.4c0,0.2,0,0.3,0.1,0.5c0,0.2,0,0.3,0,0.5
			c0,0.2,0,0.4,0,0.6c0,0.4,0.1,0.8,0.1,1.2c0,0.2,0,0.4,0,0.6c0,0.2,0,0.4,0,0.7c0,0.2,0,0.4,0,0.7c0,0.4,0,0.9,0.1,1.3
			c0,1,0,2,0,3.1c0,0.2,0,0.4,0,0.6c0,0.2,0,0.3,0,0.5c-0.1,0.4-0.1,0.8-0.2,1.2c0,0.1,0,0.2-0.1,0.3c0,0.1-0.1,0.1-0.1,0.2
			c-0.1,0-0.1,0.1-0.1,0.1c-0.1,0-0.1,0.1-0.2,0.1c-0.1,0-0.2,0.1-0.3,0.1c-0.1,0-0.2,0.1-0.3,0.1c-0.7,0.3-1.6,0.4-2.3,0.4
			c-0.2,0-0.4,0-0.6,0.1c-0.2,0-0.4,0-0.6,0c-0.2,0-0.4,0-0.6,0c-1.2,0.1-2.5,0.1-3.7,0c-0.2,0-0.4,0-0.6,0c-0.2,0-0.4,0-0.6,0
			c-0.2,0-0.3,0-0.5,0c-0.3,0-0.6,0-0.9-0.1c-0.4,0-0.7-0.1-1-0.2c-0.2,0-0.3-0.1-0.4-0.2l0,0c0,0,0,0,0-0.1c0,0,0,0,0-0.1
			c0,0,0-0.1,0-0.1c0,0,0-0.1,0-0.1c0,0,0-0.1,0-0.2c0,0,0-0.1,0-0.2c0-0.1,0-0.1,0-0.2c0-0.2,0-0.3-0.1-0.5c0-0.1,0-0.2,0-0.3
			c0-0.1,0-0.2,0-0.3c0-0.2-0.1-0.5,0-0.7c0-0.3-0.1-0.5-0.1-0.8c0-0.3,0-0.6,0-0.8c0-0.3,0-0.6,0-0.9c-0.1-0.5,0-1-0.1-1.5
			c0-0.7,0.1-1.5,0-2.2c0-3.6-0.4-7.3,0-10.9c0-0.9-0.1-1.8,0-2.7c0-0.7,0-1.4,0-2c0.1-0.7,0-1.3,0.1-2c0-0.4,0-0.9,0-1.3
			c0-0.4,0-0.8,0-1.3c0-0.4,0.1-0.8,0-1.3c0-0.4,0-0.8,0-1.2c0-0.4,0-0.8,0-1.1c0-0.4,0-0.7,0.1-1.1c0-0.2,0-0.3,0-0.5
			c0-0.3,0-0.7,0-1c0-0.3,0-0.6,0.1-0.9c0-0.2,0-0.3,0-0.5c0-0.3,0.1-0.6,0.1-0.8c0-0.1,0-0.3,0-0.4c0-0.1,0-0.2,0-0.4
			c0-0.2,0-0.5,0.1-0.7c0-0.1,0-0.2,0-0.3c0-0.2,0.1-0.4,0.1-0.6c0-0.1,0-0.2,0-0.3c0-0.1,0-0.1,0-0.2c0-0.1,0-0.1,0-0.2
			c0-0.1,0-0.2,0.1-0.3c0,0,0-0.1,0-0.1c0,0,0,0,0-0.1l0-0.1c0,0,0,0,0-0.1c0,0,0.1,0,0.1-0.1c0,0,0.1-0.1,0.1-0.1
			c0.4-0.2,0.9-0.5,1.3-0.5c0.2-0.1,0.4-0.1,0.6-0.1c0.1,0,0.2,0,0.3,0c0.1,0,0.2,0,0.4,0c0.1,0,0.3,0,0.4,0c0.1,0,0.3,0,0.4,0
			c0.3,0,0.7,0,1,0c0.6-0.1,1.3,0,1.9-0.1c1.1,0,2.1,0,3.2,0c1,0,2,0,3.1,0c0.4,0,0.8,0,1.3,0c0.4,0,0.8,0,1.3,0.1
			c0.4,0,0.8,0,1.2,0.1c0.4,0,0.8,0.1,1.2,0.2c0.4,0.1,0.7,0.1,1.1,0.2c0.3,0.1,0.7,0.2,1,0.3c0.3,0.1,0.7,0.2,1,0.4
			c0.3,0.1,0.6,0.2,1,0.4c0.3,0.1,0.6,0.3,0.9,0.5c0.1,0.1,0.3,0.1,0.4,0.2c0.1,0.1,0.3,0.2,0.4,0.3c0.6,0.5,1.3,0.9,1.9,1.5
			c0.1,0.1,0.2,0.2,0.3,0.3c0.1,0.1,0.2,0.2,0.3,0.3c0.9,1.1,1.9,2.3,2.3,3.7c0.4,0.7,0.6,1.7,0.7,2.5c0.2,0.7,0.2,1.5,0.3,2.3
			c0,0.2,0,0.4,0,0.6c0,1,0,2.1-0.3,3.1c-0.1,0.3-0.2,0.7-0.3,1c0,0.1-0.1,0.3-0.1,0.4c-0.1,0.1-0.1,0.3-0.2,0.4
			c0,0.1-0.1,0.3-0.2,0.4c-0.1,0.1-0.2,0.3-0.3,0.4c-0.1,0.1-0.2,0.2-0.3,0.4c-0.2,0.4-0.5,0.8-0.9,1.1c-0.1,0.1-0.2,0.2-0.3,0.3
			c-0.4,0.3-0.7,0.6-1.1,0.9c-0.1,0.1-0.2,0.2-0.4,0.3c-0.1,0.1-0.3,0.2-0.4,0.3c-0.1,0.1-0.3,0.2-0.4,0.3c-0.3,0.1-0.6,0.3-0.9,0.4
			c-0.1,0-0.3,0.1-0.4,0.2c-0.1,0.1-0.3,0.2-0.4,0.2C141.2,41.5,141.1,41.6,141.1,41.7C141.1,41.8,141.1,41.6,141.1,41.7z
			 M136.4,31.2c0-0.3,0-0.5,0-0.8c-0.1-0.2-0.1-0.5-0.2-0.7c0-0.2-0.1-0.4-0.2-0.7c-0.1-0.2-0.2-0.4-0.3-0.6
			c-0.1-0.2-0.2-0.3-0.4-0.5c-0.1-0.1-0.3-0.3-0.4-0.4c-0.1-0.1-0.3-0.2-0.5-0.4c-0.1-0.1-0.3-0.2-0.5-0.3c-0.2-0.1-0.3-0.2-0.5-0.3
			c-0.2-0.1-0.3-0.1-0.5-0.2c-0.3-0.1-0.7-0.2-1-0.3c-0.2,0-0.3-0.1-0.5-0.1c-0.1,0-0.3,0-0.4,0c-0.1,0-0.2,0-0.4,0
			c-0.1,0-0.2,0-0.3,0c-0.1,0-0.2,0-0.3,0c-0.1,0-0.1,0-0.1,0c0,0-0.1,0.1,0,0.2c0,0.1,0,0.2,0,0.3c0,0.1,0,0.2,0,0.3
			c0,0.2,0,0.4,0,0.7c0,0.3,0.1,0.5,0.1,0.8c0,0.3,0.1,0.6,0.1,0.8c0,0.2,0,0.3,0.1,0.5c0,0.3,0,0.7,0.1,1c0,0.2,0,0.3,0.1,0.5
			c0,0.4,0,0.8,0.1,1.1c0,0.2,0,0.4,0.1,0.6c0,0.4,0.1,0.8,0.1,1.2c0,0.2,0,0.4,0,0.7c0,0.2,0.1,0.4,0,0.7c-0.1,0.2-0.1,0.5,0,0.7
			c0,0,0.1,0.1,0.2,0c0.1,0,0.2,0,0.3,0c0.2,0,0.5-0.1,0.7-0.1c0.1,0,0.3-0.1,0.4-0.1c0.3-0.1,0.6-0.2,0.9-0.3
			c0.3-0.1,0.7-0.3,1-0.5c0.3-0.2,0.6-0.4,0.9-0.6c0.5-0.4,0.8-0.9,1.1-1.4c0.1-0.2,0.1-0.4,0.2-0.6
			C136.3,32.1,136.4,31.7,136.4,31.2z"/>
		<path fill="#020202" d="M152.2,60.1L152.2,60.1c0-0.1,0-0.4,0-0.4c0-0.1,0-0.1,0-0.2c0,0,0-0.1,0-0.2c0-0.1,0-0.1,0.1-0.2
			c0-0.2,0.1-0.3,0.1-0.5c0.2-0.5,0.3-1,0.4-1.5c0.1-0.2,0.1-0.5,0.2-0.7c0-0.1,0-0.3,0.1-0.4c0-0.1,0.1-0.3,0.1-0.4
			c0-0.1,0.1-0.3,0.1-0.4c0-0.1,0.1-0.3,0.1-0.4c0.1-0.3,0.2-0.6,0.2-0.9c0.1-0.3,0.2-0.7,0.3-1c0.1-0.9,0.5-1.8,0.7-2.7
			c0.2-0.6,0.3-1.2,0.5-1.7c0.1-0.4,0.2-0.8,0.4-1.2c0-0.2,0.1-0.4,0.1-0.6c0.1-0.4,0.2-0.8,0.4-1.2c0-0.2,0.1-0.4,0.1-0.6
			c0.1-0.2,0.1-0.4,0.2-0.7c0.1-0.2,0.1-0.4,0.2-0.6c0.1-0.2,0.1-0.4,0.2-0.6c0.1-0.2,0.1-0.4,0.2-0.7c0.1-0.2,0.1-0.4,0.2-0.6
			c0.1-0.2,0.1-0.4,0.2-0.7c0.1-0.2,0.1-0.4,0.2-0.6c0.1-0.2,0.1-0.4,0.2-0.7c0.1-0.2,0.1-0.4,0.2-0.6c0.1-0.2,0.1-0.4,0.2-0.7
			c0.1-0.2,0.1-0.4,0.2-0.7c0.1-0.2,0.1-0.4,0.2-0.6c0-0.2,0.1-0.4,0.2-0.7c0-0.2,0.1-0.4,0.2-0.6c0-0.2,0.1-0.4,0.2-0.7
			c0-0.2,0.1-0.4,0.2-0.6c0-0.2,0.1-0.4,0.2-0.6c0-0.2,0.1-0.4,0.2-0.6c0-0.2,0.1-0.4,0.2-0.6c0-0.2,0.1-0.4,0.2-0.6
			c0-0.2,0.1-0.4,0.2-0.6c0-0.2,0.1-0.4,0.1-0.6c0.1-0.2,0.1-0.4,0.2-0.6c0.1-0.4,0.2-0.8,0.4-1.2c0-0.2,0.1-0.4,0.1-0.6
			c0.1-0.4,0.2-0.7,0.3-1.1c0.3-0.7,0.4-1.4,0.7-2.1c0.1-0.5,0.3-1,0.4-1.5c0.1-0.5,0.3-0.9,0.4-1.3c0.1-0.3,0.2-0.5,0.3-0.8
			c0-0.1,0.1-0.3,0.1-0.4c0-0.1,0.1-0.2,0.1-0.3c0-0.1,0.1-0.2,0.1-0.4c0.1-0.2,0.2-0.4,0.2-0.6c0-0.2,0.1-0.4,0.2-0.5
			c0.1-0.2,0.1-0.5,0.2-0.7c0-0.1,0-0.2,0.1-0.3c0,0,0-0.1,0-0.1c0,0,0-0.1,0-0.1c0,0,0-0.1,0.1-0.1v0c0,0,0.1,0,0.1-0.1
			c0.1,0,0.1,0,0.2-0.1c0.1,0,0.2,0,0.3,0c0.1,0,0.2,0,0.4-0.1c0.2,0,0.3,0,0.5,0c0.2,0,0.3,0,0.5,0c0.2,0,0.4,0,0.6,0
			c0.4,0,0.8,0,1.3,0c0.7,0,1.3,0,2,0c0.6,0.1,1.2,0,1.9,0.1c0.2,0,0.3,0,0.5,0c0.2,0,0.3,0,0.5,0c0.1,0,0.3,0,0.4,0
			c0.1,0,0.2,0,0.3,0c0.1,0,0.2,0,0.3,0.1c0,0,0.1,0,0.1,0v0c0,0,0,0,0,0c0,0,0,0,0,0.1c0,0,0,0.1,0,0.1c0,0,0,0.1,0.1,0.1
			c0,0,0,0.1,0,0.1c0,0.1,0,0.1,0.1,0.2c0.1,0.2,0.2,0.4,0.2,0.7c0,0.1,0,0.2,0.1,0.3c0.1,0.2,0.1,0.4,0.2,0.6c0,0.1,0,0.2,0.1,0.3
			c0,0.1,0.1,0.2,0.1,0.4c0,0.1,0.1,0.2,0.1,0.4c0,0.1,0.1,0.2,0.1,0.4c0,0.1,0.1,0.3,0.1,0.4c0,0.1,0.1,0.3,0.1,0.4
			c0.2,0.4,0.3,0.9,0.4,1.4c0.2,0.7,0.4,1.3,0.6,2c0.2,0.5,0.3,1.1,0.5,1.6c0.1,0.4,0.2,0.8,0.3,1.1c0.1,0.4,0.2,0.8,0.4,1.2
			c0,0.2,0.1,0.4,0.1,0.6c0.1,0.2,0.1,0.4,0.2,0.6c0.1,0.4,0.2,0.8,0.4,1.3c0,0.2,0.1,0.4,0.2,0.6c0,0.2,0.1,0.4,0.2,0.6
			c0,0.2,0.1,0.4,0.2,0.7c0,0.2,0.1,0.4,0.2,0.6c0,0.2,0.1,0.4,0.1,0.7c0.1,0.2,0.1,0.4,0.2,0.6c0.1,0.2,0.1,0.4,0.2,0.7
			c0,0.2,0.1,0.4,0.2,0.7c0,0.2,0.1,0.4,0.2,0.7c0,0.2,0.1,0.4,0.2,0.7c0,0.2,0.1,0.4,0.2,0.7c0,0.2,0.1,0.4,0.2,0.7
			c0,0.2,0.1,0.4,0.2,0.7c0,0.2,0.1,0.4,0.2,0.6c0,0.2,0.1,0.4,0.1,0.7c0.1,0.2,0.1,0.4,0.2,0.7c0.1,0.2,0.1,0.4,0.2,0.7
			c0.1,0.2,0.1,0.4,0.2,0.6c0.1,0.4,0.2,0.9,0.4,1.3c0,0.2,0.1,0.4,0.1,0.6c0.1,0.4,0.2,0.8,0.4,1.3c0.1,0.4,0.2,0.8,0.3,1.2
			c0.1,0.4,0.2,0.8,0.3,1.2c0.4,1,0.7,2.2,0.9,3.3c0.1,0.3,0.2,0.7,0.3,1c0.1,0.3,0.2,0.6,0.3,1c0,0.1,0.1,0.3,0.1,0.4
			c0,0.1,0.1,0.3,0.1,0.4c0,0.1,0.1,0.3,0.1,0.4c0,0.1,0.1,0.3,0.1,0.4c0,0.3,0.1,0.5,0.2,0.8c0.1,0.5,0.2,1.1,0.4,1.6
			c0,0.1,0,0.1,0.1,0.2c0,0.1,0,0.3,0.1,0.4c0,0.1,0,0.1,0,0.2c0,0.1,0,0.2,0.1,0.3c0,0.1,0,0.2,0,0.3h0c0,0,0,0.1-0.1,0.1
			c0,0-0.1,0-0.2,0.1c-0.1,0-0.2,0-0.3,0c-0.1,0-0.2,0-0.4,0.1c-0.3,0-0.6,0.1-0.9,0.1c-0.4,0-0.7,0-1.1,0.1c-1.3,0-2.6,0-3.9,0
			c-0.4,0-0.8,0-1.3-0.1c-0.2,0-0.4,0-0.6,0c-0.2,0-0.4,0-0.6,0c-0.1,0-0.3,0-0.5,0c-0.1,0-0.3,0-0.4-0.1c-0.2,0-0.5,0-0.7-0.1
			c-0.2,0-0.3-0.1-0.4-0.2c0-0.1,0-0.1-0.1-0.2c0-0.1,0-0.2-0.1-0.3c-0.1-0.2-0.2-0.5-0.2-0.7c-0.1-0.3-0.2-0.6-0.3-1
			c-0.3-2.3-1.3-4.5-1.6-6.8c-0.1-0.4-0.2-0.7-0.3-1.1c0-0.2-0.1-0.3-0.1-0.5c-0.1-0.4-0.1-0.9-0.3-1.3c0-0.1,0-0.2,0-0.3
			c0-0.1,0-0.1-0.1-0.2c0-0.1,0-0.2,0-0.2c0,0-0.1,0-0.2,0c-0.4,0-0.9-0.1-1.3-0.1c-0.2,0-0.4,0-0.6,0c-0.8-0.1-1.7-0.1-2.6,0
			c-0.3,0-0.7,0-1,0.1c-0.1,0-0.2,0.1-0.3,0.1c-0.1,0-0.1,0.1-0.2,0.1v0c0,0,0,0.1,0,0.1c0,0.1,0,0.1,0,0.2
			c-0.1,0.4-0.1,0.8-0.3,1.1c0,0.1,0,0.3-0.1,0.5c-0.1,0.2-0.1,0.3-0.1,0.5c0,0.2-0.1,0.4-0.1,0.6c-0.2,1.7-0.8,3.5-1.2,5.2
			c-0.1,0.8-0.4,1.5-0.5,2.3c0,0.2-0.1,0.3-0.1,0.5c0,0.1-0.1,0.3-0.1,0.4c0,0.1,0,0.2-0.1,0.3c0,0.1-0.1,0.2-0.1,0.3
			c0,0.1-0.1,0.1-0.1,0.2c0,0,0,0.1,0,0.1c0,0-0.1,0.1-0.1,0.1c-0.1,0-0.1,0-0.2,0.1c-0.5,0.1-1.1,0.3-1.6,0.3c-0.2,0-0.4,0-0.6,0.1
			c-0.4,0-0.8,0.1-1.2,0.1c-0.2,0-0.4,0-0.6,0c-0.7,0.1-1.3,0-2,0.1c-0.4,0-0.8,0-1.3,0c-0.2,0-0.4,0-0.6,0c-0.2,0-0.4,0-0.6,0
			c-0.2,0-0.3,0-0.5,0c-0.1,0-0.3,0-0.4-0.1c-0.2,0-0.5,0-0.7-0.1c-0.1,0-0.1,0-0.2-0.1C152.3,60.2,152.2,60.2,152.2,60.1z
			 M171.4,43.2c0,0,0-0.1,0-0.2c0-0.1,0-0.1,0-0.2c0-0.2-0.1-0.4-0.1-0.6c0-0.5-0.2-1-0.3-1.5c-0.1-0.4-0.2-0.9-0.3-1.3
			c-0.1-0.3-0.1-0.6-0.2-1c0-0.3-0.1-0.7-0.2-1c0-0.2,0-0.3-0.1-0.5c-0.1-0.4-0.1-0.7-0.2-1.1c0-0.2-0.1-0.4-0.1-0.6
			c-0.1-0.4-0.1-0.7-0.2-1.1c-0.2-0.5-0.1-1.1-0.3-1.6c0-0.2,0-0.4-0.1-0.6c-0.1-0.2-0.1-0.4-0.1-0.6c-0.1-0.7-0.1-0.7-0.1,0
			c0,0.2,0,0.4-0.1,0.6c0,0.2-0.1,0.4-0.1,0.6c0,0.5-0.2,1.2-0.3,1.7c0,0.2-0.1,0.4-0.1,0.6c0,0.2-0.1,0.4-0.1,0.6
			c0,0.2-0.1,0.4-0.1,0.6c0,0.2-0.1,0.4-0.1,0.6c0,0.2-0.1,0.4-0.1,0.6c0,0.2-0.1,0.4-0.1,0.6c0,0.2-0.1,0.4-0.1,0.6
			c0,0.2,0,0.3-0.1,0.5c-0.1,0.3-0.1,0.7-0.2,1c0,0.2,0,0.3-0.1,0.5c-0.1,0.4-0.2,0.9-0.3,1.3c-0.1,0.2-0.1,0.5-0.1,0.7
			c0,0.3-0.1,0.8-0.2,1.1c-0.2,0.3,0.4,0.2,0.6,0.3c0.2,0,0.3,0,0.5,0c0.4,0,0.8,0,1.2,0c0.2,0,0.4,0,0.6,0c0.2,0,0.4,0,0.6-0.1
			c0.1,0,0.3,0,0.5,0C171,43.3,171.2,43.3,171.4,43.2C171.4,43.2,171.3,43.3,171.4,43.2z"/>
	</g>
</g>
</svg>
