<?xml version="1.0" encoding="utf-8"?>
<!-- Generator: Adobe Illustrator 18.0.0, SVG Export Plug-In . SVG Version: 6.00 Build 0)  -->
<!DOCTYPE svg PUBLIC "-//W3C//DTD SVG 1.0//EN" "http://www.w3.org/TR/2001/REC-SVG-20010904/DTD/svg10.dtd">
<svg version="1.0" id="Camada_1" xmlns="http://www.w3.org/2000/svg" xmlns:xlink="http://www.w3.org/1999/xlink" x="0px" y="0px"
	 viewBox="0 0 301.8 80.8" enable-background="new 0 0 301.8 80.8" xml:space="preserve">
<g>
	<g>
		<path fill="#1B7C09" d="M27.6,24.1c0.4,0,0.9,0,1.3,0.1c0.4,0,0.9,0,1.3,0.1c0.4,0,0.8,0,1.2,0.1c0.2,0,0.4,0,0.6,0.1
			c0.2,0,0.4,0.1,0.6,0.1c0.2,0,0.4,0.1,0.6,0.1c0.5,0.1,1.1,0.3,1.6,0.4c0.5,0.2,1,0.4,1.5,0.6c0.1,0,0.3,0.1,0.4,0.2
			c0.1,0.1,0.3,0.1,0.4,0.2c0.1,0.1,0.3,0.2,0.4,0.3c0.1,0.1,0.2,0.2,0.4,0.3c0.3,0.2,0.5,0.3,0.7,0.6c0.1,0.1,0.2,0.2,0.3,0.3
			c0.1,0.1,0.2,0.2,0.3,0.3c0.1,0.1,0.2,0.2,0.3,0.3c0.1,0.1,0.2,0.2,0.3,0.4c0.1,0.1,0.2,0.2,0.2,0.4c0.1,0.1,0.1,0.3,0.2,0.4
			c0.2,0.4,0.3,0.9,0.5,1.3c0,0.1,0.1,0.3,0.1,0.4c0.1,0.3,0.1,0.7,0.1,1c0.1,0.8,0,1.6-0.1,2.4c-0.1,0.4-0.2,0.8-0.3,1.2
			c-0.1,0.3-0.3,0.7-0.4,1c-0.1,0.2-0.2,0.3-0.3,0.5c-0.1,0.1-0.2,0.3-0.3,0.4c-0.1,0.1-0.2,0.3-0.3,0.4c-0.2,0.3-0.4,0.5-0.7,0.7
			c-0.4,0.4-1,0.8-1.5,1.1c-0.1,0.1-0.3,0.1-0.4,0.2c-0.1,0.1-0.3,0.1-0.4,0.2c-0.1,0.1-0.3,0.1-0.4,0.2c-0.1,0.1-0.2,0.1-0.4,0.1
			c-0.2,0-0.3,0-0.4,0.1c-0.1,0,0,0,0.3,0.1c0.1,0,0.1,0,0.2,0.1c0.2,0.1,0.6,0.3,0.9,0.3c0.1,0,0.2,0.1,0.3,0.1
			c0.1,0,0.2,0.1,0.3,0.1c0.1,0.1,0.2,0.1,0.3,0.2c0.1,0,0.2,0.1,0.3,0.2c0.2,0.1,0.5,0.3,0.7,0.4c0.1,0.1,0.2,0.2,0.4,0.3
			c0.1,0.1,0.2,0.2,0.3,0.3c0.1,0.1,0.2,0.2,0.4,0.3c0.1,0.1,0.2,0.2,0.4,0.3c0.1,0.1,0.2,0.2,0.3,0.3c0.1,0.1,0.2,0.2,0.3,0.3
			c0.2,0.3,0.4,0.5,0.7,0.8c0.2,0.3,0.4,0.6,0.6,0.9c0.1,0.2,0.2,0.3,0.3,0.5c0.1,0.2,0.2,0.3,0.3,0.5c0.4,0.7,0.8,1.5,0.9,2.3
			c0.2,0.7,0.4,1.4,0.4,2.1c0.1,0.5,0.2,1,0.1,1.5c0.1,0.7,0,1.3,0,2c0,0.2,0,0.4,0,0.6c-0.1,0.5-0.1,1.1-0.2,1.6
			c0,0.2-0.1,0.3-0.1,0.5c-0.2,0.6-0.3,1.3-0.6,1.9c0,0.2-0.1,0.3-0.2,0.5c-0.2,0.3-0.3,0.6-0.4,0.8c-0.1,0.3-0.3,0.5-0.5,0.8
			c-0.3,0.4-0.6,0.8-0.9,1.1c-0.2,0.3-0.4,0.5-0.6,0.7c-1.1,1.1-2.6,2.2-4.1,2.6c-0.1,0.1-0.3,0.1-0.4,0.2c-0.2,0.1-0.3,0.1-0.5,0.2
			c-0.5,0.2-1,0.3-1.5,0.5c-0.4,0.1-0.7,0.1-1.1,0.2c-0.9,0.2-1.9,0.3-2.9,0.4c-0.2,0-0.4,0-0.6,0c-0.2,0-0.4,0-0.6,0
			c-0.6,0-1.1,0-1.7,0c-2.1,0-4.4,0.2-6.4,0c-0.4,0-0.7,0-1.1,0c-0.2,0-0.3,0-0.5,0c-0.1,0-0.3,0-0.4,0c-0.1,0-0.2,0-0.4,0
			c-0.1,0-0.2,0-0.4-0.1c-0.2,0-0.4,0-0.6-0.1c-0.1,0-0.2,0-0.3-0.1c-0.1,0-0.1,0-0.2-0.1c-0.2,0-0.4-0.1-0.6-0.2
			c-0.1,0-0.1-0.1-0.1-0.1c-0.1-0.1-0.4-0.2-0.4-0.3c0,0-0.1-0.1-0.1-0.1c0,0,0-0.1,0-0.1c0,0,0-0.1,0-0.1c0-0.1,0-0.2-0.1-0.4
			c0-0.1,0-0.2,0-0.3c0-0.1,0-0.1,0-0.2c0-0.2,0-0.4-0.1-0.6c0-0.1,0-0.2,0-0.3c0-0.1,0-0.2,0-0.3c0-0.3-0.1-0.5-0.1-0.8
			c0-0.1,0-0.2,0-0.4c0-0.3-0.1-0.6-0.1-0.9c0-0.1,0-0.3,0-0.4c0-0.3,0-0.6,0-1c0-0.3,0-0.7-0.1-1c0-0.2,0-0.4,0-0.6
			c0-0.4,0-0.7,0-1.1c0-0.4-0.1-0.8,0-1.1c0-0.4-0.1-0.8,0-1.2c0-0.4-0.1-0.8,0-1.2c-0.1-0.6,0-1.3-0.1-1.9c0-0.4,0-0.9,0-1.3
			c-0.1-0.7,0-1.3,0-2c-0.1-0.9,0-1.8-0.1-2.7c0-1.1,0-2.2,0-3.4c-0.2-2.1,0-4.4,0-6.5c0.1-1.1-0.1-2.3,0.1-3.4c0-0.5,0-1.1,0-1.6
			c0-0.3,0-0.6,0-1c0-0.3,0-0.6,0-0.9c0-0.3,0-0.5,0-0.8c0-0.2,0-0.5,0-0.7c0-0.2,0-0.4,0.1-0.7c0-0.1,0-0.2,0-0.3
			c0-0.1,0-0.2,0-0.3c0-0.2,0-0.3,0.1-0.5c0-0.1,0-0.1,0-0.2c0-0.1,0-0.1,0-0.2c0,0,0-0.1,0-0.1c0,0,0-0.1,0-0.1c0,0,0,0,0-0.1
			c0,0,0,0,0-0.1l0,0c0.1-0.1,0.2-0.1,0.3-0.2c0,0,0.1,0,0.2-0.1c0.1-0.1,0.2-0.2,0.3-0.2c0.3-0.1,0.6-0.3,0.9-0.3
			c0.3-0.1,0.6-0.2,0.9-0.2c0.1,0,0.2,0,0.4-0.1c0.3,0,0.5-0.1,0.8-0.1c0.2,0,0.3,0,0.5,0c0.2,0,0.3,0,0.5,0c0.4,0,0.8,0,1.2-0.1
			c0.4,0,0.9,0,1.3,0c1.1-0.1,2.2,0,3.4,0C26.2,24.1,26.9,24.1,27.6,24.1C27.8,24.1,27.2,24.1,27.6,24.1z M26.2,31.8
			c-0.1,0-0.1,0.1,0,0.3c0,0.1,0,0.3,0,0.4c0,0.2,0,0.4,0,0.6c0,0.4,0,0.8,0,1.2c0,0.2,0,0.4,0,0.6c0.1,0.3-0.2,1,0.4,0.8
			c0.1,0,0.3,0,0.4,0c0.4-0.1,0.7-0.2,1-0.4c0.2-0.1,0.3-0.2,0.4-0.4c0.1-0.1,0.2-0.3,0.3-0.4c0.2-0.6,0-1.3-0.4-1.7
			c-0.1-0.1-0.3-0.2-0.4-0.4C27.6,32.2,26.6,31.7,26.2,31.8C26.1,31.9,26.2,31.8,26.2,31.8z M26.7,46.5c0,0,0,0.1,0,0.2
			c0,0.1,0,0.2,0,0.3c0,0.1,0,0.2,0,0.3c0.1,0.6,0,1.2,0.1,1.8c0,0.4,0,0.8,0,1.1c0,0.4,0,0.8,0,1.2c0,0.4,0,0.8,0,1.3
			c0,0.2,0,0.4,0,0.6c0,0.4,0,0.8,0.1,1.2c0,0.2,0,0.4,0,0.6c0,0.3,0,0.7,0.1,1c0,0.2,0,0.3,0,0.5c0,0.3,0,0.5,0.1,0.8
			c0,0.1,0,0.2,0,0.3c0,0.1,0,0.2,0,0.3c0,0.1,0,0.1,0,0.1c0.1,0,0.3,0.1,0.4,0c0.2,0,0.5,0,0.7,0c0.3-0.1,0.6-0.1,0.9-0.1
			c0.3-0.1,0.6-0.2,0.9-0.3c0.2-0.1,0.3-0.1,0.5-0.2c0.1-0.1,0.3-0.2,0.4-0.3c0.1-0.1,0.3-0.2,0.4-0.4c0.1-0.1,0.3-0.3,0.4-0.4
			c0.3-0.3,0.5-0.7,0.6-1.1c0.2-0.4,0.3-0.9,0.3-1.4c0-0.3,0-0.5,0-0.8c0-0.3-0.1-0.6-0.1-0.9c0-0.3-0.1-0.5-0.1-0.8
			c-0.2-0.9-0.6-1.7-1.1-2.5c-0.1-0.1-0.2-0.3-0.4-0.4c-0.1-0.1-0.2-0.3-0.4-0.4c-0.1-0.1-0.3-0.2-0.4-0.3c-0.3-0.2-0.5-0.4-0.8-0.6
			c-0.1,0-0.3-0.1-0.4-0.2c-0.5-0.2-1-0.3-1.5-0.4c-0.1,0-0.2,0-0.3,0c-0.1,0-0.2,0-0.3,0C26.8,46.5,26.8,46.5,26.7,46.5
			C26.7,46.6,26.8,46.5,26.7,46.5z"/>
		<path fill="#020202" d="M47,24.5c0,0,0.1-0.1,0.2-0.1c0.2-0.1,0.5-0.2,0.7-0.2c0.5-0.1,1.1-0.2,1.6-0.2c0.2,0,0.4,0,0.7,0
			c0.2,0,0.4,0,0.7,0c0.7,0,1.4,0,2,0c0.6,0.1,1.3,0.1,1.9,0.1c0.5,0.1,0.9,0.1,1.3,0.2c0.1,0,0.2,0.1,0.3,0.1c0,0,0.1,0.1,0.1,0.1
			c0,0,0.1,0.1,0.1,0.1c0,0.1-0.1,0.3-0.1,0.4c0,0.1,0,0.3,0,0.4c0,0.3-0.1,0.6-0.1,0.9c0,0.1,0,0.3-0.1,0.4c0,0.3-0.1,0.6-0.1,1
			c-0.1,0.3-0.1,0.7-0.1,1c-0.1,0.3-0.1,0.7-0.1,1c-0.1,0.4-0.1,0.7-0.1,1.1c0,0.2,0,0.3-0.1,0.5c0,0.4-0.1,0.7-0.1,1.1
			c0,0.4,0,0.7-0.1,1.1c0,0.2,0,0.4,0,0.6c0,0.2-0.1,0.4-0.1,0.6c0,0.2,0,0.4,0,0.6c0,0.2,0,0.4,0,0.6c0,0.2,0,0.4,0,0.6
			c0,0.2,0,0.4,0,0.6c0,0.2,0,0.4,0,0.6c0,0.4,0,0.7,0,1.1c-0.1,1-0.1,2.3,0,3.3c0,0.4,0,0.7,0,1.1c0,0.2,0,0.3,0,0.5
			c0,0.3,0.1,0.7,0.1,1c0.1,0.3,0.1,0.7,0.1,1c0,0.1,0,0.3,0.1,0.4c0.1,0.4,0.1,0.9,0.3,1.4c0,0.1,0.1,0.3,0.1,0.4
			c0.1,0.3,0.1,0.6,0.2,0.8c0.1,0.4,0.2,0.8,0.5,1.1c0,0.1,0.1,0.2,0.1,0.4c0.1,0.1,0.1,0.2,0.2,0.3c0.1,0.1,0.1,0.2,0.2,0.3
			c0.1,0.2,0.2,0.4,0.4,0.6c0.1,0.2,0.3,0.4,0.5,0.5c0.1,0.2,0.3,0.3,0.5,0.4c0.1,0.1,0.2,0.1,0.3,0.2c0.2,0.1,0.4,0.3,0.6,0.3
			c0.1,0,0.2,0.1,0.3,0.1c0.3,0.2,0.7,0.2,1.1,0.3c0.1,0,0.2,0,0.4,0c0.3,0,0.5,0,0.8,0c0.5,0,1.1-0.1,1.5-0.3
			c0.1,0,0.2-0.1,0.3-0.1c0.1,0,0.2-0.1,0.3-0.2c0.1,0,0.2-0.1,0.3-0.1c0.3-0.2,0.6-0.4,0.8-0.6c0.1-0.1,0.1-0.2,0.2-0.3
			c0.1-0.1,0.2-0.2,0.3-0.3c0.1-0.1,0.1-0.2,0.2-0.3c0.1-0.1,0.1-0.2,0.2-0.3c0.1-0.1,0.1-0.2,0.2-0.3c0.1-0.2,0.2-0.4,0.4-0.7
			c0.2-0.4,0.3-0.7,0.4-1.1c0-0.1,0.1-0.3,0.1-0.4c0-0.1,0.1-0.3,0.1-0.4c0-0.1,0.1-0.3,0.1-0.4c0-0.3,0.1-0.6,0.1-0.9
			c0-0.1,0.1-0.3,0.1-0.4c0.1-0.5,0.2-1,0.2-1.4c0-0.2,0-0.3,0-0.5c0-0.2,0-0.3,0-0.5c0-0.3,0-0.7,0.1-1c0-1,0.1-2.2,0-3.2
			c0-0.2,0-0.4,0-0.6c0-0.4,0-0.7-0.1-1.1c0-0.2,0-0.4,0-0.6c0-0.2,0-0.4,0-0.6c0-0.2,0-0.4,0-0.6c0-0.4-0.1-0.7-0.1-1.1
			c0-0.2,0-0.4-0.1-0.6c0-0.6-0.1-1.1-0.1-1.7c0-0.4-0.1-0.7-0.1-1.1c0-0.5-0.1-1.1-0.2-1.6c0-0.5-0.1-1-0.2-1.5
			c0-0.5-0.1-1-0.2-1.5c0-0.3-0.1-0.6-0.1-0.9c0-0.3,0-0.6-0.1-0.9c0-0.1,0-0.3-0.1-0.4c0,0,0-0.1,0.1-0.1c0,0,0.1-0.1,0.1-0.1
			c0.1,0,0.2,0,0.3-0.1c0.1,0,0.2,0,0.4-0.1c0.1,0,0.3-0.1,0.4-0.1c0.4-0.1,0.7-0.1,1.1-0.1c0.2,0,0.4,0,0.6,0c0.2,0,0.4,0,0.6,0
			c0.9-0.1,1.8-0.1,2.7,0c0.2,0,0.4,0,0.6,0c0.2,0,0.4,0,0.6,0c0.5,0,0.9,0.1,1.4,0.2c0.1,0,0.2,0,0.3,0.1c0.1,0,0.1,0.1,0.2,0.1
			c0,0,0,0,0.1,0.1c0.1,0.3,0.2,0.6,0.3,0.9c0.1,0.5,0.3,0.9,0.4,1.4c0,0.1,0.1,0.3,0.1,0.5c0.1,0.3,0.1,0.6,0.2,1
			c0,0.1,0.1,0.3,0.1,0.5c0,0.1,0.1,0.3,0.1,0.5c0,0.2,0.1,0.3,0.1,0.5c0,0.2,0.1,0.3,0.1,0.5c0,0.1,0.1,0.3,0.1,0.5
			c0.1,0.3,0.1,0.7,0.2,1c0,0.3,0.1,0.7,0.2,1c0.2,1.4,0.6,2.8,0.6,4.2c0,0.2,0,0.4,0.1,0.6c0,0.3,0,0.7,0.1,1c0,0.2,0,0.4,0,0.6
			c0,0.2,0,0.3,0,0.5c0,0.2,0,0.4,0,0.6c0,0.4,0.1,0.7,0.1,1.1c0,0.3,0,0.7,0,1c0,0.7,0.1,1.4,0,2.1c0,0.4,0,0.7,0,1.1
			c0,0.3,0,0.7-0.1,1c0,0.2,0,0.3,0,0.5c0,0.2,0,0.3,0,0.5c0,0.3,0,0.7-0.1,1c0,0.9-0.2,2.1-0.4,3c0,0.3-0.1,0.7-0.2,1
			c0,0.1-0.1,0.3-0.1,0.5c-0.1,0.3-0.1,0.6-0.2,1c-0.1,0.1-0.1,0.3-0.1,0.4c-0.1,0.6-0.4,1.2-0.6,1.8c-0.1,0.3-0.2,0.6-0.3,0.9
			c-0.1,0.1-0.1,0.3-0.2,0.4c-0.1,0.1-0.1,0.3-0.2,0.4c-0.1,0.1-0.1,0.3-0.2,0.4c-0.1,0.1-0.1,0.3-0.2,0.4c-0.1,0.1-0.1,0.3-0.2,0.4
			c-0.1,0.3-0.2,0.5-0.4,0.8c-0.1,0.1-0.2,0.3-0.3,0.4c-0.1,0.3-0.3,0.5-0.5,0.7c-0.2,0.2-0.4,0.5-0.5,0.7c-0.2,0.2-0.4,0.5-0.6,0.7
			c-0.1,0.1-0.2,0.2-0.3,0.3c-0.3,0.3-0.6,0.6-0.9,0.9c-0.1,0.1-0.2,0.2-0.3,0.3c-0.1,0.1-0.2,0.2-0.3,0.3c-0.1,0.1-0.2,0.2-0.3,0.3
			c-0.2,0.2-0.5,0.4-0.7,0.5c-0.4,0.2-0.7,0.4-1.1,0.7c-0.1,0.1-0.3,0.1-0.4,0.2c-0.1,0.1-0.3,0.1-0.4,0.2c-0.1,0-0.3,0.1-0.4,0.2
			c-0.3,0.1-0.6,0.2-0.9,0.3c-0.1,0.1-0.3,0.1-0.4,0.1c-0.3,0.1-0.6,0.2-0.9,0.3c-0.1,0-0.3,0.1-0.4,0.1c-0.8,0.2-1.7,0.4-2.5,0.4
			c-0.4,0-0.7,0-1.1,0c-0.4,0-0.7,0-1.1,0c-0.2,0-0.3,0-0.5,0c-0.2,0-0.4,0-0.6,0c-0.2,0-0.3,0-0.5-0.1c-0.5,0-1-0.1-1.5-0.2
			c-0.1,0-0.3-0.1-0.5-0.1c-0.1,0-0.3-0.1-0.5-0.1c-0.7-0.1-1.6-0.4-2.2-0.7c-0.1,0-0.3-0.1-0.4-0.2c-0.1,0-0.3-0.1-0.4-0.2
			c-0.1-0.1-0.3-0.1-0.4-0.2c-0.3-0.1-0.5-0.3-0.7-0.4c-0.3-0.1-0.5-0.3-0.7-0.5c-0.2-0.2-0.5-0.4-0.7-0.5c-0.2-0.2-0.4-0.4-0.6-0.6
			c-0.2-0.2-0.4-0.4-0.6-0.6c-0.2-0.2-0.4-0.4-0.6-0.6c-0.2-0.2-0.4-0.5-0.6-0.7c-0.1-0.1-0.2-0.2-0.3-0.4c-0.1-0.1-0.2-0.2-0.3-0.3
			c-0.1-0.1-0.2-0.2-0.3-0.4c-0.1-0.2-0.3-0.5-0.4-0.7c-0.1-0.3-0.3-0.5-0.4-0.8c-0.1-0.1-0.1-0.2-0.2-0.4c-0.1-0.1-0.1-0.3-0.2-0.4
			c-0.1-0.1-0.1-0.3-0.2-0.4c-0.1-0.1-0.1-0.3-0.2-0.4c-0.1-0.1-0.1-0.3-0.2-0.4c-0.1-0.3-0.2-0.6-0.3-0.8c-0.2-0.4-0.4-0.9-0.4-1.4
			c-0.1-0.3-0.2-0.6-0.3-0.9c-0.1-0.3-0.1-0.6-0.2-1c-0.1-0.3-0.1-0.6-0.2-1c0-0.2,0-0.3-0.1-0.5c-0.3-0.9-0.4-2.1-0.4-3
			c0-0.2,0-0.3-0.1-0.5c0-0.3,0-0.7-0.1-1c0-0.3,0-0.7-0.1-1c0-0.2,0-0.4,0-0.6c0-0.3,0-0.7,0-1c-0.1-0.7-0.1-1.5,0-2.1
			c0-0.4,0-0.7,0-1.1c0-0.4,0.1-0.7,0.1-1.1c0-0.2,0-0.4,0-0.6c0-0.2,0-0.3,0-0.5c0-0.2,0-0.4,0-0.6c0-0.2,0-0.3,0-0.5
			c0-0.4,0-0.7,0.1-1.1c0-1.5,0.3-3.3,0.7-4.7c0-0.3,0.1-0.7,0.2-1c0-0.2,0-0.3,0.1-0.5c0.1-0.3,0.1-0.7,0.2-1
			c0-0.1,0.1-0.3,0.1-0.5c0-0.2,0.1-0.3,0.1-0.5c0.1-0.3,0.1-0.6,0.2-1c0-0.2,0.1-0.3,0.1-0.5c0-0.2,0.1-0.3,0.1-0.5
			c0.1-0.3,0.2-0.6,0.3-1c0.1-0.3,0.1-0.6,0.3-0.9C46.9,24.6,47,24.6,47,24.5C47.1,24.5,47,24.6,47,24.5z"/>
		<path fill="#020202" d="M83.7,24.9c0.1-0.1,0.2-0.1,0.3-0.2c0.1,0,0.2-0.1,0.4-0.2c0.3-0.1,0.6-0.2,0.9-0.3c0.2,0,0.3-0.1,0.5-0.1
			c0.2,0,0.4-0.1,0.6-0.1c0.6-0.1,1.2-0.1,1.8-0.2c0.2,0,0.4,0,0.6,0c0.7,0,1.5-0.1,2.2,0c0.3,0,0.6,0,0.9,0.1c0.1,0,0.2,0,0.4,0.1
			c0.1,0,0.2,0,0.3,0.1c0.1,0,0.1,0.1,0.2,0.1c0,0,0.1,0.1,0.1,0.1c0,0,0.1,0.1,0.1,0.1c0,0,0.1,0.1,0.1,0.2c0,0.1,0.1,0.1,0.1,0.2
			c0,0.1,0.1,0.2,0.1,0.3c0,0.2,0.1,0.3,0.1,0.5c0,0.2,0.1,0.4,0.1,0.7c0,0.3,0.1,0.5,0.1,0.8c0,0.1,0,0.3,0,0.4c0,0.1,0,0.3,0,0.4
			c0,0.3,0,0.6,0.1,0.9c0,0.3,0,0.7,0,1c0.2,1.3,0,2.6,0,3.9c-0.1,1,0,2.1,0,3.1c0,0.2,0,0.4,0,0.6c0,0.2,0,0.4,0,0.6
			c0,0.4,0,0.8,0,1.3c-0.1,0.4-0.1,0.6,0,0.6c0.1,0,0.3-0.1,0.5-0.4c0.3-0.3,0.6-0.6,0.9-1c0.3-0.3,0.6-0.7,0.9-1
			c0.6-0.6,1.1-1.4,1.5-2.1c0.5-0.7,0.8-1.5,1.2-2.2c0.1-0.2,0.2-0.4,0.3-0.6c0.3-0.7,0.6-1.4,0.9-2.1c0-0.2,0.1-0.3,0.2-0.5
			c0-0.1,0.1-0.3,0.1-0.5c0.3-0.6,0.4-1.2,0.6-1.8c0.1-0.3,0.1-0.6,0.2-0.8c0.1-0.2,0.1-0.5,0.2-0.7c0-0.2,0.1-0.4,0.2-0.7
			c0-0.1,0-0.2,0.1-0.3c0-0.1,0-0.2,0.1-0.3c0-0.1,0-0.1,0.1-0.2c0,0,0-0.1,0.1-0.2c0,0,0-0.1,0-0.1c0,0,0-0.1,0.1-0.1
			c0,0,0,0,0-0.1c0,0,0,0,0.1,0c0.1,0,0.2,0,0.3,0c0.4-0.1,0.8,0,1.2,0c0.5,0.1,1.1,0.1,1.6,0.3c0.4,0.1,0.8,0.2,1.2,0.2
			c0.2,0,0.4,0.1,0.6,0.2c0.4,0.1,0.8,0.2,1.2,0.3c0.2,0,0.4,0.1,0.6,0.2c0.4,0.1,0.7,0.2,1.1,0.4c0.3,0.2,0.7,0.3,1,0.4
			c0.1,0.1,0.3,0.1,0.4,0.2c0.3,0.1,0.5,0.3,0.7,0.4c0.1,0,0.2,0.1,0.3,0.2c0.1,0,0.1,0.1,0.2,0.2c0,0,0.1,0.1,0.1,0.1
			c0.1,0.1,0.1,0.4,0,0.6c0,0,0,0.1,0,0.1c0,0.1-0.1,0.3-0.1,0.4c0,0.1,0,0.1-0.1,0.2c0,0.1-0.1,0.2-0.1,0.3c0,0.1-0.1,0.2-0.1,0.3
			c0,0.1-0.1,0.2-0.1,0.3c-0.1,0.1-0.1,0.2-0.1,0.3c0,0.1-0.1,0.2-0.1,0.3c-0.1,0.2-0.2,0.5-0.3,0.7c-0.1,0.3-0.3,0.5-0.4,0.8
			c-0.1,0.1-0.1,0.3-0.2,0.4c-0.1,0.1-0.1,0.3-0.2,0.4c-0.3,0.4-0.4,0.9-0.7,1.3c-0.1,0.1-0.2,0.3-0.3,0.4c-0.1,0.1-0.2,0.3-0.3,0.4
			c-0.2,0.3-0.4,0.6-0.6,1c-0.1,0.1-0.2,0.3-0.3,0.4c-0.1,0.2-0.2,0.3-0.3,0.5c-0.1,0.1-0.2,0.3-0.3,0.5c-0.1,0.1-0.2,0.3-0.3,0.5
			c-0.1,0.1-0.2,0.3-0.4,0.4c-0.1,0.2-0.2,0.3-0.4,0.5c-0.2,0.3-0.5,0.7-0.8,1c-0.1,0.1-0.3,0.3-0.4,0.4c-0.1,0.1-0.3,0.3-0.4,0.4
			c-0.4,0.5-0.9,0.9-1.3,1.3c-0.3,0.3-0.6,0.6-1,0.8c-0.2,0.1-0.3,0.3-0.5,0.4c-0.3,0.3-0.7,0.5-1,0.8c-0.2,0.2-0.3,0.3-0.5,0.4
			c-0.3,0.1-0.5,0.2-0.6,0.4c0,0.1,0.1,0.2,0.4,0.2c0.1,0,0.3,0.1,0.4,0.3c0.4,0.3,0.9,0.6,1.3,0.9c0.1,0.1,0.3,0.2,0.4,0.3
			c0.4,0.3,0.9,0.7,1.3,1.1c0.1,0.1,0.3,0.3,0.4,0.4c0.3,0.3,0.6,0.6,0.9,0.8c0.1,0.1,0.3,0.3,0.4,0.4c0.1,0.1,0.3,0.3,0.4,0.4
			c0.1,0.1,0.3,0.3,0.4,0.4c0.3,0.3,0.5,0.6,0.8,0.9c0.3,0.3,0.5,0.6,0.8,0.9c0.1,0.1,0.2,0.3,0.4,0.4c0.2,0.3,0.5,0.6,0.7,1
			c0.4,0.4,0.7,1,1,1.4c0.1,0.1,0.2,0.3,0.3,0.5c0.1,0.1,0.2,0.3,0.3,0.4c0.1,0.1,0.2,0.3,0.3,0.4c0.2,0.3,0.4,0.6,0.6,0.9
			c0.1,0.1,0.2,0.3,0.3,0.4c0.1,0.1,0.2,0.3,0.3,0.4c0.1,0.1,0.2,0.3,0.3,0.4c0.1,0.1,0.2,0.3,0.3,0.4c0.1,0.3,0.3,0.5,0.4,0.8
			c0.1,0.1,0.1,0.2,0.2,0.4c0.1,0.1,0.1,0.2,0.2,0.3c0,0.1,0.1,0.2,0.1,0.3c0.2,0.3,0.3,0.6,0.5,0.9c0,0.1,0.1,0.2,0.1,0.3
			c0,0.1,0.1,0.2,0.1,0.3c0.1,0.1,0.1,0.3,0.1,0.4c0,0,0,0.1,0,0.1c0,0,0,0.1,0,0.2c0.1,0.1,0,0.3,0,0.4c0,0.1-0.1,0.1-0.1,0.2
			c-0.1,0.1-0.1,0.2-0.2,0.3c-0.2,0.2-0.4,0.4-0.6,0.5c-0.1,0.1-0.2,0.2-0.4,0.3c-0.1,0.1-0.3,0.2-0.4,0.3c-0.1,0.1-0.3,0.2-0.5,0.3
			c-0.1,0.1-0.3,0.2-0.5,0.3c-0.3,0.2-0.7,0.4-1.1,0.6c-0.6,0.2-1.1,0.6-1.7,0.8c-0.7,0.3-1.4,0.7-2.1,0.9c-0.3,0.1-0.6,0.2-0.9,0.3
			c-0.2,0-0.5,0.1-0.7,0.1c-0.1,0-0.4,0.1-0.5,0c-0.1,0-0.1-0.1-0.2-0.1c-0.1-0.1-0.2-0.2-0.2-0.3c-0.1-0.1-0.1-0.1-0.1-0.2
			c0-0.1-0.1-0.1-0.1-0.2c-0.1-0.1-0.1-0.1-0.1-0.2c0-0.1-0.1-0.1-0.1-0.2c0-0.1-0.1-0.2-0.1-0.3c-0.1-0.2-0.2-0.4-0.3-0.6
			c0-0.1-0.1-0.2-0.1-0.3c-0.1-0.4-0.3-0.7-0.4-1.1c-0.1-0.3-0.2-0.5-0.4-0.8c0-0.1-0.1-0.3-0.2-0.4c-0.3-0.9-0.8-1.9-1.3-2.8
			c-0.1-0.2-0.2-0.3-0.3-0.5c-0.2-0.3-0.4-0.7-0.5-1c-0.2-0.3-0.4-0.7-0.6-1c-0.2-0.3-0.4-0.7-0.7-1c-0.4-0.7-0.9-1.5-1.5-2.1
			c-0.1-0.2-0.2-0.3-0.4-0.5c-0.1-0.2-0.3-0.3-0.4-0.5c-0.4-0.5-0.9-1-1.3-1.5c-0.1-0.1-0.3-0.3-0.4-0.5c-0.2-0.2-0.3-0.3-0.5-0.4
			c-0.2-0.1-0.3-0.3-0.5-0.5c-0.2-0.2-0.3-0.4-0.5-0.4c-0.1,0-0.1,0.1,0,0.4c0,0.1,0.1,0.2,0,0.4c0,0.1,0,0.3,0,0.4
			c0,0.1,0,0.3,0,0.5c0,0.3,0.1,0.6,0.1,1c0,0.2,0,0.3,0,0.5c0,0.2,0,0.3,0,0.5c0,0.4,0.1,0.8,0.1,1.1c0,0.2,0,0.4,0,0.6
			c0,0.2,0,0.4,0.1,0.6c0,0.2,0,0.4,0,0.6c0,0.4,0,0.8,0.1,1.2c0,0.2,0,0.4,0,0.6c0,0.2,0,0.4,0.1,0.6c0,0.2,0,0.4,0,0.6
			c0,0.4,0,0.8,0.1,1.2c0,0.2,0,0.4,0,0.6c0,0.2,0,0.4,0,0.6c0,0.2,0,0.4,0,0.6c0,0.4,0,0.7,0.1,1.1c0,0.2,0,0.3,0,0.5
			c0,0.3,0,0.6,0,0.9c0.1,0.5,0.2,1.5,0,2c0,0.1,0,0.2,0,0.4c0,0,0,0.1,0,0.1c0,0,0,0,0,0c0,0-0.1,0.1-0.1,0.1
			c-0.1,0-0.1,0.1-0.2,0.1c-0.2,0.1-0.5,0.1-0.7,0.1c-0.3,0-0.6,0.1-1,0.1c-0.2,0-0.4,0-0.6,0c-0.4,0-0.8,0-1.3,0.1
			c-1.3,0-2.6,0-4,0c-0.4,0-0.7,0-1.1-0.1c-0.2,0-0.3,0-0.5,0c-0.1,0-0.3,0-0.4,0c-0.1,0-0.2,0-0.4,0c-0.1,0-0.2,0-0.3,0
			c-0.1,0-0.1,0-0.2-0.1c0,0-0.1,0-0.1-0.1h0c0-0.1,0-0.2,0-0.3c-0.1-0.1,0-0.4,0-0.5c-0.1-0.2,0-0.5-0.1-0.7c0-0.2,0-0.4,0-0.6
			c0-0.2,0-0.4,0-0.7c0-0.3-0.1-0.5,0-0.8c0-0.3,0-0.5,0-0.8c0-0.3-0.1-0.6-0.1-0.9c0-0.3,0-0.6,0-1c0-0.3,0-0.7,0-1
			c0-0.2,0-0.3,0-0.5c0-0.4,0-0.7,0-1.1c0-0.4,0-0.8-0.1-1.1c0-0.4,0-0.8,0-1.2c0-0.2,0-0.4,0-0.6c0-0.4-0.1-0.8,0-1.2
			c0-0.4,0-0.9-0.1-1.3c0-0.4,0-0.9,0-1.3c0-0.4,0-0.9,0-1.3c0-0.4,0-0.9,0-1.3c0-0.2,0-0.4,0-0.7c-0.1-0.7,0-1.4-0.1-2
			c0-0.5,0-0.9,0-1.4c0-0.5,0-0.9,0-1.4c-0.1-0.7,0-1.3-0.1-2c0-0.7,0-1.3,0-2c-0.1-0.8,0-1.7,0-2.5c-0.2-2.1-0.4-5,0-7.1
			c0-0.4,0-0.9,0-1.3c0.1-0.4,0-0.7,0.1-1.1c0-0.2,0-0.4,0-0.6c0-0.2,0-0.4,0.1-0.6c0-0.1,0-0.2,0-0.3c0-0.1,0-0.3,0.1-0.4
			c0,0,0-0.1,0-0.2c0,0,0-0.1,0-0.1c0-0.1,0-0.1,0.1-0.2c0,0,0,0,0-0.1C83.5,25,83.6,24.9,83.7,24.9C83.8,24.8,83.6,24.9,83.7,24.9z
			"/>
		<path fill="#020202" d="M118.3,24.5c0,0,0.1-0.1,0.2-0.1c0.2-0.1,0.5-0.2,0.7-0.2c0.5-0.1,1.1-0.2,1.6-0.2c0.2,0,0.4,0,0.7,0
			c0.2,0,0.4,0,0.7,0c0.7,0,1.4,0,2,0c0.6,0.1,1.3,0.1,1.9,0.1c0.5,0.1,0.9,0.1,1.3,0.2c0.1,0,0.2,0.1,0.3,0.1c0,0,0.1,0.1,0.1,0.1
			c0,0,0.1,0.1,0.1,0.1c0,0.1-0.1,0.3-0.1,0.4c0,0.1,0,0.3,0,0.4c0,0.3-0.1,0.6-0.1,0.9c0,0.1,0,0.3-0.1,0.4c0,0.3-0.1,0.6-0.1,1
			c-0.1,0.3-0.1,0.7-0.1,1c-0.1,0.3-0.1,0.7-0.1,1c-0.1,0.4-0.1,0.7-0.1,1.1c0,0.2,0,0.3-0.1,0.5c0,0.4-0.1,0.7-0.1,1.1
			c0,0.4,0,0.7-0.1,1.1c0,0.2,0,0.4,0,0.6c0,0.2-0.1,0.4-0.1,0.6c0,0.2,0,0.4,0,0.6c0,0.2,0,0.4,0,0.6c0,0.2,0,0.4,0,0.6
			c0,0.2,0,0.4,0,0.6c0,0.2,0,0.4,0,0.6c0,0.4,0,0.7,0,1.1c-0.1,1-0.1,2.3,0,3.3c0,0.4,0,0.7,0,1.1c0,0.2,0,0.3,0,0.5
			c0,0.3,0.1,0.7,0.1,1c0.1,0.3,0.1,0.7,0.1,1c0,0.1,0,0.3,0.1,0.4c0.1,0.4,0.1,0.9,0.3,1.4c0,0.1,0.1,0.3,0.1,0.4
			c0.1,0.3,0.1,0.6,0.2,0.8c0.1,0.4,0.2,0.8,0.5,1.1c0,0.1,0.1,0.2,0.1,0.4c0.1,0.1,0.1,0.2,0.2,0.3c0.1,0.1,0.1,0.2,0.2,0.3
			c0.1,0.2,0.2,0.4,0.4,0.6c0.1,0.2,0.3,0.4,0.5,0.5c0.1,0.2,0.3,0.3,0.5,0.4c0.1,0.1,0.2,0.1,0.3,0.2c0.2,0.1,0.4,0.3,0.6,0.3
			c0.1,0,0.2,0.1,0.3,0.1c0.3,0.2,0.7,0.2,1.1,0.3c0.1,0,0.2,0,0.4,0c0.3,0,0.5,0,0.8,0c0.5,0,1.1-0.1,1.5-0.3
			c0.1,0,0.2-0.1,0.3-0.1c0.1,0,0.2-0.1,0.3-0.2c0.1,0,0.2-0.1,0.3-0.1c0.3-0.2,0.6-0.4,0.8-0.6c0.1-0.1,0.1-0.2,0.2-0.3
			c0.1-0.1,0.2-0.2,0.3-0.3c0.1-0.1,0.1-0.2,0.2-0.3c0.1-0.1,0.1-0.2,0.2-0.3c0.1-0.1,0.1-0.2,0.2-0.3c0.1-0.2,0.2-0.4,0.4-0.7
			c0.2-0.4,0.3-0.7,0.4-1.1c0-0.1,0.1-0.3,0.1-0.4c0-0.1,0.1-0.3,0.1-0.4c0-0.1,0.1-0.3,0.1-0.4c0-0.3,0.1-0.6,0.1-0.9
			c0-0.1,0.1-0.3,0.1-0.4c0.1-0.5,0.2-1,0.2-1.4c0-0.2,0-0.3,0-0.5c0-0.2,0-0.3,0-0.5c0-0.3,0-0.7,0.1-1c0-1,0.1-2.2,0-3.2
			c0-0.2,0-0.4,0-0.6c0-0.4,0-0.7-0.1-1.1c0-0.2,0-0.4,0-0.6c0-0.2,0-0.4,0-0.6c0-0.2,0-0.4,0-0.6c0-0.4-0.1-0.7-0.1-1.1
			c0-0.2,0-0.4-0.1-0.6c0-0.6-0.1-1.1-0.1-1.7c0-0.4-0.1-0.7-0.1-1.1c0-0.5-0.1-1.1-0.2-1.6c0-0.5-0.1-1-0.2-1.5
			c0-0.5-0.1-1-0.2-1.5c0-0.3-0.1-0.6-0.1-0.9c0-0.3,0-0.6-0.1-0.9c0-0.1,0-0.3-0.1-0.4c0,0,0-0.1,0.1-0.1c0,0,0.1-0.1,0.1-0.1
			c0.1,0,0.2,0,0.3-0.1c0.1,0,0.2,0,0.4-0.1c0.1,0,0.3-0.1,0.4-0.1c0.4-0.1,0.7-0.1,1.1-0.1c0.2,0,0.4,0,0.6,0c0.2,0,0.4,0,0.6,0
			c0.9-0.1,1.8-0.1,2.7,0c0.2,0,0.4,0,0.6,0c0.2,0,0.4,0,0.6,0c0.5,0,0.9,0.1,1.4,0.2c0.1,0,0.2,0,0.3,0.1c0.1,0,0.1,0.1,0.2,0.1
			c0,0,0,0,0.1,0.1c0.1,0.3,0.2,0.6,0.3,0.9c0.1,0.5,0.3,0.9,0.4,1.4c0,0.1,0.1,0.3,0.1,0.5c0.1,0.3,0.1,0.6,0.2,1
			c0,0.1,0.1,0.3,0.1,0.5c0,0.1,0.1,0.3,0.1,0.5c0,0.2,0.1,0.3,0.1,0.5c0,0.2,0.1,0.3,0.1,0.5c0,0.1,0.1,0.3,0.1,0.5
			c0.1,0.3,0.1,0.7,0.2,1c0,0.3,0.1,0.7,0.2,1c0.2,1.4,0.6,2.8,0.6,4.2c0,0.2,0,0.4,0.1,0.6c0,0.3,0,0.7,0.1,1c0,0.2,0,0.4,0,0.6
			c0,0.2,0,0.3,0,0.5c0,0.2,0,0.4,0,0.6c0,0.4,0.1,0.7,0.1,1.1c0,0.3,0,0.7,0,1c0,0.7,0.1,1.4,0,2.1c0,0.4,0,0.7,0,1.1
			c0,0.3,0,0.7-0.1,1c0,0.2,0,0.3,0,0.5c0,0.2,0,0.3,0,0.5c0,0.3,0,0.7-0.1,1c0,0.9-0.2,2.1-0.4,3c0,0.3-0.1,0.7-0.2,1
			c0,0.1-0.1,0.3-0.1,0.5c-0.1,0.3-0.1,0.6-0.2,1c-0.1,0.1-0.1,0.3-0.1,0.4c-0.1,0.6-0.4,1.2-0.6,1.8c-0.1,0.3-0.2,0.6-0.3,0.9
			c-0.1,0.1-0.1,0.3-0.2,0.4c-0.1,0.1-0.1,0.3-0.2,0.4c-0.1,0.1-0.1,0.3-0.2,0.4c-0.1,0.1-0.1,0.3-0.2,0.4c-0.1,0.1-0.1,0.3-0.2,0.4
			c-0.1,0.3-0.2,0.5-0.4,0.8c-0.1,0.1-0.2,0.3-0.3,0.4c-0.1,0.3-0.3,0.5-0.5,0.7c-0.2,0.2-0.4,0.5-0.5,0.7c-0.2,0.2-0.4,0.5-0.6,0.7
			c-0.1,0.1-0.2,0.2-0.3,0.3c-0.3,0.3-0.6,0.6-0.9,0.9c-0.1,0.1-0.2,0.2-0.3,0.3c-0.1,0.1-0.2,0.2-0.3,0.3c-0.1,0.1-0.2,0.2-0.3,0.3
			c-0.2,0.2-0.5,0.4-0.7,0.5c-0.4,0.2-0.7,0.4-1.1,0.7c-0.1,0.1-0.3,0.1-0.4,0.2c-0.1,0.1-0.3,0.1-0.4,0.2c-0.1,0-0.3,0.1-0.4,0.2
			c-0.3,0.1-0.6,0.2-0.9,0.3c-0.1,0.1-0.3,0.1-0.4,0.1c-0.3,0.1-0.6,0.2-0.9,0.3c-0.1,0-0.3,0.1-0.4,0.1c-0.8,0.2-1.7,0.4-2.5,0.4
			c-0.4,0-0.7,0-1.1,0c-0.4,0-0.7,0-1.1,0c-0.2,0-0.3,0-0.5,0c-0.2,0-0.4,0-0.6,0c-0.2,0-0.3,0-0.5-0.1c-0.5,0-1-0.1-1.5-0.2
			c-0.1,0-0.3-0.1-0.5-0.1c-0.1,0-0.3-0.1-0.5-0.1c-0.7-0.1-1.6-0.4-2.2-0.7c-0.1,0-0.3-0.1-0.4-0.2c-0.1,0-0.3-0.1-0.4-0.2
			c-0.1-0.1-0.3-0.1-0.4-0.2c-0.3-0.1-0.5-0.3-0.7-0.4c-0.3-0.1-0.5-0.3-0.7-0.5c-0.2-0.2-0.5-0.4-0.7-0.5c-0.2-0.2-0.4-0.4-0.6-0.6
			c-0.2-0.2-0.4-0.4-0.6-0.6c-0.2-0.2-0.4-0.4-0.6-0.6c-0.2-0.2-0.4-0.5-0.6-0.7c-0.1-0.1-0.2-0.2-0.3-0.4c-0.1-0.1-0.2-0.2-0.3-0.3
			c-0.1-0.1-0.2-0.2-0.3-0.4c-0.1-0.2-0.3-0.5-0.4-0.7c-0.1-0.3-0.3-0.5-0.4-0.8c-0.1-0.1-0.1-0.2-0.2-0.4c-0.1-0.1-0.1-0.3-0.2-0.4
			c-0.1-0.1-0.1-0.3-0.2-0.4c-0.1-0.1-0.1-0.3-0.2-0.4c-0.1-0.1-0.1-0.3-0.2-0.4c-0.1-0.3-0.2-0.6-0.3-0.8c-0.2-0.4-0.4-0.9-0.4-1.4
			c-0.1-0.3-0.2-0.6-0.3-0.9c-0.1-0.3-0.1-0.6-0.2-1c-0.1-0.3-0.1-0.6-0.2-1c0-0.2,0-0.3-0.1-0.5c-0.3-0.9-0.4-2.1-0.4-3
			c0-0.2,0-0.3-0.1-0.5c0-0.3,0-0.7-0.1-1c0-0.3,0-0.7-0.1-1c0-0.2,0-0.4,0-0.6c0-0.3,0-0.7,0-1c-0.1-0.7-0.1-1.5,0-2.1
			c0-0.4,0-0.7,0-1.1c0-0.4,0.1-0.7,0.1-1.1c0-0.2,0-0.4,0-0.6c0-0.2,0-0.3,0-0.5c0-0.2,0-0.4,0-0.6c0-0.2,0-0.3,0-0.5
			c0-0.4,0-0.7,0.1-1.1c0-1.5,0.3-3.3,0.7-4.7c0-0.3,0.1-0.7,0.2-1c0-0.2,0-0.3,0.1-0.5c0.1-0.3,0.1-0.7,0.2-1
			c0-0.1,0.1-0.3,0.1-0.5c0-0.2,0.1-0.3,0.1-0.5c0.1-0.3,0.1-0.6,0.2-1c0-0.2,0.1-0.3,0.1-0.5c0-0.2,0.1-0.3,0.1-0.5
			c0.1-0.3,0.2-0.6,0.3-1c0.1-0.3,0.1-0.6,0.3-0.9C118.2,24.6,118.2,24.6,118.3,24.5C118.3,24.5,118.2,24.6,118.3,24.5z"/>
		<path fill="#020202" d="M155,24.9c0.1-0.1,0.2-0.1,0.3-0.2c0.1,0,0.2-0.1,0.4-0.2c0.3-0.1,0.6-0.2,0.9-0.3c0.2,0,0.3-0.1,0.5-0.1
			c0.2,0,0.4-0.1,0.6-0.1c0.6-0.1,1.2-0.1,1.8-0.2c0.2,0,0.4,0,0.6,0c0.7,0,1.5-0.1,2.2,0c0.3,0,0.6,0,0.9,0.1c0.1,0,0.2,0,0.4,0.1
			c0.1,0,0.2,0,0.3,0.1c0.1,0,0.1,0.1,0.2,0.1c0,0,0.1,0.1,0.1,0.1c0,0,0.1,0.1,0.1,0.1c0,0,0.1,0.1,0.1,0.2c0,0.1,0.1,0.1,0.1,0.2
			c0,0.1,0.1,0.2,0.1,0.3c0,0.2,0.1,0.3,0.1,0.5c0,0.2,0.1,0.4,0.1,0.7c0,0.3,0.1,0.5,0.1,0.8c0,0.1,0,0.3,0,0.4c0,0.1,0,0.3,0,0.4
			c0,0.3,0,0.6,0.1,0.9c0,0.3,0,0.7,0,1c0.2,1.3,0,2.6,0,3.9c-0.1,1,0,2.1,0,3.1c0,0.2,0,0.4,0,0.6c0,0.2,0,0.4,0,0.6
			c0,0.4,0,0.8,0,1.3c-0.1,0.4-0.1,0.6,0,0.6c0.1,0,0.3-0.1,0.5-0.4c0.3-0.3,0.6-0.6,0.9-1c0.3-0.3,0.6-0.7,0.9-1
			c0.6-0.6,1.1-1.4,1.5-2.1c0.5-0.7,0.8-1.5,1.2-2.2c0.1-0.2,0.2-0.4,0.3-0.6c0.3-0.7,0.6-1.4,0.9-2.1c0-0.2,0.1-0.3,0.2-0.5
			c0-0.1,0.1-0.3,0.1-0.5c0.3-0.6,0.4-1.2,0.6-1.8c0.1-0.3,0.1-0.6,0.2-0.8c0.1-0.2,0.1-0.5,0.2-0.7c0-0.2,0.1-0.4,0.2-0.7
			c0-0.1,0-0.2,0.1-0.3c0-0.1,0-0.2,0.1-0.3c0-0.1,0-0.1,0.1-0.2c0,0,0-0.1,0.1-0.2c0,0,0-0.1,0-0.1c0,0,0-0.1,0.1-0.1
			c0,0,0,0,0-0.1c0,0,0,0,0.1,0c0.1,0,0.2,0,0.3,0c0.4-0.1,0.8,0,1.2,0c0.5,0.1,1.1,0.1,1.6,0.3c0.4,0.1,0.8,0.2,1.2,0.2
			c0.2,0,0.4,0.1,0.6,0.2c0.4,0.1,0.8,0.2,1.2,0.3c0.2,0,0.4,0.1,0.6,0.2c0.4,0.1,0.7,0.2,1.1,0.4c0.3,0.2,0.7,0.3,1,0.4
			c0.1,0.1,0.3,0.1,0.4,0.2c0.3,0.1,0.5,0.3,0.7,0.4c0.1,0,0.2,0.1,0.3,0.2c0.1,0,0.1,0.1,0.2,0.2c0,0,0.1,0.1,0.1,0.1
			c0.1,0.1,0.1,0.4,0,0.6c0,0,0,0.1,0,0.1c0,0.1-0.1,0.3-0.1,0.4c0,0.1,0,0.1-0.1,0.2c0,0.1-0.1,0.2-0.1,0.3c0,0.1-0.1,0.2-0.1,0.3
			c0,0.1-0.1,0.2-0.1,0.3c-0.1,0.1-0.1,0.2-0.1,0.3c0,0.1-0.1,0.2-0.1,0.3c-0.1,0.2-0.2,0.5-0.3,0.7c-0.1,0.3-0.3,0.5-0.4,0.8
			c-0.1,0.1-0.1,0.3-0.2,0.4c-0.1,0.1-0.1,0.3-0.2,0.4c-0.3,0.4-0.4,0.9-0.7,1.3c-0.1,0.1-0.2,0.3-0.3,0.4c-0.1,0.1-0.2,0.3-0.3,0.4
			c-0.2,0.3-0.4,0.6-0.6,1c-0.1,0.1-0.2,0.3-0.3,0.4c-0.1,0.2-0.2,0.3-0.3,0.5c-0.1,0.1-0.2,0.3-0.3,0.5c-0.1,0.1-0.2,0.3-0.3,0.5
			c-0.1,0.1-0.2,0.3-0.4,0.4c-0.1,0.2-0.2,0.3-0.4,0.5c-0.2,0.3-0.5,0.7-0.8,1c-0.1,0.1-0.3,0.3-0.4,0.4c-0.1,0.1-0.3,0.3-0.4,0.4
			c-0.4,0.5-0.9,0.9-1.3,1.3c-0.3,0.3-0.6,0.6-1,0.8c-0.2,0.1-0.3,0.3-0.5,0.4c-0.3,0.3-0.7,0.5-1,0.8c-0.2,0.2-0.3,0.3-0.5,0.4
			c-0.3,0.1-0.5,0.2-0.6,0.4c0,0.1,0.1,0.2,0.4,0.2c0.1,0,0.3,0.1,0.4,0.3c0.4,0.3,0.9,0.6,1.3,0.9c0.1,0.1,0.3,0.2,0.4,0.3
			c0.4,0.3,0.9,0.7,1.3,1.1c0.1,0.1,0.3,0.3,0.4,0.4c0.3,0.3,0.6,0.6,0.9,0.8c0.1,0.1,0.3,0.3,0.4,0.4c0.1,0.1,0.3,0.3,0.4,0.4
			c0.1,0.1,0.3,0.3,0.4,0.4c0.3,0.3,0.5,0.6,0.8,0.9c0.3,0.3,0.5,0.6,0.8,0.9c0.1,0.1,0.2,0.3,0.4,0.4c0.2,0.3,0.5,0.6,0.7,1
			c0.4,0.4,0.7,1,1,1.4c0.1,0.1,0.2,0.3,0.3,0.5c0.1,0.1,0.2,0.3,0.3,0.4c0.1,0.1,0.2,0.3,0.3,0.4c0.2,0.3,0.4,0.6,0.6,0.9
			c0.1,0.1,0.2,0.3,0.3,0.4c0.1,0.1,0.2,0.3,0.3,0.4c0.1,0.1,0.2,0.3,0.3,0.4c0.1,0.1,0.2,0.3,0.3,0.4c0.1,0.3,0.3,0.5,0.4,0.8
			c0.1,0.1,0.1,0.2,0.2,0.4c0.1,0.1,0.1,0.2,0.2,0.3c0,0.1,0.1,0.2,0.1,0.3c0.2,0.3,0.3,0.6,0.5,0.9c0,0.1,0.1,0.2,0.1,0.3
			c0,0.1,0.1,0.2,0.1,0.3c0.1,0.1,0.1,0.3,0.1,0.4c0,0,0,0.1,0,0.1c0,0,0,0.1,0,0.2c0.1,0.1,0,0.3,0,0.4c0,0.1-0.1,0.1-0.1,0.2
			c-0.1,0.1-0.1,0.2-0.2,0.3c-0.2,0.2-0.4,0.4-0.6,0.5c-0.1,0.1-0.2,0.2-0.4,0.3c-0.1,0.1-0.3,0.2-0.4,0.3c-0.1,0.1-0.3,0.2-0.5,0.3
			c-0.1,0.1-0.3,0.2-0.5,0.3c-0.3,0.2-0.7,0.4-1.1,0.6c-0.6,0.2-1.1,0.6-1.7,0.8c-0.7,0.3-1.4,0.7-2.1,0.9c-0.3,0.1-0.6,0.2-0.9,0.3
			c-0.2,0-0.5,0.1-0.7,0.1c-0.1,0-0.4,0.1-0.5,0c-0.1,0-0.1-0.1-0.2-0.1c-0.1-0.1-0.2-0.2-0.2-0.3c-0.1-0.1-0.1-0.1-0.1-0.2
			c0-0.1-0.1-0.1-0.1-0.2c-0.1-0.1-0.1-0.1-0.1-0.2c0-0.1-0.1-0.1-0.1-0.2c0-0.1-0.1-0.2-0.1-0.3c-0.1-0.2-0.2-0.4-0.3-0.6
			c0-0.1-0.1-0.2-0.1-0.3c-0.1-0.4-0.3-0.7-0.4-1.1c-0.1-0.3-0.2-0.5-0.4-0.8c0-0.1-0.1-0.3-0.2-0.4c-0.3-0.9-0.8-1.9-1.3-2.8
			c-0.1-0.2-0.2-0.3-0.3-0.5c-0.2-0.3-0.4-0.7-0.5-1c-0.2-0.3-0.4-0.7-0.6-1c-0.2-0.3-0.4-0.7-0.7-1c-0.4-0.7-0.9-1.5-1.5-2.1
			c-0.1-0.2-0.2-0.3-0.4-0.5c-0.1-0.2-0.3-0.3-0.4-0.5c-0.4-0.5-0.9-1-1.3-1.5c-0.1-0.1-0.3-0.3-0.4-0.5c-0.2-0.2-0.3-0.3-0.5-0.4
			c-0.2-0.1-0.3-0.3-0.5-0.5c-0.2-0.2-0.3-0.4-0.5-0.4c-0.1,0-0.1,0.1,0,0.4c0,0.1,0.1,0.2,0,0.4c0,0.1,0,0.3,0,0.4
			c0,0.1,0,0.3,0,0.5c0,0.3,0.1,0.6,0.1,1c0,0.2,0,0.3,0,0.5c0,0.2,0,0.3,0,0.5c0,0.4,0.1,0.8,0.1,1.1c0,0.2,0,0.4,0,0.6
			c0,0.2,0,0.4,0.1,0.6c0,0.2,0,0.4,0,0.6c0,0.4,0,0.8,0.1,1.2c0,0.2,0,0.4,0,0.6c0,0.2,0,0.4,0.1,0.6c0,0.2,0,0.4,0,0.6
			c0,0.4,0,0.8,0.1,1.2c0,0.2,0,0.4,0,0.6c0,0.2,0,0.4,0,0.6c0,0.2,0,0.4,0,0.6c0,0.4,0,0.7,0.1,1.1c0,0.2,0,0.3,0,0.5
			c0,0.3,0,0.6,0,0.9c0.1,0.5,0.2,1.5,0,2c0,0.1,0,0.2,0,0.4c0,0,0,0.1,0,0.1c0,0,0,0,0,0c0,0-0.1,0.1-0.1,0.1
			c-0.1,0-0.1,0.1-0.2,0.1c-0.2,0.1-0.5,0.1-0.7,0.1c-0.3,0-0.6,0.1-1,0.1c-0.2,0-0.4,0-0.6,0c-0.4,0-0.8,0-1.3,0.1
			c-1.3,0-2.6,0-4,0c-0.4,0-0.7,0-1.1-0.1c-0.2,0-0.3,0-0.5,0c-0.1,0-0.3,0-0.4,0c-0.1,0-0.2,0-0.4,0c-0.1,0-0.2,0-0.3,0
			c-0.1,0-0.1,0-0.2-0.1c0,0-0.1,0-0.1-0.1h0c0-0.1,0-0.2,0-0.3c-0.1-0.1,0-0.4,0-0.5c-0.1-0.2,0-0.5-0.1-0.7c0-0.2,0-0.4,0-0.6
			c0-0.2,0-0.4,0-0.7c0-0.3-0.1-0.5,0-0.8c0-0.3,0-0.5,0-0.8c0-0.3-0.1-0.6-0.1-0.9c0-0.3,0-0.6,0-1c0-0.3,0-0.7,0-1
			c0-0.2,0-0.3,0-0.5c0-0.4,0-0.7,0-1.1c0-0.4,0-0.8-0.1-1.1c0-0.4,0-0.8,0-1.2c0-0.2,0-0.4,0-0.6c0-0.4-0.1-0.8,0-1.2
			c0-0.4,0-0.9-0.1-1.3c0-0.4,0-0.9,0-1.3c0-0.4,0-0.9,0-1.3c0-0.4,0-0.9,0-1.3c0-0.2,0-0.4,0-0.7c-0.1-0.7,0-1.4-0.1-2
			c0-0.5,0-0.9,0-1.4c0-0.5,0-0.9,0-1.4c-0.1-0.7,0-1.3-0.1-2c0-0.7,0-1.3,0-2c-0.1-0.8,0-1.7,0-2.5c-0.2-2.1-0.4-5,0-7.1
			c0-0.4,0-0.9,0-1.3c0.1-0.4,0-0.7,0.1-1.1c0-0.2,0-0.4,0-0.6c0-0.2,0-0.4,0.1-0.6c0-0.1,0-0.2,0-0.3c0-0.1,0-0.3,0.1-0.4
			c0,0,0-0.1,0-0.2c0,0,0-0.1,0-0.1c0-0.1,0-0.1,0.1-0.2c0,0,0,0,0-0.1C154.8,25,154.9,24.9,155,24.9C155,24.8,154.9,24.9,155,24.9z
			"/>
		<path fill="#020202" d="M189.5,24.5c0,0,0.1-0.1,0.2-0.1c0.2-0.1,0.5-0.2,0.7-0.2c0.5-0.1,1.1-0.2,1.6-0.2c0.2,0,0.4,0,0.7,0
			c0.2,0,0.4,0,0.7,0c0.7,0,1.4,0,2,0c0.6,0.1,1.3,0.1,1.9,0.1c0.5,0.1,0.9,0.1,1.3,0.2c0.1,0,0.2,0.1,0.3,0.1c0,0,0.1,0.1,0.1,0.1
			c0,0,0.1,0.1,0.1,0.1c0,0.1-0.1,0.3-0.1,0.4c0,0.1,0,0.3,0,0.4c0,0.3-0.1,0.6-0.1,0.9c0,0.1,0,0.3-0.1,0.4c0,0.3-0.1,0.6-0.1,1
			c-0.1,0.3-0.1,0.7-0.1,1c-0.1,0.3-0.1,0.7-0.1,1c-0.1,0.4-0.1,0.7-0.1,1.1c0,0.2,0,0.3-0.1,0.5c0,0.4-0.1,0.7-0.1,1.1
			c0,0.4,0,0.7-0.1,1.1c0,0.2,0,0.4,0,0.6c0,0.2-0.1,0.4-0.1,0.6c0,0.2,0,0.4,0,0.6c0,0.2,0,0.4,0,0.6c0,0.2,0,0.4,0,0.6
			c0,0.2,0,0.4,0,0.6c0,0.2,0,0.4,0,0.6c0,0.4,0,0.7,0,1.1c-0.1,1-0.1,2.3,0,3.3c0,0.4,0,0.7,0,1.1c0,0.2,0,0.3,0,0.5
			c0,0.3,0.1,0.7,0.1,1c0.1,0.3,0.1,0.7,0.1,1c0,0.1,0,0.3,0.1,0.4c0.1,0.4,0.1,0.9,0.3,1.4c0,0.1,0.1,0.3,0.1,0.4
			c0.1,0.3,0.1,0.6,0.2,0.8c0.1,0.4,0.2,0.8,0.5,1.1c0,0.1,0.1,0.2,0.1,0.4c0.1,0.1,0.1,0.2,0.2,0.3c0.1,0.1,0.1,0.2,0.2,0.3
			c0.1,0.2,0.2,0.4,0.4,0.6c0.1,0.2,0.3,0.4,0.5,0.5c0.1,0.2,0.3,0.3,0.5,0.4c0.1,0.1,0.2,0.1,0.3,0.2c0.2,0.1,0.4,0.3,0.6,0.3
			c0.1,0,0.2,0.1,0.3,0.1c0.3,0.2,0.7,0.2,1.1,0.3c0.1,0,0.2,0,0.4,0c0.3,0,0.5,0,0.8,0c0.5,0,1.1-0.1,1.5-0.3
			c0.1,0,0.2-0.1,0.3-0.1c0.1,0,0.2-0.1,0.3-0.2c0.1,0,0.2-0.1,0.3-0.1c0.3-0.2,0.6-0.4,0.8-0.6c0.1-0.1,0.1-0.2,0.2-0.3
			c0.1-0.1,0.2-0.2,0.3-0.3c0.1-0.1,0.1-0.2,0.2-0.3c0.1-0.1,0.1-0.2,0.2-0.3c0.1-0.1,0.1-0.2,0.2-0.3c0.1-0.2,0.2-0.4,0.4-0.7
			c0.2-0.4,0.3-0.7,0.4-1.1c0-0.1,0.1-0.3,0.1-0.4c0-0.1,0.1-0.3,0.1-0.4c0-0.1,0.1-0.3,0.1-0.4c0-0.3,0.1-0.6,0.1-0.9
			c0-0.1,0.1-0.3,0.1-0.4c0.1-0.5,0.2-1,0.2-1.4c0-0.2,0-0.3,0-0.5c0-0.2,0-0.3,0-0.5c0-0.3,0-0.7,0.1-1c0-1,0.1-2.2,0-3.2
			c0-0.2,0-0.4,0-0.6c0-0.4,0-0.7-0.1-1.1c0-0.2,0-0.4,0-0.6c0-0.2,0-0.4,0-0.6c0-0.2,0-0.4,0-0.6c0-0.4-0.1-0.7-0.1-1.1
			c0-0.2,0-0.4-0.1-0.6c0-0.6-0.1-1.1-0.1-1.7c0-0.4-0.1-0.7-0.1-1.1c0-0.5-0.1-1.1-0.2-1.6c0-0.5-0.1-1-0.2-1.5
			c0-0.5-0.1-1-0.2-1.5c0-0.3-0.1-0.6-0.1-0.9c0-0.3,0-0.6-0.1-0.9c0-0.1,0-0.3-0.1-0.4c0,0,0-0.1,0.1-0.1c0,0,0.1-0.1,0.1-0.1
			c0.1,0,0.2,0,0.3-0.1c0.1,0,0.2,0,0.4-0.1c0.1,0,0.3-0.1,0.4-0.1c0.4-0.1,0.7-0.1,1.1-0.1c0.2,0,0.4,0,0.6,0c0.2,0,0.4,0,0.6,0
			c0.9-0.1,1.8-0.1,2.7,0c0.2,0,0.4,0,0.6,0c0.2,0,0.4,0,0.6,0c0.5,0,0.9,0.1,1.4,0.2c0.1,0,0.2,0,0.3,0.1c0.1,0,0.1,0.1,0.2,0.1
			c0,0,0,0,0.1,0.1c0.1,0.3,0.2,0.6,0.3,0.9c0.1,0.5,0.3,0.9,0.4,1.4c0,0.1,0.1,0.3,0.1,0.5c0.1,0.3,0.1,0.6,0.2,1
			c0,0.1,0.1,0.3,0.1,0.5c0,0.1,0.1,0.3,0.1,0.5c0,0.2,0.1,0.3,0.1,0.5c0,0.2,0.1,0.3,0.1,0.5c0,0.1,0.1,0.3,0.1,0.5
			c0.1,0.3,0.1,0.7,0.2,1c0,0.3,0.1,0.7,0.2,1c0.2,1.4,0.6,2.8,0.6,4.2c0,0.2,0,0.4,0.1,0.6c0,0.3,0,0.7,0.1,1c0,0.2,0,0.4,0,0.6
			c0,0.2,0,0.3,0,0.5c0,0.2,0,0.4,0,0.6c0,0.4,0.1,0.7,0.1,1.1c0,0.3,0,0.7,0,1c0,0.7,0.1,1.4,0,2.1c0,0.4,0,0.7,0,1.1
			c0,0.3,0,0.7-0.1,1c0,0.2,0,0.3,0,0.5c0,0.2,0,0.3,0,0.5c0,0.3,0,0.7-0.1,1c0,0.9-0.2,2.1-0.4,3c0,0.3-0.1,0.7-0.2,1
			c0,0.1-0.1,0.3-0.1,0.5c-0.1,0.3-0.1,0.6-0.2,1c-0.1,0.1-0.1,0.3-0.1,0.4c-0.1,0.6-0.4,1.2-0.6,1.8c-0.1,0.3-0.2,0.6-0.3,0.9
			c-0.1,0.1-0.1,0.3-0.2,0.4c-0.1,0.1-0.1,0.3-0.2,0.4c-0.1,0.1-0.1,0.3-0.2,0.4c-0.1,0.1-0.1,0.3-0.2,0.4c-0.1,0.1-0.1,0.3-0.2,0.4
			c-0.1,0.3-0.2,0.5-0.4,0.8c-0.1,0.1-0.2,0.3-0.3,0.4c-0.1,0.3-0.3,0.5-0.5,0.7c-0.2,0.2-0.4,0.5-0.5,0.7c-0.2,0.2-0.4,0.5-0.6,0.7
			c-0.1,0.1-0.2,0.2-0.3,0.3c-0.3,0.3-0.6,0.6-0.9,0.9c-0.1,0.1-0.2,0.2-0.3,0.3c-0.1,0.1-0.2,0.2-0.3,0.3c-0.1,0.1-0.2,0.2-0.3,0.3
			c-0.2,0.2-0.5,0.4-0.7,0.5c-0.4,0.2-0.7,0.4-1.1,0.7c-0.1,0.1-0.3,0.1-0.4,0.2c-0.1,0.1-0.3,0.1-0.4,0.2c-0.1,0-0.3,0.1-0.4,0.2
			c-0.3,0.1-0.6,0.2-0.9,0.3c-0.1,0.1-0.3,0.1-0.4,0.1c-0.3,0.1-0.6,0.2-0.9,0.3c-0.1,0-0.3,0.1-0.4,0.1c-0.8,0.2-1.7,0.4-2.5,0.4
			c-0.4,0-0.7,0-1.1,0c-0.4,0-0.7,0-1.1,0c-0.2,0-0.3,0-0.5,0c-0.2,0-0.4,0-0.6,0c-0.2,0-0.3,0-0.5-0.1c-0.5,0-1-0.1-1.5-0.2
			c-0.1,0-0.3-0.1-0.5-0.1c-0.1,0-0.3-0.1-0.5-0.1c-0.7-0.1-1.6-0.4-2.2-0.7c-0.1,0-0.3-0.1-0.4-0.2c-0.1,0-0.3-0.1-0.4-0.2
			c-0.1-0.1-0.3-0.1-0.4-0.2c-0.3-0.1-0.5-0.3-0.7-0.4c-0.3-0.1-0.5-0.3-0.7-0.5c-0.2-0.2-0.5-0.4-0.7-0.5c-0.2-0.2-0.4-0.4-0.6-0.6
			c-0.2-0.2-0.4-0.4-0.6-0.6c-0.2-0.2-0.4-0.4-0.6-0.6c-0.2-0.2-0.4-0.5-0.6-0.7c-0.1-0.1-0.2-0.2-0.3-0.4c-0.1-0.1-0.2-0.2-0.3-0.3
			c-0.1-0.1-0.2-0.2-0.3-0.4c-0.1-0.2-0.3-0.5-0.4-0.7c-0.1-0.3-0.3-0.5-0.4-0.8c-0.1-0.1-0.1-0.2-0.2-0.4c-0.1-0.1-0.1-0.3-0.2-0.4
			c-0.1-0.1-0.1-0.3-0.2-0.4c-0.1-0.1-0.1-0.3-0.2-0.4c-0.1-0.1-0.1-0.3-0.2-0.4c-0.1-0.3-0.2-0.6-0.3-0.8c-0.2-0.4-0.4-0.9-0.4-1.4
			c-0.1-0.3-0.2-0.6-0.3-0.9c-0.1-0.3-0.1-0.6-0.2-1c-0.1-0.3-0.1-0.6-0.2-1c0-0.2,0-0.3-0.1-0.5c-0.3-0.9-0.4-2.1-0.4-3
			c0-0.2,0-0.3-0.1-0.5c0-0.3,0-0.7-0.1-1c0-0.3,0-0.7-0.1-1c0-0.2,0-0.4,0-0.6c0-0.3,0-0.7,0-1c-0.1-0.7-0.1-1.5,0-2.1
			c0-0.4,0-0.7,0-1.1c0-0.4,0.1-0.7,0.1-1.1c0-0.2,0-0.4,0-0.6c0-0.2,0-0.3,0-0.5c0-0.2,0-0.4,0-0.6c0-0.2,0-0.3,0-0.5
			c0-0.4,0-0.7,0.1-1.1c0-1.5,0.3-3.3,0.7-4.7c0-0.3,0.1-0.7,0.2-1c0-0.2,0-0.3,0.1-0.5c0.1-0.3,0.1-0.7,0.2-1
			c0-0.1,0.1-0.3,0.1-0.5c0-0.2,0.1-0.3,0.1-0.5c0.1-0.3,0.1-0.6,0.2-1c0-0.2,0.1-0.3,0.1-0.5c0-0.2,0.1-0.3,0.1-0.5
			c0.1-0.3,0.2-0.6,0.3-1c0.1-0.3,0.1-0.6,0.3-0.9C189.4,24.6,189.5,24.6,189.5,24.5C189.6,24.5,189.5,24.6,189.5,24.5z"/>
		<path fill="#020202" d="M248.9,48.4c0,0.1,0.2,0.3,0.5,0.4c0.6,0.3,1.3,1.2,1.8,1.8c0.3,0.3,0.5,0.6,0.8,1c0.2,0.3,0.5,0.6,0.7,1
			c0.4,0.5,0.7,1,1,1.5c0.5,0.6,0.8,1.4,1.2,2.1c0.1,0.2,0.2,0.3,0.3,0.5c0.2,0.3,0.4,0.7,0.5,1c0.2,0.5,0.5,1,0.7,1.5
			c0.1,0.3,0.2,0.6,0.4,1c0.3,0.7,0.5,1.5,0.8,2.2c0,0.1,0.1,0.3,0.1,0.4c0,0.1,0.1,0.3,0.1,0.4c0.1,0.5,0.2,0.9,0.3,1.4
			c0,0.1,0,0.2,0,0.3c0,0.2,0,0.3,0.1,0.5c0,0.2,0.1,0.5,0,0.7c0,0,0,0.1,0,0.1c0,0,0,0,0,0.1c0,0,0,0,0,0.1
			c-0.2,0.1-0.4,0.2-0.6,0.2c-0.2,0.1-0.4,0.1-0.6,0.1c-0.3,0.1-0.6,0.1-0.9,0.1c-0.3,0-0.6,0.1-1,0.1c-0.4,0-0.7,0.1-1.1,0.1
			c-0.2,0-0.4,0-0.6,0.1c-0.2,0-0.4,0-0.6,0c-0.2,0-0.4,0-0.6,0c-0.4,0-0.8,0-1.2,0c-0.4,0-0.8,0-1.2,0c-0.4,0-0.8,0-1.2,0
			c-0.5-0.1-1.1-0.1-1.6-0.1c-0.5-0.1-1.2-0.1-1.7-0.3c-0.1,0-0.2-0.1-0.3-0.1c-0.1,0-0.2-0.1-0.3-0.1c-0.1-0.1-0.2-0.3-0.3-0.5
			c-0.1-0.1-0.1-0.3-0.1-0.4c-0.2-0.9-0.3-2-0.6-2.9c0-0.1,0-0.3-0.1-0.4c-0.1-0.1-0.1-0.3-0.1-0.5c0-0.1-0.1-0.3-0.1-0.5
			c-0.1-0.3-0.1-0.7-0.3-1c0-0.2-0.1-0.4-0.1-0.6c-0.1-0.2-0.1-0.3-0.2-0.5c-0.1-0.2-0.1-0.4-0.2-0.6c-0.2-0.6-0.4-1.1-0.7-1.7
			c-0.2-0.6-0.5-1.1-0.9-1.7c-0.3-0.4-0.5-0.7-0.7-1.1c-0.3-0.4-0.5-0.7-0.8-1.1c-0.1-0.2-0.3-0.4-0.4-0.6v0c0,0,0,0.1,0,0.1
			c0,0.1,0.1,0.3,0.1,0.4c0,0.1,0,0.2,0,0.3c0,0.1,0,0.3,0,0.4c0,0.1,0,0.3,0,0.4c0,0.2,0,0.3,0.1,0.5c0,0.2,0,0.3,0,0.5
			c0,0.2,0,0.4,0,0.6c0,0.4,0.1,0.8,0.1,1.2c0,0.2,0,0.4,0,0.6c0,0.2,0,0.4,0,0.7c0,0.2,0,0.4,0,0.7c0,0.4,0,0.9,0.1,1.3
			c0,1,0,2,0,3.1c0,0.2,0,0.4,0,0.6c0,0.2,0,0.3,0,0.5c-0.1,0.4-0.1,0.8-0.2,1.2c0,0.1,0,0.2-0.1,0.3c0,0.1-0.1,0.1-0.1,0.2
			c-0.1,0-0.1,0.1-0.1,0.1c-0.1,0-0.1,0.1-0.2,0.1c-0.1,0-0.2,0.1-0.3,0.1c-0.1,0-0.2,0.1-0.3,0.1c-0.7,0.3-1.6,0.4-2.3,0.4
			c-0.2,0-0.4,0-0.6,0.1c-0.2,0-0.4,0-0.6,0c-0.2,0-0.4,0-0.6,0c-1.2,0.1-2.5,0.1-3.7,0c-0.2,0-0.4,0-0.6,0c-0.2,0-0.4,0-0.6,0
			c-0.2,0-0.3,0-0.5,0c-0.3,0-0.6,0-0.9-0.1c-0.4,0-0.7-0.1-1-0.2c-0.2,0-0.3-0.1-0.4-0.2l0,0c0,0,0,0,0-0.1c0,0,0,0,0-0.1
			c0,0,0-0.1,0-0.1c0,0,0-0.1,0-0.1c0,0,0-0.1,0-0.2c0,0,0-0.1,0-0.2c0-0.1,0-0.1,0-0.2c0-0.2,0-0.3-0.1-0.5c0-0.1,0-0.2,0-0.3
			c0-0.1,0-0.2,0-0.3c0-0.2-0.1-0.5,0-0.7c0-0.3-0.1-0.5-0.1-0.8c0-0.3,0-0.6,0-0.8c0-0.3,0-0.6,0-0.9c-0.1-0.5,0-1-0.1-1.5
			c0-0.7,0.1-1.5,0-2.2c0-3.6-0.4-7.3,0-10.9c0-0.9-0.1-1.8,0-2.7c0-0.7,0-1.4,0-2c0.1-0.7,0-1.3,0.1-2c0-0.4,0-0.9,0-1.3
			c0-0.4,0-0.8,0-1.3c0-0.4,0.1-0.8,0-1.3c0-0.4,0-0.8,0-1.2c0-0.4,0-0.8,0-1.1c0-0.4,0-0.7,0.1-1.1c0-0.2,0-0.3,0-0.5
			c0-0.3,0-0.7,0-1c0-0.3,0-0.6,0.1-0.9c0-0.2,0-0.3,0-0.5c0-0.3,0.1-0.6,0.1-0.8c0-0.1,0-0.3,0-0.4c0-0.1,0-0.2,0-0.4
			c0-0.2,0-0.5,0.1-0.7c0-0.1,0-0.2,0-0.3c0-0.2,0.1-0.4,0.1-0.6c0-0.1,0-0.2,0-0.3c0-0.1,0-0.1,0-0.2c0-0.1,0-0.1,0-0.2
			c0-0.1,0-0.2,0.1-0.3c0,0,0-0.1,0-0.1c0,0,0,0,0-0.1l0-0.1c0,0,0,0,0-0.1c0,0,0.1,0,0.1-0.1c0,0,0.1-0.1,0.1-0.1
			c0.4-0.2,0.9-0.5,1.3-0.5c0.2-0.1,0.4-0.1,0.6-0.1c0.1,0,0.2,0,0.3,0c0.1,0,0.2,0,0.4,0c0.1,0,0.3,0,0.4,0c0.1,0,0.3,0,0.4,0
			c0.3,0,0.7,0,1,0c0.6-0.1,1.3,0,1.9-0.1c1.1,0,2.1,0,3.2,0c1,0,2,0,3.1,0c0.4,0,0.8,0,1.3,0c0.4,0,0.8,0,1.3,0.1
			c0.4,0,0.8,0,1.2,0.1c0.4,0,0.8,0.1,1.2,0.2c0.4,0.1,0.7,0.1,1.1,0.2c0.3,0.1,0.7,0.2,1,0.3c0.3,0.1,0.7,0.2,1,0.4
			c0.3,0.1,0.6,0.2,1,0.4c0.3,0.1,0.6,0.3,0.9,0.5c0.1,0.1,0.3,0.1,0.4,0.2c0.1,0.1,0.3,0.2,0.4,0.3c0.6,0.5,1.3,0.9,1.9,1.5
			c0.1,0.1,0.2,0.2,0.3,0.3c0.1,0.1,0.2,0.2,0.3,0.3c0.9,1.1,1.9,2.3,2.3,3.7c0.4,0.7,0.6,1.7,0.7,2.5c0.2,0.7,0.2,1.5,0.3,2.3
			c0,0.2,0,0.4,0,0.6c0,1,0,2.1-0.3,3.1c-0.1,0.3-0.2,0.7-0.3,1c0,0.1-0.1,0.3-0.1,0.4c-0.1,0.1-0.1,0.3-0.2,0.4
			c0,0.1-0.1,0.3-0.2,0.4c-0.1,0.1-0.2,0.3-0.3,0.4c-0.1,0.1-0.2,0.2-0.3,0.4c-0.2,0.4-0.5,0.8-0.9,1.1c-0.1,0.1-0.2,0.2-0.3,0.3
			c-0.4,0.3-0.7,0.6-1.1,0.9c-0.1,0.1-0.2,0.2-0.4,0.3c-0.1,0.1-0.3,0.2-0.4,0.3c-0.1,0.1-0.3,0.2-0.4,0.3c-0.3,0.1-0.6,0.3-0.9,0.4
			c-0.1,0-0.3,0.1-0.4,0.2c-0.1,0.1-0.3,0.2-0.4,0.2C249.1,48.2,248.9,48.3,248.9,48.4C249,48.5,248.9,48.3,248.9,48.4z M244.2,38
			c0-0.3,0-0.5,0-0.8c-0.1-0.2-0.1-0.5-0.2-0.7c0-0.2-0.1-0.4-0.2-0.7c-0.1-0.2-0.2-0.4-0.3-0.6c-0.1-0.2-0.2-0.3-0.4-0.5
			c-0.1-0.1-0.3-0.3-0.4-0.4c-0.1-0.1-0.3-0.2-0.5-0.4c-0.1-0.1-0.3-0.2-0.5-0.3c-0.2-0.1-0.3-0.2-0.5-0.3c-0.2-0.1-0.3-0.1-0.5-0.2
			c-0.3-0.1-0.7-0.2-1-0.3c-0.2,0-0.3-0.1-0.5-0.1c-0.1,0-0.3,0-0.4,0c-0.1,0-0.2,0-0.4,0c-0.1,0-0.2,0-0.3,0c-0.1,0-0.2,0-0.3,0
			c-0.1,0-0.1,0-0.1,0c0,0-0.1,0.1,0,0.2c0,0.1,0,0.2,0,0.3c0,0.1,0,0.2,0,0.3c0,0.2,0,0.4,0,0.7c0,0.3,0.1,0.5,0.1,0.8
			c0,0.3,0.1,0.6,0.1,0.8c0,0.2,0,0.3,0.1,0.5c0,0.3,0,0.7,0.1,1c0,0.2,0,0.3,0.1,0.5c0,0.4,0,0.8,0.1,1.1c0,0.2,0,0.4,0.1,0.6
			c0,0.4,0.1,0.8,0.1,1.2c0,0.2,0,0.4,0,0.7c0,0.2,0.1,0.4,0,0.7c-0.1,0.2-0.1,0.5,0,0.7c0,0,0.1,0.1,0.2,0c0.1,0,0.2,0,0.3,0
			c0.2,0,0.5-0.1,0.7-0.1c0.1,0,0.3-0.1,0.4-0.1c0.3-0.1,0.6-0.2,0.9-0.3c0.3-0.1,0.7-0.3,1-0.5c0.3-0.2,0.6-0.4,0.9-0.6
			c0.5-0.4,0.8-0.9,1.1-1.4c0.1-0.2,0.1-0.4,0.2-0.6C244.2,38.9,244.3,38.4,244.2,38z"/>
		<path fill="#020202" d="M262.2,25C262.3,25,262.3,24.9,262.2,25c0.1-0.1,0.2-0.1,0.2-0.1c0.1,0,0.1,0,0.2-0.1c0.1,0,0.2,0,0.3,0
			c0.1,0,0.2,0,0.3-0.1c0.2,0,0.5-0.1,0.7-0.1c0.3,0,0.6-0.1,0.9-0.1c0.1,0,0.3,0,0.5-0.1c0.3,0,0.7-0.1,1-0.1c0.2,0,0.4,0,0.6,0
			c0.2,0,0.4,0,0.6-0.1c0.2,0,0.4,0,0.6,0c0.2,0,0.4,0,0.6,0c0.2,0,0.4,0,0.6,0c0.2,0,0.4,0,0.6,0c0.2,0,0.4,0,0.7,0
			c0.4,0,0.9,0,1.3-0.1c0.4,0,0.9,0,1.3,0c0.7,0,1.3,0,2,0c0.6,0,1.3,0,1.9,0c0.6,0,1.2,0,1.7,0c0.2,0,0.4,0,0.6,0
			c0.3,0,0.6,0,1,0.1c0.1,0,0.3,0,0.4,0c0.3,0,0.5,0,0.8,0.1c0.1,0,0.2,0,0.3,0.1c0.1,0,0.2,0,0.3,0c0.2,0.1,0.4,0.1,0.6,0.2
			c0,0,0,0,0.1,0.1c0,0.1,0.1,0.1,0.1,0.2c0,0.1,0.1,0.2,0.1,0.3c0.3,0.7,0.3,1.7,0.4,2.5c0,0.2,0,0.4,0,0.6c0,0.2,0,0.4,0,0.6
			c0,0.2,0,0.4,0,0.6c0,0.8,0.1,1.6,0,2.3c0,0.2,0,0.3,0,0.5c0,0.1,0,0.3-0.1,0.4c0,0.2,0,0.5-0.1,0.7c0,0.1-0.1,0.1-0.1,0.2
			c0,0-0.1,0.1-0.1,0.1c-0.1,0-0.1,0.1-0.2,0.1c-0.1,0-0.2,0-0.4,0c-0.6,0.1-1.2,0-1.8,0c-0.2,0-0.4,0-0.7,0c-0.2,0-0.4,0-0.7,0
			c-0.2,0-0.4,0-0.6-0.1c-0.4,0-0.7,0-1.1-0.1c-0.2,0-0.4,0-0.7-0.1c0,0,0,0-0.1,0v0c0,0.3,0,0.7,0,1c-0.2,1.2,0,2.6,0,3.8
			c0.2,1.2-0.1,2.5,0.1,3.8c0,0.6,0,1.3,0,1.9c0,0.4,0,0.8,0,1.3c0,0.2,0,0.5,0,0.8c0,0.2,0,0.5,0,0.7c0,0.2,0,0.5,0,0.7
			c0,0.2,0,0.5,0,0.7c0,0.5,0,0.9,0.1,1.4c0,0.4,0,0.9,0.1,1.3c0,0.4,0,0.8,0.1,1.2c0,0.3,0,0.7,0.1,1c0,0.3,0,0.6,0.1,1
			c0,0.3,0,0.5,0.1,0.8c0,0.1,0,0.2,0.1,0.3c0,0.1,0,0.2,0,0.3c0,0.1,0,0.2,0,0.3c0,0,0,0.1,0,0.2c0,0.1,0,0.2,0.1,0.3
			c0,0,0,0,0,0.1v0c0,0,0,0,0.1,0c0.1,0,0.2,0,0.3,0c0.9-0.2,1.9-0.3,2.8-0.4c0.2,0,0.4,0,0.7,0c0.4,0,0.8,0,1.2,0
			c0.3,0,0.6,0.1,0.9,0.2c0.1,0,0.2,0.1,0.3,0.1c0,0,0,0.1,0.1,0.2c0,0.1,0.1,0.1,0.1,0.2c0.1,0.5,0.3,1.1,0.3,1.7
			c0,0.2,0,0.3,0.1,0.5c0,0.2,0,0.4,0,0.6c0,0.2,0,0.4,0,0.6c0,0.2,0,0.4,0,0.6c0,1,0.1,2.1,0,3.2c0,0.2,0,0.4,0,0.6
			c0,0.2,0,0.4,0,0.6c0,0.3,0,0.6-0.1,1c0,0.2-0.1,0.5-0.1,0.7c0,0.1-0.1,0.1-0.1,0.2c0,0.1-0.1,0.2-0.1,0.2c-0.1,0-0.2,0-0.3,0.1
			c-0.1,0-0.1,0-0.2,0c-0.1,0-0.2,0-0.3,0.1c-0.1,0-0.2,0-0.3,0c-0.1,0-0.2,0-0.3,0c-0.1,0-0.2,0-0.4,0c-0.1,0-0.3,0-0.4,0
			c-0.1,0-0.3,0-0.4,0c-0.3,0-0.6,0-1,0.1c-0.2,0-0.3,0-0.5,0c-0.4,0-0.7,0-1.1,0c-0.4,0-0.8,0-1.2,0c-1.1,0.1-2.2,0-3.2,0.1
			c-1.1,0-2.3,0.1-3.4,0c-0.9,0-1.8,0.1-2.6,0c-0.4,0-0.8,0-1.3,0c-0.4,0-0.8,0-1.2,0c-0.4,0-0.7,0-1.1-0.1c-0.2,0-0.3,0-0.5,0
			c-0.3,0-0.6,0-1-0.1c-0.1,0-0.3,0-0.4,0c-0.1,0-0.2,0-0.4,0c-0.1,0-0.2,0-0.4,0c-0.1,0-0.2,0-0.3,0c-0.1,0-0.2,0-0.3,0
			c-0.1,0-0.2,0-0.3,0c-0.1,0-0.1,0-0.2,0c-0.1,0-0.1,0-0.1,0c0,0-0.1,0-0.1,0c-0.1-0.1-0.1-0.1-0.1-0.2c-0.1-0.1-0.1-0.1-0.1-0.2
			c0-0.1,0-0.2-0.1-0.3c-0.1-0.3-0.1-0.6-0.1-0.9c0-0.4-0.1-0.7-0.1-1.1c0-0.4-0.1-0.8,0-1.3c-0.1-0.6-0.1-1.3,0-2
			c0-0.2,0-0.4,0-0.6c0-0.2,0-0.4,0-0.6c0-0.2,0-0.4,0.1-0.6c0-0.6,0.1-1.4,0.3-1.9c0-0.1,0.1-0.2,0.1-0.3c0-0.1,0.1-0.1,0.1-0.2
			c0-0.1,0.1-0.1,0.1-0.1c0.1,0,0.2-0.1,0.3-0.1c0.1,0,0.3-0.1,0.4-0.1c0.2,0,0.3,0,0.5,0c0.2,0,0.4,0,0.6,0
			c0.8,0.1,1.7,0.1,2.5,0.3c0.3,0,0.6,0.1,0.9,0.1c0.1,0,0.2,0,0.3,0.1c0,0,0,0,0.1,0v0c0,0,0,0,0-0.1c0-0.1,0.1-0.2,0-0.3
			c0-0.2,0.1-0.3,0.1-0.5c0-0.1,0-0.2,0-0.3c0-0.1,0-0.2,0-0.3c0-0.1,0-0.3,0-0.4c0-0.1,0-0.3,0-0.4c0-0.3,0.1-0.6,0.1-0.9
			c0-0.2,0-0.4,0.1-0.6c0-0.4,0.1-0.7,0.1-1.1c0-0.2,0-0.4,0.1-0.6c0-0.2,0-0.4,0-0.6c0-0.4,0-0.9,0.1-1.3c0-0.2,0-0.5,0-0.7
			c0-0.2,0-0.5,0.1-0.7c0-0.2,0-0.5,0-0.7c0-0.2,0-0.5,0-0.8c0-0.2,0-0.5,0-0.7c0-0.3,0-0.5,0-0.8c0-0.6,0-1.1,0.1-1.7
			c0-0.5,0-1.1,0-1.6c0-0.7,0-1.4,0-2.1c0-1.5,0.4-3.7,0-5.2c0-0.1,0-0.2,0-0.3v0c0,0-0.1,0-0.1,0c-0.1,0-0.1,0-0.2,0.1
			c-0.8,0-1.6,0.3-2.4,0.3c-0.6,0.1-1.2,0-1.8,0c-0.2,0-0.3,0-0.5-0.1c-0.4-0.1-0.9-0.2-1-0.6c-0.2-0.2-0.2-0.7-0.3-0.9
			c0-0.1,0-0.3,0-0.4c0-0.2,0-0.3,0-0.5c0-0.6,0-1.2,0-1.7c0-0.2,0-0.4,0-0.6c0-0.2,0-0.4,0-0.6c0.1-0.8,0.1-1.6,0.3-2.4
			c0-0.2,0-0.3,0.1-0.5c0-0.1,0.1-0.3,0.1-0.4c0-0.1,0.1-0.2,0.1-0.3c0-0.1,0.1-0.2,0.1-0.3C262.1,25.1,262.2,25,262.2,25
			C262.3,25,262.2,25,262.2,25z"/>
	</g>
</g>
<path d="M132.8,21.5c-2.2,0.9-6.4-2.6-5.6-3.7c0,0,7.3-8.1,9.4-9.1c2.1-1,8.1,3.4,7.2,4.7C142.8,14.8,132.8,21.5,132.8,21.5z"/>
</svg>
