<?xml version="1.0" encoding="utf-8"?>
<!-- Generator: Adobe Illustrator 18.0.0, SVG Export Plug-In . SVG Version: 6.00 Build 0)  -->
<!DOCTYPE svg PUBLIC "-//W3C//DTD SVG 1.0//EN" "http://www.w3.org/TR/2001/REC-SVG-20010904/DTD/svg10.dtd">
<svg version="1.0" id="Camada_1" xmlns="http://www.w3.org/2000/svg" xmlns:xlink="http://www.w3.org/1999/xlink" x="0px" y="0px"
	 viewBox="0 0 220.3 80.8" enable-background="new 0 0 220.3 80.8" xml:space="preserve">
<g>
	<g>
		<path fill="#1B7C09" d="M42.9,40.4c0.1,0.9,0.3,1.7,0.3,2.6c0,0.2,0,0.4,0,0.6c0,0.2,0,0.4,0,0.6c0.1,0.9,0.1,2,0,3
			c0,0.2,0,0.4,0,0.6c0,0.2,0,0.4-0.1,0.6c0,0.4-0.1,0.7-0.1,1.1c-0.1,0.5-0.1,1-0.3,1.5c0,0.2-0.1,0.3-0.1,0.5
			c0,0.1-0.1,0.3-0.1,0.5c-0.1,0.1-0.1,0.3-0.1,0.4c0,0.2-0.1,0.3-0.1,0.5c-0.1,0.3-0.2,0.6-0.3,0.9c0,0.3-0.1,0.6-0.3,0.8
			c-0.1,0.3-0.2,0.5-0.3,0.8c-0.1,0.1-0.1,0.3-0.2,0.4c-0.1,0.1-0.1,0.3-0.2,0.4c-0.1,0.1-0.1,0.2-0.2,0.4c-0.1,0.1-0.1,0.2-0.2,0.4
			c-0.1,0.2-0.3,0.5-0.4,0.7c-0.1,0.1-0.1,0.2-0.2,0.3c-0.1,0.1-0.1,0.2-0.2,0.3c-0.1,0.1-0.1,0.2-0.2,0.3c-0.1,0.2-0.3,0.4-0.5,0.6
			c-0.1,0.1-0.1,0.2-0.2,0.3c-0.1,0.1-0.2,0.2-0.3,0.3c-0.4,0.4-0.7,0.7-1.1,1c-0.1,0.1-0.2,0.2-0.3,0.3c-0.3,0.2-0.6,0.5-0.9,0.6
			c-0.2,0.2-0.4,0.3-0.6,0.4c-0.4,0.3-0.8,0.5-1.2,0.7c-0.2,0.1-0.4,0.2-0.7,0.3c-0.1,0-0.2,0.1-0.3,0.1c-0.1,0-0.2,0.1-0.3,0.1
			c-0.1,0-0.2,0.1-0.3,0.1c-0.1,0-0.2,0.1-0.3,0.1c-0.1,0-0.2,0-0.3,0.1c-0.4,0.2-0.9,0.3-1.4,0.3c-0.1,0-0.2,0-0.4,0.1
			c-0.1,0-0.2,0-0.3,0c-0.1,0-0.2,0-0.4,0c-0.1,0-0.2,0-0.3,0c-0.2,0-0.5,0-0.7,0c-0.2,0-0.5,0-0.7,0c-0.2,0-0.5,0-0.7,0
			c-0.1,0-0.2,0-0.3,0c-0.1,0-0.2,0-0.4,0c-0.1,0-0.2,0-0.4-0.1c-0.6,0-1.2-0.2-1.8-0.3c-0.2-0.1-0.5-0.2-0.7-0.2
			c-0.1,0-0.2-0.1-0.3-0.1c-0.1,0-0.2-0.1-0.4-0.1c-0.1,0-0.2-0.1-0.3-0.1c-0.1,0-0.2-0.1-0.4-0.1c-0.2-0.1-0.4-0.2-0.7-0.3
			c-0.1,0-0.2-0.1-0.3-0.1c-0.1,0-0.2-0.1-0.4-0.1c-0.1-0.1-0.2-0.1-0.3-0.2c-0.1,0-0.2-0.1-0.3-0.2c-0.1,0-0.2-0.1-0.3-0.2
			c-0.1-0.1-0.2-0.1-0.3-0.2c-0.1-0.1-0.2-0.1-0.3-0.2c-0.1-0.1-0.2-0.1-0.3-0.2c-0.1-0.1-0.2-0.1-0.3-0.2c-0.2-0.1-0.4-0.3-0.6-0.4
			c-0.1-0.1-0.2-0.1-0.3-0.2c-0.2-0.2-0.4-0.3-0.6-0.5c-0.4-0.3-0.8-0.7-1.2-1.1c-0.1-0.1-0.2-0.2-0.3-0.3c-0.1-0.1-0.2-0.2-0.3-0.3
			c-0.1-0.1-0.2-0.2-0.3-0.3c-0.2-0.2-0.4-0.4-0.5-0.6c-0.1-0.1-0.2-0.2-0.3-0.3c-0.2-0.3-0.5-0.7-0.7-1c-0.2-0.2-0.3-0.5-0.4-0.7
			c-0.2-0.2-0.3-0.5-0.4-0.7c-0.1-0.1-0.1-0.2-0.2-0.4c0-0.1-0.1-0.2-0.2-0.4c0-0.1-0.1-0.3-0.1-0.4c-0.1-0.3-0.2-0.5-0.4-0.8
			c0-0.1-0.1-0.3-0.1-0.4c-0.1-0.4-0.3-0.8-0.4-1.3c0-0.1-0.1-0.3-0.1-0.4c0-0.1-0.1-0.3-0.1-0.4c0-0.1-0.1-0.3-0.1-0.4
			c0-0.1-0.1-0.3-0.1-0.4c0-0.1,0-0.3-0.1-0.4c-0.2-0.6-0.3-1.2-0.3-1.8c0-0.1,0-0.3-0.1-0.5c0-0.5,0-1-0.1-1.4c0-0.3,0-0.6,0-1
			c0-0.2,0-0.3,0-0.5c0-0.3,0-0.7,0-1c0.1-0.5,0.1-1,0.1-1.5c0.1-0.9,0.2-1.8,0.4-2.6c0-0.2,0-0.3,0.1-0.5c0-0.2,0.1-0.3,0.1-0.5
			c0.1-0.9,0.4-1.9,0.7-2.7c0.1-0.4,0.2-0.7,0.4-1.1c0.2-0.4,0.3-0.7,0.4-1.1c0-0.2,0.1-0.3,0.2-0.5c0.2-0.5,0.4-1,0.7-1.5
			c0.1-0.1,0.1-0.3,0.2-0.4c0.3-0.4,0.5-0.9,0.8-1.3c0.1-0.1,0.2-0.3,0.3-0.4c0.1-0.1,0.2-0.3,0.3-0.4c0.1-0.1,0.2-0.2,0.3-0.4
			c0.3-0.5,0.8-1,1.2-1.5c0.1-0.1,0.2-0.2,0.3-0.4c0.2-0.2,0.4-0.4,0.6-0.6c0.1-0.1,0.2-0.2,0.3-0.3c0.1-0.1,0.2-0.2,0.3-0.3
			c0.1-0.1,0.2-0.2,0.3-0.3c0.1-0.1,0.2-0.2,0.3-0.3c0.1-0.1,0.2-0.2,0.3-0.3c0.2-0.2,0.5-0.3,0.7-0.5c0.2-0.2,0.5-0.3,0.7-0.5
			c0.1-0.1,0.2-0.1,0.4-0.2c0.2-0.1,0.5-0.2,0.7-0.4c0.2-0.1,0.5-0.2,0.7-0.4c0.5-0.2,1-0.4,1.5-0.6c0.1,0,0.2-0.1,0.4-0.1
			c0.1,0,0.2-0.1,0.4-0.1c0.2-0.1,0.5-0.1,0.7-0.2c0.3-0.1,0.5-0.1,0.8-0.1c0.2-0.1,0.5-0.1,0.7-0.1c0.1,0,0.2,0,0.4-0.1
			c0.1,0,0.3,0,0.4,0c0.6-0.1,1.3,0,1.9,0c0.3,0.1,0.7,0.1,1.1,0.1c0.1,0,0.2,0,0.4,0.1c0.4,0,0.7,0.1,1.1,0.2
			c0.2,0.1,0.5,0.1,0.7,0.2c0.1,0,0.2,0.1,0.3,0.1c0.1,0,0.2,0.1,0.3,0.1c0.1,0,0.2,0.1,0.4,0.1c0.1,0,0.2,0.1,0.3,0.1
			c0.1,0,0.2,0.1,0.3,0.1c0.2,0.1,0.5,0.2,0.7,0.3c0.2,0.1,0.4,0.2,0.6,0.3c0.1,0,0.2,0.1,0.3,0.2c0.2,0.1,0.4,0.2,0.6,0.4
			c0.1,0.1,0.2,0.1,0.3,0.2c0.2,0.2,0.4,0.3,0.6,0.4c0.1,0.1,0.2,0.1,0.3,0.2c0.1,0.1,0.2,0.2,0.3,0.3c0.1,0.1,0.2,0.2,0.3,0.3
			c0.2,0.1,0.4,0.3,0.5,0.5c0.1,0.1,0.2,0.2,0.3,0.3c0.1,0.1,0.1,0.2,0.2,0.3c0.1,0.2,0.3,0.4,0.4,0.6c0,0.1,0.1,0.2,0.2,0.3
			c0.1,0.1,0.1,0.2,0.2,0.3c0.1,0.1,0.1,0.2,0.2,0.3c0.1,0.1,0.1,0.2,0.2,0.3c0.1,0.1,0.1,0.2,0.2,0.3c0,0.1,0.1,0.2,0.1,0.3
			c0.1,0.1,0.1,0.2,0.2,0.4c0,0.1,0.1,0.2,0.1,0.3c0.1,0.2,0.2,0.5,0.3,0.7c0,0.1,0.1,0.2,0.1,0.4c0,0.1,0,0.2,0.1,0.4
			c0.2,0.6,0.3,1.4,0.4,2c0,0.1,0,0.3,0,0.4c0,0.1,0,0.3,0,0.4c0,0.5,0.1,1.1-0.3,1.4c-0.1,0.1-0.2,0.1-0.3,0.2
			c-0.3,0.2-0.6,0.3-0.9,0.3c-0.2,0-0.4,0.1-0.6,0.1c-0.2,0-0.4,0.1-0.6,0.1c-0.2,0-0.4,0-0.6,0c-0.4,0-0.9,0-1.3,0
			c-0.6,0-1.2-0.1-1.8-0.2c-0.4-0.1-0.8-0.2-1.2-0.4c-0.1,0-0.1-0.1-0.2-0.2c-0.1,0-0.1-0.1-0.1-0.2c-0.1-0.4-0.1-0.7-0.1-1.1
			c0-0.1,0-0.2-0.1-0.3c0-0.1,0-0.2-0.1-0.3c0-0.1-0.1-0.2-0.1-0.3c-0.1-0.1-0.1-0.2-0.1-0.3c-0.1-0.3-0.3-0.6-0.4-0.8
			c0-0.1-0.1-0.2-0.2-0.3c-0.1-0.1-0.1-0.1-0.2-0.2c-0.2-0.2-0.4-0.5-0.7-0.6c-0.1-0.1-0.1-0.1-0.2-0.2c-0.1-0.1-0.2-0.1-0.3-0.2
			c-0.1,0-0.2-0.1-0.3-0.1c-0.1,0-0.2-0.1-0.3-0.1c-0.1,0-0.2-0.1-0.3-0.1c-0.1,0-0.2-0.1-0.3-0.1c-0.2,0-0.4-0.1-0.6-0.1
			c-0.5,0-1-0.1-1.5-0.1c-0.1,0-0.2,0-0.3,0.1c-0.2,0-0.4,0.1-0.6,0.1c-0.1,0-0.2,0.1-0.3,0.1c-0.1,0-0.2,0.1-0.3,0.1
			c-0.2,0.1-0.4,0.2-0.6,0.3c-0.1,0.1-0.2,0.1-0.3,0.2c-0.4,0.3-0.8,0.6-1.2,0.9c-0.1,0.1-0.2,0.2-0.3,0.3c-0.4,0.4-0.7,0.9-1,1.4
			c-0.1,0.1-0.1,0.3-0.2,0.4c-0.2,0.3-0.3,0.6-0.4,0.9c-0.1,0.1-0.1,0.3-0.2,0.5C23.1,33.7,23,33.9,23,34c-0.2,0.5-0.4,1.1-0.4,1.6
			c-0.1,0.2-0.1,0.4-0.1,0.6c0,0.2-0.1,0.4-0.1,0.6c-0.1,0.4-0.1,0.9-0.1,1.3c0,0.2,0,0.5-0.1,0.7c0,0.2,0,0.5,0,0.7
			c0,0.5,0,1,0,1.5c0,0.2,0,0.5,0,0.7c0,0.2,0,0.4,0,0.7c0,0.4,0.1,0.9,0.2,1.3c0,0.2,0.1,0.4,0.1,0.6c0.1,0.6,0.3,1.2,0.4,1.7
			c0.1,0.2,0.1,0.3,0.2,0.5c0.1,0.2,0.1,0.3,0.2,0.5c0.3,0.6,0.6,1.2,0.9,1.8c0.1,0.1,0.2,0.2,0.3,0.4c0.2,0.3,0.4,0.5,0.6,0.7
			c0.2,0.4,0.6,0.6,0.9,0.9c0.1,0.1,0.2,0.2,0.3,0.3c0.1,0.1,0.2,0.2,0.3,0.3c0.2,0.2,0.4,0.3,0.7,0.4c0.1,0.1,0.2,0.1,0.3,0.2
			c0.1,0,0.2,0.1,0.3,0.1c0.1,0,0.2,0.1,0.3,0.1c0.1,0,0.2,0.1,0.3,0.1c0.3,0.1,0.7,0.2,1,0.2c0.1,0,0.2,0,0.3,0c0.2,0,0.4,0,0.6,0
			c0.5-0.1,1.1-0.1,1.6-0.3c0.3-0.1,0.6-0.2,0.9-0.4c0.1-0.1,0.2-0.1,0.3-0.2c0.1-0.1,0.2-0.1,0.3-0.2c0.4-0.2,0.6-0.6,0.9-1
			c0-0.1,0.1-0.2,0.2-0.3c0-0.1,0.1-0.2,0.1-0.3c0-0.1,0.1-0.2,0.1-0.3c0-0.1,0.1-0.2,0.1-0.3c0-0.1,0.1-0.2,0.1-0.4
			c0.1-0.4,0.2-0.8,0.2-1.2c0-0.1,0-0.3,0-0.4c0.1-0.8-0.6-0.4-1.2-0.3c-0.4,0-0.8,0.1-1.2,0.1c-0.2,0-0.4,0-0.7,0
			c-0.2,0-0.4,0-0.6,0c-0.4,0-0.8,0-1.2,0c-0.3,0-0.6,0-0.8-0.1c-0.2-0.1-0.3-0.2-0.3-0.3c0-0.1-0.1-0.2-0.1-0.3
			c0-0.1-0.1-0.3-0.1-0.4c-0.1-0.1-0.1-0.3-0.1-0.5c0-0.2-0.1-0.3-0.1-0.5c-0.1-0.2-0.1-0.4-0.1-0.6c-0.3-1.2-0.2-2.5-0.4-3.7
			c0-0.2,0-0.3,0-0.5c0-0.1,0-0.3,0-0.4c0-0.1,0-0.2,0.1-0.3c0-0.1,0.1-0.1,0.1-0.2c0,0,0.1-0.1,0.1-0.1c0.2,0,0.3,0,0.5-0.1
			c0.1,0,0.2,0,0.3,0c0.1,0,0.3,0,0.4,0c0.1,0,0.3,0,0.4,0c0.3,0,0.6-0.1,1-0.1c0.2,0,0.4,0,0.6,0c0.4,0,0.8,0,1.2,0
			c1.2-0.1,2.6-0.1,3.8,0c0.2,0,0.4,0,0.6,0c0.4,0,0.8,0,1.2,0.1c0.4,0,0.7,0,1.1,0.1c0.5,0,1,0.1,1.5,0.2c0.3,0.1,0.5,0.1,0.8,0.2
			c0.1,0,0.2,0.1,0.3,0.1c0.2,0.1,0.3,0.2,0.4,0.3C42.8,40.2,42.9,40.3,42.9,40.4C43,40.7,42.9,40.4,42.9,40.4z"/>
		<path fill="#020202" d="M46.6,63.4L46.6,63.4c0-0.1,0-0.4,0-0.4c0-0.1,0-0.1,0-0.2c0,0,0-0.1,0-0.2c0-0.1,0-0.1,0.1-0.2
			c0-0.2,0.1-0.3,0.1-0.5c0.2-0.5,0.3-1,0.4-1.5c0.1-0.2,0.1-0.5,0.2-0.7c0-0.1,0-0.3,0.1-0.4c0-0.1,0.1-0.3,0.1-0.4
			c0-0.1,0.1-0.3,0.1-0.4c0-0.1,0.1-0.3,0.1-0.4c0.1-0.3,0.2-0.6,0.2-0.9c0.1-0.3,0.2-0.7,0.3-1c0.1-0.9,0.5-1.8,0.7-2.7
			c0.2-0.6,0.3-1.2,0.5-1.7c0.1-0.4,0.2-0.8,0.4-1.2c0-0.2,0.1-0.4,0.1-0.6c0.1-0.4,0.2-0.8,0.4-1.2c0-0.2,0.1-0.4,0.1-0.6
			c0.1-0.2,0.1-0.4,0.2-0.7c0.1-0.2,0.1-0.4,0.2-0.6c0.1-0.2,0.1-0.4,0.2-0.6c0.1-0.2,0.1-0.4,0.2-0.7c0.1-0.2,0.1-0.4,0.2-0.6
			c0.1-0.2,0.1-0.4,0.2-0.7c0.1-0.2,0.1-0.4,0.2-0.6c0.1-0.2,0.1-0.4,0.2-0.7c0.1-0.2,0.1-0.4,0.2-0.6c0.1-0.2,0.1-0.4,0.2-0.7
			c0.1-0.2,0.1-0.4,0.2-0.7c0.1-0.2,0.1-0.4,0.2-0.6c0-0.2,0.1-0.4,0.2-0.7c0-0.2,0.1-0.4,0.2-0.6c0-0.2,0.1-0.4,0.2-0.7
			c0-0.2,0.1-0.4,0.2-0.6c0-0.2,0.1-0.4,0.2-0.6c0-0.2,0.1-0.4,0.2-0.6c0-0.2,0.1-0.4,0.2-0.6c0-0.2,0.1-0.4,0.2-0.6
			c0-0.2,0.1-0.4,0.2-0.6c0-0.2,0.1-0.4,0.1-0.6c0.1-0.2,0.1-0.4,0.2-0.6c0.1-0.4,0.2-0.8,0.4-1.2c0-0.2,0.1-0.4,0.1-0.6
			c0.1-0.4,0.2-0.7,0.3-1.1c0.3-0.7,0.4-1.4,0.7-2.1c0.1-0.5,0.3-1,0.4-1.5c0.1-0.5,0.3-0.9,0.4-1.3c0.1-0.3,0.2-0.5,0.3-0.8
			c0-0.1,0.1-0.3,0.1-0.4c0-0.1,0.1-0.2,0.1-0.3c0-0.1,0.1-0.2,0.1-0.4c0.1-0.2,0.2-0.4,0.2-0.6c0-0.2,0.1-0.4,0.2-0.5
			c0.1-0.2,0.1-0.5,0.2-0.7c0-0.1,0-0.2,0.1-0.3c0,0,0-0.1,0-0.1c0,0,0-0.1,0-0.1c0,0,0-0.1,0.1-0.1v0c0,0,0.1,0,0.1-0.1
			c0.1,0,0.1,0,0.2-0.1c0.1,0,0.2,0,0.3,0c0.1,0,0.2,0,0.4-0.1c0.2,0,0.3,0,0.5,0c0.2,0,0.3,0,0.5,0c0.2,0,0.4,0,0.6,0
			c0.4,0,0.8,0,1.3,0c0.7,0,1.3,0,2,0c0.6,0.1,1.2,0,1.9,0.1c0.2,0,0.3,0,0.5,0c0.2,0,0.3,0,0.5,0c0.1,0,0.3,0,0.4,0
			c0.1,0,0.2,0,0.3,0c0.1,0,0.2,0,0.3,0.1c0,0,0.1,0,0.1,0v0c0,0,0,0,0,0c0,0,0,0,0,0.1c0,0,0,0.1,0,0.1c0,0,0,0.1,0.1,0.1
			c0,0,0,0.1,0,0.1c0,0.1,0,0.1,0.1,0.2c0.1,0.2,0.2,0.4,0.2,0.7c0,0.1,0,0.2,0.1,0.3c0.1,0.2,0.1,0.4,0.2,0.6c0,0.1,0,0.2,0.1,0.3
			c0,0.1,0.1,0.2,0.1,0.4c0,0.1,0.1,0.2,0.1,0.4c0,0.1,0.1,0.2,0.1,0.4c0,0.1,0.1,0.3,0.1,0.4c0,0.1,0.1,0.3,0.1,0.4
			c0.2,0.4,0.3,0.9,0.4,1.4c0.2,0.7,0.4,1.3,0.6,2c0.2,0.5,0.3,1.1,0.5,1.6c0.1,0.4,0.2,0.8,0.3,1.1c0.1,0.4,0.2,0.8,0.4,1.2
			c0,0.2,0.1,0.4,0.1,0.6c0.1,0.2,0.1,0.4,0.2,0.6c0.1,0.4,0.2,0.8,0.4,1.3c0,0.2,0.1,0.4,0.2,0.6c0,0.2,0.1,0.4,0.2,0.6
			c0,0.2,0.1,0.4,0.2,0.7c0,0.2,0.1,0.4,0.2,0.6c0,0.2,0.1,0.4,0.1,0.7c0.1,0.2,0.1,0.4,0.2,0.6c0.1,0.2,0.1,0.4,0.2,0.7
			c0,0.2,0.1,0.4,0.2,0.7c0,0.2,0.1,0.4,0.2,0.7c0,0.2,0.1,0.4,0.2,0.7c0,0.2,0.1,0.4,0.2,0.7c0,0.2,0.1,0.4,0.2,0.7
			c0,0.2,0.1,0.4,0.2,0.7c0,0.2,0.1,0.4,0.2,0.6c0,0.2,0.1,0.4,0.1,0.7c0.1,0.2,0.1,0.4,0.2,0.7c0.1,0.2,0.1,0.4,0.2,0.7
			c0.1,0.2,0.1,0.4,0.2,0.6c0.1,0.4,0.2,0.9,0.4,1.3c0,0.2,0.1,0.4,0.1,0.6c0.1,0.4,0.2,0.8,0.4,1.3c0.1,0.4,0.2,0.8,0.3,1.2
			c0.1,0.4,0.2,0.8,0.3,1.2c0.4,1,0.7,2.2,0.9,3.3c0.1,0.3,0.2,0.7,0.3,1c0.1,0.3,0.2,0.6,0.3,1c0,0.1,0.1,0.3,0.1,0.4
			c0,0.1,0.1,0.3,0.1,0.4c0,0.1,0.1,0.3,0.1,0.4c0,0.1,0.1,0.3,0.1,0.4c0,0.3,0.1,0.5,0.2,0.8c0.1,0.5,0.2,1.1,0.4,1.6
			c0,0.1,0,0.1,0.1,0.2c0,0.1,0,0.3,0.1,0.4c0,0.1,0,0.1,0,0.2c0,0.1,0,0.2,0.1,0.3c0,0.1,0,0.2,0,0.3h0c0,0,0,0.1-0.1,0.1
			c0,0-0.1,0-0.2,0.1c-0.1,0-0.2,0-0.3,0c-0.1,0-0.2,0-0.4,0.1c-0.3,0-0.6,0.1-0.9,0.1c-0.4,0-0.7,0-1.1,0.1c-1.3,0-2.6,0-3.9,0
			c-0.4,0-0.8,0-1.3-0.1c-0.2,0-0.4,0-0.6,0c-0.2,0-0.4,0-0.6,0c-0.1,0-0.3,0-0.5,0c-0.1,0-0.3,0-0.4-0.1c-0.2,0-0.5,0-0.7-0.1
			c-0.2,0-0.3-0.1-0.4-0.2c0-0.1,0-0.1-0.1-0.2c0-0.1,0-0.2-0.1-0.3c-0.1-0.2-0.2-0.5-0.2-0.7c-0.1-0.3-0.2-0.6-0.3-1
			c-0.3-2.3-1.3-4.5-1.6-6.8c-0.1-0.4-0.2-0.7-0.3-1.1c0-0.2-0.1-0.3-0.1-0.5c-0.1-0.4-0.1-0.9-0.3-1.3c0-0.1,0-0.2,0-0.3
			c0-0.1,0-0.1-0.1-0.2c0-0.1,0-0.2,0-0.2c0,0-0.1,0-0.2,0c-0.4,0-0.9-0.1-1.3-0.1c-0.2,0-0.4,0-0.6,0c-0.8-0.1-1.7-0.1-2.6,0
			c-0.3,0-0.7,0-1,0.1c-0.1,0-0.2,0.1-0.3,0.1c-0.1,0-0.1,0.1-0.2,0.1v0c0,0,0,0.1,0,0.1c0,0.1,0,0.1,0,0.2
			c-0.1,0.4-0.1,0.8-0.3,1.1c0,0.1,0,0.3-0.1,0.5c-0.1,0.2-0.1,0.3-0.1,0.5c0,0.2-0.1,0.4-0.1,0.6c-0.2,1.7-0.8,3.5-1.2,5.2
			c-0.1,0.8-0.4,1.5-0.5,2.3c0,0.2-0.1,0.3-0.1,0.5c0,0.1-0.1,0.3-0.1,0.4c0,0.1,0,0.2-0.1,0.3c0,0.1-0.1,0.2-0.1,0.3
			c0,0.1-0.1,0.1-0.1,0.2c0,0,0,0.1,0,0.1c0,0-0.1,0.1-0.1,0.1c-0.1,0-0.1,0-0.2,0.1c-0.5,0.1-1.1,0.3-1.6,0.3c-0.2,0-0.4,0-0.6,0.1
			c-0.4,0-0.8,0.1-1.2,0.1c-0.2,0-0.4,0-0.6,0c-0.7,0.1-1.3,0-2,0.1c-0.4,0-0.8,0-1.3,0c-0.2,0-0.4,0-0.6,0c-0.2,0-0.4,0-0.6,0
			c-0.2,0-0.3,0-0.5,0c-0.1,0-0.3,0-0.4-0.1c-0.2,0-0.5,0-0.7-0.1c-0.1,0-0.1,0-0.2-0.1C46.7,63.5,46.6,63.4,46.6,63.4z M65.8,46.5
			c0,0,0-0.1,0-0.2c0-0.1,0-0.1,0-0.2c0-0.2-0.1-0.4-0.1-0.6c0-0.5-0.2-1-0.3-1.5c-0.1-0.4-0.2-0.9-0.3-1.3c-0.1-0.3-0.1-0.6-0.2-1
			c0-0.3-0.1-0.7-0.2-1c0-0.2,0-0.3-0.1-0.5c-0.1-0.4-0.1-0.7-0.2-1.1c0-0.2-0.1-0.4-0.1-0.6c-0.1-0.4-0.1-0.7-0.2-1.1
			c-0.2-0.5-0.1-1.1-0.3-1.6c0-0.2,0-0.4-0.1-0.6c-0.1-0.2-0.1-0.4-0.1-0.6c-0.1-0.7-0.1-0.7-0.1,0c0,0.2,0,0.4-0.1,0.6
			c0,0.2-0.1,0.4-0.1,0.6c0,0.5-0.2,1.2-0.3,1.7c0,0.2-0.1,0.4-0.1,0.6c0,0.2-0.1,0.4-0.1,0.6c0,0.2-0.1,0.4-0.1,0.6
			c0,0.2-0.1,0.4-0.1,0.6c0,0.2-0.1,0.4-0.1,0.6c0,0.2-0.1,0.4-0.1,0.6c0,0.2-0.1,0.4-0.1,0.6c0,0.2,0,0.3-0.1,0.5
			c-0.1,0.3-0.1,0.7-0.2,1c0,0.2,0,0.3-0.1,0.5c-0.1,0.4-0.2,0.9-0.3,1.3c-0.1,0.2-0.1,0.5-0.1,0.7c0,0.3-0.1,0.8-0.2,1.1
			c-0.2,0.3,0.4,0.2,0.6,0.3c0.2,0,0.3,0,0.5,0c0.4,0,0.8,0,1.2,0c0.2,0,0.4,0,0.6,0c0.2,0,0.4,0,0.6-0.1c0.1,0,0.3,0,0.5,0
			C65.4,46.6,65.6,46.5,65.8,46.5C65.8,46.4,65.7,46.5,65.8,46.5z"/>
		<path fill="#020202" d="M105.5,44.9c0,0.1,0.2,0.3,0.5,0.4c0.6,0.3,1.3,1.2,1.8,1.8c0.3,0.3,0.5,0.6,0.8,1c0.2,0.3,0.5,0.6,0.7,1
			c0.4,0.5,0.7,1,1,1.5c0.5,0.6,0.8,1.4,1.2,2.1c0.1,0.2,0.2,0.3,0.3,0.5c0.2,0.3,0.4,0.7,0.5,1c0.2,0.5,0.5,1,0.7,1.5
			c0.1,0.3,0.2,0.6,0.4,1c0.3,0.7,0.5,1.5,0.8,2.2c0,0.1,0.1,0.3,0.1,0.4c0,0.1,0.1,0.3,0.1,0.4c0.1,0.5,0.2,0.9,0.3,1.4
			c0,0.1,0,0.2,0,0.3c0,0.2,0,0.3,0.1,0.5c0,0.2,0.1,0.5,0,0.7c0,0,0,0.1,0,0.1c0,0,0,0,0,0.1c0,0,0,0,0,0.1
			c-0.2,0.1-0.4,0.2-0.6,0.2c-0.2,0.1-0.4,0.1-0.6,0.1c-0.3,0.1-0.6,0.1-0.9,0.1c-0.3,0-0.6,0.1-1,0.1c-0.4,0-0.7,0.1-1.1,0.1
			c-0.2,0-0.4,0-0.6,0.1c-0.2,0-0.4,0-0.6,0c-0.2,0-0.4,0-0.6,0c-0.4,0-0.8,0-1.2,0c-0.4,0-0.8,0-1.2,0c-0.4,0-0.8,0-1.2,0
			c-0.5-0.1-1.1-0.1-1.6-0.1c-0.5-0.1-1.2-0.1-1.7-0.3c-0.1,0-0.2-0.1-0.3-0.1c-0.1,0-0.2-0.1-0.3-0.1c-0.1-0.1-0.2-0.3-0.3-0.5
			c-0.1-0.1-0.1-0.3-0.1-0.4c-0.2-0.9-0.3-2-0.6-2.9c0-0.1,0-0.3-0.1-0.4c-0.1-0.1-0.1-0.3-0.1-0.5c0-0.1-0.1-0.3-0.1-0.5
			c-0.1-0.3-0.1-0.7-0.3-1c0-0.2-0.1-0.4-0.1-0.6c-0.1-0.2-0.1-0.3-0.2-0.5c-0.1-0.2-0.1-0.4-0.2-0.6c-0.2-0.6-0.4-1.1-0.7-1.7
			c-0.2-0.6-0.5-1.1-0.9-1.7c-0.3-0.4-0.5-0.7-0.7-1.1c-0.3-0.4-0.5-0.7-0.8-1.1c-0.1-0.2-0.3-0.4-0.4-0.6v0c0,0,0,0.1,0,0.1
			c0,0.1,0.1,0.3,0.1,0.4c0,0.1,0,0.2,0,0.3c0,0.1,0,0.3,0,0.4c0,0.1,0,0.3,0,0.4c0,0.2,0,0.3,0.1,0.5c0,0.2,0,0.3,0,0.5
			c0,0.2,0,0.4,0,0.6c0,0.4,0.1,0.8,0.1,1.2c0,0.2,0,0.4,0,0.6c0,0.2,0,0.4,0,0.7c0,0.2,0,0.4,0,0.7c0,0.4,0,0.9,0.1,1.3
			c0,1,0,2,0,3.1c0,0.2,0,0.4,0,0.6c0,0.2,0,0.3,0,0.5c-0.1,0.4-0.1,0.8-0.2,1.2c0,0.1,0,0.2-0.1,0.3c0,0.1-0.1,0.1-0.1,0.2
			c-0.1,0-0.1,0.1-0.1,0.1c-0.1,0-0.1,0.1-0.2,0.1c-0.1,0-0.2,0.1-0.3,0.1c-0.1,0-0.2,0.1-0.3,0.1c-0.7,0.3-1.6,0.4-2.3,0.4
			c-0.2,0-0.4,0-0.6,0.1c-0.2,0-0.4,0-0.6,0c-0.2,0-0.4,0-0.6,0c-1.2,0.1-2.5,0.1-3.7,0c-0.2,0-0.4,0-0.6,0c-0.2,0-0.4,0-0.6,0
			c-0.2,0-0.3,0-0.5,0c-0.3,0-0.6,0-0.9-0.1c-0.4,0-0.7-0.1-1-0.2c-0.2,0-0.3-0.1-0.4-0.2l0,0c0,0,0,0,0-0.1c0,0,0,0,0-0.1
			c0,0,0-0.1,0-0.1c0,0,0-0.1,0-0.1c0,0,0-0.1,0-0.2c0,0,0-0.1,0-0.2c0-0.1,0-0.1,0-0.2c0-0.2,0-0.3-0.1-0.5c0-0.1,0-0.2,0-0.3
			c0-0.1,0-0.2,0-0.3c0-0.2-0.1-0.5,0-0.7c0-0.3-0.1-0.5-0.1-0.8c0-0.3,0-0.6,0-0.8c0-0.3,0-0.6,0-0.9c-0.1-0.5,0-1-0.1-1.5
			c0-0.7,0.1-1.5,0-2.2c0-3.6-0.4-7.3,0-10.9c0-0.9-0.1-1.8,0-2.7c0-0.7,0-1.4,0-2c0.1-0.7,0-1.3,0.1-2c0-0.4,0-0.9,0-1.3
			c0-0.4,0-0.8,0-1.3c0-0.4,0.1-0.8,0-1.3c0-0.4,0-0.8,0-1.2c0-0.4,0-0.8,0-1.1c0-0.4,0-0.7,0.1-1.1c0-0.2,0-0.3,0-0.5
			c0-0.3,0-0.7,0-1c0-0.3,0-0.6,0.1-0.9c0-0.2,0-0.3,0-0.5c0-0.3,0.1-0.6,0.1-0.8c0-0.1,0-0.3,0-0.4c0-0.1,0-0.2,0-0.4
			c0-0.2,0-0.5,0.1-0.7c0-0.1,0-0.2,0-0.3c0-0.2,0.1-0.4,0.1-0.6c0-0.1,0-0.2,0-0.3c0-0.1,0-0.1,0-0.2c0-0.1,0-0.1,0-0.2
			c0-0.1,0-0.2,0.1-0.3c0,0,0-0.1,0-0.1c0,0,0,0,0-0.1l0-0.1c0,0,0,0,0-0.1c0,0,0.1,0,0.1-0.1c0,0,0.1-0.1,0.1-0.1
			c0.4-0.2,0.9-0.5,1.3-0.5c0.2-0.1,0.4-0.1,0.6-0.1c0.1,0,0.2,0,0.3,0c0.1,0,0.2,0,0.4,0c0.1,0,0.3,0,0.4,0c0.1,0,0.3,0,0.4,0
			c0.3,0,0.7,0,1,0c0.6-0.1,1.3,0,1.9-0.1c1.1,0,2.1,0,3.2,0c1,0,2,0,3.1,0c0.4,0,0.8,0,1.3,0c0.4,0,0.8,0,1.3,0.1
			c0.4,0,0.8,0,1.2,0.1c0.4,0,0.8,0.1,1.2,0.2c0.4,0.1,0.7,0.1,1.1,0.2c0.3,0.1,0.7,0.2,1,0.3c0.3,0.1,0.7,0.2,1,0.4
			c0.3,0.1,0.6,0.2,1,0.4c0.3,0.1,0.6,0.3,0.9,0.5c0.1,0.1,0.3,0.1,0.4,0.2c0.1,0.1,0.3,0.2,0.4,0.3c0.6,0.5,1.3,0.9,1.9,1.5
			c0.1,0.1,0.2,0.2,0.3,0.3c0.1,0.1,0.2,0.2,0.3,0.3c0.9,1.1,1.9,2.3,2.3,3.7c0.4,0.7,0.6,1.7,0.7,2.5c0.2,0.7,0.2,1.5,0.3,2.3
			c0,0.2,0,0.4,0,0.6c0,1,0,2.1-0.3,3.1c-0.1,0.3-0.2,0.7-0.3,1c0,0.1-0.1,0.3-0.1,0.4c-0.1,0.1-0.1,0.3-0.2,0.4
			c0,0.1-0.1,0.3-0.2,0.4c-0.1,0.1-0.2,0.3-0.3,0.4c-0.1,0.1-0.2,0.2-0.3,0.4c-0.2,0.4-0.5,0.8-0.9,1.1c-0.1,0.1-0.2,0.2-0.3,0.3
			c-0.4,0.3-0.7,0.6-1.1,0.9c-0.1,0.1-0.2,0.2-0.4,0.3c-0.1,0.1-0.3,0.2-0.4,0.3c-0.1,0.1-0.3,0.2-0.4,0.3c-0.3,0.1-0.6,0.3-0.9,0.4
			c-0.1,0-0.3,0.1-0.4,0.2c-0.1,0.1-0.3,0.2-0.4,0.2C105.7,44.7,105.5,44.8,105.5,44.9C105.5,45,105.5,44.8,105.5,44.9z M100.8,34.5
			c0-0.3,0-0.5,0-0.8c-0.1-0.2-0.1-0.5-0.2-0.7c0-0.2-0.1-0.4-0.2-0.7c-0.1-0.2-0.2-0.4-0.3-0.6c-0.1-0.2-0.2-0.3-0.4-0.5
			c-0.1-0.1-0.3-0.3-0.4-0.4c-0.1-0.1-0.3-0.2-0.5-0.4c-0.1-0.1-0.3-0.2-0.5-0.3c-0.2-0.1-0.3-0.2-0.5-0.3c-0.2-0.1-0.3-0.1-0.5-0.2
			c-0.3-0.1-0.7-0.2-1-0.3c-0.2,0-0.3-0.1-0.5-0.1c-0.1,0-0.3,0-0.4,0c-0.1,0-0.2,0-0.4,0c-0.1,0-0.2,0-0.3,0c-0.1,0-0.2,0-0.3,0
			c-0.1,0-0.1,0-0.1,0c0,0-0.1,0.1,0,0.2c0,0.1,0,0.2,0,0.3c0,0.1,0,0.2,0,0.3c0,0.2,0,0.4,0,0.7c0,0.3,0.1,0.5,0.1,0.8
			c0,0.3,0.1,0.6,0.1,0.8c0,0.2,0,0.3,0.1,0.5c0,0.3,0,0.7,0.1,1c0,0.2,0,0.3,0.1,0.5c0,0.4,0,0.8,0.1,1.1c0,0.2,0,0.4,0.1,0.6
			c0,0.4,0.1,0.8,0.1,1.2c0,0.2,0,0.4,0,0.7c0,0.2,0.1,0.4,0,0.7c-0.1,0.2-0.1,0.5,0,0.7c0,0,0.1,0.1,0.2,0c0.1,0,0.2,0,0.3,0
			c0.2,0,0.5-0.1,0.7-0.1c0.1,0,0.3-0.1,0.4-0.1c0.3-0.1,0.6-0.2,0.9-0.3c0.3-0.1,0.7-0.3,1-0.5c0.3-0.2,0.6-0.4,0.9-0.6
			c0.5-0.4,0.8-0.9,1.1-1.4c0.1-0.2,0.1-0.4,0.2-0.6C100.8,35.4,100.8,34.9,100.8,34.5z"/>
		<path fill="#020202" d="M116.6,63.4L116.6,63.4c0-0.1,0-0.4,0-0.4c0-0.1,0-0.1,0-0.2c0,0,0-0.1,0-0.2c0-0.1,0-0.1,0.1-0.2
			c0-0.2,0.1-0.3,0.1-0.5c0.2-0.5,0.3-1,0.4-1.5c0.1-0.2,0.1-0.5,0.2-0.7c0-0.1,0-0.3,0.1-0.4c0-0.1,0.1-0.3,0.1-0.4
			c0-0.1,0.1-0.3,0.1-0.4c0-0.1,0.1-0.3,0.1-0.4c0.1-0.3,0.2-0.6,0.2-0.9c0.1-0.3,0.2-0.7,0.3-1c0.1-0.9,0.5-1.8,0.7-2.7
			c0.2-0.6,0.3-1.2,0.5-1.7c0.1-0.4,0.2-0.8,0.4-1.2c0-0.2,0.1-0.4,0.1-0.6c0.1-0.4,0.2-0.8,0.4-1.2c0-0.2,0.1-0.4,0.1-0.6
			c0.1-0.2,0.1-0.4,0.2-0.7c0.1-0.2,0.1-0.4,0.2-0.6c0.1-0.2,0.1-0.4,0.2-0.6c0.1-0.2,0.1-0.4,0.2-0.7c0.1-0.2,0.1-0.4,0.2-0.6
			c0.1-0.2,0.1-0.4,0.2-0.7c0.1-0.2,0.1-0.4,0.2-0.6c0.1-0.2,0.1-0.4,0.2-0.7c0.1-0.2,0.1-0.4,0.2-0.6c0.1-0.2,0.1-0.4,0.2-0.7
			c0.1-0.2,0.1-0.4,0.2-0.7c0.1-0.2,0.1-0.4,0.2-0.6c0-0.2,0.1-0.4,0.2-0.7c0-0.2,0.1-0.4,0.2-0.6c0-0.2,0.1-0.4,0.2-0.7
			c0-0.2,0.1-0.4,0.2-0.6c0-0.2,0.1-0.4,0.2-0.6c0-0.2,0.1-0.4,0.2-0.6c0-0.2,0.1-0.4,0.2-0.6c0-0.2,0.1-0.4,0.2-0.6
			c0-0.2,0.1-0.4,0.2-0.6c0-0.2,0.1-0.4,0.1-0.6c0.1-0.2,0.1-0.4,0.2-0.6c0.1-0.4,0.2-0.8,0.4-1.2c0-0.2,0.1-0.4,0.1-0.6
			c0.1-0.4,0.2-0.7,0.3-1.1c0.3-0.7,0.4-1.4,0.7-2.1c0.1-0.5,0.3-1,0.4-1.5c0.1-0.5,0.3-0.9,0.4-1.3c0.1-0.3,0.2-0.5,0.3-0.8
			c0-0.1,0.1-0.3,0.1-0.4c0-0.1,0.1-0.2,0.1-0.3c0-0.1,0.1-0.2,0.1-0.4c0.1-0.2,0.2-0.4,0.2-0.6c0-0.2,0.1-0.4,0.2-0.5
			c0.1-0.2,0.1-0.5,0.2-0.7c0-0.1,0-0.2,0.1-0.3c0,0,0-0.1,0-0.1c0,0,0-0.1,0-0.1c0,0,0-0.1,0.1-0.1v0c0,0,0.1,0,0.1-0.1
			c0.1,0,0.1,0,0.2-0.1c0.1,0,0.2,0,0.3,0c0.1,0,0.2,0,0.4-0.1c0.2,0,0.3,0,0.5,0c0.2,0,0.3,0,0.5,0c0.2,0,0.4,0,0.6,0
			c0.4,0,0.8,0,1.3,0c0.7,0,1.3,0,2,0c0.6,0.1,1.2,0,1.9,0.1c0.2,0,0.3,0,0.5,0c0.2,0,0.3,0,0.5,0c0.1,0,0.3,0,0.4,0
			c0.1,0,0.2,0,0.3,0c0.1,0,0.2,0,0.3,0.1c0,0,0.1,0,0.1,0v0c0,0,0,0,0,0c0,0,0,0,0,0.1c0,0,0,0.1,0,0.1c0,0,0,0.1,0.1,0.1
			c0,0,0,0.1,0,0.1c0,0.1,0,0.1,0.1,0.2c0.1,0.2,0.2,0.4,0.2,0.7c0,0.1,0,0.2,0.1,0.3c0.1,0.2,0.1,0.4,0.2,0.6c0,0.1,0,0.2,0.1,0.3
			c0,0.1,0.1,0.2,0.1,0.4c0,0.1,0.1,0.2,0.1,0.4c0,0.1,0.1,0.2,0.1,0.4c0,0.1,0.1,0.3,0.1,0.4c0,0.1,0.1,0.3,0.1,0.4
			c0.2,0.4,0.3,0.9,0.4,1.4c0.2,0.7,0.4,1.3,0.6,2c0.2,0.5,0.3,1.1,0.5,1.6c0.1,0.4,0.2,0.8,0.3,1.1c0.1,0.4,0.2,0.8,0.4,1.2
			c0,0.2,0.1,0.4,0.1,0.6c0.1,0.2,0.1,0.4,0.2,0.6c0.1,0.4,0.2,0.8,0.4,1.3c0,0.2,0.1,0.4,0.2,0.6c0,0.2,0.1,0.4,0.2,0.6
			c0,0.2,0.1,0.4,0.2,0.7c0,0.2,0.1,0.4,0.2,0.6c0,0.2,0.1,0.4,0.1,0.7c0.1,0.2,0.1,0.4,0.2,0.6c0.1,0.2,0.1,0.4,0.2,0.7
			c0,0.2,0.1,0.4,0.2,0.7c0,0.2,0.1,0.4,0.2,0.7c0,0.2,0.1,0.4,0.2,0.7c0,0.2,0.1,0.4,0.2,0.7c0,0.2,0.1,0.4,0.2,0.7
			c0,0.2,0.1,0.4,0.2,0.7c0,0.2,0.1,0.4,0.2,0.6c0,0.2,0.1,0.4,0.1,0.7c0.1,0.2,0.1,0.4,0.2,0.7c0.1,0.2,0.1,0.4,0.2,0.7
			c0.1,0.2,0.1,0.4,0.2,0.6c0.1,0.4,0.2,0.9,0.4,1.3c0,0.2,0.1,0.4,0.1,0.6c0.1,0.4,0.2,0.8,0.4,1.3c0.1,0.4,0.2,0.8,0.3,1.2
			c0.1,0.4,0.2,0.8,0.3,1.2c0.4,1,0.7,2.2,0.9,3.3c0.1,0.3,0.2,0.7,0.3,1c0.1,0.3,0.2,0.6,0.3,1c0,0.1,0.1,0.3,0.1,0.4
			c0,0.1,0.1,0.3,0.1,0.4c0,0.1,0.1,0.3,0.1,0.4c0,0.1,0.1,0.3,0.1,0.4c0,0.3,0.1,0.5,0.2,0.8c0.1,0.5,0.2,1.1,0.4,1.6
			c0,0.1,0,0.1,0.1,0.2c0,0.1,0,0.3,0.1,0.4c0,0.1,0,0.1,0,0.2c0,0.1,0,0.2,0.1,0.3c0,0.1,0,0.2,0,0.3h0c0,0,0,0.1-0.1,0.1
			c0,0-0.1,0-0.2,0.1c-0.1,0-0.2,0-0.3,0c-0.1,0-0.2,0-0.4,0.1c-0.3,0-0.6,0.1-0.9,0.1c-0.4,0-0.7,0-1.1,0.1c-1.3,0-2.6,0-3.9,0
			c-0.4,0-0.8,0-1.3-0.1c-0.2,0-0.4,0-0.6,0c-0.2,0-0.4,0-0.6,0c-0.1,0-0.3,0-0.5,0c-0.1,0-0.3,0-0.4-0.1c-0.2,0-0.5,0-0.7-0.1
			c-0.2,0-0.3-0.1-0.4-0.2c0-0.1,0-0.1-0.1-0.2c0-0.1,0-0.2-0.1-0.3c-0.1-0.2-0.2-0.5-0.2-0.7c-0.1-0.3-0.2-0.6-0.3-1
			c-0.3-2.3-1.3-4.5-1.6-6.8c-0.1-0.4-0.2-0.7-0.3-1.1c0-0.2-0.1-0.3-0.1-0.5c-0.1-0.4-0.1-0.9-0.3-1.3c0-0.1,0-0.2,0-0.3
			c0-0.1,0-0.1-0.1-0.2c0-0.1,0-0.2,0-0.2c0,0-0.1,0-0.2,0c-0.4,0-0.9-0.1-1.3-0.1c-0.2,0-0.4,0-0.6,0c-0.8-0.1-1.7-0.1-2.6,0
			c-0.3,0-0.7,0-1,0.1c-0.1,0-0.2,0.1-0.3,0.1c-0.1,0-0.1,0.1-0.2,0.1v0c0,0,0,0.1,0,0.1c0,0.1,0,0.1,0,0.2
			c-0.1,0.4-0.1,0.8-0.3,1.1c0,0.1,0,0.3-0.1,0.5c-0.1,0.2-0.1,0.3-0.1,0.5c0,0.2-0.1,0.4-0.1,0.6c-0.2,1.7-0.8,3.5-1.2,5.2
			c-0.1,0.8-0.4,1.5-0.5,2.3c0,0.2-0.1,0.3-0.1,0.5c0,0.1-0.1,0.3-0.1,0.4c0,0.1,0,0.2-0.1,0.3c0,0.1-0.1,0.2-0.1,0.3
			c0,0.1-0.1,0.1-0.1,0.2c0,0,0,0.1,0,0.1c0,0-0.1,0.1-0.1,0.1c-0.1,0-0.1,0-0.2,0.1c-0.5,0.1-1.1,0.3-1.6,0.3c-0.2,0-0.4,0-0.6,0.1
			c-0.4,0-0.8,0.1-1.2,0.1c-0.2,0-0.4,0-0.6,0c-0.7,0.1-1.3,0-2,0.1c-0.4,0-0.8,0-1.3,0c-0.2,0-0.4,0-0.6,0c-0.2,0-0.4,0-0.6,0
			c-0.2,0-0.3,0-0.5,0c-0.1,0-0.3,0-0.4-0.1c-0.2,0-0.5,0-0.7-0.1c-0.1,0-0.1,0-0.2-0.1C116.7,63.5,116.7,63.4,116.6,63.4z
			 M135.8,46.5c0,0,0-0.1,0-0.2c0-0.1,0-0.1,0-0.2c0-0.2-0.1-0.4-0.1-0.6c0-0.5-0.2-1-0.3-1.5c-0.1-0.4-0.2-0.9-0.3-1.3
			c-0.1-0.3-0.1-0.6-0.2-1c0-0.3-0.1-0.7-0.2-1c0-0.2,0-0.3-0.1-0.5c-0.1-0.4-0.1-0.7-0.2-1.1c0-0.2-0.1-0.4-0.1-0.6
			c-0.1-0.4-0.1-0.7-0.2-1.1c-0.2-0.5-0.1-1.1-0.3-1.6c0-0.2,0-0.4-0.1-0.6c-0.1-0.2-0.1-0.4-0.1-0.6c-0.1-0.7-0.1-0.7-0.1,0
			c0,0.2,0,0.4-0.1,0.6c0,0.2-0.1,0.4-0.1,0.6c0,0.5-0.2,1.2-0.3,1.7c0,0.2-0.1,0.4-0.1,0.6c0,0.2-0.1,0.4-0.1,0.6
			c0,0.2-0.1,0.4-0.1,0.6c0,0.2-0.1,0.4-0.1,0.6c0,0.2-0.1,0.4-0.1,0.6c0,0.2-0.1,0.4-0.1,0.6c0,0.2-0.1,0.4-0.1,0.6
			c0,0.2,0,0.3-0.1,0.5c-0.1,0.3-0.1,0.7-0.2,1c0,0.2,0,0.3-0.1,0.5c-0.1,0.4-0.2,0.9-0.3,1.3c-0.1,0.2-0.1,0.5-0.1,0.7
			c0,0.3-0.1,0.8-0.2,1.1c-0.2,0.3,0.4,0.2,0.6,0.3c0.2,0,0.3,0,0.5,0c0.4,0,0.8,0,1.2,0c0.2,0,0.4,0,0.6,0c0.2,0,0.4,0,0.6-0.1
			c0.1,0,0.3,0,0.5,0C135.4,46.6,135.6,46.5,135.8,46.5C135.9,46.4,135.8,46.5,135.8,46.5z"/>
		<path fill="#020202" d="M149.3,62.8C149.3,62.8,149.3,62.8,149.3,62.8c0-0.1,0-0.1-0.1-0.1c0,0,0-0.1,0-0.1c0,0,0-0.1,0-0.1
			c0,0,0-0.1,0-0.1c0-0.1,0-0.1,0-0.2c0-0.1,0-0.1,0-0.2c0-0.2-0.1-0.3-0.1-0.5c0-0.1,0-0.2,0-0.3c0-0.1,0-0.2,0-0.3
			c0-0.2,0-0.4-0.1-0.7c0-0.3,0-0.5,0-0.8c0-0.3,0-0.5,0-0.8c0-0.3,0-0.6,0-0.9c0-0.3,0-0.6,0-1c-0.1-0.7,0-1.4-0.1-2.1
			c0-1,0.1-2,0-2.9c0-2.1-0.2-4.3,0-6.5c0-1.1,0-2.3,0-3.4c0.1-0.9,0-1.8,0.1-2.7c0-0.7,0-1.3,0-2c0-0.4,0-0.9,0-1.3
			c0.1-0.6,0-1.3,0.1-1.9c0-0.4,0-0.8,0-1.3c0-0.4,0-0.8,0-1.2c0-0.4,0-0.8,0-1.1c0-0.4,0-0.7,0-1.1c0-0.2,0-0.4,0-0.6
			c0-0.3,0-0.7,0.1-1c0-0.3,0-0.7,0-1c0-0.1,0-0.3,0-0.4c0-0.3,0-0.6,0.1-0.8c0-0.1,0-0.3,0-0.4c0-0.3,0-0.5,0.1-0.8
			c0-0.1,0-0.2,0-0.3c0-0.1,0-0.2,0-0.3c0-0.2,0-0.4,0.1-0.6c0-0.1,0-0.2,0-0.3c0-0.1,0-0.1,0-0.2c0-0.1,0-0.3,0.1-0.4
			c0,0,0-0.1,0-0.1c0,0,0-0.1,0-0.1c0,0,0-0.1,0.1-0.1c0,0,0,0,0,0c0.1-0.1,0.2-0.2,0.3-0.3c0,0,0.1,0,0.1-0.1c0.1,0,0.1,0,0.2-0.1
			c0.1,0,0.1-0.1,0.2-0.1c0.1,0,0.3-0.1,0.4-0.1c0.1,0,0.2,0,0.3-0.1c0.2,0,0.4-0.1,0.6-0.1c0.1,0,0.2,0,0.4,0c0.1,0,0.2,0,0.4,0
			c0.1,0,0.3,0,0.4,0c0.3,0,0.7,0,1-0.1c0.2,0,0.4,0,0.6,0c2.1-0.3,4.4-0.1,6.4,0c0.6,0,1.1,0,1.7,0c0.2,0,0.4,0,0.6,0
			c0.2,0,0.4,0,0.6,0c0.8,0,1.6,0.1,2.4,0.3c0.2,0,0.4,0.1,0.6,0.1c0.4,0.1,0.7,0.2,1.1,0.2c0.4,0.1,0.7,0.2,1,0.3
			c0.2,0,0.3,0.1,0.5,0.1c0.2,0.1,0.3,0.1,0.5,0.2c0.2,0.1,0.3,0.1,0.5,0.2c0.5,0.1,1,0.4,1.4,0.7c0.1,0.1,0.3,0.1,0.4,0.2
			c0.7,0.4,1.4,0.9,1.9,1.5c0.4,0.3,0.7,0.7,1,1c0.1,0.1,0.2,0.2,0.3,0.4c0.2,0.4,0.6,0.8,0.8,1.2c0.3,0.4,0.5,0.9,0.7,1.3
			c0.1,0.1,0.1,0.3,0.2,0.4c0,0.2,0.1,0.3,0.1,0.5c0.1,0.3,0.3,0.7,0.3,1c0.1,0.5,0.2,1.1,0.3,1.6c0.1,0.4,0.1,0.8,0.1,1.2
			c0,0.2,0,0.4,0,0.6c0.1,1.1,0.1,2.4-0.2,3.5c-0.1,0.7-0.3,1.3-0.5,1.9c-0.1,0.2-0.2,0.4-0.3,0.6c-0.1,0.2-0.2,0.4-0.3,0.6
			c-0.3,0.7-0.8,1.4-1.3,2c-0.1,0.2-0.2,0.3-0.4,0.5c-0.1,0.1-0.2,0.3-0.4,0.4c-0.1,0.1-0.3,0.3-0.4,0.4c-0.1,0.1-0.3,0.2-0.4,0.4
			c-0.3,0.3-0.6,0.5-0.9,0.7c-0.1,0.1-0.3,0.2-0.4,0.3c-1.1,0.7-2.2,1.2-3.4,1.8c-0.2,0-0.3,0.1-0.5,0.2c-0.2,0-0.3,0.1-0.5,0.2
			c-0.5,0.1-0.9,0.3-1.4,0.4c-0.4,0.1-0.9,0.2-1.3,0.3c-0.5,0.1-1,0.3-1.6,0.3c-0.1,0-0.2,0-0.3,0.1c-0.1,0-0.2,0-0.3,0
			c-0.1,0-0.2,0-0.3,0c-0.1,0-0.2,0-0.3,0c-0.1,0-0.1,0-0.2,0c-0.1,0-0.1,0-0.2,0c-0.1,0-0.2,0-0.2,0c0,0.1,0,0.3,0,0.5
			c0.1,0.5,0.1,1,0.1,1.5c0,0.4,0.1,0.7,0.1,1.1c0,0.4,0.1,0.7,0.1,1.1c0,0.4,0,0.7,0.1,1.1c0,0.2,0,0.4,0.1,0.6
			c0,0.4,0.1,0.8,0.1,1.1c0,0.2,0,0.3,0,0.5c0,0.4,0,0.7,0.1,1.1c0,0.3,0,0.7,0,1c0,0.3,0,0.7,0,1c0,0.3,0,0.6,0,0.9
			c0,0.3,0,0.6-0.1,0.8c-0.1,0.2-0.1,0.5-0.1,0.7c-0.1,0.2-0.1,0.4-0.2,0.6c0,0.1-0.1,0.2-0.1,0.3c0,0.1-0.1,0.1-0.1,0.2
			c0,0.1-0.1,0.1-0.1,0.2c-0.1,0.1-0.3,0.2-0.4,0.3c-0.1,0-0.2,0.1-0.3,0.1c-0.1,0-0.2,0.1-0.3,0.1c-0.4,0.1-0.9,0.2-1.3,0.2
			c-0.2,0-0.3,0-0.5,0.1c-0.2,0-0.4,0-0.6,0c-0.9,0.1-2.1,0.1-3,0c-0.2,0-0.4,0-0.6,0c-0.2,0-0.4,0-0.6,0c-0.2,0-0.4,0-0.6-0.1
			c-0.4,0-0.8,0-1.2-0.1c-0.9-0.1-2.2-0.1-3.1-0.6C149.6,62.9,149.5,62.9,149.3,62.8C149.3,62.8,149.4,62.9,149.3,62.8z M167.2,34.4
			c0-0.3,0-0.5,0-0.8c0-0.5-0.1-0.9-0.3-1.3c-0.2-0.4-0.4-0.7-0.6-1.1c-0.1-0.1-0.2-0.3-0.4-0.4c-0.1-0.1-0.3-0.2-0.4-0.4
			c-0.1-0.1-0.3-0.2-0.4-0.3c-0.3-0.2-0.6-0.3-1-0.5c-0.3-0.1-0.6-0.2-1-0.3c-0.3,0-0.6-0.1-0.9-0.1c-0.1,0-0.2,0-0.4,0
			c-0.1,0-0.2,0-0.3,0c-0.1,0-0.3,0-0.4,0c0,0,0,0.1,0,0.1c0,0.1,0,0.2,0,0.3c0,0.4,0,0.8,0,1.1c0,0.3,0,0.7,0,1c0,0.2,0,0.4,0,0.6
			c0,0.2,0,0.4,0,0.6c0,0.2,0,0.4,0,0.6c0,0.2,0,0.4,0,0.6c0,0.2,0,0.4,0,0.6c0,0.2,0,0.4,0,0.6c0,0.2,0,0.4,0,0.6
			c0,0.2,0,0.4,0,0.6c0,0.2,0,0.4,0,0.6c0,0.2,0,0.4,0,0.6c0,0.2,0,0.4,0,0.6c0,0.3,0,0.7,0.1,1c0,0.1,0,0.3,0,0.4
			c0,0.3,0.1,0.7,0,1c0,0.1,0,0.2,0,0.2c0,0,0.1,0,0.2,0c0.1,0,0.1,0,0.2,0c0.1,0,0.2,0,0.3,0c0.2,0,0.4-0.1,0.7-0.1
			c0.1,0,0.2-0.1,0.3-0.1c0.1,0,0.3-0.1,0.4-0.2c0.1,0,0.2-0.1,0.4-0.2c0.3-0.2,0.5-0.3,0.8-0.6c0.4-0.4,0.8-0.8,1.1-1.3
			c0.3-0.3,0.5-0.7,0.6-1.1c0.3-0.7,0.5-1.4,0.6-2.2C167.2,34.9,167.2,34.7,167.2,34.4C167.2,34.1,167.2,34.7,167.2,34.4z"/>
		<path fill="#020202" d="M181.2,21.2c0.1-0.1,0.2-0.1,0.3-0.1c0,0,0.1,0,0.2,0c0.2-0.1,0.4-0.1,0.6-0.1c0.1,0,0.2,0,0.3,0
			c0.1,0,0.2,0,0.3-0.1c0.1,0,0.3,0,0.4,0c0.1,0,0.3,0,0.4,0c0.2,0,0.3,0,0.5,0c0.1,0,0.3,0,0.5,0c0.2,0,0.3,0,0.5,0
			c0.2,0,0.4,0,0.6,0c0.4,0,0.7,0,1.1-0.1c0.2,0,0.4,0,0.6,0c0.6-0.1,1.3,0,1.9-0.1c2.7,0,5.4-0.3,8.1,0c0.6,0,1.3,0,1.9,0
			c0.4,0,0.8,0,1.2,0c0.4,0,0.7,0,1.1,0c0.2,0,0.3,0,0.5,0c0.3,0,0.6,0,1,0.1c0.1,0,0.3,0,0.4,0c0.1,0,0.3,0,0.4,0
			c0.2,0,0.5,0,0.7,0.1c0.1,0,0.2,0,0.3,0c0.1,0,0.2,0,0.3,0c0.1,0,0.2,0,0.3,0c0.1,0,0.2,0,0.3,0.1c0,0,0.1,0,0.1,0c0,0,0,0,0,0
			c0,0,0,0.1,0.1,0.1c0,0.1,0,0.1,0,0.2c0,0.1,0,0.2,0,0.3c0,0.1,0,0.2,0,0.3c0.1,0.8,0.1,1.8,0,2.6c0,0.2,0,0.4,0,0.7
			c0,0.2,0,0.4,0,0.6c0,0.2,0,0.4,0,0.7c0,0.2,0,0.4-0.1,0.7c0,0.4,0,0.9-0.1,1.3c-0.1,1,0,2.9-0.6,3.8c0,0.1-0.1,0.2-0.1,0.3
			c-0.2,0.1-0.6,0.1-0.8,0c-0.1,0-0.2,0-0.3,0c-0.3,0-0.5-0.1-0.8-0.1c-0.3,0-0.6-0.1-1-0.1c-0.4-0.1-0.7-0.1-1.1-0.2
			c-0.2,0-0.4-0.1-0.6-0.1c-0.2,0-0.4-0.1-0.6-0.1c-0.2,0-0.4-0.1-0.6-0.1c-0.2,0-0.4-0.1-0.6-0.1c-0.2,0-0.4-0.1-0.6-0.1
			c-0.2,0-0.4-0.1-0.6-0.1c-0.2,0-0.4-0.1-0.6-0.1c-0.2,0-0.4-0.1-0.6-0.1c-0.4-0.1-0.8-0.1-1.2-0.2c-0.2,0-0.4-0.1-0.6-0.1
			c-0.3-0.1-0.7-0.1-1-0.2c-0.4-0.1-0.9-0.1-1.3-0.3c-0.1,0-0.2,0-0.3,0c-0.1,0-0.2,0-0.3-0.1c-0.1,0-0.2-0.1-0.2,0
			c0,0.1,0,0.2,0,0.4c0,0.3,0.1,0.7,0.1,1c0,0.4,0.1,0.8,0.1,1.2c0.1,0.4,0.1,0.8,0.1,1.3c0,0.2,0,0.4,0.1,0.6c0,0.4,0,0.7,0.1,1.1
			c0,0.1,0,0.3,0.1,0.4c0,0.1,0,0.3,0,0.4c0,0.1,0,0.2,0,0.3c0,0,0,0.1,0,0.2v0c0,0,0,0,0.1,0c0.2,0,0.5-0.1,0.7-0.1
			c0.2,0,0.4,0,0.6,0c0.4,0,0.9-0.1,1.3-0.1c0.2,0,0.4,0,0.7,0c0.6-0.1,1.3-0.1,2,0c0.3,0,0.8,0,1,0.2c0,0.1,0.1,0.1,0.1,0.2
			c0.1,0.2,0.1,0.5,0.1,0.7c0.1,0.3,0.2,0.7,0.1,1c0,0.2,0,0.4,0.1,0.6c0,0.2,0,0.4,0,0.6c0,0.2,0,0.4,0,0.6c0,0.4,0,0.8,0,1.1
			c0,0.2,0,0.3,0,0.5c0,0.3,0,0.5-0.1,0.8c-0.1,0.3-0.4,0.5-0.7,0.5c-0.4,0.1-0.7,0.1-1.1,0.1c-0.2,0-0.4,0-0.6,0
			c-0.4,0-0.9,0-1.3-0.1c-0.4,0-0.8,0-1.3-0.1c-0.4,0-0.8,0-1.2-0.1h-0.1c0,0,0,0,0,0c0,0.1,0,0.3,0,0.4c0,0.1,0,0.2,0,0.4
			c0,0.1,0,0.3,0,0.4c0,0.2,0,0.3,0,0.5c0,0.2,0,0.4,0.1,0.6c0,0.4,0,0.8,0.1,1.2c0.1,0.4,0.1,0.9,0.1,1.3c0.1,0.6,0.1,1.3,0.2,1.9
			c0,0.5,0.1,1.1,0.2,1.6c0,0.1,0,0.3,0,0.4c0,0.1,0,0.2,0.1,0.3c0,0.1,0,0.2,0,0.2c0.1,0,0.3,0,0.4,0c0.3-0.1,0.7-0.2,1-0.2
			c0.1,0,0.3-0.1,0.4-0.1c0.1,0,0.3-0.1,0.5-0.1c1.8-0.3,3.6-0.9,5.4-1.3c0.4-0.1,0.8-0.1,1.2-0.2c0.2,0,0.4-0.1,0.6-0.1
			c0.5-0.1,0.9-0.2,1.4-0.3c0.1,0,0.2,0,0.4,0c0.2,0,0.4,0,0.6,0c0,0,0.1,0,0.2,0c0,0,0.1,0,0.1,0.1c0,0,0,0.1,0.1,0.1
			c0,0.1,0,0.1,0.1,0.2c0.1,0.2,0.2,0.4,0.2,0.6c0,0.1,0,0.2,0.1,0.4c0,0.1,0.1,0.3,0.1,0.4c0.1,0.3,0.2,0.6,0.2,1
			c0,0.2,0,0.3,0.1,0.5c0,0.2,0.1,0.4,0.1,0.6c0.1,0.4,0.1,0.8,0.2,1.2c0.3,1.2,0.3,2.5,0.5,3.8c0,0.4,0,0.8,0.1,1.1
			c0,0.4,0,0.7,0,1.1c0,0.3,0,0.6,0,0.9c0,0.2,0,0.5-0.1,0.7c0,0.2,0,0.3-0.1,0.4c0,0,0,0.1-0.1,0.1l-0.1,0c0,0-0.1,0-0.1,0
			c0,0-0.1,0-0.1,0c0,0-0.1,0-0.2,0c-0.1,0-0.1,0-0.2,0c-0.1,0-0.2,0-0.3,0c-0.2,0-0.4,0.1-0.7,0.1c-0.1,0-0.2,0-0.4,0
			c-0.3,0-0.5,0.1-0.8,0.1c-0.1,0-0.3,0-0.4,0c-0.3,0-0.7,0-1,0c-0.5,0.1-1.1,0-1.6,0.1c-0.8,0-1.7-0.1-2.5,0c-2,0-4,0-6,0
			c-1.1-0.1-2.2,0.1-3.3-0.1c-0.6,0-1.2,0-1.9,0c-0.6-0.1-1.1,0-1.7-0.1c-0.3,0-0.7,0-1,0c-0.3,0-0.6,0-1,0c-0.3,0-0.5,0-0.8,0
			c-0.2,0-0.4,0-0.7,0c-0.2,0-0.4,0-0.6,0c-0.1,0-0.3,0-0.4,0c-0.1,0-0.1,0-0.2,0c0,0-0.1,0-0.1-0.1v0c0-0.1-0.1-0.1-0.1-0.2
			c0-0.1,0-0.2,0-0.3c0-0.1,0-0.1,0-0.2c0-0.1,0-0.3,0-0.4c0-0.2-0.1-0.4-0.1-0.6c0-0.2,0-0.4,0-0.6c0-0.2,0-0.5,0-0.7
			c0-0.3,0-0.5,0-0.8c0-0.3,0-0.6,0-0.9c0-0.3,0-0.6,0-0.9c0-0.3-0.1-0.7,0-1c-0.1-0.5,0-1.1-0.1-1.6c0-0.6,0-1.1,0-1.7
			c0-0.6,0-1.2,0-1.8c0-0.6,0-1.3,0-1.9c-0.1-0.9,0-1.8,0-2.6c-0.1-1.3,0-2.7,0-4.1c-0.3-2.9-0.3-6.4,0-9.3c0-1.2-0.1-2.4,0-3.6
			c0-0.7-0.1-1.5,0-2.2c0-0.5,0-1,0-1.5c0-0.3,0-0.6,0-0.9c0-0.3,0-0.6,0-0.8c0-0.3,0-0.5,0-0.8c0-0.2,0-0.5,0-0.7
			c0-0.2,0-0.4,0.1-0.6c0-0.2,0-0.4,0-0.6c0-0.1,0-0.1,0-0.2c0-0.1,0-0.3,0.1-0.4c0,0,0-0.1,0-0.1c0,0,0-0.1,0-0.1
			c0-0.1,0-0.1,0.1-0.2C181.1,21.3,181.1,21.2,181.2,21.2C181.2,21.2,181.2,21.2,181.2,21.2z"/>
	</g>
</g>
</svg>
