<?xml version="1.0" encoding="utf-8"?>
<!-- Generator: Adobe Illustrator 18.0.0, SVG Export Plug-In . SVG Version: 6.00 Build 0)  -->
<!DOCTYPE svg PUBLIC "-//W3C//DTD SVG 1.0//EN" "http://www.w3.org/TR/2001/REC-SVG-20010904/DTD/svg10.dtd">
<svg version="1.0" id="Camada_1" xmlns="http://www.w3.org/2000/svg" xmlns:xlink="http://www.w3.org/1999/xlink" x="0px" y="0px"
	 viewBox="0 0 81.5 80.8" enable-background="new 0 0 81.5 80.8" xml:space="preserve">
<text transform="matrix(1.01 0 0 1 42.875 67.8724)" fill="#020202" font-family="'Big_Bottom_Cartoon'" font-size="36.8941">I</text>
<g>
	<text transform="matrix(1.01 0 0 1 11.7119 67.8724)" fill="#1B7C09" font-family="'Big_Bottom_Cartoon'" font-size="36.8941">J</text>
</g>
<g>
	<path fill="#020202" d="M45.2,25.5C45.2,25.5,45.2,25.4,45.2,25.5c0.1-0.1,0.2-0.1,0.2-0.1c0.1,0,0.1,0,0.2-0.1c0.1,0,0.2,0,0.3,0
		c0.1,0,0.2,0,0.3-0.1c0.7,0,1.4-0.2,2-0.3c0.5,0,1.1-0.1,1.6-0.1c0.2,0,0.4,0,0.6-0.1c0.2,0,0.4,0,0.6,0c0.2,0,0.4,0,0.6,0
		c0.2,0,0.4,0,0.6,0c0.2,0,0.4,0,0.6,0c0.2,0,0.4,0,0.7,0c2.9-0.2,5.9-0.1,8.8-0.1c0.5,0,0.9,0.1,1.4,0.1c0.4,0,0.8,0.1,1.1,0.1
		c0.1,0,0.2,0,0.3,0c0.3,0,0.5,0.1,0.6,0.3c0,0.1,0.1,0.1,0.1,0.2c0,0.1,0.1,0.2,0.1,0.3c0.3,1,0.4,2.1,0.4,3.1c0,0.2,0,0.4,0,0.6
		c0,0.2,0,0.4,0,0.6c0,0.9,0,1.9,0,2.8c0,0.1-0.1,0.3-0.1,0.4c0,0.3-0.1,0.6-0.2,0.9c0,0-0.1,0.1-0.1,0.1c-0.1,0-0.1,0.1-0.2,0.1
		c-0.1,0-0.2,0-0.4,0c-0.8,0.1-1.6,0.1-2.4,0c-0.2,0-0.4,0-0.7,0c-0.2,0-0.4,0-0.6-0.1c-0.5,0-1.3-0.1-1.9-0.1v0
		c0,4.2-0.2,8.4,0.1,12.5c0,0.2,0,0.5,0,0.7c0,0.2,0,0.5,0,0.7c0,0.2,0,0.5,0,0.7c0.1,2.2,0.3,4.7,0.7,6.9c0,0.1,0,0.2,0,0.3
		c0,0.1,0,0.2,0,0.3c0,0,0,0.1,0,0.2c0.1,0.1,0.1,0.2,0.1,0.4v0c0,0,0,0,0.1,0c0.1,0,0.2,0,0.3,0c1.1-0.2,2.3-0.4,3.5-0.4
		c0.6,0,1.9-0.2,2.4,0.3c0,0,0,0.1,0.1,0.2c0,0.1,0.1,0.1,0.1,0.2c0.1,0.7,0.2,1.4,0.3,2.2c0,0.2,0,0.4,0,0.6c0,0.2,0,0.4,0,0.6
		c0,0.2,0,0.4,0,0.6c0,1.2,0,2.5-0.1,3.7c0,0.2,0,0.4,0,0.6c0,0.5,0,1.4-0.3,1.9c-0.1,0.3-0.4,0.3-0.7,0.3c-0.1,0-0.2,0-0.3,0.1
		c-0.1,0-0.2,0-0.3,0c-0.1,0-0.2,0-0.3,0c-0.1,0-0.2,0-0.4,0c-0.1,0-0.3,0-0.4,0c-0.1,0-0.3,0-0.4,0c-0.5,0.1-1,0.1-1.5,0.1
		c-5.2,0.5-10.5,0-15.7,0C47,68,46.5,68,46,68c-0.1,0-0.2,0-0.4,0c-0.1,0-0.2,0-0.4,0c-0.1,0-0.2,0-0.3,0c-0.1,0-0.2,0-0.3,0
		c-0.1,0-0.2,0-0.3,0c-0.1,0-0.1,0-0.2,0c-0.1,0-0.1,0-0.1,0c-0.1,0-0.1,0-0.1,0c-0.1-0.1-0.2-0.3-0.3-0.4c0-0.1,0-0.2-0.1-0.3
		c-0.4-1.9-0.3-3.9-0.3-5.9c0-0.2,0-0.4,0-0.6c0-0.2,0-0.4,0.1-0.6c0-0.8,0.1-1.5,0.4-2.3c0-0.1,0.1-0.1,0.1-0.2
		c0-0.1,0.1-0.1,0.1-0.1c0.1,0,0.2-0.1,0.3-0.1c0.1,0,0.3-0.1,0.4-0.1c0.2,0,0.3,0,0.5,0c0.2,0,0.4,0,0.6,0c1.2,0.1,2.4,0.3,3.6,0.6
		c0,0,0,0,0.1,0v0c0,0,0,0,0-0.1c0.1-0.3,0.1-0.7,0.1-1.1c0-0.1,0-0.2,0-0.3c0-0.1,0-0.3,0-0.4c0-0.1,0-0.3,0-0.4
		c0-0.5,0.1-1,0.1-1.5c0-0.6,0.1-1.2,0.1-1.7c0-0.2,0-0.4,0-0.6c0-0.7,0.1-1.4,0.1-2c0-0.2,0-0.5,0.1-0.7c0-0.2,0-0.5,0-0.7
		c0-0.2,0-0.5,0-0.8c0-0.2,0-0.5,0-0.7c0-0.3,0-0.5,0-0.8c0.1-3.7,0.2-7.3,0.1-11c0,0,0,0-0.1,0c-0.1,0-0.1,0-0.2,0.1
		c-1.6,0-3.1,0.5-4.7,0.3c-1.2-0.4-1.2-0.9-1.3-2c0-0.2,0-0.3,0-0.5c0-0.8,0-1.6,0-2.4c0-0.2,0-0.4,0-0.6c0.1-0.9,0.3-1.9,0.4-2.8
		c0-0.1,0.1-0.3,0.1-0.4c0-0.1,0.1-0.2,0.1-0.3c0-0.1,0.1-0.2,0.1-0.3C45.1,25.6,45.1,25.5,45.2,25.5C45.2,25.5,45.1,25.5,45.2,25.5
		C45.2,25.5,45.1,25.5,45.2,25.5z"/>
</g>
<g>
	<g>
		<path fill="#1B7C09" d="M35.4,34.2c0.5,2.9,1.1,6.1,1.1,9.1c0,0.2,0,0.3,0.1,0.5c0,0.2,0,0.3,0,0.5c0,0.2,0,0.3,0,0.5
			c0,0.2,0,0.3,0,0.5c0,0.1,0,0.3,0,0.5c0,0.2,0,0.3,0,0.5c0.2,2.3,0.4,4.7,0,6.9c0,0.3-0.1,0.7-0.1,1c0,0.1,0,0.2,0,0.3
			c-0.3,1.1-0.6,2.3-0.9,3.4c-0.2,0.5-0.4,1-0.6,1.5c-0.1,0.1-0.1,0.3-0.2,0.5c-0.1,0.1-0.1,0.3-0.2,0.5c-0.1,0.1-0.1,0.3-0.2,0.4
			c-0.3,0.6-0.7,1.1-1,1.7c-0.1,0.1-0.2,0.3-0.3,0.4c-0.3,0.3-0.6,0.7-0.9,1.1c-0.3,0.3-0.6,0.6-1,0.9c-0.1,0.1-0.2,0.2-0.3,0.3
			c-0.1,0.1-0.2,0.2-0.4,0.3c-0.1,0.1-0.2,0.2-0.3,0.3c-1.2,0.7-2.3,1.2-3.6,1.6c-0.1,0-0.3,0-0.4,0.1c-1.4,0.5-2.8,0.3-4.2,0.3
			c-0.2,0-0.3,0-0.5-0.1c-1.8,0-3.3-0.6-4.7-1.6c-0.5-0.3-0.9-0.7-1.3-1.1c-0.5-0.5-1-1.1-1.4-1.8c-0.1-0.1-0.2-0.3-0.3-0.5
			c-0.1-0.1-0.2-0.3-0.3-0.5c-0.2-0.5-0.4-1-0.6-1.5c-0.1-0.2-0.1-0.3-0.1-0.5c-0.1-0.1-0.1-0.3-0.2-0.5c-0.4-1.5-0.6-3-0.6-4.5
			c0-0.1,0-0.1,0-0.2c0.1-0.4,0.3-0.7,0.6-0.8c0.1-0.1,0.2-0.2,0.3-0.3c0.4-0.3,0.9-0.5,1.3-0.8c0.2-0.1,0.4-0.2,0.6-0.3
			c0.8-0.3,1.5-0.6,2.3-0.8c1.2-0.5,2.5-0.7,3.8-0.7c0,0,0.1,0,0.1,0.1c0,0,0,0.1,0,0.1c0,0,0,0.1,0,0.2c0,0.4,0,0.7,0,1.1
			c0,0.1,0,0.2,0,0.4c0,0.7-0.2,1.4-0.3,2.1c0,0.1,0,0.3,0,0.4c0,0.1,0,0.3,0,0.4c0,0.7-0.1,1.9,0.4,2.5c0.4,0.7,1.4,0.9,2.2,0.7
			c0.3,0,0.5-0.1,0.7-0.3c0.1,0,0.1-0.1,0.2-0.1c0.1,0,0.1-0.1,0.2-0.2c0,0,0.1-0.1,0.1-0.1c0.2-0.3,0.4-0.6,0.6-1
			c0-0.1,0.1-0.2,0.1-0.3c0-0.1,0.1-0.2,0.1-0.3c0-0.1,0-0.2,0.1-0.3c0.3-0.8,0.4-1.8,0.5-2.7c0-0.1,0-0.3,0-0.4c0-0.1,0-0.3,0-0.4
			c-0.1-1.5,0-3,0-4.5c0-0.2,0-0.3,0-0.5c0-0.2,0-0.4,0-0.6c0-0.2,0-0.4-0.1-0.6c-0.3-4.3-1-8.8-1.8-12.9c-0.3,0.1-0.6,0.1-0.9,0.1
			c-2.5,0.4-5,0.6-7.4,0.9c-0.1,0-0.3,0-0.5,0c-0.1,0-0.3,0-0.4,0c-0.1,0-0.2,0-0.3,0c-0.2,0-0.3-0.1-0.4-0.2
			c-0.7-1.5-0.7-3.5-0.7-5.1c-0.1-1,0-1.9,0-2.9c0-0.9,0.1-1.2,0.7-1.6c0.1,0,0.2-0.1,0.3-0.1c0.1,0,0.2,0,0.4-0.1
			c1.5-0.4,3-0.5,4.6-0.7c0.2,0,0.3,0,0.5,0c0.2,0,0.4,0,0.6,0c0.2,0,0.4,0,0.6,0c0.2,0,0.4,0,0.6,0c2.1-0.3,4.3,0,6.4,0
			c0.6,0,1.1,0.1,1.7,0.1c0.2,0,0.4,0,0.6,0c0.2,0,0.4,0,0.6,0c0.2,0,0.3,0,0.5,0.1c0.2,0,0.3,0,0.5,0c0.5,0,1,0.1,1.5,0.1
			c1.2,0,3.6,0.2,4.4,1c0.5,0.7,0.7,1.7,0.8,2.5c0,0.2,0.1,0.4,0.1,0.6c0.2,1,0.3,2,0.4,3c0,0.2,0,0.4,0,0.6c0,0.1,0,0.3,0,0.5
			c0.1,0.4,0,0.8-0.2,1.2c-0.1,0-0.1,0.1-0.2,0C37.6,34.4,36.5,34.3,35.4,34.2C35.5,34.5,35.4,34.2,35.4,34.2z"/>
	</g>
</g>
</svg>
