<?xml version="1.0" encoding="utf-8"?>
<!-- Generator: Adobe Illustrator 18.0.0, SVG Export Plug-In . SVG Version: 6.00 Build 0)  -->
<!DOCTYPE svg PUBLIC "-//W3C//DTD SVG 1.0//EN" "http://www.w3.org/TR/2001/REC-SVG-20010904/DTD/svg10.dtd">
<svg version="1.0" id="Camada_1" xmlns="http://www.w3.org/2000/svg" xmlns:xlink="http://www.w3.org/1999/xlink" x="0px" y="0px"
	 viewBox="0 0 247.3 80.8" enable-background="new 0 0 247.3 80.8" xml:space="preserve">
<g>
	<path fill="#020202" d="M44.2,25c0,0,0.1-0.1,0.2-0.1c0.1,0,0.2-0.1,0.3-0.1c0.1,0,0.3-0.1,0.4-0.1c0.8-0.1,1.5-0.2,2.3-0.3
		c0.2,0,0.4,0,0.7,0c1.9,0,3.7,0,5.6,0.4c0,0,0.1,0.1,0.1,0.1c0,0,0.1,0.1,0.1,0.1c0,0.1,0,0.3-0.1,0.4c0,0.1,0,0.3,0,0.4
		c0,0.5-0.1,0.9-0.1,1.4c-0.1,1.5-0.3,3.1-0.5,4.6c0,0.9-0.2,1.8-0.2,2.8c0,0.2,0,0.4-0.1,0.6c0,0.2,0,0.4,0,0.6c0,0.2,0,0.4,0,0.6
		c0,0.2,0,0.4,0,0.6c0,0.2,0,0.4,0,0.6c0,0.2,0,0.4,0,0.6c-0.2,1.9-0.2,4,0,6c0.1,0.8,0.1,1.6,0.3,2.4c0.1,0.6,0.3,1.2,0.4,1.8
		c0.2,0.6,0.3,1.4,0.7,2c0,0.1,0.1,0.2,0.1,0.4c0.1,0.1,0.1,0.2,0.2,0.3c0.1,0.1,0.1,0.2,0.2,0.3c0.3,0.6,1.1,1.4,1.7,1.7
		c0.3,0.2,0.6,0.3,1,0.4c0.5,0.2,1,0.3,1.5,0.3c0.9,0,1.8-0.3,2.6-0.4c0.1,0,0.2-0.1,0.3-0.2c0.1,0,0.2-0.1,0.3-0.1
		c0.4-0.2,0.8-0.5,1-0.9c0.1-0.1,0.2-0.2,0.3-0.3c0.1-0.1,0.1-0.2,0.2-0.3c0.1-0.1,0.1-0.2,0.2-0.3c0.1-0.1,0.1-0.2,0.2-0.3
		c0.4-0.7,0.7-1.4,0.9-2.2c0-0.1,0.1-0.3,0.1-0.4c0-0.1,0.1-0.3,0.1-0.4c0.1-0.4,0.1-0.9,0.2-1.3c0.1-0.6,0.2-1.3,0.2-2
		c0-0.2,0-0.3,0-0.5c0.1-1.6,0-3.2,0-4.8c0-0.6-0.1-1.1-0.1-1.7c0-0.2,0-0.4,0-0.6c0-0.2,0-0.4,0-0.6c0-0.6-0.1-1.1-0.1-1.7
		c0-3-0.5-6.5-1.1-9.5c0,0,0-0.1,0.1-0.1c0,0,0.1-0.1,0.1-0.1c0.1,0,0.2,0,0.3-0.1c0.1,0,0.2,0,0.4-0.1c0.1,0,0.3-0.1,0.4-0.1
		c0.6-0.1,1.1-0.2,1.7-0.2c0.2,0,0.4,0,0.6,0c1.1-0.1,2.2,0,3.3,0c0.2,0,0.4,0,0.6,0c0.6,0,1.2,0.1,1.7,0.3c0.1,0,0.1,0.1,0.2,0.1
		c0,0,0,0,0.1,0.1c0.3,0.9,0.6,1.8,0.8,2.8c0.1,0.5,0.2,1,0.3,1.4c0,0.1,0.1,0.3,0.1,0.5c0,0.2,0.1,0.3,0.1,0.5
		c0,0.2,0.1,0.3,0.1,0.5c0,0.1,0.1,0.3,0.1,0.5c0.5,2.2,0.7,4.5,1,6.8c0,0.5,0.1,1.1,0.1,1.6c0,0.2,0,0.3,0,0.5c0,0.2,0,0.4,0,0.6
		c0.2,2.2,0.3,4.6,0,6.9c0,0.2,0,0.3,0,0.5c-0.1,1.8-0.3,3.7-0.9,5.5c-0.1,0.5-0.2,0.9-0.4,1.4C75.1,56,74.6,57,74.3,58
		c-0.1,0.1-0.1,0.3-0.2,0.4c-0.1,0.1-0.1,0.3-0.2,0.4c-0.1,0.1-0.1,0.3-0.2,0.4c-0.1,0.1-0.1,0.3-0.2,0.4c-0.2,0.4-0.4,0.8-0.7,1.2
		c-0.5,0.9-1.2,1.7-1.8,2.4c-0.4,0.4-0.8,0.8-1.3,1.2c-0.1,0.1-0.2,0.2-0.3,0.3c-0.1,0.1-0.2,0.2-0.3,0.3c-0.7,0.5-1.4,1-2.2,1.4
		c-0.1,0.1-0.3,0.1-0.4,0.2c-0.1,0-0.3,0.1-0.4,0.2c-0.1,0-0.3,0.1-0.4,0.1c-0.1,0-0.3,0.1-0.4,0.1c-0.1,0.1-0.3,0.1-0.4,0.1
		c-0.5,0.1-0.9,0.3-1.4,0.4C61.6,68.1,59.7,68,58,68c-0.2,0-0.4,0-0.6,0c-0.2,0-0.3,0-0.5-0.1c-0.7-0.1-1.4-0.2-2-0.3
		c-0.1,0-0.3-0.1-0.5-0.1c-0.9-0.2-1.8-0.5-2.6-0.9c-0.1,0-0.3-0.1-0.4-0.2c-0.1-0.1-0.3-0.1-0.4-0.2c-2-0.8-3.6-2.7-4.9-4.3
		c-0.1-0.1-0.2-0.2-0.3-0.3c-0.1-0.1-0.2-0.2-0.3-0.4c-0.4-0.6-0.7-1.3-1.1-1.9c-0.1-0.1-0.1-0.3-0.2-0.4c-0.1-0.1-0.1-0.3-0.2-0.4
		c-0.1-0.1-0.1-0.3-0.2-0.4c-0.1-0.1-0.1-0.3-0.2-0.4c-0.8-1.7-1.3-3.7-1.6-5.5c-0.2-1.2-0.4-2.4-0.5-3.5c-0.1-0.9-0.1-1.8-0.2-2.6
		c0-1.9-0.1-3.9,0.1-5.9c0-0.2,0-0.3,0-0.5c0-0.2,0-0.4,0-0.6c0-0.2,0-0.3,0-0.5c0.1-2.5,0.7-4.9,1-7.3c0.1-0.5,0.2-1,0.3-1.5
		c0-0.2,0.1-0.3,0.1-0.5c0.1-0.5,0.2-1,0.3-1.4c0-0.2,0.1-0.3,0.1-0.5C43.6,26.8,43.9,25.2,44.2,25C44.3,25,44.2,25.1,44.2,25
		C44.3,25,44.2,25.1,44.2,25z"/>
	<path fill="#020202" d="M103.7,48.9c0,0.1,0.2,0.3,0.5,0.4c2.5,1.4,4.5,5.4,5.9,7.8c1.1,1.9,1.6,4,2.5,6c0,0.1,0.1,0.3,0.1,0.4
		c0.2,0.5,0.3,1.1,0.3,1.7c0.1,0.4,0.2,1,0,1.4c0,0,0,0,0,0.1c0,0,0,0,0,0.1c-1.4,0.7-3.1,0.6-4.7,0.8c-0.2,0-0.4,0-0.6,0
		c-0.2,0-0.4,0-0.6,0c-2.1,0.2-5.3,0.4-7.2-0.5c-0.1,0-0.2-0.1-0.3-0.1c-1-0.9-0.9-3.1-1.1-4.2c0-0.1-0.1-0.3-0.1-0.5
		c0-0.1-0.1-0.3-0.1-0.5c-0.1-0.5-0.3-1-0.4-1.5c-0.1-0.2-0.1-0.3-0.2-0.5c-0.1-0.2-0.1-0.4-0.2-0.6c-1-2.3-2-4.2-3.5-6.1
		c0,0,0,0.1,0,0.1c0.1,0.3,0.1,0.5,0.1,0.8c0,0.1,0,0.3,0,0.4c0,0.1,0,0.3,0,0.4c0,0.2,0,0.3,0.1,0.5c0,0.2,0,0.3,0,0.5
		c0,0.2,0,0.4,0,0.6c0,0.6,0.1,1.2,0.1,1.8c0,0.2,0,0.4,0,0.7c0,0.2,0,0.4,0,0.7c0.1,1.6,0,3.3,0,4.9c0,0.2,0,0.3,0,0.5
		c-0.1,0.5-0.2,1-0.3,1.5c0,0.1-0.1,0.1-0.1,0.2c0,0-0.1,0.1-0.1,0.1c-0.1,0-0.1,0.1-0.2,0.1c-0.1,0-0.2,0.1-0.3,0.1
		c-0.1,0-0.2,0.1-0.3,0.1c-1,0.2-2,0.3-2.9,0.4c-0.2,0-0.4,0-0.6,0c-0.2,0-0.4,0-0.6,0c-1.4,0.1-2.8,0.1-4.2,0c-0.2,0-0.4,0-0.6,0
		c-0.2,0-0.3,0-0.5,0c-0.8,0-1.7-0.2-2.4-0.5c0,0,0,0,0-0.1c0,0,0,0,0-0.1c0,0,0-0.1,0-0.1c0,0,0-0.1,0-0.1c0,0,0-0.1,0-0.2
		c0,0,0-0.1,0-0.2c0-0.1,0-0.1,0-0.2c0-0.3-0.1-0.5-0.1-0.8c0-0.1,0-0.2,0-0.3c-1.7-10.5,0.1-21.6,0.1-32.2c0.1-0.8,0.1-1.6,0.1-2.4
		c0.1-0.4,0.1-0.8,0.1-1.3c0-0.1,0-0.2,0-0.4c0.1-0.3,0.1-0.7,0.1-1c0-0.3,0.1-0.6,0.1-0.8c0-0.1,0-0.1,0-0.2c0-0.1,0-0.1,0-0.2
		c0-0.2,0.1-0.3,0.1-0.5c0,0,0,0,0-0.1l0-0.1c0,0,0,0,0-0.1c0,0,0.1,0,0.1-0.1c0,0,0.1-0.1,0.1-0.1c0.6-0.3,1.5-0.6,2.3-0.6
		c0.1,0,0.2,0,0.4,0c0.1,0,0.3,0,0.4,0c0.1,0,0.3,0,0.4,0c5.9-0.6,14.1-0.8,19.5,2.4c0.1,0.1,0.3,0.2,0.4,0.3
		c0.8,0.5,1.6,1.1,2.2,1.8c0.1,0.1,0.2,0.2,0.3,0.3c2.3,2.9,3,5.6,3.4,9.1c0,1.9-0.2,2.9-0.7,4.5c-0.1,0.1-0.1,0.3-0.2,0.4
		c-0.1,0.1-0.1,0.3-0.2,0.4c-0.1,0.1-0.2,0.3-0.3,0.4c-0.1,0.1-0.2,0.2-0.3,0.4c-0.3,0.5-0.7,1-1.2,1.4c-0.4,0.4-0.9,0.8-1.5,1.2
		c-0.1,0.1-0.3,0.2-0.4,0.3c-0.1,0.1-0.3,0.2-0.4,0.3c-0.4,0.2-0.9,0.4-1.3,0.7c-0.1,0.1-0.3,0.2-0.4,0.2
		C103.8,48.7,103.7,48.8,103.7,48.9C103.7,49,103.7,48.8,103.7,48.9C103.7,49,103.7,48.8,103.7,48.9z M99,38.5c0-0.3,0-0.5,0-0.8
		c0-0.2-0.1-0.5-0.2-0.7c-0.1-0.2-0.1-0.4-0.2-0.7c-0.1-0.2-0.2-0.4-0.3-0.6c-0.1-0.2-0.2-0.3-0.4-0.5c-0.1-0.1-0.3-0.3-0.4-0.4
		c-0.1-0.1-0.3-0.2-0.5-0.4c-0.1-0.1-0.3-0.2-0.5-0.3c-0.2-0.1-0.3-0.2-0.5-0.3c-0.2-0.1-0.3-0.1-0.5-0.2c-0.5-0.2-1-0.3-1.5-0.4
		c-0.1,0-0.3,0-0.4,0c-0.1,0-0.2,0-0.4,0c-0.1,0-0.2,0-0.3,0c-0.1,0-0.2,0-0.3,0c-0.1,0-0.1,0-0.1,0c-0.1,0-0.1,0.1,0,0.2
		c0,0.1,0,0.2,0,0.3c0,0.1,0,0.2,0,0.3c0,0.9,0.1,1.9,0.2,2.8c0,0.5,0.1,1,0.1,1.5c0,0.6,0.1,1.2,0.1,1.8c0,0.6,0.1,1.3,0.1,1.9
		c0,0.2,0.1,0.4,0,0.7c-0.1,0.2-0.1,0.5,0,0.7c0,0,0.1,0.1,0.2,0c0.1,0,0.2,0,0.3,0c0.4,0,0.8-0.1,1.2-0.2c1.8-0.4,3.5-1.5,4.1-3.3
		C98.9,39.4,99,38.9,99,38.5C99,38.2,99,38.9,99,38.5z"/>
	<path fill="#020202" d="M116,25c0,0,0.1-0.1,0.2-0.1c0.1,0,0.2-0.1,0.3-0.1c0.1,0,0.3-0.1,0.4-0.1c0.8-0.1,1.5-0.2,2.3-0.3
		c0.2,0,0.4,0,0.7,0c1.9,0,3.7,0,5.6,0.4c0,0,0.1,0.1,0.1,0.1c0,0,0.1,0.1,0.1,0.1c0,0.1,0,0.3-0.1,0.4c0,0.1,0,0.3,0,0.4
		c0,0.5-0.1,0.9-0.1,1.4c-0.1,1.5-0.3,3.1-0.5,4.6c0,0.9-0.2,1.8-0.2,2.8c0,0.2,0,0.4-0.1,0.6c0,0.2,0,0.4,0,0.6c0,0.2,0,0.4,0,0.6
		c0,0.2,0,0.4,0,0.6c0,0.2,0,0.4,0,0.6c0,0.2,0,0.4,0,0.6c-0.2,1.9-0.2,4,0,6c0.1,0.8,0.1,1.6,0.3,2.4c0.1,0.6,0.3,1.2,0.4,1.8
		c0.2,0.6,0.3,1.4,0.7,2c0,0.1,0.1,0.2,0.1,0.4c0.1,0.1,0.1,0.2,0.2,0.3c0.1,0.1,0.1,0.2,0.2,0.3c0.3,0.6,1.1,1.4,1.7,1.7
		c0.3,0.2,0.6,0.3,1,0.4c0.5,0.2,1,0.3,1.5,0.3c0.9,0,1.8-0.3,2.6-0.4c0.1,0,0.2-0.1,0.3-0.2c0.1,0,0.2-0.1,0.3-0.1
		c0.4-0.2,0.8-0.5,1-0.9c0.1-0.1,0.2-0.2,0.3-0.3c0.1-0.1,0.1-0.2,0.2-0.3c0.1-0.1,0.1-0.2,0.2-0.3c0.1-0.1,0.1-0.2,0.2-0.3
		c0.4-0.7,0.7-1.4,0.9-2.2c0-0.1,0.1-0.3,0.1-0.4c0-0.1,0.1-0.3,0.1-0.4c0.1-0.4,0.1-0.9,0.2-1.3c0.1-0.6,0.2-1.3,0.2-2
		c0-0.2,0-0.3,0-0.5c0.1-1.6,0-3.2,0-4.8c0-0.6-0.1-1.1-0.1-1.7c0-0.2,0-0.4,0-0.6c0-0.2,0-0.4,0-0.6c0-0.6-0.1-1.1-0.1-1.7
		c0-3-0.5-6.5-1.1-9.5c0,0,0-0.1,0.1-0.1c0,0,0.1-0.1,0.1-0.1c0.1,0,0.2,0,0.3-0.1c0.1,0,0.2,0,0.4-0.1c0.1,0,0.3-0.1,0.4-0.1
		c0.6-0.1,1.1-0.2,1.7-0.2c0.2,0,0.4,0,0.6,0c1.1-0.1,2.2,0,3.3,0c0.2,0,0.4,0,0.6,0c0.6,0,1.2,0.1,1.7,0.3c0.1,0,0.1,0.1,0.2,0.1
		c0,0,0,0,0.1,0.1c0.3,0.9,0.6,1.8,0.8,2.8c0.1,0.5,0.2,1,0.3,1.4c0,0.1,0.1,0.3,0.1,0.5c0,0.2,0.1,0.3,0.1,0.5
		c0,0.2,0.1,0.3,0.1,0.5c0,0.1,0.1,0.3,0.1,0.5c0.5,2.2,0.7,4.5,1,6.8c0,0.5,0.1,1.1,0.1,1.6c0,0.2,0,0.3,0,0.5c0,0.2,0,0.4,0,0.6
		c0.2,2.2,0.3,4.6,0,6.9c0,0.2,0,0.3,0,0.5c-0.1,1.8-0.3,3.7-0.9,5.5c-0.1,0.5-0.2,0.9-0.4,1.4c-0.2,1.1-0.7,2.1-1.1,3.1
		c-0.1,0.1-0.1,0.3-0.2,0.4c-0.1,0.1-0.1,0.3-0.2,0.4c-0.1,0.1-0.1,0.3-0.2,0.4c-0.1,0.1-0.1,0.3-0.2,0.4c-0.2,0.4-0.4,0.8-0.7,1.2
		c-0.5,0.9-1.2,1.7-1.8,2.4c-0.4,0.4-0.8,0.8-1.3,1.2c-0.1,0.1-0.2,0.2-0.3,0.3c-0.1,0.1-0.2,0.2-0.3,0.3c-0.7,0.5-1.4,1-2.2,1.4
		c-0.1,0.1-0.3,0.1-0.4,0.2c-0.1,0-0.3,0.1-0.4,0.2c-0.1,0-0.3,0.1-0.4,0.1c-0.1,0-0.3,0.1-0.4,0.1c-0.1,0.1-0.3,0.1-0.4,0.1
		c-0.5,0.1-0.9,0.3-1.4,0.4c-1.7,0.5-3.5,0.4-5.3,0.4c-0.2,0-0.4,0-0.6,0c-0.2,0-0.3,0-0.5-0.1c-0.7-0.1-1.4-0.2-2-0.3
		c-0.1,0-0.3-0.1-0.5-0.1c-0.9-0.2-1.8-0.5-2.6-0.9c-0.1,0-0.3-0.1-0.4-0.2c-0.1-0.1-0.3-0.1-0.4-0.2c-2-0.8-3.6-2.7-4.9-4.3
		c-0.1-0.1-0.2-0.2-0.3-0.3c-0.1-0.1-0.2-0.2-0.3-0.4c-0.4-0.6-0.7-1.3-1.1-1.9c-0.1-0.1-0.1-0.3-0.2-0.4c-0.1-0.1-0.1-0.3-0.2-0.4
		c-0.1-0.1-0.1-0.3-0.2-0.4c-0.1-0.1-0.1-0.3-0.2-0.4c-0.8-1.7-1.3-3.7-1.6-5.5c-0.2-1.2-0.4-2.4-0.5-3.5c-0.1-0.9-0.1-1.8-0.2-2.6
		c0-1.9-0.1-3.9,0.1-5.9c0-0.2,0-0.3,0-0.5c0-0.2,0-0.4,0-0.6c0-0.2,0-0.3,0-0.5c0.1-2.5,0.7-4.9,1-7.3c0.1-0.5,0.2-1,0.3-1.5
		c0-0.2,0.1-0.3,0.1-0.5c0.1-0.5,0.2-1,0.3-1.4c0-0.2,0.1-0.3,0.1-0.5C115.4,26.8,115.7,25.2,116,25C116,25,115.9,25.1,116,25
		C116,25,115.9,25.1,116,25z"/>
	<path fill="#020202" d="M152.2,67.5L152.2,67.5c0-0.3,0-0.6,0-0.8c0-0.1,0-0.1,0-0.2c0-0.1,0-0.1,0-0.2c0-0.1,0-0.2,0-0.3
		c0-0.1,0-0.2,0-0.3c0.5-1.7,0.6-3.6,1.1-5.3c0-0.2,0.1-0.3,0.1-0.5c0-0.2,0.1-0.3,0.1-0.5c0-0.2,0.1-0.4,0.1-0.6
		c0.1-0.6,0.2-1.1,0.4-1.7c1.5-9.2,4.9-18.1,6.5-27.3c0-0.1,0.1-0.3,0.1-0.4c0-0.1,0.1-0.3,0.1-0.4c0-0.1,0.1-0.3,0.1-0.4
		c0.3-0.9,0.5-1.7,0.7-2.6c0.1-0.2,0.2-0.4,0.2-0.6c0-0.1,0-0.1,0.1-0.2c0,0,0-0.1,0-0.1c0,0,0-0.1,0-0.1c0,0,0-0.1,0-0.1
		c0.1-0.1,0.1-0.1,0.2-0.1c0.1,0,0.1-0.1,0.2-0.1c0.1,0,0.2,0,0.3-0.1c0.1,0,0.3,0,0.4,0c0.1,0,0.3,0,0.4,0c1.9-0.1,3.8-0.2,5.6,0
		c0.2,0,0.4,0,0.6,0c0.6,0,1.4,0.1,2,0.3c0,0,0.1,0,0.1,0.1c0,0,0,0,0.1,0.1c0,0,0,0.1,0,0.1c0,0.1,0,0.1,0.1,0.2
		c0,0.1,0,0.2,0.1,0.3c0.1,0.4,0.2,0.8,0.3,1.1c0,0.2,0.1,0.3,0.1,0.5c0,0.2,0.1,0.3,0.1,0.5c0,0.2,0.1,0.4,0.1,0.6
		c0,0.2,0.1,0.4,0.1,0.6c0,0.2,0.1,0.4,0.1,0.6c0.1,0.7,0.2,1.3,0.4,2c0.1,0.7,0.2,1.4,0.4,2c0.1,0.7,0.2,1.4,0.3,2
		c0,0.2,0.1,0.4,0.1,0.7c0,0.2,0.1,0.4,0.1,0.6c0.2,1.3,0.3,2.7,0.7,3.9c0,0.1,0,0.1,0,0.2c0,0,0,0.1,0,0.1v0v0c0,0,0-0.1,0-0.1
		c0,0,0-0.1,0-0.1c0-0.1,0-0.2,0-0.3c0-0.1,0-0.2,0-0.3c0.2-0.9,0.4-1.8,0.5-2.7c0-0.2,0.1-0.4,0.1-0.6c0-0.2,0.1-0.4,0.1-0.6
		c0-0.2,0.1-0.4,0.1-0.6c0.5-3.1,1-6.3,2-9.3c0-0.1,0.1-0.3,0.1-0.4c0-0.1,0.1-0.2,0.1-0.4c0-0.1,0.1-0.2,0.1-0.3
		c0-0.1,0-0.2,0.1-0.3c0-0.1,0.1-0.1,0.1-0.2c0.1-0.5,1.6-0.3,2-0.3c0.2,0,0.4,0,0.6,0c0.6-0.1,1.3-0.1,1.9-0.1c1.4-0.1,2.9,0,4.3,0
		c0.1,0,0.3,0,0.4,0c0.1,0,0.2,0,0.3,0.1c0.1,0,0.2,0,0.3,0c0,0,0.1,0.1,0.1,0.1h0c0,0,0,0,0,0.1c0,0,0,0,0,0.1c0,0,0,0.1,0,0.1
		c0,0.2,0.1,0.3,0.1,0.5c0.1,0.2,0.1,0.5,0.2,0.7c0,0.1,0,0.2,0.1,0.3c0.3,0.6,0.4,1.4,0.6,2.1c0,0.1,0.1,0.3,0.1,0.4
		c0,0.1,0.1,0.3,0.1,0.4c0,0.1,0.1,0.3,0.1,0.4c0,0.1,0.1,0.3,0.1,0.4c0,0.2,0.1,0.3,0.1,0.5c2.3,9.5,5.4,19.1,6.8,28.8
		c0,0.2,0.1,0.3,0.1,0.5c0,0.2,0.1,0.3,0.1,0.5c0,0.2,0.1,0.3,0.1,0.5c0,0.1,0,0.3,0.1,0.5c0.3,1.5,0.5,3.1,0.9,4.5
		c0,0.1,0,0.2,0,0.3c0,0.1,0,0.1,0,0.2c0,0.1,0,0.1,0,0.2c0.1,0.3,0.1,0.5,0.1,0.8c0,0-0.1,0-0.1,0c0,0-0.1,0-0.1,0.1
		c-0.1,0-0.2,0-0.3,0c-0.1,0-0.2,0-0.3,0.1c-0.1,0-0.2,0-0.4,0c-0.1,0-0.3,0-0.4,0c-0.2,0-0.3,0-0.5,0c-0.2,0-0.4,0-0.6,0
		c-0.2,0-0.4,0-0.6,0c-2.4,0.2-4.8,0-7.2,0c-0.2,0-0.4,0-0.6,0c-0.1,0-0.3,0-0.5,0c-0.2,0-0.3,0-0.5,0c-0.1,0-0.3,0-0.4,0
		c-0.1,0-0.2,0-0.3-0.1c-0.1,0-0.2,0-0.3,0c-0.1,0-0.1,0-0.2-0.1c-0.1,0-0.1,0-0.1,0c0,0,0-0.1,0-0.1c0,0-0.1-0.1-0.1-0.1
		c0-0.1,0-0.1-0.1-0.2c0-0.1-0.1-0.2-0.1-0.3c0-0.1,0-0.2-0.1-0.3c-0.1-0.4-0.2-0.8-0.3-1.1c-0.1-0.5-0.2-1-0.3-1.5
		c-0.1-0.6-0.2-1.2-0.3-1.7c0-0.2-0.1-0.4-0.1-0.6c-0.1-0.7-0.2-1.3-0.4-2c-0.1-0.7-0.2-1.4-0.4-2c-0.1-0.7-0.2-1.4-0.3-2
		c-0.1-0.2-0.1-0.4-0.1-0.7c-0.1-0.2-0.1-0.4-0.1-0.7c0-0.2-0.1-0.4-0.1-0.6c0-0.2-0.1-0.4-0.1-0.6c-0.3-1.4-0.4-2.8-0.7-4.2
		c-0.1-0.2-0.1-0.5-0.1-0.7v0v0c0,0,0,0,0,0.1c0,0,0,0.1,0,0.1c0,0.1-0.1,0.1-0.1,0.2c0,0.1-0.1,0.2-0.1,0.3
		c-0.6,1.3-0.8,2.8-1.3,4.2c-1.1,3.3-2,6.6-3.4,9.8c0,0.2-0.1,0.3-0.2,0.5c-0.1,0.1-0.1,0.3-0.1,0.4c-0.2,0.6-0.4,1.1-0.8,1.6
		c0,0-0.1,0.1-0.1,0.1c-0.1,0.2-0.3,0.2-0.4,0c0-0.1-0.1-0.1-0.1-0.2c-0.1-0.1-0.1-0.2-0.1-0.3c-0.1-0.1-0.1-0.2-0.2-0.3
		c0-0.1-0.1-0.2-0.1-0.3c0-0.1-0.1-0.2-0.2-0.4c-0.1-0.1-0.1-0.3-0.2-0.4c-1.6-3.7-3.2-7.7-4.3-11.6c-0.3-0.7-0.5-1.5-0.8-2.3
		c0-0.1-0.1-0.2-0.1-0.3c0-0.1-0.1-0.2-0.1-0.3c0-0.1,0-0.2-0.1-0.3c0,0-0.1-0.1-0.1-0.2c0,0,0-0.1,0-0.1c0,0,0,0,0-0.1v0v0
		c0,0,0,0,0,0.1c-0.1,0.2-0.1,0.4-0.1,0.6c0,0.1,0,0.2,0,0.3c0,0.1-0.1,0.2-0.1,0.4c-0.3,3.7-1,7.3-1.4,10.9
		c-0.1,0.6-0.2,1.2-0.3,1.9c-0.3,1.1-0.2,3.9-1.1,4.7c0,0,0,0.1-0.1,0.1c0,0-0.1,0-0.1,0c-0.1,0-0.1,0-0.2,0.1c-0.1,0-0.2,0-0.3,0
		c-0.4,0.1-0.8,0.1-1.2,0.1c-0.1,0-0.3,0-0.5,0c-0.2,0-0.4,0-0.6,0c-0.2,0-0.4,0-0.6,0c-2.5,0.2-5.1,0.3-7.5,0c-0.2,0-0.3,0-0.5,0
		c-0.4,0-1.2,0-1.6-0.3C152.3,67.6,152.2,67.5,152.2,67.5z"/>
	<path fill="#020202" d="M201.7,25c0,0,0.1-0.1,0.2-0.1c0.1,0,0.2-0.1,0.3-0.1c0.1,0,0.3-0.1,0.4-0.1c0.8-0.1,1.5-0.2,2.3-0.3
		c0.2,0,0.4,0,0.7,0c1.9,0,3.7,0,5.6,0.4c0,0,0.1,0.1,0.1,0.1c0,0,0.1,0.1,0.1,0.1c0,0.1,0,0.3-0.1,0.4c0,0.1,0,0.3,0,0.4
		c0,0.5-0.1,0.9-0.1,1.4c-0.1,1.5-0.3,3.1-0.5,4.6c0,0.9-0.2,1.8-0.2,2.8c0,0.2,0,0.4-0.1,0.6c0,0.2,0,0.4,0,0.6c0,0.2,0,0.4,0,0.6
		c0,0.2,0,0.4,0,0.6c0,0.2,0,0.4,0,0.6c0,0.2,0,0.4,0,0.6c-0.2,1.9-0.2,4,0,6c0.1,0.8,0.1,1.6,0.3,2.4c0.1,0.6,0.3,1.2,0.4,1.8
		c0.2,0.6,0.3,1.4,0.7,2c0,0.1,0.1,0.2,0.1,0.4c0.1,0.1,0.1,0.2,0.2,0.3c0.1,0.1,0.1,0.2,0.2,0.3c0.3,0.6,1.1,1.4,1.7,1.7
		c0.3,0.2,0.6,0.3,1,0.4c0.5,0.2,1,0.3,1.5,0.3c0.9,0,1.8-0.3,2.6-0.4c0.1,0,0.2-0.1,0.3-0.2c0.1,0,0.2-0.1,0.3-0.1
		c0.4-0.2,0.8-0.5,1-0.9c0.1-0.1,0.2-0.2,0.3-0.3c0.1-0.1,0.1-0.2,0.2-0.3c0.1-0.1,0.1-0.2,0.2-0.3c0.1-0.1,0.1-0.2,0.2-0.3
		c0.4-0.7,0.7-1.4,0.9-2.2c0-0.1,0.1-0.3,0.1-0.4c0-0.1,0.1-0.3,0.1-0.4c0.1-0.4,0.1-0.9,0.2-1.3c0.1-0.6,0.2-1.3,0.2-2
		c0-0.2,0-0.3,0-0.5c0.1-1.6,0-3.2,0-4.8c0-0.6-0.1-1.1-0.1-1.7c0-0.2,0-0.4,0-0.6c0-0.2,0-0.4,0-0.6c0-0.6-0.1-1.1-0.1-1.7
		c0-3-0.5-6.5-1.1-9.5c0,0,0-0.1,0.1-0.1c0,0,0.1-0.1,0.1-0.1c0.1,0,0.2,0,0.3-0.1c0.1,0,0.2,0,0.4-0.1c0.1,0,0.3-0.1,0.4-0.1
		c0.6-0.1,1.1-0.2,1.7-0.2c0.2,0,0.4,0,0.6,0c1.1-0.1,2.2,0,3.3,0c0.2,0,0.4,0,0.6,0c0.6,0,1.2,0.1,1.7,0.3c0.1,0,0.1,0.1,0.2,0.1
		c0,0,0,0,0.1,0.1c0.3,0.9,0.6,1.8,0.8,2.8c0.1,0.5,0.2,1,0.3,1.4c0,0.1,0.1,0.3,0.1,0.5c0,0.2,0.1,0.3,0.1,0.5
		c0,0.2,0.1,0.3,0.1,0.5c0,0.1,0.1,0.3,0.1,0.5c0.5,2.2,0.7,4.5,1,6.8c0,0.5,0.1,1.1,0.1,1.6c0,0.2,0,0.3,0,0.5c0,0.2,0,0.4,0,0.6
		c0.2,2.2,0.3,4.6,0,6.9c0,0.2,0,0.3,0,0.5c-0.1,1.8-0.3,3.7-0.9,5.5c-0.1,0.5-0.2,0.9-0.4,1.4c-0.2,1.1-0.7,2.1-1.1,3.1
		c-0.1,0.1-0.1,0.3-0.2,0.4c-0.1,0.1-0.1,0.3-0.2,0.4c-0.1,0.1-0.1,0.3-0.2,0.4c-0.1,0.1-0.1,0.3-0.2,0.4c-0.2,0.4-0.4,0.8-0.7,1.2
		c-0.5,0.9-1.2,1.7-1.8,2.4c-0.4,0.4-0.8,0.8-1.3,1.2c-0.1,0.1-0.2,0.2-0.3,0.3c-0.1,0.1-0.2,0.2-0.3,0.3c-0.7,0.5-1.4,1-2.2,1.4
		c-0.1,0.1-0.3,0.1-0.4,0.2c-0.1,0-0.3,0.1-0.4,0.2c-0.1,0-0.3,0.1-0.4,0.1c-0.1,0-0.3,0.1-0.4,0.1c-0.1,0.1-0.3,0.1-0.4,0.1
		c-0.5,0.1-0.9,0.3-1.4,0.4c-1.7,0.5-3.5,0.4-5.3,0.4c-0.2,0-0.4,0-0.6,0c-0.2,0-0.3,0-0.5-0.1c-0.7-0.1-1.4-0.2-2-0.3
		c-0.1,0-0.3-0.1-0.5-0.1c-0.9-0.2-1.8-0.5-2.6-0.9c-0.1,0-0.3-0.1-0.4-0.2c-0.1-0.1-0.3-0.1-0.4-0.2c-2-0.8-3.6-2.7-4.9-4.3
		c-0.1-0.1-0.2-0.2-0.3-0.3c-0.1-0.1-0.2-0.2-0.3-0.4c-0.4-0.6-0.7-1.3-1.1-1.9c-0.1-0.1-0.1-0.3-0.2-0.4c-0.1-0.1-0.1-0.3-0.2-0.4
		c-0.1-0.1-0.1-0.3-0.2-0.4c-0.1-0.1-0.1-0.3-0.2-0.4c-0.8-1.7-1.3-3.7-1.6-5.5c-0.2-1.2-0.4-2.4-0.5-3.5c-0.1-0.9-0.1-1.8-0.2-2.6
		c0-1.9-0.1-3.9,0.1-5.9c0-0.2,0-0.3,0-0.5c0-0.2,0-0.4,0-0.6c0-0.2,0-0.3,0-0.5c0.1-2.5,0.7-4.9,1-7.3c0.1-0.5,0.2-1,0.3-1.5
		c0-0.2,0.1-0.3,0.1-0.5c0.1-0.5,0.2-1,0.3-1.4c0-0.2,0.1-0.3,0.1-0.5C201.1,26.8,201.4,25.2,201.7,25C201.7,25,201.6,25.1,201.7,25
		C201.7,25,201.6,25.1,201.7,25z"/>
</g>
<g>
	<g>
		<path fill="#1B7C09" d="M35.4,34.2c0.5,2.9,1.1,6.1,1.1,9.1c0,0.2,0,0.3,0.1,0.5c0,0.2,0,0.3,0,0.5c0,0.2,0,0.3,0,0.5
			c0,0.2,0,0.3,0,0.5c0,0.1,0,0.3,0,0.5c0,0.2,0,0.3,0,0.5c0.2,2.3,0.4,4.7,0,6.9c0,0.3-0.1,0.7-0.1,1c0,0.1,0,0.2,0,0.3
			c-0.3,1.1-0.6,2.3-0.9,3.4c-0.2,0.5-0.4,1-0.6,1.5c-0.1,0.1-0.1,0.3-0.2,0.5c-0.1,0.1-0.1,0.3-0.2,0.5c-0.1,0.1-0.1,0.3-0.2,0.4
			c-0.3,0.6-0.7,1.1-1,1.7c-0.1,0.1-0.2,0.3-0.3,0.4c-0.3,0.3-0.6,0.7-0.9,1.1c-0.3,0.3-0.6,0.6-1,0.9c-0.1,0.1-0.2,0.2-0.3,0.3
			c-0.1,0.1-0.2,0.2-0.4,0.3c-0.1,0.1-0.2,0.2-0.3,0.3c-1.2,0.7-2.3,1.2-3.6,1.6c-0.1,0-0.3,0-0.4,0.1c-1.4,0.5-2.8,0.3-4.2,0.3
			c-0.2,0-0.3,0-0.5-0.1c-1.8,0-3.3-0.6-4.7-1.6c-0.5-0.3-0.9-0.7-1.3-1.1c-0.5-0.5-1-1.1-1.4-1.8c-0.1-0.1-0.2-0.3-0.3-0.5
			c-0.1-0.1-0.2-0.3-0.3-0.5c-0.2-0.5-0.4-1-0.6-1.5c-0.1-0.2-0.1-0.3-0.1-0.5c-0.1-0.1-0.1-0.3-0.2-0.5c-0.4-1.5-0.6-3-0.6-4.5
			c0-0.1,0-0.1,0-0.2c0.1-0.4,0.3-0.7,0.6-0.8c0.1-0.1,0.2-0.2,0.3-0.3c0.4-0.3,0.9-0.5,1.3-0.8c0.2-0.1,0.4-0.2,0.6-0.3
			c0.8-0.3,1.5-0.6,2.3-0.8c1.2-0.5,2.5-0.7,3.8-0.7c0,0,0.1,0,0.1,0.1c0,0,0,0.1,0,0.1c0,0,0,0.1,0,0.2c0,0.4,0,0.7,0,1.1
			c0,0.1,0,0.2,0,0.4c0,0.7-0.2,1.4-0.3,2.1c0,0.1,0,0.3,0,0.4c0,0.1,0,0.3,0,0.4c0,0.7-0.1,1.9,0.4,2.5c0.4,0.7,1.4,0.9,2.2,0.7
			c0.3,0,0.5-0.1,0.7-0.3c0.1,0,0.1-0.1,0.2-0.1c0.1,0,0.1-0.1,0.2-0.2c0,0,0.1-0.1,0.1-0.1c0.2-0.3,0.4-0.6,0.6-1
			c0-0.1,0.1-0.2,0.1-0.3c0-0.1,0.1-0.2,0.1-0.3c0-0.1,0-0.2,0.1-0.3c0.3-0.8,0.4-1.8,0.5-2.7c0-0.1,0-0.3,0-0.4c0-0.1,0-0.3,0-0.4
			c-0.1-1.5,0-3,0-4.5c0-0.2,0-0.3,0-0.5c0-0.2,0-0.4,0-0.6c0-0.2,0-0.4-0.1-0.6c-0.3-4.3-1-8.8-1.8-12.9c-0.3,0.1-0.6,0.1-0.9,0.1
			c-2.5,0.4-5,0.6-7.4,0.9c-0.1,0-0.3,0-0.5,0c-0.1,0-0.3,0-0.4,0c-0.1,0-0.2,0-0.3,0c-0.2,0-0.3-0.1-0.4-0.2
			c-0.7-1.5-0.7-3.5-0.7-5.1c-0.1-1,0-1.9,0-2.9c0-0.9,0.1-1.2,0.7-1.6c0.1,0,0.2-0.1,0.3-0.1c0.1,0,0.2,0,0.4-0.1
			c1.5-0.4,3-0.5,4.6-0.7c0.2,0,0.3,0,0.5,0c0.2,0,0.4,0,0.6,0c0.2,0,0.4,0,0.6,0c0.2,0,0.4,0,0.6,0c2.1-0.3,4.3,0,6.4,0
			c0.6,0,1.1,0.1,1.7,0.1c0.2,0,0.4,0,0.6,0c0.2,0,0.4,0,0.6,0c0.2,0,0.3,0,0.5,0.1c0.2,0,0.3,0,0.5,0c0.5,0,1,0.1,1.5,0.1
			c1.2,0,3.6,0.2,4.4,1c0.5,0.7,0.7,1.7,0.8,2.5c0,0.2,0.1,0.4,0.1,0.6c0.2,1,0.3,2,0.4,3c0,0.2,0,0.4,0,0.6c0,0.1,0,0.3,0,0.5
			c0.1,0.4,0,0.8-0.2,1.2c-0.1,0-0.1,0.1-0.2,0C37.6,34.4,36.5,34.3,35.4,34.2C35.5,34.5,35.4,34.2,35.4,34.2z"/>
	</g>
</g>
</svg>
