<?xml version="1.0" encoding="utf-8"?>
<!-- Generator: Adobe Illustrator 18.0.0, SVG Export Plug-In . SVG Version: 6.00 Build 0)  -->
<!DOCTYPE svg PUBLIC "-//W3C//DTD SVG 1.1//EN" "http://www.w3.org/Graphics/SVG/1.1/DTD/svg11.dtd">
<svg version="1.1" id="Camada_1" xmlns="http://www.w3.org/2000/svg" xmlns:xlink="http://www.w3.org/1999/xlink" x="0px" y="0px"
	 viewBox="0 109.1 16 16" enable-background="new 0 109.1 16 16" xml:space="preserve">
<g>
	<g>
		<path fill="#EBAC29" d="M8,109.3c-4.4,0-7.9,3.5-7.9,7.9c0,4.4,3.5,7.9,7.9,7.9c4.4,0,7.9-3.5,7.9-7.9
			C15.9,112.8,12.4,109.3,8,109.3z M5.5,120.9"/>
		<path fill="#FFE388" d="M8,109.7c-4.1,0-7.5,3.4-7.5,7.5c0,4.1,3.4,7.5,7.5,7.5c4.1,0,7.5-3.4,7.5-7.5
			C15.5,113,12.2,109.7,8,109.7z"/>
		<path fill="#FFEDBB" d="M8.5,124.2c-4,0-7.3-3.3-7.3-7.3c0-0.1,0-0.2,0-0.3c-0.1,0.4-0.1,0.8-0.1,1.2c0,3.6,3,6.6,6.6,6.6
			c0.6,0,1.2-0.1,1.8-0.2C9.1,124.2,8.8,124.2,8.5,124.2z"/>
		<ellipse fill="#FFEDBB" cx="8.1" cy="114.5" rx="6.1" ry="4.4"/>
	</g>
	<g>
		<path fill="#EBAC29" d="M3.6,114.7v-0.3c0-0.2,0.2-0.4,0.4-0.4H12c0.2,0,0.4,0.2,0.4,0.4v0.3c0,0.2-0.2,0.4-0.4,0.4H4.1
			C3.8,115.2,3.6,115,3.6,114.7z"/>
		<path fill="#EBAC29" d="M3.6,117.3V117c0-0.2,0.2-0.4,0.4-0.4H12c0.2,0,0.4,0.2,0.4,0.4v0.3c0,0.2-0.2,0.4-0.4,0.4H4.1
			C3.8,117.8,3.6,117.6,3.6,117.3z"/>
		<path fill="#EBAC29" d="M3.6,119.9v-0.3c0-0.2,0.2-0.4,0.4-0.4H12c0.2,0,0.4,0.2,0.4,0.4v0.3c0,0.2-0.2,0.4-0.4,0.4H4.1
			C3.8,120.4,3.6,120.2,3.6,119.9z"/>
	</g>
</g>
</svg>
