<?xml version="1.0" encoding="utf-8"?>
<!-- Generator: Adobe Illustrator 18.0.0, SVG Export Plug-In . SVG Version: 6.00 Build 0)  -->
<!DOCTYPE svg PUBLIC "-//W3C//DTD SVG 1.0//EN" "http://www.w3.org/TR/2001/REC-SVG-20010904/DTD/svg10.dtd">
<svg version="1.0" id="Camada_1" xmlns="http://www.w3.org/2000/svg" xmlns:xlink="http://www.w3.org/1999/xlink" x="0px" y="0px"
	 viewBox="0 0 171.7 79.2" enable-background="new 0 0 171.7 79.2" xml:space="preserve">
<g>
	<path fill="#020202" d="M63.5,23.9C63.5,23.9,63.6,23.8,63.5,23.9c0.1-0.1,0.2-0.1,0.2-0.1c0.1,0,0.1,0,0.2-0.1c0.1,0,0.2,0,0.3,0
		c0.1,0,0.2,0,0.3-0.1c0.7,0,1.4-0.2,2-0.3c0.5,0,1.1-0.1,1.6-0.1c0.2,0,0.4,0,0.6-0.1c0.2,0,0.4,0,0.6,0c0.2,0,0.4,0,0.6,0
		c0.2,0,0.4,0,0.6,0c0.2,0,0.4,0,0.6,0c0.2,0,0.4,0,0.7,0c2.9-0.2,5.9-0.1,8.8-0.1c0.5,0,0.9,0.1,1.4,0.1c0.4,0,0.8,0.1,1.1,0.1
		c0.1,0,0.2,0,0.3,0c0.3,0,0.5,0.1,0.6,0.3c0,0.1,0.1,0.1,0.1,0.2c0,0.1,0.1,0.2,0.1,0.3c0.3,1,0.4,2.1,0.4,3.1c0,0.2,0,0.4,0,0.6
		c0,0.2,0,0.4,0,0.6c0,0.9,0,1.9,0,2.8c0,0.1-0.1,0.3-0.1,0.4c0,0.3-0.1,0.6-0.2,0.9c0,0-0.1,0.1-0.1,0.1c-0.1,0-0.1,0.1-0.2,0.1
		c-0.1,0-0.2,0-0.4,0c-0.8,0.1-1.6,0.1-2.4,0c-0.2,0-0.4,0-0.7,0c-0.2,0-0.4,0-0.6-0.1c-0.5,0-1.3-0.1-1.9-0.1v0
		c0,4.2-0.2,8.4,0.1,12.5c0,0.2,0,0.5,0,0.7c0,0.2,0,0.5,0,0.7c0,0.2,0,0.5,0,0.7c0.1,2.2,0.3,4.7,0.7,6.9c0,0.1,0,0.2,0,0.3
		c0,0.1,0,0.2,0,0.3c0,0,0,0.1,0,0.2c0.1,0.1,0.1,0.2,0.1,0.4v0c0,0,0,0,0.1,0c0.1,0,0.2,0,0.3,0c1.1-0.2,2.3-0.4,3.5-0.4
		c0.6,0,1.9-0.2,2.4,0.3c0,0,0,0.1,0.1,0.2c0,0.1,0.1,0.1,0.1,0.2c0.1,0.7,0.2,1.4,0.3,2.2c0,0.2,0,0.4,0,0.6c0,0.2,0,0.4,0,0.6
		c0,0.2,0,0.4,0,0.6c0,1.2,0,2.5-0.1,3.7c0,0.2,0,0.4,0,0.6c0,0.5,0,1.4-0.3,1.9c-0.1,0.3-0.4,0.3-0.7,0.3c-0.1,0-0.2,0-0.3,0.1
		c-0.1,0-0.2,0-0.3,0c-0.1,0-0.2,0-0.3,0c-0.1,0-0.2,0-0.4,0c-0.1,0-0.3,0-0.4,0c-0.1,0-0.3,0-0.4,0c-0.5,0.1-1,0.1-1.5,0.1
		c-5.2,0.5-10.5,0-15.7,0c-0.5-0.1-0.9-0.1-1.4-0.1c-0.1,0-0.2,0-0.4,0c-0.1,0-0.2,0-0.4,0c-0.1,0-0.2,0-0.3,0c-0.1,0-0.2,0-0.3,0
		c-0.1,0-0.2,0-0.3,0c-0.1,0-0.1,0-0.2,0c-0.1,0-0.1,0-0.1,0c-0.1,0-0.1,0-0.1,0C62.1,66,62,65.9,62,65.7c0-0.1,0-0.2-0.1-0.3
		c-0.4-1.9-0.3-3.9-0.3-5.9c0-0.2,0-0.4,0-0.6c0-0.2,0-0.4,0.1-0.6c0-0.8,0.1-1.5,0.4-2.3c0-0.1,0.1-0.1,0.1-0.2
		c0-0.1,0.1-0.1,0.1-0.1c0.1,0,0.2-0.1,0.3-0.1c0.1,0,0.3-0.1,0.4-0.1c0.2,0,0.3,0,0.5,0c0.2,0,0.4,0,0.6,0c1.2,0.1,2.4,0.3,3.6,0.6
		c0,0,0,0,0.1,0v0c0,0,0,0,0-0.1c0.1-0.3,0.1-0.7,0.1-1.1c0-0.1,0-0.2,0-0.3c0-0.1,0-0.3,0-0.4c0-0.1,0-0.3,0-0.4
		c0-0.5,0.1-1,0.1-1.5c0-0.6,0.1-1.2,0.1-1.7c0-0.2,0-0.4,0-0.6c0-0.7,0.1-1.4,0.1-2c0-0.2,0-0.5,0.1-0.7c0-0.2,0-0.5,0-0.7
		c0-0.2,0-0.5,0-0.8c0-0.2,0-0.5,0-0.7c0-0.3,0-0.5,0-0.8c0.1-3.7,0.2-7.3,0.1-11c0,0,0,0-0.1,0c-0.1,0-0.1,0-0.2,0.1
		c-1.6,0-3.1,0.5-4.7,0.3c-1.2-0.4-1.2-0.9-1.3-2c0-0.2,0-0.3,0-0.5c0-0.8,0-1.6,0-2.4c0-0.2,0-0.4,0-0.6c0.1-0.9,0.3-1.9,0.4-2.8
		c0-0.1,0.1-0.3,0.1-0.4c0-0.1,0.1-0.2,0.1-0.3c0-0.1,0.1-0.2,0.1-0.3C63.4,24,63.5,23.9,63.5,23.9C63.5,23.9,63.5,23.9,63.5,23.9
		C63.5,23.9,63.5,23.9,63.5,23.9z"/>
	<path fill="#020202" d="M110.9,47.3c0,0.1,0.2,0.3,0.5,0.4c2.5,1.4,4.5,5.4,5.9,7.8c1.1,1.9,1.6,4,2.5,6c0,0.1,0.1,0.3,0.1,0.4
		c0.2,0.5,0.3,1.1,0.3,1.7c0.1,0.4,0.2,1,0,1.4c0,0,0,0,0,0.1c0,0,0,0,0,0.1c-1.4,0.7-3.1,0.6-4.7,0.8c-0.2,0-0.4,0-0.6,0
		c-0.2,0-0.4,0-0.6,0c-2.1,0.2-5.3,0.4-7.2-0.5c-0.1,0-0.2-0.1-0.3-0.1c-1-0.9-0.9-3.1-1.1-4.2c0-0.1-0.1-0.3-0.1-0.5
		c0-0.1-0.1-0.3-0.1-0.5c-0.1-0.5-0.3-1-0.4-1.5c-0.1-0.2-0.1-0.3-0.2-0.5c-0.1-0.2-0.1-0.4-0.2-0.6c-1-2.3-2-4.2-3.5-6.1
		c0,0,0,0.1,0,0.1c0.1,0.3,0.1,0.5,0.1,0.8c0,0.1,0,0.3,0,0.4c0,0.1,0,0.3,0,0.4c0,0.2,0,0.3,0.1,0.5c0,0.2,0,0.3,0,0.5
		c0,0.2,0,0.4,0,0.6c0,0.6,0.1,1.2,0.1,1.8c0,0.2,0,0.4,0,0.7c0,0.2,0,0.4,0,0.7c0.1,1.6,0,3.3,0,4.9c0,0.2,0,0.3,0,0.5
		c-0.1,0.5-0.2,1-0.3,1.5c0,0.1-0.1,0.1-0.1,0.2c0,0-0.1,0.1-0.1,0.1c-0.1,0-0.1,0.1-0.2,0.1c-0.1,0-0.2,0.1-0.3,0.1
		c-0.1,0-0.2,0.1-0.3,0.1c-1,0.2-2,0.3-2.9,0.4c-0.2,0-0.4,0-0.6,0c-0.2,0-0.4,0-0.6,0c-1.4,0.1-2.8,0.1-4.2,0c-0.2,0-0.4,0-0.6,0
		c-0.2,0-0.3,0-0.5,0c-0.8,0-1.7-0.2-2.4-0.5c0,0,0,0,0-0.1c0,0,0,0,0-0.1c0,0,0-0.1,0-0.1c0,0,0-0.1,0-0.1c0,0,0-0.1,0-0.2
		c0,0,0-0.1,0-0.2c0-0.1,0-0.1,0-0.2c0-0.3-0.1-0.5-0.1-0.8c0-0.1,0-0.2,0-0.3c-1.7-10.5,0.1-21.6,0.1-32.2c0.1-0.8,0.1-1.6,0.1-2.4
		c0.1-0.4,0.1-0.8,0.1-1.3c0-0.1,0-0.2,0-0.4c0.1-0.3,0.1-0.7,0.1-1c0-0.3,0.1-0.6,0.1-0.8c0-0.1,0-0.1,0-0.2c0-0.1,0-0.1,0-0.2
		c0-0.2,0.1-0.3,0.1-0.5c0,0,0,0,0-0.1l0-0.1c0,0,0,0,0-0.1c0,0,0.1,0,0.1-0.1c0,0,0.1-0.1,0.1-0.1c0.6-0.3,1.5-0.6,2.3-0.6
		c0.1,0,0.2,0,0.4,0c0.1,0,0.3,0,0.4,0c0.1,0,0.3,0,0.4,0c5.9-0.6,14.1-0.8,19.5,2.4c0.1,0.1,0.3,0.2,0.4,0.3
		c0.8,0.5,1.6,1.1,2.2,1.8c0.1,0.1,0.2,0.2,0.3,0.3c2.3,2.9,3,5.6,3.4,9.1c0,1.9-0.2,2.9-0.7,4.5c-0.1,0.1-0.1,0.3-0.2,0.4
		c-0.1,0.1-0.1,0.3-0.2,0.4c-0.1,0.1-0.2,0.3-0.3,0.4c-0.1,0.1-0.2,0.2-0.3,0.4c-0.3,0.5-0.7,1-1.2,1.4c-0.4,0.4-0.9,0.8-1.5,1.2
		c-0.1,0.1-0.3,0.2-0.4,0.3c-0.1,0.1-0.3,0.2-0.4,0.3c-0.4,0.2-0.9,0.4-1.3,0.7c-0.1,0.1-0.3,0.2-0.4,0.2
		C111.1,47.2,110.9,47.2,110.9,47.3C110.9,47.4,110.9,47.2,110.9,47.3C110.9,47.4,110.9,47.2,110.9,47.3z M106.2,36.9
		c0-0.3,0-0.5,0-0.8c0-0.2-0.1-0.5-0.2-0.7c-0.1-0.2-0.1-0.4-0.2-0.7c-0.1-0.2-0.2-0.4-0.3-0.6c-0.1-0.2-0.2-0.3-0.4-0.5
		c-0.1-0.1-0.3-0.3-0.4-0.4c-0.1-0.1-0.3-0.2-0.5-0.4c-0.1-0.1-0.3-0.2-0.5-0.3c-0.2-0.1-0.3-0.2-0.5-0.3c-0.2-0.1-0.3-0.1-0.5-0.2
		c-0.5-0.2-1-0.3-1.5-0.4c-0.1,0-0.3,0-0.4,0c-0.1,0-0.2,0-0.4,0c-0.1,0-0.2,0-0.3,0c-0.1,0-0.2,0-0.3,0c-0.1,0-0.1,0-0.1,0
		c-0.1,0-0.1,0.1,0,0.2c0,0.1,0,0.2,0,0.3c0,0.1,0,0.2,0,0.3c0,0.9,0.1,1.9,0.2,2.8c0,0.5,0.1,1,0.1,1.5c0,0.6,0.1,1.2,0.1,1.8
		c0,0.6,0.1,1.3,0.1,1.9c0,0.2,0.1,0.4,0,0.7c-0.1,0.2-0.1,0.5,0,0.7c0,0,0.1,0.1,0.2,0c0.1,0,0.2,0,0.3,0c0.4,0,0.8-0.1,1.2-0.2
		c1.8-0.4,3.5-1.5,4.1-3.3C106.2,37.8,106.2,37.3,106.2,36.9C106.2,36.6,106.2,37.3,106.2,36.9z"/>
	<path fill="#020202" d="M122.1,65.8L122.1,65.8c0-0.2,0-0.4,0.1-0.6c0,0,0-0.1,0-0.2c0-0.1,0-0.1,0.1-0.2c0.2-1.1,0.6-2.1,0.7-3.2
		c0-0.1,0.1-0.3,0.1-0.4c0-0.1,0.1-0.3,0.1-0.4c0-0.1,0.1-0.3,0.1-0.4c0.7-2.7,1.5-5.4,2.2-8.2c0.2-0.6,0.4-1.2,0.5-1.8
		c0.1-0.2,0.1-0.4,0.2-0.7c0.1-0.2,0.1-0.4,0.2-0.6c0.1-0.2,0.1-0.4,0.2-0.6c0.1-0.2,0.1-0.4,0.2-0.7c0.1-0.2,0.1-0.4,0.2-0.6
		c0.1-0.2,0.1-0.4,0.2-0.7c0.1-0.2,0.1-0.4,0.2-0.6c0.1-0.2,0.1-0.4,0.2-0.7c0.1-0.2,0.1-0.4,0.2-0.6c0.1-0.2,0.1-0.4,0.2-0.7
		c0.1-0.2,0.1-0.4,0.2-0.7c0.1-0.2,0.1-0.4,0.2-0.6c0-0.2,0.1-0.4,0.2-0.7c0-0.2,0.1-0.4,0.2-0.6c0-0.2,0.1-0.4,0.2-0.7
		c0-0.2,0.1-0.4,0.2-0.6c0-0.2,0.1-0.4,0.2-0.6c0-0.2,0.1-0.4,0.2-0.6c0-0.2,0.1-0.4,0.2-0.6c0-0.2,0.1-0.4,0.2-0.6
		c0-0.2,0.1-0.4,0.2-0.6c0-0.2,0.1-0.4,0.1-0.6c0.1-0.2,0.1-0.4,0.2-0.6c0.2-0.6,0.4-1.2,0.5-1.8c0.8-2.1,1.3-4.3,2-6.4
		c0-0.1,0.1-0.2,0.1-0.4c0-0.1,0.1-0.3,0.1-0.4c0-0.1,0.1-0.2,0.1-0.3c0-0.1,0.1-0.2,0.1-0.4c0.3-0.7,0.4-1.6,0.8-2.3
		c0,0,0-0.1,0-0.1c0.1-0.1,0.1-0.1,0.1-0.2c0,0,0.1,0,0.1-0.1c0.1,0,0.1,0,0.2-0.1c0.1,0,0.2,0,0.3,0c0.1,0,0.2,0,0.4-0.1
		c0.2,0,0.3,0,0.5,0c0.2,0,0.3,0,0.5,0c0.2,0,0.4,0,0.6,0c1.9,0,3.8-0.2,5.6,0.1c0.2,0,0.3,0,0.5,0c0.1,0,0.3,0,0.4,0
		c0.1,0,0.2,0,0.3,0c0.1,0,0.2,0,0.3,0.1c0,0,0.1,0,0.1,0v0c0,0,0,0,0,0c0,0,0,0,0,0.1c0,0,0,0.1,0,0.1c0,0,0,0.1,0.1,0.1
		c0,0,0,0.1,0,0.1c0,0.1,0,0.1,0.1,0.2c0.1,0.3,0.2,0.6,0.3,0.9c0.1,0.3,0.2,0.6,0.3,0.9c0,0.1,0.1,0.2,0.1,0.4
		c0,0.1,0.1,0.2,0.1,0.4c0,0.1,0.1,0.2,0.1,0.4c0,0.1,0.1,0.3,0.1,0.4c0,0.1,0.1,0.3,0.1,0.4c0.9,2.6,1.7,5.3,2.3,7.9
		c0.1,0.2,0.1,0.4,0.2,0.6c0.2,0.6,0.4,1.3,0.6,1.9c0,0.2,0.1,0.4,0.2,0.6c0,0.2,0.1,0.4,0.2,0.7c0,0.2,0.1,0.4,0.2,0.6
		c0,0.2,0.1,0.4,0.1,0.7c0.1,0.2,0.1,0.4,0.2,0.6c0.1,0.2,0.1,0.4,0.2,0.7c0,0.2,0.1,0.4,0.2,0.7c0,0.2,0.1,0.4,0.2,0.7
		c0,0.2,0.1,0.4,0.2,0.7c0,0.2,0.1,0.4,0.2,0.7c0,0.2,0.1,0.4,0.2,0.7c0,0.2,0.1,0.4,0.2,0.7c0,0.2,0.1,0.4,0.2,0.6
		c0,0.2,0.1,0.4,0.1,0.7c0.1,0.2,0.1,0.4,0.2,0.7c0.1,0.2,0.1,0.4,0.2,0.7c0.1,0.2,0.1,0.4,0.2,0.6c0.2,0.6,0.4,1.3,0.5,1.9
		c0.9,3.1,1.5,6.3,2.6,9.4c0,0.1,0.1,0.3,0.1,0.4c0,0.1,0.1,0.3,0.1,0.4c0,0.1,0.1,0.3,0.1,0.4c0.1,0.8,0.4,1.8,0.6,2.6
		c0,0.2,0.1,0.4,0.1,0.6c0,0.2,0.1,0.5,0.1,0.6c0,0-0.1,0.1-0.1,0.1c0,0-0.1,0-0.2,0.1c-0.1,0-0.2,0-0.3,0c-0.1,0-0.2,0-0.4,0.1
		c-2.6,0.3-5.2,0.1-7.8,0.1c-0.2,0-0.4,0-0.6,0c-0.1,0-0.3,0-0.5,0c-0.1,0-0.3,0-0.4-0.1c-0.4,0-0.9-0.1-1.1-0.5
		c0-0.1-0.1-0.2-0.1-0.3c-1.1-3.2-1.9-6.7-2.4-10.1c-0.2-0.5-0.3-1-0.3-1.5c0-0.1-0.1-0.1-0.1-0.2c0-0.2,0-0.3-0.2-0.3
		c-0.1,0-0.2,0-0.3,0c-0.5-0.1-1.1-0.1-1.6-0.1c-0.8-0.1-2.9-0.2-3.9,0.2c-0.1,0-0.1,0.1-0.2,0.1v0c0,0,0,0.1,0,0.1
		c0,0.1,0,0.1,0,0.2c-0.2,0.5-0.3,1-0.3,1.6c0,0.2-0.1,0.3-0.1,0.5c0,0.2-0.1,0.4-0.1,0.6c-0.2,1.8-1.1,5.8-1.8,8
		c0,0.1-0.1,0.3-0.1,0.4c0,0.1-0.1,0.2-0.1,0.3c0,0.1-0.1,0.2-0.1,0.3c0,0.1,0,0.1-0.1,0.2c0,0,0,0.1,0,0.1c0,0-0.1,0.1-0.1,0.1
		c-0.1,0-0.1,0-0.2,0.1c-0.7,0.1-1.5,0.2-2.2,0.3c-0.6,0-1.2,0.1-1.9,0.1c-1.3,0.1-2.6,0-3.9,0c-0.2,0-0.4,0-0.6,0
		c-0.2,0-0.3,0-0.5,0c-0.1,0-0.3,0-0.4-0.1c-0.3,0-0.6-0.1-0.9-0.2C122.1,65.9,122.1,65.9,122.1,65.8z M141.2,48.9c0,0,0-0.1,0-0.2
		c0-0.1,0-0.1,0-0.2c-0.5-1.9-0.9-3.9-1.2-5.9c-0.1-0.5-0.2-1.1-0.3-1.6c-0.3-1.1-0.4-2.2-0.6-3.3c-0.1-0.2-0.1-0.4-0.1-0.6
		c-0.3,0-0.4,0.1-0.3,0.6c-0.1,0.2-0.1,0.4-0.1,0.6c-0.1,0.8-0.3,1.5-0.4,2.3c0,0.2-0.1,0.4-0.1,0.6c0,0.2-0.1,0.4-0.1,0.6
		c0,0.2-0.1,0.4-0.1,0.6c0,0.2-0.1,0.4-0.1,0.6c0,0.2-0.1,0.4-0.1,0.6c0,0.2-0.1,0.4-0.1,0.6c0,0.2-0.1,0.3-0.1,0.5
		c-0.1,0.5-0.2,1-0.3,1.5c-0.4,1.2-1.3,3.4,0.4,3.4c0.6,0,1.2,0,1.8-0.1c0.2,0,0.4,0,0.6-0.1c0.1,0,0.3,0,0.5,0
		C140.8,49,141,48.9,141.2,48.9C141.3,48.8,141.2,48.9,141.2,48.9z"/>
</g>
<g>
	<g>
		<path fill="#1B7C09" d="M11.8,65.9L11.8,65.9c0-0.3,0-0.6,0-0.8c0-0.1,0-0.1,0-0.2c0-0.1,0-0.1,0-0.2c0-0.1,0-0.2,0-0.3
			c0-0.1,0-0.2,0-0.3c0.5-1.7,0.6-3.6,1.1-5.3c0-0.2,0.1-0.3,0.1-0.5c0-0.2,0.1-0.3,0.1-0.5c0-0.2,0.1-0.4,0.1-0.6
			c0.1-0.6,0.2-1.1,0.4-1.7c1.4-9.2,5-18.1,6.5-27.3c0-0.1,0.1-0.3,0.1-0.4c0-0.1,0.1-0.3,0.1-0.4c0-0.1,0.1-0.3,0.1-0.4
			c0.3-0.9,0.5-1.7,0.7-2.6c0.1-0.2,0.2-0.4,0.2-0.6c0-0.1,0-0.1,0.1-0.2c0,0,0-0.1,0-0.1c0,0,0-0.1,0-0.1c0,0,0-0.1,0-0.1
			c0.1-0.1,0.1-0.1,0.2-0.1c0.1,0,0.1-0.1,0.2-0.1c0.1,0,0.2,0,0.3-0.1c0.1,0,0.3,0,0.4,0c0.1,0,0.3,0,0.4,0c1.9-0.1,3.8-0.2,5.6,0
			c0.2,0,0.4,0,0.6,0c0.6,0,1.4,0.1,2,0.3c0,0,0.1,0,0.1,0.1c0,0,0,0,0.1,0.1c0,0,0,0.1,0,0.1c0,0.1,0,0.1,0.1,0.2
			c0,0.1,0,0.2,0.1,0.3c0.1,0.4,0.2,0.8,0.3,1.1c0,0.2,0.1,0.3,0.1,0.5c0,0.2,0.1,0.3,0.1,0.5c0,0.2,0.1,0.4,0.1,0.6
			c0,0.2,0.1,0.4,0.1,0.6c0,0.2,0.1,0.4,0.1,0.6c0.1,0.7,0.2,1.3,0.4,2c0.1,0.7,0.2,1.4,0.4,2c0.1,0.7,0.2,1.4,0.3,2
			c0,0.2,0.1,0.4,0.1,0.7c0,0.2,0.1,0.4,0.1,0.6c0.2,1.3,0.3,2.7,0.7,3.9c0,0.1,0,0.1,0,0.2c0,0,0,0.1,0,0.1v0v0c0,0,0-0.1,0-0.1
			c0,0,0-0.1,0-0.1c0-0.1,0-0.2,0-0.3c0-0.1,0-0.2,0-0.3c0.2-0.9,0.4-1.8,0.5-2.7c0-0.2,0.1-0.4,0.1-0.6c0-0.2,0.1-0.4,0.1-0.6
			c0-0.2,0.1-0.4,0.1-0.6c0.5-3.1,1-6.3,2-9.3c0-0.1,0.1-0.3,0.1-0.4c0-0.1,0.1-0.2,0.1-0.4c0-0.1,0.1-0.2,0.1-0.3
			c0-0.1,0-0.2,0.1-0.3c0-0.1,0.1-0.1,0.1-0.2c0.1-0.5,1.6-0.3,2-0.3c0.2,0,0.4,0,0.6,0c0.6-0.1,1.3-0.1,1.9-0.1
			c1.4-0.1,2.9,0,4.3,0c0.1,0,0.3,0,0.4,0c0.1,0,0.2,0,0.3,0.1c0.1,0,0.2,0,0.3,0c0,0,0.1,0.1,0.1,0.1h0c0,0,0,0,0,0.1
			c0,0,0,0,0,0.1c0,0,0,0.1,0,0.1c0,0.2,0.1,0.3,0.1,0.5c0.1,0.2,0.1,0.5,0.2,0.7c0,0.1,0,0.2,0.1,0.3c0.3,0.5,0.4,1.4,0.6,2.1
			c0,0.1,0.1,0.3,0.1,0.4c0,0.1,0.1,0.3,0.1,0.4c0,0.1,0.1,0.3,0.1,0.4c0,0.1,0.1,0.3,0.1,0.4c0,0.2,0.1,0.3,0.1,0.5
			c2.3,9.5,5.4,19.1,6.8,28.8c0,0.2,0.1,0.3,0.1,0.5c0,0.2,0.1,0.3,0.1,0.5c0,0.2,0.1,0.3,0.1,0.5c0,0.1,0,0.3,0.1,0.5
			c0.3,1.5,0.6,3,0.9,4.5c0,0.1,0,0.2,0,0.3c0,0.1,0,0.1,0,0.2c0,0.1,0,0.1,0,0.2c0.1,0.3,0.1,0.5,0.1,0.8c0,0-0.1,0-0.1,0
			c-0.1,0-0.1,0-0.1,0.1c-0.1,0-0.2,0-0.3,0c-0.1,0-0.2,0-0.3,0.1c-0.1,0-0.2,0-0.4,0c-0.1,0-0.3,0-0.4,0c-0.2,0-0.3,0-0.5,0
			c-0.2,0-0.4,0-0.6,0c-0.2,0-0.4,0-0.6,0c-2.4,0.2-4.8,0-7.2,0c-0.2,0-0.4,0-0.6,0c-0.1,0-0.3,0-0.5,0c-0.2,0-0.3,0-0.5,0
			c-0.1,0-0.3,0-0.4,0c-0.1,0-0.2,0-0.3-0.1c-0.1,0-0.2,0-0.3,0c-0.1,0-0.1,0-0.2-0.1c0,0-0.1,0-0.1,0c0,0,0-0.1,0-0.1
			c0,0-0.1-0.1-0.1-0.1c0-0.1,0-0.1-0.1-0.2c0-0.1,0-0.2-0.1-0.3c0-0.1-0.1-0.2-0.1-0.3c-0.1-0.4-0.2-0.8-0.3-1.1
			c-0.1-0.5-0.2-1-0.3-1.5c-0.1-0.6-0.2-1.2-0.3-1.7c0-0.2-0.1-0.4-0.1-0.6c-0.1-0.7-0.2-1.3-0.4-2c-0.1-0.7-0.2-1.4-0.4-2
			c-0.1-0.7-0.2-1.4-0.3-2c0-0.2-0.1-0.4-0.1-0.7c-0.1-0.2-0.1-0.4-0.1-0.7c0-0.2-0.1-0.4-0.1-0.6c-0.1-0.2-0.1-0.4-0.1-0.6
			c-0.3-1.4-0.4-2.8-0.7-4.2c-0.1-0.2-0.1-0.5-0.1-0.7v0v0c0,0,0,0,0,0.1c0,0,0,0.1,0,0.1c0,0.1,0,0.1-0.1,0.2c0,0.1,0,0.2-0.1,0.3
			c-0.6,1.3-0.8,2.8-1.3,4.2c-1.1,3.3-2,6.6-3.4,9.8c-0.1,0.2-0.1,0.3-0.2,0.5c0,0.1-0.1,0.3-0.1,0.4c-0.2,0.6-0.4,1.1-0.8,1.6
			c0,0-0.1,0.1-0.1,0.1c-0.1,0.2-0.3,0.2-0.4,0c-0.1-0.1-0.1-0.1-0.1-0.2c0-0.1-0.1-0.2-0.1-0.3c-0.1-0.1-0.1-0.2-0.2-0.3
			C34.1,63,34,62.9,34,62.8c0-0.1-0.1-0.2-0.2-0.4c0-0.1-0.1-0.3-0.2-0.4c-0.1-0.1-0.1-0.3-0.2-0.4c-0.1-0.2-0.1-0.3-0.2-0.5
			c-1.5-3.5-2.9-7-3.9-10.7c-0.1-0.5-0.3-1-0.5-1.5c0-0.1-0.1-0.3-0.1-0.4c-0.1-0.1-0.1-0.3-0.1-0.4c0-0.1-0.1-0.2-0.1-0.3
			c0-0.1-0.1-0.2-0.1-0.3c0-0.1,0-0.2-0.1-0.3c0,0,0-0.1-0.1-0.2c0,0,0-0.1,0-0.1c0,0,0,0,0-0.1v0v0c0,0,0,0,0,0.1
			C28,47.2,28,47.4,28,47.6c0,0.1,0,0.2,0,0.3c0,0.1-0.1,0.2-0.1,0.4c-0.3,3.7-1,7.3-1.4,10.9c-0.1,0.6-0.2,1.3-0.3,1.9
			c-0.3,1.1-0.2,3.9-1.1,4.7c0,0,0,0.1-0.1,0.1c0,0-0.1,0-0.1,0c-0.1,0-0.1,0-0.2,0.1c-0.1,0-0.2,0-0.3,0c-0.4,0.1-0.8,0.1-1.2,0.1
			c-0.1,0-0.3,0-0.5,0c-0.2,0-0.4,0-0.6,0c-0.2,0-0.4,0-0.6,0c-2.5,0.2-5.1,0.3-7.5,0c-0.2,0-0.3,0-0.5,0c-0.5,0-1.2,0-1.6-0.3
			C11.9,66,11.9,65.9,11.8,65.9z"/>
	</g>
</g>
<path fill="#020202" d="M140.4,19.2c-2.1,0.9-5.6-2.2-4.7-3.4c0,0,7.4-8,9.4-8.9c2-0.9,7.1,3,6.1,4.3
	C150.1,12.5,140.4,19.2,140.4,19.2z"/>
</svg>
