<?xml version="1.0" encoding="utf-8"?>
<!-- Generator: Adobe Illustrator 18.0.0, SVG Export Plug-In . SVG Version: 6.00 Build 0)  -->
<!DOCTYPE svg PUBLIC "-//W3C//DTD SVG 1.1//EN" "http://www.w3.org/Graphics/SVG/1.1/DTD/svg11.dtd">
<svg version="1.1" id="Camada_1" xmlns="http://www.w3.org/2000/svg" xmlns:xlink="http://www.w3.org/1999/xlink" x="0px" y="0px"
	 viewBox="0 0 768 1024" enable-background="new 0 0 768 1024" xml:space="preserve">
<g>
	<g>
		<path fill="#020202" d="M409.6,476.6c0.2-0.2,0.3-0.3,0.6-0.4c0.3-0.1,0.5-0.3,0.8-0.4c0.3-0.1,0.6-0.2,0.9-0.3
			c0.3-0.1,0.7-0.2,1-0.3c0.4-0.1,0.7-0.1,1-0.3c0.4-0.1,0.8-0.1,1.2-0.3c0.4-0.1,0.8-0.1,1.3-0.2c0.4-0.1,0.8-0.1,1.3-0.2
			c0.4-0.1,0.8-0.1,1.3-0.2c0.4,0,0.8,0,1.3-0.1c0.4,0,0.8,0,1.3,0c0.4,0,0.8,0,1.2,0c0.4,0,0.8,0,1.2,0s0.7,0,1.1,0.1
			c0.4,0,0.7,0,1,0.1c0.3,0.1,0.6,0.1,0.9,0.2c0.3,0,0.5,0.1,0.8,0.2c0.2,0.1,0.4,0.1,0.6,0.2c0.2,0.1,0.3,0.1,0.5,0.3
			c0.1,0.1,0.2,0.1,0.3,0.3c0.1,0.1,0.2,0.1,0.2,0.3c0.1,0.1,0.2,0.3,0.2,0.4c0.1,0.2,0.2,0.3,0.2,0.4c0.1,0.2,0.2,0.4,0.2,0.6
			c0.1,0.2,0.1,0.4,0.2,0.6c0.1,0.2,0.1,0.4,0.2,0.6c0.1,0.3,0.1,0.5,0.2,0.8c0.1,0.3,0.1,0.5,0.2,0.8c0,0.3,0,0.6,0.1,0.9
			c0.1,0.3,0.1,0.6,0.1,0.9c0.1,0.3,0.1,0.6,0.1,0.9c0.1,0.3,0.1,0.7,0.1,0.9c0.1,0.3,0.1,0.7,0.1,1.1c0,0.3,0,0.7,0.1,1
			c0,0.4,0,0.8,0,1.2c0,0.3,0,0.7,0,1.1c0.1,0.4,0.1,0.8,0.1,1.2c0,0.5,0,0.9,0,1.3c0,0.4,0,0.8,0,1.3c0,0.4,0,0.8,0,1.3
			c0,0.5,0,0.9,0,1.3c0,0.5,0,0.9,0,1.4c0,0.5,0,0.9,0,1.4c-0.1,0.5-0.1,0.9-0.1,1.4c0,0.5,0,1,0,1.5c0,0.5,0,0.9,0,1.4
			c0,0.5,0,1,0,1.5c0,0.5,0,0.9,0,1.5c-0.1,0.5-0.1,0.9,0,1.5c0,0.5,0,0.9,0,1.4c-0.1,0.5-0.1,1,0,1.5c0.1,0.6,0.1,1.1,0,1.5
			c-0.2,0.9-0.2,1.4,0,1.5c0.3,0.1,0.7-0.2,1.1-1c0.2-0.5,0.6-0.8,1-1.1c0.3-0.4,0.6-0.8,1-1.1c0.3-0.4,0.6-0.8,1-1.2
			c0.3-0.4,0.6-0.8,0.9-1.2c0.3-0.4,0.6-0.8,0.9-1.2c0.3-0.4,0.5-0.8,0.8-1.2c0.3-0.4,0.5-0.8,0.8-1.2c0.3-0.5,0.5-0.9,0.7-1.3
			c0.3-0.4,0.5-0.8,0.7-1.3c0.2-0.4,0.4-0.8,0.6-1.3c0.2-0.4,0.4-0.8,0.6-1.2c0.2-0.5,0.4-0.9,0.6-1.3c0.2-0.5,0.3-0.9,0.6-1.3
			c0.2-0.4,0.3-0.8,0.5-1.3c0.2-0.4,0.3-0.8,0.5-1.2c0.2-0.4,0.3-0.8,0.5-1.3c0.2-0.4,0.3-0.8,0.5-1.2c0.1-0.4,0.2-0.8,0.4-1.2
			c0.1-0.3,0.2-0.7,0.3-1.1c0.2-0.4,0.3-0.8,0.4-1.1c0.1-0.4,0.2-0.8,0.3-1.1c0.1-0.3,0.2-0.7,0.3-1c0.1-0.3,0.2-0.7,0.3-1
			c0.1-0.3,0.1-0.7,0.2-1c0.1-0.3,0.2-0.6,0.2-0.9c0.1-0.3,0.2-0.6,0.2-0.9c0.1-0.3,0.1-0.5,0.2-0.8c0.1-0.3,0.1-0.5,0.2-0.8
			c0.1-0.3,0.1-0.5,0.2-0.8c0.1-0.2,0.1-0.4,0.2-0.6c0.1-0.2,0.1-0.4,0.2-0.6c0.1-0.2,0.1-0.3,0.2-0.5c0.1-0.1,0.1-0.3,0.2-0.4
			c0-0.1,0-0.2,0.1-0.3c0.1-0.1,0.1-0.1,0.2-0.3c0.1-0.1,0.1-0.1,0.1-0.2c0.1-0.1,0.1-0.1,0.2-0.1c0.2-0.1,0.3-0.1,0.6-0.1
			c0.3-0.1,0.5-0.1,0.7-0.1c0.3,0,0.5,0,0.8,0c0.3,0,0.6,0,1,0c0.4,0.1,0.7,0.1,1,0.2c0.4,0.1,0.7,0.1,1.1,0.2
			c0.4,0.1,0.8,0.1,1.2,0.3c0.4,0.1,0.8,0.1,1.2,0.3c0.4,0.1,0.8,0.2,1.3,0.3c0.4,0.1,0.8,0.3,1.3,0.4c0.4,0.1,0.8,0.2,1.3,0.3
			c0.4,0.1,0.8,0.3,1.3,0.4c0.4,0.1,0.8,0.3,1.3,0.4c0.4,0.1,0.8,0.3,1.2,0.4c0.4,0.2,0.8,0.3,1.2,0.4c0.4,0.2,0.7,0.3,1.1,0.5
			c0.4,0.2,0.7,0.3,1.1,0.4c0.3,0.2,0.6,0.3,1,0.5c0.3,0.1,0.5,0.3,0.8,0.4c0.3,0.2,0.5,0.3,0.8,0.5c0.2,0.1,0.4,0.3,0.6,0.4
			c0.2,0.1,0.3,0.3,0.5,0.4c0.1,0.1,0.2,0.2,0.3,0.3c0.1,0.1,0.1,0.3,0.1,0.4c0,0.1,0,0.1,0,0.2c0,0.1,0,0.2,0,0.3
			c0,0.1,0,0.2-0.1,0.3c0,0.1,0,0.2-0.1,0.3c0,0.2,0,0.3-0.1,0.5c-0.1,0.2-0.1,0.3-0.1,0.5c-0.1,0.2-0.1,0.3-0.2,0.5
			c-0.1,0.2-0.1,0.4-0.2,0.6c-0.1,0.2-0.1,0.5-0.2,0.7c-0.1,0.2-0.2,0.5-0.2,0.7c-0.1,0.2-0.2,0.5-0.3,0.7c-0.1,0.3-0.1,0.5-0.2,0.8
			c-0.1,0.3-0.2,0.6-0.3,0.9c-0.1,0.3-0.2,0.6-0.3,0.9c-0.2,0.3-0.3,0.6-0.4,0.9c-0.1,0.3-0.2,0.6-0.4,0.9c-0.2,0.3-0.3,0.6-0.4,0.9
			c-0.2,0.3-0.3,0.6-0.5,0.9c-0.2,0.3-0.3,0.6-0.5,0.9c-0.2,0.3-0.3,0.7-0.5,1c-0.2,0.3-0.3,0.7-0.6,1c-0.2,0.3-0.3,0.7-0.6,1
			c-0.2,0.3-0.3,0.7-0.6,1c-0.2,0.4-0.4,0.8-0.6,1.1c-0.2,0.3-0.4,0.7-0.6,1.1c-0.2,0.3-0.4,0.7-0.6,1c-0.2,0.4-0.5,0.8-0.7,1.1
			c-0.2,0.3-0.5,0.7-0.7,1.1c-0.2,0.3-0.5,0.7-0.7,1.1c-0.3,0.3-0.5,0.7-0.8,1c-0.3,0.4-0.5,0.8-0.8,1.1c-0.3,0.4-0.5,0.8-0.8,1.1
			c-0.3,0.3-0.6,0.7-0.9,1.1c-0.3,0.3-0.6,0.7-0.9,1c-0.3,0.3-0.6,0.7-0.9,1c-0.3,0.4-0.6,0.8-1,1.1c-0.3,0.3-0.6,0.7-1,1
			c-0.3,0.3-0.6,0.7-1,0.9c-0.4,0.3-0.7,0.7-1,1c-0.3,0.3-0.7,0.7-1,0.9c-0.4,0.3-0.7,0.7-1,0.9c-0.4,0.3-0.7,0.7-1.1,0.9
			c-0.4,0.3-0.8,0.6-1.1,0.9c-0.4,0.4-0.7,0.7-1.1,0.9c-0.7,0.2-1.1,0.5-1.2,0.9c-0.1,0.2,0.3,0.4,1,0.5c0.3,0.1,0.6,0.3,0.9,0.6
			c0.3,0.2,0.6,0.5,1,0.7c0.3,0.2,0.6,0.5,1,0.7c0.3,0.2,0.6,0.5,1,0.8c0.3,0.2,0.6,0.5,1,0.8c0.3,0.2,0.6,0.5,0.9,0.8
			c0.3,0.3,0.6,0.6,1,0.9c0.3,0.3,0.6,0.6,0.9,0.9c0.3,0.3,0.6,0.6,1,0.9c0.3,0.3,0.6,0.6,0.9,0.9c0.3,0.3,0.6,0.6,1,0.9
			c0.3,0.3,0.6,0.7,0.9,1c0.3,0.3,0.6,0.6,0.9,0.9c0.3,0.3,0.6,0.7,0.9,1c0.3,0.3,0.6,0.7,0.9,1c0.3,0.4,0.5,0.8,0.8,1.1
			c0.3,0.3,0.6,0.7,0.9,1c0.3,0.3,0.5,0.7,0.8,1.1c0.3,0.3,0.5,0.7,0.8,1c0.3,0.4,0.5,0.8,0.8,1.1c0.3,0.3,0.5,0.7,0.8,1.1
			c0.3,0.3,0.5,0.7,0.7,1.1c0.3,0.3,0.5,0.7,0.8,1c0.2,0.4,0.4,0.8,0.7,1.1c0.2,0.3,0.4,0.7,0.7,1.1c0.2,0.3,0.4,0.7,0.6,1
			c0.3,0.3,0.5,0.7,0.7,1c0.2,0.4,0.4,0.8,0.6,1.1c0.2,0.3,0.4,0.7,0.6,1c0.2,0.3,0.3,0.7,0.6,1c0.2,0.3,0.4,0.6,0.6,0.9
			c0.2,0.3,0.4,0.7,0.6,0.9c0.2,0.3,0.4,0.7,0.6,0.9c0.2,0.3,0.3,0.7,0.5,0.9c0.2,0.3,0.3,0.6,0.5,0.9c0.2,0.3,0.3,0.6,0.4,0.9
			c0.2,0.2,0.3,0.5,0.5,0.8c0.1,0.3,0.2,0.5,0.3,0.8c0.2,0.3,0.3,0.5,0.4,0.8c0.1,0.2,0.2,0.5,0.3,0.7c0.1,0.2,0.2,0.5,0.3,0.7
			c0.1,0.2,0.1,0.4,0.2,0.6c0.1,0.2,0.1,0.4,0.2,0.6c0.1,0.2,0.1,0.3,0.2,0.5c0.1,0.2,0.1,0.3,0.2,0.5c0.1,0.1,0.1,0.2,0.1,0.3
			c0.1,0.1,0.1,0.3,0.1,0.4c0.1,0.1,0.1,0.1,0.1,0.3c0,0.1,0,0.1,0,0.3c0,0.2-0.1,0.3-0.2,0.4c-0.1,0.2-0.1,0.3-0.2,0.5
			c-0.2,0.2-0.3,0.4-0.5,0.6c-0.2,0.2-0.3,0.4-0.6,0.6c-0.3,0.2-0.5,0.4-0.7,0.6c-0.3,0.2-0.5,0.5-0.8,0.7c-0.3,0.2-0.6,0.4-1,0.6
			c-0.3,0.2-0.7,0.5-1,0.7c-0.3,0.2-0.7,0.5-1,0.7c-0.4,0.3-0.7,0.5-1.1,0.8c-0.4,0.2-0.8,0.5-1.2,0.7c-0.4,0.2-0.8,0.4-1.2,0.6
			c-0.4,0.2-0.8,0.5-1.2,0.7c-0.4,0.2-0.8,0.4-1.2,0.6c-0.4,0.2-0.8,0.4-1.2,0.6c-0.4,0.2-0.8,0.3-1.2,0.5c-0.4,0.2-0.7,0.3-1.1,0.5
			c-0.3,0.2-0.7,0.3-1,0.4c-0.3,0.2-0.6,0.3-1,0.4c-0.3,0.1-0.6,0.2-0.9,0.3c-0.3,0.1-0.5,0.1-0.8,0.2c-0.3,0.1-0.5,0.1-0.7,0.2
			c-0.2,0.1-0.3,0.1-0.6,0.1c-0.1,0-0.2,0-0.4,0c-0.1,0-0.1,0-0.2-0.1c-0.1-0.1-0.2-0.1-0.2-0.2c-0.1-0.1-0.1-0.1-0.2-0.2
			c-0.1-0.1-0.1-0.2-0.2-0.3c-0.1-0.1-0.1-0.2-0.2-0.3c-0.1-0.2-0.2-0.3-0.2-0.4c-0.1-0.2-0.2-0.3-0.2-0.5c-0.1-0.2-0.2-0.3-0.2-0.5
			c-0.1-0.2-0.2-0.3-0.2-0.5c-0.1-0.2-0.2-0.5-0.3-0.7c-0.1-0.2-0.1-0.5-0.2-0.7c-0.1-0.2-0.2-0.5-0.3-0.7c-0.1-0.3-0.2-0.5-0.3-0.8
			c-0.1-0.3-0.2-0.6-0.3-0.9c-0.1-0.3-0.2-0.6-0.3-0.9c-0.1-0.3-0.2-0.6-0.3-0.9c-0.2-0.3-0.3-0.6-0.4-0.9c-0.1-0.3-0.2-0.6-0.4-0.9
			c-0.1-0.3-0.2-0.7-0.4-1c-0.1-0.3-0.2-0.7-0.4-1s-0.3-0.7-0.5-1c-0.2-0.3-0.3-0.7-0.5-1.1c-0.2-0.3-0.3-0.7-0.5-1.1
			c-0.2-0.3-0.3-0.7-0.5-1.1c-0.2-0.3-0.3-0.7-0.6-1.1c-0.2-0.4-0.3-0.8-0.6-1.2c-0.2-0.3-0.3-0.7-0.6-1.1c-0.2-0.4-0.4-0.8-0.6-1.2
			c-0.2-0.4-0.4-0.8-0.6-1.2c-0.2-0.4-0.4-0.8-0.6-1.2c-0.3-0.4-0.5-0.8-0.7-1.2c-0.2-0.4-0.5-0.8-0.7-1.2c-0.2-0.4-0.5-0.8-0.7-1.2
			c-0.3-0.4-0.5-0.8-0.7-1.3c-0.3-0.4-0.5-0.8-0.8-1.2c-0.3-0.4-0.6-0.8-0.9-1.2c-0.3-0.4-0.5-0.8-0.8-1.1c-0.3-0.4-0.6-0.8-0.9-1.2
			c-0.3-0.4-0.6-0.8-1-1.2c-0.3-0.4-0.6-0.8-1-1.1c-0.3-0.4-0.6-0.8-1-1.2c-0.3-0.3-0.6-0.7-1-1.1c-0.4-0.4-0.7-0.7-1.1-1
			c-0.4-0.3-0.7-0.7-1-1.1c-0.4-0.5-0.7-0.9-1.1-1c-0.2-0.1-0.2,0.2,0,0.9c0.1,0.3,0.1,0.6,0.1,0.9c0,0.3,0,0.7,0,0.9
			c0.1,0.3,0.1,0.7,0.1,1.1c0.1,0.3,0.1,0.7,0.1,1c0,0.4,0,0.8,0.1,1.2c0,0.4,0,0.8,0.1,1.2c0,0.4,0,0.8,0.1,1.2
			c0,0.5,0,0.9,0.1,1.3c0.1,0.5,0.1,0.9,0.1,1.4c0.1,0.5,0.1,0.9,0.1,1.3c0.1,0.5,0.1,0.9,0.2,1.4c0,0.5,0,1,0.1,1.5
			c0,0.5,0,0.9,0.1,1.4c0.1,0.5,0.1,0.9,0.1,1.4c0.1,0.5,0.1,1,0.1,1.5c0.1,0.5,0.1,0.9,0.2,1.4c0,0.5,0,1,0.1,1.5
			c0,0.5,0,0.9,0.1,1.4c0.1,0.5,0.1,0.9,0.1,1.4c0.1,0.5,0.1,0.9,0.1,1.4c0.1,0.5,0.1,0.9,0.1,1.3c0.1,0.5,0.1,0.9,0.1,1.3
			c0.1,0.5,0.1,0.9,0.1,1.3c0,0.4,0,0.8,0.1,1.2c0,0.4,0,0.8,0,1.1c0.1,0.4,0.1,0.8,0.1,1.1c0,0.3,0,0.7,0,1c0.1,0.3,0.1,0.7,0.1,1
			c0,0.3,0,0.6,0,0.9c0,0.3,0,0.6,0,0.9c0,0.2,0,0.5,0,0.8c0,0.2,0,0.4,0,0.6s0,0.4-0.1,0.6c0,0.2,0,0.3,0,0.4c0,0.1,0,0.3-0.1,0.4
			c0,0.1,0,0.1-0.1,0.3c0,0.1,0,0.1-0.1,0.1c-0.1,0.1-0.2,0.2-0.3,0.2c-0.2,0.1-0.3,0.2-0.5,0.2c-0.2,0.1-0.5,0.1-0.7,0.2
			c-0.3,0.1-0.6,0.1-0.9,0.2c-0.3,0-0.6,0-1,0.1c-0.4,0.1-0.7,0.1-1.1,0.1c-0.4,0.1-0.8,0.1-1.2,0.1c-0.5,0.1-0.9,0.1-1.3,0.1
			c-0.4,0-0.9,0-1.3,0.1c-0.5,0-1,0-1.4,0s-1,0-1.4,0c-0.5,0-1,0-1.4,0c-0.5,0-1,0-1.4,0c-0.5,0-0.9,0-1.3,0c-0.5,0-0.9,0-1.3,0
			c-0.4-0.1-0.8-0.1-1.3-0.1c-0.4,0-0.7,0-1.1-0.1c-0.4,0-0.7,0-1.1-0.1c-0.3,0-0.6,0-0.9-0.1c-0.3,0-0.5,0-0.8-0.1
			c-0.2-0.1-0.3-0.1-0.6-0.1c-0.2-0.1-0.3-0.1-0.4-0.2c-0.1,0-0.1-0.1-0.2-0.2h-0.1c0-0.1,0-0.1,0-0.2c0-0.1,0-0.1,0-0.2
			c0-0.1,0-0.2,0-0.3c-0.1-0.1-0.1-0.2-0.1-0.3c0-0.1,0-0.3,0-0.4c0-0.1,0-0.3,0-0.4c-0.1-0.2-0.1-0.3-0.1-0.5c0-0.2,0-0.3,0-0.5
			c0-0.2,0-0.4-0.1-0.6c0-0.2,0-0.5,0-0.7c0-0.2,0-0.5-0.1-0.7c0-0.3,0-0.5,0-0.8c0-0.3,0-0.5,0-0.8c-0.1-0.3-0.1-0.6-0.1-0.9
			c0-0.3,0-0.7,0-0.9c-0.1-0.3-0.1-0.6-0.1-0.9c0-0.3,0-0.7,0-0.9c-0.1-0.3-0.1-0.7-0.1-1c0-0.4,0-0.8-0.1-1.1c0-0.3,0-0.7,0-1.1
			c0-0.3,0-0.7-0.1-1.1c0-0.4,0-0.8,0-1.2c0-0.4,0-0.8-0.1-1.2c0-0.4,0-0.8,0-1.2c-0.1-0.5-0.1-0.9-0.1-1.3c0-0.5,0-0.9,0-1.3
			c-0.1-0.5-0.1-0.9-0.1-1.4c0-0.5,0-0.9-0.1-1.3c0-0.5,0-1,0-1.5c0-0.5,0-0.9-0.1-1.4c0-0.5,0-0.9,0-1.5c-0.1-0.5-0.1-0.9-0.1-1.4
			c0-0.5,0-1,0-1.5c-0.1-0.5-0.1-1-0.1-1.5c0-0.5,0-0.9-0.1-1.5c0-0.5,0-1,0-1.5c0-0.5,0-1-0.1-1.5c0-0.5,0-1,0-1.5
			c0-0.5,0-1-0.1-1.5c0-0.5,0-1,0-1.5c0-0.5,0-1-0.1-1.5c0-0.5,0-1,0-1.5c-0.1-0.5-0.1-1.1-0.1-1.6c0-0.5,0-1,0-1.5
			c0-0.5,0-1-0.1-1.5c0-0.6,0-1.1,0-1.6s0-1-0.1-1.5c0-0.5,0-1.1,0-1.6c0-0.5,0-1,0-1.5c-0.1-0.5-0.1-1-0.1-1.5s0-1,0-1.5
			s0-1-0.1-1.5c0-0.5,0-1,0-1.5c0-0.5,0-1,0-1.5c0-0.5,0-1,0-1.5c-0.1-0.5-0.1-0.9-0.1-1.5c0-0.5,0-1,0-1.5c0-0.5,0-0.9,0-1.5
			c0-0.5,0-0.9,0-1.4c-0.1-0.5-0.1-1-0.1-1.5c0-0.5,0-0.9,0-1.5c0-0.5,0-0.9,0-1.4c0-0.5,0-0.9,0-1.3c0-0.5,0-0.9,0-1.4
			c0-0.5,0-0.9,0-1.3c0-0.5,0-0.9,0-1.3c0-0.4,0-0.8,0-1.3c0-0.4,0-0.8,0-1.2c0-0.4,0-0.8,0-1.2c0-0.3,0-0.7,0-1.1
			c0-0.3,0-0.7,0-1.1c0-0.3,0-0.7,0.1-1c0-0.3,0-0.7,0-1c0-0.3,0-0.7,0-1c0-0.3,0-0.6,0-0.9c0.1-0.3,0.1-0.6,0.1-0.9
			c0-0.3,0-0.6,0-0.9c0-0.2,0-0.5,0.1-0.8c0-0.3,0-0.5,0-0.8c0-0.2,0-0.5,0-0.7c0.1-0.2,0.1-0.5,0.1-0.7c0-0.2,0-0.4,0.1-0.6
			c0-0.2,0-0.4,0-0.6c0.1-0.2,0.1-0.3,0.1-0.5c0-0.1,0-0.3,0.1-0.4c0-0.1,0-0.3,0-0.4c0.1-0.1,0.1-0.2,0.1-0.3
			c0.1-0.1,0.1-0.1,0.1-0.3c0-0.1,0-0.1,0.1-0.2c0-0.1,0-0.1,0.1-0.2C409.3,477,409.4,476.8,409.6,476.6z"/>
	</g>
</g>
<path fill="#020202" d="M148.7,473.7c0,0,0.2-0.2,0.5-0.2c0.2,0,0.5-0.2,0.7-0.2c0.2,0,0.7-0.2,1-0.2c1.2-0.2,2.6-0.5,3.8-0.5
	c0.5,0,1,0,1.7,0c0.5,0,1,0,1.7,0c1.7,0,3.3,0,4.8,0c1.4,0.2,3.1,0.2,4.5,0.2c1,0.2,2.1,0.2,3.1,0.5c0.2,0,0.5,0.2,0.7,0.2l0.2,0.2
	l0.2,0.2c0,0.2,0,0.7-0.2,1c0,0.2,0,0.7,0,1c0,0.7-0.2,1.4-0.2,2.1c0,0.2-0.2,0.7-0.2,1c0,0.7,0,1.4-0.2,2.4
	c-0.2,0.7-0.2,1.7-0.2,2.4c-0.2,0.7-0.2,1.7-0.2,2.4c-0.2,1-0.2,1.7-0.2,2.6c0,0.5-0.2,0.7-0.2,1.2c0,1,0,1.7-0.2,2.6
	c0,1,0,1.7-0.2,2.6c0,0.5,0,1,0,1.4s0,1-0.2,1.4c0,0.5,0,1,0,1.4s0,1,0,1.4s0,1,0,1.4s0,1,0,1.4s0,1,0,1.4c0,1,0,1.7,0,2.6
	c-0.2,2.4-0.2,5.5,0,7.9c0,1,0,1.7,0,2.6c0,0.5,0,0.7,0,1.2c0,0.7,0.2,1.7,0.2,2.4c0.2,0.7,0.2,1.7,0.2,2.4c0,0.2,0,0.7,0.2,1
	c0.2,1,0.2,2.1,0.7,3.3c0,0.2,0.2,0.7,0.2,1c0.2,0.7,0.2,1.4,0.5,1.9c0.2,0.7,0.5,1.2,0.7,1.9c0,0.2,0.2,0.5,0.5,0.7
	c0,0.2,0.2,0.5,0.2,1c0.2,0.2,0.2,0.5,0.5,0.7s0.2,0.5,0.5,0.7c0.2,0.5,0.5,1,1,1.4c0.2,0.5,0.7,1,1.2,1.2c0.2,0.5,0.7,0.7,1.2,1
	c0.2,0.2,0.5,0.2,0.7,0.5c0.5,0.2,1,0.7,1.4,0.7c0.2,0,0.5,0.2,0.7,0.2c0.7,0.5,1.7,0.5,2.6,0.7c0.2,0,0.5,0,1,0c0.7,0,1.2,0,1.9,0
	c1.2,0,2.4-0.2,3.6-0.7c0.2,0,0.5-0.2,0.7-0.2c0.2,0,0.5-0.2,0.7-0.5c0.2,0,0.5-0.2,0.7-0.2c0.7-0.5,1.4-1,1.9-1.4
	c0.2-0.2,0.2-0.5,0.5-0.7s0.5-0.5,0.7-0.7c0.2-0.2,0.2-0.5,0.5-0.7c0.2-0.2,0.2-0.5,0.5-0.7c0.2-0.2,0.2-0.5,0.5-0.7
	c0.2-0.5,0.5-1,1-1.7c0.5-1,0.7-1.7,1-2.6c0-0.2,0.2-0.7,0.2-1c0-0.2,0.2-0.7,0.2-1c0-0.2,0.2-0.7,0.2-1c0-0.7,0.2-1.4,0.2-2.1
	c0-0.2,0.2-0.7,0.2-1c0.2-1.2,0.5-2.4,0.5-3.3c0-0.5,0-0.7,0-1.2c0-0.5,0-0.7,0-1.2c0-0.7,0.2-1.7,0.2-2.4c0-2.4,0.2-5.2,0-7.6
	c0-0.5,0-1,0-1.4c0-1-0.2-1.7-0.2-2.6c0-0.5,0-1,0-1.4s0-1,0-1.4s0-1,0-1.4c0-1,0-1.7-0.2-2.6c0-0.5,0-1-0.2-1.4
	c0-1.4-0.2-2.6-0.2-4c0-1-0.2-1.7-0.2-2.6c0-1.2-0.2-2.6-0.5-3.8c0-1.2-0.2-2.4-0.5-3.6c0-1.2-0.2-2.4-0.5-3.6
	c0-0.7-0.2-1.4-0.2-2.1c0-0.7-0.2-1.4-0.2-2.1c0-0.2-0.2-0.7-0.2-1c0,0,0-0.2,0.2-0.2l0.2-0.2c0.2,0,0.5,0,0.7-0.2
	c0.2,0,0.5,0,1-0.2c0.2,0,0.7-0.2,1-0.2c1-0.2,1.7-0.2,2.6-0.2c0.5,0,1,0,1.4,0c0.5,0,1,0,1.4,0c2.1-0.2,4.3-0.2,6.4,0
	c0.5,0,1,0,1.4,0s1,0,1.4,0c1.2,0,2.1,0.2,3.3,0.5c0.2,0,0.5,0,0.7,0.2c0.2,0,0.2,0.2,0.5,0.2c0,0,0,0,0.2,0.2
	c0.2,0.7,0.5,1.4,0.7,2.1c0.2,1.2,0.7,2.1,1,3.3c0,0.2,0.2,0.7,0.2,1.2c0.2,0.7,0.2,1.4,0.5,2.4c0,0.2,0.2,0.7,0.2,1.2
	c0,0.2,0.2,0.7,0.2,1.2s0.2,0.7,0.2,1.2s0.2,0.7,0.2,1.2c0,0.2,0.2,0.7,0.2,1.2c0.2,0.7,0.2,1.7,0.5,2.4c0,0.7,0.2,1.7,0.5,2.4
	c0.5,3.3,1.4,6.7,1.4,10c0,0.5,0,1,0.2,1.4c0,0.7,0,1.7,0.2,2.4c0,0.5,0,1,0,1.4c0,0.5,0,0.7,0,1.2s0,1,0,1.4c0,1,0.2,1.7,0.2,2.6
	c0,0.7,0,1.7,0,2.4c0,1.7,0.2,3.3,0,5c0,1,0,1.7,0,2.6c0,0.7-0.2,1.7-0.2,2.4c0,0.5,0,0.7,0,1.2c0,0.5,0,0.7,0,1.2
	c0,0.7,0,1.7-0.2,2.4c0,2.1-0.5,5-1,7.1c0,0.7-0.2,1.7-0.5,2.4c0,0.2-0.2,0.7-0.2,1.2c-0.2,0.7-0.2,1.4-0.5,2.4c0,0.2-0.2,0.7-0.2,1
	c-0.2,1.4-1,2.9-1.4,4.3c-0.2,0.7-0.5,1.4-0.7,2.1c-0.2,0.2-0.2,0.7-0.5,1s-0.2,0.7-0.5,1s-0.2,0.7-0.5,1c-0.2,0.2-0.2,0.7-0.5,1
	s-0.2,0.7-0.5,1c-0.2,0.7-0.5,1.2-1,1.9c-0.2,0.2-0.5,0.7-0.7,1c-0.2,0.7-0.7,1.2-1.2,1.7c-0.5,0.5-1,1.2-1.2,1.7
	c-0.5,0.5-1,1.2-1.4,1.7c-0.2,0.2-0.5,0.5-0.7,0.7c-0.7,0.7-1.4,1.4-2.1,2.1c-0.2,0.2-0.5,0.5-0.7,0.7c-0.2,0.2-0.5,0.5-0.7,0.7
	c-0.2,0.2-0.5,0.5-0.7,0.7c-0.5,0.5-1.2,1-1.7,1.2c-1,0.5-1.7,1-2.6,1.7c-0.2,0.2-0.7,0.2-1,0.5c-0.2,0.2-0.7,0.2-1,0.5
	c-0.2,0-0.7,0.2-1,0.5c-0.2,0-0.7,0.2-1,0.2c-0.2,0-0.7,0.2-1,0.2c-0.2,0.2-0.7,0.2-1,0.2c-0.7,0.2-1.4,0.5-2.1,0.7
	c-0.2,0-0.7,0.2-1,0.2c-1.9,0.5-4,1-5.9,1c-1,0-1.7,0.2-2.6,0c-1,0-1.7,0-2.6,0c-0.5,0-0.7,0-1.2,0s-1,0-1.4,0s-0.7,0-1.2-0.2
	c-1.2,0-2.6-0.2-3.6-0.5c-0.2,0-0.7-0.2-1.2-0.2c-0.2,0-0.7-0.2-1.2-0.2c-1.7-0.2-3.8-1-5.2-1.7c-0.2,0-0.7-0.2-1-0.5
	c-0.2,0-0.7-0.2-1-0.5s-0.7-0.2-1-0.5c-0.7-0.2-1.2-0.7-1.7-1c-0.7-0.2-1.2-0.7-1.7-1.2c-0.5-0.5-1.2-1-1.7-1.2
	c-0.5-0.5-1-1-1.4-1.4c-0.5-0.5-1-1-1.4-1.4c-0.5-0.5-1-1-1.4-1.4c-0.5-0.5-1-1.2-1.4-1.7c-0.2-0.2-0.5-0.5-0.7-1
	c-0.2-0.2-0.5-0.5-0.7-0.7c-0.2-0.2-0.5-0.5-0.7-1c-0.2-0.5-0.7-1.2-1-1.7c-0.2-0.7-0.7-1.2-1-1.9c-0.2-0.2-0.2-0.5-0.5-1
	c-0.2-0.2-0.2-0.7-0.5-1c-0.2-0.2-0.2-0.7-0.5-1c-0.2-0.2-0.2-0.7-0.5-1c-0.2-0.2-0.2-0.7-0.5-1c-0.2-0.7-0.5-1.4-0.7-1.9
	c-0.5-1-1-2.1-1-3.3c-0.2-0.7-0.5-1.4-0.7-2.1s-0.2-1.4-0.5-2.4c-0.2-0.7-0.2-1.4-0.5-2.4c0-0.5,0-0.7-0.2-1.2c-0.7-2.1-1-5-1-7.1
	c0-0.5,0-0.7-0.2-1.2c0-0.7,0-1.7-0.2-2.4c0-0.7,0-1.7-0.2-2.4c0-0.5,0-1,0-1.4c0-0.7,0-1.7,0-2.4c-0.2-1.7-0.2-3.6,0-5
	c0-1,0-1.7,0-2.6s0.2-1.7,0.2-2.6c0-0.5,0-1,0-1.4s0-0.7,0-1.2c0-0.5,0-1,0-1.4c0-0.5,0-0.7,0-1.2c0-1,0-1.7,0.2-2.6
	c0-3.6,0.7-7.9,1.7-11.2c0-0.7,0.2-1.7,0.5-2.4c0-0.5,0.2-0.7,0.2-1.2c0.2-0.7,0.2-1.7,0.5-2.4c0-0.2,0.2-0.7,0.2-1.2
	s0.2-0.7,0.2-1.2c0.2-0.7,0.2-1.4,0.5-2.4c0-0.5,0.2-0.7,0.2-1.2s0.2-0.7,0.2-1.2c0.2-0.7,0.5-1.4,0.7-2.4c0.2-0.7,0.2-1.4,0.7-2.1
	C148.7,473.7,148.7,473.7,148.7,473.7C149,473.4,148.7,473.7,148.7,473.7z"/>
<path fill="#020202" d="M290.4,530.3c0,0.2,0.5,0.7,1.2,1c1.4,0.7,3.1,2.9,4.3,4.3c0.7,0.7,1.2,1.4,1.9,2.4c0.5,0.7,1.2,1.4,1.7,2.4
	c1,1.2,1.7,2.4,2.4,3.6c1.2,1.4,1.9,3.3,2.9,5c0.2,0.5,0.5,0.7,0.7,1.2c0.5,0.7,1,1.7,1.2,2.4c0.5,1.2,1.2,2.4,1.7,3.6
	c0.2,0.7,0.5,1.4,1,2.4c0.7,1.7,1.2,3.6,1.9,5.2c0,0.2,0.2,0.7,0.2,1c0,0.2,0.2,0.7,0.2,1c0.2,1.2,0.5,2.1,0.7,3.3
	c0,0.2,0,0.5,0,0.7c0,0.5,0.2,0.7,0.2,1.2c0,0.5,0.2,1.2,0,1.7v0.2c0,0,0,0,0,0.2c0,0,0,0,0,0.2c-0.5,0.2-1,0.5-1.4,0.5
	c-0.5,0.2-1,0.2-1.4,0.2c-0.7,0.2-1.4,0.2-2.1,0.2c-0.7,0-1.4,0.2-2.4,0.2s-1.7,0.2-2.6,0.2c-0.5,0-1,0-1.4,0.2c-0.5,0-1,0-1.4,0
	c-0.5,0-1,0-1.4,0c-1,0-1.9,0-2.9,0s-1.9,0-2.9,0s-1.9,0-2.9,0c-1.2-0.2-2.6-0.2-3.8-0.2c-1.2-0.2-2.9-0.2-4-0.7
	c-0.2,0-0.5-0.2-0.7-0.2s-0.5-0.2-0.7-0.2c-0.2-0.2-0.5-0.7-0.7-1.2c-0.2-0.2-0.2-0.7-0.2-1c-0.5-2.1-0.7-4.8-1.4-6.9
	c0-0.2-0.2-0.7-0.2-1c0-0.2-0.2-0.7-0.2-1.2c0-0.2-0.2-0.7-0.2-1.2c-0.2-0.7-0.2-1.7-0.7-2.4c-0.2-0.5-0.2-1-0.2-1.4
	c-0.2-0.5-0.2-0.7-0.5-1.2c-0.2-0.5-0.2-1-0.5-1.4c-0.5-1.4-1-2.6-1.7-4c-0.5-1.4-1.2-2.6-2.1-4c-1.4-2.4-2.9-4.5-4.8-6.7l0,0v0.2
	c0,0.2,0.2,0.7,0.2,1s0,0.5,0,0.7c0,0.2,0,0.7,0,1c0,0.2,0,0.7,0,1c0,0.5,0,0.7,0.2,1.2c0,0.5,0,0.7,0,1.2c0,0.5,0,1,0,1.4
	c0,1,0.2,1.9,0.2,2.9c0,0.5,0,1,0,1.4c0,0.5,0,1,0,1.7c0,0.5,0,1,0,1.7c0,1,0,2.1,0.2,3.1c0,2.4,0,4.8,0,7.4c0,0.5,0,1,0,1.4
	c0,0.5,0,0.7,0,1.2c-0.2,1-0.2,1.9-0.5,2.9c0,0.2-0.2,0.5-0.2,0.7c0,0.2-0.2,0.2-0.2,0.5l-0.2,0.2c-0.2,0-0.2,0.2-0.5,0.2
	s-0.5,0.2-0.7,0.2c-0.2,0-0.5,0.2-0.7,0.2c-1.7,0.7-3.8,1-5.5,1c-0.5,0-1,0-1.4,0.2c-0.5,0-1,0-1.4,0c-0.5,0-1,0-1.4,0
	c-2.9,0.2-5.9,0.2-8.8,0c-0.5,0-1,0-1.4,0c-0.5,0-1,0-1.4,0c-0.5,0-0.7,0-1.2,0c-0.7,0-1.4,0-2.1-0.2c-1,0-1.7-0.2-2.4-0.5
	c-0.5,0-0.7-0.2-1-0.5l0,0c0,0,0,0,0-0.2c0,0,0,0,0-0.2v-0.2v-0.2c0,0,0-0.2,0-0.5c0,0,0-0.2,0-0.5s0-0.2,0-0.5c0-0.5,0-0.7-0.2-1.2
	c0-0.2,0-0.5,0-0.7s0-0.5,0-0.7c0-0.5-0.2-1.2,0-1.7c0-0.7-0.2-1.2-0.2-1.9s0-1.4,0-1.9c0-0.7,0-1.4,0-2.1c-0.2-1.2,0-2.4-0.2-3.6
	c0-1.7,0.2-3.6,0-5.2c0-8.6-1-17.4,0-25.9c0-2.1-0.2-4.3,0-6.4c0-1.7,0-3.3,0-4.8c0.2-1.7,0-3.1,0.2-4.8c0-1,0-2.1,0-3.1
	s0-1.9,0-3.1c0-1,0-1.9,0-3.1c0-1,0-1.9,0-2.9s0-1.9,0-2.6c0-1,0-1.7,0.2-2.6c0-0.5,0-0.7,0-1.2c0-0.7,0.2-1.7,0-2.4
	c0-0.7,0-1.4,0.2-2.1c0-0.5,0-0.7,0-1.2c0-0.7,0.2-1.4,0.2-1.9c0-0.2,0-0.7,0-1c0-0.2,0-0.5,0-1c0-0.5,0-1.2,0.2-1.7
	c0-0.2,0-0.5,0-0.7c0-0.5,0-1,0.2-1.4c0-0.2,0-0.5,0-0.7c0-0.2,0-0.2,0-0.5c0-0.2,0-0.2,0-0.5c0-0.2,0-0.5,0.2-0.7v-0.2
	c0,0,0,0,0-0.2v-0.2c0,0,0,0,0-0.2c0,0,0.2,0,0.2-0.2l0.2-0.2c1-0.5,2.1-1.2,3.1-1.2c0.5-0.2,1-0.2,1.4-0.2c0.2,0,0.5,0,0.7,0
	c0.2,0,0.5,0,1,0c0.2,0,0.7,0,1,0s0.7,0,1,0c0.7,0,1.7,0,2.4,0c1.4-0.2,3.1,0,4.5-0.2c2.6,0,5,0,7.6,0c2.4,0,4.8,0,7.4,0
	c1,0,1.9,0,3.1,0c1,0,1.9,0,3.1,0.2c1,0,1.9,0,2.9,0.2c1,0,1.9,0.2,2.9,0.5c1,0.2,1.7,0.2,2.6,0.5c0.7,0.2,1.7,0.5,2.4,0.7
	c0.7,0.2,1.7,0.5,2.4,1c0.7,0.2,1.4,0.5,2.4,1c0.7,0.2,1.4,0.7,2.1,1.2c0.2,0.2,0.7,0.2,1,0.5c0.2,0.2,0.7,0.5,1,0.7
	c1.4,1.2,3.1,2.1,4.5,3.6c0.2,0.2,0.5,0.5,0.7,0.7c0.2,0.2,0.5,0.5,0.7,0.7c2.1,2.6,4.5,5.5,5.5,8.8c1,1.7,1.4,4,1.7,5.9
	c0.5,1.7,0.5,3.6,0.7,5.5c0,0.5,0,1,0,1.4c0,2.4,0,5-0.7,7.4c-0.2,0.7-0.5,1.7-0.7,2.4c-0.2,0.2-0.2,0.7-0.2,1
	c-0.2,0.2-0.2,0.7-0.5,1c-0.2,0.2-0.2,0.7-0.5,1c-0.2,0.2-0.5,0.7-0.7,1c-0.2,0.2-0.5,0.5-0.7,1c-0.5,1-1.2,1.9-2.1,2.6
	c-0.2,0.2-0.5,0.5-0.7,0.7c-1,0.7-1.7,1.4-2.6,2.1c-0.2,0.2-0.5,0.5-1,0.7c-0.2,0.2-0.7,0.5-1,0.7c-0.2,0.2-0.7,0.5-1,0.7
	c-0.7,0.2-1.4,0.7-2.1,1c-0.2,0-0.7,0.2-1,0.5c-0.2,0.2-0.7,0.5-1,0.5C290.6,530.1,290.4,530.1,290.4,530.3S290.4,530.1,290.4,530.3
	z M279.2,505.6c0-0.7,0-1.2,0-1.9c0-0.5-0.2-1.2-0.5-1.7c-0.2-0.5-0.2-1-0.5-1.7c-0.2-0.5-0.5-1-0.7-1.4c-0.2-0.5-0.5-0.7-1-1.2
	c-0.2-0.2-0.7-0.7-1-1c-0.2-0.2-0.7-0.5-1.2-1c-0.2-0.2-0.7-0.5-1.2-0.7c-0.5-0.2-0.7-0.5-1.2-0.7c-0.5-0.2-0.7-0.2-1.2-0.5
	c-0.7-0.2-1.7-0.5-2.4-0.7c-0.5,0-0.7-0.2-1.2-0.2c-0.2,0-0.7,0-1,0c-0.2,0-0.5,0-1,0c-0.2,0-0.5,0-0.7,0c-0.2,0-0.5,0-0.7,0
	s-0.2,0-0.2,0c-0.2,0-0.2,0.2,0,0.5c0,0.2,0,0.5,0,0.7c0,0.2,0,0.5,0,0.7c0,0.5,0,1,0,1.7c0,0.7,0.2,1.2,0.2,1.9
	c0,0.7,0.2,1.4,0.2,1.9s0,0.7,0.2,1.2c0,0.7,0.2,1.7,0.2,2.4c0,0.5,0,0.7,0.2,1.2c0,1,0,1.9,0.2,2.6c0,0.5,0,1,0.2,1.4
	c0,1,0.2,1.9,0.2,2.9c0,0.5,0,1,0,1.7c0,0.5,0.2,1,0,1.7c-0.2,0.5-0.2,1.2,0,1.7c0,0,0.2,0.2,0.5,0c0.2,0,0.5,0,0.7,0
	c0.5,0,1.2-0.2,1.7-0.2c0.2,0,0.7-0.2,1-0.2c0.7-0.2,1.4-0.5,2.1-0.7c0.7-0.2,1.7-0.7,2.4-1.2c0.7-0.5,1.4-1,2.1-1.4
	c1.2-1,1.9-2.1,2.6-3.3c0.2-0.5,0.2-1,0.5-1.4C278.9,507.7,279.2,506.5,279.2,505.6z"/>
<path fill="#020202" d="M319.6,473.7c0,0,0.2-0.2,0.5-0.2c0.2,0,0.5-0.2,0.7-0.2s0.7-0.2,1-0.2c1.2-0.2,2.6-0.5,3.8-0.5
	c0.5,0,1,0,1.7,0c0.5,0,1,0,1.7,0c1.7,0,3.3,0,4.8,0c1.4,0.2,3.1,0.2,4.5,0.2c1,0.2,2.1,0.2,3.1,0.5c0.2,0,0.5,0.2,0.7,0.2l0.2,0.2
	l0.2,0.2c0,0.2,0,0.7-0.2,1c0,0.2,0,0.7,0,1c0,0.7-0.2,1.4-0.2,2.1c0,0.2-0.2,0.7-0.2,1c0,0.7,0,1.4-0.2,2.4
	c-0.2,0.7-0.2,1.7-0.2,2.4c-0.2,0.7-0.2,1.7-0.2,2.4c-0.2,1-0.2,1.7-0.2,2.6c0,0.5-0.2,0.7-0.2,1.2c0,1,0,1.7-0.2,2.6
	c0,1,0,1.7-0.2,2.6c0,0.5,0,1,0,1.4s0,1-0.2,1.4c0,0.5,0,1,0,1.4s0,1,0,1.4s0,1,0,1.4s0,1,0,1.4s0,1,0,1.4c0,1,0,1.7,0,2.6
	c-0.2,2.4-0.2,5.5,0,7.9c0,1,0,1.7,0,2.6c0,0.5,0,0.7,0,1.2c0,0.7,0.2,1.7,0.2,2.4c0.2,0.7,0.2,1.7,0.2,2.4c0,0.2,0,0.7,0.2,1
	c0.2,1,0.2,2.1,0.7,3.3c0,0.2,0.2,0.7,0.2,1c0.2,0.7,0.2,1.4,0.5,1.9c0.2,0.7,0.5,1.2,0.7,1.9c0,0.2,0.2,0.5,0.5,0.7
	c0,0.2,0.2,0.5,0.2,1c0.2,0.2,0.2,0.5,0.5,0.7c0.2,0.2,0.2,0.5,0.5,0.7c0.2,0.5,0.5,1,1,1.4c0.2,0.5,0.7,1,1.2,1.2
	c0.2,0.5,0.7,0.7,1.2,1c0.2,0.2,0.5,0.2,0.7,0.5c0.5,0.2,1,0.7,1.4,0.7c0.2,0,0.5,0.2,0.7,0.2c0.7,0.5,1.7,0.5,2.6,0.7
	c0.2,0,0.5,0,1,0c0.7,0,1.2,0,1.9,0c1.2,0,2.4-0.2,3.6-0.7c0.2,0,0.5-0.2,0.7-0.2s0.5-0.2,0.7-0.5c0.2,0,0.5-0.2,0.7-0.2
	c0.7-0.5,1.4-1,1.9-1.4c0.2-0.2,0.2-0.5,0.5-0.7c0.2-0.2,0.5-0.5,0.7-0.7c0.2-0.2,0.2-0.5,0.5-0.7c0.2-0.2,0.2-0.5,0.5-0.7
	c0.2-0.2,0.2-0.5,0.5-0.7c0.2-0.5,0.5-1,1-1.7c0.5-1,0.7-1.7,1-2.6c0-0.2,0.2-0.7,0.2-1c0-0.2,0.2-0.7,0.2-1c0-0.2,0.2-0.7,0.2-1
	c0-0.7,0.2-1.4,0.2-2.1c0-0.2,0.2-0.7,0.2-1c0.2-1.2,0.5-2.4,0.5-3.3c0-0.5,0-0.7,0-1.2c0-0.5,0-0.7,0-1.2c0-0.7,0.2-1.7,0.2-2.4
	c0-2.4,0.2-5.2,0-7.6c0-0.5,0-1,0-1.4c0-1-0.2-1.7-0.2-2.6c0-0.5,0-1,0-1.4s0-1,0-1.4s0-1,0-1.4c0-1,0-1.7-0.2-2.6
	c0-0.5,0-1-0.2-1.4c0-1.4-0.2-2.6-0.2-4c0-1-0.2-1.7-0.2-2.6c0-1.2-0.2-2.6-0.5-3.8c0-1.2-0.2-2.4-0.5-3.6c0-1.2-0.2-2.4-0.5-3.6
	c0-0.7-0.2-1.4-0.2-2.1c0-0.7-0.2-1.4-0.2-2.1c0-0.2-0.2-0.7-0.2-1c0,0,0-0.2,0.2-0.2l0.2-0.2c0.2,0,0.5,0,0.7-0.2
	c0.2,0,0.5,0,1-0.2c0.2,0,0.7-0.2,1-0.2c1-0.2,1.7-0.2,2.6-0.2c0.5,0,1,0,1.4,0c0.5,0,1,0,1.4,0c2.1-0.2,4.3-0.2,6.4,0
	c0.5,0,1,0,1.4,0c0.5,0,1,0,1.4,0c1.2,0,2.1,0.2,3.3,0.5c0.2,0,0.5,0,0.7,0.2c0.2,0,0.2,0.2,0.5,0.2c0,0,0,0,0.2,0.2
	c0.2,0.7,0.5,1.4,0.7,2.1c0.2,1.2,0.7,2.1,1,3.3c0,0.2,0.2,0.7,0.2,1.2c0.2,0.7,0.2,1.4,0.5,2.4c0,0.2,0.2,0.7,0.2,1.2
	c0,0.2,0.2,0.7,0.2,1.2s0.2,0.7,0.2,1.2s0.2,0.7,0.2,1.2c0,0.2,0.2,0.7,0.2,1.2c0.2,0.7,0.2,1.7,0.5,2.4c0,0.7,0.2,1.7,0.5,2.4
	c0.5,3.3,1.4,6.7,1.4,10c0,0.5,0,1,0.2,1.4c0,0.7,0,1.7,0.2,2.4c0,0.5,0,1,0,1.4c0,0.5,0,0.7,0,1.2s0,1,0,1.4c0,1,0.2,1.7,0.2,2.6
	c0,0.7,0,1.7,0,2.4c0,1.7,0.2,3.3,0,5c0,1,0,1.7,0,2.6c0,0.7-0.2,1.7-0.2,2.4c0,0.5,0,0.7,0,1.2c0,0.5,0,0.7,0,1.2
	c0,0.7,0,1.7-0.2,2.4c0,2.1-0.5,5-1,7.1c0,0.7-0.2,1.7-0.5,2.4c0,0.2-0.2,0.7-0.2,1.2c-0.2,0.7-0.2,1.4-0.5,2.4c0,0.2-0.2,0.7-0.2,1
	c-0.2,1.4-1,2.9-1.4,4.3c-0.2,0.7-0.5,1.4-0.7,2.1c-0.2,0.2-0.2,0.7-0.5,1c-0.2,0.2-0.2,0.7-0.5,1c-0.2,0.2-0.2,0.7-0.5,1
	c-0.2,0.2-0.2,0.7-0.5,1c-0.2,0.2-0.2,0.7-0.5,1c-0.2,0.7-0.5,1.2-1,1.9c-0.2,0.2-0.5,0.7-0.7,1c-0.2,0.7-0.7,1.2-1.2,1.7
	c-0.5,0.5-1,1.2-1.2,1.7c-0.5,0.5-1,1.2-1.4,1.7c-0.2,0.2-0.5,0.5-0.7,0.7c-0.7,0.7-1.4,1.4-2.1,2.1c-0.2,0.2-0.5,0.5-0.7,0.7
	s-0.5,0.5-0.7,0.7c-0.2,0.2-0.5,0.5-0.7,0.7c-0.5,0.5-1.2,1-1.7,1.2c-1,0.5-1.7,1-2.6,1.7c-0.2,0.2-0.7,0.2-1,0.5
	c-0.2,0.2-0.7,0.2-1,0.5c-0.2,0-0.7,0.2-1,0.5c-0.2,0-0.7,0.2-1,0.2c-0.2,0-0.7,0.2-1,0.2c-0.2,0.2-0.7,0.2-1,0.2
	c-0.7,0.2-1.4,0.5-2.1,0.7c-0.2,0-0.7,0.2-1,0.2c-1.9,0.5-4,1-5.9,1c-1,0-1.7,0.2-2.6,0c-1,0-1.7,0-2.6,0c-0.5,0-0.7,0-1.2,0
	c-0.5,0-1,0-1.4,0c-0.5,0-0.7,0-1.2-0.2c-1.2,0-2.6-0.2-3.6-0.5c-0.2,0-0.7-0.2-1.2-0.2c-0.2,0-0.7-0.2-1.2-0.2
	c-1.7-0.2-3.8-1-5.2-1.7c-0.2,0-0.7-0.2-1-0.5c-0.2,0-0.7-0.2-1-0.5c-0.2-0.2-0.7-0.2-1-0.5c-0.7-0.2-1.2-0.7-1.7-1
	c-0.7-0.2-1.2-0.7-1.7-1.2c-0.5-0.5-1.2-1-1.7-1.2c-0.5-0.5-1-1-1.4-1.4c-0.5-0.5-1-1-1.4-1.4c-0.5-0.5-1-1-1.4-1.4
	c-0.5-0.5-1-1.2-1.4-1.7c-0.2-0.2-0.5-0.5-0.7-1c-0.2-0.2-0.5-0.5-0.7-0.7c-0.2-0.2-0.5-0.5-0.7-1c-0.2-0.5-0.7-1.2-1-1.7
	c-0.2-0.7-0.7-1.2-1-1.9c-0.2-0.2-0.2-0.5-0.5-1c-0.2-0.2-0.2-0.7-0.5-1c-0.2-0.2-0.2-0.7-0.5-1c-0.2-0.2-0.2-0.7-0.5-1
	c-0.2-0.2-0.2-0.7-0.5-1c-0.2-0.7-0.5-1.4-0.7-1.9c-0.5-1-1-2.1-1-3.3c-0.2-0.7-0.5-1.4-0.7-2.1s-0.2-1.4-0.5-2.4
	c-0.2-0.7-0.2-1.4-0.5-2.4c0-0.5,0-0.7-0.2-1.2c-0.7-2.1-1-5-1-7.1c0-0.5,0-0.7-0.2-1.2c0-0.7,0-1.7-0.2-2.4c0-0.7,0-1.7-0.2-2.4
	c0-0.5,0-1,0-1.4c0-0.7,0-1.7,0-2.4c-0.2-1.7-0.2-3.6,0-5c0-1,0-1.7,0-2.6s0.2-1.7,0.2-2.6c0-0.5,0-1,0-1.4s0-0.7,0-1.2
	c0-0.5,0-1,0-1.4c0-0.5,0-0.7,0-1.2c0-1,0-1.7,0.2-2.6c0-3.6,0.7-7.9,1.7-11.2c0-0.7,0.2-1.7,0.5-2.4c0-0.5,0.2-0.7,0.2-1.2
	c0.2-0.7,0.2-1.7,0.5-2.4c0-0.2,0.2-0.7,0.2-1.2s0.2-0.7,0.2-1.2c0.2-0.7,0.2-1.4,0.5-2.4c0-0.5,0.2-0.7,0.2-1.2s0.2-0.7,0.2-1.2
	c0.2-0.7,0.5-1.4,0.7-2.4c0.2-0.7,0.2-1.4,0.7-2.1C319.4,473.7,319.6,473.7,319.6,473.7C319.9,473.4,319.6,473.7,319.6,473.7z"/>
<path fill="#020202" d="M484.6,473.7c0,0,0.2-0.2,0.5-0.2c0.2,0,0.5-0.2,0.7-0.2s0.7-0.2,1-0.2c1.2-0.2,2.6-0.5,3.8-0.5
	c0.5,0,1,0,1.7,0c0.5,0,1,0,1.7,0c1.7,0,3.3,0,4.8,0c1.4,0.2,3.1,0.2,4.5,0.2c1,0.2,2.1,0.2,3.1,0.5c0.2,0,0.5,0.2,0.7,0.2l0.2,0.2
	l0.2,0.2c0,0.2,0,0.7-0.2,1c0,0.2,0,0.7,0,1c0,0.7-0.2,1.4-0.2,2.1c0,0.2-0.2,0.7-0.2,1c0,0.7,0,1.4-0.2,2.4
	c-0.2,0.7-0.2,1.7-0.2,2.4c-0.2,0.7-0.2,1.7-0.2,2.4c-0.2,1-0.2,1.7-0.2,2.6c0,0.5-0.2,0.7-0.2,1.2c0,1,0,1.7-0.2,2.6
	c0,1,0,1.7-0.2,2.6c0,0.5,0,1,0,1.4s0,1-0.2,1.4c0,0.5,0,1,0,1.4s0,1,0,1.4s0,1,0,1.4s0,1,0,1.4s0,1,0,1.4c0,1,0,1.7,0,2.6
	c-0.2,2.4-0.2,5.5,0,7.9c0,1,0,1.7,0,2.6c0,0.5,0,0.7,0,1.2c0,0.7,0.2,1.7,0.2,2.4c0.2,0.7,0.2,1.7,0.2,2.4c0,0.2,0,0.7,0.2,1
	c0.2,1,0.2,2.1,0.7,3.3c0,0.2,0.2,0.7,0.2,1c0.2,0.7,0.2,1.4,0.5,1.9c0.2,0.7,0.5,1.2,0.7,1.9c0,0.2,0.2,0.5,0.5,0.7
	c0,0.2,0.2,0.5,0.2,1c0.2,0.2,0.2,0.5,0.5,0.7c0.2,0.2,0.2,0.5,0.5,0.7c0.2,0.5,0.5,1,1,1.4c0.2,0.5,0.7,1,1.2,1.2
	c0.2,0.5,0.7,0.7,1.2,1c0.2,0.2,0.5,0.2,0.7,0.5c0.5,0.2,1,0.7,1.4,0.7c0.2,0,0.5,0.2,0.7,0.2c0.7,0.5,1.7,0.5,2.6,0.7
	c0.2,0,0.5,0,1,0c0.7,0,1.2,0,1.9,0c1.2,0,2.4-0.2,3.6-0.7c0.2,0,0.5-0.2,0.7-0.2c0.2,0,0.5-0.2,0.7-0.5c0.2,0,0.5-0.2,0.7-0.2
	c0.7-0.5,1.4-1,1.9-1.4c0.2-0.2,0.2-0.5,0.5-0.7s0.5-0.5,0.7-0.7c0.2-0.2,0.2-0.5,0.5-0.7c0.2-0.2,0.2-0.5,0.5-0.7s0.2-0.5,0.5-0.7
	c0.2-0.5,0.5-1,1-1.7c0.5-1,0.7-1.7,1-2.6c0-0.2,0.2-0.7,0.2-1c0-0.2,0.2-0.7,0.2-1c0-0.2,0.2-0.7,0.2-1c0-0.7,0.2-1.4,0.2-2.1
	c0-0.2,0.2-0.7,0.2-1c0.2-1.2,0.5-2.4,0.5-3.3c0-0.5,0-0.7,0-1.2c0-0.5,0-0.7,0-1.2c0-0.7,0.2-1.7,0.2-2.4c0-2.4,0.2-5.2,0-7.6
	c0-0.5,0-1,0-1.4c0-1-0.2-1.7-0.2-2.6c0-0.5,0-1,0-1.4s0-1,0-1.4s0-1,0-1.4c0-1,0-1.7-0.2-2.6c0-0.5,0-1-0.2-1.4
	c0-1.4-0.2-2.6-0.2-4c0-1-0.2-1.7-0.2-2.6c0-1.2-0.2-2.6-0.5-3.8c0-1.2-0.2-2.4-0.5-3.6c0-1.2-0.2-2.4-0.5-3.6
	c0-0.7-0.2-1.4-0.2-2.1c0-0.7-0.2-1.4-0.2-2.1c0-0.2-0.2-0.7-0.2-1c0,0,0-0.2,0.2-0.2l0.2-0.2c0.2,0,0.5,0,0.7-0.2
	c0.2,0,0.5,0,1-0.2c0.2,0,0.7-0.2,1-0.2c1-0.2,1.7-0.2,2.6-0.2c0.5,0,1,0,1.4,0s1,0,1.4,0c2.1-0.2,4.3-0.2,6.4,0c0.5,0,1,0,1.4,0
	c0.5,0,1,0,1.4,0c1.2,0,2.1,0.2,3.3,0.5c0.2,0,0.5,0,0.7,0.2c0.2,0,0.2,0.2,0.5,0.2c0,0,0,0,0.2,0.2c0.2,0.7,0.5,1.4,0.7,2.1
	c0.2,1.2,0.7,2.1,1,3.3c0,0.2,0.2,0.7,0.2,1.2c0.2,0.7,0.2,1.4,0.5,2.4c0,0.2,0.2,0.7,0.2,1.2c0,0.2,0.2,0.7,0.2,1.2
	s0.2,0.7,0.2,1.2s0.2,0.7,0.2,1.2c0,0.2,0.2,0.7,0.2,1.2c0.2,0.7,0.2,1.7,0.5,2.4c0,0.7,0.2,1.7,0.5,2.4c0.5,3.3,1.4,6.7,1.4,10
	c0,0.5,0,1,0.2,1.4c0,0.7,0,1.7,0.2,2.4c0,0.5,0,1,0,1.4c0,0.5,0,0.7,0,1.2s0,1,0,1.4c0,1,0.2,1.7,0.2,2.6c0,0.7,0,1.7,0,2.4
	c0,1.7,0.2,3.3,0,5c0,1,0,1.7,0,2.6c0,0.7-0.2,1.7-0.2,2.4c0,0.5,0,0.7,0,1.2c0,0.5,0,0.7,0,1.2c0,0.7,0,1.7-0.2,2.4
	c0,2.1-0.5,5-1,7.1c0,0.7-0.2,1.7-0.5,2.4c0,0.2-0.2,0.7-0.2,1.2c-0.2,0.7-0.2,1.4-0.5,2.4c0,0.2-0.2,0.7-0.2,1
	c-0.2,1.4-1,2.9-1.4,4.3c-0.2,0.7-0.5,1.4-0.7,2.1c-0.2,0.2-0.2,0.7-0.5,1s-0.2,0.7-0.5,1c-0.2,0.2-0.2,0.7-0.5,1s-0.2,0.7-0.5,1
	s-0.2,0.7-0.5,1c-0.2,0.7-0.5,1.2-1,1.9c-0.2,0.2-0.5,0.7-0.7,1c-0.2,0.7-0.7,1.2-1.2,1.7c-0.5,0.5-1,1.2-1.2,1.7
	c-0.5,0.5-1,1.2-1.4,1.7c-0.2,0.2-0.5,0.5-0.7,0.7c-0.7,0.7-1.4,1.4-2.1,2.1c-0.2,0.2-0.5,0.5-0.7,0.7c-0.2,0.2-0.5,0.5-0.7,0.7
	c-0.2,0.2-0.5,0.5-0.7,0.7c-0.5,0.5-1.2,1-1.7,1.2c-1,0.5-1.7,1-2.6,1.7c-0.2,0.2-0.7,0.2-1,0.5s-0.7,0.2-1,0.5
	c-0.2,0-0.7,0.2-1,0.5c-0.2,0-0.7,0.2-1,0.2c-0.2,0-0.7,0.2-1,0.2c-0.2,0.2-0.7,0.2-1,0.2c-0.7,0.2-1.4,0.5-2.1,0.7
	c-0.2,0-0.7,0.2-1,0.2c-1.9,0.5-4,1-5.9,1c-1,0-1.7,0.2-2.6,0c-1,0-1.7,0-2.6,0c-0.5,0-0.7,0-1.2,0c-0.5,0-1,0-1.4,0s-0.7,0-1.2-0.2
	c-1.2,0-2.6-0.2-3.6-0.5c-0.2,0-0.7-0.2-1.2-0.2c-0.2,0-0.7-0.2-1.2-0.2c-1.7-0.2-3.8-1-5.2-1.7c-0.2,0-0.7-0.2-1-0.5
	c-0.2,0-0.7-0.2-1-0.5c-0.2-0.2-0.7-0.2-1-0.5c-0.7-0.2-1.2-0.7-1.7-1c-0.7-0.2-1.2-0.7-1.7-1.2s-1.2-1-1.7-1.2
	c-0.5-0.5-1-1-1.4-1.4c-0.5-0.5-1-1-1.4-1.4c-0.5-0.5-1-1-1.4-1.4c-0.5-0.5-1-1.2-1.4-1.7c-0.2-0.2-0.5-0.5-0.7-1
	c-0.2-0.2-0.5-0.5-0.7-0.7c-0.2-0.2-0.5-0.5-0.7-1c-0.2-0.5-0.7-1.2-1-1.7c-0.2-0.7-0.7-1.2-1-1.9c-0.2-0.2-0.2-0.5-0.5-1
	c-0.2-0.2-0.2-0.7-0.5-1c-0.2-0.2-0.2-0.7-0.5-1c-0.2-0.2-0.2-0.7-0.5-1c-0.2-0.2-0.2-0.7-0.5-1c-0.2-0.7-0.5-1.4-0.7-1.9
	c-0.5-1-1-2.1-1-3.3c-0.2-0.7-0.5-1.4-0.7-2.1s-0.2-1.4-0.5-2.4c-0.2-0.7-0.2-1.4-0.5-2.4c0-0.5,0-0.7-0.2-1.2c-0.7-2.1-1-5-1-7.1
	c0-0.5,0-0.7-0.2-1.2c0-0.7,0-1.7-0.2-2.4c0-0.7,0-1.7-0.2-2.4c0-0.5,0-1,0-1.4c0-0.7,0-1.7,0-2.4c-0.2-1.7-0.2-3.6,0-5
	c0-1,0-1.7,0-2.6s0.2-1.7,0.2-2.6c0-0.5,0-1,0-1.4s0-0.7,0-1.2c0-0.5,0-1,0-1.4c0-0.5,0-0.7,0-1.2c0-1,0-1.7,0.2-2.6
	c0-3.6,0.7-7.9,1.7-11.2c0-0.7,0.2-1.7,0.5-2.4c0-0.5,0.2-0.7,0.2-1.2c0.2-0.7,0.2-1.7,0.5-2.4c0-0.2,0.2-0.7,0.2-1.2
	s0.2-0.7,0.2-1.2c0.2-0.7,0.2-1.4,0.5-2.4c0-0.5,0.2-0.7,0.2-1.2s0.2-0.7,0.2-1.2c0.2-0.7,0.5-1.4,0.7-2.4c0.2-0.7,0.2-1.4,0.7-2.1
	C484.3,473.7,484.3,473.7,484.6,473.7C484.6,473.4,484.3,473.7,484.6,473.7z"/>
<path fill="#020202" d="M598.8,531.3L598.8,531.3L598.8,531.3c-0.2-0.2-0.2-0.5-0.2-0.5s0-0.2-0.2-0.2c0-0.2-0.2-0.2-0.2-0.5
	c0,0-0.2-0.2-0.2-0.5s-0.2-0.2-0.2-0.5c0-0.2-0.2-0.5-0.2-0.7c-0.2-0.2-0.2-0.5-0.2-0.7c-0.2-0.2-0.2-0.5-0.5-0.7
	c0-0.2-0.2-0.5-0.5-0.7c-0.2-0.2-0.2-0.5-0.5-1c-0.2-0.2-0.2-0.7-0.5-1c-0.2-0.2-0.2-0.7-0.5-1c-0.5-0.7-0.7-1.4-1.2-2.1
	c-0.2-0.7-0.7-1.4-1.2-2.4c-0.2-0.5-0.5-0.7-0.7-1.2c-0.2-0.5-0.5-0.7-0.7-1.2c-0.5-1-1-1.7-1.4-2.6c-1.2-2.9-2.9-5.5-4.3-8.3
	c-2.9-4.5-4.8-9.5-7.1-14.3c-0.5-1-0.7-1.7-1.2-2.6c-0.2-0.5-0.5-1-0.7-1.4c-0.5-1-0.7-1.7-1.2-2.6c-0.5-1.2-1-2.4-1.7-3.3
	c-0.2-0.2-0.2-0.7-0.5-1.2c-0.2-0.2-0.2-0.7-0.5-1c-0.2-0.7-0.5-1.2-0.7-1.9c-0.2-0.5-0.5-1-0.7-1.7c0-0.2-0.2-0.5-0.2-0.7
	c0-0.2-0.2-0.5-0.2-0.7c0-0.2-0.2-0.5-0.2-0.7c0-0.2,0-0.2,0-0.5c0,0-0.2-0.2-0.2-0.5v-0.2V472v-0.2c0,0,0.2,0,0.5,0
	c0.2,0,0.5,0,0.7-0.2c0.2,0,0.5,0,0.7,0c0.7,0,1.4-0.2,2.1-0.2c0.5,0,0.7,0,1.2,0c1,0,1.9,0,2.9,0c2.6,0,5,0,7.6,0c1,0,1.9,0,2.9,0
	c0.7,0,1.7,0,2.4,0.2c0.2,0,0.7,0,1,0s0.7,0,1,0s0.5,0,0.7,0c0.2,0,0.5,0,0.7,0h0.2c0,0,0,0,0.2,0.2l0.2,0.2c0,0.2,0.2,0.2,0.2,0.5
	c0.2,0.2,0.2,0.5,0.5,0.7c0.2,0.2,0.2,0.5,0.5,0.7c0.2,0.2,0.2,0.5,0.5,1c0.2,0.2,0.5,0.7,0.7,1c0.2,0.2,0.5,0.7,0.7,1.2
	c0.5,0.7,0.7,1.7,1.2,2.4c3.1,5.9,5.7,12.4,9,18.1c0.2,0.2,0.2,0.7,0.5,1c0,0.2,0.2,0.7,0.5,1c0,0.2,0.2,0.5,0.5,1
	c0,0.2,0.2,0.5,0.2,0.7c0,0.2,0.2,0.5,0.2,0.7c0,0.2,0.2,0.5,0.2,0.7l0,0l0,0c0.2-0.2,0.2-0.5,0.2-0.7c0-0.2,0.2-0.5,0.2-0.7
	c0.5-1.2,1.2-2.4,1.7-3.6c0.2-0.2,0.2-0.7,0.5-1c0.5-1,1-1.7,1.2-2.6c0.5-1,1-1.9,1.2-2.6c2.1-4.3,4.5-8.3,6.2-12.6
	c0.2-0.5,0.5-0.7,0.7-1.2c0.2-0.5,0.5-0.7,0.7-1.2c0.2-0.2,0.5-0.7,0.7-1c0.2-0.2,0.2-0.7,0.5-1c0.2-0.2,0.2-0.5,0.5-1
	c0-0.2,0.2-0.5,0.5-0.7c0.2-0.5,0.7-1,1-1.4c0,0,0,0,0.2-0.2c0.2,0,0.7-0.2,1-0.2c0.2,0,0.5,0,1,0c0.2,0,0.7,0,1,0
	c0.7,0,1.7-0.2,2.4-0.2c4,0,8.1-0.5,12.1,0c1,0,1.7,0,2.6,0c0.2,0,0.7,0,1,0c0.2,0,0.7,0,1,0c0.2,0,0.5,0,0.7,0s0.5,0,0.7,0h0.2
	c0.2,0,0,0.5,0,0.5v0.2c0,0.2,0,0.2,0,0.5s-0.2,0.2-0.2,0.5c0,0.2-0.2,0.5-0.2,0.7c-0.2,0.5-0.5,1-0.5,1.4c-0.2,0.2-0.2,0.5-0.2,0.7
	c0,0.2-0.2,0.5-0.2,1c-0.2,0.7-0.5,1.2-1,1.9c-0.2,0.2-0.2,0.7-0.5,1c-0.7,1.7-1.4,3.1-2.1,4.8c-1.2,2.1-2.1,4.3-3.1,6.4
	c-1.9,5-4.8,9.8-6.9,14.5c-1,1.9-1.9,3.8-2.9,5.7c-0.5,1.4-1.4,2.9-2.1,4c-1.4,3.1-3.6,5.9-4.5,9.3c-0.2,0.2-0.2,0.5-0.5,1
	c-0.2,0.2-0.2,0.5-0.5,1c0,0.2-0.2,0.5-0.5,1c-0.2,0.2-0.2,0.5-0.2,0.7s-0.2,0.5-0.2,0.7c-0.2,0.2-0.2,0.5-0.2,0.7s-0.2,0.2-0.2,0.5
	c0,0.2-0.2,0.2-0.2,0.5c0,0.2-0.2,0.5-0.2,0.7v0.2c0,0,0,0,0,0.2l0,0c0,0,0,0,0,0.2v0.2c0,0,0,0.2,0,0.5c0,0.2,0,0.2,0,0.5
	c0.2,0.5,0.2,1,0.2,1.4c0.2,1.2,0.5,2.6,0.7,3.8c0.2,1.2,0.2,2.4,0.7,3.6c0,1,0.2,1.7,0.5,2.6c0,0.5,0,1,0.2,1.4
	c0.2,1,0.5,1.9,0.5,2.9c0,0.5,0,1,0.2,1.4c0.2,1,0.5,1.9,0.5,2.9c0.5,1.9,0.5,4,1,5.9c0,0.5,0,1,0,1.4c0.2,1.2,0.5,2.6,0.5,4
	c0,0.5,0,0.7,0.2,1.2c0,0.5,0,0.7,0,1.2c0,0.2,0,0.7,0,1c0.2,1.2,0,2.9,0,4c0,0.5,0,1-0.2,1.4c-0.2,0.2-0.2,0.5-0.5,0.7
	c0,0-0.2,0-0.2,0.2c-0.2,0-0.5,0-0.7,0.2c-0.2,0-0.5,0-0.7,0c-0.2,0-0.5,0-1,0.2c-1,0-2.1,0-3.3,0.2c-0.5,0-1,0-1.4,0
	c-1,0-1.9,0-2.9,0c-2.6,0-5.2,0.2-7.6,0c-1,0-2.1,0-3.1,0c-0.5,0-1,0-1.4,0s-1,0-1.4,0c-0.5,0-1,0-1.4,0c-0.5,0-1,0-1.4-0.2
	c-0.5,0-0.7,0-1.2,0c-0.7,0-1.4,0-2.1-0.2c-0.5,0-1.2,0-1.7-0.2c-0.2,0-0.5,0-0.7-0.2c-0.2,0-0.5-0.2-0.7-0.2c0,0,0,0,0-0.2
	l-0.2-0.2c0-0.2,0-0.2,0-0.5c-0.5-1.2,0-2.9,0-4.3c0-0.5,0-0.7,0-1.2c0-0.5,0-0.7,0-1.2c0-0.5,0-1,0-1.4c0-0.5,0-1,0.2-1.4
	c0-1.4,0.2-2.9,0.5-4.3c0-1,0-2.1,0.2-3.1c0.5-2.6,0.5-5.2,1-7.9c0.2-1.4,0.2-3.1,0.5-4.5c0.7-2.4,0.7-5,1.2-7.6
	c0-0.7,0-1.2,0.2-1.9c0-0.2,0-0.5,0-0.7c0-0.2,0-0.5,0-0.7s0-0.2,0-0.5c0,0,0-0.2,0-0.5C598.8,531.5,598.8,531.5,598.8,531.3
	L598.8,531.3z"/>
<path fill="#020202" d="M656.9,574.4L656.9,574.4c0-0.2,0-1,0-1c0-0.2,0-0.2,0-0.5c0,0,0-0.2,0-0.5s0-0.2,0.2-0.5
	c0-0.5,0.2-0.7,0.2-1.2c0.5-1.2,0.7-2.4,1-3.6c0.2-0.5,0.2-1.2,0.5-1.7c0-0.2,0-0.7,0.2-1c0-0.2,0.2-0.7,0.2-1c0-0.2,0.2-0.7,0.2-1
	c0-0.2,0.2-0.7,0.2-1c0.2-0.7,0.5-1.4,0.5-2.1c0.2-0.7,0.5-1.7,0.7-2.4c0.2-2.1,1.2-4.3,1.7-6.4c0.5-1.4,0.7-2.9,1.2-4
	c0.2-1,0.5-1.9,1-2.9c0-0.5,0.2-1,0.2-1.4c0.2-1,0.5-1.9,1-2.9c0-0.5,0.2-1,0.2-1.4c0.2-0.5,0.2-1,0.5-1.7c0.2-0.5,0.2-1,0.5-1.4
	c0.2-0.5,0.2-1,0.5-1.4c0.2-0.5,0.2-1,0.5-1.7c0.2-0.5,0.2-1,0.5-1.4c0.2-0.5,0.2-1,0.5-1.7c0.2-0.5,0.2-1,0.5-1.4
	c0.2-0.5,0.2-1,0.5-1.7c0.2-0.5,0.2-1,0.5-1.4c0.2-0.5,0.2-1,0.5-1.7c0.2-0.5,0.2-1,0.5-1.7c0.2-0.5,0.2-1,0.5-1.4
	c0-0.5,0.2-1,0.5-1.7c0-0.5,0.2-1,0.5-1.4c0-0.5,0.2-1,0.5-1.7c0-0.5,0.2-1,0.5-1.4c0-0.5,0.2-1,0.5-1.4c0-0.5,0.2-1,0.5-1.4
	c0-0.5,0.2-1,0.5-1.4c0-0.5,0.2-1,0.5-1.4c0-0.5,0.2-1,0.5-1.4c0-0.5,0.2-1,0.2-1.4c0.2-0.5,0.2-1,0.5-1.4c0.2-1,0.5-1.9,1-2.9
	c0-0.5,0.2-1,0.2-1.4c0.2-1,0.5-1.7,0.7-2.6c0.7-1.7,1-3.3,1.7-5c0.2-1.2,0.7-2.4,1-3.6c0.2-1.2,0.7-2.1,1-3.1c0-0.2,0.2-0.7,0.2-1
	c0-0.2,0.2-0.5,0.2-1c0-0.2,0.2-0.7,0.2-1c0-0.2,0.2-0.5,0.2-0.7c0-0.2,0.2-0.5,0.2-1c0.2-0.5,0.5-1,0.5-1.4s0.2-1,0.5-1.2
	c0.2-0.5,0.2-1.2,0.5-1.7c0-0.2,0-0.5,0.2-0.7v-0.2v-0.2l0.2-0.2l0,0c0,0,0.2,0,0.2-0.2c0.2,0,0.2,0,0.5-0.2c0.2,0,0.5,0,0.7,0
	c0.2,0,0.5,0,1-0.2c0.5,0,0.7,0,1.2,0s0.7,0,1.2,0s1,0,1.4,0c1,0,1.9,0,3.1,0c1.7,0,3.1,0,4.8,0c1.4,0.2,2.9,0,4.5,0.2
	c0.5,0,0.7,0,1.2,0s0.7,0,1.2,0c0.2,0,0.7,0,1,0c0.2,0,0.5,0,0.7,0c0.2,0,0.5,0,0.7,0.2h0.2l0,0l0,0c0,0,0,0,0,0.2v0.2
	c0,0,0,0.2,0.2,0.2v0.2c0,0.2,0,0.2,0.2,0.5c0.2,0.5,0.2,1,0.5,1.7c0,0.2,0,0.5,0.2,0.7c0.2,0.5,0.2,1,0.5,1.4c0,0.2,0,0.5,0.2,0.7
	c0,0.2,0.2,0.5,0.2,1c0,0.2,0.2,0.5,0.2,1c0,0.2,0.2,0.5,0.2,1c0,0.2,0.2,0.7,0.2,1c0,0.2,0.2,0.7,0.2,1c0.2,1,0.7,2.1,1,3.3
	c0.5,1.7,1,3.1,1.4,4.8c0.5,1.2,0.7,2.6,1.2,3.8c0.2,1,0.5,1.9,0.7,2.6c0.2,1,0.5,1.9,1,2.9c0,0.5,0.2,1,0.2,1.4
	c0.2,0.5,0.2,1,0.5,1.4c0.2,1,0.5,1.9,1,3.1c0,0.5,0.2,1,0.5,1.4c0,0.5,0.2,1,0.5,1.4c0,0.5,0.2,1,0.5,1.7c0,0.5,0.2,1,0.5,1.4
	c0,0.5,0.2,1,0.2,1.7c0.2,0.5,0.2,1,0.5,1.4c0.2,0.5,0.2,1,0.5,1.7c0,0.5,0.2,1,0.5,1.7c0,0.5,0.2,1,0.5,1.7c0,0.5,0.2,1,0.5,1.7
	c0,0.5,0.2,1,0.5,1.7c0,0.5,0.2,1,0.5,1.7c0,0.5,0.2,1,0.5,1.7c0,0.5,0.2,1,0.5,1.4c0,0.5,0.2,1,0.2,1.7c0.2,0.5,0.2,1,0.5,1.7
	c0.2,0.5,0.2,1,0.5,1.7c0.2,0.5,0.2,1,0.5,1.4c0.2,1,0.5,2.1,1,3.1c0,0.5,0.2,1,0.2,1.4c0.2,1,0.5,1.9,1,3.1c0.2,1,0.5,1.9,0.7,2.9
	c0.2,1,0.5,1.9,0.7,2.9c1,2.4,1.7,5.2,2.1,7.9c0.2,0.7,0.5,1.7,0.7,2.4c0.2,0.7,0.5,1.4,0.7,2.4c0,0.2,0.2,0.7,0.2,1s0.2,0.7,0.2,1
	s0.2,0.7,0.2,1c0,0.2,0.2,0.7,0.2,1c0,0.7,0.2,1.2,0.5,1.9c0.2,1.2,0.5,2.6,1,3.8c0,0.2,0,0.2,0.2,0.5c0,0.2,0,0.7,0.2,1
	c0,0.2,0,0.2,0,0.5c0,0.2,0,0.5,0.2,0.7c0,0.2,0,0.5,0,0.7l0,0l-0.2,0.2c0,0-0.2,0-0.5,0.2c-0.2,0-0.5,0-0.7,0s-0.5,0-1,0.2
	c-0.7,0-1.4,0.2-2.1,0.2c-1,0-1.7,0-2.6,0.2c-3.1,0-6.2,0-9.3,0c-1,0-1.9,0-3.1-0.2c-0.5,0-1,0-1.4,0s-1,0-1.4,0c-0.2,0-0.7,0-1.2,0
	c-0.2,0-0.7,0-1-0.2c-0.5,0-1.2,0-1.7-0.2c-0.5,0-0.7-0.2-1-0.5c0-0.2,0-0.2-0.2-0.5c0-0.2-0.2-0.5-0.2-0.7
	c-0.2-0.5-0.5-1.2-0.5-1.7c-0.2-0.7-0.5-1.4-0.7-2.4c-0.2-1-0.5-1.7-0.7-2.6c-1-4.5-2.6-9-3.1-13.8c-0.2-1-0.5-1.7-0.7-2.6
	c-0.2-0.5-0.2-0.7-0.2-1.2c-0.2-1-0.2-2.1-0.7-3.1c0-0.2,0-0.5,0-0.7s-0.2-0.2-0.2-0.5c0-0.2,0-0.5,0-0.5c-0.2,0-0.2,0-0.5,0
	c-0.2,0-0.5,0-0.7,0c-0.7,0-1.7-0.2-2.4-0.2c-0.5,0-1,0-1.4,0c-1.9-0.2-4-0.2-6.2,0c-0.7,0-1.7,0-2.4,0.2c-0.2,0-0.5,0.2-0.7,0.2
	s-0.2,0.2-0.5,0.2l0,0v0.2c0,0.2,0,0.2,0,0.5c-0.2,1-0.2,1.7-0.7,2.6c0,0.2-0.2,0.7-0.2,1.2s-0.2,0.7-0.2,1.2c0,0.5-0.2,1-0.2,1.4
	c-0.5,4-1.9,8.3-2.9,12.4c-0.2,1.9-1,3.6-1.2,5.5c-0.2,0.5-0.2,0.7-0.2,1.2c0,0.2-0.2,0.7-0.2,1c0,0.2-0.2,0.5-0.2,0.7
	c0,0.2-0.2,0.5-0.2,0.7c0,0.2,0,0.2-0.2,0.5v0.2l-0.2,0.2c-0.2,0-0.2,0-0.5,0.2c-1.2,0.2-2.6,0.7-3.8,0.7c-0.5,0-1,0-1.4,0.2
	c-1,0-1.9,0.2-2.9,0.2c-0.5,0-1,0-1.4,0c-1.7,0.2-3.1,0-4.8,0.2c-1,0-1.9,0-3.1,0c-0.5,0-1,0-1.4,0s-1,0-1.4,0s-0.7,0-1.2,0
	c-0.2,0-0.7,0-1-0.2c-0.5,0-1.2,0-1.7-0.2c-0.2,0-0.2,0-0.5-0.2C657.1,574.6,657.1,574.6,656.9,574.4z M702.6,534.1c0,0,0-0.2,0-0.5
	c0-0.2,0-0.2,0-0.5c0-0.5-0.2-1-0.2-1.4c0-1.2-0.5-2.4-0.7-3.6c-0.2-1-0.5-2.1-0.7-3.1c-0.2-0.7-0.2-1.4-0.5-2.4
	c0-0.7-0.2-1.7-0.5-2.4c0-0.5-0.2-0.7-0.2-1.2c-0.2-1-0.2-1.7-0.5-2.6c0-0.5,0-1-0.2-1.4c-0.2-1-0.2-1.7-0.5-2.6
	c-0.5-1.2-0.2-2.6-0.7-3.8c0-0.5,0-1-0.2-1.4c-0.2-0.5-0.2-1-0.2-1.4c0-1.7-0.2-1.7-0.2,0c0,0.5,0,1-0.2,1.4c-0.2,0.5-0.2,1-0.2,1.4
	c0,1.2-0.5,2.9-0.7,4c0,0.5-0.2,1-0.2,1.4c0,0.5-0.2,1-0.2,1.4c0,0.5-0.2,1-0.2,1.4c0,0.5-0.2,1-0.2,1.4c0,0.5-0.2,1-0.2,1.4
	c0,0.5-0.2,1-0.2,1.4c0,0.5-0.2,1-0.2,1.4c0,0.5-0.2,0.7-0.2,1.2c-0.2,0.7-0.2,1.7-0.5,2.4c0,0.5,0,0.7-0.2,1.2
	c-0.2,1-0.5,2.1-0.7,3.1c0,0.5-0.2,1.2-0.2,1.7c0,0.7-0.2,1.9-0.5,2.6c-0.5,0.7,1,0.5,1.4,0.7c0.5,0,0.7,0,1.2,0c1,0,1.9,0,2.9,0
	c0.5,0,1,0,1.4,0s1,0,1.4-0.2c0.2,0,0.7,0,1.2,0C701.6,534.4,702.1,534.4,702.6,534.1C702.6,533.9,702.6,534.1,702.6,534.1z"/>
<g>
	<g>
		<path fill="#1B7C09" d="M28.1,574.6L28.1,574.6c0-0.5,0-1.2,0-1.4c0,0,0-0.2,0-0.5c0-0.2,0-0.2,0-0.5s0-0.2,0-0.5
			c0-0.2,0-0.5,0-0.7c0-0.2,0-0.5,0-0.7c0.2-0.5,0.2-1,0.2-1.4c0.5-1.9,0.7-3.6,1-5.5c0.2-0.7,0.2-1.4,0.5-2.1
			c0.2-0.7,0.2-1.4,0.5-2.4c0-0.5,0.2-0.7,0.2-1.2s0.2-0.7,0.2-1.2c0-0.5,0.2-0.7,0.2-1.2c0-0.5,0.2-1,0.2-1.4
			c0.2-1,0.5-1.7,0.5-2.6c0-0.5,0.2-1,0.2-1.4c0.2-1,0.2-1.9,0.7-2.9c0.2-1.9,1-3.8,1.2-5.7c1.2-5,1.9-10.5,3.6-15.5
			c0.5-2.6,1.2-5.2,1.7-7.9c1-3.1,1.4-6.2,2.1-9.3c1.2-3.3,1.7-6.9,2.6-10.2c0.2-1.9,0.7-3.6,1.4-5.5c0.2-1,0.2-1.7,0.7-2.6
			c0.2-0.7,0.2-1.7,0.7-2.4c0.2-0.7,0.2-1.4,0.5-2.4c0-0.2,0.2-0.7,0.2-1c0-0.2,0.2-0.7,0.2-1c0-0.2,0.2-0.7,0.2-1
			c0-0.2,0.2-0.7,0.2-1c0.2-0.5,0.2-1.2,0.5-1.7c0-0.5,0.2-1.2,0.5-1.7c0.2-0.7,0.5-1.4,0.5-2.1c0-0.2,0-0.5,0.2-0.7
			c0-0.2,0.2-0.7,0.2-1s0-0.2,0-0.5c0-0.2,0-0.2,0.2-0.5v-0.2v-0.2V473c0,0,0,0,0.2-0.2l0.2-0.2c0.2,0,0.2-0.2,0.5-0.2
			c0.2,0,0.5,0,0.7-0.2c0.2,0,0.7,0,1,0c0.2,0,0.7,0,1,0c1,0,1.7,0,2.6-0.2c2.1,0,4,0,6.2,0c1,0,1.9,0,3.1,0.2c0.5,0,1,0,1.4,0
			s1,0,1.4,0c0.7,0,1.7,0,2.4,0.2c0.7,0,1.2,0.2,1.7,0.2c0.2,0,0.2,0,0.5,0c0,0,0.2,0,0.2,0.2c0,0,0,0,0.2,0.2v0.2
			c0,0.2,0,0.2,0.2,0.5c0,0.2,0,0.5,0.2,0.7c0.2,0.5,0.5,1.2,0.5,1.7c0,0.2,0.2,0.7,0.2,1c0,0.5,0.2,0.7,0.2,1.2s0.2,0.7,0.2,1.2
			s0.2,1,0.2,1.4c0,0.5,0.2,1,0.2,1.4c0,0.5,0.2,1,0.2,1.4c0.2,1,0.5,2.1,0.5,3.1c0,0.5,0.2,1,0.2,1.7c0.2,1.2,0.5,2.1,0.5,3.3
			c0,0.5,0.2,1,0.2,1.7c0.2,1.2,0.2,2.1,0.5,3.3c0,0.5,0.2,1,0.2,1.7c0,0.5,0.2,1,0.2,1.7c0,0.5,0.2,1,0.2,1.4
			c0.2,1,0.2,1.9,0.5,2.6c0,1,0.2,1.7,0.5,2.4c0.2,0.7,0.2,1.4,0.2,2.1c0.2,0.5,0.2,1,0.2,1.7c0,0.2,0,0.2,0.2,0.5
			c0,0.2,0,0.2,0,0.5v0.2l0,0l0,0v-0.2V511c0-0.2,0-0.5,0-0.7c0-0.2,0-0.5,0-0.7c0.2-1.7,0.5-3.6,1-5.2c0-0.5,0-1,0.2-1.4
			c0-0.5,0.2-1,0.2-1.4s0.2-1,0.2-1.4s0.2-1,0.2-1.4c0.2-1,0.2-2.1,0.5-3.1s0.5-2.1,0.7-3.1c0.2-1.7,0.7-3.1,1-4.8
			c0.2-1.4,0.7-3.1,1-4.5c0.2-1,0.5-1.9,0.7-2.9c0.2-0.7,0.2-1.7,0.5-2.4c0-0.5,0.2-0.7,0.2-1.2c0-0.2,0.2-0.7,0.2-1
			c0-0.2,0.2-0.5,0.2-1c0-0.2,0.2-0.5,0.2-0.7c0-0.2,0-0.5,0.2-0.7c0-0.2,0.2-0.2,0.2-0.5c0-0.2,0.2-0.5,0.2-0.5
			c0.2-0.2,1.2,0,1.2,0c0.7,0,1.2-0.2,1.9-0.2c0.5,0,0.7,0,1.2,0c0.5,0,1,0,1.4,0c1,0,1.9,0,3.1-0.2c0.5,0,1,0,1.7,0
			c1,0,2.1,0,3.1,0c1.9-0.2,4-0.2,5.9,0c0.5,0,0.7,0,1.2,0c0.2,0,0.7,0,1,0c0.2,0,0.5,0,0.7,0.2c0.2,0,0.5,0,0.7,0l0.2,0.2l0,0
			c0,0,0,0,0,0.2c0,0,0,0,0,0.2v0.2c0,0.2,0,0.5,0.2,0.7c0,0.2,0,0.2,0.2,0.5c0.2,0.2,0.2,0.7,0.2,1c0,0.2,0,0.5,0.2,0.7
			c0,0.2,0,0.5,0.2,0.7c0.5,0.7,0.5,1.4,0.7,2.4c0.2,0.5,0.2,1.2,0.5,1.7c0,0.2,0,0.5,0.2,1c0,0.2,0.2,0.7,0.2,1
			c0,0.2,0.2,0.7,0.2,1c0,0.2,0.2,0.7,0.2,1c0,0.2,0.2,0.7,0.2,1c0,0.5,0.2,0.7,0.2,1.2c0.2,0.7,0.5,1.7,0.5,2.4
			c0.2,0.7,0.5,1.7,0.7,2.4c0.5,1.2,0.7,2.6,1,4c0.7,4.8,2.4,9.8,3.6,14.5c1,2.4,1.2,5.2,1.9,7.6c1,2.6,1,5.5,1.9,8.1
			c1.4,6.4,3.6,13.1,4.5,19.8c0.2,1,0.5,1.9,0.7,2.9c0.2,1,0.2,1.9,0.7,2.6c0.2,1,0.2,1.7,0.5,2.6c0,0.5,0.2,1,0.2,1.4
			c0,0.5,0.2,0.7,0.2,1.2s0.2,0.7,0.2,1.2c0,0.5,0.2,0.7,0.2,1.2c0,0.2,0,0.7,0.2,1.2c0.2,0.7,0.2,1.4,0.5,2.1
			c0,0.7,0.2,1.4,0.5,2.1c0.2,1.4,0.5,2.9,1,4.3c0,0.5,0,1,0.2,1.4c0,0.2,0,0.5,0,0.7c0,0.2,0,0.5,0,0.7c0,0.2,0,0.2,0,0.5
			s0,0.2,0,0.5s0,0.5,0.2,0.7c0,0.2,0,0.7,0,1l0,0h-0.2c-0.2,0-0.2,0-0.2,0.2c-0.2,0-0.5,0-0.7,0s-0.5,0-0.7,0.2c-0.2,0-0.5,0-1,0
			c-0.2,0-0.7,0-1,0c-0.5,0-0.7,0-1.2,0s-1,0-1.4,0c-0.5,0-1,0-1.4,0c-1,0-1.9,0.2-2.9,0c-3.1,0.2-6.7,0.2-9.8,0c-1,0-1.9,0-3.1,0
			c-0.5,0-1,0-1.4,0c-0.5,0-1,0-1.4,0c-0.2,0-0.7,0-1.2,0c-0.5,0-0.7,0-1.2,0c-0.2,0-0.7,0-1,0s-0.5,0-0.7-0.2c-0.2,0-0.5,0-0.7,0
			c-0.2,0-0.2,0-0.5-0.2h-0.2v-0.2l-0.2-0.2c0-0.2,0-0.2-0.2-0.5c0-0.2,0-0.5-0.2-0.7c0-0.2-0.2-0.5-0.2-0.7
			c-0.2-0.5-0.5-1.2-0.5-1.7c0-0.2-0.2-0.7-0.2-1c-0.2-0.7-0.5-1.4-0.5-2.4c0-0.5-0.2-0.7-0.2-1.2c-0.2-1-0.5-1.9-0.5-2.6
			c-0.2-0.5-0.2-1-0.2-1.4c0-0.5-0.2-1-0.2-1.4c-0.2-1-0.2-2.1-0.5-3.1c-0.2-0.5-0.2-1-0.2-1.7c-0.2-1.2-0.5-2.1-0.5-3.3
			c0-0.5-0.2-1-0.2-1.7c-0.2-1.2-0.2-2.1-0.5-3.3c0-0.5-0.2-1-0.2-1.7c0-0.5-0.2-1-0.2-1.7c-0.2-0.5-0.2-1-0.2-1.7
			c0-0.5-0.2-1-0.2-1.4c-0.2-0.5-0.2-1-0.2-1.4c-0.2-1-0.2-1.9-0.5-2.9c-0.7-2.1-0.7-4.3-1.2-6.4c0-0.2,0-0.5,0-0.7
			c0-0.5,0-1.2-0.2-1.4c0,0,0,0,0-0.2l0,0l0,0c0,0,0,0,0,0.2v0.2c0,0.2,0,0.2-0.2,0.5c0,0.2,0,0.5-0.2,0.7c-0.5,0.7-0.7,1.7-0.7,2.6
			c-0.5,1.2-0.7,2.1-1,3.3c-0.2,1-0.5,1.7-1,2.6c0,0.5-0.2,1-0.5,1.4c-0.2,1-0.7,1.9-1,2.9c-0.5,1.4-1.2,3.1-1.4,4.5
			c-1.2,3.6-2.4,7.1-3.8,10.7c-0.2,1.4-1,2.6-1.4,4c-0.2,0.5-0.2,0.7-0.5,1.2c-0.2,0.5-0.2,0.7-0.5,1.2c0,0.2-0.2,0.7-0.2,1
			c-0.5,1.2-1,2.1-1.4,3.3c-0.2,0.2-0.2,0.2-0.2,0.5l-0.2,0.2c0,0.2-0.2,0.2-0.2,0.5c-0.2,0-0.2,0-0.5-0.2l-0.2-0.2
			c-0.2-0.2-0.2-0.2-0.2-0.5s-0.2-0.5-0.2-0.7c-0.2-0.2-0.2-0.5-0.5-0.7c2.9,1.2,2.6,1,2.6,0.7s-0.2-0.5-0.5-1c0-0.2-0.2-0.7-0.5-1
			c-0.2-0.2-0.2-0.7-0.5-1c-0.2-0.5-0.2-0.7-0.5-1.2c-0.5-1.2-1.2-2.6-1.4-3.8c-0.5-1-0.7-1.9-1-2.6c-2.1-4.8-3.6-10-5.5-14.8
			c-0.2-1-0.5-1.9-1-2.6c-0.2-0.5-0.2-0.7-0.5-1.2c-0.2-0.7-0.5-1.7-0.7-2.4c-0.2-0.2-0.2-0.7-0.5-1c0-0.2-0.2-0.7-0.2-1
			c-0.2-0.2-0.2-0.7-0.2-1c0-0.2-0.2-0.5-0.2-0.7s-0.2-0.5-0.2-0.7s0-0.5-0.2-0.7c0,0,0-0.2-0.2-0.5v-0.2c0,0,0,0,0-0.2l0,0l0,0
			c0,0,0,0,0,0.2c0,0.2-0.2,0.5-0.2,1c0,0.2,0,0.5,0,0.7c0,0.2,0,0.5,0,0.7s-0.2,0.5-0.2,1c0,0.7-0.2,1.4-0.2,1.9
			c-0.2,0.7-0.2,1.7-0.2,2.4c0,1.9-0.5,3.8-0.7,5.5c-0.2,1.7-0.5,3.1-0.7,4.8c-0.2,1.2-0.5,2.1-0.5,3.3c-0.2,1.2-0.5,2.1-0.5,3.3
			c-0.2,1.2-0.5,2.1-0.5,3.3c0,0.5,0,1-0.2,1.7c-0.2,1-0.5,2.1-0.5,3.1c0,0.5-0.2,1-0.2,1.4c-0.2,1-0.2,1.9-0.5,2.9
			c-0.2,0.7-0.2,1.7-0.5,2.4c0,0.7-0.2,1.4-0.5,2.1s-0.2,1.7-0.7,2.4c-0.2,0.2-0.2,0.7-0.2,1c0,0,0,0.2-0.2,0.2c0,0,0,0.2-0.2,0.2
			h-0.2c-0.2,0-0.2,0-0.5,0.2c-0.2,0-0.5,0-0.7,0c-0.5,0.2-1.2,0.2-1.7,0.2c-0.2,0-0.7,0-1.2,0c-0.2,0-0.7,0-1.2,0c-0.5,0-1,0-1.4,0
			c-0.5,0-1,0-1.4,0c-1,0-1.9,0.2-2.9,0c-3.3,0.5-7.4,0.5-10.9,0c-1,0-1.9,0-2.9,0c-0.5,0-0.7,0-1.2,0s-0.7,0-1.2,0
			c-0.7,0-1.2,0-1.9-0.2c-0.5,0-1-0.2-1.4-0.2c-0.2,0-0.2,0-0.5,0C28.3,574.8,28.3,574.6,28.1,574.6z"/>
	</g>
</g>
</svg>
