<?xml version="1.0" encoding="utf-8"?>
<!-- Generator: Adobe Illustrator 18.0.0, SVG Export Plug-In . SVG Version: 6.00 Build 0)  -->
<!DOCTYPE svg PUBLIC "-//W3C//DTD SVG 1.1//EN" "http://www.w3.org/Graphics/SVG/1.1/DTD/svg11.dtd">
<svg version="1.1" id="Camada_1" xmlns="http://www.w3.org/2000/svg" xmlns:xlink="http://www.w3.org/1999/xlink" x="0px" y="0px"
	 viewBox="0 416 479 214" enable-background="new 0 416 479 214" xml:space="preserve">
<g>
	<g>
		<path fill="#1B7C09" d="M94.2,588.3c0-0.6-0.1-1.4,0.1-2c0-0.8,0-1.7,0-2.5c0.2-1.1,0-2.2,0.2-3.3c0-1-0.1-2,0.1-3
			c0-0.8,0-1.5,0-2.3c0.1-0.8,0.1-1.6,0.1-2.4c0.1-0.8,0.1-1.6,0.1-2.4c0.1-0.9,0.1-1.8,0.1-2.7c0.1-0.9,0.1-1.8,0.1-2.7
			c0.1-1,0.1-1.9,0.1-2.9c0.1-1,0.1-2,0.2-3c0-0.5,0-1,0-1.5c0.1-1,0.1-2,0.1-3.1c0.1-1,0.1-2.1,0.2-3.1c0-0.5,0-1,0-1.6
			c0.1-0.5,0.1-1.1,0.1-1.7c0.1-1.1,0.1-2.2,0.2-3.2c0-0.5,0-1,0-1.6c0.1-1.1,0.1-2.2,0.2-3.3c0-0.5,0-1,0-1.6
			c0.1-0.6,0.1-1.1,0.1-1.7c0.1-1.1,0.1-2.2,0.2-3.2c0-0.6,0-1.1,0.1-1.7c0-0.5,0-1.1,0-1.7c0.1-0.5,0.1-1,0.1-1.6
			c0.1-1.1,0.1-2.2,0.2-3.2c0-0.5,0-1,0.1-1.6c0-0.5,0-1,0-1.6c0.1-0.5,0.1-1,0.1-1.6c0.1-0.5,0.1-1,0.1-1.6c0.1-1,0.1-2,0.2-3
			c0-0.5,0-1,0.1-1.5c0-0.5,0-1,0.1-1.5c0-0.5,0-1,0-1.5c0.1-0.5,0.1-0.9,0.1-1.4c0.1-0.5,0.1-0.9,0.1-1.4c0.1-0.5,0.1-0.9,0.1-1.3
			c0-0.9,0.1-1.7,0.2-2.6c0-0.5,0-0.9,0.1-1.3c0-0.4,0-0.8,0.1-1.2c0-0.4,0-0.8,0.1-1.2c0-0.4,0-0.7,0.1-1.1c0-0.4,0-0.8,0-1.1
			c0.1-0.3,0.1-0.7,0.1-1c0.1-0.4,0.1-0.7,0.1-1c0.1-0.4,0.1-0.7,0.1-1c0.1-0.3,0.1-0.6,0.1-1c0.1-0.6,0.1-1.2,0.2-1.7
			c0-0.2,0-0.5,0.1-0.8c0-0.2,0-0.5,0.1-0.8c0-0.2,0-0.5,0.1-0.7c0-0.2,0-0.4,0.1-0.6c0-0.2,0-0.4,0.1-0.6c0-0.2,0-0.4,0-0.5
			c0.1-0.2,0.1-0.4,0.1-0.5c0.1-0.1,0.1-0.3,0.1-0.4c0.1-0.1,0.1-0.2,0.1-0.3c0.1-0.1,0.1-0.1,0.1-0.3c0-0.2,0.1-0.3,0.2-0.4
			l0.1-0.1c0.1-0.1,0.2-0.1,0.4-0.2c0.2-0.1,0.3-0.2,0.5-0.3c0.8-0.2,1.6-0.4,2.5-0.4c0.4-0.1,0.7-0.1,1.1-0.2c0.4,0,0.8,0,1.2-0.1
			c0.4,0,0.8,0,1.2,0c1.8-0.2,3.6-0.1,5.4-0.1c0.9,0.1,1.8,0.1,2.7,0.1c0.4,0.1,0.9,0.1,1.3,0.1c0.4,0.1,0.8,0.1,1.2,0.1
			c0.4,0.1,0.8,0.1,1.1,0.1c0.4,0.1,0.7,0.1,1.1,0.2c0.6,0,1.3,0.1,1.9,0.3c0.2,0.1,0.4,0.1,0.7,0.2c0.3,0,0.7,0.1,1,0.3
			c0.1,0.1,0.2,0.3,0.3,0.4c0.1,0.1,0.2,0.2,0.2,0.4c0.2,0.3,0.4,0.7,0.6,1c0.3,0.5,0.6,1,0.7,1.5c0.2,0.2,0.3,0.5,0.4,0.8
			c0.2,0.3,0.3,0.6,0.4,1c0.4,0.6,0.7,1.3,0.9,2c0.2,0.4,0.3,0.8,0.5,1.1c0.6,1.2,1,2.5,1.6,3.8c0.2,0.4,0.4,0.8,0.6,1.3
			c0.2,0.5,0.3,0.9,0.5,1.4c0.2,0.5,0.4,0.9,0.6,1.4c0.2,0.5,0.4,0.9,0.7,1.4c0.2,0.5,0.4,1,0.6,1.5c0.4,1,0.7,1.9,1.1,2.9
			c1.2,2.9,2.2,6,3.5,8.8c0.2,0.5,0.4,0.9,0.6,1.4c0.3,1,0.7,1.9,1.1,2.8c0.5,1.2,1,2.5,1.4,3.8c0.2,0.3,0.3,0.7,0.5,1.1
			c0.1,0.4,0.2,0.7,0.4,1c0.1,0.3,0.2,0.7,0.4,1c0.2,0.6,0.4,1.2,0.7,1.8c0.1,0.2,0.2,0.5,0.3,0.8c0.1,0.2,0.2,0.5,0.2,0.7
			c0.1,0.2,0.2,0.4,0.2,0.6c0.1,0.2,0.1,0.3,0.2,0.5c0.1,0.2,0.2,0.5,0.3,0.7c0,0.1,0,0.1,0.1,0.2V534c0-0.8-0.1-1.6,0.1-2.4
			c0-0.9-0.1-1.8,0.1-2.7c0-0.8,0-1.6,0.1-2.4c0-0.9,0-1.8,0.1-2.6c0-0.9,0-1.9,0.1-2.8c0-0.5,0-1,0-1.5c0.1-1,0.1-2.1,0.2-3.1
			c0-0.5,0-1,0-1.6c0.1-1.1,0.1-2.2,0.2-3.2c0-0.5,0-1,0.1-1.6c0-0.6,0-1.1,0-1.7c0.1-0.5,0.1-1,0.1-1.6c0.1-0.6,0.1-1.1,0.1-1.7
			c0.1-1,0.1-2.1,0.2-3.1c0-0.5,0-1,0.1-1.5c0-0.5,0-1,0.1-1.5c0-0.5,0-0.9,0.1-1.4c0-0.5,0-0.9,0.1-1.4c0-0.4,0-0.8,0.1-1.2
			c0-0.4,0-0.8,0.1-1.3c0-0.3,0-0.7,0.1-1.1c0-0.4,0-0.7,0.1-1c0-0.4,0-0.7,0.1-1c0-0.3,0-0.6,0.1-0.9c0-0.3,0-0.6,0.1-0.8
			c0-0.2,0-0.5,0.1-0.7c0-0.2,0-0.4,0.1-0.5c0-0.1,0-0.3,0.1-0.4c0-0.1,0-0.1,0.1-0.3c0-0.2,0.1-0.3,0.3-0.3
			c0.4-0.2,0.8-0.2,1.2-0.3c0.3-0.1,0.6-0.1,0.9-0.1c0.3-0.1,0.7-0.1,1.1-0.1c0.4-0.1,0.8-0.1,1.1-0.1c1.3-0.2,2.7-0.1,4-0.1
			c0.5-0.1,0.9-0.1,1.4-0.1c1.4,0.2,2.9,0,4.3,0.2c0.4,0,0.9,0,1.4,0c0.4,0.1,0.8,0.1,1.2,0.1c0.4,0.1,0.8,0.1,1.2,0.2
			c1,0,2.2,0.3,3.2,0.6c0.1,0.1,0.2,0.1,0.3,0.2v0.1c0.1,0.1,0.1,0.2,0.2,0.4c0,0.1,0,0.2,0,0.3c0.1,0.2,0.1,0.5,0.1,0.7
			c0.1,0.3,0.1,0.6,0.2,1c0,0.2,0,0.4,0,0.6c0.1,0.4,0.1,0.9,0.2,1.3c0,0.2,0,0.5,0,0.8c0.1,0.5,0.1,1,0.2,1.6c0,0.3,0,0.6,0,0.9
			c0.1,0.6,0.1,1.3,0.2,1.9c0,0.4,0,0.7,0,1c0.1,0.7,0.1,1.4,0.2,2.1c0,0.4,0,0.8,0,1.1c0.1,0.8,0.1,1.6,0.2,2.4c0,0.4,0,0.8,0,1.2
			c0.1,0.9,0.1,1.7,0.2,2.6c0,0.4,0,0.8,0.1,1.3c0,0.5,0,0.9,0,1.3c0.1,1,0.1,1.9,0.2,2.9c0,0.5,0,0.9,0,1.4c0.1,1,0.1,2,0.2,3
			c0,0.5,0,1,0,1.5c0.1,1,0.1,2,0.1,3.1c0.1,1,0.1,2.1,0.2,3.1c0,0.5,0,1,0,1.6c0.1,1,0.1,2.1,0.2,3.1c0,0.6,0,1.1,0,1.7
			c0.1,1.1,0.1,2.2,0.1,3.2c0.1,1.1,0.1,2.2,0.1,3.2c0.1,1.1,0.1,2.2,0.2,3.2c0,1.1,0,2.2,0.1,3.2c0,1.1,0,2.1,0.1,3.1
			c0,1.1,0,2.2,0,3.2c0.1,1,0.1,2,0.1,3.1c0.2,1.5,0,3.1,0.2,4.6c0,1.5,0,2.9,0,4.4c0.2,1.8-0.1,3.7,0.2,5.5c0,2.4,0,4.9,0,7.3
			c0.3,2.1,0.4,4.8,0,6.8c0,1.2,0.3,2.8-0.1,3.9c0,0.4,0,0.8,0,1.2c-0.1,0.2-0.1,0.3-0.1,0.5c-0.1,0-0.1,0-0.1,0.1v0.1
			c-0.2,0.2-0.4,0.3-0.7,0.3c-0.2,0-0.3,0-0.5,0.1c-0.3,0.1-0.5,0.1-0.7,0.1c-0.3,0.1-0.5,0.1-0.8,0.1c-0.3,0.1-0.7,0.1-1,0.1
			c-0.8,0.1-1.5,0.1-2.3,0.2c-0.8,0-1.7,0-2.5,0c-2.4,0.3-4.9,0.1-7.2,0.1c-1.5-0.2-2.9,0-4.4-0.2c-0.9,0-1.8,0-2.8-0.1
			c-0.4,0-0.8,0-1.2,0c-0.4-0.1-0.8-0.1-1.2-0.1c-0.7-0.1-1.4-0.1-2-0.2c-0.3,0-0.5,0-0.8-0.1c-0.3,0-0.5,0-0.7-0.1
			c-0.2,0-0.4,0-0.6-0.1c-0.2,0-0.3,0-0.4-0.1c-0.1,0-0.2,0-0.2-0.1c-0.1,0-0.1,0-0.2-0.1c0-0.2-0.2-0.4-0.3-0.6
			c-0.1-0.2-0.1-0.3-0.2-0.5c-0.1-0.2-0.2-0.3-0.2-0.5c-0.1-0.2-0.2-0.5-0.2-0.7c-0.1-0.3-0.2-0.6-0.3-0.8c-0.4-1-0.7-1.9-1-2.9
			c-0.3-0.8-0.6-1.6-0.8-2.4c-0.1-0.4-0.2-0.8-0.4-1.2c-0.3-0.9-0.5-1.7-0.8-2.6c-0.3-1-0.7-1.9-1-2.9c-1-4.1-2.9-8.1-3.7-12.2
			c-0.5-1.5-1-3-1.5-4.5c-0.3-1-0.6-1.9-0.8-2.9c-0.2-0.5-0.3-0.9-0.5-1.4c-0.1-0.4-0.2-0.8-0.3-1.3c-0.2-0.4-0.3-0.8-0.4-1.2
			c-0.7-1.7-1.3-3.7-1.6-5.4c-0.1-0.3-0.2-0.6-0.2-0.9c-0.1-0.2-0.2-0.5-0.2-0.8c-0.1-0.2-0.1-0.4-0.2-0.6c-0.1-0.4-0.4-0.9-0.4-1.3
			c-0.1-0.1-0.1-0.1-0.1-0.2v-0.1v0.1c0,0.5-0.1,1.1,0.1,1.7c0,0.5,0,1,0,1.6c0.2,1,0,2,0.2,3.1c0,0.8,0,1.6,0.1,2.4
			c0,0.5,0,0.9,0,1.4c0.1,0.9,0.1,1.9,0.1,2.8c0.1,1,0.1,2,0.1,3.1c0.1,1.1,0.1,2.2,0.2,3.2c0,1.1,0,2.2,0.1,3.2
			c0,1.1,0,2.2,0.1,3.2c0,1.1,0,2.2,0,3.2c0.5,4.6,0.7,10.3,0,14.9c0,0.6,0,1.1-0.1,1.7c0,0.2,0,0.5,0,0.7c-0.1,0.2-0.1,0.3-0.1,0.5
			c0,0.2-0.1,0.5-0.2,0.7c0,0.1,0,0.2-0.1,0.2c-0.1,0.1-0.2,0.1-0.2,0.2c-0.2,0.1-0.3,0.1-0.5,0.1c-0.2,0.1-0.4,0.1-0.6,0.1
			c-0.3,0.1-0.5,0.1-0.8,0.1c-0.3,0.1-0.6,0.1-0.9,0.1c-0.7,0.1-1.5,0.1-2.2,0.1c-1.8,0.2-3.6,0-5.5,0.2c-1,0-2,0-3,0
			c-2.5-0.3-5-0.1-7.5-0.1c-1.2-0.2-2.5-0.1-3.7-0.1c-1.2-0.2-2.8,0.3-4-0.2C94.5,588.4,94.4,588.4,94.2,588.3L94.2,588.3
			L94.2,588.3z"/>
		<path fill="#020202" d="M170.2,587.8L170.2,587.8c0-0.3-0.1-0.9,0.1-1c0-0.2,0-0.3,0.1-0.4c0-0.1,0-0.3,0-0.4
			c0.1-0.2,0.1-0.3,0.2-0.5c0.1-0.4,0.1-0.8,0.2-1.1c0.4-1.2,0.6-2.4,0.8-3.7c0.2-0.6,0.3-1.2,0.5-1.7c0.1-0.3,0.1-0.6,0.2-1
			c0.1-0.3,0.2-0.6,0.2-1c0.1-0.4,0.2-0.7,0.2-1c0.1-0.4,0.2-0.7,0.3-1c0.2-0.7,0.3-1.5,0.5-2.2c0.2-0.8,0.4-1.6,0.7-2.4
			c0.3-2.1,1.1-4.3,1.5-6.4c0.5-1.3,0.7-2.7,1.1-4.1c0.3-0.9,0.5-1.9,0.8-2.8c0.1-0.5,0.2-1,0.3-1.5c0.3-1,0.5-1.9,0.8-2.9
			c0.1-0.5,0.2-1,0.3-1.5c0.2-0.5,0.3-1,0.4-1.6c0.2-0.5,0.3-1,0.4-1.5c0.2-0.5,0.3-1,0.4-1.5c0.2-0.5,0.3-1,0.4-1.6
			c0.2-0.5,0.3-1,0.4-1.5c0.2-0.5,0.3-1,0.4-1.6c0.2-0.5,0.3-1,0.4-1.5c0.2-0.5,0.3-1,0.4-1.6c0.2-0.5,0.3-1,0.4-1.5
			c0.2-0.5,0.3-1,0.4-1.6c0.2-0.5,0.3-1,0.4-1.6c0.2-0.5,0.3-1,0.5-1.5c0.1-0.5,0.2-1,0.4-1.6c0.1-0.5,0.2-1,0.4-1.5
			c0.1-0.5,0.2-1,0.4-1.6c0.1-0.5,0.2-1,0.4-1.5c0.1-0.5,0.2-1,0.4-1.5c0.1-0.5,0.2-1,0.4-1.5c0.1-0.5,0.2-1,0.4-1.5
			c0.1-0.5,0.2-1,0.4-1.5c0.1-0.5,0.2-1,0.4-1.5c0.1-0.5,0.2-0.9,0.3-1.4c0.2-0.5,0.3-0.9,0.4-1.4c0.3-0.9,0.5-1.9,0.8-2.8
			c0.1-0.5,0.2-0.9,0.3-1.4c0.3-0.9,0.5-1.7,0.7-2.6c0.6-1.6,0.8-3.4,1.5-5c0.3-1.2,0.7-2.3,1-3.5c0.2-1.1,0.6-2.1,0.8-3.1
			c0.2-0.6,0.4-1.2,0.6-1.8c0.1-0.4,0.2-0.7,0.2-1c0.1-0.3,0.2-0.6,0.2-0.8c0.1-0.3,0.2-0.6,0.2-0.9c0.2-0.5,0.3-1,0.5-1.5
			c0.1-0.4,0.2-0.8,0.4-1.2c0.1-0.5,0.3-1.1,0.5-1.6c0-0.3,0.1-0.5,0.2-0.8c0-0.1,0-0.2,0.1-0.4c0.1-0.1,0.1-0.1,0.1-0.3
			c0.1-0.1,0.1-0.2,0.2-0.4v-0.1c0.1-0.1,0.2-0.1,0.3-0.2c0.2-0.1,0.3-0.1,0.5-0.2c0.2-0.1,0.5-0.1,0.7-0.1c0.3-0.1,0.5-0.1,0.8-0.2
			c0.4,0,0.7,0,1.1-0.1c0.4,0,0.8,0,1.1-0.1c0.4,0,0.9,0,1.3-0.1c0.9,0,1.8,0,2.8-0.1c1.4,0,2.9,0,4.3,0c1.4,0.2,2.7,0,4.1,0.2
			c0.4,0,0.8,0,1.1,0.1c0.4,0,0.7,0,1.1,0c0.3,0.1,0.6,0.1,0.9,0.1c0.3,0.1,0.5,0.1,0.7,0.1c0.2,0.1,0.4,0.1,0.6,0.2
			c0.1,0,0.2,0,0.3,0.1v0.1c0.1,0,0.1,0,0.1,0.1c0.1,0.1,0.1,0.1,0.1,0.2c0.1,0.1,0.1,0.1,0.1,0.3c0.1,0.1,0.1,0.2,0.2,0.3
			c0,0.1,0,0.2,0.1,0.4c0.1,0.2,0.1,0.3,0.2,0.4c0.2,0.5,0.3,1.1,0.5,1.6c0.1,0.2,0.1,0.4,0.2,0.6c0.2,0.5,0.3,0.9,0.5,1.4
			c0.1,0.3,0.1,0.6,0.2,0.8c0.1,0.3,0.2,0.6,0.2,0.9c0.1,0.3,0.2,0.6,0.2,0.9c0.1,0.3,0.2,0.6,0.3,0.9c0.2,0.6,0.3,1.3,0.5,1.9
			c0.3,1.1,0.7,2.1,0.9,3.2c0.5,1.6,0.9,3.1,1.3,4.7c0.5,1.2,0.7,2.6,1.1,3.8c0.3,0.9,0.5,1.8,0.7,2.7c0.3,0.9,0.5,1.9,0.8,2.8
			c0.1,0.5,0.2,1,0.3,1.5c0.2,0.5,0.3,0.9,0.4,1.4c0.3,1,0.5,2,0.8,3c0.1,0.5,0.2,1,0.4,1.5c0.1,0.5,0.2,1,0.4,1.5
			c0.1,0.5,0.2,1,0.4,1.6c0.1,0.5,0.2,1,0.4,1.5c0.1,0.5,0.2,1,0.3,1.6c0.2,0.5,0.3,1,0.4,1.5c0.2,0.5,0.3,1,0.5,1.6
			c0.1,0.5,0.2,1,0.4,1.6c0.1,0.5,0.2,1,0.4,1.6c0.1,0.5,0.2,1,0.4,1.6c0.1,0.5,0.2,1,0.4,1.6c0.1,0.5,0.2,1,0.4,1.6
			c0.1,0.5,0.2,1,0.4,1.6c0.1,0.5,0.2,1,0.4,1.5c0.1,0.5,0.2,1,0.3,1.6c0.2,0.5,0.3,1,0.4,1.6c0.2,0.5,0.3,1,0.4,1.6
			c0.2,0.5,0.3,1,0.4,1.5c0.3,1,0.5,2,0.8,3.1c0.1,0.5,0.2,1,0.3,1.5c0.3,1,0.5,2,0.8,3c0.2,1,0.4,1.9,0.7,2.9
			c0.2,0.9,0.4,1.9,0.7,2.8c0.9,2.4,1.6,5.3,2,7.9c0.2,0.8,0.4,1.6,0.7,2.4c0.1,0.8,0.3,1.5,0.6,2.3c0.1,0.3,0.1,0.7,0.2,1
			c0.1,0.4,0.1,0.7,0.2,1c0.1,0.4,0.1,0.7,0.2,1c0.1,0.3,0.1,0.7,0.2,1c0.1,0.6,0.2,1.2,0.4,1.8c0.2,1.3,0.5,2.5,0.8,3.8
			c0.1,0.2,0.1,0.3,0.2,0.5c0,0.4,0.1,0.7,0.2,1c0.1,0.2,0.1,0.3,0.1,0.4c0,0.2,0.1,0.5,0.2,0.7c0,0.2-0.1,0.5,0.1,0.7h-0.1
			c-0.1,0.1-0.1,0.2-0.2,0.3c-0.1,0.1-0.2,0.1-0.4,0.2c-0.2,0.1-0.4,0.1-0.6,0.1c-0.3,0.1-0.5,0.1-0.8,0.2c-0.3,0-0.6,0-0.9,0.1
			c-0.4,0.1-0.7,0.1-1.1,0.1c-0.8,0.1-1.6,0.1-2.4,0.2c-2.8,0-5.7,0-8.5,0c-0.9-0.1-1.8-0.1-2.8-0.2c-0.4,0-0.9,0-1.3,0
			c-0.4-0.1-0.8-0.1-1.2-0.1c-0.3-0.1-0.7-0.1-1.1-0.1c-0.3-0.1-0.6-0.1-0.9-0.2c-0.5,0-1-0.1-1.5-0.3c-0.4,0-0.6-0.2-0.8-0.4
			c-0.1-0.2-0.1-0.3-0.2-0.4c-0.1-0.2-0.1-0.4-0.2-0.6c-0.2-0.5-0.3-1.1-0.5-1.7c-0.2-0.8-0.4-1.5-0.6-2.3
			c-0.7-5.4-2.9-10.7-3.4-16.2c-0.2-0.9-0.4-1.7-0.6-2.6c-0.1-0.4-0.2-0.8-0.2-1.2c-0.3-1-0.3-2-0.7-3c0-0.2,0-0.5-0.1-0.7
			c-0.1-0.2-0.1-0.3-0.2-0.4c0-0.2,0-0.4-0.1-0.5c-0.1,0-0.2,0-0.4-0.1c-0.2,0-0.4,0-0.7-0.1c-0.7-0.1-1.5-0.1-2.2-0.2
			c-0.4,0-0.9,0-1.3,0c-1.8-0.2-3.8-0.2-5.6,0c-0.7,0-1.5,0.1-2.2,0.3c-0.2,0.1-0.5,0.1-0.7,0.3c-0.2,0.1-0.3,0.1-0.4,0.3v0.1
			c-0.1,0.1-0.1,0.2-0.1,0.3c-0.1,0.2-0.1,0.3-0.1,0.5c-0.2,0.9-0.3,1.8-0.6,2.6c-0.1,0.3-0.1,0.7-0.2,1.1c-0.1,0.4-0.2,0.8-0.2,1.2
			c-0.1,0.5-0.2,0.9-0.3,1.4c-0.5,4.1-1.7,8.3-2.5,12.3c-0.2,1.8-0.9,3.6-1.1,5.4c-0.1,0.4-0.2,0.8-0.3,1.1c-0.1,0.3-0.1,0.7-0.2,1
			c-0.1,0.3-0.1,0.6-0.2,0.8c-0.1,0.2-0.2,0.5-0.2,0.7c-0.1,0.2-0.1,0.3-0.2,0.4c0,0.1,0,0.2-0.1,0.3c-0.1,0.1-0.2,0.2-0.2,0.2
			c-0.2,0.1-0.3,0.1-0.5,0.2c-1.2,0.3-2.4,0.6-3.6,0.6c-0.4,0.1-0.8,0.1-1.2,0.2c-0.9,0.1-1.8,0.1-2.7,0.2c-0.4,0.1-0.9,0.1-1.4,0.1
			c-1.5,0.2-2.9,0-4.4,0.2c-0.9,0-1.8,0-2.8-0.1c-0.4,0-0.9,0-1.3,0c-0.4-0.1-0.8-0.1-1.2-0.1c-0.4-0.1-0.8-0.1-1.1-0.1
			c-0.3-0.1-0.6-0.1-0.9-0.2c-0.5,0-1-0.1-1.5-0.4c-0.2-0.1-0.3-0.1-0.5-0.2C170.4,588,170.3,588,170.2,587.8z M212.1,547.7
			c0.1-0.1,0-0.3-0.1-0.5c-0.1-0.2-0.1-0.3-0.1-0.5c-0.1-0.5-0.2-0.9-0.3-1.4c0-1.1-0.4-2.4-0.6-3.5c-0.3-1-0.4-2.1-0.6-3.1
			c-0.2-0.8-0.3-1.5-0.5-2.3c-0.1-0.8-0.2-1.6-0.4-2.4c-0.1-0.4-0.1-0.8-0.2-1.2c-0.2-0.8-0.3-1.7-0.5-2.5c-0.1-0.5-0.1-0.9-0.2-1.3
			c-0.2-0.9-0.3-1.7-0.4-2.6c-0.3-1.3-0.3-2.6-0.7-3.8c-0.1-0.5-0.1-0.9-0.2-1.3c-0.2-0.4-0.2-0.8-0.2-1.3c-0.1-1.6-0.2-1.6-0.3,0
			c0,0.4-0.1,0.8-0.2,1.3c-0.1,0.4-0.2,0.8-0.2,1.3c0,1.3-0.4,2.8-0.7,4c-0.1,0.5-0.1,0.9-0.2,1.4c-0.1,0.4-0.1,0.8-0.2,1.3
			c-0.1,0.5-0.1,0.9-0.2,1.4c-0.1,0.4-0.1,0.8-0.2,1.3c-0.1,0.5-0.1,0.9-0.2,1.3c-0.1,0.5-0.1,0.9-0.2,1.3c-0.1,0.4-0.1,0.8-0.2,1.3
			c-0.1,0.4-0.1,0.8-0.2,1.2c-0.2,0.8-0.3,1.6-0.5,2.4c-0.1,0.4-0.1,0.8-0.2,1.1c-0.3,1-0.3,2.1-0.7,3.1c-0.1,0.6-0.2,1.2-0.3,1.7
			c0,0.7-0.2,1.8-0.4,2.5c-0.4,0.8,0.8,0.5,1.2,0.6c0.4,0,0.8,0,1.1,0c0.9-0.1,1.7-0.1,2.6-0.1c0.5-0.1,0.9-0.1,1.4-0.1
			c0.4-0.1,0.9-0.1,1.3-0.2c0.3,0,0.7,0,1.1-0.1C211.2,548,211.7,547.9,212.1,547.7C212.2,547.6,212,547.8,212.1,547.7z"/>
		<path fill="#020202" d="M247.6,588.3c0-0.6-0.1-1.4,0.1-2c0-0.8,0-1.7,0-2.5c0.2-1.1,0-2.2,0.2-3.3c0-1-0.1-2,0.1-3
			c0-0.8,0-1.5,0-2.3c0.1-0.8,0.1-1.6,0.1-2.4c0.1-0.8,0.1-1.6,0.1-2.4c0.1-0.9,0.1-1.8,0.1-2.7c0.1-0.9,0.1-1.8,0.1-2.7
			c0.1-1,0.1-1.9,0.1-2.9c0.1-1,0.1-2,0.2-3c0-0.5,0-1,0-1.5c0.1-1,0.1-2,0.1-3.1c0.1-1,0.1-2.1,0.2-3.1c0-0.5,0-1,0-1.6
			c0.1-0.5,0.1-1.1,0.1-1.7c0.1-1.1,0.1-2.2,0.2-3.2c0-0.5,0-1,0-1.6c0.1-1.1,0.1-2.2,0.2-3.3c0-0.5,0-1,0-1.6
			c0.1-0.6,0.1-1.1,0.1-1.7c0.1-1.1,0.1-2.2,0.2-3.2c0-0.6,0-1.1,0.1-1.7c0-0.5,0-1.1,0-1.7c0.1-0.5,0.1-1,0.1-1.6
			c0.1-1.1,0.1-2.2,0.2-3.2c0-0.5,0-1,0.1-1.6c0-0.5,0-1,0-1.6c0.1-0.5,0.1-1,0.1-1.6c0.1-0.5,0.1-1,0.1-1.6c0.1-1,0.1-2,0.2-3
			c0-0.5,0-1,0.1-1.5c0-0.5,0-1,0.1-1.5c0-0.5,0-1,0-1.5c0.1-0.5,0.1-0.9,0.1-1.4c0.1-0.5,0.1-0.9,0.1-1.4c0.1-0.5,0.1-0.9,0.1-1.3
			c0-0.9,0.1-1.7,0.2-2.6c0-0.5,0-0.9,0.1-1.3c0-0.4,0-0.8,0.1-1.2c0-0.4,0-0.8,0.1-1.2c0-0.4,0-0.7,0.1-1.1c0-0.4,0-0.8,0-1.1
			c0.1-0.3,0.1-0.7,0.1-1c0.1-0.4,0.1-0.7,0.1-1c0.1-0.4,0.1-0.7,0.1-1c0.1-0.3,0.1-0.6,0.1-1c0.1-0.6,0.1-1.2,0.2-1.7
			c0-0.2,0-0.5,0.1-0.8c0-0.2,0-0.5,0.1-0.8c0-0.2,0-0.5,0.1-0.7c0-0.2,0-0.4,0.1-0.6c0-0.2,0-0.4,0.1-0.6c0-0.2,0-0.4,0-0.5
			c0.1-0.2,0.1-0.4,0.1-0.5c0.1-0.1,0.1-0.3,0.1-0.4c0.1-0.1,0.1-0.2,0.1-0.3c0.1-0.1,0.1-0.1,0.1-0.3c0-0.2,0.1-0.3,0.2-0.4
			l0.1-0.1c0.1-0.1,0.2-0.1,0.4-0.2c0.2-0.1,0.3-0.2,0.5-0.3c0.8-0.2,1.6-0.4,2.5-0.4c0.4-0.1,0.7-0.1,1.1-0.2c0.4,0,0.8,0,1.2-0.1
			c0.4,0,0.8,0,1.2,0c1.8-0.2,3.6-0.1,5.4-0.1c0.9,0.1,1.8,0.1,2.7,0.1c0.4,0.1,0.9,0.1,1.3,0.1c0.4,0.1,0.8,0.1,1.2,0.1
			c0.4,0.1,0.8,0.1,1.1,0.1c0.4,0.1,0.7,0.1,1.1,0.2c0.6,0,1.3,0.1,1.9,0.3c0.2,0.1,0.4,0.1,0.7,0.2c0.3,0,0.7,0.1,1,0.3
			c0.1,0.1,0.2,0.3,0.3,0.4c0.1,0.1,0.2,0.2,0.2,0.4c0.2,0.3,0.4,0.7,0.6,1c0.3,0.5,0.6,1,0.7,1.5c0.2,0.2,0.3,0.5,0.4,0.8
			c0.2,0.3,0.3,0.6,0.4,1c0.4,0.6,0.7,1.3,0.9,2c0.2,0.4,0.3,0.8,0.5,1.1c0.6,1.2,1,2.5,1.6,3.8c0.2,0.4,0.4,0.8,0.6,1.3
			c0.2,0.5,0.3,0.9,0.5,1.4c0.2,0.5,0.4,0.9,0.6,1.4c0.2,0.5,0.4,0.9,0.7,1.4c0.2,0.5,0.4,1,0.6,1.5c0.4,1,0.7,1.9,1.1,2.9
			c1.2,2.9,2.2,6,3.5,8.8c0.2,0.5,0.4,0.9,0.6,1.4c0.3,1,0.7,1.9,1.1,2.8c0.5,1.2,1,2.5,1.4,3.8c0.2,0.3,0.3,0.7,0.5,1.1
			c0.1,0.4,0.2,0.7,0.4,1c0.1,0.3,0.2,0.7,0.4,1c0.2,0.6,0.4,1.2,0.7,1.8c0.1,0.2,0.2,0.5,0.3,0.8c0.1,0.2,0.2,0.5,0.2,0.7
			c0.1,0.2,0.2,0.4,0.2,0.6c0.1,0.2,0.1,0.3,0.2,0.5c0.1,0.2,0.2,0.5,0.3,0.7c0,0.1,0,0.1,0.1,0.2V534c0-0.8-0.1-1.6,0.1-2.4
			c0-0.9-0.1-1.8,0.1-2.7c0-0.8,0-1.6,0.1-2.4c0-0.9,0-1.8,0.1-2.6c0-0.9,0-1.9,0.1-2.8c0-0.5,0-1,0-1.5c0.1-1,0.1-2.1,0.2-3.1
			c0-0.5,0-1,0-1.6c0.1-1.1,0.1-2.2,0.2-3.2c0-0.5,0-1,0.1-1.6c0-0.6,0-1.1,0-1.7c0.1-0.5,0.1-1,0.1-1.6c0.1-0.6,0.1-1.1,0.1-1.7
			c0.1-1,0.1-2.1,0.2-3.1c0-0.5,0-1,0.1-1.5c0-0.5,0-1,0.1-1.5c0-0.5,0-0.9,0.1-1.4c0-0.5,0-0.9,0.1-1.4c0-0.4,0-0.8,0.1-1.2
			c0-0.4,0-0.8,0.1-1.3c0-0.3,0-0.7,0.1-1.1c0-0.4,0-0.7,0.1-1c0-0.4,0-0.7,0.1-1c0-0.3,0-0.6,0.1-0.9c0-0.3,0-0.6,0.1-0.8
			c0-0.2,0-0.5,0.1-0.7c0-0.2,0-0.4,0.1-0.5c0-0.1,0-0.3,0.1-0.4c0-0.1,0-0.1,0.1-0.3c0-0.2,0.1-0.3,0.3-0.3
			c0.4-0.2,0.8-0.2,1.2-0.3c0.3-0.1,0.6-0.1,0.9-0.1c0.3-0.1,0.7-0.1,1.1-0.1c0.4-0.1,0.8-0.1,1.1-0.1c1.3-0.2,2.7-0.1,4-0.1
			c0.5-0.1,0.9-0.1,1.4-0.1c1.4,0.2,2.9,0,4.3,0.2c0.4,0,0.9,0,1.4,0c0.4,0.1,0.8,0.1,1.2,0.1c0.4,0.1,0.8,0.1,1.2,0.2
			c1,0,2.2,0.3,3.2,0.6c0.1,0.1,0.2,0.1,0.3,0.2v0.1c0.1,0.1,0.1,0.2,0.2,0.4c0,0.1,0,0.2,0,0.3c0.1,0.2,0.1,0.5,0.1,0.7
			c0.1,0.3,0.1,0.6,0.2,1c0,0.2,0,0.4,0,0.6c0.1,0.4,0.1,0.9,0.2,1.3c0,0.2,0,0.5,0,0.8c0.1,0.5,0.1,1,0.2,1.6c0,0.3,0,0.6,0,0.9
			c0.1,0.6,0.1,1.3,0.2,1.9c0,0.4,0,0.7,0,1c0.1,0.7,0.1,1.4,0.2,2.1c0,0.4,0,0.8,0,1.1c0.1,0.8,0.1,1.6,0.2,2.4c0,0.4,0,0.8,0,1.2
			c0.1,0.9,0.1,1.7,0.2,2.6c0,0.4,0,0.8,0.1,1.3c0,0.5,0,0.9,0,1.3c0.1,1,0.1,1.9,0.2,2.9c0,0.5,0,0.9,0,1.4c0.1,1,0.1,2,0.2,3
			c0,0.5,0,1,0,1.5c0.1,1,0.1,2,0.1,3.1c0.1,1,0.1,2.1,0.2,3.1c0,0.5,0,1,0,1.6c0.1,1,0.1,2.1,0.2,3.1c0,0.6,0,1.1,0,1.7
			c0.1,1.1,0.1,2.2,0.1,3.2c0.1,1.1,0.1,2.2,0.1,3.2c0.1,1.1,0.1,2.2,0.2,3.2c0,1.1,0,2.2,0.1,3.2c0,1.1,0,2.1,0.1,3.1
			c0,1.1,0,2.2,0,3.2c0.1,1,0.1,2,0.1,3.1c0.2,1.5,0,3.1,0.2,4.6c0,1.5,0,2.9,0,4.4c0.2,1.8-0.1,3.7,0.2,5.5c0,2.4,0,4.9,0,7.3
			c0.3,2.1,0.4,4.8,0,6.8c0,1.2,0.3,2.8-0.1,3.9c0,0.4,0,0.8,0,1.2c-0.1,0.2-0.1,0.3-0.1,0.5c-0.1,0-0.1,0-0.1,0.1v0.1
			c-0.2,0.2-0.4,0.3-0.7,0.3c-0.2,0-0.3,0-0.5,0.1c-0.3,0.1-0.5,0.1-0.7,0.1c-0.3,0.1-0.5,0.1-0.8,0.1c-0.3,0.1-0.7,0.1-1,0.1
			c-0.8,0.1-1.5,0.1-2.3,0.2c-0.8,0-1.7,0-2.5,0c-2.4,0.3-4.9,0.1-7.2,0.1c-1.5-0.2-2.9,0-4.4-0.2c-0.9,0-1.8,0-2.8-0.1
			c-0.4,0-0.8,0-1.2,0c-0.4-0.1-0.8-0.1-1.2-0.1c-0.7-0.1-1.4-0.1-2-0.2c-0.3,0-0.5,0-0.8-0.1c-0.3,0-0.5,0-0.7-0.1
			c-0.2,0-0.4,0-0.6-0.1c-0.2,0-0.3,0-0.4-0.1c-0.1,0-0.2,0-0.2-0.1c-0.1,0-0.1,0-0.2-0.1c0-0.2-0.2-0.4-0.3-0.6
			c-0.1-0.2-0.1-0.3-0.2-0.5c-0.1-0.2-0.2-0.3-0.2-0.5c-0.1-0.2-0.2-0.5-0.2-0.7c-0.1-0.3-0.2-0.6-0.3-0.8c-0.4-1-0.7-1.9-1-2.9
			c-0.3-0.8-0.6-1.6-0.8-2.4c-0.1-0.4-0.2-0.8-0.4-1.2c-0.3-0.9-0.5-1.7-0.8-2.6c-0.3-1-0.7-1.9-1-2.9c-1-4.1-2.9-8.1-3.7-12.2
			c-0.5-1.5-1-3-1.5-4.5c-0.3-1-0.6-1.9-0.8-2.9c-0.2-0.5-0.3-0.9-0.5-1.4c-0.1-0.4-0.2-0.8-0.3-1.3c-0.2-0.4-0.3-0.8-0.4-1.2
			c-0.7-1.7-1.3-3.7-1.6-5.4c-0.1-0.3-0.2-0.6-0.2-0.9c-0.1-0.2-0.2-0.5-0.2-0.8c-0.1-0.2-0.1-0.4-0.2-0.6c-0.1-0.4-0.4-0.9-0.4-1.3
			c-0.1-0.1-0.1-0.1-0.1-0.2v-0.1v0.1c0,0.5-0.1,1.1,0.1,1.7c0,0.5,0,1,0,1.6c0.2,1,0,2,0.2,3.1c0,0.8,0,1.6,0.1,2.4
			c0,0.5,0,0.9,0,1.4c0.1,0.9,0.1,1.9,0.1,2.8c0.1,1,0.1,2,0.1,3.1c0.1,1.1,0.1,2.2,0.2,3.2c0,1.1,0,2.2,0.1,3.2
			c0,1.1,0,2.2,0.1,3.2c0,1.1,0,2.2,0,3.2c0.5,4.6,0.7,10.3,0,14.9c0,0.6,0,1.1-0.1,1.7c0,0.2,0,0.5,0,0.7c-0.1,0.2-0.1,0.3-0.1,0.5
			c0,0.2-0.1,0.5-0.2,0.7c0,0.1,0,0.2-0.1,0.2c-0.1,0.1-0.2,0.1-0.2,0.2c-0.2,0.1-0.3,0.1-0.5,0.1c-0.2,0.1-0.4,0.1-0.6,0.1
			c-0.3,0.1-0.5,0.1-0.8,0.1c-0.3,0.1-0.6,0.1-0.9,0.1c-0.7,0.1-1.5,0.1-2.2,0.1c-1.8,0.2-3.6,0-5.5,0.2c-1,0-2,0-3,0
			c-2.5-0.3-5-0.1-7.5-0.1c-1.2-0.2-2.5-0.1-3.7-0.1c-1.2-0.2-2.8,0.3-4-0.2C247.9,588.4,247.8,588.4,247.6,588.3L247.6,588.3
			L247.6,588.3z"/>
		<path fill="#020202" d="M323.7,587.8L323.7,587.8c0-0.3-0.1-0.9,0.1-1c0-0.2,0-0.3,0.1-0.4c0-0.1,0-0.3,0-0.4
			c0.1-0.2,0.1-0.3,0.2-0.5c0.1-0.4,0.1-0.8,0.2-1.1c0.4-1.2,0.6-2.4,0.8-3.7c0.2-0.6,0.3-1.2,0.5-1.7c0.1-0.3,0.1-0.6,0.2-1
			c0.1-0.3,0.2-0.6,0.2-1c0.1-0.4,0.2-0.7,0.2-1c0.1-0.4,0.2-0.7,0.3-1c0.2-0.7,0.3-1.5,0.5-2.2c0.2-0.8,0.4-1.6,0.7-2.4
			c0.3-2.1,1.1-4.3,1.5-6.4c0.5-1.3,0.7-2.7,1.1-4.1c0.3-0.9,0.5-1.9,0.8-2.8c0.1-0.5,0.2-1,0.3-1.5c0.3-1,0.5-1.9,0.8-2.9
			c0.1-0.5,0.2-1,0.3-1.5c0.2-0.5,0.3-1,0.4-1.6c0.2-0.5,0.3-1,0.4-1.5c0.2-0.5,0.3-1,0.4-1.5c0.2-0.5,0.3-1,0.4-1.6
			c0.2-0.5,0.3-1,0.4-1.5c0.2-0.5,0.3-1,0.4-1.6c0.2-0.5,0.3-1,0.4-1.5c0.2-0.5,0.3-1,0.4-1.6c0.2-0.5,0.3-1,0.4-1.5
			c0.2-0.5,0.3-1,0.4-1.6c0.2-0.5,0.3-1,0.4-1.6c0.2-0.5,0.3-1,0.5-1.5c0.1-0.5,0.2-1,0.4-1.6c0.1-0.5,0.2-1,0.4-1.5
			c0.1-0.5,0.2-1,0.4-1.6c0.1-0.5,0.2-1,0.4-1.5c0.1-0.5,0.2-1,0.4-1.5c0.1-0.5,0.2-1,0.4-1.5c0.1-0.5,0.2-1,0.4-1.5
			c0.1-0.5,0.2-1,0.4-1.5c0.1-0.5,0.2-1,0.4-1.5c0.1-0.5,0.2-0.9,0.3-1.4c0.2-0.5,0.3-0.9,0.4-1.4c0.3-0.9,0.5-1.9,0.8-2.8
			c0.1-0.5,0.2-0.9,0.3-1.4c0.3-0.9,0.5-1.7,0.7-2.6c0.6-1.6,0.8-3.4,1.5-5c0.3-1.2,0.7-2.3,1-3.5c0.2-1.1,0.6-2.1,0.8-3.1
			c0.2-0.6,0.4-1.2,0.6-1.8c0.1-0.4,0.2-0.7,0.2-1c0.1-0.3,0.2-0.6,0.2-0.8c0.1-0.3,0.2-0.6,0.2-0.9c0.2-0.5,0.3-1,0.5-1.5
			c0.1-0.4,0.2-0.8,0.4-1.2c0.1-0.5,0.3-1.1,0.5-1.6c0-0.3,0.1-0.5,0.2-0.8c0-0.1,0-0.2,0.1-0.4c0.1-0.1,0.1-0.1,0.1-0.3
			c0.1-0.1,0.1-0.2,0.2-0.4v-0.1c0.1-0.1,0.2-0.1,0.3-0.2c0.2-0.1,0.3-0.1,0.5-0.2c0.2-0.1,0.5-0.1,0.7-0.1c0.3-0.1,0.5-0.1,0.8-0.2
			c0.4,0,0.7,0,1.1-0.1c0.4,0,0.8,0,1.1-0.1c0.4,0,0.9,0,1.3-0.1c0.9,0,1.8,0,2.8-0.1c1.4,0,2.9,0,4.3,0c1.4,0.2,2.7,0,4.1,0.2
			c0.4,0,0.8,0,1.1,0.1c0.4,0,0.7,0,1.1,0c0.3,0.1,0.6,0.1,0.9,0.1c0.3,0.1,0.5,0.1,0.7,0.1c0.2,0.1,0.4,0.1,0.6,0.2
			c0.1,0,0.2,0,0.3,0.1v0.1c0.1,0,0.1,0,0.1,0.1c0.1,0.1,0.1,0.1,0.1,0.2c0.1,0.1,0.1,0.1,0.1,0.3c0.1,0.1,0.1,0.2,0.2,0.3
			c0,0.1,0,0.2,0.1,0.4c0.1,0.2,0.1,0.3,0.2,0.4c0.2,0.5,0.3,1.1,0.5,1.6c0.1,0.2,0.1,0.4,0.2,0.6c0.2,0.5,0.3,0.9,0.5,1.4
			c0.1,0.3,0.1,0.6,0.2,0.8c0.1,0.3,0.2,0.6,0.2,0.9c0.1,0.3,0.2,0.6,0.2,0.9c0.1,0.3,0.2,0.6,0.3,0.9c0.2,0.6,0.3,1.3,0.5,1.9
			c0.3,1.1,0.7,2.1,0.9,3.2c0.5,1.6,0.9,3.1,1.3,4.7c0.5,1.2,0.7,2.6,1.1,3.8c0.3,0.9,0.5,1.8,0.7,2.7c0.3,0.9,0.5,1.9,0.8,2.8
			c0.1,0.5,0.2,1,0.3,1.5c0.2,0.5,0.3,0.9,0.4,1.4c0.3,1,0.5,2,0.8,3c0.1,0.5,0.2,1,0.4,1.5c0.1,0.5,0.2,1,0.4,1.5
			c0.1,0.5,0.2,1,0.4,1.6c0.1,0.5,0.2,1,0.4,1.5c0.1,0.5,0.2,1,0.3,1.6c0.2,0.5,0.3,1,0.4,1.5c0.2,0.5,0.3,1,0.5,1.6
			c0.1,0.5,0.2,1,0.4,1.6c0.1,0.5,0.2,1,0.4,1.6c0.1,0.5,0.2,1,0.4,1.6c0.1,0.5,0.2,1,0.4,1.6c0.1,0.5,0.2,1,0.4,1.6
			c0.1,0.5,0.2,1,0.4,1.6c0.1,0.5,0.2,1,0.4,1.5c0.1,0.5,0.2,1,0.3,1.6c0.2,0.5,0.3,1,0.4,1.6c0.2,0.5,0.3,1,0.4,1.6
			c0.2,0.5,0.3,1,0.4,1.5c0.3,1,0.5,2,0.8,3.1c0.1,0.5,0.2,1,0.3,1.5c0.3,1,0.5,2,0.8,3c0.2,1,0.4,1.9,0.7,2.9
			c0.2,0.9,0.4,1.9,0.7,2.8c0.9,2.4,1.6,5.3,2,7.9c0.2,0.8,0.4,1.6,0.7,2.4c0.1,0.8,0.3,1.5,0.6,2.3c0.1,0.3,0.1,0.7,0.2,1
			c0.1,0.4,0.1,0.7,0.2,1c0.1,0.4,0.1,0.7,0.2,1c0.1,0.3,0.1,0.7,0.2,1c0.1,0.6,0.2,1.2,0.4,1.8c0.2,1.3,0.5,2.5,0.8,3.8
			c0.1,0.2,0.1,0.3,0.2,0.5c0,0.4,0.1,0.7,0.2,1c0.1,0.2,0.1,0.3,0.1,0.4c0,0.2,0.1,0.5,0.2,0.7c0,0.2-0.1,0.5,0.1,0.7H398
			c-0.1,0.1-0.1,0.2-0.2,0.3c-0.1,0.1-0.2,0.1-0.4,0.2c-0.2,0.1-0.4,0.1-0.6,0.1c-0.3,0.1-0.5,0.1-0.8,0.2c-0.3,0-0.6,0-0.9,0.1
			c-0.4,0.1-0.7,0.1-1.1,0.1c-0.8,0.1-1.6,0.1-2.4,0.2c-2.8,0-5.7,0-8.5,0c-0.9-0.1-1.8-0.1-2.8-0.2c-0.4,0-0.9,0-1.3,0
			c-0.4-0.1-0.8-0.1-1.2-0.1c-0.3-0.1-0.7-0.1-1.1-0.1c-0.3-0.1-0.6-0.1-0.9-0.2c-0.5,0-1-0.1-1.5-0.3c-0.4,0-0.6-0.2-0.8-0.4
			c-0.1-0.2-0.1-0.3-0.2-0.4c-0.1-0.2-0.1-0.4-0.2-0.6c-0.2-0.5-0.3-1.1-0.5-1.7c-0.2-0.8-0.4-1.5-0.6-2.3
			c-0.7-5.4-2.9-10.7-3.4-16.2c-0.2-0.9-0.4-1.7-0.6-2.6c-0.1-0.4-0.2-0.8-0.2-1.2c-0.3-1-0.3-2-0.7-3c0-0.2,0-0.5-0.1-0.7
			c-0.1-0.2-0.1-0.3-0.2-0.4c0-0.2,0-0.4-0.1-0.5c-0.1,0-0.2,0-0.4-0.1c-0.2,0-0.4,0-0.7-0.1c-0.7-0.1-1.5-0.1-2.2-0.2
			c-0.4,0-0.9,0-1.3,0c-1.8-0.2-3.8-0.2-5.6,0c-0.7,0-1.5,0.1-2.2,0.3c-0.2,0.1-0.5,0.1-0.7,0.3c-0.2,0.1-0.3,0.1-0.4,0.3v0.1
			c-0.1,0.1-0.1,0.2-0.1,0.3c-0.1,0.2-0.1,0.3-0.1,0.5c-0.2,0.9-0.3,1.8-0.6,2.6c-0.1,0.3-0.1,0.7-0.2,1.1c-0.1,0.4-0.2,0.8-0.2,1.2
			c-0.1,0.5-0.2,0.9-0.3,1.4c-0.5,4.1-1.7,8.3-2.5,12.3c-0.2,1.8-0.9,3.6-1.1,5.4c-0.1,0.4-0.2,0.8-0.3,1.1c-0.1,0.3-0.1,0.7-0.2,1
			c-0.1,0.3-0.1,0.6-0.2,0.8c-0.1,0.2-0.2,0.5-0.2,0.7c-0.1,0.2-0.1,0.3-0.2,0.4c0,0.1,0,0.2-0.1,0.3c-0.1,0.1-0.2,0.2-0.2,0.2
			c-0.2,0.1-0.3,0.1-0.5,0.2c-1.2,0.3-2.4,0.6-3.6,0.6c-0.4,0.1-0.8,0.1-1.2,0.2c-0.9,0.1-1.8,0.1-2.7,0.2c-0.4,0.1-0.9,0.1-1.4,0.1
			c-1.5,0.2-2.9,0-4.4,0.2c-0.9,0-1.8,0-2.8-0.1c-0.4,0-0.9,0-1.3,0c-0.4-0.1-0.8-0.1-1.2-0.1c-0.4-0.1-0.8-0.1-1.1-0.1
			c-0.3-0.1-0.6-0.1-0.9-0.2c-0.5,0-1-0.1-1.5-0.4c-0.2-0.1-0.3-0.1-0.5-0.2C323.8,588,323.7,588,323.7,587.8z M365.5,547.7
			c0.1-0.1,0-0.3-0.1-0.5c-0.1-0.2-0.1-0.3-0.1-0.5c-0.1-0.5-0.2-0.9-0.3-1.4c0-1.1-0.4-2.4-0.6-3.5c-0.3-1-0.4-2.1-0.6-3.1
			c-0.2-0.8-0.3-1.5-0.5-2.3c-0.1-0.8-0.2-1.6-0.4-2.4c-0.1-0.4-0.1-0.8-0.2-1.2c-0.2-0.8-0.3-1.7-0.5-2.5c-0.1-0.5-0.1-0.9-0.2-1.3
			c-0.2-0.9-0.3-1.7-0.4-2.6c-0.3-1.3-0.3-2.6-0.7-3.8c-0.1-0.5-0.1-0.9-0.2-1.3c-0.2-0.4-0.2-0.8-0.2-1.3c-0.1-1.6-0.2-1.6-0.3,0
			c0,0.4-0.1,0.8-0.2,1.3c-0.1,0.4-0.2,0.8-0.2,1.3c0,1.3-0.4,2.8-0.7,4c-0.1,0.5-0.1,0.9-0.2,1.4c-0.1,0.4-0.1,0.8-0.2,1.3
			c-0.1,0.5-0.1,0.9-0.2,1.4c-0.1,0.4-0.1,0.8-0.2,1.3c-0.1,0.5-0.1,0.9-0.2,1.3c-0.1,0.5-0.1,0.9-0.2,1.3c-0.1,0.4-0.1,0.8-0.2,1.3
			c-0.1,0.4-0.1,0.8-0.2,1.2c-0.2,0.8-0.3,1.6-0.5,2.4c-0.1,0.4-0.1,0.8-0.2,1.1c-0.3,1-0.3,2.1-0.7,3.1c-0.1,0.6-0.2,1.2-0.3,1.7
			c0,0.7-0.2,1.8-0.4,2.5c-0.4,0.8,0.8,0.5,1.2,0.6c0.4,0,0.8,0,1.1,0c0.9-0.1,1.7-0.1,2.6-0.1c0.5-0.1,0.9-0.1,1.4-0.1
			c0.4-0.1,0.9-0.1,1.3-0.2c0.3,0,0.7,0,1.1-0.1C364.6,548,365.1,547.9,365.5,547.7C365.6,547.6,365.4,547.8,365.5,547.7z"/>
	</g>
</g>
<path fill="#020202" d="M350.4,464.4c-3.8,0-6.7,9.1-12.8,8.7c-6.1-0.3-6.1-5.5-6.1-7.4c0-4.3,4.3-11.3,6.4-13.9
	c2.2-2.6,5.6-6,12.1-6c9.1,0,10.8,9.2,18,9.2c4.2,0,7.3-11.1,15.1-11.1c13.9,0,4.7,15.1,3.2,17.4c-2.4,3.7-9.3,13.2-18.6,13.2
	C358.6,474.4,356.7,464.4,350.4,464.4"/>
</svg>
