<?xml version="1.0" encoding="utf-8"?>
<!-- Generator: Adobe Illustrator 18.0.0, SVG Export Plug-In . SVG Version: 6.00 Build 0)  -->
<!DOCTYPE svg PUBLIC "-//W3C//DTD SVG 1.1//EN" "http://www.w3.org/Graphics/SVG/1.1/DTD/svg11.dtd">
<svg version="1.1" id="Camada_1" xmlns="http://www.w3.org/2000/svg" xmlns:xlink="http://www.w3.org/1999/xlink" x="0px" y="0px"
	 viewBox="0 416 768 214" enable-background="new 0 416 768 214" xml:space="preserve">
<path fill="#1B7C09" d="M93.3,589.5c0-0.1,0-0.1,0-0.2c0-0.1,0-0.2,0-0.3c0-0.1,0-0.2,0-0.3c0-0.2,0-0.3,0-0.4c0-0.1,0-0.2,0-0.3
	c0-0.2,0-0.3,0.1-0.5c0-0.2,0-0.3,0-0.5c0-0.2,0-0.4,0-0.6c0-0.2,0-0.5,0-0.7c0-0.2,0-0.5,0-0.7c0.1-0.2,0.1-0.5,0.1-0.7
	c0-0.3,0-0.6,0-0.9c0-0.3,0-0.6,0-0.9c0-0.3,0-0.6,0.1-0.9c0-0.3,0-0.7,0-1c0-0.3,0-0.7,0-1c0-0.3,0-0.7,0.1-1c0-0.4,0-0.8,0-1.1
	c0-0.4,0-0.7,0-1.1c0.1-0.3,0.1-0.7,0.1-1.1c0-0.4,0-0.8,0-1.2c0.1-0.4,0.1-0.8,0.1-1.2c0-0.4,0-0.8,0-1.2c0.1-0.5,0.1-0.9,0.1-1.3
	c0-0.5,0-0.9,0-1.4c0.1-0.4,0.1-0.8,0.1-1.3c0-0.5,0-0.9,0-1.4c0.1-0.5,0.1-0.9,0.1-1.4c0-0.5,0-1,0-1.5c0.1-0.5,0.1-1,0.1-1.5
	c0-0.5,0-1,0.1-1.5c0-0.5,0-1,0-1.5c0.1-0.5,0.1-1,0.1-1.6c0-0.5,0-1,0-1.5c0.1-0.5,0.1-1,0.1-1.6c0-0.5,0-1,0.1-1.6
	c0-0.5,0-1,0-1.6c0.1-0.5,0.1-1.1,0.1-1.7c0.1-0.5,0.1-1,0.1-1.6c0-0.5,0-1.1,0.1-1.7c0-0.5,0-1,0-1.6c0.1-0.6,0.1-1.1,0.1-1.7
	c0-0.5,0-1.1,0.1-1.7c0-0.5,0-1,0-1.6c0.1-0.6,0.1-1.1,0.1-1.7c0.1-0.5,0.1-1.1,0.1-1.7c0-0.5,0-1,0.1-1.6c0-0.6,0-1.1,0.1-1.7
	c0-0.5,0-1.1,0-1.7c0.1-0.5,0.1-1,0.1-1.6c0.1-0.5,0.1-1.1,0.1-1.7c0-0.5,0-1,0.1-1.6c0-0.5,0-1,0.1-1.6c0-0.5,0-1,0-1.6
	c0.1-0.5,0.1-1,0.1-1.6c0.1-0.5,0.1-1,0.1-1.6c0.1-0.5,0.1-1,0.1-1.5c0-0.5,0-1,0.1-1.5c0-0.5,0-1,0.1-1.5c0-0.5,0-1,0.1-1.5
	c0-0.5,0-1,0-1.5c0.1-0.5,0.1-0.9,0.1-1.4c0.1-0.5,0.1-0.9,0.1-1.4c0.1-0.5,0.1-0.9,0.1-1.3c0.1-0.5,0.1-0.9,0.1-1.4
	c0-0.4,0-0.8,0.1-1.2c0-0.5,0-0.9,0.1-1.3c0-0.4,0-0.8,0.1-1.2c0-0.4,0-0.8,0.1-1.2c0-0.4,0-0.7,0.1-1.1c0-0.4,0-0.8,0-1.1
	c0.1-0.3,0.1-0.7,0.1-1c0.1-0.4,0.1-0.7,0.1-1c0.1-0.4,0.1-0.7,0.1-1c0.1-0.3,0.1-0.6,0.1-1c0.1-0.3,0.1-0.6,0.1-0.9
	c0-0.3,0-0.6,0.1-0.9c0-0.2,0-0.5,0.1-0.8c0-0.2,0-0.5,0.1-0.8c0-0.2,0-0.5,0.1-0.7c0-0.2,0-0.4,0.1-0.6c0-0.2,0-0.4,0.1-0.6
	c0-0.2,0-0.4,0-0.5c0.1-0.2,0.1-0.4,0.1-0.5c0.1-0.1,0.1-0.3,0.1-0.4c0.1-0.1,0.1-0.2,0.1-0.3c0.1-0.1,0.1-0.1,0.1-0.3
	c0.1-0.1,0.1-0.1,0.1-0.3c0-0.1,0-0.1,0.1-0.2l0.1-0.1c0.1-0.1,0.2-0.1,0.4-0.2c0.2-0.1,0.3-0.2,0.5-0.3c0.3-0.1,0.5-0.1,0.7-0.2
	c0.3-0.1,0.5-0.1,0.8-0.2c0.3-0.1,0.7-0.1,1-0.1c0.4-0.1,0.7-0.1,1.1-0.2c0.4,0,0.8,0,1.2-0.1c0.4,0,0.8,0,1.2,0
	c0.4-0.1,0.9-0.1,1.3-0.1c0.4,0,0.9,0,1.3,0c0.5,0,0.9,0,1.4,0c0.4,0,0.9,0,1.4,0c0.4,0.1,0.9,0.1,1.3,0.1c0.5,0,0.9,0,1.4,0
	c0.4,0.1,0.9,0.1,1.3,0.1c0.4,0.1,0.8,0.1,1.2,0.1c0.4,0.1,0.8,0.1,1.1,0.1c0.4,0.1,0.7,0.1,1.1,0.2c0.3,0,0.7,0,1,0.1
	c0.3,0.1,0.6,0.1,0.9,0.2c0.2,0.1,0.4,0.1,0.7,0.2c0.2,0,0.4,0,0.6,0.1c0.2,0.1,0.3,0.1,0.4,0.2c0.1,0.1,0.1,0.1,0.2,0.2
	c0.1,0.1,0.1,0.1,0.2,0.3c0.1,0.1,0.2,0.2,0.2,0.4c0.1,0.2,0.2,0.3,0.3,0.5c0.1,0.2,0.2,0.3,0.2,0.5c0.2,0.2,0.3,0.5,0.4,0.7
	c0.1,0.2,0.2,0.5,0.3,0.8c0.2,0.2,0.3,0.5,0.4,0.8c0.2,0.3,0.3,0.6,0.4,1c0.2,0.3,0.3,0.6,0.5,1c0.2,0.3,0.3,0.7,0.4,1
	c0.2,0.4,0.3,0.8,0.5,1.1c0.2,0.4,0.4,0.8,0.6,1.2c0.2,0.4,0.3,0.8,0.5,1.2c0.2,0.4,0.4,0.8,0.6,1.3c0.2,0.4,0.4,0.8,0.6,1.3
	c0.2,0.5,0.3,0.9,0.5,1.4c0.2,0.5,0.4,0.9,0.6,1.4c0.2,0.5,0.4,0.9,0.7,1.4c0.2,0.5,0.4,1,0.6,1.5c0.2,0.5,0.4,1,0.6,1.5
	c0.2,0.5,0.4,0.9,0.6,1.4c0.2,0.5,0.4,1,0.7,1.5c0.2,0.5,0.4,1,0.6,1.5c0.2,0.5,0.4,1,0.6,1.5c0.2,0.5,0.4,1,0.6,1.5
	c0.2,0.5,0.4,1,0.6,1.5c0.2,0.5,0.4,0.9,0.6,1.4c0.2,0.5,0.4,0.9,0.6,1.4c0.2,0.5,0.3,0.9,0.5,1.4c0.2,0.5,0.4,0.9,0.6,1.4
	c0.2,0.4,0.3,0.8,0.5,1.3c0.2,0.4,0.3,0.8,0.5,1.2c0.2,0.4,0.3,0.8,0.4,1.2c0.2,0.3,0.3,0.7,0.5,1.1c0.1,0.4,0.2,0.7,0.4,1
	c0.1,0.3,0.2,0.7,0.4,1c0.1,0.3,0.2,0.6,0.3,1c0.1,0.3,0.2,0.6,0.3,0.9c0.1,0.2,0.2,0.5,0.3,0.8c0.1,0.2,0.2,0.5,0.2,0.7
	c0.1,0.2,0.2,0.4,0.2,0.6c0.1,0.2,0.1,0.3,0.2,0.5c0.1,0.1,0.1,0.2,0.2,0.3c0.1,0.1,0.1,0.2,0.2,0.4c0,0.1,0,0.1,0.1,0.2v-0.1
	c0-0.1,0-0.1,0-0.2c0-0.1,0-0.2,0-0.3c0-0.2,0-0.4,0-0.5s0-0.3,0-0.5c0-0.3,0-0.6,0.1-0.8c0-0.2,0-0.5,0-0.8c0-0.3,0-0.6,0-1
	c0-0.3,0-0.7,0.1-1c0-0.4,0-0.8,0-1.1c0-0.4,0-0.8,0.1-1.2c0-0.4,0-0.8,0-1.2c0-0.5,0-0.9,0.1-1.4c0-0.5,0-0.9,0-1.3
	c0-0.5,0-1,0.1-1.5c0-0.5,0-1,0-1.5c0.1-0.5,0.1-1,0.1-1.6c0-0.5,0-1,0.1-1.6c0-0.5,0-1,0-1.6c0.1-0.5,0.1-1,0.1-1.6
	c0-0.5,0-1.1,0.1-1.7c0-0.5,0-1,0.1-1.6c0-0.6,0-1.1,0-1.7c0.1-0.5,0.1-1,0.1-1.6c0.1-0.6,0.1-1.1,0.1-1.7c0.1-0.5,0.1-1,0.1-1.6
	s0-1,0.1-1.6c0-0.5,0-1,0.1-1.5c0-0.5,0-1,0.1-1.5c0-0.5,0-0.9,0.1-1.4c0-0.5,0-0.9,0.1-1.4c0-0.4,0-0.8,0.1-1.2
	c0-0.4,0-0.8,0.1-1.3c0-0.3,0-0.7,0.1-1.1c0-0.4,0-0.7,0.1-1c0-0.4,0-0.7,0.1-1c0-0.3,0-0.6,0.1-0.9c0-0.3,0-0.6,0.1-0.8
	c0-0.2,0-0.5,0.1-0.7c0-0.2,0-0.4,0.1-0.5c0-0.1,0-0.3,0.1-0.4c0-0.1,0-0.1,0.1-0.3c0-0.1,0-0.1,0.1-0.2c0.1-0.1,0.1-0.1,0.2-0.1
	c0.2-0.1,0.4-0.1,0.6-0.2c0.2-0.1,0.4-0.1,0.7-0.1c0.3-0.1,0.6-0.1,0.9-0.1c0.3-0.1,0.7-0.1,1.1-0.1c0.4-0.1,0.8-0.1,1.1-0.1
	c0.4-0.1,0.8-0.1,1.2-0.1c0.5,0,0.9,0,1.4,0c0.4,0,0.9,0,1.4,0c0.5-0.1,0.9-0.1,1.4-0.1c0.5,0.1,1,0.1,1.5,0.1c0.5,0,1,0,1.5,0
	c0.5,0,0.9,0,1.4,0.1c0.4,0,0.9,0,1.4,0c0.4,0.1,0.8,0.1,1.2,0.1c0.4,0.1,0.8,0.1,1.2,0.2c0.3,0,0.7,0,1,0.1
	c0.3,0.1,0.6,0.1,0.9,0.2c0.3,0.1,0.5,0.1,0.7,0.2c0.2,0.1,0.4,0.1,0.6,0.2c0.1,0.1,0.2,0.1,0.3,0.2v0.1c0.1,0.1,0.1,0.1,0.1,0.2
	c0,0.1,0,0.1,0.1,0.2c0,0.1,0,0.2,0,0.3c0.1,0.1,0.1,0.2,0.1,0.4c0,0.1,0,0.2,0,0.4c0.1,0.2,0.1,0.3,0.1,0.4c0,0.2,0,0.4,0.1,0.5
	c0,0.2,0,0.4,0,0.6c0.1,0.2,0.1,0.4,0.1,0.6c0,0.2,0,0.5,0.1,0.7c0,0.2,0,0.5,0,0.8c0.1,0.2,0.1,0.5,0.1,0.8c0,0.2,0,0.5,0.1,0.8
	c0,0.3,0,0.6,0,0.9c0.1,0.4,0.1,0.7,0.1,1c0,0.3,0,0.6,0.1,1c0,0.4,0,0.7,0,1c0.1,0.3,0.1,0.7,0.1,1c0,0.4,0,0.7,0.1,1
	c0,0.4,0,0.8,0,1.1c0.1,0.4,0.1,0.8,0.1,1.2c0,0.4,0,0.8,0.1,1.2c0,0.4,0,0.8,0,1.2c0.1,0.4,0.1,0.8,0.1,1.3c0,0.4,0,0.8,0.1,1.3
	c0,0.4,0,0.8,0.1,1.3c0,0.5,0,0.9,0,1.3c0.1,0.5,0.1,0.9,0.1,1.4c0,0.5,0,1,0.1,1.5c0,0.5,0,0.9,0,1.4c0.1,0.5,0.1,1,0.1,1.5
	c0,0.5,0,1,0.1,1.5c0,0.5,0,1,0,1.5c0.1,0.5,0.1,1,0.1,1.6c0,0.5,0,1,0,1.5c0.1,0.5,0.1,1,0.1,1.6c0,0.5,0,1,0.1,1.6
	c0,0.5,0,1,0,1.6c0.1,0.5,0.1,1,0.1,1.6s0,1,0.1,1.6c0,0.6,0,1.1,0,1.7c0.1,0.5,0.1,1,0.1,1.6c0,0.5,0,1.1,0,1.7
	c0.1,0.5,0.1,1,0.1,1.6c0,0.6,0,1.1,0,1.7c0.1,0.5,0.1,1,0.1,1.6c0,0.6,0,1.1,0.1,1.7c0,0.5,0,1,0,1.6c0,0.6,0,1.1,0.1,1.7
	c0,0.5,0,1,0,1.6c0,0.5,0,1,0.1,1.6c0,0.6,0,1.1,0,1.7c0,0.5,0,1,0,1.6c0.1,0.5,0.1,1,0.1,1.6c0,0.5,0,1,0,1.5
	c0.1,0.5,0.1,1,0.1,1.6c0,0.5,0,1,0,1.5c0,0.5,0,1,0.1,1.6c0,0.5,0,1,0,1.5c0,0.5,0,0.9,0,1.4c0,0.5,0,1,0,1.5
	c0.1,0.5,0.1,0.9,0.1,1.4c0,0.5,0,0.9,0,1.4c0,0.5,0,0.9,0,1.4c0,0.4,0,0.8,0.1,1.3c0,0.5,0,0.9,0,1.3c0,0.4,0,0.8,0,1.3
	c0,0.4,0,0.8,0,1.2c0,0.4,0,0.8,0,1.2c0,0.3,0,0.7,0,1.1c0,0.4,0,0.8,0,1.1c0.1,0.4,0.1,0.8,0.1,1.1s0,0.7,0,1s0,0.7,0,1
	c0,0.3,0,0.6,0,1c0,0.3,0,0.6,0,0.9s0,0.6,0,0.9c0,0.3,0,0.6-0.1,0.9c0,0.3,0,0.6,0,0.8c0,0.2,0,0.5,0,0.8c0,0.2,0,0.4,0,0.6
	c0,0.2,0,0.5,0,0.7c0,0.2,0,0.3,0,0.5s0,0.3-0.1,0.5c0,0.2,0,0.3,0,0.4c0,0.2,0,0.3,0,0.4c0,0.1,0,0.2,0,0.3
	c-0.1,0.1-0.1,0.2-0.1,0.3c0,0.1,0,0.1,0,0.3c-0.1,0-0.1,0-0.1,0.1v0.1c-0.1,0.1-0.1,0.1-0.2,0.2c-0.1,0.1-0.2,0.1-0.4,0.2
	c-0.2,0-0.3,0-0.5,0.1c-0.3,0.1-0.5,0.1-0.7,0.1c-0.3,0.1-0.5,0.1-0.8,0.1c-0.3,0.1-0.7,0.1-1,0.1c-0.4,0.1-0.7,0.1-1.1,0.1
	c-0.4,0-0.8,0-1.2,0.1c-0.4,0-0.8,0-1.2,0c-0.4,0-0.9,0-1.3,0c-0.5,0.1-0.9,0.1-1.4,0.1c-0.5,0-1,0-1.5,0c-0.5,0-1,0-1.5,0
	c-0.5,0-1,0-1.5,0c-0.5,0-1,0-1.5,0c-0.5-0.1-1.1-0.1-1.5-0.1c-0.5,0-1,0-1.5,0c-0.4,0-0.9,0-1.4-0.1c-0.5,0-0.9,0-1.4,0
	c-0.4,0-0.9,0-1.4-0.1c-0.4,0-0.8,0-1.2,0c-0.4-0.1-0.8-0.1-1.2-0.1c-0.3-0.1-0.7-0.1-1.1-0.1c-0.3,0-0.7,0-1-0.1
	c-0.3,0-0.5,0-0.8-0.1c-0.3,0-0.5,0-0.7-0.1c-0.2,0-0.4,0-0.6-0.1c-0.2,0-0.3,0-0.4-0.1c-0.1,0-0.2,0-0.2-0.1c-0.1,0-0.1,0-0.2-0.1
	c0-0.1,0-0.1-0.1-0.3c-0.1-0.1-0.1-0.2-0.2-0.4c-0.1-0.2-0.1-0.3-0.2-0.5c-0.1-0.2-0.2-0.3-0.2-0.5c-0.1-0.2-0.2-0.5-0.2-0.7
	c-0.1-0.3-0.2-0.6-0.3-0.8c-0.1-0.3-0.2-0.6-0.3-0.9c-0.1-0.3-0.2-0.7-0.3-1c-0.1-0.3-0.2-0.7-0.3-1c-0.2-0.4-0.3-0.8-0.4-1.1
	c-0.1-0.4-0.2-0.8-0.4-1.2c-0.1-0.4-0.2-0.8-0.4-1.2c-0.1-0.4-0.2-0.8-0.4-1.3c-0.2-0.5-0.3-0.9-0.4-1.3c-0.2-0.5-0.3-0.9-0.5-1.4
	c-0.2-0.5-0.3-1-0.5-1.5c-0.1-0.5-0.2-1-0.4-1.5c-0.2-0.5-0.3-1-0.5-1.5c-0.2-0.5-0.3-1-0.5-1.5c-0.2-0.5-0.3-1-0.5-1.6
	c-0.2-0.5-0.3-1-0.5-1.6c-0.2-0.5-0.3-1-0.5-1.5c-0.2-0.5-0.3-1-0.5-1.6c-0.2-0.5-0.3-1-0.4-1.6c-0.2-0.5-0.3-1-0.5-1.5
	c-0.2-0.5-0.3-1-0.5-1.6c-0.2-0.5-0.3-1-0.5-1.5c-0.1-0.5-0.2-0.9-0.4-1.4c-0.2-0.5-0.3-1-0.4-1.5c-0.2-0.5-0.3-0.9-0.5-1.4
	c-0.1-0.4-0.2-0.8-0.3-1.3c-0.2-0.4-0.3-0.8-0.4-1.2c-0.2-0.4-0.3-0.8-0.4-1.2c-0.1-0.4-0.2-0.8-0.3-1.2c-0.1-0.4-0.2-0.7-0.3-1
	c-0.1-0.3-0.2-0.7-0.3-1c-0.1-0.3-0.2-0.6-0.2-0.9c-0.1-0.3-0.2-0.6-0.2-0.9c-0.1-0.2-0.2-0.5-0.2-0.8c-0.1-0.2-0.1-0.4-0.2-0.6
	c-0.1-0.2-0.1-0.4-0.2-0.5c-0.1-0.2-0.1-0.3-0.2-0.4c-0.1-0.1-0.1-0.2-0.1-0.3c-0.1-0.1-0.1-0.1-0.1-0.2v-0.1v0.1c0,0.1,0,0.1,0,0.3
	c0,0.1,0,0.2,0,0.3c0,0.1,0,0.3,0,0.4c0,0.2,0,0.4,0.1,0.6c0,0.2,0,0.5,0,0.7c0,0.3,0,0.6,0,0.9c0.1,0.3,0.1,0.6,0.1,1
	c0,0.3,0,0.6,0,1c0,0.4,0,0.8,0.1,1.1c0,0.4,0,0.8,0,1.2c0,0.4,0,0.8,0.1,1.2c0,0.5,0,0.9,0,1.4c0.1,0.5,0.1,0.9,0.1,1.4
	c0,0.5,0,0.9,0,1.4c0.1,0.5,0.1,1,0.1,1.6c0,0.5,0,1,0,1.5c0.1,0.5,0.1,1,0.1,1.6c0,0.5,0,1.1,0.1,1.7c0,0.5,0,1,0,1.6
	c0,0.5,0,1.1,0.1,1.7c0,0.5,0,1.1,0,1.7c0,0.5,0,1,0.1,1.6c0,0.6,0,1.1,0,1.7c0,0.5,0,1,0,1.6c0.1,0.5,0.1,1.1,0.1,1.7
	c0,0.5,0,1,0,1.5c0,0.5,0,1,0,1.6c0,0.5,0,1,0,1.5c0,0.5,0,0.9,0,1.4s0,0.9,0,1.4s0,0.9,0,1.3c0,0.4,0,0.8,0,1.2c0,0.4,0,0.8,0,1.2
	c0,0.3,0,0.7,0,1s0,0.7-0.1,1c0,0.3,0,0.6,0,0.9c0,0.2,0,0.5-0.1,0.8c0,0.2,0,0.5,0,0.7c-0.1,0.2-0.1,0.3-0.1,0.5
	c-0.1,0.1-0.1,0.3-0.1,0.4c0,0.1,0,0.2-0.1,0.3c0,0.1,0,0.2-0.1,0.2c-0.1,0.1-0.2,0.1-0.2,0.2c-0.2,0.1-0.3,0.1-0.5,0.1
	c-0.2,0.1-0.4,0.1-0.6,0.1c-0.3,0.1-0.5,0.1-0.8,0.1c-0.3,0.1-0.6,0.1-0.9,0.1c-0.3,0.1-0.7,0.1-1.1,0.1c-0.4,0-0.8,0-1.1,0
	c-0.4,0.1-0.8,0.1-1.2,0.1c-0.4,0-0.9,0-1.4,0c-0.4,0-0.9,0-1.4,0c-0.5,0-1,0-1.5,0.1c-0.5,0-1,0-1.5,0c-0.5,0-1.1,0-1.5,0
	c-0.5-0.1-1-0.1-1.5-0.1c-0.5,0-1,0-1.5,0c-0.5,0-1,0-1.5,0c-0.5,0-1,0-1.5,0c-0.5,0-1,0-1.5,0c-0.4-0.1-0.9-0.1-1.3-0.1
	c-0.4,0-0.9,0-1.3,0c-0.4,0-0.8,0-1.1,0c-0.4-0.1-0.8-0.1-1.1-0.1c-0.3,0-0.6,0-0.9,0c-0.3,0-0.5,0-0.8,0c-0.2,0-0.4,0-0.7,0
	c-0.2,0-0.3,0-0.5-0.1C93.6,589.6,93.5,589.6,93.3,589.5L93.3,589.5L93.3,589.5z"/>
<path fill="#020202" d="M169.3,589.1L169.3,589.1c0-0.1,0-0.2,0-0.3c0-0.1,0-0.1,0-0.3c0-0.1,0-0.1,0-0.3c0-0.1,0-0.2,0.1-0.3
	c0-0.2,0-0.3,0.1-0.4c0-0.1,0-0.3,0-0.4c0.1-0.2,0.1-0.3,0.2-0.5c0-0.2,0-0.4,0.1-0.5c0.1-0.2,0.1-0.4,0.1-0.6
	c0.1-0.2,0.1-0.4,0.2-0.6c0.1-0.2,0.1-0.5,0.2-0.7c0.1-0.2,0.1-0.5,0.2-0.7c0.1-0.3,0.1-0.6,0.2-0.8c0.1-0.3,0.1-0.6,0.2-0.9
	c0.1-0.3,0.2-0.6,0.2-0.9c0.1-0.3,0.1-0.6,0.2-0.9c0.1-0.3,0.1-0.6,0.2-1c0.1-0.3,0.2-0.6,0.2-1c0.1-0.4,0.2-0.7,0.2-1
	c0.1-0.4,0.2-0.7,0.3-1c0.1-0.3,0.1-0.7,0.2-1c0.1-0.4,0.2-0.8,0.2-1.1c0.1-0.4,0.2-0.8,0.3-1.2c0.1-0.4,0.2-0.7,0.3-1.1
	c0.1-0.4,0.1-0.8,0.2-1.2c0.1-0.4,0.2-0.8,0.3-1.2c0.1-0.5,0.2-0.9,0.3-1.3c0.1-0.4,0.2-0.8,0.3-1.3c0.1-0.4,0.2-0.8,0.3-1.3
	c0.2-0.5,0.3-0.9,0.4-1.3c0.1-0.5,0.2-0.9,0.3-1.4c0.1-0.5,0.2-0.9,0.3-1.4c0.2-0.5,0.3-0.9,0.4-1.4c0.1-0.5,0.2-0.9,0.4-1.4
	c0.1-0.5,0.2-1,0.3-1.5c0.2-0.5,0.3-1,0.4-1.5c0.1-0.5,0.2-0.9,0.4-1.4c0.1-0.5,0.2-1,0.3-1.5c0.2-0.5,0.3-1,0.4-1.6
	c0.2-0.5,0.3-1,0.4-1.5c0.2-0.5,0.3-1,0.4-1.5c0.2-0.5,0.3-1,0.4-1.6c0.2-0.5,0.3-1,0.4-1.5c0.2-0.5,0.3-1,0.4-1.6
	c0.2-0.5,0.3-1,0.4-1.5c0.2-0.5,0.3-1,0.4-1.6c0.2-0.5,0.3-1,0.4-1.5c0.2-0.5,0.3-1,0.4-1.6c0.2-0.5,0.3-1,0.4-1.6
	c0.2-0.5,0.3-1,0.5-1.5c0.1-0.5,0.2-1,0.4-1.6c0.1-0.5,0.2-1,0.4-1.5c0.1-0.5,0.2-1,0.4-1.6c0.1-0.5,0.2-1,0.4-1.5
	c0.1-0.5,0.2-1,0.4-1.5c0.1-0.5,0.2-1,0.4-1.5c0.1-0.5,0.2-1,0.4-1.5c0.1-0.5,0.2-1,0.4-1.5c0.1-0.5,0.2-1,0.4-1.5
	c0.1-0.5,0.2-0.9,0.3-1.4c0.2-0.5,0.3-0.9,0.4-1.4c0.2-0.5,0.3-0.9,0.4-1.4c0.1-0.5,0.2-0.9,0.4-1.4c0.1-0.5,0.2-0.9,0.3-1.4
	c0.2-0.4,0.3-0.8,0.4-1.3c0.1-0.5,0.2-0.9,0.3-1.3c0.2-0.4,0.3-0.8,0.4-1.3c0.1-0.4,0.2-0.8,0.3-1.2c0.1-0.4,0.2-0.8,0.3-1.2
	c0.1-0.4,0.2-0.8,0.4-1.2c0.1-0.4,0.2-0.8,0.3-1.2c0.1-0.3,0.2-0.7,0.3-1.1c0.1-0.3,0.2-0.7,0.3-1.1c0.1-0.4,0.1-0.7,0.2-1
	c0.1-0.4,0.2-0.7,0.3-1c0.1-0.3,0.2-0.7,0.2-1c0.1-0.3,0.2-0.6,0.3-1c0.1-0.3,0.2-0.6,0.2-0.9c0.1-0.4,0.2-0.7,0.2-1
	c0.1-0.3,0.2-0.6,0.2-0.8c0.1-0.3,0.2-0.6,0.2-0.9c0.1-0.2,0.2-0.5,0.2-0.7c0.1-0.3,0.1-0.6,0.2-0.8c0.1-0.2,0.1-0.4,0.2-0.6
	c0.1-0.2,0.1-0.4,0.2-0.6c0.1-0.2,0.1-0.4,0.2-0.6c0.1-0.2,0.1-0.4,0.2-0.5c0.1-0.2,0.1-0.3,0.2-0.4c0-0.2,0-0.3,0.1-0.4
	c0.1-0.1,0.1-0.2,0.2-0.3c0-0.1,0-0.2,0.1-0.4c0.1-0.1,0.1-0.1,0.1-0.3c0.1-0.1,0.1-0.1,0.1-0.2c0-0.1,0-0.1,0.1-0.2v-0.1
	c0.1-0.1,0.2-0.1,0.3-0.2c0.2-0.1,0.3-0.1,0.5-0.2c0.2-0.1,0.5-0.1,0.7-0.1c0.3-0.1,0.5-0.1,0.8-0.2c0.4,0,0.7,0,1.1-0.1
	c0.4,0,0.8,0,1.1-0.1c0.4,0,0.9,0,1.3-0.1c0.4,0,0.9,0,1.3,0c0.5,0,1,0,1.5-0.1c0.5,0,0.9,0,1.4,0c0.5,0,1,0,1.5,0c0.5,0,1,0,1.5,0
	c0.5,0.1,0.9,0.1,1.4,0.1c0.5,0,0.9,0,1.4,0c0.4,0,0.9,0,1.3,0.1c0.4,0,0.8,0,1.1,0.1c0.4,0,0.7,0,1.1,0c0.3,0.1,0.6,0.1,0.9,0.1
	c0.3,0.1,0.5,0.1,0.7,0.1c0.2,0.1,0.4,0.1,0.6,0.2c0.1,0,0.2,0,0.3,0.1v0.1c0.1,0,0.1,0,0.1,0.1c0.1,0.1,0.1,0.1,0.1,0.2
	c0.1,0.1,0.1,0.1,0.1,0.3c0.1,0.1,0.1,0.2,0.2,0.3c0,0.1,0,0.2,0.1,0.4c0.1,0.2,0.1,0.3,0.2,0.4c0.1,0.2,0.1,0.4,0.2,0.5
	c0.1,0.2,0.1,0.4,0.2,0.5c0.1,0.2,0.1,0.4,0.2,0.5c0.1,0.2,0.1,0.4,0.2,0.6c0.1,0.2,0.2,0.5,0.2,0.7c0.1,0.2,0.1,0.5,0.2,0.7
	c0.1,0.3,0.1,0.6,0.2,0.8c0.1,0.3,0.2,0.6,0.2,0.9c0.1,0.3,0.2,0.6,0.2,0.9c0.1,0.3,0.2,0.6,0.3,0.9c0.1,0.3,0.1,0.6,0.2,1
	c0.1,0.3,0.2,0.6,0.2,1c0.1,0.4,0.2,0.7,0.3,1c0.1,0.4,0.2,0.7,0.3,1c0.1,0.3,0.2,0.7,0.2,1.1c0.1,0.4,0.2,0.7,0.3,1.1
	c0.1,0.4,0.2,0.7,0.3,1.1c0.1,0.4,0.2,0.8,0.3,1.2c0.1,0.4,0.2,0.8,0.3,1.2c0.2,0.4,0.3,0.8,0.4,1.2c0.1,0.5,0.2,0.9,0.3,1.3
	c0.1,0.5,0.2,0.9,0.3,1.3c0.2,0.5,0.3,0.9,0.4,1.4c0.1,0.4,0.2,0.8,0.3,1.3c0.2,0.5,0.3,0.9,0.4,1.4c0.1,0.5,0.2,0.9,0.4,1.4
	c0.1,0.5,0.2,1,0.3,1.5c0.2,0.5,0.3,0.9,0.4,1.4c0.2,0.5,0.3,1,0.4,1.5c0.1,0.5,0.2,1,0.4,1.5c0.1,0.5,0.2,1,0.4,1.5
	c0.1,0.5,0.2,1,0.4,1.5c0.1,0.5,0.2,1,0.4,1.6c0.1,0.5,0.2,1,0.4,1.5c0.1,0.5,0.2,1,0.3,1.6c0.2,0.5,0.3,1,0.4,1.5
	c0.2,0.5,0.3,1,0.5,1.6c0.1,0.5,0.2,1,0.4,1.6c0.1,0.5,0.2,1,0.4,1.6c0.1,0.5,0.2,1,0.4,1.6c0.1,0.5,0.2,1,0.4,1.6
	c0.1,0.5,0.2,1,0.4,1.6c0.1,0.5,0.2,1,0.4,1.6c0.1,0.5,0.2,1,0.4,1.5c0.1,0.5,0.2,1,0.3,1.6c0.2,0.5,0.3,1,0.4,1.6
	c0.2,0.5,0.3,1,0.4,1.6c0.2,0.5,0.3,1,0.4,1.5c0.2,0.5,0.3,1,0.4,1.6c0.1,0.5,0.2,1,0.4,1.5c0.1,0.5,0.2,1,0.3,1.5
	c0.2,0.5,0.3,1,0.4,1.5c0.1,0.5,0.2,1,0.4,1.5c0.1,0.5,0.2,1,0.3,1.5c0.1,0.5,0.2,0.9,0.4,1.4c0.1,0.5,0.2,0.9,0.3,1.4
	c0.1,0.5,0.2,0.9,0.3,1.4c0.2,0.5,0.3,0.9,0.4,1.4c0.1,0.5,0.2,0.9,0.3,1.3c0.1,0.5,0.2,0.9,0.3,1.4c0.1,0.4,0.2,0.8,0.3,1.2
	c0.1,0.5,0.2,0.9,0.3,1.3c0.1,0.4,0.2,0.8,0.2,1.2c0.1,0.4,0.2,0.8,0.3,1.2c0.1,0.4,0.2,0.8,0.3,1.2c0.1,0.3,0.1,0.7,0.2,1.1
	c0.1,0.4,0.2,0.7,0.3,1.1c0.1,0.3,0.1,0.7,0.2,1c0.1,0.4,0.1,0.7,0.2,1c0.1,0.4,0.1,0.7,0.2,1c0.1,0.3,0.1,0.7,0.2,1
	c0.1,0.3,0.1,0.7,0.2,1c0.1,0.3,0.1,0.6,0.2,0.9c0.1,0.3,0.1,0.6,0.2,0.9c0.1,0.2,0.1,0.5,0.2,0.8c0.1,0.2,0.1,0.5,0.2,0.7
	c0.1,0.2,0.1,0.5,0.2,0.7c0.1,0.2,0.1,0.5,0.2,0.7c0.1,0.2,0.1,0.3,0.2,0.5c0,0.2,0,0.4,0.1,0.6c0.1,0.2,0.1,0.3,0.1,0.4
	c0.1,0.2,0.1,0.3,0.1,0.4c0.1,0.2,0.1,0.3,0.1,0.4c0,0.1,0,0.2,0.1,0.3c0,0.1,0,0.2,0,0.3c0,0.1,0,0.1,0,0.2c0,0.1,0,0.1,0.1,0.2
	h-0.1c-0.1,0.1-0.1,0.2-0.2,0.3c-0.1,0.1-0.2,0.1-0.4,0.2c-0.2,0.1-0.4,0.1-0.6,0.1c-0.3,0.1-0.5,0.1-0.8,0.2c-0.3,0-0.6,0-0.9,0.1
	c-0.4,0.1-0.7,0.1-1.1,0.1c-0.4,0.1-0.8,0.1-1.2,0.1c-0.4,0-0.8,0-1.2,0.1c-0.4,0-0.9,0-1.4,0c-0.4,0-0.9,0-1.4,0
	c-0.5,0-0.9,0-1.4,0c-0.5,0-1,0-1.5,0c-0.5,0-1,0-1.5,0c-0.5,0-1,0-1.5,0c-0.5-0.1-1-0.1-1.5-0.1c-0.4,0-0.9,0-1.3-0.1
	c-0.4,0-0.9,0-1.3,0c-0.4-0.1-0.8-0.1-1.2-0.1c-0.3-0.1-0.7-0.1-1.1-0.1c-0.3-0.1-0.6-0.1-0.9-0.2c-0.3,0-0.5,0-0.8-0.1
	c-0.2-0.1-0.4-0.1-0.7-0.2c-0.2,0-0.3,0-0.4-0.1c-0.1-0.1-0.2-0.1-0.2-0.2c-0.1-0.1-0.1-0.1-0.2-0.2c-0.1-0.2-0.1-0.3-0.2-0.4
	c-0.1-0.2-0.1-0.4-0.2-0.6c-0.1-0.2-0.2-0.5-0.2-0.8c-0.1-0.3-0.1-0.6-0.2-0.9c-0.1-0.4-0.1-0.7-0.2-1c-0.1-0.4-0.2-0.8-0.3-1.2
	c-0.1-0.4-0.1-0.8-0.2-1.2c-0.1-0.5-0.2-0.9-0.3-1.3c-0.1-0.5-0.2-1-0.3-1.5c-0.1-0.5-0.2-1-0.3-1.5c-0.1-0.5-0.2-1-0.3-1.5
	c-0.1-0.5-0.2-1-0.3-1.6c-0.1-0.5-0.2-1-0.3-1.5c-0.1-0.5-0.2-1-0.3-1.6c-0.1-0.5-0.2-1-0.3-1.6c-0.1-0.5-0.2-1-0.3-1.5
	c-0.1-0.5-0.2-1-0.2-1.5c-0.1-0.5-0.2-0.9-0.3-1.3c-0.1-0.5-0.2-0.9-0.2-1.3c-0.1-0.4-0.2-0.8-0.2-1.2c-0.1-0.4-0.2-0.8-0.2-1.1
	c-0.1-0.3-0.1-0.7-0.2-1c-0.1-0.3-0.1-0.6-0.2-0.9c0-0.2,0-0.5-0.1-0.7c-0.1-0.2-0.1-0.3-0.2-0.4c0-0.1,0-0.2,0-0.3
	c0-0.1,0-0.1-0.1-0.2c-0.1,0-0.2,0-0.4-0.1c-0.2,0-0.4,0-0.7-0.1c-0.3-0.1-0.7-0.1-1-0.1c-0.4,0-0.8,0-1.2-0.1c-0.4,0-0.9,0-1.3,0
	c-0.4-0.1-0.9-0.1-1.4-0.1s-1,0-1.5,0c-0.5,0-0.9,0-1.4,0c-0.4,0-0.9,0-1.4,0.1c-0.4,0-0.8,0-1.1,0.1c-0.3,0.1-0.7,0.1-1.1,0.2
	c-0.2,0.1-0.5,0.1-0.7,0.3c-0.2,0.1-0.3,0.1-0.4,0.3v0.1c-0.1,0.1-0.1,0.2-0.1,0.3c-0.1,0.2-0.1,0.3-0.1,0.5
	c-0.1,0.2-0.1,0.5-0.2,0.7c-0.1,0.3-0.1,0.6-0.2,0.9c-0.1,0.3-0.1,0.7-0.2,1c-0.1,0.3-0.1,0.7-0.2,1.1c-0.1,0.4-0.2,0.8-0.2,1.2
	c-0.1,0.5-0.2,0.9-0.3,1.4c-0.1,0.5-0.1,0.9-0.2,1.4c-0.1,0.5-0.2,1-0.3,1.5c-0.1,0.5-0.2,1-0.3,1.6c-0.1,0.5-0.2,1-0.3,1.6
	c-0.1,0.5-0.2,1-0.3,1.6c-0.1,0.5-0.2,1-0.3,1.6c-0.1,0.5-0.2,1-0.3,1.6c-0.1,0.5-0.2,1-0.3,1.6c-0.1,0.5-0.1,1-0.2,1.5
	c-0.1,0.5-0.2,0.9-0.3,1.4c-0.1,0.5-0.2,0.9-0.3,1.3c-0.1,0.4-0.2,0.8-0.2,1.2c-0.1,0.4-0.2,0.8-0.3,1.1c-0.1,0.3-0.1,0.7-0.2,1
	c-0.1,0.3-0.1,0.6-0.2,0.8c-0.1,0.2-0.2,0.5-0.2,0.7c-0.1,0.2-0.1,0.3-0.2,0.4c0,0.1,0,0.2-0.1,0.3c-0.1,0.1-0.2,0.2-0.2,0.2
	c-0.2,0.1-0.3,0.1-0.5,0.2c-0.2,0.1-0.4,0.1-0.7,0.2c-0.3,0.1-0.5,0.1-0.8,0.2c-0.3,0.1-0.7,0.1-1,0.2c-0.4,0.1-0.8,0.1-1.1,0.1
	c-0.4,0.1-0.8,0.1-1.2,0.2c-0.4,0-0.9,0-1.3,0.1c-0.4,0.1-0.9,0.1-1.4,0.1c-0.4,0.1-0.9,0.1-1.4,0.1c-0.5,0.1-1,0.1-1.5,0.1
	c-0.5,0-1,0-1.5,0s-1,0-1.5,0.1c-0.5,0-0.9,0-1.4,0c-0.5,0-0.9,0-1.4-0.1c-0.4,0-0.9,0-1.3,0c-0.4-0.1-0.8-0.1-1.2-0.1
	c-0.4-0.1-0.8-0.1-1.1-0.1c-0.3-0.1-0.6-0.1-0.9-0.2c-0.3,0-0.5,0-0.8-0.1c-0.3-0.1-0.5-0.1-0.7-0.3c-0.2-0.1-0.3-0.1-0.5-0.2
	C169.5,589.3,169.4,589.2,169.3,589.1z M211.2,548.9c0.1-0.1,0-0.3-0.1-0.5c-0.1-0.2-0.1-0.3-0.1-0.5c-0.1-0.2-0.1-0.5-0.2-0.7
	c-0.1-0.2-0.1-0.5-0.2-0.7c0-0.3,0-0.6-0.1-0.8c-0.1-0.3-0.1-0.6-0.2-0.9c-0.1-0.3-0.1-0.6-0.2-0.9c-0.1-0.3-0.1-0.7-0.2-1
	c-0.1-0.3-0.2-0.7-0.2-1c-0.1-0.3-0.1-0.7-0.2-1c-0.1-0.4-0.1-0.8-0.2-1.1c-0.1-0.4-0.2-0.7-0.2-1.1c-0.1-0.4-0.1-0.8-0.2-1.1
	c-0.1-0.4-0.1-0.8-0.2-1.2c-0.1-0.4-0.1-0.8-0.2-1.2c-0.1-0.4-0.1-0.8-0.2-1.2c-0.1-0.4-0.2-0.8-0.2-1.3c-0.1-0.4-0.1-0.8-0.2-1.2
	c-0.1-0.5-0.1-0.9-0.2-1.3c-0.1-0.4-0.2-0.8-0.2-1.3c-0.1-0.4-0.1-0.8-0.2-1.3c-0.1-0.4-0.2-0.8-0.2-1.3c-0.1-0.4-0.1-0.8-0.2-1.3
	c-0.1-0.4-0.1-0.8-0.2-1.2c-0.1-0.5-0.1-0.9-0.2-1.3c-0.2-0.4-0.2-0.8-0.2-1.3c0.2-0.8,0.1-1.2-0.2-1.2c-0.2,0-0.3,0.4-0.2,1.2
	c0,0.4-0.1,0.8-0.2,1.3c-0.1,0.4-0.2,0.8-0.2,1.3c0,0.5-0.1,0.9-0.2,1.3c-0.1,0.5-0.2,0.9-0.2,1.4c-0.1,0.4-0.1,0.8-0.2,1.3
	c-0.1,0.5-0.1,0.9-0.2,1.4c-0.1,0.4-0.1,0.8-0.2,1.3c-0.1,0.5-0.1,0.9-0.2,1.4c-0.1,0.4-0.1,0.8-0.2,1.3c-0.1,0.5-0.1,0.9-0.2,1.3
	c-0.1,0.5-0.1,0.9-0.2,1.3c-0.1,0.4-0.1,0.8-0.2,1.3c-0.1,0.4-0.1,0.8-0.2,1.2c-0.1,0.4-0.2,0.8-0.2,1.2c-0.1,0.4-0.1,0.8-0.2,1.1
	c-0.1,0.4-0.1,0.8-0.2,1.1c-0.1,0.3-0.2,0.7-0.2,1.1c-0.1,0.3-0.1,0.7-0.2,1c-0.1,0.3-0.1,0.7-0.2,1c-0.1,0.3-0.1,0.6-0.2,0.9
	c-0.1,0.3-0.1,0.6-0.2,0.9c0,0.2,0,0.5-0.1,0.7c-0.1,0.2-0.1,0.5-0.2,0.7c-0.1,0.2-0.1,0.4-0.1,0.6c0,0.2,0,0.4-0.1,0.5
	c-0.1,0.2-0.1,0.4-0.1,0.4c0.1,0.1,0.2,0.1,0.5,0.1c0.3,0,0.5,0,0.8,0.1c0.4,0,0.8,0,1.1,0c0.4-0.1,0.9-0.1,1.3-0.1
	c0.4,0,0.9,0,1.3,0c0.5-0.1,0.9-0.1,1.4-0.1c0.4-0.1,0.9-0.1,1.3-0.2c0.3,0,0.7,0,1.1-0.1c0.3-0.1,0.6-0.2,0.9-0.2
	C211,549.1,211.1,549,211.2,548.9z"/>
<path fill="#020202" d="M275.2,487.5c0.5,0.1,1,0.1,1.5,0.1c0.5,0,1,0,1.5,0.1c0.5,0,1,0,1.5,0.1c0.4,0.1,0.9,0.1,1.4,0.2
	c0.4,0,0.9,0,1.4,0.1c0.4,0.1,0.9,0.1,1.3,0.3c0.4,0.1,0.9,0.1,1.3,0.2c0.4,0.1,0.9,0.2,1.3,0.3c0.4,0.1,0.8,0.2,1.2,0.3
	c0.4,0.1,0.8,0.2,1.2,0.3c0.4,0.1,0.8,0.2,1.1,0.4c0.4,0.1,0.8,0.2,1.1,0.4c0.4,0.2,0.8,0.3,1.1,0.4c0.3,0.1,0.7,0.3,1.1,0.4
	c0.3,0.2,0.7,0.3,1,0.5c0.3,0.1,0.7,0.3,1,0.5c0.3,0.2,0.6,0.3,0.9,0.5c0.3,0.2,0.6,0.4,0.9,0.6c0.3,0.2,0.5,0.4,0.8,0.6
	c0.3,0.2,0.5,0.4,0.8,0.6c0.3,0.2,0.5,0.5,0.7,0.7c0.3,0.2,0.5,0.5,0.7,0.8c0.2,0.2,0.4,0.5,0.7,0.8c0.2,0.2,0.4,0.5,0.6,0.8
	c0.2,0.3,0.4,0.6,0.6,0.9c0.2,0.3,0.4,0.6,0.5,0.9c0.2,0.3,0.3,0.6,0.5,1c0.2,0.3,0.3,0.6,0.4,1c0.1,0.3,0.2,0.7,0.3,1
	c0.1,0.4,0.2,0.7,0.3,1c0.1,0.4,0.1,0.7,0.2,1c0.1,0.4,0.1,0.8,0.2,1.1c0.1,0.4,0.1,0.8,0.1,1.2c0.1,0.4,0.1,0.8,0.1,1.2
	c0,0.5,0,0.9,0,1.3c0,0.5,0,1-0.1,1.6c-0.1,0.5-0.1,1-0.2,1.6c-0.1,0.5-0.2,0.9-0.3,1.4c-0.1,0.5-0.2,0.9-0.3,1.4
	c-0.2,0.4-0.3,0.8-0.5,1.2c-0.2,0.4-0.3,0.8-0.5,1.2c-0.2,0.4-0.4,0.8-0.7,1.1c-0.2,0.4-0.4,0.7-0.6,1c-0.3,0.3-0.5,0.7-0.7,1
	c-0.2,0.4-0.5,0.7-0.7,1c-0.3,0.3-0.5,0.6-0.8,0.8c-0.3,0.3-0.5,0.6-0.8,0.8c-0.3,0.2-0.5,0.5-0.8,0.7c-0.3,0.2-0.6,0.4-0.9,0.6
	c-0.3,0.2-0.5,0.4-0.8,0.6c-0.3,0.2-0.6,0.4-0.9,0.5c-0.3,0.2-0.6,0.3-0.9,0.4c-0.3,0.2-0.6,0.3-0.9,0.4c-0.3,0.2-0.5,0.3-0.8,0.3
	c-0.4,0-0.7,0.1-0.9,0.3c-0.1,0.1,0.1,0.1,0.6,0.2c0.2,0,0.3,0.1,0.5,0.2c0.2,0.1,0.4,0.2,0.7,0.3c0.2,0.1,0.4,0.1,0.6,0.3
	c0.2,0.1,0.4,0.2,0.7,0.3c0.2,0.1,0.5,0.2,0.7,0.3c0.2,0.1,0.4,0.2,0.7,0.3c0.3,0.2,0.5,0.3,0.7,0.4c0.3,0.1,0.5,0.3,0.7,0.4
	c0.3,0.2,0.5,0.3,0.8,0.5c0.3,0.2,0.5,0.4,0.7,0.5c0.3,0.2,0.5,0.4,0.8,0.6c0.3,0.2,0.5,0.4,0.7,0.6c0.3,0.2,0.5,0.4,0.8,0.6
	c0.3,0.3,0.5,0.6,0.8,0.8c0.2,0.2,0.5,0.5,0.7,0.8c0.3,0.2,0.5,0.5,0.7,0.8c0.3,0.3,0.5,0.6,0.7,1c0.3,0.3,0.5,0.6,0.7,0.9
	c0.3,0.3,0.5,0.7,0.7,1c0.2,0.3,0.4,0.7,0.7,1c0.2,0.4,0.4,0.8,0.7,1.1c0.2,0.4,0.4,0.8,0.6,1.2c0.2,0.4,0.4,0.8,0.6,1.3
	c0.2,0.4,0.4,0.8,0.6,1.3c0.2,0.5,0.3,0.9,0.5,1.4c0.2,0.5,0.3,1,0.4,1.5c0.2,0.5,0.3,1,0.4,1.6c0.1,0.5,0.2,1,0.3,1.6
	c0.1,0.6,0.2,1.2,0.2,1.8c0.1,0.6,0.2,1.2,0.2,1.7c0.1,0.6,0.1,1.3,0.1,1.9c0.1,0.6,0.1,1.3,0.1,1.9c0,0.5,0,0.9,0,1.4
	c0,0.5,0,0.9,0,1.4c-0.1,0.5-0.1,0.9-0.1,1.3c-0.1,0.5-0.1,0.9-0.2,1.3c-0.1,0.5-0.1,0.9-0.2,1.3c-0.1,0.4-0.1,0.8-0.2,1.2
	c-0.1,0.4-0.2,0.8-0.2,1.2c-0.1,0.4-0.2,0.8-0.3,1.2c-0.1,0.4-0.2,0.8-0.3,1.1c-0.1,0.4-0.2,0.8-0.3,1.1c-0.1,0.4-0.2,0.7-0.4,1
	c-0.1,0.4-0.2,0.8-0.4,1.1c-0.2,0.3-0.3,0.6-0.5,1c-0.2,0.3-0.3,0.7-0.5,1c-0.2,0.3-0.3,0.6-0.5,1c-0.2,0.3-0.4,0.6-0.6,0.9
	c-0.2,0.4-0.4,0.7-0.7,1c-0.2,0.3-0.4,0.6-0.7,0.9c-0.2,0.3-0.4,0.6-0.7,0.8c-0.2,0.3-0.4,0.6-0.7,0.9c-0.3,0.2-0.5,0.5-0.7,0.7
	c-0.3,0.3-0.5,0.6-0.8,0.8c-0.3,0.2-0.5,0.5-0.8,0.7c-0.3,0.2-0.5,0.5-0.8,0.7c-0.3,0.2-0.5,0.5-0.8,0.7c-0.3,0.2-0.6,0.4-0.9,0.6
	c-0.3,0.2-0.6,0.4-0.9,0.6c-0.3,0.2-0.7,0.4-1,0.5c-0.3,0.2-0.7,0.3-1,0.5s-0.7,0.4-1,0.5c-0.3,0.2-0.7,0.3-1.1,0.4
	c-0.3,0.2-0.7,0.3-1,0.4c-0.4,0.2-0.8,0.3-1.1,0.4c-0.3,0.2-0.7,0.3-1.1,0.4c-0.4,0.1-0.8,0.2-1.1,0.3c-0.4,0.1-0.8,0.2-1.1,0.4
	c-0.4,0.1-0.8,0.1-1.2,0.3c-0.4,0.1-0.8,0.2-1.1,0.3c-0.4,0.1-0.8,0.2-1.2,0.3c-0.4,0.1-0.8,0.1-1.2,0.2c-0.4,0.1-0.9,0.1-1.3,0.2
	c-0.4,0.1-0.9,0.1-1.3,0.2c-0.4,0.1-0.9,0.1-1.3,0.2c-0.4,0-0.9,0-1.3,0.1c-0.4,0-0.9,0-1.3,0.1c-0.5,0-0.9,0-1.4,0
	c-0.8,0-1.6,0-2.4,0.1c-0.8,0-1.5,0-2.2,0c-0.7,0-1.4,0-2.1,0c-0.7,0-1.3,0-2,0c-0.6,0-1.2,0-1.8,0c-0.5,0-1.1,0-1.6,0
	c-0.5,0-1.1,0-1.6,0c-0.5,0-1,0-1.5,0c-0.4,0-0.9,0-1.3-0.1c-0.4,0-0.8,0-1.2,0c-0.4,0-0.8,0-1.1-0.1c-0.4,0-0.7,0-1.1,0
	c-0.3-0.1-0.7-0.1-1-0.1c-0.3-0.1-0.5-0.1-0.8-0.1c-0.3-0.1-0.5-0.1-0.8-0.2c-0.2,0-0.5,0-0.7-0.1c-0.2-0.1-0.4-0.1-0.7-0.1
	c-0.2-0.1-0.4-0.1-0.6-0.2c-0.2-0.1-0.3-0.1-0.5-0.2c-0.2,0-0.3,0-0.5-0.1c-0.2-0.1-0.3-0.1-0.4-0.2c-0.1-0.1-0.2-0.1-0.4-0.2
	c-0.1-0.1-0.2-0.2-0.3-0.3c-0.1-0.1-0.1-0.1-0.2-0.2c-0.1-0.1-0.2-0.1-0.2-0.3c-0.1-0.1-0.2-0.1-0.2-0.2c-0.1-0.1-0.1-0.1-0.1-0.2
	c-0.1,0-0.1,0-0.1-0.1c0-0.1,0-0.2-0.1-0.3c0-0.1,0-0.2,0-0.3c-0.1-0.1-0.1-0.2-0.1-0.3c-0.1-0.1-0.1-0.3-0.1-0.4s0-0.3-0.1-0.4
	c0-0.2,0-0.4-0.1-0.6c0-0.2,0-0.3,0-0.5c-0.1-0.2-0.1-0.5-0.1-0.7c0-0.2,0-0.5-0.1-0.7c0-0.3,0-0.6,0-0.8c-0.1-0.3-0.1-0.6-0.1-0.8
	c-0.1-0.3-0.1-0.6-0.1-0.9c0-0.3,0-0.6-0.1-1c0-0.3,0-0.6,0-0.9c-0.1-0.4-0.1-0.7-0.1-1s0-0.7-0.1-1c0-0.3,0-0.7,0-1
	c-0.1-0.4-0.1-0.8-0.1-1.1c0-0.4,0-0.8,0-1.1c-0.1-0.4-0.1-0.8-0.1-1.2c0-0.4,0-0.8-0.1-1.2c0-0.5,0-0.9,0-1.3
	c-0.1-0.4-0.1-0.8-0.1-1.3c0-0.4,0-0.8,0-1.3c-0.1-0.5-0.1-0.9-0.1-1.3c0-0.5,0-0.9,0-1.4c-0.1-0.5-0.1-0.9-0.1-1.4c0-0.5,0-1,0-1.5
	c-0.1-0.5-0.1-0.9-0.1-1.4c0-0.5,0-1,0-1.5c-0.1-0.5-0.1-1-0.1-1.6c0-0.5,0-1,0-1.5s0-1-0.1-1.5c0-0.5,0-1,0-1.6s0-1,0-1.6
	c-0.1-0.5-0.1-1-0.1-1.6c0-0.5,0-1,0-1.6c0-0.5,0-1,0-1.6c-0.1-0.5-0.1-1-0.1-1.6c0-0.6,0-1.1,0-1.7c0-0.5,0-1,0-1.6
	c0-0.5,0-1.1-0.1-1.7c0-0.5,0-1,0-1.6c0-0.5,0-1,0-1.6c0-0.6,0-1.1,0-1.7c0-0.5,0-1,0-1.6c0-0.5,0-1,0-1.6c-0.1-0.5-0.1-1.1-0.1-1.7
	c0-0.5,0-1,0-1.6c0-0.5,0-1,0-1.6c0-0.5,0-1,0-1.5c0-0.5,0-1,0-1.6c0-0.5,0-1,0-1.6c0-0.5,0-1,0-1.5c0-0.5,0-1,0-1.5
	c0-0.5,0-1,0-1.5c0-0.5,0-1,0-1.5c0.1-0.5,0.1-0.9,0.1-1.4c0-0.5,0-0.9,0-1.4c0-0.5,0-0.9,0-1.4c0-0.5,0-0.9,0-1.3
	c0-0.5,0-0.9,0-1.4c0-0.4,0-0.8,0.1-1.2c0-0.5,0-0.9,0-1.3c0-0.4,0-0.8,0-1.2c0-0.4,0-0.8,0.1-1.2c0-0.3,0-0.7,0-1.1
	c0-0.3,0-0.7,0-1.1c0.1-0.4,0.1-0.7,0.1-1c0-0.4,0-0.7,0-1c0.1-0.3,0.1-0.7,0.1-1c0-0.4,0-0.7,0-1c0.1-0.3,0.1-0.6,0.1-1
	c0-0.3,0-0.6,0-0.8c0.1-0.3,0.1-0.6,0.1-0.9c0-0.2,0-0.5,0.1-0.7c0-0.2,0-0.5,0-0.8c0.1-0.2,0.1-0.4,0.1-0.6
	c0.1-0.2,0.1-0.4,0.1-0.6c0-0.2,0-0.4,0.1-0.5c0-0.2,0-0.3,0.1-0.4c0-0.2,0-0.3,0-0.4c0.1-0.1,0.1-0.2,0.1-0.4
	c0.1-0.1,0.1-0.2,0.1-0.3c0.1-0.1,0.1-0.1,0.1-0.2c0.1-0.1,0.1-0.1,0.1-0.2l0.1-0.1c0.1-0.1,0.2-0.2,0.3-0.3
	c0.1-0.1,0.2-0.1,0.2-0.2c0.1-0.1,0.2-0.1,0.4-0.2c0.1-0.1,0.2-0.2,0.3-0.3c0.1-0.1,0.2-0.1,0.4-0.2c0.1-0.1,0.2-0.1,0.4-0.2
	c0.2-0.1,0.3-0.1,0.5-0.2c0.2-0.1,0.3-0.1,0.5-0.2c0.2-0.1,0.4-0.1,0.6-0.1c0.2-0.1,0.4-0.1,0.6-0.2c0.2-0.1,0.5-0.1,0.7-0.2
	c0.2-0.1,0.5-0.1,0.7-0.1c0.3-0.1,0.5-0.1,0.8-0.2c0.3,0,0.5,0,0.8-0.1c0.3-0.1,0.7-0.1,1-0.1c0.4-0.1,0.7-0.1,1.1-0.1
	c0.4-0.1,0.8-0.1,1.1-0.1c0.4-0.1,0.8-0.1,1.2-0.1c0.4,0,0.9,0,1.3-0.1c0.5,0,1,0,1.5,0c0.5,0,1,0,1.5,0c0.6-0.1,1.2-0.1,1.7-0.1
	c0.5,0,1.1,0,1.7,0c0.7,0,1.3,0,1.9,0c0.7,0,1.4,0,2,0c0.7,0.1,1.4,0.1,2.1,0.1C273.7,487.5,274.4,487.5,275.2,487.5z M272.2,506
	c-0.1,0.1-0.1,0.4-0.1,0.7c0,0.4,0,0.7,0,1c-0.1,0.5-0.1,0.9,0,1.3c0,0.5,0,1,0,1.5c0,0.5,0,0.9,0.1,1.4c0,0.5,0,0.9,0,1.3
	c0.1,0.4,0.1,0.8,0.1,1.1c-0.1,0.4,0,0.7,0.1,0.8c0.1,0.1,0.4,0.1,0.7,0c0.3-0.1,0.7-0.1,1-0.1c0.4-0.1,0.8-0.2,1.1-0.3
	c0.4-0.2,0.7-0.3,1.1-0.5c0.4-0.2,0.7-0.5,1-0.9c0.3-0.3,0.5-0.6,0.6-1c0.2-0.5,0.2-0.9,0.2-1.4c-0.1-0.5-0.2-1-0.3-1.5
	c-0.2-0.5-0.4-0.9-0.7-1.2c-0.3-0.3-0.6-0.6-1-0.9c-0.3-0.2-0.7-0.4-1.1-0.6c-0.3-0.2-0.7-0.3-1.1-0.3c-0.3-0.1-0.7-0.1-1-0.3
	C272.5,505.9,272.3,505.9,272.2,506z M273.4,540.8c-0.1,0.1-0.1,0.2,0,0.4c0.1,0.2,0.1,0.4,0,0.6c0,0.2,0,0.5,0,0.8
	c0.1,0.3,0.1,0.6,0.1,0.9c0,0.3,0,0.7,0,1c0,0.4,0,0.7,0,1.1c0,0.4,0,0.8,0.1,1.1c0,0.5,0,0.9,0,1.3c0,0.5,0,0.9,0.1,1.4
	c0,0.5,0,0.9,0,1.4c0,0.5,0,0.9,0.1,1.4c0,0.5,0,1,0,1.5c0,0.5,0,1,0.1,1.5c0,0.5,0,0.9,0,1.4c0.1,0.5,0.1,1,0.1,1.5
	c0,0.4,0,0.8,0.1,1.3c0,0.5,0,0.9,0,1.4c0.1,0.4,0.1,0.8,0.1,1.2c0,0.4,0,0.8,0.1,1.2c0,0.4,0,0.8,0,1.1c0.1,0.3,0.1,0.7,0.1,1
	c0,0.3,0,0.6,0.1,0.9c0,0.3,0,0.6,0,0.8c0.1,0.2,0.1,0.4,0.1,0.6c-0.1,0.2,0,0.3,0.1,0.3c0.1,0.1,0.2,0.1,0.3,0.1c0.2,0,0.4,0,0.6,0
	c0.2,0.1,0.5,0.1,0.7,0c0.3-0.1,0.5-0.1,0.8-0.1c0.3-0.1,0.6-0.1,0.9-0.2c0.3-0.1,0.7-0.1,1-0.2c0.3-0.1,0.7-0.2,1.1-0.3
	c0.3-0.1,0.7-0.3,1-0.4c0.4-0.2,0.7-0.3,1.1-0.5c0.3-0.2,0.7-0.5,1-0.7c0.3-0.3,0.6-0.6,0.9-0.9c0.3-0.3,0.6-0.6,0.8-1
	c0.3-0.3,0.5-0.7,0.7-1.1c0.2-0.5,0.4-0.9,0.7-1.4c0.2-0.5,0.3-1,0.4-1.5c0.1-0.6,0.2-1.2,0.2-1.8c0-0.6,0-1.3,0-1.9
	c-0.1-0.7-0.1-1.4-0.2-2.1c-0.1-0.6-0.2-1.3-0.3-1.9c-0.1-0.6-0.2-1.2-0.4-1.8c-0.2-0.5-0.4-1-0.6-1.6c-0.2-0.5-0.4-0.9-0.7-1.4
	c-0.3-0.4-0.5-0.8-0.8-1.2c-0.2-0.3-0.5-0.7-0.8-1c-0.3-0.3-0.5-0.7-0.8-1c-0.3-0.3-0.7-0.6-1-0.8c-0.3-0.2-0.6-0.5-0.9-0.7
	c-0.3-0.2-0.6-0.4-0.9-0.6c-0.3-0.1-0.7-0.3-1-0.4c-0.3-0.1-0.6-0.2-0.9-0.4c-0.3-0.1-0.5-0.2-0.8-0.3c-0.3-0.1-0.5-0.1-0.8-0.2
	c-0.2-0.1-0.5-0.1-0.7-0.2c-0.2,0-0.4,0-0.6,0c-0.2,0.1-0.4,0.1-0.6,0C273.6,540.7,273.4,540.7,273.4,540.8z"/>
<path fill="#020202" d="M318.3,489.7c0.1-0.1,0.1-0.1,0.2-0.2c0.1,0,0.2,0,0.3-0.1c0.2-0.1,0.3-0.1,0.4-0.2c0.2,0,0.4,0,0.6-0.1
	c0.2-0.1,0.4-0.1,0.6-0.2c0.3,0,0.5,0,0.7-0.1c0.3-0.1,0.5-0.1,0.8-0.2c0.3,0,0.6,0,0.9-0.1c0.3-0.1,0.7-0.1,1-0.1
	c0.3-0.1,0.7-0.1,1.1-0.2c0.3,0,0.7,0,1.1-0.1c0.4-0.1,0.8-0.1,1.2-0.1c0.4-0.1,0.8-0.1,1.2-0.1c0.4-0.1,0.8-0.1,1.2-0.2
	c0.4,0,0.9,0,1.3-0.1c0.5,0,0.9,0,1.4-0.1c0.4,0,0.9,0,1.4-0.1c0.5,0,0.9,0,1.4,0c0.5-0.1,1-0.1,1.5-0.1c0.5-0.1,1-0.1,1.5-0.1
	c0.5,0,1,0,1.5-0.1c0.5,0,1,0,1.5,0c0.5,0,1,0,1.5-0.1c0.5,0,1,0,1.5,0c0.5,0,0.9,0,1.4,0c0.5,0,1,0,1.5-0.1c0.5,0,0.9,0,1.4,0
	c0.5,0,0.9,0,1.4,0c0.5,0,0.9,0,1.4,0.1c0.4,0,0.9,0,1.3,0c0.4,0,0.8,0,1.2,0c0.4,0,0.8,0,1.2,0.1c0.4,0,0.8,0,1.2,0
	c0.3,0.1,0.7,0.1,1.1,0.1c0.3,0,0.7,0,1.1,0.1c0.3,0,0.6,0,0.9,0.1c0.3,0,0.6,0,0.9,0.1c0.3,0.1,0.5,0.1,0.8,0.1
	c0.2,0.1,0.5,0.1,0.7,0.2c0.2,0,0.4,0,0.6,0.1c0.2,0.1,0.3,0.1,0.5,0.2c0.2,0.1,0.3,0.1,0.4,0.2c0.1,0.1,0.2,0.1,0.3,0.2
	c0.1,0.1,0.1,0.1,0.2,0.2c0.1,0.2,0.2,0.3,0.2,0.5c0.1,0.2,0.2,0.5,0.2,0.8c0.1,0.3,0.2,0.6,0.2,0.9c0.1,0.4,0.1,0.7,0.2,1.1
	c0.1,0.3,0.1,0.7,0.2,1.1c0.1,0.5,0.1,0.9,0.2,1.3c0.1,0.5,0.1,0.9,0.2,1.4c0,0.5,0,1,0.1,1.5c0,0.5,0,1,0.1,1.5c0,0.5,0,1,0.1,1.5
	c0,0.5,0,0.9,0,1.4c0,0.5,0,1,0,1.5c0,0.5,0,0.9,0,1.4c0,0.4,0,0.8-0.1,1.2c0,0.4,0,0.8,0,1.2c-0.1,0.4-0.1,0.7-0.2,1
	c0,0.3,0,0.6-0.1,0.9c-0.1,0.3-0.1,0.6-0.2,0.8c-0.1,0.2-0.1,0.3-0.2,0.5c-0.1,0.1-0.1,0.2-0.2,0.3c-0.2,0.1-0.3,0.2-0.5,0.3
	c-0.3,0.1-0.5,0.1-0.8,0.1c-0.4,0.1-0.8,0.1-1.1,0.1c-0.4,0-0.8,0-1.2,0c-0.5,0-1,0-1.5,0c-0.5-0.1-1-0.1-1.5-0.1
	c-0.5-0.1-1-0.1-1.5-0.1c-0.5-0.1-0.9-0.1-1.4-0.2c-0.4,0-0.9,0-1.3-0.1c-0.4-0.1-0.8-0.1-1.1-0.1c-0.3-0.1-0.6-0.1-0.9-0.1
	c-0.2,0-0.4,0-0.6-0.1c-0.1,0-0.1,0-0.2,0v0.1c0,0.1,0,0.1,0,0.2c0,0.1,0,0.2,0,0.3c0,0.2,0,0.4,0,0.5s0,0.4,0,0.6
	c0,0.2,0,0.5,0,0.7c-0.1,0.3-0.1,0.6-0.1,0.9s0,0.6,0,1c0,0.3,0,0.6,0,1c0,0.4,0,0.8,0,1.1c0,0.4,0,0.8,0,1.2c0,0.4,0,0.8,0,1.2
	c0,0.5,0,0.9,0,1.3c0,0.5,0,0.9,0,1.4c0.1,0.5,0.1,0.9,0.1,1.4c0,0.5,0,1,0,1.5c0,0.5,0,1,0,1.5c0,0.5,0,1,0,1.5c0,0.5,0,1,0,1.5
	c0,0.5,0,1,0.1,1.6c0,0.5,0,1,0,1.6c0,0.5,0,1,0,1.5c0,0.5,0,1,0.1,1.5c0,0.5,0,1,0,1.5c0,0.5,0,1,0.1,1.5c0,0.6,0,1.2,0.1,1.8
	c0,0.6,0,1.2,0.1,1.8c0,0.6,0,1.2,0.1,1.7c0,0.6,0,1.2,0.1,1.8c0,0.5,0,1.1,0.1,1.7c0.1,0.5,0.1,1,0.2,1.6c0,0.5,0,1,0.1,1.6
	c0.1,0.5,0.1,1,0.2,1.5c0,0.5,0,0.9,0.1,1.4c0.1,0.5,0.1,0.9,0.2,1.4c0,0.4,0,0.8,0.1,1.3c0.1,0.4,0.1,0.8,0.2,1.1
	c0,0.4,0,0.8,0.1,1.1c0.1,0.3,0.1,0.7,0.2,1.1c0,0.3,0,0.6,0.1,1c0.1,0.3,0.1,0.6,0.1,0.9c0.1,0.2,0.1,0.5,0.2,0.8
	c0,0.2,0,0.5,0.1,0.7c0,0.2,0,0.4,0.1,0.6c0,0.1,0,0.3,0,0.4c0.1,0.2,0.1,0.3,0.1,0.4c0,0.1,0,0.1,0.1,0.3c0,0.1,0,0.1,0,0.2v0.1
	c0.1,0,0.1,0,0.2-0.1c0.2,0,0.4,0,0.6-0.1c0.3-0.1,0.6-0.1,0.9-0.2c0.4-0.1,0.7-0.1,1.1-0.2c0.4-0.1,0.9-0.1,1.3-0.2
	c0.5-0.1,0.9-0.1,1.4-0.2c0.5-0.1,1-0.1,1.5-0.2c0.5,0,1,0,1.5-0.1c0.5,0,1,0,1.5,0c0.4,0,0.8,0,1.2,0c0.4,0.1,0.8,0.1,1.1,0.2
	c0.3,0.1,0.6,0.1,0.9,0.3c0.2,0.1,0.4,0.2,0.6,0.3c0.1,0.1,0.1,0.3,0.2,0.4c0.1,0.2,0.2,0.3,0.2,0.5c0.1,0.2,0.1,0.5,0.2,0.8
	c0.1,0.3,0.1,0.6,0.2,0.9c0.1,0.3,0.1,0.7,0.2,1c0.1,0.4,0.1,0.8,0.1,1.2c0.1,0.4,0.1,0.8,0.2,1.2c0,0.5,0,0.9,0.1,1.4
	c0,0.5,0,0.9,0.1,1.4c0,0.5,0,1,0.1,1.5c0,0.5,0,1,0,1.6c0,0.5,0,1,0,1.5c0,0.5,0,1,0,1.5c0,0.5,0,1,0,1.5c0,0.5,0,1-0.1,1.5
	c0,0.5,0,0.9-0.1,1.3c0,0.5,0,0.9-0.1,1.3c0,0.4,0,0.8-0.1,1.1c-0.1,0.4-0.1,0.8-0.1,1.1c-0.1,0.3-0.1,0.6-0.2,0.9
	c-0.1,0.2-0.1,0.5-0.2,0.8c-0.1,0.2-0.1,0.3-0.2,0.5c-0.1,0.2-0.1,0.3-0.2,0.4c-0.1,0.1-0.1,0.1-0.2,0.2c-0.1,0-0.2,0-0.3,0.1
	c-0.1,0.1-0.2,0.1-0.3,0.1c-0.2,0.1-0.3,0.1-0.5,0.1c-0.2,0.1-0.4,0.1-0.6,0.2c-0.2,0-0.4,0-0.6,0.1c-0.3,0-0.5,0-0.7,0.1
	c-0.3,0-0.5,0-0.8,0.1c-0.3,0-0.6,0-0.9,0c-0.3,0.1-0.7,0.1-1,0.1c-0.3,0.1-0.7,0.1-1.1,0.1c-0.3,0-0.7,0-1.1,0.1
	c-0.4,0-0.8,0-1.1,0c-0.4,0.1-0.8,0.1-1.2,0.1c-0.4,0-0.8,0-1.2,0c-0.4,0.1-0.9,0.1-1.3,0.1c-0.4,0-0.9,0-1.3,0
	c-0.4,0.1-0.9,0.1-1.4,0.1c-0.4,0-0.9,0-1.4,0c-0.4,0-0.9,0-1.4,0c-0.5,0-1,0-1.5,0c-0.5,0-1,0-1.5,0.1c-0.5,0-1,0-1.5,0
	c-0.5,0-1,0-1.5,0c-0.5,0-1,0-1.5,0c-0.5,0-1.1,0-1.5,0c-0.5,0-1,0-1.5-0.1c-0.5,0-1,0-1.5,0c-0.5,0-1,0-1.5,0s-1,0-1.5,0
	c-0.4,0-0.9,0-1.4-0.1c-0.5,0-0.9,0-1.4,0c-0.5,0-0.9,0-1.4,0c-0.4-0.1-0.9-0.1-1.3-0.1c-0.4,0-0.9,0-1.3,0
	c-0.4-0.1-0.8-0.1-1.2-0.1c-0.4,0-0.8,0-1.2-0.1c-0.4,0-0.8,0-1.1,0c-0.4-0.1-0.7-0.1-1.1-0.1c-0.4,0-0.7,0-1.1-0.1
	c-0.3,0-0.7,0-1,0c-0.3-0.1-0.5-0.1-0.8-0.1c-0.3-0.1-0.5-0.1-0.8-0.1c-0.3-0.1-0.5-0.1-0.7-0.1c-0.2-0.1-0.4-0.1-0.7-0.1
	c-0.2-0.1-0.4-0.1-0.6-0.1c-0.2-0.1-0.3-0.1-0.5-0.1c-0.1-0.1-0.2-0.1-0.3-0.1c-0.1-0.1-0.2-0.1-0.3-0.1c-0.1-0.1-0.1-0.1-0.2-0.2
	c-0.1-0.1-0.1-0.2-0.2-0.4c-0.1-0.2-0.2-0.3-0.2-0.5c-0.1-0.3-0.1-0.6-0.2-0.8c-0.1-0.3-0.1-0.7-0.2-1c-0.1-0.4-0.1-0.8-0.2-1.1
	c0-0.4,0-0.8-0.1-1.2c-0.1-0.5-0.1-0.9-0.1-1.4c-0.1-0.5-0.1-0.9-0.1-1.4c0-0.5,0-1,0-1.6c-0.1-0.5-0.1-1-0.1-1.5c0-0.6,0-1.1,0-1.7
	c0-0.5,0-1,0.1-1.6c0-0.5,0-1,0-1.5c0.1-0.5,0.1-1,0.1-1.5c0.1-0.5,0.1-1,0.2-1.5c0-0.5,0-0.9,0.1-1.3c0.1-0.4,0.1-0.8,0.2-1.2
	c0.1-0.4,0.1-0.8,0.2-1.1c0.1-0.3,0.1-0.6,0.2-0.9c0.1-0.3,0.1-0.6,0.2-0.8c0.1-0.2,0.1-0.3,0.2-0.5c0.1-0.2,0.2-0.3,0.3-0.3
	c0.2-0.1,0.4-0.2,0.7-0.3c0.3-0.1,0.7-0.2,1-0.2c0.4-0.1,0.8-0.1,1.1,0c0.4,0,0.9,0,1.3,0c0.5,0.1,0.9,0.1,1.4,0.2
	c0.5,0.1,0.9,0.1,1.4,0.2c0.4,0.1,0.9,0.1,1.3,0.2c0.4,0.1,0.9,0.1,1.3,0.3c0.3,0.1,0.7,0.1,1.1,0.2c0.3,0.1,0.5,0.1,0.8,0.2
	c0.2,0.1,0.4,0.1,0.6,0.2c0.1,0,0.1,0,0.2,0v-0.1c0-0.1,0-0.1,0-0.2c0.1-0.1,0.1-0.1,0.1-0.3c0-0.1,0-0.3,0-0.4
	c0.1-0.2,0.1-0.3,0.1-0.5s0-0.4,0.1-0.6c0-0.2,0-0.5,0.1-0.7c0-0.3,0-0.6,0.1-0.8c0-0.3,0-0.6,0.1-1c0-0.3,0-0.6,0.1-1
	c0-0.4,0-0.7,0.1-1c0.1-0.4,0.1-0.8,0.1-1.1c0.1-0.5,0.1-0.9,0.2-1.3c0-0.4,0-0.8,0.1-1.2c0.1-0.5,0.1-0.9,0.1-1.4
	c0.1-0.5,0.1-1,0.2-1.5c0-0.5,0-1,0.1-1.5c0-0.5,0-1,0.1-1.6c0.1-0.5,0.1-1,0.1-1.6c0.1-0.5,0.1-1.1,0.1-1.7
	c0.1-0.6,0.1-1.1,0.2-1.7c0-0.6,0-1.2,0.1-1.7c0-0.6,0-1.2,0.1-1.8c0-0.6,0-1.2,0-1.7c0.1-0.6,0.1-1.3,0.1-1.8
	c0.1-0.7,0.1-1.4,0.1-2.1c0-0.6,0-1.3,0.1-1.9c0-0.6,0-1.3,0-1.9c0-0.6,0-1.3,0.1-1.8c0-0.6,0-1.2,0-1.7c0-0.6,0-1.2,0-1.7
	c0-0.5,0-1,0.1-1.6c0-0.5,0-1,0-1.5c0-0.5,0-1,0-1.5c0-0.4,0-0.8,0-1.3c0-0.4,0-0.8,0-1.3c0-0.3,0-0.7,0-1.1c0-0.3,0-0.7,0-1
	s0-0.7,0-1c0-0.4,0-0.7,0-1c0-0.2,0-0.5,0-0.8c0-0.2,0-0.5,0-0.7c0-0.2,0-0.3,0-0.5c0-0.2,0-0.3-0.1-0.5c0-0.1,0-0.2,0-0.3
	c0-0.1,0-0.2,0-0.3c0-0.1,0-0.1,0-0.2v-0.1c-0.1,0-0.1,0-0.2,0c-0.2,0.1-0.3,0.1-0.5,0.2c-0.2,0-0.5,0-0.7,0.1
	c-0.3,0.1-0.6,0.1-0.9,0.2c-0.4,0.1-0.8,0.1-1.1,0.2c-0.4,0.1-0.8,0.1-1.2,0.2c-0.4,0.1-0.9,0.1-1.3,0.1c-0.4,0.1-0.9,0.1-1.4,0.1
	c-0.4,0-0.9,0-1.3,0c-0.4,0-0.8,0-1.2,0c-0.4-0.1-0.8-0.1-1.1-0.2c-0.3-0.1-0.7-0.2-1-0.3c-0.3-0.1-0.6-0.3-0.8-0.4
	c-0.2-0.2-0.4-0.4-0.5-0.6c-0.1-0.1-0.2-0.3-0.2-0.5c-0.1-0.2-0.1-0.5-0.2-0.7c-0.1-0.3-0.1-0.6-0.2-1c0-0.4,0-0.7-0.1-1
	c0-0.4,0-0.8-0.1-1.2c0-0.4,0-0.8,0-1.3c0-0.5,0-0.9,0-1.4c0-0.5,0-0.9,0-1.4c0.1-0.5,0.1-1,0.1-1.5c0.1-0.5,0.1-1,0.1-1.5
	c0.1-0.5,0.1-1,0.2-1.5c0.1-0.5,0.1-1,0.2-1.5c0.1-0.4,0.1-0.8,0.2-1.3c0.1-0.5,0.1-0.9,0.2-1.3c0.1-0.4,0.1-0.8,0.2-1.1
	c0.1-0.4,0.2-0.7,0.2-1c0.1-0.3,0.2-0.6,0.3-0.8c0.1-0.2,0.1-0.5,0.2-0.7C318.1,490,318.2,489.8,318.3,489.7z"/>
<path fill="#020202" d="M375,587.7C375,587.7,375,587.7,375,587.7c-0.1-0.1-0.1-0.2-0.2-0.3c0-0.1,0-0.2-0.1-0.3
	c0-0.1,0-0.2-0.1-0.3c0-0.1,0-0.2-0.1-0.3c0-0.2,0-0.3,0-0.4c-0.1-0.2-0.1-0.3-0.1-0.5c-0.1-0.2-0.1-0.3-0.1-0.5s0-0.4-0.1-0.6
	c0-0.2,0-0.4-0.1-0.6c0-0.2,0-0.5,0-0.7c-0.1-0.3-0.1-0.6-0.1-0.8c0-0.3,0-0.6-0.1-0.8c0-0.3,0-0.6,0-0.9c0-0.3,0-0.6-0.1-1
	c0-0.3,0-0.6,0-0.9c0-0.4,0-0.7-0.1-1c0-0.3,0-0.7,0-1s0-0.7-0.1-1c0-0.3,0-0.7,0-1.1c0-0.3,0-0.7,0-1.1c-0.1-0.4-0.1-0.8-0.1-1.2
	c0-0.4,0-0.8,0-1.2s0-0.8,0-1.2c0-0.5,0-0.9-0.1-1.3c0-0.5,0-0.9,0-1.3c0-0.5,0-0.9,0-1.4c0-0.5,0-0.9,0-1.4c0-0.5,0-0.9,0-1.4
	c0-0.5,0-0.9-0.1-1.4c0-0.5,0-1,0-1.5c0-0.5,0-1,0-1.5c0-0.5,0-1,0-1.5c0-0.5,0-1,0-1.5c0-0.5,0-1,0-1.6c0-0.5,0-1,0-1.5
	c0-0.5,0-1,0-1.6c0-0.5,0-1,0-1.6c0-0.5,0-1,0-1.6s0-1,0.1-1.6c0-0.6,0-1.1,0-1.7c0-0.5,0-1,0-1.6c0-0.5,0-1,0-1.6
	c0-0.6,0-1.1,0-1.7c0-0.5,0-1,0-1.6c0.1-0.5,0.1-1.1,0.1-1.7c0-0.5,0-1,0-1.6c0-0.5,0-1,0-1.6c0-0.5,0-1.1,0.1-1.7c0-0.5,0-1,0-1.6
	c0-0.5,0-1,0-1.6c0-0.5,0-1,0.1-1.6c0-0.5,0-1,0-1.6c0-0.5,0-1,0-1.5c0.1-0.5,0.1-1,0.1-1.6c0-0.5,0-1,0-1.5c0-0.5,0-1,0.1-1.5
	c0-0.5,0-1,0-1.5c0-0.5,0-1,0.1-1.5c0-0.5,0-0.9,0-1.4c0-0.5,0-1,0.1-1.5c0-0.5,0-0.9,0-1.3c0-0.5,0-0.9,0.1-1.4c0-0.5,0-0.9,0-1.3
	c0-0.5,0-0.9,0.1-1.3c0-0.4,0-0.8,0-1.3c0.1-0.4,0.1-0.8,0.1-1.2c0-0.4,0-0.8,0.1-1.1c0-0.4,0-0.8,0-1.2c0-0.3,0-0.7,0.1-1.1
	c0-0.4,0-0.7,0-1c0.1-0.4,0.1-0.7,0.1-1c0-0.3,0-0.7,0.1-1c0-0.4,0-0.7,0-1c0.1-0.3,0.1-0.7,0.1-1c0-0.3,0-0.6,0.1-0.9
	c0-0.2,0-0.5,0.1-0.8c0-0.2,0-0.5,0-0.8c0.1-0.2,0.1-0.5,0.1-0.7c0-0.2,0-0.4,0.1-0.6c0-0.2,0-0.4,0.1-0.6c0-0.2,0-0.4,0-0.5
	c0.1-0.2,0.1-0.3,0.1-0.5c0-0.1,0-0.3,0.1-0.4c0-0.1,0-0.2,0.1-0.4c0-0.1,0-0.2,0-0.4c0.1-0.1,0.1-0.1,0.1-0.2c0-0.1,0-0.1,0.1-0.2
	c0-0.1,0-0.1,0.1-0.1c0.1-0.1,0.1-0.2,0.2-0.3c0.1-0.1,0.1-0.2,0.2-0.3c0.1-0.1,0.2-0.1,0.2-0.2c0.1-0.1,0.2-0.1,0.3-0.2
	c0.2-0.1,0.3-0.1,0.4-0.2c0.2-0.1,0.3-0.2,0.4-0.2c0.2-0.1,0.3-0.1,0.5-0.2c0.2-0.1,0.3-0.1,0.5-0.2c0.2-0.1,0.4-0.1,0.6-0.2
	c0.2,0,0.4,0,0.7-0.1c0.3-0.1,0.5-0.1,0.7-0.1c0.3-0.1,0.5-0.1,0.8-0.1c0.3-0.1,0.5-0.1,0.8-0.1c0.3-0.1,0.7-0.1,1-0.1
	c0.3-0.1,0.7-0.1,1.1-0.1c0.4,0,0.8,0,1.1-0.1c0.4,0,0.8,0,1.2,0c0.4-0.1,0.9-0.1,1.4-0.1c0.4,0,0.9,0,1.4,0c0.5,0,1.1,0,1.6,0
	c0.5,0,1.1,0,1.6,0c0.6,0,1.2,0,1.8,0c0.7,0,1.3,0,2,0c0.7,0,1.4,0,2.1,0c0.7,0,1.4,0,2.2,0.1c0.8,0,1.5,0,2.4,0
	c0.4,0,0.9,0,1.4,0.1c0.4,0,0.9,0,1.4,0.1c0.4,0,0.9,0,1.3,0.1c0.4,0,0.9,0,1.3,0.1c0.4,0.1,0.9,0.1,1.3,0.2
	c0.4,0.1,0.9,0.1,1.3,0.2c0.4,0.1,0.9,0.1,1.3,0.3c0.4,0.1,0.8,0.1,1.2,0.3c0.4,0.1,0.8,0.1,1.1,0.3c0.4,0.1,0.8,0.2,1.2,0.3
	c0.4,0.1,0.8,0.2,1.1,0.3c0.4,0.1,0.8,0.3,1.1,0.4c0.4,0.1,0.7,0.2,1.1,0.4c0.4,0.2,0.7,0.3,1.1,0.4c0.4,0.2,0.7,0.4,1.1,0.5
	c0.4,0.1,0.7,0.3,1.1,0.4s0.7,0.3,1,0.5c0.3,0.2,0.7,0.4,1,0.6c0.3,0.2,0.6,0.3,0.9,0.5c0.3,0.2,0.6,0.5,0.9,0.7
	c0.3,0.2,0.6,0.4,0.9,0.6c0.3,0.2,0.5,0.5,0.8,0.7c0.3,0.2,0.5,0.5,0.8,0.7c0.3,0.2,0.5,0.5,0.8,0.8c0.3,0.2,0.5,0.5,0.7,0.8
	c0.3,0.2,0.5,0.5,0.7,0.8c0.2,0.3,0.4,0.6,0.7,0.9c0.3,0.3,0.5,0.6,0.7,0.9c0.2,0.3,0.4,0.6,0.6,0.9c0.2,0.3,0.4,0.6,0.6,1
	c0.2,0.3,0.4,0.6,0.6,1c0.2,0.4,0.4,0.7,0.6,1c0.2,0.4,0.3,0.7,0.5,1c0.2,0.3,0.3,0.7,0.4,1c0.2,0.4,0.3,0.7,0.5,1
	c0.1,0.4,0.2,0.8,0.3,1.2c0.2,0.3,0.3,0.7,0.4,1.1c0.1,0.4,0.2,0.8,0.3,1.2c0.1,0.4,0.1,0.8,0.2,1.2c0.1,0.4,0.2,0.8,0.2,1.3
	c0.1,0.4,0.1,0.8,0.2,1.2c0.1,0.5,0.1,0.9,0.2,1.4c0.1,0.5,0.1,0.9,0.1,1.4c0.1,0.5,0.1,0.9,0.1,1.4c0.1,0.5,0.1,0.9,0.1,1.4
	c0,0.6,0,1.3,0,1.8c0,0.6,0,1.2-0.1,1.7c-0.1,0.6-0.1,1.2-0.2,1.8c-0.1,0.5-0.1,1-0.2,1.6c-0.1,0.5-0.1,1-0.2,1.6
	c-0.1,0.5-0.2,1-0.4,1.5c-0.2,0.5-0.3,1-0.4,1.5c-0.2,0.5-0.4,0.9-0.6,1.4c-0.2,0.4-0.4,0.8-0.6,1.3c-0.2,0.4-0.4,0.8-0.6,1.3
	c-0.2,0.4-0.5,0.8-0.7,1.1c-0.2,0.4-0.4,0.8-0.7,1.2c-0.3,0.3-0.5,0.7-0.8,1c-0.3,0.4-0.5,0.8-0.8,1.1c-0.3,0.3-0.5,0.6-0.8,1
	c-0.3,0.3-0.6,0.7-0.9,1c-0.3,0.3-0.7,0.6-1,0.9c-0.3,0.3-0.6,0.6-0.9,0.9c-0.3,0.3-0.7,0.6-1,0.9c-0.3,0.2-0.7,0.5-1,0.7
	c-0.4,0.3-0.7,0.6-1.1,0.8c-0.3,0.2-0.7,0.4-1.1,0.6c-0.3,0.2-0.7,0.5-1,0.7c-0.4,0.2-0.7,0.4-1.1,0.6c-0.4,0.2-0.7,0.4-1.1,0.5
	c-0.4,0.2-0.7,0.3-1.1,0.5c-0.4,0.2-0.7,0.4-1.1,0.5c-0.4,0.1-0.7,0.3-1.1,0.4c-0.4,0.1-0.7,0.3-1.1,0.4c-0.4,0.1-0.7,0.2-1.1,0.4
	c-0.3,0.1-0.7,0.2-1.1,0.3c-0.3,0.1-0.7,0.2-1,0.3c-0.3,0.1-0.7,0.1-1,0.3c-0.3,0.1-0.7,0.2-1,0.3c-0.3,0.1-0.6,0.1-0.9,0.3
	c-0.3,0.1-0.6,0.1-0.9,0.2c-0.3,0.1-0.6,0.1-0.9,0.2c-0.3,0.1-0.5,0.1-0.8,0.2c-0.3,0.1-0.5,0.1-0.8,0.1c-0.3,0.1-0.5,0.1-0.7,0.2
	c-0.2,0-0.5,0-0.7,0.1c-0.2,0-0.4,0-0.7,0.1c-0.2,0-0.4,0-0.6,0c-0.2,0.1-0.3,0.1-0.5,0.1c-0.2,0.1-0.3,0.1-0.5,0
	c-0.3-0.1-0.4-0.1-0.4,0c-0.1,0.3,0,0.7,0.1,1.1c0.1,0.3,0.1,0.7,0.1,1.1c0,0.4,0,0.8,0.1,1.2c0.1,0.4,0.1,0.8,0.2,1.2
	c0,0.4,0,0.8,0.1,1.2c0.1,0.5,0.1,0.9,0.2,1.3c0,0.5,0,0.9,0.1,1.3c0.1,0.4,0.1,0.8,0.2,1.3c0,0.4,0,0.8,0.1,1.3
	c0.1,0.5,0.1,0.9,0.1,1.3c0.1,0.5,0.1,0.9,0.2,1.3c0,0.5,0,0.9,0.1,1.3c0.1,0.5,0.1,0.9,0.1,1.4c0.1,0.4,0.1,0.8,0.1,1.2
	c0.1,0.5,0.1,0.9,0.1,1.3c0,0.4,0,0.8,0.1,1.3c0,0.4,0,0.8,0,1.2s0,0.8,0.1,1.2c0,0.4,0,0.8,0,1.1c0,0.4,0,0.8-0.1,1.2
	c0,0.3,0,0.7,0,1c0,0.3,0,0.7-0.1,1c0,0.4,0,0.7-0.1,1c-0.1,0.3-0.1,0.6-0.1,1c-0.1,0.3-0.1,0.6-0.2,0.9c-0.1,0.3-0.1,0.6-0.2,0.9
	c-0.1,0.2-0.2,0.5-0.2,0.8c-0.1,0.2-0.1,0.5-0.2,0.7c-0.1,0.2-0.2,0.4-0.3,0.6c-0.1,0.2-0.2,0.3-0.3,0.5c-0.1,0.2-0.2,0.3-0.3,0.5
	c-0.1,0.1-0.2,0.2-0.4,0.4c-0.2,0.1-0.3,0.2-0.5,0.3c-0.2,0.1-0.4,0.2-0.6,0.3c-0.3,0.1-0.5,0.2-0.7,0.3c-0.3,0.1-0.6,0.1-0.9,0.2
	c-0.3,0.1-0.6,0.1-0.9,0.2c-0.4,0.1-0.7,0.1-1.1,0.1c-0.4,0.1-0.8,0.1-1.1,0.2c-0.4,0-0.8,0-1.2,0c-0.4,0.1-0.8,0.1-1.2,0.1
	c-0.4,0-0.9,0-1.3,0c-0.4,0-0.9,0-1.3,0c-0.5,0-0.9,0-1.4,0c-0.4,0-0.9,0-1.4-0.1c-0.4,0-0.9,0-1.4,0c-0.4-0.1-0.9-0.1-1.3-0.1
	c-0.5-0.1-0.9-0.1-1.4-0.2c-0.4,0-0.9,0-1.3-0.1c-0.4-0.1-0.8-0.1-1.2-0.1c-0.4-0.1-0.8-0.1-1.2-0.2c-0.4-0.1-0.8-0.1-1.1-0.2
	c-0.4-0.1-0.7-0.1-1.1-0.2c-0.3-0.1-0.7-0.1-1-0.2c-0.3-0.1-0.6-0.1-0.9-0.2c-0.3-0.1-0.5-0.1-0.7-0.2c-0.2-0.1-0.4-0.1-0.7-0.3
	c-0.2-0.1-0.3-0.1-0.5-0.2C375.3,587.9,375.1,587.8,375,587.7z M414.2,520.2c0-0.6,0-1.3,0-1.8c-0.1-0.6-0.1-1.1-0.2-1.7
	c-0.1-0.5-0.2-1-0.4-1.5c-0.2-0.5-0.4-0.9-0.7-1.3c-0.2-0.4-0.5-0.8-0.7-1.2c-0.3-0.4-0.5-0.7-0.8-1c-0.3-0.3-0.7-0.6-1-0.9
	c-0.3-0.2-0.7-0.5-1-0.7c-0.4-0.2-0.7-0.4-1.1-0.6c-0.4-0.2-0.7-0.4-1.1-0.5c-0.4-0.1-0.8-0.2-1.1-0.3c-0.3-0.1-0.7-0.2-1-0.4
	c-0.4-0.1-0.7-0.1-1.1-0.2c-0.3-0.1-0.6-0.1-0.9-0.2c-0.3,0-0.5,0-0.8-0.1c-0.2,0-0.5,0-0.7,0c-0.2,0.1-0.3,0.1-0.5,0
	c-0.2-0.1-0.4,0-0.4,0.1c-0.1,0.1-0.1,0.2-0.1,0.3c0.1,0.2,0.1,0.4,0,0.6c0,0.3,0,0.6,0,0.8c0,0.3,0,0.6,0,0.9c0,0.3,0,0.7,0.1,1
	c0,0.4,0,0.7,0,1.1c0,0.4,0,0.8,0.1,1.2c0,0.5,0,0.9,0,1.3c0.1,0.5,0.1,0.9,0.1,1.4c0.1,0.5,0.1,0.9,0.1,1.4c0.1,0.5,0.1,1,0.1,1.5
	c0.1,0.5,0.1,1,0.1,1.5c0.1,0.5,0.1,1,0.1,1.5c0.1,0.5,0.1,1,0.1,1.5c0.1,0.5,0.1,1,0.1,1.5c0.1,0.5,0.1,1,0.1,1.5
	c0.1,0.5,0.1,0.9,0.1,1.3c0.1,0.5,0.1,0.9,0.1,1.4c0.1,0.4,0.1,0.8,0.1,1.2c0,0.4,0,0.7,0.1,1.1c0,0.3,0,0.7,0.1,1
	c0,0.3,0,0.6,0,0.9c0,0.3,0,0.6,0.1,0.8c0.1,0.2,0.1,0.4,0,0.6c-0.1,0.2-0.1,0.4,0,0.5c0.1,0.1,0.2,0.1,0.4,0c0.2,0,0.3,0,0.5,0
	c0.2,0.1,0.4,0.1,0.6,0c0.3-0.1,0.5-0.1,0.7-0.2c0.2-0.1,0.5-0.1,0.7-0.2c0.3-0.1,0.5-0.2,0.7-0.3c0.3-0.1,0.6-0.3,0.9-0.4
	c0.3-0.1,0.5-0.3,0.8-0.4c0.3-0.2,0.6-0.4,0.9-0.6c0.3-0.2,0.5-0.5,0.8-0.7c0.3-0.3,0.5-0.6,0.8-0.9c0.3-0.3,0.5-0.6,0.8-1
	c0.3-0.4,0.5-0.7,0.7-1.1c0.3-0.4,0.5-0.8,0.7-1.2c0.2-0.5,0.4-0.9,0.6-1.4c0.2-0.5,0.4-1,0.6-1.6c0.2-0.6,0.3-1.2,0.4-1.7
	c0.1-0.6,0.2-1.3,0.3-1.9C414,521.6,414.1,520.9,414.2,520.2z"/>
<path fill="#020202" d="M451.6,488.6c0.1-0.1,0.2-0.2,0.4-0.3c0.3-0.1,0.5-0.2,0.7-0.3c0.3-0.1,0.6-0.1,0.9-0.3
	c0.4-0.1,0.7-0.1,1.1-0.2c0.4-0.1,0.8-0.1,1.2-0.2c0.4-0.1,0.9-0.1,1.3-0.2c0.5,0,1,0,1.5-0.1c0.5,0,1,0,1.5-0.1c0.5,0,1,0,1.5,0
	c0.5,0,1.1,0,1.5,0s1,0,1.5,0c0.5,0.1,1,0.1,1.5,0.1s0.9,0,1.4,0.1c0.4,0.1,0.9,0.1,1.3,0.1c0.4,0.1,0.8,0.1,1.1,0.2
	c0.3,0.1,0.7,0.1,1,0.2c0.3,0.1,0.5,0.1,0.8,0.2c0.2,0.1,0.4,0.2,0.7,0.3c0.1,0.1,0.2,0.1,0.3,0.3c0.1,0.1,0.2,0.1,0.2,0.3
	c-0.1,0.4-0.1,0.7-0.2,1c0,0.4,0,0.7-0.1,1c0,0.4,0,0.7-0.1,1c-0.1,0.4-0.1,0.8-0.1,1.1c-0.1,0.3-0.1,0.7-0.2,1c0,0.4,0,0.8-0.1,1.1
	c-0.1,0.4-0.1,0.8-0.1,1.1c-0.1,0.4-0.1,0.8-0.2,1.2c-0.1,0.4-0.1,0.8-0.1,1.1c-0.1,0.4-0.1,0.8-0.2,1.2c-0.1,0.4-0.1,0.8-0.1,1.2
	c-0.1,0.4-0.1,0.8-0.2,1.2c-0.1,0.5-0.1,0.9-0.1,1.3c-0.1,0.4-0.1,0.8-0.2,1.2c0,0.5,0,0.9-0.1,1.3c-0.1,0.4-0.1,0.8-0.2,1.3
	c0,0.4,0,0.8-0.1,1.3c-0.1,0.4-0.1,0.8-0.1,1.3c-0.1,0.4-0.1,0.8-0.1,1.3c-0.1,0.4-0.1,0.8-0.2,1.3c0,0.4,0,0.8-0.1,1.3
	c0,0.4,0,0.8-0.1,1.3c0,0.5,0,0.9-0.1,1.3c0,0.5,0,0.9-0.1,1.4c0,0.4,0,0.8,0,1.3c-0.1,0.4-0.1,0.8-0.1,1.3c0,0.4,0,0.8,0,1.3
	c-0.1,0.5-0.1,0.9-0.1,1.3c0,0.5,0,0.9,0,1.3c0,0.5,0,0.9,0,1.3c0,0.4,0,0.8,0,1.3c0,0.4,0,0.8,0,1.2c0,0.5,0,0.9,0.1,1.3
	c0,0.4,0,0.8,0,1.2c0,0.4,0,0.8,0.1,1.3c0,0.4,0,0.8,0.1,1.2c0,0.3,0,0.7,0.1,1.1c0.1,0.4,0.1,0.8,0.1,1.2c0.1,0.4,0.1,0.8,0.2,1.1
	c0.1,0.4,0.1,0.8,0.1,1.2c0.1,0.3,0.1,0.7,0.2,1c0.1,0.4,0.2,0.8,0.2,1.1c0.1,0.3,0.1,0.7,0.2,1c0.1,0.3,0.1,0.7,0.2,1
	c0.1,0.3,0.1,0.7,0.2,1c0.1,0.3,0.1,0.7,0.2,1c0.1,0.3,0.2,0.6,0.2,1c0.1,0.3,0.2,0.6,0.3,0.9c0.1,0.3,0.2,0.6,0.3,1
	c0.1,0.3,0.2,0.6,0.4,0.8c0.1,0.3,0.2,0.6,0.3,0.9c0.2,0.3,0.3,0.6,0.4,0.8c0.2,0.2,0.3,0.5,0.5,0.8c0.1,0.2,0.2,0.5,0.4,0.7
	c0.2,0.2,0.3,0.4,0.5,0.6c0.2,0.2,0.3,0.5,0.5,0.7c0.2,0.2,0.4,0.3,0.6,0.5c0.2,0.2,0.4,0.4,0.6,0.6c0.2,0.2,0.4,0.3,0.6,0.4
	c0.2,0.2,0.4,0.3,0.7,0.4c0.2,0.2,0.4,0.3,0.7,0.4c0.2,0.1,0.5,0.2,0.7,0.3c0.2,0.1,0.5,0.2,0.7,0.3c0.2,0.1,0.5,0.2,0.7,0.3
	c0.3,0.1,0.5,0.1,0.8,0.2c0.3,0.1,0.5,0.1,0.8,0.2c0.3,0,0.5,0,0.8,0.1c0.3,0,0.6,0,0.9,0c0.3,0,0.6,0,0.9-0.1c0.3,0,0.6,0,0.9-0.1
	c0.3-0.1,0.5-0.1,0.8-0.2c0.3-0.1,0.5-0.1,0.7-0.2c0.3-0.1,0.5-0.1,0.8-0.3c0.2-0.1,0.5-0.2,0.7-0.3c0.2-0.1,0.4-0.3,0.7-0.4
	c0.2-0.1,0.4-0.2,0.7-0.3c0.2-0.2,0.4-0.3,0.7-0.4c0.2-0.2,0.4-0.3,0.6-0.5c0.2-0.2,0.4-0.3,0.6-0.5c0.2-0.2,0.3-0.4,0.5-0.6
	c0.2-0.2,0.4-0.4,0.6-0.6c0.2-0.2,0.3-0.5,0.4-0.7c0.2-0.2,0.3-0.5,0.5-0.7c0.2-0.3,0.3-0.6,0.4-0.8c0.2-0.2,0.3-0.5,0.4-0.8
	c0.1-0.3,0.2-0.6,0.4-0.8c0.1-0.3,0.2-0.6,0.3-0.9c0.1-0.3,0.2-0.6,0.3-0.9c0.1-0.4,0.2-0.7,0.2-1c0.1-0.3,0.2-0.6,0.3-1
	c0.1-0.3,0.1-0.6,0.2-1c0.1-0.3,0.1-0.7,0.2-1c0.1-0.3,0.1-0.7,0.2-1c0.1-0.3,0.1-0.7,0.2-1c0.1-0.3,0.2-0.7,0.2-1
	c0.1-0.4,0.1-0.8,0.2-1.1c0.1-0.4,0.1-0.8,0.2-1.1c0.1-0.4,0.1-0.8,0.1-1.1c0.1-0.4,0.1-0.8,0.1-1.2c0.1-0.4,0.1-0.8,0.1-1.1
	c0.1-0.4,0.1-0.8,0.1-1.2c0-0.4,0-0.8,0.1-1.2c0-0.4,0-0.8,0-1.2c0-0.5,0-0.9,0-1.3c0-0.4,0-0.8,0-1.2c0-0.5,0-0.9,0-1.3
	s0-0.8,0-1.3c0-0.4,0-0.8-0.1-1.2c0-0.5,0-0.9,0-1.3c-0.1-0.5-0.1-0.9-0.1-1.3c0-0.5,0-0.9-0.1-1.3c0-0.5,0-0.9-0.1-1.3
	c0-0.5,0-0.9-0.1-1.3c0-0.5,0-0.9-0.1-1.3c0-0.5,0-0.9-0.1-1.3c-0.1-0.5-0.1-0.9-0.1-1.3c-0.1-0.5-0.1-0.9-0.2-1.3
	c0-0.5,0-0.9-0.1-1.3c-0.1-0.5-0.1-0.9-0.2-1.3c-0.1-0.5-0.1-0.9-0.1-1.3c-0.1-0.4-0.1-0.8-0.2-1.3c-0.1-0.4-0.1-0.8-0.2-1.2
	c0-0.4,0-0.8-0.1-1.3c-0.1-0.4-0.1-0.8-0.2-1.2c-0.1-0.4-0.1-0.8-0.2-1.2c0-0.4,0-0.8-0.1-1.2c-0.1-0.4-0.1-0.8-0.2-1.2
	c-0.1-0.4-0.1-0.8-0.2-1.1c0-0.4,0-0.8-0.1-1.2c-0.1-0.4-0.1-0.7-0.2-1.1c-0.1-0.4-0.1-0.7-0.2-1.1c0-0.3,0-0.7-0.1-1
	c-0.1-0.4-0.1-0.8-0.2-1.1c0-0.4,0-0.7-0.1-1c-0.1-0.4-0.1-0.7-0.1-1c-0.1-0.3-0.1-0.7-0.2-1c0-0.1,0.1-0.2,0.2-0.4
	c0.1-0.1,0.2-0.1,0.3-0.3c0.2-0.1,0.4-0.1,0.6-0.2c0.3-0.1,0.5-0.1,0.8-0.2c0.3-0.1,0.7-0.2,1-0.2c0.4-0.1,0.8-0.1,1.1-0.2
	c0.4-0.1,0.8-0.1,1.2-0.2c0.4,0,0.9,0,1.4-0.1c0.4,0,0.9,0,1.4,0c0.5-0.1,1-0.1,1.5-0.1c0.5,0,1,0,1.5,0s1,0,1.5,0
	c0.5,0,1,0,1.5,0.1c0.5,0,0.9,0,1.4,0.1c0.4,0,0.9,0,1.3,0.1c0.4,0,0.8,0,1.1,0.1c0.4,0.1,0.7,0.1,1.1,0.2c0.3,0.1,0.6,0.1,0.9,0.2
	c0.2,0.1,0.4,0.1,0.7,0.2c0.2,0.1,0.3,0.1,0.5,0.3c0.1,0.1,0.1,0.1,0.2,0.2c0.1,0.4,0.2,0.7,0.3,1c0.1,0.4,0.2,0.8,0.3,1.1
	c0.1,0.3,0.1,0.7,0.2,1c0.1,0.4,0.2,0.7,0.3,1c0.1,0.4,0.2,0.8,0.2,1.1c0.1,0.3,0.2,0.7,0.3,1.1c0.1,0.3,0.1,0.7,0.2,1.1
	c0.1,0.4,0.2,0.7,0.2,1.1c0.1,0.4,0.2,0.7,0.2,1.1c0.1,0.3,0.2,0.7,0.2,1.1c0.1,0.4,0.2,0.8,0.2,1.1c0.1,0.4,0.2,0.8,0.2,1.2
	c0.1,0.4,0.2,0.7,0.2,1.1c0.1,0.4,0.2,0.8,0.2,1.2c0.1,0.4,0.1,0.8,0.2,1.2c0.1,0.4,0.1,0.7,0.2,1.1c0.1,0.4,0.1,0.8,0.2,1.2
	c0.1,0.4,0.1,0.8,0.2,1.2c0.1,0.4,0.1,0.8,0.2,1.2c0.1,0.4,0.1,0.8,0.2,1.2c0.1,0.4,0.1,0.8,0.2,1.2c0.1,0.4,0.1,0.8,0.2,1.3
	c0.1,0.4,0.1,0.8,0.2,1.2c0.1,0.4,0.1,0.8,0.2,1.2c0.1,0.4,0.1,0.8,0.1,1.2c0.1,0.5,0.1,0.9,0.2,1.3c0,0.4,0,0.8,0.1,1.2
	c0.1,0.4,0.1,0.8,0.1,1.2c0.1,0.5,0.1,0.9,0.1,1.3c0.1,0.4,0.1,0.8,0.1,1.2c0.1,0.5,0.1,0.9,0.1,1.3c0.1,0.4,0.1,0.8,0.1,1.2
	c0,0.4,0,0.8,0.1,1.3c0,0.4,0,0.8,0,1.2c0,0.4,0,0.8,0.1,1.2c0,0.5,0,0.9,0,1.3c0,0.4,0,0.8,0,1.2c0,0.4,0,0.8,0,1.3
	c0,0.4,0,0.8-0.1,1.2c0,0.4,0,0.8,0,1.2c0,0.4,0,0.8,0,1.3c-0.1,0.4-0.1,0.8-0.1,1.2c0,0.4,0,0.8-0.1,1.2c0,0.4,0,0.8-0.1,1.2
	c0,0.4,0,0.8-0.1,1.2c0,0.4,0,0.8-0.1,1.2c-0.1,0.4-0.1,0.8-0.2,1.2c0,0.4,0,0.8-0.1,1.2c-0.1,0.4-0.1,0.8-0.2,1.1
	c-0.1,0.4-0.1,0.8-0.2,1.2c-0.1,0.4-0.1,0.8-0.2,1.2c-0.1,0.3-0.1,0.7-0.2,1.1c-0.1,0.4-0.1,0.8-0.2,1.1c-0.1,0.4-0.1,0.8-0.2,1.2
	c-0.1,0.3-0.1,0.7-0.2,1.1c-0.1,0.3-0.1,0.7-0.2,1.1c-0.1,0.4-0.1,0.7-0.2,1.1c-0.1,0.3-0.2,0.7-0.2,1.1c-0.1,0.3-0.2,0.7-0.3,1
	c-0.1,0.3-0.1,0.7-0.2,1.1c-0.1,0.4-0.2,0.7-0.3,1c-0.1,0.3-0.2,0.7-0.3,1c-0.1,0.3-0.2,0.7-0.3,1c-0.2,0.3-0.3,0.7-0.4,1
	c-0.1,0.3-0.2,0.7-0.3,1c-0.2,0.4-0.3,0.7-0.4,1c-0.2,0.3-0.3,0.6-0.4,1c-0.2,0.3-0.3,0.7-0.5,1c-0.1,0.3-0.2,0.7-0.4,1
	c-0.2,0.3-0.3,0.7-0.5,1c-0.1,0.4-0.2,0.7-0.4,1c-0.2,0.3-0.3,0.6-0.5,0.9c-0.2,0.3-0.4,0.7-0.6,1c-0.2,0.3-0.3,0.6-0.5,0.9
	c-0.2,0.3-0.4,0.6-0.6,0.9c-0.2,0.3-0.4,0.6-0.6,0.8c-0.2,0.3-0.4,0.6-0.6,0.9c-0.2,0.2-0.4,0.5-0.6,0.8c-0.2,0.3-0.4,0.6-0.7,0.8
	c-0.2,0.2-0.4,0.5-0.6,0.8c-0.2,0.2-0.4,0.5-0.7,0.7c-0.2,0.2-0.5,0.5-0.7,0.7c-0.2,0.3-0.4,0.5-0.7,0.7c-0.2,0.2-0.5,0.5-0.7,0.7
	c-0.2,0.2-0.5,0.5-0.7,0.7c-0.2,0.2-0.5,0.4-0.7,0.6c-0.3,0.2-0.5,0.4-0.7,0.6c-0.3,0.2-0.5,0.4-0.8,0.6c-0.3,0.2-0.5,0.3-0.8,0.5
	c-0.3,0.2-0.5,0.3-0.8,0.5c-0.3,0.2-0.5,0.4-0.8,0.5c-0.3,0.2-0.6,0.3-0.9,0.4c-0.3,0.2-0.6,0.3-0.9,0.5c-0.3,0.1-0.6,0.3-0.9,0.4
	c-0.3,0.1-0.6,0.2-0.9,0.3c-0.3,0.1-0.7,0.2-1,0.3c-0.3,0.2-0.7,0.3-1,0.4c-0.3,0.1-0.7,0.2-1,0.3c-0.3,0.1-0.7,0.2-1.1,0.3
	c-0.3,0.1-0.7,0.2-1,0.3c-0.4,0.1-0.7,0.2-1.1,0.3c-0.4,0.1-0.7,0.1-1.1,0.2c-0.4,0.1-0.8,0.1-1.1,0.2c-0.4,0.1-0.8,0.1-1.1,0.2
	c-0.4,0.1-0.8,0.1-1.1,0.1c-0.4,0.1-0.8,0.1-1.1,0.1c-0.4,0-0.8,0-1.2,0c-0.4,0.1-0.8,0.1-1.2,0.1c-0.4,0-0.8,0-1.2-0.1
	c-0.4,0-0.8,0-1.1,0c-0.4-0.1-0.8-0.1-1.2-0.1c-0.4-0.1-0.8-0.1-1.1-0.2c-0.4,0-0.8,0-1.1-0.1c-0.4-0.1-0.7-0.1-1.1-0.2
	c-0.4-0.1-0.8-0.1-1.1-0.3c-0.3-0.1-0.7-0.1-1.1-0.3c-0.3-0.1-0.7-0.1-1.1-0.3c-0.3-0.1-0.7-0.1-1-0.3c-0.3-0.1-0.7-0.2-1-0.3
	c-0.3-0.1-0.7-0.2-1-0.3c-0.3-0.1-0.7-0.2-1-0.3c-0.3-0.1-0.7-0.3-1-0.4c-0.3-0.1-0.6-0.3-0.9-0.4c-0.3-0.1-0.6-0.3-0.9-0.4
	c-0.3-0.2-0.6-0.3-0.9-0.5c-0.3-0.1-0.5-0.3-0.8-0.4c-0.3-0.2-0.5-0.4-0.8-0.6c-0.3-0.2-0.5-0.3-0.8-0.5c-0.3-0.2-0.5-0.4-0.8-0.6
	c-0.3-0.2-0.5-0.4-0.7-0.6c-0.3-0.2-0.5-0.4-0.8-0.6c-0.2-0.2-0.4-0.5-0.7-0.7c-0.3-0.2-0.5-0.4-0.7-0.6c-0.3-0.2-0.5-0.5-0.7-0.7
	c-0.2-0.2-0.4-0.5-0.7-0.8c-0.2-0.2-0.4-0.5-0.7-0.7c-0.2-0.2-0.4-0.5-0.7-0.8c-0.2-0.2-0.4-0.5-0.6-0.8c-0.2-0.2-0.4-0.5-0.7-0.8
	c-0.2-0.3-0.4-0.6-0.6-0.9c-0.2-0.2-0.4-0.5-0.6-0.8c-0.2-0.3-0.4-0.6-0.6-0.9c-0.2-0.3-0.3-0.6-0.5-0.9c-0.2-0.3-0.3-0.6-0.5-0.9
	c-0.2-0.4-0.3-0.7-0.5-1c-0.2-0.3-0.3-0.6-0.5-1c-0.2-0.3-0.3-0.6-0.5-0.9c-0.2-0.3-0.3-0.7-0.4-1c-0.2-0.3-0.3-0.6-0.4-1
	c-0.2-0.3-0.3-0.6-0.4-1c-0.2-0.3-0.3-0.7-0.4-1c-0.2-0.3-0.3-0.7-0.4-1c-0.1-0.3-0.2-0.6-0.3-1c-0.2-0.3-0.3-0.7-0.4-1
	c-0.1-0.4-0.2-0.8-0.3-1.1c-0.1-0.3-0.2-0.7-0.2-1c-0.1-0.3-0.2-0.7-0.3-1.1c-0.1-0.3-0.2-0.7-0.3-1c-0.1-0.4-0.1-0.8-0.2-1.1
	c-0.1-0.4-0.2-0.7-0.2-1.1c-0.1-0.3-0.2-0.7-0.2-1.1c-0.1-0.4-0.1-0.8-0.2-1.1c-0.1-0.4-0.1-0.8-0.2-1.1c-0.1-0.4-0.2-0.8-0.2-1.2
	c-0.1-0.3-0.1-0.7-0.2-1.1c-0.1-0.4-0.1-0.8-0.2-1.2c-0.1-0.4-0.1-0.8-0.2-1.1c-0.1-0.4-0.1-0.8-0.2-1.2c-0.1-0.4-0.1-0.8-0.1-1.2
	c-0.1-0.4-0.1-0.8-0.2-1.2c0-0.4,0-0.8-0.1-1.2c-0.1-0.4-0.1-0.8-0.1-1.2c-0.1-0.4-0.1-0.8-0.1-1.2c0-0.4,0-0.8-0.1-1.2
	c0-0.4,0-0.8-0.1-1.3c0-0.4,0-0.8,0-1.2c0-0.4,0-0.8,0-1.2c-0.1-0.4-0.1-0.8-0.1-1.3c0-0.4,0-0.8,0-1.2c0-0.4,0-0.8,0-1.2
	c0-0.5,0-0.9,0.1-1.3c0-0.4,0-0.8,0-1.2c0-0.5,0-0.9,0-1.3c0.1-0.4,0.1-0.8,0.1-1.2c0-0.5,0-0.9,0.1-1.3c0-0.4,0-0.8,0.1-1.3
	c0-0.4,0-0.8,0.1-1.2c0-0.4,0-0.8,0.1-1.3c0-0.4,0-0.8,0.1-1.2c0-0.4,0-0.8,0.1-1.3c0.1-0.4,0.1-0.8,0.2-1.2c0-0.4,0-0.8,0.1-1.2
	c0.1-0.5,0.1-0.9,0.2-1.3c0.1-0.4,0.1-0.8,0.2-1.2c0.1-0.4,0.1-0.8,0.2-1.3c0.1-0.4,0.1-0.8,0.2-1.2c0.1-0.4,0.1-0.8,0.2-1.2
	c0.1-0.4,0.1-0.8,0.2-1.2c0.1-0.4,0.1-0.8,0.2-1.2c0.1-0.4,0.1-0.8,0.2-1.2c0.1-0.4,0.1-0.8,0.2-1.2c0.1-0.4,0.1-0.8,0.2-1.2
	c0.1-0.4,0.1-0.8,0.2-1.2c0.1-0.4,0.2-0.8,0.2-1.2c0.1-0.4,0.1-0.8,0.2-1.2c0.1-0.4,0.1-0.7,0.2-1.1c0.1-0.4,0.1-0.8,0.2-1.2
	c0.1-0.4,0.1-0.7,0.2-1.1c0.1-0.4,0.2-0.8,0.2-1.1c0.1-0.4,0.2-0.8,0.2-1.1c0.1-0.4,0.2-0.8,0.3-1.1c0.1-0.4,0.1-0.8,0.2-1.1
	c0.1-0.4,0.2-0.8,0.3-1.1c0.1-0.3,0.1-0.7,0.2-1.1c0.1-0.4,0.2-0.7,0.3-1C451.4,488.8,451.5,488.7,451.6,488.6z"/>
<path fill="#020202" d="M579.9,545.2c0.1,0.3,0.4,0.6,1.1,1c0.4,0.2,0.7,0.6,1,1c0.3,0.3,0.7,0.7,1,1c0.4,0.3,0.7,0.6,1,1
	c0.3,0.3,0.6,0.7,0.9,1c0.3,0.4,0.6,0.7,0.9,1.1c0.3,0.3,0.6,0.7,0.9,1.1c0.3,0.3,0.5,0.7,0.8,1.1c0.3,0.4,0.5,0.8,0.8,1.1
	c0.3,0.4,0.5,0.8,0.8,1.2c0.3,0.4,0.5,0.8,0.7,1.2c0.3,0.3,0.5,0.7,0.7,1.1c0.3,0.4,0.5,0.8,0.7,1.2c0.2,0.4,0.4,0.8,0.7,1.2
	c0.2,0.4,0.4,0.8,0.7,1.2c0.2,0.4,0.4,0.8,0.7,1.2c0.2,0.4,0.4,0.8,0.6,1.2c0.2,0.3,0.4,0.7,0.6,1.1c0.2,0.4,0.4,0.8,0.6,1.2
	c0.2,0.4,0.3,0.8,0.5,1.1c0.2,0.4,0.3,0.8,0.5,1.2c0.2,0.3,0.3,0.7,0.5,1.1c0.1,0.4,0.2,0.8,0.4,1.1c0.2,0.3,0.3,0.7,0.4,1.1
	c0.2,0.3,0.3,0.7,0.4,1c0.1,0.3,0.2,0.7,0.3,1.1c0.1,0.3,0.2,0.7,0.3,1c0.1,0.3,0.2,0.6,0.3,1c0.1,0.3,0.2,0.7,0.3,1
	c0.1,0.4,0.1,0.7,0.2,1c0.1,0.3,0.1,0.6,0.2,1c0.1,0.3,0.1,0.6,0.2,0.9c0.1,0.2,0.1,0.5,0.2,0.8c0.1,0.3,0.1,0.6,0.2,0.8
	c0.1,0.2,0.1,0.5,0.2,0.8c0,0.2,0,0.5,0.1,0.7c0.1,0.2,0.1,0.4,0.1,0.6c0,0.2,0,0.4,0.1,0.6c0,0.2,0,0.4,0,0.5s0,0.3,0,0.4
	c0,0.2,0,0.3,0,0.4c0,0.1,0,0.2-0.1,0.3c0,0.1,0,0.2-0.1,0.3c0,0.1,0,0.1-0.1,0.2c0,0.1,0,0.1-0.1,0.2c-0.1,0.1-0.2,0.1-0.3,0.2
	c-0.1,0.1-0.2,0.1-0.4,0.2c-0.2,0.1-0.3,0.1-0.5,0.2c-0.2,0.1-0.4,0.1-0.7,0.2c-0.3,0.1-0.5,0.1-0.7,0.2c-0.3,0.1-0.6,0.1-0.9,0.2
	c-0.3,0.1-0.7,0.1-1,0.2c-0.3,0-0.7,0-1,0.1c-0.4,0.1-0.8,0.1-1.1,0.2c-0.4,0-0.8,0-1.1,0.1c-0.4,0.1-0.8,0.1-1.2,0.1
	c-0.4,0.1-0.8,0.1-1.2,0.2c-0.4,0-0.9,0-1.3,0.1c-0.4,0-0.9,0-1.3,0c-0.4,0.1-0.9,0.1-1.3,0.1c-0.4,0-0.9,0-1.3,0
	c-0.5,0.1-0.9,0.1-1.4,0.1c-0.4,0-0.9,0-1.3,0c-0.4-0.1-0.9-0.1-1.3-0.1c-0.4,0-0.8,0-1.2,0c-0.4-0.1-0.8-0.1-1.2-0.1
	c-0.4,0-0.8,0-1.1-0.1c-0.4-0.1-0.8-0.1-1.1-0.1c-0.3-0.1-0.7-0.1-1.1-0.2c-0.3-0.1-0.6-0.1-0.9-0.2c-0.3-0.1-0.6-0.1-0.9-0.2
	c-0.3-0.1-0.5-0.1-0.8-0.3c-0.2-0.1-0.4-0.1-0.7-0.3c-0.2-0.1-0.4-0.1-0.6-0.3c-0.1-0.1-0.1-0.1-0.2-0.2c-0.1-0.1-0.1-0.1-0.2-0.3
	c-0.1-0.1-0.1-0.2-0.2-0.3c-0.1-0.1-0.1-0.2-0.2-0.3c-0.1-0.2-0.1-0.3-0.2-0.5c-0.1-0.2-0.1-0.3-0.1-0.5c-0.1-0.2-0.1-0.5-0.2-0.7
	c-0.1-0.2-0.1-0.5-0.2-0.7c-0.1-0.2-0.1-0.5-0.2-0.7c-0.1-0.3-0.1-0.6-0.2-0.9c-0.1-0.3-0.1-0.6-0.2-0.9c-0.1-0.3-0.1-0.6-0.2-1
	c-0.1-0.3-0.1-0.6-0.2-1c-0.1-0.4-0.1-0.7-0.2-1c-0.1-0.4-0.1-0.7-0.2-1c-0.1-0.3-0.2-0.7-0.2-1.1c-0.1-0.3-0.2-0.7-0.3-1.1
	c-0.1-0.4-0.1-0.8-0.2-1.2c-0.1-0.4-0.2-0.8-0.3-1.1c-0.1-0.5-0.2-0.9-0.3-1.3c-0.2-0.4-0.3-0.8-0.4-1.2c-0.2-0.4-0.3-0.8-0.4-1.3
	c-0.2-0.4-0.3-0.8-0.5-1.3c-0.2-0.4-0.3-0.8-0.5-1.3c-0.2-0.4-0.4-0.8-0.6-1.3c-0.2-0.4-0.4-0.8-0.6-1.3s-0.4-0.9-0.7-1.3
	c-0.2-0.5-0.4-0.9-0.7-1.3c-0.3-0.5-0.5-0.9-0.8-1.3c-0.2-0.5-0.5-0.9-0.7-1.3c-0.3-0.5-0.6-0.9-0.9-1.3c-0.3-0.5-0.6-0.9-0.9-1.3
	c-0.3-0.5-0.7-0.9-1-1.3v0.1c0,0.1,0,0.2,0,0.3c0.1,0.1,0.1,0.3,0.1,0.4c0,0.2,0,0.4,0.1,0.6c0,0.3,0,0.6,0,0.8
	c0.1,0.3,0.1,0.6,0.1,1c0.1,0.3,0.1,0.6,0.1,1c0.1,0.4,0.1,0.8,0.2,1.2c0,0.4,0,0.8,0.1,1.2c0,0.4,0,0.8,0.1,1.3
	c0,0.5,0,0.9,0.1,1.4c0.1,0.5,0.1,1,0.1,1.5c0.1,0.5,0.1,1,0.1,1.5c0.1,0.5,0.1,1,0.1,1.6c0.1,0.5,0.1,1,0.1,1.6
	c0.1,0.5,0.1,1,0.1,1.6c0,0.5,0,1,0.1,1.6c0,0.5,0,1,0,1.6c0,0.5,0,1,0,1.5c0,0.5,0,1,0,1.5c0,0.5,0,0.9,0,1.4s0,0.9,0,1.3
	c-0.1,0.5-0.1,0.9-0.1,1.3c-0.1,0.4-0.1,0.8-0.1,1.1c-0.1,0.3-0.1,0.7-0.2,1.1c-0.1,0.3-0.1,0.6-0.2,0.9c-0.1,0.3-0.1,0.6-0.2,0.9
	c-0.1,0.2-0.1,0.4-0.2,0.6c-0.1,0.2-0.2,0.3-0.2,0.5c-0.1,0.1-0.2,0.2-0.3,0.4c-0.2,0.1-0.3,0.2-0.5,0.3c-0.2,0.1-0.4,0.2-0.7,0.3
	c-0.2,0.1-0.5,0.2-0.7,0.3c-0.3,0.1-0.5,0.2-0.8,0.3c-0.3,0.1-0.7,0.1-1,0.2c-0.3,0.1-0.7,0.1-1.1,0.2c-0.4,0.1-0.8,0.1-1.1,0.2
	c-0.4,0.1-0.8,0.1-1.1,0.1c-0.4,0.1-0.9,0.1-1.3,0.2c-0.4,0-0.8,0-1.2,0.1c-0.5,0-0.9,0-1.4,0c-0.4,0.1-0.9,0.1-1.3,0.1
	c-0.5,0-0.9,0-1.4,0c-0.5,0-0.9,0-1.4,0c-0.4,0-0.9,0-1.4,0c-0.4,0-0.9,0-1.3,0c-0.4,0-0.9,0-1.3-0.1c-0.4,0-0.8,0-1.2-0.1
	c-0.4,0-0.8,0-1.2-0.1c-0.4,0-0.8,0-1.1-0.1c-0.4,0-0.7,0-1.1-0.1c-0.3-0.1-0.7-0.1-1-0.2c-0.3,0-0.6,0-0.9-0.1
	c-0.3-0.1-0.5-0.1-0.7-0.2c-0.2-0.1-0.4-0.1-0.7-0.2c-0.2-0.1-0.3-0.1-0.5-0.2c-0.2-0.1-0.3-0.1-0.4-0.3l-0.1-0.1
	c0-0.1,0-0.1-0.1-0.2c0-0.1,0-0.1-0.1-0.2c0-0.1,0-0.2-0.1-0.3c0-0.1,0-0.2-0.1-0.3c0-0.1,0-0.3-0.1-0.4c0-0.1,0-0.3,0-0.4
	c-0.1-0.2-0.1-0.3-0.1-0.5c-0.1-0.2-0.1-0.4-0.1-0.6c0-0.2,0-0.4-0.1-0.6c0-0.2,0-0.5-0.1-0.7c0-0.2,0-0.5,0-0.8
	c-0.1-0.2-0.1-0.5-0.1-0.8c0-0.3,0-0.6,0-0.9c-0.1-0.3-0.1-0.6-0.1-0.9c0-0.3,0-0.6-0.1-1c0-0.3,0-0.6,0-1s0-0.7-0.1-1
	c0-0.3,0-0.7,0-1s0-0.7,0-1c-0.1-0.4-0.1-0.8-0.1-1.2c0-0.3,0-0.7,0-1.1c0-0.4,0-0.8-0.1-1.2c0-0.4,0-0.8,0-1.2c0-0.5,0-0.9,0-1.3
	c0-0.4,0-0.8,0-1.3c0-0.5,0-0.9-0.1-1.3c0-0.5,0-0.9,0-1.4c0-0.5,0-0.9,0-1.4c0-0.5,0-0.9,0-1.4c0-0.5,0-1,0-1.5c0-0.5,0-0.9,0-1.4
	c0-0.5,0-1,0-1.5c0-0.5,0-1,0-1.6c0-0.5,0-1,0-1.5s0-1,0-1.5c0-0.5,0-1,0-1.6s0-1,0-1.6c0-0.5,0-1,0-1.6c0-0.5,0-1,0-1.6
	c0-0.5,0-1,0-1.6c0-0.5,0-1,0-1.6s0-1.1,0-1.7c0-0.5,0-1,0.1-1.6c0-0.5,0-1,0-1.6c0-0.5,0-1.1,0-1.7c0-0.5,0-1,0-1.6
	c0-0.5,0-1,0.1-1.6c0-0.5,0-1,0-1.6c0-0.6,0-1.1,0-1.7c0-0.5,0-1,0-1.6c0.1-0.5,0.1-1,0.1-1.6s0-1,0-1.5c0-0.5,0-1,0.1-1.6
	c0-0.5,0-1,0-1.6c0-0.5,0-1,0-1.5c0.1-0.5,0.1-1,0.1-1.5c0-0.5,0-1,0-1.5c0.1-0.5,0.1-1,0.1-1.5c0-0.5,0-1,0-1.5
	c0.1-0.5,0.1-0.9,0.1-1.4s0-0.9,0-1.4c0.1-0.5,0.1-0.9,0.1-1.4c0-0.4,0-0.8,0-1.3c0.1-0.4,0.1-0.8,0.1-1.3c0-0.4,0-0.8,0.1-1.3
	c0-0.4,0-0.8,0-1.2c0.1-0.4,0.1-0.8,0.1-1.2c0-0.4,0-0.8,0-1.2c0.1-0.4,0.1-0.7,0.1-1.1c0-0.4,0-0.7,0.1-1c0-0.4,0-0.8,0-1.1
	c0.1-0.3,0.1-0.7,0.1-1c0-0.4,0-0.7,0.1-1c0-0.3,0-0.6,0-1c0.1-0.3,0.1-0.6,0.1-0.9c0.1-0.3,0.1-0.6,0.1-0.9c0-0.2,0-0.5,0.1-0.8
	c0-0.2,0-0.5,0-0.7c0.1-0.2,0.1-0.5,0.1-0.7c0-0.2,0-0.5,0.1-0.7c0-0.2,0-0.4,0.1-0.6c0-0.2,0-0.3,0-0.5c0.1-0.2,0.1-0.3,0.1-0.4
	c0.1-0.2,0.1-0.3,0.1-0.4c0-0.1,0-0.2,0.1-0.3c0-0.1,0-0.2,0.1-0.4c0-0.1,0-0.1,0-0.2l0.1-0.2c0.1-0.1,0.1-0.1,0.1-0.2
	c0.1-0.1,0.1-0.1,0.2-0.2c0.1-0.1,0.2-0.2,0.2-0.3c0.1-0.1,0.2-0.1,0.3-0.2c0.1-0.1,0.2-0.1,0.3-0.2c0.1-0.1,0.2-0.1,0.3-0.2
	c0.1-0.1,0.2-0.1,0.4-0.2c0.2-0.1,0.3-0.1,0.5-0.2c0.2-0.1,0.3-0.1,0.5-0.2c0.2-0.1,0.4-0.1,0.6-0.1c0.2-0.1,0.4-0.1,0.6-0.2
	c0.2-0.1,0.5-0.1,0.7-0.1c0.2-0.1,0.5-0.1,0.7-0.1c0.3-0.1,0.5-0.1,0.8-0.1c0.3-0.1,0.6-0.1,0.9-0.1c0.3-0.1,0.7-0.1,1-0.1
	c0.4-0.1,0.8-0.1,1.1-0.1c0.4,0,0.8,0,1.1,0c0.4-0.1,0.9-0.1,1.3-0.1c0.4,0,0.9,0,1.3,0c0.5,0,1.1,0,1.5-0.1c0.5,0,1,0,1.5,0
	c0.6,0,1.2,0,1.7,0c0.6,0,1.2,0,1.8,0c0.7,0,1.3,0,2,0.1c0.7,0,1.4,0,2.1,0c0.8,0,1.5,0,2.2,0c0.8,0,1.6,0,2.4,0.1
	c0.5,0,0.9,0,1.4,0c0.5,0,0.9,0,1.4,0.1c0.5,0,0.9,0,1.4,0.1c0.4,0.1,0.9,0.1,1.4,0.2c0.4,0,0.9,0,1.3,0.1c0.4,0.1,0.8,0.1,1.2,0.3
	c0.4,0.1,0.9,0.1,1.3,0.2c0.4,0.1,0.8,0.1,1.2,0.3c0.4,0.1,0.8,0.1,1.2,0.3c0.4,0.1,0.8,0.2,1.2,0.3c0.4,0.1,0.8,0.2,1.1,0.4
	c0.4,0.1,0.8,0.2,1.1,0.4c0.4,0.2,0.8,0.3,1.1,0.4c0.3,0.1,0.7,0.3,1.1,0.4c0.3,0.1,0.7,0.3,1.1,0.4c0.3,0.2,0.7,0.3,1.1,0.4
	c0.3,0.2,0.7,0.4,1,0.5c0.3,0.2,0.7,0.4,1,0.6c0.3,0.2,0.6,0.4,0.9,0.5c0.3,0.2,0.7,0.4,1,0.6c0.3,0.2,0.6,0.4,0.9,0.6
	c0.3,0.2,0.5,0.5,0.8,0.7c0.3,0.2,0.5,0.5,0.8,0.7c0.3,0.2,0.5,0.5,0.8,0.7c0.3,0.2,0.5,0.5,0.8,0.8c0.2,0.2,0.5,0.5,0.7,0.8
	c0.2,0.2,0.5,0.5,0.7,0.8c0.2,0.3,0.4,0.6,0.7,0.9c0.2,0.3,0.4,0.6,0.7,0.9c0.2,0.3,0.4,0.6,0.7,0.9c0.2,0.3,0.4,0.7,0.6,1
	c0.2,0.4,0.4,0.7,0.6,1c0.2,0.3,0.3,0.7,0.5,1c0.2,0.4,0.3,0.7,0.5,1c0.2,0.4,0.3,0.7,0.5,1c0.2,0.3,0.3,0.7,0.4,1.1
	c0.2,0.3,0.3,0.7,0.4,1.1c0.1,0.4,0.2,0.7,0.3,1.1c0.1,0.4,0.2,0.8,0.3,1.2c0.1,0.4,0.2,0.8,0.3,1.2c0.1,0.4,0.2,0.8,0.2,1.3
	c0.1,0.4,0.2,0.8,0.2,1.2c0.1,0.5,0.1,0.9,0.2,1.4c0.1,0.4,0.1,0.8,0.2,1.3c0.1,0.5,0.1,0.9,0.2,1.4c0,0.5,0,1,0.1,1.5
	c0,0.4,0,0.8,0,1.3c0,0.4,0,0.8,0,1.3c0,0.4,0,0.8-0.1,1.2c-0.1,0.4-0.1,0.8-0.2,1.2c-0.1,0.4-0.1,0.8-0.2,1.2
	c-0.1,0.4-0.1,0.8-0.2,1.1c-0.1,0.4-0.1,0.8-0.2,1.1c-0.1,0.4-0.2,0.8-0.4,1.1c-0.1,0.4-0.2,0.7-0.3,1c-0.2,0.3-0.3,0.7-0.5,1
	c-0.1,0.4-0.2,0.7-0.4,1c-0.2,0.3-0.4,0.6-0.6,1c-0.2,0.3-0.4,0.6-0.6,0.9c-0.2,0.3-0.4,0.6-0.6,0.9c-0.2,0.3-0.4,0.6-0.7,0.9
	c-0.2,0.3-0.4,0.6-0.7,0.8c-0.3,0.3-0.5,0.6-0.7,0.8c-0.3,0.2-0.5,0.5-0.7,0.8c-0.3,0.2-0.5,0.5-0.8,0.7c-0.3,0.2-0.5,0.5-0.8,0.7
	c-0.3,0.2-0.5,0.4-0.8,0.6c-0.3,0.2-0.6,0.4-0.9,0.6c-0.3,0.2-0.6,0.4-0.9,0.6c-0.3,0.2-0.7,0.3-1,0.5c-0.3,0.2-0.7,0.4-1,0.5
	c-0.3,0.1-0.7,0.3-1,0.5c-0.3,0.3-0.7,0.4-1,0.4C580.2,544.9,579.9,545,579.9,545.2z M569.6,520.5c0-0.6,0-1.3-0.1-1.9
	c-0.1-0.6-0.2-1.1-0.4-1.7c-0.1-0.5-0.3-1-0.5-1.6c-0.2-0.4-0.5-0.8-0.7-1.3c-0.2-0.4-0.5-0.8-0.8-1.1c-0.3-0.3-0.6-0.7-0.9-1
	c-0.3-0.3-0.7-0.6-1.1-0.9c-0.3-0.3-0.7-0.6-1.1-0.8c-0.4-0.2-0.8-0.4-1.1-0.6c-0.4-0.2-0.8-0.4-1.1-0.5c-0.4-0.1-0.8-0.2-1.1-0.3
	c-0.4-0.1-0.7-0.2-1.1-0.4c-0.4-0.1-0.7-0.1-1.1-0.3c-0.3-0.1-0.7-0.1-1-0.1c-0.3-0.1-0.5-0.1-0.8-0.1c-0.2-0.1-0.5-0.1-0.7-0.1
	c-0.2,0.1-0.4,0.1-0.6,0c-0.2,0-0.3,0-0.3,0.1c-0.1,0.1-0.1,0.3-0.1,0.5c0,0.2,0,0.4,0,0.6c-0.1,0.2-0.1,0.4,0,0.6
	c0,0.3,0,0.6,0,0.8c0,0.2,0,0.5,0,0.8c0.1,0.3,0.1,0.6,0.1,0.9c0,0.3,0,0.6,0.1,1c0,0.3,0,0.7,0.1,1c0.1,0.4,0.1,0.7,0.1,1
	c0.1,0.4,0.1,0.8,0.2,1.1c0,0.4,0,0.8,0.1,1.2c0.1,0.4,0.1,0.8,0.1,1.2c0.1,0.4,0.1,0.8,0.2,1.2c0,0.5,0,0.9,0.1,1.4
	c0.1,0.4,0.1,0.8,0.1,1.3c0.1,0.5,0.1,1,0.2,1.5c0,0.5,0,0.9,0.1,1.4c0.1,0.5,0.1,1,0.1,1.5c0.1,0.5,0.1,1,0.1,1.6
	c0.1,0.5,0.1,1,0.1,1.6c-0.1,0.6-0.1,1.1,0,1.6c0,0.1,0.2,0.1,0.5,0.1c0.2,0,0.4,0,0.7,0.1c0.2,0,0.5,0,0.7-0.1
	c0.3-0.1,0.6-0.1,0.9-0.1c0.3-0.1,0.7-0.1,1-0.3c0.3-0.1,0.7-0.1,1-0.3c0.4-0.1,0.7-0.2,1.1-0.3c0.4-0.2,0.8-0.3,1.1-0.5
	c0.3-0.2,0.7-0.4,1.1-0.6c0.3-0.2,0.7-0.4,1-0.7c0.4-0.2,0.7-0.5,1-0.8c0.3-0.3,0.6-0.6,0.9-1c0.3-0.4,0.5-0.7,0.8-1
	c0.2-0.4,0.4-0.8,0.7-1.2c0.2-0.4,0.3-0.8,0.5-1.3c0.1-0.5,0.2-1,0.2-1.5C569.6,521.6,569.6,521,569.6,520.5z"/>
<path fill="#020202" d="M602.7,589.1L602.7,589.1c0-0.1,0-0.2,0-0.3c0-0.1,0-0.1,0-0.3c0-0.1,0-0.1,0-0.3c0-0.1,0-0.2,0.1-0.3
	c0-0.2,0-0.3,0.1-0.4c0-0.1,0-0.3,0-0.4c0.1-0.2,0.1-0.3,0.2-0.5c0-0.2,0-0.4,0.1-0.5c0.1-0.2,0.1-0.4,0.1-0.6
	c0.1-0.2,0.1-0.4,0.2-0.6c0.1-0.2,0.1-0.5,0.2-0.7c0.1-0.2,0.1-0.5,0.2-0.7c0.1-0.3,0.1-0.6,0.2-0.8c0.1-0.3,0.1-0.6,0.2-0.9
	c0.1-0.3,0.2-0.6,0.2-0.9c0.1-0.3,0.1-0.6,0.2-0.9c0.1-0.3,0.1-0.6,0.2-1c0.1-0.3,0.2-0.6,0.2-1c0.1-0.4,0.2-0.7,0.2-1
	c0.1-0.4,0.2-0.7,0.3-1c0.1-0.3,0.1-0.7,0.2-1c0.1-0.4,0.2-0.8,0.2-1.1c0.1-0.4,0.2-0.8,0.3-1.2c0.1-0.4,0.2-0.7,0.3-1.1
	c0.1-0.4,0.1-0.8,0.2-1.2c0.1-0.4,0.2-0.8,0.3-1.2c0.1-0.5,0.2-0.9,0.3-1.3c0.1-0.4,0.2-0.8,0.3-1.3c0.1-0.4,0.2-0.8,0.3-1.3
	c0.2-0.5,0.3-0.9,0.4-1.3c0.1-0.5,0.2-0.9,0.3-1.4c0.1-0.5,0.2-0.9,0.3-1.4c0.2-0.5,0.3-0.9,0.4-1.4c0.1-0.5,0.2-0.9,0.4-1.4
	c0.1-0.5,0.2-1,0.3-1.5c0.2-0.5,0.3-1,0.4-1.5c0.1-0.5,0.2-0.9,0.4-1.4c0.1-0.5,0.2-1,0.3-1.5c0.2-0.5,0.3-1,0.4-1.6
	c0.2-0.5,0.3-1,0.4-1.5c0.2-0.5,0.3-1,0.4-1.5c0.2-0.5,0.3-1,0.4-1.6c0.2-0.5,0.3-1,0.4-1.5c0.2-0.5,0.3-1,0.4-1.6
	c0.2-0.5,0.3-1,0.4-1.5c0.2-0.5,0.3-1,0.4-1.6c0.2-0.5,0.3-1,0.4-1.5c0.2-0.5,0.3-1,0.4-1.6c0.2-0.5,0.3-1,0.4-1.6
	c0.2-0.5,0.3-1,0.5-1.5c0.1-0.5,0.2-1,0.4-1.6c0.1-0.5,0.2-1,0.4-1.5c0.1-0.5,0.2-1,0.4-1.6c0.1-0.5,0.2-1,0.4-1.5
	c0.1-0.5,0.2-1,0.4-1.5c0.1-0.5,0.2-1,0.4-1.5c0.1-0.5,0.2-1,0.4-1.5c0.1-0.5,0.2-1,0.4-1.5c0.1-0.5,0.2-1,0.4-1.5
	c0.1-0.5,0.2-0.9,0.3-1.4c0.2-0.5,0.3-0.9,0.4-1.4c0.2-0.5,0.3-0.9,0.4-1.4c0.1-0.5,0.2-0.9,0.4-1.4c0.1-0.5,0.2-0.9,0.3-1.4
	c0.2-0.4,0.3-0.8,0.4-1.3c0.1-0.5,0.2-0.9,0.3-1.3c0.2-0.4,0.3-0.8,0.4-1.3c0.1-0.4,0.2-0.8,0.3-1.2c0.1-0.4,0.2-0.8,0.3-1.2
	c0.1-0.4,0.2-0.8,0.4-1.2c0.1-0.4,0.2-0.8,0.3-1.2c0.1-0.3,0.2-0.7,0.3-1.1c0.1-0.3,0.2-0.7,0.3-1.1c0.1-0.4,0.1-0.7,0.2-1
	s0.2-0.7,0.3-1c0.1-0.3,0.2-0.7,0.2-1c0.1-0.3,0.2-0.6,0.3-1c0.1-0.3,0.2-0.6,0.2-0.9c0.1-0.4,0.2-0.7,0.2-1
	c0.1-0.3,0.2-0.6,0.2-0.8c0.1-0.3,0.2-0.6,0.2-0.9c0.1-0.2,0.2-0.5,0.2-0.7c0.1-0.3,0.1-0.6,0.2-0.8c0.1-0.2,0.1-0.4,0.2-0.6
	c0.1-0.2,0.1-0.4,0.2-0.6c0.1-0.2,0.1-0.4,0.2-0.6c0.1-0.2,0.1-0.4,0.2-0.5c0.1-0.2,0.1-0.3,0.2-0.4c0-0.2,0-0.3,0.1-0.4
	c0.1-0.1,0.1-0.2,0.2-0.3c0-0.1,0-0.2,0.1-0.4c0.1-0.1,0.1-0.1,0.1-0.3c0.1-0.1,0.1-0.1,0.1-0.2c0-0.1,0-0.1,0.1-0.2v-0.1
	c0.1-0.1,0.2-0.1,0.3-0.2c0.2-0.1,0.3-0.1,0.5-0.2c0.2-0.1,0.5-0.1,0.7-0.1c0.3-0.1,0.5-0.1,0.8-0.2c0.4,0,0.7,0,1.1-0.1
	c0.4,0,0.8,0,1.1-0.1c0.4,0,0.9,0,1.3-0.1c0.4,0,0.9,0,1.3,0c0.5,0,1,0,1.5-0.1c0.5,0,0.9,0,1.4,0c0.5,0,1,0,1.5,0c0.5,0,1,0,1.5,0
	c0.5,0.1,0.9,0.1,1.4,0.1c0.5,0,0.9,0,1.4,0c0.4,0,0.9,0,1.3,0.1c0.4,0,0.8,0,1.1,0.1c0.4,0,0.7,0,1.1,0c0.3,0.1,0.6,0.1,0.9,0.1
	c0.3,0.1,0.5,0.1,0.7,0.1c0.2,0.1,0.4,0.1,0.6,0.2c0.1,0,0.2,0,0.3,0.1v0.1c0.1,0,0.1,0,0.1,0.1c0.1,0.1,0.1,0.1,0.1,0.2
	c0.1,0.1,0.1,0.1,0.1,0.3c0.1,0.1,0.1,0.2,0.2,0.3c0,0.1,0,0.2,0.1,0.4c0.1,0.2,0.1,0.3,0.2,0.4c0.1,0.2,0.1,0.4,0.2,0.5
	c0.1,0.2,0.1,0.4,0.2,0.5c0.1,0.2,0.1,0.4,0.2,0.5c0.1,0.2,0.1,0.4,0.2,0.6c0.1,0.2,0.2,0.5,0.2,0.7c0.1,0.2,0.1,0.5,0.2,0.7
	c0.1,0.3,0.1,0.6,0.2,0.8c0.1,0.3,0.2,0.6,0.2,0.9c0.1,0.3,0.2,0.6,0.2,0.9c0.1,0.3,0.2,0.6,0.3,0.9c0.1,0.3,0.1,0.6,0.2,1
	c0.1,0.3,0.2,0.6,0.2,1c0.1,0.4,0.2,0.7,0.3,1c0.1,0.4,0.2,0.7,0.3,1c0.1,0.3,0.2,0.7,0.2,1.1c0.1,0.4,0.2,0.7,0.3,1.1
	c0.1,0.4,0.2,0.7,0.3,1.1c0.1,0.4,0.2,0.8,0.3,1.2c0.1,0.4,0.2,0.8,0.3,1.2c0.2,0.4,0.3,0.8,0.4,1.2c0.1,0.5,0.2,0.9,0.3,1.3
	c0.1,0.5,0.2,0.9,0.3,1.3c0.2,0.5,0.3,0.9,0.4,1.4c0.1,0.4,0.2,0.8,0.3,1.3c0.2,0.5,0.3,0.9,0.4,1.4c0.1,0.5,0.2,0.9,0.4,1.4
	c0.1,0.5,0.2,1,0.3,1.5c0.2,0.5,0.3,0.9,0.4,1.4c0.2,0.5,0.3,1,0.4,1.5c0.1,0.5,0.2,1,0.4,1.5c0.1,0.5,0.2,1,0.4,1.5
	c0.1,0.5,0.2,1,0.4,1.5c0.1,0.5,0.2,1,0.4,1.6c0.1,0.5,0.2,1,0.4,1.5c0.1,0.5,0.2,1,0.3,1.6c0.2,0.5,0.3,1,0.4,1.5
	c0.2,0.5,0.3,1,0.5,1.6c0.1,0.5,0.2,1,0.4,1.6c0.1,0.5,0.2,1,0.4,1.6c0.1,0.5,0.2,1,0.4,1.6c0.1,0.5,0.2,1,0.4,1.6
	c0.1,0.5,0.2,1,0.4,1.6c0.1,0.5,0.2,1,0.4,1.6c0.1,0.5,0.2,1,0.4,1.5c0.1,0.5,0.2,1,0.3,1.6c0.2,0.5,0.3,1,0.4,1.6
	c0.2,0.5,0.3,1,0.4,1.6c0.2,0.5,0.3,1,0.4,1.5c0.2,0.5,0.3,1,0.4,1.6c0.1,0.5,0.2,1,0.4,1.5c0.1,0.5,0.2,1,0.3,1.5
	c0.2,0.5,0.3,1,0.4,1.5c0.1,0.5,0.2,1,0.4,1.5c0.1,0.5,0.2,1,0.3,1.5c0.1,0.5,0.2,0.9,0.4,1.4c0.1,0.5,0.2,0.9,0.3,1.4
	c0.1,0.5,0.2,0.9,0.3,1.4c0.2,0.5,0.3,0.9,0.4,1.4c0.1,0.5,0.2,0.9,0.3,1.3c0.1,0.5,0.2,0.9,0.3,1.4c0.1,0.4,0.2,0.8,0.3,1.2
	c0.1,0.5,0.2,0.9,0.3,1.3c0.1,0.4,0.2,0.8,0.2,1.2c0.1,0.4,0.2,0.8,0.3,1.2c0.1,0.4,0.2,0.8,0.3,1.2c0.1,0.3,0.1,0.7,0.2,1.1
	c0.1,0.4,0.2,0.7,0.3,1.1c0.1,0.3,0.1,0.7,0.2,1c0.1,0.4,0.1,0.7,0.2,1c0.1,0.4,0.1,0.7,0.2,1c0.1,0.3,0.1,0.7,0.2,1
	c0.1,0.3,0.1,0.7,0.2,1c0.1,0.3,0.1,0.6,0.2,0.9c0.1,0.3,0.1,0.6,0.2,0.9c0.1,0.2,0.1,0.5,0.2,0.8c0.1,0.2,0.1,0.5,0.2,0.7
	c0.1,0.2,0.1,0.5,0.2,0.7c0.1,0.2,0.1,0.5,0.2,0.7c0.1,0.2,0.1,0.3,0.2,0.5c0,0.2,0,0.4,0.1,0.6c0.1,0.2,0.1,0.3,0.1,0.4
	c0.1,0.2,0.1,0.3,0.1,0.4c0.1,0.2,0.1,0.3,0.1,0.4c0,0.1,0,0.2,0.1,0.3c0,0.1,0,0.2,0,0.3c0,0.1,0,0.1,0,0.2c0,0.1,0,0.1,0.1,0.2
	h-0.1c-0.1,0.1-0.1,0.2-0.2,0.3c-0.1,0.1-0.2,0.1-0.4,0.2c-0.2,0.1-0.4,0.1-0.6,0.1c-0.3,0.1-0.5,0.1-0.8,0.2c-0.3,0-0.6,0-0.9,0.1
	c-0.4,0.1-0.7,0.1-1.1,0.1c-0.4,0.1-0.8,0.1-1.2,0.1c-0.4,0-0.8,0-1.2,0.1c-0.4,0-0.9,0-1.4,0c-0.4,0-0.9,0-1.4,0c-0.5,0-1,0-1.4,0
	c-0.5,0-1,0-1.5,0s-1,0-1.5,0s-1,0-1.5,0c-0.5-0.1-1-0.1-1.5-0.1c-0.4,0-0.9,0-1.3-0.1c-0.4,0-0.9,0-1.3,0c-0.4-0.1-0.8-0.1-1.2-0.1
	c-0.3-0.1-0.7-0.1-1.1-0.1c-0.3-0.1-0.6-0.1-0.9-0.2c-0.3,0-0.5,0-0.8-0.1c-0.2-0.1-0.4-0.1-0.7-0.2c-0.2,0-0.3,0-0.4-0.1
	c-0.1-0.1-0.2-0.1-0.2-0.2c-0.1-0.1-0.1-0.1-0.2-0.2c-0.1-0.2-0.1-0.3-0.2-0.4c-0.1-0.2-0.1-0.4-0.2-0.6c-0.1-0.2-0.2-0.5-0.2-0.8
	c-0.1-0.3-0.1-0.6-0.2-0.9c-0.1-0.4-0.1-0.7-0.2-1c-0.1-0.4-0.2-0.8-0.3-1.2c-0.1-0.4-0.1-0.8-0.2-1.2c-0.1-0.5-0.2-0.9-0.3-1.3
	c-0.1-0.5-0.2-1-0.3-1.5c-0.1-0.5-0.2-1-0.3-1.5c-0.1-0.5-0.2-1-0.3-1.5c-0.1-0.5-0.2-1-0.3-1.6c-0.1-0.5-0.2-1-0.3-1.5
	c-0.1-0.5-0.2-1-0.3-1.6c-0.1-0.5-0.2-1-0.3-1.6c-0.1-0.5-0.2-1-0.3-1.5c-0.1-0.5-0.2-1-0.2-1.5c-0.1-0.5-0.2-0.9-0.3-1.3
	c-0.1-0.5-0.2-0.9-0.2-1.3c-0.1-0.4-0.2-0.8-0.2-1.2c-0.1-0.4-0.2-0.8-0.2-1.1c-0.1-0.3-0.1-0.7-0.2-1c-0.1-0.3-0.1-0.6-0.2-0.9
	c0-0.2,0-0.5-0.1-0.7c-0.1-0.2-0.1-0.3-0.2-0.4c0-0.1,0-0.2,0-0.3c0-0.1,0-0.1-0.1-0.2c-0.1,0-0.2,0-0.4-0.1c-0.2,0-0.4,0-0.7-0.1
	c-0.3-0.1-0.7-0.1-1-0.1c-0.4,0-0.8,0-1.2-0.1c-0.4,0-0.9,0-1.3,0c-0.4-0.1-0.9-0.1-1.4-0.1c-0.5,0-1,0-1.5,0s-0.9,0-1.4,0
	c-0.4,0-0.9,0-1.4,0.1c-0.4,0-0.8,0-1.1,0.1c-0.3,0.1-0.7,0.1-1.1,0.2c-0.2,0.1-0.5,0.1-0.7,0.3c-0.2,0.1-0.3,0.1-0.4,0.3v0.1
	c-0.1,0.1-0.1,0.2-0.1,0.3c-0.1,0.2-0.1,0.3-0.1,0.5c-0.1,0.2-0.1,0.5-0.2,0.7c-0.1,0.3-0.1,0.6-0.2,0.9c-0.1,0.3-0.1,0.7-0.2,1
	c-0.1,0.3-0.1,0.7-0.2,1.1c-0.1,0.4-0.2,0.8-0.2,1.2c-0.1,0.5-0.2,0.9-0.3,1.4c-0.1,0.5-0.1,0.9-0.2,1.4c-0.1,0.5-0.2,1-0.3,1.5
	c-0.1,0.5-0.2,1-0.3,1.6c-0.1,0.5-0.2,1-0.3,1.6c-0.1,0.5-0.2,1-0.3,1.6c-0.1,0.5-0.2,1-0.3,1.6c-0.1,0.5-0.2,1-0.3,1.6
	c-0.1,0.5-0.2,1-0.3,1.6c-0.1,0.5-0.1,1-0.2,1.5c-0.1,0.5-0.2,0.9-0.3,1.4c-0.1,0.5-0.2,0.9-0.3,1.3c-0.1,0.4-0.2,0.8-0.2,1.2
	c-0.1,0.4-0.2,0.8-0.3,1.1c-0.1,0.3-0.1,0.7-0.2,1c-0.1,0.3-0.1,0.6-0.2,0.8c-0.1,0.2-0.2,0.5-0.2,0.7c-0.1,0.2-0.1,0.3-0.2,0.4
	c0,0.1,0,0.2-0.1,0.3c-0.1,0.1-0.2,0.2-0.2,0.2c-0.2,0.1-0.3,0.1-0.5,0.2c-0.2,0.1-0.4,0.1-0.7,0.2c-0.3,0.1-0.5,0.1-0.8,0.2
	c-0.3,0.1-0.7,0.1-1,0.2c-0.4,0.1-0.8,0.1-1.1,0.1c-0.4,0.1-0.8,0.1-1.2,0.2c-0.4,0-0.9,0-1.3,0.1c-0.4,0.1-0.9,0.1-1.4,0.1
	c-0.4,0.1-0.9,0.1-1.4,0.1c-0.5,0.1-1,0.1-1.5,0.1s-1,0-1.5,0c-0.5,0-1,0-1.5,0.1c-0.5,0-0.9,0-1.4,0c-0.5,0-0.9,0-1.4-0.1
	c-0.4,0-0.9,0-1.3,0c-0.4-0.1-0.8-0.1-1.2-0.1c-0.4-0.1-0.8-0.1-1.1-0.1c-0.3-0.1-0.6-0.1-0.9-0.2c-0.3,0-0.5,0-0.8-0.1
	c-0.3-0.1-0.5-0.1-0.7-0.3c-0.2-0.1-0.3-0.1-0.5-0.2C602.9,589.3,602.8,589.2,602.7,589.1z M644.6,548.9c0.1-0.1,0-0.3-0.1-0.5
	c-0.1-0.2-0.1-0.3-0.1-0.5c-0.1-0.2-0.1-0.5-0.2-0.7c-0.1-0.2-0.1-0.5-0.2-0.7c0-0.3,0-0.6-0.1-0.8c-0.1-0.3-0.1-0.6-0.2-0.9
	c-0.1-0.3-0.1-0.6-0.2-0.9c-0.1-0.3-0.1-0.7-0.2-1c-0.1-0.3-0.2-0.7-0.2-1c-0.1-0.3-0.1-0.7-0.2-1c-0.1-0.4-0.1-0.8-0.2-1.1
	c-0.1-0.4-0.2-0.7-0.2-1.1c-0.1-0.4-0.1-0.8-0.2-1.1c-0.1-0.4-0.1-0.8-0.2-1.2c-0.1-0.4-0.1-0.8-0.2-1.2c-0.1-0.4-0.1-0.8-0.2-1.2
	c-0.1-0.4-0.2-0.8-0.2-1.3c-0.1-0.4-0.1-0.8-0.2-1.2c-0.1-0.5-0.1-0.9-0.2-1.3c-0.1-0.4-0.2-0.8-0.2-1.3c-0.1-0.4-0.1-0.8-0.2-1.3
	c-0.1-0.4-0.2-0.8-0.2-1.3c-0.1-0.4-0.1-0.8-0.2-1.3c-0.1-0.4-0.1-0.8-0.2-1.2c-0.1-0.5-0.1-0.9-0.2-1.3c-0.2-0.4-0.2-0.8-0.2-1.3
	c0.2-0.8,0.1-1.2-0.2-1.2c-0.2,0-0.3,0.4-0.2,1.2c0,0.4-0.1,0.8-0.2,1.3c-0.1,0.4-0.2,0.8-0.2,1.3c0,0.5-0.1,0.9-0.2,1.3
	c-0.1,0.5-0.2,0.9-0.2,1.4c-0.1,0.4-0.1,0.8-0.2,1.3c-0.1,0.5-0.1,0.9-0.2,1.4c-0.1,0.4-0.1,0.8-0.2,1.3c-0.1,0.5-0.1,0.9-0.2,1.4
	c-0.1,0.4-0.1,0.8-0.2,1.3c-0.1,0.5-0.1,0.9-0.2,1.3c-0.1,0.5-0.1,0.9-0.2,1.3c-0.1,0.4-0.1,0.8-0.2,1.3c-0.1,0.4-0.1,0.8-0.2,1.2
	c-0.1,0.4-0.2,0.8-0.2,1.2c-0.1,0.4-0.1,0.8-0.2,1.1c-0.1,0.4-0.1,0.8-0.2,1.1c-0.1,0.3-0.2,0.7-0.2,1.1c-0.1,0.3-0.1,0.7-0.2,1
	c-0.1,0.3-0.1,0.7-0.2,1c-0.1,0.3-0.1,0.6-0.2,0.9c-0.1,0.3-0.1,0.6-0.2,0.9c0,0.2,0,0.5-0.1,0.7c-0.1,0.2-0.1,0.5-0.2,0.7
	c-0.1,0.2-0.1,0.4-0.1,0.6c0,0.2,0,0.4-0.1,0.5c-0.1,0.2-0.1,0.4-0.1,0.4c0.1,0.1,0.2,0.1,0.5,0.1s0.5,0,0.8,0.1c0.4,0,0.8,0,1.1,0
	c0.4-0.1,0.9-0.1,1.3-0.1c0.4,0,0.9,0,1.3,0c0.5-0.1,0.9-0.1,1.4-0.1c0.4-0.1,0.9-0.1,1.3-0.2c0.3,0,0.7,0,1.1-0.1
	c0.3-0.1,0.6-0.2,0.9-0.2C644.4,549.1,644.5,549,644.6,548.9z"/>
<path fill="#020202" d="M197.4,464.4c-3.8,0-6.7,9.1-12.8,8.7s-6.1-5.5-6.1-7.4c0-4.3,4.3-11.3,6.4-13.9c2.2-2.6,5.6-6,12.1-6
	c9.1,0,10.8,9.2,18,9.2c4.2,0,7.3-11.1,15.1-11.1c13.9,0,4.7,15.1,3.2,17.4c-2.4,3.7-9.3,13.2-18.6,13.2
	C205.6,474.4,203.7,464.4,197.4,464.4"/>
</svg>
