<?xml version="1.0" encoding="utf-8"?>
<!-- Generator: Adobe Illustrator 18.0.0, SVG Export Plug-In . SVG Version: 6.00 Build 0)  -->
<!DOCTYPE svg PUBLIC "-//W3C//DTD SVG 1.1//EN" "http://www.w3.org/Graphics/SVG/1.1/DTD/svg11.dtd">
<svg version="1.1" id="Camada_1" xmlns="http://www.w3.org/2000/svg" xmlns:xlink="http://www.w3.org/1999/xlink" x="0px" y="0px"
	 viewBox="0 416 768 214" enable-background="new 0 416 768 214" xml:space="preserve">
<g>
	<g>
		<path fill="#1B7C09" d="M94.2,588.3c0-10.2,0.9-20.5,0.9-30.7c0.2-2.6,0.2-5.2,0.2-7.8c0.1-0.5,0.1-1.1,0.1-1.7
			c0.1-1.6,0.2-3.2,0.2-4.8c0.1-1.6,0.2-3.3,0.2-4.9c0.1-0.6,0.1-1.1,0.1-1.7c0.1-1.6,0.2-3.3,0.2-4.9c0-0.5,0-1.1,0-1.7
			c0.1-0.5,0.1-1,0.1-1.6c0.1-1.6,0.2-3.2,0.2-4.8c0-0.5,0-1,0-1.6c0.1-0.5,0.1-1,0.1-1.6c0.1-0.5,0.1-1,0.1-1.6
			c0.1-1.5,0.2-3,0.2-4.5c0-0.5,0-1,0.1-1.5c0-0.5,0-1,0-1.5c0.1-0.5,0.1-0.9,0.1-1.4c0.1-0.5,0.1-0.9,0.1-1.4
			c0.1-0.5,0.1-0.9,0.1-1.3c0.1-1.3,0.2-2.6,0.2-3.9c0-0.4,0-0.8,0.1-1.2c0-0.4,0-0.8,0.1-1.2c0-0.4,0-0.7,0.1-1.1
			c0-0.4,0-0.8,0-1.1c0.1-0.3,0.1-0.7,0.1-1c0.1-0.4,0.1-0.7,0.1-1c0.1-0.4,0.1-0.7,0.1-1c0.1-0.3,0.1-0.6,0.1-1
			c0.1-0.8,0.2-1.7,0.2-2.5c0-0.2,0-0.5,0.1-0.8c0-0.2,0-0.5,0.1-0.7c0-0.2,0-0.4,0.1-0.6c0-0.2,0-0.4,0.1-0.6c0-0.2,0-0.4,0-0.5
			c0.1-0.2,0.1-0.4,0.1-0.5c0.1-0.1,0.1-0.3,0.1-0.4c0.1-0.1,0.1-0.2,0.1-0.3c0.1-0.1,0.1-0.1,0.1-0.3c0-0.2,0.1-0.4,0.2-0.5
			c0.1-0.1,0.2-0.1,0.4-0.2c0.2-0.1,0.3-0.2,0.5-0.3c1.2-0.2,2.4-0.4,3.6-0.6c0.4,0,0.8,0,1.2-0.1c0.4,0,0.8,0,1.2,0
			c3.2-0.4,6.2,0.1,9.4,0.1c0.4,0.1,0.8,0.1,1.2,0.1c0.4,0.1,0.8,0.1,1.1,0.1c0.4,0.1,0.7,0.1,1.1,0.2c0.9,0,1.7,0.2,2.5,0.4
			c0.8,0,1.2,0.4,1.5,1c0.7,1,1.3,2.2,1.7,3.3c0.2,0.3,0.3,0.6,0.4,1c0.5,1,0.9,2.1,1.4,3.1c0.7,1.7,1.5,3.4,2.2,5.1
			c0.2,0.5,0.3,0.9,0.5,1.4c0.2,0.5,0.4,0.9,0.6,1.4c0.2,0.5,0.4,0.9,0.7,1.4c0.2,0.5,0.4,1,0.6,1.5c1.6,4.4,3.2,8.9,5.2,13.1
			c0.8,2.6,1.9,5.2,2.9,7.7c0.1,0.4,0.2,0.7,0.4,1c0.1,0.3,0.2,0.7,0.4,1c0.3,0.9,0.6,1.8,1,2.6c0.1,0.2,0.2,0.5,0.2,0.7
			c0.1,0.2,0.2,0.4,0.2,0.6c0.1,0.2,0.1,0.3,0.2,0.5c0.1,0.3,0.3,0.6,0.4,0.9V534c0-4.8,0.4-9.6,0.4-14.3c0.1-1.6,0.2-3.1,0.2-4.7
			c0.1-1.6,0.2-3.2,0.2-4.8c0-0.6,0-1.1,0-1.7c0.1-0.5,0.1-1,0.1-1.6c0.1-0.6,0.1-1.1,0.1-1.7c0.1-1.5,0.2-3.1,0.2-4.6
			c0-0.5,0-1,0.1-1.5c0-0.5,0-0.9,0.1-1.4c0-0.5,0-0.9,0.1-1.4c0-0.4,0-0.8,0.1-1.2c0-0.4,0-0.8,0.1-1.3c0-0.3,0-0.7,0.1-1.1
			c0-0.4,0-0.7,0.1-1c0-0.4,0-0.7,0.1-1c0-0.3,0-0.6,0.1-0.9c0-0.3,0-0.6,0.1-0.8c0-0.2,0-0.5,0.1-0.7c0-0.2,0-0.4,0.1-0.5
			c0-0.1,0-0.3,0.1-0.4c0-0.1,0-0.1,0.1-0.3c0.1-0.6,2-0.6,2.4-0.6c0.3-0.1,0.7-0.1,1.1-0.1c0.4-0.1,0.8-0.1,1.1-0.1
			c1.8,0,3.6,0,5.4-0.2c1.9,0.1,3.8,0.2,5.7,0.2c0.4,0.1,0.8,0.1,1.2,0.1c0.4,0.1,0.8,0.1,1.2,0.2c1.3-0.1,2.5,0.2,3.5,0.8v0.1
			c0.2,0.2,0.2,0.4,0.2,0.7c0.2,0.7,0.2,1.6,0.2,2.3c0.1,0.7,0.2,1.4,0.2,2.1c0.1,0.8,0.2,1.6,0.2,2.4c0.1,1,0.2,2,0.2,3
			c0.1,1.1,0.2,2.2,0.2,3.2c0.1,1.2,0.2,2.4,0.2,3.7c0.1,1.3,0.2,2.6,0.2,3.9c0,0.5,0,0.9,0,1.3c0.1,1.4,0.2,2.9,0.2,4.3
			c0.1,1.5,0.2,3,0.2,4.5c0.2,2.6,0.2,5.2,0.2,7.8c0.1,1.6,0.2,3.2,0.2,4.8c1.5,18.8,0.7,38.1,0.7,56.9v0.1
			c-0.3,0.3-0.7,0.4-1.1,0.4c-0.3,0.1-0.5,0.1-0.7,0.1c-0.3,0.1-0.5,0.1-0.8,0.1c-0.3,0.1-0.7,0.1-1,0.1c-6.8,0.6-13.6,0-20.4,0
			c-0.4-0.1-0.8-0.1-1.2-0.1c-1-0.1-1.9-0.2-2.8-0.3c-0.3,0-0.5,0-0.7-0.1c-0.2,0-0.4,0-0.6-0.1c-0.2,0-0.3,0-0.4-0.1
			c-0.1,0-0.2,0-0.2-0.1c-0.1,0-0.1,0-0.2-0.1c-0.2-0.3-0.4-0.7-0.5-1.1c-0.1-0.2-0.2-0.3-0.2-0.5c-0.1-0.2-0.2-0.5-0.2-0.7
			c-0.1-0.3-0.2-0.6-0.3-0.8c-0.8-2.1-1.4-4.4-2.2-6.5c-2.7-8.9-5.3-17.8-8.3-26.6c-0.1-0.4-0.2-0.8-0.3-1.3
			c-0.2-0.4-0.3-0.8-0.4-1.2c-0.7-2.1-1.3-4.2-1.9-6.3c-0.1-0.2-0.2-0.5-0.2-0.8c-0.1-0.2-0.1-0.4-0.2-0.6c-0.1-0.5-0.3-1-0.5-1.5
			v-0.1v0.1c0,3.4,0.3,6.8,0.3,10.1c1,11.9,0.4,24.2,0.4,36c-0.1,0.2-0.1,0.3-0.1,0.5c0,0.3-0.1,0.6-0.2,0.9
			c-0.1,0.1-0.2,0.1-0.2,0.2c-0.2,0.1-0.3,0.1-0.5,0.1c-0.2,0.1-0.4,0.1-0.6,0.1c-0.3,0.1-0.5,0.1-0.8,0.1c-0.3,0.1-0.6,0.1-0.9,0.1
			C111.8,589.5,102.9,588.4,94.2,588.3L94.2,588.3L94.2,588.3z"/>
		<path fill="#020202" d="M170.2,587.8L170.2,587.8c0-0.6,0.1-1,0.2-1.5c0-0.1,0-0.3,0-0.4c0.1-0.2,0.1-0.3,0.2-0.5
			c0.4-2.5,1.2-5,1.6-7.5c0.1-0.3,0.2-0.6,0.2-1c0.1-0.4,0.2-0.7,0.2-1c0.1-0.4,0.2-0.7,0.3-1c1.6-6.5,3.4-12.9,4.9-19.3
			c0.5-1.4,0.8-2.9,1.1-4.4c0.2-0.5,0.3-1,0.4-1.6c0.2-0.5,0.3-1,0.4-1.5c0.2-0.5,0.3-1,0.4-1.5c0.2-0.5,0.3-1,0.4-1.6
			c0.2-0.5,0.3-1,0.4-1.5c0.2-0.5,0.3-1,0.4-1.6c0.2-0.5,0.3-1,0.4-1.5c0.2-0.5,0.3-1,0.4-1.6c0.2-0.5,0.3-1,0.4-1.5
			c0.2-0.5,0.3-1,0.4-1.6c0.2-0.5,0.3-1,0.4-1.6c0.2-0.5,0.3-1,0.5-1.5c0.1-0.5,0.2-1,0.4-1.6c0.1-0.5,0.2-1,0.4-1.5
			c0.1-0.5,0.2-1,0.4-1.6c0.1-0.5,0.2-1,0.4-1.5c0.1-0.5,0.2-1,0.4-1.5c0.1-0.5,0.2-1,0.4-1.5c0.1-0.5,0.2-1,0.4-1.5
			c0.1-0.5,0.2-1,0.4-1.5c0.1-0.5,0.2-1,0.4-1.5c0.1-0.5,0.2-0.9,0.3-1.4c0.2-0.5,0.3-0.9,0.4-1.4c0.5-1.4,0.8-2.8,1.1-4.2
			c1.9-5.4,3.7-11.4,4.8-17.1c0.1-0.3,0.2-0.6,0.2-0.8c0.1-0.3,0.2-0.6,0.2-0.9c0.6-1.7,0.9-3.8,1.7-5.4c0.1-0.1,0.1-0.1,0.1-0.3
			c0.1-0.1,0.2-0.3,0.2-0.4c0.1-0.1,0.2-0.1,0.3-0.2c0.2-0.1,0.3-0.1,0.5-0.2c0.2-0.1,0.5-0.1,0.7-0.1c0.3-0.1,0.5-0.1,0.8-0.2
			c0.4,0,0.7,0,1.1-0.1c0.4,0,0.8,0,1.1-0.1c0.4,0,0.9,0,1.3-0.1c4.1,0.1,8.2-0.4,12.3,0.2c0.4,0,0.7,0,1.1,0
			c0.3,0.1,0.6,0.1,0.9,0.1c0.3,0.1,0.5,0.1,0.7,0.1c0.2,0.1,0.4,0.1,0.6,0.2c0.1,0,0.2,0,0.3,0.1v0.1c0.1,0,0.1,0,0.1,0.1
			c0.1,0.1,0.1,0.1,0.1,0.2c0.1,0.1,0.1,0.1,0.1,0.3c0.1,0.1,0.1,0.2,0.2,0.3c0,0.1,0,0.2,0.1,0.4c0.1,0.2,0.1,0.3,0.2,0.4
			c0.2,0.7,0.5,1.4,0.7,2.2c0.3,0.7,0.5,1.4,0.7,2.2c0.1,0.3,0.2,0.6,0.2,0.9c0.1,0.3,0.2,0.6,0.2,0.9c0.1,0.3,0.2,0.6,0.3,0.9
			c1.8,6.9,4.2,13.7,5.6,20.7c0.2,0.5,0.3,0.9,0.4,1.4c0.4,1.5,0.8,3,1.2,4.5c0.1,0.5,0.2,1,0.4,1.5c0.1,0.5,0.2,1,0.4,1.6
			c0.1,0.5,0.2,1,0.4,1.5c0.1,0.5,0.2,1,0.3,1.6c0.2,0.5,0.3,1,0.4,1.5c0.2,0.5,0.3,1,0.5,1.6c0.1,0.5,0.2,1,0.4,1.6
			c0.1,0.5,0.2,1,0.4,1.6c0.1,0.5,0.2,1,0.4,1.6c0.1,0.5,0.2,1,0.4,1.6c0.1,0.5,0.2,1,0.4,1.6c0.1,0.5,0.2,1,0.4,1.6
			c0.1,0.5,0.2,1,0.4,1.5c0.1,0.5,0.2,1,0.3,1.6c0.2,0.5,0.3,1,0.4,1.6c0.2,0.5,0.3,1,0.4,1.6c0.2,0.5,0.3,1,0.4,1.5
			c0.4,1.5,0.8,3,1.1,4.5c2,7.4,3.3,15,5.6,22.3c0.1,0.4,0.1,0.7,0.2,1c0.1,0.4,0.1,0.7,0.2,1c0.1,0.3,0.1,0.7,0.2,1
			c0.2,2,0.8,4.2,1.4,6.1c0.1,0.5,0.1,1,0.2,1.5c0,0.4,0.2,1.1,0.2,1.4c-0.1,0.1-0.1,0.2-0.2,0.3c-0.1,0.1-0.2,0.1-0.4,0.2
			c-0.2,0.1-0.4,0.1-0.6,0.1c-0.3,0.1-0.5,0.1-0.8,0.2c-0.3,0-0.6,0-0.9,0.1c-0.4,0.1-0.7,0.1-1.1,0.1c-5,0.4-10,0-15,0
			c-0.4-0.1-0.8-0.1-1.2-0.1c-0.3-0.1-0.7-0.1-1.1-0.1c-0.3-0.1-0.6-0.1-0.9-0.2c-1,0-2-0.2-2.4-1.1c-0.1-0.2-0.1-0.4-0.2-0.6
			c-2.5-7.7-4.2-15.9-5.3-24c-0.4-1.2-0.6-2.4-0.7-3.7c-0.1-0.2-0.1-0.3-0.2-0.4c0.1-0.4-0.1-0.7-0.5-0.6c-0.2,0-0.4,0-0.7-0.1
			c-1.2-0.2-2.3-0.2-3.5-0.2c-1.6-0.2-6.4-0.4-8.5,0.5c-0.2,0.1-0.3,0.1-0.4,0.3v0.1c-0.1,0.1-0.1,0.2-0.1,0.3
			c-0.1,0.2-0.1,0.3-0.1,0.5c-0.3,1.2-0.6,2.5-0.7,3.8c-0.1,0.4-0.2,0.8-0.2,1.2c-0.1,0.5-0.2,0.9-0.3,1.4c-0.5,4.4-2.4,13.7-4,18.9
			c-0.1,0.3-0.1,0.7-0.2,1c-0.1,0.3-0.1,0.6-0.2,0.8c-0.1,0.2-0.2,0.5-0.2,0.7c-0.1,0.2-0.1,0.3-0.2,0.4c0,0.1,0,0.2-0.1,0.3
			c-0.1,0.1-0.2,0.2-0.2,0.2c-0.2,0.1-0.3,0.1-0.5,0.2c-1.6,0.3-3.2,0.6-4.8,0.8c-1.4,0.1-2.7,0.2-4.1,0.3c-2.8,0.3-5.6,0.1-8.5,0.1
			c-0.4-0.1-0.8-0.1-1.2-0.1c-0.4-0.1-0.8-0.1-1.1-0.1c-0.3-0.1-0.6-0.1-0.9-0.2c-0.7-0.1-1.3-0.3-2-0.5
			C170.4,588,170.3,588,170.2,587.8z M212.1,547.7c0.1-0.1,0-0.3-0.1-0.5c-0.1-0.2-0.1-0.3-0.1-0.5c-1.1-4.6-1.9-9.3-2.5-14
			c-0.3-1.3-0.5-2.6-0.7-3.8c-0.6-2.5-0.9-5.2-1.2-7.8c-0.2-0.4-0.2-0.8-0.2-1.3c-0.6-0.1-0.8,0.3-0.6,1.3c-0.1,0.4-0.2,0.8-0.2,1.3
			c-0.3,1.8-0.6,3.6-0.9,5.4c-0.1,0.4-0.1,0.8-0.2,1.3c-0.1,0.5-0.1,0.9-0.2,1.4c-0.1,0.4-0.1,0.8-0.2,1.3c-0.1,0.5-0.1,0.9-0.2,1.3
			c-0.1,0.5-0.1,0.9-0.2,1.3c-0.1,0.4-0.1,0.8-0.2,1.3c-0.1,0.4-0.1,0.8-0.2,1.2c-0.3,1.2-0.5,2.3-0.7,3.5c-0.8,2.6-3,8,1,8
			c1.3,0,2.7-0.1,4-0.2c0.4-0.1,0.9-0.1,1.3-0.2c0.3,0,0.7,0,1.1-0.1C211.2,547.9,211.7,547.8,212.1,547.7
			C212.2,547.6,212,547.8,212.1,547.7z"/>
		<path fill="#020202" d="M276.1,486.3c3.3,0.2,6.5,0.5,9.8,1c0.4,0.1,0.9,0.2,1.3,0.3c0.4,0.1,0.8,0.2,1.2,0.3
			c2.5,0.7,5.5,1.4,7.6,3c0.3,0.2,0.6,0.3,0.9,0.5c0.3,0.2,0.6,0.4,0.9,0.6c0.3,0.2,0.5,0.4,0.8,0.6c0.8,0.6,1.6,1.3,2.3,2.1
			c0.2,0.2,0.4,0.5,0.7,0.8c0.2,0.2,0.4,0.5,0.6,0.8c0.2,0.3,0.4,0.6,0.6,0.9c0.2,0.3,0.4,0.6,0.5,0.9c0.2,0.3,0.3,0.6,0.5,1
			c0.6,1.3,1,2.7,1.3,4.1c0.9,4.8,0.4,10.2-2.2,14.4c-0.2,0.3-0.4,0.7-0.6,1c-0.3,0.3-0.5,0.7-0.7,1c-1.4,2.1-3.7,3.6-5.8,5
			c-0.3,0.2-0.6,0.3-0.9,0.4c-0.3,0.2-0.6,0.3-0.9,0.4c-0.3,0.2-0.5,0.3-0.8,0.3c-0.4,0-0.7,0.1-0.9,0.3c-0.1,0.1,0.1,0.1,0.6,0.2
			c0.2,0,0.3,0.1,0.5,0.2c0.2,0.1,0.4,0.2,0.7,0.3c0.7,0.3,1.3,0.6,2,0.9c0.2,0.1,0.4,0.2,0.7,0.3c0.3,0.2,0.5,0.3,0.7,0.4
			c0.3,0.1,0.5,0.3,0.7,0.4c0.8,0.5,1.6,1.1,2.4,1.7c0.3,0.2,0.5,0.4,0.7,0.6c0.3,0.2,0.5,0.4,0.8,0.6c0.3,0.3,0.5,0.6,0.8,0.8
			c0.2,0.2,0.5,0.5,0.7,0.8c0.3,0.2,0.5,0.5,0.7,0.8c6,8.3,7.4,16.4,7.4,26.4c-0.1,1.7-0.4,3.4-0.7,5.1c-0.5,1.9-1.1,3.8-1.8,5.7
			c-3.5,6.6-7.6,11.8-15.4,14.6c-0.4,0.2-0.8,0.3-1.1,0.4c-3.9,2.1-9.2,2.2-13.3,2.7c-0.4,0-0.9,0-1.3,0.1
			c-7.1-0.1-14.2-0.1-21.2-0.1c-0.3-0.1-0.7-0.1-1-0.1c-0.3-0.1-0.5-0.1-0.8-0.1c-0.3-0.1-0.5-0.1-0.8-0.2c-0.7,0-1.3-0.1-2-0.4
			c-0.2-0.1-0.3-0.1-0.5-0.2c-0.6,0-1.2-0.3-1.6-0.7c-0.6-0.6-1-0.7-1-1.5c-0.1-0.1-0.1-0.2-0.1-0.3c-0.1-0.5-0.2-1-0.2-1.5
			c0-0.2,0-0.3,0-0.5c-0.1-0.7-0.2-1.5-0.2-2.2c-0.1-0.3-0.1-0.6-0.1-0.8c-0.1-0.9-0.2-1.8-0.2-2.7c-0.1-1-0.2-2.1-0.2-3.1
			c-0.2-2-0.2-4-0.2-6c-2.3-25.1-0.2-50.6-0.2-75.7c0.1-0.2,0.1-0.4,0.1-0.6c0.1-0.5,0.1-1.1,0.2-1.6c0-0.2,0-0.3,0-0.4
			c0.1-0.1,0.1-0.2,0.1-0.4c0.1-0.1,0.1-0.2,0.1-0.3c0.1-0.1,0.1-0.1,0.1-0.2c0.1-0.1,0.1-0.1,0.1-0.2l0.1-0.1
			c0.3-0.3,0.6-0.5,1-0.6c1.2-1.2,3.9-1.3,5.5-1.7c0.9-0.1,1.9-0.2,2.8-0.3c0.4-0.1,0.8-0.1,1.1-0.1
			C264.6,486,270.4,486.4,276.1,486.3C277,486.3,275.3,486.3,276.1,486.3z M273.1,504.7c-0.1,0.1-0.1,0.4-0.1,0.7c0,0.4,0,0.7,0,1
			c-0.1,0.5-0.1,0.9,0,1.3c0.1,1.4,0.1,2.8,0.1,4.2c0,1.6,0.7,2.3,1.9,1.8c1.3-0.2,2.3-0.8,3.2-1.8c0.3-0.3,0.5-0.6,0.6-1
			c0.4-2.2-0.2-3.9-1.8-5C275.6,505.6,274.3,505.2,273.1,504.7C272.9,504.9,273.2,504.7,273.1,504.7z M274.3,539.6
			c-0.1,0.1-0.1,0.2,0,0.4c0.1,0.2,0.1,0.4,0,0.6c0,0.2,0,0.5,0,0.8c0.8,4.4,0.4,9.6,0.4,14.1c0.1,1.4,0.2,2.8,0.2,4.2
			c0.1,1.2,0.2,2.4,0.2,3.6c0.1,0.9,0.2,1.7,0.2,2.6c0.1,0.2,0.1,0.4,0.1,0.6c-0.1,0.2,0,0.3,0.1,0.3c2.5,1,6.5-1,8.4-2.4
			c0.3-0.3,0.6-0.6,0.9-0.9c0.3-0.3,0.6-0.6,0.8-1c1.7-2.3,2-4.9,2-7.7c-0.1-0.7-0.1-1.4-0.2-2.1c-0.1-0.6-0.2-1.3-0.3-1.9
			c-0.5-2.7-1.6-5-3.3-7c-0.3-0.3-0.5-0.7-0.8-1c-0.3-0.3-0.7-0.6-1-0.8c-0.8-0.8-1.7-1.4-2.8-1.7c-0.3-0.1-0.6-0.2-0.9-0.4
			c-0.9-0.5-1.9-0.7-2.9-0.6c-0.2,0.1-0.4,0.1-0.6,0C274.6,539.5,274.4,539.5,274.3,539.6C274.2,539.6,274.3,539.5,274.3,539.6z"/>
		<path fill="#020202" d="M319.2,488.5c0.1-0.1,0.1-0.1,0.2-0.2c0.1,0,0.2,0,0.3-0.1c0.2-0.1,0.3-0.1,0.4-0.2c0.2,0,0.4,0,0.6-0.1
			c0.2-0.1,0.4-0.1,0.6-0.2c1.5-0.1,3-0.4,4.5-0.6c1.2-0.1,2.3-0.2,3.5-0.3c0.4-0.1,0.8-0.1,1.2-0.2c0.4,0,0.9,0,1.3-0.1
			c0.5,0,0.9,0,1.4-0.1c0.4,0,0.9,0,1.4-0.1c0.5,0,0.9,0,1.4,0c0.5-0.1,1-0.1,1.5-0.1c6.4-0.4,12.8-0.2,19.3-0.2c1,0.1,2,0.2,3,0.3
			c0.8,0,1.6,0.1,2.4,0.3c0.2,0,0.4,0,0.6,0.1c0.6,0.1,1,0.3,1.4,0.7c0.1,0.2,0.2,0.3,0.2,0.5c0.1,0.2,0.2,0.5,0.2,0.8
			c0.6,2.4,0.9,4.9,1,7.3c0,0.5,0,1,0.1,1.5c0,0.5,0,1,0.1,1.5c-0.1,2.2-0.1,4.5-0.1,6.7c-0.1,0.4-0.1,0.7-0.2,1
			c0,0.8-0.2,1.5-0.4,2.2c-0.1,0.1-0.1,0.2-0.2,0.3c-0.2,0.1-0.3,0.2-0.5,0.3c-0.3,0.1-0.5,0.1-0.8,0.1c-1.8,0.1-3.5,0.1-5.3,0
			c-0.5-0.1-1-0.1-1.5-0.1c-0.5-0.1-0.9-0.1-1.4-0.2c-1.1-0.1-2.9-0.4-4.1-0.4v0.1c0,9.9-0.5,19.9,0.3,29.7c0,0.6,0,1.2,0.1,1.8
			c0,0.6,0,1.2,0.1,1.7c0,0.6,0,1.2,0.1,1.8c0.1,5.4,0.6,11.2,1.5,16.4c0,0.2,0,0.5,0.1,0.7c0,0.2,0,0.4,0.1,0.6c0,0.1,0,0.3,0,0.4
			c0.1,0.3,0.2,0.6,0.2,0.9v0.1c0.1,0,0.1,0,0.2-0.1c0.2,0,0.4,0,0.6-0.1c2.5-0.5,5-0.9,7.6-1c1.3,0,4.2-0.4,5.3,0.8
			c0.1,0.1,0.1,0.3,0.2,0.4c0.1,0.2,0.2,0.3,0.2,0.5c0.3,1.7,0.5,3.4,0.7,5.2c0,0.5,0,0.9,0.1,1.4c0,0.5,0,0.9,0.1,1.4
			c0,0.5,0,1,0.1,1.5c0.1,3,0,5.9-0.2,8.8c0,0.5,0,0.9-0.1,1.3c-0.1,1.3,0,3.3-0.7,4.5c-0.2,0.6-0.9,0.8-1.5,0.8
			c-0.2,0.1-0.4,0.1-0.6,0.2c-0.2,0-0.4,0-0.6,0.1c-0.3,0-0.5,0-0.7,0.1c-0.3,0-0.5,0-0.8,0.1c-0.3,0-0.6,0-0.9,0
			c-0.3,0.1-0.7,0.1-1,0.1c-1.1,0.1-2.2,0.2-3.3,0.2c-11.3,1.2-22.9-0.1-34.2-0.1c-1-0.1-2.1-0.2-3.1-0.2c-0.3-0.1-0.5-0.1-0.8-0.1
			c-0.3-0.1-0.5-0.1-0.8-0.1c-0.3-0.1-0.5-0.1-0.7-0.1c-0.2-0.1-0.4-0.1-0.7-0.1c-0.2-0.1-0.4-0.1-0.6-0.1c-0.2-0.1-0.3-0.1-0.5-0.1
			c-0.1-0.1-0.2-0.1-0.3-0.1c-0.1-0.1-0.2-0.1-0.3-0.1c-0.2-0.3-0.4-0.7-0.6-1c-0.1-0.3-0.1-0.6-0.2-0.8c-0.8-4.6-0.6-9.3-0.6-13.9
			c0.1-0.5,0.1-1,0.1-1.5c0.1-0.5,0.1-1,0.2-1.5c0-1.8,0.3-3.6,0.9-5.3c0.1-0.2,0.1-0.3,0.2-0.5c0.1-0.2,0.2-0.3,0.3-0.3
			c0.2-0.1,0.4-0.2,0.7-0.3c0.3-0.1,0.7-0.2,1-0.2c0.4-0.1,0.8-0.1,1.1,0c0.4,0,0.9,0,1.3,0c2.6,0.3,5.3,0.7,7.8,1.3
			c0.1,0,0.1,0,0.2,0v-0.1c0-0.1,0-0.1,0-0.2c0.3-0.7,0.1-1.8,0.3-2.5c0-0.3,0-0.6,0.1-0.8c0-0.3,0-0.6,0.1-1c0-0.3,0-0.6,0.1-1
			c0.1-1.2,0.2-2.3,0.3-3.5c0-1.4,0.2-2.7,0.3-4.1c0-0.5,0-1,0.1-1.5c0.1-1.6,0.2-3.2,0.2-4.8c0.1-0.6,0.1-1.1,0.2-1.7
			c0-0.6,0-1.2,0.1-1.7c0-0.6,0-1.2,0.1-1.8c0-0.6,0-1.2,0-1.7c0.1-0.6,0.1-1.3,0.1-1.8c0.3-8.7,0.4-17.3,0.2-26c-0.1,0-0.1,0-0.2,0
			c-0.2,0.1-0.3,0.1-0.5,0.2c-3.6,0-6.7,1.2-10.3,0.6c-2.8-1-2.6-2.2-2.9-4.6c0-0.4,0-0.8-0.1-1.2c-0.1-1.9,0-3.7,0.1-5.6
			c0.1-0.5,0.1-1,0.1-1.5c0.3-2.2,0.6-4.5,0.9-6.7c0.1-0.4,0.2-0.7,0.2-1c0.1-0.3,0.2-0.6,0.3-0.8c0.1-0.2,0.1-0.5,0.2-0.7
			C319,488.7,319.1,488.6,319.2,488.5C319.2,488.4,319.1,488.6,319.2,488.5C319.2,488.4,319.1,488.6,319.2,488.5z"/>
		<path fill="#020202" d="M371.9,487.2c0.2-0.1,0.3-0.1,0.5-0.2c1.6-0.4,3.2-0.6,4.8-0.7c0.4-0.1,0.9-0.1,1.3-0.1
			c3.5-0.3,7.5-0.4,11.1,0.1c0.4,0,0.8,0,1.2,0.1c0.9,0.1,1.8,0.2,2.7,0.3c0.2,0.1,0.4,0.1,0.6,0.2c0.1,0.1,0.2,0.1,0.4,0.3
			c0.1,0,0.1,0.1,0.1,0.2c0.1,0.1,0.1,0.1,0.2,0.3c0.1,0.2,0.2,0.3,0.2,0.4c0.1,0.2,0.1,0.4,0.2,0.6c0.3,1.6,0.8,3.1,1,4.6
			c0.1,0.4,0.2,0.7,0.2,1.1c0.3,1.3,0.5,2.7,0.7,4c0.1,0.5,0.1,1,0.2,1.5c0.1,0.5,0.1,1,0.2,1.5c0.1,0.5,0.2,1,0.2,1.5
			c0.1,0.5,0.2,1,0.2,1.6c0.1,0.5,0.2,1.1,0.2,1.7c0.1,0.5,0.2,1,0.2,1.6c0.2,1.6,0.5,3.2,0.7,4.8c0.1,0.5,0.1,1.1,0.2,1.7
			c1,5.5,0.6,11.9,2.3,17.2c0,0.1,0,0.2,0,0.3c0.1,0.1,0.1,0.1,0.1,0.2v0.1v-0.1c0-0.1,0-0.1,0.1-0.2c0-0.1,0-0.2,0.1-0.3
			c0.1-0.2,0.1-0.3,0.2-0.4c0.2-0.7,0.4-1.4,0.7-2.1c0.1-0.4,0.2-0.7,0.2-1c0.5-1.5,1-2.9,1.4-4.5c0.2-0.4,0.3-0.8,0.4-1.2
			c0.2-0.5,0.3-0.9,0.5-1.3c2.1-8.1,5-16.1,8.1-23.9c0.1-0.3,0.2-0.7,0.4-1c0.4-0.9,0.8-1.7,1.1-2.6c0.1-0.2,0.2-0.4,0.3-0.6
			c0.1-0.2,0.2-0.4,0.3-0.6c0.1-0.1,0.2-0.3,0.2-0.4c0.3-0.5,0.5-0.6,0.8-0.4c0.1,0.1,0.2,0.1,0.2,0.3c0.1,0.1,0.2,0.2,0.2,0.3
			c0.1,0.2,0.2,0.4,0.2,0.6c0.6,1,1,2.1,1.4,3.2c0.2,0.4,0.3,0.7,0.4,1c0.2,0.4,0.3,0.7,0.4,1.1c0.2,0.4,0.3,0.8,0.4,1.2
			c3,6.5,4.2,13.9,6.6,20.6c0.1,0.5,0.2,0.9,0.4,1.4c0.1,0.5,0.2,0.9,0.4,1.4c0.1,0.5,0.2,0.9,0.4,1.4c0.1,0.4,0.2,0.8,0.3,1.2
			c0.4,1.4,0.8,2.9,1.3,4.3c0.1,0.3,0.1,0.6,0.2,0.9c0.3,0.6,0.4,1.2,0.5,1.8c0.1,0.1,0.1,0.2,0.2,0.3c0.1,0.3,0.1,0.4,0.1,0.2
			c0.1-0.3,0.1-0.7,0.1-1c0.1-0.2,0.1-0.4,0.1-0.6c0.1-0.2,0.1-0.5,0.2-0.7c0-0.3,0-0.6,0.1-0.8c0.1-0.4,0.1-0.7,0.2-1
			c0-4.4,1.3-9,1.8-13.4c0.1-0.5,0.2-1,0.2-1.6c0.1-0.5,0.2-1,0.2-1.6c0.2-1.6,0.5-3.2,0.7-4.8c0.1-0.5,0.1-1,0.2-1.6
			c0.1-0.5,0.1-1,0.2-1.6c0.1-0.5,0.1-1,0.2-1.6c0.1-0.5,0.1-1,0.2-1.5c0.1-0.5,0.1-1,0.2-1.5c0.1-0.5,0.1-1,0.2-1.5
			c0.1-0.5,0.1-0.9,0.2-1.3c0.1-0.5,0.1-0.9,0.2-1.3c0.3-1.2,0.5-2.3,0.7-3.5c0.5-1.5,0.7-3,1.1-4.5c0-0.1,0-0.2,0.1-0.3
			c0.1-0.1,0.1-0.2,0.2-0.2c0.1-0.1,0.2-0.2,0.3-0.3c0.2-0.1,0.4-0.1,0.6-0.2c2.2-0.5,4.4-0.8,6.7-0.8c0.5-0.1,1-0.1,1.5-0.1
			c3.5-0.2,7.1-0.4,10.7,0.1c0.7,0,1.4,0.2,2,0.4c0.1,0,0.1,0.1,0.2,0.2v0.1c0,0.1,0,0.1,0.1,0.1c0,4.1-0.4,8.2-0.4,12.2
			c-0.1,0.4-0.1,0.8-0.1,1.1c-0.1,1.2-0.2,2.4-0.2,3.6c0,0.4,0,0.8-0.1,1.2c0,0.5,0,0.9-0.1,1.3c0,0.4,0,0.8-0.1,1.3
			c0,0.5,0,0.9-0.1,1.3c0,0.5,0,0.9-0.1,1.4c0,0.5,0,0.9-0.1,1.4c-0.1,1.5-0.2,2.9-0.2,4.4c-0.1,0.5-0.1,1-0.2,1.5
			c0,0.5,0,1-0.1,1.5c0,1.6-0.1,3.1-0.3,4.6c0,1.6-0.1,3.2-0.3,4.7c-0.2,3.7-0.4,7.5-0.8,11.2c-0.2,9.4-1.1,19.2-2.3,28.4
			c-0.1,2-0.3,4.1-0.6,6.1c-0.1,1.1-0.2,2.2-0.2,3.3c-0.1,0.3-0.1,0.6-0.2,1c0,0.3,0,0.6-0.1,1c-0.1,0.9-0.2,1.8-0.2,2.6
			c-0.1,0.2-0.1,0.5-0.1,0.8c-0.1,0.2-0.1,0.5-0.1,0.7c-0.1,0.2-0.1,0.4-0.1,0.6c-0.1,0.2-0.1,0.5-0.1,0.7c-0.1,0.2-0.1,0.3-0.1,0.5
			c-0.1,0.2-0.1,0.3-0.1,0.5c-0.1,0.1-0.1,0.3-0.1,0.4c-0.1,0.3-0.2,0.7-0.2,1c-0.1,0.1-0.2,0.3-0.2,0.4c-0.1,0.1-0.2,0.1-0.3,0.1
			c-0.1,0.1-0.2,0.1-0.4,0.2c-0.2,0.1-0.4,0.1-0.7,0.1c-0.3,0.1-0.5,0.1-0.7,0.1c-0.3,0.1-0.7,0.1-1,0.1c-1.1,0.1-2.3,0.2-3.4,0.2
			c-6.3,0.8-14.4,0.1-21.2-0.1c-0.5-0.8-0.8-1.7-1-2.5c-0.1-0.3-0.2-0.6-0.2-0.9c-0.1-0.3-0.2-0.7-0.3-1c-1.6-7.3-2.8-14.6-4.3-22
			c-0.1-0.5-0.1-1-0.2-1.5c-0.1-0.5-0.1-0.9-0.2-1.4c-0.1-0.5-0.1-0.9-0.2-1.4c-0.1-0.4-0.1-0.8-0.2-1.3c-0.2-1.7-0.5-3.5-0.8-5.2
			c-0.1-0.2-0.1-0.4-0.2-0.6c0-0.2,0-0.4-0.1-0.6c0-0.1,0-0.2-0.1-0.4c0-0.1,0-0.2,0-0.3v-0.1v0.1c0,0.1,0,0.1-0.1,0.3
			c0,0.1,0,0.3-0.1,0.4c0,0.2,0,0.3-0.1,0.5c-0.1,0.2-0.1,0.5-0.1,0.8c-0.3,2.2-0.6,4.4-1.1,6.6c-0.3,1.5-0.5,3-0.7,4.5
			c-0.2,1.6-0.5,3.2-0.8,4.8c-0.2,1.6-0.5,3.2-0.8,4.8c-0.2,1.6-0.4,3.1-0.8,4.6c-0.2,1.4-0.5,2.8-0.7,4.2c-0.1,0.4-0.2,0.8-0.2,1.2
			c-0.3,1-0.5,2-0.7,3.1c-0.2,0.7-0.4,1.3-0.6,2c-0.1,0.1-0.1,0.2-0.2,0.3c-0.2,0.2-0.4,0.4-0.7,0.4c-0.2,0-0.4,0-0.6,0.1
			c-0.2,0.1-0.5,0.1-0.7,0.1c-0.3,0.1-0.5,0.1-0.8,0.2c-0.3,0-0.7,0-1,0.1c-0.4,0-0.7,0-1.1,0.1c-0.4,0-0.8,0-1.2,0.1
			c-0.4,0-0.8,0-1.2,0.1c-0.4,0-0.9,0-1.3,0.1c-0.5,0-0.9,0-1.4,0c-0.5,0.1-1,0.1-1.5,0.1c-4.8,0.6-9.6,0-14.4,0
			c-0.3-0.1-0.6-0.1-0.9-0.1c-0.2-0.1-0.5-0.1-0.7-0.1c-0.2-0.1-0.4-0.1-0.6-0.2c-0.1,0-0.2,0-0.4-0.1c-0.1-0.1-0.2-0.1-0.2-0.2
			c-0.1,0-0.1,0-0.1-0.1v-0.1c-0.1-0.1-0.1-0.2-0.1-0.3c-0.1-0.1-0.1-0.1-0.1-0.3c-0.1-0.4-0.2-0.8-0.2-1.2c0-0.2,0-0.3-0.1-0.5
			c0-0.2,0-0.4-0.1-0.5c-0.1-0.2-0.1-0.4-0.1-0.6c-0.1-0.2-0.1-0.5-0.1-0.7c-0.1-0.2-0.1-0.5-0.2-0.8c0-0.8-0.2-1.6-0.3-2.4
			c-2-23.5-4.1-47.1-6.8-70.5c-0.1-1.3-0.2-2.7-0.2-4c-0.1-0.4-0.1-0.8-0.2-1.3c0-0.4,0-0.8-0.1-1.2c0-0.4,0-0.8-0.1-1.2
			c0-0.4,0-0.7-0.1-1.1c0-0.4,0-0.8-0.1-1.1c0-0.4,0-0.8-0.1-1.1c0-0.4,0-0.7-0.1-1c0-0.4,0-0.7,0-1c-0.1-0.9-0.2-1.9-0.2-2.8
			C371.5,492.9,370.7,487.8,371.9,487.2C372.1,487.1,371.8,487.2,371.9,487.2C372.1,487.1,371.8,487.2,371.9,487.2z"/>
		<path fill="#020202" d="M463.1,587.8L463.1,587.8c0-0.6,0.1-1,0.2-1.5c0-0.1,0-0.3,0-0.4c0.1-0.2,0.1-0.3,0.2-0.5
			c0.4-2.5,1.2-5,1.6-7.5c0.1-0.3,0.2-0.6,0.2-1c0.1-0.4,0.2-0.7,0.2-1c0.1-0.4,0.2-0.7,0.3-1c1.6-6.5,3.4-12.9,4.9-19.3
			c0.5-1.4,0.8-2.9,1.1-4.4c0.2-0.5,0.3-1,0.4-1.6c0.2-0.5,0.3-1,0.4-1.5c0.2-0.5,0.3-1,0.4-1.5c0.2-0.5,0.3-1,0.4-1.6
			c0.2-0.5,0.3-1,0.4-1.5c0.2-0.5,0.3-1,0.4-1.6c0.2-0.5,0.3-1,0.4-1.5c0.2-0.5,0.3-1,0.4-1.6c0.2-0.5,0.3-1,0.4-1.5
			c0.2-0.5,0.3-1,0.4-1.6c0.2-0.5,0.3-1,0.4-1.6c0.2-0.5,0.3-1,0.5-1.5c0.1-0.5,0.2-1,0.4-1.6c0.1-0.5,0.2-1,0.4-1.5
			c0.1-0.5,0.2-1,0.4-1.6c0.1-0.5,0.2-1,0.4-1.5c0.1-0.5,0.2-1,0.4-1.5c0.1-0.5,0.2-1,0.4-1.5c0.1-0.5,0.2-1,0.4-1.5
			c0.1-0.5,0.2-1,0.4-1.5c0.1-0.5,0.2-1,0.4-1.5c0.1-0.5,0.2-0.9,0.3-1.4c0.2-0.5,0.3-0.9,0.4-1.4c0.5-1.4,0.8-2.8,1.1-4.2
			c1.9-5.4,3.7-11.4,4.8-17.1c0.1-0.3,0.2-0.6,0.2-0.8c0.1-0.3,0.2-0.6,0.2-0.9c0.6-1.7,0.9-3.8,1.7-5.4c0.1-0.1,0.1-0.1,0.1-0.3
			c0.1-0.1,0.2-0.3,0.2-0.4c0.1-0.1,0.2-0.1,0.3-0.2c0.2-0.1,0.3-0.1,0.5-0.2c0.2-0.1,0.5-0.1,0.7-0.1c0.3-0.1,0.5-0.1,0.8-0.2
			c0.4,0,0.7,0,1.1-0.1c0.4,0,0.8,0,1.1-0.1c0.4,0,0.9,0,1.3-0.1c4.1,0.1,8.2-0.4,12.3,0.2c0.4,0,0.7,0,1.1,0
			c0.3,0.1,0.6,0.1,0.9,0.1c0.3,0.1,0.5,0.1,0.7,0.1c0.2,0.1,0.4,0.1,0.6,0.2c0.1,0,0.2,0,0.3,0.1v0.1c0.1,0,0.1,0,0.1,0.1
			c0.1,0.1,0.1,0.1,0.1,0.2c0.1,0.1,0.1,0.1,0.1,0.3c0.1,0.1,0.1,0.2,0.2,0.3c0,0.1,0,0.2,0.1,0.4c0.1,0.2,0.1,0.3,0.2,0.4
			c0.2,0.7,0.5,1.4,0.7,2.2c0.3,0.7,0.5,1.4,0.7,2.2c0.1,0.3,0.2,0.6,0.2,0.9c0.1,0.3,0.2,0.6,0.2,0.9c0.1,0.3,0.2,0.6,0.3,0.9
			c1.8,6.9,4.2,13.7,5.6,20.7c0.2,0.5,0.3,0.9,0.4,1.4c0.4,1.5,0.8,3,1.2,4.5c0.1,0.5,0.2,1,0.4,1.5c0.1,0.5,0.2,1,0.4,1.6
			c0.1,0.5,0.2,1,0.4,1.5c0.1,0.5,0.2,1,0.3,1.6c0.2,0.5,0.3,1,0.4,1.5c0.2,0.5,0.3,1,0.5,1.6c0.1,0.5,0.2,1,0.4,1.6
			c0.1,0.5,0.2,1,0.4,1.6c0.1,0.5,0.2,1,0.4,1.6c0.1,0.5,0.2,1,0.4,1.6c0.1,0.5,0.2,1,0.4,1.6c0.1,0.5,0.2,1,0.4,1.6
			c0.1,0.5,0.2,1,0.4,1.5c0.1,0.5,0.2,1,0.3,1.6c0.2,0.5,0.3,1,0.4,1.6c0.2,0.5,0.3,1,0.4,1.6c0.2,0.5,0.3,1,0.4,1.5
			c0.4,1.5,0.8,3,1.1,4.5c2,7.4,3.3,15,5.6,22.3c0.1,0.4,0.1,0.7,0.2,1c0.1,0.4,0.1,0.7,0.2,1c0.1,0.3,0.1,0.7,0.2,1
			c0.2,2,0.8,4.2,1.4,6.1c0.1,0.5,0.1,1,0.2,1.5c0,0.4,0.2,1.1,0.2,1.4c-0.1,0.1-0.1,0.2-0.2,0.3c-0.1,0.1-0.2,0.1-0.4,0.2
			c-0.2,0.1-0.4,0.1-0.6,0.1c-0.3,0.1-0.5,0.1-0.8,0.2c-0.3,0-0.6,0-0.9,0.1c-0.4,0.1-0.7,0.1-1.1,0.1c-5,0.4-10,0-15,0
			c-0.4-0.1-0.8-0.1-1.2-0.1c-0.3-0.1-0.7-0.1-1.1-0.1c-0.3-0.1-0.6-0.1-0.9-0.2c-1,0-2-0.2-2.4-1.1c-0.1-0.2-0.1-0.4-0.2-0.6
			c-2.5-7.7-4.2-15.9-5.3-24c-0.4-1.2-0.6-2.4-0.7-3.7c-0.1-0.2-0.1-0.3-0.2-0.4c0.1-0.4-0.1-0.7-0.5-0.6c-0.2,0-0.4,0-0.7-0.1
			c-1.2-0.2-2.3-0.2-3.5-0.2c-1.6-0.2-6.4-0.4-8.5,0.5c-0.2,0.1-0.3,0.1-0.4,0.3v0.1c-0.1,0.1-0.1,0.2-0.1,0.3
			c-0.1,0.2-0.1,0.3-0.1,0.5c-0.3,1.2-0.6,2.5-0.7,3.8c-0.1,0.4-0.2,0.8-0.2,1.2c-0.1,0.5-0.2,0.9-0.3,1.4c-0.5,4.5-2.4,13.7-4,18.9
			c-0.1,0.3-0.1,0.7-0.2,1c-0.1,0.3-0.1,0.6-0.2,0.8c-0.1,0.2-0.2,0.5-0.2,0.7c-0.1,0.2-0.1,0.3-0.2,0.4c0,0.1,0,0.2-0.1,0.3
			c-0.1,0.1-0.2,0.2-0.2,0.2c-0.2,0.1-0.3,0.1-0.5,0.2c-1.6,0.3-3.2,0.6-4.8,0.8c-1.4,0.1-2.7,0.2-4.1,0.3c-2.8,0.3-5.6,0.1-8.5,0.1
			c-0.4-0.1-0.8-0.1-1.2-0.1c-0.4-0.1-0.8-0.1-1.1-0.1c-0.3-0.1-0.6-0.1-0.9-0.2c-0.7-0.1-1.3-0.3-2-0.5
			C463.2,588,463.1,588,463.1,587.8z M505,547.7c0.1-0.1,0-0.3-0.1-0.5c-0.1-0.2-0.1-0.3-0.1-0.5c-1.1-4.6-1.9-9.3-2.5-14
			c-0.3-1.3-0.5-2.6-0.7-3.8c-0.6-2.5-0.9-5.2-1.2-7.8c-0.2-0.4-0.2-0.8-0.2-1.3c-0.6-0.1-0.8,0.3-0.6,1.3c-0.1,0.4-0.2,0.8-0.2,1.3
			c-0.3,1.8-0.6,3.6-0.9,5.4c-0.1,0.4-0.1,0.8-0.2,1.3c-0.1,0.5-0.1,0.9-0.2,1.4c-0.1,0.4-0.1,0.8-0.2,1.3c-0.1,0.5-0.1,0.9-0.2,1.3
			c-0.1,0.5-0.1,0.9-0.2,1.3c-0.1,0.4-0.1,0.8-0.2,1.3c-0.1,0.4-0.1,0.8-0.2,1.2c-0.3,1.2-0.5,2.3-0.7,3.5c-0.8,2.6-3,8,1,8
			c1.3,0,2.7-0.1,4-0.2c0.4-0.1,0.9-0.1,1.3-0.2c0.3,0,0.7,0,1.1-0.1C504.1,547.9,504.5,547.8,505,547.7
			C505,547.6,504.9,547.8,505,547.7z"/>
		<path fill="#020202" d="M598.2,503.7c0,4.8-1.5,9.2-2.7,13.8c-0.2,0.4-0.3,0.7-0.4,1.1c-0.2,0.3-0.3,0.7-0.4,1
			c-0.2,0.3-0.3,0.7-0.4,1c-0.2,0.4-0.3,0.7-0.4,1c-0.2,0.3-0.3,0.7-0.4,1c-0.2,0.3-0.3,0.6-0.5,0.9c-0.1,0.2-0.2,0.5-0.3,0.7
			c-0.2,0.2-0.3,0.5-0.4,0.7c-0.1,0.2-0.2,0.3-0.4,0.5c-0.1,0.1-0.2,0.3-0.3,0.4c-0.1,0.1-0.2,0.2-0.3,0.3c-0.1,0.1-0.2,0.2-0.3,0.2
			c-0.3,0.1-0.6-0.1-0.7-0.3c-0.2-0.4-0.4-0.8-0.7-1.2c-0.2-0.4-0.4-0.8-0.6-1.1c-0.2-0.4-0.4-0.8-0.7-1.1c-0.2-0.4-0.5-0.8-0.7-1.1
			c-0.2-0.3-0.4-0.7-0.7-1c-1.4-1.8-2.8-3.9-4.6-5.4c-1-1-2.1-2-3.3-2.8c-0.2-0.2-0.5-0.4-0.7-0.6c-0.3-0.2-0.5-0.4-0.8-0.5
			c-3.4-1.4-6.2-3.3-10-1.9c-0.8,0.3-1.5,0.8-2,1.5c-0.1,0.1-0.2,0.3-0.4,0.4c-0.1,0.2-0.2,0.4-0.3,0.6c-0.5,0.6-0.7,1.3-0.8,2.1
			c-0.2,0.9-0.4,1.7-0.4,2.6c-0.1,1-0.1,2,0.2,3c0.1,0.3,0.1,0.6,0.2,0.9c0.1,0.3,0.2,0.6,0.3,0.8c0.9,2,2.5,2.9,4.1,4.2
			c0.3,0.1,0.6,0.3,0.9,0.4c0.3,0.1,0.5,0.2,0.8,0.3c2.5,1.3,7.2,2.8,10.3,3.8c0.4,0.2,0.7,0.3,1.1,0.4c1.5,0.6,2.9,1.4,4.3,2.2
			c0.3,0.2,0.7,0.5,1.1,0.7c0.3,0.2,0.7,0.5,1,0.7c0.3,0.2,0.5,0.5,0.8,0.7c0.9,0.6,1.7,1.3,2.4,2.2c0.3,0.2,0.5,0.5,0.7,0.8
			c0.2,0.2,0.5,0.5,0.7,0.8c0.2,0.3,0.4,0.6,0.7,0.8c0.6,0.9,1.2,1.7,1.8,2.6c0.2,0.3,0.4,0.6,0.6,1c0.2,0.3,0.3,0.6,0.5,0.9
			c0.2,0.3,0.3,0.7,0.5,1c0.2,0.3,0.3,0.7,0.5,1c0.1,0.4,0.2,0.7,0.4,1c0.1,0.3,0.2,0.6,0.4,1c0.4,1.4,0.8,2.8,1.2,4.2
			c0.3,1.1,0.4,2.2,0.5,3.3c0.4,2.6,0.5,5.4,0.2,8c0,3.6-1,8.4-2.8,11.6c-0.1,0.3-0.2,0.6-0.4,0.9c-0.4,0.9-0.9,1.7-1.5,2.4
			c-0.2,0.3-0.4,0.6-0.6,0.8c-0.2,0.2-0.4,0.5-0.6,0.8c-0.6,0.7-1.3,1.4-2,2c-0.3,0.2-0.5,0.4-0.7,0.6c-0.8,0.6-1.6,1.2-2.4,1.7
			c-0.3,0.2-0.6,0.4-0.9,0.5c-0.3,0.2-0.7,0.3-1,0.4c-0.3,0.2-0.7,0.3-1,0.4c-0.3,0.2-0.7,0.3-1,0.4c-2.3,0.9-4.6,1.6-7,2
			c-2.9,0.6-5.8,0.9-8.7,1c-0.5,0-1.1,0-1.5,0c-1.9,0.2-3.8,0.2-5.7,0c-0.4-0.1-0.8-0.1-1.1-0.2c-0.4,0-0.8,0-1.2-0.1
			c-2.9-0.6-5.9-1.2-8.6-2.4c-0.4-0.1-0.8-0.3-1.1-0.4c-2.1-0.9-4.2-2-6.2-3.1c-0.8-0.5-1.6-1.1-2.3-1.8c-0.2-0.2-0.4-0.4-0.6-0.6
			c-0.2-0.2-0.3-0.4-0.5-0.6c-0.2-0.2-0.3-0.4-0.4-0.6c-0.1-0.2-0.2-0.4-0.3-0.6c-0.1-0.2-0.1-0.4-0.2-0.6
			c-1.1-3.5,1.2-9.3,2.4-12.7c0.1-0.5,0.2-0.9,0.4-1.3c0.1-0.5,0.2-0.9,0.4-1.4c0.8-2.9,1.8-5.9,3.1-8.6c0.1-0.3,0.2-0.7,0.4-1
			c0.1-0.3,0.2-0.6,0.3-0.9c0.3-0.7,0.6-1.4,1.1-2c0.1-0.1,0.1-0.3,0.2-0.4c0.1-0.1,0.1-0.1,0.2-0.3c0.3-0.2,0.4-0.1,0.6,0.2
			c0.3,0.4,0.6,0.8,1.1,1.1c0.2,0.2,0.3,0.4,0.4,0.5c0.6,0.5,1.1,1.1,1.6,1.7c0.2,0.2,0.4,0.4,0.6,0.6c1.9,1.8,3.7,3.6,5.7,5.2
			c1,0.9,2,1.7,3.2,2.4c0.7,0.6,1.5,1.1,2.4,1.5c0.7,0.4,1.5,0.7,2.3,1c0.7,0.2,1.4,0.4,2.1,0.4c0.2,0.1,0.4,0.1,0.7,0
			c0.2,0,0.4,0,0.7-0.1c0.2,0,0.4,0,0.6-0.1c0.2-0.1,0.4-0.2,0.6-0.3c0.2-0.1,0.4-0.2,0.6-0.3c2.9-3.1,3.6-8.4,1.1-12
			c-0.2-0.2-0.3-0.4-0.5-0.6c-0.2-0.2-0.4-0.4-0.6-0.6c-1.1-1-2.3-1.9-3.7-2.4c-0.3-0.2-0.5-0.3-0.8-0.4c-0.3-0.2-0.7-0.3-1-0.4
			c-4.2-2.1-9-3.4-13.5-4.6c-0.9-0.3-1.7-0.7-2.4-1.2c-1.3-1-2.6-1.9-3.6-3.2c-0.2-0.2-0.4-0.5-0.6-0.8c-0.2-0.3-0.4-0.6-0.7-0.9
			c-0.6-0.9-1.1-1.9-1.5-2.9c-0.5-1.1-0.9-2.1-1.3-3.2c-0.5-1.2-0.8-2.4-1-3.7c-0.1-0.4-0.1-0.8-0.2-1.2c-0.9-6.5-0.1-12.6,1.4-19
			c0.6-1.7,1.3-3.4,2.1-5.1c1-1.8,2.1-3.4,3.3-5.1c0.3-0.3,0.5-0.6,0.7-0.8c0.3-0.3,0.5-0.6,0.8-0.9c0.3-0.2,0.5-0.5,0.8-0.8
			c0.3-0.2,0.6-0.5,0.9-0.7c0.3-0.2,0.5-0.4,0.8-0.6c0.3-0.2,0.6-0.5,0.9-0.7c0.3-0.2,0.6-0.4,0.9-0.5c0.3-0.2,0.6-0.4,0.9-0.6
			c0.3-0.2,0.7-0.3,1-0.4c0.3-0.2,0.6-0.3,0.9-0.5c0.3-0.1,0.7-0.3,1-0.4c1.3-0.5,2.6-0.9,3.9-1.2c1.6-0.6,5.8-1.3,8.1-1
			c0.4,0,0.8,0,1.1,0c0.4,0.1,0.8,0.1,1.1,0.1c1.2,0.2,2.4,0.4,3.6,0.7c1.6,0.5,3.1,1,4.7,1.4c0.4,0.2,0.8,0.4,1.1,0.5
			c2.7,1.2,5.2,2.5,7.7,3.9c0.3,0.2,0.7,0.5,1,0.7c0.3,0.2,0.7,0.4,1,0.6c0.3,0.2,0.6,0.5,0.9,0.7c1.1,0.9,2.2,1.8,3.2,2.8
			c1.5,1.2,2.5,2.9,3.3,4.6C598,502.8,598.1,503.3,598.2,503.7C598.2,504.5,598.1,503.5,598.2,503.7z"/>
		<path fill="#020202" d="M604.5,487.4c0.1-0.1,0.2-0.2,0.4-0.3c0.3-0.1,0.5-0.2,0.7-0.3c0.3-0.1,0.6-0.1,0.9-0.3
			c1.7-0.3,3.3-0.6,5-0.6c0.5,0,1,0,1.5-0.1c4.2,0,8.2,0,12.2,1c0.1,0.1,0.2,0.1,0.3,0.3c0.1,0.1,0.2,0.1,0.2,0.3
			c-0.1,0.4-0.1,0.7-0.2,1c0,0.4,0,0.7-0.1,1c0,1.1-0.1,2.2-0.3,3.2c-0.3,3.6-0.6,7.2-1.1,10.8c-0.1,2.2-0.5,4.4-0.5,6.6
			c-0.1,0.4-0.1,0.8-0.2,1.3c0,0.4,0,0.8-0.1,1.3c0,0.4,0,0.8-0.1,1.3c0,0.5,0,0.9-0.1,1.3c0,0.5,0,0.9-0.1,1.4c0,0.4,0,0.8,0,1.3
			c-0.4,4.6-0.5,9.6,0.1,14.2c0.1,1.9,0.3,3.9,0.6,5.8c0.3,1.4,0.6,2.9,0.9,4.3c0.4,1.9,1.2,3.7,1.9,5.5c0.2,0.3,0.3,0.6,0.4,0.8
			c0.2,0.2,0.3,0.5,0.5,0.8c0.7,1.5,2.3,3.2,3.7,4c0.6,0.5,1.4,0.8,2.1,1c1,0.4,2.1,0.6,3.2,0.7c2,0.1,3.9-0.6,5.8-1
			c0.2-0.1,0.4-0.3,0.7-0.4c0.2-0.1,0.4-0.2,0.7-0.3c0.9-0.6,1.7-1.3,2.3-2.1c0.2-0.2,0.4-0.4,0.6-0.6c0.2-0.2,0.3-0.5,0.4-0.7
			c0.2-0.2,0.3-0.5,0.5-0.7c0.2-0.3,0.3-0.6,0.4-0.8c0.9-1.7,1.5-3.4,2-5.2c0.1-0.3,0.1-0.6,0.2-1c0.1-0.3,0.1-0.7,0.2-1
			c0.2-1,0.3-2.1,0.5-3.1c0.2-1.5,0.4-3.1,0.5-4.6c0.1-0.4,0.1-0.8,0.1-1.1c0.3-3.8,0.1-7.6,0.1-11.4c-0.1-1.3-0.2-2.6-0.2-3.9
			c0-0.5,0-0.9-0.1-1.3c0-0.5,0-0.9-0.1-1.3c0-1.3-0.1-2.6-0.3-3.9c0-7.3-1.1-15.4-2.4-22.6c0-0.1,0.1-0.2,0.2-0.4
			c0.1-0.1,0.2-0.1,0.3-0.3c0.2-0.1,0.4-0.1,0.6-0.2c0.3-0.1,0.5-0.1,0.8-0.2c0.3-0.1,0.7-0.2,1-0.2c1.2-0.3,2.5-0.4,3.7-0.4
			c0.4,0,0.9,0,1.4,0c2.4-0.1,4.8-0.1,7.2,0.1c0.4,0,0.9,0,1.3,0.1c1.3,0.1,2.5,0.3,3.7,0.6c0.2,0.1,0.3,0.1,0.5,0.3
			c0.1,0.1,0.1,0.1,0.2,0.2c0.7,2.2,1.2,4.4,1.8,6.6c0.2,1.1,0.5,2.3,0.7,3.4c0.1,0.3,0.2,0.7,0.2,1.1c0.1,0.4,0.2,0.8,0.2,1.1
			c0.1,0.4,0.2,0.8,0.2,1.2c0.1,0.4,0.2,0.7,0.2,1.1c1.1,5.3,1.6,10.6,2.3,16c0.1,1.3,0.2,2.5,0.2,3.8c0.1,0.4,0.1,0.8,0.1,1.2
			c0.1,0.5,0.1,0.9,0.1,1.3c0.4,5.3,0.6,11-0.1,16.3c0,0.4,0,0.8-0.1,1.2c-0.1,4.3-0.8,8.8-1.9,13c-0.2,1.1-0.4,2.2-0.8,3.3
			c-0.4,2.6-1.6,4.9-2.4,7.4c-0.2,0.3-0.3,0.6-0.4,1c-0.2,0.3-0.3,0.7-0.5,1c-0.1,0.3-0.2,0.7-0.4,1c-0.2,0.3-0.3,0.7-0.5,1
			c-0.4,1-0.9,1.9-1.5,2.8c-1.1,2.1-2.6,3.9-4,5.8c-0.9,1-1.8,1.9-2.8,2.8c-0.2,0.2-0.5,0.5-0.7,0.7c-0.2,0.2-0.5,0.4-0.7,0.6
			c-1.4,1.3-3.1,2.5-4.9,3.2c-0.3,0.2-0.6,0.3-0.9,0.5c-0.3,0.1-0.6,0.3-0.9,0.4c-0.3,0.1-0.6,0.2-0.9,0.3c-0.3,0.1-0.7,0.2-1,0.3
			c-0.3,0.2-0.7,0.3-1,0.4c-1,0.3-2,0.6-3,0.9c-3.7,1.1-7.7,1-11.5,1c-0.4-0.1-0.8-0.1-1.2-0.1c-0.4-0.1-0.8-0.1-1.1-0.2
			c-1.5-0.1-3-0.4-4.4-0.8c-0.3-0.1-0.7-0.1-1.1-0.3c-2-0.5-3.9-1.2-5.8-2.2c-0.3-0.1-0.6-0.3-0.9-0.4c-0.3-0.2-0.6-0.3-0.9-0.5
			c-4.4-2-7.9-6.4-10.7-10.1c-0.2-0.2-0.4-0.5-0.6-0.8c-0.2-0.3-0.4-0.6-0.6-0.9c-0.8-1.5-1.6-3-2.4-4.5c-0.2-0.3-0.3-0.7-0.4-1
			c-0.2-0.3-0.3-0.6-0.4-1c-0.2-0.3-0.3-0.6-0.4-1c-0.2-0.3-0.3-0.7-0.4-1c-1.7-4.1-2.8-8.7-3.5-13.1c-0.4-2.8-0.8-5.6-1.1-8.4
			c-0.1-2.1-0.2-4.2-0.4-6.2c0-4.6-0.3-9.3,0.2-13.9c0-0.4,0-0.8,0.1-1.2c0-0.4,0-0.8,0.1-1.3c0-0.4,0-0.8,0.1-1.2
			c0.1-5.8,1.5-11.6,2.3-17.4c0.2-1.2,0.5-2.4,0.7-3.6c0.1-0.4,0.1-0.8,0.2-1.2c0.2-1.1,0.5-2.3,0.7-3.4c0.1-0.4,0.2-0.8,0.3-1.1
			C603.3,491.6,603.9,487.8,604.5,487.4C604.6,487.3,604.4,487.5,604.5,487.4C604.6,487.3,604.4,487.5,604.5,487.4z"/>
	</g>
</g>
<path fill="#020202" d="M197.4,464.4c-3.8,0-6.7,9.1-12.8,8.7s-6.1-5.5-6.1-7.4c0-4.3,4.3-11.3,6.4-13.9c2.2-2.6,5.6-6,12.1-6
	c9.1,0,10.8,9.2,18,9.2c4.2,0,7.3-11.1,15.1-11.1c13.9,0,4.7,15.1,3.2,17.4c-2.4,3.7-9.3,13.2-18.6,13.2
	C205.6,474.4,203.7,464.4,197.4,464.4"/>
</svg>
