<?xml version="1.0" encoding="utf-8"?>
<!-- Generator: Adobe Illustrator 18.0.0, SVG Export Plug-In . SVG Version: 6.00 Build 0)  -->
<!DOCTYPE svg PUBLIC "-//W3C//DTD SVG 1.0//EN" "http://www.w3.org/TR/2001/REC-SVG-20010904/DTD/svg10.dtd">
<svg version="1.0" id="Camada_1" xmlns="http://www.w3.org/2000/svg" xmlns:xlink="http://www.w3.org/1999/xlink" x="0px" y="0px"
	 viewBox="120 314 504 222" enable-background="new 120 314 504 222" xml:space="preserve">
<g>
	<g>
		<path fill="#1B7C09" d="M170,493.5C170,493.5,170,493.4,170,493.5c-0.1-0.1-0.1-0.2-0.2-0.3c0-0.1,0-0.2-0.1-0.3
			c0-0.1,0-0.2-0.1-0.3c0-0.1,0-0.2-0.1-0.3c0-0.2,0-0.3,0-0.4c-0.1-0.2-0.1-0.3-0.1-0.5c-0.1-0.4-0.1-0.8-0.2-1.1
			c0-0.2,0-0.4-0.1-0.6c0-0.2,0-0.5,0-0.7c-0.1-0.5-0.1-1.1-0.2-1.6c0-0.6,0-1.2-0.1-1.8c0-0.6,0-1.3-0.1-1.9c0-0.7,0-1.4-0.1-2.1
			c0-0.8,0-1.5,0-2.3c-0.2-1.7,0.1-3.3-0.2-5c0-2.3,0.2-4.6-0.1-6.9c0-5-0.4-10.3,0.1-15.3c0-2.7,0-5.4,0-8c0.2-2.2,0-4.3,0.2-6.5
			c0-1.6-0.1-3.2,0.1-4.7c0-1,0-2,0-3.1c0.2-1.5,0-3,0.2-4.5c0-1,0-2,0.1-3c0-1,0-1.9,0.1-2.9c0-0.9,0-1.8,0.1-2.7
			c0-0.9,0-1.8,0.1-2.6c0-0.4,0-0.8,0-1.3c0-0.8,0.1-1.6,0.2-2.4c0-0.8,0-1.6,0.1-2.4c0-0.4,0-0.7,0-1c0-0.7,0.1-1.3,0.2-2
			c0-0.4,0-0.7,0-1c0-0.6,0.1-1.2,0.2-1.8c0-0.2,0-0.5,0.1-0.8c0-0.2,0-0.5,0-0.8c0-0.4,0.1-0.9,0.2-1.3c0-0.2,0-0.4,0.1-0.6
			c0-0.2,0-0.4,0-0.5c0-0.3,0.1-0.6,0.2-1c0-0.1,0-0.2,0.1-0.4c0-0.1,0-0.2,0-0.4c0.1-0.1,0.1-0.2,0.2-0.3c0-0.1,0-0.1,0.1-0.1
			c0.1-0.3,0.5-0.5,0.7-0.7c0.1-0.1,0.2-0.1,0.3-0.2c0.2-0.1,0.3-0.1,0.4-0.2c0.2-0.1,0.3-0.2,0.4-0.2c0.3-0.1,0.7-0.2,1-0.4
			c0.2-0.1,0.4-0.1,0.6-0.2c0.5-0.1,0.9-0.1,1.4-0.2c0.3-0.1,0.5-0.1,0.8-0.1c0.3-0.1,0.5-0.1,0.8-0.1c0.3-0.1,0.7-0.1,1-0.1
			c0.7-0.1,1.5-0.1,2.2-0.2c0.4,0,0.8,0,1.2,0c4.4-0.6,9.6-0.3,14.1,0c1.2,0,2.5,0,3.7,0.1c0.4,0,0.9,0,1.4,0.1c0.4,0,0.9,0,1.3,0.1
			c1.7,0,3.6,0.3,5.2,0.7c0.4,0.1,0.8,0.1,1.2,0.3c0.8,0.2,1.6,0.4,2.4,0.5c0.8,0.2,1.5,0.5,2.3,0.8c0.4,0.1,0.7,0.2,1.1,0.4
			c0.4,0.2,0.7,0.3,1.1,0.4c0.4,0.2,0.7,0.4,1.1,0.5c1,0.3,2.1,0.9,3,1.6c0.3,0.2,0.6,0.3,0.9,0.5c1.5,1.1,3,2.2,4.2,3.5
			c0.8,0.7,1.5,1.6,2.1,2.4c0.3,0.3,0.5,0.6,0.7,0.9c0.5,0.9,1.2,1.8,1.7,2.8c0.6,1,1.1,2.1,1.5,3.1c0.2,0.4,0.3,0.7,0.5,1
			c0.1,0.4,0.2,0.8,0.3,1.2c0.3,0.8,0.6,1.6,0.7,2.4c0.2,1.2,0.4,2.6,0.7,3.8c0.1,0.9,0.2,1.9,0.2,2.8c0.1,0.5,0.1,0.9,0.1,1.4
			c0.3,2.7,0.1,5.7-0.4,8.3c-0.2,1.6-0.7,3-1.1,4.5c-0.2,0.5-0.4,0.9-0.6,1.4c-0.2,0.4-0.4,0.8-0.6,1.3c-0.7,1.7-1.7,3.3-2.8,4.7
			c-0.3,0.4-0.5,0.8-0.8,1.1c-0.3,0.3-0.5,0.6-0.8,1c-0.3,0.3-0.6,0.7-0.9,1c-0.3,0.3-0.7,0.6-1,0.9c-0.6,0.6-1.2,1.2-1.9,1.7
			c-0.3,0.2-0.7,0.5-1,0.7c-2.3,1.8-4.8,2.9-7.3,4.3c-0.4,0.1-0.7,0.3-1.1,0.4c-0.4,0.1-0.7,0.3-1.1,0.4c-1,0.3-2.1,0.7-3.1,1
			c-0.9,0.2-2,0.4-2.8,0.8c-1.1,0.2-2.3,0.6-3.4,0.6c-0.3,0.1-0.5,0.1-0.7,0.2c-0.2,0-0.5,0-0.7,0.1c-0.2,0-0.4,0-0.7,0.1
			c-0.2,0-0.4,0-0.6,0c-0.2,0.1-0.3,0.1-0.5,0.1c-0.2,0.1-0.3,0.1-0.5,0c-0.3-0.1-0.4-0.1-0.4,0c-0.1,0.3,0,0.7,0.1,1.1
			c0.2,1.2,0.2,2.4,0.3,3.6c0,0.8,0.1,1.7,0.2,2.5c0,0.9,0.1,1.8,0.2,2.6c0.1,0.9,0.1,1.7,0.2,2.6c0.1,0.5,0.1,0.9,0.2,1.3
			c0.1,0.9,0.1,1.8,0.2,2.7c0.1,0.4,0.1,0.8,0.1,1.2c0.1,0.9,0.1,1.7,0.2,2.6c0,0.8,0,1.6,0.1,2.4c0,0.8,0,1.6-0.1,2.4
			c0,0.7,0,1.4-0.1,2.1c0,0.7-0.1,1.3-0.2,2c-0.1,0.6-0.2,1.2-0.3,1.7c-0.1,0.5-0.3,1-0.5,1.5c-0.1,0.2-0.2,0.4-0.3,0.6
			c-0.1,0.2-0.2,0.3-0.3,0.5c-0.1,0.2-0.2,0.3-0.3,0.5c-0.3,0.3-0.6,0.5-0.9,0.6c-0.2,0.1-0.4,0.2-0.6,0.3c-0.3,0.1-0.5,0.2-0.7,0.3
			c-0.9,0.2-1.9,0.4-2.8,0.4c-0.4,0.1-0.8,0.1-1.1,0.2c-0.4,0-0.8,0-1.2,0c-2,0.3-4.5,0.2-6.6,0c-0.4,0-0.9,0-1.4,0
			c-0.4-0.1-0.9-0.1-1.3-0.1c-0.5-0.1-0.9-0.1-1.4-0.2c-0.8-0.1-1.7-0.1-2.5-0.2c-2-0.3-4.8-0.3-6.7-1.3
			C170.6,493.8,170.3,493.7,170,493.5C170,493.5,170.1,493.6,170,493.5z M209.1,426c0-0.6,0-1.3,0-1.8c-0.1-1.1-0.3-2.1-0.7-3.1
			c-0.4-0.9-0.9-1.7-1.4-2.5c-0.3-0.4-0.5-0.7-0.8-1c-0.3-0.3-0.7-0.6-1-0.9c-0.3-0.2-0.7-0.5-1-0.7c-0.7-0.4-1.4-0.8-2.1-1.1
			c-0.7-0.2-1.4-0.4-2.1-0.7c-0.7-0.1-1.3-0.2-2-0.3c-0.3,0-0.5,0-0.8-0.1c-0.2,0-0.5,0-0.7,0c-0.2,0.1-0.3,0.1-0.5,0
			c-0.2-0.1-0.4,0-0.4,0.1c-0.1,0.1-0.1,0.2-0.1,0.3c0.1,0.2,0.1,0.4,0,0.6c0,0.9-0.1,1.8,0.1,2.7c0,0.8,0,1.6,0.1,2.4
			c0,0.5,0,0.9,0,1.3c0.1,0.5,0.1,0.9,0.1,1.4c0.1,0.5,0.1,0.9,0.1,1.4c0.1,0.5,0.1,1,0.1,1.5c0.1,0.5,0.1,1,0.1,1.5
			c0.1,0.5,0.1,1,0.1,1.5c0.1,0.5,0.1,1,0.1,1.5c0.1,0.5,0.1,1,0.1,1.5c0.1,0.5,0.1,1,0.1,1.5c0.1,0.5,0.1,0.9,0.1,1.3
			c0.1,0.5,0.1,0.9,0.1,1.4c0.1,0.8,0.1,1.6,0.2,2.4c0,0.3,0,0.7,0.1,1c0,0.6,0.3,1.7,0.1,2.3c-0.1,0.2-0.1,0.4,0,0.5
			c0.1,0.1,0.2,0.1,0.4,0c0.2,0,0.3,0,0.5,0c0.2,0.1,0.4,0.1,0.6,0c0.5-0.1,1-0.2,1.5-0.4c0.3-0.1,0.5-0.2,0.7-0.3
			c0.3-0.1,0.6-0.3,0.9-0.4c0.3-0.1,0.5-0.3,0.8-0.4c0.6-0.4,1.2-0.8,1.7-1.3c0.9-0.9,1.8-1.8,2.4-3c0.6-0.8,1-1.7,1.3-2.6
			c0.7-1.7,1-3.4,1.3-5.2C209,427.4,209.1,426.7,209.1,426C209.1,425.3,209.1,426.7,209.1,426z"/>
		<path fill="#020202" d="M240.7,395.5c0.1-0.1,0.1-0.1,0.2-0.2c0.1,0,0.2,0,0.3-0.1c0.2-0.1,0.3-0.1,0.4-0.2c0.2,0,0.4,0,0.6-0.1
			c0.2-0.1,0.4-0.1,0.6-0.2c0.5,0,1-0.1,1.5-0.3c0.6-0.1,1.2-0.1,1.9-0.2c0.3-0.1,0.7-0.1,1.1-0.2c0.8-0.1,1.5-0.1,2.3-0.2
			c0.4-0.1,0.8-0.1,1.2-0.1c0.4-0.1,0.8-0.1,1.2-0.2c0.4,0,0.9,0,1.3-0.1c0.5,0,0.9,0,1.4-0.1c0.4,0,0.9,0,1.4-0.1
			c0.5,0,0.9,0,1.4,0c0.5-0.1,1-0.1,1.5-0.1c1-0.1,2-0.1,2.9-0.2c1,0,2,0,2.9-0.1c1.4,0,2.9,0.1,4.3-0.1c1.4,0,2.8-0.1,4.1,0.1
			c1.2,0,2.5-0.1,3.7,0.1c0.4,0,0.8,0,1.2,0c0.7,0.1,1.4,0.1,2.1,0.2c0.3,0,0.6,0,0.9,0.1c0.6,0.1,1.1,0.1,1.7,0.2
			c0.2,0.1,0.5,0.1,0.7,0.2c0.2,0,0.4,0,0.6,0.1c0.4,0.2,0.8,0.3,1.2,0.5c0.1,0.1,0.1,0.1,0.2,0.2c0.1,0.2,0.2,0.3,0.2,0.5
			c0.1,0.2,0.2,0.5,0.2,0.8c0.7,1.8,0.7,4,0.9,5.9c0,0.5,0,1,0.1,1.5c0,0.5,0,1,0.1,1.5c0,0.5,0,1,0.1,1.5c0,1.8,0.2,3.7-0.1,5.5
			c0,0.4,0,0.8,0,1.2c-0.1,0.4-0.1,0.7-0.2,1c0,0.6-0.1,1.1-0.2,1.7c-0.1,0.2-0.1,0.3-0.2,0.5c-0.1,0.1-0.1,0.2-0.2,0.3
			c-0.2,0.1-0.3,0.2-0.5,0.3c-0.3,0.1-0.5,0.1-0.8,0.1c-1.2,0.2-2.6,0.1-3.8,0.1c-0.5-0.1-1-0.1-1.5-0.1c-0.5-0.1-1-0.1-1.5-0.1
			c-0.5-0.1-0.9-0.1-1.4-0.2c-0.8-0.1-1.6-0.1-2.4-0.2c-0.5,0-1-0.1-1.5-0.2c-0.1,0-0.1,0-0.2,0v0.1c0,0.8,0,1.6,0,2.4
			c-0.5,2.9-0.1,6.2-0.1,9.1c0.3,3-0.1,6,0.2,8.9c0,1.5-0.1,3.1,0.1,4.5c0,1,0,2,0.1,3c0,0.6,0,1.2,0.1,1.8c0,0.6,0,1.2,0.1,1.8
			c0,0.6,0,1.2,0.1,1.7c0,0.6,0,1.2,0.1,1.8c0,1.1,0.1,2.2,0.2,3.2c0,1,0.1,2,0.2,3.1c0,0.9,0.1,1.9,0.2,2.8c0,0.8,0.1,1.6,0.2,2.4
			c0,0.8,0.1,1.5,0.2,2.3c0,0.6,0.1,1.2,0.2,1.8c0.1,0.2,0.1,0.5,0.2,0.8c0,0.2,0,0.5,0.1,0.7c0,0.2,0,0.4,0.1,0.6
			c0,0.1,0,0.3,0,0.4c0,0.2,0.1,0.5,0.2,0.7c0,0.1,0,0.1,0,0.2v0.1c0.1,0,0.1,0,0.2-0.1c0.2,0,0.4,0,0.6-0.1c2-0.4,4.1-0.6,6.1-0.9
			c0.5,0,1,0,1.5-0.1c0.9,0,1.8,0,2.7,0c0.7,0.1,1.4,0.2,2,0.4c0.2,0.1,0.4,0.2,0.6,0.3c0.1,0.1,0.1,0.3,0.2,0.4
			c0.1,0.2,0.2,0.3,0.2,0.5c0.3,1.3,0.6,2.6,0.6,3.9c0.1,0.4,0.1,0.8,0.2,1.2c0,0.5,0,0.9,0.1,1.4c0,0.5,0,0.9,0.1,1.4
			c0,0.5,0,1,0.1,1.5c0,2.5,0.2,5.1-0.1,7.5c0,0.5,0,0.9-0.1,1.3c0,0.5,0,0.9-0.1,1.3c-0.1,0.8-0.1,1.5-0.2,2.3
			c-0.1,0.6-0.2,1.1-0.3,1.7c-0.1,0.2-0.1,0.3-0.2,0.5c-0.1,0.2-0.2,0.4-0.3,0.5c-0.2,0.1-0.4,0.1-0.7,0.2c-0.2,0.1-0.3,0.1-0.5,0.1
			c-0.2,0.1-0.4,0.1-0.6,0.2c-0.2,0-0.4,0-0.6,0.1c-0.3,0-0.5,0-0.7,0.1c-0.3,0-0.5,0-0.8,0.1c-0.3,0-0.6,0-0.9,0
			c-0.3,0.1-0.7,0.1-1,0.1c-0.7,0.1-1.4,0.1-2.1,0.2c-0.4,0-0.8,0-1.1,0c-0.8,0.1-1.6,0.1-2.4,0.1c-0.9,0.1-1.7,0.1-2.6,0.1
			c-2.3,0.3-4.7-0.1-7.1,0.2c-2.4,0-5,0.2-7.4-0.1c-1.9,0-3.9,0.1-5.8-0.1c-0.9,0-1.8,0-2.8,0c-0.9-0.1-1.7-0.1-2.6-0.1
			c-0.8-0.1-1.6-0.1-2.4-0.2c-0.4,0-0.8,0-1.1,0c-0.7-0.1-1.4-0.1-2.1-0.2c-0.3,0-0.7,0-1,0c-0.3-0.1-0.5-0.1-0.8-0.1
			c-0.3-0.1-0.5-0.1-0.8-0.1c-0.3-0.1-0.5-0.1-0.7-0.1c-0.2-0.1-0.4-0.1-0.7-0.1c-0.2-0.1-0.4-0.1-0.6-0.1c-0.2-0.1-0.3-0.1-0.5-0.1
			c-0.1-0.1-0.2-0.1-0.3-0.1c-0.1-0.1-0.2-0.1-0.3-0.1c-0.2-0.1-0.3-0.3-0.3-0.5c-0.1-0.2-0.2-0.3-0.2-0.5c-0.1-0.3-0.1-0.6-0.2-0.8
			c-0.1-0.7-0.2-1.4-0.3-2.1c-0.1-0.9-0.1-1.7-0.2-2.6c-0.1-1-0.1-2-0.1-3c-0.2-1.5-0.2-3.2,0-4.7c0-0.5,0-1,0-1.5
			c0.1-0.5,0.1-1,0.1-1.5c0.1-0.5,0.1-1,0.2-1.5c0-1.4,0.1-3.2,0.7-4.5c0.1-0.3,0.1-0.6,0.2-0.8c0.1-0.2,0.1-0.3,0.2-0.5
			c0.1-0.2,0.2-0.3,0.3-0.3c0.2-0.1,0.4-0.2,0.7-0.3c0.3-0.1,0.7-0.2,1-0.2c0.4-0.1,0.8-0.1,1.1,0c0.4,0,0.9,0,1.3,0
			c1.8,0.2,3.6,0.3,5.4,0.8c0.6,0.1,1.3,0.2,1.9,0.3c0.2,0.1,0.4,0.1,0.6,0.2c0.1,0,0.1,0,0.2,0v-0.1c0-0.1,0-0.1,0-0.2
			c0.1-0.2,0.1-0.5,0.1-0.7c0.1-0.4,0.1-0.8,0.2-1.1c0-0.2,0-0.5,0.1-0.7c0-0.3,0-0.6,0.1-0.8c0-0.3,0-0.6,0.1-1c0-0.3,0-0.6,0.1-1
			c0.1-0.7,0.1-1.5,0.2-2.2c0.1-0.5,0.1-0.9,0.2-1.3c0.1-0.9,0.1-1.7,0.2-2.6c0.1-0.5,0.1-1,0.2-1.5c0-0.5,0-1,0.1-1.5
			c0.1-1,0.1-2.1,0.2-3.1c0.1-0.5,0.1-1.1,0.1-1.7c0.1-0.6,0.1-1.1,0.2-1.7c0-0.6,0-1.2,0.1-1.7c0-0.6,0-1.2,0.1-1.8
			c0-0.6,0-1.2,0-1.7c0.1-0.6,0.1-1.3,0.1-1.8c0-1.3,0.1-2.7,0.2-4c0-1.3,0-2.5,0.1-3.8c0-1.7-0.1-3.4,0.1-5.1c0-3.6,1-8.8-0.1-12.2
			c0-0.3,0-0.5,0-0.8v-0.1c-0.1,0-0.1,0-0.2,0c-0.2,0.1-0.3,0.1-0.5,0.2c-1.8,0-3.5,0.7-5.3,0.7c-1.3,0.2-2.6,0.1-3.9,0.1
			c-0.4-0.1-0.8-0.1-1.1-0.2c-0.8-0.3-1.9-0.5-2.3-1.4c-0.4-0.5-0.5-1.6-0.6-2.2c0-0.4,0-0.7-0.1-1c0-0.4,0-0.8-0.1-1.2
			c0-1.4,0-2.7,0-4.1c0.1-0.5,0.1-1,0.1-1.5c0.1-0.5,0.1-1,0.1-1.5c0.2-1.8,0.3-3.8,0.7-5.6c0.1-0.4,0.1-0.8,0.2-1.1
			c0.1-0.4,0.2-0.7,0.2-1c0.1-0.3,0.2-0.6,0.3-0.8c0.1-0.2,0.1-0.5,0.2-0.7C240.4,395.7,240.6,395.6,240.7,395.5
			C240.7,395.4,240.6,395.6,240.7,395.5z"/>
		<path fill="#020202" d="M342.7,451c0.1,0.3,0.4,0.6,1.1,1c1.3,0.8,2.8,2.9,3.8,4.2c0.6,0.8,1.2,1.5,1.8,2.3
			c0.5,0.8,1.1,1.5,1.6,2.3c0.8,1.2,1.6,2.4,2.3,3.6c1,1.5,1.8,3.3,2.7,4.9c0.2,0.4,0.4,0.8,0.6,1.2c0.4,0.8,0.8,1.6,1.1,2.4
			c0.5,1.2,1,2.3,1.5,3.5c0.3,0.8,0.5,1.5,0.8,2.3c0.8,1.6,1.1,3.5,1.7,5.2c0.1,0.4,0.1,0.7,0.2,1c0.1,0.3,0.1,0.6,0.2,1
			c0.2,1.1,0.4,2.2,0.7,3.2c0,0.2,0,0.5,0.1,0.7c0.1,0.4,0.1,0.8,0.2,1.2c0,0.5,0.1,1.3-0.1,1.8c0,0.1,0,0.2-0.1,0.3
			c0,0.1,0,0.1-0.1,0.2c0,0.1,0,0.1-0.1,0.2c-0.4,0.2-0.8,0.4-1.2,0.5c-0.5,0.1-0.9,0.2-1.4,0.3c-0.6,0.1-1.2,0.2-1.9,0.3
			c-0.7,0-1.4,0.1-2.1,0.3c-0.8,0.1-1.6,0.1-2.4,0.2c-0.4,0.1-0.8,0.1-1.2,0.2c-0.4,0-0.9,0-1.3,0.1c-0.4,0-0.9,0-1.3,0
			c-0.9,0.1-1.7,0.1-2.6,0.1c-0.9,0.1-1.8,0.1-2.7,0.1c-0.8-0.1-1.7-0.1-2.5-0.1c-1.1-0.1-2.4-0.3-3.5-0.3c-1.2-0.2-2.5-0.3-3.7-0.8
			c-0.2-0.1-0.4-0.1-0.7-0.3c-0.2-0.1-0.4-0.1-0.6-0.3c-0.3-0.3-0.5-0.7-0.7-1.1c-0.1-0.3-0.2-0.7-0.2-1c-0.5-2.2-0.7-4.6-1.4-6.8
			c-0.1-0.4-0.1-0.7-0.2-1c-0.1-0.3-0.2-0.7-0.2-1.1c-0.1-0.3-0.2-0.7-0.3-1.1c-0.1-0.8-0.3-1.6-0.6-2.4c-0.1-0.5-0.2-0.9-0.3-1.3
			c-0.2-0.4-0.3-0.8-0.4-1.2c-0.2-0.4-0.3-0.8-0.4-1.3c-0.5-1.3-1-2.7-1.5-3.9c-0.5-1.3-1.2-2.7-1.9-3.9c-1.3-2.3-2.7-4.5-4.3-6.6
			v0.1c0,0.1,0,0.2,0,0.3c0.1,0.3,0.1,0.7,0.2,1c0,0.3,0,0.6,0,0.8c0.1,0.3,0.1,0.6,0.1,1c0.1,0.3,0.1,0.6,0.1,1
			c0.1,0.4,0.1,0.8,0.2,1.2c0,0.4,0,0.8,0.1,1.2c0,0.4,0,0.8,0.1,1.3c0.1,1,0.1,1.9,0.2,2.9c0.1,0.5,0.1,1,0.1,1.5
			c0.1,0.5,0.1,1,0.1,1.6c0.1,0.5,0.1,1,0.1,1.6c0.1,1,0.1,2.1,0.2,3.1c0,2.4,0,4.8,0,7.3c-0.1,0.5-0.1,0.9-0.1,1.3
			c-0.1,0.4-0.1,0.8-0.1,1.1c-0.2,1-0.3,1.9-0.5,2.9c-0.1,0.2-0.1,0.4-0.2,0.6c-0.1,0.2-0.2,0.3-0.2,0.5c-0.1,0.1-0.2,0.2-0.3,0.4
			c-0.2,0.1-0.3,0.2-0.5,0.3c-0.2,0.1-0.4,0.2-0.7,0.3c-0.2,0.1-0.5,0.2-0.7,0.3c-1.5,0.6-3.6,0.9-5.1,0.9c-0.4,0.1-0.9,0.1-1.3,0.2
			c-0.4,0-0.8,0-1.2,0.1c-0.5,0-0.9,0-1.4,0c-2.5,0.3-5.6,0.3-8.1,0c-0.4,0-0.8,0-1.2-0.1c-0.4,0-0.8,0-1.2-0.1
			c-0.4,0-0.8,0-1.1-0.1c-0.7,0-1.4-0.1-2-0.3c-0.8,0-1.5-0.2-2.3-0.4c-0.3-0.1-0.6-0.2-0.9-0.4l-0.1-0.1c0-0.1,0-0.1-0.1-0.2
			c0-0.1,0-0.1-0.1-0.2c0-0.1,0-0.2-0.1-0.3c0-0.1,0-0.2-0.1-0.3c0-0.1,0-0.3-0.1-0.4c0-0.1,0-0.3,0-0.4c-0.1-0.2-0.1-0.3-0.1-0.5
			c-0.1-0.4-0.1-0.8-0.2-1.2c0-0.2,0-0.5-0.1-0.7c0-0.2,0-0.5,0-0.8c-0.1-0.6-0.1-1.1-0.1-1.7c-0.1-0.6-0.1-1.2-0.2-1.8
			c0-0.7,0-1.3-0.1-2c0-0.7,0-1.4,0-2.1c-0.2-1.2,0-2.4-0.2-3.6c0-1.7,0.1-3.5-0.1-5.2c0-8.5-0.8-17.4,0.1-25.8
			c0-2.1-0.1-4.3,0.1-6.4c0-1.6,0-3.2,0-4.8c0.2-1.5,0-3.1,0.2-4.6c0-1,0-2,0-3.1c0.1-1,0.1-2,0.1-3c0.1-1,0.1-2,0.1-3
			c0.1-0.9,0.1-1.9,0.1-2.8c0.1-0.9,0.1-1.8,0.1-2.7c0.1-0.9,0.1-1.7,0.2-2.6c0-0.4,0-0.8,0-1.2c0.1-0.8,0.1-1.6,0.1-2.4
			c0.1-0.7,0.1-1.5,0.2-2.2c0-0.4,0-0.8,0-1.1c0.1-0.7,0.1-1.3,0.2-2c0-0.3,0-0.6,0-1c0.1-0.3,0.1-0.6,0.1-0.9
			c0-0.6,0.1-1.1,0.2-1.7c0-0.2,0-0.5,0-0.7c0.1-0.5,0.1-0.9,0.2-1.4c0-0.2,0-0.4,0.1-0.6c0-0.2,0-0.3,0-0.5
			c0.1-0.2,0.1-0.3,0.1-0.4c0-0.3,0.1-0.5,0.2-0.8c0-0.1,0-0.2,0.1-0.4c0-0.1,0-0.1,0-0.2l0.1-0.2c0.1-0.1,0.1-0.1,0.1-0.2
			c0.1-0.1,0.1-0.1,0.2-0.2c0.1-0.1,0.2-0.2,0.2-0.3c0.9-0.5,1.9-1.1,2.9-1.1c0.4-0.2,0.9-0.3,1.3-0.3c0.2-0.1,0.5-0.1,0.7-0.1
			c0.3-0.1,0.5-0.1,0.8-0.1c0.3-0.1,0.6-0.1,0.9-0.1c0.3-0.1,0.7-0.1,1-0.1c0.8-0.1,1.5-0.1,2.3-0.1c1.4-0.2,2.8,0,4.1-0.2
			c2.3,0,4.7-0.1,7,0.1c2.2,0,4.5-0.1,6.7,0.1c0.9,0,1.8,0,2.8,0.1c0.9,0,1.8,0.1,2.8,0.3c0.9,0,1.7,0.1,2.5,0.4
			c0.9,0.1,1.7,0.2,2.5,0.4c0.8,0.2,1.6,0.3,2.4,0.5c0.8,0.2,1.5,0.5,2.3,0.7c0.7,0.3,1.5,0.6,2.2,0.9c0.7,0.3,1.4,0.6,2.1,0.9
			c0.7,0.3,1.3,0.7,2,1.1c0.3,0.2,0.6,0.4,0.9,0.5c0.3,0.2,0.7,0.4,1,0.6c1.4,1.2,2.9,2.2,4.1,3.5c0.2,0.2,0.5,0.5,0.7,0.8
			c0.2,0.2,0.5,0.5,0.7,0.8c2,2.7,4.1,5.6,5,8.8c0.8,1.8,1.4,4.1,1.6,6c0.5,1.7,0.5,3.6,0.7,5.3c0,0.5,0,1,0.1,1.5
			c0,2.4,0.1,5.1-0.7,7.4c-0.1,0.8-0.3,1.5-0.7,2.3c-0.1,0.4-0.2,0.7-0.3,1c-0.2,0.3-0.3,0.7-0.5,1c-0.1,0.4-0.2,0.7-0.4,1
			c-0.2,0.3-0.4,0.6-0.6,1c-0.2,0.3-0.4,0.6-0.6,0.9c-0.5,0.9-1.2,1.8-1.9,2.5c-0.3,0.3-0.5,0.6-0.7,0.8c-0.8,0.7-1.5,1.5-2.4,2.2
			c-0.3,0.2-0.5,0.4-0.8,0.6c-0.3,0.2-0.6,0.4-0.9,0.6c-0.3,0.2-0.6,0.4-0.9,0.6c-0.7,0.3-1.3,0.7-2,1c-0.3,0.1-0.7,0.3-1,0.5
			c-0.3,0.3-0.7,0.4-1,0.4C343,450.6,342.7,450.8,342.7,451C342.7,451.3,342.7,450.8,342.7,451z M332.4,426.3c0-0.6,0-1.3-0.1-1.9
			c-0.1-0.6-0.2-1.1-0.4-1.7c-0.1-0.5-0.3-1-0.5-1.6c-0.2-0.4-0.5-0.8-0.7-1.3c-0.2-0.4-0.5-0.8-0.8-1.1c-0.3-0.3-0.6-0.7-0.9-1
			c-0.3-0.3-0.7-0.6-1.1-0.9c-0.3-0.3-0.7-0.6-1.1-0.8c-0.4-0.2-0.8-0.4-1.1-0.6c-0.4-0.2-0.8-0.4-1.1-0.5c-0.7-0.2-1.5-0.5-2.2-0.7
			c-0.4-0.1-0.7-0.1-1.1-0.3c-0.3-0.1-0.7-0.1-1-0.1c-0.3-0.1-0.5-0.1-0.8-0.1c-0.2-0.1-0.5-0.1-0.7-0.1c-0.2,0.1-0.4,0.1-0.6,0
			c-0.2,0-0.3,0-0.3,0.1c-0.1,0.1-0.1,0.3-0.1,0.5c0,0.2,0,0.4,0,0.6c-0.1,0.2-0.1,0.4,0,0.6c0,0.5,0,1,0,1.6
			c0.1,0.6,0.1,1.2,0.2,1.8c0.1,0.7,0.1,1.3,0.2,2c0.1,0.4,0.1,0.8,0.2,1.1c0.1,0.8,0.1,1.6,0.2,2.4c0.1,0.4,0.1,0.8,0.2,1.2
			c0.1,0.9,0.1,1.8,0.2,2.7c0.1,0.5,0.1,1,0.2,1.5c0.1,1,0.1,1.9,0.2,2.9c0.1,0.5,0.1,1,0.1,1.6c0.1,0.5,0.1,1,0.1,1.6
			c-0.1,0.6-0.1,1.1,0,1.6c0,0.1,0.2,0.1,0.5,0.1c0.2,0,0.4,0,0.7,0.1c0.5-0.1,1.1-0.1,1.6-0.2c0.3-0.1,0.7-0.1,1-0.3
			c0.7-0.2,1.4-0.4,2-0.6c0.8-0.3,1.5-0.7,2.2-1.1c0.7-0.5,1.3-1,2-1.5c1-0.9,1.7-2,2.4-3.2c0.2-0.4,0.3-0.8,0.5-1.3
			C332.3,428.4,332.4,427.3,332.4,426.3z"/>
		<path fill="#020202" d="M365.5,494.8L365.5,494.8c0-0.3-0.1-0.9,0.1-1c0-0.2,0-0.3,0.1-0.4c0-0.1,0-0.3,0-0.4
			c0.1-0.2,0.1-0.3,0.2-0.5c0.1-0.4,0.1-0.8,0.2-1.1c0.4-1.2,0.6-2.4,0.8-3.7c0.2-0.6,0.3-1.2,0.5-1.7c0.1-0.3,0.1-0.6,0.2-1
			c0.1-0.3,0.2-0.6,0.2-1c0.1-0.4,0.2-0.7,0.2-1c0.1-0.4,0.2-0.7,0.3-1c0.2-0.7,0.3-1.5,0.5-2.2c0.2-0.8,0.4-1.6,0.7-2.4
			c0.3-2.1,1.1-4.3,1.5-6.4c0.5-1.3,0.7-2.7,1.1-4.1c0.3-0.9,0.5-1.9,0.8-2.8c0.1-0.5,0.2-1,0.3-1.5c0.3-1,0.5-1.9,0.8-2.9
			c0.1-0.5,0.2-1,0.3-1.5c0.2-0.5,0.3-1,0.4-1.6c0.2-0.5,0.3-1,0.4-1.5c0.2-0.5,0.3-1,0.4-1.5c0.2-0.5,0.3-1,0.4-1.6
			c0.2-0.5,0.3-1,0.4-1.5c0.2-0.5,0.3-1,0.4-1.6c0.2-0.5,0.3-1,0.4-1.5c0.2-0.5,0.3-1,0.4-1.6c0.2-0.5,0.3-1,0.4-1.5
			c0.2-0.5,0.3-1,0.4-1.6c0.2-0.5,0.3-1,0.4-1.6c0.2-0.5,0.3-1,0.5-1.5c0.1-0.5,0.2-1,0.4-1.6c0.1-0.5,0.2-1,0.4-1.5
			c0.1-0.5,0.2-1,0.4-1.6c0.1-0.5,0.2-1,0.4-1.5c0.1-0.5,0.2-1,0.4-1.5c0.1-0.5,0.2-1,0.4-1.5c0.1-0.5,0.2-1,0.4-1.5
			c0.1-0.5,0.2-1,0.4-1.5c0.1-0.5,0.2-1,0.4-1.5c0.1-0.5,0.2-0.9,0.3-1.4c0.2-0.5,0.3-0.9,0.4-1.4c0.3-0.9,0.5-1.9,0.8-2.8
			c0.1-0.5,0.2-0.9,0.3-1.4c0.3-0.9,0.5-1.7,0.7-2.6c0.6-1.6,0.8-3.4,1.5-5c0.3-1.2,0.7-2.3,1-3.5c0.2-1.1,0.6-2.1,0.8-3.1
			c0.2-0.6,0.4-1.2,0.6-1.8c0.1-0.4,0.2-0.7,0.2-1c0.1-0.3,0.2-0.6,0.2-0.8c0.1-0.3,0.2-0.6,0.2-0.9c0.2-0.5,0.3-1,0.5-1.5
			c0.1-0.4,0.2-0.8,0.4-1.2c0.1-0.5,0.3-1.1,0.5-1.6c0-0.3,0.1-0.5,0.2-0.8c0-0.1,0-0.2,0.1-0.4c0.1-0.1,0.1-0.1,0.1-0.3
			c0.1-0.1,0.1-0.2,0.2-0.4v-0.1c0.1-0.1,0.2-0.1,0.3-0.2c0.2-0.1,0.3-0.1,0.5-0.2c0.2-0.1,0.5-0.1,0.7-0.1c0.3-0.1,0.5-0.1,0.8-0.2
			c0.4,0,0.7,0,1.1-0.1c0.4,0,0.8,0,1.1-0.1c0.4,0,0.9,0,1.3-0.1c0.9,0,1.8,0,2.8-0.1c1.4,0,2.9,0,4.3,0c1.4,0.2,2.7,0,4.1,0.2
			c0.4,0,0.8,0,1.1,0.1c0.4,0,0.7,0,1.1,0c0.3,0.1,0.6,0.1,0.9,0.1c0.3,0.1,0.5,0.1,0.7,0.1c0.2,0.1,0.4,0.1,0.6,0.2
			c0.1,0,0.2,0,0.3,0.1v0.1c0.1,0,0.1,0,0.1,0.1c0.1,0.1,0.1,0.1,0.1,0.2c0.1,0.1,0.1,0.1,0.1,0.3c0.1,0.1,0.1,0.2,0.2,0.3
			c0,0.1,0,0.2,0.1,0.4c0.1,0.2,0.1,0.3,0.2,0.4c0.2,0.7,0.4,1.5,0.7,2.2c0.2,0.5,0.3,0.9,0.5,1.4c0.1,0.3,0.1,0.6,0.2,0.8
			c0.1,0.3,0.2,0.6,0.2,0.9c0.1,0.3,0.2,0.6,0.2,0.9c0.1,0.3,0.2,0.6,0.3,0.9c0.2,0.6,0.3,1.3,0.5,1.9c0.3,1.1,0.7,2.1,0.9,3.2
			c0.5,1.6,0.9,3.1,1.3,4.7c0.5,1.2,0.7,2.6,1.1,3.8c0.3,0.9,0.5,1.8,0.7,2.7c0.3,0.9,0.5,1.9,0.8,2.8c0.1,0.5,0.2,1,0.3,1.5
			c0.2,0.5,0.3,0.9,0.4,1.4c0.3,1,0.5,2,0.8,3c0.1,0.5,0.2,1,0.4,1.5c0.1,0.5,0.2,1,0.4,1.5c0.1,0.5,0.2,1,0.4,1.6
			c0.1,0.5,0.2,1,0.4,1.5c0.1,0.5,0.2,1,0.3,1.6c0.2,0.5,0.3,1,0.4,1.5c0.2,0.5,0.3,1,0.5,1.6c0.1,0.5,0.2,1,0.4,1.6
			c0.1,0.5,0.2,1,0.4,1.6c0.1,0.5,0.2,1,0.4,1.6c0.1,0.5,0.2,1,0.4,1.6c0.1,0.5,0.2,1,0.4,1.6c0.1,0.5,0.2,1,0.4,1.6
			c0.1,0.5,0.2,1,0.4,1.5c0.1,0.5,0.2,1,0.3,1.6c0.2,0.5,0.3,1,0.4,1.6c0.2,0.5,0.3,1,0.4,1.6c0.2,0.5,0.3,1,0.4,1.5
			c0.3,1,0.5,2,0.8,3.1c0.1,0.5,0.2,1,0.3,1.5c0.3,1,0.5,2,0.8,3c0.2,1,0.4,1.9,0.7,2.9c0.2,0.9,0.4,1.9,0.7,2.8
			c0.8,2.4,1.6,5.3,2,7.9c0.2,0.8,0.4,1.6,0.7,2.4c0.1,0.8,0.3,1.5,0.6,2.3c0.1,0.3,0.1,0.7,0.2,1c0.1,0.4,0.1,0.7,0.2,1
			c0.1,0.4,0.1,0.7,0.2,1c0.1,0.3,0.1,0.7,0.2,1c0.1,0.6,0.2,1.2,0.4,1.8c0.2,1.3,0.5,2.5,0.8,3.8c0.1,0.2,0.1,0.3,0.2,0.5
			c0,0.4,0.1,0.7,0.2,1c0.1,0.2,0.1,0.3,0.1,0.4c0,0.2,0.1,0.5,0.2,0.7c0,0.2-0.1,0.5,0.1,0.7h-0.1c-0.1,0.1-0.1,0.2-0.2,0.3
			c-0.1,0.1-0.2,0.1-0.4,0.2c-0.2,0.1-0.4,0.1-0.6,0.1c-0.3,0.1-0.5,0.1-0.8,0.2c-0.3,0-0.6,0-0.9,0.1c-0.4,0.1-0.7,0.1-1.1,0.1
			c-0.8,0.1-1.6,0.1-2.4,0.2c-2.8,0-5.7,0-8.5,0c-0.9-0.1-1.8-0.1-2.8-0.2c-0.4,0-0.9,0-1.3,0c-0.4-0.1-0.8-0.1-1.2-0.1
			c-0.3-0.1-0.7-0.1-1.1-0.1c-0.3-0.1-0.6-0.1-0.9-0.2c-0.5,0-1-0.1-1.5-0.3c-0.4,0-0.6-0.2-0.8-0.4c-0.1-0.2-0.1-0.3-0.2-0.4
			c-0.1-0.2-0.1-0.4-0.2-0.6c-0.2-0.5-0.3-1.1-0.5-1.7c-0.2-0.8-0.4-1.5-0.6-2.3c-0.7-5.4-2.9-10.7-3.4-16.2
			c-0.2-0.9-0.4-1.7-0.6-2.6c-0.1-0.4-0.2-0.8-0.2-1.2c-0.3-1-0.3-2-0.7-3c0-0.2,0-0.5-0.1-0.7c-0.1-0.2-0.1-0.3-0.2-0.4
			c0-0.2,0-0.4-0.1-0.5c-0.1,0-0.2,0-0.4-0.1c-0.2,0-0.4,0-0.7-0.1c-0.7-0.1-1.5-0.1-2.2-0.2c-0.4,0-0.9,0-1.3,0
			c-1.8-0.2-3.8-0.2-5.6,0c-0.7,0-1.5,0.1-2.2,0.3c-0.2,0.1-0.5,0.1-0.7,0.3c-0.2,0.1-0.3,0.1-0.4,0.3v0.1c-0.1,0.1-0.1,0.2-0.1,0.3
			c-0.1,0.2-0.1,0.3-0.1,0.5c-0.2,0.9-0.3,1.8-0.6,2.6c-0.1,0.3-0.1,0.7-0.2,1.1c-0.1,0.4-0.2,0.8-0.2,1.2c-0.1,0.5-0.2,0.9-0.3,1.4
			c-0.5,4.1-1.7,8.3-2.5,12.3c-0.2,1.8-0.9,3.6-1.1,5.4c-0.1,0.4-0.2,0.8-0.3,1.1c-0.1,0.3-0.1,0.7-0.2,1c-0.1,0.3-0.1,0.6-0.2,0.8
			c-0.1,0.4-0.3,0.8-0.4,1.1c0,0.1,0,0.2-0.1,0.3c-0.1,0.1-0.2,0.2-0.2,0.2c-0.2,0.1-0.3,0.1-0.5,0.2c-1.2,0.3-2.4,0.6-3.6,0.6
			c-0.4,0.1-0.8,0.1-1.2,0.2c-0.9,0.1-1.8,0.1-2.7,0.2c-0.4,0.1-0.9,0.1-1.4,0.1c-1.5,0.2-2.9,0-4.4,0.2c-0.9,0-1.8,0-2.8-0.1
			c-0.4,0-0.9,0-1.3,0c-0.4-0.1-0.8-0.1-1.2-0.1c-0.4-0.1-0.8-0.1-1.1-0.1c-0.3-0.1-0.6-0.1-0.9-0.2c-0.5,0-1-0.1-1.5-0.4
			c-0.2-0.1-0.3-0.1-0.5-0.2C365.7,495,365.6,494.9,365.5,494.8z M407.4,454.7c0.1-0.1,0-0.3-0.1-0.5c-0.1-0.2-0.1-0.3-0.1-0.5
			c-0.1-0.5-0.2-0.9-0.3-1.4c0-1.1-0.4-2.4-0.6-3.5c-0.3-1-0.4-2.1-0.6-3.1c-0.2-0.8-0.3-1.5-0.5-2.3c-0.1-0.8-0.2-1.6-0.4-2.4
			c-0.1-0.4-0.1-0.8-0.2-1.2c-0.2-0.8-0.3-1.7-0.5-2.5c-0.1-0.5-0.1-0.9-0.2-1.3c-0.2-0.9-0.3-1.7-0.4-2.6c-0.3-1.3-0.3-2.6-0.7-3.8
			c-0.1-0.5-0.1-0.9-0.2-1.3c-0.2-0.4-0.2-0.8-0.2-1.3c-0.1-1.6-0.2-1.6-0.3,0c0,0.4-0.1,0.8-0.2,1.3c-0.1,0.4-0.2,0.8-0.2,1.3
			c0,1.3-0.4,2.8-0.7,4c-0.1,0.5-0.1,0.9-0.2,1.4c-0.1,0.4-0.1,0.8-0.2,1.3c-0.1,0.5-0.1,0.9-0.2,1.4c-0.1,0.4-0.1,0.8-0.2,1.3
			c-0.1,0.5-0.1,0.9-0.2,1.3c-0.1,0.5-0.1,0.9-0.2,1.3c-0.1,0.4-0.1,0.8-0.2,1.3c-0.1,0.4-0.1,0.8-0.2,1.2c-0.2,0.8-0.3,1.6-0.5,2.4
			c-0.1,0.4-0.1,0.8-0.2,1.1c-0.3,1-0.3,2.1-0.7,3.1c-0.1,0.6-0.2,1.2-0.3,1.7c0,0.7-0.2,1.8-0.4,2.5c-0.4,0.8,0.8,0.5,1.2,0.6
			c0.4,0,0.8,0,1.1,0c0.9-0.1,1.7-0.1,2.6-0.1c0.5-0.1,0.9-0.1,1.4-0.1c0.4-0.1,0.9-0.1,1.3-0.2c0.3,0,0.7,0,1.1-0.1
			C406.5,455,407,454.9,407.4,454.7C407.5,454.6,407.3,454.8,407.4,454.7z"/>
		<path fill="#020202" d="M467.8,452L467.8,452c-0.1-0.1-0.1-0.1-0.1-0.2c-0.1-0.1-0.1-0.2-0.1-0.3c-0.1-0.1-0.1-0.2-0.2-0.3
			c-0.1-0.2-0.1-0.3-0.2-0.4c-0.1-0.1-0.1-0.3-0.2-0.4c-0.1-0.2-0.2-0.3-0.3-0.5c-0.1-0.2-0.1-0.4-0.2-0.6c-0.1-0.2-0.2-0.5-0.3-0.7
			c-0.2-0.3-0.3-0.6-0.4-0.8c-0.1-0.3-0.2-0.6-0.4-0.8c-0.1-0.3-0.2-0.6-0.4-0.9c-0.2-0.3-0.3-0.7-0.4-1c-0.2-0.3-0.3-0.7-0.5-1
			c-0.3-0.7-0.7-1.5-1.1-2.2c-0.3-0.8-0.7-1.5-1.1-2.3c-0.2-0.4-0.4-0.8-0.6-1.2c-0.2-0.4-0.4-0.8-0.6-1.2c-0.4-0.9-0.9-1.7-1.3-2.6
			c-1.1-2.8-2.5-5.6-3.8-8.3c-2.6-4.5-4.4-9.6-6.6-14.3c-0.4-0.9-0.8-1.7-1.1-2.6c-0.2-0.5-0.4-0.9-0.6-1.3
			c-0.4-0.9-0.7-1.7-1.1-2.5c-0.5-1.1-0.9-2.3-1.5-3.4c-0.1-0.4-0.2-0.7-0.4-1.1c-0.2-0.3-0.3-0.6-0.4-1c-0.3-0.6-0.5-1.3-0.7-1.9
			c-0.2-0.5-0.4-1-0.7-1.6c-0.1-0.2-0.1-0.5-0.2-0.8c-0.1-0.2-0.1-0.4-0.2-0.6c-0.1-0.4-0.2-0.7-0.2-1.1c-0.1-0.1-0.1-0.3-0.2-0.4
			c0-0.1,0-0.2,0-0.3c-0.1-0.1-0.1-0.1,0-0.3c0-0.1,0-0.2,0.1-0.3c0.1-0.1,0.2-0.1,0.4-0.1c0.2-0.1,0.4-0.1,0.6-0.2
			c0.3,0,0.5,0,0.7-0.1c0.6-0.1,1.3-0.1,2-0.2c0.4,0,0.8,0,1.1-0.1c0.8,0,1.7,0,2.5-0.1c2.3,0,4.6,0,6.9,0c0.9,0.1,1.7,0.1,2.6,0.1
			c0.8,0,1.5,0.1,2.3,0.2c0.3,0,0.7,0,1,0.1c0.3,0,0.6,0,0.9,0.1c0.2,0,0.4,0,0.7,0.1c0.2,0,0.4,0,0.6,0.1c0.1,0,0.2,0,0.3,0.1
			c0.1,0.1,0.1,0.1,0.2,0.2c0.1,0.1,0.2,0.2,0.2,0.4c0.1,0.2,0.2,0.3,0.3,0.5c0.2,0.2,0.3,0.4,0.4,0.6c0.2,0.3,0.3,0.6,0.4,0.8
			c0.2,0.3,0.3,0.6,0.5,0.9c0.2,0.3,0.4,0.7,0.6,1c0.2,0.3,0.4,0.7,0.6,1.1c0.4,0.8,0.8,1.6,1.1,2.4c2.8,6,5.3,12.2,8.4,18
			c0.2,0.4,0.3,0.7,0.5,1c0.1,0.4,0.2,0.7,0.4,1c0.1,0.3,0.2,0.6,0.4,0.9c0.1,0.2,0.2,0.5,0.3,0.7c0.1,0.2,0.1,0.4,0.2,0.6
			c0.1,0.3,0.2,0.5,0.3,0.7v0.1v-0.1c0.1-0.2,0.2-0.4,0.3-0.6c0.1-0.2,0.1-0.4,0.2-0.6c0.5-1.1,1.1-2.3,1.5-3.5
			c0.2-0.4,0.3-0.7,0.5-1c0.4-0.8,0.8-1.7,1.1-2.5c0.4-0.9,0.8-1.8,1.1-2.7c1.9-4.2,4.1-8.3,5.8-12.6c0.2-0.4,0.4-0.8,0.7-1.2
			c0.2-0.4,0.4-0.8,0.6-1.2c0.2-0.3,0.4-0.7,0.6-1c0.2-0.3,0.3-0.6,0.5-1c0.2-0.3,0.3-0.6,0.5-0.9c0.1-0.2,0.2-0.5,0.4-0.7
			c0.3-0.5,0.6-1,1-1.4c0.1-0.1,0.1-0.1,0.2-0.2c0.3-0.1,0.6-0.1,1-0.2c0.3,0,0.5,0,0.8-0.1c0.3,0,0.6,0,0.9,0
			c0.8-0.1,1.5-0.1,2.3-0.2c3.6,0,7.5-0.4,11.1,0.1c0.8,0,1.6,0,2.4,0.1c0.3,0,0.7,0,1,0.1c0.3,0,0.6,0,0.9,0.1c0.3,0,0.5,0,0.7,0.1
			c0.2,0,0.4,0,0.6,0.1c0.1,0,0.2,0,0.2,0.1c0.2,0,0,0.5,0,0.5c0,0.1,0,0.2-0.1,0.4c-0.1,0.2-0.1,0.3-0.1,0.4
			c-0.1,0.2-0.1,0.3-0.2,0.5c-0.3,0.5-0.6,1.4-0.7,1.9c-0.1,0.3-0.2,0.6-0.3,0.8c-0.1,0.3-0.2,0.6-0.3,0.9c-0.3,0.6-0.5,1.3-0.8,1.9
			c-0.1,0.3-0.2,0.7-0.4,1c-0.6,1.6-1.3,3.1-2,4.6c-1.1,2.1-1.9,4.3-2.9,6.5c-1.7,4.9-4.3,9.7-6.4,14.3c-1,1.9-1.8,3.8-2.7,5.7
			c-0.5,1.4-1.2,2.7-1.9,4.1c-1.2,3.1-3.2,6.1-4.2,9.3c-0.2,0.3-0.3,0.6-0.5,0.9c-0.1,0.3-0.2,0.6-0.4,0.9c-0.1,0.3-0.2,0.6-0.4,0.9
			c-0.1,0.2-0.2,0.5-0.3,0.8c-0.1,0.2-0.2,0.5-0.3,0.7c-0.1,0.2-0.2,0.4-0.3,0.6c-0.1,0.2-0.1,0.3-0.2,0.5c-0.1,0.2-0.1,0.3-0.2,0.4
			c-0.1,0.3-0.2,0.5-0.3,0.7c0,0.1,0,0.2-0.1,0.3c0,0.1,0,0.1-0.1,0.2v0.1c0,0.1,0,0.1,0.1,0.2c0,0.1,0,0.2,0,0.3
			c0.1,0.1,0.1,0.3,0.1,0.4c0.1,0.2,0.1,0.3,0.1,0.5c0.1,0.5,0.2,0.9,0.2,1.4c0.2,1.3,0.4,2.6,0.7,3.8c0.3,1.2,0.3,2.5,0.7,3.7
			c0.1,0.9,0.2,1.8,0.4,2.6c0.1,0.5,0.1,0.9,0.2,1.4c0.2,1,0.3,1.9,0.5,2.9c0.1,0.5,0.1,1,0.2,1.5c0.2,1,0.3,1.9,0.4,2.9
			c0.4,1.9,0.4,3.9,0.8,5.9c0.1,0.5,0.1,0.9,0.1,1.4c0.2,1.3,0.4,2.6,0.4,3.9c0.1,0.4,0.1,0.8,0.2,1.2c0,0.4,0,0.8,0.1,1.2
			c0,0.3,0,0.7,0,1c0.2,1.3,0.1,2.8,0,4c0,0.5-0.1,0.9-0.2,1.4c-0.1,0.3-0.3,0.5-0.5,0.7c-0.1,0.1-0.2,0.1-0.3,0.2
			c-0.2,0-0.4,0.1-0.6,0.2c-0.2,0.1-0.4,0.1-0.7,0.1c-0.3,0.1-0.5,0.1-0.8,0.2c-1,0-2.1,0.1-3,0.3c-0.4,0-0.8,0-1.2,0.1
			c-0.8,0-1.7,0-2.5,0.1c-2.3,0-4.7,0.2-7-0.1c-1,0-1.9,0-2.8-0.1c-0.5,0-0.9,0-1.4-0.1c-0.4,0-0.9,0-1.3,0
			c-0.4-0.1-0.9-0.1-1.3-0.1c-0.4-0.1-0.8-0.1-1.2-0.2c-0.4,0-0.8,0-1.1-0.1c-0.7,0-1.3-0.1-2-0.3c-0.5,0-1-0.1-1.5-0.3
			c-0.2-0.1-0.4-0.1-0.6-0.2c-0.3-0.1-0.5-0.2-0.7-0.3c-0.1-0.1-0.1-0.1-0.1-0.2c-0.1-0.1-0.1-0.2-0.2-0.3c0-0.2,0-0.3,0-0.5
			c-0.4-1.2-0.1-2.9-0.1-4.2c0.1-0.4,0.1-0.8,0.1-1.1c0.1-0.4,0.1-0.8,0.1-1.2c0.1-0.5,0.1-0.9,0.1-1.3c0.1-0.5,0.1-0.9,0.2-1.4
			c0-1.5,0.3-2.9,0.4-4.4c0-1.1,0.1-2.1,0.2-3.1c0.5-2.6,0.4-5.3,1-7.9c0.2-1.5,0.3-3,0.5-4.5c0.6-2.4,0.7-5,1.1-7.5
			c0-0.7,0.1-1.3,0.2-1.9c0-0.2,0-0.5,0.1-0.7c0-0.2,0-0.4,0.1-0.6c0-0.2,0-0.3,0.1-0.5c0-0.1,0-0.3,0-0.4
			C467.8,452.2,467.8,452.1,467.8,452L467.8,452z"/>
		<path fill="#020202" d="M519.6,494.8L519.6,494.8c0-0.3-0.1-0.9,0.1-1c0-0.2,0-0.3,0.1-0.4c0-0.1,0-0.3,0-0.4
			c0.1-0.2,0.1-0.3,0.2-0.5c0.1-0.4,0.1-0.8,0.2-1.1c0.4-1.2,0.6-2.4,0.8-3.7c0.2-0.6,0.3-1.2,0.5-1.7c0.1-0.3,0.1-0.6,0.2-1
			c0.1-0.3,0.2-0.6,0.2-1c0.1-0.4,0.2-0.7,0.2-1c0.1-0.4,0.2-0.7,0.3-1c0.2-0.7,0.3-1.5,0.5-2.2c0.2-0.8,0.4-1.6,0.7-2.4
			c0.3-2.1,1.1-4.3,1.5-6.4c0.5-1.3,0.7-2.7,1.1-4.1c0.3-0.9,0.5-1.9,0.8-2.8c0.1-0.5,0.2-1,0.3-1.5c0.3-1,0.5-1.9,0.8-2.9
			c0.1-0.5,0.2-1,0.3-1.5c0.2-0.5,0.3-1,0.4-1.6c0.2-0.5,0.3-1,0.4-1.5c0.2-0.5,0.3-1,0.4-1.5c0.2-0.5,0.3-1,0.4-1.6
			c0.2-0.5,0.3-1,0.4-1.5c0.2-0.5,0.3-1,0.4-1.6c0.2-0.5,0.3-1,0.4-1.5c0.2-0.5,0.3-1,0.4-1.6c0.2-0.5,0.3-1,0.4-1.5
			c0.2-0.5,0.3-1,0.4-1.6c0.2-0.5,0.3-1,0.4-1.6c0.2-0.5,0.3-1,0.5-1.5c0.1-0.5,0.2-1,0.4-1.6c0.1-0.5,0.2-1,0.4-1.5
			c0.1-0.5,0.2-1,0.4-1.6c0.1-0.5,0.2-1,0.4-1.5c0.1-0.5,0.2-1,0.4-1.5c0.1-0.5,0.2-1,0.4-1.5c0.1-0.5,0.2-1,0.4-1.5
			c0.1-0.5,0.2-1,0.4-1.5c0.1-0.5,0.2-1,0.4-1.5c0.1-0.5,0.2-0.9,0.3-1.4c0.2-0.5,0.3-0.9,0.4-1.4c0.3-0.9,0.5-1.9,0.8-2.8
			c0.1-0.5,0.2-0.9,0.3-1.4c0.3-0.9,0.5-1.7,0.7-2.6c0.6-1.6,0.8-3.4,1.5-5c0.3-1.2,0.7-2.3,1-3.5c0.2-1.1,0.6-2.1,0.8-3.1
			c0.2-0.6,0.4-1.2,0.6-1.8c0.1-0.4,0.2-0.7,0.2-1c0.1-0.3,0.2-0.6,0.2-0.8c0.1-0.3,0.2-0.6,0.2-0.9c0.2-0.5,0.3-1,0.5-1.5
			c0.1-0.4,0.2-0.8,0.4-1.2c0.1-0.5,0.3-1.1,0.5-1.6c0-0.3,0.1-0.5,0.2-0.8c0-0.1,0-0.2,0.1-0.4c0.1-0.1,0.1-0.1,0.1-0.3
			c0.1-0.1,0.1-0.2,0.2-0.4v-0.1c0.1-0.1,0.2-0.1,0.3-0.2c0.2-0.1,0.3-0.1,0.5-0.2c0.2-0.1,0.5-0.1,0.7-0.1c0.3-0.1,0.5-0.1,0.8-0.2
			c0.4,0,0.7,0,1.1-0.1c0.4,0,0.8,0,1.1-0.1c0.4,0,0.9,0,1.3-0.1c0.9,0,1.8,0,2.8-0.1c1.4,0,2.9,0,4.3,0c1.4,0.2,2.7,0,4.1,0.2
			c0.4,0,0.8,0,1.1,0.1c0.4,0,0.7,0,1.1,0c0.3,0.1,0.6,0.1,0.9,0.1c0.3,0.1,0.5,0.1,0.7,0.1c0.2,0.1,0.4,0.1,0.6,0.2
			c0.1,0,0.2,0,0.3,0.1v0.1c0.1,0,0.1,0,0.1,0.1c0.1,0.1,0.1,0.1,0.1,0.2c0.1,0.1,0.1,0.1,0.1,0.3c0.1,0.1,0.1,0.2,0.2,0.3
			c0,0.1,0,0.2,0.1,0.4c0.1,0.2,0.1,0.3,0.2,0.4c0.2,0.5,0.3,1.1,0.5,1.6c0.1,0.2,0.1,0.4,0.2,0.6c0.2,0.5,0.3,0.9,0.5,1.4
			c0.1,0.3,0.1,0.6,0.2,0.8c0.1,0.3,0.2,0.6,0.2,0.9c0.1,0.3,0.2,0.6,0.2,0.9c0.1,0.3,0.2,0.6,0.3,0.9c0.2,0.6,0.3,1.3,0.5,1.9
			c0.3,1.1,0.7,2.1,0.9,3.2c0.5,1.6,0.9,3.1,1.3,4.7c0.5,1.2,0.7,2.6,1.1,3.8c0.3,0.9,0.5,1.8,0.7,2.7c0.3,0.9,0.5,1.9,0.8,2.8
			c0.1,0.5,0.2,1,0.3,1.5c0.2,0.5,0.3,0.9,0.4,1.4c0.3,1,0.5,2,0.8,3c0.1,0.5,0.2,1,0.4,1.5c0.1,0.5,0.2,1,0.4,1.5
			c0.1,0.5,0.2,1,0.4,1.6c0.1,0.5,0.2,1,0.4,1.5c0.1,0.5,0.2,1,0.3,1.6c0.2,0.5,0.3,1,0.4,1.5c0.2,0.5,0.3,1,0.5,1.6
			c0.1,0.5,0.2,1,0.4,1.6c0.1,0.5,0.2,1,0.4,1.6c0.1,0.5,0.2,1,0.4,1.6c0.1,0.5,0.2,1,0.4,1.6c0.1,0.5,0.2,1,0.4,1.6
			c0.1,0.5,0.2,1,0.4,1.6c0.1,0.5,0.2,1,0.4,1.5c0.1,0.5,0.2,1,0.3,1.6c0.2,0.5,0.3,1,0.4,1.6c0.2,0.5,0.3,1,0.4,1.6
			c0.2,0.5,0.3,1,0.4,1.5c0.3,1,0.5,2,0.8,3.1c0.1,0.5,0.2,1,0.3,1.5c0.3,1,0.5,2,0.8,3c0.2,1,0.4,1.9,0.7,2.9
			c0.2,0.9,0.4,1.9,0.7,2.8c0.9,2.4,1.6,5.3,2,7.9c0.2,0.8,0.4,1.6,0.7,2.4c0.1,0.8,0.3,1.5,0.6,2.3c0.1,0.3,0.1,0.7,0.2,1
			c0.1,0.4,0.1,0.7,0.2,1c0.1,0.4,0.1,0.7,0.2,1c0.1,0.3,0.1,0.7,0.2,1c0.1,0.6,0.2,1.2,0.4,1.8c0.2,1.3,0.5,2.5,0.8,3.8
			c0.1,0.2,0.1,0.3,0.2,0.5c0,0.4,0.1,0.7,0.2,1c0.1,0.2,0.1,0.3,0.1,0.4c0,0.2,0.1,0.5,0.2,0.7c0,0.2-0.1,0.5,0.1,0.7H594
			c-0.1,0.1-0.1,0.2-0.2,0.3c-0.1,0.1-0.2,0.1-0.4,0.2c-0.2,0.1-0.4,0.1-0.6,0.1c-0.3,0.1-0.5,0.1-0.8,0.2c-0.3,0-0.6,0-0.9,0.1
			c-0.4,0.1-0.7,0.1-1.1,0.1c-0.8,0.1-1.6,0.1-2.4,0.2c-2.8,0-5.7,0-8.5,0c-0.9-0.1-1.8-0.1-2.8-0.2c-0.4,0-0.9,0-1.3,0
			c-0.4-0.1-0.8-0.1-1.2-0.1c-0.3-0.1-0.7-0.1-1.1-0.1c-0.3-0.1-0.6-0.1-0.9-0.2c-0.5,0-1-0.1-1.5-0.3c-0.4,0-0.6-0.2-0.8-0.4
			c-0.1-0.2-0.1-0.3-0.2-0.4c-0.1-0.2-0.1-0.4-0.2-0.6c-0.2-0.5-0.3-1.1-0.5-1.7c-0.2-0.8-0.4-1.5-0.6-2.3
			c-0.7-5.4-2.9-10.7-3.4-16.2c-0.2-0.9-0.4-1.7-0.6-2.6c-0.1-0.4-0.2-0.8-0.2-1.2c-0.3-1-0.3-2-0.7-3c0-0.2,0-0.5-0.1-0.7
			c-0.1-0.2-0.1-0.3-0.2-0.4c0-0.2,0-0.4-0.1-0.5c-0.1,0-0.2,0-0.4-0.1c-0.2,0-0.4,0-0.7-0.1c-0.7-0.1-1.5-0.1-2.2-0.2
			c-0.4,0-0.9,0-1.3,0c-1.8-0.2-3.8-0.2-5.6,0c-0.7,0-1.5,0.1-2.2,0.3c-0.2,0.1-0.5,0.1-0.7,0.3c-0.2,0.1-0.3,0.1-0.4,0.3v0.1
			c-0.1,0.1-0.1,0.2-0.1,0.3c-0.1,0.2-0.1,0.3-0.1,0.5c-0.2,0.9-0.3,1.8-0.6,2.6c-0.1,0.3-0.1,0.7-0.2,1.1c-0.1,0.4-0.2,0.8-0.2,1.2
			c-0.1,0.5-0.2,0.9-0.3,1.4c-0.5,4.1-1.7,8.3-2.5,12.3c-0.2,1.8-0.9,3.6-1.1,5.4c-0.1,0.4-0.2,0.8-0.3,1.1c-0.1,0.3-0.1,0.7-0.2,1
			c-0.1,0.3-0.1,0.6-0.2,0.8c-0.1,0.2-0.2,0.5-0.2,0.7c-0.1,0.2-0.1,0.3-0.2,0.4c0,0.1,0,0.2-0.1,0.3c-0.1,0.1-0.2,0.2-0.2,0.2
			c-0.2,0.1-0.3,0.1-0.5,0.2c-1.2,0.3-2.4,0.6-3.6,0.6c-0.4,0.1-0.8,0.1-1.2,0.2c-0.9,0.1-1.8,0.1-2.7,0.2c-0.4,0.1-0.9,0.1-1.4,0.1
			c-1.5,0.2-2.9,0-4.4,0.2c-0.9,0-1.8,0-2.8-0.1c-0.4,0-0.9,0-1.3,0c-0.4-0.1-0.8-0.1-1.2-0.1c-0.4-0.1-0.8-0.1-1.1-0.1
			c-0.3-0.1-0.6-0.1-0.9-0.2c-0.5,0-1-0.1-1.5-0.4c-0.2-0.1-0.3-0.1-0.5-0.2C519.7,495,519.7,494.9,519.6,494.8z M561.5,454.7
			c0.1-0.1,0-0.3-0.1-0.5c-0.1-0.2-0.1-0.3-0.1-0.5c-0.1-0.5-0.2-0.9-0.3-1.4c0-1.1-0.4-2.4-0.6-3.5c-0.3-1-0.4-2.1-0.6-3.1
			c-0.2-0.8-0.3-1.5-0.5-2.3c-0.1-0.8-0.2-1.6-0.4-2.4c-0.1-0.4-0.1-0.8-0.2-1.2c-0.2-0.8-0.3-1.7-0.5-2.5c-0.1-0.5-0.1-0.9-0.2-1.3
			c-0.2-0.9-0.3-1.7-0.4-2.6c-0.3-1.3-0.3-2.6-0.7-3.8c-0.1-0.5-0.1-0.9-0.2-1.3c-0.2-0.4-0.2-0.8-0.2-1.3c-0.1-1.6-0.2-1.6-0.3,0
			c0,0.4-0.1,0.8-0.2,1.3c-0.1,0.4-0.2,0.8-0.2,1.3c0,1.3-0.4,2.8-0.7,4c-0.1,0.5-0.1,0.9-0.2,1.4c-0.1,0.4-0.1,0.8-0.2,1.3
			c-0.1,0.5-0.1,0.9-0.2,1.4c-0.1,0.4-0.1,0.8-0.2,1.3c-0.1,0.5-0.1,0.9-0.2,1.3c-0.1,0.5-0.1,0.9-0.2,1.3c-0.1,0.4-0.1,0.8-0.2,1.3
			c-0.1,0.4-0.1,0.8-0.2,1.2c-0.2,0.8-0.3,1.6-0.5,2.4c-0.1,0.4-0.1,0.8-0.2,1.1c-0.3,1-0.3,2.1-0.7,3.1c-0.1,0.6-0.2,1.2-0.3,1.7
			c0,0.7-0.2,1.8-0.4,2.5c-0.4,0.8,0.8,0.5,1.2,0.6c0.4,0,0.8,0,1.1,0c0.9-0.1,1.7-0.1,2.6-0.1c0.5-0.1,0.9-0.1,1.4-0.1
			c0.4-0.1,0.9-0.1,1.3-0.2c0.3,0,0.7,0,1.1-0.1C560.6,455,561.1,454.9,561.5,454.7C561.5,454.6,561.4,454.8,561.5,454.7z"/>
	</g>
</g>
<path fill="#020202" d="M392.8,375.8c-3,0-5.3,7.2-10.2,7c-4.9-0.2-4.9-4.4-4.9-6c0-3.4,3.4-8.9,5.1-11c1.8-2.1,4.5-4.8,9.7-4.8
	c7.2,0,8.6,7.4,14.4,7.4c3.3,0,5.8-8.9,12.1-8.9c11.1,0,3.7,12,2.6,13.9c-1.9,3-7.4,10.5-14.8,10.5
	C399.3,383.8,397.8,375.8,392.8,375.8"/>
<path fill="#020202" d="M392.8,375.8c-3,0-5.3,7.2-10.2,7c-4.9-0.2-4.9-4.4-4.9-6c0-3.4,3.4-8.9,5.1-11c1.8-2.1,4.5-4.8,9.7-4.8
	c7.2,0,8.6,7.4,14.4,7.4c3.3,0,5.8-8.9,12.1-8.9c11.1,0,3.7,12,2.6,13.9c-1.9,3-7.4,10.5-14.8,10.5
	C399.3,383.8,397.8,375.8,392.8,375.8"/>
<path fill="#020202" d="M392.8,375.8c-3,0-5.3,7.2-10.2,7c-4.9-0.2-4.9-4.4-4.9-6c0-3.4,3.4-8.9,5.1-11c1.8-2.1,4.5-4.8,9.7-4.8
	c7.2,0,8.6,7.4,14.4,7.4c3.3,0,5.8-8.9,12.1-8.9c11.1,0,3.7,12,2.6,13.9c-1.9,3-7.4,10.5-14.8,10.5
	C399.3,383.8,397.8,375.8,392.8,375.8"/>
<path fill="#020202" d="M546.8,375.8c-3,0-5.3,7.2-10.2,7c-4.9-0.2-4.9-4.4-4.9-6c0-3.4,3.4-8.9,5.1-11c1.8-2.1,4.5-4.8,9.7-4.8
	c7.2,0,8.6,7.4,14.4,7.4c3.3,0,5.8-8.9,12.1-8.9c11.1,0,3.7,12,2.6,13.9c-1.9,3-7.4,10.5-14.8,10.5
	C553.3,383.8,551.8,375.8,546.8,375.8"/>
</svg>
