<?xml version="1.0" encoding="utf-8"?>
<!-- Generator: Adobe Illustrator 18.0.0, SVG Export Plug-In . SVG Version: 6.00 Build 0)  -->
<!DOCTYPE svg PUBLIC "-//W3C//DTD SVG 1.0//EN" "http://www.w3.org/TR/2001/REC-SVG-20010904/DTD/svg10.dtd">
<svg version="1.0" id="Camada_1" xmlns="http://www.w3.org/2000/svg" xmlns:xlink="http://www.w3.org/1999/xlink" x="0px" y="0px"
	 viewBox="120 314 504 222" enable-background="new 120 314 504 222" xml:space="preserve">
<path fill="#1B7C09" d="M159.3,483.5C159.3,483.5,159.3,483.4,159.3,483.5c-0.1-0.1-0.1-0.2-0.2-0.3c0-0.1,0-0.2-0.1-0.3
	c0-0.1,0-0.2-0.1-0.3c0-0.1,0-0.2-0.1-0.3c0-0.2,0-0.3,0-0.4c-0.1-0.2-0.1-0.3-0.1-0.5c-0.1-0.4-0.1-0.8-0.2-1.1
	c0-0.2,0-0.4-0.1-0.6c0-0.2,0-0.5,0-0.7c-0.1-0.5-0.1-1.1-0.2-1.6c0-0.6,0-1.2-0.1-1.8c0-0.6,0-1.3-0.1-1.9c0-0.7,0-1.4-0.1-2.1
	c0-0.8,0-1.5,0-2.3c-0.2-1.7,0.1-3.3-0.2-5c0-2.3,0.2-4.6-0.1-6.9c0-5-0.4-10.3,0.1-15.3c0-2.7,0-5.4,0-8c0.2-2.2,0-4.3,0.2-6.5
	c0-1.6-0.1-3.2,0.1-4.7c0-1,0-2,0-3.1c0.2-1.5,0-3,0.2-4.5c0-1,0-2,0.1-3c0-1,0-1.9,0.1-2.9c0-0.9,0-1.8,0.1-2.7
	c0-0.9,0-1.8,0.1-2.6c0-0.4,0-0.8,0-1.3c0-0.8,0.1-1.6,0.2-2.4c0-0.8,0-1.6,0.1-2.4c0-0.4,0-0.7,0-1c0-0.7,0.1-1.3,0.2-2
	c0-0.4,0-0.7,0-1c0-0.6,0.1-1.2,0.2-1.8c0-0.2,0-0.5,0.1-0.8c0-0.2,0-0.5,0-0.8c0-0.4,0.1-0.9,0.2-1.3c0-0.2,0-0.4,0.1-0.6
	c0-0.2,0-0.4,0-0.5c0-0.3,0.1-0.6,0.2-1c0-0.1,0-0.2,0.1-0.4c0-0.1,0-0.2,0-0.4c0.1-0.1,0.1-0.2,0.2-0.3c0-0.1,0-0.1,0.1-0.1
	c0.1-0.3,0.5-0.5,0.7-0.7c0.1-0.1,0.2-0.1,0.3-0.2c0.2-0.1,0.3-0.1,0.4-0.2c0.2-0.1,0.3-0.2,0.4-0.2c0.3-0.1,0.7-0.2,1-0.4
	c0.2-0.1,0.4-0.1,0.6-0.2c0.5-0.1,0.9-0.1,1.4-0.2c0.3-0.1,0.5-0.1,0.8-0.1c0.3-0.1,0.5-0.1,0.8-0.1c0.3-0.1,0.7-0.1,1-0.1
	c0.7-0.1,1.5-0.1,2.2-0.2c0.4,0,0.8,0,1.2,0c4.4-0.6,9.6-0.3,14.1,0c1.2,0,2.5,0,3.7,0.1c0.4,0,0.9,0,1.4,0.1c0.4,0,0.9,0,1.3,0.1
	c1.7,0,3.6,0.3,5.2,0.7c0.4,0.1,0.8,0.1,1.2,0.3c0.8,0.2,1.6,0.4,2.4,0.5c0.8,0.2,1.5,0.5,2.3,0.8c0.4,0.1,0.7,0.2,1.1,0.4
	c0.4,0.2,0.7,0.3,1.1,0.4c0.4,0.2,0.7,0.4,1.1,0.5c1,0.3,2.1,0.9,3,1.6c0.3,0.2,0.6,0.3,0.9,0.5c1.5,1.1,3,2.2,4.2,3.5
	c0.8,0.7,1.5,1.6,2.1,2.4c0.3,0.3,0.5,0.6,0.7,0.9c0.5,0.9,1.2,1.8,1.7,2.8c0.6,1,1.1,2.1,1.5,3.1c0.2,0.4,0.3,0.7,0.5,1
	c0.1,0.4,0.2,0.8,0.3,1.2c0.3,0.8,0.6,1.6,0.7,2.4c0.2,1.2,0.4,2.6,0.7,3.8c0.1,0.9,0.2,1.9,0.2,2.8c0.1,0.5,0.1,0.9,0.1,1.4
	c0.3,2.7,0.1,5.7-0.4,8.3c-0.2,1.6-0.7,3-1.1,4.5c-0.2,0.5-0.4,0.9-0.6,1.4c-0.2,0.4-0.4,0.8-0.6,1.3c-0.7,1.7-1.7,3.3-2.8,4.7
	c-0.3,0.4-0.5,0.8-0.8,1.1c-0.3,0.3-0.5,0.6-0.8,1c-0.3,0.3-0.6,0.7-0.9,1c-0.3,0.3-0.7,0.6-1,0.9c-0.6,0.6-1.2,1.2-1.9,1.7
	c-0.3,0.2-0.7,0.5-1,0.7c-2.3,1.8-4.8,2.9-7.3,4.3c-0.4,0.1-0.7,0.3-1.1,0.4c-0.4,0.1-0.7,0.3-1.1,0.4c-1,0.3-2.1,0.7-3.1,1
	c-0.9,0.2-2,0.4-2.8,0.8c-1.1,0.2-2.3,0.6-3.4,0.6c-0.3,0.1-0.5,0.1-0.7,0.2c-0.2,0-0.5,0-0.7,0.1c-0.2,0-0.4,0-0.7,0.1
	c-0.2,0-0.4,0-0.6,0c-0.2,0.1-0.3,0.1-0.5,0.1c-0.2,0.1-0.3,0.1-0.5,0c-0.3-0.1-0.4-0.1-0.4,0c-0.1,0.3,0,0.7,0.1,1.1
	c0.2,1.2,0.2,2.4,0.3,3.6c0,0.8,0.1,1.7,0.2,2.5c0,0.9,0.1,1.8,0.2,2.6c0.1,0.9,0.1,1.7,0.2,2.6c0.1,0.5,0.1,0.9,0.2,1.3
	c0.1,0.9,0.1,1.8,0.2,2.7c0.1,0.4,0.1,0.8,0.1,1.2c0.1,0.9,0.1,1.7,0.2,2.6c0,0.8,0,1.6,0.1,2.4c0,0.8,0,1.6-0.1,2.4
	c0,0.7,0,1.4-0.1,2.1c0,0.7-0.1,1.3-0.2,2c-0.1,0.6-0.2,1.2-0.3,1.7c-0.1,0.5-0.3,1-0.5,1.5c-0.1,0.2-0.2,0.4-0.3,0.6
	c-0.1,0.2-0.2,0.3-0.3,0.5c-0.1,0.2-0.2,0.3-0.3,0.5c-0.3,0.3-0.6,0.5-0.9,0.6c-0.2,0.1-0.4,0.2-0.6,0.3c-0.3,0.1-0.5,0.2-0.7,0.3
	c-0.9,0.2-1.9,0.4-2.8,0.4c-0.4,0.1-0.8,0.1-1.1,0.2c-0.4,0-0.8,0-1.2,0c-2,0.3-4.5,0.2-6.6,0c-0.4,0-0.9,0-1.4,0
	c-0.4-0.1-0.9-0.1-1.3-0.1c-0.5-0.1-0.9-0.1-1.4-0.2c-0.8-0.1-1.7-0.1-2.5-0.2c-2-0.3-4.8-0.3-6.7-1.3
	C159.9,483.8,159.6,483.7,159.3,483.5C159.3,483.5,159.4,483.6,159.3,483.5z M198.4,416c0-0.6,0-1.3,0-1.8c-0.1-1.1-0.3-2.1-0.7-3.1
	c-0.4-0.9-0.9-1.7-1.4-2.5c-0.3-0.4-0.5-0.7-0.8-1c-0.3-0.3-0.7-0.6-1-0.9c-0.3-0.2-0.7-0.5-1-0.7c-0.7-0.4-1.4-0.8-2.1-1.1
	c-0.7-0.2-1.4-0.4-2.1-0.7c-0.7-0.1-1.3-0.2-2-0.3c-0.3,0-0.5,0-0.8-0.1c-0.2,0-0.5,0-0.7,0c-0.2,0.1-0.3,0.1-0.5,0
	c-0.2-0.1-0.4,0-0.4,0.1c-0.1,0.1-0.1,0.2-0.1,0.3c0.1,0.2,0.1,0.4,0,0.6c0,0.9-0.1,1.8,0.1,2.7c0,0.8,0,1.6,0.1,2.4
	c0,0.5,0,0.9,0,1.3c0.1,0.5,0.1,0.9,0.1,1.4c0.1,0.5,0.1,0.9,0.1,1.4c0.1,0.5,0.1,1,0.1,1.5c0.1,0.5,0.1,1,0.1,1.5
	c0.1,0.5,0.1,1,0.1,1.5c0.1,0.5,0.1,1,0.1,1.5c0.1,0.5,0.1,1,0.1,1.5c0.1,0.5,0.1,1,0.1,1.5c0.1,0.5,0.1,0.9,0.1,1.3
	c0.1,0.5,0.1,0.9,0.1,1.4c0.1,0.8,0.1,1.6,0.2,2.4c0,0.3,0,0.7,0.1,1c0,0.6,0.3,1.7,0.1,2.3c-0.1,0.2-0.1,0.4,0,0.5
	c0.1,0.1,0.2,0.1,0.4,0c0.2,0,0.3,0,0.5,0c0.2,0.1,0.4,0.1,0.6,0c0.5-0.1,1-0.2,1.5-0.4c0.3-0.1,0.5-0.2,0.7-0.3
	c0.3-0.1,0.6-0.3,0.9-0.4c0.3-0.1,0.5-0.3,0.8-0.4c0.6-0.4,1.2-0.8,1.7-1.3c0.9-0.9,1.8-1.8,2.4-3c0.6-0.8,1-1.7,1.3-2.6
	c0.7-1.7,1-3.4,1.3-5.2C198.3,417.4,198.4,416.7,198.4,416C198.4,415.3,198.4,416.7,198.4,416z"/>
<path fill="#020202" d="M231.9,384.4c0.1-0.1,0.2-0.2,0.4-0.3c0.3-0.1,0.5-0.2,0.7-0.3c0.3-0.1,0.6-0.1,0.9-0.3
	c1.2-0.2,2.4-0.4,3.6-0.5c0.5,0,1,0,1.5-0.1c0.5,0,1,0,1.5-0.1c1.5,0,3,0,4.5,0c1.3,0.2,2.8,0.3,4.1,0.3c1,0.2,2,0.3,2.9,0.5
	c0.2,0.1,0.4,0.2,0.7,0.3c0.1,0.1,0.2,0.1,0.3,0.3c0.1,0.1,0.2,0.1,0.2,0.3c-0.1,0.4-0.1,0.7-0.2,1c0,0.4,0,0.7-0.1,1
	c-0.1,0.7-0.1,1.5-0.2,2.2c-0.1,0.3-0.1,0.7-0.2,1c-0.1,0.8-0.1,1.5-0.2,2.3c-0.1,0.8-0.2,1.6-0.2,2.4c-0.1,0.8-0.2,1.6-0.2,2.4
	c-0.1,0.8-0.2,1.7-0.2,2.5c-0.1,0.4-0.1,0.8-0.2,1.2c0,0.9-0.1,1.8-0.2,2.6c-0.1,0.9-0.1,1.7-0.2,2.6c-0.1,0.4-0.1,0.8-0.1,1.3
	c-0.1,0.4-0.1,0.8-0.2,1.3c0,0.4,0,0.8-0.1,1.3c0,0.4,0,0.8-0.1,1.3c0,0.5,0,0.9-0.1,1.3c0,0.5,0,0.9-0.1,1.4c0,0.4,0,0.8,0,1.3
	c-0.1,0.9-0.1,1.7-0.1,2.6c-0.3,2.4-0.3,5.4,0,7.8c0,0.8,0,1.7,0.1,2.5c0,0.4,0,0.8,0.1,1.2c0.1,0.8,0.1,1.6,0.2,2.4
	c0.1,0.8,0.2,1.6,0.2,2.4c0.1,0.3,0.1,0.7,0.2,1c0.3,1.1,0.3,2.2,0.7,3.2c0.1,0.3,0.1,0.7,0.2,1c0.1,0.7,0.3,1.3,0.5,2
	c0.3,0.9,0.5,1.9,1.1,2.6c0.1,0.3,0.2,0.6,0.3,0.9c0.2,0.3,0.3,0.6,0.4,0.8c0.2,0.2,0.3,0.5,0.5,0.8c0.2,0.5,0.5,0.9,0.9,1.3
	c0.3,0.5,0.6,0.9,1.1,1.2c0.3,0.4,0.7,0.8,1.1,1c0.2,0.2,0.4,0.3,0.7,0.4c0.4,0.3,0.9,0.6,1.4,0.8c0.2,0.1,0.5,0.2,0.7,0.3
	c0.7,0.4,1.6,0.5,2.4,0.6c0.3,0,0.5,0,0.8,0.1c0.6,0,1.2,0,1.8-0.1c1,0,2.3-0.3,3.3-0.7c0.2-0.1,0.5-0.2,0.7-0.3
	c0.2-0.1,0.4-0.3,0.7-0.4c0.2-0.1,0.4-0.2,0.7-0.3c0.6-0.5,1.2-0.9,1.8-1.5c0.2-0.2,0.3-0.4,0.5-0.6c0.2-0.2,0.4-0.4,0.6-0.6
	c0.2-0.2,0.3-0.5,0.4-0.7c0.2-0.2,0.3-0.5,0.5-0.7c0.2-0.3,0.3-0.6,0.4-0.8c0.3-0.5,0.5-1,0.8-1.6c0.3-0.9,0.7-1.8,0.9-2.7
	c0.1-0.3,0.2-0.6,0.3-1c0.1-0.3,0.1-0.6,0.2-1c0.1-0.3,0.1-0.7,0.2-1c0.1-0.7,0.2-1.4,0.3-2.1c0.1-0.3,0.2-0.7,0.2-1
	c0.1-1.1,0.4-2.3,0.4-3.4c0.1-0.4,0.1-0.8,0.1-1.2c0.1-0.4,0.1-0.8,0.1-1.1c0.1-0.8,0.1-1.6,0.2-2.4c0-2.5,0.2-5.1-0.1-7.6
	c0-0.5,0-0.9,0-1.3c-0.1-0.9-0.1-1.7-0.2-2.6c0-0.5,0-0.9-0.1-1.3c0-0.5,0-0.9-0.1-1.3c0-0.5,0-0.9-0.1-1.3
	c-0.1-0.9-0.1-1.7-0.2-2.6c-0.1-0.5-0.1-0.9-0.2-1.3c0-1.3-0.3-2.6-0.3-3.9c-0.1-0.8-0.2-1.7-0.3-2.5c0-1.3-0.2-2.5-0.4-3.8
	c0-1.2-0.2-2.4-0.4-3.6c0-1.2-0.3-2.3-0.4-3.5c0-0.7-0.1-1.5-0.2-2.2c-0.1-0.7-0.1-1.4-0.2-2.1c-0.1-0.3-0.1-0.7-0.2-1
	c0-0.1,0.1-0.2,0.2-0.4c0.1-0.1,0.2-0.1,0.3-0.3c0.2-0.1,0.4-0.1,0.6-0.2c0.3-0.1,0.5-0.1,0.8-0.2c0.3-0.1,0.7-0.2,1-0.2
	c0.8-0.1,1.6-0.2,2.4-0.3c0.4,0,0.9,0,1.4-0.1c0.4,0,0.9,0,1.4,0c1.9-0.2,4-0.2,5.9,0c0.5,0,0.9,0,1.4,0.1c0.4,0,0.9,0,1.3,0.1
	c1,0,2.1,0.3,3.1,0.4c0.2,0.1,0.4,0.1,0.7,0.2c0.2,0.1,0.3,0.1,0.5,0.3c0.1,0.1,0.1,0.1,0.2,0.2c0.2,0.7,0.4,1.5,0.7,2.2
	c0.2,1.1,0.6,2.1,0.8,3.2c0.1,0.3,0.2,0.7,0.3,1.1c0.2,0.8,0.3,1.5,0.5,2.3c0.1,0.4,0.2,0.7,0.2,1.1c0.1,0.3,0.2,0.7,0.2,1.1
	c0.1,0.4,0.2,0.8,0.2,1.1c0.1,0.4,0.2,0.8,0.2,1.2c0.1,0.4,0.2,0.7,0.2,1.1c0.2,0.8,0.3,1.6,0.5,2.4c0.1,0.8,0.2,1.6,0.4,2.4
	c0.4,3.2,1.2,6.6,1.2,9.9c0.1,0.5,0.1,0.9,0.2,1.3c0.1,0.8,0.1,1.6,0.2,2.4c0.1,0.5,0.1,0.9,0.1,1.3c0.1,0.4,0.1,0.8,0.1,1.2
	c0.1,0.5,0.1,0.9,0.1,1.3c0.1,0.8,0.1,1.7,0.2,2.5c0,0.8,0,1.6,0.1,2.4c0,1.7,0.1,3.4-0.1,5.1c0,0.8,0,1.7,0,2.5
	c-0.1,0.8-0.1,1.6-0.2,2.4c0,0.4,0,0.8-0.1,1.2c0,0.4,0,0.8-0.1,1.2c0,0.8-0.1,1.6-0.2,2.4c0,2.2-0.3,5-1,7.1
	c-0.1,0.8-0.2,1.6-0.4,2.4c-0.1,0.3-0.1,0.7-0.2,1.1c-0.2,0.8-0.3,1.5-0.5,2.3c-0.1,0.3-0.2,0.7-0.3,1c-0.2,1.5-0.8,2.9-1.2,4.3
	c-0.3,0.7-0.5,1.4-0.7,2.1c-0.2,0.4-0.3,0.7-0.4,1c-0.2,0.3-0.3,0.6-0.4,1c-0.2,0.3-0.3,0.7-0.5,1c-0.1,0.3-0.2,0.7-0.4,1
	c-0.2,0.3-0.3,0.7-0.5,1c-0.2,0.6-0.5,1.3-0.9,1.8c-0.2,0.3-0.4,0.7-0.6,1c-0.3,0.6-0.7,1.2-1.1,1.8c-0.4,0.5-0.8,1.1-1.1,1.7
	c-0.4,0.6-0.8,1.1-1.2,1.6c-0.2,0.2-0.4,0.5-0.6,0.8c-0.6,0.7-1.3,1.5-2,2.1c-0.2,0.2-0.5,0.5-0.7,0.7c-0.2,0.2-0.5,0.5-0.7,0.7
	c-0.2,0.2-0.5,0.4-0.7,0.6c-0.5,0.4-1,0.8-1.5,1.2c-0.8,0.5-1.6,1-2.4,1.6c-0.3,0.2-0.6,0.3-0.9,0.4c-0.3,0.2-0.6,0.3-0.9,0.5
	c-0.3,0.1-0.6,0.3-0.9,0.4c-0.3,0.1-0.6,0.2-0.9,0.3c-0.3,0.1-0.7,0.2-1,0.3c-0.3,0.2-0.7,0.3-1,0.4c-0.7,0.3-1.3,0.5-2,0.6
	c-0.3,0.1-0.7,0.2-1,0.3c-1.7,0.5-3.8,0.9-5.5,0.9c-0.8,0.1-1.6,0.1-2.4,0.1c-0.8,0.1-1.6,0.1-2.4,0c-0.4,0-0.8,0-1.1,0
	c-0.4-0.1-0.8-0.1-1.2-0.1c-0.4-0.1-0.8-0.1-1.1-0.2c-1.1,0-2.3-0.2-3.3-0.5c-0.3-0.1-0.7-0.1-1.1-0.3c-0.3-0.1-0.7-0.1-1.1-0.3
	c-1.6-0.3-3.5-1-4.9-1.7c-0.3-0.1-0.6-0.3-0.9-0.4c-0.3-0.1-0.6-0.3-0.9-0.4c-0.3-0.2-0.6-0.3-0.9-0.5c-0.6-0.3-1.1-0.6-1.6-1
	c-0.6-0.3-1.1-0.7-1.6-1.1c-0.5-0.4-1-0.8-1.5-1.2c-0.4-0.5-0.9-0.9-1.4-1.3c-0.5-0.4-1-0.9-1.4-1.5c-0.5-0.5-0.9-1-1.3-1.5
	c-0.4-0.6-0.8-1.1-1.2-1.6c-0.2-0.3-0.4-0.6-0.6-0.9c-0.2-0.2-0.4-0.5-0.6-0.8c-0.2-0.3-0.4-0.6-0.6-0.9c-0.3-0.6-0.7-1.2-1-1.7
	c-0.3-0.6-0.7-1.3-1-1.9c-0.2-0.3-0.3-0.6-0.5-0.9c-0.2-0.3-0.3-0.7-0.4-1c-0.2-0.3-0.3-0.6-0.4-1c-0.2-0.3-0.3-0.6-0.4-1
	c-0.2-0.3-0.3-0.7-0.4-1c-0.3-0.7-0.5-1.3-0.7-2c-0.5-1-0.8-2.2-1-3.2c-0.2-0.7-0.4-1.5-0.7-2.2c-0.2-0.8-0.3-1.5-0.5-2.3
	c-0.2-0.8-0.3-1.5-0.5-2.3c-0.1-0.4-0.1-0.8-0.2-1.1c-0.6-2.2-1-4.9-1-7.2c-0.1-0.4-0.1-0.8-0.2-1.2c-0.1-0.8-0.1-1.6-0.2-2.4
	c-0.1-0.8-0.1-1.6-0.2-2.4c0-0.4,0-0.8-0.1-1.3c0-0.8,0-1.6,0-2.4c-0.2-1.6-0.2-3.5,0-5.1c0-0.8,0-1.7,0-2.5
	c0.1-0.8,0.1-1.7,0.2-2.5c0-0.4,0-0.8,0.1-1.3c0-0.4,0-0.8,0.1-1.2c0-0.4,0-0.8,0.1-1.3c0-0.4,0-0.8,0.1-1.2c0-0.9,0.1-1.7,0.2-2.5
	c0-3.5,0.6-7.8,1.5-11.2c0.1-0.8,0.2-1.6,0.4-2.4c0.1-0.4,0.1-0.8,0.2-1.2c0.2-0.8,0.3-1.6,0.5-2.4c0.1-0.4,0.1-0.7,0.2-1.1
	c0.1-0.4,0.1-0.8,0.2-1.2c0.2-0.8,0.3-1.5,0.5-2.3c0.1-0.4,0.2-0.8,0.2-1.1c0.1-0.4,0.2-0.8,0.3-1.1c0.1-0.8,0.3-1.5,0.6-2.3
	c0.1-0.7,0.3-1.5,0.6-2.2C231.7,384.6,231.8,384.5,231.9,384.4C232,384.3,231.8,384.5,231.9,384.4z"/>
<path fill="#020202" d="M307.2,383.9L307.2,383.9c0.1,0,0.2,0,0.2-0.1c0.2,0,0.4,0,0.6-0.1c0.3,0,0.6,0,0.9,0
	c0.4-0.1,0.8-0.1,1.1-0.1c0.5-0.1,0.9-0.1,1.4-0.1c0.9-0.2,1.7,0,2.6-0.2c0.7,0,1.3,0,2,0c1.1-0.2,2.2,0,3.3-0.2
	c1.2,0,2.5,0.1,3.7-0.1c1.3,0,2.6,0,3.9,0c2.3-0.3,4.7-0.1,7.1-0.1c6.4-0.8,14.3-0.8,20.7,0c1.8,0,3.7-0.1,5.5,0.1
	c1.3,0,2.6-0.1,3.8,0.1c0.8,0,1.6,0,2.4,0c0.7,0.1,1.5,0.1,2.2,0.1c0.7,0.1,1.4,0.1,2.1,0.2c0.3,0,0.6,0,0.9,0
	c0.6,0,1.2,0.1,1.8,0.2c0.3,0,0.5,0,0.8,0c0.2,0.1,0.5,0.1,0.7,0.1c0.4,0.1,0.9,0.1,1.3,0.2c0.2,0,0.4,0,0.6,0.1
	c0.2,0,0.3,0,0.4,0.1c0.2,0,0.3,0,0.5,0.1c0.1,0,0.2,0,0.3,0.1c0.1,0,0.1,0,0.2,0.1c0.1,0,0.1,0,0.2,0.1c0.1,0,0.1,0,0.2,0.1
	c0.1,0.1,0.1,0.3,0.2,0.4c0.1,0.2,0.1,0.4,0.2,0.6c0.1,0.3,0.1,0.6,0.1,0.8c0.1,0.7,0.1,1.3,0.2,2c0,1.3,0.1,2.6-0.1,3.8
	c0,0.5,0,0.9-0.1,1.4c0,0.5,0,1-0.1,1.5c0,1-0.1,1.9-0.2,2.9c0,1.4-0.1,2.9-0.5,4.2c-0.1,0.8-0.2,1.6-0.4,2.4
	c-0.1,0.7-0.2,1.3-0.4,1.9c-0.1,0.2-0.1,0.5-0.2,0.8c-0.1,0.2-0.1,0.4-0.2,0.5c-0.1,0.2-0.1,0.3-0.2,0.4c-0.1,0.1-0.2,0.2-0.4,0.3
	c-0.2,0.1-0.4,0.2-0.6,0.3c-1,0.2-1.9,0.4-2.9,0.5c-1.3,0-2.8,0.1-4.1,0.3c-1,0-2,0-3,0.1c-1.5,0-3,0-4.5,0
	c-1.6-0.2-3.2,0.1-4.7-0.2c-0.6,0-1.2,0-1.9,0h-0.1c0,0.3-0.1,0.7,0.1,1c0,0.5-0.1,1.2,0.1,1.7c0,0.5,0,1,0.1,1.5c0,0.3,0,0.6,0,0.9
	c0.1,0.6,0.1,1.2,0.2,1.8c0,0.4,0,0.7,0,1c0.1,0.8,0.1,1.5,0.2,2.3c0,0.4,0,0.7,0,1.1c0.1,0.4,0.1,0.8,0.1,1.2
	c0.1,0.4,0.1,0.8,0.1,1.2c0.1,0.9,0.1,1.8,0.2,2.7c0,0.5,0,0.9,0.1,1.4c0,0.5,0,0.9,0.1,1.4c0,0.5,0,1,0.1,1.5c0,0.5,0,1,0,1.5
	c0.1,0.5,0.1,1,0.1,1.5c0.1,0.5,0.1,1,0.1,1.6c0.1,0.5,0.1,1,0.1,1.5c0.1,0.5,0.1,1,0.1,1.6c0.1,0.5,0.1,1.1,0.1,1.7
	c0.1,0.5,0.1,1,0.1,1.6c0.1,0.5,0.1,1,0.1,1.6c0.1,0.6,0.1,1.1,0.1,1.7c0.1,0.5,0.1,1.1,0.1,1.7c0.1,1.1,0.1,2.2,0.2,3.2
	c0,0.5,0,1,0.1,1.6c0,0.6,0,1.1,0.1,1.7c0,0.5,0,1,0.1,1.6c0,0.6,0,1.1,0,1.7c0.1,0.5,0.1,1,0.1,1.6c0.1,1,0.1,2.1,0.2,3.1
	c0,0.5,0,1,0,1.5c0.1,1,0.1,2,0.2,3c0,0.5,0,1,0,1.5c0.1,0.9,0.1,1.9,0.1,2.8c0.1,0.9,0.1,1.7,0.1,2.6c0.2,1.2,0.1,2.5,0.1,3.7
	c0.3,2.1,0.5,5.2,0,7.3c0,0.5,0.1,1.1-0.1,1.6c0,0.2,0,0.3,0,0.4c-0.1,0.2-0.1,0.4-0.2,0.5v0.1c-0.2,0.1-0.5,0.3-0.7,0.4
	c-0.2,0.1-0.4,0.1-0.7,0.2c-0.5,0.1-1.1,0.1-1.6,0.2c-0.3,0.1-0.7,0.1-1,0.1c-0.4,0.1-0.8,0.1-1.1,0.1c-0.8,0.1-1.7,0.1-2.5,0.2
	c-3.2,0-6.7,0.3-9.9-0.1c-0.9,0-1.8,0-2.8-0.1c-0.4,0-0.9,0-1.3-0.1c-0.4,0-0.8,0-1.1,0c-0.4-0.1-0.8-0.1-1.1-0.1
	c-0.3-0.1-0.7-0.1-1-0.2c-0.3,0-0.6,0-0.9-0.1c-0.2,0-0.5,0-0.7-0.1c-0.2-0.1-0.4-0.1-0.6-0.1c-0.2-0.1-0.3-0.1-0.4-0.2
	c-0.1,0-0.2,0-0.2-0.1l-0.1-0.1c0-0.1,0-0.1,0-0.2c-0.1-0.2-0.1-0.5-0.2-0.7c0-0.3,0-0.6-0.1-1c0-0.7,0.1-1.4-0.1-2
	c0-1.2,0.1-2.5-0.1-3.7c0-4.8-0.4-9.7,0.1-14.4c0-2.6-0.2-5.3,0.1-7.9c0-1.6,0-3.3,0-4.9c0.2-1.6,0.1-3.3,0.1-4.9
	c0.1-1.6,0.1-3.3,0.1-4.9c0.1-1.6,0-3.2,0.2-4.8c0-1.5-0.1-3.1,0.1-4.6c0-1,0-2,0-3c0.2-1.4,0.1-2.7,0.1-4.1
	c0.2-1.2,0.1-2.5,0.1-3.8c0.2-1.1,0.1-2.2,0.1-3.3c0.2-1.1,0.1-2.4,0.1-3.5c0.2-1.1,0.1-2.3,0.1-3.4V410c0.1-0.1,0.1-0.1,0-0.1H330
	c-0.9,0.5-2.8,0-3.8,0.2c-2.8,0-5.5,0-8.3,0c-0.9-0.1-1.9-0.1-2.8-0.2c-0.4,0-0.9,0-1.3-0.1c-0.8-0.1-1.6-0.1-2.4-0.2
	c-0.6-0.1-1.2-0.2-1.8-0.4c-0.2-0.1-0.4-0.2-0.7-0.3c-0.3-0.1-0.5-0.3-0.7-0.6c-0.1-0.2-0.2-0.4-0.2-0.6c-0.2-0.5-0.4-1.1-0.4-1.7
	c-0.4-1.1-0.4-2.3-0.6-3.5c0-1-0.1-1.9-0.2-2.9c0-0.5,0-1-0.1-1.5c0-0.5,0-1-0.1-1.5c0-0.5,0-1-0.1-1.6c0-2.7-0.3-5.5,0.1-8.1
	c0-0.4,0-0.7,0.1-1c0-0.3,0-0.6,0.1-0.9c0-0.4,0.1-0.8,0.2-1.1C307.1,384.1,307.1,384,307.2,383.9z"/>
<path fill="#020202" d="M386.5,385.5c0.1-0.1,0.1-0.1,0.2-0.2c0.1,0,0.2,0,0.3-0.1c0.2-0.1,0.3-0.1,0.4-0.2c0.2,0,0.4,0,0.6-0.1
	c0.2-0.1,0.4-0.1,0.6-0.2c0.5,0,1-0.1,1.5-0.3c0.6-0.1,1.2-0.1,1.9-0.2c0.3-0.1,0.7-0.1,1.1-0.2c0.8-0.1,1.5-0.1,2.3-0.2
	c0.4-0.1,0.8-0.1,1.2-0.1c0.4-0.1,0.8-0.1,1.2-0.2c0.4,0,0.9,0,1.3-0.1c0.5,0,0.9,0,1.4-0.1c0.4,0,0.9,0,1.4-0.1c0.5,0,0.9,0,1.4,0
	c0.5-0.1,1-0.1,1.5-0.1c1-0.1,2-0.1,2.9-0.2c1,0,2,0,2.9-0.1c1.4,0,2.9,0.1,4.3-0.1c1.4,0,2.8-0.1,4.1,0.1c1.2,0,2.5-0.1,3.7,0.1
	c0.4,0,0.8,0,1.2,0c0.7,0.1,1.4,0.1,2.1,0.2c0.3,0,0.6,0,0.9,0.1c0.6,0.1,1.1,0.1,1.7,0.2c0.2,0.1,0.5,0.1,0.7,0.2
	c0.2,0,0.4,0,0.6,0.1c0.4,0.2,0.8,0.3,1.2,0.5c0.1,0.1,0.1,0.1,0.2,0.2c0.1,0.2,0.2,0.3,0.2,0.5c0.1,0.2,0.2,0.5,0.2,0.8
	c0.7,1.8,0.7,4,0.9,5.9c0,0.5,0,1,0.1,1.5c0,0.5,0,1,0.1,1.5c0,0.5,0,1,0.1,1.5c0,1.8,0.2,3.7-0.1,5.5c0,0.4,0,0.8,0,1.2
	c-0.1,0.4-0.1,0.7-0.2,1c0,0.6-0.1,1.1-0.2,1.7c-0.1,0.2-0.1,0.3-0.2,0.5c-0.1,0.1-0.1,0.2-0.2,0.3c-0.2,0.1-0.3,0.2-0.5,0.3
	c-0.3,0.1-0.5,0.1-0.8,0.1c-1.2,0.2-2.6,0.1-3.8,0.1c-0.5-0.1-1-0.1-1.5-0.1c-0.5-0.1-1-0.1-1.5-0.1c-0.5-0.1-0.9-0.1-1.4-0.2
	c-0.8-0.1-1.6-0.1-2.4-0.2c-0.5,0-1-0.1-1.5-0.2c-0.1,0-0.1,0-0.2,0v0.1c0,0.8,0,1.6,0,2.4c-0.5,2.9-0.1,6.2-0.1,9.1
	c0.3,3-0.1,6,0.2,8.9c0,1.5-0.1,3.1,0.1,4.5c0,1,0,2,0.1,3c0,0.6,0,1.2,0.1,1.8c0,0.6,0,1.2,0.1,1.8c0,0.6,0,1.2,0.1,1.7
	c0,0.6,0,1.2,0.1,1.8c0,1.1,0.1,2.2,0.2,3.2c0,1,0.1,2,0.2,3.1c0,0.9,0.1,1.9,0.2,2.8c0,0.8,0.1,1.6,0.2,2.4c0,0.8,0.1,1.5,0.2,2.3
	c0,0.6,0.1,1.2,0.2,1.8c0.1,0.2,0.1,0.5,0.2,0.8c0,0.2,0,0.5,0.1,0.7c0,0.2,0,0.4,0.1,0.6c0,0.1,0,0.3,0,0.4c0,0.2,0.1,0.5,0.2,0.7
	c0,0.1,0,0.1,0,0.2v0.1c0.1,0,0.1,0,0.2-0.1c0.2,0,0.4,0,0.6-0.1c2-0.4,4.1-0.6,6.1-0.9c0.5,0,1,0,1.5-0.1c0.9,0,1.8,0,2.7,0
	c0.7,0.1,1.4,0.2,2,0.4c0.2,0.1,0.4,0.2,0.6,0.3c0.1,0.1,0.1,0.3,0.2,0.4c0.1,0.2,0.2,0.3,0.2,0.5c0.3,1.3,0.6,2.6,0.6,3.9
	c0.1,0.4,0.1,0.8,0.2,1.2c0,0.5,0,0.9,0.1,1.4c0,0.5,0,0.9,0.1,1.4c0,0.5,0,1,0.1,1.5c0,2.5,0.2,5.1-0.1,7.5c0,0.5,0,0.9-0.1,1.3
	c0,0.5,0,0.9-0.1,1.3c-0.1,0.8-0.1,1.5-0.2,2.3c-0.1,0.6-0.2,1.1-0.3,1.7c-0.1,0.2-0.1,0.3-0.2,0.5c-0.1,0.2-0.2,0.4-0.3,0.5
	c-0.2,0.1-0.4,0.1-0.7,0.2c-0.2,0.1-0.3,0.1-0.5,0.1c-0.2,0.1-0.4,0.1-0.6,0.2c-0.2,0-0.4,0-0.6,0.1c-0.3,0-0.5,0-0.7,0.1
	c-0.3,0-0.5,0-0.8,0.1c-0.3,0-0.6,0-0.9,0c-0.3,0.1-0.7,0.1-1,0.1c-0.7,0.1-1.4,0.1-2.1,0.2c-0.4,0-0.8,0-1.1,0
	c-0.8,0.1-1.6,0.1-2.4,0.1c-0.9,0.1-1.7,0.1-2.6,0.1c-2.3,0.3-4.7-0.1-7.1,0.2c-2.4,0-5,0.2-7.4-0.1c-1.9,0-3.9,0.1-5.8-0.1
	c-0.9,0-1.8,0-2.8,0c-0.9-0.1-1.7-0.1-2.6-0.1c-0.8-0.1-1.6-0.1-2.4-0.2c-0.4,0-0.8,0-1.1,0c-0.7-0.1-1.4-0.1-2.1-0.2
	c-0.3,0-0.7,0-1,0c-0.3-0.1-0.5-0.1-0.8-0.1c-0.3-0.1-0.5-0.1-0.8-0.1c-0.3-0.1-0.5-0.1-0.7-0.1c-0.2-0.1-0.4-0.1-0.7-0.1
	c-0.2-0.1-0.4-0.1-0.6-0.1c-0.2-0.1-0.3-0.1-0.5-0.1c-0.1-0.1-0.2-0.1-0.3-0.1c-0.1-0.1-0.2-0.1-0.3-0.1c-0.2-0.1-0.3-0.3-0.3-0.5
	c-0.1-0.2-0.2-0.3-0.2-0.5c-0.1-0.3-0.1-0.6-0.2-0.8c-0.1-0.7-0.2-1.4-0.3-2.1c-0.1-0.9-0.1-1.7-0.2-2.6c-0.1-1-0.1-2-0.1-3
	c-0.2-1.5-0.2-3.2,0-4.7c0-0.5,0-1,0-1.5c0.1-0.5,0.1-1,0.1-1.5c0.1-0.5,0.1-1,0.2-1.5c0-1.4,0.1-3.2,0.7-4.5
	c0.1-0.3,0.1-0.6,0.2-0.8c0.1-0.2,0.1-0.3,0.2-0.5c0.1-0.2,0.2-0.3,0.3-0.3c0.2-0.1,0.4-0.2,0.7-0.3c0.3-0.1,0.7-0.2,1-0.2
	c0.4-0.1,0.8-0.1,1.1,0c0.4,0,0.9,0,1.3,0c1.8,0.2,3.6,0.3,5.4,0.8c0.6,0.1,1.3,0.2,1.9,0.3c0.2,0.1,0.4,0.1,0.6,0.2
	c0.1,0,0.1,0,0.2,0v-0.1c0-0.1,0-0.1,0-0.2c0.1-0.2,0.1-0.5,0.1-0.7c0.1-0.4,0.1-0.8,0.2-1.1c0-0.2,0-0.5,0.1-0.7
	c0-0.3,0-0.6,0.1-0.8c0-0.3,0-0.6,0.1-1c0-0.3,0-0.6,0.1-1c0.1-0.7,0.1-1.5,0.2-2.2c0.1-0.5,0.1-0.9,0.2-1.3
	c0.1-0.9,0.1-1.7,0.2-2.6c0.1-0.5,0.1-1,0.2-1.5c0-0.5,0-1,0.1-1.5c0.1-1,0.1-2.1,0.2-3.1c0.1-0.5,0.1-1.1,0.1-1.7
	c0.1-0.6,0.1-1.1,0.2-1.7c0-0.6,0-1.2,0.1-1.7c0-0.6,0-1.2,0.1-1.8c0-0.6,0-1.2,0-1.7c0.1-0.6,0.1-1.3,0.1-1.8c0-1.3,0.1-2.7,0.2-4
	c0-1.3,0-2.5,0.1-3.8c0-1.7-0.1-3.4,0.1-5.1c0-3.6,1-8.8-0.1-12.2c0-0.3,0-0.5,0-0.8v-0.1c-0.1,0-0.1,0-0.2,0
	c-0.2,0.1-0.3,0.1-0.5,0.2c-1.8,0-3.5,0.7-5.3,0.7c-1.3,0.2-2.6,0.1-3.9,0.1c-0.4-0.1-0.8-0.1-1.1-0.2c-0.8-0.3-1.9-0.5-2.3-1.4
	c-0.4-0.5-0.5-1.6-0.6-2.2c0-0.4,0-0.7-0.1-1c0-0.4,0-0.8-0.1-1.2c0-1.4,0-2.7,0-4.1c0.1-0.5,0.1-1,0.1-1.5c0.1-0.5,0.1-1,0.1-1.5
	c0.2-1.8,0.3-3.8,0.7-5.6c0.1-0.4,0.1-0.8,0.2-1.1c0.1-0.4,0.2-0.7,0.2-1c0.1-0.3,0.2-0.6,0.3-0.8c0.1-0.2,0.1-0.5,0.2-0.7
	C386.3,385.7,386.4,385.6,386.5,385.5C386.6,385.4,386.4,385.6,386.5,385.5z"/>
<path fill="#020202" d="M489.5,441c0.1,0.3,0.4,0.6,1.1,1c1.3,0.8,2.9,2.9,3.8,4.2c0.6,0.8,1.2,1.5,1.8,2.3c0.5,0.8,1.1,1.5,1.6,2.3
	c0.8,1.2,1.6,2.4,2.3,3.6c1,1.5,1.8,3.3,2.7,4.9c0.2,0.4,0.4,0.8,0.6,1.2c0.4,0.8,0.8,1.6,1.1,2.4c0.5,1.2,1,2.3,1.5,3.5
	c0.3,0.8,0.5,1.5,0.8,2.3c0.8,1.6,1.1,3.5,1.7,5.2c0.1,0.4,0.1,0.7,0.2,1c0.1,0.3,0.1,0.6,0.2,1c0.2,1.1,0.4,2.2,0.7,3.2
	c0,0.2,0,0.5,0.1,0.7c0.1,0.4,0.1,0.8,0.2,1.2c0,0.5,0.1,1.3-0.1,1.8c0,0.1,0,0.2-0.1,0.3c0,0.1,0,0.1-0.1,0.2c0,0.1,0,0.1-0.1,0.2
	c-0.4,0.2-0.8,0.4-1.2,0.5c-0.5,0.1-0.9,0.2-1.4,0.3c-0.6,0.1-1.2,0.2-1.9,0.3c-0.7,0-1.4,0.1-2.1,0.3c-0.8,0.1-1.6,0.1-2.4,0.2
	c-0.4,0.1-0.8,0.1-1.2,0.2c-0.4,0-0.9,0-1.3,0.1c-0.4,0-0.9,0-1.3,0c-0.9,0.1-1.7,0.1-2.6,0.1c-0.9,0.1-1.8,0.1-2.7,0.1
	c-0.8-0.1-1.7-0.1-2.5-0.1c-1.1-0.1-2.4-0.3-3.5-0.3c-1.2-0.2-2.5-0.3-3.7-0.8c-0.2-0.1-0.4-0.1-0.7-0.3c-0.2-0.1-0.4-0.1-0.6-0.3
	c-0.3-0.3-0.5-0.7-0.7-1.1c-0.1-0.3-0.2-0.7-0.2-1c-0.5-2.2-0.7-4.6-1.4-6.8c-0.1-0.4-0.1-0.7-0.2-1c-0.1-0.3-0.2-0.7-0.2-1.1
	c-0.1-0.3-0.2-0.7-0.3-1.1c-0.1-0.8-0.3-1.6-0.6-2.4c-0.1-0.5-0.2-0.9-0.3-1.3c-0.2-0.4-0.3-0.8-0.4-1.2c-0.2-0.4-0.3-0.8-0.4-1.3
	c-0.5-1.3-1-2.6-1.5-3.9c-0.5-1.3-1.2-2.7-1.9-3.9c-0.6-0.9-1.1-1.7-1.5-2.6c-0.8-1.4-1.8-2.7-2.8-3.9v0.1c0,0.1,0,0.2,0,0.3
	c0.1,0.3,0.1,0.7,0.2,1c0,0.3,0,0.6,0,0.8c0.1,0.3,0.1,0.6,0.1,1c0.1,0.3,0.1,0.6,0.1,1c0.1,0.4,0.1,0.8,0.2,1.2
	c0,0.4,0,0.8,0.1,1.2c0,0.4,0,0.8,0.1,1.3c0.1,1,0.1,1.9,0.2,2.9c0.1,0.5,0.1,1,0.1,1.5c0.1,0.5,0.1,1,0.1,1.6
	c0.1,0.5,0.1,1,0.1,1.6c0.1,1,0.1,2.1,0.2,3.1c0,2.4,0,4.8,0,7.3c-0.1,0.5-0.1,0.9-0.1,1.3c-0.1,0.4-0.1,0.8-0.1,1.1
	c-0.2,1-0.3,1.9-0.5,2.9c-0.1,0.2-0.1,0.4-0.2,0.6c-0.1,0.2-0.2,0.3-0.2,0.5c-0.1,0.1-0.2,0.2-0.3,0.4c-0.2,0.1-0.3,0.2-0.5,0.3
	c-0.2,0.1-0.4,0.2-0.7,0.3c-0.2,0.1-0.5,0.2-0.7,0.3c-1.5,0.6-3.6,0.9-5.1,0.9c-0.4,0.1-0.9,0.1-1.3,0.2c-0.4,0-0.8,0-1.2,0.1
	c-0.5,0-0.9,0-1.4,0c-2.5,0.3-5.6,0.3-8.1,0c-0.4,0-0.8,0-1.2-0.1c-0.4,0-0.8,0-1.2-0.1c-0.4,0-0.8,0-1.1-0.1c-0.7,0-1.4-0.1-2-0.3
	c-0.8,0-1.5-0.2-2.3-0.4c-0.3-0.1-0.6-0.2-0.9-0.4l-0.1-0.1c0-0.1,0-0.1-0.1-0.2c0-0.1,0-0.1-0.1-0.2c0-0.1,0-0.2-0.1-0.3
	c0-0.1,0-0.2-0.1-0.3c0-0.1,0-0.3-0.1-0.4c0-0.1,0-0.3,0-0.4c-0.1-0.2-0.1-0.3-0.1-0.5c-0.1-0.4-0.1-0.8-0.2-1.2
	c0-0.2,0-0.5-0.1-0.7c0-0.2,0-0.5,0-0.8c-0.1-0.6-0.1-1.1-0.1-1.7c-0.1-0.6-0.1-1.2-0.2-1.8c0-0.7,0-1.3-0.1-2c0-0.7,0-1.4,0-2.1
	c-0.2-1.2,0-2.4-0.2-3.6c0-1.7,0.1-3.5-0.1-5.2c0-8.5-0.8-17.4,0.1-25.8c0-2.1-0.1-4.3,0.1-6.4c0-1.6,0-3.2,0-4.8
	c0.2-1.5,0-3.1,0.2-4.6c0-1,0-2,0-3.1c0.1-1,0.1-2,0.1-3c0.1-1,0.1-2,0.1-3c0.1-0.9,0.1-1.9,0.1-2.8c0.1-0.9,0.1-1.8,0.1-2.7
	c0.1-0.9,0.1-1.7,0.2-2.6c0-0.4,0-0.8,0-1.2c0.1-0.8,0.1-1.6,0.1-2.4c0.1-0.7,0.1-1.5,0.2-2.2c0-0.4,0-0.8,0-1.1
	c0.1-0.7,0.1-1.3,0.2-2c0-0.3,0-0.6,0-1c0.1-0.3,0.1-0.6,0.1-0.9c0-0.6,0.1-1.1,0.2-1.7c0-0.2,0-0.5,0-0.7c0.1-0.5,0.1-0.9,0.2-1.4
	c0-0.2,0-0.4,0.1-0.6c0-0.2,0-0.3,0-0.5c0.1-0.2,0.1-0.3,0.1-0.4c0-0.3,0.1-0.5,0.2-0.8c0-0.1,0-0.2,0.1-0.4c0-0.1,0-0.1,0-0.2
	l0.1-0.2c0.1-0.1,0.1-0.1,0.1-0.2c0.1-0.1,0.1-0.1,0.2-0.2c0.1-0.1,0.2-0.2,0.2-0.3c0.9-0.5,1.9-1.1,2.9-1.1
	c0.4-0.2,0.9-0.3,1.3-0.3c0.2-0.1,0.5-0.1,0.7-0.1c0.3-0.1,0.5-0.1,0.8-0.1c0.3-0.1,0.6-0.1,0.9-0.1c0.3-0.1,0.7-0.1,1-0.1
	c0.8-0.1,1.5-0.1,2.3-0.1c1.4-0.2,2.8,0,4.1-0.2c2.3,0,4.7-0.1,7,0.1c2.2,0,4.5-0.1,6.7,0.1c0.9,0,1.8,0,2.8,0.1
	c0.9,0,1.8,0.1,2.8,0.3c0.9,0,1.7,0.1,2.5,0.4c0.9,0.1,1.7,0.2,2.5,0.4c0.8,0.2,1.6,0.3,2.4,0.5c0.8,0.2,1.5,0.5,2.3,0.7
	c0.7,0.3,1.5,0.6,2.2,0.9c0.7,0.3,1.4,0.6,2.1,0.9c0.7,0.3,1.3,0.7,2,1.1c0.3,0.2,0.6,0.4,0.9,0.5c0.3,0.2,0.7,0.4,1,0.6
	c1.4,1.2,2.9,2.2,4.1,3.5c0.2,0.2,0.5,0.5,0.7,0.8c0.2,0.2,0.5,0.5,0.7,0.8c2,2.7,4.1,5.6,5,8.8c0.8,1.8,1.4,4.1,1.6,6
	c0.5,1.7,0.5,3.6,0.7,5.3c0,0.5,0,1,0.1,1.5c0,2.4,0.1,5.1-0.7,7.4c-0.1,0.8-0.3,1.5-0.7,2.3c-0.1,0.4-0.2,0.7-0.3,1
	c-0.2,0.3-0.3,0.7-0.5,1c-0.1,0.4-0.2,0.7-0.4,1c-0.2,0.3-0.4,0.6-0.6,1c-0.2,0.3-0.4,0.6-0.6,0.9c-0.5,0.9-1.2,1.8-1.9,2.5
	c-0.3,0.3-0.5,0.6-0.7,0.8c-0.8,0.7-1.5,1.5-2.4,2.2c-0.3,0.2-0.5,0.4-0.8,0.6c-0.3,0.2-0.6,0.4-0.9,0.6c-0.3,0.2-0.6,0.4-0.9,0.6
	c-0.7,0.3-1.3,0.7-2,1c-0.3,0.1-0.7,0.3-1,0.5c-0.3,0.3-0.7,0.4-1,0.4C489.9,440.6,489.5,440.8,489.5,441
	C489.6,441.3,489.5,440.8,489.5,441z M479.3,416.3c0-0.6,0-1.3-0.1-1.9c-0.1-0.6-0.2-1.1-0.4-1.7c-0.1-0.5-0.3-1-0.5-1.6
	c-0.2-0.4-0.5-0.8-0.7-1.3c-0.2-0.4-0.5-0.8-0.8-1.1c-0.3-0.3-0.6-0.7-0.9-1c-0.3-0.3-0.7-0.6-1.1-0.9c-0.3-0.3-0.7-0.6-1.1-0.8
	c-0.4-0.2-0.8-0.4-1.1-0.6c-0.4-0.2-0.8-0.4-1.1-0.5c-0.7-0.2-1.5-0.5-2.2-0.7c-0.4-0.1-0.7-0.1-1.1-0.3c-0.3-0.1-0.7-0.1-1-0.1
	c-0.3-0.1-0.5-0.1-0.8-0.1c-0.2-0.1-0.5-0.1-0.7-0.1c-0.2,0.1-0.4,0.1-0.6,0c-0.2,0-0.3,0-0.3,0.1c-0.1,0.1-0.1,0.3-0.1,0.5
	c0,0.2,0,0.4,0,0.6c-0.1,0.2-0.1,0.4,0,0.6c0,0.5,0,1,0,1.6c0.1,0.6,0.1,1.2,0.2,1.8c0.1,0.7,0.1,1.3,0.2,2c0.1,0.4,0.1,0.8,0.2,1.1
	c0.1,0.8,0.1,1.6,0.2,2.4c0.1,0.4,0.1,0.8,0.2,1.2c0.1,0.9,0.1,1.8,0.2,2.7c0.1,0.5,0.1,1,0.2,1.5c0.1,1,0.1,1.9,0.2,2.9
	c0.1,0.5,0.1,1,0.1,1.6c0.1,0.5,0.1,1,0.1,1.6c-0.1,0.6-0.1,1.1,0,1.6c0,0.1,0.2,0.1,0.5,0.1c0.2,0,0.4,0,0.7,0.1
	c0.5-0.1,1.1-0.1,1.6-0.2c0.3-0.1,0.7-0.1,1-0.3c0.7-0.2,1.4-0.4,2-0.6c0.8-0.3,1.5-0.7,2.2-1.1c0.7-0.5,1.3-1,2-1.5
	c1-0.9,1.7-2,2.4-3.2c0.2-0.4,0.3-0.8,0.5-1.3C479.2,418.4,479.3,417.3,479.3,416.3z"/>
<path fill="#020202" d="M513.4,484.8L513.4,484.8c0-0.3-0.1-0.9,0.1-1c0-0.2,0-0.3,0.1-0.4c0-0.1,0-0.3,0-0.4
	c0.1-0.2,0.1-0.3,0.2-0.5c0.1-0.4,0.1-0.8,0.2-1.1c0.4-1.2,0.6-2.4,0.8-3.7c0.2-0.6,0.3-1.2,0.5-1.7c0.1-0.3,0.1-0.6,0.2-1
	c0.1-0.3,0.2-0.6,0.2-1c0.1-0.4,0.2-0.7,0.2-1c0.1-0.4,0.2-0.7,0.3-1c0.2-0.7,0.3-1.5,0.5-2.2c0.2-0.8,0.4-1.6,0.7-2.4
	c0.3-2.1,1.1-4.3,1.5-6.4c0.5-1.3,0.7-2.7,1.1-4.1c0.3-0.9,0.5-1.9,0.8-2.8c0.1-0.5,0.2-1,0.3-1.5c0.3-1,0.5-1.9,0.8-2.9
	c0.1-0.5,0.2-1,0.3-1.5c0.2-0.5,0.3-1,0.4-1.6c0.2-0.5,0.3-1,0.4-1.5c0.2-0.5,0.3-1,0.4-1.5c0.2-0.5,0.3-1,0.4-1.6
	c0.2-0.5,0.3-1,0.4-1.5c0.2-0.5,0.3-1,0.4-1.6c0.2-0.5,0.3-1,0.4-1.5c0.2-0.5,0.3-1,0.4-1.6c0.2-0.5,0.3-1,0.4-1.5
	c0.2-0.5,0.3-1,0.4-1.6c0.2-0.5,0.3-1,0.4-1.6c0.2-0.5,0.3-1,0.5-1.5c0.1-0.5,0.2-1,0.4-1.6c0.1-0.5,0.2-1,0.4-1.5
	c0.1-0.5,0.2-1,0.4-1.6c0.1-0.5,0.2-1,0.4-1.5c0.1-0.5,0.2-1,0.4-1.5c0.1-0.5,0.2-1,0.4-1.5c0.1-0.5,0.2-1,0.4-1.5
	c0.1-0.5,0.2-1,0.4-1.5c0.1-0.5,0.2-1,0.4-1.5c0.1-0.5,0.2-0.9,0.3-1.4c0.2-0.5,0.3-0.9,0.4-1.4c0.3-0.9,0.5-1.9,0.8-2.8
	c0.1-0.5,0.2-0.9,0.3-1.4c0.3-0.9,0.5-1.7,0.7-2.6c0.6-1.6,0.8-3.4,1.5-5c0.3-1.2,0.7-2.3,1-3.5c0.2-1.1,0.6-2.1,0.8-3.1
	c0.2-0.6,0.4-1.2,0.6-1.8c0.1-0.4,0.2-0.7,0.2-1c0.1-0.3,0.2-0.6,0.2-0.8c0.1-0.3,0.2-0.6,0.2-0.9c0.2-0.5,0.3-1,0.5-1.5
	c0.1-0.4,0.2-0.8,0.4-1.2c0.1-0.5,0.3-1.1,0.5-1.6c0-0.3,0.1-0.5,0.2-0.8c0-0.1,0-0.2,0.1-0.4c0.1-0.1,0.1-0.1,0.1-0.3
	c0.1-0.1,0.1-0.2,0.2-0.4v-0.1c0.1-0.1,0.2-0.1,0.3-0.2c0.2-0.1,0.3-0.1,0.5-0.2c0.2-0.1,0.5-0.1,0.7-0.1c0.3-0.1,0.5-0.1,0.8-0.2
	c0.4,0,0.7,0,1.1-0.1c0.4,0,0.8,0,1.1-0.1c0.4,0,0.9,0,1.3-0.1c0.9,0,1.8,0,2.8-0.1c1.4,0,2.9,0,4.3,0c1.4,0.2,2.7,0,4.1,0.2
	c0.4,0,0.8,0,1.1,0.1c0.4,0,0.7,0,1.1,0c0.3,0.1,0.6,0.1,0.9,0.1c0.3,0.1,0.5,0.1,0.7,0.1c0.2,0.1,0.4,0.1,0.6,0.2
	c0.1,0,0.2,0,0.3,0.1v0.1c0.1,0,0.1,0,0.1,0.1c0.1,0.1,0.1,0.1,0.1,0.2c0.1,0.1,0.1,0.1,0.1,0.3c0.1,0.1,0.1,0.2,0.2,0.3
	c0,0.1,0,0.2,0.1,0.4c0.1,0.2,0.1,0.3,0.2,0.4c0.2,0.5,0.3,1.1,0.5,1.6c0.1,0.2,0.1,0.4,0.2,0.6c0.2,0.5,0.3,0.9,0.5,1.4
	c0.1,0.3,0.1,0.6,0.2,0.8c0.1,0.3,0.2,0.6,0.2,0.9c0.1,0.3,0.2,0.6,0.2,0.9c0.1,0.3,0.2,0.6,0.3,0.9c0.2,0.6,0.3,1.3,0.5,1.9
	c0.3,1.1,0.7,2.1,0.9,3.2c0.5,1.6,0.9,3.1,1.3,4.7c0.5,1.2,0.7,2.6,1.1,3.8c0.3,0.9,0.5,1.8,0.7,2.7c0.3,0.9,0.5,1.9,0.8,2.8
	c0.1,0.5,0.2,1,0.3,1.5c0.2,0.5,0.3,0.9,0.4,1.4c0.3,1,0.5,2,0.8,3c0.1,0.5,0.2,1,0.4,1.5c0.1,0.5,0.2,1,0.4,1.5
	c0.1,0.5,0.2,1,0.4,1.6c0.1,0.5,0.2,1,0.4,1.5c0.1,0.5,0.2,1,0.3,1.6c0.2,0.5,0.3,1,0.4,1.5c0.2,0.5,0.3,1,0.5,1.6
	c0.1,0.5,0.2,1,0.4,1.6c0.1,0.5,0.2,1,0.4,1.6c0.1,0.5,0.2,1,0.4,1.6c0.1,0.5,0.2,1,0.4,1.6c0.1,0.5,0.2,1,0.4,1.6
	c0.1,0.5,0.2,1,0.4,1.6c0.1,0.5,0.2,1,0.4,1.5c0.1,0.5,0.2,1,0.3,1.6c0.2,0.5,0.3,1,0.4,1.6c0.2,0.5,0.3,1,0.4,1.6
	c0.2,0.5,0.3,1,0.4,1.5c0.3,1,0.5,2,0.8,3.1c0.1,0.5,0.2,1,0.3,1.5c0.3,1,0.5,2,0.8,3c0.2,1,0.4,1.9,0.7,2.9
	c0.2,0.9,0.4,1.9,0.7,2.8c0.9,2.4,1.6,5.3,2,7.9c0.2,0.8,0.4,1.6,0.7,2.4c0.1,0.8,0.3,1.5,0.6,2.3c0.1,0.3,0.1,0.7,0.2,1
	c0.1,0.4,0.1,0.7,0.2,1c0.1,0.4,0.1,0.7,0.2,1c0.1,0.3,0.1,0.7,0.2,1c0.1,0.6,0.2,1.2,0.4,1.8c0.2,1.3,0.5,2.5,0.8,3.8
	c0.1,0.2,0.1,0.3,0.2,0.5c0,0.4,0.1,0.7,0.2,1c0.1,0.2,0.1,0.3,0.1,0.4c0,0.2,0.1,0.5,0.2,0.7c0,0.2-0.1,0.5,0.1,0.7h-0.1
	c-0.1,0.1-0.1,0.2-0.2,0.3c-0.1,0.1-0.2,0.1-0.4,0.2c-0.2,0.1-0.4,0.1-0.6,0.1c-0.3,0.1-0.5,0.1-0.8,0.2c-0.3,0-0.6,0-0.9,0.1
	c-0.4,0.1-0.7,0.1-1.1,0.1c-0.8,0.1-1.6,0.1-2.4,0.2c-2.8,0-5.7,0-8.5,0c-0.9-0.1-1.8-0.1-2.8-0.2c-0.4,0-0.9,0-1.3,0
	c-0.4-0.1-0.8-0.1-1.2-0.1c-0.3-0.1-0.7-0.1-1.1-0.1c-0.3-0.1-0.6-0.1-0.9-0.2c-0.5,0-1-0.1-1.5-0.3c-0.4,0-0.6-0.2-0.8-0.4
	c-0.1-0.2-0.1-0.3-0.2-0.4c-0.1-0.2-0.1-0.4-0.2-0.6c-0.2-0.5-0.3-1.1-0.5-1.7c-0.2-0.8-0.4-1.5-0.6-2.3c-0.7-5.4-2.9-10.7-3.4-16.2
	c-0.2-0.9-0.4-1.7-0.6-2.6c-0.1-0.4-0.2-0.8-0.2-1.2c-0.3-1-0.3-2-0.7-3c0-0.2,0-0.5-0.1-0.7c-0.1-0.2-0.1-0.3-0.2-0.4
	c0-0.2,0-0.4-0.1-0.5c-0.1,0-0.2,0-0.4-0.1c-0.2,0-0.4,0-0.7-0.1c-0.7-0.1-1.5-0.1-2.2-0.2c-0.4,0-0.9,0-1.3,0
	c-1.8-0.2-3.8-0.2-5.6,0c-0.7,0-1.5,0.1-2.2,0.3c-0.2,0.1-0.5,0.1-0.7,0.3c-0.2,0.1-0.3,0.1-0.4,0.3v0.1c-0.1,0.1-0.1,0.2-0.1,0.3
	c-0.1,0.2-0.1,0.3-0.1,0.5c-0.2,0.9-0.3,1.8-0.6,2.6c-0.1,0.3-0.1,0.7-0.2,1.1c-0.1,0.4-0.2,0.8-0.2,1.2c-0.1,0.5-0.2,0.9-0.3,1.4
	c-0.5,4.1-1.7,8.3-2.5,12.3c-0.2,1.8-0.9,3.6-1.1,5.4c-0.1,0.4-0.2,0.8-0.3,1.1c-0.1,0.3-0.1,0.7-0.2,1c-0.1,0.3-0.1,0.6-0.2,0.8
	c-0.1,0.2-0.2,0.5-0.2,0.7c-0.1,0.2-0.1,0.3-0.2,0.4c0,0.1,0,0.2-0.1,0.3c-0.1,0.1-0.2,0.2-0.2,0.2c-0.2,0.1-0.3,0.1-0.5,0.2
	c-1.2,0.3-2.4,0.6-3.6,0.6c-0.4,0.1-0.8,0.1-1.2,0.2c-0.9,0.1-1.8,0.1-2.7,0.2c-0.4,0.1-0.9,0.1-1.4,0.1c-1.5,0.2-2.9,0-4.4,0.2
	c-0.9,0-1.8,0-2.8-0.1c-0.4,0-0.9,0-1.3,0c-0.4-0.1-0.8-0.1-1.2-0.1c-0.4-0.1-0.8-0.1-1.1-0.1c-0.3-0.1-0.6-0.1-0.9-0.2
	c-0.5,0-1-0.1-1.5-0.4c-0.2-0.1-0.3-0.1-0.5-0.2C513.5,485,513.5,484.9,513.4,484.8z M555.3,444.7c0.1-0.1,0-0.3-0.1-0.5
	c-0.1-0.2-0.1-0.3-0.1-0.5c-0.1-0.5-0.2-0.9-0.3-1.4c0-1.1-0.4-2.4-0.6-3.5c-0.3-1-0.4-2.1-0.6-3.1c-0.2-0.8-0.3-1.5-0.5-2.3
	c-0.1-0.8-0.2-1.6-0.4-2.4c-0.1-0.4-0.1-0.8-0.2-1.2c-0.2-0.8-0.3-1.7-0.5-2.5c-0.1-0.5-0.1-0.9-0.2-1.3c-0.2-0.9-0.3-1.7-0.4-2.6
	c-0.3-1.3-0.3-2.6-0.7-3.8c-0.1-0.5-0.1-0.9-0.2-1.3c-0.2-0.4-0.2-0.8-0.2-1.3c-0.1-1.6-0.2-1.6-0.3,0c0,0.4-0.1,0.8-0.2,1.3
	c-0.1,0.4-0.2,0.8-0.2,1.3c0,1.3-0.4,2.8-0.7,4c-0.1,0.5-0.1,0.9-0.2,1.4c-0.1,0.4-0.1,0.8-0.2,1.3c-0.1,0.5-0.1,0.9-0.2,1.4
	c-0.1,0.4-0.1,0.8-0.2,1.3c-0.1,0.5-0.1,0.9-0.2,1.3c-0.1,0.5-0.1,0.9-0.2,1.3c-0.1,0.4-0.1,0.8-0.2,1.3c-0.1,0.4-0.1,0.8-0.2,1.2
	c-0.2,0.8-0.3,1.6-0.5,2.4c-0.1,0.4-0.1,0.8-0.2,1.1c-0.3,1-0.3,2.1-0.7,3.1c-0.1,0.6-0.2,1.2-0.3,1.7c0,0.7-0.2,1.8-0.4,2.5
	c-0.4,0.8,0.8,0.5,1.2,0.6c0.4,0,0.8,0,1.1,0c0.9-0.1,1.7-0.1,2.6-0.1c0.5-0.1,0.9-0.1,1.4-0.1c0.4-0.1,0.9-0.1,1.3-0.2
	c0.3,0,0.7,0,1.1-0.1C554.4,445,554.8,444.9,555.3,444.7C555.3,444.6,555.2,444.8,555.3,444.7z"/>
</svg>
