<?xml version="1.0" encoding="utf-8"?>
<!-- Generator: Adobe Illustrator 18.0.0, SVG Export Plug-In . SVG Version: 6.00 Build 0)  -->
<!DOCTYPE svg PUBLIC "-//W3C//DTD SVG 1.0//EN" "http://www.w3.org/TR/2001/REC-SVG-20010904/DTD/svg10.dtd">
<svg version="1.0" id="Camada_1" xmlns="http://www.w3.org/2000/svg" xmlns:xlink="http://www.w3.org/1999/xlink" x="0px" y="0px"
	 viewBox="120 314 406 222" enable-background="new 120 314 406 222" xml:space="preserve">
<g>
	<g>
		<path fill="#1B7C09" d="M218.6,441c0.1,0.3,0.4,0.6,1.1,1c1.3,0.8,2.8,2.9,3.8,4.2c0.6,0.8,1.2,1.5,1.8,2.3
			c0.5,0.8,1.1,1.5,1.6,2.3c0.8,1.2,1.6,2.4,2.3,3.6c1,1.5,1.8,3.3,2.7,4.9c0.2,0.4,0.4,0.8,0.6,1.2c0.4,0.8,0.8,1.6,1.1,2.4
			c0.5,1.2,1,2.3,1.5,3.5c0.3,0.8,0.5,1.5,0.8,2.3c0.8,1.6,1.1,3.5,1.7,5.2c0.1,0.4,0.1,0.7,0.2,1c0.1,0.3,0.1,0.6,0.2,1
			c0.2,1.1,0.4,2.2,0.7,3.2c0,0.2,0,0.5,0.1,0.7c0.1,0.4,0.1,0.8,0.2,1.2c0,0.5,0.1,1.3-0.1,1.8c0,0.1,0,0.2-0.1,0.3
			c0,0.1,0,0.1-0.1,0.2c0,0.1,0,0.1-0.1,0.2c-0.4,0.2-0.8,0.4-1.2,0.5c-0.5,0.1-0.9,0.2-1.4,0.3c-0.6,0.1-1.2,0.2-1.9,0.3
			c-0.7,0-1.4,0.1-2.1,0.3c-0.8,0.1-1.6,0.1-2.4,0.2c-0.4,0.1-0.8,0.1-1.2,0.2c-0.4,0-0.9,0-1.3,0.1c-0.4,0-0.9,0-1.3,0
			c-0.9,0.1-1.7,0.1-2.6,0.1c-0.9,0.1-1.8,0.1-2.7,0.1c-0.8-0.1-1.7-0.1-2.5-0.1c-1.1-0.1-2.4-0.3-3.5-0.3c-1.2-0.2-2.5-0.3-3.7-0.8
			c-0.2-0.1-0.4-0.1-0.7-0.3c-0.2-0.1-0.4-0.1-0.6-0.3c-0.3-0.3-0.5-0.7-0.7-1.1c-0.1-0.3-0.2-0.7-0.2-1c-0.5-2.2-0.7-4.6-1.4-6.8
			c-0.1-0.4-0.1-0.7-0.2-1c-0.1-0.3-0.2-0.7-0.2-1.1c-0.1-0.3-0.2-0.7-0.3-1.1c-0.1-0.8-0.3-1.6-0.6-2.4c-0.1-0.5-0.2-0.9-0.3-1.3
			c-0.2-0.4-0.3-0.8-0.4-1.2c-0.2-0.4-0.3-0.8-0.4-1.3c-0.5-1.3-1-2.7-1.5-3.9c-0.5-1.3-1.2-2.7-1.9-3.9c-1.3-2.3-2.7-4.5-4.3-6.6
			v0.1c0,0.1,0,0.2,0,0.3c0.1,0.3,0.1,0.7,0.2,1c0,0.3,0,0.6,0,0.8c0.1,0.3,0.1,0.6,0.1,1c0.1,0.3,0.1,0.6,0.1,1
			c0.1,0.4,0.1,0.8,0.2,1.2c0,0.4,0,0.8,0.1,1.2c0,0.4,0,0.8,0.1,1.3c0.1,1,0.1,1.9,0.2,2.9c0.1,0.5,0.1,1,0.1,1.5
			c0.1,0.5,0.1,1,0.1,1.6c0.1,0.5,0.1,1,0.1,1.6c0.1,1,0.1,2.1,0.2,3.1c0,2.4,0,4.8,0,7.3c-0.1,0.5-0.1,0.9-0.1,1.3
			c-0.1,0.4-0.1,0.8-0.1,1.1c-0.2,1-0.3,1.9-0.5,2.9c-0.1,0.2-0.1,0.4-0.2,0.6c-0.1,0.2-0.2,0.3-0.2,0.5c-0.1,0.1-0.2,0.2-0.3,0.4
			c-0.2,0.1-0.3,0.2-0.5,0.3c-0.2,0.1-0.4,0.2-0.7,0.3c-0.2,0.1-0.5,0.2-0.7,0.3c-1.5,0.6-3.6,0.9-5.1,0.9c-0.4,0.1-0.9,0.1-1.3,0.2
			c-0.4,0-0.8,0-1.2,0.1c-0.5,0-0.9,0-1.4,0c-2.5,0.3-5.6,0.3-8.1,0c-0.4,0-0.8,0-1.2-0.1c-0.4,0-0.8,0-1.2-0.1
			c-0.4,0-0.8,0-1.1-0.1c-0.7,0-1.4-0.1-2-0.3c-0.8,0-1.5-0.2-2.3-0.4c-0.3-0.1-0.6-0.2-0.9-0.4l-0.1-0.1c0-0.1,0-0.1-0.1-0.2
			c0-0.1,0-0.1-0.1-0.2c0-0.1,0-0.2-0.1-0.3c0-0.1,0-0.2-0.1-0.3c0-0.1,0-0.3-0.1-0.4c0-0.1,0-0.3,0-0.4c-0.1-0.2-0.1-0.3-0.1-0.5
			c-0.1-0.4-0.1-0.8-0.2-1.2c0-0.2,0-0.5-0.1-0.7c0-0.2,0-0.5,0-0.8c-0.1-0.6-0.1-1.1-0.1-1.7c-0.1-0.6-0.1-1.2-0.2-1.8
			c0-0.7,0-1.3-0.1-2c0-0.7,0-1.4,0-2.1c-0.2-1.2,0-2.4-0.2-3.6c0-1.7,0.1-3.5-0.1-5.2c0-8.5-0.8-17.4,0.1-25.8
			c0-2.1-0.1-4.3,0.1-6.4c0-1.6,0-3.2,0-4.8c0.2-1.5,0-3.1,0.2-4.6c0-1,0-2,0-3.1c0.1-1,0.1-2,0.1-3c0.1-1,0.1-2,0.1-3
			c0.1-0.9,0.1-1.9,0.1-2.8c0.1-0.9,0.1-1.8,0.1-2.7c0.1-0.9,0.1-1.7,0.2-2.6c0-0.4,0-0.8,0-1.2c0.1-0.8,0.1-1.6,0.1-2.4
			c0.1-0.7,0.1-1.5,0.2-2.2c0-0.4,0-0.8,0-1.1c0.1-0.7,0.1-1.3,0.2-2c0-0.3,0-0.6,0-1c0.1-0.3,0.1-0.6,0.1-0.9
			c0-0.6,0.1-1.1,0.2-1.7c0-0.2,0-0.5,0-0.7c0.1-0.5,0.1-0.9,0.2-1.4c0-0.2,0-0.4,0.1-0.6c0-0.2,0-0.3,0-0.5
			c0.1-0.2,0.1-0.3,0.1-0.4c0-0.3,0.1-0.5,0.2-0.8c0-0.1,0-0.2,0.1-0.4c0-0.1,0-0.1,0-0.2l0.1-0.2c0.1-0.1,0.1-0.1,0.1-0.2
			c0.1-0.1,0.1-0.1,0.2-0.2c0.1-0.1,0.2-0.2,0.2-0.3c0.9-0.5,1.9-1.1,2.9-1.1c0.4-0.2,0.9-0.3,1.3-0.3c0.2-0.1,0.5-0.1,0.7-0.1
			c0.3-0.1,0.5-0.1,0.8-0.1c0.3-0.1,0.6-0.1,0.9-0.1c0.3-0.1,0.7-0.1,1-0.1c0.8-0.1,1.5-0.1,2.3-0.1c1.4-0.2,2.8,0,4.1-0.2
			c2.3,0,4.7-0.1,7,0.1c2.2,0,4.5-0.1,6.7,0.1c0.9,0,1.8,0,2.8,0.1c0.9,0,1.8,0.1,2.8,0.3c0.9,0,1.7,0.1,2.5,0.4
			c0.9,0.1,1.7,0.2,2.5,0.4c0.8,0.2,1.6,0.3,2.4,0.5c0.8,0.2,1.5,0.5,2.3,0.7c0.7,0.3,1.5,0.6,2.2,0.9c0.7,0.3,1.4,0.6,2.1,0.9
			c0.7,0.3,1.3,0.7,2,1.1c0.3,0.2,0.6,0.4,0.9,0.5c0.3,0.2,0.7,0.4,1,0.6c1.4,1.2,2.9,2.2,4.1,3.5c0.2,0.2,0.5,0.5,0.7,0.8
			c0.2,0.2,0.5,0.5,0.7,0.8c2,2.7,4.1,5.6,5,8.8c0.8,1.8,1.4,4.1,1.6,6c0.5,1.7,0.5,3.6,0.7,5.3c0,0.5,0,1,0.1,1.5
			c0,2.4,0.1,5.1-0.7,7.4c-0.1,0.8-0.3,1.5-0.7,2.3c-0.1,0.4-0.2,0.7-0.3,1c-0.2,0.3-0.3,0.7-0.5,1c-0.1,0.4-0.2,0.7-0.4,1
			c-0.2,0.3-0.4,0.6-0.6,1c-0.2,0.3-0.4,0.6-0.6,0.9c-0.5,0.9-1.2,1.8-1.9,2.5c-0.3,0.3-0.5,0.6-0.7,0.8c-0.8,0.7-1.5,1.5-2.4,2.2
			c-0.3,0.2-0.5,0.4-0.8,0.6c-0.3,0.2-0.6,0.4-0.9,0.6c-0.3,0.2-0.6,0.4-0.9,0.6c-0.7,0.3-1.3,0.7-2,1c-0.3,0.1-0.7,0.3-1,0.5
			c-0.3,0.3-0.7,0.4-1,0.4C218.9,440.6,218.6,440.8,218.6,441C218.6,441.3,218.6,440.8,218.6,441z M208.3,416.3c0-0.6,0-1.3-0.1-1.9
			c-0.1-0.6-0.2-1.1-0.4-1.7c-0.1-0.5-0.3-1-0.5-1.6c-0.2-0.4-0.5-0.8-0.7-1.3c-0.2-0.4-0.5-0.8-0.8-1.1c-0.3-0.3-0.6-0.7-0.9-1
			c-0.3-0.3-0.7-0.6-1.1-0.9c-0.3-0.3-0.7-0.6-1.1-0.8c-0.4-0.2-0.8-0.4-1.1-0.6c-0.4-0.2-0.8-0.4-1.1-0.5c-0.7-0.2-1.5-0.5-2.2-0.7
			c-0.4-0.1-0.7-0.1-1.1-0.3c-0.3-0.1-0.7-0.1-1-0.1c-0.3-0.1-0.5-0.1-0.8-0.1c-0.2-0.1-0.5-0.1-0.7-0.1c-0.2,0.1-0.4,0.1-0.6,0
			c-0.2,0-0.3,0-0.3,0.1c-0.1,0.1-0.1,0.3-0.1,0.5c0,0.2,0,0.4,0,0.6c-0.1,0.2-0.1,0.4,0,0.6c0,0.5,0,1,0,1.6
			c0.1,0.6,0.1,1.2,0.2,1.8c0.1,0.7,0.1,1.3,0.2,2c0.1,0.4,0.1,0.8,0.2,1.1c0.1,0.8,0.1,1.6,0.2,2.4c0.1,0.4,0.1,0.8,0.2,1.2
			c0.1,0.9,0.1,1.8,0.2,2.7c0.1,0.5,0.1,1,0.2,1.5c0.1,1,0.1,1.9,0.2,2.9c0.1,0.5,0.1,1,0.1,1.6c0.1,0.5,0.1,1,0.1,1.6
			c-0.1,0.6-0.1,1.1,0,1.6c0,0.1,0.2,0.1,0.5,0.1c0.2,0,0.4,0,0.7,0.1c0.5-0.1,1.1-0.1,1.6-0.2c0.3-0.1,0.7-0.1,1-0.3
			c0.7-0.2,1.4-0.4,2-0.6c0.8-0.3,1.5-0.7,2.2-1.1c0.7-0.5,1.3-1,2-1.5c1-0.9,1.7-2,2.4-3.2c0.2-0.4,0.3-0.8,0.5-1.3
			C208.2,418.4,208.3,417.3,208.3,416.3z"/>
		<path fill="#020202" d="M243.6,384.9c0.2-0.2,0.4-0.3,0.7-0.4c0.1-0.1,0.2-0.1,0.4-0.1c0.2-0.1,0.4-0.1,0.6-0.2
			c0.2-0.1,0.4-0.1,0.7-0.1c0.2-0.1,0.5-0.1,0.7-0.1c0.2-0.1,0.5-0.1,0.7-0.2c0.3,0,0.6,0,0.9-0.1c0.3,0,0.6,0,0.9-0.1
			c0.4,0,0.7,0,1.1-0.1c0.3,0,0.7,0,1.1-0.1c0.4,0,0.7,0,1.1-0.1c0.4,0,0.8,0,1.2,0c0.8-0.1,1.6-0.1,2.4-0.2c0.4,0,0.9,0,1.3,0
			c1.4-0.2,2.8,0,4.1-0.2c5.8,0,11.9-0.6,17.7,0.1c1.4,0,2.8-0.1,4.1,0.1c0.9,0,1.8,0,2.7,0.1c0.8,0,1.6,0,2.4,0.1
			c0.4,0,0.8,0,1.1,0c0.7,0.1,1.4,0.1,2.1,0.2c0.3,0,0.7,0,1,0c0.3,0.1,0.6,0.1,0.9,0.1c0.5,0.1,1.1,0.1,1.6,0.2
			c0.2,0,0.4,0,0.7,0.1c0.2,0,0.4,0,0.6,0c0.2,0.1,0.4,0.1,0.6,0.1c0.2,0,0.5,0.1,0.7,0.2c0.1,0,0.1,0,0.2,0.1c0.1,0,0.1,0,0.1,0.1
			c0.1,0.1,0.1,0.1,0.2,0.3c0.1,0.2,0.1,0.3,0.1,0.5c0.1,0.2,0.1,0.5,0.1,0.7c0.1,0.2,0.1,0.5,0.1,0.8c0.3,1.9,0.2,4.3,0,6.2
			c0,0.5,0,1,0,1.6c-0.1,0.5-0.1,1-0.1,1.5c-0.1,0.5-0.1,1-0.1,1.6c-0.1,0.5-0.1,1-0.2,1.6c-0.1,1-0.1,2.1-0.2,3.1
			c-0.3,2.5,0,6.7-1.4,8.9c-0.1,0.3-0.2,0.5-0.3,0.7c-0.4,0.2-1.4,0.1-1.8,0c-0.2,0-0.5,0-0.7-0.1c-0.6-0.1-1.2-0.1-1.8-0.2
			c-0.7-0.1-1.4-0.2-2.1-0.4c-0.8-0.2-1.6-0.3-2.4-0.4c-0.4-0.1-0.9-0.2-1.3-0.3c-0.4-0.1-0.9-0.2-1.3-0.3c-0.4-0.1-0.9-0.2-1.3-0.3
			c-0.5-0.1-0.9-0.2-1.4-0.3c-0.4-0.1-0.9-0.2-1.4-0.3c-0.4-0.1-0.9-0.2-1.4-0.3c-0.4-0.1-0.9-0.2-1.3-0.3c-0.4-0.1-0.9-0.1-1.3-0.3
			c-0.9-0.2-1.7-0.3-2.6-0.5c-0.4-0.1-0.8-0.2-1.2-0.3c-0.7-0.2-1.5-0.3-2.2-0.5c-0.9-0.2-1.9-0.2-2.8-0.6c-0.2-0.1-0.4-0.1-0.7-0.1
			c-0.3-0.1-0.5-0.1-0.7-0.2c-0.3-0.1-0.4-0.1-0.4-0.1c-0.1,0.2-0.1,0.6,0.1,1c0.1,0.8,0.1,1.6,0.2,2.4c0.1,0.9,0.1,1.9,0.2,2.8
			c0.1,1,0.2,2,0.2,3c0.1,0.5,0.1,0.9,0.2,1.4c0.1,0.9,0.1,1.7,0.2,2.6c0.1,0.4,0.1,0.7,0.2,1c0,0.3,0,0.6,0,1
			c0.1,0.2,0.1,0.5,0.1,0.7c0.1,0.1,0.1,0.3,0.1,0.4v0.1c0.1,0.1,0.1,0.1,0.2,0c0.5-0.1,1-0.1,1.5-0.2c0.4,0,0.8,0,1.2-0.1
			c0.9-0.1,1.9-0.1,2.8-0.2c0.5-0.1,1-0.1,1.5-0.1c1.4-0.1,2.9-0.2,4.3,0c0.6,0,1.8,0,2.3,0.5c0.1,0.2,0.2,0.3,0.2,0.5
			c0.1,0.5,0.3,1.1,0.3,1.7c0.2,0.8,0.3,1.6,0.3,2.4c0.1,0.5,0.1,0.9,0.2,1.4c0,0.5,0,0.9,0.1,1.4c0,0.5,0,0.9,0.1,1.4
			c0,0.9,0,1.8-0.1,2.7c0,0.4,0,0.8-0.1,1.2c0,0.6-0.1,1.2-0.3,1.8c-0.5,1.5-2.6,1.5-3.8,1.5c-0.4,0.1-0.9,0.1-1.4,0.1
			c-0.9-0.1-1.9-0.1-2.8-0.2c-0.9,0-1.9-0.1-2.8-0.3c-0.8,0-1.8-0.1-2.5-0.3h-0.2c-0.1,0-0.1,0,0,0.1c0,0.4,0,0.7,0.1,1
			c0,0.3,0,0.6,0,0.9c0.1,0.3,0.1,0.6,0.1,1c0.1,0.4,0.1,0.8,0.1,1.2c0.1,0.4,0.1,0.8,0.2,1.3c0.1,0.9,0.1,1.9,0.2,2.8
			c0.1,1,0.2,2.1,0.2,3.1c0.2,1.5,0.3,3,0.5,4.5c0,1.3,0.2,2.5,0.4,3.8c0,0.3,0,0.6,0.1,1c0.1,0.2,0.1,0.5,0.2,0.8
			c0,0.2,0,0.4,0.1,0.5c0.3,0,0.6,0,0.9-0.1c0.7-0.3,1.5-0.4,2.3-0.5c0.3-0.1,0.7-0.2,1-0.3c0.3-0.1,0.7-0.2,1.1-0.4
			c3.9-0.6,7.9-2,11.7-3.1c0.8-0.2,1.7-0.3,2.5-0.5c0.4-0.1,0.8-0.2,1.2-0.3c1-0.3,2.1-0.4,3.1-0.6c0.3,0,0.5,0,0.8-0.1
			c0.5,0,0.9,0,1.4,0c0.1,0.1,0.2,0.1,0.4,0.1c0.1,0.1,0.2,0.1,0.3,0.2c0.1,0.1,0.1,0.1,0.2,0.3c0.1,0.2,0.1,0.3,0.2,0.4
			c0.2,0.4,0.3,0.9,0.5,1.3c0.1,0.3,0.1,0.6,0.2,0.9c0.1,0.4,0.2,0.7,0.2,1c0.2,0.8,0.3,1.5,0.5,2.3c0.1,0.4,0.1,0.8,0.2,1.2
			c0.1,0.5,0.2,0.9,0.2,1.4c0.2,0.9,0.3,1.9,0.4,2.8c0.6,2.9,0.7,6,1.1,8.9c0.1,0.9,0.1,1.8,0.2,2.7c0.1,0.8,0.1,1.7,0.1,2.5
			c0.1,0.7,0.1,1.4,0.1,2.1c0,0.6-0.1,1.1-0.2,1.7c0,0.4-0.1,0.7-0.2,1c0,0.1-0.1,0.2-0.2,0.4l-0.2,0.1c-0.1,0.1-0.1,0.1-0.2,0.1
			c-0.1,0.1-0.2,0.1-0.3,0.1c-0.1,0.1-0.2,0.1-0.4,0.1c-0.2,0.1-0.3,0.1-0.5,0.1c-0.2,0.1-0.4,0.1-0.6,0.1c-0.5,0.1-1,0.1-1.5,0.2
			c-0.3,0-0.5,0-0.8,0c-0.6,0.1-1.2,0.1-1.8,0.2c-0.3,0-0.7,0-1,0c-0.7,0.1-1.5,0.1-2.2,0.1c-1.2,0.2-2.4,0-3.6,0.2
			c-1.8,0-3.6-0.1-5.4,0.1c-4.4,0-8.7,0-13.1,0c-2.4-0.3-4.8,0.1-7.2-0.2c-1.4,0-2.7,0-4.1,0c-1.2-0.2-2.5,0-3.7-0.2
			c-0.7,0-1.5,0-2.2,0c-0.7-0.1-1.4-0.1-2.1-0.1c-0.6-0.1-1.2-0.1-1.8-0.1c-0.5-0.1-1-0.1-1.5-0.1c-0.4-0.1-0.9-0.1-1.3-0.1
			c-0.3-0.1-0.6-0.1-0.9-0.1c-0.2-0.1-0.3-0.1-0.5-0.1c-0.1,0-0.2-0.1-0.2-0.2v-0.1c-0.1-0.1-0.1-0.3-0.2-0.4c0-0.2,0-0.5-0.1-0.7
			c0-0.2,0-0.3,0-0.4c-0.1-0.3-0.1-0.7-0.1-1c-0.1-0.4-0.1-0.9-0.2-1.3c0-0.5,0-1-0.1-1.5c0-0.6,0-1.1-0.1-1.7c0-0.6,0-1.2-0.1-1.8
			c0-0.7,0-1.4-0.1-2.1c0-0.7,0-1.5,0-2.2c-0.1-0.8-0.1-1.6-0.1-2.4c-0.2-1.3,0-2.5-0.2-3.8c0-1.3,0.1-2.7-0.1-4
			c0-1.4,0.1-2.9-0.1-4.3c0-1.5,0-3,0-4.5c-0.2-2-0.1-4.2-0.1-6.2c-0.3-3.2-0.1-6.4-0.1-9.6c-0.7-6.9-0.7-15.2,0-22.1
			c0-2.8-0.2-5.8,0.1-8.6c0-1.7-0.1-3.5,0.1-5.2c0-1.2-0.1-2.4,0.1-3.6c0-0.7,0-1.5,0-2.2c0.1-0.7,0.1-1.3,0.1-2
			c0.1-0.6,0.1-1.2,0.1-1.8c0.1-0.6,0.1-1.1,0.1-1.7c0-0.5,0.1-1,0.2-1.5c0-0.4,0-0.9,0.1-1.3c0-0.2,0-0.4,0-0.5
			c0-0.3,0.1-0.6,0.2-1c0-0.1,0-0.2,0.1-0.3c0-0.1,0-0.2,0-0.4c0-0.2,0.1-0.3,0.2-0.4C243.3,385,243.4,384.9,243.6,384.9
			C243.6,384.8,243.5,384.9,243.6,384.9z"/>
		<path fill="#020202" d="M361.8,400.7c0,0.8,0,1.7-0.1,2.5c0,1.3-0.3,2.9-0.7,4.2c-0.3,1.9-0.9,4.1-1.6,5.9
			c-0.1,0.3-0.2,0.7-0.3,1.1c-0.2,0.4-0.3,0.7-0.4,1.1c-0.2,0.4-0.3,0.7-0.4,1c-0.2,0.3-0.3,0.7-0.4,1c-0.2,0.4-0.3,0.7-0.4,1
			c-0.2,0.3-0.3,0.7-0.4,1c-0.2,0.3-0.3,0.6-0.5,0.9c-0.1,0.2-0.2,0.5-0.3,0.7c-0.2,0.2-0.3,0.5-0.4,0.7c-0.1,0.2-0.2,0.3-0.4,0.5
			c-0.1,0.1-0.2,0.3-0.3,0.4c-0.1,0.1-0.2,0.2-0.3,0.3c-0.1,0.1-0.2,0.2-0.3,0.2c-0.2,0.1-0.3,0.1-0.5-0.1c-0.1-0.1-0.1-0.1-0.2-0.3
			c-0.2-0.4-0.4-0.8-0.7-1.2c-0.2-0.4-0.4-0.8-0.6-1.1c-0.2-0.4-0.4-0.8-0.7-1.1c-0.2-0.4-0.5-0.8-0.7-1.1c-0.2-0.3-0.4-0.7-0.7-1
			c-0.7-0.9-1.5-1.9-2.2-2.9c-0.5-0.6-1-1.2-1.5-1.7c-0.3-0.3-0.5-0.6-0.8-0.8c-0.7-0.8-1.6-1.5-2.4-2.2c-0.2-0.2-0.5-0.4-0.8-0.6
			c-0.2-0.2-0.5-0.4-0.7-0.6c-0.3-0.2-0.5-0.4-0.8-0.5c-0.8-0.4-1.6-0.9-2.4-1.2c-0.5-0.3-1-0.5-1.5-0.6c-0.5-0.2-1-0.3-1.5-0.4
			c-0.9,0-1.8-0.3-2.8-0.1c-0.4,0-0.8,0.1-1.2,0.3c-0.2,0.1-0.4,0.1-0.6,0.2c-0.6,0.2-1.1,0.6-1.5,1c-0.2,0.2-0.3,0.3-0.5,0.5
			c-0.1,0.1-0.2,0.3-0.4,0.4c-0.1,0.2-0.2,0.4-0.3,0.6c-0.2,0.4-0.5,0.9-0.7,1.3c-0.1,0.2-0.1,0.5-0.2,0.8c-0.2,0.5-0.3,1.1-0.3,1.7
			c-0.1,0.3-0.1,0.7-0.1,1c-0.1,0.7-0.1,1.3,0,2c0,0.3,0.1,0.7,0.2,1c0.1,0.3,0.1,0.6,0.2,0.9c0.1,0.3,0.2,0.6,0.3,0.8
			c0.2,0.5,0.5,1,0.9,1.5c0.3,0.5,0.7,0.9,1.1,1.2c0.4,0.4,0.9,0.7,1.4,1c0.3,0.2,0.5,0.4,0.7,0.5c0.3,0.1,0.6,0.3,0.9,0.4
			c0.3,0.1,0.5,0.2,0.8,0.3c0.3,0.2,0.6,0.3,0.9,0.4c2,0.7,4.2,1.3,6.2,2.2c0.7,0.2,1.4,0.5,2.1,0.7c0.4,0.2,0.8,0.3,1.1,0.4
			c0.4,0.2,0.7,0.3,1.1,0.4c1.1,0.5,2.2,1,3.3,1.6c0.4,0.2,0.7,0.4,1.1,0.6c0.3,0.2,0.7,0.5,1.1,0.7c0.3,0.2,0.7,0.5,1,0.7
			c0.3,0.2,0.5,0.5,0.8,0.7c0.6,0.4,1.2,0.9,1.7,1.4c0.2,0.2,0.5,0.5,0.7,0.8c0.3,0.2,0.5,0.5,0.7,0.8c0.2,0.2,0.5,0.5,0.7,0.8
			c0.2,0.3,0.4,0.6,0.7,0.8c0.4,0.6,0.8,1.1,1.2,1.7c0.2,0.3,0.4,0.6,0.6,0.9c0.2,0.3,0.4,0.6,0.6,1c0.2,0.3,0.3,0.6,0.5,0.9
			c0.2,0.3,0.3,0.7,0.5,1c0.2,0.3,0.3,0.7,0.5,1c0.1,0.4,0.2,0.7,0.4,1c0.1,0.3,0.2,0.6,0.4,1c0.3,1,0.7,2.1,0.9,3.1
			c0.1,0.3,0.2,0.7,0.3,1c0.1,0.7,0.2,1.5,0.4,2.2c0.1,0.3,0.1,0.7,0.1,1.1c0.2,1.1,0.2,2.2,0.3,3.3c0,1.1,0.1,2.4-0.1,3.5
			c0,0.4,0,0.8-0.1,1.2c0,1.6-0.4,3.2-0.6,4.7c-0.3,1-0.6,2.1-0.7,3.1c-0.4,1-0.6,1.9-1.1,2.9c-0.1,0.3-0.2,0.6-0.4,0.9
			c-0.1,0.3-0.2,0.6-0.4,0.9c-0.2,0.6-0.5,1.1-0.9,1.7c-0.2,0.3-0.4,0.6-0.6,0.8c-0.2,0.3-0.4,0.6-0.6,0.8c-0.2,0.2-0.4,0.5-0.6,0.8
			c-0.4,0.5-0.9,0.9-1.3,1.4c-0.2,0.2-0.4,0.4-0.7,0.6c-0.3,0.2-0.5,0.4-0.7,0.6c-0.5,0.4-1.1,0.8-1.6,1.2c-0.3,0.2-0.5,0.3-0.8,0.5
			c-0.3,0.2-0.6,0.4-0.9,0.5c-0.3,0.2-0.7,0.3-1,0.4c-0.3,0.2-0.7,0.3-1,0.4c-0.3,0.2-0.7,0.3-1,0.4c-1.7,0.8-3.8,1.5-5.7,1.8
			c-0.4,0.1-0.9,0.2-1.3,0.3c-2.3,0.6-4.8,0.7-7.1,1c-0.5,0-1.1,0-1.6,0.1c-0.5,0-1.1,0-1.5,0c-1.5,0.1-3,0.1-4.6,0.1
			c-0.4-0.1-0.8-0.1-1.1-0.1c-0.4-0.1-0.8-0.1-1.1-0.2c-0.4,0-0.8,0-1.2-0.1c-0.8-0.2-1.6-0.4-2.4-0.5c-1.6-0.2-3.4-0.8-5-1.4
			c-0.4-0.1-0.8-0.3-1.2-0.4c-0.4-0.1-0.8-0.3-1.1-0.4c-1.8-0.5-3.8-1.5-5.3-2.6c-0.3-0.2-0.6-0.3-0.9-0.5c-0.5-0.4-1.1-0.8-1.6-1.2
			c-0.2-0.2-0.4-0.4-0.7-0.6c-0.2-0.2-0.4-0.4-0.6-0.6c-0.2-0.2-0.3-0.4-0.5-0.6c-0.2-0.2-0.3-0.4-0.4-0.6c-0.1-0.2-0.2-0.4-0.3-0.6
			c-0.1-0.2-0.1-0.4-0.2-0.6c-0.2-0.6-0.1-1.5,0-2.1c0-1.8,0.7-3.6,0.9-5.3c0.3-1.3,0.6-2.6,1.1-3.8c0.1-0.5,0.2-0.9,0.4-1.4
			c0.1-0.5,0.2-0.9,0.4-1.3c0.1-0.5,0.2-0.9,0.4-1.4c0.2-0.9,0.5-1.8,0.9-2.6c0.2-0.9,0.5-1.7,0.9-2.5c0.3-0.8,0.5-1.6,0.8-2.4
			c0.2-0.3,0.3-0.7,0.5-1c0.1-0.3,0.2-0.7,0.4-1c0.1-0.3,0.2-0.6,0.3-0.9c0.3-0.5,0.5-1,0.7-1.5c0.1-0.2,0.2-0.3,0.3-0.5
			c0.1-0.1,0.1-0.3,0.2-0.4c0.1-0.1,0.1-0.1,0.2-0.3c0.1-0.1,0.2-0.1,0.3-0.1c0.1,0.1,0.2,0.2,0.2,0.3c0.2,0.2,0.5,0.5,0.7,0.8
			c0.1,0.1,0.2,0.2,0.4,0.3c0.2,0.2,0.3,0.4,0.4,0.5c0.3,0.4,0.7,0.7,1.1,1c0.2,0.2,0.4,0.4,0.6,0.6c0.2,0.2,0.4,0.4,0.6,0.6
			c0.4,0.4,0.9,0.8,1.3,1.2c0.7,0.7,1.4,1.4,2.1,2c0.5,0.5,0.9,0.9,1.5,1.3c0.3,0.2,0.5,0.5,0.8,0.7c0.8,0.6,1.6,1.2,2.4,1.8
			c0.3,0.2,0.5,0.3,0.8,0.5c0.5,0.4,1,0.7,1.5,1c0.3,0.1,0.5,0.3,0.8,0.4c0.5,0.3,1,0.5,1.5,0.7c0.2,0.1,0.5,0.2,0.7,0.3
			c0.5,0.2,1,0.3,1.5,0.3c0.2,0.1,0.4,0.1,0.7,0.1c0.2,0.1,0.4,0.1,0.7,0c0.2,0,0.4,0,0.7-0.1c0.2,0,0.4,0,0.6-0.1
			c0.2-0.1,0.4-0.2,0.6-0.3c0.2-0.1,0.4-0.2,0.6-0.3c0.5-0.6,0.9-1.1,1.4-1.8c0.4-0.9,0.7-1.8,0.9-2.7c0.4-1.3,0.3-2.5,0.3-3.8
			c-0.1-0.5-0.2-1.1-0.4-1.6c-0.1-0.5-0.3-1-0.7-1.4c-0.1-0.2-0.2-0.5-0.4-0.7c-0.2-0.2-0.3-0.4-0.5-0.6c-0.2-0.2-0.4-0.4-0.6-0.6
			c-0.9-0.7-1.8-1.5-2.8-2c-0.3-0.2-0.6-0.3-0.9-0.4c-0.3-0.2-0.5-0.3-0.8-0.4c-0.3-0.2-0.7-0.3-1-0.4c-0.6-0.3-1.3-0.6-2-0.8
			c-1-0.5-2.2-0.7-3.2-1.2c-1.6-0.5-3.2-0.9-4.7-1.5c-0.8-0.2-1.6-0.5-2.4-0.8c-0.4-0.1-0.8-0.2-1.2-0.3c-0.5-0.2-1.1-0.5-1.6-0.7
			c-0.3-0.2-0.5-0.4-0.8-0.5c-0.5-0.3-1-0.7-1.5-1c-0.5-0.5-1-0.9-1.5-1.4c-0.2-0.2-0.4-0.5-0.7-0.8c-0.2-0.2-0.4-0.5-0.6-0.8
			c-0.2-0.3-0.4-0.6-0.7-0.9c-0.4-0.6-0.8-1.2-1.1-1.8c-0.2-0.3-0.4-0.7-0.5-1c-0.3-0.7-0.6-1.4-0.9-2.1c-0.2-0.4-0.3-0.8-0.4-1.1
			c-0.3-0.8-0.5-1.6-0.7-2.4c-0.1-0.4-0.1-0.8-0.2-1.3c-0.1-0.4-0.1-0.8-0.2-1.2c-0.2-1.3-0.4-2.6-0.4-3.9c-0.2-1.3-0.2-2.7,0-4
			c0-1.7,0.2-3.5,0.5-5.2c0.2-1.5,0.6-3,0.9-4.5c0.2-0.5,0.3-0.9,0.4-1.4c0.5-1.3,0.9-2.6,1.5-3.8c0.2-0.4,0.4-0.8,0.6-1.2
			c0.2-0.4,0.4-0.7,0.6-1c0.2-0.4,0.4-0.8,0.7-1.1c0.4-0.7,0.9-1.3,1.4-1.9c0.2-0.3,0.5-0.6,0.7-1c0.3-0.3,0.5-0.6,0.7-0.8
			c0.3-0.3,0.5-0.6,0.8-0.9c0.3-0.2,0.5-0.5,0.8-0.8c0.3-0.2,0.6-0.5,0.9-0.7c0.3-0.2,0.5-0.4,0.8-0.6c0.3-0.2,0.6-0.5,0.9-0.7
			c0.3-0.2,0.6-0.4,0.9-0.5c0.3-0.2,0.6-0.4,0.9-0.6c0.3-0.2,0.7-0.3,1-0.4c0.3-0.2,0.6-0.3,0.9-0.5c0.3-0.1,0.7-0.3,1-0.4
			c1-0.3,1.9-0.8,2.9-1c0.3-0.1,0.7-0.2,1-0.3c1.5-0.5,3.4-0.9,5-0.9c0.6-0.1,1.3-0.1,2-0.1c0.4-0.1,0.8-0.1,1.1,0
			c0.4,0,0.8,0,1.1,0c0.4,0.1,0.8,0.1,1.1,0.1c0.8,0.1,1.6,0.2,2.4,0.4c0.4,0.1,0.8,0.1,1.2,0.3c1.2,0.2,2.4,0.6,3.5,1
			c0.4,0.1,0.8,0.2,1.2,0.4c0.4,0.2,0.8,0.4,1.1,0.5c2.3,0.6,4.8,2,6.7,3.3c0.4,0.2,0.7,0.4,1.1,0.6c0.3,0.2,0.7,0.5,1,0.7
			c0.3,0.2,0.7,0.4,1,0.6c0.3,0.2,0.6,0.5,0.9,0.7c0.8,0.7,1.6,1.4,2.4,2.1c0.2,0.2,0.5,0.5,0.7,0.7c0.5,0.4,0.9,0.8,1.2,1.3
			c0.4,0.4,0.7,0.9,1.1,1.4c0.3,0.4,0.6,0.8,0.7,1.3c0.1,0.2,0.1,0.4,0.2,0.6C361.6,399.8,361.7,400.2,361.8,400.7
			C361.8,400.9,361.8,400.5,361.8,400.7z"/>
		<path fill="#020202" d="M365.6,484.8L365.6,484.8c0-0.3-0.1-0.9,0.1-1c0-0.2,0-0.3,0.1-0.4c0-0.1,0-0.3,0-0.4
			c0.1-0.2,0.1-0.3,0.2-0.5c0.1-0.4,0.1-0.8,0.2-1.1c0.4-1.2,0.6-2.4,0.8-3.7c0.2-0.6,0.3-1.2,0.5-1.7c0.1-0.3,0.1-0.6,0.2-1
			c0.1-0.3,0.2-0.6,0.2-1c0.1-0.4,0.2-0.7,0.2-1c0.1-0.4,0.2-0.7,0.3-1c0.2-0.7,0.3-1.5,0.5-2.2c0.2-0.8,0.4-1.6,0.7-2.4
			c0.3-2.1,1.1-4.3,1.5-6.4c0.5-1.3,0.7-2.7,1.1-4.1c0.3-0.9,0.5-1.9,0.8-2.8c0.1-0.5,0.2-1,0.3-1.5c0.3-1,0.5-1.9,0.8-2.9
			c0.1-0.5,0.2-1,0.3-1.5c0.2-0.5,0.3-1,0.4-1.6c0.2-0.5,0.3-1,0.4-1.5c0.2-0.5,0.3-1,0.4-1.5c0.2-0.5,0.3-1,0.4-1.6
			c0.2-0.5,0.3-1,0.4-1.5c0.2-0.5,0.3-1,0.4-1.6c0.2-0.5,0.3-1,0.4-1.5c0.2-0.5,0.3-1,0.4-1.6c0.2-0.5,0.3-1,0.4-1.5
			c0.2-0.5,0.3-1,0.4-1.6c0.2-0.5,0.3-1,0.4-1.6c0.2-0.5,0.3-1,0.5-1.5c0.1-0.5,0.2-1,0.4-1.6c0.1-0.5,0.2-1,0.4-1.5
			c0.1-0.5,0.2-1,0.4-1.6c0.1-0.5,0.2-1,0.4-1.5c0.1-0.5,0.2-1,0.4-1.5c0.1-0.5,0.2-1,0.4-1.5c0.1-0.5,0.2-1,0.4-1.5
			c0.1-0.5,0.2-1,0.4-1.5c0.1-0.5,0.2-1,0.4-1.5c0.1-0.5,0.2-0.9,0.3-1.4c0.2-0.5,0.3-0.9,0.4-1.4c0.3-0.9,0.5-1.9,0.8-2.8
			c0.1-0.5,0.2-0.9,0.3-1.4c0.3-0.9,0.5-1.7,0.7-2.6c0.6-1.6,0.8-3.4,1.5-5c0.3-1.2,0.7-2.3,1-3.5c0.2-1.1,0.6-2.1,0.8-3.1
			c0.2-0.6,0.4-1.2,0.6-1.8c0.1-0.4,0.2-0.7,0.2-1c0.1-0.3,0.2-0.6,0.2-0.8c0.1-0.3,0.2-0.6,0.2-0.9c0.2-0.5,0.3-1,0.5-1.5
			c0.1-0.4,0.2-0.8,0.4-1.2c0.1-0.5,0.3-1.1,0.5-1.6c0-0.3,0.1-0.5,0.2-0.8c0-0.1,0-0.2,0.1-0.4c0.1-0.1,0.1-0.1,0.1-0.3
			c0.1-0.1,0.1-0.2,0.2-0.4v-0.1c0.1-0.1,0.2-0.1,0.3-0.2c0.2-0.1,0.3-0.1,0.5-0.2c0.2-0.1,0.5-0.1,0.7-0.1c0.3-0.1,0.5-0.1,0.8-0.2
			c0.4,0,0.7,0,1.1-0.1c0.4,0,0.8,0,1.1-0.1c0.4,0,0.9,0,1.3-0.1c0.9,0,1.8,0,2.8-0.1c1.4,0,2.9,0,4.3,0c1.4,0.2,2.7,0,4.1,0.2
			c0.4,0,0.8,0,1.1,0.1c0.4,0,0.7,0,1.1,0c0.3,0.1,0.6,0.1,0.9,0.1c0.3,0.1,0.5,0.1,0.7,0.1c0.2,0.1,0.4,0.1,0.6,0.2
			c0.1,0,0.2,0,0.3,0.1v0.1c0.1,0,0.1,0,0.1,0.1c0.1,0.1,0.1,0.1,0.1,0.2c0.1,0.1,0.1,0.1,0.1,0.3c0.1,0.1,0.1,0.2,0.2,0.3
			c0,0.1,0,0.2,0.1,0.4c0.1,0.2,0.1,0.3,0.2,0.4c0.2,0.5,0.3,1.1,0.5,1.6c0.1,0.2,0.1,0.4,0.2,0.6c0.2,0.5,0.3,0.9,0.5,1.4
			c0.1,0.3,0.1,0.6,0.2,0.8c0.1,0.3,0.2,0.6,0.2,0.9c0.1,0.3,0.2,0.6,0.2,0.9c0.1,0.3,0.2,0.6,0.3,0.9c0.2,0.6,0.3,1.3,0.5,1.9
			c0.3,1.1,0.7,2.1,0.9,3.2c0.5,1.6,0.9,3.1,1.3,4.7c0.5,1.2,0.7,2.6,1.1,3.8c0.3,0.9,0.5,1.8,0.7,2.7c0.3,0.9,0.5,1.9,0.8,2.8
			c0.1,0.5,0.2,1,0.3,1.5c0.2,0.5,0.3,0.9,0.4,1.4c0.3,1,0.5,2,0.8,3c0.1,0.5,0.2,1,0.4,1.5c0.1,0.5,0.2,1,0.4,1.5
			c0.1,0.5,0.2,1,0.4,1.6c0.1,0.5,0.2,1,0.4,1.5c0.1,0.5,0.2,1,0.3,1.6c0.2,0.5,0.3,1,0.4,1.5c0.2,0.5,0.3,1,0.5,1.6
			c0.1,0.5,0.2,1,0.4,1.6c0.1,0.5,0.2,1,0.4,1.6c0.1,0.5,0.2,1,0.4,1.6c0.1,0.5,0.2,1,0.4,1.6c0.1,0.5,0.2,1,0.4,1.6
			c0.1,0.5,0.2,1,0.4,1.6c0.1,0.5,0.2,1,0.4,1.5c0.1,0.5,0.2,1,0.3,1.6c0.2,0.5,0.3,1,0.4,1.6c0.2,0.5,0.3,1,0.4,1.6
			c0.2,0.5,0.3,1,0.4,1.5c0.3,1,0.5,2,0.8,3.1c0.1,0.5,0.2,1,0.3,1.5c0.3,1,0.5,2,0.8,3c0.2,1,0.4,1.9,0.7,2.9
			c0.2,0.9,0.4,1.9,0.7,2.8c0.9,2.4,1.6,5.3,2,7.9c0.2,0.8,0.4,1.6,0.7,2.4c0.1,0.8,0.3,1.5,0.6,2.3c0.1,0.3,0.1,0.7,0.2,1
			c0.1,0.4,0.1,0.7,0.2,1c0.1,0.4,0.1,0.7,0.2,1c0.1,0.3,0.1,0.7,0.2,1c0.1,0.6,0.2,1.2,0.4,1.8c0.2,1.3,0.5,2.5,0.8,3.8
			c0.1,0.2,0.1,0.3,0.2,0.5c0,0.4,0.1,0.7,0.2,1c0.1,0.2,0.1,0.3,0.1,0.4c0,0.2,0.1,0.5,0.2,0.7c0,0.2-0.1,0.5,0.1,0.7h-0.1
			c-0.1,0.1-0.1,0.2-0.2,0.3c-0.1,0.1-0.2,0.1-0.4,0.2c-0.2,0.1-0.4,0.1-0.6,0.1c-0.3,0.1-0.5,0.1-0.8,0.2c-0.3,0-0.6,0-0.9,0.1
			c-0.4,0.1-0.7,0.1-1.1,0.1c-0.8,0.1-1.6,0.1-2.4,0.2c-2.8,0-5.7,0-8.5,0c-0.9-0.1-1.8-0.1-2.8-0.2c-0.4,0-0.9,0-1.3,0
			c-0.4-0.1-0.8-0.1-1.2-0.1c-0.3-0.1-0.7-0.1-1.1-0.1c-0.3-0.1-0.6-0.1-0.9-0.2c-0.5,0-1-0.1-1.5-0.3c-0.4,0-0.6-0.2-0.8-0.4
			c-0.1-0.2-0.1-0.3-0.2-0.4c-0.1-0.2-0.1-0.4-0.2-0.6c-0.2-0.5-0.3-1.1-0.5-1.7c-0.2-0.8-0.4-1.5-0.6-2.3
			c-0.7-5.4-2.9-10.7-3.4-16.2c-0.2-0.9-0.4-1.7-0.6-2.6c-0.1-0.4-0.2-0.8-0.2-1.2c-0.3-1-0.3-2-0.7-3c0-0.2,0-0.5-0.1-0.7
			c-0.1-0.2-0.1-0.3-0.2-0.4c0-0.2,0-0.4-0.1-0.5c-0.1,0-0.2,0-0.4-0.1c-0.2,0-0.4,0-0.7-0.1c-0.7-0.1-1.5-0.1-2.2-0.2
			c-0.4,0-0.9,0-1.3,0c-1.8-0.2-3.8-0.2-5.6,0c-0.7,0-1.5,0.1-2.2,0.3c-0.2,0.1-0.5,0.1-0.7,0.3c-0.2,0.1-0.3,0.1-0.4,0.3v0.1
			c-0.1,0.1-0.1,0.2-0.1,0.3c-0.1,0.2-0.1,0.3-0.1,0.5c-0.2,0.9-0.3,1.8-0.6,2.6c-0.1,0.3-0.1,0.7-0.2,1.1c-0.1,0.4-0.2,0.8-0.2,1.2
			c-0.1,0.5-0.2,0.9-0.3,1.4c-0.5,4.1-1.7,8.3-2.5,12.3c-0.2,1.8-0.9,3.6-1.1,5.4c-0.1,0.4-0.2,0.8-0.3,1.1c-0.1,0.3-0.1,0.7-0.2,1
			c-0.1,0.3-0.1,0.6-0.2,0.8c-0.1,0.2-0.2,0.5-0.2,0.7c-0.1,0.2-0.1,0.3-0.2,0.4c0,0.1,0,0.2-0.1,0.3c-0.1,0.1-0.2,0.2-0.2,0.2
			c-0.2,0.1-0.3,0.1-0.5,0.2c-1.2,0.3-2.4,0.6-3.6,0.6c-0.4,0.1-0.8,0.1-1.2,0.2c-0.9,0.1-1.8,0.1-2.7,0.2c-0.4,0.1-0.9,0.1-1.4,0.1
			c-1.5,0.2-2.9,0-4.4,0.2c-0.9,0-1.8,0-2.8-0.1c-0.4,0-0.9,0-1.3,0c-0.4-0.1-0.8-0.1-1.2-0.1c-0.4-0.1-0.8-0.1-1.1-0.1
			c-0.3-0.1-0.6-0.1-0.9-0.2c-0.5,0-1-0.1-1.5-0.4c-0.2-0.1-0.3-0.1-0.5-0.2C365.7,485,365.6,484.9,365.6,484.8z M407.5,444.7
			c0.1-0.1,0-0.3-0.1-0.5c-0.1-0.2-0.1-0.3-0.1-0.5c-0.1-0.5-0.2-0.9-0.3-1.4c0-1.1-0.4-2.4-0.6-3.5c-0.3-1-0.4-2.1-0.6-3.1
			c-0.2-0.8-0.3-1.5-0.5-2.3c-0.1-0.8-0.2-1.6-0.4-2.4c-0.1-0.4-0.1-0.8-0.2-1.2c-0.2-0.8-0.3-1.7-0.5-2.5c-0.1-0.5-0.1-0.9-0.2-1.3
			c-0.2-0.9-0.3-1.7-0.4-2.6c-0.3-1.3-0.3-2.6-0.7-3.8c-0.1-0.5-0.1-0.9-0.2-1.3c-0.2-0.4-0.2-0.8-0.2-1.3c-0.1-1.6-0.2-1.6-0.3,0
			c0,0.4-0.1,0.8-0.2,1.3c-0.1,0.4-0.2,0.8-0.2,1.3c0,1.3-0.4,2.8-0.7,4c-0.1,0.5-0.1,0.9-0.2,1.4c-0.1,0.4-0.1,0.8-0.2,1.3
			c-0.1,0.5-0.1,0.9-0.2,1.4c-0.1,0.4-0.1,0.8-0.2,1.3c-0.1,0.5-0.1,0.9-0.2,1.3c-0.1,0.5-0.1,0.9-0.2,1.3c-0.1,0.4-0.1,0.8-0.2,1.3
			c-0.1,0.4-0.1,0.8-0.2,1.2c-0.2,0.8-0.3,1.6-0.5,2.4c-0.1,0.4-0.1,0.8-0.2,1.1c-0.3,1-0.3,2.1-0.7,3.1c-0.1,0.6-0.2,1.2-0.3,1.7
			c0,0.8-0.2,1.8-0.4,2.5c-0.4,0.8,0.8,0.5,1.2,0.6c0.4,0,0.8,0,1.1,0c0.9-0.1,1.7-0.1,2.6-0.1c0.5-0.1,0.9-0.1,1.4-0.1
			c0.4-0.1,0.9-0.1,1.3-0.2c0.3,0,0.7,0,1.1-0.1C406.6,445,407,444.9,407.5,444.7C407.5,444.6,407.4,444.8,407.5,444.7z"/>
	</g>
</g>
<path d="M403.3,374.9c-5.2,2.1-15.1-6.1-13.3-8.7c0,0,17.3-19.2,22.2-21.5c4.9-2.3,19.3,8.1,17,11.2
	C427.1,359,403.3,374.9,403.3,374.9z"/>
</svg>
