<?xml version="1.0" encoding="utf-8"?>
<!-- Generator: Adobe Illustrator 18.0.0, SVG Export Plug-In . SVG Version: 6.00 Build 0)  -->
<!DOCTYPE svg PUBLIC "-//W3C//DTD SVG 1.1//EN" "http://www.w3.org/Graphics/SVG/1.1/DTD/svg11.dtd">
<svg version="1.1" id="Camada_1" xmlns="http://www.w3.org/2000/svg" xmlns:xlink="http://www.w3.org/1999/xlink" x="0px" y="0px"
	 viewBox="0 0 1024 768" enable-background="new 0 0 1024 768" xml:space="preserve">
<g>
	<path fill="#EBAC29" d="M538.4,15.2C332,15.2,164,183.2,164,389.6S332,764,538.4,764s374.4-168,374.4-374.4S744.8,15.2,538.4,15.2z
		"/>
	<path fill="#FFE388" d="M538.4,34.4c-196.8,0-355.2,158.4-355.2,355.2s158.4,355.2,355.2,355.2s355.2-158.4,355.2-355.2
		S735.2,34.4,538.4,34.4z"/>
	<path fill="#FFEDBB" d="M557.6,725.6c-192,0-340.8-153.6-340.8-345.6c0-4.8,0-9.6,0-14.4c-4.8,19.2-4.8,38.4-4.8,57.6
		c0,172.8,139.2,312,312,312c28.8,0,57.6-4.8,81.6-9.6C591.2,725.6,576.8,725.6,557.6,725.6z"/>
	<ellipse fill="#FFEDBB" cx="538.4" cy="260" rx="288" ry="211.2"/>
	<path fill="#EBAC29" d="M557.6,212L452,303.2c0,0-91.2,0-100.8,0c-9.6,0-14.4,9.6-14.4,14.4v139.2c0,4.8,4.8,9.6,14.4,9.6h105.6
		l105.6,96c9.6,9.6,28.8,4.8,28.8-14.4c0,0,0-312,0-331.2C591.2,207.2,567.2,202.4,557.6,212z"/>
	<path fill="#EBAC29" d="M701.6,260c0,0-18.3-22.7-31.6-9.3c-12,12,2.8,28.5,2.8,28.5c43.2,52.8,28.8,177.6,0,216
		c0,0-9.2,18.7,0.7,26.7c9.9,5.6,19.3-3.4,25.3-10.3C746.8,454,744.8,317.6,701.6,260z"/>
</g>
</svg>
