<?xml version="1.0" encoding="utf-8"?>
<!-- Generator: Adobe Illustrator 18.0.0, SVG Export Plug-In . SVG Version: 6.00 Build 0)  -->
<!DOCTYPE svg PUBLIC "-//W3C//DTD SVG 1.0//EN" "http://www.w3.org/TR/2001/REC-SVG-20010904/DTD/svg10.dtd" [
	<!ENTITY ns_flows "http://ns.adobe.com/Flows/1.0/">
	<!ENTITY ns_extend "http://ns.adobe.com/Extensibility/1.0/">
	<!ENTITY ns_ai "http://ns.adobe.com/AdobeIllustrator/10.0/">
	<!ENTITY ns_graphs "http://ns.adobe.com/Graphs/1.0/">
]>
<svg version="1.0" id="Camada_1" xmlns:x="&ns_extend;" xmlns:i="&ns_ai;" xmlns:graph="&ns_graphs;"
	 xmlns="http://www.w3.org/2000/svg" xmlns:xlink="http://www.w3.org/1999/xlink" xmlns:a="http://ns.adobe.com/AdobeSVGViewerExtensions/3.0/"
	 x="0px" y="0px" viewBox="0 0 1024 768" enable-background="new 0 0 1024 768" xml:space="preserve">
<g>
	<path fill="#EBAC29" d="M512,9.6c-18.6,0-37.1,1.4-55.5,4.1c-17.9,2.7-35.6,6.7-53,11.9c-17.1,5.2-33.7,11.6-49.9,19.1
		c-16,7.5-31.4,16.1-46.2,25.8c-14.7,9.6-28.7,20.2-41.9,31.8c-13.2,11.5-25.5,24-37,37.3c-11.5,13.3-22,27.4-31.5,42.1
		c-9.6,14.8-18.1,30.3-25.5,46.4c-7.5,16.2-13.7,32.9-18.8,50c-5.1,17.4-9,35.2-11.5,53.1c-2.6,18.4-3.8,37-3.7,55.6
		c0.1,18.5,1.6,37.1,4.5,55.4c2.8,17.9,6.9,35.6,12.3,52.8c5.3,17,11.8,33.6,19.5,49.7c7.6,15.9,16.3,31.3,26.1,46
		c9.7,14.6,20.4,28.5,32.1,41.6c11.6,13.1,24.2,25.4,37.5,36.7c13.4,11.4,27.5,21.8,42.3,31.2c14.9,9.5,30.5,17.9,46.6,25.1
		c16.3,7.3,33.1,13.5,50.2,18.4c17.4,5,35.3,8.7,53.3,11.2c18.4,2.5,37.1,3.6,55.7,3.3c18.5-0.3,37-1.9,55.3-4.9
		c17.8-2.9,35.5-7.2,52.7-12.7c17-5.4,33.5-12,49.5-19.8c15.9-7.7,31.2-16.5,45.8-26.4c14.5-9.8,28.4-20.6,41.4-32.4
		c13-11.7,25.2-24.4,36.5-37.8c11.3-13.4,21.6-27.7,30.9-42.6c9.4-15,17.7-30.6,24.8-46.8c7.2-16.3,13.3-33.2,18.1-50.4
		c4.9-17.5,8.5-35.4,10.8-53.4c2.3-18.5,3.3-37.1,2.9-55.8c-0.4-18.5-2.2-36.9-5.3-55.1c-3.1-17.8-7.4-35.4-13-52.5
		c-5.5-16.9-12.3-33.4-20.2-49.4c-7.8-15.8-16.8-31-26.7-45.6c-9.9-14.5-20.8-28.2-32.7-41.2c-11.8-12.9-24.5-25-38-36.2
		c-13.5-11.2-27.8-21.4-42.8-30.6c-15-9.3-30.8-17.5-47-24.5c-16.4-7.1-33.3-13.1-50.5-17.7c-17.6-4.8-35.5-8.3-53.5-10.4
		C541.8,10.5,526.9,9.6,512,9.6z"/>
	<path fill="#FFE388" d="M512,28.8c-18.5,0-37.1,1.4-55.4,4.3c-17.8,2.8-35.4,6.9-52.6,12.3c-16.9,5.3-33.4,12-49.3,19.8
		c-15.7,7.7-30.9,16.6-45.3,26.6c-14.3,9.9-27.9,20.9-40.6,32.8c-12.7,11.9-24.5,24.7-35.3,38.4c-10.9,13.7-20.7,28.2-29.4,43.3
		c-8.8,15.3-16.5,31.2-22.9,47.6c-6.5,16.6-11.8,33.8-15.7,51.2c-4,17.8-6.7,36-7.9,54.3c-1.3,18.6-1.1,37.4,0.5,56
		c1.6,18.2,4.5,36.2,8.9,53.9c4.2,17.3,9.8,34.3,16.6,50.8c6.7,16.3,14.6,32,23.7,47.1c9,15,19.1,29.3,30.2,42.7
		c11.1,13.4,23.1,26.1,36,37.7c12.9,11.7,26.7,22.4,41.2,32.1c14.6,9.7,29.9,18.4,45.8,25.8c16.1,7.5,32.7,13.9,49.7,18.9
		c17.3,5.1,35.1,9,53,11.4c18.4,2.5,37.1,3.6,55.6,3.2c18.5-0.3,36.9-2.1,55.1-5.3c17.7-3.1,35.2-7.5,52.3-13.3
		c16.8-5.6,33.1-12.6,48.8-20.6c15.6-8,30.5-17.2,44.7-27.4c14.1-10.2,27.5-21.4,40-33.5c12.5-12.1,24.1-25.2,34.7-39
		c10.6-13.9,20.2-28.5,28.7-43.8c8.5-15.4,15.9-31.5,22-48c6.2-16.8,11.2-34.1,14.8-51.6c3.7-18,6-36.2,6.9-54.6
		c0.9-18.6,0.4-37.4-1.5-55.9c-1.9-18.1-5.2-36-9.8-53.6c-4.5-17.2-10.4-34.1-17.5-50.4c-7-16.1-15.2-31.7-24.5-46.6
		c-9.2-14.8-19.6-28.9-30.9-42.2c-11.3-13.2-23.5-25.6-36.7-37.1c-13.1-11.5-27.1-22-41.8-31.4c-14.8-9.5-30.3-17.9-46.3-25
		c-16.2-7.3-33-13.3-50.1-18.1c-17.5-4.8-35.3-8.3-53.4-10.5C540.3,29.6,526.1,28.8,512,28.8z"/>
	<path fill="#FFEDBB" d="M531.2,720c-18.5,0-37-1.4-55.2-4.3c-17.7-2.8-35.1-7-52.1-12.6c-16.6-5.4-32.8-12.2-48.4-20.1
		c-15.4-7.9-30.1-16.9-44.1-27.1c-13.9-10.1-27-21.2-39.2-33.3c-12.2-12.1-23.5-25.1-33.7-38.9c-10.3-13.9-19.5-28.6-27.6-43.9
		c-8.2-15.5-15.2-31.6-20.9-48.2c-5.9-16.9-10.4-34.3-13.6-51.9c-3.3-18.1-5.2-36.5-5.7-54.9c-0.2-8.3-0.1-16.5-0.1-24.8
		c-3.2,12.6-4.3,25.7-4.6,38.7c-0.3,11.1-0.3,22.2,0.2,33.3c0.8,18.3,3.2,36.6,7.2,54.5c3.9,17.4,9.3,34.5,16.1,51
		c6.7,16.2,14.9,31.9,24.2,46.8C242.9,599,253.4,613,265,626c11.6,13,24.3,25,37.9,35.8c13.7,10.9,28.3,20.6,43.6,29.1
		c15.5,8.5,31.7,15.8,48.4,21.5c17,5.9,34.5,10.3,52.3,13.2c19,3.1,38.3,4.4,57.5,3.9c25-0.7,49.7-4.6,74.2-9.4c0.1,0,0.2,0,0.3-0.1
		C563.2,720,547.2,720,531.2,720z"/>
	<path fill="#FFEDBB" d="M512,43.2c21,0,41.9,1.6,62.6,5c19.6,3.2,39,7.9,57.8,14.3c17.8,6,35.1,13.5,51.6,22.5
		c15.5,8.5,30.3,18.3,43.9,29.6c12.8,10.6,24.6,22.5,34.8,35.7c9.7,12.5,17.9,26.2,24.1,40.7c6.1,14.2,10.2,29.3,12.1,44.6
		c1.9,15.5,1.4,31.3-1.4,46.6c-2.7,15.2-7.7,30-14.6,43.9c-7.1,14.3-16,27.6-26.4,39.8c-10.9,12.8-23.3,24.4-36.7,34.6
		c-14.2,10.9-29.6,20.3-45.6,28.3c-17,8.5-34.8,15.5-53,20.9c-19.2,5.8-39,9.9-58.9,12.5c-20.9,2.7-42.1,3.7-63.2,3
		c-20.7-0.7-41.4-3-61.8-6.9c-19.3-3.8-38.3-9.1-56.7-16c-17.4-6.5-34.2-14.5-50.2-24c-15-8.9-29.2-19.2-42.2-30.9
		c-12.2-11-23.3-23.3-32.8-36.8c-9-12.9-16.5-26.8-21.8-41.6c-5.3-14.5-8.5-29.8-9.5-45.3c-0.9-15.6,0.5-31.2,4.1-46.4
		c3.6-15.1,9.5-29.6,17.1-43.2c7.9-14.1,17.6-27.1,28.6-38.8c11.6-12.5,24.7-23.6,38.6-33.4c14.8-10.4,30.7-19.4,47.2-26.9
		c17.5-8,35.7-14.4,54.3-19.3C433.7,50.5,453.7,47,474,45C486.6,43.8,499.3,43.2,512,43.2z"/>
	<g>
		<path fill="#EBAC29" d="M531.2,206.4c-3.4,2.9-6.7,5.8-10.1,8.7c-8.1,7-16.2,14-24.4,21.1c-9.9,8.6-19.9,17.2-29.8,25.8
			c-8.8,7.6-17.6,15.2-26.5,22.8c-4.7,4.1-9.5,8.2-14.2,12.3c-0.1,0.1-0.5,0.5-0.6,0.5c-0.5,0-1,0-1.6,0c-3.4,0-6.8,0-10.2,0
			c-12.5,0-24.9,0-37.4,0c-12.8,0-25.6,0-38.4,0c-3.8,0-7.7,0-11.5,0c-2.3,0-4.5,0.1-6.7,0.9c-3.6,1.4-6.4,4.4-8,7.8
			c-1.2,2.4-1.5,4.7-1.5,7.3c0,2.6,0,5.3,0,7.9c0,10,0,20,0,30c0,13,0,26,0,39.1c0,12.1,0,24.3,0,36.4c0,7.3,0,14.7,0,22
			c0,2.2,0,4.2,1.2,6.1c2.9,4.7,9,5.6,14.1,5.6c7.5,0,15.1,0,22.6,0c12.8,0,25.6,0,38.3,0c11.2,0,22.5,0,33.7,0c2.9,0,5.8,0,8.8,0
			c1,0,1.2-0.1,1.9,0.6c4.6,4.2,9.2,8.4,13.8,12.6c8.5,7.8,17.1,15.5,25.6,23.3c9.7,8.9,19.5,17.7,29.2,26.6
			c8.2,7.4,16.4,14.9,24.5,22.3c3.9,3.5,7.7,7,11.6,10.5c3.8,3.5,8.5,5.4,13.7,4.8c6.9-0.8,12.4-5.8,14.3-12.5
			c1.1-3.8,0.9-7.7,0.9-11.6c0-5.5,0-11,0-16.5c0-8.7,0-17.3,0-26c0-11,0-22.1,0-33.1c0-12.7,0-25.4,0-38c0-13.6,0-27.1,0-40.7
			c0-13.7,0-27.4,0-41c0-13.1,0-26.1,0-39.2c0-11.7,0-23.3,0-35c0-9.5,0-19.1,0-28.6c0-6.6,0-13.3,0-19.9c0-2,0-4,0-6
			c0-0.6,0-1.3,0-1.9c0-1.9-0.7-3.6-2-5c-3.7-3.9-9.9-5.2-15.1-5.4C542,200.9,535.4,202.2,531.2,206.4z"/>
		<path fill="#EBAC29" d="M619,307.2c-2.7-3.7-6.7-7-11-8.6c-3.8-1.4-7.9-1.3-11.6,0.2c-1.1,0.5-2.2,1-3.2,1.7
			c-1.1,1.1-2.1,2.3-3,3.5c-1.3,1.9-2.2,3.9-2.5,6.2c-0.5,3.3,0.4,6.5,1,9.7c0.1,0.6,0,1.4,0.3,1.9c0.7,1.1,1.4,2.3,2,3.5
			c1.3,2.2,2.4,4.5,3.5,6.9c4.2,9.3,6.7,19.2,8,29.3c2.4,19.3,0.3,39.2-5.1,57.9c-1.2,4.1-2.6,8.2-4.1,12.3
			c-0.7,1.9-1.5,3.7-2.3,5.6c-0.6,1.4-1.2,3.1-2.1,4.4c-2.9,4.3-5.3,9.6-5.6,14.9c-0.2,3.7,1,7.3,3.8,9.8c3.9,3.4,9.1,4.5,14,2.6
			c4.6-1.8,8.4-5.5,11.4-9.3c2.5-3.1,4.5-6.7,6.3-10.2c8-15.4,12.9-32.4,15.7-49.5c2.9-17.7,3.6-36.1,0.7-53.8
			C632.9,332.3,628.3,318,619,307.2z"/>
		<path fill="#EBAC29" d="M675.2,254.4c-2.6-3.2-5.8-6.2-9.2-8.6c-5.4-3.8-12.5-6.8-18.8-3.4c-3.7,2-6.6,5.7-7.7,9.7
			c-1,3.7-0.4,7.7,0.9,11.2c1.1,2.9,2.6,5.7,4.4,8.2c1.1,1.5,2.3,2.9,3.4,4.4c9,11.9,14.8,26.1,18.6,40.4
			c4.3,16.2,6.3,32.9,6.8,49.6c0.5,17.1-0.5,34.2-2.9,51.1c-2.2,15.1-5.4,30.2-10.4,44.7c-2.1,6-4.5,11.9-7.4,17.5
			c-1.3,2.4-2.6,4.8-4.1,7.1c-1,1.5-2.1,2.8-2.8,4.4c-2.5,5.7-4.4,12.7-2.9,18.9c0.4,1.8,1.2,3.5,2.3,4.9c1.5,1.9,3.5,2.9,5.9,3.3
			c4.9,0.9,9.6-1.3,13.4-4.2c6.4-4.9,11.4-11.7,15.7-18.4c4-6.3,7.5-13.1,10.4-20c6.5-15.2,10.7-31.3,13.4-47.6
			c2.9-17.5,4.1-35.2,3.8-52.9c-0.3-17.5-2-35.1-5.4-52.3c-3.1-15.7-7.6-31.2-14.3-45.8C684.6,268.8,680.4,261.3,675.2,254.4z"/>
	</g>
</g>
</svg>
