<?xml version="1.0" encoding="utf-8"?>
<!-- Generator: Adobe Illustrator 18.0.0, SVG Export Plug-In . SVG Version: 6.00 Build 0)  -->
<!DOCTYPE svg PUBLIC "-//W3C//DTD SVG 1.0//EN" "http://www.w3.org/TR/2001/REC-SVG-20010904/DTD/svg10.dtd">
<svg version="1.0" id="Camada_1" xmlns="http://www.w3.org/2000/svg" xmlns:xlink="http://www.w3.org/1999/xlink" x="0px" y="0px"
	 viewBox="120 314 502 222" enable-background="new 120 314 502 222" xml:space="preserve">
<path fill="#1B7C09" d="M145.1,387.9L145.1,387.9c0.1,0,0.2,0,0.2-0.1c0.2,0,0.4,0,0.6-0.1c0.3,0,0.6,0,0.9,0
	c0.4-0.1,0.8-0.1,1.1-0.1c0.5-0.1,0.9-0.1,1.4-0.1c0.9-0.2,1.7,0,2.6-0.2c0.7,0,1.3,0,2,0c1.1-0.2,2.2,0,3.3-0.2
	c1.2,0,2.5,0.1,3.7-0.1c1.3,0,2.6,0,3.9,0c2.3-0.3,4.7-0.1,7.1-0.1c6.4-0.8,14.3-0.8,20.7,0c1.8,0,3.7-0.1,5.5,0.1
	c1.3,0,2.6-0.1,3.8,0.1c0.8,0,1.6,0,2.4,0c0.7,0.1,1.5,0.1,2.2,0.1c0.7,0.1,1.4,0.1,2.1,0.2c0.3,0,0.6,0,0.9,0
	c0.6,0,1.2,0.1,1.8,0.2c0.3,0,0.5,0,0.8,0c0.2,0.1,0.5,0.1,0.7,0.1c0.4,0.1,0.9,0.1,1.3,0.2c0.2,0,0.4,0,0.6,0.1
	c0.2,0,0.3,0,0.4,0.1c0.2,0,0.3,0,0.5,0.1c0.1,0,0.2,0,0.3,0.1c0.1,0,0.1,0,0.2,0.1c0.1,0,0.1,0,0.2,0.1c0.1,0,0.1,0,0.2,0.1
	c0.1,0.1,0.1,0.3,0.2,0.4c0.1,0.2,0.1,0.4,0.2,0.6c0.1,0.3,0.1,0.6,0.1,0.8c0.1,0.7,0.1,1.3,0.2,2c0,1.3,0.1,2.6-0.1,3.8
	c0,0.5,0,0.9-0.1,1.4c0,0.5,0,1-0.1,1.5c0,1-0.1,1.9-0.2,2.9c0,1.4-0.1,2.9-0.5,4.2c-0.1,0.8-0.2,1.6-0.4,2.4
	c-0.1,0.7-0.2,1.3-0.4,1.9c-0.1,0.2-0.1,0.5-0.2,0.8c-0.1,0.2-0.1,0.4-0.2,0.5c-0.1,0.2-0.1,0.3-0.2,0.4c-0.1,0.1-0.2,0.2-0.4,0.3
	c-0.2,0.1-0.4,0.2-0.6,0.3c-1,0.2-1.9,0.4-2.9,0.5c-1.3,0-2.8,0.1-4.1,0.3c-1,0-2,0-3,0.1c-1.5,0-3,0-4.5,0
	c-1.6-0.2-3.2,0.1-4.7-0.2c-0.6,0-1.2,0-1.9,0h-0.1c0,0.3-0.1,0.7,0.1,1c0,0.5-0.1,1.2,0.1,1.7c0,0.5,0,1,0.1,1.5c0,0.3,0,0.6,0,0.9
	c0.1,0.6,0.1,1.2,0.2,1.8c0,0.4,0,0.7,0,1c0.1,0.8,0.1,1.5,0.2,2.3c0,0.4,0,0.7,0,1.1c0.1,0.4,0.1,0.8,0.1,1.2
	c0.1,0.4,0.1,0.8,0.1,1.2c0.1,0.9,0.1,1.8,0.2,2.7c0,0.5,0,0.9,0.1,1.4c0,0.5,0,0.9,0.1,1.4c0,0.5,0,1,0.1,1.5c0,0.5,0,1,0,1.5
	c0.1,0.5,0.1,1,0.1,1.5c0.1,0.5,0.1,1,0.1,1.6c0.1,0.5,0.1,1,0.1,1.5c0.1,0.5,0.1,1,0.1,1.6c0.1,0.5,0.1,1.1,0.1,1.7
	c0.1,0.5,0.1,1,0.1,1.6c0.1,0.5,0.1,1,0.1,1.6c0.1,0.6,0.1,1.1,0.1,1.7c0.1,0.5,0.1,1.1,0.1,1.7c0.1,1.1,0.1,2.2,0.2,3.2
	c0,0.5,0,1,0.1,1.6c0,0.6,0,1.1,0.1,1.7c0,0.5,0,1,0.1,1.6c0,0.6,0,1.1,0,1.7c0.1,0.5,0.1,1,0.1,1.6c0.1,1,0.1,2.1,0.2,3.1
	c0,0.5,0,1,0,1.5c0.1,1,0.1,2,0.2,3c0,0.5,0,1,0,1.5c0.1,0.9,0.1,1.9,0.1,2.8c0.1,0.9,0.1,1.7,0.1,2.6c0.2,1.2,0.1,2.5,0.1,3.7
	c0.3,2.1,0.5,5.2,0,7.3c0,0.5,0.1,1.1-0.1,1.6c0,0.2,0,0.3,0,0.4c-0.1,0.2-0.1,0.4-0.2,0.5v0.1c-0.2,0.1-0.5,0.3-0.7,0.4
	c-0.2,0.1-0.4,0.1-0.7,0.2c-0.5,0.1-1.1,0.1-1.6,0.2c-0.3,0.1-0.7,0.1-1,0.1c-0.4,0.1-0.8,0.1-1.1,0.1c-0.8,0.1-1.7,0.1-2.5,0.2
	c-3.2,0-6.7,0.3-9.9-0.1c-0.9,0-1.8,0-2.8-0.1c-0.4,0-0.9,0-1.3-0.1c-0.4,0-0.8,0-1.1,0c-0.4-0.1-0.8-0.1-1.1-0.1
	c-0.3-0.1-0.7-0.1-1-0.2c-0.3,0-0.6,0-0.9-0.1c-0.2,0-0.5,0-0.7-0.1c-0.2-0.1-0.4-0.1-0.6-0.1c-0.2-0.1-0.3-0.1-0.4-0.2
	c-0.1,0-0.2,0-0.2-0.1l-0.1-0.1c0-0.1,0-0.1,0-0.2c-0.1-0.2-0.1-0.5-0.2-0.7c0-0.3,0-0.6-0.1-1c0-0.7,0.1-1.4-0.1-2
	c0-1.2,0.1-2.5-0.1-3.7c0-4.8-0.4-9.7,0.1-14.4c0-2.6-0.2-5.3,0.1-7.9c0-1.6,0-3.3,0-4.9c0.2-1.6,0.1-3.3,0.1-4.9
	c0.1-1.6,0.1-3.3,0.1-4.9c0.1-1.6,0-3.2,0.2-4.8c0-1.5-0.1-3.1,0.1-4.6c0-1,0-2,0-3c0.2-1.4,0.1-2.7,0.1-4.1
	c0.2-1.2,0.1-2.5,0.1-3.8c0.2-1.1,0.1-2.2,0.1-3.3c0.2-1.1,0.1-2.4,0.1-3.5c0.2-1.1,0.1-2.3,0.1-3.4V414c0.1-0.1,0.1-0.1,0-0.1h-0.1
	c-0.9,0.5-2.8,0-3.8,0.2c-2.8,0-5.5,0-8.3,0c-0.9-0.1-1.9-0.1-2.8-0.2c-0.4,0-0.9,0-1.3-0.1c-0.8-0.1-1.6-0.1-2.4-0.2
	c-0.6-0.1-1.2-0.2-1.8-0.4c-0.2-0.1-0.4-0.2-0.7-0.3c-0.3-0.1-0.5-0.3-0.7-0.6c-0.1-0.2-0.2-0.4-0.2-0.6c-0.2-0.5-0.4-1.1-0.4-1.7
	c-0.4-1.1-0.4-2.3-0.6-3.5c0-1-0.1-1.9-0.2-2.9c0-0.5,0-1-0.1-1.5c0-0.5,0-1-0.1-1.5c0-0.5,0-1-0.1-1.6c0-2.7-0.3-5.5,0.1-8.1
	c0-0.4,0-0.7,0.1-1c0-0.3,0-0.6,0.1-0.9c0-0.4,0.1-0.8,0.2-1.1C144.9,388.1,145,388,145.1,387.9z"/>
<path fill="#020202" d="M223.3,388.4c0.1-0.1,0.2-0.2,0.4-0.3c0.3-0.1,0.5-0.2,0.7-0.3c0.3-0.1,0.6-0.1,0.9-0.3
	c1.2-0.2,2.4-0.4,3.6-0.5c0.5,0,1,0,1.5-0.1c0.5,0,1,0,1.5-0.1c1.5,0,3,0,4.5,0c1.3,0.2,2.8,0.3,4.1,0.3c1,0.2,2,0.3,2.9,0.5
	c0.2,0.1,0.4,0.2,0.7,0.3c0.1,0.1,0.2,0.1,0.3,0.3c0.1,0.1,0.2,0.1,0.2,0.3c-0.1,0.4-0.1,0.7-0.2,1c0,0.4,0,0.7-0.1,1
	c-0.1,0.7-0.1,1.5-0.2,2.2c-0.1,0.3-0.1,0.7-0.2,1c-0.1,0.8-0.1,1.5-0.2,2.3c-0.1,0.8-0.2,1.6-0.2,2.4c-0.1,0.8-0.2,1.6-0.2,2.4
	c-0.1,0.8-0.2,1.7-0.2,2.5c-0.1,0.4-0.1,0.8-0.2,1.2c0,0.9-0.1,1.8-0.2,2.6c-0.1,0.9-0.1,1.7-0.2,2.6c-0.1,0.4-0.1,0.8-0.1,1.3
	c-0.1,0.4-0.1,0.8-0.2,1.3c0,0.4,0,0.8-0.1,1.3c0,0.4,0,0.8-0.1,1.3c0,0.5,0,0.9-0.1,1.3c0,0.5,0,0.9-0.1,1.4c0,0.4,0,0.8,0,1.3
	c-0.1,0.9-0.1,1.7-0.1,2.6c-0.3,2.4-0.3,5.4,0,7.8c0,0.8,0,1.7,0.1,2.5c0,0.4,0,0.8,0.1,1.2c0.1,0.8,0.1,1.6,0.2,2.4
	c0.1,0.8,0.2,1.6,0.2,2.4c0.1,0.3,0.1,0.7,0.2,1c0.3,1.1,0.3,2.2,0.7,3.2c0.1,0.3,0.1,0.7,0.2,1c0.1,0.7,0.3,1.3,0.5,2
	c0.3,0.9,0.5,1.9,1.1,2.6c0.1,0.3,0.2,0.6,0.3,0.9c0.2,0.3,0.3,0.6,0.4,0.8c0.2,0.2,0.3,0.5,0.5,0.8c0.2,0.5,0.5,0.9,0.9,1.3
	c0.3,0.5,0.6,0.9,1.1,1.2c0.3,0.4,0.7,0.8,1.1,1c0.2,0.2,0.4,0.3,0.7,0.4c0.4,0.3,0.9,0.6,1.4,0.8c0.2,0.1,0.5,0.2,0.7,0.3
	c0.7,0.4,1.6,0.5,2.4,0.6c0.3,0,0.5,0,0.8,0.1c0.6,0,1.2,0,1.8-0.1c1,0,2.3-0.3,3.3-0.7c0.2-0.1,0.5-0.2,0.7-0.3
	c0.2-0.1,0.4-0.3,0.7-0.4c0.2-0.1,0.4-0.2,0.7-0.3c0.6-0.5,1.2-0.9,1.8-1.5c0.2-0.2,0.3-0.4,0.5-0.6c0.2-0.2,0.4-0.4,0.6-0.6
	c0.2-0.2,0.3-0.5,0.4-0.7c0.2-0.2,0.3-0.5,0.5-0.7c0.2-0.3,0.3-0.6,0.4-0.8c0.3-0.5,0.5-1,0.8-1.6c0.3-0.9,0.7-1.8,0.9-2.7
	c0.1-0.3,0.2-0.6,0.3-1c0.1-0.3,0.1-0.6,0.2-1c0.1-0.3,0.1-0.7,0.2-1c0.1-0.7,0.2-1.4,0.3-2.1c0.1-0.3,0.2-0.7,0.2-1
	c0.1-1.1,0.4-2.3,0.4-3.4c0.1-0.4,0.1-0.8,0.1-1.2c0.1-0.4,0.1-0.8,0.1-1.1c0.1-0.8,0.1-1.6,0.2-2.4c0-2.5,0.2-5.1-0.1-7.6
	c0-0.5,0-0.9,0-1.3c-0.1-0.9-0.1-1.7-0.2-2.6c0-0.5,0-0.9-0.1-1.3c0-0.5,0-0.9-0.1-1.3c0-0.5,0-0.9-0.1-1.3
	c-0.1-0.9-0.1-1.7-0.2-2.6c-0.1-0.5-0.1-0.9-0.2-1.3c0-1.3-0.3-2.6-0.3-3.9c-0.1-0.8-0.2-1.7-0.3-2.5c0-1.3-0.2-2.5-0.4-3.8
	c0-1.2-0.2-2.4-0.4-3.6c0-1.2-0.3-2.3-0.4-3.5c0-0.7-0.1-1.5-0.2-2.2c-0.1-0.7-0.1-1.4-0.2-2.1c-0.1-0.3-0.1-0.7-0.2-1
	c0-0.1,0.1-0.2,0.2-0.4c0.1-0.1,0.2-0.1,0.3-0.3c0.2-0.1,0.4-0.1,0.6-0.2c0.3-0.1,0.5-0.1,0.8-0.2c0.3-0.1,0.7-0.2,1-0.2
	c0.8-0.1,1.6-0.2,2.4-0.3c0.4,0,0.9,0,1.4-0.1c0.4,0,0.9,0,1.4,0c1.9-0.2,4-0.2,5.9,0c0.5,0,0.9,0,1.4,0.1c0.4,0,0.9,0,1.3,0.1
	c1,0,2.1,0.3,3.1,0.4c0.2,0.1,0.4,0.1,0.7,0.2c0.2,0.1,0.3,0.1,0.5,0.3c0.1,0.1,0.1,0.1,0.2,0.2c0.2,0.7,0.4,1.5,0.7,2.2
	c0.2,1.1,0.6,2.1,0.8,3.2c0.1,0.3,0.2,0.7,0.3,1.1c0.2,0.8,0.3,1.5,0.5,2.3c0.1,0.4,0.2,0.7,0.2,1.1c0.1,0.3,0.2,0.7,0.2,1.1
	c0.1,0.4,0.2,0.8,0.2,1.1c0.1,0.4,0.2,0.8,0.2,1.2c0.1,0.4,0.2,0.7,0.2,1.1c0.2,0.8,0.3,1.6,0.5,2.4c0.1,0.8,0.2,1.6,0.4,2.4
	c0.4,3.2,1.2,6.6,1.2,9.9c0.1,0.5,0.1,0.9,0.2,1.3c0.1,0.8,0.1,1.6,0.2,2.4c0.1,0.5,0.1,0.9,0.1,1.3c0.1,0.4,0.1,0.8,0.1,1.2
	c0.1,0.5,0.1,0.9,0.1,1.3c0.1,0.8,0.1,1.7,0.2,2.5c0,0.8,0,1.6,0.1,2.4c0,1.7,0.1,3.4-0.1,5.1c0,0.8,0,1.7,0,2.5
	c-0.1,0.8-0.1,1.6-0.2,2.4c0,0.4,0,0.8-0.1,1.2c0,0.4,0,0.8-0.1,1.2c0,0.8-0.1,1.6-0.2,2.4c0,2.2-0.3,5-1,7.1
	c-0.1,0.8-0.2,1.6-0.4,2.4c-0.1,0.3-0.1,0.7-0.2,1.1c-0.2,0.8-0.3,1.5-0.5,2.3c-0.1,0.3-0.2,0.7-0.3,1c-0.2,1.5-0.8,2.9-1.2,4.3
	c-0.3,0.7-0.5,1.4-0.7,2.1c-0.2,0.4-0.3,0.7-0.4,1c-0.2,0.3-0.3,0.6-0.4,1c-0.2,0.3-0.3,0.7-0.5,1c-0.1,0.3-0.2,0.7-0.4,1
	c-0.2,0.3-0.3,0.7-0.5,1c-0.2,0.6-0.5,1.3-0.9,1.8c-0.2,0.3-0.4,0.7-0.6,1c-0.3,0.6-0.7,1.2-1.1,1.8c-0.4,0.5-0.8,1.1-1.1,1.7
	c-0.4,0.6-0.8,1.1-1.2,1.6c-0.2,0.2-0.4,0.5-0.6,0.8c-0.6,0.7-1.3,1.5-2,2.1c-0.2,0.2-0.5,0.5-0.7,0.7c-0.2,0.2-0.5,0.5-0.7,0.7
	c-0.2,0.2-0.5,0.4-0.7,0.6c-0.5,0.4-1,0.8-1.5,1.2c-0.8,0.5-1.6,1-2.4,1.6c-0.3,0.2-0.6,0.3-0.9,0.4c-0.3,0.2-0.6,0.3-0.9,0.5
	c-0.3,0.1-0.6,0.3-0.9,0.4c-0.3,0.1-0.6,0.2-0.9,0.3c-0.3,0.1-0.7,0.2-1,0.3c-0.3,0.2-0.7,0.3-1,0.4c-0.7,0.3-1.3,0.5-2,0.6
	c-0.3,0.1-0.7,0.2-1,0.3c-1.7,0.5-3.8,0.9-5.5,0.9c-0.8,0.1-1.6,0.1-2.4,0.1c-0.8,0.1-1.6,0.1-2.4,0c-0.4,0-0.8,0-1.1,0
	c-0.4-0.1-0.8-0.1-1.2-0.1c-0.4-0.1-0.8-0.1-1.1-0.2c-1.1,0-2.3-0.2-3.3-0.5c-0.3-0.1-0.7-0.1-1.1-0.3c-0.3-0.1-0.7-0.1-1.1-0.3
	c-1.6-0.3-3.5-1-4.9-1.7c-0.3-0.1-0.6-0.3-0.9-0.4c-0.3-0.1-0.6-0.3-0.9-0.4c-0.3-0.2-0.6-0.3-0.9-0.5c-0.6-0.3-1.1-0.6-1.6-1
	c-0.6-0.3-1.1-0.7-1.6-1.1c-0.5-0.4-1-0.8-1.5-1.2c-0.4-0.5-0.9-0.9-1.4-1.3c-0.5-0.4-1-0.9-1.4-1.5c-0.5-0.5-0.9-1-1.3-1.5
	c-0.4-0.6-0.8-1.1-1.2-1.6c-0.2-0.3-0.4-0.6-0.6-0.9c-0.2-0.2-0.4-0.5-0.6-0.8c-0.2-0.3-0.4-0.6-0.6-0.9c-0.3-0.6-0.7-1.2-1-1.7
	c-0.3-0.6-0.7-1.3-1-1.9c-0.2-0.3-0.3-0.6-0.5-0.9c-0.2-0.3-0.3-0.7-0.4-1c-0.2-0.3-0.3-0.6-0.4-1c-0.2-0.3-0.3-0.6-0.4-1
	c-0.2-0.3-0.3-0.7-0.4-1c-0.3-0.7-0.5-1.3-0.7-2c-0.5-1-0.8-2.2-1-3.2c-0.2-0.7-0.4-1.5-0.7-2.2c-0.2-0.8-0.3-1.5-0.5-2.3
	c-0.2-0.8-0.3-1.5-0.5-2.3c-0.1-0.4-0.1-0.8-0.2-1.1c-0.6-2.2-1-4.9-1-7.2c-0.1-0.4-0.1-0.8-0.2-1.2c-0.1-0.8-0.1-1.6-0.2-2.4
	c-0.1-0.8-0.1-1.6-0.2-2.4c0-0.4,0-0.8-0.1-1.3c0-0.8,0-1.6,0-2.4c-0.2-1.6-0.2-3.5,0-5.1c0-0.8,0-1.7,0-2.5
	c0.1-0.8,0.1-1.7,0.2-2.5c0-0.4,0-0.8,0.1-1.3c0-0.4,0-0.8,0.1-1.2c0-0.4,0-0.8,0.1-1.3c0-0.4,0-0.8,0.1-1.2c0-0.9,0.1-1.7,0.2-2.5
	c0-3.5,0.6-7.8,1.5-11.2c0.1-0.8,0.2-1.6,0.4-2.4c0.1-0.4,0.1-0.8,0.2-1.2c0.2-0.8,0.3-1.6,0.5-2.4c0.1-0.4,0.1-0.7,0.2-1.1
	c0.1-0.4,0.1-0.8,0.2-1.2c0.2-0.8,0.3-1.5,0.5-2.3c0.1-0.4,0.2-0.8,0.2-1.1c0.1-0.4,0.2-0.8,0.3-1.1c0.1-0.8,0.3-1.5,0.6-2.3
	c0.1-0.7,0.3-1.5,0.6-2.2C223.1,388.6,223.2,388.5,223.3,388.4C223.4,388.3,223.2,388.5,223.3,388.4z"/>
<path fill="#020202" d="M301.3,487.5C301.3,487.5,301.3,487.4,301.3,487.5c-0.1-0.1-0.1-0.2-0.2-0.3c0-0.1,0-0.2-0.1-0.3
	c0-0.1,0-0.2-0.1-0.3c0-0.1,0-0.2-0.1-0.3c0-0.2,0-0.3,0-0.4c-0.1-0.2-0.1-0.3-0.1-0.5c-0.1-0.4-0.1-0.8-0.2-1.1
	c0-0.2,0-0.4-0.1-0.6c0-0.2,0-0.5,0-0.7c-0.1-0.5-0.1-1.1-0.2-1.6c0-0.6,0-1.2-0.1-1.8c0-0.6,0-1.3-0.1-1.9c0-0.7,0-1.4-0.1-2.1
	c0-0.8,0-1.5,0-2.3c-0.2-1.7,0.1-3.3-0.2-5c0-2.3,0.2-4.6-0.1-6.9c0-5-0.4-10.3,0.1-15.3c0-2.7,0-5.4,0-8c0.2-2.2,0-4.3,0.2-6.5
	c0-1.6-0.1-3.2,0.1-4.7c0-1,0-2,0-3.1c0.2-1.5,0-3,0.2-4.5c0-1,0-2,0.1-3c0-1,0-1.9,0.1-2.9c0-0.9,0-1.8,0.1-2.7
	c0-0.9,0-1.8,0.1-2.6c0-0.4,0-0.8,0-1.3c0-0.8,0.1-1.6,0.2-2.4c0-0.8,0-1.6,0.1-2.4c0-0.4,0-0.7,0-1c0-0.7,0.1-1.3,0.2-2
	c0-0.4,0-0.7,0-1c0-0.6,0.1-1.2,0.2-1.8c0-0.2,0-0.5,0.1-0.8c0-0.2,0-0.5,0-0.8c0-0.4,0.1-0.9,0.2-1.3c0-0.2,0-0.4,0.1-0.6
	c0-0.2,0-0.4,0-0.5c0-0.3,0.1-0.6,0.2-1c0-0.1,0-0.2,0.1-0.4c0-0.1,0-0.2,0-0.4c0.1-0.1,0.1-0.2,0.2-0.3c0-0.1,0-0.1,0.1-0.1
	c0.1-0.3,0.5-0.5,0.7-0.7c0.1-0.1,0.2-0.1,0.3-0.2c0.2-0.1,0.3-0.1,0.4-0.2c0.2-0.1,0.3-0.2,0.4-0.2c0.3-0.1,0.7-0.2,1-0.4
	c0.2-0.1,0.4-0.1,0.6-0.2c0.5-0.1,0.9-0.1,1.4-0.2c0.3-0.1,0.5-0.1,0.8-0.1c0.3-0.1,0.5-0.1,0.8-0.1c0.3-0.1,0.7-0.1,1-0.1
	c0.7-0.1,1.5-0.1,2.2-0.2c0.4,0,0.8,0,1.2,0c4.4-0.6,9.6-0.3,14.1,0c1.2,0,2.5,0,3.7,0.1c0.4,0,0.9,0,1.4,0.1c0.4,0,0.9,0,1.3,0.1
	c1.7,0,3.6,0.3,5.2,0.7c0.4,0.1,0.8,0.1,1.2,0.3c0.8,0.2,1.6,0.4,2.4,0.5c0.8,0.2,1.5,0.5,2.3,0.8c0.4,0.1,0.7,0.2,1.1,0.4
	c0.4,0.2,0.7,0.3,1.1,0.4c0.4,0.2,0.7,0.4,1.1,0.5c1,0.3,2.1,0.9,3,1.6c0.3,0.2,0.6,0.3,0.9,0.5c1.5,1.1,3,2.2,4.2,3.5
	c0.8,0.7,1.5,1.6,2.1,2.4c0.3,0.3,0.5,0.6,0.7,0.9c0.5,0.9,1.2,1.8,1.7,2.8c0.6,1,1.1,2.1,1.5,3.1c0.2,0.4,0.3,0.7,0.5,1
	c0.1,0.4,0.2,0.8,0.3,1.2c0.3,0.8,0.6,1.6,0.7,2.4c0.2,1.2,0.4,2.6,0.7,3.8c0.1,0.9,0.2,1.9,0.2,2.8c0.1,0.5,0.1,0.9,0.1,1.4
	c0.3,2.7,0.1,5.7-0.4,8.3c-0.2,1.6-0.7,3-1.1,4.5c-0.2,0.5-0.4,0.9-0.6,1.4c-0.2,0.4-0.4,0.8-0.6,1.3c-0.7,1.7-1.7,3.3-2.8,4.7
	c-0.3,0.4-0.5,0.8-0.8,1.1c-0.3,0.3-0.5,0.6-0.8,1c-0.3,0.3-0.6,0.7-0.9,1c-0.3,0.3-0.7,0.6-1,0.9c-0.6,0.6-1.2,1.2-1.9,1.7
	c-0.3,0.2-0.7,0.5-1,0.7c-2.3,1.8-4.8,2.9-7.3,4.3c-0.4,0.1-0.7,0.3-1.1,0.4c-0.4,0.1-0.7,0.3-1.1,0.4c-1,0.3-2.1,0.7-3.1,1
	c-0.9,0.2-2,0.4-2.8,0.8c-1.1,0.2-2.3,0.6-3.4,0.6c-0.3,0.1-0.5,0.1-0.7,0.2c-0.2,0-0.5,0-0.7,0.1c-0.2,0-0.4,0-0.7,0.1
	c-0.2,0-0.4,0-0.6,0c-0.2,0.1-0.3,0.1-0.5,0.1c-0.2,0.1-0.3,0.1-0.5,0c-0.3-0.1-0.4-0.1-0.4,0c-0.1,0.3,0,0.7,0.1,1.1
	c0.2,1.2,0.2,2.4,0.3,3.6c0,0.8,0.1,1.7,0.2,2.5c0,0.9,0.1,1.8,0.2,2.6c0.1,0.9,0.1,1.7,0.2,2.6c0.1,0.5,0.1,0.9,0.2,1.3
	c0.1,0.9,0.1,1.8,0.2,2.7c0.1,0.4,0.1,0.8,0.1,1.2c0.1,0.9,0.1,1.7,0.2,2.6c0,0.8,0,1.6,0.1,2.4c0,0.8,0,1.6-0.1,2.4
	c0,0.7,0,1.4-0.1,2.1c0,0.7-0.1,1.3-0.2,2c-0.1,0.6-0.2,1.2-0.3,1.7c-0.1,0.5-0.3,1-0.5,1.5c-0.1,0.2-0.2,0.4-0.3,0.6
	c-0.1,0.2-0.2,0.3-0.3,0.5c-0.1,0.2-0.2,0.3-0.3,0.5c-0.3,0.3-0.6,0.5-0.9,0.6c-0.2,0.1-0.4,0.2-0.6,0.3c-0.3,0.1-0.5,0.2-0.7,0.3
	c-0.9,0.2-1.9,0.4-2.8,0.4c-0.4,0.1-0.8,0.1-1.1,0.2c-0.4,0-0.8,0-1.2,0c-2,0.3-4.5,0.2-6.6,0c-0.4,0-0.9,0-1.4,0
	c-0.4-0.1-0.9-0.1-1.3-0.1c-0.5-0.1-0.9-0.1-1.4-0.2c-0.8-0.1-1.7-0.1-2.5-0.2c-2-0.3-4.8-0.3-6.7-1.3
	C301.9,487.8,301.6,487.7,301.3,487.5C301.3,487.5,301.4,487.6,301.3,487.5z M340.4,420c0-0.6,0-1.3,0-1.8c-0.1-1.1-0.3-2.1-0.7-3.1
	c-0.4-0.9-0.9-1.7-1.4-2.5c-0.3-0.4-0.5-0.7-0.8-1c-0.3-0.3-0.7-0.6-1-0.9c-0.3-0.2-0.7-0.5-1-0.7c-0.7-0.4-1.4-0.8-2.1-1.1
	c-0.7-0.2-1.4-0.4-2.1-0.7c-0.7-0.1-1.3-0.2-2-0.3c-0.3,0-0.5,0-0.8-0.1c-0.2,0-0.5,0-0.7,0c-0.2,0.1-0.3,0.1-0.5,0
	c-0.2-0.1-0.4,0-0.4,0.1c-0.1,0.1-0.1,0.2-0.1,0.3c0.1,0.2,0.1,0.4,0,0.6c0,0.9-0.1,1.8,0.1,2.7c0,0.8,0,1.6,0.1,2.4
	c0,0.5,0,0.9,0,1.3c0.1,0.5,0.1,0.9,0.1,1.4c0.1,0.5,0.1,0.9,0.1,1.4c0.1,0.5,0.1,1,0.1,1.5c0.1,0.5,0.1,1,0.1,1.5
	c0.1,0.5,0.1,1,0.1,1.5c0.1,0.5,0.1,1,0.1,1.5c0.1,0.5,0.1,1,0.1,1.5c0.1,0.5,0.1,1,0.1,1.5c0.1,0.5,0.1,0.9,0.1,1.3
	c0.1,0.5,0.1,0.9,0.1,1.4c0.1,0.8,0.1,1.6,0.2,2.4c0,0.3,0,0.7,0.1,1c0,0.6,0.3,1.7,0.1,2.3c-0.1,0.2-0.1,0.4,0,0.5
	c0.1,0.1,0.2,0.1,0.4,0c0.2,0,0.3,0,0.5,0c0.2,0.1,0.4,0.1,0.6,0c0.5-0.1,1-0.2,1.5-0.4c0.3-0.1,0.5-0.2,0.7-0.3
	c0.3-0.1,0.6-0.3,0.9-0.4c0.3-0.1,0.5-0.3,0.8-0.4c0.6-0.4,1.2-0.8,1.7-1.3c0.9-0.9,1.8-1.8,2.4-3c0.6-0.8,1-1.7,1.3-2.6
	c0.7-1.7,1-3.4,1.3-5.2C340.3,421.4,340.4,420.7,340.4,420C340.4,419.3,340.4,420.7,340.4,420z"/>
<path fill="#020202" d="M360.3,488.8L360.3,488.8c0-0.3-0.1-0.9,0.1-1c0-0.2,0-0.3,0.1-0.4c0-0.1,0-0.3,0-0.4
	c0.1-0.2,0.1-0.3,0.2-0.5c0.1-0.4,0.1-0.8,0.2-1.1c0.4-1.2,0.6-2.4,0.8-3.7c0.2-0.6,0.3-1.2,0.5-1.7c0.1-0.3,0.1-0.6,0.2-1
	c0.1-0.3,0.2-0.6,0.2-1c0.1-0.4,0.2-0.7,0.2-1c0.1-0.4,0.2-0.7,0.3-1c0.2-0.7,0.3-1.5,0.5-2.2c0.2-0.8,0.4-1.6,0.7-2.4
	c0.3-2.1,1.1-4.3,1.5-6.4c0.5-1.3,0.7-2.7,1.1-4.1c0.3-0.9,0.5-1.9,0.8-2.8c0.1-0.5,0.2-1,0.3-1.5c0.3-1,0.5-1.9,0.8-2.9
	c0.1-0.5,0.2-1,0.3-1.5c0.2-0.5,0.3-1,0.4-1.6c0.2-0.5,0.3-1,0.4-1.5c0.2-0.5,0.3-1,0.4-1.5c0.2-0.5,0.3-1,0.4-1.6
	c0.2-0.5,0.3-1,0.4-1.5c0.2-0.5,0.3-1,0.4-1.6c0.2-0.5,0.3-1,0.4-1.5c0.2-0.5,0.3-1,0.4-1.6c0.2-0.5,0.3-1,0.4-1.5
	c0.2-0.5,0.3-1,0.4-1.6c0.2-0.5,0.3-1,0.4-1.6c0.2-0.5,0.3-1,0.5-1.5c0.1-0.5,0.2-1,0.4-1.6c0.1-0.5,0.2-1,0.4-1.5
	c0.1-0.5,0.2-1,0.4-1.6c0.1-0.5,0.2-1,0.4-1.5c0.1-0.5,0.2-1,0.4-1.5c0.1-0.5,0.2-1,0.4-1.5c0.1-0.5,0.2-1,0.4-1.5
	c0.1-0.5,0.2-1,0.4-1.5c0.1-0.5,0.2-1,0.4-1.5c0.1-0.5,0.2-0.9,0.3-1.4c0.2-0.5,0.3-0.9,0.4-1.4c0.3-0.9,0.5-1.9,0.8-2.8
	c0.1-0.5,0.2-0.9,0.3-1.4c0.3-0.9,0.5-1.7,0.7-2.6c0.6-1.6,0.8-3.4,1.5-5c0.3-1.2,0.7-2.3,1-3.5c0.2-1.1,0.6-2.1,0.8-3.1
	c0.2-0.6,0.4-1.2,0.6-1.8c0.1-0.4,0.2-0.7,0.2-1c0.1-0.3,0.2-0.6,0.2-0.8c0.1-0.3,0.2-0.6,0.2-0.9c0.2-0.5,0.3-1,0.5-1.5
	c0.1-0.4,0.2-0.8,0.4-1.2c0.1-0.5,0.3-1.1,0.5-1.6c0-0.3,0.1-0.5,0.2-0.8c0-0.1,0-0.2,0.1-0.4c0.1-0.1,0.1-0.1,0.1-0.3
	c0.1-0.1,0.1-0.2,0.2-0.4v-0.1c0.1-0.1,0.2-0.1,0.3-0.2c0.2-0.1,0.3-0.1,0.5-0.2c0.2-0.1,0.5-0.1,0.7-0.1c0.3-0.1,0.5-0.1,0.8-0.2
	c0.4,0,0.7,0,1.1-0.1c0.4,0,0.8,0,1.1-0.1c0.4,0,0.9,0,1.3-0.1c0.9,0,1.8,0,2.8-0.1c1.4,0,2.9,0,4.3,0c1.4,0.2,2.7,0,4.1,0.2
	c0.4,0,0.8,0,1.1,0.1c0.4,0,0.7,0,1.1,0c0.3,0.1,0.6,0.1,0.9,0.1c0.3,0.1,0.5,0.1,0.7,0.1c0.2,0.1,0.4,0.1,0.6,0.2
	c0.1,0,0.2,0,0.3,0.1v0.1c0.1,0,0.1,0,0.1,0.1c0.1,0.1,0.1,0.1,0.1,0.2c0.1,0.1,0.1,0.1,0.1,0.3c0.1,0.1,0.1,0.2,0.2,0.3
	c0,0.1,0,0.2,0.1,0.4c0.1,0.2,0.1,0.3,0.2,0.4c0.2,0.7,0.4,1.5,0.7,2.2c0.2,0.5,0.3,0.9,0.5,1.4c0.1,0.3,0.1,0.6,0.2,0.8
	c0.1,0.3,0.2,0.6,0.2,0.9c0.1,0.3,0.2,0.6,0.2,0.9c0.1,0.3,0.2,0.6,0.3,0.9c0.2,0.6,0.3,1.3,0.5,1.9c0.3,1.1,0.7,2.1,0.9,3.2
	c0.5,1.6,0.9,3.1,1.3,4.7c0.5,1.2,0.7,2.6,1.1,3.8c0.3,0.9,0.5,1.8,0.7,2.7c0.3,0.9,0.5,1.9,0.8,2.8c0.1,0.5,0.2,1,0.3,1.5
	c0.2,0.5,0.3,0.9,0.4,1.4c0.3,1,0.5,2,0.8,3c0.1,0.5,0.2,1,0.4,1.5c0.1,0.5,0.2,1,0.4,1.5c0.1,0.5,0.2,1,0.4,1.6
	c0.1,0.5,0.2,1,0.4,1.5c0.1,0.5,0.2,1,0.3,1.6c0.2,0.5,0.3,1,0.4,1.5c0.2,0.5,0.3,1,0.5,1.6c0.1,0.5,0.2,1,0.4,1.6
	c0.1,0.5,0.2,1,0.4,1.6c0.1,0.5,0.2,1,0.4,1.6c0.1,0.5,0.2,1,0.4,1.6c0.1,0.5,0.2,1,0.4,1.6c0.1,0.5,0.2,1,0.4,1.6
	c0.1,0.5,0.2,1,0.4,1.5c0.1,0.5,0.2,1,0.3,1.6c0.2,0.5,0.3,1,0.4,1.6c0.2,0.5,0.3,1,0.4,1.6c0.2,0.5,0.3,1,0.4,1.5
	c0.3,1,0.5,2,0.8,3.1c0.1,0.5,0.2,1,0.3,1.5c0.3,1,0.5,2,0.8,3c0.2,1,0.4,1.9,0.7,2.9c0.2,0.9,0.4,1.9,0.7,2.8
	c0.8,2.4,1.6,5.3,2,7.9c0.2,0.8,0.4,1.6,0.7,2.4c0.1,0.8,0.3,1.5,0.6,2.3c0.1,0.3,0.1,0.7,0.2,1c0.1,0.4,0.1,0.7,0.2,1
	c0.1,0.4,0.1,0.7,0.2,1c0.1,0.3,0.1,0.7,0.2,1c0.1,0.6,0.2,1.2,0.4,1.8c0.2,1.3,0.5,2.5,0.8,3.8c0.1,0.2,0.1,0.3,0.2,0.5
	c0,0.4,0.1,0.7,0.2,1c0.1,0.2,0.1,0.3,0.1,0.4c0,0.2,0.1,0.5,0.2,0.7c0,0.2-0.1,0.5,0.1,0.7h-0.1c-0.1,0.1-0.1,0.2-0.2,0.3
	c-0.1,0.1-0.2,0.1-0.4,0.2c-0.2,0.1-0.4,0.1-0.6,0.1c-0.3,0.1-0.5,0.1-0.8,0.2c-0.3,0-0.6,0-0.9,0.1c-0.4,0.1-0.7,0.1-1.1,0.1
	c-0.8,0.1-1.6,0.1-2.4,0.2c-2.8,0-5.7,0-8.5,0c-0.9-0.1-1.8-0.1-2.8-0.2c-0.4,0-0.9,0-1.3,0c-0.4-0.1-0.8-0.1-1.2-0.1
	c-0.3-0.1-0.7-0.1-1.1-0.1c-0.3-0.1-0.6-0.1-0.9-0.2c-0.5,0-1-0.1-1.5-0.3c-0.4,0-0.6-0.2-0.8-0.4c-0.1-0.2-0.1-0.3-0.2-0.4
	c-0.1-0.2-0.1-0.4-0.2-0.6c-0.2-0.5-0.3-1.1-0.5-1.7c-0.2-0.8-0.4-1.5-0.6-2.3c-0.7-5.4-2.9-10.7-3.4-16.2c-0.2-0.9-0.4-1.7-0.6-2.6
	c-0.1-0.4-0.2-0.8-0.2-1.2c-0.3-1-0.3-2-0.7-3c0-0.2,0-0.5-0.1-0.7c-0.1-0.2-0.1-0.3-0.2-0.4c0-0.2,0-0.4-0.1-0.5
	c-0.1,0-0.2,0-0.4-0.1c-0.2,0-0.4,0-0.7-0.1c-0.7-0.1-1.5-0.1-2.2-0.2c-0.4,0-0.9,0-1.3,0c-1.8-0.2-3.8-0.2-5.6,0
	c-0.7,0-1.5,0.1-2.2,0.3c-0.2,0.1-0.5,0.1-0.7,0.3c-0.2,0.1-0.3,0.1-0.4,0.3v0.1c-0.1,0.1-0.1,0.2-0.1,0.3c-0.1,0.2-0.1,0.3-0.1,0.5
	c-0.2,0.9-0.3,1.8-0.6,2.6c-0.1,0.3-0.1,0.7-0.2,1.1c-0.1,0.4-0.2,0.8-0.2,1.2c-0.1,0.5-0.2,0.9-0.3,1.4c-0.5,4.1-1.7,8.3-2.5,12.3
	c-0.2,1.8-0.9,3.6-1.1,5.4c-0.1,0.4-0.2,0.8-0.3,1.1c-0.1,0.3-0.1,0.7-0.2,1c-0.1,0.3-0.1,0.6-0.2,0.8c-0.1,0.2-0.2,0.5-0.2,0.7
	c-0.1,0.2-0.1,0.3-0.2,0.4c0,0.1,0,0.2-0.1,0.3c-0.1,0.1-0.2,0.2-0.2,0.2c-0.2,0.1-0.3,0.1-0.5,0.2c-1.2,0.3-2.4,0.6-3.6,0.6
	c-0.4,0.1-0.8,0.1-1.2,0.2c-0.9,0.1-1.8,0.1-2.7,0.2c-0.4,0.1-0.9,0.1-1.4,0.1c-1.5,0.2-2.9,0-4.4,0.2c-0.9,0-1.8,0-2.8-0.1
	c-0.4,0-0.9,0-1.3,0c-0.4-0.1-0.8-0.1-1.2-0.1c-0.4-0.1-0.8-0.1-1.1-0.1c-0.3-0.1-0.6-0.1-0.9-0.2c-0.5,0-1-0.1-1.5-0.4
	c-0.2-0.1-0.3-0.1-0.5-0.2C360.4,489,360.3,488.9,360.3,488.8z M402.2,448.7c0.1-0.1,0-0.3-0.1-0.5c-0.1-0.2-0.1-0.3-0.1-0.5
	c-0.1-0.5-0.2-0.9-0.3-1.4c0-1.1-0.4-2.4-0.6-3.5c-0.3-1-0.4-2.1-0.6-3.1c-0.2-0.8-0.3-1.5-0.5-2.3c-0.1-0.8-0.2-1.6-0.4-2.4
	c-0.1-0.4-0.1-0.8-0.2-1.2c-0.2-0.8-0.3-1.7-0.5-2.5c-0.1-0.5-0.1-0.9-0.2-1.3c-0.2-0.9-0.3-1.7-0.4-2.6c-0.3-1.3-0.3-2.6-0.7-3.8
	c-0.1-0.5-0.1-0.9-0.2-1.3c-0.2-0.4-0.2-0.8-0.2-1.3c-0.1-1.6-0.2-1.6-0.3,0c0,0.4-0.1,0.8-0.2,1.3c-0.1,0.4-0.2,0.8-0.2,1.3
	c0,1.3-0.4,2.8-0.7,4c-0.1,0.5-0.1,0.9-0.2,1.4c-0.1,0.4-0.1,0.8-0.2,1.3c-0.1,0.5-0.1,0.9-0.2,1.4c-0.1,0.4-0.1,0.8-0.2,1.3
	c-0.1,0.5-0.1,0.9-0.2,1.3c-0.1,0.5-0.1,0.9-0.2,1.3c-0.1,0.4-0.1,0.8-0.2,1.3c-0.1,0.4-0.1,0.8-0.2,1.2c-0.2,0.8-0.3,1.6-0.5,2.4
	c-0.1,0.4-0.1,0.8-0.2,1.1c-0.3,1-0.3,2.1-0.7,3.1c-0.1,0.6-0.2,1.2-0.3,1.7c0,0.7-0.2,1.8-0.4,2.5c-0.4,0.8,0.8,0.5,1.2,0.6
	c0.4,0,0.8,0,1.1,0c0.9-0.1,1.7-0.1,2.6-0.1c0.5-0.1,0.9-0.1,1.4-0.1c0.4-0.1,0.9-0.1,1.3-0.2c0.3,0,0.7,0,1.1-0.1
	C401.3,449,401.7,448.9,402.2,448.7C402.2,448.6,402,448.8,402.2,448.7z"/>
<path fill="#020202" d="M499.4,404.7c0,0.8,0,1.7-0.1,2.5c0,1.3-0.3,2.9-0.7,4.2c-0.3,1.9-0.9,4.1-1.6,5.9c-0.1,0.3-0.2,0.7-0.3,1.1
	c-0.2,0.4-0.3,0.7-0.4,1.1c-0.2,0.4-0.3,0.7-0.4,1c-0.2,0.3-0.3,0.7-0.4,1c-0.2,0.4-0.3,0.7-0.4,1c-0.2,0.3-0.3,0.7-0.4,1
	c-0.2,0.3-0.3,0.6-0.5,0.9c-0.1,0.2-0.2,0.5-0.3,0.7c-0.2,0.2-0.3,0.5-0.4,0.7c-0.1,0.2-0.2,0.3-0.4,0.5c-0.1,0.1-0.2,0.3-0.3,0.4
	c-0.1,0.1-0.2,0.2-0.3,0.3c-0.1,0.1-0.2,0.2-0.3,0.2c-0.2,0.1-0.3,0.1-0.5-0.1c-0.1-0.1-0.1-0.1-0.2-0.3c-0.2-0.4-0.4-0.8-0.7-1.2
	c-0.2-0.4-0.4-0.8-0.6-1.1c-0.2-0.4-0.4-0.8-0.7-1.1c-0.2-0.4-0.5-0.8-0.7-1.1c-0.2-0.3-0.4-0.7-0.7-1c-0.7-0.9-1.5-1.9-2.2-2.9
	c-0.5-0.6-1-1.2-1.5-1.7c-0.3-0.3-0.5-0.6-0.8-0.8c-0.7-0.8-1.6-1.5-2.4-2.2c-0.2-0.2-0.5-0.4-0.8-0.6c-0.2-0.2-0.5-0.4-0.7-0.6
	c-0.3-0.2-0.5-0.4-0.8-0.5c-0.8-0.4-1.6-0.9-2.4-1.2c-0.5-0.3-1-0.5-1.5-0.6c-0.5-0.2-1-0.3-1.5-0.4c-0.9,0-1.8-0.3-2.8-0.1
	c-0.4,0-0.8,0.1-1.2,0.3c-0.2,0.1-0.4,0.1-0.6,0.2c-0.6,0.2-1.1,0.6-1.5,1c-0.2,0.2-0.3,0.3-0.5,0.5c-0.1,0.1-0.2,0.3-0.4,0.4
	c-0.1,0.2-0.2,0.4-0.3,0.6c-0.2,0.4-0.5,0.9-0.7,1.3c-0.1,0.2-0.1,0.5-0.2,0.8c-0.2,0.5-0.3,1.1-0.3,1.7c-0.1,0.3-0.1,0.7-0.1,1
	c-0.1,0.7-0.1,1.3,0,2c0,0.3,0.1,0.7,0.2,1c0.1,0.3,0.1,0.6,0.2,0.9c0.1,0.3,0.2,0.6,0.3,0.8c0.2,0.5,0.5,1,0.9,1.5
	c0.3,0.5,0.7,0.9,1.1,1.2c0.4,0.4,0.9,0.7,1.4,1c0.3,0.2,0.5,0.4,0.7,0.5c0.3,0.1,0.6,0.3,0.9,0.4c0.3,0.1,0.5,0.2,0.8,0.3
	c0.3,0.2,0.6,0.3,0.9,0.4c2,0.7,4.2,1.3,6.2,2.2c0.7,0.2,1.4,0.5,2.1,0.7c0.4,0.2,0.8,0.3,1.1,0.4c0.4,0.2,0.7,0.3,1.1,0.4
	c1.1,0.5,2.2,1,3.3,1.6c0.4,0.2,0.7,0.4,1.1,0.6c0.3,0.2,0.7,0.5,1.1,0.7c0.3,0.2,0.7,0.5,1,0.7c0.3,0.2,0.5,0.5,0.8,0.7
	c0.6,0.4,1.2,0.9,1.7,1.4c0.2,0.2,0.5,0.5,0.7,0.8c0.3,0.2,0.5,0.5,0.7,0.8c0.2,0.2,0.5,0.5,0.7,0.8c0.2,0.3,0.4,0.6,0.7,0.8
	c0.4,0.6,0.8,1.1,1.2,1.7c0.2,0.3,0.4,0.6,0.6,0.9c0.2,0.3,0.4,0.6,0.6,1c0.2,0.3,0.3,0.6,0.5,0.9c0.2,0.3,0.3,0.7,0.5,1
	c0.2,0.3,0.3,0.7,0.5,1c0.1,0.4,0.2,0.7,0.4,1c0.1,0.3,0.2,0.6,0.4,1c0.3,1,0.7,2.1,0.9,3.1c0.1,0.3,0.2,0.7,0.3,1
	c0.1,0.7,0.2,1.5,0.4,2.2c0.1,0.3,0.1,0.7,0.1,1.1c0.2,1.1,0.2,2.2,0.3,3.3c0,1.1,0.1,2.4-0.1,3.5c0,0.4,0,0.8-0.1,1.2
	c0,1.6-0.4,3.2-0.6,4.7c-0.3,1-0.6,2.1-0.7,3.1c-0.4,1-0.6,1.9-1.1,2.9c-0.1,0.3-0.2,0.6-0.4,0.9c-0.1,0.3-0.2,0.6-0.4,0.9
	c-0.2,0.6-0.5,1.1-0.9,1.7c-0.2,0.3-0.4,0.6-0.6,0.8c-0.2,0.3-0.4,0.6-0.6,0.8c-0.2,0.2-0.4,0.5-0.6,0.8c-0.4,0.5-0.9,0.9-1.3,1.4
	c-0.2,0.2-0.4,0.4-0.7,0.6c-0.3,0.2-0.5,0.4-0.7,0.6c-0.5,0.4-1.1,0.8-1.6,1.2c-0.3,0.2-0.5,0.3-0.8,0.5c-0.3,0.2-0.6,0.4-0.9,0.5
	c-0.3,0.2-0.7,0.3-1,0.4c-0.3,0.2-0.7,0.3-1,0.4c-0.3,0.2-0.7,0.3-1,0.4c-1.7,0.8-3.8,1.5-5.7,1.8c-0.4,0.1-0.9,0.2-1.3,0.3
	c-2.3,0.6-4.8,0.7-7.1,1c-0.5,0-1.1,0-1.6,0.1c-0.5,0-1.1,0-1.5,0c-1.5,0.1-3,0.1-4.6,0.1c-0.4-0.1-0.8-0.1-1.1-0.1
	c-0.4-0.1-0.8-0.1-1.1-0.2c-0.4,0-0.8,0-1.2-0.1c-0.8-0.2-1.6-0.4-2.4-0.5c-1.6-0.2-3.4-0.8-5-1.4c-0.4-0.1-0.8-0.3-1.2-0.4
	c-0.4-0.1-0.8-0.3-1.1-0.4c-1.8-0.5-3.8-1.5-5.3-2.6c-0.3-0.2-0.6-0.3-0.9-0.5c-0.5-0.4-1.1-0.8-1.6-1.2c-0.2-0.2-0.4-0.4-0.7-0.6
	c-0.2-0.2-0.4-0.4-0.6-0.6c-0.2-0.2-0.3-0.4-0.5-0.6c-0.2-0.2-0.3-0.4-0.4-0.6c-0.1-0.2-0.2-0.4-0.3-0.6c-0.1-0.2-0.1-0.4-0.2-0.6
	c-0.2-0.6-0.1-1.5,0-2.1c0-1.8,0.7-3.6,0.9-5.3c0.3-1.3,0.6-2.6,1.1-3.8c0.1-0.5,0.2-0.9,0.4-1.4c0.1-0.5,0.2-0.9,0.4-1.3
	c0.1-0.5,0.2-0.9,0.4-1.4c0.2-0.9,0.5-1.8,0.9-2.6c0.2-0.9,0.5-1.7,0.9-2.5c0.3-0.8,0.5-1.6,0.8-2.4c0.2-0.3,0.3-0.7,0.5-1
	c0.1-0.3,0.2-0.7,0.4-1c0.1-0.3,0.2-0.6,0.3-0.9c0.3-0.5,0.5-1,0.7-1.5c0.1-0.2,0.2-0.3,0.3-0.5c0.1-0.1,0.1-0.3,0.2-0.4
	c0.1-0.1,0.1-0.1,0.2-0.3c0.1-0.1,0.2-0.1,0.3-0.1c0.1,0.1,0.2,0.2,0.2,0.3c0.2,0.2,0.5,0.5,0.7,0.8c0.1,0.1,0.2,0.2,0.4,0.3
	c0.2,0.2,0.3,0.4,0.4,0.5c0.3,0.4,0.7,0.7,1.1,1c0.2,0.2,0.4,0.4,0.6,0.6c0.2,0.2,0.4,0.4,0.6,0.6c0.4,0.4,0.9,0.8,1.3,1.2
	c0.7,0.7,1.4,1.4,2.1,2c0.5,0.5,0.9,0.9,1.5,1.3c0.3,0.2,0.5,0.5,0.8,0.7c0.8,0.6,1.6,1.2,2.4,1.8c0.3,0.2,0.5,0.3,0.8,0.5
	c0.5,0.4,1,0.7,1.5,1c0.3,0.1,0.5,0.3,0.8,0.4c0.5,0.3,1,0.5,1.5,0.7c0.2,0.1,0.5,0.2,0.7,0.3c0.5,0.2,1,0.3,1.5,0.3
	c0.2,0.1,0.4,0.1,0.7,0.1c0.2,0.1,0.4,0.1,0.7,0c0.2,0,0.4,0,0.7-0.1c0.2,0,0.4,0,0.6-0.1c0.2-0.1,0.4-0.2,0.6-0.3
	c0.2-0.1,0.4-0.2,0.6-0.3c0.5-0.6,0.9-1.1,1.4-1.8c0.4-0.9,0.7-1.8,0.9-2.7c0.4-1.3,0.3-2.5,0.3-3.8c-0.1-0.5-0.2-1.1-0.4-1.6
	c-0.1-0.5-0.3-1-0.7-1.4c-0.1-0.2-0.2-0.5-0.4-0.7c-0.2-0.2-0.3-0.4-0.5-0.6c-0.2-0.2-0.4-0.4-0.6-0.6c-0.9-0.7-1.8-1.5-2.8-2
	c-0.3-0.2-0.6-0.3-0.9-0.4c-0.3-0.2-0.5-0.3-0.8-0.4c-0.3-0.2-0.7-0.3-1-0.4c-0.6-0.3-1.3-0.6-2-0.8c-1-0.5-2.2-0.7-3.2-1.2
	c-1.6-0.5-3.2-0.9-4.7-1.5c-0.8-0.2-1.6-0.5-2.4-0.8c-0.4-0.1-0.8-0.2-1.2-0.3c-0.5-0.2-1.1-0.5-1.6-0.7c-0.3-0.2-0.5-0.4-0.8-0.5
	c-0.5-0.3-1-0.7-1.5-1c-0.5-0.5-1-0.9-1.5-1.4c-0.2-0.2-0.4-0.5-0.7-0.8c-0.2-0.2-0.4-0.5-0.6-0.8c-0.2-0.3-0.4-0.6-0.7-0.9
	c-0.4-0.6-0.8-1.2-1.1-1.8c-0.2-0.3-0.4-0.7-0.5-1c-0.3-0.7-0.6-1.4-0.9-2.1c-0.2-0.4-0.3-0.8-0.4-1.1c-0.3-0.8-0.5-1.6-0.7-2.4
	c-0.1-0.4-0.1-0.8-0.2-1.3c-0.1-0.4-0.1-0.8-0.2-1.2c-0.2-1.3-0.4-2.6-0.4-3.9c-0.2-1.3-0.2-2.7,0-4c0-1.7,0.2-3.5,0.5-5.2
	c0.2-1.5,0.6-3,0.9-4.5c0.2-0.5,0.3-0.9,0.4-1.4c0.5-1.3,0.9-2.6,1.5-3.8c0.2-0.4,0.4-0.8,0.6-1.2c0.2-0.4,0.4-0.7,0.6-1
	c0.2-0.4,0.4-0.8,0.7-1.1c0.4-0.7,0.9-1.3,1.4-1.9c0.2-0.3,0.5-0.6,0.7-1c0.3-0.3,0.5-0.6,0.7-0.8c0.3-0.3,0.5-0.6,0.8-0.9
	c0.3-0.2,0.5-0.5,0.8-0.8c0.3-0.2,0.6-0.5,0.9-0.7c0.3-0.2,0.5-0.4,0.8-0.6c0.3-0.2,0.6-0.5,0.9-0.7c0.3-0.2,0.6-0.4,0.9-0.5
	c0.3-0.2,0.6-0.4,0.9-0.6c0.3-0.2,0.7-0.3,1-0.4c0.3-0.2,0.6-0.3,0.9-0.5c0.3-0.1,0.7-0.3,1-0.4c1-0.3,1.9-0.8,2.9-1
	c0.3-0.1,0.7-0.2,1-0.3c1.5-0.5,3.4-0.9,5-0.9c0.6-0.1,1.3-0.1,2-0.1c0.4-0.1,0.8-0.1,1.1,0c0.4,0,0.8,0,1.1,0
	c0.4,0.1,0.8,0.1,1.1,0.1c0.8,0.1,1.6,0.2,2.4,0.4c0.4,0.1,0.8,0.1,1.2,0.3c1.2,0.2,2.4,0.6,3.5,1c0.4,0.1,0.8,0.2,1.2,0.4
	c0.4,0.2,0.8,0.4,1.1,0.5c2.3,0.6,4.8,2,6.7,3.3c0.4,0.2,0.7,0.4,1.1,0.6c0.3,0.2,0.7,0.5,1,0.7c0.3,0.2,0.7,0.4,1,0.6
	c0.3,0.2,0.6,0.5,0.9,0.7c0.8,0.7,1.6,1.4,2.4,2.1c0.2,0.2,0.5,0.5,0.7,0.7c0.5,0.4,0.9,0.8,1.2,1.3c0.4,0.4,0.7,0.9,1.1,1.4
	c0.3,0.4,0.6,0.8,0.7,1.3c0.1,0.2,0.1,0.4,0.2,0.6C499.2,403.8,499.3,404.2,499.4,404.7C499.4,404.9,499.3,404.5,499.4,404.7z"/>
<path fill="#020202" d="M503.1,488.8L503.1,488.8c0-0.3-0.1-0.9,0.1-1c0-0.2,0-0.3,0.1-0.4c0-0.1,0-0.3,0-0.4
	c0.1-0.2,0.1-0.3,0.2-0.5c0.1-0.4,0.1-0.8,0.2-1.1c0.4-1.2,0.6-2.4,0.8-3.7c0.2-0.6,0.3-1.2,0.5-1.7c0.1-0.3,0.1-0.6,0.2-1
	c0.1-0.3,0.2-0.6,0.2-1c0.1-0.4,0.2-0.7,0.2-1c0.1-0.4,0.2-0.7,0.3-1c0.2-0.7,0.3-1.5,0.5-2.2c0.2-0.8,0.4-1.6,0.7-2.4
	c0.3-2.1,1.1-4.3,1.5-6.4c0.5-1.3,0.7-2.7,1.1-4.1c0.3-0.9,0.5-1.9,0.8-2.8c0.1-0.5,0.2-1,0.3-1.5c0.3-1,0.5-1.9,0.8-2.9
	c0.1-0.5,0.2-1,0.3-1.5c0.2-0.5,0.3-1,0.4-1.6c0.2-0.5,0.3-1,0.4-1.5c0.2-0.5,0.3-1,0.4-1.5c0.2-0.5,0.3-1,0.4-1.6
	c0.2-0.5,0.3-1,0.4-1.5c0.2-0.5,0.3-1,0.4-1.6c0.2-0.5,0.3-1,0.4-1.5c0.2-0.5,0.3-1,0.4-1.6c0.2-0.5,0.3-1,0.4-1.5
	c0.2-0.5,0.3-1,0.4-1.6c0.2-0.5,0.3-1,0.4-1.6c0.2-0.5,0.3-1,0.5-1.5c0.1-0.5,0.2-1,0.4-1.6c0.1-0.5,0.2-1,0.4-1.5
	c0.1-0.5,0.2-1,0.4-1.6c0.1-0.5,0.2-1,0.4-1.5c0.1-0.5,0.2-1,0.4-1.5c0.1-0.5,0.2-1,0.4-1.5c0.1-0.5,0.2-1,0.4-1.5
	c0.1-0.5,0.2-1,0.4-1.5c0.1-0.5,0.2-1,0.4-1.5c0.1-0.5,0.2-0.9,0.3-1.4c0.2-0.5,0.3-0.9,0.4-1.4c0.3-0.9,0.5-1.9,0.8-2.8
	c0.1-0.5,0.2-0.9,0.3-1.4c0.3-0.9,0.5-1.7,0.7-2.6c0.6-1.6,0.8-3.4,1.5-5c0.3-1.2,0.7-2.3,1-3.5c0.2-1.1,0.6-2.1,0.8-3.1
	c0.2-0.6,0.4-1.2,0.6-1.8c0.1-0.4,0.2-0.7,0.2-1c0.1-0.3,0.2-0.6,0.2-0.8c0.1-0.3,0.2-0.6,0.2-0.9c0.2-0.5,0.3-1,0.5-1.5
	c0.1-0.4,0.2-0.8,0.4-1.2c0.1-0.5,0.3-1.1,0.5-1.6c0-0.3,0.1-0.5,0.2-0.8c0-0.1,0-0.2,0.1-0.4c0.1-0.1,0.1-0.1,0.1-0.3
	c0.1-0.1,0.1-0.2,0.2-0.4v-0.1c0.1-0.1,0.2-0.1,0.3-0.2c0.2-0.1,0.3-0.1,0.5-0.2c0.2-0.1,0.5-0.1,0.7-0.1c0.3-0.1,0.5-0.1,0.8-0.2
	c0.4,0,0.7,0,1.1-0.1c0.4,0,0.8,0,1.1-0.1c0.4,0,0.9,0,1.3-0.1c0.9,0,1.8,0,2.8-0.1c1.4,0,2.9,0,4.3,0c1.4,0.2,2.7,0,4.1,0.2
	c0.4,0,0.8,0,1.1,0.1c0.4,0,0.7,0,1.1,0c0.3,0.1,0.6,0.1,0.9,0.1c0.3,0.1,0.5,0.1,0.7,0.1c0.2,0.1,0.4,0.1,0.6,0.2
	c0.1,0,0.2,0,0.3,0.1v0.1c0.1,0,0.1,0,0.1,0.1c0.1,0.1,0.1,0.1,0.1,0.2c0.1,0.1,0.1,0.1,0.1,0.3c0.1,0.1,0.1,0.2,0.2,0.3
	c0,0.1,0,0.2,0.1,0.4c0.1,0.2,0.1,0.3,0.2,0.4c0.2,0.5,0.3,1.1,0.5,1.6c0.1,0.2,0.1,0.4,0.2,0.6c0.2,0.5,0.3,0.9,0.5,1.4
	c0.1,0.3,0.1,0.6,0.2,0.8c0.1,0.3,0.2,0.6,0.2,0.9c0.1,0.3,0.2,0.6,0.2,0.9c0.1,0.3,0.2,0.6,0.3,0.9c0.2,0.6,0.3,1.3,0.5,1.9
	c0.3,1.1,0.7,2.1,0.9,3.2c0.5,1.6,0.9,3.1,1.3,4.7c0.5,1.2,0.7,2.6,1.1,3.8c0.3,0.9,0.5,1.8,0.7,2.7c0.3,0.9,0.5,1.9,0.8,2.8
	c0.1,0.5,0.2,1,0.3,1.5c0.2,0.5,0.3,0.9,0.4,1.4c0.3,1,0.5,2,0.8,3c0.1,0.5,0.2,1,0.4,1.5c0.1,0.5,0.2,1,0.4,1.5
	c0.1,0.5,0.2,1,0.4,1.6c0.1,0.5,0.2,1,0.4,1.5c0.1,0.5,0.2,1,0.3,1.6c0.2,0.5,0.3,1,0.4,1.5c0.2,0.5,0.3,1,0.5,1.6
	c0.1,0.5,0.2,1,0.4,1.6c0.1,0.5,0.2,1,0.4,1.6c0.1,0.5,0.2,1,0.4,1.6c0.1,0.5,0.2,1,0.4,1.6c0.1,0.5,0.2,1,0.4,1.6
	c0.1,0.5,0.2,1,0.4,1.6c0.1,0.5,0.2,1,0.4,1.5c0.1,0.5,0.2,1,0.3,1.6c0.2,0.5,0.3,1,0.4,1.6c0.2,0.5,0.3,1,0.4,1.6
	c0.2,0.5,0.3,1,0.4,1.5c0.3,1,0.5,2,0.8,3.1c0.1,0.5,0.2,1,0.3,1.5c0.3,1,0.5,2,0.8,3c0.2,1,0.4,1.9,0.7,2.9
	c0.2,0.9,0.4,1.9,0.7,2.8c0.9,2.4,1.6,5.3,2,7.9c0.2,0.8,0.4,1.6,0.7,2.4c0.1,0.8,0.3,1.5,0.6,2.3c0.1,0.3,0.1,0.7,0.2,1
	c0.1,0.4,0.1,0.7,0.2,1c0.1,0.4,0.1,0.7,0.2,1c0.1,0.3,0.1,0.7,0.2,1c0.1,0.6,0.2,1.2,0.4,1.8c0.2,1.3,0.5,2.5,0.8,3.8
	c0.1,0.2,0.1,0.3,0.2,0.5c0,0.4,0.1,0.7,0.2,1c0.1,0.2,0.1,0.3,0.1,0.4c0,0.2,0.1,0.5,0.2,0.7c0,0.2-0.1,0.5,0.1,0.7h-0.1
	c-0.1,0.1-0.1,0.2-0.2,0.3c-0.1,0.1-0.2,0.1-0.4,0.2c-0.2,0.1-0.4,0.1-0.6,0.1c-0.3,0.1-0.5,0.1-0.8,0.2c-0.3,0-0.6,0-0.9,0.1
	c-0.4,0.1-0.7,0.1-1.1,0.1c-0.8,0.1-1.6,0.1-2.4,0.2c-2.8,0-5.7,0-8.5,0c-0.9-0.1-1.8-0.1-2.8-0.2c-0.4,0-0.9,0-1.3,0
	c-0.4-0.1-0.8-0.1-1.2-0.1c-0.3-0.1-0.7-0.1-1.1-0.1c-0.3-0.1-0.6-0.1-0.9-0.2c-0.5,0-1-0.1-1.5-0.3c-0.4,0-0.6-0.2-0.8-0.4
	c-0.1-0.2-0.1-0.3-0.2-0.4c-0.1-0.2-0.1-0.4-0.2-0.6c-0.2-0.5-0.3-1.1-0.5-1.7c-0.2-0.8-0.4-1.5-0.6-2.3c-0.7-5.4-2.9-10.7-3.4-16.2
	c-0.2-0.9-0.4-1.7-0.6-2.6c-0.1-0.4-0.2-0.8-0.2-1.2c-0.3-1-0.3-2-0.7-3c0-0.2,0-0.5-0.1-0.7c-0.1-0.2-0.1-0.3-0.2-0.4
	c0-0.2,0-0.4-0.1-0.5c-0.1,0-0.2,0-0.4-0.1c-0.2,0-0.4,0-0.7-0.1c-0.7-0.1-1.5-0.1-2.2-0.2c-0.4,0-0.9,0-1.3,0
	c-1.8-0.2-3.8-0.2-5.6,0c-0.7,0-1.5,0.1-2.2,0.3c-0.2,0.1-0.5,0.1-0.7,0.3c-0.2,0.1-0.3,0.1-0.4,0.3v0.1c-0.1,0.1-0.1,0.2-0.1,0.3
	c-0.1,0.2-0.1,0.3-0.1,0.5c-0.2,0.9-0.3,1.8-0.6,2.6c-0.1,0.3-0.1,0.7-0.2,1.1c-0.1,0.4-0.2,0.8-0.2,1.2c-0.1,0.5-0.2,0.9-0.3,1.4
	c-0.5,4.1-1.7,8.3-2.5,12.3c-0.2,1.8-0.9,3.6-1.1,5.4c-0.1,0.4-0.2,0.8-0.3,1.1c-0.1,0.3-0.1,0.7-0.2,1c-0.1,0.3-0.1,0.6-0.2,0.8
	c-0.1,0.2-0.2,0.5-0.2,0.7c-0.1,0.2-0.1,0.3-0.2,0.4c0,0.1,0,0.2-0.1,0.3c-0.1,0.1-0.2,0.2-0.2,0.2c-0.2,0.1-0.3,0.1-0.5,0.2
	c-1.2,0.3-2.4,0.6-3.6,0.6c-0.4,0.1-0.8,0.1-1.2,0.2c-0.9,0.1-1.8,0.1-2.7,0.2c-0.4,0.1-0.9,0.1-1.4,0.1c-1.5,0.2-2.9,0-4.4,0.2
	c-0.9,0-1.8,0-2.8-0.1c-0.4,0-0.9,0-1.3,0c-0.4-0.1-0.8-0.1-1.2-0.1c-0.4-0.1-0.8-0.1-1.1-0.1c-0.3-0.1-0.6-0.1-0.9-0.2
	c-0.5,0-1-0.1-1.5-0.4c-0.2-0.1-0.3-0.1-0.5-0.2C503.3,489,503.2,488.9,503.1,488.8z M545,448.7c0.1-0.1,0-0.3-0.1-0.5
	c-0.1-0.2-0.1-0.3-0.1-0.5c-0.1-0.5-0.2-0.9-0.3-1.4c0-1.1-0.4-2.4-0.6-3.5c-0.3-1-0.4-2.1-0.6-3.1c-0.2-0.8-0.3-1.5-0.5-2.3
	c-0.1-0.8-0.2-1.6-0.4-2.4c-0.1-0.4-0.1-0.8-0.2-1.2c-0.2-0.8-0.3-1.7-0.5-2.5c-0.1-0.5-0.1-0.9-0.2-1.3c-0.2-0.9-0.3-1.7-0.4-2.6
	c-0.3-1.3-0.3-2.6-0.7-3.8c-0.1-0.5-0.1-0.9-0.2-1.3c-0.2-0.4-0.2-0.8-0.2-1.3c-0.1-1.6-0.2-1.6-0.3,0c0,0.4-0.1,0.8-0.2,1.3
	c-0.1,0.4-0.2,0.8-0.2,1.3c0,1.3-0.4,2.8-0.7,4c-0.1,0.5-0.1,0.9-0.2,1.4c-0.1,0.4-0.1,0.8-0.2,1.3c-0.1,0.5-0.1,0.9-0.2,1.4
	c-0.1,0.4-0.1,0.8-0.2,1.3c-0.1,0.5-0.1,0.9-0.2,1.3c-0.1,0.5-0.1,0.9-0.2,1.3c-0.1,0.4-0.1,0.8-0.2,1.3c-0.1,0.4-0.1,0.8-0.2,1.2
	c-0.2,0.8-0.3,1.6-0.5,2.4c-0.1,0.4-0.1,0.8-0.2,1.1c-0.3,1-0.3,2.1-0.7,3.1c-0.1,0.6-0.2,1.2-0.3,1.7c0,0.7-0.2,1.8-0.4,2.5
	c-0.4,0.8,0.8,0.5,1.2,0.6c0.4,0,0.8,0,1.1,0c0.9-0.1,1.7-0.1,2.6-0.1c0.5-0.1,0.9-0.1,1.4-0.1c0.4-0.1,0.9-0.1,1.3-0.2
	c0.3,0,0.7,0,1.1-0.1C544.1,449,544.6,448.9,545,448.7C545.1,448.6,544.9,448.8,545,448.7z"/>
<path fill="#020202" d="M533.4,372.3c-2.8,0-5,6.8-9.5,6.5c-4.6-0.2-4.6-4.1-4.6-5.6c0-3.2,3.1-8.3,4.8-10.3c1.7-2,4.2-4.5,9-4.5
	c6.7,0,8,6.9,13.4,6.9c3.1,0,5.4-8.3,11.3-8.3c10.4,0,3.5,11.2,2.4,12.9c-1.8,2.8-6.9,9.8-13.8,9.8
	C539.4,379.7,538.1,372.3,533.4,372.3"/>
</svg>
