<?xml version="1.0" encoding="utf-8"?>
<!-- Generator: Adobe Illustrator 18.0.0, SVG Export Plug-In . SVG Version: 6.00 Build 0)  -->
<!DOCTYPE svg PUBLIC "-//W3C//DTD SVG 1.0//EN" "http://www.w3.org/TR/2001/REC-SVG-20010904/DTD/svg10.dtd">
<svg version="1.0" id="Camada_1" xmlns="http://www.w3.org/2000/svg" xmlns:xlink="http://www.w3.org/1999/xlink" x="0px" y="0px"
	 viewBox="120 314 362 222" enable-background="new 120 314 362 222" xml:space="preserve">
<path fill="#1B7C09" d="M182,388.4c0.1-0.1,0.2-0.2,0.4-0.3c0.3-0.1,0.5-0.2,0.7-0.3c0.3-0.1,0.6-0.1,0.9-0.3
	c1.2-0.2,2.4-0.4,3.6-0.5c0.5,0,1,0,1.5-0.1c0.5,0,1,0,1.5-0.1c1.5,0,3,0,4.5,0c1.3,0.2,2.8,0.3,4.1,0.3c1,0.2,2,0.3,2.9,0.5
	c0.2,0.1,0.4,0.2,0.7,0.3c0.1,0.1,0.2,0.1,0.3,0.3c0.1,0.1,0.2,0.1,0.2,0.3c-0.1,0.4-0.1,0.7-0.2,1c0,0.4,0,0.7-0.1,1
	c-0.1,0.7-0.1,1.5-0.2,2.2c-0.1,0.3-0.1,0.7-0.2,1c-0.1,0.8-0.1,1.5-0.2,2.3c-0.1,0.8-0.2,1.6-0.2,2.4c-0.1,0.8-0.2,1.6-0.2,2.4
	c-0.1,0.8-0.2,1.7-0.2,2.5c-0.1,0.4-0.1,0.8-0.2,1.2c0,0.9-0.1,1.8-0.2,2.6c-0.1,0.9-0.1,1.7-0.2,2.6c-0.1,0.4-0.1,0.8-0.1,1.3
	c-0.1,0.4-0.1,0.8-0.2,1.3c0,0.4,0,0.8-0.1,1.3c0,0.4,0,0.8-0.1,1.3c0,0.5,0,0.9-0.1,1.3c0,0.5,0,0.9-0.1,1.4c0,0.4,0,0.8,0,1.3
	c-0.1,0.9-0.1,1.7-0.1,2.6c-0.3,2.4-0.3,5.4,0,7.8c0,0.8,0,1.7,0.1,2.5c0,0.4,0,0.8,0.1,1.2c0.1,0.8,0.1,1.6,0.2,2.4
	c0.1,0.8,0.2,1.6,0.2,2.4c0.1,0.3,0.1,0.7,0.2,1c0.3,1.1,0.3,2.2,0.7,3.2c0.1,0.3,0.1,0.7,0.2,1c0.1,0.7,0.3,1.3,0.5,2
	c0.3,0.9,0.5,1.9,1.1,2.6c0.1,0.3,0.2,0.6,0.3,0.9c0.2,0.3,0.3,0.6,0.4,0.8c0.2,0.2,0.3,0.5,0.5,0.8c0.2,0.5,0.5,0.9,0.9,1.3
	c0.3,0.5,0.6,0.9,1.1,1.2c0.3,0.4,0.7,0.8,1.1,1c0.2,0.2,0.4,0.3,0.7,0.4c0.4,0.3,0.9,0.6,1.4,0.8c0.2,0.1,0.5,0.2,0.7,0.3
	c0.7,0.4,1.6,0.5,2.4,0.6c0.3,0,0.5,0,0.8,0.1c0.6,0,1.2,0,1.8-0.1c1,0,2.3-0.3,3.3-0.7c0.2-0.1,0.5-0.2,0.7-0.3
	c0.2-0.1,0.4-0.3,0.7-0.4c0.2-0.1,0.4-0.2,0.7-0.3c0.6-0.5,1.2-0.9,1.8-1.5c0.2-0.2,0.3-0.4,0.5-0.6c0.2-0.2,0.4-0.4,0.6-0.6
	c0.2-0.2,0.3-0.5,0.4-0.7c0.2-0.2,0.3-0.5,0.5-0.7c0.2-0.3,0.3-0.6,0.4-0.8c0.3-0.5,0.5-1,0.8-1.6c0.3-0.9,0.7-1.8,0.9-2.7
	c0.1-0.3,0.2-0.6,0.3-1c0.1-0.3,0.1-0.6,0.2-1c0.1-0.3,0.1-0.7,0.2-1c0.1-0.7,0.2-1.4,0.3-2.1c0.1-0.3,0.2-0.7,0.2-1
	c0.1-1.1,0.4-2.3,0.4-3.4c0.1-0.4,0.1-0.8,0.1-1.2c0.1-0.4,0.1-0.8,0.1-1.1c0.1-0.8,0.1-1.6,0.2-2.4c0-2.5,0.2-5.1-0.1-7.6
	c0-0.5,0-0.9,0-1.3c-0.1-0.9-0.1-1.7-0.2-2.6c0-0.5,0-0.9-0.1-1.3c0-0.5,0-0.9-0.1-1.3c0-0.5,0-0.9-0.1-1.3
	c-0.1-0.9-0.1-1.7-0.2-2.6c-0.1-0.5-0.1-0.9-0.2-1.3c0-1.3-0.3-2.6-0.3-3.9c-0.1-0.8-0.2-1.7-0.3-2.5c0-1.3-0.2-2.5-0.4-3.8
	c0-1.2-0.2-2.4-0.4-3.6c0-1.2-0.3-2.3-0.4-3.5c0-0.7-0.1-1.5-0.2-2.2c-0.1-0.7-0.1-1.4-0.2-2.1c-0.1-0.3-0.1-0.7-0.2-1
	c0-0.1,0.1-0.2,0.2-0.4c0.1-0.1,0.2-0.1,0.3-0.3c0.2-0.1,0.4-0.1,0.6-0.2c0.3-0.1,0.5-0.1,0.8-0.2c0.3-0.1,0.7-0.2,1-0.2
	c0.8-0.1,1.6-0.2,2.4-0.3c0.4,0,0.9,0,1.4-0.1c0.4,0,0.9,0,1.4,0c1.9-0.2,4-0.2,5.9,0c0.5,0,0.9,0,1.4,0.1c0.4,0,0.9,0,1.3,0.1
	c1,0,2.1,0.3,3.1,0.4c0.2,0.1,0.4,0.1,0.7,0.2c0.2,0.1,0.3,0.1,0.5,0.3c0.1,0.1,0.1,0.1,0.2,0.2c0.2,0.7,0.4,1.5,0.7,2.2
	c0.2,1.1,0.6,2.1,0.8,3.2c0.1,0.3,0.2,0.7,0.3,1.1c0.2,0.8,0.3,1.5,0.5,2.3c0.1,0.4,0.2,0.7,0.2,1.1c0.1,0.3,0.2,0.7,0.2,1.1
	c0.1,0.4,0.2,0.8,0.2,1.1c0.1,0.4,0.2,0.8,0.2,1.2c0.1,0.4,0.2,0.7,0.2,1.1c0.2,0.8,0.3,1.6,0.5,2.4c0.1,0.8,0.2,1.6,0.4,2.4
	c0.4,3.2,1.2,6.6,1.2,9.9c0.1,0.5,0.1,0.9,0.2,1.3c0.1,0.8,0.1,1.6,0.2,2.4c0.1,0.5,0.1,0.9,0.1,1.3c0.1,0.4,0.1,0.8,0.1,1.2
	c0.1,0.5,0.1,0.9,0.1,1.3c0.1,0.8,0.1,1.7,0.2,2.5c0,0.8,0,1.6,0.1,2.4c0,1.7,0.1,3.4-0.1,5.1c0,0.8,0,1.7,0,2.5
	c-0.1,0.8-0.1,1.6-0.2,2.4c0,0.4,0,0.8-0.1,1.2c0,0.4,0,0.8-0.1,1.2c0,0.8-0.1,1.6-0.2,2.4c0,2.2-0.3,5-1,7.1
	c-0.1,0.8-0.2,1.6-0.4,2.4c-0.1,0.3-0.1,0.7-0.2,1.1c-0.2,0.8-0.3,1.5-0.5,2.3c-0.1,0.3-0.2,0.7-0.3,1c-0.2,1.5-0.8,2.9-1.2,4.3
	c-0.3,0.7-0.5,1.4-0.7,2.1c-0.2,0.4-0.3,0.7-0.4,1c-0.2,0.3-0.3,0.6-0.4,1c-0.2,0.3-0.3,0.7-0.5,1c-0.1,0.3-0.2,0.7-0.4,1
	c-0.2,0.3-0.3,0.7-0.5,1c-0.2,0.6-0.5,1.3-0.9,1.8c-0.2,0.3-0.4,0.7-0.6,1c-0.3,0.6-0.7,1.2-1.1,1.8c-0.4,0.5-0.8,1.1-1.1,1.7
	c-0.4,0.6-0.8,1.1-1.2,1.6c-0.2,0.2-0.4,0.5-0.6,0.8c-0.6,0.7-1.3,1.5-2,2.1c-0.2,0.2-0.5,0.5-0.7,0.7c-0.2,0.2-0.5,0.5-0.7,0.7
	c-0.2,0.2-0.5,0.4-0.7,0.6c-0.5,0.4-1,0.8-1.5,1.2c-0.8,0.5-1.6,1-2.4,1.6c-0.3,0.2-0.6,0.3-0.9,0.4c-0.3,0.2-0.6,0.3-0.9,0.5
	c-0.3,0.1-0.6,0.3-0.9,0.4c-0.3,0.1-0.6,0.2-0.9,0.3c-0.3,0.1-0.7,0.2-1,0.3c-0.3,0.2-0.7,0.3-1,0.4c-0.7,0.3-1.3,0.5-2,0.6
	c-0.3,0.1-0.7,0.2-1,0.3c-1.7,0.5-3.8,0.9-5.5,0.9c-0.8,0.1-1.6,0.1-2.4,0.1c-0.8,0.1-1.6,0.1-2.4,0c-0.4,0-0.8,0-1.1,0
	c-0.4-0.1-0.8-0.1-1.2-0.1c-0.4-0.1-0.8-0.1-1.1-0.2c-1.1,0-2.3-0.2-3.3-0.5c-0.3-0.1-0.7-0.1-1.1-0.3c-0.3-0.1-0.7-0.1-1.1-0.3
	c-1.6-0.3-3.5-1-4.9-1.7c-0.3-0.1-0.6-0.3-0.9-0.4c-0.3-0.1-0.6-0.3-0.9-0.4c-0.3-0.2-0.6-0.3-0.9-0.5c-0.6-0.3-1.1-0.6-1.6-1
	c-0.6-0.3-1.1-0.7-1.6-1.1c-0.5-0.4-1-0.8-1.5-1.2c-0.4-0.5-0.9-0.9-1.4-1.3c-0.5-0.4-1-0.9-1.4-1.5c-0.5-0.5-0.9-1-1.3-1.5
	c-0.4-0.6-0.8-1.1-1.2-1.6c-0.2-0.3-0.4-0.6-0.6-0.9c-0.2-0.2-0.4-0.5-0.6-0.8c-0.2-0.3-0.4-0.6-0.6-0.9c-0.3-0.6-0.7-1.2-1-1.7
	c-0.3-0.6-0.7-1.3-1-1.9c-0.2-0.3-0.3-0.6-0.5-0.9c-0.2-0.3-0.3-0.7-0.4-1c-0.2-0.3-0.3-0.6-0.4-1c-0.2-0.3-0.3-0.6-0.4-1
	c-0.2-0.3-0.3-0.7-0.4-1c-0.3-0.7-0.5-1.3-0.7-2c-0.5-1-0.8-2.2-1-3.2c-0.2-0.7-0.4-1.5-0.7-2.2c-0.2-0.8-0.3-1.5-0.5-2.3
	c-0.2-0.8-0.3-1.5-0.5-2.3c-0.1-0.4-0.1-0.8-0.2-1.1c-0.6-2.2-1-4.9-1-7.2c-0.1-0.4-0.1-0.8-0.2-1.2c-0.1-0.8-0.1-1.6-0.2-2.4
	c-0.1-0.8-0.1-1.6-0.2-2.4c0-0.4,0-0.8-0.1-1.3c0-0.8,0-1.6,0-2.4c-0.2-1.6-0.2-3.5,0-5.1c0-0.8,0-1.7,0-2.5
	c0.1-0.8,0.1-1.7,0.2-2.5c0-0.4,0-0.8,0.1-1.3c0-0.4,0-0.8,0.1-1.2c0-0.4,0-0.8,0.1-1.3c0-0.4,0-0.8,0.1-1.2c0-0.9,0.1-1.7,0.2-2.5
	c0-3.5,0.6-7.8,1.5-11.2c0.1-0.8,0.2-1.6,0.4-2.4c0.1-0.4,0.1-0.8,0.2-1.2c0.2-0.8,0.3-1.6,0.5-2.4c0.1-0.4,0.1-0.7,0.2-1.1
	c0.1-0.4,0.1-0.8,0.2-1.2c0.2-0.8,0.3-1.5,0.5-2.3c0.1-0.4,0.2-0.8,0.2-1.1c0.1-0.4,0.2-0.8,0.3-1.1c0.1-0.8,0.3-1.5,0.6-2.3
	c0.1-0.7,0.3-1.5,0.6-2.2C181.8,388.6,181.8,388.5,182,388.4C182.1,388.3,181.8,388.5,182,388.4z"/>
<path fill="#020202" d="M260.6,389.2c0.2-0.2,0.4-0.3,0.6-0.4c0.3-0.1,0.5-0.3,0.8-0.4c0.6-0.3,1.3-0.5,2-0.7
	c0.4-0.1,0.7-0.1,1.1-0.3c0.4-0.1,0.8-0.1,1.2-0.3c1.3-0.2,2.6-0.3,3.9-0.5c0.4,0,0.9,0,1.3-0.1c1.6,0,3.3-0.2,4.9,0.1
	c0.7,0,1.3,0.1,2,0.3c0.3,0,0.5,0.1,0.8,0.2c0.2,0.1,0.4,0.1,0.7,0.2c0.2,0.1,0.3,0.1,0.5,0.3c0.1,0.1,0.2,0.1,0.3,0.3
	c0.1,0.1,0.2,0.1,0.2,0.3c0.1,0.1,0.2,0.3,0.2,0.4c0.1,0.2,0.2,0.3,0.2,0.4c0.1,0.2,0.2,0.4,0.2,0.6c0.1,0.4,0.2,0.8,0.3,1.2
	c0.1,0.5,0.2,1,0.3,1.6c0.1,0.6,0.1,1.2,0.2,1.8c0.1,0.3,0.1,0.6,0.1,1c0.1,0.3,0.1,0.7,0.1,1c0,0.7,0.1,1.5,0.2,2.2
	c0,0.8,0,1.6,0,2.4c0.4,3,0.1,6.2,0.1,9.3c-0.3,2.4-0.1,4.9-0.1,7.3c-0.1,0.5-0.1,1,0,1.5c0,0.5,0,0.9,0,1.4c0,1,0,2,0,3
	c-0.2,0.9-0.2,1.4,0,1.5c0.3,0.1,0.7-0.2,1.1-1c0.7-0.7,1.4-1.5,2-2.3c0.7-0.8,1.3-1.6,1.9-2.4c1.2-1.5,2.3-3.3,3.3-5
	c1.3-2,2.1-4.4,3.3-6.5c0.7-1.7,1.3-3.4,2-5.1c0.1-0.4,0.2-0.8,0.4-1.2c0.1-0.4,0.2-0.7,0.3-1.1c0.6-1.4,0.9-2.9,1.4-4.4
	c0.1-0.7,0.3-1.3,0.5-2c0.1-0.6,0.3-1.1,0.5-1.7c0.1-0.5,0.2-1.1,0.4-1.6c0.1-0.2,0.1-0.4,0.2-0.6c0.1-0.2,0.1-0.4,0.2-0.6
	c0.1-0.2,0.1-0.3,0.2-0.5c0.1-0.1,0.1-0.3,0.2-0.4c0-0.1,0-0.2,0.1-0.4c0.1-0.1,0.1-0.1,0.2-0.3c0.1-0.1,0.1-0.1,0.1-0.2
	c0.1-0.1,0.1-0.1,0.2-0.1c0.2-0.1,0.4-0.1,0.6-0.1c0.8-0.2,1.7-0.1,2.5-0.1c1.1,0.2,2.3,0.3,3.4,0.6c0.8,0.2,1.7,0.4,2.5,0.5
	c0.4,0.1,0.9,0.3,1.3,0.4c0.9,0.2,1.8,0.5,2.6,0.8c0.4,0.1,0.9,0.3,1.3,0.4c0.8,0.3,1.6,0.6,2.4,0.9c0.7,0.4,1.5,0.7,2.3,1
	c0.3,0.2,0.7,0.4,1,0.5c0.6,0.3,1.1,0.6,1.6,1c0.2,0.1,0.4,0.3,0.6,0.4c0.2,0.1,0.3,0.3,0.5,0.4c0.1,0.1,0.2,0.2,0.3,0.3
	c0.1,0.3,0.1,1,0,1.3c0,0.1,0,0.2-0.1,0.3c-0.1,0.3-0.1,0.7-0.2,1c-0.1,0.2-0.1,0.3-0.2,0.5c-0.1,0.2-0.1,0.4-0.2,0.6
	c-0.1,0.2-0.1,0.5-0.2,0.7c-0.1,0.2-0.2,0.5-0.2,0.7c-0.1,0.2-0.2,0.5-0.3,0.7c-0.1,0.3-0.1,0.6-0.2,0.8c-0.2,0.6-0.4,1.2-0.7,1.7
	c-0.3,0.6-0.6,1.2-0.8,1.8c-0.2,0.3-0.3,0.6-0.4,1c-0.2,0.3-0.3,0.6-0.5,1c-0.6,1-0.9,2.1-1.5,3.1c-0.2,0.4-0.4,0.7-0.6,1
	c-0.2,0.4-0.4,0.7-0.6,1c-0.6,1.1-1.3,2.2-2,3.3c-0.2,0.4-0.5,0.8-0.7,1.1c-0.2,0.3-0.5,0.7-0.7,1.1c-0.2,0.4-0.5,0.7-0.7,1.1
	c-0.3,0.4-0.5,0.7-0.8,1c-0.3,0.4-0.5,0.8-0.8,1.1c-0.5,0.8-1.1,1.5-1.7,2.3c-0.3,0.4-0.6,0.7-0.9,1c-0.3,0.3-0.6,0.7-0.9,1
	c-0.9,1.1-1.9,2.2-2.9,3.1c-0.7,0.7-1.4,1.4-2.1,2c-0.4,0.4-0.7,0.7-1.1,1c-0.4,0.3-0.8,0.7-1.1,1c-0.4,0.3-0.8,0.6-1.1,0.9
	c-0.4,0.4-0.8,0.7-1.1,0.9c-0.7,0.2-1.1,0.5-1.2,0.9c-0.1,0.2,0.3,0.4,1,0.5c0.3,0.1,0.6,0.3,0.9,0.6c1,0.7,2,1.4,2.9,2.2
	c0.3,0.2,0.7,0.5,1,0.8c0.9,0.8,1.9,1.6,2.8,2.5c0.3,0.3,0.7,0.6,1,1c0.6,0.7,1.2,1.3,1.9,1.9c0.3,0.3,0.6,0.7,0.9,1
	c0.3,0.3,0.6,0.6,0.9,1c0.3,0.3,0.6,0.7,0.9,1c0.6,0.7,1.2,1.4,1.7,2.2c0.6,0.7,1.2,1.4,1.7,2.2c0.3,0.3,0.5,0.7,0.8,1
	c0.5,0.8,1.1,1.5,1.6,2.3c0.8,1.1,1.5,2.3,2.3,3.3c0.2,0.4,0.5,0.7,0.7,1.1c0.2,0.3,0.4,0.7,0.7,1c0.3,0.4,0.5,0.7,0.7,1
	c0.4,0.7,0.8,1.5,1.3,2.2c0.2,0.3,0.4,0.7,0.6,1c0.2,0.3,0.4,0.6,0.6,1c0.2,0.3,0.4,0.7,0.6,1c0.2,0.3,0.4,0.7,0.6,1
	c0.3,0.6,0.7,1.3,1,1.9c0.2,0.3,0.3,0.6,0.4,0.9c0.2,0.2,0.3,0.5,0.5,0.8c0.1,0.3,0.2,0.6,0.3,0.8c0.4,0.7,0.7,1.5,1.1,2.2
	c0.1,0.2,0.1,0.4,0.2,0.6c0.1,0.2,0.1,0.4,0.2,0.6c0.1,0.3,0.2,0.7,0.3,1c0.1,0.1,0.1,0.2,0.1,0.4c0.1,0.1,0.1,0.3,0.1,0.4
	c0.2,0.2,0.1,0.8-0.1,1c-0.1,0.2-0.1,0.3-0.2,0.5c-0.2,0.2-0.3,0.4-0.5,0.6c-0.4,0.5-0.8,0.9-1.3,1.2c-0.3,0.2-0.5,0.5-0.8,0.7
	c-0.3,0.2-0.7,0.4-1,0.6c-0.3,0.2-0.7,0.5-1.1,0.7c-0.3,0.2-0.7,0.5-1.1,0.7c-0.7,0.6-1.5,1.1-2.4,1.5c-1.2,0.6-2.4,1.4-3.7,1.9
	c-1.4,0.8-3.1,1.6-4.6,2.1c-0.6,0.3-1.2,0.6-1.9,0.8c-0.5,0.1-1,0.2-1.5,0.3c-0.2,0.1-0.9,0.2-1.1,0c-0.2-0.1-0.3-0.2-0.4-0.3
	c-0.2-0.2-0.3-0.4-0.4-0.6c-0.1-0.2-0.2-0.3-0.2-0.4c-0.1-0.2-0.2-0.3-0.2-0.5c-0.1-0.2-0.2-0.3-0.2-0.5c-0.1-0.2-0.2-0.3-0.2-0.5
	c-0.1-0.2-0.2-0.5-0.3-0.7c-0.1-0.5-0.3-1-0.6-1.4c-0.1-0.3-0.2-0.6-0.3-0.8c-0.3-0.9-0.7-1.7-1-2.6c-0.3-0.6-0.5-1.3-0.8-1.9
	c-0.1-0.3-0.2-0.7-0.4-1c-0.7-2.2-1.8-4.6-2.9-6.6c-0.2-0.4-0.4-0.8-0.6-1.2c-0.4-0.8-0.8-1.6-1.1-2.4c-0.4-0.8-0.9-1.6-1.3-2.4
	c-0.5-0.8-1-1.6-1.5-2.4c-0.9-1.7-2-3.5-3.2-5c-0.3-0.4-0.5-0.8-0.8-1.1c-0.3-0.4-0.6-0.8-0.9-1.2c-1-1.2-1.9-2.5-2.9-3.6
	c-0.3-0.3-0.7-0.7-1-1.1c-0.4-0.4-0.8-0.8-1.1-1c-0.4-0.3-0.7-0.7-1.1-1.1c-0.4-0.5-0.8-0.9-1.1-1c-0.2-0.1-0.2,0.2,0,0.9
	c0.1,0.3,0.1,0.6,0.1,0.9c0,0.3,0,0.7,0,1c0.1,0.4,0.1,0.7,0.1,1.1c0.1,0.8,0.1,1.5,0.2,2.3c0,0.4,0,0.8,0.1,1.2
	c0,0.4,0,0.8,0.1,1.2c0.1,0.9,0.1,1.8,0.2,2.7c0.1,0.5,0.1,0.9,0.1,1.3c0.1,0.5,0.1,0.9,0.2,1.4c0,0.5,0,1,0.1,1.5
	c0.1,0.9,0.1,1.9,0.2,2.8c0.1,0.5,0.1,1,0.1,1.5c0.1,0.5,0.1,0.9,0.2,1.4c0,0.5,0,1,0.1,1.5c0.1,0.9,0.1,1.9,0.2,2.8
	c0.1,0.5,0.1,0.9,0.1,1.4c0.1,0.5,0.1,0.9,0.1,1.3c0.1,0.5,0.1,0.9,0.1,1.3c0.1,0.8,0.1,1.7,0.2,2.5c0,0.4,0,0.8,0,1.1
	c0.1,0.7,0.1,1.5,0.1,2.2c0.2,1.3,0.4,3.5,0,4.8c0,0.3,0,0.6-0.1,0.9c0,0.1,0,0.1-0.1,0.3c0,0.1,0,0.1-0.1,0.1
	c-0.1,0.1-0.2,0.2-0.3,0.2c-0.2,0.1-0.3,0.2-0.5,0.2c-0.5,0.1-1.1,0.3-1.6,0.3c-0.7,0.1-1.4,0.1-2.1,0.2c-0.4,0.1-0.8,0.1-1.2,0.1
	c-0.9,0.1-1.8,0.1-2.8,0.2c-2.9,0-5.7,0-8.6,0c-0.8-0.1-1.6-0.1-2.4-0.2c-0.4,0-0.8,0-1.1-0.1c-0.3,0-0.6,0-0.9-0.1
	c-0.3,0-0.5,0-0.8-0.1c-0.2-0.1-0.4-0.1-0.6-0.1c-0.2-0.1-0.3-0.1-0.4-0.2c-0.1,0-0.1-0.1-0.2-0.2h-0.1c0-0.2,0-0.4,0-0.6
	c-0.2-0.4-0.1-0.8-0.1-1.2c-0.2-0.5,0-1.1-0.2-1.7c0-0.5,0-0.9-0.1-1.4c0-0.5,0-1,0-1.6c-0.1-0.6-0.1-1.2-0.1-1.8
	c-0.1-0.6-0.1-1.3-0.1-1.9c-0.1-0.7-0.1-1.5-0.2-2.2c0-0.8,0-1.5-0.1-2.3c0-0.8,0-1.6-0.1-2.4c0-0.4,0-0.8,0-1.2
	c-0.1-0.9-0.1-1.7-0.1-2.6c-0.1-0.9-0.1-1.8-0.2-2.7c0-1,0-1.9-0.1-2.9c0-0.5,0-1,0-1.5c-0.1-1-0.1-1.9-0.1-2.9
	c-0.1-1-0.1-2-0.2-3.1c0-1.1,0-2.1-0.1-3.1c0-1.1,0-2.1-0.1-3.1c0-1.1,0-2.1-0.1-3.1c0-0.5,0-1,0-1.6c-0.2-1.6,0-3.2-0.2-4.8
	c0-1.1,0-2.2-0.1-3.2c0-1.1,0-2.2,0-3.2c-0.2-1.6,0-3.2-0.2-4.7c0-1.6,0-3.1,0-4.7c-0.2-2-0.1-4-0.1-5.9c-0.5-5.1-0.8-11.7,0-16.8
	c0-1,0-2,0-3.1c0.2-0.9,0-1.8,0.2-2.6c0-0.5,0-1,0-1.5c0-0.4,0.1-0.9,0.2-1.3c0-0.2,0-0.4,0-0.6c0-0.3,0.1-0.6,0.2-1
	c0-0.1,0-0.3,0-0.4c0.1-0.1,0.1-0.2,0.1-0.4c0-0.2,0.1-0.3,0.2-0.4c0-0.1,0-0.1,0.1-0.2C260.2,389.6,260.4,389.4,260.6,389.2
	C260.8,389,260.4,389.4,260.6,389.2z"/>
<path fill="#020202" d="M332,488.8L332,488.8c0-0.3-0.1-0.9,0.1-1c0-0.2,0-0.3,0.1-0.4c0-0.1,0-0.3,0-0.4c0.1-0.2,0.1-0.3,0.2-0.5
	c0.1-0.4,0.1-0.8,0.2-1.1c0.4-1.2,0.6-2.4,0.8-3.7c0.2-0.6,0.3-1.2,0.5-1.7c0.1-0.3,0.1-0.6,0.2-1c0.1-0.3,0.2-0.6,0.2-1
	c0.1-0.4,0.2-0.7,0.2-1c0.1-0.4,0.2-0.7,0.3-1c0.2-0.7,0.3-1.5,0.5-2.2c0.2-0.8,0.4-1.6,0.7-2.4c0.3-2.1,1.1-4.3,1.5-6.4
	c0.5-1.3,0.7-2.7,1.1-4.1c0.3-0.9,0.5-1.9,0.8-2.8c0.1-0.5,0.2-1,0.3-1.5c0.3-1,0.5-1.9,0.8-2.9c0.1-0.5,0.2-1,0.3-1.5
	c0.2-0.5,0.3-1,0.4-1.6c0.2-0.5,0.3-1,0.4-1.5c0.2-0.5,0.3-1,0.4-1.5c0.2-0.5,0.3-1,0.4-1.6c0.2-0.5,0.3-1,0.4-1.5
	c0.2-0.5,0.3-1,0.4-1.6c0.2-0.5,0.3-1,0.4-1.5c0.2-0.5,0.3-1,0.4-1.6c0.2-0.5,0.3-1,0.4-1.5c0.2-0.5,0.3-1,0.4-1.6
	c0.2-0.5,0.3-1,0.4-1.6c0.2-0.5,0.3-1,0.5-1.5c0.1-0.5,0.2-1,0.4-1.6c0.1-0.5,0.2-1,0.4-1.5c0.1-0.5,0.2-1,0.4-1.6
	c0.1-0.5,0.2-1,0.4-1.5c0.1-0.5,0.2-1,0.4-1.5c0.1-0.5,0.2-1,0.4-1.5c0.1-0.5,0.2-1,0.4-1.5c0.1-0.5,0.2-1,0.4-1.5
	c0.1-0.5,0.2-1,0.4-1.5c0.1-0.5,0.2-0.9,0.3-1.4c0.2-0.5,0.3-0.9,0.4-1.4c0.3-0.9,0.5-1.9,0.8-2.8c0.1-0.5,0.2-0.9,0.3-1.4
	c0.3-0.9,0.5-1.7,0.7-2.6c0.6-1.6,0.8-3.4,1.5-5c0.3-1.2,0.7-2.3,1-3.5c0.2-1.1,0.6-2.1,0.8-3.1c0.2-0.6,0.4-1.2,0.6-1.8
	c0.1-0.4,0.2-0.7,0.2-1c0.1-0.3,0.2-0.6,0.2-0.8c0.1-0.3,0.2-0.6,0.2-0.9c0.2-0.5,0.3-1,0.5-1.5c0.1-0.4,0.2-0.8,0.4-1.2
	c0.1-0.5,0.3-1.1,0.5-1.6c0-0.3,0.1-0.5,0.2-0.8c0-0.1,0-0.2,0.1-0.4c0.1-0.1,0.1-0.1,0.1-0.3c0.1-0.1,0.1-0.2,0.2-0.4v-0.1
	c0.1-0.1,0.2-0.1,0.3-0.2c0.2-0.1,0.3-0.1,0.5-0.2c0.2-0.1,0.5-0.1,0.7-0.1c0.3-0.1,0.5-0.1,0.8-0.2c0.4,0,0.7,0,1.1-0.1
	c0.4,0,0.8,0,1.1-0.1c0.4,0,0.9,0,1.3-0.1c0.9,0,1.8,0,2.8-0.1c1.4,0,2.9,0,4.3,0c1.4,0.2,2.7,0,4.1,0.2c0.4,0,0.8,0,1.1,0.1
	c0.4,0,0.7,0,1.1,0c0.3,0.1,0.6,0.1,0.9,0.1c0.3,0.1,0.5,0.1,0.7,0.1c0.2,0.1,0.4,0.1,0.6,0.2c0.1,0,0.2,0,0.3,0.1v0.1
	c0.1,0,0.1,0,0.1,0.1c0.1,0.1,0.1,0.1,0.1,0.2c0.1,0.1,0.1,0.1,0.1,0.3c0.1,0.1,0.1,0.2,0.2,0.3c0,0.1,0,0.2,0.1,0.4
	c0.1,0.2,0.1,0.3,0.2,0.4c0.2,0.5,0.3,1.1,0.5,1.6c0.1,0.2,0.1,0.4,0.2,0.6c0.2,0.5,0.3,0.9,0.5,1.4c0.1,0.3,0.1,0.6,0.2,0.8
	c0.1,0.3,0.2,0.6,0.2,0.9c0.1,0.3,0.2,0.6,0.2,0.9c0.1,0.3,0.2,0.6,0.3,0.9c0.2,0.6,0.3,1.3,0.5,1.9c0.3,1.1,0.7,2.1,0.9,3.2
	c0.5,1.6,0.9,3.1,1.3,4.7c0.5,1.2,0.7,2.6,1.1,3.8c0.3,0.9,0.5,1.8,0.7,2.7c0.3,0.9,0.5,1.9,0.8,2.8c0.1,0.5,0.2,1,0.3,1.5
	c0.2,0.5,0.3,0.9,0.4,1.4c0.3,1,0.5,2,0.8,3c0.1,0.5,0.2,1,0.4,1.5c0.1,0.5,0.2,1,0.4,1.5c0.1,0.5,0.2,1,0.4,1.6
	c0.1,0.5,0.2,1,0.4,1.5c0.1,0.5,0.2,1,0.3,1.6c0.2,0.5,0.3,1,0.4,1.5c0.2,0.5,0.3,1,0.5,1.6c0.1,0.5,0.2,1,0.4,1.6
	c0.1,0.5,0.2,1,0.4,1.6c0.1,0.5,0.2,1,0.4,1.6c0.1,0.5,0.2,1,0.4,1.6c0.1,0.5,0.2,1,0.4,1.6c0.1,0.5,0.2,1,0.4,1.6
	c0.1,0.5,0.2,1,0.4,1.5c0.1,0.5,0.2,1,0.3,1.6c0.2,0.5,0.3,1,0.4,1.6c0.2,0.5,0.3,1,0.4,1.6c0.2,0.5,0.3,1,0.4,1.5
	c0.3,1,0.5,2,0.8,3.1c0.1,0.5,0.2,1,0.3,1.5c0.3,1,0.5,2,0.8,3c0.2,1,0.4,1.9,0.7,2.9c0.2,0.9,0.4,1.9,0.7,2.8
	c0.9,2.4,1.6,5.3,2,7.9c0.2,0.8,0.4,1.6,0.7,2.4c0.1,0.8,0.3,1.5,0.6,2.3c0.1,0.3,0.1,0.7,0.2,1c0.1,0.4,0.1,0.7,0.2,1
	c0.1,0.4,0.1,0.7,0.2,1c0.1,0.3,0.1,0.7,0.2,1c0.1,0.6,0.2,1.2,0.4,1.8c0.2,1.3,0.5,2.5,0.8,3.8c0.1,0.2,0.1,0.3,0.2,0.5
	c0,0.4,0.1,0.7,0.2,1c0.1,0.2,0.1,0.3,0.1,0.4c0,0.2,0.1,0.5,0.2,0.7c0,0.2-0.1,0.5,0.1,0.7h-0.1c-0.1,0.1-0.1,0.2-0.2,0.3
	c-0.1,0.1-0.2,0.1-0.4,0.2c-0.2,0.1-0.4,0.1-0.6,0.1c-0.3,0.1-0.5,0.1-0.8,0.2c-0.3,0-0.6,0-0.9,0.1c-0.4,0.1-0.7,0.1-1.1,0.1
	c-0.8,0.1-1.6,0.1-2.4,0.2c-2.8,0-5.7,0-8.5,0c-0.9-0.1-1.8-0.1-2.8-0.2c-0.4,0-0.9,0-1.3,0c-0.4-0.1-0.8-0.1-1.2-0.1
	c-0.3-0.1-0.7-0.1-1.1-0.1c-0.3-0.1-0.6-0.1-0.9-0.2c-0.5,0-1-0.1-1.5-0.3c-0.4,0-0.6-0.2-0.8-0.4c-0.1-0.2-0.1-0.3-0.2-0.4
	c-0.1-0.2-0.1-0.4-0.2-0.6c-0.2-0.5-0.3-1.1-0.5-1.7c-0.2-0.8-0.4-1.5-0.6-2.3c-0.7-5.4-2.9-10.7-3.4-16.2c-0.2-0.9-0.4-1.7-0.6-2.6
	c-0.1-0.4-0.2-0.8-0.2-1.2c-0.3-1-0.3-2-0.7-3c0-0.2,0-0.5-0.1-0.7c-0.1-0.2-0.1-0.3-0.2-0.4c0-0.2,0-0.4-0.1-0.5
	c-0.1,0-0.2,0-0.4-0.1c-0.2,0-0.4,0-0.7-0.1c-0.7-0.1-1.5-0.1-2.2-0.2c-0.4,0-0.9,0-1.3,0c-1.8-0.2-3.8-0.2-5.6,0
	c-0.7,0-1.5,0.1-2.2,0.3c-0.2,0.1-0.5,0.1-0.7,0.3c-0.2,0.1-0.3,0.1-0.4,0.3v0.1c-0.1,0.1-0.1,0.2-0.1,0.3c-0.1,0.2-0.1,0.3-0.1,0.5
	c-0.2,0.9-0.3,1.8-0.6,2.6c-0.1,0.3-0.1,0.7-0.2,1.1c-0.1,0.4-0.2,0.8-0.2,1.2c-0.1,0.5-0.2,0.9-0.3,1.4c-0.5,4.1-1.7,8.3-2.5,12.3
	c-0.2,1.8-0.9,3.6-1.1,5.4c-0.1,0.4-0.2,0.8-0.3,1.1c-0.1,0.3-0.1,0.7-0.2,1c-0.1,0.3-0.1,0.6-0.2,0.8c-0.1,0.2-0.2,0.5-0.2,0.7
	c-0.1,0.2-0.1,0.3-0.2,0.4c0,0.1,0,0.2-0.1,0.3c-0.1,0.1-0.2,0.2-0.2,0.2c-0.2,0.1-0.3,0.1-0.5,0.2c-1.2,0.3-2.4,0.6-3.6,0.6
	c-0.4,0.1-0.8,0.1-1.2,0.2c-0.9,0.1-1.8,0.1-2.7,0.2c-0.4,0.1-0.9,0.1-1.4,0.1c-1.5,0.2-2.9,0-4.4,0.2c-0.9,0-1.8,0-2.8-0.1
	c-0.4,0-0.9,0-1.3,0c-0.4-0.1-0.8-0.1-1.2-0.1c-0.4-0.1-0.8-0.1-1.1-0.1c-0.3-0.1-0.6-0.1-0.9-0.2c-0.5,0-1-0.1-1.5-0.4
	c-0.2-0.1-0.3-0.1-0.5-0.2C332.1,489,332,488.9,332,488.8z M373.8,448.7c0.1-0.1,0-0.3-0.1-0.5c-0.1-0.2-0.1-0.3-0.1-0.5
	c-0.1-0.5-0.2-0.9-0.3-1.4c0-1.1-0.4-2.4-0.6-3.5c-0.3-1-0.4-2.1-0.6-3.1c-0.2-0.8-0.3-1.5-0.5-2.3c-0.1-0.8-0.2-1.6-0.4-2.4
	c-0.1-0.4-0.1-0.8-0.2-1.2c-0.2-0.8-0.3-1.7-0.5-2.5c-0.1-0.5-0.1-0.9-0.2-1.3c-0.2-0.9-0.3-1.7-0.4-2.6c-0.3-1.3-0.3-2.6-0.7-3.8
	c-0.1-0.5-0.1-0.9-0.2-1.3c-0.2-0.4-0.2-0.8-0.2-1.3c-0.1-1.6-0.2-1.6-0.3,0c0,0.4-0.1,0.8-0.2,1.3c-0.1,0.4-0.2,0.8-0.2,1.3
	c0,1.3-0.4,2.8-0.7,4c-0.1,0.5-0.1,0.9-0.2,1.4c-0.1,0.4-0.1,0.8-0.2,1.3c-0.1,0.5-0.1,0.9-0.2,1.4c-0.1,0.4-0.1,0.8-0.2,1.3
	c-0.1,0.5-0.1,0.9-0.2,1.3c-0.1,0.5-0.1,0.9-0.2,1.3c-0.1,0.4-0.1,0.8-0.2,1.3c-0.1,0.4-0.1,0.8-0.2,1.2c-0.2,0.8-0.3,1.6-0.5,2.4
	c-0.1,0.4-0.1,0.8-0.2,1.1c-0.3,1-0.3,2.1-0.7,3.1c-0.1,0.6-0.2,1.2-0.3,1.7c0,0.7-0.2,1.8-0.4,2.5c-0.4,0.8,0.8,0.5,1.2,0.6
	c0.4,0,0.8,0,1.1,0c0.9-0.1,1.7-0.1,2.6-0.1c0.5-0.1,0.9-0.1,1.4-0.1c0.4-0.1,0.9-0.1,1.3-0.2c0.3,0,0.7,0,1.1-0.1
	C372.9,449,373.4,448.9,373.8,448.7C373.9,448.6,373.7,448.8,373.8,448.7z"/>
</svg>
