<?xml version="1.0" encoding="utf-8"?>
<!-- Generator: Adobe Illustrator 18.0.0, SVG Export Plug-In . SVG Version: 6.00 Build 0)  -->
<!DOCTYPE svg PUBLIC "-//W3C//DTD SVG 1.0//EN" "http://www.w3.org/TR/2001/REC-SVG-20010904/DTD/svg10.dtd">
<svg version="1.0" id="Camada_1" xmlns="http://www.w3.org/2000/svg" xmlns:xlink="http://www.w3.org/1999/xlink" x="0px" y="0px"
	 viewBox="120 314 564 222" enable-background="new 120 314 564 222" xml:space="preserve">
<g>
	<g>
		<path fill="#1B7C09" d="M140.7,388.2c0.2-0.1,0.3-0.1,0.5-0.2c1.1-0.3,2.4-0.6,3.6-0.6c0.4-0.1,0.8-0.1,1.2-0.1
			c0.4-0.1,0.9-0.1,1.3-0.1c0.9-0.1,1.8-0.1,2.8-0.1c1.4-0.2,2.9-0.2,4.3,0c0.9,0,1.8,0,2.8,0.1c0.4,0,0.8,0,1.2,0.1
			c0.4,0,0.8,0,1.2,0.1c0.7,0,1.3,0.1,2,0.3c0.2,0,0.5,0,0.7,0.1c0.2,0.1,0.4,0.1,0.6,0.2c0.1,0.1,0.2,0.1,0.4,0.3
			c0.1,0,0.1,0.1,0.1,0.2c0.1,0.1,0.1,0.1,0.2,0.3c0.1,0.2,0.2,0.3,0.2,0.4c0.1,0.2,0.1,0.4,0.2,0.6c0.1,0.5,0.2,1.1,0.4,1.6
			c0.1,0.6,0.2,1.3,0.4,1.9c0.1,0.3,0.1,0.7,0.2,1.1c0.1,0.4,0.2,0.7,0.2,1.1c0.2,0.9,0.3,1.7,0.5,2.6c0.1,0.5,0.1,0.9,0.2,1.4
			c0.1,0.5,0.1,1,0.2,1.5c0.1,0.5,0.1,1,0.2,1.5c0.1,0.5,0.2,1,0.2,1.5c0.1,0.5,0.2,1,0.2,1.6c0.1,0.5,0.2,1.1,0.2,1.7
			c0.1,0.5,0.2,1,0.2,1.6c0.2,1.1,0.3,2.2,0.5,3.2c0.1,0.5,0.1,1,0.2,1.6c0.1,0.5,0.1,1.1,0.2,1.7c0.2,1,0.3,2,0.4,3.1
			c0.3,1.4,0.3,2.9,0.7,4.4c0.2,1.7,0.4,3.4,0.7,5.1c0,0.7,0.1,1.3,0.2,2c0,0.7,0.1,1.5,0.2,2.2c0,0.2,0,0.3,0.1,0.5
			c0,0.1,0,0.2,0,0.3c0.1,0.1,0.1,0.1,0.1,0.2v0.1v-0.1c0-0.1,0-0.1,0.1-0.2c0-0.1,0-0.2,0.1-0.3c0.1-0.2,0.1-0.3,0.2-0.4
			c0.1-0.2,0.1-0.4,0.2-0.6c0.1-0.2,0.1-0.5,0.2-0.7c0.1-0.3,0.1-0.6,0.2-0.8c0.1-0.4,0.2-0.7,0.2-1c0.4-1.1,0.6-2.2,1.1-3.2
			c0.1-0.4,0.2-0.8,0.3-1.2c0.2-0.4,0.3-0.8,0.4-1.2c0.2-0.5,0.3-0.9,0.5-1.3c0.2-0.9,0.5-1.9,0.9-2.8c1.4-6.9,4.9-13.2,6.8-19.9
			c0.2-0.3,0.3-0.7,0.5-1.1c0.1-0.3,0.2-0.7,0.4-1c0.2-0.6,0.5-1.2,0.8-1.8c0.1-0.2,0.2-0.5,0.3-0.8c0.1-0.2,0.2-0.4,0.3-0.6
			c0.1-0.2,0.2-0.4,0.3-0.6c0.1-0.1,0.2-0.3,0.2-0.4c0.1,0,0.5-0.6,0.7-0.4c0.1,0,0.1,0,0.2,0.1c0.1,0.1,0.2,0.1,0.2,0.3
			c0.1,0.1,0.2,0.2,0.2,0.3c0.1,0.2,0.2,0.4,0.2,0.6c0.4,0.7,0.6,1.5,1.1,2.3c0.1,0.3,0.2,0.6,0.3,1c0.2,0.4,0.3,0.7,0.4,1
			c0.2,0.4,0.3,0.7,0.4,1.1c0.2,0.4,0.3,0.8,0.4,1.2c0.4,0.8,0.7,1.7,0.9,2.6c1,3,2,5.9,2.9,8.9c0.6,2.6,1.7,5,2.3,7.6
			c0.2,0.5,0.3,1,0.5,1.5c0.1,0.5,0.2,0.9,0.4,1.4c0.1,0.5,0.2,0.9,0.4,1.4c0.1,0.5,0.2,0.9,0.4,1.4c0.1,0.4,0.2,0.8,0.3,1.2
			c0.4,1,0.8,2.2,1,3.3c0.1,0.3,0.2,0.7,0.3,1c0.1,0.3,0.1,0.6,0.2,0.9c0.1,0.5,0.2,0.9,0.4,1.3c0,0.2,0,0.4,0.1,0.5
			c0.1,0.1,0.1,0.2,0.2,0.3c0,0.1,0,0.2,0.1,0.3v-0.1c0-0.2,0-0.4,0.1-0.5c0-0.2,0-0.4,0-0.5c0.1-0.2,0.1-0.4,0.1-0.6
			c0.1-0.2,0.1-0.5,0.2-0.7c0-0.3,0-0.6,0.1-0.8c0.1-0.4,0.1-0.7,0.2-1c0-1.9,0.4-4.1,0.8-5.9c0.1-0.9,0.2-1.9,0.3-2.8
			c0.2-1,0.3-2,0.5-3.1c0.1-0.5,0.1-1,0.2-1.6c0.1-0.5,0.2-1,0.2-1.6c0.1-0.5,0.2-1,0.2-1.6c0.2-1.1,0.3-2.2,0.5-3.2
			c0.1-0.5,0.1-1,0.2-1.6c0.1-0.5,0.1-1,0.2-1.6c0.1-0.5,0.1-1,0.2-1.6c0.1-0.5,0.1-1,0.2-1.6c0.1-0.5,0.1-1,0.2-1.5
			c0.1-0.5,0.1-1,0.2-1.5c0.1-0.5,0.1-1,0.2-1.5c0.1-0.5,0.1-0.9,0.2-1.3c0.1-0.5,0.1-0.9,0.2-1.3c0.1-0.8,0.3-1.6,0.5-2.4
			c0.1-0.3,0.1-0.7,0.2-1c0.3-0.9,0.3-1.9,0.7-2.7c0.1-0.4,0.2-0.9,0.3-1.3c0.1-0.1,0.1-0.3,0.2-0.4c0-0.1,0-0.2,0.1-0.3
			c0.1-0.1,0.1-0.2,0.2-0.2c0.1-0.1,0.2-0.2,0.3-0.3c0.2-0.1,0.4-0.1,0.6-0.2c0.9-0.2,1.9-0.4,2.8-0.5c0.8-0.1,1.6-0.1,2.4-0.2
			c0.5-0.1,0.9-0.1,1.4-0.1c0.5-0.1,1-0.1,1.5-0.1c1-0.1,2-0.1,2.9-0.2c1.4,0,2.8,0,4.2,0c0.8,0.1,1.6,0.1,2.4,0.2
			c0.3,0,0.7,0,1.1,0.1c0.5,0,1,0.1,1.5,0.3c0.2,0,0.3,0.1,0.5,0.2c0.1,0,0.1,0.1,0.2,0.2v0.1c0,0.1,0,0.1,0.1,0.1
			c0,1.1,0,2.3,0,3.4c-0.2,0.7-0.1,1.5-0.1,2.2c-0.1,0.6-0.1,1.1-0.1,1.7c-0.1,0.6-0.1,1.2-0.1,1.8c-0.1,0.7-0.1,1.4-0.2,2.1
			c0,0.3,0,0.7,0,1c-0.1,0.4-0.1,0.8-0.1,1.1c-0.1,0.8-0.1,1.6-0.2,2.4c0,0.4,0,0.8-0.1,1.2c0,0.4,0,0.8-0.1,1.2
			c0,0.5,0,0.9-0.1,1.3c0,0.4,0,0.8-0.1,1.3c0,0.5,0,0.9-0.1,1.3c0,0.5,0,0.9-0.1,1.4c0,0.5,0,0.9-0.1,1.4c-0.1,1-0.1,1.9-0.2,2.9
			c-0.1,0.5-0.1,1-0.1,1.5c-0.1,0.5-0.1,1-0.2,1.5c0,0.5,0,1-0.1,1.5c-0.1,1-0.1,2-0.2,3.1c-0.1,0.5-0.1,1-0.2,1.6
			c-0.1,1-0.1,2-0.2,3.1c-0.1,0.5-0.1,1.1-0.2,1.7c-0.1,1-0.1,2.1-0.2,3.1c-0.1,1.1-0.2,2.2-0.2,3.2c-0.1,1-0.2,2.1-0.2,3.1
			c-0.1,0.6-0.1,1.1-0.2,1.7c0,1.1-0.1,2.1-0.2,3.1c0,1.1-0.1,2.2-0.2,3.2c0,1.1-0.1,2.1-0.2,3.1c0,1-0.1,2-0.2,3.1
			c0,1-0.1,2-0.2,3.1c0,1-0.1,2-0.2,3.1c0,1-0.1,1.9-0.2,2.9c0,0.9-0.1,1.9-0.2,2.8c-0.1,0.9-0.1,1.8-0.2,2.7
			c-0.1,0.5-0.1,0.9-0.2,1.3c0,0.9-0.1,1.8-0.2,2.6c0,0.8-0.1,1.6-0.2,2.4c-0.1,0.4-0.1,0.8-0.2,1.1c-0.1,0.8-0.1,1.5-0.2,2.3
			c-0.1,0.3-0.1,0.7-0.1,1c-0.1,0.3-0.1,0.6-0.2,1c0,0.3,0,0.6-0.1,1c-0.1,0.6-0.1,1.2-0.2,1.8c-0.1,0.3-0.1,0.6-0.1,0.9
			c-0.1,0.2-0.1,0.5-0.1,0.8c-0.1,0.2-0.1,0.5-0.1,0.7c-0.1,0.2-0.1,0.4-0.1,0.6c-0.1,0.2-0.1,0.5-0.1,0.7c-0.1,0.2-0.1,0.3-0.1,0.5
			c-0.1,0.2-0.1,0.3-0.1,0.5c-0.1,0.1-0.1,0.3-0.1,0.4c0,0.2-0.1,0.5-0.2,0.7c0,0.1,0,0.2,0,0.3c-0.1,0.1-0.1,0.2-0.2,0.3v0.1
			c-0.1,0.1-0.2,0.1-0.3,0.1c-0.1,0.1-0.2,0.1-0.4,0.2c-0.2,0.1-0.4,0.1-0.7,0.1c-0.3,0.1-0.5,0.1-0.7,0.1c-0.3,0.1-0.7,0.1-1,0.1
			c-0.7,0.1-1.5,0.1-2.2,0.2c-0.4,0-0.8,0-1.2,0c-4.5,0.5-9.9,0.5-14.4,0c-1.2,0-2.3,0-3.5,0c-1.1-0.2-2.2-0.1-3.3-0.1h-0.1
			c-0.1-0.2-0.2-0.4-0.3-0.6c-0.2-0.4-0.3-0.7-0.5-1.1c-0.1-0.3-0.1-0.6-0.2-0.8c-0.1-0.3-0.2-0.6-0.2-0.9c-0.1-0.3-0.2-0.7-0.3-1
			c-0.2-0.8-0.3-1.5-0.5-2.3c-0.2-0.9-0.4-1.7-0.6-2.6c-0.2-1-0.4-2-0.7-3c-0.2-1.6-0.6-3.1-0.9-4.6c-0.2-1.6-0.7-3.1-0.8-4.7
			c-0.2-1-0.4-2.1-0.6-3.1c-0.1-0.5-0.2-1-0.3-1.6c-0.1-0.5-0.1-1-0.2-1.5c-0.1-0.5-0.1-0.9-0.2-1.4c-0.1-0.5-0.1-0.9-0.2-1.4
			c-0.1-0.4-0.1-0.8-0.2-1.3c-0.1-0.8-0.2-1.6-0.4-2.4c-0.1-0.6-0.2-1.3-0.3-1.9c0-0.3,0-0.6-0.1-0.9c-0.1-0.2-0.1-0.4-0.2-0.6
			c0-0.2,0-0.4-0.1-0.6c0-0.1,0-0.2-0.1-0.4c0-0.1,0-0.2,0-0.3v-0.1v0.1c0,0.1,0,0.1-0.1,0.3c0,0.1,0,0.3-0.1,0.4
			c0,0.2,0,0.3-0.1,0.5c-0.1,0.2-0.1,0.5-0.1,0.8c-0.4,1.7-0.6,3.6-0.8,5.3c-0.1,0.4-0.2,0.8-0.2,1.3c-0.2,1-0.3,1.9-0.5,2.9
			c-0.1,0.5-0.1,1-0.2,1.6c-0.2,1-0.3,2.1-0.5,3.1c-0.1,0.5-0.2,1.1-0.3,1.7c-0.2,1.1-0.3,2.2-0.5,3.2c-0.1,0.5-0.2,1-0.3,1.6
			c-0.2,1-0.3,2.1-0.5,3.1c-0.1,0.5-0.2,1-0.3,1.5c-0.2,1-0.3,1.9-0.5,2.9c-0.1,0.4-0.2,0.8-0.2,1.3c-0.1,0.4-0.2,0.8-0.2,1.2
			c-0.2,0.7-0.3,1.5-0.5,2.2c-0.1,0.3-0.1,0.6-0.2,0.9c-0.2,0.5-0.3,1-0.4,1.5c-0.1,0.2-0.1,0.3-0.2,0.5c-0.1,0.1-0.1,0.2-0.2,0.3
			c0,0.2-0.1,0.3-0.3,0.3c-0.2,0.1-0.3,0.1-0.4,0.2c-0.2,0-0.4,0-0.6,0.1c-0.2,0.1-0.5,0.1-0.7,0.1c-0.3,0.1-0.5,0.1-0.8,0.2
			c-0.3,0-0.7,0-1,0.1c-0.4,0-0.7,0-1.1,0.1c-0.4,0-0.8,0-1.2,0.1c-0.4,0-0.8,0-1.2,0.1c-0.4,0-0.9,0-1.3,0.1c-0.5,0-0.9,0-1.4,0
			c-0.5,0.1-1,0.1-1.5,0.1c-1.4,0.2-2.9,0-4.3,0.2c-2.3,0-4.6,0-6.8,0c-0.8-0.1-1.5-0.1-2.3-0.2c-0.3,0-0.7,0-1,0
			c-0.3-0.1-0.6-0.1-0.9-0.1c-0.2-0.1-0.5-0.1-0.7-0.1c-0.2-0.1-0.4-0.1-0.6-0.2c-0.1,0-0.2,0-0.4-0.1c-0.1-0.1-0.2-0.1-0.2-0.2
			c-0.1,0-0.1,0-0.1-0.1v-0.1c-0.1-0.1-0.1-0.2-0.1-0.3c-0.1-0.1-0.1-0.1-0.1-0.3c-0.1-0.3-0.1-0.5-0.2-0.8c0-0.1,0-0.3-0.1-0.4
			c0-0.2,0-0.3-0.1-0.5c0-0.2,0-0.4-0.1-0.5c-0.1-0.2-0.1-0.4-0.1-0.6c-0.1-0.2-0.1-0.5-0.1-0.7c-0.1-0.2-0.1-0.5-0.2-0.8
			c-0.1-0.5-0.1-1-0.2-1.6c-0.1-0.3-0.1-0.6-0.2-0.9c-0.1-0.6-0.1-1.3-0.2-1.9c-0.1-0.7-0.2-1.4-0.2-2.1c-0.1-0.7-0.2-1.5-0.3-2.2
			c0-1.2-0.3-2.4-0.4-3.6c0-1.8-0.5-3.5-0.5-5.3c-0.3-2.4-0.7-4.8-0.7-7.2c-0.3-3.1-0.7-6.2-1-9.3c0-3.7-1-7.5-1-11.2
			c-0.3-2.7-0.7-5.4-0.7-8c-0.2-1.6-0.3-3.2-0.5-4.8c0-1.6-0.3-3.1-0.3-4.6c-0.1-1-0.2-2-0.2-3.1c-0.1-1-0.2-1.9-0.2-2.9
			c-0.1-1-0.2-1.9-0.2-2.9c-0.1-0.5-0.1-0.9-0.2-1.4c-0.1-0.9-0.1-1.8-0.2-2.7c-0.1-0.5-0.1-0.9-0.1-1.3c-0.1-0.4-0.1-0.8-0.2-1.3
			c0-0.4,0-0.8-0.1-1.2c0-0.4,0-0.8-0.1-1.2c0-0.4,0-0.7-0.1-1.1c0-0.4,0-0.8-0.1-1.1c0-0.4,0-0.8-0.1-1.1c0-0.4,0-0.7-0.1-1
			c0-0.4,0-0.7,0-1c0-0.6-0.1-1.2-0.2-1.8c0-0.3,0-0.7,0-1c-0.1-0.5-0.1-1-0.1-1.6c-0.2-0.7-0.1-1.4-0.1-2.1
			c-0.2-0.8-0.1-1.8-0.1-2.6c0.1-0.1,0-0.4,0.2-0.4C140.5,388.3,140.6,388.2,140.7,388.2C140.9,388.1,140.6,388.2,140.7,388.2z"/>
		<path fill="#020202" d="M231.9,488.8L231.9,488.8c0-0.3-0.1-0.9,0.1-1c0-0.2,0-0.3,0.1-0.4c0-0.1,0-0.3,0-0.4
			c0.1-0.2,0.1-0.3,0.2-0.5c0.1-0.4,0.1-0.8,0.2-1.1c0.4-1.2,0.6-2.4,0.8-3.7c0.2-0.6,0.3-1.2,0.5-1.7c0.1-0.3,0.1-0.6,0.2-1
			c0.1-0.3,0.2-0.6,0.2-1c0.1-0.4,0.2-0.7,0.2-1c0.1-0.4,0.2-0.7,0.3-1c0.2-0.7,0.3-1.5,0.5-2.2c0.2-0.8,0.4-1.6,0.7-2.4
			c0.3-2.1,1.1-4.3,1.5-6.4c0.5-1.3,0.7-2.7,1.1-4.1c0.3-0.9,0.5-1.9,0.8-2.8c0.1-0.5,0.2-1,0.3-1.5c0.3-1,0.5-1.9,0.8-2.9
			c0.1-0.5,0.2-1,0.3-1.5c0.2-0.5,0.3-1,0.4-1.6c0.2-0.5,0.3-1,0.4-1.5c0.2-0.5,0.3-1,0.4-1.5c0.2-0.5,0.3-1,0.4-1.6
			c0.2-0.5,0.3-1,0.4-1.5c0.2-0.5,0.3-1,0.4-1.6c0.2-0.5,0.3-1,0.4-1.5c0.2-0.5,0.3-1,0.4-1.6c0.2-0.5,0.3-1,0.4-1.5
			c0.2-0.5,0.3-1,0.4-1.6c0.2-0.5,0.3-1,0.4-1.6c0.2-0.5,0.3-1,0.5-1.5c0.1-0.5,0.2-1,0.4-1.6c0.1-0.5,0.2-1,0.4-1.5
			c0.1-0.5,0.2-1,0.4-1.6c0.1-0.5,0.2-1,0.4-1.5c0.1-0.5,0.2-1,0.4-1.5c0.1-0.5,0.2-1,0.4-1.5c0.1-0.5,0.2-1,0.4-1.5
			c0.1-0.5,0.2-1,0.4-1.5c0.1-0.5,0.2-1,0.4-1.5c0.1-0.5,0.2-0.9,0.3-1.4c0.2-0.5,0.3-0.9,0.4-1.4c0.3-0.9,0.5-1.9,0.8-2.8
			c0.1-0.5,0.2-0.9,0.3-1.4c0.3-0.9,0.5-1.7,0.7-2.6c0.6-1.6,0.8-3.4,1.5-5c0.3-1.2,0.7-2.3,1-3.5c0.2-1.1,0.6-2.1,0.8-3.1
			c0.2-0.6,0.4-1.2,0.6-1.8c0.1-0.4,0.2-0.7,0.2-1c0.1-0.3,0.2-0.6,0.2-0.8c0.1-0.3,0.2-0.6,0.2-0.9c0.2-0.5,0.3-1,0.5-1.5
			c0.1-0.4,0.2-0.8,0.4-1.2c0.1-0.5,0.3-1.1,0.5-1.6c0-0.3,0.1-0.5,0.2-0.8c0-0.1,0-0.2,0.1-0.4c0.1-0.1,0.1-0.1,0.1-0.3
			c0.1-0.1,0.1-0.2,0.2-0.4v-0.1c0.1-0.1,0.2-0.1,0.3-0.2c0.2-0.1,0.3-0.1,0.5-0.2c0.2-0.1,0.5-0.1,0.7-0.1c0.3-0.1,0.5-0.1,0.8-0.2
			c0.4,0,0.7,0,1.1-0.1c0.4,0,0.8,0,1.1-0.1c0.4,0,0.9,0,1.3-0.1c0.9,0,1.8,0,2.8-0.1c1.4,0,2.9,0,4.3,0c1.4,0.2,2.7,0,4.1,0.2
			c0.4,0,0.8,0,1.1,0.1c0.4,0,0.7,0,1.1,0c0.3,0.1,0.6,0.1,0.9,0.1c0.3,0.1,0.5,0.1,0.7,0.1c0.2,0.1,0.4,0.1,0.6,0.2
			c0.1,0,0.2,0,0.3,0.1v0.1c0.1,0,0.1,0,0.1,0.1c0.1,0.1,0.1,0.1,0.1,0.2c0.1,0.1,0.1,0.1,0.1,0.3c0.1,0.1,0.1,0.2,0.2,0.3
			c0,0.1,0,0.2,0.1,0.4c0.1,0.2,0.1,0.3,0.2,0.4c0.2,0.5,0.3,1.1,0.5,1.6c0.1,0.2,0.1,0.4,0.2,0.6c0.2,0.5,0.3,0.9,0.5,1.4
			c0.1,0.3,0.1,0.6,0.2,0.8c0.1,0.3,0.2,0.6,0.2,0.9c0.1,0.3,0.2,0.6,0.2,0.9c0.1,0.3,0.2,0.6,0.3,0.9c0.2,0.6,0.3,1.3,0.5,1.9
			c0.3,1.1,0.7,2.1,0.9,3.2c0.5,1.6,0.9,3.1,1.3,4.7c0.5,1.2,0.7,2.6,1.1,3.8c0.3,0.9,0.5,1.8,0.7,2.7c0.3,0.9,0.5,1.9,0.8,2.8
			c0.1,0.5,0.2,1,0.3,1.5c0.2,0.5,0.3,0.9,0.4,1.4c0.3,1,0.5,2,0.8,3c0.1,0.5,0.2,1,0.4,1.5c0.1,0.5,0.2,1,0.4,1.5
			c0.1,0.5,0.2,1,0.4,1.6c0.1,0.5,0.2,1,0.4,1.5c0.1,0.5,0.2,1,0.3,1.6c0.2,0.5,0.3,1,0.4,1.5c0.2,0.5,0.3,1,0.5,1.6
			c0.1,0.5,0.2,1,0.4,1.6c0.1,0.5,0.2,1,0.4,1.6c0.1,0.5,0.2,1,0.4,1.6c0.1,0.5,0.2,1,0.4,1.6c0.1,0.5,0.2,1,0.4,1.6
			c0.1,0.5,0.2,1,0.4,1.6c0.1,0.5,0.2,1,0.4,1.5c0.1,0.5,0.2,1,0.3,1.6c0.2,0.5,0.3,1,0.4,1.6c0.2,0.5,0.3,1,0.4,1.6
			c0.2,0.5,0.3,1,0.4,1.5c0.3,1,0.5,2,0.8,3.1c0.1,0.5,0.2,1,0.3,1.5c0.3,1,0.5,2,0.8,3c0.2,1,0.4,1.9,0.7,2.9
			c0.2,0.9,0.4,1.9,0.7,2.8c0.9,2.4,1.6,5.3,2,7.9c0.2,0.8,0.4,1.6,0.7,2.4c0.1,0.8,0.3,1.5,0.6,2.3c0.1,0.3,0.1,0.7,0.2,1
			c0.1,0.4,0.1,0.7,0.2,1c0.1,0.4,0.1,0.7,0.2,1c0.1,0.3,0.1,0.7,0.2,1c0.1,0.6,0.2,1.2,0.4,1.8c0.2,1.3,0.5,2.5,0.8,3.8
			c0.1,0.2,0.1,0.3,0.2,0.5c0,0.4,0.1,0.7,0.2,1c0.1,0.2,0.1,0.3,0.1,0.4c0,0.2,0.1,0.5,0.2,0.7c0,0.2-0.1,0.5,0.1,0.7h-0.1
			c-0.1,0.1-0.1,0.2-0.2,0.3c-0.1,0.1-0.2,0.1-0.4,0.2c-0.2,0.1-0.4,0.1-0.6,0.1c-0.3,0.1-0.5,0.1-0.8,0.2c-0.3,0-0.6,0-0.9,0.1
			c-0.4,0.1-0.7,0.1-1.1,0.1c-0.8,0.1-1.6,0.1-2.4,0.2c-2.8,0-5.7,0-8.5,0c-0.9-0.1-1.8-0.1-2.8-0.2c-0.4,0-0.9,0-1.3,0
			c-0.4-0.1-0.8-0.1-1.2-0.1c-0.3-0.1-0.7-0.1-1.1-0.1c-0.3-0.1-0.6-0.1-0.9-0.2c-0.5,0-1-0.1-1.5-0.3c-0.4,0-0.6-0.2-0.8-0.4
			c-0.1-0.2-0.1-0.3-0.2-0.4c-0.1-0.2-0.1-0.4-0.2-0.6c-0.2-0.5-0.3-1.1-0.5-1.7c-0.2-0.8-0.4-1.5-0.6-2.3
			c-0.7-5.4-2.9-10.7-3.4-16.2c-0.2-0.9-0.4-1.7-0.6-2.6c-0.1-0.4-0.2-0.8-0.2-1.2c-0.3-1-0.3-2-0.7-3c0-0.2,0-0.5-0.1-0.7
			c-0.1-0.2-0.1-0.3-0.2-0.4c0-0.2,0-0.4-0.1-0.5c-0.1,0-0.2,0-0.4-0.1c-0.2,0-0.4,0-0.7-0.1c-0.7-0.1-1.5-0.1-2.2-0.2
			c-0.4,0-0.9,0-1.3,0c-1.8-0.2-3.8-0.2-5.6,0c-0.7,0-1.5,0.1-2.2,0.3c-0.2,0.1-0.5,0.1-0.7,0.3c-0.2,0.1-0.3,0.1-0.4,0.3v0.1
			c-0.1,0.1-0.1,0.2-0.1,0.3c-0.1,0.2-0.1,0.3-0.1,0.5c-0.2,0.9-0.3,1.8-0.6,2.6c-0.1,0.3-0.1,0.7-0.2,1.1c-0.1,0.4-0.2,0.8-0.2,1.2
			c-0.1,0.5-0.2,0.9-0.3,1.4c-0.5,4.1-1.7,8.3-2.5,12.3c-0.2,1.8-0.9,3.6-1.1,5.4c-0.1,0.4-0.2,0.8-0.3,1.1c-0.1,0.3-0.1,0.7-0.2,1
			c-0.1,0.3-0.1,0.6-0.2,0.8c-0.1,0.2-0.2,0.5-0.2,0.7c-0.1,0.2-0.1,0.3-0.2,0.4c0,0.1,0,0.2-0.1,0.3c-0.1,0.1-0.2,0.2-0.2,0.2
			c-0.2,0.1-0.3,0.1-0.5,0.2c-1.2,0.3-2.4,0.6-3.6,0.6c-0.4,0.1-0.8,0.1-1.2,0.2c-0.9,0.1-1.8,0.1-2.7,0.2c-0.4,0.1-0.9,0.1-1.4,0.1
			c-1.5,0.2-2.9,0-4.4,0.2c-0.9,0-1.8,0-2.8-0.1c-0.4,0-0.9,0-1.3,0c-0.4-0.1-0.8-0.1-1.2-0.1c-0.4-0.1-0.8-0.1-1.1-0.1
			c-0.3-0.1-0.6-0.1-0.9-0.2c-0.5,0-1-0.1-1.5-0.4c-0.2-0.1-0.3-0.1-0.5-0.2C232.1,489,232,488.9,231.9,488.8z M273.8,448.7
			c0.1-0.1,0-0.3-0.1-0.5c-0.1-0.2-0.1-0.3-0.1-0.5c-0.1-0.5-0.2-0.9-0.3-1.4c0-1.1-0.4-2.4-0.6-3.5c-0.3-1-0.4-2.1-0.6-3.1
			c-0.2-0.8-0.3-1.5-0.5-2.3c-0.1-0.8-0.2-1.6-0.4-2.4c-0.1-0.4-0.1-0.8-0.2-1.2c-0.2-0.8-0.3-1.7-0.5-2.5c-0.1-0.5-0.1-0.9-0.2-1.3
			c-0.2-0.9-0.3-1.7-0.4-2.6c-0.3-1.3-0.3-2.6-0.7-3.8c-0.1-0.5-0.1-0.9-0.2-1.3c-0.2-0.4-0.2-0.8-0.2-1.3c-0.1-1.6-0.2-1.6-0.3,0
			c0,0.4-0.1,0.8-0.2,1.3c-0.1,0.4-0.2,0.8-0.2,1.3c0,1.3-0.4,2.8-0.7,4c-0.1,0.5-0.1,0.9-0.2,1.4c-0.1,0.4-0.1,0.8-0.2,1.3
			c-0.1,0.5-0.1,0.9-0.2,1.4c-0.1,0.4-0.1,0.8-0.2,1.3c-0.1,0.5-0.1,0.9-0.2,1.3c-0.1,0.5-0.1,0.9-0.2,1.3c-0.1,0.4-0.1,0.8-0.2,1.3
			c-0.1,0.4-0.1,0.8-0.2,1.2c-0.2,0.8-0.3,1.6-0.5,2.4c-0.1,0.4-0.1,0.8-0.2,1.1c-0.3,1-0.3,2.1-0.7,3.1c-0.1,0.6-0.2,1.2-0.3,1.7
			c0,0.7-0.2,1.8-0.4,2.5c-0.4,0.8,0.8,0.5,1.2,0.6c0.4,0,0.8,0,1.1,0c0.9-0.1,1.7-0.1,2.6-0.1c0.5-0.1,0.9-0.1,1.4-0.1
			c0.4-0.1,0.9-0.1,1.3-0.2c0.3,0,0.7,0,1.1-0.1C272.9,449,273.4,448.9,273.8,448.7C273.9,448.6,273.7,448.8,273.8,448.7z"/>
		<path fill="#020202" d="M313.1,389.5c0.1-0.1,0.1-0.1,0.2-0.2c0.1,0,0.2,0,0.3-0.1c0.2-0.1,0.3-0.1,0.4-0.2c0.2,0,0.4,0,0.6-0.1
			c0.2-0.1,0.4-0.1,0.6-0.2c0.5,0,1-0.1,1.5-0.3c0.6-0.1,1.2-0.1,1.9-0.2c0.3-0.1,0.7-0.1,1.1-0.2c0.8-0.1,1.5-0.1,2.3-0.2
			c0.4-0.1,0.8-0.1,1.2-0.1c0.4-0.1,0.8-0.1,1.2-0.2c0.4,0,0.9,0,1.3-0.1c0.5,0,0.9,0,1.4-0.1c0.4,0,0.9,0,1.4-0.1
			c0.5,0,0.9,0,1.4,0c0.5-0.1,1-0.1,1.5-0.1c1-0.1,2-0.1,2.9-0.2c1,0,2,0,2.9-0.1c1.4,0,2.9,0.1,4.3-0.1c1.4,0,2.8-0.1,4.1,0.1
			c1.2,0,2.5-0.1,3.7,0.1c0.4,0,0.8,0,1.2,0c0.7,0.1,1.4,0.1,2.1,0.2c0.3,0,0.6,0,0.9,0.1c0.6,0.1,1.1,0.1,1.7,0.2
			c0.2,0.1,0.5,0.1,0.7,0.2c0.2,0,0.4,0,0.6,0.1c0.4,0.2,0.8,0.3,1.2,0.5c0.1,0.1,0.1,0.1,0.2,0.2c0.1,0.2,0.2,0.3,0.2,0.5
			c0.1,0.2,0.2,0.5,0.2,0.8c0.7,1.8,0.7,4,0.9,5.9c0,0.5,0,1,0.1,1.5c0,0.5,0,1,0.1,1.5c0,0.5,0,1,0.1,1.5c0,1.8,0.2,3.7-0.1,5.5
			c0,0.4,0,0.8,0,1.2c-0.1,0.4-0.1,0.7-0.2,1c0,0.6-0.1,1.1-0.2,1.7c-0.1,0.2-0.1,0.3-0.2,0.5c-0.1,0.1-0.1,0.2-0.2,0.3
			c-0.2,0.1-0.3,0.2-0.5,0.3c-0.3,0.1-0.5,0.1-0.8,0.1c-1.2,0.2-2.6,0.1-3.8,0.1c-0.5-0.1-1-0.1-1.5-0.1c-0.5-0.1-1-0.1-1.5-0.1
			c-0.5-0.1-0.9-0.1-1.4-0.2c-0.8-0.1-1.6-0.1-2.4-0.2c-0.5,0-1-0.1-1.5-0.2c-0.1,0-0.1,0-0.2,0v0.1c0,0.8,0,1.6,0,2.4
			c-0.5,2.9-0.1,6.2-0.1,9.1c0.3,3-0.1,6,0.2,8.9c0,1.5-0.1,3.1,0.1,4.5c0,1,0,2,0.1,3c0,0.6,0,1.2,0.1,1.8c0,0.6,0,1.2,0.1,1.8
			c0,0.6,0,1.2,0.1,1.7c0,0.6,0,1.2,0.1,1.8c0,1.1,0.1,2.2,0.2,3.2c0,1,0.1,2,0.2,3.1c0,0.9,0.1,1.9,0.2,2.8c0,0.8,0.1,1.6,0.2,2.4
			c0,0.8,0.1,1.5,0.2,2.3c0,0.6,0.1,1.2,0.2,1.8c0.1,0.2,0.1,0.5,0.2,0.8c0,0.2,0,0.5,0.1,0.7c0,0.2,0,0.4,0.1,0.6
			c0,0.1,0,0.3,0,0.4c0,0.2,0.1,0.5,0.2,0.7c0,0.1,0,0.1,0,0.2v0.1c0.1,0,0.1,0,0.2-0.1c0.2,0,0.4,0,0.6-0.1c2-0.4,4.1-0.6,6.1-0.9
			c0.5,0,1,0,1.5-0.1c0.9,0,1.8,0,2.7,0c0.7,0.1,1.4,0.2,2,0.4c0.2,0.1,0.4,0.2,0.6,0.3c0.1,0.1,0.1,0.3,0.2,0.4
			c0.1,0.2,0.2,0.3,0.2,0.5c0.3,1.3,0.6,2.6,0.6,3.9c0.1,0.4,0.1,0.8,0.2,1.2c0,0.5,0,0.9,0.1,1.4c0,0.5,0,0.9,0.1,1.4
			c0,0.5,0,1,0.1,1.5c0,2.5,0.2,5.1-0.1,7.5c0,0.5,0,0.9-0.1,1.3c0,0.5,0,0.9-0.1,1.3c-0.1,0.8-0.1,1.5-0.2,2.3
			c-0.1,0.6-0.2,1.1-0.3,1.7c-0.1,0.2-0.1,0.3-0.2,0.5c-0.1,0.2-0.2,0.4-0.3,0.5c-0.2,0.1-0.4,0.1-0.7,0.2c-0.2,0.1-0.3,0.1-0.5,0.1
			c-0.2,0.1-0.4,0.1-0.6,0.2c-0.2,0-0.4,0-0.6,0.1c-0.3,0-0.5,0-0.7,0.1c-0.3,0-0.5,0-0.8,0.1c-0.3,0-0.6,0-0.9,0
			c-0.3,0.1-0.7,0.1-1,0.1c-0.7,0.1-1.4,0.1-2.1,0.2c-0.4,0-0.8,0-1.1,0c-0.8,0.1-1.6,0.1-2.4,0.1c-0.9,0.1-1.7,0.1-2.6,0.1
			c-2.3,0.3-4.7-0.1-7.1,0.2c-2.4,0-5,0.2-7.4-0.1c-1.9,0-3.9,0.1-5.8-0.1c-0.9,0-1.8,0-2.8,0c-0.9-0.1-1.7-0.1-2.6-0.1
			c-0.8-0.1-1.6-0.1-2.4-0.2c-0.4,0-0.8,0-1.1,0c-0.7-0.1-1.4-0.1-2.1-0.2c-0.3,0-0.7,0-1,0c-0.3-0.1-0.5-0.1-0.8-0.1
			c-0.3-0.1-0.5-0.1-0.8-0.1c-0.3-0.1-0.5-0.1-0.7-0.1c-0.2-0.1-0.4-0.1-0.7-0.1c-0.2-0.1-0.4-0.1-0.6-0.1c-0.2-0.1-0.3-0.1-0.5-0.1
			c-0.1-0.1-0.2-0.1-0.3-0.1c-0.1-0.1-0.2-0.1-0.3-0.1c-0.2-0.1-0.3-0.3-0.3-0.5c-0.1-0.2-0.2-0.3-0.2-0.5c-0.1-0.3-0.1-0.6-0.2-0.8
			c-0.1-0.7-0.2-1.4-0.3-2.1c-0.1-0.9-0.1-1.7-0.2-2.6c-0.1-1-0.1-2-0.1-3c-0.2-1.5-0.2-3.2,0-4.7c0-0.5,0-1,0-1.5
			c0.1-0.5,0.1-1,0.1-1.5c0.1-0.5,0.1-1,0.2-1.5c0-1.4,0.1-3.2,0.7-4.5c0.1-0.3,0.1-0.6,0.2-0.8c0.1-0.2,0.1-0.3,0.2-0.5
			c0.1-0.2,0.2-0.3,0.3-0.3c0.2-0.1,0.4-0.2,0.7-0.3c0.3-0.1,0.7-0.2,1-0.2c0.4-0.1,0.8-0.1,1.1,0c0.4,0,0.9,0,1.3,0
			c1.8,0.2,3.6,0.3,5.4,0.8c0.6,0.1,1.3,0.2,1.9,0.3c0.2,0.1,0.4,0.1,0.6,0.2c0.1,0,0.1,0,0.2,0v-0.1c0-0.1,0-0.1,0-0.2
			c0.1-0.2,0.1-0.5,0.1-0.7c0.1-0.4,0.1-0.8,0.2-1.1c0-0.2,0-0.5,0.1-0.7c0-0.3,0-0.6,0.1-0.8c0-0.3,0-0.6,0.1-1c0-0.3,0-0.6,0.1-1
			c0.1-0.7,0.1-1.5,0.2-2.2c0.1-0.5,0.1-0.9,0.2-1.3c0.1-0.9,0.1-1.7,0.2-2.6c0.1-0.5,0.1-1,0.2-1.5c0-0.5,0-1,0.1-1.5
			c0.1-1,0.1-2.1,0.2-3.1c0.1-0.5,0.1-1.1,0.1-1.7c0.1-0.6,0.1-1.1,0.2-1.7c0-0.6,0-1.2,0.1-1.7c0-0.6,0-1.2,0.1-1.8
			c0-0.6,0-1.2,0-1.7c0.1-0.6,0.1-1.3,0.1-1.8c0-1.3,0.1-2.7,0.2-4c0-1.3,0-2.5,0.1-3.8c0-1.7-0.1-3.4,0.1-5.1c0-3.6,1-8.8-0.1-12.2
			c0-0.3,0-0.5,0-0.8v-0.1c-0.1,0-0.1,0-0.2,0c-0.2,0.1-0.3,0.1-0.5,0.2c-1.8,0-3.5,0.7-5.3,0.7c-1.3,0.2-2.6,0.1-3.9,0.1
			c-0.4-0.1-0.8-0.1-1.1-0.2c-0.8-0.3-1.9-0.5-2.3-1.4c-0.4-0.5-0.5-1.6-0.6-2.2c0-0.4,0-0.7-0.1-1c0-0.4,0-0.8-0.1-1.2
			c0-1.4,0-2.7,0-4.1c0.1-0.5,0.1-1,0.1-1.5c0.1-0.5,0.1-1,0.1-1.5c0.2-1.8,0.3-3.8,0.7-5.6c0.1-0.4,0.1-0.8,0.2-1.1
			c0.1-0.4,0.2-0.7,0.2-1c0.1-0.3,0.2-0.6,0.3-0.8c0.1-0.2,0.1-0.5,0.2-0.7C312.9,389.7,313,389.6,313.1,389.5
			C313.2,389.4,313,389.6,313.1,389.5z"/>
		<path fill="#020202" d="M365.3,489.3c0-0.6-0.1-1.4,0.1-2c0-0.8,0-1.7,0-2.5c0.2-1.1,0-2.2,0.2-3.3c0-1-0.1-2,0.1-3
			c0-0.8,0-1.5,0-2.3c0.1-0.8,0.1-1.6,0.1-2.4c0.1-0.8,0.1-1.6,0.1-2.4c0.1-0.9,0.1-1.8,0.1-2.7c0.1-0.9,0.1-1.8,0.1-2.7
			c0.1-1,0.1-1.9,0.1-2.9c0.1-1,0.1-2,0.2-3c0-0.5,0-1,0-1.5c0.1-1,0.1-2,0.1-3.1c0.1-1,0.1-2.1,0.2-3.1c0-0.5,0-1,0-1.6
			c0.1-0.5,0.1-1.1,0.1-1.7c0.1-1.1,0.1-2.2,0.2-3.2c0-0.5,0-1,0-1.6c0.1-1.1,0.1-2.2,0.2-3.3c0-0.5,0-1,0-1.6
			c0.1-0.6,0.1-1.1,0.1-1.7c0.1-1.1,0.1-2.2,0.2-3.2c0-0.6,0-1.1,0.1-1.7c0-0.5,0-1.1,0-1.7c0.1-0.5,0.1-1,0.1-1.6
			c0.1-1.1,0.1-2.2,0.2-3.2c0-0.5,0-1,0.1-1.6c0-0.5,0-1,0-1.6c0.1-0.5,0.1-1,0.1-1.6c0.1-0.5,0.1-1,0.1-1.6c0.1-1,0.1-2,0.2-3
			c0-0.5,0-1,0.1-1.5c0-0.5,0-1,0.1-1.5c0-0.5,0-1,0-1.5c0.1-0.5,0.1-0.9,0.1-1.4c0.1-0.5,0.1-0.9,0.1-1.4c0.1-0.5,0.1-0.9,0.1-1.3
			c0-0.9,0.1-1.7,0.2-2.6c0-0.5,0-0.9,0.1-1.3c0-0.4,0-0.8,0.1-1.2c0-0.4,0-0.8,0.1-1.2c0-0.4,0-0.7,0.1-1.1c0-0.4,0-0.8,0-1.1
			c0.1-0.3,0.1-0.7,0.1-1c0.1-0.4,0.1-0.7,0.1-1c0.1-0.4,0.1-0.7,0.1-1c0.1-0.3,0.1-0.6,0.1-1c0.1-0.6,0.1-1.2,0.2-1.7
			c0-0.2,0-0.5,0.1-0.8c0-0.2,0-0.5,0.1-0.8c0-0.2,0-0.5,0.1-0.7c0-0.2,0-0.4,0.1-0.6c0-0.2,0-0.4,0.1-0.6c0-0.2,0-0.4,0-0.5
			c0.1-0.2,0.1-0.4,0.1-0.5c0.1-0.1,0.1-0.3,0.1-0.4c0.1-0.1,0.1-0.2,0.1-0.3c0.1-0.1,0.1-0.1,0.1-0.3c0-0.2,0.1-0.3,0.2-0.4
			l0.1-0.1c0.1-0.1,0.2-0.1,0.4-0.2c0.2-0.1,0.3-0.2,0.5-0.3c0.8-0.2,1.6-0.4,2.5-0.4c0.4-0.1,0.7-0.1,1.1-0.2c0.4,0,0.8,0,1.2-0.1
			c0.4,0,0.8,0,1.2,0c1.8-0.2,3.6-0.1,5.4-0.1c0.9,0.1,1.8,0.1,2.7,0.1c0.4,0.1,0.9,0.1,1.3,0.1c0.4,0.1,0.8,0.1,1.2,0.1
			c0.4,0.1,0.8,0.1,1.1,0.1c0.4,0.1,0.7,0.1,1.1,0.2c0.6,0,1.3,0.1,1.9,0.3c0.2,0.1,0.4,0.1,0.7,0.2c0.3,0,0.7,0.1,1,0.3
			c0.1,0.1,0.2,0.3,0.3,0.4c0.1,0.1,0.2,0.2,0.2,0.4c0.2,0.3,0.4,0.7,0.6,1c0.3,0.5,0.6,1,0.7,1.5c0.2,0.2,0.3,0.5,0.4,0.8
			c0.2,0.3,0.3,0.6,0.4,1c0.4,0.6,0.7,1.3,0.9,2c0.2,0.4,0.3,0.8,0.5,1.1c0.6,1.2,1,2.5,1.6,3.8c0.2,0.4,0.4,0.8,0.6,1.3
			c0.2,0.5,0.3,0.9,0.5,1.4c0.2,0.5,0.4,0.9,0.6,1.4c0.2,0.5,0.4,0.9,0.7,1.4c0.2,0.5,0.4,1,0.6,1.5c0.4,1,0.7,1.9,1.1,2.9
			c1.2,2.9,2.2,6,3.5,8.8c0.2,0.5,0.4,0.9,0.6,1.4c0.3,1,0.7,1.9,1.1,2.8c0.5,1.2,1,2.5,1.4,3.8c0.2,0.3,0.3,0.7,0.5,1.1
			c0.1,0.4,0.2,0.7,0.4,1c0.1,0.3,0.2,0.7,0.4,1c0.2,0.6,0.4,1.2,0.7,1.8c0.1,0.2,0.2,0.5,0.3,0.8c0.1,0.2,0.2,0.5,0.2,0.7
			c0.1,0.2,0.2,0.4,0.2,0.6c0.1,0.2,0.1,0.3,0.2,0.5c0.1,0.2,0.2,0.5,0.3,0.7c0,0.1,0,0.1,0.1,0.2V435c0-0.8-0.1-1.6,0.1-2.4
			c0-0.9-0.1-1.8,0.1-2.7c0-0.8,0-1.6,0.1-2.4c0-0.9,0-1.8,0.1-2.6c0-0.9,0-1.9,0.1-2.8c0-0.5,0-1,0-1.5c0.1-1,0.1-2.1,0.2-3.1
			c0-0.5,0-1,0-1.6c0.1-1.1,0.1-2.2,0.2-3.2c0-0.5,0-1,0.1-1.6c0-0.6,0-1.1,0-1.7c0.1-0.5,0.1-1,0.1-1.6c0.1-0.6,0.1-1.1,0.1-1.7
			c0.1-1,0.1-2.1,0.2-3.1c0-0.5,0-1,0.1-1.5c0-0.5,0-1,0.1-1.5c0-0.5,0-0.9,0.1-1.4c0-0.5,0-0.9,0.1-1.4c0-0.4,0-0.8,0.1-1.2
			c0-0.4,0-0.8,0.1-1.3c0-0.3,0-0.7,0.1-1.1c0-0.4,0-0.7,0.1-1c0-0.4,0-0.7,0.1-1c0-0.3,0-0.6,0.1-0.9c0-0.3,0-0.6,0.1-0.8
			c0-0.2,0-0.5,0.1-0.7c0-0.2,0-0.4,0.1-0.5c0-0.1,0-0.3,0.1-0.4c0-0.1,0-0.1,0.1-0.3c0-0.2,0.1-0.3,0.3-0.3
			c0.4-0.2,0.8-0.2,1.2-0.3c0.3-0.1,0.6-0.1,0.9-0.1c0.3-0.1,0.7-0.1,1.1-0.1c0.4-0.1,0.8-0.1,1.1-0.1c1.3-0.2,2.7-0.1,4-0.1
			c0.5-0.1,0.9-0.1,1.4-0.1c1.4,0.2,2.9,0,4.3,0.2c0.4,0,0.9,0,1.4,0c0.4,0.1,0.8,0.1,1.2,0.1c0.4,0.1,0.8,0.1,1.2,0.2
			c1,0,2.2,0.3,3.2,0.6c0.1,0.1,0.2,0.1,0.3,0.2v0.1c0.1,0.1,0.1,0.2,0.2,0.4c0,0.1,0,0.2,0,0.3c0.1,0.2,0.1,0.5,0.1,0.7
			c0.1,0.3,0.1,0.6,0.2,1c0,0.2,0,0.4,0,0.6c0.1,0.4,0.1,0.9,0.2,1.3c0,0.2,0,0.5,0,0.8c0.1,0.5,0.1,1,0.2,1.6c0,0.3,0,0.6,0,0.9
			c0.1,0.6,0.1,1.3,0.2,1.9c0,0.4,0,0.7,0,1c0.1,0.7,0.1,1.4,0.2,2.1c0,0.4,0,0.8,0,1.1c0.1,0.8,0.1,1.6,0.2,2.4c0,0.4,0,0.8,0,1.2
			c0.1,0.9,0.1,1.7,0.2,2.6c0,0.4,0,0.8,0.1,1.3c0,0.5,0,0.9,0,1.3c0.1,1,0.1,1.9,0.2,2.9c0,0.5,0,0.9,0,1.4c0.1,1,0.1,2,0.2,3
			c0,0.5,0,1,0,1.5c0.1,1,0.1,2,0.1,3.1c0.1,1,0.1,2.1,0.2,3.1c0,0.5,0,1,0,1.6c0.1,1,0.1,2.1,0.2,3.1c0,0.6,0,1.1,0,1.7
			c0.1,1.1,0.1,2.2,0.1,3.2c0.1,1.1,0.1,2.2,0.1,3.2c0.1,1.1,0.1,2.2,0.2,3.2c0,1.1,0,2.2,0.1,3.2c0,1.1,0,2.1,0.1,3.1
			c0,1.1,0,2.2,0,3.2c0.1,1,0.1,2,0.1,3.1c0.2,1.5,0,3.1,0.2,4.6c0,1.5,0,2.9,0,4.4c0.2,1.8-0.1,3.7,0.2,5.5c0,2.4,0,4.9,0,7.3
			c0.3,2.1,0.4,4.8,0,6.8c0,1.2,0.3,2.8-0.1,3.9c0,0.4,0,0.8,0,1.2c-0.1,0.2-0.1,0.3-0.1,0.5c-0.1,0-0.1,0-0.1,0.1v0.1
			c-0.2,0.2-0.4,0.3-0.7,0.3c-0.2,0-0.3,0-0.5,0.1c-0.3,0.1-0.5,0.1-0.7,0.1c-0.3,0.1-0.5,0.1-0.8,0.1c-0.3,0.1-0.7,0.1-1,0.1
			c-0.8,0.1-1.5,0.1-2.3,0.2c-0.8,0-1.7,0-2.5,0c-2.4,0.3-4.9,0.1-7.2,0.1c-1.5-0.2-2.9,0-4.4-0.2c-0.9,0-1.8,0-2.8-0.1
			c-0.4,0-0.8,0-1.2,0c-0.4-0.1-0.8-0.1-1.2-0.1c-0.7-0.1-1.4-0.1-2-0.2c-0.3,0-0.5,0-0.8-0.1c-0.3,0-0.5,0-0.7-0.1
			c-0.2,0-0.4,0-0.6-0.1c-0.2,0-0.3,0-0.4-0.1c-0.1,0-0.2,0-0.2-0.1c-0.1,0-0.1,0-0.2-0.1c0-0.2-0.2-0.4-0.3-0.6
			c-0.1-0.2-0.1-0.3-0.2-0.5c-0.1-0.2-0.2-0.3-0.2-0.5c-0.1-0.2-0.2-0.5-0.2-0.7c-0.1-0.3-0.2-0.6-0.3-0.8c-0.4-1-0.7-1.9-1-2.9
			c-0.3-0.8-0.6-1.6-0.8-2.4c-0.1-0.4-0.2-0.8-0.4-1.2c-0.3-0.9-0.5-1.7-0.8-2.6c-0.3-1-0.7-1.9-1-2.9c-1-4.1-2.9-8.1-3.7-12.2
			c-0.5-1.5-1-3-1.5-4.5c-0.3-1-0.6-1.9-0.8-2.9c-0.2-0.5-0.3-0.9-0.5-1.4c-0.1-0.4-0.2-0.8-0.3-1.3c-0.2-0.4-0.3-0.8-0.4-1.2
			c-0.7-1.7-1.3-3.7-1.6-5.4c-0.1-0.3-0.2-0.6-0.2-0.9c-0.1-0.2-0.2-0.5-0.2-0.8c-0.1-0.2-0.1-0.4-0.2-0.6c-0.1-0.4-0.4-0.9-0.4-1.3
			c-0.1-0.1-0.1-0.1-0.1-0.2v-0.1v0.1c0,0.5-0.1,1.1,0.1,1.7c0,0.5,0,1,0,1.6c0.2,1,0,2,0.2,3.1c0,0.8,0,1.6,0.1,2.4
			c0,0.5,0,0.9,0,1.4c0.1,0.9,0.1,1.9,0.1,2.8c0.1,1,0.1,2,0.1,3.1c0.1,1.1,0.1,2.2,0.2,3.2c0,1.1,0,2.2,0.1,3.2
			c0,1.1,0,2.2,0.1,3.2c0,1.1,0,2.2,0,3.2c0.5,4.6,0.7,10.3,0,14.9c0,0.6,0,1.1-0.1,1.7c0,0.2,0,0.5,0,0.7c-0.1,0.2-0.1,0.3-0.1,0.5
			c0,0.2-0.1,0.5-0.2,0.7c0,0.1,0,0.2-0.1,0.2c-0.1,0.1-0.2,0.1-0.2,0.2c-0.2,0.1-0.3,0.1-0.5,0.1c-0.2,0.1-0.4,0.1-0.6,0.1
			c-0.3,0.1-0.5,0.1-0.8,0.1c-0.3,0.1-0.6,0.1-0.9,0.1c-0.7,0.1-1.5,0.1-2.2,0.1c-1.8,0.2-3.6,0-5.4,0.2c-1,0-2,0-3,0
			c-2.5-0.3-5-0.1-7.5-0.1c-1.2-0.2-2.5-0.1-3.7-0.1c-1.2-0.2-2.8,0.3-4-0.2C365.6,489.4,365.5,489.4,365.3,489.3L365.3,489.3
			L365.3,489.3z"/>
		<path fill="#020202" d="M441.4,488.8L441.4,488.8c0-0.3-0.1-0.9,0.1-1c0-0.2,0-0.3,0.1-0.4c0-0.1,0-0.3,0-0.4
			c0.1-0.2,0.1-0.3,0.2-0.5c0.1-0.4,0.1-0.8,0.2-1.1c0.4-1.2,0.6-2.4,0.8-3.7c0.2-0.6,0.3-1.2,0.5-1.7c0.1-0.3,0.1-0.6,0.2-1
			c0.1-0.3,0.2-0.6,0.2-1c0.1-0.4,0.2-0.7,0.2-1c0.1-0.4,0.2-0.7,0.3-1c0.2-0.7,0.3-1.5,0.5-2.2c0.2-0.8,0.4-1.6,0.7-2.4
			c0.3-2.1,1.1-4.3,1.5-6.4c0.5-1.3,0.7-2.7,1.1-4.1c0.3-0.9,0.5-1.9,0.8-2.8c0.1-0.5,0.2-1,0.3-1.5c0.3-1,0.5-1.9,0.8-2.9
			c0.1-0.5,0.2-1,0.3-1.5c0.2-0.5,0.3-1,0.4-1.6c0.2-0.5,0.3-1,0.4-1.5c0.2-0.5,0.3-1,0.4-1.5c0.2-0.5,0.3-1,0.4-1.6
			c0.2-0.5,0.3-1,0.4-1.5c0.2-0.5,0.3-1,0.4-1.6c0.2-0.5,0.3-1,0.4-1.5c0.2-0.5,0.3-1,0.4-1.6c0.2-0.5,0.3-1,0.4-1.5
			c0.2-0.5,0.3-1,0.4-1.6c0.2-0.5,0.3-1,0.4-1.6c0.2-0.5,0.3-1,0.5-1.5c0.1-0.5,0.2-1,0.4-1.6c0.1-0.5,0.2-1,0.4-1.5
			c0.1-0.5,0.2-1,0.4-1.6c0.1-0.5,0.2-1,0.4-1.5c0.1-0.5,0.2-1,0.4-1.5c0.1-0.5,0.2-1,0.4-1.5c0.1-0.5,0.2-1,0.4-1.5
			c0.1-0.5,0.2-1,0.4-1.5c0.1-0.5,0.2-1,0.4-1.5c0.1-0.5,0.2-0.9,0.3-1.4c0.2-0.5,0.3-0.9,0.4-1.4c0.3-0.9,0.5-1.9,0.8-2.8
			c0.1-0.5,0.2-0.9,0.3-1.4c0.3-0.9,0.5-1.7,0.7-2.6c0.6-1.6,0.8-3.4,1.5-5c0.3-1.2,0.7-2.3,1-3.5c0.2-1.1,0.6-2.1,0.8-3.1
			c0.2-0.6,0.4-1.2,0.6-1.8c0.1-0.4,0.2-0.7,0.2-1c0.1-0.3,0.2-0.6,0.2-0.8c0.1-0.3,0.2-0.6,0.2-0.9c0.2-0.5,0.3-1,0.5-1.5
			c0.1-0.4,0.2-0.8,0.4-1.2c0.1-0.5,0.3-1.1,0.5-1.6c0-0.3,0.1-0.5,0.2-0.8c0-0.1,0-0.2,0.1-0.4c0.1-0.1,0.1-0.1,0.1-0.3
			c0.1-0.1,0.1-0.2,0.2-0.4v-0.1c0.1-0.1,0.2-0.1,0.3-0.2c0.2-0.1,0.3-0.1,0.5-0.2c0.2-0.1,0.5-0.1,0.7-0.1c0.3-0.1,0.5-0.1,0.8-0.2
			c0.4,0,0.7,0,1.1-0.1c0.4,0,0.8,0,1.1-0.1c0.4,0,0.9,0,1.3-0.1c0.9,0,1.8,0,2.8-0.1c1.4,0,2.9,0,4.3,0c1.4,0.2,2.7,0,4.1,0.2
			c0.4,0,0.8,0,1.1,0.1c0.4,0,0.7,0,1.1,0c0.3,0.1,0.6,0.1,0.9,0.1c0.3,0.1,0.5,0.1,0.7,0.1c0.2,0.1,0.4,0.1,0.6,0.2
			c0.1,0,0.2,0,0.3,0.1v0.1c0.1,0,0.1,0,0.1,0.1c0.1,0.1,0.1,0.1,0.1,0.2c0.1,0.1,0.1,0.1,0.1,0.3c0.1,0.1,0.1,0.2,0.2,0.3
			c0,0.1,0,0.2,0.1,0.4c0.1,0.2,0.1,0.3,0.2,0.4c0.2,0.5,0.3,1.1,0.5,1.6c0.1,0.2,0.1,0.4,0.2,0.6c0.2,0.5,0.3,0.9,0.5,1.4
			c0.1,0.3,0.1,0.6,0.2,0.8c0.1,0.3,0.2,0.6,0.2,0.9c0.1,0.3,0.2,0.6,0.2,0.9c0.1,0.3,0.2,0.6,0.3,0.9c0.2,0.6,0.3,1.3,0.5,1.9
			c0.3,1.1,0.7,2.1,0.9,3.2c0.5,1.6,0.9,3.1,1.3,4.7c0.5,1.2,0.7,2.6,1.1,3.8c0.3,0.9,0.5,1.8,0.7,2.7c0.3,0.9,0.5,1.9,0.8,2.8
			c0.1,0.5,0.2,1,0.3,1.5c0.2,0.5,0.3,0.9,0.4,1.4c0.3,1,0.5,2,0.8,3c0.1,0.5,0.2,1,0.4,1.5c0.1,0.5,0.2,1,0.4,1.5
			c0.1,0.5,0.2,1,0.4,1.6c0.1,0.5,0.2,1,0.4,1.5c0.1,0.5,0.2,1,0.3,1.6c0.2,0.5,0.3,1,0.4,1.5c0.2,0.5,0.3,1,0.5,1.6
			c0.1,0.5,0.2,1,0.4,1.6c0.1,0.5,0.2,1,0.4,1.6c0.1,0.5,0.2,1,0.4,1.6c0.1,0.5,0.2,1,0.4,1.6c0.1,0.5,0.2,1,0.4,1.6
			c0.1,0.5,0.2,1,0.4,1.6c0.1,0.5,0.2,1,0.4,1.5c0.1,0.5,0.2,1,0.3,1.6c0.2,0.5,0.3,1,0.4,1.6c0.2,0.5,0.3,1,0.4,1.6
			c0.2,0.5,0.3,1,0.4,1.5c0.3,1,0.5,2,0.8,3.1c0.1,0.5,0.2,1,0.3,1.5c0.3,1,0.5,2,0.8,3c0.2,1,0.4,1.9,0.7,2.9
			c0.2,0.9,0.4,1.9,0.7,2.8c0.9,2.4,1.6,5.3,2,7.9c0.2,0.8,0.4,1.6,0.7,2.4c0.1,0.8,0.3,1.5,0.6,2.3c0.1,0.3,0.1,0.7,0.2,1
			c0.1,0.4,0.1,0.7,0.2,1c0.1,0.4,0.1,0.7,0.2,1c0.1,0.3,0.1,0.7,0.2,1c0.1,0.6,0.2,1.2,0.4,1.8c0.2,1.3,0.5,2.5,0.8,3.8
			c0.1,0.2,0.1,0.3,0.2,0.5c0,0.4,0.1,0.7,0.2,1c0.1,0.2,0.1,0.3,0.1,0.4c0,0.2,0.1,0.5,0.2,0.7c0,0.2-0.1,0.5,0.1,0.7h-0.1
			c-0.1,0.1-0.1,0.2-0.2,0.3c-0.1,0.1-0.2,0.1-0.4,0.2c-0.2,0.1-0.4,0.1-0.6,0.1c-0.3,0.1-0.5,0.1-0.8,0.2c-0.3,0-0.6,0-0.9,0.1
			c-0.4,0.1-0.7,0.1-1.1,0.1c-0.8,0.1-1.6,0.1-2.4,0.2c-2.8,0-5.7,0-8.5,0c-0.9-0.1-1.8-0.1-2.8-0.2c-0.4,0-0.9,0-1.3,0
			c-0.4-0.1-0.8-0.1-1.2-0.1c-0.3-0.1-0.7-0.1-1.1-0.1c-0.3-0.1-0.6-0.1-0.9-0.2c-0.5,0-1-0.1-1.5-0.3c-0.4,0-0.6-0.2-0.8-0.4
			c-0.1-0.2-0.1-0.3-0.2-0.4c-0.1-0.2-0.1-0.4-0.2-0.6c-0.2-0.5-0.3-1.1-0.5-1.7c-0.2-0.8-0.4-1.5-0.6-2.3
			c-0.7-5.4-2.9-10.7-3.4-16.2c-0.2-0.9-0.4-1.7-0.6-2.6c-0.1-0.4-0.2-0.8-0.2-1.2c-0.3-1-0.3-2-0.7-3c0-0.2,0-0.5-0.1-0.7
			c-0.1-0.2-0.1-0.3-0.2-0.4c0-0.2,0-0.4-0.1-0.5c-0.1,0-0.2,0-0.4-0.1c-0.2,0-0.4,0-0.7-0.1c-0.7-0.1-1.5-0.1-2.2-0.2
			c-0.4,0-0.9,0-1.3,0c-1.8-0.2-3.8-0.2-5.6,0c-0.7,0-1.5,0.1-2.2,0.3c-0.2,0.1-0.5,0.1-0.7,0.3c-0.2,0.1-0.3,0.1-0.4,0.3v0.1
			c-0.1,0.1-0.1,0.2-0.1,0.3c-0.1,0.2-0.1,0.3-0.1,0.5c-0.2,0.9-0.3,1.8-0.6,2.6c-0.1,0.3-0.1,0.7-0.2,1.1c-0.1,0.4-0.2,0.8-0.2,1.2
			c-0.1,0.5-0.2,0.9-0.3,1.4c-0.5,4.1-1.7,8.3-2.5,12.3c-0.2,1.8-0.9,3.6-1.1,5.4c-0.1,0.4-0.2,0.8-0.3,1.1c-0.1,0.3-0.1,0.7-0.2,1
			c-0.1,0.3-0.1,0.6-0.2,0.8c-0.1,0.2-0.2,0.5-0.2,0.7c-0.1,0.2-0.1,0.3-0.2,0.4c0,0.1,0,0.2-0.1,0.3c-0.1,0.1-0.2,0.2-0.2,0.2
			c-0.2,0.1-0.3,0.1-0.5,0.2c-1.2,0.3-2.4,0.6-3.6,0.6c-0.4,0.1-0.8,0.1-1.2,0.2c-0.9,0.1-1.8,0.1-2.7,0.2c-0.4,0.1-0.9,0.1-1.4,0.1
			c-1.5,0.2-2.9,0-4.4,0.2c-0.9,0-1.8,0-2.8-0.1c-0.4,0-0.9,0-1.3,0c-0.4-0.1-0.8-0.1-1.2-0.1c-0.4-0.1-0.8-0.1-1.1-0.1
			c-0.3-0.1-0.6-0.1-0.9-0.2c-0.5,0-1-0.1-1.5-0.4c-0.2-0.1-0.3-0.1-0.5-0.2C441.5,489,441.4,488.9,441.4,488.8z M483.3,448.7
			c0.1-0.1,0-0.3-0.1-0.5c-0.1-0.2-0.1-0.3-0.1-0.5c-0.1-0.5-0.2-0.9-0.3-1.4c0-1.1-0.4-2.4-0.6-3.5c-0.3-1-0.4-2.1-0.6-3.1
			c-0.2-0.8-0.3-1.5-0.5-2.3c-0.1-0.8-0.2-1.6-0.4-2.4c-0.1-0.4-0.1-0.8-0.2-1.2c-0.2-0.8-0.3-1.7-0.5-2.5c-0.1-0.5-0.1-0.9-0.2-1.3
			c-0.2-0.9-0.3-1.7-0.4-2.6c-0.3-1.3-0.3-2.6-0.7-3.8c-0.1-0.5-0.1-0.9-0.2-1.3c-0.2-0.4-0.2-0.8-0.2-1.3c-0.1-1.6-0.2-1.6-0.3,0
			c0,0.4-0.1,0.8-0.2,1.3c-0.1,0.4-0.2,0.8-0.2,1.3c0,1.3-0.4,2.8-0.7,4c-0.1,0.5-0.1,0.9-0.2,1.4c-0.1,0.4-0.1,0.8-0.2,1.3
			c-0.1,0.5-0.1,0.9-0.2,1.4c-0.1,0.4-0.1,0.8-0.2,1.3c-0.1,0.5-0.1,0.9-0.2,1.3c-0.1,0.5-0.1,0.9-0.2,1.3c-0.1,0.4-0.1,0.8-0.2,1.3
			c-0.1,0.4-0.1,0.8-0.2,1.2c-0.2,0.8-0.3,1.6-0.5,2.4c-0.1,0.4-0.1,0.8-0.2,1.1c-0.3,1-0.3,2.1-0.7,3.1c-0.1,0.6-0.2,1.2-0.3,1.7
			c0,0.7-0.2,1.8-0.4,2.5c-0.4,0.8,0.8,0.5,1.2,0.6c0.4,0,0.8,0,1.1,0c0.9-0.1,1.7-0.1,2.6-0.1c0.5-0.1,0.9-0.1,1.4-0.1
			c0.4-0.1,0.9-0.1,1.3-0.2c0.3,0,0.7,0,1.1-0.1C482.4,449,482.8,448.9,483.3,448.7C483.3,448.6,483.2,448.8,483.3,448.7z"/>
		<path fill="#020202" d="M547.2,387.3c1,0.1,2,0.1,2.9,0.2c1,0,1.9,0.1,2.8,0.3c0.9,0,1.8,0.1,2.7,0.4c0.4,0.1,0.9,0.1,1.3,0.2
			c0.4,0.1,0.9,0.2,1.3,0.3c0.4,0.1,0.8,0.2,1.2,0.3c1.2,0.3,2.3,0.7,3.5,1c1.1,0.5,2.1,0.8,3.2,1.4c0.3,0.1,0.7,0.3,1,0.5
			c0.3,0.2,0.6,0.3,0.9,0.5c0.3,0.2,0.6,0.4,0.9,0.6c0.3,0.2,0.5,0.4,0.8,0.6c0.6,0.4,1.1,0.8,1.5,1.3c0.3,0.2,0.5,0.5,0.7,0.8
			c0.2,0.2,0.4,0.5,0.7,0.8c0.2,0.2,0.4,0.5,0.6,0.8c0.2,0.3,0.4,0.6,0.6,0.9c0.2,0.3,0.4,0.6,0.5,0.9c0.2,0.3,0.3,0.6,0.5,1
			c0.5,0.9,0.7,2.1,1.1,3.1c0.1,0.4,0.1,0.7,0.2,1c0.1,0.8,0.2,1.6,0.2,2.4c0.2,1.9,0,3.8-0.2,5.7c-0.2,0.9-0.4,1.9-0.7,2.8
			c-0.3,0.8-0.7,1.6-1,2.4c-0.2,0.4-0.4,0.8-0.7,1.1c-0.2,0.4-0.4,0.7-0.6,1c-0.3,0.3-0.5,0.7-0.7,1c-0.4,0.7-0.9,1.2-1.5,1.7
			c-1,1-2.1,1.9-3.3,2.7c-0.3,0.2-0.6,0.4-0.9,0.5c-0.3,0.2-0.6,0.3-0.9,0.4c-0.3,0.2-0.6,0.3-0.9,0.4c-0.3,0.2-0.5,0.3-0.8,0.3
			c-0.4,0-0.7,0.1-0.9,0.3c-0.1,0.1,0.1,0.1,0.6,0.2c0.2,0,0.3,0.1,0.5,0.2c0.2,0.1,0.4,0.2,0.7,0.3c0.4,0.2,0.8,0.4,1.2,0.5
			c0.2,0.1,0.5,0.2,0.7,0.3c0.2,0.1,0.4,0.2,0.7,0.3c0.3,0.2,0.5,0.3,0.7,0.4c0.3,0.1,0.5,0.3,0.7,0.4c0.5,0.3,1,0.7,1.5,1
			c0.3,0.2,0.5,0.4,0.8,0.6c0.3,0.2,0.5,0.4,0.7,0.6c0.3,0.2,0.5,0.4,0.8,0.6c0.3,0.3,0.5,0.6,0.8,0.8c0.2,0.2,0.5,0.5,0.7,0.8
			c0.3,0.2,0.5,0.5,0.7,0.8c0.5,0.6,0.9,1.2,1.5,1.8c0.5,0.7,1,1.4,1.4,2.1c0.5,0.8,0.9,1.5,1.2,2.4c0.9,1.7,1.6,3.6,2,5.5
			c0.5,1.6,0.8,3.3,1,4.9c0.2,1.2,0.3,2.4,0.3,3.7c0.1,1.6,0.1,3.2,0.1,4.7c-0.1,0.5-0.1,0.9-0.1,1.3c-0.2,1.3-0.3,2.6-0.5,3.8
			c-0.1,0.4-0.2,0.8-0.2,1.2c-0.4,1.5-0.7,3.1-1.4,4.5c-0.1,0.4-0.2,0.8-0.4,1.1c-0.3,0.7-0.7,1.3-1,2c-0.3,0.7-0.6,1.3-1.1,1.8
			c-0.6,0.9-1.2,1.8-2,2.6c-0.4,0.6-0.8,1.1-1.4,1.6c-2.3,2.5-5.7,5.1-9,6.1c-0.3,0.2-0.7,0.3-1,0.4c-0.4,0.2-0.8,0.3-1.1,0.4
			c-1,0.5-2.2,0.8-3.3,1.1c-0.8,0.2-1.6,0.3-2.4,0.5c-2,0.6-4.2,0.7-6.3,1c-0.4,0-0.9,0-1.3,0.1c-0.4,0-0.9,0-1.3,0.1
			c-1.2,0-2.5,0-3.7,0.1c-4.6,0-9.5,0.5-14.1-0.1c-0.8,0-1.6,0-2.4-0.1c-0.4,0-0.7,0-1.1,0c-0.3-0.1-0.7-0.1-1-0.1
			c-0.3-0.1-0.5-0.1-0.8-0.1c-0.3-0.1-0.5-0.1-0.8-0.2c-0.5-0.1-0.9-0.1-1.4-0.2c-0.2-0.1-0.4-0.1-0.6-0.2c-0.2-0.1-0.3-0.1-0.5-0.2
			c-0.5,0-0.9-0.3-1.3-0.4c-0.1-0.1-0.2-0.2-0.3-0.3c-0.2-0.2-0.8-0.5-0.8-0.8c-0.1-0.1-0.2-0.2-0.2-0.4c0-0.1,0-0.2,0-0.3
			c-0.1-0.1-0.1-0.2-0.1-0.3c-0.1-0.3-0.1-0.6-0.2-0.9c0-0.2,0-0.4-0.1-0.6c0-0.2,0-0.3,0-0.5c-0.1-0.5-0.1-0.9-0.2-1.4
			c0-0.3,0-0.6,0-0.8c-0.1-0.3-0.1-0.6-0.1-0.8c-0.1-0.6-0.1-1.2-0.2-1.8c0-0.3,0-0.6,0-0.9c-0.1-0.7-0.1-1.4-0.2-2.1
			c0-0.3,0-0.7,0-1c-0.1-0.8-0.1-1.5-0.1-2.3c-0.1-0.8-0.1-1.6-0.2-2.4c0-0.5,0-0.9,0-1.3c-0.1-0.9-0.1-1.7-0.1-2.6
			c-0.1-0.9-0.1-1.8-0.1-2.7c-0.1-1-0.1-1.9-0.1-2.9c-0.1-1-0.1-1.9-0.1-2.9c-0.2-1.5,0-3-0.2-4.5c0-1,0-2.1,0-3.1
			c-0.2-1.6-0.1-3.2-0.1-4.7c-0.2-2.2,0-4.3-0.2-6.5c0-2.7,0-5.3,0-8c-0.5-5-0.1-10.3-0.1-15.4c0.3-2.7-0.2-5.4,0.2-8.1
			c0-1.2-0.1-2.5,0.1-3.8c0-0.8,0-1.5,0-2.3c0.1-0.7,0.1-1.4,0.1-2.1c0.1-0.6,0.1-1.3,0.1-1.9c0.1-0.6,0.1-1.2,0.1-1.7
			c0-0.5,0.1-1.1,0.2-1.6c0-0.2,0-0.5,0-0.8c0.1-0.2,0.1-0.4,0.1-0.6c0-0.4,0.1-0.8,0.2-1.1c0-0.2,0-0.3,0.1-0.4c0-0.2,0-0.3,0-0.4
			c0.1-0.1,0.1-0.2,0.1-0.4c0.1-0.1,0.1-0.2,0.1-0.3c0.1-0.1,0.1-0.1,0.1-0.2c0.1-0.1,0.1-0.1,0.1-0.2l0.1-0.1
			c0.2-0.2,0.4-0.3,0.6-0.4c0.1-0.1,0.2-0.1,0.4-0.2c0.2-0.2,0.4-0.4,0.7-0.4c0.5-0.3,1.3-0.6,2-0.6c0.6-0.2,1.4-0.4,2-0.4
			c0.3-0.1,0.5-0.1,0.8-0.2c0.6-0.1,1.2-0.1,1.8-0.2c0.4-0.1,0.7-0.1,1.1-0.1c0.4-0.1,0.8-0.1,1.1-0.1c0.8-0.1,1.7-0.1,2.5-0.2
			c1,0,2,0,2.9,0c2.4-0.2,4.9-0.1,7.3-0.1C544.3,387.3,545.7,387.3,547.2,387.3C547.7,387.3,546.5,387.3,547.2,387.3z M544.2,405.7
			c-0.1,0.1-0.1,0.4-0.1,0.7c0,0.4,0,0.7,0,1c-0.1,0.5-0.1,0.9,0,1.3c0,1,0,1.9,0.1,2.9c0,0.5,0,0.9,0,1.3c0.2,0.7-0.4,2.3,0.9,1.9
			c0.3-0.1,0.7-0.1,1-0.1c0.8-0.2,1.5-0.5,2.2-0.9c0.4-0.2,0.7-0.5,1-0.9c0.3-0.3,0.5-0.6,0.6-1c0.5-1.3,0-3-0.8-4.1
			c-0.3-0.3-0.6-0.6-1-0.9C547.4,406.6,545,405.3,544.2,405.7C544.1,405.9,544.3,405.7,544.2,405.7z M545.4,440.5
			c-0.1,0.1-0.1,0.2,0,0.4c0.1,0.2,0.1,0.4,0,0.6c0,0.2,0,0.5,0,0.8c0.3,1.4-0.1,2.8,0.2,4.2c0,0.9,0,1.8,0.1,2.7
			c0,0.9,0,1.9,0.1,2.8c0,1,0,2,0.1,3c0,0.5,0,0.9,0,1.4c0,0.9,0.1,1.9,0.2,2.8c0,0.5,0,0.9,0,1.4c0.1,0.8,0.1,1.6,0.2,2.4
			c0,0.4,0,0.8,0,1.1c0,0.6,0.1,1.2,0.2,1.8c0,0.3,0,0.6,0,0.8c0.1,0.2,0.1,0.4,0.1,0.6c-0.1,0.2,0,0.3,0.1,0.3
			c0.3,0.1,0.6,0.1,0.9,0.1c0.5,0,1,0,1.5-0.1c0.6-0.1,1.2-0.2,1.9-0.3c1.1-0.4,2.1-0.8,3.1-1.3c0.3-0.2,0.7-0.5,1-0.7
			c0.3-0.3,0.6-0.6,0.9-0.9c0.3-0.3,0.6-0.6,0.8-1c0.6-0.8,1-1.6,1.4-2.5c0.4-1.1,0.6-2.1,0.7-3.2c0-0.6,0-1.3,0-1.9
			c-0.1-0.7-0.1-1.4-0.2-2.1c-0.1-0.6-0.2-1.3-0.3-1.9c-0.4-2.2-1.2-4.1-2.4-5.9c-0.2-0.3-0.5-0.7-0.8-1c-0.3-0.3-0.5-0.7-0.8-1
			c-0.3-0.3-0.7-0.6-1-0.8c-0.6-0.5-1.2-0.9-1.8-1.3c-0.3-0.1-0.7-0.3-1-0.4c-0.3-0.1-0.6-0.2-0.9-0.4c-0.7-0.3-1.6-0.4-2.4-0.6
			c-0.2,0-0.4,0-0.6,0c-0.2,0.1-0.4,0.1-0.6,0C545.6,440.5,545.5,440.5,545.4,440.5z"/>
		<path fill="#020202" d="M590.3,389.5c0.1-0.1,0.1-0.1,0.2-0.2c0.1,0,0.2,0,0.3-0.1c0.2-0.1,0.3-0.1,0.4-0.2c0.2,0,0.4,0,0.6-0.1
			c0.2-0.1,0.4-0.1,0.6-0.2c0.5,0,1-0.1,1.5-0.3c0.6-0.1,1.2-0.1,1.9-0.2c0.3-0.1,0.7-0.1,1.1-0.2c0.8-0.1,1.5-0.1,2.3-0.2
			c0.4-0.1,0.8-0.1,1.2-0.1c0.4-0.1,0.8-0.1,1.2-0.2c0.4,0,0.9,0,1.3-0.1c0.5,0,0.9,0,1.4-0.1c0.4,0,0.9,0,1.4-0.1
			c0.5,0,0.9,0,1.4,0c0.5-0.1,1-0.1,1.5-0.1c1-0.1,2-0.1,2.9-0.2c1,0,2,0,2.9-0.1c1.4,0,2.9,0.1,4.3-0.1c1.4,0,2.8-0.1,4.1,0.1
			c1.2,0,2.5-0.1,3.7,0.1c0.4,0,0.8,0,1.2,0c0.7,0.1,1.4,0.1,2.1,0.2c0.3,0,0.6,0,0.9,0.1c0.6,0.1,1.1,0.1,1.7,0.2
			c0.2,0.1,0.5,0.1,0.7,0.2c0.2,0,0.4,0,0.6,0.1c0.4,0.2,0.8,0.3,1.2,0.5c0.1,0.1,0.1,0.1,0.2,0.2c0.1,0.2,0.2,0.3,0.2,0.5
			c0.1,0.2,0.2,0.5,0.2,0.8c0.7,1.8,0.7,4,0.9,5.9c0,0.5,0,1,0.1,1.5c0,0.5,0,1,0.1,1.5c0,0.5,0,1,0.1,1.5c0,1.8,0.2,3.7-0.1,5.5
			c0,0.4,0,0.8,0,1.2c-0.1,0.4-0.1,0.7-0.2,1c0,0.6-0.1,1.1-0.2,1.7c-0.1,0.2-0.1,0.3-0.2,0.5c-0.1,0.1-0.1,0.2-0.2,0.3
			c-0.2,0.1-0.3,0.2-0.5,0.3c-0.3,0.1-0.5,0.1-0.8,0.1c-1.2,0.2-2.6,0.1-3.8,0.1c-0.5-0.1-1-0.1-1.5-0.1c-0.5-0.1-1-0.1-1.5-0.1
			c-0.5-0.1-0.9-0.1-1.4-0.2c-0.8-0.1-1.6-0.1-2.4-0.2c-0.5,0-1-0.1-1.5-0.2c-0.1,0-0.1,0-0.2,0v0.1c0,0.8,0,1.6,0,2.4
			c-0.5,2.9-0.1,6.2-0.1,9.1c0.3,3-0.1,6,0.2,8.9c0,1.5-0.1,3.1,0.1,4.5c0,1,0,2,0.1,3c0,0.6,0,1.2,0.1,1.8c0,0.6,0,1.2,0.1,1.8
			c0,0.6,0,1.2,0.1,1.7c0,0.6,0,1.2,0.1,1.8c0,1.1,0.1,2.2,0.2,3.2c0,1,0.1,2,0.2,3.1c0,0.9,0.1,1.9,0.2,2.8c0,0.8,0.1,1.6,0.2,2.4
			c0,0.8,0.1,1.5,0.2,2.3c0,0.6,0.1,1.2,0.2,1.8c0.1,0.2,0.1,0.5,0.2,0.8c0,0.2,0,0.5,0.1,0.7c0,0.2,0,0.4,0.1,0.6
			c0,0.1,0,0.3,0,0.4c0,0.2,0.1,0.5,0.2,0.7c0,0.1,0,0.1,0,0.2v0.1c0.1,0,0.1,0,0.2-0.1c0.2,0,0.4,0,0.6-0.1c2-0.4,4.1-0.6,6.1-0.9
			c0.5,0,1,0,1.5-0.1c0.9,0,1.8,0,2.7,0c0.7,0.1,1.4,0.2,2,0.4c0.2,0.1,0.4,0.2,0.6,0.3c0.1,0.1,0.1,0.3,0.2,0.4
			c0.1,0.2,0.2,0.3,0.2,0.5c0.3,1.3,0.6,2.6,0.6,3.9c0.1,0.4,0.1,0.8,0.2,1.2c0,0.5,0,0.9,0.1,1.4c0,0.5,0,0.9,0.1,1.4
			c0,0.5,0,1,0.1,1.5c0,2.5,0.2,5.1-0.1,7.5c0,0.5,0,0.9-0.1,1.3c0,0.5,0,0.9-0.1,1.3c-0.1,0.8-0.1,1.5-0.2,2.3
			c-0.1,0.6-0.2,1.1-0.3,1.7c-0.1,0.2-0.1,0.3-0.2,0.5c-0.1,0.2-0.2,0.4-0.3,0.5c-0.2,0.1-0.4,0.1-0.7,0.2c-0.2,0.1-0.3,0.1-0.5,0.1
			c-0.2,0.1-0.4,0.1-0.6,0.2c-0.2,0-0.4,0-0.6,0.1c-0.3,0-0.5,0-0.7,0.1c-0.3,0-0.5,0-0.8,0.1c-0.3,0-0.6,0-0.9,0
			c-0.3,0.1-0.7,0.1-1,0.1c-0.7,0.1-1.4,0.1-2.1,0.2c-0.4,0-0.8,0-1.1,0c-0.8,0.1-1.6,0.1-2.4,0.1c-0.9,0.1-1.7,0.1-2.6,0.1
			c-2.3,0.3-4.7-0.1-7.1,0.2c-2.4,0-5,0.2-7.4-0.1c-1.9,0-3.9,0.1-5.8-0.1c-0.9,0-1.8,0-2.8,0c-0.9-0.1-1.7-0.1-2.6-0.1
			c-0.8-0.1-1.6-0.1-2.4-0.2c-0.4,0-0.8,0-1.1,0c-0.7-0.1-1.4-0.1-2.1-0.2c-0.3,0-0.7,0-1,0c-0.3-0.1-0.5-0.1-0.8-0.1
			c-0.3-0.1-0.5-0.1-0.8-0.1c-0.3-0.1-0.5-0.1-0.7-0.1c-0.2-0.1-0.4-0.1-0.7-0.1c-0.2-0.1-0.4-0.1-0.6-0.1c-0.2-0.1-0.3-0.1-0.5-0.1
			c-0.1-0.1-0.2-0.1-0.3-0.1c-0.1-0.1-0.2-0.1-0.3-0.1c-0.2-0.1-0.3-0.3-0.3-0.5c-0.1-0.2-0.2-0.3-0.2-0.5c-0.1-0.3-0.1-0.6-0.2-0.8
			c-0.1-0.7-0.2-1.4-0.3-2.1c-0.1-0.9-0.1-1.7-0.2-2.6c-0.1-1-0.1-2-0.1-3c-0.2-1.5-0.2-3.2,0-4.7c0-0.5,0-1,0-1.5
			c0.1-0.5,0.1-1,0.1-1.5c0.1-0.5,0.1-1,0.2-1.5c0-1.4,0.1-3.2,0.7-4.5c0.1-0.3,0.1-0.6,0.2-0.8c0.1-0.2,0.1-0.3,0.2-0.5
			c0.1-0.2,0.2-0.3,0.3-0.3c0.2-0.1,0.4-0.2,0.7-0.3c0.3-0.1,0.7-0.2,1-0.2c0.4-0.1,0.8-0.1,1.1,0c0.4,0,0.9,0,1.3,0
			c1.8,0.2,3.6,0.3,5.4,0.8c0.6,0.1,1.3,0.2,1.9,0.3c0.2,0.1,0.4,0.1,0.6,0.2c0.1,0,0.1,0,0.2,0v-0.1c0-0.1,0-0.1,0-0.2
			c0.1-0.2,0.1-0.5,0.1-0.7c0.1-0.4,0.1-0.8,0.2-1.1c0-0.2,0-0.5,0.1-0.7c0-0.3,0-0.6,0.1-0.8c0-0.3,0-0.6,0.1-1c0-0.3,0-0.6,0.1-1
			c0.1-0.7,0.1-1.5,0.2-2.2c0.1-0.5,0.1-0.9,0.2-1.3c0.1-0.9,0.1-1.7,0.2-2.6c0.1-0.5,0.1-1,0.2-1.5c0-0.5,0-1,0.1-1.5
			c0.1-1,0.1-2.1,0.2-3.1c0.1-0.5,0.1-1.1,0.1-1.7c0.1-0.6,0.1-1.1,0.2-1.7c0-0.6,0-1.2,0.1-1.7c0-0.6,0-1.2,0.1-1.8
			c0-0.6,0-1.2,0-1.7c0.1-0.6,0.1-1.3,0.1-1.8c0-1.3,0.1-2.7,0.2-4c0-1.3,0-2.5,0.1-3.8c0-1.7-0.1-3.4,0.1-5.1c0-3.6,1-8.8-0.1-12.2
			c0-0.3,0-0.5,0-0.8v-0.1c-0.1,0-0.1,0-0.2,0c-0.2,0.1-0.3,0.1-0.5,0.2c-1.8,0-3.5,0.7-5.3,0.7c-1.3,0.2-2.6,0.1-3.9,0.1
			c-0.4-0.1-0.8-0.1-1.1-0.2c-0.8-0.3-1.9-0.5-2.3-1.4c-0.4-0.5-0.5-1.6-0.6-2.2c0-0.4,0-0.7-0.1-1c0-0.4,0-0.8-0.1-1.2
			c0-1.4,0-2.7,0-4.1c0.1-0.5,0.1-1,0.1-1.5c0.1-0.5,0.1-1,0.1-1.5c0.2-1.8,0.3-3.8,0.7-5.6c0.1-0.4,0.1-0.8,0.2-1.1
			c0.1-0.4,0.2-0.7,0.2-1c0.1-0.3,0.2-0.6,0.3-0.8c0.1-0.2,0.1-0.5,0.2-0.7C590.1,389.7,590.2,389.6,590.3,389.5
			C590.4,389.4,590.2,389.6,590.3,389.5z"/>
	</g>
</g>
<path fill="#020202" d="M468.8,364.5c-3.4,0-6,8.2-11.5,7.9c-5.5-0.3-5.5-4.9-5.5-6.7c0-3.8,3.8-10.1,5.8-12.4c2-2.4,5-5.4,10.9-5.4
	c8.1,0,9.7,8.3,16.2,8.3c3.7,0,6.6-10.1,13.6-10.1c12.5,0,4.2,13.5,2.9,15.6c-2.1,3.3-8.3,11.8-16.7,11.8
	C476.1,373.5,474.5,364.5,468.8,364.5"/>
</svg>
