<?xml version="1.0" encoding="utf-8"?>
<!-- Generator: Adobe Illustrator 18.0.0, SVG Export Plug-In . SVG Version: 6.00 Build 0)  -->
<!DOCTYPE svg PUBLIC "-//W3C//DTD SVG 1.0//EN" "http://www.w3.org/TR/2001/REC-SVG-20010904/DTD/svg10.dtd">
<svg version="1.0" id="Camada_1" xmlns="http://www.w3.org/2000/svg" xmlns:xlink="http://www.w3.org/1999/xlink" x="0px" y="0px"
	 viewBox="120 348 375 183" enable-background="new 120 348 375 183" xml:space="preserve">
<g>
	<g>
		<path fill="#1B7C09" d="M175.1,460L175.1,460c-0.1-0.1-0.1-0.1-0.1-0.2c-0.1-0.1-0.1-0.2-0.1-0.3c-0.1-0.1-0.1-0.2-0.2-0.3
			c-0.1-0.2-0.1-0.3-0.2-0.4c-0.1-0.1-0.1-0.3-0.2-0.4c-0.1-0.2-0.2-0.3-0.3-0.5c-0.1-0.2-0.1-0.4-0.2-0.6c-0.1-0.2-0.2-0.5-0.3-0.7
			c-0.2-0.3-0.3-0.6-0.4-0.8c-0.1-0.3-0.2-0.6-0.4-0.8c-0.1-0.3-0.2-0.6-0.4-0.9c-0.2-0.3-0.3-0.7-0.4-1c-0.2-0.3-0.3-0.7-0.5-1
			c-0.3-0.7-0.7-1.5-1.1-2.2c-0.3-0.8-0.7-1.5-1.1-2.3c-0.2-0.4-0.4-0.8-0.6-1.2c-0.2-0.4-0.4-0.8-0.6-1.2c-0.4-0.9-0.9-1.7-1.3-2.6
			c-1.1-2.8-2.5-5.6-3.8-8.3c-2.6-4.5-4.4-9.6-6.6-14.3c-0.4-0.9-0.8-1.7-1.1-2.6c-0.2-0.5-0.4-0.9-0.6-1.3
			c-0.4-0.9-0.7-1.7-1.1-2.5c-0.5-1.1-0.9-2.3-1.5-3.4c-0.1-0.4-0.2-0.7-0.4-1.1c-0.2-0.3-0.3-0.6-0.4-1c-0.3-0.6-0.5-1.3-0.7-1.9
			c-0.2-0.5-0.4-1-0.7-1.6c-0.1-0.2-0.1-0.5-0.2-0.8c-0.1-0.2-0.1-0.4-0.2-0.6c-0.1-0.2-0.1-0.4-0.2-0.6c-0.1-0.2-0.1-0.4-0.1-0.5
			c-0.1-0.1-0.1-0.3-0.2-0.4c0-0.1,0-0.2,0-0.3c-0.1-0.1-0.1-0.1,0-0.3c0-0.1,0-0.2,0.1-0.3c0.1-0.1,0.2-0.1,0.4-0.1
			c0.2-0.1,0.4-0.1,0.6-0.2c0.3,0,0.5,0,0.7-0.1c0.6-0.1,1.3-0.1,2-0.2c0.4,0,0.8,0,1.1-0.1c0.8,0,1.7,0,2.5-0.1c2.3,0,4.6,0,6.9,0
			c0.9,0.1,1.7,0.1,2.6,0.1c0.8,0,1.5,0.1,2.3,0.2c0.3,0,0.7,0,1,0.1c0.3,0,0.6,0,0.9,0.1c0.2,0,0.4,0,0.7,0.1c0.2,0,0.4,0,0.6,0.1
			c0.1,0,0.2,0,0.3,0.1c0.1,0.1,0.1,0.1,0.2,0.2c0.1,0.1,0.2,0.2,0.2,0.4c0.1,0.2,0.2,0.3,0.3,0.5c0.2,0.2,0.3,0.4,0.4,0.6
			c0.2,0.3,0.3,0.6,0.4,0.8c0.2,0.3,0.3,0.6,0.5,0.9c0.2,0.3,0.4,0.7,0.6,1c0.2,0.3,0.4,0.7,0.6,1.1c0.4,0.8,0.8,1.6,1.1,2.4
			c2.8,6,5.3,12.2,8.4,18c0.2,0.4,0.3,0.7,0.5,1c0.1,0.4,0.2,0.7,0.4,1c0.1,0.3,0.2,0.6,0.4,0.9c0.1,0.2,0.2,0.5,0.3,0.7
			c0.1,0.2,0.1,0.4,0.2,0.6c0.1,0.3,0.2,0.5,0.3,0.7v0.1v-0.1c0.1-0.2,0.2-0.4,0.3-0.6c0.1-0.2,0.1-0.4,0.2-0.6
			c0.5-1.1,1.1-2.3,1.5-3.5c0.2-0.4,0.3-0.7,0.5-1c0.4-0.8,0.8-1.7,1.1-2.5c0.4-0.9,0.8-1.8,1.1-2.7c1.9-4.2,4.1-8.3,5.8-12.6
			c0.2-0.4,0.4-0.8,0.7-1.2c0.2-0.4,0.4-0.8,0.6-1.2c0.2-0.3,0.4-0.7,0.6-1c0.2-0.3,0.3-0.6,0.5-1c0.2-0.3,0.3-0.6,0.5-0.9
			c0.1-0.2,0.2-0.5,0.4-0.7c0.3-0.5,0.6-1,1-1.4c0.1-0.1,0.1-0.1,0.2-0.2c0.3-0.1,0.6-0.1,1-0.2c0.3,0,0.5,0,0.8-0.1
			c0.3,0,0.6,0,0.9,0c0.8-0.1,1.5-0.1,2.3-0.2c3.6,0,7.5-0.4,11.1,0.1c0.8,0,1.6,0,2.4,0.1c0.3,0,0.7,0,1,0.1c0.3,0,0.6,0,0.9,0.1
			c0.3,0,0.5,0,0.7,0.1c0.2,0,0.4,0,0.6,0.1c0.1,0,0.2,0,0.2,0.1c0.2,0,0,0.5,0,0.5c0,0.1,0,0.2-0.1,0.4c-0.1,0.2-0.1,0.3-0.1,0.4
			c-0.1,0.2-0.1,0.3-0.2,0.5c-0.1,0.2-0.2,0.4-0.2,0.6c-0.2,0.4-0.3,0.9-0.5,1.3c-0.1,0.3-0.2,0.6-0.3,0.8c-0.1,0.3-0.2,0.6-0.3,0.9
			c-0.3,0.6-0.5,1.3-0.8,1.9c-0.1,0.3-0.2,0.7-0.4,1c-0.6,1.6-1.3,3.1-2,4.6c-1.1,2.1-1.9,4.3-2.9,6.5c-1.7,4.9-4.3,9.7-6.4,14.3
			c-1,1.9-1.8,3.8-2.7,5.7c-0.5,1.4-1.2,2.7-1.9,4.1c-1.2,3.1-3.2,6.1-4.2,9.3c-0.2,0.3-0.3,0.6-0.5,0.9c-0.1,0.3-0.2,0.6-0.4,0.9
			c-0.1,0.3-0.2,0.6-0.4,0.9c-0.1,0.2-0.2,0.5-0.3,0.8c-0.1,0.2-0.2,0.5-0.3,0.7c-0.1,0.2-0.2,0.4-0.3,0.6c-0.1,0.2-0.1,0.3-0.2,0.5
			c-0.1,0.2-0.1,0.3-0.2,0.4c-0.1,0.3-0.2,0.5-0.3,0.7c0,0.1,0,0.2-0.1,0.3c0,0.1,0,0.1-0.1,0.2v0.1c0,0.1,0,0.1,0.1,0.2
			c0,0.1,0,0.2,0,0.3c0.1,0.1,0.1,0.3,0.1,0.4c0.1,0.2,0.1,0.3,0.1,0.5c0.1,0.5,0.2,0.9,0.2,1.4c0.2,1.3,0.4,2.6,0.7,3.8
			c0.3,1.2,0.3,2.5,0.7,3.7c0.1,0.9,0.2,1.8,0.4,2.6c0.1,0.5,0.1,0.9,0.2,1.4c0.2,1,0.3,1.9,0.5,2.9c0.1,0.5,0.1,1,0.2,1.5
			c0.2,1,0.3,1.9,0.4,2.9c0.4,1.9,0.4,3.9,0.8,5.9c0.1,0.5,0.1,0.9,0.1,1.4c0.2,1.3,0.4,2.6,0.4,3.9c0.1,0.4,0.1,0.8,0.2,1.2
			c0,0.4,0,0.8,0.1,1.2c0,0.3,0,0.7,0,1c0.2,1.3,0.1,2.8,0,4c0,0.5-0.1,0.9-0.2,1.4c-0.1,0.3-0.3,0.5-0.5,0.7
			c-0.1,0.1-0.2,0.1-0.3,0.2c-0.2,0-0.4,0.1-0.6,0.2c-0.2,0.1-0.4,0.1-0.7,0.1c-0.3,0.1-0.5,0.1-0.8,0.2c-1,0-2.1,0.1-3,0.3
			c-0.4,0-0.8,0-1.2,0.1c-0.8,0-1.7,0-2.5,0.1c-2.3,0-4.7,0.2-7-0.1c-1,0-1.9,0-2.8-0.1c-0.5,0-0.9,0-1.4-0.1c-0.4,0-0.9,0-1.3,0
			c-0.4-0.1-0.9-0.1-1.3-0.1c-0.4-0.1-0.8-0.1-1.2-0.2c-0.4,0-0.8,0-1.1-0.1c-0.7,0-1.3-0.1-2-0.3c-0.5,0-1-0.1-1.5-0.3
			c-0.2-0.1-0.4-0.1-0.6-0.2c-0.3-0.1-0.5-0.2-0.7-0.3c-0.1-0.1-0.1-0.1-0.1-0.2c-0.1-0.1-0.1-0.2-0.2-0.3c0-0.2,0-0.3,0-0.5
			c-0.4-1.2-0.1-2.9-0.1-4.2c0.1-0.4,0.1-0.8,0.1-1.1c0.1-0.4,0.1-0.8,0.1-1.2c0.1-0.5,0.1-0.9,0.1-1.3c0.1-0.5,0.1-0.9,0.2-1.4
			c0-1.5,0.3-2.9,0.4-4.4c0-1.1,0.1-2.1,0.2-3.1c0.5-2.6,0.4-5.3,1-7.9c0.2-1.5,0.3-3,0.5-4.5c0.6-2.4,0.7-5,1.1-7.5
			c0-0.7,0.1-1.3,0.2-1.9c0-0.2,0-0.5,0.1-0.7c0-0.2,0-0.4,0.1-0.6c0-0.2,0-0.3,0.1-0.5c0-0.1,0-0.3,0-0.4
			C175.1,460.2,175.1,460.1,175.1,460L175.1,460z"/>
		<path fill="#020202" d="M229.6,402.4c0.1-0.1,0.2-0.2,0.4-0.3c0.3-0.1,0.5-0.2,0.7-0.3c0.3-0.1,0.6-0.1,0.9-0.3
			c1.2-0.2,2.4-0.4,3.6-0.5c0.5,0,1,0,1.5-0.1c0.5,0,1,0,1.5-0.1c1.5,0,3,0,4.5,0c1.3,0.2,2.8,0.3,4.1,0.3c1,0.2,2,0.3,2.9,0.5
			c0.2,0.1,0.4,0.2,0.7,0.3c0.1,0.1,0.2,0.1,0.3,0.3c0.1,0.1,0.2,0.1,0.2,0.3c-0.1,0.4-0.1,0.7-0.2,1c0,0.4,0,0.7-0.1,1
			c-0.1,0.7-0.1,1.5-0.2,2.2c-0.1,0.3-0.1,0.7-0.2,1c-0.1,0.8-0.1,1.5-0.2,2.3c-0.1,0.8-0.2,1.6-0.2,2.4c-0.1,0.8-0.2,1.6-0.2,2.4
			c-0.1,0.8-0.2,1.7-0.2,2.5c-0.1,0.4-0.1,0.8-0.2,1.2c0,0.9-0.1,1.8-0.2,2.6c-0.1,0.9-0.1,1.7-0.2,2.6c-0.1,0.4-0.1,0.8-0.1,1.3
			c-0.1,0.4-0.1,0.8-0.2,1.3c0,0.4,0,0.8-0.1,1.3c0,0.4,0,0.8-0.1,1.3c0,0.5,0,0.9-0.1,1.3c0,0.5,0,0.9-0.1,1.4c0,0.4,0,0.8,0,1.3
			c-0.1,0.9-0.1,1.7-0.1,2.6c-0.3,2.4-0.3,5.4,0,7.8c0,0.8,0,1.7,0.1,2.5c0,0.4,0,0.8,0.1,1.2c0.1,0.8,0.1,1.6,0.2,2.4
			c0.1,0.8,0.2,1.6,0.2,2.4c0.1,0.3,0.1,0.7,0.2,1c0.3,1.1,0.3,2.2,0.7,3.2c0.1,0.3,0.1,0.7,0.2,1c0.1,0.7,0.3,1.3,0.5,2
			c0.3,0.9,0.5,1.9,1.1,2.6c0.1,0.3,0.2,0.6,0.3,0.9c0.2,0.3,0.3,0.6,0.4,0.8c0.2,0.2,0.3,0.5,0.5,0.8c0.2,0.5,0.5,0.9,0.9,1.3
			c0.3,0.5,0.6,0.9,1.1,1.2c0.3,0.4,0.7,0.8,1.1,1c0.2,0.2,0.4,0.3,0.7,0.4c0.4,0.3,0.9,0.6,1.4,0.8c0.2,0.1,0.5,0.2,0.7,0.3
			c0.7,0.4,1.6,0.5,2.4,0.6c0.3,0,0.5,0,0.8,0.1c0.6,0,1.2,0,1.8-0.1c1,0,2.3-0.3,3.3-0.7c0.2-0.1,0.5-0.2,0.7-0.3
			c0.2-0.1,0.4-0.3,0.7-0.4c0.2-0.1,0.4-0.2,0.7-0.3c0.6-0.5,1.2-0.9,1.8-1.5c0.2-0.2,0.3-0.4,0.5-0.6c0.2-0.2,0.4-0.4,0.6-0.6
			c0.2-0.2,0.3-0.5,0.4-0.7c0.2-0.2,0.3-0.5,0.5-0.7c0.2-0.3,0.3-0.6,0.4-0.8c0.3-0.5,0.5-1,0.8-1.6c0.3-0.9,0.7-1.8,0.9-2.7
			c0.1-0.3,0.2-0.6,0.3-1c0.1-0.3,0.1-0.6,0.2-1c0.1-0.3,0.1-0.7,0.2-1c0.1-0.7,0.2-1.4,0.3-2.1c0.1-0.3,0.2-0.7,0.2-1
			c0.1-1.1,0.4-2.3,0.4-3.4c0.1-0.4,0.1-0.8,0.1-1.2c0.1-0.4,0.1-0.8,0.1-1.1c0.1-0.8,0.1-1.6,0.2-2.4c0-2.5,0.2-5.1-0.1-7.6
			c0-0.5,0-0.9,0-1.3c-0.1-0.9-0.1-1.7-0.2-2.6c0-0.5,0-0.9-0.1-1.3c0-0.5,0-0.9-0.1-1.3c0-0.5,0-0.9-0.1-1.3
			c-0.1-0.9-0.1-1.7-0.2-2.6c-0.1-0.5-0.1-0.9-0.2-1.3c0-1.3-0.3-2.6-0.3-3.9c-0.1-0.8-0.2-1.7-0.3-2.5c0-1.3-0.2-2.5-0.4-3.8
			c0-1.2-0.2-2.4-0.4-3.6c0-1.2-0.3-2.3-0.4-3.5c0-0.7-0.1-1.5-0.2-2.2c-0.1-0.7-0.1-1.4-0.2-2.1c-0.1-0.3-0.1-0.7-0.2-1
			c0-0.1,0.1-0.2,0.2-0.4c0.1-0.1,0.2-0.1,0.3-0.3c0.2-0.1,0.4-0.1,0.6-0.2c0.3-0.1,0.5-0.1,0.8-0.2c0.3-0.1,0.7-0.2,1-0.2
			c0.8-0.1,1.6-0.2,2.4-0.3c0.4,0,0.9,0,1.4-0.1c0.4,0,0.9,0,1.4,0c1.9-0.2,4-0.2,5.9,0c0.5,0,0.9,0,1.4,0.1c0.4,0,0.9,0,1.3,0.1
			c1,0,2.1,0.3,3.1,0.4c0.2,0.1,0.4,0.1,0.7,0.2c0.2,0.1,0.3,0.1,0.5,0.3c0.1,0.1,0.1,0.1,0.2,0.2c0.2,0.7,0.4,1.5,0.7,2.2
			c0.2,1.1,0.6,2.1,0.8,3.2c0.1,0.3,0.2,0.7,0.3,1.1c0.2,0.8,0.3,1.5,0.5,2.3c0.1,0.4,0.2,0.7,0.2,1.1c0.1,0.3,0.2,0.7,0.2,1.1
			c0.1,0.4,0.2,0.8,0.2,1.1c0.1,0.4,0.2,0.8,0.2,1.2c0.1,0.4,0.2,0.7,0.2,1.1c0.2,0.8,0.3,1.6,0.5,2.4c0.1,0.8,0.2,1.6,0.4,2.4
			c0.4,3.2,1.2,6.6,1.2,9.9c0.1,0.5,0.1,0.9,0.2,1.3c0.1,0.8,0.1,1.6,0.2,2.4c0.1,0.5,0.1,0.9,0.1,1.3c0.1,0.4,0.1,0.8,0.1,1.2
			c0.1,0.5,0.1,0.9,0.1,1.3c0.1,0.8,0.1,1.7,0.2,2.5c0,0.8,0,1.6,0.1,2.4c0,1.7,0.1,3.4-0.1,5.1c0,0.8,0,1.7,0,2.5
			c-0.1,0.8-0.1,1.6-0.2,2.4c0,0.4,0,0.8-0.1,1.2c0,0.4,0,0.8-0.1,1.2c0,0.8-0.1,1.6-0.2,2.4c0,2.2-0.3,5-1,7.1
			c-0.1,0.8-0.2,1.6-0.4,2.4c-0.1,0.3-0.1,0.7-0.2,1.1c-0.2,0.8-0.3,1.5-0.5,2.3c-0.1,0.3-0.2,0.7-0.3,1c-0.2,1.5-0.8,2.9-1.2,4.3
			c-0.3,0.7-0.5,1.4-0.7,2.1c-0.2,0.4-0.3,0.7-0.4,1c-0.2,0.3-0.3,0.6-0.4,1c-0.2,0.3-0.3,0.7-0.5,1c-0.1,0.3-0.2,0.7-0.4,1
			c-0.2,0.3-0.3,0.7-0.5,1c-0.2,0.6-0.5,1.3-0.9,1.8c-0.2,0.3-0.4,0.7-0.6,1c-0.3,0.6-0.7,1.2-1.1,1.8c-0.4,0.5-0.8,1.1-1.1,1.7
			c-0.4,0.6-0.8,1.1-1.2,1.6c-0.2,0.2-0.4,0.5-0.6,0.8c-0.6,0.7-1.3,1.5-2,2.1c-0.2,0.2-0.5,0.5-0.7,0.7c-0.2,0.2-0.5,0.5-0.7,0.7
			c-0.2,0.2-0.5,0.4-0.7,0.6c-0.5,0.4-1,0.8-1.5,1.2c-0.8,0.5-1.6,1-2.4,1.6c-0.3,0.2-0.6,0.3-0.9,0.4c-0.3,0.2-0.6,0.3-0.9,0.5
			c-0.3,0.1-0.6,0.3-0.9,0.4c-0.3,0.1-0.6,0.2-0.9,0.3c-0.3,0.1-0.7,0.2-1,0.3c-0.3,0.2-0.7,0.3-1,0.4c-0.7,0.3-1.3,0.5-2,0.6
			c-0.3,0.1-0.7,0.2-1,0.3c-1.7,0.5-3.8,0.9-5.5,0.9c-0.8,0.1-1.6,0.1-2.4,0.1c-0.8,0.1-1.6,0.1-2.4,0c-0.4,0-0.8,0-1.1,0
			c-0.4-0.1-0.8-0.1-1.2-0.1c-0.4-0.1-0.8-0.1-1.1-0.2c-1.1,0-2.3-0.2-3.3-0.5c-0.3-0.1-0.7-0.1-1.1-0.3c-0.3-0.1-0.7-0.1-1.1-0.3
			c-1.6-0.3-3.5-1-4.9-1.7c-0.3-0.1-0.6-0.3-0.9-0.4c-0.3-0.1-0.6-0.3-0.9-0.4c-0.3-0.2-0.6-0.3-0.9-0.5c-0.6-0.3-1.1-0.6-1.6-1
			c-0.6-0.3-1.1-0.7-1.6-1.1c-0.5-0.4-1-0.8-1.5-1.2c-0.4-0.5-0.9-0.9-1.4-1.3c-0.5-0.4-1-0.9-1.4-1.5c-0.5-0.5-0.9-1-1.3-1.5
			c-0.4-0.6-0.8-1.1-1.2-1.6c-0.2-0.3-0.4-0.6-0.6-0.9c-0.2-0.2-0.4-0.5-0.6-0.8c-0.2-0.3-0.4-0.6-0.6-0.9c-0.3-0.6-0.7-1.2-1-1.7
			c-0.3-0.6-0.7-1.3-1-1.9c-0.2-0.3-0.3-0.6-0.5-0.9c-0.2-0.3-0.3-0.7-0.4-1c-0.2-0.3-0.3-0.6-0.4-1c-0.2-0.3-0.3-0.6-0.4-1
			c-0.2-0.3-0.3-0.7-0.4-1c-0.3-0.7-0.5-1.3-0.7-2c-0.5-1-0.8-2.2-1-3.2c-0.2-0.7-0.4-1.5-0.7-2.2c-0.2-0.8-0.3-1.5-0.5-2.3
			c-0.2-0.8-0.3-1.5-0.5-2.3c-0.1-0.4-0.1-0.8-0.2-1.1c-0.6-2.2-1-4.9-1-7.2c-0.1-0.4-0.1-0.8-0.2-1.2c-0.1-0.8-0.1-1.6-0.2-2.4
			c-0.1-0.8-0.1-1.6-0.2-2.4c0-0.4,0-0.8-0.1-1.3c0-0.8,0-1.6,0-2.4c-0.2-1.6-0.2-3.5,0-5.1c0-0.8,0-1.7,0-2.5
			c0.1-0.8,0.1-1.7,0.2-2.5c0-0.4,0-0.8,0.1-1.3c0-0.4,0-0.8,0.1-1.2c0-0.4,0-0.8,0.1-1.3c0-0.4,0-0.8,0.1-1.2
			c0-0.9,0.1-1.7,0.2-2.5c0-3.5,0.6-7.8,1.5-11.2c0.1-0.8,0.2-1.6,0.4-2.4c0.1-0.4,0.1-0.8,0.2-1.2c0.2-0.8,0.3-1.6,0.5-2.4
			c0.1-0.4,0.1-0.7,0.2-1.1c0.1-0.4,0.1-0.8,0.2-1.2c0.2-0.8,0.3-1.5,0.5-2.3c0.1-0.4,0.2-0.8,0.2-1.1c0.1-0.4,0.2-0.8,0.3-1.1
			c0.1-0.8,0.3-1.5,0.6-2.3c0.1-0.7,0.3-1.5,0.6-2.2C229.4,402.6,229.4,402.5,229.6,402.4C229.7,402.3,229.4,402.5,229.6,402.4z"/>
		<path fill="#020202" d="M308.5,402.2c0.2-0.1,0.3-0.1,0.5-0.2c1.1-0.3,2.4-0.6,3.6-0.6c0.4-0.1,0.8-0.1,1.2-0.1
			c0.4-0.1,0.9-0.1,1.3-0.1c0.9-0.1,1.8-0.1,2.8-0.1c1.4-0.2,2.9-0.2,4.3,0c0.9,0,1.8,0,2.8,0.1c0.4,0,0.8,0,1.2,0.1
			c0.4,0,0.8,0,1.2,0.1c0.7,0,1.3,0.1,2,0.3c0.2,0,0.5,0,0.7,0.1c0.2,0.1,0.4,0.1,0.6,0.2c0.1,0.1,0.2,0.1,0.4,0.3
			c0.1,0,0.1,0.1,0.1,0.2c0.1,0.1,0.1,0.1,0.2,0.3c0.1,0.2,0.2,0.3,0.2,0.4c0.1,0.2,0.1,0.4,0.2,0.6c0.1,0.5,0.2,1.1,0.4,1.6
			c0.1,0.6,0.2,1.3,0.4,1.9c0.1,0.3,0.1,0.7,0.2,1.1c0.1,0.4,0.2,0.7,0.2,1.1c0.2,0.9,0.3,1.7,0.5,2.6c0.1,0.5,0.1,0.9,0.2,1.4
			c0.1,0.5,0.1,1,0.2,1.5c0.1,0.5,0.1,1,0.2,1.5c0.1,0.5,0.2,1,0.2,1.5c0.1,0.5,0.2,1,0.2,1.6c0.1,0.5,0.2,1.1,0.2,1.7
			c0.1,0.5,0.2,1,0.2,1.6c0.2,1.1,0.3,2.2,0.5,3.2c0.1,0.5,0.1,1,0.2,1.6c0.1,0.5,0.1,1.1,0.2,1.7c0.2,1,0.3,2,0.4,3.1
			c0.3,1.4,0.3,2.9,0.7,4.4c0.2,1.7,0.4,3.4,0.7,5.1c0,0.7,0.1,1.3,0.2,2c0,0.7,0.1,1.5,0.2,2.2c0,0.2,0,0.3,0.1,0.5
			c0,0.1,0,0.2,0,0.3c0.1,0.1,0.1,0.1,0.1,0.2v0.1v-0.1c0-0.1,0-0.1,0.1-0.2c0-0.1,0-0.2,0.1-0.3c0.1-0.2,0.1-0.3,0.2-0.4
			c0.1-0.2,0.1-0.4,0.2-0.6c0.1-0.2,0.1-0.5,0.2-0.7c0.1-0.3,0.1-0.6,0.2-0.8c0.1-0.4,0.2-0.7,0.2-1c0.4-1.1,0.6-2.2,1.1-3.2
			c0.1-0.4,0.2-0.8,0.3-1.2c0.2-0.4,0.3-0.8,0.4-1.2c0.2-0.5,0.3-0.9,0.5-1.3c0.2-0.9,0.5-1.9,0.9-2.8c1.4-6.9,4.9-13.2,6.8-19.9
			c0.2-0.3,0.3-0.7,0.5-1.1c0.1-0.3,0.2-0.7,0.4-1c0.2-0.6,0.5-1.2,0.8-1.8c0.1-0.2,0.2-0.5,0.3-0.8c0.1-0.2,0.2-0.4,0.3-0.6
			c0.1-0.2,0.2-0.4,0.3-0.6c0.1-0.1,0.2-0.3,0.2-0.4c0.1,0,0.5-0.6,0.7-0.4c0.1,0,0.1,0,0.2,0.1c0.1,0.1,0.2,0.1,0.2,0.3
			c0.1,0.1,0.2,0.2,0.2,0.3c0.1,0.2,0.2,0.4,0.2,0.6c0.4,0.7,0.6,1.5,1.1,2.3c0.1,0.3,0.2,0.6,0.3,1c0.2,0.4,0.3,0.7,0.4,1
			c0.2,0.4,0.3,0.7,0.4,1.1c0.2,0.4,0.3,0.8,0.4,1.2c0.4,0.8,0.7,1.7,0.9,2.6c1,3,2,5.9,2.9,8.9c0.6,2.6,1.7,5,2.3,7.6
			c0.2,0.5,0.3,1,0.5,1.5c0.1,0.5,0.2,0.9,0.4,1.4c0.1,0.5,0.2,0.9,0.4,1.4c0.1,0.5,0.2,0.9,0.4,1.4c0.1,0.4,0.2,0.8,0.3,1.2
			c0.4,1,0.8,2.2,1,3.3c0.1,0.3,0.2,0.7,0.3,1c0.1,0.3,0.1,0.6,0.2,0.9c0.1,0.5,0.2,0.9,0.4,1.3c0,0.2,0,0.4,0.1,0.5
			c0.1,0.1,0.1,0.2,0.2,0.3c0,0.1,0,0.2,0.1,0.3v-0.1c0-0.2,0-0.4,0.1-0.5c0-0.2,0-0.4,0-0.5c0.1-0.2,0.1-0.4,0.1-0.6
			c0.1-0.2,0.1-0.5,0.2-0.7c0-0.3,0-0.6,0.1-0.8c0.1-0.4,0.1-0.7,0.2-1c0-1.9,0.4-4.1,0.8-5.9c0.1-0.9,0.2-1.9,0.3-2.8
			c0.2-1,0.3-2,0.5-3.1c0.1-0.5,0.1-1,0.2-1.6c0.1-0.5,0.2-1,0.2-1.6c0.1-0.5,0.2-1,0.2-1.6c0.2-1.1,0.3-2.2,0.5-3.2
			c0.1-0.5,0.1-1,0.2-1.6c0.1-0.5,0.1-1,0.2-1.6c0.1-0.5,0.1-1,0.2-1.6c0.1-0.5,0.1-1,0.2-1.6c0.1-0.5,0.1-1,0.2-1.5
			c0.1-0.5,0.1-1,0.2-1.5c0.1-0.5,0.1-1,0.2-1.5c0.1-0.5,0.1-0.9,0.2-1.3c0.1-0.5,0.1-0.9,0.2-1.3c0.1-0.8,0.3-1.6,0.5-2.4
			c0.1-0.3,0.1-0.7,0.2-1c0.3-0.9,0.3-1.9,0.7-2.7c0.1-0.4,0.2-0.9,0.3-1.3c0.1-0.1,0.1-0.3,0.2-0.4c0-0.1,0-0.2,0.1-0.3
			c0.1-0.1,0.1-0.2,0.2-0.2c0.1-0.1,0.2-0.2,0.3-0.3c0.2-0.1,0.4-0.1,0.6-0.2c0.9-0.2,1.9-0.4,2.8-0.5c0.8-0.1,1.6-0.1,2.4-0.2
			c0.5-0.1,0.9-0.1,1.4-0.1c0.5-0.1,1-0.1,1.5-0.1c1-0.1,2-0.1,2.9-0.2c1.4,0,2.8,0,4.2,0c0.8,0.1,1.6,0.1,2.4,0.2
			c0.3,0,0.7,0,1.1,0.1c0.5,0,1,0.1,1.5,0.3c0.2,0,0.3,0.1,0.5,0.2c0.1,0,0.1,0.1,0.2,0.2v0.1c0,0.1,0,0.1,0.1,0.1
			c0,1.1,0,2.3,0,3.4c-0.2,0.7-0.1,1.5-0.1,2.2c-0.1,0.6-0.1,1.1-0.1,1.7c-0.1,0.6-0.1,1.2-0.1,1.8c-0.1,0.7-0.1,1.4-0.2,2.1
			c0,0.3,0,0.7,0,1c-0.1,0.4-0.1,0.8-0.1,1.1c-0.1,0.8-0.1,1.6-0.2,2.4c0,0.4,0,0.8-0.1,1.2c0,0.4,0,0.8-0.1,1.2
			c0,0.5,0,0.9-0.1,1.3c0,0.4,0,0.8-0.1,1.3c0,0.5,0,0.9-0.1,1.3c0,0.5,0,0.9-0.1,1.4c0,0.5,0,0.9-0.1,1.4c-0.1,1-0.1,1.9-0.2,2.9
			c-0.1,0.5-0.1,1-0.1,1.5c-0.1,0.5-0.1,1-0.2,1.5c0,0.5,0,1-0.1,1.5c-0.1,1-0.1,2-0.2,3.1c-0.1,0.5-0.1,1-0.2,1.6
			c-0.1,1-0.1,2-0.2,3.1c-0.1,0.5-0.1,1.1-0.2,1.7c-0.1,1-0.1,2.1-0.2,3.1c-0.1,1.1-0.2,2.2-0.2,3.2c-0.1,1-0.2,2.1-0.2,3.1
			c-0.1,0.6-0.1,1.1-0.2,1.7c0,1.1-0.1,2.1-0.2,3.1c0,1.1-0.1,2.2-0.2,3.2c0,1.1-0.1,2.1-0.2,3.1c0,1-0.1,2-0.2,3.1
			c0,1-0.1,2-0.2,3.1c0,1-0.1,2-0.2,3.1c0,1-0.1,1.9-0.2,2.9c0,0.9-0.1,1.9-0.2,2.8c-0.1,0.9-0.1,1.8-0.2,2.7
			c-0.1,0.5-0.1,0.9-0.2,1.3c0,0.9-0.1,1.8-0.2,2.6c0,0.8-0.1,1.6-0.2,2.4c-0.1,0.4-0.1,0.8-0.2,1.1c-0.1,0.8-0.1,1.5-0.2,2.3
			c-0.1,0.3-0.1,0.7-0.1,1c-0.1,0.3-0.1,0.6-0.2,1c0,0.3,0,0.6-0.1,1c-0.1,0.6-0.1,1.2-0.2,1.8c-0.1,0.3-0.1,0.6-0.1,0.9
			c-0.1,0.2-0.1,0.5-0.1,0.8c-0.1,0.2-0.1,0.5-0.1,0.7c-0.1,0.2-0.1,0.4-0.1,0.6c-0.1,0.2-0.1,0.5-0.1,0.7c-0.1,0.2-0.1,0.3-0.1,0.5
			c-0.1,0.2-0.1,0.3-0.1,0.5c-0.1,0.1-0.1,0.3-0.1,0.4c0,0.2-0.1,0.5-0.2,0.7c0,0.1,0,0.2,0,0.3c-0.1,0.1-0.1,0.2-0.2,0.3v0.1
			c-0.1,0.1-0.2,0.1-0.3,0.1c-0.1,0.1-0.2,0.1-0.4,0.2c-0.2,0.1-0.4,0.1-0.7,0.1c-0.3,0.1-0.5,0.1-0.7,0.1c-0.3,0.1-0.7,0.1-1,0.1
			c-0.7,0.1-1.5,0.1-2.2,0.2c-0.4,0-0.8,0-1.2,0c-4.5,0.5-9.9,0.5-14.4,0c-1.2,0-2.3,0-3.5,0c-1.1-0.2-2.2-0.1-3.3-0.1h-0.1
			c-0.1-0.2-0.2-0.4-0.3-0.6c-0.2-0.4-0.3-0.7-0.5-1.1c-0.1-0.3-0.1-0.6-0.2-0.8c-0.1-0.3-0.2-0.6-0.2-0.9c-0.1-0.3-0.2-0.7-0.3-1
			c-0.2-0.8-0.3-1.5-0.5-2.3c-0.2-0.9-0.4-1.7-0.6-2.6c-0.2-1-0.4-2-0.7-3c-0.2-1.6-0.6-3.1-0.9-4.6c-0.2-1.6-0.7-3.1-0.8-4.7
			c-0.2-1-0.4-2.1-0.6-3.1c-0.1-0.5-0.2-1-0.3-1.6c-0.1-0.5-0.1-1-0.2-1.5c-0.1-0.5-0.1-0.9-0.2-1.4c-0.1-0.5-0.1-0.9-0.2-1.4
			c-0.1-0.4-0.1-0.8-0.2-1.3c-0.1-0.8-0.2-1.6-0.4-2.4c-0.1-0.6-0.2-1.3-0.3-1.9c0-0.3,0-0.6-0.1-0.9c-0.1-0.2-0.1-0.4-0.2-0.6
			c0-0.2,0-0.4-0.1-0.6c0-0.1,0-0.2-0.1-0.4c0-0.1,0-0.2,0-0.3v-0.1v0.1c0,0.1,0,0.1-0.1,0.3c0,0.1,0,0.3-0.1,0.4
			c0,0.2,0,0.3-0.1,0.5c-0.1,0.2-0.1,0.5-0.1,0.8c-0.4,1.7-0.6,3.6-0.8,5.3c-0.1,0.4-0.2,0.8-0.2,1.3c-0.2,1-0.3,1.9-0.5,2.9
			c-0.1,0.5-0.1,1-0.2,1.6c-0.2,1-0.3,2.1-0.5,3.1c-0.1,0.5-0.2,1.1-0.3,1.7c-0.2,1.1-0.3,2.2-0.5,3.2c-0.1,0.5-0.2,1-0.3,1.6
			c-0.2,1-0.3,2.1-0.5,3.1c-0.1,0.5-0.2,1-0.3,1.5c-0.2,1-0.3,1.9-0.5,2.9c-0.1,0.4-0.2,0.8-0.2,1.3c-0.1,0.4-0.2,0.8-0.2,1.2
			c-0.2,0.7-0.3,1.5-0.5,2.2c-0.1,0.3-0.1,0.6-0.2,0.9c-0.2,0.5-0.3,1-0.4,1.5c-0.1,0.2-0.1,0.3-0.2,0.5c-0.1,0.1-0.1,0.2-0.2,0.3
			c0,0.2-0.1,0.3-0.3,0.3c-0.2,0.1-0.3,0.1-0.4,0.2c-0.2,0-0.4,0-0.6,0.1c-0.2,0.1-0.5,0.1-0.7,0.1c-0.3,0.1-0.5,0.1-0.8,0.2
			c-0.3,0-0.7,0-1,0.1c-0.4,0-0.7,0-1.1,0.1c-0.4,0-0.8,0-1.2,0.1c-0.4,0-0.8,0-1.2,0.1c-0.4,0-0.9,0-1.3,0.1c-0.5,0-0.9,0-1.4,0
			c-0.5,0.1-1,0.1-1.5,0.1c-1.4,0.2-2.9,0-4.3,0.2c-2.3,0-4.6,0-6.8,0c-0.8-0.1-1.5-0.1-2.3-0.2c-0.3,0-0.7,0-1,0
			c-0.3-0.1-0.6-0.1-0.9-0.1c-0.2-0.1-0.5-0.1-0.7-0.1c-0.2-0.1-0.4-0.1-0.6-0.2c-0.1,0-0.2,0-0.4-0.1c-0.1-0.1-0.2-0.1-0.2-0.2
			c-0.1,0-0.1,0-0.1-0.1v-0.1c-0.1-0.1-0.1-0.2-0.1-0.3c-0.1-0.1-0.1-0.1-0.1-0.3c-0.1-0.3-0.1-0.5-0.2-0.8c0-0.1,0-0.3-0.1-0.4
			c0-0.2,0-0.3-0.1-0.5c0-0.2,0-0.4-0.1-0.5c-0.1-0.2-0.1-0.4-0.1-0.6c-0.1-0.2-0.1-0.5-0.1-0.7c-0.1-0.2-0.1-0.5-0.2-0.8
			c-0.1-0.5-0.1-1-0.2-1.6c-0.1-0.3-0.1-0.6-0.2-0.9c-0.1-0.6-0.1-1.3-0.2-1.9c-0.1-0.7-0.2-1.4-0.2-2.1c-0.1-0.7-0.2-1.5-0.3-2.2
			c0-1.2-0.3-2.4-0.4-3.6c0-1.8-0.5-3.5-0.5-5.3c-0.3-2.4-0.7-4.8-0.7-7.2c-0.3-3.1-0.7-6.2-1-9.3c0-3.7-1-7.5-1-11.2
			c-0.3-2.7-0.7-5.4-0.7-8c-0.2-1.6-0.3-3.2-0.5-4.8c0-1.6-0.3-3.1-0.3-4.6c-0.1-1-0.2-2-0.2-3.1c-0.1-1-0.2-1.9-0.2-2.9
			c-0.1-1-0.2-1.9-0.2-2.9c-0.1-0.5-0.1-0.9-0.2-1.4c-0.1-0.9-0.1-1.8-0.2-2.7c-0.1-0.5-0.1-0.9-0.1-1.3c-0.1-0.4-0.1-0.8-0.2-1.3
			c0-0.4,0-0.8-0.1-1.2c0-0.4,0-0.8-0.1-1.2c0-0.4,0-0.7-0.1-1.1c0-0.4,0-0.8-0.1-1.1c0-0.4,0-0.8-0.1-1.1c0-0.4,0-0.7-0.1-1
			c0-0.4,0-0.7,0-1c0-0.6-0.1-1.2-0.2-1.8c0-0.3,0-0.7,0-1c-0.1-0.5-0.1-1-0.1-1.6c-0.2-0.7-0.1-1.4-0.1-2.1
			c-0.2-0.8-0.1-1.8-0.1-2.6c0.1-0.1,0-0.4,0.2-0.4C308.3,402.3,308.4,402.2,308.5,402.2C308.7,402.1,308.4,402.2,308.5,402.2z"/>
		<path fill="#020202" d="M404.4,403.5c0.1-0.1,0.1-0.1,0.2-0.2c0.1,0,0.2,0,0.3-0.1c0.2-0.1,0.3-0.1,0.4-0.2c0.2,0,0.4,0,0.6-0.1
			c0.2-0.1,0.4-0.1,0.6-0.2c0.5,0,1-0.1,1.5-0.3c0.6-0.1,1.2-0.1,1.9-0.2c0.3-0.1,0.7-0.1,1.1-0.2c0.8-0.1,1.5-0.1,2.3-0.2
			c0.4-0.1,0.8-0.1,1.2-0.1c0.4-0.1,0.8-0.1,1.2-0.2c0.4,0,0.9,0,1.3-0.1c0.5,0,0.9,0,1.4-0.1c0.4,0,0.9,0,1.4-0.1
			c0.5,0,0.9,0,1.4,0c0.5-0.1,1-0.1,1.5-0.1c1-0.1,2-0.1,2.9-0.2c1,0,2,0,2.9-0.1c1.4,0,2.9,0.1,4.3-0.1c1.4,0,2.8-0.1,4.1,0.1
			c1.2,0,2.5-0.1,3.7,0.1c0.4,0,0.8,0,1.2,0c0.7,0.1,1.4,0.1,2.1,0.2c0.3,0,0.6,0,0.9,0.1c0.6,0.1,1.1,0.1,1.7,0.2
			c0.2,0.1,0.5,0.1,0.7,0.2c0.2,0,0.4,0,0.6,0.1c0.4,0.2,0.8,0.3,1.2,0.5c0.1,0.1,0.1,0.1,0.2,0.2c0.1,0.2,0.2,0.3,0.2,0.5
			c0.1,0.2,0.2,0.5,0.2,0.8c0.7,1.8,0.7,4,0.9,5.9c0,0.5,0,1,0.1,1.5c0,0.5,0,1,0.1,1.5c0,0.5,0,1,0.1,1.5c0,1.8,0.2,3.7-0.1,5.5
			c0,0.4,0,0.8,0,1.2c-0.1,0.4-0.1,0.7-0.2,1c0,0.6-0.1,1.1-0.2,1.7c-0.1,0.2-0.1,0.3-0.2,0.5c-0.1,0.1-0.1,0.2-0.2,0.3
			c-0.2,0.1-0.3,0.2-0.5,0.3c-0.3,0.1-0.5,0.1-0.8,0.1c-1.2,0.2-2.6,0.1-3.8,0.1c-0.5-0.1-1-0.1-1.5-0.1c-0.5-0.1-1-0.1-1.5-0.1
			c-0.5-0.1-0.9-0.1-1.4-0.2c-0.8-0.1-1.6-0.1-2.4-0.2c-0.5,0-1-0.1-1.5-0.2c-0.1,0-0.1,0-0.2,0v0.1c0,0.8,0,1.6,0,2.4
			c-0.5,2.9-0.1,6.2-0.1,9.1c0.3,3-0.1,6,0.2,8.9c0,1.5-0.1,3.1,0.1,4.5c0,1,0,2,0.1,3c0,0.6,0,1.2,0.1,1.8c0,0.6,0,1.2,0.1,1.8
			c0,0.6,0,1.2,0.1,1.7c0,0.6,0,1.2,0.1,1.8c0,1.1,0.1,2.2,0.2,3.2c0,1,0.1,2,0.2,3.1c0,0.9,0.1,1.9,0.2,2.8c0,0.8,0.1,1.6,0.2,2.4
			c0,0.8,0.1,1.5,0.2,2.3c0,0.6,0.1,1.2,0.2,1.8c0.1,0.2,0.1,0.5,0.2,0.8c0,0.2,0,0.5,0.1,0.7c0,0.2,0,0.4,0.1,0.6
			c0,0.1,0,0.3,0,0.4c0,0.2,0.1,0.5,0.2,0.7c0,0.1,0,0.1,0,0.2v0.1c0.1,0,0.1,0,0.2-0.1c0.2,0,0.4,0,0.6-0.1c2-0.4,4.1-0.6,6.1-0.9
			c0.5,0,1,0,1.5-0.1c0.9,0,1.8,0,2.7,0c0.7,0.1,1.4,0.2,2,0.4c0.2,0.1,0.4,0.2,0.6,0.3c0.1,0.1,0.1,0.3,0.2,0.4
			c0.7,1.1,0.8,3.2,0.8,4.5c0.1,0.4,0.1,0.8,0.2,1.2c0,0.5,0,0.9,0.1,1.4c0,0.5,0,0.9,0.1,1.4c0,0.5,0,1,0.1,1.5
			c0,2.5,0.2,5.1-0.1,7.5c0,0.5,0,0.9-0.1,1.3c0,0.5,0,0.9-0.1,1.3c-0.1,0.8-0.1,1.5-0.2,2.3c-0.1,0.6-0.2,1.1-0.3,1.7
			c-0.1,0.2-0.1,0.3-0.2,0.5c-0.1,0.2-0.2,0.4-0.3,0.5c-0.2,0.1-0.4,0.1-0.7,0.2c-0.2,0.1-0.3,0.1-0.5,0.1c-0.2,0.1-0.4,0.1-0.6,0.2
			c-0.2,0-0.4,0-0.6,0.1c-0.3,0-0.5,0-0.7,0.1c-0.3,0-0.5,0-0.8,0.1c-0.3,0-0.6,0-0.9,0c-0.3,0.1-0.7,0.1-1,0.1
			c-0.7,0.1-1.4,0.1-2.1,0.2c-0.4,0-0.8,0-1.1,0c-0.8,0.1-1.6,0.1-2.4,0.1c-0.9,0.1-1.7,0.1-2.6,0.1c-2.3,0.3-4.7-0.1-7.1,0.2
			c-2.4,0-5,0.2-7.4-0.1c-1.9,0-3.9,0.1-5.8-0.1c-0.9,0-1.8,0-2.8,0c-0.9-0.1-1.7-0.1-2.6-0.1c-0.8-0.1-1.6-0.1-2.4-0.2
			c-0.4,0-0.8,0-1.1,0c-0.7-0.1-1.4-0.1-2.1-0.2c-0.3,0-0.7,0-1,0c-0.3-0.1-0.5-0.1-0.8-0.1c-0.3-0.1-0.5-0.1-0.8-0.1
			c-0.3-0.1-0.5-0.1-0.7-0.1c-0.2-0.1-0.4-0.1-0.7-0.1c-0.2-0.1-0.4-0.1-0.6-0.1c-0.2-0.1-0.3-0.1-0.5-0.1c-0.1-0.1-0.2-0.1-0.3-0.1
			c-0.1-0.1-0.2-0.1-0.3-0.1c-0.2-0.1-0.3-0.3-0.3-0.5c-0.1-0.2-0.2-0.3-0.2-0.5c-0.1-0.3-0.1-0.6-0.2-0.8c-0.1-0.7-0.2-1.4-0.3-2.1
			c-0.1-0.9-0.1-1.7-0.2-2.6c-0.1-1-0.1-2-0.1-3c-0.2-1.5-0.2-3.2,0-4.7c0-0.5,0-1,0-1.5c0.1-0.5,0.1-1,0.1-1.5
			c0.1-0.5,0.1-1,0.2-1.5c0-1.4,0.1-3.2,0.7-4.5c0.1-0.3,0.1-0.6,0.2-0.8c0.1-0.2,0.1-0.3,0.2-0.5c0.1-0.2,0.2-0.3,0.3-0.3
			c0.2-0.1,0.4-0.2,0.7-0.3c0.3-0.1,0.7-0.2,1-0.2c0.4-0.1,0.8-0.1,1.1,0c0.4,0,0.9,0,1.3,0c1.8,0.2,3.6,0.3,5.4,0.8
			c0.6,0.1,1.3,0.2,1.9,0.3c0.2,0.1,0.4,0.1,0.6,0.2c0.1,0,0.1,0,0.2,0v-0.1c0-0.1,0-0.1,0-0.2c0.1-0.2,0.1-0.5,0.1-0.7
			c0.1-0.4,0.1-0.8,0.2-1.1c0-0.2,0-0.5,0.1-0.7c0-0.3,0-0.6,0.1-0.8c0-0.3,0-0.6,0.1-1c0-0.3,0-0.6,0.1-1c0.1-0.7,0.1-1.5,0.2-2.2
			c0.1-0.5,0.1-0.9,0.2-1.3c0.1-0.9,0.1-1.7,0.2-2.6c0.1-0.5,0.1-1,0.2-1.5c0-0.5,0-1,0.1-1.5c0.1-1,0.1-2.1,0.2-3.1
			c0.1-0.5,0.1-1.1,0.1-1.7c0.1-0.6,0.1-1.1,0.2-1.7c0-0.6,0-1.2,0.1-1.7c0-0.6,0-1.2,0.1-1.8c0-0.6,0-1.2,0-1.7
			c0.1-0.6,0.1-1.3,0.1-1.8c0-1.3,0.1-2.7,0.2-4c0-1.3,0-2.5,0.1-3.8c0-1.7-0.1-3.4,0.1-5.1c0-3.6,1-8.8-0.1-12.2c0-0.3,0-0.5,0-0.8
			v-0.1c-0.1,0-0.1,0-0.2,0c-0.2,0.1-0.3,0.1-0.5,0.2c-1.8,0-3.5,0.7-5.3,0.7c-1.3,0.2-2.6,0.1-3.9,0.1c-0.4-0.1-0.8-0.1-1.1-0.2
			c-0.8-0.3-1.9-0.5-2.3-1.4c-0.4-0.5-0.5-1.6-0.6-2.2c0-0.4,0-0.7-0.1-1c0-0.4,0-0.8-0.1-1.2c0-1.4,0-2.7,0-4.1
			c0.1-0.5,0.1-1,0.1-1.5c0.1-0.5,0.1-1,0.1-1.5c0.2-1.8,0.3-3.8,0.7-5.6c0.1-0.4,0.1-0.8,0.2-1.1c0.1-0.4,0.2-0.7,0.2-1
			c0.1-0.3,0.2-0.6,0.3-0.8c0.1-0.2,0.1-0.5,0.2-0.7C404.2,403.7,404.3,403.6,404.4,403.5C404.5,403.4,404.3,403.6,404.4,403.5z"/>
	</g>
</g>
</svg>
