<?xml version="1.0" encoding="utf-8"?>
<!-- Generator: Adobe Illustrator 18.0.0, SVG Export Plug-In . SVG Version: 6.00 Build 0)  -->
<!DOCTYPE svg PUBLIC "-//W3C//DTD SVG 1.0//EN" "http://www.w3.org/TR/2001/REC-SVG-20010904/DTD/svg10.dtd">
<svg version="1.0" id="Camada_1" xmlns="http://www.w3.org/2000/svg" xmlns:xlink="http://www.w3.org/1999/xlink" x="0px" y="0px"
	 viewBox="0 0 768 1024" enable-background="new 0 0 768 1024" xml:space="preserve">
<g enable-background="new    ">
	<path fill="#1B7C09" d="M56.3,630.3v-0.1c0-0.4-0.2-1.3,0.1-1.6c0-0.3,0-0.5,0.1-0.7c0-0.2,0-0.4,0-0.7c0.1-0.3,0.2-0.6,0.3-0.9
		c0.1-0.6,0.2-1.3,0.3-1.9c0.7-2,1.1-4.1,1.5-6.2c0.3-1,0.6-2,0.9-2.9c0.1-0.5,0.2-1,0.3-1.6c0.2-0.5,0.3-1,0.4-1.6
		c0.2-0.6,0.3-1.2,0.4-1.8c0.2-0.6,0.4-1.2,0.6-1.8c0.3-1.2,0.6-2.4,0.9-3.7c0.4-1.3,0.8-2.7,1.2-4c0.5-3.6,1.9-7.2,2.8-10.7
		c0.9-2.2,1.3-4.6,1.9-6.9c0.5-1.6,1-3.1,1.5-4.7c0.2-0.9,0.4-1.7,0.6-2.5c0.5-1.6,1-3.2,1.5-4.9c0.2-0.9,0.4-1.7,0.6-2.5
		c0.3-0.9,0.5-1.8,0.7-2.6c0.3-0.8,0.5-1.6,0.7-2.5c0.3-0.8,0.5-1.6,0.7-2.5c0.3-0.9,0.5-1.8,0.7-2.6c0.3-0.8,0.5-1.6,0.7-2.5
		c0.3-0.9,0.5-1.8,0.7-2.6c0.3-0.8,0.5-1.6,0.7-2.5c0.3-0.9,0.5-1.8,0.7-2.6c0.3-0.9,0.5-1.7,0.7-2.5c0.3-0.9,0.5-1.8,0.7-2.6
		c0.3-0.9,0.5-1.8,0.7-2.6c0.3-0.8,0.6-1.6,0.9-2.5c0.2-0.9,0.4-1.8,0.7-2.6c0.2-0.9,0.4-1.7,0.7-2.5c0.2-0.9,0.4-1.8,0.7-2.6
		c0.2-0.8,0.4-1.6,0.7-2.5c0.2-0.9,0.4-1.7,0.7-2.5c0.2-0.9,0.4-1.7,0.7-2.5c0.2-0.9,0.4-1.7,0.7-2.5c0.2-0.9,0.4-1.7,0.7-2.5
		c0.2-0.8,0.4-1.6,0.7-2.5c0.2-0.8,0.4-1.6,0.6-2.4c0.3-0.8,0.5-1.6,0.7-2.4c0.5-1.6,1-3.1,1.5-4.7c0.2-0.8,0.4-1.6,0.6-2.4
		c0.5-1.4,1-2.9,1.3-4.4c1.2-2.7,1.5-5.7,2.7-8.4c0.6-2,1.2-3.9,1.8-5.9c0.3-1.8,1.2-3.5,1.5-5.3c0.2-0.5,0.4-1,0.6-1.6
		c0.2-0.5,0.3-1,0.4-1.5c0.2-0.6,0.3-1.1,0.4-1.6c0.2-0.5,0.3-0.9,0.4-1.3c0.2-0.5,0.3-1,0.4-1.5c0.3-0.8,0.6-1.7,0.9-2.5
		c0.2-0.7,0.4-1.4,0.7-2.1c0.2-0.9,0.5-1.8,0.9-2.6c0-0.5,0.2-0.9,0.4-1.3c0-0.2,0-0.4,0.1-0.6c0.1-0.1,0.1-0.2,0.1-0.4
		c0.1-0.2,0.2-0.4,0.3-0.6v-0.1c0.2-0.1,0.4-0.2,0.6-0.3c0.3-0.1,0.6-0.2,0.9-0.3c0.4-0.1,0.8-0.1,1.3-0.1c0.5-0.1,1-0.2,1.5-0.3
		c0.7,0,1.3,0,1.9-0.1c0.7,0,1.4,0,2.1-0.1c0.8,0,1.6,0,2.4-0.1c1.7,0,3.4,0,5.1-0.1c2.6,0,5.3,0,7.9,0c2.5,0.3,5,0,7.4,0.3
		c0.7,0,1.4,0.1,2.1,0.1c0.7,0,1.3,0,1.9,0c0.6,0.1,1.1,0.1,1.6,0.1c0.5,0.1,0.9,0.1,1.3,0.1c0.3,0.1,0.6,0.2,1,0.3
		c0.2,0,0.4,0.1,0.6,0.1v0.1c0.1,0,0.1,0.1,0.1,0.1c0.1,0.1,0.1,0.2,0.1,0.3c0.1,0.1,0.1,0.2,0.1,0.4c0.1,0.2,0.2,0.3,0.3,0.4
		c0,0.2,0,0.4,0.1,0.6c0.1,0.3,0.2,0.5,0.3,0.7c0.3,0.9,0.6,1.8,0.9,2.6c0.1,0.4,0.2,0.7,0.3,1c0.3,0.8,0.6,1.6,0.9,2.4
		c0.1,0.5,0.2,0.9,0.3,1.3c0.2,0.5,0.3,1,0.4,1.5c0.2,0.5,0.3,1,0.4,1.5c0.2,0.5,0.4,1,0.6,1.5c0.3,1.1,0.6,2.2,0.9,3.2
		c0.6,1.8,1.4,3.6,1.6,5.4c0.9,2.6,1.6,5.3,2.4,7.9c0.9,2.1,1.3,4.3,1.9,6.5c0.5,1.5,1,3,1.3,4.6c0.5,1.6,1,3.1,1.5,4.7
		c0.2,0.8,0.4,1.6,0.6,2.5c0.3,0.8,0.5,1.6,0.7,2.4c0.5,1.7,1,3.3,1.5,5c0.2,0.8,0.4,1.6,0.7,2.5c0.2,0.9,0.4,1.7,0.7,2.5
		c0.2,0.9,0.4,1.8,0.7,2.6c0.2,0.8,0.4,1.6,0.7,2.5c0.2,0.9,0.4,1.8,0.6,2.6c0.3,0.9,0.5,1.7,0.7,2.5c0.3,0.9,0.6,1.8,0.9,2.6
		c0.2,0.9,0.4,1.8,0.7,2.6c0.2,0.9,0.4,1.8,0.7,2.6c0.2,0.9,0.4,1.8,0.7,2.6c0.2,0.9,0.4,1.8,0.7,2.6c0.2,0.9,0.4,1.8,0.7,2.7
		c0.2,0.9,0.4,1.8,0.7,2.6c0.2,0.8,0.4,1.6,0.7,2.5c0.2,0.9,0.4,1.8,0.6,2.6c0.3,0.9,0.5,1.8,0.7,2.6c0.3,0.9,0.5,1.8,0.7,2.6
		c0.3,0.8,0.5,1.6,0.7,2.5c0.5,1.7,1,3.4,1.5,5.2c0.2,0.9,0.4,1.7,0.6,2.5c0.5,1.7,1,3.3,1.5,5c0.3,1.7,0.8,3.3,1.3,4.9
		c0.4,1.6,0.8,3.1,1.2,4.7c1.5,4.1,2.9,8.9,3.6,13.2c0.4,1.4,0.8,2.7,1.2,4.1c0.3,1.3,0.6,2.6,1,3.8c0.1,0.6,0.2,1.2,0.4,1.8
		c0.1,0.6,0.2,1.2,0.4,1.8c0.1,0.6,0.2,1.1,0.4,1.6c0.1,0.6,0.2,1.1,0.4,1.6c0.1,1.1,0.4,2.1,0.7,3.1c0.4,2.1,1,4.2,1.5,6.3
		c0.1,0.3,0.2,0.6,0.3,0.9c0.1,0.6,0.2,1.2,0.3,1.8c0.1,0.3,0.1,0.5,0.1,0.7c0,0.4,0.1,0.8,0.3,1.2c0,0.3-0.1,0.9,0.1,1.2h-0.1
		c-0.1,0.2-0.2,0.3-0.3,0.4c-0.2,0.1-0.4,0.2-0.7,0.3c-0.4,0.1-0.7,0.1-1,0.1c-0.5,0.1-1,0.2-1.5,0.3c-1.2,0.1-2.4,0.2-3.6,0.3
		c-1.5,0.1-3,0.2-4.5,0.3c-5.2,0-10.4,0-15.6,0c-1.7-0.1-3.4-0.2-5.1-0.3c-0.8,0-1.6,0-2.4,0c-0.7-0.1-1.4-0.1-2.2-0.1
		c-0.6-0.1-1.2-0.1-1.9-0.1c-0.6-0.1-1.1-0.2-1.6-0.3c-0.9,0-1.8-0.2-2.7-0.4c-0.7,0-1.1-0.3-1.5-0.7c-0.1-0.3-0.2-0.5-0.3-0.7
		c-0.1-0.4-0.2-0.7-0.3-1c-0.3-0.9-0.6-1.9-0.9-2.8c-0.3-1.3-0.7-2.6-1-3.8c-1.3-9.2-5.2-18-6.2-27.2c-0.4-1.5-0.8-2.9-1-4.4
		c-0.2-0.7-0.3-1.4-0.4-2.1c-0.5-1.6-0.5-3.4-1.2-5c0-0.4-0.1-0.8-0.1-1.2c-0.1-0.3-0.2-0.5-0.3-0.7c0.1-0.3,0-0.6-0.1-0.9
		c-0.2,0-0.4,0-0.7-0.1c-0.4,0-0.8,0-1.2-0.1c-1.3-0.1-2.7-0.2-4-0.3c-0.8,0-1.6,0-2.4,0c-3.3-0.4-7-0.4-10.3,0
		c-1.4,0-2.7,0.2-4,0.4c-0.4,0.1-0.8,0.2-1.3,0.4c-0.3,0.1-0.5,0.2-0.7,0.4v0.1c-0.1,0.2-0.1,0.4-0.1,0.6c-0.1,0.3-0.1,0.6-0.1,0.9
		c-0.4,1.5-0.6,3-1,4.4c-0.1,0.6-0.2,1.2-0.3,1.9c-0.2,0.7-0.3,1.4-0.4,2.1c-0.2,0.8-0.4,1.6-0.6,2.4c-0.9,6.9-3.1,13.9-4.6,20.8
		c-0.4,3.1-1.6,6-2.1,9.1c-0.2,0.7-0.4,1.3-0.6,1.9c-0.1,0.6-0.2,1.1-0.4,1.6c-0.1,0.5-0.2,0.9-0.3,1.3c-0.2,0.4-0.3,0.8-0.4,1.2
		c-0.1,0.3-0.2,0.5-0.3,0.7c0,0.2-0.1,0.3-0.1,0.4c-0.2,0.2-0.3,0.3-0.4,0.3c-0.3,0.1-0.6,0.2-0.9,0.3c-2.1,0.5-4.3,1-6.5,1
		c-0.7,0.1-1.4,0.2-2.2,0.3c-1.6,0.1-3.3,0.2-4.9,0.3c-0.8,0.1-1.6,0.1-2.5,0.1c-2.7,0.3-5.4,0-8,0.3c-1.7,0-3.4,0-5.1-0.1
		c-0.8,0-1.6,0-2.4,0c-0.8-0.1-1.5-0.1-2.2-0.1c-0.7-0.1-1.4-0.1-2.1-0.1c-0.5-0.1-1-0.2-1.6-0.3c-0.9,0-1.8-0.2-2.7-0.6
		c-0.3-0.1-0.6-0.2-0.9-0.3C56.5,630.6,56.4,630.5,56.3,630.3z M132.9,562.7c0.1-0.2,0-0.5-0.1-0.9c-0.1-0.3-0.1-0.6-0.1-0.9
		c-0.2-0.8-0.4-1.6-0.6-2.4c0-1.9-0.7-4-1-5.9c-0.6-1.7-0.7-3.5-1-5.3c-0.3-1.3-0.6-2.6-0.9-3.8c-0.2-1.4-0.4-2.8-0.7-4.1
		c-0.1-0.7-0.2-1.4-0.3-2.1c-0.3-1.4-0.6-2.8-0.9-4.3c-0.1-0.8-0.2-1.5-0.3-2.2c-0.3-1.5-0.6-2.9-0.7-4.4c-0.6-2.1-0.6-4.4-1.2-6.5
		c-0.1-0.8-0.2-1.5-0.3-2.2c-0.3-0.7-0.4-1.4-0.3-2.2c-0.2-2.7-0.4-2.7-0.6,0c0,0.7-0.1,1.4-0.4,2.2c-0.2,0.7-0.3,1.4-0.4,2.2
		c0,2.2-0.7,4.7-1.2,6.8c-0.1,0.8-0.2,1.6-0.4,2.4c-0.1,0.7-0.2,1.4-0.4,2.2c-0.1,0.8-0.2,1.6-0.4,2.4c-0.1,0.7-0.2,1.4-0.4,2.2
		c-0.1,0.8-0.2,1.5-0.4,2.2c-0.1,0.8-0.2,1.5-0.4,2.2c-0.1,0.7-0.2,1.4-0.4,2.2c-0.1,0.7-0.2,1.4-0.3,2.1c-0.3,1.3-0.6,2.7-0.9,4
		c-0.1,0.7-0.2,1.3-0.3,1.9c-0.6,1.7-0.6,3.6-1.2,5.3c-0.2,1-0.4,2-0.6,2.9c0,1.2-0.4,3.1-0.7,4.3c-0.7,1.3,1.6,0.9,2.2,1
		c0.7,0,1.4,0,2.1,0c1.6-0.1,3.2-0.2,4.8-0.1c0.9-0.1,1.7-0.1,2.5-0.1c0.8-0.1,1.6-0.2,2.4-0.3c0.6,0,1.2,0,1.9-0.1
		C131.2,563.2,132.1,563,132.9,562.7C133,562.5,132.7,562.9,132.9,562.7z"/>
</g>
<g enable-background="new    ">
	<path fill="#020202" d="M329.8,544c0.1,0.7,0.2,1.4,0.3,2.1c0,0.7,0,1.4,0.1,2.1c0,0.6,0,1.2,0.1,1.9c0,1.3,0,2.6,0,4
		c0.1,0.6,0.1,1.2,0,1.9c0,1.2,0,2.5,0,3.7c-0.3,1.7-0.4,3.8-0.4,5.6c-0.2,1.2-0.4,2.3-0.4,3.5c-0.1,1.2-0.4,2.3-0.7,3.4
		c-0.1,1.2-0.4,2.3-0.7,3.4c-0.1,0.6-0.2,1.2-0.4,1.8c-0.3,1.1-0.6,2.2-0.9,3.2c-0.8,2-1.6,4.1-2.4,6.2c-0.5,1-1,2-1.5,2.9
		c-0.2,0.5-0.4,1-0.7,1.5c-0.5,1-1,2-1.5,2.9c-0.6,0.9-1.2,1.8-1.8,2.6c-0.3,0.5-0.6,0.9-0.9,1.3c-0.3,0.5-0.6,0.9-0.9,1.3
		c-0.4,0.5-0.7,0.9-1,1.3c-0.3,0.5-0.6,0.9-1,1.3c-0.7,0.8-1.4,1.6-2.1,2.5c-0.7,0.8-1.4,1.6-2.2,2.4c-0.6,0.8-1.4,1.6-2.2,2.2
		c-0.4,0.4-0.8,0.8-1.2,1.2c-0.5,0.4-0.9,0.7-1.3,1c-0.4,0.4-0.8,0.7-1.2,1c-0.5,0.4-0.9,0.7-1.3,1c-1.2,1.2-2.7,2-4,2.9
		c-0.9,0.7-1.9,1.3-3,1.9c-0.9,0.6-1.9,1.2-2.8,1.8c-0.6,0.3-1.1,0.5-1.6,0.7c-1,0.7-2,1.2-3.1,1.6c-0.5,0.3-1,0.5-1.5,0.7
		c-0.6,0.3-1.1,0.5-1.6,0.7c-0.6,0.3-1.1,0.5-1.6,0.7c-0.6,0.2-1.2,0.4-1.8,0.7c-1.1,0.4-2.3,0.8-3.4,1.2c-0.5,0.3-1,0.5-1.6,0.6
		c-1.8,0.6-3.6,1.2-5.5,1.8c-1.2,0.3-2.5,0.6-3.7,0.9c-0.6,0.2-1.2,0.3-1.8,0.4c-1.3,0.3-2.6,0.6-3.9,0.9c-4,0.6-8,1.2-12,1.8
		c-1.4,0.1-2.8,0.2-4.2,0.3c-1.4,0.1-2.9,0.2-4.3,0.3c-0.7,0-1.4,0-2.2,0c-3.4,0.5-7.6,0.5-11,0c-1.5,0.1-3.1,0-4.6-0.1
		c-0.8,0-1.6-0.1-2.4-0.1c-1.5-0.1-3.1-0.2-4.6-0.3c-4.7-0.6-9.8-0.8-14.4-1.9h-0.1c-0.1-0.2-0.2-0.4-0.3-0.6c0-0.1,0-0.2,0-0.4
		c-0.1-0.3-0.2-0.7-0.3-1c0-0.3,0-0.5,0-0.7c-0.1-0.6-0.2-1.3-0.3-1.9c0-0.7,0-1.4-0.1-2.1c0-0.5,0-0.9,0-1.3
		c-0.1-0.9-0.2-1.8-0.1-2.7c-0.2-1-0.2-2.1-0.1-3.1c-0.3-1.7,0-3.4-0.3-5.2c0-1.2,0-2.5,0-3.7c-0.3-2-0.1-4.1-0.1-6.2
		c-0.4-3,0.1-6.1-0.3-9.1c0-3.2,0-6.5,0-9.7c-2.3-18.2-2.1-41.4,0-59.6c0-3.5,0-7.1,0-10.6c0.4-3.3-0.1-6.7,0.3-10
		c0-2.4-0.2-4.8,0.1-7.2c0-1.5,0-2.9,0-4.4c0.3-2.1,0-4.2,0.3-6.3c0-1.3,0-2.6,0-4c0.1-1.2,0.2-2.4,0.1-3.7c0.2-1.1,0.2-2.3,0.1-3.4
		c0.1-1,0.2-2,0.3-2.9c-0.1-0.9,0-1.9,0.1-2.8c0-0.4,0-0.8,0-1.2c0.1-0.7,0.2-1.5,0.3-2.2c0-0.3,0-0.6,0-0.9
		c0.1-0.5,0.2-1.1,0.3-1.6c0-0.2,0-0.4,0-0.6c0.1-0.4,0.2-0.7,0.3-1c0-0.1,0-0.2,0-0.3l0.1-0.1c0-0.1,0-0.1,0.1-0.1
		c0.9-0.1,1.7-0.2,2.5-0.4c0.9-0.1,1.8-0.2,2.7-0.3c2.4-0.6,5.1-0.9,7.6-0.9c0.8-0.1,1.6-0.2,2.4-0.3c0.8,0,1.6,0,2.5-0.1
		c0.8,0,1.6,0,2.4-0.1c0.8,0,1.6,0,2.4,0c2.9-0.4,6.3-0.4,9.2,0c0.8,0,1.6,0,2.4,0c0.7,0.1,1.4,0.1,2.1,0.1c0.8,0.1,1.5,0.2,2.2,0.3
		c3.6,0,7.2,0.8,10.7,1.3c1.3,0.3,2.7,0.6,4,0.9c1.3,0.3,2.6,0.6,3.9,0.9c3.1,0.9,6.3,1.9,9.4,2.9c1.2,0.5,2.4,1,3.6,1.5
		c0.6,0.2,1.2,0.4,1.8,0.7c0.6,0.2,1.2,0.4,1.8,0.7c0.5,0.3,1,0.5,1.6,0.7c0.6,0.3,1.1,0.6,1.6,0.9c0.6,0.3,1.1,0.6,1.6,0.9
		c1.1,0.6,2.2,1.2,3.3,1.8c1,0.6,2,1.2,3,1.9c0.5,0.3,1,0.6,1.5,0.9c0.5,0.4,1,0.7,1.5,1c0.5,0.4,1,0.7,1.5,1
		c1.4,1.1,2.8,2.2,4.2,3.2c0.5,0.4,0.9,0.8,1.3,1.2c0.9,0.8,1.8,1.6,2.7,2.4c1.2,1.2,2.4,2.4,3.6,3.5c0.7,0.9,1.5,1.7,2.4,2.5
		c0.8,0.8,1.5,1.7,2.2,2.6c0.4,0.5,0.7,0.9,1,1.3c0.4,0.5,0.7,0.9,1,1.3c0.4,0.5,0.7,0.9,1,1.3c0.7,0.9,1.3,1.8,1.9,2.8
		c0.7,0.9,1.4,1.9,1.9,2.9c0.6,0.9,1.2,1.8,1.8,2.8c0.5,1,1,2,1.6,2.9c0.2,0.5,0.4,1,0.7,1.5c0.2,0.5,0.4,1,0.7,1.6
		c0.2,0.5,0.4,1,0.7,1.5c0.2,0.5,0.4,1,0.6,1.5c1.8,3,3.6,7.6,4.2,11c0.2,0.5,0.3,1,0.4,1.6c0.2,0.5,0.4,1,0.6,1.6
		c0.1,0.5,0.2,1,0.3,1.6c0.3,1.1,0.6,2.2,0.9,3.2c0.5,2.7,1,5.5,1.5,8.2C329.6,541.9,329.7,542.9,329.8,544
		C329.9,544.7,329.8,543.5,329.8,544z M246.7,498.8c-0.1,0.1-0.1,0.3,0,0.6c0,0.2,0,0.4,0,0.7c-0.1,0.3-0.1,0.6,0,0.9
		c0,2.1-0.3,4.4,0.1,6.5c0,1.1,0,2.3,0.1,3.4c0,1.3,0,2.6,0.1,3.8c0,0.6,0,1.2,0,1.9c0.1,1.4,0.2,2.8,0.3,4.3c0,0.7,0,1.4,0,2.2
		c0.1,0.7,0.1,1.4,0.1,2.2c0.1,0.8,0.1,1.6,0.1,2.4c0.1,1.6,0.2,3.1,0.3,4.7c0,0.8,0,1.6,0.1,2.4c0,0.8,0,1.6,0.1,2.5
		c0,0.8,0,1.6,0.1,2.4c0,0.8,0,1.6,0.1,2.5c0,0.8,0,1.6,0.1,2.4c0.1,1.6,0.2,3.2,0.3,4.9c0.1,0.8,0.1,1.6,0.1,2.4
		c0.1,0.8,0.1,1.6,0.1,2.4c0.1,0.8,0.1,1.6,0.1,2.4c0.1,0.8,0.2,1.6,0.3,2.4c0,0.7,0,1.4,0.1,2.2c0,0.7,0,1.4,0.1,2.2
		c0,0.7,0,1.4,0.1,2.1c0.1,1.3,0.2,2.6,0.3,4c0.1,0.7,0.1,1.3,0.1,1.9c0.1,0.6,0.1,1.2,0.1,1.8c0.1,0.6,0.1,1.2,0.1,1.8
		c0.1,0.5,0.1,1,0.1,1.6c0.1,0.5,0.1,1,0.1,1.5c0.1,0.5,0.1,0.9,0.1,1.3c0.1,0.5,0.1,0.9,0.1,1.3c0.1,0.4,0.1,0.7,0.1,1
		c0.2,0.4,0.2,0.7,0.1,1c-0.1,0.5-0.1,0.8,0.1,0.9c0.9,0.1,1.9,0.2,2.8,0.3c0.9,0,1.9,0,2.8-0.1c1.7,0,4.1-0.4,5.6-1.2
		c1-0.3,2-0.6,3-1c0.9-0.5,1.8-1,2.7-1.5c0.5-0.3,1-0.6,1.5-0.9c0.4-0.3,0.8-0.6,1.3-0.9c0.4-0.3,0.8-0.6,1.3-1
		c0.4-0.3,0.8-0.6,1.3-1c0.8-0.7,1.6-1.4,2.4-2.2c0.8-0.9,1.6-1.8,2.4-2.6c0.4-0.4,0.8-0.8,1.2-1.3c0.3-0.5,0.6-1,1-1.5
		c0.3-0.5,0.6-1,0.9-1.5c0.8-1,1.4-2,1.9-3.1c0.3-0.5,0.5-1,0.7-1.6c0.3-0.6,0.5-1.2,0.7-1.8c0.8-1.6,1.5-3.5,1.8-5.3
		c0.2-0.6,0.3-1.2,0.4-1.9c0.3-1.3,0.6-2.5,0.7-3.8c0-0.7,0-1.3,0.1-1.9c0-0.7,0-1.4,0-2.1c0.1-0.7,0.1-1.4,0-2.1c0-0.7,0-1.4,0-2.1
		c-0.2-1.4-0.4-2.8-0.6-4.3c-0.2-0.8-0.3-1.5-0.4-2.2c-0.2-0.8-0.4-1.6-0.7-2.5c-0.2-0.8-0.4-1.6-0.7-2.4c-0.2-0.8-0.5-1.6-0.9-2.4
		c-1-2.2-1.9-4.2-3.1-6.3c-0.4-0.6-0.8-1.2-1.2-1.9c-0.9-1.2-1.8-2.4-2.7-3.5c-0.5-0.6-1-1.2-1.5-1.8c-0.5-0.5-1-1-1.5-1.6
		c-0.9-1-1.9-1.9-3-2.8c-0.6-0.5-1.1-0.9-1.6-1.3c-1-0.9-2.1-1.7-3.3-2.4c-1-0.8-2.1-1.5-3.3-2.1c-0.6-0.3-1.1-0.6-1.6-0.9
		c-0.6-0.3-1.1-0.6-1.6-0.9c-0.6-0.2-1.1-0.4-1.6-0.6c-1-0.6-2.1-1-3.3-1.2c-0.5-0.2-1-0.3-1.5-0.4c-1.3-0.5-2.9-0.9-4.3-0.9
		c-0.8-0.1-1.7-0.2-2.5-0.1C247.4,498.7,247,498.7,246.7,498.8C246.6,498.9,247,498.7,246.7,498.8z"/>
	<path fill="#020202" d="M343.6,463.1c0.1-0.1,0.2-0.2,0.3-0.3c0.2,0,0.4,0,0.6-0.1c0.3-0.1,0.5-0.2,0.7-0.3c0.3,0,0.6,0,1-0.1
		c0.3-0.1,0.6-0.2,1-0.3c1-0.1,1.9-0.2,2.8-0.4c1.1-0.1,2.3-0.2,3.4-0.3c0.6-0.1,1.2-0.2,1.9-0.3c1.4-0.1,2.8-0.2,4.2-0.3
		c0.7-0.1,1.4-0.1,2.2-0.1c0.7-0.1,1.4-0.2,2.2-0.3c0.8,0,1.6,0,2.4-0.1c0.9,0,1.7,0,2.5-0.1c0.8,0,1.6,0,2.5-0.1c0.9,0,1.7,0,2.5,0
		c0.9-0.1,1.8-0.1,2.7-0.1c1.8-0.1,3.6-0.2,5.4-0.3c1.8,0,3.6,0,5.4-0.1c2.6,0,5.3,0.1,7.9-0.1c2.5,0,5.1-0.2,7.6,0.1
		c2.3,0,4.6-0.2,6.8,0.1c0.7,0,1.4,0,2.2,0c1.3,0.1,2.6,0.2,3.9,0.3c0.6,0,1.1,0.1,1.6,0.1c1,0.1,2.1,0.2,3.1,0.3
		c0.4,0.1,0.8,0.2,1.3,0.3c0.3,0,0.6,0.1,1,0.1c0.8,0.3,1.5,0.5,2.2,0.9c0.1,0.1,0.2,0.2,0.3,0.3c0.2,0.3,0.3,0.6,0.4,0.9
		c0.2,0.4,0.3,0.8,0.4,1.3c1.2,3,1.2,6.7,1.6,9.9c0,0.8,0,1.6,0.1,2.5c0,0.8,0,1.6,0.1,2.5c0,0.8,0,1.6,0.1,2.5c0,3,0.3,6.2-0.1,9.3
		c0,0.7,0,1.4,0,2.1c-0.1,0.6-0.2,1.2-0.3,1.8c0,1-0.2,1.9-0.4,2.8c-0.1,0.3-0.2,0.6-0.3,0.9c-0.1,0.2-0.2,0.3-0.4,0.4
		c-0.3,0.2-0.6,0.3-0.9,0.4c-0.5,0.1-1,0.1-1.5,0.1c-2.3,0.3-4.7,0.1-7,0.1c-0.9-0.1-1.8-0.1-2.7-0.1c-0.9-0.1-1.8-0.1-2.7-0.1
		c-0.9-0.1-1.7-0.2-2.5-0.3c-1.5-0.1-3-0.2-4.5-0.3c-0.9-0.1-1.8-0.2-2.7-0.3c-0.1,0-0.2,0-0.3,0v0.1c0,1.3,0,2.6,0,4
		c-1,4.8-0.1,10.5-0.1,15.3c0.6,5-0.3,10,0.3,15c0,2.5-0.2,5.1,0.1,7.7c0,1.7,0,3.3,0.1,5c0,1,0,2,0.1,3.1c0,1,0,2,0.1,2.9
		c0,1,0,2,0.1,2.9c0,1,0,2,0.1,2.9c0,1.8,0.2,3.6,0.4,5.4c0,1.7,0.2,3.4,0.4,5.2c0.1,1.6,0.2,3.1,0.4,4.7c0,1.4,0.2,2.8,0.4,4.1
		c0.1,1.3,0.2,2.6,0.4,3.8c0.1,1,0.2,2.1,0.3,3.1c0.1,0.4,0.2,0.8,0.3,1.3c0,0.4,0,0.8,0.1,1.2c0,0.3,0,0.6,0.1,1c0,0.2,0,0.4,0,0.7
		c0,0.4,0.1,0.8,0.3,1.2c0,0.1,0,0.2,0,0.3v0.1c0.1,0,0.2,0,0.3-0.1c0.4,0,0.7,0,1-0.1c3.7-0.6,7.4-1.1,11.2-1.5
		c0.9,0,1.8,0,2.7-0.1c1.6,0,3.3,0,4.9,0c1.3,0.1,2.5,0.3,3.7,0.7c0.4,0.1,0.7,0.3,1,0.6c0.1,0.2,0.2,0.4,0.3,0.7
		c0.2,0.3,0.3,0.6,0.4,0.9c0.5,2.1,1,4.4,1,6.6c0.1,0.7,0.2,1.4,0.3,2.1c0,0.8,0,1.6,0.1,2.4c0,0.8,0,1.6,0.1,2.4
		c0,0.9,0,1.7,0.1,2.5c0,4.2,0.4,8.5-0.1,12.7c0,0.8-0.1,1.5-0.1,2.2c0,0.8-0.1,1.5-0.1,2.2c-0.1,1.3-0.2,2.6-0.3,3.8
		c-0.2,0.9-0.4,1.9-0.6,2.8c-0.1,0.3-0.2,0.6-0.4,0.9c-0.1,0.4-0.3,0.7-0.6,0.9c-0.4,0.1-0.8,0.2-1.2,0.3c-0.3,0.1-0.6,0.1-0.9,0.1
		c-0.3,0.1-0.6,0.2-1,0.3c-0.3,0-0.6,0-1,0.1c-0.5,0-0.9,0-1.3,0.1c-0.5,0-1,0-1.5,0.1c-0.6,0-1.1,0-1.6,0c-0.6,0.1-1.2,0.1-1.8,0.1
		c-1.3,0.1-2.6,0.2-3.9,0.3c-0.7,0-1.4,0-2.1,0c-1.5,0.1-3,0.2-4.5,0.1c-1.6,0.1-3.2,0.2-4.8,0.1c-4.3,0.5-8.6-0.2-12.9,0.3
		c-4.5,0-9.1,0.3-13.5-0.1c-3.5,0-7.1,0.2-10.6-0.1c-1.7,0-3.4,0-5.1,0c-1.6-0.1-3.2-0.2-4.8-0.1c-1.5-0.1-3-0.2-4.5-0.3
		c-0.7,0-1.4,0-2.1,0c-1.3-0.1-2.6-0.2-3.9-0.3c-0.6,0-1.2,0-1.8,0c-0.5-0.1-1-0.1-1.5-0.1c-0.5-0.1-1-0.1-1.5-0.1
		c-0.5-0.1-0.9-0.1-1.3-0.1c-0.4-0.1-0.8-0.1-1.2-0.1c-0.4-0.1-0.7-0.1-1-0.1c-0.3-0.1-0.6-0.1-0.9-0.1c-0.2-0.1-0.4-0.1-0.6-0.1
		c-0.2-0.1-0.4-0.1-0.6-0.1c-0.3-0.2-0.5-0.5-0.6-0.9c-0.2-0.3-0.3-0.6-0.4-0.9c-0.1-0.5-0.2-0.9-0.3-1.3c-0.2-1.2-0.4-2.3-0.6-3.5
		c-0.1-1.5-0.2-2.9-0.3-4.4c-0.2-1.7-0.2-3.3-0.1-5c-0.3-2.6-0.3-5.4,0-7.9c0-0.8,0-1.6,0-2.5c0.1-0.9,0.1-1.7,0.1-2.5
		c0.1-0.9,0.2-1.7,0.3-2.5c0-2.4,0.3-5.4,1.2-7.7c0.1-0.5,0.2-0.9,0.4-1.3c0.1-0.3,0.2-0.6,0.4-0.9c0.1-0.3,0.3-0.5,0.6-0.6
		c0.4-0.2,0.8-0.3,1.2-0.4c0.6-0.2,1.2-0.3,1.8-0.3c0.7-0.1,1.4-0.1,2.1,0c0.8,0,1.6,0,2.4,0c3.2,0.4,6.6,0.5,9.8,1.3
		c1.1,0.1,2.3,0.3,3.4,0.6c0.3,0.1,0.6,0.2,1,0.3c0.1,0,0.2,0,0.3,0V591c0-0.1,0-0.2,0-0.3c0.2-0.4,0.2-0.8,0.1-1.2
		c0.1-0.6,0.2-1.3,0.3-1.9c0-0.4,0-0.8,0.1-1.2c0-0.5,0-0.9,0.1-1.3c0-0.5,0-1,0.1-1.6c0-0.5,0-1,0.1-1.6c0.1-1.2,0.2-2.5,0.3-3.7
		c0.1-0.8,0.2-1.5,0.3-2.2c0.1-1.5,0.2-2.9,0.3-4.4c0.1-0.8,0.2-1.6,0.3-2.5c0-0.8,0-1.6,0.1-2.5c0.1-1.8,0.2-3.5,0.3-5.3
		c0.1-0.9,0.1-1.8,0.1-2.8c0.1-1,0.2-1.9,0.3-2.8c0-1,0-2,0.1-2.9c0-1,0-2,0.1-3.1c0-1,0-2,0-2.9c0.1-1.1,0.1-2.1,0.1-3.1
		c0.1-2.3,0.2-4.5,0.3-6.8c-0.1-2.1,0-4.2,0.1-6.3c0-2.8-0.2-5.7,0.1-8.5c0-5.9,1.7-14.9-0.1-20.6c0-0.4,0-0.9,0-1.3v-0.1
		c-0.1,0-0.2,0-0.3,0c-0.3,0.1-0.6,0.2-0.9,0.3c-3.2,0-6.4,1.2-9.7,1.2c-2.3,0.3-4.8,0.1-7.1,0.1c-0.7-0.1-1.4-0.2-2.1-0.3
		c-1.4-0.5-3.4-0.8-4.2-2.4c-0.8-0.8-0.9-2.7-1-3.7c0-0.6-0.1-1.2-0.1-1.8c0-0.7-0.1-1.4-0.1-2.1c0-2.3,0-4.6,0-6.9
		c0.1-0.9,0.1-1.7,0.1-2.5c0.1-0.9,0.1-1.7,0.1-2.5c0.3-3.1,0.5-6.4,1.3-9.4c0.1-0.7,0.2-1.3,0.3-1.9c0.2-0.6,0.3-1.2,0.4-1.8
		c0.2-0.5,0.4-0.9,0.6-1.3c0.1-0.4,0.2-0.8,0.4-1.2C343.2,463.5,343.4,463.3,343.6,463.1z"/>
	<path fill="#020202" d="M531.3,556.5c0.1,0.5,0.7,1,1.9,1.6c2.4,1.4,5.2,4.9,7,7.1c1.1,1.3,2.2,2.6,3.3,3.8c1,1.3,2,2.6,3,3.8
		c1.4,2,3,4,4.2,6c1.9,2.6,3.3,5.5,4.9,8.2c0.3,0.7,0.6,1.4,1,2.1c0.7,1.3,1.4,2.6,2.1,4c0.9,2,1.8,3.9,2.7,5.9
		c0.5,1.3,1,2.6,1.5,3.8c1.4,2.7,2,5.9,3.1,8.7c0.1,0.6,0.2,1.1,0.4,1.6c0.1,0.5,0.2,1,0.4,1.6c0.4,1.8,0.8,3.6,1.2,5.4
		c0,0.4,0,0.8,0.1,1.2c0.1,0.7,0.2,1.4,0.3,2.1c0,0.8,0.2,2.2-0.1,2.9c0,0.2-0.1,0.4-0.1,0.6c0,0.1-0.1,0.2-0.1,0.3
		c0,0.1-0.1,0.2-0.1,0.3c-0.7,0.4-1.5,0.6-2.2,0.9c-0.8,0.2-1.7,0.4-2.5,0.6c-1.1,0.2-2.3,0.4-3.4,0.6c-1.3,0.1-2.6,0.2-3.9,0.4
		c-1.4,0.1-2.9,0.2-4.3,0.3c-0.7,0.1-1.4,0.2-2.2,0.3c-0.8,0-1.6,0.1-2.4,0.1c-0.8,0-1.6,0-2.4,0c-1.6,0.1-3.2,0.2-4.8,0.1
		c-1.6,0.1-3.3,0.2-4.9,0.1c-1.5-0.1-3.1-0.2-4.6-0.1c-2-0.2-4.3-0.4-6.4-0.4c-2.2-0.4-4.6-0.5-6.7-1.3c-0.4-0.1-0.8-0.2-1.2-0.4
		c-0.3-0.1-0.6-0.2-1-0.4c-0.6-0.5-0.9-1.2-1.2-1.9c-0.2-0.6-0.4-1.2-0.4-1.8c-1-3.8-1.3-7.8-2.5-11.5c-0.1-0.6-0.2-1.2-0.3-1.8
		c-0.2-0.6-0.3-1.2-0.4-1.9c-0.2-0.6-0.4-1.2-0.6-1.9c-0.2-1.4-0.6-2.7-1-4c-0.2-0.8-0.4-1.5-0.6-2.2c-0.3-0.7-0.5-1.4-0.7-2.1
		c-0.3-0.7-0.5-1.4-0.7-2.2c-1-2.2-1.7-4.5-2.8-6.6c-1-2.3-2.2-4.5-3.4-6.6c-1-1.4-2-2.9-2.8-4.4c-1.1-1.5-2.2-2.9-3.3-4.4
		c-0.6-0.8-1.2-1.5-1.8-2.2v0.1c0,0.2,0,0.4,0,0.6c0.1,0.6,0.2,1.2,0.3,1.8c0,0.5,0,0.9,0,1.3c0.1,0.5,0.1,1,0.1,1.6
		c0.1,0.5,0.1,1,0.1,1.6c0.1,0.7,0.2,1.4,0.3,2.1c0,0.7,0,1.4,0.1,2.1c0,0.7,0,1.4,0.1,2.2c0.1,1.6,0.2,3.2,0.3,4.9
		c0.1,0.9,0.1,1.7,0.1,2.5c0.1,0.9,0.1,1.8,0.1,2.6c0.1,0.9,0.1,1.8,0.1,2.6c0.1,1.8,0.2,3.5,0.3,5.3c0,4.1,0,8.1,0,12.2
		c-0.1,0.8-0.1,1.5-0.1,2.2c-0.1,0.7-0.1,1.3-0.1,1.9c-0.3,1.6-0.6,3.2-0.9,4.9c-0.1,0.3-0.2,0.6-0.3,1c-0.2,0.3-0.3,0.6-0.4,0.9
		c-0.2,0.2-0.4,0.4-0.6,0.6c-0.3,0.2-0.6,0.3-0.9,0.4c-0.4,0.2-0.8,0.3-1.2,0.4c-0.4,0.2-0.8,0.3-1.3,0.4c-2.7,1.1-6.5,1.5-9.4,1.5
		c-0.8,0.1-1.6,0.2-2.4,0.3c-0.8,0-1.5,0.1-2.2,0.1c-0.9,0-1.7,0-2.5,0c-4.6,0.6-10.1,0.6-14.7,0c-0.8,0-1.5,0-2.2-0.1
		c-0.8,0-1.5,0-2.2-0.1c-0.7,0-1.4,0-2.1-0.1c-1.3,0-2.5-0.2-3.7-0.4c-1.4,0-2.8-0.4-4.2-0.7c-0.6-0.1-1.1-0.4-1.6-0.7l-0.1-0.1
		c0-0.1-0.1-0.2-0.1-0.3c0-0.1-0.1-0.2-0.1-0.3c0-0.2-0.1-0.4-0.1-0.6c0-0.2-0.1-0.4-0.1-0.6c0-0.2-0.1-0.4-0.1-0.7
		c0-0.2,0-0.4,0-0.7c-0.1-0.3-0.1-0.6-0.1-0.9c-0.1-0.7-0.2-1.4-0.3-2.1c0-0.4-0.1-0.8-0.1-1.2c0-0.4,0-0.8,0-1.3
		c-0.2-0.9-0.2-1.9-0.1-2.8c-0.1-1-0.2-2.1-0.3-3.1c0-1.1,0-2.3-0.1-3.4c0-1.2,0-2.4,0-3.5c-0.3-2,0-4-0.3-6c0-2.9,0.3-5.9-0.1-8.7
		c0-14.2-1.4-29.3,0.1-43.4c0-3.6-0.3-7.2,0.1-10.7c0-2.7,0-5.4,0-8.1c0.3-2.6,0-5.2,0.3-7.8c0-1.7,0-3.4,0-5.2
		c0.1-1.7,0.2-3.3,0.1-5c0.1-1.7,0.2-3.3,0.1-5c0.1-1.6,0.2-3.1,0.1-4.7c0.1-1.5,0.2-3,0.1-4.6c0.1-1.5,0.2-2.9,0.3-4.4
		c0-0.7,0-1.4,0-2.1c0.1-1.4,0.2-2.7,0.1-4.1c0.1-1.2,0.2-2.5,0.3-3.7c0-0.7,0-1.3,0-1.9c0.1-1.1,0.2-2.3,0.3-3.4c0-0.5,0-1,0-1.6
		c0.1-0.5,0.1-1,0.1-1.5c0.1-0.9,0.2-1.9,0.3-2.8c0-0.4,0-0.8,0-1.2c0.1-0.8,0.2-1.6,0.3-2.4c0-0.3,0-0.6,0.1-1c0-0.3,0-0.6,0-0.9
		c0.1-0.3,0.1-0.5,0.1-0.7c0.1-0.4,0.2-0.9,0.3-1.3c0-0.2,0-0.4,0.1-0.6c0-0.1,0-0.2,0-0.3l0.1-0.3c0.1-0.1,0.1-0.2,0.1-0.3
		c0.1-0.1,0.2-0.2,0.4-0.3c0.2-0.2,0.3-0.3,0.4-0.4c1.6-0.8,3.5-1.9,5.4-1.9c0.8-0.3,1.6-0.4,2.4-0.4c0.4-0.1,0.8-0.1,1.3-0.1
		c0.5-0.1,1-0.1,1.5-0.1c0.6-0.1,1.1-0.1,1.6-0.1c0.6-0.1,1.2-0.1,1.8-0.1c1.4-0.1,2.8-0.2,4.2-0.1c2.5-0.3,5.1,0,7.6-0.3
		c4.2,0,8.5-0.2,12.8,0.1c4.1,0,8.1-0.1,12.2,0.1c1.7,0,3.4,0,5.1,0.1c1.7,0.1,3.4,0.2,5.1,0.4c1.6,0,3.1,0.2,4.6,0.6
		c1.6,0.1,3.1,0.4,4.6,0.7c1.5,0.3,3,0.6,4.5,0.9c1.4,0.4,2.8,0.8,4.2,1.2c1.3,0.5,2.7,0.9,4,1.5c1.3,0.5,2.6,1,3.9,1.5
		c1.2,0.6,2.4,1.2,3.6,1.9c0.6,0.3,1.1,0.6,1.6,0.9c0.6,0.3,1.2,0.6,1.8,1c2.5,2,5.3,3.6,7.6,5.9c0.4,0.4,0.8,0.8,1.3,1.3
		c0.4,0.4,0.8,0.8,1.3,1.3c3.6,4.4,7.4,9.3,9.1,14.9c1.5,2.9,2.6,6.9,3,10.2c0.8,2.9,1,6,1.3,9c0,0.8,0,1.6,0.1,2.5
		c0,4.1,0.1,8.6-1.2,12.5c-0.2,1.3-0.6,2.6-1.2,3.8c-0.2,0.6-0.4,1.2-0.6,1.8c-0.3,0.6-0.6,1.1-0.9,1.6c-0.2,0.6-0.4,1.2-0.7,1.8
		c-0.3,0.5-0.6,1-1,1.6c-0.3,0.5-0.6,1-1,1.5c-0.9,1.5-2.2,3-3.4,4.3c-0.5,0.5-0.9,0.9-1.3,1.3c-1.5,1.2-2.8,2.5-4.3,3.7
		c-0.5,0.3-1,0.6-1.5,1c-0.6,0.4-1.1,0.7-1.6,1c-0.6,0.4-1.1,0.7-1.6,1c-1.2,0.6-2.4,1.2-3.6,1.8c-0.6,0.2-1.2,0.5-1.8,0.9
		c-0.6,0.5-1.2,0.7-1.8,0.7C531.9,555.9,531.3,556.1,531.3,556.5C531.3,557,531.3,556.1,531.3,556.5z M512.5,514.9
		c0-1.1-0.1-2.2-0.1-3.2c-0.2-1-0.4-1.9-0.7-2.8c-0.2-0.9-0.5-1.8-0.9-2.6c-0.4-0.7-0.8-1.4-1.3-2.2c-0.4-0.7-0.9-1.3-1.5-1.9
		c-0.5-0.6-1-1.2-1.6-1.8c-0.6-0.5-1.2-1-1.9-1.5c-0.6-0.5-1.2-0.9-1.9-1.3c-0.7-0.3-1.4-0.6-2.1-1c-0.7-0.3-1.4-0.6-2.1-0.9
		c-1.3-0.4-2.7-0.8-4-1.2c-0.7-0.1-1.3-0.2-1.9-0.4c-0.6-0.1-1.2-0.1-1.8-0.1c-0.5-0.1-1-0.1-1.5-0.1c-0.4-0.1-0.8-0.1-1.3-0.1
		c-0.3,0.1-0.6,0.1-1,0c-0.3,0-0.5,0.1-0.6,0.1c-0.2,0.2-0.2,0.5-0.1,0.9c0,0.3,0,0.6,0,1c-0.1,0.3-0.1,0.6,0,1c0,0.9,0,1.8,0,2.6
		c0.1,1,0.2,2.1,0.3,3.1c0.1,1.1,0.2,2.3,0.3,3.4c0.1,0.7,0.2,1.3,0.3,1.9c0.1,1.4,0.2,2.7,0.3,4.1c0.1,0.7,0.2,1.4,0.3,2.1
		c0.1,1.5,0.2,3,0.3,4.6c0.1,0.8,0.2,1.6,0.3,2.5c0.1,1.6,0.2,3.2,0.3,4.9c0.1,0.9,0.1,1.8,0.1,2.6c0.2,0.9,0.2,1.8,0.1,2.6
		c-0.2,1-0.2,1.9,0,2.6c0,0.2,0.3,0.2,0.9,0.1c0.3,0,0.7,0.1,1.2,0.1c1-0.1,2-0.2,3-0.3c0.6-0.1,1.2-0.2,1.8-0.4
		c1.3-0.3,2.5-0.6,3.7-1c1.4-0.5,2.7-1.2,4-1.9c1.2-0.8,2.4-1.6,3.6-2.5c1.9-1.5,3.1-3.4,4.3-5.4c0.3-0.7,0.6-1.4,0.9-2.2
		C512.3,518.4,512.5,516.7,512.5,514.9z"/>
	<path fill="#020202" d="M574.2,630.3v-0.1c0-0.4-0.2-1.3,0.1-1.6c0-0.3,0-0.5,0.1-0.7c0-0.2,0-0.4,0-0.7c0.1-0.3,0.2-0.6,0.3-0.9
		c0.1-0.6,0.2-1.3,0.3-1.9c0.7-2,1.1-4.1,1.5-6.2c0.3-1,0.6-2,0.9-2.9c0.1-0.5,0.2-1,0.3-1.6c0.2-0.5,0.3-1,0.4-1.6
		c0.2-0.6,0.3-1.2,0.4-1.8c0.2-0.6,0.4-1.2,0.6-1.8c0.3-1.2,0.6-2.4,0.9-3.7c0.4-1.3,0.8-2.7,1.2-4c0.5-3.6,1.9-7.2,2.8-10.7
		c0.9-2.2,1.3-4.6,1.9-6.9c0.5-1.6,1-3.1,1.5-4.7c0.2-0.9,0.4-1.7,0.6-2.5c0.5-1.6,1-3.2,1.5-4.9c0.2-0.9,0.4-1.7,0.6-2.5
		c0.3-0.9,0.5-1.8,0.7-2.6c0.3-0.8,0.5-1.6,0.7-2.5c0.3-0.8,0.5-1.6,0.7-2.5c0.3-0.9,0.5-1.8,0.7-2.6c0.3-0.8,0.5-1.6,0.7-2.5
		c0.3-0.9,0.5-1.8,0.7-2.6c0.3-0.8,0.5-1.6,0.7-2.5c0.3-0.9,0.5-1.8,0.7-2.6c0.3-0.9,0.5-1.7,0.7-2.5c0.3-0.9,0.5-1.8,0.7-2.6
		c0.3-0.9,0.5-1.8,0.7-2.6c0.3-0.8,0.6-1.6,0.9-2.5c0.2-0.9,0.4-1.8,0.7-2.6c0.2-0.9,0.4-1.7,0.7-2.5c0.2-0.9,0.4-1.8,0.7-2.6
		c0.2-0.8,0.4-1.6,0.7-2.5c0.2-0.9,0.4-1.7,0.7-2.5c0.2-0.9,0.4-1.7,0.7-2.5c0.2-0.9,0.4-1.7,0.7-2.5c0.2-0.9,0.4-1.7,0.7-2.5
		c0.2-0.8,0.4-1.6,0.7-2.5c0.2-0.8,0.4-1.6,0.6-2.4c0.3-0.8,0.5-1.6,0.7-2.4c0.5-1.6,1-3.1,1.5-4.7c0.2-0.8,0.4-1.6,0.6-2.4
		c0.5-1.4,1-2.9,1.3-4.4c1.2-2.7,1.5-5.7,2.7-8.4c0.6-2,1.2-3.9,1.8-5.9c0.3-1.8,1.2-3.5,1.5-5.3c0.4-1,0.8-2,1-3.1
		c0.2-0.6,0.3-1.1,0.4-1.6c0.2-0.5,0.3-0.9,0.4-1.3c0.2-0.5,0.3-1,0.4-1.5c0.3-0.8,0.6-1.7,0.9-2.5c0.2-0.7,0.4-1.4,0.7-2.1
		c0.2-0.9,0.5-1.8,0.9-2.6c0-0.5,0.2-0.9,0.4-1.3c0-0.2,0-0.4,0.1-0.6c0.1-0.1,0.1-0.2,0.1-0.4c0.1-0.2,0.2-0.4,0.3-0.6v-0.1
		c0.2-0.1,0.4-0.2,0.6-0.3c0.3-0.1,0.6-0.2,0.9-0.3c0.4-0.1,0.8-0.1,1.3-0.1c0.5-0.1,1-0.2,1.5-0.3c0.7,0,1.3,0,1.9-0.1
		c0.7,0,1.4,0,2.1-0.1c0.8,0,1.6,0,2.4-0.1c1.7,0,3.4,0,5.1-0.1c2.6,0,5.3,0,7.9,0c2.5,0.3,5,0,7.4,0.3c0.7,0,1.4,0.1,2.1,0.1
		c0.7,0,1.3,0,1.9,0c0.6,0.1,1.1,0.1,1.6,0.1c0.5,0.1,0.9,0.1,1.3,0.1c0.3,0.1,0.6,0.2,1,0.3c0.2,0,0.4,0.1,0.6,0.1v0.1
		c0.1,0,0.1,0.1,0.1,0.1c0.1,0.1,0.1,0.2,0.1,0.3c0.1,0.1,0.1,0.2,0.1,0.4c0.1,0.2,0.2,0.3,0.3,0.4c0,0.2,0,0.4,0.1,0.6
		c0.1,0.3,0.2,0.5,0.3,0.7c0.3,0.9,0.6,1.8,0.9,2.6c0.1,0.4,0.2,0.7,0.3,1c0.3,0.8,0.6,1.6,0.9,2.4c0.1,0.5,0.2,0.9,0.3,1.3
		c0.2,0.5,0.3,1,0.4,1.5c0.2,0.5,0.3,1,0.4,1.5c0.2,0.5,0.4,1,0.6,1.5c0.3,1.1,0.6,2.2,0.9,3.2c0.6,1.8,1.4,3.6,1.6,5.4
		c0.9,2.6,1.6,5.3,2.4,7.9c0.9,2.1,1.3,4.3,1.9,6.5c0.5,1.5,1,3,1.3,4.6c0.5,1.6,1,3.1,1.5,4.7c0.2,0.8,0.4,1.6,0.6,2.5
		c0.3,0.8,0.5,1.6,0.7,2.4c0.5,1.7,1,3.3,1.5,5c0.2,0.8,0.4,1.6,0.7,2.5c0.2,0.9,0.4,1.7,0.7,2.5c0.2,0.9,0.4,1.8,0.7,2.6
		c0.2,0.8,0.4,1.6,0.7,2.5c0.2,0.9,0.4,1.8,0.6,2.6c0.3,0.9,0.5,1.7,0.7,2.5c0.3,0.9,0.6,1.8,0.9,2.6c0.2,0.9,0.4,1.8,0.7,2.6
		c0.2,0.9,0.4,1.8,0.7,2.6c0.2,0.9,0.4,1.8,0.7,2.6c0.2,0.9,0.4,1.8,0.7,2.6c0.2,0.9,0.4,1.8,0.7,2.7c0.2,0.9,0.4,1.8,0.7,2.6
		c0.2,0.8,0.4,1.6,0.7,2.5c0.2,0.9,0.4,1.8,0.6,2.6c0.3,0.9,0.5,1.8,0.7,2.6c0.3,0.9,0.5,1.8,0.7,2.6c0.3,0.8,0.5,1.6,0.7,2.5
		c0.5,1.7,1,3.4,1.5,5.2c0.2,0.9,0.4,1.7,0.6,2.5c0.5,1.7,1,3.3,1.5,5c0.3,1.7,0.8,3.3,1.3,4.9c0.4,1.6,0.8,3.1,1.2,4.7
		c1.5,4.1,2.9,8.9,3.6,13.2c0.4,1.4,0.8,2.7,1.2,4.1c0.3,1.3,0.6,2.6,1,3.8c0.1,0.6,0.2,1.2,0.4,1.8c0.1,0.6,0.2,1.2,0.4,1.8
		c0.1,0.6,0.2,1.1,0.4,1.6c0.1,0.6,0.2,1.1,0.4,1.6c0.1,1.1,0.4,2.1,0.7,3.1c0.4,2.1,1,4.2,1.5,6.3c0.1,0.3,0.2,0.6,0.3,0.9
		c0.1,0.6,0.2,1.2,0.3,1.8c0.1,0.3,0.1,0.5,0.1,0.7c0.1,0.4,0.1,0.8,0.3,1.2c0,0.3-0.1,0.9,0.1,1.2h-0.1c-0.1,0.2-0.2,0.3-0.3,0.4
		c-0.2,0.1-0.4,0.2-0.7,0.3c-0.4,0.1-0.7,0.1-1,0.1c-0.5,0.1-1,0.2-1.5,0.3c-1.2,0.1-2.4,0.2-3.6,0.3c-1.5,0.1-3,0.2-4.5,0.3
		c-5.2,0-10.4,0-15.6,0c-1.7-0.1-3.4-0.2-5.1-0.3c-0.8,0-1.6,0-2.4,0c-0.7-0.1-1.4-0.1-2.2-0.1c-0.6-0.1-1.2-0.1-1.9-0.1
		c-0.6-0.1-1.1-0.2-1.6-0.3c-0.9,0-1.8-0.2-2.7-0.4c-0.7,0-1.1-0.3-1.5-0.7c-0.1-0.3-0.2-0.5-0.3-0.7c-0.1-0.4-0.2-0.7-0.3-1
		c-0.3-0.9-0.6-1.9-0.9-2.8c-0.3-1.3-0.7-2.6-1-3.8c-1.3-9.2-5.2-18-6.2-27.2c-0.4-1.4-0.8-2.9-1-4.4c-0.2-0.7-0.3-1.4-0.4-2.1
		c-0.5-1.6-0.5-3.4-1.2-5c0-0.4-0.1-0.8-0.1-1.2c-0.1-0.3-0.2-0.5-0.3-0.7c0.1-0.3,0-0.6-0.1-0.9c-0.2,0-0.4,0-0.7-0.1
		c-0.4,0-0.8,0-1.2-0.1c-1.3-0.1-2.7-0.2-4-0.3c-0.8,0-1.6,0-2.4,0c-3.3-0.4-7-0.4-10.3,0c-1.3,0-2.7,0.2-4,0.4
		c-0.4,0.1-0.8,0.2-1.3,0.4c-0.3,0.1-0.5,0.2-0.7,0.4v0.1c-0.1,0.2-0.1,0.4-0.1,0.6c-0.1,0.3-0.1,0.6-0.1,0.9c-0.4,1.5-0.6,3-1,4.4
		c-0.1,0.6-0.2,1.2-0.3,1.9c-0.2,0.7-0.3,1.4-0.4,2.1c-0.2,0.8-0.4,1.6-0.6,2.4c-0.9,6.9-3.1,13.9-4.6,20.8c-0.4,3.1-1.6,6-2.1,9.1
		c-0.2,0.7-0.4,1.3-0.6,1.9c-0.1,0.6-0.2,1.1-0.4,1.6c-0.1,0.5-0.2,0.9-0.3,1.3c-0.2,0.4-0.3,0.8-0.4,1.2c-0.1,0.3-0.2,0.5-0.3,0.7
		c0,0.2-0.1,0.3-0.1,0.4c-0.2,0.2-0.3,0.3-0.4,0.3c-0.3,0.1-0.6,0.2-0.9,0.3c-2.1,0.5-4.3,1-6.5,1c-0.7,0.1-1.4,0.2-2.2,0.3
		c-1.6,0.1-3.3,0.2-4.9,0.3c-0.8,0.1-1.6,0.1-2.5,0.1c-2.7,0.3-5.4,0-8,0.3c-1.7,0-3.4,0-5.1-0.1c-0.8,0-1.6,0-2.4,0
		c-0.8-0.1-1.5-0.1-2.2-0.1c-0.7-0.1-1.4-0.1-2.1-0.1c-0.5-0.1-1-0.2-1.6-0.3c-0.9,0-1.8-0.2-2.7-0.6c-0.3-0.1-0.6-0.2-0.9-0.3
		C574.5,630.6,574.3,630.5,574.2,630.3z M650.8,562.7c0.1-0.2,0-0.5-0.1-0.9c-0.1-0.3-0.1-0.6-0.1-0.9c-0.2-0.8-0.4-1.6-0.6-2.4
		c0-1.9-0.7-4-1-5.9c-0.6-1.7-0.7-3.5-1-5.3c-0.3-1.3-0.6-2.6-0.9-3.8c-0.2-1.4-0.4-2.8-0.7-4.1c-0.1-0.7-0.2-1.4-0.3-2.1
		c-0.3-1.4-0.6-2.8-0.9-4.3c-0.1-0.8-0.2-1.5-0.3-2.2c-0.3-1.5-0.6-2.9-0.7-4.4c-0.6-2.1-0.6-4.4-1.2-6.5c-0.1-0.8-0.2-1.5-0.3-2.2
		c-0.3-0.7-0.4-1.4-0.3-2.2c-0.2-2.7-0.4-2.7-0.6,0c0,0.7-0.1,1.4-0.4,2.2c-0.2,0.7-0.3,1.4-0.4,2.2c0,2.2-0.7,4.7-1.2,6.8
		c-0.1,0.8-0.2,1.6-0.4,2.4c-0.1,0.7-0.2,1.4-0.4,2.2c-0.1,0.8-0.2,1.6-0.4,2.4c-0.1,0.7-0.2,1.4-0.4,2.2c-0.1,0.8-0.2,1.5-0.4,2.2
		c-0.1,0.8-0.2,1.5-0.4,2.2c-0.1,0.7-0.2,1.4-0.4,2.2c-0.1,0.7-0.2,1.4-0.3,2.1c-0.3,1.3-0.6,2.7-0.9,4c-0.1,0.7-0.2,1.3-0.3,1.9
		c-0.6,1.7-0.6,3.6-1.2,5.3c-0.2,1-0.4,2-0.6,2.9c0,1.2-0.4,3.1-0.7,4.3c-0.7,1.3,1.6,0.9,2.2,1c0.7,0,1.4,0,2.1,0
		c1.6-0.1,3.2-0.2,4.8-0.1c0.9-0.1,1.7-0.1,2.5-0.1c0.8-0.1,1.6-0.2,2.4-0.3c0.6,0,1.2,0,1.9-0.1C649.1,563.2,650,563,650.8,562.7
		C650.9,562.5,650.6,562.9,650.8,562.7z"/>
</g>
<path fill="#1B7C09" d="M110.1,427.2c-6,0-10.4,14.4-19.9,13.6c-9.6-0.4-9.6-8.4-9.6-11.6c0-6.8,6.8-17.6,10-21.5
	c3.6-4,8.8-9.6,18.8-9.6c14,0,16.8,14.4,28.3,14.4c6.4,0,11.6-17.6,23.5-17.6c21.9,0,7.2,23.5,5.2,27.1c-3.6,6-14.4,20.7-29.1,20.7
	C122.9,442.8,120.1,427.2,110.1,427.2"/>
</svg>
