<?xml version="1.0" encoding="utf-8"?>
<!-- Generator: Adobe Illustrator 18.0.0, SVG Export Plug-In . SVG Version: 6.00 Build 0)  -->
<!DOCTYPE svg PUBLIC "-//W3C//DTD SVG 1.1//EN" "http://www.w3.org/Graphics/SVG/1.1/DTD/svg11.dtd">
<svg version="1.1" id="Camada_1" xmlns="http://www.w3.org/2000/svg" xmlns:xlink="http://www.w3.org/1999/xlink" x="0px" y="0px"
	 viewBox="0 0 1024 768" enable-background="new 0 0 1024 768" xml:space="preserve">
<g>
	<defs>
		<rect id="SVGID_1_" x="-0.2" width="1024.2" height="768.4"/>
	</defs>
	<clipPath id="SVGID_2_">
		<use xlink:href="#SVGID_1_"  overflow="visible"/>
	</clipPath>
	
		<linearGradient id="SVGID_3_" gradientUnits="userSpaceOnUse" x1="215.91" y1="594.0046" x2="217.742" y2="594.0046" gradientTransform="matrix(-3.6179 -477.5661 -477.5661 3.6179 284970.2188 101441.4766)">
		<stop  offset="0" style="stop-color:#A2CBE5"/>
		<stop  offset="1" style="stop-color:#3595E9"/>
	</linearGradient>
	<polygon clip-path="url(#SVGID_2_)" fill="url(#SVGID_3_)" points="-0.1,776.6 -5.7,0 1023.9,-8.3 1029.5,768.3 	"/>
</g>
<g opacity="0.68">
	<path opacity="0.7" fill="#BADFF4" d="M694.9,162.7c4,26,30.7,13.6,33.4,6.1c28.7,43.3,73.4,20.6,73.4,20.6s28.7,24,50.7-6
		c4,5.3,25.4,13.4,38.8-10c5.2,4,50.3,5.2,65,0.4c14.7-4.8,48.3-13.1-53.8-17.7c5.4-4,7.4-33.4-15.3-25.2c5.3-14.2-4-48.9-38-34.9
		c-6.7-36-86.1-34.7-84.8,18.7c-7.3-4.7-38,1.3-27.4,29.6c-7.3-5.6-18-7.6-23.4,5.1c-4.7-1.9-18.7-10-24.7,7.3
		C650.2,148.7,628.8,172.7,694.9,162.7z"/>
	<path fill="#FFFFFF" d="M881.1,140.9c5.3-14.2-4-48.9-38-34.9c-3.1-30-73.3-38.7-78.8,8.7c-5.8-1.4-10.9,5.6-6,10
		c-17.9-6.9-25.6,11.4-21.4,19.6c-2.4-1.8-8.1,4.6-6,10c-7.3-5.6-18-7.6-23.4,5.1c-4.5-1.7-17.2-9.1-23.7,4.8c3.4-0.4,7-0.8,11-1.5
		c4,26,30.7,13.6,33.4,6.1c28.7,43.3,73.4,20.6,73.4,20.6s28.7,24,50.7-6c4,5.3,25.4,13.4,38.8-10c5.2,4,50.3,5.2,65,0.4
		c1.5-0.5,3.2-1,5-1.6c-8.8-2.3-27.9-4.5-64.8-6.1C901.8,162,903.8,132.7,881.1,140.9z"/>
</g>
<polygon fill="#238E88" points="1024,572.4 -0.2,577.2 -0.2,768.4 -0.2,768.4 1023.9,768.4 1024,768.4 "/>
<polygon fill="#28A09D" points="1024,584.4 -0.2,589.3 -0.2,768.4 -0.2,768.4 1023.9,768.4 1024,768.4 "/>
<path opacity="0.48" fill="#F4F4F4" d="M1024,658.8H834.3c-5.9,11.8,57.5,8.4,56.6,19.9c-1,11.5-340,9.1-340,0
	c0-9.1,45.5-11.5,45.5-24.4H186.1c-7.2,16.4,43.6,9.9,43.6,24.7c-18.2,12.3-136.5-4-158,0C71.7,661,101,664.3,99,651H-0.2v88.6v0
	h1024.1l0.1,0V658.8z"/>
<rect x="-0.2" y="713.6" fill="#FFEDBB" width="1024.2" height="54.7"/>
<path fill="#1B7C09" d="M2.3,553c-0.9,0.5-1.7,1-2.4,1.5v213.9v0h206.4c-1.2-6-3.4-13-7.4-19.4c0.1-0.3,0.2-0.6,0.3-0.8
	c17.9,6.8,36.8,1.6,36.8,1.6s-0.1-0.1-0.3-0.4h0h0c-2-2.2-13.4-14.8-28.4-19.7c13.2-10.6,19.6-27.8,19.6-27.8s-13.2,1-26.1,8.2
	c-1.6-4.2-4-8.2-7.6-12c0-0.2,0-0.4,0-0.6c16.5,4.6,32.5,0.2,32.5,0.2s-0.1-0.1-0.3-0.4c-2-2.2-13.4-14.8-28.4-19.7
	c13.2-10.6,19.6-27.8,19.6-27.8s-20.3,1.4-35,14.5c2.2-8.9,1.7-17.6,0.5-24.5c12.2,1,22-1.6,22-1.6s-0.1-0.1-0.3-0.4l0,0h0
	c-2-2.2-13.4-14.8-28.4-19.7c13.2-10.6,19.6-27.8,19.6-27.8s-20.3,1.4-35,14.5c0.7-2.9,1.2-5.9,1.4-8.7c4.5-1.7,7.3-3.2,7.3-3.2
	s-0.1-0.1-0.4-0.3c-0.9-0.6-3.3-2.3-6.8-4.2c-0.7-12.1-4.6-21.4-4.6-21.4s-0.1,0.1-0.3,0.4l0,0c-1.2,1.4-5.9,7-9.9,14.9
	c-3.4-1-6.9-1.7-10.6-1.9c10.2-13.5,12.3-31.7,12.3-31.7s-13.2,4.3-24,14.9c-1.5-2.6-3.2-5-5.2-7.3c8.2-5.1,13.2-10.6,13.2-10.6
	s-0.2-0.1-0.4-0.1h0c-2.1-0.6-11.1-3.1-21.7-3c-2.4-4.6-4.5-7.3-4.5-7.3s-1.6,3-3.4,7.8c-1.6,0.2-3.3,0.5-4.9,1
	c5.5-16,1.8-33.9,1.8-33.9S82.5,522.1,77,541c-3.1-9.6-9-17.3-14-22.5c1.4-6.1,1.6-10.4,1.6-10.4s-0.2,0.1-0.4,0.2
	c-1.1,0.5-4,1.8-7.8,4.1c-1.3-1-2.1-1.6-2.1-1.6s0,0.2-0.1,0.5c-0.1,0.5-0.2,1.4-0.3,2.7c-5.6,3.5-12.2,8.7-17,15.5
	c-6.1-15.8-20.5-27.1-20.5-27.1S11.5,522,19.4,540c-6.5-4-13.5-6.2-19.6-7.4v18.6C0.6,551.8,1.4,552.4,2.3,553z M170.3,637.6
	c-0.5,0.9-1.1,1.9-1.6,2.8c-0.8-1.5-1.6-2.9-2.6-4.3C167.5,636.7,168.9,637.2,170.3,637.6z"/>
<path fill="#1D5434" d="M3,673.8c2.4,4.8,3.5,6.4,6.4,9.4l-9.6,18.4v11.3l13.8-28.3c3.3,0,5.4-0.4,10-1.6
	c6.1-1.7,43.1-23.9,52.6-28.7c-5.5-1.4-34.6-3.2-57,18.8l7-14.4c4.1,0.1,6.1-0.2,11.2-1.6c6.1-1.7,43.1-23.9,52.6-28.7
	c-5.6-1.5-36.8-3.3-59.3,21.2l6.6-13.5c4.4,0.1,6.4-0.2,11.7-1.6c6.1-1.7,43.1-23.9,52.6-28.7c-5.7-1.5-37.8-3.4-60.5,22.5l8.5-17.5
	c0.1,0.1,0.1,0.1,0.2,0.2c0-0.2,0.1-0.3,0.1-0.5c4.9,0.1,6.8-0.1,12.4-1.6c6.1-1.7,43.1-23.9,52.6-28.7c-5.9-1.5-39.8-3.5-62.6,25
	l9.2-18.9c4.5,0.1,6.4-0.2,11.7-1.6c6.1-1.7,43.1-23.9,52.6-28.7c-5.8-1.5-38-3.4-60.6,22.7l5-10.2l-0.2-0.4c5.2-2,7.2-3,12.5-7.1
	c5.9-4.5,39.5-48.8,45-54.6c-2.4-1.8-40.8,16.9-50.2,38s-9.2,24.4-9.2,24.4c0.3-0.1,0.6-0.2,1-0.4l-7.3,14
	c7.2-37.1-17.9-61.8-23.1-65.2c2.8,10.3,11.2,52.6,14,58.3c2.6,5.2,3.7,6.7,7.1,10.3c-0.1,0.2-0.2,0.3-0.4,0.5c0.1,0,0.2,0,0.3,0
	l-8.3,16c4.5-34.7-18.8-57.5-23.8-60.8c2.8,10.3,11.2,52.6,14,58.3c2.4,4.7,3.5,6.4,6.3,9.3l-9.8,18.9c4.5-34.7-18.8-57.6-23.8-60.9
	c2.8,10.3,11.2,52.6,14,58.3c2.4,4.7,3.5,6.4,6.3,9.3l-8,15.4c4.2-34.4-18.9-57.1-23.9-60.4c2.8,10.3,11.2,52.6,14,58.3
	c2.4,4.6,3.5,6.3,6.1,9.2l-10.2,19.7c3-21.9-5.2-39.2-12.9-49.8v36C1.1,668.3,2.3,672.3,3,673.8z"/>
<g>
	<path fill="#33720F" d="M161.1,639.1c-1.9-1.6-34.3,13.2-42.6,30.5c-8.3,17.3-8.2,20.1-8.2,20.1c0.3-0.1,0.5-0.2,0.8-0.3l-6.3,11.5
		c6.8-30.7-13.5-51.7-17.8-54.7c2.1,8.6,8.1,44,10.4,48.7c2.1,4.3,3,5.6,5.7,8.7c-0.1,0.1-0.2,0.3-0.3,0.4c0.1,0,0.2,0,0.2,0
		l-7.3,13.1c4.5-28.7-14.4-48.2-18.5-51.1c2.1,8.6,8.1,44,10.4,48.7c1.9,3.9,2.8,5.4,5,7.9l-8.6,15.5c4.5-28.8-14.4-48.3-18.4-51.2
		c2.1,8.6,8.1,44,10.4,48.7c1.9,4,2.8,5.4,5,7.9l-7,12.6c4.3-28.5-14.4-47.9-18.5-50.7c2.1,8.6,8.1,44,10.4,48.7
		c1.9,3.9,2.8,5.3,4.9,7.8l-3.5,6.3h3.6l2.5-4.9c3.4,0.1,5-0.1,9.3-1.1c5.1-1.2,36.4-18.9,44.4-22.7c-4.7-1.3-30.5-3.6-49.8,16.3
		l5.8-11.1c3.7,0.2,5.3,0,9.7-1.1c5.1-1.2,36.4-18.9,44.4-22.7c-4.7-1.4-31.3-3.7-50.8,17.4l7.5-14.4c0.1,0.1,0.1,0.1,0.2,0.2
		c0-0.1,0.1-0.3,0.1-0.4c4.1,0.2,5.7,0.1,10.3-1c5.1-1.2,36.4-18.9,44.4-22.7c-4.9-1.4-33-3.8-52.5,19.4l8.1-15.5
		c3.7,0.2,5.3,0,9.8-1.1c5.1-1.2,36.4-18.9,44.4-22.7c-4.8-1.4-31.5-3.7-50.9,17.5l4.3-8.4L112,689c4.4-1.5,6-2.4,10.6-5.6
		C127.6,679.8,156.4,643.7,161.1,639.1z"/>
	<path fill="#33720F" d="M76.7,768.4h24.5c6.1-3.3,11.4-6.1,14.1-7.4C111.5,759.9,93.7,758.2,76.7,768.4z"/>
	<path fill="#33720F" d="M43.6,726.8c1.6,6.7,5.6,29.4,8.4,41.5h10.8C62.4,744.9,47.2,729.3,43.6,726.8z"/>
</g>
<path fill="#0D4C26" d="M-0.2,768.4h134.1c-0.5-4.6-1.9-10.8-5.4-16.5c0.1-0.2,0.1-0.4,0.2-0.6c11.8,4.5,24.2,1.1,24.2,1.1
	s-0.1-0.1-0.2-0.2h0c-1.3-1.5-8.8-9.7-18.7-12.9c8.7-7,12.9-18.3,12.9-18.3s-8.7,0.6-17.1,5.4c-1.1-2.7-2.7-5.4-5-7.9
	c0-0.1,0-0.2,0-0.4c10.9,3,21.3,0.1,21.3,0.1s-0.1-0.1-0.2-0.2c-1.3-1.5-8.8-9.7-18.7-12.9c8.7-7,12.9-18.3,12.9-18.3
	s-13.3,1-23,9.5c1.5-5.8,1.1-11.6,0.3-16.1c8,0.7,14.5-1.1,14.5-1.1s-0.1-0.1-0.2-0.2v0c-1.3-1.5-8.8-9.7-18.7-12.9
	c8.7-7,12.9-18.3,12.9-18.3s-13.3,1-23,9.5c0.5-1.9,0.8-3.9,0.9-5.7c3-1.1,4.8-2.1,4.8-2.1s-0.1-0.1-0.3-0.2
	c-0.6-0.4-2.2-1.5-4.5-2.7c-0.4-8-3-14-3-14s-0.1,0.1-0.2,0.2v0c-0.8,0.9-3.9,4.6-6.5,9.8c-2.2-0.6-4.5-1.1-6.9-1.3
	c6.7-8.9,8.1-20.8,8.1-20.8s-8.7,2.8-15.8,9.8c-1-1.7-2.1-3.3-3.4-4.8c5.4-3.3,8.7-6.9,8.7-6.9s-0.1,0-0.3-0.1h0
	c-1.4-0.4-7.3-2-14.3-2c-1.6-3-2.9-4.8-2.9-4.8s-1.1,2-2.3,5.2c-1.1,0.2-2.2,0.4-3.2,0.6c3.6-10.5,1.2-22.3,1.2-22.3
	s-10.8,7.9-14.4,20.3c-2-6.3-5.9-11.4-9.2-14.8c0.9-4,1-6.8,1-6.8s-0.1,0-0.3,0.1c-0.7,0.3-2.7,1.2-5.2,2.7c-0.9-0.7-1.4-1-1.4-1
	s0,0.1,0,0.3c-0.1,0.3-0.1,0.9-0.2,1.8c-3.7,2.3-8,5.7-11.2,10.2c-4-10.4-13.5-17.8-13.5-17.8s-3.1,13,2.1,24.8
	c-3.5-2.2-7.3-3.6-10.8-4.4V768.4L-0.2,768.4z M109.7,678.7c-0.4,0.6-0.7,1.2-1.1,1.9c-0.5-1-1.1-1.9-1.7-2.8
	C107.9,678.1,108.8,678.4,109.7,678.7z"/>
<g>
	<path fill="#4A9723" d="M87.7,722.4c-3.8,8-21.5,39.3-22.7,44.4c-0.1,0.6-0.3,1.1-0.4,1.6H75C91,749.6,89,726.7,87.7,722.4z"/>
	<path fill="#4A9723" d="M179.2,719.1c17.3-8.3,32-40.6,30.4-42.6c-4.7,4.7-40.8,33.6-44.4,38.6c-3.2,4.5-4.1,6.2-5.6,10.6l-0.4-0.2
		l-8.4,4.3c21.2-19.4,18.9-46.2,17.5-50.9c-3.8,8-21.5,39.3-22.7,44.4c-1.1,4.5-1.2,6.1-1.1,9.8l-15.5,8.1
		c23.2-19.5,20.8-47.7,19.4-52.6c-3.8,8-21.5,39.3-22.7,44.4c-1.1,4.7-1.3,6.2-1,10.3c-0.1,0-0.3,0.1-0.4,0.1
		c0.1,0.1,0.1,0.1,0.2,0.2l-14.4,7.5c21-19.4,18.7-46,17.3-50.8c-3.8,8-21.5,39.3-22.7,44.4c-1.1,4.4-1.2,6.1-1.1,9.7l-11.1,5.8
		c19.9-19.3,17.7-45.1,16.3-49.8c-3.8,8-21.5,39.3-22.7,44.4c-1,4.3-1.2,5.9-1.1,9.3l-8.4,4.3h6.8l3-1.7c0.7,0.6,1.4,1.2,2,1.7h36.2
		c-8.5-4-19.5-6.8-32.4-4.9l12.6-7c2.5,2.2,3.9,3.1,7.9,5c3,1.4,18,4.3,30.9,6.8h14.5c-7.2-6.7-24.5-18.6-47.9-14.9l15.5-8.6
		c2.5,2.2,3.9,3.1,7.9,5c4.7,2.3,40.1,8.3,48.7,10.4c-2.8-4.1-22.3-22.9-51-18.5l13.1-7.3c0,0.1,0,0.2,0,0.2
		c0.1-0.1,0.3-0.2,0.4-0.3c3.1,2.8,4.3,3.6,8.7,5.7c4.7,2.3,40.1,8.3,48.7,10.4c-3-4.2-24-24.5-54.7-17.8l11.5-6.3
		c-0.1,0.3-0.2,0.5-0.3,0.8C159.1,727.3,161.9,727.4,179.2,719.1z"/>
</g>
<g>
	<path fill="#1B5A09" d="M37.6,614.1c0,0,19.2-14.1,26.2-16c7-1.9,22.2-2.4,37.1,1c14.9,3.4,48,23.2,35.3,19.1
		c-12.8-4-73.5-14.7-105.5,4.4C33.1,616.8,37.6,614.1,37.6,614.1z"/>
	<g>
		<path fill="#6AAD06" d="M38,488.9c-7.1,9.9-1.8,13.2-5,17.6c-3.2,4.4-0.3,7.9-4.9,17.1c-4.6,9.2-1.3,18.7-1.3,18.7
			s-7.3,47.1,0,50.8c7.3,3.7,12.3-11.3,15.4-15.6c3.1-4.3-0.3-22.5,3-29c3.4-6.5,1.9-19,2.5-21.2s-2.3-16.5-4.4-20
			C41.2,503.8,41.3,488.6,38,488.9z"/>
		<path fill="#1A640B" d="M34.2,586.5c0.3-3.3,7.1-80.1,3.9-97.6c0,0,0,0,0,0c-0.2,0.3-0.4,0.5-0.6,0.8c2.9,18.6-3.9,95.9-4,96.7
			L34.2,586.5z"/>
	</g>
	<path fill="#1B5A09" d="M25,644.1c4.1-4.8,4.4-10,4.4-10s3.7-23.6,2.1-30.6c-1.6-7.1-8.2-20.8-18.1-32.5c-3-3.6-8.2-7.9-13.6-12
		v15.3C12.7,594.1,26.3,621.3,25,644.1z"/>
	<g>
		
			<linearGradient id="SVGID_4_" gradientUnits="userSpaceOnUse" x1="98.6628" y1="567.0965" x2="99.4502" y2="587.963" gradientTransform="matrix(0.9611 0.2762 -0.2762 0.9611 109.3603 -17.3363)">
			<stop  offset="0" style="stop-color:#AC0703"/>
			<stop  offset="0.9704" style="stop-color:#DB3737"/>
		</linearGradient>
		<path fill="url(#SVGID_4_)" d="M47.9,555.4c-1.9-0.5-7,9.5-8,13c-1,3.6,0.9,11.7,0.9,11.7s6.4-6.8,7.7-11.2
			C49.7,564.6,49.8,556,47.9,555.4z"/>
		
			<linearGradient id="SVGID_5_" gradientUnits="userSpaceOnUse" x1="92.4003" y1="566.5495" x2="93.1877" y2="587.4156" gradientTransform="matrix(0.9993 -3.860000e-002 -3.860000e-002 -0.9993 -33.5765 1160.3389)">
			<stop  offset="0" style="stop-color:#AC0703"/>
			<stop  offset="0.9704" style="stop-color:#DB3737"/>
		</linearGradient>
		<path fill="url(#SVGID_5_)" d="M37.3,590.2c-2,0.1-4.6-10.9-4.7-14.6c-0.1-3.7,3.7-11.2,3.7-11.2s4.6,8.1,4.8,12.7
			C41.3,581.8,39.3,590.1,37.3,590.2z"/>
		
			<linearGradient id="SVGID_6_" gradientUnits="userSpaceOnUse" x1="49.4999" y1="930.0202" x2="50.2873" y2="950.8854" gradientTransform="matrix(0.8358 0.549 0.549 -0.8358 -514.783 1340.5682)">
			<stop  offset="0" style="stop-color:#AC0703"/>
			<stop  offset="0.9704" style="stop-color:#DB3737"/>
		</linearGradient>
		<path fill="url(#SVGID_6_)" d="M37.8,590.3c-1.6-1.1,2.6-11.5,4.6-14.6c2.1-3.1,9.5-6.9,9.5-6.9s-0.9,9.3-3.5,13.2
			C45.9,585.8,39.4,591.4,37.8,590.3z"/>
		
			<linearGradient id="SVGID_7_" gradientUnits="userSpaceOnUse" x1="37.5546" y1="964.931" x2="38.342" y2="985.7958" gradientTransform="matrix(0.806 0.5919 0.5919 -0.806 -564.7126 1357.4233)">
			<stop  offset="0" style="stop-color:#AC0703"/>
			<stop  offset="0.9704" style="stop-color:#DB3737"/>
		</linearGradient>
		<path fill="url(#SVGID_7_)" d="M37.3,601.9c-1.6-1.2,3.2-11.3,5.4-14.3c2.2-3,9.9-6.4,9.9-6.4s-1.4,9.2-4.1,13
			C45.7,597.8,38.9,603,37.3,601.9z"/>
		
			<linearGradient id="SVGID_8_" gradientUnits="userSpaceOnUse" x1="68.2541" y1="886.121" x2="69.0415" y2="906.9868" gradientTransform="matrix(0.8818 0.4716 0.4716 -0.8818 -443.8481 1351.0009)">
			<stop  offset="0" style="stop-color:#AC0703"/>
			<stop  offset="0.9704" style="stop-color:#DB3737"/>
		</linearGradient>
		<path fill="url(#SVGID_8_)" d="M34.8,601.7c-1.7-0.9,1.6-11.7,3.3-15c1.8-3.3,8.8-7.8,8.8-7.8s-0.1,9.3-2.3,13.4
			C42.5,596.4,36.5,602.6,34.8,601.7z"/>
		
			<linearGradient id="SVGID_9_" gradientUnits="userSpaceOnUse" x1="-1087.743" y1="549.7396" x2="-1086.9557" y2="570.6061" gradientTransform="matrix(-0.9973 7.370000e-002 -7.370000e-002 -0.9973 -1012.4678 1228.9379)">
			<stop  offset="0" style="stop-color:#AC0703"/>
			<stop  offset="0.9704" style="stop-color:#DB3737"/>
		</linearGradient>
		<path fill="url(#SVGID_9_)" d="M31.4,600.2c2-0.1,3.3-11.3,3-15c-0.3-3.7-4.9-10.7-4.9-10.7s-3.7,8.6-3.4,13.2
			C26.4,592.2,29.4,600.3,31.4,600.2z"/>
		
			<linearGradient id="SVGID_10_" gradientUnits="userSpaceOnUse" x1="-1103.899" y1="647.3582" x2="-1103.1116" y2="668.2244" gradientTransform="matrix(-0.9957 -9.300000e-002 9.300000e-002 -0.9957 -1126.2269 1143.5081)">
			<stop  offset="0" style="stop-color:#AC0703"/>
			<stop  offset="0.9704" style="stop-color:#DB3737"/>
		</linearGradient>
		<path fill="url(#SVGID_10_)" d="M32.7,601.2c2,0.2,5.1-10.6,5.5-14.3c0.3-3.7-3.1-11.4-3.1-11.4s-5.1,7.8-5.5,12.4
			C29.2,592.5,30.8,601,32.7,601.2z"/>
		
			<linearGradient id="SVGID_11_" gradientUnits="userSpaceOnUse" x1="-961.368" y1="328.7243" x2="-960.5806" y2="349.5897" gradientTransform="matrix(-0.8863 0.4631 -0.4631 -0.8863 -671.2002 1350.442)">
			<stop  offset="0" style="stop-color:#AC0703"/>
			<stop  offset="0.9704" style="stop-color:#DB3737"/>
		</linearGradient>
		<path fill="url(#SVGID_11_)" d="M28.1,613.7c1.7-0.9-1.4-11.7-3.2-15s-8.8-7.9-8.8-7.9s0,9.3,2.1,13.4
			C20.4,608.4,26.3,614.7,28.1,613.7z"/>
		
			<linearGradient id="SVGID_12_" gradientUnits="userSpaceOnUse" x1="-950.5043" y1="317.3228" x2="-949.7169" y2="338.1884" gradientTransform="matrix(-0.8863 0.4631 -0.4631 -0.8863 -671.2002 1350.442)">
			<stop  offset="0" style="stop-color:#AC0703"/>
			<stop  offset="0.9704" style="stop-color:#DB3737"/>
		</linearGradient>
		<path fill="url(#SVGID_12_)" d="M23.7,628.9c1.7-0.9-1.4-11.7-3.2-15c-1.7-3.3-8.8-7.9-8.8-7.9s0,9.3,2.1,13.4
			C16,623.6,22,629.8,23.7,628.9z"/>
		
			<linearGradient id="SVGID_13_" gradientUnits="userSpaceOnUse" x1="-110.9469" y1="1139.1902" x2="-110.1597" y2="1160.052" gradientTransform="matrix(0.5052 0.863 0.863 -0.5052 -897.1015 1285.5358)">
			<stop  offset="0" style="stop-color:#AC0703"/>
			<stop  offset="0.9704" style="stop-color:#DB3737"/>
		</linearGradient>
		<path fill="url(#SVGID_13_)" d="M30.5,614.4c-1-1.7,7.4-9.1,10.6-11c3.2-1.9,11.6-2,11.6-2s-4.9,7.9-8.9,10.3
			C39.8,614,31.5,616.1,30.5,614.4z"/>
		
			<linearGradient id="SVGID_14_" gradientUnits="userSpaceOnUse" x1="42.4633" y1="951.6346" x2="43.2507" y2="972.4993" gradientTransform="matrix(0.806 0.5919 0.5919 -0.806 -564.7126 1357.4233)">
			<stop  offset="0" style="stop-color:#AC0703"/>
			<stop  offset="0.9704" style="stop-color:#DB3737"/>
		</linearGradient>
		<path fill="url(#SVGID_14_)" d="M33.4,615.5c-1.6-1.2,3.2-11.3,5.4-14.3c2.2-3,9.9-6.4,9.9-6.4s-1.4,9.2-4.1,13
			C41.8,611.4,35,616.6,33.4,615.5z"/>
		
			<linearGradient id="SVGID_15_" gradientUnits="userSpaceOnUse" x1="65.6814" y1="889.7054" x2="66.4687" y2="910.5702" gradientTransform="matrix(0.8668 0.4987 0.4987 -0.8668 -470.6585 1353.6633)">
			<stop  offset="0" style="stop-color:#AC0703"/>
			<stop  offset="0.9704" style="stop-color:#DB3737"/>
		</linearGradient>
		<path fill="url(#SVGID_15_)" d="M30.5,615.1c-1.7-1,1.9-11.6,3.8-14.9c1.9-3.2,9.1-7.5,9.1-7.5s-0.4,9.3-2.7,13.3
			C38.4,610.1,32.3,616.1,30.5,615.1z"/>
		
			<linearGradient id="SVGID_16_" gradientUnits="userSpaceOnUse" x1="-1082.8362" y1="536.4429" x2="-1082.0488" y2="557.3094" gradientTransform="matrix(-0.9973 7.370000e-002 -7.370000e-002 -0.9973 -1012.4678 1228.9379)">
			<stop  offset="0" style="stop-color:#AC0703"/>
			<stop  offset="0.9704" style="stop-color:#DB3737"/>
		</linearGradient>
		<path fill="url(#SVGID_16_)" d="M27.4,613.8c2-0.1,3.3-11.3,3-15c-0.3-3.7-4.9-10.7-4.9-10.7s-3.7,8.6-3.4,13.2
			C22.5,605.9,25.5,613.9,27.4,613.8z"/>
		
			<linearGradient id="SVGID_17_" gradientUnits="userSpaceOnUse" x1="-1096.7626" y1="602.1605" x2="-1095.9751" y2="623.0281" gradientTransform="matrix(-0.9992 -3.920000e-002 3.920000e-002 -0.9992 -1089.5573 1173.923)">
			<stop  offset="0" style="stop-color:#AC0703"/>
			<stop  offset="0.9704" style="stop-color:#DB3737"/>
		</linearGradient>
		<path fill="url(#SVGID_17_)" d="M29.5,614.8c2,0.1,4.6-10.9,4.7-14.6c0.1-3.7-3.7-11.2-3.7-11.2s-4.7,8.1-4.8,12.7
			C25.5,606.4,27.5,614.8,29.5,614.8z"/>
		
			<linearGradient id="SVGID_18_" gradientUnits="userSpaceOnUse" x1="-1090.2019" y1="764.1894" x2="-1089.4144" y2="785.0559" gradientTransform="matrix(-0.9611 -0.2762 0.2762 -0.9611 -1227.6613 1049.0726)">
			<stop  offset="0" style="stop-color:#AC0703"/>
			<stop  offset="0.9704" style="stop-color:#DB3737"/>
		</linearGradient>
		<path fill="url(#SVGID_18_)" d="M30.9,615.2c1.9,0.5,7-9.5,8-13c1-3.6-0.9-11.7-0.9-11.7s-6.4,6.8-7.7,11.2
			C29,606.1,29,614.7,30.9,615.2z"/>
		
			<linearGradient id="SVGID_19_" gradientUnits="userSpaceOnUse" x1="-100.0813" y1="1127.7905" x2="-99.2941" y2="1148.6526" gradientTransform="matrix(0.5052 0.863 0.863 -0.5052 -897.1015 1285.5358)">
			<stop  offset="0" style="stop-color:#AC0703"/>
			<stop  offset="0.9704" style="stop-color:#DB3737"/>
		</linearGradient>
		<path fill="url(#SVGID_19_)" d="M26.2,629.6c-1-1.7,7.4-9.1,10.6-11c3.2-1.9,11.6-2,11.6-2s-4.9,7.9-8.9,10.3
			S27.2,631.3,26.2,629.6z"/>
		
			<linearGradient id="SVGID_20_" gradientUnits="userSpaceOnUse" x1="47.9177" y1="936.861" x2="48.705" y2="957.7257" gradientTransform="matrix(0.806 0.5919 0.5919 -0.806 -564.7126 1357.4233)">
			<stop  offset="0" style="stop-color:#AC0703"/>
			<stop  offset="0.9704" style="stop-color:#DB3737"/>
		</linearGradient>
		<path fill="url(#SVGID_20_)" d="M29,630.6c-1.6-1.2,3.2-11.3,5.4-14.3c2.2-3,9.9-6.4,9.9-6.4s-1.4,9.2-4.1,13
			C37.4,626.5,30.6,631.8,29,630.6z"/>
		
			<linearGradient id="SVGID_21_" gradientUnits="userSpaceOnUse" x1="69.4603" y1="874.4177" x2="70.2476" y2="895.2824" gradientTransform="matrix(0.8668 0.4987 0.4987 -0.8668 -470.6585 1353.6633)">
			<stop  offset="0" style="stop-color:#AC0703"/>
			<stop  offset="0.9704" style="stop-color:#DB3737"/>
		</linearGradient>
		<path fill="url(#SVGID_21_)" d="M26.2,630.2c-1.7-1,1.9-11.6,3.8-14.9c1.9-3.2,9.1-7.5,9.1-7.5s-0.4,9.3-2.7,13.3
			C34.1,625.2,27.9,631.2,26.2,630.2z"/>
		
			<linearGradient id="SVGID_22_" gradientUnits="userSpaceOnUse" x1="-1077.384" y1="521.6688" x2="-1076.5967" y2="542.5353" gradientTransform="matrix(-0.9973 7.370000e-002 -7.370000e-002 -0.9973 -1012.4678 1228.9379)">
			<stop  offset="0" style="stop-color:#AC0703"/>
			<stop  offset="0.9704" style="stop-color:#DB3737"/>
		</linearGradient>
		<path fill="url(#SVGID_22_)" d="M23.1,628.9c2-0.1,3.3-11.3,3-15c-0.3-3.7-4.9-10.7-4.9-10.7s-3.7,8.6-3.4,13.2
			C18.2,621,21.1,629.1,23.1,628.9z"/>
		
			<linearGradient id="SVGID_23_" gradientUnits="userSpaceOnUse" x1="-1093.0106" y1="586.8653" x2="-1092.2233" y2="607.7329" gradientTransform="matrix(-0.9992 -3.920000e-002 3.920000e-002 -0.9992 -1089.5573 1173.923)">
			<stop  offset="0" style="stop-color:#AC0703"/>
			<stop  offset="0.9704" style="stop-color:#DB3737"/>
		</linearGradient>
		<path fill="url(#SVGID_23_)" d="M25.2,630c2,0.1,4.6-10.9,4.7-14.6c0.1-3.7-3.7-11.2-3.7-11.2s-4.7,8.1-4.8,12.7
			C21.2,621.5,23.2,629.9,25.2,630z"/>
		
			<linearGradient id="SVGID_24_" gradientUnits="userSpaceOnUse" x1="-1090.2031" y1="748.4412" x2="-1089.4156" y2="769.3077" gradientTransform="matrix(-0.9611 -0.2762 0.2762 -0.9611 -1227.6613 1049.0726)">
			<stop  offset="0" style="stop-color:#AC0703"/>
			<stop  offset="0.9704" style="stop-color:#DB3737"/>
		</linearGradient>
		<path fill="url(#SVGID_24_)" d="M26.5,630.4c1.9,0.5,7-9.5,8-13c1-3.6-0.9-11.7-0.9-11.7s-6.4,6.8-7.7,11.2
			C24.7,621.2,24.7,629.8,26.5,630.4z"/>
	</g>
	<path fill="#65AB0A" d="M19.2,660.7c0,0,7.1-17.3,5.9-18.4c-1.2-1.1-3.7-13.1-4-16.2c-0.3-3.1,4.9-6.9,3.6-10.6
		c-1.2-3.7-4-7.4-4.9-9.3s0.2-8.7-0.8-12.1c-1-3.3-6-5.4-8.7-9.1c-2.6-3.7-2.6-11.2-5.7-14.5c-1-1.1-2.8-1.9-4.8-2.7v31.3
		C13.6,630.3,19.2,660.7,19.2,660.7z"/>
	<path fill="#65AB0A" d="M146.5,632.7c-1.4-4-9-15.6-20.7-16.1c-11.7-0.5-16-8.5-20.4-9.8c-4.4-1.3-10.9,2.2-15.5,1.6
		c-4.5-0.6-8.7-4.1-12.1-3.5c-3.4,0.7-9,4.9-11.1,4.9c-2.1,0-6.7-0.7-10.5-0.1c-3.8,0.6-4.8,7-7.7,8.1c-2.9,1.1-14.7,4.4-16.2,3.9
		c-1.5-0.5-13.6,13.7-13.6,13.7S98.3,611.1,146.5,632.7z"/>
</g>
<g>
	<path fill="#7DBD20" d="M236.3,639.9c0,0-106.4-82-188.1-14.7c4.5,17.3,3.5,35,3.5,35l-20.9-24.5l-31,24.1v51.4
		C18.7,696.2,97.9,640.8,236.3,639.9z"/>
	<path fill="#9DD91F" d="M236.3,639.9c-21.3-11.5-78.7-27.8-103.8-12.4c-6.7,8.6-9.5,28-9.5,28s-9.2-19.7-14.7-21.7
		c-4.6-1.7-81.6,30.5-108.4,51.9v47C52.6,704.3,148.2,657.9,236.3,639.9z"/>
</g>
<path fill="#399600" d="M72.8,759.1c-0.3-9.4-29.8-30.2-29.8-30.2s31.5,6,36.5,12c2.3-3,8.6-8.9,2.7-14.8
	c-8.7-7.4-39.2-8.7-39.2-8.7s23.7-11.8,43.9-8.1c0,0,3.5-10.2-11.3-16.3c-14.8-6.1-36.5,9.6-36.5,9.6s12.1-20.2,36-16.8
	c-3-4.1-3.7-8.1-15.1-10.8c-11.4-2.7-32.6,6.7-32.6,6.7c9.2,22,16.9,52.6,19.9,86.7h22.3C71.6,764.6,72.9,761.3,72.8,759.1z"/>
<g opacity="0.7">
	<path fill="#FFFFFF" d="M521.6,398.4c-2.2-0.9-3.4-10.4,4.5-8.2c2.2-33.7,45.3-14,34.9,8.2c23.3,13.2-6.3,45.1-19.7,21.4
		C508,427.1,514.9,397.1,521.6,398.4z"/>
	<path opacity="0.7" fill="#BADFF4" d="M542.4,415.7c-10.7,2.4-22.1,3.9-25.7-12.2c-4,14.8,10.8,21.6,24.6,16.3
		c7.1,12.5,18.7,9.6,24.6,2C556.4,424.5,547.4,424.5,542.4,415.7z"/>
</g>
<g opacity="0.7">
	<circle fill="#28798C" cx="251.9" cy="193.5" r="1"/>
	<path opacity="0.7" fill="#BADFF4" d="M113,183.9c-2.5-0.4,1.5-23.6,29.5-16.6c-2.4-40.5,65.8-30.8,63.8-7.6
		c30-7.7,32.4,14.5,31.4,21.8c20.3-5.3,24.7,15,24.7,15c28.1,2.9,13.1,30-2.9,22.7c0.5,13.5-19.8,17.4-28.1,10.2
		c-1,6.3-24.2,12.6-30-1.9c1,16-46.4,25.2-58-4.8c0.5,3.4-18.4,9.2-23.2-5.6C84,222.6,87.8,178.6,113,183.9z"/>
	<path fill="#FFFFFF" d="M107.2,186.8c-2.5-0.4,1.5-23.6,29.5-16.6c-2.4-40.5,65.8-30.8,63.8-7.6c30-7.7,32.4,14.5,31.4,21.8
		c20.3-5.3,24.7,15,24.7,15c28.1,2.9,13.1,30-2.9,22.7c0.5,13.5-19.8,17.4-28.1,10.2c-1,6.3-24.2,12.6-30-1.9c1,16-46.4,25.2-58-4.8
		c0.5,3.4-18.4,9.2-23.2-5.6C78.2,225.5,82,181.5,107.2,186.8z"/>
</g>
<rect x="-0.2" y="713.6" opacity="0.48" fill="#F4F4F4" width="1024.2" height="21.6"/>
<path fill="#1B7C09" d="M2.3,553c-0.9,0.5-1.7,1-2.4,1.5v213.9v0h206.4c-1.2-6-3.4-13-7.4-19.4c0.1-0.3,0.2-0.6,0.3-0.8
	c17.9,6.8,36.8,1.6,36.8,1.6s-0.1-0.1-0.3-0.4h0h0c-2-2.2-13.4-14.8-28.4-19.7c13.2-10.6,19.6-27.8,19.6-27.8s-13.2,1-26.1,8.2
	c-1.6-4.2-4-8.2-7.6-12c0-0.2,0-0.4,0-0.6c16.5,4.6,32.5,0.2,32.5,0.2s-0.1-0.1-0.3-0.4c-2-2.2-13.4-14.8-28.4-19.7
	c13.2-10.6,19.6-27.8,19.6-27.8s-20.3,1.4-35,14.5c2.2-8.9,1.7-17.6,0.5-24.5c12.2,1,22-1.6,22-1.6s-0.1-0.1-0.3-0.4l0,0h0
	c-2-2.2-13.4-14.8-28.4-19.7c13.2-10.6,19.6-27.8,19.6-27.8s-20.3,1.4-35,14.5c0.7-2.9,1.2-5.9,1.4-8.7c4.5-1.7,7.3-3.2,7.3-3.2
	s-0.1-0.1-0.4-0.3c-0.9-0.6-3.3-2.3-6.8-4.2c-0.7-12.1-4.6-21.4-4.6-21.4s-0.1,0.1-0.3,0.4l0,0c-1.2,1.4-5.9,7-9.9,14.9
	c-3.4-1-6.9-1.7-10.6-1.9c10.2-13.5,12.3-31.7,12.3-31.7s-13.2,4.3-24,14.9c-1.5-2.6-3.2-5-5.2-7.3c8.2-5.1,13.2-10.6,13.2-10.6
	s-0.2-0.1-0.4-0.1h0c-2.1-0.6-11.1-3.1-21.7-3c-2.4-4.6-4.5-7.3-4.5-7.3s-1.6,3-3.4,7.8c-1.6,0.2-3.3,0.5-4.9,1
	c5.5-16,1.8-33.9,1.8-33.9S82.5,522.1,77,541c-3.1-9.6-9-17.3-14-22.5c1.4-6.1,1.6-10.4,1.6-10.4s-0.2,0.1-0.4,0.2
	c-1.1,0.5-4,1.8-7.8,4.1c-1.3-1-2.1-1.6-2.1-1.6s0,0.2-0.1,0.5c-0.1,0.5-0.2,1.4-0.3,2.7c-5.6,3.5-12.2,8.7-17,15.5
	c-6.1-15.8-20.5-27.1-20.5-27.1S11.5,522,19.4,540c-6.5-4-13.5-6.2-19.6-7.4v18.6C0.6,551.8,1.4,552.4,2.3,553z M170.3,637.6
	c-0.5,0.9-1.1,1.9-1.6,2.8c-0.8-1.5-1.6-2.9-2.6-4.3C167.5,636.7,168.9,637.2,170.3,637.6z"/>
<path fill="#1D5434" d="M3,673.8c2.4,4.8,3.5,6.4,6.4,9.4l-9.6,18.4v11.3l13.8-28.3c3.3,0,5.4-0.4,10-1.6
	c6.1-1.7,43.1-23.9,52.6-28.7c-5.5-1.4-34.6-3.2-57,18.8l7-14.4c4.1,0.1,6.1-0.2,11.2-1.6c6.1-1.7,43.1-23.9,52.6-28.7
	c-5.6-1.5-36.8-3.3-59.3,21.2l6.6-13.5c4.4,0.1,6.4-0.2,11.7-1.6c6.1-1.7,43.1-23.9,52.6-28.7c-5.7-1.5-37.8-3.4-60.5,22.5l8.5-17.5
	c0.1,0.1,0.1,0.1,0.2,0.2c0-0.2,0.1-0.3,0.1-0.5c4.9,0.1,6.8-0.1,12.4-1.6c6.1-1.7,43.1-23.9,52.6-28.7c-5.9-1.5-39.8-3.5-62.6,25
	l9.2-18.9c4.5,0.1,6.4-0.2,11.7-1.6c6.1-1.7,43.1-23.9,52.6-28.7c-5.8-1.5-38-3.4-60.6,22.7l5-10.2l-0.2-0.4c5.2-2,7.2-3,12.5-7.1
	c5.9-4.5,39.5-48.8,45-54.6c-2.4-1.8-40.8,16.9-50.2,38s-9.2,24.4-9.2,24.4c0.3-0.1,0.6-0.2,1-0.4l-7.3,14
	c7.2-37.1-17.9-61.8-23.1-65.2c2.8,10.3,11.2,52.6,14,58.3c2.6,5.2,3.7,6.7,7.1,10.3c-0.1,0.2-0.2,0.3-0.4,0.5c0.1,0,0.2,0,0.3,0
	l-8.3,16c4.5-34.7-18.8-57.5-23.8-60.8c2.8,10.3,11.2,52.6,14,58.3c2.4,4.7,3.5,6.4,6.3,9.3l-9.8,18.9c4.5-34.7-18.8-57.6-23.8-60.9
	c2.8,10.3,11.2,52.6,14,58.3c2.4,4.7,3.5,6.4,6.3,9.3l-8,15.4c4.2-34.4-18.9-57.1-23.9-60.4c2.8,10.3,11.2,52.6,14,58.3
	c2.4,4.6,3.5,6.3,6.1,9.2l-10.2,19.7c3-21.9-5.2-39.2-12.9-49.8v36C1.1,668.3,2.3,672.3,3,673.8z"/>
<g>
	<path fill="#33720F" d="M161.1,639.1c-1.9-1.6-34.3,13.2-42.6,30.5c-8.3,17.3-8.2,20.1-8.2,20.1c0.3-0.1,0.5-0.2,0.8-0.3l-6.3,11.5
		c6.8-30.7-13.5-51.7-17.8-54.7c2.1,8.6,8.1,44,10.4,48.7c2.1,4.3,3,5.6,5.7,8.7c-0.1,0.1-0.2,0.3-0.3,0.4c0.1,0,0.2,0,0.2,0
		l-7.3,13.1c4.5-28.7-14.4-48.2-18.5-51.1c2.1,8.6,8.1,44,10.4,48.7c1.9,3.9,2.8,5.4,5,7.9l-8.6,15.5c4.5-28.8-14.4-48.3-18.4-51.2
		c2.1,8.6,8.1,44,10.4,48.7c1.9,4,2.8,5.4,5,7.9l-7,12.6c4.3-28.5-14.4-47.9-18.5-50.7c2.1,8.6,8.1,44,10.4,48.7
		c1.9,3.9,2.8,5.3,4.9,7.8l-3.5,6.3h3.6l2.5-4.9c3.4,0.1,5-0.1,9.3-1.1c5.1-1.2,36.4-18.9,44.4-22.7c-4.7-1.3-30.5-3.6-49.8,16.3
		l5.8-11.1c3.7,0.2,5.3,0,9.7-1.1c5.1-1.2,36.4-18.9,44.4-22.7c-4.7-1.4-31.3-3.7-50.8,17.4l7.5-14.4c0.1,0.1,0.1,0.1,0.2,0.2
		c0-0.1,0.1-0.3,0.1-0.4c4.1,0.2,5.7,0.1,10.3-1c5.1-1.2,36.4-18.9,44.4-22.7c-4.9-1.4-33-3.8-52.5,19.4l8.1-15.5
		c3.7,0.2,5.3,0,9.8-1.1c5.1-1.2,36.4-18.9,44.4-22.7c-4.8-1.4-31.5-3.7-50.9,17.5l4.3-8.4L112,689c4.4-1.5,6-2.4,10.6-5.6
		C127.6,679.8,156.4,643.7,161.1,639.1z"/>
	<path fill="#33720F" d="M76.7,768.4h24.5c6.1-3.3,11.4-6.1,14.1-7.4C111.5,759.9,93.7,758.2,76.7,768.4z"/>
	<path fill="#33720F" d="M43.6,726.8c1.6,6.7,5.6,29.4,8.4,41.5h10.8C62.4,744.9,47.2,729.3,43.6,726.8z"/>
</g>
<path fill="#0D4C26" d="M-0.2,768.4h134.1c-0.5-4.6-1.9-10.8-5.4-16.5c0.1-0.2,0.1-0.4,0.2-0.6c11.8,4.5,24.2,1.1,24.2,1.1
	s-0.1-0.1-0.2-0.2h0c-1.3-1.5-8.8-9.7-18.7-12.9c8.7-7,12.9-18.3,12.9-18.3s-8.7,0.6-17.1,5.4c-1.1-2.7-2.7-5.4-5-7.9
	c0-0.1,0-0.2,0-0.4c10.9,3,21.3,0.1,21.3,0.1s-0.1-0.1-0.2-0.2c-1.3-1.5-8.8-9.7-18.7-12.9c8.7-7,12.9-18.3,12.9-18.3
	s-13.3,1-23,9.5c1.5-5.8,1.1-11.6,0.3-16.1c8,0.7,14.5-1.1,14.5-1.1s-0.1-0.1-0.2-0.2v0c-1.3-1.5-8.8-9.7-18.7-12.9
	c8.7-7,12.9-18.3,12.9-18.3s-13.3,1-23,9.5c0.5-1.9,0.8-3.9,0.9-5.7c3-1.1,4.8-2.1,4.8-2.1s-0.1-0.1-0.3-0.2
	c-0.6-0.4-2.2-1.5-4.5-2.7c-0.4-8-3-14-3-14s-0.1,0.1-0.2,0.2v0c-0.8,0.9-3.9,4.6-6.5,9.8c-2.2-0.6-4.5-1.1-6.9-1.3
	c6.7-8.9,8.1-20.8,8.1-20.8s-8.7,2.8-15.8,9.8c-1-1.7-2.1-3.3-3.4-4.8c5.4-3.3,8.7-6.9,8.7-6.9s-0.1,0-0.3-0.1h0
	c-1.4-0.4-7.3-2-14.3-2c-1.6-3-2.9-4.8-2.9-4.8s-1.1,2-2.3,5.2c-1.1,0.2-2.2,0.4-3.2,0.6c3.6-10.5,1.2-22.3,1.2-22.3
	s-10.8,7.9-14.4,20.3c-2-6.3-5.9-11.4-9.2-14.8c0.9-4,1-6.8,1-6.8s-0.1,0-0.3,0.1c-0.7,0.3-2.7,1.2-5.2,2.7c-0.9-0.7-1.4-1-1.4-1
	s0,0.1,0,0.3c-0.1,0.3-0.1,0.9-0.2,1.8c-3.7,2.3-8,5.7-11.2,10.2c-4-10.4-13.5-17.8-13.5-17.8s-3.1,13,2.1,24.8
	c-3.5-2.2-7.3-3.6-10.8-4.4V768.4L-0.2,768.4z M109.7,678.7c-0.4,0.6-0.7,1.2-1.1,1.9c-0.5-1-1.1-1.9-1.7-2.8
	C107.9,678.1,108.8,678.4,109.7,678.7z"/>
<g>
	<path fill="#4A9723" d="M87.7,722.4c-3.8,8-21.5,39.3-22.7,44.4c-0.1,0.6-0.3,1.1-0.4,1.6H75C91,749.6,89,726.7,87.7,722.4z"/>
	<path fill="#4A9723" d="M179.2,719.1c17.3-8.3,32-40.6,30.4-42.6c-4.7,4.7-40.8,33.6-44.4,38.6c-3.2,4.5-4.1,6.2-5.6,10.6l-0.4-0.2
		l-8.4,4.3c21.2-19.4,18.9-46.2,17.5-50.9c-3.8,8-21.5,39.3-22.7,44.4c-1.1,4.5-1.2,6.1-1.1,9.8l-15.5,8.1
		c23.2-19.5,20.8-47.7,19.4-52.6c-3.8,8-21.5,39.3-22.7,44.4c-1.1,4.7-1.3,6.2-1,10.3c-0.1,0-0.3,0.1-0.4,0.1
		c0.1,0.1,0.1,0.1,0.2,0.2l-14.4,7.5c21-19.4,18.7-46,17.3-50.8c-3.8,8-21.5,39.3-22.7,44.4c-1.1,4.4-1.2,6.1-1.1,9.7l-11.1,5.8
		c19.9-19.3,17.7-45.1,16.3-49.8c-3.8,8-21.5,39.3-22.7,44.4c-1,4.3-1.2,5.9-1.1,9.3l-8.4,4.3h6.8l3-1.7c0.7,0.6,1.4,1.2,2,1.7h36.2
		c-8.5-4-19.5-6.8-32.4-4.9l12.6-7c2.5,2.2,3.9,3.1,7.9,5c3,1.4,18,4.3,30.9,6.8h14.5c-7.2-6.7-24.5-18.6-47.9-14.9l15.5-8.6
		c2.5,2.2,3.9,3.1,7.9,5c4.7,2.3,40.1,8.3,48.7,10.4c-2.8-4.1-22.3-22.9-51-18.5l13.1-7.3c0,0.1,0,0.2,0,0.2
		c0.1-0.1,0.3-0.2,0.4-0.3c3.1,2.8,4.3,3.6,8.7,5.7c4.7,2.3,40.1,8.3,48.7,10.4c-3-4.2-24-24.5-54.7-17.8l11.5-6.3
		c-0.1,0.3-0.2,0.5-0.3,0.8C159.1,727.3,161.9,727.4,179.2,719.1z"/>
</g>
<g>
	<path fill="#1B5A09" d="M37.6,614.1c0,0,19.2-14.1,26.2-16c7-1.9,22.2-2.4,37.1,1c14.9,3.4,48,23.2,35.3,19.1
		c-12.8-4-73.5-14.7-105.5,4.4C33.1,616.8,37.6,614.1,37.6,614.1z"/>
	<g>
		<path fill="#6AAD06" d="M38,488.9c-7.1,9.9-1.8,13.2-5,17.6c-3.2,4.4-0.3,7.9-4.9,17.1c-4.6,9.2-1.3,18.7-1.3,18.7
			s-7.3,47.1,0,50.8c7.3,3.7,12.3-11.3,15.4-15.6c3.1-4.3-0.3-22.5,3-29c3.4-6.5,1.9-19,2.5-21.2s-2.3-16.5-4.4-20
			C41.2,503.8,41.3,488.6,38,488.9z"/>
		<path fill="#1A640B" d="M34.2,586.5c0.3-3.3,7.1-80.1,3.9-97.6c0,0,0,0,0,0c-0.2,0.3-0.4,0.5-0.6,0.8c2.9,18.6-3.9,95.9-4,96.7
			L34.2,586.5z"/>
	</g>
	<path fill="#1B5A09" d="M25,644.1c4.1-4.8,4.4-10,4.4-10s3.7-23.6,2.1-30.6c-1.6-7.1-8.2-20.8-18.1-32.5c-3-3.6-8.2-7.9-13.6-12
		v15.3C12.7,594.1,26.3,621.3,25,644.1z"/>
	<g>
		
			<linearGradient id="SVGID_25_" gradientUnits="userSpaceOnUse" x1="98.6628" y1="567.0965" x2="99.4502" y2="587.963" gradientTransform="matrix(0.9611 0.2762 -0.2762 0.9611 109.3603 -17.3363)">
			<stop  offset="0" style="stop-color:#AC0703"/>
			<stop  offset="0.9704" style="stop-color:#DB3737"/>
		</linearGradient>
		<path fill="url(#SVGID_25_)" d="M47.9,555.4c-1.9-0.5-7,9.5-8,13c-1,3.6,0.9,11.7,0.9,11.7s6.4-6.8,7.7-11.2
			C49.7,564.6,49.8,556,47.9,555.4z"/>
		
			<linearGradient id="SVGID_26_" gradientUnits="userSpaceOnUse" x1="92.4003" y1="566.5495" x2="93.1877" y2="587.4156" gradientTransform="matrix(0.9993 -3.860000e-002 -3.860000e-002 -0.9993 -33.5765 1160.3389)">
			<stop  offset="0" style="stop-color:#AC0703"/>
			<stop  offset="0.9704" style="stop-color:#DB3737"/>
		</linearGradient>
		<path fill="url(#SVGID_26_)" d="M37.3,590.2c-2,0.1-4.6-10.9-4.7-14.6c-0.1-3.7,3.7-11.2,3.7-11.2s4.6,8.1,4.8,12.7
			C41.3,581.8,39.3,590.1,37.3,590.2z"/>
		
			<linearGradient id="SVGID_27_" gradientUnits="userSpaceOnUse" x1="49.4999" y1="930.0202" x2="50.2873" y2="950.8854" gradientTransform="matrix(0.8358 0.549 0.549 -0.8358 -514.783 1340.5682)">
			<stop  offset="0" style="stop-color:#AC0703"/>
			<stop  offset="0.9704" style="stop-color:#DB3737"/>
		</linearGradient>
		<path fill="url(#SVGID_27_)" d="M37.8,590.3c-1.6-1.1,2.6-11.5,4.6-14.6c2.1-3.1,9.5-6.9,9.5-6.9s-0.9,9.3-3.5,13.2
			C45.9,585.8,39.4,591.4,37.8,590.3z"/>
		
			<linearGradient id="SVGID_28_" gradientUnits="userSpaceOnUse" x1="37.5546" y1="964.931" x2="38.342" y2="985.7958" gradientTransform="matrix(0.806 0.5919 0.5919 -0.806 -564.7126 1357.4233)">
			<stop  offset="0" style="stop-color:#AC0703"/>
			<stop  offset="0.9704" style="stop-color:#DB3737"/>
		</linearGradient>
		<path fill="url(#SVGID_28_)" d="M37.3,601.9c-1.6-1.2,3.2-11.3,5.4-14.3c2.2-3,9.9-6.4,9.9-6.4s-1.4,9.2-4.1,13
			C45.7,597.8,38.9,603,37.3,601.9z"/>
		
			<linearGradient id="SVGID_29_" gradientUnits="userSpaceOnUse" x1="68.2541" y1="886.121" x2="69.0415" y2="906.9868" gradientTransform="matrix(0.8818 0.4716 0.4716 -0.8818 -443.8481 1351.0009)">
			<stop  offset="0" style="stop-color:#AC0703"/>
			<stop  offset="0.9704" style="stop-color:#DB3737"/>
		</linearGradient>
		<path fill="url(#SVGID_29_)" d="M34.8,601.7c-1.7-0.9,1.6-11.7,3.3-15c1.8-3.3,8.8-7.8,8.8-7.8s-0.1,9.3-2.3,13.4
			C42.5,596.4,36.5,602.6,34.8,601.7z"/>
		
			<linearGradient id="SVGID_30_" gradientUnits="userSpaceOnUse" x1="-1087.743" y1="549.7396" x2="-1086.9557" y2="570.6061" gradientTransform="matrix(-0.9973 7.370000e-002 -7.370000e-002 -0.9973 -1012.4678 1228.9379)">
			<stop  offset="0" style="stop-color:#AC0703"/>
			<stop  offset="0.9704" style="stop-color:#DB3737"/>
		</linearGradient>
		<path fill="url(#SVGID_30_)" d="M31.4,600.2c2-0.1,3.3-11.3,3-15c-0.3-3.7-4.9-10.7-4.9-10.7s-3.7,8.6-3.4,13.2
			C26.4,592.2,29.4,600.3,31.4,600.2z"/>
		
			<linearGradient id="SVGID_31_" gradientUnits="userSpaceOnUse" x1="-1103.899" y1="647.3582" x2="-1103.1116" y2="668.2244" gradientTransform="matrix(-0.9957 -9.300000e-002 9.300000e-002 -0.9957 -1126.2269 1143.5081)">
			<stop  offset="0" style="stop-color:#AC0703"/>
			<stop  offset="0.9704" style="stop-color:#DB3737"/>
		</linearGradient>
		<path fill="url(#SVGID_31_)" d="M32.7,601.2c2,0.2,5.1-10.6,5.5-14.3c0.3-3.7-3.1-11.4-3.1-11.4s-5.1,7.8-5.5,12.4
			C29.2,592.5,30.8,601,32.7,601.2z"/>
		
			<linearGradient id="SVGID_32_" gradientUnits="userSpaceOnUse" x1="-961.368" y1="328.7243" x2="-960.5806" y2="349.5897" gradientTransform="matrix(-0.8863 0.4631 -0.4631 -0.8863 -671.2002 1350.442)">
			<stop  offset="0" style="stop-color:#AC0703"/>
			<stop  offset="0.9704" style="stop-color:#DB3737"/>
		</linearGradient>
		<path fill="url(#SVGID_32_)" d="M28.1,613.7c1.7-0.9-1.4-11.7-3.2-15s-8.8-7.9-8.8-7.9s0,9.3,2.1,13.4
			C20.4,608.4,26.3,614.7,28.1,613.7z"/>
		
			<linearGradient id="SVGID_33_" gradientUnits="userSpaceOnUse" x1="-950.5043" y1="317.3228" x2="-949.7169" y2="338.1884" gradientTransform="matrix(-0.8863 0.4631 -0.4631 -0.8863 -671.2002 1350.442)">
			<stop  offset="0" style="stop-color:#AC0703"/>
			<stop  offset="0.9704" style="stop-color:#DB3737"/>
		</linearGradient>
		<path fill="url(#SVGID_33_)" d="M23.7,628.9c1.7-0.9-1.4-11.7-3.2-15c-1.7-3.3-8.8-7.9-8.8-7.9s0,9.3,2.1,13.4
			C16,623.6,22,629.8,23.7,628.9z"/>
		
			<linearGradient id="SVGID_34_" gradientUnits="userSpaceOnUse" x1="-110.9469" y1="1139.1902" x2="-110.1597" y2="1160.052" gradientTransform="matrix(0.5052 0.863 0.863 -0.5052 -897.1015 1285.5358)">
			<stop  offset="0" style="stop-color:#AC0703"/>
			<stop  offset="0.9704" style="stop-color:#DB3737"/>
		</linearGradient>
		<path fill="url(#SVGID_34_)" d="M30.5,614.4c-1-1.7,7.4-9.1,10.6-11c3.2-1.9,11.6-2,11.6-2s-4.9,7.9-8.9,10.3
			C39.8,614,31.5,616.1,30.5,614.4z"/>
		
			<linearGradient id="SVGID_35_" gradientUnits="userSpaceOnUse" x1="42.4633" y1="951.6346" x2="43.2507" y2="972.4993" gradientTransform="matrix(0.806 0.5919 0.5919 -0.806 -564.7126 1357.4233)">
			<stop  offset="0" style="stop-color:#AC0703"/>
			<stop  offset="0.9704" style="stop-color:#DB3737"/>
		</linearGradient>
		<path fill="url(#SVGID_35_)" d="M33.4,615.5c-1.6-1.2,3.2-11.3,5.4-14.3c2.2-3,9.9-6.4,9.9-6.4s-1.4,9.2-4.1,13
			C41.8,611.4,35,616.6,33.4,615.5z"/>
		
			<linearGradient id="SVGID_36_" gradientUnits="userSpaceOnUse" x1="65.6814" y1="889.7054" x2="66.4687" y2="910.5702" gradientTransform="matrix(0.8668 0.4987 0.4987 -0.8668 -470.6585 1353.6633)">
			<stop  offset="0" style="stop-color:#AC0703"/>
			<stop  offset="0.9704" style="stop-color:#DB3737"/>
		</linearGradient>
		<path fill="url(#SVGID_36_)" d="M30.5,615.1c-1.7-1,1.9-11.6,3.8-14.9c1.9-3.2,9.1-7.5,9.1-7.5s-0.4,9.3-2.7,13.3
			C38.4,610.1,32.3,616.1,30.5,615.1z"/>
		
			<linearGradient id="SVGID_37_" gradientUnits="userSpaceOnUse" x1="-1082.8362" y1="536.4429" x2="-1082.0488" y2="557.3094" gradientTransform="matrix(-0.9973 7.370000e-002 -7.370000e-002 -0.9973 -1012.4678 1228.9379)">
			<stop  offset="0" style="stop-color:#AC0703"/>
			<stop  offset="0.9704" style="stop-color:#DB3737"/>
		</linearGradient>
		<path fill="url(#SVGID_37_)" d="M27.4,613.8c2-0.1,3.3-11.3,3-15c-0.3-3.7-4.9-10.7-4.9-10.7s-3.7,8.6-3.4,13.2
			C22.5,605.9,25.5,613.9,27.4,613.8z"/>
		
			<linearGradient id="SVGID_38_" gradientUnits="userSpaceOnUse" x1="-1096.7626" y1="602.1605" x2="-1095.9751" y2="623.0281" gradientTransform="matrix(-0.9992 -3.920000e-002 3.920000e-002 -0.9992 -1089.5573 1173.923)">
			<stop  offset="0" style="stop-color:#AC0703"/>
			<stop  offset="0.9704" style="stop-color:#DB3737"/>
		</linearGradient>
		<path fill="url(#SVGID_38_)" d="M29.5,614.8c2,0.1,4.6-10.9,4.7-14.6c0.1-3.7-3.7-11.2-3.7-11.2s-4.7,8.1-4.8,12.7
			C25.5,606.4,27.5,614.8,29.5,614.8z"/>
		
			<linearGradient id="SVGID_39_" gradientUnits="userSpaceOnUse" x1="-1090.2019" y1="764.1894" x2="-1089.4144" y2="785.0559" gradientTransform="matrix(-0.9611 -0.2762 0.2762 -0.9611 -1227.6613 1049.0726)">
			<stop  offset="0" style="stop-color:#AC0703"/>
			<stop  offset="0.9704" style="stop-color:#DB3737"/>
		</linearGradient>
		<path fill="url(#SVGID_39_)" d="M30.9,615.2c1.9,0.5,7-9.5,8-13c1-3.6-0.9-11.7-0.9-11.7s-6.4,6.8-7.7,11.2
			C29,606.1,29,614.7,30.9,615.2z"/>
		
			<linearGradient id="SVGID_40_" gradientUnits="userSpaceOnUse" x1="-100.0813" y1="1127.7905" x2="-99.2941" y2="1148.6526" gradientTransform="matrix(0.5052 0.863 0.863 -0.5052 -897.1015 1285.5358)">
			<stop  offset="0" style="stop-color:#AC0703"/>
			<stop  offset="0.9704" style="stop-color:#DB3737"/>
		</linearGradient>
		<path fill="url(#SVGID_40_)" d="M26.2,629.6c-1-1.7,7.4-9.1,10.6-11c3.2-1.9,11.6-2,11.6-2s-4.9,7.9-8.9,10.3
			S27.2,631.3,26.2,629.6z"/>
		
			<linearGradient id="SVGID_41_" gradientUnits="userSpaceOnUse" x1="47.9177" y1="936.861" x2="48.705" y2="957.7257" gradientTransform="matrix(0.806 0.5919 0.5919 -0.806 -564.7126 1357.4233)">
			<stop  offset="0" style="stop-color:#AC0703"/>
			<stop  offset="0.9704" style="stop-color:#DB3737"/>
		</linearGradient>
		<path fill="url(#SVGID_41_)" d="M29,630.6c-1.6-1.2,3.2-11.3,5.4-14.3c2.2-3,9.9-6.4,9.9-6.4s-1.4,9.2-4.1,13
			C37.4,626.5,30.6,631.8,29,630.6z"/>
		
			<linearGradient id="SVGID_42_" gradientUnits="userSpaceOnUse" x1="69.4603" y1="874.4177" x2="70.2476" y2="895.2824" gradientTransform="matrix(0.8668 0.4987 0.4987 -0.8668 -470.6585 1353.6633)">
			<stop  offset="0" style="stop-color:#AC0703"/>
			<stop  offset="0.9704" style="stop-color:#DB3737"/>
		</linearGradient>
		<path fill="url(#SVGID_42_)" d="M26.2,630.2c-1.7-1,1.9-11.6,3.8-14.9c1.9-3.2,9.1-7.5,9.1-7.5s-0.4,9.3-2.7,13.3
			C34.1,625.2,27.9,631.2,26.2,630.2z"/>
		
			<linearGradient id="SVGID_43_" gradientUnits="userSpaceOnUse" x1="-1077.384" y1="521.6688" x2="-1076.5967" y2="542.5353" gradientTransform="matrix(-0.9973 7.370000e-002 -7.370000e-002 -0.9973 -1012.4678 1228.9379)">
			<stop  offset="0" style="stop-color:#AC0703"/>
			<stop  offset="0.9704" style="stop-color:#DB3737"/>
		</linearGradient>
		<path fill="url(#SVGID_43_)" d="M23.1,628.9c2-0.1,3.3-11.3,3-15c-0.3-3.7-4.9-10.7-4.9-10.7s-3.7,8.6-3.4,13.2
			C18.2,621,21.1,629.1,23.1,628.9z"/>
		
			<linearGradient id="SVGID_44_" gradientUnits="userSpaceOnUse" x1="-1093.0106" y1="586.8653" x2="-1092.2233" y2="607.7329" gradientTransform="matrix(-0.9992 -3.920000e-002 3.920000e-002 -0.9992 -1089.5573 1173.923)">
			<stop  offset="0" style="stop-color:#AC0703"/>
			<stop  offset="0.9704" style="stop-color:#DB3737"/>
		</linearGradient>
		<path fill="url(#SVGID_44_)" d="M25.2,630c2,0.1,4.6-10.9,4.7-14.6c0.1-3.7-3.7-11.2-3.7-11.2s-4.7,8.1-4.8,12.7
			C21.2,621.5,23.2,629.9,25.2,630z"/>
		
			<linearGradient id="SVGID_45_" gradientUnits="userSpaceOnUse" x1="-1090.2031" y1="748.4412" x2="-1089.4156" y2="769.3077" gradientTransform="matrix(-0.9611 -0.2762 0.2762 -0.9611 -1227.6613 1049.0726)">
			<stop  offset="0" style="stop-color:#AC0703"/>
			<stop  offset="0.9704" style="stop-color:#DB3737"/>
		</linearGradient>
		<path fill="url(#SVGID_45_)" d="M26.5,630.4c1.9,0.5,7-9.5,8-13c1-3.6-0.9-11.7-0.9-11.7s-6.4,6.8-7.7,11.2
			C24.7,621.2,24.7,629.8,26.5,630.4z"/>
	</g>
	<path fill="#65AB0A" d="M19.2,660.7c0,0,7.1-17.3,5.9-18.4c-1.2-1.1-3.7-13.1-4-16.2c-0.3-3.1,4.9-6.9,3.6-10.6
		c-1.2-3.7-4-7.4-4.9-9.3s0.2-8.7-0.8-12.1c-1-3.3-6-5.4-8.7-9.1c-2.6-3.7-2.6-11.2-5.7-14.5c-1-1.1-2.8-1.9-4.8-2.7v31.3
		C13.6,630.3,19.2,660.7,19.2,660.7z"/>
	<path fill="#65AB0A" d="M146.5,632.7c-1.4-4-9-15.6-20.7-16.1c-11.7-0.5-16-8.5-20.4-9.8c-4.4-1.3-10.9,2.2-15.5,1.6
		c-4.5-0.6-8.7-4.1-12.1-3.5c-3.4,0.7-9,4.9-11.1,4.9c-2.1,0-6.7-0.7-10.5-0.1c-3.8,0.6-4.8,7-7.7,8.1c-2.9,1.1-14.7,4.4-16.2,3.9
		c-1.5-0.5-13.6,13.7-13.6,13.7S98.3,611.1,146.5,632.7z"/>
</g>
<g>
	<path fill="#7DBD20" d="M236.3,639.9c0,0-106.4-82-188.1-14.7c4.5,17.3,3.5,35,3.5,35l-20.9-24.5l-31,24.1v51.4
		C18.7,696.2,97.9,640.8,236.3,639.9z"/>
	<path fill="#9DD91F" d="M236.3,639.9c-21.3-11.5-78.7-27.8-103.8-12.4c-6.7,8.6-9.5,28-9.5,28s-9.2-19.7-14.7-21.7
		c-4.6-1.7-81.6,30.5-108.4,51.9v47C52.6,704.3,148.2,657.9,236.3,639.9z"/>
</g>
<path fill="#399600" d="M72.8,759.1c-0.3-9.4-29.8-30.2-29.8-30.2s31.5,6,36.5,12c2.3-3,8.6-8.9,2.7-14.8
	c-8.7-7.4-39.2-8.7-39.2-8.7s23.7-11.8,43.9-8.1c0,0,3.5-10.2-11.3-16.3c-14.8-6.1-36.5,9.6-36.5,9.6s12.1-20.2,36-16.8
	c-3-4.1-3.7-8.1-15.1-10.8c-11.4-2.7-32.6,6.7-32.6,6.7c9.2,22,16.9,52.6,19.9,86.7h22.3C71.6,764.6,72.9,761.3,72.8,759.1z"/>
<image overflow="visible" width="2474" height="2394" xlink:href="../../banco de imagens/botões/butt 27.png"  transform="matrix(0.3476 0 0 0.2309 87.7287 117.1382)">
</image>
<g>
	<path fill="#020202" d="M417.8,305.5v-0.1c0-0.1,0-0.2,0-0.2c0-0.1,0-0.2,0-0.4c0-0.1,0-0.2,0-0.4c0-0.2,0-0.3,0.1-0.3
		c0-0.2,0-0.4,0.1-0.6c0-0.2,0-0.3,0-0.6c0.1-0.2,0.2-0.5,0.3-0.7c0-0.2,0-0.5,0.1-0.7c0.1-0.2,0.1-0.5,0.1-0.8
		c0.1-0.2,0.2-0.5,0.3-0.8c0.1-0.3,0.2-0.6,0.3-0.9c0.1-0.3,0.2-0.6,0.3-0.9c0.1-0.4,0.2-0.7,0.3-1c0.1-0.4,0.2-0.8,0.3-1.2
		c0.2-0.4,0.3-0.8,0.4-1.2c0.1-0.4,0.2-0.8,0.4-1.2c0.1-0.4,0.2-0.8,0.3-1.3c0.2-0.4,0.3-0.8,0.4-1.3c0.2-0.5,0.3-0.9,0.4-1.4
		c0.2-0.5,0.3-0.9,0.5-1.4c0.1-0.5,0.2-0.9,0.4-1.4c0.2-0.5,0.3-1,0.4-1.5c0.2-0.5,0.3-1.1,0.5-1.6c0.2-0.5,0.4-1,0.5-1.5
		c0.1-0.5,0.2-1.1,0.4-1.6c0.2-0.5,0.3-1.1,0.5-1.6c0.2-0.6,0.3-1.2,0.5-1.8c0.2-0.5,0.4-1.1,0.5-1.8c0.2-0.5,0.4-1.1,0.5-1.8
		c0.3-0.6,0.5-1.2,0.7-1.8c0.2-0.6,0.3-1.2,0.5-1.9c0.2-0.6,0.3-1.2,0.5-1.9c0.3-0.6,0.5-1.2,0.7-1.9c0.2-0.6,0.4-1.2,0.7-1.9
		c0.2-0.7,0.4-1.4,0.5-2c0.3-0.6,0.5-1.3,0.7-2c0.2-0.6,0.4-1.2,0.7-1.9c0.2-0.7,0.4-1.4,0.5-2c0.3-0.7,0.5-1.4,0.7-2.1
		c0.3-0.6,0.5-1.3,0.7-2c0.3-0.6,0.5-1.3,0.7-2c0.3-0.7,0.5-1.4,0.7-2.1c0.3-0.6,0.5-1.3,0.7-2c0.3-0.7,0.5-1.4,0.7-2.1
		c0.3-0.6,0.5-1.3,0.7-2c0.3-0.7,0.5-1.4,0.7-2.1c0.3-0.7,0.5-1.4,0.7-2c0.3-0.7,0.5-1.4,0.7-2.1c0.3-0.7,0.5-1.4,0.7-2.1
		c0.3-0.6,0.5-1.3,0.8-2c0.2-0.7,0.4-1.4,0.7-2.1c0.2-0.7,0.4-1.4,0.7-2c0.2-0.7,0.4-1.4,0.7-2.1c0.2-0.6,0.4-1.3,0.7-2
		c0.2-0.7,0.4-1.4,0.7-2c0.2-0.7,0.4-1.4,0.7-2c0.2-0.7,0.4-1.4,0.7-2c0.2-0.7,0.4-1.4,0.7-2c0.2-0.6,0.4-1.3,0.7-2
		c0.2-0.6,0.4-1.2,0.5-1.9c0.3-0.6,0.5-1.2,0.7-1.9c0.3-0.6,0.5-1.2,0.7-1.9c0.2-0.6,0.4-1.2,0.7-1.9c0.2-0.6,0.4-1.2,0.5-1.9
		c0.3-0.5,0.5-1.1,0.7-1.8c0.2-0.6,0.4-1.2,0.5-1.8c0.3-0.5,0.5-1.1,0.7-1.8c0.2-0.5,0.4-1.1,0.5-1.6c0.2-0.5,0.3-1.1,0.5-1.6
		c0.2-0.5,0.4-1.1,0.7-1.6c0.2-0.5,0.4-1.1,0.5-1.6c0.2-0.5,0.4-1,0.5-1.5c0.2-0.5,0.4-1,0.5-1.5c0.1-0.5,0.2-0.9,0.4-1.4
		c0.2-0.5,0.4-0.9,0.5-1.4c0.2-0.5,0.3-0.9,0.4-1.4c0.2-0.4,0.3-0.8,0.5-1.3c0.2-0.4,0.3-0.8,0.4-1.2c0.2-0.5,0.3-0.9,0.4-1.3
		c0.2-0.4,0.3-0.7,0.4-1.1c0.2-0.4,0.3-0.8,0.4-1.2c0.2-0.3,0.3-0.6,0.4-0.9c0.1-0.4,0.2-0.7,0.4-1c0.1-0.2,0.2-0.5,0.3-0.8
		c0.1-0.3,0.2-0.6,0.4-0.8c0.1-0.3,0.2-0.6,0.3-0.8c0.1-0.2,0.2-0.5,0.3-0.7c0.1-0.2,0.2-0.4,0.3-0.6c0-0.2,0-0.4,0.1-0.6
		c0.1-0.2,0.2-0.3,0.3-0.5c0-0.2,0-0.3,0.1-0.5c0.1-0.1,0.1-0.2,0.1-0.4c0.1-0.1,0.1-0.2,0.1-0.2c0-0.1,0-0.2,0.1-0.2v-0.1
		c0.2-0.1,0.4-0.2,0.5-0.2c0.3-0.1,0.5-0.2,0.8-0.2c0.4-0.1,0.7-0.1,1.2-0.1c0.4-0.1,0.9-0.2,1.3-0.2c0.6,0,1.2,0,1.7-0.1
		c0.6,0,1.2,0,1.8-0.1c0.7,0,1.4,0,2.1-0.1c0.7,0,1.4,0,2.1,0c0.8,0,1.6,0,2.4-0.1c0.8,0,1.5,0,2.2,0c0.8,0,1.6,0,2.4,0s1.6,0,2.4,0
		c0.8,0.1,1.5,0.1,2.2,0.1c0.8,0,1.5,0,2.2,0c0.7,0,1.4,0,2.1,0.1c0.6,0,1.2,0,1.9,0.1c0.6,0,1.2,0,1.7,0c0.5,0.1,1,0.1,1.5,0.1
		c0.4,0.1,0.8,0.1,1.2,0.1c0.3,0.1,0.6,0.2,0.9,0.2c0.2,0,0.4,0,0.5,0.1v0.1c0.1,0,0.1,0,0.1,0.1c0.1,0.1,0.1,0.2,0.1,0.2
		c0.1,0.1,0.1,0.2,0.1,0.3c0.1,0.2,0.2,0.3,0.3,0.4c0,0.2,0,0.3,0.1,0.5c0.1,0.2,0.2,0.4,0.3,0.6c0.1,0.2,0.2,0.5,0.3,0.7
		c0.1,0.2,0.2,0.5,0.3,0.7c0.1,0.2,0.2,0.5,0.3,0.7c0.1,0.3,0.2,0.6,0.3,0.8c0.2,0.3,0.3,0.6,0.4,0.9c0.1,0.3,0.2,0.6,0.4,0.9
		c0.1,0.4,0.2,0.7,0.3,1.1c0.2,0.4,0.3,0.8,0.4,1.2c0.2,0.4,0.3,0.8,0.4,1.2c0.2,0.4,0.4,0.8,0.5,1.2c0.1,0.4,0.2,0.8,0.4,1.3
		c0.2,0.4,0.3,0.8,0.4,1.3c0.2,0.5,0.3,0.9,0.5,1.4c0.2,0.5,0.4,0.9,0.5,1.4c0.2,0.5,0.3,1,0.4,1.5c0.2,0.5,0.4,1,0.5,1.5
		c0.2,0.5,0.3,1,0.5,1.5c0.2,0.5,0.4,1.1,0.5,1.6c0.2,0.5,0.4,1.1,0.5,1.6c0.3,0.5,0.5,1.1,0.7,1.6c0.2,0.6,0.4,1.2,0.5,1.8
		c0.2,0.6,0.3,1.2,0.5,1.8c0.3,0.6,0.5,1.2,0.7,1.9c0.2,0.5,0.4,1.1,0.5,1.8c0.3,0.6,0.5,1.2,0.7,1.9c0.2,0.6,0.4,1.2,0.7,1.9
		c0.2,0.6,0.4,1.3,0.5,2c0.3,0.6,0.5,1.2,0.7,1.9c0.3,0.6,0.5,1.3,0.7,2c0.2,0.6,0.4,1.3,0.7,2c0.2,0.6,0.4,1.3,0.7,2
		c0.2,0.7,0.4,1.4,0.7,2c0.2,0.7,0.4,1.4,0.7,2.1c0.2,0.6,0.4,1.3,0.7,2c0.2,0.7,0.4,1.4,0.5,2.1c0.3,0.7,0.5,1.4,0.7,2
		c0.3,0.7,0.5,1.4,0.8,2.1c0.2,0.7,0.4,1.4,0.7,2.1c0.2,0.7,0.4,1.4,0.7,2.1c0.2,0.7,0.4,1.4,0.7,2.1c0.2,0.7,0.4,1.4,0.7,2.1
		c0.2,0.7,0.4,1.4,0.7,2.1c0.2,0.7,0.4,1.4,0.7,2.1c0.2,0.6,0.4,1.3,0.7,2c0.2,0.7,0.4,1.4,0.5,2.1c0.3,0.7,0.5,1.4,0.7,2.1
		c0.3,0.7,0.5,1.4,0.7,2.1c0.3,0.6,0.5,1.3,0.7,2c0.3,0.7,0.5,1.4,0.7,2.1c0.2,0.6,0.4,1.3,0.7,2c0.2,0.7,0.4,1.4,0.5,2
		c0.3,0.7,0.5,1.4,0.7,2c0.2,0.7,0.4,1.4,0.7,2c0.2,0.6,0.4,1.3,0.5,2c0.2,0.6,0.4,1.2,0.7,1.9c0.2,0.6,0.4,1.2,0.5,1.9
		c0.2,0.6,0.3,1.2,0.5,1.9c0.3,0.6,0.5,1.2,0.7,1.9c0.2,0.6,0.4,1.2,0.5,1.8c0.2,0.6,0.4,1.2,0.5,1.9c0.2,0.5,0.4,1.1,0.5,1.6
		c0.2,0.6,0.3,1.2,0.5,1.8c0.2,0.5,0.3,1.1,0.4,1.6c0.2,0.5,0.4,1.1,0.5,1.6c0.2,0.5,0.3,1.1,0.5,1.6c0.1,0.5,0.2,1,0.4,1.5
		c0.2,0.5,0.4,1,0.5,1.5c0.1,0.5,0.2,0.9,0.4,1.4c0.1,0.5,0.2,0.9,0.4,1.4c0.1,0.5,0.2,0.9,0.4,1.3c0.1,0.5,0.2,0.9,0.4,1.3
		c0.1,0.5,0.2,0.9,0.3,1.3c0.1,0.4,0.2,0.8,0.4,1.2c0.1,0.4,0.2,0.8,0.3,1.2c0.1,0.3,0.2,0.7,0.3,1c0.1,0.3,0.2,0.6,0.3,0.9
		c0.1,0.3,0.2,0.6,0.3,0.9c0.1,0.3,0.2,0.6,0.3,0.9c0.1,0.2,0.2,0.5,0.3,0.7c0,0.3,0,0.6,0.1,0.8c0.1,0.2,0.1,0.4,0.1,0.6
		c0.1,0.2,0.1,0.4,0.1,0.6c0.1,0.2,0.1,0.4,0.1,0.6s0,0.3,0.1,0.4c0,0.2,0,0.3,0,0.5c0,0.1,0,0.2,0,0.2c0,0.1,0,0.2,0.1,0.2h-0.1
		c-0.1,0.2-0.2,0.3-0.3,0.4c-0.2,0.1-0.4,0.2-0.7,0.2c-0.4,0.1-0.7,0.1-0.9,0.1c-0.4,0.1-0.9,0.2-1.3,0.2c-0.5,0-1,0-1.5,0.1
		c-0.6,0.1-1.2,0.1-1.7,0.1c-0.6,0.1-1.3,0.1-2,0.1c-0.6,0-1.3,0-2,0.1c-0.7,0-1.5,0-2.2,0c-0.7,0-1.5,0-2.2,0
		c-0.8,0-29.5,0-33.4-0.8c-3.6-0.7-7.1-5.2-7.1-11.8c0-13.5-1.1-21.8-3.1-24.4c-2-2.6-5.7,0-5.8,0.7s-2.4,13.3-5.8,25.1
		c-1.6,5.5-3.9,9.1-6.5,10.2c-2.9,1.2-30.3,1.6-31,1.6c-0.8,0-1.5,0-2.2-0.1c-0.7,0-1.4,0-2.1,0c-0.7-0.1-1.4-0.1-2-0.1
		c-0.6-0.1-1.2-0.1-1.8-0.1c-0.4-0.1-0.9-0.2-1.5-0.2c-0.4,0-0.9,0-1.3-0.1c-0.4-0.1-0.8-0.2-1.1-0.4c-0.3-0.1-0.5-0.2-0.8-0.2
		C418,305.8,417.9,305.7,417.8,305.5z"/>
	<path fill="#020202" d="M569.1,300.6c-0.1-0.3-4.4,6.6-16.6,6.5c-0.3,0.1-0.7,0.1-1.1,0c-0.3,0-0.7,0-1,0c-0.4,0-0.8,0-1.1,0
		c-0.4-0.1-0.8-0.1-1.1-0.1c-0.4-0.1-0.8-0.2-1.1-0.2c-0.3,0-0.7,0-1.1-0.1c-0.3-0.1-0.7-0.2-1.1-0.3c-0.3-0.1-0.7-0.2-1-0.2
		c-0.4-0.2-0.8-0.3-1.1-0.4c-0.3-0.1-0.7-0.2-1.1-0.4c-0.3-0.2-0.7-0.3-1-0.4c-0.3-0.2-0.7-0.3-1.1-0.5c-0.3-0.2-0.7-0.3-1-0.5
		c-0.3-0.2-0.7-0.3-1-0.5c-0.3-0.2-0.7-0.3-1-0.5c-0.3-0.3-0.7-0.5-1-0.6c-0.3-0.2-0.7-0.5-1-0.6c-0.3-0.2-0.7-0.5-1-0.7
		c-0.3-0.2-0.7-0.4-1-0.6c-0.3-0.3-0.6-0.5-0.9-0.8c-0.3-0.2-0.7-0.5-1-0.8c-0.2-0.3-0.5-0.6-0.9-0.9c-0.3-0.2-0.6-0.5-0.9-0.9
		c-0.3-0.2-0.5-0.5-0.9-0.9c-0.2-0.3-0.5-0.7-0.9-1c-0.3-0.2-0.5-0.5-0.8-0.9c-0.3-0.3-0.5-0.7-0.8-1c-0.3-0.3-0.5-0.7-0.8-1.1
		c-0.3-0.3-0.5-0.7-0.8-1c-0.2-0.4-0.5-0.8-0.8-1.1c-0.2-0.4-0.4-0.8-0.6-1.1c-0.2-0.4-0.5-0.8-0.6-1.3c-0.2-0.3-0.5-0.7-0.6-1.1
		c-0.2-0.4-0.4-0.8-0.6-1.3c-0.2-0.4-0.3-0.8-0.5-1.3c-0.2-0.5-0.3-1-0.5-1.4c-0.2-0.4-0.3-0.9-0.5-1.4c-0.2-0.4-0.3-0.9-0.4-1.4
		c-0.2-0.4-0.3-0.9-0.5-1.4c-0.1-0.5-0.2-1-0.3-1.4c-0.2-0.5-0.3-1-0.4-1.5c-0.1-0.5-0.2-1-0.3-1.5c-0.1-0.5-0.2-1-0.3-1.5
		c-0.1-0.6-0.2-1.1-0.2-1.6c0-0.5,0-1-0.1-1.6c0-0.5,0-1-0.1-1.6c0-0.5,0-1,0-1.6c0-0.6,0-1.1,0-1.6c0-0.6,0-1.2,0-1.8
		c0-0.6,0-1.2,0.1-1.8c0-0.6,0-1.2,0.1-1.8c0-0.7,0-1.3,0.1-1.9c0.1-0.6,0.2-1.2,0.2-1.8c0.1-0.7,0.2-1.3,0.3-1.9
		c0.2-0.7,0.3-1.5,0.5-2.1c0.1-0.7,0.2-1.3,0.4-2c0.2-0.7,0.3-1.3,0.5-1.9c0.2-0.7,0.4-1.3,0.6-1.9c0.2-0.7,0.4-1.3,0.6-1.9
		c0.2-0.6,0.4-1.2,0.6-1.8c0.3-0.6,0.5-1.1,0.8-1.6c0.2-0.6,0.5-1.1,0.8-1.6c0.2-0.6,0.5-1.1,0.9-1.6c0.3-0.5,0.5-1,0.9-1.5
		c5.7-8.8,16.2-17.7,30.4-18.4c14.2-0.8,19.6,6.4,19.7,6.1c0.3-0.7-0.5-4.2,1.7-5.5c2.2-1.3,33.9-1.2,33.5,2l0.1,0.1
		c0,0.2,0,0.3,0,0.4c0,0.2,0,0.3,0,0.5c0,0.2,0,0.5,0,0.8c0,0.2,0,0.5,0,0.7c0,0.3,0,0.6,0,0.9c0,0.4,0,0.8,0,1.1
		c0,0.4,0,0.8-0.1,1.1c0,0.5,0,1,0,1.4c-0.1,0.5-0.1,1-0.1,1.4c0,0.6,0,1.1-0.1,1.6c0,0.5,0,1,0,1.6c-0.1,0.6-0.1,1.2-0.1,1.8
		c0,0.7,0,1.3-0.1,1.9c0,0.7,0,1.3,0,2c-0.1,0.7-0.1,1.3-0.1,2c0,0.8,0,1.5-0.1,2.3c0,0.8,0,1.5,0,2.1c-0.1,0.8-0.1,1.6-0.1,2.4
		c0,0.8,0,1.6,0,2.4c0,0.8,0,1.7-0.1,2.5c0,0.8,0,1.7,0,2.5c0,0.9,0,1.8,0,2.6c0,1,0,2,0,2.9c0,0.9,0,1.8,0,2.8
		c0.1,0.9,0.1,1.8,0.1,2.6c0,0.9,0,1.8,0,2.6s0,1.7,0.1,2.5c0,0.8,0,1.7,0,2.5c0.1,0.8,0.1,1.6,0.1,2.4c0,0.8,0,1.5,0.1,2.4
		c0,0.8,0,1.5,0.1,2.1c0,0.7,0,1.5,0,2.3c0.1,0.7,0.1,1.3,0.1,2c0.1,0.7,0.1,1.3,0.1,2c0.1,0.7,0.1,1.3,0.1,1.9
		c0.1,0.7,0.1,1.3,0.1,1.9c0.1,0.6,0.1,1.2,0.1,1.8c0.1,0.5,0.1,1,0.1,1.6c0,0.5,0,1,0.1,1.5c0,0.5,0,1,0.1,1.5c0,0.5,0,1,0,1.4
		c0.1,0.4,0.1,0.9,0.1,1.4c0,0.3,0,0.7,0.1,1.1c0,0.4,0,0.8,0,1.1c0,0.3,0,0.7,0.1,1c0,0.3,0,0.7,0,1c0,0.3,0,0.5,0,0.8
		c0,0.2,0,0.5,0,0.8c0,0.2,0,0.5,0,0.6c0,0.2,0,0.4,0,0.6c0,0.1,0,0.2-0.1,0.4c0,0.2,0,0.3,0,0.4c-0.1,0.1-0.1,0.2-0.1,0.2
		c0,0.1,0,0.1-0.1,0.1c-0.2,0.1-0.3,0.2-0.5,0.2c-0.3,0.1-0.6,0.1-0.9,0.1c-0.4,0.1-0.8,0.2-1.3,0.2c-0.4,0-2.5,0.1-3,0.1
		c-0.7,0.1-1.3,0.1-1.9,0.1c-0.7,0-1.3,0-2,0c-0.7,0-3.5,0-4.3,0c-0.7,0-1.5,0-2.3,0c-0.8,0-3.6,0-4.4-0.1c-0.8,0-7.3-0.4-7.9-0.4
		c-0.5-0.1-3.8-0.5-3.8-0.5C570.6,305.7,569.2,301.2,569.1,300.6z"/>
	<path fill="#FFFFFF" d="M430.3,298.5v-0.1c0-0.1,0-0.1,0-0.2c0-0.1,0-0.2,0-0.3c0-0.1,0-0.2,0-0.3c0-0.1,0-0.2,0.1-0.3
		c0-0.2,0-0.4,0.1-0.5c0-0.1,0-0.3,0-0.5c0.1-0.2,0.1-0.4,0.2-0.6c0-0.2,0-0.4,0.1-0.6c0.1-0.2,0.1-0.4,0.1-0.7
		c0.1-0.2,0.1-0.4,0.2-0.7c0.1-0.3,0.1-0.6,0.2-0.8c0.1-0.3,0.1-0.6,0.2-0.8c0.1-0.3,0.1-0.7,0.2-0.9c0.1-0.3,0.1-0.7,0.2-1
		c0.1-0.3,0.2-0.7,0.3-1c0.1-0.3,0.2-0.7,0.3-1c0.1-0.3,0.1-0.7,0.2-1.1c0.1-0.3,0.2-0.7,0.3-1.1c0.1-0.4,0.2-0.8,0.3-1.2
		c0.1-0.4,0.3-0.8,0.4-1.2c0.1-0.4,0.2-0.8,0.3-1.2c0.1-0.5,0.2-0.9,0.3-1.4c0.1-0.5,0.3-1,0.4-1.5c0.1-0.4,0.3-0.9,0.4-1.4
		c0.1-0.5,0.2-1,0.3-1.5c0.1-0.5,0.3-1,0.4-1.5c0.1-0.6,0.3-1.1,0.4-1.6c0.1-0.5,0.3-1,0.4-1.6c0.1-0.5,0.3-1,0.4-1.6
		c0.2-0.6,0.4-1.1,0.5-1.6c0.1-0.6,0.3-1.1,0.4-1.7c0.1-0.6,0.3-1.1,0.4-1.7c0.2-0.6,0.4-1.1,0.5-1.7c0.1-0.6,0.3-1.1,0.5-1.7
		c0.1-0.6,0.3-1.2,0.4-1.8c0.2-0.6,0.4-1.1,0.5-1.8c0.1-0.6,0.3-1.1,0.5-1.7c0.1-0.6,0.3-1.2,0.4-1.8c0.2-0.6,0.4-1.2,0.5-1.9
		c0.2-0.6,0.4-1.1,0.5-1.8c0.2-0.6,0.4-1.1,0.5-1.8c0.2-0.6,0.4-1.2,0.5-1.9c0.2-0.6,0.4-1.1,0.5-1.8c0.2-0.6,0.4-1.2,0.5-1.9
		c0.2-0.6,0.4-1.1,0.5-1.8c0.2-0.6,0.4-1.2,0.5-1.9c0.2-0.6,0.4-1.2,0.5-1.8c0.2-0.6,0.4-1.2,0.5-1.9c0.2-0.6,0.4-1.2,0.5-1.9
		c0.2-0.6,0.4-1.1,0.6-1.8c0.1-0.6,0.3-1.2,0.5-1.9c0.1-0.6,0.3-1.2,0.5-1.8c0.1-0.6,0.3-1.2,0.5-1.9c0.1-0.6,0.3-1.1,0.5-1.8
		c0.1-0.6,0.3-1.2,0.5-1.8c0.1-0.6,0.3-1.2,0.5-1.8c0.1-0.6,0.3-1.2,0.5-1.8c0.1-0.6,0.3-1.2,0.5-1.8c0.1-0.6,0.3-1.1,0.5-1.8
		c0.1-0.6,0.3-1.1,0.4-1.7c0.2-0.6,0.4-1.1,0.5-1.7c0.2-0.6,0.4-1.1,0.5-1.7c0.1-0.6,0.3-1.1,0.5-1.7c0.1-0.6,0.3-1.1,0.4-1.7
		c0.2-0.5,0.4-1,0.5-1.6c0.1-0.6,0.3-1.1,0.4-1.6c0.2-0.5,0.4-1,0.5-1.6c0.1-0.5,0.3-1,0.4-1.5c0.1-0.5,0.3-1,0.4-1.5
		c0.1-0.5,0.3-1,0.5-1.5c0.1-0.5,0.3-1,0.4-1.5c0.1-0.4,0.3-0.9,0.4-1.4c0.1-0.4,0.3-0.9,0.4-1.4c0.1-0.4,0.2-0.8,0.3-1.2
		c0.1-0.4,0.3-0.8,0.4-1.2c0.1-0.4,0.2-0.8,0.3-1.2c0.1-0.3,0.3-0.7,0.4-1.1c0.1-0.3,0.2-0.7,0.3-1c0.1-0.4,0.2-0.8,0.3-1.1
		c0.1-0.3,0.2-0.7,0.3-0.9c0.1-0.3,0.2-0.7,0.3-1c0.1-0.3,0.2-0.6,0.3-0.8c0.1-0.3,0.2-0.7,0.3-0.9c0.1-0.2,0.1-0.4,0.2-0.7
		c0.1-0.3,0.2-0.5,0.3-0.7c0.1-0.3,0.1-0.5,0.2-0.7c0.1-0.2,0.1-0.4,0.2-0.6c0.1-0.2,0.1-0.4,0.2-0.5c0-0.2,0-0.4,0.1-0.5
		c0.1-0.1,0.1-0.3,0.2-0.4c0-0.1,0-0.3,0.1-0.4c0.1-0.1,0.1-0.2,0.1-0.3c0.1-0.1,0.1-0.1,0.1-0.2c0-0.1,0-0.1,0.1-0.2V179
		c0.1-0.1,0.3-0.1,0.4-0.2c0.2-0.1,0.4-0.1,0.6-0.2c0.3-0.1,0.6-0.1,0.9-0.1c0.3-0.1,0.7-0.1,1-0.2c0.5,0,0.9,0,1.4-0.1
		c0.5,0,1,0,1.5-0.1c0.6,0,1.1,0,1.7-0.1c0.6,0,1.1,0,1.7,0c0.6,0,1.3,0,1.9-0.1c0.6,0,1.2,0,1.8,0c0.6,0,1.3,0,1.9,0
		c0.6,0,1.2,0,1.9,0c0.6,0.1,1.2,0.1,1.8,0.1c0.6,0,1.2,0,1.8,0c0.6,0,1.1,0,1.7,0.1c0.5,0,1,0,1.5,0.1c0.5,0,0.9,0,1.4,0
		c0.4,0.1,0.8,0.1,1.1,0.1c0.3,0.1,0.7,0.1,0.9,0.1c0.2,0.1,0.4,0.1,0.7,0.2c0.1,0,0.3,0,0.4,0.1v0.1c0.1,0,0.1,0,0.1,0.1
		c0.1,0.1,0.1,0.1,0.1,0.2c0.1,0.1,0.1,0.2,0.1,0.3c0.1,0.1,0.1,0.2,0.2,0.3c0,0.1,0,0.3,0.1,0.4c0.1,0.2,0.1,0.4,0.2,0.5
		c0.1,0.2,0.1,0.4,0.2,0.6c0.1,0.2,0.1,0.4,0.2,0.6c0.1,0.2,0.1,0.4,0.2,0.6c0.1,0.3,0.1,0.5,0.2,0.7c0.1,0.3,0.2,0.6,0.3,0.8
		c0.1,0.3,0.2,0.6,0.3,0.8c0.1,0.3,0.1,0.7,0.2,0.9c0.1,0.3,0.2,0.7,0.3,1c0.1,0.4,0.2,0.7,0.3,1c0.1,0.3,0.3,0.7,0.4,1
		c0.1,0.3,0.2,0.7,0.3,1.1c0.1,0.3,0.2,0.7,0.3,1.1c0.1,0.4,0.3,0.8,0.4,1.2c0.1,0.4,0.3,0.8,0.4,1.2c0.1,0.4,0.2,0.9,0.3,1.4
		c0.1,0.4,0.3,0.9,0.4,1.4c0.1,0.4,0.3,0.9,0.4,1.4c0.1,0.5,0.3,1,0.4,1.5c0.1,0.5,0.3,1,0.4,1.5c0.2,0.5,0.4,1,0.5,1.5
		c0.1,0.6,0.3,1.1,0.4,1.6c0.1,0.6,0.3,1.1,0.4,1.6c0.2,0.6,0.4,1.1,0.5,1.7c0.1,0.5,0.3,1,0.4,1.6c0.2,0.6,0.4,1.1,0.5,1.7
		c0.1,0.6,0.3,1.1,0.5,1.7c0.1,0.6,0.3,1.1,0.4,1.8c0.2,0.6,0.4,1.1,0.5,1.7c0.2,0.6,0.4,1.1,0.5,1.8c0.1,0.6,0.3,1.1,0.5,1.8
		c0.1,0.6,0.3,1.1,0.5,1.8c0.1,0.6,0.3,1.2,0.5,1.8c0.1,0.6,0.3,1.2,0.5,1.9c0.1,0.6,0.3,1.1,0.5,1.8c0.1,0.6,0.3,1.2,0.4,1.9
		c0.2,0.6,0.4,1.2,0.5,1.8c0.2,0.6,0.4,1.2,0.6,1.9c0.1,0.6,0.3,1.2,0.5,1.9c0.1,0.6,0.3,1.2,0.5,1.9c0.1,0.6,0.3,1.2,0.5,1.9
		c0.1,0.6,0.3,1.2,0.5,1.9c0.1,0.6,0.3,1.2,0.5,1.9c0.1,0.6,0.3,1.2,0.5,1.9c0.1,0.6,0.3,1.1,0.5,1.8c0.1,0.6,0.3,1.2,0.4,1.9
		c0.2,0.6,0.4,1.2,0.5,1.9c0.2,0.6,0.4,1.2,0.5,1.9c0.2,0.6,0.4,1.1,0.5,1.8c0.2,0.6,0.4,1.2,0.5,1.9c0.1,0.6,0.3,1.1,0.5,1.8
		c0.1,0.6,0.3,1.2,0.4,1.8c0.2,0.6,0.4,1.2,0.5,1.8c0.1,0.6,0.3,1.2,0.5,1.8c0.1,0.6,0.3,1.1,0.4,1.8c0.1,0.6,0.3,1.1,0.5,1.7
		c0.1,0.6,0.3,1.1,0.4,1.7c0.1,0.6,0.3,1.1,0.4,1.7c0.2,0.6,0.4,1.1,0.5,1.7c0.1,0.6,0.3,1.1,0.4,1.6c0.1,0.6,0.3,1.1,0.4,1.7
		c0.1,0.5,0.3,1,0.4,1.5c0.1,0.6,0.3,1.1,0.4,1.6c0.1,0.5,0.2,1,0.3,1.5c0.1,0.5,0.3,1,0.4,1.5c0.1,0.5,0.3,1,0.4,1.5
		c0.1,0.4,0.2,0.9,0.3,1.4c0.1,0.4,0.3,0.9,0.4,1.4c0.1,0.4,0.2,0.8,0.3,1.2c0.1,0.4,0.2,0.8,0.3,1.2c0.1,0.4,0.2,0.8,0.3,1.1
		c0.1,0.4,0.2,0.8,0.3,1.1c0.1,0.4,0.1,0.8,0.2,1.1c0.1,0.3,0.2,0.7,0.3,1c0.1,0.3,0.1,0.7,0.2,1c0.1,0.3,0.1,0.6,0.2,0.9
		c0.1,0.3,0.1,0.6,0.2,0.8c0.1,0.3,0.1,0.6,0.2,0.8c0.1,0.3,0.1,0.6,0.2,0.8c0.1,0.2,0.1,0.4,0.2,0.6c0,0.3,0,0.5,0.1,0.7
		c0.1,0.2,0.1,0.4,0.1,0.5c0.1,0.2,0.1,0.4,0.1,0.5c0.1,0.2,0.1,0.4,0.1,0.5c0,0.1,0,0.2,0.1,0.3c0,0.1,0,0.3,0,0.4
		c0,0.1,0,0.1,0,0.2c0,0.1,0,0.1,0.1,0.2h-0.1c-0.1,0.1-0.1,0.2-0.2,0.3c-0.1,0.1-0.3,0.1-0.5,0.2c-0.3,0.1-0.5,0.1-0.7,0.1
		c-0.3,0.1-0.7,0.1-1,0.2c-0.4,0-0.8,0-1.1,0.1c-0.5,0.1-0.9,0.1-1.3,0.1c-0.5,0.1-1,0.1-1.6,0.1c-0.5,0-1,0-1.6,0.1
		c-0.6,0-1.1,0-1.8,0c-0.6,0-1.1,0-1.8,0s-1.2,0-1.8,0c-0.6,0-1.2,0-1.9,0c-0.6,0-1.2,0-1.9,0c-0.6,0-1.3,0-1.9,0
		c-0.6-0.1-1.3-0.1-1.9-0.1c-0.6,0-1.1,0-1.7-0.1c-0.6,0-1.1,0-1.7,0c-0.5-0.1-1-0.1-1.6-0.1c-0.4-0.1-0.9-0.1-1.4-0.1
		c-0.4-0.1-0.8-0.1-1.1-0.2c-0.3,0-0.7,0-1-0.1c-0.3-0.1-0.6-0.1-0.8-0.2c-0.2,0-0.4,0-0.5-0.1c-0.1-0.1-0.2-0.1-0.3-0.2
		c-0.1-0.1-0.1-0.1-0.2-0.2c-0.1-0.2-0.1-0.4-0.2-0.5c-0.1-0.3-0.1-0.5-0.2-0.7c-0.1-0.3-0.2-0.6-0.3-0.9c-0.1-0.3-0.2-0.7-0.3-1
		c-0.1-0.4-0.2-0.8-0.3-1.2c-0.1-0.5-0.3-1-0.4-1.5c-0.1-0.5-0.2-1-0.3-1.5c-0.1-0.6-0.3-1.1-0.4-1.6c-0.1-0.6-0.3-1.2-0.4-1.8
		c-0.1-0.6-0.3-1.1-0.4-1.8c-0.1-0.6-0.3-1.1-0.4-1.8c-0.1-0.6-0.3-1.2-0.4-1.9c-0.1-0.6-0.3-1.2-0.4-1.8c-0.1-0.6-0.3-1.2-0.4-1.9
		c-0.1-0.6-0.3-1.2-0.4-1.9c-0.1-0.6-0.3-1.1-0.4-1.8c-0.1-0.6-0.2-1.1-0.3-1.8c-0.1-0.6-0.3-1.1-0.4-1.6c-0.1-0.6-0.2-1.1-0.3-1.6
		c-0.1-0.5-0.2-1-0.3-1.5c-0.1-0.5-0.2-0.9-0.3-1.4c-0.1-0.4-0.1-0.8-0.2-1.1c-0.1-0.3-0.2-0.7-0.3-1c0-0.3,0-0.6-0.1-0.8
		c-0.1-0.2-0.1-0.4-0.2-0.5c0-0.1,0-0.3,0-0.4c0-0.1,0-0.1-0.1-0.2c-0.1,0-0.3,0-0.5-0.1c-0.3,0-0.6,0-0.8-0.1
		c-0.4-0.1-0.8-0.1-1.3-0.1c-0.5,0-1,0-1.6-0.1c-0.6,0-1.1,0-1.7,0c-0.6-0.1-1.2-0.1-1.8-0.1c-0.6,0-1.3,0-1.9,0c-0.6,0-1.2,0-1.8,0
		c-0.6,0-1.2,0-1.8,0.1c-0.5,0-1,0-1.5,0.1c-0.4,0.1-0.9,0.1-1.4,0.2c-0.3,0.1-0.6,0.2-0.9,0.3c-0.2,0.1-0.4,0.2-0.5,0.3v0.1
		c-0.1,0.1-0.1,0.3-0.1,0.4c-0.1,0.2-0.1,0.4-0.1,0.6c-0.1,0.3-0.1,0.6-0.2,0.8c-0.1,0.3-0.1,0.7-0.2,1c-0.1,0.4-0.2,0.8-0.3,1.2
		c-0.1,0.4-0.1,0.9-0.2,1.4c-0.1,0.5-0.2,1-0.3,1.5c-0.1,0.6-0.3,1.1-0.4,1.7c-0.1,0.6-0.2,1.1-0.3,1.7c-0.1,0.6-0.3,1.2-0.4,1.8
		c-0.1,0.6-0.3,1.2-0.4,1.9c-0.1,0.6-0.3,1.2-0.4,1.9c-0.1,0.6-0.3,1.2-0.4,1.9c-0.1,0.6-0.3,1.2-0.4,1.9c-0.1,0.6-0.3,1.2-0.4,1.9
		c-0.1,0.6-0.3,1.2-0.4,1.9c-0.1,0.6-0.2,1.1-0.3,1.8c-0.1,0.6-0.3,1.1-0.4,1.7c-0.1,0.6-0.3,1.1-0.4,1.6c-0.1,0.5-0.2,1-0.3,1.5
		c-0.1,0.5-0.3,0.9-0.4,1.4c-0.1,0.4-0.2,0.8-0.3,1.1c-0.1,0.3-0.1,0.7-0.2,0.9c-0.1,0.3-0.2,0.6-0.3,0.8c-0.1,0.2-0.1,0.4-0.2,0.5
		c0,0.1,0,0.2-0.1,0.3c-0.1,0.1-0.2,0.2-0.3,0.2c-0.2,0.1-0.4,0.1-0.6,0.2c-0.3,0.1-0.6,0.1-0.8,0.2c-0.3,0.1-0.7,0.1-1,0.2
		c-0.4,0.1-0.8,0.1-1.3,0.2c-0.5,0.1-1,0.1-1.5,0.1c-0.5,0.1-1,0.1-1.6,0.2c-0.6,0-1.1,0-1.7,0.1c-0.6,0.1-1.1,0.1-1.8,0.1
		c-0.6,0.1-1.1,0.1-1.8,0.1c-0.6,0.1-1.2,0.1-1.9,0.1s-1.2,0-1.9,0c-0.6,0-1.2,0-1.9,0.1c-0.6,0-1.2,0-1.8,0c-0.6,0-1.2,0-1.8-0.1
		c-0.6,0-1.1,0-1.7,0c-0.6-0.1-1.1-0.1-1.6-0.1c-0.5-0.1-1-0.1-1.5-0.1c-0.3-0.1-0.7-0.1-1.1-0.2c-0.3,0-0.7,0-1-0.1
		c-0.3-0.1-0.6-0.2-0.8-0.3c-0.2-0.1-0.4-0.1-0.6-0.2C430.5,298.7,430.4,298.6,430.3,298.5z M483.9,250.7c0.1-0.1-1.9-8.5-2.7-13.5
		c-0.6-3.7-2.3-17.6-2.3-17.6s-0.2-3.6-1.2-3.6s-1.5,3.8-1.5,3.8s-2,12.6-2.3,16.7c-0.4,5.7-3,14.9-2.9,15c0.1,0.1,0.3,0.1,0.6,0.1
		c0.3,0,0.7,0,1,0.1c0.5,0,1,0,1.5,0c0.6-0.1,1.1-0.1,1.7-0.1c0.6,0,1.1,0,1.7,0c0.6-0.1,1.2-0.1,1.8-0.1c0.6-0.1,1.1-0.1,1.7-0.2
		c0.4,0,0.9,0,1.4-0.1c0.3-0.1,0.7-0.2,1.1-0.2C483.5,251,483.8,250.9,483.9,250.7z"/>
	<path fill="#FFFFFF" d="M573.5,289.5c-0.1-0.3-0.3,0-0.6,0.9c-0.1,0.3-0.4,0.6-0.7,0.8c-0.3,0.2-0.5,0.5-0.7,0.7
		c-0.2,0.3-0.4,0.5-0.7,0.7c-0.3,0.3-0.5,0.5-0.7,0.7c-0.3,0.3-0.6,0.5-0.8,0.7c-0.3,0.2-0.5,0.4-0.7,0.6c-0.3,0.2-0.6,0.4-0.8,0.6
		c-0.3,0.1-0.6,0.3-0.8,0.5c-0.3,0.2-0.6,0.4-0.8,0.5c-0.3,0.1-0.6,0.3-0.8,0.5c-0.3,0.1-0.6,0.3-0.8,0.4c-0.3,0.1-0.6,0.3-0.9,0.4
		c-0.3,0.1-0.6,0.2-0.8,0.3c-0.3,0.1-0.6,0.3-0.9,0.4c-0.3,0.1-0.6,0.1-0.8,0.2c-0.3,0.1-0.6,0.2-0.9,0.3c-0.3,0.1-0.6,0.1-0.9,0.2
		c-0.3,0.1-0.6,0.1-0.8,0.2c-0.3,0.1-0.7,0.1-0.9,0.1c-0.3,0.1-0.6,0.1-0.9,0.1c-0.3,0.1-0.6,0.1-0.9,0.1c-0.3,0-0.6,0-0.9,0
		c-0.3,0.1-0.6,0.1-0.9,0c-0.3,0-0.6,0-0.8,0c-0.4,0-0.7,0-0.9,0c-0.3-0.1-0.7-0.1-0.9-0.1c-0.3-0.1-0.7-0.1-0.9-0.2
		c-0.3,0-0.6,0-0.9-0.1c-0.3-0.1-0.6-0.1-0.9-0.2c-0.3-0.1-0.6-0.1-0.8-0.2c-0.3-0.1-0.7-0.2-0.9-0.3c-0.3-0.1-0.6-0.2-0.9-0.3
		c-0.3-0.1-0.6-0.2-0.8-0.3c-0.3-0.1-0.6-0.3-0.9-0.4c-0.3-0.1-0.6-0.3-0.8-0.4c-0.3-0.1-0.6-0.3-0.8-0.4c-0.3-0.1-0.6-0.3-0.8-0.4
		c-0.3-0.2-0.6-0.4-0.8-0.5c-0.3-0.2-0.6-0.4-0.8-0.5c-0.3-0.2-0.6-0.4-0.8-0.6c-0.3-0.1-0.6-0.3-0.8-0.5c-0.3-0.2-0.5-0.4-0.7-0.6
		c-0.3-0.2-0.6-0.4-0.8-0.6c-0.2-0.3-0.5-0.5-0.7-0.7c-0.3-0.2-0.5-0.4-0.7-0.7c-0.2-0.2-0.5-0.4-0.7-0.7c-0.2-0.3-0.5-0.6-0.7-0.8
		c-0.2-0.2-0.4-0.4-0.6-0.7c-0.2-0.3-0.4-0.6-0.6-0.8c-0.2-0.3-0.4-0.6-0.6-0.9c-0.2-0.3-0.4-0.6-0.6-0.8c-0.2-0.3-0.4-0.7-0.6-0.9
		c-0.1-0.3-0.3-0.7-0.5-0.9c-0.2-0.3-0.4-0.7-0.5-1c-0.2-0.3-0.4-0.6-0.5-0.9c-0.1-0.3-0.3-0.7-0.5-1c-0.1-0.3-0.3-0.7-0.4-1
		c-0.1-0.4-0.3-0.8-0.4-1.1c-0.1-0.3-0.3-0.7-0.4-1.1c-0.1-0.3-0.2-0.7-0.3-1.1c-0.1-0.3-0.3-0.7-0.4-1.1c-0.1-0.4-0.1-0.8-0.2-1.1
		c-0.1-0.4-0.2-0.8-0.3-1.2c-0.1-0.4-0.1-0.8-0.2-1.2c-0.1-0.4-0.1-0.8-0.2-1.2c-0.1-0.5-0.1-0.9-0.2-1.4c0-0.4,0-0.9-0.1-1.4
		c0-0.4,0-0.9-0.1-1.4c0-0.4,0-0.9,0-1.4c0-0.5,0-0.9,0-1.4c0-0.5,0-1,0-1.5c0-0.5,0-1,0.1-1.5c0-0.5,0-1,0.1-1.5
		c0-0.6,0-1.1,0.1-1.6c0.1-0.5,0.1-1,0.2-1.5c0.1-0.6,0.1-1.1,0.2-1.6c0.1-0.6,0.3-1.2,0.4-1.8c0.1-0.6,0.2-1.1,0.3-1.7
		c0.1-0.6,0.3-1.1,0.4-1.6c0.1-0.6,0.3-1.1,0.5-1.6c0.1-0.6,0.3-1.1,0.5-1.6c0.1-0.5,0.3-1,0.5-1.5c0.2-0.5,0.4-0.9,0.6-1.4
		c0.2-0.5,0.4-0.9,0.6-1.4c0.2-0.5,0.4-0.9,0.7-1.4c0.2-0.4,0.4-0.8,0.7-1.2c0.2-0.4,0.4-0.8,0.7-1.1c0.3-0.4,0.6-0.8,0.8-1.1
		c0.3-0.4,0.6-0.8,0.8-1.1c0.3-0.3,0.6-0.7,0.8-1c0.3-0.3,0.6-0.7,0.8-1c0.3-0.3,0.7-0.6,0.9-0.9c0.3-0.3,0.7-0.6,0.9-0.8
		c0.3-0.3,0.7-0.6,1-0.8c0.3-0.3,0.6-0.6,0.9-0.8c0.3-0.3,0.7-0.5,1-0.7c0.3-0.3,0.7-0.5,1-0.7c0.3-0.2,0.7-0.4,1-0.6
		c0.3-0.2,0.7-0.4,1-0.6c0.4-0.2,0.8-0.4,1.2-0.5c0.3-0.2,0.7-0.4,1.1-0.5c0.3-0.1,0.7-0.3,1-0.5c0.4-0.1,0.8-0.3,1.1-0.4
		c0.4-0.1,0.8-0.2,1.1-0.3c0.4-0.1,0.8-0.2,1.1-0.3c0.4-0.1,0.8-0.2,1.1-0.3c0.4-0.1,0.8-0.1,1.2-0.2c0.4-0.1,0.8-0.1,1.1-0.2
		c0.4-0.1,0.8-0.1,1.2-0.1c0.3-0.1,0.7-0.1,1.1-0.1c0.3-0.1,0.7-0.1,1.1-0.1c0.4,0,0.8,0,1.2,0c0.4,0,0.8,0,1.1,0
		c0.4,0,0.8,0,1.1,0.1c0.4,0,0.8,0,1.1,0.1c0.4,0,0.8,0,1.1,0.1c0.4,0.1,0.8,0.1,1.1,0.2c0.3,0.1,0.7,0.1,1.2,0.2
		c0.3,0.1,0.7,0.2,1,0.3c0.4,0.1,0.8,0.2,1.1,0.3c0.3,0.1,0.7,0.3,1,0.4c0.3,0.1,0.7,0.2,1,0.3c0.3,0.1,0.7,0.3,1,0.4
		c0.3,0.2,0.7,0.4,1,0.5c0.3,0.1,0.6,0.3,0.9,0.5c0.3,0.2,0.7,0.4,0.9,0.5c0.3,0.2,0.7,0.4,0.9,0.6c0.3,0.2,0.7,0.4,0.9,0.6
		c0.4,0.1,0.7,0.3,0.8,0.6c0.5,0.8,0.8,1,0.8,0.7c0.3-0.6,0.4-1.3,0.3-2.2c-0.1-0.6,0-1.2,0.2-1.9c0.1-0.4,0.2-0.9,0.3-1.4
		c0-0.3,0.1-0.5,0.3-0.6c0.1-0.1,0.2-0.1,0.4-0.2c0.2-0.1,0.4-0.1,0.7-0.1c0.3-0.1,0.7-0.1,1-0.1c0.4-0.1,0.8-0.1,1.3-0.1
		c0.5,0,1,0,1.5,0c0.6,0,1.1,0,1.7,0c0.6,0,1.1,0,1.8,0c0.6,0,1.2,0,1.8,0c0.6,0,1.3,0,1.9,0.1c0.6,0,1.3,0,2,0.1
		c0.6,0,1.1,0,1.8,0.1c0.6,0.1,1.2,0.1,1.8,0.2c0.6,0.1,1.1,0.1,1.7,0.2c0.5,0.1,1,0.1,1.5,0.2c0.4,0.1,0.8,0.1,1.3,0.2
		c0.3,0.1,0.7,0.2,1,0.3c0.3,0.1,0.5,0.1,0.7,0.2c0.1,0.1,0.3,0.3,0.4,0.4l0.1,0.1c0,0.1,0,0.2,0,0.3c0,0.1,0,0.3,0,0.4
		c0,0.2,0,0.4,0,0.6s0,0.4,0,0.6c0,0.3,0,0.5,0,0.7c0,0.3,0,0.7,0,0.9c0,0.4,0,0.7-0.1,0.9c0,0.4,0,0.8,0,1.1
		c-0.1,0.4-0.1,0.8-0.1,1.1c0,0.5,0,0.9-0.1,1.4c0,0.4,0,0.9,0,1.4c-0.1,0.5-0.1,1-0.1,1.5c0,0.6,0,1.1-0.1,1.6c0,0.6,0,1.1,0,1.7
		c-0.1,0.6-0.1,1.1-0.1,1.7c0,0.6,0,1.2-0.1,1.9c0,0.6,0,1.2,0,1.8c-0.1,0.7-0.1,1.4-0.1,2c0,0.7,0,1.4,0,2c0,0.7,0,1.4-0.1,2.1
		c0,0.7,0,1.4,0,2.1c0,0.8,0,1.5,0,2.2c0,0.8,0,1.6,0,2.4c0,0.8,0,1.5,0,2.3c0.1,0.8,0.1,1.5,0.1,2.2c0,0.8,0,1.5,0,2.2
		c0,0.7,0,1.4,0.1,2.1c0,0.7,0,1.4,0,2.1c0.1,0.7,0.1,1.4,0.1,2c0,0.6,0,1.3,0.1,2c0,0.6,0,1.2,0.1,1.8c0,0.6,0,1.2,0,1.9
		c0.1,0.6,0.1,1.1,0.1,1.7c0.1,0.6,0.1,1.1,0.1,1.7c0.1,0.6,0.1,1.1,0.1,1.6c0.1,0.6,0.1,1.1,0.1,1.6c0.1,0.5,0.1,1,0.1,1.5
		c0.1,0.4,0.1,0.9,0.1,1.4c0,0.4,0,0.8,0.1,1.2c0,0.4,0,0.8,0.1,1.2c0,0.4,0,0.8,0,1.1c0.1,0.3,0.1,0.7,0.1,1.1c0,0.3,0,0.6,0.1,0.9
		c0,0.3,0,0.7,0,0.9c0,0.3,0,0.6,0.1,0.8c0,0.3,0,0.6,0,0.8c0,0.2,0,0.4,0,0.6c0,0.2,0,0.4,0,0.6c0,0.2,0,0.4,0,0.5
		c0,0.1,0,0.3,0,0.5c0,0.1,0,0.2-0.1,0.3c0,0.1,0,0.2,0,0.3c-0.1,0.1-0.1,0.1-0.1,0.2c0,0.1,0,0.1-0.1,0.1c-0.1,0.1-0.3,0.1-0.4,0.2
		c-0.3,0.1-0.5,0.1-0.7,0.1c-0.3,0.1-0.7,0.1-1,0.2c-0.3,0-0.7,0-1.1,0.1c-0.5,0-0.9,0-1.4,0c-0.6,0.1-1.1,0.1-1.6,0.1
		c-0.6,0-1.1,0-1.7,0c-0.6,0-1.1,0-1.8,0c-0.6,0-1.2,0-1.8,0c-0.6,0-1.3,0-1.9,0c-0.6,0-1.2,0-1.9,0c-0.6,0-1.1,0-1.8-0.1
		c-0.6,0-1.2,0-1.8-0.1c-0.6,0-1.2,0-1.8,0c-0.5-0.1-1-0.1-1.6-0.1c-0.5-0.1-1-0.1-1.5-0.1c-0.4-0.1-0.8-0.1-1.2-0.1
		c-0.3-0.1-0.7-0.1-1-0.2c-0.3,0-0.6,0-0.8-0.1c-0.2-0.1-0.4-0.1-0.6-0.1c-0.1-0.1-0.2-0.1-0.3-0.2c-0.2-0.2-0.3-0.5-0.4-0.7
		c-0.1-0.3-0.2-0.6-0.3-0.8c-0.1-0.4-0.2-0.8-0.2-1.1c-0.1-0.5-0.1-0.9-0.1-1.4c0.1-0.5,0.1-1,0.1-1.6c-0.1-0.6-0.1-1.1,0-1.7
		C573.6,290.7,573.7,290,573.5,289.5z M563.7,249.5c-0.4-0.1-0.9-0.1-1.3-0.1c-0.5,0-0.9,0-1.4,0c-0.5,0.1-0.9,0.2-1.4,0.3
		c-0.4,0.1-0.8,0.3-1.2,0.4c-0.4,0.2-0.8,0.4-1.2,0.7c-0.4,0.2-0.8,0.4-1.1,0.7c-0.3,0.3-0.7,0.6-0.9,0.9c-0.3,0.3-0.7,0.7-0.9,1
		c-0.3,0.3-0.6,0.7-0.8,1.1c-0.2,0.3-0.4,0.7-0.6,1.1c-0.2,0.5-0.4,0.9-0.6,1.4c-0.1,0.4-0.3,0.9-0.4,1.4c-0.1,0.4-0.1,0.9-0.2,1.4
		c-0.1,0.5-0.1,1-0.1,1.5c0,0.4,0,0.9,0,1.4c0.1,0.5,0.2,0.9,0.3,1.4c0.1,0.4,0.3,0.8,0.4,1.2c0.1,0.5,0.3,0.9,0.5,1.2
		c0.3,0.4,0.5,0.8,0.7,1.1c0.3,0.4,0.6,0.8,0.8,1.1c0.3,0.4,0.6,0.7,0.9,0.9c0.3,0.3,0.7,0.6,1,0.8c0.3,0.3,0.7,0.5,1,0.7
		c0.3,0.3,0.7,0.5,1.2,0.6c0.4,0.1,0.8,0.3,1.1,0.4c0.4,0.1,0.8,0.2,1.2,0.3c0.4,0.1,0.8,0.1,1.3,0.1c0.4,0,0.8,0,1.2-0.1
		c0.5-0.1,1-0.2,1.5-0.3c0.5-0.1,1-0.3,1.5-0.5c0.5-0.1,0.9-0.3,1.4-0.5c0.4-0.3,0.8-0.6,1.2-0.8c0.4-0.2,0.8-0.5,1.2-0.8
		c0.3-0.3,0.7-0.6,1-0.9c0.3-0.3,0.7-0.7,0.9-1.1c0.3-0.3,0.5-0.7,0.7-1.1c0.2-0.4,0.4-0.8,0.6-1.2c0.2-0.5,0.4-0.9,0.5-1.4
		c0.1-0.5,0.1-1,0.2-1.5c0.1-0.5,0.1-1,0.2-1.5c0-0.6,0-1.1-0.1-1.6c-0.1-0.5-0.1-0.9-0.2-1.4c-0.1-0.5-0.3-0.9-0.4-1.4
		c-0.2-0.4-0.4-0.8-0.6-1.2c-0.2-0.3-0.5-0.7-0.7-1.1c-0.3-0.3-0.6-0.7-0.9-0.9c-0.3-0.3-0.6-0.7-0.9-0.9c-0.4-0.3-0.8-0.6-1.1-0.8
		c-0.4-0.3-0.8-0.5-1.2-0.7c-0.4-0.2-0.9-0.4-1.4-0.6c-0.4-0.1-0.9-0.3-1.4-0.4C564.6,249.7,564.1,249.6,563.7,249.5z"/>
</g>
<g>
	<path fill="#EBAC29" d="M83.4,70.2c-18.7,0-33.8,15.2-33.8,33.9c0,18.7,15.2,33.9,33.8,33.9c18.7,0,33.8-15.2,33.8-33.9
		C117.3,85.4,102.1,70.2,83.4,70.2z M72.5,120.1"/>
	<path fill="#FFE388" d="M83.5,71.9c-17.7,0-32.1,14.4-32.1,32.1c0,17.7,14.4,32.1,32.1,32.1c17.7,0,32.1-14.4,32.1-32.1
		C115.6,86.3,101.2,71.9,83.5,71.9z"/>
	<path fill="#FFEDBB" d="M85.4,134.2c-17.2,0-31.2-14-31.2-31.2c0-0.5,0-0.9,0-1.4c-0.3,1.7-0.5,3.4-0.5,5.1
		c0,15.6,12.6,28.2,28.2,28.2c2.6,0,5.2-0.4,7.6-1C88.2,134.1,86.8,134.2,85.4,134.2z"/>
	<ellipse fill="#FFEDBB" cx="83.7" cy="92.4" rx="26.3" ry="19"/>
	<g>
		<path fill="#EBAC29" d="M76.7,121.9h-6.9c-1.1,0-2-0.9-2-2V87.5c0-1.1,0.9-2,2-2h6.9c1.1,0,2,0.9,2,2v32.5
			C78.7,121,77.8,121.9,76.7,121.9z"/>
		<path fill="#EBAC29" d="M96.7,121.9h-6.9c-1.1,0-2-0.9-2-2V87.5c0-1.1,0.9-2,2-2h6.9c1.1,0,2,0.9,2,2v32.5
			C98.7,121,97.8,121.9,96.7,121.9z"/>
	</g>
</g>
<g>
	<defs>
		<circle id="SVGID_46_" cx="440.9" cy="567.2" r="56.8"/>
	</defs>
	<clipPath id="SVGID_47_">
		<use xlink:href="#SVGID_46_"  overflow="visible"/>
	</clipPath>
	<g transform="matrix(1 0 0 1 0 3.051758e-005)" clip-path="url(#SVGID_47_)">
		
			<image overflow="visible" width="2474" height="2474" xlink:href="../../banco de imagens/botões/butt 26.png"  transform="matrix(4.714192e-002 0 0 4.613402e-002 381.789 510.4649)">
		</image>
	</g>
</g>
<g>
	<defs>
		<circle id="SVGID_48_" cx="754.3" cy="567.2" r="56.8"/>
	</defs>
	<clipPath id="SVGID_49_">
		<use xlink:href="#SVGID_48_"  overflow="visible"/>
	</clipPath>
	<g transform="matrix(1 0 0 1 0 3.051758e-005)" clip-path="url(#SVGID_49_)">
		
			<image overflow="visible" width="2474" height="2474" xlink:href="../../banco de imagens/botões/butt 26.png"  transform="matrix(4.714192e-002 0 0 4.613402e-002 695.2081 510.4649)">
		</image>
	</g>
</g>
<g>
	<defs>
		<circle id="SVGID_50_" cx="597.6" cy="567.2" r="56.8"/>
	</defs>
	<clipPath id="SVGID_51_">
		<use xlink:href="#SVGID_50_"  overflow="visible"/>
	</clipPath>
	<g transform="matrix(1 0 0 1 0 3.051758e-005)" clip-path="url(#SVGID_51_)">
		
			<image overflow="visible" width="2474" height="2474" xlink:href="../../banco de imagens/botões/butt 26.png"  transform="matrix(4.714192e-002 0 0 4.613402e-002 538.4985 510.4649)">
		</image>
	</g>
</g>
<g>
	<defs>
		<circle id="SVGID_52_" cx="284.2" cy="567.2" r="56.8"/>
	</defs>
	<clipPath id="SVGID_53_">
		<use xlink:href="#SVGID_52_"  overflow="visible"/>
	</clipPath>
	<g transform="matrix(1 0 0 1 1.525879e-005 3.051758e-005)" clip-path="url(#SVGID_53_)">
		
			<image overflow="visible" width="2474" height="2474" xlink:href="../../banco de imagens/botões/butt 26.png"  transform="matrix(4.714192e-002 0 0 4.613402e-002 225.0795 510.4649)">
		</image>
	</g>
</g>
<g>
	<defs>
		<circle id="SVGID_54_" cx="440.9" cy="409.2" r="56.8"/>
	</defs>
	<clipPath id="SVGID_55_">
		<use xlink:href="#SVGID_54_"  overflow="visible"/>
	</clipPath>
	<g clip-path="url(#SVGID_55_)">
		
			<image overflow="visible" width="2474" height="2474" xlink:href="../../banco de imagens/botões/butt 26.png"  transform="matrix(4.714192e-002 0 0 4.613402e-002 381.789 352.4649)">
		</image>
	</g>
</g>
<g>
	<defs>
		<circle id="SVGID_56_" cx="754.3" cy="409.2" r="56.8"/>
	</defs>
	<clipPath id="SVGID_57_">
		<use xlink:href="#SVGID_56_"  overflow="visible"/>
	</clipPath>
	<g clip-path="url(#SVGID_57_)">
		
			<image overflow="visible" width="2474" height="2474" xlink:href="../../banco de imagens/botões/butt 26.png"  transform="matrix(4.714192e-002 0 0 4.613402e-002 695.2081 352.4649)">
		</image>
	</g>
</g>
<g>
	<defs>
		<circle id="SVGID_58_" cx="597.6" cy="409.2" r="56.8"/>
	</defs>
	<clipPath id="SVGID_59_">
		<use xlink:href="#SVGID_58_"  overflow="visible"/>
	</clipPath>
	<g clip-path="url(#SVGID_59_)">
		
			<image overflow="visible" width="2474" height="2474" xlink:href="../../banco de imagens/botões/butt 26.png"  transform="matrix(4.714192e-002 0 0 4.613402e-002 538.4985 352.4649)">
		</image>
	</g>
</g>
<g>
	<defs>
		<circle id="SVGID_60_" cx="284.2" cy="409.2" r="56.8"/>
	</defs>
	<clipPath id="SVGID_61_">
		<use xlink:href="#SVGID_60_"  overflow="visible"/>
	</clipPath>
	<g transform="matrix(1 0 0 1 1.525879e-005 0)" clip-path="url(#SVGID_61_)">
		
			<image overflow="visible" width="2474" height="2474" xlink:href="../../banco de imagens/botões/butt 26.png"  transform="matrix(4.714192e-002 0 0 4.613402e-002 225.0795 352.4649)">
		</image>
	</g>
</g>
<image overflow="visible" width="1500" height="1500" xlink:href="../../Desenhos Jogo Yegatu/png/14.png"  transform="matrix(7.562299e-002 0 0 7.562299e-002 227.4954 348.8544)">
</image>
<image overflow="visible" width="1500" height="1500" xlink:href="../../Desenhos Jogo Yegatu/png/53.png"  transform="matrix(6.840837e-002 0 0 6.840837e-002 231.4335 515.4802)">
</image>
<image overflow="visible" width="1500" height="1500" xlink:href="../../Desenhos Jogo Yegatu/png/12.png"  transform="matrix(6.505096e-002 -6.505096e-002 6.505096e-002 6.505096e-002 496.0137 412.7331)">
</image>
<image overflow="visible" width="1500" height="1500" xlink:href="../../Desenhos Jogo Yegatu/png/61.png"  transform="matrix(6.739176e-002 0 0 6.739176e-002 702.3021 520.2265)">
</image>
<g>
	<path fill-rule="evenodd" clip-rule="evenodd" d="M444.2,537.9c-1.2-3.9-7-0.8-7.6-0.6c-3.8,0.8-6.7-0.6-7.4,4.1
		c-4.2-0.1-1.2,1-4.4,3c-1.8,1.1-5.3,1.5-9.9,6.3c-0.1,0.1-0.3,0.3-0.4,0.4l-2.6,3.7c-1.2,2.5-0.8,3.3-2.5,5.2
		c-2.7,3.2-4.5,3.4,0,10.3c2.1,3.2,0.7,3.9,4.1,4.1c1.2,3.3,0.5,1.5,2.9,3.5c1.9,1.5,1.3,1.4,3.5,2.4l0.1,2.3l0.5,3.5
		c0.9,4,3,9.5,6.3,11.2l-0.9-7.6c0.3,0.1,0.4,0.2,0.4,0.5l5,8.6c-0.6-2.5-1.2-2.8-1.1-5.8l0.4-5.3c3.4,3.2,10.2,3.9,15.8,3.4
		l8.8-2.7l-0.3-0.6l4-1.5l0.4-2.6c2.1-2.2,1.6-3.1,2.8-4.9c2.5,3.3,4.1,5,9.2,4.4c2.4-3.3,4.5-5.1,4.7-9.8c0.9-20.4-12.1-9.1-17-8.5
		c9.6-11.6,7.3-8,2.9-15.2C458.4,543.8,459,539.6,444.2,537.9L444.2,537.9z"/>
</g>
<g>
	<path fill-rule="evenodd" clip-rule="evenodd" d="M748.9,374.8c-0.9,0.9-1.7,1.7-1.7,3.5c-0.9,2.6,0.9,5.2,0.9,7
		c-2.6,1.7-2.7,3.2-2.6,5.2c-1.9-0.6-4,0-5.2,0.9c-1.8,0.6-2.8,1.3-3.5,3.5c-4.4,2.6-6.1,7-6.1,13.1c0,5.2,5.2,30.5,12.2,35.7
		c2.6,1.7,4.3,1.7,7,0.9c1.7,2.6,0,1.7,3.5,2.6c6.1,0.9,12.2-5.2,15.7-8.7c11.3-11.3,20.9-44.4-0.9-46.2c-0.9-5.2,0-7.8-3.5-11.3
		c0-5.2-5.2-7.8-7.8-8.7C753.5,371.4,750.4,373.2,748.9,374.8L748.9,374.8z"/>
</g>
<g>
	<path fill-rule="evenodd" clip-rule="evenodd" stroke="#000000" stroke-width="0.5669" stroke-miterlimit="10" d="M585.3,550
		c-1.6-0.8-3.3-0.3-5.2,0.6c-3.3,2.1-6.1,3.9-9.4,6c-1.7,0.6-2.5-0.9-1.8-1.9l7.4-8.8l3.7-7.2c2.2-2,3.2-4.5,6.6-6
		c2.2-1.5,13.3-4.3,11.3-1.9c-1.7,2-2.9,4.3-3.4,6.8c0,2,1,7.5-1.4,9.6c-1.4,1.1-1.2,2.3,0.1,3.6c1.5,0.6,2.2-0.8,5.5-0.3
		c2.7,0.3,4.9,1.3,8.6,4.7c6,7.8,9.3,18.7,12,24.2c1.6,2.7,2.1,5.7,3.1,8.6c1.1,2.5,2.9,4.5,4.4,6c-2.4,0.2-5.5,0.6-8.2-0.3
		c-1.6-0.7-3.2-1.5-4.8-2.2c-0.1,3.7,0.7,7.7,1,10.1c0.6,3.6,2,7.5,3.7,10.7c-3,0.1-5.8-1.8-7.1-4.9c-1.8-4.3-2.8-10.2-4.3-15.2
		c-0.9-2.5-2.9-6.5-5.2-7.7c-1.4-0.9-3.1,0.2-4.1,0.7c-1.1,0.1-2.1,1.4-3.2,1.2c-1-0.1-2.2-2.6-3.3-3.9c-0.7-0.6-1.5,0-2,0.7
		c-0.3,0.6-1,1.3-1.3,2.1c-0.3,1.4-1.3,1.2-2.2,1.1c0-1.9,0.8-4.1,1.6-4.8l1-0.7c-0.4-0.8-0.5-1.6-1.2-2c-3.7-1.5-2.5-2.4-4.2-3.3
		c-0.9-0.6-2,0-3,0c0.3-1.1,2.5-2.4,4.9-1.4c0.8,0.3,3.5,2.9,5.2,4.4c-0.5-1-1.1-2-1.7-2.9c-0.3-0.3-1-1.3-2.2-2
		c0.6-0.3,1.7-0.1,2.4,0.3c1.6,1.1,2.3,3.4,3.4,5.1c1.2,1.1,1.3,2.9,3,3.5c1.2,0.1,1.8-0.4,1.6-1.8c-0.3-1.7-3.5-3.5-5.1-5.8
		c-1.4-1.7-2.8-3.4-4.2-5c-1.2-1.5-2.7-2.8-3.5-4.6c-1-2.9-0.5-6.8,0.2-9.1c0.3-1.6,1.2-2.5,1.5-4.1
		C585.8,551.2,585.9,550.5,585.3,550L585.3,550z"/>
</g>
<g>
	<path fill-rule="evenodd" clip-rule="evenodd" d="M450.6,413.1c0.5,0.5,1,1.3,1,2.7c0.7,2.2,8.2,3.8,12.4,8.4
		c5.5,6.1,0.3,16.5-1.1,21.7c-14.4-3.5-22.7-9-24.6-16.8c-1.3-5.4,3.7-7.4,2.6-9.3c-0.7-1.1-1-1-2-3.5v-0.8c2-4.5-5.1-12-8.1-19.5
		l-3.7-6.7c-3.5-1-5.5-0.5-7.7-4.2l-2-4.8c-0.4-3.3,1.2-4.8,2.7-5.6c0.7,1.3,2.3,3.3,5.9,2.9c4.6-0.6,3.3-2.3,2.6-3.6
		c3.5-0.1,4.6,3.3,6.2,5.6c2.3,3.8,1.5,4.5-0.7,7.5c5.4,9.5,8.6,17.4,14.8,24.9C449,412.1,449.9,412.4,450.6,413.1L450.6,413.1z"/>
</g>
<g opacity="0.51">
	<g>
		<defs>
			<rect id="SVGID_62_" x="-0.2" y="0" width="1024.2" height="768.4"/>
		</defs>
		<clipPath id="SVGID_63_">
			<use xlink:href="#SVGID_62_"  overflow="visible"/>
		</clipPath>
	</g>
	<g>
		<defs>
			<rect id="SVGID_64_" x="-0.2" y="0" width="1024.2" height="768.4"/>
		</defs>
		<use xlink:href="#SVGID_64_"  overflow="visible" fill="#071A2E"/>
		<clipPath id="SVGID_65_">
			<use xlink:href="#SVGID_64_"  overflow="visible"/>
		</clipPath>
		<polygon clip-path="url(#SVGID_65_)" fill="#071A2E" points="-0.1,776.6 -5.7,0 1023.9,-8.3 1029.5,768.3 		"/>
	</g>
	<g>
		<defs>
			<rect id="SVGID_66_" x="-0.2" y="0" width="1024.2" height="768.4"/>
		</defs>
		<clipPath id="SVGID_67_">
			<use xlink:href="#SVGID_66_"  overflow="visible"/>
		</clipPath>
	</g>
</g>
</svg>
