<?xml version="1.0" encoding="utf-8"?>
<!-- Generator: Adobe Illustrator 18.0.0, SVG Export Plug-In . SVG Version: 6.00 Build 0)  -->
<!DOCTYPE svg PUBLIC "-//W3C//DTD SVG 1.1//EN" "http://www.w3.org/Graphics/SVG/1.1/DTD/svg11.dtd">
<svg version="1.1" id="Camada_1" xmlns="http://www.w3.org/2000/svg" xmlns:xlink="http://www.w3.org/1999/xlink" x="0px" y="0px"
	 viewBox="0 0 441.3 62" enable-background="new 0 0 441.3 62" xml:space="preserve">
<g>
	<text transform="matrix(0.9297 0 0 1 24.3577 46.6667)" fill="#020202" font-family="'Big_Bottom_Cartoon'" font-size="26.9353">Re muati sao yepiasuwa</text>
</g>
<path fill="#010001" d="M210.4,21.4c-0.3,0.1-2.7,3.2-4.4,2.7c-1.8-0.5-1.8-2.4-1.8-3.3c0-0.9,0.8-3.1,1.9-4.3
	c1.1-1.2,4.3-3.6,6.3-1.5c1.2,1.4,1.2,1.7,1.9,1.7c0.4,0,1.1-0.6,1.2-0.8c3.5-4.7,5.9-1,5.6,1.1c0,1.1-0.6,2-1,2.8
	c-0.7,1.3-1.3,2.3-2,2.9c-0.9,0.9-1.4,1.3-3.4,1.4c-2.1,0-2.8-1.1-3.5-2.1C210.9,21.6,210.8,21.3,210.4,21.4"/>
</svg>
